<?xml version="1.0" encoding="UTF-8" standalone="no"?>
<!DOCTYPE svg PUBLIC "-//W3C//DTD SVG 1.1//EN"
 "http://www.w3.org/Graphics/SVG/1.1/DTD/svg11.dtd">
<!-- Generated by graphviz version 2.44.1 (0)
 -->
<!-- Title: T_MESH::ply_readAnotherFIndex Pages: 1 -->
<svg width="1176pt" height="459pt"
 viewBox="0.00 0.00 1176.00 459.00" xmlns="http://www.w3.org/2000/svg" xmlns:xlink="http://www.w3.org/1999/xlink">
<g id="graph0" class="graph" transform="scale(1 1) rotate(0) translate(4 455)">
<title>T_MESH::ply_readAnotherFIndex</title>
<polygon fill="white" stroke="transparent" points="-4,4 -4,-455 1172,-455 1172,4 -4,4"/>
<!-- Node1 -->
<g id="node1" class="node">
<title>Node1</title>
<g id="a_node1"><a xlink:title=" ">
<polygon fill="#bfbfbf" stroke="black" points="1004,-355 1004,-374 1168,-374 1168,-355 1004,-355"/>
<text text-anchor="middle" x="1086" y="-362" font-family="Helvetica,sans-Serif" font-size="10.00">T_MESH::ply_readAnotherFIndex</text>
</a>
</g>
</g>
<!-- Node2 -->
<g id="node2" class="node">
<title>Node2</title>
<g id="a_node2"><a xlink:href="../../d6/d27/class_t___m_e_s_h_1_1_basic___t_mesh.html#a9ab86ddab641aabe9295c41e90dc666c" target="_top" xlink:title="Loads PLY.">
<polygon fill="white" stroke="black" points="845,-349.5 845,-379.5 968,-379.5 968,-349.5 845,-349.5"/>
<text text-anchor="start" x="853" y="-367.5" font-family="Helvetica,sans-Serif" font-size="10.00">T_MESH::Basic_TMesh</text>
<text text-anchor="middle" x="906.5" y="-356.5" font-family="Helvetica,sans-Serif" font-size="10.00">::loadPLY</text>
</a>
</g>
</g>
<!-- Node1&#45;&gt;Node2 -->
<g id="edge1" class="edge">
<title>Node1&#45;&gt;Node2</title>
<path fill="none" stroke="midnightblue" d="M993.67,-364.5C985.05,-364.5 976.46,-364.5 968.23,-364.5"/>
<polygon fill="midnightblue" stroke="midnightblue" points="993.78,-368 1003.78,-364.5 993.78,-361 993.78,-368"/>
</g>
<!-- Node3 -->
<g id="node3" class="node">
<title>Node3</title>
<g id="a_node3"><a xlink:href="../../d6/d27/class_t___m_e_s_h_1_1_basic___t_mesh.html#a24ff0322eb032b4c87635c809c35c914" target="_top" xlink:title="Initialize the triangle mesh from the file &#39;filename&#39;.">
<polygon fill="white" stroke="black" points="686,-349.5 686,-379.5 809,-379.5 809,-349.5 686,-349.5"/>
<text text-anchor="start" x="694" y="-367.5" font-family="Helvetica,sans-Serif" font-size="10.00">T_MESH::Basic_TMesh</text>
<text text-anchor="middle" x="747.5" y="-356.5" font-family="Helvetica,sans-Serif" font-size="10.00">::load</text>
</a>
</g>
</g>
<!-- Node2&#45;&gt;Node3 -->
<g id="edge2" class="edge">
<title>Node2&#45;&gt;Node3</title>
<path fill="none" stroke="midnightblue" d="M834.79,-364.5C826.19,-364.5 817.47,-364.5 809.04,-364.5"/>
<polygon fill="midnightblue" stroke="midnightblue" points="834.8,-368 844.8,-364.5 834.8,-361 834.8,-368"/>
</g>
<!-- Node4 -->
<g id="node4" class="node">
<title>Node4</title>
<g id="a_node4"><a xlink:href="../../d6/d27/class_t___m_e_s_h_1_1_basic___t_mesh.html#afe360f55844b79823d045599dc1ea937" target="_top" xlink:title="Append another triangle mesh to the existing one.">
<polygon fill="white" stroke="black" points="527,-420.5 527,-450.5 650,-450.5 650,-420.5 527,-420.5"/>
<text text-anchor="start" x="535" y="-438.5" font-family="Helvetica,sans-Serif" font-size="10.00">T_MESH::Basic_TMesh</text>
<text text-anchor="middle" x="588.5" y="-427.5" font-family="Helvetica,sans-Serif" font-size="10.00">::append</text>
</a>
</g>
</g>
<!-- Node3&#45;&gt;Node4 -->
<g id="edge3" class="edge">
<title>Node3&#45;&gt;Node4</title>
<path fill="none" stroke="midnightblue" d="M707.48,-384.34C690.03,-392.99 669.13,-403.06 650,-411.5 643.18,-414.51 635.85,-417.56 628.73,-420.44"/>
<polygon fill="midnightblue" stroke="midnightblue" points="709.39,-387.29 716.78,-379.7 706.27,-381.03 709.39,-387.29"/>
</g>
<!-- Node5 -->
<g id="node5" class="node">
<title>Node5</title>
<g id="a_node5"><a xlink:href="../../d2/d68/class_export_open_scad_tool.html#a6e48e9b58a764bc8032b1fbc4082603d" target="_top" xlink:title=" ">
<polygon fill="white" stroke="black" points="534,-371.5 534,-401.5 643,-401.5 643,-371.5 534,-371.5"/>
<text text-anchor="start" x="542" y="-389.5" font-family="Helvetica,sans-Serif" font-size="10.00">ExportOpenScadTool</text>
<text text-anchor="middle" x="588.5" y="-378.5" font-family="Helvetica,sans-Serif" font-size="10.00">::fixMesh</text>
</a>
</g>
</g>
<!-- Node3&#45;&gt;Node5 -->
<g id="edge4" class="edge">
<title>Node3&#45;&gt;Node5</title>
<path fill="none" stroke="midnightblue" d="M675.8,-374.41C664.83,-375.94 653.65,-377.51 643.13,-378.99"/>
<polygon fill="midnightblue" stroke="midnightblue" points="676.38,-377.86 685.8,-373.01 675.41,-370.93 676.38,-377.86"/>
</g>
<!-- Node10 -->
<g id="node10" class="node">
<title>Node10</title>
<g id="a_node10"><a xlink:href="../../dd/d00/class_export_s_t_l_tool.html#a82d1e11c365c1ed2adf6d831b7f6014f" target="_top" xlink:title=" ">
<polygon fill="white" stroke="black" points="528,-333 528,-352 649,-352 649,-333 528,-333"/>
<text text-anchor="middle" x="588.5" y="-340" font-family="Helvetica,sans-Serif" font-size="10.00">ExportSTLTool::fixMesh</text>
</a>
</g>
</g>
<!-- Node3&#45;&gt;Node10 -->
<g id="edge11" class="edge">
<title>Node3&#45;&gt;Node10</title>
<path fill="none" stroke="midnightblue" d="M675.78,-354.59C666.84,-353.34 657.75,-352.06 649.01,-350.84"/>
<polygon fill="midnightblue" stroke="midnightblue" points="675.41,-358.07 685.8,-355.99 676.38,-351.14 675.41,-358.07"/>
</g>
<!-- Node12 -->
<g id="node12" class="node">
<title>Node12</title>
<g id="a_node12"><a xlink:href="../../d9/dc6/class_main_window.html#a15f9fa9fe71b50669ecf5f5a3a1ce90e" target="_top" xlink:title="Import STL / OBJ mesh into the scene.">
<polygon fill="white" stroke="black" points="528,-178 528,-197 649,-197 649,-178 528,-178"/>
<text text-anchor="middle" x="588.5" y="-185" font-family="Helvetica,sans-Serif" font-size="10.00">MainWindow::loadMesh</text>
</a>
</g>
</g>
<!-- Node3&#45;&gt;Node12 -->
<g id="edge13" class="edge">
<title>Node3&#45;&gt;Node12</title>
<path fill="none" stroke="midnightblue" d="M726.27,-341.69C691.56,-302.56 622.1,-224.25 597.98,-197.06"/>
<polygon fill="midnightblue" stroke="midnightblue" points="723.86,-344.25 733.11,-349.41 729.1,-339.61 723.86,-344.25"/>
</g>
<!-- Node6 -->
<g id="node6" class="node">
<title>Node6</title>
<g id="a_node6"><a xlink:href="../../d2/d68/class_export_open_scad_tool.html#a2e36901501e307b74705aa84f4227d67" target="_top" xlink:title="Export the wiring in the openscad format.">
<polygon fill="white" stroke="black" points="362,-371.5 362,-401.5 471,-401.5 471,-371.5 362,-371.5"/>
<text text-anchor="start" x="370" y="-389.5" font-family="Helvetica,sans-Serif" font-size="10.00">ExportOpenScadTool</text>
<text text-anchor="middle" x="416.5" y="-378.5" font-family="Helvetica,sans-Serif" font-size="10.00">::writeWiring</text>
</a>
</g>
</g>
<!-- Node5&#45;&gt;Node6 -->
<g id="edge5" class="edge">
<title>Node5&#45;&gt;Node6</title>
<path fill="none" stroke="midnightblue" d="M523.7,-386.5C506.42,-386.5 487.9,-386.5 471.23,-386.5"/>
<polygon fill="midnightblue" stroke="midnightblue" points="523.71,-390 533.71,-386.5 523.71,-383 523.71,-390"/>
</g>
<!-- Node7 -->
<g id="node7" class="node">
<title>Node7</title>
<g id="a_node7"><a xlink:href="../../d2/d68/class_export_open_scad_tool.html#a71ef67a238fb9cd74563b65d77c1ea73" target="_top" xlink:title=" ">
<polygon fill="white" stroke="black" points="13,-371.5 13,-401.5 122,-401.5 122,-371.5 13,-371.5"/>
<text text-anchor="start" x="21" y="-389.5" font-family="Helvetica,sans-Serif" font-size="10.00">ExportOpenScadTool</text>
<text text-anchor="middle" x="67.5" y="-378.5" font-family="Helvetica,sans-Serif" font-size="10.00">::execute</text>
</a>
</g>
</g>
<!-- Node6&#45;&gt;Node7 -->
<g id="edge6" class="edge">
<title>Node6&#45;&gt;Node7</title>
<path fill="none" stroke="midnightblue" d="M351.75,-403.59C336.85,-406.87 320.96,-409.81 306,-411.5 246.38,-418.22 230.57,-418.66 171,-411.5 154.09,-409.47 135.94,-405.61 119.68,-401.53"/>
<polygon fill="midnightblue" stroke="midnightblue" points="352.92,-406.91 361.89,-401.27 351.36,-400.08 352.92,-406.91"/>
</g>
<!-- Node8 -->
<g id="node8" class="node">
<title>Node8</title>
<g id="a_node8"><a xlink:href="../../d2/d68/class_export_open_scad_tool.html#a9c35cf64ece9ee328df6ebfd080c0689" target="_top" xlink:title="Export the meshdifference between mesh and wiring in the openscad format.">
<polygon fill="white" stroke="black" points="184,-371.5 184,-401.5 293,-401.5 293,-371.5 184,-371.5"/>
<text text-anchor="start" x="192" y="-389.5" font-family="Helvetica,sans-Serif" font-size="10.00">ExportOpenScadTool</text>
<text text-anchor="middle" x="238.5" y="-378.5" font-family="Helvetica,sans-Serif" font-size="10.00">::writeDifference</text>
</a>
</g>
</g>
<!-- Node6&#45;&gt;Node8 -->
<g id="edge7" class="edge">
<title>Node6&#45;&gt;Node8</title>
<path fill="none" stroke="midnightblue" d="M351.6,-386.5C332.45,-386.5 311.66,-386.5 293.24,-386.5"/>
<polygon fill="midnightblue" stroke="midnightblue" points="351.74,-390 361.74,-386.5 351.74,-383 351.74,-390"/>
</g>
<!-- Node9 -->
<g id="node9" class="node">
<title>Node9</title>
<g id="a_node9"><a xlink:href="../../d2/d68/class_export_open_scad_tool.html#adc9cf506ecd2ef6e33f37f2eb206da1a" target="_top" xlink:title="Export the meshdifference between mesh and magnets in the openscad format.">
<polygon fill="white" stroke="black" points="176,-322.5 176,-352.5 301,-352.5 301,-322.5 176,-322.5"/>
<text text-anchor="start" x="184" y="-340.5" font-family="Helvetica,sans-Serif" font-size="10.00">ExportOpenScadTool</text>
<text text-anchor="middle" x="238.5" y="-329.5" font-family="Helvetica,sans-Serif" font-size="10.00">::writeDifferenceMagnets</text>
</a>
</g>
</g>
<!-- Node6&#45;&gt;Node9 -->
<g id="edge9" class="edge">
<title>Node6&#45;&gt;Node9</title>
<path fill="none" stroke="midnightblue" d="M351.91,-368.8C332.78,-363.47 311.99,-357.68 293.54,-352.55"/>
<polygon fill="midnightblue" stroke="midnightblue" points="351.17,-372.22 361.74,-371.53 353.04,-365.48 351.17,-372.22"/>
</g>
<!-- Node8&#45;&gt;Node7 -->
<g id="edge8" class="edge">
<title>Node8&#45;&gt;Node7</title>
<path fill="none" stroke="midnightblue" d="M173.25,-386.5C156.42,-386.5 138.44,-386.5 122.21,-386.5"/>
<polygon fill="midnightblue" stroke="midnightblue" points="173.56,-390 183.56,-386.5 173.56,-383 173.56,-390"/>
</g>
<!-- Node9&#45;&gt;Node7 -->
<g id="edge10" class="edge">
<title>Node9&#45;&gt;Node7</title>
<path fill="none" stroke="midnightblue" d="M175.78,-355.39C157.61,-360.66 137.91,-366.38 120.41,-371.45"/>
<polygon fill="midnightblue" stroke="midnightblue" points="176.79,-358.75 185.42,-352.6 174.84,-352.02 176.79,-358.75"/>
</g>
<!-- Node11 -->
<g id="node11" class="node">
<title>Node11</title>
<g id="a_node11"><a xlink:href="../../dd/d00/class_export_s_t_l_tool.html#a218420198ac8fef5b9f9a8acc889307d" target="_top" xlink:title=" ">
<polygon fill="white" stroke="black" points="356,-333 356,-352 477,-352 477,-333 356,-333"/>
<text text-anchor="middle" x="416.5" y="-340" font-family="Helvetica,sans-Serif" font-size="10.00">ExportSTLTool::execute</text>
</a>
</g>
</g>
<!-- Node10&#45;&gt;Node11 -->
<g id="edge12" class="edge">
<title>Node10&#45;&gt;Node11</title>
<path fill="none" stroke="midnightblue" d="M517.46,-342.5C504.08,-342.5 490.2,-342.5 477.18,-342.5"/>
<polygon fill="midnightblue" stroke="midnightblue" points="517.56,-346 527.56,-342.5 517.56,-339 517.56,-346"/>
</g>
<!-- Node13 -->
<g id="node13" class="node">
<title>Node13</title>
<g id="a_node13"><a xlink:href="../../d9/dc6/class_main_window.html#a6e3c9bc26115fb1b1664607e58716641" target="_top" xlink:title=" ">
<polygon fill="white" stroke="black" points="343.5,-295 343.5,-314 489.5,-314 489.5,-295 343.5,-295"/>
<text text-anchor="middle" x="416.5" y="-302" font-family="Helvetica,sans-Serif" font-size="10.00">MainWindow::slotImportMesh</text>
</a>
</g>
</g>
<!-- Node12&#45;&gt;Node13 -->
<g id="edge14" class="edge">
<title>Node12&#45;&gt;Node13</title>
<path fill="none" stroke="midnightblue" d="M574.72,-205.5C558.01,-227.68 526.63,-264.95 491,-285.5 484.26,-289.38 476.73,-292.49 469.12,-294.96"/>
<polygon fill="midnightblue" stroke="midnightblue" points="577.66,-207.4 580.76,-197.27 572.02,-203.26 577.66,-207.4"/>
</g>
<!-- Node16 -->
<g id="node16" class="node">
<title>Node16</title>
<g id="a_node16"><a xlink:href="../../d9/dc6/class_main_window.html#a46bb2fea8ddeab75e15a223c291116b6" target="_top" xlink:title=" ">
<polygon fill="white" stroke="black" points="342,-245.5 342,-275.5 491,-275.5 491,-245.5 342,-245.5"/>
<text text-anchor="start" x="350" y="-263.5" font-family="Helvetica,sans-Serif" font-size="10.00">MainWindow::slotOptimization</text>
<text text-anchor="middle" x="416.5" y="-252.5" font-family="Helvetica,sans-Serif" font-size="10.00">BenchmarkBunnyLowPoly</text>
</a>
</g>
</g>
<!-- Node12&#45;&gt;Node16 -->
<g id="edge17" class="edge">
<title>Node12&#45;&gt;Node16</title>
<path fill="none" stroke="midnightblue" d="M561.46,-202.11C542.32,-212.5 515.5,-226.35 491,-236.5 483.44,-239.63 475.3,-242.64 467.3,-245.39"/>
<polygon fill="midnightblue" stroke="midnightblue" points="563.36,-205.05 570.45,-197.18 560,-198.92 563.36,-205.05"/>
</g>
<!-- Node17 -->
<g id="node17" class="node">
<title>Node17</title>
<g id="a_node17"><a xlink:href="../../d9/dc6/class_main_window.html#affed0fab82fd390e2762933c6dca9124" target="_top" xlink:title=" ">
<polygon fill="white" stroke="black" points="342,-196.5 342,-226.5 491,-226.5 491,-196.5 342,-196.5"/>
<text text-anchor="start" x="350" y="-214.5" font-family="Helvetica,sans-Serif" font-size="10.00">MainWindow::slotOptimization</text>
<text text-anchor="middle" x="416.5" y="-203.5" font-family="Helvetica,sans-Serif" font-size="10.00">BenchmarkCorona</text>
</a>
</g>
</g>
<!-- Node12&#45;&gt;Node17 -->
<g id="edge19" class="edge">
<title>Node12&#45;&gt;Node17</title>
<path fill="none" stroke="midnightblue" d="M517.5,-197.38C508.82,-198.61 499.93,-199.86 491.2,-201.1"/>
<polygon fill="midnightblue" stroke="midnightblue" points="518.15,-200.83 527.56,-195.96 517.17,-193.89 518.15,-200.83"/>
</g>
<!-- Node18 -->
<g id="node18" class="node">
<title>Node18</title>
<g id="a_node18"><a xlink:href="../../d9/dc6/class_main_window.html#adfdb8fcb8685844e8ce11bfb41b83b7d" target="_top" xlink:title=" ">
<polygon fill="white" stroke="black" points="342,-147.5 342,-177.5 491,-177.5 491,-147.5 342,-147.5"/>
<text text-anchor="start" x="350" y="-165.5" font-family="Helvetica,sans-Serif" font-size="10.00">MainWindow::slotOptimization</text>
<text text-anchor="middle" x="416.5" y="-154.5" font-family="Helvetica,sans-Serif" font-size="10.00">BenchmarkCthulhu</text>
</a>
</g>
</g>
<!-- Node12&#45;&gt;Node18 -->
<g id="edge21" class="edge">
<title>Node12&#45;&gt;Node18</title>
<path fill="none" stroke="midnightblue" d="M517.5,-177.21C508.82,-175.93 499.93,-174.62 491.2,-173.34"/>
<polygon fill="midnightblue" stroke="midnightblue" points="517.16,-180.69 527.56,-178.69 518.18,-173.77 517.16,-180.69"/>
</g>
<!-- Node19 -->
<g id="node19" class="node">
<title>Node19</title>
<g id="a_node19"><a xlink:href="../../d9/dc6/class_main_window.html#a5283a0d7aeeafd409c69b272053f3986" target="_top" xlink:title=" ">
<polygon fill="white" stroke="black" points="342,-98.5 342,-128.5 491,-128.5 491,-98.5 342,-98.5"/>
<text text-anchor="start" x="350" y="-116.5" font-family="Helvetica,sans-Serif" font-size="10.00">MainWindow::slotOptimization</text>
<text text-anchor="middle" x="416.5" y="-105.5" font-family="Helvetica,sans-Serif" font-size="10.00">BenchmarkCube</text>
</a>
</g>
</g>
<!-- Node12&#45;&gt;Node19 -->
<g id="edge23" class="edge">
<title>Node12&#45;&gt;Node19</title>
<path fill="none" stroke="midnightblue" d="M561.42,-172.98C542.27,-162.64 515.44,-148.8 491,-138.5 482.68,-134.99 473.68,-131.61 464.92,-128.52"/>
<polygon fill="midnightblue" stroke="midnightblue" points="559.96,-176.18 570.42,-177.89 563.31,-170.03 559.96,-176.18"/>
</g>
<!-- Node20 -->
<g id="node20" class="node">
<title>Node20</title>
<g id="a_node20"><a xlink:href="../../d9/dc6/class_main_window.html#a0c92ca2d04a79a1580c2e8e136b82682" target="_top" xlink:title=" ">
<polygon fill="white" stroke="black" points="342,-49.5 342,-79.5 491,-79.5 491,-49.5 342,-49.5"/>
<text text-anchor="start" x="350" y="-67.5" font-family="Helvetica,sans-Serif" font-size="10.00">MainWindow::slotOptimization</text>
<text text-anchor="middle" x="416.5" y="-56.5" font-family="Helvetica,sans-Serif" font-size="10.00">BenchmarkSphere</text>
</a>
</g>
</g>
<!-- Node12&#45;&gt;Node20 -->
<g id="edge25" class="edge">
<title>Node12&#45;&gt;Node20</title>
<path fill="none" stroke="midnightblue" d="M574.46,-169.92C557.49,-148.18 525.84,-111.37 491,-89.5 484.95,-85.7 478.25,-82.41 471.44,-79.57"/>
<polygon fill="midnightblue" stroke="midnightblue" points="571.76,-172.15 580.61,-177.97 577.32,-167.9 571.76,-172.15"/>
</g>
<!-- Node21 -->
<g id="node21" class="node">
<title>Node21</title>
<g id="a_node21"><a xlink:href="../../d9/dc6/class_main_window.html#a86cd359f80311725589d0861dd7a9851" target="_top" xlink:title=" ">
<polygon fill="white" stroke="black" points="342,-0.5 342,-30.5 491,-30.5 491,-0.5 342,-0.5"/>
<text text-anchor="start" x="350" y="-18.5" font-family="Helvetica,sans-Serif" font-size="10.00">MainWindow::slotOptimization</text>
<text text-anchor="middle" x="416.5" y="-7.5" font-family="Helvetica,sans-Serif" font-size="10.00">BenchmarkUChannel</text>
</a>
</g>
</g>
<!-- Node12&#45;&gt;Node21 -->
<g id="edge27" class="edge">
<title>Node12&#45;&gt;Node21</title>
<path fill="none" stroke="midnightblue" d="M579.87,-168.32C566.49,-137.1 535.89,-75.26 491,-40.5 485.99,-36.62 480.34,-33.32 474.46,-30.53"/>
<polygon fill="midnightblue" stroke="midnightblue" points="576.67,-169.76 583.74,-177.66 583.14,-167.08 576.67,-169.76"/>
</g>
<!-- Node14 -->
<g id="node14" class="node">
<title>Node14</title>
<g id="a_node14"><a xlink:href="../../d9/dc6/class_main_window.html#a33dddfc15db4053f9117728538e7ece4" target="_top" xlink:title="Set up qt specific signal and slots part for enabling user interaction.">
<polygon fill="white" stroke="black" points="171,-147.5 171,-177.5 306,-177.5 306,-147.5 171,-147.5"/>
<text text-anchor="start" x="179" y="-165.5" font-family="Helvetica,sans-Serif" font-size="10.00">MainWindow::setupSignals</text>
<text text-anchor="middle" x="238.5" y="-154.5" font-family="Helvetica,sans-Serif" font-size="10.00">AndSlots</text>
</a>
</g>
</g>
<!-- Node13&#45;&gt;Node14 -->
<g id="edge15" class="edge">
<title>Node13&#45;&gt;Node14</title>
<path fill="none" stroke="midnightblue" d="M352.63,-291.18C348.93,-289.51 345.35,-287.62 342,-285.5 297.61,-257.39 262.9,-203.75 247.77,-177.59"/>
<polygon fill="midnightblue" stroke="midnightblue" points="351.46,-294.48 362.05,-294.93 354.05,-287.98 351.46,-294.48"/>
</g>
<!-- Node15 -->
<g id="node15" class="node">
<title>Node15</title>
<g id="a_node15"><a xlink:href="../../d9/dc6/class_main_window.html#a996c5a2b6f77944776856f08ec30858d" target="_top" xlink:title=" ">
<polygon fill="white" stroke="black" points="0,-153 0,-172 135,-172 135,-153 0,-153"/>
<text text-anchor="middle" x="67.5" y="-160" font-family="Helvetica,sans-Serif" font-size="10.00">MainWindow::MainWindow</text>
</a>
</g>
</g>
<!-- Node14&#45;&gt;Node15 -->
<g id="edge16" class="edge">
<title>Node14&#45;&gt;Node15</title>
<path fill="none" stroke="midnightblue" d="M160.45,-162.5C151.98,-162.5 143.41,-162.5 135.08,-162.5"/>
<polygon fill="midnightblue" stroke="midnightblue" points="160.71,-166 170.71,-162.5 160.71,-159 160.71,-166"/>
</g>
<!-- Node16&#45;&gt;Node14 -->
<g id="edge18" class="edge">
<title>Node16&#45;&gt;Node14</title>
<path fill="none" stroke="midnightblue" d="M353,-241.6C349.23,-240 345.53,-238.3 342,-236.5 309.72,-220.08 276.47,-194.09 256.91,-177.68"/>
<polygon fill="midnightblue" stroke="midnightblue" points="351.91,-244.94 362.5,-245.39 354.51,-238.43 351.91,-244.94"/>
</g>
<!-- Node17&#45;&gt;Node14 -->
<g id="edge20" class="edge">
<title>Node17&#45;&gt;Node14</title>
<path fill="none" stroke="midnightblue" d="M351.49,-193.68C332.49,-188.39 311.87,-182.65 293.56,-177.55"/>
<polygon fill="midnightblue" stroke="midnightblue" points="350.69,-197.09 361.26,-196.4 352.56,-190.34 350.69,-197.09"/>
</g>
<!-- Node18&#45;&gt;Node14 -->
<g id="edge22" class="edge">
<title>Node18&#45;&gt;Node14</title>
<path fill="none" stroke="midnightblue" d="M331.8,-162.5C323.18,-162.5 314.5,-162.5 306.09,-162.5"/>
<polygon fill="midnightblue" stroke="midnightblue" points="331.88,-166 341.88,-162.5 331.88,-159 331.88,-166"/>
</g>
<!-- Node19&#45;&gt;Node14 -->
<g id="edge24" class="edge">
<title>Node19&#45;&gt;Node14</title>
<path fill="none" stroke="midnightblue" d="M351.49,-131.32C332.49,-136.61 311.87,-142.35 293.56,-147.45"/>
<polygon fill="midnightblue" stroke="midnightblue" points="352.56,-134.66 361.26,-128.6 350.69,-127.91 352.56,-134.66"/>
</g>
<!-- Node20&#45;&gt;Node14 -->
<g id="edge26" class="edge">
<title>Node20&#45;&gt;Node14</title>
<path fill="none" stroke="midnightblue" d="M355.37,-83.32C350.78,-85.25 346.27,-87.31 342,-89.5 310.11,-105.83 277.01,-131.2 257.34,-147.32"/>
<polygon fill="midnightblue" stroke="midnightblue" points="356.88,-86.49 364.88,-79.54 354.29,-79.98 356.88,-86.49"/>
</g>
<!-- Node21&#45;&gt;Node14 -->
<g id="edge28" class="edge">
<title>Node21&#45;&gt;Node14</title>
<path fill="none" stroke="midnightblue" d="M351.04,-35.03C347.9,-36.72 344.87,-38.54 342,-40.5 299.07,-69.86 263.92,-121.89 248.27,-147.46"/>
<polygon fill="midnightblue" stroke="midnightblue" points="352.66,-38.14 360.12,-30.62 349.6,-31.84 352.66,-38.14"/>
</g>
</g>
</svg>
