<?xml version="1.0" encoding="UTF-8" standalone="no"?>
<!DOCTYPE svg PUBLIC "-//W3C//DTD SVG 1.1//EN"
 "http://www.w3.org/Graphics/SVG/1.1/DTD/svg11.dtd">
<!-- Generated by graphviz version 2.44.1 (0)
 -->
<!-- Title: T_MESH::jitterCoordinate Pages: 1 -->
<svg width="297pt" height="66pt"
 viewBox="0.00 0.00 297.00 66.00" xmlns="http://www.w3.org/2000/svg" xmlns:xlink="http://www.w3.org/1999/xlink">
<g id="graph0" class="graph" transform="scale(1 1) rotate(0) translate(4 62)">
<title>T_MESH::jitterCoordinate</title>
<polygon fill="white" stroke="transparent" points="-4,4 -4,-62 293,-62 293,4 -4,4"/>
<!-- Node1 -->
<g id="node1" class="node">
<title>Node1</title>
<g id="a_node1"><a xlink:title=" ">
<polygon fill="#bfbfbf" stroke="black" points="0,-19.5 0,-38.5 129,-38.5 129,-19.5 0,-19.5"/>
<text text-anchor="middle" x="64.5" y="-26.5" font-family="Helvetica,sans-Serif" font-size="10.00">T_MESH::jitterCoordinate</text>
</a>
</g>
</g>
<!-- Node2 -->
<g id="node2" class="node">
<title>Node2</title>
<g id="a_node2"><a xlink:href="../../de/df9/namespace_t___m_e_s_h.html#a9f207bf533d97dc687e69f37d92d6ed1" target="_top" xlink:title=" ">
<polygon fill="white" stroke="black" points="165,-38.5 165,-57.5 289,-57.5 289,-38.5 165,-38.5"/>
<text text-anchor="middle" x="227" y="-45.5" font-family="Helvetica,sans-Serif" font-size="10.00">T_MESH::jitterDecrease</text>
</a>
</g>
</g>
<!-- Node1&#45;&gt;Node2 -->
<g id="edge1" class="edge">
<title>Node1&#45;&gt;Node2</title>
<path fill="none" stroke="midnightblue" d="M129.4,-36.56C137.72,-37.55 146.3,-38.56 154.74,-39.56"/>
<polygon fill="midnightblue" stroke="midnightblue" points="154.6,-43.07 164.94,-40.77 155.42,-36.12 154.6,-43.07"/>
</g>
<!-- Node3 -->
<g id="node3" class="node">
<title>Node3</title>
<g id="a_node3"><a xlink:href="../../de/df9/namespace_t___m_e_s_h.html#a9962bf30eed20cd9e713e021a3414fd7" target="_top" xlink:title=" ">
<polygon fill="white" stroke="black" points="167.5,-0.5 167.5,-19.5 286.5,-19.5 286.5,-0.5 167.5,-0.5"/>
<text text-anchor="middle" x="227" y="-7.5" font-family="Helvetica,sans-Serif" font-size="10.00">T_MESH::jitterIncrease</text>
</a>
</g>
</g>
<!-- Node1&#45;&gt;Node3 -->
<g id="edge2" class="edge">
<title>Node1&#45;&gt;Node3</title>
<path fill="none" stroke="midnightblue" d="M129.4,-21.44C138.58,-20.35 148.05,-19.23 157.32,-18.13"/>
<polygon fill="midnightblue" stroke="midnightblue" points="157.75,-21.6 167.27,-16.95 156.93,-14.65 157.75,-21.6"/>
</g>
</g>
</svg>
