<?xml version="1.0" encoding="UTF-8" standalone="no"?>
<!DOCTYPE svg PUBLIC "-//W3C//DTD SVG 1.1//EN"
 "http://www.w3.org/Graphics/SVG/1.1/DTD/svg11.dtd">
<!-- Generated by graphviz version 2.44.1 (0)
 -->
<!-- Title: VoxelMeshBooleanOperationFilter Pages: 1 -->
<svg width="322pt" height="490pt"
 viewBox="0.00 0.00 321.50 490.00" xmlns="http://www.w3.org/2000/svg" xmlns:xlink="http://www.w3.org/1999/xlink">
<g id="graph0" class="graph" transform="scale(1 1) rotate(0) translate(4 486)">
<title>VoxelMeshBooleanOperationFilter</title>
<polygon fill="white" stroke="transparent" points="-4,4 -4,-486 317.5,-486 317.5,4 -4,4"/>
<!-- Node1 -->
<g id="node1" class="node">
<title>Node1</title>
<g id="a_node1"><a xlink:title=" ">
<polygon fill="#bfbfbf" stroke="black" points="88,-0.5 88,-233.5 239,-233.5 239,-0.5 88,-0.5"/>
<text text-anchor="start" x="96" y="-221.5" font-family="Helvetica,sans-Serif" font-size="10.00">VoxelMeshBooleanOperation</text>
<text text-anchor="middle" x="163.5" y="-210.5" font-family="Helvetica,sans-Serif" font-size="10.00">Filter</text>
<polyline fill="none" stroke="black" points="88,-203.5 239,-203.5 "/>
<text text-anchor="start" x="96" y="-191.5" font-family="Helvetica,sans-Serif" font-size="10.00">&#45; operation</text>
<text text-anchor="start" x="96" y="-180.5" font-family="Helvetica,sans-Serif" font-size="10.00">&#45; voxelImage0</text>
<text text-anchor="start" x="96" y="-169.5" font-family="Helvetica,sans-Serif" font-size="10.00">&#45; voxelImage1</text>
<text text-anchor="start" x="96" y="-158.5" font-family="Helvetica,sans-Serif" font-size="10.00">&#45; imageResolution</text>
<text text-anchor="start" x="96" y="-147.5" font-family="Helvetica,sans-Serif" font-size="10.00">&#45; numSamples</text>
<text text-anchor="start" x="96" y="-136.5" font-family="Helvetica,sans-Serif" font-size="10.00">&#45; insideThreshold</text>
<text text-anchor="start" x="96" y="-125.5" font-family="Helvetica,sans-Serif" font-size="10.00">&#45; tree0</text>
<text text-anchor="start" x="96" y="-114.5" font-family="Helvetica,sans-Serif" font-size="10.00">&#45; tree1</text>
<text text-anchor="start" x="96" y="-103.5" font-family="Helvetica,sans-Serif" font-size="10.00">&#45; sampleDirections</text>
<text text-anchor="start" x="96" y="-92.5" font-family="Helvetica,sans-Serif" font-size="10.00">&#45; resolution</text>
<polyline fill="none" stroke="black" points="88,-85.5 239,-85.5 "/>
<text text-anchor="start" x="96" y="-73.5" font-family="Helvetica,sans-Serif" font-size="10.00">+ VoxelMeshBooleanOperation</text>
<text text-anchor="start" x="96" y="-62.5" font-family="Helvetica,sans-Serif" font-size="10.00">Filter()</text>
<text text-anchor="start" x="96" y="-51.5" font-family="Helvetica,sans-Serif" font-size="10.00">+ setOperationToUnion()</text>
<text text-anchor="start" x="96" y="-40.5" font-family="Helvetica,sans-Serif" font-size="10.00">+ setOperationToIntersection()</text>
<text text-anchor="start" x="96" y="-29.5" font-family="Helvetica,sans-Serif" font-size="10.00">+ setOperationToDifference()</text>
<text text-anchor="start" x="96" y="-18.5" font-family="Helvetica,sans-Serif" font-size="10.00">+ update()</text>
<text text-anchor="start" x="96" y="-7.5" font-family="Helvetica,sans-Serif" font-size="10.00">&#45; idx()</text>
</a>
</g>
</g>
<!-- Node2 -->
<g id="node2" class="node">
<title>Node2</title>
<g id="a_node2"><a xlink:href="../../d4/dcd/class_mesh_boolean_operation_filter.html" target="_top" xlink:title="Base class for boolean operations on polygon meshes filters.">
<polygon fill="white" stroke="black" points="0,-292.5 0,-481.5 161,-481.5 161,-292.5 0,-292.5"/>
<text text-anchor="middle" x="80.5" y="-469.5" font-family="Helvetica,sans-Serif" font-size="10.00">MeshBooleanOperationFilter</text>
<polyline fill="none" stroke="black" points="0,-462.5 161,-462.5 "/>
<text text-anchor="start" x="8" y="-450.5" font-family="Helvetica,sans-Serif" font-size="10.00"># polydata0</text>
<text text-anchor="start" x="8" y="-439.5" font-family="Helvetica,sans-Serif" font-size="10.00"># polydata1</text>
<text text-anchor="start" x="8" y="-428.5" font-family="Helvetica,sans-Serif" font-size="10.00"># resultPolydata</text>
<text text-anchor="start" x="8" y="-417.5" font-family="Helvetica,sans-Serif" font-size="10.00"># complementaryPolydata</text>
<polyline fill="none" stroke="black" points="0,-410.5 161,-410.5 "/>
<text text-anchor="start" x="8" y="-398.5" font-family="Helvetica,sans-Serif" font-size="10.00">+ ~MeshBooleanOperationFilter()</text>
<text text-anchor="start" x="8" y="-387.5" font-family="Helvetica,sans-Serif" font-size="10.00">+ setOperationToUnion()</text>
<text text-anchor="start" x="8" y="-376.5" font-family="Helvetica,sans-Serif" font-size="10.00">+ setOperationToIntersection()</text>
<text text-anchor="start" x="8" y="-365.5" font-family="Helvetica,sans-Serif" font-size="10.00">+ setOperationToDifference()</text>
<text text-anchor="start" x="8" y="-354.5" font-family="Helvetica,sans-Serif" font-size="10.00">+ setInputData0()</text>
<text text-anchor="start" x="8" y="-343.5" font-family="Helvetica,sans-Serif" font-size="10.00">+ setInputData1()</text>
<text text-anchor="start" x="8" y="-332.5" font-family="Helvetica,sans-Serif" font-size="10.00">+ update()</text>
<text text-anchor="start" x="8" y="-321.5" font-family="Helvetica,sans-Serif" font-size="10.00">+ getOutput()</text>
<text text-anchor="start" x="8" y="-310.5" font-family="Helvetica,sans-Serif" font-size="10.00">+ getOutput0()</text>
<text text-anchor="start" x="8" y="-299.5" font-family="Helvetica,sans-Serif" font-size="10.00">+ getOutput1()</text>
</a>
</g>
</g>
<!-- Node2&#45;&gt;Node1 -->
<g id="edge1" class="edge">
<title>Node2&#45;&gt;Node1</title>
<path fill="none" stroke="midnightblue" d="M112.57,-282.44C117.5,-266.52 122.62,-250 127.62,-233.84"/>
<polygon fill="none" stroke="midnightblue" points="109.14,-281.68 109.53,-292.27 115.83,-283.75 109.14,-281.68"/>
</g>
<!-- Node3 -->
<g id="node3" class="node">
<title>Node3</title>
<g id="a_node3"><a xlink:title=" ">
<polygon fill="white" stroke="#bfbfbf" points="179.5,-358.5 179.5,-415.5 313.5,-415.5 313.5,-358.5 179.5,-358.5"/>
<text text-anchor="middle" x="246.5" y="-403.5" font-family="Helvetica,sans-Serif" font-size="10.00">std::list&lt; CGAL_Triangle &gt;</text>
<polyline fill="none" stroke="#bfbfbf" points="179.5,-396.5 313.5,-396.5 "/>
<text text-anchor="start" x="187.5" y="-384.5" font-family="Helvetica,sans-Serif" font-size="10.00">+ elements</text>
<polyline fill="none" stroke="#bfbfbf" points="179.5,-377.5 313.5,-377.5 "/>
<text text-anchor="middle" x="246.5" y="-365.5" font-family="Helvetica,sans-Serif" font-size="10.00"> </text>
</a>
</g>
</g>
<!-- Node3&#45;&gt;Node1 -->
<g id="edge2" class="edge">
<title>Node3&#45;&gt;Node1</title>
<path fill="none" stroke="#404040" d="M237.93,-358.33C229.53,-331.19 216.09,-287.82 202.94,-245.35"/>
<polygon fill="none" stroke="#404040" points="202.88,-245.16 197.29,-240.61 199.33,-233.7 204.93,-238.25 202.88,-245.16"/>
<text text-anchor="middle" x="235" y="-266" font-family="Helvetica,sans-Serif" font-size="10.00"> &#45;triangles0</text>
<text text-anchor="middle" x="235" y="-255" font-family="Helvetica,sans-Serif" font-size="10.00">&#45;triangles1</text>
</g>
</g>
</svg>
