<?xml version="1.0" encoding="UTF-8" standalone="no"?>
<!DOCTYPE svg PUBLIC "-//W3C//DTD SVG 1.1//EN"
 "http://www.w3.org/Graphics/SVG/1.1/DTD/svg11.dtd">
<!-- Generated by graphviz version 2.44.0 (0)
 -->
<!-- Title: VoxelImageVisualizer::setInputData Pages: 1 -->
<svg width="875pt" height="803pt"
 viewBox="0.00 0.00 875.00 803.00" xmlns="http://www.w3.org/2000/svg" xmlns:xlink="http://www.w3.org/1999/xlink">
<g id="graph0" class="graph" transform="scale(1 1) rotate(0) translate(4 799)">
<title>VoxelImageVisualizer::setInputData</title>
<polygon fill="white" stroke="transparent" points="-4,4 -4,-799 871,-799 871,4 -4,4"/>
<!-- Node1 -->
<g id="node1" class="node">
<title>Node1</title>
<g id="a_node1"><a xlink:title="Set input data of the visualizer.">
<polygon fill="#bfbfbf" stroke="black" points="757,-399.5 757,-429.5 867,-429.5 867,-399.5 757,-399.5"/>
<text text-anchor="start" x="765" y="-417.5" font-family="Helvetica,sans-Serif" font-size="10.00">VoxelImageVisualizer</text>
<text text-anchor="middle" x="812" y="-406.5" font-family="Helvetica,sans-Serif" font-size="10.00">::setInputData</text>
</a>
</g>
</g>
<!-- Node2 -->
<g id="node2" class="node">
<title>Node2</title>
<g id="a_node2"><a xlink:href="../../d9/dc6/class_main_window.html#a15f9fa9fe71b50669ecf5f5a3a1ce90e" target="_top" xlink:title="Import STL / OBJ mesh into the scene.">
<polygon fill="white" stroke="black" points="567,-598 567,-617 688,-617 688,-598 567,-598"/>
<text text-anchor="middle" x="627.5" y="-605" font-family="Helvetica,sans-Serif" font-size="10.00">MainWindow::loadMesh</text>
</a>
</g>
</g>
<!-- Node1&#45;&gt;Node2 -->
<g id="edge1" class="edge">
<title>Node1&#45;&gt;Node2</title>
<path fill="none" stroke="midnightblue" d="M789.79,-436.93C749.99,-479.02 665.62,-568.25 637.69,-597.78"/>
<polygon fill="midnightblue" stroke="midnightblue" points="792.35,-439.32 796.68,-429.64 787.27,-434.51 792.35,-439.32"/>
</g>
<!-- Node12 -->
<g id="node12" class="node">
<title>Node12</title>
<g id="a_node12"><a xlink:href="../../d6/db5/class_scene.html#a266f98c6795eca4f5c03cba5761967d6" target="_top" xlink:title="Replace the actual mesh polydata with the polydata given as parameter.">
<polygon fill="white" stroke="black" points="554.5,-405 554.5,-424 700.5,-424 700.5,-405 554.5,-405"/>
<text text-anchor="middle" x="627.5" y="-412" font-family="Helvetica,sans-Serif" font-size="10.00">Scene::replaceMeshPolyData</text>
</a>
</g>
</g>
<!-- Node1&#45;&gt;Node12 -->
<g id="edge17" class="edge">
<title>Node1&#45;&gt;Node12</title>
<path fill="none" stroke="midnightblue" d="M746.66,-414.5C731.83,-414.5 715.95,-414.5 700.81,-414.5"/>
<polygon fill="midnightblue" stroke="midnightblue" points="746.74,-418 756.74,-414.5 746.74,-411 746.74,-418"/>
</g>
<!-- Node14 -->
<g id="node14" class="node">
<title>Node14</title>
<g id="a_node14"><a xlink:href="../../d9/dc6/class_main_window.html#adb56e27c5e383155fa30d30b7cf5acef" target="_top" xlink:title=" ">
<polygon fill="white" stroke="black" points="534,-443 534,-462 721,-462 721,-443 534,-443"/>
<text text-anchor="middle" x="627.5" y="-450" font-family="Helvetica,sans-Serif" font-size="10.00">MainWindow::slotExportVoxelgridMesh</text>
</a>
</g>
</g>
<!-- Node1&#45;&gt;Node14 -->
<g id="edge19" class="edge">
<title>Node1&#45;&gt;Node14</title>
<path fill="none" stroke="midnightblue" d="M746.7,-428.12C738.06,-429.94 729.32,-431.77 721,-433.5 706.07,-436.61 689.78,-439.97 675.09,-442.98"/>
<polygon fill="midnightblue" stroke="midnightblue" points="747.69,-431.49 756.76,-426 746.25,-424.64 747.69,-431.49"/>
</g>
<!-- Node15 -->
<g id="node15" class="node">
<title>Node15</title>
<g id="a_node15"><a xlink:href="../../d6/db5/class_scene.html#a0955ff290776412f925da730a9f8058c" target="_top" xlink:title="Update the cuberille visualization after changes to the underlying voxel data.">
<polygon fill="white" stroke="black" points="554.5,-336 554.5,-355 700.5,-355 700.5,-336 554.5,-336"/>
<text text-anchor="middle" x="627.5" y="-343" font-family="Helvetica,sans-Serif" font-size="10.00">Scene::updateCuberilleActors</text>
</a>
</g>
</g>
<!-- Node1&#45;&gt;Node15 -->
<g id="edge21" class="edge">
<title>Node1&#45;&gt;Node15</title>
<path fill="none" stroke="midnightblue" d="M761.43,-395.76C726.64,-382.61 681.56,-365.56 653.85,-355.08"/>
<polygon fill="midnightblue" stroke="midnightblue" points="760.36,-399.09 770.95,-399.36 762.83,-392.55 760.36,-399.09"/>
</g>
<!-- Node19 -->
<g id="node19" class="node">
<title>Node19</title>
<g id="a_node19"><a xlink:href="../../d6/db5/class_scene.html#a415555bc0037489b1a9421747c318746" target="_top" xlink:title="Update the occupation map visualization after changes to the underlying voxel data.">
<polygon fill="white" stroke="black" points="553.5,-257.5 553.5,-287.5 701.5,-287.5 701.5,-257.5 553.5,-257.5"/>
<text text-anchor="start" x="561.5" y="-275.5" font-family="Helvetica,sans-Serif" font-size="10.00">Scene::updateOccupationMap</text>
<text text-anchor="middle" x="627.5" y="-264.5" font-family="Helvetica,sans-Serif" font-size="10.00">Actor</text>
</a>
</g>
</g>
<!-- Node1&#45;&gt;Node19 -->
<g id="edge25" class="edge">
<title>Node1&#45;&gt;Node19</title>
<path fill="none" stroke="midnightblue" d="M790.77,-391.81C773.36,-373.03 747,-346.32 721,-326.5 701.33,-311.51 677.13,-297.52 658.42,-287.54"/>
<polygon fill="midnightblue" stroke="midnightblue" points="788.32,-394.32 797.65,-399.33 793.48,-389.59 788.32,-394.32"/>
</g>
<!-- Node3 -->
<g id="node3" class="node">
<title>Node3</title>
<g id="a_node3"><a xlink:href="../../d9/dc6/class_main_window.html#a6e3c9bc26115fb1b1664607e58716641" target="_top" xlink:title=" ">
<polygon fill="white" stroke="black" points="347,-481 347,-500 493,-500 493,-481 347,-481"/>
<text text-anchor="middle" x="420" y="-488" font-family="Helvetica,sans-Serif" font-size="10.00">MainWindow::slotImportMesh</text>
</a>
</g>
</g>
<!-- Node2&#45;&gt;Node3 -->
<g id="edge2" class="edge">
<title>Node2&#45;&gt;Node3</title>
<path fill="none" stroke="midnightblue" d="M609.4,-591.03C586.08,-569.44 542.12,-531.83 498,-510.5 489.17,-506.23 479.32,-502.79 469.69,-500.05"/>
<polygon fill="midnightblue" stroke="midnightblue" points="607.08,-593.64 616.76,-597.94 611.87,-588.54 607.08,-593.64"/>
</g>
<!-- Node6 -->
<g id="node6" class="node">
<title>Node6</title>
<g id="a_node6"><a xlink:href="../../d9/dc6/class_main_window.html#a46bb2fea8ddeab75e15a223c291116b6" target="_top" xlink:title=" ">
<polygon fill="white" stroke="black" points="345.5,-764.5 345.5,-794.5 494.5,-794.5 494.5,-764.5 345.5,-764.5"/>
<text text-anchor="start" x="353.5" y="-782.5" font-family="Helvetica,sans-Serif" font-size="10.00">MainWindow::slotOptimization</text>
<text text-anchor="middle" x="420" y="-771.5" font-family="Helvetica,sans-Serif" font-size="10.00">BenchmarkBunnyLowPoly</text>
</a>
</g>
</g>
<!-- Node2&#45;&gt;Node6 -->
<g id="edge5" class="edge">
<title>Node2&#45;&gt;Node6</title>
<path fill="none" stroke="midnightblue" d="M615.61,-625.62C595.98,-656.75 551.69,-720.4 498,-755.5 492.73,-758.95 486.93,-761.92 480.95,-764.49"/>
<polygon fill="midnightblue" stroke="midnightblue" points="618.61,-627.42 620.89,-617.07 612.66,-623.74 618.61,-627.42"/>
</g>
<!-- Node7 -->
<g id="node7" class="node">
<title>Node7</title>
<g id="a_node7"><a xlink:href="../../d9/dc6/class_main_window.html#affed0fab82fd390e2762933c6dca9124" target="_top" xlink:title=" ">
<polygon fill="white" stroke="black" points="345.5,-715.5 345.5,-745.5 494.5,-745.5 494.5,-715.5 345.5,-715.5"/>
<text text-anchor="start" x="353.5" y="-733.5" font-family="Helvetica,sans-Serif" font-size="10.00">MainWindow::slotOptimization</text>
<text text-anchor="middle" x="420" y="-722.5" font-family="Helvetica,sans-Serif" font-size="10.00">BenchmarkCorona</text>
</a>
</g>
</g>
<!-- Node2&#45;&gt;Node7 -->
<g id="edge7" class="edge">
<title>Node2&#45;&gt;Node7</title>
<path fill="none" stroke="midnightblue" d="M609.31,-624.01C585.89,-645.71 541.81,-683.73 498,-706.5 491.54,-709.86 484.53,-712.84 477.45,-715.47"/>
<polygon fill="midnightblue" stroke="midnightblue" points="611.81,-626.47 616.7,-617.07 607.02,-621.37 611.81,-626.47"/>
</g>
<!-- Node8 -->
<g id="node8" class="node">
<title>Node8</title>
<g id="a_node8"><a xlink:href="../../d9/dc6/class_main_window.html#adfdb8fcb8685844e8ce11bfb41b83b7d" target="_top" xlink:title=" ">
<polygon fill="white" stroke="black" points="345.5,-666.5 345.5,-696.5 494.5,-696.5 494.5,-666.5 345.5,-666.5"/>
<text text-anchor="start" x="353.5" y="-684.5" font-family="Helvetica,sans-Serif" font-size="10.00">MainWindow::slotOptimization</text>
<text text-anchor="middle" x="420" y="-673.5" font-family="Helvetica,sans-Serif" font-size="10.00">BenchmarkCthulhu</text>
</a>
</g>
</g>
<!-- Node2&#45;&gt;Node8 -->
<g id="edge9" class="edge">
<title>Node2&#45;&gt;Node8</title>
<path fill="none" stroke="midnightblue" d="M594.15,-620.8C568.3,-631.25 531.06,-645.93 498,-657.5 489.41,-660.51 480.22,-663.53 471.28,-666.38"/>
<polygon fill="midnightblue" stroke="midnightblue" points="595.52,-624.02 603.46,-617.02 592.88,-617.54 595.52,-624.02"/>
</g>
<!-- Node9 -->
<g id="node9" class="node">
<title>Node9</title>
<g id="a_node9"><a xlink:href="../../d9/dc6/class_main_window.html#a5283a0d7aeeafd409c69b272053f3986" target="_top" xlink:title=" ">
<polygon fill="white" stroke="black" points="345.5,-617.5 345.5,-647.5 494.5,-647.5 494.5,-617.5 345.5,-617.5"/>
<text text-anchor="start" x="353.5" y="-635.5" font-family="Helvetica,sans-Serif" font-size="10.00">MainWindow::slotOptimization</text>
<text text-anchor="middle" x="420" y="-624.5" font-family="Helvetica,sans-Serif" font-size="10.00">BenchmarkCube</text>
</a>
</g>
</g>
<!-- Node2&#45;&gt;Node9 -->
<g id="edge11" class="edge">
<title>Node2&#45;&gt;Node9</title>
<path fill="none" stroke="midnightblue" d="M556.83,-615.98C536.83,-618.41 514.97,-621.07 494.74,-623.53"/>
<polygon fill="midnightblue" stroke="midnightblue" points="557.28,-619.45 566.78,-614.76 556.44,-612.5 557.28,-619.45"/>
</g>
<!-- Node10 -->
<g id="node10" class="node">
<title>Node10</title>
<g id="a_node10"><a xlink:href="../../d9/dc6/class_main_window.html#a0c92ca2d04a79a1580c2e8e136b82682" target="_top" xlink:title=" ">
<polygon fill="white" stroke="black" points="345.5,-568.5 345.5,-598.5 494.5,-598.5 494.5,-568.5 345.5,-568.5"/>
<text text-anchor="start" x="353.5" y="-586.5" font-family="Helvetica,sans-Serif" font-size="10.00">MainWindow::slotOptimization</text>
<text text-anchor="middle" x="420" y="-575.5" font-family="Helvetica,sans-Serif" font-size="10.00">BenchmarkSphere</text>
</a>
</g>
</g>
<!-- Node2&#45;&gt;Node10 -->
<g id="edge13" class="edge">
<title>Node2&#45;&gt;Node10</title>
<path fill="none" stroke="midnightblue" d="M556.83,-599.36C536.83,-597.03 514.97,-594.47 494.74,-592.11"/>
<polygon fill="midnightblue" stroke="midnightblue" points="556.45,-602.84 566.78,-600.53 557.26,-595.89 556.45,-602.84"/>
</g>
<!-- Node11 -->
<g id="node11" class="node">
<title>Node11</title>
<g id="a_node11"><a xlink:href="../../d9/dc6/class_main_window.html#a86cd359f80311725589d0861dd7a9851" target="_top" xlink:title=" ">
<polygon fill="white" stroke="black" points="345.5,-519.5 345.5,-549.5 494.5,-549.5 494.5,-519.5 345.5,-519.5"/>
<text text-anchor="start" x="353.5" y="-537.5" font-family="Helvetica,sans-Serif" font-size="10.00">MainWindow::slotOptimization</text>
<text text-anchor="middle" x="420" y="-526.5" font-family="Helvetica,sans-Serif" font-size="10.00">BenchmarkUChannel</text>
</a>
</g>
</g>
<!-- Node2&#45;&gt;Node11 -->
<g id="edge15" class="edge">
<title>Node2&#45;&gt;Node11</title>
<path fill="none" stroke="midnightblue" d="M592.64,-594.39C566.81,-584.51 530.3,-570.77 498,-559.5 488.45,-556.17 478.17,-552.73 468.35,-549.51"/>
<polygon fill="midnightblue" stroke="midnightblue" points="591.39,-597.66 601.98,-597.98 593.9,-591.13 591.39,-597.66"/>
</g>
<!-- Node4 -->
<g id="node4" class="node">
<title>Node4</title>
<g id="a_node4"><a xlink:href="../../d9/dc6/class_main_window.html#a33dddfc15db4053f9117728538e7ece4" target="_top" xlink:title="Set up qt specific signal and slots part for enabling user interaction.">
<polygon fill="white" stroke="black" points="171,-592.5 171,-622.5 306,-622.5 306,-592.5 171,-592.5"/>
<text text-anchor="start" x="179" y="-610.5" font-family="Helvetica,sans-Serif" font-size="10.00">MainWindow::setupSignals</text>
<text text-anchor="middle" x="238.5" y="-599.5" font-family="Helvetica,sans-Serif" font-size="10.00">AndSlots</text>
</a>
</g>
</g>
<!-- Node3&#45;&gt;Node4 -->
<g id="edge3" class="edge">
<title>Node3&#45;&gt;Node4</title>
<path fill="none" stroke="midnightblue" d="M357.62,-503.37C352.2,-505.42 346.91,-507.78 342,-510.5 303.64,-531.76 268.81,-570.71 251.33,-592.22"/>
<polygon fill="midnightblue" stroke="midnightblue" points="359.14,-506.55 367.49,-500.02 356.89,-499.93 359.14,-506.55"/>
</g>
<!-- Node5 -->
<g id="node5" class="node">
<title>Node5</title>
<g id="a_node5"><a xlink:href="../../d9/dc6/class_main_window.html#a996c5a2b6f77944776856f08ec30858d" target="_top" xlink:title=" ">
<polygon fill="white" stroke="black" points="0,-598 0,-617 135,-617 135,-598 0,-598"/>
<text text-anchor="middle" x="67.5" y="-605" font-family="Helvetica,sans-Serif" font-size="10.00">MainWindow::MainWindow</text>
</a>
</g>
</g>
<!-- Node4&#45;&gt;Node5 -->
<g id="edge4" class="edge">
<title>Node4&#45;&gt;Node5</title>
<path fill="none" stroke="midnightblue" d="M160.45,-607.5C151.98,-607.5 143.41,-607.5 135.08,-607.5"/>
<polygon fill="midnightblue" stroke="midnightblue" points="160.71,-611 170.71,-607.5 160.71,-604 160.71,-611"/>
</g>
<!-- Node6&#45;&gt;Node4 -->
<g id="edge6" class="edge">
<title>Node6&#45;&gt;Node4</title>
<path fill="none" stroke="midnightblue" d="M347.86,-759.41C345.84,-758.18 343.88,-756.88 342,-755.5 292.88,-719.42 259.12,-652.43 245.82,-622.56"/>
<polygon fill="midnightblue" stroke="midnightblue" points="346.61,-762.71 357.08,-764.34 349.91,-756.54 346.61,-762.71"/>
</g>
<!-- Node7&#45;&gt;Node4 -->
<g id="edge8" class="edge">
<title>Node7&#45;&gt;Node4</title>
<path fill="none" stroke="midnightblue" d="M350.83,-711.22C347.79,-709.75 344.83,-708.18 342,-706.5 303.91,-683.92 268.97,-644.51 251.4,-622.85"/>
<polygon fill="midnightblue" stroke="midnightblue" points="349.59,-714.5 360.15,-715.34 352.42,-708.1 349.59,-714.5"/>
</g>
<!-- Node8&#45;&gt;Node4 -->
<g id="edge10" class="edge">
<title>Node8&#45;&gt;Node4</title>
<path fill="none" stroke="midnightblue" d="M357,-663.08C351.89,-661.29 346.84,-659.42 342,-657.5 316.24,-647.27 288,-633.28 267.7,-622.69"/>
<polygon fill="midnightblue" stroke="midnightblue" points="356.26,-666.52 366.85,-666.43 358.51,-659.9 356.26,-666.52"/>
</g>
<!-- Node9&#45;&gt;Node4 -->
<g id="edge12" class="edge">
<title>Node9&#45;&gt;Node4</title>
<path fill="none" stroke="midnightblue" d="M335.36,-620.85C325.61,-619.49 315.76,-618.12 306.28,-616.8"/>
<polygon fill="midnightblue" stroke="midnightblue" points="335.09,-624.35 345.47,-622.26 336.05,-617.41 335.09,-624.35"/>
</g>
<!-- Node10&#45;&gt;Node4 -->
<g id="edge14" class="edge">
<title>Node10&#45;&gt;Node4</title>
<path fill="none" stroke="midnightblue" d="M335.36,-594.68C325.61,-595.99 315.76,-597.3 306.28,-598.57"/>
<polygon fill="midnightblue" stroke="midnightblue" points="336.02,-598.13 345.47,-593.33 335.1,-591.19 336.02,-598.13"/>
</g>
<!-- Node11&#45;&gt;Node4 -->
<g id="edge16" class="edge">
<title>Node11&#45;&gt;Node4</title>
<path fill="none" stroke="midnightblue" d="M359.86,-552.87C353.79,-555 347.75,-557.23 342,-559.5 316.96,-569.38 289.37,-582.44 269.12,-592.43"/>
<polygon fill="midnightblue" stroke="midnightblue" points="361.06,-556.16 369.38,-549.61 358.79,-549.54 361.06,-556.16"/>
</g>
<!-- Node13 -->
<g id="node13" class="node">
<title>Node13</title>
<g id="a_node13"><a xlink:href="../../d9/d00/class_p_s_interface_tool.html#aa26bf20d4e597f64df960e4c1a5c3a69" target="_top" xlink:title=" ">
<polygon fill="white" stroke="black" points="356.5,-405 356.5,-424 483.5,-424 483.5,-405 356.5,-405"/>
<text text-anchor="middle" x="420" y="-412" font-family="Helvetica,sans-Serif" font-size="10.00">PSInterfaceTool::execute</text>
</a>
</g>
</g>
<!-- Node12&#45;&gt;Node13 -->
<g id="edge18" class="edge">
<title>Node12&#45;&gt;Node13</title>
<path fill="none" stroke="midnightblue" d="M544.23,-414.5C524.08,-414.5 502.83,-414.5 483.76,-414.5"/>
<polygon fill="midnightblue" stroke="midnightblue" points="544.34,-418 554.34,-414.5 544.34,-411 544.34,-418"/>
</g>
<!-- Node14&#45;&gt;Node4 -->
<g id="edge20" class="edge">
<title>Node14&#45;&gt;Node4</title>
<path fill="none" stroke="midnightblue" d="M558.75,-441.85C498.21,-435.72 408.99,-435.27 342,-471.5 291.55,-498.79 258.7,-562.82 245.75,-592.23"/>
<polygon fill="midnightblue" stroke="midnightblue" points="558.64,-445.36 568.96,-442.97 559.4,-438.4 558.64,-445.36"/>
</g>
<!-- Node16 -->
<g id="node16" class="node">
<title>Node16</title>
<g id="a_node16"><a xlink:href="../../da/dcb/class_freehand_add_final_point_callback.html#a4a889b08c802e7e81598b8dd8b5e3dad" target="_top" xlink:title="Overwritten callback method, which is executed when the left mouse button is pressed.">
<polygon fill="white" stroke="black" points="342,-355.5 342,-385.5 498,-385.5 498,-355.5 342,-355.5"/>
<text text-anchor="start" x="350" y="-373.5" font-family="Helvetica,sans-Serif" font-size="10.00">FreehandAddFinalPointCallback</text>
<text text-anchor="middle" x="420" y="-362.5" font-family="Helvetica,sans-Serif" font-size="10.00">::Execute</text>
</a>
</g>
</g>
<!-- Node15&#45;&gt;Node16 -->
<g id="edge22" class="edge">
<title>Node15&#45;&gt;Node16</title>
<path fill="none" stroke="midnightblue" d="M543.99,-355.54C528.89,-357.38 513.17,-359.29 498.23,-361.1"/>
<polygon fill="midnightblue" stroke="midnightblue" points="544.83,-358.96 554.34,-354.28 543.99,-352.01 544.83,-358.96"/>
</g>
<!-- Node17 -->
<g id="node17" class="node">
<title>Node17</title>
<g id="a_node17"><a xlink:href="../../d4/d58/class_polyline_add_final_point_callback.html#aebf2f4ff9236a12c598205822c2949a2" target="_top" xlink:title="Overwritten callback method, which is executed when the left mouse button is pressed for the first ti...">
<polygon fill="white" stroke="black" points="345,-306.5 345,-336.5 495,-336.5 495,-306.5 345,-306.5"/>
<text text-anchor="start" x="353" y="-324.5" font-family="Helvetica,sans-Serif" font-size="10.00">PolylineAddFinalPointCallback</text>
<text text-anchor="middle" x="420" y="-313.5" font-family="Helvetica,sans-Serif" font-size="10.00">::Execute</text>
</a>
</g>
</g>
<!-- Node15&#45;&gt;Node17 -->
<g id="edge23" class="edge">
<title>Node15&#45;&gt;Node17</title>
<path fill="none" stroke="midnightblue" d="M544.31,-335.9C528.04,-334 511.06,-332.02 495.08,-330.15"/>
<polygon fill="midnightblue" stroke="midnightblue" points="544,-339.39 554.34,-337.07 544.81,-332.44 544,-339.39"/>
</g>
<!-- Node18 -->
<g id="node18" class="node">
<title>Node18</title>
<g id="a_node18"><a xlink:href="../../d1/db5/class_lasso_interactor_style.html#a711994cec6c74643d2bc161ba73daacd" target="_top" xlink:title="Overwritten method, which is executed when the left mouse button is released.">
<polygon fill="white" stroke="black" points="366.5,-257.5 366.5,-287.5 473.5,-287.5 473.5,-257.5 366.5,-257.5"/>
<text text-anchor="start" x="374.5" y="-275.5" font-family="Helvetica,sans-Serif" font-size="10.00">LassoInteractorStyle</text>
<text text-anchor="middle" x="420" y="-264.5" font-family="Helvetica,sans-Serif" font-size="10.00">::OnLeftButtonUp</text>
</a>
</g>
</g>
<!-- Node15&#45;&gt;Node18 -->
<g id="edge24" class="edge">
<title>Node15&#45;&gt;Node18</title>
<path fill="none" stroke="midnightblue" d="M592.64,-332.39C566.81,-322.51 530.3,-308.77 498,-297.5 488.45,-294.17 478.17,-290.73 468.35,-287.51"/>
<polygon fill="midnightblue" stroke="midnightblue" points="591.39,-335.66 601.98,-335.98 593.9,-329.13 591.39,-335.66"/>
</g>
<!-- Node19&#45;&gt;Node13 -->
<g id="edge28" class="edge">
<title>Node19&#45;&gt;Node13</title>
<path fill="none" stroke="midnightblue" d="M581.41,-292.26C565.04,-301.02 547.32,-312.53 534,-326.5 510.13,-351.53 525.2,-374.13 498,-395.5 493.13,-399.33 487.59,-402.4 481.77,-404.86"/>
<polygon fill="midnightblue" stroke="midnightblue" points="583.03,-295.36 590.32,-287.68 579.83,-289.13 583.03,-295.36"/>
</g>
<!-- Node19&#45;&gt;Node16 -->
<g id="edge29" class="edge">
<title>Node19&#45;&gt;Node16</title>
<path fill="none" stroke="midnightblue" d="M591.79,-292.74C555.43,-313.9 502.89,-344.36 498,-346.5 490.56,-349.75 482.54,-352.77 474.58,-355.48"/>
<polygon fill="midnightblue" stroke="midnightblue" points="593.77,-295.64 600.65,-287.58 590.25,-289.59 593.77,-295.64"/>
</g>
<!-- Node19&#45;&gt;Node17 -->
<g id="edge30" class="edge">
<title>Node19&#45;&gt;Node17</title>
<path fill="none" stroke="midnightblue" d="M553.51,-289.9C530.78,-295.32 505.92,-301.25 483.93,-306.49"/>
<polygon fill="midnightblue" stroke="midnightblue" points="554.53,-293.26 563.45,-287.53 552.91,-286.45 554.53,-293.26"/>
</g>
<!-- Node19&#45;&gt;Node18 -->
<g id="edge31" class="edge">
<title>Node19&#45;&gt;Node18</title>
<path fill="none" stroke="midnightblue" d="M543.17,-272.5C519.73,-272.5 494.9,-272.5 473.78,-272.5"/>
<polygon fill="midnightblue" stroke="midnightblue" points="543.47,-276 553.47,-272.5 543.47,-269 543.47,-276"/>
</g>
<!-- Node20 -->
<g id="node20" class="node">
<title>Node20</title>
<g id="a_node20"><a xlink:href="../../d1/da7/class_place_ground_plane8_connectors_tool.html#ac6f514739682b173fadccf10f5bc9aab" target="_top" xlink:title=" ">
<polygon fill="white" stroke="black" points="343.5,-208.5 343.5,-238.5 496.5,-238.5 496.5,-208.5 343.5,-208.5"/>
<text text-anchor="start" x="351.5" y="-226.5" font-family="Helvetica,sans-Serif" font-size="10.00">PlaceGroundPlane8Connectors</text>
<text text-anchor="middle" x="420" y="-215.5" font-family="Helvetica,sans-Serif" font-size="10.00">Tool::execute</text>
</a>
</g>
</g>
<!-- Node19&#45;&gt;Node20 -->
<g id="edge26" class="edge">
<title>Node19&#45;&gt;Node20</title>
<path fill="none" stroke="midnightblue" d="M553.51,-255.1C530.78,-249.68 505.92,-243.75 483.93,-238.51"/>
<polygon fill="midnightblue" stroke="midnightblue" points="552.91,-258.55 563.45,-257.47 554.53,-251.74 552.91,-258.55"/>
</g>
<!-- Node21 -->
<g id="node21" class="node">
<title>Node21</title>
<g id="a_node21"><a xlink:href="../../dc/db2/class_place_ground_plane4_connectors_tool.html#a7ae289774f2b51d2daba1215effc4311" target="_top" xlink:title=" ">
<polygon fill="white" stroke="black" points="343.5,-159.5 343.5,-189.5 496.5,-189.5 496.5,-159.5 343.5,-159.5"/>
<text text-anchor="start" x="351.5" y="-177.5" font-family="Helvetica,sans-Serif" font-size="10.00">PlaceGroundPlane4Connectors</text>
<text text-anchor="middle" x="420" y="-166.5" font-family="Helvetica,sans-Serif" font-size="10.00">Tool::execute</text>
</a>
</g>
</g>
<!-- Node19&#45;&gt;Node21 -->
<g id="edge27" class="edge">
<title>Node19&#45;&gt;Node21</title>
<path fill="none" stroke="midnightblue" d="M594.6,-251.96C569.15,-236.17 532.23,-214.59 498,-199.5 489.9,-195.93 481.12,-192.6 472.49,-189.61"/>
<polygon fill="midnightblue" stroke="midnightblue" points="592.76,-254.94 603.1,-257.28 596.48,-249 592.76,-254.94"/>
</g>
<!-- Node22 -->
<g id="node22" class="node">
<title>Node22</title>
<g id="a_node22"><a xlink:href="../../db/dbb/class_picking_interactor_style.html#a1620702107e2c2d0c0aefbd896098b0d" target="_top" xlink:title="Overloaded method, invoked when right mouse button is pressed.">
<polygon fill="white" stroke="black" points="363.5,-110.5 363.5,-140.5 476.5,-140.5 476.5,-110.5 363.5,-110.5"/>
<text text-anchor="start" x="371.5" y="-128.5" font-family="Helvetica,sans-Serif" font-size="10.00">PickingInteractorStyle</text>
<text text-anchor="middle" x="420" y="-117.5" font-family="Helvetica,sans-Serif" font-size="10.00">::OnRightButtonDown</text>
</a>
</g>
</g>
<!-- Node19&#45;&gt;Node22 -->
<g id="edge32" class="edge">
<title>Node19&#45;&gt;Node22</title>
<path fill="none" stroke="midnightblue" d="M607.74,-249.24C584.6,-221.98 542.8,-177.16 498,-150.5 491.36,-146.55 484.01,-143.14 476.58,-140.22"/>
<polygon fill="midnightblue" stroke="midnightblue" points="605.2,-251.67 614.3,-257.1 610.58,-247.18 605.2,-251.67"/>
</g>
<!-- Node23 -->
<g id="node23" class="node">
<title>Node23</title>
<g id="a_node23"><a xlink:href="../../d6/db5/class_scene.html#af1128c48ccb6999066aa1d935075cb23" target="_top" xlink:title="Remove a touchpoint from the scene given its unique touchpoint id.">
<polygon fill="white" stroke="black" points="355,-72 355,-91 485,-91 485,-72 355,-72"/>
<text text-anchor="middle" x="420" y="-79" font-family="Helvetica,sans-Serif" font-size="10.00">Scene::removeTouchpoint</text>
</a>
</g>
</g>
<!-- Node19&#45;&gt;Node23 -->
<g id="edge33" class="edge">
<title>Node19&#45;&gt;Node23</title>
<path fill="none" stroke="midnightblue" d="M615.07,-248.31C596.13,-210.91 554.64,-139.45 498,-101.5 491.46,-97.12 484.01,-93.7 476.39,-91.02"/>
<polygon fill="midnightblue" stroke="midnightblue" points="612.03,-250.05 619.6,-257.47 618.3,-246.95 612.03,-250.05"/>
</g>
<!-- Node24 -->
<g id="node24" class="node">
<title>Node24</title>
<g id="a_node24"><a xlink:href="../../d1/d4e/class_place_touchpoint_tool.html#aa565ccff15d4591dc9c6dee73adfe6e8" target="_top" xlink:title=" ">
<polygon fill="white" stroke="black" points="185,-0.5 185,-30.5 292,-30.5 292,-0.5 185,-0.5"/>
<text text-anchor="start" x="193" y="-18.5" font-family="Helvetica,sans-Serif" font-size="10.00">PlaceTouchpointTool</text>
<text text-anchor="middle" x="238.5" y="-7.5" font-family="Helvetica,sans-Serif" font-size="10.00">::undo</text>
</a>
</g>
</g>
<!-- Node23&#45;&gt;Node24 -->
<g id="edge34" class="edge">
<title>Node23&#45;&gt;Node24</title>
<path fill="none" stroke="midnightblue" d="M383.37,-68.4C353.77,-57.51 311.61,-42.02 280.59,-30.61"/>
<polygon fill="midnightblue" stroke="midnightblue" points="382.31,-71.74 392.9,-71.9 384.72,-65.17 382.31,-71.74"/>
</g>
<!-- Node25 -->
<g id="node25" class="node">
<title>Node25</title>
<g id="a_node25"><a xlink:href="../../de/dd7/class_polyline_touchpoint_tool.html#a9ee474813d977ff7b9877372035a319c" target="_top" xlink:title=" ">
<polygon fill="white" stroke="black" points="180.5,-137.5 180.5,-167.5 296.5,-167.5 296.5,-137.5 180.5,-137.5"/>
<text text-anchor="start" x="188.5" y="-155.5" font-family="Helvetica,sans-Serif" font-size="10.00">PolylineTouchpointTool</text>
<text text-anchor="middle" x="238.5" y="-144.5" font-family="Helvetica,sans-Serif" font-size="10.00">::undo</text>
</a>
</g>
</g>
<!-- Node23&#45;&gt;Node25 -->
<g id="edge35" class="edge">
<title>Node23&#45;&gt;Node25</title>
<path fill="none" stroke="midnightblue" d="M360.36,-94.15C354.04,-96.27 347.8,-98.71 342,-101.5 323.98,-110.18 323.6,-119 306,-128.5 299.95,-131.76 293.37,-134.75 286.77,-137.42"/>
<polygon fill="midnightblue" stroke="midnightblue" points="361.8,-97.37 370.32,-91.07 359.74,-90.68 361.8,-97.37"/>
</g>
<!-- Node26 -->
<g id="node26" class="node">
<title>Node26</title>
<g id="a_node26"><a xlink:href="../../de/de0/class_freehand_touchpoint_tool.html#a8c241ab6ea3d7ced711c84036836e885" target="_top" xlink:title=" ">
<polygon fill="white" stroke="black" points="177.5,-88.5 177.5,-118.5 299.5,-118.5 299.5,-88.5 177.5,-88.5"/>
<text text-anchor="start" x="185.5" y="-106.5" font-family="Helvetica,sans-Serif" font-size="10.00">FreehandTouchpointTool</text>
<text text-anchor="middle" x="238.5" y="-95.5" font-family="Helvetica,sans-Serif" font-size="10.00">::undo</text>
</a>
</g>
</g>
<!-- Node23&#45;&gt;Node26 -->
<g id="edge36" class="edge">
<title>Node23&#45;&gt;Node26</title>
<path fill="none" stroke="midnightblue" d="M344.68,-90.61C329.67,-92.45 314.07,-94.36 299.62,-96.13"/>
<polygon fill="midnightblue" stroke="midnightblue" points="345.46,-94.04 354.96,-89.35 344.61,-87.09 345.46,-94.04"/>
</g>
<!-- Node27 -->
<g id="node27" class="node">
<title>Node27</title>
<g id="a_node27"><a xlink:href="../../dd/d4a/class_lasso_tool.html#ad4e65963efd59e0802ecb4fbd8d8b288" target="_top" xlink:title=" ">
<polygon fill="white" stroke="black" points="194.5,-50 194.5,-69 282.5,-69 282.5,-50 194.5,-50"/>
<text text-anchor="middle" x="238.5" y="-57" font-family="Helvetica,sans-Serif" font-size="10.00">LassoTool::undo</text>
</a>
</g>
</g>
<!-- Node23&#45;&gt;Node27 -->
<g id="edge37" class="edge">
<title>Node23&#45;&gt;Node27</title>
<path fill="none" stroke="midnightblue" d="M345,-72.43C323.8,-69.83 301.4,-67.09 282.72,-64.8"/>
<polygon fill="midnightblue" stroke="midnightblue" points="344.61,-75.91 354.96,-73.65 345.46,-68.96 344.61,-75.91"/>
</g>
</g>
</svg>
