<?xml version="1.0" encoding="UTF-8" standalone="no"?>
<!DOCTYPE svg PUBLIC "-//W3C//DTD SVG 1.1//EN"
 "http://www.w3.org/Graphics/SVG/1.1/DTD/svg11.dtd">
<!-- Generated by graphviz version 2.44.1 (0)
 -->
<!-- Title: VoxelImageVisualizer::setInputData Pages: 1 -->
<svg width="875pt" height="706pt"
 viewBox="0.00 0.00 875.00 706.00" xmlns="http://www.w3.org/2000/svg" xmlns:xlink="http://www.w3.org/1999/xlink">
<g id="graph0" class="graph" transform="scale(1 1) rotate(0) translate(4 702)">
<title>VoxelImageVisualizer::setInputData</title>
<polygon fill="white" stroke="transparent" points="-4,4 -4,-702 871,-702 871,4 -4,4"/>
<!-- Node1 -->
<g id="node1" class="node">
<title>Node1</title>
<g id="a_node1"><a xlink:title="Set input data of the visualizer.">
<polygon fill="#bfbfbf" stroke="black" points="757,-301.5 757,-331.5 867,-331.5 867,-301.5 757,-301.5"/>
<text text-anchor="start" x="765" y="-319.5" font-family="Helvetica,sans-Serif" font-size="10.00">VoxelImageVisualizer</text>
<text text-anchor="middle" x="812" y="-308.5" font-family="Helvetica,sans-Serif" font-size="10.00">::setInputData</text>
</a>
</g>
</g>
<!-- Node2 -->
<g id="node2" class="node">
<title>Node2</title>
<g id="a_node2"><a xlink:href="../../d9/dc6/class_main_window.html#a15f9fa9fe71b50669ecf5f5a3a1ce90e" target="_top" xlink:title="Import STL / OBJ mesh into the scene.">
<polygon fill="white" stroke="black" points="567,-511 567,-530 688,-530 688,-511 567,-511"/>
<text text-anchor="middle" x="627.5" y="-518" font-family="Helvetica,sans-Serif" font-size="10.00">MainWindow::loadMesh</text>
</a>
</g>
</g>
<!-- Node1&#45;&gt;Node2 -->
<g id="edge1" class="edge">
<title>Node1&#45;&gt;Node2</title>
<path fill="none" stroke="midnightblue" d="M790.77,-339.12C751.25,-383.29 665.25,-479.42 637.4,-510.55"/>
<polygon fill="midnightblue" stroke="midnightblue" points="793.52,-341.29 797.58,-331.5 788.3,-336.62 793.52,-341.29"/>
</g>
<!-- Node12 -->
<g id="node12" class="node">
<title>Node12</title>
<g id="a_node12"><a xlink:href="../../d6/db5/class_scene.html#a266f98c6795eca4f5c03cba5761967d6" target="_top" xlink:title="Replace the actual mesh polydata with the polydata given as parameter.">
<polygon fill="white" stroke="black" points="554.5,-307 554.5,-326 700.5,-326 700.5,-307 554.5,-307"/>
<text text-anchor="middle" x="627.5" y="-314" font-family="Helvetica,sans-Serif" font-size="10.00">Scene::replaceMeshPolyData</text>
</a>
</g>
</g>
<!-- Node1&#45;&gt;Node12 -->
<g id="edge17" class="edge">
<title>Node1&#45;&gt;Node12</title>
<path fill="none" stroke="midnightblue" d="M746.66,-316.5C731.83,-316.5 715.95,-316.5 700.81,-316.5"/>
<polygon fill="midnightblue" stroke="midnightblue" points="746.74,-320 756.74,-316.5 746.74,-313 746.74,-320"/>
</g>
<!-- Node14 -->
<g id="node14" class="node">
<title>Node14</title>
<g id="a_node14"><a xlink:href="../../d9/dc6/class_main_window.html#adb56e27c5e383155fa30d30b7cf5acef" target="_top" xlink:title=" ">
<polygon fill="white" stroke="black" points="534,-345 534,-364 721,-364 721,-345 534,-345"/>
<text text-anchor="middle" x="627.5" y="-352" font-family="Helvetica,sans-Serif" font-size="10.00">MainWindow::slotExportVoxelgridMesh</text>
</a>
</g>
</g>
<!-- Node1&#45;&gt;Node14 -->
<g id="edge19" class="edge">
<title>Node1&#45;&gt;Node14</title>
<path fill="none" stroke="midnightblue" d="M746.7,-330.12C738.06,-331.94 729.32,-333.77 721,-335.5 706.07,-338.61 689.78,-341.97 675.09,-344.98"/>
<polygon fill="midnightblue" stroke="midnightblue" points="747.69,-333.49 756.76,-328 746.25,-326.64 747.69,-333.49"/>
</g>
<!-- Node15 -->
<g id="node15" class="node">
<title>Node15</title>
<g id="a_node15"><a xlink:href="../../d6/db5/class_scene.html#a0955ff290776412f925da730a9f8058c" target="_top" xlink:title="Update the cuberille visualization after changes to the underlying voxel data.">
<polygon fill="white" stroke="black" points="554.5,-260 554.5,-279 700.5,-279 700.5,-260 554.5,-260"/>
<text text-anchor="middle" x="627.5" y="-267" font-family="Helvetica,sans-Serif" font-size="10.00">Scene::updateCuberilleActors</text>
</a>
</g>
</g>
<!-- Node1&#45;&gt;Node15 -->
<g id="edge21" class="edge">
<title>Node1&#45;&gt;Node15</title>
<path fill="none" stroke="midnightblue" d="M746.88,-299.99C719.64,-292.97 688.86,-285.04 665.51,-279.03"/>
<polygon fill="midnightblue" stroke="midnightblue" points="746.18,-303.42 756.74,-302.53 747.93,-296.64 746.18,-303.42"/>
</g>
<!-- Node19 -->
<g id="node19" class="node">
<title>Node19</title>
<g id="a_node19"><a xlink:href="../../d6/db5/class_scene.html#a415555bc0037489b1a9421747c318746" target="_top" xlink:title="Update the occupation map visualization after changes to the underlying voxel data.">
<polygon fill="white" stroke="black" points="553.5,-208.5 553.5,-238.5 701.5,-238.5 701.5,-208.5 553.5,-208.5"/>
<text text-anchor="start" x="561.5" y="-226.5" font-family="Helvetica,sans-Serif" font-size="10.00">Scene::updateOccupationMap</text>
<text text-anchor="middle" x="627.5" y="-215.5" font-family="Helvetica,sans-Serif" font-size="10.00">Actor</text>
</a>
</g>
</g>
<!-- Node1&#45;&gt;Node19 -->
<g id="edge25" class="edge">
<title>Node1&#45;&gt;Node19</title>
<path fill="none" stroke="midnightblue" d="M786.36,-294.75C769.08,-280.45 744.89,-262.29 721,-250.5 711.7,-245.91 701.48,-241.96 691.33,-238.61"/>
<polygon fill="midnightblue" stroke="midnightblue" points="784.35,-297.63 794.25,-301.4 788.87,-292.28 784.35,-297.63"/>
</g>
<!-- Node3 -->
<g id="node3" class="node">
<title>Node3</title>
<g id="a_node3"><a xlink:href="../../d9/dc6/class_main_window.html#a6e3c9bc26115fb1b1664607e58716641" target="_top" xlink:title=" ">
<polygon fill="white" stroke="black" points="347,-629 347,-648 493,-648 493,-629 347,-629"/>
<text text-anchor="middle" x="420" y="-636" font-family="Helvetica,sans-Serif" font-size="10.00">MainWindow::slotImportMesh</text>
</a>
</g>
</g>
<!-- Node2&#45;&gt;Node3 -->
<g id="edge2" class="edge">
<title>Node2&#45;&gt;Node3</title>
<path fill="none" stroke="midnightblue" d="M609.86,-537.07C586.75,-559.16 542.7,-597.95 498,-619.5 490.06,-623.33 481.28,-626.43 472.57,-628.93"/>
<polygon fill="midnightblue" stroke="midnightblue" points="612.4,-539.49 617.13,-530.01 607.52,-534.47 612.4,-539.49"/>
</g>
<!-- Node6 -->
<g id="node6" class="node">
<title>Node6</title>
<g id="a_node6"><a xlink:href="../../d9/dc6/class_main_window.html#a46bb2fea8ddeab75e15a223c291116b6" target="_top" xlink:title=" ">
<polygon fill="white" stroke="black" points="345.5,-579.5 345.5,-609.5 494.5,-609.5 494.5,-579.5 345.5,-579.5"/>
<text text-anchor="start" x="353.5" y="-597.5" font-family="Helvetica,sans-Serif" font-size="10.00">MainWindow::slotOptimization</text>
<text text-anchor="middle" x="420" y="-586.5" font-family="Helvetica,sans-Serif" font-size="10.00">BenchmarkBunnyLowPoly</text>
</a>
</g>
</g>
<!-- Node2&#45;&gt;Node6 -->
<g id="edge5" class="edge">
<title>Node2&#45;&gt;Node6</title>
<path fill="none" stroke="midnightblue" d="M594.15,-533.8C568.3,-544.25 531.06,-558.93 498,-570.5 489.41,-573.51 480.22,-576.53 471.28,-579.38"/>
<polygon fill="midnightblue" stroke="midnightblue" points="595.52,-537.02 603.46,-530.02 592.88,-530.54 595.52,-537.02"/>
</g>
<!-- Node7 -->
<g id="node7" class="node">
<title>Node7</title>
<g id="a_node7"><a xlink:href="../../d9/dc6/class_main_window.html#affed0fab82fd390e2762933c6dca9124" target="_top" xlink:title=" ">
<polygon fill="white" stroke="black" points="345.5,-530.5 345.5,-560.5 494.5,-560.5 494.5,-530.5 345.5,-530.5"/>
<text text-anchor="start" x="353.5" y="-548.5" font-family="Helvetica,sans-Serif" font-size="10.00">MainWindow::slotOptimization</text>
<text text-anchor="middle" x="420" y="-537.5" font-family="Helvetica,sans-Serif" font-size="10.00">BenchmarkCorona</text>
</a>
</g>
</g>
<!-- Node2&#45;&gt;Node7 -->
<g id="edge7" class="edge">
<title>Node2&#45;&gt;Node7</title>
<path fill="none" stroke="midnightblue" d="M556.83,-528.98C536.83,-531.41 514.97,-534.07 494.74,-536.53"/>
<polygon fill="midnightblue" stroke="midnightblue" points="557.28,-532.45 566.78,-527.76 556.44,-525.5 557.28,-532.45"/>
</g>
<!-- Node8 -->
<g id="node8" class="node">
<title>Node8</title>
<g id="a_node8"><a xlink:href="../../d9/dc6/class_main_window.html#adfdb8fcb8685844e8ce11bfb41b83b7d" target="_top" xlink:title=" ">
<polygon fill="white" stroke="black" points="345.5,-481.5 345.5,-511.5 494.5,-511.5 494.5,-481.5 345.5,-481.5"/>
<text text-anchor="start" x="353.5" y="-499.5" font-family="Helvetica,sans-Serif" font-size="10.00">MainWindow::slotOptimization</text>
<text text-anchor="middle" x="420" y="-488.5" font-family="Helvetica,sans-Serif" font-size="10.00">BenchmarkCthulhu</text>
</a>
</g>
</g>
<!-- Node2&#45;&gt;Node8 -->
<g id="edge9" class="edge">
<title>Node2&#45;&gt;Node8</title>
<path fill="none" stroke="midnightblue" d="M556.83,-512.36C536.83,-510.03 514.97,-507.47 494.74,-505.11"/>
<polygon fill="midnightblue" stroke="midnightblue" points="556.45,-515.84 566.78,-513.53 557.26,-508.89 556.45,-515.84"/>
</g>
<!-- Node9 -->
<g id="node9" class="node">
<title>Node9</title>
<g id="a_node9"><a xlink:href="../../d9/dc6/class_main_window.html#a5283a0d7aeeafd409c69b272053f3986" target="_top" xlink:title=" ">
<polygon fill="white" stroke="black" points="345.5,-432.5 345.5,-462.5 494.5,-462.5 494.5,-432.5 345.5,-432.5"/>
<text text-anchor="start" x="353.5" y="-450.5" font-family="Helvetica,sans-Serif" font-size="10.00">MainWindow::slotOptimization</text>
<text text-anchor="middle" x="420" y="-439.5" font-family="Helvetica,sans-Serif" font-size="10.00">BenchmarkCube</text>
</a>
</g>
</g>
<!-- Node2&#45;&gt;Node9 -->
<g id="edge11" class="edge">
<title>Node2&#45;&gt;Node9</title>
<path fill="none" stroke="midnightblue" d="M592.64,-507.39C566.81,-497.51 530.3,-483.77 498,-472.5 488.45,-469.17 478.17,-465.73 468.35,-462.51"/>
<polygon fill="midnightblue" stroke="midnightblue" points="591.39,-510.66 601.98,-510.98 593.9,-504.13 591.39,-510.66"/>
</g>
<!-- Node10 -->
<g id="node10" class="node">
<title>Node10</title>
<g id="a_node10"><a xlink:href="../../d9/dc6/class_main_window.html#a0c92ca2d04a79a1580c2e8e136b82682" target="_top" xlink:title=" ">
<polygon fill="white" stroke="black" points="345.5,-383.5 345.5,-413.5 494.5,-413.5 494.5,-383.5 345.5,-383.5"/>
<text text-anchor="start" x="353.5" y="-401.5" font-family="Helvetica,sans-Serif" font-size="10.00">MainWindow::slotOptimization</text>
<text text-anchor="middle" x="420" y="-390.5" font-family="Helvetica,sans-Serif" font-size="10.00">BenchmarkSphere</text>
</a>
</g>
</g>
<!-- Node2&#45;&gt;Node10 -->
<g id="edge13" class="edge">
<title>Node2&#45;&gt;Node10</title>
<path fill="none" stroke="midnightblue" d="M608.85,-504.09C585.21,-482.89 541.24,-446.03 498,-423.5 490.89,-419.8 483.14,-416.51 475.37,-413.62"/>
<polygon fill="midnightblue" stroke="midnightblue" points="606.57,-506.75 616.32,-510.89 611.28,-501.57 606.57,-506.75"/>
</g>
<!-- Node11 -->
<g id="node11" class="node">
<title>Node11</title>
<g id="a_node11"><a xlink:href="../../d9/dc6/class_main_window.html#a86cd359f80311725589d0861dd7a9851" target="_top" xlink:title=" ">
<polygon fill="white" stroke="black" points="345.5,-667.5 345.5,-697.5 494.5,-697.5 494.5,-667.5 345.5,-667.5"/>
<text text-anchor="start" x="353.5" y="-685.5" font-family="Helvetica,sans-Serif" font-size="10.00">MainWindow::slotOptimization</text>
<text text-anchor="middle" x="420" y="-674.5" font-family="Helvetica,sans-Serif" font-size="10.00">BenchmarkUChannel</text>
</a>
</g>
</g>
<!-- Node2&#45;&gt;Node11 -->
<g id="edge15" class="edge">
<title>Node2&#45;&gt;Node11</title>
<path fill="none" stroke="midnightblue" d="M614.38,-538.39C593.78,-567.47 549.17,-625.01 498,-657.5 491.95,-661.34 485.25,-664.65 478.41,-667.47"/>
<polygon fill="midnightblue" stroke="midnightblue" points="617.37,-540.23 620.2,-530.02 611.62,-536.23 617.37,-540.23"/>
</g>
<!-- Node4 -->
<g id="node4" class="node">
<title>Node4</title>
<g id="a_node4"><a xlink:href="../../d9/dc6/class_main_window.html#a33dddfc15db4053f9117728538e7ece4" target="_top" xlink:title="Set up qt specific signal and slots part for enabling user interaction.">
<polygon fill="white" stroke="black" points="171,-505.5 171,-535.5 306,-535.5 306,-505.5 171,-505.5"/>
<text text-anchor="start" x="179" y="-523.5" font-family="Helvetica,sans-Serif" font-size="10.00">MainWindow::setupSignals</text>
<text text-anchor="middle" x="238.5" y="-512.5" font-family="Helvetica,sans-Serif" font-size="10.00">AndSlots</text>
</a>
</g>
</g>
<!-- Node3&#45;&gt;Node4 -->
<g id="edge3" class="edge">
<title>Node3&#45;&gt;Node4</title>
<path fill="none" stroke="midnightblue" d="M355.13,-625.59C350.58,-623.81 346.15,-621.79 342,-619.5 303.03,-597.96 268.18,-557.76 250.93,-535.8"/>
<polygon fill="midnightblue" stroke="midnightblue" points="354.01,-628.91 364.61,-628.92 356.33,-622.31 354.01,-628.91"/>
</g>
<!-- Node5 -->
<g id="node5" class="node">
<title>Node5</title>
<g id="a_node5"><a xlink:href="../../d9/dc6/class_main_window.html#a996c5a2b6f77944776856f08ec30858d" target="_top" xlink:title=" ">
<polygon fill="white" stroke="black" points="0,-511 0,-530 135,-530 135,-511 0,-511"/>
<text text-anchor="middle" x="67.5" y="-518" font-family="Helvetica,sans-Serif" font-size="10.00">MainWindow::MainWindow</text>
</a>
</g>
</g>
<!-- Node4&#45;&gt;Node5 -->
<g id="edge4" class="edge">
<title>Node4&#45;&gt;Node5</title>
<path fill="none" stroke="midnightblue" d="M160.45,-520.5C151.98,-520.5 143.41,-520.5 135.08,-520.5"/>
<polygon fill="midnightblue" stroke="midnightblue" points="160.71,-524 170.71,-520.5 160.71,-517 160.71,-524"/>
</g>
<!-- Node6&#45;&gt;Node4 -->
<g id="edge6" class="edge">
<title>Node6&#45;&gt;Node4</title>
<path fill="none" stroke="midnightblue" d="M357,-576.08C351.89,-574.29 346.84,-572.42 342,-570.5 316.24,-560.27 288,-546.28 267.7,-535.69"/>
<polygon fill="midnightblue" stroke="midnightblue" points="356.26,-579.52 366.85,-579.43 358.51,-572.9 356.26,-579.52"/>
</g>
<!-- Node7&#45;&gt;Node4 -->
<g id="edge8" class="edge">
<title>Node7&#45;&gt;Node4</title>
<path fill="none" stroke="midnightblue" d="M335.36,-533.85C325.61,-532.49 315.76,-531.12 306.28,-529.8"/>
<polygon fill="midnightblue" stroke="midnightblue" points="335.09,-537.35 345.47,-535.26 336.05,-530.41 335.09,-537.35"/>
</g>
<!-- Node8&#45;&gt;Node4 -->
<g id="edge10" class="edge">
<title>Node8&#45;&gt;Node4</title>
<path fill="none" stroke="midnightblue" d="M335.36,-507.68C325.61,-508.99 315.76,-510.3 306.28,-511.57"/>
<polygon fill="midnightblue" stroke="midnightblue" points="336.02,-511.13 345.47,-506.33 335.1,-504.19 336.02,-511.13"/>
</g>
<!-- Node9&#45;&gt;Node4 -->
<g id="edge12" class="edge">
<title>Node9&#45;&gt;Node4</title>
<path fill="none" stroke="midnightblue" d="M359.86,-465.87C353.79,-468 347.75,-470.23 342,-472.5 316.96,-482.38 289.37,-495.44 269.12,-505.43"/>
<polygon fill="midnightblue" stroke="midnightblue" points="361.06,-469.16 369.38,-462.61 358.79,-462.54 361.06,-469.16"/>
</g>
<!-- Node10&#45;&gt;Node4 -->
<g id="edge14" class="edge">
<title>Node10&#45;&gt;Node4</title>
<path fill="none" stroke="midnightblue" d="M353.33,-417.55C349.41,-419.38 345.6,-421.36 342,-423.5 304.5,-445.77 269.6,-483.96 251.81,-505.17"/>
<polygon fill="midnightblue" stroke="midnightblue" points="354.81,-420.72 362.62,-413.55 352.05,-414.29 354.81,-420.72"/>
</g>
<!-- Node11&#45;&gt;Node4 -->
<g id="edge16" class="edge">
<title>Node11&#45;&gt;Node4</title>
<path fill="none" stroke="midnightblue" d="M350.47,-662.85C347.53,-661.2 344.69,-659.42 342,-657.5 295.62,-624.31 261.15,-563.84 246.82,-535.68"/>
<polygon fill="midnightblue" stroke="midnightblue" points="349.07,-666.06 359.57,-667.41 352.2,-659.8 349.07,-666.06"/>
</g>
<!-- Node13 -->
<g id="node13" class="node">
<title>Node13</title>
<g id="a_node13"><a xlink:href="../../d9/d00/class_p_s_interface_tool.html#aa26bf20d4e597f64df960e4c1a5c3a69" target="_top" xlink:title=" ">
<polygon fill="white" stroke="black" points="356.5,-307 356.5,-326 483.5,-326 483.5,-307 356.5,-307"/>
<text text-anchor="middle" x="420" y="-314" font-family="Helvetica,sans-Serif" font-size="10.00">PSInterfaceTool::execute</text>
</a>
</g>
</g>
<!-- Node12&#45;&gt;Node13 -->
<g id="edge18" class="edge">
<title>Node12&#45;&gt;Node13</title>
<path fill="none" stroke="midnightblue" d="M544.23,-316.5C524.08,-316.5 502.83,-316.5 483.76,-316.5"/>
<polygon fill="midnightblue" stroke="midnightblue" points="544.34,-320 554.34,-316.5 544.34,-313 544.34,-320"/>
</g>
<!-- Node14&#45;&gt;Node4 -->
<g id="edge20" class="edge">
<title>Node14&#45;&gt;Node4</title>
<path fill="none" stroke="midnightblue" d="M560.38,-343.81C499.6,-337.38 409.03,-336.61 342,-374.5 289.16,-404.37 257.15,-474.08 245.04,-505.12"/>
<polygon fill="midnightblue" stroke="midnightblue" points="560.29,-347.32 570.62,-344.98 561.08,-340.37 560.29,-347.32"/>
</g>
<!-- Node16 -->
<g id="node16" class="node">
<title>Node16</title>
<g id="a_node16"><a xlink:href="../../da/dcb/class_freehand_add_final_point_callback.html#a4a889b08c802e7e81598b8dd8b5e3dad" target="_top" xlink:title="Overwritten callback method, which is executed when the left mouse button is pressed.">
<polygon fill="white" stroke="black" points="342,-257.5 342,-287.5 498,-287.5 498,-257.5 342,-257.5"/>
<text text-anchor="start" x="350" y="-275.5" font-family="Helvetica,sans-Serif" font-size="10.00">FreehandAddFinalPointCallback</text>
<text text-anchor="middle" x="420" y="-264.5" font-family="Helvetica,sans-Serif" font-size="10.00">::Execute</text>
</a>
</g>
</g>
<!-- Node15&#45;&gt;Node16 -->
<g id="edge22" class="edge">
<title>Node15&#45;&gt;Node16</title>
<path fill="none" stroke="midnightblue" d="M543.99,-270.7C528.89,-270.93 513.17,-271.15 498.23,-271.37"/>
<polygon fill="midnightblue" stroke="midnightblue" points="544.39,-274.2 554.34,-270.55 544.29,-267.2 544.39,-274.2"/>
</g>
<!-- Node17 -->
<g id="node17" class="node">
<title>Node17</title>
<g id="a_node17"><a xlink:href="../../d4/d58/class_polyline_add_final_point_callback.html#aebf2f4ff9236a12c598205822c2949a2" target="_top" xlink:title="Overwritten callback method, which is executed when the left mouse button is pressed for the first ti...">
<polygon fill="white" stroke="black" points="345,-208.5 345,-238.5 495,-238.5 495,-208.5 345,-208.5"/>
<text text-anchor="start" x="353" y="-226.5" font-family="Helvetica,sans-Serif" font-size="10.00">PolylineAddFinalPointCallback</text>
<text text-anchor="middle" x="420" y="-215.5" font-family="Helvetica,sans-Serif" font-size="10.00">::Execute</text>
</a>
</g>
</g>
<!-- Node15&#45;&gt;Node17 -->
<g id="edge23" class="edge">
<title>Node15&#45;&gt;Node17</title>
<path fill="none" stroke="midnightblue" d="M573.86,-257.72C547.79,-251.88 516.01,-244.77 488.2,-238.54"/>
<polygon fill="midnightblue" stroke="midnightblue" points="573.4,-261.2 583.92,-259.97 574.93,-254.37 573.4,-261.2"/>
</g>
<!-- Node18 -->
<g id="node18" class="node">
<title>Node18</title>
<g id="a_node18"><a xlink:href="../../d1/db5/class_lasso_interactor_style.html#a711994cec6c74643d2bc161ba73daacd" target="_top" xlink:title="Overwritten method, which is executed when the left mouse button is released.">
<polygon fill="white" stroke="black" points="366.5,-159.5 366.5,-189.5 473.5,-189.5 473.5,-159.5 366.5,-159.5"/>
<text text-anchor="start" x="374.5" y="-177.5" font-family="Helvetica,sans-Serif" font-size="10.00">LassoInteractorStyle</text>
<text text-anchor="middle" x="420" y="-166.5" font-family="Helvetica,sans-Serif" font-size="10.00">::OnLeftButtonUp</text>
</a>
</g>
</g>
<!-- Node15&#45;&gt;Node18 -->
<g id="edge24" class="edge">
<title>Node15&#45;&gt;Node18</title>
<path fill="none" stroke="midnightblue" d="M548.62,-256.26C543.49,-254.06 538.56,-251.49 534,-248.5 511.4,-233.69 519.91,-215.32 498,-199.5 490.71,-194.23 482.25,-190.04 473.66,-186.71"/>
<polygon fill="midnightblue" stroke="midnightblue" points="547.43,-259.56 558.02,-259.85 549.93,-253.02 547.43,-259.56"/>
</g>
<!-- Node19&#45;&gt;Node13 -->
<g id="edge26" class="edge">
<title>Node19&#45;&gt;Node13</title>
<path fill="none" stroke="midnightblue" d="M547.41,-242.74C542.72,-245.04 538.21,-247.62 534,-250.5 512.29,-265.37 520.02,-283.09 498,-297.5 492.12,-301.35 485.53,-304.41 478.75,-306.86"/>
<polygon fill="midnightblue" stroke="midnightblue" points="548.91,-245.9 556.61,-238.63 546.05,-239.51 548.91,-245.9"/>
</g>
<!-- Node19&#45;&gt;Node16 -->
<g id="edge27" class="edge">
<title>Node19&#45;&gt;Node16</title>
<path fill="none" stroke="midnightblue" d="M553.51,-240.9C530.78,-246.32 505.92,-252.25 483.93,-257.49"/>
<polygon fill="midnightblue" stroke="midnightblue" points="554.53,-244.26 563.45,-238.53 552.91,-237.45 554.53,-244.26"/>
</g>
<!-- Node19&#45;&gt;Node17 -->
<g id="edge28" class="edge">
<title>Node19&#45;&gt;Node17</title>
<path fill="none" stroke="midnightblue" d="M543.15,-223.5C527.27,-223.5 510.75,-223.5 495.18,-223.5"/>
<polygon fill="midnightblue" stroke="midnightblue" points="543.47,-227 553.47,-223.5 543.47,-220 543.47,-227"/>
</g>
<!-- Node19&#45;&gt;Node18 -->
<g id="edge29" class="edge">
<title>Node19&#45;&gt;Node18</title>
<path fill="none" stroke="midnightblue" d="M553.49,-206.09C527.1,-199.8 497.85,-192.83 473.56,-187.03"/>
<polygon fill="midnightblue" stroke="midnightblue" points="552.91,-209.55 563.45,-208.47 554.53,-202.74 552.91,-209.55"/>
</g>
<!-- Node20 -->
<g id="node20" class="node">
<title>Node20</title>
<g id="a_node20"><a xlink:href="../../db/dbb/class_picking_interactor_style.html#a1620702107e2c2d0c0aefbd896098b0d" target="_top" xlink:title="Overloaded method, invoked when right mouse button is pressed.">
<polygon fill="white" stroke="black" points="363.5,-110.5 363.5,-140.5 476.5,-140.5 476.5,-110.5 363.5,-110.5"/>
<text text-anchor="start" x="371.5" y="-128.5" font-family="Helvetica,sans-Serif" font-size="10.00">PickingInteractorStyle</text>
<text text-anchor="middle" x="420" y="-117.5" font-family="Helvetica,sans-Serif" font-size="10.00">::OnRightButtonDown</text>
</a>
</g>
</g>
<!-- Node19&#45;&gt;Node20 -->
<g id="edge30" class="edge">
<title>Node19&#45;&gt;Node20</title>
<path fill="none" stroke="midnightblue" d="M594.6,-202.96C569.15,-187.17 532.23,-165.59 498,-150.5 489.9,-146.93 481.12,-143.6 472.49,-140.61"/>
<polygon fill="midnightblue" stroke="midnightblue" points="592.76,-205.94 603.1,-208.28 596.48,-200 592.76,-205.94"/>
</g>
<!-- Node21 -->
<g id="node21" class="node">
<title>Node21</title>
<g id="a_node21"><a xlink:href="../../d6/db5/class_scene.html#af1128c48ccb6999066aa1d935075cb23" target="_top" xlink:title="Remove a touchpoint from the scene given its unique touchpoint id.">
<polygon fill="white" stroke="black" points="355,-72 355,-91 485,-91 485,-72 355,-72"/>
<text text-anchor="middle" x="420" y="-79" font-family="Helvetica,sans-Serif" font-size="10.00">Scene::removeTouchpoint</text>
</a>
</g>
</g>
<!-- Node19&#45;&gt;Node21 -->
<g id="edge31" class="edge">
<title>Node19&#45;&gt;Node21</title>
<path fill="none" stroke="midnightblue" d="M608.37,-200.22C585.57,-172.55 543.82,-126.94 498,-101.5 490.15,-97.14 481.32,-93.71 472.52,-91.01"/>
<polygon fill="midnightblue" stroke="midnightblue" points="605.81,-202.62 614.82,-208.19 611.25,-198.22 605.81,-202.62"/>
</g>
<!-- Node22 -->
<g id="node22" class="node">
<title>Node22</title>
<g id="a_node22"><a xlink:href="../../d1/d4e/class_place_touchpoint_tool.html#aa565ccff15d4591dc9c6dee73adfe6e8" target="_top" xlink:title=" ">
<polygon fill="white" stroke="black" points="185,-0.5 185,-30.5 292,-30.5 292,-0.5 185,-0.5"/>
<text text-anchor="start" x="193" y="-18.5" font-family="Helvetica,sans-Serif" font-size="10.00">PlaceTouchpointTool</text>
<text text-anchor="middle" x="238.5" y="-7.5" font-family="Helvetica,sans-Serif" font-size="10.00">::undo</text>
</a>
</g>
</g>
<!-- Node21&#45;&gt;Node22 -->
<g id="edge32" class="edge">
<title>Node21&#45;&gt;Node22</title>
<path fill="none" stroke="midnightblue" d="M383.37,-68.4C353.77,-57.51 311.61,-42.02 280.59,-30.61"/>
<polygon fill="midnightblue" stroke="midnightblue" points="382.31,-71.74 392.9,-71.9 384.72,-65.17 382.31,-71.74"/>
</g>
<!-- Node23 -->
<g id="node23" class="node">
<title>Node23</title>
<g id="a_node23"><a xlink:href="../../de/dd7/class_polyline_touchpoint_tool.html#a9ee474813d977ff7b9877372035a319c" target="_top" xlink:title=" ">
<polygon fill="white" stroke="black" points="180.5,-137.5 180.5,-167.5 296.5,-167.5 296.5,-137.5 180.5,-137.5"/>
<text text-anchor="start" x="188.5" y="-155.5" font-family="Helvetica,sans-Serif" font-size="10.00">PolylineTouchpointTool</text>
<text text-anchor="middle" x="238.5" y="-144.5" font-family="Helvetica,sans-Serif" font-size="10.00">::undo</text>
</a>
</g>
</g>
<!-- Node21&#45;&gt;Node23 -->
<g id="edge33" class="edge">
<title>Node21&#45;&gt;Node23</title>
<path fill="none" stroke="midnightblue" d="M360.36,-94.15C354.04,-96.27 347.8,-98.71 342,-101.5 323.98,-110.18 323.6,-119 306,-128.5 299.95,-131.76 293.37,-134.75 286.77,-137.42"/>
<polygon fill="midnightblue" stroke="midnightblue" points="361.8,-97.37 370.32,-91.07 359.74,-90.68 361.8,-97.37"/>
</g>
<!-- Node24 -->
<g id="node24" class="node">
<title>Node24</title>
<g id="a_node24"><a xlink:href="../../de/de0/class_freehand_touchpoint_tool.html#a8c241ab6ea3d7ced711c84036836e885" target="_top" xlink:title=" ">
<polygon fill="white" stroke="black" points="177.5,-88.5 177.5,-118.5 299.5,-118.5 299.5,-88.5 177.5,-88.5"/>
<text text-anchor="start" x="185.5" y="-106.5" font-family="Helvetica,sans-Serif" font-size="10.00">FreehandTouchpointTool</text>
<text text-anchor="middle" x="238.5" y="-95.5" font-family="Helvetica,sans-Serif" font-size="10.00">::undo</text>
</a>
</g>
</g>
<!-- Node21&#45;&gt;Node24 -->
<g id="edge34" class="edge">
<title>Node21&#45;&gt;Node24</title>
<path fill="none" stroke="midnightblue" d="M344.68,-90.61C329.67,-92.45 314.07,-94.36 299.62,-96.13"/>
<polygon fill="midnightblue" stroke="midnightblue" points="345.46,-94.04 354.96,-89.35 344.61,-87.09 345.46,-94.04"/>
</g>
<!-- Node25 -->
<g id="node25" class="node">
<title>Node25</title>
<g id="a_node25"><a xlink:href="../../dd/d4a/class_lasso_tool.html#ad4e65963efd59e0802ecb4fbd8d8b288" target="_top" xlink:title=" ">
<polygon fill="white" stroke="black" points="194.5,-50 194.5,-69 282.5,-69 282.5,-50 194.5,-50"/>
<text text-anchor="middle" x="238.5" y="-57" font-family="Helvetica,sans-Serif" font-size="10.00">LassoTool::undo</text>
</a>
</g>
</g>
<!-- Node21&#45;&gt;Node25 -->
<g id="edge35" class="edge">
<title>Node21&#45;&gt;Node25</title>
<path fill="none" stroke="midnightblue" d="M345,-72.43C323.8,-69.83 301.4,-67.09 282.72,-64.8"/>
<polygon fill="midnightblue" stroke="midnightblue" points="344.61,-75.91 354.96,-73.65 345.46,-68.96 344.61,-75.91"/>
</g>
</g>
</svg>
