<?xml version="1.0" encoding="UTF-8" standalone="no"?>
<!DOCTYPE svg PUBLIC "-//W3C//DTD SVG 1.1//EN"
 "http://www.w3.org/Graphics/SVG/1.1/DTD/svg11.dtd">
<!-- Generated by graphviz version 2.44.0 (0)
 -->
<!-- Title: VoxelImageVisualizer::getScaleValue Pages: 1 -->
<svg width="1149pt" height="694pt"
 viewBox="0.00 0.00 1149.00 694.00" xmlns="http://www.w3.org/2000/svg" xmlns:xlink="http://www.w3.org/1999/xlink">
<g id="graph0" class="graph" transform="scale(1 1) rotate(0) translate(4 690)">
<title>VoxelImageVisualizer::getScaleValue</title>
<polygon fill="white" stroke="transparent" points="-4,4 -4,-690 1145,-690 1145,4 -4,4"/>
<!-- Node1 -->
<g id="node1" class="node">
<title>Node1</title>
<g id="a_node1"><a xlink:title="Compute scaling factor for visualization actor.">
<polygon fill="#bfbfbf" stroke="black" points="1031,-251.5 1031,-281.5 1141,-281.5 1141,-251.5 1031,-251.5"/>
<text text-anchor="start" x="1039" y="-269.5" font-family="Helvetica,sans-Serif" font-size="10.00">VoxelImageVisualizer</text>
<text text-anchor="middle" x="1086" y="-258.5" font-family="Helvetica,sans-Serif" font-size="10.00">::getScaleValue</text>
</a>
</g>
</g>
<!-- Node2 -->
<g id="node2" class="node">
<title>Node2</title>
<g id="a_node2"><a xlink:href="../../db/dae/class_voxel_image_visualizer.html#a9d6ddcce68efaea01bfacaa932f27d9a" target="_top" xlink:title="Return RGB color cube output visualization.">
<polygon fill="white" stroke="black" points="728.5,-268.5 728.5,-298.5 838.5,-298.5 838.5,-268.5 728.5,-268.5"/>
<text text-anchor="start" x="736.5" y="-286.5" font-family="Helvetica,sans-Serif" font-size="10.00">VoxelImageVisualizer</text>
<text text-anchor="middle" x="783.5" y="-275.5" font-family="Helvetica,sans-Serif" font-size="10.00">::getColorOutput</text>
</a>
</g>
</g>
<!-- Node1&#45;&gt;Node2 -->
<g id="edge1" class="edge">
<title>Node1&#45;&gt;Node2</title>
<path fill="none" stroke="midnightblue" d="M1020.74,-270.14C966.52,-273.2 889.78,-277.54 838.64,-280.44"/>
<polygon fill="midnightblue" stroke="midnightblue" points="1021.14,-273.62 1030.93,-269.56 1020.75,-266.63 1021.14,-273.62"/>
</g>
<!-- Node19 -->
<g id="node19" class="node">
<title>Node19</title>
<g id="a_node19"><a xlink:href="../../db/dae/class_voxel_image_visualizer.html#ae0b3cfe171e6bc92e7fb1b0718575660" target="_top" xlink:title="Return visualization with background color green, foreground red.">
<polygon fill="white" stroke="black" points="885,-188.5 885,-218.5 995,-218.5 995,-188.5 885,-188.5"/>
<text text-anchor="start" x="893" y="-206.5" font-family="Helvetica,sans-Serif" font-size="10.00">VoxelImageVisualizer</text>
<text text-anchor="middle" x="940" y="-195.5" font-family="Helvetica,sans-Serif" font-size="10.00">::getDebugOutput</text>
</a>
</g>
</g>
<!-- Node1&#45;&gt;Node19 -->
<g id="edge24" class="edge">
<title>Node1&#45;&gt;Node19</title>
<path fill="none" stroke="midnightblue" d="M1041.16,-247.32C1020.16,-238.13 995.37,-227.29 975.71,-218.69"/>
<polygon fill="midnightblue" stroke="midnightblue" points="1039.94,-250.61 1050.51,-251.41 1042.75,-244.2 1039.94,-250.61"/>
</g>
<!-- Node20 -->
<g id="node20" class="node">
<title>Node20</title>
<g id="a_node20"><a xlink:href="../../db/dae/class_voxel_image_visualizer.html#a00b60f629dcc3335bff26934e88b9bcb" target="_top" xlink:title="Return the occupation map visualization (unoccupied = yellow, occupied = blue)">
<polygon fill="white" stroke="black" points="726,-219.5 726,-249.5 841,-249.5 841,-219.5 726,-219.5"/>
<text text-anchor="start" x="734" y="-237.5" font-family="Helvetica,sans-Serif" font-size="10.00">VoxelImageVisualizer</text>
<text text-anchor="middle" x="783.5" y="-226.5" font-family="Helvetica,sans-Serif" font-size="10.00">::getOccupationOutput</text>
</a>
</g>
</g>
<!-- Node1&#45;&gt;Node20 -->
<g id="edge25" class="edge">
<title>Node1&#45;&gt;Node20</title>
<path fill="none" stroke="midnightblue" d="M1020.9,-259.67C967.57,-254 892.37,-245.99 841.2,-240.54"/>
<polygon fill="midnightblue" stroke="midnightblue" points="1020.62,-263.16 1030.93,-260.74 1021.36,-256.2 1020.62,-263.16"/>
</g>
<!-- Node30 -->
<g id="node30" class="node">
<title>Node30</title>
<g id="a_node30"><a xlink:href="../../db/dae/class_voxel_image_visualizer.html#a5f41640feebb9f49204b777abb09fec2" target="_top" xlink:title="Return visualization with VOXEL_OUTSIDE = &quot;White&quot;, VOXEL_OCCUPIED = &quot;Red&quot;, VOXEL_SHELL = &quot;Yellow&quot;,...">
<polygon fill="white" stroke="black" points="718,-415.5 718,-445.5 849,-445.5 849,-415.5 718,-415.5"/>
<text text-anchor="start" x="726" y="-433.5" font-family="Helvetica,sans-Serif" font-size="10.00">VoxelImageVisualizer</text>
<text text-anchor="middle" x="783.5" y="-422.5" font-family="Helvetica,sans-Serif" font-size="10.00">::getShellAndInsideOutput</text>
</a>
</g>
</g>
<!-- Node1&#45;&gt;Node30 -->
<g id="edge42" class="edge">
<title>Node1&#45;&gt;Node30</title>
<path fill="none" stroke="midnightblue" d="M1067.25,-289.71C1050.57,-310.1 1023.91,-339.28 995,-357.5 950.01,-385.86 892.62,-404.81 849.13,-416.28"/>
<polygon fill="midnightblue" stroke="midnightblue" points="1070.03,-291.83 1073.55,-281.84 1064.57,-287.46 1070.03,-291.83"/>
</g>
<!-- Node31 -->
<g id="node31" class="node">
<title>Node31</title>
<g id="a_node31"><a xlink:href="../../db/dae/class_voxel_image_visualizer.html#a266b4be6343bb49d53b4af2c9e7df310" target="_top" xlink:title=" ">
<polygon fill="white" stroke="black" points="885,-317.5 885,-347.5 995,-347.5 995,-317.5 885,-317.5"/>
<text text-anchor="start" x="893" y="-335.5" font-family="Helvetica,sans-Serif" font-size="10.00">VoxelImageVisualizer</text>
<text text-anchor="middle" x="940" y="-324.5" font-family="Helvetica,sans-Serif" font-size="10.00">::getShellOutput</text>
</a>
</g>
</g>
<!-- Node1&#45;&gt;Node31 -->
<g id="edge46" class="edge">
<title>Node1&#45;&gt;Node31</title>
<path fill="none" stroke="midnightblue" d="M1042.84,-285.82C1020.85,-295.9 994.34,-308.05 973.88,-317.43"/>
<polygon fill="midnightblue" stroke="midnightblue" points="1044.33,-288.99 1051.96,-281.64 1041.41,-282.63 1044.33,-288.99"/>
</g>
<!-- Node34 -->
<g id="node34" class="node">
<title>Node34</title>
<g id="a_node34"><a xlink:href="../../db/dae/class_voxel_image_visualizer.html#abc5621b24e8c8dffd133aa17d9b37730" target="_top" xlink:title=" ">
<polygon fill="white" stroke="black" points="885,-139.5 885,-169.5 995,-169.5 995,-139.5 885,-139.5"/>
<text text-anchor="start" x="893" y="-157.5" font-family="Helvetica,sans-Serif" font-size="10.00">VoxelImageVisualizer</text>
<text text-anchor="middle" x="940" y="-146.5" font-family="Helvetica,sans-Serif" font-size="10.00">::getVoxelActor</text>
</a>
</g>
</g>
<!-- Node1&#45;&gt;Node34 -->
<g id="edge52" class="edge">
<title>Node1&#45;&gt;Node34</title>
<path fill="none" stroke="midnightblue" d="M1065.91,-243.73C1048.84,-224.45 1022.37,-197.07 995,-178.5 990.16,-175.22 984.8,-172.21 979.39,-169.51"/>
<polygon fill="midnightblue" stroke="midnightblue" points="1063.41,-246.19 1072.62,-251.44 1068.7,-241.6 1063.41,-246.19"/>
</g>
<!-- Node3 -->
<g id="node3" class="node">
<title>Node3</title>
<g id="a_node3"><a xlink:href="../../d9/dc6/class_main_window.html#a15f9fa9fe71b50669ecf5f5a3a1ce90e" target="_top" xlink:title="Import STL / OBJ mesh into the scene.">
<polygon fill="white" stroke="black" points="547.5,-421 547.5,-440 668.5,-440 668.5,-421 547.5,-421"/>
<text text-anchor="middle" x="608" y="-428" font-family="Helvetica,sans-Serif" font-size="10.00">MainWindow::loadMesh</text>
</a>
</g>
</g>
<!-- Node2&#45;&gt;Node3 -->
<g id="edge2" class="edge">
<title>Node2&#45;&gt;Node3</title>
<path fill="none" stroke="midnightblue" d="M726.56,-303.2C723.59,-304.85 720.72,-306.62 718,-308.5 670.83,-341.16 630.24,-398.24 615.21,-420.87"/>
<polygon fill="midnightblue" stroke="midnightblue" points="728.35,-306.22 735.7,-298.58 725.19,-299.97 728.35,-306.22"/>
</g>
<!-- Node13 -->
<g id="node13" class="node">
<title>Node13</title>
<g id="a_node13"><a xlink:href="../../d6/db5/class_scene.html#a266f98c6795eca4f5c03cba5761967d6" target="_top" xlink:title="Replace the actual mesh polydata with the polydata given as parameter.">
<polygon fill="white" stroke="black" points="535,-257 535,-276 681,-276 681,-257 535,-257"/>
<text text-anchor="middle" x="608" y="-264" font-family="Helvetica,sans-Serif" font-size="10.00">Scene::replaceMeshPolyData</text>
</a>
</g>
</g>
<!-- Node2&#45;&gt;Node13 -->
<g id="edge18" class="edge">
<title>Node2&#45;&gt;Node13</title>
<path fill="none" stroke="midnightblue" d="M718.11,-277.19C706.03,-276.01 693.34,-274.76 681.05,-273.56"/>
<polygon fill="midnightblue" stroke="midnightblue" points="717.79,-280.68 728.08,-278.17 718.47,-273.71 717.79,-280.68"/>
</g>
<!-- Node15 -->
<g id="node15" class="node">
<title>Node15</title>
<g id="a_node15"><a xlink:href="../../d6/db5/class_scene.html#a0955ff290776412f925da730a9f8058c" target="_top" xlink:title="Update the cuberille visualization after changes to the underlying voxel data.">
<polygon fill="white" stroke="black" points="535,-295 535,-314 681,-314 681,-295 535,-295"/>
<text text-anchor="middle" x="608" y="-302" font-family="Helvetica,sans-Serif" font-size="10.00">Scene::updateCuberilleActors</text>
</a>
</g>
</g>
<!-- Node2&#45;&gt;Node15 -->
<g id="edge20" class="edge">
<title>Node2&#45;&gt;Node15</title>
<path fill="none" stroke="midnightblue" d="M718.11,-291.29C706.03,-292.76 693.34,-294.29 681.05,-295.78"/>
<polygon fill="midnightblue" stroke="midnightblue" points="718.57,-294.76 728.08,-290.09 717.73,-287.81 718.57,-294.76"/>
</g>
<!-- Node4 -->
<g id="node4" class="node">
<title>Node4</title>
<g id="a_node4"><a xlink:href="../../d9/dc6/class_main_window.html#a6e3c9bc26115fb1b1664607e58716641" target="_top" xlink:title=" ">
<polygon fill="white" stroke="black" points="347,-372 347,-391 493,-391 493,-372 347,-372"/>
<text text-anchor="middle" x="420" y="-379" font-family="Helvetica,sans-Serif" font-size="10.00">MainWindow::slotImportMesh</text>
</a>
</g>
</g>
<!-- Node3&#45;&gt;Node4 -->
<g id="edge3" class="edge">
<title>Node3&#45;&gt;Node4</title>
<path fill="none" stroke="midnightblue" d="M561.33,-418.28C541.82,-413.08 518.8,-406.97 498,-401.5 484.91,-398.06 470.56,-394.32 457.83,-391.02"/>
<polygon fill="midnightblue" stroke="midnightblue" points="560.61,-421.72 571.18,-420.91 562.42,-414.95 560.61,-421.72"/>
</g>
<!-- Node7 -->
<g id="node7" class="node">
<title>Node7</title>
<g id="a_node7"><a xlink:href="../../d9/dc6/class_main_window.html#a46bb2fea8ddeab75e15a223c291116b6" target="_top" xlink:title=" ">
<polygon fill="white" stroke="black" points="345.5,-655.5 345.5,-685.5 494.5,-685.5 494.5,-655.5 345.5,-655.5"/>
<text text-anchor="start" x="353.5" y="-673.5" font-family="Helvetica,sans-Serif" font-size="10.00">MainWindow::slotOptimization</text>
<text text-anchor="middle" x="420" y="-662.5" font-family="Helvetica,sans-Serif" font-size="10.00">BenchmarkBunnyLowPoly</text>
</a>
</g>
</g>
<!-- Node3&#45;&gt;Node7 -->
<g id="edge6" class="edge">
<title>Node3&#45;&gt;Node7</title>
<path fill="none" stroke="midnightblue" d="M602.57,-450.28C592.05,-492.65 561.55,-592.67 498,-646.5 493.94,-649.94 489.39,-652.89 484.58,-655.41"/>
<polygon fill="midnightblue" stroke="midnightblue" points="606.01,-450.92 604.92,-440.38 599.2,-449.3 606.01,-450.92"/>
</g>
<!-- Node8 -->
<g id="node8" class="node">
<title>Node8</title>
<g id="a_node8"><a xlink:href="../../d9/dc6/class_main_window.html#affed0fab82fd390e2762933c6dca9124" target="_top" xlink:title=" ">
<polygon fill="white" stroke="black" points="345.5,-606.5 345.5,-636.5 494.5,-636.5 494.5,-606.5 345.5,-606.5"/>
<text text-anchor="start" x="353.5" y="-624.5" font-family="Helvetica,sans-Serif" font-size="10.00">MainWindow::slotOptimization</text>
<text text-anchor="middle" x="420" y="-613.5" font-family="Helvetica,sans-Serif" font-size="10.00">BenchmarkCorona</text>
</a>
</g>
</g>
<!-- Node3&#45;&gt;Node8 -->
<g id="edge8" class="edge">
<title>Node3&#45;&gt;Node8</title>
<path fill="none" stroke="midnightblue" d="M599.74,-449.5C585.54,-484.12 550.81,-557.57 498,-597.5 493.42,-600.96 488.33,-603.93 483.02,-606.48"/>
<polygon fill="midnightblue" stroke="midnightblue" points="603.04,-450.67 603.48,-440.08 596.54,-448.08 603.04,-450.67"/>
</g>
<!-- Node9 -->
<g id="node9" class="node">
<title>Node9</title>
<g id="a_node9"><a xlink:href="../../d9/dc6/class_main_window.html#adfdb8fcb8685844e8ce11bfb41b83b7d" target="_top" xlink:title=" ">
<polygon fill="white" stroke="black" points="345.5,-557.5 345.5,-587.5 494.5,-587.5 494.5,-557.5 345.5,-557.5"/>
<text text-anchor="start" x="353.5" y="-575.5" font-family="Helvetica,sans-Serif" font-size="10.00">MainWindow::slotOptimization</text>
<text text-anchor="middle" x="420" y="-564.5" font-family="Helvetica,sans-Serif" font-size="10.00">BenchmarkCthulhu</text>
</a>
</g>
</g>
<!-- Node3&#45;&gt;Node9 -->
<g id="edge10" class="edge">
<title>Node3&#45;&gt;Node9</title>
<path fill="none" stroke="midnightblue" d="M595.08,-448.47C577.05,-474.29 540.41,-521.7 498,-548.5 492.56,-551.94 486.58,-554.92 480.44,-557.49"/>
<polygon fill="midnightblue" stroke="midnightblue" points="598.1,-450.25 600.85,-440.02 592.32,-446.3 598.1,-450.25"/>
</g>
<!-- Node10 -->
<g id="node10" class="node">
<title>Node10</title>
<g id="a_node10"><a xlink:href="../../d9/dc6/class_main_window.html#a5283a0d7aeeafd409c69b272053f3986" target="_top" xlink:title=" ">
<polygon fill="white" stroke="black" points="345.5,-508.5 345.5,-538.5 494.5,-538.5 494.5,-508.5 345.5,-508.5"/>
<text text-anchor="start" x="353.5" y="-526.5" font-family="Helvetica,sans-Serif" font-size="10.00">MainWindow::slotOptimization</text>
<text text-anchor="middle" x="420" y="-515.5" font-family="Helvetica,sans-Serif" font-size="10.00">BenchmarkCube</text>
</a>
</g>
</g>
<!-- Node3&#45;&gt;Node10 -->
<g id="edge12" class="edge">
<title>Node3&#45;&gt;Node10</title>
<path fill="none" stroke="midnightblue" d="M585.93,-446.2C564.65,-461.48 530.37,-484.53 498,-499.5 490.88,-502.79 483.2,-505.79 475.53,-508.47"/>
<polygon fill="midnightblue" stroke="midnightblue" points="588.19,-448.89 594.22,-440.17 584.07,-443.23 588.19,-448.89"/>
</g>
<!-- Node11 -->
<g id="node11" class="node">
<title>Node11</title>
<g id="a_node11"><a xlink:href="../../d9/dc6/class_main_window.html#a0c92ca2d04a79a1580c2e8e136b82682" target="_top" xlink:title=" ">
<polygon fill="white" stroke="black" points="345.5,-459.5 345.5,-489.5 494.5,-489.5 494.5,-459.5 345.5,-459.5"/>
<text text-anchor="start" x="353.5" y="-477.5" font-family="Helvetica,sans-Serif" font-size="10.00">MainWindow::slotOptimization</text>
<text text-anchor="middle" x="420" y="-466.5" font-family="Helvetica,sans-Serif" font-size="10.00">BenchmarkSphere</text>
</a>
</g>
</g>
<!-- Node3&#45;&gt;Node11 -->
<g id="edge14" class="edge">
<title>Node3&#45;&gt;Node11</title>
<path fill="none" stroke="midnightblue" d="M556.76,-442.38C534.57,-447.63 508.23,-453.86 484.69,-459.43"/>
<polygon fill="midnightblue" stroke="midnightblue" points="557.72,-445.76 566.64,-440.05 556.1,-438.94 557.72,-445.76"/>
</g>
<!-- Node12 -->
<g id="node12" class="node">
<title>Node12</title>
<g id="a_node12"><a xlink:href="../../d9/dc6/class_main_window.html#a86cd359f80311725589d0861dd7a9851" target="_top" xlink:title=" ">
<polygon fill="white" stroke="black" points="345.5,-410.5 345.5,-440.5 494.5,-440.5 494.5,-410.5 345.5,-410.5"/>
<text text-anchor="start" x="353.5" y="-428.5" font-family="Helvetica,sans-Serif" font-size="10.00">MainWindow::slotOptimization</text>
<text text-anchor="middle" x="420" y="-417.5" font-family="Helvetica,sans-Serif" font-size="10.00">BenchmarkUChannel</text>
</a>
</g>
</g>
<!-- Node3&#45;&gt;Node12 -->
<g id="edge16" class="edge">
<title>Node3&#45;&gt;Node12</title>
<path fill="none" stroke="midnightblue" d="M537.37,-428.63C523.42,-428.25 508.71,-427.86 494.63,-427.48"/>
<polygon fill="midnightblue" stroke="midnightblue" points="537.29,-432.13 547.38,-428.9 537.48,-425.13 537.29,-432.13"/>
</g>
<!-- Node5 -->
<g id="node5" class="node">
<title>Node5</title>
<g id="a_node5"><a xlink:href="../../d9/dc6/class_main_window.html#a33dddfc15db4053f9117728538e7ece4" target="_top" xlink:title="Set up qt specific signal and slots part for enabling user interaction.">
<polygon fill="white" stroke="black" points="171,-508.5 171,-538.5 306,-538.5 306,-508.5 171,-508.5"/>
<text text-anchor="start" x="179" y="-526.5" font-family="Helvetica,sans-Serif" font-size="10.00">MainWindow::setupSignals</text>
<text text-anchor="middle" x="238.5" y="-515.5" font-family="Helvetica,sans-Serif" font-size="10.00">AndSlots</text>
</a>
</g>
</g>
<!-- Node4&#45;&gt;Node5 -->
<g id="edge4" class="edge">
<title>Node4&#45;&gt;Node5</title>
<path fill="none" stroke="midnightblue" d="M355.08,-394.71C350.5,-396.67 346.09,-398.92 342,-401.5 298.02,-429.26 263.36,-482.04 248.05,-508.13"/>
<polygon fill="midnightblue" stroke="midnightblue" points="356.52,-397.9 364.63,-391.08 354.04,-391.36 356.52,-397.9"/>
</g>
<!-- Node6 -->
<g id="node6" class="node">
<title>Node6</title>
<g id="a_node6"><a xlink:href="../../d9/dc6/class_main_window.html#a996c5a2b6f77944776856f08ec30858d" target="_top" xlink:title=" ">
<polygon fill="white" stroke="black" points="0,-514 0,-533 135,-533 135,-514 0,-514"/>
<text text-anchor="middle" x="67.5" y="-521" font-family="Helvetica,sans-Serif" font-size="10.00">MainWindow::MainWindow</text>
</a>
</g>
</g>
<!-- Node5&#45;&gt;Node6 -->
<g id="edge5" class="edge">
<title>Node5&#45;&gt;Node6</title>
<path fill="none" stroke="midnightblue" d="M160.45,-523.5C151.98,-523.5 143.41,-523.5 135.08,-523.5"/>
<polygon fill="midnightblue" stroke="midnightblue" points="160.71,-527 170.71,-523.5 160.71,-520 160.71,-527"/>
</g>
<!-- Node7&#45;&gt;Node5 -->
<g id="edge7" class="edge">
<title>Node7&#45;&gt;Node5</title>
<path fill="none" stroke="midnightblue" d="M349.51,-651.01C346.92,-649.61 344.4,-648.1 342,-646.5 298.55,-617.46 263.64,-564.74 248.16,-538.78"/>
<polygon fill="midnightblue" stroke="midnightblue" points="348.06,-654.2 358.58,-655.43 351.12,-647.9 348.06,-654.2"/>
</g>
<!-- Node8&#45;&gt;Node5 -->
<g id="edge9" class="edge">
<title>Node8&#45;&gt;Node5</title>
<path fill="none" stroke="midnightblue" d="M353.63,-602.77C349.64,-601.12 345.73,-599.37 342,-597.5 309.61,-581.3 276.39,-555.24 256.87,-538.76"/>
<polygon fill="midnightblue" stroke="midnightblue" points="352.47,-606.07 363.06,-606.42 354.99,-599.55 352.47,-606.07"/>
</g>
<!-- Node9&#45;&gt;Node5 -->
<g id="edge11" class="edge">
<title>Node9&#45;&gt;Node5</title>
<path fill="none" stroke="midnightblue" d="M353.98,-554.75C334.53,-549.44 313.39,-543.67 294.64,-538.55"/>
<polygon fill="midnightblue" stroke="midnightblue" points="353.11,-558.14 363.68,-557.4 354.95,-551.39 353.11,-558.14"/>
</g>
<!-- Node10&#45;&gt;Node5 -->
<g id="edge13" class="edge">
<title>Node10&#45;&gt;Node5</title>
<path fill="none" stroke="midnightblue" d="M335.36,-523.5C325.61,-523.5 315.76,-523.5 306.28,-523.5"/>
<polygon fill="midnightblue" stroke="midnightblue" points="335.47,-527 345.47,-523.5 335.47,-520 335.47,-527"/>
</g>
<!-- Node11&#45;&gt;Node5 -->
<g id="edge15" class="edge">
<title>Node11&#45;&gt;Node5</title>
<path fill="none" stroke="midnightblue" d="M353.98,-492.25C334.53,-497.56 313.39,-503.33 294.64,-508.45"/>
<polygon fill="midnightblue" stroke="midnightblue" points="354.95,-495.61 363.68,-489.6 353.11,-488.86 354.95,-495.61"/>
</g>
<!-- Node12&#45;&gt;Node5 -->
<g id="edge17" class="edge">
<title>Node12&#45;&gt;Node5</title>
<path fill="none" stroke="midnightblue" d="M356.13,-444.12C351.28,-446.1 346.51,-448.23 342,-450.5 310,-466.61 276.93,-492.04 257.3,-508.23"/>
<polygon fill="midnightblue" stroke="midnightblue" points="357.47,-447.36 365.54,-440.5 354.95,-440.83 357.47,-447.36"/>
</g>
<!-- Node14 -->
<g id="node14" class="node">
<title>Node14</title>
<g id="a_node14"><a xlink:href="../../d9/d00/class_p_s_interface_tool.html#aa26bf20d4e597f64df960e4c1a5c3a69" target="_top" xlink:title=" ">
<polygon fill="white" stroke="black" points="356.5,-186 356.5,-205 483.5,-205 483.5,-186 356.5,-186"/>
<text text-anchor="middle" x="420" y="-193" font-family="Helvetica,sans-Serif" font-size="10.00">PSInterfaceTool::execute</text>
</a>
</g>
</g>
<!-- Node13&#45;&gt;Node14 -->
<g id="edge19" class="edge">
<title>Node13&#45;&gt;Node14</title>
<path fill="none" stroke="midnightblue" d="M580.81,-252.14C559.12,-240.72 527.23,-224.96 498,-214.5 487.89,-210.88 476.79,-207.71 466.24,-205.04"/>
<polygon fill="midnightblue" stroke="midnightblue" points="579.25,-255.28 589.72,-256.9 582.55,-249.11 579.25,-255.28"/>
</g>
<!-- Node16 -->
<g id="node16" class="node">
<title>Node16</title>
<g id="a_node16"><a xlink:href="../../da/dcb/class_freehand_add_final_point_callback.html#a4a889b08c802e7e81598b8dd8b5e3dad" target="_top" xlink:title="Overwritten callback method, which is executed when the left mouse button is pressed.">
<polygon fill="white" stroke="black" points="342,-224.5 342,-254.5 498,-254.5 498,-224.5 342,-224.5"/>
<text text-anchor="start" x="350" y="-242.5" font-family="Helvetica,sans-Serif" font-size="10.00">FreehandAddFinalPointCallback</text>
<text text-anchor="middle" x="420" y="-231.5" font-family="Helvetica,sans-Serif" font-size="10.00">::Execute</text>
</a>
</g>
</g>
<!-- Node15&#45;&gt;Node16 -->
<g id="edge21" class="edge">
<title>Node15&#45;&gt;Node16</title>
<path fill="none" stroke="midnightblue" d="M552.46,-292.07C546.15,-290.11 539.88,-287.93 534,-285.5 516.88,-278.43 514.91,-272.07 498,-264.5 489.92,-260.88 481.15,-257.53 472.53,-254.53"/>
<polygon fill="midnightblue" stroke="midnightblue" points="551.78,-295.52 562.36,-294.95 553.73,-288.79 551.78,-295.52"/>
</g>
<!-- Node17 -->
<g id="node17" class="node">
<title>Node17</title>
<g id="a_node17"><a xlink:href="../../d4/d58/class_polyline_add_final_point_callback.html#aebf2f4ff9236a12c598205822c2949a2" target="_top" xlink:title="Overwritten callback method, which is executed when the left mouse button is pressed for the first ti...">
<polygon fill="white" stroke="black" points="345,-322.5 345,-352.5 495,-352.5 495,-322.5 345,-322.5"/>
<text text-anchor="start" x="353" y="-340.5" font-family="Helvetica,sans-Serif" font-size="10.00">PolylineAddFinalPointCallback</text>
<text text-anchor="middle" x="420" y="-329.5" font-family="Helvetica,sans-Serif" font-size="10.00">::Execute</text>
</a>
</g>
</g>
<!-- Node15&#45;&gt;Node17 -->
<g id="edge22" class="edge">
<title>Node15&#45;&gt;Node17</title>
<path fill="none" stroke="midnightblue" d="M543.21,-315.82C527.72,-318.57 511.01,-321.53 495.09,-324.36"/>
<polygon fill="midnightblue" stroke="midnightblue" points="543.97,-319.24 553.2,-314.04 542.74,-312.35 543.97,-319.24"/>
</g>
<!-- Node18 -->
<g id="node18" class="node">
<title>Node18</title>
<g id="a_node18"><a xlink:href="../../d1/db5/class_lasso_interactor_style.html#a711994cec6c74643d2bc161ba73daacd" target="_top" xlink:title="Overwritten method, which is executed when the left mouse button is released.">
<polygon fill="white" stroke="black" points="366.5,-273.5 366.5,-303.5 473.5,-303.5 473.5,-273.5 366.5,-273.5"/>
<text text-anchor="start" x="374.5" y="-291.5" font-family="Helvetica,sans-Serif" font-size="10.00">LassoInteractorStyle</text>
<text text-anchor="middle" x="420" y="-280.5" font-family="Helvetica,sans-Serif" font-size="10.00">::OnLeftButtonUp</text>
</a>
</g>
</g>
<!-- Node15&#45;&gt;Node18 -->
<g id="edge23" class="edge">
<title>Node15&#45;&gt;Node18</title>
<path fill="none" stroke="midnightblue" d="M524.67,-297.42C507.31,-295.92 489.44,-294.39 473.53,-293.02"/>
<polygon fill="midnightblue" stroke="midnightblue" points="524.56,-300.92 534.82,-298.29 525.16,-293.95 524.56,-300.92"/>
</g>
<!-- Node20&#45;&gt;Node3 -->
<g id="edge26" class="edge">
<title>Node20&#45;&gt;Node3</title>
<path fill="none" stroke="midnightblue" d="M724.18,-254.76C722.02,-256.23 719.95,-257.81 718,-259.5 693.34,-280.87 699.21,-295.77 682,-323.5 659.11,-360.37 629.24,-402.47 615.93,-420.95"/>
<polygon fill="midnightblue" stroke="midnightblue" points="726.12,-257.68 732.91,-249.54 722.53,-251.67 726.12,-257.68"/>
</g>
<!-- Node20&#45;&gt;Node13 -->
<g id="edge27" class="edge">
<title>Node20&#45;&gt;Node13</title>
<path fill="none" stroke="midnightblue" d="M715.7,-246.82C697.44,-250.19 677.93,-253.79 660.66,-256.97"/>
<polygon fill="midnightblue" stroke="midnightblue" points="716.49,-250.23 725.69,-244.98 715.22,-243.35 716.49,-250.23"/>
</g>
<!-- Node20&#45;&gt;Node15 -->
<g id="edge28" class="edge">
<title>Node20&#45;&gt;Node15</title>
<path fill="none" stroke="midnightblue" d="M729.69,-253.67C725.68,-255.52 721.74,-257.47 718,-259.5 700.66,-268.92 699.86,-277.09 682,-285.5 673.94,-289.29 665.02,-292.41 656.25,-294.95"/>
<polygon fill="midnightblue" stroke="midnightblue" points="731.37,-256.76 739.13,-249.54 728.57,-250.34 731.37,-256.76"/>
</g>
<!-- Node21 -->
<g id="node21" class="node">
<title>Node21</title>
<g id="a_node21"><a xlink:href="../../d6/db5/class_scene.html#a415555bc0037489b1a9421747c318746" target="_top" xlink:title="Update the occupation map visualization after changes to the underlying voxel data.">
<polygon fill="white" stroke="black" points="534,-180.5 534,-210.5 682,-210.5 682,-180.5 534,-180.5"/>
<text text-anchor="start" x="542" y="-198.5" font-family="Helvetica,sans-Serif" font-size="10.00">Scene::updateOccupationMap</text>
<text text-anchor="middle" x="608" y="-187.5" font-family="Helvetica,sans-Serif" font-size="10.00">Actor</text>
</a>
</g>
</g>
<!-- Node20&#45;&gt;Node21 -->
<g id="edge29" class="edge">
<title>Node20&#45;&gt;Node21</title>
<path fill="none" stroke="midnightblue" d="M715.83,-219.51C702.73,-216.57 689,-213.48 675.9,-210.54"/>
<polygon fill="midnightblue" stroke="midnightblue" points="715.17,-222.95 725.69,-221.73 716.7,-216.12 715.17,-222.95"/>
</g>
<!-- Node21&#45;&gt;Node14 -->
<g id="edge32" class="edge">
<title>Node21&#45;&gt;Node14</title>
<path fill="none" stroke="midnightblue" d="M523.57,-195.5C510.15,-195.5 496.47,-195.5 483.65,-195.5"/>
<polygon fill="midnightblue" stroke="midnightblue" points="523.75,-199 533.75,-195.5 523.75,-192 523.75,-199"/>
</g>
<!-- Node21&#45;&gt;Node16 -->
<g id="edge33" class="edge">
<title>Node21&#45;&gt;Node16</title>
<path fill="none" stroke="midnightblue" d="M533.54,-212.88C517.33,-216.71 500.3,-220.74 484.52,-224.47"/>
<polygon fill="midnightblue" stroke="midnightblue" points="534.58,-216.23 543.51,-210.52 532.97,-209.42 534.58,-216.23"/>
</g>
<!-- Node21&#45;&gt;Node17 -->
<g id="edge34" class="edge">
<title>Node21&#45;&gt;Node17</title>
<path fill="none" stroke="midnightblue" d="M571.41,-216.13C558.58,-224.71 544.65,-235.49 534,-247.5 511.83,-272.5 523.84,-292.31 498,-313.5 493.78,-316.96 489.05,-319.93 484.08,-322.47"/>
<polygon fill="midnightblue" stroke="midnightblue" points="573.56,-218.91 580.06,-210.54 569.76,-213.02 573.56,-218.91"/>
</g>
<!-- Node21&#45;&gt;Node18 -->
<g id="edge35" class="edge">
<title>Node21&#45;&gt;Node18</title>
<path fill="none" stroke="midnightblue" d="M578.35,-216.58C557.03,-231.52 526.76,-251.2 498,-264.5 490.37,-268.03 482.09,-271.22 473.88,-274.04"/>
<polygon fill="midnightblue" stroke="midnightblue" points="580.5,-219.34 586.63,-210.7 576.45,-213.64 580.5,-219.34"/>
</g>
<!-- Node22 -->
<g id="node22" class="node">
<title>Node22</title>
<g id="a_node22"><a xlink:href="../../d1/da7/class_place_ground_plane8_connectors_tool.html#ac6f514739682b173fadccf10f5bc9aab" target="_top" xlink:title=" ">
<polygon fill="white" stroke="black" points="343.5,-98.5 343.5,-128.5 496.5,-128.5 496.5,-98.5 343.5,-98.5"/>
<text text-anchor="start" x="351.5" y="-116.5" font-family="Helvetica,sans-Serif" font-size="10.00">PlaceGroundPlane8Connectors</text>
<text text-anchor="middle" x="420" y="-105.5" font-family="Helvetica,sans-Serif" font-size="10.00">Tool::execute</text>
</a>
</g>
</g>
<!-- Node21&#45;&gt;Node22 -->
<g id="edge30" class="edge">
<title>Node21&#45;&gt;Node22</title>
<path fill="none" stroke="midnightblue" d="M572.28,-175.43C551.21,-163.74 523.55,-149.24 498,-138.5 489.58,-134.96 480.47,-131.61 471.56,-128.57"/>
<polygon fill="midnightblue" stroke="midnightblue" points="570.73,-178.58 581.17,-180.41 574.15,-172.47 570.73,-178.58"/>
</g>
<!-- Node23 -->
<g id="node23" class="node">
<title>Node23</title>
<g id="a_node23"><a xlink:href="../../dc/db2/class_place_ground_plane4_connectors_tool.html#a7ae289774f2b51d2daba1215effc4311" target="_top" xlink:title=" ">
<polygon fill="white" stroke="black" points="343.5,-49.5 343.5,-79.5 496.5,-79.5 496.5,-49.5 343.5,-49.5"/>
<text text-anchor="start" x="351.5" y="-67.5" font-family="Helvetica,sans-Serif" font-size="10.00">PlaceGroundPlane4Connectors</text>
<text text-anchor="middle" x="420" y="-56.5" font-family="Helvetica,sans-Serif" font-size="10.00">Tool::execute</text>
</a>
</g>
</g>
<!-- Node21&#45;&gt;Node23 -->
<g id="edge31" class="edge">
<title>Node21&#45;&gt;Node23</title>
<path fill="none" stroke="midnightblue" d="M589.24,-172.49C569.43,-148.32 535.25,-110.79 498,-88.5 492.35,-85.12 486.18,-82.17 479.87,-79.61"/>
<polygon fill="midnightblue" stroke="midnightblue" points="586.63,-174.84 595.62,-180.44 592.09,-170.45 586.63,-174.84"/>
</g>
<!-- Node24 -->
<g id="node24" class="node">
<title>Node24</title>
<g id="a_node24"><a xlink:href="../../db/dbb/class_picking_interactor_style.html#a1620702107e2c2d0c0aefbd896098b0d" target="_top" xlink:title="Overloaded method, invoked when right mouse button is pressed.">
<polygon fill="white" stroke="black" points="363.5,-0.5 363.5,-30.5 476.5,-30.5 476.5,-0.5 363.5,-0.5"/>
<text text-anchor="start" x="371.5" y="-18.5" font-family="Helvetica,sans-Serif" font-size="10.00">PickingInteractorStyle</text>
<text text-anchor="middle" x="420" y="-7.5" font-family="Helvetica,sans-Serif" font-size="10.00">::OnRightButtonDown</text>
</a>
</g>
</g>
<!-- Node21&#45;&gt;Node24 -->
<g id="edge36" class="edge">
<title>Node21&#45;&gt;Node24</title>
<path fill="none" stroke="midnightblue" d="M596.14,-170.77C579.77,-136.35 545.57,-74.3 498,-39.5 491.56,-34.79 484.17,-30.98 476.57,-27.92"/>
<polygon fill="midnightblue" stroke="midnightblue" points="593.08,-172.5 600.46,-180.11 599.43,-169.56 593.08,-172.5"/>
</g>
<!-- Node25 -->
<g id="node25" class="node">
<title>Node25</title>
<g id="a_node25"><a xlink:href="../../d6/db5/class_scene.html#af1128c48ccb6999066aa1d935075cb23" target="_top" xlink:title="Remove a touchpoint from the scene given its unique touchpoint id.">
<polygon fill="white" stroke="black" points="355,-148 355,-167 485,-167 485,-148 355,-148"/>
<text text-anchor="middle" x="420" y="-155" font-family="Helvetica,sans-Serif" font-size="10.00">Scene::removeTouchpoint</text>
</a>
</g>
</g>
<!-- Node21&#45;&gt;Node25 -->
<g id="edge37" class="edge">
<title>Node21&#45;&gt;Node25</title>
<path fill="none" stroke="midnightblue" d="M523.75,-178.49C504.5,-174.56 484.68,-170.51 467.64,-167.03"/>
<polygon fill="midnightblue" stroke="midnightblue" points="523.26,-181.96 533.75,-180.54 524.66,-175.11 523.26,-181.96"/>
</g>
<!-- Node26 -->
<g id="node26" class="node">
<title>Node26</title>
<g id="a_node26"><a xlink:href="../../d1/d4e/class_place_touchpoint_tool.html#aa565ccff15d4591dc9c6dee73adfe6e8" target="_top" xlink:title=" ">
<polygon fill="white" stroke="black" points="185,-76.5 185,-106.5 292,-106.5 292,-76.5 185,-76.5"/>
<text text-anchor="start" x="193" y="-94.5" font-family="Helvetica,sans-Serif" font-size="10.00">PlaceTouchpointTool</text>
<text text-anchor="middle" x="238.5" y="-83.5" font-family="Helvetica,sans-Serif" font-size="10.00">::undo</text>
</a>
</g>
</g>
<!-- Node25&#45;&gt;Node26 -->
<g id="edge38" class="edge">
<title>Node25&#45;&gt;Node26</title>
<path fill="none" stroke="midnightblue" d="M363.81,-145.13C356.37,-142.9 348.93,-140.36 342,-137.5 324.88,-130.44 322.73,-124.45 306,-116.5 298.65,-113 290.67,-109.65 282.87,-106.6"/>
<polygon fill="midnightblue" stroke="midnightblue" points="362.96,-148.53 373.53,-147.89 364.87,-141.8 362.96,-148.53"/>
</g>
<!-- Node27 -->
<g id="node27" class="node">
<title>Node27</title>
<g id="a_node27"><a xlink:href="../../de/dd7/class_polyline_touchpoint_tool.html#a9ee474813d977ff7b9877372035a319c" target="_top" xlink:title=" ">
<polygon fill="white" stroke="black" points="180.5,-213.5 180.5,-243.5 296.5,-243.5 296.5,-213.5 180.5,-213.5"/>
<text text-anchor="start" x="188.5" y="-231.5" font-family="Helvetica,sans-Serif" font-size="10.00">PolylineTouchpointTool</text>
<text text-anchor="middle" x="238.5" y="-220.5" font-family="Helvetica,sans-Serif" font-size="10.00">::undo</text>
</a>
</g>
</g>
<!-- Node25&#45;&gt;Node27 -->
<g id="edge39" class="edge">
<title>Node25&#45;&gt;Node27</title>
<path fill="none" stroke="midnightblue" d="M357.93,-170.13C352.44,-171.99 347.05,-174.1 342,-176.5 323.93,-185.07 323.54,-193.88 306,-203.5 299.4,-207.12 292.17,-210.43 284.99,-213.38"/>
<polygon fill="midnightblue" stroke="midnightblue" points="359.36,-173.35 367.88,-167.04 357.29,-166.66 359.36,-173.35"/>
</g>
<!-- Node28 -->
<g id="node28" class="node">
<title>Node28</title>
<g id="a_node28"><a xlink:href="../../de/de0/class_freehand_touchpoint_tool.html#a8c241ab6ea3d7ced711c84036836e885" target="_top" xlink:title=" ">
<polygon fill="white" stroke="black" points="177.5,-164.5 177.5,-194.5 299.5,-194.5 299.5,-164.5 177.5,-164.5"/>
<text text-anchor="start" x="185.5" y="-182.5" font-family="Helvetica,sans-Serif" font-size="10.00">FreehandTouchpointTool</text>
<text text-anchor="middle" x="238.5" y="-171.5" font-family="Helvetica,sans-Serif" font-size="10.00">::undo</text>
</a>
</g>
</g>
<!-- Node25&#45;&gt;Node28 -->
<g id="edge40" class="edge">
<title>Node25&#45;&gt;Node28</title>
<path fill="none" stroke="midnightblue" d="M344.68,-166.61C329.67,-168.45 314.07,-170.36 299.62,-172.13"/>
<polygon fill="midnightblue" stroke="midnightblue" points="345.46,-170.04 354.96,-165.35 344.61,-163.09 345.46,-170.04"/>
</g>
<!-- Node29 -->
<g id="node29" class="node">
<title>Node29</title>
<g id="a_node29"><a xlink:href="../../dd/d4a/class_lasso_tool.html#ad4e65963efd59e0802ecb4fbd8d8b288" target="_top" xlink:title=" ">
<polygon fill="white" stroke="black" points="194.5,-126 194.5,-145 282.5,-145 282.5,-126 194.5,-126"/>
<text text-anchor="middle" x="238.5" y="-133" font-family="Helvetica,sans-Serif" font-size="10.00">LassoTool::undo</text>
</a>
</g>
</g>
<!-- Node25&#45;&gt;Node29 -->
<g id="edge41" class="edge">
<title>Node25&#45;&gt;Node29</title>
<path fill="none" stroke="midnightblue" d="M345,-148.43C323.8,-145.83 301.4,-143.09 282.72,-140.8"/>
<polygon fill="midnightblue" stroke="midnightblue" points="344.61,-151.91 354.96,-149.65 345.46,-144.96 344.61,-151.91"/>
</g>
<!-- Node30&#45;&gt;Node3 -->
<g id="edge43" class="edge">
<title>Node30&#45;&gt;Node3</title>
<path fill="none" stroke="midnightblue" d="M707.59,-430.5C694.62,-430.5 681.28,-430.5 668.78,-430.5"/>
<polygon fill="midnightblue" stroke="midnightblue" points="707.9,-434 717.9,-430.5 707.89,-427 707.9,-434"/>
</g>
<!-- Node30&#45;&gt;Node13 -->
<g id="edge44" class="edge">
<title>Node30&#45;&gt;Node13</title>
<path fill="none" stroke="midnightblue" d="M720.81,-409.26C719.83,-408.38 718.9,-407.46 718,-406.5 679.68,-365.52 722.35,-324.48 682,-285.5 678.04,-281.68 673.42,-278.6 668.46,-276.12"/>
<polygon fill="midnightblue" stroke="midnightblue" points="718.8,-412.13 728.9,-415.34 723,-406.53 718.8,-412.13"/>
</g>
<!-- Node30&#45;&gt;Node15 -->
<g id="edge45" class="edge">
<title>Node30&#45;&gt;Node15</title>
<path fill="none" stroke="midnightblue" d="M726.15,-411.1C723.34,-409.65 720.61,-408.11 718,-406.5 674.81,-379.77 633.86,-334.18 617.04,-314.28"/>
<polygon fill="midnightblue" stroke="midnightblue" points="724.77,-414.32 735.31,-415.45 727.78,-407.99 724.77,-414.32"/>
</g>
<!-- Node32 -->
<g id="node32" class="node">
<title>Node32</title>
<g id="a_node32"><a xlink:href="../../db/dae/class_voxel_image_visualizer.html#a279e821afcfbef7cb624c391eec3b7a4" target="_top" xlink:title="Return visualization of the mesh interior only.">
<polygon fill="white" stroke="black" points="728.5,-317.5 728.5,-347.5 838.5,-347.5 838.5,-317.5 728.5,-317.5"/>
<text text-anchor="start" x="736.5" y="-335.5" font-family="Helvetica,sans-Serif" font-size="10.00">VoxelImageVisualizer</text>
<text text-anchor="middle" x="783.5" y="-324.5" font-family="Helvetica,sans-Serif" font-size="10.00">::getInteriorOutput</text>
</a>
</g>
</g>
<!-- Node31&#45;&gt;Node32 -->
<g id="edge47" class="edge">
<title>Node31&#45;&gt;Node32</title>
<path fill="none" stroke="midnightblue" d="M874.93,-332.5C862.82,-332.5 850.27,-332.5 838.51,-332.5"/>
<polygon fill="midnightblue" stroke="midnightblue" points="874.96,-336 884.96,-332.5 874.96,-329 874.96,-336"/>
</g>
<!-- Node33 -->
<g id="node33" class="node">
<title>Node33</title>
<g id="a_node33"><a xlink:href="../../db/dae/class_voxel_image_visualizer.html#ad15f9c4638d8e8671414bebdee17a8f3" target="_top" xlink:title="Return visualization of the mesh surface only.">
<polygon fill="white" stroke="black" points="728,-366.5 728,-396.5 839,-396.5 839,-366.5 728,-366.5"/>
<text text-anchor="start" x="736" y="-384.5" font-family="Helvetica,sans-Serif" font-size="10.00">VoxelImageVisualizer</text>
<text text-anchor="middle" x="783.5" y="-373.5" font-family="Helvetica,sans-Serif" font-size="10.00">::getOuterShellOutput</text>
</a>
</g>
</g>
<!-- Node31&#45;&gt;Node33 -->
<g id="edge51" class="edge">
<title>Node31&#45;&gt;Node33</title>
<path fill="none" stroke="midnightblue" d="M881.43,-350.76C865.13,-355.93 847.59,-361.49 831.96,-366.45"/>
<polygon fill="midnightblue" stroke="midnightblue" points="882.91,-353.96 891.38,-347.6 880.79,-347.29 882.91,-353.96"/>
</g>
<!-- Node32&#45;&gt;Node3 -->
<g id="edge48" class="edge">
<title>Node32&#45;&gt;Node3</title>
<path fill="none" stroke="midnightblue" d="M730.31,-351.58C726.09,-353.47 721.94,-355.45 718,-357.5 681.03,-376.74 641.22,-405.78 621.52,-420.77"/>
<polygon fill="midnightblue" stroke="midnightblue" points="731.77,-354.76 739.58,-347.6 729.01,-348.33 731.77,-354.76"/>
</g>
<!-- Node32&#45;&gt;Node13 -->
<g id="edge49" class="edge">
<title>Node32&#45;&gt;Node13</title>
<path fill="none" stroke="midnightblue" d="M728.91,-313.57C725.18,-311.94 721.51,-310.25 718,-308.5 701.01,-300.03 699.4,-293.1 682,-285.5 673.48,-281.78 664.07,-278.66 654.92,-276.1"/>
<polygon fill="midnightblue" stroke="midnightblue" points="727.67,-316.85 738.25,-317.46 730.37,-310.38 727.67,-316.85"/>
</g>
<!-- Node32&#45;&gt;Node15 -->
<g id="edge50" class="edge">
<title>Node32&#45;&gt;Node15</title>
<path fill="none" stroke="midnightblue" d="M718.05,-322.1C701.66,-319.45 684.14,-316.63 668.04,-314.03"/>
<polygon fill="midnightblue" stroke="midnightblue" points="717.65,-325.58 728.08,-323.72 718.76,-318.67 717.65,-325.58"/>
</g>
<!-- Node35 -->
<g id="node35" class="node">
<title>Node35</title>
<g id="a_node35"><a xlink:href="../../db/dae/class_voxel_image_visualizer.html#a832d4efbe743573453e2ee744e92ece6" target="_top" xlink:title="Return background color cells visualization.">
<polygon fill="white" stroke="black" points="728.5,-105.5 728.5,-135.5 838.5,-135.5 838.5,-105.5 728.5,-105.5"/>
<text text-anchor="start" x="736.5" y="-123.5" font-family="Helvetica,sans-Serif" font-size="10.00">VoxelImageVisualizer</text>
<text text-anchor="middle" x="783.5" y="-112.5" font-family="Helvetica,sans-Serif" font-size="10.00">::getInverseOutput</text>
</a>
</g>
</g>
<!-- Node34&#45;&gt;Node35 -->
<g id="edge53" class="edge">
<title>Node34&#45;&gt;Node35</title>
<path fill="none" stroke="midnightblue" d="M874.93,-140.4C862.82,-137.74 850.27,-134.97 838.51,-132.38"/>
<polygon fill="midnightblue" stroke="midnightblue" points="874.44,-143.88 884.96,-142.61 875.95,-137.04 874.44,-143.88"/>
</g>
<!-- Node36 -->
<g id="node36" class="node">
<title>Node36</title>
<g id="a_node36"><a xlink:href="../../db/dae/class_voxel_image_visualizer.html#a8021df5f7e97d1d5f85c4ffdba400c65" target="_top" xlink:title="Return foreground color cells visualization.">
<polygon fill="white" stroke="black" points="728.5,-154.5 728.5,-184.5 838.5,-184.5 838.5,-154.5 728.5,-154.5"/>
<text text-anchor="start" x="736.5" y="-172.5" font-family="Helvetica,sans-Serif" font-size="10.00">VoxelImageVisualizer</text>
<text text-anchor="middle" x="783.5" y="-161.5" font-family="Helvetica,sans-Serif" font-size="10.00">::getOutput</text>
</a>
</g>
</g>
<!-- Node34&#45;&gt;Node36 -->
<g id="edge54" class="edge">
<title>Node34&#45;&gt;Node36</title>
<path fill="none" stroke="midnightblue" d="M874.93,-160.72C862.82,-161.9 850.27,-163.11 838.51,-164.26"/>
<polygon fill="midnightblue" stroke="midnightblue" points="875.35,-164.2 884.96,-159.75 874.67,-157.23 875.35,-164.2"/>
</g>
</g>
</svg>
