<?xml version="1.0" encoding="UTF-8" standalone="no"?>
<!DOCTYPE svg PUBLIC "-//W3C//DTD SVG 1.1//EN"
 "http://www.w3.org/Graphics/SVG/1.1/DTD/svg11.dtd">
<!-- Generated by graphviz version 2.44.1 (0)
 -->
<!-- Title: VoxelImageVisualizer::getShellOutput Pages: 1 -->
<svg width="981pt" height="509pt"
 viewBox="0.00 0.00 981.00 508.50" xmlns="http://www.w3.org/2000/svg" xmlns:xlink="http://www.w3.org/1999/xlink">
<g id="graph0" class="graph" transform="scale(1 1) rotate(0) translate(4 504.5)">
<title>VoxelImageVisualizer::getShellOutput</title>
<polygon fill="white" stroke="transparent" points="-4,4 -4,-504.5 977,-504.5 977,4 -4,4"/>
<!-- Node1 -->
<g id="node1" class="node">
<title>Node1</title>
<g id="a_node1"><a xlink:title=" ">
<polygon fill="#bfbfbf" stroke="black" points="863,-117.5 863,-147.5 973,-147.5 973,-117.5 863,-117.5"/>
<text text-anchor="start" x="871" y="-135.5" font-family="Helvetica,sans-Serif" font-size="10.00">VoxelImageVisualizer</text>
<text text-anchor="middle" x="918" y="-124.5" font-family="Helvetica,sans-Serif" font-size="10.00">::getShellOutput</text>
</a>
</g>
</g>
<!-- Node2 -->
<g id="node2" class="node">
<title>Node2</title>
<g id="a_node2"><a xlink:href="../../db/dae/class_voxel_image_visualizer.html#a279e821afcfbef7cb624c391eec3b7a4" target="_top" xlink:title="Return visualization of the mesh interior only.">
<polygon fill="white" stroke="black" points="716.5,-142.5 716.5,-172.5 826.5,-172.5 826.5,-142.5 716.5,-142.5"/>
<text text-anchor="start" x="724.5" y="-160.5" font-family="Helvetica,sans-Serif" font-size="10.00">VoxelImageVisualizer</text>
<text text-anchor="middle" x="771.5" y="-149.5" font-family="Helvetica,sans-Serif" font-size="10.00">::getInteriorOutput</text>
</a>
</g>
</g>
<!-- Node1&#45;&gt;Node2 -->
<g id="edge1" class="edge">
<title>Node1&#45;&gt;Node2</title>
<path fill="none" stroke="midnightblue" d="M852.65,-143.63C843.93,-145.14 835.05,-146.68 826.54,-148.15"/>
<polygon fill="midnightblue" stroke="midnightblue" points="853.53,-147.03 862.78,-141.88 852.33,-140.14 853.53,-147.03"/>
</g>
<!-- Node19 -->
<g id="node19" class="node">
<title>Node19</title>
<g id="a_node19"><a xlink:href="../../db/dae/class_voxel_image_visualizer.html#ad15f9c4638d8e8671414bebdee17a8f3" target="_top" xlink:title="Return visualization of the mesh surface only.">
<polygon fill="white" stroke="black" points="716,-93.5 716,-123.5 827,-123.5 827,-93.5 716,-93.5"/>
<text text-anchor="start" x="724" y="-111.5" font-family="Helvetica,sans-Serif" font-size="10.00">VoxelImageVisualizer</text>
<text text-anchor="middle" x="771.5" y="-100.5" font-family="Helvetica,sans-Serif" font-size="10.00">::getOuterShellOutput</text>
</a>
</g>
</g>
<!-- Node1&#45;&gt;Node19 -->
<g id="edge24" class="edge">
<title>Node1&#45;&gt;Node19</title>
<path fill="none" stroke="midnightblue" d="M852.79,-121.83C844.19,-120.41 835.43,-118.95 827.02,-117.56"/>
<polygon fill="midnightblue" stroke="midnightblue" points="852.34,-125.31 862.78,-123.5 853.49,-118.4 852.34,-125.31"/>
</g>
<!-- Node3 -->
<g id="node3" class="node">
<title>Node3</title>
<g id="a_node3"><a xlink:href="../../d9/dc6/class_main_window.html#a15f9fa9fe71b50669ecf5f5a3a1ce90e" target="_top" xlink:title="Import STL / OBJ mesh into the scene.">
<polygon fill="white" stroke="black" points="546.5,-314 546.5,-333 667.5,-333 667.5,-314 546.5,-314"/>
<text text-anchor="middle" x="607" y="-321" font-family="Helvetica,sans-Serif" font-size="10.00">MainWindow::loadMesh</text>
</a>
</g>
</g>
<!-- Node2&#45;&gt;Node3 -->
<g id="edge2" class="edge">
<title>Node2&#45;&gt;Node3</title>
<path fill="none" stroke="midnightblue" d="M748.68,-179.79C712.79,-216.45 642.75,-288 617.42,-313.87"/>
<polygon fill="midnightblue" stroke="midnightblue" points="751.3,-182.12 755.79,-172.52 746.3,-177.22 751.3,-182.12"/>
</g>
<!-- Node13 -->
<g id="node13" class="node">
<title>Node13</title>
<g id="a_node13"><a xlink:href="../../d6/db5/class_scene.html#a266f98c6795eca4f5c03cba5761967d6" target="_top" xlink:title="Replace the actual mesh polydata with the polydata given as parameter.">
<polygon fill="white" stroke="black" points="534,-148 534,-167 680,-167 680,-148 534,-148"/>
<text text-anchor="middle" x="607" y="-155" font-family="Helvetica,sans-Serif" font-size="10.00">Scene::replaceMeshPolyData</text>
</a>
</g>
</g>
<!-- Node2&#45;&gt;Node13 -->
<g id="edge18" class="edge">
<title>Node2&#45;&gt;Node13</title>
<path fill="none" stroke="midnightblue" d="M706.12,-157.5C697.57,-157.5 688.76,-157.5 680.09,-157.5"/>
<polygon fill="midnightblue" stroke="midnightblue" points="706.39,-161 716.39,-157.5 706.39,-154 706.39,-161"/>
</g>
<!-- Node15 -->
<g id="node15" class="node">
<title>Node15</title>
<g id="a_node15"><a xlink:href="../../d6/db5/class_scene.html#a0955ff290776412f925da730a9f8058c" target="_top" xlink:title="Update the cuberille visualization after changes to the underlying voxel data.">
<polygon fill="white" stroke="black" points="534,-80 534,-99 680,-99 680,-80 534,-80"/>
<text text-anchor="middle" x="607" y="-87" font-family="Helvetica,sans-Serif" font-size="10.00">Scene::updateCuberilleActors</text>
</a>
</g>
</g>
<!-- Node2&#45;&gt;Node15 -->
<g id="edge20" class="edge">
<title>Node2&#45;&gt;Node15</title>
<path fill="none" stroke="midnightblue" d="M724.82,-138.39C694.22,-125.58 655.22,-109.26 630.93,-99.1"/>
<polygon fill="midnightblue" stroke="midnightblue" points="723.86,-141.78 734.44,-142.41 726.56,-135.32 723.86,-141.78"/>
</g>
<!-- Node4 -->
<g id="node4" class="node">
<title>Node4</title>
<g id="a_node4"><a xlink:href="../../d9/dc6/class_main_window.html#a6e3c9bc26115fb1b1664607e58716641" target="_top" xlink:title=" ">
<polygon fill="white" stroke="black" points="347,-481 347,-500 493,-500 493,-481 347,-481"/>
<text text-anchor="middle" x="420" y="-488" font-family="Helvetica,sans-Serif" font-size="10.00">MainWindow::slotImportMesh</text>
</a>
</g>
</g>
<!-- Node3&#45;&gt;Node4 -->
<g id="edge3" class="edge">
<title>Node3&#45;&gt;Node4</title>
<path fill="none" stroke="midnightblue" d="M597.62,-342.38C582.51,-374.19 547.57,-438.23 498,-471.5 492.17,-475.41 485.61,-478.52 478.83,-480.99"/>
<polygon fill="midnightblue" stroke="midnightblue" points="600.82,-343.82 601.83,-333.27 594.46,-340.88 600.82,-343.82"/>
</g>
<!-- Node7 -->
<g id="node7" class="node">
<title>Node7</title>
<g id="a_node7"><a xlink:href="../../d9/dc6/class_main_window.html#a46bb2fea8ddeab75e15a223c291116b6" target="_top" xlink:title=" ">
<polygon fill="white" stroke="black" points="345.5,-431.5 345.5,-461.5 494.5,-461.5 494.5,-431.5 345.5,-431.5"/>
<text text-anchor="start" x="353.5" y="-449.5" font-family="Helvetica,sans-Serif" font-size="10.00">MainWindow::slotOptimization</text>
<text text-anchor="middle" x="420" y="-438.5" font-family="Helvetica,sans-Serif" font-size="10.00">BenchmarkBunnyLowPoly</text>
</a>
</g>
</g>
<!-- Node3&#45;&gt;Node7 -->
<g id="edge6" class="edge">
<title>Node3&#45;&gt;Node7</title>
<path fill="none" stroke="midnightblue" d="M591.34,-341.04C572.07,-363.05 536.15,-400.55 498,-422.5 492.17,-425.85 485.83,-428.79 479.36,-431.35"/>
<polygon fill="midnightblue" stroke="midnightblue" points="594.24,-343.03 598.1,-333.17 588.93,-338.47 594.24,-343.03"/>
</g>
<!-- Node8 -->
<g id="node8" class="node">
<title>Node8</title>
<g id="a_node8"><a xlink:href="../../d9/dc6/class_main_window.html#affed0fab82fd390e2762933c6dca9124" target="_top" xlink:title=" ">
<polygon fill="white" stroke="black" points="345.5,-382.5 345.5,-412.5 494.5,-412.5 494.5,-382.5 345.5,-382.5"/>
<text text-anchor="start" x="353.5" y="-400.5" font-family="Helvetica,sans-Serif" font-size="10.00">MainWindow::slotOptimization</text>
<text text-anchor="middle" x="420" y="-389.5" font-family="Helvetica,sans-Serif" font-size="10.00">BenchmarkCorona</text>
</a>
</g>
</g>
<!-- Node3&#45;&gt;Node8 -->
<g id="edge8" class="edge">
<title>Node3&#45;&gt;Node8</title>
<path fill="none" stroke="midnightblue" d="M577.99,-337.7C556.44,-348.33 525.75,-362.8 498,-373.5 489.9,-376.62 481.21,-379.64 472.68,-382.42"/>
<polygon fill="midnightblue" stroke="midnightblue" points="579.81,-340.71 587.21,-333.12 576.69,-334.44 579.81,-340.71"/>
</g>
<!-- Node9 -->
<g id="node9" class="node">
<title>Node9</title>
<g id="a_node9"><a xlink:href="../../d9/dc6/class_main_window.html#adfdb8fcb8685844e8ce11bfb41b83b7d" target="_top" xlink:title=" ">
<polygon fill="white" stroke="black" points="345.5,-333.5 345.5,-363.5 494.5,-363.5 494.5,-333.5 345.5,-333.5"/>
<text text-anchor="start" x="353.5" y="-351.5" font-family="Helvetica,sans-Serif" font-size="10.00">MainWindow::slotOptimization</text>
<text text-anchor="middle" x="420" y="-340.5" font-family="Helvetica,sans-Serif" font-size="10.00">BenchmarkCthulhu</text>
</a>
</g>
</g>
<!-- Node3&#45;&gt;Node9 -->
<g id="edge10" class="edge">
<title>Node3&#45;&gt;Node9</title>
<path fill="none" stroke="midnightblue" d="M536.23,-332.93C522.66,-334.76 508.4,-336.69 494.71,-338.54"/>
<polygon fill="midnightblue" stroke="midnightblue" points="537.01,-336.36 546.45,-331.55 536.07,-329.42 537.01,-336.36"/>
</g>
<!-- Node10 -->
<g id="node10" class="node">
<title>Node10</title>
<g id="a_node10"><a xlink:href="../../d9/dc6/class_main_window.html#a5283a0d7aeeafd409c69b272053f3986" target="_top" xlink:title=" ">
<polygon fill="white" stroke="black" points="345.5,-284.5 345.5,-314.5 494.5,-314.5 494.5,-284.5 345.5,-284.5"/>
<text text-anchor="start" x="353.5" y="-302.5" font-family="Helvetica,sans-Serif" font-size="10.00">MainWindow::slotOptimization</text>
<text text-anchor="middle" x="420" y="-291.5" font-family="Helvetica,sans-Serif" font-size="10.00">BenchmarkCube</text>
</a>
</g>
</g>
<!-- Node3&#45;&gt;Node10 -->
<g id="edge12" class="edge">
<title>Node3&#45;&gt;Node10</title>
<path fill="none" stroke="midnightblue" d="M536.23,-314.45C522.66,-312.69 508.4,-310.84 494.71,-309.06"/>
<polygon fill="midnightblue" stroke="midnightblue" points="536.08,-317.96 546.45,-315.77 536.98,-311.02 536.08,-317.96"/>
</g>
<!-- Node11 -->
<g id="node11" class="node">
<title>Node11</title>
<g id="a_node11"><a xlink:href="../../d9/dc6/class_main_window.html#a0c92ca2d04a79a1580c2e8e136b82682" target="_top" xlink:title=" ">
<polygon fill="white" stroke="black" points="345.5,-235.5 345.5,-265.5 494.5,-265.5 494.5,-235.5 345.5,-235.5"/>
<text text-anchor="start" x="353.5" y="-253.5" font-family="Helvetica,sans-Serif" font-size="10.00">MainWindow::slotOptimization</text>
<text text-anchor="middle" x="420" y="-242.5" font-family="Helvetica,sans-Serif" font-size="10.00">BenchmarkSphere</text>
</a>
</g>
</g>
<!-- Node3&#45;&gt;Node11 -->
<g id="edge14" class="edge">
<title>Node3&#45;&gt;Node11</title>
<path fill="none" stroke="midnightblue" d="M576.71,-309.49C555.18,-299.43 525.08,-285.88 498,-275.5 489.08,-272.08 479.46,-268.71 470.15,-265.61"/>
<polygon fill="midnightblue" stroke="midnightblue" points="575.42,-312.75 585.96,-313.84 578.4,-306.41 575.42,-312.75"/>
</g>
<!-- Node12 -->
<g id="node12" class="node">
<title>Node12</title>
<g id="a_node12"><a xlink:href="../../d9/dc6/class_main_window.html#a86cd359f80311725589d0861dd7a9851" target="_top" xlink:title=" ">
<polygon fill="white" stroke="black" points="345.5,-186.5 345.5,-216.5 494.5,-216.5 494.5,-186.5 345.5,-186.5"/>
<text text-anchor="start" x="353.5" y="-204.5" font-family="Helvetica,sans-Serif" font-size="10.00">MainWindow::slotOptimization</text>
<text text-anchor="middle" x="420" y="-193.5" font-family="Helvetica,sans-Serif" font-size="10.00">BenchmarkUChannel</text>
</a>
</g>
</g>
<!-- Node3&#45;&gt;Node12 -->
<g id="edge16" class="edge">
<title>Node3&#45;&gt;Node12</title>
<path fill="none" stroke="midnightblue" d="M590.93,-306.07C571.46,-284.56 535.59,-248.17 498,-226.5 491.42,-222.71 484.2,-219.41 476.88,-216.55"/>
<polygon fill="midnightblue" stroke="midnightblue" points="588.52,-308.63 597.78,-313.78 593.75,-303.98 588.52,-308.63"/>
</g>
<!-- Node5 -->
<g id="node5" class="node">
<title>Node5</title>
<g id="a_node5"><a xlink:href="../../d9/dc6/class_main_window.html#a33dddfc15db4053f9117728538e7ece4" target="_top" xlink:title="Set up qt specific signal and slots part for enabling user interaction.">
<polygon fill="white" stroke="black" points="171,-333.5 171,-363.5 306,-363.5 306,-333.5 171,-333.5"/>
<text text-anchor="start" x="179" y="-351.5" font-family="Helvetica,sans-Serif" font-size="10.00">MainWindow::setupSignals</text>
<text text-anchor="middle" x="238.5" y="-340.5" font-family="Helvetica,sans-Serif" font-size="10.00">AndSlots</text>
</a>
</g>
</g>
<!-- Node4&#45;&gt;Node5 -->
<g id="edge4" class="edge">
<title>Node4&#45;&gt;Node5</title>
<path fill="none" stroke="midnightblue" d="M352.72,-477.17C348.99,-475.5 345.38,-473.62 342,-471.5 297.46,-443.64 262.82,-389.87 247.74,-363.64"/>
<polygon fill="midnightblue" stroke="midnightblue" points="351.62,-480.5 362.21,-480.91 354.18,-473.98 351.62,-480.5"/>
</g>
<!-- Node6 -->
<g id="node6" class="node">
<title>Node6</title>
<g id="a_node6"><a xlink:href="../../d9/dc6/class_main_window.html#a996c5a2b6f77944776856f08ec30858d" target="_top" xlink:title=" ">
<polygon fill="white" stroke="black" points="0,-339 0,-358 135,-358 135,-339 0,-339"/>
<text text-anchor="middle" x="67.5" y="-346" font-family="Helvetica,sans-Serif" font-size="10.00">MainWindow::MainWindow</text>
</a>
</g>
</g>
<!-- Node5&#45;&gt;Node6 -->
<g id="edge5" class="edge">
<title>Node5&#45;&gt;Node6</title>
<path fill="none" stroke="midnightblue" d="M160.45,-348.5C151.98,-348.5 143.41,-348.5 135.08,-348.5"/>
<polygon fill="midnightblue" stroke="midnightblue" points="160.71,-352 170.71,-348.5 160.71,-345 160.71,-352"/>
</g>
<!-- Node7&#45;&gt;Node5 -->
<g id="edge7" class="edge">
<title>Node7&#45;&gt;Node5</title>
<path fill="none" stroke="midnightblue" d="M353.63,-427.77C349.64,-426.12 345.73,-424.37 342,-422.5 309.61,-406.3 276.39,-380.24 256.87,-363.76"/>
<polygon fill="midnightblue" stroke="midnightblue" points="352.47,-431.07 363.06,-431.42 354.99,-424.55 352.47,-431.07"/>
</g>
<!-- Node8&#45;&gt;Node5 -->
<g id="edge9" class="edge">
<title>Node8&#45;&gt;Node5</title>
<path fill="none" stroke="midnightblue" d="M353.98,-379.75C334.53,-374.44 313.39,-368.67 294.64,-363.55"/>
<polygon fill="midnightblue" stroke="midnightblue" points="353.11,-383.14 363.68,-382.4 354.95,-376.39 353.11,-383.14"/>
</g>
<!-- Node9&#45;&gt;Node5 -->
<g id="edge11" class="edge">
<title>Node9&#45;&gt;Node5</title>
<path fill="none" stroke="midnightblue" d="M335.36,-348.5C325.61,-348.5 315.76,-348.5 306.28,-348.5"/>
<polygon fill="midnightblue" stroke="midnightblue" points="335.47,-352 345.47,-348.5 335.47,-345 335.47,-352"/>
</g>
<!-- Node10&#45;&gt;Node5 -->
<g id="edge13" class="edge">
<title>Node10&#45;&gt;Node5</title>
<path fill="none" stroke="midnightblue" d="M353.98,-317.25C334.53,-322.56 313.39,-328.33 294.64,-333.45"/>
<polygon fill="midnightblue" stroke="midnightblue" points="354.95,-320.61 363.68,-314.6 353.11,-313.86 354.95,-320.61"/>
</g>
<!-- Node11&#45;&gt;Node5 -->
<g id="edge15" class="edge">
<title>Node11&#45;&gt;Node5</title>
<path fill="none" stroke="midnightblue" d="M356.13,-269.12C351.28,-271.1 346.51,-273.23 342,-275.5 310,-291.61 276.93,-317.04 257.3,-333.23"/>
<polygon fill="midnightblue" stroke="midnightblue" points="357.47,-272.36 365.54,-265.5 354.95,-265.83 357.47,-272.36"/>
</g>
<!-- Node12&#45;&gt;Node5 -->
<g id="edge17" class="edge">
<title>Node12&#45;&gt;Node5</title>
<path fill="none" stroke="midnightblue" d="M351.28,-220.98C348.06,-222.68 344.94,-224.52 342,-226.5 298.87,-255.56 263.81,-307.74 248.23,-333.4"/>
<polygon fill="midnightblue" stroke="midnightblue" points="353.06,-224.01 360.59,-216.55 350.05,-217.69 353.06,-224.01"/>
</g>
<!-- Node14 -->
<g id="node14" class="node">
<title>Node14</title>
<g id="a_node14"><a xlink:href="../../d9/d00/class_p_s_interface_tool.html#aa26bf20d4e597f64df960e4c1a5c3a69" target="_top" xlink:title=" ">
<polygon fill="white" stroke="black" points="356.5,-148 356.5,-167 483.5,-167 483.5,-148 356.5,-148"/>
<text text-anchor="middle" x="420" y="-155" font-family="Helvetica,sans-Serif" font-size="10.00">PSInterfaceTool::execute</text>
</a>
</g>
</g>
<!-- Node13&#45;&gt;Node14 -->
<g id="edge19" class="edge">
<title>Node13&#45;&gt;Node14</title>
<path fill="none" stroke="midnightblue" d="M523.71,-157.5C510.23,-157.5 496.45,-157.5 483.54,-157.5"/>
<polygon fill="midnightblue" stroke="midnightblue" points="523.94,-161 533.94,-157.5 523.94,-154 523.94,-161"/>
</g>
<!-- Node16 -->
<g id="node16" class="node">
<title>Node16</title>
<g id="a_node16"><a xlink:href="../../da/dcb/class_freehand_add_final_point_callback.html#a4a889b08c802e7e81598b8dd8b5e3dad" target="_top" xlink:title="Overwritten callback method, which is executed when the left mouse button is pressed.">
<polygon fill="white" stroke="black" points="342,-98.5 342,-128.5 498,-128.5 498,-98.5 342,-98.5"/>
<text text-anchor="start" x="350" y="-116.5" font-family="Helvetica,sans-Serif" font-size="10.00">FreehandAddFinalPointCallback</text>
<text text-anchor="middle" x="420" y="-105.5" font-family="Helvetica,sans-Serif" font-size="10.00">::Execute</text>
</a>
</g>
</g>
<!-- Node15&#45;&gt;Node16 -->
<g id="edge21" class="edge">
<title>Node15&#45;&gt;Node16</title>
<path fill="none" stroke="midnightblue" d="M523.92,-100.15C515.32,-101.26 506.6,-102.4 498.06,-103.5"/>
<polygon fill="midnightblue" stroke="midnightblue" points="524.48,-103.61 533.94,-98.85 523.58,-96.66 524.48,-103.61"/>
</g>
<!-- Node17 -->
<g id="node17" class="node">
<title>Node17</title>
<g id="a_node17"><a xlink:href="../../d4/d58/class_polyline_add_final_point_callback.html#aebf2f4ff9236a12c598205822c2949a2" target="_top" xlink:title="Overwritten callback method, which is executed when the left mouse button is pressed for the first ti...">
<polygon fill="white" stroke="black" points="345,-49.5 345,-79.5 495,-79.5 495,-49.5 345,-49.5"/>
<text text-anchor="start" x="353" y="-67.5" font-family="Helvetica,sans-Serif" font-size="10.00">PolylineAddFinalPointCallback</text>
<text text-anchor="middle" x="420" y="-56.5" font-family="Helvetica,sans-Serif" font-size="10.00">::Execute</text>
</a>
</g>
</g>
<!-- Node15&#45;&gt;Node17 -->
<g id="edge22" class="edge">
<title>Node15&#45;&gt;Node17</title>
<path fill="none" stroke="midnightblue" d="M525.55,-78.63C515.49,-77.27 505.23,-75.88 495.27,-74.54"/>
<polygon fill="midnightblue" stroke="midnightblue" points="525.15,-82.11 535.53,-79.98 526.09,-75.17 525.15,-82.11"/>
</g>
<!-- Node18 -->
<g id="node18" class="node">
<title>Node18</title>
<g id="a_node18"><a xlink:href="../../d1/db5/class_lasso_interactor_style.html#a711994cec6c74643d2bc161ba73daacd" target="_top" xlink:title="Overwritten method, which is executed when the left mouse button is released.">
<polygon fill="white" stroke="black" points="366.5,-0.5 366.5,-30.5 473.5,-30.5 473.5,-0.5 366.5,-0.5"/>
<text text-anchor="start" x="374.5" y="-18.5" font-family="Helvetica,sans-Serif" font-size="10.00">LassoInteractorStyle</text>
<text text-anchor="middle" x="420" y="-7.5" font-family="Helvetica,sans-Serif" font-size="10.00">::OnLeftButtonUp</text>
</a>
</g>
</g>
<!-- Node15&#45;&gt;Node18 -->
<g id="edge23" class="edge">
<title>Node15&#45;&gt;Node18</title>
<path fill="none" stroke="midnightblue" d="M577.53,-75.53C555.97,-65.2 525.47,-51.15 498,-40.5 489.09,-37.04 479.48,-33.66 470.17,-30.55"/>
<polygon fill="midnightblue" stroke="midnightblue" points="576.24,-78.79 586.77,-79.98 579.28,-72.49 576.24,-78.79"/>
</g>
</g>
</svg>
