<?xml version="1.0" encoding="UTF-8" standalone="no"?>
<!DOCTYPE svg PUBLIC "-//W3C//DTD SVG 1.1//EN"
 "http://www.w3.org/Graphics/SVG/1.1/DTD/svg11.dtd">
<!-- Generated by graphviz version 2.44.0 (0)
 -->
<!-- Title: VoxelImageVisualizer::idx Pages: 1 -->
<svg width="1207pt" height="803pt"
 viewBox="0.00 0.00 1207.00 803.00" xmlns="http://www.w3.org/2000/svg" xmlns:xlink="http://www.w3.org/1999/xlink">
<g id="graph0" class="graph" transform="scale(1 1) rotate(0) translate(4 799)">
<title>VoxelImageVisualizer::idx</title>
<polygon fill="white" stroke="transparent" points="-4,4 -4,-799 1203,-799 1203,4 -4,4"/>
<!-- Node1 -->
<g id="node1" class="node">
<title>Node1</title>
<g id="a_node1"><a xlink:title="Compute 1D linearized index from 3D&#45;coodinate index.">
<polygon fill="#bfbfbf" stroke="black" points="1070,-326 1070,-345 1199,-345 1199,-326 1070,-326"/>
<text text-anchor="middle" x="1134.5" y="-333" font-family="Helvetica,sans-Serif" font-size="10.00">VoxelImageVisualizer::idx</text>
</a>
</g>
</g>
<!-- Node2 -->
<g id="node2" class="node">
<title>Node2</title>
<g id="a_node2"><a xlink:href="../../db/dae/class_voxel_image_visualizer.html#a9d6ddcce68efaea01bfacaa932f27d9a" target="_top" xlink:title="Return RGB color cube output visualization.">
<polygon fill="white" stroke="black" points="767.5,-456.5 767.5,-486.5 877.5,-486.5 877.5,-456.5 767.5,-456.5"/>
<text text-anchor="start" x="775.5" y="-474.5" font-family="Helvetica,sans-Serif" font-size="10.00">VoxelImageVisualizer</text>
<text text-anchor="middle" x="822.5" y="-463.5" font-family="Helvetica,sans-Serif" font-size="10.00">::getColorOutput</text>
</a>
</g>
</g>
<!-- Node1&#45;&gt;Node2 -->
<g id="edge1" class="edge">
<title>Node1&#45;&gt;Node2</title>
<path fill="none" stroke="midnightblue" d="M1113.96,-351.7C1094.65,-367.04 1063.77,-389.85 1034,-404.5 983.24,-429.47 921.09,-447.91 877.53,-459.05"/>
<polygon fill="midnightblue" stroke="midnightblue" points="1116.39,-354.23 1121.97,-345.23 1111.99,-348.79 1116.39,-354.23"/>
</g>
<!-- Node19 -->
<g id="node19" class="node">
<title>Node19</title>
<g id="a_node19"><a xlink:href="../../db/dae/class_voxel_image_visualizer.html#ae0b3cfe171e6bc92e7fb1b0718575660" target="_top" xlink:title="Return visualization with background color green, foreground red.">
<polygon fill="white" stroke="black" points="924,-227.5 924,-257.5 1034,-257.5 1034,-227.5 924,-227.5"/>
<text text-anchor="start" x="932" y="-245.5" font-family="Helvetica,sans-Serif" font-size="10.00">VoxelImageVisualizer</text>
<text text-anchor="middle" x="979" y="-234.5" font-family="Helvetica,sans-Serif" font-size="10.00">::getDebugOutput</text>
</a>
</g>
</g>
<!-- Node1&#45;&gt;Node19 -->
<g id="edge24" class="edge">
<title>Node1&#45;&gt;Node19</title>
<path fill="none" stroke="midnightblue" d="M1112.93,-319.52C1093.32,-304.71 1062.6,-282.58 1034,-266.5 1028.46,-263.38 1022.43,-260.37 1016.48,-257.59"/>
<polygon fill="midnightblue" stroke="midnightblue" points="1111.05,-322.49 1121.12,-325.77 1115.29,-316.92 1111.05,-322.49"/>
</g>
<!-- Node20 -->
<g id="node20" class="node">
<title>Node20</title>
<g id="a_node20"><a xlink:href="../../db/dae/class_voxel_image_visualizer.html#a00b60f629dcc3335bff26934e88b9bcb" target="_top" xlink:title="Return the occupation map visualization (unoccupied = yellow, occupied = blue)">
<polygon fill="white" stroke="black" points="765,-309.5 765,-339.5 880,-339.5 880,-309.5 765,-309.5"/>
<text text-anchor="start" x="773" y="-327.5" font-family="Helvetica,sans-Serif" font-size="10.00">VoxelImageVisualizer</text>
<text text-anchor="middle" x="822.5" y="-316.5" font-family="Helvetica,sans-Serif" font-size="10.00">::getOccupationOutput</text>
</a>
</g>
</g>
<!-- Node1&#45;&gt;Node20 -->
<g id="edge25" class="edge">
<title>Node1&#45;&gt;Node20</title>
<path fill="none" stroke="midnightblue" d="M1059.6,-332.88C1004.6,-330.93 930.63,-328.3 880.24,-326.51"/>
<polygon fill="midnightblue" stroke="midnightblue" points="1059.53,-336.38 1069.64,-333.23 1059.77,-329.38 1059.53,-336.38"/>
</g>
<!-- Node30 -->
<g id="node30" class="node">
<title>Node30</title>
<g id="a_node30"><a xlink:href="../../db/dae/class_voxel_image_visualizer.html#a0876df19a1eb477cfbd3e7e84c18c5af" target="_top" xlink:title="Return foreground voxel grid cells as vtkPolyData.">
<polygon fill="white" stroke="black" points="924,-276.5 924,-306.5 1034,-306.5 1034,-276.5 924,-276.5"/>
<text text-anchor="start" x="932" y="-294.5" font-family="Helvetica,sans-Serif" font-size="10.00">VoxelImageVisualizer</text>
<text text-anchor="middle" x="979" y="-283.5" font-family="Helvetica,sans-Serif" font-size="10.00">::getPolyDataOutput</text>
</a>
</g>
</g>
<!-- Node1&#45;&gt;Node30 -->
<g id="edge42" class="edge">
<title>Node1&#45;&gt;Node30</title>
<path fill="none" stroke="midnightblue" d="M1090.55,-323.19C1072.56,-318.03 1051.47,-311.99 1032.56,-306.57"/>
<polygon fill="midnightblue" stroke="midnightblue" points="1089.62,-326.56 1100.19,-325.95 1091.54,-319.83 1089.62,-326.56"/>
</g>
<!-- Node32 -->
<g id="node32" class="node">
<title>Node32</title>
<g id="a_node32"><a xlink:href="../../db/dae/class_voxel_image_visualizer.html#a5f41640feebb9f49204b777abb09fec2" target="_top" xlink:title="Return visualization with VOXEL_OUTSIDE = &quot;White&quot;, VOXEL_OCCUPIED = &quot;Red&quot;, VOXEL_SHELL = &quot;Yellow&quot;,...">
<polygon fill="white" stroke="black" points="757,-505.5 757,-535.5 888,-535.5 888,-505.5 757,-505.5"/>
<text text-anchor="start" x="765" y="-523.5" font-family="Helvetica,sans-Serif" font-size="10.00">VoxelImageVisualizer</text>
<text text-anchor="middle" x="822.5" y="-512.5" font-family="Helvetica,sans-Serif" font-size="10.00">::getShellAndInsideOutput</text>
</a>
</g>
</g>
<!-- Node1&#45;&gt;Node32 -->
<g id="edge45" class="edge">
<title>Node1&#45;&gt;Node32</title>
<path fill="none" stroke="midnightblue" d="M1120.45,-353.05C1102.96,-375.53 1069.92,-414.43 1034,-438.5 986.76,-470.16 925.5,-492.26 881.26,-505.48"/>
<polygon fill="midnightblue" stroke="midnightblue" points="1123.28,-355.12 1126.56,-345.05 1117.71,-350.87 1123.28,-355.12"/>
</g>
<!-- Node33 -->
<g id="node33" class="node">
<title>Node33</title>
<g id="a_node33"><a xlink:href="../../db/dae/class_voxel_image_visualizer.html#a266b4be6343bb49d53b4af2c9e7df310" target="_top" xlink:title=" ">
<polygon fill="white" stroke="black" points="924,-364.5 924,-394.5 1034,-394.5 1034,-364.5 924,-364.5"/>
<text text-anchor="start" x="932" y="-382.5" font-family="Helvetica,sans-Serif" font-size="10.00">VoxelImageVisualizer</text>
<text text-anchor="middle" x="979" y="-371.5" font-family="Helvetica,sans-Serif" font-size="10.00">::getShellOutput</text>
</a>
</g>
</g>
<!-- Node1&#45;&gt;Node33 -->
<g id="edge49" class="edge">
<title>Node1&#45;&gt;Node33</title>
<path fill="none" stroke="midnightblue" d="M1090.55,-347.81C1072.56,-352.97 1051.47,-359.01 1032.56,-364.43"/>
<polygon fill="midnightblue" stroke="midnightblue" points="1091.54,-351.17 1100.19,-345.05 1089.62,-344.44 1091.54,-351.17"/>
</g>
<!-- Node36 -->
<g id="node36" class="node">
<title>Node36</title>
<g id="a_node36"><a xlink:href="../../db/dae/class_voxel_image_visualizer.html#abc5621b24e8c8dffd133aa17d9b37730" target="_top" xlink:title=" ">
<polygon fill="white" stroke="black" points="924,-178.5 924,-208.5 1034,-208.5 1034,-178.5 924,-178.5"/>
<text text-anchor="start" x="932" y="-196.5" font-family="Helvetica,sans-Serif" font-size="10.00">VoxelImageVisualizer</text>
<text text-anchor="middle" x="979" y="-185.5" font-family="Helvetica,sans-Serif" font-size="10.00">::getVoxelActor</text>
</a>
</g>
</g>
<!-- Node1&#45;&gt;Node36 -->
<g id="edge55" class="edge">
<title>Node1&#45;&gt;Node36</title>
<path fill="none" stroke="midnightblue" d="M1122.1,-317.39C1105.43,-292.12 1072.19,-246.18 1034,-217.5 1029.57,-214.17 1024.61,-211.18 1019.53,-208.53"/>
<polygon fill="midnightblue" stroke="midnightblue" points="1119.29,-319.48 1127.66,-325.98 1125.17,-315.68 1119.29,-319.48"/>
</g>
<!-- Node3 -->
<g id="node3" class="node">
<title>Node3</title>
<g id="a_node3"><a xlink:href="../../d9/dc6/class_main_window.html#a15f9fa9fe71b50669ecf5f5a3a1ce90e" target="_top" xlink:title="Import STL / OBJ mesh into the scene.">
<polygon fill="white" stroke="black" points="567,-525 567,-544 688,-544 688,-525 567,-525"/>
<text text-anchor="middle" x="627.5" y="-532" font-family="Helvetica,sans-Serif" font-size="10.00">MainWindow::loadMesh</text>
</a>
</g>
</g>
<!-- Node2&#45;&gt;Node3 -->
<g id="edge2" class="edge">
<title>Node2&#45;&gt;Node3</title>
<path fill="none" stroke="midnightblue" d="M765.6,-489.75C730.39,-501.24 686.37,-515.61 657.86,-524.92"/>
<polygon fill="midnightblue" stroke="midnightblue" points="766.85,-493.02 775.27,-486.59 764.68,-486.37 766.85,-493.02"/>
</g>
<!-- Node13 -->
<g id="node13" class="node">
<title>Node13</title>
<g id="a_node13"><a xlink:href="../../d6/db5/class_scene.html#a266f98c6795eca4f5c03cba5761967d6" target="_top" xlink:title="Replace the actual mesh polydata with the polydata given as parameter.">
<polygon fill="white" stroke="black" points="554.5,-443 554.5,-462 700.5,-462 700.5,-443 554.5,-443"/>
<text text-anchor="middle" x="627.5" y="-450" font-family="Helvetica,sans-Serif" font-size="10.00">Scene::replaceMeshPolyData</text>
</a>
</g>
</g>
<!-- Node2&#45;&gt;Node13 -->
<g id="edge18" class="edge">
<title>Node2&#45;&gt;Node13</title>
<path fill="none" stroke="midnightblue" d="M757.29,-465.18C739.1,-463.39 719.18,-461.43 700.56,-459.59"/>
<polygon fill="midnightblue" stroke="midnightblue" points="757.19,-468.69 767.48,-466.18 757.87,-461.72 757.19,-468.69"/>
</g>
<!-- Node15 -->
<g id="node15" class="node">
<title>Node15</title>
<g id="a_node15"><a xlink:href="../../d6/db5/class_scene.html#a0955ff290776412f925da730a9f8058c" target="_top" xlink:title="Update the cuberille visualization after changes to the underlying voxel data.">
<polygon fill="white" stroke="black" points="554.5,-399 554.5,-418 700.5,-418 700.5,-399 554.5,-399"/>
<text text-anchor="middle" x="627.5" y="-406" font-family="Helvetica,sans-Serif" font-size="10.00">Scene::updateCuberilleActors</text>
</a>
</g>
</g>
<!-- Node2&#45;&gt;Node15 -->
<g id="edge20" class="edge">
<title>Node2&#45;&gt;Node15</title>
<path fill="none" stroke="midnightblue" d="M771.49,-452.97C766.59,-451.13 761.7,-449.29 757,-447.5 740.95,-441.4 737.31,-438.86 721,-433.5 703.62,-427.79 684.09,-422.37 667.48,-418.05"/>
<polygon fill="midnightblue" stroke="midnightblue" points="770.27,-456.26 780.87,-456.48 772.73,-449.7 770.27,-456.26"/>
</g>
<!-- Node4 -->
<g id="node4" class="node">
<title>Node4</title>
<g id="a_node4"><a xlink:href="../../d9/dc6/class_main_window.html#a6e3c9bc26115fb1b1664607e58716641" target="_top" xlink:title=" ">
<polygon fill="white" stroke="black" points="347,-481 347,-500 493,-500 493,-481 347,-481"/>
<text text-anchor="middle" x="420" y="-488" font-family="Helvetica,sans-Serif" font-size="10.00">MainWindow::slotImportMesh</text>
</a>
</g>
</g>
<!-- Node3&#45;&gt;Node4 -->
<g id="edge3" class="edge">
<title>Node3&#45;&gt;Node4</title>
<path fill="none" stroke="midnightblue" d="M571.89,-522.81C538.65,-515.69 496.72,-506.71 465.5,-500.03"/>
<polygon fill="midnightblue" stroke="midnightblue" points="571.4,-526.28 581.91,-524.95 572.86,-519.44 571.4,-526.28"/>
</g>
<!-- Node7 -->
<g id="node7" class="node">
<title>Node7</title>
<g id="a_node7"><a xlink:href="../../d9/dc6/class_main_window.html#a46bb2fea8ddeab75e15a223c291116b6" target="_top" xlink:title=" ">
<polygon fill="white" stroke="black" points="345.5,-764.5 345.5,-794.5 494.5,-794.5 494.5,-764.5 345.5,-764.5"/>
<text text-anchor="start" x="353.5" y="-782.5" font-family="Helvetica,sans-Serif" font-size="10.00">MainWindow::slotOptimization</text>
<text text-anchor="middle" x="420" y="-771.5" font-family="Helvetica,sans-Serif" font-size="10.00">BenchmarkBunnyLowPoly</text>
</a>
</g>
</g>
<!-- Node3&#45;&gt;Node7 -->
<g id="edge6" class="edge">
<title>Node3&#45;&gt;Node7</title>
<path fill="none" stroke="midnightblue" d="M620.63,-553.9C606.65,-596.79 567.27,-700.26 498,-755.5 493.73,-758.9 488.97,-761.83 483.98,-764.34"/>
<polygon fill="midnightblue" stroke="midnightblue" points="624.03,-554.73 623.7,-544.14 617.36,-552.63 624.03,-554.73"/>
</g>
<!-- Node8 -->
<g id="node8" class="node">
<title>Node8</title>
<g id="a_node8"><a xlink:href="../../d9/dc6/class_main_window.html#affed0fab82fd390e2762933c6dca9124" target="_top" xlink:title=" ">
<polygon fill="white" stroke="black" points="345.5,-715.5 345.5,-745.5 494.5,-745.5 494.5,-715.5 345.5,-715.5"/>
<text text-anchor="start" x="353.5" y="-733.5" font-family="Helvetica,sans-Serif" font-size="10.00">MainWindow::slotOptimization</text>
<text text-anchor="middle" x="420" y="-722.5" font-family="Helvetica,sans-Serif" font-size="10.00">BenchmarkCorona</text>
</a>
</g>
</g>
<!-- Node3&#45;&gt;Node8 -->
<g id="edge8" class="edge">
<title>Node3&#45;&gt;Node8</title>
<path fill="none" stroke="midnightblue" d="M617.39,-553.6C599.51,-589.05 556.44,-665.16 498,-706.5 493.2,-709.9 487.9,-712.82 482.4,-715.35"/>
<polygon fill="midnightblue" stroke="midnightblue" points="620.66,-554.88 621.94,-544.37 614.38,-551.79 620.66,-554.88"/>
</g>
<!-- Node9 -->
<g id="node9" class="node">
<title>Node9</title>
<g id="a_node9"><a xlink:href="../../d9/dc6/class_main_window.html#adfdb8fcb8685844e8ce11bfb41b83b7d" target="_top" xlink:title=" ">
<polygon fill="white" stroke="black" points="345.5,-666.5 345.5,-696.5 494.5,-696.5 494.5,-666.5 345.5,-666.5"/>
<text text-anchor="start" x="353.5" y="-684.5" font-family="Helvetica,sans-Serif" font-size="10.00">MainWindow::slotOptimization</text>
<text text-anchor="middle" x="420" y="-673.5" font-family="Helvetica,sans-Serif" font-size="10.00">BenchmarkCthulhu</text>
</a>
</g>
</g>
<!-- Node3&#45;&gt;Node9 -->
<g id="edge10" class="edge">
<title>Node3&#45;&gt;Node9</title>
<path fill="none" stroke="midnightblue" d="M612.77,-552.07C591.12,-578.61 546.52,-628.89 498,-657.5 492.21,-660.91 485.89,-663.89 479.43,-666.48"/>
<polygon fill="midnightblue" stroke="midnightblue" points="615.68,-554.03 619.2,-544.04 610.22,-549.65 615.68,-554.03"/>
</g>
<!-- Node10 -->
<g id="node10" class="node">
<title>Node10</title>
<g id="a_node10"><a xlink:href="../../d9/dc6/class_main_window.html#a5283a0d7aeeafd409c69b272053f3986" target="_top" xlink:title=" ">
<polygon fill="white" stroke="black" points="345.5,-617.5 345.5,-647.5 494.5,-647.5 494.5,-617.5 345.5,-617.5"/>
<text text-anchor="start" x="353.5" y="-635.5" font-family="Helvetica,sans-Serif" font-size="10.00">MainWindow::slotOptimization</text>
<text text-anchor="middle" x="420" y="-624.5" font-family="Helvetica,sans-Serif" font-size="10.00">BenchmarkCube</text>
</a>
</g>
</g>
<!-- Node3&#45;&gt;Node10 -->
<g id="edge12" class="edge">
<title>Node3&#45;&gt;Node10</title>
<path fill="none" stroke="midnightblue" d="M603.98,-549.52C578.93,-565.73 536.86,-591.5 498,-608.5 490.56,-611.75 482.54,-614.77 474.58,-617.48"/>
<polygon fill="midnightblue" stroke="midnightblue" points="605.94,-552.42 612.4,-544.01 602.11,-546.56 605.94,-552.42"/>
</g>
<!-- Node11 -->
<g id="node11" class="node">
<title>Node11</title>
<g id="a_node11"><a xlink:href="../../d9/dc6/class_main_window.html#a0c92ca2d04a79a1580c2e8e136b82682" target="_top" xlink:title=" ">
<polygon fill="white" stroke="black" points="345.5,-568.5 345.5,-598.5 494.5,-598.5 494.5,-568.5 345.5,-568.5"/>
<text text-anchor="start" x="353.5" y="-586.5" font-family="Helvetica,sans-Serif" font-size="10.00">MainWindow::slotOptimization</text>
<text text-anchor="middle" x="420" y="-575.5" font-family="Helvetica,sans-Serif" font-size="10.00">BenchmarkSphere</text>
</a>
</g>
</g>
<!-- Node3&#45;&gt;Node11 -->
<g id="edge14" class="edge">
<title>Node3&#45;&gt;Node11</title>
<path fill="none" stroke="midnightblue" d="M576.48,-546.43C548.65,-553.06 513.75,-561.39 484.06,-568.46"/>
<polygon fill="midnightblue" stroke="midnightblue" points="577.47,-549.79 586.39,-544.06 575.85,-542.98 577.47,-549.79"/>
</g>
<!-- Node12 -->
<g id="node12" class="node">
<title>Node12</title>
<g id="a_node12"><a xlink:href="../../d9/dc6/class_main_window.html#a86cd359f80311725589d0861dd7a9851" target="_top" xlink:title=" ">
<polygon fill="white" stroke="black" points="345.5,-519.5 345.5,-549.5 494.5,-549.5 494.5,-519.5 345.5,-519.5"/>
<text text-anchor="start" x="353.5" y="-537.5" font-family="Helvetica,sans-Serif" font-size="10.00">MainWindow::slotOptimization</text>
<text text-anchor="middle" x="420" y="-526.5" font-family="Helvetica,sans-Serif" font-size="10.00">BenchmarkUChannel</text>
</a>
</g>
</g>
<!-- Node3&#45;&gt;Node12 -->
<g id="edge16" class="edge">
<title>Node3&#45;&gt;Node12</title>
<path fill="none" stroke="midnightblue" d="M556.55,-534.5C536.63,-534.5 514.88,-534.5 494.74,-534.5"/>
<polygon fill="midnightblue" stroke="midnightblue" points="556.78,-538 566.78,-534.5 556.78,-531 556.78,-538"/>
</g>
<!-- Node5 -->
<g id="node5" class="node">
<title>Node5</title>
<g id="a_node5"><a xlink:href="../../d9/dc6/class_main_window.html#a33dddfc15db4053f9117728538e7ece4" target="_top" xlink:title="Set up qt specific signal and slots part for enabling user interaction.">
<polygon fill="white" stroke="black" points="171,-592.5 171,-622.5 306,-622.5 306,-592.5 171,-592.5"/>
<text text-anchor="start" x="179" y="-610.5" font-family="Helvetica,sans-Serif" font-size="10.00">MainWindow::setupSignals</text>
<text text-anchor="middle" x="238.5" y="-599.5" font-family="Helvetica,sans-Serif" font-size="10.00">AndSlots</text>
</a>
</g>
</g>
<!-- Node4&#45;&gt;Node5 -->
<g id="edge4" class="edge">
<title>Node4&#45;&gt;Node5</title>
<path fill="none" stroke="midnightblue" d="M357.62,-503.37C352.2,-505.42 346.91,-507.78 342,-510.5 303.64,-531.76 268.81,-570.71 251.33,-592.22"/>
<polygon fill="midnightblue" stroke="midnightblue" points="359.14,-506.55 367.49,-500.02 356.89,-499.93 359.14,-506.55"/>
</g>
<!-- Node6 -->
<g id="node6" class="node">
<title>Node6</title>
<g id="a_node6"><a xlink:href="../../d9/dc6/class_main_window.html#a996c5a2b6f77944776856f08ec30858d" target="_top" xlink:title=" ">
<polygon fill="white" stroke="black" points="0,-598 0,-617 135,-617 135,-598 0,-598"/>
<text text-anchor="middle" x="67.5" y="-605" font-family="Helvetica,sans-Serif" font-size="10.00">MainWindow::MainWindow</text>
</a>
</g>
</g>
<!-- Node5&#45;&gt;Node6 -->
<g id="edge5" class="edge">
<title>Node5&#45;&gt;Node6</title>
<path fill="none" stroke="midnightblue" d="M160.45,-607.5C151.98,-607.5 143.41,-607.5 135.08,-607.5"/>
<polygon fill="midnightblue" stroke="midnightblue" points="160.71,-611 170.71,-607.5 160.71,-604 160.71,-611"/>
</g>
<!-- Node7&#45;&gt;Node5 -->
<g id="edge7" class="edge">
<title>Node7&#45;&gt;Node5</title>
<path fill="none" stroke="midnightblue" d="M347.86,-759.41C345.84,-758.18 343.88,-756.88 342,-755.5 292.88,-719.42 259.12,-652.43 245.82,-622.56"/>
<polygon fill="midnightblue" stroke="midnightblue" points="346.61,-762.71 357.08,-764.34 349.91,-756.54 346.61,-762.71"/>
</g>
<!-- Node8&#45;&gt;Node5 -->
<g id="edge9" class="edge">
<title>Node8&#45;&gt;Node5</title>
<path fill="none" stroke="midnightblue" d="M350.83,-711.22C347.79,-709.75 344.83,-708.18 342,-706.5 303.91,-683.92 268.97,-644.51 251.4,-622.85"/>
<polygon fill="midnightblue" stroke="midnightblue" points="349.59,-714.5 360.15,-715.34 352.42,-708.1 349.59,-714.5"/>
</g>
<!-- Node9&#45;&gt;Node5 -->
<g id="edge11" class="edge">
<title>Node9&#45;&gt;Node5</title>
<path fill="none" stroke="midnightblue" d="M357,-663.08C351.89,-661.29 346.84,-659.42 342,-657.5 316.24,-647.27 288,-633.28 267.7,-622.69"/>
<polygon fill="midnightblue" stroke="midnightblue" points="356.26,-666.52 366.85,-666.43 358.51,-659.9 356.26,-666.52"/>
</g>
<!-- Node10&#45;&gt;Node5 -->
<g id="edge13" class="edge">
<title>Node10&#45;&gt;Node5</title>
<path fill="none" stroke="midnightblue" d="M335.36,-620.85C325.61,-619.49 315.76,-618.12 306.28,-616.8"/>
<polygon fill="midnightblue" stroke="midnightblue" points="335.09,-624.35 345.47,-622.26 336.05,-617.41 335.09,-624.35"/>
</g>
<!-- Node11&#45;&gt;Node5 -->
<g id="edge15" class="edge">
<title>Node11&#45;&gt;Node5</title>
<path fill="none" stroke="midnightblue" d="M335.36,-594.68C325.61,-595.99 315.76,-597.3 306.28,-598.57"/>
<polygon fill="midnightblue" stroke="midnightblue" points="336.02,-598.13 345.47,-593.33 335.1,-591.19 336.02,-598.13"/>
</g>
<!-- Node12&#45;&gt;Node5 -->
<g id="edge17" class="edge">
<title>Node12&#45;&gt;Node5</title>
<path fill="none" stroke="midnightblue" d="M359.86,-552.87C353.79,-555 347.75,-557.23 342,-559.5 316.96,-569.38 289.37,-582.44 269.12,-592.43"/>
<polygon fill="midnightblue" stroke="midnightblue" points="361.06,-556.16 369.38,-549.61 358.79,-549.54 361.06,-556.16"/>
</g>
<!-- Node14 -->
<g id="node14" class="node">
<title>Node14</title>
<g id="a_node14"><a xlink:href="../../d9/d00/class_p_s_interface_tool.html#aa26bf20d4e597f64df960e4c1a5c3a69" target="_top" xlink:title=" ">
<polygon fill="white" stroke="black" points="356.5,-443 356.5,-462 483.5,-462 483.5,-443 356.5,-443"/>
<text text-anchor="middle" x="420" y="-450" font-family="Helvetica,sans-Serif" font-size="10.00">PSInterfaceTool::execute</text>
</a>
</g>
</g>
<!-- Node13&#45;&gt;Node14 -->
<g id="edge19" class="edge">
<title>Node13&#45;&gt;Node14</title>
<path fill="none" stroke="midnightblue" d="M544.23,-452.5C524.08,-452.5 502.83,-452.5 483.76,-452.5"/>
<polygon fill="midnightblue" stroke="midnightblue" points="544.34,-456 554.34,-452.5 544.34,-449 544.34,-456"/>
</g>
<!-- Node16 -->
<g id="node16" class="node">
<title>Node16</title>
<g id="a_node16"><a xlink:href="../../da/dcb/class_freehand_add_final_point_callback.html#a4a889b08c802e7e81598b8dd8b5e3dad" target="_top" xlink:title="Overwritten callback method, which is executed when the left mouse button is pressed.">
<polygon fill="white" stroke="black" points="342,-393.5 342,-423.5 498,-423.5 498,-393.5 342,-393.5"/>
<text text-anchor="start" x="350" y="-411.5" font-family="Helvetica,sans-Serif" font-size="10.00">FreehandAddFinalPointCallback</text>
<text text-anchor="middle" x="420" y="-400.5" font-family="Helvetica,sans-Serif" font-size="10.00">::Execute</text>
</a>
</g>
</g>
<!-- Node15&#45;&gt;Node16 -->
<g id="edge21" class="edge">
<title>Node15&#45;&gt;Node16</title>
<path fill="none" stroke="midnightblue" d="M543.99,-408.5C528.89,-408.5 513.17,-408.5 498.23,-408.5"/>
<polygon fill="midnightblue" stroke="midnightblue" points="544.34,-412 554.34,-408.5 544.34,-405 544.34,-412"/>
</g>
<!-- Node17 -->
<g id="node17" class="node">
<title>Node17</title>
<g id="a_node17"><a xlink:href="../../d4/d58/class_polyline_add_final_point_callback.html#aebf2f4ff9236a12c598205822c2949a2" target="_top" xlink:title="Overwritten callback method, which is executed when the left mouse button is pressed for the first ti...">
<polygon fill="white" stroke="black" points="345,-344.5 345,-374.5 495,-374.5 495,-344.5 345,-344.5"/>
<text text-anchor="start" x="353" y="-362.5" font-family="Helvetica,sans-Serif" font-size="10.00">PolylineAddFinalPointCallback</text>
<text text-anchor="middle" x="420" y="-351.5" font-family="Helvetica,sans-Serif" font-size="10.00">::Execute</text>
</a>
</g>
</g>
<!-- Node15&#45;&gt;Node17 -->
<g id="edge22" class="edge">
<title>Node15&#45;&gt;Node17</title>
<path fill="none" stroke="midnightblue" d="M576.48,-396.57C548.65,-389.94 513.75,-381.61 484.06,-374.54"/>
<polygon fill="midnightblue" stroke="midnightblue" points="575.85,-400.02 586.39,-398.94 577.47,-393.21 575.85,-400.02"/>
</g>
<!-- Node18 -->
<g id="node18" class="node">
<title>Node18</title>
<g id="a_node18"><a xlink:href="../../d1/db5/class_lasso_interactor_style.html#a711994cec6c74643d2bc161ba73daacd" target="_top" xlink:title="Overwritten method, which is executed when the left mouse button is released.">
<polygon fill="white" stroke="black" points="366.5,-295.5 366.5,-325.5 473.5,-325.5 473.5,-295.5 366.5,-295.5"/>
<text text-anchor="start" x="374.5" y="-313.5" font-family="Helvetica,sans-Serif" font-size="10.00">LassoInteractorStyle</text>
<text text-anchor="middle" x="420" y="-302.5" font-family="Helvetica,sans-Serif" font-size="10.00">::OnLeftButtonUp</text>
</a>
</g>
</g>
<!-- Node15&#45;&gt;Node18 -->
<g id="edge23" class="edge">
<title>Node15&#45;&gt;Node18</title>
<path fill="none" stroke="midnightblue" d="M603.5,-393.53C578.35,-377.62 536.47,-352.46 498,-335.5 489.9,-331.93 481.12,-328.6 472.49,-325.61"/>
<polygon fill="midnightblue" stroke="midnightblue" points="601.66,-396.51 611.97,-398.94 605.43,-390.61 601.66,-396.51"/>
</g>
<!-- Node20&#45;&gt;Node3 -->
<g id="edge26" class="edge">
<title>Node20&#45;&gt;Node3</title>
<path fill="none" stroke="midnightblue" d="M761.29,-345.37C759.78,-346.67 758.34,-348.04 757,-349.5 718.71,-391.1 754.3,-425.82 721,-471.5 702.8,-496.46 671.53,-514.72 650.44,-524.97"/>
<polygon fill="midnightblue" stroke="midnightblue" points="763.34,-348.21 769.42,-339.54 759.26,-342.53 763.34,-348.21"/>
</g>
<!-- Node20&#45;&gt;Node13 -->
<g id="edge27" class="edge">
<title>Node20&#45;&gt;Node13</title>
<path fill="none" stroke="midnightblue" d="M762.32,-345.07C760.45,-346.46 758.67,-347.93 757,-349.5 729.17,-375.64 750.17,-402.87 721,-427.5 712.87,-434.37 703.02,-439.36 692.82,-443"/>
<polygon fill="midnightblue" stroke="midnightblue" points="764.41,-347.89 770.95,-339.55 760.64,-341.99 764.41,-347.89"/>
</g>
<!-- Node20&#45;&gt;Node15 -->
<g id="edge28" class="edge">
<title>Node20&#45;&gt;Node15</title>
<path fill="none" stroke="midnightblue" d="M771.82,-343.41C766.8,-345.42 761.79,-347.48 757,-349.5 718.11,-365.95 673.47,-386.93 648.37,-398.92"/>
<polygon fill="midnightblue" stroke="midnightblue" points="773.43,-346.53 781.44,-339.59 770.85,-340.03 773.43,-346.53"/>
</g>
<!-- Node21 -->
<g id="node21" class="node">
<title>Node21</title>
<g id="a_node21"><a xlink:href="../../d6/db5/class_scene.html#a415555bc0037489b1a9421747c318746" target="_top" xlink:title="Update the occupation map visualization after changes to the underlying voxel data.">
<polygon fill="white" stroke="black" points="553.5,-295.5 553.5,-325.5 701.5,-325.5 701.5,-295.5 553.5,-295.5"/>
<text text-anchor="start" x="561.5" y="-313.5" font-family="Helvetica,sans-Serif" font-size="10.00">Scene::updateOccupationMap</text>
<text text-anchor="middle" x="627.5" y="-302.5" font-family="Helvetica,sans-Serif" font-size="10.00">Actor</text>
</a>
</g>
</g>
<!-- Node20&#45;&gt;Node21 -->
<g id="edge29" class="edge">
<title>Node20&#45;&gt;Node21</title>
<path fill="none" stroke="midnightblue" d="M754.47,-319.64C737.4,-318.4 718.98,-317.06 701.63,-315.8"/>
<polygon fill="midnightblue" stroke="midnightblue" points="754.67,-323.16 764.9,-320.39 755.18,-316.18 754.67,-323.16"/>
</g>
<!-- Node21&#45;&gt;Node14 -->
<g id="edge32" class="edge">
<title>Node21&#45;&gt;Node14</title>
<path fill="none" stroke="midnightblue" d="M598.86,-331.94C579.86,-347.19 554.46,-368.6 534,-389.5 516.32,-407.55 519.36,-420 498,-433.5 491.83,-437.4 484.92,-440.5 477.83,-442.96"/>
<polygon fill="midnightblue" stroke="midnightblue" points="601.19,-334.56 606.84,-325.6 596.84,-329.08 601.19,-334.56"/>
</g>
<!-- Node21&#45;&gt;Node16 -->
<g id="edge33" class="edge">
<title>Node21&#45;&gt;Node16</title>
<path fill="none" stroke="midnightblue" d="M595.15,-331.17C569.74,-347.28 532.6,-369.37 498,-384.5 490.56,-387.75 482.54,-390.77 474.58,-393.48"/>
<polygon fill="midnightblue" stroke="midnightblue" points="597.09,-334.09 603.63,-325.75 593.32,-328.19 597.09,-334.09"/>
</g>
<!-- Node21&#45;&gt;Node17 -->
<g id="edge34" class="edge">
<title>Node21&#45;&gt;Node17</title>
<path fill="none" stroke="midnightblue" d="M553.51,-327.9C530.78,-333.32 505.92,-339.25 483.93,-344.49"/>
<polygon fill="midnightblue" stroke="midnightblue" points="554.53,-331.26 563.45,-325.53 552.91,-324.45 554.53,-331.26"/>
</g>
<!-- Node21&#45;&gt;Node18 -->
<g id="edge35" class="edge">
<title>Node21&#45;&gt;Node18</title>
<path fill="none" stroke="midnightblue" d="M543.17,-310.5C519.73,-310.5 494.9,-310.5 473.78,-310.5"/>
<polygon fill="midnightblue" stroke="midnightblue" points="543.47,-314 553.47,-310.5 543.47,-307 543.47,-314"/>
</g>
<!-- Node22 -->
<g id="node22" class="node">
<title>Node22</title>
<g id="a_node22"><a xlink:href="../../d1/da7/class_place_ground_plane8_connectors_tool.html#ac6f514739682b173fadccf10f5bc9aab" target="_top" xlink:title=" ">
<polygon fill="white" stroke="black" points="343.5,-246.5 343.5,-276.5 496.5,-276.5 496.5,-246.5 343.5,-246.5"/>
<text text-anchor="start" x="351.5" y="-264.5" font-family="Helvetica,sans-Serif" font-size="10.00">PlaceGroundPlane8Connectors</text>
<text text-anchor="middle" x="420" y="-253.5" font-family="Helvetica,sans-Serif" font-size="10.00">Tool::execute</text>
</a>
</g>
</g>
<!-- Node21&#45;&gt;Node22 -->
<g id="edge30" class="edge">
<title>Node21&#45;&gt;Node22</title>
<path fill="none" stroke="midnightblue" d="M553.51,-293.1C530.78,-287.68 505.92,-281.75 483.93,-276.51"/>
<polygon fill="midnightblue" stroke="midnightblue" points="552.91,-296.55 563.45,-295.47 554.53,-289.74 552.91,-296.55"/>
</g>
<!-- Node23 -->
<g id="node23" class="node">
<title>Node23</title>
<g id="a_node23"><a xlink:href="../../dc/db2/class_place_ground_plane4_connectors_tool.html#a7ae289774f2b51d2daba1215effc4311" target="_top" xlink:title=" ">
<polygon fill="white" stroke="black" points="343.5,-197.5 343.5,-227.5 496.5,-227.5 496.5,-197.5 343.5,-197.5"/>
<text text-anchor="start" x="351.5" y="-215.5" font-family="Helvetica,sans-Serif" font-size="10.00">PlaceGroundPlane4Connectors</text>
<text text-anchor="middle" x="420" y="-204.5" font-family="Helvetica,sans-Serif" font-size="10.00">Tool::execute</text>
</a>
</g>
</g>
<!-- Node21&#45;&gt;Node23 -->
<g id="edge31" class="edge">
<title>Node21&#45;&gt;Node23</title>
<path fill="none" stroke="midnightblue" d="M595.15,-289.83C569.74,-273.72 532.6,-251.63 498,-236.5 490.56,-233.25 482.54,-230.23 474.58,-227.52"/>
<polygon fill="midnightblue" stroke="midnightblue" points="593.32,-292.81 603.63,-295.25 597.09,-286.91 593.32,-292.81"/>
</g>
<!-- Node24 -->
<g id="node24" class="node">
<title>Node24</title>
<g id="a_node24"><a xlink:href="../../db/dbb/class_picking_interactor_style.html#a1620702107e2c2d0c0aefbd896098b0d" target="_top" xlink:title="Overloaded method, invoked when right mouse button is pressed.">
<polygon fill="white" stroke="black" points="363.5,-148.5 363.5,-178.5 476.5,-178.5 476.5,-148.5 363.5,-148.5"/>
<text text-anchor="start" x="371.5" y="-166.5" font-family="Helvetica,sans-Serif" font-size="10.00">PickingInteractorStyle</text>
<text text-anchor="middle" x="420" y="-155.5" font-family="Helvetica,sans-Serif" font-size="10.00">::OnRightButtonDown</text>
</a>
</g>
</g>
<!-- Node21&#45;&gt;Node24 -->
<g id="edge36" class="edge">
<title>Node21&#45;&gt;Node24</title>
<path fill="none" stroke="midnightblue" d="M608.2,-287.39C585.23,-259.86 543.32,-214.23 498,-187.5 491.37,-183.59 484.03,-180.25 476.6,-177.42"/>
<polygon fill="midnightblue" stroke="midnightblue" points="605.65,-289.81 614.7,-295.32 611.06,-285.37 605.65,-289.81"/>
</g>
<!-- Node25 -->
<g id="node25" class="node">
<title>Node25</title>
<g id="a_node25"><a xlink:href="../../d6/db5/class_scene.html#af1128c48ccb6999066aa1d935075cb23" target="_top" xlink:title="Remove a touchpoint from the scene given its unique touchpoint id.">
<polygon fill="white" stroke="black" points="355,-72 355,-91 485,-91 485,-72 355,-72"/>
<text text-anchor="middle" x="420" y="-79" font-family="Helvetica,sans-Serif" font-size="10.00">Scene::removeTouchpoint</text>
</a>
</g>
</g>
<!-- Node21&#45;&gt;Node25 -->
<g id="edge37" class="edge">
<title>Node21&#45;&gt;Node25</title>
<path fill="none" stroke="midnightblue" d="M601.64,-288.22C581.64,-269.41 553.73,-241.05 534,-212.5 513.21,-182.41 521.37,-166.63 498,-138.5 481.1,-118.16 455.49,-101.1 438.51,-91.09"/>
<polygon fill="midnightblue" stroke="midnightblue" points="599.43,-290.95 609.14,-295.18 604.19,-285.82 599.43,-290.95"/>
</g>
<!-- Node26 -->
<g id="node26" class="node">
<title>Node26</title>
<g id="a_node26"><a xlink:href="../../d1/d4e/class_place_touchpoint_tool.html#aa565ccff15d4591dc9c6dee73adfe6e8" target="_top" xlink:title=" ">
<polygon fill="white" stroke="black" points="185,-0.5 185,-30.5 292,-30.5 292,-0.5 185,-0.5"/>
<text text-anchor="start" x="193" y="-18.5" font-family="Helvetica,sans-Serif" font-size="10.00">PlaceTouchpointTool</text>
<text text-anchor="middle" x="238.5" y="-7.5" font-family="Helvetica,sans-Serif" font-size="10.00">::undo</text>
</a>
</g>
</g>
<!-- Node25&#45;&gt;Node26 -->
<g id="edge38" class="edge">
<title>Node25&#45;&gt;Node26</title>
<path fill="none" stroke="midnightblue" d="M383.37,-68.4C353.77,-57.51 311.61,-42.02 280.59,-30.61"/>
<polygon fill="midnightblue" stroke="midnightblue" points="382.31,-71.74 392.9,-71.9 384.72,-65.17 382.31,-71.74"/>
</g>
<!-- Node27 -->
<g id="node27" class="node">
<title>Node27</title>
<g id="a_node27"><a xlink:href="../../de/dd7/class_polyline_touchpoint_tool.html#a9ee474813d977ff7b9877372035a319c" target="_top" xlink:title=" ">
<polygon fill="white" stroke="black" points="180.5,-137.5 180.5,-167.5 296.5,-167.5 296.5,-137.5 180.5,-137.5"/>
<text text-anchor="start" x="188.5" y="-155.5" font-family="Helvetica,sans-Serif" font-size="10.00">PolylineTouchpointTool</text>
<text text-anchor="middle" x="238.5" y="-144.5" font-family="Helvetica,sans-Serif" font-size="10.00">::undo</text>
</a>
</g>
</g>
<!-- Node25&#45;&gt;Node27 -->
<g id="edge39" class="edge">
<title>Node25&#45;&gt;Node27</title>
<path fill="none" stroke="midnightblue" d="M372.31,-94.03C362.14,-97.31 351.57,-101.17 342,-105.5 324.92,-113.24 322.85,-119.28 306,-127.5 298.8,-131.02 290.96,-134.36 283.28,-137.39"/>
<polygon fill="midnightblue" stroke="midnightblue" points="373.37,-97.36 381.89,-91.05 371.3,-90.67 373.37,-97.36"/>
</g>
<!-- Node28 -->
<g id="node28" class="node">
<title>Node28</title>
<g id="a_node28"><a xlink:href="../../de/de0/class_freehand_touchpoint_tool.html#a8c241ab6ea3d7ced711c84036836e885" target="_top" xlink:title=" ">
<polygon fill="white" stroke="black" points="177.5,-88.5 177.5,-118.5 299.5,-118.5 299.5,-88.5 177.5,-88.5"/>
<text text-anchor="start" x="185.5" y="-106.5" font-family="Helvetica,sans-Serif" font-size="10.00">FreehandTouchpointTool</text>
<text text-anchor="middle" x="238.5" y="-95.5" font-family="Helvetica,sans-Serif" font-size="10.00">::undo</text>
</a>
</g>
</g>
<!-- Node25&#45;&gt;Node28 -->
<g id="edge40" class="edge">
<title>Node25&#45;&gt;Node28</title>
<path fill="none" stroke="midnightblue" d="M344.68,-90.61C329.67,-92.45 314.07,-94.36 299.62,-96.13"/>
<polygon fill="midnightblue" stroke="midnightblue" points="345.46,-94.04 354.96,-89.35 344.61,-87.09 345.46,-94.04"/>
</g>
<!-- Node29 -->
<g id="node29" class="node">
<title>Node29</title>
<g id="a_node29"><a xlink:href="../../dd/d4a/class_lasso_tool.html#ad4e65963efd59e0802ecb4fbd8d8b288" target="_top" xlink:title=" ">
<polygon fill="white" stroke="black" points="194.5,-50 194.5,-69 282.5,-69 282.5,-50 194.5,-50"/>
<text text-anchor="middle" x="238.5" y="-57" font-family="Helvetica,sans-Serif" font-size="10.00">LassoTool::undo</text>
</a>
</g>
</g>
<!-- Node25&#45;&gt;Node29 -->
<g id="edge41" class="edge">
<title>Node25&#45;&gt;Node29</title>
<path fill="none" stroke="midnightblue" d="M345,-72.43C323.8,-69.83 301.4,-67.09 282.72,-64.8"/>
<polygon fill="midnightblue" stroke="midnightblue" points="344.61,-75.91 354.96,-73.65 345.46,-68.96 344.61,-75.91"/>
</g>
<!-- Node31 -->
<g id="node31" class="node">
<title>Node31</title>
<g id="a_node31"><a xlink:href="../../d9/dc6/class_main_window.html#adb56e27c5e383155fa30d30b7cf5acef" target="_top" xlink:title=" ">
<polygon fill="white" stroke="black" points="534,-184 534,-203 721,-203 721,-184 534,-184"/>
<text text-anchor="middle" x="627.5" y="-191" font-family="Helvetica,sans-Serif" font-size="10.00">MainWindow::slotExportVoxelgridMesh</text>
</a>
</g>
</g>
<!-- Node30&#45;&gt;Node31 -->
<g id="edge43" class="edge">
<title>Node30&#45;&gt;Node31</title>
<path fill="none" stroke="midnightblue" d="M914.48,-273.69C840.55,-252.96 721.16,-219.48 662.81,-203.12"/>
<polygon fill="midnightblue" stroke="midnightblue" points="913.58,-277.07 924.16,-276.4 915.47,-270.33 913.58,-277.07"/>
</g>
<!-- Node31&#45;&gt;Node5 -->
<g id="edge44" class="edge">
<title>Node31&#45;&gt;Node5</title>
<path fill="none" stroke="midnightblue" d="M603.97,-178.39C551.76,-145.44 420.92,-74.96 342,-138.5 268.64,-197.56 244.92,-517.86 240.37,-592.12"/>
<polygon fill="midnightblue" stroke="midnightblue" points="602.2,-181.41 612.5,-183.89 605.99,-175.53 602.2,-181.41"/>
</g>
<!-- Node32&#45;&gt;Node3 -->
<g id="edge46" class="edge">
<title>Node32&#45;&gt;Node3</title>
<path fill="none" stroke="midnightblue" d="M746.91,-525.91C727.42,-527.32 706.68,-528.83 688.09,-530.18"/>
<polygon fill="midnightblue" stroke="midnightblue" points="747.24,-529.4 756.97,-525.18 746.74,-522.41 747.24,-529.4"/>
</g>
<!-- Node32&#45;&gt;Node13 -->
<g id="edge47" class="edge">
<title>Node32&#45;&gt;Node13</title>
<path fill="none" stroke="midnightblue" d="M769.13,-502.05C732.51,-489.15 685.09,-472.44 655.74,-462.1"/>
<polygon fill="midnightblue" stroke="midnightblue" points="768.07,-505.39 778.67,-505.41 770.4,-498.78 768.07,-505.39"/>
</g>
<!-- Node32&#45;&gt;Node15 -->
<g id="edge48" class="edge">
<title>Node32&#45;&gt;Node15</title>
<path fill="none" stroke="midnightblue" d="M761.72,-500.14C760.08,-498.99 758.5,-497.78 757,-496.5 732.42,-475.63 746.52,-453.22 721,-433.5 712.18,-426.69 701.64,-421.73 690.89,-418.12"/>
<polygon fill="midnightblue" stroke="midnightblue" points="759.95,-503.16 770.31,-505.38 763.6,-497.18 759.95,-503.16"/>
</g>
<!-- Node34 -->
<g id="node34" class="node">
<title>Node34</title>
<g id="a_node34"><a xlink:href="../../db/dae/class_voxel_image_visualizer.html#a279e821afcfbef7cb624c391eec3b7a4" target="_top" xlink:title="Return visualization of the mesh interior only.">
<polygon fill="white" stroke="black" points="767.5,-407.5 767.5,-437.5 877.5,-437.5 877.5,-407.5 767.5,-407.5"/>
<text text-anchor="start" x="775.5" y="-425.5" font-family="Helvetica,sans-Serif" font-size="10.00">VoxelImageVisualizer</text>
<text text-anchor="middle" x="822.5" y="-414.5" font-family="Helvetica,sans-Serif" font-size="10.00">::getInteriorOutput</text>
</a>
</g>
</g>
<!-- Node33&#45;&gt;Node34 -->
<g id="edge50" class="edge">
<title>Node33&#45;&gt;Node34</title>
<path fill="none" stroke="midnightblue" d="M914.29,-397.23C902.07,-400.63 889.38,-404.16 877.51,-407.47"/>
<polygon fill="midnightblue" stroke="midnightblue" points="915.27,-400.59 923.96,-394.54 913.39,-393.85 915.27,-400.59"/>
</g>
<!-- Node35 -->
<g id="node35" class="node">
<title>Node35</title>
<g id="a_node35"><a xlink:href="../../db/dae/class_voxel_image_visualizer.html#ad15f9c4638d8e8671414bebdee17a8f3" target="_top" xlink:title="Return visualization of the mesh surface only.">
<polygon fill="white" stroke="black" points="767,-358.5 767,-388.5 878,-388.5 878,-358.5 767,-358.5"/>
<text text-anchor="start" x="775" y="-376.5" font-family="Helvetica,sans-Serif" font-size="10.00">VoxelImageVisualizer</text>
<text text-anchor="middle" x="822.5" y="-365.5" font-family="Helvetica,sans-Serif" font-size="10.00">::getOuterShellOutput</text>
</a>
</g>
</g>
<!-- Node33&#45;&gt;Node35 -->
<g id="edge54" class="edge">
<title>Node33&#45;&gt;Node35</title>
<path fill="none" stroke="midnightblue" d="M913.68,-377C901.83,-376.54 889.56,-376.07 878.03,-375.62"/>
<polygon fill="midnightblue" stroke="midnightblue" points="913.84,-380.51 923.96,-377.4 914.11,-373.52 913.84,-380.51"/>
</g>
<!-- Node34&#45;&gt;Node3 -->
<g id="edge51" class="edge">
<title>Node34&#45;&gt;Node3</title>
<path fill="none" stroke="midnightblue" d="M769.29,-441.56C765.08,-443.45 760.94,-445.44 757,-447.5 753.99,-449.08 675.72,-502.33 642.84,-524.73"/>
<polygon fill="midnightblue" stroke="midnightblue" points="770.76,-444.74 778.57,-437.58 768,-438.31 770.76,-444.74"/>
</g>
<!-- Node34&#45;&gt;Node13 -->
<g id="edge52" class="edge">
<title>Node34&#45;&gt;Node13</title>
<path fill="none" stroke="midnightblue" d="M757.33,-432.47C735.52,-435.87 711.22,-439.64 689.65,-443"/>
<polygon fill="midnightblue" stroke="midnightblue" points="758.14,-435.89 767.48,-430.9 757.06,-428.97 758.14,-435.89"/>
</g>
<!-- Node34&#45;&gt;Node15 -->
<g id="edge53" class="edge">
<title>Node34&#45;&gt;Node15</title>
<path fill="none" stroke="midnightblue" d="M757.29,-417.84C739.1,-416.52 719.18,-415.08 700.56,-413.73"/>
<polygon fill="midnightblue" stroke="midnightblue" points="757.26,-421.35 767.48,-418.58 757.76,-414.37 757.26,-421.35"/>
</g>
<!-- Node37 -->
<g id="node37" class="node">
<title>Node37</title>
<g id="a_node37"><a xlink:href="../../db/dae/class_voxel_image_visualizer.html#a832d4efbe743573453e2ee744e92ece6" target="_top" xlink:title="Return background color cells visualization.">
<polygon fill="white" stroke="black" points="767.5,-185.5 767.5,-215.5 877.5,-215.5 877.5,-185.5 767.5,-185.5"/>
<text text-anchor="start" x="775.5" y="-203.5" font-family="Helvetica,sans-Serif" font-size="10.00">VoxelImageVisualizer</text>
<text text-anchor="middle" x="822.5" y="-192.5" font-family="Helvetica,sans-Serif" font-size="10.00">::getInverseOutput</text>
</a>
</g>
</g>
<!-- Node36&#45;&gt;Node37 -->
<g id="edge56" class="edge">
<title>Node36&#45;&gt;Node37</title>
<path fill="none" stroke="midnightblue" d="M913.93,-196.4C901.82,-196.95 889.27,-197.52 877.51,-198.05"/>
<polygon fill="midnightblue" stroke="midnightblue" points="914.13,-199.9 923.96,-195.95 913.82,-192.9 914.13,-199.9"/>
</g>
<!-- Node38 -->
<g id="node38" class="node">
<title>Node38</title>
<g id="a_node38"><a xlink:href="../../db/dae/class_voxel_image_visualizer.html#a8021df5f7e97d1d5f85c4ffdba400c65" target="_top" xlink:title="Return foreground color cells visualization.">
<polygon fill="white" stroke="black" points="767.5,-136.5 767.5,-166.5 877.5,-166.5 877.5,-136.5 767.5,-136.5"/>
<text text-anchor="start" x="775.5" y="-154.5" font-family="Helvetica,sans-Serif" font-size="10.00">VoxelImageVisualizer</text>
<text text-anchor="middle" x="822.5" y="-143.5" font-family="Helvetica,sans-Serif" font-size="10.00">::getOutput</text>
</a>
</g>
</g>
<!-- Node36&#45;&gt;Node38 -->
<g id="edge57" class="edge">
<title>Node36&#45;&gt;Node38</title>
<path fill="none" stroke="midnightblue" d="M914.29,-176.18C902.07,-172.86 889.38,-169.41 877.51,-166.18"/>
<polygon fill="midnightblue" stroke="midnightblue" points="913.4,-179.56 923.96,-178.81 915.23,-172.81 913.4,-179.56"/>
</g>
</g>
</svg>
