<?xml version="1.0" encoding="UTF-8" standalone="no"?>
<!DOCTYPE svg PUBLIC "-//W3C//DTD SVG 1.1//EN"
 "http://www.w3.org/Graphics/SVG/1.1/DTD/svg11.dtd">
<!-- Generated by graphviz version 2.44.1 (0)
 -->
<!-- Title: VoxelImageVisualizer::getOuterShellOutput Pages: 1 -->
<svg width="430pt" height="78pt"
 viewBox="0.00 0.00 430.00 77.50" xmlns="http://www.w3.org/2000/svg" xmlns:xlink="http://www.w3.org/1999/xlink">
<g id="graph0" class="graph" transform="scale(1 1) rotate(0) translate(4 73.5)">
<title>VoxelImageVisualizer::getOuterShellOutput</title>
<polygon fill="white" stroke="transparent" points="-4,4 -4,-73.5 426,-73.5 426,4 -4,4"/>
<!-- Node1 -->
<g id="node1" class="node">
<title>Node1</title>
<g id="a_node1"><a xlink:title="Return visualization of the mesh surface only.">
<polygon fill="#bfbfbf" stroke="black" points="0,-17 0,-47 111,-47 111,-17 0,-17"/>
<text text-anchor="start" x="8" y="-35" font-family="Helvetica,sans-Serif" font-size="10.00">VoxelImageVisualizer</text>
<text text-anchor="middle" x="55.5" y="-24" font-family="Helvetica,sans-Serif" font-size="10.00">::getOuterShellOutput</text>
</a>
</g>
</g>
<!-- Node2 -->
<g id="node2" class="node">
<title>Node2</title>
<g id="a_node2"><a xlink:href="../../db/dae/class_voxel_image_visualizer.html#a266b4be6343bb49d53b4af2c9e7df310" target="_top" xlink:title=" ">
<polygon fill="white" stroke="black" points="147,-17 147,-47 257,-47 257,-17 147,-17"/>
<text text-anchor="start" x="155" y="-35" font-family="Helvetica,sans-Serif" font-size="10.00">VoxelImageVisualizer</text>
<text text-anchor="middle" x="202" y="-24" font-family="Helvetica,sans-Serif" font-size="10.00">::getShellOutput</text>
</a>
</g>
</g>
<!-- Node1&#45;&gt;Node2 -->
<g id="edge1" class="edge">
<title>Node1&#45;&gt;Node2</title>
<path fill="none" stroke="midnightblue" d="M111.13,-32C119.42,-32 128.05,-32 136.53,-32"/>
<polygon fill="midnightblue" stroke="midnightblue" points="136.77,-35.5 146.77,-32 136.77,-28.5 136.77,-35.5"/>
</g>
<!-- Node3 -->
<g id="node3" class="node">
<title>Node3</title>
<g id="a_node3"><a xlink:href="../../db/dae/class_voxel_image_visualizer.html#a381e70e9dba0cad1fddf946aa7f4a408" target="_top" xlink:title="Compute scaling factor for visualization actor.">
<polygon fill="white" stroke="black" points="302.5,-39 302.5,-69 412.5,-69 412.5,-39 302.5,-39"/>
<text text-anchor="start" x="310.5" y="-57" font-family="Helvetica,sans-Serif" font-size="10.00">VoxelImageVisualizer</text>
<text text-anchor="middle" x="357.5" y="-46" font-family="Helvetica,sans-Serif" font-size="10.00">::getScaleValue</text>
</a>
</g>
</g>
<!-- Node2&#45;&gt;Node3 -->
<g id="edge2" class="edge">
<title>Node2&#45;&gt;Node3</title>
<path fill="none" stroke="midnightblue" d="M257.12,-39.76C268.47,-41.38 280.54,-43.11 292.22,-44.79"/>
<polygon fill="midnightblue" stroke="midnightblue" points="291.96,-48.29 302.35,-46.24 292.95,-41.36 291.96,-48.29"/>
</g>
<!-- Node4 -->
<g id="node4" class="node">
<title>Node4</title>
<g id="a_node4"><a xlink:href="../../db/dae/class_voxel_image_visualizer.html#a2cf2e268d83ea28ea097a557b4e66fcd" target="_top" xlink:title="Compute 1D linearized index from 3D&#45;coodinate index.">
<polygon fill="white" stroke="black" points="293,-0.5 293,-19.5 422,-19.5 422,-0.5 293,-0.5"/>
<text text-anchor="middle" x="357.5" y="-7.5" font-family="Helvetica,sans-Serif" font-size="10.00">VoxelImageVisualizer::idx</text>
</a>
</g>
</g>
<!-- Node2&#45;&gt;Node4 -->
<g id="edge3" class="edge">
<title>Node2&#45;&gt;Node4</title>
<path fill="none" stroke="midnightblue" d="M257.12,-24.24C265.43,-23.05 274.13,-21.8 282.78,-20.57"/>
<polygon fill="midnightblue" stroke="midnightblue" points="283.49,-24 292.89,-19.12 282.49,-17.07 283.49,-24"/>
</g>
</g>
</svg>
