<?xml version="1.0" encoding="UTF-8" standalone="no"?>
<!DOCTYPE svg PUBLIC "-//W3C//DTD SVG 1.1//EN"
 "http://www.w3.org/Graphics/SVG/1.1/DTD/svg11.dtd">
<!-- Generated by graphviz version 2.44.1 (0)
 -->
<!-- Title: VoxelImageVisualizer::idx Pages: 1 -->
<svg width="1207pt" height="654pt"
 viewBox="0.00 0.00 1207.00 654.23" xmlns="http://www.w3.org/2000/svg" xmlns:xlink="http://www.w3.org/1999/xlink">
<g id="graph0" class="graph" transform="scale(1 1) rotate(0) translate(4 650.23)">
<title>VoxelImageVisualizer::idx</title>
<polygon fill="white" stroke="transparent" points="-4,4 -4,-650.23 1203,-650.23 1203,4 -4,4"/>
<!-- Node1 -->
<g id="node1" class="node">
<title>Node1</title>
<g id="a_node1"><a xlink:title="Compute 1D linearized index from 3D&#45;coodinate index.">
<polygon fill="#bfbfbf" stroke="black" points="1070,-273.23 1070,-292.23 1199,-292.23 1199,-273.23 1070,-273.23"/>
<text text-anchor="middle" x="1134.5" y="-280.23" font-family="Helvetica,sans-Serif" font-size="10.00">VoxelImageVisualizer::idx</text>
</a>
</g>
</g>
<!-- Node2 -->
<g id="node2" class="node">
<title>Node2</title>
<g id="a_node2"><a xlink:href="../../db/dae/class_voxel_image_visualizer.html#a9d6ddcce68efaea01bfacaa932f27d9a" target="_top" xlink:title="Return RGB color cube output visualization.">
<polygon fill="white" stroke="black" points="767.5,-218.73 767.5,-248.73 877.5,-248.73 877.5,-218.73 767.5,-218.73"/>
<text text-anchor="start" x="775.5" y="-236.73" font-family="Helvetica,sans-Serif" font-size="10.00">VoxelImageVisualizer</text>
<text text-anchor="middle" x="822.5" y="-225.73" font-family="Helvetica,sans-Serif" font-size="10.00">::getColorOutput</text>
</a>
</g>
</g>
<!-- Node1&#45;&gt;Node2 -->
<g id="edge1" class="edge">
<title>Node1&#45;&gt;Node2</title>
<path fill="none" stroke="midnightblue" d="M1090.26,-270.54C1072.89,-265.99 1052.6,-261.11 1034,-257.73 981.35,-248.16 920.55,-241.72 877.87,-237.94"/>
<polygon fill="midnightblue" stroke="midnightblue" points="1089.56,-273.97 1100.12,-273.17 1091.36,-267.21 1089.56,-273.97"/>
</g>
<!-- Node19 -->
<g id="node19" class="node">
<title>Node19</title>
<g id="a_node19"><a xlink:href="../../db/dae/class_voxel_image_visualizer.html#ae0b3cfe171e6bc92e7fb1b0718575660" target="_top" xlink:title="Return visualization with background color green, foreground red.">
<polygon fill="white" stroke="black" points="924,-355.73 924,-385.73 1034,-385.73 1034,-355.73 924,-355.73"/>
<text text-anchor="start" x="932" y="-373.73" font-family="Helvetica,sans-Serif" font-size="10.00">VoxelImageVisualizer</text>
<text text-anchor="middle" x="979" y="-362.73" font-family="Helvetica,sans-Serif" font-size="10.00">::getDebugOutput</text>
</a>
</g>
</g>
<!-- Node1&#45;&gt;Node19 -->
<g id="edge24" class="edge">
<title>Node1&#45;&gt;Node19</title>
<path fill="none" stroke="midnightblue" d="M1108.54,-297.47C1088.47,-309.28 1059.5,-326.22 1034,-340.73 1025.42,-345.61 1016.04,-350.86 1007.53,-355.58"/>
<polygon fill="midnightblue" stroke="midnightblue" points="1110.52,-300.37 1117.36,-292.28 1106.97,-294.34 1110.52,-300.37"/>
</g>
<!-- Node20 -->
<g id="node20" class="node">
<title>Node20</title>
<g id="a_node20"><a xlink:href="../../db/dae/class_voxel_image_visualizer.html#a00b60f629dcc3335bff26934e88b9bcb" target="_top" xlink:title="Return the occupation map visualization (unoccupied = yellow, occupied = blue)">
<polygon fill="white" stroke="black" points="765,-414.73 765,-444.73 880,-444.73 880,-414.73 765,-414.73"/>
<text text-anchor="start" x="773" y="-432.73" font-family="Helvetica,sans-Serif" font-size="10.00">VoxelImageVisualizer</text>
<text text-anchor="middle" x="822.5" y="-421.73" font-family="Helvetica,sans-Serif" font-size="10.00">::getOccupationOutput</text>
</a>
</g>
</g>
<!-- Node1&#45;&gt;Node20 -->
<g id="edge25" class="edge">
<title>Node1&#45;&gt;Node20</title>
<path fill="none" stroke="midnightblue" d="M1123.06,-301.06C1107.33,-326.82 1074.99,-373.1 1034,-395.73 986.52,-421.95 924.45,-429.29 880.03,-430.78"/>
<polygon fill="midnightblue" stroke="midnightblue" points="1126.17,-302.68 1128.26,-292.29 1120.15,-299.11 1126.17,-302.68"/>
</g>
<!-- Node28 -->
<g id="node28" class="node">
<title>Node28</title>
<g id="a_node28"><a xlink:href="../../db/dae/class_voxel_image_visualizer.html#a0876df19a1eb477cfbd3e7e84c18c5af" target="_top" xlink:title="Return foreground voxel grid cells as vtkPolyData.">
<polygon fill="white" stroke="black" points="924,-179.73 924,-209.73 1034,-209.73 1034,-179.73 924,-179.73"/>
<text text-anchor="start" x="932" y="-197.73" font-family="Helvetica,sans-Serif" font-size="10.00">VoxelImageVisualizer</text>
<text text-anchor="middle" x="979" y="-186.73" font-family="Helvetica,sans-Serif" font-size="10.00">::getPolyDataOutput</text>
</a>
</g>
</g>
<!-- Node1&#45;&gt;Node28 -->
<g id="edge40" class="edge">
<title>Node1&#45;&gt;Node28</title>
<path fill="none" stroke="midnightblue" d="M1108.54,-267.99C1088.47,-256.18 1059.5,-239.25 1034,-224.73 1025.42,-219.85 1016.04,-214.6 1007.53,-209.89"/>
<polygon fill="midnightblue" stroke="midnightblue" points="1106.97,-271.13 1117.36,-273.19 1110.52,-265.1 1106.97,-271.13"/>
</g>
<!-- Node30 -->
<g id="node30" class="node">
<title>Node30</title>
<g id="a_node30"><a xlink:href="../../db/dae/class_voxel_image_visualizer.html#a5f41640feebb9f49204b777abb09fec2" target="_top" xlink:title="Return visualization with VOXEL_OUTSIDE = &quot;White&quot;, VOXEL_OCCUPIED = &quot;Red&quot;, VOXEL_SHELL = &quot;Yellow&quot;,...">
<polygon fill="white" stroke="black" points="757,-365.73 757,-395.73 888,-395.73 888,-365.73 757,-365.73"/>
<text text-anchor="start" x="765" y="-383.73" font-family="Helvetica,sans-Serif" font-size="10.00">VoxelImageVisualizer</text>
<text text-anchor="middle" x="822.5" y="-372.73" font-family="Helvetica,sans-Serif" font-size="10.00">::getShellAndInsideOutput</text>
</a>
</g>
</g>
<!-- Node1&#45;&gt;Node30 -->
<g id="edge43" class="edge">
<title>Node1&#45;&gt;Node30</title>
<path fill="none" stroke="midnightblue" d="M1090.25,-295.15C1047.77,-307.48 981.19,-327.18 924,-345.73 904.67,-352 883.39,-359.35 865.42,-365.68"/>
<polygon fill="midnightblue" stroke="midnightblue" points="1091.35,-298.47 1099.98,-292.33 1089.4,-291.75 1091.35,-298.47"/>
</g>
<!-- Node31 -->
<g id="node31" class="node">
<title>Node31</title>
<g id="a_node31"><a xlink:href="../../db/dae/class_voxel_image_visualizer.html#a266b4be6343bb49d53b4af2c9e7df310" target="_top" xlink:title=" ">
<polygon fill="white" stroke="black" points="924,-267.73 924,-297.73 1034,-297.73 1034,-267.73 924,-267.73"/>
<text text-anchor="start" x="932" y="-285.73" font-family="Helvetica,sans-Serif" font-size="10.00">VoxelImageVisualizer</text>
<text text-anchor="middle" x="979" y="-274.73" font-family="Helvetica,sans-Serif" font-size="10.00">::getShellOutput</text>
</a>
</g>
</g>
<!-- Node1&#45;&gt;Node31 -->
<g id="edge47" class="edge">
<title>Node1&#45;&gt;Node31</title>
<path fill="none" stroke="midnightblue" d="M1059.65,-282.73C1051.02,-282.73 1042.34,-282.73 1034.05,-282.73"/>
<polygon fill="midnightblue" stroke="midnightblue" points="1059.74,-286.23 1069.74,-282.73 1059.74,-279.23 1059.74,-286.23"/>
</g>
<!-- Node34 -->
<g id="node34" class="node">
<title>Node34</title>
<g id="a_node34"><a xlink:href="../../db/dae/class_voxel_image_visualizer.html#abc5621b24e8c8dffd133aa17d9b37730" target="_top" xlink:title=" ">
<polygon fill="white" stroke="black" points="924,-130.73 924,-160.73 1034,-160.73 1034,-130.73 924,-130.73"/>
<text text-anchor="start" x="932" y="-148.73" font-family="Helvetica,sans-Serif" font-size="10.00">VoxelImageVisualizer</text>
<text text-anchor="middle" x="979" y="-137.73" font-family="Helvetica,sans-Serif" font-size="10.00">::getVoxelActor</text>
</a>
</g>
</g>
<!-- Node1&#45;&gt;Node34 -->
<g id="edge53" class="edge">
<title>Node1&#45;&gt;Node34</title>
<path fill="none" stroke="midnightblue" d="M1121.42,-264.69C1104.37,-240.39 1071.17,-197.04 1034,-169.73 1029.54,-166.45 1024.55,-163.49 1019.47,-160.85"/>
<polygon fill="midnightblue" stroke="midnightblue" points="1118.58,-266.75 1127.13,-273 1124.35,-262.78 1118.58,-266.75"/>
</g>
<!-- Node3 -->
<g id="node3" class="node">
<title>Node3</title>
<g id="a_node3"><a xlink:href="../../d9/dc6/class_main_window.html#a15f9fa9fe71b50669ecf5f5a3a1ce90e" target="_top" xlink:title="Import STL / OBJ mesh into the scene.">
<polygon fill="white" stroke="black" points="567,-226.23 567,-245.23 688,-245.23 688,-226.23 567,-226.23"/>
<text text-anchor="middle" x="627.5" y="-233.23" font-family="Helvetica,sans-Serif" font-size="10.00">MainWindow::loadMesh</text>
</a>
</g>
</g>
<!-- Node2&#45;&gt;Node3 -->
<g id="edge2" class="edge">
<title>Node2&#45;&gt;Node3</title>
<path fill="none" stroke="midnightblue" d="M757.44,-234.4C735.13,-234.63 710.21,-234.89 688.27,-235.11"/>
<polygon fill="midnightblue" stroke="midnightblue" points="757.52,-237.9 767.48,-234.29 757.45,-230.9 757.52,-237.9"/>
</g>
<!-- Node13 -->
<g id="node13" class="node">
<title>Node13</title>
<g id="a_node13"><a xlink:href="../../d6/db5/class_scene.html#a266f98c6795eca4f5c03cba5761967d6" target="_top" xlink:title="Replace the actual mesh polydata with the polydata given as parameter.">
<polygon fill="white" stroke="black" points="554.5,-407.23 554.5,-426.23 700.5,-426.23 700.5,-407.23 554.5,-407.23"/>
<text text-anchor="middle" x="627.5" y="-414.23" font-family="Helvetica,sans-Serif" font-size="10.00">Scene::replaceMeshPolyData</text>
</a>
</g>
</g>
<!-- Node2&#45;&gt;Node13 -->
<g id="edge18" class="edge">
<title>Node2&#45;&gt;Node13</title>
<path fill="none" stroke="midnightblue" d="M759.76,-254.93C758.8,-255.82 757.88,-256.76 757,-257.73 714.01,-305.47 767.53,-353.43 721,-397.73 715.18,-403.27 708.2,-407.39 700.72,-410.42"/>
<polygon fill="midnightblue" stroke="midnightblue" points="761.97,-257.64 767.76,-248.77 757.7,-252.09 761.97,-257.64"/>
</g>
<!-- Node15 -->
<g id="node15" class="node">
<title>Node15</title>
<g id="a_node15"><a xlink:href="../../d6/db5/class_scene.html#a0955ff290776412f925da730a9f8058c" target="_top" xlink:title="Update the cuberille visualization after changes to the underlying voxel data.">
<polygon fill="white" stroke="black" points="554.5,-369.23 554.5,-388.23 700.5,-388.23 700.5,-369.23 554.5,-369.23"/>
<text text-anchor="middle" x="627.5" y="-376.23" font-family="Helvetica,sans-Serif" font-size="10.00">Scene::updateCuberilleActors</text>
</a>
</g>
</g>
<!-- Node2&#45;&gt;Node15 -->
<g id="edge20" class="edge">
<title>Node2&#45;&gt;Node15</title>
<path fill="none" stroke="midnightblue" d="M765.14,-253.13C762.34,-254.58 759.61,-256.11 757,-257.73 704.42,-290.39 654.81,-346.85 636.22,-369.21"/>
<polygon fill="midnightblue" stroke="midnightblue" points="766.77,-256.23 774.3,-248.77 763.76,-249.91 766.77,-256.23"/>
</g>
<!-- Node4 -->
<g id="node4" class="node">
<title>Node4</title>
<g id="a_node4"><a xlink:href="../../d9/dc6/class_main_window.html#a6e3c9bc26115fb1b1664607e58716641" target="_top" xlink:title=" ">
<polygon fill="white" stroke="black" points="347,-226.23 347,-245.23 493,-245.23 493,-226.23 347,-226.23"/>
<text text-anchor="middle" x="420" y="-233.23" font-family="Helvetica,sans-Serif" font-size="10.00">MainWindow::slotImportMesh</text>
</a>
</g>
</g>
<!-- Node3&#45;&gt;Node4 -->
<g id="edge3" class="edge">
<title>Node3&#45;&gt;Node4</title>
<path fill="none" stroke="midnightblue" d="M556.61,-235.73C536.19,-235.73 513.82,-235.73 493.25,-235.73"/>
<polygon fill="midnightblue" stroke="midnightblue" points="556.78,-239.23 566.78,-235.73 556.78,-232.23 556.78,-239.23"/>
</g>
<!-- Node7 -->
<g id="node7" class="node">
<title>Node7</title>
<g id="a_node7"><a xlink:href="../../d9/dc6/class_main_window.html#a46bb2fea8ddeab75e15a223c291116b6" target="_top" xlink:title=" ">
<polygon fill="white" stroke="black" points="345.5,-176.73 345.5,-206.73 494.5,-206.73 494.5,-176.73 345.5,-176.73"/>
<text text-anchor="start" x="353.5" y="-194.73" font-family="Helvetica,sans-Serif" font-size="10.00">MainWindow::slotOptimization</text>
<text text-anchor="middle" x="420" y="-183.73" font-family="Helvetica,sans-Serif" font-size="10.00">BenchmarkBunnyLowPoly</text>
</a>
</g>
</g>
<!-- Node3&#45;&gt;Node7 -->
<g id="edge6" class="edge">
<title>Node3&#45;&gt;Node7</title>
<path fill="none" stroke="midnightblue" d="M571.99,-224.06C547.27,-218.77 517.73,-212.44 491.36,-206.8"/>
<polygon fill="midnightblue" stroke="midnightblue" points="571.4,-227.51 581.91,-226.19 572.86,-220.67 571.4,-227.51"/>
</g>
<!-- Node8 -->
<g id="node8" class="node">
<title>Node8</title>
<g id="a_node8"><a xlink:href="../../d9/dc6/class_main_window.html#affed0fab82fd390e2762933c6dca9124" target="_top" xlink:title=" ">
<polygon fill="white" stroke="black" points="345.5,-127.73 345.5,-157.73 494.5,-157.73 494.5,-127.73 345.5,-127.73"/>
<text text-anchor="start" x="353.5" y="-145.73" font-family="Helvetica,sans-Serif" font-size="10.00">MainWindow::slotOptimization</text>
<text text-anchor="middle" x="420" y="-134.73" font-family="Helvetica,sans-Serif" font-size="10.00">BenchmarkCorona</text>
</a>
</g>
</g>
<!-- Node3&#45;&gt;Node8 -->
<g id="edge8" class="edge">
<title>Node3&#45;&gt;Node8</title>
<path fill="none" stroke="midnightblue" d="M602.17,-220.86C576.83,-205.79 535.64,-182.53 498,-166.73 490.38,-163.53 482.19,-160.54 474.08,-157.81"/>
<polygon fill="midnightblue" stroke="midnightblue" points="600.38,-223.86 610.76,-226 603.98,-217.86 600.38,-223.86"/>
</g>
<!-- Node9 -->
<g id="node9" class="node">
<title>Node9</title>
<g id="a_node9"><a xlink:href="../../d9/dc6/class_main_window.html#adfdb8fcb8685844e8ce11bfb41b83b7d" target="_top" xlink:title=" ">
<polygon fill="white" stroke="black" points="345.5,-78.73 345.5,-108.73 494.5,-108.73 494.5,-78.73 345.5,-78.73"/>
<text text-anchor="start" x="353.5" y="-96.73" font-family="Helvetica,sans-Serif" font-size="10.00">MainWindow::slotOptimization</text>
<text text-anchor="middle" x="420" y="-85.73" font-family="Helvetica,sans-Serif" font-size="10.00">BenchmarkCthulhu</text>
</a>
</g>
</g>
<!-- Node3&#45;&gt;Node9 -->
<g id="edge10" class="edge">
<title>Node3&#45;&gt;Node9</title>
<path fill="none" stroke="midnightblue" d="M611.96,-218.15C589.87,-192.53 545.4,-145.03 498,-117.73 492.18,-114.38 485.83,-111.44 479.36,-108.88"/>
<polygon fill="midnightblue" stroke="midnightblue" points="609.42,-220.58 618.56,-225.94 614.76,-216.05 609.42,-220.58"/>
</g>
<!-- Node10 -->
<g id="node10" class="node">
<title>Node10</title>
<g id="a_node10"><a xlink:href="../../d9/dc6/class_main_window.html#a5283a0d7aeeafd409c69b272053f3986" target="_top" xlink:title=" ">
<polygon fill="white" stroke="black" points="345.5,-29.73 345.5,-59.73 494.5,-59.73 494.5,-29.73 345.5,-29.73"/>
<text text-anchor="start" x="353.5" y="-47.73" font-family="Helvetica,sans-Serif" font-size="10.00">MainWindow::slotOptimization</text>
<text text-anchor="middle" x="420" y="-36.73" font-family="Helvetica,sans-Serif" font-size="10.00">BenchmarkCube</text>
</a>
</g>
</g>
<!-- Node3&#45;&gt;Node10 -->
<g id="edge12" class="edge">
<title>Node3&#45;&gt;Node10</title>
<path fill="none" stroke="midnightblue" d="M613,-217.89C580.78,-175.38 501.82,-71.39 498,-68.73 493.06,-65.29 487.61,-62.33 481.95,-59.78"/>
<polygon fill="midnightblue" stroke="midnightblue" points="610.29,-220.12 619.12,-225.97 615.87,-215.89 610.29,-220.12"/>
</g>
<!-- Node11 -->
<g id="node11" class="node">
<title>Node11</title>
<g id="a_node11"><a xlink:href="../../d9/dc6/class_main_window.html#a0c92ca2d04a79a1580c2e8e136b82682" target="_top" xlink:title=" ">
<polygon fill="white" stroke="black" points="345.5,-313.73 345.5,-343.73 494.5,-343.73 494.5,-313.73 345.5,-313.73"/>
<text text-anchor="start" x="353.5" y="-331.73" font-family="Helvetica,sans-Serif" font-size="10.00">MainWindow::slotOptimization</text>
<text text-anchor="middle" x="420" y="-320.73" font-family="Helvetica,sans-Serif" font-size="10.00">BenchmarkSphere</text>
</a>
</g>
</g>
<!-- Node3&#45;&gt;Node11 -->
<g id="edge14" class="edge">
<title>Node3&#45;&gt;Node11</title>
<path fill="none" stroke="midnightblue" d="M601.77,-250.47C576.34,-265.23 535.31,-287.95 498,-303.73 489.59,-307.29 480.48,-310.66 471.58,-313.7"/>
<polygon fill="midnightblue" stroke="midnightblue" points="603.85,-253.31 610.71,-245.24 600.31,-247.27 603.85,-253.31"/>
</g>
<!-- Node12 -->
<g id="node12" class="node">
<title>Node12</title>
<g id="a_node12"><a xlink:href="../../d9/dc6/class_main_window.html#a86cd359f80311725589d0861dd7a9851" target="_top" xlink:title=" ">
<polygon fill="white" stroke="black" points="345.5,-264.73 345.5,-294.73 494.5,-294.73 494.5,-264.73 345.5,-264.73"/>
<text text-anchor="start" x="353.5" y="-282.73" font-family="Helvetica,sans-Serif" font-size="10.00">MainWindow::slotOptimization</text>
<text text-anchor="middle" x="420" y="-271.73" font-family="Helvetica,sans-Serif" font-size="10.00">BenchmarkUChannel</text>
</a>
</g>
</g>
<!-- Node3&#45;&gt;Node12 -->
<g id="edge16" class="edge">
<title>Node3&#45;&gt;Node12</title>
<path fill="none" stroke="midnightblue" d="M571.99,-247.4C547.27,-252.7 517.73,-259.02 491.36,-264.67"/>
<polygon fill="midnightblue" stroke="midnightblue" points="572.86,-250.8 581.91,-245.28 571.4,-243.95 572.86,-250.8"/>
</g>
<!-- Node5 -->
<g id="node5" class="node">
<title>Node5</title>
<g id="a_node5"><a xlink:href="../../d9/dc6/class_main_window.html#a33dddfc15db4053f9117728538e7ece4" target="_top" xlink:title="Set up qt specific signal and slots part for enabling user interaction.">
<polygon fill="white" stroke="black" points="171,-152.73 171,-182.73 306,-182.73 306,-152.73 171,-152.73"/>
<text text-anchor="start" x="179" y="-170.73" font-family="Helvetica,sans-Serif" font-size="10.00">MainWindow::setupSignals</text>
<text text-anchor="middle" x="238.5" y="-159.73" font-family="Helvetica,sans-Serif" font-size="10.00">AndSlots</text>
</a>
</g>
</g>
<!-- Node4&#45;&gt;Node5 -->
<g id="edge4" class="edge">
<title>Node4&#45;&gt;Node5</title>
<path fill="none" stroke="midnightblue" d="M366.87,-223.58C358.47,-221.23 349.94,-218.59 342,-215.73 316.31,-206.47 288.3,-193.11 268.06,-182.84"/>
<polygon fill="midnightblue" stroke="midnightblue" points="366.05,-226.99 376.61,-226.21 367.87,-220.23 366.05,-226.99"/>
</g>
<!-- Node6 -->
<g id="node6" class="node">
<title>Node6</title>
<g id="a_node6"><a xlink:href="../../d9/dc6/class_main_window.html#a996c5a2b6f77944776856f08ec30858d" target="_top" xlink:title=" ">
<polygon fill="white" stroke="black" points="0,-158.23 0,-177.23 135,-177.23 135,-158.23 0,-158.23"/>
<text text-anchor="middle" x="67.5" y="-165.23" font-family="Helvetica,sans-Serif" font-size="10.00">MainWindow::MainWindow</text>
</a>
</g>
</g>
<!-- Node5&#45;&gt;Node6 -->
<g id="edge5" class="edge">
<title>Node5&#45;&gt;Node6</title>
<path fill="none" stroke="midnightblue" d="M160.45,-167.73C151.98,-167.73 143.41,-167.73 135.08,-167.73"/>
<polygon fill="midnightblue" stroke="midnightblue" points="160.71,-171.23 170.71,-167.73 160.71,-164.23 160.71,-171.23"/>
</g>
<!-- Node7&#45;&gt;Node5 -->
<g id="edge7" class="edge">
<title>Node7&#45;&gt;Node5</title>
<path fill="none" stroke="midnightblue" d="M335.36,-180.55C325.61,-179.25 315.76,-177.93 306.28,-176.66"/>
<polygon fill="midnightblue" stroke="midnightblue" points="335.1,-184.05 345.47,-181.9 336.02,-177.11 335.1,-184.05"/>
</g>
<!-- Node8&#45;&gt;Node5 -->
<g id="edge9" class="edge">
<title>Node8&#45;&gt;Node5</title>
<path fill="none" stroke="midnightblue" d="M335.36,-154.38C325.61,-155.74 315.76,-157.11 306.28,-158.43"/>
<polygon fill="midnightblue" stroke="midnightblue" points="336.05,-157.82 345.47,-152.97 335.09,-150.89 336.05,-157.82"/>
</g>
<!-- Node9&#45;&gt;Node5 -->
<g id="edge11" class="edge">
<title>Node9&#45;&gt;Node5</title>
<path fill="none" stroke="midnightblue" d="M357,-112.15C351.89,-113.94 346.84,-115.81 342,-117.73 316.24,-127.96 288,-141.96 267.7,-152.54"/>
<polygon fill="midnightblue" stroke="midnightblue" points="358.51,-115.34 366.85,-108.81 356.26,-108.71 358.51,-115.34"/>
</g>
<!-- Node10&#45;&gt;Node5 -->
<g id="edge13" class="edge">
<title>Node10&#45;&gt;Node5</title>
<path fill="none" stroke="midnightblue" d="M350.83,-64.01C347.79,-65.48 344.83,-67.05 342,-68.73 303.91,-91.31 268.97,-130.72 251.4,-152.38"/>
<polygon fill="midnightblue" stroke="midnightblue" points="352.42,-67.14 360.15,-59.89 349.59,-60.73 352.42,-67.14"/>
</g>
<!-- Node11&#45;&gt;Node5 -->
<g id="edge15" class="edge">
<title>Node11&#45;&gt;Node5</title>
<path fill="none" stroke="midnightblue" d="M350.48,-309.07C347.53,-307.43 344.69,-305.65 342,-303.73 295.78,-270.77 261.23,-210.75 246.85,-182.8"/>
<polygon fill="midnightblue" stroke="midnightblue" points="349.08,-312.28 359.59,-313.62 352.21,-306.02 349.08,-312.28"/>
</g>
<!-- Node12&#45;&gt;Node5 -->
<g id="edge17" class="edge">
<title>Node12&#45;&gt;Node5</title>
<path fill="none" stroke="midnightblue" d="M354.25,-260.8C350.02,-258.93 345.9,-256.91 342,-254.73 306.74,-235.06 272.32,-202.25 253.72,-183.03"/>
<polygon fill="midnightblue" stroke="midnightblue" points="353.04,-264.09 363.62,-264.66 355.71,-257.62 353.04,-264.09"/>
</g>
<!-- Node14 -->
<g id="node14" class="node">
<title>Node14</title>
<g id="a_node14"><a xlink:href="../../d9/d00/class_p_s_interface_tool.html#aa26bf20d4e597f64df960e4c1a5c3a69" target="_top" xlink:title=" ">
<polygon fill="white" stroke="black" points="356.5,-510.23 356.5,-529.23 483.5,-529.23 483.5,-510.23 356.5,-510.23"/>
<text text-anchor="middle" x="420" y="-517.23" font-family="Helvetica,sans-Serif" font-size="10.00">PSInterfaceTool::execute</text>
</a>
</g>
</g>
<!-- Node13&#45;&gt;Node14 -->
<g id="edge19" class="edge">
<title>Node13&#45;&gt;Node14</title>
<path fill="none" stroke="midnightblue" d="M577.07,-429.54C562.3,-434.86 546.68,-442.11 534,-451.73 512.48,-468.08 520.46,-485.71 498,-500.73 492.16,-504.64 485.6,-507.74 478.82,-510.21"/>
<polygon fill="midnightblue" stroke="midnightblue" points="578.27,-432.83 586.62,-426.31 576.03,-426.2 578.27,-432.83"/>
</g>
<!-- Node16 -->
<g id="node16" class="node">
<title>Node16</title>
<g id="a_node16"><a xlink:href="../../da/dcb/class_freehand_add_final_point_callback.html#a4a889b08c802e7e81598b8dd8b5e3dad" target="_top" xlink:title="Overwritten callback method, which is executed when the left mouse button is pressed.">
<polygon fill="white" stroke="black" points="342,-411.73 342,-441.73 498,-441.73 498,-411.73 342,-411.73"/>
<text text-anchor="start" x="350" y="-429.73" font-family="Helvetica,sans-Serif" font-size="10.00">FreehandAddFinalPointCallback</text>
<text text-anchor="middle" x="420" y="-418.73" font-family="Helvetica,sans-Serif" font-size="10.00">::Execute</text>
</a>
</g>
</g>
<!-- Node15&#45;&gt;Node16 -->
<g id="edge21" class="edge">
<title>Node15&#45;&gt;Node16</title>
<path fill="none" stroke="midnightblue" d="M568.1,-390.28C556.77,-392.65 545,-395.19 534,-397.73 515.55,-401.99 495.5,-407.01 477.49,-411.66"/>
<polygon fill="midnightblue" stroke="midnightblue" points="568.83,-393.7 577.92,-388.25 567.42,-386.85 568.83,-393.7"/>
</g>
<!-- Node17 -->
<g id="node17" class="node">
<title>Node17</title>
<g id="a_node17"><a xlink:href="../../d4/d58/class_polyline_add_final_point_callback.html#aebf2f4ff9236a12c598205822c2949a2" target="_top" xlink:title="Overwritten callback method, which is executed when the left mouse button is pressed for the first ti...">
<polygon fill="white" stroke="black" points="345,-362.73 345,-392.73 495,-392.73 495,-362.73 345,-362.73"/>
<text text-anchor="start" x="353" y="-380.73" font-family="Helvetica,sans-Serif" font-size="10.00">PolylineAddFinalPointCallback</text>
<text text-anchor="middle" x="420" y="-369.73" font-family="Helvetica,sans-Serif" font-size="10.00">::Execute</text>
</a>
</g>
</g>
<!-- Node15&#45;&gt;Node17 -->
<g id="edge22" class="edge">
<title>Node15&#45;&gt;Node17</title>
<path fill="none" stroke="midnightblue" d="M544.31,-378.33C528.04,-378.25 511.06,-378.17 495.08,-378.09"/>
<polygon fill="midnightblue" stroke="midnightblue" points="544.32,-381.83 554.34,-378.38 544.35,-374.83 544.32,-381.83"/>
</g>
<!-- Node18 -->
<g id="node18" class="node">
<title>Node18</title>
<g id="a_node18"><a xlink:href="../../d1/db5/class_lasso_interactor_style.html#a711994cec6c74643d2bc161ba73daacd" target="_top" xlink:title="Overwritten method, which is executed when the left mouse button is released.">
<polygon fill="white" stroke="black" points="366.5,-460.73 366.5,-490.73 473.5,-490.73 473.5,-460.73 366.5,-460.73"/>
<text text-anchor="start" x="374.5" y="-478.73" font-family="Helvetica,sans-Serif" font-size="10.00">LassoInteractorStyle</text>
<text text-anchor="middle" x="420" y="-467.73" font-family="Helvetica,sans-Serif" font-size="10.00">::OnLeftButtonUp</text>
</a>
</g>
</g>
<!-- Node15&#45;&gt;Node18 -->
<g id="edge23" class="edge">
<title>Node15&#45;&gt;Node18</title>
<path fill="none" stroke="midnightblue" d="M544.6,-391.72C540.9,-393.48 537.35,-395.48 534,-397.73 510.08,-413.84 521.09,-434.45 498,-451.73 490.83,-457.1 482.43,-461.29 473.86,-464.54"/>
<polygon fill="midnightblue" stroke="midnightblue" points="546.16,-394.86 554.04,-387.78 543.46,-388.4 546.16,-394.86"/>
</g>
<!-- Node20&#45;&gt;Node3 -->
<g id="edge26" class="edge">
<title>Node20&#45;&gt;Node3</title>
<path fill="none" stroke="midnightblue" d="M762.85,-409.69C760.83,-408.44 758.87,-407.12 757,-405.73 752.96,-402.72 662.62,-281.56 635.89,-245.66"/>
<polygon fill="midnightblue" stroke="midnightblue" points="761.61,-413 772.06,-414.73 764.97,-406.86 761.61,-413"/>
</g>
<!-- Node20&#45;&gt;Node13 -->
<g id="edge27" class="edge">
<title>Node20&#45;&gt;Node13</title>
<path fill="none" stroke="midnightblue" d="M754.78,-425.24C737.28,-424.06 718.33,-422.78 700.57,-421.59"/>
<polygon fill="midnightblue" stroke="midnightblue" points="754.69,-428.74 764.9,-425.92 755.16,-421.76 754.69,-428.74"/>
</g>
<!-- Node20&#45;&gt;Node15 -->
<g id="edge28" class="edge">
<title>Node20&#45;&gt;Node15</title>
<path fill="none" stroke="midnightblue" d="M768.06,-411.56C752.94,-406.74 736.41,-401.76 721,-397.73 707.83,-394.29 693.48,-391.09 680.1,-388.33"/>
<polygon fill="midnightblue" stroke="midnightblue" points="767.17,-414.95 777.77,-414.7 769.33,-408.29 767.17,-414.95"/>
</g>
<!-- Node21 -->
<g id="node21" class="node">
<title>Node21</title>
<g id="a_node21"><a xlink:href="../../d6/db5/class_scene.html#a415555bc0037489b1a9421747c318746" target="_top" xlink:title="Update the occupation map visualization after changes to the underlying voxel data.">
<polygon fill="white" stroke="black" points="553.5,-460.73 553.5,-490.73 701.5,-490.73 701.5,-460.73 553.5,-460.73"/>
<text text-anchor="start" x="561.5" y="-478.73" font-family="Helvetica,sans-Serif" font-size="10.00">Scene::updateOccupationMap</text>
<text text-anchor="middle" x="627.5" y="-467.73" font-family="Helvetica,sans-Serif" font-size="10.00">Actor</text>
</a>
</g>
</g>
<!-- Node20&#45;&gt;Node21 -->
<g id="edge29" class="edge">
<title>Node20&#45;&gt;Node21</title>
<path fill="none" stroke="midnightblue" d="M754.98,-445.59C734.42,-450.49 711.85,-455.87 691.53,-460.71"/>
<polygon fill="midnightblue" stroke="midnightblue" points="755.98,-448.95 764.9,-443.22 754.36,-442.14 755.98,-448.95"/>
</g>
<!-- Node21&#45;&gt;Node14 -->
<g id="edge30" class="edge">
<title>Node21&#45;&gt;Node14</title>
<path fill="none" stroke="midnightblue" d="M546.34,-492.9C518.83,-498.79 489.05,-505.16 465.43,-510.22"/>
<polygon fill="midnightblue" stroke="midnightblue" points="547.31,-496.27 556.35,-490.75 545.84,-489.42 547.31,-496.27"/>
</g>
<!-- Node21&#45;&gt;Node16 -->
<g id="edge31" class="edge">
<title>Node21&#45;&gt;Node16</title>
<path fill="none" stroke="midnightblue" d="M553.51,-458.33C530.78,-452.91 505.92,-446.98 483.93,-441.74"/>
<polygon fill="midnightblue" stroke="midnightblue" points="552.91,-461.78 563.45,-460.7 554.53,-454.97 552.91,-461.78"/>
</g>
<!-- Node21&#45;&gt;Node17 -->
<g id="edge32" class="edge">
<title>Node21&#45;&gt;Node17</title>
<path fill="none" stroke="midnightblue" d="M574.28,-456.76C560.7,-450.86 546.41,-443.77 534,-435.73 515.79,-423.93 516.75,-413.67 498,-402.73 491.57,-398.98 484.49,-395.71 477.33,-392.88"/>
<polygon fill="midnightblue" stroke="midnightblue" points="572.97,-460 583.54,-460.64 575.68,-453.54 572.97,-460"/>
</g>
<!-- Node21&#45;&gt;Node18 -->
<g id="edge33" class="edge">
<title>Node21&#45;&gt;Node18</title>
<path fill="none" stroke="midnightblue" d="M543.17,-475.73C519.73,-475.73 494.9,-475.73 473.78,-475.73"/>
<polygon fill="midnightblue" stroke="midnightblue" points="543.47,-479.23 553.47,-475.73 543.47,-472.23 543.47,-479.23"/>
</g>
<!-- Node22 -->
<g id="node22" class="node">
<title>Node22</title>
<g id="a_node22"><a xlink:href="../../db/dbb/class_picking_interactor_style.html#a1620702107e2c2d0c0aefbd896098b0d" target="_top" xlink:title="Overloaded method, invoked when right mouse button is pressed.">
<polygon fill="white" stroke="black" points="363.5,-586.73 363.5,-616.73 476.5,-616.73 476.5,-586.73 363.5,-586.73"/>
<text text-anchor="start" x="371.5" y="-604.73" font-family="Helvetica,sans-Serif" font-size="10.00">PickingInteractorStyle</text>
<text text-anchor="middle" x="420" y="-593.73" font-family="Helvetica,sans-Serif" font-size="10.00">::OnRightButtonDown</text>
</a>
</g>
</g>
<!-- Node21&#45;&gt;Node22 -->
<g id="edge34" class="edge">
<title>Node21&#45;&gt;Node22</title>
<path fill="none" stroke="midnightblue" d="M603.84,-497.66C579.45,-520.22 538.66,-555.04 498,-576.73 491.06,-580.44 483.46,-583.72 475.84,-586.58"/>
<polygon fill="midnightblue" stroke="midnightblue" points="606.26,-500.19 611.16,-490.8 601.47,-495.08 606.26,-500.19"/>
</g>
<!-- Node23 -->
<g id="node23" class="node">
<title>Node23</title>
<g id="a_node23"><a xlink:href="../../d6/db5/class_scene.html#af1128c48ccb6999066aa1d935075cb23" target="_top" xlink:title="Remove a touchpoint from the scene given its unique touchpoint id.">
<polygon fill="white" stroke="black" points="355,-548.23 355,-567.23 485,-567.23 485,-548.23 355,-548.23"/>
<text text-anchor="middle" x="420" y="-555.23" font-family="Helvetica,sans-Serif" font-size="10.00">Scene::removeTouchpoint</text>
</a>
</g>
</g>
<!-- Node21&#45;&gt;Node23 -->
<g id="edge35" class="edge">
<title>Node21&#45;&gt;Node23</title>
<path fill="none" stroke="midnightblue" d="M590.82,-495.8C565.52,-509.38 530.44,-526.93 498,-538.73 488.04,-542.36 477.1,-545.52 466.68,-548.17"/>
<polygon fill="midnightblue" stroke="midnightblue" points="592.55,-498.84 599.67,-491 589.21,-492.69 592.55,-498.84"/>
</g>
<!-- Node24 -->
<g id="node24" class="node">
<title>Node24</title>
<g id="a_node24"><a xlink:href="../../d1/d4e/class_place_touchpoint_tool.html#aa565ccff15d4591dc9c6dee73adfe6e8" target="_top" xlink:title=" ">
<polygon fill="white" stroke="black" points="185,-615.73 185,-645.73 292,-645.73 292,-615.73 185,-615.73"/>
<text text-anchor="start" x="193" y="-633.73" font-family="Helvetica,sans-Serif" font-size="10.00">PlaceTouchpointTool</text>
<text text-anchor="middle" x="238.5" y="-622.73" font-family="Helvetica,sans-Serif" font-size="10.00">::undo</text>
</a>
</g>
</g>
<!-- Node23&#45;&gt;Node24 -->
<g id="edge36" class="edge">
<title>Node23&#45;&gt;Node24</title>
<path fill="none" stroke="midnightblue" d="M359.73,-570.36C353.61,-572.48 347.59,-574.92 342,-577.73 323.65,-586.97 323.91,-596.66 306,-606.73 300.12,-610.04 293.69,-613.04 287.23,-615.7"/>
<polygon fill="midnightblue" stroke="midnightblue" points="360.92,-573.66 369.39,-567.3 358.8,-566.99 360.92,-573.66"/>
</g>
<!-- Node25 -->
<g id="node25" class="node">
<title>Node25</title>
<g id="a_node25"><a xlink:href="../../de/dd7/class_polyline_touchpoint_tool.html#a9ee474813d977ff7b9877372035a319c" target="_top" xlink:title=" ">
<polygon fill="white" stroke="black" points="180.5,-566.73 180.5,-596.73 296.5,-596.73 296.5,-566.73 180.5,-566.73"/>
<text text-anchor="start" x="188.5" y="-584.73" font-family="Helvetica,sans-Serif" font-size="10.00">PolylineTouchpointTool</text>
<text text-anchor="middle" x="238.5" y="-573.73" font-family="Helvetica,sans-Serif" font-size="10.00">::undo</text>
</a>
</g>
</g>
<!-- Node23&#45;&gt;Node25 -->
<g id="edge37" class="edge">
<title>Node23&#45;&gt;Node25</title>
<path fill="none" stroke="midnightblue" d="M345.01,-567.62C328.87,-569.78 312.02,-572.04 296.65,-574.09"/>
<polygon fill="midnightblue" stroke="midnightblue" points="345.51,-571.09 354.96,-566.3 344.58,-564.15 345.51,-571.09"/>
</g>
<!-- Node26 -->
<g id="node26" class="node">
<title>Node26</title>
<g id="a_node26"><a xlink:href="../../de/de0/class_freehand_touchpoint_tool.html#a8c241ab6ea3d7ced711c84036836e885" target="_top" xlink:title=" ">
<polygon fill="white" stroke="black" points="177.5,-517.73 177.5,-547.73 299.5,-547.73 299.5,-517.73 177.5,-517.73"/>
<text text-anchor="start" x="185.5" y="-535.73" font-family="Helvetica,sans-Serif" font-size="10.00">FreehandTouchpointTool</text>
<text text-anchor="middle" x="238.5" y="-524.73" font-family="Helvetica,sans-Serif" font-size="10.00">::undo</text>
</a>
</g>
</g>
<!-- Node23&#45;&gt;Node26 -->
<g id="edge38" class="edge">
<title>Node23&#45;&gt;Node26</title>
<path fill="none" stroke="midnightblue" d="M344.68,-547.38C329.67,-545.29 314.07,-543.12 299.62,-541.11"/>
<polygon fill="midnightblue" stroke="midnightblue" points="344.57,-550.9 354.96,-548.81 345.54,-543.97 344.57,-550.9"/>
</g>
<!-- Node27 -->
<g id="node27" class="node">
<title>Node27</title>
<g id="a_node27"><a xlink:href="../../dd/d4a/class_lasso_tool.html#ad4e65963efd59e0802ecb4fbd8d8b288" target="_top" xlink:title=" ">
<polygon fill="white" stroke="black" points="194.5,-479.23 194.5,-498.23 282.5,-498.23 282.5,-479.23 194.5,-479.23"/>
<text text-anchor="middle" x="238.5" y="-486.23" font-family="Helvetica,sans-Serif" font-size="10.00">LassoTool::undo</text>
</a>
</g>
</g>
<!-- Node23&#45;&gt;Node27 -->
<g id="edge39" class="edge">
<title>Node23&#45;&gt;Node27</title>
<path fill="none" stroke="midnightblue" d="M356.66,-544.97C351.59,-543.15 346.64,-541.08 342,-538.73 323.42,-529.33 324.34,-518.6 306,-508.73 298.14,-504.51 289.27,-501.05 280.63,-498.28"/>
<polygon fill="midnightblue" stroke="midnightblue" points="355.89,-548.4 366.49,-548.18 358.06,-541.75 355.89,-548.4"/>
</g>
<!-- Node29 -->
<g id="node29" class="node">
<title>Node29</title>
<g id="a_node29"><a xlink:href="../../d9/dc6/class_main_window.html#adb56e27c5e383155fa30d30b7cf5acef" target="_top" xlink:title=" ">
<polygon fill="white" stroke="black" points="534,-85.23 534,-104.23 721,-104.23 721,-85.23 534,-85.23"/>
<text text-anchor="middle" x="627.5" y="-92.23" font-family="Helvetica,sans-Serif" font-size="10.00">MainWindow::slotExportVoxelgridMesh</text>
</a>
</g>
</g>
<!-- Node28&#45;&gt;Node29 -->
<g id="edge41" class="edge">
<title>Node28&#45;&gt;Node29</title>
<path fill="none" stroke="midnightblue" d="M913.78,-194.44C868.86,-192.57 808,-186.66 757,-169.73 710.67,-154.35 662.71,-120.8 640.78,-104.3"/>
<polygon fill="midnightblue" stroke="midnightblue" points="913.86,-197.95 923.98,-194.81 914.11,-190.95 913.86,-197.95"/>
</g>
<!-- Node29&#45;&gt;Node5 -->
<g id="edge42" class="edge">
<title>Node29&#45;&gt;Node5</title>
<path fill="none" stroke="midnightblue" d="M607.14,-78.94C583.2,-60.55 540.42,-31.21 498,-19.73 431.07,-1.63 403.42,12.44 342,-19.73 287.46,-48.3 256.16,-120.54 244.63,-152.33"/>
<polygon fill="midnightblue" stroke="midnightblue" points="605.04,-81.75 615.07,-85.17 609.36,-76.24 605.04,-81.75"/>
</g>
<!-- Node30&#45;&gt;Node3 -->
<g id="edge44" class="edge">
<title>Node30&#45;&gt;Node3</title>
<path fill="none" stroke="midnightblue" d="M766.85,-361.3C763.45,-359.56 760.13,-357.7 757,-355.73 705.03,-323.12 655.45,-267.74 636.55,-245.45"/>
<polygon fill="midnightblue" stroke="midnightblue" points="765.49,-364.52 776.02,-365.65 768.49,-358.2 765.49,-364.52"/>
</g>
<!-- Node30&#45;&gt;Node13 -->
<g id="edge45" class="edge">
<title>Node30&#45;&gt;Node13</title>
<path fill="none" stroke="midnightblue" d="M747.07,-394.62C724.5,-398.83 700.22,-403.36 679.55,-407.21"/>
<polygon fill="midnightblue" stroke="midnightblue" points="747.78,-398.04 756.97,-392.77 746.49,-391.16 747.78,-398.04"/>
</g>
<!-- Node30&#45;&gt;Node15 -->
<g id="edge46" class="edge">
<title>Node30&#45;&gt;Node15</title>
<path fill="none" stroke="midnightblue" d="M746.64,-379.96C731.52,-379.8 715.65,-379.64 700.62,-379.48"/>
<polygon fill="midnightblue" stroke="midnightblue" points="746.93,-383.46 756.97,-380.06 747,-376.46 746.93,-383.46"/>
</g>
<!-- Node32 -->
<g id="node32" class="node">
<title>Node32</title>
<g id="a_node32"><a xlink:href="../../db/dae/class_voxel_image_visualizer.html#a279e821afcfbef7cb624c391eec3b7a4" target="_top" xlink:title="Return visualization of the mesh interior only.">
<polygon fill="white" stroke="black" points="767.5,-316.73 767.5,-346.73 877.5,-346.73 877.5,-316.73 767.5,-316.73"/>
<text text-anchor="start" x="775.5" y="-334.73" font-family="Helvetica,sans-Serif" font-size="10.00">VoxelImageVisualizer</text>
<text text-anchor="middle" x="822.5" y="-323.73" font-family="Helvetica,sans-Serif" font-size="10.00">::getInteriorOutput</text>
</a>
</g>
</g>
<!-- Node31&#45;&gt;Node32 -->
<g id="edge48" class="edge">
<title>Node31&#45;&gt;Node32</title>
<path fill="none" stroke="midnightblue" d="M920.43,-300.99C904.13,-306.16 886.59,-311.73 870.96,-316.68"/>
<polygon fill="midnightblue" stroke="midnightblue" points="921.91,-304.19 930.38,-297.83 919.79,-297.52 921.91,-304.19"/>
</g>
<!-- Node33 -->
<g id="node33" class="node">
<title>Node33</title>
<g id="a_node33"><a xlink:href="../../db/dae/class_voxel_image_visualizer.html#ad15f9c4638d8e8671414bebdee17a8f3" target="_top" xlink:title="Return visualization of the mesh surface only.">
<polygon fill="white" stroke="black" points="767,-267.73 767,-297.73 878,-297.73 878,-267.73 767,-267.73"/>
<text text-anchor="start" x="775" y="-285.73" font-family="Helvetica,sans-Serif" font-size="10.00">VoxelImageVisualizer</text>
<text text-anchor="middle" x="822.5" y="-274.73" font-family="Helvetica,sans-Serif" font-size="10.00">::getOuterShellOutput</text>
</a>
</g>
</g>
<!-- Node31&#45;&gt;Node33 -->
<g id="edge52" class="edge">
<title>Node31&#45;&gt;Node33</title>
<path fill="none" stroke="midnightblue" d="M913.68,-282.73C901.83,-282.73 889.56,-282.73 878.03,-282.73"/>
<polygon fill="midnightblue" stroke="midnightblue" points="913.96,-286.23 923.96,-282.73 913.96,-279.23 913.96,-286.23"/>
</g>
<!-- Node32&#45;&gt;Node3 -->
<g id="edge49" class="edge">
<title>Node32&#45;&gt;Node3</title>
<path fill="none" stroke="midnightblue" d="M770.66,-312.77C766,-310.81 761.39,-308.79 757,-306.73 715.21,-287.2 668.28,-259.79 644.36,-245.41"/>
<polygon fill="midnightblue" stroke="midnightblue" points="769.62,-316.13 780.2,-316.68 772.28,-309.65 769.62,-316.13"/>
</g>
<!-- Node32&#45;&gt;Node13 -->
<g id="edge50" class="edge">
<title>Node32&#45;&gt;Node13</title>
<path fill="none" stroke="midnightblue" d="M765.54,-351.41C762.58,-353.07 759.71,-354.84 757,-356.73 737.12,-370.62 741.97,-385.55 721,-397.73 714.34,-401.6 707,-404.69 699.47,-407.16"/>
<polygon fill="midnightblue" stroke="midnightblue" points="767.34,-354.42 774.66,-346.77 764.16,-348.18 767.34,-354.42"/>
</g>
<!-- Node32&#45;&gt;Node15 -->
<g id="edge51" class="edge">
<title>Node32&#45;&gt;Node15</title>
<path fill="none" stroke="midnightblue" d="M757.62,-347.29C727.94,-354.52 693.6,-362.88 667.79,-369.16"/>
<polygon fill="midnightblue" stroke="midnightblue" points="758.59,-350.65 767.48,-344.89 756.94,-343.85 758.59,-350.65"/>
</g>
<!-- Node35 -->
<g id="node35" class="node">
<title>Node35</title>
<g id="a_node35"><a xlink:href="../../db/dae/class_voxel_image_visualizer.html#a832d4efbe743573453e2ee744e92ece6" target="_top" xlink:title="Return background color cells visualization.">
<polygon fill="white" stroke="black" points="767.5,-130.73 767.5,-160.73 877.5,-160.73 877.5,-130.73 767.5,-130.73"/>
<text text-anchor="start" x="775.5" y="-148.73" font-family="Helvetica,sans-Serif" font-size="10.00">VoxelImageVisualizer</text>
<text text-anchor="middle" x="822.5" y="-137.73" font-family="Helvetica,sans-Serif" font-size="10.00">::getInverseOutput</text>
</a>
</g>
</g>
<!-- Node34&#45;&gt;Node35 -->
<g id="edge54" class="edge">
<title>Node34&#45;&gt;Node35</title>
<path fill="none" stroke="midnightblue" d="M913.93,-145.73C901.82,-145.73 889.27,-145.73 877.51,-145.73"/>
<polygon fill="midnightblue" stroke="midnightblue" points="913.96,-149.23 923.96,-145.73 913.96,-142.23 913.96,-149.23"/>
</g>
<!-- Node36 -->
<g id="node36" class="node">
<title>Node36</title>
<g id="a_node36"><a xlink:href="../../db/dae/class_voxel_image_visualizer.html#a8021df5f7e97d1d5f85c4ffdba400c65" target="_top" xlink:title="Return foreground color cells visualization.">
<polygon fill="white" stroke="black" points="767.5,-81.73 767.5,-111.73 877.5,-111.73 877.5,-81.73 767.5,-81.73"/>
<text text-anchor="start" x="775.5" y="-99.73" font-family="Helvetica,sans-Serif" font-size="10.00">VoxelImageVisualizer</text>
<text text-anchor="middle" x="822.5" y="-88.73" font-family="Helvetica,sans-Serif" font-size="10.00">::getOutput</text>
</a>
</g>
</g>
<!-- Node34&#45;&gt;Node36 -->
<g id="edge55" class="edge">
<title>Node34&#45;&gt;Node36</title>
<path fill="none" stroke="midnightblue" d="M920.43,-127.47C904.13,-122.31 886.59,-116.74 870.96,-111.78"/>
<polygon fill="midnightblue" stroke="midnightblue" points="919.79,-130.94 930.38,-130.63 921.91,-124.27 919.79,-130.94"/>
</g>
</g>
</svg>
