<?xml version="1.0" encoding="UTF-8" standalone="no"?>
<!DOCTYPE svg PUBLIC "-//W3C//DTD SVG 1.1//EN"
 "http://www.w3.org/Graphics/SVG/1.1/DTD/svg11.dtd">
<!-- Generated by graphviz version 2.44.0 (0)
 -->
<!-- Title: cgal_defs.h Pages: 1 -->
<svg width="1942pt" height="106pt"
 viewBox="0.00 0.00 1942.00 106.00" xmlns="http://www.w3.org/2000/svg" xmlns:xlink="http://www.w3.org/1999/xlink">
<g id="graph0" class="graph" transform="scale(1 1) rotate(0) translate(4 102)">
<title>cgal_defs.h</title>
<polygon fill="white" stroke="transparent" points="-4,4 -4,-102 1938,-102 1938,4 -4,4"/>
<!-- Node1 -->
<g id="node1" class="node">
<title>Node1</title>
<g id="a_node1"><a xlink:title="CGAL specific definitions.">
<polygon fill="#bfbfbf" stroke="black" points="823.5,-78.5 823.5,-97.5 890.5,-97.5 890.5,-78.5 823.5,-78.5"/>
<text text-anchor="middle" x="857" y="-85.5" font-family="Helvetica,sans-Serif" font-size="10.00">cgal_defs.h</text>
</a>
</g>
</g>
<!-- Node2 -->
<g id="node2" class="node">
<title>Node2</title>
<g id="a_node2"><a xlink:title=" ">
<polygon fill="white" stroke="#bfbfbf" points="0,-11.5 0,-30.5 130,-30.5 130,-11.5 0,-11.5"/>
<text text-anchor="middle" x="65" y="-18.5" font-family="Helvetica,sans-Serif" font-size="10.00">CGAL/Simple_cartesian.h</text>
</a>
</g>
</g>
<!-- Node1&#45;&gt;Node2 -->
<g id="edge1" class="edge">
<title>Node1&#45;&gt;Node2</title>
<path fill="none" stroke="midnightblue" d="M823.45,-87.28C720.45,-87.65 399.95,-84.99 139,-42 126.48,-39.94 113.03,-36.64 101.07,-33.31"/>
<polygon fill="midnightblue" stroke="midnightblue" points="102.01,-29.94 91.43,-30.53 100.07,-36.66 102.01,-29.94"/>
</g>
<!-- Node3 -->
<g id="node3" class="node">
<title>Node3</title>
<g id="a_node3"><a xlink:title=" ">
<polygon fill="white" stroke="#bfbfbf" points="148,-11.5 148,-30.5 252,-30.5 252,-11.5 148,-11.5"/>
<text text-anchor="middle" x="200" y="-18.5" font-family="Helvetica,sans-Serif" font-size="10.00">CGAL/AABB_tree.h</text>
</a>
</g>
</g>
<!-- Node1&#45;&gt;Node3 -->
<g id="edge2" class="edge">
<title>Node1&#45;&gt;Node3</title>
<path fill="none" stroke="midnightblue" d="M823.34,-87.28C731.96,-87.45 471.94,-83.9 261,-42 251.21,-40.05 240.8,-37.02 231.4,-33.9"/>
<polygon fill="midnightblue" stroke="midnightblue" points="232.28,-30.5 221.68,-30.53 229.98,-37.11 232.28,-30.5"/>
</g>
<!-- Node4 -->
<g id="node4" class="node">
<title>Node4</title>
<g id="a_node4"><a xlink:title=" ">
<polygon fill="white" stroke="#bfbfbf" points="270.5,-11.5 270.5,-30.5 379.5,-30.5 379.5,-11.5 270.5,-11.5"/>
<text text-anchor="middle" x="325" y="-18.5" font-family="Helvetica,sans-Serif" font-size="10.00">CGAL/AABB_traits.h</text>
</a>
</g>
</g>
<!-- Node1&#45;&gt;Node4 -->
<g id="edge3" class="edge">
<title>Node1&#45;&gt;Node4</title>
<path fill="none" stroke="midnightblue" d="M823.46,-86.15C746.12,-83.68 549.62,-74.45 389,-42 378.84,-39.95 368,-36.9 358.19,-33.8"/>
<polygon fill="midnightblue" stroke="midnightblue" points="359,-30.38 348.4,-30.59 356.81,-37.04 359,-30.38"/>
</g>
<!-- Node5 -->
<g id="node5" class="node">
<title>Node5</title>
<g id="a_node5"><a xlink:title=" ">
<polygon fill="white" stroke="#bfbfbf" points="398,-6 398,-36 508,-36 508,-6 398,-6"/>
<text text-anchor="start" x="406" y="-24" font-family="Helvetica,sans-Serif" font-size="10.00">CGAL/AABB_triangle</text>
<text text-anchor="middle" x="453" y="-13" font-family="Helvetica,sans-Serif" font-size="10.00">_primitive.h</text>
</a>
</g>
</g>
<!-- Node1&#45;&gt;Node5 -->
<g id="edge4" class="edge">
<title>Node1&#45;&gt;Node5</title>
<path fill="none" stroke="midnightblue" d="M823.37,-84.47C761.95,-79.43 627.76,-66.45 517,-42 512.84,-41.08 508.57,-40.02 504.3,-38.87"/>
<polygon fill="midnightblue" stroke="midnightblue" points="504.95,-35.42 494.38,-36.06 503.05,-42.15 504.95,-35.42"/>
</g>
<!-- Node6 -->
<g id="node6" class="node">
<title>Node6</title>
<g id="a_node6"><a xlink:title=" ">
<polygon fill="white" stroke="#bfbfbf" points="526,-0.5 526,-41.5 648,-41.5 648,-0.5 526,-0.5"/>
<text text-anchor="start" x="534" y="-29.5" font-family="Helvetica,sans-Serif" font-size="10.00">CGAL/Exact_predicates</text>
<text text-anchor="start" x="534" y="-18.5" font-family="Helvetica,sans-Serif" font-size="10.00">_exact_constructions</text>
<text text-anchor="middle" x="587" y="-7.5" font-family="Helvetica,sans-Serif" font-size="10.00">_kernel.h</text>
</a>
</g>
</g>
<!-- Node1&#45;&gt;Node6 -->
<g id="edge5" class="edge">
<title>Node1&#45;&gt;Node6</title>
<path fill="none" stroke="midnightblue" d="M823.24,-80.02C785.32,-72.04 721.71,-58.26 657.86,-42.16"/>
<polygon fill="midnightblue" stroke="midnightblue" points="658.58,-38.73 648.03,-39.66 656.86,-45.51 658.58,-38.73"/>
</g>
<!-- Node7 -->
<g id="node7" class="node">
<title>Node7</title>
<g id="a_node7"><a xlink:title=" ">
<polygon fill="white" stroke="#bfbfbf" points="666,-11.5 666,-30.5 780,-30.5 780,-11.5 666,-11.5"/>
<text text-anchor="middle" x="723" y="-18.5" font-family="Helvetica,sans-Serif" font-size="10.00">CGAL/Polyhedron_3.h</text>
</a>
</g>
</g>
<!-- Node1&#45;&gt;Node7 -->
<g id="edge6" class="edge">
<title>Node1&#45;&gt;Node7</title>
<path fill="none" stroke="midnightblue" d="M839.21,-78.37C816.38,-67.3 776.57,-47.99 750,-35.1"/>
<polygon fill="midnightblue" stroke="midnightblue" points="751.39,-31.88 740.87,-30.67 748.34,-38.18 751.39,-31.88"/>
</g>
<!-- Node8 -->
<g id="node8" class="node">
<title>Node8</title>
<g id="a_node8"><a xlink:title=" ">
<polygon fill="white" stroke="#bfbfbf" points="798,-11.5 798,-30.5 916,-30.5 916,-11.5 798,-11.5"/>
<text text-anchor="middle" x="857" y="-18.5" font-family="Helvetica,sans-Serif" font-size="10.00">CGAL/Surface_mesh.h</text>
</a>
</g>
</g>
<!-- Node1&#45;&gt;Node8 -->
<g id="edge7" class="edge">
<title>Node1&#45;&gt;Node8</title>
<path fill="none" stroke="midnightblue" d="M857,-78.23C857,-68.68 857,-53.12 857,-40.78"/>
<polygon fill="midnightblue" stroke="midnightblue" points="860.5,-40.63 857,-30.63 853.5,-40.63 860.5,-40.63"/>
</g>
<!-- Node9 -->
<g id="node9" class="node">
<title>Node9</title>
<g id="a_node9"><a xlink:title=" ">
<polygon fill="white" stroke="#bfbfbf" points="934,-11.5 934,-30.5 1068,-30.5 1068,-11.5 934,-11.5"/>
<text text-anchor="middle" x="1001" y="-18.5" font-family="Helvetica,sans-Serif" font-size="10.00">CGAL/Nef_polyhedron_3.h</text>
</a>
</g>
</g>
<!-- Node1&#45;&gt;Node9 -->
<g id="edge8" class="edge">
<title>Node1&#45;&gt;Node9</title>
<path fill="none" stroke="midnightblue" d="M876.12,-78.37C900.76,-67.25 943.81,-47.82 972.36,-34.93"/>
<polygon fill="midnightblue" stroke="midnightblue" points="974.12,-37.97 981.8,-30.67 971.24,-31.59 974.12,-37.97"/>
</g>
<!-- Node10 -->
<g id="node10" class="node">
<title>Node10</title>
<g id="a_node10"><a xlink:title=" ">
<polygon fill="white" stroke="#bfbfbf" points="1086,-6 1086,-36 1264,-36 1264,-6 1086,-6"/>
<text text-anchor="start" x="1094" y="-24" font-family="Helvetica,sans-Serif" font-size="10.00">CGAL/boost/graph/convert</text>
<text text-anchor="middle" x="1175" y="-13" font-family="Helvetica,sans-Serif" font-size="10.00">_nef_polyhedron_to_polygon_mesh.h</text>
</a>
</g>
</g>
<!-- Node1&#45;&gt;Node10 -->
<g id="edge9" class="edge">
<title>Node1&#45;&gt;Node10</title>
<path fill="none" stroke="midnightblue" d="M890.73,-80.11C939.31,-70.18 1030.37,-51.56 1096.37,-38.07"/>
<polygon fill="midnightblue" stroke="midnightblue" points="1097.23,-41.47 1106.32,-36.04 1095.82,-34.61 1097.23,-41.47"/>
</g>
<!-- Node11 -->
<g id="node11" class="node">
<title>Node11</title>
<g id="a_node11"><a xlink:title=" ">
<polygon fill="white" stroke="#bfbfbf" points="1282,-0.5 1282,-41.5 1404,-41.5 1404,-0.5 1282,-0.5"/>
<text text-anchor="start" x="1290" y="-29.5" font-family="Helvetica,sans-Serif" font-size="10.00">CGAL/Exact_predicates</text>
<text text-anchor="start" x="1290" y="-18.5" font-family="Helvetica,sans-Serif" font-size="10.00">_inexact_constructions</text>
<text text-anchor="middle" x="1343" y="-7.5" font-family="Helvetica,sans-Serif" font-size="10.00">_kernel.h</text>
</a>
</g>
</g>
<!-- Node1&#45;&gt;Node11 -->
<g id="edge10" class="edge">
<title>Node1&#45;&gt;Node11</title>
<path fill="none" stroke="midnightblue" d="M890.72,-85.31C960.32,-81.39 1124.93,-69.98 1271.6,-42.11"/>
<polygon fill="midnightblue" stroke="midnightblue" points="1272.53,-45.49 1281.68,-40.16 1271.2,-38.62 1272.53,-45.49"/>
</g>
<!-- Node12 -->
<g id="node12" class="node">
<title>Node12</title>
<g id="a_node12"><a xlink:title=" ">
<polygon fill="white" stroke="#bfbfbf" points="1422,-6 1422,-36 1586,-36 1586,-6 1422,-6"/>
<text text-anchor="start" x="1430" y="-24" font-family="Helvetica,sans-Serif" font-size="10.00">CGAL/Polygon_mesh_processing</text>
<text text-anchor="middle" x="1504" y="-13" font-family="Helvetica,sans-Serif" font-size="10.00">/corefinement.h</text>
</a>
</g>
</g>
<!-- Node1&#45;&gt;Node12 -->
<g id="edge11" class="edge">
<title>Node1&#45;&gt;Node12</title>
<path fill="none" stroke="midnightblue" d="M890.71,-85.86C977.65,-82.59 1216.42,-71.42 1413,-42 1420.34,-40.9 1427.97,-39.55 1435.56,-38.08"/>
<polygon fill="midnightblue" stroke="midnightblue" points="1436.36,-41.49 1445.47,-36.09 1434.98,-34.63 1436.36,-41.49"/>
</g>
<!-- Node13 -->
<g id="node13" class="node">
<title>Node13</title>
<g id="a_node13"><a xlink:title=" ">
<polygon fill="white" stroke="#bfbfbf" points="1604,-6 1604,-36 1768,-36 1768,-6 1604,-6"/>
<text text-anchor="start" x="1612" y="-24" font-family="Helvetica,sans-Serif" font-size="10.00">CGAL/Polygon_mesh_processing</text>
<text text-anchor="middle" x="1686" y="-13" font-family="Helvetica,sans-Serif" font-size="10.00">/remesh.h</text>
</a>
</g>
</g>
<!-- Node1&#45;&gt;Node13 -->
<g id="edge12" class="edge">
<title>Node1&#45;&gt;Node13</title>
<path fill="none" stroke="midnightblue" d="M890.65,-86.8C995.46,-85.8 1325.16,-79.65 1595,-42 1602.66,-40.93 1610.63,-39.56 1618.53,-38.05"/>
<polygon fill="midnightblue" stroke="midnightblue" points="1619.36,-41.45 1628.48,-36.06 1617.98,-34.59 1619.36,-41.45"/>
</g>
<!-- Node14 -->
<g id="node14" class="node">
<title>Node14</title>
<g id="a_node14"><a xlink:title=" ">
<polygon fill="white" stroke="#bfbfbf" points="1786,-11.5 1786,-30.5 1934,-30.5 1934,-11.5 1786,-11.5"/>
<text text-anchor="middle" x="1860" y="-18.5" font-family="Helvetica,sans-Serif" font-size="10.00">CGAL/boost/graph/selection.h</text>
</a>
</g>
</g>
<!-- Node1&#45;&gt;Node14 -->
<g id="edge13" class="edge">
<title>Node1&#45;&gt;Node14</title>
<path fill="none" stroke="midnightblue" d="M890.61,-86.2C1034.67,-82.65 1600.71,-67.32 1777,-42 1791.26,-39.95 1806.66,-36.57 1820.28,-33.17"/>
<polygon fill="midnightblue" stroke="midnightblue" points="1821.49,-36.48 1830.3,-30.59 1819.74,-29.7 1821.49,-36.48"/>
</g>
</g>
</svg>
