<?xml version="1.0" encoding="UTF-8" standalone="no"?>
<!DOCTYPE svg PUBLIC "-//W3C//DTD SVG 1.1//EN"
 "http://www.w3.org/Graphics/SVG/1.1/DTD/svg11.dtd">
<!-- Generated by graphviz version 2.44.1 (0)
 -->
<!-- Title: vtkSurface::CleanConnectivity Pages: 1 -->
<svg width="1137pt" height="477pt"
 viewBox="0.00 0.00 1137.00 477.00" xmlns="http://www.w3.org/2000/svg" xmlns:xlink="http://www.w3.org/1999/xlink">
<g id="graph0" class="graph" transform="scale(1 1) rotate(0) translate(4 473)">
<title>vtkSurface::CleanConnectivity</title>
<polygon fill="white" stroke="transparent" points="-4,4 -4,-473 1133,-473 1133,4 -4,4"/>
<!-- Node1 -->
<g id="node1" class="node">
<title>Node1</title>
<g id="a_node1"><a xlink:title="Builds a 1 connected component mesh from the mesh in two steps: First: merge the points which are clo...">
<polygon fill="#bfbfbf" stroke="black" points="0,-159.5 0,-178.5 150,-178.5 150,-159.5 0,-159.5"/>
<text text-anchor="middle" x="75" y="-166.5" font-family="Helvetica,sans-Serif" font-size="10.00">vtkSurface::CleanConnectivity</text>
</a>
</g>
</g>
<!-- Node2 -->
<g id="node2" class="node">
<title>Node2</title>
<g id="a_node2"><a xlink:href="../../d3/d13/classvtk_surface_base.html#a6e6f179eb028cec1da57d67a713e64b4" target="_top" xlink:title="adds an edge (v1,v2) to the vtkSurface and returns its Id">
<polygon fill="white" stroke="black" points="398,-449.5 398,-468.5 530,-468.5 530,-449.5 398,-449.5"/>
<text text-anchor="middle" x="464" y="-456.5" font-family="Helvetica,sans-Serif" font-size="10.00">vtkSurfaceBase::AddEdge</text>
</a>
</g>
</g>
<!-- Node1&#45;&gt;Node2 -->
<g id="edge1" class="edge">
<title>Node1&#45;&gt;Node2</title>
<path fill="none" stroke="midnightblue" d="M78.75,-178.82C88.15,-210.69 122.05,-312.3 186,-367 243.27,-415.99 327.48,-439.11 388.01,-449.88"/>
<polygon fill="midnightblue" stroke="midnightblue" points="387.44,-453.33 397.89,-451.57 388.62,-446.43 387.44,-453.33"/>
</g>
<!-- Node3 -->
<g id="node3" class="node">
<title>Node3</title>
<g id="a_node3"><a xlink:href="../../d3/d13/classvtk_surface_base.html#abb20d4428cd6182c950aff49ac550c29" target="_top" xlink:title="Embeds a vtkPolyData into a vtkSurfaceBase object.">
<polygon fill="white" stroke="black" points="195.5,-327 195.5,-357 339.5,-357 339.5,-327 195.5,-327"/>
<text text-anchor="start" x="203.5" y="-345" font-family="Helvetica,sans-Serif" font-size="10.00">vtkSurfaceBase::CreateFrom</text>
<text text-anchor="middle" x="267.5" y="-334" font-family="Helvetica,sans-Serif" font-size="10.00">PolyData</text>
</a>
</g>
</g>
<!-- Node1&#45;&gt;Node3 -->
<g id="edge2" class="edge">
<title>Node1&#45;&gt;Node3</title>
<path fill="none" stroke="midnightblue" d="M86.51,-178.55C116.04,-205.37 200.32,-281.9 242.23,-319.96"/>
<polygon fill="midnightblue" stroke="midnightblue" points="240.02,-322.68 249.78,-326.81 244.73,-317.5 240.02,-322.68"/>
</g>
<!-- Node12 -->
<g id="node12" class="node">
<title>Node12</title>
<g id="a_node12"><a xlink:href="../../d3/d13/classvtk_surface_base.html#acf6e6f74c51e5a7fb7339d79017d215e" target="_top" xlink:title="Returns the Id of the edge (v1,v2).">
<polygon fill="white" stroke="black" points="812.5,-225.5 812.5,-244.5 935.5,-244.5 935.5,-225.5 812.5,-225.5"/>
<text text-anchor="middle" x="874" y="-232.5" font-family="Helvetica,sans-Serif" font-size="10.00">vtkSurfaceBase::IsEdge</text>
</a>
</g>
</g>
<!-- Node1&#45;&gt;Node12 -->
<g id="edge23" class="edge">
<title>Node1&#45;&gt;Node12</title>
<path fill="none" stroke="midnightblue" d="M92.85,-178.59C113.88,-189.98 151.31,-208.4 186,-216 406.49,-264.32 676.28,-251.6 802.09,-241.67"/>
<polygon fill="midnightblue" stroke="midnightblue" points="802.67,-245.13 812.35,-240.84 802.1,-238.15 802.67,-245.13"/>
</g>
<!-- Node16 -->
<g id="node16" class="node">
<title>Node16</title>
<g id="a_node16"><a xlink:href="../../d1/dfa/classvtk_surface.html#a946489597d1e648f21c30393b379de25" target="_top" xlink:title=" ">
<polygon fill="white" stroke="black" points="194.5,-176 194.5,-206 340.5,-206 340.5,-176 194.5,-176"/>
<text text-anchor="start" x="202.5" y="-194" font-family="Helvetica,sans-Serif" font-size="10.00">vtkSurface::DeleteConnected</text>
<text text-anchor="middle" x="267.5" y="-183" font-family="Helvetica,sans-Serif" font-size="10.00">Components</text>
</a>
</g>
</g>
<!-- Node1&#45;&gt;Node16 -->
<g id="edge16" class="edge">
<title>Node1&#45;&gt;Node16</title>
<path fill="none" stroke="midnightblue" d="M150.2,-177.57C161.32,-178.85 172.84,-180.18 184.11,-181.49"/>
<polygon fill="midnightblue" stroke="midnightblue" points="184.04,-185 194.38,-182.67 184.85,-178.05 184.04,-185"/>
</g>
<!-- Node17 -->
<g id="node17" class="node">
<title>Node17</title>
<g id="a_node17"><a xlink:href="../../d1/dfa/classvtk_surface.html#acfcf9e454d6840105295808435c80f84" target="_top" xlink:title=" ">
<polygon fill="white" stroke="black" points="190,-137.5 190,-156.5 345,-156.5 345,-137.5 190,-137.5"/>
<text text-anchor="middle" x="267.5" y="-144.5" font-family="Helvetica,sans-Serif" font-size="10.00">vtkSurface::DeleteEdgeLengths</text>
</a>
</g>
</g>
<!-- Node1&#45;&gt;Node17 -->
<g id="edge17" class="edge">
<title>Node1&#45;&gt;Node17</title>
<path fill="none" stroke="midnightblue" d="M150.2,-160.43C159.89,-159.31 169.89,-158.16 179.76,-157.02"/>
<polygon fill="midnightblue" stroke="midnightblue" points="180.46,-160.46 189.99,-155.84 179.66,-153.51 180.46,-160.46"/>
</g>
<!-- Node18 -->
<g id="node18" class="node">
<title>Node18</title>
<g id="a_node18"><a xlink:href="../../d1/dfa/classvtk_surface.html#ae52ed54bd4ec3f6e0380b5e08f8465d0" target="_top" xlink:title="Computes the connected components of the mesh.">
<polygon fill="white" stroke="black" points="201,-88 201,-118 334,-118 334,-88 201,-88"/>
<text text-anchor="start" x="209" y="-106" font-family="Helvetica,sans-Serif" font-size="10.00">vtkSurface::GetConnected</text>
<text text-anchor="middle" x="267.5" y="-95" font-family="Helvetica,sans-Serif" font-size="10.00">Components</text>
</a>
</g>
</g>
<!-- Node1&#45;&gt;Node18 -->
<g id="edge18" class="edge">
<title>Node1&#45;&gt;Node18</title>
<path fill="none" stroke="midnightblue" d="M100.33,-159.49C122.52,-150.92 156.3,-138.14 186,-128 192.76,-125.69 199.87,-123.36 206.95,-121.09"/>
<polygon fill="midnightblue" stroke="midnightblue" points="208.07,-124.4 216.55,-118.04 205.96,-117.73 208.07,-124.4"/>
</g>
<!-- Node20 -->
<g id="node20" class="node">
<title>Node20</title>
<g id="a_node20"><a xlink:href="../../d1/dfa/classvtk_surface.html#abe33f0d274c3eb53ac3dcdfbffba8652" target="_top" xlink:title="Returns the euclidian distance between the vertices V1 and V2.">
<polygon fill="white" stroke="black" points="186,-39 186,-69 349,-69 349,-39 186,-39"/>
<text text-anchor="start" x="194" y="-57" font-family="Helvetica,sans-Serif" font-size="10.00">vtkSurface::GetDistanceBetween</text>
<text text-anchor="middle" x="267.5" y="-46" font-family="Helvetica,sans-Serif" font-size="10.00">Vertices</text>
</a>
</g>
</g>
<!-- Node1&#45;&gt;Node20 -->
<g id="edge21" class="edge">
<title>Node1&#45;&gt;Node20</title>
<path fill="none" stroke="midnightblue" d="M85.04,-159.27C102.71,-140.81 143.8,-100.53 186,-78 189.45,-76.16 193.05,-74.44 196.75,-72.84"/>
<polygon fill="midnightblue" stroke="midnightblue" points="198.1,-76.07 206.08,-69.1 195.5,-69.57 198.1,-76.07"/>
</g>
<!-- Node22 -->
<g id="node22" class="node">
<title>Node22</title>
<g id="a_node22"><a xlink:href="../../d1/dfa/classvtk_surface.html#a138305294df167d3fa13e91225f7a593" target="_top" xlink:title="The Constructor vtkSurface::New();.">
<polygon fill="white" stroke="black" points="222.5,-0.5 222.5,-19.5 312.5,-19.5 312.5,-0.5 222.5,-0.5"/>
<text text-anchor="middle" x="267.5" y="-7.5" font-family="Helvetica,sans-Serif" font-size="10.00">vtkSurface::New</text>
</a>
</g>
</g>
<!-- Node1&#45;&gt;Node22 -->
<g id="edge24" class="edge">
<title>Node1&#45;&gt;Node22</title>
<path fill="none" stroke="midnightblue" d="M80.62,-159.36C93.44,-133.72 132.07,-63.44 186,-29 193.91,-23.95 203.03,-20.24 212.22,-17.51"/>
<polygon fill="midnightblue" stroke="midnightblue" points="213.38,-20.83 222.17,-14.93 211.62,-14.05 213.38,-20.83"/>
</g>
<!-- Node3&#45;&gt;Node2 -->
<g id="edge3" class="edge">
<title>Node3&#45;&gt;Node2</title>
<path fill="none" stroke="midnightblue" d="M295.3,-357.22C311.68,-367.16 332.57,-381.05 349,-396 367.69,-413 363.62,-426.54 385,-440 388.35,-442.11 391.93,-443.99 395.62,-445.66"/>
<polygon fill="midnightblue" stroke="midnightblue" points="394.44,-448.96 405.03,-449.39 397.03,-442.45 394.44,-448.96"/>
</g>
<!-- Node4 -->
<g id="node4" class="node">
<title>Node4</title>
<g id="a_node4"><a xlink:href="../../d3/d13/classvtk_surface_base.html#a1bbae24f61b9e277316ff660697790be" target="_top" xlink:title=" ">
<polygon fill="white" stroke="black" points="400,-400 400,-430 528,-430 528,-400 400,-400"/>
<text text-anchor="start" x="408" y="-418" font-family="Helvetica,sans-Serif" font-size="10.00">vtkSurfaceBase::Allocate</text>
<text text-anchor="middle" x="464" y="-407" font-family="Helvetica,sans-Serif" font-size="10.00">EdgesAttributes</text>
</a>
</g>
</g>
<!-- Node3&#45;&gt;Node4 -->
<g id="edge4" class="edge">
<title>Node3&#45;&gt;Node4</title>
<path fill="none" stroke="midnightblue" d="M301.8,-357.05C324.91,-367.23 356.54,-380.66 385,-391 390.46,-392.98 396.17,-394.95 401.91,-396.85"/>
<polygon fill="midnightblue" stroke="midnightblue" points="400.98,-400.22 411.57,-399.97 403.14,-393.56 400.98,-400.22"/>
</g>
<!-- Node5 -->
<g id="node5" class="node">
<title>Node5</title>
<g id="a_node5"><a xlink:href="../../d3/d13/classvtk_surface_base.html#a447cd5aee68a7db76285f963493d7560" target="_top" xlink:title=" ">
<polygon fill="white" stroke="black" points="400,-351 400,-381 528,-381 528,-351 400,-351"/>
<text text-anchor="start" x="408" y="-369" font-family="Helvetica,sans-Serif" font-size="10.00">vtkSurfaceBase::Allocate</text>
<text text-anchor="middle" x="464" y="-358" font-family="Helvetica,sans-Serif" font-size="10.00">PolygonsAttributes</text>
</a>
</g>
</g>
<!-- Node3&#45;&gt;Node5 -->
<g id="edge5" class="edge">
<title>Node3&#45;&gt;Node5</title>
<path fill="none" stroke="midnightblue" d="M339.54,-350.77C355.9,-352.78 373.32,-354.93 389.77,-356.96"/>
<polygon fill="midnightblue" stroke="midnightblue" points="389.51,-360.46 399.87,-358.21 390.37,-353.51 389.51,-360.46"/>
</g>
<!-- Node6 -->
<g id="node6" class="node">
<title>Node6</title>
<g id="a_node6"><a xlink:href="../../d3/d13/classvtk_surface_base.html#ac6bf9896f86fffac680b5983649d7fea" target="_top" xlink:title=" ">
<polygon fill="white" stroke="black" points="400,-302 400,-332 528,-332 528,-302 400,-302"/>
<text text-anchor="start" x="408" y="-320" font-family="Helvetica,sans-Serif" font-size="10.00">vtkSurfaceBase::Allocate</text>
<text text-anchor="middle" x="464" y="-309" font-family="Helvetica,sans-Serif" font-size="10.00">VerticesAttributes</text>
</a>
</g>
</g>
<!-- Node3&#45;&gt;Node6 -->
<g id="edge6" class="edge">
<title>Node3&#45;&gt;Node6</title>
<path fill="none" stroke="midnightblue" d="M339.54,-332.87C355.9,-330.77 373.32,-328.53 389.77,-326.41"/>
<polygon fill="midnightblue" stroke="midnightblue" points="390.39,-329.86 399.87,-325.11 389.5,-322.92 390.39,-329.86"/>
</g>
<!-- Node7 -->
<g id="node7" class="node">
<title>Node7</title>
<g id="a_node7"><a xlink:href="../../d3/d13/classvtk_surface_base.html#aee0f64de68a21e569228534cfba3dc88" target="_top" xlink:title="Reorders Cells description so that each cell is well oriented.">
<polygon fill="white" stroke="black" points="385,-263.5 385,-282.5 543,-282.5 543,-263.5 385,-263.5"/>
<text text-anchor="middle" x="464" y="-270.5" font-family="Helvetica,sans-Serif" font-size="10.00">vtkSurfaceBase::CheckNormals</text>
</a>
</g>
</g>
<!-- Node3&#45;&gt;Node7 -->
<g id="edge7" class="edge">
<title>Node3&#45;&gt;Node7</title>
<path fill="none" stroke="midnightblue" d="M300.65,-326.97C323.77,-316.53 355.89,-302.8 385,-293 393.38,-290.18 402.37,-287.54 411.17,-285.15"/>
<polygon fill="midnightblue" stroke="midnightblue" points="412.19,-288.5 420.97,-282.57 410.41,-281.73 412.19,-288.5"/>
</g>
<!-- Node8 -->
<g id="node8" class="node">
<title>Node8</title>
<g id="a_node8"><a xlink:href="../../d3/d13/classvtk_surface_base.html#af6106de85da3d9bb09d35c8f31cbb191" target="_top" xlink:title="the method which keeps the orientation of the faces consistent. This is called whenever a new face is...">
<polygon fill="white" stroke="black" points="579,-302 579,-332 755,-332 755,-302 579,-302"/>
<text text-anchor="start" x="587" y="-320" font-family="Helvetica,sans-Serif" font-size="10.00">vtkSurfaceBase::ConquerOrientation</text>
<text text-anchor="middle" x="667" y="-309" font-family="Helvetica,sans-Serif" font-size="10.00">FromFace</text>
</a>
</g>
</g>
<!-- Node7&#45;&gt;Node8 -->
<g id="edge8" class="edge">
<title>Node7&#45;&gt;Node8</title>
<path fill="none" stroke="midnightblue" d="M508.61,-282.55C531.55,-287.57 560.37,-293.88 587.07,-299.72"/>
<polygon fill="midnightblue" stroke="midnightblue" points="586.66,-303.22 597.18,-301.93 588.16,-296.38 586.66,-303.22"/>
</g>
<!-- Node15 -->
<g id="node15" class="node">
<title>Node15</title>
<g id="a_node15"><a xlink:href="../../d3/d13/classvtk_surface_base.html#a2f903d435003385ebe7839c1f157db7f" target="_top" xlink:title="returns 1 if Face is actually used to store a polygon (not deleted). Returns 0 otherwise">
<polygon fill="white" stroke="black" points="592,-263.5 592,-282.5 742,-282.5 742,-263.5 592,-263.5"/>
<text text-anchor="middle" x="667" y="-270.5" font-family="Helvetica,sans-Serif" font-size="10.00">vtkSurfaceBase::IsFaceActive</text>
</a>
</g>
</g>
<!-- Node7&#45;&gt;Node15 -->
<g id="edge15" class="edge">
<title>Node7&#45;&gt;Node15</title>
<path fill="none" stroke="midnightblue" d="M543.29,-273C555.9,-273 569,-273 581.75,-273"/>
<polygon fill="midnightblue" stroke="midnightblue" points="581.88,-276.5 591.88,-273 581.88,-269.5 581.88,-276.5"/>
</g>
<!-- Node9 -->
<g id="node9" class="node">
<title>Node9</title>
<g id="a_node9"><a xlink:href="../../d5/d9c/vtksurfacebase_8cxx.html#a2e8c26ea64993c77629c368633da5ff0" target="_top" xlink:title=" ">
<polygon fill="white" stroke="black" points="830.5,-380.5 830.5,-399.5 917.5,-399.5 917.5,-380.5 830.5,-380.5"/>
<text text-anchor="middle" x="874" y="-387.5" font-family="Helvetica,sans-Serif" font-size="10.00">FindVertexIndex</text>
</a>
</g>
</g>
<!-- Node8&#45;&gt;Node9 -->
<g id="edge9" class="edge">
<title>Node8&#45;&gt;Node9</title>
<path fill="none" stroke="midnightblue" d="M697.96,-332.03C722.5,-343.88 758.35,-360.16 791,-371 800.47,-374.14 810.71,-376.96 820.65,-379.4"/>
<polygon fill="midnightblue" stroke="midnightblue" points="819.91,-382.83 830.45,-381.72 821.52,-376.01 819.91,-382.83"/>
</g>
<!-- Node10 -->
<g id="node10" class="node">
<title>Node10</title>
<g id="a_node10"><a xlink:href="../../d3/d13/classvtk_surface_base.html#a1f8125584169cbf9a07b85a83d90d3da" target="_top" xlink:title="Returns f1 and f2 as the faces adjacent to the edge.">
<polygon fill="white" stroke="black" points="795,-342.5 795,-361.5 953,-361.5 953,-342.5 795,-342.5"/>
<text text-anchor="middle" x="874" y="-349.5" font-family="Helvetica,sans-Serif" font-size="10.00">vtkSurfaceBase::GetEdgeFaces</text>
</a>
</g>
</g>
<!-- Node8&#45;&gt;Node10 -->
<g id="edge10" class="edge">
<title>Node8&#45;&gt;Node10</title>
<path fill="none" stroke="midnightblue" d="M755.24,-331.89C772.65,-334.87 790.67,-337.94 807.22,-340.77"/>
<polygon fill="midnightblue" stroke="midnightblue" points="806.87,-344.26 817.31,-342.49 808.05,-337.36 806.87,-344.26"/>
</g>
<!-- Node11 -->
<g id="node11" class="node">
<title>Node11</title>
<g id="a_node11"><a xlink:href="../../d3/d13/classvtk_surface_base.html#a6d0fece7168e91590325097ee7a320a2" target="_top" xlink:title="Returns v1 and v2 as the vertices bounding the edge.">
<polygon fill="white" stroke="black" points="791,-304.5 791,-323.5 957,-323.5 957,-304.5 791,-304.5"/>
<text text-anchor="middle" x="874" y="-311.5" font-family="Helvetica,sans-Serif" font-size="10.00">vtkSurfaceBase::GetEdgeVertices</text>
</a>
</g>
</g>
<!-- Node8&#45;&gt;Node11 -->
<g id="edge11" class="edge">
<title>Node8&#45;&gt;Node11</title>
<path fill="none" stroke="midnightblue" d="M755.24,-315.72C763.6,-315.6 772.11,-315.48 780.52,-315.35"/>
<polygon fill="midnightblue" stroke="midnightblue" points="780.78,-318.85 790.73,-315.2 780.68,-311.85 780.78,-318.85"/>
</g>
<!-- Node8&#45;&gt;Node12 -->
<g id="edge12" class="edge">
<title>Node8&#45;&gt;Node12</title>
<path fill="none" stroke="midnightblue" d="M733.59,-301.98C741.04,-299.16 748.34,-295.86 755,-292 774.3,-280.8 771.6,-268.02 791,-257 797.43,-253.35 804.49,-250.28 811.69,-247.71"/>
<polygon fill="midnightblue" stroke="midnightblue" points="813.11,-250.93 821.54,-244.5 810.95,-244.27 813.11,-250.93"/>
</g>
<!-- Node14 -->
<g id="node14" class="node">
<title>Node14</title>
<g id="a_node14"><a xlink:href="../../d3/d13/classvtk_surface_base.html#a9c77655b36b9fa47039e88d71f1be28a" target="_top" xlink:title="Returns true if the edge is a Manifold one (2 adjacent polygons)">
<polygon fill="white" stroke="black" points="794,-266.5 794,-285.5 954,-285.5 954,-266.5 794,-266.5"/>
<text text-anchor="middle" x="874" y="-273.5" font-family="Helvetica,sans-Serif" font-size="10.00">vtkSurfaceBase::IsEdgeManifold</text>
</a>
</g>
</g>
<!-- Node8&#45;&gt;Node14 -->
<g id="edge14" class="edge">
<title>Node8&#45;&gt;Node14</title>
<path fill="none" stroke="midnightblue" d="M743.17,-301.97C766.95,-297.21 792.85,-292.03 815.22,-287.56"/>
<polygon fill="midnightblue" stroke="midnightblue" points="816.11,-290.95 825.23,-285.55 814.74,-284.08 816.11,-290.95"/>
</g>
<!-- Node13 -->
<g id="node13" class="node">
<title>Node13</title>
<g id="a_node13"><a xlink:href="../../d3/d13/classvtk_surface_base.html#a10d9a9c6daefe1c004e27eba5d464738" target="_top" xlink:title="Returns the list of edges adjacent to the point v1.">
<polygon fill="white" stroke="black" points="993,-198 993,-228 1129,-228 1129,-198 993,-198"/>
<text text-anchor="start" x="1001" y="-216" font-family="Helvetica,sans-Serif" font-size="10.00">vtkSurfaceBase::GetVertex</text>
<text text-anchor="middle" x="1061" y="-205" font-family="Helvetica,sans-Serif" font-size="10.00">NeighbourEdges</text>
</a>
</g>
</g>
<!-- Node12&#45;&gt;Node13 -->
<g id="edge13" class="edge">
<title>Node12&#45;&gt;Node13</title>
<path fill="none" stroke="midnightblue" d="M935.58,-227.8C950.62,-226.01 966.94,-224.07 982.67,-222.2"/>
<polygon fill="midnightblue" stroke="midnightblue" points="983.38,-225.64 992.89,-220.98 982.55,-218.69 983.38,-225.64"/>
</g>
<!-- Node19 -->
<g id="node19" class="node">
<title>Node19</title>
<g id="a_node19"><a xlink:href="../../d3/d13/classvtk_surface_base.html#a6745d1506755b95f1e2bb70337636055" target="_top" xlink:title="Returns the List of Points adjacent to the point v1.">
<polygon fill="white" stroke="black" points="599,-132 599,-162 735,-162 735,-132 599,-132"/>
<text text-anchor="start" x="607" y="-150" font-family="Helvetica,sans-Serif" font-size="10.00">vtkSurfaceBase::GetVertex</text>
<text text-anchor="middle" x="667" y="-139" font-family="Helvetica,sans-Serif" font-size="10.00">Neighbours</text>
</a>
</g>
</g>
<!-- Node18&#45;&gt;Node19 -->
<g id="edge19" class="edge">
<title>Node18&#45;&gt;Node19</title>
<path fill="none" stroke="midnightblue" d="M334.14,-110.27C404.06,-118.01 514.66,-130.25 588.73,-138.45"/>
<polygon fill="midnightblue" stroke="midnightblue" points="588.61,-141.95 598.93,-139.58 589.38,-135 588.61,-141.95"/>
</g>
<!-- Node19&#45;&gt;Node13 -->
<g id="edge20" class="edge">
<title>Node19&#45;&gt;Node13</title>
<path fill="none" stroke="midnightblue" d="M735.39,-158.35C804.17,-169.93 910.79,-187.88 982.9,-200.02"/>
<polygon fill="midnightblue" stroke="midnightblue" points="982.4,-203.48 992.84,-201.69 983.56,-196.58 982.4,-203.48"/>
</g>
<!-- Node21 -->
<g id="node21" class="node">
<title>Node21</title>
<g id="a_node21"><a xlink:href="../../d3/d13/classvtk_surface_base.html#a342d0273e9a72ba4975767cc64c7a83c" target="_top" xlink:title="Returns the coordinates of Point.">
<polygon fill="white" stroke="black" points="398.5,-39 398.5,-69 529.5,-69 529.5,-39 398.5,-39"/>
<text text-anchor="start" x="406.5" y="-57" font-family="Helvetica,sans-Serif" font-size="10.00">vtkSurfaceBase::GetPoint</text>
<text text-anchor="middle" x="464" y="-46" font-family="Helvetica,sans-Serif" font-size="10.00">Coordinates</text>
</a>
</g>
</g>
<!-- Node20&#45;&gt;Node21 -->
<g id="edge22" class="edge">
<title>Node20&#45;&gt;Node21</title>
<path fill="none" stroke="midnightblue" d="M349.01,-54C361.96,-54 375.32,-54 388.12,-54"/>
<polygon fill="midnightblue" stroke="midnightblue" points="388.26,-57.5 398.26,-54 388.26,-50.5 388.26,-57.5"/>
</g>
</g>
</svg>
