<?xml version="1.0" encoding="UTF-8" standalone="no"?>
<!DOCTYPE svg PUBLIC "-//W3C//DTD SVG 1.1//EN"
 "http://www.w3.org/Graphics/SVG/1.1/DTD/svg11.dtd">
<!-- Generated by graphviz version 2.44.0 (0)
 -->
<!-- Title: vtkSurface::~vtkSurface Pages: 1 -->
<svg width="326pt" height="263pt"
 viewBox="0.00 0.00 326.00 263.00" xmlns="http://www.w3.org/2000/svg" xmlns:xlink="http://www.w3.org/1999/xlink">
<g id="graph0" class="graph" transform="scale(1 1) rotate(0) translate(4 259)">
<title>vtkSurface::~vtkSurface</title>
<polygon fill="white" stroke="transparent" points="-4,4 -4,-259 322,-259 322,4 -4,4"/>
<!-- Node1 -->
<g id="node1" class="node">
<title>Node1</title>
<g id="a_node1"><a xlink:title=" ">
<polygon fill="#bfbfbf" stroke="black" points="0,-126 0,-145 123,-145 123,-126 0,-126"/>
<text text-anchor="middle" x="61.5" y="-133" font-family="Helvetica,sans-Serif" font-size="10.00">vtkSurface::~vtkSurface</text>
</a>
</g>
</g>
<!-- Node2 -->
<g id="node2" class="node">
<title>Node2</title>
<g id="a_node2"><a xlink:href="../../d1/dfa/classvtk_surface.html#a946489597d1e648f21c30393b379de25" target="_top" xlink:title=" ">
<polygon fill="white" stroke="black" points="165.5,-224.5 165.5,-254.5 311.5,-254.5 311.5,-224.5 165.5,-224.5"/>
<text text-anchor="start" x="173.5" y="-242.5" font-family="Helvetica,sans-Serif" font-size="10.00">vtkSurface::DeleteConnected</text>
<text text-anchor="middle" x="238.5" y="-231.5" font-family="Helvetica,sans-Serif" font-size="10.00">Components</text>
</a>
</g>
</g>
<!-- Node1&#45;&gt;Node2 -->
<g id="edge1" class="edge">
<title>Node1&#45;&gt;Node2</title>
<path fill="none" stroke="midnightblue" d="M71.74,-145.15C87.95,-161.58 123.22,-195.09 159,-214.5 163,-216.67 167.21,-218.68 171.53,-220.55"/>
<polygon fill="midnightblue" stroke="midnightblue" points="170.52,-223.92 181.1,-224.4 173.13,-217.42 170.52,-223.92"/>
</g>
<!-- Node3 -->
<g id="node3" class="node">
<title>Node3</title>
<g id="a_node3"><a xlink:href="../../d1/dfa/classvtk_surface.html#acfcf9e454d6840105295808435c80f84" target="_top" xlink:title=" ">
<polygon fill="white" stroke="black" points="161,-186 161,-205 316,-205 316,-186 161,-186"/>
<text text-anchor="middle" x="238.5" y="-193" font-family="Helvetica,sans-Serif" font-size="10.00">vtkSurface::DeleteEdgeLengths</text>
</a>
</g>
</g>
<!-- Node1&#45;&gt;Node3 -->
<g id="edge2" class="edge">
<title>Node1&#45;&gt;Node3</title>
<path fill="none" stroke="midnightblue" d="M82.46,-145.12C101.72,-154.13 131.87,-167.52 159,-176.5 166.49,-178.98 174.48,-181.28 182.38,-183.38"/>
<polygon fill="midnightblue" stroke="midnightblue" points="181.75,-186.83 192.31,-185.9 183.48,-180.04 181.75,-186.83"/>
</g>
<!-- Node4 -->
<g id="node4" class="node">
<title>Node4</title>
<g id="a_node4"><a xlink:href="../../d1/dfa/classvtk_surface.html#a48b40d040883d29bd6c3e7ac0310bc5b" target="_top" xlink:title="Cancels the computation of the sharp vertices list.">
<polygon fill="white" stroke="black" points="159,-148 159,-167 318,-167 318,-148 159,-148"/>
<text text-anchor="middle" x="238.5" y="-155" font-family="Helvetica,sans-Serif" font-size="10.00">vtkSurface::DeleteSharpVertices</text>
</a>
</g>
</g>
<!-- Node1&#45;&gt;Node4 -->
<g id="edge3" class="edge">
<title>Node1&#45;&gt;Node4</title>
<path fill="none" stroke="midnightblue" d="M123.22,-143.13C132.45,-144.29 142.12,-145.51 151.76,-146.72"/>
<polygon fill="midnightblue" stroke="midnightblue" points="151.42,-150.21 161.78,-147.98 152.3,-143.26 151.42,-150.21"/>
</g>
<!-- Node5 -->
<g id="node5" class="node">
<title>Node5</title>
<g id="a_node5"><a xlink:href="../../d1/dfa/classvtk_surface.html#a5541a2f5ca3345d7fcb2d2e07f0cfb26" target="_top" xlink:title=" ">
<polygon fill="white" stroke="black" points="169.5,-98.5 169.5,-128.5 307.5,-128.5 307.5,-98.5 169.5,-98.5"/>
<text text-anchor="start" x="177.5" y="-116.5" font-family="Helvetica,sans-Serif" font-size="10.00">vtkSurface::DeleteTriangles</text>
<text text-anchor="middle" x="238.5" y="-105.5" font-family="Helvetica,sans-Serif" font-size="10.00">Areas</text>
</a>
</g>
</g>
<!-- Node1&#45;&gt;Node5 -->
<g id="edge4" class="edge">
<title>Node1&#45;&gt;Node5</title>
<path fill="none" stroke="midnightblue" d="M123.22,-127.87C134.86,-126.4 147.21,-124.85 159.31,-123.33"/>
<polygon fill="midnightblue" stroke="midnightblue" points="159.92,-126.78 169.4,-122.06 159.05,-119.84 159.92,-126.78"/>
</g>
<!-- Node6 -->
<g id="node6" class="node">
<title>Node6</title>
<g id="a_node6"><a xlink:href="../../d1/dfa/classvtk_surface.html#ab6491210ec6530f5a3827e2e92c7aed7" target="_top" xlink:title=" ">
<polygon fill="white" stroke="black" points="169.5,-49.5 169.5,-79.5 307.5,-79.5 307.5,-49.5 169.5,-49.5"/>
<text text-anchor="start" x="177.5" y="-67.5" font-family="Helvetica,sans-Serif" font-size="10.00">vtkSurface::DeleteTriangles</text>
<text text-anchor="middle" x="238.5" y="-56.5" font-family="Helvetica,sans-Serif" font-size="10.00">Normals</text>
</a>
</g>
</g>
<!-- Node1&#45;&gt;Node6 -->
<g id="edge5" class="edge">
<title>Node1&#45;&gt;Node6</title>
<path fill="none" stroke="midnightblue" d="M80.67,-125.92C99.82,-116.04 131.04,-100.56 159,-89.5 164.76,-87.22 170.82,-85 176.91,-82.88"/>
<polygon fill="midnightblue" stroke="midnightblue" points="178.12,-86.16 186.47,-79.64 175.88,-79.53 178.12,-86.16"/>
</g>
<!-- Node7 -->
<g id="node7" class="node">
<title>Node7</title>
<g id="a_node7"><a xlink:href="../../d1/dfa/classvtk_surface.html#a0a9d3c0bc50be0fd45d17d61417c1fba" target="_top" xlink:title=" ">
<polygon fill="white" stroke="black" points="171.5,-0.5 171.5,-30.5 305.5,-30.5 305.5,-0.5 171.5,-0.5"/>
<text text-anchor="start" x="179.5" y="-18.5" font-family="Helvetica,sans-Serif" font-size="10.00">vtkSurface::DeleteVertices</text>
<text text-anchor="middle" x="238.5" y="-7.5" font-family="Helvetica,sans-Serif" font-size="10.00">Areas</text>
</a>
</g>
</g>
<!-- Node1&#45;&gt;Node7 -->
<g id="edge6" class="edge">
<title>Node1&#45;&gt;Node7</title>
<path fill="none" stroke="midnightblue" d="M69.64,-125.92C84.3,-106.91 119.75,-64.19 159,-40.5 162.58,-38.34 166.37,-36.34 170.27,-34.51"/>
<polygon fill="midnightblue" stroke="midnightblue" points="171.74,-37.69 179.53,-30.5 168.96,-31.26 171.74,-37.69"/>
</g>
</g>
</svg>
