<?xml version="1.0" encoding="UTF-8" standalone="no"?>
<!DOCTYPE svg PUBLIC "-//W3C//DTD SVG 1.1//EN"
 "http://www.w3.org/Graphics/SVG/1.1/DTD/svg11.dtd">
<!-- Generated by graphviz version 2.44.1 (0)
 -->
<!-- Title: vtkSurface::GetTriangleNormal Pages: 1 -->
<svg width="361pt" height="78pt"
 viewBox="0.00 0.00 361.00 77.50" xmlns="http://www.w3.org/2000/svg" xmlns:xlink="http://www.w3.org/1999/xlink">
<g id="graph0" class="graph" transform="scale(1 1) rotate(0) translate(4 73.5)">
<title>vtkSurface::GetTriangleNormal</title>
<polygon fill="white" stroke="transparent" points="-4,4 -4,-73.5 357,-73.5 357,4 -4,4"/>
<!-- Node1 -->
<g id="node1" class="node">
<title>Node1</title>
<g id="a_node1"><a xlink:title="Computes the normal of the given triangle.">
<polygon fill="#bfbfbf" stroke="black" points="0,-28 0,-47 152,-47 152,-28 0,-28"/>
<text text-anchor="middle" x="76" y="-35" font-family="Helvetica,sans-Serif" font-size="10.00">vtkSurface::GetTriangleNormal</text>
</a>
</g>
</g>
<!-- Node2 -->
<g id="node2" class="node">
<title>Node2</title>
<g id="a_node2"><a xlink:href="../../d3/d13/classvtk_surface_base.html#aa9651bd726d7c374c30f33dc67707136" target="_top" xlink:title="Returns the vertices v1, v2 and v3 bounding the face.">
<polygon fill="white" stroke="black" points="188,-50 188,-69 353,-69 353,-50 188,-50"/>
<text text-anchor="middle" x="270.5" y="-57" font-family="Helvetica,sans-Serif" font-size="10.00">vtkSurfaceBase::GetFaceVertices</text>
</a>
</g>
</g>
<!-- Node1&#45;&gt;Node2 -->
<g id="edge1" class="edge">
<title>Node1&#45;&gt;Node2</title>
<path fill="none" stroke="midnightblue" d="M152.25,-46.1C160.67,-47.06 169.3,-48.05 177.89,-49.03"/>
<polygon fill="midnightblue" stroke="midnightblue" points="177.6,-52.52 187.94,-50.18 178.4,-45.57 177.6,-52.52"/>
</g>
<!-- Node3 -->
<g id="node3" class="node">
<title>Node3</title>
<g id="a_node3"><a xlink:href="../../d3/d13/classvtk_surface_base.html#a342d0273e9a72ba4975767cc64c7a83c" target="_top" xlink:title="Returns the coordinates of Point.">
<polygon fill="white" stroke="black" points="205,-0.5 205,-30.5 336,-30.5 336,-0.5 205,-0.5"/>
<text text-anchor="start" x="213" y="-18.5" font-family="Helvetica,sans-Serif" font-size="10.00">vtkSurfaceBase::GetPoint</text>
<text text-anchor="middle" x="270.5" y="-7.5" font-family="Helvetica,sans-Serif" font-size="10.00">Coordinates</text>
</a>
</g>
</g>
<!-- Node1&#45;&gt;Node3 -->
<g id="edge2" class="edge">
<title>Node1&#45;&gt;Node3</title>
<path fill="none" stroke="midnightblue" d="M152.25,-28.9C166.25,-27.3 180.88,-25.63 194.86,-24.03"/>
<polygon fill="midnightblue" stroke="midnightblue" points="195.37,-27.49 204.91,-22.88 194.58,-20.54 195.37,-27.49"/>
</g>
</g>
</svg>
