<?xml version="1.0" encoding="UTF-8" standalone="no"?>
<!DOCTYPE svg PUBLIC "-//W3C//DTD SVG 1.1//EN"
 "http://www.w3.org/Graphics/SVG/1.1/DTD/svg11.dtd">
<!-- Generated by graphviz version 2.44.0 (0)
 -->
<!-- Title: vtkSurface::ComputeTrianglesStatistics Pages: 1 -->
<svg width="358pt" height="104pt"
 viewBox="0.00 0.00 358.00 104.00" xmlns="http://www.w3.org/2000/svg" xmlns:xlink="http://www.w3.org/1999/xlink">
<g id="graph0" class="graph" transform="scale(1 1) rotate(0) translate(4 100)">
<title>vtkSurface::ComputeTrianglesStatistics</title>
<polygon fill="white" stroke="transparent" points="-4,4 -4,-100 354,-100 354,4 -4,4"/>
<!-- Node1 -->
<g id="node1" class="node">
<title>Node1</title>
<g id="a_node1"><a xlink:title="Computes the mesh minimal angle, average minimal angle, minimal triangle quality and average triangle...">
<polygon fill="#bfbfbf" stroke="black" points="0,-33 0,-63 149,-63 149,-33 0,-33"/>
<text text-anchor="start" x="8" y="-51" font-family="Helvetica,sans-Serif" font-size="10.00">vtkSurface::ComputeTriangles</text>
<text text-anchor="middle" x="74.5" y="-40" font-family="Helvetica,sans-Serif" font-size="10.00">Statistics</text>
</a>
</g>
</g>
<!-- Node2 -->
<g id="node2" class="node">
<title>Node2</title>
<g id="a_node2"><a xlink:href="../../d3/d13/classvtk_surface_base.html#aa9651bd726d7c374c30f33dc67707136" target="_top" xlink:title="Returns the vertices v1, v2 and v3 bounding the face.">
<polygon fill="white" stroke="black" points="185,-76.5 185,-95.5 350,-95.5 350,-76.5 185,-76.5"/>
<text text-anchor="middle" x="267.5" y="-83.5" font-family="Helvetica,sans-Serif" font-size="10.00">vtkSurfaceBase::GetFaceVertices</text>
</a>
</g>
</g>
<!-- Node1&#45;&gt;Node2 -->
<g id="edge1" class="edge">
<title>Node1&#45;&gt;Node2</title>
<path fill="none" stroke="midnightblue" d="M149.07,-62.64C168.85,-66.57 189.95,-70.77 208.73,-74.51"/>
<polygon fill="midnightblue" stroke="midnightblue" points="208.12,-77.95 218.61,-76.47 209.49,-71.09 208.12,-77.95"/>
</g>
<!-- Node3 -->
<g id="node3" class="node">
<title>Node3</title>
<g id="a_node3"><a xlink:href="../../d3/d13/classvtk_surface_base.html#a2f903d435003385ebe7839c1f157db7f" target="_top" xlink:title="returns 1 if Face is actually used to store a polygon (not deleted). Returns 0 otherwise">
<polygon fill="white" stroke="black" points="192.5,-38.5 192.5,-57.5 342.5,-57.5 342.5,-38.5 192.5,-38.5"/>
<text text-anchor="middle" x="267.5" y="-45.5" font-family="Helvetica,sans-Serif" font-size="10.00">vtkSurfaceBase::IsFaceActive</text>
</a>
</g>
</g>
<!-- Node1&#45;&gt;Node3 -->
<g id="edge2" class="edge">
<title>Node1&#45;&gt;Node3</title>
<path fill="none" stroke="midnightblue" d="M149.07,-48C159.93,-48 171.2,-48 182.25,-48"/>
<polygon fill="midnightblue" stroke="midnightblue" points="182.33,-51.5 192.33,-48 182.33,-44.5 182.33,-51.5"/>
</g>
<!-- Node4 -->
<g id="node4" class="node">
<title>Node4</title>
<g id="a_node4"><a xlink:href="../../da/d7b/vtksurface_8cxx.html#a7dfabf648221e2ab9f1d4babc35dd051" target="_top" xlink:title=" ">
<polygon fill="white" stroke="black" points="221.5,-0.5 221.5,-19.5 313.5,-19.5 313.5,-0.5 221.5,-0.5"/>
<text text-anchor="middle" x="267.5" y="-7.5" font-family="Helvetica,sans-Serif" font-size="10.00">TriangleMinAngle</text>
</a>
</g>
</g>
<!-- Node1&#45;&gt;Node4 -->
<g id="edge3" class="edge">
<title>Node1&#45;&gt;Node4</title>
<path fill="none" stroke="midnightblue" d="M149.07,-33.36C169.83,-29.23 192.06,-24.81 211.52,-20.94"/>
<polygon fill="midnightblue" stroke="midnightblue" points="212.3,-24.35 221.43,-18.97 210.94,-17.49 212.3,-24.35"/>
</g>
</g>
</svg>
