<?xml version="1.0" encoding="UTF-8" standalone="no"?>
<!DOCTYPE svg PUBLIC "-//W3C//DTD SVG 1.1//EN"
 "http://www.w3.org/Graphics/SVG/1.1/DTD/svg11.dtd">
<!-- Generated by graphviz version 2.44.0 (0)
 -->
<!-- Title: vtkSurface::GetTrianglesAreas Pages: 1 -->
<svg width="334pt" height="78pt"
 viewBox="0.00 0.00 334.00 77.50" xmlns="http://www.w3.org/2000/svg" xmlns:xlink="http://www.w3.org/1999/xlink">
<g id="graph0" class="graph" transform="scale(1 1) rotate(0) translate(4 73.5)">
<title>vtkSurface::GetTrianglesAreas</title>
<polygon fill="white" stroke="transparent" points="-4,4 -4,-73.5 330,-73.5 330,4 -4,4"/>
<!-- Node1 -->
<g id="node1" class="node">
<title>Node1</title>
<g id="a_node1"><a xlink:title="Computes the Triangles Areas.">
<polygon fill="#bfbfbf" stroke="black" points="0,-22.5 0,-52.5 125,-52.5 125,-22.5 0,-22.5"/>
<text text-anchor="start" x="8" y="-40.5" font-family="Helvetica,sans-Serif" font-size="10.00">vtkSurface::GetTriangles</text>
<text text-anchor="middle" x="62.5" y="-29.5" font-family="Helvetica,sans-Serif" font-size="10.00">Areas</text>
</a>
</g>
</g>
<!-- Node2 -->
<g id="node2" class="node">
<title>Node2</title>
<g id="a_node2"><a xlink:href="../../d3/d13/classvtk_surface_base.html#aa9651bd726d7c374c30f33dc67707136" target="_top" xlink:title="Returns the vertices v1, v2 and v3 bounding the face.">
<polygon fill="white" stroke="black" points="161,-50 161,-69 326,-69 326,-50 161,-50"/>
<text text-anchor="middle" x="243.5" y="-57" font-family="Helvetica,sans-Serif" font-size="10.00">vtkSurfaceBase::GetFaceVertices</text>
</a>
</g>
</g>
<!-- Node1&#45;&gt;Node2 -->
<g id="edge1" class="edge">
<title>Node1&#45;&gt;Node2</title>
<path fill="none" stroke="midnightblue" d="M125.1,-45.07C134.73,-46.26 144.85,-47.5 154.92,-48.74"/>
<polygon fill="midnightblue" stroke="midnightblue" points="154.62,-52.23 164.97,-49.97 155.48,-45.28 154.62,-52.23"/>
</g>
<!-- Node3 -->
<g id="node3" class="node">
<title>Node3</title>
<g id="a_node3"><a xlink:href="../../d3/d13/classvtk_surface_base.html#a342d0273e9a72ba4975767cc64c7a83c" target="_top" xlink:title="Returns the coordinates of Point.">
<polygon fill="white" stroke="black" points="178,-0.5 178,-30.5 309,-30.5 309,-0.5 178,-0.5"/>
<text text-anchor="start" x="186" y="-18.5" font-family="Helvetica,sans-Serif" font-size="10.00">vtkSurfaceBase::GetPoint</text>
<text text-anchor="middle" x="243.5" y="-7.5" font-family="Helvetica,sans-Serif" font-size="10.00">Coordinates</text>
</a>
</g>
</g>
<!-- Node1&#45;&gt;Node3 -->
<g id="edge2" class="edge">
<title>Node1&#45;&gt;Node3</title>
<path fill="none" stroke="midnightblue" d="M125.1,-29.93C138.77,-28.25 153.41,-26.45 167.55,-24.71"/>
<polygon fill="midnightblue" stroke="midnightblue" points="168.24,-28.15 177.73,-23.46 167.38,-21.21 168.24,-28.15"/>
</g>
</g>
</svg>
