<?xml version="1.0" encoding="UTF-8" standalone="no"?>
<!DOCTYPE svg PUBLIC "-//W3C//DTD SVG 1.1//EN"
 "http://www.w3.org/Graphics/SVG/1.1/DTD/svg11.dtd">
<!-- Generated by graphviz version 2.44.0 (0)
 -->
<!-- Title: vtkSurface::DisplayMeshProperties Pages: 1 -->
<svg width="960pt" height="457pt"
 viewBox="0.00 0.00 960.00 457.00" xmlns="http://www.w3.org/2000/svg" xmlns:xlink="http://www.w3.org/1999/xlink">
<g id="graph0" class="graph" transform="scale(1 1) rotate(0) translate(4 453)">
<title>vtkSurface::DisplayMeshProperties</title>
<polygon fill="white" stroke="transparent" points="-4,4 -4,-453 956,-453 956,4 -4,4"/>
<!-- Node1 -->
<g id="node1" class="node">
<title>Node1</title>
<g id="a_node1"><a xlink:title="same as GetMeshProperties, but the properties are displayed on screen">
<polygon fill="#bfbfbf" stroke="black" points="0,-163.5 0,-182.5 171,-182.5 171,-163.5 0,-163.5"/>
<text text-anchor="middle" x="85.5" y="-170.5" font-family="Helvetica,sans-Serif" font-size="10.00">vtkSurface::DisplayMeshProperties</text>
</a>
</g>
</g>
<!-- Node2 -->
<g id="node2" class="node">
<title>Node2</title>
<g id="a_node2"><a xlink:href="../../d1/dfa/classvtk_surface.html#afe3aaa7de019acb523e75df87e6c9a19" target="_top" xlink:title="copy to stream the connectivity and geometric properties of the mesh">
<polygon fill="white" stroke="black" points="207,-182.5 207,-201.5 361,-201.5 361,-182.5 207,-182.5"/>
<text text-anchor="middle" x="284" y="-189.5" font-family="Helvetica,sans-Serif" font-size="10.00">vtkSurface::GetMeshProperties</text>
</a>
</g>
</g>
<!-- Node1&#45;&gt;Node2 -->
<g id="edge1" class="edge">
<title>Node1&#45;&gt;Node2</title>
<path fill="none" stroke="midnightblue" d="M171.26,-181.2C179.68,-182.01 188.23,-182.84 196.67,-183.65"/>
<polygon fill="midnightblue" stroke="midnightblue" points="196.59,-187.16 206.88,-184.64 197.26,-180.19 196.59,-187.16"/>
</g>
<!-- Node18 -->
<g id="node18" class="node">
<title>Node18</title>
<g id="a_node18"><a xlink:href="../../d1/d7c/namespace_utils.html#a4257878fa209bf3f05cf252a78974f88" target="_top" xlink:title="Convert type T to std::string.">
<polygon fill="white" stroke="black" points="256,-144.5 256,-163.5 312,-163.5 312,-144.5 256,-144.5"/>
<text text-anchor="middle" x="284" y="-151.5" font-family="Helvetica,sans-Serif" font-size="10.00">Utils::Str</text>
</a>
</g>
</g>
<!-- Node1&#45;&gt;Node18 -->
<g id="edge20" class="edge">
<title>Node1&#45;&gt;Node18</title>
<path fill="none" stroke="midnightblue" d="M171.26,-164.8C197.21,-162.3 224.43,-159.66 245.51,-157.62"/>
<polygon fill="midnightblue" stroke="midnightblue" points="246.02,-161.09 255.64,-156.65 245.35,-154.12 246.02,-161.09"/>
</g>
<!-- Node3 -->
<g id="node3" class="node">
<title>Node3</title>
<g id="a_node3"><a xlink:href="../../d1/dfa/classvtk_surface.html#a5e49c2664a0fa9927b19a86d88f2d919" target="_top" xlink:title="Computes the mesh minimal angle, average minimal angle, minimal triangle quality and average triangle...">
<polygon fill="white" stroke="black" points="402.5,-388 402.5,-418 551.5,-418 551.5,-388 402.5,-388"/>
<text text-anchor="start" x="410.5" y="-406" font-family="Helvetica,sans-Serif" font-size="10.00">vtkSurface::ComputeTriangles</text>
<text text-anchor="middle" x="477" y="-395" font-family="Helvetica,sans-Serif" font-size="10.00">Statistics</text>
</a>
</g>
</g>
<!-- Node2&#45;&gt;Node3 -->
<g id="edge2" class="edge">
<title>Node2&#45;&gt;Node3</title>
<path fill="none" stroke="midnightblue" d="M288.43,-201.78C299.42,-231.73 336.57,-323.15 397,-373 401.83,-376.98 407.24,-380.47 412.91,-383.52"/>
<polygon fill="midnightblue" stroke="midnightblue" points="411.46,-386.71 421.98,-387.95 414.53,-380.42 411.46,-386.71"/>
</g>
<!-- Node5 -->
<g id="node5" class="node">
<title>Node5</title>
<g id="a_node5"><a xlink:href="../../d3/d13/classvtk_surface_base.html#a2f903d435003385ebe7839c1f157db7f" target="_top" xlink:title="returns 1 if Face is actually used to store a polygon (not deleted). Returns 0 otherwise">
<polygon fill="white" stroke="black" points="600.5,-350.5 600.5,-369.5 750.5,-369.5 750.5,-350.5 600.5,-350.5"/>
<text text-anchor="middle" x="675.5" y="-357.5" font-family="Helvetica,sans-Serif" font-size="10.00">vtkSurfaceBase::IsFaceActive</text>
</a>
</g>
</g>
<!-- Node2&#45;&gt;Node5 -->
<g id="edge19" class="edge">
<title>Node2&#45;&gt;Node5</title>
<path fill="none" stroke="midnightblue" d="M288.95,-201.88C300.62,-229.55 337.82,-307.86 397,-340 460.2,-374.32 543.75,-375.48 602.6,-370.45"/>
<polygon fill="midnightblue" stroke="midnightblue" points="602.93,-373.93 612.56,-369.52 602.28,-366.97 602.93,-373.93"/>
</g>
<!-- Node7 -->
<g id="node7" class="node">
<title>Node7</title>
<g id="a_node7"><a xlink:href="../../d1/dfa/classvtk_surface.html#a946489597d1e648f21c30393b379de25" target="_top" xlink:title=" ">
<polygon fill="white" stroke="black" points="404,-300 404,-330 550,-330 550,-300 404,-300"/>
<text text-anchor="start" x="412" y="-318" font-family="Helvetica,sans-Serif" font-size="10.00">vtkSurface::DeleteConnected</text>
<text text-anchor="middle" x="477" y="-307" font-family="Helvetica,sans-Serif" font-size="10.00">Components</text>
</a>
</g>
</g>
<!-- Node2&#45;&gt;Node7 -->
<g id="edge6" class="edge">
<title>Node2&#45;&gt;Node7</title>
<path fill="none" stroke="midnightblue" d="M293.25,-201.68C310.53,-221.34 352.59,-266.2 397,-291 400.19,-292.78 403.53,-294.45 406.96,-296"/>
<polygon fill="midnightblue" stroke="midnightblue" points="405.61,-299.23 416.19,-299.86 408.31,-292.77 405.61,-299.23"/>
</g>
<!-- Node8 -->
<g id="node8" class="node">
<title>Node8</title>
<g id="a_node8"><a xlink:href="../../d1/dfa/classvtk_surface.html#ae52ed54bd4ec3f6e0380b5e08f8465d0" target="_top" xlink:title="Computes the connected components of the mesh.">
<polygon fill="white" stroke="black" points="410.5,-251 410.5,-281 543.5,-281 543.5,-251 410.5,-251"/>
<text text-anchor="start" x="418.5" y="-269" font-family="Helvetica,sans-Serif" font-size="10.00">vtkSurface::GetConnected</text>
<text text-anchor="middle" x="477" y="-258" font-family="Helvetica,sans-Serif" font-size="10.00">Components</text>
</a>
</g>
</g>
<!-- Node2&#45;&gt;Node8 -->
<g id="edge7" class="edge">
<title>Node2&#45;&gt;Node8</title>
<path fill="none" stroke="midnightblue" d="M304.52,-201.61C326.62,-212.28 363.89,-229.63 397,-242 402.2,-243.94 407.64,-245.85 413.12,-247.68"/>
<polygon fill="midnightblue" stroke="midnightblue" points="412.41,-251.13 423,-250.9 414.58,-244.47 412.41,-251.13"/>
</g>
<!-- Node11 -->
<g id="node11" class="node">
<title>Node11</title>
<g id="a_node11"><a xlink:href="../../d3/d13/classvtk_surface_base.html#a1f8125584169cbf9a07b85a83d90d3da" target="_top" xlink:title="Returns f1 and f2 as the faces adjacent to the edge.">
<polygon fill="white" stroke="black" points="794,-144.5 794,-163.5 952,-163.5 952,-144.5 794,-144.5"/>
<text text-anchor="middle" x="873" y="-151.5" font-family="Helvetica,sans-Serif" font-size="10.00">vtkSurfaceBase::GetEdgeFaces</text>
</a>
</g>
</g>
<!-- Node2&#45;&gt;Node11 -->
<g id="edge10" class="edge">
<title>Node2&#45;&gt;Node11</title>
<path fill="none" stroke="midnightblue" d="M344.58,-182.41C350.47,-179.94 356.07,-176.86 361,-173 387.92,-151.91 367.7,-122.64 397,-105 468.21,-62.12 719.32,-116.49 824.79,-142.06"/>
<polygon fill="midnightblue" stroke="midnightblue" points="823.99,-145.46 834.53,-144.44 825.65,-138.66 823.99,-145.46"/>
</g>
<!-- Node12 -->
<g id="node12" class="node">
<title>Node12</title>
<g id="a_node12"><a xlink:href="../../d3/d13/classvtk_surface_base.html#a28ae550f7790720b715bf403d754f8b5" target="_top" xlink:title="Returns the number of edges in the vtkSurfaceBase Object.">
<polygon fill="white" stroke="black" points="405.5,-153 405.5,-183 548.5,-183 548.5,-153 405.5,-153"/>
<text text-anchor="start" x="413.5" y="-171" font-family="Helvetica,sans-Serif" font-size="10.00">vtkSurfaceBase::GetNumber</text>
<text text-anchor="middle" x="477" y="-160" font-family="Helvetica,sans-Serif" font-size="10.00">OfEdges</text>
</a>
</g>
</g>
<!-- Node2&#45;&gt;Node12 -->
<g id="edge11" class="edge">
<title>Node2&#45;&gt;Node12</title>
<path fill="none" stroke="midnightblue" d="M360.76,-182.48C372.12,-181.05 383.87,-179.58 395.32,-178.14"/>
<polygon fill="midnightblue" stroke="midnightblue" points="395.81,-181.6 405.3,-176.88 394.94,-174.66 395.81,-181.6"/>
</g>
<!-- Node13 -->
<g id="node13" class="node">
<title>Node13</title>
<g id="a_node13"><a xlink:href="../../d3/d13/classvtk_surface_base.html#a310ee566afcb88b7672ea6abf2d9f098" target="_top" xlink:title="Returns the valence of the Point V1 i.e. its number of adjacent Points.">
<polygon fill="white" stroke="black" points="405.5,-114.5 405.5,-133.5 548.5,-133.5 548.5,-114.5 405.5,-114.5"/>
<text text-anchor="middle" x="477" y="-121.5" font-family="Helvetica,sans-Serif" font-size="10.00">vtkSurfaceBase::GetValence</text>
</a>
</g>
</g>
<!-- Node2&#45;&gt;Node13 -->
<g id="edge12" class="edge">
<title>Node2&#45;&gt;Node13</title>
<path fill="none" stroke="midnightblue" d="M336.83,-182.38C345.15,-179.9 353.48,-176.82 361,-173 379.57,-163.57 378.39,-152.35 397,-143 401.81,-140.59 406.93,-138.47 412.18,-136.62"/>
<polygon fill="midnightblue" stroke="midnightblue" points="413.25,-139.95 421.7,-133.56 411.11,-133.28 413.25,-139.95"/>
</g>
<!-- Node14 -->
<g id="node14" class="node">
<title>Node14</title>
<g id="a_node14"><a xlink:href="../../d3/d13/classvtk_surface_base.html#ada6cfad7e26b2cae144e98bd508ca9cb" target="_top" xlink:title="Returns the entropy of the valences of the mesh.">
<polygon fill="white" stroke="black" points="405.5,-202 405.5,-232 548.5,-232 548.5,-202 405.5,-202"/>
<text text-anchor="start" x="413.5" y="-220" font-family="Helvetica,sans-Serif" font-size="10.00">vtkSurfaceBase::GetValence</text>
<text text-anchor="middle" x="477" y="-209" font-family="Helvetica,sans-Serif" font-size="10.00">Entropy</text>
</a>
</g>
</g>
<!-- Node2&#45;&gt;Node14 -->
<g id="edge13" class="edge">
<title>Node2&#45;&gt;Node14</title>
<path fill="none" stroke="midnightblue" d="M357.75,-201.52C370.07,-203.13 382.91,-204.82 395.41,-206.45"/>
<polygon fill="midnightblue" stroke="midnightblue" points="394.97,-209.92 405.34,-207.75 395.88,-202.98 394.97,-209.92"/>
</g>
<!-- Node16 -->
<g id="node16" class="node">
<title>Node16</title>
<g id="a_node16"><a xlink:href="../../d3/d13/classvtk_surface_base.html#aea03bdd23f1f32917a17935aa2233cc6" target="_top" xlink:title="returns 1 if Edge is actually used to store an edge (not deleted). Returns 0 otherwise">
<polygon fill="white" stroke="black" points="401.5,-38.5 401.5,-57.5 552.5,-57.5 552.5,-38.5 401.5,-38.5"/>
<text text-anchor="middle" x="477" y="-45.5" font-family="Helvetica,sans-Serif" font-size="10.00">vtkSurfaceBase::IsEdgeActive</text>
</a>
</g>
</g>
<!-- Node2&#45;&gt;Node16 -->
<g id="edge17" class="edge">
<title>Node2&#45;&gt;Node16</title>
<path fill="none" stroke="midnightblue" d="M346.66,-182.41C351.88,-179.93 356.77,-176.84 361,-173 396.3,-140.98 362.51,-104.89 397,-72 401.25,-67.94 406.17,-64.57 411.43,-61.77"/>
<polygon fill="midnightblue" stroke="midnightblue" points="412.93,-64.93 420.55,-57.57 410,-58.57 412.93,-64.93"/>
</g>
<!-- Node17 -->
<g id="node17" class="node">
<title>Node17</title>
<g id="a_node17"><a xlink:href="../../d3/d13/classvtk_surface_base.html#a9c77655b36b9fa47039e88d71f1be28a" target="_top" xlink:title="Returns true if the edge is a Manifold one (2 adjacent polygons)">
<polygon fill="white" stroke="black" points="397,-0.5 397,-19.5 557,-19.5 557,-0.5 397,-0.5"/>
<text text-anchor="middle" x="477" y="-7.5" font-family="Helvetica,sans-Serif" font-size="10.00">vtkSurfaceBase::IsEdgeManifold</text>
</a>
</g>
</g>
<!-- Node2&#45;&gt;Node17 -->
<g id="edge18" class="edge">
<title>Node2&#45;&gt;Node17</title>
<path fill="none" stroke="midnightblue" d="M347.8,-182.46C352.65,-179.96 357.15,-176.85 361,-173 407.65,-126.35 350.14,-75.44 397,-29 398.43,-27.58 399.94,-26.27 401.53,-25.04"/>
<polygon fill="midnightblue" stroke="midnightblue" points="403.43,-27.98 409.99,-19.66 399.67,-22.08 403.43,-27.98"/>
</g>
<!-- Node4 -->
<g id="node4" class="node">
<title>Node4</title>
<g id="a_node4"><a xlink:href="../../d3/d13/classvtk_surface_base.html#aa9651bd726d7c374c30f33dc67707136" target="_top" xlink:title="Returns the vertices v1, v2 and v3 bounding the face.">
<polygon fill="white" stroke="black" points="593,-429.5 593,-448.5 758,-448.5 758,-429.5 593,-429.5"/>
<text text-anchor="middle" x="675.5" y="-436.5" font-family="Helvetica,sans-Serif" font-size="10.00">vtkSurfaceBase::GetFaceVertices</text>
</a>
</g>
</g>
<!-- Node3&#45;&gt;Node4 -->
<g id="edge3" class="edge">
<title>Node3&#45;&gt;Node4</title>
<path fill="none" stroke="midnightblue" d="M551.73,-416.51C571.76,-420.18 593.24,-424.11 612.55,-427.65"/>
<polygon fill="midnightblue" stroke="midnightblue" points="611.96,-431.1 622.43,-429.46 613.22,-424.22 611.96,-431.1"/>
</g>
<!-- Node3&#45;&gt;Node5 -->
<g id="edge4" class="edge">
<title>Node3&#45;&gt;Node5</title>
<path fill="none" stroke="midnightblue" d="M546.73,-387.96C571.12,-382.62 598.18,-376.7 621.1,-371.68"/>
<polygon fill="midnightblue" stroke="midnightblue" points="621.96,-375.08 630.99,-369.52 620.47,-368.24 621.96,-375.08"/>
</g>
<!-- Node6 -->
<g id="node6" class="node">
<title>Node6</title>
<g id="a_node6"><a xlink:href="../../da/d7b/vtksurface_8cxx.html#a7dfabf648221e2ab9f1d4babc35dd051" target="_top" xlink:title=" ">
<polygon fill="white" stroke="black" points="629.5,-391.5 629.5,-410.5 721.5,-410.5 721.5,-391.5 629.5,-391.5"/>
<text text-anchor="middle" x="675.5" y="-398.5" font-family="Helvetica,sans-Serif" font-size="10.00">TriangleMinAngle</text>
</a>
</g>
</g>
<!-- Node3&#45;&gt;Node6 -->
<g id="edge5" class="edge">
<title>Node3&#45;&gt;Node6</title>
<path fill="none" stroke="midnightblue" d="M551.73,-402.25C574.19,-402.02 598.48,-401.77 619.47,-401.56"/>
<polygon fill="midnightblue" stroke="midnightblue" points="619.53,-405.06 629.5,-401.46 619.46,-398.06 619.53,-405.06"/>
</g>
<!-- Node9 -->
<g id="node9" class="node">
<title>Node9</title>
<g id="a_node9"><a xlink:href="../../d3/d13/classvtk_surface_base.html#a6745d1506755b95f1e2bb70337636055" target="_top" xlink:title="Returns the List of Points adjacent to the point v1.">
<polygon fill="white" stroke="black" points="607.5,-251 607.5,-281 743.5,-281 743.5,-251 607.5,-251"/>
<text text-anchor="start" x="615.5" y="-269" font-family="Helvetica,sans-Serif" font-size="10.00">vtkSurfaceBase::GetVertex</text>
<text text-anchor="middle" x="675.5" y="-258" font-family="Helvetica,sans-Serif" font-size="10.00">Neighbours</text>
</a>
</g>
</g>
<!-- Node8&#45;&gt;Node9 -->
<g id="edge8" class="edge">
<title>Node8&#45;&gt;Node9</title>
<path fill="none" stroke="midnightblue" d="M543.7,-266C560.77,-266 579.32,-266 596.93,-266"/>
<polygon fill="midnightblue" stroke="midnightblue" points="597.18,-269.5 607.18,-266 597.18,-262.5 597.18,-269.5"/>
</g>
<!-- Node10 -->
<g id="node10" class="node">
<title>Node10</title>
<g id="a_node10"><a xlink:href="../../d3/d13/classvtk_surface_base.html#a10d9a9c6daefe1c004e27eba5d464738" target="_top" xlink:title="Returns the list of edges adjacent to the point v1.">
<polygon fill="white" stroke="black" points="805,-226 805,-256 941,-256 941,-226 805,-226"/>
<text text-anchor="start" x="813" y="-244" font-family="Helvetica,sans-Serif" font-size="10.00">vtkSurfaceBase::GetVertex</text>
<text text-anchor="middle" x="873" y="-233" font-family="Helvetica,sans-Serif" font-size="10.00">NeighbourEdges</text>
</a>
</g>
</g>
<!-- Node9&#45;&gt;Node10 -->
<g id="edge9" class="edge">
<title>Node9&#45;&gt;Node10</title>
<path fill="none" stroke="midnightblue" d="M743.51,-257.43C759.89,-255.34 777.56,-253.08 794.39,-250.92"/>
<polygon fill="midnightblue" stroke="midnightblue" points="795.27,-254.34 804.75,-249.6 794.39,-247.4 795.27,-254.34"/>
</g>
<!-- Node15 -->
<g id="node15" class="node">
<title>Node15</title>
<g id="a_node15"><a xlink:href="../../d3/d13/classvtk_surface_base.html#abd694015b1a8fca265c35937c9c02b2b" target="_top" xlink:title="Returns the list of faces adjacent to the point v1.">
<polygon fill="white" stroke="black" points="607.5,-202 607.5,-232 743.5,-232 743.5,-202 607.5,-202"/>
<text text-anchor="start" x="615.5" y="-220" font-family="Helvetica,sans-Serif" font-size="10.00">vtkSurfaceBase::GetVertex</text>
<text text-anchor="middle" x="675.5" y="-209" font-family="Helvetica,sans-Serif" font-size="10.00">NeighbourFaces</text>
</a>
</g>
</g>
<!-- Node14&#45;&gt;Node15 -->
<g id="edge14" class="edge">
<title>Node14&#45;&gt;Node15</title>
<path fill="none" stroke="midnightblue" d="M548.66,-217C564.37,-217 581.1,-217 597.06,-217"/>
<polygon fill="midnightblue" stroke="midnightblue" points="597.42,-220.5 607.42,-217 597.42,-213.5 597.42,-220.5"/>
</g>
<!-- Node15&#45;&gt;Node10 -->
<g id="edge16" class="edge">
<title>Node15&#45;&gt;Node10</title>
<path fill="none" stroke="midnightblue" d="M743.51,-225.23C759.89,-227.24 777.56,-229.41 794.39,-231.47"/>
<polygon fill="midnightblue" stroke="midnightblue" points="794.4,-235 804.75,-232.74 795.25,-228.05 794.4,-235"/>
</g>
<!-- Node15&#45;&gt;Node11 -->
<g id="edge15" class="edge">
<title>Node15&#45;&gt;Node11</title>
<path fill="none" stroke="midnightblue" d="M723.33,-201.91C756.66,-191.17 800.95,-176.9 832.5,-166.73"/>
<polygon fill="midnightblue" stroke="midnightblue" points="833.82,-169.98 842.26,-163.58 831.67,-163.32 833.82,-169.98"/>
</g>
</g>
</svg>
