<?xml version="1.0" encoding="UTF-8" standalone="no"?>
<!DOCTYPE svg PUBLIC "-//W3C//DTD SVG 1.1//EN"
 "http://www.w3.org/Graphics/SVG/1.1/DTD/svg11.dtd">
<!-- Generated by graphviz version 2.44.1 (0)
 -->
<!-- Title: vtkSurface::CreateFromFile Pages: 1 -->
<svg width="1105pt" height="271pt"
 viewBox="0.00 0.00 1105.00 271.00" xmlns="http://www.w3.org/2000/svg" xmlns:xlink="http://www.w3.org/1999/xlink">
<g id="graph0" class="graph" transform="scale(1 1) rotate(0) translate(4 267)">
<title>vtkSurface::CreateFromFile</title>
<polygon fill="white" stroke="transparent" points="-4,4 -4,-267 1101,-267 1101,4 -4,4"/>
<!-- Node1 -->
<g id="node1" class="node">
<title>Node1</title>
<g id="a_node1"><a xlink:title="Creates the vtkSurface object by reading a mesh file.">
<polygon fill="#bfbfbf" stroke="black" points="0,-38.5 0,-57.5 137,-57.5 137,-38.5 0,-38.5"/>
<text text-anchor="middle" x="68.5" y="-45.5" font-family="Helvetica,sans-Serif" font-size="10.00">vtkSurface::CreateFromFile</text>
</a>
</g>
</g>
<!-- Node2 -->
<g id="node2" class="node">
<title>Node2</title>
<g id="a_node2"><a xlink:href="../../d3/d13/classvtk_surface_base.html#abb20d4428cd6182c950aff49ac550c29" target="_top" xlink:title="Embeds a vtkPolyData into a vtkSurfaceBase object.">
<polygon fill="white" stroke="black" points="173,-120 173,-150 317,-150 317,-120 173,-120"/>
<text text-anchor="start" x="181" y="-138" font-family="Helvetica,sans-Serif" font-size="10.00">vtkSurfaceBase::CreateFrom</text>
<text text-anchor="middle" x="245" y="-127" font-family="Helvetica,sans-Serif" font-size="10.00">PolyData</text>
</a>
</g>
</g>
<!-- Node1&#45;&gt;Node2 -->
<g id="edge1" class="edge">
<title>Node1&#45;&gt;Node2</title>
<path fill="none" stroke="midnightblue" d="M88.84,-57.64C116.62,-71.49 168.43,-97.32 204.5,-115.31"/>
<polygon fill="midnightblue" stroke="midnightblue" points="203.25,-118.6 213.76,-119.93 206.38,-112.33 203.25,-118.6"/>
</g>
<!-- Node16 -->
<g id="node16" class="node">
<title>Node16</title>
<g id="a_node16"><a xlink:href="../../d9/dcb/classvtk_o_f_f_reader.html#a65e3cf162f5bef9678a754a1d30d597d" target="_top" xlink:title=" ">
<polygon fill="white" stroke="black" points="191.5,-38.5 191.5,-57.5 298.5,-57.5 298.5,-38.5 191.5,-38.5"/>
<text text-anchor="middle" x="245" y="-45.5" font-family="Helvetica,sans-Serif" font-size="10.00">vtkOFFReader::New</text>
</a>
</g>
</g>
<!-- Node1&#45;&gt;Node16 -->
<g id="edge15" class="edge">
<title>Node1&#45;&gt;Node16</title>
<path fill="none" stroke="midnightblue" d="M137.47,-48C151.87,-48 167,-48 181.2,-48"/>
<polygon fill="midnightblue" stroke="midnightblue" points="181.35,-51.5 191.35,-48 181.35,-44.5 181.35,-51.5"/>
</g>
<!-- Node19 -->
<g id="node19" class="node">
<title>Node19</title>
<g id="a_node19"><a xlink:href="../../d9/dcb/classvtk_o_f_f_reader.html#a75435acb48776cefc9506fb1d50e7ea2" target="_top" xlink:title=" ">
<polygon fill="white" stroke="black" points="173,-0.5 173,-19.5 317,-19.5 317,-0.5 173,-0.5"/>
<text text-anchor="middle" x="245" y="-7.5" font-family="Helvetica,sans-Serif" font-size="10.00">vtkOFFReader::SetFileName</text>
</a>
</g>
</g>
<!-- Node1&#45;&gt;Node19 -->
<g id="edge18" class="edge">
<title>Node1&#45;&gt;Node19</title>
<path fill="none" stroke="midnightblue" d="M113.53,-38.41C136.87,-33.33 165.73,-27.04 190.37,-21.68"/>
<polygon fill="midnightblue" stroke="midnightblue" points="191.26,-25.07 200.28,-19.52 189.77,-18.23 191.26,-25.07"/>
</g>
<!-- Node3 -->
<g id="node3" class="node">
<title>Node3</title>
<g id="a_node3"><a xlink:href="../../d3/d13/classvtk_surface_base.html#a6e6f179eb028cec1da57d67a713e64b4" target="_top" xlink:title="adds an edge (v1,v2) to the vtkSurface and returns its Id">
<polygon fill="white" stroke="black" points="366,-243.5 366,-262.5 498,-262.5 498,-243.5 366,-243.5"/>
<text text-anchor="middle" x="432" y="-250.5" font-family="Helvetica,sans-Serif" font-size="10.00">vtkSurfaceBase::AddEdge</text>
</a>
</g>
</g>
<!-- Node2&#45;&gt;Node3 -->
<g id="edge2" class="edge">
<title>Node2&#45;&gt;Node3</title>
<path fill="none" stroke="midnightblue" d="M258.08,-150.3C276.27,-172.26 312.87,-212.45 353,-234 357.3,-236.31 361.89,-238.34 366.6,-240.13"/>
<polygon fill="midnightblue" stroke="midnightblue" points="365.8,-243.56 376.39,-243.47 368.06,-236.93 365.8,-243.56"/>
</g>
<!-- Node4 -->
<g id="node4" class="node">
<title>Node4</title>
<g id="a_node4"><a xlink:href="../../d3/d13/classvtk_surface_base.html#a1bbae24f61b9e277316ff660697790be" target="_top" xlink:title=" ">
<polygon fill="white" stroke="black" points="368,-194 368,-224 496,-224 496,-194 368,-194"/>
<text text-anchor="start" x="376" y="-212" font-family="Helvetica,sans-Serif" font-size="10.00">vtkSurfaceBase::Allocate</text>
<text text-anchor="middle" x="432" y="-201" font-family="Helvetica,sans-Serif" font-size="10.00">EdgesAttributes</text>
</a>
</g>
</g>
<!-- Node2&#45;&gt;Node4 -->
<g id="edge3" class="edge">
<title>Node2&#45;&gt;Node4</title>
<path fill="none" stroke="midnightblue" d="M275.5,-150.14C296.72,-160.69 326.21,-174.68 353,-185 358.12,-186.97 363.48,-188.9 368.89,-190.75"/>
<polygon fill="midnightblue" stroke="midnightblue" points="368.04,-194.15 378.63,-193.98 370.24,-187.51 368.04,-194.15"/>
</g>
<!-- Node5 -->
<g id="node5" class="node">
<title>Node5</title>
<g id="a_node5"><a xlink:href="../../d3/d13/classvtk_surface_base.html#a447cd5aee68a7db76285f963493d7560" target="_top" xlink:title=" ">
<polygon fill="white" stroke="black" points="368,-145 368,-175 496,-175 496,-145 368,-145"/>
<text text-anchor="start" x="376" y="-163" font-family="Helvetica,sans-Serif" font-size="10.00">vtkSurfaceBase::Allocate</text>
<text text-anchor="middle" x="432" y="-152" font-family="Helvetica,sans-Serif" font-size="10.00">PolygonsAttributes</text>
</a>
</g>
</g>
<!-- Node2&#45;&gt;Node5 -->
<g id="edge4" class="edge">
<title>Node2&#45;&gt;Node5</title>
<path fill="none" stroke="midnightblue" d="M317.26,-144.63C330.56,-146.43 344.49,-148.31 357.84,-150.11"/>
<polygon fill="midnightblue" stroke="midnightblue" points="357.55,-153.61 367.93,-151.48 358.49,-146.67 357.55,-153.61"/>
</g>
<!-- Node6 -->
<g id="node6" class="node">
<title>Node6</title>
<g id="a_node6"><a xlink:href="../../d3/d13/classvtk_surface_base.html#ac6bf9896f86fffac680b5983649d7fea" target="_top" xlink:title=" ">
<polygon fill="white" stroke="black" points="368,-96 368,-126 496,-126 496,-96 368,-96"/>
<text text-anchor="start" x="376" y="-114" font-family="Helvetica,sans-Serif" font-size="10.00">vtkSurfaceBase::Allocate</text>
<text text-anchor="middle" x="432" y="-103" font-family="Helvetica,sans-Serif" font-size="10.00">VerticesAttributes</text>
</a>
</g>
</g>
<!-- Node2&#45;&gt;Node6 -->
<g id="edge5" class="edge">
<title>Node2&#45;&gt;Node6</title>
<path fill="none" stroke="midnightblue" d="M317.26,-125.76C330.56,-124.03 344.49,-122.22 357.84,-120.49"/>
<polygon fill="midnightblue" stroke="midnightblue" points="358.46,-123.94 367.93,-119.18 357.56,-117 358.46,-123.94"/>
</g>
<!-- Node7 -->
<g id="node7" class="node">
<title>Node7</title>
<g id="a_node7"><a xlink:href="../../d3/d13/classvtk_surface_base.html#aee0f64de68a21e569228534cfba3dc88" target="_top" xlink:title="Reorders Cells description so that each cell is well oriented.">
<polygon fill="white" stroke="black" points="353,-57.5 353,-76.5 511,-76.5 511,-57.5 353,-57.5"/>
<text text-anchor="middle" x="432" y="-64.5" font-family="Helvetica,sans-Serif" font-size="10.00">vtkSurfaceBase::CheckNormals</text>
</a>
</g>
</g>
<!-- Node2&#45;&gt;Node7 -->
<g id="edge6" class="edge">
<title>Node2&#45;&gt;Node7</title>
<path fill="none" stroke="midnightblue" d="M274.9,-119.94C296.09,-109.35 325.79,-95.45 353,-86 360.31,-83.46 368.13,-81.13 375.88,-79.03"/>
<polygon fill="midnightblue" stroke="midnightblue" points="376.81,-82.41 385.62,-76.51 375.06,-75.63 376.81,-82.41"/>
</g>
<!-- Node8 -->
<g id="node8" class="node">
<title>Node8</title>
<g id="a_node8"><a xlink:href="../../d3/d13/classvtk_surface_base.html#af6106de85da3d9bb09d35c8f31cbb191" target="_top" xlink:title="the method which keeps the orientation of the faces consistent. This is called whenever a new face is...">
<polygon fill="white" stroke="black" points="547,-96 547,-126 723,-126 723,-96 547,-96"/>
<text text-anchor="start" x="555" y="-114" font-family="Helvetica,sans-Serif" font-size="10.00">vtkSurfaceBase::ConquerOrientation</text>
<text text-anchor="middle" x="635" y="-103" font-family="Helvetica,sans-Serif" font-size="10.00">FromFace</text>
</a>
</g>
</g>
<!-- Node7&#45;&gt;Node8 -->
<g id="edge7" class="edge">
<title>Node7&#45;&gt;Node8</title>
<path fill="none" stroke="midnightblue" d="M476.61,-76.55C499.55,-81.57 528.37,-87.88 555.07,-93.72"/>
<polygon fill="midnightblue" stroke="midnightblue" points="554.66,-97.22 565.18,-95.93 556.16,-90.38 554.66,-97.22"/>
</g>
<!-- Node15 -->
<g id="node15" class="node">
<title>Node15</title>
<g id="a_node15"><a xlink:href="../../d3/d13/classvtk_surface_base.html#a2f903d435003385ebe7839c1f157db7f" target="_top" xlink:title="returns 1 if Face is actually used to store a polygon (not deleted). Returns 0 otherwise">
<polygon fill="white" stroke="black" points="560,-57.5 560,-76.5 710,-76.5 710,-57.5 560,-57.5"/>
<text text-anchor="middle" x="635" y="-64.5" font-family="Helvetica,sans-Serif" font-size="10.00">vtkSurfaceBase::IsFaceActive</text>
</a>
</g>
</g>
<!-- Node7&#45;&gt;Node15 -->
<g id="edge14" class="edge">
<title>Node7&#45;&gt;Node15</title>
<path fill="none" stroke="midnightblue" d="M511.29,-67C523.9,-67 537,-67 549.75,-67"/>
<polygon fill="midnightblue" stroke="midnightblue" points="549.88,-70.5 559.88,-67 549.88,-63.5 549.88,-70.5"/>
</g>
<!-- Node9 -->
<g id="node9" class="node">
<title>Node9</title>
<g id="a_node9"><a xlink:href="../../d5/d9c/vtksurfacebase_8cxx.html#a2e8c26ea64993c77629c368633da5ff0" target="_top" xlink:title=" ">
<polygon fill="white" stroke="black" points="798.5,-177.5 798.5,-196.5 885.5,-196.5 885.5,-177.5 798.5,-177.5"/>
<text text-anchor="middle" x="842" y="-184.5" font-family="Helvetica,sans-Serif" font-size="10.00">FindVertexIndex</text>
</a>
</g>
</g>
<!-- Node8&#45;&gt;Node9 -->
<g id="edge8" class="edge">
<title>Node8&#45;&gt;Node9</title>
<path fill="none" stroke="midnightblue" d="M664.14,-126.08C688.63,-138.7 725.39,-156.46 759,-168 768.43,-171.24 778.66,-174.1 788.6,-176.56"/>
<polygon fill="midnightblue" stroke="midnightblue" points="787.85,-179.98 798.39,-178.88 789.47,-173.17 787.85,-179.98"/>
</g>
<!-- Node10 -->
<g id="node10" class="node">
<title>Node10</title>
<g id="a_node10"><a xlink:href="../../d3/d13/classvtk_surface_base.html#a1f8125584169cbf9a07b85a83d90d3da" target="_top" xlink:title="Returns f1 and f2 as the faces adjacent to the edge.">
<polygon fill="white" stroke="black" points="763,-139.5 763,-158.5 921,-158.5 921,-139.5 763,-139.5"/>
<text text-anchor="middle" x="842" y="-146.5" font-family="Helvetica,sans-Serif" font-size="10.00">vtkSurfaceBase::GetEdgeFaces</text>
</a>
</g>
</g>
<!-- Node8&#45;&gt;Node10 -->
<g id="edge9" class="edge">
<title>Node8&#45;&gt;Node10</title>
<path fill="none" stroke="midnightblue" d="M717.02,-126.02C737.89,-129.89 760.01,-133.99 779.69,-137.64"/>
<polygon fill="midnightblue" stroke="midnightblue" points="779.27,-141.12 789.75,-139.5 780.55,-134.24 779.27,-141.12"/>
</g>
<!-- Node11 -->
<g id="node11" class="node">
<title>Node11</title>
<g id="a_node11"><a xlink:href="../../d3/d13/classvtk_surface_base.html#a6d0fece7168e91590325097ee7a320a2" target="_top" xlink:title="Returns v1 and v2 as the vertices bounding the edge.">
<polygon fill="white" stroke="black" points="759,-101.5 759,-120.5 925,-120.5 925,-101.5 759,-101.5"/>
<text text-anchor="middle" x="842" y="-108.5" font-family="Helvetica,sans-Serif" font-size="10.00">vtkSurfaceBase::GetEdgeVertices</text>
</a>
</g>
</g>
<!-- Node8&#45;&gt;Node11 -->
<g id="edge10" class="edge">
<title>Node8&#45;&gt;Node11</title>
<path fill="none" stroke="midnightblue" d="M723.24,-111C731.6,-111 740.11,-111 748.52,-111"/>
<polygon fill="midnightblue" stroke="midnightblue" points="748.73,-114.5 758.73,-111 748.73,-107.5 748.73,-114.5"/>
</g>
<!-- Node12 -->
<g id="node12" class="node">
<title>Node12</title>
<g id="a_node12"><a xlink:href="../../d3/d13/classvtk_surface_base.html#acf6e6f74c51e5a7fb7339d79017d215e" target="_top" xlink:title="Returns the Id of the edge (v1,v2).">
<polygon fill="white" stroke="black" points="780.5,-63.5 780.5,-82.5 903.5,-82.5 903.5,-63.5 780.5,-63.5"/>
<text text-anchor="middle" x="842" y="-70.5" font-family="Helvetica,sans-Serif" font-size="10.00">vtkSurfaceBase::IsEdge</text>
</a>
</g>
</g>
<!-- Node8&#45;&gt;Node12 -->
<g id="edge11" class="edge">
<title>Node8&#45;&gt;Node12</title>
<path fill="none" stroke="midnightblue" d="M717.02,-95.98C737.89,-92.11 760.01,-88.01 779.69,-84.36"/>
<polygon fill="midnightblue" stroke="midnightblue" points="780.55,-87.76 789.75,-82.5 779.27,-80.88 780.55,-87.76"/>
</g>
<!-- Node14 -->
<g id="node14" class="node">
<title>Node14</title>
<g id="a_node14"><a xlink:href="../../d3/d13/classvtk_surface_base.html#a9c77655b36b9fa47039e88d71f1be28a" target="_top" xlink:title="Returns true if the edge is a Manifold one (2 adjacent polygons)">
<polygon fill="white" stroke="black" points="762,-25.5 762,-44.5 922,-44.5 922,-25.5 762,-25.5"/>
<text text-anchor="middle" x="842" y="-32.5" font-family="Helvetica,sans-Serif" font-size="10.00">vtkSurfaceBase::IsEdgeManifold</text>
</a>
</g>
</g>
<!-- Node8&#45;&gt;Node14 -->
<g id="edge13" class="edge">
<title>Node8&#45;&gt;Node14</title>
<path fill="none" stroke="midnightblue" d="M700.97,-95.85C708.6,-93.05 716.12,-89.79 723,-86 741.75,-75.68 739.98,-63.83 759,-54 763.59,-51.63 768.47,-49.55 773.48,-47.73"/>
<polygon fill="midnightblue" stroke="midnightblue" points="774.82,-50.97 783.23,-44.53 772.64,-44.32 774.82,-50.97"/>
</g>
<!-- Node13 -->
<g id="node13" class="node">
<title>Node13</title>
<g id="a_node13"><a xlink:href="../../d3/d13/classvtk_surface_base.html#a10d9a9c6daefe1c004e27eba5d464738" target="_top" xlink:title="Returns the list of edges adjacent to the point v1.">
<polygon fill="white" stroke="black" points="961,-58 961,-88 1097,-88 1097,-58 961,-58"/>
<text text-anchor="start" x="969" y="-76" font-family="Helvetica,sans-Serif" font-size="10.00">vtkSurfaceBase::GetVertex</text>
<text text-anchor="middle" x="1029" y="-65" font-family="Helvetica,sans-Serif" font-size="10.00">NeighbourEdges</text>
</a>
</g>
</g>
<!-- Node12&#45;&gt;Node13 -->
<g id="edge12" class="edge">
<title>Node12&#45;&gt;Node13</title>
<path fill="none" stroke="midnightblue" d="M903.58,-73C918.62,-73 934.94,-73 950.67,-73"/>
<polygon fill="midnightblue" stroke="midnightblue" points="950.89,-76.5 960.89,-73 950.89,-69.5 950.89,-76.5"/>
</g>
<!-- Node17 -->
<g id="node17" class="node">
<title>Node17</title>
<g id="a_node17"><a xlink:href="../../d9/dcb/classvtk_o_f_f_reader.html#ac0b9bab6e8757979224b187cd0e41287" target="_top" xlink:title=" ">
<polygon fill="white" stroke="black" points="356,-19.5 356,-38.5 508,-38.5 508,-19.5 356,-19.5"/>
<text text-anchor="middle" x="432" y="-26.5" font-family="Helvetica,sans-Serif" font-size="10.00">vtkOFFReader::vtkOFFReader</text>
</a>
</g>
</g>
<!-- Node16&#45;&gt;Node17 -->
<g id="edge16" class="edge">
<title>Node16&#45;&gt;Node17</title>
<path fill="none" stroke="midnightblue" d="M298.52,-42.61C313.29,-41.09 329.75,-39.4 345.91,-37.74"/>
<polygon fill="midnightblue" stroke="midnightblue" points="346.32,-41.22 355.91,-36.71 345.6,-34.25 346.32,-41.22"/>
</g>
<!-- Node18 -->
<g id="node18" class="node">
<title>Node18</title>
<g id="a_node18"><a xlink:href="../../d9/dcb/classvtk_o_f_f_reader.html#a006331fde39b3a6aba0cfda8ddac54b2" target="_top" xlink:title=" ">
<polygon fill="white" stroke="black" points="551.5,-19.5 551.5,-38.5 718.5,-38.5 718.5,-19.5 551.5,-19.5"/>
<text text-anchor="middle" x="635" y="-26.5" font-family="Helvetica,sans-Serif" font-size="10.00">vtkOFFReader::SetInfoOnCellsOff</text>
</a>
</g>
</g>
<!-- Node17&#45;&gt;Node18 -->
<g id="edge17" class="edge">
<title>Node17&#45;&gt;Node18</title>
<path fill="none" stroke="midnightblue" d="M508.13,-29C518.89,-29 530.06,-29 541.11,-29"/>
<polygon fill="midnightblue" stroke="midnightblue" points="541.2,-32.5 551.2,-29 541.2,-25.5 541.2,-32.5"/>
</g>
</g>
</svg>
