<?xml version="1.0" encoding="UTF-8" standalone="no"?>
<!DOCTYPE svg PUBLIC "-//W3C//DTD SVG 1.1//EN"
 "http://www.w3.org/Graphics/SVG/1.1/DTD/svg11.dtd">
<!-- Generated by graphviz version 2.44.0 (0)
 -->
<!-- Title: meshsubtractor.h Pages: 1 -->
<svg width="309pt" height="196pt"
 viewBox="0.00 0.00 309.00 196.00" xmlns="http://www.w3.org/2000/svg" xmlns:xlink="http://www.w3.org/1999/xlink">
<g id="graph0" class="graph" transform="scale(1 1) rotate(0) translate(4 192)">
<title>meshsubtractor.h</title>
<polygon fill="white" stroke="transparent" points="-4,4 -4,-192 305,-192 305,4 -4,4"/>
<!-- Node1 -->
<g id="node1" class="node">
<title>Node1</title>
<g id="a_node1"><a xlink:title=" ">
<polygon fill="#bfbfbf" stroke="black" points="148.5,-168.5 148.5,-187.5 240.5,-187.5 240.5,-168.5 148.5,-168.5"/>
<text text-anchor="middle" x="194.5" y="-175.5" font-family="Helvetica,sans-Serif" font-size="10.00">meshsubtractor.h</text>
</a>
</g>
</g>
<!-- Node2 -->
<g id="node2" class="node">
<title>Node2</title>
<g id="a_node2"><a xlink:href="../../db/dcb/exportstltool_8h.html" target="_top" xlink:title="Tool for exporting a wired mesh to the stl file format.">
<polygon fill="white" stroke="black" points="101.5,-112.5 101.5,-131.5 179.5,-131.5 179.5,-112.5 101.5,-112.5"/>
<text text-anchor="middle" x="140.5" y="-119.5" font-family="Helvetica,sans-Serif" font-size="10.00">exportstltool.h</text>
</a>
</g>
</g>
<!-- Node1&#45;&gt;Node2 -->
<g id="edge1" class="edge">
<title>Node1&#45;&gt;Node2</title>
<path fill="none" stroke="midnightblue" d="M178.5,-161C168.93,-151.43 157.14,-139.64 149.25,-131.75"/>
<polygon fill="midnightblue" stroke="midnightblue" points="176.04,-163.49 185.58,-168.08 180.99,-158.54 176.04,-163.49"/>
</g>
<!-- Node7 -->
<g id="node7" class="node">
<title>Node7</title>
<g id="a_node7"><a xlink:href="../../d3/d7e/meshsubtractor_8cpp.html" target="_top" xlink:title=" ">
<polygon fill="white" stroke="black" points="198,-112.5 198,-131.5 301,-131.5 301,-112.5 198,-112.5"/>
<text text-anchor="middle" x="249.5" y="-119.5" font-family="Helvetica,sans-Serif" font-size="10.00">meshsubtractor.cpp</text>
</a>
</g>
</g>
<!-- Node1&#45;&gt;Node7 -->
<g id="edge6" class="edge">
<title>Node1&#45;&gt;Node7</title>
<path fill="none" stroke="midnightblue" d="M210.79,-161C220.54,-151.43 232.55,-139.64 240.59,-131.75"/>
<polygon fill="midnightblue" stroke="midnightblue" points="208.27,-158.58 203.58,-168.08 213.17,-163.57 208.27,-158.58"/>
</g>
<!-- Node3 -->
<g id="node3" class="node">
<title>Node3</title>
<g id="a_node3"><a xlink:href="../../d9/d53/mainwindow_8h.html" target="_top" xlink:title="Qt MainWindow of the application.">
<polygon fill="white" stroke="black" points="50.5,-56.5 50.5,-75.5 128.5,-75.5 128.5,-56.5 50.5,-56.5"/>
<text text-anchor="middle" x="89.5" y="-63.5" font-family="Helvetica,sans-Serif" font-size="10.00">mainwindow.h</text>
</a>
</g>
</g>
<!-- Node2&#45;&gt;Node3 -->
<g id="edge2" class="edge">
<title>Node2&#45;&gt;Node3</title>
<path fill="none" stroke="midnightblue" d="M125.12,-104.72C116.13,-95.2 105.14,-83.56 97.76,-75.75"/>
<polygon fill="midnightblue" stroke="midnightblue" points="122.67,-107.22 132.08,-112.08 127.76,-102.41 122.67,-107.22"/>
</g>
<!-- Node6 -->
<g id="node6" class="node">
<title>Node6</title>
<g id="a_node6"><a xlink:href="../../de/d8b/exportstltool_8cpp.html" target="_top" xlink:title=" ">
<polygon fill="white" stroke="black" points="147,-56.5 147,-75.5 236,-75.5 236,-56.5 147,-56.5"/>
<text text-anchor="middle" x="191.5" y="-63.5" font-family="Helvetica,sans-Serif" font-size="10.00">exportstltool.cpp</text>
</a>
</g>
</g>
<!-- Node2&#45;&gt;Node6 -->
<g id="edge5" class="edge">
<title>Node2&#45;&gt;Node6</title>
<path fill="none" stroke="midnightblue" d="M155.88,-104.72C164.87,-95.2 175.86,-83.56 183.24,-75.75"/>
<polygon fill="midnightblue" stroke="midnightblue" points="153.24,-102.41 148.92,-112.08 158.33,-107.22 153.24,-102.41"/>
</g>
<!-- Node4 -->
<g id="node4" class="node">
<title>Node4</title>
<g id="a_node4"><a xlink:href="../../d8/dd9/mainwindow_8cpp.html" target="_top" xlink:title=" ">
<polygon fill="white" stroke="black" points="0,-0.5 0,-19.5 89,-19.5 89,-0.5 0,-0.5"/>
<text text-anchor="middle" x="44.5" y="-7.5" font-family="Helvetica,sans-Serif" font-size="10.00">mainwindow.cpp</text>
</a>
</g>
</g>
<!-- Node3&#45;&gt;Node4 -->
<g id="edge3" class="edge">
<title>Node3&#45;&gt;Node4</title>
<path fill="none" stroke="midnightblue" d="M75.45,-48.14C67.61,-38.74 58.17,-27.4 51.79,-19.75"/>
<polygon fill="midnightblue" stroke="midnightblue" points="72.98,-50.64 82.07,-56.08 78.36,-46.16 72.98,-50.64"/>
</g>
<!-- Node5 -->
<g id="node5" class="node">
<title>Node5</title>
<g id="a_node5"><a xlink:href="../../df/d0a/main_8cpp.html" target="_top" xlink:title=" ">
<polygon fill="white" stroke="black" points="106.5,-0.5 106.5,-19.5 162.5,-19.5 162.5,-0.5 106.5,-0.5"/>
<text text-anchor="middle" x="134.5" y="-7.5" font-family="Helvetica,sans-Serif" font-size="10.00">main.cpp</text>
</a>
</g>
</g>
<!-- Node3&#45;&gt;Node5 -->
<g id="edge4" class="edge">
<title>Node3&#45;&gt;Node5</title>
<path fill="none" stroke="midnightblue" d="M103.55,-48.14C111.39,-38.74 120.83,-27.4 127.21,-19.75"/>
<polygon fill="midnightblue" stroke="midnightblue" points="100.64,-46.16 96.93,-56.08 106.02,-50.64 100.64,-46.16"/>
</g>
</g>
</svg>
