<?xml version="1.0" encoding="UTF-8" standalone="no"?>
<!DOCTYPE svg PUBLIC "-//W3C//DTD SVG 1.1//EN"
 "http://www.w3.org/Graphics/SVG/1.1/DTD/svg11.dtd">
<!-- Generated by graphviz version 2.44.0 (0)
 -->
<!-- Title: pretty_print::print_container_helper::printer::print_body Pages: 1 -->
<svg width="310pt" height="50pt"
 viewBox="0.00 0.00 310.00 50.00" xmlns="http://www.w3.org/2000/svg" xmlns:xlink="http://www.w3.org/1999/xlink">
<g id="graph0" class="graph" transform="scale(1 1) rotate(0) translate(4 46)">
<title>pretty_print::print_container_helper::printer::print_body</title>
<polygon fill="white" stroke="transparent" points="-4,4 -4,-46 306,-46 306,4 -4,4"/>
<!-- Node1 -->
<g id="node1" class="node">
<title>Node1</title>
<g id="a_node1"><a xlink:title=" ">
<polygon fill="#bfbfbf" stroke="black" points="176,-0.5 176,-41.5 302,-41.5 302,-0.5 176,-0.5"/>
<text text-anchor="start" x="184" y="-29.5" font-family="Helvetica,sans-Serif" font-size="10.00">pretty_print::print</text>
<text text-anchor="start" x="184" y="-18.5" font-family="Helvetica,sans-Serif" font-size="10.00">_container_helper::printer</text>
<text text-anchor="middle" x="239" y="-7.5" font-family="Helvetica,sans-Serif" font-size="10.00">::print_body</text>
</a>
</g>
</g>
<!-- Node2 -->
<g id="node2" class="node">
<title>Node2</title>
<g id="a_node2"><a xlink:href="../../db/d73/structpretty__print_1_1print__container__helper.html#a7a1444dda48e26455a920ef44ff6ad83" target="_top" xlink:title=" ">
<polygon fill="white" stroke="black" points="0,-6 0,-36 140,-36 140,-6 0,-6"/>
<text text-anchor="start" x="8" y="-24" font-family="Helvetica,sans-Serif" font-size="10.00">pretty_print::print</text>
<text text-anchor="middle" x="70" y="-13" font-family="Helvetica,sans-Serif" font-size="10.00">_container_helper::operator()</text>
</a>
</g>
</g>
<!-- Node1&#45;&gt;Node2 -->
<g id="edge1" class="edge">
<title>Node1&#45;&gt;Node2</title>
<path fill="none" stroke="midnightblue" d="M165.64,-21C157.21,-21 148.64,-21 140.26,-21"/>
<polygon fill="midnightblue" stroke="midnightblue" points="165.82,-24.5 175.82,-21 165.82,-17.5 165.82,-24.5"/>
</g>
</g>
</svg>
