<?xml version="1.0" encoding="UTF-8" standalone="no"?>
<!DOCTYPE svg PUBLIC "-//W3C//DTD SVG 1.1//EN"
 "http://www.w3.org/Graphics/SVG/1.1/DTD/svg11.dtd">
<!-- Generated by graphviz version 2.44.1 (0)
 -->
<!-- Title: astar.h Pages: 1 -->
<svg width="2666pt" height="207pt"
 viewBox="0.00 0.00 2666.00 207.00" xmlns="http://www.w3.org/2000/svg" xmlns:xlink="http://www.w3.org/1999/xlink">
<g id="graph0" class="graph" transform="scale(1 1) rotate(0) translate(4 203)">
<title>astar.h</title>
<polygon fill="white" stroke="transparent" points="-4,4 -4,-203 2662,-203 2662,4 -4,4"/>
<!-- Node1 -->
<g id="node1" class="node">
<title>Node1</title>
<g id="a_node1"><a xlink:title="Implementation of the A* search algorithm.">
<polygon fill="#bfbfbf" stroke="black" points="961.5,-179.5 961.5,-198.5 1008.5,-198.5 1008.5,-179.5 961.5,-179.5"/>
<text text-anchor="middle" x="985" y="-186.5" font-family="Helvetica,sans-Serif" font-size="10.00">astar.h</text>
</a>
</g>
</g>
<!-- Node2 -->
<g id="node2" class="node">
<title>Node2</title>
<g id="a_node2"><a xlink:title=" ">
<polygon fill="white" stroke="#bfbfbf" points="332,-56.5 332,-75.5 370,-75.5 370,-56.5 332,-56.5"/>
<text text-anchor="middle" x="351" y="-63.5" font-family="Helvetica,sans-Serif" font-size="10.00">tuple</text>
</a>
</g>
</g>
<!-- Node1&#45;&gt;Node2 -->
<g id="edge1" class="edge">
<title>Node1&#45;&gt;Node2</title>
<path fill="none" stroke="midnightblue" d="M961.16,-188.04C893.38,-187.65 694.17,-182.91 535,-143 475.86,-128.17 410.85,-97.69 376.14,-80.17"/>
<polygon fill="midnightblue" stroke="midnightblue" points="377.69,-77.03 367.19,-75.6 374.5,-83.26 377.69,-77.03"/>
</g>
<!-- Node3 -->
<g id="node3" class="node">
<title>Node3</title>
<g id="a_node3"><a xlink:title=" ">
<polygon fill="white" stroke="#bfbfbf" points="0,-0.5 0,-19.5 44,-19.5 44,-0.5 0,-0.5"/>
<text text-anchor="middle" x="22" y="-7.5" font-family="Helvetica,sans-Serif" font-size="10.00">vector</text>
</a>
</g>
</g>
<!-- Node1&#45;&gt;Node3 -->
<g id="edge2" class="edge">
<title>Node1&#45;&gt;Node3</title>
<path fill="none" stroke="midnightblue" d="M961.29,-188.26C826.26,-189.57 157.72,-193.45 83,-143 44.23,-116.82 29.62,-59.37 24.51,-29.64"/>
<polygon fill="midnightblue" stroke="midnightblue" points="27.97,-29.08 22.99,-19.73 21.05,-30.14 27.97,-29.08"/>
</g>
<!-- Node4 -->
<g id="node4" class="node">
<title>Node4</title>
<g id="a_node4"><a xlink:title=" ">
<polygon fill="white" stroke="#bfbfbf" points="902,-118 902,-137 946,-137 946,-118 902,-118"/>
<text text-anchor="middle" x="924" y="-125" font-family="Helvetica,sans-Serif" font-size="10.00">cmath</text>
</a>
</g>
</g>
<!-- Node1&#45;&gt;Node4 -->
<g id="edge3" class="edge">
<title>Node1&#45;&gt;Node4</title>
<path fill="none" stroke="midnightblue" d="M976.26,-179.48C966.84,-170.28 951.64,-155.46 940.05,-144.16"/>
<polygon fill="midnightblue" stroke="midnightblue" points="942.33,-141.49 932.72,-137.01 937.44,-146.5 942.33,-141.49"/>
</g>
<!-- Node5 -->
<g id="node5" class="node">
<title>Node5</title>
<g id="a_node5"><a xlink:title=" ">
<polygon fill="white" stroke="#bfbfbf" points="964.5,-118 964.5,-137 1005.5,-137 1005.5,-118 964.5,-118"/>
<text text-anchor="middle" x="985" y="-125" font-family="Helvetica,sans-Serif" font-size="10.00">cfloat</text>
</a>
</g>
</g>
<!-- Node1&#45;&gt;Node5 -->
<g id="edge4" class="edge">
<title>Node1&#45;&gt;Node5</title>
<path fill="none" stroke="midnightblue" d="M985,-179.48C985,-171.08 985,-157.98 985,-147.16"/>
<polygon fill="midnightblue" stroke="midnightblue" points="988.5,-147.01 985,-137.01 981.5,-147.01 988.5,-147.01"/>
</g>
<!-- Node6 -->
<g id="node6" class="node">
<title>Node6</title>
<g id="a_node6"><a xlink:title=" ">
<polygon fill="white" stroke="#bfbfbf" points="219,-0.5 219,-19.5 273,-19.5 273,-0.5 219,-0.5"/>
<text text-anchor="middle" x="246" y="-7.5" font-family="Helvetica,sans-Serif" font-size="10.00">iostream</text>
</a>
</g>
</g>
<!-- Node1&#45;&gt;Node6 -->
<g id="edge5" class="edge">
<title>Node1&#45;&gt;Node6</title>
<path fill="none" stroke="midnightblue" d="M961.42,-187.44C853.05,-184.74 405.86,-171.9 351,-143 302.56,-117.48 268.87,-58.84 254.22,-29.06"/>
<polygon fill="midnightblue" stroke="midnightblue" points="257.29,-27.36 249.84,-19.83 250.97,-30.36 257.29,-27.36"/>
</g>
<!-- Node7 -->
<g id="node7" class="node">
<title>Node7</title>
<g id="a_node7"><a xlink:title=" ">
<polygon fill="white" stroke="#bfbfbf" points="874,-56.5 874,-75.5 914,-75.5 914,-56.5 874,-56.5"/>
<text text-anchor="middle" x="894" y="-63.5" font-family="Helvetica,sans-Serif" font-size="10.00">limits</text>
</a>
</g>
</g>
<!-- Node1&#45;&gt;Node7 -->
<g id="edge6" class="edge">
<title>Node1&#45;&gt;Node7</title>
<path fill="none" stroke="midnightblue" d="M961.25,-185.41C918.04,-180.15 829.34,-166.68 811,-143 802.57,-132.11 803.95,-123.84 811,-112 817.11,-101.74 843.14,-88.58 864.45,-79.15"/>
<polygon fill="midnightblue" stroke="midnightblue" points="866.03,-82.28 873.82,-75.1 863.25,-75.86 866.03,-82.28"/>
</g>
<!-- Node8 -->
<g id="node8" class="node">
<title>Node8</title>
<g id="a_node8"><a xlink:title=" ">
<polygon fill="white" stroke="#bfbfbf" points="1023.5,-118 1023.5,-137 1066.5,-137 1066.5,-118 1023.5,-118"/>
<text text-anchor="middle" x="1045" y="-125" font-family="Helvetica,sans-Serif" font-size="10.00">queue</text>
</a>
</g>
</g>
<!-- Node1&#45;&gt;Node8 -->
<g id="edge7" class="edge">
<title>Node1&#45;&gt;Node8</title>
<path fill="none" stroke="midnightblue" d="M993.6,-179.48C1002.86,-170.28 1017.82,-155.46 1029.21,-144.16"/>
<polygon fill="midnightblue" stroke="midnightblue" points="1031.78,-146.54 1036.42,-137.01 1026.85,-141.57 1031.78,-146.54"/>
</g>
<!-- Node9 -->
<g id="node9" class="node">
<title>Node9</title>
<g id="a_node9"><a xlink:title=" ">
<polygon fill="white" stroke="#bfbfbf" points="1084.5,-118 1084.5,-137 1167.5,-137 1167.5,-118 1084.5,-118"/>
<text text-anchor="middle" x="1126" y="-125" font-family="Helvetica,sans-Serif" font-size="10.00">unordered_map</text>
</a>
</g>
</g>
<!-- Node1&#45;&gt;Node9 -->
<g id="edge8" class="edge">
<title>Node1&#45;&gt;Node9</title>
<path fill="none" stroke="midnightblue" d="M1005.2,-179.48C1029.07,-169.4 1069,-152.55 1096.37,-141"/>
<polygon fill="midnightblue" stroke="midnightblue" points="1097.98,-144.12 1105.84,-137.01 1095.26,-137.67 1097.98,-144.12"/>
</g>
<!-- Node10 -->
<g id="node10" class="node">
<title>Node10</title>
<g id="a_node10"><a xlink:title=" ">
<polygon fill="white" stroke="#bfbfbf" points="1268.5,-56.5 1268.5,-75.5 1303.5,-75.5 1303.5,-56.5 1268.5,-56.5"/>
<text text-anchor="middle" x="1286" y="-63.5" font-family="Helvetica,sans-Serif" font-size="10.00">map</text>
</a>
</g>
</g>
<!-- Node1&#45;&gt;Node10 -->
<g id="edge9" class="edge">
<title>Node1&#45;&gt;Node10</title>
<path fill="none" stroke="midnightblue" d="M1008.71,-185.7C1045.91,-181.37 1119.58,-169.93 1176,-143 1196.3,-133.31 1197.63,-124.98 1216,-112 1231.34,-101.16 1249.15,-89.72 1262.97,-81.09"/>
<polygon fill="midnightblue" stroke="midnightblue" points="1265.16,-83.85 1271.81,-75.61 1261.47,-77.9 1265.16,-83.85"/>
</g>
<!-- Node11 -->
<g id="node11" class="node">
<title>Node11</title>
<g id="a_node11"><a xlink:title=" ">
<polygon fill="white" stroke="#bfbfbf" points="1350,-118 1350,-137 1406,-137 1406,-118 1350,-118"/>
<text text-anchor="middle" x="1378" y="-125" font-family="Helvetica,sans-Serif" font-size="10.00">algorithm</text>
</a>
</g>
</g>
<!-- Node1&#45;&gt;Node11 -->
<g id="edge10" class="edge">
<title>Node1&#45;&gt;Node11</title>
<path fill="none" stroke="midnightblue" d="M1008.7,-187.03C1066.41,-184.23 1218.46,-174.24 1341,-143 1343.67,-142.32 1346.4,-141.5 1349.11,-140.6"/>
<polygon fill="midnightblue" stroke="midnightblue" points="1350.52,-143.82 1358.71,-137.1 1348.12,-137.24 1350.52,-143.82"/>
</g>
<!-- Node12 -->
<g id="node12" class="node">
<title>Node12</title>
<g id="a_node12"><a xlink:title=" ">
<polygon fill="white" stroke="#bfbfbf" points="71,-0.5 71,-19.5 117,-19.5 117,-0.5 71,-0.5"/>
<text text-anchor="middle" x="94" y="-7.5" font-family="Helvetica,sans-Serif" font-size="10.00">cstdint</text>
</a>
</g>
</g>
<!-- Node1&#45;&gt;Node12 -->
<g id="edge11" class="edge">
<title>Node1&#45;&gt;Node12</title>
<path fill="none" stroke="midnightblue" d="M961.39,-187.66C832.6,-185.67 217.96,-174.56 140,-143 97.95,-125.98 81.8,-117.28 63,-76 55.43,-59.39 66.58,-40.58 77.56,-27.48"/>
<polygon fill="midnightblue" stroke="midnightblue" points="80.42,-29.54 84.55,-19.79 75.24,-24.84 80.42,-29.54"/>
</g>
<!-- Node13 -->
<g id="node13" class="node">
<title>Node13</title>
<g id="a_node13"><a xlink:title=" ">
<polygon fill="white" stroke="#bfbfbf" points="1424.5,-118 1424.5,-137 1483.5,-137 1483.5,-118 1424.5,-118"/>
<text text-anchor="middle" x="1454" y="-125" font-family="Helvetica,sans-Serif" font-size="10.00">functional</text>
</a>
</g>
</g>
<!-- Node1&#45;&gt;Node13 -->
<g id="edge12" class="edge">
<title>Node1&#45;&gt;Node13</title>
<path fill="none" stroke="midnightblue" d="M1008.65,-187.6C1074.13,-186.06 1262.99,-178.61 1415,-143 1418.07,-142.28 1421.22,-141.39 1424.34,-140.4"/>
<polygon fill="midnightblue" stroke="midnightblue" points="1425.76,-143.61 1434.06,-137.01 1423.46,-137 1425.76,-143.61"/>
</g>
<!-- Node14 -->
<g id="node14" class="node">
<title>Node14</title>
<g id="a_node14"><a xlink:title=" ">
<polygon fill="white" stroke="#bfbfbf" points="1501.5,-118 1501.5,-137 1560.5,-137 1560.5,-118 1501.5,-118"/>
<text text-anchor="middle" x="1531" y="-125" font-family="Helvetica,sans-Serif" font-size="10.00">stdexcept</text>
</a>
</g>
</g>
<!-- Node1&#45;&gt;Node14 -->
<g id="edge13" class="edge">
<title>Node1&#45;&gt;Node14</title>
<path fill="none" stroke="midnightblue" d="M1008.65,-188.2C1081.74,-188.35 1310.09,-185.14 1493,-143 1496,-142.31 1499.08,-141.43 1502.13,-140.45"/>
<polygon fill="midnightblue" stroke="midnightblue" points="1503.35,-143.73 1511.6,-137.08 1501,-137.14 1503.35,-143.73"/>
</g>
<!-- Node15 -->
<g id="node15" class="node">
<title>Node15</title>
<g id="a_node15"><a xlink:title=" ">
<polygon fill="white" stroke="#bfbfbf" points="1579,-112.5 1579,-142.5 1675,-142.5 1675,-112.5 1579,-112.5"/>
<text text-anchor="start" x="1587" y="-130.5" font-family="Helvetica,sans-Serif" font-size="10.00">boost/heap/pairing</text>
<text text-anchor="middle" x="1627" y="-119.5" font-family="Helvetica,sans-Serif" font-size="10.00">_heap.hpp</text>
</a>
</g>
</g>
<!-- Node1&#45;&gt;Node15 -->
<g id="edge14" class="edge">
<title>Node1&#45;&gt;Node15</title>
<path fill="none" stroke="midnightblue" d="M1008.58,-187.64C1086.99,-186.14 1346.15,-178.75 1569.01,-142.97"/>
<polygon fill="midnightblue" stroke="midnightblue" points="1569.61,-146.41 1578.92,-141.35 1568.49,-139.5 1569.61,-146.41"/>
</g>
<!-- Node16 -->
<g id="node16" class="node">
<title>Node16</title>
<g id="a_node16"><a xlink:title=" ">
<polygon fill="white" stroke="#bfbfbf" points="1693,-112.5 1693,-142.5 1797,-142.5 1797,-112.5 1693,-112.5"/>
<text text-anchor="start" x="1701" y="-130.5" font-family="Helvetica,sans-Serif" font-size="10.00">boost/heap/binomial</text>
<text text-anchor="middle" x="1745" y="-119.5" font-family="Helvetica,sans-Serif" font-size="10.00">_heap.hpp</text>
</a>
</g>
</g>
<!-- Node1&#45;&gt;Node16 -->
<g id="edge15" class="edge">
<title>Node1&#45;&gt;Node16</title>
<path fill="none" stroke="midnightblue" d="M1008.69,-187.92C1096.71,-187.33 1413.37,-182.52 1682.9,-142.99"/>
<polygon fill="midnightblue" stroke="midnightblue" points="1683.49,-146.44 1692.87,-141.5 1682.46,-139.51 1683.49,-146.44"/>
</g>
<!-- Node17 -->
<g id="node17" class="node">
<title>Node17</title>
<g id="a_node17"><a xlink:title=" ">
<polygon fill="white" stroke="#bfbfbf" points="1815.5,-118 1815.5,-137 1952.5,-137 1952.5,-118 1815.5,-118"/>
<text text-anchor="middle" x="1884" y="-125" font-family="Helvetica,sans-Serif" font-size="10.00">boost/heap/d_ary_heap.hpp</text>
</a>
</g>
</g>
<!-- Node1&#45;&gt;Node17 -->
<g id="edge16" class="edge">
<title>Node1&#45;&gt;Node17</title>
<path fill="none" stroke="midnightblue" d="M1008.61,-187.82C1106.76,-186.83 1492.06,-180.62 1806,-143 1814.94,-141.93 1824.41,-140.46 1833.54,-138.86"/>
<polygon fill="midnightblue" stroke="midnightblue" points="1834.46,-142.25 1843.67,-137.02 1833.2,-135.37 1834.46,-142.25"/>
</g>
<!-- Node18 -->
<g id="node18" class="node">
<title>Node18</title>
<g id="a_node18"><a xlink:title=" ">
<polygon fill="white" stroke="#bfbfbf" points="1970.5,-112.5 1970.5,-142.5 2067.5,-142.5 2067.5,-112.5 1970.5,-112.5"/>
<text text-anchor="start" x="1978.5" y="-130.5" font-family="Helvetica,sans-Serif" font-size="10.00">boost/heap/priority</text>
<text text-anchor="middle" x="2019" y="-119.5" font-family="Helvetica,sans-Serif" font-size="10.00">_queue.hpp</text>
</a>
</g>
</g>
<!-- Node1&#45;&gt;Node18 -->
<g id="edge17" class="edge">
<title>Node1&#45;&gt;Node18</title>
<path fill="none" stroke="midnightblue" d="M1008.89,-187.56C1137.55,-185.08 1749.52,-172.02 1960.29,-143.01"/>
<polygon fill="midnightblue" stroke="midnightblue" points="1960.91,-146.46 1970.31,-141.58 1959.92,-139.53 1960.91,-146.46"/>
</g>
<!-- Node19 -->
<g id="node19" class="node">
<title>Node19</title>
<g id="a_node19"><a xlink:title=" ">
<polygon fill="white" stroke="#bfbfbf" points="2086,-118 2086,-137 2222,-137 2222,-118 2086,-118"/>
<text text-anchor="middle" x="2154" y="-125" font-family="Helvetica,sans-Serif" font-size="10.00">boost/heap/skew_heap.hpp</text>
</a>
</g>
</g>
<!-- Node1&#45;&gt;Node19 -->
<g id="edge18" class="edge">
<title>Node1&#45;&gt;Node19</title>
<path fill="none" stroke="midnightblue" d="M1008.53,-188.29C1124.92,-189.46 1650.47,-191.69 2077,-143 2085.94,-141.98 2095.39,-140.52 2104.5,-138.91"/>
<polygon fill="midnightblue" stroke="midnightblue" points="2105.4,-142.31 2114.6,-137.06 2104.13,-135.42 2105.4,-142.31"/>
</g>
<!-- Node20 -->
<g id="node20" class="node">
<title>Node20</title>
<g id="a_node20"><a xlink:title=" ">
<polygon fill="white" stroke="#bfbfbf" points="2240.5,-112.5 2240.5,-142.5 2347.5,-142.5 2347.5,-112.5 2240.5,-112.5"/>
<text text-anchor="start" x="2248.5" y="-130.5" font-family="Helvetica,sans-Serif" font-size="10.00">boost/heap/fibonacci</text>
<text text-anchor="middle" x="2294" y="-119.5" font-family="Helvetica,sans-Serif" font-size="10.00">_heap.hpp</text>
</a>
</g>
</g>
<!-- Node1&#45;&gt;Node20 -->
<g id="edge19" class="edge">
<title>Node1&#45;&gt;Node20</title>
<path fill="none" stroke="midnightblue" d="M1008.75,-187.76C1157.32,-186.16 1961.02,-176.13 2230.06,-142.89"/>
<polygon fill="midnightblue" stroke="midnightblue" points="2230.69,-146.34 2240.17,-141.6 2229.8,-139.4 2230.69,-146.34"/>
</g>
<!-- Node21 -->
<g id="node21" class="node">
<title>Node21</title>
<g id="a_node21"><a xlink:title=" ">
<polygon fill="white" stroke="#bfbfbf" points="2366,-112.5 2366,-142.5 2476,-142.5 2476,-112.5 2366,-112.5"/>
<text text-anchor="start" x="2374" y="-130.5" font-family="Helvetica,sans-Serif" font-size="10.00">boost/container/static</text>
<text text-anchor="middle" x="2421" y="-119.5" font-family="Helvetica,sans-Serif" font-size="10.00">_vector.hpp</text>
</a>
</g>
</g>
<!-- Node1&#45;&gt;Node21 -->
<g id="edge20" class="edge">
<title>Node1&#45;&gt;Node21</title>
<path fill="none" stroke="midnightblue" d="M1008.54,-187.84C1165.2,-186.68 2059.71,-178.65 2355.69,-142.95"/>
<polygon fill="midnightblue" stroke="midnightblue" points="2356.47,-146.38 2365.96,-141.67 2355.6,-139.43 2356.47,-146.38"/>
</g>
<!-- Node22 -->
<g id="node22" class="node">
<title>Node22</title>
<g id="a_node22"><a xlink:title=" ">
<polygon fill="white" stroke="#bfbfbf" points="405,-0.5 405,-19.5 463,-19.5 463,-0.5 405,-0.5"/>
<text text-anchor="middle" x="434" y="-7.5" font-family="Helvetica,sans-Serif" font-size="10.00">vtkNew.h</text>
</a>
</g>
</g>
<!-- Node1&#45;&gt;Node22 -->
<g id="edge21" class="edge">
<title>Node1&#45;&gt;Node22</title>
<path fill="none" stroke="midnightblue" d="M961.48,-187.69C890.17,-186.36 677.86,-179.37 621,-143 582.66,-118.47 602.65,-84.29 567,-56 552.25,-44.29 506.85,-30.33 473.18,-21.09"/>
<polygon fill="midnightblue" stroke="midnightblue" points="473.72,-17.61 463.15,-18.38 471.89,-24.37 473.72,-17.61"/>
</g>
<!-- Node23 -->
<g id="node23" class="node">
<title>Node23</title>
<g id="a_node23"><a xlink:title=" ">
<polygon fill="white" stroke="#bfbfbf" points="2494,-118 2494,-137 2554,-137 2554,-118 2494,-118"/>
<text text-anchor="middle" x="2524" y="-125" font-family="Helvetica,sans-Serif" font-size="10.00">vtkMath.h</text>
</a>
</g>
</g>
<!-- Node1&#45;&gt;Node23 -->
<g id="edge22" class="edge">
<title>Node1&#45;&gt;Node23</title>
<path fill="none" stroke="midnightblue" d="M1008.56,-187.76C1187.86,-185.84 2334.22,-172.46 2485,-143 2488.44,-142.33 2491.97,-141.39 2495.44,-140.31"/>
<polygon fill="midnightblue" stroke="midnightblue" points="2496.63,-143.61 2504.92,-137.01 2494.32,-137 2496.63,-143.61"/>
</g>
<!-- Node24 -->
<g id="node24" class="node">
<title>Node24</title>
<g id="a_node24"><a xlink:title=" ">
<polygon fill="white" stroke="#bfbfbf" points="135,-0.5 135,-19.5 201,-19.5 201,-0.5 135,-0.5"/>
<text text-anchor="middle" x="168" y="-7.5" font-family="Helvetica,sans-Serif" font-size="10.00">vtkVector.h</text>
</a>
</g>
</g>
<!-- Node1&#45;&gt;Node24 -->
<g id="edge23" class="edge">
<title>Node1&#45;&gt;Node24</title>
<path fill="none" stroke="midnightblue" d="M961.46,-187.37C849.07,-184.24 369.89,-169.43 309,-143 250.71,-117.7 201.46,-57.53 179.8,-27.98"/>
<polygon fill="midnightblue" stroke="midnightblue" points="182.43,-25.63 173.76,-19.54 176.74,-29.71 182.43,-25.63"/>
</g>
<!-- Node25 -->
<g id="node25" class="node">
<title>Node25</title>
<g id="a_node25"><a xlink:title=" ">
<polygon fill="white" stroke="#bfbfbf" points="932.5,-56.5 932.5,-75.5 1041.5,-75.5 1041.5,-56.5 932.5,-56.5"/>
<text text-anchor="middle" x="987" y="-63.5" font-family="Helvetica,sans-Serif" font-size="10.00">vtkVectorOperators.h</text>
</a>
</g>
</g>
<!-- Node1&#45;&gt;Node25 -->
<g id="edge24" class="edge">
<title>Node1&#45;&gt;Node25</title>
<path fill="none" stroke="midnightblue" d="M961.19,-185.97C907.34,-180.46 783.72,-162.12 822,-112 834.45,-95.71 881.49,-83.89 922.17,-76.47"/>
<polygon fill="midnightblue" stroke="midnightblue" points="922.84,-79.91 932.09,-74.73 921.63,-73.01 922.84,-79.91"/>
</g>
<!-- Node26 -->
<g id="node26" class="node">
<title>Node26</title>
<g id="a_node26"><a xlink:title=" ">
<polygon fill="white" stroke="#bfbfbf" points="1060,-56.5 1060,-75.5 1142,-75.5 1142,-56.5 1060,-56.5"/>
<text text-anchor="middle" x="1101" y="-63.5" font-family="Helvetica,sans-Serif" font-size="10.00">vtkVectorDot.h</text>
</a>
</g>
</g>
<!-- Node1&#45;&gt;Node26 -->
<g id="edge25" class="edge">
<title>Node1&#45;&gt;Node26</title>
<path fill="none" stroke="midnightblue" d="M961.34,-187.17C931.96,-184.72 882.94,-175.65 860,-143 852.08,-131.73 851.2,-122.6 860,-112 861.53,-110.16 979.61,-88.74 1049.9,-76.13"/>
<polygon fill="midnightblue" stroke="midnightblue" points="1050.68,-79.54 1059.9,-74.33 1049.44,-72.65 1050.68,-79.54"/>
</g>
<!-- Node27 -->
<g id="node27" class="node">
<title>Node27</title>
<g id="a_node27"><a xlink:title=" ">
<polygon fill="white" stroke="#bfbfbf" points="1160,-56.5 1160,-75.5 1250,-75.5 1250,-56.5 1160,-56.5"/>
<text text-anchor="middle" x="1205" y="-63.5" font-family="Helvetica,sans-Serif" font-size="10.00">vtkVectorNorm.h</text>
</a>
</g>
</g>
<!-- Node1&#45;&gt;Node27 -->
<g id="edge26" class="edge">
<title>Node1&#45;&gt;Node27</title>
<path fill="none" stroke="midnightblue" d="M961.41,-183.74C939.43,-178.39 907.87,-166.83 893,-143 885.71,-131.31 883.96,-122.39 893,-112 929.14,-70.46 1078.18,-83.3 1149.58,-75.91"/>
<polygon fill="midnightblue" stroke="midnightblue" points="1150.45,-79.33 1159.93,-74.6 1149.57,-72.38 1150.45,-79.33"/>
</g>
<!-- Node28 -->
<g id="node28" class="node">
<title>Node28</title>
<g id="a_node28"><a xlink:title=" ">
<polygon fill="white" stroke="#bfbfbf" points="291.5,-0.5 291.5,-19.5 386.5,-19.5 386.5,-0.5 291.5,-0.5"/>
<text text-anchor="middle" x="339" y="-7.5" font-family="Helvetica,sans-Serif" font-size="10.00">vtkSmartPointer.h</text>
</a>
</g>
</g>
<!-- Node1&#45;&gt;Node28 -->
<g id="edge27" class="edge">
<title>Node1&#45;&gt;Node28</title>
<path fill="none" stroke="midnightblue" d="M961.49,-187.36C870.7,-184.67 543.1,-173.04 444,-143 385.17,-125.17 354.21,-128.96 323,-76 314.36,-61.34 320.84,-42.18 327.97,-28.47"/>
<polygon fill="midnightblue" stroke="midnightblue" points="331.13,-30 333.07,-19.59 325.05,-26.51 331.13,-30"/>
</g>
<!-- Node29 -->
<g id="node29" class="node">
<title>Node29</title>
<g id="a_node29"><a xlink:title=" ">
<polygon fill="white" stroke="#bfbfbf" points="2572,-118 2572,-137 2658,-137 2658,-118 2572,-118"/>
<text text-anchor="middle" x="2615" y="-125" font-family="Helvetica,sans-Serif" font-size="10.00">vtkImageData.h</text>
</a>
</g>
</g>
<!-- Node1&#45;&gt;Node29 -->
<g id="edge28" class="edge">
<title>Node1&#45;&gt;Node29</title>
<path fill="none" stroke="midnightblue" d="M1008.69,-188.11C1181.03,-188.83 2244.59,-191.2 2563,-143 2568.25,-142.21 2573.73,-141.05 2579.07,-139.74"/>
<polygon fill="midnightblue" stroke="midnightblue" points="2580.32,-143.02 2589.08,-137.06 2578.52,-136.26 2580.32,-143.02"/>
</g>
<!-- Node30 -->
<g id="node30" class="node">
<title>Node30</title>
<g id="a_node30"><a xlink:href="../../d8/d4d/mutable__priority__queue_8h.html" target="_top" xlink:title=" ">
<polygon fill="white" stroke="black" points="1224.5,-112.5 1224.5,-142.5 1331.5,-142.5 1331.5,-112.5 1224.5,-112.5"/>
<text text-anchor="start" x="1232.5" y="-130.5" font-family="Helvetica,sans-Serif" font-size="10.00">utils/mutable_priority</text>
<text text-anchor="middle" x="1278" y="-119.5" font-family="Helvetica,sans-Serif" font-size="10.00">_queue.h</text>
</a>
</g>
</g>
<!-- Node1&#45;&gt;Node30 -->
<g id="edge29" class="edge">
<title>Node1&#45;&gt;Node30</title>
<path fill="none" stroke="midnightblue" d="M1008.67,-183.37C1049.69,-175.32 1136.66,-158.15 1210,-143 1211.44,-142.7 1212.9,-142.4 1214.37,-142.09"/>
<polygon fill="midnightblue" stroke="midnightblue" points="1215.12,-145.51 1224.19,-140.04 1213.69,-138.66 1215.12,-145.51"/>
</g>
<!-- Node31 -->
<g id="node31" class="node">
<title>Node31</title>
<g id="a_node31"><a xlink:href="../../db/d83/scene_8h.html" target="_top" xlink:title="The scene object is a &quot;glue object&quot; which holds scene specific informations.">
<polygon fill="white" stroke="red" points="804.5,-56.5 804.5,-75.5 855.5,-75.5 855.5,-56.5 804.5,-56.5"/>
<text text-anchor="middle" x="830" y="-63.5" font-family="Helvetica,sans-Serif" font-size="10.00">scene.h</text>
</a>
</g>
</g>
<!-- Node1&#45;&gt;Node31 -->
<g id="edge31" class="edge">
<title>Node1&#45;&gt;Node31</title>
<path fill="none" stroke="midnightblue" d="M961.44,-185.76C916.58,-180.94 821.58,-167.98 802,-143 788.24,-125.45 802.28,-100.47 814.96,-84"/>
<polygon fill="midnightblue" stroke="midnightblue" points="818.02,-85.78 821.67,-75.83 812.62,-81.34 818.02,-85.78"/>
</g>
<!-- Node64 -->
<g id="node48" class="node">
<title>Node64</title>
<g id="a_node48"><a xlink:href="../../d2/d6f/constants_8h.html" target="_top" xlink:title="Application / Algorithm specific global constants.">
<polygon fill="white" stroke="black" points="72.5,-56.5 72.5,-75.5 161.5,-75.5 161.5,-56.5 72.5,-56.5"/>
<text text-anchor="middle" x="117" y="-63.5" font-family="Helvetica,sans-Serif" font-size="10.00">core/constants.h</text>
</a>
</g>
</g>
<!-- Node1&#45;&gt;Node64 -->
<g id="edge51" class="edge">
<title>Node1&#45;&gt;Node64</title>
<path fill="none" stroke="midnightblue" d="M961.46,-187.85C835.82,-186.87 247.16,-180.33 176,-143 151.79,-130.3 134.42,-102.77 125.04,-84.57"/>
<polygon fill="midnightblue" stroke="midnightblue" points="128.18,-83.02 120.66,-75.57 121.89,-86.09 128.18,-83.02"/>
</g>
<!-- Node65 -->
<g id="node49" class="node">
<title>Node65</title>
<g id="a_node49"><a xlink:href="../../d5/d60/utils_8h.html" target="_top" xlink:title="Various utility algorithms needed by various parts of the application.">
<polygon fill="white" stroke="red" points="630,-118 630,-137 694,-137 694,-118 630,-118"/>
<text text-anchor="middle" x="662" y="-125" font-family="Helvetica,sans-Serif" font-size="10.00">utils/utils.h</text>
</a>
</g>
</g>
<!-- Node1&#45;&gt;Node65 -->
<g id="edge54" class="edge">
<title>Node1&#45;&gt;Node65</title>
<path fill="none" stroke="midnightblue" d="M961.43,-185.34C913.35,-179.65 800.67,-165.01 708,-143 704.36,-142.14 700.6,-141.13 696.86,-140.07"/>
<polygon fill="midnightblue" stroke="midnightblue" points="697.71,-136.67 687.12,-137.14 695.69,-143.37 697.71,-136.67"/>
</g>
<!-- Node106 -->
<g id="node50" class="node">
<title>Node106</title>
<g id="a_node50"><a xlink:href="../../d4/d67/connection_8h.html" target="_top" xlink:title="Connection between a touchpoint and a connector.">
<polygon fill="white" stroke="red" points="464,-56.5 464,-75.5 558,-75.5 558,-56.5 464,-56.5"/>
<text text-anchor="middle" x="511" y="-63.5" font-family="Helvetica,sans-Serif" font-size="10.00">core/connection.h</text>
</a>
</g>
</g>
<!-- Node1&#45;&gt;Node106 -->
<g id="edge70" class="edge">
<title>Node1&#45;&gt;Node106</title>
<path fill="none" stroke="midnightblue" d="M961.31,-187.77C883.94,-186.65 639.83,-180.19 572,-143 547.97,-129.82 529.92,-102.89 519.91,-84.89"/>
<polygon fill="midnightblue" stroke="midnightblue" points="522.96,-83.15 515.19,-75.95 516.77,-86.42 522.96,-83.15"/>
</g>
<!-- Node30&#45;&gt;Node10 -->
<g id="edge30" class="edge">
<title>Node30&#45;&gt;Node10</title>
<path fill="none" stroke="midnightblue" d="M1279.9,-112.4C1280.97,-104.38 1282.34,-94.23 1283.5,-85.57"/>
<polygon fill="midnightblue" stroke="midnightblue" points="1286.97,-86.04 1284.84,-75.66 1280.03,-85.1 1286.97,-86.04"/>
</g>
<!-- Node31&#45;&gt;Node12 -->
<g id="edge34" class="edge">
<title>Node31&#45;&gt;Node12</title>
<path fill="none" stroke="midnightblue" d="M804.26,-64.08C696.41,-60.12 279.77,-43.7 127.37,-19.82"/>
<polygon fill="midnightblue" stroke="midnightblue" points="127.72,-16.33 117.29,-18.16 126.59,-23.24 127.72,-16.33"/>
</g>
<!-- Node31&#45;&gt;Node22 -->
<g id="edge36" class="edge">
<title>Node31&#45;&gt;Node22</title>
<path fill="none" stroke="midnightblue" d="M804.24,-62.72C746.69,-57.43 603.13,-43.09 473.49,-20.11"/>
<polygon fill="midnightblue" stroke="midnightblue" points="473.85,-16.61 463.39,-18.29 472.62,-23.5 473.85,-16.61"/>
</g>
<!-- Node31&#45;&gt;Node28 -->
<g id="edge37" class="edge">
<title>Node31&#45;&gt;Node28</title>
<path fill="none" stroke="midnightblue" d="M804.02,-62.79C737.94,-57.08 557.94,-40.86 396.66,-20.02"/>
<polygon fill="midnightblue" stroke="midnightblue" points="396.93,-16.52 386.56,-18.7 396.02,-23.46 396.93,-16.52"/>
</g>
<!-- Node32 -->
<g id="node32" class="node">
<title>Node32</title>
<g id="a_node32"><a xlink:title=" ">
<polygon fill="white" stroke="#bfbfbf" points="1879,-0.5 1879,-19.5 1931,-19.5 1931,-0.5 1879,-0.5"/>
<text text-anchor="middle" x="1905" y="-7.5" font-family="Helvetica,sans-Serif" font-size="10.00">memory</text>
</a>
</g>
</g>
<!-- Node31&#45;&gt;Node32 -->
<g id="edge32" class="edge">
<title>Node31&#45;&gt;Node32</title>
<path fill="none" stroke="midnightblue" d="M855.87,-57.68C858.93,-57.02 862.02,-56.43 865,-56 1304,7.54 1425.82,-82.64 1868.56,-19.86"/>
<polygon fill="midnightblue" stroke="midnightblue" points="1869.35,-23.28 1878.75,-18.4 1868.35,-16.36 1869.35,-23.28"/>
</g>
<!-- Node33 -->
<g id="node33" class="node">
<title>Node33</title>
<g id="a_node33"><a xlink:title=" ">
<polygon fill="white" stroke="#bfbfbf" points="1949,-0.5 1949,-19.5 1987,-19.5 1987,-0.5 1949,-0.5"/>
<text text-anchor="middle" x="1968" y="-7.5" font-family="Helvetica,sans-Serif" font-size="10.00">array</text>
</a>
</g>
</g>
<!-- Node31&#45;&gt;Node33 -->
<g id="edge33" class="edge">
<title>Node31&#45;&gt;Node33</title>
<path fill="none" stroke="midnightblue" d="M855.87,-57.68C858.93,-57.01 862.02,-56.43 865,-56 1334.84,11.45 1467.16,-100.33 1938.76,-19.67"/>
<polygon fill="midnightblue" stroke="midnightblue" points="1939.64,-23.07 1948.9,-17.91 1938.45,-16.17 1939.64,-23.07"/>
</g>
<!-- Node34 -->
<g id="node34" class="node">
<title>Node34</title>
<g id="a_node34"><a xlink:title=" ">
<polygon fill="white" stroke="#bfbfbf" points="2005,-0.5 2005,-19.5 2085,-19.5 2085,-0.5 2005,-0.5"/>
<text text-anchor="middle" x="2045" y="-7.5" font-family="Helvetica,sans-Serif" font-size="10.00">QMainWindow</text>
</a>
</g>
</g>
<!-- Node31&#45;&gt;Node34 -->
<g id="edge35" class="edge">
<title>Node31&#45;&gt;Node34</title>
<path fill="none" stroke="midnightblue" d="M855.87,-57.67C858.92,-57.01 862.02,-56.43 865,-56 1359.59,14.58 1494.17,-72.42 1994.94,-19.92"/>
<polygon fill="midnightblue" stroke="midnightblue" points="1995.39,-23.4 2004.96,-18.86 1994.65,-16.43 1995.39,-23.4"/>
</g>
<!-- Node35 -->
<g id="node35" class="node">
<title>Node35</title>
<g id="a_node35"><a xlink:title=" ">
<polygon fill="white" stroke="#bfbfbf" points="481.5,-0.5 481.5,-19.5 592.5,-19.5 592.5,-0.5 481.5,-0.5"/>
<text text-anchor="middle" x="537" y="-7.5" font-family="Helvetica,sans-Serif" font-size="10.00">vtkPolyDataMapper.h</text>
</a>
</g>
</g>
<!-- Node31&#45;&gt;Node35 -->
<g id="edge38" class="edge">
<title>Node31&#45;&gt;Node35</title>
<path fill="none" stroke="midnightblue" d="M804.25,-60.26C757.27,-51.59 656.6,-33.04 593.11,-21.34"/>
<polygon fill="midnightblue" stroke="midnightblue" points="593.73,-17.9 583.26,-19.53 592.46,-24.78 593.73,-17.9"/>
</g>
<!-- Node36 -->
<g id="node36" class="node">
<title>Node36</title>
<g id="a_node36"><a xlink:title=" ">
<polygon fill="white" stroke="#bfbfbf" points="2103,-0.5 2103,-19.5 2177,-19.5 2177,-0.5 2103,-0.5"/>
<text text-anchor="middle" x="2140" y="-7.5" font-family="Helvetica,sans-Serif" font-size="10.00">vtkProperty.h</text>
</a>
</g>
</g>
<!-- Node31&#45;&gt;Node36 -->
<g id="edge39" class="edge">
<title>Node31&#45;&gt;Node36</title>
<path fill="none" stroke="midnightblue" d="M855.86,-57.67C858.92,-57 862.02,-56.42 865,-56 1402.77,20.05 1549.14,-79.44 2092.86,-19.91"/>
<polygon fill="midnightblue" stroke="midnightblue" points="2093.37,-23.38 2102.92,-18.8 2092.6,-16.42 2093.37,-23.38"/>
</g>
<!-- Node37 -->
<g id="node37" class="node">
<title>Node37</title>
<g id="a_node37"><a xlink:title=" ">
<polygon fill="white" stroke="#bfbfbf" points="611,-0.5 611,-19.5 673,-19.5 673,-0.5 611,-0.5"/>
<text text-anchor="middle" x="642" y="-7.5" font-family="Helvetica,sans-Serif" font-size="10.00">vtkActor.h</text>
</a>
</g>
</g>
<!-- Node31&#45;&gt;Node37 -->
<g id="edge40" class="edge">
<title>Node31&#45;&gt;Node37</title>
<path fill="none" stroke="midnightblue" d="M804.25,-57.6C772.63,-48.52 718.65,-33.02 681.71,-22.41"/>
<polygon fill="midnightblue" stroke="midnightblue" points="682.35,-18.95 671.77,-19.55 680.41,-25.68 682.35,-18.95"/>
</g>
<!-- Node38 -->
<g id="node38" class="node">
<title>Node38</title>
<g id="a_node38"><a xlink:title=" ">
<polygon fill="white" stroke="#bfbfbf" points="903,-0.5 903,-19.5 981,-19.5 981,-0.5 903,-0.5"/>
<text text-anchor="middle" x="942" y="-7.5" font-family="Helvetica,sans-Serif" font-size="10.00">vtkRenderer.h</text>
</a>
</g>
</g>
<!-- Node31&#45;&gt;Node38 -->
<g id="edge41" class="edge">
<title>Node31&#45;&gt;Node38</title>
<path fill="none" stroke="midnightblue" d="M847.99,-56.32C866.04,-47.62 894.05,-34.12 914.8,-24.11"/>
<polygon fill="midnightblue" stroke="midnightblue" points="916.56,-27.15 924.05,-19.65 913.52,-20.84 916.56,-27.15"/>
</g>
<!-- Node39 -->
<g id="node39" class="node">
<title>Node39</title>
<g id="a_node39"><a xlink:title=" ">
<polygon fill="white" stroke="#bfbfbf" points="999,-0.5 999,-19.5 1103,-19.5 1103,-0.5 999,-0.5"/>
<text text-anchor="middle" x="1051" y="-7.5" font-family="Helvetica,sans-Serif" font-size="10.00">vtkRenderWindow.h</text>
</a>
</g>
</g>
<!-- Node31&#45;&gt;Node39 -->
<g id="edge42" class="edge">
<title>Node31&#45;&gt;Node39</title>
<path fill="none" stroke="midnightblue" d="M855.6,-58.37C858.77,-57.57 861.96,-56.76 865,-56 912.59,-44.13 967.14,-30.98 1004.8,-21.98"/>
<polygon fill="midnightblue" stroke="midnightblue" points="1006.04,-25.28 1014.96,-19.56 1004.42,-18.48 1006.04,-25.28"/>
</g>
<!-- Node40 -->
<g id="node40" class="node">
<title>Node40</title>
<g id="a_node40"><a xlink:title=" ">
<polygon fill="white" stroke="#bfbfbf" points="1121.5,-0.5 1121.5,-19.5 1194.5,-19.5 1194.5,-0.5 1121.5,-0.5"/>
<text text-anchor="middle" x="1158" y="-7.5" font-family="Helvetica,sans-Serif" font-size="10.00">vtkCamera.h</text>
</a>
</g>
</g>
<!-- Node31&#45;&gt;Node40 -->
<g id="edge43" class="edge">
<title>Node31&#45;&gt;Node40</title>
<path fill="none" stroke="midnightblue" d="M855.54,-58.1C858.72,-57.34 861.92,-56.62 865,-56 970.69,-34.77 1000.94,-38.42 1111.5,-20"/>
<polygon fill="midnightblue" stroke="midnightblue" points="1112.09,-23.45 1121.37,-18.33 1110.93,-16.55 1112.09,-23.45"/>
</g>
<!-- Node41 -->
<g id="node41" class="node">
<title>Node41</title>
<g id="a_node41"><a xlink:title=" ">
<polygon fill="white" stroke="#bfbfbf" points="691.5,-0.5 691.5,-19.5 770.5,-19.5 770.5,-0.5 691.5,-0.5"/>
<text text-anchor="middle" x="731" y="-7.5" font-family="Helvetica,sans-Serif" font-size="10.00">vtkPolyData.h</text>
</a>
</g>
</g>
<!-- Node31&#45;&gt;Node41 -->
<g id="edge44" class="edge">
<title>Node31&#45;&gt;Node41</title>
<path fill="none" stroke="midnightblue" d="M814.09,-56.32C798.36,-47.74 774.06,-34.49 755.79,-24.52"/>
<polygon fill="midnightblue" stroke="midnightblue" points="757.32,-21.37 746.87,-19.65 753.97,-27.52 757.32,-21.37"/>
</g>
<!-- Node42 -->
<g id="node42" class="node">
<title>Node42</title>
<g id="a_node42"><a xlink:title=" ">
<polygon fill="white" stroke="#bfbfbf" points="1212.5,-0.5 1212.5,-19.5 1293.5,-19.5 1293.5,-0.5 1212.5,-0.5"/>
<text text-anchor="middle" x="1253" y="-7.5" font-family="Helvetica,sans-Serif" font-size="10.00">vtkAssembly.h</text>
</a>
</g>
</g>
<!-- Node31&#45;&gt;Node42 -->
<g id="edge45" class="edge">
<title>Node31&#45;&gt;Node42</title>
<path fill="none" stroke="midnightblue" d="M855.52,-57.98C858.7,-57.24 861.91,-56.56 865,-56 1010.9,-29.64 1052.28,-41.18 1202.35,-20.14"/>
<polygon fill="midnightblue" stroke="midnightblue" points="1202.99,-23.58 1212.4,-18.7 1202,-16.65 1202.99,-23.58"/>
</g>
<!-- Node43 -->
<g id="node43" class="node">
<title>Node43</title>
<g id="a_node43"><a xlink:title=" ">
<polygon fill="white" stroke="#bfbfbf" points="1311.5,-0.5 1311.5,-19.5 1402.5,-19.5 1402.5,-0.5 1311.5,-0.5"/>
<text text-anchor="middle" x="1357" y="-7.5" font-family="Helvetica,sans-Serif" font-size="10.00">vtkOutlineFilter.h</text>
</a>
</g>
</g>
<!-- Node31&#45;&gt;Node43 -->
<g id="edge46" class="edge">
<title>Node31&#45;&gt;Node43</title>
<path fill="none" stroke="midnightblue" d="M855.51,-57.91C858.69,-57.18 861.91,-56.52 865,-56 1054.41,-24.1 1107.42,-43.41 1301.43,-20.1"/>
<polygon fill="midnightblue" stroke="midnightblue" points="1301.87,-23.57 1311.37,-18.88 1301.02,-16.62 1301.87,-23.57"/>
</g>
<!-- Node44 -->
<g id="node44" class="node">
<title>Node44</title>
<g id="a_node44"><a xlink:title=" ">
<polygon fill="white" stroke="#bfbfbf" points="789,-0.5 789,-19.5 885,-19.5 885,-0.5 789,-0.5"/>
<text text-anchor="middle" x="837" y="-7.5" font-family="Helvetica,sans-Serif" font-size="10.00">vtkBoundingBox.h</text>
</a>
</g>
</g>
<!-- Node31&#45;&gt;Node44 -->
<g id="edge47" class="edge">
<title>Node31&#45;&gt;Node44</title>
<path fill="none" stroke="midnightblue" d="M831.16,-56.08C832.08,-48.93 833.42,-38.64 834.58,-29.69"/>
<polygon fill="midnightblue" stroke="midnightblue" points="838.05,-30.12 835.87,-19.75 831.11,-29.22 838.05,-30.12"/>
</g>
<!-- Node45 -->
<g id="node45" class="node">
<title>Node45</title>
<g id="a_node45"><a xlink:title=" ">
<polygon fill="white" stroke="#bfbfbf" points="1421,-0.5 1421,-19.5 1595,-19.5 1595,-0.5 1421,-0.5"/>
<text text-anchor="middle" x="1508" y="-7.5" font-family="Helvetica,sans-Serif" font-size="10.00">vtkGenericOpenGLRenderWindow.h</text>
</a>
</g>
</g>
<!-- Node31&#45;&gt;Node45 -->
<g id="edge48" class="edge">
<title>Node31&#45;&gt;Node45</title>
<path fill="none" stroke="midnightblue" d="M855.88,-57.77C858.94,-57.09 862.03,-56.48 865,-56 1102.29,-18.02 1167.36,-38.79 1410.67,-20.07"/>
<polygon fill="midnightblue" stroke="midnightblue" points="1411.19,-23.54 1420.89,-19.27 1410.65,-16.57 1411.19,-23.54"/>
</g>
<!-- Node46 -->
<g id="node46" class="node">
<title>Node46</title>
<g id="a_node46"><a xlink:title=" ">
<polygon fill="white" stroke="#bfbfbf" points="1613,-0.5 1613,-19.5 1697,-19.5 1697,-0.5 1613,-0.5"/>
<text text-anchor="middle" x="1655" y="-7.5" font-family="Helvetica,sans-Serif" font-size="10.00">vtkAxesActor.h</text>
</a>
</g>
</g>
<!-- Node31&#45;&gt;Node46 -->
<g id="edge49" class="edge">
<title>Node31&#45;&gt;Node46</title>
<path fill="none" stroke="midnightblue" d="M855.87,-57.72C858.93,-57.05 862.02,-56.45 865,-56 1186.8,-7.3 1275.4,-55.63 1602.51,-20.01"/>
<polygon fill="midnightblue" stroke="midnightblue" points="1603.2,-23.46 1612.76,-18.88 1602.43,-16.5 1603.2,-23.46"/>
</g>
<!-- Node47 -->
<g id="node47" class="node">
<title>Node47</title>
<g id="a_node47"><a xlink:title=" ">
<polygon fill="white" stroke="#bfbfbf" points="1715,-0.5 1715,-19.5 1861,-19.5 1861,-0.5 1715,-0.5"/>
<text text-anchor="middle" x="1788" y="-7.5" font-family="Helvetica,sans-Serif" font-size="10.00">vtkOrientationMarkerWidget.h</text>
</a>
</g>
</g>
<!-- Node31&#45;&gt;Node47 -->
<g id="edge50" class="edge">
<title>Node31&#45;&gt;Node47</title>
<path fill="none" stroke="midnightblue" d="M855.87,-57.71C858.93,-57.03 862.02,-56.44 865,-56 1231.82,-1.6 1331.22,-47.6 1704.7,-20.04"/>
<polygon fill="midnightblue" stroke="midnightblue" points="1704.99,-23.53 1714.7,-19.29 1704.47,-16.55 1704.99,-23.53"/>
</g>
<!-- Node64&#45;&gt;Node12 -->
<g id="edge52" class="edge">
<title>Node64&#45;&gt;Node12</title>
<path fill="none" stroke="midnightblue" d="M113.2,-56.08C110.09,-48.77 105.58,-38.18 101.71,-29.1"/>
<polygon fill="midnightblue" stroke="midnightblue" points="104.87,-27.58 97.73,-19.75 98.43,-30.32 104.87,-27.58"/>
</g>
<!-- Node64&#45;&gt;Node24 -->
<g id="edge53" class="edge">
<title>Node64&#45;&gt;Node24</title>
<path fill="none" stroke="midnightblue" d="M125.42,-56.08C132.85,-48.22 143.85,-36.57 152.81,-27.08"/>
<polygon fill="midnightblue" stroke="midnightblue" points="155.41,-29.42 159.74,-19.75 150.32,-24.62 155.41,-29.42"/>
</g>
<!-- Node65&#45;&gt;Node2 -->
<g id="edge55" class="edge">
<title>Node65&#45;&gt;Node2</title>
<path fill="none" stroke="midnightblue" d="M629.71,-121.57C577.7,-113.41 472.26,-96.01 384,-76 382.73,-75.71 381.43,-75.41 380.13,-75.09"/>
<polygon fill="midnightblue" stroke="midnightblue" points="380.68,-71.62 370.12,-72.52 378.94,-78.4 380.68,-71.62"/>
</g>
<!-- Node65&#45;&gt;Node6 -->
<g id="edge56" class="edge">
<title>Node65&#45;&gt;Node6</title>
<path fill="none" stroke="midnightblue" d="M629.83,-123.58C581.24,-118.39 486.87,-105.22 412,-76 396.02,-69.76 394.55,-63.24 379,-56 347.65,-41.41 310.19,-29.17 283.04,-21.16"/>
<polygon fill="midnightblue" stroke="midnightblue" points="283.74,-17.72 273.16,-18.3 281.8,-24.44 283.74,-17.72"/>
</g>
<!-- Node65&#45;&gt;Node7 -->
<g id="edge57" class="edge">
<title>Node65&#45;&gt;Node7</title>
<path fill="none" stroke="midnightblue" d="M694.31,-118.91C734.29,-109.41 804.4,-92.38 864,-76 864.1,-75.97 864.2,-75.95 864.3,-75.92"/>
<polygon fill="midnightblue" stroke="midnightblue" points="865.05,-79.34 873.7,-73.23 863.13,-72.61 865.05,-79.34"/>
</g>
<!-- Node65&#45;&gt;Node22 -->
<g id="edge59" class="edge">
<title>Node65&#45;&gt;Node22</title>
<path fill="none" stroke="midnightblue" d="M656.71,-117.65C647.25,-102.63 626.01,-72.2 600,-56 589.16,-49.25 518.69,-31.43 473.12,-20.34"/>
<polygon fill="midnightblue" stroke="midnightblue" points="473.78,-16.9 463.24,-17.95 472.14,-23.71 473.78,-16.9"/>
</g>
<!-- Node65&#45;&gt;Node24 -->
<g id="edge62" class="edge">
<title>Node65&#45;&gt;Node24</title>
<path fill="none" stroke="midnightblue" d="M629.66,-124.37C568.7,-119.78 433.03,-106.75 323,-76 275.83,-62.82 223.89,-38.98 193.71,-24.13"/>
<polygon fill="midnightblue" stroke="midnightblue" points="195.22,-20.97 184.7,-19.65 192.1,-27.24 195.22,-20.97"/>
</g>
<!-- Node65&#45;&gt;Node25 -->
<g id="edge63" class="edge">
<title>Node65&#45;&gt;Node25</title>
<path fill="none" stroke="midnightblue" d="M694.05,-120.63C748.96,-110.58 861.72,-89.94 930.21,-77.4"/>
<polygon fill="midnightblue" stroke="midnightblue" points="931.19,-80.78 940.4,-75.53 929.93,-73.89 931.19,-80.78"/>
</g>
<!-- Node65&#45;&gt;Node26 -->
<g id="edge64" class="edge">
<title>Node65&#45;&gt;Node26</title>
<path fill="none" stroke="midnightblue" d="M694.01,-122.83C758.91,-115.28 910.88,-97.07 1049.85,-75.96"/>
<polygon fill="midnightblue" stroke="midnightblue" points="1050.47,-79.4 1059.83,-74.43 1049.42,-72.48 1050.47,-79.4"/>
</g>
<!-- Node65&#45;&gt;Node27 -->
<g id="edge65" class="edge">
<title>Node65&#45;&gt;Node27</title>
<path fill="none" stroke="midnightblue" d="M694.12,-123.88C770.97,-117.46 971.67,-99.82 1149.87,-76.08"/>
<polygon fill="midnightblue" stroke="midnightblue" points="1150.5,-79.52 1159.95,-74.72 1149.57,-72.59 1150.5,-79.52"/>
</g>
<!-- Node65&#45;&gt;Node28 -->
<g id="edge58" class="edge">
<title>Node65&#45;&gt;Node28</title>
<path fill="none" stroke="midnightblue" d="M629.97,-121.47C588.57,-114.35 514.72,-99.51 455,-76 420.07,-62.25 382.72,-39.75 360.11,-25.15"/>
<polygon fill="midnightblue" stroke="midnightblue" points="361.93,-22.16 351.65,-19.62 358.1,-28.02 361.93,-22.16"/>
</g>
<!-- Node65&#45;&gt;Node31 -->
<g id="edge69" class="edge">
<title>Node65&#45;&gt;Node31</title>
<path fill="none" stroke="midnightblue" d="M686.07,-117.98C715.01,-107.72 763.76,-90.46 796.4,-78.9"/>
<polygon fill="midnightblue" stroke="midnightblue" points="797.72,-82.15 805.97,-75.51 795.38,-75.55 797.72,-82.15"/>
</g>
<!-- Node65&#45;&gt;Node35 -->
<g id="edge60" class="edge">
<title>Node65&#45;&gt;Node35</title>
<path fill="none" stroke="midnightblue" d="M661.23,-117.55C659.54,-102.93 654.21,-73.76 638,-56 623.61,-40.23 602.66,-29.67 583.57,-22.77"/>
<polygon fill="midnightblue" stroke="midnightblue" points="584.68,-19.45 574.09,-19.58 582.45,-26.09 584.68,-19.45"/>
</g>
<!-- Node65&#45;&gt;Node37 -->
<g id="edge67" class="edge">
<title>Node65&#45;&gt;Node37</title>
<path fill="none" stroke="midnightblue" d="M666.64,-117.63C673.1,-104.08 683.22,-77.53 676,-56 672.4,-45.25 665.1,-35.02 658.18,-27.04"/>
<polygon fill="midnightblue" stroke="midnightblue" points="660.65,-24.56 651.29,-19.61 655.52,-29.32 660.65,-24.56"/>
</g>
<!-- Node65&#45;&gt;Node41 -->
<g id="edge66" class="edge">
<title>Node65&#45;&gt;Node41</title>
<path fill="none" stroke="midnightblue" d="M667.19,-117.82C678.47,-98.92 705.46,-53.75 720.47,-28.62"/>
<polygon fill="midnightblue" stroke="midnightblue" points="723.63,-30.16 725.75,-19.78 717.62,-26.57 723.63,-30.16"/>
</g>
<!-- Node65&#45;&gt;Node44 -->
<g id="edge61" class="edge">
<title>Node65&#45;&gt;Node44</title>
<path fill="none" stroke="midnightblue" d="M675.15,-117.82C705.05,-98.09 778.36,-49.7 815.17,-25.41"/>
<polygon fill="midnightblue" stroke="midnightblue" points="817.28,-28.21 823.69,-19.78 813.42,-22.37 817.28,-28.21"/>
</g>
<!-- Node65&#45;&gt;Node64 -->
<g id="edge68" class="edge">
<title>Node65&#45;&gt;Node64</title>
<path fill="none" stroke="midnightblue" d="M629.94,-123C540,-113.18 284.5,-85.29 171.69,-72.97"/>
<polygon fill="midnightblue" stroke="midnightblue" points="171.87,-69.47 161.55,-71.86 171.11,-76.43 171.87,-69.47"/>
</g>
<!-- Node106&#45;&gt;Node3 -->
<g id="edge72" class="edge">
<title>Node106&#45;&gt;Node3</title>
<path fill="none" stroke="midnightblue" d="M463.72,-60.99C364.71,-52.49 138.46,-32.39 62,-20 59.48,-19.59 56.88,-19.12 54.27,-18.61"/>
<polygon fill="midnightblue" stroke="midnightblue" points="54.84,-15.16 44.33,-16.53 53.4,-22.01 54.84,-15.16"/>
</g>
<!-- Node106&#45;&gt;Node6 -->
<g id="edge71" class="edge">
<title>Node106&#45;&gt;Node6</title>
<path fill="none" stroke="midnightblue" d="M463.93,-56.47C419.7,-48.3 351.45,-35.28 283.16,-20.17"/>
<polygon fill="midnightblue" stroke="midnightblue" points="283.61,-16.69 273.09,-17.93 282.09,-23.52 283.61,-16.69"/>
</g>
<!-- Node106&#45;&gt;Node22 -->
<g id="edge74" class="edge">
<title>Node106&#45;&gt;Node22</title>
<path fill="none" stroke="midnightblue" d="M498.63,-56.32C486.84,-48.06 468.87,-35.45 454.86,-25.63"/>
<polygon fill="midnightblue" stroke="midnightblue" points="456.54,-22.53 446.34,-19.65 452.52,-28.26 456.54,-22.53"/>
</g>
<!-- Node106&#45;&gt;Node24 -->
<g id="edge75" class="edge">
<title>Node106&#45;&gt;Node24</title>
<path fill="none" stroke="midnightblue" d="M463.93,-58.89C406.59,-51.25 306.55,-37.25 211.5,-20.18"/>
<polygon fill="midnightblue" stroke="midnightblue" points="211.9,-16.7 201.43,-18.36 210.65,-23.59 211.9,-16.7"/>
</g>
<!-- Node106&#45;&gt;Node28 -->
<g id="edge73" class="edge">
<title>Node106&#45;&gt;Node28</title>
<path fill="none" stroke="midnightblue" d="M483.75,-56.44C454.56,-47.28 408.08,-32.69 375.69,-22.52"/>
<polygon fill="midnightblue" stroke="midnightblue" points="376.72,-19.17 366.13,-19.52 374.62,-25.85 376.72,-19.17"/>
</g>
<!-- Node106&#45;&gt;Node35 -->
<g id="edge79" class="edge">
<title>Node106&#45;&gt;Node35</title>
<path fill="none" stroke="midnightblue" d="M515.29,-56.08C518.85,-48.69 524.02,-37.95 528.42,-28.81"/>
<polygon fill="midnightblue" stroke="midnightblue" points="531.6,-30.28 532.79,-19.75 525.29,-27.24 531.6,-30.28"/>
</g>
<!-- Node106&#45;&gt;Node37 -->
<g id="edge77" class="edge">
<title>Node106&#45;&gt;Node37</title>
<path fill="none" stroke="midnightblue" d="M531.76,-56.44C553.32,-47.56 587.26,-33.56 611.79,-23.45"/>
<polygon fill="midnightblue" stroke="midnightblue" points="613.43,-26.56 621.34,-19.52 610.76,-20.09 613.43,-26.56"/>
</g>
<!-- Node106&#45;&gt;Node41 -->
<g id="edge76" class="edge">
<title>Node106&#45;&gt;Node41</title>
<path fill="none" stroke="midnightblue" d="M545.86,-56.44C583.92,-47.1 644.96,-32.12 686.46,-21.93"/>
<polygon fill="midnightblue" stroke="midnightblue" points="687.43,-25.3 696.3,-19.52 685.76,-18.5 687.43,-25.3"/>
</g>
<!-- Node106&#45;&gt;Node44 -->
<g id="edge78" class="edge">
<title>Node106&#45;&gt;Node44</title>
<path fill="none" stroke="midnightblue" d="M558.06,-57.21C616.35,-47.55 715.66,-31.1 778.72,-20.65"/>
<polygon fill="midnightblue" stroke="midnightblue" points="779.6,-24.06 788.9,-18.97 778.46,-17.15 779.6,-24.06"/>
</g>
</g>
</svg>
