<?xml version="1.0" encoding="UTF-8" standalone="no"?>
<!DOCTYPE svg PUBLIC "-//W3C//DTD SVG 1.1//EN"
 "http://www.w3.org/Graphics/SVG/1.1/DTD/svg11.dtd">
<!-- Generated by graphviz version 2.44.0 (0)
 -->
<!-- Title: Scene::updateOccupationMapActor Pages: 1 -->
<svg width="513pt" height="313pt"
 viewBox="0.00 0.00 513.00 312.50" xmlns="http://www.w3.org/2000/svg" xmlns:xlink="http://www.w3.org/1999/xlink">
<g id="graph0" class="graph" transform="scale(1 1) rotate(0) translate(4 308.5)">
<title>Scene::updateOccupationMapActor</title>
<polygon fill="white" stroke="transparent" points="-4,4 -4,-308.5 509,-308.5 509,4 -4,4"/>
<!-- Node1 -->
<g id="node1" class="node">
<title>Node1</title>
<g id="a_node1"><a xlink:title="Update the occupation map visualization after changes to the underlying voxel data.">
<polygon fill="#bfbfbf" stroke="black" points="0,-142.5 0,-172.5 148,-172.5 148,-142.5 0,-142.5"/>
<text text-anchor="start" x="8" y="-160.5" font-family="Helvetica,sans-Serif" font-size="10.00">Scene::updateOccupationMap</text>
<text text-anchor="middle" x="74" y="-149.5" font-family="Helvetica,sans-Serif" font-size="10.00">Actor</text>
</a>
</g>
</g>
<!-- Node2 -->
<g id="node2" class="node">
<title>Node2</title>
<g id="a_node2"><a xlink:href="../../d6/db5/class_scene.html#aa52192763d5339a0e7803abe296220c9" target="_top" xlink:title="Return the cuberille visualization of the voxel grid data.">
<polygon fill="white" stroke="black" points="199.5,-285 199.5,-304 324.5,-304 324.5,-285 199.5,-285"/>
<text text-anchor="middle" x="262" y="-292" font-family="Helvetica,sans-Serif" font-size="10.00">Scene::getCuberilleActor</text>
</a>
</g>
</g>
<!-- Node1&#45;&gt;Node2 -->
<g id="edge1" class="edge">
<title>Node1&#45;&gt;Node2</title>
<path fill="none" stroke="midnightblue" d="M84.7,-172.82C101.63,-198.24 139.09,-248.98 184,-275.5 187.67,-277.67 191.57,-279.59 195.61,-281.29"/>
<polygon fill="midnightblue" stroke="midnightblue" points="194.6,-284.65 205.19,-284.88 197.06,-278.09 194.6,-284.65"/>
</g>
<!-- Node3 -->
<g id="node3" class="node">
<title>Node3</title>
<g id="a_node3"><a xlink:href="../../d6/db5/class_scene.html#a7009d25646e9f3a07482091ed2d62e52" target="_top" xlink:title="Return the inner and outer voxels visualization of the voxel grid data.">
<polygon fill="white" stroke="black" points="184,-235.5 184,-265.5 340,-265.5 340,-235.5 184,-235.5"/>
<text text-anchor="start" x="192" y="-253.5" font-family="Helvetica,sans-Serif" font-size="10.00">Scene::getInnerAndOuterVoxels</text>
<text text-anchor="middle" x="262" y="-242.5" font-family="Helvetica,sans-Serif" font-size="10.00">Actor</text>
</a>
</g>
</g>
<!-- Node1&#45;&gt;Node3 -->
<g id="edge2" class="edge">
<title>Node1&#45;&gt;Node3</title>
<path fill="none" stroke="midnightblue" d="M95.37,-172.7C116.6,-187.97 151.27,-211.36 184,-226.5 188.11,-228.4 192.42,-230.21 196.8,-231.91"/>
<polygon fill="midnightblue" stroke="midnightblue" points="195.88,-235.3 206.47,-235.47 198.3,-228.73 195.88,-235.3"/>
</g>
<!-- Node4 -->
<g id="node4" class="node">
<title>Node4</title>
<g id="a_node4"><a xlink:href="../../d6/db5/class_scene.html#a04c9e871c5edc15ca00d736a9cb6c0d0" target="_top" xlink:title="Return the interior voxels only visualization of the voxel grid data.">
<polygon fill="white" stroke="black" points="200.5,-186.5 200.5,-216.5 323.5,-216.5 323.5,-186.5 200.5,-186.5"/>
<text text-anchor="start" x="208.5" y="-204.5" font-family="Helvetica,sans-Serif" font-size="10.00">Scene::getInteriorVoxels</text>
<text text-anchor="middle" x="262" y="-193.5" font-family="Helvetica,sans-Serif" font-size="10.00">Actor</text>
</a>
</g>
</g>
<!-- Node1&#45;&gt;Node4 -->
<g id="edge3" class="edge">
<title>Node1&#45;&gt;Node4</title>
<path fill="none" stroke="midnightblue" d="M138.49,-172.52C155.21,-176.47 173.34,-180.76 190.4,-184.8"/>
<polygon fill="midnightblue" stroke="midnightblue" points="189.77,-188.25 200.31,-187.14 191.38,-181.43 189.77,-188.25"/>
</g>
<!-- Node5 -->
<g id="node5" class="node">
<title>Node5</title>
<g id="a_node5"><a xlink:href="../../d6/db5/class_scene.html#a0799bb0687ffe3a97e0523a4e700ef2d" target="_top" xlink:title="Return the occupation map visualization.">
<polygon fill="white" stroke="black" points="184.5,-148 184.5,-167 339.5,-167 339.5,-148 184.5,-148"/>
<text text-anchor="middle" x="262" y="-155" font-family="Helvetica,sans-Serif" font-size="10.00">Scene::getOccupationMapActor</text>
</a>
</g>
</g>
<!-- Node1&#45;&gt;Node5 -->
<g id="edge4" class="edge">
<title>Node1&#45;&gt;Node5</title>
<path fill="none" stroke="midnightblue" d="M148.25,-157.5C156.79,-157.5 165.58,-157.5 174.29,-157.5"/>
<polygon fill="midnightblue" stroke="midnightblue" points="174.46,-161 184.46,-157.5 174.46,-154 174.46,-161"/>
</g>
<!-- Node6 -->
<g id="node6" class="node">
<title>Node6</title>
<g id="a_node6"><a xlink:href="../../db/dae/class_voxel_image_visualizer.html#a00b60f629dcc3335bff26934e88b9bcb" target="_top" xlink:title="Return the occupation map visualization (unoccupied = yellow, occupied = blue)">
<polygon fill="white" stroke="black" points="204.5,-98.5 204.5,-128.5 319.5,-128.5 319.5,-98.5 204.5,-98.5"/>
<text text-anchor="start" x="212.5" y="-116.5" font-family="Helvetica,sans-Serif" font-size="10.00">VoxelImageVisualizer</text>
<text text-anchor="middle" x="262" y="-105.5" font-family="Helvetica,sans-Serif" font-size="10.00">::getOccupationOutput</text>
</a>
</g>
</g>
<!-- Node1&#45;&gt;Node6 -->
<g id="edge5" class="edge">
<title>Node1&#45;&gt;Node6</title>
<path fill="none" stroke="midnightblue" d="M138.49,-142.48C156.52,-138.22 176.19,-133.56 194.4,-129.26"/>
<polygon fill="midnightblue" stroke="midnightblue" points="195.41,-132.61 204.34,-126.9 193.8,-125.8 195.41,-132.61"/>
</g>
<!-- Node9 -->
<g id="node9" class="node">
<title>Node9</title>
<g id="a_node9"><a xlink:href="../../db/dae/class_voxel_image_visualizer.html#a15634f5a62fd0d71806741d1db033243" target="_top" xlink:title="Set input data of the visualizer.">
<polygon fill="white" stroke="black" points="207,-49.5 207,-79.5 317,-79.5 317,-49.5 207,-49.5"/>
<text text-anchor="start" x="215" y="-67.5" font-family="Helvetica,sans-Serif" font-size="10.00">VoxelImageVisualizer</text>
<text text-anchor="middle" x="262" y="-56.5" font-family="Helvetica,sans-Serif" font-size="10.00">::setInputData</text>
</a>
</g>
</g>
<!-- Node1&#45;&gt;Node9 -->
<g id="edge8" class="edge">
<title>Node1&#45;&gt;Node9</title>
<path fill="none" stroke="midnightblue" d="M95.37,-142.3C116.6,-127.03 151.27,-103.64 184,-88.5 188.3,-86.51 192.81,-84.63 197.4,-82.86"/>
<polygon fill="midnightblue" stroke="midnightblue" points="198.7,-86.11 206.88,-79.39 196.29,-79.54 198.7,-86.11"/>
</g>
<!-- Node10 -->
<g id="node10" class="node">
<title>Node10</title>
<g id="a_node10"><a xlink:href="../../db/dae/class_voxel_image_visualizer.html#a65eec474a368555a6ba16c1f54e956db" target="_top" xlink:title="Set output size of the visualization.">
<polygon fill="white" stroke="black" points="207,-0.5 207,-30.5 317,-30.5 317,-0.5 207,-0.5"/>
<text text-anchor="start" x="215" y="-18.5" font-family="Helvetica,sans-Serif" font-size="10.00">VoxelImageVisualizer</text>
<text text-anchor="middle" x="262" y="-7.5" font-family="Helvetica,sans-Serif" font-size="10.00">::setOutputSize</text>
</a>
</g>
</g>
<!-- Node1&#45;&gt;Node10 -->
<g id="edge9" class="edge">
<title>Node1&#45;&gt;Node10</title>
<path fill="none" stroke="midnightblue" d="M84.88,-142.48C102.07,-117.48 139.91,-67.36 184,-39.5 188.15,-36.88 192.6,-34.53 197.2,-32.42"/>
<polygon fill="midnightblue" stroke="midnightblue" points="198.91,-35.5 206.79,-28.42 196.21,-29.04 198.91,-35.5"/>
</g>
<!-- Node7 -->
<g id="node7" class="node">
<title>Node7</title>
<g id="a_node7"><a xlink:href="../../db/dae/class_voxel_image_visualizer.html#a381e70e9dba0cad1fddf946aa7f4a408" target="_top" xlink:title="Compute scaling factor for visualization actor.">
<polygon fill="white" stroke="black" points="385.5,-120.5 385.5,-150.5 495.5,-150.5 495.5,-120.5 385.5,-120.5"/>
<text text-anchor="start" x="393.5" y="-138.5" font-family="Helvetica,sans-Serif" font-size="10.00">VoxelImageVisualizer</text>
<text text-anchor="middle" x="440.5" y="-127.5" font-family="Helvetica,sans-Serif" font-size="10.00">::getScaleValue</text>
</a>
</g>
</g>
<!-- Node6&#45;&gt;Node7 -->
<g id="edge6" class="edge">
<title>Node6&#45;&gt;Node7</title>
<path fill="none" stroke="midnightblue" d="M319.82,-120.58C337.59,-122.8 357.32,-125.26 375.54,-127.53"/>
<polygon fill="midnightblue" stroke="midnightblue" points="375.14,-131 385.49,-128.77 376,-124.06 375.14,-131"/>
</g>
<!-- Node8 -->
<g id="node8" class="node">
<title>Node8</title>
<g id="a_node8"><a xlink:href="../../db/dae/class_voxel_image_visualizer.html#a2cf2e268d83ea28ea097a557b4e66fcd" target="_top" xlink:title="Compute 1D linearized index from 3D&#45;coodinate index.">
<polygon fill="white" stroke="black" points="376,-82 376,-101 505,-101 505,-82 376,-82"/>
<text text-anchor="middle" x="440.5" y="-89" font-family="Helvetica,sans-Serif" font-size="10.00">VoxelImageVisualizer::idx</text>
</a>
</g>
</g>
<!-- Node6&#45;&gt;Node8 -->
<g id="edge7" class="edge">
<title>Node6&#45;&gt;Node8</title>
<path fill="none" stroke="midnightblue" d="M319.82,-106.42C334.45,-104.59 350.41,-102.61 365.76,-100.69"/>
<polygon fill="midnightblue" stroke="midnightblue" points="366.26,-104.16 375.75,-99.45 365.39,-97.21 366.26,-104.16"/>
</g>
</g>
</svg>
