<?xml version="1.0" encoding="UTF-8" standalone="no"?>
<!DOCTYPE svg PUBLIC "-//W3C//DTD SVG 1.1//EN"
 "http://www.w3.org/Graphics/SVG/1.1/DTD/svg11.dtd">
<!-- Generated by graphviz version 2.44.1 (0)
 -->
<!-- Title: Scene::updateOccupationMapActor Pages: 1 -->
<svg width="506pt" height="340pt"
 viewBox="0.00 0.00 506.00 339.50" xmlns="http://www.w3.org/2000/svg" xmlns:xlink="http://www.w3.org/1999/xlink">
<g id="graph0" class="graph" transform="scale(1 1) rotate(0) translate(4 335.5)">
<title>Scene::updateOccupationMapActor</title>
<polygon fill="white" stroke="transparent" points="-4,4 -4,-335.5 502,-335.5 502,4 -4,4"/>
<!-- Node1 -->
<g id="node1" class="node">
<title>Node1</title>
<g id="a_node1"><a xlink:title="Update the occupation map visualization after changes to the underlying voxel data.">
<polygon fill="#bfbfbf" stroke="black" points="350,-188.5 350,-218.5 498,-218.5 498,-188.5 350,-188.5"/>
<text text-anchor="start" x="358" y="-206.5" font-family="Helvetica,sans-Serif" font-size="10.00">Scene::updateOccupationMap</text>
<text text-anchor="middle" x="424" y="-195.5" font-family="Helvetica,sans-Serif" font-size="10.00">Actor</text>
</a>
</g>
</g>
<!-- Node2 -->
<g id="node2" class="node">
<title>Node2</title>
<g id="a_node2"><a xlink:href="../../d9/d00/class_p_s_interface_tool.html#aa26bf20d4e597f64df960e4c1a5c3a69" target="_top" xlink:title=" ">
<polygon fill="white" stroke="black" points="172.5,-312 172.5,-331 299.5,-331 299.5,-312 172.5,-312"/>
<text text-anchor="middle" x="236" y="-319" font-family="Helvetica,sans-Serif" font-size="10.00">PSInterfaceTool::execute</text>
</a>
</g>
</g>
<!-- Node1&#45;&gt;Node2 -->
<g id="edge1" class="edge">
<title>Node1&#45;&gt;Node2</title>
<path fill="none" stroke="midnightblue" d="M403.86,-226.58C383.78,-249.27 350.17,-283.23 314,-302.5 306.71,-306.39 298.61,-309.49 290.47,-311.97"/>
<polygon fill="midnightblue" stroke="midnightblue" points="406.72,-228.62 410.62,-218.77 401.43,-224.04 406.72,-228.62"/>
</g>
<!-- Node3 -->
<g id="node3" class="node">
<title>Node3</title>
<g id="a_node3"><a xlink:href="../../da/dcb/class_freehand_add_final_point_callback.html#a4a889b08c802e7e81598b8dd8b5e3dad" target="_top" xlink:title="Overwritten callback method, which is executed when the left mouse button is pressed.">
<polygon fill="white" stroke="black" points="158,-262.5 158,-292.5 314,-292.5 314,-262.5 158,-262.5"/>
<text text-anchor="start" x="166" y="-280.5" font-family="Helvetica,sans-Serif" font-size="10.00">FreehandAddFinalPointCallback</text>
<text text-anchor="middle" x="236" y="-269.5" font-family="Helvetica,sans-Serif" font-size="10.00">::Execute</text>
</a>
</g>
</g>
<!-- Node1&#45;&gt;Node3 -->
<g id="edge2" class="edge">
<title>Node1&#45;&gt;Node3</title>
<path fill="none" stroke="midnightblue" d="M383.86,-222.93C363.33,-232.74 337.6,-244.45 314,-253.5 305.89,-256.61 297.2,-259.62 288.67,-262.4"/>
<polygon fill="midnightblue" stroke="midnightblue" points="385.42,-226.06 392.91,-218.57 382.38,-219.76 385.42,-226.06"/>
</g>
<!-- Node4 -->
<g id="node4" class="node">
<title>Node4</title>
<g id="a_node4"><a xlink:href="../../d4/d58/class_polyline_add_final_point_callback.html#aebf2f4ff9236a12c598205822c2949a2" target="_top" xlink:title="Overwritten callback method, which is executed when the left mouse button is pressed for the first ti...">
<polygon fill="white" stroke="black" points="161,-213.5 161,-243.5 311,-243.5 311,-213.5 161,-213.5"/>
<text text-anchor="start" x="169" y="-231.5" font-family="Helvetica,sans-Serif" font-size="10.00">PolylineAddFinalPointCallback</text>
<text text-anchor="middle" x="236" y="-220.5" font-family="Helvetica,sans-Serif" font-size="10.00">::Execute</text>
</a>
</g>
</g>
<!-- Node1&#45;&gt;Node4 -->
<g id="edge3" class="edge">
<title>Node1&#45;&gt;Node4</title>
<path fill="none" stroke="midnightblue" d="M339.84,-214.68C330.26,-215.96 320.54,-217.27 311.09,-218.54"/>
<polygon fill="midnightblue" stroke="midnightblue" points="340.31,-218.15 349.75,-213.34 339.38,-211.21 340.31,-218.15"/>
</g>
<!-- Node5 -->
<g id="node5" class="node">
<title>Node5</title>
<g id="a_node5"><a xlink:href="../../d1/db5/class_lasso_interactor_style.html#a711994cec6c74643d2bc161ba73daacd" target="_top" xlink:title="Overwritten method, which is executed when the left mouse button is released.">
<polygon fill="white" stroke="black" points="182.5,-164.5 182.5,-194.5 289.5,-194.5 289.5,-164.5 182.5,-164.5"/>
<text text-anchor="start" x="190.5" y="-182.5" font-family="Helvetica,sans-Serif" font-size="10.00">LassoInteractorStyle</text>
<text text-anchor="middle" x="236" y="-171.5" font-family="Helvetica,sans-Serif" font-size="10.00">::OnLeftButtonUp</text>
</a>
</g>
</g>
<!-- Node1&#45;&gt;Node5 -->
<g id="edge4" class="edge">
<title>Node1&#45;&gt;Node5</title>
<path fill="none" stroke="midnightblue" d="M339.81,-192.77C322.81,-190.57 305.36,-188.32 289.78,-186.31"/>
<polygon fill="midnightblue" stroke="midnightblue" points="339.39,-196.24 349.75,-194.05 340.29,-189.3 339.39,-196.24"/>
</g>
<!-- Node6 -->
<g id="node6" class="node">
<title>Node6</title>
<g id="a_node6"><a xlink:href="../../db/dbb/class_picking_interactor_style.html#a1620702107e2c2d0c0aefbd896098b0d" target="_top" xlink:title="Overloaded method, invoked when right mouse button is pressed.">
<polygon fill="white" stroke="black" points="179.5,-115.5 179.5,-145.5 292.5,-145.5 292.5,-115.5 179.5,-115.5"/>
<text text-anchor="start" x="187.5" y="-133.5" font-family="Helvetica,sans-Serif" font-size="10.00">PickingInteractorStyle</text>
<text text-anchor="middle" x="236" y="-122.5" font-family="Helvetica,sans-Serif" font-size="10.00">::OnRightButtonDown</text>
</a>
</g>
</g>
<!-- Node1&#45;&gt;Node6 -->
<g id="edge5" class="edge">
<title>Node1&#45;&gt;Node6</title>
<path fill="none" stroke="midnightblue" d="M381.69,-184.13C361.49,-174.96 336.68,-164.15 314,-155.5 305.07,-152.09 295.45,-148.73 286.14,-145.63"/>
<polygon fill="midnightblue" stroke="midnightblue" points="380.37,-187.38 390.92,-188.35 383.28,-181.01 380.37,-187.38"/>
</g>
<!-- Node7 -->
<g id="node7" class="node">
<title>Node7</title>
<g id="a_node7"><a xlink:href="../../d6/db5/class_scene.html#af1128c48ccb6999066aa1d935075cb23" target="_top" xlink:title="Remove a touchpoint from the scene given its unique touchpoint id.">
<polygon fill="white" stroke="black" points="171,-77 171,-96 301,-96 301,-77 171,-77"/>
<text text-anchor="middle" x="236" y="-84" font-family="Helvetica,sans-Serif" font-size="10.00">Scene::removeTouchpoint</text>
</a>
</g>
</g>
<!-- Node1&#45;&gt;Node7 -->
<g id="edge6" class="edge">
<title>Node1&#45;&gt;Node7</title>
<path fill="none" stroke="midnightblue" d="M403.37,-180.63C383.15,-158.48 349.62,-125.53 314,-106.5 305.96,-102.2 296.95,-98.79 288,-96.1"/>
<polygon fill="midnightblue" stroke="midnightblue" points="400.92,-183.14 410.2,-188.25 406.14,-178.47 400.92,-183.14"/>
</g>
<!-- Node8 -->
<g id="node8" class="node">
<title>Node8</title>
<g id="a_node8"><a xlink:href="../../de/de0/class_freehand_touchpoint_tool.html#a8c241ab6ea3d7ced711c84036836e885" target="_top" xlink:title=" ">
<polygon fill="white" stroke="black" points="0,-137.5 0,-167.5 122,-167.5 122,-137.5 0,-137.5"/>
<text text-anchor="start" x="8" y="-155.5" font-family="Helvetica,sans-Serif" font-size="10.00">FreehandTouchpointTool</text>
<text text-anchor="middle" x="61" y="-144.5" font-family="Helvetica,sans-Serif" font-size="10.00">::undo</text>
</a>
</g>
</g>
<!-- Node7&#45;&gt;Node8 -->
<g id="edge7" class="edge">
<title>Node7&#45;&gt;Node8</title>
<path fill="none" stroke="midnightblue" d="M179.81,-98.87C172.37,-101.1 164.93,-103.64 158,-106.5 140.88,-113.56 138.59,-119.25 122,-127.5 115.13,-130.92 107.67,-134.28 100.43,-137.38"/>
<polygon fill="midnightblue" stroke="midnightblue" points="180.87,-102.2 189.53,-96.11 178.96,-95.47 180.87,-102.2"/>
</g>
<!-- Node9 -->
<g id="node9" class="node">
<title>Node9</title>
<g id="a_node9"><a xlink:href="../../dd/d4a/class_lasso_tool.html#ad4e65963efd59e0802ecb4fbd8d8b288" target="_top" xlink:title=" ">
<polygon fill="white" stroke="black" points="17,-99 17,-118 105,-118 105,-99 17,-99"/>
<text text-anchor="middle" x="61" y="-106" font-family="Helvetica,sans-Serif" font-size="10.00">LassoTool::undo</text>
</a>
</g>
</g>
<!-- Node7&#45;&gt;Node9 -->
<g id="edge8" class="edge">
<title>Node7&#45;&gt;Node9</title>
<path fill="none" stroke="midnightblue" d="M160.5,-95.97C141.61,-98.38 121.95,-100.88 105.21,-103.01"/>
<polygon fill="midnightblue" stroke="midnightblue" points="161.1,-99.43 170.58,-94.69 160.22,-92.48 161.1,-99.43"/>
</g>
<!-- Node10 -->
<g id="node10" class="node">
<title>Node10</title>
<g id="a_node10"><a xlink:href="../../d1/d4e/class_place_touchpoint_tool.html#aa565ccff15d4591dc9c6dee73adfe6e8" target="_top" xlink:title=" ">
<polygon fill="white" stroke="black" points="7.5,-49.5 7.5,-79.5 114.5,-79.5 114.5,-49.5 7.5,-49.5"/>
<text text-anchor="start" x="15.5" y="-67.5" font-family="Helvetica,sans-Serif" font-size="10.00">PlaceTouchpointTool</text>
<text text-anchor="middle" x="61" y="-56.5" font-family="Helvetica,sans-Serif" font-size="10.00">::undo</text>
</a>
</g>
</g>
<!-- Node7&#45;&gt;Node10 -->
<g id="edge9" class="edge">
<title>Node7&#45;&gt;Node10</title>
<path fill="none" stroke="midnightblue" d="M160.52,-77.03C145.06,-75.06 129.09,-73.03 114.61,-71.19"/>
<polygon fill="midnightblue" stroke="midnightblue" points="160.22,-80.52 170.58,-78.31 161.1,-73.57 160.22,-80.52"/>
</g>
<!-- Node11 -->
<g id="node11" class="node">
<title>Node11</title>
<g id="a_node11"><a xlink:href="../../de/dd7/class_polyline_touchpoint_tool.html#a9ee474813d977ff7b9877372035a319c" target="_top" xlink:title=" ">
<polygon fill="white" stroke="black" points="3,-0.5 3,-30.5 119,-30.5 119,-0.5 3,-0.5"/>
<text text-anchor="start" x="11" y="-18.5" font-family="Helvetica,sans-Serif" font-size="10.00">PolylineTouchpointTool</text>
<text text-anchor="middle" x="61" y="-7.5" font-family="Helvetica,sans-Serif" font-size="10.00">::undo</text>
</a>
</g>
</g>
<!-- Node7&#45;&gt;Node11 -->
<g id="edge10" class="edge">
<title>Node7&#45;&gt;Node11</title>
<path fill="none" stroke="midnightblue" d="M202.24,-73.06C172.77,-60.96 129.51,-43.21 98.84,-30.62"/>
<polygon fill="midnightblue" stroke="midnightblue" points="201.09,-76.37 211.67,-76.92 203.75,-69.89 201.09,-76.37"/>
</g>
</g>
</svg>
