<?xml version="1.0" encoding="UTF-8" standalone="no"?>
<!DOCTYPE svg PUBLIC "-//W3C//DTD SVG 1.1//EN"
 "http://www.w3.org/Graphics/SVG/1.1/DTD/svg11.dtd">
<!-- Generated by graphviz version 2.44.1 (0)
 -->
<!-- Title: Scene::toggleShowTextActors Pages: 1 -->
<svg width="659pt" height="66pt"
 viewBox="0.00 0.00 659.00 66.00" xmlns="http://www.w3.org/2000/svg" xmlns:xlink="http://www.w3.org/1999/xlink">
<g id="graph0" class="graph" transform="scale(1 1) rotate(0) translate(4 62)">
<title>Scene::toggleShowTextActors</title>
<polygon fill="white" stroke="transparent" points="-4,4 -4,-62 655,-62 655,4 -4,4"/>
<!-- Node1 -->
<g id="node1" class="node">
<title>Node1</title>
<g id="a_node1"><a xlink:title="Toggle between showing / hiding the touchpoint / connector text labels.">
<polygon fill="#bfbfbf" stroke="black" points="0,-19.5 0,-38.5 149,-38.5 149,-19.5 0,-19.5"/>
<text text-anchor="middle" x="74.5" y="-26.5" font-family="Helvetica,sans-Serif" font-size="10.00">Scene::toggleShowTextActors</text>
</a>
</g>
</g>
<!-- Node2 -->
<g id="node2" class="node">
<title>Node2</title>
<g id="a_node2"><a xlink:href="../../d6/db5/class_scene.html#ae4bdf05105a36057e86693a0f60afbd3" target="_top" xlink:title="Hide the touchpoint / connector text labels.">
<polygon fill="white" stroke="black" points="187.5,-38.5 187.5,-57.5 303.5,-57.5 303.5,-38.5 187.5,-38.5"/>
<text text-anchor="middle" x="245.5" y="-45.5" font-family="Helvetica,sans-Serif" font-size="10.00">Scene::hideTextActors</text>
</a>
</g>
</g>
<!-- Node1&#45;&gt;Node2 -->
<g id="edge1" class="edge">
<title>Node1&#45;&gt;Node2</title>
<path fill="none" stroke="midnightblue" d="M149.13,-37.28C158.54,-38.34 168.13,-39.41 177.42,-40.46"/>
<polygon fill="midnightblue" stroke="midnightblue" points="177.04,-43.94 187.37,-41.58 177.83,-36.98 177.04,-43.94"/>
</g>
<!-- Node5 -->
<g id="node5" class="node">
<title>Node5</title>
<g id="a_node5"><a xlink:href="../../d6/db5/class_scene.html#aa9d387019f7a7456bdd8af2b21723387" target="_top" xlink:title="Show the touchpoint / connector number text labels.">
<polygon fill="white" stroke="black" points="185,-0.5 185,-19.5 306,-19.5 306,-0.5 185,-0.5"/>
<text text-anchor="middle" x="245.5" y="-7.5" font-family="Helvetica,sans-Serif" font-size="10.00">Scene::showTextActors</text>
</a>
</g>
</g>
<!-- Node1&#45;&gt;Node5 -->
<g id="edge4" class="edge">
<title>Node1&#45;&gt;Node5</title>
<path fill="none" stroke="midnightblue" d="M149.13,-20.72C157.61,-19.77 166.23,-18.8 174.65,-17.85"/>
<polygon fill="midnightblue" stroke="midnightblue" points="175.26,-21.31 184.8,-16.71 174.47,-14.35 175.26,-21.31"/>
</g>
<!-- Node3 -->
<g id="node3" class="node">
<title>Node3</title>
<g id="a_node3"><a xlink:href="../../d6/db5/class_scene.html#a8a1b015f159dd9ba883ae601464f6c28" target="_top" xlink:title="Set if the touchpoint / connector number labels are visible.">
<polygon fill="white" stroke="black" points="342,-19.5 342,-38.5 490,-38.5 490,-19.5 342,-19.5"/>
<text text-anchor="middle" x="416" y="-26.5" font-family="Helvetica,sans-Serif" font-size="10.00">Scene::setTextActorsVisibility</text>
</a>
</g>
</g>
<!-- Node2&#45;&gt;Node3 -->
<g id="edge2" class="edge">
<title>Node2&#45;&gt;Node3</title>
<path fill="none" stroke="midnightblue" d="M303.55,-41.57C312.69,-40.54 322.31,-39.45 331.91,-38.37"/>
<polygon fill="midnightblue" stroke="midnightblue" points="332.34,-41.84 341.88,-37.24 331.55,-34.89 332.34,-41.84"/>
</g>
<!-- Node4 -->
<g id="node4" class="node">
<title>Node4</title>
<g id="a_node4"><a xlink:href="../../d9/d58/class_touchpoint.html#ab61727c9bb477bccca373f92a2b8bea4" target="_top" xlink:title="Return the touchpoint number label text actor.">
<polygon fill="white" stroke="black" points="526,-19.5 526,-38.5 651,-38.5 651,-19.5 526,-19.5"/>
<text text-anchor="middle" x="588.5" y="-26.5" font-family="Helvetica,sans-Serif" font-size="10.00">Touchpoint::getTextActor</text>
</a>
</g>
</g>
<!-- Node3&#45;&gt;Node4 -->
<g id="edge3" class="edge">
<title>Node3&#45;&gt;Node4</title>
<path fill="none" stroke="midnightblue" d="M490.3,-29C498.7,-29 507.27,-29 515.65,-29"/>
<polygon fill="midnightblue" stroke="midnightblue" points="515.77,-32.5 525.77,-29 515.77,-25.5 515.77,-32.5"/>
</g>
<!-- Node5&#45;&gt;Node3 -->
<g id="edge5" class="edge">
<title>Node5&#45;&gt;Node3</title>
<path fill="none" stroke="midnightblue" d="M306.38,-16.75C314.61,-17.68 323.17,-18.65 331.73,-19.61"/>
<polygon fill="midnightblue" stroke="midnightblue" points="331.41,-23.1 341.74,-20.74 332.19,-16.14 331.41,-23.1"/>
</g>
</g>
</svg>
