<?xml version="1.0" encoding="UTF-8" standalone="no"?>
<!DOCTYPE svg PUBLIC "-//W3C//DTD SVG 1.1//EN"
 "http://www.w3.org/Graphics/SVG/1.1/DTD/svg11.dtd">
<!-- Generated by graphviz version 2.44.1 (0)
 -->
<!-- Title: Scene::getRenderer Pages: 1 -->
<svg width="493pt" height="922pt"
 viewBox="0.00 0.00 493.00 922.47" xmlns="http://www.w3.org/2000/svg" xmlns:xlink="http://www.w3.org/1999/xlink">
<g id="graph0" class="graph" transform="scale(1 1) rotate(0) translate(4 918.47)">
<title>Scene::getRenderer</title>
<polygon fill="white" stroke="transparent" points="-4,4 -4,-918.47 489,-918.47 489,4 -4,4"/>
<!-- Node1 -->
<g id="node1" class="node">
<title>Node1</title>
<g id="a_node1"><a xlink:title="Return the vtkRenderer of the scene.">
<polygon fill="#bfbfbf" stroke="black" points="381,-491 381,-510 485,-510 485,-491 381,-491"/>
<text text-anchor="middle" x="433" y="-498" font-family="Helvetica,sans-Serif" font-size="10.00">Scene::getRenderer</text>
</a>
</g>
</g>
<!-- Node2 -->
<g id="node2" class="node">
<title>Node2</title>
<g id="a_node2"><a xlink:href="../../df/dfa/class_autowire_tool.html#a45e5cdff2b089a3594c38021ef5d27a7" target="_top" xlink:title="Add wiring geometry of a connection to the scene (tubes)">
<polygon fill="white" stroke="black" points="195,-857 195,-876 339,-876 339,-857 195,-857"/>
<text text-anchor="middle" x="267" y="-864" font-family="Helvetica,sans-Serif" font-size="10.00">AutowireTool::addConnection</text>
</a>
</g>
</g>
<!-- Node1&#45;&gt;Node2 -->
<g id="edge1" class="edge">
<title>Node1&#45;&gt;Node2</title>
<path fill="none" stroke="midnightblue" d="M429.72,-520.23C421.66,-586.6 392.42,-800.26 345,-847.5 341.2,-851.29 336.76,-854.37 331.98,-856.86"/>
<polygon fill="midnightblue" stroke="midnightblue" points="433.2,-520.6 430.91,-510.25 426.25,-519.77 433.2,-520.6"/>
</g>
<!-- Node3 -->
<g id="node3" class="node">
<title>Node3</title>
<g id="a_node3"><a xlink:href="../../df/dfa/class_autowire_tool.html#a78b35a48395b5502f8c00b373592678b" target="_top" xlink:title="Execute autowiring tool.">
<polygon fill="white" stroke="black" points="20,-857 20,-876 133,-876 133,-857 20,-857"/>
<text text-anchor="middle" x="76.5" y="-864" font-family="Helvetica,sans-Serif" font-size="10.00">AutowireTool::execute</text>
</a>
</g>
</g>
<!-- Node1&#45;&gt;Node3 -->
<g id="edge13" class="edge">
<title>Node1&#45;&gt;Node3</title>
<path fill="none" stroke="midnightblue" d="M430.67,-520.48C425.38,-592.76 403.31,-838.89 345,-885.5 270.99,-944.65 145.61,-897.76 97.3,-876.03"/>
<polygon fill="midnightblue" stroke="midnightblue" points="434.19,-520.31 431.4,-510.08 427.2,-519.82 434.19,-520.31"/>
</g>
<!-- Node4 -->
<g id="node4" class="node">
<title>Node4</title>
<g id="a_node4"><a xlink:href="../../df/dfa/class_autowire_tool.html#a68dc0be6807c61b742a319c4f1509a0f" target="_top" xlink:title="Add wiring geometry of a connection to the scene (cubes) (For debugging)">
<polygon fill="white" stroke="black" points="195,-731.5 195,-761.5 339,-761.5 339,-731.5 195,-731.5"/>
<text text-anchor="start" x="203" y="-749.5" font-family="Helvetica,sans-Serif" font-size="10.00">AutowireTool::addConnection</text>
<text text-anchor="middle" x="267" y="-738.5" font-family="Helvetica,sans-Serif" font-size="10.00">Cubes</text>
</a>
</g>
</g>
<!-- Node1&#45;&gt;Node4 -->
<g id="edge3" class="edge">
<title>Node1&#45;&gt;Node4</title>
<path fill="none" stroke="midnightblue" d="M429.38,-520.16C422.81,-561.93 401.88,-660.26 345,-716.5 338.88,-722.55 331.4,-727.42 323.53,-731.31"/>
<polygon fill="midnightblue" stroke="midnightblue" points="432.85,-520.58 430.84,-510.18 425.93,-519.56 432.85,-520.58"/>
</g>
<!-- Node5 -->
<g id="node5" class="node">
<title>Node5</title>
<g id="a_node5"><a xlink:href="../../d9/d00/class_p_s_interface_tool.html#a55b3f305a7b9ffce3be9ec646ce145a8" target="_top" xlink:title=" ">
<polygon fill="white" stroke="black" points="190.5,-655 190.5,-674 343.5,-674 343.5,-655 190.5,-655"/>
<text text-anchor="middle" x="267" y="-662" font-family="Helvetica,sans-Serif" font-size="10.00">PSInterfaceTool::addConnector</text>
</a>
</g>
</g>
<!-- Node1&#45;&gt;Node5 -->
<g id="edge4" class="edge">
<title>Node1&#45;&gt;Node5</title>
<path fill="none" stroke="midnightblue" d="M425.91,-519.79C414.96,-551.17 388.94,-613.05 345,-645.5 339.79,-649.34 333.9,-652.42 327.76,-654.87"/>
<polygon fill="midnightblue" stroke="midnightblue" points="429.31,-520.65 429.15,-510.06 422.67,-518.43 429.31,-520.65"/>
</g>
<!-- Node6 -->
<g id="node6" class="node">
<title>Node6</title>
<g id="a_node6"><a xlink:href="../../d9/d00/class_p_s_interface_tool.html#aa26bf20d4e597f64df960e4c1a5c3a69" target="_top" xlink:title=" ">
<polygon fill="white" stroke="black" points="13,-655 13,-674 140,-674 140,-655 13,-655"/>
<text text-anchor="middle" x="76.5" y="-662" font-family="Helvetica,sans-Serif" font-size="10.00">PSInterfaceTool::execute</text>
</a>
</g>
</g>
<!-- Node1&#45;&gt;Node6 -->
<g id="edge19" class="edge">
<title>Node1&#45;&gt;Node6</title>
<path fill="none" stroke="midnightblue" d="M429.43,-520.36C423.15,-559.69 403.05,-646.82 345,-683.5 266.48,-733.11 147.89,-693.86 99.36,-674.12"/>
<polygon fill="midnightblue" stroke="midnightblue" points="432.9,-520.81 430.88,-510.41 425.98,-519.8 432.9,-520.81"/>
</g>
<!-- Node7 -->
<g id="node7" class="node">
<title>Node7</title>
<g id="a_node7"><a xlink:href="../../dc/db2/class_place_ground_plane4_connectors_tool.html#a07d60110c5f9b56bf016c68d879f6d80" target="_top" xlink:title="Add connector to touchpoint registry.">
<polygon fill="white" stroke="black" points="190.5,-529.5 190.5,-559.5 343.5,-559.5 343.5,-529.5 190.5,-529.5"/>
<text text-anchor="start" x="198.5" y="-547.5" font-family="Helvetica,sans-Serif" font-size="10.00">PlaceGroundPlane4Connectors</text>
<text text-anchor="middle" x="267" y="-536.5" font-family="Helvetica,sans-Serif" font-size="10.00">Tool::addConnector</text>
</a>
</g>
</g>
<!-- Node1&#45;&gt;Node7 -->
<g id="edge6" class="edge">
<title>Node1&#45;&gt;Node7</title>
<path fill="none" stroke="midnightblue" d="M386.64,-512.67C367.3,-517.86 344.54,-523.96 324.15,-529.43"/>
<polygon fill="midnightblue" stroke="midnightblue" points="387.66,-516.02 396.41,-510.05 385.85,-509.26 387.66,-516.02"/>
</g>
<!-- Node8 -->
<g id="node8" class="node">
<title>Node8</title>
<g id="a_node8"><a xlink:href="../../dc/db2/class_place_ground_plane4_connectors_tool.html#a7ae289774f2b51d2daba1215effc4311" target="_top" xlink:title=" ">
<polygon fill="white" stroke="black" points="0,-541.5 0,-571.5 153,-571.5 153,-541.5 0,-541.5"/>
<text text-anchor="start" x="8" y="-559.5" font-family="Helvetica,sans-Serif" font-size="10.00">PlaceGroundPlane4Connectors</text>
<text text-anchor="middle" x="76.5" y="-548.5" font-family="Helvetica,sans-Serif" font-size="10.00">Tool::execute</text>
</a>
</g>
</g>
<!-- Node1&#45;&gt;Node8 -->
<g id="edge15" class="edge">
<title>Node1&#45;&gt;Node8</title>
<path fill="none" stroke="midnightblue" d="M416.97,-517.83C401.06,-534.72 374.26,-559.31 345,-569.5 275.96,-593.56 190.8,-583.15 135.38,-571.55"/>
<polygon fill="midnightblue" stroke="midnightblue" points="419.72,-520 423.87,-510.25 414.55,-515.29 419.72,-520"/>
</g>
<!-- Node9 -->
<g id="node9" class="node">
<title>Node9</title>
<g id="a_node9"><a xlink:href="../../d1/da7/class_place_ground_plane8_connectors_tool.html#aaf1c46eccc1ea15dec8c7669c8a97a47" target="_top" xlink:title="Add connector to touchpoint registry.">
<polygon fill="white" stroke="black" points="190.5,-441.5 190.5,-471.5 343.5,-471.5 343.5,-441.5 190.5,-441.5"/>
<text text-anchor="start" x="198.5" y="-459.5" font-family="Helvetica,sans-Serif" font-size="10.00">PlaceGroundPlane8Connectors</text>
<text text-anchor="middle" x="267" y="-448.5" font-family="Helvetica,sans-Serif" font-size="10.00">Tool::addConnector</text>
</a>
</g>
</g>
<!-- Node1&#45;&gt;Node9 -->
<g id="edge8" class="edge">
<title>Node1&#45;&gt;Node9</title>
<path fill="none" stroke="midnightblue" d="M386.64,-488.33C367.3,-483.14 344.54,-477.04 324.15,-471.57"/>
<polygon fill="midnightblue" stroke="midnightblue" points="385.85,-491.74 396.41,-490.95 387.66,-484.98 385.85,-491.74"/>
</g>
<!-- Node10 -->
<g id="node10" class="node">
<title>Node10</title>
<g id="a_node10"><a xlink:href="../../d1/da7/class_place_ground_plane8_connectors_tool.html#ac6f514739682b173fadccf10f5bc9aab" target="_top" xlink:title=" ">
<polygon fill="white" stroke="black" points="0,-473.5 0,-503.5 153,-503.5 153,-473.5 0,-473.5"/>
<text text-anchor="start" x="8" y="-491.5" font-family="Helvetica,sans-Serif" font-size="10.00">PlaceGroundPlane8Connectors</text>
<text text-anchor="middle" x="76.5" y="-480.5" font-family="Helvetica,sans-Serif" font-size="10.00">Tool::execute</text>
</a>
</g>
</g>
<!-- Node1&#45;&gt;Node10 -->
<g id="edge16" class="edge">
<title>Node1&#45;&gt;Node10</title>
<path fill="none" stroke="midnightblue" d="M370.69,-498.42C310.33,-496.38 218.02,-493.26 153.14,-491.06"/>
<polygon fill="midnightblue" stroke="midnightblue" points="370.72,-501.93 380.83,-498.77 370.96,-494.93 370.72,-501.93"/>
</g>
<!-- Node11 -->
<g id="node11" class="node">
<title>Node11</title>
<g id="a_node11"><a xlink:href="../../df/dfa/class_autowire_tool.html#ac4f7efcdb1dc1b668afa7273d832b7eb" target="_top" xlink:title="Remove all wiring connections.">
<polygon fill="white" stroke="black" points="189.5,-819 189.5,-838 344.5,-838 344.5,-819 189.5,-819"/>
<text text-anchor="middle" x="267" y="-826" font-family="Helvetica,sans-Serif" font-size="10.00">AutowireTool::clearConnections</text>
</a>
</g>
</g>
<!-- Node1&#45;&gt;Node11 -->
<g id="edge10" class="edge">
<title>Node1&#45;&gt;Node11</title>
<path fill="none" stroke="midnightblue" d="M432.39,-520.49C432.3,-574.2 424.52,-723.1 345,-804.5 338.84,-810.81 331.04,-815.47 322.79,-818.9"/>
<polygon fill="midnightblue" stroke="midnightblue" points="435.88,-520.24 432.31,-510.27 428.88,-520.29 435.88,-520.24"/>
</g>
<!-- Node12 -->
<g id="node12" class="node">
<title>Node12</title>
<g id="a_node12"><a xlink:href="../../df/dfa/class_autowire_tool.html#a930afe6e270a14e16d88747ef371acf9" target="_top" xlink:title="Undo wiring.">
<polygon fill="white" stroke="black" points="26.5,-800 26.5,-819 126.5,-819 126.5,-800 26.5,-800"/>
<text text-anchor="middle" x="76.5" y="-807" font-family="Helvetica,sans-Serif" font-size="10.00">AutowireTool::undo</text>
</a>
</g>
</g>
<!-- Node1&#45;&gt;Node12 -->
<g id="edge26" class="edge">
<title>Node1&#45;&gt;Node12</title>
<path fill="none" stroke="midnightblue" d="M432.24,-520.34C431.69,-571.05 422.62,-706.04 345,-771.5 312.86,-798.6 194.58,-806.38 126.55,-808.61"/>
<polygon fill="midnightblue" stroke="midnightblue" points="435.74,-520.1 432.24,-510.09 428.74,-520.09 435.74,-520.1"/>
</g>
<!-- Node13 -->
<g id="node13" class="node">
<title>Node13</title>
<g id="a_node13"><a xlink:href="../../de/de0/class_freehand_touchpoint_tool.html#a553b2df8ed2128433bac512947a1ce2c" target="_top" xlink:title=" ">
<polygon fill="white" stroke="black" points="206,-392.5 206,-422.5 328,-422.5 328,-392.5 206,-392.5"/>
<text text-anchor="start" x="214" y="-410.5" font-family="Helvetica,sans-Serif" font-size="10.00">FreehandTouchpointTool</text>
<text text-anchor="middle" x="267" y="-399.5" font-family="Helvetica,sans-Serif" font-size="10.00">::execute</text>
</a>
</g>
</g>
<!-- Node1&#45;&gt;Node13 -->
<g id="edge14" class="edge">
<title>Node1&#45;&gt;Node13</title>
<path fill="none" stroke="midnightblue" d="M415.12,-483.95C398.51,-468.47 371.8,-445.67 345,-431.5 338.69,-428.16 331.83,-425.2 324.9,-422.6"/>
<polygon fill="midnightblue" stroke="midnightblue" points="412.76,-486.54 422.42,-490.89 417.58,-481.46 412.76,-486.54"/>
</g>
<!-- Node14 -->
<g id="node14" class="node">
<title>Node14</title>
<g id="a_node14"><a xlink:href="../../d1/d4e/class_place_touchpoint_tool.html#a34678be478000112f157c5ec1af7f3bd" target="_top" xlink:title=" ">
<polygon fill="white" stroke="black" points="213.5,-343.5 213.5,-373.5 320.5,-373.5 320.5,-343.5 213.5,-343.5"/>
<text text-anchor="start" x="221.5" y="-361.5" font-family="Helvetica,sans-Serif" font-size="10.00">PlaceTouchpointTool</text>
<text text-anchor="middle" x="267" y="-350.5" font-family="Helvetica,sans-Serif" font-size="10.00">::execute</text>
</a>
</g>
</g>
<!-- Node1&#45;&gt;Node14 -->
<g id="edge17" class="edge">
<title>Node1&#45;&gt;Node14</title>
<path fill="none" stroke="midnightblue" d="M423.04,-481.77C409.65,-455.74 381.97,-408.83 345,-382.5 337.7,-377.3 329.24,-373.2 320.65,-369.98"/>
<polygon fill="midnightblue" stroke="midnightblue" points="420.02,-483.55 427.61,-490.94 426.29,-480.43 420.02,-483.55"/>
</g>
<!-- Node15 -->
<g id="node15" class="node">
<title>Node15</title>
<g id="a_node15"><a xlink:href="../../de/dd7/class_polyline_touchpoint_tool.html#a68d7b8c4d090063977b3404e4084290a" target="_top" xlink:title=" ">
<polygon fill="white" stroke="black" points="209,-294.5 209,-324.5 325,-324.5 325,-294.5 209,-294.5"/>
<text text-anchor="start" x="217" y="-312.5" font-family="Helvetica,sans-Serif" font-size="10.00">PolylineTouchpointTool</text>
<text text-anchor="middle" x="267" y="-301.5" font-family="Helvetica,sans-Serif" font-size="10.00">::execute</text>
</a>
</g>
</g>
<!-- Node1&#45;&gt;Node15 -->
<g id="edge18" class="edge">
<title>Node1&#45;&gt;Node15</title>
<path fill="none" stroke="midnightblue" d="M427.2,-481.08C417.6,-446.34 392.75,-373.42 345,-333.5 339.2,-328.65 332.42,-324.78 325.33,-321.69"/>
<polygon fill="midnightblue" stroke="midnightblue" points="423.86,-482.15 429.79,-490.93 430.63,-480.37 423.86,-482.15"/>
</g>
<!-- Node16 -->
<g id="node16" class="node">
<title>Node16</title>
<g id="a_node16"><a xlink:href="../../da/dcb/class_freehand_add_final_point_callback.html#a4a889b08c802e7e81598b8dd8b5e3dad" target="_top" xlink:title="Overwritten callback method, which is executed when the left mouse button is pressed.">
<polygon fill="white" stroke="black" points="189,-245.5 189,-275.5 345,-275.5 345,-245.5 189,-245.5"/>
<text text-anchor="start" x="197" y="-263.5" font-family="Helvetica,sans-Serif" font-size="10.00">FreehandAddFinalPointCallback</text>
<text text-anchor="middle" x="267" y="-252.5" font-family="Helvetica,sans-Serif" font-size="10.00">::Execute</text>
</a>
</g>
</g>
<!-- Node1&#45;&gt;Node16 -->
<g id="edge20" class="edge">
<title>Node1&#45;&gt;Node16</title>
<path fill="none" stroke="midnightblue" d="M429.67,-480.53C423.68,-438.16 403.8,-338.73 345,-284.5 341.29,-281.08 337.11,-278.15 332.65,-275.64"/>
<polygon fill="midnightblue" stroke="midnightblue" points="426.23,-481.2 430.99,-490.66 433.17,-480.3 426.23,-481.2"/>
</g>
<!-- Node17 -->
<g id="node17" class="node">
<title>Node17</title>
<g id="a_node17"><a xlink:href="../../d4/d58/class_polyline_add_final_point_callback.html#aebf2f4ff9236a12c598205822c2949a2" target="_top" xlink:title="Overwritten callback method, which is executed when the left mouse button is pressed for the first ti...">
<polygon fill="white" stroke="black" points="192,-196.5 192,-226.5 342,-226.5 342,-196.5 192,-196.5"/>
<text text-anchor="start" x="200" y="-214.5" font-family="Helvetica,sans-Serif" font-size="10.00">PolylineAddFinalPointCallback</text>
<text text-anchor="middle" x="267" y="-203.5" font-family="Helvetica,sans-Serif" font-size="10.00">::Execute</text>
</a>
</g>
</g>
<!-- Node1&#45;&gt;Node17 -->
<g id="edge21" class="edge">
<title>Node1&#45;&gt;Node17</title>
<path fill="none" stroke="midnightblue" d="M431.41,-480.82C428.85,-432.11 415.42,-304.87 345,-235.5 341.51,-232.06 337.53,-229.11 333.27,-226.59"/>
<polygon fill="midnightblue" stroke="midnightblue" points="427.91,-481.1 431.83,-490.95 434.91,-480.81 427.91,-481.1"/>
</g>
<!-- Node18 -->
<g id="node18" class="node">
<title>Node18</title>
<g id="a_node18"><a xlink:href="../../d1/db5/class_lasso_interactor_style.html#a711994cec6c74643d2bc161ba73daacd" target="_top" xlink:title="Overwritten method, which is executed when the left mouse button is released.">
<polygon fill="white" stroke="black" points="213.5,-147.5 213.5,-177.5 320.5,-177.5 320.5,-147.5 213.5,-147.5"/>
<text text-anchor="start" x="221.5" y="-165.5" font-family="Helvetica,sans-Serif" font-size="10.00">LassoInteractorStyle</text>
<text text-anchor="middle" x="267" y="-154.5" font-family="Helvetica,sans-Serif" font-size="10.00">::OnLeftButtonUp</text>
</a>
</g>
</g>
<!-- Node1&#45;&gt;Node18 -->
<g id="edge22" class="edge">
<title>Node1&#45;&gt;Node18</title>
<path fill="none" stroke="midnightblue" d="M432.6,-480.95C433.17,-426.46 427.12,-271.28 345,-186.5 338.38,-179.66 329.84,-174.76 320.87,-171.25"/>
<polygon fill="midnightblue" stroke="midnightblue" points="429.1,-480.93 432.4,-490.99 436.1,-481.06 429.1,-480.93"/>
</g>
<!-- Node19 -->
<g id="node19" class="node">
<title>Node19</title>
<g id="a_node19"><a xlink:href="../../d1/d4e/class_place_touchpoint_tool.html#acf2d7dff459da60fad85e5e50775970d" target="_top" xlink:title="Construct a PlaceTouchpointTool object.">
<polygon fill="white" stroke="black" points="210.5,-98.5 210.5,-128.5 323.5,-128.5 323.5,-98.5 210.5,-98.5"/>
<text text-anchor="start" x="218.5" y="-116.5" font-family="Helvetica,sans-Serif" font-size="10.00">PlaceTouchpointTool</text>
<text text-anchor="middle" x="267" y="-105.5" font-family="Helvetica,sans-Serif" font-size="10.00">::PlaceTouchpointTool</text>
</a>
</g>
</g>
<!-- Node1&#45;&gt;Node19 -->
<g id="edge23" class="edge">
<title>Node1&#45;&gt;Node19</title>
<path fill="none" stroke="midnightblue" d="M429.79,-480.43C421.88,-411.91 392.81,-188.62 345,-137.5 339.17,-131.26 331.74,-126.63 323.81,-123.2"/>
<polygon fill="midnightblue" stroke="midnightblue" points="426.35,-481.16 430.95,-490.71 433.31,-480.38 426.35,-481.16"/>
</g>
<!-- Node20 -->
<g id="node20" class="node">
<title>Node20</title>
<g id="a_node20"><a xlink:href="../../d6/db5/class_scene.html#a266f98c6795eca4f5c03cba5761967d6" target="_top" xlink:title="Replace the actual mesh polydata with the polydata given as parameter.">
<polygon fill="white" stroke="black" points="194,-617 194,-636 340,-636 340,-617 194,-617"/>
<text text-anchor="middle" x="267" y="-624" font-family="Helvetica,sans-Serif" font-size="10.00">Scene::replaceMeshPolyData</text>
</a>
</g>
</g>
<!-- Node1&#45;&gt;Node20 -->
<g id="edge24" class="edge">
<title>Node1&#45;&gt;Node20</title>
<path fill="none" stroke="midnightblue" d="M420.93,-518.97C406.32,-541.82 378.48,-580.4 345,-602.5 335.53,-608.75 324.35,-613.44 313.48,-616.95"/>
<polygon fill="midnightblue" stroke="midnightblue" points="424.06,-520.57 426.36,-510.23 418.11,-516.88 424.06,-520.57"/>
</g>
<!-- Node21 -->
<g id="node21" class="node">
<title>Node21</title>
<g id="a_node21"><a xlink:href="../../dc/db2/class_place_ground_plane4_connectors_tool.html#a1977c6cac0bb721d0db3fc0aec683a21" target="_top" xlink:title=" ">
<polygon fill="white" stroke="black" points="190.5,-49.5 190.5,-79.5 343.5,-79.5 343.5,-49.5 190.5,-49.5"/>
<text text-anchor="start" x="198.5" y="-67.5" font-family="Helvetica,sans-Serif" font-size="10.00">PlaceGroundPlane4Connectors</text>
<text text-anchor="middle" x="267" y="-56.5" font-family="Helvetica,sans-Serif" font-size="10.00">Tool::undo</text>
</a>
</g>
</g>
<!-- Node1&#45;&gt;Node21 -->
<g id="edge27" class="edge">
<title>Node1&#45;&gt;Node21</title>
<path fill="none" stroke="midnightblue" d="M430.43,-480.67C424.2,-406.64 398.83,-147.65 345,-88.5 341.89,-85.08 338.3,-82.15 334.41,-79.63"/>
<polygon fill="midnightblue" stroke="midnightblue" points="426.97,-481.22 431.27,-490.91 433.94,-480.65 426.97,-481.22"/>
</g>
<!-- Node22 -->
<g id="node22" class="node">
<title>Node22</title>
<g id="a_node22"><a xlink:href="../../d1/da7/class_place_ground_plane8_connectors_tool.html#a9388811a14ed25cfa2513a210e786523" target="_top" xlink:title=" ">
<polygon fill="white" stroke="black" points="190.5,-0.5 190.5,-30.5 343.5,-30.5 343.5,-0.5 190.5,-0.5"/>
<text text-anchor="start" x="198.5" y="-18.5" font-family="Helvetica,sans-Serif" font-size="10.00">PlaceGroundPlane8Connectors</text>
<text text-anchor="middle" x="267" y="-7.5" font-family="Helvetica,sans-Serif" font-size="10.00">Tool::undo</text>
</a>
</g>
</g>
<!-- Node1&#45;&gt;Node22 -->
<g id="edge28" class="edge">
<title>Node1&#45;&gt;Node22</title>
<path fill="none" stroke="midnightblue" d="M430.93,-480.91C426.23,-401.77 404.89,-106.75 345,-39.5 341.93,-36.05 338.37,-33.09 334.5,-30.55"/>
<polygon fill="midnightblue" stroke="midnightblue" points="427.44,-481.18 431.51,-490.96 434.43,-480.78 427.44,-481.18"/>
</g>
<!-- Node2&#45;&gt;Node3 -->
<g id="edge2" class="edge">
<title>Node2&#45;&gt;Node3</title>
<path fill="none" stroke="midnightblue" d="M184.63,-866.5C167.31,-866.5 149.4,-866.5 133.29,-866.5"/>
<polygon fill="midnightblue" stroke="midnightblue" points="184.74,-870 194.74,-866.5 184.74,-863 184.74,-870"/>
</g>
<!-- Node5&#45;&gt;Node6 -->
<g id="edge5" class="edge">
<title>Node5&#45;&gt;Node6</title>
<path fill="none" stroke="midnightblue" d="M180.16,-664.5C166.66,-664.5 152.94,-664.5 140.1,-664.5"/>
<polygon fill="midnightblue" stroke="midnightblue" points="180.42,-668 190.42,-664.5 180.42,-661 180.42,-668"/>
</g>
<!-- Node7&#45;&gt;Node8 -->
<g id="edge7" class="edge">
<title>Node7&#45;&gt;Node8</title>
<path fill="none" stroke="midnightblue" d="M180.25,-549.96C171.19,-550.54 162.03,-551.12 153.1,-551.69"/>
<polygon fill="midnightblue" stroke="midnightblue" points="180.66,-553.44 190.42,-549.31 180.21,-546.45 180.66,-553.44"/>
</g>
<!-- Node9&#45;&gt;Node10 -->
<g id="edge9" class="edge">
<title>Node9&#45;&gt;Node10</title>
<path fill="none" stroke="midnightblue" d="M180.54,-471.01C171.39,-472.56 162.13,-474.13 153.1,-475.67"/>
<polygon fill="midnightblue" stroke="midnightblue" points="181.14,-474.46 190.42,-469.33 179.97,-467.55 181.14,-474.46"/>
</g>
<!-- Node11&#45;&gt;Node3 -->
<g id="edge11" class="edge">
<title>Node11&#45;&gt;Node3</title>
<path fill="none" stroke="midnightblue" d="M208.41,-840.11C181.6,-845.51 150.1,-851.86 124.72,-856.98"/>
<polygon fill="midnightblue" stroke="midnightblue" points="209.32,-843.5 218.43,-838.09 207.94,-836.63 209.32,-843.5"/>
</g>
<!-- Node11&#45;&gt;Node12 -->
<g id="edge12" class="edge">
<title>Node11&#45;&gt;Node12</title>
<path fill="none" stroke="midnightblue" d="M179.32,-819.76C161.2,-817.94 142.7,-816.07 126.53,-814.44"/>
<polygon fill="midnightblue" stroke="midnightblue" points="179.03,-823.25 189.33,-820.77 179.73,-816.29 179.03,-823.25"/>
</g>
<!-- Node20&#45;&gt;Node6 -->
<g id="edge25" class="edge">
<title>Node20&#45;&gt;Node6</title>
<path fill="none" stroke="midnightblue" d="M208.41,-638.11C181.6,-643.51 150.1,-649.86 124.72,-654.98"/>
<polygon fill="midnightblue" stroke="midnightblue" points="209.32,-641.5 218.43,-636.09 207.94,-634.63 209.32,-641.5"/>
</g>
</g>
</svg>
