<?xml version="1.0" encoding="UTF-8" standalone="no"?>
<!DOCTYPE svg PUBLIC "-//W3C//DTD SVG 1.1//EN"
 "http://www.w3.org/Graphics/SVG/1.1/DTD/svg11.dtd">
<!-- Generated by graphviz version 2.44.1 (0)
 -->
<!-- Title: Scene::setContourWidget Pages: 1 -->
<svg width="295pt" height="88pt"
 viewBox="0.00 0.00 295.00 88.00" xmlns="http://www.w3.org/2000/svg" xmlns:xlink="http://www.w3.org/1999/xlink">
<g id="graph0" class="graph" transform="scale(1 1) rotate(0) translate(4 84)">
<title>Scene::setContourWidget</title>
<polygon fill="white" stroke="transparent" points="-4,4 -4,-84 291,-84 291,4 -4,4"/>
<!-- Node1 -->
<g id="node1" class="node">
<title>Node1</title>
<g id="a_node1"><a xlink:title="Set the actual contour widget.">
<polygon fill="#bfbfbf" stroke="black" points="158,-30 158,-49 287,-49 287,-30 158,-30"/>
<text text-anchor="middle" x="222.5" y="-37" font-family="Helvetica,sans-Serif" font-size="10.00">Scene::setContourWidget</text>
</a>
</g>
</g>
<!-- Node2 -->
<g id="node2" class="node">
<title>Node2</title>
<g id="a_node2"><a xlink:href="../../de/dd7/class_polyline_touchpoint_tool.html#a68d7b8c4d090063977b3404e4084290a" target="_top" xlink:title=" ">
<polygon fill="white" stroke="black" points="3,-49.5 3,-79.5 119,-79.5 119,-49.5 3,-49.5"/>
<text text-anchor="start" x="11" y="-67.5" font-family="Helvetica,sans-Serif" font-size="10.00">PolylineTouchpointTool</text>
<text text-anchor="middle" x="61" y="-56.5" font-family="Helvetica,sans-Serif" font-size="10.00">::execute</text>
</a>
</g>
</g>
<!-- Node1&#45;&gt;Node2 -->
<g id="edge1" class="edge">
<title>Node1&#45;&gt;Node2</title>
<path fill="none" stroke="midnightblue" d="M150.72,-50.59C140.16,-52.25 129.4,-53.94 119.17,-55.54"/>
<polygon fill="midnightblue" stroke="midnightblue" points="151.41,-54.03 160.74,-49.02 150.32,-47.11 151.41,-54.03"/>
</g>
<!-- Node3 -->
<g id="node3" class="node">
<title>Node3</title>
<g id="a_node3"><a xlink:href="../../de/de0/class_freehand_touchpoint_tool.html#a553b2df8ed2128433bac512947a1ce2c" target="_top" xlink:title=" ">
<polygon fill="white" stroke="black" points="0,-0.5 0,-30.5 122,-30.5 122,-0.5 0,-0.5"/>
<text text-anchor="start" x="8" y="-18.5" font-family="Helvetica,sans-Serif" font-size="10.00">FreehandTouchpointTool</text>
<text text-anchor="middle" x="61" y="-7.5" font-family="Helvetica,sans-Serif" font-size="10.00">::execute</text>
</a>
</g>
</g>
<!-- Node1&#45;&gt;Node3 -->
<g id="edge2" class="edge">
<title>Node1&#45;&gt;Node3</title>
<path fill="none" stroke="midnightblue" d="M147.94,-28.43C139.31,-27.13 130.58,-25.82 122.17,-24.55"/>
<polygon fill="midnightblue" stroke="midnightblue" points="147.59,-31.92 158,-29.95 148.64,-25 147.59,-31.92"/>
</g>
</g>
</svg>
