<?xml version="1.0" encoding="UTF-8" standalone="no"?>
<!DOCTYPE svg PUBLIC "-//W3C//DTD SVG 1.1//EN"
 "http://www.w3.org/Graphics/SVG/1.1/DTD/svg11.dtd">
<!-- Generated by graphviz version 2.44.0 (0)
 -->
<!-- Title: Scene::updateCuberilleActors Pages: 1 -->
<svg width="632pt" height="266pt"
 viewBox="0.00 0.00 632.00 266.00" xmlns="http://www.w3.org/2000/svg" xmlns:xlink="http://www.w3.org/1999/xlink">
<g id="graph0" class="graph" transform="scale(1 1) rotate(0) translate(4 262)">
<title>Scene::updateCuberilleActors</title>
<polygon fill="white" stroke="transparent" points="-4,4 -4,-262 628,-262 628,4 -4,4"/>
<!-- Node1 -->
<g id="node1" class="node">
<title>Node1</title>
<g id="a_node1"><a xlink:title="Update the cuberille visualization after changes to the underlying voxel data.">
<polygon fill="#bfbfbf" stroke="black" points="0,-118 0,-137 146,-137 146,-118 0,-118"/>
<text text-anchor="middle" x="73" y="-125" font-family="Helvetica,sans-Serif" font-size="10.00">Scene::updateCuberilleActors</text>
</a>
</g>
</g>
<!-- Node2 -->
<g id="node2" class="node">
<title>Node2</title>
<g id="a_node2"><a xlink:href="../../db/dae/class_voxel_image_visualizer.html#a9d6ddcce68efaea01bfacaa932f27d9a" target="_top" xlink:title="Return RGB color cube output visualization.">
<polygon fill="white" stroke="black" points="338.5,-227.5 338.5,-257.5 448.5,-257.5 448.5,-227.5 338.5,-227.5"/>
<text text-anchor="start" x="346.5" y="-245.5" font-family="Helvetica,sans-Serif" font-size="10.00">VoxelImageVisualizer</text>
<text text-anchor="middle" x="393.5" y="-234.5" font-family="Helvetica,sans-Serif" font-size="10.00">::getColorOutput</text>
</a>
</g>
</g>
<!-- Node1&#45;&gt;Node2 -->
<g id="edge1" class="edge">
<title>Node1&#45;&gt;Node2</title>
<path fill="none" stroke="midnightblue" d="M82.03,-137.19C98.5,-156.31 138.28,-198.68 182,-217.5 228.32,-237.44 285.35,-243.19 328.37,-244.24"/>
<polygon fill="midnightblue" stroke="midnightblue" points="328.37,-247.74 338.43,-244.4 328.49,-240.74 328.37,-247.74"/>
</g>
<!-- Node5 -->
<g id="node5" class="node">
<title>Node5</title>
<g id="a_node5"><a xlink:href="../../db/dae/class_voxel_image_visualizer.html#a279e821afcfbef7cb624c391eec3b7a4" target="_top" xlink:title="Return visualization of the mesh interior only.">
<polygon fill="white" stroke="black" points="182,-177.5 182,-207.5 292,-207.5 292,-177.5 182,-177.5"/>
<text text-anchor="start" x="190" y="-195.5" font-family="Helvetica,sans-Serif" font-size="10.00">VoxelImageVisualizer</text>
<text text-anchor="middle" x="237" y="-184.5" font-family="Helvetica,sans-Serif" font-size="10.00">::getInteriorOutput</text>
</a>
</g>
</g>
<!-- Node1&#45;&gt;Node5 -->
<g id="edge4" class="edge">
<title>Node1&#45;&gt;Node5</title>
<path fill="none" stroke="midnightblue" d="M97.9,-137.09C121.81,-146.68 159.21,-161.69 189.07,-173.67"/>
<polygon fill="midnightblue" stroke="midnightblue" points="187.88,-176.97 198.47,-177.44 190.49,-170.47 187.88,-176.97"/>
</g>
<!-- Node7 -->
<g id="node7" class="node">
<title>Node7</title>
<g id="a_node7"><a xlink:href="../../db/dae/class_voxel_image_visualizer.html#a00b60f629dcc3335bff26934e88b9bcb" target="_top" xlink:title="Return the occupation map visualization (unoccupied = yellow, occupied = blue)">
<polygon fill="white" stroke="black" points="336,-129.5 336,-159.5 451,-159.5 451,-129.5 336,-129.5"/>
<text text-anchor="start" x="344" y="-147.5" font-family="Helvetica,sans-Serif" font-size="10.00">VoxelImageVisualizer</text>
<text text-anchor="middle" x="393.5" y="-136.5" font-family="Helvetica,sans-Serif" font-size="10.00">::getOccupationOutput</text>
</a>
</g>
</g>
<!-- Node1&#45;&gt;Node7 -->
<g id="edge8" class="edge">
<title>Node1&#45;&gt;Node7</title>
<path fill="none" stroke="midnightblue" d="M146.27,-131.36C200.13,-134.23 273.13,-138.13 325.64,-140.93"/>
<polygon fill="midnightblue" stroke="midnightblue" points="325.69,-144.44 335.86,-141.48 326.06,-137.45 325.69,-144.44"/>
</g>
<!-- Node8 -->
<g id="node8" class="node">
<title>Node8</title>
<g id="a_node8"><a xlink:href="../../db/dae/class_voxel_image_visualizer.html#a5f41640feebb9f49204b777abb09fec2" target="_top" xlink:title="Return visualization with VOXEL_OUTSIDE = &quot;White&quot;, VOXEL_OCCUPIED = &quot;Red&quot;, VOXEL_SHELL = &quot;Yellow&quot;,...">
<polygon fill="white" stroke="black" points="328,-80.5 328,-110.5 459,-110.5 459,-80.5 328,-80.5"/>
<text text-anchor="start" x="336" y="-98.5" font-family="Helvetica,sans-Serif" font-size="10.00">VoxelImageVisualizer</text>
<text text-anchor="middle" x="393.5" y="-87.5" font-family="Helvetica,sans-Serif" font-size="10.00">::getShellAndInsideOutput</text>
</a>
</g>
</g>
<!-- Node1&#45;&gt;Node8 -->
<g id="edge11" class="edge">
<title>Node1&#45;&gt;Node8</title>
<path fill="none" stroke="midnightblue" d="M146.27,-120.24C197.46,-115.1 265.95,-108.21 317.7,-103.02"/>
<polygon fill="midnightblue" stroke="midnightblue" points="318.21,-106.48 327.81,-102 317.51,-99.52 318.21,-106.48"/>
</g>
<!-- Node9 -->
<g id="node9" class="node">
<title>Node9</title>
<g id="a_node9"><a xlink:href="../../db/dae/class_voxel_image_visualizer.html#a15634f5a62fd0d71806741d1db033243" target="_top" xlink:title="Set input data of the visualizer.">
<polygon fill="white" stroke="black" points="182,-49.5 182,-79.5 292,-79.5 292,-49.5 182,-49.5"/>
<text text-anchor="start" x="190" y="-67.5" font-family="Helvetica,sans-Serif" font-size="10.00">VoxelImageVisualizer</text>
<text text-anchor="middle" x="237" y="-56.5" font-family="Helvetica,sans-Serif" font-size="10.00">::setInputData</text>
</a>
</g>
</g>
<!-- Node1&#45;&gt;Node9 -->
<g id="edge14" class="edge">
<title>Node1&#45;&gt;Node9</title>
<path fill="none" stroke="midnightblue" d="M98.6,-117.93C122.14,-108.78 158.3,-94.72 187.61,-83.32"/>
<polygon fill="midnightblue" stroke="midnightblue" points="189.21,-86.45 197.26,-79.57 186.67,-79.93 189.21,-86.45"/>
</g>
<!-- Node10 -->
<g id="node10" class="node">
<title>Node10</title>
<g id="a_node10"><a xlink:href="../../db/dae/class_voxel_image_visualizer.html#a65eec474a368555a6ba16c1f54e956db" target="_top" xlink:title="Set output size of the visualization.">
<polygon fill="white" stroke="black" points="182,-0.5 182,-30.5 292,-30.5 292,-0.5 182,-0.5"/>
<text text-anchor="start" x="190" y="-18.5" font-family="Helvetica,sans-Serif" font-size="10.00">VoxelImageVisualizer</text>
<text text-anchor="middle" x="237" y="-7.5" font-family="Helvetica,sans-Serif" font-size="10.00">::setOutputSize</text>
</a>
</g>
</g>
<!-- Node1&#45;&gt;Node10 -->
<g id="edge15" class="edge">
<title>Node1&#45;&gt;Node10</title>
<path fill="none" stroke="midnightblue" d="M84.03,-117.77C102.32,-100.38 142.85,-63.56 182,-39.5 184.42,-38.01 186.94,-36.57 189.52,-35.17"/>
<polygon fill="midnightblue" stroke="midnightblue" points="191.12,-38.29 198.44,-30.63 187.95,-32.05 191.12,-38.29"/>
</g>
<!-- Node3 -->
<g id="node3" class="node">
<title>Node3</title>
<g id="a_node3"><a xlink:href="../../db/dae/class_voxel_image_visualizer.html#a381e70e9dba0cad1fddf946aa7f4a408" target="_top" xlink:title="Compute scaling factor for visualization actor.">
<polygon fill="white" stroke="black" points="504.5,-176.5 504.5,-206.5 614.5,-206.5 614.5,-176.5 504.5,-176.5"/>
<text text-anchor="start" x="512.5" y="-194.5" font-family="Helvetica,sans-Serif" font-size="10.00">VoxelImageVisualizer</text>
<text text-anchor="middle" x="559.5" y="-183.5" font-family="Helvetica,sans-Serif" font-size="10.00">::getScaleValue</text>
</a>
</g>
</g>
<!-- Node2&#45;&gt;Node3 -->
<g id="edge2" class="edge">
<title>Node2&#45;&gt;Node3</title>
<path fill="none" stroke="midnightblue" d="M442.82,-227.47C460.92,-221.84 481.68,-215.39 500.56,-209.52"/>
<polygon fill="midnightblue" stroke="midnightblue" points="501.73,-212.82 510.24,-206.51 499.66,-206.13 501.73,-212.82"/>
</g>
<!-- Node4 -->
<g id="node4" class="node">
<title>Node4</title>
<g id="a_node4"><a xlink:href="../../db/dae/class_voxel_image_visualizer.html#a2cf2e268d83ea28ea097a557b4e66fcd" target="_top" xlink:title="Compute 1D linearized index from 3D&#45;coodinate index.">
<polygon fill="white" stroke="black" points="495,-137 495,-156 624,-156 624,-137 495,-137"/>
<text text-anchor="middle" x="559.5" y="-144" font-family="Helvetica,sans-Serif" font-size="10.00">VoxelImageVisualizer::idx</text>
</a>
</g>
</g>
<!-- Node2&#45;&gt;Node4 -->
<g id="edge3" class="edge">
<title>Node2&#45;&gt;Node4</title>
<path fill="none" stroke="midnightblue" d="M444.38,-227.48C449.56,-224.9 454.55,-221.93 459,-218.5 480.98,-201.57 472.71,-184.02 495,-167.5 498.82,-164.67 503.05,-162.2 507.45,-160.06"/>
<polygon fill="midnightblue" stroke="midnightblue" points="508.85,-163.27 516.66,-156.11 506.09,-156.84 508.85,-163.27"/>
</g>
<!-- Node6 -->
<g id="node6" class="node">
<title>Node6</title>
<g id="a_node6"><a xlink:href="../../db/dae/class_voxel_image_visualizer.html#a266b4be6343bb49d53b4af2c9e7df310" target="_top" xlink:title=" ">
<polygon fill="white" stroke="black" points="338.5,-178.5 338.5,-208.5 448.5,-208.5 448.5,-178.5 338.5,-178.5"/>
<text text-anchor="start" x="346.5" y="-196.5" font-family="Helvetica,sans-Serif" font-size="10.00">VoxelImageVisualizer</text>
<text text-anchor="middle" x="393.5" y="-185.5" font-family="Helvetica,sans-Serif" font-size="10.00">::getShellOutput</text>
</a>
</g>
</g>
<!-- Node5&#45;&gt;Node6 -->
<g id="edge5" class="edge">
<title>Node5&#45;&gt;Node6</title>
<path fill="none" stroke="midnightblue" d="M292.04,-192.85C303.8,-192.93 316.35,-193.01 328.46,-193.09"/>
<polygon fill="midnightblue" stroke="midnightblue" points="328.47,-196.59 338.49,-193.15 328.52,-189.59 328.47,-196.59"/>
</g>
<!-- Node6&#45;&gt;Node3 -->
<g id="edge6" class="edge">
<title>Node6&#45;&gt;Node3</title>
<path fill="none" stroke="midnightblue" d="M448.65,-192.84C463.21,-192.66 479.09,-192.47 494.14,-192.28"/>
<polygon fill="midnightblue" stroke="midnightblue" points="494.45,-195.78 504.4,-192.16 494.36,-188.78 494.45,-195.78"/>
</g>
<!-- Node6&#45;&gt;Node4 -->
<g id="edge7" class="edge">
<title>Node6&#45;&gt;Node4</title>
<path fill="none" stroke="midnightblue" d="M446.84,-178.5C469.02,-172.15 494.53,-164.83 515.57,-158.8"/>
<polygon fill="midnightblue" stroke="midnightblue" points="516.55,-162.16 525.2,-156.04 514.62,-155.43 516.55,-162.16"/>
</g>
<!-- Node7&#45;&gt;Node3 -->
<g id="edge9" class="edge">
<title>Node7&#45;&gt;Node3</title>
<path fill="none" stroke="midnightblue" d="M446.84,-159.5C462.52,-163.99 479.88,-168.97 496.14,-173.63"/>
<polygon fill="midnightblue" stroke="midnightblue" points="495.52,-177.09 506.09,-176.48 497.44,-170.36 495.52,-177.09"/>
</g>
<!-- Node7&#45;&gt;Node4 -->
<g id="edge10" class="edge">
<title>Node7&#45;&gt;Node4</title>
<path fill="none" stroke="midnightblue" d="M451.4,-145.19C462.17,-145.33 473.57,-145.46 484.77,-145.6"/>
<polygon fill="midnightblue" stroke="midnightblue" points="484.93,-149.1 494.97,-145.73 485.01,-142.1 484.93,-149.1"/>
</g>
<!-- Node8&#45;&gt;Node3 -->
<g id="edge12" class="edge">
<title>Node8&#45;&gt;Node3</title>
<path fill="none" stroke="midnightblue" d="M442.17,-110.63C448.1,-113.46 453.87,-116.74 459,-120.5 479.65,-135.65 474.49,-150.16 495,-165.5 497.99,-167.74 501.2,-169.82 504.53,-171.74"/>
<polygon fill="midnightblue" stroke="midnightblue" points="503.08,-174.93 513.56,-176.49 506.34,-168.74 503.08,-174.93"/>
</g>
<!-- Node8&#45;&gt;Node4 -->
<g id="edge13" class="edge">
<title>Node8&#45;&gt;Node4</title>
<path fill="none" stroke="midnightblue" d="M442.82,-110.53C466.69,-117.95 495.16,-126.8 517.89,-133.87"/>
<polygon fill="midnightblue" stroke="midnightblue" points="516.98,-137.25 527.57,-136.88 519.06,-130.57 516.98,-137.25"/>
</g>
</g>
</svg>
