<?xml version="1.0" encoding="UTF-8" standalone="no"?>
<!DOCTYPE svg PUBLIC "-//W3C//DTD SVG 1.1//EN"
 "http://www.w3.org/Graphics/SVG/1.1/DTD/svg11.dtd">
<!-- Generated by graphviz version 2.44.1 (0)
 -->
<!-- Title: Scene::getMeshPolyData Pages: 1 -->
<svg width="859pt" height="1088pt"
 viewBox="0.00 0.00 859.00 1087.64" xmlns="http://www.w3.org/2000/svg" xmlns:xlink="http://www.w3.org/1999/xlink">
<g id="graph0" class="graph" transform="scale(1 1) rotate(0) translate(4 1083.64)">
<title>Scene::getMeshPolyData</title>
<polygon fill="white" stroke="transparent" points="-4,4 -4,-1083.64 855,-1083.64 855,4 -4,4"/>
<!-- Node1 -->
<g id="node1" class="node">
<title>Node1</title>
<g id="a_node1"><a xlink:title="Return the geometric data (vtkPolyData) of the mesh.">
<polygon fill="#bfbfbf" stroke="black" points="723,-540.62 723,-559.62 851,-559.62 851,-540.62 723,-540.62"/>
<text text-anchor="middle" x="787" y="-547.62" font-family="Helvetica,sans-Serif" font-size="10.00">Scene::getMeshPolyData</text>
</a>
</g>
</g>
<!-- Node2 -->
<g id="node2" class="node">
<title>Node2</title>
<g id="a_node2"><a xlink:href="../../df/dfa/class_autowire_tool.html#a45e5cdff2b089a3594c38021ef5d27a7" target="_top" xlink:title="Add wiring geometry of a connection to the scene (tubes)">
<polygon fill="white" stroke="black" points="538.5,-1017.62 538.5,-1036.62 682.5,-1036.62 682.5,-1017.62 538.5,-1017.62"/>
<text text-anchor="middle" x="610.5" y="-1024.62" font-family="Helvetica,sans-Serif" font-size="10.00">AutowireTool::addConnection</text>
</a>
</g>
</g>
<!-- Node1&#45;&gt;Node2 -->
<g id="edge1" class="edge">
<title>Node1&#45;&gt;Node2</title>
<path fill="none" stroke="midnightblue" d="M784.47,-569.7C777.9,-648.79 749.52,-943.46 687,-1008.12 683.34,-1011.91 679.04,-1014.98 674.38,-1017.47"/>
<polygon fill="midnightblue" stroke="midnightblue" points="787.96,-569.9 785.28,-559.65 780.99,-569.33 787.96,-569.9"/>
</g>
<!-- Node3 -->
<g id="node3" class="node">
<title>Node3</title>
<g id="a_node3"><a xlink:href="../../df/dfa/class_autowire_tool.html#a78b35a48395b5502f8c00b373592678b" target="_top" xlink:title="Execute autowiring tool.">
<polygon fill="white" stroke="black" points="363.5,-1036.62 363.5,-1055.62 476.5,-1055.62 476.5,-1036.62 363.5,-1036.62"/>
<text text-anchor="middle" x="420" y="-1043.62" font-family="Helvetica,sans-Serif" font-size="10.00">AutowireTool::execute</text>
</a>
</g>
</g>
<!-- Node1&#45;&gt;Node3 -->
<g id="edge34" class="edge">
<title>Node1&#45;&gt;Node3</title>
<path fill="none" stroke="midnightblue" d="M785.25,-569.89C781.6,-654.45 762.62,-984.1 687,-1046.12 617.19,-1103.37 498.87,-1073.18 446.85,-1055.71"/>
<polygon fill="midnightblue" stroke="midnightblue" points="788.75,-569.97 785.66,-559.84 781.76,-569.69 788.75,-569.97"/>
</g>
<!-- Node4 -->
<g id="node4" class="node">
<title>Node4</title>
<g id="a_node4"><a xlink:href="../../df/dfa/class_autowire_tool.html#a68dc0be6807c61b742a319c4f1509a0f" target="_top" xlink:title="Add wiring geometry of a connection to the scene (cubes) (For debugging)">
<polygon fill="white" stroke="black" points="538.5,-968.12 538.5,-998.12 682.5,-998.12 682.5,-968.12 538.5,-968.12"/>
<text text-anchor="start" x="546.5" y="-986.12" font-family="Helvetica,sans-Serif" font-size="10.00">AutowireTool::addConnection</text>
<text text-anchor="middle" x="610.5" y="-975.12" font-family="Helvetica,sans-Serif" font-size="10.00">Cubes</text>
</a>
</g>
</g>
<!-- Node1&#45;&gt;Node4 -->
<g id="edge3" class="edge">
<title>Node1&#45;&gt;Node4</title>
<path fill="none" stroke="midnightblue" d="M783.55,-569.88C774.21,-642.56 738.66,-893.82 687,-953.12 681.63,-959.28 674.81,-964.2 667.49,-968.11"/>
<polygon fill="midnightblue" stroke="midnightblue" points="787.05,-570.17 784.83,-559.81 780.1,-569.29 787.05,-570.17"/>
</g>
<!-- Node5 -->
<g id="node5" class="node">
<title>Node5</title>
<g id="a_node5"><a xlink:href="../../d1/da7/class_place_ground_plane8_connectors_tool.html#aaf1c46eccc1ea15dec8c7669c8a97a47" target="_top" xlink:title="Add connector to touchpoint registry.">
<polygon fill="white" stroke="black" points="534,-880.12 534,-910.12 687,-910.12 687,-880.12 534,-880.12"/>
<text text-anchor="start" x="542" y="-898.12" font-family="Helvetica,sans-Serif" font-size="10.00">PlaceGroundPlane8Connectors</text>
<text text-anchor="middle" x="610.5" y="-887.12" font-family="Helvetica,sans-Serif" font-size="10.00">Tool::addConnector</text>
</a>
</g>
</g>
<!-- Node1&#45;&gt;Node5 -->
<g id="edge4" class="edge">
<title>Node1&#45;&gt;Node5</title>
<path fill="none" stroke="midnightblue" d="M785.89,-570.12C784.46,-625.9 772.67,-784.7 687,-871.12 683.61,-874.53 679.74,-877.47 675.57,-879.98"/>
<polygon fill="midnightblue" stroke="midnightblue" points="789.39,-569.9 786.06,-559.85 782.39,-569.79 789.39,-569.9"/>
</g>
<!-- Node6 -->
<g id="node6" class="node">
<title>Node6</title>
<g id="a_node6"><a xlink:href="../../d1/da7/class_place_ground_plane8_connectors_tool.html#ac6f514739682b173fadccf10f5bc9aab" target="_top" xlink:title=" ">
<polygon fill="white" stroke="black" points="343.5,-880.12 343.5,-910.12 496.5,-910.12 496.5,-880.12 343.5,-880.12"/>
<text text-anchor="start" x="351.5" y="-898.12" font-family="Helvetica,sans-Serif" font-size="10.00">PlaceGroundPlane8Connectors</text>
<text text-anchor="middle" x="420" y="-887.12" font-family="Helvetica,sans-Serif" font-size="10.00">Tool::execute</text>
</a>
</g>
</g>
<!-- Node1&#45;&gt;Node6 -->
<g id="edge36" class="edge">
<title>Node1&#45;&gt;Node6</title>
<path fill="none" stroke="midnightblue" d="M783.84,-569.82C775.69,-640.01 744.34,-876.1 687,-920.12 617.28,-973.64 505.02,-934.22 451.41,-910.13"/>
<polygon fill="midnightblue" stroke="midnightblue" points="787.34,-570.03 784.98,-559.7 780.38,-569.24 787.34,-570.03"/>
</g>
<!-- Node7 -->
<g id="node7" class="node">
<title>Node7</title>
<g id="a_node7"><a xlink:href="../../dc/db2/class_place_ground_plane4_connectors_tool.html#a07d60110c5f9b56bf016c68d879f6d80" target="_top" xlink:title="Add connector to touchpoint registry.">
<polygon fill="white" stroke="black" points="534,-831.12 534,-861.12 687,-861.12 687,-831.12 534,-831.12"/>
<text text-anchor="start" x="542" y="-849.12" font-family="Helvetica,sans-Serif" font-size="10.00">PlaceGroundPlane4Connectors</text>
<text text-anchor="middle" x="610.5" y="-838.12" font-family="Helvetica,sans-Serif" font-size="10.00">Tool::addConnector</text>
</a>
</g>
</g>
<!-- Node1&#45;&gt;Node7 -->
<g id="edge6" class="edge">
<title>Node1&#45;&gt;Node7</title>
<path fill="none" stroke="midnightblue" d="M784.08,-569.92C778.36,-618.42 757.18,-744.38 687,-816.12 681.08,-822.16 673.79,-827.03 666.09,-830.92"/>
<polygon fill="midnightblue" stroke="midnightblue" points="787.58,-570.14 785.17,-559.82 780.62,-569.38 787.58,-570.14"/>
</g>
<!-- Node8 -->
<g id="node8" class="node">
<title>Node8</title>
<g id="a_node8"><a xlink:href="../../dc/db2/class_place_ground_plane4_connectors_tool.html#a7ae289774f2b51d2daba1215effc4311" target="_top" xlink:title=" ">
<polygon fill="white" stroke="black" points="343.5,-787.12 343.5,-817.12 496.5,-817.12 496.5,-787.12 343.5,-787.12"/>
<text text-anchor="start" x="351.5" y="-805.12" font-family="Helvetica,sans-Serif" font-size="10.00">PlaceGroundPlane4Connectors</text>
<text text-anchor="middle" x="420" y="-794.12" font-family="Helvetica,sans-Serif" font-size="10.00">Tool::execute</text>
</a>
</g>
</g>
<!-- Node1&#45;&gt;Node8 -->
<g id="edge37" class="edge">
<title>Node1&#45;&gt;Node8</title>
<path fill="none" stroke="midnightblue" d="M784.28,-570.03C779.1,-616.4 759.21,-731.55 687,-783.12 632.27,-822.2 554.02,-823.05 496.55,-816.47"/>
<polygon fill="midnightblue" stroke="midnightblue" points="787.79,-570.1 785.3,-559.8 780.82,-569.41 787.79,-570.1"/>
</g>
<!-- Node9 -->
<g id="node9" class="node">
<title>Node9</title>
<g id="a_node9"><a xlink:href="../../d9/d00/class_p_s_interface_tool.html#a55b3f305a7b9ffce3be9ec646ce145a8" target="_top" xlink:title=" ">
<polygon fill="white" stroke="black" points="534,-578.62 534,-597.62 687,-597.62 687,-578.62 534,-578.62"/>
<text text-anchor="middle" x="610.5" y="-585.62" font-family="Helvetica,sans-Serif" font-size="10.00">PSInterfaceTool::addConnector</text>
</a>
</g>
</g>
<!-- Node1&#45;&gt;Node9 -->
<g id="edge8" class="edge">
<title>Node1&#45;&gt;Node9</title>
<path fill="none" stroke="midnightblue" d="M732.03,-561.87C707.36,-567.24 678.51,-573.52 655.22,-578.6"/>
<polygon fill="midnightblue" stroke="midnightblue" points="732.94,-565.25 741.97,-559.7 731.45,-558.41 732.94,-565.25"/>
</g>
<!-- Node10 -->
<g id="node10" class="node">
<title>Node10</title>
<g id="a_node10"><a xlink:href="../../d9/d00/class_p_s_interface_tool.html#aa26bf20d4e597f64df960e4c1a5c3a69" target="_top" xlink:title=" ">
<polygon fill="white" stroke="black" points="356.5,-719.62 356.5,-738.62 483.5,-738.62 483.5,-719.62 356.5,-719.62"/>
<text text-anchor="middle" x="420" y="-726.62" font-family="Helvetica,sans-Serif" font-size="10.00">PSInterfaceTool::execute</text>
</a>
</g>
</g>
<!-- Node1&#45;&gt;Node10 -->
<g id="edge38" class="edge">
<title>Node1&#45;&gt;Node10</title>
<path fill="none" stroke="midnightblue" d="M779.05,-569.15C766.28,-601.17 735.81,-665.23 687,-695.12 653.95,-715.36 551.37,-723.65 483.68,-726.98"/>
<polygon fill="midnightblue" stroke="midnightblue" points="782.4,-570.21 782.71,-559.62 775.86,-567.7 782.4,-570.21"/>
</g>
<!-- Node11 -->
<g id="node11" class="node">
<title>Node11</title>
<g id="a_node11"><a xlink:href="../../d9/d4f/namespace_layout_algorithms.html#aa987a43d71a910d093953d6b92764d7f" target="_top" xlink:title="Computes a wiring entry point in world coordinates for a touchpoint geometry.">
<polygon fill="white" stroke="black" points="542.5,-655.12 542.5,-685.12 678.5,-685.12 678.5,-655.12 542.5,-655.12"/>
<text text-anchor="start" x="550.5" y="-673.12" font-family="Helvetica,sans-Serif" font-size="10.00">LayoutAlgorithms::compute</text>
<text text-anchor="middle" x="610.5" y="-662.12" font-family="Helvetica,sans-Serif" font-size="10.00">ConnectionPoint</text>
</a>
</g>
</g>
<!-- Node1&#45;&gt;Node11 -->
<g id="edge10" class="edge">
<title>Node1&#45;&gt;Node11</title>
<path fill="none" stroke="midnightblue" d="M772.16,-567.48C754.49,-588.61 721.97,-624.05 687,-645.12 680.73,-648.89 673.82,-652.18 666.81,-655.01"/>
<polygon fill="midnightblue" stroke="midnightblue" points="774.96,-569.6 778.59,-559.64 769.55,-565.16 774.96,-569.6"/>
</g>
<!-- Node12 -->
<g id="node12" class="node">
<title>Node12</title>
<g id="a_node12"><a xlink:href="../../d9/d4f/namespace_layout_algorithms.html#ad165a81c391eaa466ebce1da720ee6b5" target="_top" xlink:title="Computes a wiring entry point in world coordinates for a sphere shaped touchpoint geometry.">
<polygon fill="white" stroke="black" points="542.5,-453.12 542.5,-483.12 678.5,-483.12 678.5,-453.12 542.5,-453.12"/>
<text text-anchor="start" x="550.5" y="-471.12" font-family="Helvetica,sans-Serif" font-size="10.00">LayoutAlgorithms::compute</text>
<text text-anchor="middle" x="610.5" y="-460.12" font-family="Helvetica,sans-Serif" font-size="10.00">ConnectionPointSphere</text>
</a>
</g>
</g>
<!-- Node1&#45;&gt;Node12 -->
<g id="edge11" class="edge">
<title>Node1&#45;&gt;Node12</title>
<path fill="none" stroke="midnightblue" d="M760.12,-535.56C740.36,-524.69 712.32,-509.75 687,-498.12 675.72,-492.93 663.28,-487.77 651.8,-483.22"/>
<polygon fill="midnightblue" stroke="midnightblue" points="758.66,-538.75 769.1,-540.54 762.05,-532.63 758.66,-538.75"/>
</g>
<!-- Node13 -->
<g id="node13" class="node">
<title>Node13</title>
<g id="a_node13"><a xlink:href="../../da/dcb/class_freehand_add_final_point_callback.html#a4a889b08c802e7e81598b8dd8b5e3dad" target="_top" xlink:title="Overwritten callback method, which is executed when the left mouse button is pressed.">
<polygon fill="white" stroke="black" points="342,-670.12 342,-700.12 498,-700.12 498,-670.12 342,-670.12"/>
<text text-anchor="start" x="350" y="-688.12" font-family="Helvetica,sans-Serif" font-size="10.00">FreehandAddFinalPointCallback</text>
<text text-anchor="middle" x="420" y="-677.12" font-family="Helvetica,sans-Serif" font-size="10.00">::Execute</text>
</a>
</g>
</g>
<!-- Node1&#45;&gt;Node13 -->
<g id="edge41" class="edge">
<title>Node1&#45;&gt;Node13</title>
<path fill="none" stroke="midnightblue" d="M712.88,-547.23C648.71,-546.18 561.46,-548.82 534,-569.12 498.69,-595.21 530.13,-631.19 498,-661.12 494.31,-664.55 490.14,-667.5 485.69,-670.02"/>
<polygon fill="midnightblue" stroke="midnightblue" points="712.9,-550.73 722.96,-547.43 713.03,-543.73 712.9,-550.73"/>
</g>
<!-- Node14 -->
<g id="node14" class="node">
<title>Node14</title>
<g id="a_node14"><a xlink:href="../../d4/d58/class_polyline_add_final_point_callback.html#aebf2f4ff9236a12c598205822c2949a2" target="_top" xlink:title="Overwritten callback method, which is executed when the left mouse button is pressed for the first ti...">
<polygon fill="white" stroke="black" points="345,-621.12 345,-651.12 495,-651.12 495,-621.12 345,-621.12"/>
<text text-anchor="start" x="353" y="-639.12" font-family="Helvetica,sans-Serif" font-size="10.00">PolylineAddFinalPointCallback</text>
<text text-anchor="middle" x="420" y="-628.12" font-family="Helvetica,sans-Serif" font-size="10.00">::Execute</text>
</a>
</g>
</g>
<!-- Node1&#45;&gt;Node14 -->
<g id="edge42" class="edge">
<title>Node1&#45;&gt;Node14</title>
<path fill="none" stroke="midnightblue" d="M753.37,-537.11C702.23,-519.03 602.04,-493.06 534,-536.12 502.42,-556.1 526.22,-587.6 498,-612.12 494.09,-615.51 489.7,-618.43 485.05,-620.93"/>
<polygon fill="midnightblue" stroke="midnightblue" points="752.33,-540.46 762.92,-540.6 754.73,-533.88 752.33,-540.46"/>
</g>
<!-- Node15 -->
<g id="node15" class="node">
<title>Node15</title>
<g id="a_node15"><a xlink:href="../../db/dbb/class_picking_interactor_style.html#a22c8515240e36efd282409c27faf0e52" target="_top" xlink:title="Overloaded method, invoked when left mouse button is pressed.">
<polygon fill="white" stroke="black" points="363.5,-278.12 363.5,-308.12 476.5,-308.12 476.5,-278.12 363.5,-278.12"/>
<text text-anchor="start" x="371.5" y="-296.12" font-family="Helvetica,sans-Serif" font-size="10.00">PickingInteractorStyle</text>
<text text-anchor="middle" x="420" y="-285.12" font-family="Helvetica,sans-Serif" font-size="10.00">::OnLeftButtonDown</text>
</a>
</g>
</g>
<!-- Node1&#45;&gt;Node15 -->
<g id="edge44" class="edge">
<title>Node1&#45;&gt;Node15</title>
<path fill="none" stroke="midnightblue" d="M774.12,-532.02C757.51,-508.18 725.07,-466.65 687,-444.12 626.62,-408.36 587.03,-451.07 534,-405.12 502.38,-377.71 528.73,-346.52 498,-318.12 491.91,-312.49 484.54,-308.12 476.8,-304.74"/>
<polygon fill="midnightblue" stroke="midnightblue" points="771.36,-534.18 779.87,-540.49 777.15,-530.25 771.36,-534.18"/>
</g>
<!-- Node16 -->
<g id="node16" class="node">
<title>Node16</title>
<g id="a_node16"><a xlink:href="../../d1/db5/class_lasso_interactor_style.html#a711994cec6c74643d2bc161ba73daacd" target="_top" xlink:title="Overwritten method, which is executed when the left mouse button is released.">
<polygon fill="white" stroke="black" points="366.5,-229.12 366.5,-259.12 473.5,-259.12 473.5,-229.12 366.5,-229.12"/>
<text text-anchor="start" x="374.5" y="-247.12" font-family="Helvetica,sans-Serif" font-size="10.00">LassoInteractorStyle</text>
<text text-anchor="middle" x="420" y="-236.12" font-family="Helvetica,sans-Serif" font-size="10.00">::OnLeftButtonUp</text>
</a>
</g>
</g>
<!-- Node1&#45;&gt;Node16 -->
<g id="edge45" class="edge">
<title>Node1&#45;&gt;Node16</title>
<path fill="none" stroke="midnightblue" d="M781.66,-530.28C771.94,-490.79 744.66,-402.19 687,-356.12 632.18,-312.3 592.37,-356.07 534,-317.12 511.82,-302.31 519.69,-284.62 498,-269.12 490.68,-263.88 482.21,-259.71 473.62,-256.38"/>
<polygon fill="midnightblue" stroke="midnightblue" points="778.3,-531.3 783.98,-540.24 785.12,-529.71 778.3,-531.3"/>
</g>
<!-- Node25 -->
<g id="node25" class="node">
<title>Node25</title>
<g id="a_node25"><a xlink:href="../../d9/d4f/namespace_layout_algorithms.html#a0dd279f7ae7f35e3850f4a90b198faae" target="_top" xlink:title="Computes the pole of inaccessibility (point which is farthest away from all mesh ground edges).">
<polygon fill="white" stroke="black" points="542.5,-743.12 542.5,-773.12 678.5,-773.12 678.5,-743.12 542.5,-743.12"/>
<text text-anchor="start" x="550.5" y="-761.12" font-family="Helvetica,sans-Serif" font-size="10.00">LayoutAlgorithms::compute</text>
<text text-anchor="middle" x="610.5" y="-750.12" font-family="Helvetica,sans-Serif" font-size="10.00">PoleOfInaccessibility</text>
</a>
</g>
</g>
<!-- Node1&#45;&gt;Node25 -->
<g id="edge29" class="edge">
<title>Node1&#45;&gt;Node25</title>
<path fill="none" stroke="midnightblue" d="M780.12,-569.46C768.23,-605.49 738.04,-683.28 687,-728.12 680.11,-734.17 671.85,-739.08 663.37,-743.04"/>
<polygon fill="midnightblue" stroke="midnightblue" points="783.53,-570.29 783.22,-559.7 776.86,-568.17 783.53,-570.29"/>
</g>
<!-- Node26 -->
<g id="node26" class="node">
<title>Node26</title>
<g id="a_node26"><a xlink:href="../../d1/d4e/class_place_touchpoint_tool.html#a34678be478000112f157c5ec1af7f3bd" target="_top" xlink:title=" ">
<polygon fill="white" stroke="black" points="557,-365.12 557,-395.12 664,-395.12 664,-365.12 557,-365.12"/>
<text text-anchor="start" x="565" y="-383.12" font-family="Helvetica,sans-Serif" font-size="10.00">PlaceTouchpointTool</text>
<text text-anchor="middle" x="610.5" y="-372.12" font-family="Helvetica,sans-Serif" font-size="10.00">::execute</text>
</a>
</g>
</g>
<!-- Node1&#45;&gt;Node26 -->
<g id="edge33" class="edge">
<title>Node1&#45;&gt;Node26</title>
<path fill="none" stroke="midnightblue" d="M777.19,-531.29C762.45,-501.67 730.11,-444.04 687,-410.12 679.35,-404.1 670.34,-399.14 661.26,-395.12"/>
<polygon fill="midnightblue" stroke="midnightblue" points="774.15,-533.05 781.66,-540.52 780.45,-529.99 774.15,-533.05"/>
</g>
<!-- Node27 -->
<g id="node27" class="node">
<title>Node27</title>
<g id="a_node27"><a xlink:href="../../d2/d68/class_export_open_scad_tool.html#a71ef67a238fb9cd74563b65d77c1ea73" target="_top" xlink:title=" ">
<polygon fill="white" stroke="black" points="184,-92.12 184,-122.12 293,-122.12 293,-92.12 184,-92.12"/>
<text text-anchor="start" x="192" y="-110.12" font-family="Helvetica,sans-Serif" font-size="10.00">ExportOpenScadTool</text>
<text text-anchor="middle" x="238.5" y="-99.12" font-family="Helvetica,sans-Serif" font-size="10.00">::execute</text>
</a>
</g>
</g>
<!-- Node1&#45;&gt;Node27 -->
<g id="edge35" class="edge">
<title>Node1&#45;&gt;Node27</title>
<path fill="none" stroke="midnightblue" d="M785.33,-530.21C781.98,-444.39 764.05,-107.55 687,-44.12 559.35,60.98 338.59,-49.66 264.54,-92.06"/>
<polygon fill="midnightblue" stroke="midnightblue" points="781.83,-530.34 785.7,-540.2 788.83,-530.08 781.83,-530.34"/>
</g>
<!-- Node28 -->
<g id="node28" class="node">
<title>Node28</title>
<g id="a_node28"><a xlink:href="../../dd/d00/class_export_s_t_l_tool.html#a218420198ac8fef5b9f9a8acc889307d" target="_top" xlink:title=" ">
<polygon fill="white" stroke="black" points="550,-288.62 550,-307.62 671,-307.62 671,-288.62 550,-288.62"/>
<text text-anchor="middle" x="610.5" y="-295.62" font-family="Helvetica,sans-Serif" font-size="10.00">ExportSTLTool::execute</text>
</a>
</g>
</g>
<!-- Node1&#45;&gt;Node28 -->
<g id="edge39" class="edge">
<title>Node1&#45;&gt;Node28</title>
<path fill="none" stroke="midnightblue" d="M783.01,-530.21C775.36,-486.18 750.94,-379.85 687,-322.12 679.96,-315.76 671.22,-311.08 662.23,-307.64"/>
<polygon fill="midnightblue" stroke="midnightblue" points="779.58,-530.92 784.65,-540.22 786.49,-529.79 779.58,-530.92"/>
</g>
<!-- Node29 -->
<g id="node29" class="node">
<title>Node29</title>
<g id="a_node29"><a xlink:href="../../de/dd7/class_polyline_touchpoint_tool.html#a68d7b8c4d090063977b3404e4084290a" target="_top" xlink:title=" ">
<polygon fill="white" stroke="black" points="552.5,-239.12 552.5,-269.12 668.5,-269.12 668.5,-239.12 552.5,-239.12"/>
<text text-anchor="start" x="560.5" y="-257.12" font-family="Helvetica,sans-Serif" font-size="10.00">PolylineTouchpointTool</text>
<text text-anchor="middle" x="610.5" y="-246.12" font-family="Helvetica,sans-Serif" font-size="10.00">::execute</text>
</a>
</g>
</g>
<!-- Node1&#45;&gt;Node29 -->
<g id="edge40" class="edge">
<title>Node1&#45;&gt;Node29</title>
<path fill="none" stroke="midnightblue" d="M784.52,-530.33C779.77,-480.83 760.55,-350.46 687,-279.12 681.75,-274.02 675.43,-269.96 668.72,-266.73"/>
<polygon fill="midnightblue" stroke="midnightblue" points="781.04,-530.7 785.39,-540.36 788.02,-530.1 781.04,-530.7"/>
</g>
<!-- Node30 -->
<g id="node30" class="node">
<title>Node30</title>
<g id="a_node30"><a xlink:href="../../de/de0/class_freehand_touchpoint_tool.html#a553b2df8ed2128433bac512947a1ce2c" target="_top" xlink:title=" ">
<polygon fill="white" stroke="black" points="549.5,-190.12 549.5,-220.12 671.5,-220.12 671.5,-190.12 549.5,-190.12"/>
<text text-anchor="start" x="557.5" y="-208.12" font-family="Helvetica,sans-Serif" font-size="10.00">FreehandTouchpointTool</text>
<text text-anchor="middle" x="610.5" y="-197.12" font-family="Helvetica,sans-Serif" font-size="10.00">::execute</text>
</a>
</g>
</g>
<!-- Node1&#45;&gt;Node30 -->
<g id="edge43" class="edge">
<title>Node1&#45;&gt;Node30</title>
<path fill="none" stroke="midnightblue" d="M785.81,-530.22C784.19,-474.75 771.95,-316.76 687,-230.12 682.55,-225.58 677.27,-221.87 671.59,-218.83"/>
<polygon fill="midnightblue" stroke="midnightblue" points="782.32,-530.51 786.02,-540.44 789.31,-530.37 782.32,-530.51"/>
</g>
<!-- Node31 -->
<g id="node31" class="node">
<title>Node31</title>
<g id="a_node31"><a xlink:href="../../d6/db5/class_scene.html#a266f98c6795eca4f5c03cba5761967d6" target="_top" xlink:title="Replace the actual mesh polydata with the polydata given as parameter.">
<polygon fill="white" stroke="black" points="537.5,-616.62 537.5,-635.62 683.5,-635.62 683.5,-616.62 537.5,-616.62"/>
<text text-anchor="middle" x="610.5" y="-623.62" font-family="Helvetica,sans-Serif" font-size="10.00">Scene::replaceMeshPolyData</text>
</a>
</g>
</g>
<!-- Node1&#45;&gt;Node31 -->
<g id="edge46" class="edge">
<title>Node1&#45;&gt;Node31</title>
<path fill="none" stroke="midnightblue" d="M763.74,-565.33C744.25,-578.05 714.77,-595.88 687,-607.12 677.85,-610.82 667.78,-613.95 658.06,-616.54"/>
<polygon fill="midnightblue" stroke="midnightblue" points="765.8,-568.16 772.2,-559.71 761.93,-562.33 765.8,-568.16"/>
</g>
<!-- Node32 -->
<g id="node32" class="node">
<title>Node32</title>
<g id="a_node32"><a xlink:href="../../d2/d68/class_export_open_scad_tool.html#a7f29f99b52300deb6af6bdab5153030d" target="_top" xlink:title="Export the mesh in the openscad format.">
<polygon fill="white" stroke="black" points="556,-141.12 556,-171.12 665,-171.12 665,-141.12 556,-141.12"/>
<text text-anchor="start" x="564" y="-159.12" font-family="Helvetica,sans-Serif" font-size="10.00">ExportOpenScadTool</text>
<text text-anchor="middle" x="610.5" y="-148.12" font-family="Helvetica,sans-Serif" font-size="10.00">::writeMesh</text>
</a>
</g>
</g>
<!-- Node1&#45;&gt;Node32 -->
<g id="edge48" class="edge">
<title>Node1&#45;&gt;Node32</title>
<path fill="none" stroke="midnightblue" d="M786.78,-530.49C788.09,-469.88 783.67,-283.52 687,-181.12 681.03,-174.79 673.42,-170.06 665.35,-166.53"/>
<polygon fill="midnightblue" stroke="midnightblue" points="783.28,-530.49 786.48,-540.59 790.28,-530.7 783.28,-530.49"/>
</g>
<!-- Node35 -->
<g id="node35" class="node">
<title>Node35</title>
<g id="a_node35"><a xlink:href="../../d9/d00/class_p_s_interface_tool.html#ab38cf6e6bc39abe0370d8227978d303c" target="_top" xlink:title=" ">
<polygon fill="white" stroke="black" points="542,-53.62 542,-72.62 679,-72.62 679,-53.62 542,-53.62"/>
<text text-anchor="middle" x="610.5" y="-60.62" font-family="Helvetica,sans-Serif" font-size="10.00">PSInterfaceTool::writeMesh</text>
</a>
</g>
</g>
<!-- Node1&#45;&gt;Node35 -->
<g id="edge54" class="edge">
<title>Node1&#45;&gt;Node35</title>
<path fill="none" stroke="midnightblue" d="M784.53,-530.11C778.21,-449.31 750.68,-148.27 687,-82.12 683.34,-78.32 679.05,-75.24 674.4,-72.74"/>
<polygon fill="midnightblue" stroke="midnightblue" points="781.07,-530.67 785.31,-540.38 788.05,-530.14 781.07,-530.67"/>
</g>
<!-- Node36 -->
<g id="node36" class="node">
<title>Node36</title>
<g id="a_node36"><a xlink:href="../../d2/d68/class_export_open_scad_tool.html#a2e36901501e307b74705aa84f4227d67" target="_top" xlink:title="Export the wiring in the openscad format.">
<polygon fill="white" stroke="black" points="556,-92.12 556,-122.12 665,-122.12 665,-92.12 556,-92.12"/>
<text text-anchor="start" x="564" y="-110.12" font-family="Helvetica,sans-Serif" font-size="10.00">ExportOpenScadTool</text>
<text text-anchor="middle" x="610.5" y="-99.12" font-family="Helvetica,sans-Serif" font-size="10.00">::writeWiring</text>
</a>
</g>
</g>
<!-- Node1&#45;&gt;Node36 -->
<g id="edge55" class="edge">
<title>Node1&#45;&gt;Node36</title>
<path fill="none" stroke="midnightblue" d="M783.91,-530.4C775.61,-455.69 742.7,-191.21 687,-131.12 681.02,-124.66 673.31,-119.93 665.1,-116.47"/>
<polygon fill="midnightblue" stroke="midnightblue" points="780.43,-530.79 784.99,-540.35 787.39,-530.03 780.43,-530.79"/>
</g>
<!-- Node2&#45;&gt;Node3 -->
<g id="edge2" class="edge">
<title>Node2&#45;&gt;Node3</title>
<path fill="none" stroke="midnightblue" d="M528.13,-1035.32C510.81,-1037.06 492.9,-1038.87 476.79,-1040.49"/>
<polygon fill="midnightblue" stroke="midnightblue" points="528.64,-1038.78 538.24,-1034.3 527.94,-1031.82 528.64,-1038.78"/>
</g>
<!-- Node5&#45;&gt;Node6 -->
<g id="edge5" class="edge">
<title>Node5&#45;&gt;Node6</title>
<path fill="none" stroke="midnightblue" d="M523.75,-895.12C514.69,-895.12 505.53,-895.12 496.6,-895.12"/>
<polygon fill="midnightblue" stroke="midnightblue" points="523.92,-898.62 533.92,-895.12 523.92,-891.62 523.92,-898.62"/>
</g>
<!-- Node7&#45;&gt;Node8 -->
<g id="edge7" class="edge">
<title>Node7&#45;&gt;Node8</title>
<path fill="none" stroke="midnightblue" d="M535.06,-828.74C518.63,-824.9 501.36,-820.87 485.37,-817.14"/>
<polygon fill="midnightblue" stroke="midnightblue" points="534.62,-832.23 545.16,-831.1 536.21,-825.41 534.62,-832.23"/>
</g>
<!-- Node9&#45;&gt;Node10 -->
<g id="edge9" class="edge">
<title>Node9&#45;&gt;Node10</title>
<path fill="none" stroke="midnightblue" d="M539.41,-602.81C537.51,-604.13 535.7,-605.56 534,-607.12 498.21,-639.83 533.87,-677.48 498,-710.12 493.82,-713.91 489.01,-716.98 483.87,-719.46"/>
<polygon fill="midnightblue" stroke="midnightblue" points="541.31,-605.75 548.21,-597.72 537.8,-599.69 541.31,-605.75"/>
</g>
<!-- Node12&#45;&gt;Node13 -->
<g id="edge12" class="edge">
<title>Node12&#45;&gt;Node13</title>
<path fill="none" stroke="midnightblue" d="M578.61,-489.41C563.2,-501.48 545.45,-517.82 534,-536.12 503.34,-585.13 538.43,-619.79 498,-661.12 494.67,-664.52 490.87,-667.44 486.77,-669.95"/>
<polygon fill="midnightblue" stroke="midnightblue" points="581.01,-491.98 586.88,-483.15 576.79,-486.39 581.01,-491.98"/>
</g>
<!-- Node12&#45;&gt;Node14 -->
<g id="edge13" class="edge">
<title>Node12&#45;&gt;Node14</title>
<path fill="none" stroke="midnightblue" d="M545.38,-488.5C541.22,-491.31 537.37,-494.5 534,-498.12 497.81,-537.02 535.64,-574.62 498,-612.12 494.53,-615.57 490.57,-618.54 486.31,-621.07"/>
<polygon fill="midnightblue" stroke="midnightblue" points="547.43,-491.35 554.25,-483.24 543.86,-485.33 547.43,-491.35"/>
</g>
<!-- Node12&#45;&gt;Node15 -->
<g id="edge14" class="edge">
<title>Node12&#45;&gt;Node15</title>
<path fill="none" stroke="midnightblue" d="M545.32,-447.79C541.18,-444.96 537.34,-441.76 534,-438.12 496.37,-397.07 536.93,-357.93 498,-318.12 492.01,-311.99 484.5,-307.36 476.53,-303.86"/>
<polygon fill="midnightblue" stroke="midnightblue" points="543.79,-450.95 554.17,-453.06 547.37,-444.94 543.79,-450.95"/>
</g>
<!-- Node12&#45;&gt;Node16 -->
<g id="edge15" class="edge">
<title>Node12&#45;&gt;Node16</title>
<path fill="none" stroke="midnightblue" d="M575.75,-447C560.95,-436.16 544.58,-421.73 534,-405.12 500.41,-352.38 540.98,-314.53 498,-269.12 491.33,-262.07 482.67,-257.01 473.56,-253.37"/>
<polygon fill="midnightblue" stroke="midnightblue" points="574.04,-450.08 584.23,-452.97 578.06,-444.35 574.04,-450.08"/>
</g>
<!-- Node17 -->
<g id="node17" class="node">
<title>Node17</title>
<g id="a_node17"><a xlink:href="../../d9/dc6/class_main_window.html#a46bb2fea8ddeab75e15a223c291116b6" target="_top" xlink:title=" ">
<polygon fill="white" stroke="black" points="345.5,-572.12 345.5,-602.12 494.5,-602.12 494.5,-572.12 345.5,-572.12"/>
<text text-anchor="start" x="353.5" y="-590.12" font-family="Helvetica,sans-Serif" font-size="10.00">MainWindow::slotOptimization</text>
<text text-anchor="middle" x="420" y="-579.12" font-family="Helvetica,sans-Serif" font-size="10.00">BenchmarkBunnyLowPoly</text>
</a>
</g>
</g>
<!-- Node12&#45;&gt;Node17 -->
<g id="edge16" class="edge">
<title>Node12&#45;&gt;Node17</title>
<path fill="none" stroke="midnightblue" d="M548.62,-487.83C543.38,-490.82 538.41,-494.24 534,-498.12 509.21,-519.93 523.6,-542.26 498,-563.12 493.77,-566.56 489.04,-569.52 484.06,-572.05"/>
<polygon fill="midnightblue" stroke="midnightblue" points="550.34,-490.88 557.62,-483.18 547.13,-484.66 550.34,-490.88"/>
</g>
<!-- Node20 -->
<g id="node20" class="node">
<title>Node20</title>
<g id="a_node20"><a xlink:href="../../d9/dc6/class_main_window.html#affed0fab82fd390e2762933c6dca9124" target="_top" xlink:title=" ">
<polygon fill="white" stroke="black" points="345.5,-523.12 345.5,-553.12 494.5,-553.12 494.5,-523.12 345.5,-523.12"/>
<text text-anchor="start" x="353.5" y="-541.12" font-family="Helvetica,sans-Serif" font-size="10.00">MainWindow::slotOptimization</text>
<text text-anchor="middle" x="420" y="-530.12" font-family="Helvetica,sans-Serif" font-size="10.00">BenchmarkCorona</text>
</a>
</g>
</g>
<!-- Node12&#45;&gt;Node20 -->
<g id="edge19" class="edge">
<title>Node12&#45;&gt;Node20</title>
<path fill="none" stroke="midnightblue" d="M561.27,-486.95C552.18,-490.59 542.78,-494.42 534,-498.12 517.86,-504.91 514.39,-507.94 498,-514.12 489.74,-517.22 480.89,-520.26 472.23,-523.06"/>
<polygon fill="midnightblue" stroke="midnightblue" points="562.59,-490.19 570.58,-483.24 560,-483.69 562.59,-490.19"/>
</g>
<!-- Node21 -->
<g id="node21" class="node">
<title>Node21</title>
<g id="a_node21"><a xlink:href="../../d9/dc6/class_main_window.html#adfdb8fcb8685844e8ce11bfb41b83b7d" target="_top" xlink:title=" ">
<polygon fill="white" stroke="black" points="345.5,-474.12 345.5,-504.12 494.5,-504.12 494.5,-474.12 345.5,-474.12"/>
<text text-anchor="start" x="353.5" y="-492.12" font-family="Helvetica,sans-Serif" font-size="10.00">MainWindow::slotOptimization</text>
<text text-anchor="middle" x="420" y="-481.12" font-family="Helvetica,sans-Serif" font-size="10.00">BenchmarkCthulhu</text>
</a>
</g>
</g>
<!-- Node12&#45;&gt;Node21 -->
<g id="edge21" class="edge">
<title>Node12&#45;&gt;Node21</title>
<path fill="none" stroke="midnightblue" d="M531.98,-476.75C519.63,-478.13 506.88,-479.55 494.63,-480.91"/>
<polygon fill="midnightblue" stroke="midnightblue" points="532.69,-480.19 542.25,-475.61 531.92,-473.24 532.69,-480.19"/>
</g>
<!-- Node22 -->
<g id="node22" class="node">
<title>Node22</title>
<g id="a_node22"><a xlink:href="../../d9/dc6/class_main_window.html#a5283a0d7aeeafd409c69b272053f3986" target="_top" xlink:title=" ">
<polygon fill="white" stroke="black" points="345.5,-425.12 345.5,-455.12 494.5,-455.12 494.5,-425.12 345.5,-425.12"/>
<text text-anchor="start" x="353.5" y="-443.12" font-family="Helvetica,sans-Serif" font-size="10.00">MainWindow::slotOptimization</text>
<text text-anchor="middle" x="420" y="-432.12" font-family="Helvetica,sans-Serif" font-size="10.00">BenchmarkCube</text>
</a>
</g>
</g>
<!-- Node12&#45;&gt;Node22 -->
<g id="edge23" class="edge">
<title>Node12&#45;&gt;Node22</title>
<path fill="none" stroke="midnightblue" d="M532.35,-456.66C519.89,-454.8 507.01,-452.89 494.63,-451.05"/>
<polygon fill="midnightblue" stroke="midnightblue" points="531.84,-460.12 542.25,-458.13 532.87,-453.19 531.84,-460.12"/>
</g>
<!-- Node23 -->
<g id="node23" class="node">
<title>Node23</title>
<g id="a_node23"><a xlink:href="../../d9/dc6/class_main_window.html#a0c92ca2d04a79a1580c2e8e136b82682" target="_top" xlink:title=" ">
<polygon fill="white" stroke="black" points="345.5,-376.12 345.5,-406.12 494.5,-406.12 494.5,-376.12 345.5,-376.12"/>
<text text-anchor="start" x="353.5" y="-394.12" font-family="Helvetica,sans-Serif" font-size="10.00">MainWindow::slotOptimization</text>
<text text-anchor="middle" x="420" y="-383.12" font-family="Helvetica,sans-Serif" font-size="10.00">BenchmarkSphere</text>
</a>
</g>
</g>
<!-- Node12&#45;&gt;Node23 -->
<g id="edge25" class="edge">
<title>Node12&#45;&gt;Node23</title>
<path fill="none" stroke="midnightblue" d="M558.52,-449.24C550.22,-445.77 541.79,-442.01 534,-438.12 517.23,-429.73 515.03,-423.95 498,-416.12 490.08,-412.47 481.49,-409.13 473,-406.15"/>
<polygon fill="midnightblue" stroke="midnightblue" points="557.22,-452.48 567.8,-453.01 559.86,-446 557.22,-452.48"/>
</g>
<!-- Node24 -->
<g id="node24" class="node">
<title>Node24</title>
<g id="a_node24"><a xlink:href="../../d9/dc6/class_main_window.html#a86cd359f80311725589d0861dd7a9851" target="_top" xlink:title=" ">
<polygon fill="white" stroke="black" points="345.5,-327.12 345.5,-357.12 494.5,-357.12 494.5,-327.12 345.5,-327.12"/>
<text text-anchor="start" x="353.5" y="-345.12" font-family="Helvetica,sans-Serif" font-size="10.00">MainWindow::slotOptimization</text>
<text text-anchor="middle" x="420" y="-334.12" font-family="Helvetica,sans-Serif" font-size="10.00">BenchmarkUChannel</text>
</a>
</g>
</g>
<!-- Node12&#45;&gt;Node24 -->
<g id="edge27" class="edge">
<title>Node12&#45;&gt;Node24</title>
<path fill="none" stroke="midnightblue" d="M547.85,-448.21C542.87,-445.27 538.17,-441.92 534,-438.12 507.87,-414.26 524.88,-390.12 498,-367.12 493.51,-363.28 488.43,-360.03 483.06,-357.27"/>
<polygon fill="midnightblue" stroke="midnightblue" points="546.57,-451.49 557.05,-453.07 549.85,-445.3 546.57,-451.49"/>
</g>
<!-- Node18 -->
<g id="node18" class="node">
<title>Node18</title>
<g id="a_node18"><a xlink:href="../../d9/dc6/class_main_window.html#a33dddfc15db4053f9117728538e7ece4" target="_top" xlink:title="Set up qt specific signal and slots part for enabling user interaction.">
<polygon fill="white" stroke="black" points="171,-449.12 171,-479.12 306,-479.12 306,-449.12 171,-449.12"/>
<text text-anchor="start" x="179" y="-467.12" font-family="Helvetica,sans-Serif" font-size="10.00">MainWindow::setupSignals</text>
<text text-anchor="middle" x="238.5" y="-456.12" font-family="Helvetica,sans-Serif" font-size="10.00">AndSlots</text>
</a>
</g>
</g>
<!-- Node17&#45;&gt;Node18 -->
<g id="edge17" class="edge">
<title>Node17&#45;&gt;Node18</title>
<path fill="none" stroke="midnightblue" d="M350.83,-567.84C347.79,-566.37 344.83,-564.79 342,-563.12 303.91,-540.53 268.97,-501.13 251.4,-479.47"/>
<polygon fill="midnightblue" stroke="midnightblue" points="349.59,-571.12 360.15,-571.96 352.42,-564.71 349.59,-571.12"/>
</g>
<!-- Node19 -->
<g id="node19" class="node">
<title>Node19</title>
<g id="a_node19"><a xlink:href="../../d9/dc6/class_main_window.html#a996c5a2b6f77944776856f08ec30858d" target="_top" xlink:title=" ">
<polygon fill="white" stroke="black" points="0,-454.62 0,-473.62 135,-473.62 135,-454.62 0,-454.62"/>
<text text-anchor="middle" x="67.5" y="-461.62" font-family="Helvetica,sans-Serif" font-size="10.00">MainWindow::MainWindow</text>
</a>
</g>
</g>
<!-- Node18&#45;&gt;Node19 -->
<g id="edge18" class="edge">
<title>Node18&#45;&gt;Node19</title>
<path fill="none" stroke="midnightblue" d="M160.45,-464.12C151.98,-464.12 143.41,-464.12 135.08,-464.12"/>
<polygon fill="midnightblue" stroke="midnightblue" points="160.71,-467.62 170.71,-464.12 160.71,-460.62 160.71,-467.62"/>
</g>
<!-- Node20&#45;&gt;Node18 -->
<g id="edge20" class="edge">
<title>Node20&#45;&gt;Node18</title>
<path fill="none" stroke="midnightblue" d="M357,-519.7C351.89,-517.91 346.84,-516.04 342,-514.12 316.24,-503.89 288,-489.89 267.7,-479.31"/>
<polygon fill="midnightblue" stroke="midnightblue" points="356.26,-523.14 366.85,-523.04 358.51,-516.51 356.26,-523.14"/>
</g>
<!-- Node21&#45;&gt;Node18 -->
<g id="edge22" class="edge">
<title>Node21&#45;&gt;Node18</title>
<path fill="none" stroke="midnightblue" d="M335.36,-477.47C325.61,-476.11 315.76,-474.74 306.28,-473.42"/>
<polygon fill="midnightblue" stroke="midnightblue" points="335.09,-480.96 345.47,-478.87 336.05,-474.03 335.09,-480.96"/>
</g>
<!-- Node22&#45;&gt;Node18 -->
<g id="edge24" class="edge">
<title>Node22&#45;&gt;Node18</title>
<path fill="none" stroke="midnightblue" d="M335.36,-451.3C325.61,-452.6 315.76,-453.92 306.28,-455.19"/>
<polygon fill="midnightblue" stroke="midnightblue" points="336.02,-454.74 345.47,-449.95 335.1,-447.8 336.02,-454.74"/>
</g>
<!-- Node23&#45;&gt;Node18 -->
<g id="edge26" class="edge">
<title>Node23&#45;&gt;Node18</title>
<path fill="none" stroke="midnightblue" d="M359.86,-409.49C353.79,-411.62 347.75,-413.85 342,-416.12 316.96,-426 289.37,-439.05 269.12,-449.05"/>
<polygon fill="midnightblue" stroke="midnightblue" points="361.06,-412.78 369.38,-406.22 358.79,-406.16 361.06,-412.78"/>
</g>
<!-- Node24&#45;&gt;Node18 -->
<g id="edge28" class="edge">
<title>Node24&#45;&gt;Node18</title>
<path fill="none" stroke="midnightblue" d="M353.33,-361.17C349.41,-363 345.6,-364.98 342,-367.12 304.5,-389.38 269.6,-427.58 251.81,-448.79"/>
<polygon fill="midnightblue" stroke="midnightblue" points="354.81,-364.34 362.62,-357.17 352.05,-357.91 354.81,-364.34"/>
</g>
<!-- Node25&#45;&gt;Node6 -->
<g id="edge30" class="edge">
<title>Node25&#45;&gt;Node6</title>
<path fill="none" stroke="midnightblue" d="M580.41,-779.26C542.01,-807.17 475.35,-855.62 441.7,-880.07"/>
<polygon fill="midnightblue" stroke="midnightblue" points="582.58,-782.01 588.61,-773.3 578.46,-776.35 582.58,-782.01"/>
</g>
<!-- Node25&#45;&gt;Node8 -->
<g id="edge31" class="edge">
<title>Node25&#45;&gt;Node8</title>
<path fill="none" stroke="midnightblue" d="M535.06,-775.49C518.63,-779.33 501.36,-783.36 485.37,-787.09"/>
<polygon fill="midnightblue" stroke="midnightblue" points="536.21,-778.82 545.16,-773.13 534.62,-772 536.21,-778.82"/>
</g>
<!-- Node25&#45;&gt;Node10 -->
<g id="edge32" class="edge">
<title>Node25&#45;&gt;Node10</title>
<path fill="none" stroke="midnightblue" d="M532.14,-746.21C515.73,-743.69 498.62,-741.06 482.88,-738.64"/>
<polygon fill="midnightblue" stroke="midnightblue" points="531.83,-749.71 542.25,-747.77 532.89,-742.79 531.83,-749.71"/>
</g>
<!-- Node31&#45;&gt;Node10 -->
<g id="edge47" class="edge">
<title>Node31&#45;&gt;Node10</title>
<path fill="none" stroke="midnightblue" d="M543.52,-639.99C540.16,-641.79 536.96,-643.82 534,-646.12 508.19,-666.09 523.98,-690.36 498,-710.12 492.96,-713.95 487.24,-717.02 481.26,-719.48"/>
<polygon fill="midnightblue" stroke="midnightblue" points="545.09,-643.12 552.7,-635.75 542.16,-636.77 545.09,-643.12"/>
</g>
<!-- Node32&#45;&gt;Node27 -->
<g id="edge49" class="edge">
<title>Node32&#45;&gt;Node27</title>
<path fill="none" stroke="midnightblue" d="M552.92,-173.79C497.79,-188.12 412.24,-202.57 342,-180.12 306.42,-168.74 272.64,-139.99 254.13,-122.15"/>
<polygon fill="midnightblue" stroke="midnightblue" points="554.1,-177.1 562.85,-171.13 552.29,-170.34 554.1,-177.1"/>
</g>
<!-- Node33 -->
<g id="node33" class="node">
<title>Node33</title>
<g id="a_node33"><a xlink:href="../../d2/d68/class_export_open_scad_tool.html#a9c35cf64ece9ee328df6ebfd080c0689" target="_top" xlink:title="Export the meshdifference between mesh and wiring in the openscad format.">
<polygon fill="white" stroke="black" points="365.5,-92.12 365.5,-122.12 474.5,-122.12 474.5,-92.12 365.5,-92.12"/>
<text text-anchor="start" x="373.5" y="-110.12" font-family="Helvetica,sans-Serif" font-size="10.00">ExportOpenScadTool</text>
<text text-anchor="middle" x="420" y="-99.12" font-family="Helvetica,sans-Serif" font-size="10.00">::writeDifference</text>
</a>
</g>
</g>
<!-- Node32&#45;&gt;Node33 -->
<g id="edge50" class="edge">
<title>Node32&#45;&gt;Node33</title>
<path fill="none" stroke="midnightblue" d="M546.23,-139.67C523,-133.63 496.95,-126.86 474.65,-121.06"/>
<polygon fill="midnightblue" stroke="midnightblue" points="545.43,-143.08 555.99,-142.21 547.19,-136.3 545.43,-143.08"/>
</g>
<!-- Node34 -->
<g id="node34" class="node">
<title>Node34</title>
<g id="a_node34"><a xlink:href="../../d2/d68/class_export_open_scad_tool.html#adc9cf506ecd2ef6e33f37f2eb206da1a" target="_top" xlink:title="Export the meshdifference between mesh and magnets in the openscad format.">
<polygon fill="white" stroke="black" points="357.5,-141.12 357.5,-171.12 482.5,-171.12 482.5,-141.12 357.5,-141.12"/>
<text text-anchor="start" x="365.5" y="-159.12" font-family="Helvetica,sans-Serif" font-size="10.00">ExportOpenScadTool</text>
<text text-anchor="middle" x="420" y="-148.12" font-family="Helvetica,sans-Serif" font-size="10.00">::writeDifferenceMagnets</text>
</a>
</g>
</g>
<!-- Node32&#45;&gt;Node34 -->
<g id="edge52" class="edge">
<title>Node32&#45;&gt;Node34</title>
<path fill="none" stroke="midnightblue" d="M545.85,-156.12C525.44,-156.12 502.89,-156.12 482.63,-156.12"/>
<polygon fill="midnightblue" stroke="midnightblue" points="545.99,-159.62 555.99,-156.12 545.99,-152.62 545.99,-159.62"/>
</g>
<!-- Node33&#45;&gt;Node27 -->
<g id="edge51" class="edge">
<title>Node33&#45;&gt;Node27</title>
<path fill="none" stroke="midnightblue" d="M355.04,-107.12C334.73,-107.12 312.5,-107.12 293.01,-107.12"/>
<polygon fill="midnightblue" stroke="midnightblue" points="355.14,-110.62 365.14,-107.12 355.14,-103.62 355.14,-110.62"/>
</g>
<!-- Node34&#45;&gt;Node27 -->
<g id="edge53" class="edge">
<title>Node34&#45;&gt;Node27</title>
<path fill="none" stroke="midnightblue" d="M354.02,-138.38C334.02,-132.92 312.24,-126.97 293.1,-121.75"/>
<polygon fill="midnightblue" stroke="midnightblue" points="353.11,-141.76 363.68,-141.01 354.95,-135 353.11,-141.76"/>
</g>
<!-- Node36&#45;&gt;Node27 -->
<g id="edge56" class="edge">
<title>Node36&#45;&gt;Node27</title>
<path fill="none" stroke="midnightblue" d="M545.73,-90.28C530.23,-86.89 513.61,-83.84 498,-82.12 429.09,-74.48 410.84,-73.84 342,-82.12 325.09,-84.15 306.94,-88 290.68,-92.09"/>
<polygon fill="midnightblue" stroke="midnightblue" points="545.22,-93.75 555.74,-92.55 546.76,-86.93 545.22,-93.75"/>
</g>
<!-- Node36&#45;&gt;Node33 -->
<g id="edge57" class="edge">
<title>Node36&#45;&gt;Node33</title>
<path fill="none" stroke="midnightblue" d="M545.91,-107.12C522.77,-107.12 496.85,-107.12 474.65,-107.12"/>
<polygon fill="midnightblue" stroke="midnightblue" points="545.99,-110.62 555.99,-107.12 545.99,-103.62 545.99,-110.62"/>
</g>
<!-- Node36&#45;&gt;Node34 -->
<g id="edge58" class="edge">
<title>Node36&#45;&gt;Node34</title>
<path fill="none" stroke="midnightblue" d="M546.19,-123.57C524.45,-129.22 500.23,-135.52 478.94,-141.05"/>
<polygon fill="midnightblue" stroke="midnightblue" points="547.19,-126.93 555.99,-121.03 545.43,-120.15 547.19,-126.93"/>
</g>
</g>
</svg>
