<?xml version="1.0" encoding="UTF-8" standalone="no"?>
<!DOCTYPE svg PUBLIC "-//W3C//DTD SVG 1.1//EN"
 "http://www.w3.org/Graphics/SVG/1.1/DTD/svg11.dtd">
<!-- Generated by graphviz version 2.44.1 (0)
 -->
<!-- Title: Scene::updateOccupationMapActor Pages: 1 -->
<svg width="513pt" height="391pt"
 viewBox="0.00 0.00 513.00 390.50" xmlns="http://www.w3.org/2000/svg" xmlns:xlink="http://www.w3.org/1999/xlink">
<g id="graph0" class="graph" transform="scale(1 1) rotate(0) translate(4 386.5)">
<title>Scene::updateOccupationMapActor</title>
<polygon fill="white" stroke="transparent" points="-4,4 -4,-386.5 509,-386.5 509,4 -4,4"/>
<!-- Node1 -->
<g id="node1" class="node">
<title>Node1</title>
<g id="a_node1"><a xlink:title="Update the occupation map visualization after changes to the underlying voxel data.">
<polygon fill="#bfbfbf" stroke="black" points="0,-176.5 0,-206.5 148,-206.5 148,-176.5 0,-176.5"/>
<text text-anchor="start" x="8" y="-194.5" font-family="Helvetica,sans-Serif" font-size="10.00">Scene::updateOccupationMap</text>
<text text-anchor="middle" x="74" y="-183.5" font-family="Helvetica,sans-Serif" font-size="10.00">Actor</text>
</a>
</g>
</g>
<!-- Node2 -->
<g id="node2" class="node">
<title>Node2</title>
<g id="a_node2"><a xlink:href="../../d6/db5/class_scene.html#aa52192763d5339a0e7803abe296220c9" target="_top" xlink:title="Return the cuberille visualization of the voxel grid data.">
<polygon fill="white" stroke="black" points="199.5,-363 199.5,-382 324.5,-382 324.5,-363 199.5,-363"/>
<text text-anchor="middle" x="262" y="-370" font-family="Helvetica,sans-Serif" font-size="10.00">Scene::getCuberilleActor</text>
</a>
</g>
</g>
<!-- Node1&#45;&gt;Node2 -->
<g id="edge1" class="edge">
<title>Node1&#45;&gt;Node2</title>
<path fill="none" stroke="midnightblue" d="M80.78,-206.76C93.87,-239.16 128.99,-315.04 184,-353.5 186.85,-355.49 189.89,-357.28 193.05,-358.88"/>
<polygon fill="midnightblue" stroke="midnightblue" points="191.66,-362.09 202.23,-362.91 194.48,-355.68 191.66,-362.09"/>
</g>
<!-- Node3 -->
<g id="node3" class="node">
<title>Node3</title>
<g id="a_node3"><a xlink:href="../../d6/db5/class_scene.html#a7009d25646e9f3a07482091ed2d62e52" target="_top" xlink:title="Return the inner and outer voxels visualization of the voxel grid data.">
<polygon fill="white" stroke="black" points="184,-313.5 184,-343.5 340,-343.5 340,-313.5 184,-313.5"/>
<text text-anchor="start" x="192" y="-331.5" font-family="Helvetica,sans-Serif" font-size="10.00">Scene::getInnerAndOuterVoxels</text>
<text text-anchor="middle" x="262" y="-320.5" font-family="Helvetica,sans-Serif" font-size="10.00">Actor</text>
</a>
</g>
</g>
<!-- Node1&#45;&gt;Node3 -->
<g id="edge2" class="edge">
<title>Node1&#45;&gt;Node3</title>
<path fill="none" stroke="midnightblue" d="M85.6,-206.64C103.27,-230.8 141.08,-278.02 184,-304.5 186.66,-306.14 189.43,-307.67 192.29,-309.11"/>
<polygon fill="midnightblue" stroke="midnightblue" points="191.08,-312.41 201.63,-313.37 193.99,-306.04 191.08,-312.41"/>
</g>
<!-- Node4 -->
<g id="node4" class="node">
<title>Node4</title>
<g id="a_node4"><a xlink:href="../../d6/db5/class_scene.html#a04c9e871c5edc15ca00d736a9cb6c0d0" target="_top" xlink:title="Return the interior voxels only visualization of the voxel grid data.">
<polygon fill="white" stroke="black" points="200.5,-264.5 200.5,-294.5 323.5,-294.5 323.5,-264.5 200.5,-264.5"/>
<text text-anchor="start" x="208.5" y="-282.5" font-family="Helvetica,sans-Serif" font-size="10.00">Scene::getInteriorVoxels</text>
<text text-anchor="middle" x="262" y="-271.5" font-family="Helvetica,sans-Serif" font-size="10.00">Actor</text>
</a>
</g>
</g>
<!-- Node1&#45;&gt;Node4 -->
<g id="edge3" class="edge">
<title>Node1&#45;&gt;Node4</title>
<path fill="none" stroke="midnightblue" d="M98.06,-206.74C119.62,-220.53 153.05,-240.72 184,-254.5 189.06,-256.75 194.38,-258.9 199.76,-260.93"/>
<polygon fill="midnightblue" stroke="midnightblue" points="198.89,-264.34 209.49,-264.44 201.27,-257.75 198.89,-264.34"/>
</g>
<!-- Node5 -->
<g id="node5" class="node">
<title>Node5</title>
<g id="a_node5"><a xlink:href="../../d6/db5/class_scene.html#a0799bb0687ffe3a97e0523a4e700ef2d" target="_top" xlink:title="Return the occupation map visualization.">
<polygon fill="white" stroke="black" points="184.5,-226 184.5,-245 339.5,-245 339.5,-226 184.5,-226"/>
<text text-anchor="middle" x="262" y="-233" font-family="Helvetica,sans-Serif" font-size="10.00">Scene::getOccupationMapActor</text>
</a>
</g>
</g>
<!-- Node1&#45;&gt;Node5 -->
<g id="edge4" class="edge">
<title>Node1&#45;&gt;Node5</title>
<path fill="none" stroke="midnightblue" d="M138.49,-206.52C162.13,-212.11 188.6,-218.37 210.88,-223.64"/>
<polygon fill="midnightblue" stroke="midnightblue" points="210.25,-227.09 220.79,-225.99 211.86,-220.28 210.25,-227.09"/>
</g>
<!-- Node6 -->
<g id="node6" class="node">
<title>Node6</title>
<g id="a_node6"><a xlink:href="../../db/dae/class_voxel_image_visualizer.html#a00b60f629dcc3335bff26934e88b9bcb" target="_top" xlink:title="Return the occupation map visualization (unoccupied = yellow, occupied = blue)">
<polygon fill="white" stroke="black" points="204.5,-176.5 204.5,-206.5 319.5,-206.5 319.5,-176.5 204.5,-176.5"/>
<text text-anchor="start" x="212.5" y="-194.5" font-family="Helvetica,sans-Serif" font-size="10.00">VoxelImageVisualizer</text>
<text text-anchor="middle" x="262" y="-183.5" font-family="Helvetica,sans-Serif" font-size="10.00">::getOccupationOutput</text>
</a>
</g>
</g>
<!-- Node1&#45;&gt;Node6 -->
<g id="edge5" class="edge">
<title>Node1&#45;&gt;Node6</title>
<path fill="none" stroke="midnightblue" d="M148.25,-191.5C163.44,-191.5 179.38,-191.5 194.33,-191.5"/>
<polygon fill="midnightblue" stroke="midnightblue" points="194.5,-195 204.5,-191.5 194.5,-188 194.5,-195"/>
</g>
<!-- Node9 -->
<g id="node9" class="node">
<title>Node9</title>
<g id="a_node9"><a xlink:href="../../d6/db5/class_scene.html#acc5e8dbc84b359afaa7d4ab9b9ef265a" target="_top" xlink:title="Return the working plane actor of the scene.">
<polygon fill="white" stroke="black" points="195,-138 195,-157 329,-157 329,-138 195,-138"/>
<text text-anchor="middle" x="262" y="-145" font-family="Helvetica,sans-Serif" font-size="10.00">Scene::getWorkPlaneActor</text>
</a>
</g>
</g>
<!-- Node1&#45;&gt;Node9 -->
<g id="edge8" class="edge">
<title>Node1&#45;&gt;Node9</title>
<path fill="none" stroke="midnightblue" d="M138.49,-176.48C162.13,-170.89 188.6,-164.63 210.88,-159.36"/>
<polygon fill="midnightblue" stroke="midnightblue" points="211.86,-162.72 220.79,-157.01 210.25,-155.91 211.86,-162.72"/>
</g>
<!-- Node10 -->
<g id="node10" class="node">
<title>Node10</title>
<g id="a_node10"><a xlink:href="../../db/dae/class_voxel_image_visualizer.html#a15634f5a62fd0d71806741d1db033243" target="_top" xlink:title="Set input data of the visualizer.">
<polygon fill="white" stroke="black" points="207,-88.5 207,-118.5 317,-118.5 317,-88.5 207,-88.5"/>
<text text-anchor="start" x="215" y="-106.5" font-family="Helvetica,sans-Serif" font-size="10.00">VoxelImageVisualizer</text>
<text text-anchor="middle" x="262" y="-95.5" font-family="Helvetica,sans-Serif" font-size="10.00">::setInputData</text>
</a>
</g>
</g>
<!-- Node1&#45;&gt;Node10 -->
<g id="edge9" class="edge">
<title>Node1&#45;&gt;Node10</title>
<path fill="none" stroke="midnightblue" d="M98.06,-176.26C119.62,-162.47 153.05,-142.28 184,-128.5 189.06,-126.25 194.38,-124.1 199.76,-122.07"/>
<polygon fill="midnightblue" stroke="midnightblue" points="201.27,-125.25 209.49,-118.56 198.89,-118.66 201.27,-125.25"/>
</g>
<!-- Node11 -->
<g id="node11" class="node">
<title>Node11</title>
<g id="a_node11"><a xlink:href="../../d6/db5/class_scene.html#a36de0362da7ee73ded780390f80caaaa" target="_top" xlink:title="Set the look at vector of the camera.">
<polygon fill="white" stroke="black" points="214.5,-50 214.5,-69 309.5,-69 309.5,-50 214.5,-50"/>
<text text-anchor="middle" x="262" y="-57" font-family="Helvetica,sans-Serif" font-size="10.00">Scene::setLookAt</text>
</a>
</g>
</g>
<!-- Node1&#45;&gt;Node11 -->
<g id="edge10" class="edge">
<title>Node1&#45;&gt;Node11</title>
<path fill="none" stroke="midnightblue" d="M85.14,-176.45C102.44,-151.99 140.07,-103.81 184,-78.5 190.32,-74.86 197.31,-71.92 204.44,-69.53"/>
<polygon fill="midnightblue" stroke="midnightblue" points="205.61,-72.83 214.18,-66.61 203.6,-66.13 205.61,-72.83"/>
</g>
<!-- Node12 -->
<g id="node12" class="node">
<title>Node12</title>
<g id="a_node12"><a xlink:href="../../db/dae/class_voxel_image_visualizer.html#a65eec474a368555a6ba16c1f54e956db" target="_top" xlink:title="Set output size of the visualization.">
<polygon fill="white" stroke="black" points="207,-0.5 207,-30.5 317,-30.5 317,-0.5 207,-0.5"/>
<text text-anchor="start" x="215" y="-18.5" font-family="Helvetica,sans-Serif" font-size="10.00">VoxelImageVisualizer</text>
<text text-anchor="middle" x="262" y="-7.5" font-family="Helvetica,sans-Serif" font-size="10.00">::setOutputSize</text>
</a>
</g>
</g>
<!-- Node1&#45;&gt;Node12 -->
<g id="edge11" class="edge">
<title>Node1&#45;&gt;Node12</title>
<path fill="none" stroke="midnightblue" d="M81.94,-176.19C96.47,-145.81 133.05,-77.63 184,-40.5 188.15,-37.47 192.69,-34.8 197.42,-32.44"/>
<polygon fill="midnightblue" stroke="midnightblue" points="199,-35.57 206.69,-28.29 196.13,-29.18 199,-35.57"/>
</g>
<!-- Node7 -->
<g id="node7" class="node">
<title>Node7</title>
<g id="a_node7"><a xlink:href="../../db/dae/class_voxel_image_visualizer.html#a381e70e9dba0cad1fddf946aa7f4a408" target="_top" xlink:title="Compute scaling factor for visualization actor.">
<polygon fill="white" stroke="black" points="385.5,-198.5 385.5,-228.5 495.5,-228.5 495.5,-198.5 385.5,-198.5"/>
<text text-anchor="start" x="393.5" y="-216.5" font-family="Helvetica,sans-Serif" font-size="10.00">VoxelImageVisualizer</text>
<text text-anchor="middle" x="440.5" y="-205.5" font-family="Helvetica,sans-Serif" font-size="10.00">::getScaleValue</text>
</a>
</g>
</g>
<!-- Node6&#45;&gt;Node7 -->
<g id="edge6" class="edge">
<title>Node6&#45;&gt;Node7</title>
<path fill="none" stroke="midnightblue" d="M319.82,-198.58C337.59,-200.8 357.32,-203.26 375.54,-205.53"/>
<polygon fill="midnightblue" stroke="midnightblue" points="375.14,-209 385.49,-206.77 376,-202.06 375.14,-209"/>
</g>
<!-- Node8 -->
<g id="node8" class="node">
<title>Node8</title>
<g id="a_node8"><a xlink:href="../../db/dae/class_voxel_image_visualizer.html#a2cf2e268d83ea28ea097a557b4e66fcd" target="_top" xlink:title="Compute 1D linearized index from 3D&#45;coodinate index.">
<polygon fill="white" stroke="black" points="376,-160 376,-179 505,-179 505,-160 376,-160"/>
<text text-anchor="middle" x="440.5" y="-167" font-family="Helvetica,sans-Serif" font-size="10.00">VoxelImageVisualizer::idx</text>
</a>
</g>
</g>
<!-- Node6&#45;&gt;Node8 -->
<g id="edge7" class="edge">
<title>Node6&#45;&gt;Node8</title>
<path fill="none" stroke="midnightblue" d="M319.82,-184.42C334.45,-182.59 350.41,-180.61 365.76,-178.69"/>
<polygon fill="midnightblue" stroke="midnightblue" points="366.26,-182.16 375.75,-177.45 365.39,-175.21 366.26,-182.16"/>
</g>
</g>
</svg>
