<?xml version="1.0" encoding="UTF-8" standalone="no"?>
<!DOCTYPE svg PUBLIC "-//W3C//DTD SVG 1.1//EN"
 "http://www.w3.org/Graphics/SVG/1.1/DTD/svg11.dtd">
<!-- Generated by graphviz version 2.44.1 (0)
 -->
<!-- Title: Scene::getLockNeighborVoxels Pages: 1 -->
<svg width="1097pt" height="634pt"
 viewBox="0.00 0.00 1097.00 634.36" xmlns="http://www.w3.org/2000/svg" xmlns:xlink="http://www.w3.org/1999/xlink">
<g id="graph0" class="graph" transform="scale(1 1) rotate(0) translate(4 630.36)">
<title>Scene::getLockNeighborVoxels</title>
<polygon fill="white" stroke="transparent" points="-4,4 -4,-630.36 1093,-630.36 1093,4 -4,4"/>
<!-- Node1 -->
<g id="node1" class="node">
<title>Node1</title>
<g id="a_node1"><a xlink:title="Return if the 26&#45;neighborhood voxels of a connection path are locked too.">
<polygon fill="#bfbfbf" stroke="black" points="936,-338.5 936,-357.5 1089,-357.5 1089,-338.5 936,-338.5"/>
<text text-anchor="middle" x="1012.5" y="-345.5" font-family="Helvetica,sans-Serif" font-size="10.00">Scene::getLockNeighborVoxels</text>
</a>
</g>
</g>
<!-- Node2 -->
<g id="node2" class="node">
<title>Node2</title>
<g id="a_node2"><a xlink:href="../../d9/d02/class_optimizer.html#a005ef2bdea59b2a3ac0fa22978add36a" target="_top" xlink:title="Add optimized connections to the touchpoint registry.">
<polygon fill="white" stroke="black" points="554,-414.5 554,-433.5 689,-433.5 689,-414.5 554,-414.5"/>
<text text-anchor="middle" x="621.5" y="-421.5" font-family="Helvetica,sans-Serif" font-size="10.00">Optimizer::addConnections</text>
</a>
</g>
</g>
<!-- Node1&#45;&gt;Node2 -->
<g id="edge1" class="edge">
<title>Node1&#45;&gt;Node2</title>
<path fill="none" stroke="midnightblue" d="M986.59,-362.72C964.6,-374.95 931.28,-391.64 900,-400 829.69,-418.8 746.14,-423.79 689.22,-424.71"/>
<polygon fill="midnightblue" stroke="midnightblue" points="988.59,-365.61 995.56,-357.63 985.14,-359.52 988.59,-365.61"/>
</g>
<!-- Node3 -->
<g id="node3" class="node">
<title>Node3</title>
<g id="a_node3"><a xlink:href="../../da/d4f/class_brute_force_optimizer.html#aa2a4ae05bdd60786dee2cd865a15185e" target="_top" xlink:title=" ">
<polygon fill="white" stroke="black" points="373,-561 373,-591 480,-591 480,-561 373,-561"/>
<text text-anchor="start" x="381" y="-579" font-family="Helvetica,sans-Serif" font-size="10.00">BruteForceOptimizer</text>
<text text-anchor="middle" x="426.5" y="-568" font-family="Helvetica,sans-Serif" font-size="10.00">::optimize</text>
</a>
</g>
</g>
<!-- Node1&#45;&gt;Node3 -->
<g id="edge29" class="edge">
<title>Node1&#45;&gt;Node3</title>
<path fill="none" stroke="midnightblue" d="M1004.23,-367.01C989.97,-401.51 954.85,-474.1 900,-509 767.71,-593.18 572.79,-589.51 480.14,-581.88"/>
<polygon fill="midnightblue" stroke="midnightblue" points="1007.53,-368.19 1007.99,-357.61 1001.03,-365.59 1007.53,-368.19"/>
</g>
<!-- Node4 -->
<g id="node4" class="node">
<title>Node4</title>
<g id="a_node4"><a xlink:href="../../dc/d6d/class_g_a_optimizer.html#a71b18c78d275e4d896826f07b2e01f4b" target="_top" xlink:title=" ">
<polygon fill="white" stroke="black" points="0,-417.5 0,-436.5 116,-436.5 116,-417.5 0,-417.5"/>
<text text-anchor="middle" x="58" y="-424.5" font-family="Helvetica,sans-Serif" font-size="10.00">GAOptimizer::optimize</text>
</a>
</g>
</g>
<!-- Node1&#45;&gt;Node4 -->
<g id="edge30" class="edge">
<title>Node1&#45;&gt;Node4</title>
<path fill="none" stroke="midnightblue" d="M1006.46,-367.84C994.96,-408.96 962.79,-503.77 900,-553 799.64,-631.69 750.03,-626 622.5,-626 622.5,-626 622.5,-626 425.5,-626 264.77,-626 107.19,-476.35 68.17,-436.6"/>
<polygon fill="midnightblue" stroke="midnightblue" points="1009.9,-368.52 1009.11,-357.95 1003.14,-366.71 1009.9,-368.52"/>
</g>
<!-- Node5 -->
<g id="node5" class="node">
<title>Node5</title>
<g id="a_node5"><a xlink:href="../../de/d17/class_great_deluge_optimizer.html#ad0e859eaa1e24d3ba184cb0641972427" target="_top" xlink:title=" ">
<polygon fill="white" stroke="black" points="370,-456 370,-486 483,-486 483,-456 370,-456"/>
<text text-anchor="start" x="378" y="-474" font-family="Helvetica,sans-Serif" font-size="10.00">GreatDelugeOptimizer</text>
<text text-anchor="middle" x="426.5" y="-463" font-family="Helvetica,sans-Serif" font-size="10.00">::optimize</text>
</a>
</g>
</g>
<!-- Node1&#45;&gt;Node5 -->
<g id="edge31" class="edge">
<title>Node1&#45;&gt;Node5</title>
<path fill="none" stroke="midnightblue" d="M991.83,-364.19C970.36,-381.22 934.43,-407.87 900,-425 813.68,-467.94 789.19,-477.69 694,-493 621.69,-504.63 537.3,-493.57 483.18,-483.37"/>
<polygon fill="midnightblue" stroke="midnightblue" points="994.24,-366.75 999.84,-357.75 989.85,-361.29 994.24,-366.75"/>
</g>
<!-- Node6 -->
<g id="node6" class="node">
<title>Node6</title>
<g id="a_node6"><a xlink:href="../../d1/d15/class_hill_climbing_optimizer.html#a4f1754d5bfc6c5e702ee1421ed0cb204" target="_top" xlink:title=" ">
<polygon fill="white" stroke="black" points="371,-167 371,-197 482,-197 482,-167 371,-167"/>
<text text-anchor="start" x="379" y="-185" font-family="Helvetica,sans-Serif" font-size="10.00">HillClimbingOptimizer</text>
<text text-anchor="middle" x="426.5" y="-174" font-family="Helvetica,sans-Serif" font-size="10.00">::optimize</text>
</a>
</g>
</g>
<!-- Node1&#45;&gt;Node6 -->
<g id="edge33" class="edge">
<title>Node1&#45;&gt;Node6</title>
<path fill="none" stroke="midnightblue" d="M998.09,-330.08C978.68,-305.1 940.6,-259.53 900,-230 859,-200.18 743.45,-143.16 694,-132 631.14,-117.81 612.22,-119.5 549,-132 515.43,-138.64 479.49,-154.66 455.48,-166.8"/>
<polygon fill="midnightblue" stroke="midnightblue" points="995.52,-332.47 1004.37,-338.29 1001.08,-328.22 995.52,-332.47"/>
</g>
<!-- Node7 -->
<g id="node7" class="node">
<title>Node7</title>
<g id="a_node7"><a xlink:href="../../d2/d35/class_random_optimizer.html#aa5ce0ce1fb926e31ed56452870a2b9d7" target="_top" xlink:title=" ">
<polygon fill="white" stroke="black" points="357.5,-509.5 357.5,-528.5 495.5,-528.5 495.5,-509.5 357.5,-509.5"/>
<text text-anchor="middle" x="426.5" y="-516.5" font-family="Helvetica,sans-Serif" font-size="10.00">RandomOptimizer::optimize</text>
</a>
</g>
</g>
<!-- Node1&#45;&gt;Node7 -->
<g id="edge35" class="edge">
<title>Node1&#45;&gt;Node7</title>
<path fill="none" stroke="midnightblue" d="M1000.2,-366.32C982.43,-393.42 945.3,-443.72 900,-469 771.42,-540.75 592.43,-536.75 495.84,-527.76"/>
<polygon fill="midnightblue" stroke="midnightblue" points="1003.22,-368.09 1005.65,-357.78 997.32,-364.32 1003.22,-368.09"/>
</g>
<!-- Node8 -->
<g id="node8" class="node">
<title>Node8</title>
<g id="a_node8"><a xlink:href="../../d0/d53/class_simulated_annealing_optimizer.html#a8e1aba518749f6534cdb3155a38af511" target="_top" xlink:title=" ">
<polygon fill="white" stroke="black" points="354,-368 354,-398 499,-398 499,-368 354,-368"/>
<text text-anchor="start" x="362" y="-386" font-family="Helvetica,sans-Serif" font-size="10.00">SimulatedAnnealingOptimizer</text>
<text text-anchor="middle" x="426.5" y="-375" font-family="Helvetica,sans-Serif" font-size="10.00">::optimize</text>
</a>
</g>
</g>
<!-- Node1&#45;&gt;Node8 -->
<g id="edge36" class="edge">
<title>Node1&#45;&gt;Node8</title>
<path fill="none" stroke="midnightblue" d="M925.77,-356.01C917.07,-356.73 908.36,-357.4 900,-358 758.04,-368.12 591.82,-375.99 499.19,-380.02"/>
<polygon fill="midnightblue" stroke="midnightblue" points="926.29,-359.48 935.96,-355.15 925.7,-352.5 926.29,-359.48"/>
</g>
<!-- Node9 -->
<g id="node9" class="node">
<title>Node9</title>
<g id="a_node9"><a xlink:href="../../d0/da8/class_threshold_accepting_optimizer.html#a6dead9a1dffa1d54cb9cc59e80655fb7" target="_top" xlink:title=" ">
<polygon fill="white" stroke="black" points="354,-319 354,-349 499,-349 499,-319 354,-319"/>
<text text-anchor="start" x="362" y="-337" font-family="Helvetica,sans-Serif" font-size="10.00">ThresholdAcceptingOptimizer</text>
<text text-anchor="middle" x="426.5" y="-326" font-family="Helvetica,sans-Serif" font-size="10.00">::optimize</text>
</a>
</g>
</g>
<!-- Node1&#45;&gt;Node9 -->
<g id="edge37" class="edge">
<title>Node1&#45;&gt;Node9</title>
<path fill="none" stroke="midnightblue" d="M925.55,-345.94C810.15,-343.17 607.21,-338.31 499.45,-335.72"/>
<polygon fill="midnightblue" stroke="midnightblue" points="925.67,-349.44 935.75,-346.18 925.84,-342.45 925.67,-349.44"/>
</g>
<!-- Node10 -->
<g id="node10" class="node">
<title>Node10</title>
<g id="a_node10"><a xlink:href="../../d9/d02/class_optimizer.html#a4f2470e3a7450a12d4daa5df86d50ce8" target="_top" xlink:title="computes the total wire length of a wiring">
<polygon fill="white" stroke="black" points="743.5,-240 743.5,-270 886.5,-270 886.5,-240 743.5,-240"/>
<text text-anchor="start" x="751.5" y="-258" font-family="Helvetica,sans-Serif" font-size="10.00">Optimizer::computeTotalWire</text>
<text text-anchor="middle" x="815" y="-247" font-family="Helvetica,sans-Serif" font-size="10.00">Distance</text>
</a>
</g>
</g>
<!-- Node1&#45;&gt;Node10 -->
<g id="edge9" class="edge">
<title>Node1&#45;&gt;Node10</title>
<path fill="none" stroke="midnightblue" d="M982.26,-334.09C946.12,-316.9 884.85,-287.75 847.64,-270.05"/>
<polygon fill="midnightblue" stroke="midnightblue" points="980.78,-337.26 991.31,-338.4 983.79,-330.94 980.78,-337.26"/>
</g>
<!-- Node19 -->
<g id="node19" class="node">
<title>Node19</title>
<g id="a_node19"><a xlink:href="../../de/d52/class_a_star.html#a23dc71dd589a135db676975917279d06" target="_top" xlink:title="Set the voxels defined through the voxel index path vector to value.">
<polygon fill="white" stroke="black" points="770.5,-114.5 770.5,-133.5 859.5,-133.5 859.5,-114.5 770.5,-114.5"/>
<text text-anchor="middle" x="815" y="-121.5" font-family="Helvetica,sans-Serif" font-size="10.00">AStar::markPath</text>
</a>
</g>
</g>
<!-- Node1&#45;&gt;Node19 -->
<g id="edge25" class="edge">
<title>Node1&#45;&gt;Node19</title>
<path fill="none" stroke="midnightblue" d="M1006.16,-328.49C994.16,-288.41 961.22,-196.53 900,-148 888.47,-138.86 873.62,-133.2 859.62,-129.7"/>
<polygon fill="midnightblue" stroke="midnightblue" points="1002.86,-329.7 1008.99,-338.34 1009.59,-327.76 1002.86,-329.7"/>
</g>
<!-- Node20 -->
<g id="node20" class="node">
<title>Node20</title>
<g id="a_node20"><a xlink:href="../../df/dfa/class_autowire_tool.html#a6d3cd96cedca7268da96cb4e478fe2c7" target="_top" xlink:title="Mark voxel grid cells which are occupied by the wiring.">
<polygon fill="white" stroke="black" points="730,-76.5 730,-95.5 900,-95.5 900,-76.5 730,-76.5"/>
<text text-anchor="middle" x="815" y="-83.5" font-family="Helvetica,sans-Serif" font-size="10.00">AutowireTool::markWireOccupation</text>
</a>
</g>
</g>
<!-- Node1&#45;&gt;Node20 -->
<g id="edge26" class="edge">
<title>Node1&#45;&gt;Node20</title>
<path fill="none" stroke="midnightblue" d="M1008.47,-328.23C1000.23,-281.59 972.93,-164.16 900,-105 895.24,-101.14 889.85,-98.03 884.15,-95.52"/>
<polygon fill="midnightblue" stroke="midnightblue" points="1005.04,-328.96 1010.13,-338.25 1011.95,-327.81 1005.04,-328.96"/>
</g>
<!-- Node23 -->
<g id="node23" class="node">
<title>Node23</title>
<g id="a_node23"><a xlink:href="../../da/d20/class_greedy_optimizer.html#ade730f3f396b9464b50e7c5185e6f319" target="_top" xlink:title=" ">
<polygon fill="white" stroke="black" points="748.5,-38.5 748.5,-57.5 881.5,-57.5 881.5,-38.5 748.5,-38.5"/>
<text text-anchor="middle" x="815" y="-45.5" font-family="Helvetica,sans-Serif" font-size="10.00">GreedyOptimizer::optimize</text>
</a>
</g>
</g>
<!-- Node1&#45;&gt;Node23 -->
<g id="edge32" class="edge">
<title>Node1&#45;&gt;Node23</title>
<path fill="none" stroke="midnightblue" d="M1009.83,-328.37C1004.37,-276.94 982.31,-137.42 900,-67 894.66,-62.43 888.45,-58.9 881.87,-56.18"/>
<polygon fill="midnightblue" stroke="midnightblue" points="1006.36,-328.84 1010.81,-338.46 1013.33,-328.17 1006.36,-328.84"/>
</g>
<!-- Node24 -->
<g id="node24" class="node">
<title>Node24</title>
<g id="a_node24"><a xlink:href="../../d0/d4c/class_null_optimizer.html#a1e6bb8c39e5ed279b4adc430738daee2" target="_top" xlink:title=" ">
<polygon fill="white" stroke="black" points="755.5,-0.5 755.5,-19.5 874.5,-19.5 874.5,-0.5 755.5,-0.5"/>
<text text-anchor="middle" x="815" y="-7.5" font-family="Helvetica,sans-Serif" font-size="10.00">NullOptimizer::optimize</text>
</a>
</g>
</g>
<!-- Node1&#45;&gt;Node24 -->
<g id="edge34" class="edge">
<title>Node1&#45;&gt;Node24</title>
<path fill="none" stroke="midnightblue" d="M1010.88,-328.4C1008,-272.46 991.74,-110.85 900,-29 892.86,-22.63 884.04,-18.26 874.83,-15.28"/>
<polygon fill="midnightblue" stroke="midnightblue" points="1007.38,-328.55 1011.31,-338.39 1014.38,-328.25 1007.38,-328.55"/>
</g>
<!-- Node2&#45;&gt;Node3 -->
<g id="edge2" class="edge">
<title>Node2&#45;&gt;Node3</title>
<path fill="none" stroke="midnightblue" d="M556.47,-438.33C553.82,-440.01 551.31,-441.9 549,-444 515.93,-474.13 543.79,-505.55 513,-538 503.61,-547.9 491.17,-555.39 478.71,-560.99"/>
<polygon fill="midnightblue" stroke="midnightblue" points="558.2,-441.37 565.37,-433.58 554.9,-435.2 558.2,-441.37"/>
</g>
<!-- Node2&#45;&gt;Node4 -->
<g id="edge3" class="edge">
<title>Node2&#45;&gt;Node4</title>
<path fill="none" stroke="midnightblue" d="M543.83,-424.41C429.73,-425.02 217.83,-426.15 116.23,-426.69"/>
<polygon fill="midnightblue" stroke="midnightblue" points="543.9,-427.91 553.88,-424.36 543.87,-420.91 543.9,-427.91"/>
</g>
<!-- Node2&#45;&gt;Node5 -->
<g id="edge4" class="edge">
<title>Node2&#45;&gt;Node5</title>
<path fill="none" stroke="midnightblue" d="M571.49,-435.94C544.62,-442.48 511.2,-450.62 483.32,-457.41"/>
<polygon fill="midnightblue" stroke="midnightblue" points="572.56,-439.28 581.44,-433.51 570.9,-432.48 572.56,-439.28"/>
</g>
<!-- Node2&#45;&gt;Node6 -->
<g id="edge5" class="edge">
<title>Node2&#45;&gt;Node6</title>
<path fill="none" stroke="midnightblue" d="M606.23,-406.11C569.77,-360.39 473.65,-239.87 439.64,-197.22"/>
<polygon fill="midnightblue" stroke="midnightblue" points="603.72,-408.58 612.7,-414.21 609.2,-404.21 603.72,-408.58"/>
</g>
<!-- Node2&#45;&gt;Node7 -->
<g id="edge6" class="edge">
<title>Node2&#45;&gt;Node7</title>
<path fill="none" stroke="midnightblue" d="M560.01,-437.54C556.14,-439.42 552.43,-441.56 549,-444 526.11,-460.31 535.97,-479.8 513,-496 504.71,-501.85 495.01,-506.21 485.18,-509.46"/>
<polygon fill="midnightblue" stroke="midnightblue" points="561.44,-440.73 569.27,-433.6 558.7,-434.29 561.44,-440.73"/>
</g>
<!-- Node2&#45;&gt;Node8 -->
<g id="edge7" class="edge">
<title>Node2&#45;&gt;Node8</title>
<path fill="none" stroke="midnightblue" d="M565.75,-412.37C544.84,-407.93 520.69,-402.8 498.48,-398.08"/>
<polygon fill="midnightblue" stroke="midnightblue" points="565.23,-415.84 575.74,-414.49 566.68,-408.99 565.23,-415.84"/>
</g>
<!-- Node2&#45;&gt;Node9 -->
<g id="edge8" class="edge">
<title>Node2&#45;&gt;Node9</title>
<path fill="none" stroke="midnightblue" d="M598.97,-408.68C577.89,-394.24 544.45,-372.82 513,-359 504.65,-355.33 495.6,-352.02 486.63,-349.11"/>
<polygon fill="midnightblue" stroke="midnightblue" points="596.99,-411.57 607.2,-414.39 600.99,-405.81 596.99,-411.57"/>
</g>
<!-- Node11 -->
<g id="node11" class="node">
<title>Node11</title>
<g id="a_node11"><a xlink:href="../../de/d17/class_great_deluge_optimizer.html#ac56ec7a807a73b6d9a588faa1a433885" target="_top" xlink:title="Run the great deluge algorithm.">
<polygon fill="white" stroke="black" points="565,-453 565,-483 678,-483 678,-453 565,-453"/>
<text text-anchor="start" x="573" y="-471" font-family="Helvetica,sans-Serif" font-size="10.00">GreatDelugeOptimizer</text>
<text text-anchor="middle" x="621.5" y="-460" font-family="Helvetica,sans-Serif" font-size="10.00">::greatDeluge</text>
</a>
</g>
</g>
<!-- Node10&#45;&gt;Node11 -->
<g id="edge10" class="edge">
<title>Node10&#45;&gt;Node11</title>
<path fill="none" stroke="midnightblue" d="M804.61,-279.57C788.16,-319.46 750.42,-398.34 694,-443 689.15,-446.84 683.68,-450.11 677.96,-452.89"/>
<polygon fill="midnightblue" stroke="midnightblue" points="807.94,-280.67 808.42,-270.09 801.44,-278.06 807.94,-280.67"/>
</g>
<!-- Node12 -->
<g id="node12" class="node">
<title>Node12</title>
<g id="a_node12"><a xlink:href="../../d1/d15/class_hill_climbing_optimizer.html#a9795a338d707c56b13c72901ae29d5a6" target="_top" xlink:title="Run hill climbing algorithm.">
<polygon fill="white" stroke="black" points="566,-191 566,-221 677,-221 677,-191 566,-191"/>
<text text-anchor="start" x="574" y="-209" font-family="Helvetica,sans-Serif" font-size="10.00">HillClimbingOptimizer</text>
<text text-anchor="middle" x="621.5" y="-198" font-family="Helvetica,sans-Serif" font-size="10.00">::hillClimbing</text>
</a>
</g>
</g>
<!-- Node10&#45;&gt;Node12 -->
<g id="edge12" class="edge">
<title>Node10&#45;&gt;Node12</title>
<path fill="none" stroke="midnightblue" d="M745.46,-237.46C723.05,-231.73 698.47,-225.44 677.23,-220"/>
<polygon fill="midnightblue" stroke="midnightblue" points="744.69,-240.88 755.24,-239.97 746.42,-234.1 744.69,-240.88"/>
</g>
<!-- Node13 -->
<g id="node13" class="node">
<title>Node13</title>
<g id="a_node13"><a xlink:href="../../d1/d15/class_hill_climbing_optimizer.html#ae2de69929faffda3aeb400bde2a5a097" target="_top" xlink:title="Run hill climbing algorithm with random restart.">
<polygon fill="white" stroke="black" points="550.5,-142 550.5,-172 692.5,-172 692.5,-142 550.5,-142"/>
<text text-anchor="start" x="558.5" y="-160" font-family="Helvetica,sans-Serif" font-size="10.00">HillClimbingOptimizer</text>
<text text-anchor="middle" x="621.5" y="-149" font-family="Helvetica,sans-Serif" font-size="10.00">::hillClimbingRandomRestart</text>
</a>
</g>
</g>
<!-- Node10&#45;&gt;Node13 -->
<g id="edge14" class="edge">
<title>Node10&#45;&gt;Node13</title>
<path fill="none" stroke="midnightblue" d="M784.21,-233.96C760.57,-217.93 726.23,-196.1 694,-181 687.12,-177.78 679.69,-174.78 672.31,-172.08"/>
<polygon fill="midnightblue" stroke="midnightblue" points="782.5,-237.03 792.73,-239.8 786.46,-231.26 782.5,-237.03"/>
</g>
<!-- Node14 -->
<g id="node14" class="node">
<title>Node14</title>
<g id="a_node14"><a xlink:href="../../dc/d6d/class_g_a_optimizer.html#a77b17390fe144ff6740cb1ebe7677138" target="_top" xlink:title="Rank individuals corresponding to their fitness value.">
<polygon fill="white" stroke="black" points="549.5,-65.5 549.5,-84.5 693.5,-84.5 693.5,-65.5 549.5,-65.5"/>
<text text-anchor="middle" x="621.5" y="-72.5" font-family="Helvetica,sans-Serif" font-size="10.00">GAOptimizer::rankIndividuals</text>
</a>
</g>
</g>
<!-- Node10&#45;&gt;Node14 -->
<g id="edge16" class="edge">
<title>Node10&#45;&gt;Node14</title>
<path fill="none" stroke="midnightblue" d="M793.18,-232C769.86,-206.64 730.53,-165.05 694,-132 674.46,-114.32 650.2,-95.6 635.55,-84.63"/>
<polygon fill="midnightblue" stroke="midnightblue" points="790.84,-234.62 800.17,-239.63 796,-229.89 790.84,-234.62"/>
</g>
<!-- Node17 -->
<g id="node17" class="node">
<title>Node17</title>
<g id="a_node17"><a xlink:href="../../d0/d53/class_simulated_annealing_optimizer.html#a31a330453c5ed600613d3e2f24dc68e4" target="_top" xlink:title=" ">
<polygon fill="white" stroke="black" points="549,-289 549,-319 694,-319 694,-289 549,-289"/>
<text text-anchor="start" x="557" y="-307" font-family="Helvetica,sans-Serif" font-size="10.00">SimulatedAnnealingOptimizer</text>
<text text-anchor="middle" x="621.5" y="-296" font-family="Helvetica,sans-Serif" font-size="10.00">::simulatedAnnealing</text>
</a>
</g>
</g>
<!-- Node10&#45;&gt;Node17 -->
<g id="edge21" class="edge">
<title>Node10&#45;&gt;Node17</title>
<path fill="none" stroke="midnightblue" d="M745.41,-272.55C724.38,-277.93 701.45,-283.8 681.15,-288.99"/>
<polygon fill="midnightblue" stroke="midnightblue" points="746.42,-275.9 755.24,-270.03 744.69,-269.12 746.42,-275.9"/>
</g>
<!-- Node18 -->
<g id="node18" class="node">
<title>Node18</title>
<g id="a_node18"><a xlink:href="../../d0/da8/class_threshold_accepting_optimizer.html#a06e883e1e27741109d637d3dabc79a03" target="_top" xlink:title="Run the threshold accepting algorithm.">
<polygon fill="white" stroke="black" points="549,-240 549,-270 694,-270 694,-240 549,-240"/>
<text text-anchor="start" x="557" y="-258" font-family="Helvetica,sans-Serif" font-size="10.00">ThresholdAcceptingOptimizer</text>
<text text-anchor="middle" x="621.5" y="-247" font-family="Helvetica,sans-Serif" font-size="10.00">::thresholdAccepting</text>
</a>
</g>
</g>
<!-- Node10&#45;&gt;Node18 -->
<g id="edge23" class="edge">
<title>Node10&#45;&gt;Node18</title>
<path fill="none" stroke="midnightblue" d="M733.01,-255C720.13,-255 706.89,-255 694.25,-255"/>
<polygon fill="midnightblue" stroke="midnightblue" points="733.24,-258.5 743.24,-255 733.24,-251.5 733.24,-258.5"/>
</g>
<!-- Node11&#45;&gt;Node5 -->
<g id="edge11" class="edge">
<title>Node11&#45;&gt;Node5</title>
<path fill="none" stroke="midnightblue" d="M554.77,-469.02C531.43,-469.38 505.41,-469.79 483.01,-470.14"/>
<polygon fill="midnightblue" stroke="midnightblue" points="554.99,-472.52 564.94,-468.86 554.88,-465.52 554.99,-472.52"/>
</g>
<!-- Node12&#45;&gt;Node6 -->
<g id="edge13" class="edge">
<title>Node12&#45;&gt;Node6</title>
<path fill="none" stroke="midnightblue" d="M555.92,-197.97C532.02,-195 505.18,-191.66 482.23,-188.81"/>
<polygon fill="midnightblue" stroke="midnightblue" points="555.61,-201.46 565.97,-199.22 556.48,-194.51 555.61,-201.46"/>
</g>
<!-- Node13&#45;&gt;Node6 -->
<g id="edge15" class="edge">
<title>Node13&#45;&gt;Node6</title>
<path fill="none" stroke="midnightblue" d="M540.18,-167.4C520.67,-169.93 500.25,-172.58 482.24,-174.91"/>
<polygon fill="midnightblue" stroke="midnightblue" points="540.81,-170.85 550.28,-166.1 539.91,-163.91 540.81,-170.85"/>
</g>
<!-- Node15 -->
<g id="node15" class="node">
<title>Node15</title>
<g id="a_node15"><a xlink:href="../../dc/d6d/class_g_a_optimizer.html#a37941b6f02ffe5e777f0d3e421158205" target="_top" xlink:title="Generate next population of individuals.">
<polygon fill="white" stroke="black" points="340,-65.5 340,-84.5 513,-84.5 513,-65.5 340,-65.5"/>
<text text-anchor="middle" x="426.5" y="-72.5" font-family="Helvetica,sans-Serif" font-size="10.00">GAOptimizer::createNextPopulation</text>
</a>
</g>
</g>
<!-- Node14&#45;&gt;Node15 -->
<g id="edge17" class="edge">
<title>Node14&#45;&gt;Node15</title>
<path fill="none" stroke="midnightblue" d="M539.37,-75C530.69,-75 521.85,-75 513.12,-75"/>
<polygon fill="midnightblue" stroke="midnightblue" points="539.46,-78.5 549.46,-75 539.46,-71.5 539.46,-78.5"/>
</g>
<!-- Node16 -->
<g id="node16" class="node">
<title>Node16</title>
<g id="a_node16"><a xlink:href="../../dc/d6d/class_g_a_optimizer.html#a8f46197186eebd33cb79cb317722eed9" target="_top" xlink:title="Run the genetic algorithm.">
<polygon fill="white" stroke="black" points="152,-103.5 152,-122.5 304,-122.5 304,-103.5 152,-103.5"/>
<text text-anchor="middle" x="228" y="-110.5" font-family="Helvetica,sans-Serif" font-size="10.00">GAOptimizer::geneticAlgorithm</text>
</a>
</g>
</g>
<!-- Node14&#45;&gt;Node16 -->
<g id="edge20" class="edge">
<title>Node14&#45;&gt;Node16</title>
<path fill="none" stroke="midnightblue" d="M563.18,-86.31C547.01,-89.18 529.36,-92.01 513,-94 442.48,-102.57 361.61,-107.5 304.25,-110.18"/>
<polygon fill="midnightblue" stroke="midnightblue" points="563.82,-89.75 573.04,-84.53 562.57,-82.87 563.82,-89.75"/>
</g>
<!-- Node15&#45;&gt;Node16 -->
<g id="edge18" class="edge">
<title>Node15&#45;&gt;Node16</title>
<path fill="none" stroke="midnightblue" d="M366.09,-86.49C338.05,-91.91 304.98,-98.31 278.35,-103.46"/>
<polygon fill="midnightblue" stroke="midnightblue" points="367.01,-89.88 376.17,-84.54 365.69,-83 367.01,-89.88"/>
</g>
<!-- Node16&#45;&gt;Node4 -->
<g id="edge19" class="edge">
<title>Node16&#45;&gt;Node4</title>
<path fill="none" stroke="midnightblue" d="M216.97,-131.75C185.22,-191.09 87.69,-373.38 64.15,-417.37"/>
<polygon fill="midnightblue" stroke="midnightblue" points="220.16,-133.21 221.79,-122.74 213.98,-129.91 220.16,-133.21"/>
</g>
<!-- Node17&#45;&gt;Node8 -->
<g id="edge22" class="edge">
<title>Node17&#45;&gt;Node8</title>
<path fill="none" stroke="midnightblue" d="M584.73,-324.02C564.17,-335 537.61,-348.31 513,-358 503.93,-361.57 494.15,-364.89 484.56,-367.88"/>
<polygon fill="midnightblue" stroke="midnightblue" points="586.59,-326.99 593.73,-319.16 583.27,-320.83 586.59,-326.99"/>
</g>
<!-- Node18&#45;&gt;Node9 -->
<g id="edge24" class="edge">
<title>Node18&#45;&gt;Node9</title>
<path fill="none" stroke="midnightblue" d="M563.72,-273.47C558.72,-275.28 553.75,-277.13 549,-279 517.64,-291.32 482.68,-307.4 458.34,-318.99"/>
<polygon fill="midnightblue" stroke="midnightblue" points="565.07,-276.71 573.33,-270.08 562.74,-270.11 565.07,-276.71"/>
</g>
<!-- Node21 -->
<g id="node21" class="node">
<title>Node21</title>
<g id="a_node21"><a xlink:href="../../df/dfa/class_autowire_tool.html#a45e5cdff2b089a3594c38021ef5d27a7" target="_top" xlink:title="Add wiring geometry of a connection to the scene (tubes)">
<polygon fill="white" stroke="black" points="549.5,-27.5 549.5,-46.5 693.5,-46.5 693.5,-27.5 549.5,-27.5"/>
<text text-anchor="middle" x="621.5" y="-34.5" font-family="Helvetica,sans-Serif" font-size="10.00">AutowireTool::addConnection</text>
</a>
</g>
</g>
<!-- Node20&#45;&gt;Node21 -->
<g id="edge27" class="edge">
<title>Node20&#45;&gt;Node21</title>
<path fill="none" stroke="midnightblue" d="M758.99,-74.17C749.3,-71.91 739.33,-69.48 730,-67 713.83,-62.71 710.09,-60.59 694,-56 682.76,-52.79 670.48,-49.46 659.31,-46.5"/>
<polygon fill="midnightblue" stroke="midnightblue" points="758.42,-77.63 768.95,-76.46 759.98,-70.81 758.42,-77.63"/>
</g>
<!-- Node22 -->
<g id="node22" class="node">
<title>Node22</title>
<g id="a_node22"><a xlink:href="../../df/dfa/class_autowire_tool.html#a78b35a48395b5502f8c00b373592678b" target="_top" xlink:title="Execute autowiring tool.">
<polygon fill="white" stroke="black" points="370,-27.5 370,-46.5 483,-46.5 483,-27.5 370,-27.5"/>
<text text-anchor="middle" x="426.5" y="-34.5" font-family="Helvetica,sans-Serif" font-size="10.00">AutowireTool::execute</text>
</a>
</g>
</g>
<!-- Node21&#45;&gt;Node22 -->
<g id="edge28" class="edge">
<title>Node21&#45;&gt;Node22</title>
<path fill="none" stroke="midnightblue" d="M539.37,-37C520.49,-37 500.8,-37 483.3,-37"/>
<polygon fill="midnightblue" stroke="midnightblue" points="539.46,-40.5 549.46,-37 539.46,-33.5 539.46,-40.5"/>
</g>
</g>
</svg>
