<?xml version="1.0" encoding="UTF-8" standalone="no"?>
<!DOCTYPE svg PUBLIC "-//W3C//DTD SVG 1.1//EN"
 "http://www.w3.org/Graphics/SVG/1.1/DTD/svg11.dtd">
<!-- Generated by graphviz version 2.44.0 (0)
 -->
<!-- Title: Scene::resetScene Pages: 1 -->
<svg width="668pt" height="769pt"
 viewBox="0.00 0.00 668.00 769.00" xmlns="http://www.w3.org/2000/svg" xmlns:xlink="http://www.w3.org/1999/xlink">
<g id="graph0" class="graph" transform="scale(1 1) rotate(0) translate(4 765)">
<title>Scene::resetScene</title>
<polygon fill="white" stroke="transparent" points="-4,4 -4,-765 664,-765 664,4 -4,4"/>
<!-- Node1 -->
<g id="node1" class="node">
<title>Node1</title>
<g id="a_node1"><a xlink:title="Reset the whole scene and all actors.">
<polygon fill="#bfbfbf" stroke="black" points="0,-370.5 0,-389.5 100,-389.5 100,-370.5 0,-370.5"/>
<text text-anchor="middle" x="50" y="-377.5" font-family="Helvetica,sans-Serif" font-size="10.00">Scene::resetScene</text>
</a>
</g>
</g>
<!-- Node2 -->
<g id="node2" class="node">
<title>Node2</title>
<g id="a_node2"><a xlink:href="../../d9/d58/class_touchpoint.html#a85820150b53ece4c635f7ca5ed189afa" target="_top" xlink:title="Return the graphical representation (vtkActor) of the touchpoint.">
<polygon fill="white" stroke="black" points="171,-741.5 171,-760.5 278,-760.5 278,-741.5 171,-741.5"/>
<text text-anchor="middle" x="224.5" y="-748.5" font-family="Helvetica,sans-Serif" font-size="10.00">Touchpoint::getActor</text>
</a>
</g>
</g>
<!-- Node1&#45;&gt;Node2 -->
<g id="edge1" class="edge">
<title>Node1&#45;&gt;Node2</title>
<path fill="none" stroke="midnightblue" d="M51.95,-389.58C57.24,-440.78 84.63,-681.8 136,-732 142.93,-738.77 151.68,-743.37 160.94,-746.46"/>
<polygon fill="midnightblue" stroke="midnightblue" points="160.16,-749.87 170.73,-749.15 162.02,-743.12 160.16,-749.87"/>
</g>
<!-- Node3 -->
<g id="node3" class="node">
<title>Node3</title>
<g id="a_node3"><a xlink:href="../../d2/d00/class_component.html#aac5a0243c215e15529454553e896ca1d" target="_top" xlink:title="Return the vtkActor (graphical representation) of the component.">
<polygon fill="white" stroke="black" points="144.5,-703.5 144.5,-722.5 304.5,-722.5 304.5,-703.5 144.5,-703.5"/>
<text text-anchor="middle" x="224.5" y="-710.5" font-family="Helvetica,sans-Serif" font-size="10.00">Component::getComponentActor</text>
</a>
</g>
</g>
<!-- Node1&#45;&gt;Node3 -->
<g id="edge2" class="edge">
<title>Node1&#45;&gt;Node3</title>
<path fill="none" stroke="midnightblue" d="M52.28,-389.79C58.78,-438.04 89.65,-649.93 136,-694 137.48,-695.41 139.04,-696.72 140.66,-697.94"/>
<polygon fill="midnightblue" stroke="midnightblue" points="138.95,-701 149.28,-703.35 142.67,-695.07 138.95,-701"/>
</g>
<!-- Node4 -->
<g id="node4" class="node">
<title>Node4</title>
<g id="a_node4"><a xlink:href="../../dd/d10/class_connection.html#a96ce1fa7643d6de71dd728e0d9c2ead0" target="_top" xlink:title="Return the graphical representation (vtkActor) of the connection geometry.">
<polygon fill="white" stroke="black" points="157,-654 157,-684 292,-684 292,-654 157,-654"/>
<text text-anchor="start" x="165" y="-672" font-family="Helvetica,sans-Serif" font-size="10.00">Connection::getConnection</text>
<text text-anchor="middle" x="224.5" y="-661" font-family="Helvetica,sans-Serif" font-size="10.00">Actor</text>
</a>
</g>
</g>
<!-- Node1&#45;&gt;Node4 -->
<g id="edge3" class="edge">
<title>Node1&#45;&gt;Node4</title>
<path fill="none" stroke="midnightblue" d="M51.01,-389.62C51.61,-427.96 59.08,-571.29 136,-645 139.51,-648.36 143.45,-651.27 147.66,-653.77"/>
<polygon fill="midnightblue" stroke="midnightblue" points="146.13,-656.92 156.63,-658.36 149.33,-650.69 146.13,-656.92"/>
</g>
<!-- Node5 -->
<g id="node5" class="node">
<title>Node5</title>
<g id="a_node5"><a xlink:href="../../d9/d58/class_touchpoint.html#a1b683bc69ad347a1fe886aa3161e76b3" target="_top" xlink:title="Return the graphical representation (vtkActor) of the outside wiring entry point.">
<polygon fill="white" stroke="black" points="158,-605 158,-635 291,-635 291,-605 158,-605"/>
<text text-anchor="start" x="166" y="-623" font-family="Helvetica,sans-Serif" font-size="10.00">Touchpoint::getConnection</text>
<text text-anchor="middle" x="224.5" y="-612" font-family="Helvetica,sans-Serif" font-size="10.00">PointActor</text>
</a>
</g>
</g>
<!-- Node1&#45;&gt;Node5 -->
<g id="edge4" class="edge">
<title>Node1&#45;&gt;Node5</title>
<path fill="none" stroke="midnightblue" d="M51.87,-389.84C55.41,-423.74 71.76,-536.78 136,-595 139.85,-598.49 144.16,-601.5 148.74,-604.09"/>
<polygon fill="midnightblue" stroke="midnightblue" points="147.33,-607.29 157.84,-608.57 150.42,-601.01 147.33,-607.29"/>
</g>
<!-- Node6 -->
<g id="node6" class="node">
<title>Node6</title>
<g id="a_node6"><a xlink:href="../../dd/d10/class_connection.html#a6dfa62a677e8a374e02559892853b4d9" target="_top" xlink:title="Return the graphical line representation object (vtkActor) of the connection.">
<polygon fill="white" stroke="black" points="161,-566.5 161,-585.5 288,-585.5 288,-566.5 161,-566.5"/>
<text text-anchor="middle" x="224.5" y="-573.5" font-family="Helvetica,sans-Serif" font-size="10.00">Connection::getLineActor</text>
</a>
</g>
</g>
<!-- Node1&#45;&gt;Node6 -->
<g id="edge5" class="edge">
<title>Node1&#45;&gt;Node6</title>
<path fill="none" stroke="midnightblue" d="M52.64,-389.92C58.21,-420.22 79.29,-512.21 136,-557 140.61,-560.64 145.77,-563.62 151.21,-566.06"/>
<polygon fill="midnightblue" stroke="midnightblue" points="150,-569.34 160.59,-569.66 152.51,-562.81 150,-569.34"/>
</g>
<!-- Node7 -->
<g id="node7" class="node">
<title>Node7</title>
<g id="a_node7"><a xlink:href="../../d9/d58/class_touchpoint.html#ab61727c9bb477bccca373f92a2b8bea4" target="_top" xlink:title="Return the touchpoint number label text actor.">
<polygon fill="white" stroke="black" points="162,-528.5 162,-547.5 287,-547.5 287,-528.5 162,-528.5"/>
<text text-anchor="middle" x="224.5" y="-535.5" font-family="Helvetica,sans-Serif" font-size="10.00">Touchpoint::getTextActor</text>
</a>
</g>
</g>
<!-- Node1&#45;&gt;Node7 -->
<g id="edge6" class="edge">
<title>Node1&#45;&gt;Node7</title>
<path fill="none" stroke="midnightblue" d="M53.9,-389.6C62.15,-415.13 88.27,-485.08 136,-519 140.95,-522.52 146.43,-525.41 152.16,-527.77"/>
<polygon fill="midnightblue" stroke="midnightblue" points="151.4,-531.22 161.99,-531.28 153.75,-524.62 151.4,-531.22"/>
</g>
<!-- Node8 -->
<g id="node8" class="node">
<title>Node8</title>
<g id="a_node8"><a xlink:href="../../d9/d58/class_touchpoint.html#ae06d7b971e13790fab04d7f40b5b89ef" target="_top" xlink:title="Set touchpoint actor.">
<polygon fill="white" stroke="black" points="171,-490.5 171,-509.5 278,-509.5 278,-490.5 171,-490.5"/>
<text text-anchor="middle" x="224.5" y="-497.5" font-family="Helvetica,sans-Serif" font-size="10.00">Touchpoint::setActor</text>
</a>
</g>
</g>
<!-- Node1&#45;&gt;Node8 -->
<g id="edge7" class="edge">
<title>Node1&#45;&gt;Node8</title>
<path fill="none" stroke="midnightblue" d="M56.13,-389.6C67.54,-409.97 97.14,-457.57 136,-481 143.64,-485.61 152.25,-489.1 161.02,-491.75"/>
<polygon fill="midnightblue" stroke="midnightblue" points="160.37,-495.2 170.94,-494.4 162.18,-488.44 160.37,-495.2"/>
</g>
<!-- Node9 -->
<g id="node9" class="node">
<title>Node9</title>
<g id="a_node9"><a xlink:href="../../d2/d00/class_component.html#a6c7a75c38448c91335a9d5e8e7a642e8" target="_top" xlink:title="Set the vtkActor (graphical representation) of the component.">
<polygon fill="white" stroke="black" points="144.5,-452.5 144.5,-471.5 304.5,-471.5 304.5,-452.5 144.5,-452.5"/>
<text text-anchor="middle" x="224.5" y="-459.5" font-family="Helvetica,sans-Serif" font-size="10.00">Component::setComponentActor</text>
</a>
</g>
</g>
<!-- Node1&#45;&gt;Node9 -->
<g id="edge8" class="edge">
<title>Node1&#45;&gt;Node9</title>
<path fill="none" stroke="midnightblue" d="M61.06,-389.75C76.1,-403.74 105.89,-429.34 136,-443 141.44,-445.47 147.22,-447.62 153.12,-449.5"/>
<polygon fill="midnightblue" stroke="midnightblue" points="152.52,-452.98 163.1,-452.42 154.48,-446.26 152.52,-452.98"/>
</g>
<!-- Node10 -->
<g id="node10" class="node">
<title>Node10</title>
<g id="a_node10"><a xlink:href="../../d2/d00/class_component.html#a4362543642e8414b013f4e148badc65c" target="_top" xlink:title="Set the vtkPolyData (geometry) of the component.">
<polygon fill="white" stroke="black" points="136,-414.5 136,-433.5 313,-433.5 313,-414.5 136,-414.5"/>
<text text-anchor="middle" x="224.5" y="-421.5" font-family="Helvetica,sans-Serif" font-size="10.00">Component::setComponentPolyData</text>
</a>
</g>
</g>
<!-- Node1&#45;&gt;Node10 -->
<g id="edge9" class="edge">
<title>Node1&#45;&gt;Node10</title>
<path fill="none" stroke="midnightblue" d="M81.54,-389.56C97.66,-394.46 117.82,-400.36 136,-405 145.83,-407.51 156.33,-409.97 166.53,-412.25"/>
<polygon fill="midnightblue" stroke="midnightblue" points="166.06,-415.73 176.58,-414.47 167.57,-408.9 166.06,-415.73"/>
</g>
<!-- Node11 -->
<g id="node11" class="node">
<title>Node11</title>
<g id="a_node11"><a xlink:href="../../dd/d10/class_connection.html#a24be5fb6fd21b1b0bbc9853b8075f9f4" target="_top" xlink:title="Set the graphical representation (vtkActor) of the connection geometry.">
<polygon fill="white" stroke="black" points="157,-365 157,-395 292,-395 292,-365 157,-365"/>
<text text-anchor="start" x="165" y="-383" font-family="Helvetica,sans-Serif" font-size="10.00">Connection::setConnection</text>
<text text-anchor="middle" x="224.5" y="-372" font-family="Helvetica,sans-Serif" font-size="10.00">Actor</text>
</a>
</g>
</g>
<!-- Node1&#45;&gt;Node11 -->
<g id="edge10" class="edge">
<title>Node1&#45;&gt;Node11</title>
<path fill="none" stroke="midnightblue" d="M100.43,-380C114.81,-380 130.86,-380 146.5,-380"/>
<polygon fill="midnightblue" stroke="midnightblue" points="146.7,-383.5 156.7,-380 146.7,-376.5 146.7,-383.5"/>
</g>
<!-- Node12 -->
<g id="node12" class="node">
<title>Node12</title>
<g id="a_node12"><a xlink:href="../../d9/d58/class_touchpoint.html#af3e0979fc1385955c5aae51968555dd3" target="_top" xlink:title="Set the actor of the connection point.">
<polygon fill="white" stroke="black" points="158,-316 158,-346 291,-346 291,-316 158,-316"/>
<text text-anchor="start" x="166" y="-334" font-family="Helvetica,sans-Serif" font-size="10.00">Touchpoint::setConnection</text>
<text text-anchor="middle" x="224.5" y="-323" font-family="Helvetica,sans-Serif" font-size="10.00">PointActor</text>
</a>
</g>
</g>
<!-- Node1&#45;&gt;Node12 -->
<g id="edge11" class="edge">
<title>Node1&#45;&gt;Node12</title>
<path fill="none" stroke="midnightblue" d="M84.67,-370.44C106.32,-364.29 135.11,-356.11 160.86,-348.79"/>
<polygon fill="midnightblue" stroke="midnightblue" points="161.9,-352.14 170.56,-346.04 159.99,-345.4 161.9,-352.14"/>
</g>
<!-- Node13 -->
<g id="node13" class="node">
<title>Node13</title>
<g id="a_node13"><a xlink:href="../../dd/d10/class_connection.html#aa53698bb689af2a64f852309c6dbf6c8" target="_top" xlink:title="Set the geometry (vtkPolyData) of the connection.">
<polygon fill="white" stroke="black" points="157,-267 157,-297 292,-297 292,-267 157,-267"/>
<text text-anchor="start" x="165" y="-285" font-family="Helvetica,sans-Serif" font-size="10.00">Connection::setConnection</text>
<text text-anchor="middle" x="224.5" y="-274" font-family="Helvetica,sans-Serif" font-size="10.00">PolyData</text>
</a>
</g>
</g>
<!-- Node1&#45;&gt;Node13 -->
<g id="edge12" class="edge">
<title>Node1&#45;&gt;Node13</title>
<path fill="none" stroke="midnightblue" d="M59.44,-370.46C73.71,-354.92 104.14,-324.15 136,-307 140.21,-304.73 144.65,-302.65 149.21,-300.74"/>
<polygon fill="midnightblue" stroke="midnightblue" points="150.62,-303.95 158.68,-297.07 148.09,-297.42 150.62,-303.95"/>
</g>
<!-- Node14 -->
<g id="node14" class="node">
<title>Node14</title>
<g id="a_node14"><a xlink:href="../../dd/d10/class_connection.html#ab326c063ff3ad8a7261e2893dbe01bb1" target="_top" xlink:title="Set the pointer to the destination connector.">
<polygon fill="white" stroke="black" points="157,-228.5 157,-247.5 292,-247.5 292,-228.5 157,-228.5"/>
<text text-anchor="middle" x="224.5" y="-235.5" font-family="Helvetica,sans-Serif" font-size="10.00">Connection::setDestination</text>
</a>
</g>
</g>
<!-- Node1&#45;&gt;Node14 -->
<g id="edge13" class="edge">
<title>Node1&#45;&gt;Node14</title>
<path fill="none" stroke="midnightblue" d="M54.84,-370.25C64.56,-346.85 92.56,-287.31 136,-258 139.73,-255.48 143.74,-253.28 147.91,-251.35"/>
<polygon fill="midnightblue" stroke="midnightblue" points="149.31,-254.55 157.26,-247.54 146.67,-248.07 149.31,-254.55"/>
</g>
<!-- Node15 -->
<g id="node15" class="node">
<title>Node15</title>
<g id="a_node15"><a xlink:href="../../d2/d00/class_component.html#a5264b94cb1a6daadbd2aad6e4745d812" target="_top" xlink:title="Set the unique id for identification of the component.">
<polygon fill="white" stroke="black" points="176,-190.5 176,-209.5 273,-209.5 273,-190.5 176,-190.5"/>
<text text-anchor="middle" x="224.5" y="-197.5" font-family="Helvetica,sans-Serif" font-size="10.00">Component::setID</text>
</a>
</g>
</g>
<!-- Node1&#45;&gt;Node15 -->
<g id="edge14" class="edge">
<title>Node1&#45;&gt;Node15</title>
<path fill="none" stroke="midnightblue" d="M53.13,-370.16C59.8,-341.76 83.14,-259.14 136,-219 144.72,-212.38 155.27,-207.96 165.97,-205.04"/>
<polygon fill="midnightblue" stroke="midnightblue" points="166.86,-208.43 175.8,-202.75 165.27,-201.61 166.86,-208.43"/>
</g>
<!-- Node16 -->
<g id="node16" class="node">
<title>Node16</title>
<g id="a_node16"><a xlink:href="../../d9/d58/class_touchpoint.html#a20ea5d908fdf70e2698c5f86789e4742" target="_top" xlink:title="Set touchpoint id to given id.">
<polygon fill="white" stroke="black" points="177.5,-152.5 177.5,-171.5 271.5,-171.5 271.5,-152.5 177.5,-152.5"/>
<text text-anchor="middle" x="224.5" y="-159.5" font-family="Helvetica,sans-Serif" font-size="10.00">Touchpoint::setID</text>
</a>
</g>
</g>
<!-- Node1&#45;&gt;Node16 -->
<g id="edge15" class="edge">
<title>Node1&#45;&gt;Node16</title>
<path fill="none" stroke="midnightblue" d="M52.05,-370.28C56.1,-337.84 73.73,-232.44 136,-181 144.9,-173.65 156,-168.96 167.27,-166.02"/>
<polygon fill="midnightblue" stroke="midnightblue" points="168.15,-169.41 177.17,-163.85 166.65,-162.57 168.15,-169.41"/>
</g>
<!-- Node17 -->
<g id="node17" class="node">
<title>Node17</title>
<g id="a_node17"><a xlink:href="../../dd/d10/class_connection.html#ae15a2ee585ad551838dbedc5bf71e22a" target="_top" xlink:title="Set the graphical line representation object (vtkActor)">
<polygon fill="white" stroke="black" points="161,-114.5 161,-133.5 288,-133.5 288,-114.5 161,-114.5"/>
<text text-anchor="middle" x="224.5" y="-121.5" font-family="Helvetica,sans-Serif" font-size="10.00">Connection::setLineActor</text>
</a>
</g>
</g>
<!-- Node1&#45;&gt;Node17 -->
<g id="edge16" class="edge">
<title>Node1&#45;&gt;Node17</title>
<path fill="none" stroke="midnightblue" d="M51.33,-370.04C53.1,-333.52 64.37,-205.84 136,-143 140.57,-138.99 145.78,-135.77 151.33,-133.18"/>
<polygon fill="midnightblue" stroke="midnightblue" points="152.92,-136.31 160.94,-129.39 150.36,-129.8 152.92,-136.31"/>
</g>
<!-- Node18 -->
<g id="node18" class="node">
<title>Node18</title>
<g id="a_node18"><a xlink:href="../../d9/d58/class_touchpoint.html#aa9274369fab341dc277036e07dbfc234" target="_top" xlink:title="Set the polydata of the touchpoint.">
<polygon fill="white" stroke="black" points="162.5,-76.5 162.5,-95.5 286.5,-95.5 286.5,-76.5 162.5,-76.5"/>
<text text-anchor="middle" x="224.5" y="-83.5" font-family="Helvetica,sans-Serif" font-size="10.00">Touchpoint::setPolyData</text>
</a>
</g>
</g>
<!-- Node1&#45;&gt;Node18 -->
<g id="edge17" class="edge">
<title>Node1&#45;&gt;Node18</title>
<path fill="none" stroke="midnightblue" d="M50.77,-370.44C50.38,-331.04 54.44,-179.83 136,-105 141,-100.41 146.84,-96.83 153.09,-94.06"/>
<polygon fill="midnightblue" stroke="midnightblue" points="154.35,-97.32 162.49,-90.54 151.9,-90.77 154.35,-97.32"/>
</g>
<!-- Node21 -->
<g id="node21" class="node">
<title>Node21</title>
<g id="a_node21"><a xlink:href="../../dd/d10/class_connection.html#a6ffa49b4f1ad929605b3562b6c8951b2" target="_top" xlink:title="Set the pointer to the source touchpoint.">
<polygon fill="white" stroke="black" points="166.5,-38.5 166.5,-57.5 282.5,-57.5 282.5,-38.5 166.5,-38.5"/>
<text text-anchor="middle" x="224.5" y="-45.5" font-family="Helvetica,sans-Serif" font-size="10.00">Connection::setSource</text>
</a>
</g>
</g>
<!-- Node1&#45;&gt;Node21 -->
<g id="edge20" class="edge">
<title>Node1&#45;&gt;Node21</title>
<path fill="none" stroke="midnightblue" d="M52.28,-370.24C58.81,-322.14 89.77,-110.92 136,-67 141.93,-61.37 149.12,-57.25 156.8,-54.26"/>
<polygon fill="midnightblue" stroke="midnightblue" points="157.93,-57.57 166.35,-51.14 155.76,-50.91 157.93,-57.57"/>
</g>
<!-- Node22 -->
<g id="node22" class="node">
<title>Node22</title>
<g id="a_node22"><a xlink:href="../../d9/d58/class_touchpoint.html#a27645f8861d2ce10dc9bff4e72549539" target="_top" xlink:title="Set text label touchpoint number actor.">
<polygon fill="white" stroke="black" points="162,-0.5 162,-19.5 287,-19.5 287,-0.5 162,-0.5"/>
<text text-anchor="middle" x="224.5" y="-7.5" font-family="Helvetica,sans-Serif" font-size="10.00">Touchpoint::setTextActor</text>
</a>
</g>
</g>
<!-- Node1&#45;&gt;Node22 -->
<g id="edge21" class="edge">
<title>Node1&#45;&gt;Node22</title>
<path fill="none" stroke="midnightblue" d="M51.96,-370.45C57.27,-319.39 84.75,-79.05 136,-29 140.67,-24.44 146.16,-20.86 152.09,-18.07"/>
<polygon fill="midnightblue" stroke="midnightblue" points="153.65,-21.22 161.68,-14.3 151.1,-14.7 153.65,-21.22"/>
</g>
<!-- Node19 -->
<g id="node19" class="node">
<title>Node19</title>
<g id="a_node19"><a xlink:href="../../d9/d58/class_touchpoint.html#abc86c4002a67fd423b649d597b2055d5" target="_top" xlink:title="Creates the graphical representation (vtkActor) for a touchpoint geometry.">
<polygon fill="white" stroke="black" points="349,-71 349,-101 493,-101 493,-71 349,-71"/>
<text text-anchor="start" x="357" y="-89" font-family="Helvetica,sans-Serif" font-size="10.00">Touchpoint::createTouchpoint</text>
<text text-anchor="middle" x="421" y="-78" font-family="Helvetica,sans-Serif" font-size="10.00">Actor</text>
</a>
</g>
</g>
<!-- Node18&#45;&gt;Node19 -->
<g id="edge18" class="edge">
<title>Node18&#45;&gt;Node19</title>
<path fill="none" stroke="midnightblue" d="M286.51,-86C302.99,-86 321.1,-86 338.51,-86"/>
<polygon fill="midnightblue" stroke="midnightblue" points="338.66,-89.5 348.66,-86 338.66,-82.5 338.66,-89.5"/>
</g>
<!-- Node20 -->
<g id="node20" class="node">
<title>Node20</title>
<g id="a_node20"><a xlink:href="../../d9/d58/class_touchpoint.html#aabec59cfa02cddb2dab4420b3c056df0" target="_top" xlink:title="Return color value for a given touchpoint type.">
<polygon fill="white" stroke="black" points="529,-71 529,-101 660,-101 660,-71 529,-71"/>
<text text-anchor="start" x="537" y="-89" font-family="Helvetica,sans-Serif" font-size="10.00">Touchpoint::getTouchpoint</text>
<text text-anchor="middle" x="594.5" y="-78" font-family="Helvetica,sans-Serif" font-size="10.00">ColorFromType</text>
</a>
</g>
</g>
<!-- Node19&#45;&gt;Node20 -->
<g id="edge19" class="edge">
<title>Node19&#45;&gt;Node20</title>
<path fill="none" stroke="midnightblue" d="M493.24,-86C501.62,-86 510.18,-86 518.6,-86"/>
<polygon fill="midnightblue" stroke="midnightblue" points="518.79,-89.5 528.79,-86 518.79,-82.5 518.79,-89.5"/>
</g>
</g>
</svg>
