<?xml version="1.0" encoding="UTF-8" standalone="no"?>
<!DOCTYPE svg PUBLIC "-//W3C//DTD SVG 1.1//EN"
 "http://www.w3.org/Graphics/SVG/1.1/DTD/svg11.dtd">
<!-- Generated by graphviz version 2.44.0 (0)
 -->
<!-- Title: Scene::getMeshWorldCoordinateBounds Pages: 1 -->
<svg width="1077pt" height="324pt"
 viewBox="0.00 0.00 1077.00 323.50" xmlns="http://www.w3.org/2000/svg" xmlns:xlink="http://www.w3.org/1999/xlink">
<g id="graph0" class="graph" transform="scale(1 1) rotate(0) translate(4 319.5)">
<title>Scene::getMeshWorldCoordinateBounds</title>
<polygon fill="white" stroke="transparent" points="-4,4 -4,-319.5 1073,-319.5 1073,4 -4,4"/>
<!-- Node1 -->
<g id="node1" class="node">
<title>Node1</title>
<g id="a_node1"><a xlink:title="Return the bounds of the mesh in scene coordinates.">
<polygon fill="#bfbfbf" stroke="black" points="909,-83 909,-113 1069,-113 1069,-83 909,-83"/>
<text text-anchor="start" x="917" y="-101" font-family="Helvetica,sans-Serif" font-size="10.00">Scene::getMeshWorldCoordinate</text>
<text text-anchor="middle" x="989" y="-90" font-family="Helvetica,sans-Serif" font-size="10.00">Bounds</text>
</a>
</g>
</g>
<!-- Node2 -->
<g id="node2" class="node">
<title>Node2</title>
<g id="a_node2"><a xlink:href="../../d9/d02/class_optimizer.html#a4f2470e3a7450a12d4daa5df86d50ce8" target="_top" xlink:title="computes the total wire length of a wiring">
<polygon fill="white" stroke="black" points="730,-165 730,-195 873,-195 873,-165 730,-165"/>
<text text-anchor="start" x="738" y="-183" font-family="Helvetica,sans-Serif" font-size="10.00">Optimizer::computeTotalWire</text>
<text text-anchor="middle" x="801.5" y="-172" font-family="Helvetica,sans-Serif" font-size="10.00">Distance</text>
</a>
</g>
</g>
<!-- Node1&#45;&gt;Node2 -->
<g id="edge1" class="edge">
<title>Node1&#45;&gt;Node2</title>
<path fill="none" stroke="midnightblue" d="M950.98,-117.76C928.69,-129.3 899.57,-143.75 873,-155 864.87,-158.44 856.08,-161.82 847.56,-164.92"/>
<polygon fill="midnightblue" stroke="midnightblue" points="952.83,-120.74 960.08,-113.01 949.6,-114.53 952.83,-120.74"/>
</g>
<!-- Node16 -->
<g id="node16" class="node">
<title>Node16</title>
<g id="a_node16"><a xlink:href="../../d0/d4c/class_null_optimizer.html#a1e6bb8c39e5ed279b4adc430738daee2" target="_top" xlink:title=" ">
<polygon fill="white" stroke="black" points="742,-126.5 742,-145.5 861,-145.5 861,-126.5 742,-126.5"/>
<text text-anchor="middle" x="801.5" y="-133.5" font-family="Helvetica,sans-Serif" font-size="10.00">NullOptimizer::optimize</text>
</a>
</g>
</g>
<!-- Node1&#45;&gt;Node16 -->
<g id="edge17" class="edge">
<title>Node1&#45;&gt;Node16</title>
<path fill="none" stroke="midnightblue" d="M904.72,-115.06C885.55,-118.99 865.82,-123.03 848.88,-126.5"/>
<polygon fill="midnightblue" stroke="midnightblue" points="905.59,-118.45 914.69,-113.02 904.19,-111.6 905.59,-118.45"/>
</g>
<!-- Node17 -->
<g id="node17" class="node">
<title>Node17</title>
<g id="a_node17"><a xlink:href="../../da/d20/class_greedy_optimizer.html#ade730f3f396b9464b50e7c5185e6f319" target="_top" xlink:title=" ">
<polygon fill="white" stroke="black" points="735,-88.5 735,-107.5 868,-107.5 868,-88.5 735,-88.5"/>
<text text-anchor="middle" x="801.5" y="-95.5" font-family="Helvetica,sans-Serif" font-size="10.00">GreedyOptimizer::optimize</text>
</a>
</g>
</g>
<!-- Node1&#45;&gt;Node17 -->
<g id="edge18" class="edge">
<title>Node1&#45;&gt;Node17</title>
<path fill="none" stroke="midnightblue" d="M898.55,-98C888.26,-98 877.92,-98 868.04,-98"/>
<polygon fill="midnightblue" stroke="midnightblue" points="898.79,-101.5 908.79,-98 898.79,-94.5 898.79,-101.5"/>
</g>
<!-- Node18 -->
<g id="node18" class="node">
<title>Node18</title>
<g id="a_node18"><a xlink:href="../../da/d4f/class_brute_force_optimizer.html#aa2a4ae05bdd60786dee2cd865a15185e" target="_top" xlink:title=" ">
<polygon fill="white" stroke="black" points="748,-39 748,-69 855,-69 855,-39 748,-39"/>
<text text-anchor="start" x="756" y="-57" font-family="Helvetica,sans-Serif" font-size="10.00">BruteForceOptimizer</text>
<text text-anchor="middle" x="801.5" y="-46" font-family="Helvetica,sans-Serif" font-size="10.00">::optimize</text>
</a>
</g>
</g>
<!-- Node1&#45;&gt;Node18 -->
<g id="edge19" class="edge">
<title>Node1&#45;&gt;Node18</title>
<path fill="none" stroke="midnightblue" d="M914.71,-80.61C894.78,-75.89 873.59,-70.86 855.06,-66.47"/>
<polygon fill="midnightblue" stroke="midnightblue" points="914.14,-84.08 924.68,-82.98 915.76,-77.27 914.14,-84.08"/>
</g>
<!-- Node19 -->
<g id="node19" class="node">
<title>Node19</title>
<g id="a_node19"><a xlink:href="../../d2/d35/class_random_optimizer.html#aa5ce0ce1fb926e31ed56452870a2b9d7" target="_top" xlink:title=" ">
<polygon fill="white" stroke="black" points="732.5,-0.5 732.5,-19.5 870.5,-19.5 870.5,-0.5 732.5,-0.5"/>
<text text-anchor="middle" x="801.5" y="-7.5" font-family="Helvetica,sans-Serif" font-size="10.00">RandomOptimizer::optimize</text>
</a>
</g>
</g>
<!-- Node1&#45;&gt;Node19 -->
<g id="edge20" class="edge">
<title>Node1&#45;&gt;Node19</title>
<path fill="none" stroke="midnightblue" d="M958.48,-77.15C935.94,-62.03 903.65,-42.02 873,-29 864.37,-25.33 854.83,-22.2 845.64,-19.59"/>
<polygon fill="midnightblue" stroke="midnightblue" points="956.68,-80.16 966.91,-82.89 960.61,-74.37 956.68,-80.16"/>
</g>
<!-- Node3 -->
<g id="node3" class="node">
<title>Node3</title>
<g id="a_node3"><a xlink:href="../../de/d17/class_great_deluge_optimizer.html#ac56ec7a807a73b6d9a588faa1a433885" target="_top" xlink:title="Run the great deluge algorithm.">
<polygon fill="white" stroke="black" points="565,-285 565,-315 678,-315 678,-285 565,-285"/>
<text text-anchor="start" x="573" y="-303" font-family="Helvetica,sans-Serif" font-size="10.00">GreatDelugeOptimizer</text>
<text text-anchor="middle" x="621.5" y="-292" font-family="Helvetica,sans-Serif" font-size="10.00">::greatDeluge</text>
</a>
</g>
</g>
<!-- Node2&#45;&gt;Node3 -->
<g id="edge2" class="edge">
<title>Node2&#45;&gt;Node3</title>
<path fill="none" stroke="midnightblue" d="M780.76,-202.5C760.79,-224.03 728.07,-256.09 694,-276 688.23,-279.37 681.93,-282.35 675.53,-284.96"/>
<polygon fill="midnightblue" stroke="midnightblue" points="783.37,-204.83 787.52,-195.08 778.2,-200.11 783.37,-204.83"/>
</g>
<!-- Node5 -->
<g id="node5" class="node">
<title>Node5</title>
<g id="a_node5"><a xlink:href="../../d1/d15/class_hill_climbing_optimizer.html#a9795a338d707c56b13c72901ae29d5a6" target="_top" xlink:title="Run hill climbing algorithm.">
<polygon fill="white" stroke="black" points="566,-236 566,-266 677,-266 677,-236 566,-236"/>
<text text-anchor="start" x="574" y="-254" font-family="Helvetica,sans-Serif" font-size="10.00">HillClimbingOptimizer</text>
<text text-anchor="middle" x="621.5" y="-243" font-family="Helvetica,sans-Serif" font-size="10.00">::hillClimbing</text>
</a>
</g>
</g>
<!-- Node2&#45;&gt;Node5 -->
<g id="edge4" class="edge">
<title>Node2&#45;&gt;Node5</title>
<path fill="none" stroke="midnightblue" d="M758.97,-199.39C739.43,-208.24 715.7,-218.59 694,-227 686.06,-230.08 677.55,-233.14 669.26,-235.99"/>
<polygon fill="midnightblue" stroke="midnightblue" points="760.55,-202.51 768.2,-195.18 757.65,-196.14 760.55,-202.51"/>
</g>
<!-- Node7 -->
<g id="node7" class="node">
<title>Node7</title>
<g id="a_node7"><a xlink:href="../../d1/d15/class_hill_climbing_optimizer.html#ae2de69929faffda3aeb400bde2a5a097" target="_top" xlink:title="Run hill climbing algorithm with random restart.">
<polygon fill="white" stroke="black" points="550.5,-187 550.5,-217 692.5,-217 692.5,-187 550.5,-187"/>
<text text-anchor="start" x="558.5" y="-205" font-family="Helvetica,sans-Serif" font-size="10.00">HillClimbingOptimizer</text>
<text text-anchor="middle" x="621.5" y="-194" font-family="Helvetica,sans-Serif" font-size="10.00">::hillClimbingRandomRestart</text>
</a>
</g>
</g>
<!-- Node2&#45;&gt;Node7 -->
<g id="edge6" class="edge">
<title>Node2&#45;&gt;Node7</title>
<path fill="none" stroke="midnightblue" d="M719.77,-189.98C710.75,-191.09 701.61,-192.22 692.73,-193.32"/>
<polygon fill="midnightblue" stroke="midnightblue" points="720.4,-193.43 729.89,-188.73 719.54,-186.48 720.4,-193.43"/>
</g>
<!-- Node8 -->
<g id="node8" class="node">
<title>Node8</title>
<g id="a_node8"><a xlink:href="../../dc/d6d/class_g_a_optimizer.html#a77b17390fe144ff6740cb1ebe7677138" target="_top" xlink:title="Rank individuals corresponding to their fitness value.">
<polygon fill="white" stroke="black" points="549.5,-148.5 549.5,-167.5 693.5,-167.5 693.5,-148.5 549.5,-148.5"/>
<text text-anchor="middle" x="621.5" y="-155.5" font-family="Helvetica,sans-Serif" font-size="10.00">GAOptimizer::rankIndividuals</text>
</a>
</g>
</g>
<!-- Node2&#45;&gt;Node8 -->
<g id="edge8" class="edge">
<title>Node2&#45;&gt;Node8</title>
<path fill="none" stroke="midnightblue" d="M719.73,-170.02C711.02,-168.94 702.19,-167.85 693.6,-166.79"/>
<polygon fill="midnightblue" stroke="midnightblue" points="719.54,-173.52 729.89,-171.27 720.4,-166.57 719.54,-173.52"/>
</g>
<!-- Node12 -->
<g id="node12" class="node">
<title>Node12</title>
<g id="a_node12"><a xlink:href="../../d0/d53/class_simulated_annealing_optimizer.html#a31a330453c5ed600613d3e2f24dc68e4" target="_top" xlink:title=" ">
<polygon fill="white" stroke="black" points="549,-99 549,-129 694,-129 694,-99 549,-99"/>
<text text-anchor="start" x="557" y="-117" font-family="Helvetica,sans-Serif" font-size="10.00">SimulatedAnnealingOptimizer</text>
<text text-anchor="middle" x="621.5" y="-106" font-family="Helvetica,sans-Serif" font-size="10.00">::simulatedAnnealing</text>
</a>
</g>
</g>
<!-- Node2&#45;&gt;Node12 -->
<g id="edge13" class="edge">
<title>Node2&#45;&gt;Node12</title>
<path fill="none" stroke="midnightblue" d="M746.77,-161.44C741.09,-159.33 735.41,-157.16 730,-155 713.74,-148.51 710.28,-145.45 694,-139 685.44,-135.61 676.22,-132.2 667.33,-129.04"/>
<polygon fill="midnightblue" stroke="midnightblue" points="745.71,-164.77 756.3,-164.92 748.11,-158.2 745.71,-164.77"/>
</g>
<!-- Node14 -->
<g id="node14" class="node">
<title>Node14</title>
<g id="a_node14"><a xlink:href="../../d0/da8/class_threshold_accepting_optimizer.html#a06e883e1e27741109d637d3dabc79a03" target="_top" xlink:title="Run the threshold accepting algorithm.">
<polygon fill="white" stroke="black" points="549,-50 549,-80 694,-80 694,-50 549,-50"/>
<text text-anchor="start" x="557" y="-68" font-family="Helvetica,sans-Serif" font-size="10.00">ThresholdAcceptingOptimizer</text>
<text text-anchor="middle" x="621.5" y="-57" font-family="Helvetica,sans-Serif" font-size="10.00">::thresholdAccepting</text>
</a>
</g>
</g>
<!-- Node2&#45;&gt;Node14 -->
<g id="edge15" class="edge">
<title>Node2&#45;&gt;Node14</title>
<path fill="none" stroke="midnightblue" d="M736.3,-159.76C734.1,-158.28 731.99,-156.7 730,-155 704.58,-133.32 719.61,-110.47 694,-89 689.89,-85.55 685.26,-82.59 680.38,-80.05"/>
<polygon fill="midnightblue" stroke="midnightblue" points="734.79,-162.93 745.19,-164.96 738.32,-156.89 734.79,-162.93"/>
</g>
<!-- Node4 -->
<g id="node4" class="node">
<title>Node4</title>
<g id="a_node4"><a xlink:href="../../de/d17/class_great_deluge_optimizer.html#ad0e859eaa1e24d3ba184cb0641972427" target="_top" xlink:title=" ">
<polygon fill="white" stroke="black" points="370,-285 370,-315 483,-315 483,-285 370,-285"/>
<text text-anchor="start" x="378" y="-303" font-family="Helvetica,sans-Serif" font-size="10.00">GreatDelugeOptimizer</text>
<text text-anchor="middle" x="426.5" y="-292" font-family="Helvetica,sans-Serif" font-size="10.00">::optimize</text>
</a>
</g>
</g>
<!-- Node3&#45;&gt;Node4 -->
<g id="edge3" class="edge">
<title>Node3&#45;&gt;Node4</title>
<path fill="none" stroke="midnightblue" d="M554.77,-300C531.43,-300 505.41,-300 483.01,-300"/>
<polygon fill="midnightblue" stroke="midnightblue" points="554.94,-303.5 564.94,-300 554.94,-296.5 554.94,-303.5"/>
</g>
<!-- Node6 -->
<g id="node6" class="node">
<title>Node6</title>
<g id="a_node6"><a xlink:href="../../d1/d15/class_hill_climbing_optimizer.html#a4f1754d5bfc6c5e702ee1421ed0cb204" target="_top" xlink:title=" ">
<polygon fill="white" stroke="black" points="371,-231 371,-261 482,-261 482,-231 371,-231"/>
<text text-anchor="start" x="379" y="-249" font-family="Helvetica,sans-Serif" font-size="10.00">HillClimbingOptimizer</text>
<text text-anchor="middle" x="426.5" y="-238" font-family="Helvetica,sans-Serif" font-size="10.00">::optimize</text>
</a>
</g>
</g>
<!-- Node5&#45;&gt;Node6 -->
<g id="edge5" class="edge">
<title>Node5&#45;&gt;Node6</title>
<path fill="none" stroke="midnightblue" d="M555.92,-249.33C532.02,-248.71 505.18,-248.01 482.23,-247.42"/>
<polygon fill="midnightblue" stroke="midnightblue" points="555.88,-252.83 565.97,-249.59 556.06,-245.83 555.88,-252.83"/>
</g>
<!-- Node7&#45;&gt;Node6 -->
<g id="edge7" class="edge">
<title>Node7&#45;&gt;Node6</title>
<path fill="none" stroke="midnightblue" d="M544.81,-219.26C523.91,-224.02 501.64,-229.1 482.19,-233.53"/>
<polygon fill="midnightblue" stroke="midnightblue" points="545.65,-222.65 554.62,-217.02 544.09,-215.83 545.65,-222.65"/>
</g>
<!-- Node9 -->
<g id="node9" class="node">
<title>Node9</title>
<g id="a_node9"><a xlink:href="../../dc/d6d/class_g_a_optimizer.html#a37941b6f02ffe5e777f0d3e421158205" target="_top" xlink:title="Generate next population of individuals.">
<polygon fill="white" stroke="black" points="340,-186.5 340,-205.5 513,-205.5 513,-186.5 340,-186.5"/>
<text text-anchor="middle" x="426.5" y="-193.5" font-family="Helvetica,sans-Serif" font-size="10.00">GAOptimizer::createNextPopulation</text>
</a>
</g>
</g>
<!-- Node8&#45;&gt;Node9 -->
<g id="edge9" class="edge">
<title>Node8&#45;&gt;Node9</title>
<path fill="none" stroke="midnightblue" d="M561.9,-169.54C534.37,-174.96 501.95,-181.34 475.85,-186.48"/>
<polygon fill="midnightblue" stroke="midnightblue" points="562.66,-172.95 571.8,-167.59 561.31,-166.09 562.66,-172.95"/>
</g>
<!-- Node10 -->
<g id="node10" class="node">
<title>Node10</title>
<g id="a_node10"><a xlink:href="../../dc/d6d/class_g_a_optimizer.html#a8f46197186eebd33cb79cb317722eed9" target="_top" xlink:title="Run the genetic algorithm.">
<polygon fill="white" stroke="black" points="152,-167.5 152,-186.5 304,-186.5 304,-167.5 152,-167.5"/>
<text text-anchor="middle" x="228" y="-174.5" font-family="Helvetica,sans-Serif" font-size="10.00">GAOptimizer::geneticAlgorithm</text>
</a>
</g>
</g>
<!-- Node8&#45;&gt;Node10 -->
<g id="edge12" class="edge">
<title>Node8&#45;&gt;Node10</title>
<path fill="none" stroke="midnightblue" d="M538.74,-161.97C469.62,-165.32 371.39,-170.09 304.2,-173.35"/>
<polygon fill="midnightblue" stroke="midnightblue" points="539.33,-165.44 549.15,-161.46 538.99,-158.45 539.33,-165.44"/>
</g>
<!-- Node9&#45;&gt;Node10 -->
<g id="edge10" class="edge">
<title>Node9&#45;&gt;Node10</title>
<path fill="none" stroke="midnightblue" d="M329.8,-186.75C321.2,-185.91 312.56,-185.08 304.16,-184.27"/>
<polygon fill="midnightblue" stroke="midnightblue" points="329.59,-190.24 339.88,-187.72 330.27,-183.28 329.59,-190.24"/>
</g>
<!-- Node11 -->
<g id="node11" class="node">
<title>Node11</title>
<g id="a_node11"><a xlink:href="../../dc/d6d/class_g_a_optimizer.html#a71b18c78d275e4d896826f07b2e01f4b" target="_top" xlink:title=" ">
<polygon fill="white" stroke="black" points="0,-167.5 0,-186.5 116,-186.5 116,-167.5 0,-167.5"/>
<text text-anchor="middle" x="58" y="-174.5" font-family="Helvetica,sans-Serif" font-size="10.00">GAOptimizer::optimize</text>
</a>
</g>
</g>
<!-- Node10&#45;&gt;Node11 -->
<g id="edge11" class="edge">
<title>Node10&#45;&gt;Node11</title>
<path fill="none" stroke="midnightblue" d="M141.71,-177C133.07,-177 124.44,-177 116.2,-177"/>
<polygon fill="midnightblue" stroke="midnightblue" points="141.84,-180.5 151.84,-177 141.84,-173.5 141.84,-180.5"/>
</g>
<!-- Node13 -->
<g id="node13" class="node">
<title>Node13</title>
<g id="a_node13"><a xlink:href="../../d0/d53/class_simulated_annealing_optimizer.html#a8e1aba518749f6534cdb3155a38af511" target="_top" xlink:title=" ">
<polygon fill="white" stroke="black" points="354,-99 354,-129 499,-129 499,-99 354,-99"/>
<text text-anchor="start" x="362" y="-117" font-family="Helvetica,sans-Serif" font-size="10.00">SimulatedAnnealingOptimizer</text>
<text text-anchor="middle" x="426.5" y="-106" font-family="Helvetica,sans-Serif" font-size="10.00">::optimize</text>
</a>
</g>
</g>
<!-- Node12&#45;&gt;Node13 -->
<g id="edge14" class="edge">
<title>Node12&#45;&gt;Node13</title>
<path fill="none" stroke="midnightblue" d="M538.54,-114C525.5,-114 512.09,-114 499.3,-114"/>
<polygon fill="midnightblue" stroke="midnightblue" points="538.91,-117.5 548.91,-114 538.91,-110.5 538.91,-117.5"/>
</g>
<!-- Node15 -->
<g id="node15" class="node">
<title>Node15</title>
<g id="a_node15"><a xlink:href="../../d0/da8/class_threshold_accepting_optimizer.html#a6dead9a1dffa1d54cb9cc59e80655fb7" target="_top" xlink:title=" ">
<polygon fill="white" stroke="black" points="354,-50 354,-80 499,-80 499,-50 354,-50"/>
<text text-anchor="start" x="362" y="-68" font-family="Helvetica,sans-Serif" font-size="10.00">ThresholdAcceptingOptimizer</text>
<text text-anchor="middle" x="426.5" y="-57" font-family="Helvetica,sans-Serif" font-size="10.00">::optimize</text>
</a>
</g>
</g>
<!-- Node14&#45;&gt;Node15 -->
<g id="edge16" class="edge">
<title>Node14&#45;&gt;Node15</title>
<path fill="none" stroke="midnightblue" d="M538.54,-65C525.5,-65 512.09,-65 499.3,-65"/>
<polygon fill="midnightblue" stroke="midnightblue" points="538.91,-68.5 548.91,-65 538.91,-61.5 538.91,-68.5"/>
</g>
</g>
</svg>
