<?xml version="1.0" encoding="UTF-8" standalone="no"?>
<!DOCTYPE svg PUBLIC "-//W3C//DTD SVG 1.1//EN"
 "http://www.w3.org/Graphics/SVG/1.1/DTD/svg11.dtd">
<!-- Generated by graphviz version 2.44.0 (0)
 -->
<!-- Title: Scene::updateOccupationMapActor Pages: 1 -->
<svg width="506pt" height="430pt"
 viewBox="0.00 0.00 506.00 429.50" xmlns="http://www.w3.org/2000/svg" xmlns:xlink="http://www.w3.org/1999/xlink">
<g id="graph0" class="graph" transform="scale(1 1) rotate(0) translate(4 425.5)">
<title>Scene::updateOccupationMapActor</title>
<polygon fill="white" stroke="transparent" points="-4,4 -4,-425.5 502,-425.5 502,4 -4,4"/>
<!-- Node1 -->
<g id="node1" class="node">
<title>Node1</title>
<g id="a_node1"><a xlink:title="Update the occupation map visualization after changes to the underlying voxel data.">
<polygon fill="#bfbfbf" stroke="black" points="350,-229 350,-259 498,-259 498,-229 350,-229"/>
<text text-anchor="start" x="358" y="-247" font-family="Helvetica,sans-Serif" font-size="10.00">Scene::updateOccupationMap</text>
<text text-anchor="middle" x="424" y="-236" font-family="Helvetica,sans-Serif" font-size="10.00">Actor</text>
</a>
</g>
</g>
<!-- Node2 -->
<g id="node2" class="node">
<title>Node2</title>
<g id="a_node2"><a xlink:href="../../d1/da7/class_place_ground_plane8_connectors_tool.html#ac6f514739682b173fadccf10f5bc9aab" target="_top" xlink:title=" ">
<polygon fill="white" stroke="black" points="159.5,-391 159.5,-421 312.5,-421 312.5,-391 159.5,-391"/>
<text text-anchor="start" x="167.5" y="-409" font-family="Helvetica,sans-Serif" font-size="10.00">PlaceGroundPlane8Connectors</text>
<text text-anchor="middle" x="236" y="-398" font-family="Helvetica,sans-Serif" font-size="10.00">Tool::execute</text>
</a>
</g>
</g>
<!-- Node1&#45;&gt;Node2 -->
<g id="edge1" class="edge">
<title>Node1&#45;&gt;Node2</title>
<path fill="none" stroke="midnightblue" d="M410.09,-268.14C392.4,-298.97 357.78,-351.91 314,-382 309.04,-385.41 303.57,-388.35 297.91,-390.89"/>
<polygon fill="midnightblue" stroke="midnightblue" points="413.19,-269.77 415.03,-259.34 407.08,-266.35 413.19,-269.77"/>
</g>
<!-- Node3 -->
<g id="node3" class="node">
<title>Node3</title>
<g id="a_node3"><a xlink:href="../../dc/db2/class_place_ground_plane4_connectors_tool.html#a7ae289774f2b51d2daba1215effc4311" target="_top" xlink:title=" ">
<polygon fill="white" stroke="black" points="159.5,-342 159.5,-372 312.5,-372 312.5,-342 159.5,-342"/>
<text text-anchor="start" x="167.5" y="-360" font-family="Helvetica,sans-Serif" font-size="10.00">PlaceGroundPlane4Connectors</text>
<text text-anchor="middle" x="236" y="-349" font-family="Helvetica,sans-Serif" font-size="10.00">Tool::execute</text>
</a>
</g>
</g>
<!-- Node1&#45;&gt;Node3 -->
<g id="edge2" class="edge">
<title>Node1&#45;&gt;Node3</title>
<path fill="none" stroke="midnightblue" d="M400.68,-266.17C379.81,-285.83 346.99,-314.12 314,-332 307.08,-335.75 299.5,-339.06 291.89,-341.93"/>
<polygon fill="midnightblue" stroke="midnightblue" points="403.26,-268.54 408.07,-259.1 398.42,-263.48 403.26,-268.54"/>
</g>
<!-- Node4 -->
<g id="node4" class="node">
<title>Node4</title>
<g id="a_node4"><a xlink:href="../../d9/d00/class_p_s_interface_tool.html#aa26bf20d4e597f64df960e4c1a5c3a69" target="_top" xlink:title=" ">
<polygon fill="white" stroke="black" points="172.5,-303.5 172.5,-322.5 299.5,-322.5 299.5,-303.5 172.5,-303.5"/>
<text text-anchor="middle" x="236" y="-310.5" font-family="Helvetica,sans-Serif" font-size="10.00">PSInterfaceTool::execute</text>
</a>
</g>
</g>
<!-- Node1&#45;&gt;Node4 -->
<g id="edge3" class="edge">
<title>Node1&#45;&gt;Node4</title>
<path fill="none" stroke="midnightblue" d="M384.96,-263.59C364.34,-273.66 338.2,-285.55 314,-294 303.73,-297.59 292.47,-300.77 281.8,-303.45"/>
<polygon fill="midnightblue" stroke="midnightblue" points="386.6,-266.69 394.01,-259.12 383.49,-260.41 386.6,-266.69"/>
</g>
<!-- Node5 -->
<g id="node5" class="node">
<title>Node5</title>
<g id="a_node5"><a xlink:href="../../da/dcb/class_freehand_add_final_point_callback.html#a4a889b08c802e7e81598b8dd8b5e3dad" target="_top" xlink:title="Overwritten callback method, which is executed when the left mouse button is pressed.">
<polygon fill="white" stroke="black" points="158,-254 158,-284 314,-284 314,-254 158,-254"/>
<text text-anchor="start" x="166" y="-272" font-family="Helvetica,sans-Serif" font-size="10.00">FreehandAddFinalPointCallback</text>
<text text-anchor="middle" x="236" y="-261" font-family="Helvetica,sans-Serif" font-size="10.00">::Execute</text>
</a>
</g>
</g>
<!-- Node1&#45;&gt;Node5 -->
<g id="edge4" class="edge">
<title>Node1&#45;&gt;Node5</title>
<path fill="none" stroke="midnightblue" d="M339.8,-255.18C331.27,-256.33 322.62,-257.49 314.16,-258.63"/>
<polygon fill="midnightblue" stroke="midnightblue" points="340.31,-258.65 349.75,-253.84 339.38,-251.71 340.31,-258.65"/>
</g>
<!-- Node6 -->
<g id="node6" class="node">
<title>Node6</title>
<g id="a_node6"><a xlink:href="../../d4/d58/class_polyline_add_final_point_callback.html#aebf2f4ff9236a12c598205822c2949a2" target="_top" xlink:title="Overwritten callback method, which is executed when the left mouse button is pressed for the first ti...">
<polygon fill="white" stroke="black" points="161,-205 161,-235 311,-235 311,-205 161,-205"/>
<text text-anchor="start" x="169" y="-223" font-family="Helvetica,sans-Serif" font-size="10.00">PolylineAddFinalPointCallback</text>
<text text-anchor="middle" x="236" y="-212" font-family="Helvetica,sans-Serif" font-size="10.00">::Execute</text>
</a>
</g>
</g>
<!-- Node1&#45;&gt;Node6 -->
<g id="edge5" class="edge">
<title>Node1&#45;&gt;Node6</title>
<path fill="none" stroke="midnightblue" d="M339.54,-233.23C330.06,-232.01 320.44,-230.77 311.09,-229.56"/>
<polygon fill="midnightblue" stroke="midnightblue" points="339.39,-236.74 349.75,-234.55 340.29,-229.8 339.39,-236.74"/>
</g>
<!-- Node7 -->
<g id="node7" class="node">
<title>Node7</title>
<g id="a_node7"><a xlink:href="../../d1/db5/class_lasso_interactor_style.html#a711994cec6c74643d2bc161ba73daacd" target="_top" xlink:title="Overwritten method, which is executed when the left mouse button is released.">
<polygon fill="white" stroke="black" points="182.5,-156 182.5,-186 289.5,-186 289.5,-156 182.5,-156"/>
<text text-anchor="start" x="190.5" y="-174" font-family="Helvetica,sans-Serif" font-size="10.00">LassoInteractorStyle</text>
<text text-anchor="middle" x="236" y="-163" font-family="Helvetica,sans-Serif" font-size="10.00">::OnLeftButtonUp</text>
</a>
</g>
</g>
<!-- Node1&#45;&gt;Node7 -->
<g id="edge6" class="edge">
<title>Node1&#45;&gt;Node7</title>
<path fill="none" stroke="midnightblue" d="M381.69,-224.63C361.49,-215.46 336.68,-204.65 314,-196 305.07,-192.59 295.45,-189.23 286.14,-186.13"/>
<polygon fill="midnightblue" stroke="midnightblue" points="380.37,-227.88 390.92,-228.85 383.28,-221.51 380.37,-227.88"/>
</g>
<!-- Node8 -->
<g id="node8" class="node">
<title>Node8</title>
<g id="a_node8"><a xlink:href="../../db/dbb/class_picking_interactor_style.html#a1620702107e2c2d0c0aefbd896098b0d" target="_top" xlink:title="Overloaded method, invoked when right mouse button is pressed.">
<polygon fill="white" stroke="black" points="179.5,-107 179.5,-137 292.5,-137 292.5,-107 179.5,-107"/>
<text text-anchor="start" x="187.5" y="-125" font-family="Helvetica,sans-Serif" font-size="10.00">PickingInteractorStyle</text>
<text text-anchor="middle" x="236" y="-114" font-family="Helvetica,sans-Serif" font-size="10.00">::OnRightButtonDown</text>
</a>
</g>
</g>
<!-- Node1&#45;&gt;Node8 -->
<g id="edge7" class="edge">
<title>Node1&#45;&gt;Node8</title>
<path fill="none" stroke="midnightblue" d="M402.78,-221.21C382.33,-199.41 348.84,-166.97 314,-147 307.42,-143.23 300.18,-139.93 292.87,-137.08"/>
<polygon fill="midnightblue" stroke="midnightblue" points="400.35,-223.74 409.7,-228.72 405.5,-218.99 400.35,-223.74"/>
</g>
<!-- Node9 -->
<g id="node9" class="node">
<title>Node9</title>
<g id="a_node9"><a xlink:href="../../d6/db5/class_scene.html#af1128c48ccb6999066aa1d935075cb23" target="_top" xlink:title="Remove a touchpoint from the scene given its unique touchpoint id.">
<polygon fill="white" stroke="black" points="171,-68.5 171,-87.5 301,-87.5 301,-68.5 171,-68.5"/>
<text text-anchor="middle" x="236" y="-75.5" font-family="Helvetica,sans-Serif" font-size="10.00">Scene::removeTouchpoint</text>
</a>
</g>
</g>
<!-- Node1&#45;&gt;Node9 -->
<g id="edge8" class="edge">
<title>Node1&#45;&gt;Node9</title>
<path fill="none" stroke="midnightblue" d="M411.46,-219.64C394.68,-186.89 360.39,-129.18 314,-98 307.47,-93.61 300.02,-90.18 292.4,-87.51"/>
<polygon fill="midnightblue" stroke="midnightblue" points="408.51,-221.56 416.1,-228.94 414.77,-218.43 408.51,-221.56"/>
</g>
<!-- Node10 -->
<g id="node10" class="node">
<title>Node10</title>
<g id="a_node10"><a xlink:href="../../d1/d4e/class_place_touchpoint_tool.html#aa565ccff15d4591dc9c6dee73adfe6e8" target="_top" xlink:title=" ">
<polygon fill="white" stroke="black" points="7.5,-137 7.5,-167 114.5,-167 114.5,-137 7.5,-137"/>
<text text-anchor="start" x="15.5" y="-155" font-family="Helvetica,sans-Serif" font-size="10.00">PlaceTouchpointTool</text>
<text text-anchor="middle" x="61" y="-144" font-family="Helvetica,sans-Serif" font-size="10.00">::undo</text>
</a>
</g>
</g>
<!-- Node9&#45;&gt;Node10 -->
<g id="edge9" class="edge">
<title>Node9&#45;&gt;Node10</title>
<path fill="none" stroke="midnightblue" d="M174.99,-90.78C169.11,-92.86 163.35,-95.25 158,-98 139.47,-107.51 139.89,-117.33 122,-128 116.51,-131.27 110.49,-134.28 104.44,-136.98"/>
<polygon fill="midnightblue" stroke="midnightblue" points="176.49,-93.98 184.93,-87.57 174.34,-87.31 176.49,-93.98"/>
</g>
<!-- Node11 -->
<g id="node11" class="node">
<title>Node11</title>
<g id="a_node11"><a xlink:href="../../de/dd7/class_polyline_touchpoint_tool.html#a9ee474813d977ff7b9877372035a319c" target="_top" xlink:title=" ">
<polygon fill="white" stroke="black" points="3,-88 3,-118 119,-118 119,-88 3,-88"/>
<text text-anchor="start" x="11" y="-106" font-family="Helvetica,sans-Serif" font-size="10.00">PolylineTouchpointTool</text>
<text text-anchor="middle" x="61" y="-95" font-family="Helvetica,sans-Serif" font-size="10.00">::undo</text>
</a>
</g>
</g>
<!-- Node9&#45;&gt;Node11 -->
<g id="edge10" class="edge">
<title>Node9&#45;&gt;Node11</title>
<path fill="none" stroke="midnightblue" d="M160.56,-88.76C146.66,-90.77 132.34,-92.84 119.07,-94.75"/>
<polygon fill="midnightblue" stroke="midnightblue" points="161.18,-92.2 170.58,-87.31 160.18,-85.28 161.18,-92.2"/>
</g>
<!-- Node12 -->
<g id="node12" class="node">
<title>Node12</title>
<g id="a_node12"><a xlink:href="../../de/de0/class_freehand_touchpoint_tool.html#a8c241ab6ea3d7ced711c84036836e885" target="_top" xlink:title=" ">
<polygon fill="white" stroke="black" points="0,-39 0,-69 122,-69 122,-39 0,-39"/>
<text text-anchor="start" x="8" y="-57" font-family="Helvetica,sans-Serif" font-size="10.00">FreehandTouchpointTool</text>
<text text-anchor="middle" x="61" y="-46" font-family="Helvetica,sans-Serif" font-size="10.00">::undo</text>
</a>
</g>
</g>
<!-- Node9&#45;&gt;Node12 -->
<g id="edge11" class="edge">
<title>Node9&#45;&gt;Node12</title>
<path fill="none" stroke="midnightblue" d="M160.43,-67.66C147.65,-65.88 134.52,-64.06 122.18,-62.35"/>
<polygon fill="midnightblue" stroke="midnightblue" points="160.2,-71.16 170.58,-69.06 161.16,-64.22 160.2,-71.16"/>
</g>
<!-- Node13 -->
<g id="node13" class="node">
<title>Node13</title>
<g id="a_node13"><a xlink:href="../../dd/d4a/class_lasso_tool.html#ad4e65963efd59e0802ecb4fbd8d8b288" target="_top" xlink:title=" ">
<polygon fill="white" stroke="black" points="17,-0.5 17,-19.5 105,-19.5 105,-0.5 17,-0.5"/>
<text text-anchor="middle" x="61" y="-7.5" font-family="Helvetica,sans-Serif" font-size="10.00">LassoTool::undo</text>
</a>
</g>
</g>
<!-- Node9&#45;&gt;Node13 -->
<g id="edge12" class="edge">
<title>Node9&#45;&gt;Node13</title>
<path fill="none" stroke="midnightblue" d="M204.57,-64.29C181.97,-54.31 150.31,-40.71 122,-30 112.35,-26.35 101.69,-22.68 92.07,-19.5"/>
<polygon fill="midnightblue" stroke="midnightblue" points="203.4,-67.6 213.96,-68.47 206.24,-61.21 203.4,-67.6"/>
</g>
</g>
</svg>
