<?xml version="1.0" encoding="UTF-8" standalone="no"?>
<!DOCTYPE svg PUBLIC "-//W3C//DTD SVG 1.1//EN"
 "http://www.w3.org/Graphics/SVG/1.1/DTD/svg11.dtd">
<!-- Generated by graphviz version 2.44.0 (0)
 -->
<!-- Title: Scene::removeConnector Pages: 1 -->
<svg width="325pt" height="88pt"
 viewBox="0.00 0.00 325.00 88.00" xmlns="http://www.w3.org/2000/svg" xmlns:xlink="http://www.w3.org/1999/xlink">
<g id="graph0" class="graph" transform="scale(1 1) rotate(0) translate(4 84)">
<title>Scene::removeConnector</title>
<polygon fill="white" stroke="transparent" points="-4,4 -4,-84 321,-84 321,4 -4,4"/>
<!-- Node1 -->
<g id="node1" class="node">
<title>Node1</title>
<g id="a_node1"><a xlink:title="Remvoe a connector from the scene given its unique connector id.">
<polygon fill="#bfbfbf" stroke="black" points="189,-30 189,-49 317,-49 317,-30 189,-30"/>
<text text-anchor="middle" x="253" y="-37" font-family="Helvetica,sans-Serif" font-size="10.00">Scene::removeConnector</text>
</a>
</g>
</g>
<!-- Node2 -->
<g id="node2" class="node">
<title>Node2</title>
<g id="a_node2"><a xlink:href="../../d1/da7/class_place_ground_plane8_connectors_tool.html#a9388811a14ed25cfa2513a210e786523" target="_top" xlink:title=" ">
<polygon fill="white" stroke="black" points="0,-49.5 0,-79.5 153,-79.5 153,-49.5 0,-49.5"/>
<text text-anchor="start" x="8" y="-67.5" font-family="Helvetica,sans-Serif" font-size="10.00">PlaceGroundPlane8Connectors</text>
<text text-anchor="middle" x="76.5" y="-56.5" font-family="Helvetica,sans-Serif" font-size="10.00">Tool::undo</text>
</a>
</g>
</g>
<!-- Node1&#45;&gt;Node2 -->
<g id="edge1" class="edge">
<title>Node1&#45;&gt;Node2</title>
<path fill="none" stroke="midnightblue" d="M178.41,-50.04C170.04,-51.24 161.5,-52.47 153.11,-53.67"/>
<polygon fill="midnightblue" stroke="midnightblue" points="179.11,-53.48 188.51,-48.6 178.11,-46.55 179.11,-53.48"/>
</g>
<!-- Node3 -->
<g id="node3" class="node">
<title>Node3</title>
<g id="a_node3"><a xlink:href="../../dc/db2/class_place_ground_plane4_connectors_tool.html#a1977c6cac0bb721d0db3fc0aec683a21" target="_top" xlink:title=" ">
<polygon fill="white" stroke="black" points="0,-0.5 0,-30.5 153,-30.5 153,-0.5 0,-0.5"/>
<text text-anchor="start" x="8" y="-18.5" font-family="Helvetica,sans-Serif" font-size="10.00">PlaceGroundPlane4Connectors</text>
<text text-anchor="middle" x="76.5" y="-7.5" font-family="Helvetica,sans-Serif" font-size="10.00">Tool::undo</text>
</a>
</g>
</g>
<!-- Node1&#45;&gt;Node3 -->
<g id="edge2" class="edge">
<title>Node1&#45;&gt;Node3</title>
<path fill="none" stroke="midnightblue" d="M178.41,-29.38C170.04,-28.23 161.5,-27.05 153.11,-25.9"/>
<polygon fill="midnightblue" stroke="midnightblue" points="178.12,-32.87 188.51,-30.77 179.08,-25.94 178.12,-32.87"/>
</g>
</g>
</svg>
