<?xml version="1.0" encoding="UTF-8" standalone="no"?>
<!DOCTYPE svg PUBLIC "-//W3C//DTD SVG 1.1//EN"
 "http://www.w3.org/Graphics/SVG/1.1/DTD/svg11.dtd">
<!-- Generated by graphviz version 2.44.1 (0)
 -->
<!-- Title: Scene::getVoxelgridBounds Pages: 1 -->
<svg width="526pt" height="476pt"
 viewBox="0.00 0.00 526.00 475.50" xmlns="http://www.w3.org/2000/svg" xmlns:xlink="http://www.w3.org/1999/xlink">
<g id="graph0" class="graph" transform="scale(1 1) rotate(0) translate(4 471.5)">
<title>Scene::getVoxelgridBounds</title>
<polygon fill="white" stroke="transparent" points="-4,4 -4,-471.5 522,-471.5 522,4 -4,4"/>
<!-- Node1 -->
<g id="node1" class="node">
<title>Node1</title>
<g id="a_node1"><a xlink:title="Return the bounds of the voxel grid.">
<polygon fill="#bfbfbf" stroke="black" points="381,-268 381,-287 518,-287 518,-268 381,-268"/>
<text text-anchor="middle" x="449.5" y="-275" font-family="Helvetica,sans-Serif" font-size="10.00">Scene::getVoxelgridBounds</text>
</a>
</g>
</g>
<!-- Node2 -->
<g id="node2" class="node">
<title>Node2</title>
<g id="a_node2"><a xlink:href="../../d9/d00/class_p_s_interface_tool.html#a55b3f305a7b9ffce3be9ec646ce145a8" target="_top" xlink:title=" ">
<polygon fill="white" stroke="black" points="190.5,-448 190.5,-467 343.5,-467 343.5,-448 190.5,-448"/>
<text text-anchor="middle" x="267" y="-455" font-family="Helvetica,sans-Serif" font-size="10.00">PSInterfaceTool::addConnector</text>
</a>
</g>
</g>
<!-- Node1&#45;&gt;Node2 -->
<g id="edge1" class="edge">
<title>Node1&#45;&gt;Node2</title>
<path fill="none" stroke="midnightblue" d="M440.95,-296.6C426.99,-329.47 394.03,-396.72 345,-433.5 336.6,-439.8 326.51,-444.47 316.45,-447.92"/>
<polygon fill="midnightblue" stroke="midnightblue" points="444.24,-297.8 444.81,-287.22 437.77,-295.14 444.24,-297.8"/>
</g>
<!-- Node3 -->
<g id="node3" class="node">
<title>Node3</title>
<g id="a_node3"><a xlink:href="../../d9/d00/class_p_s_interface_tool.html#aa26bf20d4e597f64df960e4c1a5c3a69" target="_top" xlink:title=" ">
<polygon fill="white" stroke="black" points="13,-429 13,-448 140,-448 140,-429 13,-429"/>
<text text-anchor="middle" x="76.5" y="-436" font-family="Helvetica,sans-Serif" font-size="10.00">PSInterfaceTool::execute</text>
</a>
</g>
</g>
<!-- Node1&#45;&gt;Node3 -->
<g id="edge7" class="edge">
<title>Node1&#45;&gt;Node3</title>
<path fill="none" stroke="midnightblue" d="M438.61,-296.36C422.88,-324.27 389.35,-375.92 345,-400.5 310.85,-419.43 207.96,-429.81 140.2,-434.76"/>
<polygon fill="midnightblue" stroke="midnightblue" points="441.87,-297.7 443.59,-287.25 435.72,-294.35 441.87,-297.7"/>
</g>
<!-- Node4 -->
<g id="node4" class="node">
<title>Node4</title>
<g id="a_node4"><a xlink:href="../../dc/db2/class_place_ground_plane4_connectors_tool.html#a07d60110c5f9b56bf016c68d879f6d80" target="_top" xlink:title="Add connector to touchpoint registry.">
<polygon fill="white" stroke="black" points="190.5,-360.5 190.5,-390.5 343.5,-390.5 343.5,-360.5 190.5,-360.5"/>
<text text-anchor="start" x="198.5" y="-378.5" font-family="Helvetica,sans-Serif" font-size="10.00">PlaceGroundPlane4Connectors</text>
<text text-anchor="middle" x="267" y="-367.5" font-family="Helvetica,sans-Serif" font-size="10.00">Tool::addConnector</text>
</a>
</g>
</g>
<!-- Node1&#45;&gt;Node4 -->
<g id="edge3" class="edge">
<title>Node1&#45;&gt;Node4</title>
<path fill="none" stroke="midnightblue" d="M429.8,-293.7C409.93,-310.21 377.02,-335.58 345,-351.5 338.35,-354.8 331.16,-357.77 323.93,-360.39"/>
<polygon fill="midnightblue" stroke="midnightblue" points="432.09,-296.34 437.48,-287.22 427.58,-290.99 432.09,-296.34"/>
</g>
<!-- Node6 -->
<g id="node6" class="node">
<title>Node6</title>
<g id="a_node6"><a xlink:href="../../d1/da7/class_place_ground_plane8_connectors_tool.html#aaf1c46eccc1ea15dec8c7669c8a97a47" target="_top" xlink:title="Add connector to touchpoint registry.">
<polygon fill="white" stroke="black" points="190.5,-311.5 190.5,-341.5 343.5,-341.5 343.5,-311.5 190.5,-311.5"/>
<text text-anchor="start" x="198.5" y="-329.5" font-family="Helvetica,sans-Serif" font-size="10.00">PlaceGroundPlane8Connectors</text>
<text text-anchor="middle" x="267" y="-318.5" font-family="Helvetica,sans-Serif" font-size="10.00">Tool::addConnector</text>
</a>
</g>
</g>
<!-- Node1&#45;&gt;Node6 -->
<g id="edge5" class="edge">
<title>Node1&#45;&gt;Node6</title>
<path fill="none" stroke="midnightblue" d="M403.6,-289.69C379.32,-296.28 349.12,-304.48 323.39,-311.46"/>
<polygon fill="midnightblue" stroke="midnightblue" points="404.54,-293.06 413.27,-287.06 402.7,-286.31 404.54,-293.06"/>
</g>
<!-- Node8 -->
<g id="node8" class="node">
<title>Node8</title>
<g id="a_node8"><a xlink:href="../../da/dcb/class_freehand_add_final_point_callback.html#a4a889b08c802e7e81598b8dd8b5e3dad" target="_top" xlink:title="Overwritten callback method, which is executed when the left mouse button is pressed.">
<polygon fill="white" stroke="black" points="189,-262.5 189,-292.5 345,-292.5 345,-262.5 189,-262.5"/>
<text text-anchor="start" x="197" y="-280.5" font-family="Helvetica,sans-Serif" font-size="10.00">FreehandAddFinalPointCallback</text>
<text text-anchor="middle" x="267" y="-269.5" font-family="Helvetica,sans-Serif" font-size="10.00">::Execute</text>
</a>
</g>
</g>
<!-- Node1&#45;&gt;Node8 -->
<g id="edge8" class="edge">
<title>Node1&#45;&gt;Node8</title>
<path fill="none" stroke="midnightblue" d="M370.6,-277.5C362.18,-277.5 353.62,-277.5 345.21,-277.5"/>
<polygon fill="midnightblue" stroke="midnightblue" points="370.77,-281 380.77,-277.5 370.77,-274 370.77,-281"/>
</g>
<!-- Node9 -->
<g id="node9" class="node">
<title>Node9</title>
<g id="a_node9"><a xlink:href="../../d4/d58/class_polyline_add_final_point_callback.html#aebf2f4ff9236a12c598205822c2949a2" target="_top" xlink:title="Overwritten callback method, which is executed when the left mouse button is pressed for the first ti...">
<polygon fill="white" stroke="black" points="192,-213.5 192,-243.5 342,-243.5 342,-213.5 192,-213.5"/>
<text text-anchor="start" x="200" y="-231.5" font-family="Helvetica,sans-Serif" font-size="10.00">PolylineAddFinalPointCallback</text>
<text text-anchor="middle" x="267" y="-220.5" font-family="Helvetica,sans-Serif" font-size="10.00">::Execute</text>
</a>
</g>
</g>
<!-- Node1&#45;&gt;Node9 -->
<g id="edge9" class="edge">
<title>Node1&#45;&gt;Node9</title>
<path fill="none" stroke="midnightblue" d="M403.6,-265.31C379.32,-258.72 349.12,-250.52 323.39,-243.54"/>
<polygon fill="midnightblue" stroke="midnightblue" points="402.7,-268.69 413.27,-267.94 404.54,-261.94 402.7,-268.69"/>
</g>
<!-- Node10 -->
<g id="node10" class="node">
<title>Node10</title>
<g id="a_node10"><a xlink:href="../../d1/db5/class_lasso_interactor_style.html#a711994cec6c74643d2bc161ba73daacd" target="_top" xlink:title="Overwritten method, which is executed when the left mouse button is released.">
<polygon fill="white" stroke="black" points="213.5,-164.5 213.5,-194.5 320.5,-194.5 320.5,-164.5 213.5,-164.5"/>
<text text-anchor="start" x="221.5" y="-182.5" font-family="Helvetica,sans-Serif" font-size="10.00">LassoInteractorStyle</text>
<text text-anchor="middle" x="267" y="-171.5" font-family="Helvetica,sans-Serif" font-size="10.00">::OnLeftButtonUp</text>
</a>
</g>
</g>
<!-- Node1&#45;&gt;Node10 -->
<g id="edge10" class="edge">
<title>Node1&#45;&gt;Node10</title>
<path fill="none" stroke="midnightblue" d="M429.45,-261.4C409.49,-245.18 376.69,-220.36 345,-204.5 337.33,-200.66 328.95,-197.23 320.62,-194.24"/>
<polygon fill="midnightblue" stroke="midnightblue" points="427.49,-264.31 437.43,-267.97 431.94,-258.91 427.49,-264.31"/>
</g>
<!-- Node11 -->
<g id="node11" class="node">
<title>Node11</title>
<g id="a_node11"><a xlink:href="../../db/dbb/class_picking_interactor_style.html#a1620702107e2c2d0c0aefbd896098b0d" target="_top" xlink:title="Overloaded method, invoked when right mouse button is pressed.">
<polygon fill="white" stroke="black" points="210.5,-115.5 210.5,-145.5 323.5,-145.5 323.5,-115.5 210.5,-115.5"/>
<text text-anchor="start" x="218.5" y="-133.5" font-family="Helvetica,sans-Serif" font-size="10.00">PickingInteractorStyle</text>
<text text-anchor="middle" x="267" y="-122.5" font-family="Helvetica,sans-Serif" font-size="10.00">::OnRightButtonDown</text>
</a>
</g>
</g>
<!-- Node1&#45;&gt;Node11 -->
<g id="edge11" class="edge">
<title>Node1&#45;&gt;Node11</title>
<path fill="none" stroke="midnightblue" d="M437.83,-259.12C421.31,-232.26 387.02,-182.43 345,-154.5 338.47,-150.16 331.11,-146.57 323.6,-143.61"/>
<polygon fill="midnightblue" stroke="midnightblue" points="434.95,-261.13 443.09,-267.9 440.95,-257.52 434.95,-261.13"/>
</g>
<!-- Node12 -->
<g id="node12" class="node">
<title>Node12</title>
<g id="a_node12"><a xlink:href="../../d6/db5/class_scene.html#af1128c48ccb6999066aa1d935075cb23" target="_top" xlink:title="Remove a touchpoint from the scene given its unique touchpoint id.">
<polygon fill="white" stroke="black" points="202,-77 202,-96 332,-96 332,-77 202,-77"/>
<text text-anchor="middle" x="267" y="-84" font-family="Helvetica,sans-Serif" font-size="10.00">Scene::removeTouchpoint</text>
</a>
</g>
</g>
<!-- Node1&#45;&gt;Node12 -->
<g id="edge12" class="edge">
<title>Node1&#45;&gt;Node12</title>
<path fill="none" stroke="midnightblue" d="M442.45,-258.14C430.18,-222.21 398.88,-145.24 345,-105.5 339.79,-101.66 333.9,-98.59 327.75,-96.13"/>
<polygon fill="midnightblue" stroke="midnightblue" points="439.2,-259.48 445.65,-267.89 445.86,-257.3 439.2,-259.48"/>
</g>
<!-- Node2&#45;&gt;Node3 -->
<g id="edge2" class="edge">
<title>Node2&#45;&gt;Node3</title>
<path fill="none" stroke="midnightblue" d="M180.16,-448.85C166.66,-447.49 152.94,-446.1 140.1,-444.81"/>
<polygon fill="midnightblue" stroke="midnightblue" points="180.12,-452.36 190.42,-449.88 180.82,-445.4 180.12,-452.36"/>
</g>
<!-- Node5 -->
<g id="node5" class="node">
<title>Node5</title>
<g id="a_node5"><a xlink:href="../../dc/db2/class_place_ground_plane4_connectors_tool.html#a7ae289774f2b51d2daba1215effc4311" target="_top" xlink:title=" ">
<polygon fill="white" stroke="black" points="0,-360.5 0,-390.5 153,-390.5 153,-360.5 0,-360.5"/>
<text text-anchor="start" x="8" y="-378.5" font-family="Helvetica,sans-Serif" font-size="10.00">PlaceGroundPlane4Connectors</text>
<text text-anchor="middle" x="76.5" y="-367.5" font-family="Helvetica,sans-Serif" font-size="10.00">Tool::execute</text>
</a>
</g>
</g>
<!-- Node4&#45;&gt;Node5 -->
<g id="edge4" class="edge">
<title>Node4&#45;&gt;Node5</title>
<path fill="none" stroke="midnightblue" d="M180.25,-375.5C171.19,-375.5 162.03,-375.5 153.1,-375.5"/>
<polygon fill="midnightblue" stroke="midnightblue" points="180.42,-379 190.42,-375.5 180.42,-372 180.42,-379"/>
</g>
<!-- Node7 -->
<g id="node7" class="node">
<title>Node7</title>
<g id="a_node7"><a xlink:href="../../d1/da7/class_place_ground_plane8_connectors_tool.html#ac6f514739682b173fadccf10f5bc9aab" target="_top" xlink:title=" ">
<polygon fill="white" stroke="black" points="0,-311.5 0,-341.5 153,-341.5 153,-311.5 0,-311.5"/>
<text text-anchor="start" x="8" y="-329.5" font-family="Helvetica,sans-Serif" font-size="10.00">PlaceGroundPlane8Connectors</text>
<text text-anchor="middle" x="76.5" y="-318.5" font-family="Helvetica,sans-Serif" font-size="10.00">Tool::execute</text>
</a>
</g>
</g>
<!-- Node6&#45;&gt;Node7 -->
<g id="edge6" class="edge">
<title>Node6&#45;&gt;Node7</title>
<path fill="none" stroke="midnightblue" d="M180.25,-326.5C171.19,-326.5 162.03,-326.5 153.1,-326.5"/>
<polygon fill="midnightblue" stroke="midnightblue" points="180.42,-330 190.42,-326.5 180.42,-323 180.42,-330"/>
</g>
<!-- Node13 -->
<g id="node13" class="node">
<title>Node13</title>
<g id="a_node13"><a xlink:href="../../de/de0/class_freehand_touchpoint_tool.html#a8c241ab6ea3d7ced711c84036836e885" target="_top" xlink:title=" ">
<polygon fill="white" stroke="black" points="15.5,-137.5 15.5,-167.5 137.5,-167.5 137.5,-137.5 15.5,-137.5"/>
<text text-anchor="start" x="23.5" y="-155.5" font-family="Helvetica,sans-Serif" font-size="10.00">FreehandTouchpointTool</text>
<text text-anchor="middle" x="76.5" y="-144.5" font-family="Helvetica,sans-Serif" font-size="10.00">::undo</text>
</a>
</g>
</g>
<!-- Node12&#45;&gt;Node13 -->
<g id="edge13" class="edge">
<title>Node12&#45;&gt;Node13</title>
<path fill="none" stroke="midnightblue" d="M207.61,-98.88C201.24,-100.83 194.92,-103.03 189,-105.5 171.69,-112.72 170.01,-119.61 153,-127.5 145.23,-131.1 136.8,-134.42 128.48,-137.39"/>
<polygon fill="midnightblue" stroke="midnightblue" points="208.96,-102.14 217.62,-96.03 207.04,-95.4 208.96,-102.14"/>
</g>
<!-- Node14 -->
<g id="node14" class="node">
<title>Node14</title>
<g id="a_node14"><a xlink:href="../../dd/d4a/class_lasso_tool.html#ad4e65963efd59e0802ecb4fbd8d8b288" target="_top" xlink:title=" ">
<polygon fill="white" stroke="black" points="32.5,-99 32.5,-118 120.5,-118 120.5,-99 32.5,-99"/>
<text text-anchor="middle" x="76.5" y="-106" font-family="Helvetica,sans-Serif" font-size="10.00">LassoTool::undo</text>
</a>
</g>
</g>
<!-- Node12&#45;&gt;Node14 -->
<g id="edge14" class="edge">
<title>Node12&#45;&gt;Node14</title>
<path fill="none" stroke="midnightblue" d="M191.72,-95.17C167.62,-97.98 141.7,-101.01 120.65,-103.46"/>
<polygon fill="midnightblue" stroke="midnightblue" points="192.39,-98.61 201.92,-93.98 191.58,-91.66 192.39,-98.61"/>
</g>
<!-- Node15 -->
<g id="node15" class="node">
<title>Node15</title>
<g id="a_node15"><a xlink:href="../../d1/d4e/class_place_touchpoint_tool.html#aa565ccff15d4591dc9c6dee73adfe6e8" target="_top" xlink:title=" ">
<polygon fill="white" stroke="black" points="23,-49.5 23,-79.5 130,-79.5 130,-49.5 23,-49.5"/>
<text text-anchor="start" x="31" y="-67.5" font-family="Helvetica,sans-Serif" font-size="10.00">PlaceTouchpointTool</text>
<text text-anchor="middle" x="76.5" y="-56.5" font-family="Helvetica,sans-Serif" font-size="10.00">::undo</text>
</a>
</g>
</g>
<!-- Node12&#45;&gt;Node15 -->
<g id="edge15" class="edge">
<title>Node12&#45;&gt;Node15</title>
<path fill="none" stroke="midnightblue" d="M191.91,-77.85C171.27,-75.44 149.27,-72.88 130.14,-70.64"/>
<polygon fill="midnightblue" stroke="midnightblue" points="191.58,-81.34 201.92,-79.02 192.39,-74.39 191.58,-81.34"/>
</g>
<!-- Node16 -->
<g id="node16" class="node">
<title>Node16</title>
<g id="a_node16"><a xlink:href="../../de/dd7/class_polyline_touchpoint_tool.html#a9ee474813d977ff7b9877372035a319c" target="_top" xlink:title=" ">
<polygon fill="white" stroke="black" points="18.5,-0.5 18.5,-30.5 134.5,-30.5 134.5,-0.5 18.5,-0.5"/>
<text text-anchor="start" x="26.5" y="-18.5" font-family="Helvetica,sans-Serif" font-size="10.00">PolylineTouchpointTool</text>
<text text-anchor="middle" x="76.5" y="-7.5" font-family="Helvetica,sans-Serif" font-size="10.00">::undo</text>
</a>
</g>
</g>
<!-- Node12&#45;&gt;Node16 -->
<g id="edge16" class="edge">
<title>Node12&#45;&gt;Node16</title>
<path fill="none" stroke="midnightblue" d="M235.17,-72.83C212.61,-63.03 181.16,-49.81 153,-39.5 144.6,-36.43 135.61,-33.37 126.85,-30.51"/>
<polygon fill="midnightblue" stroke="midnightblue" points="233.99,-76.13 244.56,-76.93 236.79,-69.72 233.99,-76.13"/>
</g>
</g>
</svg>
