<?xml version="1.0" encoding="UTF-8" standalone="no"?>
<!DOCTYPE svg PUBLIC "-//W3C//DTD SVG 1.1//EN"
 "http://www.w3.org/Graphics/SVG/1.1/DTD/svg11.dtd">
<!-- Generated by graphviz version 2.44.1 (0)
 -->
<!-- Title: Scene::showTextActors Pages: 1 -->
<svg width="506pt" height="323pt"
 viewBox="0.00 0.00 506.00 323.00" xmlns="http://www.w3.org/2000/svg" xmlns:xlink="http://www.w3.org/1999/xlink">
<g id="graph0" class="graph" transform="scale(1 1) rotate(0) translate(4 319)">
<title>Scene::showTextActors</title>
<polygon fill="white" stroke="transparent" points="-4,4 -4,-319 502,-319 502,4 -4,4"/>
<!-- Node1 -->
<g id="node1" class="node">
<title>Node1</title>
<g id="a_node1"><a xlink:title="Show the touchpoint / connector number text labels.">
<polygon fill="#bfbfbf" stroke="black" points="377,-172 377,-191 498,-191 498,-172 377,-172"/>
<text text-anchor="middle" x="437.5" y="-179" font-family="Helvetica,sans-Serif" font-size="10.00">Scene::showTextActors</text>
</a>
</g>
</g>
<!-- Node2 -->
<g id="node2" class="node">
<title>Node2</title>
<g id="a_node2"><a xlink:href="../../d6/db5/class_scene.html#aaf27995b84fd1cc55aa2173167f81566" target="_top" xlink:title="Toggle between showing / hiding the touchpoint / connector text labels.">
<polygon fill="white" stroke="black" points="192,-191 192,-210 341,-210 341,-191 192,-191"/>
<text text-anchor="middle" x="266.5" y="-198" font-family="Helvetica,sans-Serif" font-size="10.00">Scene::toggleShowTextActors</text>
</a>
</g>
</g>
<!-- Node1&#45;&gt;Node2 -->
<g id="edge1" class="edge">
<title>Node1&#45;&gt;Node2</title>
<path fill="none" stroke="midnightblue" d="M366.71,-189.35C358.25,-190.3 349.58,-191.27 341.06,-192.23"/>
<polygon fill="midnightblue" stroke="midnightblue" points="367.37,-192.79 376.92,-188.2 366.59,-185.84 367.37,-192.79"/>
</g>
<!-- Node3 -->
<g id="node3" class="node">
<title>Node3</title>
<g id="a_node3"><a xlink:href="../../d6/db5/class_scene.html#aaff4c55f5c640ec8a12b62c5b6c11865" target="_top" xlink:title="Update the touchpoint / connector number text labels.">
<polygon fill="white" stroke="black" points="212.5,-153 212.5,-172 320.5,-172 320.5,-153 212.5,-153"/>
<text text-anchor="middle" x="266.5" y="-160" font-family="Helvetica,sans-Serif" font-size="10.00">Scene::updateLabels</text>
</a>
</g>
</g>
<!-- Node1&#45;&gt;Node3 -->
<g id="edge2" class="edge">
<title>Node1&#45;&gt;Node3</title>
<path fill="none" stroke="midnightblue" d="M366.89,-173.67C351.44,-171.94 335.3,-170.12 320.64,-168.47"/>
<polygon fill="midnightblue" stroke="midnightblue" points="366.59,-177.16 376.92,-174.8 367.37,-170.21 366.59,-177.16"/>
</g>
<!-- Node4 -->
<g id="node4" class="node">
<title>Node4</title>
<g id="a_node4"><a xlink:href="../../d1/da7/class_place_ground_plane8_connectors_tool.html#ac6f514739682b173fadccf10f5bc9aab" target="_top" xlink:title=" ">
<polygon fill="white" stroke="black" points="1.5,-284.5 1.5,-314.5 154.5,-314.5 154.5,-284.5 1.5,-284.5"/>
<text text-anchor="start" x="9.5" y="-302.5" font-family="Helvetica,sans-Serif" font-size="10.00">PlaceGroundPlane8Connectors</text>
<text text-anchor="middle" x="78" y="-291.5" font-family="Helvetica,sans-Serif" font-size="10.00">Tool::execute</text>
</a>
</g>
</g>
<!-- Node3&#45;&gt;Node4 -->
<g id="edge3" class="edge">
<title>Node3&#45;&gt;Node4</title>
<path fill="none" stroke="midnightblue" d="M202.8,-174C198.91,-176.11 195.26,-178.59 192,-181.5 158.63,-211.3 188.62,-244.89 156,-275.5 152.32,-278.95 148.16,-281.9 143.72,-284.43"/>
<polygon fill="midnightblue" stroke="midnightblue" points="204.55,-177.05 212.22,-169.74 201.66,-170.68 204.55,-177.05"/>
</g>
<!-- Node5 -->
<g id="node5" class="node">
<title>Node5</title>
<g id="a_node5"><a xlink:href="../../dc/db2/class_place_ground_plane4_connectors_tool.html#a7ae289774f2b51d2daba1215effc4311" target="_top" xlink:title=" ">
<polygon fill="white" stroke="black" points="1.5,-235.5 1.5,-265.5 154.5,-265.5 154.5,-235.5 1.5,-235.5"/>
<text text-anchor="start" x="9.5" y="-253.5" font-family="Helvetica,sans-Serif" font-size="10.00">PlaceGroundPlane4Connectors</text>
<text text-anchor="middle" x="78" y="-242.5" font-family="Helvetica,sans-Serif" font-size="10.00">Tool::execute</text>
</a>
</g>
</g>
<!-- Node3&#45;&gt;Node5 -->
<g id="edge4" class="edge">
<title>Node3&#45;&gt;Node5</title>
<path fill="none" stroke="midnightblue" d="M202.81,-175.69C199.04,-177.4 195.4,-179.33 192,-181.5 170.71,-195.11 176.86,-211.24 156,-225.5 150.43,-229.31 144.24,-232.56 137.86,-235.35"/>
<polygon fill="midnightblue" stroke="midnightblue" points="204.39,-178.83 212.4,-171.89 201.81,-172.32 204.39,-178.83"/>
</g>
<!-- Node6 -->
<g id="node6" class="node">
<title>Node6</title>
<g id="a_node6"><a xlink:href="../../d9/d00/class_p_s_interface_tool.html#aa26bf20d4e597f64df960e4c1a5c3a69" target="_top" xlink:title=" ">
<polygon fill="white" stroke="black" points="14.5,-197 14.5,-216 141.5,-216 141.5,-197 14.5,-197"/>
<text text-anchor="middle" x="78" y="-204" font-family="Helvetica,sans-Serif" font-size="10.00">PSInterfaceTool::execute</text>
</a>
</g>
</g>
<!-- Node3&#45;&gt;Node6 -->
<g id="edge5" class="edge">
<title>Node3&#45;&gt;Node6</title>
<path fill="none" stroke="midnightblue" d="M215.16,-174.38C185.12,-181.46 147.48,-190.34 119.39,-196.97"/>
<polygon fill="midnightblue" stroke="midnightblue" points="216.1,-177.75 225.03,-172.05 214.5,-170.94 216.1,-177.75"/>
</g>
<!-- Node7 -->
<g id="node7" class="node">
<title>Node7</title>
<g id="a_node7"><a xlink:href="../../da/dcb/class_freehand_add_final_point_callback.html#a4a889b08c802e7e81598b8dd8b5e3dad" target="_top" xlink:title="Overwritten callback method, which is executed when the left mouse button is pressed.">
<polygon fill="white" stroke="black" points="0,-147.5 0,-177.5 156,-177.5 156,-147.5 0,-147.5"/>
<text text-anchor="start" x="8" y="-165.5" font-family="Helvetica,sans-Serif" font-size="10.00">FreehandAddFinalPointCallback</text>
<text text-anchor="middle" x="78" y="-154.5" font-family="Helvetica,sans-Serif" font-size="10.00">::Execute</text>
</a>
</g>
</g>
<!-- Node3&#45;&gt;Node7 -->
<g id="edge6" class="edge">
<title>Node3&#45;&gt;Node7</title>
<path fill="none" stroke="midnightblue" d="M202.27,-162.5C187.49,-162.5 171.58,-162.5 156.26,-162.5"/>
<polygon fill="midnightblue" stroke="midnightblue" points="202.31,-166 212.31,-162.5 202.31,-159 202.31,-166"/>
</g>
<!-- Node8 -->
<g id="node8" class="node">
<title>Node8</title>
<g id="a_node8"><a xlink:href="../../d4/d58/class_polyline_add_final_point_callback.html#aebf2f4ff9236a12c598205822c2949a2" target="_top" xlink:title="Overwritten callback method, which is executed when the left mouse button is pressed for the first ti...">
<polygon fill="white" stroke="black" points="3,-98.5 3,-128.5 153,-128.5 153,-98.5 3,-98.5"/>
<text text-anchor="start" x="11" y="-116.5" font-family="Helvetica,sans-Serif" font-size="10.00">PolylineAddFinalPointCallback</text>
<text text-anchor="middle" x="78" y="-105.5" font-family="Helvetica,sans-Serif" font-size="10.00">::Execute</text>
</a>
</g>
</g>
<!-- Node3&#45;&gt;Node8 -->
<g id="edge7" class="edge">
<title>Node3&#45;&gt;Node8</title>
<path fill="none" stroke="midnightblue" d="M219.1,-150.31C194.02,-143.72 162.82,-135.52 136.23,-128.54"/>
<polygon fill="midnightblue" stroke="midnightblue" points="218.54,-153.78 229.1,-152.94 220.32,-147.01 218.54,-153.78"/>
</g>
<!-- Node9 -->
<g id="node9" class="node">
<title>Node9</title>
<g id="a_node9"><a xlink:href="../../d1/db5/class_lasso_interactor_style.html#a711994cec6c74643d2bc161ba73daacd" target="_top" xlink:title="Overwritten method, which is executed when the left mouse button is released.">
<polygon fill="white" stroke="black" points="24.5,-49.5 24.5,-79.5 131.5,-79.5 131.5,-49.5 24.5,-49.5"/>
<text text-anchor="start" x="32.5" y="-67.5" font-family="Helvetica,sans-Serif" font-size="10.00">LassoInteractorStyle</text>
<text text-anchor="middle" x="78" y="-56.5" font-family="Helvetica,sans-Serif" font-size="10.00">::OnLeftButtonUp</text>
</a>
</g>
</g>
<!-- Node3&#45;&gt;Node9 -->
<g id="edge8" class="edge">
<title>Node3&#45;&gt;Node9</title>
<path fill="none" stroke="midnightblue" d="M245.42,-146.64C224.19,-130.49 189.25,-105.6 156,-89.5 148.28,-85.76 139.87,-82.39 131.54,-79.41"/>
<polygon fill="midnightblue" stroke="midnightblue" points="243.31,-149.44 253.37,-152.77 247.58,-143.89 243.31,-149.44"/>
</g>
<!-- Node10 -->
<g id="node10" class="node">
<title>Node10</title>
<g id="a_node10"><a xlink:href="../../db/dbb/class_picking_interactor_style.html#a1620702107e2c2d0c0aefbd896098b0d" target="_top" xlink:title="Overloaded method, invoked when right mouse button is pressed.">
<polygon fill="white" stroke="black" points="21.5,-0.5 21.5,-30.5 134.5,-30.5 134.5,-0.5 21.5,-0.5"/>
<text text-anchor="start" x="29.5" y="-18.5" font-family="Helvetica,sans-Serif" font-size="10.00">PickingInteractorStyle</text>
<text text-anchor="middle" x="78" y="-7.5" font-family="Helvetica,sans-Serif" font-size="10.00">::OnRightButtonDown</text>
</a>
</g>
</g>
<!-- Node3&#45;&gt;Node10 -->
<g id="edge9" class="edge">
<title>Node3&#45;&gt;Node10</title>
<path fill="none" stroke="midnightblue" d="M253.84,-144.32C235.92,-117.78 199.11,-68.54 156,-40.5 149.52,-36.29 142.27,-32.73 134.88,-29.74"/>
<polygon fill="midnightblue" stroke="midnightblue" points="250.94,-146.28 259.37,-152.69 256.78,-142.42 250.94,-146.28"/>
</g>
</g>
</svg>
