<?xml version="1.0" encoding="UTF-8" standalone="no"?>
<!DOCTYPE svg PUBLIC "-//W3C//DTD SVG 1.1//EN"
 "http://www.w3.org/Graphics/SVG/1.1/DTD/svg11.dtd">
<!-- Generated by graphviz version 2.44.1 (0)
 -->
<!-- Title: Scene::showTextActors Pages: 1 -->
<svg width="474pt" height="28pt"
 viewBox="0.00 0.00 474.00 28.00" xmlns="http://www.w3.org/2000/svg" xmlns:xlink="http://www.w3.org/1999/xlink">
<g id="graph0" class="graph" transform="scale(1 1) rotate(0) translate(4 24)">
<title>Scene::showTextActors</title>
<polygon fill="white" stroke="transparent" points="-4,4 -4,-24 470,-24 470,4 -4,4"/>
<!-- Node1 -->
<g id="node1" class="node">
<title>Node1</title>
<g id="a_node1"><a xlink:title="Show the touchpoint / connector number text labels.">
<polygon fill="#bfbfbf" stroke="black" points="0,-0.5 0,-19.5 121,-19.5 121,-0.5 0,-0.5"/>
<text text-anchor="middle" x="60.5" y="-7.5" font-family="Helvetica,sans-Serif" font-size="10.00">Scene::showTextActors</text>
</a>
</g>
</g>
<!-- Node2 -->
<g id="node2" class="node">
<title>Node2</title>
<g id="a_node2"><a xlink:href="../../d6/db5/class_scene.html#a8a1b015f159dd9ba883ae601464f6c28" target="_top" xlink:title="Set if the touchpoint / connector number labels are visible.">
<polygon fill="white" stroke="black" points="157,-0.5 157,-19.5 305,-19.5 305,-0.5 157,-0.5"/>
<text text-anchor="middle" x="231" y="-7.5" font-family="Helvetica,sans-Serif" font-size="10.00">Scene::setTextActorsVisibility</text>
</a>
</g>
</g>
<!-- Node1&#45;&gt;Node2 -->
<g id="edge1" class="edge">
<title>Node1&#45;&gt;Node2</title>
<path fill="none" stroke="midnightblue" d="M121.38,-10C129.61,-10 138.17,-10 146.73,-10"/>
<polygon fill="midnightblue" stroke="midnightblue" points="146.74,-13.5 156.74,-10 146.74,-6.5 146.74,-13.5"/>
</g>
<!-- Node3 -->
<g id="node3" class="node">
<title>Node3</title>
<g id="a_node3"><a xlink:href="../../d9/d58/class_touchpoint.html#ab61727c9bb477bccca373f92a2b8bea4" target="_top" xlink:title="Return the touchpoint number label text actor.">
<polygon fill="white" stroke="black" points="341,-0.5 341,-19.5 466,-19.5 466,-0.5 341,-0.5"/>
<text text-anchor="middle" x="403.5" y="-7.5" font-family="Helvetica,sans-Serif" font-size="10.00">Touchpoint::getTextActor</text>
</a>
</g>
</g>
<!-- Node2&#45;&gt;Node3 -->
<g id="edge2" class="edge">
<title>Node2&#45;&gt;Node3</title>
<path fill="none" stroke="midnightblue" d="M305.3,-10C313.7,-10 322.27,-10 330.65,-10"/>
<polygon fill="midnightblue" stroke="midnightblue" points="330.77,-13.5 340.77,-10 330.77,-6.5 330.77,-13.5"/>
</g>
</g>
</svg>
