<?xml version="1.0" encoding="UTF-8" standalone="no"?>
<!DOCTYPE svg PUBLIC "-//W3C//DTD SVG 1.1//EN"
 "http://www.w3.org/Graphics/SVG/1.1/DTD/svg11.dtd">
<!-- Generated by graphviz version 2.44.0 (0)
 -->
<!-- Title: Scene::getOccupationMapActor Pages: 1 -->
<svg width="728pt" height="597pt"
 viewBox="0.00 0.00 728.00 596.68" xmlns="http://www.w3.org/2000/svg" xmlns:xlink="http://www.w3.org/1999/xlink">
<g id="graph0" class="graph" transform="scale(1 1) rotate(0) translate(4 592.68)">
<title>Scene::getOccupationMapActor</title>
<polygon fill="white" stroke="transparent" points="-4,4 -4,-592.68 724,-592.68 724,4 -4,4"/>
<!-- Node1 -->
<g id="node1" class="node">
<title>Node1</title>
<g id="a_node1"><a xlink:title="Return the occupation map visualization.">
<polygon fill="#bfbfbf" stroke="black" points="565,-368 565,-387 720,-387 720,-368 565,-368"/>
<text text-anchor="middle" x="642.5" y="-375" font-family="Helvetica,sans-Serif" font-size="10.00">Scene::getOccupationMapActor</text>
</a>
</g>
</g>
<!-- Node2 -->
<g id="node2" class="node">
<title>Node2</title>
<g id="a_node2"><a xlink:href="../../d6/db5/class_scene.html#a7caf30a70e69430d5e4ac93d6828a649" target="_top" xlink:title="Return the bounds of the voxel grid.">
<polygon fill="white" stroke="black" points="386.5,-368 386.5,-387 523.5,-387 523.5,-368 386.5,-368"/>
<text text-anchor="middle" x="455" y="-375" font-family="Helvetica,sans-Serif" font-size="10.00">Scene::getVoxelgridBounds</text>
</a>
</g>
</g>
<!-- Node1&#45;&gt;Node2 -->
<g id="edge1" class="edge">
<title>Node1&#45;&gt;Node2</title>
<path fill="none" stroke="midnightblue" d="M554.98,-377.5C544.49,-377.5 533.9,-377.5 523.74,-377.5"/>
<polygon fill="midnightblue" stroke="midnightblue" points="554.98,-381 564.98,-377.5 554.98,-374 554.98,-381"/>
</g>
<!-- Node18 -->
<g id="node18" class="node">
<title>Node18</title>
<g id="a_node18"><a xlink:href="../../d6/db5/class_scene.html#a266f98c6795eca4f5c03cba5761967d6" target="_top" xlink:title="Replace the actual mesh polydata with the polydata given as parameter.">
<polygon fill="white" stroke="black" points="382,-496 382,-515 528,-515 528,-496 382,-496"/>
<text text-anchor="middle" x="455" y="-503" font-family="Helvetica,sans-Serif" font-size="10.00">Scene::replaceMeshPolyData</text>
</a>
</g>
</g>
<!-- Node1&#45;&gt;Node18 -->
<g id="edge18" class="edge">
<title>Node1&#45;&gt;Node18</title>
<path fill="none" stroke="midnightblue" d="M619.05,-392.99C580.34,-419.7 502.09,-473.7 470.1,-495.77"/>
<polygon fill="midnightblue" stroke="midnightblue" points="621.31,-395.68 627.56,-387.12 617.34,-389.92 621.31,-395.68"/>
</g>
<!-- Node19 -->
<g id="node19" class="node">
<title>Node19</title>
<g id="a_node19"><a xlink:href="../../d6/db5/class_scene.html#a415555bc0037489b1a9421747c318746" target="_top" xlink:title="Update the occupation map visualization after changes to the underlying voxel data.">
<polygon fill="white" stroke="black" points="381,-215.5 381,-245.5 529,-245.5 529,-215.5 381,-215.5"/>
<text text-anchor="start" x="389" y="-233.5" font-family="Helvetica,sans-Serif" font-size="10.00">Scene::updateOccupationMap</text>
<text text-anchor="middle" x="455" y="-222.5" font-family="Helvetica,sans-Serif" font-size="10.00">Actor</text>
</a>
</g>
</g>
<!-- Node1&#45;&gt;Node19 -->
<g id="edge20" class="edge">
<title>Node1&#45;&gt;Node19</title>
<path fill="none" stroke="midnightblue" d="M621.48,-361.63C585.53,-333.15 510.52,-273.7 475.19,-245.7"/>
<polygon fill="midnightblue" stroke="midnightblue" points="619.32,-364.39 629.33,-367.85 623.67,-358.9 619.32,-364.39"/>
</g>
<!-- Node3 -->
<g id="node3" class="node">
<title>Node3</title>
<g id="a_node3"><a xlink:href="../../d1/da7/class_place_ground_plane8_connectors_tool.html#aaf1c46eccc1ea15dec8c7669c8a97a47" target="_top" xlink:title="Add connector to touchpoint registry.">
<polygon fill="white" stroke="black" points="190.5,-460.5 190.5,-490.5 343.5,-490.5 343.5,-460.5 190.5,-460.5"/>
<text text-anchor="start" x="198.5" y="-478.5" font-family="Helvetica,sans-Serif" font-size="10.00">PlaceGroundPlane8Connectors</text>
<text text-anchor="middle" x="267" y="-467.5" font-family="Helvetica,sans-Serif" font-size="10.00">Tool::addConnector</text>
</a>
</g>
</g>
<!-- Node2&#45;&gt;Node3 -->
<g id="edge2" class="edge">
<title>Node2&#45;&gt;Node3</title>
<path fill="none" stroke="midnightblue" d="M434.44,-393.41C413.42,-409.86 378.5,-435.35 345,-451.5 338.19,-454.78 330.83,-457.75 323.45,-460.39"/>
<polygon fill="midnightblue" stroke="midnightblue" points="436.64,-396.14 442.29,-387.18 432.28,-390.65 436.64,-396.14"/>
</g>
<!-- Node5 -->
<g id="node5" class="node">
<title>Node5</title>
<g id="a_node5"><a xlink:href="../../dc/db2/class_place_ground_plane4_connectors_tool.html#a07d60110c5f9b56bf016c68d879f6d80" target="_top" xlink:title="Add connector to touchpoint registry.">
<polygon fill="white" stroke="black" points="190.5,-411.5 190.5,-441.5 343.5,-441.5 343.5,-411.5 190.5,-411.5"/>
<text text-anchor="start" x="198.5" y="-429.5" font-family="Helvetica,sans-Serif" font-size="10.00">PlaceGroundPlane4Connectors</text>
<text text-anchor="middle" x="267" y="-418.5" font-family="Helvetica,sans-Serif" font-size="10.00">Tool::addConnector</text>
</a>
</g>
</g>
<!-- Node2&#45;&gt;Node5 -->
<g id="edge4" class="edge">
<title>Node2&#45;&gt;Node5</title>
<path fill="none" stroke="midnightblue" d="M407.73,-389.69C382.71,-396.28 351.59,-404.48 325.08,-411.46"/>
<polygon fill="midnightblue" stroke="midnightblue" points="408.92,-393 417.7,-387.06 407.13,-386.23 408.92,-393"/>
</g>
<!-- Node7 -->
<g id="node7" class="node">
<title>Node7</title>
<g id="a_node7"><a xlink:href="../../d9/d00/class_p_s_interface_tool.html#a55b3f305a7b9ffce3be9ec646ce145a8" target="_top" xlink:title=" ">
<polygon fill="white" stroke="black" points="190.5,-548 190.5,-567 343.5,-567 343.5,-548 190.5,-548"/>
<text text-anchor="middle" x="267" y="-555" font-family="Helvetica,sans-Serif" font-size="10.00">PSInterfaceTool::addConnector</text>
</a>
</g>
</g>
<!-- Node2&#45;&gt;Node7 -->
<g id="edge6" class="edge">
<title>Node2&#45;&gt;Node7</title>
<path fill="none" stroke="midnightblue" d="M441.75,-395.69C414.69,-435.79 351.68,-528.61 345,-533.5 336.41,-539.78 326.14,-544.45 315.93,-547.91"/>
<polygon fill="midnightblue" stroke="midnightblue" points="444.69,-397.6 447.38,-387.35 438.88,-393.68 444.69,-397.6"/>
</g>
<!-- Node8 -->
<g id="node8" class="node">
<title>Node8</title>
<g id="a_node8"><a xlink:href="../../d9/d00/class_p_s_interface_tool.html#aa26bf20d4e597f64df960e4c1a5c3a69" target="_top" xlink:title=" ">
<polygon fill="white" stroke="black" points="13,-529 13,-548 140,-548 140,-529 13,-529"/>
<text text-anchor="middle" x="76.5" y="-536" font-family="Helvetica,sans-Serif" font-size="10.00">PSInterfaceTool::execute</text>
</a>
</g>
</g>
<!-- Node2&#45;&gt;Node8 -->
<g id="edge8" class="edge">
<title>Node2&#45;&gt;Node8</title>
<path fill="none" stroke="midnightblue" d="M443.54,-396C426.72,-423.84 390.86,-475.84 345,-500.5 310.61,-518.99 207.8,-529.51 140.11,-534.6"/>
<polygon fill="midnightblue" stroke="midnightblue" points="446.64,-397.65 448.68,-387.25 440.6,-394.1 446.64,-397.65"/>
</g>
<!-- Node9 -->
<g id="node9" class="node">
<title>Node9</title>
<g id="a_node9"><a xlink:href="../../da/dcb/class_freehand_add_final_point_callback.html#a4a889b08c802e7e81598b8dd8b5e3dad" target="_top" xlink:title="Overwritten callback method, which is executed when the left mouse button is pressed.">
<polygon fill="white" stroke="black" points="189,-362.5 189,-392.5 345,-392.5 345,-362.5 189,-362.5"/>
<text text-anchor="start" x="197" y="-380.5" font-family="Helvetica,sans-Serif" font-size="10.00">FreehandAddFinalPointCallback</text>
<text text-anchor="middle" x="267" y="-369.5" font-family="Helvetica,sans-Serif" font-size="10.00">::Execute</text>
</a>
</g>
</g>
<!-- Node2&#45;&gt;Node9 -->
<g id="edge9" class="edge">
<title>Node2&#45;&gt;Node9</title>
<path fill="none" stroke="midnightblue" d="M376.15,-377.5C365.87,-377.5 355.34,-377.5 345.08,-377.5"/>
<polygon fill="midnightblue" stroke="midnightblue" points="376.32,-381 386.32,-377.5 376.32,-374 376.32,-381"/>
</g>
<!-- Node10 -->
<g id="node10" class="node">
<title>Node10</title>
<g id="a_node10"><a xlink:href="../../d4/d58/class_polyline_add_final_point_callback.html#aebf2f4ff9236a12c598205822c2949a2" target="_top" xlink:title="Overwritten callback method, which is executed when the left mouse button is pressed for the first ti...">
<polygon fill="white" stroke="black" points="192,-313.5 192,-343.5 342,-343.5 342,-313.5 192,-313.5"/>
<text text-anchor="start" x="200" y="-331.5" font-family="Helvetica,sans-Serif" font-size="10.00">PolylineAddFinalPointCallback</text>
<text text-anchor="middle" x="267" y="-320.5" font-family="Helvetica,sans-Serif" font-size="10.00">::Execute</text>
</a>
</g>
</g>
<!-- Node2&#45;&gt;Node10 -->
<g id="edge10" class="edge">
<title>Node2&#45;&gt;Node10</title>
<path fill="none" stroke="midnightblue" d="M407.73,-365.31C382.71,-358.72 351.59,-350.52 325.08,-343.54"/>
<polygon fill="midnightblue" stroke="midnightblue" points="407.13,-368.77 417.7,-367.94 408.92,-362 407.13,-368.77"/>
</g>
<!-- Node11 -->
<g id="node11" class="node">
<title>Node11</title>
<g id="a_node11"><a xlink:href="../../d1/db5/class_lasso_interactor_style.html#a711994cec6c74643d2bc161ba73daacd" target="_top" xlink:title="Overwritten method, which is executed when the left mouse button is released.">
<polygon fill="white" stroke="black" points="213.5,-264.5 213.5,-294.5 320.5,-294.5 320.5,-264.5 213.5,-264.5"/>
<text text-anchor="start" x="221.5" y="-282.5" font-family="Helvetica,sans-Serif" font-size="10.00">LassoInteractorStyle</text>
<text text-anchor="middle" x="267" y="-271.5" font-family="Helvetica,sans-Serif" font-size="10.00">::OnLeftButtonUp</text>
</a>
</g>
</g>
<!-- Node2&#45;&gt;Node11 -->
<g id="edge11" class="edge">
<title>Node2&#45;&gt;Node11</title>
<path fill="none" stroke="midnightblue" d="M434.02,-361.64C412.9,-345.48 378.13,-320.59 345,-304.5 337.29,-300.76 328.88,-297.38 320.54,-294.4"/>
<polygon fill="midnightblue" stroke="midnightblue" points="431.88,-364.41 441.93,-367.77 436.17,-358.88 431.88,-364.41"/>
</g>
<!-- Node12 -->
<g id="node12" class="node">
<title>Node12</title>
<g id="a_node12"><a xlink:href="../../db/dbb/class_picking_interactor_style.html#a1620702107e2c2d0c0aefbd896098b0d" target="_top" xlink:title="Overloaded method, invoked when right mouse button is pressed.">
<polygon fill="white" stroke="black" points="210.5,-215.5 210.5,-245.5 323.5,-245.5 323.5,-215.5 210.5,-215.5"/>
<text text-anchor="start" x="218.5" y="-233.5" font-family="Helvetica,sans-Serif" font-size="10.00">PickingInteractorStyle</text>
<text text-anchor="middle" x="267" y="-222.5" font-family="Helvetica,sans-Serif" font-size="10.00">::OnRightButtonDown</text>
</a>
</g>
</g>
<!-- Node2&#45;&gt;Node12 -->
<g id="edge12" class="edge">
<title>Node2&#45;&gt;Node12</title>
<path fill="none" stroke="midnightblue" d="M442.41,-359.32C424.6,-332.77 387.99,-283.53 345,-255.5 338.52,-251.28 331.28,-247.72 323.89,-244.73"/>
<polygon fill="midnightblue" stroke="midnightblue" points="439.5,-361.25 447.91,-367.69 445.35,-357.41 439.5,-361.25"/>
</g>
<!-- Node13 -->
<g id="node13" class="node">
<title>Node13</title>
<g id="a_node13"><a xlink:href="../../d6/db5/class_scene.html#af1128c48ccb6999066aa1d935075cb23" target="_top" xlink:title="Remove a touchpoint from the scene given its unique touchpoint id.">
<polygon fill="white" stroke="black" points="202,-101 202,-120 332,-120 332,-101 202,-101"/>
<text text-anchor="middle" x="267" y="-108" font-family="Helvetica,sans-Serif" font-size="10.00">Scene::removeTouchpoint</text>
</a>
</g>
</g>
<!-- Node2&#45;&gt;Node13 -->
<g id="edge13" class="edge">
<title>Node2&#45;&gt;Node13</title>
<path fill="none" stroke="midnightblue" d="M443.32,-359.36C424.48,-327.66 383.65,-260.44 345,-206.5 321.48,-173.68 290.72,-136.99 276.23,-120.04"/>
<polygon fill="midnightblue" stroke="midnightblue" points="440.33,-361.17 448.44,-368 446.36,-357.61 440.33,-361.17"/>
</g>
<!-- Node4 -->
<g id="node4" class="node">
<title>Node4</title>
<g id="a_node4"><a xlink:href="../../d1/da7/class_place_ground_plane8_connectors_tool.html#ac6f514739682b173fadccf10f5bc9aab" target="_top" xlink:title=" ">
<polygon fill="white" stroke="black" points="0,-371.5 0,-401.5 153,-401.5 153,-371.5 0,-371.5"/>
<text text-anchor="start" x="8" y="-389.5" font-family="Helvetica,sans-Serif" font-size="10.00">PlaceGroundPlane8Connectors</text>
<text text-anchor="middle" x="76.5" y="-378.5" font-family="Helvetica,sans-Serif" font-size="10.00">Tool::execute</text>
</a>
</g>
</g>
<!-- Node3&#45;&gt;Node4 -->
<g id="edge3" class="edge">
<title>Node3&#45;&gt;Node4</title>
<path fill="none" stroke="midnightblue" d="M202.48,-456.96C197.87,-455.24 193.34,-453.41 189,-451.5 156.6,-437.23 121.72,-415.81 99.77,-401.51"/>
<polygon fill="midnightblue" stroke="midnightblue" points="201.4,-460.29 211.99,-460.37 203.76,-453.7 201.4,-460.29"/>
</g>
<!-- Node6 -->
<g id="node6" class="node">
<title>Node6</title>
<g id="a_node6"><a xlink:href="../../dc/db2/class_place_ground_plane4_connectors_tool.html#a7ae289774f2b51d2daba1215effc4311" target="_top" xlink:title=" ">
<polygon fill="white" stroke="black" points="0,-49.5 0,-79.5 153,-79.5 153,-49.5 0,-49.5"/>
<text text-anchor="start" x="8" y="-67.5" font-family="Helvetica,sans-Serif" font-size="10.00">PlaceGroundPlane4Connectors</text>
<text text-anchor="middle" x="76.5" y="-56.5" font-family="Helvetica,sans-Serif" font-size="10.00">Tool::execute</text>
</a>
</g>
</g>
<!-- Node5&#45;&gt;Node6 -->
<g id="edge5" class="edge">
<title>Node5&#45;&gt;Node6</title>
<path fill="none" stroke="midnightblue" d="M191.23,-405C190.46,-404.2 189.71,-403.36 189,-402.5 99.43,-294.29 242.26,-196.96 153,-88.5 150.2,-85.1 146.93,-82.18 143.33,-79.66"/>
<polygon fill="midnightblue" stroke="midnightblue" points="188.98,-407.67 198.87,-411.46 193.5,-402.33 188.98,-407.67"/>
</g>
<!-- Node7&#45;&gt;Node8 -->
<g id="edge7" class="edge">
<title>Node7&#45;&gt;Node8</title>
<path fill="none" stroke="midnightblue" d="M180.16,-548.85C166.66,-547.49 152.94,-546.1 140.1,-544.81"/>
<polygon fill="midnightblue" stroke="midnightblue" points="180.12,-552.36 190.42,-549.88 180.82,-545.4 180.12,-552.36"/>
</g>
<!-- Node14 -->
<g id="node14" class="node">
<title>Node14</title>
<g id="a_node14"><a xlink:href="../../d1/d4e/class_place_touchpoint_tool.html#aa565ccff15d4591dc9c6dee73adfe6e8" target="_top" xlink:title=" ">
<polygon fill="white" stroke="black" points="23,-98.5 23,-128.5 130,-128.5 130,-98.5 23,-98.5"/>
<text text-anchor="start" x="31" y="-116.5" font-family="Helvetica,sans-Serif" font-size="10.00">PlaceTouchpointTool</text>
<text text-anchor="middle" x="76.5" y="-105.5" font-family="Helvetica,sans-Serif" font-size="10.00">::undo</text>
</a>
</g>
</g>
<!-- Node13&#45;&gt;Node14 -->
<g id="edge14" class="edge">
<title>Node13&#45;&gt;Node14</title>
<path fill="none" stroke="midnightblue" d="M191.91,-111.68C171.27,-112.01 149.27,-112.36 130.14,-112.66"/>
<polygon fill="midnightblue" stroke="midnightblue" points="191.98,-115.18 201.92,-111.52 191.87,-108.18 191.98,-115.18"/>
</g>
<!-- Node15 -->
<g id="node15" class="node">
<title>Node15</title>
<g id="a_node15"><a xlink:href="../../de/dd7/class_polyline_touchpoint_tool.html#a9ee474813d977ff7b9877372035a319c" target="_top" xlink:title=" ">
<polygon fill="white" stroke="black" points="18.5,-0.5 18.5,-30.5 134.5,-30.5 134.5,-0.5 18.5,-0.5"/>
<text text-anchor="start" x="26.5" y="-18.5" font-family="Helvetica,sans-Serif" font-size="10.00">PolylineTouchpointTool</text>
<text text-anchor="middle" x="76.5" y="-7.5" font-family="Helvetica,sans-Serif" font-size="10.00">::undo</text>
</a>
</g>
</g>
<!-- Node13&#45;&gt;Node15 -->
<g id="edge15" class="edge">
<title>Node13&#45;&gt;Node15</title>
<path fill="none" stroke="midnightblue" d="M244.78,-94.86C222.74,-79.19 186.8,-55.18 153,-39.5 146.01,-36.26 138.47,-33.29 130.95,-30.62"/>
<polygon fill="midnightblue" stroke="midnightblue" points="242.9,-97.82 253.06,-100.83 246.99,-92.14 242.9,-97.82"/>
</g>
<!-- Node16 -->
<g id="node16" class="node">
<title>Node16</title>
<g id="a_node16"><a xlink:href="../../de/de0/class_freehand_touchpoint_tool.html#a8c241ab6ea3d7ced711c84036836e885" target="_top" xlink:title=" ">
<polygon fill="white" stroke="black" points="15.5,-186.5 15.5,-216.5 137.5,-216.5 137.5,-186.5 15.5,-186.5"/>
<text text-anchor="start" x="23.5" y="-204.5" font-family="Helvetica,sans-Serif" font-size="10.00">FreehandTouchpointTool</text>
<text text-anchor="middle" x="76.5" y="-193.5" font-family="Helvetica,sans-Serif" font-size="10.00">::undo</text>
</a>
</g>
</g>
<!-- Node13&#45;&gt;Node16 -->
<g id="edge16" class="edge">
<title>Node13&#45;&gt;Node16</title>
<path fill="none" stroke="midnightblue" d="M211.07,-123.41C203.34,-126.41 195.74,-130.07 189,-134.5 168.46,-148.02 173.42,-162.8 153,-176.5 147.27,-180.35 140.89,-183.64 134.35,-186.46"/>
<polygon fill="midnightblue" stroke="midnightblue" points="212.27,-126.7 220.53,-120.07 209.93,-120.1 212.27,-126.7"/>
</g>
<!-- Node17 -->
<g id="node17" class="node">
<title>Node17</title>
<g id="a_node17"><a xlink:href="../../dd/d4a/class_lasso_tool.html#ad4e65963efd59e0802ecb4fbd8d8b288" target="_top" xlink:title=" ">
<polygon fill="white" stroke="black" points="32.5,-148 32.5,-167 120.5,-167 120.5,-148 32.5,-148"/>
<text text-anchor="middle" x="76.5" y="-155" font-family="Helvetica,sans-Serif" font-size="10.00">LassoTool::undo</text>
</a>
</g>
</g>
<!-- Node13&#45;&gt;Node17 -->
<g id="edge17" class="edge">
<title>Node13&#45;&gt;Node17</title>
<path fill="none" stroke="midnightblue" d="M217.93,-122.49C186.28,-130.38 145.39,-140.57 115.91,-147.92"/>
<polygon fill="midnightblue" stroke="midnightblue" points="219,-125.83 227.85,-120.01 217.3,-119.03 219,-125.83"/>
</g>
<!-- Node18&#45;&gt;Node8 -->
<g id="edge19" class="edge">
<title>Node18&#45;&gt;Node8</title>
<path fill="none" stroke="midnightblue" d="M436.15,-521.9C415.84,-539.34 380.8,-565.87 345,-576.5 278.54,-596.24 257.4,-587.84 189,-576.5 156.52,-571.12 120.79,-557.47 98.75,-548.09"/>
<polygon fill="midnightblue" stroke="midnightblue" points="438.73,-524.29 443.92,-515.05 434.1,-519.04 438.73,-524.29"/>
</g>
<!-- Node19&#45;&gt;Node4 -->
<g id="edge21" class="edge">
<title>Node19&#45;&gt;Node4</title>
<path fill="none" stroke="midnightblue" d="M422.85,-210.07C370.75,-178.71 264.21,-126.88 189,-172.5 169.93,-184.07 105.4,-324.53 84.27,-371.39"/>
<polygon fill="midnightblue" stroke="midnightblue" points="421.28,-213.21 431.63,-215.47 424.95,-207.25 421.28,-213.21"/>
</g>
<!-- Node19&#45;&gt;Node6 -->
<g id="edge22" class="edge">
<title>Node19&#45;&gt;Node6</title>
<path fill="none" stroke="midnightblue" d="M442.77,-206.28C426.35,-173.92 392.48,-117.63 345,-91.5 286.32,-59.2 209.37,-54.63 153.08,-56.85"/>
<polygon fill="midnightblue" stroke="midnightblue" points="439.75,-208.07 447.31,-215.5 446.03,-204.98 439.75,-208.07"/>
</g>
<!-- Node19&#45;&gt;Node8 -->
<g id="edge23" class="edge">
<title>Node19&#45;&gt;Node8</title>
<path fill="none" stroke="midnightblue" d="M414.71,-211.31C357.92,-186.65 252.71,-153 189,-206.5 118.16,-265.99 185.16,-324.77 153,-411.5 135.43,-458.88 100.19,-508.55 84.88,-528.92"/>
<polygon fill="midnightblue" stroke="midnightblue" points="413.51,-214.6 424.07,-215.48 416.36,-208.21 413.51,-214.6"/>
</g>
<!-- Node19&#45;&gt;Node9 -->
<g id="edge24" class="edge">
<title>Node19&#45;&gt;Node9</title>
<path fill="none" stroke="midnightblue" d="M438.79,-254.44C419.99,-282.15 385.47,-327.34 345,-353.5 339.71,-356.92 333.9,-359.88 327.91,-362.44"/>
<polygon fill="midnightblue" stroke="midnightblue" points="441.93,-256.03 444.55,-245.76 436.1,-252.16 441.93,-256.03"/>
</g>
<!-- Node19&#45;&gt;Node10 -->
<g id="edge25" class="edge">
<title>Node19&#45;&gt;Node10</title>
<path fill="none" stroke="midnightblue" d="M427.43,-251.83C406.16,-268.07 375.01,-290.03 345,-304.5 338.19,-307.78 330.83,-310.75 323.45,-313.39"/>
<polygon fill="midnightblue" stroke="midnightblue" points="429.59,-254.58 435.36,-245.69 425.31,-249.04 429.59,-254.58"/>
</g>
<!-- Node19&#45;&gt;Node11 -->
<g id="edge26" class="edge">
<title>Node19&#45;&gt;Node11</title>
<path fill="none" stroke="midnightblue" d="M387.04,-248.14C365.16,-253.9 341.19,-260.22 320.53,-265.66"/>
<polygon fill="midnightblue" stroke="midnightblue" points="388.15,-251.47 396.93,-245.53 386.37,-244.7 388.15,-251.47"/>
</g>
<!-- Node19&#45;&gt;Node12 -->
<g id="edge27" class="edge">
<title>Node19&#45;&gt;Node12</title>
<path fill="none" stroke="midnightblue" d="M370.41,-230.5C354.57,-230.5 338.36,-230.5 323.64,-230.5"/>
<polygon fill="midnightblue" stroke="midnightblue" points="370.75,-234 380.75,-230.5 370.75,-227 370.75,-234"/>
</g>
<!-- Node19&#45;&gt;Node13 -->
<g id="edge28" class="edge">
<title>Node19&#45;&gt;Node13</title>
<path fill="none" stroke="midnightblue" d="M433.78,-207.87C413.34,-186.23 379.85,-154.09 345,-134.5 334.14,-128.39 321.52,-123.63 309.68,-120.02"/>
<polygon fill="midnightblue" stroke="midnightblue" points="431.34,-210.37 440.71,-215.32 436.47,-205.61 431.34,-210.37"/>
</g>
</g>
</svg>
