<?xml version="1.0" encoding="UTF-8" standalone="no"?>
<!DOCTYPE svg PUBLIC "-//W3C//DTD SVG 1.1//EN"
 "http://www.w3.org/Graphics/SVG/1.1/DTD/svg11.dtd">
<!-- Generated by graphviz version 2.44.0 (0)
 -->
<!-- Title: voxelimagevisualizer.h Pages: 1 -->
<svg width="2503pt" height="140pt"
 viewBox="0.00 0.00 2503.12 140.00" xmlns="http://www.w3.org/2000/svg" xmlns:xlink="http://www.w3.org/1999/xlink">
<g id="graph0" class="graph" transform="scale(1 1) rotate(0) translate(4 136)">
<title>voxelimagevisualizer.h</title>
<polygon fill="white" stroke="transparent" points="-4,4 -4,-136 2499.12,-136 2499.12,4 -4,4"/>
<!-- Node1 -->
<g id="node1" class="node">
<title>Node1</title>
<g id="a_node1"><a xlink:title="Class for visualizing voxel grid images.">
<polygon fill="#bfbfbf" stroke="black" points="1144.62,-112.5 1144.62,-131.5 1260.62,-131.5 1260.62,-112.5 1144.62,-112.5"/>
<text text-anchor="middle" x="1202.62" y="-119.5" font-family="Helvetica,sans-Serif" font-size="10.00">voxelimagevisualizer.h</text>
</a>
</g>
</g>
<!-- Node2 -->
<g id="node2" class="node">
<title>Node2</title>
<g id="a_node2"><a xlink:title=" ">
<polygon fill="white" stroke="#bfbfbf" points="1148.62,-0.5 1148.62,-19.5 1214.62,-19.5 1214.62,-0.5 1148.62,-0.5"/>
<text text-anchor="middle" x="1181.62" y="-7.5" font-family="Helvetica,sans-Serif" font-size="10.00">vtkVector.h</text>
</a>
</g>
</g>
<!-- Node1&#45;&gt;Node2 -->
<g id="edge1" class="edge">
<title>Node1&#45;&gt;Node2</title>
<path fill="none" stroke="midnightblue" d="M1144.6,-121.03C910.3,-120.87 44.56,-117.46 4.62,-76 -1.54,-69.6 -1.54,-62.4 4.62,-56 44.65,-14.41 929.93,-11.18 1138.09,-10.99"/>
<polygon fill="midnightblue" stroke="midnightblue" points="1138.32,-14.49 1148.32,-10.99 1138.32,-7.49 1138.32,-14.49"/>
</g>
<!-- Node3 -->
<g id="node3" class="node">
<title>Node3</title>
<g id="a_node3"><a xlink:title=" ">
<polygon fill="white" stroke="#bfbfbf" points="14.12,-56.5 14.12,-75.5 85.12,-75.5 85.12,-56.5 14.12,-56.5"/>
<text text-anchor="middle" x="49.62" y="-63.5" font-family="Helvetica,sans-Serif" font-size="10.00">vtkVersion.h</text>
</a>
</g>
</g>
<!-- Node1&#45;&gt;Node3 -->
<g id="edge2" class="edge">
<title>Node1&#45;&gt;Node3</title>
<path fill="none" stroke="midnightblue" d="M1144.3,-119.88C949.19,-115.92 319.43,-101.57 95.59,-76.03"/>
<polygon fill="midnightblue" stroke="midnightblue" points="95.91,-72.54 85.57,-74.84 95.09,-79.49 95.91,-72.54"/>
</g>
<!-- Node4 -->
<g id="node4" class="node">
<title>Node4</title>
<g id="a_node4"><a xlink:title=" ">
<polygon fill="white" stroke="#bfbfbf" points="103.12,-56.5 103.12,-75.5 198.12,-75.5 198.12,-56.5 103.12,-56.5"/>
<text text-anchor="middle" x="150.62" y="-63.5" font-family="Helvetica,sans-Serif" font-size="10.00">vtkSmartPointer.h</text>
</a>
</g>
</g>
<!-- Node1&#45;&gt;Node4 -->
<g id="edge3" class="edge">
<title>Node1&#45;&gt;Node4</title>
<path fill="none" stroke="midnightblue" d="M1144.42,-120.63C992.29,-119.18 570.17,-112.04 208.31,-75.93"/>
<polygon fill="midnightblue" stroke="midnightblue" points="208.46,-72.43 198.16,-74.91 207.76,-79.4 208.46,-72.43"/>
</g>
<!-- Node5 -->
<g id="node5" class="node">
<title>Node5</title>
<g id="a_node5"><a xlink:title=" ">
<polygon fill="white" stroke="#bfbfbf" points="216.62,-56.5 216.62,-75.5 298.62,-75.5 298.62,-56.5 216.62,-56.5"/>
<text text-anchor="middle" x="257.62" y="-63.5" font-family="Helvetica,sans-Serif" font-size="10.00">vtkPointData.h</text>
</a>
</g>
</g>
<!-- Node1&#45;&gt;Node5 -->
<g id="edge4" class="edge">
<title>Node1&#45;&gt;Node5</title>
<path fill="none" stroke="midnightblue" d="M1144.56,-120.65C1003.18,-119.23 629.73,-112.19 308.72,-75.97"/>
<polygon fill="midnightblue" stroke="midnightblue" points="309.1,-72.49 298.76,-74.84 308.3,-79.45 309.1,-72.49"/>
</g>
<!-- Node6 -->
<g id="node6" class="node">
<title>Node6</title>
<g id="a_node6"><a xlink:title=" ">
<polygon fill="white" stroke="#bfbfbf" points="316.62,-56.5 316.62,-75.5 420.62,-75.5 420.62,-56.5 316.62,-56.5"/>
<text text-anchor="middle" x="368.62" y="-63.5" font-family="Helvetica,sans-Serif" font-size="10.00">vtkTransformFilter.h</text>
</a>
</g>
</g>
<!-- Node1&#45;&gt;Node6 -->
<g id="edge5" class="edge">
<title>Node1&#45;&gt;Node6</title>
<path fill="none" stroke="midnightblue" d="M1144.3,-119.36C1016.8,-115.41 703.51,-103.62 430.92,-76.04"/>
<polygon fill="midnightblue" stroke="midnightblue" points="431.13,-72.55 420.83,-75.01 430.42,-79.51 431.13,-72.55"/>
</g>
<!-- Node7 -->
<g id="node7" class="node">
<title>Node7</title>
<g id="a_node7"><a xlink:title=" ">
<polygon fill="white" stroke="#bfbfbf" points="439.12,-56.5 439.12,-75.5 522.12,-75.5 522.12,-56.5 439.12,-56.5"/>
<text text-anchor="middle" x="480.62" y="-63.5" font-family="Helvetica,sans-Serif" font-size="10.00">vtkTransform.h</text>
</a>
</g>
</g>
<!-- Node1&#45;&gt;Node7 -->
<g id="edge6" class="edge">
<title>Node1&#45;&gt;Node7</title>
<path fill="none" stroke="midnightblue" d="M1144.44,-119.28C1029.33,-115.41 764.28,-104.15 532.29,-76.08"/>
<polygon fill="midnightblue" stroke="midnightblue" points="532.66,-72.6 522.31,-74.86 531.81,-79.55 532.66,-72.6"/>
</g>
<!-- Node8 -->
<g id="node8" class="node">
<title>Node8</title>
<g id="a_node8"><a xlink:title=" ">
<polygon fill="white" stroke="#bfbfbf" points="540.12,-56.5 540.12,-75.5 685.12,-75.5 685.12,-56.5 540.12,-56.5"/>
<text text-anchor="middle" x="612.62" y="-63.5" font-family="Helvetica,sans-Serif" font-size="10.00">vtkTransformPolyDataFilter.h</text>
</a>
</g>
</g>
<!-- Node1&#45;&gt;Node8 -->
<g id="edge7" class="edge">
<title>Node1&#45;&gt;Node8</title>
<path fill="none" stroke="midnightblue" d="M1144.3,-116.23C1051.66,-108.57 864.88,-92.77 695.59,-76.08"/>
<polygon fill="midnightblue" stroke="midnightblue" points="695.79,-72.58 685.49,-75.08 695.1,-79.55 695.79,-72.58"/>
</g>
<!-- Node9 -->
<g id="node9" class="node">
<title>Node9</title>
<g id="a_node9"><a xlink:title=" ">
<polygon fill="white" stroke="#bfbfbf" points="703.62,-56.5 703.62,-75.5 781.62,-75.5 781.62,-56.5 703.62,-56.5"/>
<text text-anchor="middle" x="742.62" y="-63.5" font-family="Helvetica,sans-Serif" font-size="10.00">vtkRenderer.h</text>
</a>
</g>
</g>
<!-- Node1&#45;&gt;Node9 -->
<g id="edge8" class="edge">
<title>Node1&#45;&gt;Node9</title>
<path fill="none" stroke="midnightblue" d="M1144.45,-116.06C1066.52,-109.13 923.73,-95.33 792.14,-76.13"/>
<polygon fill="midnightblue" stroke="midnightblue" points="792.28,-72.61 781.88,-74.61 791.26,-79.53 792.28,-72.61"/>
</g>
<!-- Node10 -->
<g id="node10" class="node">
<title>Node10</title>
<g id="a_node10"><a xlink:title=" ">
<polygon fill="white" stroke="#bfbfbf" points="799.62,-56.5 799.62,-75.5 903.62,-75.5 903.62,-56.5 799.62,-56.5"/>
<text text-anchor="middle" x="851.62" y="-63.5" font-family="Helvetica,sans-Serif" font-size="10.00">vtkRenderWindow.h</text>
</a>
</g>
</g>
<!-- Node1&#45;&gt;Node10 -->
<g id="edge9" class="edge">
<title>Node1&#45;&gt;Node10</title>
<path fill="none" stroke="midnightblue" d="M1147.01,-112.44C1083.61,-102.69 980.24,-86.79 914.11,-76.61"/>
<polygon fill="midnightblue" stroke="midnightblue" points="914.25,-73.09 903.83,-75.03 913.18,-80.01 914.25,-73.09"/>
</g>
<!-- Node11 -->
<g id="node11" class="node">
<title>Node11</title>
<g id="a_node11"><a xlink:title=" ">
<polygon fill="white" stroke="#bfbfbf" points="921.62,-56.5 921.62,-75.5 1067.62,-75.5 1067.62,-56.5 921.62,-56.5"/>
<text text-anchor="middle" x="994.62" y="-63.5" font-family="Helvetica,sans-Serif" font-size="10.00">vtkRenderWindowInteractor.h</text>
</a>
</g>
</g>
<!-- Node1&#45;&gt;Node11 -->
<g id="edge10" class="edge">
<title>Node1&#45;&gt;Node11</title>
<path fill="none" stroke="midnightblue" d="M1169.67,-112.44C1133.84,-103.14 1076.46,-88.25 1037.23,-78.06"/>
<polygon fill="midnightblue" stroke="midnightblue" points="1037.99,-74.64 1027.43,-75.52 1036.23,-81.42 1037.99,-74.64"/>
</g>
<!-- Node12 -->
<g id="node12" class="node">
<title>Node12</title>
<g id="a_node12"><a xlink:title=" ">
<polygon fill="white" stroke="#bfbfbf" points="1085.62,-56.5 1085.62,-75.5 1147.62,-75.5 1147.62,-56.5 1085.62,-56.5"/>
<text text-anchor="middle" x="1116.62" y="-63.5" font-family="Helvetica,sans-Serif" font-size="10.00">vtkActor.h</text>
</a>
</g>
</g>
<!-- Node1&#45;&gt;Node12 -->
<g id="edge11" class="edge">
<title>Node1&#45;&gt;Node12</title>
<path fill="none" stroke="midnightblue" d="M1188.81,-112.32C1175.39,-103.9 1154.8,-90.97 1139.04,-81.07"/>
<polygon fill="midnightblue" stroke="midnightblue" points="1140.74,-78.01 1130.41,-75.65 1137.01,-83.94 1140.74,-78.01"/>
</g>
<!-- Node13 -->
<g id="node13" class="node">
<title>Node13</title>
<g id="a_node13"><a xlink:title=" ">
<polygon fill="white" stroke="#bfbfbf" points="1165.62,-56.5 1165.62,-75.5 1239.62,-75.5 1239.62,-56.5 1165.62,-56.5"/>
<text text-anchor="middle" x="1202.62" y="-63.5" font-family="Helvetica,sans-Serif" font-size="10.00">vtkProperty.h</text>
</a>
</g>
</g>
<!-- Node1&#45;&gt;Node13 -->
<g id="edge12" class="edge">
<title>Node1&#45;&gt;Node13</title>
<path fill="none" stroke="midnightblue" d="M1202.62,-112.08C1202.62,-105.01 1202.62,-94.86 1202.62,-85.99"/>
<polygon fill="midnightblue" stroke="midnightblue" points="1206.12,-85.75 1202.62,-75.75 1199.12,-85.75 1206.12,-85.75"/>
</g>
<!-- Node14 -->
<g id="node14" class="node">
<title>Node14</title>
<g id="a_node14"><a xlink:title=" ">
<polygon fill="white" stroke="#bfbfbf" points="1257.62,-56.5 1257.62,-75.5 1323.62,-75.5 1323.62,-56.5 1257.62,-56.5"/>
<text text-anchor="middle" x="1290.62" y="-63.5" font-family="Helvetica,sans-Serif" font-size="10.00">vtkPoints.h</text>
</a>
</g>
</g>
<!-- Node1&#45;&gt;Node14 -->
<g id="edge13" class="edge">
<title>Node1&#45;&gt;Node14</title>
<path fill="none" stroke="midnightblue" d="M1216.76,-112.32C1230.49,-103.9 1251.56,-90.97 1267.69,-81.07"/>
<polygon fill="midnightblue" stroke="midnightblue" points="1269.83,-83.87 1276.52,-75.65 1266.17,-77.9 1269.83,-83.87"/>
</g>
<!-- Node15 -->
<g id="node15" class="node">
<title>Node15</title>
<g id="a_node15"><a xlink:title=" ">
<polygon fill="white" stroke="#bfbfbf" points="1342.12,-56.5 1342.12,-75.5 1451.12,-75.5 1451.12,-56.5 1342.12,-56.5"/>
<text text-anchor="middle" x="1396.62" y="-63.5" font-family="Helvetica,sans-Serif" font-size="10.00">vtkGlyph3DMapper.h</text>
</a>
</g>
</g>
<!-- Node1&#45;&gt;Node15 -->
<g id="edge14" class="edge">
<title>Node1&#45;&gt;Node15</title>
<path fill="none" stroke="midnightblue" d="M1233.36,-112.44C1266.57,-103.2 1319.61,-88.44 1356.18,-78.26"/>
<polygon fill="midnightblue" stroke="midnightblue" points="1357.33,-81.57 1366.03,-75.52 1355.46,-74.83 1357.33,-81.57"/>
</g>
<!-- Node16 -->
<g id="node16" class="node">
<title>Node16</title>
<g id="a_node16"><a xlink:title=" ">
<polygon fill="white" stroke="#bfbfbf" points="1469.62,-56.5 1469.62,-75.5 1547.62,-75.5 1547.62,-56.5 1469.62,-56.5"/>
<text text-anchor="middle" x="1508.62" y="-63.5" font-family="Helvetica,sans-Serif" font-size="10.00">vtkCellArray.h</text>
</a>
</g>
</g>
<!-- Node1&#45;&gt;Node16 -->
<g id="edge15" class="edge">
<title>Node1&#45;&gt;Node16</title>
<path fill="none" stroke="midnightblue" d="M1251.91,-112.49C1303.67,-103.54 1387.4,-88.96 1459.62,-76 1459.73,-75.98 1459.83,-75.96 1459.93,-75.95"/>
<polygon fill="midnightblue" stroke="midnightblue" points="1460.36,-79.42 1469.58,-74.2 1459.12,-72.54 1460.36,-79.42"/>
</g>
<!-- Node17 -->
<g id="node17" class="node">
<title>Node17</title>
<g id="a_node17"><a xlink:title=" ">
<polygon fill="white" stroke="#bfbfbf" points="1565.62,-56.5 1565.62,-75.5 1681.62,-75.5 1681.62,-56.5 1565.62,-56.5"/>
<text text-anchor="middle" x="1623.62" y="-63.5" font-family="Helvetica,sans-Serif" font-size="10.00">vtkPolyDataNormals.h</text>
</a>
</g>
</g>
<!-- Node1&#45;&gt;Node17 -->
<g id="edge16" class="edge">
<title>Node1&#45;&gt;Node17</title>
<path fill="none" stroke="midnightblue" d="M1260.9,-113.72C1329.01,-105.18 1445.43,-90.5 1555.57,-76.13"/>
<polygon fill="midnightblue" stroke="midnightblue" points="1556.06,-79.6 1565.52,-74.83 1555.15,-72.66 1556.06,-79.6"/>
</g>
<!-- Node18 -->
<g id="node18" class="node">
<title>Node18</title>
<g id="a_node18"><a xlink:title=" ">
<polygon fill="white" stroke="#bfbfbf" points="1699.62,-56.5 1699.62,-75.5 1785.62,-75.5 1785.62,-56.5 1699.62,-56.5"/>
<text text-anchor="middle" x="1742.62" y="-63.5" font-family="Helvetica,sans-Serif" font-size="10.00">vtkImageData.h</text>
</a>
</g>
</g>
<!-- Node1&#45;&gt;Node18 -->
<g id="edge17" class="edge">
<title>Node1&#45;&gt;Node18</title>
<path fill="none" stroke="midnightblue" d="M1260.63,-117.15C1350.35,-110.86 1528.36,-97.08 1689.44,-76.06"/>
<polygon fill="midnightblue" stroke="midnightblue" points="1690.08,-79.51 1699.53,-74.73 1689.16,-72.57 1690.08,-79.51"/>
</g>
<!-- Node19 -->
<g id="node19" class="node">
<title>Node19</title>
<g id="a_node19"><a xlink:title=" ">
<polygon fill="white" stroke="#bfbfbf" points="1804.12,-56.5 1804.12,-75.5 1937.12,-75.5 1937.12,-56.5 1804.12,-56.5"/>
<text text-anchor="middle" x="1870.62" y="-63.5" font-family="Helvetica,sans-Serif" font-size="10.00">vtkImageStencilToImage.h</text>
</a>
</g>
</g>
<!-- Node1&#45;&gt;Node19 -->
<g id="edge18" class="edge">
<title>Node1&#45;&gt;Node19</title>
<path fill="none" stroke="midnightblue" d="M1260.67,-117.4C1365.04,-110.75 1591.51,-95.51 1793.69,-76.05"/>
<polygon fill="midnightblue" stroke="midnightblue" points="1794.3,-79.51 1803.91,-75.06 1793.62,-72.54 1794.3,-79.51"/>
</g>
<!-- Node20 -->
<g id="node20" class="node">
<title>Node20</title>
<g id="a_node20"><a xlink:title=" ">
<polygon fill="white" stroke="#bfbfbf" points="1955.62,-56.5 1955.62,-75.5 2047.62,-75.5 2047.62,-56.5 1955.62,-56.5"/>
<text text-anchor="middle" x="2001.62" y="-63.5" font-family="Helvetica,sans-Serif" font-size="10.00">vtkCubeSource.h</text>
</a>
</g>
</g>
<!-- Node1&#45;&gt;Node20 -->
<g id="edge19" class="edge">
<title>Node1&#45;&gt;Node20</title>
<path fill="none" stroke="midnightblue" d="M1261.07,-119.43C1385.09,-115.66 1683.9,-104.33 1945.46,-75.88"/>
<polygon fill="midnightblue" stroke="midnightblue" points="1945.97,-79.35 1955.53,-74.78 1945.21,-72.39 1945.97,-79.35"/>
</g>
<!-- Node21 -->
<g id="node21" class="node">
<title>Node21</title>
<g id="a_node21"><a xlink:title=" ">
<polygon fill="white" stroke="#bfbfbf" points="2065.62,-56.5 2065.62,-75.5 2163.62,-75.5 2163.62,-56.5 2065.62,-56.5"/>
<text text-anchor="middle" x="2114.62" y="-63.5" font-family="Helvetica,sans-Serif" font-size="10.00">vtkNamedColors.h</text>
</a>
</g>
</g>
<!-- Node1&#45;&gt;Node21 -->
<g id="edge20" class="edge">
<title>Node1&#45;&gt;Node21</title>
<path fill="none" stroke="midnightblue" d="M1260.77,-119.97C1397.5,-117.1 1750.27,-107.15 2055.25,-76.03"/>
<polygon fill="midnightblue" stroke="midnightblue" points="2056.03,-79.47 2065.62,-74.96 2055.32,-72.5 2056.03,-79.47"/>
</g>
<!-- Node22 -->
<g id="node22" class="node">
<title>Node22</title>
<g id="a_node22"><a xlink:title=" ">
<polygon fill="white" stroke="#bfbfbf" points="2182.12,-56.5 2182.12,-75.5 2259.12,-75.5 2259.12,-56.5 2182.12,-56.5"/>
<text text-anchor="middle" x="2220.62" y="-63.5" font-family="Helvetica,sans-Serif" font-size="10.00">vtkGlyph3D.h</text>
</a>
</g>
</g>
<!-- Node1&#45;&gt;Node22 -->
<g id="edge21" class="edge">
<title>Node1&#45;&gt;Node22</title>
<path fill="none" stroke="midnightblue" d="M1260.8,-121.11C1410.37,-120.8 1820.6,-116.14 2171.81,-75.9"/>
<polygon fill="midnightblue" stroke="midnightblue" points="2172.39,-79.36 2181.92,-74.73 2171.59,-72.41 2172.39,-79.36"/>
</g>
<!-- Node23 -->
<g id="node23" class="node">
<title>Node23</title>
<g id="a_node23"><a xlink:title=" ">
<polygon fill="white" stroke="#bfbfbf" points="2277.12,-56.5 2277.12,-75.5 2388.12,-75.5 2388.12,-56.5 2277.12,-56.5"/>
<text text-anchor="middle" x="2332.62" y="-63.5" font-family="Helvetica,sans-Serif" font-size="10.00">vtkPolyDataMapper.h</text>
</a>
</g>
</g>
<!-- Node1&#45;&gt;Node23 -->
<g id="edge22" class="edge">
<title>Node1&#45;&gt;Node23</title>
<path fill="none" stroke="midnightblue" d="M1260.76,-120.49C1419.98,-118.67 1876.59,-110.68 2266.92,-75.96"/>
<polygon fill="midnightblue" stroke="midnightblue" points="2267.35,-79.44 2276.99,-75.06 2266.72,-72.46 2267.35,-79.44"/>
</g>
<!-- Node24 -->
<g id="node24" class="node">
<title>Node24</title>
<g id="a_node24"><a xlink:href="../../d2/d6f/constants_8h.html" target="_top" xlink:title="Application / Algorithm specific global constants.">
<polygon fill="white" stroke="black" points="2406.12,-56.5 2406.12,-75.5 2495.12,-75.5 2495.12,-56.5 2406.12,-56.5"/>
<text text-anchor="middle" x="2450.62" y="-63.5" font-family="Helvetica,sans-Serif" font-size="10.00">core/constants.h</text>
</a>
</g>
</g>
<!-- Node1&#45;&gt;Node24 -->
<g id="edge23" class="edge">
<title>Node1&#45;&gt;Node24</title>
<path fill="none" stroke="midnightblue" d="M1260.89,-121.43C1432.98,-122.14 1953.98,-120.26 2395.8,-75.93"/>
<polygon fill="midnightblue" stroke="midnightblue" points="2396.3,-79.4 2405.89,-74.91 2395.59,-72.43 2396.3,-79.4"/>
</g>
<!-- Node24&#45;&gt;Node2 -->
<g id="edge25" class="edge">
<title>Node24&#45;&gt;Node2</title>
<path fill="none" stroke="midnightblue" d="M2405.89,-57.09C2402.76,-56.68 2399.65,-56.31 2396.62,-56 1940.37,-9.72 1383.45,-9.58 1225.33,-10.6"/>
<polygon fill="midnightblue" stroke="midnightblue" points="1225.05,-7.1 1215.07,-10.67 1225.1,-14.1 1225.05,-7.1"/>
</g>
<!-- Node25 -->
<g id="node25" class="node">
<title>Node25</title>
<g id="a_node25"><a xlink:title=" ">
<polygon fill="white" stroke="#bfbfbf" points="2427.62,-0.5 2427.62,-19.5 2473.62,-19.5 2473.62,-0.5 2427.62,-0.5"/>
<text text-anchor="middle" x="2450.62" y="-7.5" font-family="Helvetica,sans-Serif" font-size="10.00">cstdint</text>
</a>
</g>
</g>
<!-- Node24&#45;&gt;Node25 -->
<g id="edge24" class="edge">
<title>Node24&#45;&gt;Node25</title>
<path fill="none" stroke="midnightblue" d="M2450.62,-56.08C2450.62,-49.01 2450.62,-38.86 2450.62,-29.99"/>
<polygon fill="midnightblue" stroke="midnightblue" points="2454.12,-29.75 2450.62,-19.75 2447.12,-29.75 2454.12,-29.75"/>
</g>
</g>
</svg>
