<?xml version="1.0" encoding="UTF-8" standalone="no"?>
<!DOCTYPE svg PUBLIC "-//W3C//DTD SVG 1.1//EN"
 "http://www.w3.org/Graphics/SVG/1.1/DTD/svg11.dtd">
<!-- Generated by graphviz version 2.44.1 (0)
 -->
<!-- Title: T_MESH::Graph::deleteUnlinkedElements Pages: 1 -->
<svg width="490pt" height="279pt"
 viewBox="0.00 0.00 490.00 279.00" xmlns="http://www.w3.org/2000/svg" xmlns:xlink="http://www.w3.org/1999/xlink">
<g id="graph0" class="graph" transform="scale(1 1) rotate(0) translate(4 275)">
<title>T_MESH::Graph::deleteUnlinkedElements</title>
<polygon fill="white" stroke="transparent" points="-4,4 -4,-275 486,-275 486,4 -4,4"/>
<!-- Node1 -->
<g id="node1" class="node">
<title>Node1</title>
<g id="a_node1"><a xlink:title="Eliminates isolated nodes and unlinked edges from the lists.">
<polygon fill="#bfbfbf" stroke="black" points="0,-109 0,-139 160,-139 160,-109 0,-109"/>
<text text-anchor="start" x="8" y="-127" font-family="Helvetica,sans-Serif" font-size="10.00">T_MESH::Graph::deleteUnlinked</text>
<text text-anchor="middle" x="80" y="-116" font-family="Helvetica,sans-Serif" font-size="10.00">Elements</text>
</a>
</g>
</g>
<!-- Node2 -->
<g id="node2" class="node">
<title>Node2</title>
<g id="a_node2"><a xlink:href="../../d3/d04/class_t___m_e_s_h_1_1_list.html#af3baa55cf02bd943635012a489d6c33a" target="_top" xlink:title="Gets the first node, NULL if empty. &#160;&#160;O(1).">
<polygon fill="white" stroke="black" points="210,-251.5 210,-270.5 316,-270.5 316,-251.5 210,-251.5"/>
<text text-anchor="middle" x="263" y="-258.5" font-family="Helvetica,sans-Serif" font-size="10.00">T_MESH::List::head</text>
</a>
</g>
</g>
<!-- Node1&#45;&gt;Node2 -->
<g id="edge1" class="edge">
<title>Node1&#45;&gt;Node2</title>
<path fill="none" stroke="midnightblue" d="M91.56,-139.11C109.89,-164.23 150.1,-214.53 196,-242 199.63,-244.17 203.51,-246.1 207.52,-247.82"/>
<polygon fill="midnightblue" stroke="midnightblue" points="206.42,-251.15 217.01,-251.46 208.93,-244.62 206.42,-251.15"/>
</g>
<!-- Node3 -->
<g id="node3" class="node">
<title>Node3</title>
<g id="a_node3"><a xlink:href="../../dd/d41/class_t___m_e_s_h_1_1graph_node.html#a585d54dc5a4cd5a4642df1aa15991614" target="_top" xlink:title="Returns TRUE if the node is isolated. O(1).">
<polygon fill="white" stroke="black" points="205,-202 205,-232 321,-232 321,-202 205,-202"/>
<text text-anchor="start" x="213" y="-220" font-family="Helvetica,sans-Serif" font-size="10.00">T_MESH::graphNode::</text>
<text text-anchor="middle" x="263" y="-209" font-family="Helvetica,sans-Serif" font-size="10.00">isIsolated</text>
</a>
</g>
</g>
<!-- Node1&#45;&gt;Node3 -->
<g id="edge2" class="edge">
<title>Node1&#45;&gt;Node3</title>
<path fill="none" stroke="midnightblue" d="M103.2,-139.07C125.85,-154.03 162.37,-176.98 196,-193 199.61,-194.72 203.38,-196.39 207.21,-198.01"/>
<polygon fill="midnightblue" stroke="midnightblue" points="206.21,-201.37 216.79,-201.87 208.83,-194.88 206.21,-201.37"/>
</g>
<!-- Node5 -->
<g id="node5" class="node">
<title>Node5</title>
<g id="a_node5"><a xlink:href="../../d7/dd6/class_t___m_e_s_h_1_1graph_edge.html#af091fe9186d672ad2309936a55b3135e" target="_top" xlink:title="Returns TRUE if this edge does not connect points. O(1).">
<polygon fill="white" stroke="black" points="205,-153 205,-183 321,-183 321,-153 205,-153"/>
<text text-anchor="start" x="213" y="-171" font-family="Helvetica,sans-Serif" font-size="10.00">T_MESH::graphEdge::</text>
<text text-anchor="middle" x="263" y="-160" font-family="Helvetica,sans-Serif" font-size="10.00">isUnlinked</text>
</a>
</g>
</g>
<!-- Node1&#45;&gt;Node5 -->
<g id="edge4" class="edge">
<title>Node1&#45;&gt;Node5</title>
<path fill="none" stroke="midnightblue" d="M142.78,-139.02C159.56,-143.1 177.81,-147.53 194.87,-151.68"/>
<polygon fill="midnightblue" stroke="midnightblue" points="194.21,-155.12 204.76,-154.08 195.87,-148.32 194.21,-155.12"/>
</g>
<!-- Node6 -->
<g id="node6" class="node">
<title>Node6</title>
<g id="a_node6"><a xlink:href="../../da/d53/class_t___m_e_s_h_1_1_node.html#ae661edb2148691ba90cfe14d73d2545b" target="_top" xlink:title="Returns the next node in the list, possibly NULL.">
<polygon fill="white" stroke="black" points="207.5,-114.5 207.5,-133.5 318.5,-133.5 318.5,-114.5 207.5,-114.5"/>
<text text-anchor="middle" x="263" y="-121.5" font-family="Helvetica,sans-Serif" font-size="10.00">T_MESH::Node::next</text>
</a>
</g>
</g>
<!-- Node1&#45;&gt;Node6 -->
<g id="edge5" class="edge">
<title>Node1&#45;&gt;Node6</title>
<path fill="none" stroke="midnightblue" d="M160.13,-124C172.49,-124 185.13,-124 197.13,-124"/>
<polygon fill="midnightblue" stroke="midnightblue" points="197.48,-127.5 207.48,-124 197.48,-120.5 197.48,-127.5"/>
</g>
<!-- Node7 -->
<g id="node7" class="node">
<title>Node7</title>
<g id="a_node7"><a xlink:href="../../da/d53/class_t___m_e_s_h_1_1_node.html#aed5d13bba326f240b2058b5a2a28c3c3" target="_top" xlink:title="Returns the previous node in the list, possibly NULL.">
<polygon fill="white" stroke="black" points="207.5,-76.5 207.5,-95.5 318.5,-95.5 318.5,-76.5 207.5,-76.5"/>
<text text-anchor="middle" x="263" y="-83.5" font-family="Helvetica,sans-Serif" font-size="10.00">T_MESH::Node::prev</text>
</a>
</g>
</g>
<!-- Node1&#45;&gt;Node7 -->
<g id="edge6" class="edge">
<title>Node1&#45;&gt;Node7</title>
<path fill="none" stroke="midnightblue" d="M152.54,-108.98C170.63,-105.18 189.77,-101.16 206.91,-97.57"/>
<polygon fill="midnightblue" stroke="midnightblue" points="207.68,-100.98 216.75,-95.5 206.24,-94.13 207.68,-100.98"/>
</g>
<!-- Node8 -->
<g id="node8" class="node">
<title>Node8</title>
<g id="a_node8"><a xlink:href="../../d3/d04/class_t___m_e_s_h_1_1_list.html#aec091d7c66b66c92fe56f06f41f448f4" target="_top" xlink:title="Deletes and removes the node &#39;n&#39; from the list. &#160;&#160;O(1).">
<polygon fill="white" stroke="black" points="196,-38.5 196,-57.5 330,-57.5 330,-38.5 196,-38.5"/>
<text text-anchor="middle" x="263" y="-45.5" font-family="Helvetica,sans-Serif" font-size="10.00">T_MESH::List::removeCell</text>
</a>
</g>
</g>
<!-- Node1&#45;&gt;Node8 -->
<g id="edge7" class="edge">
<title>Node1&#45;&gt;Node8</title>
<path fill="none" stroke="midnightblue" d="M107.79,-109C130.71,-96.58 164.84,-79.09 196,-67 201.91,-64.71 208.21,-62.55 214.48,-60.56"/>
<polygon fill="midnightblue" stroke="midnightblue" points="215.71,-63.85 224.26,-57.6 213.68,-57.15 215.71,-63.85"/>
</g>
<!-- Node9 -->
<g id="node9" class="node">
<title>Node9</title>
<g id="a_node9"><a xlink:href="../../d3/d04/class_t___m_e_s_h_1_1_list.html#a700222ddbd4160a36795249926752f79" target="_top" xlink:title="Gets the last node, NULL if empty. &#160;&#160;O(1).">
<polygon fill="white" stroke="black" points="214,-0.5 214,-19.5 312,-19.5 312,-0.5 214,-0.5"/>
<text text-anchor="middle" x="263" y="-7.5" font-family="Helvetica,sans-Serif" font-size="10.00">T_MESH::List::tail</text>
</a>
</g>
</g>
<!-- Node1&#45;&gt;Node9 -->
<g id="edge8" class="edge">
<title>Node1&#45;&gt;Node9</title>
<path fill="none" stroke="midnightblue" d="M95.17,-108.91C115.56,-88.03 155.23,-50.51 196,-29 200.26,-26.75 204.81,-24.74 209.47,-22.95"/>
<polygon fill="midnightblue" stroke="midnightblue" points="210.82,-26.19 219.1,-19.57 208.5,-19.58 210.82,-26.19"/>
</g>
<!-- Node4 -->
<g id="node4" class="node">
<title>Node4</title>
<g id="a_node4"><a xlink:href="../../d3/d04/class_t___m_e_s_h_1_1_list.html#af0e61026072f65c9ba882df526acfd2e" target="_top" xlink:title="Gets the number of elements. &#160;&#160;O(1).">
<polygon fill="white" stroke="black" points="366,-207.5 366,-226.5 482,-226.5 482,-207.5 366,-207.5"/>
<text text-anchor="middle" x="424" y="-214.5" font-family="Helvetica,sans-Serif" font-size="10.00">T_MESH::List::numels</text>
</a>
</g>
</g>
<!-- Node3&#45;&gt;Node4 -->
<g id="edge3" class="edge">
<title>Node3&#45;&gt;Node4</title>
<path fill="none" stroke="midnightblue" d="M321.4,-217C332.5,-217 344.23,-217 355.61,-217"/>
<polygon fill="midnightblue" stroke="midnightblue" points="355.95,-220.5 365.95,-217 355.95,-213.5 355.95,-220.5"/>
</g>
</g>
</svg>
