<?xml version="1.0" encoding="UTF-8" standalone="no"?>
<!DOCTYPE svg PUBLIC "-//W3C//DTD SVG 1.1//EN"
 "http://www.w3.org/Graphics/SVG/1.1/DTD/svg11.dtd">
<!-- Generated by graphviz version 2.44.0 (0)
 -->
<!-- Title: touchpointregistry.h Pages: 1 -->
<svg width="3672pt" height="319pt"
 viewBox="0.00 0.00 3672.50 319.00" xmlns="http://www.w3.org/2000/svg" xmlns:xlink="http://www.w3.org/1999/xlink">
<g id="graph0" class="graph" transform="scale(1 1) rotate(0) translate(4 315)">
<title>touchpointregistry.h</title>
<polygon fill="white" stroke="transparent" points="-4,4 -4,-315 3668.5,-315 3668.5,4 -4,4"/>
<!-- Node1 -->
<g id="node1" class="node">
<title>Node1</title>
<g id="a_node1"><a xlink:title="The TouchpointRegistry manages all touchpoints which are registered / added to the application.">
<polygon fill="#bfbfbf" stroke="black" points="3264.5,-291.5 3264.5,-310.5 3365.5,-310.5 3365.5,-291.5 3264.5,-291.5"/>
<text text-anchor="middle" x="3315" y="-298.5" font-family="Helvetica,sans-Serif" font-size="10.00">touchpointregistry.h</text>
</a>
</g>
</g>
<!-- Node2 -->
<g id="node2" class="node">
<title>Node2</title>
<g id="a_node2"><a xlink:title=" ">
<polygon fill="white" stroke="#bfbfbf" points="1304,-179.5 1304,-198.5 1348,-198.5 1348,-179.5 1304,-179.5"/>
<text text-anchor="middle" x="1326" y="-186.5" font-family="Helvetica,sans-Serif" font-size="10.00">vector</text>
</a>
</g>
</g>
<!-- Node1&#45;&gt;Node2 -->
<g id="edge1" class="edge">
<title>Node1&#45;&gt;Node2</title>
<path fill="none" stroke="midnightblue" d="M3264.18,-299.71C3021.71,-298.19 1980.79,-289.69 1658,-255 1546.72,-243.04 1417.15,-212.87 1358.18,-198.23"/>
<polygon fill="midnightblue" stroke="midnightblue" points="1358.89,-194.8 1348.34,-195.76 1357.19,-201.59 1358.89,-194.8"/>
</g>
<!-- Node3 -->
<g id="node3" class="node">
<title>Node3</title>
<g id="a_node3"><a xlink:title=" ">
<polygon fill="white" stroke="#bfbfbf" points="3442,-235.5 3442,-254.5 3494,-254.5 3494,-235.5 3442,-235.5"/>
<text text-anchor="middle" x="3468" y="-242.5" font-family="Helvetica,sans-Serif" font-size="10.00">memory</text>
</a>
</g>
</g>
<!-- Node1&#45;&gt;Node3 -->
<g id="edge2" class="edge">
<title>Node1&#45;&gt;Node3</title>
<path fill="none" stroke="midnightblue" d="M3339.24,-291.44C3364.87,-282.4 3405.48,-268.06 3434.24,-257.92"/>
<polygon fill="midnightblue" stroke="midnightblue" points="3435.6,-261.15 3443.87,-254.52 3433.27,-254.54 3435.6,-261.15"/>
</g>
<!-- Node4 -->
<g id="node4" class="node">
<title>Node4</title>
<g id="a_node4"><a xlink:title=" ">
<polygon fill="white" stroke="#bfbfbf" points="3512.5,-235.5 3512.5,-254.5 3553.5,-254.5 3553.5,-235.5 3512.5,-235.5"/>
<text text-anchor="middle" x="3533" y="-242.5" font-family="Helvetica,sans-Serif" font-size="10.00">string</text>
</a>
</g>
</g>
<!-- Node1&#45;&gt;Node4 -->
<g id="edge3" class="edge">
<title>Node1&#45;&gt;Node4</title>
<path fill="none" stroke="midnightblue" d="M3353.33,-291.49C3389.35,-283.35 3444.97,-270.4 3502.4,-255.04"/>
<polygon fill="midnightblue" stroke="midnightblue" points="3503.64,-258.33 3512.39,-252.35 3501.82,-251.57 3503.64,-258.33"/>
</g>
<!-- Node5 -->
<g id="node5" class="node">
<title>Node5</title>
<g id="a_node5"><a xlink:title=" ">
<polygon fill="white" stroke="#bfbfbf" points="3132,-0.5 3132,-19.5 3178,-19.5 3178,-0.5 3132,-0.5"/>
<text text-anchor="middle" x="3155" y="-7.5" font-family="Helvetica,sans-Serif" font-size="10.00">cstdint</text>
</a>
</g>
</g>
<!-- Node1&#45;&gt;Node5 -->
<g id="edge4" class="edge">
<title>Node1&#45;&gt;Node5</title>
<path fill="none" stroke="midnightblue" d="M3328.74,-291.46C3367.25,-266.41 3470.99,-190.62 3433,-123 3383.85,-35.52 3251,-16.28 3188.44,-12.11"/>
<polygon fill="midnightblue" stroke="midnightblue" points="3188.5,-8.61 3178.31,-11.53 3188.1,-15.6 3188.5,-8.61"/>
</g>
<!-- Node6 -->
<g id="node6" class="node">
<title>Node6</title>
<g id="a_node6"><a xlink:title=" ">
<polygon fill="white" stroke="#bfbfbf" points="3183,-123.5 3183,-142.5 3257,-142.5 3257,-123.5 3183,-123.5"/>
<text text-anchor="middle" x="3220" y="-130.5" font-family="Helvetica,sans-Serif" font-size="10.00">vtkProperty.h</text>
</a>
</g>
</g>
<!-- Node1&#45;&gt;Node6 -->
<g id="edge5" class="edge">
<title>Node1&#45;&gt;Node6</title>
<path fill="none" stroke="midnightblue" d="M3309.89,-291.08C3294.81,-264.72 3250.26,-186.88 3230.11,-151.66"/>
<polygon fill="midnightblue" stroke="midnightblue" points="3232.91,-149.51 3224.9,-142.57 3226.83,-152.99 3232.91,-149.51"/>
</g>
<!-- Node7 -->
<g id="node7" class="node">
<title>Node7</title>
<g id="a_node7"><a xlink:title=" ">
<polygon fill="white" stroke="#bfbfbf" points="16,-62 16,-81 78,-81 78,-62 16,-62"/>
<text text-anchor="middle" x="47" y="-69" font-family="Helvetica,sans-Serif" font-size="10.00">vtkActor.h</text>
</a>
</g>
</g>
<!-- Node1&#45;&gt;Node7 -->
<g id="edge6" class="edge">
<title>Node1&#45;&gt;Node7</title>
<path fill="none" stroke="midnightblue" d="M3264.38,-299.62C2994.56,-297.47 1723.2,-285.83 1331,-255 774.81,-211.27 628.78,-220.16 87,-87 83.94,-86.25 80.79,-85.35 77.67,-84.36"/>
<polygon fill="midnightblue" stroke="midnightblue" points="78.51,-80.95 67.91,-81.03 76.25,-87.57 78.51,-80.95"/>
</g>
<!-- Node8 -->
<g id="node8" class="node">
<title>Node8</title>
<g id="a_node8"><a xlink:title=" ">
<polygon fill="white" stroke="#bfbfbf" points="3275.5,-123.5 3275.5,-142.5 3406.5,-142.5 3406.5,-123.5 3275.5,-123.5"/>
<text text-anchor="middle" x="3341" y="-130.5" font-family="Helvetica,sans-Serif" font-size="10.00">vtkBillboardTextActor3D.h</text>
</a>
</g>
</g>
<!-- Node1&#45;&gt;Node8 -->
<g id="edge7" class="edge">
<title>Node1&#45;&gt;Node8</title>
<path fill="none" stroke="midnightblue" d="M3318.33,-291.17C3321.58,-282.2 3326.39,-267.83 3329,-255 3336.25,-219.26 3339.18,-176.66 3340.32,-152.73"/>
<polygon fill="midnightblue" stroke="midnightblue" points="3343.82,-152.74 3340.74,-142.6 3336.83,-152.44 3343.82,-152.74"/>
</g>
<!-- Node9 -->
<g id="node9" class="node">
<title>Node9</title>
<g id="a_node9"><a xlink:title=" ">
<polygon fill="white" stroke="#bfbfbf" points="3571.5,-235.5 3571.5,-254.5 3664.5,-254.5 3664.5,-235.5 3571.5,-235.5"/>
<text text-anchor="middle" x="3618" y="-242.5" font-family="Helvetica,sans-Serif" font-size="10.00">vtkTextProperty.h</text>
</a>
</g>
</g>
<!-- Node1&#45;&gt;Node9 -->
<g id="edge8" class="edge">
<title>Node1&#45;&gt;Node9</title>
<path fill="none" stroke="midnightblue" d="M3363.01,-291.44C3416.85,-281.85 3504.08,-266.3 3561.25,-256.11"/>
<polygon fill="midnightblue" stroke="midnightblue" points="3561.98,-259.54 3571.21,-254.34 3560.75,-252.65 3561.98,-259.54"/>
</g>
<!-- Node10 -->
<g id="node10" class="node">
<title>Node10</title>
<g id="a_node10"><a xlink:href="../../da/dca/touchpoint_8h.html" target="_top" xlink:title="The touchpoint object is the central design object which holds all touchpoint specific informations.">
<polygon fill="white" stroke="black" points="2438,-179.5 2438,-198.5 2530,-198.5 2530,-179.5 2438,-179.5"/>
<text text-anchor="middle" x="2484" y="-186.5" font-family="Helvetica,sans-Serif" font-size="10.00">core/touchpoint.h</text>
</a>
</g>
</g>
<!-- Node1&#45;&gt;Node10 -->
<g id="edge9" class="edge">
<title>Node1&#45;&gt;Node10</title>
<path fill="none" stroke="midnightblue" d="M3264.27,-293.28C3117.61,-273.87 2693.81,-217.77 2540.34,-197.46"/>
<polygon fill="midnightblue" stroke="midnightblue" points="2540.57,-193.96 2530.19,-196.11 2539.65,-200.9 2540.57,-193.96"/>
</g>
<!-- Node99 -->
<g id="node50" class="node">
<title>Node99</title>
<g id="a_node50"><a xlink:href="../../d4/d67/connection_8h.html" target="_top" xlink:title="Connection between a touchpoint and a connector.">
<polygon fill="white" stroke="black" points="1667,-235.5 1667,-254.5 1761,-254.5 1761,-235.5 1667,-235.5"/>
<text text-anchor="middle" x="1714" y="-242.5" font-family="Helvetica,sans-Serif" font-size="10.00">core/connection.h</text>
</a>
</g>
</g>
<!-- Node1&#45;&gt;Node99 -->
<g id="edge71" class="edge">
<title>Node1&#45;&gt;Node99</title>
<path fill="none" stroke="midnightblue" d="M3264.44,-298.29C3026.82,-290.28 2022.11,-256.39 1771.04,-247.92"/>
<polygon fill="midnightblue" stroke="midnightblue" points="1771.15,-244.43 1761.04,-247.59 1770.92,-251.42 1771.15,-244.43"/>
</g>
<!-- Node10&#45;&gt;Node5 -->
<g id="edge11" class="edge">
<title>Node10&#45;&gt;Node5</title>
<path fill="none" stroke="midnightblue" d="M2530.25,-188.1C2671.74,-187.95 3091.83,-184.02 3136,-143 3167.15,-114.07 3163.39,-58.73 3158.77,-29.75"/>
<polygon fill="midnightblue" stroke="midnightblue" points="3162.18,-28.95 3156.97,-19.73 3155.29,-30.19 3162.18,-28.95"/>
</g>
<!-- Node10&#45;&gt;Node6 -->
<g id="edge23" class="edge">
<title>Node10&#45;&gt;Node6</title>
<path fill="none" stroke="midnightblue" d="M2530.26,-186.7C2640.96,-183.22 2929.69,-171.89 3169,-143 3170.25,-142.85 3171.52,-142.69 3172.81,-142.52"/>
<polygon fill="midnightblue" stroke="midnightblue" points="3173.36,-145.97 3182.74,-141.06 3172.34,-139.05 3173.36,-145.97"/>
</g>
<!-- Node10&#45;&gt;Node7 -->
<g id="edge19" class="edge">
<title>Node10&#45;&gt;Node7</title>
<path fill="none" stroke="midnightblue" d="M2437.85,-187.27C2268.87,-184.37 1684.18,-172.41 1500,-143 1467.2,-137.76 1460.84,-127.93 1428,-123 1133.19,-78.78 379.89,-142.51 87,-87 83.48,-86.33 79.86,-85.4 76.3,-84.32"/>
<polygon fill="midnightblue" stroke="midnightblue" points="77.18,-80.92 66.58,-81.02 74.92,-87.55 77.18,-80.92"/>
</g>
<!-- Node10&#45;&gt;Node8 -->
<g id="edge29" class="edge">
<title>Node10&#45;&gt;Node8</title>
<path fill="none" stroke="midnightblue" d="M2530.35,-186.34C2650.03,-181.82 2979.45,-168.05 3265.03,-143.03"/>
<polygon fill="midnightblue" stroke="midnightblue" points="3265.52,-146.5 3275.17,-142.13 3264.9,-139.53 3265.52,-146.5"/>
</g>
<!-- Node11 -->
<g id="node11" class="node">
<title>Node11</title>
<g id="a_node11"><a xlink:title=" ">
<polygon fill="white" stroke="#bfbfbf" points="2305,-123.5 2305,-142.5 2343,-142.5 2343,-123.5 2305,-123.5"/>
<text text-anchor="middle" x="2324" y="-130.5" font-family="Helvetica,sans-Serif" font-size="10.00">array</text>
</a>
</g>
</g>
<!-- Node10&#45;&gt;Node11 -->
<g id="edge10" class="edge">
<title>Node10&#45;&gt;Node11</title>
<path fill="none" stroke="midnightblue" d="M2458.65,-179.44C2429.83,-169.72 2382.89,-153.88 2352.74,-143.7"/>
<polygon fill="midnightblue" stroke="midnightblue" points="2353.8,-140.36 2343.21,-140.48 2351.56,-147 2353.8,-140.36"/>
</g>
<!-- Node12 -->
<g id="node12" class="node">
<title>Node12</title>
<g id="a_node12"><a xlink:title=" ">
<polygon fill="white" stroke="#bfbfbf" points="2134.5,-62 2134.5,-81 2229.5,-81 2229.5,-62 2134.5,-62"/>
<text text-anchor="middle" x="2182" y="-69" font-family="Helvetica,sans-Serif" font-size="10.00">vtkSmartPointer.h</text>
</a>
</g>
</g>
<!-- Node10&#45;&gt;Node12 -->
<g id="edge12" class="edge">
<title>Node10&#45;&gt;Node12</title>
<path fill="none" stroke="midnightblue" d="M2437.68,-186.97C2325.57,-184.02 2046.8,-173.63 2019,-143 2013.02,-136.42 2013.72,-130.16 2019,-123 2022.76,-117.89 2094.48,-97.01 2141.52,-83.75"/>
<polygon fill="midnightblue" stroke="midnightblue" points="2142.47,-87.11 2151.15,-81.04 2140.58,-80.38 2142.47,-87.11"/>
</g>
<!-- Node13 -->
<g id="node13" class="node">
<title>Node13</title>
<g id="a_node13"><a xlink:title=" ">
<polygon fill="white" stroke="#bfbfbf" points="2248,-62 2248,-81 2306,-81 2306,-62 2248,-62"/>
<text text-anchor="middle" x="2277" y="-69" font-family="Helvetica,sans-Serif" font-size="10.00">vtkNew.h</text>
</a>
</g>
</g>
<!-- Node10&#45;&gt;Node13 -->
<g id="edge13" class="edge">
<title>Node10&#45;&gt;Node13</title>
<path fill="none" stroke="midnightblue" d="M2437.66,-186.89C2326.95,-183.76 2054.24,-173.05 2027,-143 2021.03,-136.41 2021.27,-129.79 2027,-123 2057.67,-86.65 2192.06,-99.34 2238,-87 2240.81,-86.24 2243.7,-85.37 2246.58,-84.43"/>
<polygon fill="midnightblue" stroke="midnightblue" points="2247.91,-87.67 2256.18,-81.06 2245.59,-81.07 2247.91,-87.67"/>
</g>
<!-- Node14 -->
<g id="node14" class="node">
<title>Node14</title>
<g id="a_node14"><a xlink:title=" ">
<polygon fill="white" stroke="#bfbfbf" points="2933,-0.5 2933,-19.5 2999,-19.5 2999,-0.5 2933,-0.5"/>
<text text-anchor="middle" x="2966" y="-7.5" font-family="Helvetica,sans-Serif" font-size="10.00">vtkVector.h</text>
</a>
</g>
</g>
<!-- Node10&#45;&gt;Node14 -->
<g id="edge14" class="edge">
<title>Node10&#45;&gt;Node14</title>
<path fill="none" stroke="midnightblue" d="M2504.03,-179.49C2537.42,-165.63 2606.84,-138.2 2668,-123 2773.53,-96.77 2816.83,-143.07 2910,-87 2932.64,-73.37 2948.98,-46.76 2957.97,-28.93"/>
<polygon fill="midnightblue" stroke="midnightblue" points="2961.16,-30.37 2962.3,-19.83 2954.84,-27.35 2961.16,-30.37"/>
</g>
<!-- Node15 -->
<g id="node15" class="node">
<title>Node15</title>
<g id="a_node15"><a xlink:title=" ">
<polygon fill="white" stroke="#bfbfbf" points="2007.5,-62 2007.5,-81 2116.5,-81 2116.5,-62 2007.5,-62"/>
<text text-anchor="middle" x="2062" y="-69" font-family="Helvetica,sans-Serif" font-size="10.00">vtkVectorOperators.h</text>
</a>
</g>
</g>
<!-- Node10&#45;&gt;Node15 -->
<g id="edge15" class="edge">
<title>Node10&#45;&gt;Node15</title>
<path fill="none" stroke="midnightblue" d="M2437.72,-187.06C2324.25,-184.27 2039.37,-174.2 2011,-143 1994.64,-125.01 2019.03,-101.76 2039.38,-86.99"/>
<polygon fill="midnightblue" stroke="midnightblue" points="2041.49,-89.78 2047.73,-81.21 2037.51,-84.02 2041.49,-89.78"/>
</g>
<!-- Node16 -->
<g id="node16" class="node">
<title>Node16</title>
<g id="a_node16"><a xlink:title=" ">
<polygon fill="white" stroke="#bfbfbf" points="2438,-62 2438,-81 2520,-81 2520,-62 2438,-62"/>
<text text-anchor="middle" x="2479" y="-69" font-family="Helvetica,sans-Serif" font-size="10.00">vtkVectorDot.h</text>
</a>
</g>
</g>
<!-- Node10&#45;&gt;Node16 -->
<g id="edge16" class="edge">
<title>Node10&#45;&gt;Node16</title>
<path fill="none" stroke="midnightblue" d="M2504.44,-179.49C2527.86,-168.38 2561.5,-147.44 2549,-123 2540.52,-106.43 2523.79,-94.05 2508.81,-85.69"/>
<polygon fill="midnightblue" stroke="midnightblue" points="2510.29,-82.52 2499.8,-81.01 2507.06,-88.73 2510.29,-82.52"/>
</g>
<!-- Node17 -->
<g id="node17" class="node">
<title>Node17</title>
<g id="a_node17"><a xlink:title=" ">
<polygon fill="white" stroke="#bfbfbf" points="2576,-62 2576,-81 2666,-81 2666,-62 2576,-62"/>
<text text-anchor="middle" x="2621" y="-69" font-family="Helvetica,sans-Serif" font-size="10.00">vtkVectorNorm.h</text>
</a>
</g>
</g>
<!-- Node10&#45;&gt;Node17 -->
<g id="edge17" class="edge">
<title>Node10&#45;&gt;Node17</title>
<path fill="none" stroke="midnightblue" d="M2504.35,-179.43C2521.62,-171.54 2546.47,-158.71 2565,-143 2583.36,-127.43 2599.9,-105.07 2610.16,-89.73"/>
<polygon fill="midnightblue" stroke="midnightblue" points="2613.19,-91.51 2615.7,-81.21 2607.32,-87.69 2613.19,-91.51"/>
</g>
<!-- Node18 -->
<g id="node18" class="node">
<title>Node18</title>
<g id="a_node18"><a xlink:title=" ">
<polygon fill="white" stroke="#bfbfbf" points="402.5,-0.5 402.5,-19.5 481.5,-19.5 481.5,-0.5 402.5,-0.5"/>
<text text-anchor="middle" x="442" y="-7.5" font-family="Helvetica,sans-Serif" font-size="10.00">vtkPolyData.h</text>
</a>
</g>
</g>
<!-- Node10&#45;&gt;Node18 -->
<g id="edge18" class="edge">
<title>Node10&#45;&gt;Node18</title>
<path fill="none" stroke="midnightblue" d="M2437.59,-187.98C2317.17,-187.15 2007.62,-179.55 2060,-123 2131.03,-46.31 2457.97,-163.69 2529,-87 2538.36,-76.89 2538.64,-65.85 2529,-56 2492.21,-18.41 804.63,-11.99 491.65,-11.12"/>
<polygon fill="midnightblue" stroke="midnightblue" points="491.54,-7.62 481.53,-11.09 491.52,-14.62 491.54,-7.62"/>
</g>
<!-- Node19 -->
<g id="node19" class="node">
<title>Node19</title>
<g id="a_node19"><a xlink:title=" ">
<polygon fill="white" stroke="#bfbfbf" points="2324,-62 2324,-81 2420,-81 2420,-62 2324,-62"/>
<text text-anchor="middle" x="2372" y="-69" font-family="Helvetica,sans-Serif" font-size="10.00">vtkBoundingBox.h</text>
</a>
</g>
</g>
<!-- Node10&#45;&gt;Node19 -->
<g id="edge20" class="edge">
<title>Node10&#45;&gt;Node19</title>
<path fill="none" stroke="midnightblue" d="M2494.01,-179.07C2507.39,-166.04 2527.99,-141.37 2515,-123 2508.76,-114.18 2451.77,-95.92 2411.65,-83.94"/>
<polygon fill="midnightblue" stroke="midnightblue" points="2412.43,-80.53 2401.85,-81.04 2410.45,-87.24 2412.43,-80.53"/>
</g>
<!-- Node20 -->
<g id="node20" class="node">
<title>Node20</title>
<g id="a_node20"><a xlink:title=" ">
<polygon fill="white" stroke="#bfbfbf" points="1761,-123.5 1761,-142.5 1861,-142.5 1861,-123.5 1761,-123.5"/>
<text text-anchor="middle" x="1811" y="-130.5" font-family="Helvetica,sans-Serif" font-size="10.00">vtkSphereSource.h</text>
</a>
</g>
</g>
<!-- Node10&#45;&gt;Node20 -->
<g id="edge21" class="edge">
<title>Node10&#45;&gt;Node20</title>
<path fill="none" stroke="midnightblue" d="M2437.73,-184.5C2340.52,-177.12 2107.97,-159.28 1913,-143 1899.52,-141.87 1885.04,-140.62 1871.34,-139.42"/>
<polygon fill="midnightblue" stroke="midnightblue" points="1871.32,-135.9 1861.05,-138.51 1870.71,-142.88 1871.32,-135.9"/>
</g>
<!-- Node21 -->
<g id="node21" class="node">
<title>Node21</title>
<g id="a_node21"><a xlink:title=" ">
<polygon fill="white" stroke="#bfbfbf" points="96.5,-62 96.5,-81 207.5,-81 207.5,-62 96.5,-62"/>
<text text-anchor="middle" x="152" y="-69" font-family="Helvetica,sans-Serif" font-size="10.00">vtkPolyDataMapper.h</text>
</a>
</g>
</g>
<!-- Node10&#45;&gt;Node21 -->
<g id="edge22" class="edge">
<title>Node10&#45;&gt;Node21</title>
<path fill="none" stroke="midnightblue" d="M2437.9,-188.13C2273.8,-188.23 1718.77,-185.34 1547,-143 1526.53,-137.96 1524.51,-127.84 1504,-123 1230.74,-58.46 520.51,-113.63 241,-87 230.02,-85.95 218.35,-84.39 207.19,-82.66"/>
<polygon fill="midnightblue" stroke="midnightblue" points="207.55,-79.18 197.12,-81.05 206.44,-86.09 207.55,-79.18"/>
</g>
<!-- Node22 -->
<g id="node22" class="node">
<title>Node22</title>
<g id="a_node22"><a xlink:title=" ">
<polygon fill="white" stroke="#bfbfbf" points="2684.5,-62 2684.5,-81 2767.5,-81 2767.5,-62 2684.5,-62"/>
<text text-anchor="middle" x="2726" y="-69" font-family="Helvetica,sans-Serif" font-size="10.00">vtkTransform.h</text>
</a>
</g>
</g>
<!-- Node10&#45;&gt;Node22 -->
<g id="edge24" class="edge">
<title>Node10&#45;&gt;Node22</title>
<path fill="none" stroke="midnightblue" d="M2530.16,-186.26C2631.12,-181.97 2864.47,-169.3 2888,-143 2893.93,-136.38 2893.27,-130.16 2888,-123 2886.1,-120.42 2811.84,-97.99 2764.54,-83.9"/>
<polygon fill="midnightblue" stroke="midnightblue" points="2765.47,-80.53 2754.89,-81.03 2763.47,-87.24 2765.47,-80.53"/>
</g>
<!-- Node23 -->
<g id="node23" class="node">
<title>Node23</title>
<g id="a_node23"><a xlink:title=" ">
<polygon fill="white" stroke="#bfbfbf" points="2361.5,-123.5 2361.5,-142.5 2506.5,-142.5 2506.5,-123.5 2361.5,-123.5"/>
<text text-anchor="middle" x="2434" y="-130.5" font-family="Helvetica,sans-Serif" font-size="10.00">vtkTransformPolyDataFilter.h</text>
</a>
</g>
</g>
<!-- Node10&#45;&gt;Node23 -->
<g id="edge25" class="edge">
<title>Node10&#45;&gt;Node23</title>
<path fill="none" stroke="midnightblue" d="M2475.74,-179.08C2468.53,-171.3 2457.89,-159.8 2449.15,-150.37"/>
<polygon fill="midnightblue" stroke="midnightblue" points="2451.46,-147.71 2442.1,-142.75 2446.33,-152.47 2451.46,-147.71"/>
</g>
<!-- Node24 -->
<g id="node24" class="node">
<title>Node24</title>
<g id="a_node24"><a xlink:title=" ">
<polygon fill="white" stroke="#bfbfbf" points="2677,-123.5 2677,-142.5 2775,-142.5 2775,-123.5 2677,-123.5"/>
<text text-anchor="middle" x="2726" y="-130.5" font-family="Helvetica,sans-Serif" font-size="10.00">vtkNamedColors.h</text>
</a>
</g>
</g>
<!-- Node10&#45;&gt;Node24 -->
<g id="edge26" class="edge">
<title>Node10&#45;&gt;Node24</title>
<path fill="none" stroke="midnightblue" d="M2522.34,-179.44C2564.47,-170.04 2632.2,-154.93 2677.87,-144.74"/>
<polygon fill="midnightblue" stroke="midnightblue" points="2678.83,-148.11 2687.83,-142.52 2677.31,-141.28 2678.83,-148.11"/>
</g>
<!-- Node25 -->
<g id="node25" class="node">
<title>Node25</title>
<g id="a_node25"><a xlink:title=" ">
<polygon fill="white" stroke="#bfbfbf" points="2785.5,-62 2785.5,-81 2900.5,-81 2900.5,-62 2785.5,-62"/>
<text text-anchor="middle" x="2843" y="-69" font-family="Helvetica,sans-Serif" font-size="10.00">vtkModifiedBSPTree.h</text>
</a>
</g>
</g>
<!-- Node10&#45;&gt;Node25 -->
<g id="edge27" class="edge">
<title>Node10&#45;&gt;Node25</title>
<path fill="none" stroke="midnightblue" d="M2530.03,-186.47C2633.89,-182.55 2879.34,-170.44 2904,-143 2921.55,-123.46 2892.34,-100.37 2868.6,-86.08"/>
<polygon fill="midnightblue" stroke="midnightblue" points="2870.29,-83.01 2859.88,-81.05 2866.8,-89.08 2870.29,-83.01"/>
</g>
<!-- Node26 -->
<g id="node26" class="node">
<title>Node26</title>
<g id="a_node26"><a xlink:title=" ">
<polygon fill="white" stroke="#bfbfbf" points="2793,-123.5 2793,-142.5 2879,-142.5 2879,-123.5 2793,-123.5"/>
<text text-anchor="middle" x="2836" y="-130.5" font-family="Helvetica,sans-Serif" font-size="10.00">vtkImageData.h</text>
</a>
</g>
</g>
<!-- Node10&#45;&gt;Node26 -->
<g id="edge28" class="edge">
<title>Node10&#45;&gt;Node26</title>
<path fill="none" stroke="midnightblue" d="M2530.05,-181.42C2586.96,-173.22 2687.04,-158.55 2782.74,-143.17"/>
<polygon fill="midnightblue" stroke="midnightblue" points="2783.57,-146.59 2792.88,-141.54 2782.45,-139.68 2783.57,-146.59"/>
</g>
<!-- Node27 -->
<g id="node27" class="node">
<title>Node27</title>
<g id="a_node27"><a xlink:title=" ">
<polygon fill="white" stroke="#bfbfbf" points="3011,-123.5 3011,-142.5 3127,-142.5 3127,-123.5 3011,-123.5"/>
<text text-anchor="middle" x="3069" y="-130.5" font-family="Helvetica,sans-Serif" font-size="10.00">vtkPolyDataNormals.h</text>
</a>
</g>
</g>
<!-- Node10&#45;&gt;Node27 -->
<g id="edge30" class="edge">
<title>Node10&#45;&gt;Node27</title>
<path fill="none" stroke="midnightblue" d="M2530.04,-184.53C2619.91,-177.64 2824.97,-161.29 2997,-143 2998.27,-142.87 2999.55,-142.73 3000.84,-142.59"/>
<polygon fill="midnightblue" stroke="midnightblue" points="3001.32,-146.05 3010.86,-141.45 3000.53,-139.1 3001.32,-146.05"/>
</g>
<!-- Node28 -->
<g id="node28" class="node">
<title>Node28</title>
<g id="a_node28"><a xlink:title=" ">
<polygon fill="white" stroke="#bfbfbf" points="2069.5,-123.5 2069.5,-142.5 2164.5,-142.5 2164.5,-123.5 2069.5,-123.5"/>
<text text-anchor="middle" x="2117" y="-130.5" font-family="Helvetica,sans-Serif" font-size="10.00">vtkTriangleFilter.h</text>
</a>
</g>
</g>
<!-- Node10&#45;&gt;Node28 -->
<g id="edge31" class="edge">
<title>Node10&#45;&gt;Node28</title>
<path fill="none" stroke="midnightblue" d="M2437.75,-181.47C2379.1,-173.15 2274.57,-158.18 2174.55,-143.07"/>
<polygon fill="midnightblue" stroke="midnightblue" points="2174.99,-139.59 2164.58,-141.56 2173.94,-146.52 2174.99,-139.59"/>
</g>
<!-- Node29 -->
<g id="node29" class="node">
<title>Node29</title>
<g id="a_node29"><a xlink:title=" ">
<polygon fill="white" stroke="#bfbfbf" points="2183,-123.5 2183,-142.5 2287,-142.5 2287,-123.5 2183,-123.5"/>
<text text-anchor="middle" x="2235" y="-130.5" font-family="Helvetica,sans-Serif" font-size="10.00">vtkCleanPolyData.h</text>
</a>
</g>
</g>
<!-- Node10&#45;&gt;Node29 -->
<g id="edge32" class="edge">
<title>Node10&#45;&gt;Node29</title>
<path fill="none" stroke="midnightblue" d="M2444.54,-179.44C2401.11,-170.02 2331.21,-154.87 2284.22,-144.68"/>
<polygon fill="midnightblue" stroke="midnightblue" points="2284.78,-141.22 2274.27,-142.52 2283.3,-148.06 2284.78,-141.22"/>
</g>
<!-- Node30 -->
<g id="node30" class="node">
<title>Node30</title>
<g id="a_node30"><a xlink:href="../../d2/d6f/constants_8h.html" target="_top" xlink:title="Application / Algorithm specific global constants.">
<polygon fill="white" stroke="black" points="2957.5,-62 2957.5,-81 3046.5,-81 3046.5,-62 2957.5,-62"/>
<text text-anchor="middle" x="3002" y="-69" font-family="Helvetica,sans-Serif" font-size="10.00">core/constants.h</text>
</a>
</g>
</g>
<!-- Node10&#45;&gt;Node30 -->
<g id="edge33" class="edge">
<title>Node10&#45;&gt;Node30</title>
<path fill="none" stroke="midnightblue" d="M2530.34,-186.7C2627.83,-183.42 2850.8,-172.79 2920,-143 2947.9,-130.99 2973.29,-106 2988.19,-89.23"/>
<polygon fill="midnightblue" stroke="midnightblue" points="2991.13,-91.19 2994.99,-81.33 2985.82,-86.63 2991.13,-91.19"/>
</g>
<!-- Node31 -->
<g id="node31" class="node">
<title>Node31</title>
<g id="a_node31"><a xlink:href="../../d5/d60/utils_8h.html" target="_top" xlink:title="Various utility algorithms needed by various parts of the application.">
<polygon fill="white" stroke="red" points="1556,-123.5 1556,-142.5 1620,-142.5 1620,-123.5 1556,-123.5"/>
<text text-anchor="middle" x="1588" y="-130.5" font-family="Helvetica,sans-Serif" font-size="10.00">utils/utils.h</text>
</a>
</g>
</g>
<!-- Node10&#45;&gt;Node31 -->
<g id="edge36" class="edge">
<title>Node10&#45;&gt;Node31</title>
<path fill="none" stroke="midnightblue" d="M2437.98,-185.41C2282.64,-176.34 1779.56,-146.03 1630.15,-136.73"/>
<polygon fill="midnightblue" stroke="midnightblue" points="1630.21,-133.23 1620.01,-136.1 1629.77,-140.22 1630.21,-133.23"/>
</g>
<!-- Node30&#45;&gt;Node5 -->
<g id="edge34" class="edge">
<title>Node30&#45;&gt;Node5</title>
<path fill="none" stroke="midnightblue" d="M3023.92,-61.98C3050.05,-51.81 3093.91,-34.76 3123.63,-23.2"/>
<polygon fill="midnightblue" stroke="midnightblue" points="3125.07,-26.4 3133.12,-19.51 3122.53,-19.87 3125.07,-26.4"/>
</g>
<!-- Node30&#45;&gt;Node14 -->
<g id="edge35" class="edge">
<title>Node30&#45;&gt;Node14</title>
<path fill="none" stroke="midnightblue" d="M2996.84,-61.98C2991.55,-53.23 2983.16,-39.37 2976.47,-28.31"/>
<polygon fill="midnightblue" stroke="midnightblue" points="2979.32,-26.25 2971.15,-19.51 2973.33,-29.88 2979.32,-26.25"/>
</g>
<!-- Node31&#45;&gt;Node1 -->
<g id="edge70" class="edge">
<title>Node31&#45;&gt;Node1</title>
<path fill="none" stroke="midnightblue" d="M1555.85,-133.92C1486.9,-134.5 1328.35,-140.14 1295,-179 1289.21,-185.75 1289.5,-192.01 1295,-199 1360.31,-282.03 1421.27,-241.15 1526,-255 1870.96,-300.62 2981.89,-300.86 3254.28,-300.21"/>
<polygon fill="midnightblue" stroke="midnightblue" points="3254.38,-303.7 3264.37,-300.18 3254.36,-296.7 3254.38,-303.7"/>
</g>
<!-- Node31&#45;&gt;Node7 -->
<g id="edge59" class="edge">
<title>Node31&#45;&gt;Node7</title>
<path fill="none" stroke="midnightblue" d="M1555.92,-129.21C1531.33,-127.18 1496.54,-124.52 1466,-123 1159.83,-107.72 388.21,-143.97 87,-87 83.48,-86.33 79.86,-85.4 76.3,-84.33"/>
<polygon fill="midnightblue" stroke="midnightblue" points="77.18,-80.93 66.58,-81.02 74.92,-87.55 77.18,-80.93"/>
</g>
<!-- Node31&#45;&gt;Node10 -->
<g id="edge69" class="edge">
<title>Node31&#45;&gt;Node10</title>
<path fill="none" stroke="midnightblue" d="M1620.16,-135.78C1752.84,-143.47 2257.89,-173.88 2427.86,-184.4"/>
<polygon fill="midnightblue" stroke="midnightblue" points="2427.65,-187.89 2437.85,-185.02 2428.09,-180.91 2427.65,-187.89"/>
</g>
<!-- Node31&#45;&gt;Node12 -->
<g id="edge44" class="edge">
<title>Node31&#45;&gt;Node12</title>
<path fill="none" stroke="midnightblue" d="M1620.27,-128.75C1638.16,-126.98 1660.8,-124.8 1681,-123 1878.2,-105.46 1929.71,-119.52 2125,-87 2130.6,-86.07 2136.46,-84.85 2142.2,-83.53"/>
<polygon fill="midnightblue" stroke="midnightblue" points="2143.44,-86.83 2152.32,-81.06 2141.78,-80.03 2143.44,-86.83"/>
</g>
<!-- Node31&#45;&gt;Node13 -->
<g id="edge45" class="edge">
<title>Node31&#45;&gt;Node13</title>
<path fill="none" stroke="midnightblue" d="M1620.13,-129.79C1750.87,-120.8 2236.09,-87.41 2238,-87 2241.25,-86.3 2244.59,-85.38 2247.88,-84.35"/>
<polygon fill="midnightblue" stroke="midnightblue" points="2249.2,-87.6 2257.49,-81 2246.89,-80.99 2249.2,-87.6"/>
</g>
<!-- Node31&#45;&gt;Node14 -->
<g id="edge52" class="edge">
<title>Node31&#45;&gt;Node14</title>
<path fill="none" stroke="midnightblue" d="M1620.27,-126.63C1627.73,-125.42 1635.64,-124.15 1643,-123 1751.31,-106.15 1786.42,-130.6 1887,-87 1907.31,-78.19 1905.26,-63.75 1926,-56 2020.3,-20.78 2738.2,-12.78 2922.82,-11.3"/>
<polygon fill="midnightblue" stroke="midnightblue" points="2922.99,-14.8 2932.96,-11.22 2922.93,-7.8 2922.99,-14.8"/>
</g>
<!-- Node31&#45;&gt;Node15 -->
<g id="edge53" class="edge">
<title>Node31&#45;&gt;Node15</title>
<path fill="none" stroke="midnightblue" d="M1620,-128.7C1709.98,-119.39 1961.01,-93.2 1998,-87 2004.34,-85.94 2011,-84.64 2017.52,-83.26"/>
<polygon fill="midnightblue" stroke="midnightblue" points="2018.58,-86.61 2027.6,-81.05 2017.08,-79.77 2018.58,-86.61"/>
</g>
<!-- Node31&#45;&gt;Node16 -->
<g id="edge54" class="edge">
<title>Node31&#45;&gt;Node16</title>
<path fill="none" stroke="midnightblue" d="M1620.05,-130.22C1653.11,-128.4 1706.16,-125.48 1752,-123 2052.87,-106.74 2131.91,-137.29 2429,-87 2433.87,-86.18 2438.93,-85.04 2443.89,-83.77"/>
<polygon fill="midnightblue" stroke="midnightblue" points="2445.12,-87.06 2453.82,-81.02 2443.25,-80.32 2445.12,-87.06"/>
</g>
<!-- Node31&#45;&gt;Node17 -->
<g id="edge55" class="edge">
<title>Node31&#45;&gt;Node17</title>
<path fill="none" stroke="midnightblue" d="M1620.05,-130.16C1653.1,-128.28 1706.15,-125.32 1752,-123 2097.26,-105.53 2185.07,-121.96 2529,-87 2540.94,-85.79 2553.69,-84.06 2565.77,-82.21"/>
<polygon fill="midnightblue" stroke="midnightblue" points="2566.4,-85.66 2575.74,-80.65 2565.31,-78.74 2566.4,-85.66"/>
</g>
<!-- Node31&#45;&gt;Node18 -->
<g id="edge58" class="edge">
<title>Node31&#45;&gt;Node18</title>
<path fill="none" stroke="midnightblue" d="M1555.93,-125.02C1551.28,-124.22 1546.53,-123.5 1542,-123 1470.91,-115.11 304.86,-138.28 255,-87 210.73,-41.48 322.81,-22.32 392.09,-15.01"/>
<polygon fill="midnightblue" stroke="midnightblue" points="392.8,-18.46 402.4,-13.98 392.1,-11.5 392.8,-18.46"/>
</g>
<!-- Node31&#45;&gt;Node19 -->
<g id="edge49" class="edge">
<title>Node31&#45;&gt;Node19</title>
<path fill="none" stroke="midnightblue" d="M1620.3,-130.17C1756.72,-122.42 2280.25,-92.45 2315,-87 2320.88,-86.08 2327.04,-84.82 2333.04,-83.44"/>
<polygon fill="midnightblue" stroke="midnightblue" points="2334.05,-86.79 2342.93,-81.01 2332.38,-80 2334.05,-86.79"/>
</g>
<!-- Node31&#45;&gt;Node21 -->
<g id="edge48" class="edge">
<title>Node31&#45;&gt;Node21</title>
<path fill="none" stroke="midnightblue" d="M1555.93,-125.02C1551.28,-124.21 1546.53,-123.5 1542,-123 958.68,-58.43 804.96,-154.79 222,-87 213.85,-86.05 205.24,-84.63 196.95,-83.03"/>
<polygon fill="midnightblue" stroke="midnightblue" points="197.55,-79.58 187.05,-81.03 196.16,-86.44 197.55,-79.58"/>
</g>
<!-- Node31&#45;&gt;Node22 -->
<g id="edge46" class="edge">
<title>Node31&#45;&gt;Node22</title>
<path fill="none" stroke="midnightblue" d="M1620.04,-130.09C1653.1,-128.16 1706.14,-125.15 1752,-123 2162.08,-103.75 2269.58,-151.59 2675,-87 2680.15,-86.18 2685.52,-85.01 2690.76,-83.69"/>
<polygon fill="midnightblue" stroke="midnightblue" points="2691.86,-87.02 2700.58,-81.01 2690.01,-80.27 2691.86,-87.02"/>
</g>
<!-- Node31&#45;&gt;Node25 -->
<g id="edge60" class="edge">
<title>Node31&#45;&gt;Node25</title>
<path fill="none" stroke="midnightblue" d="M1620.04,-130.05C1653.09,-128.09 1706.14,-125.06 1752,-123 2207.37,-102.51 2324.76,-144.14 2777,-87 2784.36,-86.07 2792.11,-84.71 2799.61,-83.2"/>
<polygon fill="midnightblue" stroke="midnightblue" points="2800.58,-86.57 2809.63,-81.06 2799.12,-79.73 2800.58,-86.57"/>
</g>
<!-- Node31&#45;&gt;Node30 -->
<g id="edge68" class="edge">
<title>Node31&#45;&gt;Node30</title>
<path fill="none" stroke="midnightblue" d="M1620.04,-130.02C1653.09,-128.02 1706.13,-124.97 1752,-123 2266.44,-100.89 2397.34,-135.18 2910,-87 2922.07,-85.87 2934.97,-84.15 2947.17,-82.29"/>
<polygon fill="midnightblue" stroke="midnightblue" points="2947.89,-85.72 2957.22,-80.71 2946.8,-78.81 2947.89,-85.72"/>
</g>
<!-- Node32 -->
<g id="node32" class="node">
<title>Node32</title>
<g id="a_node32"><a xlink:title=" ">
<polygon fill="white" stroke="#bfbfbf" points="1333,-62 1333,-81 1371,-81 1371,-62 1333,-62"/>
<text text-anchor="middle" x="1352" y="-69" font-family="Helvetica,sans-Serif" font-size="10.00">tuple</text>
</a>
</g>
</g>
<!-- Node31&#45;&gt;Node32 -->
<g id="edge37" class="edge">
<title>Node31&#45;&gt;Node32</title>
<path fill="none" stroke="midnightblue" d="M1555.66,-125.49C1501.41,-114.51 1396.38,-92.9 1380,-87 1378.75,-86.55 1377.49,-86.06 1376.23,-85.53"/>
<polygon fill="midnightblue" stroke="midnightblue" points="1377.32,-82.18 1366.78,-81.08 1374.34,-88.51 1377.32,-82.18"/>
</g>
<!-- Node33 -->
<g id="node33" class="node">
<title>Node33</title>
<g id="a_node33"><a xlink:title=" ">
<polygon fill="white" stroke="#bfbfbf" points="1389,-62 1389,-81 1435,-81 1435,-62 1389,-62"/>
<text text-anchor="middle" x="1412" y="-69" font-family="Helvetica,sans-Serif" font-size="10.00">chrono</text>
</a>
</g>
</g>
<!-- Node31&#45;&gt;Node33 -->
<g id="edge38" class="edge">
<title>Node31&#45;&gt;Node33</title>
<path fill="none" stroke="midnightblue" d="M1556.72,-123.43C1527.3,-115.08 1482.18,-101.55 1444,-87 1442.39,-86.39 1440.75,-85.73 1439.1,-85.06"/>
<polygon fill="midnightblue" stroke="midnightblue" points="1440.34,-81.78 1429.78,-81.02 1437.56,-88.2 1440.34,-81.78"/>
</g>
<!-- Node34 -->
<g id="node34" class="node">
<title>Node34</title>
<g id="a_node34"><a xlink:title=" ">
<polygon fill="white" stroke="#bfbfbf" points="1453.5,-62 1453.5,-81 1482.5,-81 1482.5,-62 1453.5,-62"/>
<text text-anchor="middle" x="1468" y="-69" font-family="Helvetica,sans-Serif" font-size="10.00">list</text>
</a>
</g>
</g>
<!-- Node31&#45;&gt;Node34 -->
<g id="edge39" class="edge">
<title>Node31&#45;&gt;Node34</title>
<path fill="none" stroke="midnightblue" d="M1567.56,-123.43C1547.67,-114.88 1516.76,-101.02 1491,-87 1490.58,-86.77 1490.17,-86.54 1489.75,-86.31"/>
<polygon fill="midnightblue" stroke="midnightblue" points="1491.34,-83.19 1480.96,-81.08 1487.76,-89.2 1491.34,-83.19"/>
</g>
<!-- Node35 -->
<g id="node35" class="node">
<title>Node35</title>
<g id="a_node35"><a xlink:title=" ">
<polygon fill="white" stroke="#bfbfbf" points="1935,-62 1935,-81 1989,-81 1989,-62 1935,-62"/>
<text text-anchor="middle" x="1962" y="-69" font-family="Helvetica,sans-Serif" font-size="10.00">iostream</text>
</a>
</g>
</g>
<!-- Node31&#45;&gt;Node35 -->
<g id="edge40" class="edge">
<title>Node31&#45;&gt;Node35</title>
<path fill="none" stroke="midnightblue" d="M1620.25,-126.54C1627.71,-125.32 1635.63,-124.08 1643,-123 1766.27,-104.94 1799.82,-115.93 1921,-87 1924.23,-86.23 1927.56,-85.29 1930.86,-84.28"/>
<polygon fill="midnightblue" stroke="midnightblue" points="1932.17,-87.53 1940.55,-81.04 1929.96,-80.89 1932.17,-87.53"/>
</g>
<!-- Node36 -->
<g id="node36" class="node">
<title>Node36</title>
<g id="a_node36"><a xlink:title=" ">
<polygon fill="white" stroke="#bfbfbf" points="1500.5,-62 1500.5,-81 1549.5,-81 1549.5,-62 1500.5,-62"/>
<text text-anchor="middle" x="1525" y="-69" font-family="Helvetica,sans-Serif" font-size="10.00">random</text>
</a>
</g>
</g>
<!-- Node31&#45;&gt;Node36 -->
<g id="edge41" class="edge">
<title>Node31&#45;&gt;Node36</title>
<path fill="none" stroke="midnightblue" d="M1578.97,-123.48C1569.24,-114.28 1553.54,-99.46 1541.58,-88.16"/>
<polygon fill="midnightblue" stroke="midnightblue" points="1543.68,-85.33 1534.01,-81.01 1538.88,-90.42 1543.68,-85.33"/>
</g>
<!-- Node37 -->
<g id="node37" class="node">
<title>Node37</title>
<g id="a_node37"><a xlink:title=" ">
<polygon fill="white" stroke="#bfbfbf" points="1567.5,-62 1567.5,-81 1608.5,-81 1608.5,-62 1567.5,-62"/>
<text text-anchor="middle" x="1588" y="-69" font-family="Helvetica,sans-Serif" font-size="10.00">ctime</text>
</a>
</g>
</g>
<!-- Node31&#45;&gt;Node37 -->
<g id="edge42" class="edge">
<title>Node31&#45;&gt;Node37</title>
<path fill="none" stroke="midnightblue" d="M1588,-123.48C1588,-115.08 1588,-101.98 1588,-91.16"/>
<polygon fill="midnightblue" stroke="midnightblue" points="1591.5,-91.01 1588,-81.01 1584.5,-91.01 1591.5,-91.01"/>
</g>
<!-- Node38 -->
<g id="node38" class="node">
<title>Node38</title>
<g id="a_node38"><a xlink:title=" ">
<polygon fill="white" stroke="#bfbfbf" points="1627,-62 1627,-81 1667,-81 1667,-62 1627,-62"/>
<text text-anchor="middle" x="1647" y="-69" font-family="Helvetica,sans-Serif" font-size="10.00">limits</text>
</a>
</g>
</g>
<!-- Node31&#45;&gt;Node38 -->
<g id="edge43" class="edge">
<title>Node31&#45;&gt;Node38</title>
<path fill="none" stroke="midnightblue" d="M1596.45,-123.48C1605.56,-114.28 1620.27,-99.46 1631.47,-88.16"/>
<polygon fill="midnightblue" stroke="midnightblue" points="1634,-90.57 1638.56,-81.01 1629.03,-85.65 1634,-90.57"/>
</g>
<!-- Node39 -->
<g id="node39" class="node">
<title>Node39</title>
<g id="a_node39"><a xlink:title=" ">
<polygon fill="white" stroke="#bfbfbf" points="1685,-62 1685,-81 1747,-81 1747,-62 1685,-62"/>
<text text-anchor="middle" x="1716" y="-69" font-family="Helvetica,sans-Serif" font-size="10.00">vtkQuad.h</text>
</a>
</g>
</g>
<!-- Node31&#45;&gt;Node39 -->
<g id="edge47" class="edge">
<title>Node31&#45;&gt;Node39</title>
<path fill="none" stroke="midnightblue" d="M1606.34,-123.48C1627.82,-113.49 1663.62,-96.85 1688.45,-85.31"/>
<polygon fill="midnightblue" stroke="midnightblue" points="1690.1,-88.4 1697.69,-81.01 1687.15,-82.05 1690.1,-88.4"/>
</g>
<!-- Node40 -->
<g id="node40" class="node">
<title>Node40</title>
<g id="a_node40"><a xlink:title=" ">
<polygon fill="white" stroke="#bfbfbf" points="1765.5,-62 1765.5,-81 1878.5,-81 1878.5,-62 1765.5,-62"/>
<text text-anchor="middle" x="1822" y="-69" font-family="Helvetica,sans-Serif" font-size="10.00">vtkMersenneTwister.h</text>
</a>
</g>
</g>
<!-- Node31&#45;&gt;Node40 -->
<g id="edge50" class="edge">
<title>Node31&#45;&gt;Node40</title>
<path fill="none" stroke="midnightblue" d="M1620.04,-123.85C1661.12,-113.41 1732.51,-95.25 1778.48,-83.57"/>
<polygon fill="midnightblue" stroke="midnightblue" points="1779.62,-86.89 1788.45,-81.03 1777.9,-80.1 1779.62,-86.89"/>
</g>
<!-- Node41 -->
<g id="node41" class="node">
<title>Node41</title>
<g id="a_node41"><a xlink:title=" ">
<polygon fill="white" stroke="#bfbfbf" points="264,-62 264,-81 330,-81 330,-62 264,-62"/>
<text text-anchor="middle" x="297" y="-69" font-family="Helvetica,sans-Serif" font-size="10.00">vtkPoints.h</text>
</a>
</g>
</g>
<!-- Node31&#45;&gt;Node41 -->
<g id="edge51" class="edge">
<title>Node31&#45;&gt;Node41</title>
<path fill="none" stroke="midnightblue" d="M1555.93,-125.03C1551.28,-124.22 1546.53,-123.51 1542,-123 1276.21,-93.22 602.07,-135.19 339,-87 335.1,-86.29 331.07,-85.27 327.12,-84.11"/>
<polygon fill="midnightblue" stroke="midnightblue" points="328.19,-80.78 317.6,-81 326.02,-87.43 328.19,-80.78"/>
</g>
<!-- Node42 -->
<g id="node42" class="node">
<title>Node42</title>
<g id="a_node42"><a xlink:title=" ">
<polygon fill="white" stroke="#bfbfbf" points="348,-62 348,-81 482,-81 482,-62 348,-62"/>
<text text-anchor="middle" x="415" y="-69" font-family="Helvetica,sans-Serif" font-size="10.00">vtkSelectEnclosedPoints.h</text>
</a>
</g>
</g>
<!-- Node31&#45;&gt;Node42 -->
<g id="edge56" class="edge">
<title>Node31&#45;&gt;Node42</title>
<path fill="none" stroke="midnightblue" d="M1555.93,-125.05C1551.27,-124.24 1546.53,-123.52 1542,-123 1077.63,-69.96 955.49,-138.95 491,-87 482.08,-86 472.63,-84.54 463.54,-82.92"/>
<polygon fill="midnightblue" stroke="midnightblue" points="463.96,-79.43 453.49,-81.04 462.67,-86.31 463.96,-79.43"/>
</g>
<!-- Node43 -->
<g id="node43" class="node">
<title>Node43</title>
<g id="a_node43"><a xlink:title=" ">
<polygon fill="white" stroke="#bfbfbf" points="500,-62 500,-81 578,-81 578,-62 500,-62"/>
<text text-anchor="middle" x="539" y="-69" font-family="Helvetica,sans-Serif" font-size="10.00">vtkCellArray.h</text>
</a>
</g>
</g>
<!-- Node31&#45;&gt;Node43 -->
<g id="edge57" class="edge">
<title>Node31&#45;&gt;Node43</title>
<path fill="none" stroke="midnightblue" d="M1555.93,-125.06C1551.27,-124.25 1546.53,-123.52 1542,-123 1120.08,-74.07 1005.94,-156.98 587,-87 582.43,-86.24 577.69,-85.17 573.04,-83.95"/>
<polygon fill="midnightblue" stroke="midnightblue" points="573.71,-80.5 563.13,-81.1 571.78,-87.22 573.71,-80.5"/>
</g>
<!-- Node44 -->
<g id="node44" class="node">
<title>Node44</title>
<g id="a_node44"><a xlink:title=" ">
<polygon fill="white" stroke="#bfbfbf" points="715.5,-62 715.5,-81 788.5,-81 788.5,-62 715.5,-62"/>
<text text-anchor="middle" x="752" y="-69" font-family="Helvetica,sans-Serif" font-size="10.00">vtkTriangle.h</text>
</a>
</g>
</g>
<!-- Node31&#45;&gt;Node44 -->
<g id="edge61" class="edge">
<title>Node31&#45;&gt;Node44</title>
<path fill="none" stroke="midnightblue" d="M1555.92,-125.11C1551.27,-124.29 1546.52,-123.55 1542,-123 1213.36,-83.11 1123.89,-145.24 798,-87 793.73,-86.24 789.31,-85.19 784.97,-84.01"/>
<polygon fill="midnightblue" stroke="midnightblue" points="785.69,-80.57 775.11,-81.06 783.69,-87.28 785.69,-80.57"/>
</g>
<!-- Node45 -->
<g id="node45" class="node">
<title>Node45</title>
<g id="a_node45"><a xlink:href="../../de/d3a/vtksurface_8h.html" target="_top" xlink:title=" ">
<polygon fill="white" stroke="red" points="596.5,-62 596.5,-81 697.5,-81 697.5,-62 596.5,-62"/>
<text text-anchor="middle" x="647" y="-69" font-family="Helvetica,sans-Serif" font-size="10.00">vtkext/vtksurface.h</text>
</a>
</g>
</g>
<!-- Node31&#45;&gt;Node45 -->
<g id="edge62" class="edge">
<title>Node31&#45;&gt;Node45</title>
<path fill="none" stroke="midnightblue" d="M1555.92,-125.09C1551.27,-124.27 1546.52,-123.54 1542,-123 1172.69,-79.17 1074.15,-139.64 706,-87 699.69,-86.1 693.08,-84.82 686.66,-83.38"/>
<polygon fill="midnightblue" stroke="midnightblue" points="687.33,-79.94 676.79,-81.04 685.71,-86.75 687.33,-79.94"/>
</g>
<!-- Node60 -->
<g id="node46" class="node">
<title>Node60</title>
<g id="a_node46"><a xlink:title=" ">
<polygon fill="white" stroke="#bfbfbf" points="807,-62 807,-81 937,-81 937,-62 807,-62"/>
<text text-anchor="middle" x="872" y="-69" font-family="Helvetica,sans-Serif" font-size="10.00">CGAL/Simple_cartesian.h</text>
</a>
</g>
</g>
<!-- Node31&#45;&gt;Node60 -->
<g id="edge64" class="edge">
<title>Node31&#45;&gt;Node60</title>
<path fill="none" stroke="midnightblue" d="M1555.92,-125.16C1551.26,-124.33 1546.52,-123.58 1542,-123 1278.76,-89.45 1209.24,-120.59 946,-87 937.6,-85.93 928.72,-84.47 920.14,-82.89"/>
<polygon fill="midnightblue" stroke="midnightblue" points="920.73,-79.44 910.25,-81 919.41,-86.32 920.73,-79.44"/>
</g>
<!-- Node61 -->
<g id="node47" class="node">
<title>Node61</title>
<g id="a_node47"><a xlink:title=" ">
<polygon fill="white" stroke="#bfbfbf" points="955,-62 955,-81 1059,-81 1059,-62 955,-62"/>
<text text-anchor="middle" x="1007" y="-69" font-family="Helvetica,sans-Serif" font-size="10.00">CGAL/AABB_tree.h</text>
</a>
</g>
</g>
<!-- Node31&#45;&gt;Node61 -->
<g id="edge65" class="edge">
<title>Node31&#45;&gt;Node61</title>
<path fill="none" stroke="midnightblue" d="M1555.91,-125.22C1551.26,-124.39 1546.51,-123.61 1542,-123 1332.63,-94.67 1276.75,-119.53 1068,-87 1061.72,-86.02 1055.13,-84.73 1048.69,-83.33"/>
<polygon fill="midnightblue" stroke="midnightblue" points="1049.32,-79.88 1038.79,-81.06 1047.75,-86.7 1049.32,-79.88"/>
</g>
<!-- Node62 -->
<g id="node48" class="node">
<title>Node62</title>
<g id="a_node48"><a xlink:title=" ">
<polygon fill="white" stroke="#bfbfbf" points="1077.5,-62 1077.5,-81 1186.5,-81 1186.5,-62 1077.5,-62"/>
<text text-anchor="middle" x="1132" y="-69" font-family="Helvetica,sans-Serif" font-size="10.00">CGAL/AABB_traits.h</text>
</a>
</g>
</g>
<!-- Node31&#45;&gt;Node62 -->
<g id="edge66" class="edge">
<title>Node31&#45;&gt;Node62</title>
<path fill="none" stroke="midnightblue" d="M1555.89,-125.34C1551.24,-124.48 1546.51,-123.67 1542,-123 1389.09,-100.13 1348.55,-112.13 1196,-87 1189.58,-85.94 1182.84,-84.64 1176.24,-83.24"/>
<polygon fill="midnightblue" stroke="midnightblue" points="1176.58,-79.73 1166.06,-81.01 1175.08,-86.57 1176.58,-79.73"/>
</g>
<!-- Node63 -->
<g id="node49" class="node">
<title>Node63</title>
<g id="a_node49"><a xlink:title=" ">
<polygon fill="white" stroke="#bfbfbf" points="1205,-56.5 1205,-86.5 1315,-86.5 1315,-56.5 1205,-56.5"/>
<text text-anchor="start" x="1213" y="-74.5" font-family="Helvetica,sans-Serif" font-size="10.00">CGAL/AABB_triangle</text>
<text text-anchor="middle" x="1260" y="-63.5" font-family="Helvetica,sans-Serif" font-size="10.00">_primitive.h</text>
</a>
</g>
</g>
<!-- Node31&#45;&gt;Node63 -->
<g id="edge67" class="edge">
<title>Node31&#45;&gt;Node63</title>
<path fill="none" stroke="midnightblue" d="M1555.85,-125.58C1551.21,-124.69 1546.48,-123.81 1542,-123 1448.47,-106.13 1422.06,-105.86 1325.04,-87.14"/>
<polygon fill="midnightblue" stroke="midnightblue" points="1325.6,-83.68 1315.11,-85.2 1324.26,-90.55 1325.6,-83.68"/>
</g>
<!-- Node45&#45;&gt;Node18 -->
<g id="edge63" class="edge">
<title>Node45&#45;&gt;Node18</title>
<path fill="none" stroke="midnightblue" d="M617.63,-61.98C581.7,-51.55 520.77,-33.86 480.95,-22.31"/>
<polygon fill="midnightblue" stroke="midnightblue" points="481.89,-18.94 471.32,-19.51 479.94,-25.66 481.89,-18.94"/>
</g>
<!-- Node99&#45;&gt;Node2 -->
<g id="edge73" class="edge">
<title>Node99&#45;&gt;Node2</title>
<path fill="none" stroke="midnightblue" d="M1666.75,-239.75C1598.93,-233.23 1470.22,-219.37 1362,-199 1360.75,-198.77 1359.48,-198.51 1358.21,-198.25"/>
<polygon fill="midnightblue" stroke="midnightblue" points="1358.9,-194.82 1348.38,-196.03 1357.36,-201.65 1358.9,-194.82"/>
</g>
<!-- Node99&#45;&gt;Node7 -->
<g id="edge78" class="edge">
<title>Node99&#45;&gt;Node7</title>
<path fill="none" stroke="midnightblue" d="M1675.76,-235.4C1615.32,-222.02 1493.89,-196 1390,-179 1195.02,-147.1 1145.88,-139.58 949,-123 566.91,-90.82 463.19,-161.21 87,-87 83.56,-86.32 80.02,-85.4 76.54,-84.34"/>
<polygon fill="midnightblue" stroke="midnightblue" points="77.6,-81 67,-81.11 75.35,-87.63 77.6,-81"/>
</g>
<!-- Node99&#45;&gt;Node10 -->
<g id="edge82" class="edge">
<title>Node99&#45;&gt;Node10</title>
<path fill="none" stroke="midnightblue" d="M1761.01,-240.7C1895.57,-231.27 2281.91,-204.17 2427.54,-193.96"/>
<polygon fill="midnightblue" stroke="midnightblue" points="2427.88,-197.44 2437.61,-193.25 2427.39,-190.46 2427.88,-197.44"/>
</g>
<!-- Node99&#45;&gt;Node12 -->
<g id="edge74" class="edge">
<title>Node99&#45;&gt;Node12</title>
<path fill="none" stroke="midnightblue" d="M1710.97,-235.22C1703.94,-213.02 1689.25,-154.19 1719,-123 1750.26,-90.23 2080.35,-94.61 2125,-87 2130.6,-86.05 2136.45,-84.82 2142.19,-83.49"/>
<polygon fill="midnightblue" stroke="midnightblue" points="2143.43,-86.79 2152.31,-81.01 2141.77,-79.99 2143.43,-86.79"/>
</g>
<!-- Node99&#45;&gt;Node13 -->
<g id="edge75" class="edge">
<title>Node99&#45;&gt;Node13</title>
<path fill="none" stroke="midnightblue" d="M1713.71,-235.18C1713.51,-212.36 1716.45,-151.17 1752,-123 1836.87,-55.73 2132.19,-110.1 2238,-87 2241.08,-86.33 2244.23,-85.46 2247.36,-84.49"/>
<polygon fill="midnightblue" stroke="midnightblue" points="2248.77,-87.71 2257.08,-81.13 2246.49,-81.09 2248.77,-87.71"/>
</g>
<!-- Node99&#45;&gt;Node14 -->
<g id="edge76" class="edge">
<title>Node99&#45;&gt;Node14</title>
<path fill="none" stroke="midnightblue" d="M1761.3,-243.01C2030.33,-237.13 3357.77,-205.06 3416,-143 3474.59,-80.55 3133.01,-31.6 3009.38,-16.13"/>
<polygon fill="midnightblue" stroke="midnightblue" points="3009.49,-12.62 2999.14,-14.87 3008.63,-19.57 3009.49,-12.62"/>
</g>
<!-- Node99&#45;&gt;Node18 -->
<g id="edge77" class="edge">
<title>Node99&#45;&gt;Node18</title>
<path fill="none" stroke="midnightblue" d="M1666.98,-239.83C1589.85,-232.6 1440.03,-216.78 1390,-199 1373.84,-193.26 1373.35,-184.17 1357,-179 1213.66,-133.64 109.63,-196.87 7,-87 -2.41,-76.93 -2.23,-66.23 7,-56 32.43,-27.8 283.74,-16.2 392.39,-12.47"/>
<polygon fill="midnightblue" stroke="midnightblue" points="392.56,-15.96 402.44,-12.13 392.33,-8.97 392.56,-15.96"/>
</g>
<!-- Node99&#45;&gt;Node19 -->
<g id="edge79" class="edge">
<title>Node99&#45;&gt;Node19</title>
<path fill="none" stroke="midnightblue" d="M1731.49,-235.47C1778.22,-213.09 1910.33,-152.37 2027,-123 2152.09,-91.51 2188.24,-110.95 2315,-87 2320.39,-85.98 2326.03,-84.75 2331.58,-83.44"/>
<polygon fill="midnightblue" stroke="midnightblue" points="2332.51,-86.82 2341.39,-81.03 2330.84,-80.02 2332.51,-86.82"/>
</g>
<!-- Node99&#45;&gt;Node20 -->
<g id="edge80" class="edge">
<title>Node99&#45;&gt;Node20</title>
<path fill="none" stroke="midnightblue" d="M1721.61,-235.37C1737.76,-217.05 1775.68,-174.05 1796.57,-150.36"/>
<polygon fill="midnightblue" stroke="midnightblue" points="1799.43,-152.41 1803.42,-142.59 1794.18,-147.78 1799.43,-152.41"/>
</g>
<!-- Node99&#45;&gt;Node21 -->
<g id="edge81" class="edge">
<title>Node99&#45;&gt;Node21</title>
<path fill="none" stroke="midnightblue" d="M1699.16,-235.36C1657.89,-211.86 1537.55,-146.96 1428,-123 1170.19,-66.63 503.68,-112.27 241,-87 230.02,-85.94 218.35,-84.37 207.19,-82.65"/>
<polygon fill="midnightblue" stroke="midnightblue" points="207.55,-79.16 197.13,-81.03 206.44,-86.07 207.55,-79.16"/>
</g>
<!-- Node99&#45;&gt;Node35 -->
<g id="edge72" class="edge">
<title>Node99&#45;&gt;Node35</title>
<path fill="none" stroke="midnightblue" d="M1704.98,-235.34C1696.93,-226.93 1685.7,-213.36 1681,-199 1670.49,-166.9 1658.96,-148.59 1681,-123 1716.19,-82.14 1868.67,-100.05 1921,-87 1924.05,-86.24 1927.19,-85.34 1930.32,-84.37"/>
<polygon fill="midnightblue" stroke="midnightblue" points="1931.72,-87.59 1940.11,-81.11 1929.51,-80.95 1931.72,-87.59"/>
</g>
</g>
</svg>
