<?xml version="1.0" encoding="UTF-8" standalone="no"?>
<!DOCTYPE svg PUBLIC "-//W3C//DTD SVG 1.1//EN"
 "http://www.w3.org/Graphics/SVG/1.1/DTD/svg11.dtd">
<!-- Generated by graphviz version 2.44.1 (0)
 -->
<!-- Title: mutable_priority_queue.h Pages: 1 -->
<svg width="1445pt" height="308pt"
 viewBox="0.00 0.00 1444.50 308.00" xmlns="http://www.w3.org/2000/svg" xmlns:xlink="http://www.w3.org/1999/xlink">
<g id="graph0" class="graph" transform="scale(1 1) rotate(0) translate(4 304)">
<title>mutable_priority_queue.h</title>
<polygon fill="white" stroke="transparent" points="-4,4 -4,-304 1440.5,-304 1440.5,4 -4,4"/>
<!-- Node1 -->
<g id="node1" class="node">
<title>Node1</title>
<g id="a_node1"><a xlink:title=" ">
<polygon fill="#bfbfbf" stroke="black" points="523,-280.5 523,-299.5 648,-299.5 648,-280.5 523,-280.5"/>
<text text-anchor="middle" x="585.5" y="-287.5" font-family="Helvetica,sans-Serif" font-size="10.00">mutable_priority_queue.h</text>
</a>
</g>
</g>
<!-- Node2 -->
<g id="node2" class="node">
<title>Node2</title>
<g id="a_node2"><a xlink:href="../../d8/d56/astar_8h.html" target="_top" xlink:title="Implementation of the A* search algorithm.">
<polygon fill="white" stroke="black" points="562,-224.5 562,-243.5 609,-243.5 609,-224.5 562,-224.5"/>
<text text-anchor="middle" x="585.5" y="-231.5" font-family="Helvetica,sans-Serif" font-size="10.00">astar.h</text>
</a>
</g>
</g>
<!-- Node1&#45;&gt;Node2 -->
<g id="edge1" class="edge">
<title>Node1&#45;&gt;Node2</title>
<path fill="none" stroke="midnightblue" d="M585.5,-269.8C585.5,-260.91 585.5,-250.78 585.5,-243.75"/>
<polygon fill="midnightblue" stroke="midnightblue" points="582,-270.08 585.5,-280.08 589,-270.08 582,-270.08"/>
</g>
<!-- Node3 -->
<g id="node3" class="node">
<title>Node3</title>
<g id="a_node3"><a xlink:href="../../d9/df3/astar_8cpp.html" target="_top" xlink:title=" ">
<polygon fill="white" stroke="black" points="385,-168.5 385,-187.5 442,-187.5 442,-168.5 385,-168.5"/>
<text text-anchor="middle" x="413.5" y="-175.5" font-family="Helvetica,sans-Serif" font-size="10.00">astar.cpp</text>
</a>
</g>
</g>
<!-- Node2&#45;&gt;Node3 -->
<g id="edge2" class="edge">
<title>Node2&#45;&gt;Node3</title>
<path fill="none" stroke="midnightblue" d="M552.02,-222.49C519.55,-212.29 470.9,-197.02 440.74,-187.55"/>
<polygon fill="midnightblue" stroke="midnightblue" points="551.36,-225.95 561.94,-225.6 553.45,-219.27 551.36,-225.95"/>
</g>
<!-- Node4 -->
<g id="node4" class="node">
<title>Node4</title>
<g id="a_node4"><a xlink:href="../../d9/d53/mainwindow_8h.html" target="_top" xlink:title="Qt MainWindow of the application.">
<polygon fill="white" stroke="black" points="631.5,-56.5 631.5,-75.5 709.5,-75.5 709.5,-56.5 631.5,-56.5"/>
<text text-anchor="middle" x="670.5" y="-63.5" font-family="Helvetica,sans-Serif" font-size="10.00">mainwindow.h</text>
</a>
</g>
</g>
<!-- Node2&#45;&gt;Node4 -->
<g id="edge3" class="edge">
<title>Node2&#45;&gt;Node4</title>
<path fill="none" stroke="midnightblue" d="M560.29,-219.2C522.57,-196.79 458.97,-151.05 489.5,-112 498.28,-100.78 580.54,-83.72 631.09,-74.15"/>
<polygon fill="midnightblue" stroke="midnightblue" points="558.84,-222.4 569.25,-224.38 562.34,-216.34 558.84,-222.4"/>
</g>
<!-- Node7 -->
<g id="node7" class="node">
<title>Node7</title>
<g id="a_node7"><a xlink:href="../../de/d77/optimizer_8h.html" target="_top" xlink:title="Base class for wirelength optimizers.">
<polygon fill="white" stroke="black" points="668,-168.5 668,-187.5 733,-187.5 733,-168.5 668,-168.5"/>
<text text-anchor="middle" x="700.5" y="-175.5" font-family="Helvetica,sans-Serif" font-size="10.00">optimizer.h</text>
</a>
</g>
</g>
<!-- Node2&#45;&gt;Node7 -->
<g id="edge6" class="edge">
<title>Node2&#45;&gt;Node7</title>
<path fill="none" stroke="midnightblue" d="M612.98,-220.1C634.47,-210.01 663.72,-196.27 682.36,-187.52"/>
<polygon fill="midnightblue" stroke="midnightblue" points="611.29,-217.02 603.72,-224.44 614.26,-223.36 611.29,-217.02"/>
</g>
<!-- Node27 -->
<g id="node27" class="node">
<title>Node27</title>
<g id="a_node27"><a xlink:href="../../d9/d4d/autowiretool_8h.html" target="_top" xlink:title="Tool for wiring touchpoints with connectors.">
<polygon fill="white" stroke="black" points="1325,-112.5 1325,-131.5 1402,-131.5 1402,-112.5 1325,-112.5"/>
<text text-anchor="middle" x="1363.5" y="-119.5" font-family="Helvetica,sans-Serif" font-size="10.00">autowiretool.h</text>
</a>
</g>
</g>
<!-- Node2&#45;&gt;Node27 -->
<g id="edge39" class="edge">
<title>Node2&#45;&gt;Node27</title>
<path fill="none" stroke="midnightblue" d="M619.42,-228.89C723.59,-216.16 1048.09,-175.54 1315.5,-132 1318.51,-131.51 1321.63,-130.98 1324.76,-130.43"/>
<polygon fill="midnightblue" stroke="midnightblue" points="618.7,-225.46 609.2,-230.14 619.55,-232.4 618.7,-225.46"/>
</g>
<!-- Node5 -->
<g id="node5" class="node">
<title>Node5</title>
<g id="a_node5"><a xlink:href="../../d8/dd9/mainwindow_8cpp.html" target="_top" xlink:title=" ">
<polygon fill="white" stroke="black" points="581,-0.5 581,-19.5 670,-19.5 670,-0.5 581,-0.5"/>
<text text-anchor="middle" x="625.5" y="-7.5" font-family="Helvetica,sans-Serif" font-size="10.00">mainwindow.cpp</text>
</a>
</g>
</g>
<!-- Node4&#45;&gt;Node5 -->
<g id="edge4" class="edge">
<title>Node4&#45;&gt;Node5</title>
<path fill="none" stroke="midnightblue" d="M656.45,-48.14C648.61,-38.74 639.17,-27.4 632.79,-19.75"/>
<polygon fill="midnightblue" stroke="midnightblue" points="653.98,-50.64 663.07,-56.08 659.36,-46.16 653.98,-50.64"/>
</g>
<!-- Node6 -->
<g id="node6" class="node">
<title>Node6</title>
<g id="a_node6"><a xlink:href="../../df/d0a/main_8cpp.html" target="_top" xlink:title=" ">
<polygon fill="white" stroke="black" points="687.5,-0.5 687.5,-19.5 743.5,-19.5 743.5,-0.5 687.5,-0.5"/>
<text text-anchor="middle" x="715.5" y="-7.5" font-family="Helvetica,sans-Serif" font-size="10.00">main.cpp</text>
</a>
</g>
</g>
<!-- Node4&#45;&gt;Node6 -->
<g id="edge5" class="edge">
<title>Node4&#45;&gt;Node6</title>
<path fill="none" stroke="midnightblue" d="M684.55,-48.14C692.39,-38.74 701.83,-27.4 708.21,-19.75"/>
<polygon fill="midnightblue" stroke="midnightblue" points="681.64,-46.16 677.93,-56.08 687.02,-50.64 681.64,-46.16"/>
</g>
<!-- Node7&#45;&gt;Node4 -->
<g id="edge7" class="edge">
<title>Node7&#45;&gt;Node4</title>
<path fill="none" stroke="midnightblue" d="M678.33,-162.16C668.78,-154.42 658.65,-144.05 653.5,-132 645.25,-112.69 657.01,-88.4 664.71,-75.68"/>
<polygon fill="midnightblue" stroke="midnightblue" points="676.33,-165.04 686.42,-168.26 680.54,-159.45 676.33,-165.04"/>
</g>
<!-- Node8 -->
<g id="node8" class="node">
<title>Node8</title>
<g id="a_node8"><a xlink:href="../../db/d44/bruteforceoptimizer_8h.html" target="_top" xlink:title="Optimizes the wirelength of a path by exhaustive search by trying every possibility.">
<polygon fill="white" stroke="black" points="498.5,-112.5 498.5,-131.5 606.5,-131.5 606.5,-112.5 498.5,-112.5"/>
<text text-anchor="middle" x="552.5" y="-119.5" font-family="Helvetica,sans-Serif" font-size="10.00">bruteforceoptimizer.h</text>
</a>
</g>
</g>
<!-- Node7&#45;&gt;Node8 -->
<g id="edge8" class="edge">
<title>Node7&#45;&gt;Node8</title>
<path fill="none" stroke="midnightblue" d="M667.35,-164.91C639.53,-154.75 600.48,-140.51 575.84,-131.52"/>
<polygon fill="midnightblue" stroke="midnightblue" points="666.46,-168.3 677.05,-168.44 668.85,-161.73 666.46,-168.3"/>
</g>
<!-- Node10 -->
<g id="node10" class="node">
<title>Node10</title>
<g id="a_node10"><a xlink:href="../../d4/dae/gaoptimizer_8h.html" target="_top" xlink:title="Optimizes the wirelength of a path by using a genetic algorithm.">
<polygon fill="white" stroke="black" points="756,-112.5 756,-131.5 831,-131.5 831,-112.5 756,-112.5"/>
<text text-anchor="middle" x="793.5" y="-119.5" font-family="Helvetica,sans-Serif" font-size="10.00">gaoptimizer.h</text>
</a>
</g>
</g>
<!-- Node7&#45;&gt;Node10 -->
<g id="edge11" class="edge">
<title>Node7&#45;&gt;Node10</title>
<path fill="none" stroke="midnightblue" d="M724.31,-163.18C741.42,-153.24 763.97,-140.15 778.6,-131.65"/>
<polygon fill="midnightblue" stroke="midnightblue" points="722.33,-160.28 715.44,-168.32 725.85,-166.33 722.33,-160.28"/>
</g>
<!-- Node12 -->
<g id="node12" class="node">
<title>Node12</title>
<g id="a_node12"><a xlink:href="../../d0/daf/greatdelugeoptimizer_8h.html" target="_top" xlink:title="Optimizes the wirelength of a path by using the great deluge algorithm.">
<polygon fill="white" stroke="black" points="849,-112.5 849,-131.5 964,-131.5 964,-112.5 849,-112.5"/>
<text text-anchor="middle" x="906.5" y="-119.5" font-family="Helvetica,sans-Serif" font-size="10.00">greatdelugeoptimizer.h</text>
</a>
</g>
</g>
<!-- Node7&#45;&gt;Node12 -->
<g id="edge14" class="edge">
<title>Node7&#45;&gt;Node12</title>
<path fill="none" stroke="midnightblue" d="M743.12,-165.83C782.01,-155.63 838.66,-140.78 874.01,-131.52"/>
<polygon fill="midnightblue" stroke="midnightblue" points="741.93,-162.52 733.14,-168.44 743.7,-169.29 741.93,-162.52"/>
</g>
<!-- Node14 -->
<g id="node14" class="node">
<title>Node14</title>
<g id="a_node14"><a xlink:href="../../dc/d9d/greedyoptimizer_8h.html" target="_top" xlink:title="Optimizes the wirelength of a path by using the nearest neighbor (greedy) algorithm.">
<polygon fill="white" stroke="black" points="982.5,-112.5 982.5,-131.5 1076.5,-131.5 1076.5,-112.5 982.5,-112.5"/>
<text text-anchor="middle" x="1029.5" y="-119.5" font-family="Helvetica,sans-Serif" font-size="10.00">greedyoptimizer.h</text>
</a>
</g>
</g>
<!-- Node7&#45;&gt;Node14 -->
<g id="edge17" class="edge">
<title>Node7&#45;&gt;Node14</title>
<path fill="none" stroke="midnightblue" d="M743.42,-169.96C805.12,-159.83 918.49,-141.22 982.43,-130.73"/>
<polygon fill="midnightblue" stroke="midnightblue" points="742.55,-166.55 733.25,-171.62 743.68,-173.46 742.55,-166.55"/>
</g>
<!-- Node16 -->
<g id="node16" class="node">
<title>Node16</title>
<g id="a_node16"><a xlink:href="../../d2/df5/hillclimbingoptimizer_8h.html" target="_top" xlink:title="Optimizes the wirelength of a path by using the hillclimbing algorithm.">
<polygon fill="white" stroke="black" points="1095,-112.5 1095,-131.5 1208,-131.5 1208,-112.5 1095,-112.5"/>
<text text-anchor="middle" x="1151.5" y="-119.5" font-family="Helvetica,sans-Serif" font-size="10.00">hillclimbingoptimizer.h</text>
</a>
</g>
</g>
<!-- Node7&#45;&gt;Node16 -->
<g id="edge20" class="edge">
<title>Node7&#45;&gt;Node16</title>
<path fill="none" stroke="midnightblue" d="M743.59,-172.24C814.8,-164.3 961.51,-147.7 1085.5,-132 1088.6,-131.61 1091.78,-131.2 1094.98,-130.78"/>
<polygon fill="midnightblue" stroke="midnightblue" points="742.78,-168.8 733.23,-173.39 743.56,-175.76 742.78,-168.8"/>
</g>
<!-- Node18 -->
<g id="node18" class="node">
<title>Node18</title>
<g id="a_node18"><a xlink:href="../../d3/de5/nulloptimizer_8h.html" target="_top" xlink:title="Does not optimize at all (null) but instead connects the first touchpoint with the first connector an...">
<polygon fill="white" stroke="black" points="1226.5,-112.5 1226.5,-131.5 1306.5,-131.5 1306.5,-112.5 1226.5,-112.5"/>
<text text-anchor="middle" x="1266.5" y="-119.5" font-family="Helvetica,sans-Serif" font-size="10.00">nulloptimizer.h</text>
</a>
</g>
</g>
<!-- Node7&#45;&gt;Node18 -->
<g id="edge23" class="edge">
<title>Node7&#45;&gt;Node18</title>
<path fill="none" stroke="midnightblue" d="M743.41,-174.58C832.07,-169.3 1041.77,-155.3 1216.5,-132 1219.73,-131.57 1223.08,-131.07 1226.43,-130.54"/>
<polygon fill="midnightblue" stroke="midnightblue" points="742.99,-171.1 733.21,-175.18 743.4,-178.09 742.99,-171.1"/>
</g>
<!-- Node20 -->
<g id="node20" class="node">
<title>Node20</title>
<g id="a_node20"><a xlink:href="../../df/d42/optimizer_8cpp.html" target="_top" xlink:title=" ">
<polygon fill="white" stroke="black" points="663,-112.5 663,-131.5 738,-131.5 738,-112.5 663,-112.5"/>
<text text-anchor="middle" x="700.5" y="-119.5" font-family="Helvetica,sans-Serif" font-size="10.00">optimizer.cpp</text>
</a>
</g>
</g>
<!-- Node7&#45;&gt;Node20 -->
<g id="edge26" class="edge">
<title>Node7&#45;&gt;Node20</title>
<path fill="none" stroke="midnightblue" d="M700.5,-157.8C700.5,-148.91 700.5,-138.78 700.5,-131.75"/>
<polygon fill="midnightblue" stroke="midnightblue" points="697,-158.08 700.5,-168.08 704,-158.08 697,-158.08"/>
</g>
<!-- Node21 -->
<g id="node21" class="node">
<title>Node21</title>
<g id="a_node21"><a xlink:href="../../da/db8/randomoptimizer_8h.html" target="_top" xlink:title="Optimizes by generating random permutations of solutions.">
<polygon fill="white" stroke="black" points="15,-112.5 15,-131.5 112,-131.5 112,-112.5 15,-112.5"/>
<text text-anchor="middle" x="63.5" y="-119.5" font-family="Helvetica,sans-Serif" font-size="10.00">randomoptimizer.h</text>
</a>
</g>
</g>
<!-- Node7&#45;&gt;Node21 -->
<g id="edge27" class="edge">
<title>Node7&#45;&gt;Node21</title>
<path fill="none" stroke="midnightblue" d="M657.57,-174.79C561.37,-169.59 321.32,-155.23 121.5,-132 118.46,-131.65 115.34,-131.25 112.2,-130.83"/>
<polygon fill="midnightblue" stroke="midnightblue" points="657.6,-178.29 667.77,-175.33 657.97,-171.3 657.6,-178.29"/>
</g>
<!-- Node23 -->
<g id="node23" class="node">
<title>Node23</title>
<g id="a_node23"><a xlink:href="../../de/d19/simulatedannealingoptimizer_8h.html" target="_top" xlink:title=" ">
<polygon fill="white" stroke="black" points="130.5,-112.5 130.5,-131.5 278.5,-131.5 278.5,-112.5 130.5,-112.5"/>
<text text-anchor="middle" x="204.5" y="-119.5" font-family="Helvetica,sans-Serif" font-size="10.00">simulatedannealingoptimizer.h</text>
</a>
</g>
</g>
<!-- Node7&#45;&gt;Node23 -->
<g id="edge30" class="edge">
<title>Node7&#45;&gt;Node23</title>
<path fill="none" stroke="midnightblue" d="M657.96,-172.37C573.55,-163.18 383.96,-142.54 278.62,-131.07"/>
<polygon fill="midnightblue" stroke="midnightblue" points="657.64,-175.85 667.96,-173.46 658.39,-168.9 657.64,-175.85"/>
</g>
<!-- Node25 -->
<g id="node25" class="node">
<title>Node25</title>
<g id="a_node25"><a xlink:href="../../d1/d60/thresholdacceptingoptimizer_8h.html" target="_top" xlink:title=" ">
<polygon fill="white" stroke="black" points="296.5,-112.5 296.5,-131.5 442.5,-131.5 442.5,-112.5 296.5,-112.5"/>
<text text-anchor="middle" x="369.5" y="-119.5" font-family="Helvetica,sans-Serif" font-size="10.00">thresholdacceptingoptimizer.h</text>
</a>
</g>
</g>
<!-- Node7&#45;&gt;Node25 -->
<g id="edge33" class="edge">
<title>Node7&#45;&gt;Node25</title>
<path fill="none" stroke="midnightblue" d="M657.9,-170.05C597.53,-160.2 487.18,-142.2 421.88,-131.55"/>
<polygon fill="midnightblue" stroke="midnightblue" points="657.42,-173.52 667.86,-171.67 658.55,-166.61 657.42,-173.52"/>
</g>
<!-- Node7&#45;&gt;Node27 -->
<g id="edge36" class="edge">
<title>Node7&#45;&gt;Node27</title>
<path fill="none" stroke="midnightblue" d="M743.35,-175.52C843.72,-171.7 1101.71,-159.77 1315.5,-132 1318.53,-131.61 1321.65,-131.15 1324.79,-130.64"/>
<polygon fill="midnightblue" stroke="midnightblue" points="743.16,-172.03 733.3,-175.9 743.42,-179.02 743.16,-172.03"/>
</g>
<!-- Node8&#45;&gt;Node4 -->
<g id="edge9" class="edge">
<title>Node8&#45;&gt;Node4</title>
<path fill="none" stroke="midnightblue" d="M580.4,-108.23C602.47,-98.13 632.68,-84.31 651.89,-75.52"/>
<polygon fill="midnightblue" stroke="midnightblue" points="578.83,-105.1 571.2,-112.44 581.75,-111.46 578.83,-105.1"/>
</g>
<!-- Node9 -->
<g id="node9" class="node">
<title>Node9</title>
<g id="a_node9"><a xlink:href="../../d7/d91/bruteforceoptimizer_8cpp.html" target="_top" xlink:title=" ">
<polygon fill="white" stroke="black" points="493,-56.5 493,-75.5 612,-75.5 612,-56.5 493,-56.5"/>
<text text-anchor="middle" x="552.5" y="-63.5" font-family="Helvetica,sans-Serif" font-size="10.00">bruteforceoptimizer.cpp</text>
</a>
</g>
</g>
<!-- Node8&#45;&gt;Node9 -->
<g id="edge10" class="edge">
<title>Node8&#45;&gt;Node9</title>
<path fill="none" stroke="midnightblue" d="M552.5,-101.8C552.5,-92.91 552.5,-82.78 552.5,-75.75"/>
<polygon fill="midnightblue" stroke="midnightblue" points="549,-102.08 552.5,-112.08 556,-102.08 549,-102.08"/>
</g>
<!-- Node10&#45;&gt;Node4 -->
<g id="edge12" class="edge">
<title>Node10&#45;&gt;Node4</title>
<path fill="none" stroke="midnightblue" d="M764.73,-108.37C741.69,-98.26 710.02,-84.35 689.9,-75.52"/>
<polygon fill="midnightblue" stroke="midnightblue" points="763.45,-111.63 774.01,-112.44 766.26,-105.22 763.45,-111.63"/>
</g>
<!-- Node11 -->
<g id="node11" class="node">
<title>Node11</title>
<g id="a_node11"><a xlink:href="../../dd/d35/gaoptimizer_8cpp.html" target="_top" xlink:title=" ">
<polygon fill="white" stroke="black" points="728.5,-56.5 728.5,-75.5 814.5,-75.5 814.5,-56.5 728.5,-56.5"/>
<text text-anchor="middle" x="771.5" y="-63.5" font-family="Helvetica,sans-Serif" font-size="10.00">gaoptimizer.cpp</text>
</a>
</g>
</g>
<!-- Node10&#45;&gt;Node11 -->
<g id="edge13" class="edge">
<title>Node10&#45;&gt;Node11</title>
<path fill="none" stroke="midnightblue" d="M786.04,-102.69C782.33,-93.59 778.02,-83.01 775.07,-75.75"/>
<polygon fill="midnightblue" stroke="midnightblue" points="782.85,-104.14 789.87,-112.08 789.34,-101.5 782.85,-104.14"/>
</g>
<!-- Node12&#45;&gt;Node4 -->
<g id="edge15" class="edge">
<title>Node12&#45;&gt;Node4</title>
<path fill="none" stroke="midnightblue" d="M859.09,-110.15C814.5,-99.95 748.65,-84.88 707.72,-75.52"/>
<polygon fill="midnightblue" stroke="midnightblue" points="858.58,-113.62 869.11,-112.44 860.14,-106.8 858.58,-113.62"/>
</g>
<!-- Node13 -->
<g id="node13" class="node">
<title>Node13</title>
<g id="a_node13"><a xlink:href="../../dd/d30/greatdelugeoptimizer_8cpp.html" target="_top" xlink:title=" ">
<polygon fill="white" stroke="black" points="833,-56.5 833,-75.5 958,-75.5 958,-56.5 833,-56.5"/>
<text text-anchor="middle" x="895.5" y="-63.5" font-family="Helvetica,sans-Serif" font-size="10.00">greatdelugeoptimizer.cpp</text>
</a>
</g>
</g>
<!-- Node12&#45;&gt;Node13 -->
<g id="edge16" class="edge">
<title>Node12&#45;&gt;Node13</title>
<path fill="none" stroke="midnightblue" d="M902.65,-102.1C900.82,-93.14 898.73,-82.86 897.28,-75.75"/>
<polygon fill="midnightblue" stroke="midnightblue" points="899.26,-102.98 904.68,-112.08 906.12,-101.59 899.26,-102.98"/>
</g>
<!-- Node14&#45;&gt;Node4 -->
<g id="edge18" class="edge">
<title>Node14&#45;&gt;Node4</title>
<path fill="none" stroke="midnightblue" d="M972.08,-111.96C858.5,-95.08 828.42,-93.75 719.5,-76 716.26,-75.47 712.9,-74.9 709.52,-74.31"/>
<polygon fill="midnightblue" stroke="midnightblue" points="971.82,-115.46 982.23,-113.48 972.86,-108.54 971.82,-115.46"/>
</g>
<!-- Node15 -->
<g id="node15" class="node">
<title>Node15</title>
<g id="a_node15"><a xlink:href="../../df/d87/greedyoptimizer_8cpp.html" target="_top" xlink:title=" ">
<polygon fill="white" stroke="black" points="976.5,-56.5 976.5,-75.5 1080.5,-75.5 1080.5,-56.5 976.5,-56.5"/>
<text text-anchor="middle" x="1028.5" y="-63.5" font-family="Helvetica,sans-Serif" font-size="10.00">greedyoptimizer.cpp</text>
</a>
</g>
</g>
<!-- Node14&#45;&gt;Node15 -->
<g id="edge19" class="edge">
<title>Node14&#45;&gt;Node15</title>
<path fill="none" stroke="midnightblue" d="M1029.14,-101.8C1028.98,-92.91 1028.79,-82.78 1028.66,-75.75"/>
<polygon fill="midnightblue" stroke="midnightblue" points="1025.65,-102.15 1029.33,-112.08 1032.65,-102.02 1025.65,-102.15"/>
</g>
<!-- Node16&#45;&gt;Node4 -->
<g id="edge21" class="edge">
<title>Node16&#45;&gt;Node4</title>
<path fill="none" stroke="midnightblue" d="M1084.58,-111.94C921.4,-93.18 878.04,-98.32 719.5,-76 716.25,-75.54 712.88,-75.02 709.5,-74.47"/>
<polygon fill="midnightblue" stroke="midnightblue" points="1084.65,-115.47 1094.99,-113.15 1085.46,-108.52 1084.65,-115.47"/>
</g>
<!-- Node17 -->
<g id="node17" class="node">
<title>Node17</title>
<g id="a_node17"><a xlink:href="../../d7/d2e/hillclimbingoptimizer_8cpp.html" target="_top" xlink:title=" ">
<polygon fill="white" stroke="black" points="1099,-56.5 1099,-75.5 1222,-75.5 1222,-56.5 1099,-56.5"/>
<text text-anchor="middle" x="1160.5" y="-63.5" font-family="Helvetica,sans-Serif" font-size="10.00">hillclimbingoptimizer.cpp</text>
</a>
</g>
</g>
<!-- Node16&#45;&gt;Node17 -->
<g id="edge22" class="edge">
<title>Node16&#45;&gt;Node17</title>
<path fill="none" stroke="midnightblue" d="M1154.65,-102.1C1156.14,-93.14 1157.86,-82.86 1159.04,-75.75"/>
<polygon fill="midnightblue" stroke="midnightblue" points="1151.18,-101.64 1152.99,-112.08 1158.08,-102.79 1151.18,-101.64"/>
</g>
<!-- Node18&#45;&gt;Node4 -->
<g id="edge24" class="edge">
<title>Node18&#45;&gt;Node4</title>
<path fill="none" stroke="midnightblue" d="M1216.8,-112.04C1216.7,-112.03 1216.6,-112.01 1216.5,-112 996.77,-84.34 939.18,-104.05 719.5,-76 716.33,-75.59 713.05,-75.12 709.76,-74.6"/>
<polygon fill="midnightblue" stroke="midnightblue" points="1216.05,-115.47 1226.44,-113.4 1217.03,-108.54 1216.05,-115.47"/>
</g>
<!-- Node19 -->
<g id="node19" class="node">
<title>Node19</title>
<g id="a_node19"><a xlink:href="../../d2/d48/nulloptimizer_8cpp.html" target="_top" xlink:title=" ">
<polygon fill="white" stroke="black" points="1240.5,-56.5 1240.5,-75.5 1330.5,-75.5 1330.5,-56.5 1240.5,-56.5"/>
<text text-anchor="middle" x="1285.5" y="-63.5" font-family="Helvetica,sans-Serif" font-size="10.00">nulloptimizer.cpp</text>
</a>
</g>
</g>
<!-- Node18&#45;&gt;Node19 -->
<g id="edge25" class="edge">
<title>Node18&#45;&gt;Node19</title>
<path fill="none" stroke="midnightblue" d="M1273.05,-102.4C1276.22,-93.36 1279.89,-82.94 1282.42,-75.75"/>
<polygon fill="midnightblue" stroke="midnightblue" points="1269.65,-101.49 1269.64,-112.08 1276.26,-103.81 1269.65,-101.49"/>
</g>
<!-- Node21&#45;&gt;Node4 -->
<g id="edge28" class="edge">
<title>Node21&#45;&gt;Node4</title>
<path fill="none" stroke="midnightblue" d="M122.2,-112.02C344.15,-87.41 403.11,-103.33 620.5,-76 624,-75.56 627.63,-75.04 631.26,-74.47"/>
<polygon fill="midnightblue" stroke="midnightblue" points="121.74,-108.55 112.2,-113.15 122.52,-115.51 121.74,-108.55"/>
</g>
<!-- Node22 -->
<g id="node22" class="node">
<title>Node22</title>
<g id="a_node22"><a xlink:href="../../d7/dc4/randomoptimizer_8cpp.html" target="_top" xlink:title=" ">
<polygon fill="white" stroke="black" points="0,-56.5 0,-75.5 107,-75.5 107,-56.5 0,-56.5"/>
<text text-anchor="middle" x="53.5" y="-63.5" font-family="Helvetica,sans-Serif" font-size="10.00">randomoptimizer.cpp</text>
</a>
</g>
</g>
<!-- Node21&#45;&gt;Node22 -->
<g id="edge29" class="edge">
<title>Node21&#45;&gt;Node22</title>
<path fill="none" stroke="midnightblue" d="M60,-102.1C58.34,-93.14 56.44,-82.86 55.12,-75.75"/>
<polygon fill="midnightblue" stroke="midnightblue" points="56.59,-102.89 61.85,-112.08 63.47,-101.61 56.59,-102.89"/>
</g>
<!-- Node23&#45;&gt;Node4 -->
<g id="edge31" class="edge">
<title>Node23&#45;&gt;Node4</title>
<path fill="none" stroke="midnightblue" d="M289.1,-111.83C437.24,-96.02 476.46,-96.72 620.5,-76 623.99,-75.5 627.61,-74.93 631.24,-74.34"/>
<polygon fill="midnightblue" stroke="midnightblue" points="288.28,-108.4 278.71,-112.95 289.03,-115.36 288.28,-108.4"/>
</g>
<!-- Node24 -->
<g id="node24" class="node">
<title>Node24</title>
<g id="a_node24"><a xlink:href="../../d3/de7/simulatedannealingoptimizer_8cpp.html" target="_top" xlink:title=" ">
<polygon fill="white" stroke="black" points="125.5,-56.5 125.5,-75.5 283.5,-75.5 283.5,-56.5 125.5,-56.5"/>
<text text-anchor="middle" x="204.5" y="-63.5" font-family="Helvetica,sans-Serif" font-size="10.00">simulatedannealingoptimizer.cpp</text>
</a>
</g>
</g>
<!-- Node23&#45;&gt;Node24 -->
<g id="edge32" class="edge">
<title>Node23&#45;&gt;Node24</title>
<path fill="none" stroke="midnightblue" d="M204.5,-101.8C204.5,-92.91 204.5,-82.78 204.5,-75.75"/>
<polygon fill="midnightblue" stroke="midnightblue" points="201,-102.08 204.5,-112.08 208,-102.08 201,-102.08"/>
</g>
<!-- Node25&#45;&gt;Node4 -->
<g id="edge34" class="edge">
<title>Node25&#45;&gt;Node4</title>
<path fill="none" stroke="midnightblue" d="M427.3,-110.65C478.17,-101.54 554.26,-87.9 620.5,-76 624.06,-75.36 627.76,-74.7 631.47,-74.03"/>
<polygon fill="midnightblue" stroke="midnightblue" points="426.38,-107.26 417.15,-112.47 427.61,-114.15 426.38,-107.26"/>
</g>
<!-- Node26 -->
<g id="node26" class="node">
<title>Node26</title>
<g id="a_node26"><a xlink:href="../../d1/d28/thresholdacceptingoptimizer_8cpp.html" target="_top" xlink:title=" ">
<polygon fill="white" stroke="black" points="302,-56.5 302,-75.5 459,-75.5 459,-56.5 302,-56.5"/>
<text text-anchor="middle" x="380.5" y="-63.5" font-family="Helvetica,sans-Serif" font-size="10.00">thresholdacceptingoptimizer.cpp</text>
</a>
</g>
</g>
<!-- Node25&#45;&gt;Node26 -->
<g id="edge35" class="edge">
<title>Node25&#45;&gt;Node26</title>
<path fill="none" stroke="midnightblue" d="M373.35,-102.1C375.18,-93.14 377.27,-82.86 378.72,-75.75"/>
<polygon fill="midnightblue" stroke="midnightblue" points="369.88,-101.59 371.32,-112.08 376.74,-102.98 369.88,-101.59"/>
</g>
<!-- Node27&#45;&gt;Node4 -->
<g id="edge37" class="edge">
<title>Node27&#45;&gt;Node4</title>
<path fill="none" stroke="midnightblue" d="M1314.51,-112.05C1050.34,-80.2 979.59,-107.62 719.5,-76 716.32,-75.61 713.04,-75.15 709.75,-74.64"/>
<polygon fill="midnightblue" stroke="midnightblue" points="1314.44,-115.57 1324.79,-113.31 1315.29,-108.62 1314.44,-115.57"/>
</g>
<!-- Node28 -->
<g id="node28" class="node">
<title>Node28</title>
<g id="a_node28"><a xlink:href="../../db/d09/autowiretool_8cpp.html" target="_top" xlink:title=" ">
<polygon fill="white" stroke="black" points="1348.5,-56.5 1348.5,-75.5 1436.5,-75.5 1436.5,-56.5 1348.5,-56.5"/>
<text text-anchor="middle" x="1392.5" y="-63.5" font-family="Helvetica,sans-Serif" font-size="10.00">autowiretool.cpp</text>
</a>
</g>
</g>
<!-- Node27&#45;&gt;Node28 -->
<g id="edge38" class="edge">
<title>Node27&#45;&gt;Node28</title>
<path fill="none" stroke="midnightblue" d="M1373.18,-102.98C1378.1,-93.82 1383.86,-83.09 1387.8,-75.75"/>
<polygon fill="midnightblue" stroke="midnightblue" points="1369.94,-101.62 1368.29,-112.08 1376.1,-104.93 1369.94,-101.62"/>
</g>
</g>
</svg>
