<?xml version="1.0" encoding="UTF-8" standalone="no"?>
<!DOCTYPE svg PUBLIC "-//W3C//DTD SVG 1.1//EN"
 "http://www.w3.org/Graphics/SVG/1.1/DTD/svg11.dtd">
<!-- Generated by graphviz version 2.44.1 (0)
 -->
<!-- Title: utils Pages: 1 -->
<svg width="230pt" height="188pt"
 viewBox="0.00 0.00 229.50 188.00" xmlns="http://www.w3.org/2000/svg" xmlns:xlink="http://www.w3.org/1999/xlink">
<g id="graph0" class="graph" transform="scale(1 1) rotate(0) translate(4 184)">
<title>utils</title>
<polygon fill="white" stroke="transparent" points="-4,4 -4,-184 225.5,-184 225.5,4 -4,4"/>
<g id="clust1" class="cluster">
<title>clusterdir_c563bfb3893489f60dc261a5d1284383</title>
<g id="a_clust1"><a xlink:href="dir_c563bfb3893489f60dc261a5d1284383.html" target="_top" xlink:title="capricate">
<polygon fill="#ddddee" stroke="black" points="8,-64 8,-135 78,-135 78,-64 8,-64"/>
<text text-anchor="middle" x="43" y="-123" font-family="Helvetica,sans-Serif" font-size="10.00">capricate</text>
</a>
</g>
</g>
<!-- dir_edb7f24b749560f5d6a55b3533a2bde5 -->
<g id="node1" class="node">
<title>dir_edb7f24b749560f5d6a55b3533a2bde5</title>
<g id="a_node1"><a xlink:href="dir_edb7f24b749560f5d6a55b3533a2bde5.html" target="_top" xlink:title="utils">
<polygon fill="#eeeeff" stroke="black" points="70,-108 16,-108 16,-72 70,-72 70,-108"/>
<text text-anchor="middle" x="43" y="-87.5" font-family="Helvetica,sans-Serif" font-size="10.00">utils</text>
</a>
</g>
</g>
<!-- dir_3829bf5f965df6a0810f3222ac9c70ab -->
<g id="node2" class="node">
<title>dir_3829bf5f965df6a0810f3222ac9c70ab</title>
<g id="a_node2"><a xlink:href="dir_3829bf5f965df6a0810f3222ac9c70ab.html" target="_top" xlink:title="core">
<polygon fill="none" stroke="black" points="142,-180 88,-180 88,-144 142,-144 142,-180"/>
<text text-anchor="middle" x="115" y="-159.5" font-family="Helvetica,sans-Serif" font-size="10.00">core</text>
</a>
</g>
</g>
<!-- dir_edb7f24b749560f5d6a55b3533a2bde5&#45;&gt;dir_3829bf5f965df6a0810f3222ac9c70ab -->
<g id="edge10" class="edge">
<title>dir_edb7f24b749560f5d6a55b3533a2bde5&#45;&gt;dir_3829bf5f965df6a0810f3222ac9c70ab</title>
<path fill="none" stroke="black" d="M47.31,-108.19C52.93,-116.71 61.38,-126.88 70,-135 72.89,-137.72 76.06,-140.39 79.37,-142.93"/>
<polygon fill="black" stroke="black" points="77.6,-145.97 87.78,-148.91 81.66,-140.26 77.6,-145.97"/>
<g id="a_edge10&#45;headlabel"><a xlink:href="dir_000015_000003.html" target="_top" xlink:title="13">
<text text-anchor="middle" x="73.03" y="-143.7" font-family="Helvetica,sans-Serif" font-size="10.00">13</text>
</a>
</g>
</g>
<!-- dir_bb98c3ed06be6a090da92768249f1878 -->
<g id="node3" class="node">
<title>dir_bb98c3ed06be6a090da92768249f1878</title>
<g id="a_node3"><a xlink:href="dir_bb98c3ed06be6a090da92768249f1878.html" target="_top" xlink:title="tools">
<polygon fill="none" stroke="black" points="142,-108 88,-108 88,-72 142,-72 142,-108"/>
<text text-anchor="middle" x="115" y="-87.5" font-family="Helvetica,sans-Serif" font-size="10.00">tools</text>
</a>
</g>
</g>
<!-- dir_edb7f24b749560f5d6a55b3533a2bde5&#45;&gt;dir_bb98c3ed06be6a090da92768249f1878 -->
<g id="edge11" class="edge">
<title>dir_edb7f24b749560f5d6a55b3533a2bde5&#45;&gt;dir_bb98c3ed06be6a090da92768249f1878</title>
<path fill="none" stroke="black" d="M70.28,-90C72.74,-90 75.19,-90 77.65,-90"/>
<polygon fill="black" stroke="black" points="77.75,-93.5 87.75,-90 77.75,-86.5 77.75,-93.5"/>
<g id="a_edge11&#45;headlabel"><a xlink:href="dir_000015_000004.html" target="_top" xlink:title="2">
<text text-anchor="middle" x="74.15" y="-93.84" font-family="Helvetica,sans-Serif" font-size="10.00">2</text>
</a>
</g>
</g>
<!-- dir_0b907e3e66e9dd7d2fb4cfd98ea46de6 -->
<g id="node4" class="node">
<title>dir_0b907e3e66e9dd7d2fb4cfd98ea46de6</title>
<g id="a_node4"><a xlink:href="dir_0b907e3e66e9dd7d2fb4cfd98ea46de6.html" target="_top" xlink:title="vtkext">
<polygon fill="none" stroke="black" points="70,-36 16,-36 16,0 70,0 70,-36"/>
<text text-anchor="middle" x="43" y="-15.5" font-family="Helvetica,sans-Serif" font-size="10.00">vtkext</text>
</a>
</g>
</g>
<!-- dir_edb7f24b749560f5d6a55b3533a2bde5&#45;&gt;dir_0b907e3e66e9dd7d2fb4cfd98ea46de6 -->
<g id="edge12" class="edge">
<title>dir_edb7f24b749560f5d6a55b3533a2bde5&#45;&gt;dir_0b907e3e66e9dd7d2fb4cfd98ea46de6</title>
<path fill="none" stroke="black" d="M43,-71.7C43,-63.98 43,-54.71 43,-46.11"/>
<polygon fill="black" stroke="black" points="46.5,-46.1 43,-36.1 39.5,-46.1 46.5,-46.1"/>
<g id="a_edge12&#45;headlabel"><a xlink:href="dir_000015_000021.html" target="_top" xlink:title="2">
<text text-anchor="middle" x="49.34" y="-47.2" font-family="Helvetica,sans-Serif" font-size="10.00">2</text>
</a>
</g>
</g>
<!-- dir_b8cf98f3e079e896d5c484aae2701fc3 -->
<g id="node5" class="node">
<title>dir_b8cf98f3e079e896d5c484aae2701fc3</title>
<g id="a_node5"><a xlink:href="dir_b8cf98f3e079e896d5c484aae2701fc3.html" target="_top" xlink:title="voxelizers">
<polygon fill="none" stroke="black" points="221.5,-108 160.5,-108 160.5,-72 221.5,-72 221.5,-108"/>
<text text-anchor="middle" x="191" y="-87.5" font-family="Helvetica,sans-Serif" font-size="10.00">voxelizers</text>
</a>
</g>
</g>
<!-- dir_edb7f24b749560f5d6a55b3533a2bde5&#45;&gt;dir_b8cf98f3e079e896d5c484aae2701fc3 -->
<g id="edge13" class="edge">
<title>dir_edb7f24b749560f5d6a55b3533a2bde5&#45;&gt;dir_b8cf98f3e079e896d5c484aae2701fc3</title>
<path fill="none" stroke="black" d="M54.78,-108.22C61.17,-117.09 69.66,-127.45 79,-135 82.48,-137.81 83.65,-138.47 88,-139.5 111.36,-145.01 118.64,-145.01 142,-139.5 155.28,-136.37 166.37,-126.38 174.63,-116.19"/>
<polygon fill="black" stroke="black" points="177.48,-118.21 180.62,-108.1 171.86,-114.05 177.48,-118.21"/>
<g id="a_edge13&#45;headlabel"><a xlink:href="dir_000015_000019.html" target="_top" xlink:title="3">
<text text-anchor="middle" x="177.62" y="-120.29" font-family="Helvetica,sans-Serif" font-size="10.00">3</text>
</a>
</g>
</g>
<!-- dir_5b69a53d6e3b70ae97af5a933b7eaa3e -->
<g id="node6" class="node">
<title>dir_5b69a53d6e3b70ae97af5a933b7eaa3e</title>
<g id="a_node6"><a xlink:href="dir_5b69a53d6e3b70ae97af5a933b7eaa3e.html" target="_top" xlink:title="defs">
<polygon fill="none" stroke="black" points="142,-36 88,-36 88,0 142,0 142,-36"/>
<text text-anchor="middle" x="115" y="-15.5" font-family="Helvetica,sans-Serif" font-size="10.00">defs</text>
</a>
</g>
</g>
<!-- dir_edb7f24b749560f5d6a55b3533a2bde5&#45;&gt;dir_5b69a53d6e3b70ae97af5a933b7eaa3e -->
<g id="edge14" class="edge">
<title>dir_edb7f24b749560f5d6a55b3533a2bde5&#45;&gt;dir_5b69a53d6e3b70ae97af5a933b7eaa3e</title>
<path fill="none" stroke="black" d="M60.8,-71.7C69.6,-63.14 80.38,-52.66 90,-43.3"/>
<polygon fill="black" stroke="black" points="92.68,-45.58 97.41,-36.1 87.8,-40.57 92.68,-45.58"/>
<g id="a_edge14&#45;headlabel"><a xlink:href="dir_000015_000009.html" target="_top" xlink:title="2">
<text text-anchor="middle" x="92.08" y="-47.63" font-family="Helvetica,sans-Serif" font-size="10.00">2</text>
</a>
</g>
</g>
<!-- dir_3829bf5f965df6a0810f3222ac9c70ab&#45;&gt;dir_edb7f24b749560f5d6a55b3533a2bde5 -->
<g id="edge3" class="edge">
<title>dir_3829bf5f965df6a0810f3222ac9c70ab&#45;&gt;dir_edb7f24b749560f5d6a55b3533a2bde5</title>
<path fill="none" stroke="black" d="M98.44,-143.9C94.88,-141.08 91.26,-138.07 88,-135 81.94,-129.29 75.96,-122.57 70.35,-116.11"/>
<polygon fill="black" stroke="black" points="72.66,-113.44 63.46,-108.19 67.38,-118.03 72.66,-113.44"/>
<g id="a_edge3&#45;headlabel"><a xlink:href="dir_000003_000015.html" target="_top" xlink:title="4">
<text text-anchor="middle" x="77.16" y="-111.79" font-family="Helvetica,sans-Serif" font-size="10.00">4</text>
</a>
</g>
</g>
<!-- dir_3829bf5f965df6a0810f3222ac9c70ab&#45;&gt;dir_bb98c3ed06be6a090da92768249f1878 -->
<g id="edge1" class="edge">
<title>dir_3829bf5f965df6a0810f3222ac9c70ab&#45;&gt;dir_bb98c3ed06be6a090da92768249f1878</title>
<path fill="none" stroke="black" d="M109.08,-143.7C108.29,-135.98 108.06,-126.71 108.4,-118.11"/>
<polygon fill="black" stroke="black" points="111.9,-118.32 109.1,-108.1 104.92,-117.84 111.9,-118.32"/>
<g id="a_edge1&#45;headlabel"><a xlink:href="dir_000003_000004.html" target="_top" xlink:title="1">
<text text-anchor="middle" x="114.48" y="-119.61" font-family="Helvetica,sans-Serif" font-size="10.00">1</text>
</a>
</g>
</g>
<!-- dir_3829bf5f965df6a0810f3222ac9c70ab&#45;&gt;dir_b8cf98f3e079e896d5c484aae2701fc3 -->
<g id="edge2" class="edge">
<title>dir_3829bf5f965df6a0810f3222ac9c70ab&#45;&gt;dir_b8cf98f3e079e896d5c484aae2701fc3</title>
<path fill="none" stroke="black" d="M131.41,-143.75C134.99,-140.94 138.67,-137.98 142,-135 148.64,-129.07 155.35,-122.14 161.66,-115.56"/>
<polygon fill="black" stroke="black" points="164.46,-117.7 168.88,-108.07 159.42,-112.84 164.46,-117.7"/>
<g id="a_edge2&#45;headlabel"><a xlink:href="dir_000003_000019.html" target="_top" xlink:title="1">
<text text-anchor="middle" x="164.01" y="-119.76" font-family="Helvetica,sans-Serif" font-size="10.00">1</text>
</a>
</g>
</g>
<!-- dir_bb98c3ed06be6a090da92768249f1878&#45;&gt;dir_edb7f24b749560f5d6a55b3533a2bde5 -->
<g id="edge6" class="edge">
<title>dir_bb98c3ed06be6a090da92768249f1878&#45;&gt;dir_edb7f24b749560f5d6a55b3533a2bde5</title>
<path fill="none" stroke="black" d="M87.75,-90C85.29,-90 82.84,-90 80.38,-90"/>
<polygon fill="black" stroke="black" points="80.28,-86.5 70.28,-90 80.28,-93.5 80.28,-86.5"/>
<g id="a_edge6&#45;headlabel"><a xlink:href="dir_000004_000015.html" target="_top" xlink:title="14">
<text text-anchor="middle" x="83.88" y="-81.16" font-family="Helvetica,sans-Serif" font-size="10.00">14</text>
</a>
</g>
</g>
<!-- dir_bb98c3ed06be6a090da92768249f1878&#45;&gt;dir_3829bf5f965df6a0810f3222ac9c70ab -->
<g id="edge4" class="edge">
<title>dir_bb98c3ed06be6a090da92768249f1878&#45;&gt;dir_3829bf5f965df6a0810f3222ac9c70ab</title>
<path fill="none" stroke="black" d="M120.9,-108.1C121.7,-115.79 121.94,-125.05 121.6,-133.67"/>
<polygon fill="black" stroke="black" points="118.11,-133.48 120.92,-143.7 125.09,-133.96 118.11,-133.48"/>
<g id="a_edge4&#45;headlabel"><a xlink:href="dir_000004_000003.html" target="_top" xlink:title="18">
<text text-anchor="middle" x="115.52" y="-127.2" font-family="Helvetica,sans-Serif" font-size="10.00">18</text>
</a>
</g>
</g>
<!-- dir_bb98c3ed06be6a090da92768249f1878&#45;&gt;dir_5b69a53d6e3b70ae97af5a933b7eaa3e -->
<g id="edge5" class="edge">
<title>dir_bb98c3ed06be6a090da92768249f1878&#45;&gt;dir_5b69a53d6e3b70ae97af5a933b7eaa3e</title>
<path fill="none" stroke="black" d="M115,-71.7C115,-63.98 115,-54.71 115,-46.11"/>
<polygon fill="black" stroke="black" points="118.5,-46.1 115,-36.1 111.5,-46.1 118.5,-46.1"/>
<g id="a_edge5&#45;headlabel"><a xlink:href="dir_000004_000009.html" target="_top" xlink:title="1">
<text text-anchor="middle" x="121.34" y="-47.2" font-family="Helvetica,sans-Serif" font-size="10.00">1</text>
</a>
</g>
</g>
<!-- dir_b8cf98f3e079e896d5c484aae2701fc3&#45;&gt;dir_edb7f24b749560f5d6a55b3533a2bde5 -->
<g id="edge9" class="edge">
<title>dir_b8cf98f3e079e896d5c484aae2701fc3&#45;&gt;dir_edb7f24b749560f5d6a55b3533a2bde5</title>
<path fill="none" stroke="black" d="M180.62,-108.1C172.15,-120.55 158.83,-135.53 142,-139.5 118.64,-145.01 111.36,-145.01 88,-139.5 83.65,-138.47 82.48,-137.81 79,-135 72.44,-129.69 66.29,-123 60.99,-116.4"/>
<polygon fill="black" stroke="black" points="63.61,-114.06 54.78,-108.22 58.04,-118.3 63.61,-114.06"/>
<g id="a_edge9&#45;headlabel"><a xlink:href="dir_000019_000015.html" target="_top" xlink:title="2">
<text text-anchor="middle" x="68.05" y="-112.71" font-family="Helvetica,sans-Serif" font-size="10.00">2</text>
</a>
</g>
</g>
<!-- dir_b8cf98f3e079e896d5c484aae2701fc3&#45;&gt;dir_3829bf5f965df6a0810f3222ac9c70ab -->
<g id="edge7" class="edge">
<title>dir_b8cf98f3e079e896d5c484aae2701fc3&#45;&gt;dir_3829bf5f965df6a0810f3222ac9c70ab</title>
<path fill="none" stroke="black" d="M185.02,-108.07C178.6,-116.56 169.24,-126.75 160,-135 157.04,-137.64 153.82,-140.27 150.49,-142.78"/>
<polygon fill="black" stroke="black" points="148.21,-140.11 142.07,-148.74 152.25,-145.83 148.21,-140.11"/>
<g id="a_edge7&#45;headlabel"><a xlink:href="dir_000019_000003.html" target="_top" xlink:title="5">
<text text-anchor="middle" x="149.51" y="-133.22" font-family="Helvetica,sans-Serif" font-size="10.00">5</text>
</a>
</g>
</g>
<!-- dir_b8cf98f3e079e896d5c484aae2701fc3&#45;&gt;dir_5b69a53d6e3b70ae97af5a933b7eaa3e -->
<g id="edge8" class="edge">
<title>dir_b8cf98f3e079e896d5c484aae2701fc3&#45;&gt;dir_5b69a53d6e3b70ae97af5a933b7eaa3e</title>
<path fill="none" stroke="black" d="M172.21,-71.7C162.83,-63.05 151.32,-52.45 141.09,-43.03"/>
<polygon fill="black" stroke="black" points="143.3,-40.3 133.57,-36.1 138.55,-45.45 143.3,-40.3"/>
<g id="a_edge8&#45;headlabel"><a xlink:href="dir_000019_000009.html" target="_top" xlink:title="1">
<text text-anchor="middle" x="147.86" y="-38.15" font-family="Helvetica,sans-Serif" font-size="10.00">1</text>
</a>
</g>
</g>
</g>
</svg>
