<?xml version="1.0" encoding="UTF-8" standalone="no"?>
<!DOCTYPE svg PUBLIC "-//W3C//DTD SVG 1.1//EN"
 "http://www.w3.org/Graphics/SVG/1.1/DTD/svg11.dtd">
<!-- Generated by graphviz version 2.44.0 (0)
 -->
<!-- Title: core Pages: 1 -->
<svg width="154pt" height="188pt"
 viewBox="0.00 0.00 153.50 188.00" xmlns="http://www.w3.org/2000/svg" xmlns:xlink="http://www.w3.org/1999/xlink">
<g id="graph0" class="graph" transform="scale(1 1) rotate(0) translate(4 184)">
<title>core</title>
<polygon fill="white" stroke="transparent" points="-4,4 -4,-184 149.5,-184 149.5,4 -4,4"/>
<g id="clust1" class="cluster">
<title>clusterdir_c563bfb3893489f60dc261a5d1284383</title>
<g id="a_clust1"><a xlink:href="dir_c563bfb3893489f60dc261a5d1284383.html" target="_top" xlink:title="capricate">
<polygon fill="#ddddee" stroke="black" points="8,-64 8,-135 78,-135 78,-64 8,-64"/>
<text text-anchor="middle" x="43" y="-123" font-family="Helvetica,sans-Serif" font-size="10.00">capricate</text>
</a>
</g>
</g>
<!-- dir_3829bf5f965df6a0810f3222ac9c70ab -->
<g id="node1" class="node">
<title>dir_3829bf5f965df6a0810f3222ac9c70ab</title>
<g id="a_node1"><a xlink:href="dir_3829bf5f965df6a0810f3222ac9c70ab.html" target="_top" xlink:title="core">
<polygon fill="#eeeeff" stroke="black" points="70,-108 16,-108 16,-72 70,-72 70,-108"/>
<text text-anchor="middle" x="43" y="-87.5" font-family="Helvetica,sans-Serif" font-size="10.00">core</text>
</a>
</g>
</g>
<!-- dir_bb98c3ed06be6a090da92768249f1878 -->
<g id="node2" class="node">
<title>dir_bb98c3ed06be6a090da92768249f1878</title>
<g id="a_node2"><a xlink:href="dir_bb98c3ed06be6a090da92768249f1878.html" target="_top" xlink:title="tools">
<polygon fill="none" stroke="black" points="142,-180 88,-180 88,-144 142,-144 142,-180"/>
<text text-anchor="middle" x="115" y="-159.5" font-family="Helvetica,sans-Serif" font-size="10.00">tools</text>
</a>
</g>
</g>
<!-- dir_3829bf5f965df6a0810f3222ac9c70ab&#45;&gt;dir_bb98c3ed06be6a090da92768249f1878 -->
<g id="edge1" class="edge">
<title>dir_3829bf5f965df6a0810f3222ac9c70ab&#45;&gt;dir_bb98c3ed06be6a090da92768249f1878</title>
<path fill="none" stroke="black" d="M47.31,-108.19C52.93,-116.71 61.38,-126.88 70,-135 72.89,-137.72 76.06,-140.39 79.37,-142.93"/>
<polygon fill="black" stroke="black" points="77.6,-145.97 87.78,-148.91 81.66,-140.26 77.6,-145.97"/>
<g id="a_edge1&#45;headlabel"><a xlink:href="dir_000003_000004.html" target="_top" xlink:title="1">
<text text-anchor="middle" x="73.03" y="-143.7" font-family="Helvetica,sans-Serif" font-size="10.00">1</text>
</a>
</g>
</g>
<!-- dir_b8cf98f3e079e896d5c484aae2701fc3 -->
<g id="node3" class="node">
<title>dir_b8cf98f3e079e896d5c484aae2701fc3</title>
<g id="a_node3"><a xlink:href="dir_b8cf98f3e079e896d5c484aae2701fc3.html" target="_top" xlink:title="voxelizers">
<polygon fill="none" stroke="black" points="145.5,-36 84.5,-36 84.5,0 145.5,0 145.5,-36"/>
<text text-anchor="middle" x="115" y="-15.5" font-family="Helvetica,sans-Serif" font-size="10.00">voxelizers</text>
</a>
</g>
</g>
<!-- dir_3829bf5f965df6a0810f3222ac9c70ab&#45;&gt;dir_b8cf98f3e079e896d5c484aae2701fc3 -->
<g id="edge2" class="edge">
<title>dir_3829bf5f965df6a0810f3222ac9c70ab&#45;&gt;dir_b8cf98f3e079e896d5c484aae2701fc3</title>
<path fill="none" stroke="black" d="M54.88,-71.7C62.88,-63.05 73.61,-52.45 83.84,-43.03"/>
<polygon fill="black" stroke="black" points="86.43,-45.4 91.51,-36.1 81.74,-40.21 86.43,-45.4"/>
<g id="a_edge2&#45;headlabel"><a xlink:href="dir_000003_000011.html" target="_top" xlink:title="1">
<text text-anchor="middle" x="85.67" y="-47.42" font-family="Helvetica,sans-Serif" font-size="10.00">1</text>
</a>
</g>
</g>
<!-- dir_edb7f24b749560f5d6a55b3533a2bde5 -->
<g id="node4" class="node">
<title>dir_edb7f24b749560f5d6a55b3533a2bde5</title>
<g id="a_node4"><a xlink:href="dir_edb7f24b749560f5d6a55b3533a2bde5.html" target="_top" xlink:title="utils">
<polygon fill="none" stroke="black" points="142,-108 88,-108 88,-72 142,-72 142,-108"/>
<text text-anchor="middle" x="115" y="-87.5" font-family="Helvetica,sans-Serif" font-size="10.00">utils</text>
</a>
</g>
</g>
<!-- dir_3829bf5f965df6a0810f3222ac9c70ab&#45;&gt;dir_edb7f24b749560f5d6a55b3533a2bde5 -->
<g id="edge3" class="edge">
<title>dir_3829bf5f965df6a0810f3222ac9c70ab&#45;&gt;dir_edb7f24b749560f5d6a55b3533a2bde5</title>
<path fill="none" stroke="black" d="M70.28,-90C72.74,-90 75.19,-90 77.65,-90"/>
<polygon fill="black" stroke="black" points="77.75,-93.5 87.75,-90 77.75,-86.5 77.75,-93.5"/>
<g id="a_edge3&#45;headlabel"><a xlink:href="dir_000003_000008.html" target="_top" xlink:title="4">
<text text-anchor="middle" x="74.15" y="-93.84" font-family="Helvetica,sans-Serif" font-size="10.00">4</text>
</a>
</g>
</g>
<!-- dir_bb98c3ed06be6a090da92768249f1878&#45;&gt;dir_3829bf5f965df6a0810f3222ac9c70ab -->
<g id="edge4" class="edge">
<title>dir_bb98c3ed06be6a090da92768249f1878&#45;&gt;dir_3829bf5f965df6a0810f3222ac9c70ab</title>
<path fill="none" stroke="black" d="M98.44,-143.9C94.88,-141.08 91.26,-138.07 88,-135 81.94,-129.29 75.96,-122.57 70.35,-116.11"/>
<polygon fill="black" stroke="black" points="72.66,-113.44 63.46,-108.19 67.38,-118.03 72.66,-113.44"/>
<g id="a_edge4&#45;headlabel"><a xlink:href="dir_000004_000003.html" target="_top" xlink:title="18">
<text text-anchor="middle" x="77.16" y="-111.79" font-family="Helvetica,sans-Serif" font-size="10.00">18</text>
</a>
</g>
</g>
<!-- dir_bb98c3ed06be6a090da92768249f1878&#45;&gt;dir_edb7f24b749560f5d6a55b3533a2bde5 -->
<g id="edge5" class="edge">
<title>dir_bb98c3ed06be6a090da92768249f1878&#45;&gt;dir_edb7f24b749560f5d6a55b3533a2bde5</title>
<path fill="none" stroke="black" d="M109.08,-143.7C108.29,-135.98 108.06,-126.71 108.4,-118.11"/>
<polygon fill="black" stroke="black" points="111.9,-118.32 109.1,-108.1 104.92,-117.84 111.9,-118.32"/>
<g id="a_edge5&#45;headlabel"><a xlink:href="dir_000004_000008.html" target="_top" xlink:title="14">
<text text-anchor="middle" x="114.48" y="-119.61" font-family="Helvetica,sans-Serif" font-size="10.00">14</text>
</a>
</g>
</g>
<!-- dir_b8cf98f3e079e896d5c484aae2701fc3&#45;&gt;dir_3829bf5f965df6a0810f3222ac9c70ab -->
<g id="edge6" class="edge">
<title>dir_b8cf98f3e079e896d5c484aae2701fc3&#45;&gt;dir_3829bf5f965df6a0810f3222ac9c70ab</title>
<path fill="none" stroke="black" d="M103.3,-36.1C95.34,-44.72 84.63,-55.32 74.4,-64.76"/>
<polygon fill="black" stroke="black" points="71.79,-62.4 66.71,-71.7 76.48,-67.59 71.79,-62.4"/>
<g id="a_edge6&#45;headlabel"><a xlink:href="dir_000011_000003.html" target="_top" xlink:title="5">
<text text-anchor="middle" x="72.55" y="-55.38" font-family="Helvetica,sans-Serif" font-size="10.00">5</text>
</a>
</g>
</g>
<!-- dir_b8cf98f3e079e896d5c484aae2701fc3&#45;&gt;dir_edb7f24b749560f5d6a55b3533a2bde5 -->
<g id="edge7" class="edge">
<title>dir_b8cf98f3e079e896d5c484aae2701fc3&#45;&gt;dir_edb7f24b749560f5d6a55b3533a2bde5</title>
<path fill="none" stroke="black" d="M120.9,-36.1C121.7,-43.79 121.94,-53.05 121.6,-61.67"/>
<polygon fill="black" stroke="black" points="118.11,-61.48 120.92,-71.7 125.09,-61.96 118.11,-61.48"/>
<g id="a_edge7&#45;headlabel"><a xlink:href="dir_000011_000008.html" target="_top" xlink:title="2">
<text text-anchor="middle" x="115.52" y="-55.2" font-family="Helvetica,sans-Serif" font-size="10.00">2</text>
</a>
</g>
</g>
<!-- dir_edb7f24b749560f5d6a55b3533a2bde5&#45;&gt;dir_3829bf5f965df6a0810f3222ac9c70ab -->
<g id="edge8" class="edge">
<title>dir_edb7f24b749560f5d6a55b3533a2bde5&#45;&gt;dir_3829bf5f965df6a0810f3222ac9c70ab</title>
<path fill="none" stroke="black" d="M87.75,-90C85.29,-90 82.84,-90 80.38,-90"/>
<polygon fill="black" stroke="black" points="80.28,-86.5 70.28,-90 80.28,-93.5 80.28,-86.5"/>
<g id="a_edge8&#45;headlabel"><a xlink:href="dir_000008_000003.html" target="_top" xlink:title="12">
<text text-anchor="middle" x="83.88" y="-81.16" font-family="Helvetica,sans-Serif" font-size="10.00">12</text>
</a>
</g>
</g>
<!-- dir_edb7f24b749560f5d6a55b3533a2bde5&#45;&gt;dir_bb98c3ed06be6a090da92768249f1878 -->
<g id="edge9" class="edge">
<title>dir_edb7f24b749560f5d6a55b3533a2bde5&#45;&gt;dir_bb98c3ed06be6a090da92768249f1878</title>
<path fill="none" stroke="black" d="M120.9,-108.1C121.7,-115.79 121.94,-125.05 121.6,-133.67"/>
<polygon fill="black" stroke="black" points="118.11,-133.48 120.92,-143.7 125.09,-133.96 118.11,-133.48"/>
<g id="a_edge9&#45;headlabel"><a xlink:href="dir_000008_000004.html" target="_top" xlink:title="2">
<text text-anchor="middle" x="115.52" y="-127.2" font-family="Helvetica,sans-Serif" font-size="10.00">2</text>
</a>
</g>
</g>
<!-- dir_edb7f24b749560f5d6a55b3533a2bde5&#45;&gt;dir_b8cf98f3e079e896d5c484aae2701fc3 -->
<g id="edge10" class="edge">
<title>dir_edb7f24b749560f5d6a55b3533a2bde5&#45;&gt;dir_b8cf98f3e079e896d5c484aae2701fc3</title>
<path fill="none" stroke="black" d="M109.08,-71.7C108.29,-63.98 108.06,-54.71 108.4,-46.11"/>
<polygon fill="black" stroke="black" points="111.9,-46.32 109.1,-36.1 104.92,-45.84 111.9,-46.32"/>
<g id="a_edge10&#45;headlabel"><a xlink:href="dir_000008_000011.html" target="_top" xlink:title="3">
<text text-anchor="middle" x="114.48" y="-47.61" font-family="Helvetica,sans-Serif" font-size="10.00">3</text>
</a>
</g>
</g>
</g>
</svg>
