<?xml version="1.0" encoding="UTF-8" standalone="no"?>
<!DOCTYPE svg PUBLIC "-//W3C//DTD SVG 1.1//EN"
 "http://www.w3.org/Graphics/SVG/1.1/DTD/svg11.dtd">
<!-- Generated by graphviz version 2.44.1 (0)
 -->
<!-- Title: voxelizers Pages: 1 -->
<svg width="158pt" height="188pt"
 viewBox="0.00 0.00 158.00 188.00" xmlns="http://www.w3.org/2000/svg" xmlns:xlink="http://www.w3.org/1999/xlink">
<g id="graph0" class="graph" transform="scale(1 1) rotate(0) translate(4 184)">
<title>voxelizers</title>
<polygon fill="white" stroke="transparent" points="-4,4 -4,-184 154,-184 154,4 -4,4"/>
<g id="clust1" class="cluster">
<title>clusterdir_c563bfb3893489f60dc261a5d1284383</title>
<g id="a_clust1"><a xlink:href="dir_c563bfb3893489f60dc261a5d1284383.html" target="_top" xlink:title="capricate">
<polygon fill="#ddddee" stroke="black" points="8,-64 8,-135 86,-135 86,-64 8,-64"/>
<text text-anchor="middle" x="47" y="-123" font-family="Helvetica,sans-Serif" font-size="10.00">capricate</text>
</a>
</g>
</g>
<!-- dir_b8cf98f3e079e896d5c484aae2701fc3 -->
<g id="node1" class="node">
<title>dir_b8cf98f3e079e896d5c484aae2701fc3</title>
<g id="a_node1"><a xlink:href="dir_b8cf98f3e079e896d5c484aae2701fc3.html" target="_top" xlink:title="voxelizers">
<polygon fill="#eeeeff" stroke="black" points="77.5,-108 16.5,-108 16.5,-72 77.5,-72 77.5,-108"/>
<text text-anchor="middle" x="47" y="-87.5" font-family="Helvetica,sans-Serif" font-size="10.00">voxelizers</text>
</a>
</g>
</g>
<!-- dir_3829bf5f965df6a0810f3222ac9c70ab -->
<g id="node2" class="node">
<title>dir_3829bf5f965df6a0810f3222ac9c70ab</title>
<g id="a_node2"><a xlink:href="dir_3829bf5f965df6a0810f3222ac9c70ab.html" target="_top" xlink:title="core">
<polygon fill="none" stroke="black" points="150,-180 96,-180 96,-144 150,-144 150,-180"/>
<text text-anchor="middle" x="123" y="-159.5" font-family="Helvetica,sans-Serif" font-size="10.00">core</text>
</a>
</g>
</g>
<!-- dir_b8cf98f3e079e896d5c484aae2701fc3&#45;&gt;dir_3829bf5f965df6a0810f3222ac9c70ab -->
<g id="edge3" class="edge">
<title>dir_b8cf98f3e079e896d5c484aae2701fc3&#45;&gt;dir_3829bf5f965df6a0810f3222ac9c70ab</title>
<path fill="none" stroke="black" d="M52.98,-108.07C59.4,-116.56 68.76,-126.75 78,-135 80.96,-137.64 84.18,-140.27 87.51,-142.78"/>
<polygon fill="black" stroke="black" points="85.75,-145.83 95.93,-148.74 89.79,-140.11 85.75,-145.83"/>
<g id="a_edge3&#45;headlabel"><a xlink:href="dir_000011_000003.html" target="_top" xlink:title="5">
<text text-anchor="middle" x="81.17" y="-143.57" font-family="Helvetica,sans-Serif" font-size="10.00">5</text>
</a>
</g>
</g>
<!-- dir_5b69a53d6e3b70ae97af5a933b7eaa3e -->
<g id="node3" class="node">
<title>dir_5b69a53d6e3b70ae97af5a933b7eaa3e</title>
<g id="a_node3"><a xlink:href="dir_5b69a53d6e3b70ae97af5a933b7eaa3e.html" target="_top" xlink:title="defs">
<polygon fill="none" stroke="black" points="112,-36 58,-36 58,0 112,0 112,-36"/>
<text text-anchor="middle" x="85" y="-15.5" font-family="Helvetica,sans-Serif" font-size="10.00">defs</text>
</a>
</g>
</g>
<!-- dir_b8cf98f3e079e896d5c484aae2701fc3&#45;&gt;dir_5b69a53d6e3b70ae97af5a933b7eaa3e -->
<g id="edge4" class="edge">
<title>dir_b8cf98f3e079e896d5c484aae2701fc3&#45;&gt;dir_5b69a53d6e3b70ae97af5a933b7eaa3e</title>
<path fill="none" stroke="black" d="M56.39,-71.7C60.76,-63.64 66.06,-53.89 70.9,-44.98"/>
<polygon fill="black" stroke="black" points="74.02,-46.56 75.71,-36.1 67.87,-43.22 74.02,-46.56"/>
<g id="a_edge4&#45;headlabel"><a xlink:href="dir_000011_000006.html" target="_top" xlink:title="1">
<text text-anchor="middle" x="74.8" y="-48.58" font-family="Helvetica,sans-Serif" font-size="10.00">1</text>
</a>
</g>
</g>
<!-- dir_edb7f24b749560f5d6a55b3533a2bde5 -->
<g id="node4" class="node">
<title>dir_edb7f24b749560f5d6a55b3533a2bde5</title>
<g id="a_node4"><a xlink:href="dir_edb7f24b749560f5d6a55b3533a2bde5.html" target="_top" xlink:title="utils">
<polygon fill="none" stroke="black" points="150,-108 96,-108 96,-72 150,-72 150,-108"/>
<text text-anchor="middle" x="123" y="-87.5" font-family="Helvetica,sans-Serif" font-size="10.00">utils</text>
</a>
</g>
</g>
<!-- dir_b8cf98f3e079e896d5c484aae2701fc3&#45;&gt;dir_edb7f24b749560f5d6a55b3533a2bde5 -->
<g id="edge5" class="edge">
<title>dir_b8cf98f3e079e896d5c484aae2701fc3&#45;&gt;dir_edb7f24b749560f5d6a55b3533a2bde5</title>
<path fill="none" stroke="black" d="M77.58,-90C80.22,-90 82.86,-90 85.5,-90"/>
<polygon fill="black" stroke="black" points="85.68,-93.5 95.68,-90 85.68,-86.5 85.68,-93.5"/>
<g id="a_edge5&#45;headlabel"><a xlink:href="dir_000011_000008.html" target="_top" xlink:title="2">
<text text-anchor="middle" x="82.08" y="-93.84" font-family="Helvetica,sans-Serif" font-size="10.00">2</text>
</a>
</g>
</g>
<!-- dir_3829bf5f965df6a0810f3222ac9c70ab&#45;&gt;dir_b8cf98f3e079e896d5c484aae2701fc3 -->
<g id="edge1" class="edge">
<title>dir_3829bf5f965df6a0810f3222ac9c70ab&#45;&gt;dir_b8cf98f3e079e896d5c484aae2701fc3</title>
<path fill="none" stroke="black" d="M106.59,-143.75C103.01,-140.94 99.33,-137.98 96,-135 89.36,-129.07 82.65,-122.14 76.34,-115.56"/>
<polygon fill="black" stroke="black" points="78.58,-112.84 69.12,-108.07 73.54,-117.7 78.58,-112.84"/>
<g id="a_edge1&#45;headlabel"><a xlink:href="dir_000003_000011.html" target="_top" xlink:title="1">
<text text-anchor="middle" x="83.12" y="-110.96" font-family="Helvetica,sans-Serif" font-size="10.00">1</text>
</a>
</g>
</g>
<!-- dir_3829bf5f965df6a0810f3222ac9c70ab&#45;&gt;dir_edb7f24b749560f5d6a55b3533a2bde5 -->
<g id="edge2" class="edge">
<title>dir_3829bf5f965df6a0810f3222ac9c70ab&#45;&gt;dir_edb7f24b749560f5d6a55b3533a2bde5</title>
<path fill="none" stroke="black" d="M117.08,-143.7C116.29,-135.98 116.06,-126.71 116.4,-118.11"/>
<polygon fill="black" stroke="black" points="119.9,-118.32 117.1,-108.1 112.92,-117.84 119.9,-118.32"/>
<g id="a_edge2&#45;headlabel"><a xlink:href="dir_000003_000008.html" target="_top" xlink:title="4">
<text text-anchor="middle" x="122.48" y="-119.61" font-family="Helvetica,sans-Serif" font-size="10.00">4</text>
</a>
</g>
</g>
<!-- dir_edb7f24b749560f5d6a55b3533a2bde5&#45;&gt;dir_b8cf98f3e079e896d5c484aae2701fc3 -->
<g id="edge7" class="edge">
<title>dir_edb7f24b749560f5d6a55b3533a2bde5&#45;&gt;dir_b8cf98f3e079e896d5c484aae2701fc3</title>
<path fill="none" stroke="black" d="M95.68,-90C93.04,-90 90.4,-90 87.76,-90"/>
<polygon fill="black" stroke="black" points="87.58,-86.5 77.58,-90 87.58,-93.5 87.58,-86.5"/>
<g id="a_edge7&#45;headlabel"><a xlink:href="dir_000008_000011.html" target="_top" xlink:title="3">
<text text-anchor="middle" x="91.17" y="-81.16" font-family="Helvetica,sans-Serif" font-size="10.00">3</text>
</a>
</g>
</g>
<!-- dir_edb7f24b749560f5d6a55b3533a2bde5&#45;&gt;dir_3829bf5f965df6a0810f3222ac9c70ab -->
<g id="edge6" class="edge">
<title>dir_edb7f24b749560f5d6a55b3533a2bde5&#45;&gt;dir_3829bf5f965df6a0810f3222ac9c70ab</title>
<path fill="none" stroke="black" d="M128.9,-108.1C129.7,-115.79 129.94,-125.05 129.6,-133.67"/>
<polygon fill="black" stroke="black" points="126.11,-133.48 128.92,-143.7 133.09,-133.96 126.11,-133.48"/>
<g id="a_edge6&#45;headlabel"><a xlink:href="dir_000008_000003.html" target="_top" xlink:title="12">
<text text-anchor="middle" x="123.52" y="-127.2" font-family="Helvetica,sans-Serif" font-size="10.00">12</text>
</a>
</g>
</g>
<!-- dir_edb7f24b749560f5d6a55b3533a2bde5&#45;&gt;dir_5b69a53d6e3b70ae97af5a933b7eaa3e -->
<g id="edge8" class="edge">
<title>dir_edb7f24b749560f5d6a55b3533a2bde5&#45;&gt;dir_5b69a53d6e3b70ae97af5a933b7eaa3e</title>
<path fill="none" stroke="black" d="M113.61,-71.7C109.24,-63.64 103.94,-53.89 99.1,-44.98"/>
<polygon fill="black" stroke="black" points="102.13,-43.22 94.29,-36.1 95.98,-46.56 102.13,-43.22"/>
<g id="a_edge8&#45;headlabel"><a xlink:href="dir_000008_000006.html" target="_top" xlink:title="1">
<text text-anchor="middle" x="106.34" y="-42.53" font-family="Helvetica,sans-Serif" font-size="10.00">1</text>
</a>
</g>
</g>
</g>
</svg>
