<?xml version="1.0" encoding="UTF-8" standalone="no"?>
<!DOCTYPE svg PUBLIC "-//W3C//DTD SVG 1.1//EN"
 "http://www.w3.org/Graphics/SVG/1.1/DTD/svg11.dtd">
<!-- Generated by graphviz version 2.44.1 (0)
 -->
<!-- Title: capricate Pages: 1 -->
<svg width="488pt" height="615pt"
 viewBox="0.00 0.00 488.00 615.00" xmlns="http://www.w3.org/2000/svg" xmlns:xlink="http://www.w3.org/1999/xlink">
<g id="graph0" class="graph" transform="scale(1 1) rotate(0) translate(4 611)">
<title>capricate</title>
<polygon fill="white" stroke="transparent" points="-4,4 -4,-611 484,-611 484,4 -4,4"/>
<g id="clust1" class="cluster">
<title>clusterdir_c8b1eee29fe40fdb24d8305d98ae7e92</title>
<g id="a_clust1"><a xlink:href="dir_c8b1eee29fe40fdb24d8305d98ae7e92.html" target="_top" xlink:title="bitbucket">
<polygon fill="#ddddee" stroke="black" points="8,-8 8,-599 472,-599 472,-8 8,-8"/>
<text text-anchor="middle" x="240" y="-587" font-family="Helvetica,sans-Serif" font-size="10.00">bitbucket</text>
</a>
</g>
</g>
<g id="clust2" class="cluster">
<title>clusterdir_c563bfb3893489f60dc261a5d1284383</title>
<g id="a_clust2"><a xlink:href="dir_c563bfb3893489f60dc261a5d1284383.html" target="_top">
<polygon fill="#eeeeff" stroke="black" points="16,-16 16,-572 464,-572 464,-16 16,-16"/>
</a>
</g>
</g>
<!-- dir_c563bfb3893489f60dc261a5d1284383 -->
<g id="node1" class="node">
<title>dir_c563bfb3893489f60dc261a5d1284383</title>
<text text-anchor="middle" x="155" y="-543.5" font-family="Helvetica,sans-Serif" font-size="10.00">capricate</text>
</g>
<!-- dir_dc5e6033f47caefc2c693515c49331de -->
<g id="node6" class="node">
<title>dir_dc5e6033f47caefc2c693515c49331de</title>
<g id="a_node6"><a xlink:href="dir_dc5e6033f47caefc2c693515c49331de.html" target="_top" xlink:title="gui">
<polygon fill="white" stroke="black" points="182,-492 128,-492 128,-456 182,-456 182,-492"/>
<text text-anchor="middle" x="155" y="-471.5" font-family="Helvetica,sans-Serif" font-size="10.00">gui</text>
</a>
</g>
</g>
<!-- dir_c563bfb3893489f60dc261a5d1284383&#45;&gt;dir_dc5e6033f47caefc2c693515c49331de -->
<g id="edge21" class="edge">
<title>dir_c563bfb3893489f60dc261a5d1284383&#45;&gt;dir_dc5e6033f47caefc2c693515c49331de</title>
<path fill="none" stroke="black" d="M155,-527.7C155,-519.98 155,-510.71 155,-502.11"/>
<polygon fill="black" stroke="black" points="158.5,-502.1 155,-492.1 151.5,-502.1 158.5,-502.1"/>
<g id="a_edge21&#45;headlabel"><a xlink:href="dir_000001_000002.html" target="_top" xlink:title="1">
<text text-anchor="middle" x="161.34" y="-503.2" font-family="Helvetica,sans-Serif" font-size="10.00">1</text>
</a>
</g>
</g>
<!-- dir_4d4e87b3150a99d5cf639be2ee8b122e -->
<g id="node2" class="node">
<title>dir_4d4e87b3150a99d5cf639be2ee8b122e</title>
<g id="a_node2"><a xlink:href="dir_4d4e87b3150a99d5cf639be2ee8b122e.html" target="_top" xlink:title="callbacks">
<polygon fill="white" stroke="black" points="314,-276 256,-276 256,-240 314,-240 314,-276"/>
<text text-anchor="middle" x="285" y="-255.5" font-family="Helvetica,sans-Serif" font-size="10.00">callbacks</text>
</a>
</g>
</g>
<!-- dir_3829bf5f965df6a0810f3222ac9c70ab -->
<g id="node3" class="node">
<title>dir_3829bf5f965df6a0810f3222ac9c70ab</title>
<g id="a_node3"><a xlink:href="dir_3829bf5f965df6a0810f3222ac9c70ab.html" target="_top" xlink:title="core">
<polygon fill="white" stroke="black" points="228,-420 174,-420 174,-384 228,-384 228,-420"/>
<text text-anchor="middle" x="201" y="-399.5" font-family="Helvetica,sans-Serif" font-size="10.00">core</text>
</a>
</g>
</g>
<!-- dir_4d4e87b3150a99d5cf639be2ee8b122e&#45;&gt;dir_3829bf5f965df6a0810f3222ac9c70ab -->
<g id="edge25" class="edge">
<title>dir_4d4e87b3150a99d5cf639be2ee8b122e&#45;&gt;dir_3829bf5f965df6a0810f3222ac9c70ab</title>
<path fill="none" stroke="black" d="M276.48,-276.02C267.25,-294.15 251.85,-323.54 237,-348 231.52,-357.03 225.14,-366.66 219.3,-375.2"/>
<polygon fill="black" stroke="black" points="216.28,-373.41 213.46,-383.63 222.03,-377.4 216.28,-373.41"/>
<g id="a_edge25&#45;headlabel"><a xlink:href="dir_000009_000003.html" target="_top" xlink:title="2">
<text text-anchor="middle" x="215.99" y="-366.34" font-family="Helvetica,sans-Serif" font-size="10.00">2</text>
</a>
</g>
</g>
<!-- dir_edb7f24b749560f5d6a55b3533a2bde5 -->
<g id="node11" class="node">
<title>dir_edb7f24b749560f5d6a55b3533a2bde5</title>
<g id="a_node11"><a xlink:href="dir_edb7f24b749560f5d6a55b3533a2bde5.html" target="_top" xlink:title="utils">
<polygon fill="white" stroke="black" points="226,-204 172,-204 172,-168 226,-168 226,-204"/>
<text text-anchor="middle" x="199" y="-183.5" font-family="Helvetica,sans-Serif" font-size="10.00">utils</text>
</a>
</g>
</g>
<!-- dir_4d4e87b3150a99d5cf639be2ee8b122e&#45;&gt;dir_edb7f24b749560f5d6a55b3533a2bde5 -->
<g id="edge26" class="edge">
<title>dir_4d4e87b3150a99d5cf639be2ee8b122e&#45;&gt;dir_edb7f24b749560f5d6a55b3533a2bde5</title>
<path fill="none" stroke="black" d="M263.74,-239.7C252.91,-230.88 239.58,-220.03 227.84,-210.47"/>
<polygon fill="black" stroke="black" points="229.98,-207.7 220.01,-204.1 225.56,-213.13 229.98,-207.7"/>
<g id="a_edge26&#45;headlabel"><a xlink:href="dir_000009_000008.html" target="_top" xlink:title="5">
<text text-anchor="middle" x="234.56" y="-205.27" font-family="Helvetica,sans-Serif" font-size="10.00">5</text>
</a>
</g>
</g>
<!-- dir_bb98c3ed06be6a090da92768249f1878 -->
<g id="node10" class="node">
<title>dir_bb98c3ed06be6a090da92768249f1878</title>
<g id="a_node10"><a xlink:href="dir_bb98c3ed06be6a090da92768249f1878.html" target="_top" xlink:title="tools">
<polygon fill="white" stroke="black" points="228,-348 174,-348 174,-312 228,-312 228,-348"/>
<text text-anchor="middle" x="201" y="-327.5" font-family="Helvetica,sans-Serif" font-size="10.00">tools</text>
</a>
</g>
</g>
<!-- dir_3829bf5f965df6a0810f3222ac9c70ab&#45;&gt;dir_bb98c3ed06be6a090da92768249f1878 -->
<g id="edge1" class="edge">
<title>dir_3829bf5f965df6a0810f3222ac9c70ab&#45;&gt;dir_bb98c3ed06be6a090da92768249f1878</title>
<path fill="none" stroke="black" d="M195.08,-383.7C194.29,-375.98 194.06,-366.71 194.4,-358.11"/>
<polygon fill="black" stroke="black" points="197.9,-358.32 195.1,-348.1 190.92,-357.84 197.9,-358.32"/>
<g id="a_edge1&#45;headlabel"><a xlink:href="dir_000003_000004.html" target="_top" xlink:title="1">
<text text-anchor="middle" x="200.48" y="-359.61" font-family="Helvetica,sans-Serif" font-size="10.00">1</text>
</a>
</g>
</g>
<!-- dir_3829bf5f965df6a0810f3222ac9c70ab&#45;&gt;dir_edb7f24b749560f5d6a55b3533a2bde5 -->
<g id="edge3" class="edge">
<title>dir_3829bf5f965df6a0810f3222ac9c70ab&#45;&gt;dir_edb7f24b749560f5d6a55b3533a2bde5</title>
<path fill="none" stroke="black" d="M225.54,-383.91C268.81,-355.09 350.03,-294.59 314,-240 296.45,-213.41 262.5,-200.11 235.92,-193.49"/>
<polygon fill="black" stroke="black" points="236.66,-190.07 226.14,-191.26 235.11,-196.89 236.66,-190.07"/>
<g id="a_edge3&#45;headlabel"><a xlink:href="dir_000003_000008.html" target="_top" xlink:title="4">
<text text-anchor="middle" x="240.8" y="-185.6" font-family="Helvetica,sans-Serif" font-size="10.00">4</text>
</a>
</g>
</g>
<!-- dir_b8cf98f3e079e896d5c484aae2701fc3 -->
<g id="node12" class="node">
<title>dir_b8cf98f3e079e896d5c484aae2701fc3</title>
<g id="a_node12"><a xlink:href="dir_b8cf98f3e079e896d5c484aae2701fc3.html" target="_top" xlink:title="voxelizers">
<polygon fill="white" stroke="black" points="95.5,-132 34.5,-132 34.5,-96 95.5,-96 95.5,-132"/>
<text text-anchor="middle" x="65" y="-111.5" font-family="Helvetica,sans-Serif" font-size="10.00">voxelizers</text>
</a>
</g>
</g>
<!-- dir_3829bf5f965df6a0810f3222ac9c70ab&#45;&gt;dir_b8cf98f3e079e896d5c484aae2701fc3 -->
<g id="edge2" class="edge">
<title>dir_3829bf5f965df6a0810f3222ac9c70ab&#45;&gt;dir_b8cf98f3e079e896d5c484aae2701fc3</title>
<path fill="none" stroke="black" d="M173.87,-387.82C140.88,-367.88 87.64,-326.9 66,-276 56.06,-252.63 55.19,-181.56 58.72,-142.11"/>
<polygon fill="black" stroke="black" points="62.21,-142.44 59.8,-132.12 55.25,-141.68 62.21,-142.44"/>
<g id="a_edge2&#45;headlabel"><a xlink:href="dir_000003_000011.html" target="_top" xlink:title="1">
<text text-anchor="middle" x="64.64" y="-143.82" font-family="Helvetica,sans-Serif" font-size="10.00">1</text>
</a>
</g>
</g>
<!-- dir_5b69a53d6e3b70ae97af5a933b7eaa3e -->
<g id="node4" class="node">
<title>dir_5b69a53d6e3b70ae97af5a933b7eaa3e</title>
<g id="a_node4"><a xlink:href="dir_5b69a53d6e3b70ae97af5a933b7eaa3e.html" target="_top" xlink:title="defs">
<polygon fill="white" stroke="black" points="159,-60 105,-60 105,-24 159,-24 159,-60"/>
<text text-anchor="middle" x="132" y="-39.5" font-family="Helvetica,sans-Serif" font-size="10.00">defs</text>
</a>
</g>
</g>
<!-- dir_64ccf33f8cf97d0bdcf7c9c0e2c14e7a -->
<g id="node5" class="node">
<title>dir_64ccf33f8cf97d0bdcf7c9c0e2c14e7a</title>
<g id="a_node5"><a xlink:href="dir_64ccf33f8cf97d0bdcf7c9c0e2c14e7a.html" target="_top" xlink:title="filters">
<polygon fill="white" stroke="black" points="238,-276 184,-276 184,-240 238,-240 238,-276"/>
<text text-anchor="middle" x="211" y="-255.5" font-family="Helvetica,sans-Serif" font-size="10.00">filters</text>
</a>
</g>
</g>
<!-- dir_64ccf33f8cf97d0bdcf7c9c0e2c14e7a&#45;&gt;dir_edb7f24b749560f5d6a55b3533a2bde5 -->
<g id="edge27" class="edge">
<title>dir_64ccf33f8cf97d0bdcf7c9c0e2c14e7a&#45;&gt;dir_edb7f24b749560f5d6a55b3533a2bde5</title>
<path fill="none" stroke="black" d="M208.03,-239.7C206.71,-231.98 205.12,-222.71 203.65,-214.11"/>
<polygon fill="black" stroke="black" points="207.07,-213.37 201.93,-204.1 200.17,-214.55 207.07,-213.37"/>
<g id="a_edge27&#45;headlabel"><a xlink:href="dir_000007_000008.html" target="_top" xlink:title="5">
<text text-anchor="middle" x="210.48" y="-213.93" font-family="Helvetica,sans-Serif" font-size="10.00">5</text>
</a>
</g>
</g>
<!-- dir_dc5e6033f47caefc2c693515c49331de&#45;&gt;dir_3829bf5f965df6a0810f3222ac9c70ab -->
<g id="edge10" class="edge">
<title>dir_dc5e6033f47caefc2c693515c49331de&#45;&gt;dir_3829bf5f965df6a0810f3222ac9c70ab</title>
<path fill="none" stroke="black" d="M166.37,-455.7C171.72,-447.56 178.2,-437.69 184.11,-428.7"/>
<polygon fill="black" stroke="black" points="187.19,-430.38 189.76,-420.1 181.34,-426.54 187.19,-430.38"/>
<g id="a_edge10&#45;headlabel"><a xlink:href="dir_000002_000003.html" target="_top" xlink:title="6">
<text text-anchor="middle" x="187.59" y="-432.45" font-family="Helvetica,sans-Serif" font-size="10.00">6</text>
</a>
</g>
</g>
<!-- dir_33946880169425176307a0ebcccaaab6 -->
<g id="node7" class="node">
<title>dir_33946880169425176307a0ebcccaaab6</title>
<g id="a_node7"><a xlink:href="dir_33946880169425176307a0ebcccaaab6.html" target="_top" xlink:title="interactorstyles">
<polygon fill="white" stroke="black" points="435.5,-276 352.5,-276 352.5,-240 435.5,-240 435.5,-276"/>
<text text-anchor="middle" x="394" y="-255.5" font-family="Helvetica,sans-Serif" font-size="10.00">interactorstyles</text>
</a>
</g>
</g>
<!-- dir_dc5e6033f47caefc2c693515c49331de&#45;&gt;dir_33946880169425176307a0ebcccaaab6 -->
<g id="edge13" class="edge">
<title>dir_dc5e6033f47caefc2c693515c49331de&#45;&gt;dir_33946880169425176307a0ebcccaaab6</title>
<path fill="none" stroke="black" d="M182.27,-462.61C224.97,-445.08 307.81,-405.78 357,-348 372.29,-330.05 381.95,-304.89 387.56,-285.91"/>
<polygon fill="black" stroke="black" points="390.98,-286.65 390.26,-276.08 384.23,-284.79 390.98,-286.65"/>
<g id="a_edge13&#45;headlabel"><a xlink:href="dir_000002_000010.html" target="_top" xlink:title="1">
<text text-anchor="middle" x="392.77" y="-288.37" font-family="Helvetica,sans-Serif" font-size="10.00">1</text>
</a>
</g>
</g>
<!-- dir_34b23f91c68d9273cb111f589793121a -->
<g id="node8" class="node">
<title>dir_34b23f91c68d9273cb111f589793121a</title>
<g id="a_node8"><a xlink:href="dir_34b23f91c68d9273cb111f589793121a.html" target="_top" xlink:title="optimizers">
<polygon fill="white" stroke="black" points="146,-276 84,-276 84,-240 146,-240 146,-276"/>
<text text-anchor="middle" x="115" y="-255.5" font-family="Helvetica,sans-Serif" font-size="10.00">optimizers</text>
</a>
</g>
</g>
<!-- dir_dc5e6033f47caefc2c693515c49331de&#45;&gt;dir_34b23f91c68d9273cb111f589793121a -->
<g id="edge12" class="edge">
<title>dir_dc5e6033f47caefc2c693515c49331de&#45;&gt;dir_34b23f91c68d9273cb111f589793121a</title>
<path fill="none" stroke="black" d="M151.79,-455.85C144.86,-418.75 128.42,-330.81 120.07,-286.1"/>
<polygon fill="black" stroke="black" points="123.5,-285.42 118.22,-276.23 116.62,-286.71 123.5,-285.42"/>
<g id="a_edge12&#45;headlabel"><a xlink:href="dir_000002_000005.html" target="_top" xlink:title="10">
<text text-anchor="middle" x="126.95" y="-285.93" font-family="Helvetica,sans-Serif" font-size="10.00">10</text>
</a>
</g>
</g>
<!-- dir_19ac2d499890464484e7d290c8af5143 -->
<g id="node9" class="node">
<title>dir_19ac2d499890464484e7d290c8af5143</title>
<g id="a_node9"><a xlink:href="dir_19ac2d499890464484e7d290c8af5143.html" target="_top" xlink:title="threads">
<polygon fill="white" stroke="black" points="98,-420 44,-420 44,-384 98,-384 98,-420"/>
<text text-anchor="middle" x="71" y="-399.5" font-family="Helvetica,sans-Serif" font-size="10.00">threads</text>
</a>
</g>
</g>
<!-- dir_dc5e6033f47caefc2c693515c49331de&#45;&gt;dir_19ac2d499890464484e7d290c8af5143 -->
<g id="edge15" class="edge">
<title>dir_dc5e6033f47caefc2c693515c49331de&#45;&gt;dir_19ac2d499890464484e7d290c8af5143</title>
<path fill="none" stroke="black" d="M134.24,-455.7C123.76,-446.97 110.89,-436.24 99.5,-426.75"/>
<polygon fill="black" stroke="black" points="101.45,-423.82 91.53,-420.1 96.97,-429.19 101.45,-423.82"/>
<g id="a_edge15&#45;headlabel"><a xlink:href="dir_000002_000012.html" target="_top" xlink:title="3">
<text text-anchor="middle" x="106.03" y="-421.44" font-family="Helvetica,sans-Serif" font-size="10.00">3</text>
</a>
</g>
</g>
<!-- dir_dc5e6033f47caefc2c693515c49331de&#45;&gt;dir_bb98c3ed06be6a090da92768249f1878 -->
<g id="edge11" class="edge">
<title>dir_dc5e6033f47caefc2c693515c49331de&#45;&gt;dir_bb98c3ed06be6a090da92768249f1878</title>
<path fill="none" stroke="black" d="M154.52,-455.71C154.56,-437.35 156.21,-407.77 165,-384 168.55,-374.4 174.2,-364.85 179.98,-356.56"/>
<polygon fill="black" stroke="black" points="182.86,-358.55 185.97,-348.42 177.23,-354.4 182.86,-358.55"/>
<g id="a_edge11&#45;headlabel"><a xlink:href="dir_000002_000004.html" target="_top" xlink:title="11">
<text text-anchor="middle" x="183.02" y="-360.63" font-family="Helvetica,sans-Serif" font-size="10.00">11</text>
</a>
</g>
</g>
<!-- dir_dc5e6033f47caefc2c693515c49331de&#45;&gt;dir_edb7f24b749560f5d6a55b3533a2bde5 -->
<g id="edge16" class="edge">
<title>dir_dc5e6033f47caefc2c693515c49331de&#45;&gt;dir_edb7f24b749560f5d6a55b3533a2bde5</title>
<path fill="none" stroke="black" d="M182.04,-466.74C212.2,-458.95 261.66,-443.7 299,-420 375.95,-371.16 409.83,-360.08 445,-276 451.17,-261.24 455.05,-252.45 445,-240 419.18,-208.03 298.47,-194.43 236.27,-189.46"/>
<polygon fill="black" stroke="black" points="236.33,-185.95 226.09,-188.68 235.8,-192.93 236.33,-185.95"/>
<g id="a_edge16&#45;headlabel"><a xlink:href="dir_000002_000008.html" target="_top" xlink:title="5">
<text text-anchor="middle" x="240.13" y="-180.9" font-family="Helvetica,sans-Serif" font-size="10.00">5</text>
</a>
</g>
</g>
<!-- dir_dc5e6033f47caefc2c693515c49331de&#45;&gt;dir_b8cf98f3e079e896d5c484aae2701fc3 -->
<g id="edge14" class="edge">
<title>dir_dc5e6033f47caefc2c693515c49331de&#45;&gt;dir_b8cf98f3e079e896d5c484aae2701fc3</title>
<path fill="none" stroke="black" d="M127.95,-469C99.88,-463.31 57.04,-450.01 35,-420 11.44,-387.92 25,-370.8 25,-331 25,-331 25,-331 25,-257 25,-215.48 41.04,-169.61 52.8,-141.54"/>
<polygon fill="black" stroke="black" points="56.15,-142.62 56.91,-132.05 49.73,-139.84 56.15,-142.62"/>
<g id="a_edge14&#45;headlabel"><a xlink:href="dir_000002_000011.html" target="_top" xlink:title="6">
<text text-anchor="middle" x="57.33" y="-144.54" font-family="Helvetica,sans-Serif" font-size="10.00">6</text>
</a>
</g>
</g>
<!-- dir_33946880169425176307a0ebcccaaab6&#45;&gt;dir_3829bf5f965df6a0810f3222ac9c70ab -->
<g id="edge19" class="edge">
<title>dir_33946880169425176307a0ebcccaaab6&#45;&gt;dir_3829bf5f965df6a0810f3222ac9c70ab</title>
<path fill="none" stroke="black" d="M387.24,-276.05C378.59,-295.88 361.81,-328.38 338,-348 308.86,-372.01 267.61,-385.97 238,-393.48"/>
<polygon fill="black" stroke="black" points="236.95,-390.13 228.05,-395.87 238.59,-396.94 236.95,-390.13"/>
<g id="a_edge19&#45;headlabel"><a xlink:href="dir_000010_000003.html" target="_top" xlink:title="5">
<text text-anchor="middle" x="239.78" y="-384.03" font-family="Helvetica,sans-Serif" font-size="10.00">5</text>
</a>
</g>
</g>
<!-- dir_33946880169425176307a0ebcccaaab6&#45;&gt;dir_edb7f24b749560f5d6a55b3533a2bde5 -->
<g id="edge20" class="edge">
<title>dir_33946880169425176307a0ebcccaaab6&#45;&gt;dir_edb7f24b749560f5d6a55b3533a2bde5</title>
<path fill="none" stroke="black" d="M352.17,-241.98C317.58,-229.57 268.95,-212.11 235.82,-200.22"/>
<polygon fill="black" stroke="black" points="236.67,-196.8 226.07,-196.72 234.3,-203.39 236.67,-196.8"/>
<g id="a_edge20&#45;headlabel"><a xlink:href="dir_000010_000008.html" target="_top" xlink:title="5">
<text text-anchor="middle" x="241.01" y="-192.85" font-family="Helvetica,sans-Serif" font-size="10.00">5</text>
</a>
</g>
</g>
<!-- dir_34b23f91c68d9273cb111f589793121a&#45;&gt;dir_3829bf5f965df6a0810f3222ac9c70ab -->
<g id="edge17" class="edge">
<title>dir_34b23f91c68d9273cb111f589793121a&#45;&gt;dir_3829bf5f965df6a0810f3222ac9c70ab</title>
<path fill="none" stroke="black" d="M124.16,-276.31C133.88,-294.43 149.89,-323.59 165,-348 170.56,-356.99 176.95,-366.6 182.79,-375.14"/>
<polygon fill="black" stroke="black" points="180.06,-377.34 188.62,-383.58 185.82,-373.36 180.06,-377.34"/>
<g id="a_edge17&#45;headlabel"><a xlink:href="dir_000005_000003.html" target="_top" xlink:title="3">
<text text-anchor="middle" x="175.68" y="-373.5" font-family="Helvetica,sans-Serif" font-size="10.00">3</text>
</a>
</g>
</g>
<!-- dir_34b23f91c68d9273cb111f589793121a&#45;&gt;dir_edb7f24b749560f5d6a55b3533a2bde5 -->
<g id="edge18" class="edge">
<title>dir_34b23f91c68d9273cb111f589793121a&#45;&gt;dir_edb7f24b749560f5d6a55b3533a2bde5</title>
<path fill="none" stroke="black" d="M135.76,-239.7C146.24,-230.97 159.11,-220.24 170.5,-210.75"/>
<polygon fill="black" stroke="black" points="173.03,-213.19 178.47,-204.1 168.55,-207.82 173.03,-213.19"/>
<g id="a_edge18&#45;headlabel"><a xlink:href="dir_000005_000008.html" target="_top" xlink:title="5">
<text text-anchor="middle" x="172.09" y="-215.18" font-family="Helvetica,sans-Serif" font-size="10.00">5</text>
</a>
</g>
</g>
<!-- dir_19ac2d499890464484e7d290c8af5143&#45;&gt;dir_bb98c3ed06be6a090da92768249f1878 -->
<g id="edge28" class="edge">
<title>dir_19ac2d499890464484e7d290c8af5143&#45;&gt;dir_bb98c3ed06be6a090da92768249f1878</title>
<path fill="none" stroke="black" d="M98.25,-386.33C117.58,-375.92 143.72,-361.84 164.8,-350.49"/>
<polygon fill="black" stroke="black" points="166.64,-353.48 173.78,-345.65 163.32,-347.31 166.64,-353.48"/>
<g id="a_edge28&#45;headlabel"><a xlink:href="dir_000012_000004.html" target="_top" xlink:title="1">
<text text-anchor="middle" x="164.82" y="-355.18" font-family="Helvetica,sans-Serif" font-size="10.00">1</text>
</a>
</g>
</g>
<!-- dir_19ac2d499890464484e7d290c8af5143&#45;&gt;dir_b8cf98f3e079e896d5c484aae2701fc3 -->
<g id="edge29" class="edge">
<title>dir_19ac2d499890464484e7d290c8af5143&#45;&gt;dir_b8cf98f3e079e896d5c484aae2701fc3</title>
<path fill="none" stroke="black" d="M68.99,-383.64C66.3,-359.53 61.69,-314.52 60,-276 57.89,-228.05 57.74,-215.95 60,-168 60.39,-159.66 61.13,-150.6 61.92,-142.37"/>
<polygon fill="black" stroke="black" points="65.43,-142.46 62.97,-132.16 58.47,-141.75 65.43,-142.46"/>
<g id="a_edge29&#45;headlabel"><a xlink:href="dir_000012_000011.html" target="_top" xlink:title="1">
<text text-anchor="middle" x="67.89" y="-143.83" font-family="Helvetica,sans-Serif" font-size="10.00">1</text>
</a>
</g>
</g>
<!-- dir_bb98c3ed06be6a090da92768249f1878&#45;&gt;dir_4d4e87b3150a99d5cf639be2ee8b122e -->
<g id="edge7" class="edge">
<title>dir_bb98c3ed06be6a090da92768249f1878&#45;&gt;dir_4d4e87b3150a99d5cf639be2ee8b122e</title>
<path fill="none" stroke="black" d="M221.76,-311.7C232.24,-302.97 245.11,-292.24 256.5,-282.75"/>
<polygon fill="black" stroke="black" points="259.03,-285.19 264.47,-276.1 254.55,-279.82 259.03,-285.19"/>
<g id="a_edge7&#45;headlabel"><a xlink:href="dir_000004_000009.html" target="_top" xlink:title="3">
<text text-anchor="middle" x="258.09" y="-287.18" font-family="Helvetica,sans-Serif" font-size="10.00">3</text>
</a>
</g>
</g>
<!-- dir_bb98c3ed06be6a090da92768249f1878&#45;&gt;dir_3829bf5f965df6a0810f3222ac9c70ab -->
<g id="edge4" class="edge">
<title>dir_bb98c3ed06be6a090da92768249f1878&#45;&gt;dir_3829bf5f965df6a0810f3222ac9c70ab</title>
<path fill="none" stroke="black" d="M206.9,-348.1C207.7,-355.79 207.94,-365.05 207.6,-373.67"/>
<polygon fill="black" stroke="black" points="204.11,-373.48 206.92,-383.7 211.09,-373.96 204.11,-373.48"/>
<g id="a_edge4&#45;headlabel"><a xlink:href="dir_000004_000003.html" target="_top" xlink:title="18">
<text text-anchor="middle" x="201.52" y="-367.2" font-family="Helvetica,sans-Serif" font-size="10.00">18</text>
</a>
</g>
</g>
<!-- dir_bb98c3ed06be6a090da92768249f1878&#45;&gt;dir_64ccf33f8cf97d0bdcf7c9c0e2c14e7a -->
<g id="edge8" class="edge">
<title>dir_bb98c3ed06be6a090da92768249f1878&#45;&gt;dir_64ccf33f8cf97d0bdcf7c9c0e2c14e7a</title>
<path fill="none" stroke="black" d="M203.47,-311.7C204.57,-303.98 205.9,-294.71 207.13,-286.11"/>
<polygon fill="black" stroke="black" points="210.61,-286.5 208.56,-276.1 203.68,-285.51 210.61,-286.5"/>
<g id="a_edge8&#45;headlabel"><a xlink:href="dir_000004_000007.html" target="_top" xlink:title="2">
<text text-anchor="middle" x="212.91" y="-287.96" font-family="Helvetica,sans-Serif" font-size="10.00">2</text>
</a>
</g>
</g>
<!-- dir_bb98c3ed06be6a090da92768249f1878&#45;&gt;dir_33946880169425176307a0ebcccaaab6 -->
<g id="edge6" class="edge">
<title>dir_bb98c3ed06be6a090da92768249f1878&#45;&gt;dir_33946880169425176307a0ebcccaaab6</title>
<path fill="none" stroke="black" d="M228.24,-319.12C257.91,-308.36 306.03,-290.91 342.8,-277.57"/>
<polygon fill="black" stroke="black" points="344.15,-280.8 352.36,-274.1 341.77,-274.22 344.15,-280.8"/>
<g id="a_edge6&#45;headlabel"><a xlink:href="dir_000004_000010.html" target="_top" xlink:title="2">
<text text-anchor="middle" x="341.74" y="-282.2" font-family="Helvetica,sans-Serif" font-size="10.00">2</text>
</a>
</g>
</g>
<!-- dir_bb98c3ed06be6a090da92768249f1878&#45;&gt;dir_34b23f91c68d9273cb111f589793121a -->
<g id="edge5" class="edge">
<title>dir_bb98c3ed06be6a090da92768249f1878&#45;&gt;dir_34b23f91c68d9273cb111f589793121a</title>
<path fill="none" stroke="black" d="M179.74,-311.7C168.91,-302.88 155.58,-292.03 143.84,-282.47"/>
<polygon fill="black" stroke="black" points="145.98,-279.7 136.01,-276.1 141.56,-285.13 145.98,-279.7"/>
<g id="a_edge5&#45;headlabel"><a xlink:href="dir_000004_000005.html" target="_top" xlink:title="1">
<text text-anchor="middle" x="150.56" y="-277.27" font-family="Helvetica,sans-Serif" font-size="10.00">1</text>
</a>
</g>
</g>
<!-- dir_bb98c3ed06be6a090da92768249f1878&#45;&gt;dir_edb7f24b749560f5d6a55b3533a2bde5 -->
<g id="edge9" class="edge">
<title>dir_bb98c3ed06be6a090da92768249f1878&#45;&gt;dir_edb7f24b749560f5d6a55b3533a2bde5</title>
<path fill="none" stroke="black" d="M182.03,-311.61C175.26,-301.62 168.92,-288.58 166,-276 162.38,-260.41 162.62,-255.64 166,-240 167.98,-230.82 171.69,-221.31 176.04,-212.93"/>
<polygon fill="black" stroke="black" points="179.22,-214.43 181.17,-204.02 173.15,-210.94 179.22,-214.43"/>
<g id="a_edge9&#45;headlabel"><a xlink:href="dir_000004_000008.html" target="_top" xlink:title="14">
<text text-anchor="middle" x="179.88" y="-216.47" font-family="Helvetica,sans-Serif" font-size="10.00">14</text>
</a>
</g>
</g>
<!-- dir_edb7f24b749560f5d6a55b3533a2bde5&#45;&gt;dir_3829bf5f965df6a0810f3222ac9c70ab -->
<g id="edge30" class="edge">
<title>dir_edb7f24b749560f5d6a55b3533a2bde5&#45;&gt;dir_3829bf5f965df6a0810f3222ac9c70ab</title>
<path fill="none" stroke="black" d="M226.1,-189.08C258.06,-193.18 309.04,-205.22 332,-240 367.92,-294.42 287.31,-354.72 237.04,-383.65"/>
<polygon fill="black" stroke="black" points="235.07,-380.74 228.05,-388.68 238.48,-386.85 235.07,-380.74"/>
<g id="a_edge30&#45;headlabel"><a xlink:href="dir_000008_000003.html" target="_top" xlink:title="12">
<text text-anchor="middle" x="236.82" y="-374.01" font-family="Helvetica,sans-Serif" font-size="10.00">12</text>
</a>
</g>
</g>
<!-- dir_edb7f24b749560f5d6a55b3533a2bde5&#45;&gt;dir_5b69a53d6e3b70ae97af5a933b7eaa3e -->
<g id="edge34" class="edge">
<title>dir_edb7f24b749560f5d6a55b3533a2bde5&#45;&gt;dir_5b69a53d6e3b70ae97af5a933b7eaa3e</title>
<path fill="none" stroke="black" d="M200.48,-167.94C201.36,-149.26 200.55,-118.91 189,-96 183.39,-84.88 174.43,-74.89 165.26,-66.67"/>
<polygon fill="black" stroke="black" points="167.48,-63.96 157.58,-60.19 162.97,-69.31 167.48,-63.96"/>
<g id="a_edge34&#45;headlabel"><a xlink:href="dir_000008_000006.html" target="_top" xlink:title="1">
<text text-anchor="middle" x="172.06" y="-61.6" font-family="Helvetica,sans-Serif" font-size="10.00">1</text>
</a>
</g>
</g>
<!-- dir_edb7f24b749560f5d6a55b3533a2bde5&#45;&gt;dir_bb98c3ed06be6a090da92768249f1878 -->
<g id="edge31" class="edge">
<title>dir_edb7f24b749560f5d6a55b3533a2bde5&#45;&gt;dir_bb98c3ed06be6a090da92768249f1878</title>
<path fill="none" stroke="black" d="M196.92,-204.02C192.73,-214.11 186.73,-227.36 184,-240 180.62,-255.64 180.38,-260.41 184,-276 186.08,-284.94 189.88,-294.12 193.57,-302.26"/>
<polygon fill="black" stroke="black" points="190.51,-304 197.88,-311.61 196.87,-301.06 190.51,-304"/>
<g id="a_edge31&#45;headlabel"><a xlink:href="dir_000008_000004.html" target="_top" xlink:title="2">
<text text-anchor="middle" x="186.43" y="-299.42" font-family="Helvetica,sans-Serif" font-size="10.00">2</text>
</a>
</g>
</g>
<!-- dir_edb7f24b749560f5d6a55b3533a2bde5&#45;&gt;dir_b8cf98f3e079e896d5c484aae2701fc3 -->
<g id="edge33" class="edge">
<title>dir_edb7f24b749560f5d6a55b3533a2bde5&#45;&gt;dir_b8cf98f3e079e896d5c484aae2701fc3</title>
<path fill="none" stroke="black" d="M171.71,-173.44C151.15,-163.54 122.96,-149.02 100.66,-136.92"/>
<polygon fill="black" stroke="black" points="102.26,-133.81 91.81,-132.08 98.9,-139.95 102.26,-133.81"/>
<g id="a_edge33&#45;headlabel"><a xlink:href="dir_000008_000011.html" target="_top" xlink:title="3">
<text text-anchor="middle" x="106.78" y="-130.55" font-family="Helvetica,sans-Serif" font-size="10.00">3</text>
</a>
</g>
</g>
<!-- dir_0b907e3e66e9dd7d2fb4cfd98ea46de6 -->
<g id="node13" class="node">
<title>dir_0b907e3e66e9dd7d2fb4cfd98ea46de6</title>
<g id="a_node13"><a xlink:href="dir_0b907e3e66e9dd7d2fb4cfd98ea46de6.html" target="_top" xlink:title="vtkext">
<polygon fill="white" stroke="black" points="180,-132 126,-132 126,-96 180,-96 180,-132"/>
<text text-anchor="middle" x="153" y="-111.5" font-family="Helvetica,sans-Serif" font-size="10.00">vtkext</text>
</a>
</g>
</g>
<!-- dir_edb7f24b749560f5d6a55b3533a2bde5&#45;&gt;dir_0b907e3e66e9dd7d2fb4cfd98ea46de6 -->
<g id="edge32" class="edge">
<title>dir_edb7f24b749560f5d6a55b3533a2bde5&#45;&gt;dir_0b907e3e66e9dd7d2fb4cfd98ea46de6</title>
<path fill="none" stroke="black" d="M187.63,-167.7C182.28,-159.56 175.8,-149.69 169.89,-140.7"/>
<polygon fill="black" stroke="black" points="172.66,-138.54 164.24,-132.1 166.81,-142.38 172.66,-138.54"/>
<g id="a_edge32&#45;headlabel"><a xlink:href="dir_000008_000013.html" target="_top" xlink:title="2">
<text text-anchor="middle" x="177" y="-137.48" font-family="Helvetica,sans-Serif" font-size="10.00">2</text>
</a>
</g>
</g>
<!-- dir_b8cf98f3e079e896d5c484aae2701fc3&#45;&gt;dir_3829bf5f965df6a0810f3222ac9c70ab -->
<g id="edge22" class="edge">
<title>dir_b8cf98f3e079e896d5c484aae2701fc3&#45;&gt;dir_3829bf5f965df6a0810f3222ac9c70ab</title>
<path fill="none" stroke="black" d="M69.47,-132.12C73.1,-168.13 73.15,-250.48 84,-276 102.43,-319.36 143.8,-355.52 172.21,-377.61"/>
<polygon fill="black" stroke="black" points="170.14,-380.43 180.21,-383.73 174.39,-374.87 170.14,-380.43"/>
<g id="a_edge22&#45;headlabel"><a xlink:href="dir_000011_000003.html" target="_top" xlink:title="5">
<text text-anchor="middle" x="165.56" y="-378" font-family="Helvetica,sans-Serif" font-size="10.00">5</text>
</a>
</g>
</g>
<!-- dir_b8cf98f3e079e896d5c484aae2701fc3&#45;&gt;dir_5b69a53d6e3b70ae97af5a933b7eaa3e -->
<g id="edge23" class="edge">
<title>dir_b8cf98f3e079e896d5c484aae2701fc3&#45;&gt;dir_5b69a53d6e3b70ae97af5a933b7eaa3e</title>
<path fill="none" stroke="black" d="M81.56,-95.7C89.68,-87.22 99.59,-76.86 108.47,-67.58"/>
<polygon fill="black" stroke="black" points="111.24,-69.75 115.63,-60.1 106.19,-64.91 111.24,-69.75"/>
<g id="a_edge23&#45;headlabel"><a xlink:href="dir_000011_000006.html" target="_top" xlink:title="1">
<text text-anchor="middle" x="110.81" y="-71.81" font-family="Helvetica,sans-Serif" font-size="10.00">1</text>
</a>
</g>
</g>
<!-- dir_b8cf98f3e079e896d5c484aae2701fc3&#45;&gt;dir_edb7f24b749560f5d6a55b3533a2bde5 -->
<g id="edge24" class="edge">
<title>dir_b8cf98f3e079e896d5c484aae2701fc3&#45;&gt;dir_edb7f24b749560f5d6a55b3533a2bde5</title>
<path fill="none" stroke="black" d="M95.73,-128.22C115.85,-138 142.09,-151.56 163.15,-162.97"/>
<polygon fill="black" stroke="black" points="161.66,-166.15 172.12,-167.88 165.02,-160.01 161.66,-166.15"/>
<g id="a_edge24&#45;headlabel"><a xlink:href="dir_000011_000008.html" target="_top" xlink:title="2">
<text text-anchor="middle" x="157.15" y="-164.41" font-family="Helvetica,sans-Serif" font-size="10.00">2</text>
</a>
</g>
</g>
</g>
</svg>
