<?xml version="1.0" encoding="UTF-8" standalone="no"?>
<!DOCTYPE svg PUBLIC "-//W3C//DTD SVG 1.1//EN"
 "http://www.w3.org/Graphics/SVG/1.1/DTD/svg11.dtd">
<!-- Generated by graphviz version 2.44.0 (0)
 -->
<!-- Title: SurfaceVoxelizer::posToCell Pages: 1 -->
<svg width="782pt" height="165pt"
 viewBox="0.00 0.00 782.00 164.50" xmlns="http://www.w3.org/2000/svg" xmlns:xlink="http://www.w3.org/1999/xlink">
<g id="graph0" class="graph" transform="scale(1 1) rotate(0) translate(4 160.5)">
<title>SurfaceVoxelizer::posToCell</title>
<polygon fill="white" stroke="transparent" points="-4,4 -4,-160.5 778,-160.5 778,4 -4,4"/>
<!-- Node1 -->
<g id="node1" class="node">
<title>Node1</title>
<g id="a_node1"><a xlink:title="Compute voxel grid integer index equivalent from world coordinate.">
<polygon fill="#bfbfbf" stroke="black" points="634,-60.5 634,-79.5 774,-79.5 774,-60.5 634,-60.5"/>
<text text-anchor="middle" x="704" y="-67.5" font-family="Helvetica,sans-Serif" font-size="10.00">SurfaceVoxelizer::posToCell</text>
</a>
</g>
</g>
<!-- Node2 -->
<g id="node2" class="node">
<title>Node2</title>
<g id="a_node2"><a xlink:href="../../d3/d01/class_surface_voxelizer.html#ad92c2d3d705fd77a35eca686805fd6b5" target="_top" xlink:title="Execute voxelization algorithm.">
<polygon fill="white" stroke="black" points="473,-60.5 473,-79.5 598,-79.5 598,-60.5 473,-60.5"/>
<text text-anchor="middle" x="535.5" y="-67.5" font-family="Helvetica,sans-Serif" font-size="10.00">SurfaceVoxelizer::update</text>
</a>
</g>
</g>
<!-- Node1&#45;&gt;Node2 -->
<g id="edge1" class="edge">
<title>Node1&#45;&gt;Node2</title>
<path fill="none" stroke="midnightblue" d="M623.74,-70C615.09,-70 606.39,-70 598.01,-70"/>
<polygon fill="midnightblue" stroke="midnightblue" points="623.84,-73.5 633.84,-70 623.84,-66.5 623.84,-73.5"/>
</g>
<!-- Node3 -->
<g id="node3" class="node">
<title>Node3</title>
<g id="a_node3"><a xlink:href="../../d8/dc0/class_single_pass_voxelizer.html#a2cd430591b881ba1fed2294284283fd1" target="_top" xlink:title="Execute voxelization algorithm.">
<polygon fill="white" stroke="black" points="322.5,-126 322.5,-156 428.5,-156 428.5,-126 322.5,-126"/>
<text text-anchor="start" x="330.5" y="-144" font-family="Helvetica,sans-Serif" font-size="10.00">SinglePassVoxelizer</text>
<text text-anchor="middle" x="375.5" y="-133" font-family="Helvetica,sans-Serif" font-size="10.00">::update</text>
</a>
</g>
</g>
<!-- Node2&#45;&gt;Node3 -->
<g id="edge2" class="edge">
<title>Node2&#45;&gt;Node3</title>
<path fill="none" stroke="midnightblue" d="M506.47,-84.17C487.12,-93.79 460.7,-106.6 437,-117 430.17,-120 422.84,-123.04 415.72,-125.91"/>
<polygon fill="midnightblue" stroke="midnightblue" points="508.25,-87.19 515.63,-79.59 505.12,-80.93 508.25,-87.19"/>
</g>
<!-- Node6 -->
<g id="node6" class="node">
<title>Node6</title>
<g id="a_node6"><a xlink:href="../../da/dce/class_multi_pass_voxelizer.html#abb1e58d42145fecc9e937c614a297861" target="_top" xlink:title="Execute voxelization algorithm.">
<polygon fill="white" stroke="black" points="325.5,-77 325.5,-107 425.5,-107 425.5,-77 325.5,-77"/>
<text text-anchor="start" x="333.5" y="-95" font-family="Helvetica,sans-Serif" font-size="10.00">MultiPassVoxelizer</text>
<text text-anchor="middle" x="375.5" y="-84" font-family="Helvetica,sans-Serif" font-size="10.00">::update</text>
</a>
</g>
</g>
<!-- Node2&#45;&gt;Node6 -->
<g id="edge5" class="edge">
<title>Node2&#45;&gt;Node6</title>
<path fill="none" stroke="midnightblue" d="M462.99,-79.96C450.45,-81.7 437.67,-83.48 425.9,-85.12"/>
<polygon fill="midnightblue" stroke="midnightblue" points="463.54,-83.41 472.96,-78.57 462.57,-76.48 463.54,-83.41"/>
</g>
<!-- Node7 -->
<g id="node7" class="node">
<title>Node7</title>
<g id="a_node7"><a xlink:href="../../d5/d6e/class_octree_voxelizer.html#a6587bb79f04277bd15705d408f2a013d" target="_top" xlink:title="Execute voxelization algorithm.">
<polygon fill="white" stroke="black" points="315,-38.5 315,-57.5 436,-57.5 436,-38.5 315,-38.5"/>
<text text-anchor="middle" x="375.5" y="-45.5" font-family="Helvetica,sans-Serif" font-size="10.00">OctreeVoxelizer::update</text>
</a>
</g>
</g>
<!-- Node2&#45;&gt;Node7 -->
<g id="edge6" class="edge">
<title>Node2&#45;&gt;Node7</title>
<path fill="none" stroke="midnightblue" d="M462.9,-60.03C453.93,-58.78 444.82,-57.51 436.06,-56.29"/>
<polygon fill="midnightblue" stroke="midnightblue" points="462.57,-63.52 472.96,-61.43 463.54,-56.59 462.57,-63.52"/>
</g>
<!-- Node8 -->
<g id="node8" class="node">
<title>Node8</title>
<g id="a_node8"><a xlink:href="../../dd/df8/class_robust_voxelizer.html#ad6c9b7b523ad75df14bb79122e6d4b3a" target="_top" xlink:title="Execute voxelization algorithm.">
<polygon fill="white" stroke="black" points="314,-0.5 314,-19.5 437,-19.5 437,-0.5 314,-0.5"/>
<text text-anchor="middle" x="375.5" y="-7.5" font-family="Helvetica,sans-Serif" font-size="10.00">RobustVoxelizer::update</text>
</a>
</g>
</g>
<!-- Node2&#45;&gt;Node8 -->
<g id="edge7" class="edge">
<title>Node2&#45;&gt;Node8</title>
<path fill="none" stroke="midnightblue" d="M504.05,-56.33C484.97,-47.98 459.76,-37.34 437,-29 427.9,-25.67 417.91,-22.38 408.72,-19.5"/>
<polygon fill="midnightblue" stroke="midnightblue" points="502.86,-59.63 513.43,-60.46 505.69,-53.22 502.86,-59.63"/>
</g>
<!-- Node4 -->
<g id="node4" class="node">
<title>Node4</title>
<g id="a_node4"><a xlink:href="../../d9/dd1/class_mesh_subtractor.html#ac7f4a729498501d6703614b0555931e6" target="_top" xlink:title=" ">
<polygon fill="white" stroke="black" points="157,-131.5 157,-150.5 278,-150.5 278,-131.5 157,-131.5"/>
<text text-anchor="middle" x="217.5" y="-138.5" font-family="Helvetica,sans-Serif" font-size="10.00">MeshSubtractor::update</text>
</a>
</g>
</g>
<!-- Node3&#45;&gt;Node4 -->
<g id="edge3" class="edge">
<title>Node3&#45;&gt;Node4</title>
<path fill="none" stroke="midnightblue" d="M311.98,-141C300.77,-141 289.12,-141 278.01,-141"/>
<polygon fill="midnightblue" stroke="midnightblue" points="312.12,-144.5 322.12,-141 312.12,-137.5 312.12,-144.5"/>
</g>
<!-- Node5 -->
<g id="node5" class="node">
<title>Node5</title>
<g id="a_node5"><a xlink:href="../../dd/d00/class_export_s_t_l_tool.html#a218420198ac8fef5b9f9a8acc889307d" target="_top" xlink:title=" ">
<polygon fill="white" stroke="black" points="0,-131.5 0,-150.5 121,-150.5 121,-131.5 0,-131.5"/>
<text text-anchor="middle" x="60.5" y="-138.5" font-family="Helvetica,sans-Serif" font-size="10.00">ExportSTLTool::execute</text>
</a>
</g>
</g>
<!-- Node4&#45;&gt;Node5 -->
<g id="edge4" class="edge">
<title>Node4&#45;&gt;Node5</title>
<path fill="none" stroke="midnightblue" d="M146.34,-141C137.88,-141 129.3,-141 121.01,-141"/>
<polygon fill="midnightblue" stroke="midnightblue" points="146.57,-144.5 156.57,-141 146.57,-137.5 146.57,-144.5"/>
</g>
</g>
</svg>
