<?xml version="1.0" encoding="UTF-8" standalone="no"?>
<!DOCTYPE svg PUBLIC "-//W3C//DTD SVG 1.1//EN"
 "http://www.w3.org/Graphics/SVG/1.1/DTD/svg11.dtd">
<!-- Generated by graphviz version 2.44.1 (0)
 -->
<!-- Title: SurfaceVoxelizer::setSampleDimensions Pages: 1 -->
<svg width="330pt" height="214pt"
 viewBox="0.00 0.00 330.00 214.00" xmlns="http://www.w3.org/2000/svg" xmlns:xlink="http://www.w3.org/1999/xlink">
<g id="graph0" class="graph" transform="scale(1 1) rotate(0) translate(4 210)">
<title>SurfaceVoxelizer::setSampleDimensions</title>
<polygon fill="white" stroke="transparent" points="-4,4 -4,-210 326,-210 326,4 -4,4"/>
<!-- Node1 -->
<g id="node1" class="node">
<title>Node1</title>
<g id="a_node1"><a xlink:title="Set voxel grid dimensions.">
<polygon fill="#bfbfbf" stroke="black" points="179,-82.5 179,-112.5 322,-112.5 322,-82.5 179,-82.5"/>
<text text-anchor="start" x="187" y="-100.5" font-family="Helvetica,sans-Serif" font-size="10.00">SurfaceVoxelizer::setSample</text>
<text text-anchor="middle" x="250.5" y="-89.5" font-family="Helvetica,sans-Serif" font-size="10.00">Dimensions</text>
</a>
</g>
</g>
<!-- Node2 -->
<g id="node2" class="node">
<title>Node2</title>
<g id="a_node2"><a xlink:href="../../d3/d01/class_surface_voxelizer.html#a2c6e15933555fa5a7853bdb0ff7ca288" target="_top" xlink:title="Set voxel grid dimensions as std::array.">
<polygon fill="white" stroke="black" points="0,-175.5 0,-205.5 143,-205.5 143,-175.5 0,-175.5"/>
<text text-anchor="start" x="8" y="-193.5" font-family="Helvetica,sans-Serif" font-size="10.00">SurfaceVoxelizer::setSample</text>
<text text-anchor="middle" x="71.5" y="-182.5" font-family="Helvetica,sans-Serif" font-size="10.00">Dimensions</text>
</a>
</g>
</g>
<!-- Node1&#45;&gt;Node2 -->
<g id="edge1" class="edge">
<title>Node1&#45;&gt;Node2</title>
<path fill="none" stroke="midnightblue" d="M221.2,-118.6C200.37,-133.43 170.93,-152.96 143,-166.5 136.37,-169.72 129.2,-172.69 122.05,-175.37"/>
<polygon fill="midnightblue" stroke="midnightblue" points="223.51,-121.25 229.57,-112.56 219.41,-115.57 223.51,-121.25"/>
</g>
<!-- Node3 -->
<g id="node3" class="node">
<title>Node3</title>
<g id="a_node3"><a xlink:href="../../da/dce/class_multi_pass_voxelizer.html#abb1e58d42145fecc9e937c614a297861" target="_top" xlink:title="Execute voxelization algorithm.">
<polygon fill="white" stroke="black" points="21.5,-126.5 21.5,-156.5 121.5,-156.5 121.5,-126.5 21.5,-126.5"/>
<text text-anchor="start" x="29.5" y="-144.5" font-family="Helvetica,sans-Serif" font-size="10.00">MultiPassVoxelizer</text>
<text text-anchor="middle" x="71.5" y="-133.5" font-family="Helvetica,sans-Serif" font-size="10.00">::update</text>
</a>
</g>
</g>
<!-- Node1&#45;&gt;Node3 -->
<g id="edge2" class="edge">
<title>Node1&#45;&gt;Node3</title>
<path fill="none" stroke="midnightblue" d="M179.12,-115C159.82,-119.79 139.32,-124.89 121.51,-129.32"/>
<polygon fill="midnightblue" stroke="midnightblue" points="180.22,-118.33 189.08,-112.52 178.53,-111.54 180.22,-118.33"/>
</g>
<!-- Node4 -->
<g id="node4" class="node">
<title>Node4</title>
<g id="a_node4"><a xlink:href="../../d5/d6e/class_octree_voxelizer.html#a6587bb79f04277bd15705d408f2a013d" target="_top" xlink:title="Execute voxelization algorithm.">
<polygon fill="white" stroke="black" points="11,-88 11,-107 132,-107 132,-88 11,-88"/>
<text text-anchor="middle" x="71.5" y="-95" font-family="Helvetica,sans-Serif" font-size="10.00">OctreeVoxelizer::update</text>
</a>
</g>
</g>
<!-- Node1&#45;&gt;Node4 -->
<g id="edge3" class="edge">
<title>Node1&#45;&gt;Node4</title>
<path fill="none" stroke="midnightblue" d="M168.52,-97.5C156.22,-97.5 143.73,-97.5 132.01,-97.5"/>
<polygon fill="midnightblue" stroke="midnightblue" points="168.78,-101 178.78,-97.5 168.78,-94 168.78,-101"/>
</g>
<!-- Node5 -->
<g id="node5" class="node">
<title>Node5</title>
<g id="a_node5"><a xlink:href="../../dd/df8/class_robust_voxelizer.html#ad6c9b7b523ad75df14bb79122e6d4b3a" target="_top" xlink:title="Execute voxelization algorithm.">
<polygon fill="white" stroke="black" points="10,-50 10,-69 133,-69 133,-50 10,-50"/>
<text text-anchor="middle" x="71.5" y="-57" font-family="Helvetica,sans-Serif" font-size="10.00">RobustVoxelizer::update</text>
</a>
</g>
</g>
<!-- Node1&#45;&gt;Node5 -->
<g id="edge4" class="edge">
<title>Node1&#45;&gt;Node5</title>
<path fill="none" stroke="midnightblue" d="M169.54,-80.33C151.4,-76.44 132.77,-72.44 116.75,-69"/>
<polygon fill="midnightblue" stroke="midnightblue" points="169.03,-83.8 179.54,-82.48 170.5,-76.96 169.03,-83.8"/>
</g>
<!-- Node6 -->
<g id="node6" class="node">
<title>Node6</title>
<g id="a_node6"><a xlink:href="../../d8/dc0/class_single_pass_voxelizer.html#a2cd430591b881ba1fed2294284283fd1" target="_top" xlink:title="Execute voxelization algorithm.">
<polygon fill="white" stroke="black" points="18.5,-0.5 18.5,-30.5 124.5,-30.5 124.5,-0.5 18.5,-0.5"/>
<text text-anchor="start" x="26.5" y="-18.5" font-family="Helvetica,sans-Serif" font-size="10.00">SinglePassVoxelizer</text>
<text text-anchor="middle" x="71.5" y="-7.5" font-family="Helvetica,sans-Serif" font-size="10.00">::update</text>
</a>
</g>
</g>
<!-- Node1&#45;&gt;Node6 -->
<g id="edge5" class="edge">
<title>Node1&#45;&gt;Node6</title>
<path fill="none" stroke="midnightblue" d="M214.83,-77.23C194.32,-65.68 167.62,-51.38 143,-40.5 135.04,-36.98 126.42,-33.59 118.03,-30.51"/>
<polygon fill="midnightblue" stroke="midnightblue" points="213.36,-80.42 223.79,-82.32 216.82,-74.34 213.36,-80.42"/>
</g>
</g>
</svg>
