<?xml version="1.0" encoding="UTF-8" standalone="no"?>
<!DOCTYPE svg PUBLIC "-//W3C//DTD SVG 1.1//EN"
 "http://www.w3.org/Graphics/SVG/1.1/DTD/svg11.dtd">
<!-- Generated by graphviz version 2.44.1 (0)
 -->
<!-- Title: SurfaceVoxelizer::posToCell Pages: 1 -->
<svg width="468pt" height="165pt"
 viewBox="0.00 0.00 468.00 165.00" xmlns="http://www.w3.org/2000/svg" xmlns:xlink="http://www.w3.org/1999/xlink">
<g id="graph0" class="graph" transform="scale(1 1) rotate(0) translate(4 161)">
<title>SurfaceVoxelizer::posToCell</title>
<polygon fill="white" stroke="transparent" points="-4,4 -4,-161 464,-161 464,4 -4,4"/>
<!-- Node1 -->
<g id="node1" class="node">
<title>Node1</title>
<g id="a_node1"><a xlink:title="Compute voxel grid integer index equivalent from world coordinate.">
<polygon fill="#bfbfbf" stroke="black" points="320,-69 320,-88 460,-88 460,-69 320,-69"/>
<text text-anchor="middle" x="390" y="-76" font-family="Helvetica,sans-Serif" font-size="10.00">SurfaceVoxelizer::posToCell</text>
</a>
</g>
</g>
<!-- Node2 -->
<g id="node2" class="node">
<title>Node2</title>
<g id="a_node2"><a xlink:href="../../d3/d01/class_surface_voxelizer.html#ad92c2d3d705fd77a35eca686805fd6b5" target="_top" xlink:title="Execute voxelization algorithm.">
<polygon fill="white" stroke="black" points="159,-69 159,-88 284,-88 284,-69 159,-69"/>
<text text-anchor="middle" x="221.5" y="-76" font-family="Helvetica,sans-Serif" font-size="10.00">SurfaceVoxelizer::update</text>
</a>
</g>
</g>
<!-- Node1&#45;&gt;Node2 -->
<g id="edge1" class="edge">
<title>Node1&#45;&gt;Node2</title>
<path fill="none" stroke="midnightblue" d="M309.74,-78.5C301.09,-78.5 292.39,-78.5 284.01,-78.5"/>
<polygon fill="midnightblue" stroke="midnightblue" points="309.84,-82 319.84,-78.5 309.84,-75 309.84,-82"/>
</g>
<!-- Node3 -->
<g id="node3" class="node">
<title>Node3</title>
<g id="a_node3"><a xlink:href="../../da/dce/class_multi_pass_voxelizer.html#abb1e58d42145fecc9e937c614a297861" target="_top" xlink:title="Execute voxelization algorithm.">
<polygon fill="white" stroke="black" points="11.5,-126.5 11.5,-156.5 111.5,-156.5 111.5,-126.5 11.5,-126.5"/>
<text text-anchor="start" x="19.5" y="-144.5" font-family="Helvetica,sans-Serif" font-size="10.00">MultiPassVoxelizer</text>
<text text-anchor="middle" x="61.5" y="-133.5" font-family="Helvetica,sans-Serif" font-size="10.00">::update</text>
</a>
</g>
</g>
<!-- Node2&#45;&gt;Node3 -->
<g id="edge2" class="edge">
<title>Node2&#45;&gt;Node3</title>
<path fill="none" stroke="midnightblue" d="M186.93,-91.88C161.54,-102.01 126.65,-115.92 100.28,-126.43"/>
<polygon fill="midnightblue" stroke="midnightblue" points="188.51,-95.02 196.5,-88.07 185.92,-88.52 188.51,-95.02"/>
</g>
<!-- Node4 -->
<g id="node4" class="node">
<title>Node4</title>
<g id="a_node4"><a xlink:href="../../d5/d6e/class_octree_voxelizer.html#a6587bb79f04277bd15705d408f2a013d" target="_top" xlink:title="Execute voxelization algorithm.">
<polygon fill="white" stroke="black" points="1,-88 1,-107 122,-107 122,-88 1,-88"/>
<text text-anchor="middle" x="61.5" y="-95" font-family="Helvetica,sans-Serif" font-size="10.00">OctreeVoxelizer::update</text>
</a>
</g>
</g>
<!-- Node2&#45;&gt;Node4 -->
<g id="edge3" class="edge">
<title>Node2&#45;&gt;Node4</title>
<path fill="none" stroke="midnightblue" d="M148.9,-87.11C139.93,-88.19 130.82,-89.28 122.06,-90.34"/>
<polygon fill="midnightblue" stroke="midnightblue" points="149.45,-90.57 158.96,-85.9 148.61,-83.62 149.45,-90.57"/>
</g>
<!-- Node5 -->
<g id="node5" class="node">
<title>Node5</title>
<g id="a_node5"><a xlink:href="../../dd/df8/class_robust_voxelizer.html#ad6c9b7b523ad75df14bb79122e6d4b3a" target="_top" xlink:title="Execute voxelization algorithm.">
<polygon fill="white" stroke="black" points="0,-50 0,-69 123,-69 123,-50 0,-50"/>
<text text-anchor="middle" x="61.5" y="-57" font-family="Helvetica,sans-Serif" font-size="10.00">RobustVoxelizer::update</text>
</a>
</g>
</g>
<!-- Node2&#45;&gt;Node5 -->
<g id="edge4" class="edge">
<title>Node2&#45;&gt;Node5</title>
<path fill="none" stroke="midnightblue" d="M148.91,-69.89C140.29,-68.85 131.54,-67.8 123.09,-66.79"/>
<polygon fill="midnightblue" stroke="midnightblue" points="148.61,-73.38 158.96,-71.1 149.45,-66.43 148.61,-73.38"/>
</g>
<!-- Node6 -->
<g id="node6" class="node">
<title>Node6</title>
<g id="a_node6"><a xlink:href="../../d8/dc0/class_single_pass_voxelizer.html#a2cd430591b881ba1fed2294284283fd1" target="_top" xlink:title="Execute voxelization algorithm.">
<polygon fill="white" stroke="black" points="8.5,-0.5 8.5,-30.5 114.5,-30.5 114.5,-0.5 8.5,-0.5"/>
<text text-anchor="start" x="16.5" y="-18.5" font-family="Helvetica,sans-Serif" font-size="10.00">SinglePassVoxelizer</text>
<text text-anchor="middle" x="61.5" y="-7.5" font-family="Helvetica,sans-Serif" font-size="10.00">::update</text>
</a>
</g>
</g>
<!-- Node2&#45;&gt;Node6 -->
<g id="edge5" class="edge">
<title>Node2&#45;&gt;Node6</title>
<path fill="none" stroke="midnightblue" d="M186.93,-65.12C161.54,-54.99 126.65,-41.08 100.28,-30.57"/>
<polygon fill="midnightblue" stroke="midnightblue" points="185.92,-68.48 196.5,-68.93 188.51,-61.98 185.92,-68.48"/>
</g>
</g>
</svg>
