<?xml version="1.0" encoding="UTF-8" standalone="no"?>
<!DOCTYPE svg PUBLIC "-//W3C//DTD SVG 1.1//EN"
 "http://www.w3.org/Graphics/SVG/1.1/DTD/svg11.dtd">
<!-- Generated by graphviz version 2.44.1 (0)
 -->
<!-- Title: T_MESH::mc_cell::polygonize Pages: 1 -->
<svg width="1046pt" height="343pt"
 viewBox="0.00 0.00 1046.00 342.87" xmlns="http://www.w3.org/2000/svg" xmlns:xlink="http://www.w3.org/1999/xlink">
<g id="graph0" class="graph" transform="scale(1 1) rotate(0) translate(4 338.87)">
<title>T_MESH::mc_cell::polygonize</title>
<polygon fill="white" stroke="transparent" points="-4,4 -4,-338.87 1042,-338.87 1042,4 -4,4"/>
<!-- Node1 -->
<g id="node1" class="node">
<title>Node1</title>
<g id="a_node1"><a xlink:title=" ">
<polygon fill="#bfbfbf" stroke="black" points="0,-167.5 0,-186.5 149,-186.5 149,-167.5 0,-167.5"/>
<text text-anchor="middle" x="74.5" y="-174.5" font-family="Helvetica,sans-Serif" font-size="10.00">T_MESH::mc_cell::polygonize</text>
</a>
</g>
</g>
<!-- Node2 -->
<g id="node2" class="node">
<title>Node2</title>
<g id="a_node2"><a xlink:href="../../d6/d27/class_t___m_e_s_h_1_1_basic___t_mesh.html#a0cd2bcd2e4d1ff1cb1a78ead09e121a3" target="_top" xlink:title="Creates an Edge connecting two existing mesh vertices.">
<polygon fill="white" stroke="black" points="195.5,-268 195.5,-298 318.5,-298 318.5,-268 195.5,-268"/>
<text text-anchor="start" x="203.5" y="-286" font-family="Helvetica,sans-Serif" font-size="10.00">T_MESH::Basic_TMesh</text>
<text text-anchor="middle" x="257" y="-275" font-family="Helvetica,sans-Serif" font-size="10.00">::CreateEdge</text>
</a>
</g>
</g>
<!-- Node1&#45;&gt;Node2 -->
<g id="edge1" class="edge">
<title>Node1&#45;&gt;Node2</title>
<path fill="none" stroke="midnightblue" d="M91.84,-186.59C121,-203.72 182.6,-239.9 221.5,-262.74"/>
<polygon fill="midnightblue" stroke="midnightblue" points="219.99,-265.91 230.39,-267.96 223.54,-259.88 219.99,-265.91"/>
</g>
<!-- Node16 -->
<g id="node16" class="node">
<title>Node16</title>
<g id="a_node16"><a xlink:href="../../d6/d27/class_t___m_e_s_h_1_1_basic___t_mesh.html#ae9b140c83f01239adb8204f70a73e86c" target="_top" xlink:title="Creates a properly oriented Triangle bounded by three existing mesh edges.">
<polygon fill="white" stroke="black" points="195.5,-184 195.5,-214 318.5,-214 318.5,-184 195.5,-184"/>
<text text-anchor="start" x="203.5" y="-202" font-family="Helvetica,sans-Serif" font-size="10.00">T_MESH::Basic_TMesh</text>
<text text-anchor="middle" x="257" y="-191" font-family="Helvetica,sans-Serif" font-size="10.00">::CreateTriangle</text>
</a>
</g>
</g>
<!-- Node1&#45;&gt;Node16 -->
<g id="edge17" class="edge">
<title>Node1&#45;&gt;Node16</title>
<path fill="none" stroke="midnightblue" d="M149.18,-185.98C161.01,-187.42 173.24,-188.91 185.02,-190.35"/>
<polygon fill="midnightblue" stroke="midnightblue" points="184.87,-193.86 195.22,-191.59 185.72,-186.91 184.87,-193.86"/>
</g>
<!-- Node19 -->
<g id="node19" class="node">
<title>Node19</title>
<g id="a_node19"><a xlink:href="../../d4/d57/class_t___m_e_s_h_1_1mc__cell.html#af84b560a2b73d12ba52176af3e6ee17f" target="_top" xlink:title=" ">
<polygon fill="white" stroke="black" points="185,-145.5 185,-164.5 329,-164.5 329,-145.5 185,-145.5"/>
<text text-anchor="middle" x="257" y="-152.5" font-family="Helvetica,sans-Serif" font-size="10.00">T_MESH::mc_cell::lookdown</text>
</a>
</g>
</g>
<!-- Node1&#45;&gt;Node19 -->
<g id="edge21" class="edge">
<title>Node1&#45;&gt;Node19</title>
<path fill="none" stroke="midnightblue" d="M149.18,-168.02C157.65,-166.99 166.33,-165.93 174.9,-164.88"/>
<polygon fill="midnightblue" stroke="midnightblue" points="175.39,-168.35 184.89,-163.67 174.54,-161.4 175.39,-168.35"/>
</g>
<!-- Node20 -->
<g id="node20" class="node">
<title>Node20</title>
<g id="a_node20"><a xlink:href="../../de/df2/class_t___m_e_s_h_1_1_t_mesh.html#a858df1d3c985685df741e12996cbe9c7" target="_top" xlink:title=" ">
<polygon fill="white" stroke="black" points="190.5,-107.5 190.5,-126.5 323.5,-126.5 323.5,-107.5 190.5,-107.5"/>
<text text-anchor="middle" x="257" y="-114.5" font-family="Helvetica,sans-Serif" font-size="10.00">T_MESH::TMesh::warning</text>
</a>
</g>
</g>
<!-- Node1&#45;&gt;Node20 -->
<g id="edge22" class="edge">
<title>Node1&#45;&gt;Node20</title>
<path fill="none" stroke="midnightblue" d="M99.19,-167.37C121.21,-158.6 155.03,-145.59 185,-136 192.27,-133.67 200.01,-131.4 207.62,-129.27"/>
<polygon fill="midnightblue" stroke="midnightblue" points="208.76,-132.59 217.48,-126.58 206.91,-125.84 208.76,-132.59"/>
</g>
<!-- Node3 -->
<g id="node3" class="node">
<title>Node3</title>
<g id="a_node3"><a xlink:href="../../d3/d04/class_t___m_e_s_h_1_1_list.html#ae601a7e17364ce83f74ffcb6c64971ca" target="_top" xlink:title="Appends a new node storing &#39;d&#39; to the head. &#160;&#160;O(1).">
<polygon fill="white" stroke="black" points="715.5,-266.5 715.5,-285.5 855.5,-285.5 855.5,-266.5 715.5,-266.5"/>
<text text-anchor="middle" x="785.5" y="-273.5" font-family="Helvetica,sans-Serif" font-size="10.00">T_MESH::List::appendHead</text>
</a>
</g>
</g>
<!-- Node2&#45;&gt;Node3 -->
<g id="edge2" class="edge">
<title>Node2&#45;&gt;Node3</title>
<path fill="none" stroke="midnightblue" d="M287.05,-298.21C308.06,-308.32 337.48,-320.68 365,-326 503.76,-352.84 671.29,-310.95 745.68,-288.59"/>
<polygon fill="midnightblue" stroke="midnightblue" points="747,-291.84 755.54,-285.57 744.95,-285.15 747,-291.84"/>
</g>
<!-- Node4 -->
<g id="node4" class="node">
<title>Node4</title>
<g id="a_node4"><a xlink:href="../../d5/d7f/class_t___m_e_s_h_1_1_vertex.html#af74a29c7daa03825b0156bfe7f64052a" target="_top" xlink:title="Returns the edge connecting this vertex to &#39;v&#39;. NULL if such an edge does not exist.">
<polygon fill="white" stroke="black" points="377,-209.5 377,-228.5 510,-228.5 510,-209.5 377,-209.5"/>
<text text-anchor="middle" x="443.5" y="-216.5" font-family="Helvetica,sans-Serif" font-size="10.00">T_MESH::Vertex::getEdge</text>
</a>
</g>
</g>
<!-- Node2&#45;&gt;Node4 -->
<g id="edge3" class="edge">
<title>Node2&#45;&gt;Node4</title>
<path fill="none" stroke="midnightblue" d="M301.26,-267.99C332.84,-257.04 375.2,-242.34 405.28,-231.91"/>
<polygon fill="midnightblue" stroke="midnightblue" points="406.67,-235.13 414.97,-228.55 404.38,-228.52 406.67,-235.13"/>
</g>
<!-- Node15 -->
<g id="node15" class="node">
<title>Node15</title>
<g id="a_node15"><a xlink:href="../../d6/d27/class_t___m_e_s_h_1_1_basic___t_mesh.html#a20469173793123e3dd41269a48602ba2" target="_top" xlink:title="AMF_ADD 1.1&gt;">
<polygon fill="white" stroke="black" points="382,-286 382,-316 505,-316 505,-286 382,-286"/>
<text text-anchor="start" x="390" y="-304" font-family="Helvetica,sans-Serif" font-size="10.00">T_MESH::Basic_TMesh</text>
<text text-anchor="middle" x="443.5" y="-293" font-family="Helvetica,sans-Serif" font-size="10.00">::newEdge</text>
</a>
</g>
</g>
<!-- Node2&#45;&gt;Node15 -->
<g id="edge16" class="edge">
<title>Node2&#45;&gt;Node15</title>
<path fill="none" stroke="midnightblue" d="M318.67,-288.92C335.61,-290.57 354.17,-292.38 371.65,-294.09"/>
<polygon fill="midnightblue" stroke="midnightblue" points="371.5,-297.59 381.8,-295.08 372.18,-290.62 371.5,-297.59"/>
</g>
<!-- Node5 -->
<g id="node5" class="node">
<title>Node5</title>
<g id="a_node5"><a xlink:href="../../da/da2/class_t___m_e_s_h_1_1_edge.html#aef981891343c94489f00b060bd654b6c" target="_top" xlink:title="Vertex opposite to &#39;v&#39;. NULL if &#39;v&#39; is not a vertex of the edge.">
<polygon fill="white" stroke="black" points="707.5,-228.5 707.5,-247.5 863.5,-247.5 863.5,-228.5 707.5,-228.5"/>
<text text-anchor="middle" x="785.5" y="-235.5" font-family="Helvetica,sans-Serif" font-size="10.00">T_MESH::Edge::oppositeVertex</text>
</a>
</g>
</g>
<!-- Node4&#45;&gt;Node5 -->
<g id="edge4" class="edge">
<title>Node4&#45;&gt;Node5</title>
<path fill="none" stroke="midnightblue" d="M510.06,-222.66C563.21,-225.63 638.61,-229.85 696.93,-233.11"/>
<polygon fill="midnightblue" stroke="midnightblue" points="697.06,-236.62 707.24,-233.68 697.45,-229.63 697.06,-236.62"/>
</g>
<!-- Node6 -->
<g id="node6" class="node">
<title>Node6</title>
<g id="a_node6"><a xlink:href="../../d5/d7f/class_t___m_e_s_h_1_1_vertex.html#a66b49df1416ddcee6be0e1abe3aadda9" target="_top" xlink:title="List of incident edges.">
<polygon fill="white" stroke="black" points="558,-152.5 558,-171.5 668,-171.5 668,-152.5 558,-152.5"/>
<text text-anchor="middle" x="613" y="-159.5" font-family="Helvetica,sans-Serif" font-size="10.00">T_MESH::Vertex::VE</text>
</a>
</g>
</g>
<!-- Node4&#45;&gt;Node6 -->
<g id="edge5" class="edge">
<title>Node4&#45;&gt;Node6</title>
<path fill="none" stroke="midnightblue" d="M488.7,-209.45C499.68,-206.73 511.35,-203.53 522,-200 542.59,-193.18 565.07,-183.69 582.41,-175.9"/>
<polygon fill="midnightblue" stroke="midnightblue" points="584.33,-178.87 591.98,-171.54 581.43,-172.5 584.33,-178.87"/>
</g>
<!-- Node6&#45;&gt;Node3 -->
<g id="edge6" class="edge">
<title>Node6&#45;&gt;Node3</title>
<path fill="none" stroke="midnightblue" d="M620.15,-171.55C633.15,-190.9 665.4,-234.79 704,-257 707.89,-259.24 712.02,-261.21 716.29,-262.95"/>
<polygon fill="midnightblue" stroke="midnightblue" points="715.19,-266.28 725.79,-266.4 717.59,-259.7 715.19,-266.28"/>
</g>
<!-- Node6&#45;&gt;Node5 -->
<g id="edge12" class="edge">
<title>Node6&#45;&gt;Node5</title>
<path fill="none" stroke="midnightblue" d="M626.08,-171.52C642.71,-184.17 674,-206.38 704,-219 709.91,-221.48 716.2,-223.68 722.57,-225.61"/>
<polygon fill="midnightblue" stroke="midnightblue" points="722.01,-229.09 732.58,-228.44 723.91,-222.35 722.01,-229.09"/>
</g>
<!-- Node7 -->
<g id="node7" class="node">
<title>Node7</title>
<g id="a_node7"><a xlink:href="../../d3/d04/class_t___m_e_s_h_1_1_list.html#a1b14a2838ee3745d5fb413f9e7ecc214" target="_top" xlink:title="Appends a new node storing &#39;d&#39; to the tail. &#160;&#160;O(1).">
<polygon fill="white" stroke="black" points="720,-76.5 720,-95.5 851,-95.5 851,-76.5 720,-76.5"/>
<text text-anchor="middle" x="785.5" y="-83.5" font-family="Helvetica,sans-Serif" font-size="10.00">T_MESH::List::appendTail</text>
</a>
</g>
</g>
<!-- Node6&#45;&gt;Node7 -->
<g id="edge7" class="edge">
<title>Node6&#45;&gt;Node7</title>
<path fill="none" stroke="midnightblue" d="M626.08,-152.48C642.71,-139.83 674,-117.62 704,-105 709.91,-102.52 716.2,-100.32 722.57,-98.39"/>
<polygon fill="midnightblue" stroke="midnightblue" points="723.91,-101.65 732.58,-95.56 722.01,-94.91 723.91,-101.65"/>
</g>
<!-- Node8 -->
<g id="node8" class="node">
<title>Node8</title>
<g id="a_node8"><a xlink:href="../../da/da2/class_t___m_e_s_h_1_1_edge.html#a96830b6d677fab318268f287682ad151" target="_top" xlink:title="Triangle on the left of the edge when looking from &#39;v&#39;. NULL if &#39;v&#39; is not a vertex of the edge.">
<polygon fill="white" stroke="black" points="715.5,-38.5 715.5,-57.5 855.5,-57.5 855.5,-38.5 715.5,-38.5"/>
<text text-anchor="middle" x="785.5" y="-45.5" font-family="Helvetica,sans-Serif" font-size="10.00">T_MESH::Edge::leftTriangle</text>
</a>
</g>
</g>
<!-- Node6&#45;&gt;Node8 -->
<g id="edge8" class="edge">
<title>Node6&#45;&gt;Node8</title>
<path fill="none" stroke="midnightblue" d="M620.15,-152.45C633.15,-133.1 665.4,-89.21 704,-67 707.89,-64.76 712.02,-62.79 716.29,-61.05"/>
<polygon fill="midnightblue" stroke="midnightblue" points="717.59,-64.3 725.79,-57.6 715.19,-57.72 717.59,-64.3"/>
</g>
<!-- Node9 -->
<g id="node9" class="node">
<title>Node9</title>
<g id="a_node9"><a xlink:href="../../d3/d04/class_t___m_e_s_h_1_1_list.html#af0e61026072f65c9ba882df526acfd2e" target="_top" xlink:title="Gets the number of elements. &#160;&#160;O(1).">
<polygon fill="white" stroke="black" points="727.5,-0.5 727.5,-19.5 843.5,-19.5 843.5,-0.5 727.5,-0.5"/>
<text text-anchor="middle" x="785.5" y="-7.5" font-family="Helvetica,sans-Serif" font-size="10.00">T_MESH::List::numels</text>
</a>
</g>
</g>
<!-- Node6&#45;&gt;Node9 -->
<g id="edge9" class="edge">
<title>Node6&#45;&gt;Node9</title>
<path fill="none" stroke="midnightblue" d="M617.55,-152.49C627.26,-127.86 656.72,-61.61 704,-29 708.25,-26.07 712.89,-23.59 717.74,-21.48"/>
<polygon fill="midnightblue" stroke="midnightblue" points="719.13,-24.7 727.25,-17.89 716.65,-18.15 719.13,-24.7"/>
</g>
<!-- Node10 -->
<g id="node10" class="node">
<title>Node10</title>
<g id="a_node10"><a xlink:href="../../d8/d6e/class_t___m_e_s_h_1_1_triangle.html#a77cc688b97fd6501b5dca8385fce4137" target="_top" xlink:title="Triangle&#39;s edge opposite to &#39;v&#39;. NULL if &#39;v&#39; is not a vertex of the triangle.">
<polygon fill="white" stroke="black" points="704,-190.5 704,-209.5 867,-209.5 867,-190.5 704,-190.5"/>
<text text-anchor="middle" x="785.5" y="-197.5" font-family="Helvetica,sans-Serif" font-size="10.00">T_MESH::Triangle::oppositeEdge</text>
</a>
</g>
</g>
<!-- Node6&#45;&gt;Node10 -->
<g id="edge10" class="edge">
<title>Node6&#45;&gt;Node10</title>
<path fill="none" stroke="midnightblue" d="M657.02,-171.59C679.73,-176.65 707.77,-182.9 731.77,-188.25"/>
<polygon fill="midnightblue" stroke="midnightblue" points="731.26,-191.72 741.79,-190.48 732.79,-184.89 731.26,-191.72"/>
</g>
<!-- Node12 -->
<g id="node12" class="node">
<title>Node12</title>
<g id="a_node12"><a xlink:href="../../d3/d04/class_t___m_e_s_h_1_1_list.html#a9701d1b3769b92b7d2a7ed6da895a863" target="_top" xlink:title="Deletes and removes the first node. Returns its data. &#160;&#160;O(1).">
<polygon fill="white" stroke="black" points="723.5,-152.5 723.5,-171.5 847.5,-171.5 847.5,-152.5 723.5,-152.5"/>
<text text-anchor="middle" x="785.5" y="-159.5" font-family="Helvetica,sans-Serif" font-size="10.00">T_MESH::List::popHead</text>
</a>
</g>
</g>
<!-- Node6&#45;&gt;Node12 -->
<g id="edge13" class="edge">
<title>Node6&#45;&gt;Node12</title>
<path fill="none" stroke="midnightblue" d="M668.42,-162C682.67,-162 698.25,-162 713.24,-162"/>
<polygon fill="midnightblue" stroke="midnightblue" points="713.5,-165.5 723.5,-162 713.5,-158.5 713.5,-165.5"/>
</g>
<!-- Node14 -->
<g id="node14" class="node">
<title>Node14</title>
<g id="a_node14"><a xlink:href="../../da/da2/class_t___m_e_s_h_1_1_edge.html#aa9788a51d590116555c8a062e253a197" target="_top" xlink:title="Triangle on the right of the edge when looking from &#39;v&#39;. NULL if &#39;v&#39; is not a vertex of the edge.">
<polygon fill="white" stroke="black" points="713,-114.5 713,-133.5 858,-133.5 858,-114.5 713,-114.5"/>
<text text-anchor="middle" x="785.5" y="-121.5" font-family="Helvetica,sans-Serif" font-size="10.00">T_MESH::Edge::rightTriangle</text>
</a>
</g>
</g>
<!-- Node6&#45;&gt;Node14 -->
<g id="edge15" class="edge">
<title>Node6&#45;&gt;Node14</title>
<path fill="none" stroke="midnightblue" d="M657.02,-152.41C679.73,-147.35 707.77,-141.1 731.77,-135.75"/>
<polygon fill="midnightblue" stroke="midnightblue" points="732.79,-139.11 741.79,-133.52 731.26,-132.28 732.79,-139.11"/>
</g>
<!-- Node11 -->
<g id="node11" class="node">
<title>Node11</title>
<g id="a_node11"><a xlink:href="../../da/da2/class_t___m_e_s_h_1_1_edge.html#a7d7329ff24b7b6eb2eceee39711dd650" target="_top" xlink:title="TRUE iff &#39;v&#39; is an end&#45;point of the edge.">
<polygon fill="white" stroke="black" points="903,-190.5 903,-209.5 1038,-209.5 1038,-190.5 903,-190.5"/>
<text text-anchor="middle" x="970.5" y="-197.5" font-family="Helvetica,sans-Serif" font-size="10.00">T_MESH::Edge::hasVertex</text>
</a>
</g>
</g>
<!-- Node10&#45;&gt;Node11 -->
<g id="edge11" class="edge">
<title>Node10&#45;&gt;Node11</title>
<path fill="none" stroke="midnightblue" d="M867.03,-200C875.55,-200 884.2,-200 892.68,-200"/>
<polygon fill="midnightblue" stroke="midnightblue" points="892.92,-203.5 902.92,-200 892.92,-196.5 892.92,-203.5"/>
</g>
<!-- Node13 -->
<g id="node13" class="node">
<title>Node13</title>
<g id="a_node13"><a xlink:href="../../d3/d04/class_t___m_e_s_h_1_1_list.html#aec091d7c66b66c92fe56f06f41f448f4" target="_top" xlink:title="Deletes and removes the node &#39;n&#39; from the list. &#160;&#160;O(1).">
<polygon fill="white" stroke="black" points="903.5,-152.5 903.5,-171.5 1037.5,-171.5 1037.5,-152.5 903.5,-152.5"/>
<text text-anchor="middle" x="970.5" y="-159.5" font-family="Helvetica,sans-Serif" font-size="10.00">T_MESH::List::removeCell</text>
</a>
</g>
</g>
<!-- Node12&#45;&gt;Node13 -->
<g id="edge14" class="edge">
<title>Node12&#45;&gt;Node13</title>
<path fill="none" stroke="midnightblue" d="M847.69,-162C862.21,-162 877.88,-162 892.99,-162"/>
<polygon fill="midnightblue" stroke="midnightblue" points="893.34,-165.5 903.34,-162 893.34,-158.5 893.34,-165.5"/>
</g>
<!-- Node16&#45;&gt;Node3 -->
<g id="edge18" class="edge">
<title>Node16&#45;&gt;Node3</title>
<path fill="none" stroke="midnightblue" d="M292.5,-214.16C313.13,-222.58 340.11,-232.44 365,-238 481.58,-264.06 620.2,-272.34 705.25,-274.91"/>
<polygon fill="midnightblue" stroke="midnightblue" points="705.26,-278.41 715.36,-275.2 705.46,-271.42 705.26,-278.41"/>
</g>
<!-- Node17 -->
<g id="node17" class="node">
<title>Node17</title>
<g id="a_node17"><a xlink:href="../../da/da2/class_t___m_e_s_h_1_1_edge.html#a560eca8895471f987bd3228b13c40052" target="_top" xlink:title="Vertex shared with edge &#39;b&#39;. NULL if this and &#39;b&#39; do not share any vertex.">
<polygon fill="white" stroke="black" points="365,-171.5 365,-190.5 522,-190.5 522,-171.5 365,-171.5"/>
<text text-anchor="middle" x="443.5" y="-178.5" font-family="Helvetica,sans-Serif" font-size="10.00">T_MESH::Edge::commonVertex</text>
</a>
</g>
</g>
<!-- Node16&#45;&gt;Node17 -->
<g id="edge19" class="edge">
<title>Node16&#45;&gt;Node17</title>
<path fill="none" stroke="midnightblue" d="M318.67,-193.08C330.24,-191.95 342.56,-190.75 354.78,-189.56"/>
<polygon fill="midnightblue" stroke="midnightblue" points="355.38,-193.02 365,-188.56 354.7,-186.05 355.38,-193.02"/>
</g>
<!-- Node18 -->
<g id="node18" class="node">
<title>Node18</title>
<g id="a_node18"><a xlink:href="../../d6/d27/class_t___m_e_s_h_1_1_basic___t_mesh.html#a1fda4e2b03b24abb8784e3a1c6fb49e7" target="_top" xlink:title="AMF_ADD 1.1&gt;">
<polygon fill="white" stroke="black" points="382,-122 382,-152 505,-152 505,-122 382,-122"/>
<text text-anchor="start" x="390" y="-140" font-family="Helvetica,sans-Serif" font-size="10.00">T_MESH::Basic_TMesh</text>
<text text-anchor="middle" x="443.5" y="-129" font-family="Helvetica,sans-Serif" font-size="10.00">::newTriangle</text>
</a>
</g>
</g>
<!-- Node16&#45;&gt;Node18 -->
<g id="edge20" class="edge">
<title>Node16&#45;&gt;Node18</title>
<path fill="none" stroke="midnightblue" d="M300.88,-183.94C320.41,-177.14 343.84,-169.07 365,-162 371.58,-159.8 378.48,-157.53 385.34,-155.29"/>
<polygon fill="midnightblue" stroke="midnightblue" points="386.89,-158.47 395.32,-152.05 384.73,-151.81 386.89,-158.47"/>
</g>
</g>
</svg>
