<?xml version="1.0" encoding="UTF-8" standalone="no"?>
<!DOCTYPE svg PUBLIC "-//W3C//DTD SVG 1.1//EN"
 "http://www.w3.org/Graphics/SVG/1.1/DTD/svg11.dtd">
<!-- Generated by graphviz version 2.44.1 (0)
 -->
<!-- Title: T_MESH::mc_cell::lookdown Pages: 1 -->
<svg width="509pt" height="28pt"
 viewBox="0.00 0.00 509.00 28.00" xmlns="http://www.w3.org/2000/svg" xmlns:xlink="http://www.w3.org/1999/xlink">
<g id="graph0" class="graph" transform="scale(1 1) rotate(0) translate(4 24)">
<title>T_MESH::mc_cell::lookdown</title>
<polygon fill="white" stroke="transparent" points="-4,4 -4,-24 505,-24 505,4 -4,4"/>
<!-- Node1 -->
<g id="node1" class="node">
<title>Node1</title>
<g id="a_node1"><a xlink:title=" ">
<polygon fill="#bfbfbf" stroke="black" points="357,-0.5 357,-19.5 501,-19.5 501,-0.5 357,-0.5"/>
<text text-anchor="middle" x="429" y="-7.5" font-family="Helvetica,sans-Serif" font-size="10.00">T_MESH::mc_cell::lookdown</text>
</a>
</g>
</g>
<!-- Node2 -->
<g id="node2" class="node">
<title>Node2</title>
<g id="a_node2"><a xlink:href="../../d4/d57/class_t___m_e_s_h_1_1mc__cell.html#ae67d7b2ab606f013f3d77173c9f5bc00" target="_top" xlink:title=" ">
<polygon fill="white" stroke="black" points="172,-0.5 172,-19.5 321,-19.5 321,-0.5 172,-0.5"/>
<text text-anchor="middle" x="246.5" y="-7.5" font-family="Helvetica,sans-Serif" font-size="10.00">T_MESH::mc_cell::polygonize</text>
</a>
</g>
</g>
<!-- Node1&#45;&gt;Node2 -->
<g id="edge1" class="edge">
<title>Node1&#45;&gt;Node2</title>
<path fill="none" stroke="midnightblue" d="M346.65,-10C338.16,-10 329.58,-10 321.19,-10"/>
<polygon fill="midnightblue" stroke="midnightblue" points="346.92,-13.5 356.92,-10 346.92,-6.5 346.92,-13.5"/>
</g>
<!-- Node3 -->
<g id="node3" class="node">
<title>Node3</title>
<g id="a_node3"><a xlink:href="../../d9/d69/class_t___m_e_s_h_1_1mc__grid.html#acab069f805e6c473afb4e340d3d8d1ae" target="_top" xlink:title="&lt; AMF_CHANGE &#45; since T_MESH 2.4&#45;2 &gt;">
<polygon fill="white" stroke="black" points="0,-0.5 0,-19.5 136,-19.5 136,-0.5 0,-0.5"/>
<text text-anchor="middle" x="68" y="-7.5" font-family="Helvetica,sans-Serif" font-size="10.00">T_MESH::mc_grid::remesh</text>
</a>
</g>
</g>
<!-- Node2&#45;&gt;Node3 -->
<g id="edge2" class="edge">
<title>Node2&#45;&gt;Node3</title>
<path fill="none" stroke="midnightblue" d="M161.88,-10C153.29,-10 144.64,-10 136.25,-10"/>
<polygon fill="midnightblue" stroke="midnightblue" points="161.93,-13.5 171.93,-10 161.93,-6.5 161.93,-13.5"/>
</g>
</g>
</svg>
