<?xml version="1.0" encoding="UTF-8" standalone="no"?>
<!DOCTYPE svg PUBLIC "-//W3C//DTD SVG 1.1//EN"
 "http://www.w3.org/Graphics/SVG/1.1/DTD/svg11.dtd">
<!-- Generated by graphviz version 2.44.1 (0)
 -->
<!-- Title: VoxelOctree::fillCells Pages: 1 -->
<svg width="439pt" height="28pt"
 viewBox="0.00 0.00 439.00 28.00" xmlns="http://www.w3.org/2000/svg" xmlns:xlink="http://www.w3.org/1999/xlink">
<g id="graph0" class="graph" transform="scale(1 1) rotate(0) translate(4 24)">
<title>VoxelOctree::fillCells</title>
<polygon fill="white" stroke="transparent" points="-4,4 -4,-24 435,-24 435,4 -4,4"/>
<!-- Node1 -->
<g id="node1" class="node">
<title>Node1</title>
<g id="a_node1"><a xlink:title="Convert octree to voxel grid.">
<polygon fill="#bfbfbf" stroke="black" points="323,-0.5 323,-19.5 431,-19.5 431,-0.5 323,-0.5"/>
<text text-anchor="middle" x="377" y="-7.5" font-family="Helvetica,sans-Serif" font-size="10.00">VoxelOctree::fillCells</text>
</a>
</g>
</g>
<!-- Node2 -->
<g id="node2" class="node">
<title>Node2</title>
<g id="a_node2"><a xlink:href="../../d8/dcf/class_voxel_octree.html#a97f818ad002b649909f2b7e116d87182" target="_top" xlink:title="Traverses the octree to build the voxel image.">
<polygon fill="white" stroke="black" points="147,-0.5 147,-19.5 287,-19.5 287,-0.5 147,-0.5"/>
<text text-anchor="middle" x="217" y="-7.5" font-family="Helvetica,sans-Serif" font-size="10.00">VoxelOctree::traverseOctree</text>
</a>
</g>
</g>
<!-- Node1&#45;&gt;Node2 -->
<g id="edge1" class="edge">
<title>Node1&#45;&gt;Node2</title>
<path fill="none" stroke="midnightblue" d="M312.82,-10C304.39,-10 295.71,-10 287.19,-10"/>
<polygon fill="midnightblue" stroke="midnightblue" points="312.95,-13.5 322.95,-10 312.95,-6.5 312.95,-13.5"/>
</g>
<!-- Node3 -->
<g id="node3" class="node">
<title>Node3</title>
<g id="a_node3"><a xlink:href="../../d8/dcf/class_voxel_octree.html#aa239c5f2184006af13c72c13fc823919" target="_top" xlink:title="Traverse the octree.">
<polygon fill="white" stroke="black" points="0,-0.5 0,-19.5 111,-19.5 111,-0.5 0,-0.5"/>
<text text-anchor="middle" x="55.5" y="-7.5" font-family="Helvetica,sans-Serif" font-size="10.00">VoxelOctree::traverse</text>
</a>
</g>
</g>
<!-- Node2&#45;&gt;Node3 -->
<g id="edge2" class="edge">
<title>Node2&#45;&gt;Node3</title>
<path fill="none" stroke="midnightblue" d="M136.83,-10C128.17,-10 119.49,-10 111.22,-10"/>
<polygon fill="midnightblue" stroke="midnightblue" points="136.97,-13.5 146.97,-10 136.97,-6.5 136.97,-13.5"/>
</g>
</g>
</svg>
