<?xml version="1.0" encoding="UTF-8" standalone="no"?>
<!DOCTYPE svg PUBLIC "-//W3C//DTD SVG 1.1//EN"
 "http://www.w3.org/Graphics/SVG/1.1/DTD/svg11.dtd">
<!-- Generated by graphviz version 2.44.1 (0)
 -->
<!-- Title: VoxelOctree::traverseOctree Pages: 1 -->
<svg width="293pt" height="78pt"
 viewBox="0.00 0.00 293.00 77.50" xmlns="http://www.w3.org/2000/svg" xmlns:xlink="http://www.w3.org/1999/xlink">
<g id="graph0" class="graph" transform="scale(1 1) rotate(0) translate(4 73.5)">
<title>VoxelOctree::traverseOctree</title>
<polygon fill="white" stroke="transparent" points="-4,4 -4,-73.5 289,-73.5 289,4 -4,4"/>
<!-- Node1 -->
<g id="node1" class="node">
<title>Node1</title>
<g id="a_node1"><a xlink:title="Traverses the octree to build the voxel image.">
<polygon fill="#bfbfbf" stroke="black" points="0,-28 0,-47 140,-47 140,-28 0,-28"/>
<text text-anchor="middle" x="70" y="-35" font-family="Helvetica,sans-Serif" font-size="10.00">VoxelOctree::traverseOctree</text>
</a>
</g>
</g>
<!-- Node2 -->
<g id="node2" class="node">
<title>Node2</title>
<g id="a_node2"><a xlink:href="../../d8/dcf/class_voxel_octree.html#a21c3528b452a216e10419c285ec28664" target="_top" xlink:title="Convert octree to voxel grid.">
<polygon fill="white" stroke="black" points="176.5,-50 176.5,-69 284.5,-69 284.5,-50 176.5,-50"/>
<text text-anchor="middle" x="230.5" y="-57" font-family="Helvetica,sans-Serif" font-size="10.00">VoxelOctree::fillCells</text>
</a>
</g>
</g>
<!-- Node1&#45;&gt;Node2 -->
<g id="edge1" class="edge">
<title>Node1&#45;&gt;Node2</title>
<path fill="none" stroke="midnightblue" d="M139.6,-47.02C148.38,-48.24 157.34,-49.48 166.03,-50.69"/>
<polygon fill="midnightblue" stroke="midnightblue" points="165.7,-54.18 176.09,-52.09 166.66,-47.24 165.7,-54.18"/>
</g>
<!-- Node3 -->
<g id="node3" class="node">
<title>Node3</title>
<g id="a_node3"><a xlink:href="../../d2/de9/struct_voxel_octree_1_1_a_a_b_b.html#a5fb084e31d4f69230410273d8d6ab789" target="_top" xlink:title="Return the width of the AABB.">
<polygon fill="white" stroke="black" points="176,-0.5 176,-30.5 285,-30.5 285,-0.5 176,-0.5"/>
<text text-anchor="start" x="184" y="-18.5" font-family="Helvetica,sans-Serif" font-size="10.00">VoxelOctree::AABB::</text>
<text text-anchor="middle" x="230.5" y="-7.5" font-family="Helvetica,sans-Serif" font-size="10.00">getWidth</text>
</a>
</g>
</g>
<!-- Node1&#45;&gt;Node3 -->
<g id="edge2" class="edge">
<title>Node1&#45;&gt;Node3</title>
<path fill="none" stroke="midnightblue" d="M139.6,-27.98C148.26,-26.78 157.09,-25.55 165.67,-24.36"/>
<polygon fill="midnightblue" stroke="midnightblue" points="166.18,-27.82 175.6,-22.98 165.22,-20.89 166.18,-27.82"/>
</g>
</g>
</svg>
