<?xml version="1.0" encoding="UTF-8" standalone="no"?>
<!DOCTYPE svg PUBLIC "-//W3C//DTD SVG 1.1//EN"
 "http://www.w3.org/Graphics/SVG/1.1/DTD/svg11.dtd">
<!-- Generated by graphviz version 2.44.0 (0)
 -->
<!-- Title: VoxelOctree::VoxelOctree Pages: 1 -->
<svg width="493pt" height="78pt"
 viewBox="0.00 0.00 493.00 77.50" xmlns="http://www.w3.org/2000/svg" xmlns:xlink="http://www.w3.org/1999/xlink">
<g id="graph0" class="graph" transform="scale(1 1) rotate(0) translate(4 73.5)">
<title>VoxelOctree::VoxelOctree</title>
<polygon fill="white" stroke="transparent" points="-4,4 -4,-73.5 489,-73.5 489,4 -4,4"/>
<!-- Node1 -->
<g id="node1" class="node">
<title>Node1</title>
<g id="a_node1"><a xlink:title=" ">
<polygon fill="#bfbfbf" stroke="black" points="0,-28 0,-47 129,-47 129,-28 0,-28"/>
<text text-anchor="middle" x="64.5" y="-35" font-family="Helvetica,sans-Serif" font-size="10.00">VoxelOctree::VoxelOctree</text>
</a>
</g>
</g>
<!-- Node2 -->
<g id="node2" class="node">
<title>Node2</title>
<g id="a_node2"><a xlink:href="../../d9/d6b/namespace_sampling.html#a6485f7ee5709973834120058ed6dc745" target="_top" xlink:title="computes a hammersley two&#45;dimensional point">
<polygon fill="white" stroke="black" points="168.5,-50 168.5,-69 297.5,-69 297.5,-50 168.5,-50"/>
<text text-anchor="middle" x="233" y="-57" font-family="Helvetica,sans-Serif" font-size="10.00">Sampling::hammersley2D</text>
</a>
</g>
</g>
<!-- Node1&#45;&gt;Node2 -->
<g id="edge1" class="edge">
<title>Node1&#45;&gt;Node2</title>
<path fill="none" stroke="midnightblue" d="M129.4,-45.94C138.86,-47.19 148.67,-48.49 158.31,-49.76"/>
<polygon fill="midnightblue" stroke="midnightblue" points="157.9,-53.24 168.27,-51.08 158.82,-46.3 157.9,-53.24"/>
</g>
<!-- Node4 -->
<g id="node4" class="node">
<title>Node4</title>
<g id="a_node4"><a xlink:href="../../d9/d6b/namespace_sampling.html#ab0601986bf331112c328213e4eb566c4" target="_top" xlink:title="maps a two&#45;dimensional point on a sphere surface">
<polygon fill="white" stroke="black" points="165,-0.5 165,-30.5 301,-30.5 301,-0.5 165,-0.5"/>
<text text-anchor="start" x="173" y="-18.5" font-family="Helvetica,sans-Serif" font-size="10.00">Sampling::uniformSpherical</text>
<text text-anchor="middle" x="233" y="-7.5" font-family="Helvetica,sans-Serif" font-size="10.00">Sampling</text>
</a>
</g>
</g>
<!-- Node1&#45;&gt;Node4 -->
<g id="edge3" class="edge">
<title>Node1&#45;&gt;Node4</title>
<path fill="none" stroke="midnightblue" d="M129.4,-29.06C137.77,-27.95 146.42,-26.81 154.97,-25.68"/>
<polygon fill="midnightblue" stroke="midnightblue" points="155.51,-29.14 164.96,-24.36 154.59,-22.2 155.51,-29.14"/>
</g>
<!-- Node3 -->
<g id="node3" class="node">
<title>Node3</title>
<g id="a_node3"><a xlink:href="../../d9/d6b/namespace_sampling.html#acf525e677ad04c36632c86a31132564a" target="_top" xlink:title="computes the radical inverse (base for hammersley sampling)">
<polygon fill="white" stroke="black" points="337,-50 337,-69 485,-69 485,-50 337,-50"/>
<text text-anchor="middle" x="411" y="-57" font-family="Helvetica,sans-Serif" font-size="10.00">Sampling::RadicalInverseVdC</text>
</a>
</g>
</g>
<!-- Node2&#45;&gt;Node3 -->
<g id="edge2" class="edge">
<title>Node2&#45;&gt;Node3</title>
<path fill="none" stroke="midnightblue" d="M297.54,-59.5C307.04,-59.5 316.95,-59.5 326.79,-59.5"/>
<polygon fill="midnightblue" stroke="midnightblue" points="326.98,-63 336.98,-59.5 326.98,-56 326.98,-63"/>
</g>
</g>
</svg>
