<?xml version="1.0" encoding="UTF-8" standalone="no"?>
<!DOCTYPE svg PUBLIC "-//W3C//DTD SVG 1.1//EN"
 "http://www.w3.org/Graphics/SVG/1.1/DTD/svg11.dtd">
<!-- Generated by graphviz version 2.44.0 (0)
 -->
<!-- Title: FreehandTouchpointTool::undo Pages: 1 -->
<svg width="867pt" height="559pt"
 viewBox="0.00 0.00 867.00 559.00" xmlns="http://www.w3.org/2000/svg" xmlns:xlink="http://www.w3.org/1999/xlink">
<g id="graph0" class="graph" transform="scale(1 1) rotate(0) translate(4 555)">
<title>FreehandTouchpointTool::undo</title>
<polygon fill="white" stroke="transparent" points="-4,4 -4,-555 863,-555 863,4 -4,4"/>
<!-- Node1 -->
<g id="node1" class="node">
<title>Node1</title>
<g id="a_node1"><a xlink:title=" ">
<polygon fill="#bfbfbf" stroke="black" points="0,-296 0,-326 122,-326 122,-296 0,-296"/>
<text text-anchor="start" x="8" y="-314" font-family="Helvetica,sans-Serif" font-size="10.00">FreehandTouchpointTool</text>
<text text-anchor="middle" x="61" y="-303" font-family="Helvetica,sans-Serif" font-size="10.00">::undo</text>
</a>
</g>
</g>
<!-- Node2 -->
<g id="node2" class="node">
<title>Node2</title>
<g id="a_node2"><a xlink:href="../../d6/db5/class_scene.html#af1128c48ccb6999066aa1d935075cb23" target="_top" xlink:title="Remove a touchpoint from the scene given its unique touchpoint id.">
<polygon fill="white" stroke="black" points="158,-301.5 158,-320.5 288,-320.5 288,-301.5 158,-301.5"/>
<text text-anchor="middle" x="223" y="-308.5" font-family="Helvetica,sans-Serif" font-size="10.00">Scene::removeTouchpoint</text>
</a>
</g>
</g>
<!-- Node1&#45;&gt;Node2 -->
<g id="edge1" class="edge">
<title>Node1&#45;&gt;Node2</title>
<path fill="none" stroke="midnightblue" d="M122.03,-311C130.45,-311 139.17,-311 147.81,-311"/>
<polygon fill="midnightblue" stroke="midnightblue" points="147.88,-314.5 157.88,-311 147.88,-307.5 147.88,-314.5"/>
</g>
<!-- Node3 -->
<g id="node3" class="node">
<title>Node3</title>
<g id="a_node3"><a xlink:href="../../d9/d58/class_touchpoint.html#a85820150b53ece4c635f7ca5ed189afa" target="_top" xlink:title="Return the graphical representation (vtkActor) of the touchpoint.">
<polygon fill="white" stroke="black" points="346.5,-531.5 346.5,-550.5 453.5,-550.5 453.5,-531.5 346.5,-531.5"/>
<text text-anchor="middle" x="400" y="-538.5" font-family="Helvetica,sans-Serif" font-size="10.00">Touchpoint::getActor</text>
</a>
</g>
</g>
<!-- Node2&#45;&gt;Node3 -->
<g id="edge2" class="edge">
<title>Node2&#45;&gt;Node3</title>
<path fill="none" stroke="midnightblue" d="M225.61,-320.77C231.67,-354.41 256.37,-466.39 324,-522 327.82,-525.14 332.09,-527.77 336.61,-529.97"/>
<polygon fill="midnightblue" stroke="midnightblue" points="335.57,-533.33 346.15,-533.92 338.24,-526.86 335.57,-533.33"/>
</g>
<!-- Node4 -->
<g id="node4" class="node">
<title>Node4</title>
<g id="a_node4"><a xlink:href="../../d9/d58/class_touchpoint.html#a1b683bc69ad347a1fe886aa3161e76b3" target="_top" xlink:title="Return the graphical representation (vtkActor) of the outside wiring entry point.">
<polygon fill="white" stroke="black" points="333.5,-482 333.5,-512 466.5,-512 466.5,-482 333.5,-482"/>
<text text-anchor="start" x="341.5" y="-500" font-family="Helvetica,sans-Serif" font-size="10.00">Touchpoint::getConnection</text>
<text text-anchor="middle" x="400" y="-489" font-family="Helvetica,sans-Serif" font-size="10.00">PointActor</text>
</a>
</g>
</g>
<!-- Node2&#45;&gt;Node4 -->
<g id="edge3" class="edge">
<title>Node2&#45;&gt;Node4</title>
<path fill="none" stroke="midnightblue" d="M227.27,-320.58C237.22,-348.27 269.77,-429.18 324,-472 326.27,-473.79 328.68,-475.46 331.18,-477.01"/>
<polygon fill="midnightblue" stroke="midnightblue" points="329.56,-480.12 340.02,-481.85 332.92,-473.98 329.56,-480.12"/>
</g>
<!-- Node5 -->
<g id="node5" class="node">
<title>Node5</title>
<g id="a_node5"><a xlink:href="../../d9/d58/class_touchpoint.html#ab61727c9bb477bccca373f92a2b8bea4" target="_top" xlink:title="Return the touchpoint number label text actor.">
<polygon fill="white" stroke="black" points="337.5,-443.5 337.5,-462.5 462.5,-462.5 462.5,-443.5 337.5,-443.5"/>
<text text-anchor="middle" x="400" y="-450.5" font-family="Helvetica,sans-Serif" font-size="10.00">Touchpoint::getTextActor</text>
</a>
</g>
</g>
<!-- Node2&#45;&gt;Node5 -->
<g id="edge4" class="edge">
<title>Node2&#45;&gt;Node5</title>
<path fill="none" stroke="midnightblue" d="M229.03,-320.77C241.62,-344.21 276.91,-403.94 324,-434 327.34,-436.13 330.91,-438.03 334.61,-439.71"/>
<polygon fill="midnightblue" stroke="midnightblue" points="333.44,-443.01 344.02,-443.47 336.03,-436.51 333.44,-443.01"/>
</g>
<!-- Node6 -->
<g id="node6" class="node">
<title>Node6</title>
<g id="a_node6"><a xlink:href="../../d6/db5/class_scene.html#a7e5ee53ea01ef113afaaf4b7c10accf3" target="_top" xlink:title="Return the voxel grid image data.">
<polygon fill="white" stroke="black" points="345.5,-405.5 345.5,-424.5 454.5,-424.5 454.5,-405.5 345.5,-405.5"/>
<text text-anchor="middle" x="400" y="-412.5" font-family="Helvetica,sans-Serif" font-size="10.00">Scene::getVoxelData</text>
</a>
</g>
</g>
<!-- Node2&#45;&gt;Node6 -->
<g id="edge5" class="edge">
<title>Node2&#45;&gt;Node6</title>
<path fill="none" stroke="midnightblue" d="M232.34,-320.52C248.31,-338.16 285.12,-375.94 324,-396 328.51,-398.33 333.32,-400.38 338.25,-402.19"/>
<polygon fill="midnightblue" stroke="midnightblue" points="337.22,-405.54 347.82,-405.38 339.44,-398.9 337.22,-405.54"/>
</g>
<!-- Node7 -->
<g id="node7" class="node">
<title>Node7</title>
<g id="a_node7"><a xlink:href="../../d6/db5/class_scene.html#a7caf30a70e69430d5e4ac93d6828a649" target="_top" xlink:title="Return the bounds of the voxel grid.">
<polygon fill="white" stroke="black" points="331.5,-367.5 331.5,-386.5 468.5,-386.5 468.5,-367.5 331.5,-367.5"/>
<text text-anchor="middle" x="400" y="-374.5" font-family="Helvetica,sans-Serif" font-size="10.00">Scene::getVoxelgridBounds</text>
</a>
</g>
</g>
<!-- Node2&#45;&gt;Node7 -->
<g id="edge6" class="edge">
<title>Node2&#45;&gt;Node7</title>
<path fill="none" stroke="midnightblue" d="M241.63,-320.55C261.27,-330.89 294.2,-347.33 324,-358 330.87,-360.46 338.2,-362.73 345.48,-364.78"/>
<polygon fill="midnightblue" stroke="midnightblue" points="344.78,-368.22 355.35,-367.44 346.6,-361.46 344.78,-368.22"/>
</g>
<!-- Node9 -->
<g id="node9" class="node">
<title>Node9</title>
<g id="a_node9"><a xlink:href="../../d9/d58/class_touchpoint.html#ae06d7b971e13790fab04d7f40b5b89ef" target="_top" xlink:title="Set touchpoint actor.">
<polygon fill="white" stroke="black" points="346.5,-279.5 346.5,-298.5 453.5,-298.5 453.5,-279.5 346.5,-279.5"/>
<text text-anchor="middle" x="400" y="-286.5" font-family="Helvetica,sans-Serif" font-size="10.00">Touchpoint::setActor</text>
</a>
</g>
</g>
<!-- Node2&#45;&gt;Node9 -->
<g id="edge8" class="edge">
<title>Node2&#45;&gt;Node9</title>
<path fill="none" stroke="midnightblue" d="M288.17,-302.93C303.85,-300.96 320.62,-298.85 336.23,-296.89"/>
<polygon fill="midnightblue" stroke="midnightblue" points="336.82,-300.34 346.31,-295.62 335.95,-293.4 336.82,-300.34"/>
</g>
<!-- Node10 -->
<g id="node10" class="node">
<title>Node10</title>
<g id="a_node10"><a xlink:href="../../d9/d58/class_touchpoint.html#af3e0979fc1385955c5aae51968555dd3" target="_top" xlink:title="Set the actor of the connection point.">
<polygon fill="white" stroke="black" points="333.5,-230 333.5,-260 466.5,-260 466.5,-230 333.5,-230"/>
<text text-anchor="start" x="341.5" y="-248" font-family="Helvetica,sans-Serif" font-size="10.00">Touchpoint::setConnection</text>
<text text-anchor="middle" x="400" y="-237" font-family="Helvetica,sans-Serif" font-size="10.00">PointActor</text>
</a>
</g>
</g>
<!-- Node2&#45;&gt;Node10 -->
<g id="edge9" class="edge">
<title>Node2&#45;&gt;Node10</title>
<path fill="none" stroke="midnightblue" d="M246.07,-301.45C266.22,-292.85 296.91,-280.06 324,-270 329.91,-267.81 336.12,-265.59 342.32,-263.44"/>
<polygon fill="midnightblue" stroke="midnightblue" points="343.69,-266.67 352.02,-260.12 341.43,-260.05 343.69,-266.67"/>
</g>
<!-- Node11 -->
<g id="node11" class="node">
<title>Node11</title>
<g id="a_node11"><a xlink:href="../../d9/d58/class_touchpoint.html#a20ea5d908fdf70e2698c5f86789e4742" target="_top" xlink:title="Set touchpoint id to given id.">
<polygon fill="white" stroke="black" points="353,-191.5 353,-210.5 447,-210.5 447,-191.5 353,-191.5"/>
<text text-anchor="middle" x="400" y="-198.5" font-family="Helvetica,sans-Serif" font-size="10.00">Touchpoint::setID</text>
</a>
</g>
</g>
<!-- Node2&#45;&gt;Node11 -->
<g id="edge10" class="edge">
<title>Node2&#45;&gt;Node11</title>
<path fill="none" stroke="midnightblue" d="M231.99,-301.23C247.66,-282.73 284.37,-242.48 324,-221 329.97,-217.76 336.5,-215.03 343.13,-212.72"/>
<polygon fill="midnightblue" stroke="midnightblue" points="344.39,-215.99 352.87,-209.63 342.28,-209.32 344.39,-215.99"/>
</g>
<!-- Node12 -->
<g id="node12" class="node">
<title>Node12</title>
<g id="a_node12"><a xlink:href="../../d9/d58/class_touchpoint.html#aa9274369fab341dc277036e07dbfc234" target="_top" xlink:title="Set the polydata of the touchpoint.">
<polygon fill="white" stroke="black" points="338,-153.5 338,-172.5 462,-172.5 462,-153.5 338,-153.5"/>
<text text-anchor="middle" x="400" y="-160.5" font-family="Helvetica,sans-Serif" font-size="10.00">Touchpoint::setPolyData</text>
</a>
</g>
</g>
<!-- Node2&#45;&gt;Node12 -->
<g id="edge11" class="edge">
<title>Node2&#45;&gt;Node12</title>
<path fill="none" stroke="midnightblue" d="M228.54,-301.47C240.51,-277.4 275.4,-213.82 324,-182 327.16,-179.93 330.54,-178.08 334.04,-176.44"/>
<polygon fill="midnightblue" stroke="midnightblue" points="335.62,-179.57 343.55,-172.54 332.97,-173.09 335.62,-179.57"/>
</g>
<!-- Node15 -->
<g id="node15" class="node">
<title>Node15</title>
<g id="a_node15"><a xlink:href="../../d9/d58/class_touchpoint.html#a27645f8861d2ce10dc9bff4e72549539" target="_top" xlink:title="Set text label touchpoint number actor.">
<polygon fill="white" stroke="black" points="337.5,-115.5 337.5,-134.5 462.5,-134.5 462.5,-115.5 337.5,-115.5"/>
<text text-anchor="middle" x="400" y="-122.5" font-family="Helvetica,sans-Serif" font-size="10.00">Touchpoint::setTextActor</text>
</a>
</g>
</g>
<!-- Node2&#45;&gt;Node15 -->
<g id="edge14" class="edge">
<title>Node2&#45;&gt;Node15</title>
<path fill="none" stroke="midnightblue" d="M226.88,-301.28C235.95,-272.41 266.79,-186.56 324,-144 326.51,-142.14 329.17,-140.45 331.96,-138.94"/>
<polygon fill="midnightblue" stroke="midnightblue" points="333.59,-142.03 341.17,-134.62 330.63,-135.69 333.59,-142.03"/>
</g>
<!-- Node16 -->
<g id="node16" class="node">
<title>Node16</title>
<g id="a_node16"><a xlink:href="../../d9/d58/class_touchpoint.html#a550348f9d05c347b5186b6531d583a11" target="_top" xlink:title="Mark voxel grid cells as unoccupied by the touchpoint geometry.">
<polygon fill="white" stroke="black" points="324,-68.5 324,-87.5 476,-87.5 476,-68.5 324,-68.5"/>
<text text-anchor="middle" x="400" y="-75.5" font-family="Helvetica,sans-Serif" font-size="10.00">Touchpoint::unMarkOccupation</text>
</a>
</g>
</g>
<!-- Node2&#45;&gt;Node16 -->
<g id="edge15" class="edge">
<title>Node2&#45;&gt;Node16</title>
<path fill="none" stroke="midnightblue" d="M226.02,-301.31C233.28,-268.92 260.96,-163.23 324,-106 330.65,-99.96 338.73,-95.18 347.09,-91.42"/>
<polygon fill="midnightblue" stroke="midnightblue" points="348.62,-94.58 356.58,-87.59 346,-88.08 348.62,-94.58"/>
</g>
<!-- Node21 -->
<g id="node21" class="node">
<title>Node21</title>
<g id="a_node21"><a xlink:href="../../d6/db5/class_scene.html#a415555bc0037489b1a9421747c318746" target="_top" xlink:title="Update the occupation map visualization after changes to the underlying voxel data.">
<polygon fill="white" stroke="black" points="326,-318 326,-348 474,-348 474,-318 326,-318"/>
<text text-anchor="start" x="334" y="-336" font-family="Helvetica,sans-Serif" font-size="10.00">Scene::updateOccupationMap</text>
<text text-anchor="middle" x="400" y="-325" font-family="Helvetica,sans-Serif" font-size="10.00">Actor</text>
</a>
</g>
</g>
<!-- Node2&#45;&gt;Node21 -->
<g id="edge20" class="edge">
<title>Node2&#45;&gt;Node21</title>
<path fill="none" stroke="midnightblue" d="M288.17,-319.07C297.2,-320.2 306.58,-321.38 315.9,-322.55"/>
<polygon fill="midnightblue" stroke="midnightblue" points="315.6,-326.04 325.96,-323.82 316.48,-319.1 315.6,-326.04"/>
</g>
<!-- Node8 -->
<g id="node8" class="node">
<title>Node8</title>
<g id="a_node8"><a xlink:href="../../d6/db5/class_scene.html#a0799bb0687ffe3a97e0523a4e700ef2d" target="_top" xlink:title="Return the occupation map visualization.">
<polygon fill="white" stroke="black" points="512.5,-456.5 512.5,-475.5 667.5,-475.5 667.5,-456.5 512.5,-456.5"/>
<text text-anchor="middle" x="590" y="-463.5" font-family="Helvetica,sans-Serif" font-size="10.00">Scene::getOccupationMapActor</text>
</a>
</g>
</g>
<!-- Node7&#45;&gt;Node8 -->
<g id="edge7" class="edge">
<title>Node7&#45;&gt;Node8</title>
<path fill="none" stroke="midnightblue" d="M457.4,-386.57C463.98,-389.03 470.35,-392.12 476,-396 498.87,-411.71 489.09,-431.36 512,-447 514.93,-449 518.05,-450.79 521.3,-452.4"/>
<polygon fill="midnightblue" stroke="midnightblue" points="520.14,-455.71 530.71,-456.43 522.9,-449.27 520.14,-455.71"/>
</g>
<!-- Node13 -->
<g id="node13" class="node">
<title>Node13</title>
<g id="a_node13"><a xlink:href="../../d9/d58/class_touchpoint.html#abc86c4002a67fd423b649d597b2055d5" target="_top" xlink:title="Creates the graphical representation (vtkActor) for a touchpoint geometry.">
<polygon fill="white" stroke="black" points="518,-124 518,-154 662,-154 662,-124 518,-124"/>
<text text-anchor="start" x="526" y="-142" font-family="Helvetica,sans-Serif" font-size="10.00">Touchpoint::createTouchpoint</text>
<text text-anchor="middle" x="590" y="-131" font-family="Helvetica,sans-Serif" font-size="10.00">Actor</text>
</a>
</g>
</g>
<!-- Node12&#45;&gt;Node13 -->
<g id="edge12" class="edge">
<title>Node12&#45;&gt;Node13</title>
<path fill="none" stroke="midnightblue" d="M462.04,-155.21C476.64,-153.34 492.45,-151.33 507.8,-149.37"/>
<polygon fill="midnightblue" stroke="midnightblue" points="508.33,-152.83 517.81,-148.09 507.44,-145.88 508.33,-152.83"/>
</g>
<!-- Node14 -->
<g id="node14" class="node">
<title>Node14</title>
<g id="a_node14"><a xlink:href="../../d9/d58/class_touchpoint.html#aabec59cfa02cddb2dab4420b3c056df0" target="_top" xlink:title="Return color value for a given touchpoint type.">
<polygon fill="white" stroke="black" points="716,-127 716,-157 847,-157 847,-127 716,-127"/>
<text text-anchor="start" x="724" y="-145" font-family="Helvetica,sans-Serif" font-size="10.00">Touchpoint::getTouchpoint</text>
<text text-anchor="middle" x="781.5" y="-134" font-family="Helvetica,sans-Serif" font-size="10.00">ColorFromType</text>
</a>
</g>
</g>
<!-- Node13&#45;&gt;Node14 -->
<g id="edge13" class="edge">
<title>Node13&#45;&gt;Node14</title>
<path fill="none" stroke="midnightblue" d="M662.1,-140.13C676.3,-140.35 691.25,-140.59 705.58,-140.81"/>
<polygon fill="midnightblue" stroke="midnightblue" points="705.82,-144.32 715.87,-140.98 705.93,-137.32 705.82,-144.32"/>
</g>
<!-- Node17 -->
<g id="node17" class="node">
<title>Node17</title>
<g id="a_node17"><a xlink:href="../../d9/d58/class_touchpoint.html#a1b82f162b238396efeae6b9369430a87" target="_top" xlink:title="Mark voxel grid cells occupied / unoccupied by the touchpoint geometry.">
<polygon fill="white" stroke="black" points="520.5,-44 520.5,-74 659.5,-74 659.5,-44 520.5,-44"/>
<text text-anchor="start" x="528.5" y="-62" font-family="Helvetica,sans-Serif" font-size="10.00">Touchpoint::markTouchpoint</text>
<text text-anchor="middle" x="590" y="-51" font-family="Helvetica,sans-Serif" font-size="10.00">Cells</text>
</a>
</g>
</g>
<!-- Node16&#45;&gt;Node17 -->
<g id="edge16" class="edge">
<title>Node16&#45;&gt;Node17</title>
<path fill="none" stroke="midnightblue" d="M476.11,-70.41C487.31,-69.28 498.88,-68.11 510.15,-66.97"/>
<polygon fill="midnightblue" stroke="midnightblue" points="510.8,-70.42 520.4,-65.93 510.1,-63.46 510.8,-70.42"/>
</g>
<!-- Node18 -->
<g id="node18" class="node">
<title>Node18</title>
<g id="a_node18"><a xlink:href="../../d1/d7c/namespace_utils.html#ac9b063fc04e0a4e5501c8ed0af96ac47" target="_top" xlink:title="Clamp integer value between min and max.">
<polygon fill="white" stroke="black" points="741.5,-88.5 741.5,-107.5 821.5,-107.5 821.5,-88.5 741.5,-88.5"/>
<text text-anchor="middle" x="781.5" y="-95.5" font-family="Helvetica,sans-Serif" font-size="10.00">Utils::clampInt</text>
</a>
</g>
</g>
<!-- Node17&#45;&gt;Node18 -->
<g id="edge17" class="edge">
<title>Node17&#45;&gt;Node18</title>
<path fill="none" stroke="midnightblue" d="M659.68,-73.14C683.36,-78.01 709.4,-83.37 731.22,-87.86"/>
<polygon fill="midnightblue" stroke="midnightblue" points="730.75,-91.33 741.25,-89.92 732.16,-84.48 730.75,-91.33"/>
</g>
<!-- Node19 -->
<g id="node19" class="node">
<title>Node19</title>
<g id="a_node19"><a xlink:href="../../d9/d58/class_touchpoint.html#a465057d2b000f7fc374d594fb8b80ce6" target="_top" xlink:title="Return the bounds of the touchpoint in world coordinates.">
<polygon fill="white" stroke="black" points="704,-39 704,-69 859,-69 859,-39 704,-39"/>
<text text-anchor="start" x="712" y="-57" font-family="Helvetica,sans-Serif" font-size="10.00">Touchpoint::getWorldCoordinate</text>
<text text-anchor="middle" x="781.5" y="-46" font-family="Helvetica,sans-Serif" font-size="10.00">Bounds</text>
</a>
</g>
</g>
<!-- Node17&#45;&gt;Node19 -->
<g id="edge18" class="edge">
<title>Node17&#45;&gt;Node19</title>
<path fill="none" stroke="midnightblue" d="M659.68,-57.19C670.63,-56.9 682.08,-56.6 693.39,-56.3"/>
<polygon fill="midnightblue" stroke="midnightblue" points="693.81,-59.79 703.71,-56.03 693.62,-52.79 693.81,-59.79"/>
</g>
<!-- Node20 -->
<g id="node20" class="node">
<title>Node20</title>
<g id="a_node20"><a xlink:href="../../d1/d7c/namespace_utils.html#a606fb1eb5072ca20f56293fa71bd8578" target="_top" xlink:title="Compute 1D linearized index from 3D&#45;coodinate index.">
<polygon fill="white" stroke="black" points="753.5,-0.5 753.5,-19.5 809.5,-19.5 809.5,-0.5 753.5,-0.5"/>
<text text-anchor="middle" x="781.5" y="-7.5" font-family="Helvetica,sans-Serif" font-size="10.00">Utils::idx</text>
</a>
</g>
</g>
<!-- Node17&#45;&gt;Node20 -->
<g id="edge19" class="edge">
<title>Node17&#45;&gt;Node20</title>
<path fill="none" stroke="midnightblue" d="M646.99,-43.94C665.16,-39.11 685.42,-33.77 704,-29 716.74,-25.73 730.69,-22.24 743.15,-19.15"/>
<polygon fill="midnightblue" stroke="midnightblue" points="744.34,-22.46 753.21,-16.66 742.66,-15.66 744.34,-22.46"/>
</g>
<!-- Node21&#45;&gt;Node8 -->
<g id="edge24" class="edge">
<title>Node21&#45;&gt;Node8</title>
<path fill="none" stroke="midnightblue" d="M462.17,-348.13C467.19,-350.89 471.9,-354.15 476,-358 507.1,-387.21 479.76,-419.05 512,-447 513.96,-448.7 516.04,-450.25 518.23,-451.66"/>
<polygon fill="midnightblue" stroke="midnightblue" points="516.62,-454.77 527.08,-456.48 519.97,-448.63 516.62,-454.77"/>
</g>
<!-- Node22 -->
<g id="node22" class="node">
<title>Node22</title>
<g id="a_node22"><a xlink:href="../../d6/db5/class_scene.html#aa52192763d5339a0e7803abe296220c9" target="_top" xlink:title="Return the cuberille visualization of the voxel grid data.">
<polygon fill="white" stroke="black" points="527.5,-418.5 527.5,-437.5 652.5,-437.5 652.5,-418.5 527.5,-418.5"/>
<text text-anchor="middle" x="590" y="-425.5" font-family="Helvetica,sans-Serif" font-size="10.00">Scene::getCuberilleActor</text>
</a>
</g>
</g>
<!-- Node21&#45;&gt;Node22 -->
<g id="edge21" class="edge">
<title>Node21&#45;&gt;Node22</title>
<path fill="none" stroke="midnightblue" d="M458.99,-348.09C465.02,-350.88 470.82,-354.15 476,-358 498.27,-374.55 489.09,-393.36 512,-409 514.93,-411 518.05,-412.79 521.3,-414.4"/>
<polygon fill="midnightblue" stroke="midnightblue" points="520.14,-417.71 530.71,-418.43 522.9,-411.27 520.14,-417.71"/>
</g>
<!-- Node23 -->
<g id="node23" class="node">
<title>Node23</title>
<g id="a_node23"><a xlink:href="../../d6/db5/class_scene.html#a7009d25646e9f3a07482091ed2d62e52" target="_top" xlink:title="Return the inner and outer voxels visualization of the voxel grid data.">
<polygon fill="white" stroke="black" points="512,-369 512,-399 668,-399 668,-369 512,-369"/>
<text text-anchor="start" x="520" y="-387" font-family="Helvetica,sans-Serif" font-size="10.00">Scene::getInnerAndOuterVoxels</text>
<text text-anchor="middle" x="590" y="-376" font-family="Helvetica,sans-Serif" font-size="10.00">Actor</text>
</a>
</g>
</g>
<!-- Node21&#45;&gt;Node23 -->
<g id="edge22" class="edge">
<title>Node21&#45;&gt;Node23</title>
<path fill="none" stroke="midnightblue" d="M456.39,-348.03C477.52,-353.76 501.81,-360.35 523.77,-366.31"/>
<polygon fill="midnightblue" stroke="midnightblue" points="523.11,-369.75 533.68,-368.99 524.95,-363 523.11,-369.75"/>
</g>
<!-- Node24 -->
<g id="node24" class="node">
<title>Node24</title>
<g id="a_node24"><a xlink:href="../../d6/db5/class_scene.html#a04c9e871c5edc15ca00d736a9cb6c0d0" target="_top" xlink:title="Return the interior voxels only visualization of the voxel grid data.">
<polygon fill="white" stroke="black" points="528.5,-320 528.5,-350 651.5,-350 651.5,-320 528.5,-320"/>
<text text-anchor="start" x="536.5" y="-338" font-family="Helvetica,sans-Serif" font-size="10.00">Scene::getInteriorVoxels</text>
<text text-anchor="middle" x="590" y="-327" font-family="Helvetica,sans-Serif" font-size="10.00">Actor</text>
</a>
</g>
</g>
<!-- Node21&#45;&gt;Node24 -->
<g id="edge23" class="edge">
<title>Node21&#45;&gt;Node24</title>
<path fill="none" stroke="midnightblue" d="M474.22,-333.78C488.66,-333.93 503.78,-334.09 518.14,-334.25"/>
<polygon fill="midnightblue" stroke="midnightblue" points="518.4,-337.75 528.44,-334.36 518.47,-330.75 518.4,-337.75"/>
</g>
<!-- Node25 -->
<g id="node25" class="node">
<title>Node25</title>
<g id="a_node25"><a xlink:href="../../db/dae/class_voxel_image_visualizer.html#a00b60f629dcc3335bff26934e88b9bcb" target="_top" xlink:title="Return the occupation map visualization (unoccupied = yellow, occupied = blue)">
<polygon fill="white" stroke="black" points="532.5,-271 532.5,-301 647.5,-301 647.5,-271 532.5,-271"/>
<text text-anchor="start" x="540.5" y="-289" font-family="Helvetica,sans-Serif" font-size="10.00">VoxelImageVisualizer</text>
<text text-anchor="middle" x="590" y="-278" font-family="Helvetica,sans-Serif" font-size="10.00">::getOccupationOutput</text>
</a>
</g>
</g>
<!-- Node21&#45;&gt;Node25 -->
<g id="edge25" class="edge">
<title>Node21&#45;&gt;Node25</title>
<path fill="none" stroke="midnightblue" d="M461,-318C480.67,-313.08 502.64,-307.59 522.74,-302.56"/>
<polygon fill="midnightblue" stroke="midnightblue" points="523.59,-305.96 532.45,-300.14 521.9,-299.17 523.59,-305.96"/>
</g>
<!-- Node28 -->
<g id="node28" class="node">
<title>Node28</title>
<g id="a_node28"><a xlink:href="../../db/dae/class_voxel_image_visualizer.html#a15634f5a62fd0d71806741d1db033243" target="_top" xlink:title="Set input data of the visualizer.">
<polygon fill="white" stroke="black" points="535,-222 535,-252 645,-252 645,-222 535,-222"/>
<text text-anchor="start" x="543" y="-240" font-family="Helvetica,sans-Serif" font-size="10.00">VoxelImageVisualizer</text>
<text text-anchor="middle" x="590" y="-229" font-family="Helvetica,sans-Serif" font-size="10.00">::setInputData</text>
</a>
</g>
</g>
<!-- Node21&#45;&gt;Node28 -->
<g id="edge28" class="edge">
<title>Node21&#45;&gt;Node28</title>
<path fill="none" stroke="midnightblue" d="M458.03,-318C464.36,-315.18 470.5,-311.88 476,-308 497.22,-293.04 490.73,-276.88 512,-262 516.21,-259.05 520.79,-256.44 525.55,-254.12"/>
<polygon fill="midnightblue" stroke="midnightblue" points="527.12,-257.26 534.86,-250.02 524.3,-250.85 527.12,-257.26"/>
</g>
<!-- Node29 -->
<g id="node29" class="node">
<title>Node29</title>
<g id="a_node29"><a xlink:href="../../db/dae/class_voxel_image_visualizer.html#a65eec474a368555a6ba16c1f54e956db" target="_top" xlink:title="Set output size of the visualization.">
<polygon fill="white" stroke="black" points="535,-173 535,-203 645,-203 645,-173 535,-173"/>
<text text-anchor="start" x="543" y="-191" font-family="Helvetica,sans-Serif" font-size="10.00">VoxelImageVisualizer</text>
<text text-anchor="middle" x="590" y="-180" font-family="Helvetica,sans-Serif" font-size="10.00">::setOutputSize</text>
</a>
</g>
</g>
<!-- Node21&#45;&gt;Node29 -->
<g id="edge29" class="edge">
<title>Node21&#45;&gt;Node29</title>
<path fill="none" stroke="midnightblue" d="M462.26,-317.97C467.26,-315.19 471.94,-311.9 476,-308 508.57,-276.73 479.31,-244.15 512,-213 516.01,-209.18 520.6,-205.95 525.51,-203.21"/>
<polygon fill="midnightblue" stroke="midnightblue" points="527.15,-206.3 534.63,-198.79 524.1,-200 527.15,-206.3"/>
</g>
<!-- Node26 -->
<g id="node26" class="node">
<title>Node26</title>
<g id="a_node26"><a xlink:href="../../db/dae/class_voxel_image_visualizer.html#a381e70e9dba0cad1fddf946aa7f4a408" target="_top" xlink:title="Compute scaling factor for visualization actor.">
<polygon fill="white" stroke="black" points="726.5,-293 726.5,-323 836.5,-323 836.5,-293 726.5,-293"/>
<text text-anchor="start" x="734.5" y="-311" font-family="Helvetica,sans-Serif" font-size="10.00">VoxelImageVisualizer</text>
<text text-anchor="middle" x="781.5" y="-300" font-family="Helvetica,sans-Serif" font-size="10.00">::getScaleValue</text>
</a>
</g>
</g>
<!-- Node25&#45;&gt;Node26 -->
<g id="edge26" class="edge">
<title>Node25&#45;&gt;Node26</title>
<path fill="none" stroke="midnightblue" d="M647.6,-292.57C669.26,-295.09 694.11,-297.97 716.42,-300.56"/>
<polygon fill="midnightblue" stroke="midnightblue" points="716.13,-304.05 726.47,-301.73 716.94,-297.1 716.13,-304.05"/>
</g>
<!-- Node27 -->
<g id="node27" class="node">
<title>Node27</title>
<g id="a_node27"><a xlink:href="../../db/dae/class_voxel_image_visualizer.html#a2cf2e268d83ea28ea097a557b4e66fcd" target="_top" xlink:title="Compute 1D linearized index from 3D&#45;coodinate index.">
<polygon fill="white" stroke="black" points="717,-254.5 717,-273.5 846,-273.5 846,-254.5 717,-254.5"/>
<text text-anchor="middle" x="781.5" y="-261.5" font-family="Helvetica,sans-Serif" font-size="10.00">VoxelImageVisualizer::idx</text>
</a>
</g>
</g>
<!-- Node25&#45;&gt;Node27 -->
<g id="edge27" class="edge">
<title>Node25&#45;&gt;Node27</title>
<path fill="none" stroke="midnightblue" d="M647.6,-279.43C666.17,-277.27 687.1,-274.84 706.75,-272.56"/>
<polygon fill="midnightblue" stroke="midnightblue" points="707.36,-276.01 716.89,-271.38 706.56,-269.06 707.36,-276.01"/>
</g>
</g>
</svg>
