<?xml version="1.0" encoding="UTF-8" standalone="no"?>
<!DOCTYPE svg PUBLIC "-//W3C//DTD SVG 1.1//EN"
 "http://www.w3.org/Graphics/SVG/1.1/DTD/svg11.dtd">
<!-- Generated by graphviz version 2.44.1 (0)
 -->
<!-- Title: basics.h Pages: 1 -->
<svg width="998pt" height="420pt"
 viewBox="0.00 0.00 997.50 420.00" xmlns="http://www.w3.org/2000/svg" xmlns:xlink="http://www.w3.org/1999/xlink">
<g id="graph0" class="graph" transform="scale(1 1) rotate(0) translate(4 416)">
<title>basics.h</title>
<polygon fill="white" stroke="transparent" points="-4,4 -4,-416 993.5,-416 993.5,4 -4,4"/>
<!-- Node1 -->
<g id="node1" class="node">
<title>Node1</title>
<g id="a_node1"><a xlink:title=" ">
<polygon fill="#bfbfbf" stroke="black" points="746,-392.5 746,-411.5 799,-411.5 799,-392.5 746,-392.5"/>
<text text-anchor="middle" x="772.5" y="-399.5" font-family="Helvetica,sans-Serif" font-size="10.00">basics.h</text>
</a>
</g>
</g>
<!-- Node2 -->
<g id="node2" class="node">
<title>Node2</title>
<g id="a_node2"><a xlink:href="../../d6/df3/graph_8h.html" target="_top" xlink:title=" ">
<polygon fill="white" stroke="black" points="552,-336.5 552,-355.5 601,-355.5 601,-336.5 552,-336.5"/>
<text text-anchor="middle" x="576.5" y="-343.5" font-family="Helvetica,sans-Serif" font-size="10.00">graph.h</text>
</a>
</g>
</g>
<!-- Node1&#45;&gt;Node2 -->
<g id="edge1" class="edge">
<title>Node1&#45;&gt;Node2</title>
<path fill="none" stroke="midnightblue" d="M735.92,-390.92C696.59,-380.09 635.14,-363.16 601.17,-353.8"/>
<polygon fill="midnightblue" stroke="midnightblue" points="735.09,-394.32 745.66,-393.6 736.95,-387.57 735.09,-394.32"/>
</g>
<!-- Node4 -->
<g id="node4" class="node">
<title>Node4</title>
<g id="a_node4"><a xlink:href="../../da/ddb/heap_8h.html" target="_top" xlink:title=" ">
<polygon fill="white" stroke="black" points="642.5,-336.5 642.5,-355.5 688.5,-355.5 688.5,-336.5 642.5,-336.5"/>
<text text-anchor="middle" x="665.5" y="-343.5" font-family="Helvetica,sans-Serif" font-size="10.00">heap.h</text>
</a>
</g>
</g>
<!-- Node1&#45;&gt;Node4 -->
<g id="edge3" class="edge">
<title>Node1&#45;&gt;Node4</title>
<path fill="none" stroke="midnightblue" d="M746.2,-387.73C726.39,-377.73 699.79,-364.31 682.65,-355.65"/>
<polygon fill="midnightblue" stroke="midnightblue" points="744.8,-390.94 755.31,-392.32 747.96,-384.69 744.8,-390.94"/>
</g>
<!-- Node6 -->
<g id="node6" class="node">
<title>Node6</title>
<g id="a_node6"><a xlink:href="../../d2/d91/point_8h.html" target="_top" xlink:title=" ">
<polygon fill="white" stroke="black" points="766.5,-336.5 766.5,-355.5 812.5,-355.5 812.5,-336.5 766.5,-336.5"/>
<text text-anchor="middle" x="789.5" y="-343.5" font-family="Helvetica,sans-Serif" font-size="10.00">point.h</text>
</a>
</g>
</g>
<!-- Node1&#45;&gt;Node6 -->
<g id="edge5" class="edge">
<title>Node1&#45;&gt;Node6</title>
<path fill="none" stroke="midnightblue" d="M778.36,-382.4C781.2,-373.36 784.48,-362.94 786.75,-355.75"/>
<polygon fill="midnightblue" stroke="midnightblue" points="774.97,-381.49 775.31,-392.08 781.65,-383.6 774.97,-381.49"/>
</g>
<!-- Node7 -->
<g id="node7" class="node">
<title>Node7</title>
<g id="a_node7"><a xlink:href="../../d9/dad/tmesh__kernel_8h.html" target="_top" xlink:title=" ">
<polygon fill="white" stroke="black" points="678,-280.5 678,-299.5 761,-299.5 761,-280.5 678,-280.5"/>
<text text-anchor="middle" x="719.5" y="-287.5" font-family="Helvetica,sans-Serif" font-size="10.00">tmesh_kernel.h</text>
</a>
</g>
</g>
<!-- Node1&#45;&gt;Node7 -->
<g id="edge42" class="edge">
<title>Node1&#45;&gt;Node7</title>
<path fill="none" stroke="midnightblue" d="M763.98,-383.32C752.44,-359.37 732.29,-317.55 723.64,-299.59"/>
<polygon fill="midnightblue" stroke="midnightblue" points="760.85,-384.88 768.34,-392.37 767.15,-381.84 760.85,-384.88"/>
</g>
<!-- Node31 -->
<g id="node31" class="node">
<title>Node31</title>
<g id="a_node31"><a xlink:href="../../df/d37/vertex_8h.html" target="_top" xlink:title=" ">
<polygon fill="white" stroke="black" points="853.5,-280.5 853.5,-299.5 905.5,-299.5 905.5,-280.5 853.5,-280.5"/>
<text text-anchor="middle" x="879.5" y="-287.5" font-family="Helvetica,sans-Serif" font-size="10.00">vertex.h</text>
</a>
</g>
</g>
<!-- Node1&#45;&gt;Node31 -->
<g id="edge44" class="edge">
<title>Node1&#45;&gt;Node31</title>
<path fill="none" stroke="midnightblue" d="M790.19,-385.53C799.68,-377.03 811.47,-366.18 821.5,-356 840.61,-336.61 861.52,-312.35 872.25,-299.66"/>
<polygon fill="midnightblue" stroke="midnightblue" points="787.69,-383.06 782.53,-392.31 792.34,-388.3 787.69,-383.06"/>
</g>
<!-- Node32 -->
<g id="node32" class="node">
<title>Node32</title>
<g id="a_node32"><a xlink:href="../../db/dc3/edge_8h.html" target="_top" xlink:title=" ">
<polygon fill="white" stroke="black" points="910.5,-224.5 910.5,-243.5 956.5,-243.5 956.5,-224.5 910.5,-224.5"/>
<text text-anchor="middle" x="933.5" y="-231.5" font-family="Helvetica,sans-Serif" font-size="10.00">edge.h</text>
</a>
</g>
</g>
<!-- Node1&#45;&gt;Node32 -->
<g id="edge43" class="edge">
<title>Node1&#45;&gt;Node32</title>
<path fill="none" stroke="midnightblue" d="M801.91,-388.13C834.62,-372.24 886.53,-342.08 914.5,-300 926.35,-282.18 930.95,-256.85 932.62,-243.69"/>
<polygon fill="midnightblue" stroke="midnightblue" points="800.37,-384.98 792.82,-392.41 803.36,-391.31 800.37,-384.98"/>
</g>
<!-- Node3 -->
<g id="node3" class="node">
<title>Node3</title>
<g id="a_node3"><a xlink:href="../../d7/d75/graph_8cpp.html" target="_top" xlink:title=" ">
<polygon fill="white" stroke="black" points="526,-280.5 526,-299.5 585,-299.5 585,-280.5 526,-280.5"/>
<text text-anchor="middle" x="555.5" y="-287.5" font-family="Helvetica,sans-Serif" font-size="10.00">graph.cpp</text>
</a>
</g>
</g>
<!-- Node2&#45;&gt;Node3 -->
<g id="edge2" class="edge">
<title>Node2&#45;&gt;Node3</title>
<path fill="none" stroke="midnightblue" d="M569.38,-326.69C565.84,-317.59 561.73,-307.01 558.9,-299.75"/>
<polygon fill="midnightblue" stroke="midnightblue" points="566.15,-328.03 573.03,-336.08 572.67,-325.49 566.15,-328.03"/>
</g>
<!-- Node5 -->
<g id="node5" class="node">
<title>Node5</title>
<g id="a_node5"><a xlink:href="../../de/d90/heap_8cpp.html" target="_top" xlink:title=" ">
<polygon fill="white" stroke="black" points="603.5,-280.5 603.5,-299.5 659.5,-299.5 659.5,-280.5 603.5,-280.5"/>
<text text-anchor="middle" x="631.5" y="-287.5" font-family="Helvetica,sans-Serif" font-size="10.00">heap.cpp</text>
</a>
</g>
</g>
<!-- Node4&#45;&gt;Node5 -->
<g id="edge4" class="edge">
<title>Node4&#45;&gt;Node5</title>
<path fill="none" stroke="midnightblue" d="M654.52,-327.57C648.67,-318.27 641.73,-307.25 637.01,-299.75"/>
<polygon fill="midnightblue" stroke="midnightblue" points="651.6,-329.49 659.89,-336.08 657.52,-325.76 651.6,-329.49"/>
</g>
<!-- Node6&#45;&gt;Node7 -->
<g id="edge6" class="edge">
<title>Node6&#45;&gt;Node7</title>
<path fill="none" stroke="midnightblue" d="M770.19,-330.1C757.59,-320.38 741.57,-308.03 730.95,-299.83"/>
<polygon fill="midnightblue" stroke="midnightblue" points="768.2,-332.99 778.25,-336.32 772.47,-327.44 768.2,-332.99"/>
</g>
<!-- Node6&#45;&gt;Node31 -->
<g id="edge34" class="edge">
<title>Node6&#45;&gt;Node31</title>
<path fill="none" stroke="midnightblue" d="M812.54,-331.18C829.1,-321.24 850.92,-308.15 865.08,-299.65"/>
<polygon fill="midnightblue" stroke="midnightblue" points="810.73,-328.18 803.96,-336.32 814.34,-334.18 810.73,-328.18"/>
</g>
<!-- Node33 -->
<g id="node33" class="node">
<title>Node33</title>
<g id="a_node33"><a xlink:href="../../d5/d55/point_8cpp.html" target="_top" xlink:title=" ">
<polygon fill="white" stroke="black" points="779.5,-280.5 779.5,-299.5 835.5,-299.5 835.5,-280.5 779.5,-280.5"/>
<text text-anchor="middle" x="807.5" y="-287.5" font-family="Helvetica,sans-Serif" font-size="10.00">point.cpp</text>
</a>
</g>
</g>
<!-- Node6&#45;&gt;Node33 -->
<g id="edge41" class="edge">
<title>Node6&#45;&gt;Node33</title>
<path fill="none" stroke="midnightblue" d="M795.7,-326.4C798.71,-317.36 802.19,-306.94 804.58,-299.75"/>
<polygon fill="midnightblue" stroke="midnightblue" points="792.31,-325.49 792.47,-336.08 798.96,-327.7 792.31,-325.49"/>
</g>
<!-- Node8 -->
<g id="node8" class="node">
<title>Node8</title>
<g id="a_node8"><a xlink:href="../../d3/d0f/tmesh_8h.html" target="_top" xlink:title=" ">
<polygon fill="white" stroke="black" points="540.5,-168.5 540.5,-187.5 592.5,-187.5 592.5,-168.5 540.5,-168.5"/>
<text text-anchor="middle" x="566.5" y="-175.5" font-family="Helvetica,sans-Serif" font-size="10.00">tmesh.h</text>
</a>
</g>
</g>
<!-- Node7&#45;&gt;Node8 -->
<g id="edge7" class="edge">
<title>Node7&#45;&gt;Node8</title>
<path fill="none" stroke="midnightblue" d="M718.55,-269.92C716.85,-255.56 712.33,-236.31 700.5,-224 671.85,-194.19 622.86,-184.12 592.72,-180.73"/>
<polygon fill="midnightblue" stroke="midnightblue" points="715.09,-270.49 719.39,-280.17 722.06,-269.92 715.09,-270.49"/>
</g>
<!-- Node30 -->
<g id="node30" class="node">
<title>Node30</title>
<g id="a_node30"><a xlink:href="../../da/dee/tmesh_8cpp.html" target="_top" xlink:title=" ">
<polygon fill="white" stroke="black" points="629.5,-224.5 629.5,-243.5 691.5,-243.5 691.5,-224.5 629.5,-224.5"/>
<text text-anchor="middle" x="660.5" y="-231.5" font-family="Helvetica,sans-Serif" font-size="10.00">tmesh.cpp</text>
</a>
</g>
</g>
<!-- Node7&#45;&gt;Node30 -->
<g id="edge33" class="edge">
<title>Node7&#45;&gt;Node30</title>
<path fill="none" stroke="midnightblue" d="M702.61,-273.54C692.09,-263.91 678.93,-251.87 670.15,-243.83"/>
<polygon fill="midnightblue" stroke="midnightblue" points="700.28,-276.15 710.02,-280.32 705.01,-270.99 700.28,-276.15"/>
</g>
<!-- Node9 -->
<g id="node9" class="node">
<title>Node9</title>
<g id="a_node9"><a xlink:href="../../d9/d53/mainwindow_8h.html" target="_top" xlink:title="Qt MainWindow of the application.">
<polygon fill="white" stroke="black" points="107.5,-56.5 107.5,-75.5 185.5,-75.5 185.5,-56.5 107.5,-56.5"/>
<text text-anchor="middle" x="146.5" y="-63.5" font-family="Helvetica,sans-Serif" font-size="10.00">mainwindow.h</text>
</a>
</g>
</g>
<!-- Node8&#45;&gt;Node9 -->
<g id="edge8" class="edge">
<title>Node8&#45;&gt;Node9</title>
<path fill="none" stroke="midnightblue" d="M530.05,-176.46C470.47,-174.55 349.29,-166.35 253.5,-132 233.76,-124.92 182.97,-91.57 159.16,-75.59"/>
<polygon fill="midnightblue" stroke="midnightblue" points="530,-179.96 540.09,-176.74 530.19,-172.96 530,-179.96"/>
</g>
<!-- Node12 -->
<g id="node12" class="node">
<title>Node12</title>
<g id="a_node12"><a xlink:href="../../d3/d1d/march_intersections_8h.html" target="_top" xlink:title=" ">
<polygon fill="white" stroke="black" points="390.5,-112.5 390.5,-131.5 498.5,-131.5 498.5,-112.5 390.5,-112.5"/>
<text text-anchor="middle" x="444.5" y="-119.5" font-family="Helvetica,sans-Serif" font-size="10.00">marchIntersections.h</text>
</a>
</g>
</g>
<!-- Node8&#45;&gt;Node12 -->
<g id="edge11" class="edge">
<title>Node8&#45;&gt;Node12</title>
<path fill="none" stroke="midnightblue" d="M537.96,-164.37C515.11,-154.26 483.69,-140.35 463.74,-131.52"/>
<polygon fill="midnightblue" stroke="midnightblue" points="536.61,-167.6 547.17,-168.44 539.44,-161.2 536.61,-167.6"/>
</g>
<!-- Node14 -->
<g id="node14" class="node">
<title>Node14</title>
<g id="a_node14"><a xlink:href="../../d5/dc3/tin_8h.html" target="_top" xlink:title=" ">
<polygon fill="white" stroke="black" points="517,-112.5 517,-131.5 552,-131.5 552,-112.5 517,-112.5"/>
<text text-anchor="middle" x="534.5" y="-119.5" font-family="Helvetica,sans-Serif" font-size="10.00">tin.h</text>
</a>
</g>
</g>
<!-- Node8&#45;&gt;Node14 -->
<g id="edge13" class="edge">
<title>Node8&#45;&gt;Node14</title>
<path fill="none" stroke="midnightblue" d="M550.01,-159.86C543.64,-150.5 537.42,-139.33 534.55,-131.75"/>
<polygon fill="midnightblue" stroke="midnightblue" points="547.31,-162.09 556.05,-168.08 552.95,-157.95 547.31,-162.09"/>
</g>
<!-- Node19 -->
<g id="node19" class="node">
<title>Node19</title>
<g id="a_node19"><a xlink:href="../../dd/d6a/triangle_8h.html" target="_top" xlink:title=" ">
<polygon fill="white" stroke="black" points="570.5,-112.5 570.5,-131.5 626.5,-131.5 626.5,-112.5 570.5,-112.5"/>
<text text-anchor="middle" x="598.5" y="-119.5" font-family="Helvetica,sans-Serif" font-size="10.00">triangle.h</text>
</a>
</g>
</g>
<!-- Node8&#45;&gt;Node19 -->
<g id="edge19" class="edge">
<title>Node8&#45;&gt;Node19</title>
<path fill="none" stroke="midnightblue" d="M570.77,-158.98C575.48,-149.82 582.26,-139.09 588.18,-131.75"/>
<polygon fill="midnightblue" stroke="midnightblue" points="567.59,-157.53 566.62,-168.08 573.95,-160.44 567.59,-157.53"/>
</g>
<!-- Node23 -->
<g id="node23" class="node">
<title>Node23</title>
<g id="a_node23"><a xlink:href="../../df/d36/check_and_repair_8cpp.html" target="_top" xlink:title=" ">
<polygon fill="white" stroke="black" points="645,-112.5 645,-131.5 752,-131.5 752,-112.5 645,-112.5"/>
<text text-anchor="middle" x="698.5" y="-119.5" font-family="Helvetica,sans-Serif" font-size="10.00">checkAndRepair.cpp</text>
</a>
</g>
</g>
<!-- Node8&#45;&gt;Node23 -->
<g id="edge24" class="edge">
<title>Node8&#45;&gt;Node23</title>
<path fill="none" stroke="midnightblue" d="M596.72,-164.64C621.49,-154.5 655.9,-140.43 677.68,-131.52"/>
<polygon fill="midnightblue" stroke="midnightblue" points="595.35,-161.42 587.42,-168.44 598,-167.9 595.35,-161.42"/>
</g>
<!-- Node24 -->
<g id="node24" class="node">
<title>Node24</title>
<g id="a_node24"><a xlink:href="../../d1/d69/subdivision_8cpp.html" target="_top" xlink:title=" ">
<polygon fill="white" stroke="black" points="770.5,-112.5 770.5,-131.5 854.5,-131.5 854.5,-112.5 770.5,-112.5"/>
<text text-anchor="middle" x="812.5" y="-119.5" font-family="Helvetica,sans-Serif" font-size="10.00">subdivision.cpp</text>
</a>
</g>
</g>
<!-- Node8&#45;&gt;Node24 -->
<g id="edge25" class="edge">
<title>Node8&#45;&gt;Node24</title>
<path fill="none" stroke="midnightblue" d="M602.88,-169.01C648.55,-158.99 726.58,-141.86 773.47,-131.57"/>
<polygon fill="midnightblue" stroke="midnightblue" points="601.84,-165.66 592.83,-171.22 603.34,-172.5 601.84,-165.66"/>
</g>
<!-- Node25 -->
<g id="node25" class="node">
<title>Node25</title>
<g id="a_node25"><a xlink:href="../../d5/d5a/io_8cpp.html" target="_top" xlink:title=" ">
<polygon fill="white" stroke="black" points="163,-112.5 163,-131.5 206,-131.5 206,-112.5 163,-112.5"/>
<text text-anchor="middle" x="184.5" y="-119.5" font-family="Helvetica,sans-Serif" font-size="10.00">io.cpp</text>
</a>
</g>
</g>
<!-- Node8&#45;&gt;Node25 -->
<g id="edge26" class="edge">
<title>Node8&#45;&gt;Node25</title>
<path fill="none" stroke="midnightblue" d="M530.03,-173.66C466.71,-167.54 332.46,-153.2 220.5,-132 215.82,-131.11 210.83,-129.99 206.11,-128.83"/>
<polygon fill="midnightblue" stroke="midnightblue" points="530.01,-177.17 540.29,-174.64 530.67,-170.2 530.01,-177.17"/>
</g>
<!-- Node26 -->
<g id="node26" class="node">
<title>Node26</title>
<g id="a_node26"><a xlink:href="../../db/d45/exportopenscadtool_8h.html" target="_top" xlink:title="Tool for exporting a wired mesh to the openscad format.">
<polygon fill="white" stroke="black" points="262.5,-112.5 262.5,-131.5 372.5,-131.5 372.5,-112.5 262.5,-112.5"/>
<text text-anchor="middle" x="317.5" y="-119.5" font-family="Helvetica,sans-Serif" font-size="10.00">exportopenscadtool.h</text>
</a>
</g>
</g>
<!-- Node8&#45;&gt;Node26 -->
<g id="edge27" class="edge">
<title>Node8&#45;&gt;Node26</title>
<path fill="none" stroke="midnightblue" d="M530.45,-169.18C484.24,-159.16 404.43,-141.85 356.74,-131.51"/>
<polygon fill="midnightblue" stroke="midnightblue" points="529.81,-172.62 540.32,-171.32 531.29,-165.78 529.81,-172.62"/>
</g>
<!-- Node28 -->
<g id="node28" class="node">
<title>Node28</title>
<g id="a_node28"><a xlink:href="../../db/dcb/exportstltool_8h.html" target="_top" xlink:title="Tool for exporting a wired mesh to the stl file format.">
<polygon fill="white" stroke="black" points="66.5,-112.5 66.5,-131.5 144.5,-131.5 144.5,-112.5 66.5,-112.5"/>
<text text-anchor="middle" x="105.5" y="-119.5" font-family="Helvetica,sans-Serif" font-size="10.00">exportstltool.h</text>
</a>
</g>
</g>
<!-- Node8&#45;&gt;Node28 -->
<g id="edge30" class="edge">
<title>Node8&#45;&gt;Node28</title>
<path fill="none" stroke="midnightblue" d="M529.96,-173.97C457.79,-167.77 291.94,-152.49 153.5,-132 150.65,-131.58 147.71,-131.11 144.75,-130.61"/>
<polygon fill="midnightblue" stroke="midnightblue" points="530.06,-177.49 540.32,-174.85 530.65,-170.51 530.06,-177.49"/>
</g>
<!-- Node10 -->
<g id="node10" class="node">
<title>Node10</title>
<g id="a_node10"><a xlink:href="../../d8/dd9/mainwindow_8cpp.html" target="_top" xlink:title=" ">
<polygon fill="white" stroke="black" points="57,-0.5 57,-19.5 146,-19.5 146,-0.5 57,-0.5"/>
<text text-anchor="middle" x="101.5" y="-7.5" font-family="Helvetica,sans-Serif" font-size="10.00">mainwindow.cpp</text>
</a>
</g>
</g>
<!-- Node9&#45;&gt;Node10 -->
<g id="edge9" class="edge">
<title>Node9&#45;&gt;Node10</title>
<path fill="none" stroke="midnightblue" d="M132.45,-48.14C124.61,-38.74 115.17,-27.4 108.79,-19.75"/>
<polygon fill="midnightblue" stroke="midnightblue" points="129.98,-50.64 139.07,-56.08 135.36,-46.16 129.98,-50.64"/>
</g>
<!-- Node11 -->
<g id="node11" class="node">
<title>Node11</title>
<g id="a_node11"><a xlink:href="../../df/d0a/main_8cpp.html" target="_top" xlink:title=" ">
<polygon fill="white" stroke="black" points="163.5,-0.5 163.5,-19.5 219.5,-19.5 219.5,-0.5 163.5,-0.5"/>
<text text-anchor="middle" x="191.5" y="-7.5" font-family="Helvetica,sans-Serif" font-size="10.00">main.cpp</text>
</a>
</g>
</g>
<!-- Node9&#45;&gt;Node11 -->
<g id="edge10" class="edge">
<title>Node9&#45;&gt;Node11</title>
<path fill="none" stroke="midnightblue" d="M160.55,-48.14C168.39,-38.74 177.83,-27.4 184.21,-19.75"/>
<polygon fill="midnightblue" stroke="midnightblue" points="157.64,-46.16 153.93,-56.08 163.02,-50.64 157.64,-46.16"/>
</g>
<!-- Node13 -->
<g id="node13" class="node">
<title>Node13</title>
<g id="a_node13"><a xlink:href="../../d0/d89/march_intersections_8cpp.html" target="_top" xlink:title=" ">
<polygon fill="white" stroke="black" points="342,-56.5 342,-75.5 461,-75.5 461,-56.5 342,-56.5"/>
<text text-anchor="middle" x="401.5" y="-63.5" font-family="Helvetica,sans-Serif" font-size="10.00">marchIntersections.cpp</text>
</a>
</g>
</g>
<!-- Node12&#45;&gt;Node13 -->
<g id="edge12" class="edge">
<title>Node12&#45;&gt;Node13</title>
<path fill="none" stroke="midnightblue" d="M431.08,-104.14C423.59,-94.74 414.56,-83.4 408.47,-75.75"/>
<polygon fill="midnightblue" stroke="midnightblue" points="428.43,-106.44 437.4,-112.08 433.91,-102.08 428.43,-106.44"/>
</g>
<!-- Node14&#45;&gt;Node8 -->
<g id="edge16" class="edge">
<title>Node14&#45;&gt;Node8</title>
<path fill="none" stroke="midnightblue" d="M550.85,-139.94C557.22,-149.26 563.47,-160.46 566.38,-168.08"/>
<polygon fill="midnightblue" stroke="midnightblue" points="553.57,-137.72 544.82,-131.75 547.93,-141.88 553.57,-137.72"/>
</g>
<!-- Node15 -->
<g id="node15" class="node">
<title>Node15</title>
<g id="a_node15"><a xlink:href="../../df/dc9/detect_intersections_8h.html" target="_top" xlink:title=" ">
<polygon fill="white" stroke="black" points="479.5,-56.5 479.5,-75.5 587.5,-75.5 587.5,-56.5 479.5,-56.5"/>
<text text-anchor="middle" x="533.5" y="-63.5" font-family="Helvetica,sans-Serif" font-size="10.00">detectIntersections.h</text>
</a>
</g>
</g>
<!-- Node14&#45;&gt;Node15 -->
<g id="edge14" class="edge">
<title>Node14&#45;&gt;Node15</title>
<path fill="none" stroke="midnightblue" d="M534.14,-101.8C533.98,-92.91 533.79,-82.78 533.66,-75.75"/>
<polygon fill="midnightblue" stroke="midnightblue" points="530.65,-102.15 534.33,-112.08 537.65,-102.02 530.65,-102.15"/>
</g>
<!-- Node17 -->
<g id="node17" class="node">
<title>Node17</title>
<g id="a_node17"><a xlink:href="../../d0/db9/hole_filling_8cpp.html" target="_top" xlink:title=" ">
<polygon fill="white" stroke="black" points="606,-56.5 606,-75.5 685,-75.5 685,-56.5 606,-56.5"/>
<text text-anchor="middle" x="645.5" y="-63.5" font-family="Helvetica,sans-Serif" font-size="10.00">holeFilling.cpp</text>
</a>
</g>
</g>
<!-- Node14&#45;&gt;Node17 -->
<g id="edge17" class="edge">
<title>Node14&#45;&gt;Node17</title>
<path fill="none" stroke="midnightblue" d="M561.51,-107.86C582.09,-97.85 609.84,-84.35 627.71,-75.65"/>
<polygon fill="midnightblue" stroke="midnightblue" points="559.8,-104.8 552.33,-112.32 562.86,-111.1 559.8,-104.8"/>
</g>
<!-- Node18 -->
<g id="node18" class="node">
<title>Node18</title>
<g id="a_node18"><a xlink:href="../../dd/da9/tin_8cpp.html" target="_top" xlink:title=" ">
<polygon fill="white" stroke="black" points="703.5,-56.5 703.5,-75.5 749.5,-75.5 749.5,-56.5 703.5,-56.5"/>
<text text-anchor="middle" x="726.5" y="-63.5" font-family="Helvetica,sans-Serif" font-size="10.00">tin.cpp</text>
</a>
</g>
</g>
<!-- Node14&#45;&gt;Node18 -->
<g id="edge18" class="edge">
<title>Node14&#45;&gt;Node18</title>
<path fill="none" stroke="midnightblue" d="M561.92,-112.13C589.69,-104.29 664.85,-83.8 703.35,-73.31"/>
<polygon fill="midnightblue" stroke="midnightblue" points="560.8,-108.81 552.17,-114.95 562.75,-115.53 560.8,-108.81"/>
</g>
<!-- Node16 -->
<g id="node16" class="node">
<title>Node16</title>
<g id="a_node16"><a xlink:href="../../d8/dd7/detect_intersections_8cpp.html" target="_top" xlink:title=" ">
<polygon fill="white" stroke="black" points="474,-0.5 474,-19.5 593,-19.5 593,-0.5 474,-0.5"/>
<text text-anchor="middle" x="533.5" y="-7.5" font-family="Helvetica,sans-Serif" font-size="10.00">detectIntersections.cpp</text>
</a>
</g>
</g>
<!-- Node15&#45;&gt;Node16 -->
<g id="edge15" class="edge">
<title>Node15&#45;&gt;Node16</title>
<path fill="none" stroke="midnightblue" d="M533.5,-45.8C533.5,-36.91 533.5,-26.78 533.5,-19.75"/>
<polygon fill="midnightblue" stroke="midnightblue" points="530,-46.08 533.5,-56.08 537,-46.08 530,-46.08"/>
</g>
<!-- Node19&#45;&gt;Node8 -->
<g id="edge20" class="edge">
<title>Node19&#45;&gt;Node8</title>
<path fill="none" stroke="midnightblue" d="M594.19,-141.1C589.52,-150.18 582.83,-160.77 576.95,-168.08"/>
<polygon fill="midnightblue" stroke="midnightblue" points="597.49,-142.3 598.45,-131.75 591.11,-139.4 597.49,-142.3"/>
</g>
<!-- Node20 -->
<g id="node20" class="node">
<title>Node20</title>
<g id="a_node20"><a xlink:href="../../d3/df4/edge_8cpp.html" target="_top" xlink:title=" ">
<polygon fill="white" stroke="black" points="853.5,-56.5 853.5,-75.5 909.5,-75.5 909.5,-56.5 853.5,-56.5"/>
<text text-anchor="middle" x="881.5" y="-63.5" font-family="Helvetica,sans-Serif" font-size="10.00">edge.cpp</text>
</a>
</g>
</g>
<!-- Node19&#45;&gt;Node20 -->
<g id="edge21" class="edge">
<title>Node19&#45;&gt;Node20</title>
<path fill="none" stroke="midnightblue" d="M636.79,-111.85C729.09,-93.01 754.73,-94.18 843.5,-76 846.69,-75.35 850.02,-74.62 853.32,-73.88"/>
<polygon fill="midnightblue" stroke="midnightblue" points="635.82,-108.47 626.74,-113.92 637.24,-115.33 635.82,-108.47"/>
</g>
<!-- Node21 -->
<g id="node21" class="node">
<title>Node21</title>
<g id="a_node21"><a xlink:href="../../d6/d4c/triangle_8cpp.html" target="_top" xlink:title=" ">
<polygon fill="white" stroke="black" points="768,-56.5 768,-75.5 835,-75.5 835,-56.5 768,-56.5"/>
<text text-anchor="middle" x="801.5" y="-63.5" font-family="Helvetica,sans-Serif" font-size="10.00">triangle.cpp</text>
</a>
</g>
</g>
<!-- Node19&#45;&gt;Node21 -->
<g id="edge22" class="edge">
<title>Node19&#45;&gt;Node21</title>
<path fill="none" stroke="midnightblue" d="M636.49,-110.89C674.85,-100.69 733.44,-85.11 769.5,-75.51"/>
<polygon fill="midnightblue" stroke="midnightblue" points="635.49,-107.54 626.73,-113.49 637.29,-114.3 635.49,-107.54"/>
</g>
<!-- Node22 -->
<g id="node22" class="node">
<title>Node22</title>
<g id="a_node22"><a xlink:href="../../d0/d3f/vertex_8cpp.html" target="_top" xlink:title=" ">
<polygon fill="white" stroke="black" points="927.5,-56.5 927.5,-75.5 989.5,-75.5 989.5,-56.5 927.5,-56.5"/>
<text text-anchor="middle" x="958.5" y="-63.5" font-family="Helvetica,sans-Serif" font-size="10.00">vertex.cpp</text>
</a>
</g>
</g>
<!-- Node19&#45;&gt;Node22 -->
<g id="edge23" class="edge">
<title>Node19&#45;&gt;Node22</title>
<path fill="none" stroke="midnightblue" d="M636.69,-111.97C761.94,-89.42 796.79,-97.38 918.5,-76 921.3,-75.51 924.21,-74.95 927.11,-74.36"/>
<polygon fill="midnightblue" stroke="midnightblue" points="635.92,-108.55 626.71,-113.79 637.18,-115.44 635.92,-108.55"/>
</g>
<!-- Node26&#45;&gt;Node9 -->
<g id="edge28" class="edge">
<title>Node26&#45;&gt;Node9</title>
<path fill="none" stroke="midnightblue" d="M280.46,-109.3C248.24,-99.13 202.31,-84.62 173.47,-75.52"/>
<polygon fill="midnightblue" stroke="midnightblue" points="279.81,-112.77 290.4,-112.44 281.92,-106.09 279.81,-112.77"/>
</g>
<!-- Node27 -->
<g id="node27" class="node">
<title>Node27</title>
<g id="a_node27"><a xlink:href="../../d8/d4e/exportopenscadtool_8cpp.html" target="_top" xlink:title=" ">
<polygon fill="white" stroke="black" points="203.5,-56.5 203.5,-75.5 323.5,-75.5 323.5,-56.5 203.5,-56.5"/>
<text text-anchor="middle" x="263.5" y="-63.5" font-family="Helvetica,sans-Serif" font-size="10.00">exportopenscadtool.cpp</text>
</a>
</g>
</g>
<!-- Node26&#45;&gt;Node27 -->
<g id="edge29" class="edge">
<title>Node26&#45;&gt;Node27</title>
<path fill="none" stroke="midnightblue" d="M301.5,-105C291.93,-95.43 280.14,-83.64 272.25,-75.75"/>
<polygon fill="midnightblue" stroke="midnightblue" points="299.04,-107.49 308.58,-112.08 303.99,-102.54 299.04,-107.49"/>
</g>
<!-- Node28&#45;&gt;Node9 -->
<g id="edge31" class="edge">
<title>Node28&#45;&gt;Node9</title>
<path fill="none" stroke="midnightblue" d="M118.52,-103.86C125.62,-94.5 134.1,-83.33 139.86,-75.75"/>
<polygon fill="midnightblue" stroke="midnightblue" points="115.53,-102 112.27,-112.08 121.11,-106.24 115.53,-102"/>
</g>
<!-- Node29 -->
<g id="node29" class="node">
<title>Node29</title>
<g id="a_node29"><a xlink:href="../../de/d8b/exportstltool_8cpp.html" target="_top" xlink:title=" ">
<polygon fill="white" stroke="black" points="0,-56.5 0,-75.5 89,-75.5 89,-56.5 0,-56.5"/>
<text text-anchor="middle" x="44.5" y="-63.5" font-family="Helvetica,sans-Serif" font-size="10.00">exportstltool.cpp</text>
</a>
</g>
</g>
<!-- Node28&#45;&gt;Node29 -->
<g id="edge32" class="edge">
<title>Node28&#45;&gt;Node29</title>
<path fill="none" stroke="midnightblue" d="M88.03,-105.54C77.16,-95.91 63.56,-83.87 54.48,-75.83"/>
<polygon fill="midnightblue" stroke="midnightblue" points="85.89,-108.32 95.7,-112.32 90.53,-103.07 85.89,-108.32"/>
</g>
<!-- Node31&#45;&gt;Node8 -->
<g id="edge39" class="edge">
<title>Node31&#45;&gt;Node8</title>
<path fill="none" stroke="midnightblue" d="M850.67,-276.16C819.08,-262.33 766.73,-240.16 720.5,-224 676.19,-208.52 623.49,-193.92 592.65,-185.75"/>
<polygon fill="midnightblue" stroke="midnightblue" points="849.6,-279.51 860.17,-280.33 852.42,-273.1 849.6,-279.51"/>
</g>
<!-- Node31&#45;&gt;Node22 -->
<g id="edge40" class="edge">
<title>Node31&#45;&gt;Node22</title>
<path fill="none" stroke="midnightblue" d="M885.65,-270.49C890,-257.46 896.02,-239.63 901.5,-224 921.37,-167.36 946.37,-99.67 955.22,-75.83"/>
<polygon fill="midnightblue" stroke="midnightblue" points="882.27,-269.55 882.43,-280.15 888.91,-271.77 882.27,-269.55"/>
</g>
<!-- Node31&#45;&gt;Node32 -->
<g id="edge35" class="edge">
<title>Node31&#45;&gt;Node32</title>
<path fill="none" stroke="midnightblue" d="M895.5,-273C905.07,-263.43 916.86,-251.64 924.75,-243.75"/>
<polygon fill="midnightblue" stroke="midnightblue" points="893.01,-270.54 888.42,-280.08 897.96,-275.49 893.01,-270.54"/>
</g>
<!-- Node32&#45;&gt;Node8 -->
<g id="edge36" class="edge">
<title>Node32&#45;&gt;Node8</title>
<path fill="none" stroke="midnightblue" d="M900.35,-228.12C828.21,-217.51 658.2,-192.49 592.79,-182.87"/>
<polygon fill="midnightblue" stroke="midnightblue" points="899.86,-231.59 910.26,-229.58 900.88,-224.66 899.86,-231.59"/>
</g>
<!-- Node32&#45;&gt;Node20 -->
<g id="edge37" class="edge">
<title>Node32&#45;&gt;Node20</title>
<path fill="none" stroke="midnightblue" d="M927.67,-214.39C916.45,-178.59 892.26,-101.34 884.18,-75.57"/>
<polygon fill="midnightblue" stroke="midnightblue" points="924.37,-215.58 930.7,-224.08 931.05,-213.49 924.37,-215.58"/>
</g>
<!-- Node32&#45;&gt;Node22 -->
<g id="edge38" class="edge">
<title>Node32&#45;&gt;Node22</title>
<path fill="none" stroke="midnightblue" d="M936.37,-213.93C941.8,-177.92 953.34,-101.23 957.21,-75.57"/>
<polygon fill="midnightblue" stroke="midnightblue" points="932.87,-213.67 934.84,-224.08 939.79,-214.71 932.87,-213.67"/>
</g>
</g>
</svg>
