<?xml version="1.0" encoding="UTF-8" standalone="no"?>
<!DOCTYPE svg PUBLIC "-//W3C//DTD SVG 1.1//EN"
 "http://www.w3.org/Graphics/SVG/1.1/DTD/svg11.dtd">
<!-- Generated by graphviz version 2.44.1 (0)
 -->
<!-- Title: GAOptimizer::breedPopulation Pages: 1 -->
<svg width="323pt" height="66pt"
 viewBox="0.00 0.00 323.00 66.00" xmlns="http://www.w3.org/2000/svg" xmlns:xlink="http://www.w3.org/1999/xlink">
<g id="graph0" class="graph" transform="scale(1 1) rotate(0) translate(4 62)">
<title>GAOptimizer::breedPopulation</title>
<polygon fill="white" stroke="transparent" points="-4,4 -4,-62 319,-62 319,4 -4,4"/>
<!-- Node1 -->
<g id="node1" class="node">
<title>Node1</title>
<g id="a_node1"><a xlink:title="Crossover the whole mating pool.">
<polygon fill="#bfbfbf" stroke="black" points="0,-19.5 0,-38.5 149,-38.5 149,-19.5 0,-19.5"/>
<text text-anchor="middle" x="74.5" y="-26.5" font-family="Helvetica,sans-Serif" font-size="10.00">GAOptimizer::breedPopulation</text>
</a>
</g>
</g>
<!-- Node2 -->
<g id="node2" class="node">
<title>Node2</title>
<g id="a_node2"><a xlink:href="../../dc/d6d/class_g_a_optimizer.html#a871288172fcf79145d2efd12c5be1c29" target="_top" xlink:title="The crossover function for two parents to create one child.">
<polygon fill="white" stroke="black" points="198.5,-38.5 198.5,-57.5 301.5,-57.5 301.5,-38.5 198.5,-38.5"/>
<text text-anchor="middle" x="250" y="-45.5" font-family="Helvetica,sans-Serif" font-size="10.00">GAOptimizer::breed</text>
</a>
</g>
</g>
<!-- Node1&#45;&gt;Node2 -->
<g id="edge1" class="edge">
<title>Node1&#45;&gt;Node2</title>
<path fill="none" stroke="midnightblue" d="M149.08,-37.06C162.2,-38.49 175.73,-39.98 188.43,-41.37"/>
<polygon fill="midnightblue" stroke="midnightblue" points="188.09,-44.85 198.42,-42.46 188.86,-37.89 188.09,-44.85"/>
</g>
<!-- Node3 -->
<g id="node3" class="node">
<title>Node3</title>
<g id="a_node3"><a xlink:href="../../dc/d6d/class_g_a_optimizer.html#a4f7a2414ff6fab79ee07ad939eed1576" target="_top" xlink:title="Permutates the list via Fisher&#45;Yates&#45;Shuffle.">
<polygon fill="white" stroke="black" points="185,-0.5 185,-19.5 315,-19.5 315,-0.5 185,-0.5"/>
<text text-anchor="middle" x="250" y="-7.5" font-family="Helvetica,sans-Serif" font-size="10.00">GAOptimizer::permuteList</text>
</a>
</g>
</g>
<!-- Node1&#45;&gt;Node3 -->
<g id="edge2" class="edge">
<title>Node1&#45;&gt;Node3</title>
<path fill="none" stroke="midnightblue" d="M149.08,-20.94C157.64,-20 166.38,-19.05 174.95,-18.11"/>
<polygon fill="midnightblue" stroke="midnightblue" points="175.35,-21.59 184.91,-17.02 174.59,-14.63 175.35,-21.59"/>
</g>
</g>
</svg>
