<?xml version="1.0" encoding="UTF-8" standalone="no"?>
<!DOCTYPE svg PUBLIC "-//W3C//DTD SVG 1.1//EN"
 "http://www.w3.org/Graphics/SVG/1.1/DTD/svg11.dtd">
<!-- Generated by graphviz version 2.44.1 (0)
 -->
<!-- Title: GAOptimizer::optimize Pages: 1 -->
<svg width="1555pt" height="516pt"
 viewBox="0.00 0.00 1555.00 515.93" xmlns="http://www.w3.org/2000/svg" xmlns:xlink="http://www.w3.org/1999/xlink">
<g id="graph0" class="graph" transform="scale(1 1) rotate(0) translate(4 511.93)">
<title>GAOptimizer::optimize</title>
<polygon fill="white" stroke="transparent" points="-4,4 -4,-511.93 1551,-511.93 1551,4 -4,4"/>
<!-- Node1 -->
<g id="node1" class="node">
<title>Node1</title>
<g id="a_node1"><a xlink:title=" ">
<polygon fill="#bfbfbf" stroke="black" points="0,-258.94 0,-277.94 116,-277.94 116,-258.94 0,-258.94"/>
<text text-anchor="middle" x="58" y="-265.94" font-family="Helvetica,sans-Serif" font-size="10.00">GAOptimizer::optimize</text>
</a>
</g>
</g>
<!-- Node2 -->
<g id="node2" class="node">
<title>Node2</title>
<g id="a_node2"><a xlink:href="../../d9/d02/class_optimizer.html#a005ef2bdea59b2a3ac0fa22978add36a" target="_top" xlink:title="Add optimized connections to the touchpoint registry.">
<polygon fill="white" stroke="black" points="747,-448.94 747,-467.94 882,-467.94 882,-448.94 747,-448.94"/>
<text text-anchor="middle" x="814.5" y="-455.94" font-family="Helvetica,sans-Serif" font-size="10.00">Optimizer::addConnections</text>
</a>
</g>
</g>
<!-- Node1&#45;&gt;Node2 -->
<g id="edge1" class="edge">
<title>Node1&#45;&gt;Node2</title>
<path fill="none" stroke="midnightblue" d="M61,-278.23C67.68,-308.05 92.23,-397.94 152,-434.44 247.94,-493.02 583.54,-476.09 736.5,-464.84"/>
<polygon fill="midnightblue" stroke="midnightblue" points="737.03,-468.31 746.74,-464.08 736.51,-461.33 737.03,-468.31"/>
</g>
<!-- Node3 -->
<g id="node3" class="node">
<title>Node3</title>
<g id="a_node3"><a xlink:href="../../d6/db5/class_scene.html#a64cb0dcdcb57a45fe485fb3489c112c4" target="_top" xlink:title="Return if the 26&#45;neighborhood voxels of a connection path are locked too.">
<polygon fill="white" stroke="black" points="928.5,-486.94 928.5,-505.94 1081.5,-505.94 1081.5,-486.94 928.5,-486.94"/>
<text text-anchor="middle" x="1005" y="-493.94" font-family="Helvetica,sans-Serif" font-size="10.00">Scene::getLockNeighborVoxels</text>
</a>
</g>
</g>
<!-- Node1&#45;&gt;Node3 -->
<g id="edge40" class="edge">
<title>Node1&#45;&gt;Node3</title>
<path fill="none" stroke="midnightblue" d="M60.3,-278.34C65.22,-311.33 85.88,-418.11 152,-465.44 251.47,-536.65 303.17,-496.44 425.5,-496.44 425.5,-496.44 425.5,-496.44 627.5,-496.44 727.28,-496.44 841.93,-496.44 918.24,-496.44"/>
<polygon fill="midnightblue" stroke="midnightblue" points="918.28,-499.94 928.28,-496.44 918.28,-492.94 918.28,-499.94"/>
</g>
<!-- Node4 -->
<g id="node4" class="node">
<title>Node4</title>
<g id="a_node4"><a xlink:href="../../d6/db5/class_scene.html#a5c26ef724365bd55c471acc673d60674" target="_top" xlink:title="Return the touchpoint registry of the scene.">
<polygon fill="white" stroke="black" points="931,-448.94 931,-467.94 1079,-467.94 1079,-448.94 931,-448.94"/>
<text text-anchor="middle" x="1005" y="-455.94" font-family="Helvetica,sans-Serif" font-size="10.00">Scene::getTouchpointRegistry</text>
</a>
</g>
</g>
<!-- Node1&#45;&gt;Node4 -->
<g id="edge41" class="edge">
<title>Node1&#45;&gt;Node4</title>
<path fill="none" stroke="midnightblue" d="M71.52,-277.95C116.62,-311.23 276.02,-420.44 425.5,-420.44 425.5,-420.44 425.5,-420.44 627.5,-420.44 744.03,-420.44 773.28,-425.71 889,-439.44 906.47,-441.52 925.34,-444.37 942.64,-447.24"/>
<polygon fill="midnightblue" stroke="midnightblue" points="942.18,-450.71 952.62,-448.92 943.34,-443.81 942.18,-450.71"/>
</g>
<!-- Node5 -->
<g id="node5" class="node">
<title>Node5</title>
<g id="a_node5"><a xlink:href="../../dc/d6d/class_g_a_optimizer.html#a8f46197186eebd33cb79cb317722eed9" target="_top" xlink:title="Run the genetic algorithm.">
<polygon fill="white" stroke="black" points="152,-258.94 152,-277.94 304,-277.94 304,-258.94 152,-258.94"/>
<text text-anchor="middle" x="228" y="-265.94" font-family="Helvetica,sans-Serif" font-size="10.00">GAOptimizer::geneticAlgorithm</text>
</a>
</g>
</g>
<!-- Node1&#45;&gt;Node5 -->
<g id="edge4" class="edge">
<title>Node1&#45;&gt;Node5</title>
<path fill="none" stroke="midnightblue" d="M116.35,-268.44C124.54,-268.44 133.12,-268.44 141.72,-268.44"/>
<polygon fill="midnightblue" stroke="midnightblue" points="141.79,-271.94 151.79,-268.44 141.79,-264.94 141.79,-271.94"/>
</g>
<!-- Node17 -->
<g id="node17" class="node">
<title>Node17</title>
<g id="a_node17"><a xlink:href="../../de/d52/class_a_star.html#aa76c29f42861c4f6fc7c328e4dbc7d83" target="_top" xlink:title="Mark a path as locked so that it can not be used by another search.">
<polygon fill="white" stroke="black" points="1146,-158.94 1146,-177.94 1235,-177.94 1235,-158.94 1146,-158.94"/>
<text text-anchor="middle" x="1190.5" y="-165.94" font-family="Helvetica,sans-Serif" font-size="10.00">AStar::markPath</text>
</a>
</g>
</g>
<!-- Node1&#45;&gt;Node17 -->
<g id="edge45" class="edge">
<title>Node1&#45;&gt;Node17</title>
<path fill="none" stroke="midnightblue" d="M64.26,-258.62C76.52,-236.75 109.22,-183.87 152,-157.44 258.29,-91.78 300.56,-92.44 425.5,-92.44 425.5,-92.44 425.5,-92.44 815.5,-92.44 935.58,-92.44 969.76,-77.7 1085,-111.44 1115.79,-120.46 1147.66,-139.5 1167.98,-153.09"/>
<polygon fill="midnightblue" stroke="midnightblue" points="1166.23,-156.13 1176.46,-158.9 1170.19,-150.36 1166.23,-156.13"/>
</g>
<!-- Node30 -->
<g id="node30" class="node">
<title>Node30</title>
<g id="a_node30"><a xlink:href="../../de/d52/class_a_star.html#a0d1fd50821c4cd7bbd8a87bd9fcf5dd3" target="_top" xlink:title="Search a path in the voxelgrid using the A* algorithm with the preset heuristic.">
<polygon fill="white" stroke="black" points="956.5,-120.94 956.5,-139.94 1053.5,-139.94 1053.5,-120.94 956.5,-120.94"/>
<text text-anchor="middle" x="1005" y="-127.94" font-family="Helvetica,sans-Serif" font-size="10.00">AStar::searchPath</text>
</a>
</g>
</g>
<!-- Node1&#45;&gt;Node30 -->
<g id="edge46" class="edge">
<title>Node1&#45;&gt;Node30</title>
<path fill="none" stroke="midnightblue" d="M74.77,-258.76C124.38,-229.26 282.52,-142.44 425.5,-142.44 425.5,-142.44 425.5,-142.44 627.5,-142.44 740.55,-142.44 872.6,-136.97 946.44,-133.42"/>
<polygon fill="midnightblue" stroke="midnightblue" points="946.65,-136.91 956.47,-132.93 946.31,-129.92 946.65,-136.91"/>
</g>
<!-- Node35 -->
<g id="node35" class="node">
<title>Node35</title>
<g id="a_node35"><a xlink:href="../../de/d52/class_a_star.html#a38a48ab40e77b2f0b53ea27245425ca5" target="_top" xlink:title="Initializes A* grid nodes.">
<polygon fill="white" stroke="black" points="784.5,-44.94 784.5,-63.94 844.5,-63.94 844.5,-44.94 784.5,-44.94"/>
<text text-anchor="middle" x="814.5" y="-51.94" font-family="Helvetica,sans-Serif" font-size="10.00">AStar::init</text>
</a>
</g>
</g>
<!-- Node1&#45;&gt;Node35 -->
<g id="edge42" class="edge">
<title>Node1&#45;&gt;Node35</title>
<path fill="none" stroke="midnightblue" d="M60.3,-258.69C65.19,-226.23 85.78,-121.45 152,-78.44 352.98,52.07 665.44,-14.11 774.42,-43.15"/>
<polygon fill="midnightblue" stroke="midnightblue" points="773.75,-46.59 784.32,-45.83 775.59,-39.84 773.75,-46.59"/>
</g>
<!-- Node2&#45;&gt;Node3 -->
<g id="edge2" class="edge">
<title>Node2&#45;&gt;Node3</title>
<path fill="none" stroke="midnightblue" d="M863.07,-468.03C888.5,-473.16 920,-479.51 946.77,-484.91"/>
<polygon fill="midnightblue" stroke="midnightblue" points="946.28,-488.38 956.78,-486.92 947.66,-481.51 946.28,-488.38"/>
</g>
<!-- Node2&#45;&gt;Node4 -->
<g id="edge3" class="edge">
<title>Node2&#45;&gt;Node4</title>
<path fill="none" stroke="midnightblue" d="M882.22,-458.44C894.68,-458.44 907.83,-458.44 920.71,-458.44"/>
<polygon fill="midnightblue" stroke="midnightblue" points="920.96,-461.94 930.96,-458.44 920.96,-454.94 920.96,-461.94"/>
</g>
<!-- Node6 -->
<g id="node6" class="node">
<title>Node6</title>
<g id="a_node6"><a xlink:href="../../dc/d6d/class_g_a_optimizer.html#a37941b6f02ffe5e777f0d3e421158205" target="_top" xlink:title="Generate next population of individuals.">
<polygon fill="white" stroke="black" points="340,-258.94 340,-277.94 513,-277.94 513,-258.94 340,-258.94"/>
<text text-anchor="middle" x="426.5" y="-265.94" font-family="Helvetica,sans-Serif" font-size="10.00">GAOptimizer::createNextPopulation</text>
</a>
</g>
</g>
<!-- Node5&#45;&gt;Node6 -->
<g id="edge5" class="edge">
<title>Node5&#45;&gt;Node6</title>
<path fill="none" stroke="midnightblue" d="M304.13,-268.44C312.54,-268.44 321.19,-268.44 329.81,-268.44"/>
<polygon fill="midnightblue" stroke="midnightblue" points="329.91,-271.94 339.91,-268.44 329.91,-264.94 329.91,-271.94"/>
</g>
<!-- Node13 -->
<g id="node13" class="node">
<title>Node13</title>
<g id="a_node13"><a xlink:href="../../dc/d6d/class_g_a_optimizer.html#a77b17390fe144ff6740cb1ebe7677138" target="_top" xlink:title="Rank individuals corresponding to their fitness value.">
<polygon fill="white" stroke="black" points="554.5,-182.94 554.5,-201.94 698.5,-201.94 698.5,-182.94 554.5,-182.94"/>
<text text-anchor="middle" x="626.5" y="-189.94" font-family="Helvetica,sans-Serif" font-size="10.00">GAOptimizer::rankIndividuals</text>
</a>
</g>
</g>
<!-- Node5&#45;&gt;Node13 -->
<g id="edge39" class="edge">
<title>Node5&#45;&gt;Node13</title>
<path fill="none" stroke="midnightblue" d="M278.82,-258.89C351.77,-244.91 487.47,-218.9 565.71,-203.9"/>
<polygon fill="midnightblue" stroke="midnightblue" points="566.73,-207.27 575.89,-201.95 565.41,-200.4 566.73,-207.27"/>
</g>
<!-- Node33 -->
<g id="node33" class="node">
<title>Node33</title>
<g id="a_node33"><a xlink:href="../../dc/d6d/class_g_a_optimizer.html#ad6c4879784ab7d308f653f025257fcc2" target="_top" xlink:title="Create the initial (first) population.">
<polygon fill="white" stroke="black" points="353,-334.94 353,-353.94 500,-353.94 500,-334.94 353,-334.94"/>
<text text-anchor="middle" x="426.5" y="-341.94" font-family="Helvetica,sans-Serif" font-size="10.00">GAOptimizer::initialPopulation</text>
</a>
</g>
</g>
<!-- Node5&#45;&gt;Node33 -->
<g id="edge36" class="edge">
<title>Node5&#45;&gt;Node33</title>
<path fill="none" stroke="midnightblue" d="M253.89,-278.07C288.73,-291.54 352.18,-316.08 391.4,-331.25"/>
<polygon fill="midnightblue" stroke="midnightblue" points="390.23,-334.55 400.82,-334.89 392.75,-328.02 390.23,-334.55"/>
</g>
<!-- Node7 -->
<g id="node7" class="node">
<title>Node7</title>
<g id="a_node7"><a xlink:href="../../dc/d6d/class_g_a_optimizer.html#a4b960fd3988a358ce142a40354a20182" target="_top" xlink:title="Crossover the whole mating pool.">
<polygon fill="white" stroke="black" points="552,-334.94 552,-353.94 701,-353.94 701,-334.94 552,-334.94"/>
<text text-anchor="middle" x="626.5" y="-341.94" font-family="Helvetica,sans-Serif" font-size="10.00">GAOptimizer::breedPopulation</text>
</a>
</g>
</g>
<!-- Node6&#45;&gt;Node7 -->
<g id="edge6" class="edge">
<title>Node6&#45;&gt;Node7</title>
<path fill="none" stroke="midnightblue" d="M445.15,-278.07C468.39,-290.42 510.79,-311.88 549,-325.44 556.08,-327.96 563.65,-330.27 571.17,-332.34"/>
<polygon fill="midnightblue" stroke="midnightblue" points="570.41,-335.76 580.97,-334.94 572.2,-329 570.41,-335.76"/>
</g>
<!-- Node10 -->
<g id="node10" class="node">
<title>Node10</title>
<g id="a_node10"><a xlink:href="../../dc/d6d/class_g_a_optimizer.html#a84d38a2e5f2157c8ba768a482c133e9e" target="_top" xlink:title="Creates the mating pool.">
<polygon fill="white" stroke="black" points="549,-296.94 549,-315.94 704,-315.94 704,-296.94 549,-296.94"/>
<text text-anchor="middle" x="626.5" y="-303.94" font-family="Helvetica,sans-Serif" font-size="10.00">GAOptimizer::createMatingPool</text>
</a>
</g>
</g>
<!-- Node6&#45;&gt;Node10 -->
<g id="edge9" class="edge">
<title>Node6&#45;&gt;Node10</title>
<path fill="none" stroke="midnightblue" d="M477.21,-277.98C504.04,-283.13 537.36,-289.53 565.61,-294.95"/>
<polygon fill="midnightblue" stroke="midnightblue" points="565.29,-298.45 575.77,-296.9 566.61,-291.58 565.29,-298.45"/>
</g>
<!-- Node11 -->
<g id="node11" class="node">
<title>Node11</title>
<g id="a_node11"><a xlink:href="../../dc/d6d/class_g_a_optimizer.html#aab62835f38ddff98e90b038382f09464" target="_top" xlink:title="Mutate the entire population.">
<polygon fill="white" stroke="black" points="549,-220.94 549,-239.94 704,-239.94 704,-220.94 549,-220.94"/>
<text text-anchor="middle" x="626.5" y="-227.94" font-family="Helvetica,sans-Serif" font-size="10.00">GAOptimizer::mutatePopulation</text>
</a>
</g>
</g>
<!-- Node6&#45;&gt;Node11 -->
<g id="edge10" class="edge">
<title>Node6&#45;&gt;Node11</title>
<path fill="none" stroke="midnightblue" d="M477.21,-258.9C504.04,-253.75 537.36,-247.36 565.61,-241.94"/>
<polygon fill="midnightblue" stroke="midnightblue" points="566.61,-245.31 575.77,-239.99 565.29,-238.43 566.61,-245.31"/>
</g>
<!-- Node6&#45;&gt;Node13 -->
<g id="edge12" class="edge">
<title>Node6&#45;&gt;Node13</title>
<path fill="none" stroke="midnightblue" d="M445.15,-258.82C468.39,-246.46 510.79,-225 549,-211.44 556.08,-208.93 563.65,-206.62 571.17,-204.54"/>
<polygon fill="midnightblue" stroke="midnightblue" points="572.2,-207.89 580.97,-201.94 570.41,-201.12 572.2,-207.89"/>
</g>
<!-- Node32 -->
<g id="node32" class="node">
<title>Node32</title>
<g id="a_node32"><a xlink:href="../../dc/d6d/class_g_a_optimizer.html#ad99279f0064d85a080dbb5ac1170ab2d" target="_top" xlink:title="Does the &#39;natural&#39; selection by selection of elite and fittest indivuals.">
<polygon fill="white" stroke="black" points="567.5,-258.94 567.5,-277.94 685.5,-277.94 685.5,-258.94 567.5,-258.94"/>
<text text-anchor="middle" x="626.5" y="-265.94" font-family="Helvetica,sans-Serif" font-size="10.00">GAOptimizer::selection</text>
</a>
</g>
</g>
<!-- Node6&#45;&gt;Node32 -->
<g id="edge35" class="edge">
<title>Node6&#45;&gt;Node32</title>
<path fill="none" stroke="midnightblue" d="M513.19,-268.44C527.91,-268.44 543.03,-268.44 557.21,-268.44"/>
<polygon fill="midnightblue" stroke="midnightblue" points="557.36,-271.94 567.36,-268.44 557.36,-264.94 557.36,-271.94"/>
</g>
<!-- Node8 -->
<g id="node8" class="node">
<title>Node8</title>
<g id="a_node8"><a xlink:href="../../dc/d6d/class_g_a_optimizer.html#a871288172fcf79145d2efd12c5be1c29" target="_top" xlink:title="The crossover function for two parents to create one child.">
<polygon fill="white" stroke="black" points="763,-334.94 763,-353.94 866,-353.94 866,-334.94 763,-334.94"/>
<text text-anchor="middle" x="814.5" y="-341.94" font-family="Helvetica,sans-Serif" font-size="10.00">GAOptimizer::breed</text>
</a>
</g>
</g>
<!-- Node7&#45;&gt;Node8 -->
<g id="edge7" class="edge">
<title>Node7&#45;&gt;Node8</title>
<path fill="none" stroke="midnightblue" d="M701.01,-344.44C718.17,-344.44 736.25,-344.44 752.78,-344.44"/>
<polygon fill="midnightblue" stroke="midnightblue" points="752.84,-347.94 762.84,-344.44 752.84,-340.94 752.84,-347.94"/>
</g>
<!-- Node9 -->
<g id="node9" class="node">
<title>Node9</title>
<g id="a_node9"><a xlink:href="../../dc/d6d/class_g_a_optimizer.html#a4f7a2414ff6fab79ee07ad939eed1576" target="_top" xlink:title="Permutates the list via Fisher&#45;Yates&#45;Shuffle.">
<polygon fill="white" stroke="black" points="749.5,-372.94 749.5,-391.94 879.5,-391.94 879.5,-372.94 749.5,-372.94"/>
<text text-anchor="middle" x="814.5" y="-379.94" font-family="Helvetica,sans-Serif" font-size="10.00">GAOptimizer::permuteList</text>
</a>
</g>
</g>
<!-- Node7&#45;&gt;Node9 -->
<g id="edge8" class="edge">
<title>Node7&#45;&gt;Node9</title>
<path fill="none" stroke="midnightblue" d="M674.44,-354.03C699.53,-359.16 730.62,-365.51 757.03,-370.91"/>
<polygon fill="midnightblue" stroke="midnightblue" points="756.4,-374.35 766.9,-372.92 757.8,-367.49 756.4,-374.35"/>
</g>
<!-- Node12 -->
<g id="node12" class="node">
<title>Node12</title>
<g id="a_node12"><a xlink:href="../../dc/d6d/class_g_a_optimizer.html#a8c81f435211f986ae70c57fb9c7123c1" target="_top" xlink:title="Mutate an individual (create neighbor)">
<polygon fill="white" stroke="black" points="760,-290.94 760,-309.94 869,-309.94 869,-290.94 760,-290.94"/>
<text text-anchor="middle" x="814.5" y="-297.94" font-family="Helvetica,sans-Serif" font-size="10.00">GAOptimizer::mutate</text>
</a>
</g>
</g>
<!-- Node11&#45;&gt;Node12 -->
<g id="edge11" class="edge">
<title>Node11&#45;&gt;Node12</title>
<path fill="none" stroke="midnightblue" d="M680.13,-240.05C688.36,-242.52 696.58,-245.61 704,-249.44 722.76,-259.14 721.35,-270.54 740,-280.44 745.16,-283.18 750.73,-285.58 756.42,-287.66"/>
<polygon fill="midnightblue" stroke="midnightblue" points="755.45,-291.02 766.04,-290.87 757.66,-284.38 755.45,-291.02"/>
</g>
<!-- Node14 -->
<g id="node14" class="node">
<title>Node14</title>
<g id="a_node14"><a xlink:href="../../dc/d6d/class_g_a_optimizer.html#a9557e1575e4fa512fab3e4cb681a02e2" target="_top" xlink:title="Computes fitness of an indivudal.">
<polygon fill="white" stroke="black" points="740,-182.94 740,-201.94 889,-201.94 889,-182.94 740,-182.94"/>
<text text-anchor="middle" x="814.5" y="-189.94" font-family="Helvetica,sans-Serif" font-size="10.00">GAOptimizer::computeFitness</text>
</a>
</g>
</g>
<!-- Node13&#45;&gt;Node14 -->
<g id="edge13" class="edge">
<title>Node13&#45;&gt;Node14</title>
<path fill="none" stroke="midnightblue" d="M698.61,-192.44C708.77,-192.44 719.29,-192.44 729.66,-192.44"/>
<polygon fill="midnightblue" stroke="midnightblue" points="729.96,-195.94 739.96,-192.44 729.96,-188.94 729.96,-195.94"/>
</g>
<!-- Node15 -->
<g id="node15" class="node">
<title>Node15</title>
<g id="a_node15"><a xlink:href="../../d9/d02/class_optimizer.html#a4f2470e3a7450a12d4daa5df86d50ce8" target="_top" xlink:title="computes the total wire length of a wiring">
<polygon fill="white" stroke="black" points="743,-241.44 743,-271.44 886,-271.44 886,-241.44 743,-241.44"/>
<text text-anchor="start" x="751" y="-259.44" font-family="Helvetica,sans-Serif" font-size="10.00">Optimizer::computeTotalWire</text>
<text text-anchor="middle" x="814.5" y="-248.44" font-family="Helvetica,sans-Serif" font-size="10.00">Distance</text>
</a>
</g>
</g>
<!-- Node13&#45;&gt;Node15 -->
<g id="edge14" class="edge">
<title>Node13&#45;&gt;Node15</title>
<path fill="none" stroke="midnightblue" d="M670.7,-202C681.66,-204.74 693.34,-207.95 704,-211.44 726.59,-218.85 751.13,-228.75 771.23,-237.38"/>
<polygon fill="midnightblue" stroke="midnightblue" points="769.86,-240.6 780.43,-241.37 772.65,-234.18 769.86,-240.6"/>
</g>
<!-- Node15&#45;&gt;Node3 -->
<g id="edge18" class="edge">
<title>Node15&#45;&gt;Node3</title>
<path fill="none" stroke="midnightblue" d="M877.34,-271.52C881.68,-274.29 885.65,-277.57 889,-281.44 946.89,-348.48 864.1,-413.14 925,-477.44 926.23,-478.74 927.54,-479.96 928.91,-481.11"/>
<polygon fill="midnightblue" stroke="midnightblue" points="927.11,-484.12 937.35,-486.84 931.04,-478.33 927.11,-484.12"/>
</g>
<!-- Node15&#45;&gt;Node4 -->
<g id="edge20" class="edge">
<title>Node15&#45;&gt;Node4</title>
<path fill="none" stroke="midnightblue" d="M876.82,-271.46C881.33,-274.24 885.48,-277.54 889,-281.44 937.22,-334.94 874.38,-388.21 925,-439.44 926.41,-440.87 927.91,-442.2 929.49,-443.44"/>
<polygon fill="midnightblue" stroke="midnightblue" points="927.6,-446.39 937.9,-448.87 931.4,-440.51 927.6,-446.39"/>
</g>
<!-- Node16 -->
<g id="node16" class="node">
<title>Node16</title>
<g id="a_node16"><a xlink:href="../../de/d52/class_a_star.html#a29f560899446dc99d6f157e4997650d7" target="_top" xlink:title="Unmark all paths.">
<polygon fill="white" stroke="black" points="952.5,-246.94 952.5,-265.94 1057.5,-265.94 1057.5,-246.94 952.5,-246.94"/>
<text text-anchor="middle" x="1005" y="-253.94" font-family="Helvetica,sans-Serif" font-size="10.00">AStar::clearAllPaths</text>
</a>
</g>
</g>
<!-- Node15&#45;&gt;Node16 -->
<g id="edge15" class="edge">
<title>Node15&#45;&gt;Node16</title>
<path fill="none" stroke="midnightblue" d="M886.23,-256.44C904.65,-256.44 924.36,-256.44 942.28,-256.44"/>
<polygon fill="midnightblue" stroke="midnightblue" points="942.31,-259.94 952.31,-256.44 942.31,-252.94 942.31,-259.94"/>
</g>
<!-- Node15&#45;&gt;Node17 -->
<g id="edge27" class="edge">
<title>Node15&#45;&gt;Node17</title>
<path fill="none" stroke="midnightblue" d="M840.82,-241.27C855.06,-232.65 873.11,-221.59 889,-211.44 905.2,-201.09 906.81,-193.67 925,-187.44 994.77,-163.56 1080.78,-162.12 1135.39,-164.4"/>
<polygon fill="midnightblue" stroke="midnightblue" points="1135.39,-167.9 1145.55,-164.88 1135.72,-160.91 1135.39,-167.9"/>
</g>
<!-- Node18 -->
<g id="node18" class="node">
<title>Node18</title>
<g id="a_node18"><a xlink:href="../../d9/d58/class_touchpoint.html#a30cdb1f0de39cf4ffe2d23c3c750d331" target="_top" xlink:title="Return outside wiring entry point (grid coordinates)">
<polygon fill="white" stroke="black" points="938.5,-197.44 938.5,-227.44 1071.5,-227.44 1071.5,-197.44 938.5,-197.44"/>
<text text-anchor="start" x="946.5" y="-215.44" font-family="Helvetica,sans-Serif" font-size="10.00">Touchpoint::getConnection</text>
<text text-anchor="middle" x="1005" y="-204.44" font-family="Helvetica,sans-Serif" font-size="10.00">PointIndex</text>
</a>
</g>
</g>
<!-- Node15&#45;&gt;Node18 -->
<g id="edge17" class="edge">
<title>Node15&#45;&gt;Node18</title>
<path fill="none" stroke="midnightblue" d="M879.84,-241.42C895.83,-237.69 913.1,-233.66 929.53,-229.83"/>
<polygon fill="midnightblue" stroke="midnightblue" points="930.68,-233.15 939.63,-227.47 929.09,-226.33 930.68,-233.15"/>
</g>
<!-- Node19 -->
<g id="node19" class="node">
<title>Node19</title>
<g id="a_node19"><a xlink:href="../../d6/db5/class_scene.html#abe8f9d18527a1fea362460cdc53cb5eb" target="_top" xlink:title="Return the bounds of the mesh in scene coordinates.">
<polygon fill="white" stroke="black" points="925,-399.44 925,-429.44 1085,-429.44 1085,-399.44 925,-399.44"/>
<text text-anchor="start" x="933" y="-417.44" font-family="Helvetica,sans-Serif" font-size="10.00">Scene::getMeshWorldCoordinate</text>
<text text-anchor="middle" x="1005" y="-406.44" font-family="Helvetica,sans-Serif" font-size="10.00">Bounds</text>
</a>
</g>
</g>
<!-- Node15&#45;&gt;Node19 -->
<g id="edge19" class="edge">
<title>Node15&#45;&gt;Node19</title>
<path fill="none" stroke="midnightblue" d="M876.06,-271.63C880.79,-274.38 885.2,-277.62 889,-281.44 924.67,-317.33 888.95,-353.94 925,-389.44 926.46,-390.88 928,-392.24 929.61,-393.51"/>
<polygon fill="midnightblue" stroke="midnightblue" points="927.93,-396.6 938.18,-399.28 931.84,-390.79 927.93,-396.6"/>
</g>
<!-- Node20 -->
<g id="node20" class="node">
<title>Node20</title>
<g id="a_node20"><a xlink:href="../../d6/db5/class_scene.html#a7e5ee53ea01ef113afaaf4b7c10accf3" target="_top" xlink:title="Return the voxel grid image data.">
<polygon fill="white" stroke="black" points="950.5,-44.94 950.5,-63.94 1059.5,-63.94 1059.5,-44.94 950.5,-44.94"/>
<text text-anchor="middle" x="1005" y="-51.94" font-family="Helvetica,sans-Serif" font-size="10.00">Scene::getVoxelData</text>
</a>
</g>
</g>
<!-- Node15&#45;&gt;Node20 -->
<g id="edge21" class="edge">
<title>Node15&#45;&gt;Node20</title>
<path fill="none" stroke="midnightblue" d="M850.56,-241.27C864.12,-233.94 878.8,-223.97 889,-211.44 918.83,-174.82 896.58,-149.17 925,-111.44 938.4,-93.66 958.9,-79.1 975.66,-69.14"/>
<polygon fill="midnightblue" stroke="midnightblue" points="977.57,-72.09 984.52,-64.09 974.1,-66 977.57,-72.09"/>
</g>
<!-- Node21 -->
<g id="node21" class="node">
<title>Node21</title>
<g id="a_node21"><a xlink:href="../../d9/d58/class_touchpoint.html#afbb2470ea0d67a12a29eb3d6bd958f01" target="_top" xlink:title="Mark voxel grid cells as occupied by the touchpoint geometry.">
<polygon fill="white" stroke="black" points="934.5,-360.94 934.5,-379.94 1075.5,-379.94 1075.5,-360.94 934.5,-360.94"/>
<text text-anchor="middle" x="1005" y="-367.94" font-family="Helvetica,sans-Serif" font-size="10.00">Touchpoint::markOccupation</text>
</a>
</g>
</g>
<!-- Node15&#45;&gt;Node21 -->
<g id="edge22" class="edge">
<title>Node15&#45;&gt;Node21</title>
<path fill="none" stroke="midnightblue" d="M873.99,-271.51C879.39,-274.29 884.51,-277.57 889,-281.44 915.49,-304.29 897.49,-329.83 925,-351.44 927.29,-353.24 929.72,-354.87 932.26,-356.35"/>
<polygon fill="midnightblue" stroke="midnightblue" points="930.73,-359.5 941.24,-360.82 933.85,-353.23 930.73,-359.5"/>
</g>
<!-- Node26 -->
<g id="node26" class="node">
<title>Node26</title>
<g id="a_node26"><a xlink:href="../../de/d52/class_a_star.html#a67f440fb4e77fad8d273ef848e9703c1" target="_top" xlink:title="Reset grid.">
<polygon fill="white" stroke="black" points="970.5,-284.94 970.5,-303.94 1039.5,-303.94 1039.5,-284.94 970.5,-284.94"/>
<text text-anchor="middle" x="1005" y="-291.94" font-family="Helvetica,sans-Serif" font-size="10.00">AStar::reset</text>
</a>
</g>
</g>
<!-- Node15&#45;&gt;Node26 -->
<g id="edge28" class="edge">
<title>Node15&#45;&gt;Node26</title>
<path fill="none" stroke="midnightblue" d="M886.23,-270.7C911.12,-275.72 938.35,-281.21 960.35,-285.64"/>
<polygon fill="midnightblue" stroke="midnightblue" points="959.88,-289.12 970.38,-287.66 961.27,-282.26 959.88,-289.12"/>
</g>
<!-- Node15&#45;&gt;Node30 -->
<g id="edge32" class="edge">
<title>Node15&#45;&gt;Node30</title>
<path fill="none" stroke="midnightblue" d="M847.05,-241.32C860.95,-233.65 876.86,-223.42 889,-211.44 910.33,-190.4 901.17,-172.6 925,-154.44 931.48,-149.5 938.99,-145.57 946.73,-142.45"/>
<polygon fill="midnightblue" stroke="midnightblue" points="948.03,-145.7 956.26,-139.02 945.66,-139.11 948.03,-145.7"/>
</g>
<!-- Node31 -->
<g id="node31" class="node">
<title>Node31</title>
<g id="a_node31"><a xlink:href="../../d9/d58/class_touchpoint.html#a550348f9d05c347b5186b6531d583a11" target="_top" xlink:title="Mark voxel grid cells as unoccupied by the touchpoint geometry.">
<polygon fill="white" stroke="black" points="929,-322.94 929,-341.94 1081,-341.94 1081,-322.94 929,-322.94"/>
<text text-anchor="middle" x="1005" y="-329.94" font-family="Helvetica,sans-Serif" font-size="10.00">Touchpoint::unMarkOccupation</text>
</a>
</g>
</g>
<!-- Node15&#45;&gt;Node31 -->
<g id="edge33" class="edge">
<title>Node15&#45;&gt;Node31</title>
<path fill="none" stroke="midnightblue" d="M868.43,-271.58C875.55,-274.43 882.59,-277.71 889,-281.44 907.5,-292.21 906.03,-303.53 925,-313.44 929.5,-315.79 934.29,-317.85 939.2,-319.67"/>
<polygon fill="midnightblue" stroke="midnightblue" points="938.17,-323.01 948.76,-322.85 940.38,-316.37 938.17,-323.01"/>
</g>
<!-- Node16&#45;&gt;Node17 -->
<g id="edge16" class="edge">
<title>Node16&#45;&gt;Node17</title>
<path fill="none" stroke="midnightblue" d="M1054.47,-246.85C1064.76,-244.08 1075.41,-240.64 1085,-236.44 1116.61,-222.61 1149.37,-199.64 1169.6,-184.27"/>
<polygon fill="midnightblue" stroke="midnightblue" points="1171.93,-186.89 1177.71,-178 1167.65,-181.35 1171.93,-186.89"/>
</g>
<!-- Node22 -->
<g id="node22" class="node">
<title>Node22</title>
<g id="a_node22"><a xlink:href="../../d9/d58/class_touchpoint.html#a1b82f162b238396efeae6b9369430a87" target="_top" xlink:title="Mark voxel grid cells occupied / unoccupied by the touchpoint geometry.">
<polygon fill="white" stroke="black" points="1121,-336.44 1121,-366.44 1260,-366.44 1260,-336.44 1121,-336.44"/>
<text text-anchor="start" x="1129" y="-354.44" font-family="Helvetica,sans-Serif" font-size="10.00">Touchpoint::markTouchpoint</text>
<text text-anchor="middle" x="1190.5" y="-343.44" font-family="Helvetica,sans-Serif" font-size="10.00">Cells</text>
</a>
</g>
</g>
<!-- Node21&#45;&gt;Node22 -->
<g id="edge23" class="edge">
<title>Node21&#45;&gt;Node22</title>
<path fill="none" stroke="midnightblue" d="M1075.64,-363.23C1087.08,-362.05 1099.02,-360.81 1110.68,-359.6"/>
<polygon fill="midnightblue" stroke="midnightblue" points="1111.24,-363.06 1120.82,-358.55 1110.52,-356.1 1111.24,-363.06"/>
</g>
<!-- Node23 -->
<g id="node23" class="node">
<title>Node23</title>
<g id="a_node23"><a xlink:href="../../d1/d7c/namespace_utils.html#ac9b063fc04e0a4e5501c8ed0af96ac47" target="_top" xlink:title="Clamp integer value between min and max.">
<polygon fill="white" stroke="black" points="1333.5,-385.94 1333.5,-404.94 1413.5,-404.94 1413.5,-385.94 1333.5,-385.94"/>
<text text-anchor="middle" x="1373.5" y="-392.94" font-family="Helvetica,sans-Serif" font-size="10.00">Utils::clampInt</text>
</a>
</g>
</g>
<!-- Node22&#45;&gt;Node23 -->
<g id="edge24" class="edge">
<title>Node22&#45;&gt;Node23</title>
<path fill="none" stroke="midnightblue" d="M1253.28,-366.46C1276.18,-372.03 1301.82,-378.26 1323.43,-383.51"/>
<polygon fill="midnightblue" stroke="midnightblue" points="1322.83,-386.97 1333.37,-385.93 1324.48,-380.17 1322.83,-386.97"/>
</g>
<!-- Node24 -->
<g id="node24" class="node">
<title>Node24</title>
<g id="a_node24"><a xlink:href="../../d9/d58/class_touchpoint.html#a465057d2b000f7fc374d594fb8b80ce6" target="_top" xlink:title="Return the bounds of the touchpoint in world coordinates.">
<polygon fill="white" stroke="black" points="1296,-336.44 1296,-366.44 1451,-366.44 1451,-336.44 1296,-336.44"/>
<text text-anchor="start" x="1304" y="-354.44" font-family="Helvetica,sans-Serif" font-size="10.00">Touchpoint::getWorldCoordinate</text>
<text text-anchor="middle" x="1373.5" y="-343.44" font-family="Helvetica,sans-Serif" font-size="10.00">Bounds</text>
</a>
</g>
</g>
<!-- Node22&#45;&gt;Node24 -->
<g id="edge25" class="edge">
<title>Node22&#45;&gt;Node24</title>
<path fill="none" stroke="midnightblue" d="M1260.19,-351.44C1268.6,-351.44 1277.27,-351.44 1285.9,-351.44"/>
<polygon fill="midnightblue" stroke="midnightblue" points="1285.99,-354.94 1295.99,-351.44 1285.99,-347.94 1285.99,-354.94"/>
</g>
<!-- Node25 -->
<g id="node25" class="node">
<title>Node25</title>
<g id="a_node25"><a xlink:href="../../d1/d7c/namespace_utils.html#a606fb1eb5072ca20f56293fa71bd8578" target="_top" xlink:title="Compute 1D linearized index from 3D&#45;coodinate index.">
<polygon fill="white" stroke="black" points="1345.5,-297.94 1345.5,-316.94 1401.5,-316.94 1401.5,-297.94 1345.5,-297.94"/>
<text text-anchor="middle" x="1373.5" y="-304.94" font-family="Helvetica,sans-Serif" font-size="10.00">Utils::idx</text>
</a>
</g>
</g>
<!-- Node22&#45;&gt;Node25 -->
<g id="edge26" class="edge">
<title>Node22&#45;&gt;Node25</title>
<path fill="none" stroke="midnightblue" d="M1253.28,-336.42C1280.58,-329.79 1311.77,-322.21 1335.4,-316.46"/>
<polygon fill="midnightblue" stroke="midnightblue" points="1336.46,-319.8 1345.35,-314.04 1334.81,-313 1336.46,-319.8"/>
</g>
<!-- Node27 -->
<g id="node27" class="node">
<title>Node27</title>
<g id="a_node27"><a xlink:href="../../de/d52/class_a_star.html#af8f32d428d15af1c33dc9f77929299ca" target="_top" xlink:title="Resets the 3D voxel grid to it&#39;s default values.">
<polygon fill="white" stroke="black" points="1147,-256.94 1147,-275.94 1234,-275.94 1234,-256.94 1147,-256.94"/>
<text text-anchor="middle" x="1190.5" y="-263.94" font-family="Helvetica,sans-Serif" font-size="10.00">AStar::resetGrid</text>
</a>
</g>
</g>
<!-- Node26&#45;&gt;Node27 -->
<g id="edge29" class="edge">
<title>Node26&#45;&gt;Node27</title>
<path fill="none" stroke="midnightblue" d="M1039.66,-289.31C1066.71,-285.18 1105.2,-279.3 1136.4,-274.54"/>
<polygon fill="midnightblue" stroke="midnightblue" points="1137.32,-277.94 1146.68,-272.98 1136.26,-271.02 1137.32,-277.94"/>
</g>
<!-- Node28 -->
<g id="node28" class="node">
<title>Node28</title>
<g id="a_node28"><a xlink:href="../../de/d52/class_a_star.html#aadbff393646adec069b3264bed4edc9f" target="_top" xlink:title="Initializes the 3D voxel grid.">
<polygon fill="white" stroke="black" points="1334.5,-142.94 1334.5,-161.94 1412.5,-161.94 1412.5,-142.94 1334.5,-142.94"/>
<text text-anchor="middle" x="1373.5" y="-149.94" font-family="Helvetica,sans-Serif" font-size="10.00">AStar::initGrid</text>
</a>
</g>
</g>
<!-- Node27&#45;&gt;Node28 -->
<g id="edge30" class="edge">
<title>Node27&#45;&gt;Node28</title>
<path fill="none" stroke="midnightblue" d="M1206.62,-256.92C1238.03,-237.14 1310.56,-191.46 1348.45,-167.59"/>
<polygon fill="midnightblue" stroke="midnightblue" points="1350.7,-170.31 1357.3,-162.02 1346.97,-164.39 1350.7,-170.31"/>
</g>
<!-- Node29 -->
<g id="node29" class="node">
<title>Node29</title>
<g id="a_node29"><a xlink:href="../../de/d52/class_a_star.html#abc66e4863cf4c15f616098e60469e50b" target="_top" xlink:title="Compute 1D linearized index from 3D&#45;coodinate index.">
<polygon fill="white" stroke="black" points="1487,-142.94 1487,-161.94 1547,-161.94 1547,-142.94 1487,-142.94"/>
<text text-anchor="middle" x="1517" y="-149.94" font-family="Helvetica,sans-Serif" font-size="10.00">AStar::idx</text>
</a>
</g>
</g>
<!-- Node28&#45;&gt;Node29 -->
<g id="edge31" class="edge">
<title>Node28&#45;&gt;Node29</title>
<path fill="none" stroke="midnightblue" d="M1412.79,-152.44C1432.59,-152.44 1456.71,-152.44 1476.65,-152.44"/>
<polygon fill="midnightblue" stroke="midnightblue" points="1476.66,-155.94 1486.66,-152.44 1476.66,-148.94 1476.66,-155.94"/>
</g>
<!-- Node31&#45;&gt;Node22 -->
<g id="edge34" class="edge">
<title>Node31&#45;&gt;Node22</title>
<path fill="none" stroke="midnightblue" d="M1081.17,-340.22C1090.94,-341.24 1100.97,-342.28 1110.79,-343.29"/>
<polygon fill="midnightblue" stroke="midnightblue" points="1110.63,-346.79 1120.94,-344.34 1111.35,-339.83 1110.63,-346.79"/>
</g>
<!-- Node34 -->
<g id="node34" class="node">
<title>Node34</title>
<g id="a_node34"><a xlink:href="../../dc/d6d/class_g_a_optimizer.html#a94b1a8965fe73191c12f3c070f21746e" target="_top" xlink:title="Create a new individual (via shuffeling)">
<polygon fill="white" stroke="black" points="553,-372.94 553,-391.94 700,-391.94 700,-372.94 553,-372.94"/>
<text text-anchor="middle" x="626.5" y="-379.94" font-family="Helvetica,sans-Serif" font-size="10.00">GAOptimizer::createIndividual</text>
</a>
</g>
</g>
<!-- Node33&#45;&gt;Node34 -->
<g id="edge37" class="edge">
<title>Node33&#45;&gt;Node34</title>
<path fill="none" stroke="midnightblue" d="M477.21,-353.98C504.04,-359.13 537.36,-365.53 565.61,-370.95"/>
<polygon fill="midnightblue" stroke="midnightblue" points="565.29,-374.45 575.77,-372.9 566.61,-367.58 565.29,-374.45"/>
</g>
<!-- Node34&#45;&gt;Node9 -->
<g id="edge38" class="edge">
<title>Node34&#45;&gt;Node9</title>
<path fill="none" stroke="midnightblue" d="M700.21,-382.44C712.99,-382.44 726.32,-382.44 739.14,-382.44"/>
<polygon fill="midnightblue" stroke="midnightblue" points="739.3,-385.94 749.3,-382.44 739.3,-378.94 739.3,-385.94"/>
</g>
<!-- Node35&#45;&gt;Node20 -->
<g id="edge43" class="edge">
<title>Node35&#45;&gt;Node20</title>
<path fill="none" stroke="midnightblue" d="M844.54,-54.44C869.89,-54.44 907.58,-54.44 939.95,-54.44"/>
<polygon fill="midnightblue" stroke="midnightblue" points="940.25,-57.94 950.25,-54.44 940.25,-50.94 940.25,-57.94"/>
</g>
<!-- Node35&#45;&gt;Node28 -->
<g id="edge44" class="edge">
<title>Node35&#45;&gt;Node28</title>
<path fill="none" stroke="midnightblue" d="M844.52,-47.46C894.24,-36.6 998.69,-18.55 1085,-35.44 1186.64,-55.33 1297.71,-111.3 1346.76,-137.96"/>
<polygon fill="midnightblue" stroke="midnightblue" points="1345.27,-141.14 1355.72,-142.89 1348.64,-135.01 1345.27,-141.14"/>
</g>
</g>
</svg>
