<?xml version="1.0" encoding="UTF-8" standalone="no"?>
<!DOCTYPE svg PUBLIC "-//W3C//DTD SVG 1.1//EN"
 "http://www.w3.org/Graphics/SVG/1.1/DTD/svg11.dtd">
<!-- Generated by graphviz version 2.44.0 (0)
 -->
<!-- Title: MeshBooleanOperationFilter::setInputData0 Pages: 1 -->
<svg width="311pt" height="66pt"
 viewBox="0.00 0.00 311.00 66.00" xmlns="http://www.w3.org/2000/svg" xmlns:xlink="http://www.w3.org/1999/xlink">
<g id="graph0" class="graph" transform="scale(1 1) rotate(0) translate(4 62)">
<title>MeshBooleanOperationFilter::setInputData0</title>
<polygon fill="white" stroke="transparent" points="-4,4 -4,-62 307,-62 307,4 -4,4"/>
<!-- Node1 -->
<g id="node1" class="node">
<title>Node1</title>
<g id="a_node1"><a xlink:title="Set input geometry of mesh 0.">
<polygon fill="#bfbfbf" stroke="black" points="163,-14 163,-44 303,-44 303,-14 163,-14"/>
<text text-anchor="start" x="171" y="-32" font-family="Helvetica,sans-Serif" font-size="10.00">MeshBooleanOperationFilter</text>
<text text-anchor="middle" x="233" y="-21" font-family="Helvetica,sans-Serif" font-size="10.00">::setInputData0</text>
</a>
</g>
</g>
<!-- Node2 -->
<g id="node2" class="node">
<title>Node2</title>
<g id="a_node2"><a xlink:href="../../d9/d00/class_p_s_interface_tool.html#aa26bf20d4e597f64df960e4c1a5c3a69" target="_top" xlink:title=" ">
<polygon fill="white" stroke="black" points="0,-38.5 0,-57.5 127,-57.5 127,-38.5 0,-38.5"/>
<text text-anchor="middle" x="63.5" y="-45.5" font-family="Helvetica,sans-Serif" font-size="10.00">PSInterfaceTool::execute</text>
</a>
</g>
</g>
<!-- Node1&#45;&gt;Node2 -->
<g id="edge1" class="edge">
<title>Node1&#45;&gt;Node2</title>
<path fill="none" stroke="midnightblue" d="M152.87,-37.98C144.28,-38.95 135.62,-39.93 127.26,-40.88"/>
<polygon fill="midnightblue" stroke="midnightblue" points="153.36,-41.44 162.9,-36.84 152.57,-34.49 153.36,-41.44"/>
</g>
<!-- Node3 -->
<g id="node3" class="node">
<title>Node3</title>
<g id="a_node3"><a xlink:href="../../dd/d00/class_export_s_t_l_tool.html#a218420198ac8fef5b9f9a8acc889307d" target="_top" xlink:title=" ">
<polygon fill="white" stroke="black" points="3,-0.5 3,-19.5 124,-19.5 124,-0.5 3,-0.5"/>
<text text-anchor="middle" x="63.5" y="-7.5" font-family="Helvetica,sans-Serif" font-size="10.00">ExportSTLTool::execute</text>
</a>
</g>
</g>
<!-- Node1&#45;&gt;Node3 -->
<g id="edge2" class="edge">
<title>Node1&#45;&gt;Node3</title>
<path fill="none" stroke="midnightblue" d="M152.86,-20.02C143.18,-18.92 133.41,-17.82 124.08,-16.76"/>
<polygon fill="midnightblue" stroke="midnightblue" points="152.57,-23.51 162.9,-21.16 153.36,-16.56 152.57,-23.51"/>
</g>
</g>
</svg>
