<?xml version="1.0" encoding="UTF-8" standalone="no"?>
<!DOCTYPE svg PUBLIC "-//W3C//DTD SVG 1.1//EN"
 "http://www.w3.org/Graphics/SVG/1.1/DTD/svg11.dtd">
<!-- Generated by graphviz version 2.44.1 (0)
 -->
<!-- Title: Component Pages: 1 -->
<svg width="314pt" height="718pt"
 viewBox="0.00 0.00 314.00 718.00" xmlns="http://www.w3.org/2000/svg" xmlns:xlink="http://www.w3.org/1999/xlink">
<g id="graph0" class="graph" transform="scale(1 1) rotate(0) translate(4 714)">
<title>Component</title>
<polygon fill="white" stroke="transparent" points="-4,4 -4,-714 310,-714 310,4 -4,4"/>
<!-- Node1 -->
<g id="node1" class="node">
<title>Node1</title>
<g id="a_node1"><a xlink:title="3D&#45;Printing construction component which is not of type wiring, touchpoint or connector.">
<polygon fill="#bfbfbf" stroke="black" points="12.5,-0.5 12.5,-255.5 179.5,-255.5 179.5,-0.5 12.5,-0.5"/>
<text text-anchor="middle" x="96" y="-243.5" font-family="Helvetica,sans-Serif" font-size="10.00">Component</text>
<polyline fill="none" stroke="black" points="12.5,-236.5 179.5,-236.5 "/>
<text text-anchor="start" x="20.5" y="-224.5" font-family="Helvetica,sans-Serif" font-size="10.00">&#45; id</text>
<text text-anchor="start" x="20.5" y="-213.5" font-family="Helvetica,sans-Serif" font-size="10.00">&#45; componentPolyData</text>
<text text-anchor="start" x="20.5" y="-202.5" font-family="Helvetica,sans-Serif" font-size="10.00">&#45; componentActor</text>
<polyline fill="none" stroke="black" points="12.5,-195.5 179.5,-195.5 "/>
<text text-anchor="start" x="20.5" y="-183.5" font-family="Helvetica,sans-Serif" font-size="10.00">+ Component()</text>
<text text-anchor="start" x="20.5" y="-172.5" font-family="Helvetica,sans-Serif" font-size="10.00">+ setID()</text>
<text text-anchor="start" x="20.5" y="-161.5" font-family="Helvetica,sans-Serif" font-size="10.00">+ getID()</text>
<text text-anchor="start" x="20.5" y="-150.5" font-family="Helvetica,sans-Serif" font-size="10.00">+ getComponentPolyData()</text>
<text text-anchor="start" x="20.5" y="-139.5" font-family="Helvetica,sans-Serif" font-size="10.00">+ setComponentPolyData()</text>
<text text-anchor="start" x="20.5" y="-128.5" font-family="Helvetica,sans-Serif" font-size="10.00">+ getComponentActor()</text>
<text text-anchor="start" x="20.5" y="-117.5" font-family="Helvetica,sans-Serif" font-size="10.00">+ setComponentActor()</text>
<text text-anchor="start" x="20.5" y="-106.5" font-family="Helvetica,sans-Serif" font-size="10.00">+ getTouchpoints()</text>
<text text-anchor="start" x="20.5" y="-95.5" font-family="Helvetica,sans-Serif" font-size="10.00">+ getMagnets()</text>
<text text-anchor="start" x="20.5" y="-84.5" font-family="Helvetica,sans-Serif" font-size="10.00">+ setMagnets()</text>
<text text-anchor="start" x="20.5" y="-73.5" font-family="Helvetica,sans-Serif" font-size="10.00">+ addTouchpointID()</text>
<text text-anchor="start" x="20.5" y="-62.5" font-family="Helvetica,sans-Serif" font-size="10.00">+ addMagnetID()</text>
<text text-anchor="start" x="20.5" y="-51.5" font-family="Helvetica,sans-Serif" font-size="10.00">+ addOpenSCADSubComponent()</text>
<text text-anchor="start" x="20.5" y="-40.5" font-family="Helvetica,sans-Serif" font-size="10.00">+ getNumberOfSubcomponents()</text>
<text text-anchor="start" x="20.5" y="-29.5" font-family="Helvetica,sans-Serif" font-size="10.00">+ getSubcomponent()</text>
<text text-anchor="start" x="20.5" y="-18.5" font-family="Helvetica,sans-Serif" font-size="10.00">+ getSubcomponents()</text>
<text text-anchor="start" x="20.5" y="-7.5" font-family="Helvetica,sans-Serif" font-size="10.00">+ setSubcomponents()</text>
</a>
</g>
</g>
<!-- Node2 -->
<g id="node2" class="node">
<title>Node2</title>
<g id="a_node2"><a xlink:title=" ">
<polygon fill="white" stroke="#bfbfbf" points="0,-320 0,-377 116,-377 116,-320 0,-320"/>
<text text-anchor="middle" x="58" y="-365" font-family="Helvetica,sans-Serif" font-size="10.00">std::vector&lt; uintptr_t &gt;</text>
<polyline fill="none" stroke="#bfbfbf" points="0,-358 116,-358 "/>
<text text-anchor="start" x="8" y="-346" font-family="Helvetica,sans-Serif" font-size="10.00">+ elements</text>
<polyline fill="none" stroke="#bfbfbf" points="0,-339 116,-339 "/>
<text text-anchor="middle" x="58" y="-327" font-family="Helvetica,sans-Serif" font-size="10.00"> </text>
</a>
</g>
</g>
<!-- Node2&#45;&gt;Node1 -->
<g id="edge1" class="edge">
<title>Node2&#45;&gt;Node1</title>
<path fill="none" stroke="#404040" d="M62.81,-319.83C65.26,-305.78 68.42,-287.56 71.83,-267.95"/>
<polygon fill="none" stroke="#404040" points="71.87,-267.75 68.96,-261.16 73.92,-255.93 76.84,-262.53 71.87,-267.75"/>
<text text-anchor="middle" x="98" y="-288" font-family="Helvetica,sans-Serif" font-size="10.00"> &#45;magnets</text>
<text text-anchor="middle" x="98" y="-277" font-family="Helvetica,sans-Serif" font-size="10.00">&#45;touchpoints</text>
</g>
<!-- Node3 -->
<g id="node3" class="node">
<title>Node3</title>
<g id="a_node3"><a xlink:title=" ">
<polygon fill="white" stroke="#bfbfbf" points="134.5,-314.5 134.5,-382.5 285.5,-382.5 285.5,-314.5 134.5,-314.5"/>
<text text-anchor="start" x="142.5" y="-370.5" font-family="Helvetica,sans-Serif" font-size="10.00">std::vector&lt; Component</text>
<text text-anchor="middle" x="210" y="-359.5" font-family="Helvetica,sans-Serif" font-size="10.00">::OpenSCADSubComponent &gt;</text>
<polyline fill="none" stroke="#bfbfbf" points="134.5,-352.5 285.5,-352.5 "/>
<text text-anchor="middle" x="210" y="-340.5" font-family="Helvetica,sans-Serif" font-size="10.00"> </text>
<polyline fill="none" stroke="#bfbfbf" points="134.5,-333.5 285.5,-333.5 "/>
<text text-anchor="middle" x="210" y="-321.5" font-family="Helvetica,sans-Serif" font-size="10.00"> </text>
</a>
</g>
</g>
<!-- Node3&#45;&gt;Node1 -->
<g id="edge2" class="edge">
<title>Node3&#45;&gt;Node1</title>
<path fill="none" stroke="#404040" d="M192.69,-314.31C185.67,-300.87 177.06,-284.37 167.9,-266.82"/>
<polygon fill="none" stroke="#404040" points="167.69,-266.41 161.37,-262.94 162.14,-255.77 168.46,-259.24 167.69,-266.41"/>
<text text-anchor="middle" x="220" y="-282.5" font-family="Helvetica,sans-Serif" font-size="10.00"> &#45;subcomponents</text>
</g>
<!-- Node4 -->
<g id="node4" class="node">
<title>Node4</title>
<g id="a_node4"><a xlink:href="../../d3/dbe/struct_component_1_1_open_s_c_a_d_sub_component.html" target="_top" xlink:title="OpenSCAD Code container for subcomponents.">
<polygon fill="white" stroke="black" points="114,-430.5 114,-487.5 306,-487.5 306,-430.5 114,-430.5"/>
<text text-anchor="middle" x="210" y="-475.5" font-family="Helvetica,sans-Serif" font-size="10.00">Component::OpenSCADSubComponent</text>
<polyline fill="none" stroke="black" points="114,-468.5 306,-468.5 "/>
<text text-anchor="middle" x="210" y="-456.5" font-family="Helvetica,sans-Serif" font-size="10.00"> </text>
<polyline fill="none" stroke="black" points="114,-449.5 306,-449.5 "/>
<text text-anchor="middle" x="210" y="-437.5" font-family="Helvetica,sans-Serif" font-size="10.00"> </text>
</a>
</g>
</g>
<!-- Node4&#45;&gt;Node3 -->
<g id="edge3" class="edge">
<title>Node4&#45;&gt;Node3</title>
<path fill="none" stroke="#404040" d="M210,-430.34C210,-419.53 210,-406.85 210,-394.77"/>
<polygon fill="none" stroke="#404040" points="210,-394.52 206,-388.52 210,-382.52 214,-388.52 210,-394.52"/>
<text text-anchor="middle" x="234.5" y="-404" font-family="Helvetica,sans-Serif" font-size="10.00"> +elements</text>
</g>
<!-- Node5 -->
<g id="node5" class="node">
<title>Node5</title>
<g id="a_node5"><a xlink:title="STL class.">
<polygon fill="white" stroke="#bfbfbf" points="180,-546.5 180,-603.5 240,-603.5 240,-546.5 180,-546.5"/>
<text text-anchor="middle" x="210" y="-591.5" font-family="Helvetica,sans-Serif" font-size="10.00">std::string</text>
<polyline fill="none" stroke="#bfbfbf" points="180,-584.5 240,-584.5 "/>
<text text-anchor="middle" x="210" y="-572.5" font-family="Helvetica,sans-Serif" font-size="10.00"> </text>
<polyline fill="none" stroke="#bfbfbf" points="180,-565.5 240,-565.5 "/>
<text text-anchor="middle" x="210" y="-553.5" font-family="Helvetica,sans-Serif" font-size="10.00"> </text>
</a>
</g>
</g>
<!-- Node5&#45;&gt;Node4 -->
<g id="edge4" class="edge">
<title>Node5&#45;&gt;Node4</title>
<path fill="none" stroke="#404040" d="M210,-546.4C210,-532.5 210,-515.39 210,-500.07"/>
<polygon fill="none" stroke="#404040" points="210,-499.74 206,-493.74 210,-487.74 214,-493.74 210,-499.74"/>
<text text-anchor="middle" x="248" y="-520" font-family="Helvetica,sans-Serif" font-size="10.00"> +openScadCode</text>
<text text-anchor="middle" x="248" y="-509" font-family="Helvetica,sans-Serif" font-size="10.00">+fileName</text>
</g>
<!-- Node6 -->
<g id="node6" class="node">
<title>Node6</title>
<g id="a_node6"><a xlink:title="STL class.">
<polygon fill="white" stroke="#bfbfbf" points="162.5,-641.5 162.5,-709.5 257.5,-709.5 257.5,-641.5 162.5,-641.5"/>
<text text-anchor="start" x="170.5" y="-697.5" font-family="Helvetica,sans-Serif" font-size="10.00">std::basic_string&lt;</text>
<text text-anchor="middle" x="210" y="-686.5" font-family="Helvetica,sans-Serif" font-size="10.00"> char &gt;</text>
<polyline fill="none" stroke="#bfbfbf" points="162.5,-679.5 257.5,-679.5 "/>
<text text-anchor="middle" x="210" y="-667.5" font-family="Helvetica,sans-Serif" font-size="10.00"> </text>
<polyline fill="none" stroke="#bfbfbf" points="162.5,-660.5 257.5,-660.5 "/>
<text text-anchor="middle" x="210" y="-648.5" font-family="Helvetica,sans-Serif" font-size="10.00"> </text>
</a>
</g>
</g>
<!-- Node6&#45;&gt;Node5 -->
<g id="edge5" class="edge">
<title>Node6&#45;&gt;Node5</title>
<path fill="none" stroke="midnightblue" d="M210,-631.38C210,-621.94 210,-612.2 210,-603.57"/>
<polygon fill="none" stroke="midnightblue" points="206.5,-631.43 210,-641.43 213.5,-631.43 206.5,-631.43"/>
</g>
</g>
</svg>
