<?xml version="1.0" encoding="UTF-8" standalone="no"?>
<!DOCTYPE svg PUBLIC "-//W3C//DTD SVG 1.1//EN"
 "http://www.w3.org/Graphics/SVG/1.1/DTD/svg11.dtd">
<!-- Generated by graphviz version 2.44.0 (0)
 -->
<!-- Title: vtkSurfaceBase::InsertEdgeInRing Pages: 1 -->
<svg width="320pt" height="88pt"
 viewBox="0.00 0.00 320.00 88.00" xmlns="http://www.w3.org/2000/svg" xmlns:xlink="http://www.w3.org/1999/xlink">
<g id="graph0" class="graph" transform="scale(1 1) rotate(0) translate(4 84)">
<title>vtkSurfaceBase::InsertEdgeInRing</title>
<polygon fill="white" stroke="transparent" points="-4,4 -4,-84 316,-84 316,4 -4,4"/>
<!-- Node1 -->
<g id="node1" class="node">
<title>Node1</title>
<g id="a_node1"><a xlink:title="inserts the edge e1 in the ring of v1">
<polygon fill="#bfbfbf" stroke="black" points="0,-24.5 0,-54.5 140,-54.5 140,-24.5 0,-24.5"/>
<text text-anchor="start" x="8" y="-42.5" font-family="Helvetica,sans-Serif" font-size="10.00">vtkSurfaceBase::InsertEdge</text>
<text text-anchor="middle" x="70" y="-31.5" font-family="Helvetica,sans-Serif" font-size="10.00">InRing</text>
</a>
</g>
</g>
<!-- Node2 -->
<g id="node2" class="node">
<title>Node2</title>
<g id="a_node2"><a xlink:href="../../d3/d13/classvtk_surface_base.html#ac6bf9896f86fffac680b5983649d7fea" target="_top" xlink:title=" ">
<polygon fill="white" stroke="black" points="180,-49.5 180,-79.5 308,-79.5 308,-49.5 180,-49.5"/>
<text text-anchor="start" x="188" y="-67.5" font-family="Helvetica,sans-Serif" font-size="10.00">vtkSurfaceBase::Allocate</text>
<text text-anchor="middle" x="244" y="-56.5" font-family="Helvetica,sans-Serif" font-size="10.00">VerticesAttributes</text>
</a>
</g>
</g>
<!-- Node1&#45;&gt;Node2 -->
<g id="edge1" class="edge">
<title>Node1&#45;&gt;Node2</title>
<path fill="none" stroke="midnightblue" d="M140.46,-49.6C150.15,-51 160.13,-52.45 169.88,-53.87"/>
<polygon fill="midnightblue" stroke="midnightblue" points="169.54,-57.36 179.94,-55.33 170.55,-50.43 169.54,-57.36"/>
</g>
<!-- Node3 -->
<g id="node3" class="node">
<title>Node3</title>
<g id="a_node3"><a xlink:href="../../d3/d13/classvtk_surface_base.html#a10d9a9c6daefe1c004e27eba5d464738" target="_top" xlink:title="Returns the list of edges adjacent to the point v1.">
<polygon fill="white" stroke="black" points="176,-0.5 176,-30.5 312,-30.5 312,-0.5 176,-0.5"/>
<text text-anchor="start" x="184" y="-18.5" font-family="Helvetica,sans-Serif" font-size="10.00">vtkSurfaceBase::GetVertex</text>
<text text-anchor="middle" x="244" y="-7.5" font-family="Helvetica,sans-Serif" font-size="10.00">NeighbourEdges</text>
</a>
</g>
</g>
<!-- Node1&#45;&gt;Node3 -->
<g id="edge2" class="edge">
<title>Node1&#45;&gt;Node3</title>
<path fill="none" stroke="midnightblue" d="M140.46,-29.81C148.75,-28.65 157.25,-27.47 165.63,-26.3"/>
<polygon fill="midnightblue" stroke="midnightblue" points="166.37,-29.73 175.79,-24.88 165.4,-22.79 166.37,-29.73"/>
</g>
</g>
</svg>
