<?xml version="1.0" encoding="UTF-8" standalone="no"?>
<!DOCTYPE svg PUBLIC "-//W3C//DTD SVG 1.1//EN"
 "http://www.w3.org/Graphics/SVG/1.1/DTD/svg11.dtd">
<!-- Generated by graphviz version 2.44.0 (0)
 -->
<!-- Title: vtkSurfaceBase::DeleteFace Pages: 1 -->
<svg width="342pt" height="104pt"
 viewBox="0.00 0.00 342.00 104.00" xmlns="http://www.w3.org/2000/svg" xmlns:xlink="http://www.w3.org/1999/xlink">
<g id="graph0" class="graph" transform="scale(1 1) rotate(0) translate(4 100)">
<title>vtkSurfaceBase::DeleteFace</title>
<polygon fill="white" stroke="transparent" points="-4,4 -4,-100 338,-100 338,4 -4,4"/>
<!-- Node1 -->
<g id="node1" class="node">
<title>Node1</title>
<g id="a_node1"><a xlink:title="Deletes the face f1, possibly its adjacent edges and vertices if they are free and is CleanVertices a...">
<polygon fill="#bfbfbf" stroke="black" points="191,-38.5 191,-57.5 334,-57.5 334,-38.5 191,-38.5"/>
<text text-anchor="middle" x="262.5" y="-45.5" font-family="Helvetica,sans-Serif" font-size="10.00">vtkSurfaceBase::DeleteFace</text>
</a>
</g>
</g>
<!-- Node2 -->
<g id="node2" class="node">
<title>Node2</title>
<g id="a_node2"><a xlink:href="../../d3/d13/classvtk_surface_base.html#a343111e4b8b0103bf1f5d6d29fc41c18" target="_top" xlink:title="Merge the two input vertices v1 and v2.">
<polygon fill="white" stroke="black" points="0,-76.5 0,-95.5 155,-95.5 155,-76.5 0,-76.5"/>
<text text-anchor="middle" x="77.5" y="-83.5" font-family="Helvetica,sans-Serif" font-size="10.00">vtkSurfaceBase::MergeVertices</text>
</a>
</g>
</g>
<!-- Node1&#45;&gt;Node2 -->
<g id="edge1" class="edge">
<title>Node1&#45;&gt;Node2</title>
<path fill="none" stroke="midnightblue" d="M205.25,-59.68C179.29,-65.07 148.88,-71.39 124.35,-76.48"/>
<polygon fill="midnightblue" stroke="midnightblue" points="206.24,-63.05 215.32,-57.59 204.82,-56.2 206.24,-63.05"/>
</g>
<!-- Node3 -->
<g id="node3" class="node">
<title>Node3</title>
<g id="a_node3"><a xlink:href="../../d1/dfa/classvtk_surface.html#aeb1922c987d5fdcebe1b680d82db9087" target="_top" xlink:title="Recusrsively splits the edges longer than Ratio*AverageLength.">
<polygon fill="white" stroke="black" points="8.5,-38.5 8.5,-57.5 146.5,-57.5 146.5,-38.5 8.5,-38.5"/>
<text text-anchor="middle" x="77.5" y="-45.5" font-family="Helvetica,sans-Serif" font-size="10.00">vtkSurface::SplitLongEdges</text>
</a>
</g>
</g>
<!-- Node1&#45;&gt;Node3 -->
<g id="edge2" class="edge">
<title>Node1&#45;&gt;Node3</title>
<path fill="none" stroke="midnightblue" d="M180.46,-48C169.18,-48 157.68,-48 146.66,-48"/>
<polygon fill="midnightblue" stroke="midnightblue" points="180.75,-51.5 190.75,-48 180.75,-44.5 180.75,-51.5"/>
</g>
<!-- Node4 -->
<g id="node4" class="node">
<title>Node4</title>
<g id="a_node4"><a xlink:href="../../d1/dfa/classvtk_surface.html#a8871f6a866295a51c983283a4ccc0a9d" target="_top" xlink:title="subdivide the mesh (in place)">
<polygon fill="white" stroke="black" points="4.5,-0.5 4.5,-19.5 150.5,-19.5 150.5,-0.5 4.5,-0.5"/>
<text text-anchor="middle" x="77.5" y="-7.5" font-family="Helvetica,sans-Serif" font-size="10.00">vtkSurface::SubdivideInPlace</text>
</a>
</g>
</g>
<!-- Node1&#45;&gt;Node4 -->
<g id="edge3" class="edge">
<title>Node1&#45;&gt;Node4</title>
<path fill="none" stroke="midnightblue" d="M205.25,-36.32C179.29,-30.93 148.88,-24.61 124.35,-19.52"/>
<polygon fill="midnightblue" stroke="midnightblue" points="204.82,-39.8 215.32,-38.41 206.24,-32.95 204.82,-39.8"/>
</g>
</g>
</svg>
