<?xml version="1.0" encoding="UTF-8" standalone="no"?>
<!DOCTYPE svg PUBLIC "-//W3C//DTD SVG 1.1//EN"
 "http://www.w3.org/Graphics/SVG/1.1/DTD/svg11.dtd">
<!-- Generated by graphviz version 2.44.0 (0)
 -->
<!-- Title: vtkSurfaceBase::DeleteEdge Pages: 1 -->
<svg width="538pt" height="154pt"
 viewBox="0.00 0.00 538.00 154.00" xmlns="http://www.w3.org/2000/svg" xmlns:xlink="http://www.w3.org/1999/xlink">
<g id="graph0" class="graph" transform="scale(1 1) rotate(0) translate(4 150)">
<title>vtkSurfaceBase::DeleteEdge</title>
<polygon fill="white" stroke="transparent" points="-4,4 -4,-150 534,-150 534,4 -4,4"/>
<!-- Node1 -->
<g id="node1" class="node">
<title>Node1</title>
<g id="a_node1"><a xlink:title="Deletes the free edge e1 and possibly its vertices if they are free.">
<polygon fill="#bfbfbf" stroke="black" points="0,-44.5 0,-63.5 143,-63.5 143,-44.5 0,-44.5"/>
<text text-anchor="middle" x="71.5" y="-51.5" font-family="Helvetica,sans-Serif" font-size="10.00">vtkSurfaceBase::DeleteEdge</text>
</a>
</g>
</g>
<!-- Node2 -->
<g id="node2" class="node">
<title>Node2</title>
<g id="a_node2"><a xlink:href="../../d3/d13/classvtk_surface_base.html#aa880815b0dd0315f0b0716dc7b7f16b2" target="_top" xlink:title="deletes the vertex if it is not connected uneffective if CleanVertices is set to 0">
<polygon fill="white" stroke="black" points="189,-88.5 189,-107.5 335,-107.5 335,-88.5 189,-88.5"/>
<text text-anchor="middle" x="262" y="-95.5" font-family="Helvetica,sans-Serif" font-size="10.00">vtkSurfaceBase::CleanVertex</text>
</a>
</g>
</g>
<!-- Node1&#45;&gt;Node2 -->
<g id="edge1" class="edge">
<title>Node1&#45;&gt;Node2</title>
<path fill="none" stroke="midnightblue" d="M113.4,-63.55C141.81,-70.18 179.86,-79.06 210.21,-86.14"/>
<polygon fill="midnightblue" stroke="midnightblue" points="209.64,-89.61 220.18,-88.47 211.24,-82.79 209.64,-89.61"/>
</g>
<!-- Node5 -->
<g id="node5" class="node">
<title>Node5</title>
<g id="a_node5"><a xlink:href="../../d3/d13/classvtk_surface_base.html#ae63b7ea41f949bf8b801ba46b3828f2e" target="_top" xlink:title="removes the edge e1 from the ring of v1">
<polygon fill="white" stroke="black" points="190.5,-39 190.5,-69 333.5,-69 333.5,-39 190.5,-39"/>
<text text-anchor="start" x="198.5" y="-57" font-family="Helvetica,sans-Serif" font-size="10.00">vtkSurfaceBase::DeleteEdge</text>
<text text-anchor="middle" x="262" y="-46" font-family="Helvetica,sans-Serif" font-size="10.00">InRing</text>
</a>
</g>
</g>
<!-- Node1&#45;&gt;Node5 -->
<g id="edge4" class="edge">
<title>Node1&#45;&gt;Node5</title>
<path fill="none" stroke="midnightblue" d="M143.23,-54C155.22,-54 167.77,-54 180,-54"/>
<polygon fill="midnightblue" stroke="midnightblue" points="180.19,-57.5 190.19,-54 180.19,-50.5 180.19,-57.5"/>
</g>
<!-- Node7 -->
<g id="node7" class="node">
<title>Node7</title>
<g id="a_node7"><a xlink:href="../../d3/d13/classvtk_surface_base.html#a6d0fece7168e91590325097ee7a320a2" target="_top" xlink:title="Returns v1 and v2 as the vertices bounding the edge.">
<polygon fill="white" stroke="black" points="179,-0.5 179,-19.5 345,-19.5 345,-0.5 179,-0.5"/>
<text text-anchor="middle" x="262" y="-7.5" font-family="Helvetica,sans-Serif" font-size="10.00">vtkSurfaceBase::GetEdgeVertices</text>
</a>
</g>
</g>
<!-- Node1&#45;&gt;Node7 -->
<g id="edge6" class="edge">
<title>Node1&#45;&gt;Node7</title>
<path fill="none" stroke="midnightblue" d="M112.95,-44.48C132.84,-39.8 157.17,-34.09 179,-29 188.93,-26.68 199.53,-24.22 209.71,-21.86"/>
<polygon fill="midnightblue" stroke="midnightblue" points="210.75,-25.21 219.7,-19.55 209.17,-18.39 210.75,-25.21"/>
</g>
<!-- Node3 -->
<g id="node3" class="node">
<title>Node3</title>
<g id="a_node3"><a xlink:href="../../d3/d13/classvtk_surface_base.html#a49e78891f9e8280362f9a6919ec0aec1" target="_top" xlink:title="Deletes the FREE vertex v1 free means not connected to any higher order element.">
<polygon fill="white" stroke="black" points="381,-126.5 381,-145.5 530,-145.5 530,-126.5 381,-126.5"/>
<text text-anchor="middle" x="455.5" y="-133.5" font-family="Helvetica,sans-Serif" font-size="10.00">vtkSurfaceBase::DeleteVertex</text>
</a>
</g>
</g>
<!-- Node2&#45;&gt;Node3 -->
<g id="edge2" class="edge">
<title>Node2&#45;&gt;Node3</title>
<path fill="none" stroke="midnightblue" d="M311.32,-107.59C337.16,-112.72 369.17,-119.07 396.36,-124.46"/>
<polygon fill="midnightblue" stroke="midnightblue" points="396.03,-127.97 406.52,-126.48 397.4,-121.1 396.03,-127.97"/>
</g>
<!-- Node4 -->
<g id="node4" class="node">
<title>Node4</title>
<g id="a_node4"><a xlink:href="../../d3/d13/classvtk_surface_base.html#a310ee566afcb88b7672ea6abf2d9f098" target="_top" xlink:title="Returns the valence of the Point V1 i.e. its number of adjacent Points.">
<polygon fill="white" stroke="black" points="384,-88.5 384,-107.5 527,-107.5 527,-88.5 384,-88.5"/>
<text text-anchor="middle" x="455.5" y="-95.5" font-family="Helvetica,sans-Serif" font-size="10.00">vtkSurfaceBase::GetValence</text>
</a>
</g>
</g>
<!-- Node2&#45;&gt;Node4 -->
<g id="edge3" class="edge">
<title>Node2&#45;&gt;Node4</title>
<path fill="none" stroke="midnightblue" d="M335.13,-98C347.67,-98 360.8,-98 373.57,-98"/>
<polygon fill="midnightblue" stroke="midnightblue" points="373.71,-101.5 383.71,-98 373.71,-94.5 373.71,-101.5"/>
</g>
<!-- Node6 -->
<g id="node6" class="node">
<title>Node6</title>
<g id="a_node6"><a xlink:href="../../d3/d13/classvtk_surface_base.html#a10d9a9c6daefe1c004e27eba5d464738" target="_top" xlink:title="Returns the list of edges adjacent to the point v1.">
<polygon fill="white" stroke="black" points="387.5,-39 387.5,-69 523.5,-69 523.5,-39 387.5,-39"/>
<text text-anchor="start" x="395.5" y="-57" font-family="Helvetica,sans-Serif" font-size="10.00">vtkSurfaceBase::GetVertex</text>
<text text-anchor="middle" x="455.5" y="-46" font-family="Helvetica,sans-Serif" font-size="10.00">NeighbourEdges</text>
</a>
</g>
</g>
<!-- Node5&#45;&gt;Node6 -->
<g id="edge5" class="edge">
<title>Node5&#45;&gt;Node6</title>
<path fill="none" stroke="midnightblue" d="M333.76,-54C347.82,-54 362.66,-54 376.93,-54"/>
<polygon fill="midnightblue" stroke="midnightblue" points="377.21,-57.5 387.21,-54 377.21,-50.5 377.21,-57.5"/>
</g>
</g>
</svg>
