<?xml version="1.0" encoding="UTF-8" standalone="no"?>
<!DOCTYPE svg PUBLIC "-//W3C//DTD SVG 1.1//EN"
 "http://www.w3.org/Graphics/SVG/1.1/DTD/svg11.dtd">
<!-- Generated by graphviz version 2.44.0 (0)
 -->
<!-- Title: vtkSurfaceBase::CleanEdge Pages: 1 -->
<svg width="714pt" height="154pt"
 viewBox="0.00 0.00 714.00 154.00" xmlns="http://www.w3.org/2000/svg" xmlns:xlink="http://www.w3.org/1999/xlink">
<g id="graph0" class="graph" transform="scale(1 1) rotate(0) translate(4 150)">
<title>vtkSurfaceBase::CleanEdge</title>
<polygon fill="white" stroke="transparent" points="-4,4 -4,-150 710,-150 710,4 -4,4"/>
<!-- Node1 -->
<g id="node1" class="node">
<title>Node1</title>
<g id="a_node1"><a xlink:title="deletes the edge if it is adjacent to no polygon uneffective if CleanEdges is set to 0">
<polygon fill="#bfbfbf" stroke="black" points="0,-44.5 0,-63.5 140,-63.5 140,-44.5 0,-44.5"/>
<text text-anchor="middle" x="70" y="-51.5" font-family="Helvetica,sans-Serif" font-size="10.00">vtkSurfaceBase::CleanEdge</text>
</a>
</g>
</g>
<!-- Node2 -->
<g id="node2" class="node">
<title>Node2</title>
<g id="a_node2"><a xlink:href="../../d3/d13/classvtk_surface_base.html#a46f5c7e99dfcbc87899fa82ddec0a8cc" target="_top" xlink:title="Deletes the free edge e1 and possibly its vertices if they are free.">
<polygon fill="white" stroke="black" points="176,-44.5 176,-63.5 319,-63.5 319,-44.5 176,-44.5"/>
<text text-anchor="middle" x="247.5" y="-51.5" font-family="Helvetica,sans-Serif" font-size="10.00">vtkSurfaceBase::DeleteEdge</text>
</a>
</g>
</g>
<!-- Node1&#45;&gt;Node2 -->
<g id="edge1" class="edge">
<title>Node1&#45;&gt;Node2</title>
<path fill="none" stroke="midnightblue" d="M140.11,-54C148.43,-54 156.98,-54 165.45,-54"/>
<polygon fill="midnightblue" stroke="midnightblue" points="165.72,-57.5 175.72,-54 165.72,-50.5 165.72,-57.5"/>
</g>
<!-- Node3 -->
<g id="node3" class="node">
<title>Node3</title>
<g id="a_node3"><a xlink:href="../../d3/d13/classvtk_surface_base.html#aa880815b0dd0315f0b0716dc7b7f16b2" target="_top" xlink:title="deletes the vertex if it is not connected uneffective if CleanVertices is set to 0">
<polygon fill="white" stroke="black" points="365,-88.5 365,-107.5 511,-107.5 511,-88.5 365,-88.5"/>
<text text-anchor="middle" x="438" y="-95.5" font-family="Helvetica,sans-Serif" font-size="10.00">vtkSurfaceBase::CleanVertex</text>
</a>
</g>
</g>
<!-- Node2&#45;&gt;Node3 -->
<g id="edge2" class="edge">
<title>Node2&#45;&gt;Node3</title>
<path fill="none" stroke="midnightblue" d="M289.4,-63.55C317.81,-70.18 355.86,-79.06 386.21,-86.14"/>
<polygon fill="midnightblue" stroke="midnightblue" points="385.64,-89.61 396.18,-88.47 387.24,-82.79 385.64,-89.61"/>
</g>
<!-- Node6 -->
<g id="node6" class="node">
<title>Node6</title>
<g id="a_node6"><a xlink:href="../../d3/d13/classvtk_surface_base.html#ae63b7ea41f949bf8b801ba46b3828f2e" target="_top" xlink:title="removes the edge e1 from the ring of v1">
<polygon fill="white" stroke="black" points="366.5,-39 366.5,-69 509.5,-69 509.5,-39 366.5,-39"/>
<text text-anchor="start" x="374.5" y="-57" font-family="Helvetica,sans-Serif" font-size="10.00">vtkSurfaceBase::DeleteEdge</text>
<text text-anchor="middle" x="438" y="-46" font-family="Helvetica,sans-Serif" font-size="10.00">InRing</text>
</a>
</g>
</g>
<!-- Node2&#45;&gt;Node6 -->
<g id="edge5" class="edge">
<title>Node2&#45;&gt;Node6</title>
<path fill="none" stroke="midnightblue" d="M319.23,-54C331.22,-54 343.77,-54 356,-54"/>
<polygon fill="midnightblue" stroke="midnightblue" points="356.19,-57.5 366.19,-54 356.19,-50.5 356.19,-57.5"/>
</g>
<!-- Node8 -->
<g id="node8" class="node">
<title>Node8</title>
<g id="a_node8"><a xlink:href="../../d3/d13/classvtk_surface_base.html#a6d0fece7168e91590325097ee7a320a2" target="_top" xlink:title="Returns v1 and v2 as the vertices bounding the edge.">
<polygon fill="white" stroke="black" points="355,-0.5 355,-19.5 521,-19.5 521,-0.5 355,-0.5"/>
<text text-anchor="middle" x="438" y="-7.5" font-family="Helvetica,sans-Serif" font-size="10.00">vtkSurfaceBase::GetEdgeVertices</text>
</a>
</g>
</g>
<!-- Node2&#45;&gt;Node8 -->
<g id="edge7" class="edge">
<title>Node2&#45;&gt;Node8</title>
<path fill="none" stroke="midnightblue" d="M288.95,-44.48C308.84,-39.8 333.17,-34.09 355,-29 364.93,-26.68 375.53,-24.22 385.71,-21.86"/>
<polygon fill="midnightblue" stroke="midnightblue" points="386.75,-25.21 395.7,-19.55 385.17,-18.39 386.75,-25.21"/>
</g>
<!-- Node4 -->
<g id="node4" class="node">
<title>Node4</title>
<g id="a_node4"><a xlink:href="../../d3/d13/classvtk_surface_base.html#a49e78891f9e8280362f9a6919ec0aec1" target="_top" xlink:title="Deletes the FREE vertex v1 free means not connected to any higher order element.">
<polygon fill="white" stroke="black" points="557,-126.5 557,-145.5 706,-145.5 706,-126.5 557,-126.5"/>
<text text-anchor="middle" x="631.5" y="-133.5" font-family="Helvetica,sans-Serif" font-size="10.00">vtkSurfaceBase::DeleteVertex</text>
</a>
</g>
</g>
<!-- Node3&#45;&gt;Node4 -->
<g id="edge3" class="edge">
<title>Node3&#45;&gt;Node4</title>
<path fill="none" stroke="midnightblue" d="M487.32,-107.59C513.16,-112.72 545.17,-119.07 572.36,-124.46"/>
<polygon fill="midnightblue" stroke="midnightblue" points="572.03,-127.97 582.52,-126.48 573.4,-121.1 572.03,-127.97"/>
</g>
<!-- Node5 -->
<g id="node5" class="node">
<title>Node5</title>
<g id="a_node5"><a xlink:href="../../d3/d13/classvtk_surface_base.html#a310ee566afcb88b7672ea6abf2d9f098" target="_top" xlink:title="Returns the valence of the Point V1 i.e. its number of adjacent Points.">
<polygon fill="white" stroke="black" points="560,-88.5 560,-107.5 703,-107.5 703,-88.5 560,-88.5"/>
<text text-anchor="middle" x="631.5" y="-95.5" font-family="Helvetica,sans-Serif" font-size="10.00">vtkSurfaceBase::GetValence</text>
</a>
</g>
</g>
<!-- Node3&#45;&gt;Node5 -->
<g id="edge4" class="edge">
<title>Node3&#45;&gt;Node5</title>
<path fill="none" stroke="midnightblue" d="M511.13,-98C523.67,-98 536.8,-98 549.57,-98"/>
<polygon fill="midnightblue" stroke="midnightblue" points="549.71,-101.5 559.71,-98 549.71,-94.5 549.71,-101.5"/>
</g>
<!-- Node7 -->
<g id="node7" class="node">
<title>Node7</title>
<g id="a_node7"><a xlink:href="../../d3/d13/classvtk_surface_base.html#a10d9a9c6daefe1c004e27eba5d464738" target="_top" xlink:title="Returns the list of edges adjacent to the point v1.">
<polygon fill="white" stroke="black" points="563.5,-39 563.5,-69 699.5,-69 699.5,-39 563.5,-39"/>
<text text-anchor="start" x="571.5" y="-57" font-family="Helvetica,sans-Serif" font-size="10.00">vtkSurfaceBase::GetVertex</text>
<text text-anchor="middle" x="631.5" y="-46" font-family="Helvetica,sans-Serif" font-size="10.00">NeighbourEdges</text>
</a>
</g>
</g>
<!-- Node6&#45;&gt;Node7 -->
<g id="edge6" class="edge">
<title>Node6&#45;&gt;Node7</title>
<path fill="none" stroke="midnightblue" d="M509.76,-54C523.82,-54 538.66,-54 552.93,-54"/>
<polygon fill="midnightblue" stroke="midnightblue" points="553.21,-57.5 563.21,-54 553.21,-50.5 553.21,-57.5"/>
</g>
</g>
</svg>
