<?xml version="1.0" encoding="UTF-8" standalone="no"?>
<!DOCTYPE svg PUBLIC "-//W3C//DTD SVG 1.1//EN"
 "http://www.w3.org/Graphics/SVG/1.1/DTD/svg11.dtd">
<!-- Generated by graphviz version 2.44.1 (0)
 -->
<!-- Title: vtkSurfaceBase::CheckNormals Pages: 1 -->
<svg width="558pt" height="129pt"
 viewBox="0.00 0.00 558.00 129.00" xmlns="http://www.w3.org/2000/svg" xmlns:xlink="http://www.w3.org/1999/xlink">
<g id="graph0" class="graph" transform="scale(1 1) rotate(0) translate(4 125)">
<title>vtkSurfaceBase::CheckNormals</title>
<polygon fill="white" stroke="transparent" points="-4,4 -4,-125 554,-125 554,4 -4,4"/>
<!-- Node1 -->
<g id="node1" class="node">
<title>Node1</title>
<g id="a_node1"><a xlink:title="Reorders Cells description so that each cell is well oriented.">
<polygon fill="#bfbfbf" stroke="black" points="392,-38.5 392,-57.5 550,-57.5 550,-38.5 392,-38.5"/>
<text text-anchor="middle" x="471" y="-45.5" font-family="Helvetica,sans-Serif" font-size="10.00">vtkSurfaceBase::CheckNormals</text>
</a>
</g>
</g>
<!-- Node2 -->
<g id="node2" class="node">
<title>Node2</title>
<g id="a_node2"><a xlink:href="../../d3/d13/classvtk_surface_base.html#abb20d4428cd6182c950aff49ac550c29" target="_top" xlink:title="Embeds a vtkPolyData into a vtkSurfaceBase object.">
<polygon fill="white" stroke="black" points="199,-77 199,-107 343,-107 343,-77 199,-77"/>
<text text-anchor="start" x="207" y="-95" font-family="Helvetica,sans-Serif" font-size="10.00">vtkSurfaceBase::CreateFrom</text>
<text text-anchor="middle" x="271" y="-84" font-family="Helvetica,sans-Serif" font-size="10.00">PolyData</text>
</a>
</g>
</g>
<!-- Node1&#45;&gt;Node2 -->
<g id="edge1" class="edge">
<title>Node1&#45;&gt;Node2</title>
<path fill="none" stroke="midnightblue" d="M417.16,-59.74C393.41,-65.02 365.09,-71.31 339.79,-76.93"/>
<polygon fill="midnightblue" stroke="midnightblue" points="418.03,-63.13 427.04,-57.55 416.52,-56.3 418.03,-63.13"/>
</g>
<!-- Node5 -->
<g id="node5" class="node">
<title>Node5</title>
<g id="a_node5"><a xlink:href="../../d1/dfa/classvtk_surface.html#aeb1922c987d5fdcebe1b680d82db9087" target="_top" xlink:title="Recusrsively splits the edges longer than Ratio*AverageLength.">
<polygon fill="white" stroke="black" points="202,-38.5 202,-57.5 340,-57.5 340,-38.5 202,-38.5"/>
<text text-anchor="middle" x="271" y="-45.5" font-family="Helvetica,sans-Serif" font-size="10.00">vtkSurface::SplitLongEdges</text>
</a>
</g>
</g>
<!-- Node1&#45;&gt;Node5 -->
<g id="edge4" class="edge">
<title>Node1&#45;&gt;Node5</title>
<path fill="none" stroke="midnightblue" d="M381.66,-48C367.71,-48 353.47,-48 340.08,-48"/>
<polygon fill="midnightblue" stroke="midnightblue" points="381.75,-51.5 391.75,-48 381.75,-44.5 381.75,-51.5"/>
</g>
<!-- Node6 -->
<g id="node6" class="node">
<title>Node6</title>
<g id="a_node6"><a xlink:href="../../d3/d13/classvtk_surface_base.html#aa396a785b13b7e7784d5ce5d1bdba2d9" target="_top" xlink:title="switches the cells orientation (usefull when the mesh is displayed all black...)">
<polygon fill="white" stroke="black" points="186,-0.5 186,-19.5 356,-19.5 356,-0.5 186,-0.5"/>
<text text-anchor="middle" x="271" y="-7.5" font-family="Helvetica,sans-Serif" font-size="10.00">vtkSurfaceBase::SwitchOrientation</text>
</a>
</g>
</g>
<!-- Node1&#45;&gt;Node6 -->
<g id="edge5" class="edge">
<title>Node1&#45;&gt;Node6</title>
<path fill="none" stroke="midnightblue" d="M410.13,-36.51C381.88,-31.09 348.56,-24.69 321.73,-19.54"/>
<polygon fill="midnightblue" stroke="midnightblue" points="409.81,-40.01 420.29,-38.46 411.13,-33.14 409.81,-40.01"/>
</g>
<!-- Node3 -->
<g id="node3" class="node">
<title>Node3</title>
<g id="a_node3"><a xlink:href="../../d1/dfa/classvtk_surface.html#a35760f7e4379a535a7338a3dba028b9f" target="_top" xlink:title="Builds a 1 connected component mesh from the mesh in two steps: First: merge the points which are clo...">
<polygon fill="white" stroke="black" points="0,-101.5 0,-120.5 150,-120.5 150,-101.5 0,-101.5"/>
<text text-anchor="middle" x="75" y="-108.5" font-family="Helvetica,sans-Serif" font-size="10.00">vtkSurface::CleanConnectivity</text>
</a>
</g>
</g>
<!-- Node2&#45;&gt;Node3 -->
<g id="edge2" class="edge">
<title>Node2&#45;&gt;Node3</title>
<path fill="none" stroke="midnightblue" d="M188.69,-99.96C175.88,-101.22 162.69,-102.51 150.06,-103.75"/>
<polygon fill="midnightblue" stroke="midnightblue" points="189.25,-103.43 198.86,-98.97 188.57,-96.46 189.25,-103.43"/>
</g>
<!-- Node4 -->
<g id="node4" class="node">
<title>Node4</title>
<g id="a_node4"><a xlink:href="../../d1/dfa/classvtk_surface.html#a242df182bc35f6b38c25de1b1582bc42" target="_top" xlink:title="Creates the vtkSurface object by reading a mesh file.">
<polygon fill="white" stroke="black" points="6.5,-63.5 6.5,-82.5 143.5,-82.5 143.5,-63.5 6.5,-63.5"/>
<text text-anchor="middle" x="75" y="-70.5" font-family="Helvetica,sans-Serif" font-size="10.00">vtkSurface::CreateFromFile</text>
</a>
</g>
</g>
<!-- Node2&#45;&gt;Node4 -->
<g id="edge3" class="edge">
<title>Node2&#45;&gt;Node4</title>
<path fill="none" stroke="midnightblue" d="M188.59,-84.03C173.6,-82.56 158.1,-81.04 143.58,-79.62"/>
<polygon fill="midnightblue" stroke="midnightblue" points="188.57,-87.54 198.86,-85.03 189.25,-80.57 188.57,-87.54"/>
</g>
</g>
</svg>
