<?xml version="1.0" encoding="UTF-8" standalone="no"?>
<!DOCTYPE svg PUBLIC "-//W3C//DTD SVG 1.1//EN"
 "http://www.w3.org/Graphics/SVG/1.1/DTD/svg11.dtd">
<!-- Generated by graphviz version 2.44.1 (0)
 -->
<!-- Title: vtkSurfaceBase::AllocateVerticesAttributes Pages: 1 -->
<svg width="716pt" height="424pt"
 viewBox="0.00 0.00 716.00 423.50" xmlns="http://www.w3.org/2000/svg" xmlns:xlink="http://www.w3.org/1999/xlink">
<g id="graph0" class="graph" transform="scale(1 1) rotate(0) translate(4 419.5)">
<title>vtkSurfaceBase::AllocateVerticesAttributes</title>
<polygon fill="white" stroke="transparent" points="-4,4 -4,-419.5 712,-419.5 712,4 -4,4"/>
<!-- Node1 -->
<g id="node1" class="node">
<title>Node1</title>
<g id="a_node1"><a xlink:title=" ">
<polygon fill="#bfbfbf" stroke="black" points="580,-238.5 580,-268.5 708,-268.5 708,-238.5 580,-238.5"/>
<text text-anchor="start" x="588" y="-256.5" font-family="Helvetica,sans-Serif" font-size="10.00">vtkSurfaceBase::Allocate</text>
<text text-anchor="middle" x="644" y="-245.5" font-family="Helvetica,sans-Serif" font-size="10.00">VerticesAttributes</text>
</a>
</g>
</g>
<!-- Node2 -->
<g id="node2" class="node">
<title>Node2</title>
<g id="a_node2"><a xlink:href="../../d3/d13/classvtk_surface_base.html#afd79981b00b0a0acc2f0f56dc41031da" target="_top" xlink:title=" ">
<polygon fill="white" stroke="black" points="408,-200.5 408,-230.5 536,-230.5 536,-200.5 408,-200.5"/>
<text text-anchor="start" x="416" y="-218.5" font-family="Helvetica,sans-Serif" font-size="10.00">vtkSurfaceBase::Allocate</text>
<text text-anchor="middle" x="472" y="-207.5" font-family="Helvetica,sans-Serif" font-size="10.00">MoreVerticesAttributes</text>
</a>
</g>
</g>
<!-- Node1&#45;&gt;Node2 -->
<g id="edge1" class="edge">
<title>Node1&#45;&gt;Node2</title>
<path fill="none" stroke="midnightblue" d="M569.9,-237.16C558.63,-234.64 547.09,-232.06 536.07,-229.6"/>
<polygon fill="midnightblue" stroke="midnightblue" points="569.18,-240.58 579.7,-239.35 570.7,-233.75 569.18,-240.58"/>
</g>
<!-- Node12 -->
<g id="node12" class="node">
<title>Node12</title>
<g id="a_node12"><a xlink:href="../../d3/d13/classvtk_surface_base.html#abb20d4428cd6182c950aff49ac550c29" target="_top" xlink:title="Embeds a vtkPolyData into a vtkSurfaceBase object.">
<polygon fill="white" stroke="black" points="400,-352.5 400,-382.5 544,-382.5 544,-352.5 400,-352.5"/>
<text text-anchor="start" x="408" y="-370.5" font-family="Helvetica,sans-Serif" font-size="10.00">vtkSurfaceBase::CreateFrom</text>
<text text-anchor="middle" x="472" y="-359.5" font-family="Helvetica,sans-Serif" font-size="10.00">PolyData</text>
</a>
</g>
</g>
<!-- Node1&#45;&gt;Node12 -->
<g id="edge11" class="edge">
<title>Node1&#45;&gt;Node12</title>
<path fill="none" stroke="midnightblue" d="M611.88,-274.37C578.17,-296.97 525.24,-332.47 495.4,-352.48"/>
<polygon fill="midnightblue" stroke="midnightblue" points="614.07,-277.11 620.43,-268.64 610.17,-271.3 614.07,-277.11"/>
</g>
<!-- Node15 -->
<g id="node15" class="node">
<title>Node15</title>
<g id="a_node15"><a xlink:href="../../d3/d13/classvtk_surface_base.html#a2896a775bae1f75f46398279168a6c9e" target="_top" xlink:title="Set memory allocation in the vtkSurfaceBase object for further Cells and points insertion (this is no...">
<polygon fill="white" stroke="black" points="419,-266 419,-285 525,-285 525,-266 419,-266"/>
<text text-anchor="middle" x="472" y="-273" font-family="Helvetica,sans-Serif" font-size="10.00">vtkSurfaceBase::Init</text>
</a>
</g>
</g>
<!-- Node1&#45;&gt;Node15 -->
<g id="edge14" class="edge">
<title>Node1&#45;&gt;Node15</title>
<path fill="none" stroke="midnightblue" d="M569.49,-263.01C554.59,-264.94 539.22,-266.93 525.24,-268.74"/>
<polygon fill="midnightblue" stroke="midnightblue" points="570.23,-266.45 579.7,-261.69 569.33,-259.5 570.23,-266.45"/>
</g>
<!-- Node18 -->
<g id="node18" class="node">
<title>Node18</title>
<g id="a_node18"><a xlink:href="../../d3/d13/classvtk_surface_base.html#a0031b6361753a6f7b7761760b4f95fec" target="_top" xlink:title="inserts the edge e1 in the ring of v1">
<polygon fill="white" stroke="black" points="402,-101.5 402,-131.5 542,-131.5 542,-101.5 402,-101.5"/>
<text text-anchor="start" x="410" y="-119.5" font-family="Helvetica,sans-Serif" font-size="10.00">vtkSurfaceBase::InsertEdge</text>
<text text-anchor="middle" x="472" y="-108.5" font-family="Helvetica,sans-Serif" font-size="10.00">InRing</text>
</a>
</g>
</g>
<!-- Node1&#45;&gt;Node18 -->
<g id="edge18" class="edge">
<title>Node1&#45;&gt;Node18</title>
<path fill="none" stroke="midnightblue" d="M616.32,-232C581.63,-204.04 521.89,-155.9 491.67,-131.54"/>
<polygon fill="midnightblue" stroke="midnightblue" points="614.17,-234.77 624.16,-238.32 618.57,-229.32 614.17,-234.77"/>
</g>
<!-- Node3 -->
<g id="node3" class="node">
<title>Node3</title>
<g id="a_node3"><a xlink:href="../../d3/d13/classvtk_surface_base.html#a73172bd0d284295c511313a594af799f" target="_top" xlink:title="adds an edge (v1,v2) to the vtkSurface, with possibly an adjacent face f1">
<polygon fill="white" stroke="black" points="217,-167 217,-186 349,-186 349,-167 217,-167"/>
<text text-anchor="middle" x="283" y="-174" font-family="Helvetica,sans-Serif" font-size="10.00">vtkSurfaceBase::AddEdge</text>
</a>
</g>
</g>
<!-- Node2&#45;&gt;Node3 -->
<g id="edge2" class="edge">
<title>Node2&#45;&gt;Node3</title>
<path fill="none" stroke="midnightblue" d="M397.88,-200.25C374.88,-195.45 350.16,-190.3 329.65,-186.02"/>
<polygon fill="midnightblue" stroke="midnightblue" points="397.45,-203.74 407.95,-202.35 398.88,-196.88 397.45,-203.74"/>
</g>
<!-- Node4 -->
<g id="node4" class="node">
<title>Node4</title>
<g id="a_node4"><a xlink:href="../../d3/d13/classvtk_surface_base.html#aceee5b078bbb14fd9c2ac54f2c043ced" target="_top" xlink:title="adds a vertex with coordinates (x,y,z) to the vtkSurface and returns its Id">
<polygon fill="white" stroke="black" points="214.5,-206 214.5,-225 351.5,-225 351.5,-206 214.5,-206"/>
<text text-anchor="middle" x="283" y="-213" font-family="Helvetica,sans-Serif" font-size="10.00">vtkSurfaceBase::AddVertex</text>
</a>
</g>
</g>
<!-- Node2&#45;&gt;Node4 -->
<g id="edge3" class="edge">
<title>Node2&#45;&gt;Node4</title>
<path fill="none" stroke="midnightblue" d="M397.59,-215.5C382.43,-215.5 366.52,-215.5 351.58,-215.5"/>
<polygon fill="midnightblue" stroke="midnightblue" points="397.95,-219 407.95,-215.5 397.95,-212 397.95,-219"/>
</g>
<!-- Node5 -->
<g id="node5" class="node">
<title>Node5</title>
<g id="a_node5"><a xlink:href="../../d3/d13/classvtk_surface_base.html#a50008e77c6d22b74c5817b187f55c846" target="_top" xlink:title="adds a vertex with coordinates (x,y,z) to the vtkSurface and returns its Id">
<polygon fill="white" stroke="black" points="14.5,-289 14.5,-308 151.5,-308 151.5,-289 14.5,-289"/>
<text text-anchor="middle" x="83" y="-296" font-family="Helvetica,sans-Serif" font-size="10.00">vtkSurfaceBase::AddVertex</text>
</a>
</g>
</g>
<!-- Node4&#45;&gt;Node5 -->
<g id="edge4" class="edge">
<title>Node4&#45;&gt;Node5</title>
<path fill="none" stroke="midnightblue" d="M212.65,-228.8C208.94,-230.48 205.36,-232.37 202,-234.5 180.36,-248.21 187.67,-265.85 166,-279.5 159.82,-283.39 152.92,-286.49 145.83,-288.95"/>
<polygon fill="midnightblue" stroke="midnightblue" points="214.09,-231.99 222.09,-225.04 211.51,-225.49 214.09,-231.99"/>
</g>
<!-- Node6 -->
<g id="node6" class="node">
<title>Node6</title>
<g id="a_node6"><a xlink:href="../../d3/d13/classvtk_surface_base.html#a3605512219637518eaa534c82f974a79" target="_top" xlink:title="Bisects Edge by creating a new vertex at its midpoints and two new faces.">
<polygon fill="white" stroke="black" points="11.5,-87 11.5,-106 154.5,-106 154.5,-87 11.5,-87"/>
<text text-anchor="middle" x="83" y="-94" font-family="Helvetica,sans-Serif" font-size="10.00">vtkSurfaceBase::BisectEdge</text>
</a>
</g>
</g>
<!-- Node4&#45;&gt;Node6 -->
<g id="edge5" class="edge">
<title>Node4&#45;&gt;Node6</title>
<path fill="none" stroke="midnightblue" d="M210.28,-201.32C207.36,-199.59 204.58,-197.66 202,-195.5 172.09,-170.49 196.12,-140.25 166,-115.5 161.37,-111.7 156.12,-108.62 150.57,-106.15"/>
<polygon fill="midnightblue" stroke="midnightblue" points="208.91,-204.54 219.42,-205.91 212.06,-198.29 208.91,-204.54"/>
</g>
<!-- Node7 -->
<g id="node7" class="node">
<title>Node7</title>
<g id="a_node7"><a xlink:href="../../d1/dfa/classvtk_surface.html#afe7e615323e323b5aff70fa1b4cf6fb1" target="_top" xlink:title="returns a vtkSurface with no empty memory slots">
<polygon fill="white" stroke="black" points="17.5,-251 17.5,-270 148.5,-270 148.5,-251 17.5,-251"/>
<text text-anchor="middle" x="83" y="-258" font-family="Helvetica,sans-Serif" font-size="10.00">vtkSurface::CleanMemory</text>
</a>
</g>
</g>
<!-- Node4&#45;&gt;Node7 -->
<g id="edge6" class="edge">
<title>Node4&#45;&gt;Node7</title>
<path fill="none" stroke="midnightblue" d="M230.23,-227.27C197.73,-234.65 156.37,-244.05 125.93,-250.97"/>
<polygon fill="midnightblue" stroke="midnightblue" points="231.03,-230.67 240.01,-225.04 229.48,-223.85 231.03,-230.67"/>
</g>
<!-- Node8 -->
<g id="node8" class="node">
<title>Node8</title>
<g id="a_node8"><a xlink:href="../../d1/dfa/classvtk_surface.html#a56f1edbf05daf9d9e038d28b2261bcc5" target="_top" xlink:title="returns a vtkSurface made of the biggest connected component">
<polygon fill="white" stroke="black" points="0,-201.5 0,-231.5 166,-231.5 166,-201.5 0,-201.5"/>
<text text-anchor="start" x="8" y="-219.5" font-family="Helvetica,sans-Serif" font-size="10.00">vtkSurface::GetBiggestConnected</text>
<text text-anchor="middle" x="83" y="-208.5" font-family="Helvetica,sans-Serif" font-size="10.00">Component</text>
</a>
</g>
</g>
<!-- Node4&#45;&gt;Node8 -->
<g id="edge7" class="edge">
<title>Node4&#45;&gt;Node8</title>
<path fill="none" stroke="midnightblue" d="M204.05,-215.89C191.55,-215.96 178.59,-216.02 166,-216.09"/>
<polygon fill="midnightblue" stroke="midnightblue" points="204.43,-219.39 214.41,-215.84 204.4,-212.39 204.43,-219.39"/>
</g>
<!-- Node9 -->
<g id="node9" class="node">
<title>Node9</title>
<g id="a_node9"><a xlink:href="../../d1/dfa/classvtk_surface.html#aeb1922c987d5fdcebe1b680d82db9087" target="_top" xlink:title="Recusrsively splits the edges longer than Ratio*AverageLength.">
<polygon fill="white" stroke="black" points="14,-163 14,-182 152,-182 152,-163 14,-163"/>
<text text-anchor="middle" x="83" y="-170" font-family="Helvetica,sans-Serif" font-size="10.00">vtkSurface::SplitLongEdges</text>
</a>
</g>
</g>
<!-- Node4&#45;&gt;Node9 -->
<g id="edge8" class="edge">
<title>Node4&#45;&gt;Node9</title>
<path fill="none" stroke="midnightblue" d="M228.13,-203.8C196.64,-196.96 157.4,-188.44 127.82,-182.02"/>
<polygon fill="midnightblue" stroke="midnightblue" points="227.54,-207.25 238.06,-205.96 229.03,-200.41 227.54,-207.25"/>
</g>
<!-- Node10 -->
<g id="node10" class="node">
<title>Node10</title>
<g id="a_node10"><a xlink:href="../../d1/dfa/classvtk_surface.html#ad35b4c37556f13f0deeb6bb9753f18af" target="_top" xlink:title="returns a mesh which is a linear subdivision of this">
<polygon fill="white" stroke="black" points="26.5,-327 26.5,-346 139.5,-346 139.5,-327 26.5,-327"/>
<text text-anchor="middle" x="83" y="-334" font-family="Helvetica,sans-Serif" font-size="10.00">vtkSurface::Subdivide</text>
</a>
</g>
</g>
<!-- Node4&#45;&gt;Node10 -->
<g id="edge9" class="edge">
<title>Node4&#45;&gt;Node10</title>
<path fill="none" stroke="midnightblue" d="M208.37,-229.87C206.14,-231.27 204.01,-232.82 202,-234.5 171.18,-260.32 196.89,-291.76 166,-317.5 158.48,-323.77 149.28,-328.06 139.79,-330.97"/>
<polygon fill="midnightblue" stroke="midnightblue" points="210.21,-232.85 217.39,-225.06 206.92,-226.68 210.21,-232.85"/>
</g>
<!-- Node11 -->
<g id="node11" class="node">
<title>Node11</title>
<g id="a_node11"><a xlink:href="../../d1/dfa/classvtk_surface.html#a8871f6a866295a51c983283a4ccc0a9d" target="_top" xlink:title="subdivide the mesh (in place)">
<polygon fill="white" stroke="black" points="10,-125 10,-144 156,-144 156,-125 10,-125"/>
<text text-anchor="middle" x="83" y="-132" font-family="Helvetica,sans-Serif" font-size="10.00">vtkSurface::SubdivideInPlace</text>
</a>
</g>
</g>
<!-- Node4&#45;&gt;Node11 -->
<g id="edge10" class="edge">
<title>Node4&#45;&gt;Node11</title>
<path fill="none" stroke="midnightblue" d="M215.75,-202.47C210.94,-200.47 206.3,-198.16 202,-195.5 181.09,-182.57 187.02,-166.24 166,-153.5 159.63,-149.64 152.54,-146.56 145.27,-144.11"/>
<polygon fill="midnightblue" stroke="midnightblue" points="214.54,-205.75 225.13,-205.95 216.98,-199.19 214.54,-205.75"/>
</g>
<!-- Node13 -->
<g id="node13" class="node">
<title>Node13</title>
<g id="a_node13"><a xlink:href="../../d1/dfa/classvtk_surface.html#a35760f7e4379a535a7338a3dba028b9f" target="_top" xlink:title="Builds a 1 connected component mesh from the mesh in two steps: First: merge the points which are clo...">
<polygon fill="white" stroke="black" points="208,-396 208,-415 358,-415 358,-396 208,-396"/>
<text text-anchor="middle" x="283" y="-403" font-family="Helvetica,sans-Serif" font-size="10.00">vtkSurface::CleanConnectivity</text>
</a>
</g>
</g>
<!-- Node12&#45;&gt;Node13 -->
<g id="edge12" class="edge">
<title>Node12&#45;&gt;Node13</title>
<path fill="none" stroke="midnightblue" d="M389.96,-383.97C369.82,-388.06 348.9,-392.31 331.02,-395.95"/>
<polygon fill="midnightblue" stroke="midnightblue" points="390.67,-387.4 399.77,-381.97 389.27,-380.54 390.67,-387.4"/>
</g>
<!-- Node14 -->
<g id="node14" class="node">
<title>Node14</title>
<g id="a_node14"><a xlink:href="../../d1/dfa/classvtk_surface.html#a242df182bc35f6b38c25de1b1582bc42" target="_top" xlink:title="Creates the vtkSurface object by reading a mesh file.">
<polygon fill="white" stroke="black" points="214.5,-358 214.5,-377 351.5,-377 351.5,-358 214.5,-358"/>
<text text-anchor="middle" x="283" y="-365" font-family="Helvetica,sans-Serif" font-size="10.00">vtkSurface::CreateFromFile</text>
</a>
</g>
</g>
<!-- Node12&#45;&gt;Node14 -->
<g id="edge13" class="edge">
<title>Node12&#45;&gt;Node14</title>
<path fill="none" stroke="midnightblue" d="M389.67,-367.5C376.98,-367.5 363.99,-367.5 351.64,-367.5"/>
<polygon fill="midnightblue" stroke="midnightblue" points="389.77,-371 399.77,-367.5 389.77,-364 389.77,-371"/>
</g>
<!-- Node15&#45;&gt;Node10 -->
<g id="edge16" class="edge">
<title>Node15&#45;&gt;Node10</title>
<path fill="none" stroke="midnightblue" d="M408.75,-282.04C354.08,-288.15 272.49,-298.17 202,-310.5 187.48,-313.04 153.36,-320.62 125.52,-326.95"/>
<polygon fill="midnightblue" stroke="midnightblue" points="409.42,-285.48 418.98,-280.9 408.65,-278.53 409.42,-285.48"/>
</g>
<!-- Node16 -->
<g id="node16" class="node">
<title>Node16</title>
<g id="a_node16"><a xlink:href="../../d3/d13/classvtk_surface_base.html#a667824957faeecac1f36e8337931c3aa" target="_top" xlink:title="Set memory allocation in the vtkSurfaceBase object, which is assumed to be as large as the *mesh vtkS...">
<polygon fill="white" stroke="black" points="230,-244 230,-263 336,-263 336,-244 230,-244"/>
<text text-anchor="middle" x="283" y="-251" font-family="Helvetica,sans-Serif" font-size="10.00">vtkSurfaceBase::Init</text>
</a>
</g>
</g>
<!-- Node15&#45;&gt;Node16 -->
<g id="edge15" class="edge">
<title>Node15&#45;&gt;Node16</title>
<path fill="none" stroke="midnightblue" d="M408.68,-268.17C385.15,-265.4 358.64,-262.28 336.13,-259.63"/>
<polygon fill="midnightblue" stroke="midnightblue" points="408.57,-271.68 418.91,-269.37 409.39,-264.73 408.57,-271.68"/>
</g>
<!-- Node17 -->
<g id="node17" class="node">
<title>Node17</title>
<g id="a_node17"><a xlink:href="../../d3/d13/classvtk_surface_base.html#a5cad1634e4d48ad5e80189cddf3ad8f1" target="_top" xlink:title="the constructor">
<polygon fill="white" stroke="black" points="202,-320 202,-339 364,-339 364,-320 202,-320"/>
<text text-anchor="middle" x="283" y="-327" font-family="Helvetica,sans-Serif" font-size="10.00">vtkSurfaceBase::vtkSurfaceBase</text>
</a>
</g>
</g>
<!-- Node15&#45;&gt;Node17 -->
<g id="edge17" class="edge">
<title>Node15&#45;&gt;Node17</title>
<path fill="none" stroke="midnightblue" d="M428.39,-287.81C394.57,-297.57 348,-311.02 316.99,-319.97"/>
<polygon fill="midnightblue" stroke="midnightblue" points="429.36,-291.17 438,-285.03 427.42,-284.44 429.36,-291.17"/>
</g>
<!-- Node18&#45;&gt;Node3 -->
<g id="edge19" class="edge">
<title>Node18&#45;&gt;Node3</title>
<path fill="none" stroke="midnightblue" d="M414.23,-134.72C381.06,-145.36 340.57,-158.35 313.63,-166.99"/>
<polygon fill="midnightblue" stroke="midnightblue" points="415.36,-138.03 423.81,-131.64 413.22,-131.36 415.36,-138.03"/>
</g>
<!-- Node18&#45;&gt;Node6 -->
<g id="edge20" class="edge">
<title>Node18&#45;&gt;Node6</title>
<path fill="none" stroke="midnightblue" d="M391.63,-119.99C337.98,-121.49 265.61,-121.85 202,-116.5 177.88,-114.47 151.27,-110.15 129.44,-106.04"/>
<polygon fill="midnightblue" stroke="midnightblue" points="391.87,-123.48 401.76,-119.68 391.66,-116.49 391.87,-123.48"/>
</g>
<!-- Node19 -->
<g id="node19" class="node">
<title>Node19</title>
<g id="a_node19"><a xlink:href="../../d3/d13/classvtk_surface_base.html#a16e3b6b8174063a24d61f9e20e71aaf1" target="_top" xlink:title="Changes one vertex of a given face.">
<polygon fill="white" stroke="black" points="209,-0.5 209,-30.5 357,-30.5 357,-0.5 209,-0.5"/>
<text text-anchor="start" x="217" y="-18.5" font-family="Helvetica,sans-Serif" font-size="10.00">vtkSurfaceBase::ChangeFace</text>
<text text-anchor="middle" x="283" y="-7.5" font-family="Helvetica,sans-Serif" font-size="10.00">Vertex</text>
</a>
</g>
</g>
<!-- Node18&#45;&gt;Node19 -->
<g id="edge21" class="edge">
<title>Node18&#45;&gt;Node19</title>
<path fill="none" stroke="midnightblue" d="M445.55,-94.91C424.74,-78.16 393.96,-55.35 364,-40.5 356.44,-36.75 348.2,-33.42 339.97,-30.5"/>
<polygon fill="midnightblue" stroke="midnightblue" points="443.6,-97.84 453.56,-101.46 448.03,-92.42 443.6,-97.84"/>
</g>
<!-- Node20 -->
<g id="node20" class="node">
<title>Node20</title>
<g id="a_node20"><a xlink:href="../../d3/d13/classvtk_surface_base.html#abc24e58144c7a215d84afa33a6864439" target="_top" xlink:title="Flips the edge. If the flip was performed, return &#45;1. Otherwise, the edge already existing is returne...">
<polygon fill="white" stroke="black" points="217.5,-50 217.5,-69 348.5,-69 348.5,-50 217.5,-50"/>
<text text-anchor="middle" x="283" y="-57" font-family="Helvetica,sans-Serif" font-size="10.00">vtkSurfaceBase::FlipEdge</text>
</a>
</g>
</g>
<!-- Node18&#45;&gt;Node20 -->
<g id="edge22" class="edge">
<title>Node18&#45;&gt;Node20</title>
<path fill="none" stroke="midnightblue" d="M422.21,-97.92C404.07,-91.35 383.23,-84.18 364,-78.5 352.36,-75.06 339.63,-71.81 327.82,-69.01"/>
<polygon fill="midnightblue" stroke="midnightblue" points="421.11,-101.24 431.7,-101.39 423.51,-94.67 421.11,-101.24"/>
</g>
<!-- Node22 -->
<g id="node22" class="node">
<title>Node22</title>
<g id="a_node22"><a xlink:href="../../d3/d13/classvtk_surface_base.html#a343111e4b8b0103bf1f5d6d29fc41c18" target="_top" xlink:title="Merge the two input vertices v1 and v2.">
<polygon fill="white" stroke="black" points="205.5,-88 205.5,-107 360.5,-107 360.5,-88 205.5,-88"/>
<text text-anchor="middle" x="283" y="-95" font-family="Helvetica,sans-Serif" font-size="10.00">vtkSurfaceBase::MergeVertices</text>
</a>
</g>
</g>
<!-- Node18&#45;&gt;Node22 -->
<g id="edge24" class="edge">
<title>Node18&#45;&gt;Node22</title>
<path fill="none" stroke="midnightblue" d="M391.72,-108.44C381.44,-107.4 370.92,-106.33 360.69,-105.29"/>
<polygon fill="midnightblue" stroke="midnightblue" points="391.6,-111.95 401.9,-109.48 392.3,-104.99 391.6,-111.95"/>
</g>
<!-- Node21 -->
<g id="node21" class="node">
<title>Node21</title>
<g id="a_node21"><a xlink:href="../../d3/d13/classvtk_surface_base.html#a8c1c05d41fedc99401dd39995d8e5c97" target="_top" xlink:title="Flips the edge. If the resulting edge already exists, it is flipped (an so on). Returns &#45;1 in case of...">
<polygon fill="white" stroke="black" points="7.5,-49 7.5,-68 158.5,-68 158.5,-49 7.5,-49"/>
<text text-anchor="middle" x="83" y="-56" font-family="Helvetica,sans-Serif" font-size="10.00">vtkSurfaceBase::FlipEdgeSure</text>
</a>
</g>
</g>
<!-- Node20&#45;&gt;Node21 -->
<g id="edge23" class="edge">
<title>Node20&#45;&gt;Node21</title>
<path fill="none" stroke="midnightblue" d="M207.18,-59.12C191.34,-59.04 174.63,-58.96 158.79,-58.88"/>
<polygon fill="midnightblue" stroke="midnightblue" points="207.42,-62.62 217.44,-59.17 207.46,-55.62 207.42,-62.62"/>
</g>
</g>
</svg>
