<?xml version="1.0" encoding="UTF-8" standalone="no"?>
<!DOCTYPE svg PUBLIC "-//W3C//DTD SVG 1.1//EN"
 "http://www.w3.org/Graphics/SVG/1.1/DTD/svg11.dtd">
<!-- Generated by graphviz version 2.44.1 (0)
 -->
<!-- Title: vtkSurfaceBase::GetFaceVertices Pages: 1 -->
<svg width="785pt" height="984pt"
 viewBox="0.00 0.00 785.00 983.63" xmlns="http://www.w3.org/2000/svg" xmlns:xlink="http://www.w3.org/1999/xlink">
<g id="graph0" class="graph" transform="scale(1 1) rotate(0) translate(4 979.63)">
<title>vtkSurfaceBase::GetFaceVertices</title>
<polygon fill="white" stroke="transparent" points="-4,4 -4,-979.63 781,-979.63 781,4 -4,4"/>
<!-- Node1 -->
<g id="node1" class="node">
<title>Node1</title>
<g id="a_node1"><a xlink:title="Returns the vertices v1, v2 and v3 bounding the face.">
<polygon fill="#bfbfbf" stroke="black" points="612,-440.5 612,-459.5 777,-459.5 777,-440.5 612,-440.5"/>
<text text-anchor="middle" x="694.5" y="-447.5" font-family="Helvetica,sans-Serif" font-size="10.00">vtkSurfaceBase::GetFaceVertices</text>
</a>
</g>
</g>
<!-- Node2 -->
<g id="node2" class="node">
<title>Node2</title>
<g id="a_node2"><a xlink:href="../../d3/d13/classvtk_surface_base.html#a3605512219637518eaa534c82f974a79" target="_top" xlink:title="Bisects Edge by creating a new vertex at its midpoints and two new faces.">
<polygon fill="white" stroke="black" points="212.5,-943.5 212.5,-962.5 355.5,-962.5 355.5,-943.5 212.5,-943.5"/>
<text text-anchor="middle" x="284" y="-950.5" font-family="Helvetica,sans-Serif" font-size="10.00">vtkSurfaceBase::BisectEdge</text>
</a>
</g>
</g>
<!-- Node1&#45;&gt;Node2 -->
<g id="edge1" class="edge">
<title>Node1&#45;&gt;Node2</title>
<path fill="none" stroke="midnightblue" d="M691.69,-469.87C683.71,-552.73 648.79,-869.27 576,-931 503.93,-992.11 382.43,-975.86 321.76,-962.53"/>
<polygon fill="midnightblue" stroke="midnightblue" points="695.19,-470.07 692.64,-459.78 688.22,-469.41 695.19,-470.07"/>
</g>
<!-- Node3 -->
<g id="node3" class="node">
<title>Node3</title>
<g id="a_node3"><a xlink:href="../../d3/d13/classvtk_surface_base.html#a1c405b8df23f423fd18fee6d923b8efe" target="_top" xlink:title="Checks the integrity of the structure. Returns true if the structure is OK.">
<polygon fill="white" stroke="black" points="406,-817.5 406,-836.5 567,-836.5 567,-817.5 406,-817.5"/>
<text text-anchor="middle" x="486.5" y="-824.5" font-family="Helvetica,sans-Serif" font-size="10.00">vtkSurfaceBase::CheckStructure</text>
</a>
</g>
</g>
<!-- Node1&#45;&gt;Node3 -->
<g id="edge2" class="edge">
<title>Node1&#45;&gt;Node3</title>
<path fill="none" stroke="midnightblue" d="M693.42,-469.6C692.06,-530.05 679.26,-715.12 576,-808 571.79,-811.78 567.02,-814.88 561.92,-817.4"/>
<polygon fill="midnightblue" stroke="midnightblue" points="696.92,-469.57 693.57,-459.52 689.92,-469.47 696.92,-469.57"/>
</g>
<!-- Node4 -->
<g id="node4" class="node">
<title>Node4</title>
<g id="a_node4"><a xlink:href="../../d1/dfa/classvtk_surface.html#afe7e615323e323b5aff70fa1b4cf6fb1" target="_top" xlink:title="returns a vtkSurface with no empty memory slots">
<polygon fill="white" stroke="black" points="421,-779.5 421,-798.5 552,-798.5 552,-779.5 421,-779.5"/>
<text text-anchor="middle" x="486.5" y="-786.5" font-family="Helvetica,sans-Serif" font-size="10.00">vtkSurface::CleanMemory</text>
</a>
</g>
</g>
<!-- Node1&#45;&gt;Node4 -->
<g id="edge3" class="edge">
<title>Node1&#45;&gt;Node4</title>
<path fill="none" stroke="midnightblue" d="M692.55,-469.74C688.71,-526.06 669.63,-688.67 576,-770 569.12,-775.98 560.81,-780.22 552.08,-783.21"/>
<polygon fill="midnightblue" stroke="midnightblue" points="696.05,-469.86 693.14,-459.68 689.06,-469.45 696.05,-469.86"/>
</g>
<!-- Node5 -->
<g id="node5" class="node">
<title>Node5</title>
<g id="a_node5"><a xlink:href="../../d1/dfa/classvtk_surface.html#a0b18977b47ba6e93508c6a0770ccaf65" target="_top" xlink:title="Computes the histogram of triangles quality and writes it in a file.">
<polygon fill="white" stroke="black" points="416.5,-730 416.5,-760 556.5,-760 556.5,-730 416.5,-730"/>
<text text-anchor="start" x="424.5" y="-748" font-family="Helvetica,sans-Serif" font-size="10.00">vtkSurface::ComputeQuality</text>
<text text-anchor="middle" x="486.5" y="-737" font-family="Helvetica,sans-Serif" font-size="10.00">Histogram</text>
</a>
</g>
</g>
<!-- Node1&#45;&gt;Node5 -->
<g id="edge4" class="edge">
<title>Node1&#45;&gt;Node5</title>
<path fill="none" stroke="midnightblue" d="M690.84,-469.77C683.03,-519.78 655.51,-652.21 576,-721 570.34,-725.9 563.78,-729.8 556.83,-732.92"/>
<polygon fill="midnightblue" stroke="midnightblue" points="694.33,-470.05 692.32,-459.65 687.41,-469.04 694.33,-470.05"/>
</g>
<!-- Node6 -->
<g id="node6" class="node">
<title>Node6</title>
<g id="a_node6"><a xlink:href="../../d1/dfa/classvtk_surface.html#aaf3f0756048ad39c23ff80076df7d878" target="_top" xlink:title="Computes the list of sharp vertices.">
<polygon fill="white" stroke="black" points="419,-681 419,-711 554,-711 554,-681 419,-681"/>
<text text-anchor="start" x="427" y="-699" font-family="Helvetica,sans-Serif" font-size="10.00">vtkSurface::ComputeSharp</text>
<text text-anchor="middle" x="486.5" y="-688" font-family="Helvetica,sans-Serif" font-size="10.00">Vertices</text>
</a>
</g>
</g>
<!-- Node1&#45;&gt;Node6 -->
<g id="edge5" class="edge">
<title>Node1&#45;&gt;Node6</title>
<path fill="none" stroke="midnightblue" d="M688.81,-469.65C677.39,-513.07 643.99,-617.64 576,-672 569.53,-677.17 562.04,-681.23 554.21,-684.42"/>
<polygon fill="midnightblue" stroke="midnightblue" points="692.25,-470.33 691.3,-459.77 685.46,-468.61 692.25,-470.33"/>
</g>
<!-- Node7 -->
<g id="node7" class="node">
<title>Node7</title>
<g id="a_node7"><a xlink:href="../../d1/dfa/classvtk_surface.html#a5e49c2664a0fa9927b19a86d88f2d919" target="_top" xlink:title="Computes the mesh minimal angle, average minimal angle, minimal triangle quality and average triangle...">
<polygon fill="white" stroke="black" points="412,-632 412,-662 561,-662 561,-632 412,-632"/>
<text text-anchor="start" x="420" y="-650" font-family="Helvetica,sans-Serif" font-size="10.00">vtkSurface::ComputeTriangles</text>
<text text-anchor="middle" x="486.5" y="-639" font-family="Helvetica,sans-Serif" font-size="10.00">Statistics</text>
</a>
</g>
</g>
<!-- Node1&#45;&gt;Node7 -->
<g id="edge6" class="edge">
<title>Node1&#45;&gt;Node7</title>
<path fill="none" stroke="midnightblue" d="M685.74,-469.2C670.33,-504.88 632.41,-581.44 576,-622 570.69,-625.82 564.8,-629.06 558.67,-631.8"/>
<polygon fill="midnightblue" stroke="midnightblue" points="689.16,-470.11 689.8,-459.53 682.7,-467.4 689.16,-470.11"/>
</g>
<!-- Node10 -->
<g id="node10" class="node">
<title>Node10</title>
<g id="a_node10"><a xlink:href="../../d3/d13/classvtk_surface_base.html#abc24e58144c7a215d84afa33a6864439" target="_top" xlink:title="Flips the edge. If the flip was performed, return &#45;1. Otherwise, the edge already existing is returne...">
<polygon fill="white" stroke="black" points="218.5,-905.5 218.5,-924.5 349.5,-924.5 349.5,-905.5 218.5,-905.5"/>
<text text-anchor="middle" x="284" y="-912.5" font-family="Helvetica,sans-Serif" font-size="10.00">vtkSurfaceBase::FlipEdge</text>
</a>
</g>
</g>
<!-- Node1&#45;&gt;Node10 -->
<g id="edge9" class="edge">
<title>Node1&#45;&gt;Node10</title>
<path fill="none" stroke="midnightblue" d="M691.3,-469.95C682.12,-549.16 644.18,-839.82 576,-896 502.54,-956.53 380.04,-938.4 320.14,-924.5"/>
<polygon fill="midnightblue" stroke="midnightblue" points="694.79,-470.18 692.44,-459.85 687.84,-469.4 694.79,-470.18"/>
</g>
<!-- Node12 -->
<g id="node12" class="node">
<title>Node12</title>
<g id="a_node12"><a xlink:href="../../d3/d13/classvtk_surface_base.html#ae4ef67d7037ae3795fb58e938b142722" target="_top" xlink:title="Returns the List of Faces adjacent to the Face">
<polygon fill="white" stroke="black" points="397,-593.5 397,-612.5 576,-612.5 576,-593.5 397,-593.5"/>
<text text-anchor="middle" x="486.5" y="-600.5" font-family="Helvetica,sans-Serif" font-size="10.00">vtkSurfaceBase::GetFaceNeighbours</text>
</a>
</g>
</g>
<!-- Node1&#45;&gt;Node12 -->
<g id="edge11" class="edge">
<title>Node1&#45;&gt;Node12</title>
<path fill="none" stroke="midnightblue" d="M682.81,-468.48C664.77,-497.89 625.37,-554.99 576,-584 569.36,-587.9 562.02,-591 554.49,-593.47"/>
<polygon fill="midnightblue" stroke="midnightblue" points="685.96,-470.02 688.09,-459.64 679.96,-466.43 685.96,-470.02"/>
</g>
<!-- Node13 -->
<g id="node13" class="node">
<title>Node13</title>
<g id="a_node13"><a xlink:href="../../d3/d13/classvtk_surface_base.html#a6c3a0d390ca15d995c91db45c81fcea8" target="_top" xlink:title="Returns the third Point of the face f1 (the two first Points are v1 and v2)">
<polygon fill="white" stroke="black" points="421.5,-856 421.5,-886 551.5,-886 551.5,-856 421.5,-856"/>
<text text-anchor="start" x="429.5" y="-874" font-family="Helvetica,sans-Serif" font-size="10.00">vtkSurfaceBase::GetThird</text>
<text text-anchor="middle" x="486.5" y="-863" font-family="Helvetica,sans-Serif" font-size="10.00">Point</text>
</a>
</g>
</g>
<!-- Node1&#45;&gt;Node13 -->
<g id="edge12" class="edge">
<title>Node1&#45;&gt;Node13</title>
<path fill="none" stroke="midnightblue" d="M693.87,-470.05C693.92,-534.48 685.07,-738.35 576,-846 569.18,-852.73 560.7,-857.68 551.7,-861.31"/>
<polygon fill="midnightblue" stroke="midnightblue" points="697.37,-469.66 693.78,-459.69 690.37,-469.72 697.37,-469.66"/>
</g>
<!-- Node17 -->
<g id="node17" class="node">
<title>Node17</title>
<g id="a_node17"><a xlink:href="../../d1/dfa/classvtk_surface.html#a9f85433b2736667c1bb747927e7361d2" target="_top" xlink:title="Computes the normal of the given triangle.">
<polygon fill="white" stroke="black" points="410.5,-555.5 410.5,-574.5 562.5,-574.5 562.5,-555.5 410.5,-555.5"/>
<text text-anchor="middle" x="486.5" y="-562.5" font-family="Helvetica,sans-Serif" font-size="10.00">vtkSurface::GetTriangleNormal</text>
</a>
</g>
</g>
<!-- Node1&#45;&gt;Node17 -->
<g id="edge19" class="edge">
<title>Node1&#45;&gt;Node17</title>
<path fill="none" stroke="midnightblue" d="M677.7,-467.2C656.65,-489.01 617.26,-526.16 576,-546 567.93,-549.88 559.06,-552.98 550.16,-555.44"/>
<polygon fill="midnightblue" stroke="midnightblue" points="680.5,-469.33 684.83,-459.66 675.42,-464.52 680.5,-469.33"/>
</g>
<!-- Node18 -->
<g id="node18" class="node">
<title>Node18</title>
<g id="a_node18"><a xlink:href="../../d1/dfa/classvtk_surface.html#a3e3d4e050331aff21a0a3bc4fc243804" target="_top" xlink:title="Computes the Triangles Areas.">
<polygon fill="white" stroke="black" points="424,-506 424,-536 549,-536 549,-506 424,-506"/>
<text text-anchor="start" x="432" y="-524" font-family="Helvetica,sans-Serif" font-size="10.00">vtkSurface::GetTriangles</text>
<text text-anchor="middle" x="486.5" y="-513" font-family="Helvetica,sans-Serif" font-size="10.00">Areas</text>
</a>
</g>
</g>
<!-- Node1&#45;&gt;Node18 -->
<g id="edge20" class="edge">
<title>Node1&#45;&gt;Node18</title>
<path fill="none" stroke="midnightblue" d="M662.26,-463.64C638.79,-473.61 605.72,-487.06 576,-497 566.64,-500.13 556.62,-503.15 546.81,-505.93"/>
<polygon fill="midnightblue" stroke="midnightblue" points="663.88,-466.76 671.69,-459.61 661.12,-460.32 663.88,-466.76"/>
</g>
<!-- Node19 -->
<g id="node19" class="node">
<title>Node19</title>
<g id="a_node19"><a xlink:href="../../d1/dfa/classvtk_surface.html#a5a6b69a3c3ab43f525215bbb92b89377" target="_top" xlink:title="returns the normals of the mesh triangles">
<polygon fill="white" stroke="black" points="424,-457 424,-487 549,-487 549,-457 424,-457"/>
<text text-anchor="start" x="432" y="-475" font-family="Helvetica,sans-Serif" font-size="10.00">vtkSurface::GetTriangles</text>
<text text-anchor="middle" x="486.5" y="-464" font-family="Helvetica,sans-Serif" font-size="10.00">Normals</text>
</a>
</g>
</g>
<!-- Node1&#45;&gt;Node19 -->
<g id="edge21" class="edge">
<title>Node1&#45;&gt;Node19</title>
<path fill="none" stroke="midnightblue" d="M601.42,-459.83C583.7,-461.73 565.55,-463.66 549.09,-465.42"/>
<polygon fill="midnightblue" stroke="midnightblue" points="602.22,-463.27 611.79,-458.73 601.47,-456.31 602.22,-463.27"/>
</g>
<!-- Node20 -->
<g id="node20" class="node">
<title>Node20</title>
<g id="a_node20"><a xlink:href="../../d1/dfa/classvtk_surface.html#a996cf3bc28f8a22732f0310eac7f8fd3" target="_top" xlink:title="Computes the area of Vertex (it will actually compute the area of the Surrounding cells divided by th...">
<polygon fill="white" stroke="black" points="419.5,-418.5 419.5,-437.5 553.5,-437.5 553.5,-418.5 419.5,-418.5"/>
<text text-anchor="middle" x="486.5" y="-425.5" font-family="Helvetica,sans-Serif" font-size="10.00">vtkSurface::GetVertexArea</text>
</a>
</g>
</g>
<!-- Node1&#45;&gt;Node20 -->
<g id="edge22" class="edge">
<title>Node1&#45;&gt;Node20</title>
<path fill="none" stroke="midnightblue" d="M601.75,-440.2C585.52,-438.47 568.92,-436.69 553.57,-435.06"/>
<polygon fill="midnightblue" stroke="midnightblue" points="601.47,-443.69 611.79,-441.27 602.22,-436.73 601.47,-443.69"/>
</g>
<!-- Node22 -->
<g id="node22" class="node">
<title>Node22</title>
<g id="a_node22"><a xlink:href="../../d1/dfa/classvtk_surface.html#ac7e948e93dc12e4773321535197b9866" target="_top" xlink:title="Computes the normal at a vertex (works only for triangular meshes)">
<polygon fill="white" stroke="black" points="414,-380.5 414,-399.5 559,-399.5 559,-380.5 414,-380.5"/>
<text text-anchor="middle" x="486.5" y="-387.5" font-family="Helvetica,sans-Serif" font-size="10.00">vtkSurface::GetVertexNormal</text>
</a>
</g>
</g>
<!-- Node1&#45;&gt;Node22 -->
<g id="edge24" class="edge">
<title>Node1&#45;&gt;Node22</title>
<path fill="none" stroke="midnightblue" d="M659.6,-436.91C636.32,-428.24 604.58,-417.02 576,-409 563.59,-405.52 550.05,-402.32 537.38,-399.58"/>
<polygon fill="midnightblue" stroke="midnightblue" points="658.43,-440.21 669.03,-440.46 660.9,-433.66 658.43,-440.21"/>
</g>
<!-- Node23 -->
<g id="node23" class="node">
<title>Node23</title>
<g id="a_node23"><a xlink:href="../../d3/d13/classvtk_surface_base.html#a343111e4b8b0103bf1f5d6d29fc41c18" target="_top" xlink:title="Merge the two input vertices v1 and v2.">
<polygon fill="white" stroke="black" points="409,-342.5 409,-361.5 564,-361.5 564,-342.5 409,-342.5"/>
<text text-anchor="middle" x="486.5" y="-349.5" font-family="Helvetica,sans-Serif" font-size="10.00">vtkSurfaceBase::MergeVertices</text>
</a>
</g>
</g>
<!-- Node1&#45;&gt;Node23 -->
<g id="edge25" class="edge">
<title>Node1&#45;&gt;Node23</title>
<path fill="none" stroke="midnightblue" d="M674.41,-433.77C652.21,-415.73 613.75,-387.04 576,-371 566.89,-367.13 556.9,-364.01 547.02,-361.51"/>
<polygon fill="midnightblue" stroke="midnightblue" points="672.42,-436.66 682.35,-440.33 676.88,-431.26 672.42,-436.66"/>
</g>
<!-- Node24 -->
<g id="node24" class="node">
<title>Node24</title>
<g id="a_node24"><a xlink:href="../../d1/dfa/classvtk_surface.html#aa9c37234e6d2d50974272d327a8c9b94" target="_top" xlink:title=" ">
<polygon fill="white" stroke="black" points="414,-304.5 414,-323.5 559,-323.5 559,-304.5 414,-304.5"/>
<text text-anchor="middle" x="486.5" y="-311.5" font-family="Helvetica,sans-Serif" font-size="10.00">vtkSurface::PrintConnectivity</text>
</a>
</g>
</g>
<!-- Node1&#45;&gt;Node24 -->
<g id="edge26" class="edge">
<title>Node1&#45;&gt;Node24</title>
<path fill="none" stroke="midnightblue" d="M680.85,-432.03C661.44,-405.89 621.72,-357.82 576,-333 568.82,-329.1 560.9,-326 552.85,-323.54"/>
<polygon fill="midnightblue" stroke="midnightblue" points="678.13,-434.25 686.84,-440.28 683.8,-430.13 678.13,-434.25"/>
</g>
<!-- Node25 -->
<g id="node25" class="node">
<title>Node25</title>
<g id="a_node25"><a xlink:href="../../d1/dfa/classvtk_surface.html#a6da5c6c1bb20cfebd692bd8a24b948ba" target="_top" xlink:title=" ">
<polygon fill="white" stroke="black" points="413,-266.5 413,-285.5 560,-285.5 560,-266.5 413,-266.5"/>
<text text-anchor="middle" x="486.5" y="-273.5" font-family="Helvetica,sans-Serif" font-size="10.00">vtkSurface::SaveConnectivity</text>
</a>
</g>
</g>
<!-- Node1&#45;&gt;Node25 -->
<g id="edge27" class="edge">
<title>Node1&#45;&gt;Node25</title>
<path fill="none" stroke="midnightblue" d="M684.97,-431.44C668.76,-398.37 630.21,-329.51 576,-295 569.9,-291.12 563.14,-288.02 556.14,-285.54"/>
<polygon fill="midnightblue" stroke="midnightblue" points="681.81,-432.95 689.28,-440.47 688.13,-429.94 681.81,-432.95"/>
</g>
<!-- Node26 -->
<g id="node26" class="node">
<title>Node26</title>
<g id="a_node26"><a xlink:href="../../d1/dfa/classvtk_surface.html#aeb1922c987d5fdcebe1b680d82db9087" target="_top" xlink:title="Recusrsively splits the edges longer than Ratio*AverageLength.">
<polygon fill="white" stroke="black" points="417.5,-228.5 417.5,-247.5 555.5,-247.5 555.5,-228.5 417.5,-228.5"/>
<text text-anchor="middle" x="486.5" y="-235.5" font-family="Helvetica,sans-Serif" font-size="10.00">vtkSurface::SplitLongEdges</text>
</a>
</g>
</g>
<!-- Node1&#45;&gt;Node26 -->
<g id="edge28" class="edge">
<title>Node1&#45;&gt;Node26</title>
<path fill="none" stroke="midnightblue" d="M687.6,-430.82C674.45,-391.48 638.85,-301.65 576,-257 569.85,-252.63 562.9,-249.23 555.65,-246.59"/>
<polygon fill="midnightblue" stroke="midnightblue" points="684.32,-432.05 690.71,-440.49 690.98,-429.9 684.32,-432.05"/>
</g>
<!-- Node27 -->
<g id="node27" class="node">
<title>Node27</title>
<g id="a_node27"><a xlink:href="../../d1/dfa/classvtk_surface.html#ad35b4c37556f13f0deeb6bb9753f18af" target="_top" xlink:title="returns a mesh which is a linear subdivision of this">
<polygon fill="white" stroke="black" points="430,-190.5 430,-209.5 543,-209.5 543,-190.5 430,-190.5"/>
<text text-anchor="middle" x="486.5" y="-197.5" font-family="Helvetica,sans-Serif" font-size="10.00">vtkSurface::Subdivide</text>
</a>
</g>
</g>
<!-- Node1&#45;&gt;Node27 -->
<g id="edge29" class="edge">
<title>Node1&#45;&gt;Node27</title>
<path fill="none" stroke="midnightblue" d="M689.48,-430.21C679.22,-385.07 647.66,-274.14 576,-219 566.53,-211.72 554.89,-207.08 543.19,-204.17"/>
<polygon fill="midnightblue" stroke="midnightblue" points="686.1,-431.16 691.64,-440.2 692.95,-429.68 686.1,-431.16"/>
</g>
<!-- Node28 -->
<g id="node28" class="node">
<title>Node28</title>
<g id="a_node28"><a xlink:href="../../d1/dfa/classvtk_surface.html#a8871f6a866295a51c983283a4ccc0a9d" target="_top" xlink:title="subdivide the mesh (in place)">
<polygon fill="white" stroke="black" points="413.5,-152.5 413.5,-171.5 559.5,-171.5 559.5,-152.5 413.5,-152.5"/>
<text text-anchor="middle" x="486.5" y="-159.5" font-family="Helvetica,sans-Serif" font-size="10.00">vtkSurface::SubdivideInPlace</text>
</a>
</g>
</g>
<!-- Node1&#45;&gt;Node28 -->
<g id="edge30" class="edge">
<title>Node1&#45;&gt;Node28</title>
<path fill="none" stroke="midnightblue" d="M691,-430.12C683.58,-379.88 656.9,-247.12 576,-181 571.13,-177.02 565.63,-173.82 559.8,-171.26"/>
<polygon fill="midnightblue" stroke="midnightblue" points="687.57,-430.86 692.4,-440.29 694.51,-429.9 687.57,-430.86"/>
</g>
<!-- Node29 -->
<g id="node29" class="node">
<title>Node29</title>
<g id="a_node29"><a xlink:href="../../d3/d13/classvtk_surface_base.html#aa396a785b13b7e7784d5ce5d1bdba2d9" target="_top" xlink:title="switches the cells orientation (usefull when the mesh is displayed all black...)">
<polygon fill="white" stroke="black" points="401.5,-114.5 401.5,-133.5 571.5,-133.5 571.5,-114.5 401.5,-114.5"/>
<text text-anchor="middle" x="486.5" y="-121.5" font-family="Helvetica,sans-Serif" font-size="10.00">vtkSurfaceBase::SwitchOrientation</text>
</a>
</g>
</g>
<!-- Node1&#45;&gt;Node29 -->
<g id="edge31" class="edge">
<title>Node1&#45;&gt;Node29</title>
<path fill="none" stroke="midnightblue" d="M692.21,-430.33C687.51,-375.61 666.43,-220.47 576,-143 571.58,-139.22 566.6,-136.13 561.29,-133.62"/>
<polygon fill="midnightblue" stroke="midnightblue" points="688.73,-430.72 692.98,-440.42 695.71,-430.19 688.73,-430.72"/>
</g>
<!-- Node30 -->
<g id="node30" class="node">
<title>Node30</title>
<g id="a_node30"><a xlink:href="../../d1/dfa/classvtk_surface.html#a3596f28b2dea146971ce5863e20d9d90" target="_top" xlink:title="Writes the mesh to a .iv file.">
<polygon fill="white" stroke="black" points="422.5,-76.5 422.5,-95.5 550.5,-95.5 550.5,-76.5 422.5,-76.5"/>
<text text-anchor="middle" x="486.5" y="-83.5" font-family="Helvetica,sans-Serif" font-size="10.00">vtkSurface::WriteInventor</text>
</a>
</g>
</g>
<!-- Node1&#45;&gt;Node30 -->
<g id="edge32" class="edge">
<title>Node1&#45;&gt;Node30</title>
<path fill="none" stroke="midnightblue" d="M693.13,-429.94C690.88,-370.46 675.72,-193.71 576,-105 568.84,-98.63 560.06,-94.22 550.85,-91.19"/>
<polygon fill="midnightblue" stroke="midnightblue" points="689.64,-430.32 693.43,-440.21 696.64,-430.11 689.64,-430.32"/>
</g>
<!-- Node31 -->
<g id="node31" class="node">
<title>Node31</title>
<g id="a_node31"><a xlink:href="../../d1/dfa/classvtk_surface.html#aebdfe43ce32df090ca1b20d606aae51e" target="_top" xlink:title=" ">
<polygon fill="white" stroke="black" points="400,-38.5 400,-57.5 573,-57.5 573,-38.5 400,-38.5"/>
<text text-anchor="middle" x="486.5" y="-45.5" font-family="Helvetica,sans-Serif" font-size="10.00">vtkSurface::WriteMeshStatisticsFile</text>
</a>
</g>
</g>
<!-- Node1&#45;&gt;Node31 -->
<g id="edge33" class="edge">
<title>Node1&#45;&gt;Node31</title>
<path fill="none" stroke="midnightblue" d="M693.91,-430.31C694.07,-367.09 685.53,-167.47 576,-67 571.83,-63.18 567.08,-60.05 562.01,-57.51"/>
<polygon fill="midnightblue" stroke="midnightblue" points="690.41,-430.44 693.8,-440.48 697.41,-430.52 690.41,-430.44"/>
</g>
<!-- Node32 -->
<g id="node32" class="node">
<title>Node32</title>
<g id="a_node32"><a xlink:href="../../d1/dfa/classvtk_surface.html#a606d97a9ad65391d5fb0a9bb475d7b20" target="_top" xlink:title="Writes the mesh to a .smf file.">
<polygon fill="white" stroke="black" points="430,-0.5 430,-19.5 543,-19.5 543,-0.5 430,-0.5"/>
<text text-anchor="middle" x="486.5" y="-7.5" font-family="Helvetica,sans-Serif" font-size="10.00">vtkSurface::WriteSMF</text>
</a>
</g>
</g>
<!-- Node1&#45;&gt;Node32 -->
<g id="edge34" class="edge">
<title>Node1&#45;&gt;Node32</title>
<path fill="none" stroke="midnightblue" d="M690.75,-430.47C679.76,-355.32 636.71,-86.13 576,-29 567.07,-20.6 555.37,-15.55 543.41,-12.6"/>
<polygon fill="midnightblue" stroke="midnightblue" points="687.3,-431.06 692.18,-440.46 694.22,-430.06 687.3,-431.06"/>
</g>
<!-- Node8 -->
<g id="node8" class="node">
<title>Node8</title>
<g id="a_node8"><a xlink:href="../../d1/dfa/classvtk_surface.html#afe3aaa7de019acb523e75df87e6c9a19" target="_top" xlink:title="copy to stream the connectivity and geometric properties of the mesh">
<polygon fill="white" stroke="black" points="207,-637.5 207,-656.5 361,-656.5 361,-637.5 207,-637.5"/>
<text text-anchor="middle" x="284" y="-644.5" font-family="Helvetica,sans-Serif" font-size="10.00">vtkSurface::GetMeshProperties</text>
</a>
</g>
</g>
<!-- Node7&#45;&gt;Node8 -->
<g id="edge7" class="edge">
<title>Node7&#45;&gt;Node8</title>
<path fill="none" stroke="midnightblue" d="M401.79,-647C388.33,-647 374.47,-647 361.2,-647"/>
<polygon fill="midnightblue" stroke="midnightblue" points="401.98,-650.5 411.98,-647 401.98,-643.5 401.98,-650.5"/>
</g>
<!-- Node9 -->
<g id="node9" class="node">
<title>Node9</title>
<g id="a_node9"><a xlink:href="../../d1/dfa/classvtk_surface.html#a95f0aa5277c846fe4a21300f55409186" target="_top" xlink:title="same as GetMeshProperties, but the properties are displayed on screen">
<polygon fill="white" stroke="black" points="0,-637.5 0,-656.5 171,-656.5 171,-637.5 0,-637.5"/>
<text text-anchor="middle" x="85.5" y="-644.5" font-family="Helvetica,sans-Serif" font-size="10.00">vtkSurface::DisplayMeshProperties</text>
</a>
</g>
</g>
<!-- Node8&#45;&gt;Node9 -->
<g id="edge8" class="edge">
<title>Node8&#45;&gt;Node9</title>
<path fill="none" stroke="midnightblue" d="M196.55,-647C188.13,-647 179.59,-647 171.19,-647"/>
<polygon fill="midnightblue" stroke="midnightblue" points="196.75,-650.5 206.75,-647 196.75,-643.5 196.75,-650.5"/>
</g>
<!-- Node11 -->
<g id="node11" class="node">
<title>Node11</title>
<g id="a_node11"><a xlink:href="../../d3/d13/classvtk_surface_base.html#a8c1c05d41fedc99401dd39995d8e5c97" target="_top" xlink:title="Flips the edge. If the resulting edge already exists, it is flipped (an so on). Returns &#45;1 in case of...">
<polygon fill="white" stroke="black" points="10,-905.5 10,-924.5 161,-924.5 161,-905.5 10,-905.5"/>
<text text-anchor="middle" x="85.5" y="-912.5" font-family="Helvetica,sans-Serif" font-size="10.00">vtkSurfaceBase::FlipEdgeSure</text>
</a>
</g>
</g>
<!-- Node10&#45;&gt;Node11 -->
<g id="edge10" class="edge">
<title>Node10&#45;&gt;Node11</title>
<path fill="none" stroke="midnightblue" d="M208.34,-915C192.85,-915 176.52,-915 161.04,-915"/>
<polygon fill="midnightblue" stroke="midnightblue" points="208.39,-918.5 218.39,-915 208.39,-911.5 208.39,-918.5"/>
</g>
<!-- Node13&#45;&gt;Node2 -->
<g id="edge13" class="edge">
<title>Node13&#45;&gt;Node2</title>
<path fill="none" stroke="midnightblue" d="M451.14,-891.02C426.65,-904.62 392.6,-922.22 361,-934 351.19,-937.66 340.4,-940.83 330.12,-943.49"/>
<polygon fill="midnightblue" stroke="midnightblue" points="453.03,-893.97 460.03,-886.02 449.6,-887.87 453.03,-893.97"/>
</g>
<!-- Node13&#45;&gt;Node10 -->
<g id="edge16" class="edge">
<title>Node13&#45;&gt;Node10</title>
<path fill="none" stroke="midnightblue" d="M411.11,-887.33C383.23,-893.44 352.49,-900.19 328.33,-905.49"/>
<polygon fill="midnightblue" stroke="midnightblue" points="412.22,-890.67 421.23,-885.1 410.72,-883.83 412.22,-890.67"/>
</g>
<!-- Node14 -->
<g id="node14" class="node">
<title>Node14</title>
<g id="a_node14"><a xlink:href="../../d3/d13/classvtk_surface_base.html#ae1d5c759716c9ec5bb01ceab96ece9d1" target="_top" xlink:title="Conquer from a triangle f1 through the edge bounded by v1 and v2.">
<polygon fill="white" stroke="black" points="219.5,-867.5 219.5,-886.5 348.5,-886.5 348.5,-867.5 219.5,-867.5"/>
<text text-anchor="middle" x="284" y="-874.5" font-family="Helvetica,sans-Serif" font-size="10.00">vtkSurfaceBase::Conquer</text>
</a>
</g>
</g>
<!-- Node13&#45;&gt;Node14 -->
<g id="edge14" class="edge">
<title>Node13&#45;&gt;Node14</title>
<path fill="none" stroke="midnightblue" d="M410.98,-873.23C390.46,-873.84 368.4,-874.5 348.56,-875.1"/>
<polygon fill="midnightblue" stroke="midnightblue" points="411.34,-876.72 421.23,-872.92 411.13,-869.72 411.34,-876.72"/>
</g>
<!-- Node15 -->
<g id="node15" class="node">
<title>Node15</title>
<g id="a_node15"><a xlink:href="../../d3/d13/classvtk_surface_base.html#adea9f67a72ae9f40ebbc5dd3536c0864" target="_top" xlink:title="returns true if the vertex is manifold.">
<polygon fill="white" stroke="black" points="21.5,-840 21.5,-870 149.5,-870 149.5,-840 21.5,-840"/>
<text text-anchor="start" x="29.5" y="-858" font-family="Helvetica,sans-Serif" font-size="10.00">vtkSurfaceBase::IsVertex</text>
<text text-anchor="middle" x="85.5" y="-847" font-family="Helvetica,sans-Serif" font-size="10.00">Manifold</text>
</a>
</g>
</g>
<!-- Node13&#45;&gt;Node15 -->
<g id="edge18" class="edge">
<title>Node13&#45;&gt;Node15</title>
<path fill="none" stroke="midnightblue" d="M411.16,-862.09C394.67,-860.44 377.26,-858.94 361,-858 288.56,-853.83 205.19,-853.56 149.52,-854.02"/>
<polygon fill="midnightblue" stroke="midnightblue" points="410.99,-865.59 421.3,-863.14 411.71,-858.63 410.99,-865.59"/>
</g>
<!-- Node16 -->
<g id="node16" class="node">
<title>Node16</title>
<g id="a_node16"><a xlink:href="../../d3/d13/classvtk_surface_base.html#a193d4aa307b371583cb5c27a5a91efca" target="_top" xlink:title="Returns the Id of the face having v1, v2 and v3 for vertices.">
<polygon fill="white" stroke="black" points="223,-791.5 223,-810.5 345,-810.5 345,-791.5 223,-791.5"/>
<text text-anchor="middle" x="284" y="-798.5" font-family="Helvetica,sans-Serif" font-size="10.00">vtkSurfaceBase::IsFace</text>
</a>
</g>
</g>
<!-- Node13&#45;&gt;Node16 -->
<g id="edge17" class="edge">
<title>Node13&#45;&gt;Node16</title>
<path fill="none" stroke="midnightblue" d="M414.76,-852.77C408.68,-850.67 402.69,-848.42 397,-846 379.95,-838.76 377.94,-832.5 361,-825 348.22,-819.34 333.7,-814.41 320.79,-810.52"/>
<polygon fill="midnightblue" stroke="midnightblue" points="413.75,-856.12 424.34,-855.91 415.93,-849.47 413.75,-856.12"/>
</g>
<!-- Node14&#45;&gt;Node15 -->
<g id="edge15" class="edge">
<title>Node14&#45;&gt;Node15</title>
<path fill="none" stroke="midnightblue" d="M209.37,-868.76C189.78,-866.56 168.79,-864.21 149.81,-862.09"/>
<polygon fill="midnightblue" stroke="midnightblue" points="209.15,-872.25 219.47,-869.89 209.92,-865.3 209.15,-872.25"/>
</g>
<!-- Node21 -->
<g id="node21" class="node">
<title>Node21</title>
<g id="a_node21"><a xlink:href="../../d1/dfa/classvtk_surface.html#a827481a8bbfe917053f7fb961950daaa" target="_top" xlink:title="Computes the Vertices Areas with respect to their surrounding cells.">
<polygon fill="white" stroke="black" points="211,-418.5 211,-437.5 357,-437.5 357,-418.5 211,-418.5"/>
<text text-anchor="middle" x="284" y="-425.5" font-family="Helvetica,sans-Serif" font-size="10.00">vtkSurface::GetVerticesAreas</text>
</a>
</g>
</g>
<!-- Node20&#45;&gt;Node21 -->
<g id="edge23" class="edge">
<title>Node20&#45;&gt;Node21</title>
<path fill="none" stroke="midnightblue" d="M408.84,-428C391.82,-428 373.83,-428 357.01,-428"/>
<polygon fill="midnightblue" stroke="midnightblue" points="409.29,-431.5 419.29,-428 409.29,-424.5 409.29,-431.5"/>
</g>
</g>
</svg>
