<?xml version="1.0" encoding="UTF-8" standalone="no"?>
<!DOCTYPE svg PUBLIC "-//W3C//DTD SVG 1.1//EN"
 "http://www.w3.org/Graphics/SVG/1.1/DTD/svg11.dtd">
<!-- Generated by graphviz version 2.44.1 (0)
 -->
<!-- Title: vtkSurfaceBase::AddFace Pages: 1 -->
<svg width="321pt" height="142pt"
 viewBox="0.00 0.00 321.00 142.00" xmlns="http://www.w3.org/2000/svg" xmlns:xlink="http://www.w3.org/1999/xlink">
<g id="graph0" class="graph" transform="scale(1 1) rotate(0) translate(4 138)">
<title>vtkSurfaceBase::AddFace</title>
<polygon fill="white" stroke="transparent" points="-4,4 -4,-138 317,-138 317,4 -4,4"/>
<!-- Node1 -->
<g id="node1" class="node">
<title>Node1</title>
<g id="a_node1"><a xlink:title="Adds a face (ve1,ve2,ve3) to the vtkSurfaceBase Object and returns its Id.">
<polygon fill="#bfbfbf" stroke="black" points="182,-57.5 182,-76.5 313,-76.5 313,-57.5 182,-57.5"/>
<text text-anchor="middle" x="247.5" y="-64.5" font-family="Helvetica,sans-Serif" font-size="10.00">vtkSurfaceBase::AddFace</text>
</a>
</g>
</g>
<!-- Node2 -->
<g id="node2" class="node">
<title>Node2</title>
<g id="a_node2"><a xlink:href="../../d3/d13/classvtk_surface_base.html#a3605512219637518eaa534c82f974a79" target="_top" xlink:title="Bisects Edge by creating a new vertex at its midpoints and two new faces.">
<polygon fill="white" stroke="black" points="1.5,-114.5 1.5,-133.5 144.5,-133.5 144.5,-114.5 1.5,-114.5"/>
<text text-anchor="middle" x="73" y="-121.5" font-family="Helvetica,sans-Serif" font-size="10.00">vtkSurfaceBase::BisectEdge</text>
</a>
</g>
</g>
<!-- Node1&#45;&gt;Node2 -->
<g id="edge1" class="edge">
<title>Node1&#45;&gt;Node2</title>
<path fill="none" stroke="midnightblue" d="M213.84,-80.33C194.33,-88.05 168.95,-97.66 146,-105 135.41,-108.39 123.81,-111.65 113.07,-114.48"/>
<polygon fill="midnightblue" stroke="midnightblue" points="215.2,-83.56 223.19,-76.6 212.6,-77.06 215.2,-83.56"/>
</g>
<!-- Node3 -->
<g id="node3" class="node">
<title>Node3</title>
<g id="a_node3"><a xlink:href="../../d1/dfa/classvtk_surface.html#aeb1922c987d5fdcebe1b680d82db9087" target="_top" xlink:title="Recusrsively splits the edges longer than Ratio*AverageLength.">
<polygon fill="white" stroke="black" points="4,-76.5 4,-95.5 142,-95.5 142,-76.5 4,-76.5"/>
<text text-anchor="middle" x="73" y="-83.5" font-family="Helvetica,sans-Serif" font-size="10.00">vtkSurface::SplitLongEdges</text>
</a>
</g>
</g>
<!-- Node1&#45;&gt;Node3 -->
<g id="edge2" class="edge">
<title>Node1&#45;&gt;Node3</title>
<path fill="none" stroke="midnightblue" d="M171.68,-75.24C161.9,-76.32 151.92,-77.42 142.26,-78.48"/>
<polygon fill="midnightblue" stroke="midnightblue" points="172.22,-78.7 181.78,-74.13 171.45,-71.74 172.22,-78.7"/>
</g>
<!-- Node4 -->
<g id="node4" class="node">
<title>Node4</title>
<g id="a_node4"><a xlink:href="../../d1/dfa/classvtk_surface.html#ad35b4c37556f13f0deeb6bb9753f18af" target="_top" xlink:title="returns a mesh which is a linear subdivision of this">
<polygon fill="white" stroke="black" points="16.5,-38.5 16.5,-57.5 129.5,-57.5 129.5,-38.5 16.5,-38.5"/>
<text text-anchor="middle" x="73" y="-45.5" font-family="Helvetica,sans-Serif" font-size="10.00">vtkSurface::Subdivide</text>
</a>
</g>
</g>
<!-- Node1&#45;&gt;Node4 -->
<g id="edge3" class="edge">
<title>Node1&#45;&gt;Node4</title>
<path fill="none" stroke="midnightblue" d="M171.63,-58.75C157.57,-57.21 143.1,-55.61 129.75,-54.14"/>
<polygon fill="midnightblue" stroke="midnightblue" points="171.45,-62.26 181.78,-59.87 172.22,-55.3 171.45,-62.26"/>
</g>
<!-- Node5 -->
<g id="node5" class="node">
<title>Node5</title>
<g id="a_node5"><a xlink:href="../../d1/dfa/classvtk_surface.html#a8871f6a866295a51c983283a4ccc0a9d" target="_top" xlink:title="subdivide the mesh (in place)">
<polygon fill="white" stroke="black" points="0,-0.5 0,-19.5 146,-19.5 146,-0.5 0,-0.5"/>
<text text-anchor="middle" x="73" y="-7.5" font-family="Helvetica,sans-Serif" font-size="10.00">vtkSurface::SubdivideInPlace</text>
</a>
</g>
</g>
<!-- Node1&#45;&gt;Node5 -->
<g id="edge4" class="edge">
<title>Node1&#45;&gt;Node5</title>
<path fill="none" stroke="midnightblue" d="M213.84,-53.67C194.33,-45.95 168.95,-36.34 146,-29 135.41,-25.61 123.81,-22.35 113.07,-19.52"/>
<polygon fill="midnightblue" stroke="midnightblue" points="212.6,-56.94 223.19,-57.4 215.2,-50.44 212.6,-56.94"/>
</g>
</g>
</svg>
