<?xml version="1.0" encoding="UTF-8" standalone="no"?>
<!DOCTYPE svg PUBLIC "-//W3C//DTD SVG 1.1//EN"
 "http://www.w3.org/Graphics/SVG/1.1/DTD/svg11.dtd">
<!-- Generated by graphviz version 2.44.1 (0)
 -->
<!-- Title: vtkSurfaceBase::AddEdge Pages: 1 -->
<svg width="708pt" height="330pt"
 viewBox="0.00 0.00 708.00 329.50" xmlns="http://www.w3.org/2000/svg" xmlns:xlink="http://www.w3.org/1999/xlink">
<g id="graph0" class="graph" transform="scale(1 1) rotate(0) translate(4 325.5)">
<title>vtkSurfaceBase::AddEdge</title>
<polygon fill="white" stroke="transparent" points="-4,4 -4,-325.5 704,-325.5 704,4 -4,4"/>
<!-- Node1 -->
<g id="node1" class="node">
<title>Node1</title>
<g id="a_node1"><a xlink:title="adds an edge (v1,v2) to the vtkSurface and returns its Id">
<polygon fill="#bfbfbf" stroke="black" points="568,-94 568,-113 700,-113 700,-94 568,-94"/>
<text text-anchor="middle" x="634" y="-101" font-family="Helvetica,sans-Serif" font-size="10.00">vtkSurfaceBase::AddEdge</text>
</a>
</g>
</g>
<!-- Node2 -->
<g id="node2" class="node">
<title>Node2</title>
<g id="a_node2"><a xlink:href="../../d3/d13/classvtk_surface_base.html#af60b7f39eb89fccc1256dc2bad3af80b" target="_top" xlink:title="Adds a face (ve1,ve2,ve3) to the vtkSurfaceBase Object and returns its Id.">
<polygon fill="white" stroke="black" points="385.5,-204 385.5,-223 530.5,-223 530.5,-204 385.5,-204"/>
<text text-anchor="middle" x="458" y="-211" font-family="Helvetica,sans-Serif" font-size="10.00">vtkSurfaceBase::AddPolygon</text>
</a>
</g>
</g>
<!-- Node1&#45;&gt;Node2 -->
<g id="edge1" class="edge">
<title>Node1&#45;&gt;Node2</title>
<path fill="none" stroke="midnightblue" d="M609.37,-118.44C573.08,-141.38 504.64,-184.65 474.23,-203.87"/>
<polygon fill="midnightblue" stroke="midnightblue" points="611.28,-121.37 617.86,-113.07 607.54,-115.45 611.28,-121.37"/>
</g>
<!-- Node4 -->
<g id="node4" class="node">
<title>Node4</title>
<g id="a_node4"><a xlink:href="../../d3/d13/classvtk_surface_base.html#a3605512219637518eaa534c82f974a79" target="_top" xlink:title="Bisects Edge by creating a new vertex at its midpoints and two new faces.">
<polygon fill="white" stroke="black" points="1.5,-163 1.5,-182 144.5,-182 144.5,-163 1.5,-163"/>
<text text-anchor="middle" x="73" y="-170" font-family="Helvetica,sans-Serif" font-size="10.00">vtkSurfaceBase::BisectEdge</text>
</a>
</g>
</g>
<!-- Node1&#45;&gt;Node4 -->
<g id="edge9" class="edge">
<title>Node1&#45;&gt;Node4</title>
<path fill="none" stroke="midnightblue" d="M588.26,-115.51C570.81,-119.83 550.57,-124.4 532,-127.5 395.87,-150.25 234.9,-162.79 144.61,-168.54"/>
<polygon fill="midnightblue" stroke="midnightblue" points="589.34,-118.84 598.18,-113 587.63,-112.06 589.34,-118.84"/>
</g>
<!-- Node10 -->
<g id="node10" class="node">
<title>Node10</title>
<g id="a_node10"><a xlink:href="../../d3/d13/classvtk_surface_base.html#a16e3b6b8174063a24d61f9e20e71aaf1" target="_top" xlink:title="Changes one vertex of a given face.">
<polygon fill="white" stroke="black" points="384,-88.5 384,-118.5 532,-118.5 532,-88.5 384,-88.5"/>
<text text-anchor="start" x="392" y="-106.5" font-family="Helvetica,sans-Serif" font-size="10.00">vtkSurfaceBase::ChangeFace</text>
<text text-anchor="middle" x="458" y="-95.5" font-family="Helvetica,sans-Serif" font-size="10.00">Vertex</text>
</a>
</g>
</g>
<!-- Node1&#45;&gt;Node10 -->
<g id="edge10" class="edge">
<title>Node1&#45;&gt;Node10</title>
<path fill="none" stroke="midnightblue" d="M557.56,-103.5C549.16,-103.5 540.62,-103.5 532.25,-103.5"/>
<polygon fill="midnightblue" stroke="midnightblue" points="557.71,-107 567.71,-103.5 557.71,-100 557.71,-107"/>
</g>
<!-- Node11 -->
<g id="node11" class="node">
<title>Node11</title>
<g id="a_node11"><a xlink:href="../../d1/dfa/classvtk_surface.html#a35760f7e4379a535a7338a3dba028b9f" target="_top" xlink:title="Builds a 1 connected component mesh from the mesh in two steps: First: merge the points which are clo...">
<polygon fill="white" stroke="black" points="190,-47 190,-66 340,-66 340,-47 190,-47"/>
<text text-anchor="middle" x="265" y="-54" font-family="Helvetica,sans-Serif" font-size="10.00">vtkSurface::CleanConnectivity</text>
</a>
</g>
</g>
<!-- Node1&#45;&gt;Node11 -->
<g id="edge11" class="edge">
<title>Node1&#45;&gt;Node11</title>
<path fill="none" stroke="midnightblue" d="M590.23,-91.3C572.37,-86.63 551.31,-81.67 532,-78.5 467.64,-67.94 393.64,-62.34 340.06,-59.44"/>
<polygon fill="midnightblue" stroke="midnightblue" points="589.51,-94.73 600.07,-93.93 591.31,-87.97 589.51,-94.73"/>
</g>
<!-- Node12 -->
<g id="node12" class="node">
<title>Node12</title>
<g id="a_node12"><a xlink:href="../../d3/d13/classvtk_surface_base.html#abb20d4428cd6182c950aff49ac550c29" target="_top" xlink:title="Embeds a vtkPolyData into a vtkSurfaceBase object.">
<polygon fill="white" stroke="black" points="386,-0.5 386,-30.5 530,-30.5 530,-0.5 386,-0.5"/>
<text text-anchor="start" x="394" y="-18.5" font-family="Helvetica,sans-Serif" font-size="10.00">vtkSurfaceBase::CreateFrom</text>
<text text-anchor="middle" x="458" y="-7.5" font-family="Helvetica,sans-Serif" font-size="10.00">PolyData</text>
</a>
</g>
</g>
<!-- Node1&#45;&gt;Node12 -->
<g id="edge12" class="edge">
<title>Node1&#45;&gt;Node12</title>
<path fill="none" stroke="midnightblue" d="M609.06,-88.56C588.89,-76.27 559.08,-58.77 532,-45.5 521.3,-40.25 509.44,-35.11 498.44,-30.6"/>
<polygon fill="midnightblue" stroke="midnightblue" points="607.25,-91.55 617.6,-93.81 610.91,-85.59 607.25,-91.55"/>
</g>
<!-- Node3 -->
<g id="node3" class="node">
<title>Node3</title>
<g id="a_node3"><a xlink:href="../../d3/d13/classvtk_surface_base.html#a0c1300b92e803904eddacbbc25a89c09" target="_top" xlink:title="Adds a face (ve1,ve2,ve3) to the vtkSurfaceBase Object and returns its Id.">
<polygon fill="white" stroke="black" points="199.5,-264 199.5,-283 330.5,-283 330.5,-264 199.5,-264"/>
<text text-anchor="middle" x="265" y="-271" font-family="Helvetica,sans-Serif" font-size="10.00">vtkSurfaceBase::AddFace</text>
</a>
</g>
</g>
<!-- Node2&#45;&gt;Node3 -->
<g id="edge2" class="edge">
<title>Node2&#45;&gt;Node3</title>
<path fill="none" stroke="midnightblue" d="M425.02,-226.8C403.5,-235.44 374.35,-246.53 348,-254.5 336.53,-257.97 324,-261.17 312.25,-263.91"/>
<polygon fill="midnightblue" stroke="midnightblue" points="426.38,-230.03 434.34,-223.03 423.75,-223.54 426.38,-230.03"/>
</g>
<!-- Node8 -->
<g id="node8" class="node">
<title>Node8</title>
<g id="a_node8"><a xlink:href="../../d1/dfa/classvtk_surface.html#afe7e615323e323b5aff70fa1b4cf6fb1" target="_top" xlink:title="returns a vtkSurface with no empty memory slots">
<polygon fill="white" stroke="black" points="199.5,-226 199.5,-245 330.5,-245 330.5,-226 199.5,-226"/>
<text text-anchor="middle" x="265" y="-233" font-family="Helvetica,sans-Serif" font-size="10.00">vtkSurface::CleanMemory</text>
</a>
</g>
</g>
<!-- Node2&#45;&gt;Node8 -->
<g id="edge7" class="edge">
<title>Node2&#45;&gt;Node8</title>
<path fill="none" stroke="midnightblue" d="M375.1,-222.93C360.2,-224.65 344.83,-226.42 330.52,-228.07"/>
<polygon fill="midnightblue" stroke="midnightblue" points="375.8,-226.38 385.34,-221.75 375,-219.42 375.8,-226.38"/>
</g>
<!-- Node9 -->
<g id="node9" class="node">
<title>Node9</title>
<g id="a_node9"><a xlink:href="../../d1/dfa/classvtk_surface.html#a56f1edbf05daf9d9e038d28b2261bcc5" target="_top" xlink:title="returns a vtkSurface made of the biggest connected component">
<polygon fill="white" stroke="black" points="182,-176.5 182,-206.5 348,-206.5 348,-176.5 182,-176.5"/>
<text text-anchor="start" x="190" y="-194.5" font-family="Helvetica,sans-Serif" font-size="10.00">vtkSurface::GetBiggestConnected</text>
<text text-anchor="middle" x="265" y="-183.5" font-family="Helvetica,sans-Serif" font-size="10.00">Component</text>
</a>
</g>
</g>
<!-- Node2&#45;&gt;Node9 -->
<g id="edge8" class="edge">
<title>Node2&#45;&gt;Node9</title>
<path fill="none" stroke="midnightblue" d="M375.24,-204.08C366.23,-203.04 357.04,-201.99 348.02,-200.95"/>
<polygon fill="midnightblue" stroke="midnightblue" points="375,-207.58 385.34,-205.25 375.8,-200.62 375,-207.58"/>
</g>
<!-- Node3&#45;&gt;Node4 -->
<g id="edge3" class="edge">
<title>Node3&#45;&gt;Node4</title>
<path fill="none" stroke="midnightblue" d="M194.28,-260.42C190.02,-258.69 185.89,-256.73 182,-254.5 161.81,-242.94 164.08,-231.14 146,-216.5 129.15,-202.86 107.72,-190.28 92.63,-182.1"/>
<polygon fill="midnightblue" stroke="midnightblue" points="193.17,-263.75 203.77,-263.87 195.56,-257.17 193.17,-263.75"/>
</g>
<!-- Node5 -->
<g id="node5" class="node">
<title>Node5</title>
<g id="a_node5"><a xlink:href="../../d1/dfa/classvtk_surface.html#aeb1922c987d5fdcebe1b680d82db9087" target="_top" xlink:title="Recusrsively splits the edges longer than Ratio*AverageLength.">
<polygon fill="white" stroke="black" points="4,-302 4,-321 142,-321 142,-302 4,-302"/>
<text text-anchor="middle" x="73" y="-309" font-family="Helvetica,sans-Serif" font-size="10.00">vtkSurface::SplitLongEdges</text>
</a>
</g>
</g>
<!-- Node3&#45;&gt;Node5 -->
<g id="edge4" class="edge">
<title>Node3&#45;&gt;Node5</title>
<path fill="none" stroke="midnightblue" d="M205.95,-285.11C178.93,-290.51 147.18,-296.86 121.6,-301.98"/>
<polygon fill="midnightblue" stroke="midnightblue" points="206.94,-288.48 216.05,-283.09 205.56,-281.62 206.94,-288.48"/>
</g>
<!-- Node6 -->
<g id="node6" class="node">
<title>Node6</title>
<g id="a_node6"><a xlink:href="../../d1/dfa/classvtk_surface.html#ad35b4c37556f13f0deeb6bb9753f18af" target="_top" xlink:title="returns a mesh which is a linear subdivision of this">
<polygon fill="white" stroke="black" points="16.5,-264 16.5,-283 129.5,-283 129.5,-264 16.5,-264"/>
<text text-anchor="middle" x="73" y="-271" font-family="Helvetica,sans-Serif" font-size="10.00">vtkSurface::Subdivide</text>
</a>
</g>
</g>
<!-- Node3&#45;&gt;Node6 -->
<g id="edge5" class="edge">
<title>Node3&#45;&gt;Node6</title>
<path fill="none" stroke="midnightblue" d="M189.15,-273.5C169.28,-273.5 148.17,-273.5 129.53,-273.5"/>
<polygon fill="midnightblue" stroke="midnightblue" points="189.41,-277 199.41,-273.5 189.41,-270 189.41,-277"/>
</g>
<!-- Node7 -->
<g id="node7" class="node">
<title>Node7</title>
<g id="a_node7"><a xlink:href="../../d1/dfa/classvtk_surface.html#a8871f6a866295a51c983283a4ccc0a9d" target="_top" xlink:title="subdivide the mesh (in place)">
<polygon fill="white" stroke="black" points="0,-226 0,-245 146,-245 146,-226 0,-226"/>
<text text-anchor="middle" x="73" y="-233" font-family="Helvetica,sans-Serif" font-size="10.00">vtkSurface::SubdivideInPlace</text>
</a>
</g>
</g>
<!-- Node3&#45;&gt;Node7 -->
<g id="edge6" class="edge">
<title>Node3&#45;&gt;Node7</title>
<path fill="none" stroke="midnightblue" d="M205.95,-261.89C178.93,-256.49 147.18,-250.14 121.6,-245.02"/>
<polygon fill="midnightblue" stroke="midnightblue" points="205.56,-265.38 216.05,-263.91 206.94,-258.52 205.56,-265.38"/>
</g>
<!-- Node12&#45;&gt;Node11 -->
<g id="edge13" class="edge">
<title>Node12&#45;&gt;Node11</title>
<path fill="none" stroke="midnightblue" d="M376.97,-32.68C354.24,-37.56 330.31,-42.7 310.51,-46.95"/>
<polygon fill="midnightblue" stroke="midnightblue" points="377.92,-36.05 386.96,-30.53 376.45,-29.21 377.92,-36.05"/>
</g>
<!-- Node13 -->
<g id="node13" class="node">
<title>Node13</title>
<g id="a_node13"><a xlink:href="../../d1/dfa/classvtk_surface.html#a242df182bc35f6b38c25de1b1582bc42" target="_top" xlink:title="Creates the vtkSurface object by reading a mesh file.">
<polygon fill="white" stroke="black" points="196.5,-6 196.5,-25 333.5,-25 333.5,-6 196.5,-6"/>
<text text-anchor="middle" x="265" y="-13" font-family="Helvetica,sans-Serif" font-size="10.00">vtkSurface::CreateFromFile</text>
</a>
</g>
</g>
<!-- Node12&#45;&gt;Node13 -->
<g id="edge14" class="edge">
<title>Node12&#45;&gt;Node13</title>
<path fill="none" stroke="midnightblue" d="M375.76,-15.5C361.75,-15.5 347.31,-15.5 333.7,-15.5"/>
<polygon fill="midnightblue" stroke="midnightblue" points="375.88,-19 385.88,-15.5 375.88,-12 375.88,-19"/>
</g>
</g>
</svg>
