<?xml version="1.0" encoding="UTF-8" standalone="no"?>
<!DOCTYPE svg PUBLIC "-//W3C//DTD SVG 1.1//EN"
 "http://www.w3.org/Graphics/SVG/1.1/DTD/svg11.dtd">
<!-- Generated by graphviz version 2.44.1 (0)
 -->
<!-- Title: vtkSurfaceBase::Init Pages: 1 -->
<svg width="278pt" height="137pt"
 viewBox="0.00 0.00 278.00 137.00" xmlns="http://www.w3.org/2000/svg" xmlns:xlink="http://www.w3.org/1999/xlink">
<g id="graph0" class="graph" transform="scale(1 1) rotate(0) translate(4 133)">
<title>vtkSurfaceBase::Init</title>
<polygon fill="white" stroke="transparent" points="-4,4 -4,-133 274,-133 274,4 -4,4"/>
<!-- Node1 -->
<g id="node1" class="node">
<title>Node1</title>
<g id="a_node1"><a xlink:title="Set memory allocation in the vtkSurfaceBase object for further Cells and points insertion (this is no...">
<polygon fill="#bfbfbf" stroke="black" points="0,-55 0,-74 106,-74 106,-55 0,-55"/>
<text text-anchor="middle" x="53" y="-62" font-family="Helvetica,sans-Serif" font-size="10.00">vtkSurfaceBase::Init</text>
</a>
</g>
</g>
<!-- Node2 -->
<g id="node2" class="node">
<title>Node2</title>
<g id="a_node2"><a xlink:href="../../d3/d13/classvtk_surface_base.html#a1bbae24f61b9e277316ff660697790be" target="_top" xlink:title=" ">
<polygon fill="white" stroke="black" points="142,-98.5 142,-128.5 270,-128.5 270,-98.5 142,-98.5"/>
<text text-anchor="start" x="150" y="-116.5" font-family="Helvetica,sans-Serif" font-size="10.00">vtkSurfaceBase::Allocate</text>
<text text-anchor="middle" x="206" y="-105.5" font-family="Helvetica,sans-Serif" font-size="10.00">EdgesAttributes</text>
</a>
</g>
</g>
<!-- Node1&#45;&gt;Node2 -->
<g id="edge1" class="edge">
<title>Node1&#45;&gt;Node2</title>
<path fill="none" stroke="midnightblue" d="M83.47,-74.06C102.09,-80.11 126.74,-88.11 148.98,-95.32"/>
<polygon fill="midnightblue" stroke="midnightblue" points="148.07,-98.71 158.66,-98.46 150.23,-92.05 148.07,-98.71"/>
</g>
<!-- Node3 -->
<g id="node3" class="node">
<title>Node3</title>
<g id="a_node3"><a xlink:href="../../d3/d13/classvtk_surface_base.html#a447cd5aee68a7db76285f963493d7560" target="_top" xlink:title=" ">
<polygon fill="white" stroke="black" points="142,-49.5 142,-79.5 270,-79.5 270,-49.5 142,-49.5"/>
<text text-anchor="start" x="150" y="-67.5" font-family="Helvetica,sans-Serif" font-size="10.00">vtkSurfaceBase::Allocate</text>
<text text-anchor="middle" x="206" y="-56.5" font-family="Helvetica,sans-Serif" font-size="10.00">PolygonsAttributes</text>
</a>
</g>
</g>
<!-- Node1&#45;&gt;Node3 -->
<g id="edge2" class="edge">
<title>Node1&#45;&gt;Node3</title>
<path fill="none" stroke="midnightblue" d="M106.39,-64.5C114.59,-64.5 123.2,-64.5 131.77,-64.5"/>
<polygon fill="midnightblue" stroke="midnightblue" points="131.78,-68 141.78,-64.5 131.78,-61 131.78,-68"/>
</g>
<!-- Node4 -->
<g id="node4" class="node">
<title>Node4</title>
<g id="a_node4"><a xlink:href="../../d3/d13/classvtk_surface_base.html#ac6bf9896f86fffac680b5983649d7fea" target="_top" xlink:title=" ">
<polygon fill="white" stroke="black" points="142,-0.5 142,-30.5 270,-30.5 270,-0.5 142,-0.5"/>
<text text-anchor="start" x="150" y="-18.5" font-family="Helvetica,sans-Serif" font-size="10.00">vtkSurfaceBase::Allocate</text>
<text text-anchor="middle" x="206" y="-7.5" font-family="Helvetica,sans-Serif" font-size="10.00">VerticesAttributes</text>
</a>
</g>
</g>
<!-- Node1&#45;&gt;Node4 -->
<g id="edge3" class="edge">
<title>Node1&#45;&gt;Node4</title>
<path fill="none" stroke="midnightblue" d="M83.47,-54.94C102.09,-48.89 126.74,-40.89 148.98,-33.68"/>
<polygon fill="midnightblue" stroke="midnightblue" points="150.23,-36.95 158.66,-30.54 148.07,-30.29 150.23,-36.95"/>
</g>
</g>
</svg>
