<?xml version="1.0" encoding="UTF-8" standalone="no"?>
<!DOCTYPE svg PUBLIC "-//W3C//DTD SVG 1.1//EN"
 "http://www.w3.org/Graphics/SVG/1.1/DTD/svg11.dtd">
<!-- Generated by graphviz version 2.44.1 (0)
 -->
<!-- Title: vtkSurfaceBase::IsFace Pages: 1 -->
<svg width="525pt" height="122pt"
 viewBox="0.00 0.00 525.00 121.50" xmlns="http://www.w3.org/2000/svg" xmlns:xlink="http://www.w3.org/1999/xlink">
<g id="graph0" class="graph" transform="scale(1 1) rotate(0) translate(4 117.5)">
<title>vtkSurfaceBase::IsFace</title>
<polygon fill="white" stroke="transparent" points="-4,4 -4,-117.5 521,-117.5 521,4 -4,4"/>
<!-- Node1 -->
<g id="node1" class="node">
<title>Node1</title>
<g id="a_node1"><a xlink:title="Returns the Id of the face having v1, v2 and v3 for vertices.">
<polygon fill="#bfbfbf" stroke="black" points="0,-50 0,-69 122,-69 122,-50 0,-50"/>
<text text-anchor="middle" x="61" y="-57" font-family="Helvetica,sans-Serif" font-size="10.00">vtkSurfaceBase::IsFace</text>
</a>
</g>
</g>
<!-- Node2 -->
<g id="node2" class="node">
<title>Node2</title>
<g id="a_node2"><a xlink:href="../../d3/d13/classvtk_surface_base.html#a1f8125584169cbf9a07b85a83d90d3da" target="_top" xlink:title="Returns f1 and f2 as the faces adjacent to the edge.">
<polygon fill="white" stroke="black" points="158,-94 158,-113 316,-113 316,-94 158,-94"/>
<text text-anchor="middle" x="237" y="-101" font-family="Helvetica,sans-Serif" font-size="10.00">vtkSurfaceBase::GetEdgeFaces</text>
</a>
</g>
</g>
<!-- Node1&#45;&gt;Node2 -->
<g id="edge1" class="edge">
<title>Node1&#45;&gt;Node2</title>
<path fill="none" stroke="midnightblue" d="M97.98,-69.01C115.99,-73.74 138.13,-79.49 158,-84.5 167.23,-86.83 177.08,-89.26 186.57,-91.59"/>
<polygon fill="midnightblue" stroke="midnightblue" points="185.74,-94.99 196.29,-93.96 187.4,-88.19 185.74,-94.99"/>
</g>
<!-- Node3 -->
<g id="node3" class="node">
<title>Node3</title>
<g id="a_node3"><a xlink:href="../../d3/d13/classvtk_surface_base.html#a6c3a0d390ca15d995c91db45c81fcea8" target="_top" xlink:title="Returns the third Point of the face f1 (the two first Points are v1 and v2)">
<polygon fill="white" stroke="black" points="172,-44.5 172,-74.5 302,-74.5 302,-44.5 172,-44.5"/>
<text text-anchor="start" x="180" y="-62.5" font-family="Helvetica,sans-Serif" font-size="10.00">vtkSurfaceBase::GetThird</text>
<text text-anchor="middle" x="237" y="-51.5" font-family="Helvetica,sans-Serif" font-size="10.00">Point</text>
</a>
</g>
</g>
<!-- Node1&#45;&gt;Node3 -->
<g id="edge2" class="edge">
<title>Node1&#45;&gt;Node3</title>
<path fill="none" stroke="midnightblue" d="M122.37,-59.5C134.99,-59.5 148.45,-59.5 161.51,-59.5"/>
<polygon fill="midnightblue" stroke="midnightblue" points="161.89,-63 171.89,-59.5 161.89,-56 161.89,-63"/>
</g>
<!-- Node5 -->
<g id="node5" class="node">
<title>Node5</title>
<g id="a_node5"><a xlink:href="../../d3/d13/classvtk_surface_base.html#acf6e6f74c51e5a7fb7339d79017d215e" target="_top" xlink:title="Returns the Id of the edge (v1,v2).">
<polygon fill="white" stroke="black" points="175.5,-6 175.5,-25 298.5,-25 298.5,-6 175.5,-6"/>
<text text-anchor="middle" x="237" y="-13" font-family="Helvetica,sans-Serif" font-size="10.00">vtkSurfaceBase::IsEdge</text>
</a>
</g>
</g>
<!-- Node1&#45;&gt;Node5 -->
<g id="edge4" class="edge">
<title>Node1&#45;&gt;Node5</title>
<path fill="none" stroke="midnightblue" d="M97.98,-49.99C115.99,-45.26 138.13,-39.51 158,-34.5 167.23,-32.17 177.08,-29.74 186.57,-27.41"/>
<polygon fill="midnightblue" stroke="midnightblue" points="187.4,-30.81 196.29,-25.04 185.74,-24.01 187.4,-30.81"/>
</g>
<!-- Node4 -->
<g id="node4" class="node">
<title>Node4</title>
<g id="a_node4"><a xlink:href="../../d3/d13/classvtk_surface_base.html#aa9651bd726d7c374c30f33dc67707136" target="_top" xlink:title="Returns the vertices v1, v2 and v3 bounding the face.">
<polygon fill="white" stroke="black" points="352,-50 352,-69 517,-69 517,-50 352,-50"/>
<text text-anchor="middle" x="434.5" y="-57" font-family="Helvetica,sans-Serif" font-size="10.00">vtkSurfaceBase::GetFaceVertices</text>
</a>
</g>
</g>
<!-- Node3&#45;&gt;Node4 -->
<g id="edge3" class="edge">
<title>Node3&#45;&gt;Node4</title>
<path fill="none" stroke="midnightblue" d="M302.01,-59.5C314.7,-59.5 328.26,-59.5 341.66,-59.5"/>
<polygon fill="midnightblue" stroke="midnightblue" points="341.87,-63 351.87,-59.5 341.87,-56 341.87,-63"/>
</g>
<!-- Node6 -->
<g id="node6" class="node">
<title>Node6</title>
<g id="a_node6"><a xlink:href="../../d3/d13/classvtk_surface_base.html#a10d9a9c6daefe1c004e27eba5d464738" target="_top" xlink:title="Returns the list of edges adjacent to the point v1.">
<polygon fill="white" stroke="black" points="366.5,-0.5 366.5,-30.5 502.5,-30.5 502.5,-0.5 366.5,-0.5"/>
<text text-anchor="start" x="374.5" y="-18.5" font-family="Helvetica,sans-Serif" font-size="10.00">vtkSurfaceBase::GetVertex</text>
<text text-anchor="middle" x="434.5" y="-7.5" font-family="Helvetica,sans-Serif" font-size="10.00">NeighbourEdges</text>
</a>
</g>
</g>
<!-- Node5&#45;&gt;Node6 -->
<g id="edge5" class="edge">
<title>Node5&#45;&gt;Node6</title>
<path fill="none" stroke="midnightblue" d="M298.52,-15.5C316.77,-15.5 337.06,-15.5 356.24,-15.5"/>
<polygon fill="midnightblue" stroke="midnightblue" points="356.46,-19 366.46,-15.5 356.46,-12 356.46,-19"/>
</g>
</g>
</svg>
