<?xml version="1.0" encoding="UTF-8" standalone="no"?>
<!DOCTYPE svg PUBLIC "-//W3C//DTD SVG 1.1//EN"
 "http://www.w3.org/Graphics/SVG/1.1/DTD/svg11.dtd">
<!-- Generated by graphviz version 2.44.0 (0)
 -->
<!-- Title: vtkSurfaceBase::Init Pages: 1 -->
<svg width="457pt" height="137pt"
 viewBox="0.00 0.00 457.00 137.00" xmlns="http://www.w3.org/2000/svg" xmlns:xlink="http://www.w3.org/1999/xlink">
<g id="graph0" class="graph" transform="scale(1 1) rotate(0) translate(4 133)">
<title>vtkSurfaceBase::Init</title>
<polygon fill="white" stroke="transparent" points="-4,4 -4,-133 453,-133 453,4 -4,4"/>
<!-- Node1 -->
<g id="node1" class="node">
<title>Node1</title>
<g id="a_node1"><a xlink:title="Set memory allocation in the vtkSurfaceBase object, which is assumed to be as large as the *mesh vtkS...">
<polygon fill="#bfbfbf" stroke="black" points="0,-77 0,-96 106,-96 106,-77 0,-77"/>
<text text-anchor="middle" x="53" y="-84" font-family="Helvetica,sans-Serif" font-size="10.00">vtkSurfaceBase::Init</text>
</a>
</g>
</g>
<!-- Node2 -->
<g id="node2" class="node">
<title>Node2</title>
<g id="a_node2"><a xlink:href="../../d3/d13/classvtk_surface_base.html#a28ae550f7790720b715bf403d754f8b5" target="_top" xlink:title="Returns the number of edges in the vtkSurfaceBase Object.">
<polygon fill="white" stroke="black" points="142,-93.5 142,-123.5 285,-123.5 285,-93.5 142,-93.5"/>
<text text-anchor="start" x="150" y="-111.5" font-family="Helvetica,sans-Serif" font-size="10.00">vtkSurfaceBase::GetNumber</text>
<text text-anchor="middle" x="213.5" y="-100.5" font-family="Helvetica,sans-Serif" font-size="10.00">OfEdges</text>
</a>
</g>
</g>
<!-- Node1&#45;&gt;Node2 -->
<g id="edge1" class="edge">
<title>Node1&#45;&gt;Node2</title>
<path fill="none" stroke="midnightblue" d="M106.34,-93.76C114.5,-94.9 123.1,-96.09 131.73,-97.29"/>
<polygon fill="midnightblue" stroke="midnightblue" points="131.45,-100.78 141.83,-98.69 132.41,-93.85 131.45,-100.78"/>
</g>
<!-- Node3 -->
<g id="node3" class="node">
<title>Node3</title>
<g id="a_node3"><a xlink:href="../../d3/d13/classvtk_surface_base.html#a2896a775bae1f75f46398279168a6c9e" target="_top" xlink:title="Set memory allocation in the vtkSurfaceBase object for further Cells and points insertion (this is no...">
<polygon fill="white" stroke="black" points="160.5,-55 160.5,-74 266.5,-74 266.5,-55 160.5,-55"/>
<text text-anchor="middle" x="213.5" y="-62" font-family="Helvetica,sans-Serif" font-size="10.00">vtkSurfaceBase::Init</text>
</a>
</g>
</g>
<!-- Node1&#45;&gt;Node3 -->
<g id="edge2" class="edge">
<title>Node1&#45;&gt;Node3</title>
<path fill="none" stroke="midnightblue" d="M106.34,-79.24C120.48,-77.27 135.91,-75.13 150.53,-73.1"/>
<polygon fill="midnightblue" stroke="midnightblue" points="151.06,-76.56 160.49,-71.72 150.1,-69.63 151.06,-76.56"/>
</g>
<!-- Node4 -->
<g id="node4" class="node">
<title>Node4</title>
<g id="a_node4"><a xlink:href="../../d3/d13/classvtk_surface_base.html#a1bbae24f61b9e277316ff660697790be" target="_top" xlink:title=" ">
<polygon fill="white" stroke="black" points="321,-98.5 321,-128.5 449,-128.5 449,-98.5 321,-98.5"/>
<text text-anchor="start" x="329" y="-116.5" font-family="Helvetica,sans-Serif" font-size="10.00">vtkSurfaceBase::Allocate</text>
<text text-anchor="middle" x="385" y="-105.5" font-family="Helvetica,sans-Serif" font-size="10.00">EdgesAttributes</text>
</a>
</g>
</g>
<!-- Node3&#45;&gt;Node4 -->
<g id="edge3" class="edge">
<title>Node3&#45;&gt;Node4</title>
<path fill="none" stroke="midnightblue" d="M248.23,-74C259.88,-77.31 273.02,-81.05 285,-84.5 297.29,-88.04 310.43,-91.87 322.98,-95.54"/>
<polygon fill="midnightblue" stroke="midnightblue" points="322.32,-98.99 332.9,-98.44 324.28,-92.27 322.32,-98.99"/>
</g>
<!-- Node5 -->
<g id="node5" class="node">
<title>Node5</title>
<g id="a_node5"><a xlink:href="../../d3/d13/classvtk_surface_base.html#a447cd5aee68a7db76285f963493d7560" target="_top" xlink:title=" ">
<polygon fill="white" stroke="black" points="321,-49.5 321,-79.5 449,-79.5 449,-49.5 321,-49.5"/>
<text text-anchor="start" x="329" y="-67.5" font-family="Helvetica,sans-Serif" font-size="10.00">vtkSurfaceBase::Allocate</text>
<text text-anchor="middle" x="385" y="-56.5" font-family="Helvetica,sans-Serif" font-size="10.00">PolygonsAttributes</text>
</a>
</g>
</g>
<!-- Node3&#45;&gt;Node5 -->
<g id="edge4" class="edge">
<title>Node3&#45;&gt;Node5</title>
<path fill="none" stroke="midnightblue" d="M266.74,-64.5C280.65,-64.5 295.94,-64.5 310.75,-64.5"/>
<polygon fill="midnightblue" stroke="midnightblue" points="310.9,-68 320.9,-64.5 310.9,-61 310.9,-68"/>
</g>
<!-- Node6 -->
<g id="node6" class="node">
<title>Node6</title>
<g id="a_node6"><a xlink:href="../../d3/d13/classvtk_surface_base.html#ac6bf9896f86fffac680b5983649d7fea" target="_top" xlink:title=" ">
<polygon fill="white" stroke="black" points="321,-0.5 321,-30.5 449,-30.5 449,-0.5 321,-0.5"/>
<text text-anchor="start" x="329" y="-18.5" font-family="Helvetica,sans-Serif" font-size="10.00">vtkSurfaceBase::Allocate</text>
<text text-anchor="middle" x="385" y="-7.5" font-family="Helvetica,sans-Serif" font-size="10.00">VerticesAttributes</text>
</a>
</g>
</g>
<!-- Node3&#45;&gt;Node6 -->
<g id="edge5" class="edge">
<title>Node3&#45;&gt;Node6</title>
<path fill="none" stroke="midnightblue" d="M247.58,-54.94C268.76,-48.81 296.9,-40.68 322.12,-33.39"/>
<polygon fill="midnightblue" stroke="midnightblue" points="323.35,-36.68 331.98,-30.54 321.41,-29.95 323.35,-36.68"/>
</g>
</g>
</svg>
