<?xml version="1.0" encoding="UTF-8" standalone="no"?>
<!DOCTYPE svg PUBLIC "-//W3C//DTD SVG 1.1//EN"
 "http://www.w3.org/Graphics/SVG/1.1/DTD/svg11.dtd">
<!-- Generated by graphviz version 2.44.0 (0)
 -->
<!-- Title: vtkSurfaceBase::SetCleanVertices Pages: 1 -->
<svg width="323pt" height="66pt"
 viewBox="0.00 0.00 323.00 66.00" xmlns="http://www.w3.org/2000/svg" xmlns:xlink="http://www.w3.org/1999/xlink">
<g id="graph0" class="graph" transform="scale(1 1) rotate(0) translate(4 62)">
<title>vtkSurfaceBase::SetCleanVertices</title>
<polygon fill="white" stroke="transparent" points="-4,4 -4,-62 319,-62 319,4 -4,4"/>
<!-- Node1 -->
<g id="node1" class="node">
<title>Node1</title>
<g id="a_node1"><a xlink:title="Sets On/Off the ability to clean vertices. Default Value : 1.">
<polygon fill="#bfbfbf" stroke="black" points="182,-14 182,-44 315,-44 315,-14 182,-14"/>
<text text-anchor="start" x="190" y="-32" font-family="Helvetica,sans-Serif" font-size="10.00">vtkSurfaceBase::SetClean</text>
<text text-anchor="middle" x="248.5" y="-21" font-family="Helvetica,sans-Serif" font-size="10.00">Vertices</text>
</a>
</g>
</g>
<!-- Node2 -->
<g id="node2" class="node">
<title>Node2</title>
<g id="a_node2"><a xlink:href="../../d1/dfa/classvtk_surface.html#aeb1922c987d5fdcebe1b680d82db9087" target="_top" xlink:title="Recusrsively splits the edges longer than Ratio*AverageLength.">
<polygon fill="white" stroke="black" points="4,-38.5 4,-57.5 142,-57.5 142,-38.5 4,-38.5"/>
<text text-anchor="middle" x="73" y="-45.5" font-family="Helvetica,sans-Serif" font-size="10.00">vtkSurface::SplitLongEdges</text>
</a>
</g>
</g>
<!-- Node1&#45;&gt;Node2 -->
<g id="edge1" class="edge">
<title>Node1&#45;&gt;Node2</title>
<path fill="none" stroke="midnightblue" d="M171.78,-37.29C161.97,-38.37 151.96,-39.46 142.29,-40.52"/>
<polygon fill="midnightblue" stroke="midnightblue" points="172.35,-40.75 181.91,-36.18 171.59,-33.79 172.35,-40.75"/>
</g>
<!-- Node3 -->
<g id="node3" class="node">
<title>Node3</title>
<g id="a_node3"><a xlink:href="../../d1/dfa/classvtk_surface.html#a8871f6a866295a51c983283a4ccc0a9d" target="_top" xlink:title="subdivide the mesh (in place)">
<polygon fill="white" stroke="black" points="0,-0.5 0,-19.5 146,-19.5 146,-0.5 0,-0.5"/>
<text text-anchor="middle" x="73" y="-7.5" font-family="Helvetica,sans-Serif" font-size="10.00">vtkSurface::SubdivideInPlace</text>
</a>
</g>
</g>
<!-- Node1&#45;&gt;Node3 -->
<g id="edge2" class="edge">
<title>Node1&#45;&gt;Node3</title>
<path fill="none" stroke="midnightblue" d="M171.92,-20.72C163.34,-19.78 154.6,-18.83 146.07,-17.89"/>
<polygon fill="midnightblue" stroke="midnightblue" points="171.59,-24.21 181.91,-21.82 172.35,-17.25 171.59,-24.21"/>
</g>
</g>
</svg>
