<?xml version="1.0" encoding="UTF-8" standalone="no"?>
<!DOCTYPE svg PUBLIC "-//W3C//DTD SVG 1.1//EN"
 "http://www.w3.org/Graphics/SVG/1.1/DTD/svg11.dtd">
<!-- Generated by graphviz version 2.44.0 (0)
 -->
<!-- Title: vtkSurfaceBase::AddPolygon Pages: 1 -->
<svg width="739pt" height="242pt"
 viewBox="0.00 0.00 739.00 242.00" xmlns="http://www.w3.org/2000/svg" xmlns:xlink="http://www.w3.org/1999/xlink">
<g id="graph0" class="graph" transform="scale(1 1) rotate(0) translate(4 238)">
<title>vtkSurfaceBase::AddPolygon</title>
<polygon fill="white" stroke="transparent" points="-4,4 -4,-238 735,-238 735,4 -4,4"/>
<!-- Node1 -->
<g id="node1" class="node">
<title>Node1</title>
<g id="a_node1"><a xlink:title="Adds a face (ve1,ve2,ve3) to the vtkSurfaceBase Object and returns its Id.">
<polygon fill="#bfbfbf" stroke="black" points="0,-170.5 0,-189.5 145,-189.5 145,-170.5 0,-170.5"/>
<text text-anchor="middle" x="72.5" y="-177.5" font-family="Helvetica,sans-Serif" font-size="10.00">vtkSurfaceBase::AddPolygon</text>
</a>
</g>
</g>
<!-- Node2 -->
<g id="node2" class="node">
<title>Node2</title>
<g id="a_node2"><a xlink:href="../../d3/d13/classvtk_surface_base.html#a6e6f179eb028cec1da57d67a713e64b4" target="_top" xlink:title="adds an edge (v1,v2) to the vtkSurface and returns its Id">
<polygon fill="white" stroke="black" points="203,-214.5 203,-233.5 335,-233.5 335,-214.5 203,-214.5"/>
<text text-anchor="middle" x="269" y="-221.5" font-family="Helvetica,sans-Serif" font-size="10.00">vtkSurfaceBase::AddEdge</text>
</a>
</g>
</g>
<!-- Node1&#45;&gt;Node2 -->
<g id="edge1" class="edge">
<title>Node1&#45;&gt;Node2</title>
<path fill="none" stroke="midnightblue" d="M113.8,-189.51C133.96,-194.23 158.76,-199.98 181,-205 191.62,-207.4 202.99,-209.91 213.88,-212.3"/>
<polygon fill="midnightblue" stroke="midnightblue" points="213.2,-215.73 223.72,-214.45 214.69,-208.89 213.2,-215.73"/>
</g>
<!-- Node3 -->
<g id="node3" class="node">
<title>Node3</title>
<g id="a_node3"><a xlink:href="../../d3/d13/classvtk_surface_base.html#a4028c02d912144539d372c64739f3046" target="_top" xlink:title=" ">
<polygon fill="white" stroke="black" points="205,-165 205,-195 333,-195 333,-165 205,-165"/>
<text text-anchor="start" x="213" y="-183" font-family="Helvetica,sans-Serif" font-size="10.00">vtkSurfaceBase::Allocate</text>
<text text-anchor="middle" x="269" y="-172" font-family="Helvetica,sans-Serif" font-size="10.00">MorePolygonsAttributes</text>
</a>
</g>
</g>
<!-- Node1&#45;&gt;Node3 -->
<g id="edge2" class="edge">
<title>Node1&#45;&gt;Node3</title>
<path fill="none" stroke="midnightblue" d="M145.1,-180C161.33,-180 178.59,-180 194.89,-180"/>
<polygon fill="midnightblue" stroke="midnightblue" points="194.9,-183.5 204.9,-180 194.9,-176.5 194.9,-183.5"/>
</g>
<!-- Node5 -->
<g id="node5" class="node">
<title>Node5</title>
<g id="a_node5"><a xlink:href="../../d3/d13/classvtk_surface_base.html#af6106de85da3d9bb09d35c8f31cbb191" target="_top" xlink:title="the method which keeps the orientation of the faces consistent. This is called whenever a new face is...">
<polygon fill="white" stroke="black" points="181,-90 181,-120 357,-120 357,-90 181,-90"/>
<text text-anchor="start" x="189" y="-108" font-family="Helvetica,sans-Serif" font-size="10.00">vtkSurfaceBase::ConquerOrientation</text>
<text text-anchor="middle" x="269" y="-97" font-family="Helvetica,sans-Serif" font-size="10.00">FromFace</text>
</a>
</g>
</g>
<!-- Node1&#45;&gt;Node5 -->
<g id="edge4" class="edge">
<title>Node1&#45;&gt;Node5</title>
<path fill="none" stroke="midnightblue" d="M98.53,-170.35C128.99,-158.6 181.09,-138.51 219.51,-123.7"/>
<polygon fill="midnightblue" stroke="midnightblue" points="220.89,-126.92 228.96,-120.06 218.37,-120.39 220.89,-126.92"/>
</g>
<!-- Node4 -->
<g id="node4" class="node">
<title>Node4</title>
<g id="a_node4"><a xlink:href="../../d3/d13/classvtk_surface_base.html#a447cd5aee68a7db76285f963493d7560" target="_top" xlink:title=" ">
<polygon fill="white" stroke="black" points="412,-191 412,-221 540,-221 540,-191 412,-191"/>
<text text-anchor="start" x="420" y="-209" font-family="Helvetica,sans-Serif" font-size="10.00">vtkSurfaceBase::Allocate</text>
<text text-anchor="middle" x="476" y="-198" font-family="Helvetica,sans-Serif" font-size="10.00">PolygonsAttributes</text>
</a>
</g>
</g>
<!-- Node3&#45;&gt;Node4 -->
<g id="edge3" class="edge">
<title>Node3&#45;&gt;Node4</title>
<path fill="none" stroke="midnightblue" d="M333.18,-188.01C354.81,-190.76 379.19,-193.85 401.56,-196.69"/>
<polygon fill="midnightblue" stroke="midnightblue" points="401.32,-200.18 411.68,-197.97 402.2,-193.24 401.32,-200.18"/>
</g>
<!-- Node6 -->
<g id="node6" class="node">
<title>Node6</title>
<g id="a_node6"><a xlink:href="../../d5/d9c/vtksurfacebase_8cxx.html#a2e8c26ea64993c77629c368633da5ff0" target="_top" xlink:title=" ">
<polygon fill="white" stroke="black" points="432.5,-152.5 432.5,-171.5 519.5,-171.5 519.5,-152.5 432.5,-152.5"/>
<text text-anchor="middle" x="476" y="-159.5" font-family="Helvetica,sans-Serif" font-size="10.00">FindVertexIndex</text>
</a>
</g>
</g>
<!-- Node5&#45;&gt;Node6 -->
<g id="edge5" class="edge">
<title>Node5&#45;&gt;Node6</title>
<path fill="none" stroke="midnightblue" d="M315.91,-120.05C338.94,-127.37 367.32,-136.07 393,-143 402.42,-145.54 412.51,-148.05 422.28,-150.37"/>
<polygon fill="midnightblue" stroke="midnightblue" points="421.76,-153.85 432.3,-152.72 423.36,-147.03 421.76,-153.85"/>
</g>
<!-- Node7 -->
<g id="node7" class="node">
<title>Node7</title>
<g id="a_node7"><a xlink:href="../../d3/d13/classvtk_surface_base.html#a1f8125584169cbf9a07b85a83d90d3da" target="_top" xlink:title="Returns f1 and f2 as the faces adjacent to the edge.">
<polygon fill="white" stroke="black" points="397,-114.5 397,-133.5 555,-133.5 555,-114.5 397,-114.5"/>
<text text-anchor="middle" x="476" y="-121.5" font-family="Helvetica,sans-Serif" font-size="10.00">vtkSurfaceBase::GetEdgeFaces</text>
</a>
</g>
</g>
<!-- Node5&#45;&gt;Node7 -->
<g id="edge6" class="edge">
<title>Node5&#45;&gt;Node7</title>
<path fill="none" stroke="midnightblue" d="M357.24,-113.09C367.02,-113.99 377,-114.92 386.8,-115.83"/>
<polygon fill="midnightblue" stroke="midnightblue" points="386.65,-119.33 396.93,-116.76 387.29,-112.36 386.65,-119.33"/>
</g>
<!-- Node8 -->
<g id="node8" class="node">
<title>Node8</title>
<g id="a_node8"><a xlink:href="../../d3/d13/classvtk_surface_base.html#a6d0fece7168e91590325097ee7a320a2" target="_top" xlink:title="Returns v1 and v2 as the vertices bounding the edge.">
<polygon fill="white" stroke="black" points="393,-76.5 393,-95.5 559,-95.5 559,-76.5 393,-76.5"/>
<text text-anchor="middle" x="476" y="-83.5" font-family="Helvetica,sans-Serif" font-size="10.00">vtkSurfaceBase::GetEdgeVertices</text>
</a>
</g>
</g>
<!-- Node5&#45;&gt;Node8 -->
<g id="edge7" class="edge">
<title>Node5&#45;&gt;Node8</title>
<path fill="none" stroke="midnightblue" d="M357.24,-96.91C365.6,-96.14 374.11,-95.35 382.52,-94.57"/>
<polygon fill="midnightblue" stroke="midnightblue" points="383.09,-98.03 392.73,-93.63 382.45,-91.06 383.09,-98.03"/>
</g>
<!-- Node9 -->
<g id="node9" class="node">
<title>Node9</title>
<g id="a_node9"><a xlink:href="../../d3/d13/classvtk_surface_base.html#acf6e6f74c51e5a7fb7339d79017d215e" target="_top" xlink:title="Returns the Id of the edge (v1,v2).">
<polygon fill="white" stroke="black" points="414.5,-38.5 414.5,-57.5 537.5,-57.5 537.5,-38.5 414.5,-38.5"/>
<text text-anchor="middle" x="476" y="-45.5" font-family="Helvetica,sans-Serif" font-size="10.00">vtkSurfaceBase::IsEdge</text>
</a>
</g>
</g>
<!-- Node5&#45;&gt;Node9 -->
<g id="edge8" class="edge">
<title>Node5&#45;&gt;Node9</title>
<path fill="none" stroke="midnightblue" d="M315.91,-89.95C338.94,-82.63 367.32,-73.93 393,-67 402.01,-64.57 411.64,-62.16 421,-59.93"/>
<polygon fill="midnightblue" stroke="midnightblue" points="422.09,-63.27 431.02,-57.58 420.49,-56.46 422.09,-63.27"/>
</g>
<!-- Node11 -->
<g id="node11" class="node">
<title>Node11</title>
<g id="a_node11"><a xlink:href="../../d3/d13/classvtk_surface_base.html#a9c77655b36b9fa47039e88d71f1be28a" target="_top" xlink:title="Returns true if the edge is a Manifold one (2 adjacent polygons)">
<polygon fill="white" stroke="black" points="396,-0.5 396,-19.5 556,-19.5 556,-0.5 396,-0.5"/>
<text text-anchor="middle" x="476" y="-7.5" font-family="Helvetica,sans-Serif" font-size="10.00">vtkSurfaceBase::IsEdgeManifold</text>
</a>
</g>
</g>
<!-- Node5&#45;&gt;Node11 -->
<g id="edge10" class="edge">
<title>Node5&#45;&gt;Node11</title>
<path fill="none" stroke="midnightblue" d="M289.79,-89.92C313.22,-72.77 354.01,-45.06 393,-29 399.17,-26.46 405.76,-24.22 412.4,-22.25"/>
<polygon fill="midnightblue" stroke="midnightblue" points="413.44,-25.6 422.15,-19.57 411.58,-18.85 413.44,-25.6"/>
</g>
<!-- Node10 -->
<g id="node10" class="node">
<title>Node10</title>
<g id="a_node10"><a xlink:href="../../d3/d13/classvtk_surface_base.html#a10d9a9c6daefe1c004e27eba5d464738" target="_top" xlink:title="Returns the list of edges adjacent to the point v1.">
<polygon fill="white" stroke="black" points="595,-33 595,-63 731,-63 731,-33 595,-33"/>
<text text-anchor="start" x="603" y="-51" font-family="Helvetica,sans-Serif" font-size="10.00">vtkSurfaceBase::GetVertex</text>
<text text-anchor="middle" x="663" y="-40" font-family="Helvetica,sans-Serif" font-size="10.00">NeighbourEdges</text>
</a>
</g>
</g>
<!-- Node9&#45;&gt;Node10 -->
<g id="edge9" class="edge">
<title>Node9&#45;&gt;Node10</title>
<path fill="none" stroke="midnightblue" d="M537.58,-48C552.62,-48 568.94,-48 584.67,-48"/>
<polygon fill="midnightblue" stroke="midnightblue" points="584.89,-51.5 594.89,-48 584.89,-44.5 584.89,-51.5"/>
</g>
</g>
</svg>
