<?xml version="1.0" encoding="UTF-8" standalone="no"?>
<!DOCTYPE svg PUBLIC "-//W3C//DTD SVG 1.1//EN"
 "http://www.w3.org/Graphics/SVG/1.1/DTD/svg11.dtd">
<!-- Generated by graphviz version 2.44.0 (0)
 -->
<!-- Title: vtkSurfaceBase::GetThirdPoint Pages: 1 -->
<svg width="504pt" height="180pt"
 viewBox="0.00 0.00 504.00 180.00" xmlns="http://www.w3.org/2000/svg" xmlns:xlink="http://www.w3.org/1999/xlink">
<g id="graph0" class="graph" transform="scale(1 1) rotate(0) translate(4 176)">
<title>vtkSurfaceBase::GetThirdPoint</title>
<polygon fill="white" stroke="transparent" points="-4,4 -4,-176 500,-176 500,4 -4,4"/>
<!-- Node1 -->
<g id="node1" class="node">
<title>Node1</title>
<g id="a_node1"><a xlink:title="Returns the third Point of the face f1 (the two first Points are v1 and v2)">
<polygon fill="#bfbfbf" stroke="black" points="366,-71 366,-101 496,-101 496,-71 366,-71"/>
<text text-anchor="start" x="374" y="-89" font-family="Helvetica,sans-Serif" font-size="10.00">vtkSurfaceBase::GetThird</text>
<text text-anchor="middle" x="431" y="-78" font-family="Helvetica,sans-Serif" font-size="10.00">Point</text>
</a>
</g>
</g>
<!-- Node2 -->
<g id="node2" class="node">
<title>Node2</title>
<g id="a_node2"><a xlink:href="../../d3/d13/classvtk_surface_base.html#a3605512219637518eaa534c82f974a79" target="_top" xlink:title="Bisects Edge by creating a new vertex at its midpoints and two new faces.">
<polygon fill="white" stroke="black" points="187,-152.5 187,-171.5 330,-171.5 330,-152.5 187,-152.5"/>
<text text-anchor="middle" x="258.5" y="-159.5" font-family="Helvetica,sans-Serif" font-size="10.00">vtkSurfaceBase::BisectEdge</text>
</a>
</g>
</g>
<!-- Node1&#45;&gt;Node2 -->
<g id="edge1" class="edge">
<title>Node1&#45;&gt;Node2</title>
<path fill="none" stroke="midnightblue" d="M398.79,-106.55C379.57,-118.48 354.09,-133.08 330,-143 321.09,-146.67 311.26,-149.83 301.84,-152.47"/>
<polygon fill="midnightblue" stroke="midnightblue" points="400.82,-109.4 407.41,-101.1 397.09,-103.48 400.82,-109.4"/>
</g>
<!-- Node3 -->
<g id="node3" class="node">
<title>Node3</title>
<g id="a_node3"><a xlink:href="../../d3/d13/classvtk_surface_base.html#ae1d5c759716c9ec5bb01ceab96ece9d1" target="_top" xlink:title="Conquer from a triangle f1 through the edge bounded by v1 and v2.">
<polygon fill="white" stroke="black" points="194,-114.5 194,-133.5 323,-133.5 323,-114.5 194,-114.5"/>
<text text-anchor="middle" x="258.5" y="-121.5" font-family="Helvetica,sans-Serif" font-size="10.00">vtkSurfaceBase::Conquer</text>
</a>
</g>
</g>
<!-- Node1&#45;&gt;Node3 -->
<g id="edge2" class="edge">
<title>Node1&#45;&gt;Node3</title>
<path fill="none" stroke="midnightblue" d="M355.78,-102.54C337.52,-106.61 318.57,-110.84 302.36,-114.45"/>
<polygon fill="midnightblue" stroke="midnightblue" points="356.54,-105.96 365.54,-100.37 355.02,-99.13 356.54,-105.96"/>
</g>
<!-- Node4 -->
<g id="node4" class="node">
<title>Node4</title>
<g id="a_node4"><a xlink:href="../../d3/d13/classvtk_surface_base.html#adea9f67a72ae9f40ebbc5dd3536c0864" target="_top" xlink:title="returns true if the vertex is manifold.">
<polygon fill="white" stroke="black" points="11.5,-93 11.5,-123 139.5,-123 139.5,-93 11.5,-93"/>
<text text-anchor="start" x="19.5" y="-111" font-family="Helvetica,sans-Serif" font-size="10.00">vtkSurfaceBase::IsVertex</text>
<text text-anchor="middle" x="75.5" y="-100" font-family="Helvetica,sans-Serif" font-size="10.00">Manifold</text>
</a>
</g>
</g>
<!-- Node1&#45;&gt;Node4 -->
<g id="edge7" class="edge">
<title>Node1&#45;&gt;Node4</title>
<path fill="none" stroke="midnightblue" d="M355.95,-90.61C291.93,-94.59 200.39,-100.29 139.74,-104.06"/>
<polygon fill="midnightblue" stroke="midnightblue" points="356.22,-94.1 365.98,-89.98 355.79,-87.11 356.22,-94.1"/>
</g>
<!-- Node5 -->
<g id="node5" class="node">
<title>Node5</title>
<g id="a_node5"><a xlink:href="../../d3/d13/classvtk_surface_base.html#abc24e58144c7a215d84afa33a6864439" target="_top" xlink:title="Flips the edge. If the flip was performed, return &#45;1. Otherwise, the edge already existing is returne...">
<polygon fill="white" stroke="black" points="193,-38.5 193,-57.5 324,-57.5 324,-38.5 193,-38.5"/>
<text text-anchor="middle" x="258.5" y="-45.5" font-family="Helvetica,sans-Serif" font-size="10.00">vtkSurfaceBase::FlipEdge</text>
</a>
</g>
</g>
<!-- Node1&#45;&gt;Node5 -->
<g id="edge4" class="edge">
<title>Node1&#45;&gt;Node5</title>
<path fill="none" stroke="midnightblue" d="M355.78,-69.46C337.52,-65.39 318.57,-61.16 302.36,-57.55"/>
<polygon fill="midnightblue" stroke="midnightblue" points="355.02,-72.87 365.54,-71.63 356.54,-66.04 355.02,-72.87"/>
</g>
<!-- Node7 -->
<g id="node7" class="node">
<title>Node7</title>
<g id="a_node7"><a xlink:href="../../d3/d13/classvtk_surface_base.html#a193d4aa307b371583cb5c27a5a91efca" target="_top" xlink:title="Returns the Id of the face having v1, v2 and v3 for vertices.">
<polygon fill="white" stroke="black" points="197.5,-0.5 197.5,-19.5 319.5,-19.5 319.5,-0.5 197.5,-0.5"/>
<text text-anchor="middle" x="258.5" y="-7.5" font-family="Helvetica,sans-Serif" font-size="10.00">vtkSurfaceBase::IsFace</text>
</a>
</g>
</g>
<!-- Node1&#45;&gt;Node7 -->
<g id="edge6" class="edge">
<title>Node1&#45;&gt;Node7</title>
<path fill="none" stroke="midnightblue" d="M398.79,-65.45C379.57,-53.52 354.09,-38.92 330,-29 321.09,-25.33 311.26,-22.17 301.84,-19.53"/>
<polygon fill="midnightblue" stroke="midnightblue" points="397.09,-68.52 407.41,-70.9 400.82,-62.6 397.09,-68.52"/>
</g>
<!-- Node3&#45;&gt;Node4 -->
<g id="edge3" class="edge">
<title>Node3&#45;&gt;Node4</title>
<path fill="none" stroke="midnightblue" d="M183.89,-117.49C169.2,-116.19 153.9,-114.84 139.6,-113.58"/>
<polygon fill="midnightblue" stroke="midnightblue" points="183.67,-120.99 193.94,-118.38 184.29,-114.01 183.67,-120.99"/>
</g>
<!-- Node6 -->
<g id="node6" class="node">
<title>Node6</title>
<g id="a_node6"><a xlink:href="../../d3/d13/classvtk_surface_base.html#a8c1c05d41fedc99401dd39995d8e5c97" target="_top" xlink:title="Flips the edge. If the resulting edge already exists, it is flipped (an so on). Returns &#45;1 in case of...">
<polygon fill="white" stroke="black" points="0,-38.5 0,-57.5 151,-57.5 151,-38.5 0,-38.5"/>
<text text-anchor="middle" x="75.5" y="-45.5" font-family="Helvetica,sans-Serif" font-size="10.00">vtkSurfaceBase::FlipEdgeSure</text>
</a>
</g>
</g>
<!-- Node5&#45;&gt;Node6 -->
<g id="edge5" class="edge">
<title>Node5&#45;&gt;Node6</title>
<path fill="none" stroke="midnightblue" d="M182.66,-48C172.28,-48 161.62,-48 151.24,-48"/>
<polygon fill="midnightblue" stroke="midnightblue" points="182.92,-51.5 192.92,-48 182.92,-44.5 182.92,-51.5"/>
</g>
</g>
</svg>
