<?xml version="1.0" encoding="UTF-8" standalone="no"?>
<!DOCTYPE svg PUBLIC "-//W3C//DTD SVG 1.1//EN"
 "http://www.w3.org/Graphics/SVG/1.1/DTD/svg11.dtd">
<!-- Generated by graphviz version 2.44.1 (0)
 -->
<!-- Title: vtkSurfaceBase::GetValenceEntropy Pages: 1 -->
<svg width="548pt" height="39pt"
 viewBox="0.00 0.00 548.00 39.00" xmlns="http://www.w3.org/2000/svg" xmlns:xlink="http://www.w3.org/1999/xlink">
<g id="graph0" class="graph" transform="scale(1 1) rotate(0) translate(4 35)">
<title>vtkSurfaceBase::GetValenceEntropy</title>
<polygon fill="white" stroke="transparent" points="-4,4 -4,-35 544,-35 544,4 -4,4"/>
<!-- Node1 -->
<g id="node1" class="node">
<title>Node1</title>
<g id="a_node1"><a xlink:title="Returns the entropy of the valences of the mesh.">
<polygon fill="#bfbfbf" stroke="black" points="397,-0.5 397,-30.5 540,-30.5 540,-0.5 397,-0.5"/>
<text text-anchor="start" x="405" y="-18.5" font-family="Helvetica,sans-Serif" font-size="10.00">vtkSurfaceBase::GetValence</text>
<text text-anchor="middle" x="468.5" y="-7.5" font-family="Helvetica,sans-Serif" font-size="10.00">Entropy</text>
</a>
</g>
</g>
<!-- Node2 -->
<g id="node2" class="node">
<title>Node2</title>
<g id="a_node2"><a xlink:href="../../d1/dfa/classvtk_surface.html#afe3aaa7de019acb523e75df87e6c9a19" target="_top" xlink:title="copy to stream the connectivity and geometric properties of the mesh">
<polygon fill="white" stroke="black" points="207,-6 207,-25 361,-25 361,-6 207,-6"/>
<text text-anchor="middle" x="284" y="-13" font-family="Helvetica,sans-Serif" font-size="10.00">vtkSurface::GetMeshProperties</text>
</a>
</g>
</g>
<!-- Node1&#45;&gt;Node2 -->
<g id="edge1" class="edge">
<title>Node1&#45;&gt;Node2</title>
<path fill="none" stroke="midnightblue" d="M386.66,-15.5C378.17,-15.5 369.56,-15.5 361.12,-15.5"/>
<polygon fill="midnightblue" stroke="midnightblue" points="386.94,-19 396.94,-15.5 386.94,-12 386.94,-19"/>
</g>
<!-- Node3 -->
<g id="node3" class="node">
<title>Node3</title>
<g id="a_node3"><a xlink:href="../../d1/dfa/classvtk_surface.html#a95f0aa5277c846fe4a21300f55409186" target="_top" xlink:title="same as GetMeshProperties, but the properties are displayed on screen">
<polygon fill="white" stroke="black" points="0,-6 0,-25 171,-25 171,-6 0,-6"/>
<text text-anchor="middle" x="85.5" y="-13" font-family="Helvetica,sans-Serif" font-size="10.00">vtkSurface::DisplayMeshProperties</text>
</a>
</g>
</g>
<!-- Node2&#45;&gt;Node3 -->
<g id="edge2" class="edge">
<title>Node2&#45;&gt;Node3</title>
<path fill="none" stroke="midnightblue" d="M196.55,-15.5C188.13,-15.5 179.59,-15.5 171.19,-15.5"/>
<polygon fill="midnightblue" stroke="midnightblue" points="196.75,-19 206.75,-15.5 196.75,-12 196.75,-19"/>
</g>
</g>
</svg>
