<?xml version="1.0" encoding="UTF-8" standalone="no"?>
<!DOCTYPE svg PUBLIC "-//W3C//DTD SVG 1.1//EN"
 "http://www.w3.org/Graphics/SVG/1.1/DTD/svg11.dtd">
<!-- Generated by graphviz version 2.44.1 (0)
 -->
<!-- Title: vtkSurfaceBase::GetPointCoordinates Pages: 1 -->
<svg width="698pt" height="367pt"
 viewBox="0.00 0.00 698.00 367.00" xmlns="http://www.w3.org/2000/svg" xmlns:xlink="http://www.w3.org/1999/xlink">
<g id="graph0" class="graph" transform="scale(1 1) rotate(0) translate(4 363)">
<title>vtkSurfaceBase::GetPointCoordinates</title>
<polygon fill="white" stroke="transparent" points="-4,4 -4,-363 694,-363 694,4 -4,4"/>
<!-- Node1 -->
<g id="node1" class="node">
<title>Node1</title>
<g id="a_node1"><a xlink:title="Returns the coordinates of Point.">
<polygon fill="#bfbfbf" stroke="black" points="559,-151 559,-181 690,-181 690,-151 559,-151"/>
<text text-anchor="start" x="567" y="-169" font-family="Helvetica,sans-Serif" font-size="10.00">vtkSurfaceBase::GetPoint</text>
<text text-anchor="middle" x="624.5" y="-158" font-family="Helvetica,sans-Serif" font-size="10.00">Coordinates</text>
</a>
</g>
</g>
<!-- Node2 -->
<g id="node2" class="node">
<title>Node2</title>
<g id="a_node2"><a xlink:href="../../d1/dfa/classvtk_surface.html#abe33f0d274c3eb53ac3dcdfbffba8652" target="_top" xlink:title="Returns the euclidian distance between the vertices V1 and V2.">
<polygon fill="white" stroke="black" points="360,-302 360,-332 523,-332 523,-302 360,-302"/>
<text text-anchor="start" x="368" y="-320" font-family="Helvetica,sans-Serif" font-size="10.00">vtkSurface::GetDistanceBetween</text>
<text text-anchor="middle" x="441.5" y="-309" font-family="Helvetica,sans-Serif" font-size="10.00">Vertices</text>
</a>
</g>
</g>
<!-- Node1&#45;&gt;Node2 -->
<g id="edge1" class="edge">
<title>Node1&#45;&gt;Node2</title>
<path fill="none" stroke="midnightblue" d="M609.08,-190C591.73,-217.01 560.25,-260.56 523,-287 514.61,-292.96 504.89,-297.88 495.17,-301.9"/>
<polygon fill="midnightblue" stroke="midnightblue" points="612.25,-191.52 614.61,-181.19 606.33,-187.8 612.25,-191.52"/>
</g>
<!-- Node5 -->
<g id="node5" class="node">
<title>Node5</title>
<g id="a_node5"><a xlink:href="../../d1/dfa/classvtk_surface.html#aeb1922c987d5fdcebe1b680d82db9087" target="_top" xlink:title="Recusrsively splits the edges longer than Ratio*AverageLength.">
<polygon fill="white" stroke="black" points="0,-282.5 0,-301.5 138,-301.5 138,-282.5 0,-282.5"/>
<text text-anchor="middle" x="69" y="-289.5" font-family="Helvetica,sans-Serif" font-size="10.00">vtkSurface::SplitLongEdges</text>
</a>
</g>
</g>
<!-- Node1&#45;&gt;Node5 -->
<g id="edge11" class="edge">
<title>Node1&#45;&gt;Node5</title>
<path fill="none" stroke="midnightblue" d="M605.12,-188.86C586.78,-209.84 556.55,-239.76 523,-254 455.53,-282.64 247.48,-289.72 138.37,-291.46"/>
<polygon fill="midnightblue" stroke="midnightblue" points="607.96,-190.92 611.78,-181.04 602.63,-186.39 607.96,-190.92"/>
</g>
<!-- Node6 -->
<g id="node6" class="node">
<title>Node6</title>
<g id="a_node6"><a xlink:href="../../d1/dfa/classvtk_surface.html#a9f85433b2736667c1bb747927e7361d2" target="_top" xlink:title="Computes the normal of the given triangle.">
<polygon fill="white" stroke="black" points="365.5,-225.5 365.5,-244.5 517.5,-244.5 517.5,-225.5 365.5,-225.5"/>
<text text-anchor="middle" x="441.5" y="-232.5" font-family="Helvetica,sans-Serif" font-size="10.00">vtkSurface::GetTriangleNormal</text>
</a>
</g>
</g>
<!-- Node1&#45;&gt;Node6 -->
<g id="edge5" class="edge">
<title>Node1&#45;&gt;Node6</title>
<path fill="none" stroke="midnightblue" d="M587.37,-185.91C568.59,-195.66 545.01,-207 523,-215 511.9,-219.03 499.65,-222.53 488.13,-225.43"/>
<polygon fill="midnightblue" stroke="midnightblue" points="589.24,-188.88 596.45,-181.12 585.97,-182.69 589.24,-188.88"/>
</g>
<!-- Node7 -->
<g id="node7" class="node">
<title>Node7</title>
<g id="a_node7"><a xlink:href="../../d1/dfa/classvtk_surface.html#a3e3d4e050331aff21a0a3bc4fc243804" target="_top" xlink:title="Computes the Triangles Areas.">
<polygon fill="white" stroke="black" points="379,-176 379,-206 504,-206 504,-176 379,-176"/>
<text text-anchor="start" x="387" y="-194" font-family="Helvetica,sans-Serif" font-size="10.00">vtkSurface::GetTriangles</text>
<text text-anchor="middle" x="441.5" y="-183" font-family="Helvetica,sans-Serif" font-size="10.00">Areas</text>
</a>
</g>
</g>
<!-- Node1&#45;&gt;Node7 -->
<g id="edge6" class="edge">
<title>Node1&#45;&gt;Node7</title>
<path fill="none" stroke="midnightblue" d="M548.74,-176.33C533.86,-178.38 518.4,-180.52 504.02,-182.5"/>
<polygon fill="midnightblue" stroke="midnightblue" points="549.49,-179.76 558.92,-174.92 548.54,-172.82 549.49,-179.76"/>
</g>
<!-- Node8 -->
<g id="node8" class="node">
<title>Node8</title>
<g id="a_node8"><a xlink:href="../../d1/dfa/classvtk_surface.html#a5a6b69a3c3ab43f525215bbb92b89377" target="_top" xlink:title="returns the normals of the mesh triangles">
<polygon fill="white" stroke="black" points="379,-127 379,-157 504,-157 504,-127 379,-127"/>
<text text-anchor="start" x="387" y="-145" font-family="Helvetica,sans-Serif" font-size="10.00">vtkSurface::GetTriangles</text>
<text text-anchor="middle" x="441.5" y="-134" font-family="Helvetica,sans-Serif" font-size="10.00">Normals</text>
</a>
</g>
</g>
<!-- Node1&#45;&gt;Node8 -->
<g id="edge7" class="edge">
<title>Node1&#45;&gt;Node8</title>
<path fill="none" stroke="midnightblue" d="M548.74,-156.09C533.86,-154.11 518.4,-152.06 504.02,-150.16"/>
<polygon fill="midnightblue" stroke="midnightblue" points="548.55,-159.59 558.92,-157.44 549.47,-152.65 548.55,-159.59"/>
</g>
<!-- Node9 -->
<g id="node9" class="node">
<title>Node9</title>
<g id="a_node9"><a xlink:href="../../d1/dfa/classvtk_surface.html#ac7e948e93dc12e4773321535197b9866" target="_top" xlink:title="Computes the normal at a vertex (works only for triangular meshes)">
<polygon fill="white" stroke="black" points="369,-88.5 369,-107.5 514,-107.5 514,-88.5 369,-88.5"/>
<text text-anchor="middle" x="441.5" y="-95.5" font-family="Helvetica,sans-Serif" font-size="10.00">vtkSurface::GetVertexNormal</text>
</a>
</g>
</g>
<!-- Node1&#45;&gt;Node9 -->
<g id="edge8" class="edge">
<title>Node1&#45;&gt;Node9</title>
<path fill="none" stroke="midnightblue" d="M587.41,-145.98C568.64,-136.2 545.05,-124.87 523,-117 512.72,-113.33 501.45,-110.17 490.68,-107.53"/>
<polygon fill="midnightblue" stroke="midnightblue" points="586.01,-149.2 596.48,-150.79 589.28,-143.02 586.01,-149.2"/>
</g>
<!-- Node10 -->
<g id="node10" class="node">
<title>Node10</title>
<g id="a_node10"><a xlink:href="../../d1/dfa/classvtk_surface.html#a959092178ae4fa965d930257a29c380e" target="_top" xlink:title=" ">
<polygon fill="white" stroke="black" points="379,-39 379,-69 504,-69 504,-39 379,-39"/>
<text text-anchor="start" x="387" y="-57" font-family="Helvetica,sans-Serif" font-size="10.00">vtkSurface::PrintVertices</text>
<text text-anchor="middle" x="441.5" y="-46" font-family="Helvetica,sans-Serif" font-size="10.00">Coordinates</text>
</a>
</g>
</g>
<!-- Node1&#45;&gt;Node10 -->
<g id="edge9" class="edge">
<title>Node1&#45;&gt;Node10</title>
<path fill="none" stroke="midnightblue" d="M603,-143.65C583.97,-124.1 553.98,-96.22 523,-79 516.22,-75.23 508.8,-71.95 501.29,-69.12"/>
<polygon fill="midnightblue" stroke="midnightblue" points="600.54,-146.13 609.97,-150.94 605.6,-141.3 600.54,-146.13"/>
</g>
<!-- Node11 -->
<g id="node11" class="node">
<title>Node11</title>
<g id="a_node11"><a xlink:href="../../d1/dfa/classvtk_surface.html#a3a42275949d2fd9818fb5209acc3c25b" target="_top" xlink:title="rescale the points so that the maximum coordinates range is equal to 1">
<polygon fill="white" stroke="black" points="362.5,-0.5 362.5,-19.5 520.5,-19.5 520.5,-0.5 362.5,-0.5"/>
<text text-anchor="middle" x="441.5" y="-7.5" font-family="Helvetica,sans-Serif" font-size="10.00">vtkSurface::RescaleCoordinates</text>
</a>
</g>
</g>
<!-- Node1&#45;&gt;Node11 -->
<g id="edge10" class="edge">
<title>Node1&#45;&gt;Node11</title>
<path fill="none" stroke="midnightblue" d="M612.39,-141.64C596.9,-110.54 565.83,-57.36 523,-29 517.13,-25.12 510.56,-22.02 503.77,-19.56"/>
<polygon fill="midnightblue" stroke="midnightblue" points="609.36,-143.42 616.86,-150.9 615.66,-140.38 609.36,-143.42"/>
</g>
<!-- Node3 -->
<g id="node3" class="node">
<title>Node3</title>
<g id="a_node3"><a xlink:href="../../d1/dfa/classvtk_surface.html#a35760f7e4379a535a7338a3dba028b9f" target="_top" xlink:title="Builds a 1 connected component mesh from the mesh in two steps: First: merge the points which are clo...">
<polygon fill="white" stroke="black" points="174,-339.5 174,-358.5 324,-358.5 324,-339.5 174,-339.5"/>
<text text-anchor="middle" x="249" y="-346.5" font-family="Helvetica,sans-Serif" font-size="10.00">vtkSurface::CleanConnectivity</text>
</a>
</g>
</g>
<!-- Node2&#45;&gt;Node3 -->
<g id="edge2" class="edge">
<title>Node2&#45;&gt;Node3</title>
<path fill="none" stroke="midnightblue" d="M349.82,-332.23C335.07,-334.71 320.18,-337.21 306.56,-339.5"/>
<polygon fill="midnightblue" stroke="midnightblue" points="350.7,-335.63 359.99,-330.52 349.55,-328.73 350.7,-335.63"/>
</g>
<!-- Node4 -->
<g id="node4" class="node">
<title>Node4</title>
<g id="a_node4"><a xlink:href="../../d1/dfa/classvtk_surface.html#a953e87d3c04cb906a2ec336dd7040076" target="_top" xlink:title="Computes the Mesh Edges Lengths in an array.">
<polygon fill="white" stroke="black" points="177.5,-301.5 177.5,-320.5 320.5,-320.5 320.5,-301.5 177.5,-301.5"/>
<text text-anchor="middle" x="249" y="-308.5" font-family="Helvetica,sans-Serif" font-size="10.00">vtkSurface::GetEdgeLengths</text>
</a>
</g>
</g>
<!-- Node2&#45;&gt;Node4 -->
<g id="edge3" class="edge">
<title>Node2&#45;&gt;Node4</title>
<path fill="none" stroke="midnightblue" d="M349.8,-314.14C339.98,-313.83 330.1,-313.52 320.57,-313.22"/>
<polygon fill="midnightblue" stroke="midnightblue" points="349.88,-317.65 359.99,-314.46 350.1,-310.65 349.88,-317.65"/>
</g>
<!-- Node4&#45;&gt;Node5 -->
<g id="edge4" class="edge">
<title>Node4&#45;&gt;Node5</title>
<path fill="none" stroke="midnightblue" d="M167.32,-302.39C157.59,-301.35 147.73,-300.3 138.2,-299.28"/>
<polygon fill="midnightblue" stroke="midnightblue" points="167.08,-305.88 177.39,-303.46 167.82,-298.92 167.08,-305.88"/>
</g>
</g>
</svg>
