<?xml version="1.0" encoding="UTF-8" standalone="no"?>
<!DOCTYPE svg PUBLIC "-//W3C//DTD SVG 1.1//EN"
 "http://www.w3.org/Graphics/SVG/1.1/DTD/svg11.dtd">
<!-- Generated by graphviz version 2.44.1 (0)
 -->
<!-- Title: vtkSurfaceBase::GetVertexNeighbourFaces Pages: 1 -->
<svg width="735pt" height="192pt"
 viewBox="0.00 0.00 735.00 191.50" xmlns="http://www.w3.org/2000/svg" xmlns:xlink="http://www.w3.org/1999/xlink">
<g id="graph0" class="graph" transform="scale(1 1) rotate(0) translate(4 187.5)">
<title>vtkSurfaceBase::GetVertexNeighbourFaces</title>
<polygon fill="white" stroke="transparent" points="-4,4 -4,-187.5 731,-187.5 731,4 -4,4"/>
<!-- Node1 -->
<g id="node1" class="node">
<title>Node1</title>
<g id="a_node1"><a xlink:title="Returns the list of faces adjacent to the point v1.">
<polygon fill="#bfbfbf" stroke="black" points="591,-71 591,-101 727,-101 727,-71 591,-71"/>
<text text-anchor="start" x="599" y="-89" font-family="Helvetica,sans-Serif" font-size="10.00">vtkSurfaceBase::GetVertex</text>
<text text-anchor="middle" x="659" y="-78" font-family="Helvetica,sans-Serif" font-size="10.00">NeighbourFaces</text>
</a>
</g>
</g>
<!-- Node2 -->
<g id="node2" class="node">
<title>Node2</title>
<g id="a_node2"><a xlink:href="../../d3/d13/classvtk_surface_base.html#ada6cfad7e26b2cae144e98bd508ca9cb" target="_top" xlink:title="Returns the entropy of the valences of the mesh.">
<polygon fill="white" stroke="black" points="404.5,-153 404.5,-183 547.5,-183 547.5,-153 404.5,-153"/>
<text text-anchor="start" x="412.5" y="-171" font-family="Helvetica,sans-Serif" font-size="10.00">vtkSurfaceBase::GetValence</text>
<text text-anchor="middle" x="476" y="-160" font-family="Helvetica,sans-Serif" font-size="10.00">Entropy</text>
</a>
</g>
</g>
<!-- Node1&#45;&gt;Node2 -->
<g id="edge1" class="edge">
<title>Node1&#45;&gt;Node2</title>
<path fill="none" stroke="midnightblue" d="M625.07,-106.39C605.25,-118.11 579.24,-132.53 555,-143 546.65,-146.61 537.59,-149.98 528.71,-153"/>
<polygon fill="midnightblue" stroke="midnightblue" points="626.93,-109.36 633.71,-101.22 623.33,-103.35 626.93,-109.36"/>
</g>
<!-- Node5 -->
<g id="node5" class="node">
<title>Node5</title>
<g id="a_node5"><a xlink:href="../../d3/d13/classvtk_surface_base.html#ae78633a07d17cf7a4f10ba23604c0b9d" target="_top" xlink:title="writes a text file containing an histogram of the vertices valence distribution">
<polygon fill="white" stroke="black" points="397,-114.5 397,-133.5 555,-133.5 555,-114.5 397,-114.5"/>
<text text-anchor="middle" x="476" y="-121.5" font-family="Helvetica,sans-Serif" font-size="10.00">vtkSurfaceBase::GetValenceTab</text>
</a>
</g>
</g>
<!-- Node1&#45;&gt;Node5 -->
<g id="edge4" class="edge">
<title>Node1&#45;&gt;Node5</title>
<path fill="none" stroke="midnightblue" d="M580.84,-102.2C560.89,-106.39 540.06,-110.76 522.33,-114.48"/>
<polygon fill="midnightblue" stroke="midnightblue" points="581.79,-105.58 590.86,-100.1 580.35,-98.73 581.79,-105.58"/>
</g>
<!-- Node6 -->
<g id="node6" class="node">
<title>Node6</title>
<g id="a_node6"><a xlink:href="../../d1/dfa/classvtk_surface.html#a996cf3bc28f8a22732f0310eac7f8fd3" target="_top" xlink:title="Computes the area of Vertex (it will actually compute the area of the Surrounding cells divided by th...">
<polygon fill="white" stroke="black" points="409,-76.5 409,-95.5 543,-95.5 543,-76.5 409,-76.5"/>
<text text-anchor="middle" x="476" y="-83.5" font-family="Helvetica,sans-Serif" font-size="10.00">vtkSurface::GetVertexArea</text>
</a>
</g>
</g>
<!-- Node1&#45;&gt;Node6 -->
<g id="edge5" class="edge">
<title>Node1&#45;&gt;Node6</title>
<path fill="none" stroke="midnightblue" d="M580.5,-86C568.06,-86 555.28,-86 543.13,-86"/>
<polygon fill="midnightblue" stroke="midnightblue" points="580.86,-89.5 590.86,-86 580.86,-82.5 580.86,-89.5"/>
</g>
<!-- Node8 -->
<g id="node8" class="node">
<title>Node8</title>
<g id="a_node8"><a xlink:href="../../d1/dfa/classvtk_surface.html#ac7e948e93dc12e4773321535197b9866" target="_top" xlink:title="Computes the normal at a vertex (works only for triangular meshes)">
<polygon fill="white" stroke="black" points="403.5,-38.5 403.5,-57.5 548.5,-57.5 548.5,-38.5 403.5,-38.5"/>
<text text-anchor="middle" x="476" y="-45.5" font-family="Helvetica,sans-Serif" font-size="10.00">vtkSurface::GetVertexNormal</text>
</a>
</g>
</g>
<!-- Node1&#45;&gt;Node8 -->
<g id="edge7" class="edge">
<title>Node1&#45;&gt;Node8</title>
<path fill="none" stroke="midnightblue" d="M580.84,-69.8C560.89,-65.61 540.06,-61.24 522.33,-57.52"/>
<polygon fill="midnightblue" stroke="midnightblue" points="580.35,-73.27 590.86,-71.9 581.79,-66.42 580.35,-73.27"/>
</g>
<!-- Node9 -->
<g id="node9" class="node">
<title>Node9</title>
<g id="a_node9"><a xlink:href="../../d3/d13/classvtk_surface_base.html#a343111e4b8b0103bf1f5d6d29fc41c18" target="_top" xlink:title="Merge the two input vertices v1 and v2.">
<polygon fill="white" stroke="black" points="398.5,-0.5 398.5,-19.5 553.5,-19.5 553.5,-0.5 398.5,-0.5"/>
<text text-anchor="middle" x="476" y="-7.5" font-family="Helvetica,sans-Serif" font-size="10.00">vtkSurfaceBase::MergeVertices</text>
</a>
</g>
</g>
<!-- Node1&#45;&gt;Node9 -->
<g id="edge8" class="edge">
<title>Node1&#45;&gt;Node9</title>
<path fill="none" stroke="midnightblue" d="M626.12,-65.45C606.3,-53.42 579.93,-38.73 555,-29 545.52,-25.3 535.11,-22.17 525.06,-19.57"/>
<polygon fill="midnightblue" stroke="midnightblue" points="624.39,-68.49 634.74,-70.76 628.06,-62.54 624.39,-68.49"/>
</g>
<!-- Node3 -->
<g id="node3" class="node">
<title>Node3</title>
<g id="a_node3"><a xlink:href="../../d1/dfa/classvtk_surface.html#afe3aaa7de019acb523e75df87e6c9a19" target="_top" xlink:title="copy to stream the connectivity and geometric properties of the mesh">
<polygon fill="white" stroke="black" points="207,-158.5 207,-177.5 361,-177.5 361,-158.5 207,-158.5"/>
<text text-anchor="middle" x="284" y="-165.5" font-family="Helvetica,sans-Serif" font-size="10.00">vtkSurface::GetMeshProperties</text>
</a>
</g>
</g>
<!-- Node2&#45;&gt;Node3 -->
<g id="edge2" class="edge">
<title>Node2&#45;&gt;Node3</title>
<path fill="none" stroke="midnightblue" d="M393.94,-168C383.09,-168 371.99,-168 361.22,-168"/>
<polygon fill="midnightblue" stroke="midnightblue" points="394.25,-171.5 404.25,-168 394.25,-164.5 394.25,-171.5"/>
</g>
<!-- Node4 -->
<g id="node4" class="node">
<title>Node4</title>
<g id="a_node4"><a xlink:href="../../d1/dfa/classvtk_surface.html#a95f0aa5277c846fe4a21300f55409186" target="_top" xlink:title="same as GetMeshProperties, but the properties are displayed on screen">
<polygon fill="white" stroke="black" points="0,-158.5 0,-177.5 171,-177.5 171,-158.5 0,-158.5"/>
<text text-anchor="middle" x="85.5" y="-165.5" font-family="Helvetica,sans-Serif" font-size="10.00">vtkSurface::DisplayMeshProperties</text>
</a>
</g>
</g>
<!-- Node3&#45;&gt;Node4 -->
<g id="edge3" class="edge">
<title>Node3&#45;&gt;Node4</title>
<path fill="none" stroke="midnightblue" d="M196.55,-168C188.13,-168 179.59,-168 171.19,-168"/>
<polygon fill="midnightblue" stroke="midnightblue" points="196.75,-171.5 206.75,-168 196.75,-164.5 196.75,-171.5"/>
</g>
<!-- Node7 -->
<g id="node7" class="node">
<title>Node7</title>
<g id="a_node7"><a xlink:href="../../d1/dfa/classvtk_surface.html#a827481a8bbfe917053f7fb961950daaa" target="_top" xlink:title="Computes the Vertices Areas with respect to their surrounding cells.">
<polygon fill="white" stroke="black" points="211,-76.5 211,-95.5 357,-95.5 357,-76.5 211,-76.5"/>
<text text-anchor="middle" x="284" y="-83.5" font-family="Helvetica,sans-Serif" font-size="10.00">vtkSurface::GetVerticesAreas</text>
</a>
</g>
</g>
<!-- Node6&#45;&gt;Node7 -->
<g id="edge6" class="edge">
<title>Node6&#45;&gt;Node7</title>
<path fill="none" stroke="midnightblue" d="M398.49,-86C384.83,-86 370.64,-86 357.1,-86"/>
<polygon fill="midnightblue" stroke="midnightblue" points="398.81,-89.5 408.81,-86 398.81,-82.5 398.81,-89.5"/>
</g>
</g>
</svg>
