<?xml version="1.0" encoding="UTF-8" standalone="no"?>
<!DOCTYPE svg PUBLIC "-//W3C//DTD SVG 1.1//EN"
 "http://www.w3.org/Graphics/SVG/1.1/DTD/svg11.dtd">
<!-- Generated by graphviz version 2.44.0 (0)
 -->
<!-- Title: vtkSurfaceBase::GetVertexNeighbourFaces Pages: 1 -->
<svg width="338pt" height="78pt"
 viewBox="0.00 0.00 338.00 77.50" xmlns="http://www.w3.org/2000/svg" xmlns:xlink="http://www.w3.org/1999/xlink">
<g id="graph0" class="graph" transform="scale(1 1) rotate(0) translate(4 73.5)">
<title>vtkSurfaceBase::GetVertexNeighbourFaces</title>
<polygon fill="white" stroke="transparent" points="-4,4 -4,-73.5 334,-73.5 334,4 -4,4"/>
<!-- Node1 -->
<g id="node1" class="node">
<title>Node1</title>
<g id="a_node1"><a xlink:title="Returns the list of faces adjacent to the point v1.">
<polygon fill="#bfbfbf" stroke="black" points="0,-22.5 0,-52.5 136,-52.5 136,-22.5 0,-22.5"/>
<text text-anchor="start" x="8" y="-40.5" font-family="Helvetica,sans-Serif" font-size="10.00">vtkSurfaceBase::GetVertex</text>
<text text-anchor="middle" x="68" y="-29.5" font-family="Helvetica,sans-Serif" font-size="10.00">NeighbourFaces</text>
</a>
</g>
</g>
<!-- Node2 -->
<g id="node2" class="node">
<title>Node2</title>
<g id="a_node2"><a xlink:href="../../d3/d13/classvtk_surface_base.html#a1f8125584169cbf9a07b85a83d90d3da" target="_top" xlink:title="Returns f1 and f2 as the faces adjacent to the edge.">
<polygon fill="white" stroke="black" points="172,-50 172,-69 330,-69 330,-50 172,-50"/>
<text text-anchor="middle" x="251" y="-57" font-family="Helvetica,sans-Serif" font-size="10.00">vtkSurfaceBase::GetEdgeFaces</text>
</a>
</g>
</g>
<!-- Node1&#45;&gt;Node2 -->
<g id="edge1" class="edge">
<title>Node1&#45;&gt;Node2</title>
<path fill="none" stroke="midnightblue" d="M136.14,-45.66C144.53,-46.68 153.2,-47.73 161.85,-48.79"/>
<polygon fill="midnightblue" stroke="midnightblue" points="161.62,-52.28 171.97,-50.02 162.46,-45.33 161.62,-52.28"/>
</g>
<!-- Node3 -->
<g id="node3" class="node">
<title>Node3</title>
<g id="a_node3"><a xlink:href="../../d3/d13/classvtk_surface_base.html#a10d9a9c6daefe1c004e27eba5d464738" target="_top" xlink:title="Returns the list of edges adjacent to the point v1.">
<polygon fill="white" stroke="black" points="183,-0.5 183,-30.5 319,-30.5 319,-0.5 183,-0.5"/>
<text text-anchor="start" x="191" y="-18.5" font-family="Helvetica,sans-Serif" font-size="10.00">vtkSurfaceBase::GetVertex</text>
<text text-anchor="middle" x="251" y="-7.5" font-family="Helvetica,sans-Serif" font-size="10.00">NeighbourEdges</text>
</a>
</g>
</g>
<!-- Node1&#45;&gt;Node3 -->
<g id="edge2" class="edge">
<title>Node1&#45;&gt;Node3</title>
<path fill="none" stroke="midnightblue" d="M136.14,-29.34C148.09,-27.89 160.62,-26.36 172.82,-24.88"/>
<polygon fill="midnightblue" stroke="midnightblue" points="173.46,-28.33 182.97,-23.65 172.62,-21.38 173.46,-28.33"/>
</g>
</g>
</svg>
