<?xml version="1.0" encoding="UTF-8" standalone="no"?>
<!DOCTYPE svg PUBLIC "-//W3C//DTD SVG 1.1//EN"
 "http://www.w3.org/Graphics/SVG/1.1/DTD/svg11.dtd">
<!-- Generated by graphviz version 2.44.0 (0)
 -->
<!-- Title: vtkSurfaceBase::ConquerOrientationFromFace Pages: 1 -->
<svg width="558pt" height="180pt"
 viewBox="0.00 0.00 558.00 180.00" xmlns="http://www.w3.org/2000/svg" xmlns:xlink="http://www.w3.org/1999/xlink">
<g id="graph0" class="graph" transform="scale(1 1) rotate(0) translate(4 176)">
<title>vtkSurfaceBase::ConquerOrientationFromFace</title>
<polygon fill="white" stroke="transparent" points="-4,4 -4,-176 554,-176 554,4 -4,4"/>
<!-- Node1 -->
<g id="node1" class="node">
<title>Node1</title>
<g id="a_node1"><a xlink:title="the method which keeps the orientation of the faces consistent. This is called whenever a new face is...">
<polygon fill="#bfbfbf" stroke="black" points="0,-71 0,-101 176,-101 176,-71 0,-71"/>
<text text-anchor="start" x="8" y="-89" font-family="Helvetica,sans-Serif" font-size="10.00">vtkSurfaceBase::ConquerOrientation</text>
<text text-anchor="middle" x="88" y="-78" font-family="Helvetica,sans-Serif" font-size="10.00">FromFace</text>
</a>
</g>
</g>
<!-- Node2 -->
<g id="node2" class="node">
<title>Node2</title>
<g id="a_node2"><a xlink:href="../../d5/d9c/vtksurfacebase_8cxx.html#a2e8c26ea64993c77629c368633da5ff0" target="_top" xlink:title=" ">
<polygon fill="white" stroke="black" points="251.5,-152.5 251.5,-171.5 338.5,-171.5 338.5,-152.5 251.5,-152.5"/>
<text text-anchor="middle" x="295" y="-159.5" font-family="Helvetica,sans-Serif" font-size="10.00">FindVertexIndex</text>
</a>
</g>
</g>
<!-- Node1&#45;&gt;Node2 -->
<g id="edge1" class="edge">
<title>Node1&#45;&gt;Node2</title>
<path fill="none" stroke="midnightblue" d="M117.14,-101.08C141.63,-113.7 178.39,-131.46 212,-143 221.43,-146.24 231.66,-149.1 241.6,-151.56"/>
<polygon fill="midnightblue" stroke="midnightblue" points="240.85,-154.98 251.39,-153.88 242.47,-148.17 240.85,-154.98"/>
</g>
<!-- Node3 -->
<g id="node3" class="node">
<title>Node3</title>
<g id="a_node3"><a xlink:href="../../d3/d13/classvtk_surface_base.html#a1f8125584169cbf9a07b85a83d90d3da" target="_top" xlink:title="Returns f1 and f2 as the faces adjacent to the edge.">
<polygon fill="white" stroke="black" points="216,-114.5 216,-133.5 374,-133.5 374,-114.5 216,-114.5"/>
<text text-anchor="middle" x="295" y="-121.5" font-family="Helvetica,sans-Serif" font-size="10.00">vtkSurfaceBase::GetEdgeFaces</text>
</a>
</g>
</g>
<!-- Node1&#45;&gt;Node3 -->
<g id="edge2" class="edge">
<title>Node1&#45;&gt;Node3</title>
<path fill="none" stroke="midnightblue" d="M170.02,-101.02C190.89,-104.89 213.01,-108.99 232.69,-112.64"/>
<polygon fill="midnightblue" stroke="midnightblue" points="232.27,-116.12 242.75,-114.5 233.55,-109.24 232.27,-116.12"/>
</g>
<!-- Node4 -->
<g id="node4" class="node">
<title>Node4</title>
<g id="a_node4"><a xlink:href="../../d3/d13/classvtk_surface_base.html#a6d0fece7168e91590325097ee7a320a2" target="_top" xlink:title="Returns v1 and v2 as the vertices bounding the edge.">
<polygon fill="white" stroke="black" points="212,-76.5 212,-95.5 378,-95.5 378,-76.5 212,-76.5"/>
<text text-anchor="middle" x="295" y="-83.5" font-family="Helvetica,sans-Serif" font-size="10.00">vtkSurfaceBase::GetEdgeVertices</text>
</a>
</g>
</g>
<!-- Node1&#45;&gt;Node4 -->
<g id="edge3" class="edge">
<title>Node1&#45;&gt;Node4</title>
<path fill="none" stroke="midnightblue" d="M176.24,-86C184.6,-86 193.11,-86 201.52,-86"/>
<polygon fill="midnightblue" stroke="midnightblue" points="201.73,-89.5 211.73,-86 201.73,-82.5 201.73,-89.5"/>
</g>
<!-- Node5 -->
<g id="node5" class="node">
<title>Node5</title>
<g id="a_node5"><a xlink:href="../../d3/d13/classvtk_surface_base.html#acf6e6f74c51e5a7fb7339d79017d215e" target="_top" xlink:title="Returns the Id of the edge (v1,v2).">
<polygon fill="white" stroke="black" points="233.5,-38.5 233.5,-57.5 356.5,-57.5 356.5,-38.5 233.5,-38.5"/>
<text text-anchor="middle" x="295" y="-45.5" font-family="Helvetica,sans-Serif" font-size="10.00">vtkSurfaceBase::IsEdge</text>
</a>
</g>
</g>
<!-- Node1&#45;&gt;Node5 -->
<g id="edge4" class="edge">
<title>Node1&#45;&gt;Node5</title>
<path fill="none" stroke="midnightblue" d="M170.02,-70.98C190.89,-67.11 213.01,-63.01 232.69,-59.36"/>
<polygon fill="midnightblue" stroke="midnightblue" points="233.55,-62.76 242.75,-57.5 232.27,-55.88 233.55,-62.76"/>
</g>
<!-- Node7 -->
<g id="node7" class="node">
<title>Node7</title>
<g id="a_node7"><a xlink:href="../../d3/d13/classvtk_surface_base.html#a9c77655b36b9fa47039e88d71f1be28a" target="_top" xlink:title="Returns true if the edge is a Manifold one (2 adjacent polygons)">
<polygon fill="white" stroke="black" points="215,-0.5 215,-19.5 375,-19.5 375,-0.5 215,-0.5"/>
<text text-anchor="middle" x="295" y="-7.5" font-family="Helvetica,sans-Serif" font-size="10.00">vtkSurfaceBase::IsEdgeManifold</text>
</a>
</g>
</g>
<!-- Node1&#45;&gt;Node7 -->
<g id="edge6" class="edge">
<title>Node1&#45;&gt;Node7</title>
<path fill="none" stroke="midnightblue" d="M117.14,-70.92C141.63,-58.3 178.39,-40.54 212,-29 219.57,-26.4 227.65,-24.05 235.67,-21.95"/>
<polygon fill="midnightblue" stroke="midnightblue" points="236.55,-25.34 245.4,-19.52 234.85,-18.55 236.55,-25.34"/>
</g>
<!-- Node6 -->
<g id="node6" class="node">
<title>Node6</title>
<g id="a_node6"><a xlink:href="../../d3/d13/classvtk_surface_base.html#a10d9a9c6daefe1c004e27eba5d464738" target="_top" xlink:title="Returns the list of edges adjacent to the point v1.">
<polygon fill="white" stroke="black" points="414,-33 414,-63 550,-63 550,-33 414,-33"/>
<text text-anchor="start" x="422" y="-51" font-family="Helvetica,sans-Serif" font-size="10.00">vtkSurfaceBase::GetVertex</text>
<text text-anchor="middle" x="482" y="-40" font-family="Helvetica,sans-Serif" font-size="10.00">NeighbourEdges</text>
</a>
</g>
</g>
<!-- Node5&#45;&gt;Node6 -->
<g id="edge5" class="edge">
<title>Node5&#45;&gt;Node6</title>
<path fill="none" stroke="midnightblue" d="M356.58,-48C371.62,-48 387.94,-48 403.67,-48"/>
<polygon fill="midnightblue" stroke="midnightblue" points="403.89,-51.5 413.89,-48 403.89,-44.5 403.89,-51.5"/>
</g>
</g>
</svg>
