<?xml version="1.0" encoding="UTF-8" standalone="no"?>
<!DOCTYPE svg PUBLIC "-//W3C//DTD SVG 1.1//EN"
 "http://www.w3.org/Graphics/SVG/1.1/DTD/svg11.dtd">
<!-- Generated by graphviz version 2.44.0 (0)
 -->
<!-- Title: vtkSurfaceBase::GetNumberOfEdges Pages: 1 -->
<svg width="548pt" height="294pt"
 viewBox="0.00 0.00 548.00 294.00" xmlns="http://www.w3.org/2000/svg" xmlns:xlink="http://www.w3.org/1999/xlink">
<g id="graph0" class="graph" transform="scale(1 1) rotate(0) translate(4 290)">
<title>vtkSurfaceBase::GetNumberOfEdges</title>
<polygon fill="white" stroke="transparent" points="-4,4 -4,-290 544,-290 544,4 -4,4"/>
<!-- Node1 -->
<g id="node1" class="node">
<title>Node1</title>
<g id="a_node1"><a xlink:title="Returns the number of edges in the vtkSurfaceBase Object.">
<polygon fill="#bfbfbf" stroke="black" points="397,-128 397,-158 540,-158 540,-128 397,-128"/>
<text text-anchor="start" x="405" y="-146" font-family="Helvetica,sans-Serif" font-size="10.00">vtkSurfaceBase::GetNumber</text>
<text text-anchor="middle" x="468.5" y="-135" font-family="Helvetica,sans-Serif" font-size="10.00">OfEdges</text>
</a>
</g>
</g>
<!-- Node2 -->
<g id="node2" class="node">
<title>Node2</title>
<g id="a_node2"><a xlink:href="../../d1/dfa/classvtk_surface.html#a953e87d3c04cb906a2ec336dd7040076" target="_top" xlink:title="Computes the Mesh Edges Lengths in an array.">
<polygon fill="white" stroke="black" points="212.5,-266.5 212.5,-285.5 355.5,-285.5 355.5,-266.5 212.5,-266.5"/>
<text text-anchor="middle" x="284" y="-273.5" font-family="Helvetica,sans-Serif" font-size="10.00">vtkSurface::GetEdgeLengths</text>
</a>
</g>
</g>
<!-- Node1&#45;&gt;Node2 -->
<g id="edge1" class="edge">
<title>Node1&#45;&gt;Node2</title>
<path fill="none" stroke="midnightblue" d="M450.34,-166.44C431.15,-191.07 397.89,-229.31 361,-252 350.98,-258.16 339.24,-262.88 328.02,-266.43"/>
<polygon fill="midnightblue" stroke="midnightblue" points="453.23,-168.42 456.52,-158.35 447.67,-164.17 453.23,-168.42"/>
</g>
<!-- Node3 -->
<g id="node3" class="node">
<title>Node3</title>
<g id="a_node3"><a xlink:href="../../d1/dfa/classvtk_surface.html#aeb1922c987d5fdcebe1b680d82db9087" target="_top" xlink:title="Recusrsively splits the edges longer than Ratio*AverageLength.">
<polygon fill="white" stroke="black" points="16.5,-247.5 16.5,-266.5 154.5,-266.5 154.5,-247.5 16.5,-247.5"/>
<text text-anchor="middle" x="85.5" y="-254.5" font-family="Helvetica,sans-Serif" font-size="10.00">vtkSurface::SplitLongEdges</text>
</a>
</g>
</g>
<!-- Node1&#45;&gt;Node3 -->
<g id="edge7" class="edge">
<title>Node1&#45;&gt;Node3</title>
<path fill="none" stroke="midnightblue" d="M444.16,-164.79C423.81,-182.45 392.67,-206.4 361,-219 294.06,-245.64 211.51,-254.11 154.51,-256.56"/>
<polygon fill="midnightblue" stroke="midnightblue" points="446.51,-167.39 451.67,-158.13 441.86,-162.15 446.51,-167.39"/>
</g>
<!-- Node4 -->
<g id="node4" class="node">
<title>Node4</title>
<g id="a_node4"><a xlink:href="../../d1/dfa/classvtk_surface.html#a2a5532c01f9e99216df56a7452cc82a1" target="_top" xlink:title="returns a polydata of the mesh edges only">
<polygon fill="white" stroke="black" points="207,-190.5 207,-209.5 361,-209.5 361,-190.5 207,-190.5"/>
<text text-anchor="middle" x="284" y="-197.5" font-family="Helvetica,sans-Serif" font-size="10.00">vtkSurface::GetEdgesPolyData</text>
</a>
</g>
</g>
<!-- Node1&#45;&gt;Node4 -->
<g id="edge3" class="edge">
<title>Node1&#45;&gt;Node4</title>
<path fill="none" stroke="midnightblue" d="M418.66,-161.56C400.66,-168.1 380.02,-175.24 361,-181 349.8,-184.39 337.55,-187.64 326.22,-190.47"/>
<polygon fill="midnightblue" stroke="midnightblue" points="420.17,-164.73 428.36,-158 417.76,-158.16 420.17,-164.73"/>
</g>
<!-- Node5 -->
<g id="node5" class="node">
<title>Node5</title>
<g id="a_node5"><a xlink:href="../../d1/dfa/classvtk_surface.html#afe3aaa7de019acb523e75df87e6c9a19" target="_top" xlink:title="copy to stream the connectivity and geometric properties of the mesh">
<polygon fill="white" stroke="black" points="207,-152.5 207,-171.5 361,-171.5 361,-152.5 207,-152.5"/>
<text text-anchor="middle" x="284" y="-159.5" font-family="Helvetica,sans-Serif" font-size="10.00">vtkSurface::GetMeshProperties</text>
</a>
</g>
</g>
<!-- Node1&#45;&gt;Node5 -->
<g id="edge4" class="edge">
<title>Node1&#45;&gt;Node5</title>
<path fill="none" stroke="midnightblue" d="M386.94,-151.39C378.36,-152.28 369.65,-153.19 361.12,-154.08"/>
<polygon fill="midnightblue" stroke="midnightblue" points="387.36,-154.86 396.94,-150.35 386.63,-147.9 387.36,-154.86"/>
</g>
<!-- Node7 -->
<g id="node7" class="node">
<title>Node7</title>
<g id="a_node7"><a xlink:href="../../d3/d13/classvtk_surface_base.html#a667824957faeecac1f36e8337931c3aa" target="_top" xlink:title="Set memory allocation in the vtkSurfaceBase object, which is assumed to be as large as the *mesh vtkS...">
<polygon fill="white" stroke="black" points="231,-114.5 231,-133.5 337,-133.5 337,-114.5 231,-114.5"/>
<text text-anchor="middle" x="284" y="-121.5" font-family="Helvetica,sans-Serif" font-size="10.00">vtkSurfaceBase::Init</text>
</a>
</g>
</g>
<!-- Node1&#45;&gt;Node7 -->
<g id="edge6" class="edge">
<title>Node1&#45;&gt;Node7</title>
<path fill="none" stroke="midnightblue" d="M386.6,-134.58C369.86,-132.83 352.65,-131.04 337.26,-129.44"/>
<polygon fill="midnightblue" stroke="midnightblue" points="386.63,-138.1 396.94,-135.65 387.36,-131.14 386.63,-138.1"/>
</g>
<!-- Node8 -->
<g id="node8" class="node">
<title>Node8</title>
<g id="a_node8"><a xlink:href="../../d3/d13/classvtk_surface_base.html#af819348a4ab1b2d74cbbcaadd24e7286" target="_top" xlink:title="Recover extra memory.">
<polygon fill="white" stroke="black" points="217.5,-76.5 217.5,-95.5 350.5,-95.5 350.5,-76.5 217.5,-76.5"/>
<text text-anchor="middle" x="284" y="-83.5" font-family="Helvetica,sans-Serif" font-size="10.00">vtkSurfaceBase::SQueeze</text>
</a>
</g>
</g>
<!-- Node1&#45;&gt;Node8 -->
<g id="edge8" class="edge">
<title>Node1&#45;&gt;Node8</title>
<path fill="none" stroke="midnightblue" d="M418.66,-124.44C400.66,-117.9 380.02,-110.76 361,-105 349.8,-101.61 337.55,-98.36 326.22,-95.53"/>
<polygon fill="midnightblue" stroke="midnightblue" points="417.76,-127.84 428.36,-128 420.17,-121.27 417.76,-127.84"/>
</g>
<!-- Node9 -->
<g id="node9" class="node">
<title>Node9</title>
<g id="a_node9"><a xlink:href="../../d1/dfa/classvtk_surface.html#ad35b4c37556f13f0deeb6bb9753f18af" target="_top" xlink:title="returns a mesh which is a linear subdivision of this">
<polygon fill="white" stroke="black" points="227.5,-38.5 227.5,-57.5 340.5,-57.5 340.5,-38.5 227.5,-38.5"/>
<text text-anchor="middle" x="284" y="-45.5" font-family="Helvetica,sans-Serif" font-size="10.00">vtkSurface::Subdivide</text>
</a>
</g>
</g>
<!-- Node1&#45;&gt;Node9 -->
<g id="edge9" class="edge">
<title>Node1&#45;&gt;Node9</title>
<path fill="none" stroke="midnightblue" d="M442.78,-121.24C422.21,-104.18 391.45,-81.05 361,-67 352.73,-63.18 343.58,-60.06 334.58,-57.53"/>
<polygon fill="midnightblue" stroke="midnightblue" points="440.78,-124.13 450.68,-127.9 445.3,-118.78 440.78,-124.13"/>
</g>
<!-- Node10 -->
<g id="node10" class="node">
<title>Node10</title>
<g id="a_node10"><a xlink:href="../../d1/dfa/classvtk_surface.html#a8871f6a866295a51c983283a4ccc0a9d" target="_top" xlink:title="subdivide the mesh (in place)">
<polygon fill="white" stroke="black" points="211,-0.5 211,-19.5 357,-19.5 357,-0.5 211,-0.5"/>
<text text-anchor="middle" x="284" y="-7.5" font-family="Helvetica,sans-Serif" font-size="10.00">vtkSurface::SubdivideInPlace</text>
</a>
</g>
</g>
<!-- Node1&#45;&gt;Node10 -->
<g id="edge10" class="edge">
<title>Node1&#45;&gt;Node10</title>
<path fill="none" stroke="midnightblue" d="M451.76,-119.28C433.17,-93.16 399.83,-51.87 361,-29 354.44,-25.14 347.11,-22.05 339.66,-19.59"/>
<polygon fill="midnightblue" stroke="midnightblue" points="449.12,-121.61 457.7,-127.82 454.87,-117.62 449.12,-121.61"/>
</g>
<!-- Node2&#45;&gt;Node3 -->
<g id="edge2" class="edge">
<title>Node2&#45;&gt;Node3</title>
<path fill="none" stroke="midnightblue" d="M202.07,-268.17C186.28,-266.65 169.88,-265.06 154.57,-263.58"/>
<polygon fill="midnightblue" stroke="midnightblue" points="202.05,-271.69 212.34,-269.17 202.72,-264.72 202.05,-271.69"/>
</g>
<!-- Node6 -->
<g id="node6" class="node">
<title>Node6</title>
<g id="a_node6"><a xlink:href="../../d1/dfa/classvtk_surface.html#a95f0aa5277c846fe4a21300f55409186" target="_top" xlink:title="same as GetMeshProperties, but the properties are displayed on screen">
<polygon fill="white" stroke="black" points="0,-152.5 0,-171.5 171,-171.5 171,-152.5 0,-152.5"/>
<text text-anchor="middle" x="85.5" y="-159.5" font-family="Helvetica,sans-Serif" font-size="10.00">vtkSurface::DisplayMeshProperties</text>
</a>
</g>
</g>
<!-- Node5&#45;&gt;Node6 -->
<g id="edge5" class="edge">
<title>Node5&#45;&gt;Node6</title>
<path fill="none" stroke="midnightblue" d="M196.55,-162C188.13,-162 179.59,-162 171.19,-162"/>
<polygon fill="midnightblue" stroke="midnightblue" points="196.75,-165.5 206.75,-162 196.75,-158.5 196.75,-165.5"/>
</g>
</g>
</svg>
