<?xml version="1.0" encoding="UTF-8" standalone="no"?>
<!DOCTYPE svg PUBLIC "-//W3C//DTD SVG 1.1//EN"
 "http://www.w3.org/Graphics/SVG/1.1/DTD/svg11.dtd">
<!-- Generated by graphviz version 2.44.0 (0)
 -->
<!-- Title: vtkSurfaceBase::CleanEdge Pages: 1 -->
<svg width="523pt" height="116pt"
 viewBox="0.00 0.00 523.00 115.50" xmlns="http://www.w3.org/2000/svg" xmlns:xlink="http://www.w3.org/1999/xlink">
<g id="graph0" class="graph" transform="scale(1 1) rotate(0) translate(4 111.5)">
<title>vtkSurfaceBase::CleanEdge</title>
<polygon fill="white" stroke="transparent" points="-4,4 -4,-111.5 519,-111.5 519,4 -4,4"/>
<!-- Node1 -->
<g id="node1" class="node">
<title>Node1</title>
<g id="a_node1"><a xlink:title="deletes the edge if it is adjacent to no polygon uneffective if CleanEdges is set to 0">
<polygon fill="#bfbfbf" stroke="black" points="375,-60.5 375,-79.5 515,-79.5 515,-60.5 375,-60.5"/>
<text text-anchor="middle" x="445" y="-67.5" font-family="Helvetica,sans-Serif" font-size="10.00">vtkSurfaceBase::CleanEdge</text>
</a>
</g>
</g>
<!-- Node2 -->
<g id="node2" class="node">
<title>Node2</title>
<g id="a_node2"><a xlink:href="../../d3/d13/classvtk_surface_base.html#a16e3b6b8174063a24d61f9e20e71aaf1" target="_top" xlink:title="Changes one vertex of a given face.">
<polygon fill="white" stroke="black" points="191,-77 191,-107 339,-107 339,-77 191,-77"/>
<text text-anchor="start" x="199" y="-95" font-family="Helvetica,sans-Serif" font-size="10.00">vtkSurfaceBase::ChangeFace</text>
<text text-anchor="middle" x="265" y="-84" font-family="Helvetica,sans-Serif" font-size="10.00">Vertex</text>
</a>
</g>
</g>
<!-- Node1&#45;&gt;Node2 -->
<g id="edge1" class="edge">
<title>Node1&#45;&gt;Node2</title>
<path fill="none" stroke="midnightblue" d="M364.94,-79.77C356.36,-80.83 347.66,-81.91 339.16,-82.96"/>
<polygon fill="midnightblue" stroke="midnightblue" points="365.43,-83.24 374.93,-78.54 364.57,-76.29 365.43,-83.24"/>
</g>
<!-- Node3 -->
<g id="node3" class="node">
<title>Node3</title>
<g id="a_node3"><a xlink:href="../../d3/d13/classvtk_surface_base.html#aae9fbf8586bd128017ffb7a389651d9f" target="_top" xlink:title="Deletes the face f1, possibly its adjacent edges and vertices if they are free and is CleanVertices a...">
<polygon fill="white" stroke="black" points="193.5,-38.5 193.5,-57.5 336.5,-57.5 336.5,-38.5 193.5,-38.5"/>
<text text-anchor="middle" x="265" y="-45.5" font-family="Helvetica,sans-Serif" font-size="10.00">vtkSurfaceBase::DeleteFace</text>
</a>
</g>
</g>
<!-- Node1&#45;&gt;Node3 -->
<g id="edge2" class="edge">
<title>Node1&#45;&gt;Node3</title>
<path fill="none" stroke="midnightblue" d="M364.78,-60.21C355.36,-59.04 345.79,-57.86 336.5,-56.71"/>
<polygon fill="midnightblue" stroke="midnightblue" points="364.57,-63.71 374.93,-61.46 365.43,-56.76 364.57,-63.71"/>
</g>
<!-- Node4 -->
<g id="node4" class="node">
<title>Node4</title>
<g id="a_node4"><a xlink:href="../../d3/d13/classvtk_surface_base.html#a343111e4b8b0103bf1f5d6d29fc41c18" target="_top" xlink:title="Merge the two input vertices v1 and v2.">
<polygon fill="white" stroke="black" points="0,-76.5 0,-95.5 155,-95.5 155,-76.5 0,-76.5"/>
<text text-anchor="middle" x="77.5" y="-83.5" font-family="Helvetica,sans-Serif" font-size="10.00">vtkSurfaceBase::MergeVertices</text>
</a>
</g>
</g>
<!-- Node3&#45;&gt;Node4 -->
<g id="edge3" class="edge">
<title>Node3&#45;&gt;Node4</title>
<path fill="none" stroke="midnightblue" d="M207.33,-59.61C180.94,-65.01 149.95,-71.36 124.97,-76.48"/>
<polygon fill="midnightblue" stroke="midnightblue" points="208.1,-63.02 217.19,-57.59 206.69,-56.17 208.1,-63.02"/>
</g>
<!-- Node5 -->
<g id="node5" class="node">
<title>Node5</title>
<g id="a_node5"><a xlink:href="../../d1/dfa/classvtk_surface.html#aeb1922c987d5fdcebe1b680d82db9087" target="_top" xlink:title="Recusrsively splits the edges longer than Ratio*AverageLength.">
<polygon fill="white" stroke="black" points="8.5,-38.5 8.5,-57.5 146.5,-57.5 146.5,-38.5 8.5,-38.5"/>
<text text-anchor="middle" x="77.5" y="-45.5" font-family="Helvetica,sans-Serif" font-size="10.00">vtkSurface::SplitLongEdges</text>
</a>
</g>
</g>
<!-- Node3&#45;&gt;Node5 -->
<g id="edge4" class="edge">
<title>Node3&#45;&gt;Node5</title>
<path fill="none" stroke="midnightblue" d="M183.16,-48C170.93,-48 158.43,-48 146.51,-48"/>
<polygon fill="midnightblue" stroke="midnightblue" points="183.34,-51.5 193.34,-48 183.34,-44.5 183.34,-51.5"/>
</g>
<!-- Node6 -->
<g id="node6" class="node">
<title>Node6</title>
<g id="a_node6"><a xlink:href="../../d1/dfa/classvtk_surface.html#a8871f6a866295a51c983283a4ccc0a9d" target="_top" xlink:title="subdivide the mesh (in place)">
<polygon fill="white" stroke="black" points="4.5,-0.5 4.5,-19.5 150.5,-19.5 150.5,-0.5 4.5,-0.5"/>
<text text-anchor="middle" x="77.5" y="-7.5" font-family="Helvetica,sans-Serif" font-size="10.00">vtkSurface::SubdivideInPlace</text>
</a>
</g>
</g>
<!-- Node3&#45;&gt;Node6 -->
<g id="edge5" class="edge">
<title>Node3&#45;&gt;Node6</title>
<path fill="none" stroke="midnightblue" d="M207.33,-36.39C180.94,-30.99 149.95,-24.64 124.97,-19.52"/>
<polygon fill="midnightblue" stroke="midnightblue" points="206.69,-39.83 217.19,-38.41 208.1,-32.98 206.69,-39.83"/>
</g>
</g>
</svg>
