<?xml version="1.0" encoding="UTF-8" standalone="no"?>
<!DOCTYPE svg PUBLIC "-//W3C//DTD SVG 1.1//EN"
 "http://www.w3.org/Graphics/SVG/1.1/DTD/svg11.dtd">
<!-- Generated by graphviz version 2.44.1 (0)
 -->
<!-- Title: PlaceTouchpointTool::undo Pages: 1 -->
<svg width="852pt" height="566pt"
 viewBox="0.00 0.00 852.00 566.00" xmlns="http://www.w3.org/2000/svg" xmlns:xlink="http://www.w3.org/1999/xlink">
<g id="graph0" class="graph" transform="scale(1 1) rotate(0) translate(4 562)">
<title>PlaceTouchpointTool::undo</title>
<polygon fill="white" stroke="transparent" points="-4,4 -4,-562 848,-562 848,4 -4,4"/>
<!-- Node1 -->
<g id="node1" class="node">
<title>Node1</title>
<g id="a_node1"><a xlink:title=" ">
<polygon fill="#bfbfbf" stroke="black" points="0,-303 0,-333 107,-333 107,-303 0,-303"/>
<text text-anchor="start" x="8" y="-321" font-family="Helvetica,sans-Serif" font-size="10.00">PlaceTouchpointTool</text>
<text text-anchor="middle" x="53.5" y="-310" font-family="Helvetica,sans-Serif" font-size="10.00">::undo</text>
</a>
</g>
</g>
<!-- Node2 -->
<g id="node2" class="node">
<title>Node2</title>
<g id="a_node2"><a xlink:href="../../d6/db5/class_scene.html#af1128c48ccb6999066aa1d935075cb23" target="_top" xlink:title="Remove a touchpoint from the scene given its unique touchpoint id.">
<polygon fill="white" stroke="black" points="143,-308.5 143,-327.5 273,-327.5 273,-308.5 143,-308.5"/>
<text text-anchor="middle" x="208" y="-315.5" font-family="Helvetica,sans-Serif" font-size="10.00">Scene::removeTouchpoint</text>
</a>
</g>
</g>
<!-- Node1&#45;&gt;Node2 -->
<g id="edge1" class="edge">
<title>Node1&#45;&gt;Node2</title>
<path fill="none" stroke="midnightblue" d="M107.41,-318C115.63,-318 124.26,-318 132.85,-318"/>
<polygon fill="midnightblue" stroke="midnightblue" points="132.89,-321.5 142.89,-318 132.89,-314.5 132.89,-321.5"/>
</g>
<!-- Node3 -->
<g id="node3" class="node">
<title>Node3</title>
<g id="a_node3"><a xlink:href="../../d9/d58/class_touchpoint.html#a85820150b53ece4c635f7ca5ed189afa" target="_top" xlink:title="Return the graphical representation (vtkActor) of the touchpoint.">
<polygon fill="white" stroke="black" points="331.5,-538.5 331.5,-557.5 438.5,-557.5 438.5,-538.5 331.5,-538.5"/>
<text text-anchor="middle" x="385" y="-545.5" font-family="Helvetica,sans-Serif" font-size="10.00">Touchpoint::getActor</text>
</a>
</g>
</g>
<!-- Node2&#45;&gt;Node3 -->
<g id="edge2" class="edge">
<title>Node2&#45;&gt;Node3</title>
<path fill="none" stroke="midnightblue" d="M210.61,-327.77C216.67,-361.41 241.37,-473.39 309,-529 312.82,-532.14 317.09,-534.77 321.61,-536.97"/>
<polygon fill="midnightblue" stroke="midnightblue" points="320.57,-540.33 331.15,-540.92 323.24,-533.86 320.57,-540.33"/>
</g>
<!-- Node4 -->
<g id="node4" class="node">
<title>Node4</title>
<g id="a_node4"><a xlink:href="../../d9/d58/class_touchpoint.html#a1b683bc69ad347a1fe886aa3161e76b3" target="_top" xlink:title="Return the graphical representation (vtkActor) of the outside wiring entry point.">
<polygon fill="white" stroke="black" points="318.5,-489 318.5,-519 451.5,-519 451.5,-489 318.5,-489"/>
<text text-anchor="start" x="326.5" y="-507" font-family="Helvetica,sans-Serif" font-size="10.00">Touchpoint::getConnection</text>
<text text-anchor="middle" x="385" y="-496" font-family="Helvetica,sans-Serif" font-size="10.00">PointActor</text>
</a>
</g>
</g>
<!-- Node2&#45;&gt;Node4 -->
<g id="edge3" class="edge">
<title>Node2&#45;&gt;Node4</title>
<path fill="none" stroke="midnightblue" d="M212.27,-327.58C222.22,-355.27 254.77,-436.18 309,-479 311.27,-480.79 313.68,-482.46 316.18,-484.01"/>
<polygon fill="midnightblue" stroke="midnightblue" points="314.56,-487.12 325.02,-488.85 317.92,-480.98 314.56,-487.12"/>
</g>
<!-- Node5 -->
<g id="node5" class="node">
<title>Node5</title>
<g id="a_node5"><a xlink:href="../../d9/d58/class_touchpoint.html#ab61727c9bb477bccca373f92a2b8bea4" target="_top" xlink:title="Return the touchpoint number label text actor.">
<polygon fill="white" stroke="black" points="322.5,-450.5 322.5,-469.5 447.5,-469.5 447.5,-450.5 322.5,-450.5"/>
<text text-anchor="middle" x="385" y="-457.5" font-family="Helvetica,sans-Serif" font-size="10.00">Touchpoint::getTextActor</text>
</a>
</g>
</g>
<!-- Node2&#45;&gt;Node5 -->
<g id="edge4" class="edge">
<title>Node2&#45;&gt;Node5</title>
<path fill="none" stroke="midnightblue" d="M214.03,-327.77C226.62,-351.21 261.91,-410.94 309,-441 312.34,-443.13 315.91,-445.03 319.61,-446.71"/>
<polygon fill="midnightblue" stroke="midnightblue" points="318.44,-450.01 329.02,-450.47 321.03,-443.51 318.44,-450.01"/>
</g>
<!-- Node6 -->
<g id="node6" class="node">
<title>Node6</title>
<g id="a_node6"><a xlink:href="../../d6/db5/class_scene.html#a7e5ee53ea01ef113afaaf4b7c10accf3" target="_top" xlink:title="Return the voxel grid image data.">
<polygon fill="white" stroke="black" points="330.5,-412.5 330.5,-431.5 439.5,-431.5 439.5,-412.5 330.5,-412.5"/>
<text text-anchor="middle" x="385" y="-419.5" font-family="Helvetica,sans-Serif" font-size="10.00">Scene::getVoxelData</text>
</a>
</g>
</g>
<!-- Node2&#45;&gt;Node6 -->
<g id="edge5" class="edge">
<title>Node2&#45;&gt;Node6</title>
<path fill="none" stroke="midnightblue" d="M217.34,-327.52C233.31,-345.16 270.12,-382.94 309,-403 313.51,-405.33 318.32,-407.38 323.25,-409.19"/>
<polygon fill="midnightblue" stroke="midnightblue" points="322.22,-412.54 332.82,-412.38 324.44,-405.9 322.22,-412.54"/>
</g>
<!-- Node7 -->
<g id="node7" class="node">
<title>Node7</title>
<g id="a_node7"><a xlink:href="../../d6/db5/class_scene.html#a7caf30a70e69430d5e4ac93d6828a649" target="_top" xlink:title="Return the bounds of the voxel grid.">
<polygon fill="white" stroke="black" points="316.5,-374.5 316.5,-393.5 453.5,-393.5 453.5,-374.5 316.5,-374.5"/>
<text text-anchor="middle" x="385" y="-381.5" font-family="Helvetica,sans-Serif" font-size="10.00">Scene::getVoxelgridBounds</text>
</a>
</g>
</g>
<!-- Node2&#45;&gt;Node7 -->
<g id="edge6" class="edge">
<title>Node2&#45;&gt;Node7</title>
<path fill="none" stroke="midnightblue" d="M226.63,-327.55C246.27,-337.89 279.2,-354.33 309,-365 315.87,-367.46 323.2,-369.73 330.48,-371.78"/>
<polygon fill="midnightblue" stroke="midnightblue" points="329.78,-375.22 340.35,-374.44 331.6,-368.46 329.78,-375.22"/>
</g>
<!-- Node9 -->
<g id="node9" class="node">
<title>Node9</title>
<g id="a_node9"><a xlink:href="../../d9/d58/class_touchpoint.html#ae06d7b971e13790fab04d7f40b5b89ef" target="_top" xlink:title="Set touchpoint actor.">
<polygon fill="white" stroke="black" points="331.5,-286.5 331.5,-305.5 438.5,-305.5 438.5,-286.5 331.5,-286.5"/>
<text text-anchor="middle" x="385" y="-293.5" font-family="Helvetica,sans-Serif" font-size="10.00">Touchpoint::setActor</text>
</a>
</g>
</g>
<!-- Node2&#45;&gt;Node9 -->
<g id="edge8" class="edge">
<title>Node2&#45;&gt;Node9</title>
<path fill="none" stroke="midnightblue" d="M273.17,-309.93C288.85,-307.96 305.62,-305.85 321.23,-303.89"/>
<polygon fill="midnightblue" stroke="midnightblue" points="321.82,-307.34 331.31,-302.62 320.95,-300.4 321.82,-307.34"/>
</g>
<!-- Node10 -->
<g id="node10" class="node">
<title>Node10</title>
<g id="a_node10"><a xlink:href="../../d9/d58/class_touchpoint.html#af3e0979fc1385955c5aae51968555dd3" target="_top" xlink:title="Set the actor of the connection point.">
<polygon fill="white" stroke="black" points="318.5,-237 318.5,-267 451.5,-267 451.5,-237 318.5,-237"/>
<text text-anchor="start" x="326.5" y="-255" font-family="Helvetica,sans-Serif" font-size="10.00">Touchpoint::setConnection</text>
<text text-anchor="middle" x="385" y="-244" font-family="Helvetica,sans-Serif" font-size="10.00">PointActor</text>
</a>
</g>
</g>
<!-- Node2&#45;&gt;Node10 -->
<g id="edge9" class="edge">
<title>Node2&#45;&gt;Node10</title>
<path fill="none" stroke="midnightblue" d="M231.07,-308.45C251.22,-299.85 281.91,-287.06 309,-277 314.91,-274.81 321.12,-272.59 327.32,-270.44"/>
<polygon fill="midnightblue" stroke="midnightblue" points="328.69,-273.67 337.02,-267.12 326.43,-267.05 328.69,-273.67"/>
</g>
<!-- Node11 -->
<g id="node11" class="node">
<title>Node11</title>
<g id="a_node11"><a xlink:href="../../d9/d58/class_touchpoint.html#a20ea5d908fdf70e2698c5f86789e4742" target="_top" xlink:title="Set touchpoint id to given id.">
<polygon fill="white" stroke="black" points="338,-198.5 338,-217.5 432,-217.5 432,-198.5 338,-198.5"/>
<text text-anchor="middle" x="385" y="-205.5" font-family="Helvetica,sans-Serif" font-size="10.00">Touchpoint::setID</text>
</a>
</g>
</g>
<!-- Node2&#45;&gt;Node11 -->
<g id="edge10" class="edge">
<title>Node2&#45;&gt;Node11</title>
<path fill="none" stroke="midnightblue" d="M216.99,-308.23C232.66,-289.73 269.37,-249.48 309,-228 314.97,-224.76 321.5,-222.03 328.13,-219.72"/>
<polygon fill="midnightblue" stroke="midnightblue" points="329.39,-222.99 337.87,-216.63 327.28,-216.32 329.39,-222.99"/>
</g>
<!-- Node12 -->
<g id="node12" class="node">
<title>Node12</title>
<g id="a_node12"><a xlink:href="../../d9/d58/class_touchpoint.html#aa9274369fab341dc277036e07dbfc234" target="_top" xlink:title="Set the polydata of the touchpoint.">
<polygon fill="white" stroke="black" points="323,-160.5 323,-179.5 447,-179.5 447,-160.5 323,-160.5"/>
<text text-anchor="middle" x="385" y="-167.5" font-family="Helvetica,sans-Serif" font-size="10.00">Touchpoint::setPolyData</text>
</a>
</g>
</g>
<!-- Node2&#45;&gt;Node12 -->
<g id="edge11" class="edge">
<title>Node2&#45;&gt;Node12</title>
<path fill="none" stroke="midnightblue" d="M213.54,-308.47C225.51,-284.4 260.4,-220.82 309,-189 312.16,-186.93 315.54,-185.08 319.04,-183.44"/>
<polygon fill="midnightblue" stroke="midnightblue" points="320.62,-186.57 328.55,-179.54 317.97,-180.09 320.62,-186.57"/>
</g>
<!-- Node15 -->
<g id="node15" class="node">
<title>Node15</title>
<g id="a_node15"><a xlink:href="../../d9/d58/class_touchpoint.html#a27645f8861d2ce10dc9bff4e72549539" target="_top" xlink:title="Set text label touchpoint number actor.">
<polygon fill="white" stroke="black" points="322.5,-122.5 322.5,-141.5 447.5,-141.5 447.5,-122.5 322.5,-122.5"/>
<text text-anchor="middle" x="385" y="-129.5" font-family="Helvetica,sans-Serif" font-size="10.00">Touchpoint::setTextActor</text>
</a>
</g>
</g>
<!-- Node2&#45;&gt;Node15 -->
<g id="edge14" class="edge">
<title>Node2&#45;&gt;Node15</title>
<path fill="none" stroke="midnightblue" d="M211.88,-308.28C220.95,-279.41 251.79,-193.56 309,-151 311.51,-149.14 314.17,-147.45 316.96,-145.94"/>
<polygon fill="midnightblue" stroke="midnightblue" points="318.59,-149.03 326.17,-141.62 315.63,-142.69 318.59,-149.03"/>
</g>
<!-- Node16 -->
<g id="node16" class="node">
<title>Node16</title>
<g id="a_node16"><a xlink:href="../../d9/d58/class_touchpoint.html#a550348f9d05c347b5186b6531d583a11" target="_top" xlink:title="Mark voxel grid cells as unoccupied by the touchpoint geometry.">
<polygon fill="white" stroke="black" points="309,-77.5 309,-96.5 461,-96.5 461,-77.5 309,-77.5"/>
<text text-anchor="middle" x="385" y="-84.5" font-family="Helvetica,sans-Serif" font-size="10.00">Touchpoint::unMarkOccupation</text>
</a>
</g>
</g>
<!-- Node2&#45;&gt;Node16 -->
<g id="edge15" class="edge">
<title>Node2&#45;&gt;Node16</title>
<path fill="none" stroke="midnightblue" d="M210.97,-308.26C218.06,-275.69 245.29,-169.48 309,-113 314.67,-107.97 321.37,-103.9 328.39,-100.62"/>
<polygon fill="midnightblue" stroke="midnightblue" points="330.19,-103.66 338.09,-96.6 327.51,-97.19 330.19,-103.66"/>
</g>
<!-- Node21 -->
<g id="node21" class="node">
<title>Node21</title>
<g id="a_node21"><a xlink:href="../../d6/db5/class_scene.html#a415555bc0037489b1a9421747c318746" target="_top" xlink:title="Update the occupation map visualization after changes to the underlying voxel data.">
<polygon fill="white" stroke="black" points="311,-325 311,-355 459,-355 459,-325 311,-325"/>
<text text-anchor="start" x="319" y="-343" font-family="Helvetica,sans-Serif" font-size="10.00">Scene::updateOccupationMap</text>
<text text-anchor="middle" x="385" y="-332" font-family="Helvetica,sans-Serif" font-size="10.00">Actor</text>
</a>
</g>
</g>
<!-- Node2&#45;&gt;Node21 -->
<g id="edge20" class="edge">
<title>Node2&#45;&gt;Node21</title>
<path fill="none" stroke="midnightblue" d="M273.17,-326.07C282.2,-327.2 291.58,-328.38 300.9,-329.55"/>
<polygon fill="midnightblue" stroke="midnightblue" points="300.6,-333.04 310.96,-330.82 301.48,-326.1 300.6,-333.04"/>
</g>
<!-- Node8 -->
<g id="node8" class="node">
<title>Node8</title>
<g id="a_node8"><a xlink:href="../../d6/db5/class_scene.html#a0799bb0687ffe3a97e0523a4e700ef2d" target="_top" xlink:title="Return the occupation map visualization.">
<polygon fill="white" stroke="black" points="497.5,-527.5 497.5,-546.5 652.5,-546.5 652.5,-527.5 497.5,-527.5"/>
<text text-anchor="middle" x="575" y="-534.5" font-family="Helvetica,sans-Serif" font-size="10.00">Scene::getOccupationMapActor</text>
</a>
</g>
</g>
<!-- Node7&#45;&gt;Node8 -->
<g id="edge7" class="edge">
<title>Node7&#45;&gt;Node8</title>
<path fill="none" stroke="midnightblue" d="M447.02,-393.51C452.13,-396.01 456.9,-399.12 461,-403 499.9,-439.81 457.98,-481.31 497,-518 498.67,-519.57 500.45,-521.02 502.32,-522.35"/>
<polygon fill="midnightblue" stroke="midnightblue" points="500.61,-525.41 510.99,-527.49 504.17,-519.38 500.61,-525.41"/>
</g>
<!-- Node13 -->
<g id="node13" class="node">
<title>Node13</title>
<g id="a_node13"><a xlink:href="../../d9/d58/class_touchpoint.html#abc86c4002a67fd423b649d597b2055d5" target="_top" xlink:title="Creates the graphical representation (vtkActor) for a touchpoint geometry.">
<polygon fill="white" stroke="black" points="503,-117 503,-147 647,-147 647,-117 503,-117"/>
<text text-anchor="start" x="511" y="-135" font-family="Helvetica,sans-Serif" font-size="10.00">Touchpoint::createTouchpoint</text>
<text text-anchor="middle" x="575" y="-124" font-family="Helvetica,sans-Serif" font-size="10.00">Actor</text>
</a>
</g>
</g>
<!-- Node12&#45;&gt;Node13 -->
<g id="edge12" class="edge">
<title>Node12&#45;&gt;Node13</title>
<path fill="none" stroke="midnightblue" d="M433.44,-160.41C451.48,-156.76 472.58,-152.5 492.87,-148.4"/>
<polygon fill="midnightblue" stroke="midnightblue" points="493.64,-151.81 502.75,-146.4 492.25,-144.95 493.64,-151.81"/>
</g>
<!-- Node14 -->
<g id="node14" class="node">
<title>Node14</title>
<g id="a_node14"><a xlink:href="../../d9/d58/class_touchpoint.html#aabec59cfa02cddb2dab4420b3c056df0" target="_top" xlink:title="Return color value for a given touchpoint type.">
<polygon fill="white" stroke="black" points="701,-127 701,-157 832,-157 832,-127 701,-127"/>
<text text-anchor="start" x="709" y="-145" font-family="Helvetica,sans-Serif" font-size="10.00">Touchpoint::getTouchpoint</text>
<text text-anchor="middle" x="766.5" y="-134" font-family="Helvetica,sans-Serif" font-size="10.00">ColorFromType</text>
</a>
</g>
</g>
<!-- Node13&#45;&gt;Node14 -->
<g id="edge13" class="edge">
<title>Node13&#45;&gt;Node14</title>
<path fill="none" stroke="midnightblue" d="M647.1,-135.75C661.3,-136.5 676.25,-137.29 690.58,-138.05"/>
<polygon fill="midnightblue" stroke="midnightblue" points="690.7,-141.56 700.87,-138.59 691.07,-134.57 690.7,-141.56"/>
</g>
<!-- Node17 -->
<g id="node17" class="node">
<title>Node17</title>
<g id="a_node17"><a xlink:href="../../d9/d58/class_touchpoint.html#a1b82f162b238396efeae6b9369430a87" target="_top" xlink:title="Mark voxel grid cells occupied / unoccupied by the touchpoint geometry.">
<polygon fill="white" stroke="black" points="505.5,-58 505.5,-88 644.5,-88 644.5,-58 505.5,-58"/>
<text text-anchor="start" x="513.5" y="-76" font-family="Helvetica,sans-Serif" font-size="10.00">Touchpoint::markTouchpoint</text>
<text text-anchor="middle" x="575" y="-65" font-family="Helvetica,sans-Serif" font-size="10.00">Cells</text>
</a>
</g>
</g>
<!-- Node16&#45;&gt;Node17 -->
<g id="edge16" class="edge">
<title>Node16&#45;&gt;Node17</title>
<path fill="none" stroke="midnightblue" d="M461.11,-81.41C472.31,-80.57 483.88,-79.71 495.15,-78.87"/>
<polygon fill="midnightblue" stroke="midnightblue" points="495.69,-82.34 505.4,-78.11 495.17,-75.36 495.69,-82.34"/>
</g>
<!-- Node18 -->
<g id="node18" class="node">
<title>Node18</title>
<g id="a_node18"><a xlink:href="../../d1/d7c/namespace_utils.html#ac9b063fc04e0a4e5501c8ed0af96ac47" target="_top" xlink:title="Clamp integer value between min and max.">
<polygon fill="white" stroke="black" points="726.5,-88.5 726.5,-107.5 806.5,-107.5 806.5,-88.5 726.5,-88.5"/>
<text text-anchor="middle" x="766.5" y="-95.5" font-family="Helvetica,sans-Serif" font-size="10.00">Utils::clampInt</text>
</a>
</g>
</g>
<!-- Node17&#45;&gt;Node18 -->
<g id="edge17" class="edge">
<title>Node17&#45;&gt;Node18</title>
<path fill="none" stroke="midnightblue" d="M644.68,-82.06C668.36,-85.19 694.4,-88.62 716.22,-91.5"/>
<polygon fill="midnightblue" stroke="midnightblue" points="715.88,-94.98 726.25,-92.82 716.79,-88.04 715.88,-94.98"/>
</g>
<!-- Node19 -->
<g id="node19" class="node">
<title>Node19</title>
<g id="a_node19"><a xlink:href="../../d9/d58/class_touchpoint.html#a465057d2b000f7fc374d594fb8b80ce6" target="_top" xlink:title="Return the bounds of the touchpoint in world coordinates.">
<polygon fill="white" stroke="black" points="689,-39 689,-69 844,-69 844,-39 689,-39"/>
<text text-anchor="start" x="697" y="-57" font-family="Helvetica,sans-Serif" font-size="10.00">Touchpoint::getWorldCoordinate</text>
<text text-anchor="middle" x="766.5" y="-46" font-family="Helvetica,sans-Serif" font-size="10.00">Bounds</text>
</a>
</g>
</g>
<!-- Node17&#45;&gt;Node19 -->
<g id="edge18" class="edge">
<title>Node17&#45;&gt;Node19</title>
<path fill="none" stroke="midnightblue" d="M644.68,-66.11C655.74,-65 667.31,-63.84 678.73,-62.7"/>
<polygon fill="midnightblue" stroke="midnightblue" points="679.11,-66.18 688.71,-61.7 678.41,-59.21 679.11,-66.18"/>
</g>
<!-- Node20 -->
<g id="node20" class="node">
<title>Node20</title>
<g id="a_node20"><a xlink:href="../../d1/d7c/namespace_utils.html#a606fb1eb5072ca20f56293fa71bd8578" target="_top" xlink:title="Compute 1D linearized index from 3D&#45;coodinate index.">
<polygon fill="white" stroke="black" points="738.5,-0.5 738.5,-19.5 794.5,-19.5 794.5,-0.5 738.5,-0.5"/>
<text text-anchor="middle" x="766.5" y="-7.5" font-family="Helvetica,sans-Serif" font-size="10.00">Utils::idx</text>
</a>
</g>
</g>
<!-- Node17&#45;&gt;Node20 -->
<g id="edge19" class="edge">
<title>Node17&#45;&gt;Node20</title>
<path fill="none" stroke="midnightblue" d="M611.21,-57.95C633.3,-48.84 662.51,-37.41 689,-29 701.76,-24.95 715.94,-21.22 728.6,-18.16"/>
<polygon fill="midnightblue" stroke="midnightblue" points="729.43,-21.56 738.36,-15.85 727.82,-14.74 729.43,-21.56"/>
</g>
<!-- Node21&#45;&gt;Node8 -->
<g id="edge24" class="edge">
<title>Node21&#45;&gt;Node8</title>
<path fill="none" stroke="midnightblue" d="M448.88,-355.13C453.36,-357.89 457.48,-361.15 461,-365 508.11,-416.58 447.87,-468.34 497,-518 498.42,-519.43 499.92,-520.76 501.5,-522"/>
<polygon fill="midnightblue" stroke="midnightblue" points="499.65,-524.97 509.96,-527.42 503.43,-519.07 499.65,-524.97"/>
</g>
<!-- Node22 -->
<g id="node22" class="node">
<title>Node22</title>
<g id="a_node22"><a xlink:href="../../d6/db5/class_scene.html#aa52192763d5339a0e7803abe296220c9" target="_top" xlink:title="Return the cuberille visualization of the voxel grid data.">
<polygon fill="white" stroke="black" points="512.5,-489.5 512.5,-508.5 637.5,-508.5 637.5,-489.5 512.5,-489.5"/>
<text text-anchor="middle" x="575" y="-496.5" font-family="Helvetica,sans-Serif" font-size="10.00">Scene::getCuberilleActor</text>
</a>
</g>
</g>
<!-- Node21&#45;&gt;Node22 -->
<g id="edge21" class="edge">
<title>Node21&#45;&gt;Node22</title>
<path fill="none" stroke="midnightblue" d="M448.22,-355.2C452.9,-357.94 457.25,-361.18 461,-365 498.52,-403.22 457.98,-443.31 497,-480 498.93,-481.82 501.01,-483.47 503.19,-484.96"/>
<polygon fill="midnightblue" stroke="midnightblue" points="501.7,-488.14 512.12,-490.03 505.15,-482.05 501.7,-488.14"/>
</g>
<!-- Node23 -->
<g id="node23" class="node">
<title>Node23</title>
<g id="a_node23"><a xlink:href="../../d6/db5/class_scene.html#a7009d25646e9f3a07482091ed2d62e52" target="_top" xlink:title="Return the inner and outer voxels visualization of the voxel grid data.">
<polygon fill="white" stroke="black" points="497,-440 497,-470 653,-470 653,-440 497,-440"/>
<text text-anchor="start" x="505" y="-458" font-family="Helvetica,sans-Serif" font-size="10.00">Scene::getInnerAndOuterVoxels</text>
<text text-anchor="middle" x="575" y="-447" font-family="Helvetica,sans-Serif" font-size="10.00">Actor</text>
</a>
</g>
</g>
<!-- Node21&#45;&gt;Node23 -->
<g id="edge22" class="edge">
<title>Node21&#45;&gt;Node23</title>
<path fill="none" stroke="midnightblue" d="M445.58,-355.07C451.11,-357.84 456.37,-361.13 461,-365 486.63,-386.44 471.16,-409.81 497,-431 498.58,-432.3 500.24,-433.53 501.95,-434.69"/>
<polygon fill="midnightblue" stroke="midnightblue" points="500.53,-437.91 510.92,-439.97 504.07,-431.88 500.53,-437.91"/>
</g>
<!-- Node24 -->
<g id="node24" class="node">
<title>Node24</title>
<g id="a_node24"><a xlink:href="../../d6/db5/class_scene.html#a04c9e871c5edc15ca00d736a9cb6c0d0" target="_top" xlink:title="Return the interior voxels only visualization of the voxel grid data.">
<polygon fill="white" stroke="black" points="513.5,-391 513.5,-421 636.5,-421 636.5,-391 513.5,-391"/>
<text text-anchor="start" x="521.5" y="-409" font-family="Helvetica,sans-Serif" font-size="10.00">Scene::getInteriorVoxels</text>
<text text-anchor="middle" x="575" y="-398" font-family="Helvetica,sans-Serif" font-size="10.00">Actor</text>
</a>
</g>
</g>
<!-- Node21&#45;&gt;Node24 -->
<g id="edge23" class="edge">
<title>Node21&#45;&gt;Node24</title>
<path fill="none" stroke="midnightblue" d="M433.92,-355.02C442.99,-358.13 452.34,-361.53 461,-365 477.42,-371.59 480.51,-375.57 497,-382 502.06,-383.97 507.34,-385.89 512.68,-387.74"/>
<polygon fill="midnightblue" stroke="midnightblue" points="511.7,-391.1 522.3,-390.97 513.93,-384.47 511.7,-391.1"/>
</g>
<!-- Node25 -->
<g id="node25" class="node">
<title>Node25</title>
<g id="a_node25"><a xlink:href="../../db/dae/class_voxel_image_visualizer.html#a00b60f629dcc3335bff26934e88b9bcb" target="_top" xlink:title="Return the occupation map visualization (unoccupied = yellow, occupied = blue)">
<polygon fill="white" stroke="black" points="517.5,-342 517.5,-372 632.5,-372 632.5,-342 517.5,-342"/>
<text text-anchor="start" x="525.5" y="-360" font-family="Helvetica,sans-Serif" font-size="10.00">VoxelImageVisualizer</text>
<text text-anchor="middle" x="575" y="-349" font-family="Helvetica,sans-Serif" font-size="10.00">::getOccupationOutput</text>
</a>
</g>
</g>
<!-- Node21&#45;&gt;Node25 -->
<g id="edge25" class="edge">
<title>Node21&#45;&gt;Node25</title>
<path fill="none" stroke="midnightblue" d="M459.22,-346.62C475.04,-348.05 491.68,-349.56 507.23,-350.96"/>
<polygon fill="midnightblue" stroke="midnightblue" points="507,-354.46 517.28,-351.87 507.63,-347.48 507,-354.46"/>
</g>
<!-- Node28 -->
<g id="node28" class="node">
<title>Node28</title>
<g id="a_node28"><a xlink:href="../../d6/db5/class_scene.html#acc5e8dbc84b359afaa7d4ab9b9ef265a" target="_top" xlink:title="Return the working plane actor of the scene.">
<polygon fill="white" stroke="black" points="508,-303.5 508,-322.5 642,-322.5 642,-303.5 508,-303.5"/>
<text text-anchor="middle" x="575" y="-310.5" font-family="Helvetica,sans-Serif" font-size="10.00">Scene::getWorkPlaneActor</text>
</a>
</g>
</g>
<!-- Node21&#45;&gt;Node28 -->
<g id="edge28" class="edge">
<title>Node21&#45;&gt;Node28</title>
<path fill="none" stroke="midnightblue" d="M459.22,-329.48C471.83,-327.67 484.97,-325.79 497.66,-323.96"/>
<polygon fill="midnightblue" stroke="midnightblue" points="498.32,-327.41 507.72,-322.52 497.32,-320.48 498.32,-327.41"/>
</g>
<!-- Node29 -->
<g id="node29" class="node">
<title>Node29</title>
<g id="a_node29"><a xlink:href="../../db/dae/class_voxel_image_visualizer.html#a15634f5a62fd0d71806741d1db033243" target="_top" xlink:title="Set input data of the visualizer.">
<polygon fill="white" stroke="black" points="520,-254 520,-284 630,-284 630,-254 520,-254"/>
<text text-anchor="start" x="528" y="-272" font-family="Helvetica,sans-Serif" font-size="10.00">VoxelImageVisualizer</text>
<text text-anchor="middle" x="575" y="-261" font-family="Helvetica,sans-Serif" font-size="10.00">::setInputData</text>
</a>
</g>
</g>
<!-- Node21&#45;&gt;Node29 -->
<g id="edge29" class="edge">
<title>Node21&#45;&gt;Node29</title>
<path fill="none" stroke="midnightblue" d="M436.18,-324.88C444.58,-321.89 453.12,-318.56 461,-315 477.88,-307.36 480.09,-301.57 497,-294 502.05,-291.74 507.37,-289.58 512.75,-287.55"/>
<polygon fill="midnightblue" stroke="midnightblue" points="514.26,-290.73 522.47,-284.03 511.88,-284.14 514.26,-290.73"/>
</g>
<!-- Node30 -->
<g id="node30" class="node">
<title>Node30</title>
<g id="a_node30"><a xlink:href="../../d6/db5/class_scene.html#a36de0362da7ee73ded780390f80caaaa" target="_top" xlink:title="Set the look at vector of the camera.">
<polygon fill="white" stroke="black" points="527.5,-215.5 527.5,-234.5 622.5,-234.5 622.5,-215.5 527.5,-215.5"/>
<text text-anchor="middle" x="575" y="-222.5" font-family="Helvetica,sans-Serif" font-size="10.00">Scene::setLookAt</text>
</a>
</g>
</g>
<!-- Node21&#45;&gt;Node30 -->
<g id="edge30" class="edge">
<title>Node21&#45;&gt;Node30</title>
<path fill="none" stroke="midnightblue" d="M446.06,-324.86C451.43,-322.1 456.52,-318.84 461,-315 487.56,-292.23 469.69,-266.86 497,-245 503.14,-240.08 510.36,-236.37 517.88,-233.56"/>
<polygon fill="midnightblue" stroke="midnightblue" points="519.05,-236.86 527.49,-230.46 516.9,-230.19 519.05,-236.86"/>
</g>
<!-- Node31 -->
<g id="node31" class="node">
<title>Node31</title>
<g id="a_node31"><a xlink:href="../../db/dae/class_voxel_image_visualizer.html#a65eec474a368555a6ba16c1f54e956db" target="_top" xlink:title="Set output size of the visualization.">
<polygon fill="white" stroke="black" points="520,-166 520,-196 630,-196 630,-166 520,-166"/>
<text text-anchor="start" x="528" y="-184" font-family="Helvetica,sans-Serif" font-size="10.00">VoxelImageVisualizer</text>
<text text-anchor="middle" x="575" y="-173" font-family="Helvetica,sans-Serif" font-size="10.00">::setOutputSize</text>
</a>
</g>
</g>
<!-- Node21&#45;&gt;Node31 -->
<g id="edge31" class="edge">
<title>Node21&#45;&gt;Node31</title>
<path fill="none" stroke="midnightblue" d="M447.8,-324.94C452.63,-322.17 457.12,-318.89 461,-315 497.03,-278.87 460.83,-241.98 497,-206 500.99,-202.03 505.61,-198.7 510.56,-195.89"/>
<polygon fill="midnightblue" stroke="midnightblue" points="512.34,-198.92 519.79,-191.39 509.27,-192.63 512.34,-198.92"/>
</g>
<!-- Node26 -->
<g id="node26" class="node">
<title>Node26</title>
<g id="a_node26"><a xlink:href="../../db/dae/class_voxel_image_visualizer.html#a381e70e9dba0cad1fddf946aa7f4a408" target="_top" xlink:title="Compute scaling factor for visualization actor.">
<polygon fill="white" stroke="black" points="711.5,-364 711.5,-394 821.5,-394 821.5,-364 711.5,-364"/>
<text text-anchor="start" x="719.5" y="-382" font-family="Helvetica,sans-Serif" font-size="10.00">VoxelImageVisualizer</text>
<text text-anchor="middle" x="766.5" y="-371" font-family="Helvetica,sans-Serif" font-size="10.00">::getScaleValue</text>
</a>
</g>
</g>
<!-- Node25&#45;&gt;Node26 -->
<g id="edge26" class="edge">
<title>Node25&#45;&gt;Node26</title>
<path fill="none" stroke="midnightblue" d="M632.6,-363.57C654.26,-366.09 679.11,-368.97 701.42,-371.56"/>
<polygon fill="midnightblue" stroke="midnightblue" points="701.13,-375.05 711.47,-372.73 701.94,-368.1 701.13,-375.05"/>
</g>
<!-- Node27 -->
<g id="node27" class="node">
<title>Node27</title>
<g id="a_node27"><a xlink:href="../../db/dae/class_voxel_image_visualizer.html#a2cf2e268d83ea28ea097a557b4e66fcd" target="_top" xlink:title="Compute 1D linearized index from 3D&#45;coodinate index.">
<polygon fill="white" stroke="black" points="702,-325.5 702,-344.5 831,-344.5 831,-325.5 702,-325.5"/>
<text text-anchor="middle" x="766.5" y="-332.5" font-family="Helvetica,sans-Serif" font-size="10.00">VoxelImageVisualizer::idx</text>
</a>
</g>
</g>
<!-- Node25&#45;&gt;Node27 -->
<g id="edge27" class="edge">
<title>Node25&#45;&gt;Node27</title>
<path fill="none" stroke="midnightblue" d="M632.6,-350.43C651.17,-348.27 672.1,-345.84 691.75,-343.56"/>
<polygon fill="midnightblue" stroke="midnightblue" points="692.36,-347.01 701.89,-342.38 691.56,-340.06 692.36,-347.01"/>
</g>
</g>
</svg>
