<?xml version="1.0" encoding="UTF-8" standalone="no"?>
<!DOCTYPE svg PUBLIC "-//W3C//DTD SVG 1.1//EN"
 "http://www.w3.org/Graphics/SVG/1.1/DTD/svg11.dtd">
<!-- Generated by graphviz version 2.44.1 (0)
 -->
<!-- Title: PSInterfaceTool::PSInterfaceTool Pages: 1 -->
<svg width="553pt" height="78pt"
 viewBox="0.00 0.00 553.00 77.50" xmlns="http://www.w3.org/2000/svg" xmlns:xlink="http://www.w3.org/1999/xlink">
<g id="graph0" class="graph" transform="scale(1 1) rotate(0) translate(4 73.5)">
<title>PSInterfaceTool::PSInterfaceTool</title>
<polygon fill="white" stroke="transparent" points="-4,4 -4,-73.5 549,-73.5 549,4 -4,4"/>
<!-- Node1 -->
<g id="node1" class="node">
<title>Node1</title>
<g id="a_node1"><a xlink:title="Construct a PSInterface object.">
<polygon fill="#bfbfbf" stroke="black" points="0,-28 0,-47 162,-47 162,-28 0,-28"/>
<text text-anchor="middle" x="81" y="-35" font-family="Helvetica,sans-Serif" font-size="10.00">PSInterfaceTool::PSInterfaceTool</text>
</a>
</g>
</g>
<!-- Node2 -->
<g id="node2" class="node">
<title>Node2</title>
<g id="a_node2"><a xlink:href="../../d7/d0d/class_meshloader.html#a15574d976cca4b56627695dee5871568" target="_top" xlink:title="Return mesh.">
<polygon fill="white" stroke="black" points="217.5,-50 217.5,-69 333.5,-69 333.5,-50 217.5,-50"/>
<text text-anchor="middle" x="275.5" y="-57" font-family="Helvetica,sans-Serif" font-size="10.00">Meshloader::getOutput</text>
</a>
</g>
</g>
<!-- Node1&#45;&gt;Node2 -->
<g id="edge1" class="edge">
<title>Node1&#45;&gt;Node2</title>
<path fill="none" stroke="midnightblue" d="M162.24,-46.67C177.1,-48.37 192.49,-50.13 206.92,-51.78"/>
<polygon fill="midnightblue" stroke="midnightblue" points="206.91,-55.3 217.25,-52.96 207.71,-48.34 206.91,-55.3"/>
</g>
<!-- Node3 -->
<g id="node3" class="node">
<title>Node3</title>
<g id="a_node3"><a xlink:href="../../d7/d0d/class_meshloader.html#a80a624e102d120e7a1bde32bd1f98004" target="_top" xlink:title="Load a mesh given its filename from a Qt resource.">
<polygon fill="white" stroke="black" points="198,-0.5 198,-30.5 353,-30.5 353,-0.5 198,-0.5"/>
<text text-anchor="start" x="206" y="-18.5" font-family="Helvetica,sans-Serif" font-size="10.00">Meshloader::loadSTLMeshFrom</text>
<text text-anchor="middle" x="275.5" y="-7.5" font-family="Helvetica,sans-Serif" font-size="10.00">QtResource</text>
</a>
</g>
</g>
<!-- Node1&#45;&gt;Node3 -->
<g id="edge2" class="edge">
<title>Node1&#45;&gt;Node3</title>
<path fill="none" stroke="midnightblue" d="M162.24,-28.33C170.7,-27.36 179.32,-26.38 187.84,-25.4"/>
<polygon fill="midnightblue" stroke="midnightblue" points="188.24,-28.88 197.78,-24.27 187.45,-21.93 188.24,-28.88"/>
</g>
<!-- Node4 -->
<g id="node4" class="node">
<title>Node4</title>
<g id="a_node4"><a xlink:href="../../d7/d0d/class_meshloader.html#a4f336822f507e4952518c1a194e99744" target="_top" xlink:title="Creates a scene object from the polydata.">
<polygon fill="white" stroke="black" points="389,-6 389,-25 545,-25 545,-6 389,-6"/>
<text text-anchor="middle" x="467" y="-13" font-family="Helvetica,sans-Serif" font-size="10.00">Meshloader::createSceneObject</text>
</a>
</g>
</g>
<!-- Node3&#45;&gt;Node4 -->
<g id="edge3" class="edge">
<title>Node3&#45;&gt;Node4</title>
<path fill="none" stroke="midnightblue" d="M353.03,-15.5C361.52,-15.5 370.21,-15.5 378.82,-15.5"/>
<polygon fill="midnightblue" stroke="midnightblue" points="378.88,-19 388.88,-15.5 378.88,-12 378.88,-19"/>
</g>
</g>
</svg>
