<?xml version="1.0" encoding="UTF-8" standalone="no"?>
<!DOCTYPE svg PUBLIC "-//W3C//DTD SVG 1.1//EN"
 "http://www.w3.org/Graphics/SVG/1.1/DTD/svg11.dtd">
<!-- Generated by graphviz version 2.44.1 (0)
 -->
<!-- Title: list.cpp Pages: 1 -->
<svg width="332pt" height="151pt"
 viewBox="0.00 0.00 332.50 151.00" xmlns="http://www.w3.org/2000/svg" xmlns:xlink="http://www.w3.org/1999/xlink">
<g id="graph0" class="graph" transform="scale(1 1) rotate(0) translate(4 147)">
<title>list.cpp</title>
<polygon fill="white" stroke="transparent" points="-4,4 -4,-147 328.5,-147 328.5,4 -4,4"/>
<!-- Node1 -->
<g id="node1" class="node">
<title>Node1</title>
<g id="a_node1"><a xlink:title=" ">
<polygon fill="#bfbfbf" stroke="black" points="63,-123.5 63,-142.5 111,-142.5 111,-123.5 63,-123.5"/>
<text text-anchor="middle" x="87" y="-130.5" font-family="Helvetica,sans-Serif" font-size="10.00">list.cpp</text>
</a>
</g>
</g>
<!-- Node2 -->
<g id="node2" class="node">
<title>Node2</title>
<g id="a_node2"><a xlink:title=" ">
<polygon fill="white" stroke="#bfbfbf" points="38,-0.5 38,-19.5 84,-19.5 84,-0.5 38,-0.5"/>
<text text-anchor="middle" x="61" y="-7.5" font-family="Helvetica,sans-Serif" font-size="10.00">stdio.h</text>
</a>
</g>
</g>
<!-- Node1&#45;&gt;Node2 -->
<g id="edge1" class="edge">
<title>Node1&#45;&gt;Node2</title>
<path fill="none" stroke="midnightblue" d="M62.85,-126.03C43.42,-119.81 17.4,-107.96 5,-87 -2.02,-75.14 -0.96,-68.42 5,-56 11.25,-42.95 23.33,-32.49 34.68,-24.95"/>
<polygon fill="midnightblue" stroke="midnightblue" points="36.81,-27.75 43.5,-19.54 33.14,-21.79 36.81,-27.75"/>
</g>
<!-- Node3 -->
<g id="node3" class="node">
<title>Node3</title>
<g id="a_node3"><a xlink:title=" ">
<polygon fill="white" stroke="#bfbfbf" points="14,-62 14,-81 62,-81 62,-62 14,-62"/>
<text text-anchor="middle" x="38" y="-69" font-family="Helvetica,sans-Serif" font-size="10.00">stdlib.h</text>
</a>
</g>
</g>
<!-- Node1&#45;&gt;Node3 -->
<g id="edge2" class="edge">
<title>Node1&#45;&gt;Node3</title>
<path fill="none" stroke="midnightblue" d="M79.98,-123.48C72.55,-114.46 60.66,-100.02 51.43,-88.81"/>
<polygon fill="midnightblue" stroke="midnightblue" points="54.06,-86.5 45.01,-81.01 48.66,-90.95 54.06,-86.5"/>
</g>
<!-- Node4 -->
<g id="node4" class="node">
<title>Node4</title>
<g id="a_node4"><a xlink:href="../../da/d23/list_8h.html" target="_top" xlink:title=" ">
<polygon fill="white" stroke="black" points="80.5,-56.5 80.5,-86.5 193.5,-86.5 193.5,-56.5 80.5,-56.5"/>
<text text-anchor="start" x="88.5" y="-74.5" font-family="Helvetica,sans-Serif" font-size="10.00">helpers/include/Kernel</text>
<text text-anchor="middle" x="137" y="-63.5" font-family="Helvetica,sans-Serif" font-size="10.00">/list.h</text>
</a>
</g>
</g>
<!-- Node1&#45;&gt;Node4 -->
<g id="edge3" class="edge">
<title>Node1&#45;&gt;Node4</title>
<path fill="none" stroke="midnightblue" d="M94.16,-123.48C100.55,-115.87 110.19,-104.4 118.71,-94.26"/>
<polygon fill="midnightblue" stroke="midnightblue" points="121.46,-96.43 125.21,-86.52 116.1,-91.93 121.46,-96.43"/>
</g>
<!-- Node5 -->
<g id="node5" class="node">
<title>Node5</title>
<g id="a_node5"><a xlink:href="../../d4/d9c/jqsort_8h.html" target="_top" xlink:title="Declaration of a generic QuickSort function.">
<polygon fill="white" stroke="black" points="211.5,-56.5 211.5,-86.5 324.5,-86.5 324.5,-56.5 211.5,-56.5"/>
<text text-anchor="start" x="219.5" y="-74.5" font-family="Helvetica,sans-Serif" font-size="10.00">helpers/include/Kernel</text>
<text text-anchor="middle" x="268" y="-63.5" font-family="Helvetica,sans-Serif" font-size="10.00">/jqsort.h</text>
</a>
</g>
</g>
<!-- Node1&#45;&gt;Node5 -->
<g id="edge5" class="edge">
<title>Node1&#45;&gt;Node5</title>
<path fill="none" stroke="midnightblue" d="M111.03,-124.1C137.47,-115.41 180.76,-101.18 215.19,-89.86"/>
<polygon fill="midnightblue" stroke="midnightblue" points="216.69,-93.05 225.1,-86.6 214.5,-86.4 216.69,-93.05"/>
</g>
<!-- Node4&#45;&gt;Node2 -->
<g id="edge4" class="edge">
<title>Node4&#45;&gt;Node2</title>
<path fill="none" stroke="midnightblue" d="M118.99,-56.4C107.26,-47.22 91.98,-35.26 80.05,-25.92"/>
<polygon fill="midnightblue" stroke="midnightblue" points="82.09,-23.07 72.06,-19.66 77.77,-28.58 82.09,-23.07"/>
</g>
</g>
</svg>
