<?xml version="1.0" encoding="UTF-8" standalone="no"?>
<!DOCTYPE svg PUBLIC "-//W3C//DTD SVG 1.1//EN"
 "http://www.w3.org/Graphics/SVG/1.1/DTD/svg11.dtd">
<!-- Generated by graphviz version 2.44.1 (0)
 -->
<!-- Title: T_MESH::List::freeNodes Pages: 1 -->
<svg width="1362pt" height="460pt"
 viewBox="0.00 0.00 1362.00 460.00" xmlns="http://www.w3.org/2000/svg" xmlns:xlink="http://www.w3.org/1999/xlink">
<g id="graph0" class="graph" transform="scale(1 1) rotate(0) translate(4 456)">
<title>T_MESH::List::freeNodes</title>
<polygon fill="white" stroke="transparent" points="-4,4 -4,-456 1358,-456 1358,4 -4,4"/>
<!-- Node1 -->
<g id="node1" class="node">
<title>Node1</title>
<g id="a_node1"><a xlink:title="Deletes and removes all the nodes and frees data memory. &#160;&#160;O(numels()).">
<polygon fill="#bfbfbf" stroke="black" points="1224,-301 1224,-320 1354,-320 1354,-301 1224,-301"/>
<text text-anchor="middle" x="1289" y="-308" font-family="Helvetica,sans-Serif" font-size="10.00">T_MESH::List::freeNodes</text>
</a>
</g>
</g>
<!-- Node2 -->
<g id="node2" class="node">
<title>Node2</title>
<g id="a_node2"><a xlink:href="../../d6/d27/class_t___m_e_s_h_1_1_basic___t_mesh.html#a0f8e60452797662c0a255697fd9093ad" target="_top" xlink:title="Performs one step of Loop subdivision.">
<polygon fill="white" stroke="black" points="1043,-369.5 1043,-399.5 1166,-399.5 1166,-369.5 1043,-369.5"/>
<text text-anchor="start" x="1051" y="-387.5" font-family="Helvetica,sans-Serif" font-size="10.00">T_MESH::Basic_TMesh</text>
<text text-anchor="middle" x="1104.5" y="-376.5" font-family="Helvetica,sans-Serif" font-size="10.00">::loopSubdivision</text>
</a>
</g>
</g>
<!-- Node1&#45;&gt;Node2 -->
<g id="edge1" class="edge">
<title>Node1&#45;&gt;Node2</title>
<path fill="none" stroke="midnightblue" d="M1262.07,-325.09C1242.22,-335.86 1213.94,-350.34 1188,-360.5 1179.81,-363.71 1171.01,-366.72 1162.32,-369.44"/>
<polygon fill="midnightblue" stroke="midnightblue" points="1264.01,-328.02 1271.09,-320.14 1260.64,-321.88 1264.01,-328.02"/>
</g>
<!-- Node3 -->
<g id="node3" class="node">
<title>Node3</title>
<g id="a_node3"><a xlink:href="../../d6/d27/class_t___m_e_s_h_1_1_basic___t_mesh.html#a3331f7e221b5d90c8362673cc70da0e3" target="_top" xlink:title="Considers triangles as purely geometric entities and recomputes their connectivity based on vertex co...">
<polygon fill="white" stroke="black" points="1043,-320.5 1043,-350.5 1166,-350.5 1166,-320.5 1043,-320.5"/>
<text text-anchor="start" x="1051" y="-338.5" font-family="Helvetica,sans-Serif" font-size="10.00">T_MESH::Basic_TMesh</text>
<text text-anchor="middle" x="1104.5" y="-327.5" font-family="Helvetica,sans-Serif" font-size="10.00">::rebuildConnectivity</text>
</a>
</g>
</g>
<!-- Node1&#45;&gt;Node3 -->
<g id="edge2" class="edge">
<title>Node1&#45;&gt;Node3</title>
<path fill="none" stroke="midnightblue" d="M1213.64,-320.69C1197.82,-322.85 1181.3,-325.12 1166.06,-327.2"/>
<polygon fill="midnightblue" stroke="midnightblue" points="1214.48,-324.1 1223.91,-319.28 1213.53,-317.17 1214.48,-324.1"/>
</g>
<!-- Node24 -->
<g id="node24" class="node">
<title>Node24</title>
<g id="a_node24"><a xlink:href="../../de/df9/namespace_t___m_e_s_h.html#af4e55169528ea0d90f54b1dcbb6c163c" target="_top" xlink:title=" ">
<polygon fill="white" stroke="black" points="1021,-271.5 1021,-301.5 1188,-301.5 1188,-271.5 1021,-271.5"/>
<text text-anchor="start" x="1029" y="-289.5" font-family="Helvetica,sans-Serif" font-size="10.00">T_MESH::remints_selectTriangles</text>
<text text-anchor="middle" x="1104.5" y="-278.5" font-family="Helvetica,sans-Serif" font-size="10.00">InCubes</text>
</a>
</g>
</g>
<!-- Node1&#45;&gt;Node24 -->
<g id="edge31" class="edge">
<title>Node1&#45;&gt;Node24</title>
<path fill="none" stroke="midnightblue" d="M1213.99,-300.77C1205.43,-299.64 1196.67,-298.49 1188.01,-297.35"/>
<polygon fill="midnightblue" stroke="midnightblue" points="1213.54,-304.24 1223.91,-302.07 1214.46,-297.3 1213.54,-304.24"/>
</g>
<!-- Node27 -->
<g id="node27" class="node">
<title>Node27</title>
<g id="a_node27"><a xlink:href="../../d6/d27/class_t___m_e_s_h_1_1_basic___t_mesh.html#abd2198b2c51067bc21d560be9bf52d5c" target="_top" xlink:title="Destructor.">
<polygon fill="white" stroke="black" points="1043,-222.5 1043,-252.5 1166,-252.5 1166,-222.5 1043,-222.5"/>
<text text-anchor="start" x="1051" y="-240.5" font-family="Helvetica,sans-Serif" font-size="10.00">T_MESH::Basic_TMesh</text>
<text text-anchor="middle" x="1104.5" y="-229.5" font-family="Helvetica,sans-Serif" font-size="10.00">::~Basic_TMesh</text>
</a>
</g>
</g>
<!-- Node1&#45;&gt;Node27 -->
<g id="edge37" class="edge">
<title>Node1&#45;&gt;Node27</title>
<path fill="none" stroke="midnightblue" d="M1261.68,-296.04C1241.83,-285.53 1213.72,-271.46 1188,-261.5 1179.79,-258.32 1170.99,-255.34 1162.29,-252.62"/>
<polygon fill="midnightblue" stroke="midnightblue" points="1260.24,-299.25 1270.71,-300.89 1263.55,-293.08 1260.24,-299.25"/>
</g>
<!-- Node4 -->
<g id="node4" class="node">
<title>Node4</title>
<g id="a_node4"><a xlink:href="../../d6/d27/class_t___m_e_s_h_1_1_basic___t_mesh.html#ab6066b06c1bf3f54cf8f67b6aafb810e" target="_top" xlink:title="Loads STL.">
<polygon fill="white" stroke="black" points="853.5,-320.5 853.5,-350.5 976.5,-350.5 976.5,-320.5 853.5,-320.5"/>
<text text-anchor="start" x="861.5" y="-338.5" font-family="Helvetica,sans-Serif" font-size="10.00">T_MESH::Basic_TMesh</text>
<text text-anchor="middle" x="915" y="-327.5" font-family="Helvetica,sans-Serif" font-size="10.00">::loadSTL</text>
</a>
</g>
</g>
<!-- Node3&#45;&gt;Node4 -->
<g id="edge3" class="edge">
<title>Node3&#45;&gt;Node4</title>
<path fill="none" stroke="midnightblue" d="M1032.78,-335.5C1014.33,-335.5 994.61,-335.5 976.73,-335.5"/>
<polygon fill="midnightblue" stroke="midnightblue" points="1032.88,-339 1042.88,-335.5 1032.88,-332 1032.88,-339"/>
</g>
<!-- Node5 -->
<g id="node5" class="node">
<title>Node5</title>
<g id="a_node5"><a xlink:href="../../d6/d27/class_t___m_e_s_h_1_1_basic___t_mesh.html#a24ff0322eb032b4c87635c809c35c914" target="_top" xlink:title="Initialize the triangle mesh from the file &#39;filename&#39;.">
<polygon fill="white" stroke="black" points="686,-320.5 686,-350.5 809,-350.5 809,-320.5 686,-320.5"/>
<text text-anchor="start" x="694" y="-338.5" font-family="Helvetica,sans-Serif" font-size="10.00">T_MESH::Basic_TMesh</text>
<text text-anchor="middle" x="747.5" y="-327.5" font-family="Helvetica,sans-Serif" font-size="10.00">::load</text>
</a>
</g>
</g>
<!-- Node4&#45;&gt;Node5 -->
<g id="edge4" class="edge">
<title>Node4&#45;&gt;Node5</title>
<path fill="none" stroke="midnightblue" d="M843.06,-335.5C831.78,-335.5 820.2,-335.5 809.18,-335.5"/>
<polygon fill="midnightblue" stroke="midnightblue" points="843.31,-339 853.31,-335.5 843.31,-332 843.31,-339"/>
</g>
<!-- Node6 -->
<g id="node6" class="node">
<title>Node6</title>
<g id="a_node6"><a xlink:href="../../d6/d27/class_t___m_e_s_h_1_1_basic___t_mesh.html#afe360f55844b79823d045599dc1ea937" target="_top" xlink:title="Append another triangle mesh to the existing one.">
<polygon fill="white" stroke="black" points="527,-369.5 527,-399.5 650,-399.5 650,-369.5 527,-369.5"/>
<text text-anchor="start" x="535" y="-387.5" font-family="Helvetica,sans-Serif" font-size="10.00">T_MESH::Basic_TMesh</text>
<text text-anchor="middle" x="588.5" y="-376.5" font-family="Helvetica,sans-Serif" font-size="10.00">::append</text>
</a>
</g>
</g>
<!-- Node5&#45;&gt;Node6 -->
<g id="edge5" class="edge">
<title>Node5&#45;&gt;Node6</title>
<path fill="none" stroke="midnightblue" d="M688.46,-353.61C671.77,-358.82 653.76,-364.45 637.73,-369.45"/>
<polygon fill="midnightblue" stroke="midnightblue" points="689.61,-356.92 698.11,-350.6 687.53,-350.24 689.61,-356.92"/>
</g>
<!-- Node7 -->
<g id="node7" class="node">
<title>Node7</title>
<g id="a_node7"><a xlink:href="../../d2/d68/class_export_open_scad_tool.html#a6e48e9b58a764bc8032b1fbc4082603d" target="_top" xlink:title=" ">
<polygon fill="white" stroke="black" points="534,-320.5 534,-350.5 643,-350.5 643,-320.5 534,-320.5"/>
<text text-anchor="start" x="542" y="-338.5" font-family="Helvetica,sans-Serif" font-size="10.00">ExportOpenScadTool</text>
<text text-anchor="middle" x="588.5" y="-327.5" font-family="Helvetica,sans-Serif" font-size="10.00">::fixMesh</text>
</a>
</g>
</g>
<!-- Node5&#45;&gt;Node7 -->
<g id="edge6" class="edge">
<title>Node5&#45;&gt;Node7</title>
<path fill="none" stroke="midnightblue" d="M675.47,-335.5C664.6,-335.5 653.54,-335.5 643.13,-335.5"/>
<polygon fill="midnightblue" stroke="midnightblue" points="675.8,-339 685.8,-335.5 675.8,-332 675.8,-339"/>
</g>
<!-- Node12 -->
<g id="node12" class="node">
<title>Node12</title>
<g id="a_node12"><a xlink:href="../../dd/d00/class_export_s_t_l_tool.html#a82d1e11c365c1ed2adf6d831b7f6014f" target="_top" xlink:title=" ">
<polygon fill="white" stroke="black" points="528,-282 528,-301 649,-301 649,-282 528,-282"/>
<text text-anchor="middle" x="588.5" y="-289" font-family="Helvetica,sans-Serif" font-size="10.00">ExportSTLTool::fixMesh</text>
</a>
</g>
</g>
<!-- Node5&#45;&gt;Node12 -->
<g id="edge13" class="edge">
<title>Node5&#45;&gt;Node12</title>
<path fill="none" stroke="midnightblue" d="M683.08,-317.73C662.77,-312.03 641.07,-305.95 623.68,-301.08"/>
<polygon fill="midnightblue" stroke="midnightblue" points="682.34,-321.15 692.91,-320.48 684.22,-314.41 682.34,-321.15"/>
</g>
<!-- Node14 -->
<g id="node14" class="node">
<title>Node14</title>
<g id="a_node14"><a xlink:href="../../d9/dc6/class_main_window.html#a15f9fa9fe71b50669ecf5f5a3a1ce90e" target="_top" xlink:title="Import STL / OBJ mesh into the scene.">
<polygon fill="white" stroke="black" points="528,-192 528,-211 649,-211 649,-192 528,-192"/>
<text text-anchor="middle" x="588.5" y="-199" font-family="Helvetica,sans-Serif" font-size="10.00">MainWindow::loadMesh</text>
</a>
</g>
</g>
<!-- Node5&#45;&gt;Node14 -->
<g id="edge15" class="edge">
<title>Node5&#45;&gt;Node14</title>
<path fill="none" stroke="midnightblue" d="M694.33,-315.81C691.44,-314.15 688.64,-312.38 686,-310.5 675.35,-302.91 618.83,-236.33 597.58,-211.12"/>
<polygon fill="midnightblue" stroke="midnightblue" points="692.75,-318.93 703.23,-320.48 696,-312.73 692.75,-318.93"/>
</g>
<!-- Node8 -->
<g id="node8" class="node">
<title>Node8</title>
<g id="a_node8"><a xlink:href="../../d2/d68/class_export_open_scad_tool.html#a2e36901501e307b74705aa84f4227d67" target="_top" xlink:title="Export the wiring in the openscad format.">
<polygon fill="white" stroke="black" points="362,-372.5 362,-402.5 471,-402.5 471,-372.5 362,-372.5"/>
<text text-anchor="start" x="370" y="-390.5" font-family="Helvetica,sans-Serif" font-size="10.00">ExportOpenScadTool</text>
<text text-anchor="middle" x="416.5" y="-379.5" font-family="Helvetica,sans-Serif" font-size="10.00">::writeWiring</text>
</a>
</g>
</g>
<!-- Node7&#45;&gt;Node8 -->
<g id="edge7" class="edge">
<title>Node7&#45;&gt;Node8</title>
<path fill="none" stroke="midnightblue" d="M528.59,-353.52C508.35,-359.71 485.93,-366.57 466.56,-372.49"/>
<polygon fill="midnightblue" stroke="midnightblue" points="529.79,-356.81 538.33,-350.54 527.74,-350.12 529.79,-356.81"/>
</g>
<!-- Node9 -->
<g id="node9" class="node">
<title>Node9</title>
<g id="a_node9"><a xlink:href="../../d2/d68/class_export_open_scad_tool.html#a71ef67a238fb9cd74563b65d77c1ea73" target="_top" xlink:title=" ">
<polygon fill="white" stroke="black" points="13,-372.5 13,-402.5 122,-402.5 122,-372.5 13,-372.5"/>
<text text-anchor="start" x="21" y="-390.5" font-family="Helvetica,sans-Serif" font-size="10.00">ExportOpenScadTool</text>
<text text-anchor="middle" x="67.5" y="-379.5" font-family="Helvetica,sans-Serif" font-size="10.00">::execute</text>
</a>
</g>
</g>
<!-- Node8&#45;&gt;Node9 -->
<g id="edge8" class="edge">
<title>Node8&#45;&gt;Node9</title>
<path fill="none" stroke="midnightblue" d="M351.72,-371.1C336.82,-367.94 320.93,-365.12 306,-363.5 246.35,-357.04 230.6,-356.62 171,-363.5 154.93,-365.36 137.72,-368.8 122.08,-372.51"/>
<polygon fill="midnightblue" stroke="midnightblue" points="351.34,-374.6 361.86,-373.32 352.84,-367.76 351.34,-374.6"/>
</g>
<!-- Node10 -->
<g id="node10" class="node">
<title>Node10</title>
<g id="a_node10"><a xlink:href="../../d2/d68/class_export_open_scad_tool.html#a9c35cf64ece9ee328df6ebfd080c0689" target="_top" xlink:title="Export the meshdifference between mesh and wiring in the openscad format.">
<polygon fill="white" stroke="black" points="184,-421.5 184,-451.5 293,-451.5 293,-421.5 184,-421.5"/>
<text text-anchor="start" x="192" y="-439.5" font-family="Helvetica,sans-Serif" font-size="10.00">ExportOpenScadTool</text>
<text text-anchor="middle" x="238.5" y="-428.5" font-family="Helvetica,sans-Serif" font-size="10.00">::writeDifference</text>
</a>
</g>
</g>
<!-- Node8&#45;&gt;Node10 -->
<g id="edge9" class="edge">
<title>Node8&#45;&gt;Node10</title>
<path fill="none" stroke="midnightblue" d="M351.86,-405.22C332.64,-410.57 311.74,-416.39 293.24,-421.54"/>
<polygon fill="midnightblue" stroke="midnightblue" points="353.04,-408.52 361.74,-402.47 351.17,-401.78 353.04,-408.52"/>
</g>
<!-- Node11 -->
<g id="node11" class="node">
<title>Node11</title>
<g id="a_node11"><a xlink:href="../../d2/d68/class_export_open_scad_tool.html#adc9cf506ecd2ef6e33f37f2eb206da1a" target="_top" xlink:title="Export the meshdifference between mesh and magnets in the openscad format.">
<polygon fill="white" stroke="black" points="176,-372.5 176,-402.5 301,-402.5 301,-372.5 176,-372.5"/>
<text text-anchor="start" x="184" y="-390.5" font-family="Helvetica,sans-Serif" font-size="10.00">ExportOpenScadTool</text>
<text text-anchor="middle" x="238.5" y="-379.5" font-family="Helvetica,sans-Serif" font-size="10.00">::writeDifferenceMagnets</text>
</a>
</g>
</g>
<!-- Node8&#45;&gt;Node11 -->
<g id="edge11" class="edge">
<title>Node8&#45;&gt;Node11</title>
<path fill="none" stroke="midnightblue" d="M351.68,-387.5C335.24,-387.5 317.59,-387.5 301.25,-387.5"/>
<polygon fill="midnightblue" stroke="midnightblue" points="351.74,-391 361.74,-387.5 351.74,-384 351.74,-391"/>
</g>
<!-- Node10&#45;&gt;Node9 -->
<g id="edge10" class="edge">
<title>Node10&#45;&gt;Node9</title>
<path fill="none" stroke="midnightblue" d="M175.78,-418.61C157.61,-413.34 137.91,-407.62 120.41,-402.55"/>
<polygon fill="midnightblue" stroke="midnightblue" points="174.84,-421.98 185.42,-421.4 176.79,-415.25 174.84,-421.98"/>
</g>
<!-- Node11&#45;&gt;Node9 -->
<g id="edge12" class="edge">
<title>Node11&#45;&gt;Node9</title>
<path fill="none" stroke="midnightblue" d="M165.13,-387.5C150.69,-387.5 135.77,-387.5 122.11,-387.5"/>
<polygon fill="midnightblue" stroke="midnightblue" points="165.53,-391 175.53,-387.5 165.53,-384 165.53,-391"/>
</g>
<!-- Node13 -->
<g id="node13" class="node">
<title>Node13</title>
<g id="a_node13"><a xlink:href="../../dd/d00/class_export_s_t_l_tool.html#a218420198ac8fef5b9f9a8acc889307d" target="_top" xlink:title=" ">
<polygon fill="white" stroke="black" points="356,-334 356,-353 477,-353 477,-334 356,-334"/>
<text text-anchor="middle" x="416.5" y="-341" font-family="Helvetica,sans-Serif" font-size="10.00">ExportSTLTool::execute</text>
</a>
</g>
</g>
<!-- Node12&#45;&gt;Node13 -->
<g id="edge14" class="edge">
<title>Node12&#45;&gt;Node13</title>
<path fill="none" stroke="midnightblue" d="M548.89,-304.25C541.61,-306.65 534.07,-309.15 527,-311.5 510.99,-316.81 507.14,-318.62 491,-323.5 479.1,-327.1 466.03,-330.75 454.25,-333.93"/>
<polygon fill="midnightblue" stroke="midnightblue" points="550.17,-307.51 558.57,-301.05 547.97,-300.86 550.17,-307.51"/>
</g>
<!-- Node15 -->
<g id="node15" class="node">
<title>Node15</title>
<g id="a_node15"><a xlink:href="../../d9/dc6/class_main_window.html#a6e3c9bc26115fb1b1664607e58716641" target="_top" xlink:title=" ">
<polygon fill="white" stroke="black" points="343.5,-148 343.5,-167 489.5,-167 489.5,-148 343.5,-148"/>
<text text-anchor="middle" x="416.5" y="-155" font-family="Helvetica,sans-Serif" font-size="10.00">MainWindow::slotImportMesh</text>
</a>
</g>
</g>
<!-- Node14&#45;&gt;Node15 -->
<g id="edge16" class="edge">
<title>Node14&#45;&gt;Node15</title>
<path fill="none" stroke="midnightblue" d="M540.77,-189.39C524.97,-185.29 507.22,-180.7 491,-176.5 479.13,-173.43 466.19,-170.08 454.52,-167.06"/>
<polygon fill="midnightblue" stroke="midnightblue" points="540.28,-192.88 550.84,-192 542.04,-186.1 540.28,-192.88"/>
</g>
<!-- Node18 -->
<g id="node18" class="node">
<title>Node18</title>
<g id="a_node18"><a xlink:href="../../d9/dc6/class_main_window.html#a46bb2fea8ddeab75e15a223c291116b6" target="_top" xlink:title=" ">
<polygon fill="white" stroke="black" points="342,-98.5 342,-128.5 491,-128.5 491,-98.5 342,-98.5"/>
<text text-anchor="start" x="350" y="-116.5" font-family="Helvetica,sans-Serif" font-size="10.00">MainWindow::slotOptimization</text>
<text text-anchor="middle" x="416.5" y="-105.5" font-family="Helvetica,sans-Serif" font-size="10.00">BenchmarkBunnyLowPoly</text>
</a>
</g>
</g>
<!-- Node14&#45;&gt;Node18 -->
<g id="edge19" class="edge">
<title>Node14&#45;&gt;Node18</title>
<path fill="none" stroke="midnightblue" d="M566.82,-185.8C547.87,-171.96 518.64,-151.96 491,-138.5 483.49,-134.84 475.3,-131.49 467.21,-128.51"/>
<polygon fill="midnightblue" stroke="midnightblue" points="564.88,-188.72 575,-191.86 569.05,-183.1 564.88,-188.72"/>
</g>
<!-- Node19 -->
<g id="node19" class="node">
<title>Node19</title>
<g id="a_node19"><a xlink:href="../../d9/dc6/class_main_window.html#affed0fab82fd390e2762933c6dca9124" target="_top" xlink:title=" ">
<polygon fill="white" stroke="black" points="342,-49.5 342,-79.5 491,-79.5 491,-49.5 342,-49.5"/>
<text text-anchor="start" x="350" y="-67.5" font-family="Helvetica,sans-Serif" font-size="10.00">MainWindow::slotOptimization</text>
<text text-anchor="middle" x="416.5" y="-56.5" font-family="Helvetica,sans-Serif" font-size="10.00">BenchmarkCorona</text>
</a>
</g>
</g>
<!-- Node14&#45;&gt;Node19 -->
<g id="edge21" class="edge">
<title>Node14&#45;&gt;Node19</title>
<path fill="none" stroke="midnightblue" d="M576.54,-183.26C560.67,-158.37 529.02,-113.95 491,-88.5 485.87,-85.07 480.21,-82.09 474.37,-79.52"/>
<polygon fill="midnightblue" stroke="midnightblue" points="573.57,-185.12 581.82,-191.76 579.52,-181.42 573.57,-185.12"/>
</g>
<!-- Node20 -->
<g id="node20" class="node">
<title>Node20</title>
<g id="a_node20"><a xlink:href="../../d9/dc6/class_main_window.html#adfdb8fcb8685844e8ce11bfb41b83b7d" target="_top" xlink:title=" ">
<polygon fill="white" stroke="black" points="342,-0.5 342,-30.5 491,-30.5 491,-0.5 342,-0.5"/>
<text text-anchor="start" x="350" y="-18.5" font-family="Helvetica,sans-Serif" font-size="10.00">MainWindow::slotOptimization</text>
<text text-anchor="middle" x="416.5" y="-7.5" font-family="Helvetica,sans-Serif" font-size="10.00">BenchmarkCthulhu</text>
</a>
</g>
</g>
<!-- Node14&#45;&gt;Node20 -->
<g id="edge23" class="edge">
<title>Node14&#45;&gt;Node20</title>
<path fill="none" stroke="midnightblue" d="M581.15,-182.22C569.04,-148.39 539.45,-78.24 491,-39.5 486.7,-36.06 481.9,-33.11 476.85,-30.58"/>
<polygon fill="midnightblue" stroke="midnightblue" points="577.9,-183.53 584.47,-191.85 584.52,-181.25 577.9,-183.53"/>
</g>
<!-- Node21 -->
<g id="node21" class="node">
<title>Node21</title>
<g id="a_node21"><a xlink:href="../../d9/dc6/class_main_window.html#a5283a0d7aeeafd409c69b272053f3986" target="_top" xlink:title=" ">
<polygon fill="white" stroke="black" points="342,-284.5 342,-314.5 491,-314.5 491,-284.5 342,-284.5"/>
<text text-anchor="start" x="350" y="-302.5" font-family="Helvetica,sans-Serif" font-size="10.00">MainWindow::slotOptimization</text>
<text text-anchor="middle" x="416.5" y="-291.5" font-family="Helvetica,sans-Serif" font-size="10.00">BenchmarkCube</text>
</a>
</g>
</g>
<!-- Node14&#45;&gt;Node21 -->
<g id="edge25" class="edge">
<title>Node14&#45;&gt;Node21</title>
<path fill="none" stroke="midnightblue" d="M569.64,-217.82C551.13,-234.04 520.77,-258.71 491,-274.5 483.98,-278.23 476.28,-281.56 468.61,-284.49"/>
<polygon fill="midnightblue" stroke="midnightblue" points="572.13,-220.29 577.27,-211.03 567.48,-215.06 572.13,-220.29"/>
</g>
<!-- Node22 -->
<g id="node22" class="node">
<title>Node22</title>
<g id="a_node22"><a xlink:href="../../d9/dc6/class_main_window.html#a0c92ca2d04a79a1580c2e8e136b82682" target="_top" xlink:title=" ">
<polygon fill="white" stroke="black" points="342,-235.5 342,-265.5 491,-265.5 491,-235.5 342,-235.5"/>
<text text-anchor="start" x="350" y="-253.5" font-family="Helvetica,sans-Serif" font-size="10.00">MainWindow::slotOptimization</text>
<text text-anchor="middle" x="416.5" y="-242.5" font-family="Helvetica,sans-Serif" font-size="10.00">BenchmarkSphere</text>
</a>
</g>
</g>
<!-- Node14&#45;&gt;Node22 -->
<g id="edge27" class="edge">
<title>Node14&#45;&gt;Node22</title>
<path fill="none" stroke="midnightblue" d="M544.6,-213.87C521.84,-220.43 493.69,-228.54 469.67,-235.46"/>
<polygon fill="midnightblue" stroke="midnightblue" points="545.68,-217.2 554.32,-211.06 543.74,-210.47 545.68,-217.2"/>
</g>
<!-- Node23 -->
<g id="node23" class="node">
<title>Node23</title>
<g id="a_node23"><a xlink:href="../../d9/dc6/class_main_window.html#a86cd359f80311725589d0861dd7a9851" target="_top" xlink:title=" ">
<polygon fill="white" stroke="black" points="342,-186.5 342,-216.5 491,-216.5 491,-186.5 342,-186.5"/>
<text text-anchor="start" x="350" y="-204.5" font-family="Helvetica,sans-Serif" font-size="10.00">MainWindow::slotOptimization</text>
<text text-anchor="middle" x="416.5" y="-193.5" font-family="Helvetica,sans-Serif" font-size="10.00">BenchmarkUChannel</text>
</a>
</g>
</g>
<!-- Node14&#45;&gt;Node23 -->
<g id="edge29" class="edge">
<title>Node14&#45;&gt;Node23</title>
<path fill="none" stroke="midnightblue" d="M517.5,-201.5C508.82,-201.5 499.93,-201.5 491.2,-201.5"/>
<polygon fill="midnightblue" stroke="midnightblue" points="517.56,-205 527.56,-201.5 517.56,-198 517.56,-205"/>
</g>
<!-- Node16 -->
<g id="node16" class="node">
<title>Node16</title>
<g id="a_node16"><a xlink:href="../../d9/dc6/class_main_window.html#a33dddfc15db4053f9117728538e7ece4" target="_top" xlink:title="Set up qt specific signal and slots part for enabling user interaction.">
<polygon fill="white" stroke="black" points="171,-142.5 171,-172.5 306,-172.5 306,-142.5 171,-142.5"/>
<text text-anchor="start" x="179" y="-160.5" font-family="Helvetica,sans-Serif" font-size="10.00">MainWindow::setupSignals</text>
<text text-anchor="middle" x="238.5" y="-149.5" font-family="Helvetica,sans-Serif" font-size="10.00">AndSlots</text>
</a>
</g>
</g>
<!-- Node15&#45;&gt;Node16 -->
<g id="edge17" class="edge">
<title>Node15&#45;&gt;Node16</title>
<path fill="none" stroke="midnightblue" d="M333.21,-157.5C324.12,-157.5 314.96,-157.5 306.1,-157.5"/>
<polygon fill="midnightblue" stroke="midnightblue" points="333.41,-161 343.41,-157.5 333.41,-154 333.41,-161"/>
</g>
<!-- Node17 -->
<g id="node17" class="node">
<title>Node17</title>
<g id="a_node17"><a xlink:href="../../d9/dc6/class_main_window.html#a996c5a2b6f77944776856f08ec30858d" target="_top" xlink:title=" ">
<polygon fill="white" stroke="black" points="0,-148 0,-167 135,-167 135,-148 0,-148"/>
<text text-anchor="middle" x="67.5" y="-155" font-family="Helvetica,sans-Serif" font-size="10.00">MainWindow::MainWindow</text>
</a>
</g>
</g>
<!-- Node16&#45;&gt;Node17 -->
<g id="edge18" class="edge">
<title>Node16&#45;&gt;Node17</title>
<path fill="none" stroke="midnightblue" d="M160.45,-157.5C151.98,-157.5 143.41,-157.5 135.08,-157.5"/>
<polygon fill="midnightblue" stroke="midnightblue" points="160.71,-161 170.71,-157.5 160.71,-154 160.71,-161"/>
</g>
<!-- Node18&#45;&gt;Node16 -->
<g id="edge20" class="edge">
<title>Node18&#45;&gt;Node16</title>
<path fill="none" stroke="midnightblue" d="M345.56,-130.99C330.35,-134.79 314.39,-138.78 299.6,-142.47"/>
<polygon fill="midnightblue" stroke="midnightblue" points="346.57,-134.34 355.42,-128.52 344.87,-127.55 346.57,-134.34"/>
</g>
<!-- Node19&#45;&gt;Node16 -->
<g id="edge22" class="edge">
<title>Node19&#45;&gt;Node16</title>
<path fill="none" stroke="midnightblue" d="M353.83,-83.22C349.78,-84.88 345.8,-86.65 342,-88.5 310.96,-103.65 278.42,-127.03 258.55,-142.3"/>
<polygon fill="midnightblue" stroke="midnightblue" points="355.32,-86.4 363.38,-79.52 352.79,-79.87 355.32,-86.4"/>
</g>
<!-- Node20&#45;&gt;Node16 -->
<g id="edge24" class="edge">
<title>Node20&#45;&gt;Node16</title>
<path fill="none" stroke="midnightblue" d="M349.55,-34.99C346.94,-36.4 344.41,-37.9 342,-39.5 299.94,-67.4 264.89,-117.05 248.87,-142.11"/>
<polygon fill="midnightblue" stroke="midnightblue" points="351.19,-38.08 358.65,-30.56 348.13,-31.79 351.19,-38.08"/>
</g>
<!-- Node21&#45;&gt;Node16 -->
<g id="edge26" class="edge">
<title>Node21&#45;&gt;Node16</title>
<path fill="none" stroke="midnightblue" d="M351.28,-280C348.06,-278.3 344.95,-276.47 342,-274.5 300.25,-246.57 265.06,-197.46 248.94,-172.69"/>
<polygon fill="midnightblue" stroke="midnightblue" points="350.05,-283.29 360.58,-284.43 353.06,-276.97 350.05,-283.29"/>
</g>
<!-- Node22&#45;&gt;Node16 -->
<g id="edge28" class="edge">
<title>Node22&#45;&gt;Node16</title>
<path fill="none" stroke="midnightblue" d="M355.68,-231.62C350.99,-229.7 346.38,-227.65 342,-225.5 311.34,-210.43 278.96,-187.63 258.99,-172.66"/>
<polygon fill="midnightblue" stroke="midnightblue" points="354.79,-235.03 365.37,-235.39 357.33,-228.5 354.79,-235.03"/>
</g>
<!-- Node23&#45;&gt;Node16 -->
<g id="edge30" class="edge">
<title>Node23&#45;&gt;Node16</title>
<path fill="none" stroke="midnightblue" d="M345.56,-184.01C330.35,-180.21 314.39,-176.22 299.6,-172.53"/>
<polygon fill="midnightblue" stroke="midnightblue" points="344.87,-187.45 355.42,-186.48 346.57,-180.66 344.87,-187.45"/>
</g>
<!-- Node25 -->
<g id="node25" class="node">
<title>Node25</title>
<g id="a_node25"><a xlink:href="../../d6/d27/class_t___m_e_s_h_1_1_basic___t_mesh.html#a1415feaeb04556d7729a02f73b546ab1" target="_top" xlink:title="Removes all the intersecting triangles and patches the resulting holes.">
<polygon fill="white" stroke="black" points="845,-271.5 845,-301.5 985,-301.5 985,-271.5 845,-271.5"/>
<text text-anchor="start" x="853" y="-289.5" font-family="Helvetica,sans-Serif" font-size="10.00">T_MESH::Basic_TMesh</text>
<text text-anchor="middle" x="915" y="-278.5" font-family="Helvetica,sans-Serif" font-size="10.00">::strongIntersectionRemoval</text>
</a>
</g>
</g>
<!-- Node24&#45;&gt;Node25 -->
<g id="edge32" class="edge">
<title>Node24&#45;&gt;Node25</title>
<path fill="none" stroke="midnightblue" d="M1010.83,-286.5C1002.16,-286.5 993.48,-286.5 985.08,-286.5"/>
<polygon fill="midnightblue" stroke="midnightblue" points="1010.99,-290 1020.99,-286.5 1010.99,-283 1010.99,-290"/>
</g>
<!-- Node26 -->
<g id="node26" class="node">
<title>Node26</title>
<g id="a_node26"><a xlink:href="../../d6/d27/class_t___m_e_s_h_1_1_basic___t_mesh.html#a1270b60eec84c1f939d405d9ade1a94e" target="_top" xlink:title="Iteratively call strongDegeneracyRemoval and strongIntersectionRemoval to produce an eventually clean...">
<polygon fill="white" stroke="black" points="686,-271.5 686,-301.5 809,-301.5 809,-271.5 686,-271.5"/>
<text text-anchor="start" x="694" y="-289.5" font-family="Helvetica,sans-Serif" font-size="10.00">T_MESH::Basic_TMesh</text>
<text text-anchor="middle" x="747.5" y="-278.5" font-family="Helvetica,sans-Serif" font-size="10.00">::meshclean</text>
</a>
</g>
</g>
<!-- Node25&#45;&gt;Node26 -->
<g id="edge33" class="edge">
<title>Node25&#45;&gt;Node26</title>
<path fill="none" stroke="midnightblue" d="M834.69,-286.5C826.06,-286.5 817.38,-286.5 809.03,-286.5"/>
<polygon fill="midnightblue" stroke="midnightblue" points="834.77,-290 844.77,-286.5 834.77,-283 834.77,-290"/>
</g>
<!-- Node26&#45;&gt;Node7 -->
<g id="edge34" class="edge">
<title>Node26&#45;&gt;Node7</title>
<path fill="none" stroke="midnightblue" d="M688.46,-304.61C671.77,-309.82 653.76,-315.45 637.73,-320.45"/>
<polygon fill="midnightblue" stroke="midnightblue" points="689.61,-307.92 698.11,-301.6 687.53,-301.24 689.61,-307.92"/>
</g>
<!-- Node26&#45;&gt;Node12 -->
<g id="edge35" class="edge">
<title>Node26&#45;&gt;Node12</title>
<path fill="none" stroke="midnightblue" d="M675.78,-288.75C666.84,-289.04 657.75,-289.33 649.01,-289.6"/>
<polygon fill="midnightblue" stroke="midnightblue" points="675.92,-292.25 685.8,-288.43 675.69,-285.25 675.92,-292.25"/>
</g>
<!-- Node26&#45;&gt;Node14 -->
<g id="edge36" class="edge">
<title>Node26&#45;&gt;Node14</title>
<path fill="none" stroke="midnightblue" d="M709.66,-266.55C677.39,-249.08 631.91,-224.46 607.18,-211.07"/>
<polygon fill="midnightblue" stroke="midnightblue" points="708.33,-269.82 718.79,-271.5 711.67,-263.66 708.33,-269.82"/>
</g>
</g>
</svg>
