<?xml version="1.0" encoding="UTF-8" standalone="no"?>
<!DOCTYPE svg PUBLIC "-//W3C//DTD SVG 1.1//EN"
 "http://www.w3.org/Graphics/SVG/1.1/DTD/svg11.dtd">
<!-- Generated by graphviz version 2.44.1 (0)
 -->
<!-- Title: T_MESH::List::sort Pages: 1 -->
<svg width="461pt" height="142pt"
 viewBox="0.00 0.00 461.00 142.00" xmlns="http://www.w3.org/2000/svg" xmlns:xlink="http://www.w3.org/1999/xlink">
<g id="graph0" class="graph" transform="scale(1 1) rotate(0) translate(4 138)">
<title>T_MESH::List::sort</title>
<polygon fill="white" stroke="transparent" points="-4,4 -4,-138 457,-138 457,4 -4,4"/>
<!-- Node1 -->
<g id="node1" class="node">
<title>Node1</title>
<g id="a_node1"><a xlink:title="Sorts the list using &#39;comp&#39; as comparison function for two elements. &#160;&#160;O(numels()^2).">
<polygon fill="#bfbfbf" stroke="black" points="0,-57.5 0,-76.5 101,-76.5 101,-57.5 0,-57.5"/>
<text text-anchor="middle" x="50.5" y="-64.5" font-family="Helvetica,sans-Serif" font-size="10.00">T_MESH::List::sort</text>
</a>
</g>
</g>
<!-- Node2 -->
<g id="node2" class="node">
<title>Node2</title>
<g id="a_node2"><a xlink:href="../../d3/d04/class_t___m_e_s_h_1_1_list.html#ae601a7e17364ce83f74ffcb6c64971ca" target="_top" xlink:title="Appends a new node storing &#39;d&#39; to the head. &#160;&#160;O(1).">
<polygon fill="white" stroke="black" points="140,-114.5 140,-133.5 280,-133.5 280,-114.5 140,-114.5"/>
<text text-anchor="middle" x="210" y="-121.5" font-family="Helvetica,sans-Serif" font-size="10.00">T_MESH::List::appendHead</text>
</a>
</g>
</g>
<!-- Node1&#45;&gt;Node2 -->
<g id="edge1" class="edge">
<title>Node1&#45;&gt;Node2</title>
<path fill="none" stroke="midnightblue" d="M70.5,-76.5C87.59,-84.79 113.55,-96.76 137,-105 143.88,-107.42 151.21,-109.69 158.48,-111.77"/>
<polygon fill="midnightblue" stroke="midnightblue" points="157.72,-115.19 168.29,-114.47 159.58,-108.44 157.72,-115.19"/>
</g>
<!-- Node3 -->
<g id="node3" class="node">
<title>Node3</title>
<g id="a_node3"><a xlink:href="../../de/df9/namespace_t___m_e_s_h.html#a5715fed89554fb33e87bb209df729ffe" target="_top" xlink:title=" ">
<polygon fill="white" stroke="black" points="166.5,-76.5 166.5,-95.5 253.5,-95.5 253.5,-76.5 166.5,-76.5"/>
<text text-anchor="middle" x="210" y="-83.5" font-family="Helvetica,sans-Serif" font-size="10.00">T_MESH::jqsort</text>
</a>
</g>
</g>
<!-- Node1&#45;&gt;Node3 -->
<g id="edge2" class="edge">
<title>Node1&#45;&gt;Node3</title>
<path fill="none" stroke="midnightblue" d="M101.33,-73.01C118.81,-75.12 138.5,-77.49 156.21,-79.63"/>
<polygon fill="midnightblue" stroke="midnightblue" points="156.03,-83.14 166.38,-80.86 156.87,-76.19 156.03,-83.14"/>
</g>
<!-- Node4 -->
<g id="node4" class="node">
<title>Node4</title>
<g id="a_node4"><a xlink:href="../../d3/d04/class_t___m_e_s_h_1_1_list.html#a1e032966857d82dbc5716b94bc4d3d3c" target="_top" xlink:title="Deletes and removes all the nodes. &#160;&#160;O(numels()).">
<polygon fill="white" stroke="black" points="137,-38.5 137,-57.5 283,-57.5 283,-38.5 137,-38.5"/>
<text text-anchor="middle" x="210" y="-45.5" font-family="Helvetica,sans-Serif" font-size="10.00">T_MESH::List::removeNodes</text>
</a>
</g>
</g>
<!-- Node1&#45;&gt;Node4 -->
<g id="edge3" class="edge">
<title>Node1&#45;&gt;Node4</title>
<path fill="none" stroke="midnightblue" d="M101.33,-60.99C109.43,-60.01 118,-58.98 126.63,-57.94"/>
<polygon fill="midnightblue" stroke="midnightblue" points="127.25,-61.39 136.76,-56.71 126.41,-54.44 127.25,-61.39"/>
</g>
<!-- Node6 -->
<g id="node6" class="node">
<title>Node6</title>
<g id="a_node6"><a xlink:href="../../d3/d04/class_t___m_e_s_h_1_1_list.html#a28c649d203d3884852862eee78b1be07" target="_top" xlink:title="Creates an array out of the list. &#160;&#160;O(numels()).">
<polygon fill="white" stroke="black" points="152,-0.5 152,-19.5 268,-19.5 268,-0.5 152,-0.5"/>
<text text-anchor="middle" x="210" y="-7.5" font-family="Helvetica,sans-Serif" font-size="10.00">T_MESH::List::toArray</text>
</a>
</g>
</g>
<!-- Node1&#45;&gt;Node6 -->
<g id="edge5" class="edge">
<title>Node1&#45;&gt;Node6</title>
<path fill="none" stroke="midnightblue" d="M70.5,-57.5C87.59,-49.21 113.55,-37.24 137,-29 143.88,-26.58 151.21,-24.31 158.48,-22.23"/>
<polygon fill="midnightblue" stroke="midnightblue" points="159.58,-25.56 168.29,-19.53 157.72,-18.81 159.58,-25.56"/>
</g>
<!-- Node5 -->
<g id="node5" class="node">
<title>Node5</title>
<g id="a_node5"><a xlink:href="../../d3/d04/class_t___m_e_s_h_1_1_list.html#aec091d7c66b66c92fe56f06f41f448f4" target="_top" xlink:title="Deletes and removes the node &#39;n&#39; from the list. &#160;&#160;O(1).">
<polygon fill="white" stroke="black" points="319,-38.5 319,-57.5 453,-57.5 453,-38.5 319,-38.5"/>
<text text-anchor="middle" x="386" y="-45.5" font-family="Helvetica,sans-Serif" font-size="10.00">T_MESH::List::removeCell</text>
</a>
</g>
</g>
<!-- Node4&#45;&gt;Node5 -->
<g id="edge4" class="edge">
<title>Node4&#45;&gt;Node5</title>
<path fill="none" stroke="midnightblue" d="M283.03,-48C291.47,-48 300.11,-48 308.6,-48"/>
<polygon fill="midnightblue" stroke="midnightblue" points="308.88,-51.5 318.88,-48 308.88,-44.5 308.88,-51.5"/>
</g>
</g>
</svg>
