<?xml version="1.0" encoding="UTF-8" standalone="no"?>
<!DOCTYPE svg PUBLIC "-//W3C//DTD SVG 1.1//EN"
 "http://www.w3.org/Graphics/SVG/1.1/DTD/svg11.dtd">
<!-- Generated by graphviz version 2.44.1 (0)
 -->
<!-- Title: T_MESH::List::removeNodes Pages: 1 -->
<svg width="2018pt" height="574pt"
 viewBox="0.00 0.00 2018.00 574.20" xmlns="http://www.w3.org/2000/svg" xmlns:xlink="http://www.w3.org/1999/xlink">
<g id="graph0" class="graph" transform="scale(1 1) rotate(0) translate(4 570.2)">
<title>T_MESH::List::removeNodes</title>
<polygon fill="white" stroke="transparent" points="-4,4 -4,-570.2 2014,-570.2 2014,4 -4,4"/>
<!-- Node1 -->
<g id="node1" class="node">
<title>Node1</title>
<g id="a_node1"><a xlink:title="Deletes and removes all the nodes. &#160;&#160;O(numels()).">
<polygon fill="#bfbfbf" stroke="black" points="1864,-370.14 1864,-389.14 2010,-389.14 2010,-370.14 1864,-370.14"/>
<text text-anchor="middle" x="1937" y="-377.14" font-family="Helvetica,sans-Serif" font-size="10.00">T_MESH::List::removeNodes</text>
</a>
</g>
</g>
<!-- Node2 -->
<g id="node2" class="node">
<title>Node2</title>
<g id="a_node2"><a xlink:href="../../d6/d27/class_t___m_e_s_h_1_1_basic___t_mesh.html#afdd849c83a1e4923c54d904826746bda" target="_top" xlink:title="Removes all connected components but the one having most triangles.">
<polygon fill="white" stroke="black" points="1022,-454.64 1022,-484.64 1171,-484.64 1171,-454.64 1022,-454.64"/>
<text text-anchor="start" x="1030" y="-472.64" font-family="Helvetica,sans-Serif" font-size="10.00">T_MESH::Basic_TMesh</text>
<text text-anchor="middle" x="1096.5" y="-461.64" font-family="Helvetica,sans-Serif" font-size="10.00">::removeSmallestComponents</text>
</a>
</g>
</g>
<!-- Node1&#45;&gt;Node2 -->
<g id="edge1" class="edge">
<title>Node1&#45;&gt;Node2</title>
<path fill="none" stroke="midnightblue" d="M1904.91,-393.15C1848.43,-416.43 1724.68,-461.64 1615.5,-461.64 1615.5,-461.64 1615.5,-461.64 1433,-461.64 1342.84,-461.64 1239.09,-464.57 1171.12,-466.88"/>
<polygon fill="midnightblue" stroke="midnightblue" points="1906.47,-396.29 1914.34,-389.21 1903.77,-389.84 1906.47,-396.29"/>
</g>
<!-- Node23 -->
<g id="node23" class="node">
<title>Node23</title>
<g id="a_node23"><a xlink:href="../../d3/d04/class_t___m_e_s_h_1_1_list.html#a7c5746b86fdc294c58847a77c188391c" target="_top" xlink:title="Sorts the list using &#39;comp&#39; as comparison function for two elements. &#160;&#160;O(numels()^2).">
<polygon fill="white" stroke="black" points="1727,-305.14 1727,-324.14 1828,-324.14 1828,-305.14 1727,-305.14"/>
<text text-anchor="middle" x="1777.5" y="-312.14" font-family="Helvetica,sans-Serif" font-size="10.00">T_MESH::List::sort</text>
</a>
</g>
</g>
<!-- Node1&#45;&gt;Node23 -->
<g id="edge34" class="edge">
<title>Node1&#45;&gt;Node23</title>
<path fill="none" stroke="midnightblue" d="M1903.43,-366.2C1873.04,-353.66 1828.46,-335.26 1801.58,-324.17"/>
<polygon fill="midnightblue" stroke="midnightblue" points="1902.18,-369.47 1912.76,-370.05 1904.85,-363 1902.18,-369.47"/>
</g>
<!-- Node3 -->
<g id="node3" class="node">
<title>Node3</title>
<g id="a_node3"><a xlink:href="../../d2/d68/class_export_open_scad_tool.html#a6e48e9b58a764bc8032b1fbc4082603d" target="_top" xlink:title=" ">
<polygon fill="white" stroke="black" points="534,-462.64 534,-492.64 643,-492.64 643,-462.64 534,-462.64"/>
<text text-anchor="start" x="542" y="-480.64" font-family="Helvetica,sans-Serif" font-size="10.00">ExportOpenScadTool</text>
<text text-anchor="middle" x="588.5" y="-469.64" font-family="Helvetica,sans-Serif" font-size="10.00">::fixMesh</text>
</a>
</g>
</g>
<!-- Node2&#45;&gt;Node3 -->
<g id="edge2" class="edge">
<title>Node2&#45;&gt;Node3</title>
<path fill="none" stroke="midnightblue" d="M1074.54,-492.02C1054.15,-512.03 1021.17,-539.93 986,-551.64 852.79,-595.99 685.02,-525.48 618.54,-492.82"/>
<polygon fill="midnightblue" stroke="midnightblue" points="1077.16,-494.35 1081.72,-484.79 1072.19,-489.42 1077.16,-494.35"/>
</g>
<!-- Node8 -->
<g id="node8" class="node">
<title>Node8</title>
<g id="a_node8"><a xlink:href="../../dd/d00/class_export_s_t_l_tool.html#a82d1e11c365c1ed2adf6d831b7f6014f" target="_top" xlink:title=" ">
<polygon fill="white" stroke="black" points="528,-424.14 528,-443.14 649,-443.14 649,-424.14 528,-424.14"/>
<text text-anchor="middle" x="588.5" y="-431.14" font-family="Helvetica,sans-Serif" font-size="10.00">ExportSTLTool::fixMesh</text>
</a>
</g>
</g>
<!-- Node2&#45;&gt;Node8 -->
<g id="edge9" class="edge">
<title>Node2&#45;&gt;Node8</title>
<path fill="none" stroke="midnightblue" d="M1011.61,-455.69C1002.98,-454.53 994.32,-453.48 986,-452.64 866.87,-440.57 726.8,-436.14 649.1,-434.53"/>
<polygon fill="midnightblue" stroke="midnightblue" points="1011.33,-459.18 1021.72,-457.09 1012.29,-452.25 1011.33,-459.18"/>
</g>
<!-- Node10 -->
<g id="node10" class="node">
<title>Node10</title>
<g id="a_node10"><a xlink:href="../../d9/dc6/class_main_window.html#a15f9fa9fe71b50669ecf5f5a3a1ce90e" target="_top" xlink:title="Import STL / OBJ mesh into the scene.">
<polygon fill="white" stroke="black" points="528,-276.14 528,-295.14 649,-295.14 649,-276.14 528,-276.14"/>
<text text-anchor="middle" x="588.5" y="-283.14" font-family="Helvetica,sans-Serif" font-size="10.00">MainWindow::loadMesh</text>
</a>
</g>
</g>
<!-- Node2&#45;&gt;Node10 -->
<g id="edge11" class="edge">
<title>Node2&#45;&gt;Node10</title>
<path fill="none" stroke="midnightblue" d="M1044.54,-451.11C938.27,-412.47 696.18,-324.44 615.91,-295.25"/>
<polygon fill="midnightblue" stroke="midnightblue" points="1043.5,-454.46 1054.09,-454.58 1045.89,-447.88 1043.5,-454.46"/>
</g>
<!-- Node20 -->
<g id="node20" class="node">
<title>Node20</title>
<g id="a_node20"><a xlink:href="../../d6/d27/class_t___m_e_s_h_1_1_basic___t_mesh.html#af160de0b4a939ef2cb93279f67e6dd34" target="_top" xlink:title="Calls &#39;removeDegenerateTriangles()&#39; and, if some degeneracies remain, removes them and fills the resu...">
<polygon fill="white" stroke="black" points="845,-462.64 845,-492.64 986,-492.64 986,-462.64 845,-462.64"/>
<text text-anchor="start" x="853" y="-480.64" font-family="Helvetica,sans-Serif" font-size="10.00">T_MESH::Basic_TMesh</text>
<text text-anchor="middle" x="915.5" y="-469.64" font-family="Helvetica,sans-Serif" font-size="10.00">::strongDegeneracyRemoval</text>
</a>
</g>
</g>
<!-- Node2&#45;&gt;Node20 -->
<g id="edge27" class="edge">
<title>Node2&#45;&gt;Node20</title>
<path fill="none" stroke="midnightblue" d="M1011.84,-473.38C1003.21,-473.77 994.5,-474.16 986.05,-474.53"/>
<polygon fill="midnightblue" stroke="midnightblue" points="1012.09,-476.87 1021.92,-472.93 1011.77,-469.88 1012.09,-476.87"/>
</g>
<!-- Node22 -->
<g id="node22" class="node">
<title>Node22</title>
<g id="a_node22"><a xlink:href="../../d6/d27/class_t___m_e_s_h_1_1_basic___t_mesh.html#a1415feaeb04556d7729a02f73b546ab1" target="_top" xlink:title="Removes all the intersecting triangles and patches the resulting holes.">
<polygon fill="white" stroke="black" points="845.5,-511.64 845.5,-541.64 985.5,-541.64 985.5,-511.64 845.5,-511.64"/>
<text text-anchor="start" x="853.5" y="-529.64" font-family="Helvetica,sans-Serif" font-size="10.00">T_MESH::Basic_TMesh</text>
<text text-anchor="middle" x="915.5" y="-518.64" font-family="Helvetica,sans-Serif" font-size="10.00">::strongIntersectionRemoval</text>
</a>
</g>
</g>
<!-- Node2&#45;&gt;Node22 -->
<g id="edge32" class="edge">
<title>Node2&#45;&gt;Node22</title>
<path fill="none" stroke="midnightblue" d="M1038.31,-487.85C1014.32,-495.49 986.75,-504.27 963.91,-511.54"/>
<polygon fill="midnightblue" stroke="midnightblue" points="1039.53,-491.14 1048,-484.77 1037.41,-484.47 1039.53,-491.14"/>
</g>
<!-- Node4 -->
<g id="node4" class="node">
<title>Node4</title>
<g id="a_node4"><a xlink:href="../../d2/d68/class_export_open_scad_tool.html#a2e36901501e307b74705aa84f4227d67" target="_top" xlink:title="Export the wiring in the openscad format.">
<polygon fill="white" stroke="black" points="362,-462.64 362,-492.64 471,-492.64 471,-462.64 362,-462.64"/>
<text text-anchor="start" x="370" y="-480.64" font-family="Helvetica,sans-Serif" font-size="10.00">ExportOpenScadTool</text>
<text text-anchor="middle" x="416.5" y="-469.64" font-family="Helvetica,sans-Serif" font-size="10.00">::writeWiring</text>
</a>
</g>
</g>
<!-- Node3&#45;&gt;Node4 -->
<g id="edge3" class="edge">
<title>Node3&#45;&gt;Node4</title>
<path fill="none" stroke="midnightblue" d="M523.7,-477.64C506.42,-477.64 487.9,-477.64 471.23,-477.64"/>
<polygon fill="midnightblue" stroke="midnightblue" points="523.71,-481.14 533.71,-477.64 523.71,-474.14 523.71,-481.14"/>
</g>
<!-- Node5 -->
<g id="node5" class="node">
<title>Node5</title>
<g id="a_node5"><a xlink:href="../../d2/d68/class_export_open_scad_tool.html#a71ef67a238fb9cd74563b65d77c1ea73" target="_top" xlink:title=" ">
<polygon fill="white" stroke="black" points="13,-462.64 13,-492.64 122,-492.64 122,-462.64 13,-462.64"/>
<text text-anchor="start" x="21" y="-480.64" font-family="Helvetica,sans-Serif" font-size="10.00">ExportOpenScadTool</text>
<text text-anchor="middle" x="67.5" y="-469.64" font-family="Helvetica,sans-Serif" font-size="10.00">::execute</text>
</a>
</g>
</g>
<!-- Node4&#45;&gt;Node5 -->
<g id="edge4" class="edge">
<title>Node4&#45;&gt;Node5</title>
<path fill="none" stroke="midnightblue" d="M351.75,-460.56C336.85,-457.27 320.96,-454.33 306,-452.64 246.38,-445.92 230.57,-445.48 171,-452.64 154.09,-454.67 135.94,-458.53 119.68,-462.61"/>
<polygon fill="midnightblue" stroke="midnightblue" points="351.36,-464.06 361.89,-462.88 352.92,-457.23 351.36,-464.06"/>
</g>
<!-- Node6 -->
<g id="node6" class="node">
<title>Node6</title>
<g id="a_node6"><a xlink:href="../../d2/d68/class_export_open_scad_tool.html#a9c35cf64ece9ee328df6ebfd080c0689" target="_top" xlink:title="Export the meshdifference between mesh and wiring in the openscad format.">
<polygon fill="white" stroke="black" points="184,-511.64 184,-541.64 293,-541.64 293,-511.64 184,-511.64"/>
<text text-anchor="start" x="192" y="-529.64" font-family="Helvetica,sans-Serif" font-size="10.00">ExportOpenScadTool</text>
<text text-anchor="middle" x="238.5" y="-518.64" font-family="Helvetica,sans-Serif" font-size="10.00">::writeDifference</text>
</a>
</g>
</g>
<!-- Node4&#45;&gt;Node6 -->
<g id="edge5" class="edge">
<title>Node4&#45;&gt;Node6</title>
<path fill="none" stroke="midnightblue" d="M351.86,-495.36C332.64,-500.71 311.74,-506.53 293.24,-511.68"/>
<polygon fill="midnightblue" stroke="midnightblue" points="353.04,-498.66 361.74,-492.61 351.17,-491.92 353.04,-498.66"/>
</g>
<!-- Node7 -->
<g id="node7" class="node">
<title>Node7</title>
<g id="a_node7"><a xlink:href="../../d2/d68/class_export_open_scad_tool.html#adc9cf506ecd2ef6e33f37f2eb206da1a" target="_top" xlink:title="Export the meshdifference between mesh and magnets in the openscad format.">
<polygon fill="white" stroke="black" points="176,-462.64 176,-492.64 301,-492.64 301,-462.64 176,-462.64"/>
<text text-anchor="start" x="184" y="-480.64" font-family="Helvetica,sans-Serif" font-size="10.00">ExportOpenScadTool</text>
<text text-anchor="middle" x="238.5" y="-469.64" font-family="Helvetica,sans-Serif" font-size="10.00">::writeDifferenceMagnets</text>
</a>
</g>
</g>
<!-- Node4&#45;&gt;Node7 -->
<g id="edge7" class="edge">
<title>Node4&#45;&gt;Node7</title>
<path fill="none" stroke="midnightblue" d="M351.68,-477.64C335.24,-477.64 317.59,-477.64 301.25,-477.64"/>
<polygon fill="midnightblue" stroke="midnightblue" points="351.74,-481.14 361.74,-477.64 351.74,-474.14 351.74,-481.14"/>
</g>
<!-- Node6&#45;&gt;Node5 -->
<g id="edge6" class="edge">
<title>Node6&#45;&gt;Node5</title>
<path fill="none" stroke="midnightblue" d="M175.78,-508.75C157.61,-503.48 137.91,-497.77 120.41,-492.69"/>
<polygon fill="midnightblue" stroke="midnightblue" points="174.84,-512.12 185.42,-511.54 176.79,-505.39 174.84,-512.12"/>
</g>
<!-- Node7&#45;&gt;Node5 -->
<g id="edge8" class="edge">
<title>Node7&#45;&gt;Node5</title>
<path fill="none" stroke="midnightblue" d="M165.13,-477.64C150.69,-477.64 135.77,-477.64 122.11,-477.64"/>
<polygon fill="midnightblue" stroke="midnightblue" points="165.53,-481.14 175.53,-477.64 165.53,-474.14 165.53,-481.14"/>
</g>
<!-- Node9 -->
<g id="node9" class="node">
<title>Node9</title>
<g id="a_node9"><a xlink:href="../../dd/d00/class_export_s_t_l_tool.html#a218420198ac8fef5b9f9a8acc889307d" target="_top" xlink:title=" ">
<polygon fill="white" stroke="black" points="356,-424.14 356,-443.14 477,-443.14 477,-424.14 356,-424.14"/>
<text text-anchor="middle" x="416.5" y="-431.14" font-family="Helvetica,sans-Serif" font-size="10.00">ExportSTLTool::execute</text>
</a>
</g>
</g>
<!-- Node8&#45;&gt;Node9 -->
<g id="edge10" class="edge">
<title>Node8&#45;&gt;Node9</title>
<path fill="none" stroke="midnightblue" d="M517.46,-433.64C504.08,-433.64 490.2,-433.64 477.18,-433.64"/>
<polygon fill="midnightblue" stroke="midnightblue" points="517.56,-437.14 527.56,-433.64 517.56,-430.14 517.56,-437.14"/>
</g>
<!-- Node11 -->
<g id="node11" class="node">
<title>Node11</title>
<g id="a_node11"><a xlink:href="../../d9/dc6/class_main_window.html#a6e3c9bc26115fb1b1664607e58716641" target="_top" xlink:title=" ">
<polygon fill="white" stroke="black" points="343.5,-238.14 343.5,-257.14 489.5,-257.14 489.5,-238.14 343.5,-238.14"/>
<text text-anchor="middle" x="416.5" y="-245.14" font-family="Helvetica,sans-Serif" font-size="10.00">MainWindow::slotImportMesh</text>
</a>
</g>
</g>
<!-- Node10&#45;&gt;Node11 -->
<g id="edge12" class="edge">
<title>Node10&#45;&gt;Node11</title>
<path fill="none" stroke="midnightblue" d="M534.6,-273.82C510.63,-268.46 482.68,-262.21 460.09,-257.16"/>
<polygon fill="midnightblue" stroke="midnightblue" points="534.08,-277.29 544.6,-276.05 535.61,-270.46 534.08,-277.29"/>
</g>
<!-- Node14 -->
<g id="node14" class="node">
<title>Node14</title>
<g id="a_node14"><a xlink:href="../../d9/dc6/class_main_window.html#a46bb2fea8ddeab75e15a223c291116b6" target="_top" xlink:title=" ">
<polygon fill="white" stroke="black" points="342,-188.64 342,-218.64 491,-218.64 491,-188.64 342,-188.64"/>
<text text-anchor="start" x="350" y="-206.64" font-family="Helvetica,sans-Serif" font-size="10.00">MainWindow::slotOptimization</text>
<text text-anchor="middle" x="416.5" y="-195.64" font-family="Helvetica,sans-Serif" font-size="10.00">BenchmarkBunnyLowPoly</text>
</a>
</g>
</g>
<!-- Node10&#45;&gt;Node14 -->
<g id="edge15" class="edge">
<title>Node10&#45;&gt;Node14</title>
<path fill="none" stroke="midnightblue" d="M556.44,-271.6C546.81,-266.88 536.28,-261.36 527,-255.64 509.97,-245.16 508.69,-237.98 491,-228.64 483.97,-224.93 476.27,-221.6 468.59,-218.68"/>
<polygon fill="midnightblue" stroke="midnightblue" points="555.17,-274.87 565.71,-276.02 558.19,-268.55 555.17,-274.87"/>
</g>
<!-- Node15 -->
<g id="node15" class="node">
<title>Node15</title>
<g id="a_node15"><a xlink:href="../../d9/dc6/class_main_window.html#affed0fab82fd390e2762933c6dca9124" target="_top" xlink:title=" ">
<polygon fill="white" stroke="black" points="342,-139.64 342,-169.64 491,-169.64 491,-139.64 342,-139.64"/>
<text text-anchor="start" x="350" y="-157.64" font-family="Helvetica,sans-Serif" font-size="10.00">MainWindow::slotOptimization</text>
<text text-anchor="middle" x="416.5" y="-146.64" font-family="Helvetica,sans-Serif" font-size="10.00">BenchmarkCorona</text>
</a>
</g>
</g>
<!-- Node10&#45;&gt;Node15 -->
<g id="edge17" class="edge">
<title>Node10&#45;&gt;Node15</title>
<path fill="none" stroke="midnightblue" d="M549.62,-271.74C541.45,-267.49 533.37,-262.16 527,-255.64 500.6,-228.62 519.29,-203.68 491,-178.64 487.08,-175.17 482.65,-172.2 477.95,-169.66"/>
<polygon fill="midnightblue" stroke="midnightblue" points="548.25,-274.97 558.78,-276.1 551.25,-268.65 548.25,-274.97"/>
</g>
<!-- Node16 -->
<g id="node16" class="node">
<title>Node16</title>
<g id="a_node16"><a xlink:href="../../d9/dc6/class_main_window.html#adfdb8fcb8685844e8ce11bfb41b83b7d" target="_top" xlink:title=" ">
<polygon fill="white" stroke="black" points="342,-90.64 342,-120.64 491,-120.64 491,-90.64 342,-90.64"/>
<text text-anchor="start" x="350" y="-108.64" font-family="Helvetica,sans-Serif" font-size="10.00">MainWindow::slotOptimization</text>
<text text-anchor="middle" x="416.5" y="-97.64" font-family="Helvetica,sans-Serif" font-size="10.00">BenchmarkCthulhu</text>
</a>
</g>
</g>
<!-- Node10&#45;&gt;Node16 -->
<g id="edge19" class="edge">
<title>Node10&#45;&gt;Node16</title>
<path fill="none" stroke="midnightblue" d="M547.45,-271.7C539.81,-267.53 532.5,-262.25 527,-255.64 489.73,-210.89 531.41,-171.59 491,-129.64 487.74,-126.26 484,-123.35 479.97,-120.85"/>
<polygon fill="midnightblue" stroke="midnightblue" points="545.95,-274.87 556.47,-276.11 549.02,-268.58 545.95,-274.87"/>
</g>
<!-- Node17 -->
<g id="node17" class="node">
<title>Node17</title>
<g id="a_node17"><a xlink:href="../../d9/dc6/class_main_window.html#a5283a0d7aeeafd409c69b272053f3986" target="_top" xlink:title=" ">
<polygon fill="white" stroke="black" points="342,-374.64 342,-404.64 491,-404.64 491,-374.64 342,-374.64"/>
<text text-anchor="start" x="350" y="-392.64" font-family="Helvetica,sans-Serif" font-size="10.00">MainWindow::slotOptimization</text>
<text text-anchor="middle" x="416.5" y="-381.64" font-family="Helvetica,sans-Serif" font-size="10.00">BenchmarkCube</text>
</a>
</g>
</g>
<!-- Node10&#45;&gt;Node17 -->
<g id="edge21" class="edge">
<title>Node10&#45;&gt;Node17</title>
<path fill="none" stroke="midnightblue" d="M570.77,-302.55C552.55,-320.15 521.86,-347.5 491,-364.64 484.28,-368.37 476.91,-371.68 469.52,-374.57"/>
<polygon fill="midnightblue" stroke="midnightblue" points="573.55,-304.73 578.22,-295.22 568.64,-299.74 573.55,-304.73"/>
</g>
<!-- Node18 -->
<g id="node18" class="node">
<title>Node18</title>
<g id="a_node18"><a xlink:href="../../d9/dc6/class_main_window.html#a0c92ca2d04a79a1580c2e8e136b82682" target="_top" xlink:title=" ">
<polygon fill="white" stroke="black" points="342,-325.64 342,-355.64 491,-355.64 491,-325.64 342,-325.64"/>
<text text-anchor="start" x="350" y="-343.64" font-family="Helvetica,sans-Serif" font-size="10.00">MainWindow::slotOptimization</text>
<text text-anchor="middle" x="416.5" y="-332.64" font-family="Helvetica,sans-Serif" font-size="10.00">BenchmarkSphere</text>
</a>
</g>
</g>
<!-- Node10&#45;&gt;Node18 -->
<g id="edge23" class="edge">
<title>Node10&#45;&gt;Node18</title>
<path fill="none" stroke="midnightblue" d="M548.32,-298.32C523.22,-306.44 490.5,-317.02 464.07,-325.58"/>
<polygon fill="midnightblue" stroke="midnightblue" points="549.45,-301.63 557.89,-295.22 547.3,-294.97 549.45,-301.63"/>
</g>
<!-- Node19 -->
<g id="node19" class="node">
<title>Node19</title>
<g id="a_node19"><a xlink:href="../../d9/dc6/class_main_window.html#a86cd359f80311725589d0861dd7a9851" target="_top" xlink:title=" ">
<polygon fill="white" stroke="black" points="342,-276.64 342,-306.64 491,-306.64 491,-276.64 342,-276.64"/>
<text text-anchor="start" x="350" y="-294.64" font-family="Helvetica,sans-Serif" font-size="10.00">MainWindow::slotOptimization</text>
<text text-anchor="middle" x="416.5" y="-283.64" font-family="Helvetica,sans-Serif" font-size="10.00">BenchmarkUChannel</text>
</a>
</g>
</g>
<!-- Node10&#45;&gt;Node19 -->
<g id="edge25" class="edge">
<title>Node10&#45;&gt;Node19</title>
<path fill="none" stroke="midnightblue" d="M517.5,-288.11C508.82,-288.42 499.93,-288.73 491.2,-289.04"/>
<polygon fill="midnightblue" stroke="midnightblue" points="517.69,-291.61 527.56,-287.76 517.45,-284.61 517.69,-291.61"/>
</g>
<!-- Node12 -->
<g id="node12" class="node">
<title>Node12</title>
<g id="a_node12"><a xlink:href="../../d9/dc6/class_main_window.html#a33dddfc15db4053f9117728538e7ece4" target="_top" xlink:title="Set up qt specific signal and slots part for enabling user interaction.">
<polygon fill="white" stroke="black" points="171,-232.64 171,-262.64 306,-262.64 306,-232.64 171,-232.64"/>
<text text-anchor="start" x="179" y="-250.64" font-family="Helvetica,sans-Serif" font-size="10.00">MainWindow::setupSignals</text>
<text text-anchor="middle" x="238.5" y="-239.64" font-family="Helvetica,sans-Serif" font-size="10.00">AndSlots</text>
</a>
</g>
</g>
<!-- Node11&#45;&gt;Node12 -->
<g id="edge13" class="edge">
<title>Node11&#45;&gt;Node12</title>
<path fill="none" stroke="midnightblue" d="M333.21,-247.64C324.12,-247.64 314.96,-247.64 306.1,-247.64"/>
<polygon fill="midnightblue" stroke="midnightblue" points="333.41,-251.14 343.41,-247.64 333.41,-244.14 333.41,-251.14"/>
</g>
<!-- Node13 -->
<g id="node13" class="node">
<title>Node13</title>
<g id="a_node13"><a xlink:href="../../d9/dc6/class_main_window.html#a996c5a2b6f77944776856f08ec30858d" target="_top" xlink:title=" ">
<polygon fill="white" stroke="black" points="0,-238.14 0,-257.14 135,-257.14 135,-238.14 0,-238.14"/>
<text text-anchor="middle" x="67.5" y="-245.14" font-family="Helvetica,sans-Serif" font-size="10.00">MainWindow::MainWindow</text>
</a>
</g>
</g>
<!-- Node12&#45;&gt;Node13 -->
<g id="edge14" class="edge">
<title>Node12&#45;&gt;Node13</title>
<path fill="none" stroke="midnightblue" d="M160.45,-247.64C151.98,-247.64 143.41,-247.64 135.08,-247.64"/>
<polygon fill="midnightblue" stroke="midnightblue" points="160.71,-251.14 170.71,-247.64 160.71,-244.14 160.71,-251.14"/>
</g>
<!-- Node14&#45;&gt;Node12 -->
<g id="edge16" class="edge">
<title>Node14&#45;&gt;Node12</title>
<path fill="none" stroke="midnightblue" d="M345.56,-221.13C330.35,-224.93 314.39,-228.92 299.6,-232.62"/>
<polygon fill="midnightblue" stroke="midnightblue" points="346.57,-224.48 355.42,-218.66 344.87,-217.69 346.57,-224.48"/>
</g>
<!-- Node15&#45;&gt;Node12 -->
<g id="edge18" class="edge">
<title>Node15&#45;&gt;Node12</title>
<path fill="none" stroke="midnightblue" d="M353.83,-173.36C349.78,-175.03 345.8,-176.79 342,-178.64 310.96,-193.79 278.42,-217.18 258.55,-232.45"/>
<polygon fill="midnightblue" stroke="midnightblue" points="355.32,-176.54 363.38,-169.66 352.79,-170.01 355.32,-176.54"/>
</g>
<!-- Node16&#45;&gt;Node12 -->
<g id="edge20" class="edge">
<title>Node16&#45;&gt;Node12</title>
<path fill="none" stroke="midnightblue" d="M349.55,-125.13C346.94,-126.54 344.41,-128.04 342,-129.64 299.94,-157.54 264.89,-207.19 248.87,-232.26"/>
<polygon fill="midnightblue" stroke="midnightblue" points="351.19,-128.23 358.65,-120.71 348.13,-121.93 351.19,-128.23"/>
</g>
<!-- Node17&#45;&gt;Node12 -->
<g id="edge22" class="edge">
<title>Node17&#45;&gt;Node12</title>
<path fill="none" stroke="midnightblue" d="M351.28,-370.14C348.06,-368.44 344.95,-366.61 342,-364.64 300.25,-336.71 265.06,-287.6 248.94,-262.84"/>
<polygon fill="midnightblue" stroke="midnightblue" points="350.05,-373.43 360.58,-374.58 353.06,-367.11 350.05,-373.43"/>
</g>
<!-- Node18&#45;&gt;Node12 -->
<g id="edge24" class="edge">
<title>Node18&#45;&gt;Node12</title>
<path fill="none" stroke="midnightblue" d="M355.68,-321.76C350.99,-319.84 346.38,-317.8 342,-315.64 311.34,-300.57 278.96,-277.78 258.99,-262.8"/>
<polygon fill="midnightblue" stroke="midnightblue" points="354.79,-325.17 365.37,-325.54 357.33,-318.65 354.79,-325.17"/>
</g>
<!-- Node19&#45;&gt;Node12 -->
<g id="edge26" class="edge">
<title>Node19&#45;&gt;Node12</title>
<path fill="none" stroke="midnightblue" d="M345.56,-274.16C330.35,-270.35 314.39,-266.36 299.6,-262.67"/>
<polygon fill="midnightblue" stroke="midnightblue" points="344.87,-277.59 355.42,-276.62 346.57,-270.8 344.87,-277.59"/>
</g>
<!-- Node21 -->
<g id="node21" class="node">
<title>Node21</title>
<g id="a_node21"><a xlink:href="../../d6/d27/class_t___m_e_s_h_1_1_basic___t_mesh.html#a1270b60eec84c1f939d405d9ade1a94e" target="_top" xlink:title="Iteratively call strongDegeneracyRemoval and strongIntersectionRemoval to produce an eventually clean...">
<polygon fill="white" stroke="black" points="686,-462.64 686,-492.64 809,-492.64 809,-462.64 686,-462.64"/>
<text text-anchor="start" x="694" y="-480.64" font-family="Helvetica,sans-Serif" font-size="10.00">T_MESH::Basic_TMesh</text>
<text text-anchor="middle" x="747.5" y="-469.64" font-family="Helvetica,sans-Serif" font-size="10.00">::meshclean</text>
</a>
</g>
</g>
<!-- Node20&#45;&gt;Node21 -->
<g id="edge28" class="edge">
<title>Node20&#45;&gt;Node21</title>
<path fill="none" stroke="midnightblue" d="M834.58,-477.64C826.01,-477.64 817.41,-477.64 809.13,-477.64"/>
<polygon fill="midnightblue" stroke="midnightblue" points="834.58,-481.14 844.58,-477.64 834.58,-474.14 834.58,-481.14"/>
</g>
<!-- Node21&#45;&gt;Node3 -->
<g id="edge29" class="edge">
<title>Node21&#45;&gt;Node3</title>
<path fill="none" stroke="midnightblue" d="M675.47,-477.64C664.6,-477.64 653.54,-477.64 643.13,-477.64"/>
<polygon fill="midnightblue" stroke="midnightblue" points="675.8,-481.14 685.8,-477.64 675.8,-474.14 675.8,-481.14"/>
</g>
<!-- Node21&#45;&gt;Node8 -->
<g id="edge30" class="edge">
<title>Node21&#45;&gt;Node8</title>
<path fill="none" stroke="midnightblue" d="M683.08,-459.87C662.77,-454.18 641.07,-448.09 623.68,-443.22"/>
<polygon fill="midnightblue" stroke="midnightblue" points="682.34,-463.29 692.91,-462.62 684.22,-456.55 682.34,-463.29"/>
</g>
<!-- Node21&#45;&gt;Node10 -->
<g id="edge31" class="edge">
<title>Node21&#45;&gt;Node10</title>
<path fill="none" stroke="midnightblue" d="M725.59,-454.9C713.76,-441.84 698.81,-425.03 686,-409.64 651.44,-368.13 612.62,-316.65 596.79,-295.46"/>
<polygon fill="midnightblue" stroke="midnightblue" points="723.19,-457.46 732.51,-462.5 728.37,-452.75 723.19,-457.46"/>
</g>
<!-- Node22&#45;&gt;Node21 -->
<g id="edge33" class="edge">
<title>Node22&#45;&gt;Node21</title>
<path fill="none" stroke="midnightblue" d="M853.63,-508.67C835.85,-503.42 816.6,-497.74 799.49,-492.69"/>
<polygon fill="midnightblue" stroke="midnightblue" points="852.76,-512.07 863.34,-511.54 854.74,-505.35 852.76,-512.07"/>
</g>
<!-- Node24 -->
<g id="node24" class="node">
<title>Node24</title>
<g id="a_node24"><a xlink:href="../../d9/d69/class_t___m_e_s_h_1_1mc__grid.html#a96251f576f0df2b3a31e2ab5e12aff0b" target="_top" xlink:title=" ">
<polygon fill="white" stroke="black" points="1538,-398.14 1538,-417.14 1691,-417.14 1691,-398.14 1538,-398.14"/>
<text text-anchor="middle" x="1614.5" y="-405.14" font-family="Helvetica,sans-Serif" font-size="10.00">T_MESH::mc_grid::createCells</text>
</a>
</g>
</g>
<!-- Node23&#45;&gt;Node24 -->
<g id="edge35" class="edge">
<title>Node23&#45;&gt;Node24</title>
<path fill="none" stroke="midnightblue" d="M1761.07,-331.67C1745.09,-348.3 1718.63,-373.16 1691,-387.64 1682.83,-391.92 1673.68,-395.34 1664.64,-398.05"/>
<polygon fill="midnightblue" stroke="midnightblue" points="1763.74,-333.94 1768.03,-324.25 1758.64,-329.15 1763.74,-333.94"/>
</g>
<!-- Node26 -->
<g id="node26" class="node">
<title>Node26</title>
<g id="a_node26"><a xlink:href="../../d6/d27/class_t___m_e_s_h_1_1_basic___t_mesh.html#a23a9a07da273649588c3ba1b7ddc13c8" target="_top" xlink:title="Convert to manifold.">
<polygon fill="white" stroke="black" points="1553,-211.64 1553,-241.64 1676,-241.64 1676,-211.64 1553,-211.64"/>
<text text-anchor="start" x="1561" y="-229.64" font-family="Helvetica,sans-Serif" font-size="10.00">T_MESH::Basic_TMesh</text>
<text text-anchor="middle" x="1614.5" y="-218.64" font-family="Helvetica,sans-Serif" font-size="10.00">::cutAndStitch</text>
</a>
</g>
</g>
<!-- Node23&#45;&gt;Node26 -->
<g id="edge37" class="edge">
<title>Node23&#45;&gt;Node26</title>
<path fill="none" stroke="midnightblue" d="M1758.1,-298.39C1741.51,-284.43 1715.96,-264.56 1691,-251.64 1683.89,-247.96 1676.12,-244.67 1668.36,-241.77"/>
<polygon fill="midnightblue" stroke="midnightblue" points="1756.04,-301.23 1765.9,-305.09 1760.59,-295.92 1756.04,-301.23"/>
</g>
<!-- Node39 -->
<g id="node39" class="node">
<title>Node39</title>
<g id="a_node39"><a xlink:href="../../d6/d27/class_t___m_e_s_h_1_1_basic___t_mesh.html#a3331f7e221b5d90c8362673cc70da0e3" target="_top" xlink:title="Considers triangles as purely geometric entities and recomputes their connectivity based on vertex co...">
<polygon fill="white" stroke="black" points="1207,-162.64 1207,-192.64 1330,-192.64 1330,-162.64 1207,-162.64"/>
<text text-anchor="start" x="1215" y="-180.64" font-family="Helvetica,sans-Serif" font-size="10.00">T_MESH::Basic_TMesh</text>
<text text-anchor="middle" x="1268.5" y="-169.64" font-family="Helvetica,sans-Serif" font-size="10.00">::rebuildConnectivity</text>
</a>
</g>
</g>
<!-- Node23&#45;&gt;Node39 -->
<g id="edge64" class="edge">
<title>Node23&#45;&gt;Node39</title>
<path fill="none" stroke="midnightblue" d="M1768.54,-295.84C1756.24,-269.47 1729.9,-222.39 1691,-201.64 1575.56,-140.07 1416.18,-152.7 1330.26,-165.98"/>
<polygon fill="midnightblue" stroke="midnightblue" points="1765.42,-297.44 1772.69,-305.14 1771.81,-294.58 1765.42,-297.44"/>
</g>
<!-- Node41 -->
<g id="node41" class="node">
<title>Node41</title>
<g id="a_node41"><a xlink:href="../../d6/d27/class_t___m_e_s_h_1_1_basic___t_mesh.html#a51218abaa432f5d874edf004341610d4" target="_top" xlink:title="Looks for topologically different edges having the same geometry (i.e.">
<polygon fill="white" stroke="black" points="1552.5,-348.64 1552.5,-378.64 1676.5,-378.64 1676.5,-348.64 1552.5,-348.64"/>
<text text-anchor="start" x="1560.5" y="-366.64" font-family="Helvetica,sans-Serif" font-size="10.00">T_MESH::Basic_TMesh</text>
<text text-anchor="middle" x="1614.5" y="-355.64" font-family="Helvetica,sans-Serif" font-size="10.00">::mergeCoincidentEdges</text>
</a>
</g>
</g>
<!-- Node23&#45;&gt;Node41 -->
<g id="edge63" class="edge">
<title>Node23&#45;&gt;Node41</title>
<path fill="none" stroke="midnightblue" d="M1735.29,-327.18C1713.84,-333.71 1687.45,-341.74 1664.91,-348.6"/>
<polygon fill="midnightblue" stroke="midnightblue" points="1736.53,-330.47 1745.08,-324.21 1734.49,-323.77 1736.53,-330.47"/>
</g>
<!-- Node42 -->
<g id="node42" class="node">
<title>Node42</title>
<g id="a_node42"><a xlink:href="../../d6/d27/class_t___m_e_s_h_1_1_basic___t_mesh.html#a0d6037f1cb9166537f576f93bb38fea3" target="_top" xlink:title="Removes overlapping triangles and return their number.">
<polygon fill="white" stroke="black" points="1541.5,-299.64 1541.5,-329.64 1687.5,-329.64 1687.5,-299.64 1541.5,-299.64"/>
<text text-anchor="start" x="1549.5" y="-317.64" font-family="Helvetica,sans-Serif" font-size="10.00">T_MESH::Basic_TMesh</text>
<text text-anchor="middle" x="1614.5" y="-306.64" font-family="Helvetica,sans-Serif" font-size="10.00">::removeOverlappingTriangles</text>
</a>
</g>
</g>
<!-- Node23&#45;&gt;Node42 -->
<g id="edge65" class="edge">
<title>Node23&#45;&gt;Node42</title>
<path fill="none" stroke="midnightblue" d="M1716.8,-314.64C1707.33,-314.64 1697.46,-314.64 1687.74,-314.64"/>
<polygon fill="midnightblue" stroke="midnightblue" points="1716.88,-318.14 1726.88,-314.64 1716.88,-311.14 1716.88,-318.14"/>
</g>
<!-- Node43 -->
<g id="node43" class="node">
<title>Node43</title>
<g id="a_node43"><a xlink:href="../../d9/d69/class_t___m_e_s_h_1_1mc__grid.html#ad53cfdf02ec4e669bc047fa1778341a7" target="_top" xlink:title="&lt; AMF_CHANGE &#45; since T_MESH 2.4&#45;2 &gt;">
<polygon fill="white" stroke="black" points="1554.5,-261.14 1554.5,-280.14 1674.5,-280.14 1674.5,-261.14 1554.5,-261.14"/>
<text text-anchor="middle" x="1614.5" y="-268.14" font-family="Helvetica,sans-Serif" font-size="10.00">T_MESH::mc_grid::sort</text>
</a>
</g>
</g>
<!-- Node23&#45;&gt;Node43 -->
<g id="edge66" class="edge">
<title>Node23&#45;&gt;Node43</title>
<path fill="none" stroke="midnightblue" d="M1735.09,-302.19C1721.11,-298.08 1705.41,-293.56 1691,-289.64 1679.26,-286.45 1666.45,-283.15 1654.76,-280.22"/>
<polygon fill="midnightblue" stroke="midnightblue" points="1734.33,-305.61 1744.91,-305.09 1736.31,-298.9 1734.33,-305.61"/>
</g>
<!-- Node25 -->
<g id="node25" class="node">
<title>Node25</title>
<g id="a_node25"><a xlink:href="../../d9/d69/class_t___m_e_s_h_1_1mc__grid.html#acab069f805e6c473afb4e340d3d8d1ae" target="_top" xlink:title="&lt; AMF_CHANGE &#45; since T_MESH 2.4&#45;2 &gt;">
<polygon fill="white" stroke="black" points="1366,-330.14 1366,-349.14 1502,-349.14 1502,-330.14 1366,-330.14"/>
<text text-anchor="middle" x="1434" y="-337.14" font-family="Helvetica,sans-Serif" font-size="10.00">T_MESH::mc_grid::remesh</text>
</a>
</g>
</g>
<!-- Node24&#45;&gt;Node25 -->
<g id="edge36" class="edge">
<title>Node24&#45;&gt;Node25</title>
<path fill="none" stroke="midnightblue" d="M1562.12,-395.35C1553.98,-393.02 1545.7,-390.43 1538,-387.64 1507.39,-376.56 1473.45,-359.82 1453.19,-349.32"/>
<polygon fill="midnightblue" stroke="midnightblue" points="1561.38,-398.77 1571.95,-398.05 1563.23,-392.02 1561.38,-398.77"/>
</g>
<!-- Node27 -->
<g id="node27" class="node">
<title>Node27</title>
<g id="a_node27"><a xlink:href="../../d6/d27/class_t___m_e_s_h_1_1_basic___t_mesh.html#a679e744670de791fb61a0a1a27918a6f" target="_top" xlink:title="If called in rebuildConnectivity(bool) fix the connectivity between geometric elements.">
<polygon fill="white" stroke="black" points="1372.5,-211.64 1372.5,-241.64 1495.5,-241.64 1495.5,-211.64 1372.5,-211.64"/>
<text text-anchor="start" x="1380.5" y="-229.64" font-family="Helvetica,sans-Serif" font-size="10.00">T_MESH::Basic_TMesh</text>
<text text-anchor="middle" x="1434" y="-218.64" font-family="Helvetica,sans-Serif" font-size="10.00">::fixConnectivity</text>
</a>
</g>
</g>
<!-- Node26&#45;&gt;Node27 -->
<g id="edge38" class="edge">
<title>Node26&#45;&gt;Node27</title>
<path fill="none" stroke="midnightblue" d="M1542.51,-226.64C1527,-226.64 1510.72,-226.64 1495.66,-226.64"/>
<polygon fill="midnightblue" stroke="midnightblue" points="1542.57,-230.14 1552.57,-226.64 1542.57,-223.14 1542.57,-230.14"/>
</g>
<!-- Node28 -->
<g id="node28" class="node">
<title>Node28</title>
<g id="a_node28"><a xlink:href="../../d6/d27/class_t___m_e_s_h_1_1_basic___t_mesh.html#a4dccd1d7e0db0246a83b424408fdd677" target="_top" xlink:title=" ">
<polygon fill="white" stroke="black" points="1207,-211.64 1207,-241.64 1330,-241.64 1330,-211.64 1207,-211.64"/>
<text text-anchor="start" x="1215" y="-229.64" font-family="Helvetica,sans-Serif" font-size="10.00">T_MESH::Basic_TMesh</text>
<text text-anchor="middle" x="1268.5" y="-218.64" font-family="Helvetica,sans-Serif" font-size="10.00">::closeLoadingSession</text>
</a>
</g>
</g>
<!-- Node27&#45;&gt;Node28 -->
<g id="edge39" class="edge">
<title>Node27&#45;&gt;Node28</title>
<path fill="none" stroke="midnightblue" d="M1362.03,-226.64C1351.41,-226.64 1340.54,-226.64 1330.16,-226.64"/>
<polygon fill="midnightblue" stroke="midnightblue" points="1362.12,-230.14 1372.12,-226.64 1362.12,-223.14 1362.12,-230.14"/>
</g>
<!-- Node38 -->
<g id="node38" class="node">
<title>Node38</title>
<g id="a_node38"><a xlink:href="../../d6/d27/class_t___m_e_s_h_1_1_basic___t_mesh.html#a14f447ce710157a581ca720442a50744" target="_top" xlink:title="Loads EFF.">
<polygon fill="white" stroke="black" points="1207,-301.64 1207,-331.64 1330,-331.64 1330,-301.64 1207,-301.64"/>
<text text-anchor="start" x="1215" y="-319.64" font-family="Helvetica,sans-Serif" font-size="10.00">T_MESH::Basic_TMesh</text>
<text text-anchor="middle" x="1268.5" y="-308.64" font-family="Helvetica,sans-Serif" font-size="10.00">::loadEFF</text>
</a>
</g>
</g>
<!-- Node27&#45;&gt;Node38 -->
<g id="edge58" class="edge">
<title>Node27&#45;&gt;Node38</title>
<path fill="none" stroke="midnightblue" d="M1396.7,-246.62C1366.56,-263.21 1324.34,-286.45 1296.96,-301.53"/>
<polygon fill="midnightblue" stroke="midnightblue" points="1398.56,-249.59 1405.63,-241.71 1395.19,-243.46 1398.56,-249.59"/>
</g>
<!-- Node27&#45;&gt;Node39 -->
<g id="edge60" class="edge">
<title>Node27&#45;&gt;Node39</title>
<path fill="none" stroke="midnightblue" d="M1372.56,-208.53C1355.18,-203.32 1336.42,-197.7 1319.72,-192.69"/>
<polygon fill="midnightblue" stroke="midnightblue" points="1372.03,-212.02 1382.61,-211.54 1374.04,-205.32 1372.03,-212.02"/>
</g>
<!-- Node29 -->
<g id="node29" class="node">
<title>Node29</title>
<g id="a_node29"><a xlink:href="../../d6/d27/class_t___m_e_s_h_1_1_basic___t_mesh.html#ae34014614b61ea803c9f59e1ca8d54fe" target="_top" xlink:title="Loads OBJ.">
<polygon fill="white" stroke="black" points="854,-260.64 854,-290.64 977,-290.64 977,-260.64 854,-260.64"/>
<text text-anchor="start" x="862" y="-278.64" font-family="Helvetica,sans-Serif" font-size="10.00">T_MESH::Basic_TMesh</text>
<text text-anchor="middle" x="915.5" y="-267.64" font-family="Helvetica,sans-Serif" font-size="10.00">::loadOBJ</text>
</a>
</g>
</g>
<!-- Node28&#45;&gt;Node29 -->
<g id="edge40" class="edge">
<title>Node28&#45;&gt;Node29</title>
<path fill="none" stroke="midnightblue" d="M1196.67,-236.98C1188.03,-238.22 1179.31,-239.47 1171,-240.64 1104.76,-250 1028.77,-260.41 977.2,-267.42"/>
<polygon fill="midnightblue" stroke="midnightblue" points="1197.37,-240.41 1206.77,-235.52 1196.37,-233.49 1197.37,-240.41"/>
</g>
<!-- Node32 -->
<g id="node32" class="node">
<title>Node32</title>
<g id="a_node32"><a xlink:href="../../d6/d27/class_t___m_e_s_h_1_1_basic___t_mesh.html#a99e172b1652938b4711784c555e1b141" target="_top" xlink:title="Loads OFF.">
<polygon fill="white" stroke="black" points="854,-211.64 854,-241.64 977,-241.64 977,-211.64 854,-211.64"/>
<text text-anchor="start" x="862" y="-229.64" font-family="Helvetica,sans-Serif" font-size="10.00">T_MESH::Basic_TMesh</text>
<text text-anchor="middle" x="915.5" y="-218.64" font-family="Helvetica,sans-Serif" font-size="10.00">::loadOFF</text>
</a>
</g>
</g>
<!-- Node28&#45;&gt;Node32 -->
<g id="edge46" class="edge">
<title>Node28&#45;&gt;Node32</title>
<path fill="none" stroke="midnightblue" d="M1196.68,-226.64C1132.24,-226.64 1038.12,-226.64 977.08,-226.64"/>
<polygon fill="midnightblue" stroke="midnightblue" points="1196.76,-230.14 1206.76,-226.64 1196.76,-223.14 1196.76,-230.14"/>
</g>
<!-- Node33 -->
<g id="node33" class="node">
<title>Node33</title>
<g id="a_node33"><a xlink:href="../../d6/d27/class_t___m_e_s_h_1_1_basic___t_mesh.html#a9ab86ddab641aabe9295c41e90dc666c" target="_top" xlink:title="Loads PLY.">
<polygon fill="white" stroke="black" points="854,-162.64 854,-192.64 977,-192.64 977,-162.64 854,-162.64"/>
<text text-anchor="start" x="862" y="-180.64" font-family="Helvetica,sans-Serif" font-size="10.00">T_MESH::Basic_TMesh</text>
<text text-anchor="middle" x="915.5" y="-169.64" font-family="Helvetica,sans-Serif" font-size="10.00">::loadPLY</text>
</a>
</g>
</g>
<!-- Node28&#45;&gt;Node33 -->
<g id="edge48" class="edge">
<title>Node28&#45;&gt;Node33</title>
<path fill="none" stroke="midnightblue" d="M1196.68,-216.76C1132.24,-207.76 1038.12,-194.62 977.08,-186.1"/>
<polygon fill="midnightblue" stroke="midnightblue" points="1196.37,-220.25 1206.76,-218.16 1197.34,-213.31 1196.37,-220.25"/>
</g>
<!-- Node34 -->
<g id="node34" class="node">
<title>Node34</title>
<g id="a_node34"><a xlink:href="../../d6/d27/class_t___m_e_s_h_1_1_basic___t_mesh.html#a396ed0279c68c7436eedba97669f020b" target="_top" xlink:title="Loads VER&#45;TRI.">
<polygon fill="white" stroke="black" points="1035,-129.64 1035,-159.64 1158,-159.64 1158,-129.64 1035,-129.64"/>
<text text-anchor="start" x="1043" y="-147.64" font-family="Helvetica,sans-Serif" font-size="10.00">T_MESH::Basic_TMesh</text>
<text text-anchor="middle" x="1096.5" y="-136.64" font-family="Helvetica,sans-Serif" font-size="10.00">::loadVerTri</text>
</a>
</g>
</g>
<!-- Node28&#45;&gt;Node34 -->
<g id="edge50" class="edge">
<title>Node28&#45;&gt;Node34</title>
<path fill="none" stroke="midnightblue" d="M1217.81,-207.32C1214.1,-205.51 1210.46,-203.61 1207,-201.64 1189.62,-191.74 1188.4,-184.5 1171,-174.64 1161.17,-169.07 1150.09,-163.99 1139.58,-159.66"/>
<polygon fill="midnightblue" stroke="midnightblue" points="1216.57,-210.6 1227.12,-211.62 1219.51,-204.25 1216.57,-210.6"/>
</g>
<!-- Node35 -->
<g id="node35" class="node">
<title>Node35</title>
<g id="a_node35"><a xlink:href="../../d6/d27/class_t___m_e_s_h_1_1_basic___t_mesh.html#a0c926e4d0861047162403f5fc6ffeb1b" target="_top" xlink:title="Loads VRML 1.0.">
<polygon fill="white" stroke="black" points="1035,-80.64 1035,-110.64 1158,-110.64 1158,-80.64 1035,-80.64"/>
<text text-anchor="start" x="1043" y="-98.64" font-family="Helvetica,sans-Serif" font-size="10.00">T_MESH::Basic_TMesh</text>
<text text-anchor="middle" x="1096.5" y="-87.64" font-family="Helvetica,sans-Serif" font-size="10.00">::loadVRML1</text>
</a>
</g>
</g>
<!-- Node28&#45;&gt;Node35 -->
<g id="edge52" class="edge">
<title>Node28&#45;&gt;Node35</title>
<path fill="none" stroke="midnightblue" d="M1211.65,-205.7C1210.02,-204.43 1208.46,-203.07 1207,-201.64 1178.55,-173.81 1200.49,-146.37 1171,-119.64 1167.12,-116.13 1162.72,-113.12 1158.04,-110.56"/>
<polygon fill="midnightblue" stroke="midnightblue" points="1210.05,-208.85 1220.31,-211.5 1213.94,-203.03 1210.05,-208.85"/>
</g>
<!-- Node37 -->
<g id="node37" class="node">
<title>Node37</title>
<g id="a_node37"><a xlink:href="../../d6/d27/class_t___m_e_s_h_1_1_basic___t_mesh.html#aa4f8d986e02686de18f5b6e2333cd8d6" target="_top" xlink:title="Loads VRML 2.0.">
<polygon fill="white" stroke="black" points="1035,-297.64 1035,-327.64 1158,-327.64 1158,-297.64 1035,-297.64"/>
<text text-anchor="start" x="1043" y="-315.64" font-family="Helvetica,sans-Serif" font-size="10.00">T_MESH::Basic_TMesh</text>
<text text-anchor="middle" x="1096.5" y="-304.64" font-family="Helvetica,sans-Serif" font-size="10.00">::loadVRML2</text>
</a>
</g>
</g>
<!-- Node28&#45;&gt;Node37 -->
<g id="edge56" class="edge">
<title>Node28&#45;&gt;Node37</title>
<path fill="none" stroke="midnightblue" d="M1233.01,-247.04C1214.8,-257.53 1191.94,-270.25 1171,-280.64 1159.16,-286.52 1145.98,-292.44 1134.09,-297.56"/>
<polygon fill="midnightblue" stroke="midnightblue" points="1235.17,-249.83 1242.07,-241.79 1231.66,-243.78 1235.17,-249.83"/>
</g>
<!-- Node30 -->
<g id="node30" class="node">
<title>Node30</title>
<g id="a_node30"><a xlink:href="../../d6/d27/class_t___m_e_s_h_1_1_basic___t_mesh.html#a24ff0322eb032b4c87635c809c35c914" target="_top" xlink:title="Initialize the triangle mesh from the file &#39;filename&#39;.">
<polygon fill="white" stroke="black" points="686,-216.64 686,-246.64 809,-246.64 809,-216.64 686,-216.64"/>
<text text-anchor="start" x="694" y="-234.64" font-family="Helvetica,sans-Serif" font-size="10.00">T_MESH::Basic_TMesh</text>
<text text-anchor="middle" x="747.5" y="-223.64" font-family="Helvetica,sans-Serif" font-size="10.00">::load</text>
</a>
</g>
</g>
<!-- Node29&#45;&gt;Node30 -->
<g id="edge41" class="edge">
<title>Node29&#45;&gt;Node30</title>
<path fill="none" stroke="midnightblue" d="M848.12,-258.05C833.9,-254.28 819,-250.33 805.19,-246.67"/>
<polygon fill="midnightblue" stroke="midnightblue" points="847.27,-261.44 857.84,-260.62 849.07,-254.68 847.27,-261.44"/>
</g>
<!-- Node30&#45;&gt;Node3 -->
<g id="edge43" class="edge">
<title>Node30&#45;&gt;Node3</title>
<path fill="none" stroke="midnightblue" d="M741.94,-256.81C732.53,-301.88 706.9,-396.86 650,-452.64 646.1,-456.46 641.54,-459.73 636.7,-462.51"/>
<polygon fill="midnightblue" stroke="midnightblue" points="745.42,-257.22 743.94,-246.73 738.56,-255.86 745.42,-257.22"/>
</g>
<!-- Node30&#45;&gt;Node8 -->
<g id="edge44" class="edge">
<title>Node30&#45;&gt;Node8</title>
<path fill="none" stroke="midnightblue" d="M728.38,-254.96C694.06,-299.11 620.88,-393.27 597.12,-423.84"/>
<polygon fill="midnightblue" stroke="midnightblue" points="731.33,-256.87 734.7,-246.82 725.8,-252.57 731.33,-256.87"/>
</g>
<!-- Node30&#45;&gt;Node10 -->
<g id="edge45" class="edge">
<title>Node30&#45;&gt;Node10</title>
<path fill="none" stroke="midnightblue" d="M693.21,-249.97C667.69,-258.75 638.2,-268.89 617.2,-276.11"/>
<polygon fill="midnightblue" stroke="midnightblue" points="694.45,-253.25 702.77,-246.68 692.17,-246.63 694.45,-253.25"/>
</g>
<!-- Node31 -->
<g id="node31" class="node">
<title>Node31</title>
<g id="a_node31"><a xlink:href="../../d6/d27/class_t___m_e_s_h_1_1_basic___t_mesh.html#afe360f55844b79823d045599dc1ea937" target="_top" xlink:title="Append another triangle mesh to the existing one.">
<polygon fill="white" stroke="black" points="527,-216.64 527,-246.64 650,-246.64 650,-216.64 527,-216.64"/>
<text text-anchor="start" x="535" y="-234.64" font-family="Helvetica,sans-Serif" font-size="10.00">T_MESH::Basic_TMesh</text>
<text text-anchor="middle" x="588.5" y="-223.64" font-family="Helvetica,sans-Serif" font-size="10.00">::append</text>
</a>
</g>
</g>
<!-- Node30&#45;&gt;Node31 -->
<g id="edge42" class="edge">
<title>Node30&#45;&gt;Node31</title>
<path fill="none" stroke="midnightblue" d="M675.79,-231.64C667.19,-231.64 658.47,-231.64 650.04,-231.64"/>
<polygon fill="midnightblue" stroke="midnightblue" points="675.8,-235.14 685.8,-231.64 675.8,-228.14 675.8,-235.14"/>
</g>
<!-- Node32&#45;&gt;Node30 -->
<g id="edge47" class="edge">
<title>Node32&#45;&gt;Node30</title>
<path fill="none" stroke="midnightblue" d="M843.63,-228.78C832.13,-229.12 820.31,-229.48 809.08,-229.82"/>
<polygon fill="midnightblue" stroke="midnightblue" points="843.74,-232.27 853.63,-228.48 843.53,-225.28 843.74,-232.27"/>
</g>
<!-- Node33&#45;&gt;Node30 -->
<g id="edge49" class="edge">
<title>Node33&#45;&gt;Node30</title>
<path fill="none" stroke="midnightblue" d="M858.62,-195.82C837.87,-202.57 814.58,-210.15 794.78,-216.59"/>
<polygon fill="midnightblue" stroke="midnightblue" points="859.83,-199.11 868.26,-192.68 857.67,-192.45 859.83,-199.11"/>
</g>
<!-- Node34&#45;&gt;Node30 -->
<g id="edge51" class="edge">
<title>Node34&#45;&gt;Node30</title>
<path fill="none" stroke="midnightblue" d="M1024.91,-135.06C973.39,-130.85 902.77,-130.97 845,-152.64 809.73,-165.88 777.82,-197.62 761,-216.59"/>
<polygon fill="midnightblue" stroke="midnightblue" points="1024.68,-138.55 1034.95,-135.95 1025.3,-131.58 1024.68,-138.55"/>
</g>
<!-- Node35&#45;&gt;Node30 -->
<g id="edge53" class="edge">
<title>Node35&#45;&gt;Node30</title>
<path fill="none" stroke="midnightblue" d="M1024.77,-92.92C972.43,-93.75 900.83,-101 845,-129.64 805.31,-150 773.05,-193.38 757.88,-216.46"/>
<polygon fill="midnightblue" stroke="midnightblue" points="1025,-96.42 1034.97,-92.84 1024.94,-89.42 1025,-96.42"/>
</g>
<!-- Node36 -->
<g id="node36" class="node">
<title>Node36</title>
<g id="a_node36"><a xlink:href="../../d6/d27/class_t___m_e_s_h_1_1_basic___t_mesh.html#aa71c313ca25eae9f2a9ed8a162b905e8" target="_top" xlink:title="Loads IV.">
<polygon fill="white" stroke="black" points="854,-36.64 854,-66.64 977,-66.64 977,-36.64 854,-36.64"/>
<text text-anchor="start" x="862" y="-54.64" font-family="Helvetica,sans-Serif" font-size="10.00">T_MESH::Basic_TMesh</text>
<text text-anchor="middle" x="915.5" y="-43.64" font-family="Helvetica,sans-Serif" font-size="10.00">::loadIV</text>
</a>
</g>
</g>
<!-- Node35&#45;&gt;Node36 -->
<g id="edge54" class="edge">
<title>Node35&#45;&gt;Node36</title>
<path fill="none" stroke="midnightblue" d="M1025.13,-78.34C1009.23,-74.44 992.49,-70.32 977.04,-66.52"/>
<polygon fill="midnightblue" stroke="midnightblue" points="1024.35,-81.76 1034.9,-80.75 1026.02,-74.96 1024.35,-81.76"/>
</g>
<!-- Node36&#45;&gt;Node30 -->
<g id="edge55" class="edge">
<title>Node36&#45;&gt;Node30</title>
<path fill="none" stroke="midnightblue" d="M859.82,-71.42C854.55,-74.43 849.49,-77.83 845,-81.64 799.18,-120.49 767.39,-186.6 754.68,-216.35"/>
<polygon fill="midnightblue" stroke="midnightblue" points="861.61,-74.44 868.86,-66.72 858.37,-68.23 861.61,-74.44"/>
</g>
<!-- Node37&#45;&gt;Node30 -->
<g id="edge57" class="edge">
<title>Node37&#45;&gt;Node30</title>
<path fill="none" stroke="midnightblue" d="M1024.76,-319.26C973.46,-321.62 903.17,-319.75 845,-299.64 812.85,-288.53 781.82,-263.23 763.97,-246.82"/>
<polygon fill="midnightblue" stroke="midnightblue" points="1024.95,-322.75 1034.75,-318.73 1024.58,-315.76 1024.95,-322.75"/>
</g>
<!-- Node38&#45;&gt;Node30 -->
<g id="edge59" class="edge">
<title>Node38&#45;&gt;Node30</title>
<path fill="none" stroke="midnightblue" d="M1203.43,-333.98C1117.68,-353.69 962.74,-376.84 845,-324.64 806.71,-307.67 774.56,-268.59 758.84,-246.88"/>
<polygon fill="midnightblue" stroke="midnightblue" points="1204.35,-337.36 1213.28,-331.66 1202.75,-330.55 1204.35,-337.36"/>
</g>
<!-- Node40 -->
<g id="node40" class="node">
<title>Node40</title>
<g id="a_node40"><a xlink:href="../../d6/d27/class_t___m_e_s_h_1_1_basic___t_mesh.html#ab6066b06c1bf3f54cf8f67b6aafb810e" target="_top" xlink:title="Loads STL.">
<polygon fill="white" stroke="black" points="1035,-12.64 1035,-42.64 1158,-42.64 1158,-12.64 1035,-12.64"/>
<text text-anchor="start" x="1043" y="-30.64" font-family="Helvetica,sans-Serif" font-size="10.00">T_MESH::Basic_TMesh</text>
<text text-anchor="middle" x="1096.5" y="-19.64" font-family="Helvetica,sans-Serif" font-size="10.00">::loadSTL</text>
</a>
</g>
</g>
<!-- Node39&#45;&gt;Node40 -->
<g id="edge61" class="edge">
<title>Node39&#45;&gt;Node40</title>
<path fill="none" stroke="midnightblue" d="M1249.93,-154.28C1231.83,-131.21 1201.97,-95.84 1171,-70.64 1157.93,-60 1141.92,-50.31 1128.19,-42.84"/>
<polygon fill="midnightblue" stroke="midnightblue" points="1247.38,-156.7 1256.27,-162.47 1252.92,-152.41 1247.38,-156.7"/>
</g>
<!-- Node40&#45;&gt;Node30 -->
<g id="edge62" class="edge">
<title>Node40&#45;&gt;Node30</title>
<path fill="none" stroke="midnightblue" d="M1035.23,-10.29C981.12,1.55 901.69,9.33 845,-26.64 776.41,-70.16 755.69,-176.86 750.24,-216.49"/>
<polygon fill="midnightblue" stroke="midnightblue" points="1034.5,-13.72 1045.03,-12.54 1036.07,-6.89 1034.5,-13.72"/>
</g>
<!-- Node43&#45;&gt;Node25 -->
<g id="edge67" class="edge">
<title>Node43&#45;&gt;Node25</title>
<path fill="none" stroke="midnightblue" d="M1559.32,-282.84C1552.08,-284.89 1544.81,-287.16 1538,-289.64 1506.62,-301.07 1472.07,-319.03 1452.02,-330.03"/>
<polygon fill="midnightblue" stroke="midnightblue" points="1560.38,-286.18 1569.12,-280.19 1558.56,-279.42 1560.38,-286.18"/>
</g>
</g>
</svg>
