<?xml version="1.0" encoding="UTF-8" standalone="no"?>
<!DOCTYPE svg PUBLIC "-//W3C//DTD SVG 1.1//EN"
 "http://www.w3.org/Graphics/SVG/1.1/DTD/svg11.dtd">
<!-- Generated by graphviz version 2.44.1 (0)
 -->
<!-- Title: IGLMeshBooleanOperationFilter Pages: 1 -->
<svg width="178pt" height="303pt"
 viewBox="0.00 0.00 178.00 303.00" xmlns="http://www.w3.org/2000/svg" xmlns:xlink="http://www.w3.org/1999/xlink">
<g id="graph0" class="graph" transform="scale(1 1) rotate(0) translate(4 299)">
<title>IGLMeshBooleanOperationFilter</title>
<polygon fill="white" stroke="transparent" points="-4,4 -4,-299 174,-299 174,4 -4,4"/>
<!-- Node1 -->
<g id="node1" class="node">
<title>Node1</title>
<g id="a_node1"><a xlink:title="Filter for boolean operations on polygon meshes using the igl library.">
<polygon fill="#bfbfbf" stroke="black" points="0,-0.5 0,-101.5 170,-101.5 170,-0.5 0,-0.5"/>
<text text-anchor="middle" x="85" y="-89.5" font-family="Helvetica,sans-Serif" font-size="10.00">IGLMeshBooleanOperationFilter</text>
<polyline fill="none" stroke="black" points="0,-82.5 170,-82.5 "/>
<text text-anchor="start" x="8" y="-70.5" font-family="Helvetica,sans-Serif" font-size="10.00">&#45; operation</text>
<polyline fill="none" stroke="black" points="0,-63.5 170,-63.5 "/>
<text text-anchor="start" x="8" y="-51.5" font-family="Helvetica,sans-Serif" font-size="10.00">+ IGLMeshBooleanOperationFilter()</text>
<text text-anchor="start" x="8" y="-40.5" font-family="Helvetica,sans-Serif" font-size="10.00">+ setOperationToUnion()</text>
<text text-anchor="start" x="8" y="-29.5" font-family="Helvetica,sans-Serif" font-size="10.00">+ setOperationToIntersection()</text>
<text text-anchor="start" x="8" y="-18.5" font-family="Helvetica,sans-Serif" font-size="10.00">+ setOperationToDifference()</text>
<text text-anchor="start" x="8" y="-7.5" font-family="Helvetica,sans-Serif" font-size="10.00">+ update()</text>
</a>
</g>
</g>
<!-- Node2 -->
<g id="node2" class="node">
<title>Node2</title>
<g id="a_node2"><a xlink:href="../../d4/dcd/class_mesh_boolean_operation_filter.html" target="_top" xlink:title="Base class for boolean operations on polygon meshes filters.">
<polygon fill="white" stroke="black" points="4.5,-138.5 4.5,-294.5 165.5,-294.5 165.5,-138.5 4.5,-138.5"/>
<text text-anchor="middle" x="85" y="-282.5" font-family="Helvetica,sans-Serif" font-size="10.00">MeshBooleanOperationFilter</text>
<polyline fill="none" stroke="black" points="4.5,-275.5 165.5,-275.5 "/>
<text text-anchor="start" x="12.5" y="-263.5" font-family="Helvetica,sans-Serif" font-size="10.00"># polydata0</text>
<text text-anchor="start" x="12.5" y="-252.5" font-family="Helvetica,sans-Serif" font-size="10.00"># polydata1</text>
<text text-anchor="start" x="12.5" y="-241.5" font-family="Helvetica,sans-Serif" font-size="10.00"># resultPolydata</text>
<polyline fill="none" stroke="black" points="4.5,-234.5 165.5,-234.5 "/>
<text text-anchor="start" x="12.5" y="-222.5" font-family="Helvetica,sans-Serif" font-size="10.00">+ ~MeshBooleanOperationFilter()</text>
<text text-anchor="start" x="12.5" y="-211.5" font-family="Helvetica,sans-Serif" font-size="10.00">+ setOperationToUnion()</text>
<text text-anchor="start" x="12.5" y="-200.5" font-family="Helvetica,sans-Serif" font-size="10.00">+ setOperationToIntersection()</text>
<text text-anchor="start" x="12.5" y="-189.5" font-family="Helvetica,sans-Serif" font-size="10.00">+ setOperationToDifference()</text>
<text text-anchor="start" x="12.5" y="-178.5" font-family="Helvetica,sans-Serif" font-size="10.00">+ setInputData0()</text>
<text text-anchor="start" x="12.5" y="-167.5" font-family="Helvetica,sans-Serif" font-size="10.00">+ setInputData1()</text>
<text text-anchor="start" x="12.5" y="-156.5" font-family="Helvetica,sans-Serif" font-size="10.00">+ update()</text>
<text text-anchor="start" x="12.5" y="-145.5" font-family="Helvetica,sans-Serif" font-size="10.00">+ getOutput()</text>
</a>
</g>
</g>
<!-- Node2&#45;&gt;Node1 -->
<g id="edge1" class="edge">
<title>Node2&#45;&gt;Node1</title>
<path fill="none" stroke="midnightblue" d="M85,-127.9C85,-118.91 85,-110.02 85,-101.66"/>
<polygon fill="none" stroke="midnightblue" points="81.5,-128.06 85,-138.06 88.5,-128.06 81.5,-128.06"/>
</g>
</g>
</svg>
