<?xml version="1.0" encoding="UTF-8" standalone="no"?>
<!DOCTYPE svg PUBLIC "-//W3C//DTD SVG 1.1//EN"
 "http://www.w3.org/Graphics/SVG/1.1/DTD/svg11.dtd">
<!-- Generated by graphviz version 2.44.0 (0)
 -->
<!-- Title: TouchpointRegistry::reset Pages: 1 -->
<svg width="627pt" height="355pt"
 viewBox="0.00 0.00 627.00 355.00" xmlns="http://www.w3.org/2000/svg" xmlns:xlink="http://www.w3.org/1999/xlink">
<g id="graph0" class="graph" transform="scale(1 1) rotate(0) translate(4 351)">
<title>TouchpointRegistry::reset</title>
<polygon fill="white" stroke="transparent" points="-4,4 -4,-351 623,-351 623,4 -4,4"/>
<!-- Node1 -->
<g id="node1" class="node">
<title>Node1</title>
<g id="a_node1"><a xlink:title="Clear everything.">
<polygon fill="#bfbfbf" stroke="black" points="0,-147 0,-177 101,-177 101,-147 0,-147"/>
<text text-anchor="start" x="8" y="-165" font-family="Helvetica,sans-Serif" font-size="10.00">TouchpointRegistry</text>
<text text-anchor="middle" x="50.5" y="-154" font-family="Helvetica,sans-Serif" font-size="10.00">::reset</text>
</a>
</g>
</g>
<!-- Node2 -->
<g id="node2" class="node">
<title>Node2</title>
<g id="a_node2"><a xlink:href="../../d9/d58/class_touchpoint.html#ae06d7b971e13790fab04d7f40b5b89ef" target="_top" xlink:title="Set touchpoint actor.">
<polygon fill="white" stroke="black" points="151,-327.5 151,-346.5 258,-346.5 258,-327.5 151,-327.5"/>
<text text-anchor="middle" x="204.5" y="-334.5" font-family="Helvetica,sans-Serif" font-size="10.00">Touchpoint::setActor</text>
</a>
</g>
</g>
<!-- Node1&#45;&gt;Node2 -->
<g id="edge1" class="edge">
<title>Node1&#45;&gt;Node2</title>
<path fill="none" stroke="midnightblue" d="M55.59,-177.47C64.71,-208.85 89.7,-280.23 137,-318 139.29,-319.83 141.74,-321.48 144.31,-322.97"/>
<polygon fill="midnightblue" stroke="midnightblue" points="142.89,-326.17 153.41,-327.46 145.99,-319.89 142.89,-326.17"/>
</g>
<!-- Node3 -->
<g id="node3" class="node">
<title>Node3</title>
<g id="a_node3"><a xlink:href="../../dd/d10/class_connection.html#a24be5fb6fd21b1b0bbc9853b8075f9f4" target="_top" xlink:title="Set the graphical representation (vtkActor) of the connection geometry.">
<polygon fill="white" stroke="black" points="137,-278 137,-308 272,-308 272,-278 137,-278"/>
<text text-anchor="start" x="145" y="-296" font-family="Helvetica,sans-Serif" font-size="10.00">Connection::setConnection</text>
<text text-anchor="middle" x="204.5" y="-285" font-family="Helvetica,sans-Serif" font-size="10.00">Actor</text>
</a>
</g>
</g>
<!-- Node1&#45;&gt;Node3 -->
<g id="edge2" class="edge">
<title>Node1&#45;&gt;Node3</title>
<path fill="none" stroke="midnightblue" d="M59.98,-177.34C73.44,-200.35 101.82,-243.8 137,-269 139.05,-270.47 141.2,-271.86 143.42,-273.17"/>
<polygon fill="midnightblue" stroke="midnightblue" points="141.8,-276.27 152.28,-277.85 145.07,-270.08 141.8,-276.27"/>
</g>
<!-- Node4 -->
<g id="node4" class="node">
<title>Node4</title>
<g id="a_node4"><a xlink:href="../../dd/d10/class_connection.html#aa53698bb689af2a64f852309c6dbf6c8" target="_top" xlink:title="Set the geometry (vtkPolyData) of the connection.">
<polygon fill="white" stroke="black" points="137,-229 137,-259 272,-259 272,-229 137,-229"/>
<text text-anchor="start" x="145" y="-247" font-family="Helvetica,sans-Serif" font-size="10.00">Connection::setConnection</text>
<text text-anchor="middle" x="204.5" y="-236" font-family="Helvetica,sans-Serif" font-size="10.00">PolyData</text>
</a>
</g>
</g>
<!-- Node1&#45;&gt;Node4 -->
<g id="edge3" class="edge">
<title>Node1&#45;&gt;Node4</title>
<path fill="none" stroke="midnightblue" d="M71.43,-177.19C88.26,-189.55 113.35,-206.87 137,-219 141.06,-221.08 145.34,-223.08 149.68,-224.99"/>
<polygon fill="midnightblue" stroke="midnightblue" points="148.67,-228.36 159.24,-228.98 151.37,-221.9 148.67,-228.36"/>
</g>
<!-- Node5 -->
<g id="node5" class="node">
<title>Node5</title>
<g id="a_node5"><a xlink:href="../../dd/d10/class_connection.html#ab326c063ff3ad8a7261e2893dbe01bb1" target="_top" xlink:title="Set the pointer to the destination connector.">
<polygon fill="white" stroke="black" points="137,-190.5 137,-209.5 272,-209.5 272,-190.5 137,-190.5"/>
<text text-anchor="middle" x="204.5" y="-197.5" font-family="Helvetica,sans-Serif" font-size="10.00">Connection::setDestination</text>
</a>
</g>
</g>
<!-- Node1&#45;&gt;Node5 -->
<g id="edge4" class="edge">
<title>Node1&#45;&gt;Node5</title>
<path fill="none" stroke="midnightblue" d="M101.27,-174.44C118.64,-178.79 138.09,-183.65 155.33,-187.96"/>
<polygon fill="midnightblue" stroke="midnightblue" points="154.64,-191.39 165.19,-190.42 156.34,-184.6 154.64,-191.39"/>
</g>
<!-- Node6 -->
<g id="node6" class="node">
<title>Node6</title>
<g id="a_node6"><a xlink:href="../../d9/d58/class_touchpoint.html#a20ea5d908fdf70e2698c5f86789e4742" target="_top" xlink:title="Set touchpoint id to given id.">
<polygon fill="white" stroke="black" points="157.5,-152.5 157.5,-171.5 251.5,-171.5 251.5,-152.5 157.5,-152.5"/>
<text text-anchor="middle" x="204.5" y="-159.5" font-family="Helvetica,sans-Serif" font-size="10.00">Touchpoint::setID</text>
</a>
</g>
</g>
<!-- Node1&#45;&gt;Node6 -->
<g id="edge5" class="edge">
<title>Node1&#45;&gt;Node6</title>
<path fill="none" stroke="midnightblue" d="M101.27,-162C115.97,-162 132.17,-162 147.25,-162"/>
<polygon fill="midnightblue" stroke="midnightblue" points="147.48,-165.5 157.48,-162 147.48,-158.5 147.48,-165.5"/>
</g>
<!-- Node7 -->
<g id="node7" class="node">
<title>Node7</title>
<g id="a_node7"><a xlink:href="../../dd/d10/class_connection.html#ae15a2ee585ad551838dbedc5bf71e22a" target="_top" xlink:title="Set the graphical line representation object (vtkActor)">
<polygon fill="white" stroke="black" points="141,-114.5 141,-133.5 268,-133.5 268,-114.5 141,-114.5"/>
<text text-anchor="middle" x="204.5" y="-121.5" font-family="Helvetica,sans-Serif" font-size="10.00">Connection::setLineActor</text>
</a>
</g>
</g>
<!-- Node1&#45;&gt;Node7 -->
<g id="edge6" class="edge">
<title>Node1&#45;&gt;Node7</title>
<path fill="none" stroke="midnightblue" d="M101.27,-149.56C118.64,-145.21 138.09,-140.35 155.33,-136.04"/>
<polygon fill="midnightblue" stroke="midnightblue" points="156.34,-139.4 165.19,-133.58 154.64,-132.61 156.34,-139.4"/>
</g>
<!-- Node8 -->
<g id="node8" class="node">
<title>Node8</title>
<g id="a_node8"><a xlink:href="../../d9/d58/class_touchpoint.html#aa9274369fab341dc277036e07dbfc234" target="_top" xlink:title="Set the polydata of the touchpoint.">
<polygon fill="white" stroke="black" points="142.5,-76.5 142.5,-95.5 266.5,-95.5 266.5,-76.5 142.5,-76.5"/>
<text text-anchor="middle" x="204.5" y="-83.5" font-family="Helvetica,sans-Serif" font-size="10.00">Touchpoint::setPolyData</text>
</a>
</g>
</g>
<!-- Node1&#45;&gt;Node8 -->
<g id="edge7" class="edge">
<title>Node1&#45;&gt;Node8</title>
<path fill="none" stroke="midnightblue" d="M70.51,-146.81C87.2,-134.11 112.55,-116.31 137,-105 142.04,-102.67 147.43,-100.56 152.88,-98.67"/>
<polygon fill="midnightblue" stroke="midnightblue" points="154.25,-101.91 162.69,-95.5 152.09,-95.24 154.25,-101.91"/>
</g>
<!-- Node11 -->
<g id="node11" class="node">
<title>Node11</title>
<g id="a_node11"><a xlink:href="../../dd/d10/class_connection.html#a6ffa49b4f1ad929605b3562b6c8951b2" target="_top" xlink:title="Set the pointer to the source touchpoint.">
<polygon fill="white" stroke="black" points="146.5,-38.5 146.5,-57.5 262.5,-57.5 262.5,-38.5 146.5,-38.5"/>
<text text-anchor="middle" x="204.5" y="-45.5" font-family="Helvetica,sans-Serif" font-size="10.00">Connection::setSource</text>
</a>
</g>
</g>
<!-- Node1&#45;&gt;Node11 -->
<g id="edge10" class="edge">
<title>Node1&#45;&gt;Node11</title>
<path fill="none" stroke="midnightblue" d="M61.14,-146.74C75.25,-125.68 103.5,-87.92 137,-67 140.4,-64.88 144.04,-62.99 147.8,-61.3"/>
<polygon fill="midnightblue" stroke="midnightblue" points="149.33,-64.46 157.34,-57.53 146.76,-57.95 149.33,-64.46"/>
</g>
<!-- Node12 -->
<g id="node12" class="node">
<title>Node12</title>
<g id="a_node12"><a xlink:href="../../d9/d58/class_touchpoint.html#a27645f8861d2ce10dc9bff4e72549539" target="_top" xlink:title="Set text label touchpoint number actor.">
<polygon fill="white" stroke="black" points="142,-0.5 142,-19.5 267,-19.5 267,-0.5 142,-0.5"/>
<text text-anchor="middle" x="204.5" y="-7.5" font-family="Helvetica,sans-Serif" font-size="10.00">Touchpoint::setTextActor</text>
</a>
</g>
</g>
<!-- Node1&#45;&gt;Node12 -->
<g id="edge11" class="edge">
<title>Node1&#45;&gt;Node12</title>
<path fill="none" stroke="midnightblue" d="M57.1,-146.68C68.03,-118.91 94.91,-60.26 137,-29 139.52,-27.13 142.22,-25.44 145.04,-23.92"/>
<polygon fill="midnightblue" stroke="midnightblue" points="146.75,-26.98 154.35,-19.6 143.81,-20.63 146.75,-26.98"/>
</g>
<!-- Node9 -->
<g id="node9" class="node">
<title>Node9</title>
<g id="a_node9"><a xlink:href="../../d9/d58/class_touchpoint.html#abc86c4002a67fd423b649d597b2055d5" target="_top" xlink:title="Creates the graphical representation (vtkActor) for a touchpoint geometry.">
<polygon fill="white" stroke="black" points="308,-71 308,-101 452,-101 452,-71 308,-71"/>
<text text-anchor="start" x="316" y="-89" font-family="Helvetica,sans-Serif" font-size="10.00">Touchpoint::createTouchpoint</text>
<text text-anchor="middle" x="380" y="-78" font-family="Helvetica,sans-Serif" font-size="10.00">Actor</text>
</a>
</g>
</g>
<!-- Node8&#45;&gt;Node9 -->
<g id="edge8" class="edge">
<title>Node8&#45;&gt;Node9</title>
<path fill="none" stroke="midnightblue" d="M266.67,-86C276.62,-86 287.07,-86 297.41,-86"/>
<polygon fill="midnightblue" stroke="midnightblue" points="297.7,-89.5 307.7,-86 297.7,-82.5 297.7,-89.5"/>
</g>
<!-- Node10 -->
<g id="node10" class="node">
<title>Node10</title>
<g id="a_node10"><a xlink:href="../../d9/d58/class_touchpoint.html#aabec59cfa02cddb2dab4420b3c056df0" target="_top" xlink:title="Return color value for a given touchpoint type.">
<polygon fill="white" stroke="black" points="488,-71 488,-101 619,-101 619,-71 488,-71"/>
<text text-anchor="start" x="496" y="-89" font-family="Helvetica,sans-Serif" font-size="10.00">Touchpoint::getTouchpoint</text>
<text text-anchor="middle" x="553.5" y="-78" font-family="Helvetica,sans-Serif" font-size="10.00">ColorFromType</text>
</a>
</g>
</g>
<!-- Node9&#45;&gt;Node10 -->
<g id="edge9" class="edge">
<title>Node9&#45;&gt;Node10</title>
<path fill="none" stroke="midnightblue" d="M452.24,-86C460.62,-86 469.18,-86 477.6,-86"/>
<polygon fill="midnightblue" stroke="midnightblue" points="477.79,-89.5 487.79,-86 477.79,-82.5 477.79,-89.5"/>
</g>
</g>
</svg>
