<?xml version="1.0" encoding="UTF-8" standalone="no"?>
<!DOCTYPE svg PUBLIC "-//W3C//DTD SVG 1.1//EN"
 "http://www.w3.org/Graphics/SVG/1.1/DTD/svg11.dtd">
<!-- Generated by graphviz version 2.44.0 (0)
 -->
<!-- Title: voxeloctree.cpp Pages: 1 -->
<svg width="795pt" height="196pt"
 viewBox="0.00 0.00 795.00 196.00" xmlns="http://www.w3.org/2000/svg" xmlns:xlink="http://www.w3.org/1999/xlink">
<g id="graph0" class="graph" transform="scale(1 1) rotate(0) translate(4 192)">
<title>voxeloctree.cpp</title>
<polygon fill="white" stroke="transparent" points="-4,4 -4,-192 791,-192 791,4 -4,4"/>
<!-- Node1 -->
<g id="node1" class="node">
<title>Node1</title>
<g id="a_node1"><a xlink:title=" ">
<polygon fill="#bfbfbf" stroke="black" points="273,-168.5 273,-187.5 359,-187.5 359,-168.5 273,-168.5"/>
<text text-anchor="middle" x="316" y="-175.5" font-family="Helvetica,sans-Serif" font-size="10.00">voxeloctree.cpp</text>
</a>
</g>
</g>
<!-- Node2 -->
<g id="node2" class="node">
<title>Node2</title>
<g id="a_node2"><a xlink:href="../../d1/dc5/voxeloctree_8h.html" target="_top" xlink:title=" ">
<polygon fill="white" stroke="black" points="268,-112.5 268,-131.5 364,-131.5 364,-112.5 268,-112.5"/>
<text text-anchor="middle" x="316" y="-119.5" font-family="Helvetica,sans-Serif" font-size="10.00">utils/voxeloctree.h</text>
</a>
</g>
</g>
<!-- Node1&#45;&gt;Node2 -->
<g id="edge1" class="edge">
<title>Node1&#45;&gt;Node2</title>
<path fill="none" stroke="midnightblue" d="M316,-168.08C316,-161.01 316,-150.86 316,-141.99"/>
<polygon fill="midnightblue" stroke="midnightblue" points="319.5,-141.75 316,-131.75 312.5,-141.75 319.5,-141.75"/>
</g>
<!-- Node3 -->
<g id="node3" class="node">
<title>Node3</title>
<g id="a_node3"><a xlink:title=" ">
<polygon fill="white" stroke="#bfbfbf" points="0,-56.5 0,-75.5 40,-75.5 40,-56.5 0,-56.5"/>
<text text-anchor="middle" x="20" y="-63.5" font-family="Helvetica,sans-Serif" font-size="10.00">limits</text>
</a>
</g>
</g>
<!-- Node2&#45;&gt;Node3 -->
<g id="edge2" class="edge">
<title>Node2&#45;&gt;Node3</title>
<path fill="none" stroke="midnightblue" d="M267.94,-114.05C215.21,-106.13 128.18,-92.16 54,-76 52.72,-75.72 51.43,-75.43 50.11,-75.12"/>
<polygon fill="midnightblue" stroke="midnightblue" points="50.61,-71.64 40.06,-72.63 48.93,-78.43 50.61,-71.64"/>
</g>
<!-- Node4 -->
<g id="node4" class="node">
<title>Node4</title>
<g id="a_node4"><a xlink:title=" ">
<polygon fill="white" stroke="#bfbfbf" points="14,-0.5 14,-19.5 58,-19.5 58,-0.5 14,-0.5"/>
<text text-anchor="middle" x="36" y="-7.5" font-family="Helvetica,sans-Serif" font-size="10.00">cmath</text>
</a>
</g>
</g>
<!-- Node2&#45;&gt;Node4 -->
<g id="edge3" class="edge">
<title>Node2&#45;&gt;Node4</title>
<path fill="none" stroke="midnightblue" d="M267.78,-121.09C218.86,-119.09 142.62,-110.08 87,-76 68.34,-64.57 53.81,-43.67 45.11,-28.66"/>
<polygon fill="midnightblue" stroke="midnightblue" points="48.13,-26.88 40.25,-19.8 41.99,-30.25 48.13,-26.88"/>
</g>
<!-- Node5 -->
<g id="node5" class="node">
<title>Node5</title>
<g id="a_node5"><a xlink:title=" ">
<polygon fill="white" stroke="#bfbfbf" points="96,-56.5 96,-75.5 140,-75.5 140,-56.5 96,-56.5"/>
<text text-anchor="middle" x="118" y="-63.5" font-family="Helvetica,sans-Serif" font-size="10.00">vector</text>
</a>
</g>
</g>
<!-- Node2&#45;&gt;Node5 -->
<g id="edge4" class="edge">
<title>Node2&#45;&gt;Node5</title>
<path fill="none" stroke="midnightblue" d="M283.62,-112.47C251.91,-104.08 201.99,-90.75 149.77,-76.18"/>
<polygon fill="midnightblue" stroke="midnightblue" points="150.57,-72.77 140,-73.44 148.69,-79.51 150.57,-72.77"/>
</g>
<!-- Node6 -->
<g id="node6" class="node">
<title>Node6</title>
<g id="a_node6"><a xlink:title=" ">
<polygon fill="white" stroke="#bfbfbf" points="158,-56.5 158,-75.5 210,-75.5 210,-56.5 158,-56.5"/>
<text text-anchor="middle" x="184" y="-63.5" font-family="Helvetica,sans-Serif" font-size="10.00">memory</text>
</a>
</g>
</g>
<!-- Node2&#45;&gt;Node6 -->
<g id="edge5" class="edge">
<title>Node2&#45;&gt;Node6</title>
<path fill="none" stroke="midnightblue" d="M295.08,-112.44C273.26,-103.52 238.85,-89.44 214.11,-79.32"/>
<polygon fill="midnightblue" stroke="midnightblue" points="215.4,-76.06 204.82,-75.52 212.75,-82.54 215.4,-76.06"/>
</g>
<!-- Node7 -->
<g id="node7" class="node">
<title>Node7</title>
<g id="a_node7"><a xlink:title=" ">
<polygon fill="white" stroke="#bfbfbf" points="228,-56.5 228,-75.5 288,-75.5 288,-56.5 228,-56.5"/>
<text text-anchor="middle" x="258" y="-63.5" font-family="Helvetica,sans-Serif" font-size="10.00">vtkMath.h</text>
</a>
</g>
</g>
<!-- Node2&#45;&gt;Node7 -->
<g id="edge6" class="edge">
<title>Node2&#45;&gt;Node7</title>
<path fill="none" stroke="midnightblue" d="M306.68,-112.32C298.11,-104.34 285.19,-92.31 274.81,-82.65"/>
<polygon fill="midnightblue" stroke="midnightblue" points="277.19,-80.09 267.49,-75.83 272.42,-85.21 277.19,-80.09"/>
</g>
<!-- Node8 -->
<g id="node8" class="node">
<title>Node8</title>
<g id="a_node8"><a xlink:title=" ">
<polygon fill="white" stroke="#bfbfbf" points="721,-0.5 721,-19.5 787,-19.5 787,-0.5 721,-0.5"/>
<text text-anchor="middle" x="754" y="-7.5" font-family="Helvetica,sans-Serif" font-size="10.00">vtkVector.h</text>
</a>
</g>
</g>
<!-- Node2&#45;&gt;Node8 -->
<g id="edge7" class="edge">
<title>Node2&#45;&gt;Node8</title>
<path fill="none" stroke="midnightblue" d="M364.38,-118.76C468.35,-113.52 705.95,-99.14 734,-76 747.5,-64.86 752.07,-44.83 753.53,-29.94"/>
<polygon fill="midnightblue" stroke="midnightblue" points="757.03,-29.98 754.13,-19.79 750.04,-29.56 757.03,-29.98"/>
</g>
<!-- Node9 -->
<g id="node9" class="node">
<title>Node9</title>
<g id="a_node9"><a xlink:title=" ">
<polygon fill="white" stroke="#bfbfbf" points="76.5,-0.5 76.5,-19.5 185.5,-19.5 185.5,-0.5 76.5,-0.5"/>
<text text-anchor="middle" x="131" y="-7.5" font-family="Helvetica,sans-Serif" font-size="10.00">vtkVectorOperators.h</text>
</a>
</g>
</g>
<!-- Node2&#45;&gt;Node9 -->
<g id="edge8" class="edge">
<title>Node2&#45;&gt;Node9</title>
<path fill="none" stroke="midnightblue" d="M316,-112.06C315.5,-98.1 312.45,-71.15 297,-56 282.13,-41.42 234.17,-29.37 193.61,-21.42"/>
<polygon fill="midnightblue" stroke="midnightblue" points="194.22,-17.97 183.75,-19.54 192.91,-24.85 194.22,-17.97"/>
</g>
<!-- Node10 -->
<g id="node10" class="node">
<title>Node10</title>
<g id="a_node10"><a xlink:title=" ">
<polygon fill="white" stroke="#bfbfbf" points="204,-0.5 204,-19.5 286,-19.5 286,-0.5 204,-0.5"/>
<text text-anchor="middle" x="245" y="-7.5" font-family="Helvetica,sans-Serif" font-size="10.00">vtkVectorDot.h</text>
</a>
</g>
</g>
<!-- Node2&#45;&gt;Node10 -->
<g id="edge9" class="edge">
<title>Node2&#45;&gt;Node10</title>
<path fill="none" stroke="midnightblue" d="M321.55,-112.36C329.19,-99.26 340.84,-74 330,-56 320.71,-40.57 304.17,-30.16 288.13,-23.27"/>
<polygon fill="midnightblue" stroke="midnightblue" points="289.39,-20.01 278.8,-19.61 286.83,-26.52 289.39,-20.01"/>
</g>
<!-- Node11 -->
<g id="node11" class="node">
<title>Node11</title>
<g id="a_node11"><a xlink:title=" ">
<polygon fill="white" stroke="#bfbfbf" points="549,-0.5 549,-19.5 639,-19.5 639,-0.5 549,-0.5"/>
<text text-anchor="middle" x="594" y="-7.5" font-family="Helvetica,sans-Serif" font-size="10.00">vtkVectorNorm.h</text>
</a>
</g>
</g>
<!-- Node2&#45;&gt;Node11 -->
<g id="edge10" class="edge">
<title>Node2&#45;&gt;Node11</title>
<path fill="none" stroke="midnightblue" d="M356.57,-112.45C389.67,-104.81 437.27,-92.32 477,-76 511.76,-61.72 549.29,-39.54 572.22,-25.14"/>
<polygon fill="midnightblue" stroke="midnightblue" points="574.26,-28 580.83,-19.68 570.51,-22.09 574.26,-28"/>
</g>
<!-- Node12 -->
<g id="node12" class="node">
<title>Node12</title>
<g id="a_node12"><a xlink:href="../../d1/da8/sampling_8h.html" target="_top" xlink:title="Various algorithms (random, quasi monte carlo) for generating sample points.">
<polygon fill="white" stroke="black" points="382.5,-56.5 382.5,-75.5 467.5,-75.5 467.5,-56.5 382.5,-56.5"/>
<text text-anchor="middle" x="425" y="-63.5" font-family="Helvetica,sans-Serif" font-size="10.00">utils/sampling.h</text>
</a>
</g>
</g>
<!-- Node2&#45;&gt;Node12 -->
<g id="edge11" class="edge">
<title>Node2&#45;&gt;Node12</title>
<path fill="none" stroke="midnightblue" d="M333.51,-112.32C351.07,-103.62 378.33,-90.12 398.53,-80.11"/>
<polygon fill="midnightblue" stroke="midnightblue" points="400.12,-83.23 407.53,-75.65 397.02,-76.96 400.12,-83.23"/>
</g>
<!-- Node16 -->
<g id="node16" class="node">
<title>Node16</title>
<g id="a_node16"><a xlink:href="../../d2/d6f/constants_8h.html" target="_top" xlink:title="Application / Algorithm specific global constants.">
<polygon fill="white" stroke="black" points="635.5,-56.5 635.5,-75.5 724.5,-75.5 724.5,-56.5 635.5,-56.5"/>
<text text-anchor="middle" x="680" y="-63.5" font-family="Helvetica,sans-Serif" font-size="10.00">core/constants.h</text>
</a>
</g>
</g>
<!-- Node2&#45;&gt;Node16 -->
<g id="edge20" class="edge">
<title>Node2&#45;&gt;Node16</title>
<path fill="none" stroke="midnightblue" d="M364.34,-113.83C431.98,-103.79 554.54,-85.61 625.4,-75.1"/>
<polygon fill="midnightblue" stroke="midnightblue" points="626.09,-78.54 635.46,-73.61 625.06,-71.61 626.09,-78.54"/>
</g>
<!-- Node12&#45;&gt;Node4 -->
<g id="edge13" class="edge">
<title>Node12&#45;&gt;Node4</title>
<path fill="none" stroke="midnightblue" d="M382.49,-61.84C316.91,-56.48 187.07,-44 68.24,-19.97"/>
<polygon fill="midnightblue" stroke="midnightblue" points="68.75,-16.5 58.25,-17.91 67.34,-23.36 68.75,-16.5"/>
</g>
<!-- Node12&#45;&gt;Node8 -->
<g id="edge15" class="edge">
<title>Node12&#45;&gt;Node8</title>
<path fill="none" stroke="midnightblue" d="M467.92,-59.03C522.16,-51.32 618.63,-37.05 710.54,-20.19"/>
<polygon fill="midnightblue" stroke="midnightblue" points="711.37,-23.6 720.56,-18.34 710.09,-16.72 711.37,-23.6"/>
</g>
<!-- Node12&#45;&gt;Node9 -->
<g id="edge16" class="edge">
<title>Node12&#45;&gt;Node9</title>
<path fill="none" stroke="midnightblue" d="M382.25,-57.15C330.87,-47.71 244.48,-31.84 187.6,-21.4"/>
<polygon fill="midnightblue" stroke="midnightblue" points="188.16,-17.94 177.69,-19.58 186.89,-24.82 188.16,-17.94"/>
</g>
<!-- Node12&#45;&gt;Node10 -->
<g id="edge17" class="edge">
<title>Node12&#45;&gt;Node10</title>
<path fill="none" stroke="midnightblue" d="M396.48,-56.44C365.93,-47.28 317.29,-32.69 283.4,-22.52"/>
<polygon fill="midnightblue" stroke="midnightblue" points="283.97,-19.04 273.39,-19.52 281.96,-25.74 283.97,-19.04"/>
</g>
<!-- Node12&#45;&gt;Node11 -->
<g id="edge18" class="edge">
<title>Node12&#45;&gt;Node11</title>
<path fill="none" stroke="midnightblue" d="M451.78,-56.44C480.33,-47.32 525.73,-32.81 557.54,-22.65"/>
<polygon fill="midnightblue" stroke="midnightblue" points="558.89,-25.89 567.35,-19.52 556.76,-19.23 558.89,-25.89"/>
</g>
<!-- Node13 -->
<g id="node13" class="node">
<title>Node13</title>
<g id="a_node13"><a xlink:title=" ">
<polygon fill="white" stroke="#bfbfbf" points="657,-0.5 657,-19.5 703,-19.5 703,-0.5 657,-0.5"/>
<text text-anchor="middle" x="680" y="-7.5" font-family="Helvetica,sans-Serif" font-size="10.00">cstdint</text>
</a>
</g>
</g>
<!-- Node12&#45;&gt;Node13 -->
<g id="edge12" class="edge">
<title>Node12&#45;&gt;Node13</title>
<path fill="none" stroke="midnightblue" d="M467.54,-57.4C510.46,-49.51 578.82,-36.35 646.94,-20.11"/>
<polygon fill="midnightblue" stroke="midnightblue" points="648.08,-23.44 656.98,-17.7 646.44,-16.63 648.08,-23.44"/>
</g>
<!-- Node14 -->
<g id="node14" class="node">
<title>Node14</title>
<g id="a_node14"><a xlink:title=" ">
<polygon fill="white" stroke="#bfbfbf" points="435.5,-0.5 435.5,-19.5 530.5,-19.5 530.5,-0.5 435.5,-0.5"/>
<text text-anchor="middle" x="483" y="-7.5" font-family="Helvetica,sans-Serif" font-size="10.00">vtkSmartPointer.h</text>
</a>
</g>
</g>
<!-- Node12&#45;&gt;Node14 -->
<g id="edge14" class="edge">
<title>Node12&#45;&gt;Node14</title>
<path fill="none" stroke="midnightblue" d="M434.32,-56.32C442.89,-48.34 455.81,-36.31 466.19,-26.65"/>
<polygon fill="midnightblue" stroke="midnightblue" points="468.58,-29.21 473.51,-19.83 463.81,-24.09 468.58,-29.21"/>
</g>
<!-- Node15 -->
<g id="node15" class="node">
<title>Node15</title>
<g id="a_node15"><a xlink:title=" ">
<polygon fill="white" stroke="#bfbfbf" points="304.5,-0.5 304.5,-19.5 417.5,-19.5 417.5,-0.5 304.5,-0.5"/>
<text text-anchor="middle" x="361" y="-7.5" font-family="Helvetica,sans-Serif" font-size="10.00">vtkMersenneTwister.h</text>
</a>
</g>
</g>
<!-- Node12&#45;&gt;Node15 -->
<g id="edge19" class="edge">
<title>Node12&#45;&gt;Node15</title>
<path fill="none" stroke="midnightblue" d="M414.72,-56.32C405.16,-48.26 390.72,-36.08 379.22,-26.37"/>
<polygon fill="midnightblue" stroke="midnightblue" points="381.37,-23.61 371.47,-19.83 376.86,-28.96 381.37,-23.61"/>
</g>
<!-- Node16&#45;&gt;Node8 -->
<g id="edge22" class="edge">
<title>Node16&#45;&gt;Node8</title>
<path fill="none" stroke="midnightblue" d="M691.89,-56.32C703.15,-48.11 720.29,-35.6 733.71,-25.81"/>
<polygon fill="midnightblue" stroke="midnightblue" points="735.88,-28.56 741.89,-19.83 731.75,-22.9 735.88,-28.56"/>
</g>
<!-- Node16&#45;&gt;Node13 -->
<g id="edge21" class="edge">
<title>Node16&#45;&gt;Node13</title>
<path fill="none" stroke="midnightblue" d="M680,-56.08C680,-49.01 680,-38.86 680,-29.99"/>
<polygon fill="midnightblue" stroke="midnightblue" points="683.5,-29.75 680,-19.75 676.5,-29.75 683.5,-29.75"/>
</g>
</g>
</svg>
