<?xml version="1.0" encoding="UTF-8" standalone="no"?>
<!DOCTYPE svg PUBLIC "-//W3C//DTD SVG 1.1//EN"
 "http://www.w3.org/Graphics/SVG/1.1/DTD/svg11.dtd">
<!-- Generated by graphviz version 2.44.1 (0)
 -->
<!-- Title: Connection::setSource Pages: 1 -->
<svg width="464pt" height="135pt"
 viewBox="0.00 0.00 464.00 135.00" xmlns="http://www.w3.org/2000/svg" xmlns:xlink="http://www.w3.org/1999/xlink">
<g id="graph0" class="graph" transform="scale(1 1) rotate(0) translate(4 131)">
<title>Connection::setSource</title>
<polygon fill="white" stroke="transparent" points="-4,4 -4,-131 460,-131 460,4 -4,4"/>
<!-- Node1 -->
<g id="node1" class="node">
<title>Node1</title>
<g id="a_node1"><a xlink:title="Set the pointer to the source touchpoint.">
<polygon fill="#bfbfbf" stroke="black" points="340,-44.5 340,-63.5 456,-63.5 456,-44.5 340,-44.5"/>
<text text-anchor="middle" x="398" y="-51.5" font-family="Helvetica,sans-Serif" font-size="10.00">Connection::setSource</text>
</a>
</g>
</g>
<!-- Node2 -->
<g id="node2" class="node">
<title>Node2</title>
<g id="a_node2"><a xlink:href="../../df/dfa/class_autowire_tool.html#ac4f7efcdb1dc1b668afa7273d832b7eb" target="_top" xlink:title="Remove all wiring connections.">
<polygon fill="white" stroke="black" points="149,-88.5 149,-107.5 304,-107.5 304,-88.5 149,-88.5"/>
<text text-anchor="middle" x="226.5" y="-95.5" font-family="Helvetica,sans-Serif" font-size="10.00">AutowireTool::clearConnections</text>
</a>
</g>
</g>
<!-- Node1&#45;&gt;Node2 -->
<g id="edge1" class="edge">
<title>Node1&#45;&gt;Node2</title>
<path fill="none" stroke="midnightblue" d="M350.53,-66.06C323.35,-73.12 289.51,-81.9 264.21,-88.47"/>
<polygon fill="midnightblue" stroke="midnightblue" points="351.42,-69.45 360.22,-63.55 349.66,-62.67 351.42,-69.45"/>
</g>
<!-- Node5 -->
<g id="node5" class="node">
<title>Node5</title>
<g id="a_node5"><a xlink:href="../../db/d46/class_touchpoint_registry.html#a18c09937c7361167f40db48812ea1afc" target="_top" xlink:title="Clear everything.">
<polygon fill="white" stroke="black" points="176,-39 176,-69 277,-69 277,-39 176,-39"/>
<text text-anchor="start" x="184" y="-57" font-family="Helvetica,sans-Serif" font-size="10.00">TouchpointRegistry</text>
<text text-anchor="middle" x="226.5" y="-46" font-family="Helvetica,sans-Serif" font-size="10.00">::reset</text>
</a>
</g>
</g>
<!-- Node1&#45;&gt;Node5 -->
<g id="edge4" class="edge">
<title>Node1&#45;&gt;Node5</title>
<path fill="none" stroke="midnightblue" d="M329.48,-54C312.02,-54 293.54,-54 277.17,-54"/>
<polygon fill="midnightblue" stroke="midnightblue" points="329.62,-57.5 339.62,-54 329.61,-50.5 329.62,-57.5"/>
</g>
<!-- Node6 -->
<g id="node6" class="node">
<title>Node6</title>
<g id="a_node6"><a xlink:href="../../d6/db5/class_scene.html#a30201c068436f1339f9709b778b19ee1" target="_top" xlink:title="Reset the whole scene and all actors.">
<polygon fill="white" stroke="black" points="176.5,-0.5 176.5,-19.5 276.5,-19.5 276.5,-0.5 176.5,-0.5"/>
<text text-anchor="middle" x="226.5" y="-7.5" font-family="Helvetica,sans-Serif" font-size="10.00">Scene::resetScene</text>
</a>
</g>
</g>
<!-- Node1&#45;&gt;Node6 -->
<g id="edge5" class="edge">
<title>Node1&#45;&gt;Node6</title>
<path fill="none" stroke="midnightblue" d="M352.4,-41.82C337.07,-37.69 319.8,-33.09 304,-29 291.81,-25.85 278.5,-22.51 266.45,-19.52"/>
<polygon fill="midnightblue" stroke="midnightblue" points="351.59,-45.23 362.15,-44.46 353.41,-38.47 351.59,-45.23"/>
</g>
<!-- Node3 -->
<g id="node3" class="node">
<title>Node3</title>
<g id="a_node3"><a xlink:href="../../df/dfa/class_autowire_tool.html#a78b35a48395b5502f8c00b373592678b" target="_top" xlink:title="Execute autowiring tool.">
<polygon fill="white" stroke="black" points="0,-107.5 0,-126.5 113,-126.5 113,-107.5 0,-107.5"/>
<text text-anchor="middle" x="56.5" y="-114.5" font-family="Helvetica,sans-Serif" font-size="10.00">AutowireTool::execute</text>
</a>
</g>
</g>
<!-- Node2&#45;&gt;Node3 -->
<g id="edge2" class="edge">
<title>Node2&#45;&gt;Node3</title>
<path fill="none" stroke="midnightblue" d="M138.77,-107.81C130.16,-108.78 121.59,-109.75 113.42,-110.68"/>
<polygon fill="midnightblue" stroke="midnightblue" points="139.33,-111.27 148.87,-106.67 138.54,-104.31 139.33,-111.27"/>
</g>
<!-- Node4 -->
<g id="node4" class="node">
<title>Node4</title>
<g id="a_node4"><a xlink:href="../../df/dfa/class_autowire_tool.html#a930afe6e270a14e16d88747ef371acf9" target="_top" xlink:title="Undo wiring.">
<polygon fill="white" stroke="black" points="6.5,-69.5 6.5,-88.5 106.5,-88.5 106.5,-69.5 6.5,-69.5"/>
<text text-anchor="middle" x="56.5" y="-76.5" font-family="Helvetica,sans-Serif" font-size="10.00">AutowireTool::undo</text>
</a>
</g>
</g>
<!-- Node2&#45;&gt;Node4 -->
<g id="edge3" class="edge">
<title>Node2&#45;&gt;Node4</title>
<path fill="none" stroke="midnightblue" d="M138.75,-88.19C127.72,-86.94 116.75,-85.7 106.61,-84.55"/>
<polygon fill="midnightblue" stroke="midnightblue" points="138.54,-91.69 148.87,-89.33 139.33,-84.73 138.54,-91.69"/>
</g>
</g>
</svg>
