<?xml version="1.0" encoding="UTF-8" standalone="no"?>
<!DOCTYPE svg PUBLIC "-//W3C//DTD SVG 1.1//EN"
 "http://www.w3.org/Graphics/SVG/1.1/DTD/svg11.dtd">
<!-- Generated by graphviz version 2.44.1 (0)
 -->
<!-- Title: Connection::setConnectionActor Pages: 1 -->
<svg width="483pt" height="204pt"
 viewBox="0.00 0.00 483.00 204.00" xmlns="http://www.w3.org/2000/svg" xmlns:xlink="http://www.w3.org/1999/xlink">
<g id="graph0" class="graph" transform="scale(1 1) rotate(0) translate(4 200)">
<title>Connection::setConnectionActor</title>
<polygon fill="white" stroke="transparent" points="-4,4 -4,-200 479,-200 479,4 -4,4"/>
<!-- Node1 -->
<g id="node1" class="node">
<title>Node1</title>
<g id="a_node1"><a xlink:title="Set the graphical representation (vtkActor) of the connection geometry.">
<polygon fill="#bfbfbf" stroke="black" points="340,-83 340,-113 475,-113 475,-83 340,-83"/>
<text text-anchor="start" x="348" y="-101" font-family="Helvetica,sans-Serif" font-size="10.00">Connection::setConnection</text>
<text text-anchor="middle" x="407.5" y="-90" font-family="Helvetica,sans-Serif" font-size="10.00">Actor</text>
</a>
</g>
</g>
<!-- Node2 -->
<g id="node2" class="node">
<title>Node2</title>
<g id="a_node2"><a xlink:href="../../df/dfa/class_autowire_tool.html#a45e5cdff2b089a3594c38021ef5d27a7" target="_top" xlink:title="Add wiring geometry of a connection to the scene (tubes)">
<polygon fill="white" stroke="black" points="154.5,-176.5 154.5,-195.5 298.5,-195.5 298.5,-176.5 154.5,-176.5"/>
<text text-anchor="middle" x="226.5" y="-183.5" font-family="Helvetica,sans-Serif" font-size="10.00">AutowireTool::addConnection</text>
</a>
</g>
</g>
<!-- Node1&#45;&gt;Node2 -->
<g id="edge1" class="edge">
<title>Node1&#45;&gt;Node2</title>
<path fill="none" stroke="midnightblue" d="M380.45,-119.31C360.58,-134.58 331.96,-154.58 304,-167 295.5,-170.78 286.11,-173.89 276.92,-176.42"/>
<polygon fill="midnightblue" stroke="midnightblue" points="382.68,-122 388.4,-113.08 378.37,-116.49 382.68,-122"/>
</g>
<!-- Node4 -->
<g id="node4" class="node">
<title>Node4</title>
<g id="a_node4"><a xlink:href="../../df/dfa/class_autowire_tool.html#a68dc0be6807c61b742a319c4f1509a0f" target="_top" xlink:title="Add wiring geometry of a connection to the scene (cubes) (For debugging)">
<polygon fill="white" stroke="black" points="154.5,-127 154.5,-157 298.5,-157 298.5,-127 154.5,-127"/>
<text text-anchor="start" x="162.5" y="-145" font-family="Helvetica,sans-Serif" font-size="10.00">AutowireTool::addConnection</text>
<text text-anchor="middle" x="226.5" y="-134" font-family="Helvetica,sans-Serif" font-size="10.00">Cubes</text>
</a>
</g>
</g>
<!-- Node1&#45;&gt;Node4 -->
<g id="edge3" class="edge">
<title>Node1&#45;&gt;Node4</title>
<path fill="none" stroke="midnightblue" d="M335.37,-115.49C319.9,-119.29 303.67,-123.28 288.63,-126.97"/>
<polygon fill="midnightblue" stroke="midnightblue" points="336.52,-118.81 345.4,-113.02 334.85,-112.01 336.52,-118.81"/>
</g>
<!-- Node5 -->
<g id="node5" class="node">
<title>Node5</title>
<g id="a_node5"><a xlink:href="../../df/dfa/class_autowire_tool.html#ac4f7efcdb1dc1b668afa7273d832b7eb" target="_top" xlink:title="Remove all wiring connections.">
<polygon fill="white" stroke="black" points="149,-88.5 149,-107.5 304,-107.5 304,-88.5 149,-88.5"/>
<text text-anchor="middle" x="226.5" y="-95.5" font-family="Helvetica,sans-Serif" font-size="10.00">AutowireTool::clearConnections</text>
</a>
</g>
</g>
<!-- Node1&#45;&gt;Node5 -->
<g id="edge4" class="edge">
<title>Node1&#45;&gt;Node5</title>
<path fill="none" stroke="midnightblue" d="M329.64,-98C321.2,-98 312.6,-98 304.16,-98"/>
<polygon fill="midnightblue" stroke="midnightblue" points="329.85,-101.5 339.85,-98 329.85,-94.5 329.85,-101.5"/>
</g>
<!-- Node7 -->
<g id="node7" class="node">
<title>Node7</title>
<g id="a_node7"><a xlink:href="../../db/d46/class_touchpoint_registry.html#a18c09937c7361167f40db48812ea1afc" target="_top" xlink:title="Clear everything.">
<polygon fill="white" stroke="black" points="176,-39 176,-69 277,-69 277,-39 176,-39"/>
<text text-anchor="start" x="184" y="-57" font-family="Helvetica,sans-Serif" font-size="10.00">TouchpointRegistry</text>
<text text-anchor="middle" x="226.5" y="-46" font-family="Helvetica,sans-Serif" font-size="10.00">::reset</text>
</a>
</g>
</g>
<!-- Node1&#45;&gt;Node7 -->
<g id="edge7" class="edge">
<title>Node1&#45;&gt;Node7</title>
<path fill="none" stroke="midnightblue" d="M335.59,-80.57C316,-75.75 295.16,-70.63 277.06,-66.18"/>
<polygon fill="midnightblue" stroke="midnightblue" points="334.85,-83.99 345.4,-82.98 336.52,-77.19 334.85,-83.99"/>
</g>
<!-- Node8 -->
<g id="node8" class="node">
<title>Node8</title>
<g id="a_node8"><a xlink:href="../../d6/db5/class_scene.html#a30201c068436f1339f9709b778b19ee1" target="_top" xlink:title="Reset the whole scene and all actors.">
<polygon fill="white" stroke="black" points="176.5,-0.5 176.5,-19.5 276.5,-19.5 276.5,-0.5 176.5,-0.5"/>
<text text-anchor="middle" x="226.5" y="-7.5" font-family="Helvetica,sans-Serif" font-size="10.00">Scene::resetScene</text>
</a>
</g>
</g>
<!-- Node1&#45;&gt;Node8 -->
<g id="edge8" class="edge">
<title>Node1&#45;&gt;Node8</title>
<path fill="none" stroke="midnightblue" d="M380.45,-76.69C360.58,-61.42 331.96,-41.42 304,-29 295.37,-25.17 285.84,-22.02 276.51,-19.47"/>
<polygon fill="midnightblue" stroke="midnightblue" points="378.37,-79.51 388.4,-82.92 382.68,-74 378.37,-79.51"/>
</g>
<!-- Node3 -->
<g id="node3" class="node">
<title>Node3</title>
<g id="a_node3"><a xlink:href="../../df/dfa/class_autowire_tool.html#a78b35a48395b5502f8c00b373592678b" target="_top" xlink:title="Execute autowiring tool.">
<polygon fill="white" stroke="black" points="0,-151.5 0,-170.5 113,-170.5 113,-151.5 0,-151.5"/>
<text text-anchor="middle" x="56.5" y="-158.5" font-family="Helvetica,sans-Serif" font-size="10.00">AutowireTool::execute</text>
</a>
</g>
</g>
<!-- Node2&#45;&gt;Node3 -->
<g id="edge2" class="edge">
<title>Node2&#45;&gt;Node3</title>
<path fill="none" stroke="midnightblue" d="M151.3,-174.96C138.46,-173.05 125.32,-171.09 113.08,-169.27"/>
<polygon fill="midnightblue" stroke="midnightblue" points="151.1,-178.47 161.51,-176.48 152.13,-171.54 151.1,-178.47"/>
</g>
<!-- Node5&#45;&gt;Node3 -->
<g id="edge5" class="edge">
<title>Node5&#45;&gt;Node3</title>
<path fill="none" stroke="midnightblue" d="M170.61,-110.18C163.27,-112.23 155.9,-114.51 149,-117 122.14,-126.68 92.63,-141.73 74.58,-151.47"/>
<polygon fill="midnightblue" stroke="midnightblue" points="171.78,-113.49 180.54,-107.54 169.98,-106.73 171.78,-113.49"/>
</g>
<!-- Node6 -->
<g id="node6" class="node">
<title>Node6</title>
<g id="a_node6"><a xlink:href="../../df/dfa/class_autowire_tool.html#a930afe6e270a14e16d88747ef371acf9" target="_top" xlink:title="Undo wiring.">
<polygon fill="white" stroke="black" points="6.5,-88.5 6.5,-107.5 106.5,-107.5 106.5,-88.5 6.5,-88.5"/>
<text text-anchor="middle" x="56.5" y="-95.5" font-family="Helvetica,sans-Serif" font-size="10.00">AutowireTool::undo</text>
</a>
</g>
</g>
<!-- Node5&#45;&gt;Node6 -->
<g id="edge6" class="edge">
<title>Node5&#45;&gt;Node6</title>
<path fill="none" stroke="midnightblue" d="M138.75,-98C127.72,-98 116.75,-98 106.61,-98"/>
<polygon fill="midnightblue" stroke="midnightblue" points="138.87,-101.5 148.87,-98 138.87,-94.5 138.87,-101.5"/>
</g>
</g>
</svg>
