<?xml version="1.0" encoding="UTF-8" standalone="no"?>
<!DOCTYPE svg PUBLIC "-//W3C//DTD SVG 1.1//EN"
 "http://www.w3.org/Graphics/SVG/1.1/DTD/svg11.dtd">
<!-- Generated by graphviz version 2.44.0 (0)
 -->
<!-- Title: Connection::getDestination Pages: 1 -->
<svg width="472pt" height="78pt"
 viewBox="0.00 0.00 472.00 77.50" xmlns="http://www.w3.org/2000/svg" xmlns:xlink="http://www.w3.org/1999/xlink">
<g id="graph0" class="graph" transform="scale(1 1) rotate(0) translate(4 73.5)">
<title>Connection::getDestination</title>
<polygon fill="white" stroke="transparent" points="-4,4 -4,-73.5 468,-73.5 468,4 -4,4"/>
<!-- Node1 -->
<g id="node1" class="node">
<title>Node1</title>
<g id="a_node1"><a xlink:title="Return the pointer to the destination connector.">
<polygon fill="#bfbfbf" stroke="black" points="329,-28 329,-47 464,-47 464,-28 329,-28"/>
<text text-anchor="middle" x="396.5" y="-35" font-family="Helvetica,sans-Serif" font-size="10.00">Connection::getDestination</text>
</a>
</g>
</g>
<!-- Node2 -->
<g id="node2" class="node">
<title>Node2</title>
<g id="a_node2"><a xlink:href="../../df/dfa/class_autowire_tool.html#a45e5cdff2b089a3594c38021ef5d27a7" target="_top" xlink:title="Add wiring geometry of a connection to the scene (tubes)">
<polygon fill="white" stroke="black" points="149,-50 149,-69 293,-69 293,-50 149,-50"/>
<text text-anchor="middle" x="221" y="-57" font-family="Helvetica,sans-Serif" font-size="10.00">AutowireTool::addConnection</text>
</a>
</g>
</g>
<!-- Node1&#45;&gt;Node2 -->
<g id="edge1" class="edge">
<title>Node1&#45;&gt;Node2</title>
<path fill="none" stroke="midnightblue" d="M318.9,-47.21C310.29,-48.3 301.55,-49.41 293.01,-50.5"/>
<polygon fill="midnightblue" stroke="midnightblue" points="319.44,-50.67 328.92,-45.94 318.56,-43.73 319.44,-50.67"/>
</g>
<!-- Node4 -->
<g id="node4" class="node">
<title>Node4</title>
<g id="a_node4"><a xlink:href="../../df/dfa/class_autowire_tool.html#a68dc0be6807c61b742a319c4f1509a0f" target="_top" xlink:title="Add wiring geometry of a connection to the scene (cubes)">
<polygon fill="white" stroke="black" points="149,-0.5 149,-30.5 293,-30.5 293,-0.5 149,-0.5"/>
<text text-anchor="start" x="157" y="-18.5" font-family="Helvetica,sans-Serif" font-size="10.00">AutowireTool::addConnection</text>
<text text-anchor="middle" x="221" y="-7.5" font-family="Helvetica,sans-Serif" font-size="10.00">Cubes</text>
</a>
</g>
</g>
<!-- Node1&#45;&gt;Node4 -->
<g id="edge3" class="edge">
<title>Node1&#45;&gt;Node4</title>
<path fill="none" stroke="midnightblue" d="M318.9,-27.79C310.29,-26.7 301.55,-25.59 293.01,-24.5"/>
<polygon fill="midnightblue" stroke="midnightblue" points="318.56,-31.27 328.92,-29.06 319.44,-24.33 318.56,-31.27"/>
</g>
<!-- Node3 -->
<g id="node3" class="node">
<title>Node3</title>
<g id="a_node3"><a xlink:href="../../df/dfa/class_autowire_tool.html#a78b35a48395b5502f8c00b373592678b" target="_top" xlink:title="Execute autowiring tool.">
<polygon fill="white" stroke="black" points="0,-50 0,-69 113,-69 113,-50 0,-50"/>
<text text-anchor="middle" x="56.5" y="-57" font-family="Helvetica,sans-Serif" font-size="10.00">AutowireTool::execute</text>
</a>
</g>
</g>
<!-- Node2&#45;&gt;Node3 -->
<g id="edge2" class="edge">
<title>Node2&#45;&gt;Node3</title>
<path fill="none" stroke="midnightblue" d="M138.61,-59.5C129.97,-59.5 121.33,-59.5 113.09,-59.5"/>
<polygon fill="midnightblue" stroke="midnightblue" points="138.73,-63 148.73,-59.5 138.73,-56 138.73,-63"/>
</g>
</g>
</svg>
