<?xml version="1.0" encoding="UTF-8" standalone="no"?>
<!DOCTYPE svg PUBLIC "-//W3C//DTD SVG 1.1//EN"
 "http://www.w3.org/Graphics/SVG/1.1/DTD/svg11.dtd">
<!-- Generated by graphviz version 2.44.1 (0)
 -->
<!-- Title: ExportOpenScadTool Pages: 1 -->
<svg width="139pt" height="369pt"
 viewBox="0.00 0.00 139.00 369.00" xmlns="http://www.w3.org/2000/svg" xmlns:xlink="http://www.w3.org/1999/xlink">
<g id="graph0" class="graph" transform="scale(1 1) rotate(0) translate(4 365)">
<title>ExportOpenScadTool</title>
<polygon fill="white" stroke="transparent" points="-4,4 -4,-365 135,-365 135,4 -4,4"/>
<!-- Node1 -->
<g id="node1" class="node">
<title>Node1</title>
<g id="a_node1"><a xlink:title="Tool for exporting a wired mesh to the openscad format.">
<polygon fill="#bfbfbf" stroke="black" points="0,-0.5 0,-167.5 131,-167.5 131,-0.5 0,-0.5"/>
<text text-anchor="middle" x="65.5" y="-155.5" font-family="Helvetica,sans-Serif" font-size="10.00">ExportOpenScadTool</text>
<polyline fill="none" stroke="black" points="0,-148.5 131,-148.5 "/>
<text text-anchor="start" x="8" y="-136.5" font-family="Helvetica,sans-Serif" font-size="10.00">&#45; filename</text>
<polyline fill="none" stroke="black" points="0,-129.5 131,-129.5 "/>
<text text-anchor="start" x="8" y="-117.5" font-family="Helvetica,sans-Serif" font-size="10.00">+ ExportOpenScadTool()</text>
<text text-anchor="start" x="8" y="-106.5" font-family="Helvetica,sans-Serif" font-size="10.00">+ execute()</text>
<text text-anchor="start" x="8" y="-95.5" font-family="Helvetica,sans-Serif" font-size="10.00">+ undo()</text>
<text text-anchor="start" x="8" y="-84.5" font-family="Helvetica,sans-Serif" font-size="10.00">+ setFilename()</text>
<text text-anchor="start" x="8" y="-73.5" font-family="Helvetica,sans-Serif" font-size="10.00">&#45; writeConnectionList()</text>
<text text-anchor="start" x="8" y="-62.5" font-family="Helvetica,sans-Serif" font-size="10.00">&#45; writeMesh()</text>
<text text-anchor="start" x="8" y="-51.5" font-family="Helvetica,sans-Serif" font-size="10.00">&#45; writeWiring()</text>
<text text-anchor="start" x="8" y="-40.5" font-family="Helvetica,sans-Serif" font-size="10.00">&#45; writeDifference()</text>
<text text-anchor="start" x="8" y="-29.5" font-family="Helvetica,sans-Serif" font-size="10.00">&#45; writeMagnets()</text>
<text text-anchor="start" x="8" y="-18.5" font-family="Helvetica,sans-Serif" font-size="10.00">&#45; writeDifferenceMagnets()</text>
<text text-anchor="start" x="8" y="-7.5" font-family="Helvetica,sans-Serif" font-size="10.00">&#45; writeComponents()</text>
</a>
</g>
</g>
<!-- Node2 -->
<g id="node2" class="node">
<title>Node2</title>
<g id="a_node2"><a xlink:href="../../da/db7/class_tool.html" target="_top" xlink:title="Base class for tools.">
<polygon fill="white" stroke="black" points="21,-204.5 21,-360.5 110,-360.5 110,-204.5 21,-204.5"/>
<text text-anchor="middle" x="65.5" y="-348.5" font-family="Helvetica,sans-Serif" font-size="10.00">Tool</text>
<polyline fill="none" stroke="black" points="21,-341.5 110,-341.5 "/>
<text text-anchor="start" x="29" y="-329.5" font-family="Helvetica,sans-Serif" font-size="10.00"># scene</text>
<text text-anchor="start" x="29" y="-318.5" font-family="Helvetica,sans-Serif" font-size="10.00"># toolName</text>
<text text-anchor="start" x="29" y="-307.5" font-family="Helvetica,sans-Serif" font-size="10.00"># toolID</text>
<polyline fill="none" stroke="black" points="21,-300.5 110,-300.5 "/>
<text text-anchor="start" x="29" y="-288.5" font-family="Helvetica,sans-Serif" font-size="10.00">+ Tool()</text>
<text text-anchor="start" x="29" y="-277.5" font-family="Helvetica,sans-Serif" font-size="10.00">+ ~Tool()</text>
<text text-anchor="start" x="29" y="-266.5" font-family="Helvetica,sans-Serif" font-size="10.00">+ execute()</text>
<text text-anchor="start" x="29" y="-255.5" font-family="Helvetica,sans-Serif" font-size="10.00">+ undo()</text>
<text text-anchor="start" x="29" y="-244.5" font-family="Helvetica,sans-Serif" font-size="10.00">+ getToolName()</text>
<text text-anchor="start" x="29" y="-233.5" font-family="Helvetica,sans-Serif" font-size="10.00">+ setToolName()</text>
<text text-anchor="start" x="29" y="-222.5" font-family="Helvetica,sans-Serif" font-size="10.00">+ getToolID()</text>
<text text-anchor="start" x="29" y="-211.5" font-family="Helvetica,sans-Serif" font-size="10.00">+ setToolID()</text>
</a>
</g>
</g>
<!-- Node2&#45;&gt;Node1 -->
<g id="edge1" class="edge">
<title>Node2&#45;&gt;Node1</title>
<path fill="none" stroke="midnightblue" d="M65.5,-194.15C65.5,-185.36 65.5,-176.45 65.5,-167.71"/>
<polygon fill="none" stroke="midnightblue" points="62,-194.4 65.5,-204.4 69,-194.4 62,-194.4"/>
</g>
</g>
</svg>
