<?xml version="1.0" encoding="UTF-8" standalone="no"?>
<!DOCTYPE svg PUBLIC "-//W3C//DTD SVG 1.1//EN"
 "http://www.w3.org/Graphics/SVG/1.1/DTD/svg11.dtd">
<!-- Generated by graphviz version 2.44.1 (0)
 -->
<!-- Title: edge.cpp Pages: 1 -->
<svg width="501pt" height="542pt"
 viewBox="0.00 0.00 501.00 542.00" xmlns="http://www.w3.org/2000/svg" xmlns:xlink="http://www.w3.org/1999/xlink">
<g id="graph0" class="graph" transform="scale(1 1) rotate(0) translate(4 538)">
<title>edge.cpp</title>
<polygon fill="white" stroke="transparent" points="-4,4 -4,-538 497,-538 497,4 -4,4"/>
<!-- Node1 -->
<g id="node1" class="node">
<title>Node1</title>
<g id="a_node1"><a xlink:title=" ">
<polygon fill="#bfbfbf" stroke="black" points="186.5,-514.5 186.5,-533.5 242.5,-533.5 242.5,-514.5 186.5,-514.5"/>
<text text-anchor="middle" x="214.5" y="-521.5" font-family="Helvetica,sans-Serif" font-size="10.00">edge.cpp</text>
</a>
</g>
</g>
<!-- Node2 -->
<g id="node2" class="node">
<title>Node2</title>
<g id="a_node2"><a xlink:href="../../db/dc3/edge_8h.html" target="_top" xlink:title=" ">
<polygon fill="white" stroke="black" points="229,-324.5 229,-354.5 344,-354.5 344,-324.5 229,-324.5"/>
<text text-anchor="start" x="237" y="-342.5" font-family="Helvetica,sans-Serif" font-size="10.00">helpers/include/TMesh</text>
<text text-anchor="middle" x="286.5" y="-331.5" font-family="Helvetica,sans-Serif" font-size="10.00">/edge.h</text>
</a>
</g>
</g>
<!-- Node1&#45;&gt;Node2 -->
<g id="edge1" class="edge">
<title>Node1&#45;&gt;Node2</title>
<path fill="none" stroke="midnightblue" d="M219.43,-514.2C224.34,-505.24 231.94,-490.89 237.5,-478 254.33,-439.01 270.12,-392.14 279.03,-364.42"/>
<polygon fill="midnightblue" stroke="midnightblue" points="282.39,-365.38 282.09,-354.79 275.72,-363.26 282.39,-365.38"/>
</g>
<!-- Node14 -->
<g id="node14" class="node">
<title>Node14</title>
<g id="a_node14"><a xlink:href="../../dd/d6a/triangle_8h.html" target="_top" xlink:title=" ">
<polygon fill="white" stroke="black" points="114,-447.5 114,-477.5 229,-477.5 229,-447.5 114,-447.5"/>
<text text-anchor="start" x="122" y="-465.5" font-family="Helvetica,sans-Serif" font-size="10.00">helpers/include/TMesh</text>
<text text-anchor="middle" x="171.5" y="-454.5" font-family="Helvetica,sans-Serif" font-size="10.00">/triangle.h</text>
</a>
</g>
</g>
<!-- Node1&#45;&gt;Node14 -->
<g id="edge20" class="edge">
<title>Node1&#45;&gt;Node14</title>
<path fill="none" stroke="midnightblue" d="M208.34,-514.48C202.95,-507.02 194.88,-495.85 187.67,-485.87"/>
<polygon fill="midnightblue" stroke="midnightblue" points="190.33,-483.58 181.63,-477.52 184.65,-487.68 190.33,-483.58"/>
</g>
<!-- Node3 -->
<g id="node3" class="node">
<title>Node3</title>
<g id="a_node3"><a xlink:href="../../dc/dcc/basics_8h.html" target="_top" xlink:title=" ">
<polygon fill="white" stroke="black" points="254,-123.5 254,-153.5 367,-153.5 367,-123.5 254,-123.5"/>
<text text-anchor="start" x="262" y="-141.5" font-family="Helvetica,sans-Serif" font-size="10.00">helpers/include/Kernel</text>
<text text-anchor="middle" x="310.5" y="-130.5" font-family="Helvetica,sans-Serif" font-size="10.00">/basics.h</text>
</a>
</g>
</g>
<!-- Node2&#45;&gt;Node3 -->
<g id="edge2" class="edge">
<title>Node2&#45;&gt;Node3</title>
<path fill="none" stroke="midnightblue" d="M294.83,-324.48C300.18,-314.64 306.64,-300.98 309.5,-288 318.95,-245.14 316.27,-193.61 313.42,-163.89"/>
<polygon fill="midnightblue" stroke="midnightblue" points="316.87,-163.22 312.34,-153.64 309.91,-163.95 316.87,-163.22"/>
</g>
<!-- Node11 -->
<g id="node11" class="node">
<title>Node11</title>
<g id="a_node11"><a xlink:href="../../df/d37/vertex_8h.html" target="_top" xlink:title=" ">
<polygon fill="white" stroke="black" points="186,-257.5 186,-287.5 301,-287.5 301,-257.5 186,-257.5"/>
<text text-anchor="start" x="194" y="-275.5" font-family="Helvetica,sans-Serif" font-size="10.00">helpers/include/TMesh</text>
<text text-anchor="middle" x="243.5" y="-264.5" font-family="Helvetica,sans-Serif" font-size="10.00">/vertex.h</text>
</a>
</g>
</g>
<!-- Node2&#45;&gt;Node11 -->
<g id="edge14" class="edge">
<title>Node2&#45;&gt;Node11</title>
<path fill="none" stroke="midnightblue" d="M277.17,-324.4C271.7,-316.13 264.67,-305.51 258.45,-296.1"/>
<polygon fill="midnightblue" stroke="midnightblue" points="261.25,-293.99 252.81,-287.58 255.41,-297.85 261.25,-293.99"/>
</g>
<!-- Node4 -->
<g id="node4" class="node">
<title>Node4</title>
<g id="a_node4"><a xlink:title=" ">
<polygon fill="white" stroke="#bfbfbf" points="144.5,-0.5 144.5,-19.5 190.5,-19.5 190.5,-0.5 144.5,-0.5"/>
<text text-anchor="middle" x="167.5" y="-7.5" font-family="Helvetica,sans-Serif" font-size="10.00">stdio.h</text>
</a>
</g>
</g>
<!-- Node3&#45;&gt;Node4 -->
<g id="edge3" class="edge">
<title>Node3&#45;&gt;Node4</title>
<path fill="none" stroke="midnightblue" d="M294.65,-123.48C267.76,-99.69 213.4,-51.6 185.26,-26.71"/>
<polygon fill="midnightblue" stroke="midnightblue" points="187.24,-23.79 177.43,-19.79 182.61,-29.04 187.24,-23.79"/>
</g>
<!-- Node5 -->
<g id="node5" class="node">
<title>Node5</title>
<g id="a_node5"><a xlink:title=" ">
<polygon fill="white" stroke="#bfbfbf" points="446,-0.5 446,-19.5 493,-19.5 493,-0.5 446,-0.5"/>
<text text-anchor="middle" x="469.5" y="-7.5" font-family="Helvetica,sans-Serif" font-size="10.00">math.h</text>
</a>
</g>
</g>
<!-- Node3&#45;&gt;Node5 -->
<g id="edge4" class="edge">
<title>Node3&#45;&gt;Node5</title>
<path fill="none" stroke="midnightblue" d="M367.13,-135.31C402.38,-130.67 445.28,-118.36 468.5,-87 480.62,-70.63 478.49,-46.36 474.88,-29.68"/>
<polygon fill="midnightblue" stroke="midnightblue" points="478.16,-28.37 472.31,-19.53 471.37,-30.09 478.16,-28.37"/>
</g>
<!-- Node6 -->
<g id="node6" class="node">
<title>Node6</title>
<g id="a_node6"><a xlink:title=" ">
<polygon fill="white" stroke="#bfbfbf" points="415.5,-62 415.5,-81 459.5,-81 459.5,-62 415.5,-62"/>
<text text-anchor="middle" x="437.5" y="-69" font-family="Helvetica,sans-Serif" font-size="10.00">time.h</text>
</a>
</g>
</g>
<!-- Node3&#45;&gt;Node6 -->
<g id="edge5" class="edge">
<title>Node3&#45;&gt;Node6</title>
<path fill="none" stroke="midnightblue" d="M338.06,-123.4C359.95,-112.19 390.33,-96.64 411.74,-85.69"/>
<polygon fill="midnightblue" stroke="midnightblue" points="413.57,-88.68 420.88,-81.01 410.38,-82.45 413.57,-88.68"/>
</g>
<!-- Node7 -->
<g id="node7" class="node">
<title>Node7</title>
<g id="a_node7"><a xlink:title=" ">
<polygon fill="white" stroke="#bfbfbf" points="362.5,-0.5 362.5,-19.5 410.5,-19.5 410.5,-0.5 362.5,-0.5"/>
<text text-anchor="middle" x="386.5" y="-7.5" font-family="Helvetica,sans-Serif" font-size="10.00">limits.h</text>
</a>
</g>
</g>
<!-- Node3&#45;&gt;Node7 -->
<g id="edge6" class="edge">
<title>Node3&#45;&gt;Node7</title>
<path fill="none" stroke="midnightblue" d="M332.58,-123.43C344.94,-114.45 359.59,-101.74 368.5,-87 379.11,-69.44 383.46,-46.1 385.25,-29.93"/>
<polygon fill="midnightblue" stroke="midnightblue" points="388.77,-29.89 386.15,-19.62 381.8,-29.28 388.77,-29.89"/>
</g>
<!-- Node8 -->
<g id="node8" class="node">
<title>Node8</title>
<g id="a_node8"><a xlink:title=" ">
<polygon fill="white" stroke="#bfbfbf" points="233.5,-0.5 233.5,-19.5 277.5,-19.5 277.5,-0.5 233.5,-0.5"/>
<text text-anchor="middle" x="255.5" y="-7.5" font-family="Helvetica,sans-Serif" font-size="10.00">float.h</text>
</a>
</g>
</g>
<!-- Node3&#45;&gt;Node8 -->
<g id="edge7" class="edge">
<title>Node3&#45;&gt;Node8</title>
<path fill="none" stroke="midnightblue" d="M298.64,-123.3C291.07,-113.61 281.57,-100.18 275.5,-87 266.96,-68.45 261.57,-45.61 258.56,-29.84"/>
<polygon fill="midnightblue" stroke="midnightblue" points="261.97,-29.01 256.79,-19.77 255.08,-30.23 261.97,-29.01"/>
</g>
<!-- Node9 -->
<g id="node9" class="node">
<title>Node9</title>
<g id="a_node9"><a xlink:href="../../dd/da0/coordinates_8h.html" target="_top" xlink:title=" ">
<polygon fill="white" stroke="black" points="284,-62 284,-81 359,-81 359,-62 284,-62"/>
<text text-anchor="middle" x="321.5" y="-69" font-family="Helvetica,sans-Serif" font-size="10.00">coordinates.h</text>
</a>
</g>
</g>
<!-- Node3&#45;&gt;Node9 -->
<g id="edge8" class="edge">
<title>Node3&#45;&gt;Node9</title>
<path fill="none" stroke="midnightblue" d="M312.89,-123.4C314.48,-113.96 316.6,-101.45 318.34,-91.19"/>
<polygon fill="midnightblue" stroke="midnightblue" points="321.81,-91.64 320.03,-81.19 314.91,-90.47 321.81,-91.64"/>
</g>
<!-- Node9&#45;&gt;Node4 -->
<g id="edge9" class="edge">
<title>Node9&#45;&gt;Node4</title>
<path fill="none" stroke="midnightblue" d="M299.44,-61.98C273.13,-51.81 228.99,-34.76 199.08,-23.2"/>
<polygon fill="midnightblue" stroke="midnightblue" points="200.11,-19.85 189.52,-19.51 197.59,-26.38 200.11,-19.85"/>
</g>
<!-- Node9&#45;&gt;Node5 -->
<g id="edge10" class="edge">
<title>Node9&#45;&gt;Node5</title>
<path fill="none" stroke="midnightblue" d="M342.7,-61.98C367.87,-51.86 410.04,-34.9 438.78,-23.35"/>
<polygon fill="midnightblue" stroke="midnightblue" points="440.36,-26.49 448.33,-19.51 437.75,-19.99 440.36,-26.49"/>
</g>
<!-- Node9&#45;&gt;Node7 -->
<g id="edge11" class="edge">
<title>Node9&#45;&gt;Node7</title>
<path fill="none" stroke="midnightblue" d="M330.81,-61.98C340.95,-52.7 357.36,-37.67 369.75,-26.33"/>
<polygon fill="midnightblue" stroke="midnightblue" points="372.19,-28.84 377.2,-19.51 367.46,-23.68 372.19,-28.84"/>
</g>
<!-- Node9&#45;&gt;Node8 -->
<g id="edge12" class="edge">
<title>Node9&#45;&gt;Node8</title>
<path fill="none" stroke="midnightblue" d="M312.04,-61.98C301.75,-52.7 285.08,-37.67 272.51,-26.33"/>
<polygon fill="midnightblue" stroke="midnightblue" points="274.71,-23.61 264.94,-19.51 270.02,-28.8 274.71,-23.61"/>
</g>
<!-- Node10 -->
<g id="node10" class="node">
<title>Node10</title>
<g id="a_node10"><a xlink:title=" ">
<polygon fill="white" stroke="#bfbfbf" points="298.5,-0.5 298.5,-19.5 344.5,-19.5 344.5,-0.5 298.5,-0.5"/>
<text text-anchor="middle" x="321.5" y="-7.5" font-family="Helvetica,sans-Serif" font-size="10.00">cstdint</text>
</a>
</g>
</g>
<!-- Node9&#45;&gt;Node10 -->
<g id="edge13" class="edge">
<title>Node9&#45;&gt;Node10</title>
<path fill="none" stroke="midnightblue" d="M321.5,-61.98C321.5,-53.58 321.5,-40.48 321.5,-29.66"/>
<polygon fill="midnightblue" stroke="midnightblue" points="325,-29.51 321.5,-19.51 318,-29.51 325,-29.51"/>
</g>
<!-- Node11&#45;&gt;Node3 -->
<g id="edge15" class="edge">
<title>Node11&#45;&gt;Node3</title>
<path fill="none" stroke="midnightblue" d="M250.67,-257.37C262.16,-234.75 284.79,-190.14 298.69,-162.76"/>
<polygon fill="midnightblue" stroke="midnightblue" points="301.98,-164.03 303.38,-153.52 295.73,-160.86 301.98,-164.03"/>
</g>
<!-- Node12 -->
<g id="node12" class="node">
<title>Node12</title>
<g id="a_node12"><a xlink:href="../../da/d23/list_8h.html" target="_top" xlink:title=" ">
<polygon fill="white" stroke="black" points="0,-56.5 0,-86.5 113,-86.5 113,-56.5 0,-56.5"/>
<text text-anchor="start" x="8" y="-74.5" font-family="Helvetica,sans-Serif" font-size="10.00">helpers/include/Kernel</text>
<text text-anchor="middle" x="56.5" y="-63.5" font-family="Helvetica,sans-Serif" font-size="10.00">/list.h</text>
</a>
</g>
</g>
<!-- Node11&#45;&gt;Node12 -->
<g id="edge16" class="edge">
<title>Node11&#45;&gt;Node12</title>
<path fill="none" stroke="midnightblue" d="M245.66,-257.32C247.53,-239.77 248,-209.77 233.5,-190 210.69,-158.88 187.18,-174.52 154.5,-154 126.3,-136.29 97.38,-111.24 78.34,-93.59"/>
<polygon fill="midnightblue" stroke="midnightblue" points="80.5,-90.82 70.82,-86.53 75.71,-95.93 80.5,-90.82"/>
</g>
<!-- Node13 -->
<g id="node13" class="node">
<title>Node13</title>
<g id="a_node13"><a xlink:href="../../d2/d91/point_8h.html" target="_top" xlink:title=" ">
<polygon fill="white" stroke="black" points="112,-190.5 112,-220.5 225,-220.5 225,-190.5 112,-190.5"/>
<text text-anchor="start" x="120" y="-208.5" font-family="Helvetica,sans-Serif" font-size="10.00">helpers/include/Kernel</text>
<text text-anchor="middle" x="168.5" y="-197.5" font-family="Helvetica,sans-Serif" font-size="10.00">/point.h</text>
</a>
</g>
</g>
<!-- Node11&#45;&gt;Node13 -->
<g id="edge18" class="edge">
<title>Node11&#45;&gt;Node13</title>
<path fill="none" stroke="midnightblue" d="M227.23,-257.4C217.1,-248.62 203.9,-237.18 192.58,-227.37"/>
<polygon fill="midnightblue" stroke="midnightblue" points="194.59,-224.48 184.74,-220.58 190.01,-229.77 194.59,-224.48"/>
</g>
<!-- Node12&#45;&gt;Node4 -->
<g id="edge17" class="edge">
<title>Node12&#45;&gt;Node4</title>
<path fill="none" stroke="midnightblue" d="M82.81,-56.4C100.76,-46.77 124.42,-34.09 142.17,-24.58"/>
<polygon fill="midnightblue" stroke="midnightblue" points="144.19,-27.47 151.35,-19.66 140.88,-21.3 144.19,-27.47"/>
</g>
<!-- Node13&#45;&gt;Node3 -->
<g id="edge19" class="edge">
<title>Node13&#45;&gt;Node3</title>
<path fill="none" stroke="midnightblue" d="M199.31,-190.4C220.15,-180.86 247.88,-168.16 270.43,-157.84"/>
<polygon fill="midnightblue" stroke="midnightblue" points="272.11,-160.92 279.75,-153.58 269.2,-154.56 272.11,-160.92"/>
</g>
<!-- Node15 -->
<g id="node15" class="node">
<title>Node15</title>
<g id="a_node15"><a xlink:href="../../d3/d0f/tmesh_8h.html" target="_top" xlink:title=" ">
<polygon fill="white" stroke="black" points="145.5,-391.5 145.5,-410.5 197.5,-410.5 197.5,-391.5 145.5,-391.5"/>
<text text-anchor="middle" x="171.5" y="-398.5" font-family="Helvetica,sans-Serif" font-size="10.00">tmesh.h</text>
</a>
</g>
</g>
<!-- Node14&#45;&gt;Node15 -->
<g id="edge21" class="edge">
<title>Node14&#45;&gt;Node15</title>
<path fill="none" stroke="midnightblue" d="M165.66,-447.4C164.63,-439.38 164.47,-429.23 165.19,-420.57"/>
<polygon fill="midnightblue" stroke="midnightblue" points="168.66,-421.04 166.57,-410.66 161.73,-420.08 168.66,-421.04"/>
</g>
<!-- Node15&#45;&gt;Node2 -->
<g id="edge32" class="edge">
<title>Node15&#45;&gt;Node2</title>
<path fill="none" stroke="midnightblue" d="M187.98,-391.48C204.21,-383.08 229.54,-369.97 250.45,-359.15"/>
<polygon fill="midnightblue" stroke="midnightblue" points="252.12,-362.23 259.4,-354.52 248.91,-356.01 252.12,-362.23"/>
</g>
<!-- Node15&#45;&gt;Node11 -->
<g id="edge31" class="edge">
<title>Node15&#45;&gt;Node11</title>
<path fill="none" stroke="midnightblue" d="M176.45,-391.31C187.41,-372.05 214.04,-325.25 230.25,-296.78"/>
<polygon fill="midnightblue" stroke="midnightblue" points="233.41,-298.31 235.31,-287.89 227.32,-294.85 233.41,-298.31"/>
</g>
<!-- Node15&#45;&gt;Node14 -->
<g id="edge33" class="edge">
<title>Node15&#45;&gt;Node14</title>
<path fill="none" stroke="midnightblue" d="M176.43,-410.66C177.93,-417.65 178.51,-427.86 178.14,-437.29"/>
<polygon fill="midnightblue" stroke="midnightblue" points="174.64,-437.15 177.34,-447.4 181.62,-437.71 174.64,-437.15"/>
</g>
<!-- Node16 -->
<g id="node16" class="node">
<title>Node16</title>
<g id="a_node16"><a xlink:href="../../d9/dad/tmesh__kernel_8h.html" target="_top" xlink:title=" ">
<polygon fill="white" stroke="black" points="27,-257.5 27,-287.5 140,-287.5 140,-257.5 27,-257.5"/>
<text text-anchor="start" x="35" y="-275.5" font-family="Helvetica,sans-Serif" font-size="10.00">helpers/include/Kernel</text>
<text text-anchor="middle" x="83.5" y="-264.5" font-family="Helvetica,sans-Serif" font-size="10.00">/tmesh_kernel.h</text>
</a>
</g>
</g>
<!-- Node15&#45;&gt;Node16 -->
<g id="edge22" class="edge">
<title>Node15&#45;&gt;Node16</title>
<path fill="none" stroke="midnightblue" d="M169.69,-391.36C166.26,-376.52 157.79,-345.71 142.5,-324 134.47,-312.61 123.31,-302.18 112.85,-293.8"/>
<polygon fill="midnightblue" stroke="midnightblue" points="114.75,-290.85 104.69,-287.53 110.49,-296.4 114.75,-290.85"/>
</g>
<!-- Node18 -->
<g id="node18" class="node">
<title>Node18</title>
<g id="a_node18"><a xlink:href="../../d5/dc3/tin_8h.html" target="_top" xlink:title=" ">
<polygon fill="white" stroke="black" points="19,-324.5 19,-354.5 134,-354.5 134,-324.5 19,-324.5"/>
<text text-anchor="start" x="27" y="-342.5" font-family="Helvetica,sans-Serif" font-size="10.00">helpers/include/TMesh</text>
<text text-anchor="middle" x="76.5" y="-331.5" font-family="Helvetica,sans-Serif" font-size="10.00">/tin.h</text>
</a>
</g>
</g>
<!-- Node15&#45;&gt;Node18 -->
<g id="edge34" class="edge">
<title>Node15&#45;&gt;Node18</title>
<path fill="none" stroke="midnightblue" d="M152.99,-391.48C138.23,-383.34 117.69,-370.79 101.53,-360.18"/>
<polygon fill="midnightblue" stroke="midnightblue" points="103.32,-357.17 93.06,-354.52 99.43,-362.99 103.32,-357.17"/>
</g>
<!-- Node16&#45;&gt;Node3 -->
<g id="edge23" class="edge">
<title>Node16&#45;&gt;Node3</title>
<path fill="none" stroke="midnightblue" d="M82.62,-257.3C82.32,-239.15 84.71,-207.96 102.5,-190 112.65,-179.76 186.92,-163.38 243.85,-152.06"/>
<polygon fill="midnightblue" stroke="midnightblue" points="244.77,-155.45 253.9,-150.08 243.41,-148.58 244.77,-155.45"/>
</g>
<!-- Node16&#45;&gt;Node12 -->
<g id="edge24" class="edge">
<title>Node16&#45;&gt;Node12</title>
<path fill="none" stroke="midnightblue" d="M74.62,-257.08C69.12,-247.3 62.53,-233.85 59.5,-221 49.41,-178.27 51.41,-126.7 53.89,-96.94"/>
<polygon fill="midnightblue" stroke="midnightblue" points="57.4,-96.95 54.84,-86.67 50.43,-96.3 57.4,-96.95"/>
</g>
<!-- Node16&#45;&gt;Node13 -->
<g id="edge25" class="edge">
<title>Node16&#45;&gt;Node13</title>
<path fill="none" stroke="midnightblue" d="M101.94,-257.4C113.64,-248.45 128.96,-236.74 141.95,-226.8"/>
<polygon fill="midnightblue" stroke="midnightblue" points="144.27,-229.43 150.09,-220.58 140.02,-223.87 144.27,-229.43"/>
</g>
<!-- Node17 -->
<g id="node17" class="node">
<title>Node17</title>
<g id="a_node17"><a xlink:href="../../dd/df4/matrix_8h.html" target="_top" xlink:title=" ">
<polygon fill="white" stroke="black" points="163.5,-129 163.5,-148 215.5,-148 215.5,-129 163.5,-129"/>
<text text-anchor="middle" x="189.5" y="-136" font-family="Helvetica,sans-Serif" font-size="10.00">matrix.h</text>
</a>
</g>
</g>
<!-- Node16&#45;&gt;Node17 -->
<g id="edge26" class="edge">
<title>Node16&#45;&gt;Node17</title>
<path fill="none" stroke="midnightblue" d="M75.4,-257.28C66.73,-239.94 55.92,-210.45 69.5,-190 88.04,-162.08 125.37,-149.56 153.49,-143.97"/>
<polygon fill="midnightblue" stroke="midnightblue" points="154.16,-147.41 163.39,-142.21 152.93,-140.51 154.16,-147.41"/>
</g>
<!-- Node17&#45;&gt;Node4 -->
<g id="edge27" class="edge">
<title>Node17&#45;&gt;Node4</title>
<path fill="none" stroke="midnightblue" d="M184,-128.99C178.08,-119.29 169.05,-102.72 165.5,-87 161.15,-67.73 162.57,-45.01 164.5,-29.47"/>
<polygon fill="midnightblue" stroke="midnightblue" points="167.97,-29.96 165.92,-19.57 161.04,-28.97 167.97,-29.96"/>
</g>
<!-- Node17&#45;&gt;Node8 -->
<g id="edge28" class="edge">
<title>Node17&#45;&gt;Node8</title>
<path fill="none" stroke="midnightblue" d="M194.04,-128.81C204.77,-108.22 231.92,-56.19 246.28,-28.68"/>
<polygon fill="midnightblue" stroke="midnightblue" points="249.41,-30.24 250.93,-19.76 243.2,-27 249.41,-30.24"/>
</g>
<!-- Node17&#45;&gt;Node9 -->
<g id="edge29" class="edge">
<title>Node17&#45;&gt;Node9</title>
<path fill="none" stroke="midnightblue" d="M207.03,-128.87C229.51,-117.8 268.73,-98.49 294.9,-85.6"/>
<polygon fill="midnightblue" stroke="midnightblue" points="296.47,-88.72 303.9,-81.17 293.38,-82.44 296.47,-88.72"/>
</g>
<!-- Node17&#45;&gt;Node12 -->
<g id="edge30" class="edge">
<title>Node17&#45;&gt;Node12</title>
<path fill="none" stroke="midnightblue" d="M171.84,-128.87C152.14,-119.24 119.7,-103.39 94.23,-90.94"/>
<polygon fill="midnightblue" stroke="midnightblue" points="95.72,-87.77 85.2,-86.53 92.65,-94.06 95.72,-87.77"/>
</g>
<!-- Node18&#45;&gt;Node15 -->
<g id="edge35" class="edge">
<title>Node18&#45;&gt;Node15</title>
<path fill="none" stroke="midnightblue" d="M104.72,-354.52C120.96,-363.93 140.69,-376.28 154.59,-385.74"/>
<polygon fill="midnightblue" stroke="midnightblue" points="152.59,-388.61 162.79,-391.48 156.6,-382.87 152.59,-388.61"/>
</g>
</g>
</svg>
