<?xml version="1.0" encoding="UTF-8" standalone="no"?>
<!DOCTYPE svg PUBLIC "-//W3C//DTD SVG 1.1//EN"
 "http://www.w3.org/Graphics/SVG/1.1/DTD/svg11.dtd">
<!-- Generated by graphviz version 2.44.1 (0)
 -->
<!-- Title: FreehandAddFinalPointCallback::Execute Pages: 1 -->
<svg width="902pt" height="949pt"
 viewBox="0.00 0.00 902.00 949.00" xmlns="http://www.w3.org/2000/svg" xmlns:xlink="http://www.w3.org/1999/xlink">
<g id="graph0" class="graph" transform="scale(1 1) rotate(0) translate(4 945)">
<title>FreehandAddFinalPointCallback::Execute</title>
<polygon fill="white" stroke="transparent" points="-4,4 -4,-945 898,-945 898,4 -4,4"/>
<!-- Node1 -->
<g id="node1" class="node">
<title>Node1</title>
<g id="a_node1"><a xlink:title="Overwritten callback method, which is executed when the left mouse button is pressed.">
<polygon fill="#bfbfbf" stroke="black" points="0,-627 0,-657 156,-657 156,-627 0,-627"/>
<text text-anchor="start" x="8" y="-645" font-family="Helvetica,sans-Serif" font-size="10.00">FreehandAddFinalPointCallback</text>
<text text-anchor="middle" x="78" y="-634" font-family="Helvetica,sans-Serif" font-size="10.00">::Execute</text>
</a>
</g>
</g>
<!-- Node2 -->
<g id="node2" class="node">
<title>Node2</title>
<g id="a_node2"><a xlink:href="../../d6/db5/class_scene.html#a68d5e73ae04e190548aa66ab701814b7" target="_top" xlink:title="Add a touchpoint to the scene (which is subsequently added to the touchpoint registry)">
<polygon fill="white" stroke="black" points="216,-921.5 216,-940.5 329,-940.5 329,-921.5 216,-921.5"/>
<text text-anchor="middle" x="272.5" y="-928.5" font-family="Helvetica,sans-Serif" font-size="10.00">Scene::addTouchpoint</text>
</a>
</g>
</g>
<!-- Node1&#45;&gt;Node2 -->
<g id="edge1" class="edge">
<title>Node1&#45;&gt;Node2</title>
<path fill="none" stroke="midnightblue" d="M80.59,-657C86.29,-702.85 109.92,-842.23 192,-912 196.26,-915.62 201.09,-918.57 206.21,-920.98"/>
<polygon fill="midnightblue" stroke="midnightblue" points="205.1,-924.31 215.69,-924.76 207.69,-917.81 205.1,-924.31"/>
</g>
<!-- Node3 -->
<g id="node3" class="node">
<title>Node3</title>
<g id="a_node3"><a xlink:href="../../d9/d4f/namespace_layout_algorithms.html#a53c2fbff4e31119750be8ef36e324d03" target="_top" xlink:title="Computes the closest point on a mesh in relation to another point.">
<polygon fill="white" stroke="black" points="204.5,-872 204.5,-902 340.5,-902 340.5,-872 204.5,-872"/>
<text text-anchor="start" x="212.5" y="-890" font-family="Helvetica,sans-Serif" font-size="10.00">LayoutAlgorithms::compute</text>
<text text-anchor="middle" x="272.5" y="-879" font-family="Helvetica,sans-Serif" font-size="10.00">ClosestPointOnMesh</text>
</a>
</g>
</g>
<!-- Node1&#45;&gt;Node3 -->
<g id="edge2" class="edge">
<title>Node1&#45;&gt;Node3</title>
<path fill="none" stroke="midnightblue" d="M82.38,-657.2C92.06,-697.15 123.69,-805.97 192,-863 193.54,-864.28 195.14,-865.5 196.8,-866.64"/>
<polygon fill="midnightblue" stroke="midnightblue" points="195.12,-869.72 205.49,-871.86 198.72,-863.72 195.12,-869.72"/>
</g>
<!-- Node5 -->
<g id="node5" class="node">
<title>Node5</title>
<g id="a_node5"><a xlink:href="../../d9/d4f/namespace_layout_algorithms.html#ad165a81c391eaa466ebce1da720ee6b5" target="_top" xlink:title="Computes a wiring entry point in world coordinates for a sphere shaped touchpoint geometry.">
<polygon fill="white" stroke="black" points="204.5,-823 204.5,-853 340.5,-853 340.5,-823 204.5,-823"/>
<text text-anchor="start" x="212.5" y="-841" font-family="Helvetica,sans-Serif" font-size="10.00">LayoutAlgorithms::compute</text>
<text text-anchor="middle" x="272.5" y="-830" font-family="Helvetica,sans-Serif" font-size="10.00">ConnectionPointSphere</text>
</a>
</g>
</g>
<!-- Node1&#45;&gt;Node5 -->
<g id="edge4" class="edge">
<title>Node1&#45;&gt;Node5</title>
<path fill="none" stroke="midnightblue" d="M85.42,-657.13C99.83,-689.35 137.76,-765.3 192,-808 197.02,-811.95 202.62,-815.43 208.45,-818.47"/>
<polygon fill="midnightblue" stroke="midnightblue" points="207.24,-821.77 217.77,-822.91 210.25,-815.45 207.24,-821.77"/>
</g>
<!-- Node6 -->
<g id="node6" class="node">
<title>Node6</title>
<g id="a_node6"><a xlink:href="../../d6/db5/class_scene.html#accf5c16477aba3397a083ded76f2c5f5" target="_top" xlink:title="Return the geometric data (vtkPolyData) of the mesh.">
<polygon fill="white" stroke="black" points="403,-806.5 403,-825.5 531,-825.5 531,-806.5 403,-806.5"/>
<text text-anchor="middle" x="467" y="-813.5" font-family="Helvetica,sans-Serif" font-size="10.00">Scene::getMeshPolyData</text>
</a>
</g>
</g>
<!-- Node1&#45;&gt;Node6 -->
<g id="edge7" class="edge">
<title>Node1&#45;&gt;Node6</title>
<path fill="none" stroke="midnightblue" d="M86.88,-657.04C102.62,-685.42 140.89,-746.58 192,-775 225.5,-793.63 323.53,-804.96 392.72,-810.85"/>
<polygon fill="midnightblue" stroke="midnightblue" points="392.46,-814.34 402.71,-811.68 393.04,-807.37 392.46,-814.34"/>
</g>
<!-- Node7 -->
<g id="node7" class="node">
<title>Node7</title>
<g id="a_node7"><a xlink:href="../../d6/db5/class_scene.html#af79815a5c6a4ce9bf26106c5e103b950" target="_top" xlink:title="Return the actual contour widget.">
<polygon fill="white" stroke="black" points="208,-746.5 208,-765.5 337,-765.5 337,-746.5 208,-746.5"/>
<text text-anchor="middle" x="272.5" y="-753.5" font-family="Helvetica,sans-Serif" font-size="10.00">Scene::getContourWidget</text>
</a>
</g>
</g>
<!-- Node1&#45;&gt;Node7 -->
<g id="edge6" class="edge">
<title>Node1&#45;&gt;Node7</title>
<path fill="none" stroke="midnightblue" d="M92.4,-657.01C112.11,-678.13 151.03,-716.35 192,-737 196.63,-739.34 201.56,-741.39 206.61,-743.2"/>
<polygon fill="midnightblue" stroke="midnightblue" points="205.83,-746.63 216.43,-746.38 207.99,-739.97 205.83,-746.63"/>
</g>
<!-- Node8 -->
<g id="node8" class="node">
<title>Node8</title>
<g id="a_node8"><a xlink:href="../../d6/db5/class_scene.html#a9c15511eba6900e36681315c7e5911c5" target="_top" xlink:title="Return the scaled size of the mesh (in mm)">
<polygon fill="white" stroke="black" points="207,-708.5 207,-727.5 338,-727.5 338,-708.5 207,-708.5"/>
<text text-anchor="middle" x="272.5" y="-715.5" font-family="Helvetica,sans-Serif" font-size="10.00">Scene::getMeshScalesize</text>
</a>
</g>
</g>
<!-- Node1&#45;&gt;Node8 -->
<g id="edge8" class="edge">
<title>Node1&#45;&gt;Node8</title>
<path fill="none" stroke="midnightblue" d="M104.71,-657.15C127.13,-669.81 160.84,-687.6 192,-699 198.87,-701.52 206.2,-703.79 213.52,-705.81"/>
<polygon fill="midnightblue" stroke="midnightblue" points="212.9,-709.27 223.46,-708.42 214.68,-702.5 212.9,-709.27"/>
</g>
<!-- Node9 -->
<g id="node9" class="node">
<title>Node9</title>
<g id="a_node9"><a xlink:href="../../d6/db5/class_scene.html#a8bf8e4b441886787dc82c2caa9b25884" target="_top" xlink:title="Return the vtkRenderer of the scene.">
<polygon fill="white" stroke="black" points="220.5,-670.5 220.5,-689.5 324.5,-689.5 324.5,-670.5 220.5,-670.5"/>
<text text-anchor="middle" x="272.5" y="-677.5" font-family="Helvetica,sans-Serif" font-size="10.00">Scene::getRenderer</text>
</a>
</g>
</g>
<!-- Node1&#45;&gt;Node9 -->
<g id="edge9" class="edge">
<title>Node1&#45;&gt;Node9</title>
<path fill="none" stroke="midnightblue" d="M155.08,-657.02C174.5,-660.85 195.07,-664.91 213.42,-668.54"/>
<polygon fill="midnightblue" stroke="midnightblue" points="212.88,-672 223.37,-670.5 214.24,-665.13 212.88,-672"/>
</g>
<!-- Node10 -->
<g id="node10" class="node">
<title>Node10</title>
<g id="a_node10"><a xlink:href="../../d6/db5/class_scene.html#a180c8577946667c192ae08462fab006a" target="_top" xlink:title="Return the vtk render window of the application.">
<polygon fill="white" stroke="black" points="207,-632.5 207,-651.5 338,-651.5 338,-632.5 207,-632.5"/>
<text text-anchor="middle" x="272.5" y="-639.5" font-family="Helvetica,sans-Serif" font-size="10.00">Scene::getRenderWindow</text>
</a>
</g>
</g>
<!-- Node1&#45;&gt;Node10 -->
<g id="edge10" class="edge">
<title>Node1&#45;&gt;Node10</title>
<path fill="none" stroke="midnightblue" d="M156.19,-642C169.61,-642 183.54,-642 196.89,-642"/>
<polygon fill="midnightblue" stroke="midnightblue" points="196.97,-645.5 206.97,-642 196.97,-638.5 196.97,-645.5"/>
</g>
<!-- Node11 -->
<g id="node11" class="node">
<title>Node11</title>
<g id="a_node11"><a xlink:href="../../d6/db5/class_scene.html#a7e5ee53ea01ef113afaaf4b7c10accf3" target="_top" xlink:title="Return the voxel grid image data.">
<polygon fill="white" stroke="black" points="412.5,-704.5 412.5,-723.5 521.5,-723.5 521.5,-704.5 412.5,-704.5"/>
<text text-anchor="middle" x="467" y="-711.5" font-family="Helvetica,sans-Serif" font-size="10.00">Scene::getVoxelData</text>
</a>
</g>
</g>
<!-- Node1&#45;&gt;Node11 -->
<g id="edge11" class="edge">
<title>Node1&#45;&gt;Node11</title>
<path fill="none" stroke="midnightblue" d="M101.25,-626.9C151.17,-595.08 273.92,-528.52 353,-585 393.14,-613.67 353.63,-655.61 389,-690 393.08,-693.97 397.8,-697.28 402.86,-700.04"/>
<polygon fill="midnightblue" stroke="midnightblue" points="401.73,-703.38 412.27,-704.45 404.7,-697.04 401.73,-703.38"/>
</g>
<!-- Node12 -->
<g id="node12" class="node">
<title>Node12</title>
<g id="a_node12"><a xlink:href="../../d6/db5/class_scene.html#af78767d0af348d25ddf80ef8cfe1f67a" target="_top" xlink:title="Return dimensions of the voxel data.">
<polygon fill="white" stroke="black" points="192,-594.5 192,-613.5 353,-613.5 353,-594.5 192,-594.5"/>
<text text-anchor="middle" x="272.5" y="-601.5" font-family="Helvetica,sans-Serif" font-size="10.00">Scene::getVoxelDataDimensions</text>
</a>
</g>
</g>
<!-- Node1&#45;&gt;Node12 -->
<g id="edge12" class="edge">
<title>Node1&#45;&gt;Node12</title>
<path fill="none" stroke="midnightblue" d="M155.08,-626.98C174.5,-623.15 195.07,-619.09 213.42,-615.46"/>
<polygon fill="midnightblue" stroke="midnightblue" points="214.24,-618.87 223.37,-613.5 212.88,-612 214.24,-618.87"/>
</g>
<!-- Node13 -->
<g id="node13" class="node">
<title>Node13</title>
<g id="a_node13"><a xlink:href="../../d6/db5/class_scene.html#a7caf30a70e69430d5e4ac93d6828a649" target="_top" xlink:title="Return the bounds of the voxel grid.">
<polygon fill="white" stroke="black" points="204,-430.5 204,-449.5 341,-449.5 341,-430.5 204,-430.5"/>
<text text-anchor="middle" x="272.5" y="-437.5" font-family="Helvetica,sans-Serif" font-size="10.00">Scene::getVoxelgridBounds</text>
</a>
</g>
</g>
<!-- Node1&#45;&gt;Node13 -->
<g id="edge14" class="edge">
<title>Node1&#45;&gt;Node13</title>
<path fill="none" stroke="midnightblue" d="M90.52,-627C110.22,-601.68 152.15,-549.27 192,-509 211.16,-489.64 234.95,-469.44 251.49,-455.94"/>
<polygon fill="midnightblue" stroke="midnightblue" points="253.84,-458.53 259.42,-449.52 249.44,-453.09 253.84,-458.53"/>
</g>
<!-- Node15 -->
<g id="node15" class="node">
<title>Node15</title>
<g id="a_node15"><a xlink:href="../../d1/d7c/namespace_utils.html#a4b6c4a605143b128db1c74f39d0277ef" target="_top" xlink:title="Compute voxel grid integer index equivalent from world coordinate.">
<polygon fill="white" stroke="black" points="229.5,-218.5 229.5,-237.5 315.5,-237.5 315.5,-218.5 229.5,-218.5"/>
<text text-anchor="middle" x="272.5" y="-225.5" font-family="Helvetica,sans-Serif" font-size="10.00">Utils::posToCell</text>
</a>
</g>
</g>
<!-- Node1&#45;&gt;Node15 -->
<g id="edge16" class="edge">
<title>Node1&#45;&gt;Node15</title>
<path fill="none" stroke="midnightblue" d="M82.78,-626.79C94.64,-580.54 133.8,-438.26 192,-332 210.15,-298.86 238.26,-264.9 255.73,-245.17"/>
<polygon fill="midnightblue" stroke="midnightblue" points="258.43,-247.4 262.51,-237.62 253.22,-242.72 258.43,-247.4"/>
</g>
<!-- Node17 -->
<g id="node17" class="node">
<title>Node17</title>
<g id="a_node17"><a xlink:href="../../d6/db5/class_scene.html#a0955ff290776412f925da730a9f8058c" target="_top" xlink:title="Update the cuberille visualization after changes to the underlying voxel data.">
<polygon fill="white" stroke="black" points="199.5,-518.5 199.5,-537.5 345.5,-537.5 345.5,-518.5 199.5,-518.5"/>
<text text-anchor="middle" x="272.5" y="-525.5" font-family="Helvetica,sans-Serif" font-size="10.00">Scene::updateCuberilleActors</text>
</a>
</g>
</g>
<!-- Node1&#45;&gt;Node17 -->
<g id="edge18" class="edge">
<title>Node1&#45;&gt;Node17</title>
<path fill="none" stroke="midnightblue" d="M94.1,-626.79C114.6,-606.95 153.13,-572.38 192,-552 200.53,-547.53 210.02,-543.76 219.39,-540.62"/>
<polygon fill="midnightblue" stroke="midnightblue" points="220.57,-543.92 229.06,-537.59 218.48,-537.24 220.57,-543.92"/>
</g>
<!-- Node27 -->
<g id="node27" class="node">
<title>Node27</title>
<g id="a_node27"><a xlink:href="../../d6/db5/class_scene.html#aaff4c55f5c640ec8a12b62c5b6c11865" target="_top" xlink:title="Update the touchpoint / connector number text labels.">
<polygon fill="white" stroke="black" points="218.5,-57.5 218.5,-76.5 326.5,-76.5 326.5,-57.5 218.5,-57.5"/>
<text text-anchor="middle" x="272.5" y="-64.5" font-family="Helvetica,sans-Serif" font-size="10.00">Scene::updateLabels</text>
</a>
</g>
</g>
<!-- Node1&#45;&gt;Node27 -->
<g id="edge34" class="edge">
<title>Node1&#45;&gt;Node27</title>
<path fill="none" stroke="midnightblue" d="M81.48,-626.99C91.1,-570.57 128.59,-366.47 192,-209 210.89,-162.08 242.24,-111.35 259.38,-85.07"/>
<polygon fill="midnightblue" stroke="midnightblue" points="262.42,-86.83 265.01,-76.55 256.58,-82.97 262.42,-86.83"/>
</g>
<!-- Node32 -->
<g id="node32" class="node">
<title>Node32</title>
<g id="a_node32"><a xlink:href="../../d6/db5/class_scene.html#a415555bc0037489b1a9421747c318746" target="_top" xlink:title="Update the occupation map visualization after changes to the underlying voxel data.">
<polygon fill="white" stroke="black" points="198.5,-341 198.5,-371 346.5,-371 346.5,-341 198.5,-341"/>
<text text-anchor="start" x="206.5" y="-359" font-family="Helvetica,sans-Serif" font-size="10.00">Scene::updateOccupationMap</text>
<text text-anchor="middle" x="272.5" y="-348" font-family="Helvetica,sans-Serif" font-size="10.00">Actor</text>
</a>
</g>
</g>
<!-- Node1&#45;&gt;Node32 -->
<g id="edge40" class="edge">
<title>Node1&#45;&gt;Node32</title>
<path fill="none" stroke="midnightblue" d="M84.26,-626.82C97.81,-589.13 136.79,-489.41 192,-421 205.51,-404.26 223.94,-388.86 239.66,-377.26"/>
<polygon fill="midnightblue" stroke="midnightblue" points="241.99,-379.9 248.06,-371.22 237.9,-374.21 241.99,-379.9"/>
</g>
<!-- Node4 -->
<g id="node4" class="node">
<title>Node4</title>
<g id="a_node4"><a xlink:href="../../d1/d7c/namespace_utils.html#a752598d95d8825b2e95a57a2f35ba55f" target="_top" xlink:title="Compute voxel grid integer index equivalent from world coordinate.">
<polygon fill="white" stroke="black" points="391,-872 391,-902 543,-902 543,-872 391,-872"/>
<text text-anchor="start" x="399" y="-890" font-family="Helvetica,sans-Serif" font-size="10.00">Utils::getMeshWorldCoordinate</text>
<text text-anchor="middle" x="467" y="-879" font-family="Helvetica,sans-Serif" font-size="10.00">Bounds</text>
</a>
</g>
</g>
<!-- Node3&#45;&gt;Node4 -->
<g id="edge3" class="edge">
<title>Node3&#45;&gt;Node4</title>
<path fill="none" stroke="midnightblue" d="M340.56,-887C353.53,-887 367.28,-887 380.74,-887"/>
<polygon fill="midnightblue" stroke="midnightblue" points="380.96,-890.5 390.96,-887 380.96,-883.5 380.96,-890.5"/>
</g>
<!-- Node5&#45;&gt;Node6 -->
<g id="edge5" class="edge">
<title>Node5&#45;&gt;Node6</title>
<path fill="none" stroke="midnightblue" d="M340.56,-830.34C357.43,-828.41 375.62,-826.33 392.78,-824.37"/>
<polygon fill="midnightblue" stroke="midnightblue" points="393.2,-827.84 402.74,-823.23 392.41,-820.89 393.2,-827.84"/>
</g>
<!-- Node12&#45;&gt;Node11 -->
<g id="edge13" class="edge">
<title>Node12&#45;&gt;Node11</title>
<path fill="none" stroke="midnightblue" d="M336.18,-613.51C342.2,-615.99 347.94,-619.1 353,-623 379.78,-643.62 362.93,-668.48 389,-690 394.03,-694.15 399.78,-697.59 405.82,-700.43"/>
<polygon fill="midnightblue" stroke="midnightblue" points="404.92,-703.84 415.5,-704.43 407.59,-697.37 404.92,-703.84"/>
</g>
<!-- Node14 -->
<g id="node14" class="node">
<title>Node14</title>
<g id="a_node14"><a xlink:href="../../d6/db5/class_scene.html#a0799bb0687ffe3a97e0523a4e700ef2d" target="_top" xlink:title="Return the occupation map visualization.">
<polygon fill="white" stroke="black" points="389.5,-403.5 389.5,-422.5 544.5,-422.5 544.5,-403.5 389.5,-403.5"/>
<text text-anchor="middle" x="467" y="-410.5" font-family="Helvetica,sans-Serif" font-size="10.00">Scene::getOccupationMapActor</text>
</a>
</g>
</g>
<!-- Node13&#45;&gt;Node14 -->
<g id="edge15" class="edge">
<title>Node13&#45;&gt;Node14</title>
<path fill="none" stroke="midnightblue" d="M341.1,-430.52C356.29,-428.39 372.54,-426.11 388.12,-423.92"/>
<polygon fill="midnightblue" stroke="midnightblue" points="388.82,-427.36 398.24,-422.5 387.85,-420.43 388.82,-427.36"/>
</g>
<!-- Node16 -->
<g id="node16" class="node">
<title>Node16</title>
<g id="a_node16"><a xlink:href="../../d1/d7c/namespace_utils.html#ac9b063fc04e0a4e5501c8ed0af96ac47" target="_top" xlink:title="Clamp integer value between min and max.">
<polygon fill="white" stroke="black" points="427,-114.5 427,-133.5 507,-133.5 507,-114.5 427,-114.5"/>
<text text-anchor="middle" x="467" y="-121.5" font-family="Helvetica,sans-Serif" font-size="10.00">Utils::clampInt</text>
</a>
</g>
</g>
<!-- Node15&#45;&gt;Node16 -->
<g id="edge17" class="edge">
<title>Node15&#45;&gt;Node16</title>
<path fill="none" stroke="midnightblue" d="M283.78,-218.42C302.96,-201.03 346.18,-164.23 389,-144 397.71,-139.88 407.39,-136.52 416.87,-133.82"/>
<polygon fill="midnightblue" stroke="midnightblue" points="417.86,-137.18 426.62,-131.23 416.06,-130.41 417.86,-137.18"/>
</g>
<!-- Node18 -->
<g id="node18" class="node">
<title>Node18</title>
<g id="a_node18"><a xlink:href="../../db/dae/class_voxel_image_visualizer.html#a9d6ddcce68efaea01bfacaa932f27d9a" target="_top" xlink:title="Return RGB color cube output visualization.">
<polygon fill="white" stroke="black" points="600,-666 600,-696 710,-696 710,-666 600,-666"/>
<text text-anchor="start" x="608" y="-684" font-family="Helvetica,sans-Serif" font-size="10.00">VoxelImageVisualizer</text>
<text text-anchor="middle" x="655" y="-673" font-family="Helvetica,sans-Serif" font-size="10.00">::getColorOutput</text>
</a>
</g>
</g>
<!-- Node17&#45;&gt;Node18 -->
<g id="edge19" class="edge">
<title>Node17&#45;&gt;Node18</title>
<path fill="none" stroke="midnightblue" d="M317,-537.58C329.94,-542.24 343.25,-549.06 353,-559 385.48,-592.13 352.19,-628.75 389,-657 419.37,-680.31 521.49,-683.49 589.73,-682.84"/>
<polygon fill="midnightblue" stroke="midnightblue" points="590,-686.34 599.96,-682.72 589.91,-679.34 590,-686.34"/>
</g>
<!-- Node21 -->
<g id="node21" class="node">
<title>Node21</title>
<g id="a_node21"><a xlink:href="../../db/dae/class_voxel_image_visualizer.html#a279e821afcfbef7cb624c391eec3b7a4" target="_top" xlink:title="Return visualization of the mesh interior only.">
<polygon fill="white" stroke="black" points="412,-617 412,-647 522,-647 522,-617 412,-617"/>
<text text-anchor="start" x="420" y="-635" font-family="Helvetica,sans-Serif" font-size="10.00">VoxelImageVisualizer</text>
<text text-anchor="middle" x="467" y="-624" font-family="Helvetica,sans-Serif" font-size="10.00">::getInteriorOutput</text>
</a>
</g>
</g>
<!-- Node17&#45;&gt;Node21 -->
<g id="edge22" class="edge">
<title>Node17&#45;&gt;Node21</title>
<path fill="none" stroke="midnightblue" d="M323.33,-537.61C333.73,-541.06 344.2,-545.72 353,-552 375.29,-567.91 367.35,-585.23 389,-602 394.06,-605.92 399.7,-609.39 405.55,-612.44"/>
<polygon fill="midnightblue" stroke="midnightblue" points="404.36,-615.74 414.89,-616.89 407.37,-609.43 404.36,-615.74"/>
</g>
<!-- Node23 -->
<g id="node23" class="node">
<title>Node23</title>
<g id="a_node23"><a xlink:href="../../db/dae/class_voxel_image_visualizer.html#a00b60f629dcc3335bff26934e88b9bcb" target="_top" xlink:title="Return the occupation map visualization (unoccupied = yellow, occupied = blue)">
<polygon fill="white" stroke="black" points="597.5,-519 597.5,-549 712.5,-549 712.5,-519 597.5,-519"/>
<text text-anchor="start" x="605.5" y="-537" font-family="Helvetica,sans-Serif" font-size="10.00">VoxelImageVisualizer</text>
<text text-anchor="middle" x="655" y="-526" font-family="Helvetica,sans-Serif" font-size="10.00">::getOccupationOutput</text>
</a>
</g>
</g>
<!-- Node17&#45;&gt;Node23 -->
<g id="edge26" class="edge">
<title>Node17&#45;&gt;Node23</title>
<path fill="none" stroke="midnightblue" d="M345.58,-530.04C359.96,-530.4 374.96,-530.74 389,-531 456.53,-532.26 533.74,-533.06 587.33,-533.52"/>
<polygon fill="midnightblue" stroke="midnightblue" points="587.36,-537.02 597.39,-533.6 587.42,-530.02 587.36,-537.02"/>
</g>
<!-- Node24 -->
<g id="node24" class="node">
<title>Node24</title>
<g id="a_node24"><a xlink:href="../../db/dae/class_voxel_image_visualizer.html#a5f41640feebb9f49204b777abb09fec2" target="_top" xlink:title="Return visualization with VOXEL_OUTSIDE = &quot;White&quot;, VOXEL_OCCUPIED = &quot;Red&quot;, VOXEL_SHELL = &quot;Yellow&quot;,...">
<polygon fill="white" stroke="black" points="589.5,-568 589.5,-598 720.5,-598 720.5,-568 589.5,-568"/>
<text text-anchor="start" x="597.5" y="-586" font-family="Helvetica,sans-Serif" font-size="10.00">VoxelImageVisualizer</text>
<text text-anchor="middle" x="655" y="-575" font-family="Helvetica,sans-Serif" font-size="10.00">::getShellAndInsideOutput</text>
</a>
</g>
</g>
<!-- Node17&#45;&gt;Node24 -->
<g id="edge29" class="edge">
<title>Node17&#45;&gt;Node24</title>
<path fill="none" stroke="midnightblue" d="M333.42,-537.52C351.29,-540.31 370.93,-543.33 389,-546 453.22,-555.49 526.29,-565.64 579.42,-572.91"/>
<polygon fill="midnightblue" stroke="midnightblue" points="579.05,-576.39 589.43,-574.28 580,-569.45 579.05,-576.39"/>
</g>
<!-- Node25 -->
<g id="node25" class="node">
<title>Node25</title>
<g id="a_node25"><a xlink:href="../../db/dae/class_voxel_image_visualizer.html#a15634f5a62fd0d71806741d1db033243" target="_top" xlink:title="Set input data of the visualizer.">
<polygon fill="white" stroke="black" points="412,-442 412,-472 522,-472 522,-442 412,-442"/>
<text text-anchor="start" x="420" y="-460" font-family="Helvetica,sans-Serif" font-size="10.00">VoxelImageVisualizer</text>
<text text-anchor="middle" x="467" y="-449" font-family="Helvetica,sans-Serif" font-size="10.00">::setInputData</text>
</a>
</g>
</g>
<!-- Node17&#45;&gt;Node25 -->
<g id="edge32" class="edge">
<title>Node17&#45;&gt;Node25</title>
<path fill="none" stroke="midnightblue" d="M296.34,-518.39C319.52,-508.76 356.52,-493.73 389,-482 395.22,-479.76 401.75,-477.49 408.27,-475.29"/>
<polygon fill="midnightblue" stroke="midnightblue" points="409.4,-478.61 417.78,-472.12 407.18,-471.96 409.4,-478.61"/>
</g>
<!-- Node26 -->
<g id="node26" class="node">
<title>Node26</title>
<g id="a_node26"><a xlink:href="../../db/dae/class_voxel_image_visualizer.html#a65eec474a368555a6ba16c1f54e956db" target="_top" xlink:title="Set output size of the visualization.">
<polygon fill="white" stroke="black" points="412,-491 412,-521 522,-521 522,-491 412,-491"/>
<text text-anchor="start" x="420" y="-509" font-family="Helvetica,sans-Serif" font-size="10.00">VoxelImageVisualizer</text>
<text text-anchor="middle" x="467" y="-498" font-family="Helvetica,sans-Serif" font-size="10.00">::setOutputSize</text>
</a>
</g>
</g>
<!-- Node17&#45;&gt;Node26 -->
<g id="edge33" class="edge">
<title>Node17&#45;&gt;Node26</title>
<path fill="none" stroke="midnightblue" d="M345.73,-519.75C364.1,-517.65 383.71,-515.4 401.66,-513.35"/>
<polygon fill="midnightblue" stroke="midnightblue" points="402.18,-516.82 411.72,-512.2 401.39,-509.86 402.18,-516.82"/>
</g>
<!-- Node19 -->
<g id="node19" class="node">
<title>Node19</title>
<g id="a_node19"><a xlink:href="../../db/dae/class_voxel_image_visualizer.html#a381e70e9dba0cad1fddf946aa7f4a408" target="_top" xlink:title="Compute scaling factor for visualization actor.">
<polygon fill="white" stroke="black" points="774.5,-570 774.5,-600 884.5,-600 884.5,-570 774.5,-570"/>
<text text-anchor="start" x="782.5" y="-588" font-family="Helvetica,sans-Serif" font-size="10.00">VoxelImageVisualizer</text>
<text text-anchor="middle" x="829.5" y="-577" font-family="Helvetica,sans-Serif" font-size="10.00">::getScaleValue</text>
</a>
</g>
</g>
<!-- Node18&#45;&gt;Node19 -->
<g id="edge20" class="edge">
<title>Node18&#45;&gt;Node19</title>
<path fill="none" stroke="midnightblue" d="M710.37,-667.16C716.94,-664.34 723.32,-660.99 729,-657 750.25,-642.08 744.3,-626.66 765,-611 767.93,-608.79 771.07,-606.73 774.33,-604.82"/>
<polygon fill="midnightblue" stroke="midnightblue" points="776,-607.9 783.19,-600.12 772.72,-601.72 776,-607.9"/>
</g>
<!-- Node20 -->
<g id="node20" class="node">
<title>Node20</title>
<g id="a_node20"><a xlink:href="../../db/dae/class_voxel_image_visualizer.html#a2cf2e268d83ea28ea097a557b4e66fcd" target="_top" xlink:title="Compute 1D linearized index from 3D&#45;coodinate index.">
<polygon fill="white" stroke="black" points="765,-620.5 765,-639.5 894,-639.5 894,-620.5 765,-620.5"/>
<text text-anchor="middle" x="829.5" y="-627.5" font-family="Helvetica,sans-Serif" font-size="10.00">VoxelImageVisualizer::idx</text>
</a>
</g>
</g>
<!-- Node18&#45;&gt;Node20 -->
<g id="edge21" class="edge">
<title>Node18&#45;&gt;Node20</title>
<path fill="none" stroke="midnightblue" d="M706.82,-665.97C732.13,-658.49 762.36,-649.56 786.35,-642.46"/>
<polygon fill="midnightblue" stroke="midnightblue" points="787.63,-645.73 796.22,-639.54 785.64,-639.02 787.63,-645.73"/>
</g>
<!-- Node22 -->
<g id="node22" class="node">
<title>Node22</title>
<g id="a_node22"><a xlink:href="../../db/dae/class_voxel_image_visualizer.html#a266b4be6343bb49d53b4af2c9e7df310" target="_top" xlink:title=" ">
<polygon fill="white" stroke="black" points="600,-617 600,-647 710,-647 710,-617 600,-617"/>
<text text-anchor="start" x="608" y="-635" font-family="Helvetica,sans-Serif" font-size="10.00">VoxelImageVisualizer</text>
<text text-anchor="middle" x="655" y="-624" font-family="Helvetica,sans-Serif" font-size="10.00">::getShellOutput</text>
</a>
</g>
</g>
<!-- Node21&#45;&gt;Node22 -->
<g id="edge23" class="edge">
<title>Node21&#45;&gt;Node22</title>
<path fill="none" stroke="midnightblue" d="M522.05,-632C543.16,-632 567.54,-632 589.56,-632"/>
<polygon fill="midnightblue" stroke="midnightblue" points="589.82,-635.5 599.82,-632 589.82,-628.5 589.82,-635.5"/>
</g>
<!-- Node22&#45;&gt;Node19 -->
<g id="edge24" class="edge">
<title>Node22&#45;&gt;Node19</title>
<path fill="none" stroke="midnightblue" d="M710.11,-617.26C727.36,-612.56 746.62,-607.31 764.51,-602.43"/>
<polygon fill="midnightblue" stroke="midnightblue" points="765.56,-605.78 774.29,-599.77 763.72,-599.02 765.56,-605.78"/>
</g>
<!-- Node22&#45;&gt;Node20 -->
<g id="edge25" class="edge">
<title>Node22&#45;&gt;Node20</title>
<path fill="none" stroke="midnightblue" d="M710.11,-631.37C724.24,-631.21 739.71,-631.03 754.67,-630.86"/>
<polygon fill="midnightblue" stroke="midnightblue" points="754.97,-634.35 764.93,-630.74 754.89,-627.35 754.97,-634.35"/>
</g>
<!-- Node23&#45;&gt;Node19 -->
<g id="edge27" class="edge">
<title>Node23&#45;&gt;Node19</title>
<path fill="none" stroke="midnightblue" d="M706.82,-549.03C726.04,-554.71 748.1,-561.23 768.11,-567.14"/>
<polygon fill="midnightblue" stroke="midnightblue" points="767.16,-570.51 777.74,-569.99 769.15,-563.8 767.16,-570.51"/>
</g>
<!-- Node23&#45;&gt;Node20 -->
<g id="edge28" class="edge">
<title>Node23&#45;&gt;Node20</title>
<path fill="none" stroke="midnightblue" d="M712.07,-549.06C718.07,-551.86 723.85,-555.14 729,-559 751.2,-575.64 742.59,-593.64 765,-610 768.27,-612.39 771.83,-614.49 775.54,-616.35"/>
<polygon fill="midnightblue" stroke="midnightblue" points="774.44,-619.69 785,-620.49 777.24,-613.28 774.44,-619.69"/>
</g>
<!-- Node24&#45;&gt;Node19 -->
<g id="edge30" class="edge">
<title>Node24&#45;&gt;Node19</title>
<path fill="none" stroke="midnightblue" d="M720.72,-583.75C734.96,-583.92 750.02,-584.09 764.24,-584.25"/>
<polygon fill="midnightblue" stroke="midnightblue" points="764.37,-587.76 774.41,-584.37 764.45,-580.76 764.37,-587.76"/>
</g>
<!-- Node24&#45;&gt;Node20 -->
<g id="edge31" class="edge">
<title>Node24&#45;&gt;Node20</title>
<path fill="none" stroke="midnightblue" d="M711.05,-598C734.48,-604.38 761.46,-611.73 783.65,-617.78"/>
<polygon fill="midnightblue" stroke="midnightblue" points="782.91,-621.2 793.47,-620.46 784.75,-614.45 782.91,-621.2"/>
</g>
<!-- Node28 -->
<g id="node28" class="node">
<title>Node28</title>
<g id="a_node28"><a xlink:href="../../d9/d58/class_touchpoint.html#ab61727c9bb477bccca373f92a2b8bea4" target="_top" xlink:title="Return the touchpoint number label text actor.">
<polygon fill="white" stroke="black" points="404.5,-76.5 404.5,-95.5 529.5,-95.5 529.5,-76.5 404.5,-76.5"/>
<text text-anchor="middle" x="467" y="-83.5" font-family="Helvetica,sans-Serif" font-size="10.00">Touchpoint::getTextActor</text>
</a>
</g>
</g>
<!-- Node27&#45;&gt;Node28 -->
<g id="edge35" class="edge">
<title>Node27&#45;&gt;Node28</title>
<path fill="none" stroke="midnightblue" d="M326.61,-72.24C347.46,-74.3 371.71,-76.69 394.08,-78.9"/>
<polygon fill="midnightblue" stroke="midnightblue" points="393.91,-82.4 404.21,-79.9 394.6,-75.44 393.91,-82.4"/>
</g>
<!-- Node29 -->
<g id="node29" class="node">
<title>Node29</title>
<g id="a_node29"><a xlink:href="../../d6/db5/class_scene.html#ae4bdf05105a36057e86693a0f60afbd3" target="_top" xlink:title="Hide the touchpoint / connector text labels.">
<polygon fill="white" stroke="black" points="409,-38.5 409,-57.5 525,-57.5 525,-38.5 409,-38.5"/>
<text text-anchor="middle" x="467" y="-45.5" font-family="Helvetica,sans-Serif" font-size="10.00">Scene::hideTextActors</text>
</a>
</g>
</g>
<!-- Node27&#45;&gt;Node29 -->
<g id="edge36" class="edge">
<title>Node27&#45;&gt;Node29</title>
<path fill="none" stroke="midnightblue" d="M326.61,-61.76C348.81,-59.57 374.87,-56.99 398.41,-54.67"/>
<polygon fill="midnightblue" stroke="midnightblue" points="399.07,-58.12 408.68,-53.66 398.38,-51.16 399.07,-58.12"/>
</g>
<!-- Node31 -->
<g id="node31" class="node">
<title>Node31</title>
<g id="a_node31"><a xlink:href="../../d6/db5/class_scene.html#aa9d387019f7a7456bdd8af2b21723387" target="_top" xlink:title="Show the touchpoint / connector number text labels.">
<polygon fill="white" stroke="black" points="406.5,-0.5 406.5,-19.5 527.5,-19.5 527.5,-0.5 406.5,-0.5"/>
<text text-anchor="middle" x="467" y="-7.5" font-family="Helvetica,sans-Serif" font-size="10.00">Scene::showTextActors</text>
</a>
</g>
</g>
<!-- Node27&#45;&gt;Node31 -->
<g id="edge38" class="edge">
<title>Node27&#45;&gt;Node31</title>
<path fill="none" stroke="midnightblue" d="M300.86,-57.35C324.14,-49.29 358.57,-37.75 389,-29 397.27,-26.62 406.1,-24.27 414.72,-22.08"/>
<polygon fill="midnightblue" stroke="midnightblue" points="415.84,-25.41 424.69,-19.58 414.14,-18.61 415.84,-25.41"/>
</g>
<!-- Node30 -->
<g id="node30" class="node">
<title>Node30</title>
<g id="a_node30"><a xlink:href="../../d6/db5/class_scene.html#a8a1b015f159dd9ba883ae601464f6c28" target="_top" xlink:title="Set if the touchpoint / connector number labels are visible.">
<polygon fill="white" stroke="black" points="581,-19.5 581,-38.5 729,-38.5 729,-19.5 581,-19.5"/>
<text text-anchor="middle" x="655" y="-26.5" font-family="Helvetica,sans-Serif" font-size="10.00">Scene::setTextActorsVisibility</text>
</a>
</g>
</g>
<!-- Node29&#45;&gt;Node30 -->
<g id="edge37" class="edge">
<title>Node29&#45;&gt;Node30</title>
<path fill="none" stroke="midnightblue" d="M525.07,-42.17C539.52,-40.69 555.35,-39.08 570.8,-37.5"/>
<polygon fill="midnightblue" stroke="midnightblue" points="571.3,-40.97 580.89,-36.47 570.59,-34 571.3,-40.97"/>
</g>
<!-- Node31&#45;&gt;Node30 -->
<g id="edge39" class="edge">
<title>Node31&#45;&gt;Node30</title>
<path fill="none" stroke="midnightblue" d="M527.62,-16.09C541.35,-17.49 556.19,-19.01 570.72,-20.49"/>
<polygon fill="midnightblue" stroke="midnightblue" points="570.4,-23.98 580.71,-21.51 571.11,-17.01 570.4,-23.98"/>
</g>
<!-- Node32&#45;&gt;Node14 -->
<g id="edge44" class="edge">
<title>Node32&#45;&gt;Node14</title>
<path fill="none" stroke="midnightblue" d="M324.33,-371.05C355.32,-380.23 394.46,-391.82 423.74,-400.49"/>
<polygon fill="midnightblue" stroke="midnightblue" points="423.08,-403.94 433.66,-403.42 425.06,-397.23 423.08,-403.94"/>
</g>
<!-- Node32&#45;&gt;Node23 -->
<g id="edge45" class="edge">
<title>Node32&#45;&gt;Node23</title>
<path fill="none" stroke="midnightblue" d="M346.79,-360.08C415.44,-364.99 512.24,-375.06 545,-394 591.89,-421.1 625.78,-477.01 642.42,-509.38"/>
<polygon fill="midnightblue" stroke="midnightblue" points="639.43,-511.22 647.02,-518.61 645.69,-508.09 639.43,-511.22"/>
</g>
<!-- Node32&#45;&gt;Node25 -->
<g id="edge47" class="edge">
<title>Node32&#45;&gt;Node25</title>
<path fill="none" stroke="midnightblue" d="M292.97,-371.18C315.18,-387.91 353.09,-414.74 389,-432 393.63,-434.23 398.51,-436.33 403.47,-438.29"/>
<polygon fill="midnightblue" stroke="midnightblue" points="402.48,-441.66 413.07,-441.9 404.94,-435.1 402.48,-441.66"/>
</g>
<!-- Node32&#45;&gt;Node26 -->
<g id="edge49" class="edge">
<title>Node32&#45;&gt;Node26</title>
<path fill="none" stroke="midnightblue" d="M296.23,-371.25C313.22,-383.39 336.28,-401.52 353,-421 373.5,-444.89 364.32,-462.45 389,-482 393.08,-485.23 397.6,-488.03 402.34,-490.46"/>
<polygon fill="midnightblue" stroke="midnightblue" points="401.13,-493.75 411.69,-494.67 404.01,-487.37 401.13,-493.75"/>
</g>
<!-- Node33 -->
<g id="node33" class="node">
<title>Node33</title>
<g id="a_node33"><a xlink:href="../../d6/db5/class_scene.html#aa52192763d5339a0e7803abe296220c9" target="_top" xlink:title="Return the cuberille visualization of the voxel grid data.">
<polygon fill="white" stroke="black" points="404.5,-251.5 404.5,-270.5 529.5,-270.5 529.5,-251.5 404.5,-251.5"/>
<text text-anchor="middle" x="467" y="-258.5" font-family="Helvetica,sans-Serif" font-size="10.00">Scene::getCuberilleActor</text>
</a>
</g>
</g>
<!-- Node32&#45;&gt;Node33 -->
<g id="edge41" class="edge">
<title>Node32&#45;&gt;Node33</title>
<path fill="none" stroke="midnightblue" d="M291.96,-340.96C313.85,-323.83 352.05,-296.15 389,-280 394.71,-277.5 400.81,-275.3 406.99,-273.35"/>
<polygon fill="midnightblue" stroke="midnightblue" points="408.09,-276.68 416.7,-270.51 406.12,-269.96 408.09,-276.68"/>
</g>
<!-- Node34 -->
<g id="node34" class="node">
<title>Node34</title>
<g id="a_node34"><a xlink:href="../../d6/db5/class_scene.html#a7009d25646e9f3a07482091ed2d62e52" target="_top" xlink:title="Return the inner and outer voxels visualization of the voxel grid data.">
<polygon fill="white" stroke="black" points="389,-202 389,-232 545,-232 545,-202 389,-202"/>
<text text-anchor="start" x="397" y="-220" font-family="Helvetica,sans-Serif" font-size="10.00">Scene::getInnerAndOuterVoxels</text>
<text text-anchor="middle" x="467" y="-209" font-family="Helvetica,sans-Serif" font-size="10.00">Actor</text>
</a>
</g>
</g>
<!-- Node32&#45;&gt;Node34 -->
<g id="edge42" class="edge">
<title>Node32&#45;&gt;Node34</title>
<path fill="none" stroke="midnightblue" d="M284.95,-340.81C303.98,-316.56 344.47,-269.08 389,-242 392.41,-239.92 396.02,-238 399.73,-236.22"/>
<polygon fill="midnightblue" stroke="midnightblue" points="401.39,-239.32 409.14,-232.09 398.57,-232.91 401.39,-239.32"/>
</g>
<!-- Node35 -->
<g id="node35" class="node">
<title>Node35</title>
<g id="a_node35"><a xlink:href="../../d6/db5/class_scene.html#a04c9e871c5edc15ca00d736a9cb6c0d0" target="_top" xlink:title="Return the interior voxels only visualization of the voxel grid data.">
<polygon fill="white" stroke="black" points="405.5,-153 405.5,-183 528.5,-183 528.5,-153 405.5,-153"/>
<text text-anchor="start" x="413.5" y="-171" font-family="Helvetica,sans-Serif" font-size="10.00">Scene::getInteriorVoxels</text>
<text text-anchor="middle" x="467" y="-160" font-family="Helvetica,sans-Serif" font-size="10.00">Actor</text>
</a>
</g>
</g>
<!-- Node32&#45;&gt;Node35 -->
<g id="edge43" class="edge">
<title>Node32&#45;&gt;Node35</title>
<path fill="none" stroke="midnightblue" d="M284.76,-340.98C300.36,-320.09 329.28,-281 353,-247 369.5,-223.34 366.01,-210.42 389,-193 391.44,-191.15 394.03,-189.43 396.71,-187.84"/>
<polygon fill="midnightblue" stroke="midnightblue" points="398.36,-190.93 405.58,-183.17 395.1,-184.74 398.36,-190.93"/>
</g>
<!-- Node36 -->
<g id="node36" class="node">
<title>Node36</title>
<g id="a_node36"><a xlink:href="../../d6/db5/class_scene.html#acc5e8dbc84b359afaa7d4ab9b9ef265a" target="_top" xlink:title="Return the working plane actor of the scene.">
<polygon fill="white" stroke="black" points="400,-327.5 400,-346.5 534,-346.5 534,-327.5 400,-327.5"/>
<text text-anchor="middle" x="467" y="-334.5" font-family="Helvetica,sans-Serif" font-size="10.00">Scene::getWorkPlaneActor</text>
</a>
</g>
</g>
<!-- Node32&#45;&gt;Node36 -->
<g id="edge46" class="edge">
<title>Node32&#45;&gt;Node36</title>
<path fill="none" stroke="midnightblue" d="M346.55,-348.79C360.67,-347.4 375.5,-345.93 389.72,-344.53"/>
<polygon fill="midnightblue" stroke="midnightblue" points="390.35,-347.98 399.95,-343.52 389.66,-341.02 390.35,-347.98"/>
</g>
<!-- Node37 -->
<g id="node37" class="node">
<title>Node37</title>
<g id="a_node37"><a xlink:href="../../d6/db5/class_scene.html#a36de0362da7ee73ded780390f80caaaa" target="_top" xlink:title="Set the look at vector of the camera.">
<polygon fill="white" stroke="black" points="419.5,-289.5 419.5,-308.5 514.5,-308.5 514.5,-289.5 419.5,-289.5"/>
<text text-anchor="middle" x="467" y="-296.5" font-family="Helvetica,sans-Serif" font-size="10.00">Scene::setLookAt</text>
</a>
</g>
</g>
<!-- Node32&#45;&gt;Node37 -->
<g id="edge48" class="edge">
<title>Node32&#45;&gt;Node37</title>
<path fill="none" stroke="midnightblue" d="M316.59,-340.96C338.2,-333.64 364.86,-324.94 389,-318 397.27,-315.62 406.1,-313.27 414.72,-311.08"/>
<polygon fill="midnightblue" stroke="midnightblue" points="415.84,-314.41 424.69,-308.58 414.14,-307.61 415.84,-314.41"/>
</g>
</g>
</svg>
