<?xml version="1.0" encoding="UTF-8" standalone="no"?>
<!DOCTYPE svg PUBLIC "-//W3C//DTD SVG 1.1//EN"
 "http://www.w3.org/Graphics/SVG/1.1/DTD/svg11.dtd">
<!-- Generated by graphviz version 2.44.0 (0)
 -->
<!-- Title: VTKMeshBoolFilter Pages: 1 -->
<svg width="169pt" height="314pt"
 viewBox="0.00 0.00 169.00 314.00" xmlns="http://www.w3.org/2000/svg" xmlns:xlink="http://www.w3.org/1999/xlink">
<g id="graph0" class="graph" transform="scale(1 1) rotate(0) translate(4 310)">
<title>VTKMeshBoolFilter</title>
<polygon fill="white" stroke="transparent" points="-4,4 -4,-310 165,-310 165,4 -4,4"/>
<!-- Node1 -->
<g id="node1" class="node">
<title>Node1</title>
<g id="a_node1"><a xlink:title="Filter for boolean operations on polygon meshes using the vtkbool library.">
<polygon fill="#bfbfbf" stroke="black" points="6,-0.5 6,-112.5 155,-112.5 155,-0.5 6,-0.5"/>
<text text-anchor="middle" x="80.5" y="-100.5" font-family="Helvetica,sans-Serif" font-size="10.00">VTKMeshBoolFilter</text>
<polyline fill="none" stroke="black" points="6,-93.5 155,-93.5 "/>
<text text-anchor="start" x="14" y="-81.5" font-family="Helvetica,sans-Serif" font-size="10.00">&#45; booleanOperationPolyData</text>
<text text-anchor="start" x="14" y="-70.5" font-family="Helvetica,sans-Serif" font-size="10.00">Filter</text>
<polyline fill="none" stroke="black" points="6,-63.5 155,-63.5 "/>
<text text-anchor="start" x="14" y="-51.5" font-family="Helvetica,sans-Serif" font-size="10.00">+ VTKMeshBoolFilter()</text>
<text text-anchor="start" x="14" y="-40.5" font-family="Helvetica,sans-Serif" font-size="10.00">+ setOperationToUnion()</text>
<text text-anchor="start" x="14" y="-29.5" font-family="Helvetica,sans-Serif" font-size="10.00">+ setOperationToIntersection()</text>
<text text-anchor="start" x="14" y="-18.5" font-family="Helvetica,sans-Serif" font-size="10.00">+ setOperationToDifference()</text>
<text text-anchor="start" x="14" y="-7.5" font-family="Helvetica,sans-Serif" font-size="10.00">+ update()</text>
</a>
</g>
</g>
<!-- Node2 -->
<g id="node2" class="node">
<title>Node2</title>
<g id="a_node2"><a xlink:href="../../d4/dcd/class_mesh_boolean_operation_filter.html" target="_top" xlink:title="Base class for boolean operations on polygon meshes filters.">
<polygon fill="white" stroke="black" points="0,-149.5 0,-305.5 161,-305.5 161,-149.5 0,-149.5"/>
<text text-anchor="middle" x="80.5" y="-293.5" font-family="Helvetica,sans-Serif" font-size="10.00">MeshBooleanOperationFilter</text>
<polyline fill="none" stroke="black" points="0,-286.5 161,-286.5 "/>
<text text-anchor="start" x="8" y="-274.5" font-family="Helvetica,sans-Serif" font-size="10.00"># polydata0</text>
<text text-anchor="start" x="8" y="-263.5" font-family="Helvetica,sans-Serif" font-size="10.00"># polydata1</text>
<text text-anchor="start" x="8" y="-252.5" font-family="Helvetica,sans-Serif" font-size="10.00"># resultPolydata</text>
<polyline fill="none" stroke="black" points="0,-245.5 161,-245.5 "/>
<text text-anchor="start" x="8" y="-233.5" font-family="Helvetica,sans-Serif" font-size="10.00">+ ~MeshBooleanOperationFilter()</text>
<text text-anchor="start" x="8" y="-222.5" font-family="Helvetica,sans-Serif" font-size="10.00">+ setOperationToUnion()</text>
<text text-anchor="start" x="8" y="-211.5" font-family="Helvetica,sans-Serif" font-size="10.00">+ setOperationToIntersection()</text>
<text text-anchor="start" x="8" y="-200.5" font-family="Helvetica,sans-Serif" font-size="10.00">+ setOperationToDifference()</text>
<text text-anchor="start" x="8" y="-189.5" font-family="Helvetica,sans-Serif" font-size="10.00">+ setInputData0()</text>
<text text-anchor="start" x="8" y="-178.5" font-family="Helvetica,sans-Serif" font-size="10.00">+ setInputData1()</text>
<text text-anchor="start" x="8" y="-167.5" font-family="Helvetica,sans-Serif" font-size="10.00">+ update()</text>
<text text-anchor="start" x="8" y="-156.5" font-family="Helvetica,sans-Serif" font-size="10.00">+ getOutput()</text>
</a>
</g>
</g>
<!-- Node2&#45;&gt;Node1 -->
<g id="edge1" class="edge">
<title>Node2&#45;&gt;Node1</title>
<path fill="none" stroke="midnightblue" d="M80.5,-139.25C80.5,-130.24 80.5,-121.28 80.5,-112.76"/>
<polygon fill="none" stroke="midnightblue" points="77,-139.42 80.5,-149.42 84,-139.42 77,-139.42"/>
</g>
</g>
</svg>
