<?xml version="1.0" encoding="UTF-8" standalone="no"?>
<!DOCTYPE svg PUBLIC "-//W3C//DTD SVG 1.1//EN"
 "http://www.w3.org/Graphics/SVG/1.1/DTD/svg11.dtd">
<!-- Generated by graphviz version 2.44.1 (0)
 -->
<!-- Title: corkmeshbooleanoperationfilter.h Pages: 1 -->
<svg width="2870pt" height="218pt"
 viewBox="0.00 0.00 2870.39 218.00" xmlns="http://www.w3.org/2000/svg" xmlns:xlink="http://www.w3.org/1999/xlink">
<g id="graph0" class="graph" transform="scale(1 1) rotate(0) translate(4 214)">
<title>corkmeshbooleanoperationfilter.h</title>
<polygon fill="white" stroke="transparent" points="-4,4 -4,-214 2866.39,-214 2866.39,4 -4,4"/>
<!-- Node1 -->
<g id="node1" class="node">
<title>Node1</title>
<g id="a_node1"><a xlink:title="Filter for boolean operations on polygon meshes using the cork library.">
<polygon fill="#bfbfbf" stroke="black" points="1557.39,-190.5 1557.39,-209.5 1717.39,-209.5 1717.39,-190.5 1557.39,-190.5"/>
<text text-anchor="middle" x="1637.39" y="-197.5" font-family="Helvetica,sans-Serif" font-size="10.00">corkmeshbooleanoperationfilter.h</text>
</a>
</g>
</g>
<!-- Node2 -->
<g id="node2" class="node">
<title>Node2</title>
<g id="a_node2"><a xlink:title=" ">
<polygon fill="white" stroke="#bfbfbf" points="0.39,-6 0.39,-25 52.39,-25 52.39,-6 0.39,-6"/>
<text text-anchor="middle" x="26.39" y="-13" font-family="Helvetica,sans-Serif" font-size="10.00">sstream</text>
</a>
</g>
</g>
<!-- Node1&#45;&gt;Node2 -->
<g id="edge1" class="edge">
<title>Node1&#45;&gt;Node2</title>
<path fill="none" stroke="midnightblue" d="M1556.97,-197.93C1273.27,-193.97 329.02,-179.02 195.39,-154 107.37,-137.52 57.11,-160.09 5.39,-87 -5.98,-70.94 3.94,-48.69 13.64,-33.5"/>
<polygon fill="midnightblue" stroke="midnightblue" points="16.65,-35.3 19.46,-25.08 10.89,-31.32 16.65,-35.3"/>
</g>
<!-- Node3 -->
<g id="node3" class="node">
<title>Node3</title>
<g id="a_node3"><a xlink:title=" ">
<polygon fill="white" stroke="#bfbfbf" points="1370.39,-129 1370.39,-148 1420.39,-148 1420.39,-129 1370.39,-129"/>
<text text-anchor="middle" x="1395.39" y="-136" font-family="Helvetica,sans-Serif" font-size="10.00">locale.h</text>
</a>
</g>
</g>
<!-- Node1&#45;&gt;Node3 -->
<g id="edge2" class="edge">
<title>Node1&#45;&gt;Node3</title>
<path fill="none" stroke="midnightblue" d="M1584.52,-190.43C1542.04,-182.86 1481.14,-170.47 1429.39,-154 1427.46,-153.39 1425.49,-152.71 1423.52,-151.98"/>
<polygon fill="midnightblue" stroke="midnightblue" points="1424.44,-148.58 1413.85,-148.13 1421.85,-155.08 1424.44,-148.58"/>
</g>
<!-- Node4 -->
<g id="node4" class="node">
<title>Node4</title>
<g id="a_node4"><a xlink:title=" ">
<polygon fill="white" stroke="#bfbfbf" points="416.89,-6 416.89,-25 511.89,-25 511.89,-6 416.89,-6"/>
<text text-anchor="middle" x="464.39" y="-13" font-family="Helvetica,sans-Serif" font-size="10.00">vtkSmartPointer.h</text>
</a>
</g>
</g>
<!-- Node1&#45;&gt;Node4 -->
<g id="edge3" class="edge">
<title>Node1&#45;&gt;Node4</title>
<path fill="none" stroke="midnightblue" d="M1557.22,-195.94C1311,-185.9 577.22,-150.84 492.39,-87 476.14,-74.78 469.31,-51.66 466.44,-35.23"/>
<polygon fill="midnightblue" stroke="midnightblue" points="469.88,-34.56 465.02,-25.14 462.95,-35.53 469.88,-34.56"/>
</g>
<!-- Node5 -->
<g id="node5" class="node">
<title>Node5</title>
<g id="a_node5"><a xlink:title=" ">
<polygon fill="white" stroke="#bfbfbf" points="203.89,-6 203.89,-25 282.89,-25 282.89,-6 203.89,-6"/>
<text text-anchor="middle" x="243.39" y="-13" font-family="Helvetica,sans-Serif" font-size="10.00">vtkPolyData.h</text>
</a>
</g>
</g>
<!-- Node1&#45;&gt;Node5 -->
<g id="edge4" class="edge">
<title>Node1&#45;&gt;Node5</title>
<path fill="none" stroke="midnightblue" d="M1557.36,-199.59C1312.61,-200.86 576.54,-200.6 342.39,-154 259.07,-137.42 211.79,-156.8 163.39,-87 146.71,-62.95 181.15,-41.71 209.93,-28.99"/>
<polygon fill="midnightblue" stroke="midnightblue" points="211.53,-32.11 219.39,-25.01 208.82,-25.66 211.53,-32.11"/>
</g>
<!-- Node6 -->
<g id="node6" class="node">
<title>Node6</title>
<g id="a_node6"><a xlink:title=" ">
<polygon fill="white" stroke="#bfbfbf" points="1438.39,-129 1438.39,-148 1524.39,-148 1524.39,-129 1438.39,-129"/>
<text text-anchor="middle" x="1481.39" y="-136" font-family="Helvetica,sans-Serif" font-size="10.00">QTemporaryFile</text>
</a>
</g>
</g>
<!-- Node1&#45;&gt;Node6 -->
<g id="edge5" class="edge">
<title>Node1&#45;&gt;Node6</title>
<path fill="none" stroke="midnightblue" d="M1615.04,-190.48C1588.39,-180.31 1543.67,-163.26 1513.37,-151.7"/>
<polygon fill="midnightblue" stroke="midnightblue" points="1514.29,-148.3 1503.7,-148.01 1511.79,-154.84 1514.29,-148.3"/>
</g>
<!-- Node7 -->
<g id="node7" class="node">
<title>Node7</title>
<g id="a_node7"><a xlink:title=" ">
<polygon fill="white" stroke="#bfbfbf" points="1542.39,-129 1542.39,-148 1582.39,-148 1582.39,-129 1542.39,-129"/>
<text text-anchor="middle" x="1562.39" y="-136" font-family="Helvetica,sans-Serif" font-size="10.00">QFile</text>
</a>
</g>
</g>
<!-- Node1&#45;&gt;Node7 -->
<g id="edge6" class="edge">
<title>Node1&#45;&gt;Node7</title>
<path fill="none" stroke="midnightblue" d="M1626.64,-190.48C1614.83,-181.11 1595.64,-165.88 1581.3,-154.51"/>
<polygon fill="midnightblue" stroke="midnightblue" points="1583.12,-151.48 1573.11,-148.01 1578.77,-156.97 1583.12,-151.48"/>
</g>
<!-- Node8 -->
<g id="node8" class="node">
<title>Node8</title>
<g id="a_node8"><a xlink:title=" ">
<polygon fill="white" stroke="#bfbfbf" points="1600.39,-129 1600.39,-148 1674.39,-148 1674.39,-129 1600.39,-129"/>
<text text-anchor="middle" x="1637.39" y="-136" font-family="Helvetica,sans-Serif" font-size="10.00">QTextStream</text>
</a>
</g>
</g>
<!-- Node1&#45;&gt;Node8 -->
<g id="edge7" class="edge">
<title>Node1&#45;&gt;Node8</title>
<path fill="none" stroke="midnightblue" d="M1637.39,-190.48C1637.39,-182.08 1637.39,-168.98 1637.39,-158.16"/>
<polygon fill="midnightblue" stroke="midnightblue" points="1640.89,-158.01 1637.39,-148.01 1633.89,-158.01 1640.89,-158.01"/>
</g>
<!-- Node9 -->
<g id="node9" class="node">
<title>Node9</title>
<g id="a_node9"><a xlink:title=" ">
<polygon fill="white" stroke="#bfbfbf" points="1692.89,-129 1692.89,-148 1767.89,-148 1767.89,-129 1692.89,-129"/>
<text text-anchor="middle" x="1730.39" y="-136" font-family="Helvetica,sans-Serif" font-size="10.00">igl/readOFF.h</text>
</a>
</g>
</g>
<!-- Node1&#45;&gt;Node9 -->
<g id="edge8" class="edge">
<title>Node1&#45;&gt;Node9</title>
<path fill="none" stroke="midnightblue" d="M1650.71,-190.48C1665.77,-180.84 1690.5,-165.02 1708.42,-153.55"/>
<polygon fill="midnightblue" stroke="midnightblue" points="1710.55,-156.35 1717.09,-148.01 1706.78,-150.45 1710.55,-156.35"/>
</g>
<!-- Node10 -->
<g id="node10" class="node">
<title>Node10</title>
<g id="a_node10"><a xlink:title=" ">
<polygon fill="white" stroke="#bfbfbf" points="1785.89,-129 1785.89,-148 1862.89,-148 1862.89,-129 1785.89,-129"/>
<text text-anchor="middle" x="1824.39" y="-136" font-family="Helvetica,sans-Serif" font-size="10.00">igl/writeOFF.h</text>
</a>
</g>
</g>
<!-- Node1&#45;&gt;Node10 -->
<g id="edge9" class="edge">
<title>Node1&#45;&gt;Node10</title>
<path fill="none" stroke="midnightblue" d="M1664.18,-190.48C1696.67,-180.14 1751.59,-162.66 1787.92,-151.1"/>
<polygon fill="midnightblue" stroke="midnightblue" points="1789.18,-154.38 1797.64,-148.01 1787.05,-147.71 1789.18,-154.38"/>
</g>
<!-- Node11 -->
<g id="node11" class="node">
<title>Node11</title>
<g id="a_node11"><a xlink:title=" ">
<polygon fill="white" stroke="#bfbfbf" points="1880.89,-129 1880.89,-148 1957.89,-148 1957.89,-129 1880.89,-129"/>
<text text-anchor="middle" x="1919.39" y="-136" font-family="Helvetica,sans-Serif" font-size="10.00">igl/writeSTL.h</text>
</a>
</g>
</g>
<!-- Node1&#45;&gt;Node11 -->
<g id="edge10" class="edge">
<title>Node1&#45;&gt;Node11</title>
<path fill="none" stroke="midnightblue" d="M1690.95,-190.47C1738.82,-182.44 1810.72,-169.37 1872.39,-154 1876,-153.1 1879.74,-152.09 1883.46,-151.03"/>
<polygon fill="midnightblue" stroke="midnightblue" points="1884.59,-154.34 1893.18,-148.14 1882.6,-147.63 1884.59,-154.34"/>
</g>
<!-- Node12 -->
<g id="node12" class="node">
<title>Node12</title>
<g id="a_node12"><a xlink:title=" ">
<polygon fill="white" stroke="#bfbfbf" points="1976.39,-123.5 1976.39,-153.5 2088.39,-153.5 2088.39,-123.5 1976.39,-123.5"/>
<text text-anchor="start" x="1984.39" y="-141.5" font-family="Helvetica,sans-Serif" font-size="10.00">igl/copyleft/cgal/mesh</text>
<text text-anchor="middle" x="2032.39" y="-130.5" font-family="Helvetica,sans-Serif" font-size="10.00">_boolean.h</text>
</a>
</g>
</g>
<!-- Node1&#45;&gt;Node12 -->
<g id="edge11" class="edge">
<title>Node1&#45;&gt;Node12</title>
<path fill="none" stroke="midnightblue" d="M1713.36,-190.48C1778.07,-182.8 1873.72,-170.45 1966,-154.16"/>
<polygon fill="midnightblue" stroke="midnightblue" points="1966.84,-157.57 1976.07,-152.37 1965.62,-150.68 1966.84,-157.57"/>
</g>
<!-- Node13 -->
<g id="node13" class="node">
<title>Node13</title>
<g id="a_node13"><a xlink:title=" ">
<polygon fill="white" stroke="#bfbfbf" points="2106.89,-123.5 2106.89,-153.5 2219.89,-153.5 2219.89,-123.5 2106.89,-123.5"/>
<text text-anchor="start" x="2114.89" y="-141.5" font-family="Helvetica,sans-Serif" font-size="10.00">igl/copyleft/cork/mesh</text>
<text text-anchor="middle" x="2163.39" y="-130.5" font-family="Helvetica,sans-Serif" font-size="10.00">_boolean.h</text>
</a>
</g>
</g>
<!-- Node1&#45;&gt;Node13 -->
<g id="edge12" class="edge">
<title>Node1&#45;&gt;Node13</title>
<path fill="none" stroke="midnightblue" d="M1717.53,-194.06C1807.44,-187.86 1957.78,-175.53 2096.61,-153.99"/>
<polygon fill="midnightblue" stroke="midnightblue" points="2097.25,-157.44 2106.59,-152.43 2096.16,-150.52 2097.25,-157.44"/>
</g>
<!-- Node14 -->
<g id="node14" class="node">
<title>Node14</title>
<g id="a_node14"><a xlink:title=" ">
<polygon fill="white" stroke="#bfbfbf" points="2238.39,-123.5 2238.39,-153.5 2342.39,-153.5 2342.39,-123.5 2238.39,-123.5"/>
<text text-anchor="start" x="2246.39" y="-141.5" font-family="Helvetica,sans-Serif" font-size="10.00">igl/copyleft/cgal/trim</text>
<text text-anchor="middle" x="2290.39" y="-130.5" font-family="Helvetica,sans-Serif" font-size="10.00">_with_solid.h</text>
</a>
</g>
</g>
<!-- Node1&#45;&gt;Node14 -->
<g id="edge13" class="edge">
<title>Node1&#45;&gt;Node14</title>
<path fill="none" stroke="midnightblue" d="M1717.8,-196.9C1830.09,-193.07 2040.29,-182.67 2228.19,-154.02"/>
<polygon fill="midnightblue" stroke="midnightblue" points="2228.9,-157.45 2238.25,-152.46 2227.83,-150.53 2228.9,-157.45"/>
</g>
<!-- Node15 -->
<g id="node15" class="node">
<title>Node15</title>
<g id="a_node15"><a xlink:title=" ">
<polygon fill="white" stroke="#bfbfbf" points="2360.89,-129 2360.89,-148 2425.89,-148 2425.89,-129 2360.89,-129"/>
<text text-anchor="middle" x="2393.39" y="-136" font-family="Helvetica,sans-Serif" font-size="10.00">Eigen/Core</text>
</a>
</g>
</g>
<!-- Node1&#45;&gt;Node15 -->
<g id="edge14" class="edge">
<title>Node1&#45;&gt;Node15</title>
<path fill="none" stroke="midnightblue" d="M1717.61,-196.66C1877.81,-191.55 2232.19,-177.88 2351.39,-154 2355.08,-153.26 2358.9,-152.27 2362.65,-151.16"/>
<polygon fill="midnightblue" stroke="midnightblue" points="2363.9,-154.44 2372.33,-148.01 2361.74,-147.78 2363.9,-154.44"/>
</g>
<!-- Node16 -->
<g id="node16" class="node">
<title>Node16</title>
<g id="a_node16"><a xlink:title=" ">
<polygon fill="white" stroke="#bfbfbf" points="2443.89,-129 2443.89,-148 2516.89,-148 2516.89,-129 2443.89,-129"/>
<text text-anchor="middle" x="2480.39" y="-136" font-family="Helvetica,sans-Serif" font-size="10.00">Eigen/Dense</text>
</a>
</g>
</g>
<!-- Node1&#45;&gt;Node16 -->
<g id="edge15" class="edge">
<title>Node1&#45;&gt;Node16</title>
<path fill="none" stroke="midnightblue" d="M1717.61,-197.08C1891.72,-192.48 2299.48,-179.3 2435.39,-154 2439.56,-153.22 2443.89,-152.17 2448.13,-150.98"/>
<polygon fill="midnightblue" stroke="midnightblue" points="2449.25,-154.3 2457.78,-148.03 2447.2,-147.6 2449.25,-154.3"/>
</g>
<!-- Node17 -->
<g id="node17" class="node">
<title>Node17</title>
<g id="a_node17"><a xlink:href="../../d4/dcd/meshbooleanoperationfilter_8h.html" target="_top" xlink:title="Base class for boolean operations on polygon meshes filters.">
<polygon fill="white" stroke="black" points="172.89,-67.5 172.89,-86.5 313.89,-86.5 313.89,-67.5 172.89,-67.5"/>
<text text-anchor="middle" x="243.39" y="-74.5" font-family="Helvetica,sans-Serif" font-size="10.00">meshbooleanoperationfilter.h</text>
</a>
</g>
</g>
<!-- Node1&#45;&gt;Node17 -->
<g id="edge16" class="edge">
<title>Node1&#45;&gt;Node17</title>
<path fill="none" stroke="midnightblue" d="M1557.17,-199.22C1326.27,-199.35 662.95,-195.96 450.39,-154 383.33,-140.76 309.12,-109.02 270.35,-91.03"/>
<polygon fill="midnightblue" stroke="midnightblue" points="271.38,-87.64 260.84,-86.55 268.4,-93.98 271.38,-87.64"/>
</g>
<!-- Node18 -->
<g id="node18" class="node">
<title>Node18</title>
<g id="a_node18"><a xlink:href="../../d5/d60/utils_8h.html" target="_top" xlink:title="Various utility algorithms needed by various parts of the application.">
<polygon fill="white" stroke="red" points="1288.39,-129 1288.39,-148 1352.39,-148 1352.39,-129 1288.39,-129"/>
<text text-anchor="middle" x="1320.39" y="-136" font-family="Helvetica,sans-Serif" font-size="10.00">utils/utils.h</text>
</a>
</g>
</g>
<!-- Node1&#45;&gt;Node18 -->
<g id="edge19" class="edge">
<title>Node1&#45;&gt;Node18</title>
<path fill="none" stroke="midnightblue" d="M1562.55,-190.47C1506.6,-183.21 1428.52,-171.2 1361.39,-154 1358.34,-153.22 1355.2,-152.31 1352.08,-151.33"/>
<polygon fill="midnightblue" stroke="midnightblue" points="1352.89,-147.91 1342.29,-148.06 1350.67,-154.55 1352.89,-147.91"/>
</g>
<!-- Node17&#45;&gt;Node4 -->
<g id="edge17" class="edge">
<title>Node17&#45;&gt;Node4</title>
<path fill="none" stroke="midnightblue" d="M275.05,-67.48C313.94,-57 380.03,-39.21 422.93,-27.66"/>
<polygon fill="midnightblue" stroke="midnightblue" points="424.03,-30.99 432.78,-25.01 422.21,-24.23 424.03,-30.99"/>
</g>
<!-- Node17&#45;&gt;Node5 -->
<g id="edge18" class="edge">
<title>Node17&#45;&gt;Node5</title>
<path fill="none" stroke="midnightblue" d="M243.39,-67.48C243.39,-59.08 243.39,-45.98 243.39,-35.16"/>
<polygon fill="midnightblue" stroke="midnightblue" points="246.89,-35.01 243.39,-25.01 239.89,-35.01 246.89,-35.01"/>
</g>
<!-- Node18&#45;&gt;Node4 -->
<g id="edge27" class="edge">
<title>Node18&#45;&gt;Node4</title>
<path fill="none" stroke="midnightblue" d="M1287.93,-136.96C1146.92,-134.43 591.37,-122.28 522.39,-87 499.86,-75.48 482.87,-50.9 473.27,-34.04"/>
<polygon fill="midnightblue" stroke="midnightblue" points="476.31,-32.31 468.49,-25.16 470.15,-35.63 476.31,-32.31"/>
</g>
<!-- Node18&#45;&gt;Node5 -->
<g id="edge41" class="edge">
<title>Node18&#45;&gt;Node5</title>
<path fill="none" stroke="midnightblue" d="M1288.08,-137.86C1141.83,-139.16 541.13,-141.07 362.39,-87 352.03,-83.87 297.29,-50.21 265.78,-30.55"/>
<polygon fill="midnightblue" stroke="midnightblue" points="267.53,-27.52 257.19,-25.19 263.82,-33.46 267.53,-27.52"/>
</g>
<!-- Node19 -->
<g id="node19" class="node">
<title>Node19</title>
<g id="a_node19"><a xlink:title=" ">
<polygon fill="white" stroke="#bfbfbf" points="634.39,-67.5 634.39,-86.5 672.39,-86.5 672.39,-67.5 634.39,-67.5"/>
<text text-anchor="middle" x="653.39" y="-74.5" font-family="Helvetica,sans-Serif" font-size="10.00">tuple</text>
</a>
</g>
</g>
<!-- Node18&#45;&gt;Node19 -->
<g id="edge20" class="edge">
<title>Node18&#45;&gt;Node19</title>
<path fill="none" stroke="midnightblue" d="M1288.11,-137.58C1195.11,-137.25 918.64,-132.41 682.65,-86.79"/>
<polygon fill="midnightblue" stroke="midnightblue" points="683,-83.29 672.51,-84.79 681.65,-90.15 683,-83.29"/>
</g>
<!-- Node20 -->
<g id="node20" class="node">
<title>Node20</title>
<g id="a_node20"><a xlink:title=" ">
<polygon fill="white" stroke="#bfbfbf" points="690.39,-67.5 690.39,-86.5 736.39,-86.5 736.39,-67.5 690.39,-67.5"/>
<text text-anchor="middle" x="713.39" y="-74.5" font-family="Helvetica,sans-Serif" font-size="10.00">chrono</text>
</a>
</g>
</g>
<!-- Node18&#45;&gt;Node20 -->
<g id="edge21" class="edge">
<title>Node18&#45;&gt;Node20</title>
<path fill="none" stroke="midnightblue" d="M1288.07,-136.68C1201.69,-134.04 958.24,-123.83 746.75,-86.7"/>
<polygon fill="midnightblue" stroke="midnightblue" points="747.16,-83.22 736.7,-84.91 745.94,-90.11 747.16,-83.22"/>
</g>
<!-- Node21 -->
<g id="node21" class="node">
<title>Node21</title>
<g id="a_node21"><a xlink:title=" ">
<polygon fill="white" stroke="#bfbfbf" points="754.89,-67.5 754.89,-86.5 783.89,-86.5 783.89,-67.5 754.89,-67.5"/>
<text text-anchor="middle" x="769.39" y="-74.5" font-family="Helvetica,sans-Serif" font-size="10.00">list</text>
</a>
</g>
</g>
<!-- Node18&#45;&gt;Node21 -->
<g id="edge22" class="edge">
<title>Node18&#45;&gt;Node21</title>
<path fill="none" stroke="midnightblue" d="M1288.14,-137.34C1206.45,-136.32 984.93,-129.72 793.86,-86.44"/>
<polygon fill="midnightblue" stroke="midnightblue" points="794.45,-82.98 783.92,-84.15 792.88,-89.8 794.45,-82.98"/>
</g>
<!-- Node22 -->
<g id="node22" class="node">
<title>Node22</title>
<g id="a_node22"><a xlink:title=" ">
<polygon fill="white" stroke="#bfbfbf" points="802.39,-67.5 802.39,-86.5 856.39,-86.5 856.39,-67.5 802.39,-67.5"/>
<text text-anchor="middle" x="829.39" y="-74.5" font-family="Helvetica,sans-Serif" font-size="10.00">iostream</text>
</a>
</g>
</g>
<!-- Node18&#45;&gt;Node22 -->
<g id="edge23" class="edge">
<title>Node18&#45;&gt;Node22</title>
<path fill="none" stroke="midnightblue" d="M1288.26,-135.35C1215.24,-130.15 1031.12,-115.33 867.06,-86.88"/>
<polygon fill="midnightblue" stroke="midnightblue" points="867.24,-83.36 856.78,-85.08 866.03,-90.25 867.24,-83.36"/>
</g>
<!-- Node23 -->
<g id="node23" class="node">
<title>Node23</title>
<g id="a_node23"><a xlink:title=" ">
<polygon fill="white" stroke="#bfbfbf" points="874.89,-67.5 874.89,-86.5 923.89,-86.5 923.89,-67.5 874.89,-67.5"/>
<text text-anchor="middle" x="899.39" y="-74.5" font-family="Helvetica,sans-Serif" font-size="10.00">random</text>
</a>
</g>
</g>
<!-- Node18&#45;&gt;Node23 -->
<g id="edge24" class="edge">
<title>Node18&#45;&gt;Node23</title>
<path fill="none" stroke="midnightblue" d="M1288.3,-134.73C1223.28,-128.8 1071.21,-113.41 934.03,-86.89"/>
<polygon fill="midnightblue" stroke="midnightblue" points="934.67,-83.45 924.18,-84.96 933.32,-90.32 934.67,-83.45"/>
</g>
<!-- Node24 -->
<g id="node24" class="node">
<title>Node24</title>
<g id="a_node24"><a xlink:title=" ">
<polygon fill="white" stroke="#bfbfbf" points="941.89,-67.5 941.89,-86.5 982.89,-86.5 982.89,-67.5 941.89,-67.5"/>
<text text-anchor="middle" x="962.39" y="-74.5" font-family="Helvetica,sans-Serif" font-size="10.00">ctime</text>
</a>
</g>
</g>
<!-- Node18&#45;&gt;Node24 -->
<g id="edge25" class="edge">
<title>Node18&#45;&gt;Node24</title>
<path fill="none" stroke="midnightblue" d="M1287.98,-134.02C1230.48,-127.53 1106.72,-112.09 992.87,-86.81"/>
<polygon fill="midnightblue" stroke="midnightblue" points="993.47,-83.36 982.94,-84.58 991.93,-90.19 993.47,-83.36"/>
</g>
<!-- Node25 -->
<g id="node25" class="node">
<title>Node25</title>
<g id="a_node25"><a xlink:title=" ">
<polygon fill="white" stroke="#bfbfbf" points="1001.39,-67.5 1001.39,-86.5 1041.39,-86.5 1041.39,-67.5 1001.39,-67.5"/>
<text text-anchor="middle" x="1021.39" y="-74.5" font-family="Helvetica,sans-Serif" font-size="10.00">limits</text>
</a>
</g>
</g>
<!-- Node18&#45;&gt;Node25 -->
<g id="edge26" class="edge">
<title>Node18&#45;&gt;Node25</title>
<path fill="none" stroke="midnightblue" d="M1288.12,-132.71C1239.01,-125.14 1142.43,-109.22 1051.5,-87.04"/>
<polygon fill="midnightblue" stroke="midnightblue" points="1052.13,-83.6 1041.58,-84.6 1050.45,-90.39 1052.13,-83.6"/>
</g>
<!-- Node26 -->
<g id="node26" class="node">
<title>Node26</title>
<g id="a_node26"><a xlink:title=" ">
<polygon fill="white" stroke="#bfbfbf" points="1059.39,-67.5 1059.39,-86.5 1117.39,-86.5 1117.39,-67.5 1059.39,-67.5"/>
<text text-anchor="middle" x="1088.39" y="-74.5" font-family="Helvetica,sans-Serif" font-size="10.00">vtkNew.h</text>
</a>
</g>
</g>
<!-- Node18&#45;&gt;Node26 -->
<g id="edge28" class="edge">
<title>Node18&#45;&gt;Node26</title>
<path fill="none" stroke="midnightblue" d="M1288.13,-129.23C1245.99,-118.42 1172.3,-99.52 1127.17,-87.95"/>
<polygon fill="midnightblue" stroke="midnightblue" points="1128,-84.55 1117.45,-85.45 1126.26,-91.33 1128,-84.55"/>
</g>
<!-- Node27 -->
<g id="node27" class="node">
<title>Node27</title>
<g id="a_node27"><a xlink:title=" ">
<polygon fill="white" stroke="#bfbfbf" points="1135.89,-67.5 1135.89,-86.5 1218.89,-86.5 1218.89,-67.5 1135.89,-67.5"/>
<text text-anchor="middle" x="1177.39" y="-74.5" font-family="Helvetica,sans-Serif" font-size="10.00">vtkTransform.h</text>
</a>
</g>
</g>
<!-- Node18&#45;&gt;Node27 -->
<g id="edge29" class="edge">
<title>Node18&#45;&gt;Node27</title>
<path fill="none" stroke="midnightblue" d="M1299.9,-128.98C1275.58,-118.86 1234.84,-101.9 1207.07,-90.35"/>
<polygon fill="midnightblue" stroke="midnightblue" points="1208.41,-87.12 1197.84,-86.51 1205.72,-93.58 1208.41,-87.12"/>
</g>
<!-- Node28 -->
<g id="node28" class="node">
<title>Node28</title>
<g id="a_node28"><a xlink:title=" ">
<polygon fill="white" stroke="#bfbfbf" points="1237.39,-67.5 1237.39,-86.5 1299.39,-86.5 1299.39,-67.5 1237.39,-67.5"/>
<text text-anchor="middle" x="1268.39" y="-74.5" font-family="Helvetica,sans-Serif" font-size="10.00">vtkQuad.h</text>
</a>
</g>
</g>
<!-- Node18&#45;&gt;Node28 -->
<g id="edge30" class="edge">
<title>Node18&#45;&gt;Node28</title>
<path fill="none" stroke="midnightblue" d="M1312.94,-128.98C1305.06,-119.96 1292.44,-105.52 1282.64,-94.31"/>
<polygon fill="midnightblue" stroke="midnightblue" points="1285.04,-91.74 1275.82,-86.51 1279.77,-96.34 1285.04,-91.74"/>
</g>
<!-- Node29 -->
<g id="node29" class="node">
<title>Node29</title>
<g id="a_node29"><a xlink:title=" ">
<polygon fill="white" stroke="#bfbfbf" points="1317.89,-67.5 1317.89,-86.5 1428.89,-86.5 1428.89,-67.5 1317.89,-67.5"/>
<text text-anchor="middle" x="1373.39" y="-74.5" font-family="Helvetica,sans-Serif" font-size="10.00">vtkPolyDataMapper.h</text>
</a>
</g>
</g>
<!-- Node18&#45;&gt;Node29 -->
<g id="edge31" class="edge">
<title>Node18&#45;&gt;Node29</title>
<path fill="none" stroke="midnightblue" d="M1327.98,-128.98C1336.09,-119.87 1349.12,-105.24 1359.15,-93.98"/>
<polygon fill="midnightblue" stroke="midnightblue" points="1361.77,-96.3 1365.81,-86.51 1356.54,-91.65 1361.77,-96.3"/>
</g>
<!-- Node30 -->
<g id="node30" class="node">
<title>Node30</title>
<g id="a_node30"><a xlink:title=" ">
<polygon fill="white" stroke="#bfbfbf" points="1447.39,-67.5 1447.39,-86.5 1543.39,-86.5 1543.39,-67.5 1447.39,-67.5"/>
<text text-anchor="middle" x="1495.39" y="-74.5" font-family="Helvetica,sans-Serif" font-size="10.00">vtkBoundingBox.h</text>
</a>
</g>
</g>
<!-- Node18&#45;&gt;Node30 -->
<g id="edge32" class="edge">
<title>Node18&#45;&gt;Node30</title>
<path fill="none" stroke="midnightblue" d="M1344.65,-128.85C1350.14,-126.91 1355.96,-124.87 1361.39,-123 1394.71,-111.51 1432.83,-98.75 1459.87,-89.76"/>
<polygon fill="midnightblue" stroke="midnightblue" points="1461.27,-92.98 1469.66,-86.51 1459.06,-86.34 1461.27,-92.98"/>
</g>
<!-- Node31 -->
<g id="node31" class="node">
<title>Node31</title>
<g id="a_node31"><a xlink:title=" ">
<polygon fill="white" stroke="#bfbfbf" points="936.89,-6 936.89,-25 1049.89,-25 1049.89,-6 936.89,-6"/>
<text text-anchor="middle" x="993.39" y="-13" font-family="Helvetica,sans-Serif" font-size="10.00">vtkMersenneTwister.h</text>
</a>
</g>
</g>
<!-- Node18&#45;&gt;Node31 -->
<g id="edge33" class="edge">
<title>Node18&#45;&gt;Node31</title>
<path fill="none" stroke="midnightblue" d="M1342.75,-128.89C1348.74,-126.78 1355.26,-124.65 1361.39,-123 1446.8,-99.99 1612.06,-132.31 1552.39,-67 1519.76,-31.3 1201.54,-20.6 1060.32,-17.59"/>
<polygon fill="midnightblue" stroke="midnightblue" points="1060.12,-14.09 1050.05,-17.38 1059.98,-21.09 1060.12,-14.09"/>
</g>
<!-- Node32 -->
<g id="node32" class="node">
<title>Node32</title>
<g id="a_node32"><a xlink:title=" ">
<polygon fill="white" stroke="#bfbfbf" points="1859.39,-67.5 1859.39,-86.5 1925.39,-86.5 1925.39,-67.5 1859.39,-67.5"/>
<text text-anchor="middle" x="1892.39" y="-74.5" font-family="Helvetica,sans-Serif" font-size="10.00">vtkPoints.h</text>
</a>
</g>
</g>
<!-- Node18&#45;&gt;Node32 -->
<g id="edge34" class="edge">
<title>Node18&#45;&gt;Node32</title>
<path fill="none" stroke="midnightblue" d="M1341.36,-128.88C1347.69,-126.6 1354.74,-124.4 1361.39,-123 1572.48,-78.65 1631.55,-115.33 1845.39,-87 1846.66,-86.83 1847.95,-86.65 1849.25,-86.46"/>
<polygon fill="midnightblue" stroke="midnightblue" points="1850.03,-89.88 1859.34,-84.82 1848.91,-82.97 1850.03,-89.88"/>
</g>
<!-- Node33 -->
<g id="node33" class="node">
<title>Node33</title>
<g id="a_node33"><a xlink:title=" ">
<polygon fill="white" stroke="#bfbfbf" points="1474.39,-6 1474.39,-25 1540.39,-25 1540.39,-6 1474.39,-6"/>
<text text-anchor="middle" x="1507.39" y="-13" font-family="Helvetica,sans-Serif" font-size="10.00">vtkVector.h</text>
</a>
</g>
</g>
<!-- Node18&#45;&gt;Node33 -->
<g id="edge35" class="edge">
<title>Node18&#45;&gt;Node33</title>
<path fill="none" stroke="midnightblue" d="M1342.29,-128.93C1348.4,-126.77 1355.09,-124.6 1361.39,-123 1410.24,-110.54 1552.69,-125.37 1585.39,-87 1604.51,-64.56 1568.45,-42.37 1539.23,-29.05"/>
<polygon fill="midnightblue" stroke="midnightblue" points="1540.63,-25.84 1530.06,-25.05 1537.83,-32.26 1540.63,-25.84"/>
</g>
<!-- Node34 -->
<g id="node34" class="node">
<title>Node34</title>
<g id="a_node34"><a xlink:title=" ">
<polygon fill="white" stroke="#bfbfbf" points="1558.89,-6 1558.89,-25 1667.89,-25 1667.89,-6 1558.89,-6"/>
<text text-anchor="middle" x="1613.39" y="-13" font-family="Helvetica,sans-Serif" font-size="10.00">vtkVectorOperators.h</text>
</a>
</g>
</g>
<!-- Node18&#45;&gt;Node34 -->
<g id="edge36" class="edge">
<title>Node18&#45;&gt;Node34</title>
<path fill="none" stroke="midnightblue" d="M1341.38,-128.97C1347.71,-126.7 1354.75,-124.47 1361.39,-123 1443.12,-104.91 1680.09,-148.96 1736.39,-87 1742.36,-80.42 1741.34,-74.38 1736.39,-67 1726.75,-52.62 1686.18,-37.76 1654.24,-27.91"/>
<polygon fill="midnightblue" stroke="midnightblue" points="1655.23,-24.55 1644.65,-25.02 1653.21,-31.26 1655.23,-24.55"/>
</g>
<!-- Node35 -->
<g id="node35" class="node">
<title>Node35</title>
<g id="a_node35"><a xlink:title=" ">
<polygon fill="white" stroke="#bfbfbf" points="1686.39,-6 1686.39,-25 1768.39,-25 1768.39,-6 1686.39,-6"/>
<text text-anchor="middle" x="1727.39" y="-13" font-family="Helvetica,sans-Serif" font-size="10.00">vtkVectorDot.h</text>
</a>
</g>
</g>
<!-- Node18&#45;&gt;Node35 -->
<g id="edge37" class="edge">
<title>Node18&#45;&gt;Node35</title>
<path fill="none" stroke="midnightblue" d="M1341.37,-128.95C1347.71,-126.68 1354.75,-124.46 1361.39,-123 1446.62,-104.31 1693.58,-151.47 1752.39,-87 1766.12,-71.94 1753.62,-48.85 1741.89,-33.24"/>
<polygon fill="midnightblue" stroke="midnightblue" points="1744.61,-31.04 1735.62,-25.43 1739.15,-35.42 1744.61,-31.04"/>
</g>
<!-- Node36 -->
<g id="node36" class="node">
<title>Node36</title>
<g id="a_node36"><a xlink:title=" ">
<polygon fill="white" stroke="#bfbfbf" points="1786.39,-6 1786.39,-25 1876.39,-25 1876.39,-6 1786.39,-6"/>
<text text-anchor="middle" x="1831.39" y="-13" font-family="Helvetica,sans-Serif" font-size="10.00">vtkVectorNorm.h</text>
</a>
</g>
</g>
<!-- Node18&#45;&gt;Node36 -->
<g id="edge38" class="edge">
<title>Node18&#45;&gt;Node36</title>
<path fill="none" stroke="midnightblue" d="M1341.37,-128.94C1347.71,-126.66 1354.75,-124.44 1361.39,-123 1450.33,-103.67 1688.18,-128.12 1769.39,-87 1792.48,-75.3 1810.78,-50.98 1821.35,-34.21"/>
<polygon fill="midnightblue" stroke="midnightblue" points="1824.52,-35.73 1826.66,-25.35 1818.52,-32.13 1824.52,-35.73"/>
</g>
<!-- Node37 -->
<g id="node37" class="node">
<title>Node37</title>
<g id="a_node37"><a xlink:title=" ">
<polygon fill="white" stroke="#bfbfbf" points="1943.39,-67.5 1943.39,-86.5 2077.39,-86.5 2077.39,-67.5 1943.39,-67.5"/>
<text text-anchor="middle" x="2010.39" y="-74.5" font-family="Helvetica,sans-Serif" font-size="10.00">vtkSelectEnclosedPoints.h</text>
</a>
</g>
</g>
<!-- Node18&#45;&gt;Node37 -->
<g id="edge39" class="edge">
<title>Node18&#45;&gt;Node37</title>
<path fill="none" stroke="midnightblue" d="M1340.93,-128.98C1347.37,-126.65 1354.58,-124.39 1361.39,-123 1608.1,-72.64 1678.41,-109.03 1932.97,-87.06"/>
<polygon fill="midnightblue" stroke="midnightblue" points="1933.62,-90.52 1943.27,-86.15 1933,-83.55 1933.62,-90.52"/>
</g>
<!-- Node38 -->
<g id="node38" class="node">
<title>Node38</title>
<g id="a_node38"><a xlink:title=" ">
<polygon fill="white" stroke="#bfbfbf" points="2095.39,-67.5 2095.39,-86.5 2173.39,-86.5 2173.39,-67.5 2095.39,-67.5"/>
<text text-anchor="middle" x="2134.39" y="-74.5" font-family="Helvetica,sans-Serif" font-size="10.00">vtkCellArray.h</text>
</a>
</g>
</g>
<!-- Node18&#45;&gt;Node38 -->
<g id="edge40" class="edge">
<title>Node18&#45;&gt;Node38</title>
<path fill="none" stroke="midnightblue" d="M1340.92,-128.93C1347.36,-126.6 1354.57,-124.34 1361.39,-123 1674.66,-61.2 1764.16,-123.51 2085.11,-86.97"/>
<polygon fill="midnightblue" stroke="midnightblue" points="2085.63,-90.43 2095.16,-85.8 2084.82,-83.48 2085.63,-90.43"/>
</g>
<!-- Node39 -->
<g id="node39" class="node">
<title>Node39</title>
<g id="a_node39"><a xlink:title=" ">
<polygon fill="white" stroke="#bfbfbf" points="2191.39,-67.5 2191.39,-86.5 2253.39,-86.5 2253.39,-67.5 2191.39,-67.5"/>
<text text-anchor="middle" x="2222.39" y="-74.5" font-family="Helvetica,sans-Serif" font-size="10.00">vtkActor.h</text>
</a>
</g>
</g>
<!-- Node18&#45;&gt;Node39 -->
<g id="edge42" class="edge">
<title>Node18&#45;&gt;Node39</title>
<path fill="none" stroke="midnightblue" d="M1340.91,-128.9C1347.35,-126.57 1354.57,-124.32 1361.39,-123 1716.68,-53.98 1818.52,-133.81 2181.06,-86.92"/>
<polygon fill="midnightblue" stroke="midnightblue" points="2181.58,-90.38 2191.04,-85.61 2180.67,-83.44 2181.58,-90.38"/>
</g>
<!-- Node40 -->
<g id="node40" class="node">
<title>Node40</title>
<g id="a_node40"><a xlink:title=" ">
<polygon fill="white" stroke="#bfbfbf" points="2271.89,-67.5 2271.89,-86.5 2386.89,-86.5 2386.89,-67.5 2271.89,-67.5"/>
<text text-anchor="middle" x="2329.39" y="-74.5" font-family="Helvetica,sans-Serif" font-size="10.00">vtkModifiedBSPTree.h</text>
</a>
</g>
</g>
<!-- Node18&#45;&gt;Node40 -->
<g id="edge43" class="edge">
<title>Node18&#45;&gt;Node40</title>
<path fill="none" stroke="midnightblue" d="M1340.91,-128.89C1347.35,-126.55 1354.57,-124.31 1361.39,-123 1751.68,-47.97 1861.31,-120.49 2261.57,-86.96"/>
<polygon fill="midnightblue" stroke="midnightblue" points="2262.02,-90.44 2271.68,-86.1 2261.42,-83.46 2262.02,-90.44"/>
</g>
<!-- Node41 -->
<g id="node41" class="node">
<title>Node41</title>
<g id="a_node41"><a xlink:title=" ">
<polygon fill="white" stroke="#bfbfbf" points="2404.89,-67.5 2404.89,-86.5 2477.89,-86.5 2477.89,-67.5 2404.89,-67.5"/>
<text text-anchor="middle" x="2441.39" y="-74.5" font-family="Helvetica,sans-Serif" font-size="10.00">vtkTriangle.h</text>
</a>
</g>
</g>
<!-- Node18&#45;&gt;Node41 -->
<g id="edge44" class="edge">
<title>Node18&#45;&gt;Node41</title>
<path fill="none" stroke="midnightblue" d="M1340.9,-128.86C1347.35,-126.53 1354.56,-124.29 1361.39,-123 1810.3,-37.9 1937.35,-138.81 2394.45,-87.03"/>
<polygon fill="midnightblue" stroke="midnightblue" points="2395.09,-90.48 2404.63,-85.86 2394.29,-83.53 2395.09,-90.48"/>
</g>
<!-- Node42 -->
<g id="node42" class="node">
<title>Node42</title>
<g id="a_node42"><a xlink:href="../../de/d3a/vtksurface_8h.html" target="_top" xlink:title=" ">
<polygon fill="white" stroke="red" points="14.89,-67.5 14.89,-86.5 115.89,-86.5 115.89,-67.5 14.89,-67.5"/>
<text text-anchor="middle" x="65.39" y="-74.5" font-family="Helvetica,sans-Serif" font-size="10.00">vtkext/vtksurface.h</text>
</a>
</g>
</g>
<!-- Node18&#45;&gt;Node42 -->
<g id="edge45" class="edge">
<title>Node18&#45;&gt;Node42</title>
<path fill="none" stroke="midnightblue" d="M1288.15,-136.66C1151.76,-132.99 608.72,-117.15 163.39,-87 151.33,-86.18 138.46,-85.13 126.15,-84.04"/>
<polygon fill="midnightblue" stroke="midnightblue" points="126.24,-80.53 115.96,-83.11 125.6,-87.5 126.24,-80.53"/>
</g>
<!-- Node56 -->
<g id="node43" class="node">
<title>Node56</title>
<g id="a_node43"><a xlink:title=" ">
<polygon fill="white" stroke="#bfbfbf" points="2354.39,-6 2354.39,-25 2484.39,-25 2484.39,-6 2354.39,-6"/>
<text text-anchor="middle" x="2419.39" y="-13" font-family="Helvetica,sans-Serif" font-size="10.00">CGAL/Simple_cartesian.h</text>
</a>
</g>
</g>
<!-- Node18&#45;&gt;Node56 -->
<g id="edge48" class="edge">
<title>Node18&#45;&gt;Node56</title>
<path fill="none" stroke="midnightblue" d="M1340.9,-128.85C1347.34,-126.52 1354.56,-124.28 1361.39,-123 1422.89,-111.43 2443.84,-131.96 2487.39,-87 2506.65,-67.11 2473.91,-44.01 2447.52,-29.82"/>
<polygon fill="midnightblue" stroke="midnightblue" points="2449.04,-26.67 2438.54,-25.19 2445.83,-32.89 2449.04,-26.67"/>
</g>
<!-- Node57 -->
<g id="node44" class="node">
<title>Node57</title>
<g id="a_node44"><a xlink:title=" ">
<polygon fill="white" stroke="#bfbfbf" points="2502.39,-6 2502.39,-25 2606.39,-25 2606.39,-6 2502.39,-6"/>
<text text-anchor="middle" x="2554.39" y="-13" font-family="Helvetica,sans-Serif" font-size="10.00">CGAL/AABB_tree.h</text>
</a>
</g>
</g>
<!-- Node18&#45;&gt;Node57 -->
<g id="edge49" class="edge">
<title>Node18&#45;&gt;Node57</title>
<path fill="none" stroke="midnightblue" d="M1340.9,-128.85C1347.34,-126.52 1354.56,-124.28 1361.39,-123 1486.16,-99.56 2391.25,-146.53 2503.39,-87 2524.49,-75.8 2538.99,-51.52 2546.98,-34.61"/>
<polygon fill="midnightblue" stroke="midnightblue" points="2550.29,-35.77 2551.12,-25.21 2543.89,-32.95 2550.29,-35.77"/>
</g>
<!-- Node58 -->
<g id="node45" class="node">
<title>Node58</title>
<g id="a_node45"><a xlink:title=" ">
<polygon fill="white" stroke="#bfbfbf" points="2624.89,-6 2624.89,-25 2733.89,-25 2733.89,-6 2624.89,-6"/>
<text text-anchor="middle" x="2679.39" y="-13" font-family="Helvetica,sans-Serif" font-size="10.00">CGAL/AABB_traits.h</text>
</a>
</g>
</g>
<!-- Node18&#45;&gt;Node58 -->
<g id="edge50" class="edge">
<title>Node18&#45;&gt;Node58</title>
<path fill="none" stroke="midnightblue" d="M1340.48,-128.99C1347.03,-126.6 1354.41,-124.3 1361.39,-123 1432.97,-109.7 2617.75,-136.23 2671.39,-87 2685.25,-74.28 2685.42,-51.64 2683.3,-35.44"/>
<polygon fill="midnightblue" stroke="midnightblue" points="2686.73,-34.74 2681.6,-25.47 2679.83,-35.91 2686.73,-34.74"/>
</g>
<!-- Node59 -->
<g id="node46" class="node">
<title>Node59</title>
<g id="a_node46"><a xlink:title=" ">
<polygon fill="white" stroke="#bfbfbf" points="2752.39,-0.5 2752.39,-30.5 2862.39,-30.5 2862.39,-0.5 2752.39,-0.5"/>
<text text-anchor="start" x="2760.39" y="-18.5" font-family="Helvetica,sans-Serif" font-size="10.00">CGAL/AABB_triangle</text>
<text text-anchor="middle" x="2807.39" y="-7.5" font-family="Helvetica,sans-Serif" font-size="10.00">_primitive.h</text>
</a>
</g>
</g>
<!-- Node18&#45;&gt;Node59 -->
<g id="edge51" class="edge">
<title>Node18&#45;&gt;Node59</title>
<path fill="none" stroke="midnightblue" d="M1340.48,-128.99C1347.03,-126.59 1354.41,-124.3 1361.39,-123 1651.87,-69.09 2406.84,-169.98 2690.39,-87 2725.1,-76.84 2759.98,-53.76 2782.5,-36.77"/>
<polygon fill="midnightblue" stroke="midnightblue" points="2784.73,-39.47 2790.51,-30.59 2780.45,-33.93 2784.73,-39.47"/>
</g>
<!-- Node60 -->
<g id="node47" class="node">
<title>Node60</title>
<g id="a_node47"><a xlink:href="../../dd/db0/cgal__defs_8h.html" target="_top" xlink:title="CGAL specific definitions.">
<polygon fill="white" stroke="red" points="2572.89,-67.5 2572.89,-86.5 2661.89,-86.5 2661.89,-67.5 2572.89,-67.5"/>
<text text-anchor="middle" x="2617.39" y="-74.5" font-family="Helvetica,sans-Serif" font-size="10.00">defs/cgal_defs.h</text>
</a>
</g>
</g>
<!-- Node18&#45;&gt;Node60 -->
<g id="edge52" class="edge">
<title>Node18&#45;&gt;Node60</title>
<path fill="none" stroke="midnightblue" d="M1340.48,-129C1347.03,-126.61 1354.41,-124.31 1361.39,-123 1622.97,-74.05 2293.36,-111.11 2558.39,-87 2559.69,-86.88 2561.01,-86.75 2562.34,-86.61"/>
<polygon fill="midnightblue" stroke="midnightblue" points="2563.15,-90.04 2572.68,-85.4 2562.34,-83.09 2563.15,-90.04"/>
</g>
<!-- Node70 -->
<g id="node48" class="node">
<title>Node70</title>
<g id="a_node48"><a xlink:href="../../d1/da8/sampling_8h.html" target="_top" xlink:title="Various algorithms (random, quasi monte carlo) for generating sample points.">
<polygon fill="white" stroke="red" points="530.89,-67.5 530.89,-86.5 615.89,-86.5 615.89,-67.5 530.89,-67.5"/>
<text text-anchor="middle" x="573.39" y="-74.5" font-family="Helvetica,sans-Serif" font-size="10.00">utils/sampling.h</text>
</a>
</g>
</g>
<!-- Node18&#45;&gt;Node70 -->
<g id="edge57" class="edge">
<title>Node18&#45;&gt;Node70</title>
<path fill="none" stroke="midnightblue" d="M1288.06,-136.29C1190.05,-132.37 887.47,-118.52 625.97,-86.94"/>
<polygon fill="midnightblue" stroke="midnightblue" points="626.25,-83.45 615.9,-85.71 625.41,-90.4 626.25,-83.45"/>
</g>
<!-- Node73 -->
<g id="node49" class="node">
<title>Node73</title>
<g id="a_node49"><a xlink:href="../../d2/d6f/constants_8h.html" target="_top" xlink:title="Application / Algorithm specific global constants.">
<polygon fill="white" stroke="red" points="1637.89,-67.5 1637.89,-86.5 1726.89,-86.5 1726.89,-67.5 1637.89,-67.5"/>
<text text-anchor="middle" x="1682.39" y="-74.5" font-family="Helvetica,sans-Serif" font-size="10.00">core/constants.h</text>
</a>
</g>
</g>
<!-- Node18&#45;&gt;Node73 -->
<g id="edge64" class="edge">
<title>Node18&#45;&gt;Node73</title>
<path fill="none" stroke="midnightblue" d="M1341.84,-128.99C1348.07,-126.77 1354.93,-124.57 1361.39,-123 1475.6,-95.26 1507.06,-103.86 1623.39,-87 1624.68,-86.81 1626,-86.62 1627.32,-86.43"/>
<polygon fill="midnightblue" stroke="midnightblue" points="1628.24,-89.83 1637.62,-84.9 1627.21,-82.9 1628.24,-89.83"/>
</g>
<!-- Node74 -->
<g id="node50" class="node">
<title>Node74</title>
<g id="a_node50"><a xlink:href="../../d6/d5e/tool_8h.html" target="_top" xlink:title="Base class for tools.">
<polygon fill="white" stroke="red" points="370.89,-67.5 370.89,-86.5 435.89,-86.5 435.89,-67.5 370.89,-67.5"/>
<text text-anchor="middle" x="403.39" y="-74.5" font-family="Helvetica,sans-Serif" font-size="10.00">tools/tool.h</text>
</a>
</g>
</g>
<!-- Node18&#45;&gt;Node74 -->
<g id="edge66" class="edge">
<title>Node18&#45;&gt;Node74</title>
<path fill="none" stroke="midnightblue" d="M1288.23,-136.07C1177.17,-131.01 799.52,-112.9 488.39,-87 474.6,-85.85 459.58,-84.35 446.05,-82.9"/>
<polygon fill="midnightblue" stroke="midnightblue" points="446.37,-79.41 436.05,-81.8 445.61,-86.37 446.37,-79.41"/>
</g>
<!-- Node42&#45;&gt;Node2 -->
<g id="edge46" class="edge">
<title>Node42&#45;&gt;Node2</title>
<path fill="none" stroke="midnightblue" d="M59.8,-67.48C54.01,-58.64 44.8,-44.59 37.51,-33.48"/>
<polygon fill="midnightblue" stroke="midnightblue" points="40.37,-31.45 31.96,-25.01 34.52,-35.29 40.37,-31.45"/>
</g>
<!-- Node42&#45;&gt;Node5 -->
<g id="edge47" class="edge">
<title>Node42&#45;&gt;Node5</title>
<path fill="none" stroke="midnightblue" d="M90.89,-67.48C121.69,-57.18 173.65,-39.81 208.23,-28.25"/>
<polygon fill="midnightblue" stroke="midnightblue" points="209.56,-31.5 217.93,-25.01 207.34,-24.86 209.56,-31.5"/>
</g>
<!-- Node60&#45;&gt;Node56 -->
<g id="edge53" class="edge">
<title>Node60&#45;&gt;Node56</title>
<path fill="none" stroke="midnightblue" d="M2589.02,-67.48C2554.47,-57.09 2495.96,-39.51 2457.5,-27.95"/>
<polygon fill="midnightblue" stroke="midnightblue" points="2458.29,-24.54 2447.7,-25.01 2456.27,-31.24 2458.29,-24.54"/>
</g>
<!-- Node60&#45;&gt;Node57 -->
<g id="edge54" class="edge">
<title>Node60&#45;&gt;Node57</title>
<path fill="none" stroke="midnightblue" d="M2608.36,-67.48C2598.63,-58.28 2582.93,-43.46 2570.96,-32.16"/>
<polygon fill="midnightblue" stroke="midnightblue" points="2573.07,-29.33 2563.4,-25.01 2568.26,-34.42 2573.07,-29.33"/>
</g>
<!-- Node60&#45;&gt;Node58 -->
<g id="edge55" class="edge">
<title>Node60&#45;&gt;Node58</title>
<path fill="none" stroke="midnightblue" d="M2626.27,-67.48C2635.85,-58.28 2651.3,-43.46 2663.07,-32.16"/>
<polygon fill="midnightblue" stroke="midnightblue" points="2665.73,-34.46 2670.52,-25.01 2660.88,-29.41 2665.73,-34.46"/>
</g>
<!-- Node60&#45;&gt;Node59 -->
<g id="edge56" class="edge">
<title>Node60&#45;&gt;Node59</title>
<path fill="none" stroke="midnightblue" d="M2644.61,-67.48C2672.75,-58.66 2717.44,-44.67 2752.88,-33.57"/>
<polygon fill="midnightblue" stroke="midnightblue" points="2754.11,-36.85 2762.61,-30.52 2752.02,-30.17 2754.11,-36.85"/>
</g>
<!-- Node70&#45;&gt;Node4 -->
<g id="edge58" class="edge">
<title>Node70&#45;&gt;Node4</title>
<path fill="none" stroke="midnightblue" d="M557.77,-67.48C539.8,-57.67 510.06,-41.43 488.98,-29.92"/>
<polygon fill="midnightblue" stroke="midnightblue" points="490.43,-26.73 479.97,-25.01 487.07,-32.87 490.43,-26.73"/>
</g>
<!-- Node70&#45;&gt;Node31 -->
<g id="edge63" class="edge">
<title>Node70&#45;&gt;Node31</title>
<path fill="none" stroke="midnightblue" d="M615.93,-68.51C619.13,-67.99 622.31,-67.48 625.39,-67 730.53,-50.69 853,-34.43 926.79,-24.93"/>
<polygon fill="midnightblue" stroke="midnightblue" points="927.4,-28.38 936.87,-23.63 926.51,-21.43 927.4,-28.38"/>
</g>
<!-- Node70&#45;&gt;Node33 -->
<g id="edge59" class="edge">
<title>Node70&#45;&gt;Node33</title>
<path fill="none" stroke="midnightblue" d="M615.9,-68.24C619.1,-67.77 622.29,-67.36 625.39,-67 945.89,-30.21 1335.14,-19.78 1463.8,-17.24"/>
<polygon fill="midnightblue" stroke="midnightblue" points="1464.1,-20.73 1474.03,-17.04 1463.96,-13.73 1464.1,-20.73"/>
</g>
<!-- Node70&#45;&gt;Node34 -->
<g id="edge60" class="edge">
<title>Node70&#45;&gt;Node34</title>
<path fill="none" stroke="midnightblue" d="M615.89,-68.17C619.1,-67.73 622.29,-67.33 625.39,-67 1034.09,-23.86 1141.92,-84.63 1549.39,-31 1556.37,-30.08 1563.71,-28.76 1570.83,-27.29"/>
<polygon fill="midnightblue" stroke="midnightblue" points="1572.02,-30.61 1581.04,-25.04 1570.52,-23.77 1572.02,-30.61"/>
</g>
<!-- Node70&#45;&gt;Node35 -->
<g id="edge61" class="edge">
<title>Node70&#45;&gt;Node35</title>
<path fill="none" stroke="midnightblue" d="M615.89,-68.16C619.09,-67.71 622.29,-67.32 625.39,-67 1090.75,-19 1215.4,-104.72 1677.39,-31 1682.31,-30.21 1687.44,-29.09 1692.46,-27.82"/>
<polygon fill="midnightblue" stroke="midnightblue" points="1693.78,-31.08 1702.48,-25.04 1691.91,-24.34 1693.78,-31.08"/>
</g>
<!-- Node70&#45;&gt;Node36 -->
<g id="edge62" class="edge">
<title>Node70&#45;&gt;Node36</title>
<path fill="none" stroke="midnightblue" d="M615.89,-68.14C619.09,-67.71 622.29,-67.32 625.39,-67 1135.01,-15.19 1270.64,-105.92 1777.39,-31 1782.97,-30.17 1788.8,-28.98 1794.48,-27.62"/>
<polygon fill="midnightblue" stroke="midnightblue" points="1795.64,-30.93 1804.45,-25.04 1793.89,-24.15 1795.64,-30.93"/>
</g>
<!-- Node73&#45;&gt;Node33 -->
<g id="edge65" class="edge">
<title>Node73&#45;&gt;Node33</title>
<path fill="none" stroke="midnightblue" d="M1657.31,-67.48C1627.03,-57.18 1575.95,-39.81 1541.95,-28.25"/>
<polygon fill="midnightblue" stroke="midnightblue" points="1543.01,-24.91 1532.41,-25.01 1540.75,-31.54 1543.01,-24.91"/>
</g>
<!-- Node74&#45;&gt;Node4 -->
<g id="edge67" class="edge">
<title>Node74&#45;&gt;Node4</title>
<path fill="none" stroke="midnightblue" d="M412.13,-67.48C421.55,-58.28 436.75,-43.46 448.34,-32.16"/>
<polygon fill="midnightblue" stroke="midnightblue" points="450.95,-34.5 455.66,-25.01 446.06,-29.49 450.95,-34.5"/>
</g>
<!-- Node74&#45;&gt;Node5 -->
<g id="edge68" class="edge">
<title>Node74&#45;&gt;Node5</title>
<path fill="none" stroke="midnightblue" d="M380.46,-67.48C353.02,-57.27 306.87,-40.11 275.79,-28.55"/>
<polygon fill="midnightblue" stroke="midnightblue" points="276.86,-25.21 266.27,-25.01 274.42,-31.78 276.86,-25.21"/>
</g>
</g>
</svg>
