<?xml version="1.0" encoding="UTF-8" standalone="no"?>
<!DOCTYPE svg PUBLIC "-//W3C//DTD SVG 1.1//EN"
 "http://www.w3.org/Graphics/SVG/1.1/DTD/svg11.dtd">
<!-- Generated by graphviz version 2.44.1 (0)
 -->
<!-- Title: singlepassvoxelizer.h Pages: 1 -->
<svg width="764pt" height="308pt"
 viewBox="0.00 0.00 763.68 308.00" xmlns="http://www.w3.org/2000/svg" xmlns:xlink="http://www.w3.org/1999/xlink">
<g id="graph0" class="graph" transform="scale(1 1) rotate(0) translate(4 304)">
<title>singlepassvoxelizer.h</title>
<polygon fill="white" stroke="transparent" points="-4,4 -4,-304 759.68,-304 759.68,4 -4,4"/>
<!-- Node1 -->
<g id="node1" class="node">
<title>Node1</title>
<g id="a_node1"><a xlink:title="Single pass rasterization based voxelizer.">
<polygon fill="#bfbfbf" stroke="black" points="331.5,-280.5 331.5,-299.5 441.5,-299.5 441.5,-280.5 331.5,-280.5"/>
<text text-anchor="middle" x="386.5" y="-287.5" font-family="Helvetica,sans-Serif" font-size="10.00">singlepassvoxelizer.h</text>
</a>
</g>
</g>
<!-- Node2 -->
<g id="node2" class="node">
<title>Node2</title>
<g id="a_node2"><a xlink:href="../../d9/d53/mainwindow_8h.html" target="_top" xlink:title="Qt MainWindow of the application.">
<polygon fill="white" stroke="black" points="385.5,-56.5 385.5,-75.5 463.5,-75.5 463.5,-56.5 385.5,-56.5"/>
<text text-anchor="middle" x="424.5" y="-63.5" font-family="Helvetica,sans-Serif" font-size="10.00">mainwindow.h</text>
</a>
</g>
</g>
<!-- Node1&#45;&gt;Node2 -->
<g id="edge1" class="edge">
<title>Node1&#45;&gt;Node2</title>
<path fill="none" stroke="midnightblue" d="M362.28,-275.45C312.21,-245.72 205.71,-172.6 252.5,-112 268.58,-91.17 339.54,-78.13 385.14,-71.74"/>
<polygon fill="midnightblue" stroke="midnightblue" points="360.52,-278.48 370.93,-280.48 364.05,-272.43 360.52,-278.48"/>
</g>
<!-- Node5 -->
<g id="node5" class="node">
<title>Node5</title>
<g id="a_node5"><a xlink:href="../../d1/db7/meshsubtractor_8h.html" target="_top" xlink:title=" ">
<polygon fill="white" stroke="black" points="110.5,-168.5 110.5,-187.5 202.5,-187.5 202.5,-168.5 110.5,-168.5"/>
<text text-anchor="middle" x="156.5" y="-175.5" font-family="Helvetica,sans-Serif" font-size="10.00">meshsubtractor.h</text>
</a>
</g>
</g>
<!-- Node1&#45;&gt;Node5 -->
<g id="edge4" class="edge">
<title>Node1&#45;&gt;Node5</title>
<path fill="none" stroke="midnightblue" d="M321.12,-279.8C288.9,-273.23 250.44,-262.21 219.5,-244 194.31,-229.17 172.47,-201.58 162.41,-187.6"/>
<polygon fill="midnightblue" stroke="midnightblue" points="320.86,-283.31 331.34,-281.78 322.19,-276.44 320.86,-283.31"/>
</g>
<!-- Node9 -->
<g id="node9" class="node">
<title>Node9</title>
<g id="a_node9"><a xlink:href="../../dd/d13/singlepassvoxelizer_8cpp.html" target="_top" xlink:title=" ">
<polygon fill="white" stroke="black" points="453,-224.5 453,-243.5 574,-243.5 574,-224.5 453,-224.5"/>
<text text-anchor="middle" x="513.5" y="-231.5" font-family="Helvetica,sans-Serif" font-size="10.00">singlepassvoxelizer.cpp</text>
</a>
</g>
</g>
<!-- Node1&#45;&gt;Node9 -->
<g id="edge9" class="edge">
<title>Node1&#45;&gt;Node9</title>
<path fill="none" stroke="midnightblue" d="M415.89,-276.5C439.7,-266.38 472.61,-252.39 493.47,-243.52"/>
<polygon fill="midnightblue" stroke="midnightblue" points="414.46,-273.31 406.62,-280.44 417.2,-279.75 414.46,-273.31"/>
</g>
<!-- Node10 -->
<g id="node10" class="node">
<title>Node10</title>
<g id="a_node10"><a xlink:href="../../d3/da6/surfacevoxelizer_8h.html" target="_top" xlink:title="Mesh surface only voxelizer.">
<polygon fill="white" stroke="black" points="338.5,-224.5 338.5,-243.5 434.5,-243.5 434.5,-224.5 338.5,-224.5"/>
<text text-anchor="middle" x="386.5" y="-231.5" font-family="Helvetica,sans-Serif" font-size="10.00">surfacevoxelizer.h</text>
</a>
</g>
</g>
<!-- Node1&#45;&gt;Node10 -->
<g id="edge10" class="edge">
<title>Node1&#45;&gt;Node10</title>
<path fill="none" stroke="midnightblue" d="M380.03,-270.1C379.4,-261.14 379.84,-250.86 381.37,-243.75"/>
<polygon fill="midnightblue" stroke="midnightblue" points="376.57,-270.62 381.33,-280.08 383.51,-269.71 376.57,-270.62"/>
</g>
<!-- Node3 -->
<g id="node3" class="node">
<title>Node3</title>
<g id="a_node3"><a xlink:href="../../d8/dd9/mainwindow_8cpp.html" target="_top" xlink:title=" ">
<polygon fill="white" stroke="black" points="335,-0.5 335,-19.5 424,-19.5 424,-0.5 335,-0.5"/>
<text text-anchor="middle" x="379.5" y="-7.5" font-family="Helvetica,sans-Serif" font-size="10.00">mainwindow.cpp</text>
</a>
</g>
</g>
<!-- Node2&#45;&gt;Node3 -->
<g id="edge2" class="edge">
<title>Node2&#45;&gt;Node3</title>
<path fill="none" stroke="midnightblue" d="M410.45,-48.14C402.61,-38.74 393.17,-27.4 386.79,-19.75"/>
<polygon fill="midnightblue" stroke="midnightblue" points="407.98,-50.64 417.07,-56.08 413.36,-46.16 407.98,-50.64"/>
</g>
<!-- Node4 -->
<g id="node4" class="node">
<title>Node4</title>
<g id="a_node4"><a xlink:href="../../df/d0a/main_8cpp.html" target="_top" xlink:title=" ">
<polygon fill="white" stroke="black" points="441.5,-0.5 441.5,-19.5 497.5,-19.5 497.5,-0.5 441.5,-0.5"/>
<text text-anchor="middle" x="469.5" y="-7.5" font-family="Helvetica,sans-Serif" font-size="10.00">main.cpp</text>
</a>
</g>
</g>
<!-- Node2&#45;&gt;Node4 -->
<g id="edge3" class="edge">
<title>Node2&#45;&gt;Node4</title>
<path fill="none" stroke="midnightblue" d="M438.55,-48.14C446.39,-38.74 455.83,-27.4 462.21,-19.75"/>
<polygon fill="midnightblue" stroke="midnightblue" points="435.64,-46.16 431.93,-56.08 441.02,-50.64 435.64,-46.16"/>
</g>
<!-- Node6 -->
<g id="node6" class="node">
<title>Node6</title>
<g id="a_node6"><a xlink:href="../../db/dcb/exportstltool_8h.html" target="_top" xlink:title="Tool for exporting a wired mesh to the stl file format.">
<polygon fill="white" stroke="black" points="5.5,-112.5 5.5,-131.5 83.5,-131.5 83.5,-112.5 5.5,-112.5"/>
<text text-anchor="middle" x="44.5" y="-119.5" font-family="Helvetica,sans-Serif" font-size="10.00">exportstltool.h</text>
</a>
</g>
</g>
<!-- Node5&#45;&gt;Node6 -->
<g id="edge5" class="edge">
<title>Node5&#45;&gt;Node6</title>
<path fill="none" stroke="midnightblue" d="M129.25,-163.86C108.48,-153.85 80.48,-140.35 62.45,-131.65"/>
<polygon fill="midnightblue" stroke="midnightblue" points="127.98,-167.13 138.51,-168.32 131.02,-160.83 127.98,-167.13"/>
</g>
<!-- Node8 -->
<g id="node8" class="node">
<title>Node8</title>
<g id="a_node8"><a xlink:href="../../d3/d7e/meshsubtractor_8cpp.html" target="_top" xlink:title=" ">
<polygon fill="white" stroke="black" points="102,-112.5 102,-131.5 205,-131.5 205,-112.5 102,-112.5"/>
<text text-anchor="middle" x="153.5" y="-119.5" font-family="Helvetica,sans-Serif" font-size="10.00">meshsubtractor.cpp</text>
</a>
</g>
</g>
<!-- Node5&#45;&gt;Node8 -->
<g id="edge8" class="edge">
<title>Node5&#45;&gt;Node8</title>
<path fill="none" stroke="midnightblue" d="M155.43,-157.8C154.94,-148.91 154.38,-138.78 153.99,-131.75"/>
<polygon fill="midnightblue" stroke="midnightblue" points="151.96,-158.29 156,-168.08 158.94,-157.9 151.96,-158.29"/>
</g>
<!-- Node6&#45;&gt;Node2 -->
<g id="edge6" class="edge">
<title>Node6&#45;&gt;Node2</title>
<path fill="none" stroke="midnightblue" d="M93.59,-111.89C205.29,-94.05 324.93,-78.98 385.31,-71.66"/>
<polygon fill="midnightblue" stroke="midnightblue" points="92.82,-108.47 83.5,-113.52 93.93,-115.38 92.82,-108.47"/>
</g>
<!-- Node7 -->
<g id="node7" class="node">
<title>Node7</title>
<g id="a_node7"><a xlink:href="../../de/d8b/exportstltool_8cpp.html" target="_top" xlink:title=" ">
<polygon fill="white" stroke="black" points="0,-56.5 0,-75.5 89,-75.5 89,-56.5 0,-56.5"/>
<text text-anchor="middle" x="44.5" y="-63.5" font-family="Helvetica,sans-Serif" font-size="10.00">exportstltool.cpp</text>
</a>
</g>
</g>
<!-- Node6&#45;&gt;Node7 -->
<g id="edge7" class="edge">
<title>Node6&#45;&gt;Node7</title>
<path fill="none" stroke="midnightblue" d="M44.5,-101.8C44.5,-92.91 44.5,-82.78 44.5,-75.75"/>
<polygon fill="midnightblue" stroke="midnightblue" points="41,-102.08 44.5,-112.08 48,-102.08 41,-102.08"/>
</g>
<!-- Node10&#45;&gt;Node1 -->
<g id="edge22" class="edge">
<title>Node10&#45;&gt;Node1</title>
<path fill="none" stroke="midnightblue" d="M392.96,-253.69C393.61,-262.64 393.18,-272.93 391.67,-280.08"/>
<polygon fill="midnightblue" stroke="midnightblue" points="396.42,-253.2 391.63,-243.75 389.48,-254.13 396.42,-253.2"/>
</g>
<!-- Node10&#45;&gt;Node2 -->
<g id="edge11" class="edge">
<title>Node10&#45;&gt;Node2</title>
<path fill="none" stroke="midnightblue" d="M444.75,-224.1C523.62,-216.5 692.01,-232.98 735.5,-188 759.03,-163.66 762.68,-137.57 740.5,-112 705.09,-71.19 540.28,-66.44 463.74,-66.5"/>
<polygon fill="midnightblue" stroke="midnightblue" points="444.21,-220.64 434.68,-225.27 445.02,-227.59 444.21,-220.64"/>
</g>
<!-- Node10&#45;&gt;Node5 -->
<g id="edge12" class="edge">
<title>Node10&#45;&gt;Node5</title>
<path fill="none" stroke="midnightblue" d="M340.3,-222.15C296.84,-211.95 232.66,-196.88 192.77,-187.52"/>
<polygon fill="midnightblue" stroke="midnightblue" points="339.52,-225.57 350.06,-224.44 341.12,-218.75 339.52,-225.57"/>
</g>
<!-- Node11 -->
<g id="node11" class="node">
<title>Node11</title>
<g id="a_node11"><a xlink:href="../../db/def/multipassvoxelizer_8h.html" target="_top" xlink:title="Multipass rasterization based robust voxelizer.">
<polygon fill="white" stroke="black" points="275.5,-168.5 275.5,-187.5 381.5,-187.5 381.5,-168.5 275.5,-168.5"/>
<text text-anchor="middle" x="328.5" y="-175.5" font-family="Helvetica,sans-Serif" font-size="10.00">multipassvoxelizer.h</text>
</a>
</g>
</g>
<!-- Node10&#45;&gt;Node11 -->
<g id="edge13" class="edge">
<title>Node10&#45;&gt;Node11</title>
<path fill="none" stroke="midnightblue" d="M369.59,-217.25C359.3,-207.67 346.53,-195.79 337.99,-187.83"/>
<polygon fill="midnightblue" stroke="midnightblue" points="367.48,-220.07 377.18,-224.32 372.25,-214.95 367.48,-220.07"/>
</g>
<!-- Node13 -->
<g id="node13" class="node">
<title>Node13</title>
<g id="a_node13"><a xlink:href="../../d4/dd0/octreevoxelizer_8h.html" target="_top" xlink:title="Octree based voxelizer.">
<polygon fill="white" stroke="black" points="400,-168.5 400,-187.5 491,-187.5 491,-168.5 400,-168.5"/>
<text text-anchor="middle" x="445.5" y="-175.5" font-family="Helvetica,sans-Serif" font-size="10.00">octreevoxelizer.h</text>
</a>
</g>
</g>
<!-- Node10&#45;&gt;Node13 -->
<g id="edge16" class="edge">
<title>Node10&#45;&gt;Node13</title>
<path fill="none" stroke="midnightblue" d="M403.39,-217.54C413.91,-207.91 427.07,-195.87 435.85,-187.83"/>
<polygon fill="midnightblue" stroke="midnightblue" points="400.99,-214.99 395.98,-224.32 405.72,-220.15 400.99,-214.99"/>
</g>
<!-- Node15 -->
<g id="node15" class="node">
<title>Node15</title>
<g id="a_node15"><a xlink:href="../../d1/d24/robustvoxelizer_8h.html" target="_top" xlink:title="Octree based voxelizer.">
<polygon fill="white" stroke="black" points="511,-168.5 511,-187.5 602,-187.5 602,-168.5 511,-168.5"/>
<text text-anchor="middle" x="556.5" y="-175.5" font-family="Helvetica,sans-Serif" font-size="10.00">robustvoxelizer.h</text>
</a>
</g>
</g>
<!-- Node10&#45;&gt;Node15 -->
<g id="edge19" class="edge">
<title>Node10&#45;&gt;Node15</title>
<path fill="none" stroke="midnightblue" d="M423.32,-221.3C455.35,-211.13 501.02,-196.62 529.69,-187.52"/>
<polygon fill="midnightblue" stroke="midnightblue" points="421.91,-218.08 413.44,-224.44 424.03,-224.75 421.91,-218.08"/>
</g>
<!-- Node17 -->
<g id="node17" class="node">
<title>Node17</title>
<g id="a_node17"><a xlink:href="../../dc/d62/surfacevoxelizer_8cpp.html" target="_top" xlink:title=" ">
<polygon fill="white" stroke="black" points="620,-168.5 620,-187.5 727,-187.5 727,-168.5 620,-168.5"/>
<text text-anchor="middle" x="673.5" y="-175.5" font-family="Helvetica,sans-Serif" font-size="10.00">surfacevoxelizer.cpp</text>
</a>
</g>
</g>
<!-- Node10&#45;&gt;Node17 -->
<g id="edge23" class="edge">
<title>Node10&#45;&gt;Node17</title>
<path fill="none" stroke="midnightblue" d="M442.11,-222.54C496.35,-212.33 577.84,-197 628.24,-187.52"/>
<polygon fill="midnightblue" stroke="midnightblue" points="441.16,-219.15 431.98,-224.44 442.45,-226.03 441.16,-219.15"/>
</g>
<!-- Node11&#45;&gt;Node2 -->
<g id="edge14" class="edge">
<title>Node11&#45;&gt;Node2</title>
<path fill="none" stroke="midnightblue" d="M350.91,-162.67C362.43,-154.58 376.19,-143.76 386.5,-132 402.19,-114.11 414.78,-88.81 420.74,-75.67"/>
<polygon fill="midnightblue" stroke="midnightblue" points="348.93,-159.78 342.62,-168.29 352.86,-165.57 348.93,-159.78"/>
</g>
<!-- Node12 -->
<g id="node12" class="node">
<title>Node12</title>
<g id="a_node12"><a xlink:href="../../dc/d4e/multipassvoxelizer_8cpp.html" target="_top" xlink:title=" ">
<polygon fill="white" stroke="black" points="261.5,-112.5 261.5,-131.5 377.5,-131.5 377.5,-112.5 261.5,-112.5"/>
<text text-anchor="middle" x="319.5" y="-119.5" font-family="Helvetica,sans-Serif" font-size="10.00">multipassvoxelizer.cpp</text>
</a>
</g>
</g>
<!-- Node11&#45;&gt;Node12 -->
<g id="edge15" class="edge">
<title>Node11&#45;&gt;Node12</title>
<path fill="none" stroke="midnightblue" d="M325.35,-158.1C323.86,-149.14 322.14,-138.86 320.96,-131.75"/>
<polygon fill="midnightblue" stroke="midnightblue" points="321.92,-158.79 327.01,-168.08 328.82,-157.64 321.92,-158.79"/>
</g>
<!-- Node13&#45;&gt;Node2 -->
<g id="edge17" class="edge">
<title>Node13&#45;&gt;Node2</title>
<path fill="none" stroke="midnightblue" d="M441.94,-158.35C437.34,-134.25 429.52,-93.31 426.14,-75.59"/>
<polygon fill="midnightblue" stroke="midnightblue" points="438.54,-159.2 443.85,-168.37 445.41,-157.89 438.54,-159.2"/>
</g>
<!-- Node14 -->
<g id="node14" class="node">
<title>Node14</title>
<g id="a_node14"><a xlink:href="../../d9/df3/octreevoxelizer_8cpp.html" target="_top" xlink:title=" ">
<polygon fill="white" stroke="black" points="472,-112.5 472,-131.5 573,-131.5 573,-112.5 472,-112.5"/>
<text text-anchor="middle" x="522.5" y="-119.5" font-family="Helvetica,sans-Serif" font-size="10.00">octreevoxelizer.cpp</text>
</a>
</g>
</g>
<!-- Node13&#45;&gt;Node14 -->
<g id="edge18" class="edge">
<title>Node13&#45;&gt;Node14</title>
<path fill="none" stroke="midnightblue" d="M466.4,-162.34C480.41,-152.52 498.38,-139.91 510.16,-131.65"/>
<polygon fill="midnightblue" stroke="midnightblue" points="464.05,-159.72 457.87,-168.32 468.07,-165.45 464.05,-159.72"/>
</g>
<!-- Node15&#45;&gt;Node2 -->
<g id="edge20" class="edge">
<title>Node15&#45;&gt;Node2</title>
<path fill="none" stroke="midnightblue" d="M571.27,-160.45C581.86,-146.5 592.47,-126.55 581.5,-112 567.34,-93.21 505.53,-79.86 463.82,-72.81"/>
<polygon fill="midnightblue" stroke="midnightblue" points="568.51,-158.3 564.88,-168.25 573.92,-162.73 568.51,-158.3"/>
</g>
<!-- Node16 -->
<g id="node16" class="node">
<title>Node16</title>
<g id="a_node16"><a xlink:href="../../d1/d5a/robustvoxelizer_8cpp.html" target="_top" xlink:title=" ">
<polygon fill="white" stroke="black" points="630,-112.5 630,-131.5 731,-131.5 731,-112.5 630,-112.5"/>
<text text-anchor="middle" x="680.5" y="-119.5" font-family="Helvetica,sans-Serif" font-size="10.00">robustvoxelizer.cpp</text>
</a>
</g>
</g>
<!-- Node15&#45;&gt;Node16 -->
<g id="edge21" class="edge">
<title>Node15&#45;&gt;Node16</title>
<path fill="none" stroke="midnightblue" d="M585.51,-164.37C608.73,-154.26 640.66,-140.35 660.94,-131.52"/>
<polygon fill="midnightblue" stroke="midnightblue" points="583.92,-161.24 576.15,-168.44 586.71,-167.66 583.92,-161.24"/>
</g>
</g>
</svg>
