<?xml version="1.0" encoding="UTF-8" standalone="no"?>
<!DOCTYPE svg PUBLIC "-//W3C//DTD SVG 1.1//EN"
 "http://www.w3.org/Graphics/SVG/1.1/DTD/svg11.dtd">
<!-- Generated by graphviz version 2.44.1 (0)
 -->
<!-- Title: vtkOFFReader::vtkOFFReader Pages: 1 -->
<svg width="476pt" height="28pt"
 viewBox="0.00 0.00 476.00 28.00" xmlns="http://www.w3.org/2000/svg" xmlns:xlink="http://www.w3.org/1999/xlink">
<g id="graph0" class="graph" transform="scale(1 1) rotate(0) translate(4 24)">
<title>vtkOFFReader::vtkOFFReader</title>
<polygon fill="white" stroke="transparent" points="-4,4 -4,-24 472,-24 472,4 -4,4"/>
<!-- Node1 -->
<g id="node1" class="node">
<title>Node1</title>
<g id="a_node1"><a xlink:title=" ">
<polygon fill="#bfbfbf" stroke="black" points="316,-0.5 316,-19.5 468,-19.5 468,-0.5 316,-0.5"/>
<text text-anchor="middle" x="392" y="-7.5" font-family="Helvetica,sans-Serif" font-size="10.00">vtkOFFReader::vtkOFFReader</text>
</a>
</g>
</g>
<!-- Node2 -->
<g id="node2" class="node">
<title>Node2</title>
<g id="a_node2"><a xlink:href="../../d9/dcb/classvtk_o_f_f_reader.html#a65e3cf162f5bef9678a754a1d30d597d" target="_top" xlink:title=" ">
<polygon fill="white" stroke="black" points="173,-0.5 173,-19.5 280,-19.5 280,-0.5 173,-0.5"/>
<text text-anchor="middle" x="226.5" y="-7.5" font-family="Helvetica,sans-Serif" font-size="10.00">vtkOFFReader::New</text>
</a>
</g>
</g>
<!-- Node1&#45;&gt;Node2 -->
<g id="edge1" class="edge">
<title>Node1&#45;&gt;Node2</title>
<path fill="none" stroke="midnightblue" d="M305.73,-10C297.02,-10 288.37,-10 280.16,-10"/>
<polygon fill="midnightblue" stroke="midnightblue" points="305.95,-13.5 315.95,-10 305.95,-6.5 305.95,-13.5"/>
</g>
<!-- Node3 -->
<g id="node3" class="node">
<title>Node3</title>
<g id="a_node3"><a xlink:href="../../d1/dfa/classvtk_surface.html#a242df182bc35f6b38c25de1b1582bc42" target="_top" xlink:title="Creates the vtkSurface object by reading a mesh file.">
<polygon fill="white" stroke="black" points="0,-0.5 0,-19.5 137,-19.5 137,-0.5 0,-0.5"/>
<text text-anchor="middle" x="68.5" y="-7.5" font-family="Helvetica,sans-Serif" font-size="10.00">vtkSurface::CreateFromFile</text>
</a>
</g>
</g>
<!-- Node2&#45;&gt;Node3 -->
<g id="edge2" class="edge">
<title>Node2&#45;&gt;Node3</title>
<path fill="none" stroke="midnightblue" d="M162.62,-10C154.25,-10 145.64,-10 137.19,-10"/>
<polygon fill="midnightblue" stroke="midnightblue" points="162.69,-13.5 172.69,-10 162.69,-6.5 162.69,-13.5"/>
</g>
</g>
</svg>
