<?xml version="1.0" encoding="UTF-8" standalone="no"?>
<!DOCTYPE svg PUBLIC "-//W3C//DTD SVG 1.1//EN"
 "http://www.w3.org/Graphics/SVG/1.1/DTD/svg11.dtd">
<!-- Generated by graphviz version 2.44.1 (0)
 -->
<!-- Title: T_MESH::Vertex::nextOnBoundary Pages: 1 -->
<svg width="763pt" height="104pt"
 viewBox="0.00 0.00 763.00 104.00" xmlns="http://www.w3.org/2000/svg" xmlns:xlink="http://www.w3.org/1999/xlink">
<g id="graph0" class="graph" transform="scale(1 1) rotate(0) translate(4 100)">
<title>T_MESH::Vertex::nextOnBoundary</title>
<polygon fill="white" stroke="transparent" points="-4,4 -4,-100 759,-100 759,4 -4,4"/>
<!-- Node1 -->
<g id="node1" class="node">
<title>Node1</title>
<g id="a_node1"><a xlink:title="Returns the vertex following this one on the boundary.">
<polygon fill="#bfbfbf" stroke="black" points="0,-19.5 0,-38.5 170,-38.5 170,-19.5 0,-19.5"/>
<text text-anchor="middle" x="85" y="-26.5" font-family="Helvetica,sans-Serif" font-size="10.00">T_MESH::Vertex::nextOnBoundary</text>
</a>
</g>
</g>
<!-- Node2 -->
<g id="node2" class="node">
<title>Node2</title>
<g id="a_node2"><a xlink:href="../../d5/d7f/class_t___m_e_s_h_1_1_vertex.html#a312b5886ae431004c537b8a2a7f6672f" target="_top" xlink:title="Returns the edge following this vertex on the boundary.">
<polygon fill="white" stroke="black" points="206,-38.5 206,-57.5 385,-57.5 385,-38.5 206,-38.5"/>
<text text-anchor="middle" x="295.5" y="-45.5" font-family="Helvetica,sans-Serif" font-size="10.00">T_MESH::Vertex::nextBoundaryEdge</text>
</a>
</g>
</g>
<!-- Node1&#45;&gt;Node2 -->
<g id="edge1" class="edge">
<title>Node1&#45;&gt;Node2</title>
<path fill="none" stroke="midnightblue" d="M170.2,-36.67C178.65,-37.44 187.28,-38.23 195.86,-39.01"/>
<polygon fill="midnightblue" stroke="midnightblue" points="195.62,-42.5 205.9,-39.93 196.26,-35.53 195.62,-42.5"/>
</g>
<!-- Node6 -->
<g id="node6" class="node">
<title>Node6</title>
<g id="a_node6"><a xlink:href="../../da/da2/class_t___m_e_s_h_1_1_edge.html#aef981891343c94489f00b060bd654b6c" target="_top" xlink:title="Vertex opposite to &#39;v&#39;. NULL if &#39;v&#39; is not a vertex of the edge.">
<polygon fill="white" stroke="black" points="424.5,-0.5 424.5,-19.5 580.5,-19.5 580.5,-0.5 424.5,-0.5"/>
<text text-anchor="middle" x="502.5" y="-7.5" font-family="Helvetica,sans-Serif" font-size="10.00">T_MESH::Edge::oppositeVertex</text>
</a>
</g>
</g>
<!-- Node1&#45;&gt;Node6 -->
<g id="edge6" class="edge">
<title>Node1&#45;&gt;Node6</title>
<path fill="none" stroke="midnightblue" d="M170.08,-25.16C240.94,-21.91 341.97,-17.3 413.82,-14.01"/>
<polygon fill="midnightblue" stroke="midnightblue" points="414.37,-17.49 424.2,-13.53 414.05,-10.5 414.37,-17.49"/>
</g>
<!-- Node3 -->
<g id="node3" class="node">
<title>Node3</title>
<g id="a_node3"><a xlink:href="../../da/da2/class_t___m_e_s_h_1_1_edge.html#a96830b6d677fab318268f287682ad151" target="_top" xlink:title="Triangle on the left of the edge when looking from &#39;v&#39;. NULL if &#39;v&#39; is not a vertex of the edge.">
<polygon fill="white" stroke="black" points="432.5,-76.5 432.5,-95.5 572.5,-95.5 572.5,-76.5 432.5,-76.5"/>
<text text-anchor="middle" x="502.5" y="-83.5" font-family="Helvetica,sans-Serif" font-size="10.00">T_MESH::Edge::leftTriangle</text>
</a>
</g>
</g>
<!-- Node2&#45;&gt;Node3 -->
<g id="edge2" class="edge">
<title>Node2&#45;&gt;Node3</title>
<path fill="none" stroke="midnightblue" d="M347.97,-57.54C375.87,-62.71 410.55,-69.14 439.88,-74.58"/>
<polygon fill="midnightblue" stroke="midnightblue" points="439.54,-78.07 450.01,-76.46 440.82,-71.19 439.54,-78.07"/>
</g>
<!-- Node4 -->
<g id="node4" class="node">
<title>Node4</title>
<g id="a_node4"><a xlink:href="../../d8/d6e/class_t___m_e_s_h_1_1_triangle.html#a77cc688b97fd6501b5dca8385fce4137" target="_top" xlink:title="Triangle&#39;s edge opposite to &#39;v&#39;. NULL if &#39;v&#39; is not a vertex of the triangle.">
<polygon fill="white" stroke="black" points="421,-38.5 421,-57.5 584,-57.5 584,-38.5 421,-38.5"/>
<text text-anchor="middle" x="502.5" y="-45.5" font-family="Helvetica,sans-Serif" font-size="10.00">T_MESH::Triangle::oppositeEdge</text>
</a>
</g>
</g>
<!-- Node2&#45;&gt;Node4 -->
<g id="edge3" class="edge">
<title>Node2&#45;&gt;Node4</title>
<path fill="none" stroke="midnightblue" d="M385.22,-48C393.61,-48 402.12,-48 410.53,-48"/>
<polygon fill="midnightblue" stroke="midnightblue" points="410.71,-51.5 420.71,-48 410.71,-44.5 410.71,-51.5"/>
</g>
<!-- Node2&#45;&gt;Node6 -->
<g id="edge5" class="edge">
<title>Node2&#45;&gt;Node6</title>
<path fill="none" stroke="midnightblue" d="M347.97,-38.46C375.87,-33.29 410.55,-26.86 439.88,-21.42"/>
<polygon fill="midnightblue" stroke="midnightblue" points="440.82,-24.81 450.01,-19.54 439.54,-17.93 440.82,-24.81"/>
</g>
<!-- Node5 -->
<g id="node5" class="node">
<title>Node5</title>
<g id="a_node5"><a xlink:href="../../da/da2/class_t___m_e_s_h_1_1_edge.html#a7d7329ff24b7b6eb2eceee39711dd650" target="_top" xlink:title="TRUE iff &#39;v&#39; is an end&#45;point of the edge.">
<polygon fill="white" stroke="black" points="620,-38.5 620,-57.5 755,-57.5 755,-38.5 620,-38.5"/>
<text text-anchor="middle" x="687.5" y="-45.5" font-family="Helvetica,sans-Serif" font-size="10.00">T_MESH::Edge::hasVertex</text>
</a>
</g>
</g>
<!-- Node4&#45;&gt;Node5 -->
<g id="edge4" class="edge">
<title>Node4&#45;&gt;Node5</title>
<path fill="none" stroke="midnightblue" d="M584.03,-48C592.55,-48 601.2,-48 609.68,-48"/>
<polygon fill="midnightblue" stroke="midnightblue" points="609.92,-51.5 619.92,-48 609.92,-44.5 609.92,-51.5"/>
</g>
</g>
</svg>
