<?xml version="1.0" encoding="UTF-8" standalone="no"?>
<!DOCTYPE svg PUBLIC "-//W3C//DTD SVG 1.1//EN"
 "http://www.w3.org/Graphics/SVG/1.1/DTD/svg11.dtd">
<!-- Generated by graphviz version 2.44.1 (0)
 -->
<!-- Title: T_MESH::Vertex::totalDihedralAngle Pages: 1 -->
<svg width="912pt" height="458pt"
 viewBox="0.00 0.00 912.00 458.00" xmlns="http://www.w3.org/2000/svg" xmlns:xlink="http://www.w3.org/1999/xlink">
<g id="graph0" class="graph" transform="scale(1 1) rotate(0) translate(4 454)">
<title>T_MESH::Vertex::totalDihedralAngle</title>
<polygon fill="white" stroke="transparent" points="-4,4 -4,-454 908,-454 908,4 -4,4"/>
<!-- Node1 -->
<g id="node1" class="node">
<title>Node1</title>
<g id="a_node1"><a xlink:title="Sum of signed dihedral angles. Returns DBL_MAX if on boundary.">
<polygon fill="#bfbfbf" stroke="black" points="0,-280 0,-310 152,-310 152,-280 0,-280"/>
<text text-anchor="start" x="8" y="-298" font-family="Helvetica,sans-Serif" font-size="10.00">T_MESH::Vertex::totalDihedral</text>
<text text-anchor="middle" x="76" y="-287" font-family="Helvetica,sans-Serif" font-size="10.00">Angle</text>
</a>
</g>
</g>
<!-- Node2 -->
<g id="node2" class="node">
<title>Node2</title>
<g id="a_node2"><a xlink:href="../../da/da2/class_t___m_e_s_h_1_1_edge.html#a03d6770b7e450fbaf9070cf4689ffb2f" target="_top" xlink:title="Dihedral angle at the edge.">
<polygon fill="white" stroke="black" points="189.5,-348.5 189.5,-367.5 339.5,-367.5 339.5,-348.5 189.5,-348.5"/>
<text text-anchor="middle" x="264.5" y="-355.5" font-family="Helvetica,sans-Serif" font-size="10.00">T_MESH::Edge::dihedralAngle</text>
</a>
</g>
</g>
<!-- Node1&#45;&gt;Node2 -->
<g id="edge1" class="edge">
<title>Node1&#45;&gt;Node2</title>
<path fill="none" stroke="midnightblue" d="M120.72,-310.08C141.15,-317.1 165.8,-325.52 188,-333 199.96,-337.03 213.01,-341.37 224.84,-345.28"/>
<polygon fill="midnightblue" stroke="midnightblue" points="223.84,-348.64 234.44,-348.45 226.04,-341.99 223.84,-348.64"/>
</g>
<!-- Node12 -->
<g id="node12" class="node">
<title>Node12</title>
<g id="a_node12"><a xlink:href="../../da/da2/class_t___m_e_s_h_1_1_edge.html#a0f2457674237bd05c42d68b023502742" target="_top" xlink:title="TRUE iff edge is on the boundary (i.e., one of the two incident triangles is NULL).">
<polygon fill="white" stroke="black" points="188,-304.5 188,-323.5 341,-323.5 341,-304.5 188,-304.5"/>
<text text-anchor="middle" x="264.5" y="-311.5" font-family="Helvetica,sans-Serif" font-size="10.00">T_MESH::Edge::isOnBoundary</text>
</a>
</g>
</g>
<!-- Node1&#45;&gt;Node12 -->
<g id="edge17" class="edge">
<title>Node1&#45;&gt;Node12</title>
<path fill="none" stroke="midnightblue" d="M152.05,-302.65C160.56,-303.51 169.28,-304.4 177.92,-305.28"/>
<polygon fill="midnightblue" stroke="midnightblue" points="177.69,-308.78 188,-306.31 178.4,-301.81 177.69,-308.78"/>
</g>
<!-- Node13 -->
<g id="node13" class="node">
<title>Node13</title>
<g id="a_node13"><a xlink:href="../../d3/d04/class_t___m_e_s_h_1_1_list.html#af0e61026072f65c9ba882df526acfd2e" target="_top" xlink:title="Gets the number of elements. &#160;&#160;O(1).">
<polygon fill="white" stroke="black" points="400.5,-266.5 400.5,-285.5 516.5,-285.5 516.5,-266.5 400.5,-266.5"/>
<text text-anchor="middle" x="458.5" y="-273.5" font-family="Helvetica,sans-Serif" font-size="10.00">T_MESH::List::numels</text>
</a>
</g>
</g>
<!-- Node1&#45;&gt;Node13 -->
<g id="edge18" class="edge">
<title>Node1&#45;&gt;Node13</title>
<path fill="none" stroke="midnightblue" d="M152.17,-291.25C221.46,-287.79 323.35,-282.7 390.06,-279.37"/>
<polygon fill="midnightblue" stroke="midnightblue" points="390.64,-282.84 400.45,-278.85 390.29,-275.85 390.64,-282.84"/>
</g>
<!-- Node14 -->
<g id="node14" class="node">
<title>Node14</title>
<g id="a_node14"><a xlink:href="../../d5/d7f/class_t___m_e_s_h_1_1_vertex.html#a66b49df1416ddcee6be0e1abe3aadda9" target="_top" xlink:title="List of incident edges.">
<polygon fill="white" stroke="black" points="209.5,-152.5 209.5,-171.5 319.5,-171.5 319.5,-152.5 209.5,-152.5"/>
<text text-anchor="middle" x="264.5" y="-159.5" font-family="Helvetica,sans-Serif" font-size="10.00">T_MESH::Vertex::VE</text>
</a>
</g>
</g>
<!-- Node1&#45;&gt;Node14 -->
<g id="edge19" class="edge">
<title>Node1&#45;&gt;Node14</title>
<path fill="none" stroke="midnightblue" d="M98.39,-279.74C134.03,-254.33 205.18,-203.59 241.33,-177.81"/>
<polygon fill="midnightblue" stroke="midnightblue" points="243.61,-180.48 249.72,-171.83 239.55,-174.78 243.61,-180.48"/>
</g>
<!-- Node3 -->
<g id="node3" class="node">
<title>Node3</title>
<g id="a_node3"><a xlink:href="../../d2/d8e/class_t___m_e_s_h_1_1_point.html#a7d19f5b5b98c1999de03da56eab91478" target="_top" xlink:title=" ">
<polygon fill="white" stroke="black" points="393.5,-430.5 393.5,-449.5 523.5,-449.5 523.5,-430.5 393.5,-430.5"/>
<text text-anchor="middle" x="458.5" y="-437.5" font-family="Helvetica,sans-Serif" font-size="10.00">T_MESH::Point::getAngle</text>
</a>
</g>
</g>
<!-- Node2&#45;&gt;Node3 -->
<g id="edge2" class="edge">
<title>Node2&#45;&gt;Node3</title>
<path fill="none" stroke="midnightblue" d="M279.29,-367.5C299.75,-381.19 339.73,-406.41 377,-421 383.38,-423.5 390.18,-425.72 397.01,-427.69"/>
<polygon fill="midnightblue" stroke="midnightblue" points="396.45,-431.16 407.02,-430.4 398.28,-424.41 396.45,-431.16"/>
</g>
<!-- Node5 -->
<g id="node5" class="node">
<title>Node5</title>
<g id="a_node5"><a xlink:href="../../d8/d6e/class_t___m_e_s_h_1_1_triangle.html#a8691b38a70ff623515691c89945ddd64" target="_top" xlink:title="Return a normal vector with direction (v1&#45;v2) cross (v2&#45;v3). If triangle is degenerate return a null ...">
<polygon fill="white" stroke="black" points="384,-392.5 384,-411.5 533,-411.5 533,-392.5 384,-392.5"/>
<text text-anchor="middle" x="458.5" y="-399.5" font-family="Helvetica,sans-Serif" font-size="10.00">T_MESH::Triangle::getNormal</text>
</a>
</g>
</g>
<!-- Node2&#45;&gt;Node5 -->
<g id="edge4" class="edge">
<title>Node2&#45;&gt;Node5</title>
<path fill="none" stroke="midnightblue" d="M307.16,-367.55C336.22,-374.21 375.19,-383.14 406.17,-390.24"/>
<polygon fill="midnightblue" stroke="midnightblue" points="405.39,-393.65 415.92,-392.47 406.95,-386.83 405.39,-393.65"/>
</g>
<!-- Node10 -->
<g id="node10" class="node">
<title>Node10</title>
<g id="a_node10"><a xlink:href="../../d2/d8e/class_t___m_e_s_h_1_1_point.html#a0ac3250c48d7be19c5184d15366c8b85" target="_top" xlink:title="TRUE if vector is (0,0,0)">
<polygon fill="white" stroke="black" points="400.5,-304.5 400.5,-323.5 516.5,-323.5 516.5,-304.5 400.5,-304.5"/>
<text text-anchor="middle" x="458.5" y="-311.5" font-family="Helvetica,sans-Serif" font-size="10.00">T_MESH::Point::isNull</text>
</a>
</g>
</g>
<!-- Node2&#45;&gt;Node10 -->
<g id="edge12" class="edge">
<title>Node2&#45;&gt;Node10</title>
<path fill="none" stroke="midnightblue" d="M307.16,-348.45C336.22,-341.79 375.19,-332.86 406.17,-325.76"/>
<polygon fill="midnightblue" stroke="midnightblue" points="406.95,-329.17 415.92,-323.53 405.39,-322.35 406.95,-329.17"/>
</g>
<!-- Node11 -->
<g id="node11" class="node">
<title>Node11</title>
<g id="a_node11"><a xlink:href="../../d8/d6e/class_t___m_e_s_h_1_1_triangle.html#a5332cb4780fa56bdd9e95b250defc82c" target="_top" xlink:title="Triangle&#39;s vertex opposite to &#39;e&#39;. NULL if &#39;e&#39; is not an edge of the triangle.">
<polygon fill="white" stroke="black" points="388.5,-343 388.5,-373 528.5,-373 528.5,-343 388.5,-343"/>
<text text-anchor="start" x="396.5" y="-361" font-family="Helvetica,sans-Serif" font-size="10.00">T_MESH::Triangle::opposite</text>
<text text-anchor="middle" x="458.5" y="-350" font-family="Helvetica,sans-Serif" font-size="10.00">Vertex</text>
</a>
</g>
</g>
<!-- Node2&#45;&gt;Node11 -->
<g id="edge13" class="edge">
<title>Node2&#45;&gt;Node11</title>
<path fill="none" stroke="midnightblue" d="M339.73,-358C352.39,-358 365.58,-358 378.36,-358"/>
<polygon fill="midnightblue" stroke="midnightblue" points="378.5,-361.5 388.5,-358 378.5,-354.5 378.5,-361.5"/>
</g>
<!-- Node4 -->
<g id="node4" class="node">
<title>Node4</title>
<g id="a_node4"><a xlink:href="../../d2/d8e/class_t___m_e_s_h_1_1_point.html#a61ce9f22ddfe41f036566d4a2f920ac4" target="_top" xlink:title="Distance from origin.">
<polygon fill="white" stroke="black" points="584.5,-430.5 584.5,-449.5 702.5,-449.5 702.5,-430.5 584.5,-430.5"/>
<text text-anchor="middle" x="643.5" y="-437.5" font-family="Helvetica,sans-Serif" font-size="10.00">T_MESH::Point::length</text>
</a>
</g>
</g>
<!-- Node3&#45;&gt;Node4 -->
<g id="edge3" class="edge">
<title>Node3&#45;&gt;Node4</title>
<path fill="none" stroke="midnightblue" d="M523.5,-440C539.89,-440 557.58,-440 574.17,-440"/>
<polygon fill="midnightblue" stroke="midnightblue" points="574.35,-443.5 584.35,-440 574.35,-436.5 574.35,-443.5"/>
</g>
<!-- Node5&#45;&gt;Node4 -->
<g id="edge5" class="edge">
<title>Node5&#45;&gt;Node4</title>
<path fill="none" stroke="midnightblue" d="M505.68,-411.59C530.26,-416.69 560.69,-423.01 586.6,-428.39"/>
<polygon fill="midnightblue" stroke="midnightblue" points="586.15,-431.87 596.65,-430.48 587.57,-425.02 586.15,-431.87"/>
</g>
<!-- Node6 -->
<g id="node6" class="node">
<title>Node6</title>
<g id="a_node6"><a xlink:href="../../d8/d6e/class_t___m_e_s_h_1_1_triangle.html#aa7b9f783f2e4339083f46d25d3eecf68" target="_top" xlink:title="First vertex.">
<polygon fill="white" stroke="black" points="586.5,-392.5 586.5,-411.5 700.5,-411.5 700.5,-392.5 586.5,-392.5"/>
<text text-anchor="middle" x="643.5" y="-399.5" font-family="Helvetica,sans-Serif" font-size="10.00">T_MESH::Triangle::v1</text>
</a>
</g>
</g>
<!-- Node5&#45;&gt;Node6 -->
<g id="edge6" class="edge">
<title>Node5&#45;&gt;Node6</title>
<path fill="none" stroke="midnightblue" d="M533.14,-402C547.45,-402 562.36,-402 576.4,-402"/>
<polygon fill="midnightblue" stroke="midnightblue" points="576.46,-405.5 586.46,-402 576.46,-398.5 576.46,-405.5"/>
</g>
<!-- Node8 -->
<g id="node8" class="node">
<title>Node8</title>
<g id="a_node8"><a xlink:href="../../d8/d6e/class_t___m_e_s_h_1_1_triangle.html#a1bf6a231440a3c73a931c1cfccfee574" target="_top" xlink:title="Second vertex.">
<polygon fill="white" stroke="black" points="586.5,-354.5 586.5,-373.5 700.5,-373.5 700.5,-354.5 586.5,-354.5"/>
<text text-anchor="middle" x="643.5" y="-361.5" font-family="Helvetica,sans-Serif" font-size="10.00">T_MESH::Triangle::v2</text>
</a>
</g>
</g>
<!-- Node5&#45;&gt;Node8 -->
<g id="edge8" class="edge">
<title>Node5&#45;&gt;Node8</title>
<path fill="none" stroke="midnightblue" d="M505.68,-392.41C530.26,-387.31 560.69,-380.99 586.6,-375.61"/>
<polygon fill="midnightblue" stroke="midnightblue" points="587.57,-378.98 596.65,-373.52 586.15,-372.13 587.57,-378.98"/>
</g>
<!-- Node9 -->
<g id="node9" class="node">
<title>Node9</title>
<g id="a_node9"><a xlink:href="../../d8/d6e/class_t___m_e_s_h_1_1_triangle.html#a0c4c2a2ba6b0c975aa3d260f00785e8f" target="_top" xlink:title="Third vertex.">
<polygon fill="white" stroke="black" points="586.5,-316.5 586.5,-335.5 700.5,-335.5 700.5,-316.5 586.5,-316.5"/>
<text text-anchor="middle" x="643.5" y="-323.5" font-family="Helvetica,sans-Serif" font-size="10.00">T_MESH::Triangle::v3</text>
</a>
</g>
</g>
<!-- Node5&#45;&gt;Node9 -->
<g id="edge10" class="edge">
<title>Node5&#45;&gt;Node9</title>
<path fill="none" stroke="midnightblue" d="M518.21,-392.4C525.81,-389.95 533.28,-386.87 540,-383 560.17,-371.4 556.11,-357.07 576,-345 579.58,-342.83 583.42,-340.89 587.38,-339.18"/>
<polygon fill="midnightblue" stroke="midnightblue" points="588.71,-342.41 596.78,-335.54 586.19,-335.88 588.71,-342.41"/>
</g>
<!-- Node7 -->
<g id="node7" class="node">
<title>Node7</title>
<g id="a_node7"><a xlink:href="../../da/da2/class_t___m_e_s_h_1_1_edge.html#a560eca8895471f987bd3228b13c40052" target="_top" xlink:title="Vertex shared with edge &#39;b&#39;. NULL if this and &#39;b&#39; do not share any vertex.">
<polygon fill="white" stroke="black" points="747,-354.5 747,-373.5 904,-373.5 904,-354.5 747,-354.5"/>
<text text-anchor="middle" x="825.5" y="-361.5" font-family="Helvetica,sans-Serif" font-size="10.00">T_MESH::Edge::commonVertex</text>
</a>
</g>
</g>
<!-- Node6&#45;&gt;Node7 -->
<g id="edge7" class="edge">
<title>Node6&#45;&gt;Node7</title>
<path fill="none" stroke="midnightblue" d="M689.92,-392.41C714.1,-387.31 744.03,-380.99 769.51,-375.61"/>
<polygon fill="midnightblue" stroke="midnightblue" points="770.34,-379.01 779.41,-373.52 768.9,-372.16 770.34,-379.01"/>
</g>
<!-- Node8&#45;&gt;Node7 -->
<g id="edge9" class="edge">
<title>Node8&#45;&gt;Node7</title>
<path fill="none" stroke="midnightblue" d="M700.96,-364C712.32,-364 724.51,-364 736.64,-364"/>
<polygon fill="midnightblue" stroke="midnightblue" points="736.81,-367.5 746.81,-364 736.81,-360.5 736.81,-367.5"/>
</g>
<!-- Node9&#45;&gt;Node7 -->
<g id="edge11" class="edge">
<title>Node9&#45;&gt;Node7</title>
<path fill="none" stroke="midnightblue" d="M689.92,-335.59C714.1,-340.69 744.03,-347.01 769.51,-352.39"/>
<polygon fill="midnightblue" stroke="midnightblue" points="768.9,-355.84 779.41,-354.48 770.34,-348.99 768.9,-355.84"/>
</g>
<!-- Node11&#45;&gt;Node6 -->
<g id="edge14" class="edge">
<title>Node11&#45;&gt;Node6</title>
<path fill="none" stroke="midnightblue" d="M521.97,-373.02C545.22,-378.61 571.27,-384.87 593.18,-390.14"/>
<polygon fill="midnightblue" stroke="midnightblue" points="592.4,-393.55 602.94,-392.49 594.03,-386.75 592.4,-393.55"/>
</g>
<!-- Node11&#45;&gt;Node8 -->
<g id="edge15" class="edge">
<title>Node11&#45;&gt;Node8</title>
<path fill="none" stroke="midnightblue" d="M528.68,-360.27C544.29,-360.78 560.83,-361.32 576.31,-361.83"/>
<polygon fill="midnightblue" stroke="midnightblue" points="576.2,-365.33 586.31,-362.16 576.43,-358.33 576.2,-365.33"/>
</g>
<!-- Node11&#45;&gt;Node9 -->
<g id="edge16" class="edge">
<title>Node11&#45;&gt;Node9</title>
<path fill="none" stroke="midnightblue" d="M528.68,-345.9C544.79,-343.09 561.88,-340.1 577.79,-337.32"/>
<polygon fill="midnightblue" stroke="midnightblue" points="578.8,-340.69 588.05,-335.52 577.59,-333.8 578.8,-340.69"/>
</g>
<!-- Node14&#45;&gt;Node13 -->
<g id="edge23" class="edge">
<title>Node14&#45;&gt;Node13</title>
<path fill="none" stroke="midnightblue" d="M273.94,-171.8C291.22,-191.2 332.76,-234.6 377,-257 381.8,-259.43 386.93,-261.56 392.18,-263.42"/>
<polygon fill="midnightblue" stroke="midnightblue" points="391.12,-266.76 401.71,-266.49 393.26,-260.09 391.12,-266.76"/>
</g>
<!-- Node15 -->
<g id="node15" class="node">
<title>Node15</title>
<g id="a_node15"><a xlink:href="../../d3/d04/class_t___m_e_s_h_1_1_list.html#ae601a7e17364ce83f74ffcb6c64971ca" target="_top" xlink:title="Appends a new node storing &#39;d&#39; to the head. &#160;&#160;O(1).">
<polygon fill="white" stroke="black" points="388.5,-190.5 388.5,-209.5 528.5,-209.5 528.5,-190.5 388.5,-190.5"/>
<text text-anchor="middle" x="458.5" y="-197.5" font-family="Helvetica,sans-Serif" font-size="10.00">T_MESH::List::appendHead</text>
</a>
</g>
</g>
<!-- Node14&#45;&gt;Node15 -->
<g id="edge20" class="edge">
<title>Node14&#45;&gt;Node15</title>
<path fill="none" stroke="midnightblue" d="M313.95,-171.59C339.97,-176.74 372.23,-183.12 399.57,-188.53"/>
<polygon fill="midnightblue" stroke="midnightblue" points="398.91,-191.97 409.4,-190.48 400.27,-185.1 398.91,-191.97"/>
</g>
<!-- Node16 -->
<g id="node16" class="node">
<title>Node16</title>
<g id="a_node16"><a xlink:href="../../d3/d04/class_t___m_e_s_h_1_1_list.html#a1b14a2838ee3745d5fb413f9e7ecc214" target="_top" xlink:title="Appends a new node storing &#39;d&#39; to the tail. &#160;&#160;O(1).">
<polygon fill="white" stroke="black" points="393,-152.5 393,-171.5 524,-171.5 524,-152.5 393,-152.5"/>
<text text-anchor="middle" x="458.5" y="-159.5" font-family="Helvetica,sans-Serif" font-size="10.00">T_MESH::List::appendTail</text>
</a>
</g>
</g>
<!-- Node14&#45;&gt;Node16 -->
<g id="edge21" class="edge">
<title>Node14&#45;&gt;Node16</title>
<path fill="none" stroke="midnightblue" d="M319.75,-162C339.29,-162 361.69,-162 382.67,-162"/>
<polygon fill="midnightblue" stroke="midnightblue" points="382.83,-165.5 392.83,-162 382.83,-158.5 382.83,-165.5"/>
</g>
<!-- Node17 -->
<g id="node17" class="node">
<title>Node17</title>
<g id="a_node17"><a xlink:href="../../da/da2/class_t___m_e_s_h_1_1_edge.html#a96830b6d677fab318268f287682ad151" target="_top" xlink:title="Triangle on the left of the edge when looking from &#39;v&#39;. NULL if &#39;v&#39; is not a vertex of the edge.">
<polygon fill="white" stroke="black" points="388.5,-114.5 388.5,-133.5 528.5,-133.5 528.5,-114.5 388.5,-114.5"/>
<text text-anchor="middle" x="458.5" y="-121.5" font-family="Helvetica,sans-Serif" font-size="10.00">T_MESH::Edge::leftTriangle</text>
</a>
</g>
</g>
<!-- Node14&#45;&gt;Node17 -->
<g id="edge22" class="edge">
<title>Node14&#45;&gt;Node17</title>
<path fill="none" stroke="midnightblue" d="M313.95,-152.41C339.97,-147.26 372.23,-140.88 399.57,-135.47"/>
<polygon fill="midnightblue" stroke="midnightblue" points="400.27,-138.9 409.4,-133.52 398.91,-132.03 400.27,-138.9"/>
</g>
<!-- Node18 -->
<g id="node18" class="node">
<title>Node18</title>
<g id="a_node18"><a xlink:href="../../d8/d6e/class_t___m_e_s_h_1_1_triangle.html#a77cc688b97fd6501b5dca8385fce4137" target="_top" xlink:title="Triangle&#39;s edge opposite to &#39;v&#39;. NULL if &#39;v&#39; is not a vertex of the triangle.">
<polygon fill="white" stroke="black" points="377,-76.5 377,-95.5 540,-95.5 540,-76.5 377,-76.5"/>
<text text-anchor="middle" x="458.5" y="-83.5" font-family="Helvetica,sans-Serif" font-size="10.00">T_MESH::Triangle::oppositeEdge</text>
</a>
</g>
</g>
<!-- Node14&#45;&gt;Node18 -->
<g id="edge24" class="edge">
<title>Node14&#45;&gt;Node18</title>
<path fill="none" stroke="midnightblue" d="M281.2,-152.43C302.3,-139.94 341.29,-118.12 377,-105 383.86,-102.48 391.17,-100.21 398.48,-98.19"/>
<polygon fill="midnightblue" stroke="midnightblue" points="399.62,-101.51 408.41,-95.6 397.85,-94.74 399.62,-101.51"/>
</g>
<!-- Node20 -->
<g id="node20" class="node">
<title>Node20</title>
<g id="a_node20"><a xlink:href="../../da/da2/class_t___m_e_s_h_1_1_edge.html#aef981891343c94489f00b060bd654b6c" target="_top" xlink:title="Vertex opposite to &#39;v&#39;. NULL if &#39;v&#39; is not a vertex of the edge.">
<polygon fill="white" stroke="black" points="380.5,-38.5 380.5,-57.5 536.5,-57.5 536.5,-38.5 380.5,-38.5"/>
<text text-anchor="middle" x="458.5" y="-45.5" font-family="Helvetica,sans-Serif" font-size="10.00">T_MESH::Edge::oppositeVertex</text>
</a>
</g>
</g>
<!-- Node14&#45;&gt;Node20 -->
<g id="edge26" class="edge">
<title>Node14&#45;&gt;Node20</title>
<path fill="none" stroke="midnightblue" d="M273.94,-152.2C291.22,-132.8 332.76,-89.4 377,-67 381.8,-64.57 386.93,-62.44 392.18,-60.58"/>
<polygon fill="midnightblue" stroke="midnightblue" points="393.26,-63.91 401.71,-57.51 391.12,-57.24 393.26,-63.91"/>
</g>
<!-- Node21 -->
<g id="node21" class="node">
<title>Node21</title>
<g id="a_node21"><a xlink:href="../../d3/d04/class_t___m_e_s_h_1_1_list.html#a9701d1b3769b92b7d2a7ed6da895a863" target="_top" xlink:title="Deletes and removes the first node. Returns its data. &#160;&#160;O(1).">
<polygon fill="white" stroke="black" points="396.5,-0.5 396.5,-19.5 520.5,-19.5 520.5,-0.5 396.5,-0.5"/>
<text text-anchor="middle" x="458.5" y="-7.5" font-family="Helvetica,sans-Serif" font-size="10.00">T_MESH::List::popHead</text>
</a>
</g>
</g>
<!-- Node14&#45;&gt;Node21 -->
<g id="edge27" class="edge">
<title>Node14&#45;&gt;Node21</title>
<path fill="none" stroke="midnightblue" d="M270.55,-152.49C284.16,-127.84 324.16,-61.57 377,-29 380.58,-26.8 384.38,-24.85 388.33,-23.12"/>
<polygon fill="midnightblue" stroke="midnightblue" points="389.65,-26.37 397.72,-19.5 387.13,-19.83 389.65,-26.37"/>
</g>
<!-- Node23 -->
<g id="node23" class="node">
<title>Node23</title>
<g id="a_node23"><a xlink:href="../../da/da2/class_t___m_e_s_h_1_1_edge.html#aa9788a51d590116555c8a062e253a197" target="_top" xlink:title="Triangle on the right of the edge when looking from &#39;v&#39;. NULL if &#39;v&#39; is not a vertex of the edge.">
<polygon fill="white" stroke="black" points="386,-228.5 386,-247.5 531,-247.5 531,-228.5 386,-228.5"/>
<text text-anchor="middle" x="458.5" y="-235.5" font-family="Helvetica,sans-Serif" font-size="10.00">T_MESH::Edge::rightTriangle</text>
</a>
</g>
</g>
<!-- Node14&#45;&gt;Node23 -->
<g id="edge29" class="edge">
<title>Node14&#45;&gt;Node23</title>
<path fill="none" stroke="midnightblue" d="M281.2,-171.57C302.3,-184.06 341.29,-205.88 377,-219 383.86,-221.52 391.17,-223.79 398.48,-225.81"/>
<polygon fill="midnightblue" stroke="midnightblue" points="397.85,-229.26 408.41,-228.4 399.62,-222.49 397.85,-229.26"/>
</g>
<!-- Node19 -->
<g id="node19" class="node">
<title>Node19</title>
<g id="a_node19"><a xlink:href="../../da/da2/class_t___m_e_s_h_1_1_edge.html#a7d7329ff24b7b6eb2eceee39711dd650" target="_top" xlink:title="TRUE iff &#39;v&#39; is an end&#45;point of the edge.">
<polygon fill="white" stroke="black" points="576,-76.5 576,-95.5 711,-95.5 711,-76.5 576,-76.5"/>
<text text-anchor="middle" x="643.5" y="-83.5" font-family="Helvetica,sans-Serif" font-size="10.00">T_MESH::Edge::hasVertex</text>
</a>
</g>
</g>
<!-- Node18&#45;&gt;Node19 -->
<g id="edge25" class="edge">
<title>Node18&#45;&gt;Node19</title>
<path fill="none" stroke="midnightblue" d="M540.03,-86C548.55,-86 557.2,-86 565.68,-86"/>
<polygon fill="midnightblue" stroke="midnightblue" points="565.92,-89.5 575.92,-86 565.92,-82.5 565.92,-89.5"/>
</g>
<!-- Node22 -->
<g id="node22" class="node">
<title>Node22</title>
<g id="a_node22"><a xlink:href="../../d3/d04/class_t___m_e_s_h_1_1_list.html#aec091d7c66b66c92fe56f06f41f448f4" target="_top" xlink:title="Deletes and removes the node &#39;n&#39; from the list. &#160;&#160;O(1).">
<polygon fill="white" stroke="black" points="576.5,-0.5 576.5,-19.5 710.5,-19.5 710.5,-0.5 576.5,-0.5"/>
<text text-anchor="middle" x="643.5" y="-7.5" font-family="Helvetica,sans-Serif" font-size="10.00">T_MESH::List::removeCell</text>
</a>
</g>
</g>
<!-- Node21&#45;&gt;Node22 -->
<g id="edge28" class="edge">
<title>Node21&#45;&gt;Node22</title>
<path fill="none" stroke="midnightblue" d="M520.69,-10C535.21,-10 550.88,-10 565.99,-10"/>
<polygon fill="midnightblue" stroke="midnightblue" points="566.34,-13.5 576.34,-10 566.34,-6.5 566.34,-13.5"/>
</g>
</g>
</svg>
