<?xml version="1.0" encoding="UTF-8" standalone="no"?>
<!DOCTYPE svg PUBLIC "-//W3C//DTD SVG 1.1//EN"
 "http://www.w3.org/Graphics/SVG/1.1/DTD/svg11.dtd">
<!-- Generated by graphviz version 2.44.1 (0)
 -->
<!-- Title: T_MESH::Vertex::getEdge Pages: 1 -->
<svg width="657pt" height="294pt"
 viewBox="0.00 0.00 657.00 294.00" xmlns="http://www.w3.org/2000/svg" xmlns:xlink="http://www.w3.org/1999/xlink">
<g id="graph0" class="graph" transform="scale(1 1) rotate(0) translate(4 290)">
<title>T_MESH::Vertex::getEdge</title>
<polygon fill="white" stroke="transparent" points="-4,4 -4,-290 653,-290 653,4 -4,4"/>
<!-- Node1 -->
<g id="node1" class="node">
<title>Node1</title>
<g id="a_node1"><a xlink:title="Returns the edge connecting this vertex to &#39;v&#39;. NULL if such an edge does not exist.">
<polygon fill="#bfbfbf" stroke="black" points="0,-171.5 0,-190.5 133,-190.5 133,-171.5 0,-171.5"/>
<text text-anchor="middle" x="66.5" y="-178.5" font-family="Helvetica,sans-Serif" font-size="10.00">T_MESH::Vertex::getEdge</text>
</a>
</g>
</g>
<!-- Node2 -->
<g id="node2" class="node">
<title>Node2</title>
<g id="a_node2"><a xlink:href="../../da/da2/class_t___m_e_s_h_1_1_edge.html#aef981891343c94489f00b060bd654b6c" target="_top" xlink:title="Vertex opposite to &#39;v&#39;. NULL if &#39;v&#39; is not a vertex of the edge.">
<polygon fill="white" stroke="black" points="318.5,-266.5 318.5,-285.5 474.5,-285.5 474.5,-266.5 318.5,-266.5"/>
<text text-anchor="middle" x="396.5" y="-273.5" font-family="Helvetica,sans-Serif" font-size="10.00">T_MESH::Edge::oppositeVertex</text>
</a>
</g>
</g>
<!-- Node1&#45;&gt;Node2 -->
<g id="edge1" class="edge">
<title>Node1&#45;&gt;Node2</title>
<path fill="none" stroke="midnightblue" d="M96.28,-190.52C142.24,-205.56 235.18,-235.35 315,-257 323.96,-259.43 333.52,-261.84 342.82,-264.09"/>
<polygon fill="midnightblue" stroke="midnightblue" points="342.21,-267.55 352.75,-266.47 343.84,-260.74 342.21,-267.55"/>
</g>
<!-- Node3 -->
<g id="node3" class="node">
<title>Node3</title>
<g id="a_node3"><a xlink:href="../../d5/d7f/class_t___m_e_s_h_1_1_vertex.html#a66b49df1416ddcee6be0e1abe3aadda9" target="_top" xlink:title="List of incident edges.">
<polygon fill="white" stroke="black" points="169,-152.5 169,-171.5 279,-171.5 279,-152.5 169,-152.5"/>
<text text-anchor="middle" x="224" y="-159.5" font-family="Helvetica,sans-Serif" font-size="10.00">T_MESH::Vertex::VE</text>
</a>
</g>
</g>
<!-- Node1&#45;&gt;Node3 -->
<g id="edge2" class="edge">
<title>Node1&#45;&gt;Node3</title>
<path fill="none" stroke="midnightblue" d="M133.45,-172.94C141.8,-171.92 150.35,-170.88 158.68,-169.86"/>
<polygon fill="midnightblue" stroke="midnightblue" points="159.2,-173.32 168.71,-168.63 158.36,-166.37 159.2,-173.32"/>
</g>
<!-- Node3&#45;&gt;Node2 -->
<g id="edge9" class="edge">
<title>Node3&#45;&gt;Node2</title>
<path fill="none" stroke="midnightblue" d="M233.69,-171.79C254.27,-194.88 305.01,-251.25 315,-257 318.89,-259.24 323.02,-261.21 327.29,-262.95"/>
<polygon fill="midnightblue" stroke="midnightblue" points="326.19,-266.28 336.79,-266.4 328.59,-259.7 326.19,-266.28"/>
</g>
<!-- Node4 -->
<g id="node4" class="node">
<title>Node4</title>
<g id="a_node4"><a xlink:href="../../d3/d04/class_t___m_e_s_h_1_1_list.html#ae601a7e17364ce83f74ffcb6c64971ca" target="_top" xlink:title="Appends a new node storing &#39;d&#39; to the head. &#160;&#160;O(1).">
<polygon fill="white" stroke="black" points="326.5,-228.5 326.5,-247.5 466.5,-247.5 466.5,-228.5 326.5,-228.5"/>
<text text-anchor="middle" x="396.5" y="-235.5" font-family="Helvetica,sans-Serif" font-size="10.00">T_MESH::List::appendHead</text>
</a>
</g>
</g>
<!-- Node3&#45;&gt;Node4 -->
<g id="edge3" class="edge">
<title>Node3&#45;&gt;Node4</title>
<path fill="none" stroke="midnightblue" d="M237.08,-171.52C253.71,-184.17 285,-206.38 315,-219 320.91,-221.48 327.2,-223.68 333.57,-225.61"/>
<polygon fill="midnightblue" stroke="midnightblue" points="333.01,-229.09 343.58,-228.44 334.91,-222.35 333.01,-229.09"/>
</g>
<!-- Node5 -->
<g id="node5" class="node">
<title>Node5</title>
<g id="a_node5"><a xlink:href="../../d3/d04/class_t___m_e_s_h_1_1_list.html#a1b14a2838ee3745d5fb413f9e7ecc214" target="_top" xlink:title="Appends a new node storing &#39;d&#39; to the tail. &#160;&#160;O(1).">
<polygon fill="white" stroke="black" points="331,-190.5 331,-209.5 462,-209.5 462,-190.5 331,-190.5"/>
<text text-anchor="middle" x="396.5" y="-197.5" font-family="Helvetica,sans-Serif" font-size="10.00">T_MESH::List::appendTail</text>
</a>
</g>
</g>
<!-- Node3&#45;&gt;Node5 -->
<g id="edge4" class="edge">
<title>Node3&#45;&gt;Node5</title>
<path fill="none" stroke="midnightblue" d="M268.02,-171.59C290.73,-176.65 318.77,-182.9 342.77,-188.25"/>
<polygon fill="midnightblue" stroke="midnightblue" points="342.26,-191.72 352.79,-190.48 343.79,-184.89 342.26,-191.72"/>
</g>
<!-- Node6 -->
<g id="node6" class="node">
<title>Node6</title>
<g id="a_node6"><a xlink:href="../../da/da2/class_t___m_e_s_h_1_1_edge.html#a96830b6d677fab318268f287682ad151" target="_top" xlink:title="Triangle on the left of the edge when looking from &#39;v&#39;. NULL if &#39;v&#39; is not a vertex of the edge.">
<polygon fill="white" stroke="black" points="326.5,-152.5 326.5,-171.5 466.5,-171.5 466.5,-152.5 326.5,-152.5"/>
<text text-anchor="middle" x="396.5" y="-159.5" font-family="Helvetica,sans-Serif" font-size="10.00">T_MESH::Edge::leftTriangle</text>
</a>
</g>
</g>
<!-- Node3&#45;&gt;Node6 -->
<g id="edge5" class="edge">
<title>Node3&#45;&gt;Node6</title>
<path fill="none" stroke="midnightblue" d="M279.42,-162C291.07,-162 303.6,-162 315.98,-162"/>
<polygon fill="midnightblue" stroke="midnightblue" points="316.31,-165.5 326.31,-162 316.31,-158.5 316.31,-165.5"/>
</g>
<!-- Node7 -->
<g id="node7" class="node">
<title>Node7</title>
<g id="a_node7"><a xlink:href="../../d3/d04/class_t___m_e_s_h_1_1_list.html#af0e61026072f65c9ba882df526acfd2e" target="_top" xlink:title="Gets the number of elements. &#160;&#160;O(1).">
<polygon fill="white" stroke="black" points="338.5,-114.5 338.5,-133.5 454.5,-133.5 454.5,-114.5 338.5,-114.5"/>
<text text-anchor="middle" x="396.5" y="-121.5" font-family="Helvetica,sans-Serif" font-size="10.00">T_MESH::List::numels</text>
</a>
</g>
</g>
<!-- Node3&#45;&gt;Node7 -->
<g id="edge6" class="edge">
<title>Node3&#45;&gt;Node7</title>
<path fill="none" stroke="midnightblue" d="M268.02,-152.41C290.73,-147.35 318.77,-141.1 342.77,-135.75"/>
<polygon fill="midnightblue" stroke="midnightblue" points="343.79,-139.11 352.79,-133.52 342.26,-132.28 343.79,-139.11"/>
</g>
<!-- Node8 -->
<g id="node8" class="node">
<title>Node8</title>
<g id="a_node8"><a xlink:href="../../d8/d6e/class_t___m_e_s_h_1_1_triangle.html#a77cc688b97fd6501b5dca8385fce4137" target="_top" xlink:title="Triangle&#39;s edge opposite to &#39;v&#39;. NULL if &#39;v&#39; is not a vertex of the triangle.">
<polygon fill="white" stroke="black" points="315,-76.5 315,-95.5 478,-95.5 478,-76.5 315,-76.5"/>
<text text-anchor="middle" x="396.5" y="-83.5" font-family="Helvetica,sans-Serif" font-size="10.00">T_MESH::Triangle::oppositeEdge</text>
</a>
</g>
</g>
<!-- Node3&#45;&gt;Node8 -->
<g id="edge7" class="edge">
<title>Node3&#45;&gt;Node8</title>
<path fill="none" stroke="midnightblue" d="M237.08,-152.48C253.71,-139.83 285,-117.62 315,-105 320.91,-102.52 327.2,-100.32 333.57,-98.39"/>
<polygon fill="midnightblue" stroke="midnightblue" points="334.91,-101.65 343.58,-95.56 333.01,-94.91 334.91,-101.65"/>
</g>
<!-- Node10 -->
<g id="node10" class="node">
<title>Node10</title>
<g id="a_node10"><a xlink:href="../../d3/d04/class_t___m_e_s_h_1_1_list.html#a9701d1b3769b92b7d2a7ed6da895a863" target="_top" xlink:title="Deletes and removes the first node. Returns its data. &#160;&#160;O(1).">
<polygon fill="white" stroke="black" points="334.5,-38.5 334.5,-57.5 458.5,-57.5 458.5,-38.5 334.5,-38.5"/>
<text text-anchor="middle" x="396.5" y="-45.5" font-family="Helvetica,sans-Serif" font-size="10.00">T_MESH::List::popHead</text>
</a>
</g>
</g>
<!-- Node3&#45;&gt;Node10 -->
<g id="edge10" class="edge">
<title>Node3&#45;&gt;Node10</title>
<path fill="none" stroke="midnightblue" d="M231.15,-152.45C244.15,-133.1 276.4,-89.21 315,-67 318.89,-64.76 323.02,-62.79 327.29,-61.05"/>
<polygon fill="midnightblue" stroke="midnightblue" points="328.59,-64.3 336.79,-57.6 326.19,-57.72 328.59,-64.3"/>
</g>
<!-- Node12 -->
<g id="node12" class="node">
<title>Node12</title>
<g id="a_node12"><a xlink:href="../../da/da2/class_t___m_e_s_h_1_1_edge.html#aa9788a51d590116555c8a062e253a197" target="_top" xlink:title="Triangle on the right of the edge when looking from &#39;v&#39;. NULL if &#39;v&#39; is not a vertex of the edge.">
<polygon fill="white" stroke="black" points="324,-0.5 324,-19.5 469,-19.5 469,-0.5 324,-0.5"/>
<text text-anchor="middle" x="396.5" y="-7.5" font-family="Helvetica,sans-Serif" font-size="10.00">T_MESH::Edge::rightTriangle</text>
</a>
</g>
</g>
<!-- Node3&#45;&gt;Node12 -->
<g id="edge12" class="edge">
<title>Node3&#45;&gt;Node12</title>
<path fill="none" stroke="midnightblue" d="M228.55,-152.49C238.26,-127.86 267.72,-61.61 315,-29 317.86,-27.02 320.91,-25.25 324.07,-23.66"/>
<polygon fill="midnightblue" stroke="midnightblue" points="325.49,-26.86 333.25,-19.65 322.69,-20.45 325.49,-26.86"/>
</g>
<!-- Node9 -->
<g id="node9" class="node">
<title>Node9</title>
<g id="a_node9"><a xlink:href="../../da/da2/class_t___m_e_s_h_1_1_edge.html#a7d7329ff24b7b6eb2eceee39711dd650" target="_top" xlink:title="TRUE iff &#39;v&#39; is an end&#45;point of the edge.">
<polygon fill="white" stroke="black" points="514,-76.5 514,-95.5 649,-95.5 649,-76.5 514,-76.5"/>
<text text-anchor="middle" x="581.5" y="-83.5" font-family="Helvetica,sans-Serif" font-size="10.00">T_MESH::Edge::hasVertex</text>
</a>
</g>
</g>
<!-- Node8&#45;&gt;Node9 -->
<g id="edge8" class="edge">
<title>Node8&#45;&gt;Node9</title>
<path fill="none" stroke="midnightblue" d="M478.03,-86C486.55,-86 495.2,-86 503.68,-86"/>
<polygon fill="midnightblue" stroke="midnightblue" points="503.92,-89.5 513.92,-86 503.92,-82.5 503.92,-89.5"/>
</g>
<!-- Node11 -->
<g id="node11" class="node">
<title>Node11</title>
<g id="a_node11"><a xlink:href="../../d3/d04/class_t___m_e_s_h_1_1_list.html#aec091d7c66b66c92fe56f06f41f448f4" target="_top" xlink:title="Deletes and removes the node &#39;n&#39; from the list. &#160;&#160;O(1).">
<polygon fill="white" stroke="black" points="514.5,-38.5 514.5,-57.5 648.5,-57.5 648.5,-38.5 514.5,-38.5"/>
<text text-anchor="middle" x="581.5" y="-45.5" font-family="Helvetica,sans-Serif" font-size="10.00">T_MESH::List::removeCell</text>
</a>
</g>
</g>
<!-- Node10&#45;&gt;Node11 -->
<g id="edge11" class="edge">
<title>Node10&#45;&gt;Node11</title>
<path fill="none" stroke="midnightblue" d="M458.69,-48C473.21,-48 488.88,-48 503.99,-48"/>
<polygon fill="midnightblue" stroke="midnightblue" points="504.34,-51.5 514.34,-48 504.34,-44.5 504.34,-51.5"/>
</g>
</g>
</svg>
