<?xml version="1.0" encoding="UTF-8" standalone="no"?>
<!DOCTYPE svg PUBLIC "-//W3C//DTD SVG 1.1//EN"
 "http://www.w3.org/Graphics/SVG/1.1/DTD/svg11.dtd">
<!-- Generated by graphviz version 2.44.1 (0)
 -->
<!-- Title: T_MESH::Edge::squaredLength Pages: 1 -->
<svg width="1751pt" height="425pt"
 viewBox="0.00 0.00 1751.00 424.56" xmlns="http://www.w3.org/2000/svg" xmlns:xlink="http://www.w3.org/1999/xlink">
<g id="graph0" class="graph" transform="scale(1 1) rotate(0) translate(4 420.56)">
<title>T_MESH::Edge::squaredLength</title>
<polygon fill="white" stroke="transparent" points="-4,4 -4,-420.56 1747,-420.56 1747,4 -4,4"/>
<!-- Node1 -->
<g id="node1" class="node">
<title>Node1</title>
<g id="a_node1"><a xlink:title="Squared length of the edge.">
<polygon fill="#bfbfbf" stroke="black" points="1588,-235 1588,-254 1743,-254 1743,-235 1588,-235"/>
<text text-anchor="middle" x="1665.5" y="-242" font-family="Helvetica,sans-Serif" font-size="10.00">T_MESH::Edge::squaredLength</text>
</a>
</g>
</g>
<!-- Node2 -->
<g id="node2" class="node">
<title>Node2</title>
<g id="a_node2"><a xlink:href="../../da/da2/class_t___m_e_s_h_1_1_edge.html#a69732ceedf860b233ba902e2395b059f" target="_top" xlink:title="Return the minimum among the six angles of the two incident triangles.2PI if on boundary.">
<polygon fill="white" stroke="black" points="1392,-276.5 1392,-306.5 1538,-306.5 1538,-276.5 1392,-276.5"/>
<text text-anchor="start" x="1400" y="-294.5" font-family="Helvetica,sans-Serif" font-size="10.00">T_MESH::Edge::delaunayMin</text>
<text text-anchor="middle" x="1465" y="-283.5" font-family="Helvetica,sans-Serif" font-size="10.00">Angle</text>
</a>
</g>
</g>
<!-- Node1&#45;&gt;Node2 -->
<g id="edge1" class="edge">
<title>Node1&#45;&gt;Node2</title>
<path fill="none" stroke="midnightblue" d="M1614.41,-256.36C1588.66,-262.46 1557.01,-269.95 1529.56,-276.45"/>
<polygon fill="midnightblue" stroke="midnightblue" points="1615.41,-259.72 1624.33,-254.01 1613.79,-252.91 1615.41,-259.72"/>
</g>
<!-- Node29 -->
<g id="node29" class="node">
<title>Node29</title>
<g id="a_node29"><a xlink:href="../../d8/d6e/class_t___m_e_s_h_1_1_triangle.html#a6722eddadfc9440f4ea9a45866dbfeba" target="_top" xlink:title="Returns the longest edge of the triangle.">
<polygon fill="white" stroke="black" points="1378,-197 1378,-216 1552,-216 1552,-197 1378,-197"/>
<text text-anchor="middle" x="1465" y="-204" font-family="Helvetica,sans-Serif" font-size="10.00">T_MESH::Triangle::getLongestEdge</text>
</a>
</g>
</g>
<!-- Node1&#45;&gt;Node29 -->
<g id="edge40" class="edge">
<title>Node1&#45;&gt;Node29</title>
<path fill="none" stroke="midnightblue" d="M1604.48,-233.01C1576.16,-227.59 1542.76,-221.19 1515.85,-216.04"/>
<polygon fill="midnightblue" stroke="midnightblue" points="1604.19,-236.52 1614.67,-234.96 1605.5,-229.64 1604.19,-236.52"/>
</g>
<!-- Node30 -->
<g id="node30" class="node">
<title>Node30</title>
<g id="a_node30"><a xlink:href="../../d6/d27/class_t___m_e_s_h_1_1_basic___t_mesh.html#ab634754175f6dba92fa233df6a2e45ff" target="_top" xlink:title="Takes a selected region and inserts inner vertices to reproduce the sampling density of the surroundi...">
<polygon fill="white" stroke="black" points="1201,-227.5 1201,-257.5 1342,-257.5 1342,-227.5 1201,-227.5"/>
<text text-anchor="start" x="1209" y="-245.5" font-family="Helvetica,sans-Serif" font-size="10.00">T_MESH::Basic_TMesh</text>
<text text-anchor="middle" x="1271.5" y="-234.5" font-family="Helvetica,sans-Serif" font-size="10.00">::refineSelectedHolePatches</text>
</a>
</g>
</g>
<!-- Node1&#45;&gt;Node30 -->
<g id="edge41" class="edge">
<title>Node1&#45;&gt;Node30</title>
<path fill="none" stroke="midnightblue" d="M1577.74,-244.06C1506.89,-243.7 1408.04,-243.19 1342.24,-242.86"/>
<polygon fill="midnightblue" stroke="midnightblue" points="1577.97,-247.56 1587.99,-244.11 1578.01,-240.56 1577.97,-247.56"/>
</g>
<!-- Node3 -->
<g id="node3" class="node">
<title>Node3</title>
<g id="a_node3"><a xlink:href="../../d6/d27/class_t___m_e_s_h_1_1_basic___t_mesh.html#a4e21f75df1c237f565bf232e0cd73b74" target="_top" xlink:title="Iteratively swaps edges to minimize the Delaunay minimum angle. O(N).">
<polygon fill="white" stroke="black" points="1210,-276.5 1210,-306.5 1333,-306.5 1333,-276.5 1210,-276.5"/>
<text text-anchor="start" x="1218" y="-294.5" font-family="Helvetica,sans-Serif" font-size="10.00">T_MESH::Basic_TMesh</text>
<text text-anchor="middle" x="1271.5" y="-283.5" font-family="Helvetica,sans-Serif" font-size="10.00">::iterativeEdgeSwaps</text>
</a>
</g>
</g>
<!-- Node2&#45;&gt;Node3 -->
<g id="edge2" class="edge">
<title>Node2&#45;&gt;Node3</title>
<path fill="none" stroke="midnightblue" d="M1381.82,-291.5C1365.54,-291.5 1348.72,-291.5 1333.3,-291.5"/>
<polygon fill="midnightblue" stroke="midnightblue" points="1381.87,-295 1391.87,-291.5 1381.87,-288 1381.87,-295"/>
</g>
<!-- Node4 -->
<g id="node4" class="node">
<title>Node4</title>
<g id="a_node4"><a xlink:href="../../d6/d27/class_t___m_e_s_h_1_1_basic___t_mesh.html#ada33175ee7e873107f23ece56353ffd1" target="_top" xlink:title="Creates a triangulation whose projection on the plane with normal &#39;nor&#39; is Delaunay.">
<polygon fill="white" stroke="black" points="1210,-325.5 1210,-355.5 1333,-355.5 1333,-325.5 1210,-325.5"/>
<text text-anchor="start" x="1218" y="-343.5" font-family="Helvetica,sans-Serif" font-size="10.00">T_MESH::Basic_TMesh</text>
<text text-anchor="middle" x="1271.5" y="-332.5" font-family="Helvetica,sans-Serif" font-size="10.00">::TriangulateHole</text>
</a>
</g>
</g>
<!-- Node2&#45;&gt;Node4 -->
<g id="edge3" class="edge">
<title>Node2&#45;&gt;Node4</title>
<path fill="none" stroke="midnightblue" d="M1395.41,-309.05C1374.38,-314.43 1351.45,-320.3 1331.15,-325.49"/>
<polygon fill="midnightblue" stroke="midnightblue" points="1396.42,-312.4 1405.24,-306.53 1394.69,-305.62 1396.42,-312.4"/>
</g>
<!-- Node5 -->
<g id="node5" class="node">
<title>Node5</title>
<g id="a_node5"><a xlink:href="../../d6/d27/class_t___m_e_s_h_1_1_basic___t_mesh.html#a5d522c7bb892873b10efb533a4e94b94" target="_top" xlink:title="Hole filling algorithm.">
<polygon fill="white" stroke="black" points="1031,-227.5 1031,-257.5 1154,-257.5 1154,-227.5 1031,-227.5"/>
<text text-anchor="start" x="1039" y="-245.5" font-family="Helvetica,sans-Serif" font-size="10.00">T_MESH::Basic_TMesh</text>
<text text-anchor="middle" x="1092.5" y="-234.5" font-family="Helvetica,sans-Serif" font-size="10.00">::FillHole</text>
</a>
</g>
</g>
<!-- Node4&#45;&gt;Node5 -->
<g id="edge4" class="edge">
<title>Node4&#45;&gt;Node5</title>
<path fill="none" stroke="midnightblue" d="M1208.87,-320.7C1206.13,-319.09 1203.49,-317.36 1201,-315.5 1179.34,-299.33 1186.83,-282.43 1165,-266.5 1160.35,-263.1 1155.18,-260.17 1149.82,-257.63"/>
<polygon fill="midnightblue" stroke="midnightblue" points="1207.42,-323.89 1217.9,-325.44 1210.67,-317.69 1207.42,-323.89"/>
</g>
<!-- Node6 -->
<g id="node6" class="node">
<title>Node6</title>
<g id="a_node6"><a xlink:href="../../d6/d27/class_t___m_e_s_h_1_1_basic___t_mesh.html#a24c4a4f93e50ac97dbeed1576c2aeb62" target="_top" xlink:title="Fills all the holes having at least &#39;nbe&#39; boundary edges.">
<polygon fill="white" stroke="black" points="1031,-276.5 1031,-306.5 1154,-306.5 1154,-276.5 1031,-276.5"/>
<text text-anchor="start" x="1039" y="-294.5" font-family="Helvetica,sans-Serif" font-size="10.00">T_MESH::Basic_TMesh</text>
<text text-anchor="middle" x="1092.5" y="-283.5" font-family="Helvetica,sans-Serif" font-size="10.00">::fillSmallBoundaries</text>
</a>
</g>
</g>
<!-- Node4&#45;&gt;Node6 -->
<g id="edge5" class="edge">
<title>Node4&#45;&gt;Node6</title>
<path fill="none" stroke="midnightblue" d="M1206.13,-322.68C1187.01,-317.39 1166.28,-311.65 1147.87,-306.55"/>
<polygon fill="midnightblue" stroke="midnightblue" points="1205.38,-326.1 1215.95,-325.4 1207.25,-319.36 1205.38,-326.1"/>
</g>
<!-- Node27 -->
<g id="node27" class="node">
<title>Node27</title>
<g id="a_node27"><a xlink:href="../../d6/d27/class_t___m_e_s_h_1_1_basic___t_mesh.html#a11e0d5c044e95b01e3cc8beb77c60f8f" target="_top" xlink:title="Re&#45;triangulates the currently selected region using a Delaunay&#45;like approach. O(SlogS).">
<polygon fill="white" stroke="black" points="1020,-325.5 1020,-355.5 1165,-355.5 1165,-325.5 1020,-325.5"/>
<text text-anchor="start" x="1028" y="-343.5" font-family="Helvetica,sans-Serif" font-size="10.00">T_MESH::Basic_TMesh</text>
<text text-anchor="middle" x="1092.5" y="-332.5" font-family="Helvetica,sans-Serif" font-size="10.00">::retriangulateSelectedRegion</text>
</a>
</g>
</g>
<!-- Node4&#45;&gt;Node27 -->
<g id="edge38" class="edge">
<title>Node4&#45;&gt;Node27</title>
<path fill="none" stroke="midnightblue" d="M1199.38,-340.5C1188.12,-340.5 1176.47,-340.5 1165.2,-340.5"/>
<polygon fill="midnightblue" stroke="midnightblue" points="1199.59,-344 1209.59,-340.5 1199.59,-337 1199.59,-344"/>
</g>
<!-- Node28 -->
<g id="node28" class="node">
<title>Node28</title>
<g id="a_node28"><a xlink:href="../../d6/d27/class_t___m_e_s_h_1_1_basic___t_mesh.html#a6c419b3b7ebd44fca9fdc7a048ff7b52" target="_top" xlink:title="Retriangulates the vertex neghborhood based on heuristics.">
<polygon fill="white" stroke="black" points="1031,-374.5 1031,-404.5 1154,-404.5 1154,-374.5 1031,-374.5"/>
<text text-anchor="start" x="1039" y="-392.5" font-family="Helvetica,sans-Serif" font-size="10.00">T_MESH::Basic_TMesh</text>
<text text-anchor="middle" x="1092.5" y="-381.5" font-family="Helvetica,sans-Serif" font-size="10.00">::retriangulateVT</text>
</a>
</g>
</g>
<!-- Node4&#45;&gt;Node28 -->
<g id="edge39" class="edge">
<title>Node4&#45;&gt;Node28</title>
<path fill="none" stroke="midnightblue" d="M1206.13,-358.32C1187.01,-363.61 1166.28,-369.35 1147.87,-374.45"/>
<polygon fill="midnightblue" stroke="midnightblue" points="1207.25,-361.64 1215.95,-355.6 1205.38,-354.9 1207.25,-361.64"/>
</g>
<!-- Node7 -->
<g id="node7" class="node">
<title>Node7</title>
<g id="a_node7"><a xlink:href="../../d2/d68/class_export_open_scad_tool.html#a6e48e9b58a764bc8032b1fbc4082603d" target="_top" xlink:title=" ">
<polygon fill="white" stroke="black" points="533,-369.5 533,-399.5 642,-399.5 642,-369.5 533,-369.5"/>
<text text-anchor="start" x="541" y="-387.5" font-family="Helvetica,sans-Serif" font-size="10.00">ExportOpenScadTool</text>
<text text-anchor="middle" x="587.5" y="-376.5" font-family="Helvetica,sans-Serif" font-size="10.00">::fixMesh</text>
</a>
</g>
</g>
<!-- Node6&#45;&gt;Node7 -->
<g id="edge6" class="edge">
<title>Node6&#45;&gt;Node7</title>
<path fill="none" stroke="midnightblue" d="M1025.9,-311.58C1023.87,-312.82 1021.89,-314.12 1020,-315.5 998.17,-331.43 1007.79,-351.69 984,-364.5 874.43,-423.49 722.09,-409.06 642.23,-395.54"/>
<polygon fill="midnightblue" stroke="midnightblue" points="1028.01,-314.43 1035.18,-306.63 1024.71,-308.25 1028.01,-314.43"/>
</g>
<!-- Node12 -->
<g id="node12" class="node">
<title>Node12</title>
<g id="a_node12"><a xlink:href="../../dd/d00/class_export_s_t_l_tool.html#a82d1e11c365c1ed2adf6d831b7f6014f" target="_top" xlink:title=" ">
<polygon fill="white" stroke="black" points="527,-306 527,-325 648,-325 648,-306 527,-306"/>
<text text-anchor="middle" x="587.5" y="-313" font-family="Helvetica,sans-Serif" font-size="10.00">ExportSTLTool::fixMesh</text>
</a>
</g>
</g>
<!-- Node6&#45;&gt;Node12 -->
<g id="edge13" class="edge">
<title>Node6&#45;&gt;Node12</title>
<path fill="none" stroke="midnightblue" d="M1028.01,-274.21C1013.64,-271 998.38,-268.15 984,-266.5 851.11,-251.25 815.01,-263.54 684,-290.5 663.02,-294.82 639.76,-300.88 621.44,-305.95"/>
<polygon fill="midnightblue" stroke="midnightblue" points="1027.25,-277.63 1037.79,-276.47 1028.83,-270.81 1027.25,-277.63"/>
</g>
<!-- Node14 -->
<g id="node14" class="node">
<title>Node14</title>
<g id="a_node14"><a xlink:href="../../d9/dc6/class_main_window.html#a15f9fa9fe71b50669ecf5f5a3a1ce90e" target="_top" xlink:title="Import STL / OBJ mesh into the scene.">
<polygon fill="white" stroke="black" points="527,-192 527,-211 648,-211 648,-192 527,-192"/>
<text text-anchor="middle" x="587.5" y="-199" font-family="Helvetica,sans-Serif" font-size="10.00">MainWindow::loadMesh</text>
</a>
</g>
</g>
<!-- Node6&#45;&gt;Node14 -->
<g id="edge15" class="edge">
<title>Node6&#45;&gt;Node14</title>
<path fill="none" stroke="midnightblue" d="M1038.31,-273.22C1016.91,-266.07 994.78,-258.98 984,-256.5 866.46,-229.42 725.99,-213.74 648.06,-206.48"/>
<polygon fill="midnightblue" stroke="midnightblue" points="1037.45,-276.62 1048.04,-276.49 1039.68,-269.99 1037.45,-276.62"/>
</g>
<!-- Node24 -->
<g id="node24" class="node">
<title>Node24</title>
<g id="a_node24"><a xlink:href="../../d6/d27/class_t___m_e_s_h_1_1_basic___t_mesh.html#af160de0b4a939ef2cb93279f67e6dd34" target="_top" xlink:title="Calls &#39;removeDegenerateTriangles()&#39; and, if some degeneracies remain, removes them and fills the resu...">
<polygon fill="white" stroke="black" points="843,-276.5 843,-306.5 984,-306.5 984,-276.5 843,-276.5"/>
<text text-anchor="start" x="851" y="-294.5" font-family="Helvetica,sans-Serif" font-size="10.00">T_MESH::Basic_TMesh</text>
<text text-anchor="middle" x="913.5" y="-283.5" font-family="Helvetica,sans-Serif" font-size="10.00">::strongDegeneracyRemoval</text>
</a>
</g>
</g>
<!-- Node6&#45;&gt;Node24 -->
<g id="edge31" class="edge">
<title>Node6&#45;&gt;Node24</title>
<path fill="none" stroke="midnightblue" d="M1020.23,-291.5C1008.3,-291.5 995.93,-291.5 984.04,-291.5"/>
<polygon fill="midnightblue" stroke="midnightblue" points="1020.59,-295 1030.59,-291.5 1020.59,-288 1020.59,-295"/>
</g>
<!-- Node26 -->
<g id="node26" class="node">
<title>Node26</title>
<g id="a_node26"><a xlink:href="../../d6/d27/class_t___m_e_s_h_1_1_basic___t_mesh.html#a1415feaeb04556d7729a02f73b546ab1" target="_top" xlink:title="Removes all the intersecting triangles and patches the resulting holes.">
<polygon fill="white" stroke="black" points="843.5,-325.5 843.5,-355.5 983.5,-355.5 983.5,-325.5 843.5,-325.5"/>
<text text-anchor="start" x="851.5" y="-343.5" font-family="Helvetica,sans-Serif" font-size="10.00">T_MESH::Basic_TMesh</text>
<text text-anchor="middle" x="913.5" y="-332.5" font-family="Helvetica,sans-Serif" font-size="10.00">::strongIntersectionRemoval</text>
</a>
</g>
</g>
<!-- Node6&#45;&gt;Node26 -->
<g id="edge36" class="edge">
<title>Node6&#45;&gt;Node26</title>
<path fill="none" stroke="midnightblue" d="M1027.13,-309.32C1008.01,-314.61 987.28,-320.35 968.87,-325.45"/>
<polygon fill="midnightblue" stroke="midnightblue" points="1028.25,-312.64 1036.95,-306.6 1026.38,-305.9 1028.25,-312.64"/>
</g>
<!-- Node8 -->
<g id="node8" class="node">
<title>Node8</title>
<g id="a_node8"><a xlink:href="../../d2/d68/class_export_open_scad_tool.html#a2e36901501e307b74705aa84f4227d67" target="_top" xlink:title="Export the wiring in the openscad format.">
<polygon fill="white" stroke="black" points="362,-372.5 362,-402.5 471,-402.5 471,-372.5 362,-372.5"/>
<text text-anchor="start" x="370" y="-390.5" font-family="Helvetica,sans-Serif" font-size="10.00">ExportOpenScadTool</text>
<text text-anchor="middle" x="416.5" y="-379.5" font-family="Helvetica,sans-Serif" font-size="10.00">::writeWiring</text>
</a>
</g>
</g>
<!-- Node7&#45;&gt;Node8 -->
<g id="edge7" class="edge">
<title>Node7&#45;&gt;Node8</title>
<path fill="none" stroke="midnightblue" d="M522.25,-385.64C505.42,-385.94 487.44,-386.26 471.21,-386.55"/>
<polygon fill="midnightblue" stroke="midnightblue" points="522.63,-389.13 532.56,-385.46 522.5,-382.14 522.63,-389.13"/>
</g>
<!-- Node9 -->
<g id="node9" class="node">
<title>Node9</title>
<g id="a_node9"><a xlink:href="../../d2/d68/class_export_open_scad_tool.html#a71ef67a238fb9cd74563b65d77c1ea73" target="_top" xlink:title=" ">
<polygon fill="white" stroke="black" points="13,-372.5 13,-402.5 122,-402.5 122,-372.5 13,-372.5"/>
<text text-anchor="start" x="21" y="-390.5" font-family="Helvetica,sans-Serif" font-size="10.00">ExportOpenScadTool</text>
<text text-anchor="middle" x="67.5" y="-379.5" font-family="Helvetica,sans-Serif" font-size="10.00">::execute</text>
</a>
</g>
</g>
<!-- Node8&#45;&gt;Node9 -->
<g id="edge8" class="edge">
<title>Node8&#45;&gt;Node9</title>
<path fill="none" stroke="midnightblue" d="M351.72,-403.9C336.82,-407.06 320.93,-409.88 306,-411.5 246.35,-417.96 230.6,-418.38 171,-411.5 154.93,-409.64 137.72,-406.2 122.08,-402.49"/>
<polygon fill="midnightblue" stroke="midnightblue" points="352.84,-407.24 361.86,-401.68 351.34,-400.4 352.84,-407.24"/>
</g>
<!-- Node10 -->
<g id="node10" class="node">
<title>Node10</title>
<g id="a_node10"><a xlink:href="../../d2/d68/class_export_open_scad_tool.html#a9c35cf64ece9ee328df6ebfd080c0689" target="_top" xlink:title="Export the meshdifference between mesh and wiring in the openscad format.">
<polygon fill="white" stroke="black" points="184,-372.5 184,-402.5 293,-402.5 293,-372.5 184,-372.5"/>
<text text-anchor="start" x="192" y="-390.5" font-family="Helvetica,sans-Serif" font-size="10.00">ExportOpenScadTool</text>
<text text-anchor="middle" x="238.5" y="-379.5" font-family="Helvetica,sans-Serif" font-size="10.00">::writeDifference</text>
</a>
</g>
</g>
<!-- Node8&#45;&gt;Node10 -->
<g id="edge9" class="edge">
<title>Node8&#45;&gt;Node10</title>
<path fill="none" stroke="midnightblue" d="M351.6,-387.5C332.45,-387.5 311.66,-387.5 293.24,-387.5"/>
<polygon fill="midnightblue" stroke="midnightblue" points="351.74,-391 361.74,-387.5 351.74,-384 351.74,-391"/>
</g>
<!-- Node11 -->
<g id="node11" class="node">
<title>Node11</title>
<g id="a_node11"><a xlink:href="../../d2/d68/class_export_open_scad_tool.html#adc9cf506ecd2ef6e33f37f2eb206da1a" target="_top" xlink:title="Export the meshdifference between mesh and magnets in the openscad format.">
<polygon fill="white" stroke="black" points="176,-323.5 176,-353.5 301,-353.5 301,-323.5 176,-323.5"/>
<text text-anchor="start" x="184" y="-341.5" font-family="Helvetica,sans-Serif" font-size="10.00">ExportOpenScadTool</text>
<text text-anchor="middle" x="238.5" y="-330.5" font-family="Helvetica,sans-Serif" font-size="10.00">::writeDifferenceMagnets</text>
</a>
</g>
</g>
<!-- Node8&#45;&gt;Node11 -->
<g id="edge11" class="edge">
<title>Node8&#45;&gt;Node11</title>
<path fill="none" stroke="midnightblue" d="M351.91,-369.8C332.78,-364.47 311.99,-358.68 293.54,-353.55"/>
<polygon fill="midnightblue" stroke="midnightblue" points="351.17,-373.22 361.74,-372.53 353.04,-366.48 351.17,-373.22"/>
</g>
<!-- Node10&#45;&gt;Node9 -->
<g id="edge10" class="edge">
<title>Node10&#45;&gt;Node9</title>
<path fill="none" stroke="midnightblue" d="M173.25,-387.5C156.42,-387.5 138.44,-387.5 122.21,-387.5"/>
<polygon fill="midnightblue" stroke="midnightblue" points="173.56,-391 183.56,-387.5 173.56,-384 173.56,-391"/>
</g>
<!-- Node11&#45;&gt;Node9 -->
<g id="edge12" class="edge">
<title>Node11&#45;&gt;Node9</title>
<path fill="none" stroke="midnightblue" d="M175.78,-356.39C157.61,-361.66 137.91,-367.38 120.41,-372.45"/>
<polygon fill="midnightblue" stroke="midnightblue" points="176.79,-359.75 185.42,-353.6 174.84,-353.02 176.79,-359.75"/>
</g>
<!-- Node13 -->
<g id="node13" class="node">
<title>Node13</title>
<g id="a_node13"><a xlink:href="../../dd/d00/class_export_s_t_l_tool.html#a218420198ac8fef5b9f9a8acc889307d" target="_top" xlink:title=" ">
<polygon fill="white" stroke="black" points="356,-334 356,-353 477,-353 477,-334 356,-334"/>
<text text-anchor="middle" x="416.5" y="-341" font-family="Helvetica,sans-Serif" font-size="10.00">ExportSTLTool::execute</text>
</a>
</g>
</g>
<!-- Node12&#45;&gt;Node13 -->
<g id="edge14" class="edge">
<title>Node12&#45;&gt;Node13</title>
<path fill="none" stroke="midnightblue" d="M518.87,-326.71C504.31,-329.12 489.05,-331.64 474.93,-333.99"/>
<polygon fill="midnightblue" stroke="midnightblue" points="519.52,-330.15 528.81,-325.06 518.37,-323.24 519.52,-330.15"/>
</g>
<!-- Node15 -->
<g id="node15" class="node">
<title>Node15</title>
<g id="a_node15"><a xlink:href="../../d9/dc6/class_main_window.html#a6e3c9bc26115fb1b1664607e58716641" target="_top" xlink:title=" ">
<polygon fill="white" stroke="black" points="343.5,-50 343.5,-69 489.5,-69 489.5,-50 343.5,-50"/>
<text text-anchor="middle" x="416.5" y="-57" font-family="Helvetica,sans-Serif" font-size="10.00">MainWindow::slotImportMesh</text>
</a>
</g>
</g>
<!-- Node14&#45;&gt;Node15 -->
<g id="edge16" class="edge">
<title>Node14&#45;&gt;Node15</title>
<path fill="none" stroke="midnightblue" d="M577.19,-182.85C562.63,-155.63 531.84,-105.36 491,-78.5 485.05,-74.59 478.35,-71.48 471.46,-69.02"/>
<polygon fill="midnightblue" stroke="midnightblue" points="574.1,-184.48 581.81,-191.74 580.31,-181.26 574.1,-184.48"/>
</g>
<!-- Node18 -->
<g id="node18" class="node">
<title>Node18</title>
<g id="a_node18"><a xlink:href="../../d9/dc6/class_main_window.html#a46bb2fea8ddeab75e15a223c291116b6" target="_top" xlink:title=" ">
<polygon fill="white" stroke="black" points="342,-0.5 342,-30.5 491,-30.5 491,-0.5 342,-0.5"/>
<text text-anchor="start" x="350" y="-18.5" font-family="Helvetica,sans-Serif" font-size="10.00">MainWindow::slotOptimization</text>
<text text-anchor="middle" x="416.5" y="-7.5" font-family="Helvetica,sans-Serif" font-size="10.00">BenchmarkBunnyLowPoly</text>
</a>
</g>
</g>
<!-- Node14&#45;&gt;Node18 -->
<g id="edge19" class="edge">
<title>Node14&#45;&gt;Node18</title>
<path fill="none" stroke="midnightblue" d="M580.2,-182.4C568.17,-148.87 538.82,-79.3 491,-40.5 486.29,-36.68 480.96,-33.43 475.39,-30.67"/>
<polygon fill="midnightblue" stroke="midnightblue" points="576.92,-183.63 583.49,-191.94 583.53,-181.34 576.92,-183.63"/>
</g>
<!-- Node19 -->
<g id="node19" class="node">
<title>Node19</title>
<g id="a_node19"><a xlink:href="../../d9/dc6/class_main_window.html#affed0fab82fd390e2762933c6dca9124" target="_top" xlink:title=" ">
<polygon fill="white" stroke="black" points="342,-284.5 342,-314.5 491,-314.5 491,-284.5 342,-284.5"/>
<text text-anchor="start" x="350" y="-302.5" font-family="Helvetica,sans-Serif" font-size="10.00">MainWindow::slotOptimization</text>
<text text-anchor="middle" x="416.5" y="-291.5" font-family="Helvetica,sans-Serif" font-size="10.00">BenchmarkCorona</text>
</a>
</g>
</g>
<!-- Node14&#45;&gt;Node19 -->
<g id="edge21" class="edge">
<title>Node14&#45;&gt;Node19</title>
<path fill="none" stroke="midnightblue" d="M568.86,-217.83C550.56,-234.06 520.54,-258.74 491,-274.5 484.1,-278.18 476.56,-281.48 469.01,-284.37"/>
<polygon fill="midnightblue" stroke="midnightblue" points="571.31,-220.33 576.4,-211.04 566.63,-215.13 571.31,-220.33"/>
</g>
<!-- Node20 -->
<g id="node20" class="node">
<title>Node20</title>
<g id="a_node20"><a xlink:href="../../d9/dc6/class_main_window.html#adfdb8fcb8685844e8ce11bfb41b83b7d" target="_top" xlink:title=" ">
<polygon fill="white" stroke="black" points="342,-235.5 342,-265.5 491,-265.5 491,-235.5 342,-235.5"/>
<text text-anchor="start" x="350" y="-253.5" font-family="Helvetica,sans-Serif" font-size="10.00">MainWindow::slotOptimization</text>
<text text-anchor="middle" x="416.5" y="-242.5" font-family="Helvetica,sans-Serif" font-size="10.00">BenchmarkCthulhu</text>
</a>
</g>
</g>
<!-- Node14&#45;&gt;Node20 -->
<g id="edge23" class="edge">
<title>Node14&#45;&gt;Node20</title>
<path fill="none" stroke="midnightblue" d="M543.85,-213.87C521.22,-220.43 493.24,-228.54 469.36,-235.46"/>
<polygon fill="midnightblue" stroke="midnightblue" points="544.88,-217.21 553.51,-211.06 542.93,-210.49 544.88,-217.21"/>
</g>
<!-- Node21 -->
<g id="node21" class="node">
<title>Node21</title>
<g id="a_node21"><a xlink:href="../../d9/dc6/class_main_window.html#a5283a0d7aeeafd409c69b272053f3986" target="_top" xlink:title=" ">
<polygon fill="white" stroke="black" points="342,-186.5 342,-216.5 491,-216.5 491,-186.5 342,-186.5"/>
<text text-anchor="start" x="350" y="-204.5" font-family="Helvetica,sans-Serif" font-size="10.00">MainWindow::slotOptimization</text>
<text text-anchor="middle" x="416.5" y="-193.5" font-family="Helvetica,sans-Serif" font-size="10.00">BenchmarkCube</text>
</a>
</g>
</g>
<!-- Node14&#45;&gt;Node21 -->
<g id="edge25" class="edge">
<title>Node14&#45;&gt;Node21</title>
<path fill="none" stroke="midnightblue" d="M516.71,-201.5C508.25,-201.5 499.58,-201.5 491.06,-201.5"/>
<polygon fill="midnightblue" stroke="midnightblue" points="516.92,-205 526.92,-201.5 516.92,-198 516.92,-205"/>
</g>
<!-- Node22 -->
<g id="node22" class="node">
<title>Node22</title>
<g id="a_node22"><a xlink:href="../../d9/dc6/class_main_window.html#a0c92ca2d04a79a1580c2e8e136b82682" target="_top" xlink:title=" ">
<polygon fill="white" stroke="black" points="342,-137.5 342,-167.5 491,-167.5 491,-137.5 342,-137.5"/>
<text text-anchor="start" x="350" y="-155.5" font-family="Helvetica,sans-Serif" font-size="10.00">MainWindow::slotOptimization</text>
<text text-anchor="middle" x="416.5" y="-144.5" font-family="Helvetica,sans-Serif" font-size="10.00">BenchmarkSphere</text>
</a>
</g>
</g>
<!-- Node14&#45;&gt;Node22 -->
<g id="edge27" class="edge">
<title>Node14&#45;&gt;Node22</title>
<path fill="none" stroke="midnightblue" d="M543.85,-189.13C521.22,-182.57 493.24,-174.46 469.36,-167.54"/>
<polygon fill="midnightblue" stroke="midnightblue" points="542.93,-192.51 553.51,-191.94 544.88,-185.79 542.93,-192.51"/>
</g>
<!-- Node23 -->
<g id="node23" class="node">
<title>Node23</title>
<g id="a_node23"><a xlink:href="../../d9/dc6/class_main_window.html#a86cd359f80311725589d0861dd7a9851" target="_top" xlink:title=" ">
<polygon fill="white" stroke="black" points="342,-88.5 342,-118.5 491,-118.5 491,-88.5 342,-88.5"/>
<text text-anchor="start" x="350" y="-106.5" font-family="Helvetica,sans-Serif" font-size="10.00">MainWindow::slotOptimization</text>
<text text-anchor="middle" x="416.5" y="-95.5" font-family="Helvetica,sans-Serif" font-size="10.00">BenchmarkUChannel</text>
</a>
</g>
</g>
<!-- Node14&#45;&gt;Node23 -->
<g id="edge29" class="edge">
<title>Node14&#45;&gt;Node23</title>
<path fill="none" stroke="midnightblue" d="M568.94,-184.85C550.7,-168.33 520.73,-143.26 491,-127.5 484.71,-124.17 477.88,-121.19 471,-118.55"/>
<polygon fill="midnightblue" stroke="midnightblue" points="566.72,-187.57 576.45,-191.77 571.47,-182.42 566.72,-187.57"/>
</g>
<!-- Node16 -->
<g id="node16" class="node">
<title>Node16</title>
<g id="a_node16"><a xlink:href="../../d9/dc6/class_main_window.html#a33dddfc15db4053f9117728538e7ece4" target="_top" xlink:title="Set up qt specific signal and slots part for enabling user interaction.">
<polygon fill="white" stroke="black" points="171,-137.5 171,-167.5 306,-167.5 306,-137.5 171,-137.5"/>
<text text-anchor="start" x="179" y="-155.5" font-family="Helvetica,sans-Serif" font-size="10.00">MainWindow::setupSignals</text>
<text text-anchor="middle" x="238.5" y="-144.5" font-family="Helvetica,sans-Serif" font-size="10.00">AndSlots</text>
</a>
</g>
</g>
<!-- Node15&#45;&gt;Node16 -->
<g id="edge17" class="edge">
<title>Node15&#45;&gt;Node16</title>
<path fill="none" stroke="midnightblue" d="M357.98,-72.13C352.48,-74 347.07,-76.12 342,-78.5 309.02,-93.99 275.71,-120.51 256.37,-137.24"/>
<polygon fill="midnightblue" stroke="midnightblue" points="359.43,-75.35 367.93,-69.03 357.34,-68.67 359.43,-75.35"/>
</g>
<!-- Node17 -->
<g id="node17" class="node">
<title>Node17</title>
<g id="a_node17"><a xlink:href="../../d9/dc6/class_main_window.html#a996c5a2b6f77944776856f08ec30858d" target="_top" xlink:title=" ">
<polygon fill="white" stroke="black" points="0,-143 0,-162 135,-162 135,-143 0,-143"/>
<text text-anchor="middle" x="67.5" y="-150" font-family="Helvetica,sans-Serif" font-size="10.00">MainWindow::MainWindow</text>
</a>
</g>
</g>
<!-- Node16&#45;&gt;Node17 -->
<g id="edge18" class="edge">
<title>Node16&#45;&gt;Node17</title>
<path fill="none" stroke="midnightblue" d="M160.45,-152.5C151.98,-152.5 143.41,-152.5 135.08,-152.5"/>
<polygon fill="midnightblue" stroke="midnightblue" points="160.71,-156 170.71,-152.5 160.71,-149 160.71,-156"/>
</g>
<!-- Node18&#45;&gt;Node16 -->
<g id="edge20" class="edge">
<title>Node18&#45;&gt;Node16</title>
<path fill="none" stroke="midnightblue" d="M351.82,-34.83C348.42,-36.58 345.12,-38.46 342,-40.5 301.4,-67.03 266.21,-113.28 249.63,-137.2"/>
<polygon fill="midnightblue" stroke="midnightblue" points="353.46,-37.92 361.04,-30.52 350.5,-31.58 353.46,-37.92"/>
</g>
<!-- Node19&#45;&gt;Node16 -->
<g id="edge22" class="edge">
<title>Node19&#45;&gt;Node16</title>
<path fill="none" stroke="midnightblue" d="M351.04,-279.97C347.9,-278.28 344.87,-276.46 342,-274.5 299.07,-245.14 263.92,-193.11 248.27,-167.54"/>
<polygon fill="midnightblue" stroke="midnightblue" points="349.6,-283.16 360.12,-284.38 352.66,-276.86 349.6,-283.16"/>
</g>
<!-- Node20&#45;&gt;Node16 -->
<g id="edge24" class="edge">
<title>Node20&#45;&gt;Node16</title>
<path fill="none" stroke="midnightblue" d="M355.37,-231.68C350.78,-229.75 346.27,-227.69 342,-225.5 310.11,-209.17 277.01,-183.8 257.34,-167.68"/>
<polygon fill="midnightblue" stroke="midnightblue" points="354.29,-235.02 364.88,-235.46 356.88,-228.51 354.29,-235.02"/>
</g>
<!-- Node21&#45;&gt;Node16 -->
<g id="edge26" class="edge">
<title>Node21&#45;&gt;Node16</title>
<path fill="none" stroke="midnightblue" d="M351.49,-183.68C332.49,-178.39 311.87,-172.65 293.56,-167.55"/>
<polygon fill="midnightblue" stroke="midnightblue" points="350.69,-187.09 361.26,-186.4 352.56,-180.34 350.69,-187.09"/>
</g>
<!-- Node22&#45;&gt;Node16 -->
<g id="edge28" class="edge">
<title>Node22&#45;&gt;Node16</title>
<path fill="none" stroke="midnightblue" d="M331.8,-152.5C323.18,-152.5 314.5,-152.5 306.09,-152.5"/>
<polygon fill="midnightblue" stroke="midnightblue" points="331.88,-156 341.88,-152.5 331.88,-149 331.88,-156"/>
</g>
<!-- Node23&#45;&gt;Node16 -->
<g id="edge30" class="edge">
<title>Node23&#45;&gt;Node16</title>
<path fill="none" stroke="midnightblue" d="M351.49,-121.32C332.49,-126.61 311.87,-132.35 293.56,-137.45"/>
<polygon fill="midnightblue" stroke="midnightblue" points="352.56,-124.66 361.26,-118.6 350.69,-117.91 352.56,-124.66"/>
</g>
<!-- Node25 -->
<g id="node25" class="node">
<title>Node25</title>
<g id="a_node25"><a xlink:href="../../d6/d27/class_t___m_e_s_h_1_1_basic___t_mesh.html#a1270b60eec84c1f939d405d9ade1a94e" target="_top" xlink:title="Iteratively call strongDegeneracyRemoval and strongIntersectionRemoval to produce an eventually clean...">
<polygon fill="white" stroke="black" points="684,-300.5 684,-330.5 807,-330.5 807,-300.5 684,-300.5"/>
<text text-anchor="start" x="692" y="-318.5" font-family="Helvetica,sans-Serif" font-size="10.00">T_MESH::Basic_TMesh</text>
<text text-anchor="middle" x="745.5" y="-307.5" font-family="Helvetica,sans-Serif" font-size="10.00">::meshclean</text>
</a>
</g>
</g>
<!-- Node24&#45;&gt;Node25 -->
<g id="edge32" class="edge">
<title>Node24&#45;&gt;Node25</title>
<path fill="none" stroke="midnightblue" d="M832.58,-303.06C824.01,-304.29 815.41,-305.54 807.13,-306.73"/>
<polygon fill="midnightblue" stroke="midnightblue" points="833.19,-306.5 842.58,-301.61 832.18,-299.58 833.19,-306.5"/>
</g>
<!-- Node25&#45;&gt;Node7 -->
<g id="edge33" class="edge">
<title>Node25&#45;&gt;Node7</title>
<path fill="none" stroke="midnightblue" d="M701.08,-334.7C676.31,-345.66 645.7,-359.2 622.66,-369.39"/>
<polygon fill="midnightblue" stroke="midnightblue" points="702.54,-337.89 710.27,-330.64 699.7,-331.49 702.54,-337.89"/>
</g>
<!-- Node25&#45;&gt;Node12 -->
<g id="edge34" class="edge">
<title>Node25&#45;&gt;Node12</title>
<path fill="none" stroke="midnightblue" d="M673.47,-315.5C664.98,-315.5 656.38,-315.5 648.07,-315.5"/>
<polygon fill="midnightblue" stroke="midnightblue" points="673.74,-319 683.74,-315.5 673.74,-312 673.74,-319"/>
</g>
<!-- Node25&#45;&gt;Node14 -->
<g id="edge35" class="edge">
<title>Node25&#45;&gt;Node14</title>
<path fill="none" stroke="midnightblue" d="M715.62,-294.39C681.58,-269.52 626.5,-229.27 601.54,-211.03"/>
<polygon fill="midnightblue" stroke="midnightblue" points="713.65,-297.29 723.78,-300.36 717.78,-291.64 713.65,-297.29"/>
</g>
<!-- Node26&#45;&gt;Node25 -->
<g id="edge37" class="edge">
<title>Node26&#45;&gt;Node25</title>
<path fill="none" stroke="midnightblue" d="M832.95,-328.52C824.3,-327.22 815.59,-325.91 807.22,-324.64"/>
<polygon fill="midnightblue" stroke="midnightblue" points="832.65,-332.01 843.06,-330.04 833.7,-325.09 832.65,-332.01"/>
</g>
<!-- Node30&#45;&gt;Node5 -->
<g id="edge42" class="edge">
<title>Node30&#45;&gt;Node5</title>
<path fill="none" stroke="midnightblue" d="M1190.61,-242.5C1178.4,-242.5 1165.96,-242.5 1154.25,-242.5"/>
<polygon fill="midnightblue" stroke="midnightblue" points="1190.8,-246 1200.8,-242.5 1190.8,-239 1190.8,-246"/>
</g>
<!-- Node30&#45;&gt;Node6 -->
<g id="edge43" class="edge">
<title>Node30&#45;&gt;Node6</title>
<path fill="none" stroke="midnightblue" d="M1206.13,-260.32C1187.01,-265.61 1166.28,-271.35 1147.87,-276.45"/>
<polygon fill="midnightblue" stroke="midnightblue" points="1207.25,-263.64 1215.95,-257.6 1205.38,-256.9 1207.25,-263.64"/>
</g>
<!-- Node31 -->
<g id="node31" class="node">
<title>Node31</title>
<g id="a_node31"><a xlink:href="../../d6/d27/class_t___m_e_s_h_1_1_basic___t_mesh.html#a010c12b5c3406aefb5a3c730dd61923f" target="_top" xlink:title="Joins the two boundary vertices gv and gw through an edge.">
<polygon fill="white" stroke="black" points="1031,-178.5 1031,-208.5 1154,-208.5 1154,-178.5 1031,-178.5"/>
<text text-anchor="start" x="1039" y="-196.5" font-family="Helvetica,sans-Serif" font-size="10.00">T_MESH::Basic_TMesh</text>
<text text-anchor="middle" x="1092.5" y="-185.5" font-family="Helvetica,sans-Serif" font-size="10.00">::joinBoundaryLoops</text>
</a>
</g>
</g>
<!-- Node30&#45;&gt;Node31 -->
<g id="edge44" class="edge">
<title>Node30&#45;&gt;Node31</title>
<path fill="none" stroke="midnightblue" d="M1206.13,-224.68C1187.01,-219.39 1166.28,-213.65 1147.87,-208.55"/>
<polygon fill="midnightblue" stroke="midnightblue" points="1205.38,-228.1 1215.95,-227.4 1207.25,-221.36 1205.38,-228.1"/>
</g>
</g>
</svg>
