<?xml version="1.0" encoding="UTF-8" standalone="no"?>
<!DOCTYPE svg PUBLIC "-//W3C//DTD SVG 1.1//EN"
 "http://www.w3.org/Graphics/SVG/1.1/DTD/svg11.dtd">
<!-- Generated by graphviz version 2.44.1 (0)
 -->
<!-- Title: T_MESH::Edge::dihedralAngle Pages: 1 -->
<svg width="690pt" height="154pt"
 viewBox="0.00 0.00 690.00 154.00" xmlns="http://www.w3.org/2000/svg" xmlns:xlink="http://www.w3.org/1999/xlink">
<g id="graph0" class="graph" transform="scale(1 1) rotate(0) translate(4 150)">
<title>T_MESH::Edge::dihedralAngle</title>
<polygon fill="white" stroke="transparent" points="-4,4 -4,-150 686,-150 686,4 -4,4"/>
<!-- Node1 -->
<g id="node1" class="node">
<title>Node1</title>
<g id="a_node1"><a xlink:title="Dihedral angle at the edge.">
<polygon fill="#bfbfbf" stroke="black" points="0,-66.5 0,-85.5 150,-85.5 150,-66.5 0,-66.5"/>
<text text-anchor="middle" x="75" y="-73.5" font-family="Helvetica,sans-Serif" font-size="10.00">T_MESH::Edge::dihedralAngle</text>
</a>
</g>
</g>
<!-- Node2 -->
<g id="node2" class="node">
<title>Node2</title>
<g id="a_node2"><a xlink:href="../../d2/d8e/class_t___m_e_s_h_1_1_point.html#a7d19f5b5b98c1999de03da56eab91478" target="_top" xlink:title=" ">
<polygon fill="white" stroke="black" points="195.5,-126.5 195.5,-145.5 325.5,-145.5 325.5,-126.5 195.5,-126.5"/>
<text text-anchor="middle" x="260.5" y="-133.5" font-family="Helvetica,sans-Serif" font-size="10.00">T_MESH::Point::getAngle</text>
</a>
</g>
</g>
<!-- Node1&#45;&gt;Node2 -->
<g id="edge1" class="edge">
<title>Node1&#45;&gt;Node2</title>
<path fill="none" stroke="midnightblue" d="M99.36,-85.51C121.46,-94.32 155.67,-107.46 186,-117 193.69,-119.42 201.89,-121.77 209.94,-123.94"/>
<polygon fill="midnightblue" stroke="midnightblue" points="209.05,-127.32 219.61,-126.49 210.84,-120.56 209.05,-127.32"/>
</g>
<!-- Node4 -->
<g id="node4" class="node">
<title>Node4</title>
<g id="a_node4"><a xlink:href="../../d8/d6e/class_t___m_e_s_h_1_1_triangle.html#a8691b38a70ff623515691c89945ddd64" target="_top" xlink:title="Return a normal vector with direction (v1&#45;v2) cross (v2&#45;v3). If triangle is degenerate return a null ...">
<polygon fill="white" stroke="black" points="186,-88.5 186,-107.5 335,-107.5 335,-88.5 186,-88.5"/>
<text text-anchor="middle" x="260.5" y="-95.5" font-family="Helvetica,sans-Serif" font-size="10.00">T_MESH::Triangle::getNormal</text>
</a>
</g>
</g>
<!-- Node1&#45;&gt;Node4 -->
<g id="edge3" class="edge">
<title>Node1&#45;&gt;Node4</title>
<path fill="none" stroke="midnightblue" d="M150.11,-84.88C158.54,-85.9 167.19,-86.93 175.74,-87.96"/>
<polygon fill="midnightblue" stroke="midnightblue" points="175.37,-91.44 185.71,-89.15 176.2,-84.49 175.37,-91.44"/>
</g>
<!-- Node9 -->
<g id="node9" class="node">
<title>Node9</title>
<g id="a_node9"><a xlink:href="../../d2/d8e/class_t___m_e_s_h_1_1_point.html#a0ac3250c48d7be19c5184d15366c8b85" target="_top" xlink:title="TRUE if vector is (0,0,0)">
<polygon fill="white" stroke="black" points="202.5,-0.5 202.5,-19.5 318.5,-19.5 318.5,-0.5 202.5,-0.5"/>
<text text-anchor="middle" x="260.5" y="-7.5" font-family="Helvetica,sans-Serif" font-size="10.00">T_MESH::Point::isNull</text>
</a>
</g>
</g>
<!-- Node1&#45;&gt;Node9 -->
<g id="edge11" class="edge">
<title>Node1&#45;&gt;Node9</title>
<path fill="none" stroke="midnightblue" d="M95.92,-66.41C117.68,-56.18 153.76,-39.98 186,-29 193.11,-26.58 200.7,-24.29 208.21,-22.2"/>
<polygon fill="midnightblue" stroke="midnightblue" points="209.22,-25.55 217.97,-19.57 207.4,-18.79 209.22,-25.55"/>
</g>
<!-- Node10 -->
<g id="node10" class="node">
<title>Node10</title>
<g id="a_node10"><a xlink:href="../../d8/d6e/class_t___m_e_s_h_1_1_triangle.html#a5332cb4780fa56bdd9e95b250defc82c" target="_top" xlink:title="Triangle&#39;s vertex opposite to &#39;e&#39;. NULL if &#39;e&#39; is not an edge of the triangle.">
<polygon fill="white" stroke="black" points="190.5,-39 190.5,-69 330.5,-69 330.5,-39 190.5,-39"/>
<text text-anchor="start" x="198.5" y="-57" font-family="Helvetica,sans-Serif" font-size="10.00">T_MESH::Triangle::opposite</text>
<text text-anchor="middle" x="260.5" y="-46" font-family="Helvetica,sans-Serif" font-size="10.00">Vertex</text>
</a>
</g>
</g>
<!-- Node1&#45;&gt;Node10 -->
<g id="edge12" class="edge">
<title>Node1&#45;&gt;Node10</title>
<path fill="none" stroke="midnightblue" d="M150.11,-67.12C160.1,-65.92 170.39,-64.68 180.47,-63.48"/>
<polygon fill="midnightblue" stroke="midnightblue" points="180.95,-66.94 190.46,-62.28 180.11,-59.99 180.95,-66.94"/>
</g>
<!-- Node3 -->
<g id="node3" class="node">
<title>Node3</title>
<g id="a_node3"><a xlink:href="../../d2/d8e/class_t___m_e_s_h_1_1_point.html#a61ce9f22ddfe41f036566d4a2f920ac4" target="_top" xlink:title="Distance from origin.">
<polygon fill="white" stroke="black" points="371,-126.5 371,-145.5 489,-145.5 489,-126.5 371,-126.5"/>
<text text-anchor="middle" x="430" y="-133.5" font-family="Helvetica,sans-Serif" font-size="10.00">T_MESH::Point::length</text>
</a>
</g>
</g>
<!-- Node2&#45;&gt;Node3 -->
<g id="edge2" class="edge">
<title>Node2&#45;&gt;Node3</title>
<path fill="none" stroke="midnightblue" d="M325.78,-136C337.27,-136 349.27,-136 360.87,-136"/>
<polygon fill="midnightblue" stroke="midnightblue" points="360.92,-139.5 370.92,-136 360.92,-132.5 360.92,-139.5"/>
</g>
<!-- Node4&#45;&gt;Node3 -->
<g id="edge4" class="edge">
<title>Node4&#45;&gt;Node3</title>
<path fill="none" stroke="midnightblue" d="M303.77,-107.59C326.07,-112.65 353.62,-118.9 377.2,-124.25"/>
<polygon fill="midnightblue" stroke="midnightblue" points="376.51,-127.68 387.04,-126.48 378.06,-120.85 376.51,-127.68"/>
</g>
<!-- Node5 -->
<g id="node5" class="node">
<title>Node5</title>
<g id="a_node5"><a xlink:href="../../d8/d6e/class_t___m_e_s_h_1_1_triangle.html#aa7b9f783f2e4339083f46d25d3eecf68" target="_top" xlink:title="First vertex.">
<polygon fill="white" stroke="black" points="373,-88.5 373,-107.5 487,-107.5 487,-88.5 373,-88.5"/>
<text text-anchor="middle" x="430" y="-95.5" font-family="Helvetica,sans-Serif" font-size="10.00">T_MESH::Triangle::v1</text>
</a>
</g>
</g>
<!-- Node4&#45;&gt;Node5 -->
<g id="edge5" class="edge">
<title>Node4&#45;&gt;Node5</title>
<path fill="none" stroke="midnightblue" d="M335.46,-98C344.46,-98 353.62,-98 362.51,-98"/>
<polygon fill="midnightblue" stroke="midnightblue" points="362.8,-101.5 372.8,-98 362.8,-94.5 362.8,-101.5"/>
</g>
<!-- Node7 -->
<g id="node7" class="node">
<title>Node7</title>
<g id="a_node7"><a xlink:href="../../d8/d6e/class_t___m_e_s_h_1_1_triangle.html#a1bf6a231440a3c73a931c1cfccfee574" target="_top" xlink:title="Second vertex.">
<polygon fill="white" stroke="black" points="373,-50.5 373,-69.5 487,-69.5 487,-50.5 373,-50.5"/>
<text text-anchor="middle" x="430" y="-57.5" font-family="Helvetica,sans-Serif" font-size="10.00">T_MESH::Triangle::v2</text>
</a>
</g>
</g>
<!-- Node4&#45;&gt;Node7 -->
<g id="edge7" class="edge">
<title>Node4&#45;&gt;Node7</title>
<path fill="none" stroke="midnightblue" d="M303.77,-88.41C326.07,-83.35 353.62,-77.1 377.2,-71.75"/>
<polygon fill="midnightblue" stroke="midnightblue" points="378.06,-75.15 387.04,-69.52 376.51,-68.32 378.06,-75.15"/>
</g>
<!-- Node8 -->
<g id="node8" class="node">
<title>Node8</title>
<g id="a_node8"><a xlink:href="../../d8/d6e/class_t___m_e_s_h_1_1_triangle.html#a0c4c2a2ba6b0c975aa3d260f00785e8f" target="_top" xlink:title="Third vertex.">
<polygon fill="white" stroke="black" points="373,-12.5 373,-31.5 487,-31.5 487,-12.5 373,-12.5"/>
<text text-anchor="middle" x="430" y="-19.5" font-family="Helvetica,sans-Serif" font-size="10.00">T_MESH::Triangle::v3</text>
</a>
</g>
</g>
<!-- Node4&#45;&gt;Node8 -->
<g id="edge9" class="edge">
<title>Node4&#45;&gt;Node8</title>
<path fill="none" stroke="midnightblue" d="M313.57,-88.45C321.04,-85.98 328.41,-82.88 335,-79 355.04,-67.19 351.34,-53.45 371,-41 374.19,-38.98 377.61,-37.16 381.14,-35.51"/>
<polygon fill="midnightblue" stroke="midnightblue" points="382.75,-38.63 390.65,-31.57 380.07,-32.17 382.75,-38.63"/>
</g>
<!-- Node6 -->
<g id="node6" class="node">
<title>Node6</title>
<g id="a_node6"><a xlink:href="../../da/da2/class_t___m_e_s_h_1_1_edge.html#a560eca8895471f987bd3228b13c40052" target="_top" xlink:title="Vertex shared with edge &#39;b&#39;. NULL if this and &#39;b&#39; do not share any vertex.">
<polygon fill="white" stroke="black" points="525,-50.5 525,-69.5 682,-69.5 682,-50.5 525,-50.5"/>
<text text-anchor="middle" x="603.5" y="-57.5" font-family="Helvetica,sans-Serif" font-size="10.00">T_MESH::Edge::commonVertex</text>
</a>
</g>
</g>
<!-- Node5&#45;&gt;Node6 -->
<g id="edge6" class="edge">
<title>Node5&#45;&gt;Node6</title>
<path fill="none" stroke="midnightblue" d="M474.28,-88.41C497.11,-83.35 525.32,-77.1 549.46,-71.75"/>
<polygon fill="midnightblue" stroke="midnightblue" points="550.53,-75.1 559.53,-69.52 549.01,-68.27 550.53,-75.1"/>
</g>
<!-- Node7&#45;&gt;Node6 -->
<g id="edge8" class="edge">
<title>Node7&#45;&gt;Node6</title>
<path fill="none" stroke="midnightblue" d="M487.16,-60C495.98,-60 505.28,-60 514.61,-60"/>
<polygon fill="midnightblue" stroke="midnightblue" points="514.74,-63.5 524.74,-60 514.74,-56.5 514.74,-63.5"/>
</g>
<!-- Node8&#45;&gt;Node6 -->
<g id="edge10" class="edge">
<title>Node8&#45;&gt;Node6</title>
<path fill="none" stroke="midnightblue" d="M474.28,-31.59C497.11,-36.65 525.32,-42.9 549.46,-48.25"/>
<polygon fill="midnightblue" stroke="midnightblue" points="549.01,-51.73 559.53,-50.48 550.53,-44.9 549.01,-51.73"/>
</g>
<!-- Node10&#45;&gt;Node5 -->
<g id="edge13" class="edge">
<title>Node10&#45;&gt;Node5</title>
<path fill="none" stroke="midnightblue" d="M318.68,-69.02C339.67,-74.54 363.16,-80.7 383.05,-85.93"/>
<polygon fill="midnightblue" stroke="midnightblue" points="382.23,-89.33 392.79,-88.49 384.01,-82.56 382.23,-89.33"/>
</g>
<!-- Node10&#45;&gt;Node7 -->
<g id="edge14" class="edge">
<title>Node10&#45;&gt;Node7</title>
<path fill="none" stroke="midnightblue" d="M330.6,-56.48C341.25,-56.86 352.23,-57.25 362.82,-57.63"/>
<polygon fill="midnightblue" stroke="midnightblue" points="362.71,-61.13 372.82,-57.99 362.96,-54.13 362.71,-61.13"/>
</g>
<!-- Node10&#45;&gt;Node8 -->
<g id="edge15" class="edge">
<title>Node10&#45;&gt;Node8</title>
<path fill="none" stroke="midnightblue" d="M330.6,-40.8C343.47,-38.34 356.81,-35.79 369.37,-33.39"/>
<polygon fill="midnightblue" stroke="midnightblue" points="370.08,-36.82 379.25,-31.51 368.77,-29.94 370.08,-36.82"/>
</g>
</g>
</svg>
