<?xml version="1.0" encoding="UTF-8" standalone="no"?>
<!DOCTYPE svg PUBLIC "-//W3C//DTD SVG 1.1//EN"
 "http://www.w3.org/Graphics/SVG/1.1/DTD/svg11.dtd">
<!-- Generated by graphviz version 2.44.1 (0)
 -->
<!-- Title: T_MESH::Edge::overlaps Pages: 1 -->
<svg width="678pt" height="229pt"
 viewBox="0.00 0.00 678.00 228.70" xmlns="http://www.w3.org/2000/svg" xmlns:xlink="http://www.w3.org/1999/xlink">
<g id="graph0" class="graph" transform="scale(1 1) rotate(0) translate(4 224.7)">
<title>T_MESH::Edge::overlaps</title>
<polygon fill="white" stroke="transparent" points="-4,4 -4,-224.7 674,-224.7 674,4 -4,4"/>
<!-- Node1 -->
<g id="node1" class="node">
<title>Node1</title>
<g id="a_node1"><a xlink:title="Returns TRUE if edge is not on boundary and its two incident triangles overlap.">
<polygon fill="#bfbfbf" stroke="black" points="0,-94.2 0,-113.2 128,-113.2 128,-94.2 0,-94.2"/>
<text text-anchor="middle" x="64" y="-101.2" font-family="Helvetica,sans-Serif" font-size="10.00">T_MESH::Edge::overlaps</text>
</a>
</g>
</g>
<!-- Node2 -->
<g id="node2" class="node">
<title>Node2</title>
<g id="a_node2"><a xlink:href="../../d2/d8e/class_t___m_e_s_h_1_1_point.html#a16ed7eb5cd98505d86668c4eb0590645" target="_top" xlink:title="Exact orientation test.">
<polygon fill="white" stroke="black" points="164,-201.2 164,-220.2 327,-220.2 327,-201.2 164,-201.2"/>
<text text-anchor="middle" x="245.5" y="-208.2" font-family="Helvetica,sans-Serif" font-size="10.00">T_MESH::Point::exactOrientation</text>
</a>
</g>
</g>
<!-- Node1&#45;&gt;Node2 -->
<g id="edge1" class="edge">
<title>Node1&#45;&gt;Node2</title>
<path fill="none" stroke="midnightblue" d="M72.88,-113.35C88.35,-131.61 124.62,-171.24 164,-191.7 168.5,-194.04 173.3,-196.1 178.22,-197.9"/>
<polygon fill="midnightblue" stroke="midnightblue" points="177.19,-201.25 187.79,-201.07 179.4,-194.6 177.19,-201.25"/>
</g>
<!-- Node5 -->
<g id="node5" class="node">
<title>Node5</title>
<g id="a_node5"><a xlink:href="../../d2/d8e/class_t___m_e_s_h_1_1_point.html#a882a22d815f18d8327787012a120637c" target="_top" xlink:title="Exact planar side test.">
<polygon fill="white" stroke="black" points="175,-151.7 175,-181.7 316,-181.7 316,-151.7 175,-151.7"/>
<text text-anchor="start" x="183" y="-169.7" font-family="Helvetica,sans-Serif" font-size="10.00">T_MESH::Point::exactSame</text>
<text text-anchor="middle" x="245.5" y="-158.7" font-family="Helvetica,sans-Serif" font-size="10.00">SideOnPlane</text>
</a>
</g>
</g>
<!-- Node1&#45;&gt;Node5 -->
<g id="edge4" class="edge">
<title>Node1&#45;&gt;Node5</title>
<path fill="none" stroke="midnightblue" d="M92.26,-113.27C118.57,-122.5 159.1,-136.73 191.73,-148.18"/>
<polygon fill="midnightblue" stroke="midnightblue" points="190.98,-151.62 201.58,-151.63 193.3,-145.02 190.98,-151.62"/>
</g>
<!-- Node8 -->
<g id="node8" class="node">
<title>Node8</title>
<g id="a_node8"><a xlink:href="../../d8/d6e/class_t___m_e_s_h_1_1_triangle.html#a5332cb4780fa56bdd9e95b250defc82c" target="_top" xlink:title="Triangle&#39;s vertex opposite to &#39;e&#39;. NULL if &#39;e&#39; is not an edge of the triangle.">
<polygon fill="white" stroke="black" points="175.5,-25.7 175.5,-55.7 315.5,-55.7 315.5,-25.7 175.5,-25.7"/>
<text text-anchor="start" x="183.5" y="-43.7" font-family="Helvetica,sans-Serif" font-size="10.00">T_MESH::Triangle::opposite</text>
<text text-anchor="middle" x="245.5" y="-32.7" font-family="Helvetica,sans-Serif" font-size="10.00">Vertex</text>
</a>
</g>
</g>
<!-- Node1&#45;&gt;Node8 -->
<g id="edge7" class="edge">
<title>Node1&#45;&gt;Node8</title>
<path fill="none" stroke="midnightblue" d="M92.26,-94.13C118.57,-84.9 159.1,-70.67 191.73,-59.22"/>
<polygon fill="midnightblue" stroke="midnightblue" points="193.3,-62.38 201.58,-55.76 190.98,-55.77 193.3,-62.38"/>
</g>
<!-- Node9 -->
<g id="node9" class="node">
<title>Node9</title>
<g id="a_node9"><a xlink:href="../../d8/d6e/class_t___m_e_s_h_1_1_triangle.html#aa7b9f783f2e4339083f46d25d3eecf68" target="_top" xlink:title="First vertex.">
<polygon fill="white" stroke="black" points="363,-88.2 363,-107.2 477,-107.2 477,-88.2 363,-88.2"/>
<text text-anchor="middle" x="420" y="-95.2" font-family="Helvetica,sans-Serif" font-size="10.00">T_MESH::Triangle::v1</text>
</a>
</g>
</g>
<!-- Node1&#45;&gt;Node9 -->
<g id="edge14" class="edge">
<title>Node1&#45;&gt;Node9</title>
<path fill="none" stroke="midnightblue" d="M128.29,-102.63C191.62,-101.55 288.64,-99.91 352.94,-98.82"/>
<polygon fill="midnightblue" stroke="midnightblue" points="353.02,-102.32 362.96,-98.65 352.91,-95.32 353.02,-102.32"/>
</g>
<!-- Node11 -->
<g id="node11" class="node">
<title>Node11</title>
<g id="a_node11"><a xlink:href="../../d8/d6e/class_t___m_e_s_h_1_1_triangle.html#a1bf6a231440a3c73a931c1cfccfee574" target="_top" xlink:title="Second vertex.">
<polygon fill="white" stroke="black" points="363,-50.2 363,-69.2 477,-69.2 477,-50.2 363,-50.2"/>
<text text-anchor="middle" x="420" y="-57.2" font-family="Helvetica,sans-Serif" font-size="10.00">T_MESH::Triangle::v2</text>
</a>
</g>
</g>
<!-- Node1&#45;&gt;Node11 -->
<g id="edge15" class="edge">
<title>Node1&#45;&gt;Node11</title>
<path fill="none" stroke="midnightblue" d="M128.29,-95.83C191.62,-87.96 288.64,-75.9 352.94,-67.91"/>
<polygon fill="midnightblue" stroke="midnightblue" points="353.47,-71.37 362.96,-66.66 352.61,-64.42 353.47,-71.37"/>
</g>
<!-- Node12 -->
<g id="node12" class="node">
<title>Node12</title>
<g id="a_node12"><a xlink:href="../../d8/d6e/class_t___m_e_s_h_1_1_triangle.html#a0c4c2a2ba6b0c975aa3d260f00785e8f" target="_top" xlink:title="Third vertex.">
<polygon fill="white" stroke="black" points="363,-12.2 363,-31.2 477,-31.2 477,-12.2 363,-12.2"/>
<text text-anchor="middle" x="420" y="-19.2" font-family="Helvetica,sans-Serif" font-size="10.00">T_MESH::Triangle::v3</text>
</a>
</g>
</g>
<!-- Node1&#45;&gt;Node12 -->
<g id="edge16" class="edge">
<title>Node1&#45;&gt;Node12</title>
<path fill="none" stroke="midnightblue" d="M72.07,-93.91C86.66,-74.68 122.25,-32.44 164,-16.7 231.59,8.78 316.58,-0.24 369.35,-10.14"/>
<polygon fill="midnightblue" stroke="midnightblue" points="368.98,-13.63 379.46,-12.12 370.32,-6.77 368.98,-13.63"/>
</g>
<!-- Node3 -->
<g id="node3" class="node">
<title>Node3</title>
<g id="a_node3"><a xlink:href="../../de/df9/namespace_t___m_e_s_h.html#a31d1470b87fab8f85b54af905e25d15a" target="_top" xlink:title=" ">
<polygon fill="white" stroke="black" points="370,-201.2 370,-220.2 470,-220.2 470,-201.2 370,-201.2"/>
<text text-anchor="middle" x="420" y="-208.2" font-family="Helvetica,sans-Serif" font-size="10.00">T_MESH::orient3D</text>
</a>
</g>
</g>
<!-- Node2&#45;&gt;Node3 -->
<g id="edge2" class="edge">
<title>Node2&#45;&gt;Node3</title>
<path fill="none" stroke="midnightblue" d="M327.19,-210.7C338.11,-210.7 349.15,-210.7 359.6,-210.7"/>
<polygon fill="midnightblue" stroke="midnightblue" points="359.83,-214.2 369.83,-210.7 359.83,-207.2 359.83,-214.2"/>
</g>
<!-- Node4 -->
<g id="node4" class="node">
<title>Node4</title>
<g id="a_node4"><a xlink:href="../../de/df9/namespace_t___m_e_s_h.html#ab2a541476dd63dc930853bddc4bf6969" target="_top" xlink:title=" ">
<polygon fill="white" stroke="black" points="540,-201.2 540,-220.2 643,-220.2 643,-201.2 540,-201.2"/>
<text text-anchor="middle" x="591.5" y="-208.2" font-family="Helvetica,sans-Serif" font-size="10.00">T_MESH::_orient3d</text>
</a>
</g>
</g>
<!-- Node3&#45;&gt;Node4 -->
<g id="edge3" class="edge">
<title>Node3&#45;&gt;Node4</title>
<path fill="none" stroke="midnightblue" d="M470.03,-210.7C488.68,-210.7 510.15,-210.7 529.76,-210.7"/>
<polygon fill="midnightblue" stroke="midnightblue" points="529.82,-214.2 539.82,-210.7 529.82,-207.2 529.82,-214.2"/>
</g>
<!-- Node6 -->
<g id="node6" class="node">
<title>Node6</title>
<g id="a_node6"><a xlink:href="../../de/df9/namespace_t___m_e_s_h.html#a5dcbe262a73a0769e3f63025edf3d25d" target="_top" xlink:title="Orientation predicates on PM_Rationals.">
<polygon fill="white" stroke="black" points="370,-157.2 370,-176.2 470,-176.2 470,-157.2 370,-157.2"/>
<text text-anchor="middle" x="420" y="-164.2" font-family="Helvetica,sans-Serif" font-size="10.00">T_MESH::orient2D</text>
</a>
</g>
</g>
<!-- Node5&#45;&gt;Node6 -->
<g id="edge5" class="edge">
<title>Node5&#45;&gt;Node6</title>
<path fill="none" stroke="midnightblue" d="M316.17,-166.7C330.61,-166.7 345.7,-166.7 359.74,-166.7"/>
<polygon fill="midnightblue" stroke="midnightblue" points="359.74,-170.2 369.74,-166.7 359.74,-163.2 359.74,-170.2"/>
</g>
<!-- Node7 -->
<g id="node7" class="node">
<title>Node7</title>
<g id="a_node7"><a xlink:href="../../de/df9/namespace_t___m_e_s_h.html#a2bad1f974ad8c908dd703494055080c1" target="_top" xlink:title="Orientation predicates using filtering on doubles.">
<polygon fill="white" stroke="black" points="540,-157.2 540,-176.2 643,-176.2 643,-157.2 540,-157.2"/>
<text text-anchor="middle" x="591.5" y="-164.2" font-family="Helvetica,sans-Serif" font-size="10.00">T_MESH::_orient2d</text>
</a>
</g>
</g>
<!-- Node6&#45;&gt;Node7 -->
<g id="edge6" class="edge">
<title>Node6&#45;&gt;Node7</title>
<path fill="none" stroke="midnightblue" d="M470.03,-166.7C488.68,-166.7 510.15,-166.7 529.76,-166.7"/>
<polygon fill="midnightblue" stroke="midnightblue" points="529.82,-170.2 539.82,-166.7 529.82,-163.2 529.82,-170.2"/>
</g>
<!-- Node8&#45;&gt;Node9 -->
<g id="edge8" class="edge">
<title>Node8&#45;&gt;Node9</title>
<path fill="none" stroke="midnightblue" d="M292.27,-55.82C319.8,-64.92 354.44,-76.37 380.54,-84.99"/>
<polygon fill="midnightblue" stroke="midnightblue" points="379.5,-88.33 390.09,-88.15 381.7,-81.69 379.5,-88.33"/>
</g>
<!-- Node8&#45;&gt;Node11 -->
<g id="edge10" class="edge">
<title>Node8&#45;&gt;Node11</title>
<path fill="none" stroke="midnightblue" d="M315.67,-48.32C327.9,-49.66 340.6,-51.06 352.75,-52.4"/>
<polygon fill="midnightblue" stroke="midnightblue" points="352.48,-55.89 362.8,-53.51 353.24,-48.93 352.48,-55.89"/>
</g>
<!-- Node8&#45;&gt;Node12 -->
<g id="edge12" class="edge">
<title>Node8&#45;&gt;Node12</title>
<path fill="none" stroke="midnightblue" d="M315.67,-33.08C327.9,-31.73 340.6,-30.33 352.75,-29"/>
<polygon fill="midnightblue" stroke="midnightblue" points="353.24,-32.46 362.8,-27.89 352.48,-25.51 353.24,-32.46"/>
</g>
<!-- Node10 -->
<g id="node10" class="node">
<title>Node10</title>
<g id="a_node10"><a xlink:href="../../da/da2/class_t___m_e_s_h_1_1_edge.html#a560eca8895471f987bd3228b13c40052" target="_top" xlink:title="Vertex shared with edge &#39;b&#39;. NULL if this and &#39;b&#39; do not share any vertex.">
<polygon fill="white" stroke="black" points="513,-50.2 513,-69.2 670,-69.2 670,-50.2 513,-50.2"/>
<text text-anchor="middle" x="591.5" y="-57.2" font-family="Helvetica,sans-Serif" font-size="10.00">T_MESH::Edge::commonVertex</text>
</a>
</g>
</g>
<!-- Node9&#45;&gt;Node10 -->
<g id="edge9" class="edge">
<title>Node9&#45;&gt;Node10</title>
<path fill="none" stroke="midnightblue" d="M463.77,-88.11C486.34,-83.05 514.22,-76.8 538.08,-71.45"/>
<polygon fill="midnightblue" stroke="midnightblue" points="539.04,-74.82 548.04,-69.22 537.51,-67.99 539.04,-74.82"/>
</g>
<!-- Node11&#45;&gt;Node10 -->
<g id="edge11" class="edge">
<title>Node11&#45;&gt;Node10</title>
<path fill="none" stroke="midnightblue" d="M477.44,-59.7C485.61,-59.7 494.17,-59.7 502.78,-59.7"/>
<polygon fill="midnightblue" stroke="midnightblue" points="502.88,-63.2 512.88,-59.7 502.88,-56.2 502.88,-63.2"/>
</g>
<!-- Node12&#45;&gt;Node10 -->
<g id="edge13" class="edge">
<title>Node12&#45;&gt;Node10</title>
<path fill="none" stroke="midnightblue" d="M463.77,-31.29C486.34,-36.35 514.22,-42.6 538.08,-47.95"/>
<polygon fill="midnightblue" stroke="midnightblue" points="537.51,-51.41 548.04,-50.18 539.04,-44.58 537.51,-51.41"/>
</g>
</g>
</svg>
