<?xml version="1.0" encoding="UTF-8" standalone="no"?>
<!DOCTYPE svg PUBLIC "-//W3C//DTD SVG 1.1//EN"
 "http://www.w3.org/Graphics/SVG/1.1/DTD/svg11.dtd">
<!-- Generated by graphviz version 2.44.1 (0)
 -->
<!-- Title: T_MESH::Edge::collapse Pages: 1 -->
<svg width="1087pt" height="443pt"
 viewBox="0.00 0.00 1087.00 442.88" xmlns="http://www.w3.org/2000/svg" xmlns:xlink="http://www.w3.org/1999/xlink">
<g id="graph0" class="graph" transform="scale(1 1) rotate(0) translate(4 438.88)">
<title>T_MESH::Edge::collapse</title>
<polygon fill="white" stroke="transparent" points="-4,4 -4,-438.88 1083,-438.88 1083,4 -4,4"/>
<!-- Node1 -->
<g id="node1" class="node">
<title>Node1</title>
<g id="a_node1"><a xlink:title="This method collapses the edge and updates the connectivity of the neighboring elements consistently.">
<polygon fill="#bfbfbf" stroke="black" points="0,-183.5 0,-202.5 128,-202.5 128,-183.5 0,-183.5"/>
<text text-anchor="middle" x="64" y="-190.5" font-family="Helvetica,sans-Serif" font-size="10.00">T_MESH::Edge::collapse</text>
</a>
</g>
</g>
<!-- Node2 -->
<g id="node2" class="node">
<title>Node2</title>
<g id="a_node2"><a xlink:href="../../da/da2/class_t___m_e_s_h_1_1_edge.html#a0f7812fabdd71f7b233275da3db9718b" target="_top" xlink:title="Edge collapse.">
<polygon fill="white" stroke="black" points="164,-202.5 164,-221.5 316,-221.5 316,-202.5 164,-202.5"/>
<text text-anchor="middle" x="240" y="-209.5" font-family="Helvetica,sans-Serif" font-size="10.00">T_MESH::Edge::collapseOnV1</text>
</a>
</g>
</g>
<!-- Node1&#45;&gt;Node2 -->
<g id="edge1" class="edge">
<title>Node1&#45;&gt;Node2</title>
<path fill="none" stroke="midnightblue" d="M128.31,-199.91C136.62,-200.82 145.24,-201.76 153.84,-202.7"/>
<polygon fill="midnightblue" stroke="midnightblue" points="153.59,-206.19 163.91,-203.8 154.35,-199.24 153.59,-206.19"/>
</g>
<!-- Node27 -->
<g id="node27" class="node">
<title>Node27</title>
<g id="a_node27"><a xlink:href="../../d2/d8e/class_t___m_e_s_h_1_1_point.html#a5297bdff57822d8539beeb21eaccebdc" target="_top" xlink:title="Set the coordinates to (a,b,c).">
<polygon fill="white" stroke="black" points="175.5,-164.5 175.5,-183.5 304.5,-183.5 304.5,-164.5 175.5,-164.5"/>
<text text-anchor="middle" x="240" y="-171.5" font-family="Helvetica,sans-Serif" font-size="10.00">T_MESH::Point::setValue</text>
</a>
</g>
</g>
<!-- Node1&#45;&gt;Node27 -->
<g id="edge34" class="edge">
<title>Node1&#45;&gt;Node27</title>
<path fill="none" stroke="midnightblue" d="M128.31,-186.09C140.3,-184.78 152.95,-183.4 165.23,-182.05"/>
<polygon fill="midnightblue" stroke="midnightblue" points="165.88,-185.5 175.45,-180.94 165.12,-178.55 165.88,-185.5"/>
</g>
<!-- Node3 -->
<g id="node3" class="node">
<title>Node3</title>
<g id="a_node3"><a xlink:href="../../d5/d7f/class_t___m_e_s_h_1_1_vertex.html#af74a29c7daa03825b0156bfe7f64052a" target="_top" xlink:title="Returns the edge connecting this vertex to &#39;v&#39;. NULL if such an edge does not exist.">
<polygon fill="white" stroke="black" points="367,-354.5 367,-373.5 500,-373.5 500,-354.5 367,-354.5"/>
<text text-anchor="middle" x="433.5" y="-361.5" font-family="Helvetica,sans-Serif" font-size="10.00">T_MESH::Vertex::getEdge</text>
</a>
</g>
</g>
<!-- Node2&#45;&gt;Node3 -->
<g id="edge2" class="edge">
<title>Node2&#45;&gt;Node3</title>
<path fill="none" stroke="midnightblue" d="M246.64,-221.67C261.03,-245.5 301.58,-307.46 352,-340 358.88,-344.44 366.62,-348.09 374.5,-351.08"/>
<polygon fill="midnightblue" stroke="midnightblue" points="373.55,-354.45 384.15,-354.4 375.84,-347.83 373.55,-354.45"/>
</g>
<!-- Node4 -->
<g id="node4" class="node">
<title>Node4</title>
<g id="a_node4"><a xlink:href="../../da/da2/class_t___m_e_s_h_1_1_edge.html#aef981891343c94489f00b060bd654b6c" target="_top" xlink:title="Vertex opposite to &#39;v&#39;. NULL if &#39;v&#39; is not a vertex of the edge.">
<polygon fill="white" stroke="black" points="748.5,-392.5 748.5,-411.5 904.5,-411.5 904.5,-392.5 748.5,-392.5"/>
<text text-anchor="middle" x="826.5" y="-399.5" font-family="Helvetica,sans-Serif" font-size="10.00">T_MESH::Edge::oppositeVertex</text>
</a>
</g>
</g>
<!-- Node2&#45;&gt;Node4 -->
<g id="edge28" class="edge">
<title>Node2&#45;&gt;Node4</title>
<path fill="none" stroke="midnightblue" d="M243.8,-221.7C253.15,-252.09 286.49,-345.7 352,-383 489.17,-461.1 686.68,-432.81 777.05,-413.73"/>
<polygon fill="midnightblue" stroke="midnightblue" points="777.98,-417.11 787.01,-411.57 776.5,-410.27 777.98,-417.11"/>
</g>
<!-- Node5 -->
<g id="node5" class="node">
<title>Node5</title>
<g id="a_node5"><a xlink:href="../../d5/d7f/class_t___m_e_s_h_1_1_vertex.html#a66b49df1416ddcee6be0e1abe3aadda9" target="_top" xlink:title="List of incident edges.">
<polygon fill="white" stroke="black" points="575,-278.5 575,-297.5 685,-297.5 685,-278.5 575,-278.5"/>
<text text-anchor="middle" x="630" y="-285.5" font-family="Helvetica,sans-Serif" font-size="10.00">T_MESH::Vertex::VE</text>
</a>
</g>
</g>
<!-- Node2&#45;&gt;Node5 -->
<g id="edge33" class="edge">
<title>Node2&#45;&gt;Node5</title>
<path fill="none" stroke="midnightblue" d="M254.95,-221.55C275.26,-234.88 314.64,-258.6 352,-269 422.82,-288.71 507.57,-291.68 564.51,-290.86"/>
<polygon fill="midnightblue" stroke="midnightblue" points="564.88,-294.35 574.81,-290.66 564.75,-287.35 564.88,-294.35"/>
</g>
<!-- Node15 -->
<g id="node15" class="node">
<title>Node15</title>
<g id="a_node15"><a xlink:href="../../d5/d7f/class_t___m_e_s_h_1_1_vertex.html#ac6001e2789a05af164867f6c1dd934f9" target="_top" xlink:title="TRUE iff vertex is on boundary.">
<polygon fill="white" stroke="black" points="551,-316.5 551,-335.5 709,-335.5 709,-316.5 551,-316.5"/>
<text text-anchor="middle" x="630" y="-323.5" font-family="Helvetica,sans-Serif" font-size="10.00">T_MESH::Vertex::isOnBoundary</text>
</a>
</g>
</g>
<!-- Node2&#45;&gt;Node15 -->
<g id="edge15" class="edge">
<title>Node2&#45;&gt;Node15</title>
<path fill="none" stroke="midnightblue" d="M250.35,-221.51C268.25,-239.06 309.37,-276.25 352,-293 412.15,-316.64 484.86,-324.6 540.69,-326.81"/>
<polygon fill="midnightblue" stroke="midnightblue" points="540.79,-330.31 550.91,-327.15 541.03,-323.32 540.79,-330.31"/>
</g>
<!-- Node16 -->
<g id="node16" class="node">
<title>Node16</title>
<g id="a_node16"><a xlink:href="../../d8/d6e/class_t___m_e_s_h_1_1_triangle.html#a7233b095134d4402e88e988a225d65e5" target="_top" xlink:title="Edge next to &#39;e&#39; in the ordering or the triangle. NULL if &#39;e&#39; is not an edge of the triangle.">
<polygon fill="white" stroke="black" points="361,-240.5 361,-259.5 506,-259.5 506,-240.5 361,-240.5"/>
<text text-anchor="middle" x="433.5" y="-247.5" font-family="Helvetica,sans-Serif" font-size="10.00">T_MESH::Triangle::nextEdge</text>
</a>
</g>
</g>
<!-- Node2&#45;&gt;Node16 -->
<g id="edge19" class="edge">
<title>Node2&#45;&gt;Node16</title>
<path fill="none" stroke="midnightblue" d="M289.32,-221.59C315.16,-226.72 347.17,-233.07 374.36,-238.46"/>
<polygon fill="midnightblue" stroke="midnightblue" points="374.03,-241.97 384.52,-240.48 375.4,-235.1 374.03,-241.97"/>
</g>
<!-- Node17 -->
<g id="node17" class="node">
<title>Node17</title>
<g id="a_node17"><a xlink:href="../../da/da2/class_t___m_e_s_h_1_1_edge.html#a295cf6f1ac996ea5e760c2bbd590c513" target="_top" xlink:title="Incident triangle opposite to &#39;t&#39;. NULL if &#39;t&#39; is not incident to the edge.">
<polygon fill="white" stroke="black" points="352,-202.5 352,-221.5 515,-221.5 515,-202.5 352,-202.5"/>
<text text-anchor="middle" x="433.5" y="-209.5" font-family="Helvetica,sans-Serif" font-size="10.00">T_MESH::Edge::oppositeTriangle</text>
</a>
</g>
</g>
<!-- Node2&#45;&gt;Node17 -->
<g id="edge20" class="edge">
<title>Node2&#45;&gt;Node17</title>
<path fill="none" stroke="midnightblue" d="M316.14,-212C324.57,-212 333.23,-212 341.83,-212"/>
<polygon fill="midnightblue" stroke="midnightblue" points="341.89,-215.5 351.89,-212 341.89,-208.5 341.89,-215.5"/>
</g>
<!-- Node18 -->
<g id="node18" class="node">
<title>Node18</title>
<g id="a_node18"><a xlink:href="../../d8/d6e/class_t___m_e_s_h_1_1_triangle.html#a5332cb4780fa56bdd9e95b250defc82c" target="_top" xlink:title="Triangle&#39;s vertex opposite to &#39;e&#39;. NULL if &#39;e&#39; is not an edge of the triangle.">
<polygon fill="white" stroke="black" points="363.5,-153 363.5,-183 503.5,-183 503.5,-153 363.5,-153"/>
<text text-anchor="start" x="371.5" y="-171" font-family="Helvetica,sans-Serif" font-size="10.00">T_MESH::Triangle::opposite</text>
<text text-anchor="middle" x="433.5" y="-160" font-family="Helvetica,sans-Serif" font-size="10.00">Vertex</text>
</a>
</g>
</g>
<!-- Node2&#45;&gt;Node18 -->
<g id="edge21" class="edge">
<title>Node2&#45;&gt;Node18</title>
<path fill="none" stroke="midnightblue" d="M282.55,-202.45C304.31,-197.45 331.62,-191.18 356.96,-185.36"/>
<polygon fill="midnightblue" stroke="midnightblue" points="357.97,-188.72 366.93,-183.07 356.4,-181.89 357.97,-188.72"/>
</g>
<!-- Node23 -->
<g id="node23" class="node">
<title>Node23</title>
<g id="a_node23"><a xlink:href="../../d8/d6e/class_t___m_e_s_h_1_1_triangle.html#ae0d141fae436f3a96a8012288546ad49" target="_top" xlink:title="Edge preceeding &#39;e&#39; in the ordering or the triangle. NULL if &#39;e&#39; is not an edge of the triangle.">
<polygon fill="white" stroke="black" points="361,-114.5 361,-133.5 506,-133.5 506,-114.5 361,-114.5"/>
<text text-anchor="middle" x="433.5" y="-121.5" font-family="Helvetica,sans-Serif" font-size="10.00">T_MESH::Triangle::prevEdge</text>
</a>
</g>
</g>
<!-- Node2&#45;&gt;Node23 -->
<g id="edge29" class="edge">
<title>Node2&#45;&gt;Node23</title>
<path fill="none" stroke="midnightblue" d="M296.94,-202.47C303.67,-200 310.21,-196.9 316,-193 338.42,-177.91 329.55,-159.04 352,-144 355.73,-141.5 359.76,-139.31 363.94,-137.39"/>
<polygon fill="midnightblue" stroke="midnightblue" points="365.33,-140.6 373.3,-133.62 362.72,-134.11 365.33,-140.6"/>
</g>
<!-- Node24 -->
<g id="node24" class="node">
<title>Node24</title>
<g id="a_node24"><a xlink:href="../../d8/d6e/class_t___m_e_s_h_1_1_triangle.html#a4c2d4262f06232e3a7cd1a8bd1a0298b" target="_top" xlink:title="Replace edge &#39;a&#39; with edge &#39;b&#39; in the triangle and return TRUE. If &#39;a&#39; is not an edge of the triangle...">
<polygon fill="white" stroke="black" points="354.5,-76.5 354.5,-95.5 512.5,-95.5 512.5,-76.5 354.5,-76.5"/>
<text text-anchor="middle" x="433.5" y="-83.5" font-family="Helvetica,sans-Serif" font-size="10.00">T_MESH::Triangle::replaceEdge</text>
</a>
</g>
</g>
<!-- Node2&#45;&gt;Node24 -->
<g id="edge30" class="edge">
<title>Node2&#45;&gt;Node24</title>
<path fill="none" stroke="midnightblue" d="M300.94,-202.47C306.39,-199.98 311.54,-196.88 316,-193 347.9,-165.29 319.87,-132.45 352,-105 353.96,-103.33 356.04,-101.79 358.21,-100.39"/>
<polygon fill="midnightblue" stroke="midnightblue" points="359.9,-103.46 367,-95.6 356.55,-97.31 359.9,-103.46"/>
</g>
<!-- Node25 -->
<g id="node25" class="node">
<title>Node25</title>
<g id="a_node25"><a xlink:href="../../da/da2/class_t___m_e_s_h_1_1_edge.html#a96d7a013a37e724352108c9fac25bbf5" target="_top" xlink:title="Replace incident triangle &#39;a&#39; with &#39;b&#39; and return TRUE. If &#39;a&#39; is not incident to the edge return FAL...">
<polygon fill="white" stroke="black" points="354.5,-38.5 354.5,-57.5 512.5,-57.5 512.5,-38.5 354.5,-38.5"/>
<text text-anchor="middle" x="433.5" y="-45.5" font-family="Helvetica,sans-Serif" font-size="10.00">T_MESH::Edge::replaceTriangle</text>
</a>
</g>
</g>
<!-- Node2&#45;&gt;Node25 -->
<g id="edge31" class="edge">
<title>Node2&#45;&gt;Node25</title>
<path fill="none" stroke="midnightblue" d="M302.48,-202.42C307.44,-199.93 312.05,-196.83 316,-193 357.8,-152.44 309.87,-107.21 352,-67 353.48,-65.59 355.05,-64.27 356.68,-63.05"/>
<polygon fill="midnightblue" stroke="midnightblue" points="358.72,-65.91 365.38,-57.67 355.04,-59.95 358.72,-65.91"/>
</g>
<!-- Node26 -->
<g id="node26" class="node">
<title>Node26</title>
<g id="a_node26"><a xlink:href="../../da/da2/class_t___m_e_s_h_1_1_edge.html#a4ebfc7836cd37fa28b41e972511377f6" target="_top" xlink:title="Replace vertex &#39;a&#39; with vertex &#39;b&#39; in the edge and return TRUE. If &#39;a&#39; is not a vertex of the edge re...">
<polygon fill="white" stroke="black" points="358,-0.5 358,-19.5 509,-19.5 509,-0.5 358,-0.5"/>
<text text-anchor="middle" x="433.5" y="-7.5" font-family="Helvetica,sans-Serif" font-size="10.00">T_MESH::Edge::replaceVertex</text>
</a>
</g>
</g>
<!-- Node2&#45;&gt;Node26 -->
<g id="edge32" class="edge">
<title>Node2&#45;&gt;Node26</title>
<path fill="none" stroke="midnightblue" d="M303.1,-202.49C307.86,-199.98 312.26,-196.86 316,-193 367.92,-139.39 299.65,-82.18 352,-29 353.28,-27.7 354.63,-26.48 356.05,-25.34"/>
<polygon fill="midnightblue" stroke="midnightblue" points="358.32,-28.03 364.74,-19.61 354.47,-22.19 358.32,-28.03"/>
</g>
<!-- Node3&#45;&gt;Node4 -->
<g id="edge3" class="edge">
<title>Node3&#45;&gt;Node4</title>
<path fill="none" stroke="midnightblue" d="M500,-369.13C555.65,-373.63 637.63,-380.59 709,-388 718.8,-389.02 729.06,-390.15 739.25,-391.32"/>
<polygon fill="midnightblue" stroke="midnightblue" points="739.06,-394.82 749.4,-392.5 739.87,-387.87 739.06,-394.82"/>
</g>
<!-- Node3&#45;&gt;Node5 -->
<g id="edge4" class="edge">
<title>Node3&#45;&gt;Node5</title>
<path fill="none" stroke="midnightblue" d="M451.36,-354.3C473.58,-341.87 514.16,-320.32 551,-307 558.02,-304.46 565.51,-302.16 572.98,-300.09"/>
<polygon fill="midnightblue" stroke="midnightblue" points="573.95,-303.46 582.73,-297.52 572.17,-296.69 573.95,-303.46"/>
</g>
<!-- Node5&#45;&gt;Node4 -->
<g id="edge11" class="edge">
<title>Node5&#45;&gt;Node4</title>
<path fill="none" stroke="midnightblue" d="M685.14,-294.52C693.75,-297.36 702.08,-301.37 709,-307 737.98,-330.61 715.94,-359.5 745,-383 747.1,-384.7 749.33,-386.25 751.65,-387.67"/>
<polygon fill="midnightblue" stroke="midnightblue" points="750.53,-391.03 761.02,-392.49 753.73,-384.8 750.53,-391.03"/>
</g>
<!-- Node6 -->
<g id="node6" class="node">
<title>Node6</title>
<g id="a_node6"><a xlink:href="../../d3/d04/class_t___m_e_s_h_1_1_list.html#ae601a7e17364ce83f74ffcb6c64971ca" target="_top" xlink:title="Appends a new node storing &#39;d&#39; to the head. &#160;&#160;O(1).">
<polygon fill="white" stroke="black" points="756.5,-278.5 756.5,-297.5 896.5,-297.5 896.5,-278.5 756.5,-278.5"/>
<text text-anchor="middle" x="826.5" y="-285.5" font-family="Helvetica,sans-Serif" font-size="10.00">T_MESH::List::appendHead</text>
</a>
</g>
</g>
<!-- Node5&#45;&gt;Node6 -->
<g id="edge5" class="edge">
<title>Node5&#45;&gt;Node6</title>
<path fill="none" stroke="midnightblue" d="M685.18,-288C704.03,-288 725.58,-288 746.04,-288"/>
<polygon fill="midnightblue" stroke="midnightblue" points="746.3,-291.5 756.3,-288 746.3,-284.5 746.3,-291.5"/>
</g>
<!-- Node7 -->
<g id="node7" class="node">
<title>Node7</title>
<g id="a_node7"><a xlink:href="../../d3/d04/class_t___m_e_s_h_1_1_list.html#a1b14a2838ee3745d5fb413f9e7ecc214" target="_top" xlink:title="Appends a new node storing &#39;d&#39; to the tail. &#160;&#160;O(1).">
<polygon fill="white" stroke="black" points="761,-240.5 761,-259.5 892,-259.5 892,-240.5 761,-240.5"/>
<text text-anchor="middle" x="826.5" y="-247.5" font-family="Helvetica,sans-Serif" font-size="10.00">T_MESH::List::appendTail</text>
</a>
</g>
</g>
<!-- Node5&#45;&gt;Node7 -->
<g id="edge6" class="edge">
<title>Node5&#45;&gt;Node7</title>
<path fill="none" stroke="midnightblue" d="M679.83,-278.46C706.19,-273.31 738.92,-266.92 766.67,-261.49"/>
<polygon fill="midnightblue" stroke="midnightblue" points="767.51,-264.9 776.65,-259.54 766.16,-258.03 767.51,-264.9"/>
</g>
<!-- Node8 -->
<g id="node8" class="node">
<title>Node8</title>
<g id="a_node8"><a xlink:href="../../da/da2/class_t___m_e_s_h_1_1_edge.html#a96830b6d677fab318268f287682ad151" target="_top" xlink:title="Triangle on the left of the edge when looking from &#39;v&#39;. NULL if &#39;v&#39; is not a vertex of the edge.">
<polygon fill="white" stroke="black" points="756.5,-354.5 756.5,-373.5 896.5,-373.5 896.5,-354.5 756.5,-354.5"/>
<text text-anchor="middle" x="826.5" y="-361.5" font-family="Helvetica,sans-Serif" font-size="10.00">T_MESH::Edge::leftTriangle</text>
</a>
</g>
</g>
<!-- Node5&#45;&gt;Node8 -->
<g id="edge7" class="edge">
<title>Node5&#45;&gt;Node8</title>
<path fill="none" stroke="midnightblue" d="M685.02,-296.85C693.37,-299.42 701.65,-302.73 709,-307 729.12,-318.67 724.83,-333.4 745,-345 748.89,-347.24 753.02,-349.21 757.29,-350.95"/>
<polygon fill="midnightblue" stroke="midnightblue" points="756.19,-354.28 766.79,-354.4 758.59,-347.7 756.19,-354.28"/>
</g>
<!-- Node9 -->
<g id="node9" class="node">
<title>Node9</title>
<g id="a_node9"><a xlink:href="../../d3/d04/class_t___m_e_s_h_1_1_list.html#af0e61026072f65c9ba882df526acfd2e" target="_top" xlink:title="Gets the number of elements. &#160;&#160;O(1).">
<polygon fill="white" stroke="black" points="768.5,-202.5 768.5,-221.5 884.5,-221.5 884.5,-202.5 768.5,-202.5"/>
<text text-anchor="middle" x="826.5" y="-209.5" font-family="Helvetica,sans-Serif" font-size="10.00">T_MESH::List::numels</text>
</a>
</g>
</g>
<!-- Node5&#45;&gt;Node9 -->
<g id="edge8" class="edge">
<title>Node5&#45;&gt;Node9</title>
<path fill="none" stroke="midnightblue" d="M647.08,-278.45C668.69,-265.99 708.59,-244.2 745,-231 752.04,-228.45 759.55,-226.15 767.05,-224.1"/>
<polygon fill="midnightblue" stroke="midnightblue" points="768.06,-227.46 776.86,-221.56 766.31,-220.68 768.06,-227.46"/>
</g>
<!-- Node10 -->
<g id="node10" class="node">
<title>Node10</title>
<g id="a_node10"><a xlink:href="../../d8/d6e/class_t___m_e_s_h_1_1_triangle.html#a77cc688b97fd6501b5dca8385fce4137" target="_top" xlink:title="Triangle&#39;s edge opposite to &#39;v&#39;. NULL if &#39;v&#39; is not a vertex of the triangle.">
<polygon fill="white" stroke="black" points="745,-316.5 745,-335.5 908,-335.5 908,-316.5 745,-316.5"/>
<text text-anchor="middle" x="826.5" y="-323.5" font-family="Helvetica,sans-Serif" font-size="10.00">T_MESH::Triangle::oppositeEdge</text>
</a>
</g>
</g>
<!-- Node5&#45;&gt;Node10 -->
<g id="edge9" class="edge">
<title>Node5&#45;&gt;Node10</title>
<path fill="none" stroke="midnightblue" d="M679.83,-297.54C706.19,-302.69 738.92,-309.08 766.67,-314.51"/>
<polygon fill="midnightblue" stroke="midnightblue" points="766.16,-317.97 776.65,-316.46 767.51,-311.1 766.16,-317.97"/>
</g>
<!-- Node12 -->
<g id="node12" class="node">
<title>Node12</title>
<g id="a_node12"><a xlink:href="../../d3/d04/class_t___m_e_s_h_1_1_list.html#a9701d1b3769b92b7d2a7ed6da895a863" target="_top" xlink:title="Deletes and removes the first node. Returns its data. &#160;&#160;O(1).">
<polygon fill="white" stroke="black" points="764.5,-164.5 764.5,-183.5 888.5,-183.5 888.5,-164.5 764.5,-164.5"/>
<text text-anchor="middle" x="826.5" y="-171.5" font-family="Helvetica,sans-Serif" font-size="10.00">T_MESH::List::popHead</text>
</a>
</g>
</g>
<!-- Node5&#45;&gt;Node12 -->
<g id="edge12" class="edge">
<title>Node5&#45;&gt;Node12</title>
<path fill="none" stroke="midnightblue" d="M639.68,-278.21C657.44,-258.82 700.06,-215.45 745,-193 749.82,-190.59 754.95,-188.48 760.2,-186.64"/>
<polygon fill="midnightblue" stroke="midnightblue" points="761.29,-189.97 769.75,-183.59 759.16,-183.3 761.29,-189.97"/>
</g>
<!-- Node14 -->
<g id="node14" class="node">
<title>Node14</title>
<g id="a_node14"><a xlink:href="../../da/da2/class_t___m_e_s_h_1_1_edge.html#aa9788a51d590116555c8a062e253a197" target="_top" xlink:title="Triangle on the right of the edge when looking from &#39;v&#39;. NULL if &#39;v&#39; is not a vertex of the edge.">
<polygon fill="white" stroke="black" points="754,-126.5 754,-145.5 899,-145.5 899,-126.5 754,-126.5"/>
<text text-anchor="middle" x="826.5" y="-133.5" font-family="Helvetica,sans-Serif" font-size="10.00">T_MESH::Edge::rightTriangle</text>
</a>
</g>
</g>
<!-- Node5&#45;&gt;Node14 -->
<g id="edge14" class="edge">
<title>Node5&#45;&gt;Node14</title>
<path fill="none" stroke="midnightblue" d="M638.73,-278.31C662.09,-249.09 731.23,-163.38 745,-155 748.59,-152.82 752.41,-150.88 756.36,-149.17"/>
<polygon fill="midnightblue" stroke="midnightblue" points="757.68,-152.41 765.76,-145.57 755.17,-145.88 757.68,-152.41"/>
</g>
<!-- Node11 -->
<g id="node11" class="node">
<title>Node11</title>
<g id="a_node11"><a xlink:href="../../da/da2/class_t___m_e_s_h_1_1_edge.html#a7d7329ff24b7b6eb2eceee39711dd650" target="_top" xlink:title="TRUE iff &#39;v&#39; is an end&#45;point of the edge.">
<polygon fill="white" stroke="black" points="944,-316.5 944,-335.5 1079,-335.5 1079,-316.5 944,-316.5"/>
<text text-anchor="middle" x="1011.5" y="-323.5" font-family="Helvetica,sans-Serif" font-size="10.00">T_MESH::Edge::hasVertex</text>
</a>
</g>
</g>
<!-- Node10&#45;&gt;Node11 -->
<g id="edge10" class="edge">
<title>Node10&#45;&gt;Node11</title>
<path fill="none" stroke="midnightblue" d="M908.03,-326C916.55,-326 925.2,-326 933.68,-326"/>
<polygon fill="midnightblue" stroke="midnightblue" points="933.92,-329.5 943.92,-326 933.92,-322.5 933.92,-329.5"/>
</g>
<!-- Node13 -->
<g id="node13" class="node">
<title>Node13</title>
<g id="a_node13"><a xlink:href="../../d3/d04/class_t___m_e_s_h_1_1_list.html#aec091d7c66b66c92fe56f06f41f448f4" target="_top" xlink:title="Deletes and removes the node &#39;n&#39; from the list. &#160;&#160;O(1).">
<polygon fill="white" stroke="black" points="944.5,-164.5 944.5,-183.5 1078.5,-183.5 1078.5,-164.5 944.5,-164.5"/>
<text text-anchor="middle" x="1011.5" y="-171.5" font-family="Helvetica,sans-Serif" font-size="10.00">T_MESH::List::removeCell</text>
</a>
</g>
</g>
<!-- Node12&#45;&gt;Node13 -->
<g id="edge13" class="edge">
<title>Node12&#45;&gt;Node13</title>
<path fill="none" stroke="midnightblue" d="M888.69,-174C903.21,-174 918.88,-174 933.99,-174"/>
<polygon fill="midnightblue" stroke="midnightblue" points="934.34,-177.5 944.34,-174 934.34,-170.5 934.34,-177.5"/>
</g>
<!-- Node15&#45;&gt;Node4 -->
<g id="edge18" class="edge">
<title>Node15&#45;&gt;Node4</title>
<path fill="none" stroke="midnightblue" d="M674.11,-335.56C685.87,-339.14 698.3,-343.87 709,-350 727.83,-360.79 725.82,-372.85 745,-383 749.49,-385.37 754.27,-387.46 759.18,-389.28"/>
<polygon fill="midnightblue" stroke="midnightblue" points="758.14,-392.62 768.73,-392.48 760.36,-385.98 758.14,-392.62"/>
</g>
<!-- Node15&#45;&gt;Node8 -->
<g id="edge16" class="edge">
<title>Node15&#45;&gt;Node8</title>
<path fill="none" stroke="midnightblue" d="M679.83,-335.54C706.19,-340.69 738.92,-347.08 766.67,-352.51"/>
<polygon fill="midnightblue" stroke="midnightblue" points="766.16,-355.97 776.65,-354.46 767.51,-349.1 766.16,-355.97"/>
</g>
<!-- Node15&#45;&gt;Node10 -->
<g id="edge17" class="edge">
<title>Node15&#45;&gt;Node10</title>
<path fill="none" stroke="midnightblue" d="M709.27,-326C717.6,-326 726.12,-326 734.58,-326"/>
<polygon fill="midnightblue" stroke="midnightblue" points="734.85,-329.5 744.85,-326 734.85,-322.5 734.85,-329.5"/>
</g>
<!-- Node19 -->
<g id="node19" class="node">
<title>Node19</title>
<g id="a_node19"><a xlink:href="../../d8/d6e/class_t___m_e_s_h_1_1_triangle.html#aa7b9f783f2e4339083f46d25d3eecf68" target="_top" xlink:title="First vertex.">
<polygon fill="white" stroke="black" points="573,-161.5 573,-180.5 687,-180.5 687,-161.5 573,-161.5"/>
<text text-anchor="middle" x="630" y="-168.5" font-family="Helvetica,sans-Serif" font-size="10.00">T_MESH::Triangle::v1</text>
</a>
</g>
</g>
<!-- Node18&#45;&gt;Node19 -->
<g id="edge22" class="edge">
<title>Node18&#45;&gt;Node19</title>
<path fill="none" stroke="midnightblue" d="M503.62,-169.07C522.87,-169.36 543.73,-169.68 562.81,-169.98"/>
<polygon fill="midnightblue" stroke="midnightblue" points="562.85,-173.48 572.91,-170.13 562.96,-166.48 562.85,-173.48"/>
</g>
<!-- Node21 -->
<g id="node21" class="node">
<title>Node21</title>
<g id="a_node21"><a xlink:href="../../d8/d6e/class_t___m_e_s_h_1_1_triangle.html#a1bf6a231440a3c73a931c1cfccfee574" target="_top" xlink:title="Second vertex.">
<polygon fill="white" stroke="black" points="573,-123.5 573,-142.5 687,-142.5 687,-123.5 573,-123.5"/>
<text text-anchor="middle" x="630" y="-130.5" font-family="Helvetica,sans-Serif" font-size="10.00">T_MESH::Triangle::v2</text>
</a>
</g>
</g>
<!-- Node18&#45;&gt;Node21 -->
<g id="edge24" class="edge">
<title>Node18&#45;&gt;Node21</title>
<path fill="none" stroke="midnightblue" d="M503.62,-155.56C523.98,-151.9 546.15,-147.91 566.1,-144.32"/>
<polygon fill="midnightblue" stroke="midnightblue" points="566.78,-147.75 576,-142.54 565.54,-140.86 566.78,-147.75"/>
</g>
<!-- Node22 -->
<g id="node22" class="node">
<title>Node22</title>
<g id="a_node22"><a xlink:href="../../d8/d6e/class_t___m_e_s_h_1_1_triangle.html#a0c4c2a2ba6b0c975aa3d260f00785e8f" target="_top" xlink:title="Third vertex.">
<polygon fill="white" stroke="black" points="573,-85.5 573,-104.5 687,-104.5 687,-85.5 573,-85.5"/>
<text text-anchor="middle" x="630" y="-92.5" font-family="Helvetica,sans-Serif" font-size="10.00">T_MESH::Triangle::v3</text>
</a>
</g>
</g>
<!-- Node18&#45;&gt;Node22 -->
<g id="edge26" class="edge">
<title>Node18&#45;&gt;Node22</title>
<path fill="none" stroke="midnightblue" d="M492.31,-152.97C500.13,-150.1 507.9,-146.79 515,-143 533.13,-133.34 532.58,-123.09 551,-114 555.84,-111.61 561.01,-109.51 566.28,-107.66"/>
<polygon fill="midnightblue" stroke="midnightblue" points="567.4,-110.98 575.86,-104.61 565.27,-104.31 567.4,-110.98"/>
</g>
<!-- Node20 -->
<g id="node20" class="node">
<title>Node20</title>
<g id="a_node20"><a xlink:href="../../da/da2/class_t___m_e_s_h_1_1_edge.html#a560eca8895471f987bd3228b13c40052" target="_top" xlink:title="Vertex shared with edge &#39;b&#39;. NULL if this and &#39;b&#39; do not share any vertex.">
<polygon fill="white" stroke="black" points="748,-88.5 748,-107.5 905,-107.5 905,-88.5 748,-88.5"/>
<text text-anchor="middle" x="826.5" y="-95.5" font-family="Helvetica,sans-Serif" font-size="10.00">T_MESH::Edge::commonVertex</text>
</a>
</g>
</g>
<!-- Node19&#45;&gt;Node20 -->
<g id="edge23" class="edge">
<title>Node19&#45;&gt;Node20</title>
<path fill="none" stroke="midnightblue" d="M686.52,-161.38C694.32,-158.92 702.05,-155.84 709,-152 728.53,-141.2 725.43,-127.73 745,-117 749.19,-114.7 753.64,-112.68 758.23,-110.91"/>
<polygon fill="midnightblue" stroke="midnightblue" points="759.48,-114.18 767.78,-107.59 757.19,-107.57 759.48,-114.18"/>
</g>
<!-- Node21&#45;&gt;Node20 -->
<g id="edge25" class="edge">
<title>Node21&#45;&gt;Node20</title>
<path fill="none" stroke="midnightblue" d="M683.89,-123.48C708.22,-119.1 737.27,-113.88 762.7,-109.3"/>
<polygon fill="midnightblue" stroke="midnightblue" points="763.4,-112.73 772.62,-107.52 762.16,-105.84 763.4,-112.73"/>
</g>
<!-- Node22&#45;&gt;Node20 -->
<g id="edge27" class="edge">
<title>Node22&#45;&gt;Node20</title>
<path fill="none" stroke="midnightblue" d="M687.26,-95.87C703.01,-96.11 720.53,-96.38 737.65,-96.64"/>
<polygon fill="midnightblue" stroke="midnightblue" points="737.61,-100.14 747.67,-96.8 737.72,-93.15 737.61,-100.14"/>
</g>
</g>
</svg>
