<?xml version="1.0" encoding="UTF-8" standalone="no"?>
<!DOCTYPE svg PUBLIC "-//W3C//DTD SVG 1.1//EN"
 "http://www.w3.org/Graphics/SVG/1.1/DTD/svg11.dtd">
<!-- Generated by graphviz version 2.44.1 (0)
 -->
<!-- Title: T_MESH::Edge::collapseOnV1 Pages: 1 -->
<svg width="923pt" height="443pt"
 viewBox="0.00 0.00 923.00 442.88" xmlns="http://www.w3.org/2000/svg" xmlns:xlink="http://www.w3.org/1999/xlink">
<g id="graph0" class="graph" transform="scale(1 1) rotate(0) translate(4 438.88)">
<title>T_MESH::Edge::collapseOnV1</title>
<polygon fill="white" stroke="transparent" points="-4,4 -4,-438.88 919,-438.88 919,4 -4,4"/>
<!-- Node1 -->
<g id="node1" class="node">
<title>Node1</title>
<g id="a_node1"><a xlink:title="Edge collapse.">
<polygon fill="#bfbfbf" stroke="black" points="0,-202.5 0,-221.5 152,-221.5 152,-202.5 0,-202.5"/>
<text text-anchor="middle" x="76" y="-209.5" font-family="Helvetica,sans-Serif" font-size="10.00">T_MESH::Edge::collapseOnV1</text>
</a>
</g>
</g>
<!-- Node2 -->
<g id="node2" class="node">
<title>Node2</title>
<g id="a_node2"><a xlink:href="../../d5/d7f/class_t___m_e_s_h_1_1_vertex.html#af74a29c7daa03825b0156bfe7f64052a" target="_top" xlink:title="Returns the edge connecting this vertex to &#39;v&#39;. NULL if such an edge does not exist.">
<polygon fill="white" stroke="black" points="203,-354.5 203,-373.5 336,-373.5 336,-354.5 203,-354.5"/>
<text text-anchor="middle" x="269.5" y="-361.5" font-family="Helvetica,sans-Serif" font-size="10.00">T_MESH::Vertex::getEdge</text>
</a>
</g>
</g>
<!-- Node1&#45;&gt;Node2 -->
<g id="edge1" class="edge">
<title>Node1&#45;&gt;Node2</title>
<path fill="none" stroke="midnightblue" d="M82.64,-221.67C97.03,-245.5 137.58,-307.46 188,-340 194.88,-344.44 202.62,-348.09 210.5,-351.08"/>
<polygon fill="midnightblue" stroke="midnightblue" points="209.55,-354.45 220.15,-354.4 211.84,-347.83 209.55,-354.45"/>
</g>
<!-- Node3 -->
<g id="node3" class="node">
<title>Node3</title>
<g id="a_node3"><a xlink:href="../../da/da2/class_t___m_e_s_h_1_1_edge.html#aef981891343c94489f00b060bd654b6c" target="_top" xlink:title="Vertex opposite to &#39;v&#39;. NULL if &#39;v&#39; is not a vertex of the edge.">
<polygon fill="white" stroke="black" points="584.5,-392.5 584.5,-411.5 740.5,-411.5 740.5,-392.5 584.5,-392.5"/>
<text text-anchor="middle" x="662.5" y="-399.5" font-family="Helvetica,sans-Serif" font-size="10.00">T_MESH::Edge::oppositeVertex</text>
</a>
</g>
</g>
<!-- Node1&#45;&gt;Node3 -->
<g id="edge27" class="edge">
<title>Node1&#45;&gt;Node3</title>
<path fill="none" stroke="midnightblue" d="M79.8,-221.7C89.15,-252.09 122.49,-345.7 188,-383 325.17,-461.1 522.68,-432.81 613.05,-413.73"/>
<polygon fill="midnightblue" stroke="midnightblue" points="613.98,-417.11 623.01,-411.57 612.5,-410.27 613.98,-417.11"/>
</g>
<!-- Node4 -->
<g id="node4" class="node">
<title>Node4</title>
<g id="a_node4"><a xlink:href="../../d5/d7f/class_t___m_e_s_h_1_1_vertex.html#a66b49df1416ddcee6be0e1abe3aadda9" target="_top" xlink:title="List of incident edges.">
<polygon fill="white" stroke="black" points="411,-278.5 411,-297.5 521,-297.5 521,-278.5 411,-278.5"/>
<text text-anchor="middle" x="466" y="-285.5" font-family="Helvetica,sans-Serif" font-size="10.00">T_MESH::Vertex::VE</text>
</a>
</g>
</g>
<!-- Node1&#45;&gt;Node4 -->
<g id="edge32" class="edge">
<title>Node1&#45;&gt;Node4</title>
<path fill="none" stroke="midnightblue" d="M90.95,-221.55C111.26,-234.88 150.64,-258.6 188,-269 258.82,-288.71 343.57,-291.68 400.51,-290.86"/>
<polygon fill="midnightblue" stroke="midnightblue" points="400.88,-294.35 410.81,-290.66 400.75,-287.35 400.88,-294.35"/>
</g>
<!-- Node14 -->
<g id="node14" class="node">
<title>Node14</title>
<g id="a_node14"><a xlink:href="../../d5/d7f/class_t___m_e_s_h_1_1_vertex.html#ac6001e2789a05af164867f6c1dd934f9" target="_top" xlink:title="TRUE iff vertex is on boundary.">
<polygon fill="white" stroke="black" points="387,-316.5 387,-335.5 545,-335.5 545,-316.5 387,-316.5"/>
<text text-anchor="middle" x="466" y="-323.5" font-family="Helvetica,sans-Serif" font-size="10.00">T_MESH::Vertex::isOnBoundary</text>
</a>
</g>
</g>
<!-- Node1&#45;&gt;Node14 -->
<g id="edge14" class="edge">
<title>Node1&#45;&gt;Node14</title>
<path fill="none" stroke="midnightblue" d="M86.35,-221.51C104.25,-239.06 145.37,-276.25 188,-293 248.15,-316.64 320.86,-324.6 376.69,-326.81"/>
<polygon fill="midnightblue" stroke="midnightblue" points="376.79,-330.31 386.91,-327.15 377.03,-323.32 376.79,-330.31"/>
</g>
<!-- Node15 -->
<g id="node15" class="node">
<title>Node15</title>
<g id="a_node15"><a xlink:href="../../d8/d6e/class_t___m_e_s_h_1_1_triangle.html#a7233b095134d4402e88e988a225d65e5" target="_top" xlink:title="Edge next to &#39;e&#39; in the ordering or the triangle. NULL if &#39;e&#39; is not an edge of the triangle.">
<polygon fill="white" stroke="black" points="197,-240.5 197,-259.5 342,-259.5 342,-240.5 197,-240.5"/>
<text text-anchor="middle" x="269.5" y="-247.5" font-family="Helvetica,sans-Serif" font-size="10.00">T_MESH::Triangle::nextEdge</text>
</a>
</g>
</g>
<!-- Node1&#45;&gt;Node15 -->
<g id="edge18" class="edge">
<title>Node1&#45;&gt;Node15</title>
<path fill="none" stroke="midnightblue" d="M125.32,-221.59C151.16,-226.72 183.17,-233.07 210.36,-238.46"/>
<polygon fill="midnightblue" stroke="midnightblue" points="210.03,-241.97 220.52,-240.48 211.4,-235.1 210.03,-241.97"/>
</g>
<!-- Node16 -->
<g id="node16" class="node">
<title>Node16</title>
<g id="a_node16"><a xlink:href="../../da/da2/class_t___m_e_s_h_1_1_edge.html#a295cf6f1ac996ea5e760c2bbd590c513" target="_top" xlink:title="Incident triangle opposite to &#39;t&#39;. NULL if &#39;t&#39; is not incident to the edge.">
<polygon fill="white" stroke="black" points="188,-202.5 188,-221.5 351,-221.5 351,-202.5 188,-202.5"/>
<text text-anchor="middle" x="269.5" y="-209.5" font-family="Helvetica,sans-Serif" font-size="10.00">T_MESH::Edge::oppositeTriangle</text>
</a>
</g>
</g>
<!-- Node1&#45;&gt;Node16 -->
<g id="edge19" class="edge">
<title>Node1&#45;&gt;Node16</title>
<path fill="none" stroke="midnightblue" d="M152.14,-212C160.57,-212 169.23,-212 177.83,-212"/>
<polygon fill="midnightblue" stroke="midnightblue" points="177.89,-215.5 187.89,-212 177.89,-208.5 177.89,-215.5"/>
</g>
<!-- Node17 -->
<g id="node17" class="node">
<title>Node17</title>
<g id="a_node17"><a xlink:href="../../d8/d6e/class_t___m_e_s_h_1_1_triangle.html#a5332cb4780fa56bdd9e95b250defc82c" target="_top" xlink:title="Triangle&#39;s vertex opposite to &#39;e&#39;. NULL if &#39;e&#39; is not an edge of the triangle.">
<polygon fill="white" stroke="black" points="199.5,-153 199.5,-183 339.5,-183 339.5,-153 199.5,-153"/>
<text text-anchor="start" x="207.5" y="-171" font-family="Helvetica,sans-Serif" font-size="10.00">T_MESH::Triangle::opposite</text>
<text text-anchor="middle" x="269.5" y="-160" font-family="Helvetica,sans-Serif" font-size="10.00">Vertex</text>
</a>
</g>
</g>
<!-- Node1&#45;&gt;Node17 -->
<g id="edge20" class="edge">
<title>Node1&#45;&gt;Node17</title>
<path fill="none" stroke="midnightblue" d="M118.55,-202.45C140.31,-197.45 167.62,-191.18 192.96,-185.36"/>
<polygon fill="midnightblue" stroke="midnightblue" points="193.97,-188.72 202.93,-183.07 192.4,-181.89 193.97,-188.72"/>
</g>
<!-- Node22 -->
<g id="node22" class="node">
<title>Node22</title>
<g id="a_node22"><a xlink:href="../../d8/d6e/class_t___m_e_s_h_1_1_triangle.html#ae0d141fae436f3a96a8012288546ad49" target="_top" xlink:title="Edge preceeding &#39;e&#39; in the ordering or the triangle. NULL if &#39;e&#39; is not an edge of the triangle.">
<polygon fill="white" stroke="black" points="197,-114.5 197,-133.5 342,-133.5 342,-114.5 197,-114.5"/>
<text text-anchor="middle" x="269.5" y="-121.5" font-family="Helvetica,sans-Serif" font-size="10.00">T_MESH::Triangle::prevEdge</text>
</a>
</g>
</g>
<!-- Node1&#45;&gt;Node22 -->
<g id="edge28" class="edge">
<title>Node1&#45;&gt;Node22</title>
<path fill="none" stroke="midnightblue" d="M89.62,-202.46C109.52,-187.86 149.85,-159.97 188,-144 194.93,-141.1 202.37,-138.55 209.84,-136.33"/>
<polygon fill="midnightblue" stroke="midnightblue" points="210.93,-139.66 219.62,-133.6 209.05,-132.92 210.93,-139.66"/>
</g>
<!-- Node23 -->
<g id="node23" class="node">
<title>Node23</title>
<g id="a_node23"><a xlink:href="../../d8/d6e/class_t___m_e_s_h_1_1_triangle.html#a4c2d4262f06232e3a7cd1a8bd1a0298b" target="_top" xlink:title="Replace edge &#39;a&#39; with edge &#39;b&#39; in the triangle and return TRUE. If &#39;a&#39; is not an edge of the triangle...">
<polygon fill="white" stroke="black" points="190.5,-76.5 190.5,-95.5 348.5,-95.5 348.5,-76.5 190.5,-76.5"/>
<text text-anchor="middle" x="269.5" y="-83.5" font-family="Helvetica,sans-Serif" font-size="10.00">T_MESH::Triangle::replaceEdge</text>
</a>
</g>
</g>
<!-- Node1&#45;&gt;Node23 -->
<g id="edge29" class="edge">
<title>Node1&#45;&gt;Node23</title>
<path fill="none" stroke="midnightblue" d="M84.1,-202.24C100.1,-181.02 141.24,-130.51 188,-105 192.19,-102.71 196.65,-100.7 201.24,-98.93"/>
<polygon fill="midnightblue" stroke="midnightblue" points="202.49,-102.2 210.8,-95.62 200.2,-95.58 202.49,-102.2"/>
</g>
<!-- Node24 -->
<g id="node24" class="node">
<title>Node24</title>
<g id="a_node24"><a xlink:href="../../da/da2/class_t___m_e_s_h_1_1_edge.html#a96d7a013a37e724352108c9fac25bbf5" target="_top" xlink:title="Replace incident triangle &#39;a&#39; with &#39;b&#39; and return TRUE. If &#39;a&#39; is not incident to the edge return FAL...">
<polygon fill="white" stroke="black" points="190.5,-38.5 190.5,-57.5 348.5,-57.5 348.5,-38.5 190.5,-38.5"/>
<text text-anchor="middle" x="269.5" y="-45.5" font-family="Helvetica,sans-Serif" font-size="10.00">T_MESH::Edge::replaceTriangle</text>
</a>
</g>
</g>
<!-- Node1&#45;&gt;Node24 -->
<g id="edge30" class="edge">
<title>Node1&#45;&gt;Node24</title>
<path fill="none" stroke="midnightblue" d="M81.41,-202.4C93.97,-176.16 132.65,-102.84 188,-67 191.3,-64.87 194.81,-62.97 198.45,-61.29"/>
<polygon fill="midnightblue" stroke="midnightblue" points="199.77,-64.53 207.72,-57.53 197.14,-58.04 199.77,-64.53"/>
</g>
<!-- Node25 -->
<g id="node25" class="node">
<title>Node25</title>
<g id="a_node25"><a xlink:href="../../da/da2/class_t___m_e_s_h_1_1_edge.html#a4ebfc7836cd37fa28b41e972511377f6" target="_top" xlink:title="Replace vertex &#39;a&#39; with vertex &#39;b&#39; in the edge and return TRUE. If &#39;a&#39; is not a vertex of the edge re...">
<polygon fill="white" stroke="black" points="194,-0.5 194,-19.5 345,-19.5 345,-0.5 194,-0.5"/>
<text text-anchor="middle" x="269.5" y="-7.5" font-family="Helvetica,sans-Serif" font-size="10.00">T_MESH::Edge::replaceVertex</text>
</a>
</g>
</g>
<!-- Node1&#45;&gt;Node25 -->
<g id="edge31" class="edge">
<title>Node1&#45;&gt;Node25</title>
<path fill="none" stroke="midnightblue" d="M79.92,-202.18C89.65,-171.32 123.98,-75.54 188,-29 190.67,-27.06 193.51,-25.31 196.47,-23.74"/>
<polygon fill="midnightblue" stroke="midnightblue" points="198.01,-26.88 205.65,-19.54 195.1,-20.52 198.01,-26.88"/>
</g>
<!-- Node2&#45;&gt;Node3 -->
<g id="edge2" class="edge">
<title>Node2&#45;&gt;Node3</title>
<path fill="none" stroke="midnightblue" d="M336,-369.13C391.65,-373.63 473.63,-380.59 545,-388 554.8,-389.02 565.06,-390.15 575.25,-391.32"/>
<polygon fill="midnightblue" stroke="midnightblue" points="575.06,-394.82 585.4,-392.5 575.87,-387.87 575.06,-394.82"/>
</g>
<!-- Node2&#45;&gt;Node4 -->
<g id="edge3" class="edge">
<title>Node2&#45;&gt;Node4</title>
<path fill="none" stroke="midnightblue" d="M287.36,-354.3C309.58,-341.87 350.16,-320.32 387,-307 394.02,-304.46 401.51,-302.16 408.98,-300.09"/>
<polygon fill="midnightblue" stroke="midnightblue" points="409.95,-303.46 418.73,-297.52 408.17,-296.69 409.95,-303.46"/>
</g>
<!-- Node4&#45;&gt;Node3 -->
<g id="edge10" class="edge">
<title>Node4&#45;&gt;Node3</title>
<path fill="none" stroke="midnightblue" d="M521.14,-294.52C529.75,-297.36 538.08,-301.37 545,-307 573.98,-330.61 551.94,-359.5 581,-383 583.1,-384.7 585.33,-386.25 587.65,-387.67"/>
<polygon fill="midnightblue" stroke="midnightblue" points="586.53,-391.03 597.02,-392.49 589.73,-384.8 586.53,-391.03"/>
</g>
<!-- Node5 -->
<g id="node5" class="node">
<title>Node5</title>
<g id="a_node5"><a xlink:href="../../d3/d04/class_t___m_e_s_h_1_1_list.html#ae601a7e17364ce83f74ffcb6c64971ca" target="_top" xlink:title="Appends a new node storing &#39;d&#39; to the head. &#160;&#160;O(1).">
<polygon fill="white" stroke="black" points="592.5,-278.5 592.5,-297.5 732.5,-297.5 732.5,-278.5 592.5,-278.5"/>
<text text-anchor="middle" x="662.5" y="-285.5" font-family="Helvetica,sans-Serif" font-size="10.00">T_MESH::List::appendHead</text>
</a>
</g>
</g>
<!-- Node4&#45;&gt;Node5 -->
<g id="edge4" class="edge">
<title>Node4&#45;&gt;Node5</title>
<path fill="none" stroke="midnightblue" d="M521.18,-288C540.03,-288 561.58,-288 582.04,-288"/>
<polygon fill="midnightblue" stroke="midnightblue" points="582.3,-291.5 592.3,-288 582.3,-284.5 582.3,-291.5"/>
</g>
<!-- Node6 -->
<g id="node6" class="node">
<title>Node6</title>
<g id="a_node6"><a xlink:href="../../d3/d04/class_t___m_e_s_h_1_1_list.html#a1b14a2838ee3745d5fb413f9e7ecc214" target="_top" xlink:title="Appends a new node storing &#39;d&#39; to the tail. &#160;&#160;O(1).">
<polygon fill="white" stroke="black" points="597,-240.5 597,-259.5 728,-259.5 728,-240.5 597,-240.5"/>
<text text-anchor="middle" x="662.5" y="-247.5" font-family="Helvetica,sans-Serif" font-size="10.00">T_MESH::List::appendTail</text>
</a>
</g>
</g>
<!-- Node4&#45;&gt;Node6 -->
<g id="edge5" class="edge">
<title>Node4&#45;&gt;Node6</title>
<path fill="none" stroke="midnightblue" d="M515.83,-278.46C542.19,-273.31 574.92,-266.92 602.67,-261.49"/>
<polygon fill="midnightblue" stroke="midnightblue" points="603.51,-264.9 612.65,-259.54 602.16,-258.03 603.51,-264.9"/>
</g>
<!-- Node7 -->
<g id="node7" class="node">
<title>Node7</title>
<g id="a_node7"><a xlink:href="../../da/da2/class_t___m_e_s_h_1_1_edge.html#a96830b6d677fab318268f287682ad151" target="_top" xlink:title="Triangle on the left of the edge when looking from &#39;v&#39;. NULL if &#39;v&#39; is not a vertex of the edge.">
<polygon fill="white" stroke="black" points="592.5,-354.5 592.5,-373.5 732.5,-373.5 732.5,-354.5 592.5,-354.5"/>
<text text-anchor="middle" x="662.5" y="-361.5" font-family="Helvetica,sans-Serif" font-size="10.00">T_MESH::Edge::leftTriangle</text>
</a>
</g>
</g>
<!-- Node4&#45;&gt;Node7 -->
<g id="edge6" class="edge">
<title>Node4&#45;&gt;Node7</title>
<path fill="none" stroke="midnightblue" d="M521.02,-296.85C529.37,-299.42 537.65,-302.73 545,-307 565.12,-318.67 560.83,-333.4 581,-345 584.89,-347.24 589.02,-349.21 593.29,-350.95"/>
<polygon fill="midnightblue" stroke="midnightblue" points="592.19,-354.28 602.79,-354.4 594.59,-347.7 592.19,-354.28"/>
</g>
<!-- Node8 -->
<g id="node8" class="node">
<title>Node8</title>
<g id="a_node8"><a xlink:href="../../d3/d04/class_t___m_e_s_h_1_1_list.html#af0e61026072f65c9ba882df526acfd2e" target="_top" xlink:title="Gets the number of elements. &#160;&#160;O(1).">
<polygon fill="white" stroke="black" points="604.5,-202.5 604.5,-221.5 720.5,-221.5 720.5,-202.5 604.5,-202.5"/>
<text text-anchor="middle" x="662.5" y="-209.5" font-family="Helvetica,sans-Serif" font-size="10.00">T_MESH::List::numels</text>
</a>
</g>
</g>
<!-- Node4&#45;&gt;Node8 -->
<g id="edge7" class="edge">
<title>Node4&#45;&gt;Node8</title>
<path fill="none" stroke="midnightblue" d="M483.08,-278.45C504.69,-265.99 544.59,-244.2 581,-231 588.04,-228.45 595.55,-226.15 603.05,-224.1"/>
<polygon fill="midnightblue" stroke="midnightblue" points="604.06,-227.46 612.86,-221.56 602.31,-220.68 604.06,-227.46"/>
</g>
<!-- Node9 -->
<g id="node9" class="node">
<title>Node9</title>
<g id="a_node9"><a xlink:href="../../d8/d6e/class_t___m_e_s_h_1_1_triangle.html#a77cc688b97fd6501b5dca8385fce4137" target="_top" xlink:title="Triangle&#39;s edge opposite to &#39;v&#39;. NULL if &#39;v&#39; is not a vertex of the triangle.">
<polygon fill="white" stroke="black" points="581,-316.5 581,-335.5 744,-335.5 744,-316.5 581,-316.5"/>
<text text-anchor="middle" x="662.5" y="-323.5" font-family="Helvetica,sans-Serif" font-size="10.00">T_MESH::Triangle::oppositeEdge</text>
</a>
</g>
</g>
<!-- Node4&#45;&gt;Node9 -->
<g id="edge8" class="edge">
<title>Node4&#45;&gt;Node9</title>
<path fill="none" stroke="midnightblue" d="M515.83,-297.54C542.19,-302.69 574.92,-309.08 602.67,-314.51"/>
<polygon fill="midnightblue" stroke="midnightblue" points="602.16,-317.97 612.65,-316.46 603.51,-311.1 602.16,-317.97"/>
</g>
<!-- Node11 -->
<g id="node11" class="node">
<title>Node11</title>
<g id="a_node11"><a xlink:href="../../d3/d04/class_t___m_e_s_h_1_1_list.html#a9701d1b3769b92b7d2a7ed6da895a863" target="_top" xlink:title="Deletes and removes the first node. Returns its data. &#160;&#160;O(1).">
<polygon fill="white" stroke="black" points="600.5,-164.5 600.5,-183.5 724.5,-183.5 724.5,-164.5 600.5,-164.5"/>
<text text-anchor="middle" x="662.5" y="-171.5" font-family="Helvetica,sans-Serif" font-size="10.00">T_MESH::List::popHead</text>
</a>
</g>
</g>
<!-- Node4&#45;&gt;Node11 -->
<g id="edge11" class="edge">
<title>Node4&#45;&gt;Node11</title>
<path fill="none" stroke="midnightblue" d="M475.68,-278.21C493.44,-258.82 536.06,-215.45 581,-193 585.82,-190.59 590.95,-188.48 596.2,-186.64"/>
<polygon fill="midnightblue" stroke="midnightblue" points="597.29,-189.97 605.75,-183.59 595.16,-183.3 597.29,-189.97"/>
</g>
<!-- Node13 -->
<g id="node13" class="node">
<title>Node13</title>
<g id="a_node13"><a xlink:href="../../da/da2/class_t___m_e_s_h_1_1_edge.html#aa9788a51d590116555c8a062e253a197" target="_top" xlink:title="Triangle on the right of the edge when looking from &#39;v&#39;. NULL if &#39;v&#39; is not a vertex of the edge.">
<polygon fill="white" stroke="black" points="590,-126.5 590,-145.5 735,-145.5 735,-126.5 590,-126.5"/>
<text text-anchor="middle" x="662.5" y="-133.5" font-family="Helvetica,sans-Serif" font-size="10.00">T_MESH::Edge::rightTriangle</text>
</a>
</g>
</g>
<!-- Node4&#45;&gt;Node13 -->
<g id="edge13" class="edge">
<title>Node4&#45;&gt;Node13</title>
<path fill="none" stroke="midnightblue" d="M474.73,-278.31C498.09,-249.09 567.23,-163.38 581,-155 584.59,-152.82 588.41,-150.88 592.36,-149.17"/>
<polygon fill="midnightblue" stroke="midnightblue" points="593.68,-152.41 601.76,-145.57 591.17,-145.88 593.68,-152.41"/>
</g>
<!-- Node10 -->
<g id="node10" class="node">
<title>Node10</title>
<g id="a_node10"><a xlink:href="../../da/da2/class_t___m_e_s_h_1_1_edge.html#a7d7329ff24b7b6eb2eceee39711dd650" target="_top" xlink:title="TRUE iff &#39;v&#39; is an end&#45;point of the edge.">
<polygon fill="white" stroke="black" points="780,-316.5 780,-335.5 915,-335.5 915,-316.5 780,-316.5"/>
<text text-anchor="middle" x="847.5" y="-323.5" font-family="Helvetica,sans-Serif" font-size="10.00">T_MESH::Edge::hasVertex</text>
</a>
</g>
</g>
<!-- Node9&#45;&gt;Node10 -->
<g id="edge9" class="edge">
<title>Node9&#45;&gt;Node10</title>
<path fill="none" stroke="midnightblue" d="M744.03,-326C752.55,-326 761.2,-326 769.68,-326"/>
<polygon fill="midnightblue" stroke="midnightblue" points="769.92,-329.5 779.92,-326 769.92,-322.5 769.92,-329.5"/>
</g>
<!-- Node12 -->
<g id="node12" class="node">
<title>Node12</title>
<g id="a_node12"><a xlink:href="../../d3/d04/class_t___m_e_s_h_1_1_list.html#aec091d7c66b66c92fe56f06f41f448f4" target="_top" xlink:title="Deletes and removes the node &#39;n&#39; from the list. &#160;&#160;O(1).">
<polygon fill="white" stroke="black" points="780.5,-164.5 780.5,-183.5 914.5,-183.5 914.5,-164.5 780.5,-164.5"/>
<text text-anchor="middle" x="847.5" y="-171.5" font-family="Helvetica,sans-Serif" font-size="10.00">T_MESH::List::removeCell</text>
</a>
</g>
</g>
<!-- Node11&#45;&gt;Node12 -->
<g id="edge12" class="edge">
<title>Node11&#45;&gt;Node12</title>
<path fill="none" stroke="midnightblue" d="M724.69,-174C739.21,-174 754.88,-174 769.99,-174"/>
<polygon fill="midnightblue" stroke="midnightblue" points="770.34,-177.5 780.34,-174 770.34,-170.5 770.34,-177.5"/>
</g>
<!-- Node14&#45;&gt;Node3 -->
<g id="edge17" class="edge">
<title>Node14&#45;&gt;Node3</title>
<path fill="none" stroke="midnightblue" d="M510.11,-335.56C521.87,-339.14 534.3,-343.87 545,-350 563.83,-360.79 561.82,-372.85 581,-383 585.49,-385.37 590.27,-387.46 595.18,-389.28"/>
<polygon fill="midnightblue" stroke="midnightblue" points="594.14,-392.62 604.73,-392.48 596.36,-385.98 594.14,-392.62"/>
</g>
<!-- Node14&#45;&gt;Node7 -->
<g id="edge15" class="edge">
<title>Node14&#45;&gt;Node7</title>
<path fill="none" stroke="midnightblue" d="M515.83,-335.54C542.19,-340.69 574.92,-347.08 602.67,-352.51"/>
<polygon fill="midnightblue" stroke="midnightblue" points="602.16,-355.97 612.65,-354.46 603.51,-349.1 602.16,-355.97"/>
</g>
<!-- Node14&#45;&gt;Node9 -->
<g id="edge16" class="edge">
<title>Node14&#45;&gt;Node9</title>
<path fill="none" stroke="midnightblue" d="M545.27,-326C553.6,-326 562.12,-326 570.58,-326"/>
<polygon fill="midnightblue" stroke="midnightblue" points="570.85,-329.5 580.85,-326 570.85,-322.5 570.85,-329.5"/>
</g>
<!-- Node18 -->
<g id="node18" class="node">
<title>Node18</title>
<g id="a_node18"><a xlink:href="../../d8/d6e/class_t___m_e_s_h_1_1_triangle.html#aa7b9f783f2e4339083f46d25d3eecf68" target="_top" xlink:title="First vertex.">
<polygon fill="white" stroke="black" points="409,-161.5 409,-180.5 523,-180.5 523,-161.5 409,-161.5"/>
<text text-anchor="middle" x="466" y="-168.5" font-family="Helvetica,sans-Serif" font-size="10.00">T_MESH::Triangle::v1</text>
</a>
</g>
</g>
<!-- Node17&#45;&gt;Node18 -->
<g id="edge21" class="edge">
<title>Node17&#45;&gt;Node18</title>
<path fill="none" stroke="midnightblue" d="M339.62,-169.07C358.87,-169.36 379.73,-169.68 398.81,-169.98"/>
<polygon fill="midnightblue" stroke="midnightblue" points="398.85,-173.48 408.91,-170.13 398.96,-166.48 398.85,-173.48"/>
</g>
<!-- Node20 -->
<g id="node20" class="node">
<title>Node20</title>
<g id="a_node20"><a xlink:href="../../d8/d6e/class_t___m_e_s_h_1_1_triangle.html#a1bf6a231440a3c73a931c1cfccfee574" target="_top" xlink:title="Second vertex.">
<polygon fill="white" stroke="black" points="409,-123.5 409,-142.5 523,-142.5 523,-123.5 409,-123.5"/>
<text text-anchor="middle" x="466" y="-130.5" font-family="Helvetica,sans-Serif" font-size="10.00">T_MESH::Triangle::v2</text>
</a>
</g>
</g>
<!-- Node17&#45;&gt;Node20 -->
<g id="edge23" class="edge">
<title>Node17&#45;&gt;Node20</title>
<path fill="none" stroke="midnightblue" d="M339.62,-155.56C359.98,-151.9 382.15,-147.91 402.1,-144.32"/>
<polygon fill="midnightblue" stroke="midnightblue" points="402.78,-147.75 412,-142.54 401.54,-140.86 402.78,-147.75"/>
</g>
<!-- Node21 -->
<g id="node21" class="node">
<title>Node21</title>
<g id="a_node21"><a xlink:href="../../d8/d6e/class_t___m_e_s_h_1_1_triangle.html#a0c4c2a2ba6b0c975aa3d260f00785e8f" target="_top" xlink:title="Third vertex.">
<polygon fill="white" stroke="black" points="409,-85.5 409,-104.5 523,-104.5 523,-85.5 409,-85.5"/>
<text text-anchor="middle" x="466" y="-92.5" font-family="Helvetica,sans-Serif" font-size="10.00">T_MESH::Triangle::v3</text>
</a>
</g>
</g>
<!-- Node17&#45;&gt;Node21 -->
<g id="edge25" class="edge">
<title>Node17&#45;&gt;Node21</title>
<path fill="none" stroke="midnightblue" d="M328.31,-152.97C336.13,-150.1 343.9,-146.79 351,-143 369.13,-133.34 368.58,-123.09 387,-114 391.84,-111.61 397.01,-109.51 402.28,-107.66"/>
<polygon fill="midnightblue" stroke="midnightblue" points="403.4,-110.98 411.86,-104.61 401.27,-104.31 403.4,-110.98"/>
</g>
<!-- Node19 -->
<g id="node19" class="node">
<title>Node19</title>
<g id="a_node19"><a xlink:href="../../da/da2/class_t___m_e_s_h_1_1_edge.html#a560eca8895471f987bd3228b13c40052" target="_top" xlink:title="Vertex shared with edge &#39;b&#39;. NULL if this and &#39;b&#39; do not share any vertex.">
<polygon fill="white" stroke="black" points="584,-88.5 584,-107.5 741,-107.5 741,-88.5 584,-88.5"/>
<text text-anchor="middle" x="662.5" y="-95.5" font-family="Helvetica,sans-Serif" font-size="10.00">T_MESH::Edge::commonVertex</text>
</a>
</g>
</g>
<!-- Node18&#45;&gt;Node19 -->
<g id="edge22" class="edge">
<title>Node18&#45;&gt;Node19</title>
<path fill="none" stroke="midnightblue" d="M522.52,-161.38C530.32,-158.92 538.05,-155.84 545,-152 564.53,-141.2 561.43,-127.73 581,-117 585.19,-114.7 589.64,-112.68 594.23,-110.91"/>
<polygon fill="midnightblue" stroke="midnightblue" points="595.48,-114.18 603.78,-107.59 593.19,-107.57 595.48,-114.18"/>
</g>
<!-- Node20&#45;&gt;Node19 -->
<g id="edge24" class="edge">
<title>Node20&#45;&gt;Node19</title>
<path fill="none" stroke="midnightblue" d="M519.89,-123.48C544.22,-119.1 573.27,-113.88 598.7,-109.3"/>
<polygon fill="midnightblue" stroke="midnightblue" points="599.4,-112.73 608.62,-107.52 598.16,-105.84 599.4,-112.73"/>
</g>
<!-- Node21&#45;&gt;Node19 -->
<g id="edge26" class="edge">
<title>Node21&#45;&gt;Node19</title>
<path fill="none" stroke="midnightblue" d="M523.26,-95.87C539.01,-96.11 556.53,-96.38 573.65,-96.64"/>
<polygon fill="midnightblue" stroke="midnightblue" points="573.61,-100.14 583.67,-96.8 573.72,-93.15 573.61,-100.14"/>
</g>
</g>
</svg>
