<?xml version="1.0" encoding="UTF-8" standalone="no"?>
<!DOCTYPE svg PUBLIC "-//W3C//DTD SVG 1.1//EN"
 "http://www.w3.org/Graphics/SVG/1.1/DTD/svg11.dtd">
<!-- Generated by graphviz version 2.44.1 (0)
 -->
<!-- Title: T_MESH::Edge::merge Pages: 1 -->
<svg width="1926pt" height="568pt"
 viewBox="0.00 0.00 1926.00 568.00" xmlns="http://www.w3.org/2000/svg" xmlns:xlink="http://www.w3.org/1999/xlink">
<g id="graph0" class="graph" transform="scale(1 1) rotate(0) translate(4 564)">
<title>T_MESH::Edge::merge</title>
<polygon fill="white" stroke="transparent" points="-4,4 -4,-564 1922,-564 1922,4 -4,4"/>
<!-- Node1 -->
<g id="node1" class="node">
<title>Node1</title>
<g id="a_node1"><a xlink:title="Merge with another boundary edge.">
<polygon fill="#bfbfbf" stroke="black" points="1799,-223 1799,-242 1918,-242 1918,-223 1799,-223"/>
<text text-anchor="middle" x="1858.5" y="-230" font-family="Helvetica,sans-Serif" font-size="10.00">T_MESH::Edge::merge</text>
</a>
</g>
</g>
<!-- Node2 -->
<g id="node2" class="node">
<title>Node2</title>
<g id="a_node2"><a xlink:href="../../d6/d27/class_t___m_e_s_h_1_1_basic___t_mesh.html#afb5640cc9cc702d898e68d21dbefd5e3" target="_top" xlink:title=" ">
<polygon fill="white" stroke="black" points="1640,-217.5 1640,-247.5 1763,-247.5 1763,-217.5 1640,-217.5"/>
<text text-anchor="start" x="1648" y="-235.5" font-family="Helvetica,sans-Serif" font-size="10.00">T_MESH::Basic_TMesh</text>
<text text-anchor="middle" x="1701.5" y="-224.5" font-family="Helvetica,sans-Serif" font-size="10.00">::pinch</text>
</a>
</g>
</g>
<!-- Node1&#45;&gt;Node2 -->
<g id="edge1" class="edge">
<title>Node1&#45;&gt;Node2</title>
<path fill="none" stroke="midnightblue" d="M1788.67,-232.5C1780.2,-232.5 1771.58,-232.5 1763.25,-232.5"/>
<polygon fill="midnightblue" stroke="midnightblue" points="1788.9,-236 1798.9,-232.5 1788.9,-229 1788.9,-236"/>
</g>
<!-- Node3 -->
<g id="node3" class="node">
<title>Node3</title>
<g id="a_node3"><a xlink:href="../../d6/d27/class_t___m_e_s_h_1_1_basic___t_mesh.html#a23a9a07da273649588c3ba1b7ddc13c8" target="_top" xlink:title="Convert to manifold.">
<polygon fill="white" stroke="black" points="1481,-217.5 1481,-247.5 1604,-247.5 1604,-217.5 1481,-217.5"/>
<text text-anchor="start" x="1489" y="-235.5" font-family="Helvetica,sans-Serif" font-size="10.00">T_MESH::Basic_TMesh</text>
<text text-anchor="middle" x="1542.5" y="-224.5" font-family="Helvetica,sans-Serif" font-size="10.00">::cutAndStitch</text>
</a>
</g>
</g>
<!-- Node2&#45;&gt;Node3 -->
<g id="edge2" class="edge">
<title>Node2&#45;&gt;Node3</title>
<path fill="none" stroke="midnightblue" d="M1629.79,-232.5C1621.19,-232.5 1612.47,-232.5 1604.04,-232.5"/>
<polygon fill="midnightblue" stroke="midnightblue" points="1629.8,-236 1639.8,-232.5 1629.8,-229 1629.8,-236"/>
</g>
<!-- Node4 -->
<g id="node4" class="node">
<title>Node4</title>
<g id="a_node4"><a xlink:href="../../d6/d27/class_t___m_e_s_h_1_1_basic___t_mesh.html#a679e744670de791fb61a0a1a27918a6f" target="_top" xlink:title="If called in rebuildConnectivity(bool) fix the connectivity between geometric elements.">
<polygon fill="white" stroke="black" points="1322,-217.5 1322,-247.5 1445,-247.5 1445,-217.5 1322,-217.5"/>
<text text-anchor="start" x="1330" y="-235.5" font-family="Helvetica,sans-Serif" font-size="10.00">T_MESH::Basic_TMesh</text>
<text text-anchor="middle" x="1383.5" y="-224.5" font-family="Helvetica,sans-Serif" font-size="10.00">::fixConnectivity</text>
</a>
</g>
</g>
<!-- Node3&#45;&gt;Node4 -->
<g id="edge3" class="edge">
<title>Node3&#45;&gt;Node4</title>
<path fill="none" stroke="midnightblue" d="M1470.79,-232.5C1462.19,-232.5 1453.47,-232.5 1445.04,-232.5"/>
<polygon fill="midnightblue" stroke="midnightblue" points="1470.8,-236 1480.8,-232.5 1470.8,-229 1470.8,-236"/>
</g>
<!-- Node5 -->
<g id="node5" class="node">
<title>Node5</title>
<g id="a_node5"><a xlink:href="../../d6/d27/class_t___m_e_s_h_1_1_basic___t_mesh.html#a4dccd1d7e0db0246a83b424408fdd677" target="_top" xlink:title=" ">
<polygon fill="white" stroke="black" points="1163,-387.5 1163,-417.5 1286,-417.5 1286,-387.5 1163,-387.5"/>
<text text-anchor="start" x="1171" y="-405.5" font-family="Helvetica,sans-Serif" font-size="10.00">T_MESH::Basic_TMesh</text>
<text text-anchor="middle" x="1224.5" y="-394.5" font-family="Helvetica,sans-Serif" font-size="10.00">::closeLoadingSession</text>
</a>
</g>
</g>
<!-- Node4&#45;&gt;Node5 -->
<g id="edge4" class="edge">
<title>Node4&#45;&gt;Node5</title>
<path fill="none" stroke="midnightblue" d="M1361.74,-254.98C1329.29,-290.11 1267.42,-357.11 1239.63,-387.2"/>
<polygon fill="midnightblue" stroke="midnightblue" points="1364.35,-257.31 1368.57,-247.59 1359.21,-252.56 1364.35,-257.31"/>
</g>
<!-- Node32 -->
<g id="node32" class="node">
<title>Node32</title>
<g id="a_node32"><a xlink:href="../../d6/d27/class_t___m_e_s_h_1_1_basic___t_mesh.html#a14f447ce710157a581ca720442a50744" target="_top" xlink:title="Loads EFF.">
<polygon fill="white" stroke="black" points="845,-217.5 845,-247.5 968,-247.5 968,-217.5 845,-217.5"/>
<text text-anchor="start" x="853" y="-235.5" font-family="Helvetica,sans-Serif" font-size="10.00">T_MESH::Basic_TMesh</text>
<text text-anchor="middle" x="906.5" y="-224.5" font-family="Helvetica,sans-Serif" font-size="10.00">::loadEFF</text>
</a>
</g>
</g>
<!-- Node4&#45;&gt;Node32 -->
<g id="edge45" class="edge">
<title>Node4&#45;&gt;Node32</title>
<path fill="none" stroke="midnightblue" d="M1311.67,-232.5C1218.42,-232.5 1056.03,-232.5 968.16,-232.5"/>
<polygon fill="midnightblue" stroke="midnightblue" points="1311.86,-236 1321.86,-232.5 1311.86,-229 1311.86,-236"/>
</g>
<!-- Node33 -->
<g id="node33" class="node">
<title>Node33</title>
<g id="a_node33"><a xlink:href="../../d6/d27/class_t___m_e_s_h_1_1_basic___t_mesh.html#a3331f7e221b5d90c8362673cc70da0e3" target="_top" xlink:title="Considers triangles as purely geometric entities and recomputes their connectivity based on vertex co...">
<polygon fill="white" stroke="black" points="1163,-173.5 1163,-203.5 1286,-203.5 1286,-173.5 1163,-173.5"/>
<text text-anchor="start" x="1171" y="-191.5" font-family="Helvetica,sans-Serif" font-size="10.00">T_MESH::Basic_TMesh</text>
<text text-anchor="middle" x="1224.5" y="-180.5" font-family="Helvetica,sans-Serif" font-size="10.00">::rebuildConnectivity</text>
</a>
</g>
</g>
<!-- Node4&#45;&gt;Node33 -->
<g id="edge47" class="edge">
<title>Node4&#45;&gt;Node33</title>
<path fill="none" stroke="midnightblue" d="M1318.94,-214.69C1305.73,-210.98 1291.93,-207.12 1279.12,-203.53"/>
<polygon fill="midnightblue" stroke="midnightblue" points="1318.34,-218.15 1328.91,-217.48 1320.22,-211.41 1318.34,-218.15"/>
</g>
<!-- Node6 -->
<g id="node6" class="node">
<title>Node6</title>
<g id="a_node6"><a xlink:href="../../d6/d27/class_t___m_e_s_h_1_1_basic___t_mesh.html#ae34014614b61ea803c9f59e1ca8d54fe" target="_top" xlink:title="Loads OBJ.">
<polygon fill="white" stroke="black" points="845,-529.5 845,-559.5 968,-559.5 968,-529.5 845,-529.5"/>
<text text-anchor="start" x="853" y="-547.5" font-family="Helvetica,sans-Serif" font-size="10.00">T_MESH::Basic_TMesh</text>
<text text-anchor="middle" x="906.5" y="-536.5" font-family="Helvetica,sans-Serif" font-size="10.00">::loadOBJ</text>
</a>
</g>
</g>
<!-- Node5&#45;&gt;Node6 -->
<g id="edge5" class="edge">
<title>Node5&#45;&gt;Node6</title>
<path fill="none" stroke="midnightblue" d="M1199.99,-424.38C1181.39,-440.68 1154.12,-462.48 1127,-476.5 1076.33,-502.71 1013.78,-520.85 968.43,-531.77"/>
<polygon fill="midnightblue" stroke="midnightblue" points="1202.52,-426.81 1207.65,-417.54 1197.86,-421.59 1202.52,-426.81"/>
</g>
<!-- Node26 -->
<g id="node26" class="node">
<title>Node26</title>
<g id="a_node26"><a xlink:href="../../d6/d27/class_t___m_e_s_h_1_1_basic___t_mesh.html#a99e172b1652938b4711784c555e1b141" target="_top" xlink:title="Loads OFF.">
<polygon fill="white" stroke="black" points="845,-480.5 845,-510.5 968,-510.5 968,-480.5 845,-480.5"/>
<text text-anchor="start" x="853" y="-498.5" font-family="Helvetica,sans-Serif" font-size="10.00">T_MESH::Basic_TMesh</text>
<text text-anchor="middle" x="906.5" y="-487.5" font-family="Helvetica,sans-Serif" font-size="10.00">::loadOFF</text>
</a>
</g>
</g>
<!-- Node5&#45;&gt;Node26 -->
<g id="edge33" class="edge">
<title>Node5&#45;&gt;Node26</title>
<path fill="none" stroke="midnightblue" d="M1186.14,-422.28C1168.57,-430.97 1147.1,-440.71 1127,-447.5 1074.52,-465.23 1012.73,-478.06 968.1,-485.97"/>
<polygon fill="midnightblue" stroke="midnightblue" points="1188.11,-425.21 1195.47,-417.59 1184.96,-418.95 1188.11,-425.21"/>
</g>
<!-- Node27 -->
<g id="node27" class="node">
<title>Node27</title>
<g id="a_node27"><a xlink:href="../../d6/d27/class_t___m_e_s_h_1_1_basic___t_mesh.html#a9ab86ddab641aabe9295c41e90dc666c" target="_top" xlink:title="Loads PLY.">
<polygon fill="white" stroke="black" points="845,-431.5 845,-461.5 968,-461.5 968,-431.5 845,-431.5"/>
<text text-anchor="start" x="853" y="-449.5" font-family="Helvetica,sans-Serif" font-size="10.00">T_MESH::Basic_TMesh</text>
<text text-anchor="middle" x="906.5" y="-438.5" font-family="Helvetica,sans-Serif" font-size="10.00">::loadPLY</text>
</a>
</g>
</g>
<!-- Node5&#45;&gt;Node27 -->
<g id="edge35" class="edge">
<title>Node5&#45;&gt;Node27</title>
<path fill="none" stroke="midnightblue" d="M1162.01,-420.07C1150.45,-422.9 1138.41,-425.54 1127,-427.5 1073.84,-436.62 1012.66,-441.46 968.41,-443.96"/>
<polygon fill="midnightblue" stroke="midnightblue" points="1163.17,-423.38 1172.01,-417.54 1161.46,-416.59 1163.17,-423.38"/>
</g>
<!-- Node28 -->
<g id="node28" class="node">
<title>Node28</title>
<g id="a_node28"><a xlink:href="../../d6/d27/class_t___m_e_s_h_1_1_basic___t_mesh.html#a396ed0279c68c7436eedba97669f020b" target="_top" xlink:title="Loads VER&#45;TRI.">
<polygon fill="white" stroke="black" points="1004,-387.5 1004,-417.5 1127,-417.5 1127,-387.5 1004,-387.5"/>
<text text-anchor="start" x="1012" y="-405.5" font-family="Helvetica,sans-Serif" font-size="10.00">T_MESH::Basic_TMesh</text>
<text text-anchor="middle" x="1065.5" y="-394.5" font-family="Helvetica,sans-Serif" font-size="10.00">::loadVerTri</text>
</a>
</g>
</g>
<!-- Node5&#45;&gt;Node28 -->
<g id="edge37" class="edge">
<title>Node5&#45;&gt;Node28</title>
<path fill="none" stroke="midnightblue" d="M1152.79,-402.5C1144.19,-402.5 1135.47,-402.5 1127.04,-402.5"/>
<polygon fill="midnightblue" stroke="midnightblue" points="1152.8,-406 1162.8,-402.5 1152.8,-399 1152.8,-406"/>
</g>
<!-- Node29 -->
<g id="node29" class="node">
<title>Node29</title>
<g id="a_node29"><a xlink:href="../../d6/d27/class_t___m_e_s_h_1_1_basic___t_mesh.html#a0c926e4d0861047162403f5fc6ffeb1b" target="_top" xlink:title="Loads VRML 1.0.">
<polygon fill="white" stroke="black" points="1004,-338.5 1004,-368.5 1127,-368.5 1127,-338.5 1004,-338.5"/>
<text text-anchor="start" x="1012" y="-356.5" font-family="Helvetica,sans-Serif" font-size="10.00">T_MESH::Basic_TMesh</text>
<text text-anchor="middle" x="1065.5" y="-345.5" font-family="Helvetica,sans-Serif" font-size="10.00">::loadVRML1</text>
</a>
</g>
</g>
<!-- Node5&#45;&gt;Node29 -->
<g id="edge39" class="edge">
<title>Node5&#45;&gt;Node29</title>
<path fill="none" stroke="midnightblue" d="M1165.46,-384.39C1148.77,-379.18 1130.76,-373.55 1114.73,-368.55"/>
<polygon fill="midnightblue" stroke="midnightblue" points="1164.53,-387.76 1175.11,-387.4 1166.61,-381.08 1164.53,-387.76"/>
</g>
<!-- Node31 -->
<g id="node31" class="node">
<title>Node31</title>
<g id="a_node31"><a xlink:href="../../d6/d27/class_t___m_e_s_h_1_1_basic___t_mesh.html#aa4f8d986e02686de18f5b6e2333cd8d6" target="_top" xlink:title="Loads VRML 2.0.">
<polygon fill="white" stroke="black" points="1004,-275.5 1004,-305.5 1127,-305.5 1127,-275.5 1004,-275.5"/>
<text text-anchor="start" x="1012" y="-293.5" font-family="Helvetica,sans-Serif" font-size="10.00">T_MESH::Basic_TMesh</text>
<text text-anchor="middle" x="1065.5" y="-282.5" font-family="Helvetica,sans-Serif" font-size="10.00">::loadVRML2</text>
</a>
</g>
</g>
<!-- Node5&#45;&gt;Node31 -->
<g id="edge43" class="edge">
<title>Node5&#45;&gt;Node31</title>
<path fill="none" stroke="midnightblue" d="M1196.25,-381.02C1177.14,-366.17 1150.85,-346.17 1127,-329.5 1115.32,-321.34 1102.05,-312.71 1090.92,-305.65"/>
<polygon fill="midnightblue" stroke="midnightblue" points="1194.19,-383.85 1204.23,-387.24 1198.49,-378.33 1194.19,-383.85"/>
</g>
<!-- Node7 -->
<g id="node7" class="node">
<title>Node7</title>
<g id="a_node7"><a xlink:href="../../d6/d27/class_t___m_e_s_h_1_1_basic___t_mesh.html#a24ff0322eb032b4c87635c809c35c914" target="_top" xlink:title="Initialize the triangle mesh from the file &#39;filename&#39;.">
<polygon fill="white" stroke="black" points="686,-349.5 686,-379.5 809,-379.5 809,-349.5 686,-349.5"/>
<text text-anchor="start" x="694" y="-367.5" font-family="Helvetica,sans-Serif" font-size="10.00">T_MESH::Basic_TMesh</text>
<text text-anchor="middle" x="747.5" y="-356.5" font-family="Helvetica,sans-Serif" font-size="10.00">::load</text>
</a>
</g>
</g>
<!-- Node6&#45;&gt;Node7 -->
<g id="edge6" class="edge">
<title>Node6&#45;&gt;Node7</title>
<path fill="none" stroke="midnightblue" d="M849.79,-524.15C848.13,-523 846.53,-521.78 845,-520.5 797.15,-480.42 766,-410.27 754.03,-379.59"/>
<polygon fill="midnightblue" stroke="midnightblue" points="848.15,-527.25 858.51,-529.45 851.78,-521.26 848.15,-527.25"/>
</g>
<!-- Node8 -->
<g id="node8" class="node">
<title>Node8</title>
<g id="a_node8"><a xlink:href="../../d6/d27/class_t___m_e_s_h_1_1_basic___t_mesh.html#afe360f55844b79823d045599dc1ea937" target="_top" xlink:title="Append another triangle mesh to the existing one.">
<polygon fill="white" stroke="black" points="527,-420.5 527,-450.5 650,-450.5 650,-420.5 527,-420.5"/>
<text text-anchor="start" x="535" y="-438.5" font-family="Helvetica,sans-Serif" font-size="10.00">T_MESH::Basic_TMesh</text>
<text text-anchor="middle" x="588.5" y="-427.5" font-family="Helvetica,sans-Serif" font-size="10.00">::append</text>
</a>
</g>
</g>
<!-- Node7&#45;&gt;Node8 -->
<g id="edge7" class="edge">
<title>Node7&#45;&gt;Node8</title>
<path fill="none" stroke="midnightblue" d="M707.48,-384.34C690.03,-392.99 669.13,-403.06 650,-411.5 643.18,-414.51 635.85,-417.56 628.73,-420.44"/>
<polygon fill="midnightblue" stroke="midnightblue" points="709.39,-387.29 716.78,-379.7 706.27,-381.03 709.39,-387.29"/>
</g>
<!-- Node9 -->
<g id="node9" class="node">
<title>Node9</title>
<g id="a_node9"><a xlink:href="../../d2/d68/class_export_open_scad_tool.html#a6e48e9b58a764bc8032b1fbc4082603d" target="_top" xlink:title=" ">
<polygon fill="white" stroke="black" points="534,-371.5 534,-401.5 643,-401.5 643,-371.5 534,-371.5"/>
<text text-anchor="start" x="542" y="-389.5" font-family="Helvetica,sans-Serif" font-size="10.00">ExportOpenScadTool</text>
<text text-anchor="middle" x="588.5" y="-378.5" font-family="Helvetica,sans-Serif" font-size="10.00">::fixMesh</text>
</a>
</g>
</g>
<!-- Node7&#45;&gt;Node9 -->
<g id="edge8" class="edge">
<title>Node7&#45;&gt;Node9</title>
<path fill="none" stroke="midnightblue" d="M675.8,-374.41C664.83,-375.94 653.65,-377.51 643.13,-378.99"/>
<polygon fill="midnightblue" stroke="midnightblue" points="676.38,-377.86 685.8,-373.01 675.41,-370.93 676.38,-377.86"/>
</g>
<!-- Node14 -->
<g id="node14" class="node">
<title>Node14</title>
<g id="a_node14"><a xlink:href="../../dd/d00/class_export_s_t_l_tool.html#a82d1e11c365c1ed2adf6d831b7f6014f" target="_top" xlink:title=" ">
<polygon fill="white" stroke="black" points="528,-333 528,-352 649,-352 649,-333 528,-333"/>
<text text-anchor="middle" x="588.5" y="-340" font-family="Helvetica,sans-Serif" font-size="10.00">ExportSTLTool::fixMesh</text>
</a>
</g>
</g>
<!-- Node7&#45;&gt;Node14 -->
<g id="edge15" class="edge">
<title>Node7&#45;&gt;Node14</title>
<path fill="none" stroke="midnightblue" d="M675.78,-354.59C666.84,-353.34 657.75,-352.06 649.01,-350.84"/>
<polygon fill="midnightblue" stroke="midnightblue" points="675.41,-358.07 685.8,-355.99 676.38,-351.14 675.41,-358.07"/>
</g>
<!-- Node16 -->
<g id="node16" class="node">
<title>Node16</title>
<g id="a_node16"><a xlink:href="../../d9/dc6/class_main_window.html#a15f9fa9fe71b50669ecf5f5a3a1ce90e" target="_top" xlink:title="Import STL / OBJ mesh into the scene.">
<polygon fill="white" stroke="black" points="528,-178 528,-197 649,-197 649,-178 528,-178"/>
<text text-anchor="middle" x="588.5" y="-185" font-family="Helvetica,sans-Serif" font-size="10.00">MainWindow::loadMesh</text>
</a>
</g>
</g>
<!-- Node7&#45;&gt;Node16 -->
<g id="edge17" class="edge">
<title>Node7&#45;&gt;Node16</title>
<path fill="none" stroke="midnightblue" d="M726.27,-341.69C691.56,-302.56 622.1,-224.25 597.98,-197.06"/>
<polygon fill="midnightblue" stroke="midnightblue" points="723.86,-344.25 733.11,-349.41 729.1,-339.61 723.86,-344.25"/>
</g>
<!-- Node10 -->
<g id="node10" class="node">
<title>Node10</title>
<g id="a_node10"><a xlink:href="../../d2/d68/class_export_open_scad_tool.html#a2e36901501e307b74705aa84f4227d67" target="_top" xlink:title="Export the wiring in the openscad format.">
<polygon fill="white" stroke="black" points="362,-371.5 362,-401.5 471,-401.5 471,-371.5 362,-371.5"/>
<text text-anchor="start" x="370" y="-389.5" font-family="Helvetica,sans-Serif" font-size="10.00">ExportOpenScadTool</text>
<text text-anchor="middle" x="416.5" y="-378.5" font-family="Helvetica,sans-Serif" font-size="10.00">::writeWiring</text>
</a>
</g>
</g>
<!-- Node9&#45;&gt;Node10 -->
<g id="edge9" class="edge">
<title>Node9&#45;&gt;Node10</title>
<path fill="none" stroke="midnightblue" d="M523.7,-386.5C506.42,-386.5 487.9,-386.5 471.23,-386.5"/>
<polygon fill="midnightblue" stroke="midnightblue" points="523.71,-390 533.71,-386.5 523.71,-383 523.71,-390"/>
</g>
<!-- Node11 -->
<g id="node11" class="node">
<title>Node11</title>
<g id="a_node11"><a xlink:href="../../d2/d68/class_export_open_scad_tool.html#a71ef67a238fb9cd74563b65d77c1ea73" target="_top" xlink:title=" ">
<polygon fill="white" stroke="black" points="13,-371.5 13,-401.5 122,-401.5 122,-371.5 13,-371.5"/>
<text text-anchor="start" x="21" y="-389.5" font-family="Helvetica,sans-Serif" font-size="10.00">ExportOpenScadTool</text>
<text text-anchor="middle" x="67.5" y="-378.5" font-family="Helvetica,sans-Serif" font-size="10.00">::execute</text>
</a>
</g>
</g>
<!-- Node10&#45;&gt;Node11 -->
<g id="edge10" class="edge">
<title>Node10&#45;&gt;Node11</title>
<path fill="none" stroke="midnightblue" d="M351.75,-403.59C336.85,-406.87 320.96,-409.81 306,-411.5 246.38,-418.22 230.57,-418.66 171,-411.5 154.09,-409.47 135.94,-405.61 119.68,-401.53"/>
<polygon fill="midnightblue" stroke="midnightblue" points="352.92,-406.91 361.89,-401.27 351.36,-400.08 352.92,-406.91"/>
</g>
<!-- Node12 -->
<g id="node12" class="node">
<title>Node12</title>
<g id="a_node12"><a xlink:href="../../d2/d68/class_export_open_scad_tool.html#a9c35cf64ece9ee328df6ebfd080c0689" target="_top" xlink:title="Export the meshdifference between mesh and wiring in the openscad format.">
<polygon fill="white" stroke="black" points="184,-371.5 184,-401.5 293,-401.5 293,-371.5 184,-371.5"/>
<text text-anchor="start" x="192" y="-389.5" font-family="Helvetica,sans-Serif" font-size="10.00">ExportOpenScadTool</text>
<text text-anchor="middle" x="238.5" y="-378.5" font-family="Helvetica,sans-Serif" font-size="10.00">::writeDifference</text>
</a>
</g>
</g>
<!-- Node10&#45;&gt;Node12 -->
<g id="edge11" class="edge">
<title>Node10&#45;&gt;Node12</title>
<path fill="none" stroke="midnightblue" d="M351.6,-386.5C332.45,-386.5 311.66,-386.5 293.24,-386.5"/>
<polygon fill="midnightblue" stroke="midnightblue" points="351.74,-390 361.74,-386.5 351.74,-383 351.74,-390"/>
</g>
<!-- Node13 -->
<g id="node13" class="node">
<title>Node13</title>
<g id="a_node13"><a xlink:href="../../d2/d68/class_export_open_scad_tool.html#adc9cf506ecd2ef6e33f37f2eb206da1a" target="_top" xlink:title="Export the meshdifference between mesh and magnets in the openscad format.">
<polygon fill="white" stroke="black" points="176,-322.5 176,-352.5 301,-352.5 301,-322.5 176,-322.5"/>
<text text-anchor="start" x="184" y="-340.5" font-family="Helvetica,sans-Serif" font-size="10.00">ExportOpenScadTool</text>
<text text-anchor="middle" x="238.5" y="-329.5" font-family="Helvetica,sans-Serif" font-size="10.00">::writeDifferenceMagnets</text>
</a>
</g>
</g>
<!-- Node10&#45;&gt;Node13 -->
<g id="edge13" class="edge">
<title>Node10&#45;&gt;Node13</title>
<path fill="none" stroke="midnightblue" d="M351.91,-368.8C332.78,-363.47 311.99,-357.68 293.54,-352.55"/>
<polygon fill="midnightblue" stroke="midnightblue" points="351.17,-372.22 361.74,-371.53 353.04,-365.48 351.17,-372.22"/>
</g>
<!-- Node12&#45;&gt;Node11 -->
<g id="edge12" class="edge">
<title>Node12&#45;&gt;Node11</title>
<path fill="none" stroke="midnightblue" d="M173.25,-386.5C156.42,-386.5 138.44,-386.5 122.21,-386.5"/>
<polygon fill="midnightblue" stroke="midnightblue" points="173.56,-390 183.56,-386.5 173.56,-383 173.56,-390"/>
</g>
<!-- Node13&#45;&gt;Node11 -->
<g id="edge14" class="edge">
<title>Node13&#45;&gt;Node11</title>
<path fill="none" stroke="midnightblue" d="M175.78,-355.39C157.61,-360.66 137.91,-366.38 120.41,-371.45"/>
<polygon fill="midnightblue" stroke="midnightblue" points="176.79,-358.75 185.42,-352.6 174.84,-352.02 176.79,-358.75"/>
</g>
<!-- Node15 -->
<g id="node15" class="node">
<title>Node15</title>
<g id="a_node15"><a xlink:href="../../dd/d00/class_export_s_t_l_tool.html#a218420198ac8fef5b9f9a8acc889307d" target="_top" xlink:title=" ">
<polygon fill="white" stroke="black" points="356,-333 356,-352 477,-352 477,-333 356,-333"/>
<text text-anchor="middle" x="416.5" y="-340" font-family="Helvetica,sans-Serif" font-size="10.00">ExportSTLTool::execute</text>
</a>
</g>
</g>
<!-- Node14&#45;&gt;Node15 -->
<g id="edge16" class="edge">
<title>Node14&#45;&gt;Node15</title>
<path fill="none" stroke="midnightblue" d="M517.46,-342.5C504.08,-342.5 490.2,-342.5 477.18,-342.5"/>
<polygon fill="midnightblue" stroke="midnightblue" points="517.56,-346 527.56,-342.5 517.56,-339 517.56,-346"/>
</g>
<!-- Node17 -->
<g id="node17" class="node">
<title>Node17</title>
<g id="a_node17"><a xlink:href="../../d9/dc6/class_main_window.html#a6e3c9bc26115fb1b1664607e58716641" target="_top" xlink:title=" ">
<polygon fill="white" stroke="black" points="343.5,-295 343.5,-314 489.5,-314 489.5,-295 343.5,-295"/>
<text text-anchor="middle" x="416.5" y="-302" font-family="Helvetica,sans-Serif" font-size="10.00">MainWindow::slotImportMesh</text>
</a>
</g>
</g>
<!-- Node16&#45;&gt;Node17 -->
<g id="edge18" class="edge">
<title>Node16&#45;&gt;Node17</title>
<path fill="none" stroke="midnightblue" d="M574.72,-205.5C558.01,-227.68 526.63,-264.95 491,-285.5 484.26,-289.38 476.73,-292.49 469.12,-294.96"/>
<polygon fill="midnightblue" stroke="midnightblue" points="577.66,-207.4 580.76,-197.27 572.02,-203.26 577.66,-207.4"/>
</g>
<!-- Node20 -->
<g id="node20" class="node">
<title>Node20</title>
<g id="a_node20"><a xlink:href="../../d9/dc6/class_main_window.html#a46bb2fea8ddeab75e15a223c291116b6" target="_top" xlink:title=" ">
<polygon fill="white" stroke="black" points="342,-245.5 342,-275.5 491,-275.5 491,-245.5 342,-245.5"/>
<text text-anchor="start" x="350" y="-263.5" font-family="Helvetica,sans-Serif" font-size="10.00">MainWindow::slotOptimization</text>
<text text-anchor="middle" x="416.5" y="-252.5" font-family="Helvetica,sans-Serif" font-size="10.00">BenchmarkBunnyLowPoly</text>
</a>
</g>
</g>
<!-- Node16&#45;&gt;Node20 -->
<g id="edge21" class="edge">
<title>Node16&#45;&gt;Node20</title>
<path fill="none" stroke="midnightblue" d="M561.03,-201.87C541.89,-211.96 515.23,-225.4 491,-235.5 482.66,-238.97 473.66,-242.34 464.9,-245.42"/>
<polygon fill="midnightblue" stroke="midnightblue" points="562.86,-204.86 570.04,-197.07 559.57,-198.68 562.86,-204.86"/>
</g>
<!-- Node21 -->
<g id="node21" class="node">
<title>Node21</title>
<g id="a_node21"><a xlink:href="../../d9/dc6/class_main_window.html#affed0fab82fd390e2762933c6dca9124" target="_top" xlink:title=" ">
<polygon fill="white" stroke="black" points="342,-196.5 342,-226.5 491,-226.5 491,-196.5 342,-196.5"/>
<text text-anchor="start" x="350" y="-214.5" font-family="Helvetica,sans-Serif" font-size="10.00">MainWindow::slotOptimization</text>
<text text-anchor="middle" x="416.5" y="-203.5" font-family="Helvetica,sans-Serif" font-size="10.00">BenchmarkCorona</text>
</a>
</g>
</g>
<!-- Node16&#45;&gt;Node21 -->
<g id="edge23" class="edge">
<title>Node16&#45;&gt;Node21</title>
<path fill="none" stroke="midnightblue" d="M517.5,-197.38C508.82,-198.61 499.93,-199.86 491.2,-201.1"/>
<polygon fill="midnightblue" stroke="midnightblue" points="518.15,-200.83 527.56,-195.96 517.17,-193.89 518.15,-200.83"/>
</g>
<!-- Node22 -->
<g id="node22" class="node">
<title>Node22</title>
<g id="a_node22"><a xlink:href="../../d9/dc6/class_main_window.html#adfdb8fcb8685844e8ce11bfb41b83b7d" target="_top" xlink:title=" ">
<polygon fill="white" stroke="black" points="342,-147.5 342,-177.5 491,-177.5 491,-147.5 342,-147.5"/>
<text text-anchor="start" x="350" y="-165.5" font-family="Helvetica,sans-Serif" font-size="10.00">MainWindow::slotOptimization</text>
<text text-anchor="middle" x="416.5" y="-154.5" font-family="Helvetica,sans-Serif" font-size="10.00">BenchmarkCthulhu</text>
</a>
</g>
</g>
<!-- Node16&#45;&gt;Node22 -->
<g id="edge25" class="edge">
<title>Node16&#45;&gt;Node22</title>
<path fill="none" stroke="midnightblue" d="M517.5,-177.21C508.82,-175.93 499.93,-174.62 491.2,-173.34"/>
<polygon fill="midnightblue" stroke="midnightblue" points="517.16,-180.69 527.56,-178.69 518.18,-173.77 517.16,-180.69"/>
</g>
<!-- Node23 -->
<g id="node23" class="node">
<title>Node23</title>
<g id="a_node23"><a xlink:href="../../d9/dc6/class_main_window.html#a5283a0d7aeeafd409c69b272053f3986" target="_top" xlink:title=" ">
<polygon fill="white" stroke="black" points="342,-98.5 342,-128.5 491,-128.5 491,-98.5 342,-98.5"/>
<text text-anchor="start" x="350" y="-116.5" font-family="Helvetica,sans-Serif" font-size="10.00">MainWindow::slotOptimization</text>
<text text-anchor="middle" x="416.5" y="-105.5" font-family="Helvetica,sans-Serif" font-size="10.00">BenchmarkCube</text>
</a>
</g>
</g>
<!-- Node16&#45;&gt;Node23 -->
<g id="edge27" class="edge">
<title>Node16&#45;&gt;Node23</title>
<path fill="none" stroke="midnightblue" d="M562.18,-172.94C543.03,-162.28 515.86,-147.92 491,-137.5 483.45,-134.34 475.32,-131.32 467.32,-128.55"/>
<polygon fill="midnightblue" stroke="midnightblue" points="560.73,-176.14 571.16,-177.99 564.16,-170.03 560.73,-176.14"/>
</g>
<!-- Node24 -->
<g id="node24" class="node">
<title>Node24</title>
<g id="a_node24"><a xlink:href="../../d9/dc6/class_main_window.html#a0c92ca2d04a79a1580c2e8e136b82682" target="_top" xlink:title=" ">
<polygon fill="white" stroke="black" points="342,-49.5 342,-79.5 491,-79.5 491,-49.5 342,-49.5"/>
<text text-anchor="start" x="350" y="-67.5" font-family="Helvetica,sans-Serif" font-size="10.00">MainWindow::slotOptimization</text>
<text text-anchor="middle" x="416.5" y="-56.5" font-family="Helvetica,sans-Serif" font-size="10.00">BenchmarkSphere</text>
</a>
</g>
</g>
<!-- Node16&#45;&gt;Node24 -->
<g id="edge29" class="edge">
<title>Node16&#45;&gt;Node24</title>
<path fill="none" stroke="midnightblue" d="M574.55,-169.67C557.66,-147.62 526.1,-110.35 491,-88.5 485.53,-85.09 479.53,-82.12 473.38,-79.54"/>
<polygon fill="midnightblue" stroke="midnightblue" points="571.87,-171.93 580.66,-177.83 577.47,-167.73 571.87,-171.93"/>
</g>
<!-- Node25 -->
<g id="node25" class="node">
<title>Node25</title>
<g id="a_node25"><a xlink:href="../../d9/dc6/class_main_window.html#a86cd359f80311725589d0861dd7a9851" target="_top" xlink:title=" ">
<polygon fill="white" stroke="black" points="342,-0.5 342,-30.5 491,-30.5 491,-0.5 342,-0.5"/>
<text text-anchor="start" x="350" y="-18.5" font-family="Helvetica,sans-Serif" font-size="10.00">MainWindow::slotOptimization</text>
<text text-anchor="middle" x="416.5" y="-7.5" font-family="Helvetica,sans-Serif" font-size="10.00">BenchmarkUChannel</text>
</a>
</g>
</g>
<!-- Node16&#45;&gt;Node25 -->
<g id="edge31" class="edge">
<title>Node16&#45;&gt;Node25</title>
<path fill="none" stroke="midnightblue" d="M580.14,-168.59C566.98,-137.21 536.48,-74.39 491,-39.5 486.53,-36.07 481.54,-33.12 476.34,-30.58"/>
<polygon fill="midnightblue" stroke="midnightblue" points="576.93,-169.99 583.93,-177.94 583.42,-167.35 576.93,-169.99"/>
</g>
<!-- Node18 -->
<g id="node18" class="node">
<title>Node18</title>
<g id="a_node18"><a xlink:href="../../d9/dc6/class_main_window.html#a33dddfc15db4053f9117728538e7ece4" target="_top" xlink:title="Set up qt specific signal and slots part for enabling user interaction.">
<polygon fill="white" stroke="black" points="171,-147.5 171,-177.5 306,-177.5 306,-147.5 171,-147.5"/>
<text text-anchor="start" x="179" y="-165.5" font-family="Helvetica,sans-Serif" font-size="10.00">MainWindow::setupSignals</text>
<text text-anchor="middle" x="238.5" y="-154.5" font-family="Helvetica,sans-Serif" font-size="10.00">AndSlots</text>
</a>
</g>
</g>
<!-- Node17&#45;&gt;Node18 -->
<g id="edge19" class="edge">
<title>Node17&#45;&gt;Node18</title>
<path fill="none" stroke="midnightblue" d="M352.63,-291.18C348.93,-289.51 345.35,-287.62 342,-285.5 297.61,-257.39 262.9,-203.75 247.77,-177.59"/>
<polygon fill="midnightblue" stroke="midnightblue" points="351.46,-294.48 362.05,-294.93 354.05,-287.98 351.46,-294.48"/>
</g>
<!-- Node19 -->
<g id="node19" class="node">
<title>Node19</title>
<g id="a_node19"><a xlink:href="../../d9/dc6/class_main_window.html#a996c5a2b6f77944776856f08ec30858d" target="_top" xlink:title=" ">
<polygon fill="white" stroke="black" points="0,-153 0,-172 135,-172 135,-153 0,-153"/>
<text text-anchor="middle" x="67.5" y="-160" font-family="Helvetica,sans-Serif" font-size="10.00">MainWindow::MainWindow</text>
</a>
</g>
</g>
<!-- Node18&#45;&gt;Node19 -->
<g id="edge20" class="edge">
<title>Node18&#45;&gt;Node19</title>
<path fill="none" stroke="midnightblue" d="M160.45,-162.5C151.98,-162.5 143.41,-162.5 135.08,-162.5"/>
<polygon fill="midnightblue" stroke="midnightblue" points="160.71,-166 170.71,-162.5 160.71,-159 160.71,-166"/>
</g>
<!-- Node20&#45;&gt;Node18 -->
<g id="edge22" class="edge">
<title>Node20&#45;&gt;Node18</title>
<path fill="none" stroke="midnightblue" d="M355.37,-241.68C350.78,-239.75 346.27,-237.69 342,-235.5 310.11,-219.17 277.01,-193.8 257.34,-177.68"/>
<polygon fill="midnightblue" stroke="midnightblue" points="354.29,-245.02 364.88,-245.46 356.88,-238.51 354.29,-245.02"/>
</g>
<!-- Node21&#45;&gt;Node18 -->
<g id="edge24" class="edge">
<title>Node21&#45;&gt;Node18</title>
<path fill="none" stroke="midnightblue" d="M351.49,-193.68C332.49,-188.39 311.87,-182.65 293.56,-177.55"/>
<polygon fill="midnightblue" stroke="midnightblue" points="350.69,-197.09 361.26,-196.4 352.56,-190.34 350.69,-197.09"/>
</g>
<!-- Node22&#45;&gt;Node18 -->
<g id="edge26" class="edge">
<title>Node22&#45;&gt;Node18</title>
<path fill="none" stroke="midnightblue" d="M331.8,-162.5C323.18,-162.5 314.5,-162.5 306.09,-162.5"/>
<polygon fill="midnightblue" stroke="midnightblue" points="331.88,-166 341.88,-162.5 331.88,-159 331.88,-166"/>
</g>
<!-- Node23&#45;&gt;Node18 -->
<g id="edge28" class="edge">
<title>Node23&#45;&gt;Node18</title>
<path fill="none" stroke="midnightblue" d="M351.49,-131.32C332.49,-136.61 311.87,-142.35 293.56,-147.45"/>
<polygon fill="midnightblue" stroke="midnightblue" points="352.56,-134.66 361.26,-128.6 350.69,-127.91 352.56,-134.66"/>
</g>
<!-- Node24&#45;&gt;Node18 -->
<g id="edge30" class="edge">
<title>Node24&#45;&gt;Node18</title>
<path fill="none" stroke="midnightblue" d="M353,-83.4C349.23,-85 345.53,-86.7 342,-88.5 309.72,-104.92 276.47,-130.91 256.91,-147.32"/>
<polygon fill="midnightblue" stroke="midnightblue" points="354.51,-86.57 362.5,-79.61 351.91,-80.06 354.51,-86.57"/>
</g>
<!-- Node25&#45;&gt;Node18 -->
<g id="edge32" class="edge">
<title>Node25&#45;&gt;Node18</title>
<path fill="none" stroke="midnightblue" d="M349.08,-35.16C346.64,-36.52 344.27,-37.96 342,-39.5 298.75,-68.83 263.74,-121.41 248.2,-147.28"/>
<polygon fill="midnightblue" stroke="midnightblue" points="350.81,-38.21 358.2,-30.63 347.69,-31.95 350.81,-38.21"/>
</g>
<!-- Node26&#45;&gt;Node7 -->
<g id="edge34" class="edge">
<title>Node26&#45;&gt;Node7</title>
<path fill="none" stroke="midnightblue" d="M851.61,-475.69C849.32,-474.36 847.11,-472.97 845,-471.5 807.61,-445.52 774.61,-402.4 758.66,-379.64"/>
<polygon fill="midnightblue" stroke="midnightblue" points="850.19,-478.9 860.67,-480.46 853.45,-472.7 850.19,-478.9"/>
</g>
<!-- Node27&#45;&gt;Node7 -->
<g id="edge36" class="edge">
<title>Node27&#45;&gt;Node7</title>
<path fill="none" stroke="midnightblue" d="M865.46,-426.88C858.61,-423.46 851.59,-419.91 845,-416.5 821.5,-404.35 795.07,-390.06 775.82,-379.54"/>
<polygon fill="midnightblue" stroke="midnightblue" points="864.11,-430.12 874.62,-431.44 867.22,-423.85 864.11,-430.12"/>
</g>
<!-- Node28&#45;&gt;Node7 -->
<g id="edge38" class="edge">
<title>Node28&#45;&gt;Node7</title>
<path fill="none" stroke="midnightblue" d="M993.84,-394C938.33,-387.33 861.86,-378.13 809.12,-371.79"/>
<polygon fill="midnightblue" stroke="midnightblue" points="993.6,-397.5 1003.95,-395.22 994.44,-390.55 993.6,-397.5"/>
</g>
<!-- Node29&#45;&gt;Node7 -->
<g id="edge40" class="edge">
<title>Node29&#45;&gt;Node7</title>
<path fill="none" stroke="midnightblue" d="M993.84,-355.96C938.33,-357.89 861.86,-360.55 809.12,-362.39"/>
<polygon fill="midnightblue" stroke="midnightblue" points="994.07,-359.45 1003.95,-355.61 993.83,-352.46 994.07,-359.45"/>
</g>
<!-- Node30 -->
<g id="node30" class="node">
<title>Node30</title>
<g id="a_node30"><a xlink:href="../../d6/d27/class_t___m_e_s_h_1_1_basic___t_mesh.html#aa71c313ca25eae9f2a9ed8a162b905e8" target="_top" xlink:title="Loads IV.">
<polygon fill="white" stroke="black" points="845,-305.5 845,-335.5 968,-335.5 968,-305.5 845,-305.5"/>
<text text-anchor="start" x="853" y="-323.5" font-family="Helvetica,sans-Serif" font-size="10.00">T_MESH::Basic_TMesh</text>
<text text-anchor="middle" x="906.5" y="-312.5" font-family="Helvetica,sans-Serif" font-size="10.00">::loadIV</text>
</a>
</g>
</g>
<!-- Node29&#45;&gt;Node30 -->
<g id="edge41" class="edge">
<title>Node29&#45;&gt;Node30</title>
<path fill="none" stroke="midnightblue" d="M993.79,-338.64C985.19,-336.83 976.47,-335 968.04,-333.22"/>
<polygon fill="midnightblue" stroke="midnightblue" points="993.29,-342.11 1003.8,-340.74 994.73,-335.26 993.29,-342.11"/>
</g>
<!-- Node30&#45;&gt;Node7 -->
<g id="edge42" class="edge">
<title>Node30&#45;&gt;Node7</title>
<path fill="none" stroke="midnightblue" d="M841.94,-338.31C828.73,-342.02 814.93,-345.88 802.12,-349.47"/>
<polygon fill="midnightblue" stroke="midnightblue" points="843.22,-341.59 851.91,-335.52 841.34,-334.85 843.22,-341.59"/>
</g>
<!-- Node31&#45;&gt;Node7 -->
<g id="edge44" class="edge">
<title>Node31&#45;&gt;Node7</title>
<path fill="none" stroke="midnightblue" d="M993.71,-282.21C949.8,-279.54 892.83,-280.62 845,-296.5 812.52,-307.29 781.35,-332.94 763.6,-349.47"/>
<polygon fill="midnightblue" stroke="midnightblue" points="993.51,-285.7 1003.72,-282.9 993.98,-278.72 993.51,-285.7"/>
</g>
<!-- Node32&#45;&gt;Node7 -->
<g id="edge46" class="edge">
<title>Node32&#45;&gt;Node7</title>
<path fill="none" stroke="midnightblue" d="M860.57,-252.52C855.15,-255.58 849.83,-258.93 845,-262.5 809.91,-288.44 776.71,-327.98 759.92,-349.41"/>
<polygon fill="midnightblue" stroke="midnightblue" points="862.55,-255.43 869.73,-247.63 859.26,-249.26 862.55,-255.43"/>
</g>
<!-- Node34 -->
<g id="node34" class="node">
<title>Node34</title>
<g id="a_node34"><a xlink:href="../../d6/d27/class_t___m_e_s_h_1_1_basic___t_mesh.html#ab6066b06c1bf3f54cf8f67b6aafb810e" target="_top" xlink:title="Loads STL.">
<polygon fill="white" stroke="black" points="1004,-173.5 1004,-203.5 1127,-203.5 1127,-173.5 1004,-173.5"/>
<text text-anchor="start" x="1012" y="-191.5" font-family="Helvetica,sans-Serif" font-size="10.00">T_MESH::Basic_TMesh</text>
<text text-anchor="middle" x="1065.5" y="-180.5" font-family="Helvetica,sans-Serif" font-size="10.00">::loadSTL</text>
</a>
</g>
</g>
<!-- Node33&#45;&gt;Node34 -->
<g id="edge48" class="edge">
<title>Node33&#45;&gt;Node34</title>
<path fill="none" stroke="midnightblue" d="M1152.79,-188.5C1144.19,-188.5 1135.47,-188.5 1127.04,-188.5"/>
<polygon fill="midnightblue" stroke="midnightblue" points="1152.8,-192 1162.8,-188.5 1152.8,-185 1152.8,-192"/>
</g>
<!-- Node34&#45;&gt;Node7 -->
<g id="edge49" class="edge">
<title>Node34&#45;&gt;Node7</title>
<path fill="none" stroke="midnightblue" d="M993.47,-179.06C947.81,-176.56 889.03,-180.32 845,-207.5 791.09,-240.77 762.85,-316.5 752.81,-349.1"/>
<polygon fill="midnightblue" stroke="midnightblue" points="993.38,-182.56 1003.59,-179.72 993.84,-175.58 993.38,-182.56"/>
</g>
</g>
</svg>
