<?xml version="1.0" encoding="UTF-8" standalone="no"?>
<!DOCTYPE svg PUBLIC "-//W3C//DTD SVG 1.1//EN"
 "http://www.w3.org/Graphics/SVG/1.1/DTD/svg11.dtd">
<!-- Generated by graphviz version 2.44.1 (0)
 -->
<!-- Title: T_MESH::Edge::merge Pages: 1 -->
<svg width="837pt" height="325pt"
 viewBox="0.00 0.00 837.00 324.50" xmlns="http://www.w3.org/2000/svg" xmlns:xlink="http://www.w3.org/1999/xlink">
<g id="graph0" class="graph" transform="scale(1 1) rotate(0) translate(4 320.5)">
<title>T_MESH::Edge::merge</title>
<polygon fill="white" stroke="transparent" points="-4,4 -4,-320.5 833,-320.5 833,4 -4,4"/>
<!-- Node1 -->
<g id="node1" class="node">
<title>Node1</title>
<g id="a_node1"><a xlink:title="Merge with another boundary edge.">
<polygon fill="#bfbfbf" stroke="black" points="0,-152.5 0,-171.5 119,-171.5 119,-152.5 0,-152.5"/>
<text text-anchor="middle" x="59.5" y="-159.5" font-family="Helvetica,sans-Serif" font-size="10.00">T_MESH::Edge::merge</text>
</a>
</g>
</g>
<!-- Node2 -->
<g id="node2" class="node">
<title>Node2</title>
<g id="a_node2"><a xlink:href="../../da/da2/class_t___m_e_s_h_1_1_edge.html#a5cfa58598dda499ca47c6963ef75ea87" target="_top" xlink:title="If the edge is on boundary return its only incident triangle. NULL otherwise.">
<polygon fill="white" stroke="black" points="161,-286 161,-316 307,-316 307,-286 161,-286"/>
<text text-anchor="start" x="169" y="-304" font-family="Helvetica,sans-Serif" font-size="10.00">T_MESH::Edge::getBoundary</text>
<text text-anchor="middle" x="234" y="-293" font-family="Helvetica,sans-Serif" font-size="10.00">Triangle</text>
</a>
</g>
</g>
<!-- Node1&#45;&gt;Node2 -->
<g id="edge1" class="edge">
<title>Node1&#45;&gt;Node2</title>
<path fill="none" stroke="midnightblue" d="M66.4,-171.55C79.73,-192.39 114.2,-242.37 155,-271 160.67,-274.98 166.93,-278.51 173.37,-281.63"/>
<polygon fill="midnightblue" stroke="midnightblue" points="172.33,-285 182.88,-285.91 175.2,-278.62 172.33,-285"/>
</g>
<!-- Node3 -->
<g id="node3" class="node">
<title>Node3</title>
<g id="a_node3"><a xlink:href="../../d5/d7f/class_t___m_e_s_h_1_1_vertex.html#af74a29c7daa03825b0156bfe7f64052a" target="_top" xlink:title="Returns the edge connecting this vertex to &#39;v&#39;. NULL if such an edge does not exist.">
<polygon fill="white" stroke="black" points="167.5,-209.5 167.5,-228.5 300.5,-228.5 300.5,-209.5 167.5,-209.5"/>
<text text-anchor="middle" x="234" y="-216.5" font-family="Helvetica,sans-Serif" font-size="10.00">T_MESH::Vertex::getEdge</text>
</a>
</g>
</g>
<!-- Node1&#45;&gt;Node3 -->
<g id="edge2" class="edge">
<title>Node1&#45;&gt;Node3</title>
<path fill="none" stroke="midnightblue" d="M86.89,-171.51C105.79,-178.25 131.89,-187.41 155,-195 166.78,-198.87 179.62,-202.89 191.42,-206.52"/>
<polygon fill="midnightblue" stroke="midnightblue" points="190.45,-209.89 201.04,-209.46 192.5,-203.19 190.45,-209.89"/>
</g>
<!-- Node4 -->
<g id="node4" class="node">
<title>Node4</title>
<g id="a_node4"><a xlink:href="../../da/da2/class_t___m_e_s_h_1_1_edge.html#aef981891343c94489f00b060bd654b6c" target="_top" xlink:title="Vertex opposite to &#39;v&#39;. NULL if &#39;v&#39; is not a vertex of the edge.">
<polygon fill="white" stroke="black" points="498.5,-266.5 498.5,-285.5 654.5,-285.5 654.5,-266.5 498.5,-266.5"/>
<text text-anchor="middle" x="576.5" y="-273.5" font-family="Helvetica,sans-Serif" font-size="10.00">T_MESH::Edge::oppositeVertex</text>
</a>
</g>
</g>
<!-- Node1&#45;&gt;Node4 -->
<g id="edge18" class="edge">
<title>Node1&#45;&gt;Node4</title>
<path fill="none" stroke="midnightblue" d="M68.71,-171.56C83.82,-188.41 117.91,-223.02 155,-238 263.7,-281.88 400.68,-285.77 488.2,-282.5"/>
<polygon fill="midnightblue" stroke="midnightblue" points="488.51,-286 498.35,-282.09 488.22,-279 488.51,-286"/>
</g>
<!-- Node5 -->
<g id="node5" class="node">
<title>Node5</title>
<g id="a_node5"><a xlink:href="../../d5/d7f/class_t___m_e_s_h_1_1_vertex.html#a66b49df1416ddcee6be0e1abe3aadda9" target="_top" xlink:title="List of incident edges.">
<polygon fill="white" stroke="black" points="349,-171.5 349,-190.5 459,-190.5 459,-171.5 349,-171.5"/>
<text text-anchor="middle" x="404" y="-178.5" font-family="Helvetica,sans-Serif" font-size="10.00">T_MESH::Vertex::VE</text>
</a>
</g>
</g>
<!-- Node1&#45;&gt;Node5 -->
<g id="edge21" class="edge">
<title>Node1&#45;&gt;Node5</title>
<path fill="none" stroke="midnightblue" d="M119.38,-165.27C180.43,-168.65 275.61,-173.93 338.62,-177.43"/>
<polygon fill="midnightblue" stroke="midnightblue" points="338.66,-180.94 348.84,-178 339.05,-173.95 338.66,-180.94"/>
</g>
<!-- Node15 -->
<g id="node15" class="node">
<title>Node15</title>
<g id="a_node15"><a xlink:href="../../da/da2/class_t___m_e_s_h_1_1_edge.html#af39c3a5336412941b0be565b5b3da35c" target="_top" xlink:title="Invert the edge&#39;s orientation.">
<polygon fill="white" stroke="black" points="176,-133.5 176,-152.5 292,-152.5 292,-133.5 176,-133.5"/>
<text text-anchor="middle" x="234" y="-140.5" font-family="Helvetica,sans-Serif" font-size="10.00">T_MESH::Edge::invert</text>
</a>
</g>
</g>
<!-- Node1&#45;&gt;Node15 -->
<g id="edge15" class="edge">
<title>Node1&#45;&gt;Node15</title>
<path fill="none" stroke="midnightblue" d="M119.38,-155.51C134.35,-153.87 150.55,-152.08 165.9,-150.39"/>
<polygon fill="midnightblue" stroke="midnightblue" points="166.29,-153.87 175.84,-149.3 165.52,-146.91 166.29,-153.87"/>
</g>
<!-- Node17 -->
<g id="node17" class="node">
<title>Node17</title>
<g id="a_node17"><a xlink:href="../../da/da2/class_t___m_e_s_h_1_1_edge.html#a0f2457674237bd05c42d68b023502742" target="_top" xlink:title="TRUE iff edge is on the boundary (i.e., one of the two incident triangles is NULL).">
<polygon fill="white" stroke="black" points="157.5,-95.5 157.5,-114.5 310.5,-114.5 310.5,-95.5 157.5,-95.5"/>
<text text-anchor="middle" x="234" y="-102.5" font-family="Helvetica,sans-Serif" font-size="10.00">T_MESH::Edge::isOnBoundary</text>
</a>
</g>
</g>
<!-- Node1&#45;&gt;Node17 -->
<g id="edge17" class="edge">
<title>Node1&#45;&gt;Node17</title>
<path fill="none" stroke="midnightblue" d="M81.95,-152.35C100.89,-144.07 129.41,-132.22 155,-124 162.74,-121.52 170.99,-119.18 179.13,-117.05"/>
<polygon fill="midnightblue" stroke="midnightblue" points="180.13,-120.41 188.96,-114.56 178.41,-113.62 180.13,-120.41"/>
</g>
<!-- Node18 -->
<g id="node18" class="node">
<title>Node18</title>
<g id="a_node18"><a xlink:href="../../d8/d6e/class_t___m_e_s_h_1_1_triangle.html#a4c2d4262f06232e3a7cd1a8bd1a0298b" target="_top" xlink:title="Replace edge &#39;a&#39; with edge &#39;b&#39; in the triangle and return TRUE. If &#39;a&#39; is not an edge of the triangle...">
<polygon fill="white" stroke="black" points="155,-57.5 155,-76.5 313,-76.5 313,-57.5 155,-57.5"/>
<text text-anchor="middle" x="234" y="-64.5" font-family="Helvetica,sans-Serif" font-size="10.00">T_MESH::Triangle::replaceEdge</text>
</a>
</g>
</g>
<!-- Node1&#45;&gt;Node18 -->
<g id="edge19" class="edge">
<title>Node1&#45;&gt;Node18</title>
<path fill="none" stroke="midnightblue" d="M69.45,-152.47C85.18,-136.29 119.5,-103.51 155,-86 159.84,-83.61 165.01,-81.51 170.29,-79.67"/>
<polygon fill="midnightblue" stroke="midnightblue" points="171.4,-82.98 179.86,-76.61 169.27,-76.32 171.4,-82.98"/>
</g>
<!-- Node19 -->
<g id="node19" class="node">
<title>Node19</title>
<g id="a_node19"><a xlink:href="../../da/da2/class_t___m_e_s_h_1_1_edge.html#a4ebfc7836cd37fa28b41e972511377f6" target="_top" xlink:title="Replace vertex &#39;a&#39; with vertex &#39;b&#39; in the edge and return TRUE. If &#39;a&#39; is not a vertex of the edge re...">
<polygon fill="white" stroke="black" points="158.5,-19.5 158.5,-38.5 309.5,-38.5 309.5,-19.5 158.5,-19.5"/>
<text text-anchor="middle" x="234" y="-26.5" font-family="Helvetica,sans-Serif" font-size="10.00">T_MESH::Edge::replaceVertex</text>
</a>
</g>
</g>
<!-- Node1&#45;&gt;Node19 -->
<g id="edge20" class="edge">
<title>Node1&#45;&gt;Node19</title>
<path fill="none" stroke="midnightblue" d="M65.64,-152.27C77.92,-130.05 111.19,-75.39 155,-48 158.43,-45.86 162.07,-43.96 165.85,-42.27"/>
<polygon fill="midnightblue" stroke="midnightblue" points="167.43,-45.41 175.46,-38.51 164.87,-38.9 167.43,-45.41"/>
</g>
<!-- Node3&#45;&gt;Node4 -->
<g id="edge3" class="edge">
<title>Node3&#45;&gt;Node4</title>
<path fill="none" stroke="midnightblue" d="M300.97,-221.49C346.01,-224.3 406.75,-230.28 459,-243 475.68,-247.06 478.61,-251.9 495,-257 503.08,-259.51 511.71,-261.87 520.2,-264.02"/>
<polygon fill="midnightblue" stroke="midnightblue" points="519.52,-267.46 530.07,-266.44 521.19,-260.66 519.52,-267.46"/>
</g>
<!-- Node3&#45;&gt;Node5 -->
<g id="edge4" class="edge">
<title>Node3&#45;&gt;Node5</title>
<path fill="none" stroke="midnightblue" d="M277.39,-209.41C299.76,-204.35 327.4,-198.1 351.05,-192.75"/>
<polygon fill="midnightblue" stroke="midnightblue" points="351.93,-196.14 360.91,-190.52 350.39,-189.31 351.93,-196.14"/>
</g>
<!-- Node5&#45;&gt;Node4 -->
<g id="edge11" class="edge">
<title>Node5&#45;&gt;Node4</title>
<path fill="none" stroke="midnightblue" d="M434.14,-190.52C442.71,-194.19 451.73,-198.98 459,-205 480.65,-222.93 471.78,-241.16 495,-257 497.94,-259 501.06,-260.8 504.3,-262.4"/>
<polygon fill="midnightblue" stroke="midnightblue" points="503.14,-265.71 513.71,-266.44 505.9,-259.28 503.14,-265.71"/>
</g>
<!-- Node6 -->
<g id="node6" class="node">
<title>Node6</title>
<g id="a_node6"><a xlink:href="../../d3/d04/class_t___m_e_s_h_1_1_list.html#ae601a7e17364ce83f74ffcb6c64971ca" target="_top" xlink:title="Appends a new node storing &#39;d&#39; to the head. &#160;&#160;O(1).">
<polygon fill="white" stroke="black" points="506.5,-190.5 506.5,-209.5 646.5,-209.5 646.5,-190.5 506.5,-190.5"/>
<text text-anchor="middle" x="576.5" y="-197.5" font-family="Helvetica,sans-Serif" font-size="10.00">T_MESH::List::appendHead</text>
</a>
</g>
</g>
<!-- Node5&#45;&gt;Node6 -->
<g id="edge5" class="edge">
<title>Node5&#45;&gt;Node6</title>
<path fill="none" stroke="midnightblue" d="M459.42,-187.06C471.18,-188.38 483.85,-189.79 496.35,-191.18"/>
<polygon fill="midnightblue" stroke="midnightblue" points="495.99,-194.66 506.31,-192.29 496.76,-187.7 495.99,-194.66"/>
</g>
<!-- Node7 -->
<g id="node7" class="node">
<title>Node7</title>
<g id="a_node7"><a xlink:href="../../d3/d04/class_t___m_e_s_h_1_1_list.html#a1b14a2838ee3745d5fb413f9e7ecc214" target="_top" xlink:title="Appends a new node storing &#39;d&#39; to the tail. &#160;&#160;O(1).">
<polygon fill="white" stroke="black" points="511,-152.5 511,-171.5 642,-171.5 642,-152.5 511,-152.5"/>
<text text-anchor="middle" x="576.5" y="-159.5" font-family="Helvetica,sans-Serif" font-size="10.00">T_MESH::List::appendTail</text>
</a>
</g>
</g>
<!-- Node5&#45;&gt;Node7 -->
<g id="edge6" class="edge">
<title>Node5&#45;&gt;Node7</title>
<path fill="none" stroke="midnightblue" d="M459.42,-174.94C472.59,-173.47 486.9,-171.87 500.83,-170.32"/>
<polygon fill="midnightblue" stroke="midnightblue" points="501.33,-173.79 510.88,-169.2 500.56,-166.83 501.33,-173.79"/>
</g>
<!-- Node8 -->
<g id="node8" class="node">
<title>Node8</title>
<g id="a_node8"><a xlink:href="../../da/da2/class_t___m_e_s_h_1_1_edge.html#a96830b6d677fab318268f287682ad151" target="_top" xlink:title="Triangle on the left of the edge when looking from &#39;v&#39;. NULL if &#39;v&#39; is not a vertex of the edge.">
<polygon fill="white" stroke="black" points="506.5,-114.5 506.5,-133.5 646.5,-133.5 646.5,-114.5 506.5,-114.5"/>
<text text-anchor="middle" x="576.5" y="-121.5" font-family="Helvetica,sans-Serif" font-size="10.00">T_MESH::Edge::leftTriangle</text>
</a>
</g>
</g>
<!-- Node5&#45;&gt;Node8 -->
<g id="edge7" class="edge">
<title>Node5&#45;&gt;Node8</title>
<path fill="none" stroke="midnightblue" d="M434.73,-171.42C442.71,-168.61 451.26,-165.38 459,-162 475.58,-154.76 478.06,-149.35 495,-143 501.75,-140.47 508.94,-138.2 516.15,-136.19"/>
<polygon fill="midnightblue" stroke="midnightblue" points="517.18,-139.54 525.95,-133.6 515.39,-132.77 517.18,-139.54"/>
</g>
<!-- Node9 -->
<g id="node9" class="node">
<title>Node9</title>
<g id="a_node9"><a xlink:href="../../d3/d04/class_t___m_e_s_h_1_1_list.html#af0e61026072f65c9ba882df526acfd2e" target="_top" xlink:title="Gets the number of elements. &#160;&#160;O(1).">
<polygon fill="white" stroke="black" points="518.5,-76.5 518.5,-95.5 634.5,-95.5 634.5,-76.5 518.5,-76.5"/>
<text text-anchor="middle" x="576.5" y="-83.5" font-family="Helvetica,sans-Serif" font-size="10.00">T_MESH::List::numels</text>
</a>
</g>
</g>
<!-- Node5&#45;&gt;Node9 -->
<g id="edge8" class="edge">
<title>Node5&#45;&gt;Node9</title>
<path fill="none" stroke="midnightblue" d="M442.73,-171.42C448.53,-168.94 454.18,-165.84 459,-162 482.43,-143.33 470.61,-122.4 495,-105 499.2,-102 503.81,-99.47 508.63,-97.34"/>
<polygon fill="midnightblue" stroke="midnightblue" points="510.03,-100.55 518.11,-93.7 507.52,-94.01 510.03,-100.55"/>
</g>
<!-- Node10 -->
<g id="node10" class="node">
<title>Node10</title>
<g id="a_node10"><a xlink:href="../../d8/d6e/class_t___m_e_s_h_1_1_triangle.html#a77cc688b97fd6501b5dca8385fce4137" target="_top" xlink:title="Triangle&#39;s edge opposite to &#39;v&#39;. NULL if &#39;v&#39; is not a vertex of the triangle.">
<polygon fill="white" stroke="black" points="495,-38.5 495,-57.5 658,-57.5 658,-38.5 495,-38.5"/>
<text text-anchor="middle" x="576.5" y="-45.5" font-family="Helvetica,sans-Serif" font-size="10.00">T_MESH::Triangle::oppositeEdge</text>
</a>
</g>
</g>
<!-- Node5&#45;&gt;Node10 -->
<g id="edge9" class="edge">
<title>Node5&#45;&gt;Node10</title>
<path fill="none" stroke="midnightblue" d="M445.09,-171.45C450.19,-168.98 455.02,-165.89 459,-162 491.31,-130.46 461.06,-96.78 495,-67 496.75,-65.46 498.61,-64.04 500.55,-62.73"/>
<polygon fill="midnightblue" stroke="midnightblue" points="502.52,-65.63 509.5,-57.66 499.08,-59.54 502.52,-65.63"/>
</g>
<!-- Node12 -->
<g id="node12" class="node">
<title>Node12</title>
<g id="a_node12"><a xlink:href="../../d3/d04/class_t___m_e_s_h_1_1_list.html#a9701d1b3769b92b7d2a7ed6da895a863" target="_top" xlink:title="Deletes and removes the first node. Returns its data. &#160;&#160;O(1).">
<polygon fill="white" stroke="black" points="514.5,-0.5 514.5,-19.5 638.5,-19.5 638.5,-0.5 514.5,-0.5"/>
<text text-anchor="middle" x="576.5" y="-7.5" font-family="Helvetica,sans-Serif" font-size="10.00">T_MESH::List::popHead</text>
</a>
</g>
</g>
<!-- Node5&#45;&gt;Node12 -->
<g id="edge12" class="edge">
<title>Node5&#45;&gt;Node12</title>
<path fill="none" stroke="midnightblue" d="M446.25,-171.39C451,-168.94 455.42,-165.86 459,-162 500.67,-117.13 451,-71.59 495,-29 498.08,-26.02 501.53,-23.48 505.22,-21.31"/>
<polygon fill="midnightblue" stroke="midnightblue" points="506.79,-24.44 514.24,-16.91 503.72,-18.16 506.79,-24.44"/>
</g>
<!-- Node14 -->
<g id="node14" class="node">
<title>Node14</title>
<g id="a_node14"><a xlink:href="../../da/da2/class_t___m_e_s_h_1_1_edge.html#aa9788a51d590116555c8a062e253a197" target="_top" xlink:title="Triangle on the right of the edge when looking from &#39;v&#39;. NULL if &#39;v&#39; is not a vertex of the edge.">
<polygon fill="white" stroke="black" points="504,-228.5 504,-247.5 649,-247.5 649,-228.5 504,-228.5"/>
<text text-anchor="middle" x="576.5" y="-235.5" font-family="Helvetica,sans-Serif" font-size="10.00">T_MESH::Edge::rightTriangle</text>
</a>
</g>
</g>
<!-- Node5&#45;&gt;Node14 -->
<g id="edge14" class="edge">
<title>Node5&#45;&gt;Node14</title>
<path fill="none" stroke="midnightblue" d="M426.39,-190.52C448.56,-200.3 481.78,-214.68 495,-219 502.76,-221.54 511.05,-223.88 519.25,-226"/>
<polygon fill="midnightblue" stroke="midnightblue" points="518.61,-229.45 529.16,-228.46 520.3,-222.65 518.61,-229.45"/>
</g>
<!-- Node11 -->
<g id="node11" class="node">
<title>Node11</title>
<g id="a_node11"><a xlink:href="../../da/da2/class_t___m_e_s_h_1_1_edge.html#a7d7329ff24b7b6eb2eceee39711dd650" target="_top" xlink:title="TRUE iff &#39;v&#39; is an end&#45;point of the edge.">
<polygon fill="white" stroke="black" points="694,-38.5 694,-57.5 829,-57.5 829,-38.5 694,-38.5"/>
<text text-anchor="middle" x="761.5" y="-45.5" font-family="Helvetica,sans-Serif" font-size="10.00">T_MESH::Edge::hasVertex</text>
</a>
</g>
</g>
<!-- Node10&#45;&gt;Node11 -->
<g id="edge10" class="edge">
<title>Node10&#45;&gt;Node11</title>
<path fill="none" stroke="midnightblue" d="M658.03,-48C666.55,-48 675.2,-48 683.68,-48"/>
<polygon fill="midnightblue" stroke="midnightblue" points="683.92,-51.5 693.92,-48 683.92,-44.5 683.92,-51.5"/>
</g>
<!-- Node13 -->
<g id="node13" class="node">
<title>Node13</title>
<g id="a_node13"><a xlink:href="../../d3/d04/class_t___m_e_s_h_1_1_list.html#aec091d7c66b66c92fe56f06f41f448f4" target="_top" xlink:title="Deletes and removes the node &#39;n&#39; from the list. &#160;&#160;O(1).">
<polygon fill="white" stroke="black" points="694.5,-0.5 694.5,-19.5 828.5,-19.5 828.5,-0.5 694.5,-0.5"/>
<text text-anchor="middle" x="761.5" y="-7.5" font-family="Helvetica,sans-Serif" font-size="10.00">T_MESH::List::removeCell</text>
</a>
</g>
</g>
<!-- Node12&#45;&gt;Node13 -->
<g id="edge13" class="edge">
<title>Node12&#45;&gt;Node13</title>
<path fill="none" stroke="midnightblue" d="M638.69,-10C653.21,-10 668.88,-10 683.99,-10"/>
<polygon fill="midnightblue" stroke="midnightblue" points="684.34,-13.5 694.34,-10 684.34,-6.5 684.34,-13.5"/>
</g>
<!-- Node16 -->
<g id="node16" class="node">
<title>Node16</title>
<g id="a_node16"><a xlink:href="../../de/df9/namespace_t___m_e_s_h.html#a450b61a3a6c19cbbaf693a1a84c6d616" target="_top" xlink:title=" ">
<polygon fill="white" stroke="black" points="355.5,-133.5 355.5,-152.5 452.5,-152.5 452.5,-133.5 355.5,-133.5"/>
<text text-anchor="middle" x="404" y="-140.5" font-family="Helvetica,sans-Serif" font-size="10.00">T_MESH::p_swap</text>
</a>
</g>
</g>
<!-- Node15&#45;&gt;Node16 -->
<g id="edge16" class="edge">
<title>Node15&#45;&gt;Node16</title>
<path fill="none" stroke="midnightblue" d="M292.35,-143C309.35,-143 327.98,-143 345.02,-143"/>
<polygon fill="midnightblue" stroke="midnightblue" points="345.4,-146.5 355.4,-143 345.4,-139.5 345.4,-146.5"/>
</g>
</g>
</svg>
