<?xml version="1.0" encoding="UTF-8" standalone="no"?>
<!DOCTYPE svg PUBLIC "-//W3C//DTD SVG 1.1//EN"
 "http://www.w3.org/Graphics/SVG/1.1/DTD/svg11.dtd">
<!-- Generated by graphviz version 2.44.1 (0)
 -->
<!-- Title: T_MESH::Edge::stitch Pages: 1 -->
<svg width="323pt" height="256pt"
 viewBox="0.00 0.00 323.00 256.00" xmlns="http://www.w3.org/2000/svg" xmlns:xlink="http://www.w3.org/1999/xlink">
<g id="graph0" class="graph" transform="scale(1 1) rotate(0) translate(4 252)">
<title>T_MESH::Edge::stitch</title>
<polygon fill="white" stroke="transparent" points="-4,4 -4,-252 319,-252 319,4 -4,4"/>
<!-- Node1 -->
<g id="node1" class="node">
<title>Node1</title>
<g id="a_node1"><a xlink:title="Stitching primitive.">
<polygon fill="#bfbfbf" stroke="black" points="0,-114.5 0,-133.5 116,-133.5 116,-114.5 0,-114.5"/>
<text text-anchor="middle" x="58" y="-121.5" font-family="Helvetica,sans-Serif" font-size="10.00">T_MESH::Edge::stitch</text>
</a>
</g>
</g>
<!-- Node2 -->
<g id="node2" class="node">
<title>Node2</title>
<g id="a_node2"><a xlink:href="../../da/da2/class_t___m_e_s_h_1_1_edge.html#a7d7329ff24b7b6eb2eceee39711dd650" target="_top" xlink:title="TRUE iff &#39;v&#39; is an end&#45;point of the edge.">
<polygon fill="white" stroke="black" points="166,-228.5 166,-247.5 301,-247.5 301,-228.5 166,-228.5"/>
<text text-anchor="middle" x="233.5" y="-235.5" font-family="Helvetica,sans-Serif" font-size="10.00">T_MESH::Edge::hasVertex</text>
</a>
</g>
</g>
<!-- Node1&#45;&gt;Node2 -->
<g id="edge1" class="edge">
<title>Node1&#45;&gt;Node2</title>
<path fill="none" stroke="midnightblue" d="M65.44,-133.54C79.02,-152.89 112.61,-196.76 152,-219 155.98,-221.24 160.21,-223.22 164.57,-224.97"/>
<polygon fill="midnightblue" stroke="midnightblue" points="163.68,-228.37 174.27,-228.43 166.03,-221.78 163.68,-228.37"/>
</g>
<!-- Node3 -->
<g id="node3" class="node">
<title>Node3</title>
<g id="a_node3"><a xlink:href="../../da/da2/class_t___m_e_s_h_1_1_edge.html#a0f2457674237bd05c42d68b023502742" target="_top" xlink:title="TRUE iff edge is on the boundary (i.e., one of the two incident triangles is NULL).">
<polygon fill="white" stroke="black" points="157,-190.5 157,-209.5 310,-209.5 310,-190.5 157,-190.5"/>
<text text-anchor="middle" x="233.5" y="-197.5" font-family="Helvetica,sans-Serif" font-size="10.00">T_MESH::Edge::isOnBoundary</text>
</a>
</g>
</g>
<!-- Node1&#45;&gt;Node3 -->
<g id="edge2" class="edge">
<title>Node1&#45;&gt;Node3</title>
<path fill="none" stroke="midnightblue" d="M71.54,-133.5C88.78,-146.12 121.18,-168.3 152,-181 158.16,-183.54 164.72,-185.78 171.35,-187.75"/>
<polygon fill="midnightblue" stroke="midnightblue" points="170.48,-191.14 181.06,-190.44 172.36,-184.39 170.48,-191.14"/>
</g>
<!-- Node4 -->
<g id="node4" class="node">
<title>Node4</title>
<g id="a_node4"><a xlink:href="../../d8/d6e/class_t___m_e_s_h_1_1_triangle.html#a7233b095134d4402e88e988a225d65e5" target="_top" xlink:title="Edge next to &#39;e&#39; in the ordering or the triangle. NULL if &#39;e&#39; is not an edge of the triangle.">
<polygon fill="white" stroke="black" points="161,-152.5 161,-171.5 306,-171.5 306,-152.5 161,-152.5"/>
<text text-anchor="middle" x="233.5" y="-159.5" font-family="Helvetica,sans-Serif" font-size="10.00">T_MESH::Triangle::nextEdge</text>
</a>
</g>
</g>
<!-- Node1&#45;&gt;Node4 -->
<g id="edge3" class="edge">
<title>Node1&#45;&gt;Node4</title>
<path fill="none" stroke="midnightblue" d="M102.78,-133.59C125.99,-138.67 154.68,-144.96 179.17,-150.32"/>
<polygon fill="midnightblue" stroke="midnightblue" points="178.52,-153.76 189.03,-152.48 180.01,-146.92 178.52,-153.76"/>
</g>
<!-- Node5 -->
<g id="node5" class="node">
<title>Node5</title>
<g id="a_node5"><a xlink:href="../../da/da2/class_t___m_e_s_h_1_1_edge.html#a295cf6f1ac996ea5e760c2bbd590c513" target="_top" xlink:title="Incident triangle opposite to &#39;t&#39;. NULL if &#39;t&#39; is not incident to the edge.">
<polygon fill="white" stroke="black" points="152,-114.5 152,-133.5 315,-133.5 315,-114.5 152,-114.5"/>
<text text-anchor="middle" x="233.5" y="-121.5" font-family="Helvetica,sans-Serif" font-size="10.00">T_MESH::Edge::oppositeTriangle</text>
</a>
</g>
</g>
<!-- Node1&#45;&gt;Node5 -->
<g id="edge4" class="edge">
<title>Node1&#45;&gt;Node5</title>
<path fill="none" stroke="midnightblue" d="M116.29,-124C124.45,-124 133,-124 141.61,-124"/>
<polygon fill="midnightblue" stroke="midnightblue" points="141.72,-127.5 151.72,-124 141.72,-120.5 141.72,-127.5"/>
</g>
<!-- Node6 -->
<g id="node6" class="node">
<title>Node6</title>
<g id="a_node6"><a xlink:href="../../da/da2/class_t___m_e_s_h_1_1_edge.html#aef981891343c94489f00b060bd654b6c" target="_top" xlink:title="Vertex opposite to &#39;v&#39;. NULL if &#39;v&#39; is not a vertex of the edge.">
<polygon fill="white" stroke="black" points="155.5,-76.5 155.5,-95.5 311.5,-95.5 311.5,-76.5 155.5,-76.5"/>
<text text-anchor="middle" x="233.5" y="-83.5" font-family="Helvetica,sans-Serif" font-size="10.00">T_MESH::Edge::oppositeVertex</text>
</a>
</g>
</g>
<!-- Node1&#45;&gt;Node6 -->
<g id="edge5" class="edge">
<title>Node1&#45;&gt;Node6</title>
<path fill="none" stroke="midnightblue" d="M102.78,-114.41C125.99,-109.33 154.68,-103.04 179.17,-97.68"/>
<polygon fill="midnightblue" stroke="midnightblue" points="180.01,-101.08 189.03,-95.52 178.52,-94.24 180.01,-101.08"/>
</g>
<!-- Node7 -->
<g id="node7" class="node">
<title>Node7</title>
<g id="a_node7"><a xlink:href="../../d8/d6e/class_t___m_e_s_h_1_1_triangle.html#a4c2d4262f06232e3a7cd1a8bd1a0298b" target="_top" xlink:title="Replace edge &#39;a&#39; with edge &#39;b&#39; in the triangle and return TRUE. If &#39;a&#39; is not an edge of the triangle...">
<polygon fill="white" stroke="black" points="154.5,-38.5 154.5,-57.5 312.5,-57.5 312.5,-38.5 154.5,-38.5"/>
<text text-anchor="middle" x="233.5" y="-45.5" font-family="Helvetica,sans-Serif" font-size="10.00">T_MESH::Triangle::replaceEdge</text>
</a>
</g>
</g>
<!-- Node1&#45;&gt;Node7 -->
<g id="edge6" class="edge">
<title>Node1&#45;&gt;Node7</title>
<path fill="none" stroke="midnightblue" d="M71.54,-114.5C88.78,-101.88 121.18,-79.7 152,-67 158.16,-64.46 164.72,-62.22 171.35,-60.25"/>
<polygon fill="midnightblue" stroke="midnightblue" points="172.36,-63.61 181.06,-57.56 170.48,-56.86 172.36,-63.61"/>
</g>
<!-- Node8 -->
<g id="node8" class="node">
<title>Node8</title>
<g id="a_node8"><a xlink:href="../../da/da2/class_t___m_e_s_h_1_1_edge.html#a96d7a013a37e724352108c9fac25bbf5" target="_top" xlink:title="Replace incident triangle &#39;a&#39; with &#39;b&#39; and return TRUE. If &#39;a&#39; is not incident to the edge return FAL...">
<polygon fill="white" stroke="black" points="154.5,-0.5 154.5,-19.5 312.5,-19.5 312.5,-0.5 154.5,-0.5"/>
<text text-anchor="middle" x="233.5" y="-7.5" font-family="Helvetica,sans-Serif" font-size="10.00">T_MESH::Edge::replaceTriangle</text>
</a>
</g>
</g>
<!-- Node1&#45;&gt;Node8 -->
<g id="edge7" class="edge">
<title>Node1&#45;&gt;Node8</title>
<path fill="none" stroke="midnightblue" d="M65.44,-114.46C79.02,-95.11 112.61,-51.24 152,-29 155.98,-26.76 160.21,-24.78 164.57,-23.03"/>
<polygon fill="midnightblue" stroke="midnightblue" points="166.03,-26.22 174.27,-19.57 163.68,-19.63 166.03,-26.22"/>
</g>
</g>
</svg>
