<?xml version="1.0" encoding="UTF-8" standalone="no"?>
<!DOCTYPE svg PUBLIC "-//W3C//DTD SVG 1.1//EN"
 "http://www.w3.org/Graphics/SVG/1.1/DTD/svg11.dtd">
<!-- Generated by graphviz version 2.44.1 (0)
 -->
<!-- Title: T_MESH::Edge::isLinked Pages: 1 -->
<svg width="1816pt" height="547pt"
 viewBox="0.00 0.00 1816.00 547.00" xmlns="http://www.w3.org/2000/svg" xmlns:xlink="http://www.w3.org/1999/xlink">
<g id="graph0" class="graph" transform="scale(1 1) rotate(0) translate(4 543)">
<title>T_MESH::Edge::isLinked</title>
<polygon fill="white" stroke="transparent" points="-4,4 -4,-543 1812,-543 1812,4 -4,4"/>
<!-- Node1 -->
<g id="node1" class="node">
<title>Node1</title>
<g id="a_node1"><a xlink:title="TRUE iff edge is properly linked to a Basic_TMesh.">
<polygon fill="#bfbfbf" stroke="black" points="1680,-189 1680,-208 1808,-208 1808,-189 1680,-189"/>
<text text-anchor="middle" x="1744" y="-196" font-family="Helvetica,sans-Serif" font-size="10.00">T_MESH::Edge::isLinked</text>
</a>
</g>
</g>
<!-- Node2 -->
<g id="node2" class="node">
<title>Node2</title>
<g id="a_node2"><a xlink:href="../../d6/d27/class_t___m_e_s_h_1_1_basic___t_mesh.html#a23a9a07da273649588c3ba1b7ddc13c8" target="_top" xlink:title="Convert to manifold.">
<polygon fill="white" stroke="black" points="1510,-295.5 1510,-325.5 1633,-325.5 1633,-295.5 1510,-295.5"/>
<text text-anchor="start" x="1518" y="-313.5" font-family="Helvetica,sans-Serif" font-size="10.00">T_MESH::Basic_TMesh</text>
<text text-anchor="middle" x="1571.5" y="-302.5" font-family="Helvetica,sans-Serif" font-size="10.00">::cutAndStitch</text>
</a>
</g>
</g>
<!-- Node1&#45;&gt;Node2 -->
<g id="edge1" class="edge">
<title>Node1&#45;&gt;Node2</title>
<path fill="none" stroke="midnightblue" d="M1720.03,-213.59C1687.44,-234.99 1628.16,-273.94 1595.54,-295.37"/>
<polygon fill="midnightblue" stroke="midnightblue" points="1722.03,-216.46 1728.46,-208.05 1718.18,-210.61 1722.03,-216.46"/>
</g>
<!-- Node34 -->
<g id="node34" class="node">
<title>Node34</title>
<g id="a_node34"><a xlink:href="../../d6/d27/class_t___m_e_s_h_1_1_basic___t_mesh.html#a0d3d258b609de824682434525a2eeb13" target="_top" xlink:title="Looks for zero&#45;area triangles and resolve them by splits and collapses.">
<polygon fill="white" stroke="black" points="1499,-183.5 1499,-213.5 1644,-213.5 1644,-183.5 1499,-183.5"/>
<text text-anchor="start" x="1507" y="-201.5" font-family="Helvetica,sans-Serif" font-size="10.00">T_MESH::Basic_TMesh</text>
<text text-anchor="middle" x="1571.5" y="-190.5" font-family="Helvetica,sans-Serif" font-size="10.00">::removeDegenerateTriangles</text>
</a>
</g>
</g>
<!-- Node1&#45;&gt;Node34 -->
<g id="edge49" class="edge">
<title>Node1&#45;&gt;Node34</title>
<path fill="none" stroke="midnightblue" d="M1669.75,-198.5C1661.27,-198.5 1652.62,-198.5 1644.16,-198.5"/>
<polygon fill="midnightblue" stroke="midnightblue" points="1670,-202 1680,-198.5 1670,-195 1670,-202"/>
</g>
<!-- Node37 -->
<g id="node37" class="node">
<title>Node37</title>
<g id="a_node37"><a xlink:href="../../d9/d69/class_t___m_e_s_h_1_1mc__grid.html#a4a05d540177eaf325992664030d0743e" target="_top" xlink:title=" ">
<polygon fill="white" stroke="black" points="1503,-145 1503,-164 1640,-164 1640,-145 1503,-145"/>
<text text-anchor="middle" x="1571.5" y="-152" font-family="Helvetica,sans-Serif" font-size="10.00">T_MESH::mc_grid::simplify</text>
</a>
</g>
</g>
<!-- Node1&#45;&gt;Node37 -->
<g id="edge55" class="edge">
<title>Node1&#45;&gt;Node37</title>
<path fill="none" stroke="midnightblue" d="M1696.26,-186.44C1668.92,-179.38 1634.88,-170.6 1609.42,-164.03"/>
<polygon fill="midnightblue" stroke="midnightblue" points="1695.45,-189.84 1706,-188.95 1697.2,-183.06 1695.45,-189.84"/>
</g>
<!-- Node3 -->
<g id="node3" class="node">
<title>Node3</title>
<g id="a_node3"><a xlink:href="../../d6/d27/class_t___m_e_s_h_1_1_basic___t_mesh.html#a679e744670de791fb61a0a1a27918a6f" target="_top" xlink:title="If called in rebuildConnectivity(bool) fix the connectivity between geometric elements.">
<polygon fill="white" stroke="black" points="1331,-352.5 1331,-382.5 1454,-382.5 1454,-352.5 1331,-352.5"/>
<text text-anchor="start" x="1339" y="-370.5" font-family="Helvetica,sans-Serif" font-size="10.00">T_MESH::Basic_TMesh</text>
<text text-anchor="middle" x="1392.5" y="-359.5" font-family="Helvetica,sans-Serif" font-size="10.00">::fixConnectivity</text>
</a>
</g>
</g>
<!-- Node2&#45;&gt;Node3 -->
<g id="edge2" class="edge">
<title>Node2&#45;&gt;Node3</title>
<path fill="none" stroke="midnightblue" d="M1513.95,-328.71C1490.22,-336.35 1462.96,-345.13 1440.38,-352.4"/>
<polygon fill="midnightblue" stroke="midnightblue" points="1515.09,-332.02 1523.53,-325.63 1512.94,-325.36 1515.09,-332.02"/>
</g>
<!-- Node4 -->
<g id="node4" class="node">
<title>Node4</title>
<g id="a_node4"><a xlink:href="../../d6/d27/class_t___m_e_s_h_1_1_basic___t_mesh.html#a4dccd1d7e0db0246a83b424408fdd677" target="_top" xlink:title=" ">
<polygon fill="white" stroke="black" points="1163,-301.5 1163,-331.5 1286,-331.5 1286,-301.5 1163,-301.5"/>
<text text-anchor="start" x="1171" y="-319.5" font-family="Helvetica,sans-Serif" font-size="10.00">T_MESH::Basic_TMesh</text>
<text text-anchor="middle" x="1224.5" y="-308.5" font-family="Helvetica,sans-Serif" font-size="10.00">::closeLoadingSession</text>
</a>
</g>
</g>
<!-- Node3&#45;&gt;Node4 -->
<g id="edge3" class="edge">
<title>Node3&#45;&gt;Node4</title>
<path fill="none" stroke="midnightblue" d="M1332.79,-349.46C1313.67,-343.59 1292.66,-337.13 1274.34,-331.51"/>
<polygon fill="midnightblue" stroke="midnightblue" points="1332.01,-352.88 1342.59,-352.47 1334.06,-346.19 1332.01,-352.88"/>
</g>
<!-- Node31 -->
<g id="node31" class="node">
<title>Node31</title>
<g id="a_node31"><a xlink:href="../../d6/d27/class_t___m_e_s_h_1_1_basic___t_mesh.html#a14f447ce710157a581ca720442a50744" target="_top" xlink:title="Loads EFF.">
<polygon fill="white" stroke="black" points="845,-508.5 845,-538.5 968,-538.5 968,-508.5 845,-508.5"/>
<text text-anchor="start" x="853" y="-526.5" font-family="Helvetica,sans-Serif" font-size="10.00">T_MESH::Basic_TMesh</text>
<text text-anchor="middle" x="906.5" y="-515.5" font-family="Helvetica,sans-Serif" font-size="10.00">::loadEFF</text>
</a>
</g>
</g>
<!-- Node3&#45;&gt;Node31 -->
<g id="edge44" class="edge">
<title>Node3&#45;&gt;Node31</title>
<path fill="none" stroke="midnightblue" d="M1366.4,-389.21C1345.89,-406.1 1315.54,-429.16 1286,-444.5 1182.79,-498.1 1045.92,-515.33 968.22,-520.87"/>
<polygon fill="midnightblue" stroke="midnightblue" points="1368.87,-391.72 1374.3,-382.62 1364.38,-386.34 1368.87,-391.72"/>
</g>
<!-- Node32 -->
<g id="node32" class="node">
<title>Node32</title>
<g id="a_node32"><a xlink:href="../../d6/d27/class_t___m_e_s_h_1_1_basic___t_mesh.html#a3331f7e221b5d90c8362673cc70da0e3" target="_top" xlink:title="Considers triangles as purely geometric entities and recomputes their connectivity based on vertex co...">
<polygon fill="white" stroke="black" points="1163,-404.5 1163,-434.5 1286,-434.5 1286,-404.5 1163,-404.5"/>
<text text-anchor="start" x="1171" y="-422.5" font-family="Helvetica,sans-Serif" font-size="10.00">T_MESH::Basic_TMesh</text>
<text text-anchor="middle" x="1224.5" y="-411.5" font-family="Helvetica,sans-Serif" font-size="10.00">::rebuildConnectivity</text>
</a>
</g>
</g>
<!-- Node3&#45;&gt;Node32 -->
<g id="edge46" class="edge">
<title>Node3&#45;&gt;Node32</title>
<path fill="none" stroke="midnightblue" d="M1333.71,-385.6C1314.02,-391.77 1292.24,-398.59 1273.41,-404.49"/>
<polygon fill="midnightblue" stroke="midnightblue" points="1334.99,-388.87 1343.49,-382.54 1332.9,-382.19 1334.99,-388.87"/>
</g>
<!-- Node5 -->
<g id="node5" class="node">
<title>Node5</title>
<g id="a_node5"><a xlink:href="../../d6/d27/class_t___m_e_s_h_1_1_basic___t_mesh.html#ae34014614b61ea803c9f59e1ca8d54fe" target="_top" xlink:title="Loads OBJ.">
<polygon fill="white" stroke="black" points="845,-295.5 845,-325.5 968,-325.5 968,-295.5 845,-295.5"/>
<text text-anchor="start" x="853" y="-313.5" font-family="Helvetica,sans-Serif" font-size="10.00">T_MESH::Basic_TMesh</text>
<text text-anchor="middle" x="906.5" y="-302.5" font-family="Helvetica,sans-Serif" font-size="10.00">::loadOBJ</text>
</a>
</g>
</g>
<!-- Node4&#45;&gt;Node5 -->
<g id="edge4" class="edge">
<title>Node4&#45;&gt;Node5</title>
<path fill="none" stroke="midnightblue" d="M1152.84,-315.16C1097.33,-314.1 1020.86,-312.65 968.12,-311.65"/>
<polygon fill="midnightblue" stroke="midnightblue" points="1152.88,-318.66 1162.95,-315.35 1153.01,-311.66 1152.88,-318.66"/>
</g>
<!-- Node25 -->
<g id="node25" class="node">
<title>Node25</title>
<g id="a_node25"><a xlink:href="../../d6/d27/class_t___m_e_s_h_1_1_basic___t_mesh.html#a99e172b1652938b4711784c555e1b141" target="_top" xlink:title="Loads OFF.">
<polygon fill="white" stroke="black" points="845,-246.5 845,-276.5 968,-276.5 968,-246.5 845,-246.5"/>
<text text-anchor="start" x="853" y="-264.5" font-family="Helvetica,sans-Serif" font-size="10.00">T_MESH::Basic_TMesh</text>
<text text-anchor="middle" x="906.5" y="-253.5" font-family="Helvetica,sans-Serif" font-size="10.00">::loadOFF</text>
</a>
</g>
</g>
<!-- Node4&#45;&gt;Node25 -->
<g id="edge32" class="edge">
<title>Node4&#45;&gt;Node25</title>
<path fill="none" stroke="midnightblue" d="M1152.84,-304.2C1097.33,-294.54 1020.86,-281.23 968.12,-272.05"/>
<polygon fill="midnightblue" stroke="midnightblue" points="1152.49,-307.69 1162.95,-305.96 1153.69,-300.8 1152.49,-307.69"/>
</g>
<!-- Node26 -->
<g id="node26" class="node">
<title>Node26</title>
<g id="a_node26"><a xlink:href="../../d6/d27/class_t___m_e_s_h_1_1_basic___t_mesh.html#a9ab86ddab641aabe9295c41e90dc666c" target="_top" xlink:title="Loads PLY.">
<polygon fill="white" stroke="black" points="1004,-219.5 1004,-249.5 1127,-249.5 1127,-219.5 1004,-219.5"/>
<text text-anchor="start" x="1012" y="-237.5" font-family="Helvetica,sans-Serif" font-size="10.00">T_MESH::Basic_TMesh</text>
<text text-anchor="middle" x="1065.5" y="-226.5" font-family="Helvetica,sans-Serif" font-size="10.00">::loadPLY</text>
</a>
</g>
</g>
<!-- Node4&#45;&gt;Node26 -->
<g id="edge34" class="edge">
<title>Node4&#45;&gt;Node26</title>
<path fill="none" stroke="midnightblue" d="M1187.16,-296.54C1169.15,-286.74 1147.01,-274.85 1127,-264.5 1117.42,-259.55 1106.91,-254.28 1097.38,-249.56"/>
<polygon fill="midnightblue" stroke="midnightblue" points="1185.72,-299.74 1196.18,-301.46 1189.07,-293.6 1185.72,-299.74"/>
</g>
<!-- Node27 -->
<g id="node27" class="node">
<title>Node27</title>
<g id="a_node27"><a xlink:href="../../d6/d27/class_t___m_e_s_h_1_1_basic___t_mesh.html#a396ed0279c68c7436eedba97669f020b" target="_top" xlink:title="Loads VER&#45;TRI.">
<polygon fill="white" stroke="black" points="1004,-170.5 1004,-200.5 1127,-200.5 1127,-170.5 1004,-170.5"/>
<text text-anchor="start" x="1012" y="-188.5" font-family="Helvetica,sans-Serif" font-size="10.00">T_MESH::Basic_TMesh</text>
<text text-anchor="middle" x="1065.5" y="-177.5" font-family="Helvetica,sans-Serif" font-size="10.00">::loadVerTri</text>
</a>
</g>
</g>
<!-- Node4&#45;&gt;Node27 -->
<g id="edge36" class="edge">
<title>Node4&#45;&gt;Node27</title>
<path fill="none" stroke="midnightblue" d="M1207.51,-293.21C1190.12,-269.37 1160.3,-232.64 1127,-209.5 1122.17,-206.15 1116.81,-203.17 1111.33,-200.54"/>
<polygon fill="midnightblue" stroke="midnightblue" points="1204.68,-295.26 1213.34,-301.36 1210.37,-291.19 1204.68,-295.26"/>
</g>
<!-- Node28 -->
<g id="node28" class="node">
<title>Node28</title>
<g id="a_node28"><a xlink:href="../../d6/d27/class_t___m_e_s_h_1_1_basic___t_mesh.html#a0c926e4d0861047162403f5fc6ffeb1b" target="_top" xlink:title="Loads VRML 1.0.">
<polygon fill="white" stroke="black" points="1004,-345.5 1004,-375.5 1127,-375.5 1127,-345.5 1004,-345.5"/>
<text text-anchor="start" x="1012" y="-363.5" font-family="Helvetica,sans-Serif" font-size="10.00">T_MESH::Basic_TMesh</text>
<text text-anchor="middle" x="1065.5" y="-352.5" font-family="Helvetica,sans-Serif" font-size="10.00">::loadVRML1</text>
</a>
</g>
</g>
<!-- Node4&#45;&gt;Node28 -->
<g id="edge38" class="edge">
<title>Node4&#45;&gt;Node28</title>
<path fill="none" stroke="midnightblue" d="M1159.94,-334.31C1146.73,-338.02 1132.93,-341.88 1120.12,-345.47"/>
<polygon fill="midnightblue" stroke="midnightblue" points="1161.22,-337.59 1169.91,-331.52 1159.34,-330.85 1161.22,-337.59"/>
</g>
<!-- Node30 -->
<g id="node30" class="node">
<title>Node30</title>
<g id="a_node30"><a xlink:href="../../d6/d27/class_t___m_e_s_h_1_1_basic___t_mesh.html#aa4f8d986e02686de18f5b6e2333cd8d6" target="_top" xlink:title="Loads VRML 2.0.">
<polygon fill="white" stroke="black" points="1004,-404.5 1004,-434.5 1127,-434.5 1127,-404.5 1004,-404.5"/>
<text text-anchor="start" x="1012" y="-422.5" font-family="Helvetica,sans-Serif" font-size="10.00">T_MESH::Basic_TMesh</text>
<text text-anchor="middle" x="1065.5" y="-411.5" font-family="Helvetica,sans-Serif" font-size="10.00">::loadVRML2</text>
</a>
</g>
</g>
<!-- Node4&#45;&gt;Node30 -->
<g id="edge42" class="edge">
<title>Node4&#45;&gt;Node30</title>
<path fill="none" stroke="midnightblue" d="M1195.41,-337.82C1176.45,-351.9 1150.66,-370.45 1127,-385.5 1116.73,-392.03 1105.15,-398.7 1094.89,-404.38"/>
<polygon fill="midnightblue" stroke="midnightblue" points="1197.69,-340.48 1203.61,-331.69 1193.5,-334.87 1197.69,-340.48"/>
</g>
<!-- Node6 -->
<g id="node6" class="node">
<title>Node6</title>
<g id="a_node6"><a xlink:href="../../d6/d27/class_t___m_e_s_h_1_1_basic___t_mesh.html#a24ff0322eb032b4c87635c809c35c914" target="_top" xlink:title="Initialize the triangle mesh from the file &#39;filename&#39;.">
<polygon fill="white" stroke="black" points="686,-319.5 686,-349.5 809,-349.5 809,-319.5 686,-319.5"/>
<text text-anchor="start" x="694" y="-337.5" font-family="Helvetica,sans-Serif" font-size="10.00">T_MESH::Basic_TMesh</text>
<text text-anchor="middle" x="747.5" y="-326.5" font-family="Helvetica,sans-Serif" font-size="10.00">::load</text>
</a>
</g>
</g>
<!-- Node5&#45;&gt;Node6 -->
<g id="edge5" class="edge">
<title>Node5&#45;&gt;Node6</title>
<path fill="none" stroke="midnightblue" d="M834.79,-321.31C826.19,-322.62 817.47,-323.96 809.04,-325.25"/>
<polygon fill="midnightblue" stroke="midnightblue" points="835.44,-324.75 844.8,-319.78 834.39,-317.83 835.44,-324.75"/>
</g>
<!-- Node7 -->
<g id="node7" class="node">
<title>Node7</title>
<g id="a_node7"><a xlink:href="../../d6/d27/class_t___m_e_s_h_1_1_basic___t_mesh.html#afe360f55844b79823d045599dc1ea937" target="_top" xlink:title="Append another triangle mesh to the existing one.">
<polygon fill="white" stroke="black" points="527,-368.5 527,-398.5 650,-398.5 650,-368.5 527,-368.5"/>
<text text-anchor="start" x="535" y="-386.5" font-family="Helvetica,sans-Serif" font-size="10.00">T_MESH::Basic_TMesh</text>
<text text-anchor="middle" x="588.5" y="-375.5" font-family="Helvetica,sans-Serif" font-size="10.00">::append</text>
</a>
</g>
</g>
<!-- Node6&#45;&gt;Node7 -->
<g id="edge6" class="edge">
<title>Node6&#45;&gt;Node7</title>
<path fill="none" stroke="midnightblue" d="M688.46,-352.61C671.77,-357.82 653.76,-363.45 637.73,-368.45"/>
<polygon fill="midnightblue" stroke="midnightblue" points="689.61,-355.92 698.11,-349.6 687.53,-349.24 689.61,-355.92"/>
</g>
<!-- Node8 -->
<g id="node8" class="node">
<title>Node8</title>
<g id="a_node8"><a xlink:href="../../d2/d68/class_export_open_scad_tool.html#a6e48e9b58a764bc8032b1fbc4082603d" target="_top" xlink:title=" ">
<polygon fill="white" stroke="black" points="534,-319.5 534,-349.5 643,-349.5 643,-319.5 534,-319.5"/>
<text text-anchor="start" x="542" y="-337.5" font-family="Helvetica,sans-Serif" font-size="10.00">ExportOpenScadTool</text>
<text text-anchor="middle" x="588.5" y="-326.5" font-family="Helvetica,sans-Serif" font-size="10.00">::fixMesh</text>
</a>
</g>
</g>
<!-- Node6&#45;&gt;Node8 -->
<g id="edge7" class="edge">
<title>Node6&#45;&gt;Node8</title>
<path fill="none" stroke="midnightblue" d="M675.47,-334.5C664.6,-334.5 653.54,-334.5 643.13,-334.5"/>
<polygon fill="midnightblue" stroke="midnightblue" points="675.8,-338 685.8,-334.5 675.8,-331 675.8,-338"/>
</g>
<!-- Node13 -->
<g id="node13" class="node">
<title>Node13</title>
<g id="a_node13"><a xlink:href="../../dd/d00/class_export_s_t_l_tool.html#a82d1e11c365c1ed2adf6d831b7f6014f" target="_top" xlink:title=" ">
<polygon fill="white" stroke="black" points="528,-281 528,-300 649,-300 649,-281 528,-281"/>
<text text-anchor="middle" x="588.5" y="-288" font-family="Helvetica,sans-Serif" font-size="10.00">ExportSTLTool::fixMesh</text>
</a>
</g>
</g>
<!-- Node6&#45;&gt;Node13 -->
<g id="edge14" class="edge">
<title>Node6&#45;&gt;Node13</title>
<path fill="none" stroke="midnightblue" d="M683.08,-316.73C662.77,-311.03 641.07,-304.95 623.68,-300.08"/>
<polygon fill="midnightblue" stroke="midnightblue" points="682.34,-320.15 692.91,-319.48 684.22,-313.41 682.34,-320.15"/>
</g>
<!-- Node15 -->
<g id="node15" class="node">
<title>Node15</title>
<g id="a_node15"><a xlink:href="../../d9/dc6/class_main_window.html#a15f9fa9fe71b50669ecf5f5a3a1ce90e" target="_top" xlink:title="Import STL / OBJ mesh into the scene.">
<polygon fill="white" stroke="black" points="528,-192 528,-211 649,-211 649,-192 528,-192"/>
<text text-anchor="middle" x="588.5" y="-199" font-family="Helvetica,sans-Serif" font-size="10.00">MainWindow::loadMesh</text>
</a>
</g>
</g>
<!-- Node6&#45;&gt;Node15 -->
<g id="edge16" class="edge">
<title>Node6&#45;&gt;Node15</title>
<path fill="none" stroke="midnightblue" d="M720.69,-312.64C686.12,-283.35 626.21,-232.6 601.1,-211.33"/>
<polygon fill="midnightblue" stroke="midnightblue" points="718.6,-315.45 728.49,-319.24 723.12,-310.11 718.6,-315.45"/>
</g>
<!-- Node9 -->
<g id="node9" class="node">
<title>Node9</title>
<g id="a_node9"><a xlink:href="../../d2/d68/class_export_open_scad_tool.html#a2e36901501e307b74705aa84f4227d67" target="_top" xlink:title="Export the wiring in the openscad format.">
<polygon fill="white" stroke="black" points="362,-372.5 362,-402.5 471,-402.5 471,-372.5 362,-372.5"/>
<text text-anchor="start" x="370" y="-390.5" font-family="Helvetica,sans-Serif" font-size="10.00">ExportOpenScadTool</text>
<text text-anchor="middle" x="416.5" y="-379.5" font-family="Helvetica,sans-Serif" font-size="10.00">::writeWiring</text>
</a>
</g>
</g>
<!-- Node8&#45;&gt;Node9 -->
<g id="edge8" class="edge">
<title>Node8&#45;&gt;Node9</title>
<path fill="none" stroke="midnightblue" d="M529.59,-352.55C508.86,-359.02 485.72,-366.23 465.88,-372.42"/>
<polygon fill="midnightblue" stroke="midnightblue" points="530.73,-355.86 539.24,-349.55 528.65,-349.18 530.73,-355.86"/>
</g>
<!-- Node10 -->
<g id="node10" class="node">
<title>Node10</title>
<g id="a_node10"><a xlink:href="../../d2/d68/class_export_open_scad_tool.html#a71ef67a238fb9cd74563b65d77c1ea73" target="_top" xlink:title=" ">
<polygon fill="white" stroke="black" points="13,-372.5 13,-402.5 122,-402.5 122,-372.5 13,-372.5"/>
<text text-anchor="start" x="21" y="-390.5" font-family="Helvetica,sans-Serif" font-size="10.00">ExportOpenScadTool</text>
<text text-anchor="middle" x="67.5" y="-379.5" font-family="Helvetica,sans-Serif" font-size="10.00">::execute</text>
</a>
</g>
</g>
<!-- Node9&#45;&gt;Node10 -->
<g id="edge9" class="edge">
<title>Node9&#45;&gt;Node10</title>
<path fill="none" stroke="midnightblue" d="M351.72,-371.1C336.82,-367.94 320.93,-365.12 306,-363.5 246.35,-357.04 230.6,-356.62 171,-363.5 154.93,-365.36 137.72,-368.8 122.08,-372.51"/>
<polygon fill="midnightblue" stroke="midnightblue" points="351.34,-374.6 361.86,-373.32 352.84,-367.76 351.34,-374.6"/>
</g>
<!-- Node11 -->
<g id="node11" class="node">
<title>Node11</title>
<g id="a_node11"><a xlink:href="../../d2/d68/class_export_open_scad_tool.html#a9c35cf64ece9ee328df6ebfd080c0689" target="_top" xlink:title="Export the meshdifference between mesh and wiring in the openscad format.">
<polygon fill="white" stroke="black" points="184,-421.5 184,-451.5 293,-451.5 293,-421.5 184,-421.5"/>
<text text-anchor="start" x="192" y="-439.5" font-family="Helvetica,sans-Serif" font-size="10.00">ExportOpenScadTool</text>
<text text-anchor="middle" x="238.5" y="-428.5" font-family="Helvetica,sans-Serif" font-size="10.00">::writeDifference</text>
</a>
</g>
</g>
<!-- Node9&#45;&gt;Node11 -->
<g id="edge10" class="edge">
<title>Node9&#45;&gt;Node11</title>
<path fill="none" stroke="midnightblue" d="M351.86,-405.22C332.64,-410.57 311.74,-416.39 293.24,-421.54"/>
<polygon fill="midnightblue" stroke="midnightblue" points="353.04,-408.52 361.74,-402.47 351.17,-401.78 353.04,-408.52"/>
</g>
<!-- Node12 -->
<g id="node12" class="node">
<title>Node12</title>
<g id="a_node12"><a xlink:href="../../d2/d68/class_export_open_scad_tool.html#adc9cf506ecd2ef6e33f37f2eb206da1a" target="_top" xlink:title="Export the meshdifference between mesh and magnets in the openscad format.">
<polygon fill="white" stroke="black" points="176,-372.5 176,-402.5 301,-402.5 301,-372.5 176,-372.5"/>
<text text-anchor="start" x="184" y="-390.5" font-family="Helvetica,sans-Serif" font-size="10.00">ExportOpenScadTool</text>
<text text-anchor="middle" x="238.5" y="-379.5" font-family="Helvetica,sans-Serif" font-size="10.00">::writeDifferenceMagnets</text>
</a>
</g>
</g>
<!-- Node9&#45;&gt;Node12 -->
<g id="edge12" class="edge">
<title>Node9&#45;&gt;Node12</title>
<path fill="none" stroke="midnightblue" d="M351.68,-387.5C335.24,-387.5 317.59,-387.5 301.25,-387.5"/>
<polygon fill="midnightblue" stroke="midnightblue" points="351.74,-391 361.74,-387.5 351.74,-384 351.74,-391"/>
</g>
<!-- Node11&#45;&gt;Node10 -->
<g id="edge11" class="edge">
<title>Node11&#45;&gt;Node10</title>
<path fill="none" stroke="midnightblue" d="M175.78,-418.61C157.61,-413.34 137.91,-407.62 120.41,-402.55"/>
<polygon fill="midnightblue" stroke="midnightblue" points="174.84,-421.98 185.42,-421.4 176.79,-415.25 174.84,-421.98"/>
</g>
<!-- Node12&#45;&gt;Node10 -->
<g id="edge13" class="edge">
<title>Node12&#45;&gt;Node10</title>
<path fill="none" stroke="midnightblue" d="M165.13,-387.5C150.69,-387.5 135.77,-387.5 122.11,-387.5"/>
<polygon fill="midnightblue" stroke="midnightblue" points="165.53,-391 175.53,-387.5 165.53,-384 165.53,-391"/>
</g>
<!-- Node14 -->
<g id="node14" class="node">
<title>Node14</title>
<g id="a_node14"><a xlink:href="../../dd/d00/class_export_s_t_l_tool.html#a218420198ac8fef5b9f9a8acc889307d" target="_top" xlink:title=" ">
<polygon fill="white" stroke="black" points="356,-334 356,-353 477,-353 477,-334 356,-334"/>
<text text-anchor="middle" x="416.5" y="-341" font-family="Helvetica,sans-Serif" font-size="10.00">ExportSTLTool::execute</text>
</a>
</g>
</g>
<!-- Node13&#45;&gt;Node14 -->
<g id="edge15" class="edge">
<title>Node13&#45;&gt;Node14</title>
<path fill="none" stroke="midnightblue" d="M547.64,-303.35C540.74,-305.67 533.64,-308.11 527,-310.5 510.84,-316.31 507.34,-319.23 491,-324.5 480.34,-327.94 468.65,-331.19 457.8,-334"/>
<polygon fill="midnightblue" stroke="midnightblue" points="549.16,-306.54 557.55,-300.06 546.95,-299.89 549.16,-306.54"/>
</g>
<!-- Node16 -->
<g id="node16" class="node">
<title>Node16</title>
<g id="a_node16"><a xlink:href="../../d9/dc6/class_main_window.html#a6e3c9bc26115fb1b1664607e58716641" target="_top" xlink:title=" ">
<polygon fill="white" stroke="black" points="343.5,-148 343.5,-167 489.5,-167 489.5,-148 343.5,-148"/>
<text text-anchor="middle" x="416.5" y="-155" font-family="Helvetica,sans-Serif" font-size="10.00">MainWindow::slotImportMesh</text>
</a>
</g>
</g>
<!-- Node15&#45;&gt;Node16 -->
<g id="edge17" class="edge">
<title>Node15&#45;&gt;Node16</title>
<path fill="none" stroke="midnightblue" d="M540.77,-189.39C524.97,-185.29 507.22,-180.7 491,-176.5 479.13,-173.43 466.19,-170.08 454.52,-167.06"/>
<polygon fill="midnightblue" stroke="midnightblue" points="540.28,-192.88 550.84,-192 542.04,-186.1 540.28,-192.88"/>
</g>
<!-- Node19 -->
<g id="node19" class="node">
<title>Node19</title>
<g id="a_node19"><a xlink:href="../../d9/dc6/class_main_window.html#a46bb2fea8ddeab75e15a223c291116b6" target="_top" xlink:title=" ">
<polygon fill="white" stroke="black" points="342,-98.5 342,-128.5 491,-128.5 491,-98.5 342,-98.5"/>
<text text-anchor="start" x="350" y="-116.5" font-family="Helvetica,sans-Serif" font-size="10.00">MainWindow::slotOptimization</text>
<text text-anchor="middle" x="416.5" y="-105.5" font-family="Helvetica,sans-Serif" font-size="10.00">BenchmarkBunnyLowPoly</text>
</a>
</g>
</g>
<!-- Node15&#45;&gt;Node19 -->
<g id="edge20" class="edge">
<title>Node15&#45;&gt;Node19</title>
<path fill="none" stroke="midnightblue" d="M566.82,-185.8C547.87,-171.96 518.64,-151.96 491,-138.5 483.49,-134.84 475.3,-131.49 467.21,-128.51"/>
<polygon fill="midnightblue" stroke="midnightblue" points="564.88,-188.72 575,-191.86 569.05,-183.1 564.88,-188.72"/>
</g>
<!-- Node20 -->
<g id="node20" class="node">
<title>Node20</title>
<g id="a_node20"><a xlink:href="../../d9/dc6/class_main_window.html#affed0fab82fd390e2762933c6dca9124" target="_top" xlink:title=" ">
<polygon fill="white" stroke="black" points="342,-49.5 342,-79.5 491,-79.5 491,-49.5 342,-49.5"/>
<text text-anchor="start" x="350" y="-67.5" font-family="Helvetica,sans-Serif" font-size="10.00">MainWindow::slotOptimization</text>
<text text-anchor="middle" x="416.5" y="-56.5" font-family="Helvetica,sans-Serif" font-size="10.00">BenchmarkCorona</text>
</a>
</g>
</g>
<!-- Node15&#45;&gt;Node20 -->
<g id="edge22" class="edge">
<title>Node15&#45;&gt;Node20</title>
<path fill="none" stroke="midnightblue" d="M576.54,-183.26C560.67,-158.37 529.02,-113.95 491,-88.5 485.87,-85.07 480.21,-82.09 474.37,-79.52"/>
<polygon fill="midnightblue" stroke="midnightblue" points="573.57,-185.12 581.82,-191.76 579.52,-181.42 573.57,-185.12"/>
</g>
<!-- Node21 -->
<g id="node21" class="node">
<title>Node21</title>
<g id="a_node21"><a xlink:href="../../d9/dc6/class_main_window.html#adfdb8fcb8685844e8ce11bfb41b83b7d" target="_top" xlink:title=" ">
<polygon fill="white" stroke="black" points="342,-0.5 342,-30.5 491,-30.5 491,-0.5 342,-0.5"/>
<text text-anchor="start" x="350" y="-18.5" font-family="Helvetica,sans-Serif" font-size="10.00">MainWindow::slotOptimization</text>
<text text-anchor="middle" x="416.5" y="-7.5" font-family="Helvetica,sans-Serif" font-size="10.00">BenchmarkCthulhu</text>
</a>
</g>
</g>
<!-- Node15&#45;&gt;Node21 -->
<g id="edge24" class="edge">
<title>Node15&#45;&gt;Node21</title>
<path fill="none" stroke="midnightblue" d="M581.15,-182.22C569.04,-148.39 539.45,-78.24 491,-39.5 486.7,-36.06 481.9,-33.11 476.85,-30.58"/>
<polygon fill="midnightblue" stroke="midnightblue" points="577.9,-183.53 584.47,-191.85 584.52,-181.25 577.9,-183.53"/>
</g>
<!-- Node22 -->
<g id="node22" class="node">
<title>Node22</title>
<g id="a_node22"><a xlink:href="../../d9/dc6/class_main_window.html#a5283a0d7aeeafd409c69b272053f3986" target="_top" xlink:title=" ">
<polygon fill="white" stroke="black" points="342,-284.5 342,-314.5 491,-314.5 491,-284.5 342,-284.5"/>
<text text-anchor="start" x="350" y="-302.5" font-family="Helvetica,sans-Serif" font-size="10.00">MainWindow::slotOptimization</text>
<text text-anchor="middle" x="416.5" y="-291.5" font-family="Helvetica,sans-Serif" font-size="10.00">BenchmarkCube</text>
</a>
</g>
</g>
<!-- Node15&#45;&gt;Node22 -->
<g id="edge26" class="edge">
<title>Node15&#45;&gt;Node22</title>
<path fill="none" stroke="midnightblue" d="M569.64,-217.82C551.13,-234.04 520.77,-258.71 491,-274.5 483.98,-278.23 476.28,-281.56 468.61,-284.49"/>
<polygon fill="midnightblue" stroke="midnightblue" points="572.13,-220.29 577.27,-211.03 567.48,-215.06 572.13,-220.29"/>
</g>
<!-- Node23 -->
<g id="node23" class="node">
<title>Node23</title>
<g id="a_node23"><a xlink:href="../../d9/dc6/class_main_window.html#a0c92ca2d04a79a1580c2e8e136b82682" target="_top" xlink:title=" ">
<polygon fill="white" stroke="black" points="342,-235.5 342,-265.5 491,-265.5 491,-235.5 342,-235.5"/>
<text text-anchor="start" x="350" y="-253.5" font-family="Helvetica,sans-Serif" font-size="10.00">MainWindow::slotOptimization</text>
<text text-anchor="middle" x="416.5" y="-242.5" font-family="Helvetica,sans-Serif" font-size="10.00">BenchmarkSphere</text>
</a>
</g>
</g>
<!-- Node15&#45;&gt;Node23 -->
<g id="edge28" class="edge">
<title>Node15&#45;&gt;Node23</title>
<path fill="none" stroke="midnightblue" d="M544.6,-213.87C521.84,-220.43 493.69,-228.54 469.67,-235.46"/>
<polygon fill="midnightblue" stroke="midnightblue" points="545.68,-217.2 554.32,-211.06 543.74,-210.47 545.68,-217.2"/>
</g>
<!-- Node24 -->
<g id="node24" class="node">
<title>Node24</title>
<g id="a_node24"><a xlink:href="../../d9/dc6/class_main_window.html#a86cd359f80311725589d0861dd7a9851" target="_top" xlink:title=" ">
<polygon fill="white" stroke="black" points="342,-186.5 342,-216.5 491,-216.5 491,-186.5 342,-186.5"/>
<text text-anchor="start" x="350" y="-204.5" font-family="Helvetica,sans-Serif" font-size="10.00">MainWindow::slotOptimization</text>
<text text-anchor="middle" x="416.5" y="-193.5" font-family="Helvetica,sans-Serif" font-size="10.00">BenchmarkUChannel</text>
</a>
</g>
</g>
<!-- Node15&#45;&gt;Node24 -->
<g id="edge30" class="edge">
<title>Node15&#45;&gt;Node24</title>
<path fill="none" stroke="midnightblue" d="M517.5,-201.5C508.82,-201.5 499.93,-201.5 491.2,-201.5"/>
<polygon fill="midnightblue" stroke="midnightblue" points="517.56,-205 527.56,-201.5 517.56,-198 517.56,-205"/>
</g>
<!-- Node17 -->
<g id="node17" class="node">
<title>Node17</title>
<g id="a_node17"><a xlink:href="../../d9/dc6/class_main_window.html#a33dddfc15db4053f9117728538e7ece4" target="_top" xlink:title="Set up qt specific signal and slots part for enabling user interaction.">
<polygon fill="white" stroke="black" points="171,-142.5 171,-172.5 306,-172.5 306,-142.5 171,-142.5"/>
<text text-anchor="start" x="179" y="-160.5" font-family="Helvetica,sans-Serif" font-size="10.00">MainWindow::setupSignals</text>
<text text-anchor="middle" x="238.5" y="-149.5" font-family="Helvetica,sans-Serif" font-size="10.00">AndSlots</text>
</a>
</g>
</g>
<!-- Node16&#45;&gt;Node17 -->
<g id="edge18" class="edge">
<title>Node16&#45;&gt;Node17</title>
<path fill="none" stroke="midnightblue" d="M333.21,-157.5C324.12,-157.5 314.96,-157.5 306.1,-157.5"/>
<polygon fill="midnightblue" stroke="midnightblue" points="333.41,-161 343.41,-157.5 333.41,-154 333.41,-161"/>
</g>
<!-- Node18 -->
<g id="node18" class="node">
<title>Node18</title>
<g id="a_node18"><a xlink:href="../../d9/dc6/class_main_window.html#a996c5a2b6f77944776856f08ec30858d" target="_top" xlink:title=" ">
<polygon fill="white" stroke="black" points="0,-148 0,-167 135,-167 135,-148 0,-148"/>
<text text-anchor="middle" x="67.5" y="-155" font-family="Helvetica,sans-Serif" font-size="10.00">MainWindow::MainWindow</text>
</a>
</g>
</g>
<!-- Node17&#45;&gt;Node18 -->
<g id="edge19" class="edge">
<title>Node17&#45;&gt;Node18</title>
<path fill="none" stroke="midnightblue" d="M160.45,-157.5C151.98,-157.5 143.41,-157.5 135.08,-157.5"/>
<polygon fill="midnightblue" stroke="midnightblue" points="160.71,-161 170.71,-157.5 160.71,-154 160.71,-161"/>
</g>
<!-- Node19&#45;&gt;Node17 -->
<g id="edge21" class="edge">
<title>Node19&#45;&gt;Node17</title>
<path fill="none" stroke="midnightblue" d="M345.56,-130.99C330.35,-134.79 314.39,-138.78 299.6,-142.47"/>
<polygon fill="midnightblue" stroke="midnightblue" points="346.57,-134.34 355.42,-128.52 344.87,-127.55 346.57,-134.34"/>
</g>
<!-- Node20&#45;&gt;Node17 -->
<g id="edge23" class="edge">
<title>Node20&#45;&gt;Node17</title>
<path fill="none" stroke="midnightblue" d="M353.83,-83.22C349.78,-84.88 345.8,-86.65 342,-88.5 310.96,-103.65 278.42,-127.03 258.55,-142.3"/>
<polygon fill="midnightblue" stroke="midnightblue" points="355.32,-86.4 363.38,-79.52 352.79,-79.87 355.32,-86.4"/>
</g>
<!-- Node21&#45;&gt;Node17 -->
<g id="edge25" class="edge">
<title>Node21&#45;&gt;Node17</title>
<path fill="none" stroke="midnightblue" d="M349.55,-34.99C346.94,-36.4 344.41,-37.9 342,-39.5 299.94,-67.4 264.89,-117.05 248.87,-142.11"/>
<polygon fill="midnightblue" stroke="midnightblue" points="351.19,-38.08 358.65,-30.56 348.13,-31.79 351.19,-38.08"/>
</g>
<!-- Node22&#45;&gt;Node17 -->
<g id="edge27" class="edge">
<title>Node22&#45;&gt;Node17</title>
<path fill="none" stroke="midnightblue" d="M351.28,-280C348.06,-278.3 344.95,-276.47 342,-274.5 300.25,-246.57 265.06,-197.46 248.94,-172.69"/>
<polygon fill="midnightblue" stroke="midnightblue" points="350.05,-283.29 360.58,-284.43 353.06,-276.97 350.05,-283.29"/>
</g>
<!-- Node23&#45;&gt;Node17 -->
<g id="edge29" class="edge">
<title>Node23&#45;&gt;Node17</title>
<path fill="none" stroke="midnightblue" d="M355.68,-231.62C350.99,-229.7 346.38,-227.65 342,-225.5 311.34,-210.43 278.96,-187.63 258.99,-172.66"/>
<polygon fill="midnightblue" stroke="midnightblue" points="354.79,-235.03 365.37,-235.39 357.33,-228.5 354.79,-235.03"/>
</g>
<!-- Node24&#45;&gt;Node17 -->
<g id="edge31" class="edge">
<title>Node24&#45;&gt;Node17</title>
<path fill="none" stroke="midnightblue" d="M345.56,-184.01C330.35,-180.21 314.39,-176.22 299.6,-172.53"/>
<polygon fill="midnightblue" stroke="midnightblue" points="344.87,-187.45 355.42,-186.48 346.57,-180.66 344.87,-187.45"/>
</g>
<!-- Node25&#45;&gt;Node6 -->
<g id="edge33" class="edge">
<title>Node25&#45;&gt;Node6</title>
<path fill="none" stroke="midnightblue" d="M858.51,-280.54C853.93,-282.51 849.36,-284.52 845,-286.5 822,-296.95 796.43,-309.73 777.38,-319.47"/>
<polygon fill="midnightblue" stroke="midnightblue" points="860.05,-283.69 867.89,-276.57 857.31,-277.24 860.05,-283.69"/>
</g>
<!-- Node26&#45;&gt;Node6 -->
<g id="edge35" class="edge">
<title>Node26&#45;&gt;Node6</title>
<path fill="none" stroke="midnightblue" d="M993.62,-221.75C949.2,-216.94 891.71,-216.69 845,-236.5 804.77,-253.56 772.75,-296.31 757.75,-319.3"/>
<polygon fill="midnightblue" stroke="midnightblue" points="993.41,-225.25 1003.76,-222.95 994.24,-218.3 993.41,-225.25"/>
</g>
<!-- Node27&#45;&gt;Node6 -->
<g id="edge37" class="edge">
<title>Node27&#45;&gt;Node6</title>
<path fill="none" stroke="midnightblue" d="M993.87,-182.21C948.65,-183.1 890.18,-190.07 845,-215.5 801.19,-240.16 769.47,-293.27 755.87,-319.38"/>
<polygon fill="midnightblue" stroke="midnightblue" points="993.93,-185.71 1003.9,-182.1 993.86,-178.71 993.93,-185.71"/>
</g>
<!-- Node28&#45;&gt;Node6 -->
<g id="edge39" class="edge">
<title>Node28&#45;&gt;Node6</title>
<path fill="none" stroke="midnightblue" d="M1005.25,-377.95C960.66,-388.45 898.32,-397.49 845,-384.5 817.5,-377.8 789.1,-361.78 770.29,-349.67"/>
<polygon fill="midnightblue" stroke="midnightblue" points="1006.16,-381.33 1015.05,-375.55 1004.5,-374.53 1006.16,-381.33"/>
</g>
<!-- Node29 -->
<g id="node29" class="node">
<title>Node29</title>
<g id="a_node29"><a xlink:href="../../d6/d27/class_t___m_e_s_h_1_1_basic___t_mesh.html#aa71c313ca25eae9f2a9ed8a162b905e8" target="_top" xlink:title="Loads IV.">
<polygon fill="white" stroke="black" points="845,-344.5 845,-374.5 968,-374.5 968,-344.5 845,-344.5"/>
<text text-anchor="start" x="853" y="-362.5" font-family="Helvetica,sans-Serif" font-size="10.00">T_MESH::Basic_TMesh</text>
<text text-anchor="middle" x="906.5" y="-351.5" font-family="Helvetica,sans-Serif" font-size="10.00">::loadIV</text>
</a>
</g>
</g>
<!-- Node28&#45;&gt;Node29 -->
<g id="edge40" class="edge">
<title>Node28&#45;&gt;Node29</title>
<path fill="none" stroke="midnightblue" d="M993.79,-360.05C985.19,-359.99 976.47,-359.94 968.04,-359.89"/>
<polygon fill="midnightblue" stroke="midnightblue" points="993.78,-363.55 1003.8,-360.11 993.82,-356.55 993.78,-363.55"/>
</g>
<!-- Node29&#45;&gt;Node6 -->
<g id="edge41" class="edge">
<title>Node29&#45;&gt;Node6</title>
<path fill="none" stroke="midnightblue" d="M834.79,-348.24C826.19,-346.87 817.47,-345.48 809.04,-344.14"/>
<polygon fill="midnightblue" stroke="midnightblue" points="834.37,-351.72 844.8,-349.83 835.47,-344.81 834.37,-351.72"/>
</g>
<!-- Node30&#45;&gt;Node6 -->
<g id="edge43" class="edge">
<title>Node30&#45;&gt;Node6</title>
<path fill="none" stroke="midnightblue" d="M993.53,-422.91C949.56,-422.8 892.58,-418.56 845,-401.5 813.32,-390.14 782.39,-365.59 764.4,-349.57"/>
<polygon fill="midnightblue" stroke="midnightblue" points="993.58,-426.41 1003.56,-422.87 993.55,-419.41 993.58,-426.41"/>
</g>
<!-- Node31&#45;&gt;Node6 -->
<g id="edge45" class="edge">
<title>Node31&#45;&gt;Node6</title>
<path fill="none" stroke="midnightblue" d="M858.25,-503.47C853.52,-500.49 848.99,-497.17 845,-493.5 798.38,-450.69 766.58,-380.23 754.24,-349.55"/>
<polygon fill="midnightblue" stroke="midnightblue" points="856.52,-506.51 866.93,-508.47 860.01,-500.44 856.52,-506.51"/>
</g>
<!-- Node33 -->
<g id="node33" class="node">
<title>Node33</title>
<g id="a_node33"><a xlink:href="../../d6/d27/class_t___m_e_s_h_1_1_basic___t_mesh.html#ab6066b06c1bf3f54cf8f67b6aafb810e" target="_top" xlink:title="Loads STL.">
<polygon fill="white" stroke="black" points="1004,-458.5 1004,-488.5 1127,-488.5 1127,-458.5 1004,-458.5"/>
<text text-anchor="start" x="1012" y="-476.5" font-family="Helvetica,sans-Serif" font-size="10.00">T_MESH::Basic_TMesh</text>
<text text-anchor="middle" x="1065.5" y="-465.5" font-family="Helvetica,sans-Serif" font-size="10.00">::loadSTL</text>
</a>
</g>
</g>
<!-- Node32&#45;&gt;Node33 -->
<g id="edge47" class="edge">
<title>Node32&#45;&gt;Node33</title>
<path fill="none" stroke="midnightblue" d="M1170.11,-437.86C1150.62,-444.57 1128.83,-452.06 1110.27,-458.45"/>
<polygon fill="midnightblue" stroke="midnightblue" points="1171.45,-441.1 1179.77,-434.54 1169.17,-434.48 1171.45,-441.1"/>
</g>
<!-- Node33&#45;&gt;Node6 -->
<g id="edge48" class="edge">
<title>Node33&#45;&gt;Node6</title>
<path fill="none" stroke="midnightblue" d="M993.55,-467.76C948.85,-461.84 891.09,-449.83 845,-425.5 808.95,-406.47 776.62,-370.26 760.1,-349.71"/>
<polygon fill="midnightblue" stroke="midnightblue" points="993.39,-471.26 1003.75,-469.03 994.26,-464.32 993.39,-471.26"/>
</g>
<!-- Node35 -->
<g id="node35" class="node">
<title>Node35</title>
<g id="a_node35"><a xlink:href="../../d6/d27/class_t___m_e_s_h_1_1_basic___t_mesh.html#af160de0b4a939ef2cb93279f67e6dd34" target="_top" xlink:title="Calls &#39;removeDegenerateTriangles()&#39; and, if some degeneracies remain, removes them and fills the resu...">
<polygon fill="white" stroke="black" points="1322,-183.5 1322,-213.5 1463,-213.5 1463,-183.5 1322,-183.5"/>
<text text-anchor="start" x="1330" y="-201.5" font-family="Helvetica,sans-Serif" font-size="10.00">T_MESH::Basic_TMesh</text>
<text text-anchor="middle" x="1392.5" y="-190.5" font-family="Helvetica,sans-Serif" font-size="10.00">::strongDegeneracyRemoval</text>
</a>
</g>
</g>
<!-- Node34&#45;&gt;Node35 -->
<g id="edge50" class="edge">
<title>Node34&#45;&gt;Node35</title>
<path fill="none" stroke="midnightblue" d="M1488.74,-198.5C1480.15,-198.5 1471.48,-198.5 1463.04,-198.5"/>
<polygon fill="midnightblue" stroke="midnightblue" points="1488.76,-202 1498.76,-198.5 1488.76,-195 1488.76,-202"/>
</g>
<!-- Node36 -->
<g id="node36" class="node">
<title>Node36</title>
<g id="a_node36"><a xlink:href="../../d6/d27/class_t___m_e_s_h_1_1_basic___t_mesh.html#a1270b60eec84c1f939d405d9ade1a94e" target="_top" xlink:title="Iteratively call strongDegeneracyRemoval and strongIntersectionRemoval to produce an eventually clean...">
<polygon fill="white" stroke="black" points="686,-202.5 686,-232.5 809,-232.5 809,-202.5 686,-202.5"/>
<text text-anchor="start" x="694" y="-220.5" font-family="Helvetica,sans-Serif" font-size="10.00">T_MESH::Basic_TMesh</text>
<text text-anchor="middle" x="747.5" y="-209.5" font-family="Helvetica,sans-Serif" font-size="10.00">::meshclean</text>
</a>
</g>
</g>
<!-- Node35&#45;&gt;Node36 -->
<g id="edge51" class="edge">
<title>Node35&#45;&gt;Node36</title>
<path fill="none" stroke="midnightblue" d="M1312.01,-184.06C1259.66,-175.29 1189.49,-164.97 1127,-160.5 1001.67,-151.54 966.88,-149.95 845,-180.5 823.42,-185.91 800.1,-194.76 781.8,-202.45"/>
<polygon fill="midnightblue" stroke="midnightblue" points="1311.46,-187.51 1321.9,-185.73 1312.63,-180.61 1311.46,-187.51"/>
</g>
<!-- Node36&#45;&gt;Node8 -->
<g id="edge52" class="edge">
<title>Node36&#45;&gt;Node8</title>
<path fill="none" stroke="midnightblue" d="M727.15,-240.23C708.92,-260.53 679.98,-290 650,-309.5 644.38,-313.16 638.14,-316.45 631.86,-319.37"/>
<polygon fill="midnightblue" stroke="midnightblue" points="729.83,-242.48 733.83,-232.67 724.59,-237.85 729.83,-242.48"/>
</g>
<!-- Node36&#45;&gt;Node13 -->
<g id="edge53" class="edge">
<title>Node36&#45;&gt;Node13</title>
<path fill="none" stroke="midnightblue" d="M704.81,-236.88C674.21,-251.11 633.97,-269.82 610.01,-280.96"/>
<polygon fill="midnightblue" stroke="midnightblue" points="706.38,-240.02 713.97,-232.63 703.43,-233.67 706.38,-240.02"/>
</g>
<!-- Node36&#45;&gt;Node15 -->
<g id="edge54" class="edge">
<title>Node36&#45;&gt;Node15</title>
<path fill="none" stroke="midnightblue" d="M675.78,-210.29C666.84,-209.38 657.75,-208.46 649.01,-207.56"/>
<polygon fill="midnightblue" stroke="midnightblue" points="675.5,-213.78 685.8,-211.31 676.21,-206.82 675.5,-213.78"/>
</g>
<!-- Node38 -->
<g id="node38" class="node">
<title>Node38</title>
<g id="a_node38"><a xlink:href="../../d9/d69/class_t___m_e_s_h_1_1mc__grid.html#acab069f805e6c473afb4e340d3d8d1ae" target="_top" xlink:title="&lt; AMF_CHANGE &#45; since T_MESH 2.4&#45;2 &gt;">
<polygon fill="white" stroke="black" points="1324.5,-145 1324.5,-164 1460.5,-164 1460.5,-145 1324.5,-145"/>
<text text-anchor="middle" x="1392.5" y="-152" font-family="Helvetica,sans-Serif" font-size="10.00">T_MESH::mc_grid::remesh</text>
</a>
</g>
</g>
<!-- Node37&#45;&gt;Node38 -->
<g id="edge56" class="edge">
<title>Node37&#45;&gt;Node38</title>
<path fill="none" stroke="midnightblue" d="M1492.65,-154.5C1481.95,-154.5 1471.04,-154.5 1460.55,-154.5"/>
<polygon fill="midnightblue" stroke="midnightblue" points="1492.83,-158 1502.83,-154.5 1492.83,-151 1492.83,-158"/>
</g>
</g>
</svg>
