<?xml version="1.0" encoding="UTF-8" standalone="no"?>
<!DOCTYPE svg PUBLIC "-//W3C//DTD SVG 1.1//EN"
 "http://www.w3.org/Graphics/SVG/1.1/DTD/svg11.dtd">
<!-- Generated by graphviz version 2.44.1 (0)
 -->
<!-- Title: T_MESH::Edge::hasVertices Pages: 1 -->
<svg width="548pt" height="28pt"
 viewBox="0.00 0.00 548.00 28.00" xmlns="http://www.w3.org/2000/svg" xmlns:xlink="http://www.w3.org/1999/xlink">
<g id="graph0" class="graph" transform="scale(1 1) rotate(0) translate(4 24)">
<title>T_MESH::Edge::hasVertices</title>
<polygon fill="white" stroke="transparent" points="-4,4 -4,-24 544,-24 544,4 -4,4"/>
<!-- Node1 -->
<g id="node1" class="node">
<title>Node1</title>
<g id="a_node1"><a xlink:title="TRUE if both &#39;va&#39; and &#39;vb&#39; are vertices of the edge.">
<polygon fill="#bfbfbf" stroke="black" points="397,-0.5 397,-19.5 540,-19.5 540,-0.5 397,-0.5"/>
<text text-anchor="middle" x="468.5" y="-7.5" font-family="Helvetica,sans-Serif" font-size="10.00">T_MESH::Edge::hasVertices</text>
</a>
</g>
</g>
<!-- Node2 -->
<g id="node2" class="node">
<title>Node2</title>
<g id="a_node2"><a xlink:href="../../d8/d6e/class_t___m_e_s_h_1_1_triangle.html#a38d6dedff09dd67bc25defcb61304546" target="_top" xlink:title="true if this triangle itersects &#39;t&#39; other than on common subsimplexes if &#39;justproper&#39; is true,...">
<polygon fill="white" stroke="black" points="215,-0.5 215,-19.5 361,-19.5 361,-0.5 215,-0.5"/>
<text text-anchor="middle" x="288" y="-7.5" font-family="Helvetica,sans-Serif" font-size="10.00">T_MESH::Triangle::intersects</text>
</a>
</g>
</g>
<!-- Node1&#45;&gt;Node2 -->
<g id="edge1" class="edge">
<title>Node1&#45;&gt;Node2</title>
<path fill="none" stroke="midnightblue" d="M386.91,-10C378.3,-10 369.59,-10 361.08,-10"/>
<polygon fill="midnightblue" stroke="midnightblue" points="386.95,-13.5 396.95,-10 386.95,-6.5 386.95,-13.5"/>
</g>
<!-- Node3 -->
<g id="node3" class="node">
<title>Node3</title>
<g id="a_node3"><a xlink:href="../../d3/d21/class_t___m_e_s_h_1_1di__cell.html#a225e296cc8fdea7f5dbc9d4b9a5bc79c" target="_top" xlink:title=" ">
<polygon fill="white" stroke="black" points="0,-0.5 0,-19.5 179,-19.5 179,-0.5 0,-0.5"/>
<text text-anchor="middle" x="89.5" y="-7.5" font-family="Helvetica,sans-Serif" font-size="10.00">T_MESH::di_cell::selectIntersections</text>
</a>
</g>
</g>
<!-- Node2&#45;&gt;Node3 -->
<g id="edge2" class="edge">
<title>Node2&#45;&gt;Node3</title>
<path fill="none" stroke="midnightblue" d="M204.76,-10C196.33,-10 187.75,-10 179.25,-10"/>
<polygon fill="midnightblue" stroke="midnightblue" points="204.95,-13.5 214.95,-10 204.95,-6.5 204.95,-13.5"/>
</g>
</g>
</svg>
