<?xml version="1.0" encoding="UTF-8" standalone="no"?>
<!DOCTYPE svg PUBLIC "-//W3C//DTD SVG 1.1//EN"
 "http://www.w3.org/Graphics/SVG/1.1/DTD/svg11.dtd">
<!-- Generated by graphviz version 2.44.1 (0)
 -->
<!-- Title: T_MESH::TMesh::report_progress Pages: 1 -->
<svg width="1330pt" height="848pt"
 viewBox="0.00 0.00 1330.00 847.50" xmlns="http://www.w3.org/2000/svg" xmlns:xlink="http://www.w3.org/1999/xlink">
<g id="graph0" class="graph" transform="scale(1 1) rotate(0) translate(4 843.5)">
<title>T_MESH::TMesh::report_progress</title>
<polygon fill="white" stroke="transparent" points="-4,4 -4,-843.5 1326,-843.5 1326,4 -4,4"/>
<!-- Node1 -->
<g id="node1" class="node">
<title>Node1</title>
<g id="a_node1"><a xlink:title=" ">
<polygon fill="#bfbfbf" stroke="black" points="1198,-227 1198,-257 1322,-257 1322,-227 1198,-227"/>
<text text-anchor="start" x="1206" y="-245" font-family="Helvetica,sans-Serif" font-size="10.00">T_MESH::TMesh::report</text>
<text text-anchor="middle" x="1260" y="-234" font-family="Helvetica,sans-Serif" font-size="10.00">_progress</text>
</a>
</g>
</g>
<!-- Node2 -->
<g id="node2" class="node">
<title>Node2</title>
<g id="a_node2"><a xlink:href="../../d6/d27/class_t___m_e_s_h_1_1_basic___t_mesh.html#a24c4a4f93e50ac97dbeed1576c2aeb62" target="_top" xlink:title="Fills all the holes having at least &#39;nbe&#39; boundary edges.">
<polygon fill="white" stroke="black" points="1030.5,-509 1030.5,-539 1153.5,-539 1153.5,-509 1030.5,-509"/>
<text text-anchor="start" x="1038.5" y="-527" font-family="Helvetica,sans-Serif" font-size="10.00">T_MESH::Basic_TMesh</text>
<text text-anchor="middle" x="1092" y="-516" font-family="Helvetica,sans-Serif" font-size="10.00">::fillSmallBoundaries</text>
</a>
</g>
</g>
<!-- Node1&#45;&gt;Node2 -->
<g id="edge1" class="edge">
<title>Node1&#45;&gt;Node2</title>
<path fill="none" stroke="midnightblue" d="M1256.54,-267.36C1250.25,-318.49 1229.02,-434.63 1162,-500 1158.46,-503.45 1154.4,-506.41 1150.05,-508.95"/>
<polygon fill="midnightblue" stroke="midnightblue" points="1260.05,-267.53 1257.7,-257.2 1253.09,-266.74 1260.05,-267.53"/>
</g>
<!-- Node23 -->
<g id="node23" class="node">
<title>Node23</title>
<g id="a_node23"><a xlink:href="../../d6/d27/class_t___m_e_s_h_1_1_basic___t_mesh.html#a4e21f75df1c237f565bf232e0cd73b74" target="_top" xlink:title="Iteratively swaps edges to minimize the Delaunay minimum angle. O(N).">
<polygon fill="white" stroke="black" points="1030.5,-39 1030.5,-69 1153.5,-69 1153.5,-39 1030.5,-39"/>
<text text-anchor="start" x="1038.5" y="-57" font-family="Helvetica,sans-Serif" font-size="10.00">T_MESH::Basic_TMesh</text>
<text text-anchor="middle" x="1092" y="-46" font-family="Helvetica,sans-Serif" font-size="10.00">::iterativeEdgeSwaps</text>
</a>
</g>
</g>
<!-- Node1&#45;&gt;Node23 -->
<g id="edge34" class="edge">
<title>Node1&#45;&gt;Node23</title>
<path fill="none" stroke="midnightblue" d="M1249.43,-217.18C1235.13,-183.02 1205.16,-121.49 1162,-84 1155.1,-78 1146.81,-73.04 1138.41,-69"/>
<polygon fill="midnightblue" stroke="midnightblue" points="1246.35,-218.9 1253.36,-226.85 1252.84,-216.27 1246.35,-218.9"/>
</g>
<!-- Node24 -->
<g id="node24" class="node">
<title>Node24</title>
<g id="a_node24"><a xlink:href="../../d6/d27/class_t___m_e_s_h_1_1_basic___t_mesh.html#a14f447ce710157a581ca720442a50744" target="_top" xlink:title="Loads EFF.">
<polygon fill="white" stroke="black" points="854,-131 854,-161 977,-161 977,-131 854,-131"/>
<text text-anchor="start" x="862" y="-149" font-family="Helvetica,sans-Serif" font-size="10.00">T_MESH::Basic_TMesh</text>
<text text-anchor="middle" x="915.5" y="-138" font-family="Helvetica,sans-Serif" font-size="10.00">::loadEFF</text>
</a>
</g>
</g>
<!-- Node1&#45;&gt;Node24 -->
<g id="edge35" class="edge">
<title>Node1&#45;&gt;Node24</title>
<path fill="none" stroke="midnightblue" d="M1224.07,-221.89C1206.03,-212.24 1183.37,-201.23 1162,-194 1100.71,-173.26 1027.6,-160.4 977.19,-153.28"/>
<polygon fill="midnightblue" stroke="midnightblue" points="1222.6,-225.07 1233.06,-226.78 1225.95,-218.93 1222.6,-225.07"/>
</g>
<!-- Node27 -->
<g id="node27" class="node">
<title>Node27</title>
<g id="a_node27"><a xlink:href="../../d6/d27/class_t___m_e_s_h_1_1_basic___t_mesh.html#ae34014614b61ea803c9f59e1ca8d54fe" target="_top" xlink:title="Loads OBJ.">
<polygon fill="white" stroke="black" points="854,-82 854,-112 977,-112 977,-82 854,-82"/>
<text text-anchor="start" x="862" y="-100" font-family="Helvetica,sans-Serif" font-size="10.00">T_MESH::Basic_TMesh</text>
<text text-anchor="middle" x="915.5" y="-89" font-family="Helvetica,sans-Serif" font-size="10.00">::loadOBJ</text>
</a>
</g>
</g>
<!-- Node1&#45;&gt;Node27 -->
<g id="edge41" class="edge">
<title>Node1&#45;&gt;Node27</title>
<path fill="none" stroke="midnightblue" d="M1239.33,-219.14C1221.19,-199.5 1192.52,-171.91 1162,-156 1130.22,-139.43 1038.9,-119.96 977.05,-108.05"/>
<polygon fill="midnightblue" stroke="midnightblue" points="1236.91,-221.68 1246.21,-226.75 1242.1,-216.99 1236.91,-221.68"/>
</g>
<!-- Node28 -->
<g id="node28" class="node">
<title>Node28</title>
<g id="a_node28"><a xlink:href="../../d6/d27/class_t___m_e_s_h_1_1_basic___t_mesh.html#a99e172b1652938b4711784c555e1b141" target="_top" xlink:title="Loads OFF.">
<polygon fill="white" stroke="black" points="854,-33 854,-63 977,-63 977,-33 854,-33"/>
<text text-anchor="start" x="862" y="-51" font-family="Helvetica,sans-Serif" font-size="10.00">T_MESH::Basic_TMesh</text>
<text text-anchor="middle" x="915.5" y="-40" font-family="Helvetica,sans-Serif" font-size="10.00">::loadOFF</text>
</a>
</g>
</g>
<!-- Node1&#45;&gt;Node28 -->
<g id="edge43" class="edge">
<title>Node1&#45;&gt;Node28</title>
<path fill="none" stroke="midnightblue" d="M1247.07,-217.62C1231.54,-188.48 1201.63,-140.36 1162,-114 1108.51,-78.42 1084.01,-94.79 1022,-78 1004.54,-73.27 985.51,-67.92 968.48,-63.06"/>
<polygon fill="midnightblue" stroke="midnightblue" points="1244.07,-219.44 1251.78,-226.71 1250.29,-216.22 1244.07,-219.44"/>
</g>
<!-- Node29 -->
<g id="node29" class="node">
<title>Node29</title>
<g id="a_node29"><a xlink:href="../../d6/d27/class_t___m_e_s_h_1_1_basic___t_mesh.html#a9ab86ddab641aabe9295c41e90dc666c" target="_top" xlink:title="Loads PLY.">
<polygon fill="white" stroke="black" points="854,-394 854,-424 977,-424 977,-394 854,-394"/>
<text text-anchor="start" x="862" y="-412" font-family="Helvetica,sans-Serif" font-size="10.00">T_MESH::Basic_TMesh</text>
<text text-anchor="middle" x="915.5" y="-401" font-family="Helvetica,sans-Serif" font-size="10.00">::loadPLY</text>
</a>
</g>
</g>
<!-- Node1&#45;&gt;Node29 -->
<g id="edge45" class="edge">
<title>Node1&#45;&gt;Node29</title>
<path fill="none" stroke="midnightblue" d="M1247.57,-266.11C1232.37,-295.32 1202.63,-343.64 1162,-368 1105.67,-401.77 1029.68,-409.9 977.24,-410.92"/>
<polygon fill="midnightblue" stroke="midnightblue" points="1250.79,-267.51 1252.16,-257 1244.54,-264.36 1250.79,-267.51"/>
</g>
<!-- Node30 -->
<g id="node30" class="node">
<title>Node30</title>
<g id="a_node30"><a xlink:href="../../d6/d27/class_t___m_e_s_h_1_1_basic___t_mesh.html#ab6066b06c1bf3f54cf8f67b6aafb810e" target="_top" xlink:title="Loads STL.">
<polygon fill="white" stroke="black" points="854,-345 854,-375 977,-375 977,-345 854,-345"/>
<text text-anchor="start" x="862" y="-363" font-family="Helvetica,sans-Serif" font-size="10.00">T_MESH::Basic_TMesh</text>
<text text-anchor="middle" x="915.5" y="-352" font-family="Helvetica,sans-Serif" font-size="10.00">::loadSTL</text>
</a>
</g>
</g>
<!-- Node1&#45;&gt;Node30 -->
<g id="edge47" class="edge">
<title>Node1&#45;&gt;Node30</title>
<path fill="none" stroke="midnightblue" d="M1243.74,-265.46C1226.89,-289.14 1197.39,-324.5 1162,-341 1103.6,-368.24 1028.85,-369.99 977.25,-366.82"/>
<polygon fill="midnightblue" stroke="midnightblue" points="1246.77,-267.24 1249.57,-257.02 1241.01,-263.26 1246.77,-267.24"/>
</g>
<!-- Node31 -->
<g id="node31" class="node">
<title>Node31</title>
<g id="a_node31"><a xlink:href="../../d6/d27/class_t___m_e_s_h_1_1_basic___t_mesh.html#a396ed0279c68c7436eedba97669f020b" target="_top" xlink:title="Loads VER&#45;TRI.">
<polygon fill="white" stroke="black" points="1030.5,-301 1030.5,-331 1153.5,-331 1153.5,-301 1030.5,-301"/>
<text text-anchor="start" x="1038.5" y="-319" font-family="Helvetica,sans-Serif" font-size="10.00">T_MESH::Basic_TMesh</text>
<text text-anchor="middle" x="1092" y="-308" font-family="Helvetica,sans-Serif" font-size="10.00">::loadVerTri</text>
</a>
</g>
</g>
<!-- Node1&#45;&gt;Node31 -->
<g id="edge49" class="edge">
<title>Node1&#45;&gt;Node31</title>
<path fill="none" stroke="midnightblue" d="M1223.29,-261.94C1205.22,-271.64 1182.76,-283.09 1162,-292 1154.77,-295.1 1147,-298.11 1139.37,-300.88"/>
<polygon fill="midnightblue" stroke="midnightblue" points="1225.19,-264.89 1232.31,-257.05 1221.85,-258.74 1225.19,-264.89"/>
</g>
<!-- Node32 -->
<g id="node32" class="node">
<title>Node32</title>
<g id="a_node32"><a xlink:href="../../d6/d27/class_t___m_e_s_h_1_1_basic___t_mesh.html#a0c926e4d0861047162403f5fc6ffeb1b" target="_top" xlink:title="Loads VRML 1.0.">
<polygon fill="white" stroke="black" points="1030.5,-252 1030.5,-282 1153.5,-282 1153.5,-252 1030.5,-252"/>
<text text-anchor="start" x="1038.5" y="-270" font-family="Helvetica,sans-Serif" font-size="10.00">T_MESH::Basic_TMesh</text>
<text text-anchor="middle" x="1092" y="-259" font-family="Helvetica,sans-Serif" font-size="10.00">::loadVRML1</text>
</a>
</g>
</g>
<!-- Node1&#45;&gt;Node32 -->
<g id="edge51" class="edge">
<title>Node1&#45;&gt;Node32</title>
<path fill="none" stroke="midnightblue" d="M1187.74,-252.73C1176.35,-254.45 1164.65,-256.21 1153.54,-257.88"/>
<polygon fill="midnightblue" stroke="midnightblue" points="1188.29,-256.19 1197.66,-251.24 1187.25,-249.27 1188.29,-256.19"/>
</g>
<!-- Node34 -->
<g id="node34" class="node">
<title>Node34</title>
<g id="a_node34"><a xlink:href="../../d6/d27/class_t___m_e_s_h_1_1_basic___t_mesh.html#aa4f8d986e02686de18f5b6e2333cd8d6" target="_top" xlink:title="Loads VRML 2.0.">
<polygon fill="white" stroke="black" points="1030.5,-203 1030.5,-233 1153.5,-233 1153.5,-203 1030.5,-203"/>
<text text-anchor="start" x="1038.5" y="-221" font-family="Helvetica,sans-Serif" font-size="10.00">T_MESH::Basic_TMesh</text>
<text text-anchor="middle" x="1092" y="-210" font-family="Helvetica,sans-Serif" font-size="10.00">::loadVRML2</text>
</a>
</g>
</g>
<!-- Node1&#45;&gt;Node34 -->
<g id="edge55" class="edge">
<title>Node1&#45;&gt;Node34</title>
<path fill="none" stroke="midnightblue" d="M1187.74,-231.7C1176.35,-230.05 1164.65,-228.36 1153.54,-226.75"/>
<polygon fill="midnightblue" stroke="midnightblue" points="1187.26,-235.16 1197.66,-233.13 1188.26,-228.24 1187.26,-235.16"/>
</g>
<!-- Node35 -->
<g id="node35" class="node">
<title>Node35</title>
<g id="a_node35"><a xlink:href="../../d9/d69/class_t___m_e_s_h_1_1mc__grid.html#acab069f805e6c473afb4e340d3d8d1ae" target="_top" xlink:title="&lt; AMF_CHANGE &#45; since T_MESH 2.4&#45;2 &gt;">
<polygon fill="white" stroke="black" points="1024,-0.5 1024,-19.5 1160,-19.5 1160,-0.5 1024,-0.5"/>
<text text-anchor="middle" x="1092" y="-7.5" font-family="Helvetica,sans-Serif" font-size="10.00">T_MESH::mc_grid::remesh</text>
</a>
</g>
</g>
<!-- Node1&#45;&gt;Node35 -->
<g id="edge57" class="edge">
<title>Node1&#45;&gt;Node35</title>
<path fill="none" stroke="midnightblue" d="M1254.67,-216.71C1245.68,-172.01 1220.7,-79.05 1162,-29 1157.46,-25.13 1152.2,-22.04 1146.64,-19.58"/>
<polygon fill="midnightblue" stroke="midnightblue" points="1251.27,-217.56 1256.58,-226.73 1258.15,-216.25 1251.27,-217.56"/>
</g>
<!-- Node36 -->
<g id="node36" class="node">
<title>Node36</title>
<g id="a_node36"><a xlink:href="../../d6/d27/class_t___m_e_s_h_1_1_basic___t_mesh.html#abd13c6fd390da4089491706037fc5664" target="_top" xlink:title="Selects all the triangles that unproperly intersect other parts of the mesh and return their number.">
<polygon fill="white" stroke="black" points="1022,-460 1022,-490 1162,-490 1162,-460 1022,-460"/>
<text text-anchor="start" x="1030" y="-478" font-family="Helvetica,sans-Serif" font-size="10.00">T_MESH::Basic_TMesh</text>
<text text-anchor="middle" x="1092" y="-467" font-family="Helvetica,sans-Serif" font-size="10.00">::selectIntersectingTriangles</text>
</a>
</g>
</g>
<!-- Node1&#45;&gt;Node36 -->
<g id="edge58" class="edge">
<title>Node1&#45;&gt;Node36</title>
<path fill="none" stroke="midnightblue" d="M1248.85,-266.96C1233.5,-302.8 1201.92,-369.83 1162,-418 1148.52,-434.27 1129.88,-449.34 1115.38,-459.89"/>
<polygon fill="midnightblue" stroke="midnightblue" points="1252.26,-267.88 1252.91,-257.3 1245.8,-265.16 1252.26,-267.88"/>
</g>
<!-- Node3 -->
<g id="node3" class="node">
<title>Node3</title>
<g id="a_node3"><a xlink:href="../../d2/d68/class_export_open_scad_tool.html#a6e48e9b58a764bc8032b1fbc4082603d" target="_top" xlink:title=" ">
<polygon fill="white" stroke="black" points="534,-479 534,-509 643,-509 643,-479 534,-479"/>
<text text-anchor="start" x="542" y="-497" font-family="Helvetica,sans-Serif" font-size="10.00">ExportOpenScadTool</text>
<text text-anchor="middle" x="588.5" y="-486" font-family="Helvetica,sans-Serif" font-size="10.00">::fixMesh</text>
</a>
</g>
</g>
<!-- Node2&#45;&gt;Node3 -->
<g id="edge2" class="edge">
<title>Node2&#45;&gt;Node3</title>
<path fill="none" stroke="midnightblue" d="M1056.33,-543.97C1036.45,-554.27 1010.62,-565.74 986,-571 851.08,-599.82 689.34,-538.86 621.7,-509.1"/>
<polygon fill="midnightblue" stroke="midnightblue" points="1058.11,-546.99 1065.3,-539.2 1054.82,-540.81 1058.11,-546.99"/>
</g>
<!-- Node8 -->
<g id="node8" class="node">
<title>Node8</title>
<g id="a_node8"><a xlink:href="../../dd/d00/class_export_s_t_l_tool.html#a82d1e11c365c1ed2adf6d831b7f6014f" target="_top" xlink:title=" ">
<polygon fill="white" stroke="black" points="528,-438.5 528,-457.5 649,-457.5 649,-438.5 528,-438.5"/>
<text text-anchor="middle" x="588.5" y="-445.5" font-family="Helvetica,sans-Serif" font-size="10.00">ExportSTLTool::fixMesh</text>
</a>
</g>
</g>
<!-- Node2&#45;&gt;Node8 -->
<g id="edge9" class="edge">
<title>Node2&#45;&gt;Node8</title>
<path fill="none" stroke="midnightblue" d="M1032.19,-504.97C1028.69,-503.4 1025.27,-501.74 1022,-500 1004.35,-490.6 1004.77,-479.92 986,-473 872.59,-431.18 728.64,-434.9 649.11,-441.41"/>
<polygon fill="midnightblue" stroke="midnightblue" points="1031,-508.26 1041.57,-508.91 1033.71,-501.81 1031,-508.26"/>
</g>
<!-- Node10 -->
<g id="node10" class="node">
<title>Node10</title>
<g id="a_node10"><a xlink:href="../../d9/dc6/class_main_window.html#a15f9fa9fe71b50669ecf5f5a3a1ce90e" target="_top" xlink:title="Import STL / OBJ mesh into the scene.">
<polygon fill="white" stroke="black" points="528,-618.5 528,-637.5 649,-637.5 649,-618.5 528,-618.5"/>
<text text-anchor="middle" x="588.5" y="-625.5" font-family="Helvetica,sans-Serif" font-size="10.00">MainWindow::loadMesh</text>
</a>
</g>
</g>
<!-- Node2&#45;&gt;Node10 -->
<g id="edge11" class="edge">
<title>Node2&#45;&gt;Node10</title>
<path fill="none" stroke="midnightblue" d="M1064.07,-545.11C1043.8,-559.78 1014.69,-578.37 986,-588 871.39,-626.49 728.49,-631.07 649.33,-630.1"/>
<polygon fill="midnightblue" stroke="midnightblue" points="1066.23,-547.86 1072.19,-539.1 1062.07,-542.23 1066.23,-547.86"/>
</g>
<!-- Node20 -->
<g id="node20" class="node">
<title>Node20</title>
<g id="a_node20"><a xlink:href="../../d6/d27/class_t___m_e_s_h_1_1_basic___t_mesh.html#af160de0b4a939ef2cb93279f67e6dd34" target="_top" xlink:title="Calls &#39;removeDegenerateTriangles()&#39; and, if some degeneracies remain, removes them and fills the resu...">
<polygon fill="white" stroke="black" points="845,-531 845,-561 986,-561 986,-531 845,-531"/>
<text text-anchor="start" x="853" y="-549" font-family="Helvetica,sans-Serif" font-size="10.00">T_MESH::Basic_TMesh</text>
<text text-anchor="middle" x="915.5" y="-538" font-family="Helvetica,sans-Serif" font-size="10.00">::strongDegeneracyRemoval</text>
</a>
</g>
</g>
<!-- Node2&#45;&gt;Node20 -->
<g id="edge27" class="edge">
<title>Node2&#45;&gt;Node20</title>
<path fill="none" stroke="midnightblue" d="M1020.27,-532.92C1009.04,-534.33 997.42,-535.8 986.21,-537.21"/>
<polygon fill="midnightblue" stroke="midnightblue" points="1020.97,-536.36 1030.46,-531.63 1020.1,-529.41 1020.97,-536.36"/>
</g>
<!-- Node22 -->
<g id="node22" class="node">
<title>Node22</title>
<g id="a_node22"><a xlink:href="../../d6/d27/class_t___m_e_s_h_1_1_basic___t_mesh.html#a1415feaeb04556d7729a02f73b546ab1" target="_top" xlink:title="Removes all the intersecting triangles and patches the resulting holes.">
<polygon fill="white" stroke="black" points="845.5,-482 845.5,-512 985.5,-512 985.5,-482 845.5,-482"/>
<text text-anchor="start" x="853.5" y="-500" font-family="Helvetica,sans-Serif" font-size="10.00">T_MESH::Basic_TMesh</text>
<text text-anchor="middle" x="915.5" y="-489" font-family="Helvetica,sans-Serif" font-size="10.00">::strongIntersectionRemoval</text>
</a>
</g>
</g>
<!-- Node2&#45;&gt;Node22 -->
<g id="edge32" class="edge">
<title>Node2&#45;&gt;Node22</title>
<path fill="none" stroke="midnightblue" d="M1020.48,-513.09C1008.98,-511.31 997.07,-509.47 985.61,-507.69"/>
<polygon fill="midnightblue" stroke="midnightblue" points="1020.04,-516.56 1030.46,-514.63 1021.11,-509.64 1020.04,-516.56"/>
</g>
<!-- Node4 -->
<g id="node4" class="node">
<title>Node4</title>
<g id="a_node4"><a xlink:href="../../d2/d68/class_export_open_scad_tool.html#a2e36901501e307b74705aa84f4227d67" target="_top" xlink:title="Export the wiring in the openscad format.">
<polygon fill="white" stroke="black" points="362,-476 362,-506 471,-506 471,-476 362,-476"/>
<text text-anchor="start" x="370" y="-494" font-family="Helvetica,sans-Serif" font-size="10.00">ExportOpenScadTool</text>
<text text-anchor="middle" x="416.5" y="-483" font-family="Helvetica,sans-Serif" font-size="10.00">::writeWiring</text>
</a>
</g>
</g>
<!-- Node3&#45;&gt;Node4 -->
<g id="edge3" class="edge">
<title>Node3&#45;&gt;Node4</title>
<path fill="none" stroke="midnightblue" d="M523.7,-492.87C506.42,-492.57 487.9,-492.24 471.23,-491.95"/>
<polygon fill="midnightblue" stroke="midnightblue" points="523.65,-496.37 533.71,-493.05 523.77,-489.37 523.65,-496.37"/>
</g>
<!-- Node5 -->
<g id="node5" class="node">
<title>Node5</title>
<g id="a_node5"><a xlink:href="../../d2/d68/class_export_open_scad_tool.html#a71ef67a238fb9cd74563b65d77c1ea73" target="_top" xlink:title=" ">
<polygon fill="white" stroke="black" points="13,-476 13,-506 122,-506 122,-476 13,-476"/>
<text text-anchor="start" x="21" y="-494" font-family="Helvetica,sans-Serif" font-size="10.00">ExportOpenScadTool</text>
<text text-anchor="middle" x="67.5" y="-483" font-family="Helvetica,sans-Serif" font-size="10.00">::execute</text>
</a>
</g>
</g>
<!-- Node4&#45;&gt;Node5 -->
<g id="edge4" class="edge">
<title>Node4&#45;&gt;Node5</title>
<path fill="none" stroke="midnightblue" d="M351.72,-474.6C336.82,-471.44 320.93,-468.62 306,-467 246.35,-460.54 230.6,-460.12 171,-467 154.93,-468.86 137.72,-472.3 122.08,-476.01"/>
<polygon fill="midnightblue" stroke="midnightblue" points="351.34,-478.1 361.86,-476.82 352.84,-471.26 351.34,-478.1"/>
</g>
<!-- Node6 -->
<g id="node6" class="node">
<title>Node6</title>
<g id="a_node6"><a xlink:href="../../d2/d68/class_export_open_scad_tool.html#a9c35cf64ece9ee328df6ebfd080c0689" target="_top" xlink:title="Export the meshdifference between mesh and wiring in the openscad format.">
<polygon fill="white" stroke="black" points="184,-525 184,-555 293,-555 293,-525 184,-525"/>
<text text-anchor="start" x="192" y="-543" font-family="Helvetica,sans-Serif" font-size="10.00">ExportOpenScadTool</text>
<text text-anchor="middle" x="238.5" y="-532" font-family="Helvetica,sans-Serif" font-size="10.00">::writeDifference</text>
</a>
</g>
</g>
<!-- Node4&#45;&gt;Node6 -->
<g id="edge5" class="edge">
<title>Node4&#45;&gt;Node6</title>
<path fill="none" stroke="midnightblue" d="M351.86,-508.72C332.64,-514.07 311.74,-519.89 293.24,-525.04"/>
<polygon fill="midnightblue" stroke="midnightblue" points="353.04,-512.02 361.74,-505.97 351.17,-505.28 353.04,-512.02"/>
</g>
<!-- Node7 -->
<g id="node7" class="node">
<title>Node7</title>
<g id="a_node7"><a xlink:href="../../d2/d68/class_export_open_scad_tool.html#adc9cf506ecd2ef6e33f37f2eb206da1a" target="_top" xlink:title="Export the meshdifference between mesh and magnets in the openscad format.">
<polygon fill="white" stroke="black" points="176,-476 176,-506 301,-506 301,-476 176,-476"/>
<text text-anchor="start" x="184" y="-494" font-family="Helvetica,sans-Serif" font-size="10.00">ExportOpenScadTool</text>
<text text-anchor="middle" x="238.5" y="-483" font-family="Helvetica,sans-Serif" font-size="10.00">::writeDifferenceMagnets</text>
</a>
</g>
</g>
<!-- Node4&#45;&gt;Node7 -->
<g id="edge7" class="edge">
<title>Node4&#45;&gt;Node7</title>
<path fill="none" stroke="midnightblue" d="M351.68,-491C335.24,-491 317.59,-491 301.25,-491"/>
<polygon fill="midnightblue" stroke="midnightblue" points="351.74,-494.5 361.74,-491 351.74,-487.5 351.74,-494.5"/>
</g>
<!-- Node6&#45;&gt;Node5 -->
<g id="edge6" class="edge">
<title>Node6&#45;&gt;Node5</title>
<path fill="none" stroke="midnightblue" d="M175.78,-522.11C157.61,-516.84 137.91,-511.12 120.41,-506.05"/>
<polygon fill="midnightblue" stroke="midnightblue" points="174.84,-525.48 185.42,-524.9 176.79,-518.75 174.84,-525.48"/>
</g>
<!-- Node7&#45;&gt;Node5 -->
<g id="edge8" class="edge">
<title>Node7&#45;&gt;Node5</title>
<path fill="none" stroke="midnightblue" d="M165.13,-491C150.69,-491 135.77,-491 122.11,-491"/>
<polygon fill="midnightblue" stroke="midnightblue" points="165.53,-494.5 175.53,-491 165.53,-487.5 165.53,-494.5"/>
</g>
<!-- Node9 -->
<g id="node9" class="node">
<title>Node9</title>
<g id="a_node9"><a xlink:href="../../dd/d00/class_export_s_t_l_tool.html#a218420198ac8fef5b9f9a8acc889307d" target="_top" xlink:title=" ">
<polygon fill="white" stroke="black" points="356,-437.5 356,-456.5 477,-456.5 477,-437.5 356,-437.5"/>
<text text-anchor="middle" x="416.5" y="-444.5" font-family="Helvetica,sans-Serif" font-size="10.00">ExportSTLTool::execute</text>
</a>
</g>
</g>
<!-- Node8&#45;&gt;Node9 -->
<g id="edge10" class="edge">
<title>Node8&#45;&gt;Node9</title>
<path fill="none" stroke="midnightblue" d="M517.46,-447.59C504.08,-447.51 490.2,-447.43 477.18,-447.35"/>
<polygon fill="midnightblue" stroke="midnightblue" points="517.54,-451.09 527.56,-447.65 517.59,-444.09 517.54,-451.09"/>
</g>
<!-- Node11 -->
<g id="node11" class="node">
<title>Node11</title>
<g id="a_node11"><a xlink:href="../../d9/dc6/class_main_window.html#a6e3c9bc26115fb1b1664607e58716641" target="_top" xlink:title=" ">
<polygon fill="white" stroke="black" points="343.5,-574.5 343.5,-593.5 489.5,-593.5 489.5,-574.5 343.5,-574.5"/>
<text text-anchor="middle" x="416.5" y="-581.5" font-family="Helvetica,sans-Serif" font-size="10.00">MainWindow::slotImportMesh</text>
</a>
</g>
</g>
<!-- Node10&#45;&gt;Node11 -->
<g id="edge12" class="edge">
<title>Node10&#45;&gt;Node11</title>
<path fill="none" stroke="midnightblue" d="M540.9,-615.94C513.63,-608.88 479.7,-600.1 454.32,-593.53"/>
<polygon fill="midnightblue" stroke="midnightblue" points="540.05,-619.34 550.61,-618.45 541.81,-612.56 540.05,-619.34"/>
</g>
<!-- Node14 -->
<g id="node14" class="node">
<title>Node14</title>
<g id="a_node14"><a xlink:href="../../d9/dc6/class_main_window.html#a46bb2fea8ddeab75e15a223c291116b6" target="_top" xlink:title=" ">
<polygon fill="white" stroke="black" points="342,-525 342,-555 491,-555 491,-525 342,-525"/>
<text text-anchor="start" x="350" y="-543" font-family="Helvetica,sans-Serif" font-size="10.00">MainWindow::slotOptimization</text>
<text text-anchor="middle" x="416.5" y="-532" font-family="Helvetica,sans-Serif" font-size="10.00">BenchmarkBunnyLowPoly</text>
</a>
</g>
</g>
<!-- Node10&#45;&gt;Node14 -->
<g id="edge15" class="edge">
<title>Node10&#45;&gt;Node14</title>
<path fill="none" stroke="midnightblue" d="M566.82,-612.3C547.87,-598.46 518.64,-578.46 491,-565 483.49,-561.34 475.3,-557.99 467.21,-555.01"/>
<polygon fill="midnightblue" stroke="midnightblue" points="564.88,-615.22 575,-618.36 569.05,-609.6 564.88,-615.22"/>
</g>
<!-- Node15 -->
<g id="node15" class="node">
<title>Node15</title>
<g id="a_node15"><a xlink:href="../../d9/dc6/class_main_window.html#affed0fab82fd390e2762933c6dca9124" target="_top" xlink:title=" ">
<polygon fill="white" stroke="black" points="342,-809 342,-839 491,-839 491,-809 342,-809"/>
<text text-anchor="start" x="350" y="-827" font-family="Helvetica,sans-Serif" font-size="10.00">MainWindow::slotOptimization</text>
<text text-anchor="middle" x="416.5" y="-816" font-family="Helvetica,sans-Serif" font-size="10.00">BenchmarkCorona</text>
</a>
</g>
</g>
<!-- Node10&#45;&gt;Node15 -->
<g id="edge17" class="edge">
<title>Node10&#45;&gt;Node15</title>
<path fill="none" stroke="midnightblue" d="M581.81,-647.49C570.45,-683.01 541.6,-758.45 491,-800 486.85,-803.41 482.2,-806.34 477.32,-808.85"/>
<polygon fill="midnightblue" stroke="midnightblue" points="585.19,-648.41 584.78,-637.83 578.49,-646.36 585.19,-648.41"/>
</g>
<!-- Node16 -->
<g id="node16" class="node">
<title>Node16</title>
<g id="a_node16"><a xlink:href="../../d9/dc6/class_main_window.html#adfdb8fcb8685844e8ce11bfb41b83b7d" target="_top" xlink:title=" ">
<polygon fill="white" stroke="black" points="342,-760 342,-790 491,-790 491,-760 342,-760"/>
<text text-anchor="start" x="350" y="-778" font-family="Helvetica,sans-Serif" font-size="10.00">MainWindow::slotOptimization</text>
<text text-anchor="middle" x="416.5" y="-767" font-family="Helvetica,sans-Serif" font-size="10.00">BenchmarkCthulhu</text>
</a>
</g>
</g>
<!-- Node10&#45;&gt;Node16 -->
<g id="edge19" class="edge">
<title>Node10&#45;&gt;Node16</title>
<path fill="none" stroke="midnightblue" d="M577.62,-646.68C562.48,-673.56 531.03,-722.99 491,-751 486.16,-754.39 480.81,-757.32 475.28,-759.85"/>
<polygon fill="midnightblue" stroke="midnightblue" points="580.87,-648.02 582.61,-637.57 574.73,-644.66 580.87,-648.02"/>
</g>
<!-- Node17 -->
<g id="node17" class="node">
<title>Node17</title>
<g id="a_node17"><a xlink:href="../../d9/dc6/class_main_window.html#a5283a0d7aeeafd409c69b272053f3986" target="_top" xlink:title=" ">
<polygon fill="white" stroke="black" points="342,-711 342,-741 491,-741 491,-711 342,-711"/>
<text text-anchor="start" x="350" y="-729" font-family="Helvetica,sans-Serif" font-size="10.00">MainWindow::slotOptimization</text>
<text text-anchor="middle" x="416.5" y="-718" font-family="Helvetica,sans-Serif" font-size="10.00">BenchmarkCube</text>
</a>
</g>
</g>
<!-- Node10&#45;&gt;Node17 -->
<g id="edge21" class="edge">
<title>Node10&#45;&gt;Node17</title>
<path fill="none" stroke="midnightblue" d="M569.72,-644.64C551.27,-661.15 520.97,-686.21 491,-702 484.71,-705.32 477.87,-708.29 470.98,-710.92"/>
<polygon fill="midnightblue" stroke="midnightblue" points="572.29,-647.04 577.32,-637.72 567.57,-641.86 572.29,-647.04"/>
</g>
<!-- Node18 -->
<g id="node18" class="node">
<title>Node18</title>
<g id="a_node18"><a xlink:href="../../d9/dc6/class_main_window.html#a0c92ca2d04a79a1580c2e8e136b82682" target="_top" xlink:title=" ">
<polygon fill="white" stroke="black" points="342,-662 342,-692 491,-692 491,-662 342,-662"/>
<text text-anchor="start" x="350" y="-680" font-family="Helvetica,sans-Serif" font-size="10.00">MainWindow::slotOptimization</text>
<text text-anchor="middle" x="416.5" y="-669" font-family="Helvetica,sans-Serif" font-size="10.00">BenchmarkSphere</text>
</a>
</g>
</g>
<!-- Node10&#45;&gt;Node18 -->
<g id="edge23" class="edge">
<title>Node10&#45;&gt;Node18</title>
<path fill="none" stroke="midnightblue" d="M544.6,-640.37C521.84,-646.93 493.69,-655.04 469.67,-661.96"/>
<polygon fill="midnightblue" stroke="midnightblue" points="545.68,-643.7 554.32,-637.56 543.74,-636.97 545.68,-643.7"/>
</g>
<!-- Node19 -->
<g id="node19" class="node">
<title>Node19</title>
<g id="a_node19"><a xlink:href="../../d9/dc6/class_main_window.html#a86cd359f80311725589d0861dd7a9851" target="_top" xlink:title=" ">
<polygon fill="white" stroke="black" points="342,-613 342,-643 491,-643 491,-613 342,-613"/>
<text text-anchor="start" x="350" y="-631" font-family="Helvetica,sans-Serif" font-size="10.00">MainWindow::slotOptimization</text>
<text text-anchor="middle" x="416.5" y="-620" font-family="Helvetica,sans-Serif" font-size="10.00">BenchmarkUChannel</text>
</a>
</g>
</g>
<!-- Node10&#45;&gt;Node19 -->
<g id="edge25" class="edge">
<title>Node10&#45;&gt;Node19</title>
<path fill="none" stroke="midnightblue" d="M517.5,-628C508.82,-628 499.93,-628 491.2,-628"/>
<polygon fill="midnightblue" stroke="midnightblue" points="517.56,-631.5 527.56,-628 517.56,-624.5 517.56,-631.5"/>
</g>
<!-- Node12 -->
<g id="node12" class="node">
<title>Node12</title>
<g id="a_node12"><a xlink:href="../../d9/dc6/class_main_window.html#a33dddfc15db4053f9117728538e7ece4" target="_top" xlink:title="Set up qt specific signal and slots part for enabling user interaction.">
<polygon fill="white" stroke="black" points="171,-662 171,-692 306,-692 306,-662 171,-662"/>
<text text-anchor="start" x="179" y="-680" font-family="Helvetica,sans-Serif" font-size="10.00">MainWindow::setupSignals</text>
<text text-anchor="middle" x="238.5" y="-669" font-family="Helvetica,sans-Serif" font-size="10.00">AndSlots</text>
</a>
</g>
</g>
<!-- Node11&#45;&gt;Node12 -->
<g id="edge13" class="edge">
<title>Node11&#45;&gt;Node12</title>
<path fill="none" stroke="midnightblue" d="M360.36,-596.7C354.05,-598.83 347.8,-601.25 342,-604 309.42,-619.43 276.26,-645.29 256.8,-661.73"/>
<polygon fill="midnightblue" stroke="midnightblue" points="361.78,-599.92 370.28,-593.6 359.7,-593.24 361.78,-599.92"/>
</g>
<!-- Node13 -->
<g id="node13" class="node">
<title>Node13</title>
<g id="a_node13"><a xlink:href="../../d9/dc6/class_main_window.html#a996c5a2b6f77944776856f08ec30858d" target="_top" xlink:title=" ">
<polygon fill="white" stroke="black" points="0,-667.5 0,-686.5 135,-686.5 135,-667.5 0,-667.5"/>
<text text-anchor="middle" x="67.5" y="-674.5" font-family="Helvetica,sans-Serif" font-size="10.00">MainWindow::MainWindow</text>
</a>
</g>
</g>
<!-- Node12&#45;&gt;Node13 -->
<g id="edge14" class="edge">
<title>Node12&#45;&gt;Node13</title>
<path fill="none" stroke="midnightblue" d="M160.45,-677C151.98,-677 143.41,-677 135.08,-677"/>
<polygon fill="midnightblue" stroke="midnightblue" points="160.71,-680.5 170.71,-677 160.71,-673.5 160.71,-680.5"/>
</g>
<!-- Node14&#45;&gt;Node12 -->
<g id="edge16" class="edge">
<title>Node14&#45;&gt;Node12</title>
<path fill="none" stroke="midnightblue" d="M351.82,-559.33C348.42,-561.08 345.12,-562.96 342,-565 301.4,-591.53 266.21,-637.78 249.63,-661.7"/>
<polygon fill="midnightblue" stroke="midnightblue" points="353.46,-562.42 361.04,-555.02 350.5,-556.08 353.46,-562.42"/>
</g>
<!-- Node15&#45;&gt;Node12 -->
<g id="edge18" class="edge">
<title>Node15&#45;&gt;Node12</title>
<path fill="none" stroke="midnightblue" d="M349.08,-804.34C346.64,-802.98 344.27,-801.54 342,-800 298.75,-770.67 263.74,-718.09 248.2,-692.22"/>
<polygon fill="midnightblue" stroke="midnightblue" points="347.69,-807.55 358.2,-808.87 350.81,-801.29 347.69,-807.55"/>
</g>
<!-- Node16&#45;&gt;Node12 -->
<g id="edge20" class="edge">
<title>Node16&#45;&gt;Node12</title>
<path fill="none" stroke="midnightblue" d="M353,-756.1C349.23,-754.5 345.53,-752.8 342,-751 309.72,-734.58 276.47,-708.59 256.91,-692.18"/>
<polygon fill="midnightblue" stroke="midnightblue" points="351.91,-759.44 362.5,-759.89 354.51,-752.93 351.91,-759.44"/>
</g>
<!-- Node17&#45;&gt;Node12 -->
<g id="edge22" class="edge">
<title>Node17&#45;&gt;Node12</title>
<path fill="none" stroke="midnightblue" d="M351.49,-708.18C332.49,-702.89 311.87,-697.15 293.56,-692.05"/>
<polygon fill="midnightblue" stroke="midnightblue" points="350.69,-711.59 361.26,-710.9 352.56,-704.84 350.69,-711.59"/>
</g>
<!-- Node18&#45;&gt;Node12 -->
<g id="edge24" class="edge">
<title>Node18&#45;&gt;Node12</title>
<path fill="none" stroke="midnightblue" d="M331.8,-677C323.18,-677 314.5,-677 306.09,-677"/>
<polygon fill="midnightblue" stroke="midnightblue" points="331.88,-680.5 341.88,-677 331.88,-673.5 331.88,-680.5"/>
</g>
<!-- Node19&#45;&gt;Node12 -->
<g id="edge26" class="edge">
<title>Node19&#45;&gt;Node12</title>
<path fill="none" stroke="midnightblue" d="M351.49,-645.82C332.49,-651.11 311.87,-656.85 293.56,-661.95"/>
<polygon fill="midnightblue" stroke="midnightblue" points="352.56,-649.16 361.26,-643.1 350.69,-642.41 352.56,-649.16"/>
</g>
<!-- Node21 -->
<g id="node21" class="node">
<title>Node21</title>
<g id="a_node21"><a xlink:href="../../d6/d27/class_t___m_e_s_h_1_1_basic___t_mesh.html#a1270b60eec84c1f939d405d9ade1a94e" target="_top" xlink:title="Iteratively call strongDegeneracyRemoval and strongIntersectionRemoval to produce an eventually clean...">
<polygon fill="white" stroke="black" points="686,-482 686,-512 809,-512 809,-482 686,-482"/>
<text text-anchor="start" x="694" y="-500" font-family="Helvetica,sans-Serif" font-size="10.00">T_MESH::Basic_TMesh</text>
<text text-anchor="middle" x="747.5" y="-489" font-family="Helvetica,sans-Serif" font-size="10.00">::meshclean</text>
</a>
</g>
</g>
<!-- Node20&#45;&gt;Node21 -->
<g id="edge28" class="edge">
<title>Node20&#45;&gt;Node21</title>
<path fill="none" stroke="midnightblue" d="M853.63,-528.03C835.85,-522.78 816.6,-517.1 799.49,-512.05"/>
<polygon fill="midnightblue" stroke="midnightblue" points="852.76,-531.42 863.34,-530.9 854.74,-524.71 852.76,-531.42"/>
</g>
<!-- Node21&#45;&gt;Node3 -->
<g id="edge29" class="edge">
<title>Node21&#45;&gt;Node3</title>
<path fill="none" stroke="midnightblue" d="M675.47,-495.64C664.6,-495.44 653.54,-495.22 643.13,-495.02"/>
<polygon fill="midnightblue" stroke="midnightblue" points="675.73,-499.15 685.8,-495.84 675.87,-492.15 675.73,-499.15"/>
</g>
<!-- Node21&#45;&gt;Node8 -->
<g id="edge30" class="edge">
<title>Node21&#45;&gt;Node8</title>
<path fill="none" stroke="midnightblue" d="M688.38,-478.86C665.24,-471.64 639.57,-463.63 620.18,-457.58"/>
<polygon fill="midnightblue" stroke="midnightblue" points="687.53,-482.26 698.11,-481.9 689.61,-475.58 687.53,-482.26"/>
</g>
<!-- Node21&#45;&gt;Node10 -->
<g id="edge31" class="edge">
<title>Node21&#45;&gt;Node10</title>
<path fill="none" stroke="midnightblue" d="M720.69,-518.53C686.12,-547.38 626.21,-597.37 601.1,-618.32"/>
<polygon fill="midnightblue" stroke="midnightblue" points="723.05,-521.12 728.49,-512.03 718.57,-515.75 723.05,-521.12"/>
</g>
<!-- Node22&#45;&gt;Node21 -->
<g id="edge33" class="edge">
<title>Node22&#45;&gt;Node21</title>
<path fill="none" stroke="midnightblue" d="M834.95,-497C826.3,-497 817.59,-497 809.22,-497"/>
<polygon fill="midnightblue" stroke="midnightblue" points="835.06,-500.5 845.06,-497 835.06,-493.5 835.06,-500.5"/>
</g>
<!-- Node25 -->
<g id="node25" class="node">
<title>Node25</title>
<g id="a_node25"><a xlink:href="../../d6/d27/class_t___m_e_s_h_1_1_basic___t_mesh.html#a24ff0322eb032b4c87635c809c35c914" target="_top" xlink:title="Initialize the triangle mesh from the file &#39;filename&#39;.">
<polygon fill="white" stroke="black" points="686,-282 686,-312 809,-312 809,-282 686,-282"/>
<text text-anchor="start" x="694" y="-300" font-family="Helvetica,sans-Serif" font-size="10.00">T_MESH::Basic_TMesh</text>
<text text-anchor="middle" x="747.5" y="-289" font-family="Helvetica,sans-Serif" font-size="10.00">::load</text>
</a>
</g>
</g>
<!-- Node24&#45;&gt;Node25 -->
<g id="edge36" class="edge">
<title>Node24&#45;&gt;Node25</title>
<path fill="none" stroke="midnightblue" d="M861.31,-165.66C855.57,-168.73 850,-172.18 845,-176 805.29,-206.35 772.34,-256.47 757.29,-281.61"/>
<polygon fill="midnightblue" stroke="midnightblue" points="863.01,-168.72 870.42,-161.14 859.9,-162.45 863.01,-168.72"/>
</g>
<!-- Node25&#45;&gt;Node3 -->
<g id="edge38" class="edge">
<title>Node25&#45;&gt;Node3</title>
<path fill="none" stroke="midnightblue" d="M738.04,-322.07C724.63,-358.42 695.28,-425.89 650,-467 644.89,-471.64 638.85,-475.59 632.6,-478.91"/>
<polygon fill="midnightblue" stroke="midnightblue" points="741.47,-322.86 741.55,-312.27 734.88,-320.51 741.47,-322.86"/>
</g>
<!-- Node25&#45;&gt;Node8 -->
<g id="edge39" class="edge">
<title>Node25&#45;&gt;Node8</title>
<path fill="none" stroke="midnightblue" d="M723.53,-319.09C688.78,-352.52 624.28,-414.55 599.53,-438.36"/>
<polygon fill="midnightblue" stroke="midnightblue" points="726.09,-321.49 730.87,-312.03 721.24,-316.44 726.09,-321.49"/>
</g>
<!-- Node25&#45;&gt;Node10 -->
<g id="edge40" class="edge">
<title>Node25&#45;&gt;Node10</title>
<path fill="none" stroke="midnightblue" d="M736.74,-321.54C720.12,-362.85 684.71,-448.65 650,-519 631.52,-556.46 606.52,-599.39 595.33,-618.25"/>
<polygon fill="midnightblue" stroke="midnightblue" points="740.08,-322.62 740.55,-312.04 733.58,-320.02 740.08,-322.62"/>
</g>
<!-- Node26 -->
<g id="node26" class="node">
<title>Node26</title>
<g id="a_node26"><a xlink:href="../../d6/d27/class_t___m_e_s_h_1_1_basic___t_mesh.html#afe360f55844b79823d045599dc1ea937" target="_top" xlink:title="Append another triangle mesh to the existing one.">
<polygon fill="white" stroke="black" points="527,-282 527,-312 650,-312 650,-282 527,-282"/>
<text text-anchor="start" x="535" y="-300" font-family="Helvetica,sans-Serif" font-size="10.00">T_MESH::Basic_TMesh</text>
<text text-anchor="middle" x="588.5" y="-289" font-family="Helvetica,sans-Serif" font-size="10.00">::append</text>
</a>
</g>
</g>
<!-- Node25&#45;&gt;Node26 -->
<g id="edge37" class="edge">
<title>Node25&#45;&gt;Node26</title>
<path fill="none" stroke="midnightblue" d="M675.79,-297C667.19,-297 658.47,-297 650.04,-297"/>
<polygon fill="midnightblue" stroke="midnightblue" points="675.8,-300.5 685.8,-297 675.8,-293.5 675.8,-300.5"/>
</g>
<!-- Node27&#45;&gt;Node25 -->
<g id="edge42" class="edge">
<title>Node27&#45;&gt;Node25</title>
<path fill="none" stroke="midnightblue" d="M851.22,-117.3C849.05,-118.76 846.96,-120.33 845,-122 792.33,-166.91 763.15,-248.1 752.83,-281.75"/>
<polygon fill="midnightblue" stroke="midnightblue" points="853.14,-120.23 859.99,-112.14 849.59,-114.19 853.14,-120.23"/>
</g>
<!-- Node28&#45;&gt;Node25 -->
<g id="edge44" class="edge">
<title>Node28&#45;&gt;Node25</title>
<path fill="none" stroke="midnightblue" d="M848.56,-68.96C847.33,-69.93 846.14,-70.94 845,-72 780.72,-131.77 757.35,-241.51 750.72,-281.72"/>
<polygon fill="midnightblue" stroke="midnightblue" points="850.83,-71.65 857.21,-63.19 846.94,-65.83 850.83,-71.65"/>
</g>
<!-- Node29&#45;&gt;Node25 -->
<g id="edge46" class="edge">
<title>Node29&#45;&gt;Node25</title>
<path fill="none" stroke="midnightblue" d="M853.74,-389.71C850.73,-388.23 847.8,-386.66 845,-385 811.08,-364.85 778.69,-331.44 761.42,-312.1"/>
<polygon fill="midnightblue" stroke="midnightblue" points="852.39,-392.94 862.94,-393.87 855.28,-386.56 852.39,-392.94"/>
</g>
<!-- Node30&#45;&gt;Node25 -->
<g id="edge48" class="edge">
<title>Node30&#45;&gt;Node25</title>
<path fill="none" stroke="midnightblue" d="M865.23,-341.3C840.66,-331.98 811.33,-320.85 788.22,-312.08"/>
<polygon fill="midnightblue" stroke="midnightblue" points="864.15,-344.63 874.74,-344.91 866.63,-338.09 864.15,-344.63"/>
</g>
<!-- Node31&#45;&gt;Node25 -->
<g id="edge50" class="edge">
<title>Node31&#45;&gt;Node25</title>
<path fill="none" stroke="midnightblue" d="M1020.02,-312.06C957.71,-308.61 868.05,-303.63 809.06,-300.36"/>
<polygon fill="midnightblue" stroke="midnightblue" points="1019.98,-315.57 1030.16,-312.63 1020.37,-308.58 1019.98,-315.57"/>
</g>
<!-- Node32&#45;&gt;Node25 -->
<g id="edge52" class="edge">
<title>Node32&#45;&gt;Node25</title>
<path fill="none" stroke="midnightblue" d="M1020.02,-273.22C957.71,-278.68 868.05,-286.53 809.06,-291.7"/>
<polygon fill="midnightblue" stroke="midnightblue" points="1020.51,-276.69 1030.16,-272.33 1019.9,-269.71 1020.51,-276.69"/>
</g>
<!-- Node33 -->
<g id="node33" class="node">
<title>Node33</title>
<g id="a_node33"><a xlink:href="../../d6/d27/class_t___m_e_s_h_1_1_basic___t_mesh.html#aa71c313ca25eae9f2a9ed8a162b905e8" target="_top" xlink:title="Loads IV.">
<polygon fill="white" stroke="black" points="854,-219 854,-249 977,-249 977,-219 854,-219"/>
<text text-anchor="start" x="862" y="-237" font-family="Helvetica,sans-Serif" font-size="10.00">T_MESH::Basic_TMesh</text>
<text text-anchor="middle" x="915.5" y="-226" font-family="Helvetica,sans-Serif" font-size="10.00">::loadIV</text>
</a>
</g>
</g>
<!-- Node32&#45;&gt;Node33 -->
<g id="edge53" class="edge">
<title>Node32&#45;&gt;Node33</title>
<path fill="none" stroke="midnightblue" d="M1020.63,-253.69C1006.25,-250.97 991.24,-248.13 977.23,-245.48"/>
<polygon fill="midnightblue" stroke="midnightblue" points="1019.98,-257.13 1030.46,-255.55 1021.28,-250.25 1019.98,-257.13"/>
</g>
<!-- Node33&#45;&gt;Node25 -->
<g id="edge54" class="edge">
<title>Node33&#45;&gt;Node25</title>
<path fill="none" stroke="midnightblue" d="M865.23,-252.7C840.66,-262.02 811.33,-273.15 788.22,-281.92"/>
<polygon fill="midnightblue" stroke="midnightblue" points="866.63,-255.91 874.74,-249.09 864.15,-249.37 866.63,-255.91"/>
</g>
<!-- Node34&#45;&gt;Node25 -->
<g id="edge56" class="edge">
<title>Node34&#45;&gt;Node25</title>
<path fill="none" stroke="midnightblue" d="M1020.57,-201.5C970.02,-193 901.19,-188.41 845,-210 807.52,-224.4 775.51,-260.84 759.48,-281.7"/>
<polygon fill="midnightblue" stroke="midnightblue" points="1019.97,-204.95 1030.43,-203.24 1021.19,-198.05 1019.97,-204.95"/>
</g>
<!-- Node36&#45;&gt;Node22 -->
<g id="edge59" class="edge">
<title>Node36&#45;&gt;Node22</title>
<path fill="none" stroke="midnightblue" d="M1011.66,-485C1002.97,-486.1 994.18,-487.21 985.63,-488.28"/>
<polygon fill="midnightblue" stroke="midnightblue" points="1012.3,-488.45 1021.78,-483.73 1011.42,-481.5 1012.3,-488.45"/>
</g>
</g>
</svg>
