<?xml version="1.0" encoding="UTF-8" standalone="no"?>
<!DOCTYPE svg PUBLIC "-//W3C//DTD SVG 1.1//EN"
 "http://www.w3.org/Graphics/SVG/1.1/DTD/svg11.dtd">
<!-- Generated by graphviz version 2.44.0 (0)
 -->
<!-- Title: LassoInteractorStyle::OnLeftButtonUp Pages: 1 -->
<svg width="853pt" height="786pt"
 viewBox="0.00 0.00 853.00 786.00" xmlns="http://www.w3.org/2000/svg" xmlns:xlink="http://www.w3.org/1999/xlink">
<g id="graph0" class="graph" transform="scale(1 1) rotate(0) translate(4 782)">
<title>LassoInteractorStyle::OnLeftButtonUp</title>
<polygon fill="white" stroke="transparent" points="-4,4 -4,-782 849,-782 849,4 -4,4"/>
<!-- Node1 -->
<g id="node1" class="node">
<title>Node1</title>
<g id="a_node1"><a xlink:title="Overwritten method, which is executed when the left mouse button is released.">
<polygon fill="#bfbfbf" stroke="black" points="0,-513 0,-543 107,-543 107,-513 0,-513"/>
<text text-anchor="start" x="8" y="-531" font-family="Helvetica,sans-Serif" font-size="10.00">LassoInteractorStyle</text>
<text text-anchor="middle" x="53.5" y="-520" font-family="Helvetica,sans-Serif" font-size="10.00">::OnLeftButtonUp</text>
</a>
</g>
</g>
<!-- Node2 -->
<g id="node2" class="node">
<title>Node2</title>
<g id="a_node2"><a xlink:href="../../d6/db5/class_scene.html#a68d5e73ae04e190548aa66ab701814b7" target="_top" xlink:title="Add a touchpoint to the scene (which is subsequently added to the touchpoint registry)">
<polygon fill="white" stroke="black" points="167,-758.5 167,-777.5 280,-777.5 280,-758.5 167,-758.5"/>
<text text-anchor="middle" x="223.5" y="-765.5" font-family="Helvetica,sans-Serif" font-size="10.00">Scene::addTouchpoint</text>
</a>
</g>
</g>
<!-- Node1&#45;&gt;Node2 -->
<g id="edge1" class="edge">
<title>Node1&#45;&gt;Node2</title>
<path fill="none" stroke="midnightblue" d="M56.24,-543.08C61.56,-582.21 81.21,-687.86 143,-744 147.44,-748.04 152.54,-751.4 157.97,-754.19"/>
<polygon fill="midnightblue" stroke="midnightblue" points="156.8,-757.5 167.36,-758.38 159.65,-751.11 156.8,-757.5"/>
</g>
<!-- Node3 -->
<g id="node3" class="node">
<title>Node3</title>
<g id="a_node3"><a xlink:href="../../d9/d4f/namespace_layout_algorithms.html#aa987a43d71a910d093953d6b92764d7f" target="_top" xlink:title="Computes a wiring entry point in world coordinates for a touchpoint geometry.">
<polygon fill="white" stroke="black" points="155.5,-671 155.5,-701 291.5,-701 291.5,-671 155.5,-671"/>
<text text-anchor="start" x="163.5" y="-689" font-family="Helvetica,sans-Serif" font-size="10.00">LayoutAlgorithms::compute</text>
<text text-anchor="middle" x="223.5" y="-678" font-family="Helvetica,sans-Serif" font-size="10.00">ConnectionPoint</text>
</a>
</g>
</g>
<!-- Node1&#45;&gt;Node3 -->
<g id="edge2" class="edge">
<title>Node1&#45;&gt;Node3</title>
<path fill="none" stroke="midnightblue" d="M60.53,-543.22C72.23,-570.81 100.64,-629.19 143,-661 145.47,-662.85 148.07,-664.57 150.78,-666.16"/>
<polygon fill="midnightblue" stroke="midnightblue" points="149.23,-669.3 159.71,-670.83 152.47,-663.09 149.23,-669.3"/>
</g>
<!-- Node4 -->
<g id="node4" class="node">
<title>Node4</title>
<g id="a_node4"><a xlink:href="../../d6/db5/class_scene.html#accf5c16477aba3397a083ded76f2c5f5" target="_top" xlink:title="Return the geometric data (vtkPolyData) of the mesh.">
<polygon fill="white" stroke="black" points="354,-704.5 354,-723.5 482,-723.5 482,-704.5 354,-704.5"/>
<text text-anchor="middle" x="418" y="-711.5" font-family="Helvetica,sans-Serif" font-size="10.00">Scene::getMeshPolyData</text>
</a>
</g>
</g>
<!-- Node1&#45;&gt;Node4 -->
<g id="edge4" class="edge">
<title>Node1&#45;&gt;Node4</title>
<path fill="none" stroke="midnightblue" d="M56.49,-543.08C62.21,-579.57 82.37,-672.51 143,-711 214.42,-756.34 318.82,-740.14 375.93,-726.02"/>
<polygon fill="midnightblue" stroke="midnightblue" points="376.87,-729.39 385.69,-723.51 375.13,-722.61 376.87,-729.39"/>
</g>
<!-- Node5 -->
<g id="node5" class="node">
<title>Node5</title>
<g id="a_node5"><a xlink:href="../../d6/db5/class_scene.html#a9c15511eba6900e36681315c7e5911c5" target="_top" xlink:title="Return the scaled size of the mesh (in mm)">
<polygon fill="white" stroke="black" points="158,-632.5 158,-651.5 289,-651.5 289,-632.5 158,-632.5"/>
<text text-anchor="middle" x="223.5" y="-639.5" font-family="Helvetica,sans-Serif" font-size="10.00">Scene::getMeshScalesize</text>
</a>
</g>
</g>
<!-- Node1&#45;&gt;Node5 -->
<g id="edge5" class="edge">
<title>Node1&#45;&gt;Node5</title>
<path fill="none" stroke="midnightblue" d="M64.24,-543.1C78.76,-564.33 108.14,-602.68 143,-623 146.72,-625.17 150.68,-627.09 154.77,-628.8"/>
<polygon fill="midnightblue" stroke="midnightblue" points="153.89,-632.2 164.49,-632.39 156.32,-625.64 153.89,-632.2"/>
</g>
<!-- Node6 -->
<g id="node6" class="node">
<title>Node6</title>
<g id="a_node6"><a xlink:href="../../d6/db5/class_scene.html#a8bf8e4b441886787dc82c2caa9b25884" target="_top" xlink:title="Return the vtkRenderer of the scene.">
<polygon fill="white" stroke="black" points="171.5,-594.5 171.5,-613.5 275.5,-613.5 275.5,-594.5 171.5,-594.5"/>
<text text-anchor="middle" x="223.5" y="-601.5" font-family="Helvetica,sans-Serif" font-size="10.00">Scene::getRenderer</text>
</a>
</g>
</g>
<!-- Node1&#45;&gt;Node6 -->
<g id="edge6" class="edge">
<title>Node1&#45;&gt;Node6</title>
<path fill="none" stroke="midnightblue" d="M73.8,-543.18C91.04,-556.05 117.45,-574.1 143,-585 148.82,-587.49 155.03,-589.68 161.32,-591.61"/>
<polygon fill="midnightblue" stroke="midnightblue" points="160.63,-595.06 171.21,-594.44 162.55,-588.33 160.63,-595.06"/>
</g>
<!-- Node7 -->
<g id="node7" class="node">
<title>Node7</title>
<g id="a_node7"><a xlink:href="../../d6/db5/class_scene.html#a180c8577946667c192ae08462fab006a" target="_top" xlink:title="Return the vtk render window of the application.">
<polygon fill="white" stroke="black" points="158,-556.5 158,-575.5 289,-575.5 289,-556.5 158,-556.5"/>
<text text-anchor="middle" x="223.5" y="-563.5" font-family="Helvetica,sans-Serif" font-size="10.00">Scene::getRenderWindow</text>
</a>
</g>
</g>
<!-- Node1&#45;&gt;Node7 -->
<g id="edge7" class="edge">
<title>Node1&#45;&gt;Node7</title>
<path fill="none" stroke="midnightblue" d="M107.2,-539.92C127.36,-544.48 150.34,-549.68 170.45,-554.23"/>
<polygon fill="midnightblue" stroke="midnightblue" points="169.84,-557.68 180.37,-556.47 171.39,-550.85 169.84,-557.68"/>
</g>
<!-- Node8 -->
<g id="node8" class="node">
<title>Node8</title>
<g id="a_node8"><a xlink:href="../../d6/db5/class_scene.html#a7e5ee53ea01ef113afaaf4b7c10accf3" target="_top" xlink:title="Return the voxel grid image data.">
<polygon fill="white" stroke="black" points="363.5,-628.5 363.5,-647.5 472.5,-647.5 472.5,-628.5 363.5,-628.5"/>
<text text-anchor="middle" x="418" y="-635.5" font-family="Helvetica,sans-Serif" font-size="10.00">Scene::getVoxelData</text>
</a>
</g>
</g>
<!-- Node1&#45;&gt;Node8 -->
<g id="edge8" class="edge">
<title>Node1&#45;&gt;Node8</title>
<path fill="none" stroke="midnightblue" d="M107.1,-518.25C161.03,-511.2 245.1,-508.68 304,-547 332.33,-565.44 313.93,-592.48 340,-614 345.03,-618.15 350.78,-621.59 356.82,-624.43"/>
<polygon fill="midnightblue" stroke="midnightblue" points="355.92,-627.84 366.5,-628.43 358.59,-621.37 355.92,-627.84"/>
</g>
<!-- Node9 -->
<g id="node9" class="node">
<title>Node9</title>
<g id="a_node9"><a xlink:href="../../d6/db5/class_scene.html#af78767d0af348d25ddf80ef8cfe1f67a" target="_top" xlink:title="Return dimensions of the voxel data.">
<polygon fill="white" stroke="black" points="143,-480.5 143,-499.5 304,-499.5 304,-480.5 143,-480.5"/>
<text text-anchor="middle" x="223.5" y="-487.5" font-family="Helvetica,sans-Serif" font-size="10.00">Scene::getVoxelDataDimensions</text>
</a>
</g>
</g>
<!-- Node1&#45;&gt;Node9 -->
<g id="edge9" class="edge">
<title>Node1&#45;&gt;Node9</title>
<path fill="none" stroke="midnightblue" d="M107.2,-516.08C127.36,-511.52 150.34,-506.32 170.45,-501.77"/>
<polygon fill="midnightblue" stroke="midnightblue" points="171.39,-505.15 180.37,-499.53 169.84,-498.32 171.39,-505.15"/>
</g>
<!-- Node10 -->
<g id="node10" class="node">
<title>Node10</title>
<g id="a_node10"><a xlink:href="../../d6/db5/class_scene.html#a7caf30a70e69430d5e4ac93d6828a649" target="_top" xlink:title="Return the bounds of the voxel grid.">
<polygon fill="white" stroke="black" points="155,-202.5 155,-221.5 292,-221.5 292,-202.5 155,-202.5"/>
<text text-anchor="middle" x="223.5" y="-209.5" font-family="Helvetica,sans-Serif" font-size="10.00">Scene::getVoxelgridBounds</text>
</a>
</g>
</g>
<!-- Node1&#45;&gt;Node10 -->
<g id="edge11" class="edge">
<title>Node1&#45;&gt;Node10</title>
<path fill="none" stroke="midnightblue" d="M58.15,-512.76C67.79,-474.37 96.43,-371.46 143,-297 159.67,-270.35 185.43,-244.71 203.08,-228.68"/>
<polygon fill="midnightblue" stroke="midnightblue" points="205.87,-230.89 211.02,-221.63 201.22,-225.65 205.87,-230.89"/>
</g>
<!-- Node12 -->
<g id="node12" class="node">
<title>Node12</title>
<g id="a_node12"><a xlink:href="../../d1/d7c/namespace_utils.html#a4b6c4a605143b128db1c74f39d0277ef" target="_top" xlink:title="Compute voxel grid integer index equivalent from world coordinate.">
<polygon fill="white" stroke="black" points="180.5,-147.5 180.5,-166.5 266.5,-166.5 266.5,-147.5 180.5,-147.5"/>
<text text-anchor="middle" x="223.5" y="-154.5" font-family="Helvetica,sans-Serif" font-size="10.00">Utils::posToCell</text>
</a>
</g>
</g>
<!-- Node1&#45;&gt;Node12 -->
<g id="edge13" class="edge">
<title>Node1&#45;&gt;Node12</title>
<path fill="none" stroke="midnightblue" d="M54.16,-512.93C53.8,-461.71 59.3,-291.99 143,-193 151.41,-183.05 163.15,-175.72 175.02,-170.38"/>
<polygon fill="midnightblue" stroke="midnightblue" points="176.58,-173.52 184.51,-166.5 173.93,-167.04 176.58,-173.52"/>
</g>
<!-- Node14 -->
<g id="node14" class="node">
<title>Node14</title>
<g id="a_node14"><a xlink:href="../../d6/db5/class_scene.html#a0955ff290776412f925da730a9f8058c" target="_top" xlink:title="Update the cuberille visualization after changes to the underlying voxel data.">
<polygon fill="white" stroke="black" points="150.5,-442.5 150.5,-461.5 296.5,-461.5 296.5,-442.5 150.5,-442.5"/>
<text text-anchor="middle" x="223.5" y="-449.5" font-family="Helvetica,sans-Serif" font-size="10.00">Scene::updateCuberilleActors</text>
</a>
</g>
</g>
<!-- Node1&#45;&gt;Node14 -->
<g id="edge15" class="edge">
<title>Node1&#45;&gt;Node14</title>
<path fill="none" stroke="midnightblue" d="M73.8,-512.82C91.04,-499.95 117.45,-481.9 143,-471 148.82,-468.51 155.03,-466.32 161.32,-464.39"/>
<polygon fill="midnightblue" stroke="midnightblue" points="162.55,-467.67 171.21,-461.56 160.63,-460.94 162.55,-467.67"/>
</g>
<!-- Node24 -->
<g id="node24" class="node">
<title>Node24</title>
<g id="a_node24"><a xlink:href="../../d6/db5/class_scene.html#aaff4c55f5c640ec8a12b62c5b6c11865" target="_top" xlink:title="Update the touchpoint / connector number text labels.">
<polygon fill="white" stroke="black" points="169.5,-57.5 169.5,-76.5 277.5,-76.5 277.5,-57.5 169.5,-57.5"/>
<text text-anchor="middle" x="223.5" y="-64.5" font-family="Helvetica,sans-Serif" font-size="10.00">Scene::updateLabels</text>
</a>
</g>
</g>
<!-- Node1&#45;&gt;Node24 -->
<g id="edge31" class="edge">
<title>Node1&#45;&gt;Node24</title>
<path fill="none" stroke="midnightblue" d="M54.71,-512.64C56.11,-457.77 66.51,-267.8 143,-138 156.64,-114.85 180.39,-95.11 198.39,-82.37"/>
<polygon fill="midnightblue" stroke="midnightblue" points="200.42,-85.22 206.7,-76.69 196.47,-79.45 200.42,-85.22"/>
</g>
<!-- Node29 -->
<g id="node29" class="node">
<title>Node29</title>
<g id="a_node29"><a xlink:href="../../d6/db5/class_scene.html#a415555bc0037489b1a9421747c318746" target="_top" xlink:title="Update the occupation map visualization after changes to the underlying voxel data.">
<polygon fill="white" stroke="black" points="149.5,-306 149.5,-336 297.5,-336 297.5,-306 149.5,-306"/>
<text text-anchor="start" x="157.5" y="-324" font-family="Helvetica,sans-Serif" font-size="10.00">Scene::updateOccupationMap</text>
<text text-anchor="middle" x="223.5" y="-313" font-family="Helvetica,sans-Serif" font-size="10.00">Actor</text>
</a>
</g>
</g>
<!-- Node1&#45;&gt;Node29 -->
<g id="edge37" class="edge">
<title>Node1&#45;&gt;Node29</title>
<path fill="none" stroke="midnightblue" d="M66.85,-512.78C95.98,-476.89 169.1,-386.8 203.74,-344.12"/>
<polygon fill="midnightblue" stroke="midnightblue" points="206.54,-346.21 210.13,-336.24 201.11,-341.8 206.54,-346.21"/>
</g>
<!-- Node3&#45;&gt;Node4 -->
<g id="edge3" class="edge">
<title>Node3&#45;&gt;Node4</title>
<path fill="none" stroke="midnightblue" d="M291.56,-695.75C308.43,-698.21 326.62,-700.85 343.78,-703.35"/>
<polygon fill="midnightblue" stroke="midnightblue" points="343.34,-706.82 353.74,-704.8 344.35,-699.9 343.34,-706.82"/>
</g>
<!-- Node9&#45;&gt;Node8 -->
<g id="edge10" class="edge">
<title>Node9&#45;&gt;Node8</title>
<path fill="none" stroke="midnightblue" d="M280.28,-499.53C288.99,-502.97 297.31,-507.65 304,-514 338.26,-546.52 305.88,-581.33 340,-614 344.11,-617.93 348.85,-621.22 353.93,-623.98"/>
<polygon fill="midnightblue" stroke="midnightblue" points="352.81,-627.31 363.35,-628.37 355.76,-620.97 352.81,-627.31"/>
</g>
<!-- Node11 -->
<g id="node11" class="node">
<title>Node11</title>
<g id="a_node11"><a xlink:href="../../d6/db5/class_scene.html#a0799bb0687ffe3a97e0523a4e700ef2d" target="_top" xlink:title="Return the occupation map visualization.">
<polygon fill="white" stroke="black" points="340.5,-152.5 340.5,-171.5 495.5,-171.5 495.5,-152.5 340.5,-152.5"/>
<text text-anchor="middle" x="418" y="-159.5" font-family="Helvetica,sans-Serif" font-size="10.00">Scene::getOccupationMapActor</text>
</a>
</g>
</g>
<!-- Node10&#45;&gt;Node11 -->
<g id="edge12" class="edge">
<title>Node10&#45;&gt;Node11</title>
<path fill="none" stroke="midnightblue" d="M259.33,-202.46C282.22,-196.23 312.86,-187.99 340,-181 349.01,-178.68 358.63,-176.26 367.9,-173.96"/>
<polygon fill="midnightblue" stroke="midnightblue" points="368.92,-177.31 377.79,-171.51 367.24,-170.51 368.92,-177.31"/>
</g>
<!-- Node13 -->
<g id="node13" class="node">
<title>Node13</title>
<g id="a_node13"><a xlink:href="../../d1/d7c/namespace_utils.html#ac9b063fc04e0a4e5501c8ed0af96ac47" target="_top" xlink:title="Clamp integer value between min and max.">
<polygon fill="white" stroke="black" points="378,-114.5 378,-133.5 458,-133.5 458,-114.5 378,-114.5"/>
<text text-anchor="middle" x="418" y="-121.5" font-family="Helvetica,sans-Serif" font-size="10.00">Utils::clampInt</text>
</a>
</g>
</g>
<!-- Node12&#45;&gt;Node13 -->
<g id="edge14" class="edge">
<title>Node12&#45;&gt;Node13</title>
<path fill="none" stroke="midnightblue" d="M266.74,-149.76C296.48,-144.66 336.37,-137.82 367.58,-132.47"/>
<polygon fill="midnightblue" stroke="midnightblue" points="368.54,-135.86 377.8,-130.72 367.36,-128.96 368.54,-135.86"/>
</g>
<!-- Node15 -->
<g id="node15" class="node">
<title>Node15</title>
<g id="a_node15"><a xlink:href="../../db/dae/class_voxel_image_visualizer.html#a9d6ddcce68efaea01bfacaa932f27d9a" target="_top" xlink:title="Return RGB color cube output visualization.">
<polygon fill="white" stroke="black" points="551,-547 551,-577 661,-577 661,-547 551,-547"/>
<text text-anchor="start" x="559" y="-565" font-family="Helvetica,sans-Serif" font-size="10.00">VoxelImageVisualizer</text>
<text text-anchor="middle" x="606" y="-554" font-family="Helvetica,sans-Serif" font-size="10.00">::getColorOutput</text>
</a>
</g>
</g>
<!-- Node14&#45;&gt;Node15 -->
<g id="edge16" class="edge">
<title>Node14&#45;&gt;Node15</title>
<path fill="none" stroke="midnightblue" d="M287.7,-461.52C293.55,-464.01 299.11,-467.12 304,-471 332.02,-493.24 310.26,-523.11 340,-543 399.14,-582.54 483.21,-581.33 540.71,-574.12"/>
<polygon fill="midnightblue" stroke="midnightblue" points="541.32,-577.57 550.76,-572.77 540.39,-570.64 541.32,-577.57"/>
</g>
<!-- Node18 -->
<g id="node18" class="node">
<title>Node18</title>
<g id="a_node18"><a xlink:href="../../db/dae/class_voxel_image_visualizer.html#a279e821afcfbef7cb624c391eec3b7a4" target="_top" xlink:title="Return visualization of the mesh interior only.">
<polygon fill="white" stroke="black" points="363,-503 363,-533 473,-533 473,-503 363,-503"/>
<text text-anchor="start" x="371" y="-521" font-family="Helvetica,sans-Serif" font-size="10.00">VoxelImageVisualizer</text>
<text text-anchor="middle" x="418" y="-510" font-family="Helvetica,sans-Serif" font-size="10.00">::getInteriorOutput</text>
</a>
</g>
</g>
<!-- Node14&#45;&gt;Node18 -->
<g id="edge19" class="edge">
<title>Node14&#45;&gt;Node18</title>
<path fill="none" stroke="midnightblue" d="M271.63,-461.56C282.39,-464.22 293.69,-467.38 304,-471 320.69,-476.87 323.75,-481.01 340,-488 348.8,-491.79 358.25,-495.64 367.42,-499.27"/>
<polygon fill="midnightblue" stroke="midnightblue" points="366.23,-502.56 376.82,-502.95 368.79,-496.05 366.23,-502.56"/>
</g>
<!-- Node20 -->
<g id="node20" class="node">
<title>Node20</title>
<g id="a_node20"><a xlink:href="../../db/dae/class_voxel_image_visualizer.html#a00b60f629dcc3335bff26934e88b9bcb" target="_top" xlink:title="Return the occupation map visualization (unoccupied = yellow, occupied = blue)">
<polygon fill="white" stroke="black" points="548.5,-449 548.5,-479 663.5,-479 663.5,-449 548.5,-449"/>
<text text-anchor="start" x="556.5" y="-467" font-family="Helvetica,sans-Serif" font-size="10.00">VoxelImageVisualizer</text>
<text text-anchor="middle" x="606" y="-456" font-family="Helvetica,sans-Serif" font-size="10.00">::getOccupationOutput</text>
</a>
</g>
</g>
<!-- Node14&#45;&gt;Node20 -->
<g id="edge23" class="edge">
<title>Node14&#45;&gt;Node20</title>
<path fill="none" stroke="midnightblue" d="M296.52,-454.27C366.09,-456.47 470.62,-459.76 538.33,-461.9"/>
<polygon fill="midnightblue" stroke="midnightblue" points="538.35,-465.4 548.45,-462.22 538.57,-458.4 538.35,-465.4"/>
</g>
<!-- Node21 -->
<g id="node21" class="node">
<title>Node21</title>
<g id="a_node21"><a xlink:href="../../db/dae/class_voxel_image_visualizer.html#a5f41640feebb9f49204b777abb09fec2" target="_top" xlink:title="Return visualization with VOXEL_OUTSIDE = &quot;White&quot;, VOXEL_OCCUPIED = &quot;Red&quot;, VOXEL_SHELL = &quot;Yellow&quot;,...">
<polygon fill="white" stroke="black" points="540.5,-596 540.5,-626 671.5,-626 671.5,-596 540.5,-596"/>
<text text-anchor="start" x="548.5" y="-614" font-family="Helvetica,sans-Serif" font-size="10.00">VoxelImageVisualizer</text>
<text text-anchor="middle" x="606" y="-603" font-family="Helvetica,sans-Serif" font-size="10.00">::getShellAndInsideOutput</text>
</a>
</g>
</g>
<!-- Node14&#45;&gt;Node21 -->
<g id="edge26" class="edge">
<title>Node14&#45;&gt;Node21</title>
<path fill="none" stroke="midnightblue" d="M289.79,-461.63C294.95,-464.12 299.79,-467.2 304,-471 339.99,-503.5 302.5,-543.26 340,-574 368.28,-597.18 461.98,-605.84 529.95,-609.08"/>
<polygon fill="midnightblue" stroke="midnightblue" points="530.06,-612.59 540.21,-609.53 530.37,-605.59 530.06,-612.59"/>
</g>
<!-- Node22 -->
<g id="node22" class="node">
<title>Node22</title>
<g id="a_node22"><a xlink:href="../../db/dae/class_voxel_image_visualizer.html#a15634f5a62fd0d71806741d1db033243" target="_top" xlink:title="Set input data of the visualizer.">
<polygon fill="white" stroke="black" points="363,-366 363,-396 473,-396 473,-366 363,-366"/>
<text text-anchor="start" x="371" y="-384" font-family="Helvetica,sans-Serif" font-size="10.00">VoxelImageVisualizer</text>
<text text-anchor="middle" x="418" y="-373" font-family="Helvetica,sans-Serif" font-size="10.00">::setInputData</text>
</a>
</g>
</g>
<!-- Node14&#45;&gt;Node22 -->
<g id="edge29" class="edge">
<title>Node14&#45;&gt;Node22</title>
<path fill="none" stroke="midnightblue" d="M247.34,-442.39C270.52,-432.76 307.52,-417.73 340,-406 346.22,-403.76 352.75,-401.49 359.27,-399.29"/>
<polygon fill="midnightblue" stroke="midnightblue" points="360.4,-402.61 368.78,-396.12 358.18,-395.96 360.4,-402.61"/>
</g>
<!-- Node23 -->
<g id="node23" class="node">
<title>Node23</title>
<g id="a_node23"><a xlink:href="../../db/dae/class_voxel_image_visualizer.html#a65eec474a368555a6ba16c1f54e956db" target="_top" xlink:title="Set output size of the visualization.">
<polygon fill="white" stroke="black" points="363,-415 363,-445 473,-445 473,-415 363,-415"/>
<text text-anchor="start" x="371" y="-433" font-family="Helvetica,sans-Serif" font-size="10.00">VoxelImageVisualizer</text>
<text text-anchor="middle" x="418" y="-422" font-family="Helvetica,sans-Serif" font-size="10.00">::setOutputSize</text>
</a>
</g>
</g>
<!-- Node14&#45;&gt;Node23 -->
<g id="edge30" class="edge">
<title>Node14&#45;&gt;Node23</title>
<path fill="none" stroke="midnightblue" d="M296.73,-443.75C315.1,-441.65 334.71,-439.4 352.66,-437.35"/>
<polygon fill="midnightblue" stroke="midnightblue" points="353.18,-440.82 362.72,-436.2 352.39,-433.86 353.18,-440.82"/>
</g>
<!-- Node16 -->
<g id="node16" class="node">
<title>Node16</title>
<g id="a_node16"><a xlink:href="../../db/dae/class_voxel_image_visualizer.html#a381e70e9dba0cad1fddf946aa7f4a408" target="_top" xlink:title="Compute scaling factor for visualization actor.">
<polygon fill="white" stroke="black" points="725.5,-500 725.5,-530 835.5,-530 835.5,-500 725.5,-500"/>
<text text-anchor="start" x="733.5" y="-518" font-family="Helvetica,sans-Serif" font-size="10.00">VoxelImageVisualizer</text>
<text text-anchor="middle" x="780.5" y="-507" font-family="Helvetica,sans-Serif" font-size="10.00">::getScaleValue</text>
</a>
</g>
</g>
<!-- Node15&#45;&gt;Node16 -->
<g id="edge17" class="edge">
<title>Node15&#45;&gt;Node16</title>
<path fill="none" stroke="midnightblue" d="M661.11,-547.26C678.36,-542.56 697.62,-537.31 715.51,-532.43"/>
<polygon fill="midnightblue" stroke="midnightblue" points="716.56,-535.78 725.29,-529.77 714.72,-529.02 716.56,-535.78"/>
</g>
<!-- Node17 -->
<g id="node17" class="node">
<title>Node17</title>
<g id="a_node17"><a xlink:href="../../db/dae/class_voxel_image_visualizer.html#a2cf2e268d83ea28ea097a557b4e66fcd" target="_top" xlink:title="Compute 1D linearized index from 3D&#45;coodinate index.">
<polygon fill="white" stroke="black" points="716,-550.5 716,-569.5 845,-569.5 845,-550.5 716,-550.5"/>
<text text-anchor="middle" x="780.5" y="-557.5" font-family="Helvetica,sans-Serif" font-size="10.00">VoxelImageVisualizer::idx</text>
</a>
</g>
</g>
<!-- Node15&#45;&gt;Node17 -->
<g id="edge18" class="edge">
<title>Node15&#45;&gt;Node17</title>
<path fill="none" stroke="midnightblue" d="M661.11,-561.37C675.24,-561.21 690.71,-561.03 705.67,-560.86"/>
<polygon fill="midnightblue" stroke="midnightblue" points="705.97,-564.35 715.93,-560.74 705.89,-557.35 705.97,-564.35"/>
</g>
<!-- Node19 -->
<g id="node19" class="node">
<title>Node19</title>
<g id="a_node19"><a xlink:href="../../db/dae/class_voxel_image_visualizer.html#a266b4be6343bb49d53b4af2c9e7df310" target="_top" xlink:title=" ">
<polygon fill="white" stroke="black" points="551,-498 551,-528 661,-528 661,-498 551,-498"/>
<text text-anchor="start" x="559" y="-516" font-family="Helvetica,sans-Serif" font-size="10.00">VoxelImageVisualizer</text>
<text text-anchor="middle" x="606" y="-505" font-family="Helvetica,sans-Serif" font-size="10.00">::getShellOutput</text>
</a>
</g>
</g>
<!-- Node18&#45;&gt;Node19 -->
<g id="edge20" class="edge">
<title>Node18&#45;&gt;Node19</title>
<path fill="none" stroke="midnightblue" d="M473.05,-516.55C494.16,-515.98 518.54,-515.32 540.56,-514.73"/>
<polygon fill="midnightblue" stroke="midnightblue" points="540.91,-518.22 550.82,-514.46 540.73,-511.23 540.91,-518.22"/>
</g>
<!-- Node19&#45;&gt;Node16 -->
<g id="edge21" class="edge">
<title>Node19&#45;&gt;Node16</title>
<path fill="none" stroke="midnightblue" d="M661.11,-513.63C678.2,-513.83 697.27,-514.05 715.02,-514.25"/>
<polygon fill="midnightblue" stroke="midnightblue" points="715.25,-517.76 725.29,-514.37 715.33,-510.76 715.25,-517.76"/>
</g>
<!-- Node19&#45;&gt;Node17 -->
<g id="edge22" class="edge">
<title>Node19&#45;&gt;Node17</title>
<path fill="none" stroke="midnightblue" d="M661.11,-527.74C684.86,-534.21 712.41,-541.72 734.96,-547.86"/>
<polygon fill="midnightblue" stroke="midnightblue" points="734.04,-551.24 744.61,-550.49 735.88,-544.49 734.04,-551.24"/>
</g>
<!-- Node20&#45;&gt;Node16 -->
<g id="edge24" class="edge">
<title>Node20&#45;&gt;Node16</title>
<path fill="none" stroke="midnightblue" d="M657.82,-479.03C677.04,-484.71 699.1,-491.23 719.11,-497.14"/>
<polygon fill="midnightblue" stroke="midnightblue" points="718.16,-500.51 728.74,-499.99 720.15,-493.8 718.16,-500.51"/>
</g>
<!-- Node20&#45;&gt;Node17 -->
<g id="edge25" class="edge">
<title>Node20&#45;&gt;Node17</title>
<path fill="none" stroke="midnightblue" d="M663.07,-479.06C669.07,-481.86 674.85,-485.14 680,-489 702.2,-505.64 693.59,-523.64 716,-540 719.27,-542.39 722.83,-544.49 726.54,-546.35"/>
<polygon fill="midnightblue" stroke="midnightblue" points="725.44,-549.69 736,-550.49 728.24,-543.28 725.44,-549.69"/>
</g>
<!-- Node21&#45;&gt;Node16 -->
<g id="edge27" class="edge">
<title>Node21&#45;&gt;Node16</title>
<path fill="none" stroke="midnightblue" d="M664.01,-596C669.65,-593.43 675.09,-590.45 680,-587 701.25,-572.08 695.3,-556.66 716,-541 718.93,-538.79 722.07,-536.73 725.33,-534.82"/>
<polygon fill="midnightblue" stroke="midnightblue" points="727,-537.9 734.19,-530.12 723.72,-531.72 727,-537.9"/>
</g>
<!-- Node21&#45;&gt;Node17 -->
<g id="edge28" class="edge">
<title>Node21&#45;&gt;Node17</title>
<path fill="none" stroke="midnightblue" d="M657.82,-595.97C683.13,-588.49 713.36,-579.56 737.35,-572.46"/>
<polygon fill="midnightblue" stroke="midnightblue" points="738.63,-575.73 747.22,-569.54 736.64,-569.02 738.63,-575.73"/>
</g>
<!-- Node25 -->
<g id="node25" class="node">
<title>Node25</title>
<g id="a_node25"><a xlink:href="../../d9/d58/class_touchpoint.html#ab61727c9bb477bccca373f92a2b8bea4" target="_top" xlink:title="Return the touchpoint number label text actor.">
<polygon fill="white" stroke="black" points="355.5,-0.5 355.5,-19.5 480.5,-19.5 480.5,-0.5 355.5,-0.5"/>
<text text-anchor="middle" x="418" y="-7.5" font-family="Helvetica,sans-Serif" font-size="10.00">Touchpoint::getTextActor</text>
</a>
</g>
</g>
<!-- Node24&#45;&gt;Node25 -->
<g id="edge32" class="edge">
<title>Node24&#45;&gt;Node25</title>
<path fill="none" stroke="midnightblue" d="M251.86,-57.35C275.14,-49.29 309.57,-37.75 340,-29 348.27,-26.62 357.1,-24.27 365.72,-22.08"/>
<polygon fill="midnightblue" stroke="midnightblue" points="366.84,-25.41 375.69,-19.58 365.14,-18.61 366.84,-25.41"/>
</g>
<!-- Node26 -->
<g id="node26" class="node">
<title>Node26</title>
<g id="a_node26"><a xlink:href="../../d6/db5/class_scene.html#ae4bdf05105a36057e86693a0f60afbd3" target="_top" xlink:title="Hide the touchpoint / connector text labels.">
<polygon fill="white" stroke="black" points="360,-76.5 360,-95.5 476,-95.5 476,-76.5 360,-76.5"/>
<text text-anchor="middle" x="418" y="-83.5" font-family="Helvetica,sans-Serif" font-size="10.00">Scene::hideTextActors</text>
</a>
</g>
</g>
<!-- Node24&#45;&gt;Node26 -->
<g id="edge33" class="edge">
<title>Node24&#45;&gt;Node26</title>
<path fill="none" stroke="midnightblue" d="M277.61,-72.24C299.81,-74.43 325.87,-77.01 349.41,-79.33"/>
<polygon fill="midnightblue" stroke="midnightblue" points="349.38,-82.84 359.68,-80.34 350.07,-75.88 349.38,-82.84"/>
</g>
<!-- Node28 -->
<g id="node28" class="node">
<title>Node28</title>
<g id="a_node28"><a xlink:href="../../d6/db5/class_scene.html#aa9d387019f7a7456bdd8af2b21723387" target="_top" xlink:title="Show the touchpoint / connector number text labels.">
<polygon fill="white" stroke="black" points="357.5,-38.5 357.5,-57.5 478.5,-57.5 478.5,-38.5 357.5,-38.5"/>
<text text-anchor="middle" x="418" y="-45.5" font-family="Helvetica,sans-Serif" font-size="10.00">Scene::showTextActors</text>
</a>
</g>
</g>
<!-- Node24&#45;&gt;Node28 -->
<g id="edge35" class="edge">
<title>Node24&#45;&gt;Node28</title>
<path fill="none" stroke="midnightblue" d="M277.61,-61.76C299.13,-59.63 324.28,-57.15 347.25,-54.88"/>
<polygon fill="midnightblue" stroke="midnightblue" points="347.67,-58.36 357.28,-53.89 346.99,-51.39 347.67,-58.36"/>
</g>
<!-- Node27 -->
<g id="node27" class="node">
<title>Node27</title>
<g id="a_node27"><a xlink:href="../../d6/db5/class_scene.html#a8a1b015f159dd9ba883ae601464f6c28" target="_top" xlink:title="Set if the touchpoint / connector number labels are visible.">
<polygon fill="white" stroke="black" points="532,-57.5 532,-76.5 680,-76.5 680,-57.5 532,-57.5"/>
<text text-anchor="middle" x="606" y="-64.5" font-family="Helvetica,sans-Serif" font-size="10.00">Scene::setTextActorsVisibility</text>
</a>
</g>
</g>
<!-- Node26&#45;&gt;Node27 -->
<g id="edge34" class="edge">
<title>Node26&#45;&gt;Node27</title>
<path fill="none" stroke="midnightblue" d="M476.07,-80.17C490.52,-78.69 506.35,-77.08 521.8,-75.5"/>
<polygon fill="midnightblue" stroke="midnightblue" points="522.3,-78.97 531.89,-74.47 521.59,-72 522.3,-78.97"/>
</g>
<!-- Node28&#45;&gt;Node27 -->
<g id="edge36" class="edge">
<title>Node28&#45;&gt;Node27</title>
<path fill="none" stroke="midnightblue" d="M478.62,-54.09C492.35,-55.49 507.19,-57.01 521.72,-58.49"/>
<polygon fill="midnightblue" stroke="midnightblue" points="521.4,-61.98 531.71,-59.51 522.11,-55.01 521.4,-61.98"/>
</g>
<!-- Node29&#45;&gt;Node11 -->
<g id="edge41" class="edge">
<title>Node29&#45;&gt;Node11</title>
<path fill="none" stroke="midnightblue" d="M238.77,-305.8C255.06,-288.22 282.28,-258.21 304,-231 321.09,-209.6 317.31,-196.33 340,-181 342.94,-179.01 346.07,-177.23 349.32,-175.64"/>
<polygon fill="midnightblue" stroke="midnightblue" points="350.92,-178.76 358.74,-171.62 348.17,-172.32 350.92,-178.76"/>
</g>
<!-- Node29&#45;&gt;Node20 -->
<g id="edge42" class="edge">
<title>Node29&#45;&gt;Node20</title>
<path fill="none" stroke="midnightblue" d="M297.54,-318.37C354.35,-319.15 433.72,-326.61 496,-357 535.44,-376.25 569.44,-415.32 588.55,-440.55"/>
<polygon fill="midnightblue" stroke="midnightblue" points="585.91,-442.87 594.67,-448.84 591.55,-438.72 585.91,-442.87"/>
</g>
<!-- Node29&#45;&gt;Node22 -->
<g id="edge43" class="edge">
<title>Node29&#45;&gt;Node22</title>
<path fill="none" stroke="midnightblue" d="M273.08,-336.14C299.16,-344.27 331.51,-354.35 358.92,-362.9"/>
<polygon fill="midnightblue" stroke="midnightblue" points="358.18,-366.33 368.77,-365.97 360.27,-359.65 358.18,-366.33"/>
</g>
<!-- Node29&#45;&gt;Node23 -->
<g id="edge44" class="edge">
<title>Node29&#45;&gt;Node23</title>
<path fill="none" stroke="midnightblue" d="M241.3,-336.21C262.78,-354.95 301.79,-386.67 340,-406 344.23,-408.14 348.69,-410.13 353.24,-411.98"/>
<polygon fill="midnightblue" stroke="midnightblue" points="352.07,-415.28 362.66,-415.57 354.56,-408.74 352.07,-415.28"/>
</g>
<!-- Node30 -->
<g id="node30" class="node">
<title>Node30</title>
<g id="a_node30"><a xlink:href="../../d6/db5/class_scene.html#aa52192763d5339a0e7803abe296220c9" target="_top" xlink:title="Return the cuberille visualization of the voxel grid data.">
<polygon fill="white" stroke="black" points="355.5,-190.5 355.5,-209.5 480.5,-209.5 480.5,-190.5 355.5,-190.5"/>
<text text-anchor="middle" x="418" y="-197.5" font-family="Helvetica,sans-Serif" font-size="10.00">Scene::getCuberilleActor</text>
</a>
</g>
</g>
<!-- Node29&#45;&gt;Node30 -->
<g id="edge38" class="edge">
<title>Node29&#45;&gt;Node30</title>
<path fill="none" stroke="midnightblue" d="M237.46,-305.88C257.29,-283.69 297.38,-242.53 340,-220 345.24,-217.23 350.89,-214.83 356.66,-212.74"/>
<polygon fill="midnightblue" stroke="midnightblue" points="358.03,-215.98 366.44,-209.54 355.85,-209.33 358.03,-215.98"/>
</g>
<!-- Node31 -->
<g id="node31" class="node">
<title>Node31</title>
<g id="a_node31"><a xlink:href="../../d6/db5/class_scene.html#a7009d25646e9f3a07482091ed2d62e52" target="_top" xlink:title="Return the inner and outer voxels visualization of the voxel grid data.">
<polygon fill="white" stroke="black" points="340,-278 340,-308 496,-308 496,-278 340,-278"/>
<text text-anchor="start" x="348" y="-296" font-family="Helvetica,sans-Serif" font-size="10.00">Scene::getInnerAndOuterVoxels</text>
<text text-anchor="middle" x="418" y="-285" font-family="Helvetica,sans-Serif" font-size="10.00">Actor</text>
</a>
</g>
</g>
<!-- Node29&#45;&gt;Node31 -->
<g id="edge39" class="edge">
<title>Node29&#45;&gt;Node31</title>
<path fill="none" stroke="midnightblue" d="M297.55,-310.37C308.03,-308.85 318.9,-307.27 329.62,-305.71"/>
<polygon fill="midnightblue" stroke="midnightblue" points="330.44,-309.13 339.83,-304.22 329.43,-302.2 330.44,-309.13"/>
</g>
<!-- Node32 -->
<g id="node32" class="node">
<title>Node32</title>
<g id="a_node32"><a xlink:href="../../d6/db5/class_scene.html#a04c9e871c5edc15ca00d736a9cb6c0d0" target="_top" xlink:title="Return the interior voxels only visualization of the voxel grid data.">
<polygon fill="white" stroke="black" points="356.5,-229 356.5,-259 479.5,-259 479.5,-229 356.5,-229"/>
<text text-anchor="start" x="364.5" y="-247" font-family="Helvetica,sans-Serif" font-size="10.00">Scene::getInteriorVoxels</text>
<text text-anchor="middle" x="418" y="-236" font-family="Helvetica,sans-Serif" font-size="10.00">Actor</text>
</a>
</g>
</g>
<!-- Node29&#45;&gt;Node32 -->
<g id="edge40" class="edge">
<title>Node29&#45;&gt;Node32</title>
<path fill="none" stroke="midnightblue" d="M255.48,-305.94C278.52,-295.02 310.87,-280.25 340,-269 345.85,-266.74 352,-264.51 358.17,-262.37"/>
<polygon fill="midnightblue" stroke="midnightblue" points="359.5,-265.61 367.84,-259.08 357.24,-258.98 359.5,-265.61"/>
</g>
</g>
</svg>
