<?xml version="1.0" encoding="UTF-8" standalone="no"?>
<!DOCTYPE svg PUBLIC "-//W3C//DTD SVG 1.1//EN"
 "http://www.w3.org/Graphics/SVG/1.1/DTD/svg11.dtd">
<!-- Generated by graphviz version 2.44.1 (0)
 -->
<!-- Title: vertex.h Pages: 1 -->
<svg width="1049pt" height="308pt"
 viewBox="0.00 0.00 1048.50 308.00" xmlns="http://www.w3.org/2000/svg" xmlns:xlink="http://www.w3.org/1999/xlink">
<g id="graph0" class="graph" transform="scale(1 1) rotate(0) translate(4 304)">
<title>vertex.h</title>
<polygon fill="white" stroke="transparent" points="-4,4 -4,-304 1044.5,-304 1044.5,4 -4,4"/>
<!-- Node1 -->
<g id="node1" class="node">
<title>Node1</title>
<g id="a_node1"><a xlink:title=" ">
<polygon fill="#bfbfbf" stroke="black" points="906.5,-280.5 906.5,-299.5 958.5,-299.5 958.5,-280.5 906.5,-280.5"/>
<text text-anchor="middle" x="932.5" y="-287.5" font-family="Helvetica,sans-Serif" font-size="10.00">vertex.h</text>
</a>
</g>
</g>
<!-- Node2 -->
<g id="node2" class="node">
<title>Node2</title>
<g id="a_node2"><a xlink:href="../../db/dc3/edge_8h.html" target="_top" xlink:title=" ">
<polygon fill="white" stroke="black" points="909.5,-224.5 909.5,-243.5 955.5,-243.5 955.5,-224.5 909.5,-224.5"/>
<text text-anchor="middle" x="932.5" y="-231.5" font-family="Helvetica,sans-Serif" font-size="10.00">edge.h</text>
</a>
</g>
</g>
<!-- Node1&#45;&gt;Node2 -->
<g id="edge1" class="edge">
<title>Node1&#45;&gt;Node2</title>
<path fill="none" stroke="midnightblue" d="M932.5,-269.8C932.5,-260.91 932.5,-250.78 932.5,-243.75"/>
<polygon fill="midnightblue" stroke="midnightblue" points="929,-270.08 932.5,-280.08 936,-270.08 929,-270.08"/>
</g>
<!-- Node3 -->
<g id="node3" class="node">
<title>Node3</title>
<g id="a_node3"><a xlink:href="../../d3/d0f/tmesh_8h.html" target="_top" xlink:title=" ">
<polygon fill="white" stroke="black" points="585.5,-168.5 585.5,-187.5 637.5,-187.5 637.5,-168.5 585.5,-168.5"/>
<text text-anchor="middle" x="611.5" y="-175.5" font-family="Helvetica,sans-Serif" font-size="10.00">tmesh.h</text>
</a>
</g>
</g>
<!-- Node1&#45;&gt;Node3 -->
<g id="edge30" class="edge">
<title>Node1&#45;&gt;Node3</title>
<path fill="none" stroke="midnightblue" d="M897.79,-277.1C832.66,-254.79 693.59,-207.13 636.63,-187.61"/>
<polygon fill="midnightblue" stroke="midnightblue" points="896.98,-280.53 907.58,-280.46 899.25,-273.91 896.98,-280.53"/>
</g>
<!-- Node17 -->
<g id="node17" class="node">
<title>Node17</title>
<g id="a_node17"><a xlink:href="../../d0/d3f/vertex_8cpp.html" target="_top" xlink:title=" ">
<polygon fill="white" stroke="black" points="978.5,-56.5 978.5,-75.5 1040.5,-75.5 1040.5,-56.5 978.5,-56.5"/>
<text text-anchor="middle" x="1009.5" y="-63.5" font-family="Helvetica,sans-Serif" font-size="10.00">vertex.cpp</text>
</a>
</g>
</g>
<!-- Node1&#45;&gt;Node17 -->
<g id="edge31" class="edge">
<title>Node1&#45;&gt;Node17</title>
<path fill="none" stroke="midnightblue" d="M946.49,-272.38C952.75,-264.25 959.76,-254.06 964.5,-244 992.99,-183.47 1005.09,-102.48 1008.46,-75.87"/>
<polygon fill="midnightblue" stroke="midnightblue" points="943.67,-270.3 940.14,-280.29 949.13,-274.68 943.67,-270.3"/>
</g>
<!-- Node2&#45;&gt;Node3 -->
<g id="edge2" class="edge">
<title>Node2&#45;&gt;Node3</title>
<path fill="none" stroke="midnightblue" d="M899.47,-227.44C835.57,-216.69 696.18,-193.25 637.92,-183.44"/>
<polygon fill="midnightblue" stroke="midnightblue" points="898.97,-230.91 909.41,-229.12 900.13,-224.01 898.97,-230.91"/>
</g>
<!-- Node15 -->
<g id="node15" class="node">
<title>Node15</title>
<g id="a_node15"><a xlink:href="../../d3/df4/edge_8cpp.html" target="_top" xlink:title=" ">
<polygon fill="white" stroke="black" points="904.5,-56.5 904.5,-75.5 960.5,-75.5 960.5,-56.5 904.5,-56.5"/>
<text text-anchor="middle" x="932.5" y="-63.5" font-family="Helvetica,sans-Serif" font-size="10.00">edge.cpp</text>
</a>
</g>
</g>
<!-- Node2&#45;&gt;Node15 -->
<g id="edge28" class="edge">
<title>Node2&#45;&gt;Node15</title>
<path fill="none" stroke="midnightblue" d="M932.5,-213.93C932.5,-177.92 932.5,-101.23 932.5,-75.57"/>
<polygon fill="midnightblue" stroke="midnightblue" points="929,-214.08 932.5,-224.08 936,-214.08 929,-214.08"/>
</g>
<!-- Node2&#45;&gt;Node17 -->
<g id="edge29" class="edge">
<title>Node2&#45;&gt;Node17</title>
<path fill="none" stroke="midnightblue" d="M940.92,-214.86C957.43,-179.25 993.52,-101.45 1005.53,-75.57"/>
<polygon fill="midnightblue" stroke="midnightblue" points="937.67,-213.53 936.64,-224.08 944.02,-216.48 937.67,-213.53"/>
</g>
<!-- Node4 -->
<g id="node4" class="node">
<title>Node4</title>
<g id="a_node4"><a xlink:href="../../d9/d53/mainwindow_8h.html" target="_top" xlink:title="Qt MainWindow of the application.">
<polygon fill="white" stroke="black" points="159.5,-56.5 159.5,-75.5 237.5,-75.5 237.5,-56.5 159.5,-56.5"/>
<text text-anchor="middle" x="198.5" y="-63.5" font-family="Helvetica,sans-Serif" font-size="10.00">mainwindow.h</text>
</a>
</g>
</g>
<!-- Node3&#45;&gt;Node4 -->
<g id="edge3" class="edge">
<title>Node3&#45;&gt;Node4</title>
<path fill="none" stroke="midnightblue" d="M574.94,-171.11C535.92,-164.2 472.66,-151.2 420.5,-132 402.22,-125.27 399.75,-118.82 381.5,-112 355.45,-102.27 283.3,-85.62 237.76,-75.53"/>
<polygon fill="midnightblue" stroke="midnightblue" points="574.82,-174.64 585.28,-172.9 576.02,-167.75 574.82,-174.64"/>
</g>
<!-- Node7 -->
<g id="node7" class="node">
<title>Node7</title>
<g id="a_node7"><a xlink:href="../../d3/d1d/march_intersections_8h.html" target="_top" xlink:title=" ">
<polygon fill="white" stroke="black" points="557.5,-112.5 557.5,-131.5 665.5,-131.5 665.5,-112.5 557.5,-112.5"/>
<text text-anchor="middle" x="611.5" y="-119.5" font-family="Helvetica,sans-Serif" font-size="10.00">marchIntersections.h</text>
</a>
</g>
</g>
<!-- Node3&#45;&gt;Node7 -->
<g id="edge6" class="edge">
<title>Node3&#45;&gt;Node7</title>
<path fill="none" stroke="midnightblue" d="M611.5,-157.8C611.5,-148.91 611.5,-138.78 611.5,-131.75"/>
<polygon fill="midnightblue" stroke="midnightblue" points="608,-158.08 611.5,-168.08 615,-158.08 608,-158.08"/>
</g>
<!-- Node9 -->
<g id="node9" class="node">
<title>Node9</title>
<g id="a_node9"><a xlink:href="../../d5/dc3/tin_8h.html" target="_top" xlink:title=" ">
<polygon fill="white" stroke="black" points="684,-112.5 684,-131.5 719,-131.5 719,-112.5 684,-112.5"/>
<text text-anchor="middle" x="701.5" y="-119.5" font-family="Helvetica,sans-Serif" font-size="10.00">tin.h</text>
</a>
</g>
</g>
<!-- Node3&#45;&gt;Node9 -->
<g id="edge8" class="edge">
<title>Node3&#45;&gt;Node9</title>
<path fill="none" stroke="midnightblue" d="M629.31,-162.69C645.22,-152.4 668.09,-138.91 683.95,-130.61"/>
<polygon fill="midnightblue" stroke="midnightblue" points="627.23,-159.87 620.85,-168.32 631.11,-165.7 627.23,-159.87"/>
</g>
<!-- Node14 -->
<g id="node14" class="node">
<title>Node14</title>
<g id="a_node14"><a xlink:href="../../dd/d6a/triangle_8h.html" target="_top" xlink:title=" ">
<polygon fill="white" stroke="black" points="824.5,-112.5 824.5,-131.5 880.5,-131.5 880.5,-112.5 824.5,-112.5"/>
<text text-anchor="middle" x="852.5" y="-119.5" font-family="Helvetica,sans-Serif" font-size="10.00">triangle.h</text>
</a>
</g>
</g>
<!-- Node3&#45;&gt;Node14 -->
<g id="edge14" class="edge">
<title>Node3&#45;&gt;Node14</title>
<path fill="none" stroke="midnightblue" d="M647.85,-167.68C696.19,-156.33 780.35,-137.55 824.26,-128.38"/>
<polygon fill="midnightblue" stroke="midnightblue" points="646.74,-164.35 637.81,-170.05 648.35,-171.16 646.74,-164.35"/>
</g>
<!-- Node18 -->
<g id="node18" class="node">
<title>Node18</title>
<g id="a_node18"><a xlink:href="../../df/d36/check_and_repair_8cpp.html" target="_top" xlink:title=" ">
<polygon fill="white" stroke="black" points="102,-112.5 102,-131.5 209,-131.5 209,-112.5 102,-112.5"/>
<text text-anchor="middle" x="155.5" y="-119.5" font-family="Helvetica,sans-Serif" font-size="10.00">checkAndRepair.cpp</text>
</a>
</g>
</g>
<!-- Node3&#45;&gt;Node18 -->
<g id="edge19" class="edge">
<title>Node3&#45;&gt;Node18</title>
<path fill="none" stroke="midnightblue" d="M575.28,-173.19C505.94,-165.83 349.7,-148.88 218.5,-132 215.43,-131.61 212.28,-131.19 209.1,-130.76"/>
<polygon fill="midnightblue" stroke="midnightblue" points="574.94,-176.68 585.25,-174.25 575.68,-169.72 574.94,-176.68"/>
</g>
<!-- Node19 -->
<g id="node19" class="node">
<title>Node19</title>
<g id="a_node19"><a xlink:href="../../d1/d69/subdivision_8cpp.html" target="_top" xlink:title=" ">
<polygon fill="white" stroke="black" points="227.5,-112.5 227.5,-131.5 311.5,-131.5 311.5,-112.5 227.5,-112.5"/>
<text text-anchor="middle" x="269.5" y="-119.5" font-family="Helvetica,sans-Serif" font-size="10.00">subdivision.cpp</text>
</a>
</g>
</g>
<!-- Node3&#45;&gt;Node19 -->
<g id="edge20" class="edge">
<title>Node3&#45;&gt;Node19</title>
<path fill="none" stroke="midnightblue" d="M575.43,-171.67C520.39,-163.49 412.18,-147.18 320.5,-132 317.57,-131.52 314.55,-131.01 311.51,-130.49"/>
<polygon fill="midnightblue" stroke="midnightblue" points="574.98,-175.15 585.39,-173.15 576.01,-168.22 574.98,-175.15"/>
</g>
<!-- Node20 -->
<g id="node20" class="node">
<title>Node20</title>
<g id="a_node20"><a xlink:href="../../d5/d5a/io_8cpp.html" target="_top" xlink:title=" ">
<polygon fill="white" stroke="black" points="330,-112.5 330,-131.5 373,-131.5 373,-112.5 330,-112.5"/>
<text text-anchor="middle" x="351.5" y="-119.5" font-family="Helvetica,sans-Serif" font-size="10.00">io.cpp</text>
</a>
</g>
</g>
<!-- Node3&#45;&gt;Node20 -->
<g id="edge21" class="edge">
<title>Node3&#45;&gt;Node20</title>
<path fill="none" stroke="midnightblue" d="M575.19,-170.25C530.79,-161.86 453.42,-146.85 387.5,-132 382.85,-130.95 377.88,-129.76 373.16,-128.59"/>
<polygon fill="midnightblue" stroke="midnightblue" points="574.73,-173.72 585.21,-172.13 576.03,-166.84 574.73,-173.72"/>
</g>
<!-- Node21 -->
<g id="node21" class="node">
<title>Node21</title>
<g id="a_node21"><a xlink:href="../../db/d45/exportopenscadtool_8h.html" target="_top" xlink:title="Tool for exporting a wired mesh to the openscad format.">
<polygon fill="white" stroke="black" points="429.5,-112.5 429.5,-131.5 539.5,-131.5 539.5,-112.5 429.5,-112.5"/>
<text text-anchor="middle" x="484.5" y="-119.5" font-family="Helvetica,sans-Serif" font-size="10.00">exportopenscadtool.h</text>
</a>
</g>
</g>
<!-- Node3&#45;&gt;Node21 -->
<g id="edge22" class="edge">
<title>Node3&#45;&gt;Node21</title>
<path fill="none" stroke="midnightblue" d="M582.11,-164.5C558.3,-154.38 525.39,-140.39 504.53,-131.52"/>
<polygon fill="midnightblue" stroke="midnightblue" points="580.8,-167.75 591.38,-168.44 583.54,-161.31 580.8,-167.75"/>
</g>
<!-- Node23 -->
<g id="node23" class="node">
<title>Node23</title>
<g id="a_node23"><a xlink:href="../../db/dcb/exportstltool_8h.html" target="_top" xlink:title="Tool for exporting a wired mesh to the stl file format.">
<polygon fill="white" stroke="black" points="5.5,-112.5 5.5,-131.5 83.5,-131.5 83.5,-112.5 5.5,-112.5"/>
<text text-anchor="middle" x="44.5" y="-119.5" font-family="Helvetica,sans-Serif" font-size="10.00">exportstltool.h</text>
</a>
</g>
</g>
<!-- Node3&#45;&gt;Node23 -->
<g id="edge25" class="edge">
<title>Node3&#45;&gt;Node23</title>
<path fill="none" stroke="midnightblue" d="M575.36,-175.1C490.68,-170.38 272.96,-156.68 92.5,-132 89.64,-131.61 86.7,-131.16 83.74,-130.68"/>
<polygon fill="midnightblue" stroke="midnightblue" points="575.3,-178.6 585.48,-175.66 575.69,-171.61 575.3,-178.6"/>
</g>
<!-- Node5 -->
<g id="node5" class="node">
<title>Node5</title>
<g id="a_node5"><a xlink:href="../../d8/dd9/mainwindow_8cpp.html" target="_top" xlink:title=" ">
<polygon fill="white" stroke="black" points="199,-0.5 199,-19.5 288,-19.5 288,-0.5 199,-0.5"/>
<text text-anchor="middle" x="243.5" y="-7.5" font-family="Helvetica,sans-Serif" font-size="10.00">mainwindow.cpp</text>
</a>
</g>
</g>
<!-- Node4&#45;&gt;Node5 -->
<g id="edge4" class="edge">
<title>Node4&#45;&gt;Node5</title>
<path fill="none" stroke="midnightblue" d="M212.55,-48.14C220.39,-38.74 229.83,-27.4 236.21,-19.75"/>
<polygon fill="midnightblue" stroke="midnightblue" points="209.64,-46.16 205.93,-56.08 215.02,-50.64 209.64,-46.16"/>
</g>
<!-- Node6 -->
<g id="node6" class="node">
<title>Node6</title>
<g id="a_node6"><a xlink:href="../../df/d0a/main_8cpp.html" target="_top" xlink:title=" ">
<polygon fill="white" stroke="black" points="124.5,-0.5 124.5,-19.5 180.5,-19.5 180.5,-0.5 124.5,-0.5"/>
<text text-anchor="middle" x="152.5" y="-7.5" font-family="Helvetica,sans-Serif" font-size="10.00">main.cpp</text>
</a>
</g>
</g>
<!-- Node4&#45;&gt;Node6 -->
<g id="edge5" class="edge">
<title>Node4&#45;&gt;Node6</title>
<path fill="none" stroke="midnightblue" d="M184.39,-48.43C176.32,-38.97 166.54,-27.48 159.95,-19.75"/>
<polygon fill="midnightblue" stroke="midnightblue" points="181.75,-50.74 190.9,-56.08 187.08,-46.2 181.75,-50.74"/>
</g>
<!-- Node8 -->
<g id="node8" class="node">
<title>Node8</title>
<g id="a_node8"><a xlink:href="../../d0/d89/march_intersections_8cpp.html" target="_top" xlink:title=" ">
<polygon fill="white" stroke="black" points="394,-56.5 394,-75.5 513,-75.5 513,-56.5 394,-56.5"/>
<text text-anchor="middle" x="453.5" y="-63.5" font-family="Helvetica,sans-Serif" font-size="10.00">marchIntersections.cpp</text>
</a>
</g>
</g>
<!-- Node7&#45;&gt;Node8 -->
<g id="edge7" class="edge">
<title>Node7&#45;&gt;Node8</title>
<path fill="none" stroke="midnightblue" d="M576.89,-109.17C547.14,-99 504.95,-84.59 478.42,-75.52"/>
<polygon fill="midnightblue" stroke="midnightblue" points="575.87,-112.52 586.46,-112.44 578.13,-105.9 575.87,-112.52"/>
</g>
<!-- Node9&#45;&gt;Node3 -->
<g id="edge11" class="edge">
<title>Node9&#45;&gt;Node3</title>
<path fill="none" stroke="midnightblue" d="M683.62,-137.35C668.38,-147.21 646.79,-159.98 631.07,-168.32"/>
<polygon fill="midnightblue" stroke="midnightblue" points="685.8,-140.11 692.19,-131.65 681.92,-134.28 685.8,-140.11"/>
</g>
<!-- Node10 -->
<g id="node10" class="node">
<title>Node10</title>
<g id="a_node10"><a xlink:href="../../df/dc9/detect_intersections_8h.html" target="_top" xlink:title=" ">
<polygon fill="white" stroke="black" points="595.5,-56.5 595.5,-75.5 703.5,-75.5 703.5,-56.5 595.5,-56.5"/>
<text text-anchor="middle" x="649.5" y="-63.5" font-family="Helvetica,sans-Serif" font-size="10.00">detectIntersections.h</text>
</a>
</g>
</g>
<!-- Node9&#45;&gt;Node10 -->
<g id="edge9" class="edge">
<title>Node9&#45;&gt;Node10</title>
<path fill="none" stroke="midnightblue" d="M685.82,-104.72C676.66,-95.2 665.45,-83.56 657.93,-75.75"/>
<polygon fill="midnightblue" stroke="midnightblue" points="683.46,-107.31 692.91,-112.08 688.5,-102.45 683.46,-107.31"/>
</g>
<!-- Node12 -->
<g id="node12" class="node">
<title>Node12</title>
<g id="a_node12"><a xlink:href="../../d0/db9/hole_filling_8cpp.html" target="_top" xlink:title=" ">
<polygon fill="white" stroke="black" points="722,-56.5 722,-75.5 801,-75.5 801,-56.5 722,-56.5"/>
<text text-anchor="middle" x="761.5" y="-63.5" font-family="Helvetica,sans-Serif" font-size="10.00">holeFilling.cpp</text>
</a>
</g>
</g>
<!-- Node9&#45;&gt;Node12 -->
<g id="edge12" class="edge">
<title>Node9&#45;&gt;Node12</title>
<path fill="none" stroke="midnightblue" d="M718.68,-105.54C729.38,-95.91 742.76,-83.87 751.68,-75.83"/>
<polygon fill="midnightblue" stroke="midnightblue" points="716.23,-103.03 711.14,-112.32 720.91,-108.24 716.23,-103.03"/>
</g>
<!-- Node13 -->
<g id="node13" class="node">
<title>Node13</title>
<g id="a_node13"><a xlink:href="../../dd/da9/tin_8cpp.html" target="_top" xlink:title=" ">
<polygon fill="white" stroke="black" points="531.5,-56.5 531.5,-75.5 577.5,-75.5 577.5,-56.5 531.5,-56.5"/>
<text text-anchor="middle" x="554.5" y="-63.5" font-family="Helvetica,sans-Serif" font-size="10.00">tin.cpp</text>
</a>
</g>
</g>
<!-- Node9&#45;&gt;Node13 -->
<g id="edge13" class="edge">
<title>Node9&#45;&gt;Node13</title>
<path fill="none" stroke="midnightblue" d="M674.26,-110.99C646.47,-100.78 603.81,-85.11 577.61,-75.49"/>
<polygon fill="midnightblue" stroke="midnightblue" points="673.17,-114.32 683.77,-114.49 675.59,-107.75 673.17,-114.32"/>
</g>
<!-- Node11 -->
<g id="node11" class="node">
<title>Node11</title>
<g id="a_node11"><a xlink:href="../../d8/dd7/detect_intersections_8cpp.html" target="_top" xlink:title=" ">
<polygon fill="white" stroke="black" points="590,-0.5 590,-19.5 709,-19.5 709,-0.5 590,-0.5"/>
<text text-anchor="middle" x="649.5" y="-7.5" font-family="Helvetica,sans-Serif" font-size="10.00">detectIntersections.cpp</text>
</a>
</g>
</g>
<!-- Node10&#45;&gt;Node11 -->
<g id="edge10" class="edge">
<title>Node10&#45;&gt;Node11</title>
<path fill="none" stroke="midnightblue" d="M649.5,-45.8C649.5,-36.91 649.5,-26.78 649.5,-19.75"/>
<polygon fill="midnightblue" stroke="midnightblue" points="646,-46.08 649.5,-56.08 653,-46.08 646,-46.08"/>
</g>
<!-- Node14&#45;&gt;Node3 -->
<g id="edge15" class="edge">
<title>Node14&#45;&gt;Node3</title>
<path fill="none" stroke="midnightblue" d="M814.53,-132.7C765.23,-144.25 680.72,-163.1 637.85,-172.02"/>
<polygon fill="midnightblue" stroke="midnightblue" points="815.56,-136.05 824.49,-130.35 813.95,-129.24 815.56,-136.05"/>
</g>
<!-- Node14&#45;&gt;Node15 -->
<g id="edge16" class="edge">
<title>Node14&#45;&gt;Node15</title>
<path fill="none" stroke="midnightblue" d="M873.8,-106.62C888.42,-96.76 907.33,-83.99 919.68,-75.65"/>
<polygon fill="midnightblue" stroke="midnightblue" points="871.68,-103.83 865.35,-112.32 875.6,-109.63 871.68,-103.83"/>
</g>
<!-- Node16 -->
<g id="node16" class="node">
<title>Node16</title>
<g id="a_node16"><a xlink:href="../../d6/d4c/triangle_8cpp.html" target="_top" xlink:title=" ">
<polygon fill="white" stroke="black" points="819,-56.5 819,-75.5 886,-75.5 886,-56.5 819,-56.5"/>
<text text-anchor="middle" x="852.5" y="-63.5" font-family="Helvetica,sans-Serif" font-size="10.00">triangle.cpp</text>
</a>
</g>
</g>
<!-- Node14&#45;&gt;Node16 -->
<g id="edge17" class="edge">
<title>Node14&#45;&gt;Node16</title>
<path fill="none" stroke="midnightblue" d="M852.5,-101.8C852.5,-92.91 852.5,-82.78 852.5,-75.75"/>
<polygon fill="midnightblue" stroke="midnightblue" points="849,-102.08 852.5,-112.08 856,-102.08 849,-102.08"/>
</g>
<!-- Node14&#45;&gt;Node17 -->
<g id="edge18" class="edge">
<title>Node14&#45;&gt;Node17</title>
<path fill="none" stroke="midnightblue" d="M886.89,-109.17C916.45,-99 958.37,-84.59 984.74,-75.52"/>
<polygon fill="midnightblue" stroke="midnightblue" points="885.7,-105.88 877.38,-112.44 887.97,-112.5 885.7,-105.88"/>
</g>
<!-- Node21&#45;&gt;Node4 -->
<g id="edge23" class="edge">
<title>Node21&#45;&gt;Node4</title>
<path fill="none" stroke="midnightblue" d="M429.04,-110.53C372.78,-99.91 287.16,-83.74 237.63,-74.39"/>
<polygon fill="midnightblue" stroke="midnightblue" points="428.71,-114.03 439.18,-112.44 430.01,-107.15 428.71,-114.03"/>
</g>
<!-- Node22 -->
<g id="node22" class="node">
<title>Node22</title>
<g id="a_node22"><a xlink:href="../../d8/d4e/exportopenscadtool_8cpp.html" target="_top" xlink:title=" ">
<polygon fill="white" stroke="black" points="255.5,-56.5 255.5,-75.5 375.5,-75.5 375.5,-56.5 255.5,-56.5"/>
<text text-anchor="middle" x="315.5" y="-63.5" font-family="Helvetica,sans-Serif" font-size="10.00">exportopenscadtool.cpp</text>
</a>
</g>
</g>
<!-- Node21&#45;&gt;Node22 -->
<g id="edge24" class="edge">
<title>Node21&#45;&gt;Node22</title>
<path fill="none" stroke="midnightblue" d="M447.9,-109.3C416.05,-99.13 370.66,-84.62 342.15,-75.52"/>
<polygon fill="midnightblue" stroke="midnightblue" points="447.13,-112.73 457.72,-112.44 449.26,-106.07 447.13,-112.73"/>
</g>
<!-- Node23&#45;&gt;Node4 -->
<g id="edge26" class="edge">
<title>Node23&#45;&gt;Node4</title>
<path fill="none" stroke="midnightblue" d="M78.61,-109.04C107.59,-98.88 148.46,-84.55 174.21,-75.52"/>
<polygon fill="midnightblue" stroke="midnightblue" points="77.18,-105.83 68.9,-112.44 79.5,-112.44 77.18,-105.83"/>
</g>
<!-- Node24 -->
<g id="node24" class="node">
<title>Node24</title>
<g id="a_node24"><a xlink:href="../../de/d8b/exportstltool_8cpp.html" target="_top" xlink:title=" ">
<polygon fill="white" stroke="black" points="0,-56.5 0,-75.5 89,-75.5 89,-56.5 0,-56.5"/>
<text text-anchor="middle" x="44.5" y="-63.5" font-family="Helvetica,sans-Serif" font-size="10.00">exportstltool.cpp</text>
</a>
</g>
</g>
<!-- Node23&#45;&gt;Node24 -->
<g id="edge27" class="edge">
<title>Node23&#45;&gt;Node24</title>
<path fill="none" stroke="midnightblue" d="M44.5,-101.8C44.5,-92.91 44.5,-82.78 44.5,-75.75"/>
<polygon fill="midnightblue" stroke="midnightblue" points="41,-102.08 44.5,-112.08 48,-102.08 41,-102.08"/>
</g>
</g>
</svg>
