<?xml version="1.0" encoding="UTF-8" standalone="no"?>
<!DOCTYPE svg PUBLIC "-//W3C//DTD SVG 1.1//EN"
 "http://www.w3.org/Graphics/SVG/1.1/DTD/svg11.dtd">
<!-- Generated by graphviz version 2.44.1 (0)
 -->
<!-- Title: ConnectionInfo Pages: 1 -->
<svg width="254pt" height="182pt"
 viewBox="0.00 0.00 254.00 182.00" xmlns="http://www.w3.org/2000/svg" xmlns:xlink="http://www.w3.org/1999/xlink">
<g id="graph0" class="graph" transform="scale(1 1) rotate(0) translate(4 178)">
<title>ConnectionInfo</title>
<polygon fill="white" stroke="transparent" points="-4,4 -4,-178 250,-178 250,4 -4,4"/>
<!-- Node1 -->
<g id="node1" class="node">
<title>Node1</title>
<g id="a_node1"><a xlink:title="The ConnectionInfo struct contains the indices of the source and destination touchpoint.">
<polygon fill="#bfbfbf" stroke="black" points="76,-0.5 76,-57.5 186,-57.5 186,-0.5 76,-0.5"/>
<text text-anchor="middle" x="131" y="-45.5" font-family="Helvetica,sans-Serif" font-size="10.00">ConnectionInfo</text>
<polyline fill="none" stroke="black" points="76,-38.5 186,-38.5 "/>
<text text-anchor="start" x="84" y="-26.5" font-family="Helvetica,sans-Serif" font-size="10.00">+ markNeighborHood</text>
<polyline fill="none" stroke="black" points="76,-19.5 186,-19.5 "/>
<text text-anchor="start" x="84" y="-7.5" font-family="Helvetica,sans-Serif" font-size="10.00">+ ConnectionInfo()</text>
</a>
</g>
</g>
<!-- Node2 -->
<g id="node2" class="node">
<title>Node2</title>
<g id="a_node2"><a xlink:title=" ">
<polygon fill="white" stroke="#bfbfbf" points="0,-111 0,-168 130,-168 130,-111 0,-111"/>
<text text-anchor="middle" x="65" y="-156" font-family="Helvetica,sans-Serif" font-size="10.00">std::vector&lt; vtkVector3i &gt;</text>
<polyline fill="none" stroke="#bfbfbf" points="0,-149 130,-149 "/>
<text text-anchor="start" x="8" y="-137" font-family="Helvetica,sans-Serif" font-size="10.00">+ elements</text>
<polyline fill="none" stroke="#bfbfbf" points="0,-130 130,-130 "/>
<text text-anchor="middle" x="65" y="-118" font-family="Helvetica,sans-Serif" font-size="10.00"> </text>
</a>
</g>
</g>
<!-- Node2&#45;&gt;Node1 -->
<g id="edge1" class="edge">
<title>Node2&#45;&gt;Node1</title>
<path fill="none" stroke="#404040" d="M81.83,-110.84C89.74,-97.83 99.3,-82.11 107.88,-68.01"/>
<polygon fill="none" stroke="#404040" points="107.97,-67.86 107.67,-60.66 114.21,-57.61 114.5,-64.81 107.97,-67.86"/>
<text text-anchor="middle" x="116" y="-79" font-family="Helvetica,sans-Serif" font-size="10.00"> +path</text>
</g>
<!-- Node3 -->
<g id="node3" class="node">
<title>Node3</title>
<g id="a_node3"><a xlink:href="../../d3/d2c/struct_connection_indices.html" target="_top" xlink:title="The ConnectionIndices struct contains the indices of the source touchpoint and destination connector ...">
<polygon fill="white" stroke="black" points="148,-105.5 148,-173.5 246,-173.5 246,-105.5 148,-105.5"/>
<text text-anchor="middle" x="197" y="-161.5" font-family="Helvetica,sans-Serif" font-size="10.00">ConnectionIndices</text>
<polyline fill="none" stroke="black" points="148,-154.5 246,-154.5 "/>
<text text-anchor="start" x="156" y="-142.5" font-family="Helvetica,sans-Serif" font-size="10.00">+ sourceIndex</text>
<text text-anchor="start" x="156" y="-131.5" font-family="Helvetica,sans-Serif" font-size="10.00">+ destinationIndex</text>
<polyline fill="none" stroke="black" points="148,-124.5 246,-124.5 "/>
<text text-anchor="middle" x="197" y="-112.5" font-family="Helvetica,sans-Serif" font-size="10.00"> </text>
</a>
</g>
</g>
<!-- Node3&#45;&gt;Node1 -->
<g id="edge2" class="edge">
<title>Node3&#45;&gt;Node1</title>
<path fill="none" stroke="#404040" d="M176.84,-105.36C169.69,-93.6 161.58,-80.27 154.19,-68.12"/>
<polygon fill="none" stroke="#404040" points="154.16,-68.08 147.63,-65.03 147.93,-57.83 154.46,-60.87 154.16,-68.08"/>
<text text-anchor="middle" x="184" y="-79" font-family="Helvetica,sans-Serif" font-size="10.00"> +indices</text>
</g>
</g>
</svg>
