<?xml version="1.0" encoding="UTF-8" standalone="no"?>
<!DOCTYPE svg PUBLIC "-//W3C//DTD SVG 1.1//EN"
 "http://www.w3.org/Graphics/SVG/1.1/DTD/svg11.dtd">
<!-- Generated by graphviz version 2.44.1 (0)
 -->
<!-- Title: GreatDelugeOptimizer::optimize Pages: 1 -->
<svg width="1107pt" height="509pt"
 viewBox="0.00 0.00 1107.00 509.30" xmlns="http://www.w3.org/2000/svg" xmlns:xlink="http://www.w3.org/1999/xlink">
<g id="graph0" class="graph" transform="scale(1 1) rotate(0) translate(4 505.3)">
<title>GreatDelugeOptimizer::optimize</title>
<polygon fill="white" stroke="transparent" points="-4,4 -4,-505.3 1103,-505.3 1103,4 -4,4"/>
<!-- Node1 -->
<g id="node1" class="node">
<title>Node1</title>
<g id="a_node1"><a xlink:title=" ">
<polygon fill="#bfbfbf" stroke="black" points="0,-274.3 0,-304.3 113,-304.3 113,-274.3 0,-274.3"/>
<text text-anchor="start" x="8" y="-292.3" font-family="Helvetica,sans-Serif" font-size="10.00">GreatDelugeOptimizer</text>
<text text-anchor="middle" x="56.5" y="-281.3" font-family="Helvetica,sans-Serif" font-size="10.00">::optimize</text>
</a>
</g>
</g>
<!-- Node2 -->
<g id="node2" class="node">
<title>Node2</title>
<g id="a_node2"><a xlink:href="../../d9/d02/class_optimizer.html#a005ef2bdea59b2a3ac0fa22978add36a" target="_top" xlink:title="Add optimized connections to the touchpoint registry.">
<polygon fill="white" stroke="black" points="302,-443.8 302,-462.8 437,-462.8 437,-443.8 302,-443.8"/>
<text text-anchor="middle" x="369.5" y="-450.8" font-family="Helvetica,sans-Serif" font-size="10.00">Optimizer::addConnections</text>
</a>
</g>
</g>
<!-- Node1&#45;&gt;Node2 -->
<g id="edge1" class="edge">
<title>Node1&#45;&gt;Node2</title>
<path fill="none" stroke="midnightblue" d="M72.14,-304.53C89.27,-321.65 119.09,-349.39 149,-367.3 205.92,-401.39 278.77,-426.79 324.55,-440.84"/>
<polygon fill="midnightblue" stroke="midnightblue" points="323.58,-444.2 334.17,-443.74 325.61,-437.5 323.58,-444.2"/>
</g>
<!-- Node3 -->
<g id="node3" class="node">
<title>Node3</title>
<g id="a_node3"><a xlink:href="../../d6/db5/class_scene.html#a64cb0dcdcb57a45fe485fb3489c112c4" target="_top" xlink:title="Return if the 26&#45;neighborhood voxels of a connection path are locked too.">
<polygon fill="white" stroke="black" points="480.5,-481.8 480.5,-500.8 633.5,-500.8 633.5,-481.8 480.5,-481.8"/>
<text text-anchor="middle" x="557" y="-488.8" font-family="Helvetica,sans-Serif" font-size="10.00">Scene::getLockNeighborVoxels</text>
</a>
</g>
</g>
<!-- Node1&#45;&gt;Node3 -->
<g id="edge4" class="edge">
<title>Node1&#45;&gt;Node3</title>
<path fill="none" stroke="midnightblue" d="M66.03,-304.54C80.34,-328.93 111.37,-376.97 149,-406.3 241.65,-478.51 380.96,-493.26 470.18,-494.43"/>
<polygon fill="midnightblue" stroke="midnightblue" points="470.24,-497.93 480.27,-494.5 470.3,-490.93 470.24,-497.93"/>
</g>
<!-- Node4 -->
<g id="node4" class="node">
<title>Node4</title>
<g id="a_node4"><a xlink:href="../../d6/db5/class_scene.html#a5c26ef724365bd55c471acc673d60674" target="_top" xlink:title="Return the touchpoint registry of the scene.">
<polygon fill="white" stroke="black" points="483,-443.8 483,-462.8 631,-462.8 631,-443.8 483,-443.8"/>
<text text-anchor="middle" x="557" y="-450.8" font-family="Helvetica,sans-Serif" font-size="10.00">Scene::getTouchpointRegistry</text>
</a>
</g>
</g>
<!-- Node1&#45;&gt;Node4 -->
<g id="edge5" class="edge">
<title>Node1&#45;&gt;Node4</title>
<path fill="none" stroke="midnightblue" d="M97,-304.39C170.89,-332.3 335.36,-392.89 477,-434.3 485.46,-436.77 494.5,-439.17 503.32,-441.38"/>
<polygon fill="midnightblue" stroke="midnightblue" points="502.61,-444.81 513.16,-443.79 504.28,-438.01 502.61,-444.81"/>
</g>
<!-- Node5 -->
<g id="node5" class="node">
<title>Node5</title>
<g id="a_node5"><a xlink:href="../../de/d17/class_great_deluge_optimizer.html#ac56ec7a807a73b6d9a588faa1a433885" target="_top" xlink:title="Run the great deluge algorithm.">
<polygon fill="white" stroke="black" points="149,-274.3 149,-304.3 262,-304.3 262,-274.3 149,-274.3"/>
<text text-anchor="start" x="157" y="-292.3" font-family="Helvetica,sans-Serif" font-size="10.00">GreatDelugeOptimizer</text>
<text text-anchor="middle" x="205.5" y="-281.3" font-family="Helvetica,sans-Serif" font-size="10.00">::greatDeluge</text>
</a>
</g>
</g>
<!-- Node1&#45;&gt;Node5 -->
<g id="edge6" class="edge">
<title>Node1&#45;&gt;Node5</title>
<path fill="none" stroke="midnightblue" d="M113.07,-289.3C121.49,-289.3 130.24,-289.3 138.84,-289.3"/>
<polygon fill="midnightblue" stroke="midnightblue" points="138.85,-292.8 148.85,-289.3 138.85,-285.8 138.85,-292.8"/>
</g>
<!-- Node8 -->
<g id="node8" class="node">
<title>Node8</title>
<g id="a_node8"><a xlink:href="../../de/d52/class_a_star.html#aa76c29f42861c4f6fc7c328e4dbc7d83" target="_top" xlink:title="Mark a path as locked so that it can not be used by another search.">
<polygon fill="white" stroke="black" points="698,-153.8 698,-172.8 787,-172.8 787,-153.8 698,-153.8"/>
<text text-anchor="middle" x="742.5" y="-160.8" font-family="Helvetica,sans-Serif" font-size="10.00">AStar::markPath</text>
</a>
</g>
</g>
<!-- Node1&#45;&gt;Node8 -->
<g id="edge31" class="edge">
<title>Node1&#45;&gt;Node8</title>
<path fill="none" stroke="midnightblue" d="M74.89,-274.12C92.7,-259.03 121.59,-235.81 149,-219.3 286.46,-136.48 320.24,-102.65 477,-68.3 546.46,-53.08 570.67,-42.66 637,-68.3 676.97,-83.75 711.08,-122.39 728.69,-145.35"/>
<polygon fill="midnightblue" stroke="midnightblue" points="726.03,-147.64 734.81,-153.57 731.65,-143.46 726.03,-147.64"/>
</g>
<!-- Node21 -->
<g id="node21" class="node">
<title>Node21</title>
<g id="a_node21"><a xlink:href="../../de/d52/class_a_star.html#a0d1fd50821c4cd7bbd8a87bd9fcf5dd3" target="_top" xlink:title="Search a path in the voxelgrid using the A* algorithm with the preset heuristic.">
<polygon fill="white" stroke="black" points="508.5,-115.8 508.5,-134.8 605.5,-134.8 605.5,-115.8 508.5,-115.8"/>
<text text-anchor="middle" x="557" y="-122.8" font-family="Helvetica,sans-Serif" font-size="10.00">AStar::searchPath</text>
</a>
</g>
</g>
<!-- Node1&#45;&gt;Node21 -->
<g id="edge32" class="edge">
<title>Node1&#45;&gt;Node21</title>
<path fill="none" stroke="midnightblue" d="M102.14,-274.29C178.72,-248.59 340.14,-194.62 477,-150.3 489.63,-146.21 503.43,-141.81 515.91,-137.87"/>
<polygon fill="midnightblue" stroke="midnightblue" points="517.1,-141.16 525.58,-134.82 514.99,-134.49 517.1,-141.16"/>
</g>
<!-- Node23 -->
<g id="node23" class="node">
<title>Node23</title>
<g id="a_node23"><a xlink:href="../../de/d52/class_a_star.html#a38a48ab40e77b2f0b53ea27245425ca5" target="_top" xlink:title="Initializes A* grid nodes.">
<polygon fill="white" stroke="black" points="339.5,-1.8 339.5,-20.8 399.5,-20.8 399.5,-1.8 339.5,-1.8"/>
<text text-anchor="middle" x="369.5" y="-8.8" font-family="Helvetica,sans-Serif" font-size="10.00">AStar::init</text>
</a>
</g>
</g>
<!-- Node1&#45;&gt;Node23 -->
<g id="edge28" class="edge">
<title>Node1&#45;&gt;Node23</title>
<path fill="none" stroke="midnightblue" d="M57.78,-274.18C59.52,-229.36 71.3,-96.48 149,-35.3 200.63,5.35 281.54,2.32 329.36,-4.11"/>
<polygon fill="midnightblue" stroke="midnightblue" points="328.93,-7.59 339.33,-5.57 329.94,-0.66 328.93,-7.59"/>
</g>
<!-- Node2&#45;&gt;Node3 -->
<g id="edge2" class="edge">
<title>Node2&#45;&gt;Node3</title>
<path fill="none" stroke="midnightblue" d="M417.31,-462.89C442.34,-468.01 473.34,-474.37 499.68,-479.76"/>
<polygon fill="midnightblue" stroke="midnightblue" points="499.03,-483.2 509.53,-481.78 500.43,-476.34 499.03,-483.2"/>
</g>
<!-- Node2&#45;&gt;Node4 -->
<g id="edge3" class="edge">
<title>Node2&#45;&gt;Node4</title>
<path fill="none" stroke="midnightblue" d="M437.21,-453.3C448.7,-453.3 460.76,-453.3 472.63,-453.3"/>
<polygon fill="midnightblue" stroke="midnightblue" points="472.98,-456.8 482.98,-453.3 472.98,-449.8 472.98,-456.8"/>
</g>
<!-- Node6 -->
<g id="node6" class="node">
<title>Node6</title>
<g id="a_node6"><a xlink:href="../../d9/d02/class_optimizer.html#a4f2470e3a7450a12d4daa5df86d50ce8" target="_top" xlink:title="computes the total wire length of a wiring">
<polygon fill="white" stroke="black" points="298,-274.3 298,-304.3 441,-304.3 441,-274.3 298,-274.3"/>
<text text-anchor="start" x="306" y="-292.3" font-family="Helvetica,sans-Serif" font-size="10.00">Optimizer::computeTotalWire</text>
<text text-anchor="middle" x="369.5" y="-281.3" font-family="Helvetica,sans-Serif" font-size="10.00">Distance</text>
</a>
</g>
</g>
<!-- Node5&#45;&gt;Node6 -->
<g id="edge7" class="edge">
<title>Node5&#45;&gt;Node6</title>
<path fill="none" stroke="midnightblue" d="M262.25,-289.3C270.47,-289.3 279.08,-289.3 287.69,-289.3"/>
<polygon fill="midnightblue" stroke="midnightblue" points="287.77,-292.8 297.77,-289.3 287.77,-285.8 287.77,-292.8"/>
</g>
<!-- Node6&#45;&gt;Node3 -->
<g id="edge11" class="edge">
<title>Node6&#45;&gt;Node3</title>
<path fill="none" stroke="midnightblue" d="M377.36,-304.35C395.68,-343.95 446.48,-449.58 477,-472.3 479.52,-474.18 482.2,-475.87 485,-477.4"/>
<polygon fill="midnightblue" stroke="midnightblue" points="483.7,-480.66 494.24,-481.74 486.68,-474.32 483.7,-480.66"/>
</g>
<!-- Node6&#45;&gt;Node4 -->
<g id="edge13" class="edge">
<title>Node6&#45;&gt;Node4</title>
<path fill="none" stroke="midnightblue" d="M399.37,-304.36C413.54,-312.98 429.9,-324.93 441,-339.3 468.61,-375.02 443.12,-404.45 477,-434.3 478.76,-435.85 480.63,-437.28 482.58,-438.6"/>
<polygon fill="midnightblue" stroke="midnightblue" points="481.18,-441.83 491.61,-443.7 484.62,-435.73 481.18,-441.83"/>
</g>
<!-- Node7 -->
<g id="node7" class="node">
<title>Node7</title>
<g id="a_node7"><a xlink:href="../../de/d52/class_a_star.html#a29f560899446dc99d6f157e4997650d7" target="_top" xlink:title="Unmark all paths.">
<polygon fill="white" stroke="black" points="504.5,-241.8 504.5,-260.8 609.5,-260.8 609.5,-241.8 504.5,-241.8"/>
<text text-anchor="middle" x="557" y="-248.8" font-family="Helvetica,sans-Serif" font-size="10.00">AStar::clearAllPaths</text>
</a>
</g>
</g>
<!-- Node6&#45;&gt;Node7 -->
<g id="edge8" class="edge">
<title>Node6&#45;&gt;Node7</title>
<path fill="none" stroke="midnightblue" d="M441.16,-274.82C460.42,-270.88 481.04,-266.65 499.41,-262.89"/>
<polygon fill="midnightblue" stroke="midnightblue" points="500.27,-266.29 509.36,-260.85 498.86,-259.43 500.27,-266.29"/>
</g>
<!-- Node6&#45;&gt;Node8 -->
<g id="edge20" class="edge">
<title>Node6&#45;&gt;Node8</title>
<path fill="none" stroke="midnightblue" d="M380.09,-274.23C396.54,-249.89 432.68,-202.61 477,-182.3 544.57,-151.33 632.12,-151.87 687.56,-156.49"/>
<polygon fill="midnightblue" stroke="midnightblue" points="687.26,-159.97 697.53,-157.39 687.89,-153 687.26,-159.97"/>
</g>
<!-- Node9 -->
<g id="node9" class="node">
<title>Node9</title>
<g id="a_node9"><a xlink:href="../../d9/d58/class_touchpoint.html#a30cdb1f0de39cf4ffe2d23c3c750d331" target="_top" xlink:title="Return outside wiring entry point (grid coordinates)">
<polygon fill="white" stroke="black" points="490.5,-192.3 490.5,-222.3 623.5,-222.3 623.5,-192.3 490.5,-192.3"/>
<text text-anchor="start" x="498.5" y="-210.3" font-family="Helvetica,sans-Serif" font-size="10.00">Touchpoint::getConnection</text>
<text text-anchor="middle" x="557" y="-199.3" font-family="Helvetica,sans-Serif" font-size="10.00">PointIndex</text>
</a>
</g>
</g>
<!-- Node6&#45;&gt;Node9 -->
<g id="edge10" class="edge">
<title>Node6&#45;&gt;Node9</title>
<path fill="none" stroke="midnightblue" d="M395.67,-274.11C416.85,-261.75 448.21,-244.44 477,-232.3 482.43,-230.01 488.16,-227.81 493.93,-225.73"/>
<polygon fill="midnightblue" stroke="midnightblue" points="495.36,-228.94 503.66,-222.36 493.07,-222.33 495.36,-228.94"/>
</g>
<!-- Node10 -->
<g id="node10" class="node">
<title>Node10</title>
<g id="a_node10"><a xlink:href="../../d6/db5/class_scene.html#abe8f9d18527a1fea362460cdc53cb5eb" target="_top" xlink:title="Return the bounds of the mesh in scene coordinates.">
<polygon fill="white" stroke="black" points="477,-394.3 477,-424.3 637,-424.3 637,-394.3 477,-394.3"/>
<text text-anchor="start" x="485" y="-412.3" font-family="Helvetica,sans-Serif" font-size="10.00">Scene::getMeshWorldCoordinate</text>
<text text-anchor="middle" x="557" y="-401.3" font-family="Helvetica,sans-Serif" font-size="10.00">Bounds</text>
</a>
</g>
</g>
<!-- Node6&#45;&gt;Node10 -->
<g id="edge12" class="edge">
<title>Node6&#45;&gt;Node10</title>
<path fill="none" stroke="midnightblue" d="M395.27,-304.41C409.41,-313.62 427.03,-326.12 441,-339.3 459.63,-356.88 455.88,-369.81 477,-384.3 479.87,-386.27 482.91,-388.09 486.06,-389.78"/>
<polygon fill="midnightblue" stroke="midnightblue" points="484.63,-392.97 495.16,-394.16 487.67,-386.67 484.63,-392.97"/>
</g>
<!-- Node11 -->
<g id="node11" class="node">
<title>Node11</title>
<g id="a_node11"><a xlink:href="../../d6/db5/class_scene.html#a7e5ee53ea01ef113afaaf4b7c10accf3" target="_top" xlink:title="Return the voxel grid image data.">
<polygon fill="white" stroke="black" points="502.5,-77.8 502.5,-96.8 611.5,-96.8 611.5,-77.8 502.5,-77.8"/>
<text text-anchor="middle" x="557" y="-84.8" font-family="Helvetica,sans-Serif" font-size="10.00">Scene::getVoxelData</text>
</a>
</g>
</g>
<!-- Node6&#45;&gt;Node11 -->
<g id="edge14" class="edge">
<title>Node6&#45;&gt;Node11</title>
<path fill="none" stroke="midnightblue" d="M374.77,-274.22C385.56,-238.94 417.44,-150.64 477,-106.3 481.78,-102.74 487.14,-99.83 492.76,-97.47"/>
<polygon fill="midnightblue" stroke="midnightblue" points="494.18,-100.68 502.39,-93.97 491.79,-94.09 494.18,-100.68"/>
</g>
<!-- Node12 -->
<g id="node12" class="node">
<title>Node12</title>
<g id="a_node12"><a xlink:href="../../d9/d58/class_touchpoint.html#afbb2470ea0d67a12a29eb3d6bd958f01" target="_top" xlink:title="Mark voxel grid cells as occupied by the touchpoint geometry.">
<polygon fill="white" stroke="black" points="486.5,-355.8 486.5,-374.8 627.5,-374.8 627.5,-355.8 486.5,-355.8"/>
<text text-anchor="middle" x="557" y="-362.8" font-family="Helvetica,sans-Serif" font-size="10.00">Touchpoint::markOccupation</text>
</a>
</g>
</g>
<!-- Node6&#45;&gt;Node12 -->
<g id="edge15" class="edge">
<title>Node6&#45;&gt;Node12</title>
<path fill="none" stroke="midnightblue" d="M394.62,-304.51C415.67,-317.23 447.41,-335.03 477,-346.3 483.71,-348.85 490.87,-351.14 498.04,-353.17"/>
<polygon fill="midnightblue" stroke="midnightblue" points="497.21,-356.57 507.78,-355.77 499.02,-349.81 497.21,-356.57"/>
</g>
<!-- Node17 -->
<g id="node17" class="node">
<title>Node17</title>
<g id="a_node17"><a xlink:href="../../de/d52/class_a_star.html#a67f440fb4e77fad8d273ef848e9703c1" target="_top" xlink:title="Reset grid.">
<polygon fill="white" stroke="black" points="522.5,-279.8 522.5,-298.8 591.5,-298.8 591.5,-279.8 522.5,-279.8"/>
<text text-anchor="middle" x="557" y="-286.8" font-family="Helvetica,sans-Serif" font-size="10.00">AStar::reset</text>
</a>
</g>
</g>
<!-- Node6&#45;&gt;Node17 -->
<g id="edge21" class="edge">
<title>Node6&#45;&gt;Node17</title>
<path fill="none" stroke="midnightblue" d="M441.16,-289.3C464.98,-289.3 490.87,-289.3 512.03,-289.3"/>
<polygon fill="midnightblue" stroke="midnightblue" points="512.31,-292.8 522.31,-289.3 512.31,-285.8 512.31,-292.8"/>
</g>
<!-- Node6&#45;&gt;Node21 -->
<g id="edge25" class="edge">
<title>Node6&#45;&gt;Node21</title>
<path fill="none" stroke="midnightblue" d="M382.66,-274.16C396.87,-256.39 420.97,-225.96 441,-199.3 457.45,-177.4 454.73,-165.23 477,-149.3 483.55,-144.61 491.03,-140.83 498.71,-137.78"/>
<polygon fill="midnightblue" stroke="midnightblue" points="499.9,-141.07 508.14,-134.4 497.54,-134.48 499.9,-141.07"/>
</g>
<!-- Node22 -->
<g id="node22" class="node">
<title>Node22</title>
<g id="a_node22"><a xlink:href="../../d9/d58/class_touchpoint.html#a550348f9d05c347b5186b6531d583a11" target="_top" xlink:title="Mark voxel grid cells as unoccupied by the touchpoint geometry.">
<polygon fill="white" stroke="black" points="481,-317.8 481,-336.8 633,-336.8 633,-317.8 481,-317.8"/>
<text text-anchor="middle" x="557" y="-324.8" font-family="Helvetica,sans-Serif" font-size="10.00">Touchpoint::unMarkOccupation</text>
</a>
</g>
</g>
<!-- Node6&#45;&gt;Node22 -->
<g id="edge26" class="edge">
<title>Node6&#45;&gt;Node22</title>
<path fill="none" stroke="midnightblue" d="M441.16,-303.77C460.42,-307.72 481.04,-311.94 499.41,-315.71"/>
<polygon fill="midnightblue" stroke="midnightblue" points="498.86,-319.17 509.36,-317.74 500.27,-312.31 498.86,-319.17"/>
</g>
<!-- Node7&#45;&gt;Node8 -->
<g id="edge9" class="edge">
<title>Node7&#45;&gt;Node8</title>
<path fill="none" stroke="midnightblue" d="M606.47,-241.71C616.76,-238.94 627.41,-235.49 637,-231.3 668.61,-217.47 701.37,-194.49 721.6,-179.13"/>
<polygon fill="midnightblue" stroke="midnightblue" points="723.93,-181.74 729.71,-172.86 719.65,-176.21 723.93,-181.74"/>
</g>
<!-- Node13 -->
<g id="node13" class="node">
<title>Node13</title>
<g id="a_node13"><a xlink:href="../../d9/d58/class_touchpoint.html#a1b82f162b238396efeae6b9369430a87" target="_top" xlink:title="Mark voxel grid cells occupied / unoccupied by the touchpoint geometry.">
<polygon fill="white" stroke="black" points="673,-331.3 673,-361.3 812,-361.3 812,-331.3 673,-331.3"/>
<text text-anchor="start" x="681" y="-349.3" font-family="Helvetica,sans-Serif" font-size="10.00">Touchpoint::markTouchpoint</text>
<text text-anchor="middle" x="742.5" y="-338.3" font-family="Helvetica,sans-Serif" font-size="10.00">Cells</text>
</a>
</g>
</g>
<!-- Node12&#45;&gt;Node13 -->
<g id="edge16" class="edge">
<title>Node12&#45;&gt;Node13</title>
<path fill="none" stroke="midnightblue" d="M627.64,-358.09C639.08,-356.9 651.02,-355.67 662.68,-354.46"/>
<polygon fill="midnightblue" stroke="midnightblue" points="663.24,-357.92 672.82,-353.41 662.52,-350.96 663.24,-357.92"/>
</g>
<!-- Node14 -->
<g id="node14" class="node">
<title>Node14</title>
<g id="a_node14"><a xlink:href="../../d1/d7c/namespace_utils.html#ac9b063fc04e0a4e5501c8ed0af96ac47" target="_top" xlink:title="Clamp integer value between min and max.">
<polygon fill="white" stroke="black" points="885.5,-380.8 885.5,-399.8 965.5,-399.8 965.5,-380.8 885.5,-380.8"/>
<text text-anchor="middle" x="925.5" y="-387.8" font-family="Helvetica,sans-Serif" font-size="10.00">Utils::clampInt</text>
</a>
</g>
</g>
<!-- Node13&#45;&gt;Node14 -->
<g id="edge17" class="edge">
<title>Node13&#45;&gt;Node14</title>
<path fill="none" stroke="midnightblue" d="M805.28,-361.32C828.18,-366.88 853.82,-373.12 875.43,-378.37"/>
<polygon fill="midnightblue" stroke="midnightblue" points="874.83,-381.82 885.37,-380.79 876.48,-375.02 874.83,-381.82"/>
</g>
<!-- Node15 -->
<g id="node15" class="node">
<title>Node15</title>
<g id="a_node15"><a xlink:href="../../d9/d58/class_touchpoint.html#a465057d2b000f7fc374d594fb8b80ce6" target="_top" xlink:title="Return the bounds of the touchpoint in world coordinates.">
<polygon fill="white" stroke="black" points="848,-331.3 848,-361.3 1003,-361.3 1003,-331.3 848,-331.3"/>
<text text-anchor="start" x="856" y="-349.3" font-family="Helvetica,sans-Serif" font-size="10.00">Touchpoint::getWorldCoordinate</text>
<text text-anchor="middle" x="925.5" y="-338.3" font-family="Helvetica,sans-Serif" font-size="10.00">Bounds</text>
</a>
</g>
</g>
<!-- Node13&#45;&gt;Node15 -->
<g id="edge18" class="edge">
<title>Node13&#45;&gt;Node15</title>
<path fill="none" stroke="midnightblue" d="M812.19,-346.3C820.6,-346.3 829.27,-346.3 837.9,-346.3"/>
<polygon fill="midnightblue" stroke="midnightblue" points="837.99,-349.8 847.99,-346.3 837.99,-342.8 837.99,-349.8"/>
</g>
<!-- Node16 -->
<g id="node16" class="node">
<title>Node16</title>
<g id="a_node16"><a xlink:href="../../d1/d7c/namespace_utils.html#a606fb1eb5072ca20f56293fa71bd8578" target="_top" xlink:title="Compute 1D linearized index from 3D&#45;coodinate index.">
<polygon fill="white" stroke="black" points="897.5,-292.8 897.5,-311.8 953.5,-311.8 953.5,-292.8 897.5,-292.8"/>
<text text-anchor="middle" x="925.5" y="-299.8" font-family="Helvetica,sans-Serif" font-size="10.00">Utils::idx</text>
</a>
</g>
</g>
<!-- Node13&#45;&gt;Node16 -->
<g id="edge19" class="edge">
<title>Node13&#45;&gt;Node16</title>
<path fill="none" stroke="midnightblue" d="M805.28,-331.28C832.58,-324.64 863.77,-317.06 887.4,-311.32"/>
<polygon fill="midnightblue" stroke="midnightblue" points="888.46,-314.66 897.35,-308.9 886.81,-307.86 888.46,-314.66"/>
</g>
<!-- Node18 -->
<g id="node18" class="node">
<title>Node18</title>
<g id="a_node18"><a xlink:href="../../de/d52/class_a_star.html#af8f32d428d15af1c33dc9f77929299ca" target="_top" xlink:title="Resets the 3D voxel grid to it&#39;s default values.">
<polygon fill="white" stroke="black" points="699,-251.8 699,-270.8 786,-270.8 786,-251.8 699,-251.8"/>
<text text-anchor="middle" x="742.5" y="-258.8" font-family="Helvetica,sans-Serif" font-size="10.00">AStar::resetGrid</text>
</a>
</g>
</g>
<!-- Node17&#45;&gt;Node18 -->
<g id="edge22" class="edge">
<title>Node17&#45;&gt;Node18</title>
<path fill="none" stroke="midnightblue" d="M591.66,-284.16C618.71,-280.04 657.2,-274.16 688.4,-269.4"/>
<polygon fill="midnightblue" stroke="midnightblue" points="689.32,-272.8 698.68,-267.83 688.26,-265.88 689.32,-272.8"/>
</g>
<!-- Node19 -->
<g id="node19" class="node">
<title>Node19</title>
<g id="a_node19"><a xlink:href="../../de/d52/class_a_star.html#aadbff393646adec069b3264bed4edc9f" target="_top" xlink:title="Initializes the 3D voxel grid.">
<polygon fill="white" stroke="black" points="886.5,-137.8 886.5,-156.8 964.5,-156.8 964.5,-137.8 886.5,-137.8"/>
<text text-anchor="middle" x="925.5" y="-144.8" font-family="Helvetica,sans-Serif" font-size="10.00">AStar::initGrid</text>
</a>
</g>
</g>
<!-- Node18&#45;&gt;Node19 -->
<g id="edge23" class="edge">
<title>Node18&#45;&gt;Node19</title>
<path fill="none" stroke="midnightblue" d="M758.62,-251.77C790.03,-231.99 862.56,-186.31 900.45,-162.44"/>
<polygon fill="midnightblue" stroke="midnightblue" points="902.7,-165.17 909.3,-156.87 898.97,-159.24 902.7,-165.17"/>
</g>
<!-- Node20 -->
<g id="node20" class="node">
<title>Node20</title>
<g id="a_node20"><a xlink:href="../../de/d52/class_a_star.html#abc66e4863cf4c15f616098e60469e50b" target="_top" xlink:title="Compute 1D linearized index from 3D&#45;coodinate index.">
<polygon fill="white" stroke="black" points="1039,-137.8 1039,-156.8 1099,-156.8 1099,-137.8 1039,-137.8"/>
<text text-anchor="middle" x="1069" y="-144.8" font-family="Helvetica,sans-Serif" font-size="10.00">AStar::idx</text>
</a>
</g>
</g>
<!-- Node19&#45;&gt;Node20 -->
<g id="edge24" class="edge">
<title>Node19&#45;&gt;Node20</title>
<path fill="none" stroke="midnightblue" d="M964.79,-147.3C984.59,-147.3 1008.71,-147.3 1028.65,-147.3"/>
<polygon fill="midnightblue" stroke="midnightblue" points="1028.66,-150.8 1038.66,-147.3 1028.66,-143.8 1028.66,-150.8"/>
</g>
<!-- Node22&#45;&gt;Node13 -->
<g id="edge27" class="edge">
<title>Node22&#45;&gt;Node13</title>
<path fill="none" stroke="midnightblue" d="M633.17,-335.08C642.94,-336.09 652.97,-337.13 662.79,-338.15"/>
<polygon fill="midnightblue" stroke="midnightblue" points="662.63,-341.65 672.94,-339.2 663.35,-334.69 662.63,-341.65"/>
</g>
<!-- Node23&#45;&gt;Node11 -->
<g id="edge29" class="edge">
<title>Node23&#45;&gt;Node11</title>
<path fill="none" stroke="midnightblue" d="M393.99,-20.92C426.75,-34.34 486.28,-58.73 523.34,-73.92"/>
<polygon fill="midnightblue" stroke="midnightblue" points="522.12,-77.2 532.7,-77.75 524.77,-70.72 522.12,-77.2"/>
</g>
<!-- Node23&#45;&gt;Node19 -->
<g id="edge30" class="edge">
<title>Node23&#45;&gt;Node19</title>
<path fill="none" stroke="midnightblue" d="M399.71,-11.26C449.21,-11.79 552.43,-15.44 637,-35.3 735.96,-58.54 846.19,-108.87 896.6,-133.35"/>
<polygon fill="midnightblue" stroke="midnightblue" points="895.06,-136.5 905.58,-137.75 898.14,-130.21 895.06,-136.5"/>
</g>
</g>
</svg>
