<?xml version="1.0" encoding="UTF-8" standalone="no"?>
<!DOCTYPE svg PUBLIC "-//W3C//DTD SVG 1.1//EN"
 "http://www.w3.org/Graphics/SVG/1.1/DTD/svg11.dtd">
<!-- Generated by graphviz version 2.44.0 (0)
 -->
<!-- Title: GreatDelugeOptimizer::greatDeluge Pages: 1 -->
<svg width="831pt" height="306pt"
 viewBox="0.00 0.00 831.00 306.00" xmlns="http://www.w3.org/2000/svg" xmlns:xlink="http://www.w3.org/1999/xlink">
<g id="graph0" class="graph" transform="scale(1 1) rotate(0) translate(4 302)">
<title>GreatDelugeOptimizer::greatDeluge</title>
<polygon fill="white" stroke="transparent" points="-4,4 -4,-302 827,-302 827,4 -4,4"/>
<!-- Node1 -->
<g id="node1" class="node">
<title>Node1</title>
<g id="a_node1"><a xlink:title="Run the great deluge algorithm.">
<polygon fill="#bfbfbf" stroke="black" points="0,-131 0,-161 113,-161 113,-131 0,-131"/>
<text text-anchor="start" x="8" y="-149" font-family="Helvetica,sans-Serif" font-size="10.00">GreatDelugeOptimizer</text>
<text text-anchor="middle" x="56.5" y="-138" font-family="Helvetica,sans-Serif" font-size="10.00">::greatDeluge</text>
</a>
</g>
</g>
<!-- Node2 -->
<g id="node2" class="node">
<title>Node2</title>
<g id="a_node2"><a xlink:href="../../d9/d02/class_optimizer.html#a4f2470e3a7450a12d4daa5df86d50ce8" target="_top" xlink:title="computes the total wire length of a wiring">
<polygon fill="white" stroke="black" points="149,-131 149,-161 292,-161 292,-131 149,-131"/>
<text text-anchor="start" x="157" y="-149" font-family="Helvetica,sans-Serif" font-size="10.00">Optimizer::computeTotalWire</text>
<text text-anchor="middle" x="220.5" y="-138" font-family="Helvetica,sans-Serif" font-size="10.00">Distance</text>
</a>
</g>
</g>
<!-- Node1&#45;&gt;Node2 -->
<g id="edge1" class="edge">
<title>Node1&#45;&gt;Node2</title>
<path fill="none" stroke="midnightblue" d="M113.25,-146C121.47,-146 130.08,-146 138.69,-146"/>
<polygon fill="midnightblue" stroke="midnightblue" points="138.77,-149.5 148.77,-146 138.77,-142.5 138.77,-149.5"/>
</g>
<!-- Node3 -->
<g id="node3" class="node">
<title>Node3</title>
<g id="a_node3"><a xlink:href="../../de/d52/class_a_star.html#a29f560899446dc99d6f157e4997650d7" target="_top" xlink:title="Unmark all paths.">
<polygon fill="white" stroke="black" points="355.5,-278.5 355.5,-297.5 460.5,-297.5 460.5,-278.5 355.5,-278.5"/>
<text text-anchor="middle" x="408" y="-285.5" font-family="Helvetica,sans-Serif" font-size="10.00">AStar::clearAllPaths</text>
</a>
</g>
</g>
<!-- Node2&#45;&gt;Node3 -->
<g id="edge2" class="edge">
<title>Node2&#45;&gt;Node3</title>
<path fill="none" stroke="midnightblue" d="M231.05,-161.07C247.69,-186.12 284.44,-236.34 328,-264 334.97,-268.42 342.8,-272.07 350.75,-275.07"/>
<polygon fill="midnightblue" stroke="midnightblue" points="349.87,-278.47 360.46,-278.41 352.15,-271.85 349.87,-278.47"/>
</g>
<!-- Node4 -->
<g id="node4" class="node">
<title>Node4</title>
<g id="a_node4"><a xlink:href="../../de/d52/class_a_star.html#aa76c29f42861c4f6fc7c328e4dbc7d83" target="_top" xlink:title="Mark a path as locked so that it can not be used by another search.">
<polygon fill="white" stroke="black" points="524,-259.5 524,-278.5 613,-278.5 613,-259.5 524,-259.5"/>
<text text-anchor="middle" x="568.5" y="-266.5" font-family="Helvetica,sans-Serif" font-size="10.00">AStar::markPath</text>
</a>
</g>
</g>
<!-- Node2&#45;&gt;Node4 -->
<g id="edge8" class="edge">
<title>Node2&#45;&gt;Node4</title>
<path fill="none" stroke="midnightblue" d="M235.36,-161.13C254.26,-180.71 290.12,-214.29 328,-231 387.87,-257.41 463.34,-265.76 513.39,-268.24"/>
<polygon fill="midnightblue" stroke="midnightblue" points="513.52,-271.75 523.66,-268.69 513.83,-264.76 513.52,-271.75"/>
</g>
<!-- Node5 -->
<g id="node5" class="node">
<title>Node5</title>
<g id="a_node5"><a xlink:href="../../d6/db5/class_scene.html#a64cb0dcdcb57a45fe485fb3489c112c4" target="_top" xlink:title="Return if the 26&#45;neighborhood voxels of a connection path are locked too.">
<polygon fill="white" stroke="black" points="331.5,-202.5 331.5,-221.5 484.5,-221.5 484.5,-202.5 331.5,-202.5"/>
<text text-anchor="middle" x="408" y="-209.5" font-family="Helvetica,sans-Serif" font-size="10.00">Scene::getLockNeighborVoxels</text>
</a>
</g>
</g>
<!-- Node2&#45;&gt;Node5 -->
<g id="edge4" class="edge">
<title>Node2&#45;&gt;Node5</title>
<path fill="none" stroke="midnightblue" d="M251.68,-161.06C272.69,-171.11 301.58,-184.07 328,-193 335.42,-195.51 343.34,-197.82 351.2,-199.91"/>
<polygon fill="midnightblue" stroke="midnightblue" points="350.51,-203.35 361.07,-202.43 352.24,-196.56 350.51,-203.35"/>
</g>
<!-- Node6 -->
<g id="node6" class="node">
<title>Node6</title>
<g id="a_node6"><a xlink:href="../../d6/db5/class_scene.html#abe8f9d18527a1fea362460cdc53cb5eb" target="_top" xlink:title="Return the bounds of the mesh in scene coordinates.">
<polygon fill="white" stroke="black" points="328,-153 328,-183 488,-183 488,-153 328,-153"/>
<text text-anchor="start" x="336" y="-171" font-family="Helvetica,sans-Serif" font-size="10.00">Scene::getMeshWorldCoordinate</text>
<text text-anchor="middle" x="408" y="-160" font-family="Helvetica,sans-Serif" font-size="10.00">Bounds</text>
</a>
</g>
</g>
<!-- Node2&#45;&gt;Node6 -->
<g id="edge5" class="edge">
<title>Node2&#45;&gt;Node6</title>
<path fill="none" stroke="midnightblue" d="M292.16,-154.38C300.55,-155.37 309.19,-156.4 317.8,-157.42"/>
<polygon fill="midnightblue" stroke="midnightblue" points="317.52,-160.91 327.86,-158.61 318.34,-153.96 317.52,-160.91"/>
</g>
<!-- Node7 -->
<g id="node7" class="node">
<title>Node7</title>
<g id="a_node7"><a xlink:href="../../d6/db5/class_scene.html#a5c26ef724365bd55c471acc673d60674" target="_top" xlink:title="Return the touchpoint registry of the scene.">
<polygon fill="white" stroke="black" points="334,-114.5 334,-133.5 482,-133.5 482,-114.5 334,-114.5"/>
<text text-anchor="middle" x="408" y="-121.5" font-family="Helvetica,sans-Serif" font-size="10.00">Scene::getTouchpointRegistry</text>
</a>
</g>
</g>
<!-- Node2&#45;&gt;Node7 -->
<g id="edge6" class="edge">
<title>Node2&#45;&gt;Node7</title>
<path fill="none" stroke="midnightblue" d="M292.16,-137.62C302.48,-136.4 313.19,-135.13 323.73,-133.88"/>
<polygon fill="midnightblue" stroke="midnightblue" points="324.25,-137.34 333.77,-132.69 323.42,-130.39 324.25,-137.34"/>
</g>
<!-- Node8 -->
<g id="node8" class="node">
<title>Node8</title>
<g id="a_node8"><a xlink:href="../../d6/db5/class_scene.html#a7e5ee53ea01ef113afaaf4b7c10accf3" target="_top" xlink:title="Return the voxel grid image data.">
<polygon fill="white" stroke="black" points="353.5,-76.5 353.5,-95.5 462.5,-95.5 462.5,-76.5 353.5,-76.5"/>
<text text-anchor="middle" x="408" y="-83.5" font-family="Helvetica,sans-Serif" font-size="10.00">Scene::getVoxelData</text>
</a>
</g>
</g>
<!-- Node2&#45;&gt;Node8 -->
<g id="edge7" class="edge">
<title>Node2&#45;&gt;Node8</title>
<path fill="none" stroke="midnightblue" d="M257.07,-130.96C277.58,-122.63 303.98,-112.48 328,-105 336.04,-102.5 344.62,-100.13 353.05,-97.97"/>
<polygon fill="midnightblue" stroke="midnightblue" points="353.98,-101.35 362.84,-95.54 352.29,-94.55 353.98,-101.35"/>
</g>
<!-- Node9 -->
<g id="node9" class="node">
<title>Node9</title>
<g id="a_node9"><a xlink:href="../../de/d52/class_a_star.html#a67f440fb4e77fad8d273ef848e9703c1" target="_top" xlink:title="Reset grid.">
<polygon fill="white" stroke="black" points="373.5,-38.5 373.5,-57.5 442.5,-57.5 442.5,-38.5 373.5,-38.5"/>
<text text-anchor="middle" x="408" y="-45.5" font-family="Helvetica,sans-Serif" font-size="10.00">AStar::reset</text>
</a>
</g>
</g>
<!-- Node2&#45;&gt;Node9 -->
<g id="edge9" class="edge">
<title>Node2&#45;&gt;Node9</title>
<path fill="none" stroke="midnightblue" d="M237.48,-130.85C257.21,-112.97 292.54,-83.57 328,-67 338.97,-61.87 351.47,-58.05 363.24,-55.23"/>
<polygon fill="midnightblue" stroke="midnightblue" points="364.32,-58.57 373.33,-53 362.81,-51.74 364.32,-58.57"/>
</g>
<!-- Node13 -->
<g id="node13" class="node">
<title>Node13</title>
<g id="a_node13"><a xlink:href="../../de/d52/class_a_star.html#a0d1fd50821c4cd7bbd8a87bd9fcf5dd3" target="_top" xlink:title="Search a path in the voxelgrid using the A* algorithm with the preset heuristic.">
<polygon fill="white" stroke="black" points="359.5,-0.5 359.5,-19.5 456.5,-19.5 456.5,-0.5 359.5,-0.5"/>
<text text-anchor="middle" x="408" y="-7.5" font-family="Helvetica,sans-Serif" font-size="10.00">AStar::searchPath</text>
</a>
</g>
</g>
<!-- Node2&#45;&gt;Node13 -->
<g id="edge13" class="edge">
<title>Node2&#45;&gt;Node13</title>
<path fill="none" stroke="midnightblue" d="M230.91,-130.78C247.34,-105.53 283.79,-55.15 328,-29 334.66,-25.06 342.09,-21.94 349.66,-19.46"/>
<polygon fill="midnightblue" stroke="midnightblue" points="350.65,-22.82 359.27,-16.66 348.69,-16.1 350.65,-22.82"/>
</g>
<!-- Node3&#45;&gt;Node4 -->
<g id="edge3" class="edge">
<title>Node3&#45;&gt;Node4</title>
<path fill="none" stroke="midnightblue" d="M460.9,-281.78C477.8,-279.75 496.58,-277.5 513.62,-275.46"/>
<polygon fill="midnightblue" stroke="midnightblue" points="514.46,-278.88 523.97,-274.22 513.63,-271.93 514.46,-278.88"/>
</g>
<!-- Node10 -->
<g id="node10" class="node">
<title>Node10</title>
<g id="a_node10"><a xlink:href="../../de/d52/class_a_star.html#af8f32d428d15af1c33dc9f77929299ca" target="_top" xlink:title=" ">
<polygon fill="white" stroke="black" points="525,-38.5 525,-57.5 612,-57.5 612,-38.5 525,-38.5"/>
<text text-anchor="middle" x="568.5" y="-45.5" font-family="Helvetica,sans-Serif" font-size="10.00">AStar::resetGrid</text>
</a>
</g>
</g>
<!-- Node9&#45;&gt;Node10 -->
<g id="edge10" class="edge">
<title>Node9&#45;&gt;Node10</title>
<path fill="none" stroke="midnightblue" d="M442.61,-48C463.51,-48 490.83,-48 514.59,-48"/>
<polygon fill="midnightblue" stroke="midnightblue" points="514.87,-51.5 524.87,-48 514.87,-44.5 514.87,-51.5"/>
</g>
<!-- Node11 -->
<g id="node11" class="node">
<title>Node11</title>
<g id="a_node11"><a xlink:href="../../de/d52/class_a_star.html#aadbff393646adec069b3264bed4edc9f" target="_top" xlink:title=" ">
<polygon fill="white" stroke="black" points="649,-38.5 649,-57.5 727,-57.5 727,-38.5 649,-38.5"/>
<text text-anchor="middle" x="688" y="-45.5" font-family="Helvetica,sans-Serif" font-size="10.00">AStar::initGrid</text>
</a>
</g>
</g>
<!-- Node10&#45;&gt;Node11 -->
<g id="edge11" class="edge">
<title>Node10&#45;&gt;Node11</title>
<path fill="none" stroke="midnightblue" d="M612.25,-48C620.84,-48 629.91,-48 638.67,-48"/>
<polygon fill="midnightblue" stroke="midnightblue" points="638.76,-51.5 648.76,-48 638.76,-44.5 638.76,-51.5"/>
</g>
<!-- Node12 -->
<g id="node12" class="node">
<title>Node12</title>
<g id="a_node12"><a xlink:href="../../de/d52/class_a_star.html#abc66e4863cf4c15f616098e60469e50b" target="_top" xlink:title="Compute 1D linearized index from 3D&#45;coodinate index.">
<polygon fill="white" stroke="black" points="763,-38.5 763,-57.5 823,-57.5 823,-38.5 763,-38.5"/>
<text text-anchor="middle" x="793" y="-45.5" font-family="Helvetica,sans-Serif" font-size="10.00">AStar::idx</text>
</a>
</g>
</g>
<!-- Node11&#45;&gt;Node12 -->
<g id="edge12" class="edge">
<title>Node11&#45;&gt;Node12</title>
<path fill="none" stroke="midnightblue" d="M727.06,-48C735.36,-48 744.16,-48 752.52,-48"/>
<polygon fill="midnightblue" stroke="midnightblue" points="752.79,-51.5 762.79,-48 752.79,-44.5 752.79,-51.5"/>
</g>
</g>
</svg>
