<?xml version="1.0" encoding="UTF-8" standalone="no"?>
<!DOCTYPE svg PUBLIC "-//W3C//DTD SVG 1.1//EN"
 "http://www.w3.org/Graphics/SVG/1.1/DTD/svg11.dtd">
<!-- Generated by graphviz version 2.44.1 (0)
 -->
<!-- Title: MainWindow::updateView Pages: 1 -->
<svg width="1119pt" height="1268pt"
 viewBox="0.00 0.00 1119.00 1267.60" xmlns="http://www.w3.org/2000/svg" xmlns:xlink="http://www.w3.org/1999/xlink">
<g id="graph0" class="graph" transform="scale(1 1) rotate(0) translate(4 1263.6)">
<title>MainWindow::updateView</title>
<polygon fill="white" stroke="transparent" points="-4,4 -4,-1263.6 1115,-1263.6 1115,4 -4,4"/>
<!-- Node1 -->
<g id="node1" class="node">
<title>Node1</title>
<g id="a_node1"><a xlink:title="Refresh the screen after changes to the scene.">
<polygon fill="#bfbfbf" stroke="black" points="981,-506.5 981,-525.5 1111,-525.5 1111,-506.5 981,-506.5"/>
<text text-anchor="middle" x="1046" y="-513.5" font-family="Helvetica,sans-Serif" font-size="10.00">MainWindow::updateView</text>
</a>
</g>
</g>
<!-- Node2 -->
<g id="node2" class="node">
<title>Node2</title>
<g id="a_node2"><a xlink:href="../../d9/dc6/class_main_window.html#a996c5a2b6f77944776856f08ec30858d" target="_top" xlink:title=" ">
<polygon fill="white" stroke="black" points="0,-911.5 0,-930.5 135,-930.5 135,-911.5 0,-911.5"/>
<text text-anchor="middle" x="67.5" y="-918.5" font-family="Helvetica,sans-Serif" font-size="10.00">MainWindow::MainWindow</text>
</a>
</g>
</g>
<!-- Node1&#45;&gt;Node2 -->
<g id="edge1" class="edge">
<title>Node1&#45;&gt;Node2</title>
<path fill="none" stroke="midnightblue" d="M1044.07,-535.79C1037.41,-653.74 986.74,-1259 649,-1259 649,-1259 649,-1259 435,-1259 392.81,-1259 378.36,-1261.39 342,-1240 200.84,-1156.95 96.93,-974.24 73.49,-930.53"/>
<polygon fill="midnightblue" stroke="midnightblue" points="1047.58,-535.84 1044.6,-525.67 1040.58,-535.47 1047.58,-535.84"/>
</g>
<!-- Node3 -->
<g id="node3" class="node">
<title>Node3</title>
<g id="a_node3"><a xlink:href="../../d9/dc6/class_main_window.html#a37afa0d4419a56879d650a1400b42306" target="_top" xlink:title=" ">
<polygon fill="white" stroke="black" points="791,-920.5 791,-939.5 920,-939.5 920,-920.5 791,-920.5"/>
<text text-anchor="middle" x="855.5" y="-927.5" font-family="Helvetica,sans-Serif" font-size="10.00">MainWindow::slot3DView</text>
</a>
</g>
</g>
<!-- Node1&#45;&gt;Node3 -->
<g id="edge2" class="edge">
<title>Node1&#45;&gt;Node3</title>
<path fill="none" stroke="midnightblue" d="M1042.4,-535.96C1032.73,-607.17 996.78,-847.4 945,-902 937.02,-910.42 926.52,-916.32 915.56,-920.45"/>
<polygon fill="midnightblue" stroke="midnightblue" points="1045.91,-536.07 1043.76,-525.7 1038.97,-535.15 1045.91,-536.07"/>
</g>
<!-- Node13 -->
<g id="node13" class="node">
<title>Node13</title>
<g id="a_node13"><a xlink:href="../../d9/dc6/class_main_window.html#ab06d9b8a89cdc696fb9c7d15f9783f7c" target="_top" xlink:title=" ">
<polygon fill="white" stroke="black" points="578.5,-882.5 578.5,-901.5 717.5,-901.5 717.5,-882.5 578.5,-882.5"/>
<text text-anchor="middle" x="648" y="-889.5" font-family="Helvetica,sans-Serif" font-size="10.00">MainWindow::slotFrontView</text>
</a>
</g>
</g>
<!-- Node1&#45;&gt;Node13 -->
<g id="edge20" class="edge">
<title>Node1&#45;&gt;Node13</title>
<path fill="none" stroke="midnightblue" d="M1045.56,-535.9C1046,-593.4 1038.82,-760.87 945,-843 882.78,-897.46 783.9,-903.22 717.76,-899.74"/>
<polygon fill="midnightblue" stroke="midnightblue" points="1049.06,-535.59 1045.39,-525.65 1042.06,-535.71 1049.06,-535.59"/>
</g>
<!-- Node14 -->
<g id="node14" class="node">
<title>Node14</title>
<g id="a_node14"><a xlink:href="../../d9/dc6/class_main_window.html#afb6cad5f1a350fb3b9c1c7be2a4a3848" target="_top" xlink:title=" ">
<polygon fill="white" stroke="black" points="582.5,-833 582.5,-863 713.5,-863 713.5,-833 582.5,-833"/>
<text text-anchor="start" x="590.5" y="-851" font-family="Helvetica,sans-Serif" font-size="10.00">MainWindow::slotGradient</text>
<text text-anchor="middle" x="648" y="-840" font-family="Helvetica,sans-Serif" font-size="10.00">ColorBackground</text>
</a>
</g>
</g>
<!-- Node1&#45;&gt;Node14 -->
<g id="edge22" class="edge">
<title>Node1&#45;&gt;Node14</title>
<path fill="none" stroke="midnightblue" d="M1044.6,-535.88C1042.4,-588.54 1028.62,-732.38 945,-802 880.35,-855.82 779.23,-860 713.53,-855.77"/>
<polygon fill="midnightblue" stroke="midnightblue" points="1048.11,-535.67 1044.93,-525.56 1041.12,-535.45 1048.11,-535.67"/>
</g>
<!-- Node15 -->
<g id="node15" class="node">
<title>Node15</title>
<g id="a_node15"><a xlink:href="../../d9/dc6/class_main_window.html#a8444fce92a157070db5c87d9dcef4cd8" target="_top" xlink:title=" ">
<polygon fill="white" stroke="black" points="572,-794.5 572,-813.5 724,-813.5 724,-794.5 572,-794.5"/>
<text text-anchor="middle" x="648" y="-801.5" font-family="Helvetica,sans-Serif" font-size="10.00">MainWindow::slotLeftSideView</text>
</a>
</g>
</g>
<!-- Node1&#45;&gt;Node15 -->
<g id="edge24" class="edge">
<title>Node1&#45;&gt;Node15</title>
<path fill="none" stroke="midnightblue" d="M1043.46,-535.78C1038.6,-583.5 1019.17,-705.21 945,-763 882.49,-811.7 789.19,-816.88 724.1,-813.14"/>
<polygon fill="midnightblue" stroke="midnightblue" points="1046.97,-535.84 1044.39,-525.57 1040,-535.21 1046.97,-535.84"/>
</g>
<!-- Node16 -->
<g id="node16" class="node">
<title>Node16</title>
<g id="a_node16"><a xlink:href="../../d9/dc6/class_main_window.html#a0b247f0cacc1bc7829d64672d0b6d698" target="_top" xlink:title=" ">
<polygon fill="white" stroke="black" points="568.5,-756.5 568.5,-775.5 727.5,-775.5 727.5,-756.5 568.5,-756.5"/>
<text text-anchor="middle" x="648" y="-763.5" font-family="Helvetica,sans-Serif" font-size="10.00">MainWindow::slotRightSideView</text>
</a>
</g>
</g>
<!-- Node1&#45;&gt;Node16 -->
<g id="edge26" class="edge">
<title>Node1&#45;&gt;Node16</title>
<path fill="none" stroke="midnightblue" d="M1041.86,-535.91C1034.03,-578.4 1009.4,-677.94 945,-725 882.38,-770.76 791.95,-777.06 727.55,-774.38"/>
<polygon fill="midnightblue" stroke="midnightblue" points="1045.33,-536.41 1043.58,-525.96 1038.43,-535.22 1045.33,-536.41"/>
</g>
<!-- Node17 -->
<g id="node17" class="node">
<title>Node17</title>
<g id="a_node17"><a xlink:href="../../d9/dc6/class_main_window.html#a84664f5d02e60771787cbf3c1d9453ea" target="_top" xlink:title=" ">
<polygon fill="white" stroke="black" points="787.5,-696.5 787.5,-715.5 923.5,-715.5 923.5,-696.5 787.5,-696.5"/>
<text text-anchor="middle" x="855.5" y="-703.5" font-family="Helvetica,sans-Serif" font-size="10.00">MainWindow::slotShowFlat</text>
</a>
</g>
</g>
<!-- Node1&#45;&gt;Node17 -->
<g id="edge28" class="edge">
<title>Node1&#45;&gt;Node17</title>
<path fill="none" stroke="midnightblue" d="M1038.74,-535.51C1026.52,-570.4 996.12,-643.4 945,-682 936.61,-688.33 926.67,-692.99 916.53,-696.43"/>
<polygon fill="midnightblue" stroke="midnightblue" points="1042.19,-536.21 1042.07,-525.62 1035.56,-533.98 1042.19,-536.21"/>
</g>
<!-- Node18 -->
<g id="node18" class="node">
<title>Node18</title>
<g id="a_node18"><a xlink:href="../../d9/dc6/class_main_window.html#a68ba266448b84b3dd2231f88a14a7767" target="_top" xlink:title=" ">
<polygon fill="white" stroke="black" points="566,-680.5 566,-699.5 730,-699.5 730,-680.5 566,-680.5"/>
<text text-anchor="middle" x="648" y="-687.5" font-family="Helvetica,sans-Serif" font-size="10.00">MainWindow::slotShowWireframe</text>
</a>
</g>
</g>
<!-- Node1&#45;&gt;Node18 -->
<g id="edge50" class="edge">
<title>Node1&#45;&gt;Node18</title>
<path fill="none" stroke="midnightblue" d="M1032.56,-533.79C1015.51,-556.82 982.65,-596.52 945,-618 878.39,-656 792.28,-674.06 730.12,-682.56"/>
<polygon fill="midnightblue" stroke="midnightblue" points="1035.47,-535.74 1038.49,-525.59 1029.8,-531.64 1035.47,-535.74"/>
</g>
<!-- Node19 -->
<g id="node19" class="node">
<title>Node19</title>
<g id="a_node19"><a xlink:href="../../d9/dc6/class_main_window.html#a4a4289cc0b24521dd37ad478de08e039" target="_top" xlink:title=" ">
<polygon fill="white" stroke="black" points="577.5,-631 577.5,-661 718.5,-661 718.5,-631 577.5,-631"/>
<text text-anchor="start" x="585.5" y="-649" font-family="Helvetica,sans-Serif" font-size="10.00">MainWindow::slotShowInner</text>
<text text-anchor="middle" x="648" y="-638" font-family="Helvetica,sans-Serif" font-size="10.00">AndOuterVoxels</text>
</a>
</g>
</g>
<!-- Node1&#45;&gt;Node19 -->
<g id="edge32" class="edge">
<title>Node1&#45;&gt;Node19</title>
<path fill="none" stroke="midnightblue" d="M1025.09,-531.74C1005.7,-546.32 974.87,-567.57 945,-580 870.87,-610.85 780.02,-628.37 718.68,-637.49"/>
<polygon fill="midnightblue" stroke="midnightblue" points="1027.34,-534.43 1033.15,-525.57 1023.08,-528.87 1027.34,-534.43"/>
</g>
<!-- Node20 -->
<g id="node20" class="node">
<title>Node20</title>
<g id="a_node20"><a xlink:href="../../d9/dc6/class_main_window.html#a64c848c1914e23b0436ee3cb29c6e385" target="_top" xlink:title=" ">
<polygon fill="white" stroke="black" points="573.5,-582 573.5,-612 722.5,-612 722.5,-582 573.5,-582"/>
<text text-anchor="start" x="581.5" y="-600" font-family="Helvetica,sans-Serif" font-size="10.00">MainWindow::slotShowInterior</text>
<text text-anchor="middle" x="648" y="-589" font-family="Helvetica,sans-Serif" font-size="10.00">Voxels</text>
</a>
</g>
</g>
<!-- Node1&#45;&gt;Node20 -->
<g id="edge34" class="edge">
<title>Node1&#45;&gt;Node20</title>
<path fill="none" stroke="midnightblue" d="M1011.19,-529.1C992.02,-536.12 967.43,-544.45 945,-550 870.25,-568.5 783,-581.32 722.68,-588.84"/>
<polygon fill="midnightblue" stroke="midnightblue" points="1012.54,-532.33 1020.69,-525.57 1010.1,-525.77 1012.54,-532.33"/>
</g>
<!-- Node21 -->
<g id="node21" class="node">
<title>Node21</title>
<g id="a_node21"><a xlink:href="../../d9/dc6/class_main_window.html#ab10a8a5d9d430380389aa0a2c75ae2a8" target="_top" xlink:title=" ">
<polygon fill="white" stroke="black" points="573.5,-533 573.5,-563 722.5,-563 722.5,-533 573.5,-533"/>
<text text-anchor="start" x="581.5" y="-551" font-family="Helvetica,sans-Serif" font-size="10.00">MainWindow::slotShowInterior</text>
<text text-anchor="middle" x="648" y="-540" font-family="Helvetica,sans-Serif" font-size="10.00">VoxelsOnly</text>
</a>
</g>
</g>
<!-- Node1&#45;&gt;Node21 -->
<g id="edge36" class="edge">
<title>Node1&#45;&gt;Node21</title>
<path fill="none" stroke="midnightblue" d="M972.46,-526.84C963.23,-528.01 953.9,-529.11 945,-530 869.44,-537.57 782.69,-542.4 722.72,-545.12"/>
<polygon fill="midnightblue" stroke="midnightblue" points="972.95,-530.3 982.41,-525.53 972.04,-523.36 972.95,-530.3"/>
</g>
<!-- Node22 -->
<g id="node22" class="node">
<title>Node22</title>
<g id="a_node22"><a xlink:href="../../d9/dc6/class_main_window.html#a12560973873fda9a7c81cd125b85a93a" target="_top" xlink:title=" ">
<polygon fill="white" stroke="black" points="342,-497.5 342,-516.5 530,-516.5 530,-497.5 342,-497.5"/>
<text text-anchor="middle" x="436" y="-504.5" font-family="Helvetica,sans-Serif" font-size="10.00">MainWindow::slotShowOccupationMap</text>
</a>
</g>
</g>
<!-- Node1&#45;&gt;Node22 -->
<g id="edge38" class="edge">
<title>Node1&#45;&gt;Node22</title>
<path fill="none" stroke="midnightblue" d="M970.7,-514.9C859.77,-513.26 650.99,-510.17 530.05,-508.38"/>
<polygon fill="midnightblue" stroke="midnightblue" points="970.75,-518.4 980.8,-515.05 970.85,-511.4 970.75,-518.4"/>
</g>
<!-- Node23 -->
<g id="node23" class="node">
<title>Node23</title>
<g id="a_node23"><a xlink:href="../../d9/dc6/class_main_window.html#a37596bd6a2831e262357da256e67a5be" target="_top" xlink:title=" ">
<polygon fill="white" stroke="black" points="772,-457 772,-487 939,-487 939,-457 772,-457"/>
<text text-anchor="start" x="780" y="-475" font-family="Helvetica,sans-Serif" font-size="10.00">MainWindow::slotShowOrientation</text>
<text text-anchor="middle" x="855.5" y="-464" font-family="Helvetica,sans-Serif" font-size="10.00">Marker</text>
</a>
</g>
</g>
<!-- Node1&#45;&gt;Node23 -->
<g id="edge40" class="edge">
<title>Node1&#45;&gt;Node23</title>
<path fill="none" stroke="midnightblue" d="M994.09,-504.12C971.6,-498.87 944.91,-492.64 921.04,-487.07"/>
<polygon fill="midnightblue" stroke="midnightblue" points="993.56,-507.59 1004.1,-506.45 995.16,-500.77 993.56,-507.59"/>
</g>
<!-- Node24 -->
<g id="node24" class="node">
<title>Node24</title>
<g id="a_node24"><a xlink:href="../../d9/dc6/class_main_window.html#a5c3e52c925be5563e81a6a39a39538f6" target="_top" xlink:title=" ">
<polygon fill="white" stroke="black" points="782,-418.5 782,-437.5 929,-437.5 929,-418.5 782,-418.5"/>
<text text-anchor="middle" x="855.5" y="-425.5" font-family="Helvetica,sans-Serif" font-size="10.00">MainWindow::slotShowPoints</text>
</a>
</g>
</g>
<!-- Node1&#45;&gt;Node24 -->
<g id="edge42" class="edge">
<title>Node1&#45;&gt;Node24</title>
<path fill="none" stroke="midnightblue" d="M1025.89,-499.75C1006.66,-484.22 975.56,-461.27 945,-448 935.18,-443.73 924.33,-440.32 913.69,-437.61"/>
<polygon fill="midnightblue" stroke="midnightblue" points="1023.9,-502.64 1033.84,-506.3 1028.35,-497.24 1023.9,-502.64"/>
</g>
<!-- Node25 -->
<g id="node25" class="node">
<title>Node25</title>
<g id="a_node25"><a xlink:href="../../d9/dc6/class_main_window.html#aa8479deb91ad743cd3804e8dec1d663f" target="_top" xlink:title=" ">
<polygon fill="white" stroke="black" points="779,-380.5 779,-399.5 932,-399.5 932,-380.5 779,-380.5"/>
<text text-anchor="middle" x="855.5" y="-387.5" font-family="Helvetica,sans-Serif" font-size="10.00">MainWindow::slotShowSmooth</text>
</a>
</g>
</g>
<!-- Node1&#45;&gt;Node25 -->
<g id="edge44" class="edge">
<title>Node1&#45;&gt;Node25</title>
<path fill="none" stroke="midnightblue" d="M1033.37,-497.88C1016.81,-473.63 984.06,-431.12 945,-409 938.16,-405.13 930.62,-402.04 922.91,-399.59"/>
<polygon fill="midnightblue" stroke="midnightblue" points="1030.64,-500.09 1039.09,-506.48 1036.47,-496.21 1030.64,-500.09"/>
</g>
<!-- Node26 -->
<g id="node26" class="node">
<title>Node26</title>
<g id="a_node26"><a xlink:href="../../d9/dc6/class_main_window.html#a40f78bd28f424f3c1300f015c30f2d0c" target="_top" xlink:title=" ">
<polygon fill="white" stroke="black" points="776,-342.5 776,-361.5 935,-361.5 935,-342.5 776,-342.5"/>
<text text-anchor="middle" x="855.5" y="-349.5" font-family="Helvetica,sans-Serif" font-size="10.00">MainWindow::slotShowVoxelgrid</text>
</a>
</g>
</g>
<!-- Node1&#45;&gt;Node26 -->
<g id="edge46" class="edge">
<title>Node1&#45;&gt;Node26</title>
<path fill="none" stroke="midnightblue" d="M1037.46,-496.94C1023.94,-465.42 992.51,-402.76 945,-371 939.25,-367.16 932.86,-364.07 926.23,-361.6"/>
<polygon fill="midnightblue" stroke="midnightblue" points="1034.29,-498.45 1041.35,-506.35 1040.76,-495.77 1034.29,-498.45"/>
</g>
<!-- Node27 -->
<g id="node27" class="node">
<title>Node27</title>
<g id="a_node27"><a xlink:href="../../d9/dc6/class_main_window.html#ab09b7d86c54a8b3d1b8c955429691cc4" target="_top" xlink:title=" ">
<polygon fill="white" stroke="black" points="776,-293 776,-323 935,-323 935,-293 776,-293"/>
<text text-anchor="start" x="784" y="-311" font-family="Helvetica,sans-Serif" font-size="10.00">MainWindow::slotShowVoxelgrid</text>
<text text-anchor="middle" x="855.5" y="-300" font-family="Helvetica,sans-Serif" font-size="10.00">WireframeOverlay</text>
</a>
</g>
</g>
<!-- Node1&#45;&gt;Node27 -->
<g id="edge48" class="edge">
<title>Node1&#45;&gt;Node27</title>
<path fill="none" stroke="midnightblue" d="M1039.89,-496.62C1028.99,-459.18 999.88,-376.75 945,-333 940.13,-329.12 934.69,-325.84 928.97,-323.07"/>
<polygon fill="midnightblue" stroke="midnightblue" points="1036.53,-497.62 1042.59,-506.31 1043.27,-495.74 1036.53,-497.62"/>
</g>
<!-- Node28 -->
<g id="node28" class="node">
<title>Node28</title>
<g id="a_node28"><a xlink:href="../../d9/dc6/class_main_window.html#ac31dba57d9d9c648c7851d96b744ec5f" target="_top" xlink:title=" ">
<polygon fill="white" stroke="black" points="579,-254.5 579,-273.5 717,-273.5 717,-254.5 579,-254.5"/>
<text text-anchor="middle" x="648" y="-261.5" font-family="Helvetica,sans-Serif" font-size="10.00">MainWindow::slotSolidView</text>
</a>
</g>
</g>
<!-- Node1&#45;&gt;Node28 -->
<g id="edge51" class="edge">
<title>Node1&#45;&gt;Node28</title>
<path fill="none" stroke="midnightblue" d="M1043.17,-496.14C1037.75,-449.91 1017.29,-335.14 945,-284 909.63,-258.98 792.89,-258.21 717.02,-260.62"/>
<polygon fill="midnightblue" stroke="midnightblue" points="1039.72,-496.76 1044.25,-506.34 1046.68,-496.03 1039.72,-496.76"/>
</g>
<!-- Node30 -->
<g id="node30" class="node">
<title>Node30</title>
<g id="a_node30"><a xlink:href="../../d9/dc6/class_main_window.html#a6a538e09c3670c024d41a7566ca0e954" target="_top" xlink:title=" ">
<polygon fill="white" stroke="black" points="766,-205 766,-235 945,-235 945,-205 766,-205"/>
<text text-anchor="start" x="774" y="-223" font-family="Helvetica,sans-Serif" font-size="10.00">MainWindow::slotToggleOrthographic</text>
<text text-anchor="middle" x="855.5" y="-212" font-family="Helvetica,sans-Serif" font-size="10.00">Camera</text>
</a>
</g>
</g>
<!-- Node1&#45;&gt;Node30 -->
<g id="edge55" class="edge">
<title>Node1&#45;&gt;Node30</title>
<path fill="none" stroke="midnightblue" d="M1043.26,-496.29C1037.91,-447.52 1017.37,-320.04 945,-250 938.7,-243.91 931.13,-239.05 923.09,-235.18"/>
<polygon fill="midnightblue" stroke="midnightblue" points="1039.8,-496.83 1044.27,-506.44 1046.76,-496.14 1039.8,-496.83"/>
</g>
<!-- Node31 -->
<g id="node31" class="node">
<title>Node31</title>
<g id="a_node31"><a xlink:href="../../d9/dc6/class_main_window.html#a86f3c8ae5d988859127370ec30bf9de6" target="_top" xlink:title=" ">
<polygon fill="white" stroke="black" points="789.5,-165.5 789.5,-184.5 921.5,-184.5 921.5,-165.5 789.5,-165.5"/>
<text text-anchor="middle" x="855.5" y="-172.5" font-family="Helvetica,sans-Serif" font-size="10.00">MainWindow::slotTopView</text>
</a>
</g>
</g>
<!-- Node1&#45;&gt;Node31 -->
<g id="edge57" class="edge">
<title>Node1&#45;&gt;Node31</title>
<path fill="none" stroke="midnightblue" d="M1045.12,-496.09C1044.33,-439.94 1034.03,-279.01 945,-196 938.42,-189.86 930.38,-185.42 921.86,-182.21"/>
<polygon fill="midnightblue" stroke="midnightblue" points="1041.63,-496.43 1045.17,-506.42 1048.63,-496.4 1041.63,-496.43"/>
</g>
<!-- Node32 -->
<g id="node32" class="node">
<title>Node32</title>
<g id="a_node32"><a xlink:href="../../d9/dc6/class_main_window.html#aeb9b20953b537002495c07043c7396a2" target="_top" xlink:title=" ">
<polygon fill="white" stroke="black" points="783.5,-125.5 783.5,-144.5 927.5,-144.5 927.5,-125.5 783.5,-125.5"/>
<text text-anchor="middle" x="855.5" y="-132.5" font-family="Helvetica,sans-Serif" font-size="10.00">MainWindow::slotWiringView</text>
</a>
</g>
</g>
<!-- Node1&#45;&gt;Node32 -->
<g id="edge59" class="edge">
<title>Node1&#45;&gt;Node32</title>
<path fill="none" stroke="midnightblue" d="M1042.14,-495.94C1031.96,-427.48 995.47,-204.59 945,-156 939.99,-151.18 934.1,-147.4 927.76,-144.44"/>
<polygon fill="midnightblue" stroke="midnightblue" points="1038.73,-496.82 1043.63,-506.21 1045.65,-495.81 1038.73,-496.82"/>
</g>
<!-- Node33 -->
<g id="node33" class="node">
<title>Node33</title>
<g id="a_node33"><a xlink:href="../../d9/dc6/class_main_window.html#a4723088fe77ab7b6e7416d22555802ba" target="_top" xlink:title=" ">
<polygon fill="white" stroke="black" points="785,-84.5 785,-103.5 926,-103.5 926,-84.5 785,-84.5"/>
<text text-anchor="middle" x="855.5" y="-91.5" font-family="Helvetica,sans-Serif" font-size="10.00">MainWindow::slotXRayView</text>
</a>
</g>
</g>
<!-- Node1&#45;&gt;Node33 -->
<g id="edge61" class="edge">
<title>Node1&#45;&gt;Node33</title>
<path fill="none" stroke="midnightblue" d="M1042.73,-496.14C1034,-423.17 1000.29,-171.22 945,-116 939.62,-110.63 933.15,-106.5 926.18,-103.33"/>
<polygon fill="midnightblue" stroke="midnightblue" points="1039.28,-496.74 1043.92,-506.26 1046.23,-495.92 1039.28,-496.74"/>
</g>
<!-- Node34 -->
<g id="node34" class="node">
<title>Node34</title>
<g id="a_node34"><a xlink:href="../../d9/dc6/class_main_window.html#ae5d7d07a14329e454cde9c566a03f0a6" target="_top" xlink:title="Show / Hide vtkProps (actors)">
<polygon fill="white" stroke="black" points="573,-38.5 573,-57.5 723,-57.5 723,-38.5 573,-38.5"/>
<text text-anchor="middle" x="648" y="-45.5" font-family="Helvetica,sans-Serif" font-size="10.00">MainWindow::toggleShowProp</text>
</a>
</g>
</g>
<!-- Node1&#45;&gt;Node34 -->
<g id="edge63" class="edge">
<title>Node1&#45;&gt;Node34</title>
<path fill="none" stroke="midnightblue" d="M1043.49,-495.88C1037.17,-417.2 1010.02,-131.95 945,-75 873.39,-12.27 751.25,-25.93 688.61,-38.46"/>
<polygon fill="midnightblue" stroke="midnightblue" points="1040.04,-496.6 1044.31,-506.3 1047.02,-496.06 1040.04,-496.6"/>
</g>
<!-- Node4 -->
<g id="node4" class="node">
<title>Node4</title>
<g id="a_node4"><a xlink:href="../../d9/dc6/class_main_window.html#a15f9fa9fe71b50669ecf5f5a3a1ce90e" target="_top" xlink:title="Import STL / OBJ mesh into the scene.">
<polygon fill="white" stroke="black" points="587.5,-1044.5 587.5,-1063.5 708.5,-1063.5 708.5,-1044.5 587.5,-1044.5"/>
<text text-anchor="middle" x="648" y="-1051.5" font-family="Helvetica,sans-Serif" font-size="10.00">MainWindow::loadMesh</text>
</a>
</g>
</g>
<!-- Node3&#45;&gt;Node4 -->
<g id="edge3" class="edge">
<title>Node3&#45;&gt;Node4</title>
<path fill="none" stroke="midnightblue" d="M830.08,-944.73C787.43,-970.47 700.53,-1022.91 664.84,-1044.44"/>
<polygon fill="midnightblue" stroke="midnightblue" points="831.96,-947.69 838.72,-939.52 828.35,-941.69 831.96,-947.69"/>
</g>
<!-- Node6 -->
<g id="node6" class="node">
<title>Node6</title>
<g id="a_node6"><a xlink:href="../../d9/dc6/class_main_window.html#a33dddfc15db4053f9117728538e7ece4" target="_top" xlink:title="Set up qt specific signal and slots part for enabling user interaction.">
<polygon fill="white" stroke="black" points="171,-588 171,-618 306,-618 306,-588 171,-588"/>
<text text-anchor="start" x="179" y="-606" font-family="Helvetica,sans-Serif" font-size="10.00">MainWindow::setupSignals</text>
<text text-anchor="middle" x="238.5" y="-595" font-family="Helvetica,sans-Serif" font-size="10.00">AndSlots</text>
</a>
</g>
</g>
<!-- Node3&#45;&gt;Node6 -->
<g id="edge19" class="edge">
<title>Node3&#45;&gt;Node6</title>
<path fill="none" stroke="midnightblue" d="M780.59,-928.6C722.08,-926.66 638.44,-922.03 566,-911 464.76,-895.58 419.54,-923.9 342,-857 266.21,-791.61 245.76,-662.02 240.88,-618.02"/>
<polygon fill="midnightblue" stroke="midnightblue" points="780.74,-932.11 790.85,-928.92 780.96,-925.11 780.74,-932.11"/>
</g>
<!-- Node5 -->
<g id="node5" class="node">
<title>Node5</title>
<g id="a_node5"><a xlink:href="../../d9/dc6/class_main_window.html#a6e3c9bc26115fb1b1664607e58716641" target="_top" xlink:title=" ">
<polygon fill="white" stroke="black" points="363,-1211.5 363,-1230.5 509,-1230.5 509,-1211.5 363,-1211.5"/>
<text text-anchor="middle" x="436" y="-1218.5" font-family="Helvetica,sans-Serif" font-size="10.00">MainWindow::slotImportMesh</text>
</a>
</g>
</g>
<!-- Node4&#45;&gt;Node5 -->
<g id="edge4" class="edge">
<title>Node4&#45;&gt;Node5</title>
<path fill="none" stroke="midnightblue" d="M637.88,-1072.65C621.2,-1104.63 582.61,-1169.62 530,-1202 523.54,-1205.97 516.41,-1209.13 509.04,-1211.64"/>
<polygon fill="midnightblue" stroke="midnightblue" points="641.11,-1074.01 642.51,-1063.51 634.87,-1070.84 641.11,-1074.01"/>
</g>
<!-- Node7 -->
<g id="node7" class="node">
<title>Node7</title>
<g id="a_node7"><a xlink:href="../../d9/dc6/class_main_window.html#a46bb2fea8ddeab75e15a223c291116b6" target="_top" xlink:title=" ">
<polygon fill="white" stroke="black" points="361.5,-1162 361.5,-1192 510.5,-1192 510.5,-1162 361.5,-1162"/>
<text text-anchor="start" x="369.5" y="-1180" font-family="Helvetica,sans-Serif" font-size="10.00">MainWindow::slotOptimization</text>
<text text-anchor="middle" x="436" y="-1169" font-family="Helvetica,sans-Serif" font-size="10.00">BenchmarkBunnyLowPoly</text>
</a>
</g>
</g>
<!-- Node4&#45;&gt;Node7 -->
<g id="edge7" class="edge">
<title>Node4&#45;&gt;Node7</title>
<path fill="none" stroke="midnightblue" d="M631.86,-1070.86C611.05,-1093 571.47,-1131.55 530,-1153 523.34,-1156.45 516.14,-1159.42 508.81,-1161.99"/>
<polygon fill="midnightblue" stroke="midnightblue" points="634.43,-1073.24 638.64,-1063.51 629.29,-1068.49 634.43,-1073.24"/>
</g>
<!-- Node8 -->
<g id="node8" class="node">
<title>Node8</title>
<g id="a_node8"><a xlink:href="../../d9/dc6/class_main_window.html#affed0fab82fd390e2762933c6dca9124" target="_top" xlink:title=" ">
<polygon fill="white" stroke="black" points="361.5,-1113 361.5,-1143 510.5,-1143 510.5,-1113 361.5,-1113"/>
<text text-anchor="start" x="369.5" y="-1131" font-family="Helvetica,sans-Serif" font-size="10.00">MainWindow::slotOptimization</text>
<text text-anchor="middle" x="436" y="-1120" font-family="Helvetica,sans-Serif" font-size="10.00">BenchmarkCorona</text>
</a>
</g>
</g>
<!-- Node4&#45;&gt;Node8 -->
<g id="edge9" class="edge">
<title>Node4&#45;&gt;Node8</title>
<path fill="none" stroke="midnightblue" d="M617.73,-1067.98C594.35,-1078.78 560.56,-1093.6 530,-1104 520.69,-1107.17 510.73,-1110.16 500.91,-1112.87"/>
<polygon fill="midnightblue" stroke="midnightblue" points="619.49,-1071.02 627.07,-1063.62 616.53,-1064.67 619.49,-1071.02"/>
</g>
<!-- Node9 -->
<g id="node9" class="node">
<title>Node9</title>
<g id="a_node9"><a xlink:href="../../d9/dc6/class_main_window.html#adfdb8fcb8685844e8ce11bfb41b83b7d" target="_top" xlink:title=" ">
<polygon fill="white" stroke="black" points="361.5,-1064 361.5,-1094 510.5,-1094 510.5,-1064 361.5,-1064"/>
<text text-anchor="start" x="369.5" y="-1082" font-family="Helvetica,sans-Serif" font-size="10.00">MainWindow::slotOptimization</text>
<text text-anchor="middle" x="436" y="-1071" font-family="Helvetica,sans-Serif" font-size="10.00">BenchmarkCthulhu</text>
</a>
</g>
</g>
<!-- Node4&#45;&gt;Node9 -->
<g id="edge11" class="edge">
<title>Node4&#45;&gt;Node9</title>
<path fill="none" stroke="midnightblue" d="M577.39,-1062.29C555.95,-1064.84 532.29,-1067.66 510.6,-1070.24"/>
<polygon fill="midnightblue" stroke="midnightblue" points="577.87,-1065.75 587.38,-1061.1 577.04,-1058.8 577.87,-1065.75"/>
</g>
<!-- Node10 -->
<g id="node10" class="node">
<title>Node10</title>
<g id="a_node10"><a xlink:href="../../d9/dc6/class_main_window.html#a5283a0d7aeeafd409c69b272053f3986" target="_top" xlink:title=" ">
<polygon fill="white" stroke="black" points="361.5,-1015 361.5,-1045 510.5,-1045 510.5,-1015 361.5,-1015"/>
<text text-anchor="start" x="369.5" y="-1033" font-family="Helvetica,sans-Serif" font-size="10.00">MainWindow::slotOptimization</text>
<text text-anchor="middle" x="436" y="-1022" font-family="Helvetica,sans-Serif" font-size="10.00">BenchmarkCube</text>
</a>
</g>
</g>
<!-- Node4&#45;&gt;Node10 -->
<g id="edge13" class="edge">
<title>Node4&#45;&gt;Node10</title>
<path fill="none" stroke="midnightblue" d="M577.39,-1046.04C555.95,-1043.59 532.29,-1040.89 510.6,-1038.41"/>
<polygon fill="midnightblue" stroke="midnightblue" points="577.05,-1049.53 587.38,-1047.19 577.85,-1042.57 577.05,-1049.53"/>
</g>
<!-- Node11 -->
<g id="node11" class="node">
<title>Node11</title>
<g id="a_node11"><a xlink:href="../../d9/dc6/class_main_window.html#a0c92ca2d04a79a1580c2e8e136b82682" target="_top" xlink:title=" ">
<polygon fill="white" stroke="black" points="361.5,-966 361.5,-996 510.5,-996 510.5,-966 361.5,-966"/>
<text text-anchor="start" x="369.5" y="-984" font-family="Helvetica,sans-Serif" font-size="10.00">MainWindow::slotOptimization</text>
<text text-anchor="middle" x="436" y="-973" font-family="Helvetica,sans-Serif" font-size="10.00">BenchmarkSphere</text>
</a>
</g>
</g>
<!-- Node4&#45;&gt;Node11 -->
<g id="edge15" class="edge">
<title>Node4&#45;&gt;Node11</title>
<path fill="none" stroke="midnightblue" d="M616.37,-1040.18C593,-1029.95 559.85,-1016.09 530,-1006 519.55,-1002.47 508.3,-999.09 497.37,-996.03"/>
<polygon fill="midnightblue" stroke="midnightblue" points="615.18,-1043.49 625.75,-1044.33 618.01,-1037.08 615.18,-1043.49"/>
</g>
<!-- Node12 -->
<g id="node12" class="node">
<title>Node12</title>
<g id="a_node12"><a xlink:href="../../d9/dc6/class_main_window.html#a86cd359f80311725589d0861dd7a9851" target="_top" xlink:title=" ">
<polygon fill="white" stroke="black" points="361.5,-917 361.5,-947 510.5,-947 510.5,-917 361.5,-917"/>
<text text-anchor="start" x="369.5" y="-935" font-family="Helvetica,sans-Serif" font-size="10.00">MainWindow::slotOptimization</text>
<text text-anchor="middle" x="436" y="-924" font-family="Helvetica,sans-Serif" font-size="10.00">BenchmarkUChannel</text>
</a>
</g>
</g>
<!-- Node4&#45;&gt;Node12 -->
<g id="edge17" class="edge">
<title>Node4&#45;&gt;Node12</title>
<path fill="none" stroke="midnightblue" d="M631.16,-1036.94C610.08,-1015.24 570.73,-978.07 530,-957 522.58,-953.16 514.5,-949.86 506.32,-947.05"/>
<polygon fill="midnightblue" stroke="midnightblue" points="628.87,-1039.61 638.3,-1044.43 633.93,-1034.78 628.87,-1039.61"/>
</g>
<!-- Node5&#45;&gt;Node6 -->
<g id="edge5" class="edge">
<title>Node5&#45;&gt;Node6</title>
<path fill="none" stroke="midnightblue" d="M353.69,-1211.09C349.42,-1208.59 345.47,-1205.58 342,-1202 257.78,-1115.03 242.19,-702.59 239.86,-618.13"/>
<polygon fill="midnightblue" stroke="midnightblue" points="352.33,-1214.32 362.85,-1215.58 355.41,-1208.04 352.33,-1214.32"/>
</g>
<!-- Node6&#45;&gt;Node2 -->
<g id="edge6" class="edge">
<title>Node6&#45;&gt;Node2</title>
<path fill="none" stroke="midnightblue" d="M224.5,-627.45C189.93,-692.52 96.73,-867.88 73.7,-911.22"/>
<polygon fill="midnightblue" stroke="midnightblue" points="227.75,-628.81 229.35,-618.34 221.57,-625.53 227.75,-628.81"/>
</g>
<!-- Node7&#45;&gt;Node6 -->
<g id="edge8" class="edge">
<title>Node7&#45;&gt;Node6</title>
<path fill="none" stroke="midnightblue" d="M352.57,-1161.85C348.72,-1159.31 345.16,-1156.38 342,-1153 266.34,-1071.99 244.11,-698.21 240.19,-618.13"/>
<polygon fill="midnightblue" stroke="midnightblue" points="350.97,-1164.96 361.4,-1166.8 354.39,-1158.86 350.97,-1164.96"/>
</g>
<!-- Node8&#45;&gt;Node6 -->
<g id="edge10" class="edge">
<title>Node8&#45;&gt;Node6</title>
<path fill="none" stroke="midnightblue" d="M352.1,-1112.42C348.44,-1109.99 345.04,-1107.2 342,-1104 272.58,-1030.96 245.68,-693.53 240.48,-618.02"/>
<polygon fill="midnightblue" stroke="midnightblue" points="350.62,-1115.61 361.05,-1117.49 354.07,-1109.52 350.62,-1115.61"/>
</g>
<!-- Node9&#45;&gt;Node6 -->
<g id="edge12" class="edge">
<title>Node9&#45;&gt;Node6</title>
<path fill="none" stroke="midnightblue" d="M352.18,-1063.35C348.5,-1060.93 345.07,-1058.16 342,-1055 278.94,-990.05 247.55,-690.11 240.87,-618.42"/>
<polygon fill="midnightblue" stroke="midnightblue" points="350.73,-1066.55 361.17,-1068.37 354.15,-1060.44 350.73,-1066.55"/>
</g>
<!-- Node10&#45;&gt;Node6 -->
<g id="edge14" class="edge">
<title>Node10&#45;&gt;Node6</title>
<path fill="none" stroke="midnightblue" d="M352.28,-1014.25C348.57,-1011.86 345.11,-1009.12 342,-1006 285.05,-948.85 249.41,-684.32 241.28,-618.07"/>
<polygon fill="midnightblue" stroke="midnightblue" points="350.87,-1017.47 361.31,-1019.23 354.25,-1011.34 350.87,-1017.47"/>
</g>
<!-- Node11&#45;&gt;Node6 -->
<g id="edge16" class="edge">
<title>Node11&#45;&gt;Node6</title>
<path fill="none" stroke="midnightblue" d="M352.4,-965.12C348.66,-962.76 345.16,-960.07 342,-957 242.17,-860.05 237.98,-672.31 238.98,-618.03"/>
<polygon fill="midnightblue" stroke="midnightblue" points="351.03,-968.36 361.5,-970.05 354.37,-962.21 351.03,-968.36"/>
</g>
<!-- Node12&#45;&gt;Node6 -->
<g id="edge18" class="edge">
<title>Node12&#45;&gt;Node6</title>
<path fill="none" stroke="midnightblue" d="M355.11,-912.16C350.37,-909.23 345.93,-905.86 342,-902 258.41,-819.91 242.95,-666.78 240.13,-618.2"/>
<polygon fill="midnightblue" stroke="midnightblue" points="353.49,-915.26 363.94,-916.99 356.85,-909.12 353.49,-915.26"/>
</g>
<!-- Node13&#45;&gt;Node6 -->
<g id="edge21" class="edge">
<title>Node13&#45;&gt;Node6</title>
<path fill="none" stroke="midnightblue" d="M586.25,-880.59C502.84,-864.49 360.94,-835.35 342,-820 275.15,-765.84 249.45,-657.86 242.02,-618.13"/>
<polygon fill="midnightblue" stroke="midnightblue" points="585.64,-884.04 596.12,-882.49 586.97,-877.17 585.64,-884.04"/>
</g>
<!-- Node14&#45;&gt;Node6 -->
<g id="edge23" class="edge">
<title>Node14&#45;&gt;Node6</title>
<path fill="none" stroke="midnightblue" d="M571.9,-838.84C493.79,-828.09 377.98,-808.34 342,-782 283.78,-739.38 253.71,-652.95 243.54,-618.09"/>
<polygon fill="midnightblue" stroke="midnightblue" points="571.8,-842.36 582.18,-840.23 572.74,-835.42 571.8,-842.36"/>
</g>
<!-- Node15&#45;&gt;Node6 -->
<g id="edge25" class="edge">
<title>Node15&#45;&gt;Node6</title>
<path fill="none" stroke="midnightblue" d="M561.72,-794.94C484.56,-785.47 377.7,-768.8 342,-746 291.8,-713.94 258.61,-647.75 245.64,-618.03"/>
<polygon fill="midnightblue" stroke="midnightblue" points="561.58,-798.45 571.93,-796.17 562.42,-791.5 561.58,-798.45"/>
</g>
<!-- Node16&#45;&gt;Node6 -->
<g id="edge27" class="edge">
<title>Node16&#45;&gt;Node6</title>
<path fill="none" stroke="midnightblue" d="M558.15,-756.55C481.83,-747.3 378.5,-731.74 342,-712 299.73,-689.14 265.02,-642.4 249.02,-618.23"/>
<polygon fill="midnightblue" stroke="midnightblue" points="557.91,-760.05 568.26,-757.76 558.74,-753.1 557.91,-760.05"/>
</g>
<!-- Node17&#45;&gt;Node6 -->
<g id="edge29" class="edge">
<title>Node17&#45;&gt;Node6</title>
<path fill="none" stroke="midnightblue" d="M777.17,-708.15C761.55,-708.51 745.25,-708.82 730,-709 657.12,-709.88 638.6,-715.43 566,-709 465.26,-700.08 436.13,-705.98 342,-669 310.09,-656.46 277.52,-633.36 257.9,-618.09"/>
<polygon fill="midnightblue" stroke="midnightblue" points="777.39,-711.65 787.31,-707.92 777.23,-704.65 777.39,-711.65"/>
</g>
<!-- Node17&#45;&gt;Node18 -->
<g id="edge30" class="edge">
<title>Node17&#45;&gt;Node18</title>
<path fill="none" stroke="midnightblue" d="M777.5,-700C762.07,-698.8 745.82,-697.54 730.26,-696.33"/>
<polygon fill="midnightblue" stroke="midnightblue" points="777.25,-703.5 787.5,-700.78 777.8,-696.52 777.25,-703.5"/>
</g>
<!-- Node18&#45;&gt;Node6 -->
<g id="edge31" class="edge">
<title>Node18&#45;&gt;Node6</title>
<path fill="none" stroke="midnightblue" d="M564.19,-679C502.44,-669.98 416.31,-655.67 342,-637 321.45,-631.84 299.07,-624.61 280.48,-618.14"/>
<polygon fill="midnightblue" stroke="midnightblue" points="563.87,-682.49 574.27,-680.46 564.87,-675.56 563.87,-682.49"/>
</g>
<!-- Node19&#45;&gt;Node6 -->
<g id="edge33" class="edge">
<title>Node19&#45;&gt;Node6</title>
<path fill="none" stroke="midnightblue" d="M567.38,-637.6C491.2,-629.56 377.61,-617.57 306.1,-610.03"/>
<polygon fill="midnightblue" stroke="midnightblue" points="567.1,-641.09 577.41,-638.66 567.83,-634.13 567.1,-641.09"/>
</g>
<!-- Node20&#45;&gt;Node6 -->
<g id="edge35" class="edge">
<title>Node20&#45;&gt;Node6</title>
<path fill="none" stroke="midnightblue" d="M563.18,-598.23C487.16,-599.35 376.55,-600.98 306.33,-602.02"/>
<polygon fill="midnightblue" stroke="midnightblue" points="563.26,-601.73 573.2,-598.09 563.15,-594.73 563.26,-601.73"/>
</g>
<!-- Node21&#45;&gt;Node6 -->
<g id="edge37" class="edge">
<title>Node21&#45;&gt;Node6</title>
<path fill="none" stroke="midnightblue" d="M563.18,-559.31C487.16,-569.57 376.55,-584.5 306.33,-593.98"/>
<polygon fill="midnightblue" stroke="midnightblue" points="563.76,-562.77 573.2,-557.96 562.83,-555.83 563.76,-562.77"/>
</g>
<!-- Node22&#45;&gt;Node6 -->
<g id="edge39" class="edge">
<title>Node22&#45;&gt;Node6</title>
<path fill="none" stroke="midnightblue" d="M377.18,-519.24C365.28,-522.67 353.02,-526.89 342,-532 309.79,-546.94 276.78,-571.87 257.22,-587.87"/>
<polygon fill="midnightblue" stroke="midnightblue" points="378.33,-522.55 387.06,-516.54 376.49,-515.8 378.33,-522.55"/>
</g>
<!-- Node23&#45;&gt;Node6 -->
<g id="edge41" class="edge">
<title>Node23&#45;&gt;Node6</title>
<path fill="none" stroke="midnightblue" d="M761.65,-466.26C634.55,-459.86 413.95,-454.39 342,-488 296.2,-509.39 262.16,-561.88 247.48,-587.89"/>
<polygon fill="midnightblue" stroke="midnightblue" points="761.59,-469.76 771.76,-466.78 761.96,-462.77 761.59,-469.76"/>
</g>
<!-- Node24&#45;&gt;Node6 -->
<g id="edge43" class="edge">
<title>Node24&#45;&gt;Node6</title>
<path fill="none" stroke="midnightblue" d="M771.35,-424.29C645.42,-420.09 413.43,-418.33 342,-458 289.18,-487.34 257.16,-556.75 245.05,-587.67"/>
<polygon fill="midnightblue" stroke="midnightblue" points="771.6,-427.8 781.71,-424.65 771.84,-420.81 771.6,-427.8"/>
</g>
<!-- Node25&#45;&gt;Node6 -->
<g id="edge45" class="edge">
<title>Node25&#45;&gt;Node6</title>
<path fill="none" stroke="midnightblue" d="M768.68,-385.51C641.58,-380.46 410.88,-377.9 342,-421 279.6,-460.05 251.71,-551.61 242.84,-587.85"/>
<polygon fill="midnightblue" stroke="midnightblue" points="768.64,-389.01 778.77,-385.93 768.92,-382.02 768.64,-389.01"/>
</g>
<!-- Node26&#45;&gt;Node6 -->
<g id="edge47" class="edge">
<title>Node26&#45;&gt;Node6</title>
<path fill="none" stroke="midnightblue" d="M765.68,-346.34C637.51,-339.93 408.72,-335.61 342,-381 268.99,-430.67 246.96,-546.18 241.26,-587.75"/>
<polygon fill="midnightblue" stroke="midnightblue" points="765.7,-349.84 775.87,-346.86 766.06,-342.85 765.7,-349.84"/>
</g>
<!-- Node27&#45;&gt;Node6 -->
<g id="edge49" class="edge">
<title>Node27&#45;&gt;Node6</title>
<path fill="none" stroke="midnightblue" d="M765.55,-302.4C636.92,-296.13 407.23,-292.36 342,-340 258.1,-401.27 242.87,-541.42 240.11,-587.79"/>
<polygon fill="midnightblue" stroke="midnightblue" points="765.61,-305.91 775.77,-302.91 765.96,-298.92 765.61,-305.91"/>
</g>
<!-- Node28&#45;&gt;Node6 -->
<g id="edge52" class="edge">
<title>Node28&#45;&gt;Node6</title>
<path fill="none" stroke="midnightblue" d="M568.41,-263.98C489.75,-265.55 375.7,-272.69 342,-300 249.24,-375.17 239.99,-537.8 239.41,-587.96"/>
<polygon fill="midnightblue" stroke="midnightblue" points="568.85,-267.47 578.79,-263.8 568.73,-260.47 568.85,-267.47"/>
</g>
<!-- Node29 -->
<g id="node29" class="node">
<title>Node29</title>
<g id="a_node29"><a xlink:href="../../d9/dc6/class_main_window.html#aa0de90b823eb0761571f740ecbec0fd2" target="_top" xlink:title=" ">
<polygon fill="white" stroke="black" points="354,-228.5 354,-247.5 518,-247.5 518,-228.5 354,-228.5"/>
<text text-anchor="middle" x="436" y="-235.5" font-family="Helvetica,sans-Serif" font-size="10.00">MainWindow::slotPSInterfaceTool</text>
</a>
</g>
</g>
<!-- Node28&#45;&gt;Node29 -->
<g id="edge53" class="edge">
<title>Node28&#45;&gt;Node29</title>
<path fill="none" stroke="midnightblue" d="M568.71,-254.31C550.8,-252.09 531.79,-249.74 513.94,-247.53"/>
<polygon fill="midnightblue" stroke="midnightblue" points="568.46,-257.8 578.82,-255.56 569.32,-250.86 568.46,-257.8"/>
</g>
<!-- Node29&#45;&gt;Node6 -->
<g id="edge54" class="edge">
<title>Node29&#45;&gt;Node6</title>
<path fill="none" stroke="midnightblue" d="M355.6,-252.04C350.66,-254.81 346.06,-258.1 342,-262 245.52,-354.75 238.92,-534.51 239.18,-587.77"/>
<polygon fill="midnightblue" stroke="midnightblue" points="357.32,-255.1 364.79,-247.59 354.27,-248.8 357.32,-255.1"/>
</g>
<!-- Node30&#45;&gt;Node6 -->
<g id="edge56" class="edge">
<title>Node30&#45;&gt;Node6</title>
<path fill="none" stroke="midnightblue" d="M755.81,-206.04C625.27,-189.85 404.41,-171.06 342,-219 280.98,-265.86 248.49,-522.46 241.13,-587.84"/>
<polygon fill="midnightblue" stroke="midnightblue" points="755.46,-209.52 765.82,-207.3 756.34,-202.58 755.46,-209.52"/>
</g>
<!-- Node31&#45;&gt;Node6 -->
<g id="edge58" class="edge">
<title>Node31&#45;&gt;Node6</title>
<path fill="none" stroke="midnightblue" d="M779.37,-165.55C653.51,-151.44 407.4,-131.74 342,-184 276.33,-236.48 247.01,-519.15 240.79,-587.91"/>
<polygon fill="midnightblue" stroke="midnightblue" points="778.99,-169.03 789.33,-166.68 779.79,-162.07 778.99,-169.03"/>
</g>
<!-- Node32&#45;&gt;Node6 -->
<g id="edge60" class="edge">
<title>Node32&#45;&gt;Node6</title>
<path fill="none" stroke="midnightblue" d="M773.3,-124.91C645.61,-110.93 405.83,-92.85 342,-145 270.86,-203.13 245.52,-514.22 240.49,-587.52"/>
<polygon fill="midnightblue" stroke="midnightblue" points="773.09,-128.41 783.42,-126.04 773.87,-121.46 773.09,-128.41"/>
</g>
<!-- Node33&#45;&gt;Node6 -->
<g id="edge62" class="edge">
<title>Node33&#45;&gt;Node6</title>
<path fill="none" stroke="midnightblue" d="M774.68,-84.3C647.21,-70.66 405.54,-52.98 342,-106 265.23,-170.07 244.01,-511.29 240.19,-587.78"/>
<polygon fill="midnightblue" stroke="midnightblue" points="774.46,-87.79 784.78,-85.4 775.22,-80.84 774.46,-87.79"/>
</g>
<!-- Node35 -->
<g id="node35" class="node">
<title>Node35</title>
<g id="a_node35"><a xlink:href="../../d9/dc6/class_main_window.html#ac263285c2a98dc31eb7444fa0221b581" target="_top" xlink:title=" ">
<polygon fill="white" stroke="black" points="366.5,-38.5 366.5,-57.5 505.5,-57.5 505.5,-38.5 366.5,-38.5"/>
<text text-anchor="middle" x="436" y="-45.5" font-family="Helvetica,sans-Serif" font-size="10.00">MainWindow::slotShowAxis</text>
</a>
</g>
</g>
<!-- Node34&#45;&gt;Node35 -->
<g id="edge64" class="edge">
<title>Node34&#45;&gt;Node35</title>
<path fill="none" stroke="midnightblue" d="M562.86,-48C543.91,-48 524.03,-48 505.8,-48"/>
<polygon fill="midnightblue" stroke="midnightblue" points="562.96,-51.5 572.96,-48 562.96,-44.5 562.96,-51.5"/>
</g>
<!-- Node36 -->
<g id="node36" class="node">
<title>Node36</title>
<g id="a_node36"><a xlink:href="../../d9/dc6/class_main_window.html#a206c47bbb2468c55c2d7ca14b42037bf" target="_top" xlink:title=" ">
<polygon fill="white" stroke="black" points="353.5,-0.5 353.5,-19.5 518.5,-19.5 518.5,-0.5 353.5,-0.5"/>
<text text-anchor="middle" x="436" y="-7.5" font-family="Helvetica,sans-Serif" font-size="10.00">MainWindow::slotShowWorkplane</text>
</a>
</g>
</g>
<!-- Node34&#45;&gt;Node36 -->
<g id="edge66" class="edge">
<title>Node34&#45;&gt;Node36</title>
<path fill="none" stroke="midnightblue" d="M584.29,-36.65C554.16,-31.2 518.45,-24.74 489.74,-19.54"/>
<polygon fill="midnightblue" stroke="midnightblue" points="583.82,-40.12 594.28,-38.46 585.06,-33.24 583.82,-40.12"/>
</g>
<!-- Node35&#45;&gt;Node6 -->
<g id="edge65" class="edge">
<title>Node35&#45;&gt;Node6</title>
<path fill="none" stroke="midnightblue" d="M357.01,-60.51C351.46,-63.6 346.35,-67.38 342,-72 268.77,-149.9 244.71,-509.47 240.29,-587.87"/>
<polygon fill="midnightblue" stroke="midnightblue" points="358.52,-63.67 366.05,-56.22 355.51,-57.35 358.52,-63.67"/>
</g>
<!-- Node36&#45;&gt;Node6 -->
<g id="edge67" class="edge">
<title>Node36&#45;&gt;Node6</title>
<path fill="none" stroke="midnightblue" d="M345.98,-25.33C344.59,-26.48 343.27,-27.7 342,-29 261.06,-111.97 242.91,-505.81 239.98,-587.96"/>
<polygon fill="midnightblue" stroke="midnightblue" points="348.19,-28.06 354.45,-19.51 344.23,-22.29 348.19,-28.06"/>
</g>
</g>
</svg>
