<?xml version="1.0" encoding="UTF-8" standalone="no"?>
<!DOCTYPE svg PUBLIC "-//W3C//DTD SVG 1.1//EN"
 "http://www.w3.org/Graphics/SVG/1.1/DTD/svg11.dtd">
<!-- Generated by graphviz version 2.44.0 (0)
 -->
<!-- Title: MainWindow::slotImportMesh Pages: 1 -->
<svg width="840pt" height="619pt"
 viewBox="0.00 0.00 840.00 619.00" xmlns="http://www.w3.org/2000/svg" xmlns:xlink="http://www.w3.org/1999/xlink">
<g id="graph0" class="graph" transform="scale(1 1) rotate(0) translate(4 615)">
<title>MainWindow::slotImportMesh</title>
<polygon fill="white" stroke="transparent" points="-4,4 -4,-615 836,-615 836,4 -4,4"/>
<!-- Node1 -->
<g id="node1" class="node">
<title>Node1</title>
<g id="a_node1"><a xlink:title=" ">
<polygon fill="#bfbfbf" stroke="black" points="0,-307.5 0,-326.5 146,-326.5 146,-307.5 0,-307.5"/>
<text text-anchor="middle" x="73" y="-314.5" font-family="Helvetica,sans-Serif" font-size="10.00">MainWindow::slotImportMesh</text>
</a>
</g>
</g>
<!-- Node2 -->
<g id="node2" class="node">
<title>Node2</title>
<g id="a_node2"><a xlink:href="../../d9/dc6/class_main_window.html#a15f9fa9fe71b50669ecf5f5a3a1ce90e" target="_top" xlink:title="Import STL / OBJ mesh into the scene.">
<polygon fill="white" stroke="black" points="182,-307.5 182,-326.5 303,-326.5 303,-307.5 182,-307.5"/>
<text text-anchor="middle" x="242.5" y="-314.5" font-family="Helvetica,sans-Serif" font-size="10.00">MainWindow::loadMesh</text>
</a>
</g>
</g>
<!-- Node1&#45;&gt;Node2 -->
<g id="edge1" class="edge">
<title>Node1&#45;&gt;Node2</title>
<path fill="none" stroke="midnightblue" d="M146.01,-317C154.52,-317 163.19,-317 171.67,-317"/>
<polygon fill="midnightblue" stroke="midnightblue" points="171.89,-320.5 181.89,-317 171.89,-313.5 171.89,-320.5"/>
</g>
<!-- Node3 -->
<g id="node3" class="node">
<title>Node3</title>
<g id="a_node3"><a xlink:href="../../d9/dc6/class_main_window.html#a08e4bb8908089a538371760ac9f2f54e" target="_top" xlink:title="En&#45;/disable all menus (usefull during operations which work in another thread)">
<polygon fill="white" stroke="black" points="350,-591.5 350,-610.5 489,-610.5 489,-591.5 350,-591.5"/>
<text text-anchor="middle" x="419.5" y="-598.5" font-family="Helvetica,sans-Serif" font-size="10.00">MainWindow::disableMenus</text>
</a>
</g>
</g>
<!-- Node2&#45;&gt;Node3 -->
<g id="edge2" class="edge">
<title>Node2&#45;&gt;Node3</title>
<path fill="none" stroke="midnightblue" d="M244.07,-326.67C246.82,-364.57 262.03,-504.43 339,-577 343.3,-581.06 348.26,-584.43 353.57,-587.23"/>
<polygon fill="midnightblue" stroke="midnightblue" points="352.2,-590.46 362.75,-591.43 355.11,-584.09 352.2,-590.46"/>
</g>
<!-- Node4 -->
<g id="node4" class="node">
<title>Node4</title>
<g id="a_node4"><a xlink:href="../../db/dae/class_voxel_image_visualizer.html#a9d6ddcce68efaea01bfacaa932f27d9a" target="_top" xlink:title="Return RGB color cube output visualization.">
<polygon fill="white" stroke="black" points="546.5,-512 546.5,-542 656.5,-542 656.5,-512 546.5,-512"/>
<text text-anchor="start" x="554.5" y="-530" font-family="Helvetica,sans-Serif" font-size="10.00">VoxelImageVisualizer</text>
<text text-anchor="middle" x="601.5" y="-519" font-family="Helvetica,sans-Serif" font-size="10.00">::getColorOutput</text>
</a>
</g>
</g>
<!-- Node2&#45;&gt;Node4 -->
<g id="edge3" class="edge">
<title>Node2&#45;&gt;Node4</title>
<path fill="none" stroke="midnightblue" d="M245.02,-326.6C250.62,-358.57 273.39,-461.92 339,-506 397.13,-545.05 479.78,-544.77 536.51,-538.31"/>
<polygon fill="midnightblue" stroke="midnightblue" points="536.94,-541.79 546.44,-537.09 536.09,-534.84 536.94,-541.79"/>
</g>
<!-- Node7 -->
<g id="node7" class="node">
<title>Node7</title>
<g id="a_node7"><a xlink:href="../../db/dae/class_voxel_image_visualizer.html#a279e821afcfbef7cb624c391eec3b7a4" target="_top" xlink:title="Return visualization of the mesh interior only.">
<polygon fill="white" stroke="black" points="364.5,-466 364.5,-496 474.5,-496 474.5,-466 364.5,-466"/>
<text text-anchor="start" x="372.5" y="-484" font-family="Helvetica,sans-Serif" font-size="10.00">VoxelImageVisualizer</text>
<text text-anchor="middle" x="419.5" y="-473" font-family="Helvetica,sans-Serif" font-size="10.00">::getInteriorOutput</text>
</a>
</g>
</g>
<!-- Node2&#45;&gt;Node7 -->
<g id="edge6" class="edge">
<title>Node2&#45;&gt;Node7</title>
<path fill="none" stroke="midnightblue" d="M247.84,-326.58C259.27,-350.84 292.6,-415.27 339,-451 344.26,-455.05 350.13,-458.61 356.23,-461.71"/>
<polygon fill="midnightblue" stroke="midnightblue" points="354.75,-464.88 365.29,-465.95 357.72,-458.54 354.75,-464.88"/>
</g>
<!-- Node9 -->
<g id="node9" class="node">
<title>Node9</title>
<g id="a_node9"><a xlink:href="../../db/dae/class_voxel_image_visualizer.html#a00b60f629dcc3335bff26934e88b9bcb" target="_top" xlink:title="Return the occupation map visualization (unoccupied = yellow, occupied = blue)">
<polygon fill="white" stroke="black" points="544,-414 544,-444 659,-444 659,-414 544,-414"/>
<text text-anchor="start" x="552" y="-432" font-family="Helvetica,sans-Serif" font-size="10.00">VoxelImageVisualizer</text>
<text text-anchor="middle" x="601.5" y="-421" font-family="Helvetica,sans-Serif" font-size="10.00">::getOccupationOutput</text>
</a>
</g>
</g>
<!-- Node2&#45;&gt;Node9 -->
<g id="edge10" class="edge">
<title>Node2&#45;&gt;Node9</title>
<path fill="none" stroke="midnightblue" d="M248.91,-326.51C261.5,-347.6 295.08,-397.98 339,-418 400.6,-446.08 479.06,-445.2 533.9,-439.56"/>
<polygon fill="midnightblue" stroke="midnightblue" points="534.3,-443.04 543.86,-438.46 533.53,-436.08 534.3,-443.04"/>
</g>
<!-- Node10 -->
<g id="node10" class="node">
<title>Node10</title>
<g id="a_node10"><a xlink:href="../../d1/db8/class_voxelizer.html#a26853b4686f962a54f48a6dfd1fbcd5d" target="_top" xlink:title=" ">
<polygon fill="white" stroke="black" points="367,-389.5 367,-408.5 472,-408.5 472,-389.5 367,-389.5"/>
<text text-anchor="middle" x="419.5" y="-396.5" font-family="Helvetica,sans-Serif" font-size="10.00">Voxelizer::getOutput</text>
</a>
</g>
</g>
<!-- Node2&#45;&gt;Node10 -->
<g id="edge13" class="edge">
<title>Node2&#45;&gt;Node10</title>
<path fill="none" stroke="midnightblue" d="M255.08,-326.6C272.31,-340.41 306.19,-365.79 339,-380 344.73,-382.48 350.83,-384.67 357.01,-386.59"/>
<polygon fill="midnightblue" stroke="midnightblue" points="356.17,-389.99 366.75,-389.4 358.11,-383.27 356.17,-389.99"/>
</g>
<!-- Node11 -->
<g id="node11" class="node">
<title>Node11</title>
<g id="a_node11"><a xlink:href="../../db/dae/class_voxel_image_visualizer.html#a5f41640feebb9f49204b777abb09fec2" target="_top" xlink:title="Return visualization with VOXEL_OUTSIDE = &quot;White&quot;, VOXEL_OCCUPIED = &quot;Red&quot;, VOXEL_SHELL = &quot;Yellow&quot;,...">
<polygon fill="white" stroke="black" points="536,-561 536,-591 667,-591 667,-561 536,-561"/>
<text text-anchor="start" x="544" y="-579" font-family="Helvetica,sans-Serif" font-size="10.00">VoxelImageVisualizer</text>
<text text-anchor="middle" x="601.5" y="-568" font-family="Helvetica,sans-Serif" font-size="10.00">::getShellAndInsideOutput</text>
</a>
</g>
</g>
<!-- Node2&#45;&gt;Node11 -->
<g id="edge14" class="edge">
<title>Node2&#45;&gt;Node11</title>
<path fill="none" stroke="midnightblue" d="M244.48,-326.93C248.54,-362.16 267.33,-481.99 339,-537 367.53,-558.9 459.12,-568.6 525.87,-572.83"/>
<polygon fill="midnightblue" stroke="midnightblue" points="525.75,-576.33 535.94,-573.44 526.17,-569.34 525.75,-576.33"/>
</g>
<!-- Node12 -->
<g id="node12" class="node">
<title>Node12</title>
<g id="a_node12"><a xlink:href="../../d9/dc6/class_main_window.html#a69be5fbef09fb7b5c37dfe4bf546bd8a" target="_top" xlink:title="Return the used voxelizer.">
<polygon fill="white" stroke="black" points="353.5,-351.5 353.5,-370.5 485.5,-370.5 485.5,-351.5 353.5,-351.5"/>
<text text-anchor="middle" x="419.5" y="-358.5" font-family="Helvetica,sans-Serif" font-size="10.00">MainWindow::getVoxelizer</text>
</a>
</g>
</g>
<!-- Node2&#45;&gt;Node12 -->
<g id="edge17" class="edge">
<title>Node2&#45;&gt;Node12</title>
<path fill="none" stroke="midnightblue" d="M279.28,-326.56C297.19,-331.3 319.22,-337.05 339,-342 348.3,-344.33 358.22,-346.75 367.8,-349.05"/>
<polygon fill="midnightblue" stroke="midnightblue" points="367.07,-352.48 377.61,-351.4 368.7,-345.67 367.07,-352.48"/>
</g>
<!-- Node14 -->
<g id="node14" class="node">
<title>Node14</title>
<g id="a_node14"><a xlink:href="../../d9/dc6/class_main_window.html#a81962e4df0a9d0167d3870ec87a574d9" target="_top" xlink:title="Return the resolution of the used voxelizer.">
<polygon fill="white" stroke="black" points="353.5,-302 353.5,-332 485.5,-332 485.5,-302 353.5,-302"/>
<text text-anchor="start" x="361.5" y="-320" font-family="Helvetica,sans-Serif" font-size="10.00">MainWindow::getVoxelizer</text>
<text text-anchor="middle" x="419.5" y="-309" font-family="Helvetica,sans-Serif" font-size="10.00">Resolution</text>
</a>
</g>
</g>
<!-- Node2&#45;&gt;Node14 -->
<g id="edge19" class="edge">
<title>Node2&#45;&gt;Node14</title>
<path fill="none" stroke="midnightblue" d="M303.24,-317C316.1,-317 329.85,-317 343.22,-317"/>
<polygon fill="midnightblue" stroke="midnightblue" points="343.34,-320.5 353.34,-317 343.34,-313.5 343.34,-320.5"/>
</g>
<!-- Node16 -->
<g id="node16" class="node">
<title>Node16</title>
<g id="a_node16"><a xlink:href="../../dc/da5/class_voxelizer_thread.html#aeec94d245092bf8afa42ec5af6563e1b" target="_top" xlink:title=" ">
<polygon fill="white" stroke="black" points="358,-263.5 358,-282.5 481,-282.5 481,-263.5 358,-263.5"/>
<text text-anchor="middle" x="419.5" y="-270.5" font-family="Helvetica,sans-Serif" font-size="10.00">VoxelizerThread::isDone</text>
</a>
</g>
</g>
<!-- Node2&#45;&gt;Node16 -->
<g id="edge21" class="edge">
<title>Node2&#45;&gt;Node16</title>
<path fill="none" stroke="midnightblue" d="M281.47,-307.45C307.62,-300.88 342.55,-292.1 370.61,-285.04"/>
<polygon fill="midnightblue" stroke="midnightblue" points="371.76,-288.36 380.6,-282.53 370.05,-281.57 371.76,-288.36"/>
</g>
<!-- Node17 -->
<g id="node17" class="node">
<title>Node17</title>
<g id="a_node17"><a xlink:href="../../dc/d29/class_v_t_k_algorithm_wait_thread.html#a352c79c18a5dac09f0710f4f61437c79" target="_top" xlink:title=" ">
<polygon fill="white" stroke="black" points="356,-214 356,-244 483,-244 483,-214 356,-214"/>
<text text-anchor="start" x="364" y="-232" font-family="Helvetica,sans-Serif" font-size="10.00">VTKAlgorithmWaitThread</text>
<text text-anchor="middle" x="419.5" y="-221" font-family="Helvetica,sans-Serif" font-size="10.00">::isDone</text>
</a>
</g>
</g>
<!-- Node2&#45;&gt;Node17 -->
<g id="edge22" class="edge">
<title>Node2&#45;&gt;Node17</title>
<path fill="none" stroke="midnightblue" d="M255.51,-307.47C272.99,-293.99 306.89,-269.27 339,-254 343.7,-251.77 348.64,-249.67 353.68,-247.71"/>
<polygon fill="midnightblue" stroke="midnightblue" points="355.25,-250.86 363.42,-244.12 352.82,-244.29 355.25,-250.86"/>
</g>
<!-- Node18 -->
<g id="node18" class="node">
<title>Node18</title>
<g id="a_node18"><a xlink:href="../../d1/db8/class_voxelizer.html#a6c0182587b20e001a80607ebc9537958" target="_top" xlink:title=" ">
<polygon fill="white" stroke="black" points="360,-175.5 360,-194.5 479,-194.5 479,-175.5 360,-175.5"/>
<text text-anchor="middle" x="419.5" y="-182.5" font-family="Helvetica,sans-Serif" font-size="10.00">Voxelizer::setInputData</text>
</a>
</g>
</g>
<!-- Node2&#45;&gt;Node18 -->
<g id="edge23" class="edge">
<title>Node2&#45;&gt;Node18</title>
<path fill="none" stroke="midnightblue" d="M248.79,-307.46C261.38,-285.69 295.36,-232.09 339,-205 343.16,-202.41 347.65,-200.16 352.29,-198.2"/>
<polygon fill="midnightblue" stroke="midnightblue" points="353.84,-201.36 361.98,-194.57 351.39,-194.8 353.84,-201.36"/>
</g>
<!-- Node19 -->
<g id="node19" class="node">
<title>Node19</title>
<g id="a_node19"><a xlink:href="../../db/dae/class_voxel_image_visualizer.html#a15634f5a62fd0d71806741d1db033243" target="_top" xlink:title="Set input data of the visualizer.">
<polygon fill="white" stroke="black" points="364.5,-126 364.5,-156 474.5,-156 474.5,-126 364.5,-126"/>
<text text-anchor="start" x="372.5" y="-144" font-family="Helvetica,sans-Serif" font-size="10.00">VoxelImageVisualizer</text>
<text text-anchor="middle" x="419.5" y="-133" font-family="Helvetica,sans-Serif" font-size="10.00">::setInputData</text>
</a>
</g>
</g>
<!-- Node2&#45;&gt;Node19 -->
<g id="edge24" class="edge">
<title>Node2&#45;&gt;Node19</title>
<path fill="none" stroke="midnightblue" d="M246.92,-307.21C256.78,-280.44 287.86,-205.34 339,-166 343.78,-162.33 349.1,-159.19 354.67,-156.5"/>
<polygon fill="midnightblue" stroke="midnightblue" points="356.41,-159.57 364.22,-152.41 353.65,-153.13 356.41,-159.57"/>
</g>
<!-- Node20 -->
<g id="node20" class="node">
<title>Node20</title>
<g id="a_node20"><a xlink:href="../../db/dae/class_voxel_image_visualizer.html#a65eec474a368555a6ba16c1f54e956db" target="_top" xlink:title="Set output size of the visualization.">
<polygon fill="white" stroke="black" points="364.5,-77 364.5,-107 474.5,-107 474.5,-77 364.5,-77"/>
<text text-anchor="start" x="372.5" y="-95" font-family="Helvetica,sans-Serif" font-size="10.00">VoxelImageVisualizer</text>
<text text-anchor="middle" x="419.5" y="-84" font-family="Helvetica,sans-Serif" font-size="10.00">::setOutputSize</text>
</a>
</g>
</g>
<!-- Node2&#45;&gt;Node20 -->
<g id="edge25" class="edge">
<title>Node2&#45;&gt;Node20</title>
<path fill="none" stroke="midnightblue" d="M245.26,-307.43C251.63,-275.44 276.53,-171.24 339,-117 343.8,-112.83 349.3,-109.35 355.12,-106.46"/>
<polygon fill="midnightblue" stroke="midnightblue" points="356.7,-109.58 364.46,-102.37 353.89,-103.17 356.7,-109.58"/>
</g>
<!-- Node21 -->
<g id="node21" class="node">
<title>Node21</title>
<g id="a_node21"><a xlink:href="../../d1/db8/class_voxelizer.html#ab878f5b9cd34bca2411652da392c1e62" target="_top" xlink:title=" ">
<polygon fill="white" stroke="black" points="339,-38.5 339,-57.5 500,-57.5 500,-38.5 339,-38.5"/>
<text text-anchor="middle" x="419.5" y="-45.5" font-family="Helvetica,sans-Serif" font-size="10.00">Voxelizer::setSampleDimensions</text>
</a>
</g>
</g>
<!-- Node2&#45;&gt;Node21 -->
<g id="edge26" class="edge">
<title>Node2&#45;&gt;Node21</title>
<path fill="none" stroke="midnightblue" d="M244.13,-307.37C247.11,-270.29 262.97,-135.43 339,-68 341.37,-65.9 343.93,-64.01 346.63,-62.31"/>
<polygon fill="midnightblue" stroke="midnightblue" points="348.47,-65.3 355.67,-57.53 345.19,-59.11 348.47,-65.3"/>
</g>
<!-- Node22 -->
<g id="node22" class="node">
<title>Node22</title>
<g id="a_node22"><a xlink:href="../../d9/dc6/class_main_window.html#a37afa0d4419a56879d650a1400b42306" target="_top" xlink:title=" ">
<polygon fill="white" stroke="black" points="355,-0.5 355,-19.5 484,-19.5 484,-0.5 355,-0.5"/>
<text text-anchor="middle" x="419.5" y="-7.5" font-family="Helvetica,sans-Serif" font-size="10.00">MainWindow::slot3DView</text>
</a>
</g>
</g>
<!-- Node2&#45;&gt;Node22 -->
<g id="edge27" class="edge">
<title>Node2&#45;&gt;Node22</title>
<path fill="none" stroke="midnightblue" d="M243.55,-307.29C244.3,-266.59 252.85,-108.08 339,-29 341.16,-27.02 343.48,-25.24 345.93,-23.63"/>
<polygon fill="midnightblue" stroke="midnightblue" points="347.62,-26.7 354.7,-18.82 344.25,-20.56 347.62,-26.7"/>
</g>
<!-- Node5 -->
<g id="node5" class="node">
<title>Node5</title>
<g id="a_node5"><a xlink:href="../../db/dae/class_voxel_image_visualizer.html#a381e70e9dba0cad1fddf946aa7f4a408" target="_top" xlink:title="Compute scaling factor for visualization actor.">
<polygon fill="white" stroke="black" points="712.5,-510 712.5,-540 822.5,-540 822.5,-510 712.5,-510"/>
<text text-anchor="start" x="720.5" y="-528" font-family="Helvetica,sans-Serif" font-size="10.00">VoxelImageVisualizer</text>
<text text-anchor="middle" x="767.5" y="-517" font-family="Helvetica,sans-Serif" font-size="10.00">::getScaleValue</text>
</a>
</g>
</g>
<!-- Node4&#45;&gt;Node5 -->
<g id="edge4" class="edge">
<title>Node4&#45;&gt;Node5</title>
<path fill="none" stroke="midnightblue" d="M656.65,-526.34C671.21,-526.16 687.09,-525.97 702.14,-525.78"/>
<polygon fill="midnightblue" stroke="midnightblue" points="702.45,-529.28 712.4,-525.66 702.36,-522.28 702.45,-529.28"/>
</g>
<!-- Node6 -->
<g id="node6" class="node">
<title>Node6</title>
<g id="a_node6"><a xlink:href="../../db/dae/class_voxel_image_visualizer.html#a2cf2e268d83ea28ea097a557b4e66fcd" target="_top" xlink:title="Compute 1D linearized index from 3D&#45;coodinate index.">
<polygon fill="white" stroke="black" points="703,-470.5 703,-489.5 832,-489.5 832,-470.5 703,-470.5"/>
<text text-anchor="middle" x="767.5" y="-477.5" font-family="Helvetica,sans-Serif" font-size="10.00">VoxelImageVisualizer::idx</text>
</a>
</g>
</g>
<!-- Node4&#45;&gt;Node6 -->
<g id="edge5" class="edge">
<title>Node4&#45;&gt;Node6</title>
<path fill="none" stroke="midnightblue" d="M654.84,-512C677.02,-505.65 702.53,-498.33 723.57,-492.3"/>
<polygon fill="midnightblue" stroke="midnightblue" points="724.55,-495.66 733.2,-489.54 722.62,-488.93 724.55,-495.66"/>
</g>
<!-- Node8 -->
<g id="node8" class="node">
<title>Node8</title>
<g id="a_node8"><a xlink:href="../../db/dae/class_voxel_image_visualizer.html#a266b4be6343bb49d53b4af2c9e7df310" target="_top" xlink:title=" ">
<polygon fill="white" stroke="black" points="546.5,-463 546.5,-493 656.5,-493 656.5,-463 546.5,-463"/>
<text text-anchor="start" x="554.5" y="-481" font-family="Helvetica,sans-Serif" font-size="10.00">VoxelImageVisualizer</text>
<text text-anchor="middle" x="601.5" y="-470" font-family="Helvetica,sans-Serif" font-size="10.00">::getShellOutput</text>
</a>
</g>
</g>
<!-- Node7&#45;&gt;Node8 -->
<g id="edge7" class="edge">
<title>Node7&#45;&gt;Node8</title>
<path fill="none" stroke="midnightblue" d="M474.51,-480.1C493.91,-479.78 515.98,-479.41 536.17,-479.07"/>
<polygon fill="midnightblue" stroke="midnightblue" points="536.28,-482.57 546.22,-478.9 536.16,-475.57 536.28,-482.57"/>
</g>
<!-- Node8&#45;&gt;Node5 -->
<g id="edge8" class="edge">
<title>Node8&#45;&gt;Node5</title>
<path fill="none" stroke="midnightblue" d="M654.84,-493C670.52,-497.49 687.88,-502.47 704.14,-507.13"/>
<polygon fill="midnightblue" stroke="midnightblue" points="703.52,-510.59 714.09,-509.98 705.44,-503.86 703.52,-510.59"/>
</g>
<!-- Node8&#45;&gt;Node6 -->
<g id="edge9" class="edge">
<title>Node8&#45;&gt;Node6</title>
<path fill="none" stroke="midnightblue" d="M656.65,-478.66C668.17,-478.8 680.52,-478.95 692.63,-479.1"/>
<polygon fill="midnightblue" stroke="midnightblue" points="692.68,-482.6 702.72,-479.22 692.76,-475.6 692.68,-482.6"/>
</g>
<!-- Node9&#45;&gt;Node5 -->
<g id="edge11" class="edge">
<title>Node9&#45;&gt;Node5</title>
<path fill="none" stroke="midnightblue" d="M650.17,-444.13C656.1,-446.96 661.87,-450.24 667,-454 687.65,-469.15 682.49,-483.66 703,-499 705.99,-501.24 709.2,-503.32 712.53,-505.24"/>
<polygon fill="midnightblue" stroke="midnightblue" points="711.08,-508.43 721.56,-509.99 714.34,-502.24 711.08,-508.43"/>
</g>
<!-- Node9&#45;&gt;Node6 -->
<g id="edge12" class="edge">
<title>Node9&#45;&gt;Node6</title>
<path fill="none" stroke="midnightblue" d="M650.82,-444.03C674.69,-451.45 703.16,-460.3 725.89,-467.37"/>
<polygon fill="midnightblue" stroke="midnightblue" points="724.98,-470.75 735.57,-470.38 727.06,-464.07 724.98,-470.75"/>
</g>
<!-- Node11&#45;&gt;Node5 -->
<g id="edge15" class="edge">
<title>Node11&#45;&gt;Node5</title>
<path fill="none" stroke="midnightblue" d="M650.82,-560.97C668.92,-555.34 689.68,-548.89 708.56,-543.02"/>
<polygon fill="midnightblue" stroke="midnightblue" points="709.73,-546.32 718.24,-540.01 707.66,-539.63 709.73,-546.32"/>
</g>
<!-- Node11&#45;&gt;Node6 -->
<g id="edge16" class="edge">
<title>Node11&#45;&gt;Node6</title>
<path fill="none" stroke="midnightblue" d="M652.38,-560.98C657.56,-558.4 662.55,-555.43 667,-552 688.98,-535.07 680.71,-517.52 703,-501 706.82,-498.17 711.05,-495.7 715.45,-493.56"/>
<polygon fill="midnightblue" stroke="midnightblue" points="716.85,-496.77 724.66,-489.61 714.09,-490.34 716.85,-496.77"/>
</g>
<!-- Node13 -->
<g id="node13" class="node">
<title>Node13</title>
<g id="a_node13"><a xlink:href="../../d3/d5f/class_preferences_dialog.html#ace3bbb86fc20219c88cef8ff21f4ebf0" target="_top" xlink:title=" ">
<polygon fill="white" stroke="black" points="540.5,-351 540.5,-381 662.5,-381 662.5,-351 540.5,-351"/>
<text text-anchor="start" x="548.5" y="-369" font-family="Helvetica,sans-Serif" font-size="10.00">PreferencesDialog::</text>
<text text-anchor="middle" x="601.5" y="-358" font-family="Helvetica,sans-Serif" font-size="10.00">getVoxelizer_comboBox</text>
</a>
</g>
</g>
<!-- Node12&#45;&gt;Node13 -->
<g id="edge18" class="edge">
<title>Node12&#45;&gt;Node13</title>
<path fill="none" stroke="midnightblue" d="M485.74,-362.81C500.21,-363.21 515.6,-363.64 530.26,-364.05"/>
<polygon fill="midnightblue" stroke="midnightblue" points="530.18,-367.55 540.27,-364.33 530.37,-360.55 530.18,-367.55"/>
</g>
<!-- Node15 -->
<g id="node15" class="node">
<title>Node15</title>
<g id="a_node15"><a xlink:href="../../d3/d5f/class_preferences_dialog.html#a987ba30f65385851fb38ef638f7c0bec" target="_top" xlink:title=" ">
<polygon fill="white" stroke="black" points="543.5,-290.5 543.5,-331.5 659.5,-331.5 659.5,-290.5 543.5,-290.5"/>
<text text-anchor="start" x="551.5" y="-319.5" font-family="Helvetica,sans-Serif" font-size="10.00">PreferencesDialog::</text>
<text text-anchor="start" x="551.5" y="-308.5" font-family="Helvetica,sans-Serif" font-size="10.00">getVoxelizerResolution</text>
<text text-anchor="middle" x="601.5" y="-297.5" font-family="Helvetica,sans-Serif" font-size="10.00">_textEdit</text>
</a>
</g>
</g>
<!-- Node14&#45;&gt;Node15 -->
<g id="edge20" class="edge">
<title>Node14&#45;&gt;Node15</title>
<path fill="none" stroke="midnightblue" d="M485.74,-314.83C501.17,-314.31 517.66,-313.76 533.18,-313.24"/>
<polygon fill="midnightblue" stroke="midnightblue" points="533.35,-316.74 543.22,-312.91 533.11,-309.74 533.35,-316.74"/>
</g>
<!-- Node23 -->
<g id="node23" class="node">
<title>Node23</title>
<g id="a_node23"><a xlink:href="../../d9/dc6/class_main_window.html#a9b4b1ec94ad0c252298db72eb6cf6d6d" target="_top" xlink:title="Refresh the screen after changes to the scene.">
<polygon fill="white" stroke="black" points="536.5,-0.5 536.5,-19.5 666.5,-19.5 666.5,-0.5 536.5,-0.5"/>
<text text-anchor="middle" x="601.5" y="-7.5" font-family="Helvetica,sans-Serif" font-size="10.00">MainWindow::updateView</text>
</a>
</g>
</g>
<!-- Node22&#45;&gt;Node23 -->
<g id="edge28" class="edge">
<title>Node22&#45;&gt;Node23</title>
<path fill="none" stroke="midnightblue" d="M484.21,-10C497.81,-10 512.27,-10 526.22,-10"/>
<polygon fill="midnightblue" stroke="midnightblue" points="526.26,-13.5 536.26,-10 526.26,-6.5 526.26,-13.5"/>
</g>
</g>
</svg>
