<?xml version="1.0" encoding="UTF-8" standalone="no"?>
<!DOCTYPE svg PUBLIC "-//W3C//DTD SVG 1.1//EN"
 "http://www.w3.org/Graphics/SVG/1.1/DTD/svg11.dtd">
<!-- Generated by graphviz version 2.44.0 (0)
 -->
<!-- Title: MainWindow::readConfigurationSettings Pages: 1 -->
<svg width="361pt" height="1971pt"
 viewBox="0.00 0.00 361.00 1971.00" xmlns="http://www.w3.org/2000/svg" xmlns:xlink="http://www.w3.org/1999/xlink">
<g id="graph0" class="graph" transform="scale(1 1) rotate(0) translate(4 1967)">
<title>MainWindow::readConfigurationSettings</title>
<polygon fill="white" stroke="transparent" points="-4,4 -4,-1967 357,-1967 357,4 -4,4"/>
<!-- Node1 -->
<g id="node1" class="node">
<title>Node1</title>
<g id="a_node1"><a xlink:title="Read the configuration settings from a file.">
<polygon fill="#bfbfbf" stroke="black" points="0,-946.5 0,-976.5 155,-976.5 155,-946.5 0,-946.5"/>
<text text-anchor="start" x="8" y="-964.5" font-family="Helvetica,sans-Serif" font-size="10.00">MainWindow::readConfiguration</text>
<text text-anchor="middle" x="77.5" y="-953.5" font-family="Helvetica,sans-Serif" font-size="10.00">Settings</text>
</a>
</g>
</g>
<!-- Node2 -->
<g id="node2" class="node">
<title>Node2</title>
<g id="a_node2"><a xlink:href="../../d3/d5f/class_preferences_dialog.html#af8496829636857ad780b02664b5d56c4" target="_top" xlink:title=" ">
<polygon fill="white" stroke="black" points="197.5,-1932.5 197.5,-1962.5 346.5,-1962.5 346.5,-1932.5 197.5,-1932.5"/>
<text text-anchor="start" x="205.5" y="-1950.5" font-family="Helvetica,sans-Serif" font-size="10.00">PreferencesDialog::</text>
<text text-anchor="middle" x="272" y="-1939.5" font-family="Helvetica,sans-Serif" font-size="10.00">setAdditionalSpace_checkBox</text>
</a>
</g>
</g>
<!-- Node1&#45;&gt;Node2 -->
<g id="edge1" class="edge">
<title>Node1&#45;&gt;Node2</title>
<path fill="none" stroke="midnightblue" d="M79.29,-976.81C85.43,-1094.06 127.25,-1847.48 191,-1923.5 191.72,-1924.36 192.47,-1925.19 193.25,-1925.99"/>
<polygon fill="midnightblue" stroke="midnightblue" points="191.02,-1928.69 200.93,-1932.45 195.53,-1923.34 191.02,-1928.69"/>
</g>
<!-- Node3 -->
<g id="node3" class="node">
<title>Node3</title>
<g id="a_node3"><a xlink:href="../../d3/d5f/class_preferences_dialog.html#ab12dc7d41e5b118782ca37ff359d1d17" target="_top" xlink:title=" ">
<polygon fill="white" stroke="black" points="199,-1883.5 199,-1913.5 345,-1913.5 345,-1883.5 199,-1883.5"/>
<text text-anchor="start" x="207" y="-1901.5" font-family="Helvetica,sans-Serif" font-size="10.00">PreferencesDialog::</text>
<text text-anchor="middle" x="272" y="-1890.5" font-family="Helvetica,sans-Serif" font-size="10.00">setAStarHeuristic_comboBox</text>
</a>
</g>
</g>
<!-- Node1&#45;&gt;Node3 -->
<g id="edge2" class="edge">
<title>Node1&#45;&gt;Node3</title>
<path fill="none" stroke="midnightblue" d="M78.21,-976.68C76.47,-1084.13 71.17,-1729.87 191,-1873.5 191.99,-1874.69 193.04,-1875.82 194.13,-1876.9"/>
<polygon fill="midnightblue" stroke="midnightblue" points="192.03,-1879.7 202.01,-1883.28 196.44,-1874.26 192.03,-1879.7"/>
</g>
<!-- Node4 -->
<g id="node4" class="node">
<title>Node4</title>
<g id="a_node4"><a xlink:href="../../d3/d5f/class_preferences_dialog.html#a33b331efa7ac6984d20e9abbf7f132a3" target="_top" xlink:title=" ">
<polygon fill="white" stroke="black" points="194,-1823 194,-1864 350,-1864 350,-1823 194,-1823"/>
<text text-anchor="start" x="202" y="-1852" font-family="Helvetica,sans-Serif" font-size="10.00">PreferencesDialog::</text>
<text text-anchor="start" x="202" y="-1841" font-family="Helvetica,sans-Serif" font-size="10.00">setFreehandToolSurfaceOverlap</text>
<text text-anchor="middle" x="272" y="-1830" font-family="Helvetica,sans-Serif" font-size="10.00">_textEdit</text>
</a>
</g>
</g>
<!-- Node1&#45;&gt;Node4 -->
<g id="edge3" class="edge">
<title>Node1&#45;&gt;Node4</title>
<path fill="none" stroke="midnightblue" d="M78.44,-976.6C78.34,-1079.44 82.49,-1677 191,-1813.5 191.61,-1814.26 192.23,-1815 192.88,-1815.73"/>
<polygon fill="midnightblue" stroke="midnightblue" points="190.79,-1818.57 200.51,-1822.78 195.55,-1813.43 190.79,-1818.57"/>
</g>
<!-- Node5 -->
<g id="node5" class="node">
<title>Node5</title>
<g id="a_node5"><a xlink:href="../../d3/d5f/class_preferences_dialog.html#a9e7a16093e2ef4e9fd8cf31f77aeaf64" target="_top" xlink:title=" ">
<polygon fill="white" stroke="black" points="191,-1763 191,-1804 353,-1804 353,-1763 191,-1763"/>
<text text-anchor="start" x="199" y="-1792" font-family="Helvetica,sans-Serif" font-size="10.00">PreferencesDialog::</text>
<text text-anchor="start" x="199" y="-1781" font-family="Helvetica,sans-Serif" font-size="10.00">setFreehandToolTouchpointDepth</text>
<text text-anchor="middle" x="272" y="-1770" font-family="Helvetica,sans-Serif" font-size="10.00">_textEdit</text>
</a>
</g>
</g>
<!-- Node1&#45;&gt;Node5 -->
<g id="edge4" class="edge">
<title>Node1&#45;&gt;Node5</title>
<path fill="none" stroke="midnightblue" d="M78.61,-976.79C79.63,-1075.94 89.81,-1627.48 191,-1753.5 191.61,-1754.26 192.24,-1755 192.89,-1755.72"/>
<polygon fill="midnightblue" stroke="midnightblue" points="190.82,-1758.57 200.55,-1762.75 195.55,-1753.41 190.82,-1758.57"/>
</g>
<!-- Node6 -->
<g id="node6" class="node">
<title>Node6</title>
<g id="a_node6"><a xlink:href="../../d3/d5f/class_preferences_dialog.html#aeb6adfb00d1d19118b3b59b5a6cfdb47" target="_top" xlink:title=" ">
<polygon fill="white" stroke="black" points="209,-1713.5 209,-1743.5 335,-1743.5 335,-1713.5 209,-1713.5"/>
<text text-anchor="start" x="217" y="-1731.5" font-family="Helvetica,sans-Serif" font-size="10.00">PreferencesDialog::</text>
<text text-anchor="middle" x="272" y="-1720.5" font-family="Helvetica,sans-Serif" font-size="10.00">setGA_eliteSize_textEdit</text>
</a>
</g>
</g>
<!-- Node1&#45;&gt;Node6 -->
<g id="edge5" class="edge">
<title>Node1&#45;&gt;Node6</title>
<path fill="none" stroke="midnightblue" d="M78.66,-976.54C79.98,-1071.74 91.7,-1590.08 191,-1704.5 193.7,-1707.61 196.79,-1710.33 200.15,-1712.7"/>
<polygon fill="midnightblue" stroke="midnightblue" points="198.59,-1715.85 208.98,-1717.92 202.15,-1709.82 198.59,-1715.85"/>
</g>
<!-- Node7 -->
<g id="node7" class="node">
<title>Node7</title>
<g id="a_node7"><a xlink:href="../../d3/d5f/class_preferences_dialog.html#ab46acf9cd7533cc0fe812e55f7c5e928" target="_top" xlink:title=" ">
<polygon fill="white" stroke="black" points="198.5,-1664.5 198.5,-1694.5 345.5,-1694.5 345.5,-1664.5 198.5,-1664.5"/>
<text text-anchor="start" x="206.5" y="-1682.5" font-family="Helvetica,sans-Serif" font-size="10.00">PreferencesDialog::</text>
<text text-anchor="middle" x="272" y="-1671.5" font-family="Helvetica,sans-Serif" font-size="10.00">setGA_mutationRate_textEdit</text>
</a>
</g>
</g>
<!-- Node1&#45;&gt;Node7 -->
<g id="edge6" class="edge">
<title>Node1&#45;&gt;Node7</title>
<path fill="none" stroke="midnightblue" d="M78.86,-976.69C81.35,-1068.43 98.66,-1548.03 191,-1654.5 192.04,-1655.7 193.14,-1656.85 194.29,-1657.94"/>
<polygon fill="midnightblue" stroke="midnightblue" points="192.5,-1660.98 202.54,-1664.38 196.81,-1655.46 192.5,-1660.98"/>
</g>
<!-- Node8 -->
<g id="node8" class="node">
<title>Node8</title>
<g id="a_node8"><a xlink:href="../../d3/d5f/class_preferences_dialog.html#a1e7ecfb372974ba6aace69172fbd0f61" target="_top" xlink:title=" ">
<polygon fill="white" stroke="black" points="199.5,-1604 199.5,-1645 344.5,-1645 344.5,-1604 199.5,-1604"/>
<text text-anchor="start" x="207.5" y="-1633" font-family="Helvetica,sans-Serif" font-size="10.00">PreferencesDialog::</text>
<text text-anchor="start" x="207.5" y="-1622" font-family="Helvetica,sans-Serif" font-size="10.00">setGA_numberOfGenerations</text>
<text text-anchor="middle" x="272" y="-1611" font-family="Helvetica,sans-Serif" font-size="10.00">_textEdit</text>
</a>
</g>
</g>
<!-- Node1&#45;&gt;Node8 -->
<g id="edge7" class="edge">
<title>Node1&#45;&gt;Node8</title>
<path fill="none" stroke="midnightblue" d="M79.21,-976.71C83.52,-1063.51 108.9,-1495.83 191,-1594.5 191.74,-1595.38 192.5,-1596.24 193.29,-1597.07"/>
<polygon fill="midnightblue" stroke="midnightblue" points="191.23,-1599.93 201.05,-1603.9 195.86,-1594.67 191.23,-1599.93"/>
</g>
<!-- Node9 -->
<g id="node9" class="node">
<title>Node9</title>
<g id="a_node9"><a xlink:href="../../d3/d5f/class_preferences_dialog.html#adb10ef1c46811419787f2da10484799d" target="_top" xlink:title=" ">
<polygon fill="white" stroke="black" points="215.5,-1544 215.5,-1585 328.5,-1585 328.5,-1544 215.5,-1544"/>
<text text-anchor="start" x="223.5" y="-1573" font-family="Helvetica,sans-Serif" font-size="10.00">PreferencesDialog::</text>
<text text-anchor="start" x="223.5" y="-1562" font-family="Helvetica,sans-Serif" font-size="10.00">setGA_populationSize</text>
<text text-anchor="middle" x="272" y="-1551" font-family="Helvetica,sans-Serif" font-size="10.00">_textEdit</text>
</a>
</g>
</g>
<!-- Node1&#45;&gt;Node9 -->
<g id="edge8" class="edge">
<title>Node1&#45;&gt;Node9</title>
<path fill="none" stroke="midnightblue" d="M79.5,-976.59C85.22,-1058.16 116.04,-1446.04 191,-1534.5 195.38,-1539.67 200.75,-1543.95 206.61,-1547.49"/>
<polygon fill="midnightblue" stroke="midnightblue" points="205.01,-1550.61 215.48,-1552.18 208.27,-1544.42 205.01,-1550.61"/>
</g>
<!-- Node10 -->
<g id="node10" class="node">
<title>Node10</title>
<g id="a_node10"><a xlink:href="../../d3/d5f/class_preferences_dialog.html#a2973df2af63829efb01c004387640950" target="_top" xlink:title=" ">
<polygon fill="white" stroke="black" points="217,-1494.5 217,-1524.5 327,-1524.5 327,-1494.5 217,-1494.5"/>
<text text-anchor="start" x="225" y="-1512.5" font-family="Helvetica,sans-Serif" font-size="10.00">PreferencesDialog::</text>
<text text-anchor="middle" x="272" y="-1501.5" font-family="Helvetica,sans-Serif" font-size="10.00">setGD_flood_textEdit</text>
</a>
</g>
</g>
<!-- Node1&#45;&gt;Node10 -->
<g id="edge9" class="edge">
<title>Node1&#45;&gt;Node10</title>
<path fill="none" stroke="midnightblue" d="M79.72,-976.6C86.3,-1054.09 119.77,-1406.48 191,-1484.5 195.68,-1489.63 201.39,-1493.71 207.59,-1496.96"/>
<polygon fill="midnightblue" stroke="midnightblue" points="206.4,-1500.26 216.96,-1501.16 209.26,-1493.88 206.4,-1500.26"/>
</g>
<!-- Node11 -->
<g id="node11" class="node">
<title>Node11</title>
<g id="a_node11"><a xlink:href="../../d3/d5f/class_preferences_dialog.html#a9206abf3e254e5976f2728c579f02bf5" target="_top" xlink:title=" ">
<polygon fill="white" stroke="black" points="205,-1434 205,-1475 339,-1475 339,-1434 205,-1434"/>
<text text-anchor="start" x="213" y="-1463" font-family="Helvetica,sans-Serif" font-size="10.00">PreferencesDialog::</text>
<text text-anchor="start" x="213" y="-1452" font-family="Helvetica,sans-Serif" font-size="10.00">setGD_numberOfIterations</text>
<text text-anchor="middle" x="272" y="-1441" font-family="Helvetica,sans-Serif" font-size="10.00">_textEdit</text>
</a>
</g>
</g>
<!-- Node1&#45;&gt;Node11 -->
<g id="edge10" class="edge">
<title>Node1&#45;&gt;Node11</title>
<path fill="none" stroke="midnightblue" d="M80.28,-976.68C88.97,-1048.62 129.14,-1354.7 191,-1424.5 192.72,-1426.44 194.58,-1428.26 196.55,-1429.96"/>
<polygon fill="midnightblue" stroke="midnightblue" points="194.53,-1432.82 204.65,-1435.95 198.7,-1427.19 194.53,-1432.82"/>
</g>
<!-- Node12 -->
<g id="node12" class="node">
<title>Node12</title>
<g id="a_node12"><a xlink:href="../../d3/d5f/class_preferences_dialog.html#aa1e5832fe4186bbcfc64e08bedd0cbf4" target="_top" xlink:title=" ">
<polygon fill="white" stroke="black" points="219.5,-1384.5 219.5,-1414.5 324.5,-1414.5 324.5,-1384.5 219.5,-1384.5"/>
<text text-anchor="start" x="227.5" y="-1402.5" font-family="Helvetica,sans-Serif" font-size="10.00">PreferencesDialog::</text>
<text text-anchor="middle" x="272" y="-1391.5" font-family="Helvetica,sans-Serif" font-size="10.00">setGD_rain_textEdit</text>
</a>
</g>
</g>
<!-- Node1&#45;&gt;Node12 -->
<g id="edge11" class="edge">
<title>Node1&#45;&gt;Node12</title>
<path fill="none" stroke="midnightblue" d="M80.69,-976.89C90.62,-1044.52 133.37,-1314.7 191,-1374.5 196.28,-1379.97 202.73,-1384.26 209.66,-1387.6"/>
<polygon fill="midnightblue" stroke="midnightblue" points="208.77,-1391.02 219.35,-1391.61 211.45,-1384.55 208.77,-1391.02"/>
</g>
<!-- Node13 -->
<g id="node13" class="node">
<title>Node13</title>
<g id="a_node13"><a xlink:href="../../d3/d5f/class_preferences_dialog.html#a1d7b5d493cbc5df5d69406ec3ceec106" target="_top" xlink:title=" ">
<polygon fill="white" stroke="black" points="205,-1324 205,-1365 339,-1365 339,-1324 205,-1324"/>
<text text-anchor="start" x="213" y="-1353" font-family="Helvetica,sans-Serif" font-size="10.00">PreferencesDialog::</text>
<text text-anchor="start" x="213" y="-1342" font-family="Helvetica,sans-Serif" font-size="10.00">setHC_numberOfIterations</text>
<text text-anchor="middle" x="272" y="-1331" font-family="Helvetica,sans-Serif" font-size="10.00">_textEdit</text>
</a>
</g>
</g>
<!-- Node1&#45;&gt;Node13 -->
<g id="edge12" class="edge">
<title>Node1&#45;&gt;Node13</title>
<path fill="none" stroke="midnightblue" d="M78.84,-976.54C80.86,-1030.04 94.81,-1213.35 191,-1314.5 192.79,-1316.38 194.71,-1318.15 196.73,-1319.8"/>
<polygon fill="midnightblue" stroke="midnightblue" points="194.8,-1322.72 204.98,-1325.65 198.85,-1317.01 194.8,-1322.72"/>
</g>
<!-- Node14 -->
<g id="node14" class="node">
<title>Node14</title>
<g id="a_node14"><a xlink:href="../../d3/d5f/class_preferences_dialog.html#a43f18744d73282ca675ddab63427fafc" target="_top" xlink:title=" ">
<polygon fill="white" stroke="black" points="206.5,-1264 206.5,-1305 337.5,-1305 337.5,-1264 206.5,-1264"/>
<text text-anchor="start" x="214.5" y="-1293" font-family="Helvetica,sans-Serif" font-size="10.00">PreferencesDialog::</text>
<text text-anchor="start" x="214.5" y="-1282" font-family="Helvetica,sans-Serif" font-size="10.00">setHC_numberOfRestarts</text>
<text text-anchor="middle" x="272" y="-1271" font-family="Helvetica,sans-Serif" font-size="10.00">_textEdit</text>
</a>
</g>
</g>
<!-- Node1&#45;&gt;Node14 -->
<g id="edge13" class="edge">
<title>Node1&#45;&gt;Node14</title>
<path fill="none" stroke="midnightblue" d="M79.98,-976.6C85.44,-1024.2 108.61,-1172.75 191,-1254.5 193.12,-1256.61 195.41,-1258.57 197.81,-1260.39"/>
<polygon fill="midnightblue" stroke="midnightblue" points="196.15,-1263.48 206.42,-1266.08 200.01,-1257.65 196.15,-1263.48"/>
</g>
<!-- Node15 -->
<g id="node15" class="node">
<title>Node15</title>
<g id="a_node15"><a xlink:href="../../d3/d5f/class_preferences_dialog.html#a65b40b1416090285e2ab9a23b1ef525e" target="_top" xlink:title=" ">
<polygon fill="white" stroke="black" points="214.5,-1204 214.5,-1245 329.5,-1245 329.5,-1204 214.5,-1204"/>
<text text-anchor="start" x="222.5" y="-1233" font-family="Helvetica,sans-Serif" font-size="10.00">PreferencesDialog::</text>
<text text-anchor="start" x="222.5" y="-1222" font-family="Helvetica,sans-Serif" font-size="10.00">setHC_randomRestart</text>
<text text-anchor="middle" x="272" y="-1211" font-family="Helvetica,sans-Serif" font-size="10.00">_checkBox</text>
</a>
</g>
</g>
<!-- Node1&#45;&gt;Node15 -->
<g id="edge14" class="edge">
<title>Node1&#45;&gt;Node15</title>
<path fill="none" stroke="midnightblue" d="M81.67,-976.65C91.01,-1017.61 122.16,-1131.66 191,-1194.5 195.18,-1198.31 199.88,-1201.66 204.87,-1204.58"/>
<polygon fill="midnightblue" stroke="midnightblue" points="203.61,-1207.88 214.09,-1209.42 206.86,-1201.67 203.61,-1207.88"/>
</g>
<!-- Node16 -->
<g id="node16" class="node">
<title>Node16</title>
<g id="a_node16"><a xlink:href="../../d3/d5f/class_preferences_dialog.html#a29e0db6478625f3f87761cee9cc3d74f" target="_top" xlink:title=" ">
<polygon fill="white" stroke="black" points="201,-1144 201,-1185 343,-1185 343,-1144 201,-1144"/>
<text text-anchor="start" x="209" y="-1173" font-family="Helvetica,sans-Serif" font-size="10.00">PreferencesDialog::</text>
<text text-anchor="start" x="209" y="-1162" font-family="Helvetica,sans-Serif" font-size="10.00">setLassoToolSurfaceOverlap</text>
<text text-anchor="middle" x="272" y="-1151" font-family="Helvetica,sans-Serif" font-size="10.00">_textEdit</text>
</a>
</g>
</g>
<!-- Node1&#45;&gt;Node16 -->
<g id="edge15" class="edge">
<title>Node1&#45;&gt;Node16</title>
<path fill="none" stroke="midnightblue" d="M84.38,-976.52C98.08,-1009.68 135.27,-1089.75 191,-1134.5 192.79,-1135.93 194.65,-1137.3 196.57,-1138.61"/>
<polygon fill="midnightblue" stroke="midnightblue" points="194.97,-1141.74 205.33,-1143.96 198.62,-1135.76 194.97,-1141.74"/>
</g>
<!-- Node17 -->
<g id="node17" class="node">
<title>Node17</title>
<g id="a_node17"><a xlink:href="../../d3/d5f/class_preferences_dialog.html#aca2defe93cf38dd65070d21b1c8b9163" target="_top" xlink:title=" ">
<polygon fill="white" stroke="black" points="198,-1084 198,-1125 346,-1125 346,-1084 198,-1084"/>
<text text-anchor="start" x="206" y="-1113" font-family="Helvetica,sans-Serif" font-size="10.00">PreferencesDialog::</text>
<text text-anchor="start" x="206" y="-1102" font-family="Helvetica,sans-Serif" font-size="10.00">setLassoToolTouchpointDepth</text>
<text text-anchor="middle" x="272" y="-1091" font-family="Helvetica,sans-Serif" font-size="10.00">_textEdit</text>
</a>
</g>
</g>
<!-- Node1&#45;&gt;Node17 -->
<g id="edge16" class="edge">
<title>Node1&#45;&gt;Node17</title>
<path fill="none" stroke="midnightblue" d="M90.04,-976.73C108.81,-1000.59 148.2,-1046.88 191,-1074.5 193.6,-1076.18 196.3,-1077.78 199.07,-1079.31"/>
<polygon fill="midnightblue" stroke="midnightblue" points="197.65,-1082.51 208.14,-1083.94 200.83,-1076.27 197.65,-1082.51"/>
</g>
<!-- Node18 -->
<g id="node18" class="node">
<title>Node18</title>
<g id="a_node18"><a xlink:href="../../d3/d5f/class_preferences_dialog.html#a52562f76f9120e9583ef680eed598c5f" target="_top" xlink:title=" ">
<polygon fill="white" stroke="black" points="214,-1024 214,-1065 330,-1065 330,-1024 214,-1024"/>
<text text-anchor="start" x="222" y="-1053" font-family="Helvetica,sans-Serif" font-size="10.00">PreferencesDialog::</text>
<text text-anchor="start" x="222" y="-1042" font-family="Helvetica,sans-Serif" font-size="10.00">setLineDiameterFactor</text>
<text text-anchor="middle" x="272" y="-1031" font-family="Helvetica,sans-Serif" font-size="10.00">_textEdit</text>
</a>
</g>
</g>
<!-- Node1&#45;&gt;Node18 -->
<g id="edge17" class="edge">
<title>Node1&#45;&gt;Node18</title>
<path fill="none" stroke="midnightblue" d="M108.76,-976.58C131.23,-987.57 162.76,-1002.57 191,-1014.5 195.46,-1016.38 200.09,-1018.28 204.76,-1020.14"/>
<polygon fill="midnightblue" stroke="midnightblue" points="203.8,-1023.53 214.39,-1023.93 206.37,-1017.01 203.8,-1023.53"/>
</g>
<!-- Node19 -->
<g id="node19" class="node">
<title>Node19</title>
<g id="a_node19"><a xlink:href="../../d3/d5f/class_preferences_dialog.html#aa830d1e29eb1c0ea030c1b871655ca2b" target="_top" xlink:title=" ">
<polygon fill="white" stroke="black" points="212.5,-974.5 212.5,-1004.5 331.5,-1004.5 331.5,-974.5 212.5,-974.5"/>
<text text-anchor="start" x="220.5" y="-992.5" font-family="Helvetica,sans-Serif" font-size="10.00">PreferencesDialog::</text>
<text text-anchor="middle" x="272" y="-981.5" font-family="Helvetica,sans-Serif" font-size="10.00">setNozzleSize_textEdit</text>
</a>
</g>
</g>
<!-- Node1&#45;&gt;Node19 -->
<g id="edge18" class="edge">
<title>Node1&#45;&gt;Node19</title>
<path fill="none" stroke="midnightblue" d="M155.13,-972.65C170.79,-974.92 187.16,-977.31 202.51,-979.54"/>
<polygon fill="midnightblue" stroke="midnightblue" points="202.03,-983 212.43,-980.98 203.04,-976.08 202.03,-983"/>
</g>
<!-- Node20 -->
<g id="node20" class="node">
<title>Node20</title>
<g id="a_node20"><a xlink:href="../../d3/d5f/class_preferences_dialog.html#a77a1d340a2c38a897174511626d463b4" target="_top" xlink:title=" ">
<polygon fill="white" stroke="black" points="206,-914 206,-955 338,-955 338,-914 206,-914"/>
<text text-anchor="start" x="214" y="-943" font-family="Helvetica,sans-Serif" font-size="10.00">PreferencesDialog::</text>
<text text-anchor="start" x="214" y="-932" font-family="Helvetica,sans-Serif" font-size="10.00">setPolylineSurfaceOverlap</text>
<text text-anchor="middle" x="272" y="-921" font-family="Helvetica,sans-Serif" font-size="10.00">_textEdit</text>
</a>
</g>
</g>
<!-- Node1&#45;&gt;Node20 -->
<g id="edge19" class="edge">
<title>Node1&#45;&gt;Node20</title>
<path fill="none" stroke="midnightblue" d="M155.13,-950.75C168.5,-948.88 182.4,-946.93 195.73,-945.06"/>
<polygon fill="midnightblue" stroke="midnightblue" points="196.38,-948.5 205.79,-943.65 195.41,-941.57 196.38,-948.5"/>
</g>
<!-- Node21 -->
<g id="node21" class="node">
<title>Node21</title>
<g id="a_node21"><a xlink:href="../../d3/d5f/class_preferences_dialog.html#a9f5b2fed1ecfc9ddd4e2f0fafc0d6dd5" target="_top" xlink:title=" ">
<polygon fill="white" stroke="black" points="203,-854 203,-895 341,-895 341,-854 203,-854"/>
<text text-anchor="start" x="211" y="-883" font-family="Helvetica,sans-Serif" font-size="10.00">PreferencesDialog::</text>
<text text-anchor="start" x="211" y="-872" font-family="Helvetica,sans-Serif" font-size="10.00">setPolylineTouchpointDepth</text>
<text text-anchor="middle" x="272" y="-861" font-family="Helvetica,sans-Serif" font-size="10.00">_textEdit</text>
</a>
</g>
</g>
<!-- Node1&#45;&gt;Node21 -->
<g id="edge20" class="edge">
<title>Node1&#45;&gt;Node21</title>
<path fill="none" stroke="midnightblue" d="M106.29,-946.34C128.81,-934.32 161.53,-917.44 191,-904.5 195.35,-902.59 199.87,-900.68 204.45,-898.82"/>
<polygon fill="midnightblue" stroke="midnightblue" points="205.89,-902.01 213.88,-895.04 203.29,-895.51 205.89,-902.01"/>
</g>
<!-- Node22 -->
<g id="node22" class="node">
<title>Node22</title>
<g id="a_node22"><a xlink:href="../../d3/d5f/class_preferences_dialog.html#ab7f3e6157a9ff2116576198b6d2d0f93" target="_top" xlink:title=" ">
<polygon fill="white" stroke="black" points="214.5,-794 214.5,-835 329.5,-835 329.5,-794 214.5,-794"/>
<text text-anchor="start" x="222.5" y="-823" font-family="Helvetica,sans-Serif" font-size="10.00">PreferencesDialog::</text>
<text text-anchor="start" x="222.5" y="-812" font-family="Helvetica,sans-Serif" font-size="10.00">setRO_numberOfTries</text>
<text text-anchor="middle" x="272" y="-801" font-family="Helvetica,sans-Serif" font-size="10.00">_textEdit</text>
</a>
</g>
</g>
<!-- Node1&#45;&gt;Node22 -->
<g id="edge21" class="edge">
<title>Node1&#45;&gt;Node22</title>
<path fill="none" stroke="midnightblue" d="M89.61,-946.1C108.09,-921.49 147.45,-873.15 191,-844.5 195.49,-841.54 200.32,-838.82 205.29,-836.33"/>
<polygon fill="midnightblue" stroke="midnightblue" points="206.78,-839.5 214.36,-832.09 203.82,-833.16 206.78,-839.5"/>
</g>
<!-- Node23 -->
<g id="node23" class="node">
<title>Node23</title>
<g id="a_node23"><a xlink:href="../../d3/d5f/class_preferences_dialog.html#a505f2115f71c84c002f246b519a296c7" target="_top" xlink:title=" ">
<polygon fill="white" stroke="black" points="203.5,-734 203.5,-775 340.5,-775 340.5,-734 203.5,-734"/>
<text text-anchor="start" x="211.5" y="-763" font-family="Helvetica,sans-Serif" font-size="10.00">PreferencesDialog::</text>
<text text-anchor="start" x="211.5" y="-752" font-family="Helvetica,sans-Serif" font-size="10.00">setRoundTouchpointRadius</text>
<text text-anchor="middle" x="272" y="-741" font-family="Helvetica,sans-Serif" font-size="10.00">_textEdit</text>
</a>
</g>
</g>
<!-- Node1&#45;&gt;Node23 -->
<g id="edge22" class="edge">
<title>Node1&#45;&gt;Node23</title>
<path fill="none" stroke="midnightblue" d="M84.18,-946.38C97.6,-912.61 134.45,-830.39 191,-784.5 192.6,-783.2 194.26,-781.96 195.97,-780.76"/>
<polygon fill="midnightblue" stroke="midnightblue" points="198.25,-783.47 204.89,-775.21 194.55,-777.53 198.25,-783.47"/>
</g>
<!-- Node24 -->
<g id="node24" class="node">
<title>Node24</title>
<g id="a_node24"><a xlink:href="../../d3/d5f/class_preferences_dialog.html#a6405d9ff86d4c714e79d1667e07eb88f" target="_top" xlink:title=" ">
<polygon fill="white" stroke="black" points="202,-684.5 202,-714.5 342,-714.5 342,-684.5 202,-684.5"/>
<text text-anchor="start" x="210" y="-702.5" font-family="Helvetica,sans-Serif" font-size="10.00">PreferencesDialog::</text>
<text text-anchor="middle" x="272" y="-691.5" font-family="Helvetica,sans-Serif" font-size="10.00">setSA_coolingRate_textEdit</text>
</a>
</g>
</g>
<!-- Node1&#45;&gt;Node24 -->
<g id="edge23" class="edge">
<title>Node1&#45;&gt;Node24</title>
<path fill="none" stroke="midnightblue" d="M81.28,-946.48C89.77,-904.82 119.31,-786.78 191,-724.5 192.97,-722.79 195.06,-721.19 197.24,-719.71"/>
<polygon fill="midnightblue" stroke="midnightblue" points="199.21,-722.61 206.03,-714.5 195.64,-716.58 199.21,-722.61"/>
</g>
<!-- Node25 -->
<g id="node25" class="node">
<title>Node25</title>
<g id="a_node25"><a xlink:href="../../d3/d5f/class_preferences_dialog.html#a080d43c7e70f69facf7847f4c49f8e6d" target="_top" xlink:title=" ">
<polygon fill="white" stroke="black" points="209.5,-624 209.5,-665 334.5,-665 334.5,-624 209.5,-624"/>
<text text-anchor="start" x="217.5" y="-653" font-family="Helvetica,sans-Serif" font-size="10.00">PreferencesDialog::</text>
<text text-anchor="start" x="217.5" y="-642" font-family="Helvetica,sans-Serif" font-size="10.00">setSA_initialTemperature</text>
<text text-anchor="middle" x="272" y="-631" font-family="Helvetica,sans-Serif" font-size="10.00">_textEdit</text>
</a>
</g>
</g>
<!-- Node1&#45;&gt;Node25 -->
<g id="edge24" class="edge">
<title>Node1&#45;&gt;Node25</title>
<path fill="none" stroke="midnightblue" d="M80.18,-946.46C86.17,-899.74 110.62,-755.47 191,-675.5 193.89,-672.63 197.07,-670.01 200.45,-667.64"/>
<polygon fill="midnightblue" stroke="midnightblue" points="202.56,-670.45 209.22,-662.21 198.87,-664.5 202.56,-670.45"/>
</g>
<!-- Node26 -->
<g id="node26" class="node">
<title>Node26</title>
<g id="a_node26"><a xlink:href="../../d3/d5f/class_preferences_dialog.html#a611c43ebe065cdc33bc1f0e825c8d7b5" target="_top" xlink:title=" ">
<polygon fill="white" stroke="black" points="208,-574.5 208,-604.5 336,-604.5 336,-574.5 208,-574.5"/>
<text text-anchor="start" x="216" y="-592.5" font-family="Helvetica,sans-Serif" font-size="10.00">PreferencesDialog::</text>
<text text-anchor="middle" x="272" y="-581.5" font-family="Helvetica,sans-Serif" font-size="10.00">setScaleMesh_checkBox</text>
</a>
</g>
</g>
<!-- Node1&#45;&gt;Node26 -->
<g id="edge25" class="edge">
<title>Node1&#45;&gt;Node26</title>
<path fill="none" stroke="midnightblue" d="M78.75,-946.15C80.46,-892.44 93.53,-710.93 191,-614.5 193.51,-612.02 196.26,-609.79 199.18,-607.77"/>
<polygon fill="midnightblue" stroke="midnightblue" points="200.99,-610.76 207.82,-602.66 197.43,-604.74 200.99,-610.76"/>
</g>
<!-- Node27 -->
<g id="node27" class="node">
<title>Node27</title>
<g id="a_node27"><a xlink:href="../../d3/d5f/class_preferences_dialog.html#abeb7822264427366fec784e2ba4c2a17" target="_top" xlink:title=" ">
<polygon fill="white" stroke="black" points="203.5,-525.5 203.5,-555.5 340.5,-555.5 340.5,-525.5 203.5,-525.5"/>
<text text-anchor="start" x="211.5" y="-543.5" font-family="Helvetica,sans-Serif" font-size="10.00">PreferencesDialog::</text>
<text text-anchor="middle" x="272" y="-532.5" font-family="Helvetica,sans-Serif" font-size="10.00">setScaleMeshSize_textEdit</text>
</a>
</g>
</g>
<!-- Node1&#45;&gt;Node27 -->
<g id="edge26" class="edge">
<title>Node1&#45;&gt;Node27</title>
<path fill="none" stroke="midnightblue" d="M78.03,-946.5C77.08,-888.67 81.53,-677.87 191,-565.5 192.41,-564.05 193.9,-562.69 195.46,-561.41"/>
<polygon fill="midnightblue" stroke="midnightblue" points="197.57,-564.2 203.78,-555.62 193.57,-558.46 197.57,-564.2"/>
</g>
<!-- Node28 -->
<g id="node28" class="node">
<title>Node28</title>
<g id="a_node28"><a xlink:href="../../d3/d5f/class_preferences_dialog.html#a36d083e2e4c1d5ad2a26dc82a7e04d5f" target="_top" xlink:title=" ">
<polygon fill="white" stroke="black" points="206,-476.5 206,-506.5 338,-506.5 338,-476.5 206,-476.5"/>
<text text-anchor="start" x="214" y="-494.5" font-family="Helvetica,sans-Serif" font-size="10.00">PreferencesDialog::</text>
<text text-anchor="middle" x="272" y="-483.5" font-family="Helvetica,sans-Serif" font-size="10.00">setTA_decrement_textEdit</text>
</a>
</g>
</g>
<!-- Node1&#45;&gt;Node28 -->
<g id="edge27" class="edge">
<title>Node1&#45;&gt;Node28</title>
<path fill="none" stroke="midnightblue" d="M80.34,-946.37C89.17,-876.02 129.38,-581.62 191,-516.5 193.02,-514.37 195.21,-512.42 197.54,-510.63"/>
<polygon fill="midnightblue" stroke="midnightblue" points="199.46,-513.56 205.94,-505.18 195.65,-507.69 199.46,-513.56"/>
</g>
<!-- Node29 -->
<g id="node29" class="node">
<title>Node29</title>
<g id="a_node29"><a xlink:href="../../d3/d5f/class_preferences_dialog.html#aaf1ae265d6d588035b81593ba1897f84" target="_top" xlink:title=" ">
<polygon fill="white" stroke="black" points="206.5,-416 206.5,-457 337.5,-457 337.5,-416 206.5,-416"/>
<text text-anchor="start" x="214.5" y="-445" font-family="Helvetica,sans-Serif" font-size="10.00">PreferencesDialog::</text>
<text text-anchor="start" x="214.5" y="-434" font-family="Helvetica,sans-Serif" font-size="10.00">setTA_numberOfIterations</text>
<text text-anchor="middle" x="272" y="-423" font-family="Helvetica,sans-Serif" font-size="10.00">_textEdit</text>
</a>
</g>
</g>
<!-- Node1&#45;&gt;Node29 -->
<g id="edge28" class="edge">
<title>Node1&#45;&gt;Node29</title>
<path fill="none" stroke="midnightblue" d="M80.04,-946.34C87.93,-871.58 125.88,-542.88 191,-467.5 193.19,-464.96 195.61,-462.63 198.21,-460.49"/>
<polygon fill="midnightblue" stroke="midnightblue" points="200.35,-463.27 206.48,-454.63 196.3,-457.56 200.35,-463.27"/>
</g>
<!-- Node30 -->
<g id="node30" class="node">
<title>Node30</title>
<g id="a_node30"><a xlink:href="../../d3/d5f/class_preferences_dialog.html#ae99d82f14b590caa36d0ddc54cb033c9" target="_top" xlink:title=" ">
<polygon fill="white" stroke="black" points="209,-366.5 209,-396.5 335,-396.5 335,-366.5 209,-366.5"/>
<text text-anchor="start" x="217" y="-384.5" font-family="Helvetica,sans-Serif" font-size="10.00">PreferencesDialog::</text>
<text text-anchor="middle" x="272" y="-373.5" font-family="Helvetica,sans-Serif" font-size="10.00">setTA_threshold_textEdit</text>
</a>
</g>
</g>
<!-- Node1&#45;&gt;Node30 -->
<g id="edge29" class="edge">
<title>Node1&#45;&gt;Node30</title>
<path fill="none" stroke="midnightblue" d="M79.53,-946.29C85.27,-865.76 115.85,-489.81 191,-406.5 193.72,-403.49 196.79,-400.83 200.12,-398.5"/>
<polygon fill="midnightblue" stroke="midnightblue" points="202.02,-401.44 208.82,-393.32 198.44,-395.42 202.02,-401.44"/>
</g>
<!-- Node31 -->
<g id="node31" class="node">
<title>Node31</title>
<g id="a_node31"><a xlink:href="../../d3/d5f/class_preferences_dialog.html#a04777ddd5bdeef8263b5d23ec2ae72b2" target="_top" xlink:title=" ">
<polygon fill="white" stroke="black" points="211,-317.5 211,-347.5 333,-347.5 333,-317.5 211,-317.5"/>
<text text-anchor="start" x="219" y="-335.5" font-family="Helvetica,sans-Serif" font-size="10.00">PreferencesDialog::</text>
<text text-anchor="middle" x="272" y="-324.5" font-family="Helvetica,sans-Serif" font-size="10.00">setVoxelizer_comboBox</text>
</a>
</g>
</g>
<!-- Node1&#45;&gt;Node31 -->
<g id="edge30" class="edge">
<title>Node1&#45;&gt;Node31</title>
<path fill="none" stroke="midnightblue" d="M79.25,-946.37C83.76,-861.88 109.74,-449.03 191,-357.5 194.13,-353.98 197.74,-350.95 201.67,-348.34"/>
<polygon fill="midnightblue" stroke="midnightblue" points="203.7,-351.21 210.72,-343.28 200.28,-345.11 203.7,-351.21"/>
</g>
<!-- Node32 -->
<g id="node32" class="node">
<title>Node32</title>
<g id="a_node32"><a xlink:href="../../d3/d5f/class_preferences_dialog.html#a0c2a194a551d94fb7ca6e28bdaa9bae4" target="_top" xlink:title=" ">
<polygon fill="white" stroke="black" points="214,-257 214,-298 330,-298 330,-257 214,-257"/>
<text text-anchor="start" x="222" y="-286" font-family="Helvetica,sans-Serif" font-size="10.00">PreferencesDialog::</text>
<text text-anchor="start" x="222" y="-275" font-family="Helvetica,sans-Serif" font-size="10.00">setVoxelizerResolution</text>
<text text-anchor="middle" x="272" y="-264" font-family="Helvetica,sans-Serif" font-size="10.00">_textEdit</text>
</a>
</g>
</g>
<!-- Node1&#45;&gt;Node32 -->
<g id="edge31" class="edge">
<title>Node1&#45;&gt;Node32</title>
<path fill="none" stroke="midnightblue" d="M79.13,-946.41C83.07,-858.33 107.03,-411.1 191,-308.5 194.87,-303.77 199.55,-299.77 204.68,-296.37"/>
<polygon fill="midnightblue" stroke="midnightblue" points="206.75,-299.22 213.69,-291.21 203.27,-293.14 206.75,-299.22"/>
</g>
<!-- Node33 -->
<g id="node33" class="node">
<title>Node33</title>
<g id="a_node33"><a xlink:href="../../d3/d5f/class_preferences_dialog.html#a7cf15ded60f54e3c21b9af3b1e04a7a4" target="_top" xlink:title=" ">
<polygon fill="white" stroke="black" points="211,-197 211,-238 333,-238 333,-197 211,-197"/>
<text text-anchor="start" x="219" y="-226" font-family="Helvetica,sans-Serif" font-size="10.00">PreferencesDialog::</text>
<text text-anchor="start" x="219" y="-215" font-family="Helvetica,sans-Serif" font-size="10.00">setWireLengthOptimizer</text>
<text text-anchor="middle" x="272" y="-204" font-family="Helvetica,sans-Serif" font-size="10.00">_comboBox</text>
</a>
</g>
</g>
<!-- Node1&#45;&gt;Node33 -->
<g id="edge32" class="edge">
<title>Node1&#45;&gt;Node33</title>
<path fill="none" stroke="midnightblue" d="M78.87,-946.23C81.43,-852.92 99.2,-360.06 191,-247.5 194.17,-243.61 197.9,-240.22 201.99,-237.28"/>
<polygon fill="midnightblue" stroke="midnightblue" points="204.15,-240.06 210.82,-231.82 200.47,-234.1 204.15,-240.06"/>
</g>
<!-- Node34 -->
<g id="node34" class="node">
<title>Node34</title>
<g id="a_node34"><a xlink:href="../../d3/d5f/class_preferences_dialog.html#a352e39d9902cfba6dc11559238e6823f" target="_top" xlink:title=" ">
<polygon fill="white" stroke="black" points="220.5,-147.5 220.5,-177.5 323.5,-177.5 323.5,-147.5 220.5,-147.5"/>
<text text-anchor="start" x="228.5" y="-165.5" font-family="Helvetica,sans-Serif" font-size="10.00">PreferencesDialog::</text>
<text text-anchor="middle" x="272" y="-154.5" font-family="Helvetica,sans-Serif" font-size="10.00">setXWidth_textEdit</text>
</a>
</g>
</g>
<!-- Node1&#45;&gt;Node34 -->
<g id="edge33" class="edge">
<title>Node1&#45;&gt;Node34</title>
<path fill="none" stroke="midnightblue" d="M78.58,-946.48C79.38,-849.13 88.46,-307.74 191,-187.5 196.31,-181.27 203.15,-176.57 210.59,-173.03"/>
<polygon fill="midnightblue" stroke="midnightblue" points="212.29,-176.12 220.27,-169.14 209.68,-169.63 212.29,-176.12"/>
</g>
<!-- Node35 -->
<g id="node35" class="node">
<title>Node35</title>
<g id="a_node35"><a xlink:href="../../d3/d5f/class_preferences_dialog.html#a2e9a2a3f280feec5d5550a854e20b0d0" target="_top" xlink:title=" ">
<polygon fill="white" stroke="black" points="220.5,-98.5 220.5,-128.5 323.5,-128.5 323.5,-98.5 220.5,-98.5"/>
<text text-anchor="start" x="228.5" y="-116.5" font-family="Helvetica,sans-Serif" font-size="10.00">PreferencesDialog::</text>
<text text-anchor="middle" x="272" y="-105.5" font-family="Helvetica,sans-Serif" font-size="10.00">setYDepth_textEdit</text>
</a>
</g>
</g>
<!-- Node1&#45;&gt;Node35 -->
<g id="edge34" class="edge">
<title>Node1&#45;&gt;Node35</title>
<path fill="none" stroke="midnightblue" d="M78.43,-946.2C78.31,-844.55 82.41,-266.93 191,-138.5 196.28,-132.25 203.11,-127.54 210.54,-123.99"/>
<polygon fill="midnightblue" stroke="midnightblue" points="212.25,-127.08 220.21,-120.1 209.63,-120.59 212.25,-127.08"/>
</g>
<!-- Node36 -->
<g id="node36" class="node">
<title>Node36</title>
<g id="a_node36"><a xlink:href="../../d3/d5f/class_preferences_dialog.html#ae72988e5d84b702970fca4ee305c59c8" target="_top" xlink:title=" ">
<polygon fill="white" stroke="black" points="220,-49.5 220,-79.5 324,-79.5 324,-49.5 220,-49.5"/>
<text text-anchor="start" x="228" y="-67.5" font-family="Helvetica,sans-Serif" font-size="10.00">PreferencesDialog::</text>
<text text-anchor="middle" x="272" y="-56.5" font-family="Helvetica,sans-Serif" font-size="10.00">setZHeight_textEdit</text>
</a>
</g>
</g>
<!-- Node1&#45;&gt;Node36 -->
<g id="edge35" class="edge">
<title>Node1&#45;&gt;Node36</title>
<path fill="none" stroke="midnightblue" d="M78.31,-946.32C77.27,-841.58 76.21,-226.31 191,-89.5 196.2,-83.31 202.9,-78.63 210.22,-75.09"/>
<polygon fill="midnightblue" stroke="midnightblue" points="211.82,-78.22 219.75,-71.2 209.17,-71.74 211.82,-78.22"/>
</g>
<!-- Node37 -->
<g id="node37" class="node">
<title>Node37</title>
<g id="a_node37"><a xlink:href="../../d9/dc6/class_main_window.html#a2880d5eb045b8ce05784b5a80863fa7c" target="_top" xlink:title="Write the configuration settings in a file.">
<polygon fill="white" stroke="black" points="193,-0.5 193,-30.5 351,-30.5 351,-0.5 193,-0.5"/>
<text text-anchor="start" x="201" y="-18.5" font-family="Helvetica,sans-Serif" font-size="10.00">MainWindow::writeConfiguration</text>
<text text-anchor="middle" x="272" y="-7.5" font-family="Helvetica,sans-Serif" font-size="10.00">Settings</text>
</a>
</g>
</g>
<!-- Node1&#45;&gt;Node37 -->
<g id="edge36" class="edge">
<title>Node1&#45;&gt;Node37</title>
<path fill="none" stroke="midnightblue" d="M79.36,-946.49C85.98,-833.1 130.22,-113.43 191,-40.5 191.99,-39.31 193.04,-38.18 194.13,-37.1"/>
<polygon fill="midnightblue" stroke="midnightblue" points="196.44,-39.73 202,-30.72 192.03,-34.3 196.44,-39.73"/>
</g>
</g>
</svg>
