<?xml version="1.0" encoding="UTF-8" standalone="no"?>
<!DOCTYPE svg PUBLIC "-//W3C//DTD SVG 1.1//EN"
 "http://www.w3.org/Graphics/SVG/1.1/DTD/svg11.dtd">
<!-- Generated by graphviz version 2.44.0 (0)
 -->
<!-- Title: MainWindow::slotLassoConnectorTool Pages: 1 -->
<svg width="376pt" height="154pt"
 viewBox="0.00 0.00 376.00 153.50" xmlns="http://www.w3.org/2000/svg" xmlns:xlink="http://www.w3.org/1999/xlink">
<g id="graph0" class="graph" transform="scale(1 1) rotate(0) translate(4 149.5)">
<title>MainWindow::slotLassoConnectorTool</title>
<polygon fill="white" stroke="transparent" points="-4,4 -4,-149.5 372,-149.5 372,4 -4,4"/>
<!-- Node1 -->
<g id="node1" class="node">
<title>Node1</title>
<g id="a_node1"><a xlink:title=" ">
<polygon fill="#bfbfbf" stroke="black" points="0,-69 0,-88 184,-88 184,-69 0,-69"/>
<text text-anchor="middle" x="92" y="-76" font-family="Helvetica,sans-Serif" font-size="10.00">MainWindow::slotLassoConnectorTool</text>
</a>
</g>
</g>
<!-- Node2 -->
<g id="node2" class="node">
<title>Node2</title>
<g id="a_node2"><a xlink:href="../../da/db7/class_tool.html#aa3ef777234d67638f33c92a57a083868" target="_top" xlink:title=" ">
<polygon fill="white" stroke="black" points="256.5,-126 256.5,-145 331.5,-145 331.5,-126 256.5,-126"/>
<text text-anchor="middle" x="294" y="-133" font-family="Helvetica,sans-Serif" font-size="10.00">Tool::execute</text>
</a>
</g>
</g>
<!-- Node1&#45;&gt;Node2 -->
<g id="edge1" class="edge">
<title>Node1&#45;&gt;Node2</title>
<path fill="none" stroke="midnightblue" d="M123.71,-88.03C149.37,-95.91 186.98,-107.26 220,-116.5 228.52,-118.88 237.63,-121.33 246.42,-123.65"/>
<polygon fill="midnightblue" stroke="midnightblue" points="245.61,-127.05 256.17,-126.19 247.38,-120.28 245.61,-127.05"/>
</g>
<!-- Node3 -->
<g id="node3" class="node">
<title>Node3</title>
<g id="a_node3"><a xlink:href="../../d4/d4d/class_tool_registry.html#ac7399939344c02b4bdcd9e23c92758da" target="_top" xlink:title="Return a pointer to a tool given its name.">
<polygon fill="white" stroke="black" points="239.5,-88 239.5,-107 348.5,-107 348.5,-88 239.5,-88"/>
<text text-anchor="middle" x="294" y="-95" font-family="Helvetica,sans-Serif" font-size="10.00">ToolRegistry::getTool</text>
</a>
</g>
</g>
<!-- Node1&#45;&gt;Node3 -->
<g id="edge2" class="edge">
<title>Node1&#45;&gt;Node3</title>
<path fill="none" stroke="midnightblue" d="M184.22,-87.17C199.39,-88.61 214.83,-90.07 229.14,-91.43"/>
<polygon fill="midnightblue" stroke="midnightblue" points="229.04,-94.94 239.33,-92.4 229.71,-87.97 229.04,-94.94"/>
</g>
<!-- Node4 -->
<g id="node4" class="node">
<title>Node4</title>
<g id="a_node4"><a xlink:href="../../dd/d4a/class_lasso_tool.html#a2458cea555baedc6aa100f702f95a973" target="_top" xlink:title="Set the offset above the surface of the touchpoint.">
<polygon fill="white" stroke="black" points="220,-50 220,-69 368,-69 368,-50 220,-50"/>
<text text-anchor="middle" x="294" y="-57" font-family="Helvetica,sans-Serif" font-size="10.00">LassoTool::setSurfaceOverlap</text>
</a>
</g>
</g>
<!-- Node1&#45;&gt;Node4 -->
<g id="edge3" class="edge">
<title>Node1&#45;&gt;Node4</title>
<path fill="none" stroke="midnightblue" d="M184.22,-69.83C192.72,-69.03 201.3,-68.21 209.72,-67.41"/>
<polygon fill="midnightblue" stroke="midnightblue" points="210.26,-70.88 219.89,-66.45 209.6,-63.91 210.26,-70.88"/>
</g>
<!-- Node5 -->
<g id="node5" class="node">
<title>Node5</title>
<g id="a_node5"><a xlink:href="../../dd/d4a/class_lasso_tool.html#a54110ccf80be4b7e02a3df9cf91e88f7" target="_top" xlink:title="Set the penetration depth of the touchpoint.">
<polygon fill="white" stroke="black" points="230,-0.5 230,-30.5 358,-30.5 358,-0.5 230,-0.5"/>
<text text-anchor="start" x="238" y="-18.5" font-family="Helvetica,sans-Serif" font-size="10.00">LassoTool::setTouchpoint</text>
<text text-anchor="middle" x="294" y="-7.5" font-family="Helvetica,sans-Serif" font-size="10.00">Depth</text>
</a>
</g>
</g>
<!-- Node1&#45;&gt;Node5 -->
<g id="edge4" class="edge">
<title>Node1&#45;&gt;Node5</title>
<path fill="none" stroke="midnightblue" d="M123.38,-68.93C153.07,-59.58 199.02,-45.1 235.61,-33.58"/>
<polygon fill="midnightblue" stroke="midnightblue" points="236.69,-36.91 245.17,-30.57 234.58,-30.23 236.69,-36.91"/>
</g>
</g>
</svg>
