<?xml version="1.0" encoding="UTF-8" standalone="no"?>
<!DOCTYPE svg PUBLIC "-//W3C//DTD SVG 1.1//EN"
 "http://www.w3.org/Graphics/SVG/1.1/DTD/svg11.dtd">
<!-- Generated by graphviz version 2.44.0 (0)
 -->
<!-- Title: MainWindow::slotExportVoxelgridMesh Pages: 1 -->
<svg width="506pt" height="137pt"
 viewBox="0.00 0.00 506.00 137.00" xmlns="http://www.w3.org/2000/svg" xmlns:xlink="http://www.w3.org/1999/xlink">
<g id="graph0" class="graph" transform="scale(1 1) rotate(0) translate(4 133)">
<title>MainWindow::slotExportVoxelgridMesh</title>
<polygon fill="white" stroke="transparent" points="-4,4 -4,-133 502,-133 502,4 -4,4"/>
<!-- Node1 -->
<g id="node1" class="node">
<title>Node1</title>
<g id="a_node1"><a xlink:title=" ">
<polygon fill="#bfbfbf" stroke="black" points="0,-55 0,-74 187,-74 187,-55 0,-55"/>
<text text-anchor="middle" x="93.5" y="-62" font-family="Helvetica,sans-Serif" font-size="10.00">MainWindow::slotExportVoxelgridMesh</text>
</a>
</g>
</g>
<!-- Node2 -->
<g id="node2" class="node">
<title>Node2</title>
<g id="a_node2"><a xlink:href="../../db/dae/class_voxel_image_visualizer.html#a0876df19a1eb477cfbd3e7e84c18c5af" target="_top" xlink:title="Return foreground voxel grid cells as vtkPolyData.">
<polygon fill="white" stroke="black" points="223,-98.5 223,-128.5 333,-128.5 333,-98.5 223,-98.5"/>
<text text-anchor="start" x="231" y="-116.5" font-family="Helvetica,sans-Serif" font-size="10.00">VoxelImageVisualizer</text>
<text text-anchor="middle" x="278" y="-105.5" font-family="Helvetica,sans-Serif" font-size="10.00">::getPolyDataOutput</text>
</a>
</g>
</g>
<!-- Node1&#45;&gt;Node2 -->
<g id="edge1" class="edge">
<title>Node1&#45;&gt;Node2</title>
<path fill="none" stroke="midnightblue" d="M130.12,-74.06C153.69,-80.39 185.27,-88.87 213.1,-96.34"/>
<polygon fill="midnightblue" stroke="midnightblue" points="212.21,-99.73 222.77,-98.94 214.02,-92.97 212.21,-99.73"/>
</g>
<!-- Node4 -->
<g id="node4" class="node">
<title>Node4</title>
<g id="a_node4"><a xlink:href="../../db/dae/class_voxel_image_visualizer.html#a15634f5a62fd0d71806741d1db033243" target="_top" xlink:title="Set input data of the visualizer.">
<polygon fill="white" stroke="black" points="223,-49.5 223,-79.5 333,-79.5 333,-49.5 223,-49.5"/>
<text text-anchor="start" x="231" y="-67.5" font-family="Helvetica,sans-Serif" font-size="10.00">VoxelImageVisualizer</text>
<text text-anchor="middle" x="278" y="-56.5" font-family="Helvetica,sans-Serif" font-size="10.00">::setInputData</text>
</a>
</g>
</g>
<!-- Node1&#45;&gt;Node4 -->
<g id="edge3" class="edge">
<title>Node1&#45;&gt;Node4</title>
<path fill="none" stroke="midnightblue" d="M187.09,-64.5C195.65,-64.5 204.19,-64.5 212.42,-64.5"/>
<polygon fill="midnightblue" stroke="midnightblue" points="212.65,-68 222.65,-64.5 212.65,-61 212.65,-68"/>
</g>
<!-- Node5 -->
<g id="node5" class="node">
<title>Node5</title>
<g id="a_node5"><a xlink:href="../../db/dae/class_voxel_image_visualizer.html#a65eec474a368555a6ba16c1f54e956db" target="_top" xlink:title="Set output size of the visualization.">
<polygon fill="white" stroke="black" points="223,-0.5 223,-30.5 333,-30.5 333,-0.5 223,-0.5"/>
<text text-anchor="start" x="231" y="-18.5" font-family="Helvetica,sans-Serif" font-size="10.00">VoxelImageVisualizer</text>
<text text-anchor="middle" x="278" y="-7.5" font-family="Helvetica,sans-Serif" font-size="10.00">::setOutputSize</text>
</a>
</g>
</g>
<!-- Node1&#45;&gt;Node5 -->
<g id="edge4" class="edge">
<title>Node1&#45;&gt;Node5</title>
<path fill="none" stroke="midnightblue" d="M130.12,-54.94C153.69,-48.61 185.27,-40.13 213.1,-32.66"/>
<polygon fill="midnightblue" stroke="midnightblue" points="214.02,-36.03 222.77,-30.06 212.21,-29.27 214.02,-36.03"/>
</g>
<!-- Node3 -->
<g id="node3" class="node">
<title>Node3</title>
<g id="a_node3"><a xlink:href="../../db/dae/class_voxel_image_visualizer.html#a2cf2e268d83ea28ea097a557b4e66fcd" target="_top" xlink:title="Compute 1D linearized index from 3D&#45;coodinate index.">
<polygon fill="white" stroke="black" points="369,-104 369,-123 498,-123 498,-104 369,-104"/>
<text text-anchor="middle" x="433.5" y="-111" font-family="Helvetica,sans-Serif" font-size="10.00">VoxelImageVisualizer::idx</text>
</a>
</g>
</g>
<!-- Node2&#45;&gt;Node3 -->
<g id="edge2" class="edge">
<title>Node2&#45;&gt;Node3</title>
<path fill="none" stroke="midnightblue" d="M333.12,-113.5C341.43,-113.5 350.13,-113.5 358.78,-113.5"/>
<polygon fill="midnightblue" stroke="midnightblue" points="358.89,-117 368.89,-113.5 358.89,-110 358.89,-117"/>
</g>
</g>
</svg>
