<?xml version="1.0" encoding="UTF-8" standalone="no"?>
<!DOCTYPE svg PUBLIC "-//W3C//DTD SVG 1.1//EN"
 "http://www.w3.org/Graphics/SVG/1.1/DTD/svg11.dtd">
<!-- Generated by graphviz version 2.44.1 (0)
 -->
<!-- Title: MainWindow::slotPreferencesRejected Pages: 1 -->
<svg width="364pt" height="2043pt"
 viewBox="0.00 0.00 364.00 2043.00" xmlns="http://www.w3.org/2000/svg" xmlns:xlink="http://www.w3.org/1999/xlink">
<g id="graph0" class="graph" transform="scale(1 1) rotate(0) translate(4 2039)">
<title>MainWindow::slotPreferencesRejected</title>
<polygon fill="white" stroke="transparent" points="-4,4 -4,-2039 360,-2039 360,4 -4,4"/>
<!-- Node1 -->
<g id="node1" class="node">
<title>Node1</title>
<g id="a_node1"><a xlink:title=" ">
<polygon fill="#bfbfbf" stroke="black" points="0,-991.5 0,-1021.5 147,-1021.5 147,-991.5 0,-991.5"/>
<text text-anchor="start" x="8" y="-1009.5" font-family="Helvetica,sans-Serif" font-size="10.00">MainWindow::slotPreferences</text>
<text text-anchor="middle" x="73.5" y="-998.5" font-family="Helvetica,sans-Serif" font-size="10.00">Rejected</text>
</a>
</g>
</g>
<!-- Node2 -->
<g id="node2" class="node">
<title>Node2</title>
<g id="a_node2"><a xlink:href="../../d3/d5f/class_preferences_dialog.html#af8496829636857ad780b02664b5d56c4" target="_top" xlink:title=" ">
<polygon fill="white" stroke="black" points="195,-2004.5 195,-2034.5 344,-2034.5 344,-2004.5 195,-2004.5"/>
<text text-anchor="start" x="203" y="-2022.5" font-family="Helvetica,sans-Serif" font-size="10.00">PreferencesDialog::</text>
<text text-anchor="middle" x="269.5" y="-2011.5" font-family="Helvetica,sans-Serif" font-size="10.00">setAdditionalSpace_checkBox</text>
</a>
</g>
</g>
<!-- Node1&#45;&gt;Node2 -->
<g id="edge1" class="edge">
<title>Node1&#45;&gt;Node2</title>
<path fill="none" stroke="midnightblue" d="M75.16,-1021.86C80.42,-1141.21 117.03,-1917.68 183,-1995.5 184.17,-1996.87 185.4,-1998.17 186.7,-1999.4"/>
<polygon fill="midnightblue" stroke="midnightblue" points="184.73,-2002.3 194.77,-2005.68 189.03,-1996.78 184.73,-2002.3"/>
</g>
<!-- Node3 -->
<g id="node3" class="node">
<title>Node3</title>
<g id="a_node3"><a xlink:href="../../d3/d5f/class_preferences_dialog.html#ab12dc7d41e5b118782ca37ff359d1d17" target="_top" xlink:title=" ">
<polygon fill="white" stroke="black" points="196.5,-1955.5 196.5,-1985.5 342.5,-1985.5 342.5,-1955.5 196.5,-1955.5"/>
<text text-anchor="start" x="204.5" y="-1973.5" font-family="Helvetica,sans-Serif" font-size="10.00">PreferencesDialog::</text>
<text text-anchor="middle" x="269.5" y="-1962.5" font-family="Helvetica,sans-Serif" font-size="10.00">setAStarHeuristic_comboBox</text>
</a>
</g>
</g>
<!-- Node1&#45;&gt;Node3 -->
<g id="edge2" class="edge">
<title>Node1&#45;&gt;Node3</title>
<path fill="none" stroke="midnightblue" d="M75.26,-1021.81C81.12,-1137.48 120.64,-1871.57 183,-1945.5 184.54,-1947.32 186.2,-1949.02 187.97,-1950.6"/>
<polygon fill="midnightblue" stroke="midnightblue" points="186.21,-1953.64 196.34,-1956.76 190.36,-1948.01 186.21,-1953.64"/>
</g>
<!-- Node4 -->
<g id="node4" class="node">
<title>Node4</title>
<g id="a_node4"><a xlink:href="../../d3/d5f/class_preferences_dialog.html#a33b331efa7ac6984d20e9abbf7f132a3" target="_top" xlink:title=" ">
<polygon fill="white" stroke="black" points="191.5,-1895 191.5,-1936 347.5,-1936 347.5,-1895 191.5,-1895"/>
<text text-anchor="start" x="199.5" y="-1924" font-family="Helvetica,sans-Serif" font-size="10.00">PreferencesDialog::</text>
<text text-anchor="start" x="199.5" y="-1913" font-family="Helvetica,sans-Serif" font-size="10.00">setFreehandToolSurfaceOverlap</text>
<text text-anchor="middle" x="269.5" y="-1902" font-family="Helvetica,sans-Serif" font-size="10.00">_textEdit</text>
</a>
</g>
</g>
<!-- Node1&#45;&gt;Node4 -->
<g id="edge3" class="edge">
<title>Node1&#45;&gt;Node4</title>
<path fill="none" stroke="midnightblue" d="M74.27,-1021.76C72.95,-1127.01 70.15,-1745.4 183,-1885.5 183.72,-1886.39 184.46,-1887.25 185.23,-1888.09"/>
<polygon fill="midnightblue" stroke="midnightblue" points="183.03,-1890.82 192.79,-1894.95 187.74,-1885.64 183.03,-1890.82"/>
</g>
<!-- Node5 -->
<g id="node5" class="node">
<title>Node5</title>
<g id="a_node5"><a xlink:href="../../d3/d5f/class_preferences_dialog.html#a9e7a16093e2ef4e9fd8cf31f77aeaf64" target="_top" xlink:title=" ">
<polygon fill="white" stroke="black" points="188.5,-1835 188.5,-1876 350.5,-1876 350.5,-1835 188.5,-1835"/>
<text text-anchor="start" x="196.5" y="-1864" font-family="Helvetica,sans-Serif" font-size="10.00">PreferencesDialog::</text>
<text text-anchor="start" x="196.5" y="-1853" font-family="Helvetica,sans-Serif" font-size="10.00">setFreehandToolTouchpointDepth</text>
<text text-anchor="middle" x="269.5" y="-1842" font-family="Helvetica,sans-Serif" font-size="10.00">_textEdit</text>
</a>
</g>
</g>
<!-- Node1&#45;&gt;Node5 -->
<g id="edge4" class="edge">
<title>Node1&#45;&gt;Node5</title>
<path fill="none" stroke="midnightblue" d="M74.42,-1021.68C74.17,-1122.53 77.49,-1695.7 183,-1825.5 183.72,-1826.39 184.47,-1827.24 185.24,-1828.08"/>
<polygon fill="midnightblue" stroke="midnightblue" points="183.06,-1830.82 192.83,-1834.92 187.74,-1825.62 183.06,-1830.82"/>
</g>
<!-- Node6 -->
<g id="node6" class="node">
<title>Node6</title>
<g id="a_node6"><a xlink:href="../../d3/d5f/class_preferences_dialog.html#aeb6adfb00d1d19118b3b59b5a6cfdb47" target="_top" xlink:title=" ">
<polygon fill="white" stroke="black" points="206.5,-1785.5 206.5,-1815.5 332.5,-1815.5 332.5,-1785.5 206.5,-1785.5"/>
<text text-anchor="start" x="214.5" y="-1803.5" font-family="Helvetica,sans-Serif" font-size="10.00">PreferencesDialog::</text>
<text text-anchor="middle" x="269.5" y="-1792.5" font-family="Helvetica,sans-Serif" font-size="10.00">setGA_eliteSize_textEdit</text>
</a>
</g>
</g>
<!-- Node1&#45;&gt;Node6 -->
<g id="edge5" class="edge">
<title>Node1&#45;&gt;Node6</title>
<path fill="none" stroke="midnightblue" d="M74.46,-1021.79C74.54,-1119.69 79.69,-1658.36 183,-1776.5 187.03,-1781.11 191.87,-1784.87 197.17,-1787.92"/>
<polygon fill="midnightblue" stroke="midnightblue" points="195.93,-1791.22 206.46,-1792.44 198.99,-1784.92 195.93,-1791.22"/>
</g>
<!-- Node7 -->
<g id="node7" class="node">
<title>Node7</title>
<g id="a_node7"><a xlink:href="../../d3/d5f/class_preferences_dialog.html#ab46acf9cd7533cc0fe812e55f7c5e928" target="_top" xlink:title=" ">
<polygon fill="white" stroke="black" points="196,-1736.5 196,-1766.5 343,-1766.5 343,-1736.5 196,-1736.5"/>
<text text-anchor="start" x="204" y="-1754.5" font-family="Helvetica,sans-Serif" font-size="10.00">PreferencesDialog::</text>
<text text-anchor="middle" x="269.5" y="-1743.5" font-family="Helvetica,sans-Serif" font-size="10.00">setGA_mutationRate_textEdit</text>
</a>
</g>
</g>
<!-- Node1&#45;&gt;Node7 -->
<g id="edge6" class="edge">
<title>Node1&#45;&gt;Node7</title>
<path fill="none" stroke="midnightblue" d="M74.64,-1021.69C75.83,-1115.54 86.64,-1616.18 183,-1726.5 184.37,-1728.07 185.84,-1729.55 187.39,-1730.93"/>
<polygon fill="midnightblue" stroke="midnightblue" points="185.6,-1733.97 195.71,-1737.13 189.78,-1728.35 185.6,-1733.97"/>
</g>
<!-- Node8 -->
<g id="node8" class="node">
<title>Node8</title>
<g id="a_node8"><a xlink:href="../../d3/d5f/class_preferences_dialog.html#a1e7ecfb372974ba6aace69172fbd0f61" target="_top" xlink:title=" ">
<polygon fill="white" stroke="black" points="197,-1676 197,-1717 342,-1717 342,-1676 197,-1676"/>
<text text-anchor="start" x="205" y="-1705" font-family="Helvetica,sans-Serif" font-size="10.00">PreferencesDialog::</text>
<text text-anchor="start" x="205" y="-1694" font-family="Helvetica,sans-Serif" font-size="10.00">setGA_numberOfGenerations</text>
<text text-anchor="middle" x="269.5" y="-1683" font-family="Helvetica,sans-Serif" font-size="10.00">_textEdit</text>
</a>
</g>
</g>
<!-- Node1&#45;&gt;Node8 -->
<g id="edge7" class="edge">
<title>Node1&#45;&gt;Node8</title>
<path fill="none" stroke="midnightblue" d="M74.94,-1021.5C77.86,-1110.03 96.88,-1563.87 183,-1666.5 184.73,-1668.56 186.6,-1670.47 188.6,-1672.26"/>
<polygon fill="midnightblue" stroke="midnightblue" points="186.76,-1675.26 196.85,-1678.51 190.99,-1669.68 186.76,-1675.26"/>
</g>
<!-- Node9 -->
<g id="node9" class="node">
<title>Node9</title>
<g id="a_node9"><a xlink:href="../../d3/d5f/class_preferences_dialog.html#adb10ef1c46811419787f2da10484799d" target="_top" xlink:title=" ">
<polygon fill="white" stroke="black" points="213,-1616 213,-1657 326,-1657 326,-1616 213,-1616"/>
<text text-anchor="start" x="221" y="-1645" font-family="Helvetica,sans-Serif" font-size="10.00">PreferencesDialog::</text>
<text text-anchor="start" x="221" y="-1634" font-family="Helvetica,sans-Serif" font-size="10.00">setGA_populationSize</text>
<text text-anchor="middle" x="269.5" y="-1623" font-family="Helvetica,sans-Serif" font-size="10.00">_textEdit</text>
</a>
</g>
</g>
<!-- Node1&#45;&gt;Node9 -->
<g id="edge8" class="edge">
<title>Node1&#45;&gt;Node9</title>
<path fill="none" stroke="midnightblue" d="M75.23,-1021.76C79.54,-1106.05 104.27,-1514.18 183,-1606.5 188.58,-1613.04 195.67,-1618.15 203.37,-1622.15"/>
<polygon fill="midnightblue" stroke="midnightblue" points="202.09,-1625.41 212.64,-1626.35 204.98,-1619.04 202.09,-1625.41"/>
</g>
<!-- Node10 -->
<g id="node10" class="node">
<title>Node10</title>
<g id="a_node10"><a xlink:href="../../d3/d5f/class_preferences_dialog.html#a2973df2af63829efb01c004387640950" target="_top" xlink:title=" ">
<polygon fill="white" stroke="black" points="214.5,-1566.5 214.5,-1596.5 324.5,-1596.5 324.5,-1566.5 214.5,-1566.5"/>
<text text-anchor="start" x="222.5" y="-1584.5" font-family="Helvetica,sans-Serif" font-size="10.00">PreferencesDialog::</text>
<text text-anchor="middle" x="269.5" y="-1573.5" font-family="Helvetica,sans-Serif" font-size="10.00">setGD_flood_textEdit</text>
</a>
</g>
</g>
<!-- Node1&#45;&gt;Node10 -->
<g id="edge9" class="edge">
<title>Node1&#45;&gt;Node10</title>
<path fill="none" stroke="midnightblue" d="M75.41,-1021.6C80.5,-1101.5 108.06,-1474.52 183,-1556.5 188.99,-1563.05 196.59,-1567.92 204.78,-1571.54"/>
<polygon fill="midnightblue" stroke="midnightblue" points="203.63,-1574.84 214.22,-1575.11 206.11,-1568.3 203.63,-1574.84"/>
</g>
<!-- Node11 -->
<g id="node11" class="node">
<title>Node11</title>
<g id="a_node11"><a xlink:href="../../d3/d5f/class_preferences_dialog.html#a9206abf3e254e5976f2728c579f02bf5" target="_top" xlink:title=" ">
<polygon fill="white" stroke="black" points="202.5,-1506 202.5,-1547 336.5,-1547 336.5,-1506 202.5,-1506"/>
<text text-anchor="start" x="210.5" y="-1535" font-family="Helvetica,sans-Serif" font-size="10.00">PreferencesDialog::</text>
<text text-anchor="start" x="210.5" y="-1524" font-family="Helvetica,sans-Serif" font-size="10.00">setGD_numberOfIterations</text>
<text text-anchor="middle" x="269.5" y="-1513" font-family="Helvetica,sans-Serif" font-size="10.00">_textEdit</text>
</a>
</g>
</g>
<!-- Node1&#45;&gt;Node11 -->
<g id="edge10" class="edge">
<title>Node1&#45;&gt;Node11</title>
<path fill="none" stroke="midnightblue" d="M75.88,-1021.58C82.97,-1095.91 117.52,-1422.68 183,-1496.5 186.22,-1500.13 189.91,-1503.33 193.91,-1506.13"/>
<polygon fill="midnightblue" stroke="midnightblue" points="192.13,-1509.15 202.49,-1511.37 195.78,-1503.17 192.13,-1509.15"/>
</g>
<!-- Node12 -->
<g id="node12" class="node">
<title>Node12</title>
<g id="a_node12"><a xlink:href="../../d3/d5f/class_preferences_dialog.html#aa1e5832fe4186bbcfc64e08bedd0cbf4" target="_top" xlink:title=" ">
<polygon fill="white" stroke="black" points="217,-1456.5 217,-1486.5 322,-1486.5 322,-1456.5 217,-1456.5"/>
<text text-anchor="start" x="225" y="-1474.5" font-family="Helvetica,sans-Serif" font-size="10.00">PreferencesDialog::</text>
<text text-anchor="middle" x="269.5" y="-1463.5" font-family="Helvetica,sans-Serif" font-size="10.00">setGD_rain_textEdit</text>
</a>
</g>
</g>
<!-- Node1&#45;&gt;Node12 -->
<g id="edge11" class="edge">
<title>Node1&#45;&gt;Node12</title>
<path fill="none" stroke="midnightblue" d="M76.25,-1021.95C84.52,-1092.43 121.9,-1382.73 183,-1446.5 189.67,-1453.46 198.16,-1458.52 207.19,-1462.18"/>
<polygon fill="midnightblue" stroke="midnightblue" points="206.15,-1465.52 216.75,-1465.51 208.46,-1458.91 206.15,-1465.52"/>
</g>
<!-- Node13 -->
<g id="node13" class="node">
<title>Node13</title>
<g id="a_node13"><a xlink:href="../../d3/d5f/class_preferences_dialog.html#a1d7b5d493cbc5df5d69406ec3ceec106" target="_top" xlink:title=" ">
<polygon fill="white" stroke="black" points="202.5,-1396 202.5,-1437 336.5,-1437 336.5,-1396 202.5,-1396"/>
<text text-anchor="start" x="210.5" y="-1425" font-family="Helvetica,sans-Serif" font-size="10.00">PreferencesDialog::</text>
<text text-anchor="start" x="210.5" y="-1414" font-family="Helvetica,sans-Serif" font-size="10.00">setHC_numberOfIterations</text>
<text text-anchor="middle" x="269.5" y="-1403" font-family="Helvetica,sans-Serif" font-size="10.00">_textEdit</text>
</a>
</g>
</g>
<!-- Node1&#45;&gt;Node13 -->
<g id="edge12" class="edge">
<title>Node1&#45;&gt;Node13</title>
<path fill="none" stroke="midnightblue" d="M74.18,-1021.55C73.84,-1077.71 80.19,-1277.4 183,-1386.5 186.18,-1389.88 189.76,-1392.87 193.61,-1395.53"/>
<polygon fill="midnightblue" stroke="midnightblue" points="192.04,-1398.67 202.41,-1400.83 195.65,-1392.67 192.04,-1398.67"/>
</g>
<!-- Node14 -->
<g id="node14" class="node">
<title>Node14</title>
<g id="a_node14"><a xlink:href="../../d3/d5f/class_preferences_dialog.html#a43f18744d73282ca675ddab63427fafc" target="_top" xlink:title=" ">
<polygon fill="white" stroke="black" points="204,-1336 204,-1377 335,-1377 335,-1336 204,-1336"/>
<text text-anchor="start" x="212" y="-1365" font-family="Helvetica,sans-Serif" font-size="10.00">PreferencesDialog::</text>
<text text-anchor="start" x="212" y="-1354" font-family="Helvetica,sans-Serif" font-size="10.00">setHC_numberOfRestarts</text>
<text text-anchor="middle" x="269.5" y="-1343" font-family="Helvetica,sans-Serif" font-size="10.00">_textEdit</text>
</a>
</g>
</g>
<!-- Node1&#45;&gt;Node14 -->
<g id="edge13" class="edge">
<title>Node1&#45;&gt;Node14</title>
<path fill="none" stroke="midnightblue" d="M75.13,-1021.6C78.06,-1072.08 94.29,-1236.85 183,-1326.5 186.64,-1330.18 190.76,-1333.41 195.17,-1336.24"/>
<polygon fill="midnightblue" stroke="midnightblue" points="193.54,-1339.34 203.97,-1341.22 196.99,-1333.25 193.54,-1339.34"/>
</g>
<!-- Node15 -->
<g id="node15" class="node">
<title>Node15</title>
<g id="a_node15"><a xlink:href="../../d3/d5f/class_preferences_dialog.html#a65b40b1416090285e2ab9a23b1ef525e" target="_top" xlink:title=" ">
<polygon fill="white" stroke="black" points="212,-1276 212,-1317 327,-1317 327,-1276 212,-1276"/>
<text text-anchor="start" x="220" y="-1305" font-family="Helvetica,sans-Serif" font-size="10.00">PreferencesDialog::</text>
<text text-anchor="start" x="220" y="-1294" font-family="Helvetica,sans-Serif" font-size="10.00">setHC_randomRestart</text>
<text text-anchor="middle" x="269.5" y="-1283" font-family="Helvetica,sans-Serif" font-size="10.00">_checkBox</text>
</a>
</g>
</g>
<!-- Node1&#45;&gt;Node15 -->
<g id="edge14" class="edge">
<title>Node1&#45;&gt;Node15</title>
<path fill="none" stroke="midnightblue" d="M76.47,-1021.52C83.02,-1065.59 108.12,-1195.83 183,-1266.5 188.71,-1271.89 195.45,-1276.32 202.59,-1279.96"/>
<polygon fill="midnightblue" stroke="midnightblue" points="201.26,-1283.19 211.81,-1284.15 204.16,-1276.82 201.26,-1283.19"/>
</g>
<!-- Node16 -->
<g id="node16" class="node">
<title>Node16</title>
<g id="a_node16"><a xlink:href="../../d3/d5f/class_preferences_dialog.html#a29e0db6478625f3f87761cee9cc3d74f" target="_top" xlink:title=" ">
<polygon fill="white" stroke="black" points="198.5,-1216 198.5,-1257 340.5,-1257 340.5,-1216 198.5,-1216"/>
<text text-anchor="start" x="206.5" y="-1245" font-family="Helvetica,sans-Serif" font-size="10.00">PreferencesDialog::</text>
<text text-anchor="start" x="206.5" y="-1234" font-family="Helvetica,sans-Serif" font-size="10.00">setLassoToolSurfaceOverlap</text>
<text text-anchor="middle" x="269.5" y="-1223" font-family="Helvetica,sans-Serif" font-size="10.00">_textEdit</text>
</a>
</g>
</g>
<!-- Node1&#45;&gt;Node16 -->
<g id="edge15" class="edge">
<title>Node1&#45;&gt;Node16</title>
<path fill="none" stroke="midnightblue" d="M78.6,-1021.71C89.34,-1058.74 121.81,-1154.37 183,-1206.5 185.04,-1208.24 187.19,-1209.88 189.43,-1211.43"/>
<polygon fill="midnightblue" stroke="midnightblue" points="188.06,-1214.7 198.42,-1216.95 191.73,-1208.74 188.06,-1214.7"/>
</g>
<!-- Node17 -->
<g id="node17" class="node">
<title>Node17</title>
<g id="a_node17"><a xlink:href="../../d3/d5f/class_preferences_dialog.html#aca2defe93cf38dd65070d21b1c8b9163" target="_top" xlink:title=" ">
<polygon fill="white" stroke="black" points="195.5,-1156 195.5,-1197 343.5,-1197 343.5,-1156 195.5,-1156"/>
<text text-anchor="start" x="203.5" y="-1185" font-family="Helvetica,sans-Serif" font-size="10.00">PreferencesDialog::</text>
<text text-anchor="start" x="203.5" y="-1174" font-family="Helvetica,sans-Serif" font-size="10.00">setLassoToolTouchpointDepth</text>
<text text-anchor="middle" x="269.5" y="-1163" font-family="Helvetica,sans-Serif" font-size="10.00">_textEdit</text>
</a>
</g>
</g>
<!-- Node1&#45;&gt;Node17 -->
<g id="edge16" class="edge">
<title>Node1&#45;&gt;Node17</title>
<path fill="none" stroke="midnightblue" d="M82.47,-1021.9C98.02,-1050.49 135.1,-1111.98 183,-1146.5 185.12,-1148.03 187.33,-1149.49 189.6,-1150.87"/>
<polygon fill="midnightblue" stroke="midnightblue" points="188.2,-1154.1 198.64,-1155.89 191.6,-1147.98 188.2,-1154.1"/>
</g>
<!-- Node18 -->
<g id="node18" class="node">
<title>Node18</title>
<g id="a_node18"><a xlink:href="../../d3/d5f/class_preferences_dialog.html#a52562f76f9120e9583ef680eed598c5f" target="_top" xlink:title=" ">
<polygon fill="white" stroke="black" points="211.5,-1096 211.5,-1137 327.5,-1137 327.5,-1096 211.5,-1096"/>
<text text-anchor="start" x="219.5" y="-1125" font-family="Helvetica,sans-Serif" font-size="10.00">PreferencesDialog::</text>
<text text-anchor="start" x="219.5" y="-1114" font-family="Helvetica,sans-Serif" font-size="10.00">setLineDiameterFactor</text>
<text text-anchor="middle" x="269.5" y="-1103" font-family="Helvetica,sans-Serif" font-size="10.00">_textEdit</text>
</a>
</g>
</g>
<!-- Node1&#45;&gt;Node18 -->
<g id="edge17" class="edge">
<title>Node1&#45;&gt;Node18</title>
<path fill="none" stroke="midnightblue" d="M91.46,-1021.53C111.95,-1039.07 148.04,-1068.01 183,-1086.5 188.98,-1089.66 195.36,-1092.61 201.85,-1095.32"/>
<polygon fill="midnightblue" stroke="midnightblue" points="200.79,-1098.67 211.38,-1099.13 203.39,-1092.17 200.79,-1098.67"/>
</g>
<!-- Node19 -->
<g id="node19" class="node">
<title>Node19</title>
<g id="a_node19"><a xlink:href="../../d3/d5f/class_preferences_dialog.html#aa830d1e29eb1c0ea030c1b871655ca2b" target="_top" xlink:title=" ">
<polygon fill="white" stroke="black" points="210,-1046.5 210,-1076.5 329,-1076.5 329,-1046.5 210,-1046.5"/>
<text text-anchor="start" x="218" y="-1064.5" font-family="Helvetica,sans-Serif" font-size="10.00">PreferencesDialog::</text>
<text text-anchor="middle" x="269.5" y="-1053.5" font-family="Helvetica,sans-Serif" font-size="10.00">setNozzleSize_textEdit</text>
</a>
</g>
</g>
<!-- Node1&#45;&gt;Node19 -->
<g id="edge18" class="edge">
<title>Node1&#45;&gt;Node19</title>
<path fill="none" stroke="midnightblue" d="M127.51,-1021.53C151.68,-1028.38 180.46,-1036.54 205.71,-1043.7"/>
<polygon fill="midnightblue" stroke="midnightblue" points="204.98,-1047.13 215.55,-1046.49 206.89,-1040.39 204.98,-1047.13"/>
</g>
<!-- Node20 -->
<g id="node20" class="node">
<title>Node20</title>
<g id="a_node20"><a xlink:href="../../d3/d5f/class_preferences_dialog.html#a77a1d340a2c38a897174511626d463b4" target="_top" xlink:title=" ">
<polygon fill="white" stroke="black" points="203.5,-986 203.5,-1027 335.5,-1027 335.5,-986 203.5,-986"/>
<text text-anchor="start" x="211.5" y="-1015" font-family="Helvetica,sans-Serif" font-size="10.00">PreferencesDialog::</text>
<text text-anchor="start" x="211.5" y="-1004" font-family="Helvetica,sans-Serif" font-size="10.00">setPolylineSurfaceOverlap</text>
<text text-anchor="middle" x="269.5" y="-993" font-family="Helvetica,sans-Serif" font-size="10.00">_textEdit</text>
</a>
</g>
</g>
<!-- Node1&#45;&gt;Node20 -->
<g id="edge19" class="edge">
<title>Node1&#45;&gt;Node20</title>
<path fill="none" stroke="midnightblue" d="M147.01,-1006.5C162.05,-1006.5 177.94,-1006.5 193.08,-1006.5"/>
<polygon fill="midnightblue" stroke="midnightblue" points="193.42,-1010 203.42,-1006.5 193.42,-1003 193.42,-1010"/>
</g>
<!-- Node21 -->
<g id="node21" class="node">
<title>Node21</title>
<g id="a_node21"><a xlink:href="../../d3/d5f/class_preferences_dialog.html#a9f5b2fed1ecfc9ddd4e2f0fafc0d6dd5" target="_top" xlink:title=" ">
<polygon fill="white" stroke="black" points="200.5,-926 200.5,-967 338.5,-967 338.5,-926 200.5,-926"/>
<text text-anchor="start" x="208.5" y="-955" font-family="Helvetica,sans-Serif" font-size="10.00">PreferencesDialog::</text>
<text text-anchor="start" x="208.5" y="-944" font-family="Helvetica,sans-Serif" font-size="10.00">setPolylineTouchpointDepth</text>
<text text-anchor="middle" x="269.5" y="-933" font-family="Helvetica,sans-Serif" font-size="10.00">_textEdit</text>
</a>
</g>
</g>
<!-- Node1&#45;&gt;Node21 -->
<g id="edge20" class="edge">
<title>Node1&#45;&gt;Node21</title>
<path fill="none" stroke="midnightblue" d="M123.45,-991.36C144.28,-984.92 169.05,-977.26 192.18,-970.1"/>
<polygon fill="midnightblue" stroke="midnightblue" points="193.45,-973.37 201.97,-967.08 191.39,-966.69 193.45,-973.37"/>
</g>
<!-- Node22 -->
<g id="node22" class="node">
<title>Node22</title>
<g id="a_node22"><a xlink:href="../../d3/d5f/class_preferences_dialog.html#ab7f3e6157a9ff2116576198b6d2d0f93" target="_top" xlink:title=" ">
<polygon fill="white" stroke="black" points="212,-866 212,-907 327,-907 327,-866 212,-866"/>
<text text-anchor="start" x="220" y="-895" font-family="Helvetica,sans-Serif" font-size="10.00">PreferencesDialog::</text>
<text text-anchor="start" x="220" y="-884" font-family="Helvetica,sans-Serif" font-size="10.00">setRO_numberOfTries</text>
<text text-anchor="middle" x="269.5" y="-873" font-family="Helvetica,sans-Serif" font-size="10.00">_textEdit</text>
</a>
</g>
</g>
<!-- Node1&#45;&gt;Node22 -->
<g id="edge21" class="edge">
<title>Node1&#45;&gt;Node22</title>
<path fill="none" stroke="midnightblue" d="M89.36,-991.17C109.13,-971.51 145.94,-937.47 183,-916.5 188.98,-913.12 195.41,-910.01 201.95,-907.2"/>
<polygon fill="midnightblue" stroke="midnightblue" points="203.66,-910.28 211.6,-903.27 201.02,-903.8 203.66,-910.28"/>
</g>
<!-- Node23 -->
<g id="node23" class="node">
<title>Node23</title>
<g id="a_node23"><a xlink:href="../../d3/d5f/class_preferences_dialog.html#a505f2115f71c84c002f246b519a296c7" target="_top" xlink:title=" ">
<polygon fill="white" stroke="black" points="201,-806 201,-847 338,-847 338,-806 201,-806"/>
<text text-anchor="start" x="209" y="-835" font-family="Helvetica,sans-Serif" font-size="10.00">PreferencesDialog::</text>
<text text-anchor="start" x="209" y="-824" font-family="Helvetica,sans-Serif" font-size="10.00">setRoundTouchpointRadius</text>
<text text-anchor="middle" x="269.5" y="-813" font-family="Helvetica,sans-Serif" font-size="10.00">_textEdit</text>
</a>
</g>
</g>
<!-- Node1&#45;&gt;Node23 -->
<g id="edge22" class="edge">
<title>Node1&#45;&gt;Node23</title>
<path fill="none" stroke="midnightblue" d="M81.49,-991.39C96.11,-961.39 132.77,-893.98 183,-856.5 185.8,-854.41 188.75,-852.46 191.81,-850.64"/>
<polygon fill="midnightblue" stroke="midnightblue" points="193.55,-853.68 200.69,-845.84 190.22,-847.52 193.55,-853.68"/>
</g>
<!-- Node24 -->
<g id="node24" class="node">
<title>Node24</title>
<g id="a_node24"><a xlink:href="../../d3/d5f/class_preferences_dialog.html#a0cc5bcfdf48ecaf5e83591646f69840b" target="_top" xlink:title=" ">
<polygon fill="white" stroke="black" points="183,-746 183,-787 356,-787 356,-746 183,-746"/>
<text text-anchor="start" x="191" y="-775" font-family="Helvetica,sans-Serif" font-size="10.00">PreferencesDialog::</text>
<text text-anchor="start" x="191" y="-764" font-family="Helvetica,sans-Serif" font-size="10.00">setRoundTouchpointUseConnection</text>
<text text-anchor="middle" x="269.5" y="-753" font-family="Helvetica,sans-Serif" font-size="10.00">Point_checkBox</text>
</a>
</g>
</g>
<!-- Node1&#45;&gt;Node24 -->
<g id="edge23" class="edge">
<title>Node1&#45;&gt;Node24</title>
<path fill="none" stroke="midnightblue" d="M78.14,-991.39C88.13,-953.16 119.51,-851.7 183,-796.5 184.51,-795.18 186.09,-793.92 187.71,-792.72"/>
<polygon fill="midnightblue" stroke="midnightblue" points="189.79,-795.55 196.23,-787.14 185.95,-789.69 189.79,-795.55"/>
</g>
<!-- Node25 -->
<g id="node25" class="node">
<title>Node25</title>
<g id="a_node25"><a xlink:href="../../d3/d5f/class_preferences_dialog.html#a6405d9ff86d4c714e79d1667e07eb88f" target="_top" xlink:title=" ">
<polygon fill="white" stroke="black" points="199.5,-696.5 199.5,-726.5 339.5,-726.5 339.5,-696.5 199.5,-696.5"/>
<text text-anchor="start" x="207.5" y="-714.5" font-family="Helvetica,sans-Serif" font-size="10.00">PreferencesDialog::</text>
<text text-anchor="middle" x="269.5" y="-703.5" font-family="Helvetica,sans-Serif" font-size="10.00">setSA_coolingRate_textEdit</text>
</a>
</g>
</g>
<!-- Node1&#45;&gt;Node25 -->
<g id="edge24" class="edge">
<title>Node1&#45;&gt;Node25</title>
<path fill="none" stroke="midnightblue" d="M76.02,-991.37C81.43,-945.74 103.85,-808.27 183,-736.5 185.33,-734.39 187.83,-732.45 190.46,-730.68"/>
<polygon fill="midnightblue" stroke="midnightblue" points="192.36,-733.62 199.24,-725.55 188.84,-727.57 192.36,-733.62"/>
</g>
<!-- Node26 -->
<g id="node26" class="node">
<title>Node26</title>
<g id="a_node26"><a xlink:href="../../d3/d5f/class_preferences_dialog.html#a080d43c7e70f69facf7847f4c49f8e6d" target="_top" xlink:title=" ">
<polygon fill="white" stroke="black" points="207,-636 207,-677 332,-677 332,-636 207,-636"/>
<text text-anchor="start" x="215" y="-665" font-family="Helvetica,sans-Serif" font-size="10.00">PreferencesDialog::</text>
<text text-anchor="start" x="215" y="-654" font-family="Helvetica,sans-Serif" font-size="10.00">setSA_initialTemperature</text>
<text text-anchor="middle" x="269.5" y="-643" font-family="Helvetica,sans-Serif" font-size="10.00">_textEdit</text>
</a>
</g>
</g>
<!-- Node1&#45;&gt;Node26 -->
<g id="edge25" class="edge">
<title>Node1&#45;&gt;Node26</title>
<path fill="none" stroke="midnightblue" d="M75.18,-991.49C78.27,-941.27 94.96,-777.32 183,-687.5 187.42,-682.99 192.56,-679.13 198.07,-675.83"/>
<polygon fill="midnightblue" stroke="midnightblue" points="199.8,-678.87 206.99,-671.09 196.51,-672.69 199.8,-678.87"/>
</g>
<!-- Node27 -->
<g id="node27" class="node">
<title>Node27</title>
<g id="a_node27"><a xlink:href="../../d3/d5f/class_preferences_dialog.html#a611c43ebe065cdc33bc1f0e825c8d7b5" target="_top" xlink:title=" ">
<polygon fill="white" stroke="black" points="205.5,-586.5 205.5,-616.5 333.5,-616.5 333.5,-586.5 205.5,-586.5"/>
<text text-anchor="start" x="213.5" y="-604.5" font-family="Helvetica,sans-Serif" font-size="10.00">PreferencesDialog::</text>
<text text-anchor="middle" x="269.5" y="-593.5" font-family="Helvetica,sans-Serif" font-size="10.00">setScaleMesh_checkBox</text>
</a>
</g>
</g>
<!-- Node1&#45;&gt;Node27 -->
<g id="edge26" class="edge">
<title>Node1&#45;&gt;Node27</title>
<path fill="none" stroke="midnightblue" d="M74,-991.27C73,-934.48 77.33,-732.84 183,-626.5 186.88,-622.59 191.34,-619.29 196.14,-616.49"/>
<polygon fill="midnightblue" stroke="midnightblue" points="197.73,-619.61 205.09,-612 194.59,-613.36 197.73,-619.61"/>
</g>
<!-- Node28 -->
<g id="node28" class="node">
<title>Node28</title>
<g id="a_node28"><a xlink:href="../../d3/d5f/class_preferences_dialog.html#abeb7822264427366fec784e2ba4c2a17" target="_top" xlink:title=" ">
<polygon fill="white" stroke="black" points="201,-537.5 201,-567.5 338,-567.5 338,-537.5 201,-537.5"/>
<text text-anchor="start" x="209" y="-555.5" font-family="Helvetica,sans-Serif" font-size="10.00">PreferencesDialog::</text>
<text text-anchor="middle" x="269.5" y="-544.5" font-family="Helvetica,sans-Serif" font-size="10.00">setScaleMeshSize_textEdit</text>
</a>
</g>
</g>
<!-- Node1&#45;&gt;Node28 -->
<g id="edge27" class="edge">
<title>Node1&#45;&gt;Node28</title>
<path fill="none" stroke="midnightblue" d="M76.31,-991.43C84.83,-922.7 123.15,-639.59 183,-577.5 185.68,-574.72 188.65,-572.24 191.83,-570.04"/>
<polygon fill="midnightblue" stroke="midnightblue" points="193.84,-572.92 200.67,-564.82 190.28,-566.89 193.84,-572.92"/>
</g>
<!-- Node29 -->
<g id="node29" class="node">
<title>Node29</title>
<g id="a_node29"><a xlink:href="../../d3/d5f/class_preferences_dialog.html#a4812dc6f84fe89f408a34bb477609cd1" target="_top" xlink:title=" ">
<polygon fill="white" stroke="black" points="189.5,-477 189.5,-518 349.5,-518 349.5,-477 189.5,-477"/>
<text text-anchor="start" x="197.5" y="-506" font-family="Helvetica,sans-Serif" font-size="10.00">PreferencesDialog::</text>
<text text-anchor="start" x="197.5" y="-495" font-family="Helvetica,sans-Serif" font-size="10.00">setStereoRenderingGlassesType</text>
<text text-anchor="middle" x="269.5" y="-484" font-family="Helvetica,sans-Serif" font-size="10.00">_checkBox</text>
</a>
</g>
</g>
<!-- Node1&#45;&gt;Node29 -->
<g id="edge28" class="edge">
<title>Node1&#45;&gt;Node29</title>
<path fill="none" stroke="midnightblue" d="M76,-991.32C83.53,-917.93 119.37,-600.6 183,-528.5 184.19,-527.16 185.43,-525.87 186.74,-524.64"/>
<polygon fill="midnightblue" stroke="midnightblue" points="189.15,-527.19 194.74,-518.19 184.76,-521.74 189.15,-527.19"/>
</g>
<!-- Node30 -->
<g id="node30" class="node">
<title>Node30</title>
<g id="a_node30"><a xlink:href="../../d3/d5f/class_preferences_dialog.html#a36d083e2e4c1d5ad2a26dc82a7e04d5f" target="_top" xlink:title=" ">
<polygon fill="white" stroke="black" points="203.5,-427.5 203.5,-457.5 335.5,-457.5 335.5,-427.5 203.5,-427.5"/>
<text text-anchor="start" x="211.5" y="-445.5" font-family="Helvetica,sans-Serif" font-size="10.00">PreferencesDialog::</text>
<text text-anchor="middle" x="269.5" y="-434.5" font-family="Helvetica,sans-Serif" font-size="10.00">setTA_decrement_textEdit</text>
</a>
</g>
</g>
<!-- Node1&#45;&gt;Node30 -->
<g id="edge29" class="edge">
<title>Node1&#45;&gt;Node30</title>
<path fill="none" stroke="midnightblue" d="M75.47,-991.44C80.84,-912.58 109.43,-547.68 183,-467.5 186.35,-463.85 190.21,-460.72 194.38,-458.04"/>
<polygon fill="midnightblue" stroke="midnightblue" points="196.25,-461 203.35,-453.14 192.9,-454.86 196.25,-461"/>
</g>
<!-- Node31 -->
<g id="node31" class="node">
<title>Node31</title>
<g id="a_node31"><a xlink:href="../../d3/d5f/class_preferences_dialog.html#aaf1ae265d6d588035b81593ba1897f84" target="_top" xlink:title=" ">
<polygon fill="white" stroke="black" points="204,-367 204,-408 335,-408 335,-367 204,-367"/>
<text text-anchor="start" x="212" y="-396" font-family="Helvetica,sans-Serif" font-size="10.00">PreferencesDialog::</text>
<text text-anchor="start" x="212" y="-385" font-family="Helvetica,sans-Serif" font-size="10.00">setTA_numberOfIterations</text>
<text text-anchor="middle" x="269.5" y="-374" font-family="Helvetica,sans-Serif" font-size="10.00">_textEdit</text>
</a>
</g>
</g>
<!-- Node1&#45;&gt;Node31 -->
<g id="edge30" class="edge">
<title>Node1&#45;&gt;Node31</title>
<path fill="none" stroke="midnightblue" d="M75.3,-991.28C79.98,-908.14 106.18,-509.2 183,-418.5 186.57,-414.28 190.76,-410.64 195.34,-407.49"/>
<polygon fill="midnightblue" stroke="midnightblue" points="197.16,-410.48 203.95,-402.34 193.57,-404.47 197.16,-410.48"/>
</g>
<!-- Node32 -->
<g id="node32" class="node">
<title>Node32</title>
<g id="a_node32"><a xlink:href="../../d3/d5f/class_preferences_dialog.html#ae99d82f14b590caa36d0ddc54cb033c9" target="_top" xlink:title=" ">
<polygon fill="white" stroke="black" points="206.5,-317.5 206.5,-347.5 332.5,-347.5 332.5,-317.5 206.5,-317.5"/>
<text text-anchor="start" x="214.5" y="-335.5" font-family="Helvetica,sans-Serif" font-size="10.00">PreferencesDialog::</text>
<text text-anchor="middle" x="269.5" y="-324.5" font-family="Helvetica,sans-Serif" font-size="10.00">setTA_threshold_textEdit</text>
</a>
</g>
</g>
<!-- Node1&#45;&gt;Node32 -->
<g id="edge31" class="edge">
<title>Node1&#45;&gt;Node32</title>
<path fill="none" stroke="midnightblue" d="M74.91,-991.4C77.63,-903.26 95.6,-455.96 183,-357.5 187.01,-352.98 191.79,-349.26 197.01,-346.19"/>
<polygon fill="midnightblue" stroke="midnightblue" points="198.76,-349.23 206.15,-341.64 195.64,-342.97 198.76,-349.23"/>
</g>
<!-- Node33 -->
<g id="node33" class="node">
<title>Node33</title>
<g id="a_node33"><a xlink:href="../../d3/d5f/class_preferences_dialog.html#a04777ddd5bdeef8263b5d23ec2ae72b2" target="_top" xlink:title=" ">
<polygon fill="white" stroke="black" points="208.5,-268.5 208.5,-298.5 330.5,-298.5 330.5,-268.5 208.5,-268.5"/>
<text text-anchor="start" x="216.5" y="-286.5" font-family="Helvetica,sans-Serif" font-size="10.00">PreferencesDialog::</text>
<text text-anchor="middle" x="269.5" y="-275.5" font-family="Helvetica,sans-Serif" font-size="10.00">setVoxelizer_comboBox</text>
</a>
</g>
</g>
<!-- Node1&#45;&gt;Node33 -->
<g id="edge32" class="edge">
<title>Node1&#45;&gt;Node33</title>
<path fill="none" stroke="midnightblue" d="M74.72,-991.48C76.35,-899.71 89.37,-415.19 183,-308.5 187.52,-303.35 193.05,-299.23 199.08,-295.94"/>
<polygon fill="midnightblue" stroke="midnightblue" points="200.64,-299.07 208.24,-291.69 197.7,-292.72 200.64,-299.07"/>
</g>
<!-- Node34 -->
<g id="node34" class="node">
<title>Node34</title>
<g id="a_node34"><a xlink:href="../../d3/d5f/class_preferences_dialog.html#a0c2a194a551d94fb7ca6e28bdaa9bae4" target="_top" xlink:title=" ">
<polygon fill="white" stroke="black" points="211.5,-208 211.5,-249 327.5,-249 327.5,-208 211.5,-208"/>
<text text-anchor="start" x="219.5" y="-237" font-family="Helvetica,sans-Serif" font-size="10.00">PreferencesDialog::</text>
<text text-anchor="start" x="219.5" y="-226" font-family="Helvetica,sans-Serif" font-size="10.00">setVoxelizerResolution</text>
<text text-anchor="middle" x="269.5" y="-215" font-family="Helvetica,sans-Serif" font-size="10.00">_textEdit</text>
</a>
</g>
</g>
<!-- Node1&#45;&gt;Node34 -->
<g id="edge33" class="edge">
<title>Node1&#45;&gt;Node34</title>
<path fill="none" stroke="midnightblue" d="M74.65,-991.45C75.86,-896.22 86.88,-377.49 183,-259.5 188.19,-253.13 194.8,-248.07 202.04,-244.05"/>
<polygon fill="midnightblue" stroke="midnightblue" points="204.01,-246.99 211.49,-239.49 200.96,-240.68 204.01,-246.99"/>
</g>
<!-- Node35 -->
<g id="node35" class="node">
<title>Node35</title>
<g id="a_node35"><a xlink:href="../../d3/d5f/class_preferences_dialog.html#a7cf15ded60f54e3c21b9af3b1e04a7a4" target="_top" xlink:title=" ">
<polygon fill="white" stroke="black" points="208.5,-148 208.5,-189 330.5,-189 330.5,-148 208.5,-148"/>
<text text-anchor="start" x="216.5" y="-177" font-family="Helvetica,sans-Serif" font-size="10.00">PreferencesDialog::</text>
<text text-anchor="start" x="216.5" y="-166" font-family="Helvetica,sans-Serif" font-size="10.00">setWireLengthOptimizer</text>
<text text-anchor="middle" x="269.5" y="-155" font-family="Helvetica,sans-Serif" font-size="10.00">_comboBox</text>
</a>
</g>
</g>
<!-- Node1&#45;&gt;Node35 -->
<g id="edge34" class="edge">
<title>Node1&#45;&gt;Node35</title>
<path fill="none" stroke="midnightblue" d="M74.45,-991.2C74.41,-890.81 78.88,-326.36 183,-198.5 187.47,-193.01 193.01,-188.52 199.11,-184.85"/>
<polygon fill="midnightblue" stroke="midnightblue" points="201.12,-187.76 208.39,-180.05 197.9,-181.54 201.12,-187.76"/>
</g>
<!-- Node36 -->
<g id="node36" class="node">
<title>Node36</title>
<g id="a_node36"><a xlink:href="../../d3/d5f/class_preferences_dialog.html#a352e39d9902cfba6dc11559238e6823f" target="_top" xlink:title=" ">
<polygon fill="white" stroke="black" points="218,-98.5 218,-128.5 321,-128.5 321,-98.5 218,-98.5"/>
<text text-anchor="start" x="226" y="-116.5" font-family="Helvetica,sans-Serif" font-size="10.00">PreferencesDialog::</text>
<text text-anchor="middle" x="269.5" y="-105.5" font-family="Helvetica,sans-Serif" font-size="10.00">setXWidth_textEdit</text>
</a>
</g>
</g>
<!-- Node1&#45;&gt;Node36 -->
<g id="edge35" class="edge">
<title>Node1&#45;&gt;Node36</title>
<path fill="none" stroke="midnightblue" d="M74.21,-991.37C72.55,-886.98 67.81,-273.79 183,-138.5 189.62,-130.73 198.51,-125.3 208.05,-121.53"/>
<polygon fill="midnightblue" stroke="midnightblue" points="209.39,-124.77 217.76,-118.28 207.17,-118.13 209.39,-124.77"/>
</g>
<!-- Node37 -->
<g id="node37" class="node">
<title>Node37</title>
<g id="a_node37"><a xlink:href="../../d3/d5f/class_preferences_dialog.html#a2e9a2a3f280feec5d5550a854e20b0d0" target="_top" xlink:title=" ">
<polygon fill="white" stroke="black" points="218,-49.5 218,-79.5 321,-79.5 321,-49.5 218,-49.5"/>
<text text-anchor="start" x="226" y="-67.5" font-family="Helvetica,sans-Serif" font-size="10.00">PreferencesDialog::</text>
<text text-anchor="middle" x="269.5" y="-56.5" font-family="Helvetica,sans-Serif" font-size="10.00">setYDepth_textEdit</text>
</a>
</g>
</g>
<!-- Node1&#45;&gt;Node37 -->
<g id="edge36" class="edge">
<title>Node1&#45;&gt;Node37</title>
<path fill="none" stroke="midnightblue" d="M75.3,-991.19C81.42,-877.06 122.05,-161.56 183,-89.5 189.59,-81.71 198.47,-76.27 208.01,-72.49"/>
<polygon fill="midnightblue" stroke="midnightblue" points="209.35,-75.74 217.72,-69.24 207.12,-69.1 209.35,-75.74"/>
</g>
<!-- Node38 -->
<g id="node38" class="node">
<title>Node38</title>
<g id="a_node38"><a xlink:href="../../d3/d5f/class_preferences_dialog.html#ae72988e5d84b702970fca4ee305c59c8" target="_top" xlink:title=" ">
<polygon fill="white" stroke="black" points="217.5,-0.5 217.5,-30.5 321.5,-30.5 321.5,-0.5 217.5,-0.5"/>
<text text-anchor="start" x="225.5" y="-18.5" font-family="Helvetica,sans-Serif" font-size="10.00">PreferencesDialog::</text>
<text text-anchor="middle" x="269.5" y="-7.5" font-family="Helvetica,sans-Serif" font-size="10.00">setZHeight_textEdit</text>
</a>
</g>
</g>
<!-- Node1&#45;&gt;Node38 -->
<g id="edge37" class="edge">
<title>Node1&#45;&gt;Node38</title>
<path fill="none" stroke="midnightblue" d="M75.21,-991.13C80.78,-873.37 118.92,-116.71 183,-40.5 189.49,-32.78 198.23,-27.37 207.65,-23.59"/>
<polygon fill="midnightblue" stroke="midnightblue" points="208.89,-26.87 217.23,-20.34 206.64,-20.24 208.89,-26.87"/>
</g>
</g>
</svg>
