<?xml version="1.0" encoding="UTF-8" standalone="no"?>
<!DOCTYPE svg PUBLIC "-//W3C//DTD SVG 1.1//EN"
 "http://www.w3.org/Graphics/SVG/1.1/DTD/svg11.dtd">
<!-- Generated by graphviz version 2.44.0 (0)
 -->
<!-- Title: MainWindow::slotAutowire Pages: 1 -->
<svg width="337pt" height="619pt"
 viewBox="0.00 0.00 337.00 618.50" xmlns="http://www.w3.org/2000/svg" xmlns:xlink="http://www.w3.org/1999/xlink">
<g id="graph0" class="graph" transform="scale(1 1) rotate(0) translate(4 614.5)">
<title>MainWindow::slotAutowire</title>
<polygon fill="white" stroke="transparent" points="-4,4 -4,-614.5 333,-614.5 333,4 -4,4"/>
<!-- Node1 -->
<g id="node1" class="node">
<title>Node1</title>
<g id="a_node1"><a xlink:title=" ">
<polygon fill="#bfbfbf" stroke="black" points="0,-290 0,-309 133,-309 133,-290 0,-290"/>
<text text-anchor="middle" x="66.5" y="-297" font-family="Helvetica,sans-Serif" font-size="10.00">MainWindow::slotAutowire</text>
</a>
</g>
</g>
<!-- Node2 -->
<g id="node2" class="node">
<title>Node2</title>
<g id="a_node2"><a xlink:href="../../da/db7/class_tool.html#aa3ef777234d67638f33c92a57a083868" target="_top" xlink:title=" ">
<polygon fill="white" stroke="black" points="211.5,-591 211.5,-610 286.5,-610 286.5,-591 211.5,-591"/>
<text text-anchor="middle" x="249" y="-598" font-family="Helvetica,sans-Serif" font-size="10.00">Tool::execute</text>
</a>
</g>
</g>
<!-- Node1&#45;&gt;Node2 -->
<g id="edge1" class="edge">
<title>Node1&#45;&gt;Node2</title>
<path fill="none" stroke="midnightblue" d="M67.84,-309.02C69.82,-348.96 82.97,-504.41 169,-581.5 178.03,-589.59 189.9,-594.39 201.68,-597.2"/>
<polygon fill="midnightblue" stroke="midnightblue" points="201.01,-600.63 211.5,-599.11 202.36,-593.76 201.01,-600.63"/>
</g>
<!-- Node3 -->
<g id="node3" class="node">
<title>Node3</title>
<g id="a_node3"><a xlink:href="../../d3/d5f/class_preferences_dialog.html#ad070e538be8aefc76a2bd78cca51a68b" target="_top" xlink:title=" ">
<polygon fill="white" stroke="black" points="174.5,-541.5 174.5,-571.5 323.5,-571.5 323.5,-541.5 174.5,-541.5"/>
<text text-anchor="start" x="182.5" y="-559.5" font-family="Helvetica,sans-Serif" font-size="10.00">PreferencesDialog::</text>
<text text-anchor="middle" x="249" y="-548.5" font-family="Helvetica,sans-Serif" font-size="10.00">getAdditionalSpace_checkBox</text>
</a>
</g>
</g>
<!-- Node1&#45;&gt;Node3 -->
<g id="edge2" class="edge">
<title>Node1&#45;&gt;Node3</title>
<path fill="none" stroke="midnightblue" d="M68.8,-309.15C74.07,-344.55 97.16,-468.54 169,-532.5 170.32,-533.68 171.71,-534.8 173.14,-535.87"/>
<polygon fill="midnightblue" stroke="midnightblue" points="171.47,-538.96 181.79,-541.39 175.24,-533.06 171.47,-538.96"/>
</g>
<!-- Node4 -->
<g id="node4" class="node">
<title>Node4</title>
<g id="a_node4"><a xlink:href="../../d3/d5f/class_preferences_dialog.html#a10f830599ba6b77e44fcf65354a4d773" target="_top" xlink:title=" ">
<polygon fill="white" stroke="black" points="176,-492.5 176,-522.5 322,-522.5 322,-492.5 176,-492.5"/>
<text text-anchor="start" x="184" y="-510.5" font-family="Helvetica,sans-Serif" font-size="10.00">PreferencesDialog::</text>
<text text-anchor="middle" x="249" y="-499.5" font-family="Helvetica,sans-Serif" font-size="10.00">getAStarHeuristic_comboBox</text>
</a>
</g>
</g>
<!-- Node1&#45;&gt;Node4 -->
<g id="edge3" class="edge">
<title>Node1&#45;&gt;Node4</title>
<path fill="none" stroke="midnightblue" d="M70.06,-309.11C78.61,-339.36 109.09,-433.51 169,-482.5 171.05,-484.17 173.21,-485.74 175.45,-487.19"/>
<polygon fill="midnightblue" stroke="midnightblue" points="174.06,-490.43 184.49,-492.32 177.51,-484.34 174.06,-490.43"/>
</g>
<!-- Node5 -->
<g id="node5" class="node">
<title>Node5</title>
<g id="a_node5"><a xlink:href="../../d3/d5f/class_preferences_dialog.html#aaf70a9f541255732293848e3c5fdfa15" target="_top" xlink:title=" ">
<polygon fill="white" stroke="black" points="191,-432 191,-473 307,-473 307,-432 191,-432"/>
<text text-anchor="start" x="199" y="-461" font-family="Helvetica,sans-Serif" font-size="10.00">PreferencesDialog::</text>
<text text-anchor="start" x="199" y="-450" font-family="Helvetica,sans-Serif" font-size="10.00">getLineDiameterFactor</text>
<text text-anchor="middle" x="249" y="-439" font-family="Helvetica,sans-Serif" font-size="10.00">_textEdit</text>
</a>
</g>
</g>
<!-- Node1&#45;&gt;Node5 -->
<g id="edge4" class="edge">
<title>Node1&#45;&gt;Node5</title>
<path fill="none" stroke="midnightblue" d="M73.08,-309.26C86.63,-332.17 123.54,-389.92 169,-422.5 172.96,-425.34 177.23,-427.95 181.66,-430.34"/>
<polygon fill="midnightblue" stroke="midnightblue" points="180.4,-433.63 190.91,-434.94 183.52,-427.36 180.4,-433.63"/>
</g>
<!-- Node6 -->
<g id="node6" class="node">
<title>Node6</title>
<g id="a_node6"><a xlink:href="../../d4/d4d/class_tool_registry.html#ac7399939344c02b4bdcd9e23c92758da" target="_top" xlink:title="Return a pointer to a tool given its name.">
<polygon fill="white" stroke="black" points="194.5,-394 194.5,-413 303.5,-413 303.5,-394 194.5,-394"/>
<text text-anchor="middle" x="249" y="-401" font-family="Helvetica,sans-Serif" font-size="10.00">ToolRegistry::getTool</text>
</a>
</g>
</g>
<!-- Node1&#45;&gt;Node6 -->
<g id="edge5" class="edge">
<title>Node1&#45;&gt;Node6</title>
<path fill="none" stroke="midnightblue" d="M75.97,-309.06C92.2,-326.76 129.59,-364.65 169,-384.5 173.88,-386.96 179.1,-389.11 184.43,-390.99"/>
<polygon fill="midnightblue" stroke="midnightblue" points="183.52,-394.37 194.11,-394.08 185.65,-387.7 183.52,-394.37"/>
</g>
<!-- Node7 -->
<g id="node7" class="node">
<title>Node7</title>
<g id="a_node7"><a xlink:href="../../d3/d5f/class_preferences_dialog.html#a164e2ad502644fcaccb731b9a91df87a" target="_top" xlink:title=" ">
<polygon fill="white" stroke="black" points="188,-334 188,-375 310,-375 310,-334 188,-334"/>
<text text-anchor="start" x="196" y="-363" font-family="Helvetica,sans-Serif" font-size="10.00">PreferencesDialog::</text>
<text text-anchor="start" x="196" y="-352" font-family="Helvetica,sans-Serif" font-size="10.00">getWireLengthOptimizer</text>
<text text-anchor="middle" x="249" y="-341" font-family="Helvetica,sans-Serif" font-size="10.00">_comboBox</text>
</a>
</g>
</g>
<!-- Node1&#45;&gt;Node7 -->
<g id="edge6" class="edge">
<title>Node1&#45;&gt;Node7</title>
<path fill="none" stroke="midnightblue" d="M98.94,-309.08C120.71,-315.71 150.57,-324.81 177.84,-333.12"/>
<polygon fill="midnightblue" stroke="midnightblue" points="177.17,-336.58 187.75,-336.14 179.21,-329.88 177.17,-336.58"/>
</g>
<!-- Node8 -->
<g id="node8" class="node">
<title>Node8</title>
<g id="a_node8"><a xlink:href="../../d5/d26/class_tool_execution_wait_thread.html#afc8640e551daf8e913f7f4aca7cfe7f0" target="_top" xlink:title=" ">
<polygon fill="white" stroke="black" points="185,-284.5 185,-314.5 313,-314.5 313,-284.5 185,-284.5"/>
<text text-anchor="start" x="193" y="-302.5" font-family="Helvetica,sans-Serif" font-size="10.00">ToolExecutionWaitThread</text>
<text text-anchor="middle" x="249" y="-291.5" font-family="Helvetica,sans-Serif" font-size="10.00">::isDone</text>
</a>
</g>
</g>
<!-- Node1&#45;&gt;Node8 -->
<g id="edge7" class="edge">
<title>Node1&#45;&gt;Node8</title>
<path fill="none" stroke="midnightblue" d="M133.18,-299.5C146.59,-299.5 160.79,-299.5 174.46,-299.5"/>
<polygon fill="midnightblue" stroke="midnightblue" points="174.78,-303 184.78,-299.5 174.78,-296 174.78,-303"/>
</g>
<!-- Node9 -->
<g id="node9" class="node">
<title>Node9</title>
<g id="a_node9"><a xlink:href="../../df/dfa/class_autowire_tool.html#a235760db81eef8788b772968a1286bb7" target="_top" xlink:title="Set diameter of wire.">
<polygon fill="white" stroke="black" points="174,-235.5 174,-265.5 324,-265.5 324,-235.5 174,-235.5"/>
<text text-anchor="start" x="182" y="-253.5" font-family="Helvetica,sans-Serif" font-size="10.00">AutowireTool::setLineDiameter</text>
<text text-anchor="middle" x="249" y="-242.5" font-family="Helvetica,sans-Serif" font-size="10.00">Factor</text>
</a>
</g>
</g>
<!-- Node1&#45;&gt;Node9 -->
<g id="edge8" class="edge">
<title>Node1&#45;&gt;Node9</title>
<path fill="none" stroke="midnightblue" d="M102.73,-289.94C125.48,-283.76 155.78,-275.54 182.82,-268.2"/>
<polygon fill="midnightblue" stroke="midnightblue" points="183.87,-271.53 192.61,-265.54 182.04,-264.78 183.87,-271.53"/>
</g>
<!-- Node10 -->
<g id="node10" class="node">
<title>Node10</title>
<g id="a_node10"><a xlink:href="../../df/dfa/class_autowire_tool.html#a5aac1badac0469f1339bd7663d5f0e92" target="_top" xlink:title="Set optimization algorithm object to be used.">
<polygon fill="white" stroke="black" points="182,-197 182,-216 316,-216 316,-197 182,-197"/>
<text text-anchor="middle" x="249" y="-204" font-family="Helvetica,sans-Serif" font-size="10.00">AutowireTool::setOptimizer</text>
</a>
</g>
</g>
<!-- Node1&#45;&gt;Node10 -->
<g id="edge9" class="edge">
<title>Node1&#45;&gt;Node10</title>
<path fill="none" stroke="midnightblue" d="M77.91,-289.93C95.4,-274.36 132.4,-243.54 169,-226.5 175.12,-223.65 181.7,-221.17 188.36,-219.02"/>
<polygon fill="midnightblue" stroke="midnightblue" points="189.55,-222.32 198.13,-216.1 187.54,-215.61 189.55,-222.32"/>
</g>
<!-- Node11 -->
<g id="node11" class="node">
<title>Node11</title>
<g id="a_node11"><a xlink:href="../../df/dfa/class_autowire_tool.html#a5511c7e5ce246d643ca3aef700c834a0" target="_top" xlink:title="Set to use chebyshev distance heuristic.">
<polygon fill="white" stroke="black" points="169,-147.5 169,-177.5 329,-177.5 329,-147.5 169,-147.5"/>
<text text-anchor="start" x="177" y="-165.5" font-family="Helvetica,sans-Serif" font-size="10.00">AutowireTool::setUseChebyshev</text>
<text text-anchor="middle" x="249" y="-154.5" font-family="Helvetica,sans-Serif" font-size="10.00">DistanceHeuristic</text>
</a>
</g>
</g>
<!-- Node1&#45;&gt;Node11 -->
<g id="edge10" class="edge">
<title>Node1&#45;&gt;Node11</title>
<path fill="none" stroke="midnightblue" d="M73.6,-289.84C87.72,-268.26 124.83,-215.84 169,-187.5 172.15,-185.48 175.48,-183.61 178.91,-181.88"/>
<polygon fill="midnightblue" stroke="midnightblue" points="180.57,-184.97 188.21,-177.64 177.66,-178.61 180.57,-184.97"/>
</g>
<!-- Node12 -->
<g id="node12" class="node">
<title>Node12</title>
<g id="a_node12"><a xlink:href="../../df/dfa/class_autowire_tool.html#a0458a3c810063c8551163d42628aa5b2" target="_top" xlink:title="Set to use diagonal distance heuristic.">
<polygon fill="white" stroke="black" points="174.5,-98.5 174.5,-128.5 323.5,-128.5 323.5,-98.5 174.5,-98.5"/>
<text text-anchor="start" x="182.5" y="-116.5" font-family="Helvetica,sans-Serif" font-size="10.00">AutowireTool::setUseDiagonal</text>
<text text-anchor="middle" x="249" y="-105.5" font-family="Helvetica,sans-Serif" font-size="10.00">DistanceHeuristic</text>
</a>
</g>
</g>
<!-- Node1&#45;&gt;Node12 -->
<g id="edge11" class="edge">
<title>Node1&#45;&gt;Node12</title>
<path fill="none" stroke="midnightblue" d="M70.83,-289.88C80.96,-262.08 114.07,-180.9 169,-138.5 171.43,-136.63 174,-134.89 176.67,-133.29"/>
<polygon fill="midnightblue" stroke="midnightblue" points="178.33,-136.37 185.51,-128.58 175.04,-130.19 178.33,-136.37"/>
</g>
<!-- Node13 -->
<g id="node13" class="node">
<title>Node13</title>
<g id="a_node13"><a xlink:href="../../df/dfa/class_autowire_tool.html#a701101b10c2e6dc8ac166686b936cc77" target="_top" xlink:title="Set to use euclidean distance heuristic.">
<polygon fill="white" stroke="black" points="172.5,-49.5 172.5,-79.5 325.5,-79.5 325.5,-49.5 172.5,-49.5"/>
<text text-anchor="start" x="180.5" y="-67.5" font-family="Helvetica,sans-Serif" font-size="10.00">AutowireTool::setUseEuclidean</text>
<text text-anchor="middle" x="249" y="-56.5" font-family="Helvetica,sans-Serif" font-size="10.00">DistanceHeuristic</text>
</a>
</g>
</g>
<!-- Node1&#45;&gt;Node13 -->
<g id="edge12" class="edge">
<title>Node1&#45;&gt;Node13</title>
<path fill="none" stroke="midnightblue" d="M69.32,-289.91C76.08,-256.89 102.87,-146.75 169,-89.5 170.95,-87.81 173.02,-86.24 175.17,-84.77"/>
<polygon fill="midnightblue" stroke="midnightblue" points="177.05,-87.72 183.87,-79.61 173.48,-81.7 177.05,-87.72"/>
</g>
<!-- Node14 -->
<g id="node14" class="node">
<title>Node14</title>
<g id="a_node14"><a xlink:href="../../df/dfa/class_autowire_tool.html#a732866f61e0d1f4ad27fb8d0d8111d20" target="_top" xlink:title="Set to use manhattan distance heuristic.">
<polygon fill="white" stroke="black" points="171,-0.5 171,-30.5 327,-30.5 327,-0.5 171,-0.5"/>
<text text-anchor="start" x="179" y="-18.5" font-family="Helvetica,sans-Serif" font-size="10.00">AutowireTool::setUseManhattan</text>
<text text-anchor="middle" x="249" y="-7.5" font-family="Helvetica,sans-Serif" font-size="10.00">DistanceHeuristic</text>
</a>
</g>
</g>
<!-- Node1&#45;&gt;Node14 -->
<g id="edge13" class="edge">
<title>Node1&#45;&gt;Node14</title>
<path fill="none" stroke="midnightblue" d="M68.35,-289.88C72.21,-252.19 91.4,-113.07 169,-40.5 170.66,-38.94 172.43,-37.48 174.27,-36.11"/>
<polygon fill="midnightblue" stroke="midnightblue" points="176.23,-39.01 182.77,-30.68 172.46,-33.11 176.23,-39.01"/>
</g>
</g>
</svg>
