<?xml version="1.0" encoding="UTF-8" standalone="no"?>
<!DOCTYPE svg PUBLIC "-//W3C//DTD SVG 1.1//EN"
 "http://www.w3.org/Graphics/SVG/1.1/DTD/svg11.dtd">
<!-- Generated by graphviz version 2.44.1 (0)
 -->
<!-- Title: MainWindow::slotLassoTouchpointTool Pages: 1 -->
<svg width="378pt" height="204pt"
 viewBox="0.00 0.00 378.00 203.50" xmlns="http://www.w3.org/2000/svg" xmlns:xlink="http://www.w3.org/1999/xlink">
<g id="graph0" class="graph" transform="scale(1 1) rotate(0) translate(4 199.5)">
<title>MainWindow::slotLassoTouchpointTool</title>
<polygon fill="white" stroke="transparent" points="-4,4 -4,-199.5 374,-199.5 374,4 -4,4"/>
<!-- Node1 -->
<g id="node1" class="node">
<title>Node1</title>
<g id="a_node1"><a xlink:title=" ">
<polygon fill="#bfbfbf" stroke="black" points="0,-94 0,-113 186,-113 186,-94 0,-94"/>
<text text-anchor="middle" x="93" y="-101" font-family="Helvetica,sans-Serif" font-size="10.00">MainWindow::slotLassoTouchpointTool</text>
</a>
</g>
</g>
<!-- Node2 -->
<g id="node2" class="node">
<title>Node2</title>
<g id="a_node2"><a xlink:href="../../da/db7/class_tool.html#aa3ef777234d67638f33c92a57a083868" target="_top" xlink:title=" ">
<polygon fill="white" stroke="black" points="258.5,-176 258.5,-195 333.5,-195 333.5,-176 258.5,-176"/>
<text text-anchor="middle" x="296" y="-183" font-family="Helvetica,sans-Serif" font-size="10.00">Tool::execute</text>
</a>
</g>
</g>
<!-- Node1&#45;&gt;Node2 -->
<g id="edge1" class="edge">
<title>Node1&#45;&gt;Node2</title>
<path fill="none" stroke="midnightblue" d="M110.9,-113.2C134.94,-126.68 180.68,-151.13 222,-166.5 230.38,-169.62 239.49,-172.42 248.34,-174.86"/>
<polygon fill="midnightblue" stroke="midnightblue" points="247.6,-178.29 258.16,-177.46 249.39,-171.52 247.6,-178.29"/>
</g>
<!-- Node3 -->
<g id="node3" class="node">
<title>Node3</title>
<g id="a_node3"><a xlink:href="../../d4/d4d/class_tool_registry.html#ac7399939344c02b4bdcd9e23c92758da" target="_top" xlink:title="Return a pointer to a tool given its name.">
<polygon fill="white" stroke="black" points="241.5,-138 241.5,-157 350.5,-157 350.5,-138 241.5,-138"/>
<text text-anchor="middle" x="296" y="-145" font-family="Helvetica,sans-Serif" font-size="10.00">ToolRegistry::getTool</text>
</a>
</g>
</g>
<!-- Node1&#45;&gt;Node3 -->
<g id="edge2" class="edge">
<title>Node1&#45;&gt;Node3</title>
<path fill="none" stroke="midnightblue" d="M137.61,-113.05C168.17,-119.74 209.18,-128.71 241.68,-135.83"/>
<polygon fill="midnightblue" stroke="midnightblue" points="240.95,-139.25 251.47,-137.97 242.45,-132.41 240.95,-139.25"/>
</g>
<!-- Node4 -->
<g id="node4" class="node">
<title>Node4</title>
<g id="a_node4"><a xlink:href="../../dd/d4a/class_lasso_tool.html#a0858eb73b6ccb07746ab1bbac5ced2bb" target="_top" xlink:title="Set if touchpoint inner surfaces are trimmed to get rectangular bounds.">
<polygon fill="white" stroke="black" points="229.5,-88.5 229.5,-118.5 362.5,-118.5 362.5,-88.5 229.5,-88.5"/>
<text text-anchor="start" x="237.5" y="-106.5" font-family="Helvetica,sans-Serif" font-size="10.00">LassoTool::setRectangular</text>
<text text-anchor="middle" x="296" y="-95.5" font-family="Helvetica,sans-Serif" font-size="10.00">TouchpointBounds</text>
</a>
</g>
</g>
<!-- Node1&#45;&gt;Node4 -->
<g id="edge3" class="edge">
<title>Node1&#45;&gt;Node4</title>
<path fill="none" stroke="midnightblue" d="M186.26,-103.5C197.29,-103.5 208.45,-103.5 219.21,-103.5"/>
<polygon fill="midnightblue" stroke="midnightblue" points="219.38,-107 229.38,-103.5 219.38,-100 219.38,-107"/>
</g>
<!-- Node5 -->
<g id="node5" class="node">
<title>Node5</title>
<g id="a_node5"><a xlink:href="../../dd/d4a/class_lasso_tool.html#a2458cea555baedc6aa100f702f95a973" target="_top" xlink:title="Set the offset above the surface of the touchpoint.">
<polygon fill="white" stroke="black" points="222,-50 222,-69 370,-69 370,-50 222,-50"/>
<text text-anchor="middle" x="296" y="-57" font-family="Helvetica,sans-Serif" font-size="10.00">LassoTool::setSurfaceOverlap</text>
</a>
</g>
</g>
<!-- Node1&#45;&gt;Node5 -->
<g id="edge4" class="edge">
<title>Node1&#45;&gt;Node5</title>
<path fill="none" stroke="midnightblue" d="M137.61,-93.95C168.17,-87.26 209.18,-78.29 241.68,-71.17"/>
<polygon fill="midnightblue" stroke="midnightblue" points="242.45,-74.59 251.47,-69.03 240.95,-67.75 242.45,-74.59"/>
</g>
<!-- Node6 -->
<g id="node6" class="node">
<title>Node6</title>
<g id="a_node6"><a xlink:href="../../dd/d4a/class_lasso_tool.html#a54110ccf80be4b7e02a3df9cf91e88f7" target="_top" xlink:title="Set the penetration depth of the touchpoint.">
<polygon fill="white" stroke="black" points="232,-0.5 232,-30.5 360,-30.5 360,-0.5 232,-0.5"/>
<text text-anchor="start" x="240" y="-18.5" font-family="Helvetica,sans-Serif" font-size="10.00">LassoTool::setTouchpoint</text>
<text text-anchor="middle" x="296" y="-7.5" font-family="Helvetica,sans-Serif" font-size="10.00">Depth</text>
</a>
</g>
</g>
<!-- Node1&#45;&gt;Node6 -->
<g id="edge5" class="edge">
<title>Node1&#45;&gt;Node6</title>
<path fill="none" stroke="midnightblue" d="M111.89,-93.79C136.34,-80.73 181.74,-57.22 222,-40.5 227.31,-38.29 232.89,-36.13 238.5,-34.04"/>
<polygon fill="midnightblue" stroke="midnightblue" points="239.73,-37.32 247.94,-30.63 237.34,-30.74 239.73,-37.32"/>
</g>
</g>
</svg>
