<?xml version="1.0" encoding="UTF-8" standalone="no"?>
<!DOCTYPE svg PUBLIC "-//W3C//DTD SVG 1.1//EN"
 "http://www.w3.org/Graphics/SVG/1.1/DTD/svg11.dtd">
<!-- Generated by graphviz version 2.44.1 (0)
 -->
<!-- Title: MainWindow::slotPolylineMagnetTool Pages: 1 -->
<svg width="342pt" height="214pt"
 viewBox="0.00 0.00 342.00 213.50" xmlns="http://www.w3.org/2000/svg" xmlns:xlink="http://www.w3.org/1999/xlink">
<g id="graph0" class="graph" transform="scale(1 1) rotate(0) translate(4 209.5)">
<title>MainWindow::slotPolylineMagnetTool</title>
<polygon fill="white" stroke="transparent" points="-4,4 -4,-209.5 338,-209.5 338,4 -4,4"/>
<!-- Node1 -->
<g id="node1" class="node">
<title>Node1</title>
<g id="a_node1"><a xlink:title=" ">
<polygon fill="#bfbfbf" stroke="black" points="0,-98.5 0,-128.5 129,-128.5 129,-98.5 0,-98.5"/>
<text text-anchor="start" x="8" y="-116.5" font-family="Helvetica,sans-Serif" font-size="10.00">MainWindow::slotPolyline</text>
<text text-anchor="middle" x="64.5" y="-105.5" font-family="Helvetica,sans-Serif" font-size="10.00">MagnetTool</text>
</a>
</g>
</g>
<!-- Node2 -->
<g id="node2" class="node">
<title>Node2</title>
<g id="a_node2"><a xlink:href="../../da/db7/class_tool.html#aa3ef777234d67638f33c92a57a083868" target="_top" xlink:title=" ">
<polygon fill="white" stroke="black" points="212,-186 212,-205 287,-205 287,-186 212,-186"/>
<text text-anchor="middle" x="249.5" y="-193" font-family="Helvetica,sans-Serif" font-size="10.00">Tool::execute</text>
</a>
</g>
</g>
<!-- Node1&#45;&gt;Node2 -->
<g id="edge1" class="edge">
<title>Node1&#45;&gt;Node2</title>
<path fill="none" stroke="midnightblue" d="M84.97,-128.68C104.26,-143.01 135.17,-164.1 165,-176.5 176.58,-181.32 189.6,-185.02 201.85,-187.83"/>
<polygon fill="midnightblue" stroke="midnightblue" points="201.4,-191.31 211.91,-189.97 202.86,-184.46 201.4,-191.31"/>
</g>
<!-- Node3 -->
<g id="node3" class="node">
<title>Node3</title>
<g id="a_node3"><a xlink:href="../../d4/d4d/class_tool_registry.html#ac7399939344c02b4bdcd9e23c92758da" target="_top" xlink:title="Return a pointer to a tool given its name.">
<polygon fill="white" stroke="black" points="195,-148 195,-167 304,-167 304,-148 195,-148"/>
<text text-anchor="middle" x="249.5" y="-155" font-family="Helvetica,sans-Serif" font-size="10.00">ToolRegistry::getTool</text>
</a>
</g>
</g>
<!-- Node1&#45;&gt;Node3 -->
<g id="edge2" class="edge">
<title>Node1&#45;&gt;Node3</title>
<path fill="none" stroke="midnightblue" d="M124.37,-128.52C137.72,-131.87 151.84,-135.35 165,-138.5 174.87,-140.86 185.41,-143.32 195.56,-145.64"/>
<polygon fill="midnightblue" stroke="midnightblue" points="195.02,-149.11 205.55,-147.92 196.58,-142.28 195.02,-149.11"/>
</g>
<!-- Node4 -->
<g id="node4" class="node">
<title>Node4</title>
<g id="a_node4"><a xlink:href="../../de/dd7/class_polyline_touchpoint_tool.html#ad7b34d33756ce21755e87278d95b3e8a" target="_top" xlink:title="Set if touchpoint inner surfaces are trimmed to get rectangular bounds.">
<polygon fill="white" stroke="black" points="165,-98.5 165,-128.5 334,-128.5 334,-98.5 165,-98.5"/>
<text text-anchor="start" x="173" y="-116.5" font-family="Helvetica,sans-Serif" font-size="10.00">PolylineTouchpointTool</text>
<text text-anchor="middle" x="249.5" y="-105.5" font-family="Helvetica,sans-Serif" font-size="10.00">::setRectangularTouchpointBounds</text>
</a>
</g>
</g>
<!-- Node1&#45;&gt;Node4 -->
<g id="edge3" class="edge">
<title>Node1&#45;&gt;Node4</title>
<path fill="none" stroke="midnightblue" d="M129.25,-113.5C137.48,-113.5 146.04,-113.5 154.63,-113.5"/>
<polygon fill="midnightblue" stroke="midnightblue" points="154.7,-117 164.7,-113.5 154.7,-110 154.7,-117"/>
</g>
<!-- Node5 -->
<g id="node5" class="node">
<title>Node5</title>
<g id="a_node5"><a xlink:href="../../de/dd7/class_polyline_touchpoint_tool.html#a04c8903651e792b7384f01cc30f4c80c" target="_top" xlink:title="Set the offset above the surface of the touchpoint.">
<polygon fill="white" stroke="black" points="191.5,-49.5 191.5,-79.5 307.5,-79.5 307.5,-49.5 191.5,-49.5"/>
<text text-anchor="start" x="199.5" y="-67.5" font-family="Helvetica,sans-Serif" font-size="10.00">PolylineTouchpointTool</text>
<text text-anchor="middle" x="249.5" y="-56.5" font-family="Helvetica,sans-Serif" font-size="10.00">::setSurfaceOverlap</text>
</a>
</g>
</g>
<!-- Node1&#45;&gt;Node5 -->
<g id="edge4" class="edge">
<title>Node1&#45;&gt;Node5</title>
<path fill="none" stroke="midnightblue" d="M121.9,-98.4C141.04,-93.27 162.59,-87.5 182.41,-82.2"/>
<polygon fill="midnightblue" stroke="midnightblue" points="183.53,-85.52 192.29,-79.55 181.72,-78.76 183.53,-85.52"/>
</g>
<!-- Node6 -->
<g id="node6" class="node">
<title>Node6</title>
<g id="a_node6"><a xlink:href="../../de/dd7/class_polyline_touchpoint_tool.html#a1a10b780fe97d683e5cc44d2ab76f63e" target="_top" xlink:title="Set the penetration depth of the touchpoint.">
<polygon fill="white" stroke="black" points="191.5,-0.5 191.5,-30.5 307.5,-30.5 307.5,-0.5 191.5,-0.5"/>
<text text-anchor="start" x="199.5" y="-18.5" font-family="Helvetica,sans-Serif" font-size="10.00">PolylineTouchpointTool</text>
<text text-anchor="middle" x="249.5" y="-7.5" font-family="Helvetica,sans-Serif" font-size="10.00">::setTouchpointDepth</text>
</a>
</g>
</g>
<!-- Node1&#45;&gt;Node6 -->
<g id="edge5" class="edge">
<title>Node1&#45;&gt;Node6</title>
<path fill="none" stroke="midnightblue" d="M82.28,-98.36C101.17,-82.03 133.35,-56.26 165,-40.5 170.29,-37.86 175.92,-35.45 181.65,-33.25"/>
<polygon fill="midnightblue" stroke="midnightblue" points="183.13,-36.44 191.35,-29.76 180.75,-29.85 183.13,-36.44"/>
</g>
</g>
</svg>
