<?xml version="1.0" encoding="UTF-8" standalone="no"?>
<!DOCTYPE svg PUBLIC "-//W3C//DTD SVG 1.1//EN"
 "http://www.w3.org/Graphics/SVG/1.1/DTD/svg11.dtd">
<!-- Generated by graphviz version 2.44.0 (0)
 -->
<!-- Title: MainWindow::loadMesh Pages: 1 -->
<svg width="658pt" height="619pt"
 viewBox="0.00 0.00 658.00 619.00" xmlns="http://www.w3.org/2000/svg" xmlns:xlink="http://www.w3.org/1999/xlink">
<g id="graph0" class="graph" transform="scale(1 1) rotate(0) translate(4 615)">
<title>MainWindow::loadMesh</title>
<polygon fill="white" stroke="transparent" points="-4,4 -4,-615 654,-615 654,4 -4,4"/>
<!-- Node1 -->
<g id="node1" class="node">
<title>Node1</title>
<g id="a_node1"><a xlink:title="Import STL / OBJ mesh into the scene.">
<polygon fill="#bfbfbf" stroke="black" points="0,-307.5 0,-326.5 121,-326.5 121,-307.5 0,-307.5"/>
<text text-anchor="middle" x="60.5" y="-314.5" font-family="Helvetica,sans-Serif" font-size="10.00">MainWindow::loadMesh</text>
</a>
</g>
</g>
<!-- Node2 -->
<g id="node2" class="node">
<title>Node2</title>
<g id="a_node2"><a xlink:href="../../d9/dc6/class_main_window.html#a08e4bb8908089a538371760ac9f2f54e" target="_top" xlink:title="En&#45;/disable all menus (usefull during operations which work in another thread)">
<polygon fill="white" stroke="black" points="168,-591.5 168,-610.5 307,-610.5 307,-591.5 168,-591.5"/>
<text text-anchor="middle" x="237.5" y="-598.5" font-family="Helvetica,sans-Serif" font-size="10.00">MainWindow::disableMenus</text>
</a>
</g>
</g>
<!-- Node1&#45;&gt;Node2 -->
<g id="edge1" class="edge">
<title>Node1&#45;&gt;Node2</title>
<path fill="none" stroke="midnightblue" d="M62.07,-326.67C64.82,-364.57 80.03,-504.43 157,-577 161.3,-581.06 166.26,-584.43 171.57,-587.23"/>
<polygon fill="midnightblue" stroke="midnightblue" points="170.2,-590.46 180.75,-591.43 173.11,-584.09 170.2,-590.46"/>
</g>
<!-- Node3 -->
<g id="node3" class="node">
<title>Node3</title>
<g id="a_node3"><a xlink:href="../../db/dae/class_voxel_image_visualizer.html#a9d6ddcce68efaea01bfacaa932f27d9a" target="_top" xlink:title="Return RGB color cube output visualization.">
<polygon fill="white" stroke="black" points="364.5,-512 364.5,-542 474.5,-542 474.5,-512 364.5,-512"/>
<text text-anchor="start" x="372.5" y="-530" font-family="Helvetica,sans-Serif" font-size="10.00">VoxelImageVisualizer</text>
<text text-anchor="middle" x="419.5" y="-519" font-family="Helvetica,sans-Serif" font-size="10.00">::getColorOutput</text>
</a>
</g>
</g>
<!-- Node1&#45;&gt;Node3 -->
<g id="edge2" class="edge">
<title>Node1&#45;&gt;Node3</title>
<path fill="none" stroke="midnightblue" d="M63.02,-326.6C68.62,-358.57 91.39,-461.92 157,-506 215.13,-545.05 297.78,-544.77 354.51,-538.31"/>
<polygon fill="midnightblue" stroke="midnightblue" points="354.94,-541.79 364.44,-537.09 354.09,-534.84 354.94,-541.79"/>
</g>
<!-- Node6 -->
<g id="node6" class="node">
<title>Node6</title>
<g id="a_node6"><a xlink:href="../../db/dae/class_voxel_image_visualizer.html#a279e821afcfbef7cb624c391eec3b7a4" target="_top" xlink:title="Return visualization of the mesh interior only.">
<polygon fill="white" stroke="black" points="182.5,-466 182.5,-496 292.5,-496 292.5,-466 182.5,-466"/>
<text text-anchor="start" x="190.5" y="-484" font-family="Helvetica,sans-Serif" font-size="10.00">VoxelImageVisualizer</text>
<text text-anchor="middle" x="237.5" y="-473" font-family="Helvetica,sans-Serif" font-size="10.00">::getInteriorOutput</text>
</a>
</g>
</g>
<!-- Node1&#45;&gt;Node6 -->
<g id="edge5" class="edge">
<title>Node1&#45;&gt;Node6</title>
<path fill="none" stroke="midnightblue" d="M65.84,-326.58C77.27,-350.84 110.6,-415.27 157,-451 162.26,-455.05 168.13,-458.61 174.23,-461.71"/>
<polygon fill="midnightblue" stroke="midnightblue" points="172.75,-464.88 183.29,-465.95 175.72,-458.54 172.75,-464.88"/>
</g>
<!-- Node8 -->
<g id="node8" class="node">
<title>Node8</title>
<g id="a_node8"><a xlink:href="../../db/dae/class_voxel_image_visualizer.html#a00b60f629dcc3335bff26934e88b9bcb" target="_top" xlink:title="Return the occupation map visualization (unoccupied = yellow, occupied = blue)">
<polygon fill="white" stroke="black" points="362,-414 362,-444 477,-444 477,-414 362,-414"/>
<text text-anchor="start" x="370" y="-432" font-family="Helvetica,sans-Serif" font-size="10.00">VoxelImageVisualizer</text>
<text text-anchor="middle" x="419.5" y="-421" font-family="Helvetica,sans-Serif" font-size="10.00">::getOccupationOutput</text>
</a>
</g>
</g>
<!-- Node1&#45;&gt;Node8 -->
<g id="edge9" class="edge">
<title>Node1&#45;&gt;Node8</title>
<path fill="none" stroke="midnightblue" d="M66.91,-326.51C79.5,-347.6 113.08,-397.98 157,-418 218.6,-446.08 297.06,-445.2 351.9,-439.56"/>
<polygon fill="midnightblue" stroke="midnightblue" points="352.3,-443.04 361.86,-438.46 351.53,-436.08 352.3,-443.04"/>
</g>
<!-- Node9 -->
<g id="node9" class="node">
<title>Node9</title>
<g id="a_node9"><a xlink:href="../../d1/db8/class_voxelizer.html#a26853b4686f962a54f48a6dfd1fbcd5d" target="_top" xlink:title=" ">
<polygon fill="white" stroke="black" points="185,-389.5 185,-408.5 290,-408.5 290,-389.5 185,-389.5"/>
<text text-anchor="middle" x="237.5" y="-396.5" font-family="Helvetica,sans-Serif" font-size="10.00">Voxelizer::getOutput</text>
</a>
</g>
</g>
<!-- Node1&#45;&gt;Node9 -->
<g id="edge12" class="edge">
<title>Node1&#45;&gt;Node9</title>
<path fill="none" stroke="midnightblue" d="M73.08,-326.6C90.31,-340.41 124.19,-365.79 157,-380 162.73,-382.48 168.83,-384.67 175.01,-386.59"/>
<polygon fill="midnightblue" stroke="midnightblue" points="174.17,-389.99 184.75,-389.4 176.11,-383.27 174.17,-389.99"/>
</g>
<!-- Node10 -->
<g id="node10" class="node">
<title>Node10</title>
<g id="a_node10"><a xlink:href="../../db/dae/class_voxel_image_visualizer.html#a5f41640feebb9f49204b777abb09fec2" target="_top" xlink:title="Return visualization with VOXEL_OUTSIDE = &quot;White&quot;, VOXEL_OCCUPIED = &quot;Red&quot;, VOXEL_SHELL = &quot;Yellow&quot;,...">
<polygon fill="white" stroke="black" points="354,-561 354,-591 485,-591 485,-561 354,-561"/>
<text text-anchor="start" x="362" y="-579" font-family="Helvetica,sans-Serif" font-size="10.00">VoxelImageVisualizer</text>
<text text-anchor="middle" x="419.5" y="-568" font-family="Helvetica,sans-Serif" font-size="10.00">::getShellAndInsideOutput</text>
</a>
</g>
</g>
<!-- Node1&#45;&gt;Node10 -->
<g id="edge13" class="edge">
<title>Node1&#45;&gt;Node10</title>
<path fill="none" stroke="midnightblue" d="M62.48,-326.93C66.54,-362.16 85.33,-481.99 157,-537 185.53,-558.9 277.12,-568.6 343.87,-572.83"/>
<polygon fill="midnightblue" stroke="midnightblue" points="343.75,-576.33 353.94,-573.44 344.17,-569.34 343.75,-576.33"/>
</g>
<!-- Node11 -->
<g id="node11" class="node">
<title>Node11</title>
<g id="a_node11"><a xlink:href="../../d9/dc6/class_main_window.html#a69be5fbef09fb7b5c37dfe4bf546bd8a" target="_top" xlink:title="Return the used voxelizer.">
<polygon fill="white" stroke="black" points="171.5,-351.5 171.5,-370.5 303.5,-370.5 303.5,-351.5 171.5,-351.5"/>
<text text-anchor="middle" x="237.5" y="-358.5" font-family="Helvetica,sans-Serif" font-size="10.00">MainWindow::getVoxelizer</text>
</a>
</g>
</g>
<!-- Node1&#45;&gt;Node11 -->
<g id="edge16" class="edge">
<title>Node1&#45;&gt;Node11</title>
<path fill="none" stroke="midnightblue" d="M97.28,-326.56C115.19,-331.3 137.22,-337.05 157,-342 166.3,-344.33 176.22,-346.75 185.8,-349.05"/>
<polygon fill="midnightblue" stroke="midnightblue" points="185.07,-352.48 195.61,-351.4 186.7,-345.67 185.07,-352.48"/>
</g>
<!-- Node13 -->
<g id="node13" class="node">
<title>Node13</title>
<g id="a_node13"><a xlink:href="../../d9/dc6/class_main_window.html#a81962e4df0a9d0167d3870ec87a574d9" target="_top" xlink:title="Return the resolution of the used voxelizer.">
<polygon fill="white" stroke="black" points="171.5,-302 171.5,-332 303.5,-332 303.5,-302 171.5,-302"/>
<text text-anchor="start" x="179.5" y="-320" font-family="Helvetica,sans-Serif" font-size="10.00">MainWindow::getVoxelizer</text>
<text text-anchor="middle" x="237.5" y="-309" font-family="Helvetica,sans-Serif" font-size="10.00">Resolution</text>
</a>
</g>
</g>
<!-- Node1&#45;&gt;Node13 -->
<g id="edge18" class="edge">
<title>Node1&#45;&gt;Node13</title>
<path fill="none" stroke="midnightblue" d="M121.24,-317C134.1,-317 147.85,-317 161.22,-317"/>
<polygon fill="midnightblue" stroke="midnightblue" points="161.34,-320.5 171.34,-317 161.34,-313.5 161.34,-320.5"/>
</g>
<!-- Node15 -->
<g id="node15" class="node">
<title>Node15</title>
<g id="a_node15"><a xlink:href="../../dc/da5/class_voxelizer_thread.html#aeec94d245092bf8afa42ec5af6563e1b" target="_top" xlink:title=" ">
<polygon fill="white" stroke="black" points="176,-263.5 176,-282.5 299,-282.5 299,-263.5 176,-263.5"/>
<text text-anchor="middle" x="237.5" y="-270.5" font-family="Helvetica,sans-Serif" font-size="10.00">VoxelizerThread::isDone</text>
</a>
</g>
</g>
<!-- Node1&#45;&gt;Node15 -->
<g id="edge20" class="edge">
<title>Node1&#45;&gt;Node15</title>
<path fill="none" stroke="midnightblue" d="M99.47,-307.45C125.62,-300.88 160.55,-292.1 188.61,-285.04"/>
<polygon fill="midnightblue" stroke="midnightblue" points="189.76,-288.36 198.6,-282.53 188.05,-281.57 189.76,-288.36"/>
</g>
<!-- Node16 -->
<g id="node16" class="node">
<title>Node16</title>
<g id="a_node16"><a xlink:href="../../dc/d29/class_v_t_k_algorithm_wait_thread.html#a352c79c18a5dac09f0710f4f61437c79" target="_top" xlink:title=" ">
<polygon fill="white" stroke="black" points="174,-214 174,-244 301,-244 301,-214 174,-214"/>
<text text-anchor="start" x="182" y="-232" font-family="Helvetica,sans-Serif" font-size="10.00">VTKAlgorithmWaitThread</text>
<text text-anchor="middle" x="237.5" y="-221" font-family="Helvetica,sans-Serif" font-size="10.00">::isDone</text>
</a>
</g>
</g>
<!-- Node1&#45;&gt;Node16 -->
<g id="edge21" class="edge">
<title>Node1&#45;&gt;Node16</title>
<path fill="none" stroke="midnightblue" d="M73.51,-307.47C90.99,-293.99 124.89,-269.27 157,-254 161.7,-251.77 166.64,-249.67 171.68,-247.71"/>
<polygon fill="midnightblue" stroke="midnightblue" points="173.25,-250.86 181.42,-244.12 170.82,-244.29 173.25,-250.86"/>
</g>
<!-- Node17 -->
<g id="node17" class="node">
<title>Node17</title>
<g id="a_node17"><a xlink:href="../../d1/db8/class_voxelizer.html#a6c0182587b20e001a80607ebc9537958" target="_top" xlink:title=" ">
<polygon fill="white" stroke="black" points="178,-175.5 178,-194.5 297,-194.5 297,-175.5 178,-175.5"/>
<text text-anchor="middle" x="237.5" y="-182.5" font-family="Helvetica,sans-Serif" font-size="10.00">Voxelizer::setInputData</text>
</a>
</g>
</g>
<!-- Node1&#45;&gt;Node17 -->
<g id="edge22" class="edge">
<title>Node1&#45;&gt;Node17</title>
<path fill="none" stroke="midnightblue" d="M66.79,-307.46C79.38,-285.69 113.36,-232.09 157,-205 161.16,-202.41 165.65,-200.16 170.29,-198.2"/>
<polygon fill="midnightblue" stroke="midnightblue" points="171.84,-201.36 179.98,-194.57 169.39,-194.8 171.84,-201.36"/>
</g>
<!-- Node18 -->
<g id="node18" class="node">
<title>Node18</title>
<g id="a_node18"><a xlink:href="../../db/dae/class_voxel_image_visualizer.html#a15634f5a62fd0d71806741d1db033243" target="_top" xlink:title="Set input data of the visualizer.">
<polygon fill="white" stroke="black" points="182.5,-126 182.5,-156 292.5,-156 292.5,-126 182.5,-126"/>
<text text-anchor="start" x="190.5" y="-144" font-family="Helvetica,sans-Serif" font-size="10.00">VoxelImageVisualizer</text>
<text text-anchor="middle" x="237.5" y="-133" font-family="Helvetica,sans-Serif" font-size="10.00">::setInputData</text>
</a>
</g>
</g>
<!-- Node1&#45;&gt;Node18 -->
<g id="edge23" class="edge">
<title>Node1&#45;&gt;Node18</title>
<path fill="none" stroke="midnightblue" d="M64.92,-307.21C74.78,-280.44 105.86,-205.34 157,-166 161.78,-162.33 167.1,-159.19 172.67,-156.5"/>
<polygon fill="midnightblue" stroke="midnightblue" points="174.41,-159.57 182.22,-152.41 171.65,-153.13 174.41,-159.57"/>
</g>
<!-- Node19 -->
<g id="node19" class="node">
<title>Node19</title>
<g id="a_node19"><a xlink:href="../../db/dae/class_voxel_image_visualizer.html#a65eec474a368555a6ba16c1f54e956db" target="_top" xlink:title="Set output size of the visualization.">
<polygon fill="white" stroke="black" points="182.5,-77 182.5,-107 292.5,-107 292.5,-77 182.5,-77"/>
<text text-anchor="start" x="190.5" y="-95" font-family="Helvetica,sans-Serif" font-size="10.00">VoxelImageVisualizer</text>
<text text-anchor="middle" x="237.5" y="-84" font-family="Helvetica,sans-Serif" font-size="10.00">::setOutputSize</text>
</a>
</g>
</g>
<!-- Node1&#45;&gt;Node19 -->
<g id="edge24" class="edge">
<title>Node1&#45;&gt;Node19</title>
<path fill="none" stroke="midnightblue" d="M63.26,-307.43C69.63,-275.44 94.53,-171.24 157,-117 161.8,-112.83 167.3,-109.35 173.12,-106.46"/>
<polygon fill="midnightblue" stroke="midnightblue" points="174.7,-109.58 182.46,-102.37 171.89,-103.17 174.7,-109.58"/>
</g>
<!-- Node20 -->
<g id="node20" class="node">
<title>Node20</title>
<g id="a_node20"><a xlink:href="../../d1/db8/class_voxelizer.html#ab878f5b9cd34bca2411652da392c1e62" target="_top" xlink:title=" ">
<polygon fill="white" stroke="black" points="157,-38.5 157,-57.5 318,-57.5 318,-38.5 157,-38.5"/>
<text text-anchor="middle" x="237.5" y="-45.5" font-family="Helvetica,sans-Serif" font-size="10.00">Voxelizer::setSampleDimensions</text>
</a>
</g>
</g>
<!-- Node1&#45;&gt;Node20 -->
<g id="edge25" class="edge">
<title>Node1&#45;&gt;Node20</title>
<path fill="none" stroke="midnightblue" d="M62.13,-307.37C65.11,-270.29 80.97,-135.43 157,-68 159.37,-65.9 161.93,-64.01 164.63,-62.31"/>
<polygon fill="midnightblue" stroke="midnightblue" points="166.47,-65.3 173.67,-57.53 163.19,-59.11 166.47,-65.3"/>
</g>
<!-- Node21 -->
<g id="node21" class="node">
<title>Node21</title>
<g id="a_node21"><a xlink:href="../../d9/dc6/class_main_window.html#a37afa0d4419a56879d650a1400b42306" target="_top" xlink:title=" ">
<polygon fill="white" stroke="black" points="173,-0.5 173,-19.5 302,-19.5 302,-0.5 173,-0.5"/>
<text text-anchor="middle" x="237.5" y="-7.5" font-family="Helvetica,sans-Serif" font-size="10.00">MainWindow::slot3DView</text>
</a>
</g>
</g>
<!-- Node1&#45;&gt;Node21 -->
<g id="edge26" class="edge">
<title>Node1&#45;&gt;Node21</title>
<path fill="none" stroke="midnightblue" d="M61.55,-307.29C62.3,-266.59 70.85,-108.08 157,-29 159.16,-27.02 161.48,-25.24 163.93,-23.63"/>
<polygon fill="midnightblue" stroke="midnightblue" points="165.62,-26.7 172.7,-18.82 162.25,-20.56 165.62,-26.7"/>
</g>
<!-- Node4 -->
<g id="node4" class="node">
<title>Node4</title>
<g id="a_node4"><a xlink:href="../../db/dae/class_voxel_image_visualizer.html#a381e70e9dba0cad1fddf946aa7f4a408" target="_top" xlink:title="Compute scaling factor for visualization actor.">
<polygon fill="white" stroke="black" points="530.5,-510 530.5,-540 640.5,-540 640.5,-510 530.5,-510"/>
<text text-anchor="start" x="538.5" y="-528" font-family="Helvetica,sans-Serif" font-size="10.00">VoxelImageVisualizer</text>
<text text-anchor="middle" x="585.5" y="-517" font-family="Helvetica,sans-Serif" font-size="10.00">::getScaleValue</text>
</a>
</g>
</g>
<!-- Node3&#45;&gt;Node4 -->
<g id="edge3" class="edge">
<title>Node3&#45;&gt;Node4</title>
<path fill="none" stroke="midnightblue" d="M474.65,-526.34C489.21,-526.16 505.09,-525.97 520.14,-525.78"/>
<polygon fill="midnightblue" stroke="midnightblue" points="520.45,-529.28 530.4,-525.66 520.36,-522.28 520.45,-529.28"/>
</g>
<!-- Node5 -->
<g id="node5" class="node">
<title>Node5</title>
<g id="a_node5"><a xlink:href="../../db/dae/class_voxel_image_visualizer.html#a2cf2e268d83ea28ea097a557b4e66fcd" target="_top" xlink:title="Compute 1D linearized index from 3D&#45;coodinate index.">
<polygon fill="white" stroke="black" points="521,-470.5 521,-489.5 650,-489.5 650,-470.5 521,-470.5"/>
<text text-anchor="middle" x="585.5" y="-477.5" font-family="Helvetica,sans-Serif" font-size="10.00">VoxelImageVisualizer::idx</text>
</a>
</g>
</g>
<!-- Node3&#45;&gt;Node5 -->
<g id="edge4" class="edge">
<title>Node3&#45;&gt;Node5</title>
<path fill="none" stroke="midnightblue" d="M472.84,-512C495.02,-505.65 520.53,-498.33 541.57,-492.3"/>
<polygon fill="midnightblue" stroke="midnightblue" points="542.55,-495.66 551.2,-489.54 540.62,-488.93 542.55,-495.66"/>
</g>
<!-- Node7 -->
<g id="node7" class="node">
<title>Node7</title>
<g id="a_node7"><a xlink:href="../../db/dae/class_voxel_image_visualizer.html#a266b4be6343bb49d53b4af2c9e7df310" target="_top" xlink:title=" ">
<polygon fill="white" stroke="black" points="364.5,-463 364.5,-493 474.5,-493 474.5,-463 364.5,-463"/>
<text text-anchor="start" x="372.5" y="-481" font-family="Helvetica,sans-Serif" font-size="10.00">VoxelImageVisualizer</text>
<text text-anchor="middle" x="419.5" y="-470" font-family="Helvetica,sans-Serif" font-size="10.00">::getShellOutput</text>
</a>
</g>
</g>
<!-- Node6&#45;&gt;Node7 -->
<g id="edge6" class="edge">
<title>Node6&#45;&gt;Node7</title>
<path fill="none" stroke="midnightblue" d="M292.51,-480.1C311.91,-479.78 333.98,-479.41 354.17,-479.07"/>
<polygon fill="midnightblue" stroke="midnightblue" points="354.28,-482.57 364.22,-478.9 354.16,-475.57 354.28,-482.57"/>
</g>
<!-- Node7&#45;&gt;Node4 -->
<g id="edge7" class="edge">
<title>Node7&#45;&gt;Node4</title>
<path fill="none" stroke="midnightblue" d="M472.84,-493C488.52,-497.49 505.88,-502.47 522.14,-507.13"/>
<polygon fill="midnightblue" stroke="midnightblue" points="521.52,-510.59 532.09,-509.98 523.44,-503.86 521.52,-510.59"/>
</g>
<!-- Node7&#45;&gt;Node5 -->
<g id="edge8" class="edge">
<title>Node7&#45;&gt;Node5</title>
<path fill="none" stroke="midnightblue" d="M474.65,-478.66C486.17,-478.8 498.52,-478.95 510.63,-479.1"/>
<polygon fill="midnightblue" stroke="midnightblue" points="510.68,-482.6 520.72,-479.22 510.76,-475.6 510.68,-482.6"/>
</g>
<!-- Node8&#45;&gt;Node4 -->
<g id="edge10" class="edge">
<title>Node8&#45;&gt;Node4</title>
<path fill="none" stroke="midnightblue" d="M468.17,-444.13C474.1,-446.96 479.87,-450.24 485,-454 505.65,-469.15 500.49,-483.66 521,-499 523.99,-501.24 527.2,-503.32 530.53,-505.24"/>
<polygon fill="midnightblue" stroke="midnightblue" points="529.08,-508.43 539.56,-509.99 532.34,-502.24 529.08,-508.43"/>
</g>
<!-- Node8&#45;&gt;Node5 -->
<g id="edge11" class="edge">
<title>Node8&#45;&gt;Node5</title>
<path fill="none" stroke="midnightblue" d="M468.82,-444.03C492.69,-451.45 521.16,-460.3 543.89,-467.37"/>
<polygon fill="midnightblue" stroke="midnightblue" points="542.98,-470.75 553.57,-470.38 545.06,-464.07 542.98,-470.75"/>
</g>
<!-- Node10&#45;&gt;Node4 -->
<g id="edge14" class="edge">
<title>Node10&#45;&gt;Node4</title>
<path fill="none" stroke="midnightblue" d="M468.82,-560.97C486.92,-555.34 507.68,-548.89 526.56,-543.02"/>
<polygon fill="midnightblue" stroke="midnightblue" points="527.73,-546.32 536.24,-540.01 525.66,-539.63 527.73,-546.32"/>
</g>
<!-- Node10&#45;&gt;Node5 -->
<g id="edge15" class="edge">
<title>Node10&#45;&gt;Node5</title>
<path fill="none" stroke="midnightblue" d="M470.38,-560.98C475.56,-558.4 480.55,-555.43 485,-552 506.98,-535.07 498.71,-517.52 521,-501 524.82,-498.17 529.05,-495.7 533.45,-493.56"/>
<polygon fill="midnightblue" stroke="midnightblue" points="534.85,-496.77 542.66,-489.61 532.09,-490.34 534.85,-496.77"/>
</g>
<!-- Node12 -->
<g id="node12" class="node">
<title>Node12</title>
<g id="a_node12"><a xlink:href="../../d3/d5f/class_preferences_dialog.html#ace3bbb86fc20219c88cef8ff21f4ebf0" target="_top" xlink:title=" ">
<polygon fill="white" stroke="black" points="358.5,-351 358.5,-381 480.5,-381 480.5,-351 358.5,-351"/>
<text text-anchor="start" x="366.5" y="-369" font-family="Helvetica,sans-Serif" font-size="10.00">PreferencesDialog::</text>
<text text-anchor="middle" x="419.5" y="-358" font-family="Helvetica,sans-Serif" font-size="10.00">getVoxelizer_comboBox</text>
</a>
</g>
</g>
<!-- Node11&#45;&gt;Node12 -->
<g id="edge17" class="edge">
<title>Node11&#45;&gt;Node12</title>
<path fill="none" stroke="midnightblue" d="M303.74,-362.81C318.21,-363.21 333.6,-363.64 348.26,-364.05"/>
<polygon fill="midnightblue" stroke="midnightblue" points="348.18,-367.55 358.27,-364.33 348.37,-360.55 348.18,-367.55"/>
</g>
<!-- Node14 -->
<g id="node14" class="node">
<title>Node14</title>
<g id="a_node14"><a xlink:href="../../d3/d5f/class_preferences_dialog.html#a987ba30f65385851fb38ef638f7c0bec" target="_top" xlink:title=" ">
<polygon fill="white" stroke="black" points="361.5,-290.5 361.5,-331.5 477.5,-331.5 477.5,-290.5 361.5,-290.5"/>
<text text-anchor="start" x="369.5" y="-319.5" font-family="Helvetica,sans-Serif" font-size="10.00">PreferencesDialog::</text>
<text text-anchor="start" x="369.5" y="-308.5" font-family="Helvetica,sans-Serif" font-size="10.00">getVoxelizerResolution</text>
<text text-anchor="middle" x="419.5" y="-297.5" font-family="Helvetica,sans-Serif" font-size="10.00">_textEdit</text>
</a>
</g>
</g>
<!-- Node13&#45;&gt;Node14 -->
<g id="edge19" class="edge">
<title>Node13&#45;&gt;Node14</title>
<path fill="none" stroke="midnightblue" d="M303.74,-314.83C319.17,-314.31 335.66,-313.76 351.18,-313.24"/>
<polygon fill="midnightblue" stroke="midnightblue" points="351.35,-316.74 361.22,-312.91 351.11,-309.74 351.35,-316.74"/>
</g>
<!-- Node22 -->
<g id="node22" class="node">
<title>Node22</title>
<g id="a_node22"><a xlink:href="../../d9/dc6/class_main_window.html#a9b4b1ec94ad0c252298db72eb6cf6d6d" target="_top" xlink:title="Refresh the screen after changes to the scene.">
<polygon fill="white" stroke="black" points="354.5,-0.5 354.5,-19.5 484.5,-19.5 484.5,-0.5 354.5,-0.5"/>
<text text-anchor="middle" x="419.5" y="-7.5" font-family="Helvetica,sans-Serif" font-size="10.00">MainWindow::updateView</text>
</a>
</g>
</g>
<!-- Node21&#45;&gt;Node22 -->
<g id="edge27" class="edge">
<title>Node21&#45;&gt;Node22</title>
<path fill="none" stroke="midnightblue" d="M302.21,-10C315.81,-10 330.27,-10 344.22,-10"/>
<polygon fill="midnightblue" stroke="midnightblue" points="344.26,-13.5 354.26,-10 344.26,-6.5 344.26,-13.5"/>
</g>
</g>
</svg>
