<?xml version="1.0" encoding="UTF-8" standalone="no"?>
<!DOCTYPE svg PUBLIC "-//W3C//DTD SVG 1.1//EN"
 "http://www.w3.org/Graphics/SVG/1.1/DTD/svg11.dtd">
<!-- Generated by graphviz version 2.44.1 (0)
 -->
<!-- Title: MainWindow::slotSolidView Pages: 1 -->
<svg width="688pt" height="53pt"
 viewBox="0.00 0.00 688.00 52.50" xmlns="http://www.w3.org/2000/svg" xmlns:xlink="http://www.w3.org/1999/xlink">
<g id="graph0" class="graph" transform="scale(1 1) rotate(0) translate(4 48.5)">
<title>MainWindow::slotSolidView</title>
<polygon fill="white" stroke="transparent" points="-4,4 -4,-48.5 684,-48.5 684,4 -4,4"/>
<!-- Node1 -->
<g id="node1" class="node">
<title>Node1</title>
<g id="a_node1"><a xlink:title=" ">
<polygon fill="#bfbfbf" stroke="black" points="542,-19.5 542,-38.5 680,-38.5 680,-19.5 542,-19.5"/>
<text text-anchor="middle" x="611" y="-26.5" font-family="Helvetica,sans-Serif" font-size="10.00">MainWindow::slotSolidView</text>
</a>
</g>
</g>
<!-- Node2 -->
<g id="node2" class="node">
<title>Node2</title>
<g id="a_node2"><a xlink:href="../../d9/dc6/class_main_window.html#a33dddfc15db4053f9117728538e7ece4" target="_top" xlink:title="Set up qt specific signal and slots part for enabling user interaction.">
<polygon fill="white" stroke="black" points="171,-14 171,-44 306,-44 306,-14 171,-14"/>
<text text-anchor="start" x="179" y="-32" font-family="Helvetica,sans-Serif" font-size="10.00">MainWindow::setupSignals</text>
<text text-anchor="middle" x="238.5" y="-21" font-family="Helvetica,sans-Serif" font-size="10.00">AndSlots</text>
</a>
</g>
</g>
<!-- Node1&#45;&gt;Node2 -->
<g id="edge1" class="edge">
<title>Node1&#45;&gt;Node2</title>
<path fill="none" stroke="midnightblue" d="M531.54,-29C464.65,-29 369.54,-29 306.24,-29"/>
<polygon fill="midnightblue" stroke="midnightblue" points="531.61,-32.5 541.61,-29 531.61,-25.5 531.61,-32.5"/>
</g>
<!-- Node4 -->
<g id="node4" class="node">
<title>Node4</title>
<g id="a_node4"><a xlink:href="../../d9/dc6/class_main_window.html#aa0de90b823eb0761571f740ecbec0fd2" target="_top" xlink:title=" ">
<polygon fill="white" stroke="black" points="342,-0.5 342,-19.5 506,-19.5 506,-0.5 342,-0.5"/>
<text text-anchor="middle" x="424" y="-7.5" font-family="Helvetica,sans-Serif" font-size="10.00">MainWindow::slotPSInterfaceTool</text>
</a>
</g>
</g>
<!-- Node1&#45;&gt;Node4 -->
<g id="edge3" class="edge">
<title>Node1&#45;&gt;Node4</title>
<path fill="none" stroke="midnightblue" d="M531.69,-20.96C523.23,-20.09 514.61,-19.2 506.12,-18.33"/>
<polygon fill="midnightblue" stroke="midnightblue" points="531.6,-24.47 541.9,-22.01 532.31,-17.5 531.6,-24.47"/>
</g>
<!-- Node3 -->
<g id="node3" class="node">
<title>Node3</title>
<g id="a_node3"><a xlink:href="../../d9/dc6/class_main_window.html#a996c5a2b6f77944776856f08ec30858d" target="_top" xlink:title=" ">
<polygon fill="white" stroke="black" points="0,-19.5 0,-38.5 135,-38.5 135,-19.5 0,-19.5"/>
<text text-anchor="middle" x="67.5" y="-26.5" font-family="Helvetica,sans-Serif" font-size="10.00">MainWindow::MainWindow</text>
</a>
</g>
</g>
<!-- Node2&#45;&gt;Node3 -->
<g id="edge2" class="edge">
<title>Node2&#45;&gt;Node3</title>
<path fill="none" stroke="midnightblue" d="M160.45,-29C151.98,-29 143.41,-29 135.08,-29"/>
<polygon fill="midnightblue" stroke="midnightblue" points="160.71,-32.5 170.71,-29 160.71,-25.5 160.71,-32.5"/>
</g>
<!-- Node4&#45;&gt;Node2 -->
<g id="edge4" class="edge">
<title>Node4&#45;&gt;Node2</title>
<path fill="none" stroke="midnightblue" d="M331.81,-19.44C323.13,-20.34 314.45,-21.24 306.07,-22.11"/>
<polygon fill="midnightblue" stroke="midnightblue" points="332.39,-22.9 341.98,-18.39 331.67,-15.94 332.39,-22.9"/>
</g>
</g>
</svg>
