<?xml version="1.0" encoding="UTF-8" standalone="no"?>
<!DOCTYPE svg PUBLIC "-//W3C//DTD SVG 1.1//EN"
 "http://www.w3.org/Graphics/SVG/1.1/DTD/svg11.dtd">
<!-- Generated by graphviz version 2.44.0 (0)
 -->
<!-- Title: MainWindow::slotPolylineMagnetTool Pages: 1 -->
<svg width="289pt" height="165pt"
 viewBox="0.00 0.00 289.00 164.50" xmlns="http://www.w3.org/2000/svg" xmlns:xlink="http://www.w3.org/1999/xlink">
<g id="graph0" class="graph" transform="scale(1 1) rotate(0) translate(4 160.5)">
<title>MainWindow::slotPolylineMagnetTool</title>
<polygon fill="white" stroke="transparent" points="-4,4 -4,-160.5 285,-160.5 285,4 -4,4"/>
<!-- Node1 -->
<g id="node1" class="node">
<title>Node1</title>
<g id="a_node1"><a xlink:title=" ">
<polygon fill="#bfbfbf" stroke="black" points="0,-71.5 0,-101.5 129,-101.5 129,-71.5 0,-71.5"/>
<text text-anchor="start" x="8" y="-89.5" font-family="Helvetica,sans-Serif" font-size="10.00">MainWindow::slotPolyline</text>
<text text-anchor="middle" x="64.5" y="-78.5" font-family="Helvetica,sans-Serif" font-size="10.00">MagnetTool</text>
</a>
</g>
</g>
<!-- Node2 -->
<g id="node2" class="node">
<title>Node2</title>
<g id="a_node2"><a xlink:href="../../da/db7/class_tool.html#aa3ef777234d67638f33c92a57a083868" target="_top" xlink:title=" ">
<polygon fill="white" stroke="black" points="185.5,-137 185.5,-156 260.5,-156 260.5,-137 185.5,-137"/>
<text text-anchor="middle" x="223" y="-144" font-family="Helvetica,sans-Serif" font-size="10.00">Tool::execute</text>
</a>
</g>
</g>
<!-- Node1&#45;&gt;Node2 -->
<g id="edge1" class="edge">
<title>Node1&#45;&gt;Node2</title>
<path fill="none" stroke="midnightblue" d="M100.26,-101.52C119.26,-109.55 143.29,-119.42 165,-127.5 170.57,-129.57 176.49,-131.67 182.33,-133.67"/>
<polygon fill="midnightblue" stroke="midnightblue" points="181.39,-137.05 191.99,-136.93 183.63,-130.41 181.39,-137.05"/>
</g>
<!-- Node3 -->
<g id="node3" class="node">
<title>Node3</title>
<g id="a_node3"><a xlink:href="../../d4/d4d/class_tool_registry.html#ac7399939344c02b4bdcd9e23c92758da" target="_top" xlink:title="Return a pointer to a tool given its name.">
<polygon fill="white" stroke="black" points="168.5,-99 168.5,-118 277.5,-118 277.5,-99 168.5,-99"/>
<text text-anchor="middle" x="223" y="-106" font-family="Helvetica,sans-Serif" font-size="10.00">ToolRegistry::getTool</text>
</a>
</g>
</g>
<!-- Node1&#45;&gt;Node3 -->
<g id="edge2" class="edge">
<title>Node1&#45;&gt;Node3</title>
<path fill="none" stroke="midnightblue" d="M129.15,-95.45C138.83,-96.81 148.81,-98.21 158.48,-99.57"/>
<polygon fill="midnightblue" stroke="midnightblue" points="158.03,-103.04 168.42,-100.97 159,-96.11 158.03,-103.04"/>
</g>
<!-- Node4 -->
<g id="node4" class="node">
<title>Node4</title>
<g id="a_node4"><a xlink:href="../../de/dd7/class_polyline_touchpoint_tool.html#a04c8903651e792b7384f01cc30f4c80c" target="_top" xlink:title="Set the offset above the surface of the touchpoint.">
<polygon fill="white" stroke="black" points="165,-49.5 165,-79.5 281,-79.5 281,-49.5 165,-49.5"/>
<text text-anchor="start" x="173" y="-67.5" font-family="Helvetica,sans-Serif" font-size="10.00">PolylineTouchpointTool</text>
<text text-anchor="middle" x="223" y="-56.5" font-family="Helvetica,sans-Serif" font-size="10.00">::setSurfaceOverlap</text>
</a>
</g>
</g>
<!-- Node1&#45;&gt;Node4 -->
<g id="edge3" class="edge">
<title>Node1&#45;&gt;Node4</title>
<path fill="none" stroke="midnightblue" d="M129.15,-77.55C137.67,-76.35 146.42,-75.12 154.99,-73.92"/>
<polygon fill="midnightblue" stroke="midnightblue" points="155.53,-77.38 164.95,-72.52 154.56,-70.45 155.53,-77.38"/>
</g>
<!-- Node5 -->
<g id="node5" class="node">
<title>Node5</title>
<g id="a_node5"><a xlink:href="../../de/dd7/class_polyline_touchpoint_tool.html#a1a10b780fe97d683e5cc44d2ab76f63e" target="_top" xlink:title="Set the penetration depth of the touchpoint.">
<polygon fill="white" stroke="black" points="165,-0.5 165,-30.5 281,-30.5 281,-0.5 165,-0.5"/>
<text text-anchor="start" x="173" y="-18.5" font-family="Helvetica,sans-Serif" font-size="10.00">PolylineTouchpointTool</text>
<text text-anchor="middle" x="223" y="-7.5" font-family="Helvetica,sans-Serif" font-size="10.00">::setTouchpointDepth</text>
</a>
</g>
</g>
<!-- Node1&#45;&gt;Node5 -->
<g id="edge4" class="edge">
<title>Node1&#45;&gt;Node5</title>
<path fill="none" stroke="midnightblue" d="M97.69,-71.42C117.14,-62.36 142.44,-50.66 165,-40.5 169.16,-38.63 173.49,-36.69 177.84,-34.77"/>
<polygon fill="midnightblue" stroke="midnightblue" points="179.55,-37.84 187.29,-30.59 176.73,-31.43 179.55,-37.84"/>
</g>
</g>
</svg>
