<?xml version="1.0" encoding="UTF-8" standalone="no"?>
<!DOCTYPE svg PUBLIC "-//W3C//DTD SVG 1.1//EN"
 "http://www.w3.org/Graphics/SVG/1.1/DTD/svg11.dtd">
<!-- Generated by graphviz version 2.44.0 (0)
 -->
<!-- Title: SimulatedAnnealingOptimizer Pages: 1 -->
<svg width="168pt" height="336pt"
 viewBox="0.00 0.00 168.00 336.00" xmlns="http://www.w3.org/2000/svg" xmlns:xlink="http://www.w3.org/1999/xlink">
<g id="graph0" class="graph" transform="scale(1 1) rotate(0) translate(4 332)">
<title>SimulatedAnnealingOptimizer</title>
<polygon fill="white" stroke="transparent" points="-4,4 -4,-332 164,-332 164,4 -4,4"/>
<!-- Node1 -->
<g id="node1" class="node">
<title>Node1</title>
<g id="a_node1"><a xlink:title="Optimizes the total wirelength of all connections by using the simulated annealing optimizer.">
<polygon fill="#bfbfbf" stroke="black" points="0,-0.5 0,-167.5 160,-167.5 160,-0.5 0,-0.5"/>
<text text-anchor="middle" x="80" y="-155.5" font-family="Helvetica,sans-Serif" font-size="10.00">SimulatedAnnealingOptimizer</text>
<polyline fill="none" stroke="black" points="0,-148.5 160,-148.5 "/>
<text text-anchor="start" x="8" y="-136.5" font-family="Helvetica,sans-Serif" font-size="10.00">&#45; astar</text>
<text text-anchor="start" x="8" y="-125.5" font-family="Helvetica,sans-Serif" font-size="10.00">&#45; dev</text>
<text text-anchor="start" x="8" y="-114.5" font-family="Helvetica,sans-Serif" font-size="10.00">&#45; rng</text>
<text text-anchor="start" x="8" y="-103.5" font-family="Helvetica,sans-Serif" font-size="10.00">&#45; temperature</text>
<text text-anchor="start" x="8" y="-92.5" font-family="Helvetica,sans-Serif" font-size="10.00">&#45; coolingRate</text>
<polyline fill="none" stroke="black" points="0,-85.5 160,-85.5 "/>
<text text-anchor="start" x="8" y="-73.5" font-family="Helvetica,sans-Serif" font-size="10.00">+ SimulatedAnnealingOptimizer()</text>
<text text-anchor="start" x="8" y="-62.5" font-family="Helvetica,sans-Serif" font-size="10.00">+ optimize()</text>
<text text-anchor="start" x="8" y="-51.5" font-family="Helvetica,sans-Serif" font-size="10.00">+ getTemperature()</text>
<text text-anchor="start" x="8" y="-40.5" font-family="Helvetica,sans-Serif" font-size="10.00">+ setTemperature()</text>
<text text-anchor="start" x="8" y="-29.5" font-family="Helvetica,sans-Serif" font-size="10.00">+ getCoolingRate()</text>
<text text-anchor="start" x="8" y="-18.5" font-family="Helvetica,sans-Serif" font-size="10.00">+ setCoolingRate()</text>
<text text-anchor="start" x="8" y="-7.5" font-family="Helvetica,sans-Serif" font-size="10.00">&#45; simulatedAnnealing()</text>
</a>
</g>
</g>
<!-- Node2 -->
<g id="node2" class="node">
<title>Node2</title>
<g id="a_node2"><a xlink:href="../../d9/d02/class_optimizer.html" target="_top" xlink:title="Base class for wirelength optimizers.">
<polygon fill="white" stroke="black" points="5.5,-204.5 5.5,-327.5 154.5,-327.5 154.5,-204.5 5.5,-204.5"/>
<text text-anchor="middle" x="80" y="-315.5" font-family="Helvetica,sans-Serif" font-size="10.00">Optimizer</text>
<polyline fill="none" stroke="black" points="5.5,-308.5 154.5,-308.5 "/>
<text text-anchor="start" x="13.5" y="-296.5" font-family="Helvetica,sans-Serif" font-size="10.00"># scene</text>
<text text-anchor="start" x="13.5" y="-285.5" font-family="Helvetica,sans-Serif" font-size="10.00"># connectionInfos</text>
<polyline fill="none" stroke="black" points="5.5,-278.5 154.5,-278.5 "/>
<text text-anchor="start" x="13.5" y="-266.5" font-family="Helvetica,sans-Serif" font-size="10.00">+ Optimizer()</text>
<text text-anchor="start" x="13.5" y="-255.5" font-family="Helvetica,sans-Serif" font-size="10.00">+ ~Optimizer()</text>
<text text-anchor="start" x="13.5" y="-244.5" font-family="Helvetica,sans-Serif" font-size="10.00">+ optimize()</text>
<text text-anchor="start" x="13.5" y="-233.5" font-family="Helvetica,sans-Serif" font-size="10.00">+ getConnectionInfos()</text>
<text text-anchor="start" x="13.5" y="-222.5" font-family="Helvetica,sans-Serif" font-size="10.00">+ addConnections()</text>
<text text-anchor="start" x="13.5" y="-211.5" font-family="Helvetica,sans-Serif" font-size="10.00"># computeTotalWireDistance()</text>
</a>
</g>
</g>
<!-- Node2&#45;&gt;Node1 -->
<g id="edge1" class="edge">
<title>Node2&#45;&gt;Node1</title>
<path fill="none" stroke="midnightblue" d="M80,-194.25C80,-185.57 80,-176.63 80,-167.79"/>
<polygon fill="none" stroke="midnightblue" points="76.5,-194.31 80,-204.31 83.5,-194.31 76.5,-194.31"/>
</g>
</g>
</svg>
