<?xml version="1.0" encoding="UTF-8" standalone="no"?>
<!DOCTYPE svg PUBLIC "-//W3C//DTD SVG 1.1//EN"
 "http://www.w3.org/Graphics/SVG/1.1/DTD/svg11.dtd">
<!-- Generated by graphviz version 2.44.0 (0)
 -->
<!-- Title: exportstltool.h Pages: 1 -->
<svg width="4594pt" height="330pt"
 viewBox="0.00 0.00 4594.00 330.00" xmlns="http://www.w3.org/2000/svg" xmlns:xlink="http://www.w3.org/1999/xlink">
<g id="graph0" class="graph" transform="scale(1 1) rotate(0) translate(4 326)">
<title>exportstltool.h</title>
<polygon fill="white" stroke="transparent" points="-4,4 -4,-326 4590,-326 4590,4 -4,4"/>
<!-- Node1 -->
<g id="node1" class="node">
<title>Node1</title>
<g id="a_node1"><a xlink:title="Tool for exporting a wired mesh to the stl file format.">
<polygon fill="#bfbfbf" stroke="black" points="1539,-302.5 1539,-321.5 1617,-321.5 1617,-302.5 1539,-302.5"/>
<text text-anchor="middle" x="1578" y="-309.5" font-family="Helvetica,sans-Serif" font-size="10.00">exportstltool.h</text>
</a>
</g>
</g>
<!-- Node2 -->
<g id="node2" class="node">
<title>Node2</title>
<g id="a_node2"><a xlink:title=" ">
<polygon fill="white" stroke="#bfbfbf" points="180.5,-56.5 180.5,-75.5 221.5,-75.5 221.5,-56.5 180.5,-56.5"/>
<text text-anchor="middle" x="201" y="-63.5" font-family="Helvetica,sans-Serif" font-size="10.00">string</text>
</a>
</g>
</g>
<!-- Node1&#45;&gt;Node2 -->
<g id="edge1" class="edge">
<title>Node1&#45;&gt;Node2</title>
<path fill="none" stroke="midnightblue" d="M1538.79,-310.57C1305.55,-307.89 110.09,-292.89 84,-266 78.83,-260.67 82.44,-175.51 86,-168 105.03,-127.88 148.22,-97.1 175.92,-80.56"/>
<polygon fill="midnightblue" stroke="midnightblue" points="177.75,-83.54 184.66,-75.51 174.25,-77.48 177.75,-83.54"/>
</g>
<!-- Node3 -->
<g id="node3" class="node">
<title>Node3</title>
<g id="a_node3"><a xlink:title=" ">
<polygon fill="white" stroke="#bfbfbf" points="636,-56.5 636,-75.5 690,-75.5 690,-56.5 636,-56.5"/>
<text text-anchor="middle" x="663" y="-63.5" font-family="Helvetica,sans-Serif" font-size="10.00">iostream</text>
</a>
</g>
</g>
<!-- Node1&#45;&gt;Node3 -->
<g id="edge2" class="edge">
<title>Node1&#45;&gt;Node3</title>
<path fill="none" stroke="midnightblue" d="M1538.8,-310.5C1393.1,-308.4 887.77,-298.8 824,-266 803.39,-255.4 709.44,-129.91 675.38,-83.83"/>
<polygon fill="midnightblue" stroke="midnightblue" points="677.99,-81.47 669.24,-75.5 672.36,-85.63 677.99,-81.47"/>
</g>
<!-- Node4 -->
<g id="node4" class="node">
<title>Node4</title>
<g id="a_node4"><a xlink:title=" ">
<polygon fill="white" stroke="#bfbfbf" points="1012,-235.5 1012,-254.5 1062,-254.5 1062,-235.5 1012,-235.5"/>
<text text-anchor="middle" x="1037" y="-242.5" font-family="Helvetica,sans-Serif" font-size="10.00">fstream</text>
</a>
</g>
</g>
<!-- Node1&#45;&gt;Node4 -->
<g id="edge3" class="edge">
<title>Node1&#45;&gt;Node4</title>
<path fill="none" stroke="midnightblue" d="M1538.96,-309.75C1435.83,-306.11 1158.1,-293.91 1071,-266 1066.4,-264.53 1061.75,-262.35 1057.44,-259.96"/>
<polygon fill="midnightblue" stroke="midnightblue" points="1059.01,-256.82 1048.65,-254.61 1055.37,-262.8 1059.01,-256.82"/>
</g>
<!-- Node5 -->
<g id="node5" class="node">
<title>Node5</title>
<g id="a_node5"><a xlink:title=" ">
<polygon fill="white" stroke="#bfbfbf" points="1080,-235.5 1080,-254.5 1148,-254.5 1148,-235.5 1080,-235.5"/>
<text text-anchor="middle" x="1114" y="-242.5" font-family="Helvetica,sans-Serif" font-size="10.00">QJsonArray</text>
</a>
</g>
</g>
<!-- Node1&#45;&gt;Node5 -->
<g id="edge4" class="edge">
<title>Node1&#45;&gt;Node5</title>
<path fill="none" stroke="midnightblue" d="M1538.89,-311.06C1463.56,-310.26 1293.69,-303.97 1157,-266 1150.9,-264.31 1144.59,-261.83 1138.74,-259.18"/>
<polygon fill="midnightblue" stroke="midnightblue" points="1139.98,-255.9 1129.45,-254.7 1136.93,-262.2 1139.98,-255.9"/>
</g>
<!-- Node6 -->
<g id="node6" class="node">
<title>Node6</title>
<g id="a_node6"><a xlink:title=" ">
<polygon fill="white" stroke="#bfbfbf" points="1166,-235.5 1166,-254.5 1240,-254.5 1240,-235.5 1166,-235.5"/>
<text text-anchor="middle" x="1203" y="-242.5" font-family="Helvetica,sans-Serif" font-size="10.00">QJsonObject</text>
</a>
</g>
</g>
<!-- Node1&#45;&gt;Node6 -->
<g id="edge5" class="edge">
<title>Node1&#45;&gt;Node6</title>
<path fill="none" stroke="midnightblue" d="M1538.81,-309.11C1476.42,-305.34 1351.15,-294.6 1249,-266 1242.4,-264.15 1235.5,-261.55 1229.12,-258.83"/>
<polygon fill="midnightblue" stroke="midnightblue" points="1230.19,-255.47 1219.63,-254.55 1227.31,-261.85 1230.19,-255.47"/>
</g>
<!-- Node7 -->
<g id="node7" class="node">
<title>Node7</title>
<g id="a_node7"><a xlink:title=" ">
<polygon fill="white" stroke="#bfbfbf" points="1258,-235.5 1258,-254.5 1348,-254.5 1348,-235.5 1258,-235.5"/>
<text text-anchor="middle" x="1303" y="-242.5" font-family="Helvetica,sans-Serif" font-size="10.00">QJsonDocument</text>
</a>
</g>
</g>
<!-- Node1&#45;&gt;Node7 -->
<g id="edge6" class="edge">
<title>Node1&#45;&gt;Node7</title>
<path fill="none" stroke="midnightblue" d="M1538.64,-304.75C1494.29,-297.29 1420.28,-283.59 1358,-266 1350.02,-263.75 1341.55,-260.9 1333.7,-258.07"/>
<polygon fill="midnightblue" stroke="midnightblue" points="1334.77,-254.73 1324.18,-254.53 1332.33,-261.29 1334.77,-254.73"/>
</g>
<!-- Node8 -->
<g id="node8" class="node">
<title>Node8</title>
<g id="a_node8"><a xlink:title=" ">
<polygon fill="white" stroke="#bfbfbf" points="1366.5,-235.5 1366.5,-254.5 1435.5,-254.5 1435.5,-235.5 1366.5,-235.5"/>
<text text-anchor="middle" x="1401" y="-242.5" font-family="Helvetica,sans-Serif" font-size="10.00">QJsonValue</text>
</a>
</g>
</g>
<!-- Node1&#45;&gt;Node8 -->
<g id="edge7" class="edge">
<title>Node1&#45;&gt;Node8</title>
<path fill="none" stroke="midnightblue" d="M1550.2,-302.49C1523.09,-293.98 1480.82,-280.16 1445,-266 1439.54,-263.84 1433.77,-261.37 1428.28,-258.91"/>
<polygon fill="midnightblue" stroke="midnightblue" points="1429.36,-255.56 1418.81,-254.59 1426.45,-261.92 1429.36,-255.56"/>
</g>
<!-- Node9 -->
<g id="node9" class="node">
<title>Node9</title>
<g id="a_node9"><a xlink:title=" ">
<polygon fill="white" stroke="#bfbfbf" points="110,-168.5 110,-187.5 150,-187.5 150,-168.5 110,-168.5"/>
<text text-anchor="middle" x="130" y="-175.5" font-family="Helvetica,sans-Serif" font-size="10.00">QFile</text>
</a>
</g>
</g>
<!-- Node1&#45;&gt;Node9 -->
<g id="edge8" class="edge">
<title>Node1&#45;&gt;Node9</title>
<path fill="none" stroke="midnightblue" d="M1538.85,-311.21C1313.67,-312.26 191.66,-315.01 139,-266 120.62,-248.89 122.23,-217.58 125.67,-197.56"/>
<polygon fill="midnightblue" stroke="midnightblue" points="129.1,-198.25 127.66,-187.76 122.24,-196.86 129.1,-198.25"/>
</g>
<!-- Node10 -->
<g id="node10" class="node">
<title>Node10</title>
<g id="a_node10"><a xlink:title=" ">
<polygon fill="white" stroke="#bfbfbf" points="253,-168.5 253,-187.5 327,-187.5 327,-168.5 253,-168.5"/>
<text text-anchor="middle" x="290" y="-175.5" font-family="Helvetica,sans-Serif" font-size="10.00">QTextStream</text>
</a>
</g>
</g>
<!-- Node1&#45;&gt;Node10 -->
<g id="edge9" class="edge">
<title>Node1&#45;&gt;Node10</title>
<path fill="none" stroke="midnightblue" d="M1538.83,-311.21C1344.23,-312.03 486.45,-312.95 378,-266 376.85,-265.5 330.98,-219.86 305.93,-194.89"/>
<polygon fill="midnightblue" stroke="midnightblue" points="308.17,-192.18 298.61,-187.6 303.22,-197.14 308.17,-192.18"/>
</g>
<!-- Node11 -->
<g id="node11" class="node">
<title>Node11</title>
<g id="a_node11"><a xlink:title=" ">
<polygon fill="white" stroke="#bfbfbf" points="1454,-235.5 1454,-254.5 1504,-254.5 1504,-235.5 1454,-235.5"/>
<text text-anchor="middle" x="1479" y="-242.5" font-family="Helvetica,sans-Serif" font-size="10.00">QString</text>
</a>
</g>
</g>
<!-- Node1&#45;&gt;Node11 -->
<g id="edge10" class="edge">
<title>Node1&#45;&gt;Node11</title>
<path fill="none" stroke="midnightblue" d="M1564.65,-302.23C1548.25,-291.46 1520.2,-273.05 1500.69,-260.24"/>
<polygon fill="midnightblue" stroke="midnightblue" points="1502.42,-257.19 1492.14,-254.63 1498.58,-263.04 1502.42,-257.19"/>
</g>
<!-- Node12 -->
<g id="node12" class="node">
<title>Node12</title>
<g id="a_node12"><a xlink:title=" ">
<polygon fill="white" stroke="#bfbfbf" points="211.5,-0.5 211.5,-19.5 306.5,-19.5 306.5,-0.5 211.5,-0.5"/>
<text text-anchor="middle" x="259" y="-7.5" font-family="Helvetica,sans-Serif" font-size="10.00">vtkSmartPointer.h</text>
</a>
</g>
</g>
<!-- Node1&#45;&gt;Node12 -->
<g id="edge11" class="edge">
<title>Node1&#45;&gt;Node12</title>
<path fill="none" stroke="midnightblue" d="M1538.69,-310.42C1343.67,-307.39 487.42,-292.64 438,-266 387.57,-238.81 298.03,-82 268.64,-28.71"/>
<polygon fill="midnightblue" stroke="midnightblue" points="271.61,-26.85 263.73,-19.76 265.47,-30.22 271.61,-26.85"/>
</g>
<!-- Node13 -->
<g id="node13" class="node">
<title>Node13</title>
<g id="a_node13"><a xlink:title=" ">
<polygon fill="white" stroke="#bfbfbf" points="1522,-235.5 1522,-254.5 1634,-254.5 1634,-235.5 1522,-235.5"/>
<text text-anchor="middle" x="1578" y="-242.5" font-family="Helvetica,sans-Serif" font-size="10.00">vtkAppendPolyData.h</text>
</a>
</g>
</g>
<!-- Node1&#45;&gt;Node13 -->
<g id="edge12" class="edge">
<title>Node1&#45;&gt;Node13</title>
<path fill="none" stroke="midnightblue" d="M1578,-302.23C1578,-292.68 1578,-277.12 1578,-264.78"/>
<polygon fill="midnightblue" stroke="midnightblue" points="1581.5,-264.63 1578,-254.63 1574.5,-264.63 1581.5,-264.63"/>
</g>
<!-- Node14 -->
<g id="node14" class="node">
<title>Node14</title>
<g id="a_node14"><a xlink:title=" ">
<polygon fill="white" stroke="#bfbfbf" points="74.5,-0.5 74.5,-19.5 153.5,-19.5 153.5,-0.5 74.5,-0.5"/>
<text text-anchor="middle" x="114" y="-7.5" font-family="Helvetica,sans-Serif" font-size="10.00">vtkPolyData.h</text>
</a>
</g>
</g>
<!-- Node1&#45;&gt;Node14 -->
<g id="edge13" class="edge">
<title>Node1&#45;&gt;Node14</title>
<path fill="none" stroke="midnightblue" d="M1538.69,-310.7C1308.68,-308.84 145.06,-297.89 77,-266 30.24,-244.09 0,-230.64 0,-179 0,-179 0,-179 0,-121 0,-74.11 50.55,-40.89 84.33,-23.93"/>
<polygon fill="midnightblue" stroke="midnightblue" points="85.87,-27.07 93.36,-19.58 82.83,-20.77 85.87,-27.07"/>
</g>
<!-- Node15 -->
<g id="node15" class="node">
<title>Node15</title>
<g id="a_node15"><a xlink:title=" ">
<polygon fill="white" stroke="#bfbfbf" points="1652,-235.5 1652,-254.5 1752,-254.5 1752,-235.5 1652,-235.5"/>
<text text-anchor="middle" x="1702" y="-242.5" font-family="Helvetica,sans-Serif" font-size="10.00">vtkSphereSource.h</text>
</a>
</g>
</g>
<!-- Node1&#45;&gt;Node15 -->
<g id="edge14" class="edge">
<title>Node1&#45;&gt;Node15</title>
<path fill="none" stroke="midnightblue" d="M1594.47,-302.37C1615.4,-291.39 1651.78,-272.32 1676.36,-259.44"/>
<polygon fill="midnightblue" stroke="midnightblue" points="1678.23,-262.41 1685.47,-254.67 1674.98,-256.21 1678.23,-262.41"/>
</g>
<!-- Node16 -->
<g id="node16" class="node">
<title>Node16</title>
<g id="a_node16"><a xlink:title=" ">
<polygon fill="white" stroke="#bfbfbf" points="1770,-235.5 1770,-254.5 1862,-254.5 1862,-235.5 1770,-235.5"/>
<text text-anchor="middle" x="1816" y="-242.5" font-family="Helvetica,sans-Serif" font-size="10.00">vtkConeSource.h</text>
</a>
</g>
</g>
<!-- Node1&#45;&gt;Node16 -->
<g id="edge15" class="edge">
<title>Node1&#45;&gt;Node16</title>
<path fill="none" stroke="midnightblue" d="M1617.24,-302.64C1654.53,-294.39 1712.01,-280.88 1761,-266 1768.79,-263.63 1777.1,-260.79 1784.83,-257.99"/>
<polygon fill="midnightblue" stroke="midnightblue" points="1786.06,-261.27 1794.24,-254.53 1783.64,-254.7 1786.06,-261.27"/>
</g>
<!-- Node17 -->
<g id="node17" class="node">
<title>Node17</title>
<g id="a_node17"><a xlink:title=" ">
<polygon fill="white" stroke="#bfbfbf" points="1880.5,-235.5 1880.5,-254.5 2011.5,-254.5 2011.5,-235.5 1880.5,-235.5"/>
<text text-anchor="middle" x="1946" y="-242.5" font-family="Helvetica,sans-Serif" font-size="10.00">vtkXMLPolyDataReader.h</text>
</a>
</g>
</g>
<!-- Node1&#45;&gt;Node17 -->
<g id="edge16" class="edge">
<title>Node1&#45;&gt;Node17</title>
<path fill="none" stroke="midnightblue" d="M1617.11,-306.36C1673.51,-299.36 1780.84,-284.89 1871,-266 1882.83,-263.52 1895.58,-260.32 1907.16,-257.21"/>
<polygon fill="midnightblue" stroke="midnightblue" points="1908.25,-260.54 1916.97,-254.53 1906.4,-253.79 1908.25,-260.54"/>
</g>
<!-- Node18 -->
<g id="node18" class="node">
<title>Node18</title>
<g id="a_node18"><a xlink:title=" ">
<polygon fill="white" stroke="#bfbfbf" points="2030,-235.5 2030,-254.5 2134,-254.5 2134,-235.5 2030,-235.5"/>
<text text-anchor="middle" x="2082" y="-242.5" font-family="Helvetica,sans-Serif" font-size="10.00">vtkCleanPolyData.h</text>
</a>
</g>
</g>
<!-- Node1&#45;&gt;Node18 -->
<g id="edge17" class="edge">
<title>Node1&#45;&gt;Node18</title>
<path fill="none" stroke="midnightblue" d="M1617.25,-309.85C1695.07,-306.94 1874.1,-297.16 2021,-266 2030.61,-263.96 2040.83,-260.96 2050.1,-257.89"/>
<polygon fill="midnightblue" stroke="midnightblue" points="2051.4,-261.15 2059.72,-254.59 2049.13,-254.53 2051.4,-261.15"/>
</g>
<!-- Node19 -->
<g id="node19" class="node">
<title>Node19</title>
<g id="a_node19"><a xlink:title=" ">
<polygon fill="white" stroke="#bfbfbf" points="693.5,-0.5 693.5,-19.5 804.5,-19.5 804.5,-0.5 693.5,-0.5"/>
<text text-anchor="middle" x="749" y="-7.5" font-family="Helvetica,sans-Serif" font-size="10.00">vtkPolyDataMapper.h</text>
</a>
</g>
</g>
<!-- Node1&#45;&gt;Node19 -->
<g id="edge18" class="edge">
<title>Node1&#45;&gt;Node19</title>
<path fill="none" stroke="midnightblue" d="M1538.58,-310.58C1407.56,-308.87 992.17,-300.73 944,-266 910.06,-241.53 908,-220.85 908,-179 908,-179 908,-179 908,-121 908,-90.2 906.12,-77.42 884,-56 865.28,-37.87 839.07,-27.04 814.72,-20.58"/>
<polygon fill="midnightblue" stroke="midnightblue" points="815.34,-17.12 804.79,-18.14 813.67,-23.92 815.34,-17.12"/>
</g>
<!-- Node20 -->
<g id="node20" class="node">
<title>Node20</title>
<g id="a_node20"><a xlink:title=" ">
<polygon fill="white" stroke="#bfbfbf" points="613,-0.5 613,-19.5 675,-19.5 675,-0.5 613,-0.5"/>
<text text-anchor="middle" x="644" y="-7.5" font-family="Helvetica,sans-Serif" font-size="10.00">vtkActor.h</text>
</a>
</g>
</g>
<!-- Node1&#45;&gt;Node20 -->
<g id="edge19" class="edge">
<title>Node1&#45;&gt;Node20</title>
<path fill="none" stroke="midnightblue" d="M1538.68,-310.73C1402.8,-309.48 958.51,-302.61 907,-266 872.75,-241.66 870,-221.02 870,-179 870,-179 870,-179 870,-121 870,-82.58 845.64,-76.27 813,-56 802.07,-49.21 731.48,-31.67 685.05,-20.61"/>
<polygon fill="midnightblue" stroke="midnightblue" points="685.8,-17.18 675.26,-18.28 684.18,-24 685.8,-17.18"/>
</g>
<!-- Node21 -->
<g id="node21" class="node">
<title>Node21</title>
<g id="a_node21"><a xlink:title=" ">
<polygon fill="white" stroke="#bfbfbf" points="823,-0.5 823,-19.5 927,-19.5 927,-0.5 823,-0.5"/>
<text text-anchor="middle" x="875" y="-7.5" font-family="Helvetica,sans-Serif" font-size="10.00">vtkRenderWindow.h</text>
</a>
</g>
</g>
<!-- Node1&#45;&gt;Node21 -->
<g id="edge20" class="edge">
<title>Node1&#45;&gt;Node21</title>
<path fill="none" stroke="midnightblue" d="M1538.89,-310.49C1412.82,-308.51 1022.66,-299.71 978,-266 945.12,-241.18 946,-220.2 946,-179 946,-179 946,-179 946,-121 946,-90.2 938.89,-81.75 922,-56 914.62,-44.75 903.93,-34.23 894.62,-26.19"/>
<polygon fill="midnightblue" stroke="midnightblue" points="896.83,-23.48 886.89,-19.81 892.37,-28.88 896.83,-23.48"/>
</g>
<!-- Node22 -->
<g id="node22" class="node">
<title>Node22</title>
<g id="a_node22"><a xlink:title=" ">
<polygon fill="white" stroke="#bfbfbf" points="945,-0.5 945,-19.5 1023,-19.5 1023,-0.5 945,-0.5"/>
<text text-anchor="middle" x="984" y="-7.5" font-family="Helvetica,sans-Serif" font-size="10.00">vtkRenderer.h</text>
</a>
</g>
</g>
<!-- Node1&#45;&gt;Node22 -->
<g id="edge21" class="edge">
<title>Node1&#45;&gt;Node22</title>
<path fill="none" stroke="midnightblue" d="M1538.62,-310.59C1415.43,-308.94 1043.24,-301.08 1003,-266 973.17,-239.99 984,-218.58 984,-179 984,-179 984,-179 984,-121 984,-88.95 984,-51.64 984,-29.75"/>
<polygon fill="midnightblue" stroke="midnightblue" points="987.5,-29.56 984,-19.56 980.5,-29.56 987.5,-29.56"/>
</g>
<!-- Node23 -->
<g id="node23" class="node">
<title>Node23</title>
<g id="a_node23"><a xlink:title=" ">
<polygon fill="white" stroke="#bfbfbf" points="2152,-235.5 2152,-254.5 2298,-254.5 2298,-235.5 2152,-235.5"/>
<text text-anchor="middle" x="2225" y="-242.5" font-family="Helvetica,sans-Serif" font-size="10.00">vtkRenderWindowInteractor.h</text>
</a>
</g>
</g>
<!-- Node1&#45;&gt;Node23 -->
<g id="edge22" class="edge">
<title>Node1&#45;&gt;Node23</title>
<path fill="none" stroke="midnightblue" d="M1617.3,-310.03C1709.61,-307.28 1947.23,-297.46 2143,-266 2156.83,-263.78 2171.78,-260.42 2185.07,-257.1"/>
<polygon fill="midnightblue" stroke="midnightblue" points="2186.05,-260.46 2194.86,-254.57 2184.3,-253.68 2186.05,-260.46"/>
</g>
<!-- Node24 -->
<g id="node24" class="node">
<title>Node24</title>
<g id="a_node24"><a xlink:title=" ">
<polygon fill="white" stroke="#bfbfbf" points="2316,-235.5 2316,-254.5 2414,-254.5 2414,-235.5 2316,-235.5"/>
<text text-anchor="middle" x="2365" y="-242.5" font-family="Helvetica,sans-Serif" font-size="10.00">vtkNamedColors.h</text>
</a>
</g>
</g>
<!-- Node1&#45;&gt;Node24 -->
<g id="edge23" class="edge">
<title>Node1&#45;&gt;Node24</title>
<path fill="none" stroke="midnightblue" d="M1617.36,-309.97C1749,-306.31 2173.16,-292.69 2307,-266 2316.33,-264.14 2326.22,-261.14 2335.13,-258.02"/>
<polygon fill="midnightblue" stroke="midnightblue" points="2336.52,-261.24 2344.71,-254.51 2334.11,-254.67 2336.52,-261.24"/>
</g>
<!-- Node25 -->
<g id="node25" class="node">
<title>Node25</title>
<g id="a_node25"><a xlink:title=" ">
<polygon fill="white" stroke="#bfbfbf" points="2432.5,-235.5 2432.5,-254.5 2513.5,-254.5 2513.5,-235.5 2432.5,-235.5"/>
<text text-anchor="middle" x="2473" y="-242.5" font-family="Helvetica,sans-Serif" font-size="10.00">vtkSTLWriter.h</text>
</a>
</g>
</g>
<!-- Node1&#45;&gt;Node25 -->
<g id="edge24" class="edge">
<title>Node1&#45;&gt;Node25</title>
<path fill="none" stroke="midnightblue" d="M1617.49,-310.6C1762.66,-308.88 2266.44,-300.49 2423,-266 2430.66,-264.31 2438.67,-261.58 2445.97,-258.68"/>
<polygon fill="midnightblue" stroke="midnightblue" points="2447.56,-261.81 2455.4,-254.69 2444.83,-255.36 2447.56,-261.81"/>
</g>
<!-- Node26 -->
<g id="node26" class="node">
<title>Node26</title>
<g id="a_node26"><a xlink:title=" ">
<polygon fill="white" stroke="#bfbfbf" points="2531.5,-235.5 2531.5,-254.5 2688.5,-254.5 2688.5,-235.5 2531.5,-235.5"/>
<text text-anchor="middle" x="2610" y="-242.5" font-family="Helvetica,sans-Serif" font-size="10.00">vtkLoopBooleanPolyDataFilter.h</text>
</a>
</g>
</g>
<!-- Node1&#45;&gt;Node26 -->
<g id="edge25" class="edge">
<title>Node1&#45;&gt;Node26</title>
<path fill="none" stroke="midnightblue" d="M1617.13,-310.07C1772.16,-306.23 2343.61,-290.69 2523,-266 2538.07,-263.93 2554.38,-260.5 2568.76,-257.07"/>
<polygon fill="midnightblue" stroke="midnightblue" points="2569.97,-260.37 2578.84,-254.58 2568.29,-253.58 2569.97,-260.37"/>
</g>
<!-- Node27 -->
<g id="node27" class="node">
<title>Node27</title>
<g id="a_node27"><a xlink:title=" ">
<polygon fill="white" stroke="#bfbfbf" points="2707,-230 2707,-260 2855,-260 2855,-230 2707,-230"/>
<text text-anchor="start" x="2715" y="-248" font-family="Helvetica,sans-Serif" font-size="10.00">vtkBooleanOperationPolyData</text>
<text text-anchor="middle" x="2781" y="-237" font-family="Helvetica,sans-Serif" font-size="10.00">Filter.h</text>
</a>
</g>
</g>
<!-- Node1&#45;&gt;Node27 -->
<g id="edge26" class="edge">
<title>Node1&#45;&gt;Node27</title>
<path fill="none" stroke="midnightblue" d="M1617.16,-310.46C1789.63,-307.91 2482.61,-295.98 2698,-266 2705.07,-265.02 2712.41,-263.7 2719.67,-262.2"/>
<polygon fill="midnightblue" stroke="midnightblue" points="2720.47,-265.61 2729.5,-260.07 2718.98,-258.77 2720.47,-265.61"/>
</g>
<!-- Node28 -->
<g id="node28" class="node">
<title>Node28</title>
<g id="a_node28"><a xlink:title=" ">
<polygon fill="white" stroke="#bfbfbf" points="708.5,-56.5 708.5,-75.5 803.5,-75.5 803.5,-56.5 708.5,-56.5"/>
<text text-anchor="middle" x="756" y="-63.5" font-family="Helvetica,sans-Serif" font-size="10.00">vtkTriangleFilter.h</text>
</a>
</g>
</g>
<!-- Node1&#45;&gt;Node28 -->
<g id="edge27" class="edge">
<title>Node1&#45;&gt;Node28</title>
<path fill="none" stroke="midnightblue" d="M1538.56,-311.11C1395.55,-311.18 909.84,-308.26 856,-266 799.6,-221.74 847.28,-171.98 808,-112 800.23,-100.14 788.48,-89.6 778.12,-81.71"/>
<polygon fill="midnightblue" stroke="midnightblue" points="780,-78.75 769.85,-75.73 775.9,-84.43 780,-78.75"/>
</g>
<!-- Node29 -->
<g id="node29" class="node">
<title>Node29</title>
<g id="a_node29"><a xlink:title=" ">
<polygon fill="white" stroke="#bfbfbf" points="2873,-235.5 2873,-254.5 2929,-254.5 2929,-235.5 2873,-235.5"/>
<text text-anchor="middle" x="2901" y="-242.5" font-family="Helvetica,sans-Serif" font-size="10.00">vtkHull.h</text>
</a>
</g>
</g>
<!-- Node1&#45;&gt;Node29 -->
<g id="edge28" class="edge">
<title>Node1&#45;&gt;Node29</title>
<path fill="none" stroke="midnightblue" d="M1617.04,-310.7C1819.07,-308.98 2741.25,-299.35 2864,-266 2869.32,-264.55 2874.73,-262.22 2879.7,-259.65"/>
<polygon fill="midnightblue" stroke="midnightblue" points="2881.65,-262.57 2888.6,-254.58 2878.18,-256.48 2881.65,-262.57"/>
</g>
<!-- Node30 -->
<g id="node30" class="node">
<title>Node30</title>
<g id="a_node30"><a xlink:title=" ">
<polygon fill="white" stroke="#bfbfbf" points="2947.5,-235.5 2947.5,-254.5 3084.5,-254.5 3084.5,-235.5 2947.5,-235.5"/>
<text text-anchor="middle" x="3016" y="-242.5" font-family="Helvetica,sans-Serif" font-size="10.00">vtkPCANormalEstimation.h</text>
</a>
</g>
</g>
<!-- Node1&#45;&gt;Node30 -->
<g id="edge29" class="edge">
<title>Node1&#45;&gt;Node30</title>
<path fill="none" stroke="midnightblue" d="M1617.14,-310.86C1811.39,-309.96 2673.01,-303.89 2938,-266 2951.54,-264.06 2966.12,-260.69 2978.98,-257.25"/>
<polygon fill="midnightblue" stroke="midnightblue" points="2980.16,-260.56 2988.86,-254.51 2978.29,-253.81 2980.16,-260.56"/>
</g>
<!-- Node31 -->
<g id="node31" class="node">
<title>Node31</title>
<g id="a_node31"><a xlink:title=" ">
<polygon fill="white" stroke="#bfbfbf" points="3102.5,-235.5 3102.5,-254.5 3209.5,-254.5 3209.5,-235.5 3102.5,-235.5"/>
<text text-anchor="middle" x="3156" y="-242.5" font-family="Helvetica,sans-Serif" font-size="10.00">vtkSignedDistance.h</text>
</a>
</g>
</g>
<!-- Node1&#45;&gt;Node31 -->
<g id="edge30" class="edge">
<title>Node1&#45;&gt;Node31</title>
<path fill="none" stroke="midnightblue" d="M1617.12,-310.5C1839.99,-307.55 2944.8,-291.74 3094,-266 3104.26,-264.23 3115.15,-261.15 3124.9,-257.93"/>
<polygon fill="midnightblue" stroke="midnightblue" points="3126.27,-261.15 3134.57,-254.57 3123.98,-254.54 3126.27,-261.15"/>
</g>
<!-- Node32 -->
<g id="node32" class="node">
<title>Node32</title>
<g id="a_node32"><a xlink:title=" ">
<polygon fill="white" stroke="#bfbfbf" points="3228,-235.5 3228,-254.5 3332,-254.5 3332,-235.5 3228,-235.5"/>
<text text-anchor="middle" x="3280" y="-242.5" font-family="Helvetica,sans-Serif" font-size="10.00">vtkExtractSurface.h</text>
</a>
</g>
</g>
<!-- Node1&#45;&gt;Node32 -->
<g id="edge31" class="edge">
<title>Node1&#45;&gt;Node32</title>
<path fill="none" stroke="midnightblue" d="M1617.25,-310.6C1851.19,-308.15 3056.84,-294.19 3219,-266 3229.11,-264.24 3239.83,-261.16 3249.42,-257.94"/>
<polygon fill="midnightblue" stroke="midnightblue" points="3250.67,-261.21 3258.93,-254.58 3248.34,-254.61 3250.67,-261.21"/>
</g>
<!-- Node33 -->
<g id="node33" class="node">
<title>Node33</title>
<g id="a_node33"><a xlink:title=" ">
<polygon fill="white" stroke="#bfbfbf" points="3350,-235.5 3350,-254.5 3480,-254.5 3480,-235.5 3350,-235.5"/>
<text text-anchor="middle" x="3415" y="-242.5" font-family="Helvetica,sans-Serif" font-size="10.00">vtkDataSetSurfaceFilter.h</text>
</a>
</g>
</g>
<!-- Node1&#45;&gt;Node33 -->
<g id="edge32" class="edge">
<title>Node1&#45;&gt;Node33</title>
<path fill="none" stroke="midnightblue" d="M1617.34,-311.27C1844.66,-312.63 2992.2,-316.84 3341,-266 3353.76,-264.14 3367.46,-260.82 3379.56,-257.42"/>
<polygon fill="midnightblue" stroke="midnightblue" points="3380.68,-260.74 3389.29,-254.57 3378.71,-254.02 3380.68,-260.74"/>
</g>
<!-- Node34 -->
<g id="node34" class="node">
<title>Node34</title>
<g id="a_node34"><a xlink:title=" ">
<polygon fill="white" stroke="#bfbfbf" points="3498.5,-235.5 3498.5,-254.5 3597.5,-254.5 3597.5,-235.5 3498.5,-235.5"/>
<text text-anchor="middle" x="3548" y="-242.5" font-family="Helvetica,sans-Serif" font-size="10.00">vtkFeatureEdges.h</text>
</a>
</g>
</g>
<!-- Node1&#45;&gt;Node34 -->
<g id="edge33" class="edge">
<title>Node1&#45;&gt;Node34</title>
<path fill="none" stroke="midnightblue" d="M1617.31,-310.79C1873.28,-309.32 3298.75,-299.67 3489,-266 3498.78,-264.27 3509.13,-261.21 3518.38,-257.99"/>
<polygon fill="midnightblue" stroke="midnightblue" points="3519.74,-261.23 3527.92,-254.5 3517.33,-254.65 3519.74,-261.23"/>
</g>
<!-- Node35 -->
<g id="node35" class="node">
<title>Node35</title>
<g id="a_node35"><a xlink:title=" ">
<polygon fill="white" stroke="#bfbfbf" points="3616,-235.5 3616,-254.5 3708,-254.5 3708,-235.5 3616,-235.5"/>
<text text-anchor="middle" x="3662" y="-242.5" font-family="Helvetica,sans-Serif" font-size="10.00">vtkDelaunay3D.h</text>
</a>
</g>
</g>
<!-- Node1&#45;&gt;Node35 -->
<g id="edge34" class="edge">
<title>Node1&#45;&gt;Node35</title>
<path fill="none" stroke="midnightblue" d="M1617.15,-310.9C1881.82,-310.11 3404.74,-303.95 3607,-266 3615.97,-264.32 3625.42,-261.35 3633.91,-258.21"/>
<polygon fill="midnightblue" stroke="midnightblue" points="3635.31,-261.42 3643.34,-254.51 3632.75,-254.9 3635.31,-261.42"/>
</g>
<!-- Node36 -->
<g id="node36" class="node">
<title>Node36</title>
<g id="a_node36"><a xlink:title=" ">
<polygon fill="white" stroke="#bfbfbf" points="3726.5,-235.5 3726.5,-254.5 3829.5,-254.5 3829.5,-235.5 3726.5,-235.5"/>
<text text-anchor="middle" x="3778" y="-242.5" font-family="Helvetica,sans-Serif" font-size="10.00">vtkGeometryFilter.h</text>
</a>
</g>
</g>
<!-- Node1&#45;&gt;Node36 -->
<g id="edge35" class="edge">
<title>Node1&#45;&gt;Node36</title>
<path fill="none" stroke="midnightblue" d="M1617.05,-310.87C1889.59,-309.89 3502.57,-302.57 3717,-266 3727.19,-264.26 3738.01,-261.16 3747.66,-257.9"/>
<polygon fill="midnightblue" stroke="midnightblue" points="3748.96,-261.15 3757.22,-254.51 3746.62,-254.56 3748.96,-261.15"/>
</g>
<!-- Node37 -->
<g id="node37" class="node">
<title>Node37</title>
<g id="a_node37"><a xlink:title=" ">
<polygon fill="white" stroke="#bfbfbf" points="3848,-224.5 3848,-265.5 3970,-265.5 3970,-224.5 3848,-224.5"/>
<text text-anchor="start" x="3856" y="-253.5" font-family="Helvetica,sans-Serif" font-size="10.00">CGAL/Exact_predicates</text>
<text text-anchor="start" x="3856" y="-242.5" font-family="Helvetica,sans-Serif" font-size="10.00">_exact_constructions</text>
<text text-anchor="middle" x="3909" y="-231.5" font-family="Helvetica,sans-Serif" font-size="10.00">_kernel.h</text>
</a>
</g>
</g>
<!-- Node1&#45;&gt;Node37 -->
<g id="edge36" class="edge">
<title>Node1&#45;&gt;Node37</title>
<path fill="none" stroke="midnightblue" d="M1617.44,-310.83C1896.23,-309.54 3566.27,-300.47 3837.62,-265.87"/>
<polygon fill="midnightblue" stroke="midnightblue" points="3838.31,-269.31 3847.74,-264.47 3837.35,-262.38 3838.31,-269.31"/>
</g>
<!-- Node38 -->
<g id="node38" class="node">
<title>Node38</title>
<g id="a_node38"><a xlink:title=" ">
<polygon fill="white" stroke="#bfbfbf" points="3988,-235.5 3988,-254.5 4102,-254.5 4102,-235.5 3988,-235.5"/>
<text text-anchor="middle" x="4045" y="-242.5" font-family="Helvetica,sans-Serif" font-size="10.00">CGAL/Polyhedron_3.h</text>
</a>
</g>
</g>
<!-- Node1&#45;&gt;Node38 -->
<g id="edge37" class="edge">
<title>Node1&#45;&gt;Node38</title>
<path fill="none" stroke="midnightblue" d="M1617.06,-310.92C1908.31,-310.21 3736.54,-304.25 3979,-266 3990.2,-264.23 4002.15,-261.03 4012.76,-257.71"/>
<polygon fill="midnightblue" stroke="midnightblue" points="4014.05,-260.97 4022.45,-254.52 4011.86,-254.32 4014.05,-260.97"/>
</g>
<!-- Node39 -->
<g id="node39" class="node">
<title>Node39</title>
<g id="a_node39"><a xlink:title=" ">
<polygon fill="white" stroke="#bfbfbf" points="4120,-235.5 4120,-254.5 4238,-254.5 4238,-235.5 4120,-235.5"/>
<text text-anchor="middle" x="4179" y="-242.5" font-family="Helvetica,sans-Serif" font-size="10.00">CGAL/Surface_mesh.h</text>
</a>
</g>
</g>
<!-- Node1&#45;&gt;Node39 -->
<g id="edge38" class="edge">
<title>Node1&#45;&gt;Node39</title>
<path fill="none" stroke="midnightblue" d="M1617.27,-310.94C1918.24,-310.38 3854.49,-305.27 4111,-266 4122.64,-264.22 4135.08,-260.97 4146.1,-257.61"/>
<polygon fill="midnightblue" stroke="midnightblue" points="4147.29,-260.9 4155.75,-254.52 4145.16,-254.23 4147.29,-260.9"/>
</g>
<!-- Node40 -->
<g id="node40" class="node">
<title>Node40</title>
<g id="a_node40"><a xlink:title=" ">
<polygon fill="white" stroke="#bfbfbf" points="4256,-235.5 4256,-254.5 4390,-254.5 4390,-235.5 4256,-235.5"/>
<text text-anchor="middle" x="4323" y="-242.5" font-family="Helvetica,sans-Serif" font-size="10.00">CGAL/Nef_polyhedron_3.h</text>
</a>
</g>
</g>
<!-- Node1&#45;&gt;Node40 -->
<g id="edge39" class="edge">
<title>Node1&#45;&gt;Node40</title>
<path fill="none" stroke="midnightblue" d="M1617.37,-310.91C1927.77,-310.11 3975.57,-303.45 4247,-266 4260.33,-264.16 4274.67,-260.77 4287.26,-257.3"/>
<polygon fill="midnightblue" stroke="midnightblue" points="4288.29,-260.64 4296.94,-254.52 4286.36,-253.91 4288.29,-260.64"/>
</g>
<!-- Node41 -->
<g id="node41" class="node">
<title>Node41</title>
<g id="a_node41"><a xlink:title=" ">
<polygon fill="white" stroke="#bfbfbf" points="4408,-230 4408,-260 4586,-260 4586,-230 4408,-230"/>
<text text-anchor="start" x="4416" y="-248" font-family="Helvetica,sans-Serif" font-size="10.00">CGAL/boost/graph/convert</text>
<text text-anchor="middle" x="4497" y="-237" font-family="Helvetica,sans-Serif" font-size="10.00">_nef_polyhedron_to_polygon_mesh.h</text>
</a>
</g>
</g>
<!-- Node1&#45;&gt;Node41 -->
<g id="edge40" class="edge">
<title>Node1&#45;&gt;Node41</title>
<path fill="none" stroke="midnightblue" d="M1617.04,-310.82C1936.09,-309.25 4110.34,-297.48 4399,-266 4408.13,-265 4417.67,-263.57 4427.05,-261.91"/>
<polygon fill="midnightblue" stroke="midnightblue" points="4427.96,-265.3 4437.16,-260.04 4426.69,-258.42 4427.96,-265.3"/>
</g>
<!-- Node42 -->
<g id="node42" class="node">
<title>Node42</title>
<g id="a_node42"><a xlink:href="../../db/d83/scene_8h.html" target="_top" xlink:title="The scene object is a &quot;glue object&quot; which holds scene specific informations.">
<polygon fill="white" stroke="red" points="430.5,-56.5 430.5,-75.5 503.5,-75.5 503.5,-56.5 430.5,-56.5"/>
<text text-anchor="middle" x="467" y="-63.5" font-family="Helvetica,sans-Serif" font-size="10.00">core/scene.h</text>
</a>
</g>
</g>
<!-- Node1&#45;&gt;Node42 -->
<g id="edge41" class="edge">
<title>Node1&#45;&gt;Node42</title>
<path fill="none" stroke="midnightblue" d="M1538.75,-310.43C1379.2,-307.92 784.13,-296.57 706,-266 603.63,-225.95 512.92,-123.73 480.07,-83.56"/>
<polygon fill="midnightblue" stroke="midnightblue" points="482.63,-81.16 473.63,-75.57 477.18,-85.55 482.63,-81.16"/>
</g>
<!-- Node112 -->
<g id="node47" class="node">
<title>Node112</title>
<g id="a_node47"><a xlink:href="../../d6/d5e/tool_8h.html" target="_top" xlink:title="Base class for tools.">
<polygon fill="white" stroke="red" points="202.5,-112.5 202.5,-131.5 267.5,-131.5 267.5,-112.5 202.5,-112.5"/>
<text text-anchor="middle" x="235" y="-119.5" font-family="Helvetica,sans-Serif" font-size="10.00">tools/tool.h</text>
</a>
</g>
</g>
<!-- Node1&#45;&gt;Node112 -->
<g id="edge52" class="edge">
<title>Node1&#45;&gt;Node112</title>
<path fill="none" stroke="midnightblue" d="M1538.77,-311.13C1311.83,-311.71 175.4,-312.31 119,-266 84.77,-237.9 75.15,-203.95 101,-168 121.59,-139.36 161.31,-128.69 192.18,-124.85"/>
<polygon fill="midnightblue" stroke="midnightblue" points="192.69,-128.31 202.27,-123.79 191.96,-121.35 192.69,-128.31"/>
</g>
<!-- Node123 -->
<g id="node48" class="node">
<title>Node123</title>
<g id="a_node48"><a xlink:href="../../d1/db7/meshsubtractor_8h.html" target="_top" xlink:title=" ">
<polygon fill="white" stroke="red" points="555.5,-112.5 555.5,-131.5 668.5,-131.5 668.5,-112.5 555.5,-112.5"/>
<text text-anchor="middle" x="612" y="-119.5" font-family="Helvetica,sans-Serif" font-size="10.00">utils/meshsubtractor.h</text>
</a>
</g>
</g>
<!-- Node1&#45;&gt;Node123 -->
<g id="edge57" class="edge">
<title>Node1&#45;&gt;Node123</title>
<path fill="none" stroke="midnightblue" d="M1538.79,-310.25C1388.05,-307.18 850.77,-294.33 780,-266 711.39,-238.54 650.76,-171.23 625.07,-139.75"/>
<polygon fill="midnightblue" stroke="midnightblue" points="627.48,-137.17 618.5,-131.55 622.02,-141.54 627.48,-137.17"/>
</g>
<!-- Node73 -->
<g id="node49" class="node">
<title>Node73</title>
<g id="a_node49"><a xlink:href="../../d5/d60/utils_8h.html" target="_top" xlink:title="Various utility algorithms needed by various parts of the application.">
<polygon fill="white" stroke="red" points="397,-168.5 397,-187.5 461,-187.5 461,-168.5 397,-168.5"/>
<text text-anchor="middle" x="429" y="-175.5" font-family="Helvetica,sans-Serif" font-size="10.00">utils/utils.h</text>
</a>
</g>
</g>
<!-- Node1&#45;&gt;Node73 -->
<g id="edge65" class="edge">
<title>Node1&#45;&gt;Node73</title>
<path fill="none" stroke="midnightblue" d="M1538.95,-310.49C1348.1,-307.88 520.87,-294.93 475,-266 450.74,-250.7 438.52,-218.07 432.98,-197.41"/>
<polygon fill="midnightblue" stroke="midnightblue" points="436.36,-196.49 430.61,-187.6 429.56,-198.14 436.36,-196.49"/>
</g>
<!-- Node134 -->
<g id="node50" class="node">
<title>Node134</title>
<g id="a_node50"><a xlink:href="../../d1/df3/iglmeshbooleanoperationfilter_8h.html" target="_top" xlink:title="Filter for boolean operations on polygon meshes using the igl library.">
<polygon fill="white" stroke="red" points="148,-235.5 148,-254.5 326,-254.5 326,-235.5 148,-235.5"/>
<text text-anchor="middle" x="237" y="-242.5" font-family="Helvetica,sans-Serif" font-size="10.00">filters/iglmeshbooleanoperationfilter.h</text>
</a>
</g>
</g>
<!-- Node1&#45;&gt;Node134 -->
<g id="edge73" class="edge">
<title>Node1&#45;&gt;Node134</title>
<path fill="none" stroke="midnightblue" d="M1538.82,-310.4C1355.4,-307.45 580.52,-293.55 340,-266 321.39,-263.87 301.12,-260.22 283.51,-256.62"/>
<polygon fill="midnightblue" stroke="midnightblue" points="284,-253.15 273.49,-254.52 282.56,-260 284,-253.15"/>
</g>
<!-- Node42&#45;&gt;Node12 -->
<g id="edge46" class="edge">
<title>Node42&#45;&gt;Node12</title>
<path fill="none" stroke="midnightblue" d="M434.04,-56.44C398.21,-47.14 340.84,-32.25 301.61,-22.06"/>
<polygon fill="midnightblue" stroke="midnightblue" points="302.36,-18.64 291.8,-19.52 300.6,-25.42 302.36,-18.64"/>
</g>
<!-- Node42&#45;&gt;Node14 -->
<g id="edge51" class="edge">
<title>Node42&#45;&gt;Node14</title>
<path fill="none" stroke="midnightblue" d="M430.22,-59.37C366.52,-49.63 235.59,-29.6 163.8,-18.62"/>
<polygon fill="midnightblue" stroke="midnightblue" points="164.07,-15.12 153.65,-17.07 163.01,-22.04 164.07,-15.12"/>
</g>
<!-- Node42&#45;&gt;Node19 -->
<g id="edge47" class="edge">
<title>Node42&#45;&gt;Node19</title>
<path fill="none" stroke="midnightblue" d="M503.58,-58C552.12,-48.7 638.23,-32.21 694.46,-21.44"/>
<polygon fill="midnightblue" stroke="midnightblue" points="695.43,-24.82 704.59,-19.5 694.11,-17.95 695.43,-24.82"/>
</g>
<!-- Node42&#45;&gt;Node20 -->
<g id="edge48" class="edge">
<title>Node42&#45;&gt;Node20</title>
<path fill="none" stroke="midnightblue" d="M495.05,-56.44C525.08,-47.28 572.91,-32.69 606.24,-22.52"/>
<polygon fill="midnightblue" stroke="midnightblue" points="607.54,-25.78 616.09,-19.52 605.5,-19.09 607.54,-25.78"/>
</g>
<!-- Node42&#45;&gt;Node21 -->
<g id="edge50" class="edge">
<title>Node42&#45;&gt;Node21</title>
<path fill="none" stroke="midnightblue" d="M503.75,-60.45C565.39,-52.77 693.76,-36.58 812.75,-20.15"/>
<polygon fill="midnightblue" stroke="midnightblue" points="813.34,-23.61 822.77,-18.77 812.38,-16.67 813.34,-23.61"/>
</g>
<!-- Node42&#45;&gt;Node22 -->
<g id="edge49" class="edge">
<title>Node42&#45;&gt;Node22</title>
<path fill="none" stroke="midnightblue" d="M503.62,-62.61C581.23,-57.3 768.15,-43.24 934.82,-20.05"/>
<polygon fill="midnightblue" stroke="midnightblue" points="935.34,-23.51 944.75,-18.66 934.36,-16.58 935.34,-23.51"/>
</g>
<!-- Node43 -->
<g id="node43" class="node">
<title>Node43</title>
<g id="a_node43"><a xlink:title=" ">
<polygon fill="white" stroke="#bfbfbf" points="543,-0.5 543,-19.5 595,-19.5 595,-0.5 543,-0.5"/>
<text text-anchor="middle" x="569" y="-7.5" font-family="Helvetica,sans-Serif" font-size="10.00">memory</text>
</a>
</g>
</g>
<!-- Node42&#45;&gt;Node43 -->
<g id="edge42" class="edge">
<title>Node42&#45;&gt;Node43</title>
<path fill="none" stroke="midnightblue" d="M483.39,-56.32C499.67,-47.7 524.87,-34.36 543.72,-24.39"/>
<polygon fill="midnightblue" stroke="midnightblue" points="545.45,-27.43 552.65,-19.65 542.18,-21.24 545.45,-27.43"/>
</g>
<!-- Node44 -->
<g id="node44" class="node">
<title>Node44</title>
<g id="a_node44"><a xlink:title=" ">
<polygon fill="white" stroke="#bfbfbf" points="423,-0.5 423,-19.5 461,-19.5 461,-0.5 423,-0.5"/>
<text text-anchor="middle" x="442" y="-7.5" font-family="Helvetica,sans-Serif" font-size="10.00">array</text>
</a>
</g>
</g>
<!-- Node42&#45;&gt;Node44 -->
<g id="edge43" class="edge">
<title>Node42&#45;&gt;Node44</title>
<path fill="none" stroke="midnightblue" d="M462.87,-56.08C459.49,-48.77 454.58,-38.18 450.38,-29.1"/>
<polygon fill="midnightblue" stroke="midnightblue" points="453.43,-27.36 446.05,-19.75 447.08,-30.3 453.43,-27.36"/>
</g>
<!-- Node45 -->
<g id="node45" class="node">
<title>Node45</title>
<g id="a_node45"><a xlink:title=" ">
<polygon fill="white" stroke="#bfbfbf" points="479,-0.5 479,-19.5 525,-19.5 525,-0.5 479,-0.5"/>
<text text-anchor="middle" x="502" y="-7.5" font-family="Helvetica,sans-Serif" font-size="10.00">cstdint</text>
</a>
</g>
</g>
<!-- Node42&#45;&gt;Node45 -->
<g id="edge44" class="edge">
<title>Node42&#45;&gt;Node45</title>
<path fill="none" stroke="midnightblue" d="M472.78,-56.08C477.67,-48.53 484.83,-37.49 490.83,-28.23"/>
<polygon fill="midnightblue" stroke="midnightblue" points="493.83,-30.05 496.33,-19.75 487.95,-26.24 493.83,-30.05"/>
</g>
<!-- Node46 -->
<g id="node46" class="node">
<title>Node46</title>
<g id="a_node46"><a xlink:title=" ">
<polygon fill="white" stroke="#bfbfbf" points="325,-0.5 325,-19.5 405,-19.5 405,-0.5 325,-0.5"/>
<text text-anchor="middle" x="365" y="-7.5" font-family="Helvetica,sans-Serif" font-size="10.00">QMainWindow</text>
</a>
</g>
</g>
<!-- Node42&#45;&gt;Node46 -->
<g id="edge45" class="edge">
<title>Node42&#45;&gt;Node46</title>
<path fill="none" stroke="midnightblue" d="M450.61,-56.32C434.33,-47.7 409.13,-34.36 390.28,-24.39"/>
<polygon fill="midnightblue" stroke="midnightblue" points="391.82,-21.24 381.35,-19.65 388.55,-27.43 391.82,-21.24"/>
</g>
<!-- Node112&#45;&gt;Node2 -->
<g id="edge53" class="edge">
<title>Node112&#45;&gt;Node2</title>
<path fill="none" stroke="midnightblue" d="M229.39,-112.08C224.63,-104.53 217.68,-93.49 211.85,-84.23"/>
<polygon fill="midnightblue" stroke="midnightblue" points="214.8,-82.35 206.51,-75.75 208.88,-86.08 214.8,-82.35"/>
</g>
<!-- Node112&#45;&gt;Node12 -->
<g id="edge54" class="edge">
<title>Node112&#45;&gt;Node12</title>
<path fill="none" stroke="midnightblue" d="M236.88,-112.37C240.76,-94.62 249.69,-53.67 254.94,-29.6"/>
<polygon fill="midnightblue" stroke="midnightblue" points="258.41,-30.11 257.13,-19.59 251.57,-28.62 258.41,-30.11"/>
</g>
<!-- Node112&#45;&gt;Node14 -->
<g id="edge55" class="edge">
<title>Node112&#45;&gt;Node14</title>
<path fill="none" stroke="midnightblue" d="M221.07,-112.34C207.84,-103.82 187.71,-90.09 172,-76 155.19,-60.92 138.26,-41.32 127.07,-27.6"/>
<polygon fill="midnightblue" stroke="midnightblue" points="129.59,-25.15 120.6,-19.55 124.13,-29.54 129.59,-25.15"/>
</g>
<!-- Node112&#45;&gt;Node42 -->
<g id="edge56" class="edge">
<title>Node112&#45;&gt;Node42</title>
<path fill="none" stroke="midnightblue" d="M267.75,-113.38C307.58,-104.11 375.08,-88.39 420.34,-77.86"/>
<polygon fill="midnightblue" stroke="midnightblue" points="421.26,-81.24 430.21,-75.56 419.67,-74.42 421.26,-81.24"/>
</g>
<!-- Node123&#45;&gt;Node2 -->
<g id="edge59" class="edge">
<title>Node123&#45;&gt;Node2</title>
<path fill="none" stroke="midnightblue" d="M555.28,-113.55C467.28,-101.99 300.82,-80.12 231.99,-71.07"/>
<polygon fill="midnightblue" stroke="midnightblue" points="232.18,-67.57 221.81,-69.73 231.27,-74.51 232.18,-67.57"/>
</g>
<!-- Node123&#45;&gt;Node3 -->
<g id="edge58" class="edge">
<title>Node123&#45;&gt;Node3</title>
<path fill="none" stroke="midnightblue" d="M620.42,-112.08C627.85,-104.22 638.85,-92.57 647.81,-83.08"/>
<polygon fill="midnightblue" stroke="midnightblue" points="650.41,-85.42 654.74,-75.75 645.32,-80.62 650.41,-85.42"/>
</g>
<!-- Node123&#45;&gt;Node12 -->
<g id="edge61" class="edge">
<title>Node123&#45;&gt;Node12</title>
<path fill="none" stroke="midnightblue" d="M564.82,-112.48C525.93,-104.83 469.63,-92.29 422,-76 401.68,-69.05 397.83,-64.25 378,-56 349.45,-44.13 316.53,-31.78 292.57,-23.03"/>
<polygon fill="midnightblue" stroke="midnightblue" points="293.48,-19.64 282.89,-19.51 291.09,-26.22 293.48,-19.64"/>
</g>
<!-- Node123&#45;&gt;Node14 -->
<g id="edge62" class="edge">
<title>Node123&#45;&gt;Node14</title>
<path fill="none" stroke="midnightblue" d="M562.14,-112.44C513.87,-103.95 438.69,-90.19 374,-76 296.45,-58.99 206.78,-35.78 155.59,-22.19"/>
<polygon fill="midnightblue" stroke="midnightblue" points="156.44,-18.8 145.88,-19.61 154.64,-25.56 156.44,-18.8"/>
</g>
<!-- Node123&#45;&gt;Node19 -->
<g id="edge63" class="edge">
<title>Node123&#45;&gt;Node19</title>
<path fill="none" stroke="midnightblue" d="M611.55,-112.26C611.33,-98.57 612.91,-71.99 627,-56 641.62,-39.4 662.92,-28.92 683.65,-22.3"/>
<polygon fill="midnightblue" stroke="midnightblue" points="684.81,-25.6 693.42,-19.43 682.84,-18.89 684.81,-25.6"/>
</g>
<!-- Node123&#45;&gt;Node28 -->
<g id="edge64" class="edge">
<title>Node123&#45;&gt;Node28</title>
<path fill="none" stroke="midnightblue" d="M634.82,-112.44C658.83,-103.44 696.83,-89.19 723.87,-79.05"/>
<polygon fill="midnightblue" stroke="midnightblue" points="725.16,-82.3 733.29,-75.52 722.7,-75.75 725.16,-82.3"/>
</g>
<!-- Node123&#45;&gt;Node43 -->
<g id="edge60" class="edge">
<title>Node123&#45;&gt;Node43</title>
<path fill="none" stroke="midnightblue" d="M608.52,-112.39C604.86,-103.34 598.98,-88.69 594,-76 587.86,-60.35 581.01,-42.52 576.04,-29.5"/>
<polygon fill="midnightblue" stroke="midnightblue" points="579.19,-27.94 572.36,-19.85 572.65,-30.44 579.19,-27.94"/>
</g>
<!-- Node73&#45;&gt;Node3 -->
<g id="edge66" class="edge">
<title>Node73&#45;&gt;Node3</title>
<path fill="none" stroke="midnightblue" d="M461.41,-176.1C522.43,-173.64 650.75,-164.62 678,-132 689.1,-118.71 682.12,-98.78 674.39,-84.49"/>
<polygon fill="midnightblue" stroke="midnightblue" points="677.25,-82.46 669.13,-75.65 671.24,-86.04 677.25,-82.46"/>
</g>
<!-- Node73&#45;&gt;Node12 -->
<g id="edge67" class="edge">
<title>Node73&#45;&gt;Node12</title>
<path fill="none" stroke="midnightblue" d="M419.86,-168.08C392.41,-141.27 310.4,-61.19 275.27,-26.89"/>
<polygon fill="midnightblue" stroke="midnightblue" points="277.37,-24.05 267.77,-19.57 272.48,-29.06 277.37,-24.05"/>
</g>
<!-- Node73&#45;&gt;Node14 -->
<g id="edge69" class="edge">
<title>Node73&#45;&gt;Node14</title>
<path fill="none" stroke="midnightblue" d="M396.94,-173.63C340.88,-167.28 227.82,-152.34 194,-132 154.56,-108.28 130.66,-56.77 120.22,-29.23"/>
<polygon fill="midnightblue" stroke="midnightblue" points="123.45,-27.87 116.76,-19.65 116.86,-30.24 123.45,-27.87"/>
</g>
<!-- Node73&#45;&gt;Node19 -->
<g id="edge68" class="edge">
<title>Node73&#45;&gt;Node19</title>
<path fill="none" stroke="midnightblue" d="M461.31,-173.97C546.75,-165.17 774.72,-136.31 813,-76 825.98,-55.55 800.61,-36.34 778.08,-24.18"/>
<polygon fill="midnightblue" stroke="midnightblue" points="779.54,-20.99 769.04,-19.57 776.36,-27.23 779.54,-20.99"/>
</g>
<!-- Node73&#45;&gt;Node20 -->
<g id="edge70" class="edge">
<title>Node73&#45;&gt;Node20</title>
<path fill="none" stroke="midnightblue" d="M440.26,-168.31C475.01,-141.47 580.93,-59.69 624.73,-25.88"/>
<polygon fill="midnightblue" stroke="midnightblue" points="627.08,-28.49 632.85,-19.61 622.8,-22.95 627.08,-28.49"/>
</g>
<!-- Node73&#45;&gt;Node42 -->
<g id="edge72" class="edge">
<title>Node73&#45;&gt;Node42</title>
<path fill="none" stroke="midnightblue" d="M431.98,-168.37C438.14,-150.54 452.39,-109.3 460.69,-85.27"/>
<polygon fill="midnightblue" stroke="midnightblue" points="464.07,-86.19 464.03,-75.59 457.46,-83.9 464.07,-86.19"/>
</g>
<!-- Node73&#45;&gt;Node112 -->
<g id="edge71" class="edge">
<title>Node73&#45;&gt;Node112</title>
<path fill="none" stroke="midnightblue" d="M398.26,-168.44C365.06,-159.2 312.01,-144.44 275.44,-134.26"/>
<polygon fill="midnightblue" stroke="midnightblue" points="276.17,-130.83 265.6,-131.52 274.29,-137.57 276.17,-130.83"/>
</g>
<!-- Node134&#45;&gt;Node9 -->
<g id="edge76" class="edge">
<title>Node134&#45;&gt;Node9</title>
<path fill="none" stroke="midnightblue" d="M222.57,-235.23C204.68,-224.37 173.98,-205.72 152.87,-192.89"/>
<polygon fill="midnightblue" stroke="midnightblue" points="154.57,-189.83 144.2,-187.63 150.93,-195.81 154.57,-189.83"/>
</g>
<!-- Node134&#45;&gt;Node10 -->
<g id="edge77" class="edge">
<title>Node134&#45;&gt;Node10</title>
<path fill="none" stroke="midnightblue" d="M244.15,-235.23C252.41,-225.1 266.2,-208.19 276.5,-195.56"/>
<polygon fill="midnightblue" stroke="midnightblue" points="279.36,-197.59 282.97,-187.63 273.93,-193.17 279.36,-197.59"/>
</g>
<!-- Node134&#45;&gt;Node12 -->
<g id="edge74" class="edge">
<title>Node134&#45;&gt;Node12</title>
<path fill="none" stroke="midnightblue" d="M232.09,-235.38C213.89,-202.92 152.34,-88.3 172,-56 181.46,-40.46 198.21,-30.05 214.5,-23.19"/>
<polygon fill="midnightblue" stroke="midnightblue" points="215.9,-26.4 223.99,-19.55 213.4,-19.87 215.9,-26.4"/>
</g>
<!-- Node134&#45;&gt;Node14 -->
<g id="edge75" class="edge">
<title>Node134&#45;&gt;Node14</title>
<path fill="none" stroke="midnightblue" d="M229.43,-235.26C209.29,-211.51 154.18,-143.04 128,-76 122.15,-61.03 118.53,-43.12 116.43,-29.89"/>
<polygon fill="midnightblue" stroke="midnightblue" points="119.85,-29.07 114.97,-19.67 112.92,-30.06 119.85,-29.07"/>
</g>
<!-- Node134&#45;&gt;Node73 -->
<g id="edge78" class="edge">
<title>Node134&#45;&gt;Node73</title>
<path fill="none" stroke="midnightblue" d="M262.5,-235.37C296.3,-223.92 356.1,-203.68 394.08,-190.82"/>
<polygon fill="midnightblue" stroke="midnightblue" points="395.35,-194.09 403.7,-187.56 393.11,-187.46 395.35,-194.09"/>
</g>
</g>
</svg>
