<?xml version="1.0" encoding="UTF-8" standalone="no"?>
<!DOCTYPE svg PUBLIC "-//W3C//DTD SVG 1.1//EN"
 "http://www.w3.org/Graphics/SVG/1.1/DTD/svg11.dtd">
<!-- Generated by graphviz version 2.44.1 (0)
 -->
<!-- Title: coordinates.h Pages: 1 -->
<svg width="1014pt" height="476pt"
 viewBox="0.00 0.00 1014.00 476.00" xmlns="http://www.w3.org/2000/svg" xmlns:xlink="http://www.w3.org/1999/xlink">
<g id="graph0" class="graph" transform="scale(1 1) rotate(0) translate(4 472)">
<title>coordinates.h</title>
<polygon fill="white" stroke="transparent" points="-4,4 -4,-472 1010,-472 1010,4 -4,4"/>
<!-- Node1 -->
<g id="node1" class="node">
<title>Node1</title>
<g id="a_node1"><a xlink:title=" ">
<polygon fill="#bfbfbf" stroke="black" points="351.5,-448.5 351.5,-467.5 426.5,-467.5 426.5,-448.5 351.5,-448.5"/>
<text text-anchor="middle" x="389" y="-455.5" font-family="Helvetica,sans-Serif" font-size="10.00">coordinates.h</text>
</a>
</g>
</g>
<!-- Node2 -->
<g id="node2" class="node">
<title>Node2</title>
<g id="a_node2"><a xlink:href="../../dc/dcc/basics_8h.html" target="_top" xlink:title=" ">
<polygon fill="white" stroke="black" points="205.5,-392.5 205.5,-411.5 258.5,-411.5 258.5,-392.5 205.5,-392.5"/>
<text text-anchor="middle" x="232" y="-399.5" font-family="Helvetica,sans-Serif" font-size="10.00">basics.h</text>
</a>
</g>
</g>
<!-- Node1&#45;&gt;Node2 -->
<g id="edge1" class="edge">
<title>Node1&#45;&gt;Node2</title>
<path fill="none" stroke="midnightblue" d="M354.61,-445.17C325.05,-435 283.13,-420.59 256.76,-411.52"/>
<polygon fill="midnightblue" stroke="midnightblue" points="353.53,-448.5 364.12,-448.44 355.8,-441.88 353.53,-448.5"/>
</g>
<!-- Node35 -->
<g id="node35" class="node">
<title>Node35</title>
<g id="a_node35"><a xlink:href="../../dd/df4/matrix_8h.html" target="_top" xlink:title=" ">
<polygon fill="white" stroke="black" points="363,-392.5 363,-411.5 415,-411.5 415,-392.5 363,-392.5"/>
<text text-anchor="middle" x="389" y="-399.5" font-family="Helvetica,sans-Serif" font-size="10.00">matrix.h</text>
</a>
</g>
</g>
<!-- Node1&#45;&gt;Node35 -->
<g id="edge46" class="edge">
<title>Node1&#45;&gt;Node35</title>
<path fill="none" stroke="midnightblue" d="M389,-437.8C389,-428.91 389,-418.78 389,-411.75"/>
<polygon fill="midnightblue" stroke="midnightblue" points="385.5,-438.08 389,-448.08 392.5,-438.08 385.5,-438.08"/>
</g>
<!-- Node37 -->
<g id="node37" class="node">
<title>Node37</title>
<g id="a_node37"><a xlink:href="../../df/deb/coordinates_8cpp.html" target="_top" xlink:title=" ">
<polygon fill="white" stroke="black" points="433,-392.5 433,-411.5 519,-411.5 519,-392.5 433,-392.5"/>
<text text-anchor="middle" x="476" y="-399.5" font-family="Helvetica,sans-Serif" font-size="10.00">coordinates.cpp</text>
</a>
</g>
</g>
<!-- Node1&#45;&gt;Node37 -->
<g id="edge49" class="edge">
<title>Node1&#45;&gt;Node37</title>
<path fill="none" stroke="midnightblue" d="M411.72,-442.9C427.67,-433 448.5,-420.07 462.06,-411.65"/>
<polygon fill="midnightblue" stroke="midnightblue" points="409.63,-440.08 402.98,-448.32 413.32,-446.02 409.63,-440.08"/>
</g>
<!-- Node3 -->
<g id="node3" class="node">
<title>Node3</title>
<g id="a_node3"><a xlink:href="../../d6/df3/graph_8h.html" target="_top" xlink:title=" ">
<polygon fill="white" stroke="black" points="311.5,-336.5 311.5,-355.5 360.5,-355.5 360.5,-336.5 311.5,-336.5"/>
<text text-anchor="middle" x="336" y="-343.5" font-family="Helvetica,sans-Serif" font-size="10.00">graph.h</text>
</a>
</g>
</g>
<!-- Node2&#45;&gt;Node3 -->
<g id="edge2" class="edge">
<title>Node2&#45;&gt;Node3</title>
<path fill="none" stroke="midnightblue" d="M257.83,-387.59C277.06,-377.61 302.74,-364.27 319.33,-355.65"/>
<polygon fill="midnightblue" stroke="midnightblue" points="255.97,-384.61 248.71,-392.32 259.2,-390.82 255.97,-384.61"/>
</g>
<!-- Node5 -->
<g id="node5" class="node">
<title>Node5</title>
<g id="a_node5"><a xlink:href="../../da/ddb/heap_8h.html" target="_top" xlink:title=" ">
<polygon fill="white" stroke="black" points="96,-336.5 96,-355.5 142,-355.5 142,-336.5 96,-336.5"/>
<text text-anchor="middle" x="119" y="-343.5" font-family="Helvetica,sans-Serif" font-size="10.00">heap.h</text>
</a>
</g>
</g>
<!-- Node2&#45;&gt;Node5 -->
<g id="edge4" class="edge">
<title>Node2&#45;&gt;Node5</title>
<path fill="none" stroke="midnightblue" d="M205,-388.1C183.89,-378.01 155.14,-364.27 136.82,-355.52"/>
<polygon fill="midnightblue" stroke="midnightblue" points="203.56,-391.29 214.09,-392.44 206.58,-384.97 203.56,-391.29"/>
</g>
<!-- Node7 -->
<g id="node7" class="node">
<title>Node7</title>
<g id="a_node7"><a xlink:href="../../d2/d91/point_8h.html" target="_top" xlink:title=" ">
<polygon fill="white" stroke="black" points="209,-336.5 209,-355.5 255,-355.5 255,-336.5 209,-336.5"/>
<text text-anchor="middle" x="232" y="-343.5" font-family="Helvetica,sans-Serif" font-size="10.00">point.h</text>
</a>
</g>
</g>
<!-- Node2&#45;&gt;Node7 -->
<g id="edge6" class="edge">
<title>Node2&#45;&gt;Node7</title>
<path fill="none" stroke="midnightblue" d="M232,-381.8C232,-372.91 232,-362.78 232,-355.75"/>
<polygon fill="midnightblue" stroke="midnightblue" points="228.5,-382.08 232,-392.08 235.5,-382.08 228.5,-382.08"/>
</g>
<!-- Node8 -->
<g id="node8" class="node">
<title>Node8</title>
<g id="a_node8"><a xlink:href="../../d9/dad/tmesh__kernel_8h.html" target="_top" xlink:title=" ">
<polygon fill="white" stroke="black" points="299.5,-280.5 299.5,-299.5 382.5,-299.5 382.5,-280.5 299.5,-280.5"/>
<text text-anchor="middle" x="341" y="-287.5" font-family="Helvetica,sans-Serif" font-size="10.00">tmesh_kernel.h</text>
</a>
</g>
</g>
<!-- Node2&#45;&gt;Node8 -->
<g id="edge43" class="edge">
<title>Node2&#45;&gt;Node8</title>
<path fill="none" stroke="midnightblue" d="M247.65,-385.21C271.01,-361.63 314.22,-318.03 332.49,-299.59"/>
<polygon fill="midnightblue" stroke="midnightblue" points="245.11,-382.8 240.55,-392.37 250.08,-387.73 245.11,-382.8"/>
</g>
<!-- Node32 -->
<g id="node32" class="node">
<title>Node32</title>
<g id="a_node32"><a xlink:href="../../df/d37/vertex_8h.html" target="_top" xlink:title=" ">
<polygon fill="white" stroke="black" points="155,-280.5 155,-299.5 207,-299.5 207,-280.5 155,-280.5"/>
<text text-anchor="middle" x="181" y="-287.5" font-family="Helvetica,sans-Serif" font-size="10.00">vertex.h</text>
</a>
</g>
</g>
<!-- Node2&#45;&gt;Node32 -->
<g id="edge45" class="edge">
<title>Node2&#45;&gt;Node32</title>
<path fill="none" stroke="midnightblue" d="M218.11,-384.33C211.88,-376.19 204.85,-366.01 200,-356 190.77,-336.96 185.13,-312.56 182.59,-299.75"/>
<polygon fill="midnightblue" stroke="midnightblue" points="215.46,-386.62 224.43,-392.26 220.93,-382.25 215.46,-386.62"/>
</g>
<!-- Node33 -->
<g id="node33" class="node">
<title>Node33</title>
<g id="a_node33"><a xlink:href="../../db/dc3/edge_8h.html" target="_top" xlink:title=" ">
<polygon fill="white" stroke="black" points="30,-224.5 30,-243.5 76,-243.5 76,-224.5 30,-224.5"/>
<text text-anchor="middle" x="53" y="-231.5" font-family="Helvetica,sans-Serif" font-size="10.00">edge.h</text>
</a>
</g>
</g>
<!-- Node2&#45;&gt;Node33 -->
<g id="edge44" class="edge">
<title>Node2&#45;&gt;Node33</title>
<path fill="none" stroke="midnightblue" d="M195.25,-399.17C162.49,-395.56 115.45,-385.23 87,-356 55.8,-323.95 52.77,-265.64 52.8,-243.68"/>
<polygon fill="midnightblue" stroke="midnightblue" points="195.06,-402.66 205.34,-400.12 195.71,-395.7 195.06,-402.66"/>
</g>
<!-- Node4 -->
<g id="node4" class="node">
<title>Node4</title>
<g id="a_node4"><a xlink:href="../../d7/d75/graph_8cpp.html" target="_top" xlink:title=" ">
<polygon fill="white" stroke="black" points="400.5,-280.5 400.5,-299.5 459.5,-299.5 459.5,-280.5 400.5,-280.5"/>
<text text-anchor="middle" x="430" y="-287.5" font-family="Helvetica,sans-Serif" font-size="10.00">graph.cpp</text>
</a>
</g>
</g>
<!-- Node3&#45;&gt;Node4 -->
<g id="edge3" class="edge">
<title>Node3&#45;&gt;Node4</title>
<path fill="none" stroke="midnightblue" d="M360.06,-331.18C377.36,-321.24 400.15,-308.15 414.93,-299.65"/>
<polygon fill="midnightblue" stroke="midnightblue" points="358.03,-328.31 351.1,-336.32 361.52,-334.38 358.03,-328.31"/>
</g>
<!-- Node6 -->
<g id="node6" class="node">
<title>Node6</title>
<g id="a_node6"><a xlink:href="../../de/d90/heap_8cpp.html" target="_top" xlink:title=" ">
<polygon fill="white" stroke="black" points="81,-280.5 81,-299.5 137,-299.5 137,-280.5 81,-280.5"/>
<text text-anchor="middle" x="109" y="-287.5" font-family="Helvetica,sans-Serif" font-size="10.00">heap.cpp</text>
</a>
</g>
</g>
<!-- Node5&#45;&gt;Node6 -->
<g id="edge5" class="edge">
<title>Node5&#45;&gt;Node6</title>
<path fill="none" stroke="midnightblue" d="M115.5,-326.1C113.84,-317.14 111.94,-306.86 110.62,-299.75"/>
<polygon fill="midnightblue" stroke="midnightblue" points="112.09,-326.89 117.35,-336.08 118.97,-325.61 112.09,-326.89"/>
</g>
<!-- Node7&#45;&gt;Node8 -->
<g id="edge7" class="edge">
<title>Node7&#45;&gt;Node8</title>
<path fill="none" stroke="midnightblue" d="M258.52,-331.86C278.73,-321.85 305.99,-308.35 323.53,-299.65"/>
<polygon fill="midnightblue" stroke="midnightblue" points="256.92,-328.75 249.51,-336.32 260.03,-335.02 256.92,-328.75"/>
</g>
<!-- Node7&#45;&gt;Node32 -->
<g id="edge35" class="edge">
<title>Node7&#45;&gt;Node32</title>
<path fill="none" stroke="midnightblue" d="M216.62,-328.72C207.63,-319.2 196.64,-307.56 189.26,-299.75"/>
<polygon fill="midnightblue" stroke="midnightblue" points="214.17,-331.22 223.58,-336.08 219.26,-326.41 214.17,-331.22"/>
</g>
<!-- Node34 -->
<g id="node34" class="node">
<title>Node34</title>
<g id="a_node34"><a xlink:href="../../d5/d55/point_8cpp.html" target="_top" xlink:title=" ">
<polygon fill="white" stroke="black" points="225,-280.5 225,-299.5 281,-299.5 281,-280.5 225,-280.5"/>
<text text-anchor="middle" x="253" y="-287.5" font-family="Helvetica,sans-Serif" font-size="10.00">point.cpp</text>
</a>
</g>
</g>
<!-- Node7&#45;&gt;Node34 -->
<g id="edge42" class="edge">
<title>Node7&#45;&gt;Node34</title>
<path fill="none" stroke="midnightblue" d="M239.12,-326.69C242.66,-317.59 246.77,-307.01 249.6,-299.75"/>
<polygon fill="midnightblue" stroke="midnightblue" points="235.83,-325.49 235.47,-336.08 242.35,-328.03 235.83,-325.49"/>
</g>
<!-- Node9 -->
<g id="node9" class="node">
<title>Node9</title>
<g id="a_node9"><a xlink:href="../../d3/d0f/tmesh_8h.html" target="_top" xlink:title=" ">
<polygon fill="white" stroke="black" points="347,-168.5 347,-187.5 399,-187.5 399,-168.5 347,-168.5"/>
<text text-anchor="middle" x="373" y="-175.5" font-family="Helvetica,sans-Serif" font-size="10.00">tmesh.h</text>
</a>
</g>
</g>
<!-- Node8&#45;&gt;Node9 -->
<g id="edge8" class="edge">
<title>Node8&#45;&gt;Node9</title>
<path fill="none" stroke="midnightblue" d="M346.33,-270.67C353.33,-246.62 365.32,-205.39 370.5,-187.59"/>
<polygon fill="midnightblue" stroke="midnightblue" points="342.94,-269.79 343.51,-280.37 349.67,-271.74 342.94,-269.79"/>
</g>
<!-- Node31 -->
<g id="node31" class="node">
<title>Node31</title>
<g id="a_node31"><a xlink:href="../../da/dee/tmesh_8cpp.html" target="_top" xlink:title=" ">
<polygon fill="white" stroke="black" points="369,-224.5 369,-243.5 431,-243.5 431,-224.5 369,-224.5"/>
<text text-anchor="middle" x="400" y="-231.5" font-family="Helvetica,sans-Serif" font-size="10.00">tmesh.cpp</text>
</a>
</g>
</g>
<!-- Node8&#45;&gt;Node31 -->
<g id="edge34" class="edge">
<title>Node8&#45;&gt;Node31</title>
<path fill="none" stroke="midnightblue" d="M357.89,-273.54C368.41,-263.91 381.57,-251.87 390.35,-243.83"/>
<polygon fill="midnightblue" stroke="midnightblue" points="355.49,-270.99 350.48,-280.32 360.22,-276.15 355.49,-270.99"/>
</g>
<!-- Node10 -->
<g id="node10" class="node">
<title>Node10</title>
<g id="a_node10"><a xlink:href="../../d9/d53/mainwindow_8h.html" target="_top" xlink:title="Qt MainWindow of the application.">
<polygon fill="white" stroke="black" points="378,-56.5 378,-75.5 456,-75.5 456,-56.5 378,-56.5"/>
<text text-anchor="middle" x="417" y="-63.5" font-family="Helvetica,sans-Serif" font-size="10.00">mainwindow.h</text>
</a>
</g>
</g>
<!-- Node9&#45;&gt;Node10 -->
<g id="edge9" class="edge">
<title>Node9&#45;&gt;Node10</title>
<path fill="none" stroke="midnightblue" d="M380.2,-159C389.8,-135 406.41,-93.47 413.56,-75.59"/>
<polygon fill="midnightblue" stroke="midnightblue" points="376.92,-157.78 376.45,-168.37 383.42,-160.38 376.92,-157.78"/>
</g>
<!-- Node13 -->
<g id="node13" class="node">
<title>Node13</title>
<g id="a_node13"><a xlink:href="../../d3/d1d/march_intersections_8h.html" target="_top" xlink:title=" ">
<polygon fill="white" stroke="black" points="530,-112.5 530,-131.5 638,-131.5 638,-112.5 530,-112.5"/>
<text text-anchor="middle" x="584" y="-119.5" font-family="Helvetica,sans-Serif" font-size="10.00">marchIntersections.h</text>
</a>
</g>
</g>
<!-- Node9&#45;&gt;Node13 -->
<g id="edge12" class="edge">
<title>Node9&#45;&gt;Node13</title>
<path fill="none" stroke="midnightblue" d="M409.11,-167.76C448.85,-157.59 512.2,-141.38 550.76,-131.51"/>
<polygon fill="midnightblue" stroke="midnightblue" points="408.12,-164.4 399.3,-170.27 409.85,-171.18 408.12,-164.4"/>
</g>
<!-- Node15 -->
<g id="node15" class="node">
<title>Node15</title>
<g id="a_node15"><a xlink:href="../../d5/dc3/tin_8h.html" target="_top" xlink:title=" ">
<polygon fill="white" stroke="black" points="884.5,-112.5 884.5,-131.5 919.5,-131.5 919.5,-112.5 884.5,-112.5"/>
<text text-anchor="middle" x="902" y="-119.5" font-family="Helvetica,sans-Serif" font-size="10.00">tin.h</text>
</a>
</g>
</g>
<!-- Node9&#45;&gt;Node15 -->
<g id="edge14" class="edge">
<title>Node9&#45;&gt;Node15</title>
<path fill="none" stroke="midnightblue" d="M409.08,-176.53C491.21,-174.86 697.36,-167.16 866,-132 871.9,-130.77 878.31,-128.67 884.38,-126.8"/>
<polygon fill="midnightblue" stroke="midnightblue" points="408.94,-173.04 399,-176.72 409.07,-180.04 408.94,-173.04"/>
</g>
<!-- Node20 -->
<g id="node20" class="node">
<title>Node20</title>
<g id="a_node20"><a xlink:href="../../dd/d6a/triangle_8h.html" target="_top" xlink:title=" ">
<polygon fill="white" stroke="black" points="194,-112.5 194,-131.5 250,-131.5 250,-112.5 194,-112.5"/>
<text text-anchor="middle" x="222" y="-119.5" font-family="Helvetica,sans-Serif" font-size="10.00">triangle.h</text>
</a>
</g>
</g>
<!-- Node9&#45;&gt;Node20 -->
<g id="edge20" class="edge">
<title>Node9&#45;&gt;Node20</title>
<path fill="none" stroke="midnightblue" d="M337.08,-166.13C306.94,-155.98 265.25,-141.02 241.09,-131.65"/>
<polygon fill="midnightblue" stroke="midnightblue" points="336.22,-169.54 346.81,-169.38 338.43,-162.9 336.22,-169.54"/>
</g>
<!-- Node24 -->
<g id="node24" class="node">
<title>Node24</title>
<g id="a_node24"><a xlink:href="../../df/d36/check_and_repair_8cpp.html" target="_top" xlink:title=" ">
<polygon fill="white" stroke="black" points="656.5,-112.5 656.5,-131.5 763.5,-131.5 763.5,-112.5 656.5,-112.5"/>
<text text-anchor="middle" x="710" y="-119.5" font-family="Helvetica,sans-Serif" font-size="10.00">checkAndRepair.cpp</text>
</a>
</g>
</g>
<!-- Node9&#45;&gt;Node24 -->
<g id="edge25" class="edge">
<title>Node9&#45;&gt;Node24</title>
<path fill="none" stroke="midnightblue" d="M409.22,-171.2C468.74,-161.66 587.5,-142.63 656.66,-131.55"/>
<polygon fill="midnightblue" stroke="midnightblue" points="408.48,-167.77 399.16,-172.81 409.59,-174.68 408.48,-167.77"/>
</g>
<!-- Node25 -->
<g id="node25" class="node">
<title>Node25</title>
<g id="a_node25"><a xlink:href="../../d1/d69/subdivision_8cpp.html" target="_top" xlink:title=" ">
<polygon fill="white" stroke="black" points="782,-112.5 782,-131.5 866,-131.5 866,-112.5 782,-112.5"/>
<text text-anchor="middle" x="824" y="-119.5" font-family="Helvetica,sans-Serif" font-size="10.00">subdivision.cpp</text>
</a>
</g>
</g>
<!-- Node9&#45;&gt;Node25 -->
<g id="edge26" class="edge">
<title>Node9&#45;&gt;Node25</title>
<path fill="none" stroke="midnightblue" d="M409.4,-173.68C479.8,-167.07 639.45,-151.28 773,-132 775.85,-131.59 778.78,-131.14 781.73,-130.67"/>
<polygon fill="midnightblue" stroke="midnightblue" points="408.91,-170.21 399.28,-174.62 409.56,-177.18 408.91,-170.21"/>
</g>
<!-- Node26 -->
<g id="node26" class="node">
<title>Node26</title>
<g id="a_node26"><a xlink:href="../../d5/d5a/io_8cpp.html" target="_top" xlink:title=" ">
<polygon fill="white" stroke="black" points="132.5,-112.5 132.5,-131.5 175.5,-131.5 175.5,-112.5 132.5,-112.5"/>
<text text-anchor="middle" x="154" y="-119.5" font-family="Helvetica,sans-Serif" font-size="10.00">io.cpp</text>
</a>
</g>
</g>
<!-- Node9&#45;&gt;Node26 -->
<g id="edge27" class="edge">
<title>Node9&#45;&gt;Node26</title>
<path fill="none" stroke="midnightblue" d="M336.68,-168.85C298.72,-160.2 237.49,-145.89 185,-132 181.97,-131.2 178.78,-130.31 175.64,-129.43"/>
<polygon fill="midnightblue" stroke="midnightblue" points="336.22,-172.33 346.75,-171.13 337.77,-165.5 336.22,-172.33"/>
</g>
<!-- Node27 -->
<g id="node27" class="node">
<title>Node27</title>
<g id="a_node27"><a xlink:href="../../db/d45/exportopenscadtool_8h.html" target="_top" xlink:title="Tool for exporting a wired mesh to the openscad format.">
<polygon fill="white" stroke="black" points="268,-112.5 268,-131.5 378,-131.5 378,-112.5 268,-112.5"/>
<text text-anchor="middle" x="323" y="-119.5" font-family="Helvetica,sans-Serif" font-size="10.00">exportopenscadtool.h</text>
</a>
</g>
</g>
<!-- Node9&#45;&gt;Node27 -->
<g id="edge28" class="edge">
<title>Node9&#45;&gt;Node27</title>
<path fill="none" stroke="midnightblue" d="M357.92,-160.72C349.11,-151.2 338.33,-139.56 331.1,-131.75"/>
<polygon fill="midnightblue" stroke="midnightblue" points="355.38,-163.12 364.74,-168.08 360.52,-158.37 355.38,-163.12"/>
</g>
<!-- Node29 -->
<g id="node29" class="node">
<title>Node29</title>
<g id="a_node29"><a xlink:href="../../db/dcb/exportstltool_8h.html" target="_top" xlink:title="Tool for exporting a wired mesh to the stl file format.">
<polygon fill="white" stroke="black" points="434,-112.5 434,-131.5 512,-131.5 512,-112.5 434,-112.5"/>
<text text-anchor="middle" x="473" y="-119.5" font-family="Helvetica,sans-Serif" font-size="10.00">exportstltool.h</text>
</a>
</g>
</g>
<!-- Node9&#45;&gt;Node29 -->
<g id="edge31" class="edge">
<title>Node9&#45;&gt;Node29</title>
<path fill="none" stroke="midnightblue" d="M398.09,-163.45C416.55,-153.48 441.1,-140.23 456.97,-131.65"/>
<polygon fill="midnightblue" stroke="midnightblue" points="396.2,-160.49 389.07,-168.32 399.53,-166.65 396.2,-160.49"/>
</g>
<!-- Node11 -->
<g id="node11" class="node">
<title>Node11</title>
<g id="a_node11"><a xlink:href="../../d8/dd9/mainwindow_8cpp.html" target="_top" xlink:title=" ">
<polygon fill="white" stroke="black" points="327.5,-0.5 327.5,-19.5 416.5,-19.5 416.5,-0.5 327.5,-0.5"/>
<text text-anchor="middle" x="372" y="-7.5" font-family="Helvetica,sans-Serif" font-size="10.00">mainwindow.cpp</text>
</a>
</g>
</g>
<!-- Node10&#45;&gt;Node11 -->
<g id="edge10" class="edge">
<title>Node10&#45;&gt;Node11</title>
<path fill="none" stroke="midnightblue" d="M402.95,-48.14C395.11,-38.74 385.67,-27.4 379.29,-19.75"/>
<polygon fill="midnightblue" stroke="midnightblue" points="400.48,-50.64 409.57,-56.08 405.86,-46.16 400.48,-50.64"/>
</g>
<!-- Node12 -->
<g id="node12" class="node">
<title>Node12</title>
<g id="a_node12"><a xlink:href="../../df/d0a/main_8cpp.html" target="_top" xlink:title=" ">
<polygon fill="white" stroke="black" points="434,-0.5 434,-19.5 490,-19.5 490,-0.5 434,-0.5"/>
<text text-anchor="middle" x="462" y="-7.5" font-family="Helvetica,sans-Serif" font-size="10.00">main.cpp</text>
</a>
</g>
</g>
<!-- Node10&#45;&gt;Node12 -->
<g id="edge11" class="edge">
<title>Node10&#45;&gt;Node12</title>
<path fill="none" stroke="midnightblue" d="M431.05,-48.14C438.89,-38.74 448.33,-27.4 454.71,-19.75"/>
<polygon fill="midnightblue" stroke="midnightblue" points="428.14,-46.16 424.43,-56.08 433.52,-50.64 428.14,-46.16"/>
</g>
<!-- Node14 -->
<g id="node14" class="node">
<title>Node14</title>
<g id="a_node14"><a xlink:href="../../d0/d89/march_intersections_8cpp.html" target="_top" xlink:title=" ">
<polygon fill="white" stroke="black" points="581.5,-56.5 581.5,-75.5 700.5,-75.5 700.5,-56.5 581.5,-56.5"/>
<text text-anchor="middle" x="641" y="-63.5" font-family="Helvetica,sans-Serif" font-size="10.00">marchIntersections.cpp</text>
</a>
</g>
</g>
<!-- Node13&#45;&gt;Node14 -->
<g id="edge13" class="edge">
<title>Node13&#45;&gt;Node14</title>
<path fill="none" stroke="midnightblue" d="M600.62,-105.25C610.73,-95.67 623.28,-83.79 631.68,-75.83"/>
<polygon fill="midnightblue" stroke="midnightblue" points="598.01,-102.91 593.16,-112.32 602.82,-107.99 598.01,-102.91"/>
</g>
<!-- Node15&#45;&gt;Node9 -->
<g id="edge17" class="edge">
<title>Node15&#45;&gt;Node9</title>
<path fill="none" stroke="midnightblue" d="M876.01,-133.6C693.41,-170.26 473.81,-175.95 399.1,-176.84"/>
<polygon fill="midnightblue" stroke="midnightblue" points="876.95,-136.98 886.05,-131.54 875.55,-130.12 876.95,-136.98"/>
</g>
<!-- Node16 -->
<g id="node16" class="node">
<title>Node16</title>
<g id="a_node16"><a xlink:href="../../df/dc9/detect_intersections_8h.html" target="_top" xlink:title=" ">
<polygon fill="white" stroke="black" points="736,-56.5 736,-75.5 844,-75.5 844,-56.5 736,-56.5"/>
<text text-anchor="middle" x="790" y="-63.5" font-family="Helvetica,sans-Serif" font-size="10.00">detectIntersections.h</text>
</a>
</g>
</g>
<!-- Node15&#45;&gt;Node16 -->
<g id="edge15" class="edge">
<title>Node15&#45;&gt;Node16</title>
<path fill="none" stroke="midnightblue" d="M874.75,-107.86C853.98,-97.85 825.98,-84.35 807.95,-75.65"/>
<polygon fill="midnightblue" stroke="midnightblue" points="873.48,-111.13 884.01,-112.32 876.52,-104.83 873.48,-111.13"/>
</g>
<!-- Node18 -->
<g id="node18" class="node">
<title>Node18</title>
<g id="a_node18"><a xlink:href="../../d0/db9/hole_filling_8cpp.html" target="_top" xlink:title=" ">
<polygon fill="white" stroke="black" points="862.5,-56.5 862.5,-75.5 941.5,-75.5 941.5,-56.5 862.5,-56.5"/>
<text text-anchor="middle" x="902" y="-63.5" font-family="Helvetica,sans-Serif" font-size="10.00">holeFilling.cpp</text>
</a>
</g>
</g>
<!-- Node15&#45;&gt;Node18 -->
<g id="edge18" class="edge">
<title>Node15&#45;&gt;Node18</title>
<path fill="none" stroke="midnightblue" d="M902,-101.8C902,-92.91 902,-82.78 902,-75.75"/>
<polygon fill="midnightblue" stroke="midnightblue" points="898.5,-102.08 902,-112.08 905.5,-102.08 898.5,-102.08"/>
</g>
<!-- Node19 -->
<g id="node19" class="node">
<title>Node19</title>
<g id="a_node19"><a xlink:href="../../dd/da9/tin_8cpp.html" target="_top" xlink:title=" ">
<polygon fill="white" stroke="black" points="960,-56.5 960,-75.5 1006,-75.5 1006,-56.5 960,-56.5"/>
<text text-anchor="middle" x="983" y="-63.5" font-family="Helvetica,sans-Serif" font-size="10.00">tin.cpp</text>
</a>
</g>
</g>
<!-- Node15&#45;&gt;Node19 -->
<g id="edge19" class="edge">
<title>Node15&#45;&gt;Node19</title>
<path fill="none" stroke="midnightblue" d="M923.57,-106.62C938.36,-96.76 957.51,-83.99 970.02,-75.65"/>
<polygon fill="midnightblue" stroke="midnightblue" points="921.39,-103.86 915.01,-112.32 925.28,-109.69 921.39,-103.86"/>
</g>
<!-- Node17 -->
<g id="node17" class="node">
<title>Node17</title>
<g id="a_node17"><a xlink:href="../../d8/dd7/detect_intersections_8cpp.html" target="_top" xlink:title=" ">
<polygon fill="white" stroke="black" points="730.5,-0.5 730.5,-19.5 849.5,-19.5 849.5,-0.5 730.5,-0.5"/>
<text text-anchor="middle" x="790" y="-7.5" font-family="Helvetica,sans-Serif" font-size="10.00">detectIntersections.cpp</text>
</a>
</g>
</g>
<!-- Node16&#45;&gt;Node17 -->
<g id="edge16" class="edge">
<title>Node16&#45;&gt;Node17</title>
<path fill="none" stroke="midnightblue" d="M790,-45.8C790,-36.91 790,-26.78 790,-19.75"/>
<polygon fill="midnightblue" stroke="midnightblue" points="786.5,-46.08 790,-56.08 793.5,-46.08 786.5,-46.08"/>
</g>
<!-- Node20&#45;&gt;Node9 -->
<g id="edge21" class="edge">
<title>Node20&#45;&gt;Node9</title>
<path fill="none" stroke="midnightblue" d="M259.85,-134.52C289.92,-144.68 330.55,-159.28 354.16,-168.44"/>
<polygon fill="midnightblue" stroke="midnightblue" points="260.69,-131.11 250.09,-131.25 258.46,-137.74 260.69,-131.11"/>
</g>
<!-- Node21 -->
<g id="node21" class="node">
<title>Node21</title>
<g id="a_node21"><a xlink:href="../../d3/df4/edge_8cpp.html" target="_top" xlink:title=" ">
<polygon fill="white" stroke="black" points="0,-56.5 0,-75.5 56,-75.5 56,-56.5 0,-56.5"/>
<text text-anchor="middle" x="28" y="-63.5" font-family="Helvetica,sans-Serif" font-size="10.00">edge.cpp</text>
</a>
</g>
</g>
<!-- Node20&#45;&gt;Node21 -->
<g id="edge22" class="edge">
<title>Node20&#45;&gt;Node21</title>
<path fill="none" stroke="midnightblue" d="M183.74,-110.35C146.22,-99.91 89.88,-84.22 56.24,-74.86"/>
<polygon fill="midnightblue" stroke="midnightblue" points="183.22,-113.84 193.79,-113.15 185.1,-107.09 183.22,-113.84"/>
</g>
<!-- Node22 -->
<g id="node22" class="node">
<title>Node22</title>
<g id="a_node22"><a xlink:href="../../d6/d4c/triangle_8cpp.html" target="_top" xlink:title=" ">
<polygon fill="white" stroke="black" points="154.5,-56.5 154.5,-75.5 221.5,-75.5 221.5,-56.5 154.5,-56.5"/>
<text text-anchor="middle" x="188" y="-63.5" font-family="Helvetica,sans-Serif" font-size="10.00">triangle.cpp</text>
</a>
</g>
</g>
<!-- Node20&#45;&gt;Node22 -->
<g id="edge23" class="edge">
<title>Node20&#45;&gt;Node22</title>
<path fill="none" stroke="midnightblue" d="M211.02,-103.57C205.17,-94.27 198.23,-83.25 193.51,-75.75"/>
<polygon fill="midnightblue" stroke="midnightblue" points="208.1,-105.49 216.39,-112.08 214.02,-101.76 208.1,-105.49"/>
</g>
<!-- Node23 -->
<g id="node23" class="node">
<title>Node23</title>
<g id="a_node23"><a xlink:href="../../d0/d3f/vertex_8cpp.html" target="_top" xlink:title=" ">
<polygon fill="white" stroke="black" points="74,-56.5 74,-75.5 136,-75.5 136,-56.5 74,-56.5"/>
<text text-anchor="middle" x="105" y="-63.5" font-family="Helvetica,sans-Serif" font-size="10.00">vertex.cpp</text>
</a>
</g>
</g>
<!-- Node20&#45;&gt;Node23 -->
<g id="edge24" class="edge">
<title>Node20&#45;&gt;Node23</title>
<path fill="none" stroke="midnightblue" d="M194.34,-108.23C172.45,-98.13 142.5,-84.31 123.45,-75.52"/>
<polygon fill="midnightblue" stroke="midnightblue" points="192.91,-111.43 203.46,-112.44 195.85,-105.08 192.91,-111.43"/>
</g>
<!-- Node27&#45;&gt;Node10 -->
<g id="edge29" class="edge">
<title>Node27&#45;&gt;Node10</title>
<path fill="none" stroke="midnightblue" d="M347.06,-107.18C364.36,-97.24 387.15,-84.15 401.93,-75.65"/>
<polygon fill="midnightblue" stroke="midnightblue" points="345.03,-104.31 338.1,-112.32 348.52,-110.38 345.03,-104.31"/>
</g>
<!-- Node28 -->
<g id="node28" class="node">
<title>Node28</title>
<g id="a_node28"><a xlink:href="../../d8/d4e/exportopenscadtool_8cpp.html" target="_top" xlink:title=" ">
<polygon fill="white" stroke="black" points="240,-56.5 240,-75.5 360,-75.5 360,-56.5 240,-56.5"/>
<text text-anchor="middle" x="300" y="-63.5" font-family="Helvetica,sans-Serif" font-size="10.00">exportopenscadtool.cpp</text>
</a>
</g>
</g>
<!-- Node27&#45;&gt;Node28 -->
<g id="edge30" class="edge">
<title>Node27&#45;&gt;Node28</title>
<path fill="none" stroke="midnightblue" d="M315.2,-102.69C311.32,-93.59 306.82,-83.01 303.73,-75.75"/>
<polygon fill="midnightblue" stroke="midnightblue" points="312.06,-104.25 319.2,-112.08 318.5,-101.51 312.06,-104.25"/>
</g>
<!-- Node29&#45;&gt;Node10 -->
<g id="edge32" class="edge">
<title>Node29&#45;&gt;Node10</title>
<path fill="none" stroke="midnightblue" d="M456.67,-105.25C446.74,-95.67 434.41,-83.79 426.16,-75.83"/>
<polygon fill="midnightblue" stroke="midnightblue" points="454.37,-107.9 464,-112.32 459.23,-102.86 454.37,-107.9"/>
</g>
<!-- Node30 -->
<g id="node30" class="node">
<title>Node30</title>
<g id="a_node30"><a xlink:href="../../de/d8b/exportstltool_8cpp.html" target="_top" xlink:title=" ">
<polygon fill="white" stroke="black" points="474.5,-56.5 474.5,-75.5 563.5,-75.5 563.5,-56.5 474.5,-56.5"/>
<text text-anchor="middle" x="519" y="-63.5" font-family="Helvetica,sans-Serif" font-size="10.00">exportstltool.cpp</text>
</a>
</g>
</g>
<!-- Node29&#45;&gt;Node30 -->
<g id="edge33" class="edge">
<title>Node29&#45;&gt;Node30</title>
<path fill="none" stroke="midnightblue" d="M487.11,-104.43C495.18,-94.97 504.96,-83.48 511.55,-75.75"/>
<polygon fill="midnightblue" stroke="midnightblue" points="484.42,-102.2 480.6,-112.08 489.75,-106.74 484.42,-102.2"/>
</g>
<!-- Node32&#45;&gt;Node9 -->
<g id="edge40" class="edge">
<title>Node32&#45;&gt;Node9</title>
<path fill="none" stroke="midnightblue" d="M204.91,-275.3C245.05,-252.3 324.84,-206.59 358,-187.59"/>
<polygon fill="midnightblue" stroke="midnightblue" points="203,-272.36 196.07,-280.37 206.48,-278.43 203,-272.36"/>
</g>
<!-- Node32&#45;&gt;Node23 -->
<g id="edge41" class="edge">
<title>Node32&#45;&gt;Node23</title>
<path fill="none" stroke="midnightblue" d="M173.63,-270.59C162.08,-241.44 139.37,-182.76 123,-132 116.6,-112.16 110.4,-88.49 107.21,-75.9"/>
<polygon fill="midnightblue" stroke="midnightblue" points="170.52,-272.24 177.47,-280.24 177.02,-269.65 170.52,-272.24"/>
</g>
<!-- Node32&#45;&gt;Node33 -->
<g id="edge36" class="edge">
<title>Node32&#45;&gt;Node33</title>
<path fill="none" stroke="midnightblue" d="M151.38,-276.5C127.38,-266.38 94.22,-252.39 73.19,-243.52"/>
<polygon fill="midnightblue" stroke="midnightblue" points="150.14,-279.78 160.72,-280.44 152.86,-273.33 150.14,-279.78"/>
</g>
<!-- Node33&#45;&gt;Node9 -->
<g id="edge37" class="edge">
<title>Node33&#45;&gt;Node9</title>
<path fill="none" stroke="midnightblue" d="M85.93,-227.44C149.63,-216.69 288.58,-193.25 346.66,-183.44"/>
<polygon fill="midnightblue" stroke="midnightblue" points="85.29,-224 76.01,-229.12 86.46,-230.9 85.29,-224"/>
</g>
<!-- Node33&#45;&gt;Node21 -->
<g id="edge38" class="edge">
<title>Node33&#45;&gt;Node21</title>
<path fill="none" stroke="midnightblue" d="M50.13,-213.93C44.7,-177.92 33.16,-101.23 29.29,-75.57"/>
<polygon fill="midnightblue" stroke="midnightblue" points="46.71,-214.71 51.66,-224.08 53.63,-213.67 46.71,-214.71"/>
</g>
<!-- Node33&#45;&gt;Node23 -->
<g id="edge39" class="edge">
<title>Node33&#45;&gt;Node23</title>
<path fill="none" stroke="midnightblue" d="M58.43,-214.72C65.53,-190.99 78.4,-148.31 90,-112 94.06,-99.29 98.99,-84.65 102.06,-75.61"/>
<polygon fill="midnightblue" stroke="midnightblue" points="55.03,-213.89 55.53,-224.47 61.74,-215.89 55.03,-213.89"/>
</g>
<!-- Node35&#45;&gt;Node8 -->
<g id="edge47" class="edge">
<title>Node35&#45;&gt;Node8</title>
<path fill="none" stroke="midnightblue" d="M384.67,-382.5C381.24,-369.23 375.88,-351.11 369,-336 362.9,-322.6 353.48,-308.37 347.28,-299.59"/>
<polygon fill="midnightblue" stroke="midnightblue" points="381.3,-383.45 387.09,-392.33 388.1,-381.78 381.3,-383.45"/>
</g>
<!-- Node36 -->
<g id="node36" class="node">
<title>Node36</title>
<g id="a_node36"><a xlink:href="../../d5/d84/matrix_8cpp.html" target="_top" xlink:title=" ">
<polygon fill="white" stroke="black" points="417,-336.5 417,-355.5 479,-355.5 479,-336.5 417,-336.5"/>
<text text-anchor="middle" x="448" y="-343.5" font-family="Helvetica,sans-Serif" font-size="10.00">matrix.cpp</text>
</a>
</g>
</g>
<!-- Node35&#45;&gt;Node36 -->
<g id="edge48" class="edge">
<title>Node35&#45;&gt;Node36</title>
<path fill="none" stroke="midnightblue" d="M405.89,-385.54C416.41,-375.91 429.57,-363.87 438.35,-355.83"/>
<polygon fill="midnightblue" stroke="midnightblue" points="403.49,-382.99 398.48,-392.32 408.22,-388.15 403.49,-382.99"/>
</g>
</g>
</svg>
