<?xml version="1.0" encoding="UTF-8" standalone="no"?>
<!DOCTYPE svg PUBLIC "-//W3C//DTD SVG 1.1//EN"
 "http://www.w3.org/Graphics/SVG/1.1/DTD/svg11.dtd">
<!-- Generated by graphviz version 2.44.1 (0)
 -->
<!-- Title: matrix.cpp Pages: 1 -->
<svg width="312pt" height="207pt"
 viewBox="0.00 0.00 311.50 207.00" xmlns="http://www.w3.org/2000/svg" xmlns:xlink="http://www.w3.org/1999/xlink">
<g id="graph0" class="graph" transform="scale(1 1) rotate(0) translate(4 203)">
<title>matrix.cpp</title>
<polygon fill="white" stroke="transparent" points="-4,4 -4,-203 307.5,-203 307.5,4 -4,4"/>
<!-- Node1 -->
<g id="node1" class="node">
<title>Node1</title>
<g id="a_node1"><a xlink:title=" ">
<polygon fill="#bfbfbf" stroke="black" points="57.5,-179.5 57.5,-198.5 119.5,-198.5 119.5,-179.5 57.5,-179.5"/>
<text text-anchor="middle" x="88.5" y="-186.5" font-family="Helvetica,sans-Serif" font-size="10.00">matrix.cpp</text>
</a>
</g>
</g>
<!-- Node2 -->
<g id="node2" class="node">
<title>Node2</title>
<g id="a_node2"><a xlink:title=" ">
<polygon fill="white" stroke="#bfbfbf" points="0,-0.5 0,-19.5 47,-19.5 47,-0.5 0,-0.5"/>
<text text-anchor="middle" x="23.5" y="-7.5" font-family="Helvetica,sans-Serif" font-size="10.00">math.h</text>
</a>
</g>
</g>
<!-- Node1&#45;&gt;Node2 -->
<g id="edge1" class="edge">
<title>Node1&#45;&gt;Node2</title>
<path fill="none" stroke="midnightblue" d="M85.36,-179.46C75.39,-152.31 44.25,-67.51 30.34,-29.62"/>
<polygon fill="midnightblue" stroke="midnightblue" points="33.49,-28.05 26.76,-19.87 26.92,-30.46 33.49,-28.05"/>
</g>
<!-- Node3 -->
<g id="node3" class="node">
<title>Node3</title>
<g id="a_node3"><a xlink:href="../../dd/df4/matrix_8h.html" target="_top" xlink:title=" ">
<polygon fill="white" stroke="black" points="97,-112.5 97,-142.5 210,-142.5 210,-112.5 97,-112.5"/>
<text text-anchor="start" x="105" y="-130.5" font-family="Helvetica,sans-Serif" font-size="10.00">helpers/include/Kernel</text>
<text text-anchor="middle" x="153.5" y="-119.5" font-family="Helvetica,sans-Serif" font-size="10.00">/matrix.h</text>
</a>
</g>
</g>
<!-- Node1&#45;&gt;Node3 -->
<g id="edge2" class="edge">
<title>Node1&#45;&gt;Node3</title>
<path fill="none" stroke="midnightblue" d="M97.81,-179.48C106.37,-171.64 119.4,-159.71 130.71,-149.37"/>
<polygon fill="midnightblue" stroke="midnightblue" points="133.17,-151.86 138.18,-142.52 128.44,-146.69 133.17,-151.86"/>
</g>
<!-- Node4 -->
<g id="node4" class="node">
<title>Node4</title>
<g id="a_node4"><a xlink:title=" ">
<polygon fill="white" stroke="#bfbfbf" points="257.5,-0.5 257.5,-19.5 303.5,-19.5 303.5,-0.5 257.5,-0.5"/>
<text text-anchor="middle" x="280.5" y="-7.5" font-family="Helvetica,sans-Serif" font-size="10.00">stdio.h</text>
</a>
</g>
</g>
<!-- Node3&#45;&gt;Node4 -->
<g id="edge3" class="edge">
<title>Node3&#45;&gt;Node4</title>
<path fill="none" stroke="midnightblue" d="M169.07,-112.34C193,-90.58 238.61,-49.09 263.42,-26.54"/>
<polygon fill="midnightblue" stroke="midnightblue" points="265.92,-28.99 270.97,-19.67 261.21,-23.81 265.92,-28.99"/>
</g>
<!-- Node5 -->
<g id="node5" class="node">
<title>Node5</title>
<g id="a_node5"><a xlink:title=" ">
<polygon fill="white" stroke="#bfbfbf" points="65.5,-0.5 65.5,-19.5 109.5,-19.5 109.5,-0.5 65.5,-0.5"/>
<text text-anchor="middle" x="87.5" y="-7.5" font-family="Helvetica,sans-Serif" font-size="10.00">float.h</text>
</a>
</g>
</g>
<!-- Node3&#45;&gt;Node5 -->
<g id="edge4" class="edge">
<title>Node3&#45;&gt;Node5</title>
<path fill="none" stroke="midnightblue" d="M137.48,-112.43C127.61,-102.99 115.38,-89.8 107.5,-76 99.27,-61.58 94.05,-43.39 91.01,-29.92"/>
<polygon fill="midnightblue" stroke="midnightblue" points="94.39,-29 88.96,-19.9 87.54,-30.4 94.39,-29"/>
</g>
<!-- Node6 -->
<g id="node6" class="node">
<title>Node6</title>
<g id="a_node6"><a xlink:href="../../dd/da0/coordinates_8h.html" target="_top" xlink:title=" ">
<polygon fill="white" stroke="black" points="116,-56.5 116,-75.5 191,-75.5 191,-56.5 116,-56.5"/>
<text text-anchor="middle" x="153.5" y="-63.5" font-family="Helvetica,sans-Serif" font-size="10.00">coordinates.h</text>
</a>
</g>
</g>
<!-- Node3&#45;&gt;Node6 -->
<g id="edge5" class="edge">
<title>Node3&#45;&gt;Node6</title>
<path fill="none" stroke="midnightblue" d="M153.5,-112.4C153.5,-104.47 153.5,-94.46 153.5,-85.86"/>
<polygon fill="midnightblue" stroke="midnightblue" points="157,-85.66 153.5,-75.66 150,-85.66 157,-85.66"/>
</g>
<!-- Node9 -->
<g id="node9" class="node">
<title>Node9</title>
<g id="a_node9"><a xlink:href="../../da/d23/list_8h.html" target="_top" xlink:title=" ">
<polygon fill="white" stroke="black" points="257.5,-56.5 257.5,-75.5 295.5,-75.5 295.5,-56.5 257.5,-56.5"/>
<text text-anchor="middle" x="276.5" y="-63.5" font-family="Helvetica,sans-Serif" font-size="10.00">list.h</text>
</a>
</g>
</g>
<!-- Node3&#45;&gt;Node9 -->
<g id="edge11" class="edge">
<title>Node3&#45;&gt;Node9</title>
<path fill="none" stroke="midnightblue" d="M182.65,-112.4C202.92,-102.59 229.74,-89.62 249.52,-80.05"/>
<polygon fill="midnightblue" stroke="midnightblue" points="251.12,-83.16 258.6,-75.66 248.08,-76.86 251.12,-83.16"/>
</g>
<!-- Node6&#45;&gt;Node2 -->
<g id="edge7" class="edge">
<title>Node6&#45;&gt;Node2</title>
<path fill="none" stroke="midnightblue" d="M132.9,-56.44C111.51,-47.56 77.82,-33.56 53.48,-23.45"/>
<polygon fill="midnightblue" stroke="midnightblue" points="54.58,-20.12 44,-19.52 51.89,-26.58 54.58,-20.12"/>
</g>
<!-- Node6&#45;&gt;Node4 -->
<g id="edge6" class="edge">
<title>Node6&#45;&gt;Node4</title>
<path fill="none" stroke="midnightblue" d="M173.62,-56.44C194.52,-47.56 227.43,-33.56 251.22,-23.45"/>
<polygon fill="midnightblue" stroke="midnightblue" points="252.64,-26.65 260.47,-19.52 249.9,-20.21 252.64,-26.65"/>
</g>
<!-- Node6&#45;&gt;Node5 -->
<g id="edge9" class="edge">
<title>Node6&#45;&gt;Node5</title>
<path fill="none" stroke="midnightblue" d="M142.9,-56.32C133.04,-48.26 118.15,-36.08 106.28,-26.37"/>
<polygon fill="midnightblue" stroke="midnightblue" points="108.25,-23.46 98.3,-19.83 103.82,-28.88 108.25,-23.46"/>
</g>
<!-- Node7 -->
<g id="node7" class="node">
<title>Node7</title>
<g id="a_node7"><a xlink:title=" ">
<polygon fill="white" stroke="#bfbfbf" points="191.5,-0.5 191.5,-19.5 239.5,-19.5 239.5,-0.5 191.5,-0.5"/>
<text text-anchor="middle" x="215.5" y="-7.5" font-family="Helvetica,sans-Serif" font-size="10.00">limits.h</text>
</a>
</g>
</g>
<!-- Node6&#45;&gt;Node7 -->
<g id="edge8" class="edge">
<title>Node6&#45;&gt;Node7</title>
<path fill="none" stroke="midnightblue" d="M163.46,-56.32C172.63,-48.34 186.44,-36.31 197.53,-26.65"/>
<polygon fill="midnightblue" stroke="midnightblue" points="200.12,-29.04 205.36,-19.83 195.52,-23.76 200.12,-29.04"/>
</g>
<!-- Node8 -->
<g id="node8" class="node">
<title>Node8</title>
<g id="a_node8"><a xlink:title=" ">
<polygon fill="white" stroke="#bfbfbf" points="127.5,-0.5 127.5,-19.5 173.5,-19.5 173.5,-0.5 127.5,-0.5"/>
<text text-anchor="middle" x="150.5" y="-7.5" font-family="Helvetica,sans-Serif" font-size="10.00">cstdint</text>
</a>
</g>
</g>
<!-- Node6&#45;&gt;Node8 -->
<g id="edge10" class="edge">
<title>Node6&#45;&gt;Node8</title>
<path fill="none" stroke="midnightblue" d="M153,-56.08C152.61,-49.01 152.05,-38.86 151.55,-29.99"/>
<polygon fill="midnightblue" stroke="midnightblue" points="155.04,-29.54 150.99,-19.75 148.05,-29.93 155.04,-29.54"/>
</g>
<!-- Node9&#45;&gt;Node4 -->
<g id="edge12" class="edge">
<title>Node9&#45;&gt;Node4</title>
<path fill="none" stroke="midnightblue" d="M277.16,-56.08C277.68,-49.01 278.44,-38.86 279.09,-29.99"/>
<polygon fill="midnightblue" stroke="midnightblue" points="282.6,-29.98 279.85,-19.75 275.62,-29.47 282.6,-29.98"/>
</g>
</g>
</svg>
