<?xml version="1.0" encoding="UTF-8" standalone="no"?>
<!DOCTYPE svg PUBLIC "-//W3C//DTD SVG 1.1//EN"
 "http://www.w3.org/Graphics/SVG/1.1/DTD/svg11.dtd">
<!-- Generated by graphviz version 2.44.0 (0)
 -->
<!-- Title: vtksurfacebase.cxx Pages: 1 -->
<svg width="998pt" height="140pt"
 viewBox="0.00 0.00 997.50 140.00" xmlns="http://www.w3.org/2000/svg" xmlns:xlink="http://www.w3.org/1999/xlink">
<g id="graph0" class="graph" transform="scale(1 1) rotate(0) translate(4 136)">
<title>vtksurfacebase.cxx</title>
<polygon fill="white" stroke="transparent" points="-4,4 -4,-136 993.5,-136 993.5,4 -4,4"/>
<!-- Node1 -->
<g id="node1" class="node">
<title>Node1</title>
<g id="a_node1"><a xlink:title=" ">
<polygon fill="#bfbfbf" stroke="black" points="255.5,-112.5 255.5,-131.5 357.5,-131.5 357.5,-112.5 255.5,-112.5"/>
<text text-anchor="middle" x="306.5" y="-119.5" font-family="Helvetica,sans-Serif" font-size="10.00">vtksurfacebase.cxx</text>
</a>
</g>
</g>
<!-- Node2 -->
<g id="node2" class="node">
<title>Node2</title>
<g id="a_node2"><a xlink:title=" ">
<polygon fill="white" stroke="#bfbfbf" points="0,-56.5 0,-75.5 41,-75.5 41,-56.5 0,-56.5"/>
<text text-anchor="middle" x="20.5" y="-63.5" font-family="Helvetica,sans-Serif" font-size="10.00">stack</text>
</a>
</g>
</g>
<!-- Node1&#45;&gt;Node2 -->
<g id="edge1" class="edge">
<title>Node1&#45;&gt;Node2</title>
<path fill="none" stroke="midnightblue" d="M255.14,-113.79C205.32,-106.38 127.47,-93.74 50.89,-75.84"/>
<polygon fill="midnightblue" stroke="midnightblue" points="51.61,-72.42 41.07,-73.52 49.99,-79.23 51.61,-72.42"/>
</g>
<!-- Node3 -->
<g id="node3" class="node">
<title>Node3</title>
<g id="a_node3"><a xlink:title=" ">
<polygon fill="white" stroke="#bfbfbf" points="59.5,-56.5 59.5,-75.5 111.5,-75.5 111.5,-56.5 59.5,-56.5"/>
<text text-anchor="middle" x="85.5" y="-63.5" font-family="Helvetica,sans-Serif" font-size="10.00">assert.h</text>
</a>
</g>
</g>
<!-- Node1&#45;&gt;Node3 -->
<g id="edge2" class="edge">
<title>Node1&#45;&gt;Node3</title>
<path fill="none" stroke="midnightblue" d="M270.46,-112.44C235.01,-103.99 179.1,-90.56 121.81,-76.3"/>
<polygon fill="midnightblue" stroke="midnightblue" points="122.41,-72.85 111.86,-73.82 120.72,-79.64 122.41,-72.85"/>
</g>
<!-- Node4 -->
<g id="node4" class="node">
<title>Node4</title>
<g id="a_node4"><a xlink:title=" ">
<polygon fill="white" stroke="#bfbfbf" points="130,-56.5 130,-75.5 229,-75.5 229,-56.5 130,-56.5"/>
<text text-anchor="middle" x="179.5" y="-63.5" font-family="Helvetica,sans-Serif" font-size="10.00">vtkObjectFactory.h</text>
</a>
</g>
</g>
<!-- Node1&#45;&gt;Node4 -->
<g id="edge3" class="edge">
<title>Node1&#45;&gt;Node4</title>
<path fill="none" stroke="midnightblue" d="M286.38,-112.44C265.48,-103.56 232.57,-89.56 208.78,-79.45"/>
<polygon fill="midnightblue" stroke="midnightblue" points="210.1,-76.21 199.53,-75.52 207.36,-82.65 210.1,-76.21"/>
</g>
<!-- Node5 -->
<g id="node5" class="node">
<title>Node5</title>
<g id="a_node5"><a xlink:title=" ">
<polygon fill="white" stroke="#bfbfbf" points="247.5,-56.5 247.5,-75.5 307.5,-75.5 307.5,-56.5 247.5,-56.5"/>
<text text-anchor="middle" x="277.5" y="-63.5" font-family="Helvetica,sans-Serif" font-size="10.00">vtkMath.h</text>
</a>
</g>
</g>
<!-- Node1&#45;&gt;Node5 -->
<g id="edge4" class="edge">
<title>Node1&#45;&gt;Node5</title>
<path fill="none" stroke="midnightblue" d="M301.71,-112.08C297.74,-104.69 291.97,-93.95 287.07,-84.81"/>
<polygon fill="midnightblue" stroke="midnightblue" points="290.01,-82.91 282.2,-75.75 283.85,-86.22 290.01,-82.91"/>
</g>
<!-- Node6 -->
<g id="node6" class="node">
<title>Node6</title>
<g id="a_node6"><a xlink:title=" ">
<polygon fill="white" stroke="#bfbfbf" points="164.5,-0.5 164.5,-19.5 242.5,-19.5 242.5,-0.5 164.5,-0.5"/>
<text text-anchor="middle" x="203.5" y="-7.5" font-family="Helvetica,sans-Serif" font-size="10.00">vtkCellArray.h</text>
</a>
</g>
</g>
<!-- Node1&#45;&gt;Node6 -->
<g id="edge5" class="edge">
<title>Node1&#45;&gt;Node6</title>
<path fill="none" stroke="midnightblue" d="M311.45,-112.16C318.19,-98.8 328.16,-73.2 316.5,-56 308.07,-43.57 274.13,-31.06 245.62,-22.4"/>
<polygon fill="midnightblue" stroke="midnightblue" points="246.4,-18.98 235.82,-19.5 244.42,-25.69 246.4,-18.98"/>
</g>
<!-- Node7 -->
<g id="node7" class="node">
<title>Node7</title>
<g id="a_node7"><a xlink:title=" ">
<polygon fill="white" stroke="#bfbfbf" points="572,-56.5 572,-75.5 649,-75.5 649,-56.5 572,-56.5"/>
<text text-anchor="middle" x="610.5" y="-63.5" font-family="Helvetica,sans-Serif" font-size="10.00">vtkCellData.h</text>
</a>
</g>
</g>
<!-- Node1&#45;&gt;Node7 -->
<g id="edge6" class="edge">
<title>Node1&#45;&gt;Node7</title>
<path fill="none" stroke="midnightblue" d="M356.08,-112.46C405.56,-103.89 484.03,-90.2 562,-76.07"/>
<polygon fill="midnightblue" stroke="midnightblue" points="562.78,-79.49 571.99,-74.26 561.53,-72.6 562.78,-79.49"/>
</g>
<!-- Node8 -->
<g id="node8" class="node">
<title>Node8</title>
<g id="a_node8"><a xlink:title=" ">
<polygon fill="white" stroke="#bfbfbf" points="260.5,-0.5 260.5,-19.5 366.5,-19.5 366.5,-0.5 260.5,-0.5"/>
<text text-anchor="middle" x="313.5" y="-7.5" font-family="Helvetica,sans-Serif" font-size="10.00">vtkIdListCollection.h</text>
</a>
</g>
</g>
<!-- Node1&#45;&gt;Node8 -->
<g id="edge7" class="edge">
<title>Node1&#45;&gt;Node8</title>
<path fill="none" stroke="midnightblue" d="M319,-112.3C329.37,-104.25 343.39,-91.24 349.5,-76 356.5,-58.55 343.86,-39.9 331.67,-27.07"/>
<polygon fill="midnightblue" stroke="midnightblue" points="333.93,-24.38 324.33,-19.9 329.04,-29.39 333.93,-24.38"/>
</g>
<!-- Node9 -->
<g id="node9" class="node">
<title>Node9</title>
<g id="a_node9"><a xlink:href="../../d5/d92/vtksurfacebase_8h.html" target="_top" xlink:title=" ">
<polygon fill="white" stroke="black" points="461.5,-56.5 461.5,-75.5 553.5,-75.5 553.5,-56.5 461.5,-56.5"/>
<text text-anchor="middle" x="507.5" y="-63.5" font-family="Helvetica,sans-Serif" font-size="10.00">vtksurfacebase.h</text>
</a>
</g>
</g>
<!-- Node1&#45;&gt;Node9 -->
<g id="edge8" class="edge">
<title>Node1&#45;&gt;Node9</title>
<path fill="none" stroke="midnightblue" d="M338.35,-112.44C372.9,-103.16 428.18,-88.31 466.08,-78.13"/>
<polygon fill="midnightblue" stroke="midnightblue" points="467.05,-81.49 475.8,-75.52 465.23,-74.73 467.05,-81.49"/>
</g>
<!-- Node9&#45;&gt;Node6 -->
<g id="edge16" class="edge">
<title>Node9&#45;&gt;Node6</title>
<path fill="none" stroke="midnightblue" d="M461.22,-57.03C412.03,-48.52 331.69,-34.51 252.66,-20.19"/>
<polygon fill="midnightblue" stroke="midnightblue" points="252.99,-16.7 242.53,-18.36 251.74,-23.59 252.99,-16.7"/>
</g>
<!-- Node9&#45;&gt;Node8 -->
<g id="edge17" class="edge">
<title>Node9&#45;&gt;Node8</title>
<path fill="none" stroke="midnightblue" d="M476.76,-56.44C443.56,-47.2 390.51,-32.44 353.94,-22.26"/>
<polygon fill="midnightblue" stroke="midnightblue" points="354.67,-18.83 344.1,-19.52 352.79,-25.57 354.67,-18.83"/>
</g>
<!-- Node10 -->
<g id="node10" class="node">
<title>Node10</title>
<g id="a_node10"><a xlink:title=" ">
<polygon fill="white" stroke="#bfbfbf" points="486,-0.5 486,-19.5 529,-19.5 529,-0.5 486,-0.5"/>
<text text-anchor="middle" x="507.5" y="-7.5" font-family="Helvetica,sans-Serif" font-size="10.00">queue</text>
</a>
</g>
</g>
<!-- Node9&#45;&gt;Node10 -->
<g id="edge9" class="edge">
<title>Node9&#45;&gt;Node10</title>
<path fill="none" stroke="midnightblue" d="M507.5,-56.08C507.5,-49.01 507.5,-38.86 507.5,-29.99"/>
<polygon fill="midnightblue" stroke="midnightblue" points="511,-29.75 507.5,-19.75 504,-29.75 511,-29.75"/>
</g>
<!-- Node11 -->
<g id="node11" class="node">
<title>Node11</title>
<g id="a_node11"><a xlink:title=" ">
<polygon fill="white" stroke="#bfbfbf" points="547.5,-0.5 547.5,-19.5 619.5,-19.5 619.5,-0.5 547.5,-0.5"/>
<text text-anchor="middle" x="583.5" y="-7.5" font-family="Helvetica,sans-Serif" font-size="10.00">vtkIntArray.h</text>
</a>
</g>
</g>
<!-- Node9&#45;&gt;Node11 -->
<g id="edge10" class="edge">
<title>Node9&#45;&gt;Node11</title>
<path fill="none" stroke="midnightblue" d="M519.71,-56.32C531.28,-48.11 548.88,-35.6 562.66,-25.81"/>
<polygon fill="midnightblue" stroke="midnightblue" points="564.94,-28.48 571.07,-19.83 560.89,-22.77 564.94,-28.48"/>
</g>
<!-- Node12 -->
<g id="node12" class="node">
<title>Node12</title>
<g id="a_node12"><a xlink:title=" ">
<polygon fill="white" stroke="#bfbfbf" points="637.5,-0.5 637.5,-19.5 727.5,-19.5 727.5,-0.5 637.5,-0.5"/>
<text text-anchor="middle" x="682.5" y="-7.5" font-family="Helvetica,sans-Serif" font-size="10.00">vtkIdTypeArray.h</text>
</a>
</g>
</g>
<!-- Node9&#45;&gt;Node12 -->
<g id="edge11" class="edge">
<title>Node9&#45;&gt;Node12</title>
<path fill="none" stroke="midnightblue" d="M535.23,-56.44C564.93,-47.28 612.22,-32.69 645.17,-22.52"/>
<polygon fill="midnightblue" stroke="midnightblue" points="646.38,-25.81 654.9,-19.52 644.31,-19.12 646.38,-25.81"/>
</g>
<!-- Node13 -->
<g id="node13" class="node">
<title>Node13</title>
<g id="a_node13"><a xlink:title=" ">
<polygon fill="white" stroke="#bfbfbf" points="746,-0.5 746,-19.5 819,-19.5 819,-0.5 746,-0.5"/>
<text text-anchor="middle" x="782.5" y="-7.5" font-family="Helvetica,sans-Serif" font-size="10.00">vtkBitArray.h</text>
</a>
</g>
</g>
<!-- Node9&#45;&gt;Node13 -->
<g id="edge12" class="edge">
<title>Node9&#45;&gt;Node13</title>
<path fill="none" stroke="midnightblue" d="M551.07,-56.44C601.48,-46.55 684.14,-30.31 735.82,-20.17"/>
<polygon fill="midnightblue" stroke="midnightblue" points="736.59,-23.58 745.73,-18.22 735.24,-16.71 736.59,-23.58"/>
</g>
<!-- Node14 -->
<g id="node14" class="node">
<title>Node14</title>
<g id="a_node14"><a xlink:title=" ">
<polygon fill="white" stroke="#bfbfbf" points="837,-0.5 837,-19.5 916,-19.5 916,-0.5 837,-0.5"/>
<text text-anchor="middle" x="876.5" y="-7.5" font-family="Helvetica,sans-Serif" font-size="10.00">vtkPolyData.h</text>
</a>
</g>
</g>
<!-- Node9&#45;&gt;Node14 -->
<g id="edge13" class="edge">
<title>Node9&#45;&gt;Node14</title>
<path fill="none" stroke="midnightblue" d="M553.63,-57.49C556.97,-56.98 560.29,-56.48 563.5,-56 677.86,-39.05 709.45,-38.95 826.87,-20.2"/>
<polygon fill="midnightblue" stroke="midnightblue" points="827.66,-23.62 836.97,-18.57 826.55,-16.71 827.66,-23.62"/>
</g>
<!-- Node15 -->
<g id="node15" class="node">
<title>Node15</title>
<g id="a_node15"><a xlink:title=" ">
<polygon fill="white" stroke="#bfbfbf" points="933.5,-0.5 933.5,-19.5 989.5,-19.5 989.5,-0.5 933.5,-0.5"/>
<text text-anchor="middle" x="961.5" y="-7.5" font-family="Helvetica,sans-Serif" font-size="10.00">vtkCell.h</text>
</a>
</g>
</g>
<!-- Node9&#45;&gt;Node15 -->
<g id="edge14" class="edge">
<title>Node9&#45;&gt;Node15</title>
<path fill="none" stroke="midnightblue" d="M553.61,-57.36C556.96,-56.88 560.28,-56.42 563.5,-56 720.55,-35.59 764.42,-47.18 923.16,-20.21"/>
<polygon fill="midnightblue" stroke="midnightblue" points="924.02,-23.62 933.28,-18.47 922.84,-16.72 924.02,-23.62"/>
</g>
<!-- Node16 -->
<g id="node16" class="node">
<title>Node16</title>
<g id="a_node16"><a xlink:title=" ">
<polygon fill="white" stroke="#bfbfbf" points="385,-0.5 385,-19.5 468,-19.5 468,-0.5 385,-0.5"/>
<text text-anchor="middle" x="426.5" y="-7.5" font-family="Helvetica,sans-Serif" font-size="10.00">vtkCommand.h</text>
</a>
</g>
</g>
<!-- Node9&#45;&gt;Node16 -->
<g id="edge15" class="edge">
<title>Node9&#45;&gt;Node16</title>
<path fill="none" stroke="midnightblue" d="M494.49,-56.32C481.97,-47.98 462.82,-35.21 448.03,-25.35"/>
<polygon fill="midnightblue" stroke="midnightblue" points="449.74,-22.29 439.48,-19.65 445.86,-28.11 449.74,-22.29"/>
</g>
</g>
</svg>
