<?xml version="1.0" encoding="UTF-8" standalone="no"?>
<!DOCTYPE svg PUBLIC "-//W3C//DTD SVG 1.1//EN"
 "http://www.w3.org/Graphics/SVG/1.1/DTD/svg11.dtd">
<!-- Generated by graphviz version 2.44.0 (0)
 -->
<!-- Title: BruteForceOptimizer::optimize Pages: 1 -->
<svg width="710pt" height="344pt"
 viewBox="0.00 0.00 710.00 344.14" xmlns="http://www.w3.org/2000/svg" xmlns:xlink="http://www.w3.org/1999/xlink">
<g id="graph0" class="graph" transform="scale(1 1) rotate(0) translate(4 340.14)">
<title>BruteForceOptimizer::optimize</title>
<polygon fill="white" stroke="transparent" points="-4,4 -4,-340.14 706,-340.14 706,4 -4,4"/>
<!-- Node1 -->
<g id="node1" class="node">
<title>Node1</title>
<g id="a_node1"><a xlink:title=" ">
<polygon fill="#bfbfbf" stroke="black" points="0,-159 0,-189 107,-189 107,-159 0,-159"/>
<text text-anchor="start" x="8" y="-177" font-family="Helvetica,sans-Serif" font-size="10.00">BruteForceOptimizer</text>
<text text-anchor="middle" x="53.5" y="-166" font-family="Helvetica,sans-Serif" font-size="10.00">::optimize</text>
</a>
</g>
</g>
<!-- Node2 -->
<g id="node2" class="node">
<title>Node2</title>
<g id="a_node2"><a xlink:href="../../d9/d02/class_optimizer.html#a005ef2bdea59b2a3ac0fa22978add36a" target="_top" xlink:title="Add optimized connections to the touchpoint registry.">
<polygon fill="white" stroke="black" points="155.5,-278.5 155.5,-297.5 290.5,-297.5 290.5,-278.5 155.5,-278.5"/>
<text text-anchor="middle" x="223" y="-285.5" font-family="Helvetica,sans-Serif" font-size="10.00">Optimizer::addConnections</text>
</a>
</g>
</g>
<!-- Node1&#45;&gt;Node2 -->
<g id="edge1" class="edge">
<title>Node1&#45;&gt;Node2</title>
<path fill="none" stroke="midnightblue" d="M65.36,-189.02C80.55,-208.98 110.01,-244.03 143,-264 150.32,-268.43 158.51,-272.1 166.78,-275.12"/>
<polygon fill="midnightblue" stroke="midnightblue" points="165.88,-278.51 176.47,-278.37 168.11,-271.87 165.88,-278.51"/>
</g>
<!-- Node3 -->
<g id="node3" class="node">
<title>Node3</title>
<g id="a_node3"><a xlink:href="../../d6/db5/class_scene.html#a64cb0dcdcb57a45fe485fb3489c112c4" target="_top" xlink:title="Return if the 26&#45;neighborhood voxels of a connection path are locked too.">
<polygon fill="white" stroke="black" points="339,-306.5 339,-325.5 492,-325.5 492,-306.5 339,-306.5"/>
<text text-anchor="middle" x="415.5" y="-313.5" font-family="Helvetica,sans-Serif" font-size="10.00">Scene::getLockNeighborVoxels</text>
</a>
</g>
</g>
<!-- Node1&#45;&gt;Node3 -->
<g id="edge6" class="edge">
<title>Node1&#45;&gt;Node3</title>
<path fill="none" stroke="midnightblue" d="M59.29,-189.02C69.41,-217.93 96,-280.81 143,-307 211.79,-345.33 306.35,-337.49 363.79,-327.4"/>
<polygon fill="midnightblue" stroke="midnightblue" points="364.53,-330.82 373.72,-325.57 363.26,-323.94 364.53,-330.82"/>
</g>
<!-- Node4 -->
<g id="node4" class="node">
<title>Node4</title>
<g id="a_node4"><a xlink:href="../../d6/db5/class_scene.html#a5c26ef724365bd55c471acc673d60674" target="_top" xlink:title="Return the touchpoint registry of the scene.">
<polygon fill="white" stroke="black" points="341.5,-249.5 341.5,-268.5 489.5,-268.5 489.5,-249.5 341.5,-249.5"/>
<text text-anchor="middle" x="415.5" y="-256.5" font-family="Helvetica,sans-Serif" font-size="10.00">Scene::getTouchpointRegistry</text>
</a>
</g>
</g>
<!-- Node1&#45;&gt;Node4 -->
<g id="edge8" class="edge">
<title>Node1&#45;&gt;Node4</title>
<path fill="none" stroke="midnightblue" d="M72.48,-189.24C89.47,-202.7 116.27,-221.62 143,-231 203.72,-252.31 276.42,-258.89 331.3,-260.37"/>
<polygon fill="midnightblue" stroke="midnightblue" points="331.26,-263.87 341.33,-260.59 331.41,-256.87 331.26,-263.87"/>
</g>
<!-- Node5 -->
<g id="node5" class="node">
<title>Node5</title>
<g id="a_node5"><a xlink:href="../../de/d52/class_a_star.html#a29f560899446dc99d6f157e4997650d7" target="_top" xlink:title="Unmark all paths.">
<polygon fill="white" stroke="black" points="170.5,-202.5 170.5,-221.5 275.5,-221.5 275.5,-202.5 170.5,-202.5"/>
<text text-anchor="middle" x="223" y="-209.5" font-family="Helvetica,sans-Serif" font-size="10.00">AStar::clearAllPaths</text>
</a>
</g>
</g>
<!-- Node1&#45;&gt;Node5 -->
<g id="edge4" class="edge">
<title>Node1&#45;&gt;Node5</title>
<path fill="none" stroke="midnightblue" d="M107.04,-185.92C127.15,-190.48 150.06,-195.68 170.1,-200.23"/>
<polygon fill="midnightblue" stroke="midnightblue" points="169.47,-203.67 179.99,-202.47 171.02,-196.84 169.47,-203.67"/>
</g>
<!-- Node6 -->
<g id="node6" class="node">
<title>Node6</title>
<g id="a_node6"><a xlink:href="../../de/d52/class_a_star.html#aa76c29f42861c4f6fc7c328e4dbc7d83" target="_top" xlink:title="Mark a path as locked so that it can not be used by another search.">
<polygon fill="white" stroke="black" points="371,-183.5 371,-202.5 460,-202.5 460,-183.5 371,-183.5"/>
<text text-anchor="middle" x="415.5" y="-190.5" font-family="Helvetica,sans-Serif" font-size="10.00">AStar::markPath</text>
</a>
</g>
</g>
<!-- Node1&#45;&gt;Node6 -->
<g id="edge10" class="edge">
<title>Node1&#45;&gt;Node6</title>
<path fill="none" stroke="midnightblue" d="M107.23,-176.78C175.13,-180.37 292.49,-186.56 360.83,-190.17"/>
<polygon fill="midnightblue" stroke="midnightblue" points="360.79,-193.67 370.96,-190.7 361.16,-186.68 360.79,-193.67"/>
</g>
<!-- Node7 -->
<g id="node7" class="node">
<title>Node7</title>
<g id="a_node7"><a xlink:href="../../d6/db5/class_scene.html#abe8f9d18527a1fea362460cdc53cb5eb" target="_top" xlink:title="Return the bounds of the mesh in scene coordinates.">
<polygon fill="white" stroke="black" points="143,-115 143,-145 303,-145 303,-115 143,-115"/>
<text text-anchor="start" x="151" y="-133" font-family="Helvetica,sans-Serif" font-size="10.00">Scene::getMeshWorldCoordinate</text>
<text text-anchor="middle" x="223" y="-122" font-family="Helvetica,sans-Serif" font-size="10.00">Bounds</text>
</a>
</g>
</g>
<!-- Node1&#45;&gt;Node7 -->
<g id="edge7" class="edge">
<title>Node1&#45;&gt;Node7</title>
<path fill="none" stroke="midnightblue" d="M107.04,-160.2C122.21,-156.21 138.98,-151.81 154.92,-147.62"/>
<polygon fill="midnightblue" stroke="midnightblue" points="155.92,-150.98 164.71,-145.05 154.15,-144.21 155.92,-150.98"/>
</g>
<!-- Node8 -->
<g id="node8" class="node">
<title>Node8</title>
<g id="a_node8"><a xlink:href="../../d6/db5/class_scene.html#a7e5ee53ea01ef113afaaf4b7c10accf3" target="_top" xlink:title="Return the voxel grid image data.">
<polygon fill="white" stroke="black" points="168.5,-76.5 168.5,-95.5 277.5,-95.5 277.5,-76.5 168.5,-76.5"/>
<text text-anchor="middle" x="223" y="-83.5" font-family="Helvetica,sans-Serif" font-size="10.00">Scene::getVoxelData</text>
</a>
</g>
</g>
<!-- Node1&#45;&gt;Node8 -->
<g id="edge9" class="edge">
<title>Node1&#45;&gt;Node8</title>
<path fill="none" stroke="midnightblue" d="M70.11,-158.77C86.82,-143.29 114.76,-119.7 143,-106 148.76,-103.2 154.96,-100.77 161.26,-98.66"/>
<polygon fill="midnightblue" stroke="midnightblue" points="162.66,-101.89 171.18,-95.61 160.6,-95.2 162.66,-101.89"/>
</g>
<!-- Node9 -->
<g id="node9" class="node">
<title>Node9</title>
<g id="a_node9"><a xlink:href="../../de/d52/class_a_star.html#a67f440fb4e77fad8d273ef848e9703c1" target="_top" xlink:title="Reset grid.">
<polygon fill="white" stroke="black" points="188.5,-38.5 188.5,-57.5 257.5,-57.5 257.5,-38.5 188.5,-38.5"/>
<text text-anchor="middle" x="223" y="-45.5" font-family="Helvetica,sans-Serif" font-size="10.00">AStar::reset</text>
</a>
</g>
</g>
<!-- Node1&#45;&gt;Node9 -->
<g id="edge11" class="edge">
<title>Node1&#45;&gt;Node9</title>
<path fill="none" stroke="midnightblue" d="M62.63,-158.94C76.11,-135.49 105.37,-90.48 143,-67 153.57,-60.41 166.24,-56.1 178.31,-53.29"/>
<polygon fill="midnightblue" stroke="midnightblue" points="179.15,-56.69 188.25,-51.26 177.75,-49.83 179.15,-56.69"/>
</g>
<!-- Node13 -->
<g id="node13" class="node">
<title>Node13</title>
<g id="a_node13"><a xlink:href="../../de/d52/class_a_star.html#a0d1fd50821c4cd7bbd8a87bd9fcf5dd3" target="_top" xlink:title="Search a path in the voxelgrid using the A* algorithm with the preset heuristic.">
<polygon fill="white" stroke="black" points="174.5,-0.5 174.5,-19.5 271.5,-19.5 271.5,-0.5 174.5,-0.5"/>
<text text-anchor="middle" x="223" y="-7.5" font-family="Helvetica,sans-Serif" font-size="10.00">AStar::searchPath</text>
</a>
</g>
</g>
<!-- Node1&#45;&gt;Node13 -->
<g id="edge15" class="edge">
<title>Node1&#45;&gt;Node13</title>
<path fill="none" stroke="midnightblue" d="M59.26,-158.99C69.5,-129.26 96.51,-62.85 143,-29 149.41,-24.33 156.82,-20.79 164.48,-18.12"/>
<polygon fill="midnightblue" stroke="midnightblue" points="165.69,-21.41 174.26,-15.17 163.67,-14.71 165.69,-21.41"/>
</g>
<!-- Node2&#45;&gt;Node3 -->
<g id="edge2" class="edge">
<title>Node2&#45;&gt;Node3</title>
<path fill="none" stroke="midnightblue" d="M288.76,-297.52C305.02,-299.91 322.6,-302.49 339.32,-304.95"/>
<polygon fill="midnightblue" stroke="midnightblue" points="339.19,-308.47 349.6,-306.46 340.21,-301.54 339.19,-308.47"/>
</g>
<!-- Node2&#45;&gt;Node4 -->
<g id="edge3" class="edge">
<title>Node2&#45;&gt;Node4</title>
<path fill="none" stroke="midnightblue" d="M286.64,-278.46C304.3,-275.78 323.66,-272.83 341.85,-270.06"/>
<polygon fill="midnightblue" stroke="midnightblue" points="342.46,-273.51 351.82,-268.54 341.41,-266.59 342.46,-273.51"/>
</g>
<!-- Node5&#45;&gt;Node6 -->
<g id="edge5" class="edge">
<title>Node5&#45;&gt;Node6</title>
<path fill="none" stroke="midnightblue" d="M275.55,-206.86C302.03,-204.22 334.26,-201 361.01,-198.33"/>
<polygon fill="midnightblue" stroke="midnightblue" points="361.37,-201.82 370.97,-197.34 360.68,-194.85 361.37,-201.82"/>
</g>
<!-- Node10 -->
<g id="node10" class="node">
<title>Node10</title>
<g id="a_node10"><a xlink:href="../../de/d52/class_a_star.html#af8f32d428d15af1c33dc9f77929299ca" target="_top" xlink:title="Resets the 3D voxel grid to it&#39;s default values.">
<polygon fill="white" stroke="black" points="372,-38.5 372,-57.5 459,-57.5 459,-38.5 372,-38.5"/>
<text text-anchor="middle" x="415.5" y="-45.5" font-family="Helvetica,sans-Serif" font-size="10.00">AStar::resetGrid</text>
</a>
</g>
</g>
<!-- Node9&#45;&gt;Node10 -->
<g id="edge12" class="edge">
<title>Node9&#45;&gt;Node10</title>
<path fill="none" stroke="midnightblue" d="M257.62,-48C286.47,-48 328.53,-48 361.84,-48"/>
<polygon fill="midnightblue" stroke="midnightblue" points="361.87,-51.5 371.87,-48 361.87,-44.5 361.87,-51.5"/>
</g>
<!-- Node11 -->
<g id="node11" class="node">
<title>Node11</title>
<g id="a_node11"><a xlink:href="../../de/d52/class_a_star.html#aadbff393646adec069b3264bed4edc9f" target="_top" xlink:title="Initializes the 3D voxel grid.">
<polygon fill="white" stroke="black" points="528,-38.5 528,-57.5 606,-57.5 606,-38.5 528,-38.5"/>
<text text-anchor="middle" x="567" y="-45.5" font-family="Helvetica,sans-Serif" font-size="10.00">AStar::initGrid</text>
</a>
</g>
</g>
<!-- Node10&#45;&gt;Node11 -->
<g id="edge13" class="edge">
<title>Node10&#45;&gt;Node11</title>
<path fill="none" stroke="midnightblue" d="M459.34,-48C477.61,-48 499.02,-48 517.84,-48"/>
<polygon fill="midnightblue" stroke="midnightblue" points="517.99,-51.5 527.99,-48 517.99,-44.5 517.99,-51.5"/>
</g>
<!-- Node12 -->
<g id="node12" class="node">
<title>Node12</title>
<g id="a_node12"><a xlink:href="../../de/d52/class_a_star.html#abc66e4863cf4c15f616098e60469e50b" target="_top" xlink:title="Compute 1D linearized index from 3D&#45;coodinate index.">
<polygon fill="white" stroke="black" points="642,-38.5 642,-57.5 702,-57.5 702,-38.5 642,-38.5"/>
<text text-anchor="middle" x="672" y="-45.5" font-family="Helvetica,sans-Serif" font-size="10.00">AStar::idx</text>
</a>
</g>
</g>
<!-- Node11&#45;&gt;Node12 -->
<g id="edge14" class="edge">
<title>Node11&#45;&gt;Node12</title>
<path fill="none" stroke="midnightblue" d="M606.06,-48C614.36,-48 623.16,-48 631.52,-48"/>
<polygon fill="midnightblue" stroke="midnightblue" points="631.79,-51.5 641.79,-48 631.79,-44.5 631.79,-51.5"/>
</g>
</g>
</svg>
