<?xml version="1.0" encoding="UTF-8" standalone="no"?>
<!DOCTYPE svg PUBLIC "-//W3C//DTD SVG 1.1//EN"
 "http://www.w3.org/Graphics/SVG/1.1/DTD/svg11.dtd">
<!-- Generated by graphviz version 2.44.1 (0)
 -->
<!-- Title: BruteForceOptimizer::optimize Pages: 1 -->
<svg width="787pt" height="483pt"
 viewBox="0.00 0.00 787.00 482.93" xmlns="http://www.w3.org/2000/svg" xmlns:xlink="http://www.w3.org/1999/xlink">
<g id="graph0" class="graph" transform="scale(1 1) rotate(0) translate(4 478.93)">
<title>BruteForceOptimizer::optimize</title>
<polygon fill="white" stroke="transparent" points="-4,4 -4,-478.93 783,-478.93 783,4 -4,4"/>
<!-- Node1 -->
<g id="node1" class="node">
<title>Node1</title>
<g id="a_node1"><a xlink:title=" ">
<polygon fill="#bfbfbf" stroke="black" points="0,-251 0,-281 107,-281 107,-251 0,-251"/>
<text text-anchor="start" x="8" y="-269" font-family="Helvetica,sans-Serif" font-size="10.00">BruteForceOptimizer</text>
<text text-anchor="middle" x="53.5" y="-258" font-family="Helvetica,sans-Serif" font-size="10.00">::optimize</text>
</a>
</g>
</g>
<!-- Node2 -->
<g id="node2" class="node">
<title>Node2</title>
<g id="a_node2"><a xlink:href="../../d9/d02/class_optimizer.html#a005ef2bdea59b2a3ac0fa22978add36a" target="_top" xlink:title="Add optimized connections to the touchpoint registry.">
<polygon fill="white" stroke="black" points="155.5,-414.5 155.5,-433.5 290.5,-433.5 290.5,-414.5 155.5,-414.5"/>
<text text-anchor="middle" x="223" y="-421.5" font-family="Helvetica,sans-Serif" font-size="10.00">Optimizer::addConnections</text>
</a>
</g>
</g>
<!-- Node1&#45;&gt;Node2 -->
<g id="edge1" class="edge">
<title>Node1&#45;&gt;Node2</title>
<path fill="none" stroke="midnightblue" d="M60.46,-281.37C72.06,-309.24 100.32,-368.16 143,-400 148.84,-404.36 155.49,-407.94 162.38,-410.87"/>
<polygon fill="midnightblue" stroke="midnightblue" points="161.29,-414.2 171.88,-414.48 163.77,-407.65 161.29,-414.2"/>
</g>
<!-- Node3 -->
<g id="node3" class="node">
<title>Node3</title>
<g id="a_node3"><a xlink:href="../../d6/db5/class_scene.html#a64cb0dcdcb57a45fe485fb3489c112c4" target="_top" xlink:title="Return if the 26&#45;neighborhood voxels of a connection path are locked too.">
<polygon fill="white" stroke="black" points="339,-442.5 339,-461.5 492,-461.5 492,-442.5 339,-442.5"/>
<text text-anchor="middle" x="415.5" y="-449.5" font-family="Helvetica,sans-Serif" font-size="10.00">Scene::getLockNeighborVoxels</text>
</a>
</g>
</g>
<!-- Node1&#45;&gt;Node3 -->
<g id="edge7" class="edge">
<title>Node1&#45;&gt;Node3</title>
<path fill="none" stroke="midnightblue" d="M56.81,-281.04C63.15,-316.55 84.43,-405.45 143,-443 211.54,-486.94 311.1,-475.71 368.68,-463.74"/>
<polygon fill="midnightblue" stroke="midnightblue" points="369.56,-467.13 378.58,-461.59 368.07,-460.29 369.56,-467.13"/>
</g>
<!-- Node4 -->
<g id="node4" class="node">
<title>Node4</title>
<g id="a_node4"><a xlink:href="../../d6/db5/class_scene.html#a5c26ef724365bd55c471acc673d60674" target="_top" xlink:title="Return the touchpoint registry of the scene.">
<polygon fill="white" stroke="black" points="341.5,-385.5 341.5,-404.5 489.5,-404.5 489.5,-385.5 341.5,-385.5"/>
<text text-anchor="middle" x="415.5" y="-392.5" font-family="Helvetica,sans-Serif" font-size="10.00">Scene::getTouchpointRegistry</text>
</a>
</g>
</g>
<!-- Node1&#45;&gt;Node4 -->
<g id="edge9" class="edge">
<title>Node1&#45;&gt;Node4</title>
<path fill="none" stroke="midnightblue" d="M62.74,-281.18C76.16,-304.22 105.1,-347.41 143,-367 200.86,-396.9 274.85,-402.77 330.97,-401.79"/>
<polygon fill="midnightblue" stroke="midnightblue" points="331.33,-405.28 341.24,-401.53 331.15,-398.28 331.33,-405.28"/>
</g>
<!-- Node5 -->
<g id="node5" class="node">
<title>Node5</title>
<g id="a_node5"><a xlink:href="../../de/d52/class_a_star.html#a29f560899446dc99d6f157e4997650d7" target="_top" xlink:title="Unmark all paths.">
<polygon fill="white" stroke="black" points="170.5,-338.5 170.5,-357.5 275.5,-357.5 275.5,-338.5 170.5,-338.5"/>
<text text-anchor="middle" x="223" y="-345.5" font-family="Helvetica,sans-Serif" font-size="10.00">AStar::clearAllPaths</text>
</a>
</g>
</g>
<!-- Node1&#45;&gt;Node5 -->
<g id="edge4" class="edge">
<title>Node1&#45;&gt;Node5</title>
<path fill="none" stroke="midnightblue" d="M73.93,-281.08C91.25,-293.94 117.71,-312.17 143,-324 152.45,-328.42 162.9,-332.26 173.03,-335.51"/>
<polygon fill="midnightblue" stroke="midnightblue" points="172.02,-338.85 182.6,-338.43 174.06,-332.16 172.02,-338.85"/>
</g>
<!-- Node6 -->
<g id="node6" class="node">
<title>Node6</title>
<g id="a_node6"><a xlink:href="../../de/d52/class_a_star.html#aa76c29f42861c4f6fc7c328e4dbc7d83" target="_top" xlink:title="Mark a path as locked so that it can not be used by another search.">
<polygon fill="white" stroke="black" points="371,-319.5 371,-338.5 460,-338.5 460,-319.5 371,-319.5"/>
<text text-anchor="middle" x="415.5" y="-326.5" font-family="Helvetica,sans-Serif" font-size="10.00">AStar::markPath</text>
</a>
</g>
</g>
<!-- Node1&#45;&gt;Node6 -->
<g id="edge11" class="edge">
<title>Node1&#45;&gt;Node6</title>
<path fill="none" stroke="midnightblue" d="M103.36,-281.09C116.17,-284.69 130.03,-288.27 143,-291 217.82,-306.73 305.65,-317.68 360.7,-323.66"/>
<polygon fill="midnightblue" stroke="midnightblue" points="360.61,-327.17 370.92,-324.75 361.35,-320.21 360.61,-327.17"/>
</g>
<!-- Node7 -->
<g id="node7" class="node">
<title>Node7</title>
<g id="a_node7"><a xlink:href="../../d9/d58/class_touchpoint.html#a30cdb1f0de39cf4ffe2d23c3c750d331" target="_top" xlink:title="Return outside wiring entry point (grid coordinates)">
<polygon fill="white" stroke="black" points="156.5,-251 156.5,-281 289.5,-281 289.5,-251 156.5,-251"/>
<text text-anchor="start" x="164.5" y="-269" font-family="Helvetica,sans-Serif" font-size="10.00">Touchpoint::getConnection</text>
<text text-anchor="middle" x="223" y="-258" font-family="Helvetica,sans-Serif" font-size="10.00">PointIndex</text>
</a>
</g>
</g>
<!-- Node1&#45;&gt;Node7 -->
<g id="edge6" class="edge">
<title>Node1&#45;&gt;Node7</title>
<path fill="none" stroke="midnightblue" d="M107.04,-266C119.5,-266 133.04,-266 146.3,-266"/>
<polygon fill="midnightblue" stroke="midnightblue" points="146.37,-269.5 156.37,-266 146.37,-262.5 146.37,-269.5"/>
</g>
<!-- Node8 -->
<g id="node8" class="node">
<title>Node8</title>
<g id="a_node8"><a xlink:href="../../d6/db5/class_scene.html#abe8f9d18527a1fea362460cdc53cb5eb" target="_top" xlink:title="Return the bounds of the mesh in scene coordinates.">
<polygon fill="white" stroke="black" points="143,-202 143,-232 303,-232 303,-202 143,-202"/>
<text text-anchor="start" x="151" y="-220" font-family="Helvetica,sans-Serif" font-size="10.00">Scene::getMeshWorldCoordinate</text>
<text text-anchor="middle" x="223" y="-209" font-family="Helvetica,sans-Serif" font-size="10.00">Bounds</text>
</a>
</g>
</g>
<!-- Node1&#45;&gt;Node8 -->
<g id="edge8" class="edge">
<title>Node1&#45;&gt;Node8</title>
<path fill="none" stroke="midnightblue" d="M106.12,-250.9C123.4,-245.84 142.82,-240.16 160.76,-234.92"/>
<polygon fill="midnightblue" stroke="midnightblue" points="161.93,-238.22 170.55,-232.05 159.97,-231.5 161.93,-238.22"/>
</g>
<!-- Node9 -->
<g id="node9" class="node">
<title>Node9</title>
<g id="a_node9"><a xlink:href="../../d6/db5/class_scene.html#a7e5ee53ea01ef113afaaf4b7c10accf3" target="_top" xlink:title="Return the voxel grid image data.">
<polygon fill="white" stroke="black" points="168.5,-163.5 168.5,-182.5 277.5,-182.5 277.5,-163.5 168.5,-163.5"/>
<text text-anchor="middle" x="223" y="-170.5" font-family="Helvetica,sans-Serif" font-size="10.00">Scene::getVoxelData</text>
</a>
</g>
</g>
<!-- Node1&#45;&gt;Node9 -->
<g id="edge10" class="edge">
<title>Node1&#45;&gt;Node9</title>
<path fill="none" stroke="midnightblue" d="M68.69,-250.82C85.05,-234.2 113.51,-207.94 143,-193 148.55,-190.19 154.52,-187.75 160.61,-185.65"/>
<polygon fill="midnightblue" stroke="midnightblue" points="161.75,-188.96 170.23,-182.6 159.64,-182.28 161.75,-188.96"/>
</g>
<!-- Node10 -->
<g id="node10" class="node">
<title>Node10</title>
<g id="a_node10"><a xlink:href="../../de/d52/class_a_star.html#a67f440fb4e77fad8d273ef848e9703c1" target="_top" xlink:title="Reset grid.">
<polygon fill="white" stroke="black" points="188.5,-125.5 188.5,-144.5 257.5,-144.5 257.5,-125.5 188.5,-125.5"/>
<text text-anchor="middle" x="223" y="-132.5" font-family="Helvetica,sans-Serif" font-size="10.00">AStar::reset</text>
</a>
</g>
</g>
<!-- Node1&#45;&gt;Node10 -->
<g id="edge12" class="edge">
<title>Node1&#45;&gt;Node10</title>
<path fill="none" stroke="midnightblue" d="M62.23,-250.63C75.36,-226.19 104.38,-178.7 143,-154 153.49,-147.29 166.14,-142.95 178.21,-140.14"/>
<polygon fill="midnightblue" stroke="midnightblue" points="179.05,-143.54 188.16,-138.12 177.66,-136.68 179.05,-143.54"/>
</g>
<!-- Node14 -->
<g id="node14" class="node">
<title>Node14</title>
<g id="a_node14"><a xlink:href="../../de/d52/class_a_star.html#a0d1fd50821c4cd7bbd8a87bd9fcf5dd3" target="_top" xlink:title="Search a path in the voxelgrid using the A* algorithm with the preset heuristic.">
<polygon fill="white" stroke="black" points="174.5,-87.5 174.5,-106.5 271.5,-106.5 271.5,-87.5 174.5,-87.5"/>
<text text-anchor="middle" x="223" y="-94.5" font-family="Helvetica,sans-Serif" font-size="10.00">AStar::searchPath</text>
</a>
</g>
</g>
<!-- Node1&#45;&gt;Node14 -->
<g id="edge16" class="edge">
<title>Node1&#45;&gt;Node14</title>
<path fill="none" stroke="midnightblue" d="M58.95,-250.95C68.79,-220.45 95.36,-151.24 143,-116 149.38,-111.28 156.77,-107.72 164.42,-105.03"/>
<polygon fill="midnightblue" stroke="midnightblue" points="165.63,-108.32 174.19,-102.08 163.6,-101.62 165.63,-108.32"/>
</g>
<!-- Node15 -->
<g id="node15" class="node">
<title>Node15</title>
<g id="a_node15"><a xlink:href="../../d9/d58/class_touchpoint.html#a550348f9d05c347b5186b6531d583a11" target="_top" xlink:title="Mark voxel grid cells as unoccupied by the touchpoint geometry.">
<polygon fill="white" stroke="black" points="147,-48.5 147,-67.5 299,-67.5 299,-48.5 147,-48.5"/>
<text text-anchor="middle" x="223" y="-55.5" font-family="Helvetica,sans-Serif" font-size="10.00">Touchpoint::unMarkOccupation</text>
</a>
</g>
</g>
<!-- Node1&#45;&gt;Node15 -->
<g id="edge17" class="edge">
<title>Node1&#45;&gt;Node15</title>
<path fill="none" stroke="midnightblue" d="M57.09,-250.89C64.06,-215.05 86.63,-124.47 143,-78 145.7,-75.77 148.62,-73.79 151.69,-72.02"/>
<polygon fill="midnightblue" stroke="midnightblue" points="153.24,-75.16 160.67,-67.6 150.15,-68.88 153.24,-75.16"/>
</g>
<!-- Node2&#45;&gt;Node3 -->
<g id="edge2" class="edge">
<title>Node2&#45;&gt;Node3</title>
<path fill="none" stroke="midnightblue" d="M288.76,-433.52C305.02,-435.91 322.6,-438.49 339.32,-440.95"/>
<polygon fill="midnightblue" stroke="midnightblue" points="339.19,-444.47 349.6,-442.46 340.21,-437.54 339.19,-444.47"/>
</g>
<!-- Node2&#45;&gt;Node4 -->
<g id="edge3" class="edge">
<title>Node2&#45;&gt;Node4</title>
<path fill="none" stroke="midnightblue" d="M286.64,-414.46C304.3,-411.78 323.66,-408.83 341.85,-406.06"/>
<polygon fill="midnightblue" stroke="midnightblue" points="342.46,-409.51 351.82,-404.54 341.41,-402.59 342.46,-409.51"/>
</g>
<!-- Node5&#45;&gt;Node6 -->
<g id="edge5" class="edge">
<title>Node5&#45;&gt;Node6</title>
<path fill="none" stroke="midnightblue" d="M275.55,-342.86C302.03,-340.22 334.26,-337 361.01,-334.33"/>
<polygon fill="midnightblue" stroke="midnightblue" points="361.37,-337.82 370.97,-333.34 360.68,-330.85 361.37,-337.82"/>
</g>
<!-- Node11 -->
<g id="node11" class="node">
<title>Node11</title>
<g id="a_node11"><a xlink:href="../../de/d52/class_a_star.html#af8f32d428d15af1c33dc9f77929299ca" target="_top" xlink:title="Resets the 3D voxel grid to it&#39;s default values.">
<polygon fill="white" stroke="black" points="372,-125.5 372,-144.5 459,-144.5 459,-125.5 372,-125.5"/>
<text text-anchor="middle" x="415.5" y="-132.5" font-family="Helvetica,sans-Serif" font-size="10.00">AStar::resetGrid</text>
</a>
</g>
</g>
<!-- Node10&#45;&gt;Node11 -->
<g id="edge13" class="edge">
<title>Node10&#45;&gt;Node11</title>
<path fill="none" stroke="midnightblue" d="M257.62,-135C286.47,-135 328.53,-135 361.84,-135"/>
<polygon fill="midnightblue" stroke="midnightblue" points="361.87,-138.5 371.87,-135 361.87,-131.5 361.87,-138.5"/>
</g>
<!-- Node12 -->
<g id="node12" class="node">
<title>Node12</title>
<g id="a_node12"><a xlink:href="../../de/d52/class_a_star.html#aadbff393646adec069b3264bed4edc9f" target="_top" xlink:title="Initializes the 3D voxel grid.">
<polygon fill="white" stroke="black" points="566.5,-126.5 566.5,-145.5 644.5,-145.5 644.5,-126.5 566.5,-126.5"/>
<text text-anchor="middle" x="605.5" y="-133.5" font-family="Helvetica,sans-Serif" font-size="10.00">AStar::initGrid</text>
</a>
</g>
</g>
<!-- Node11&#45;&gt;Node12 -->
<g id="edge14" class="edge">
<title>Node11&#45;&gt;Node12</title>
<path fill="none" stroke="midnightblue" d="M459.16,-135.23C488.04,-135.38 526.24,-135.58 556.24,-135.74"/>
<polygon fill="midnightblue" stroke="midnightblue" points="556.45,-139.24 566.47,-135.8 556.49,-132.24 556.45,-139.24"/>
</g>
<!-- Node13 -->
<g id="node13" class="node">
<title>Node13</title>
<g id="a_node13"><a xlink:href="../../de/d52/class_a_star.html#abc66e4863cf4c15f616098e60469e50b" target="_top" xlink:title="Compute 1D linearized index from 3D&#45;coodinate index.">
<polygon fill="white" stroke="black" points="719,-126.5 719,-145.5 779,-145.5 779,-126.5 719,-126.5"/>
<text text-anchor="middle" x="749" y="-133.5" font-family="Helvetica,sans-Serif" font-size="10.00">AStar::idx</text>
</a>
</g>
</g>
<!-- Node12&#45;&gt;Node13 -->
<g id="edge15" class="edge">
<title>Node12&#45;&gt;Node13</title>
<path fill="none" stroke="midnightblue" d="M644.79,-136C664.59,-136 688.71,-136 708.65,-136"/>
<polygon fill="midnightblue" stroke="midnightblue" points="708.66,-139.5 718.66,-136 708.66,-132.5 708.66,-139.5"/>
</g>
<!-- Node16 -->
<g id="node16" class="node">
<title>Node16</title>
<g id="a_node16"><a xlink:href="../../d9/d58/class_touchpoint.html#a1b82f162b238396efeae6b9369430a87" target="_top" xlink:title="Mark voxel grid cells occupied / unoccupied by the touchpoint geometry.">
<polygon fill="white" stroke="black" points="346,-40 346,-70 485,-70 485,-40 346,-40"/>
<text text-anchor="start" x="354" y="-58" font-family="Helvetica,sans-Serif" font-size="10.00">Touchpoint::markTouchpoint</text>
<text text-anchor="middle" x="415.5" y="-47" font-family="Helvetica,sans-Serif" font-size="10.00">Cells</text>
</a>
</g>
</g>
<!-- Node15&#45;&gt;Node16 -->
<g id="edge18" class="edge">
<title>Node15&#45;&gt;Node16</title>
<path fill="none" stroke="midnightblue" d="M299.02,-56.82C311.06,-56.63 323.55,-56.43 335.67,-56.24"/>
<polygon fill="midnightblue" stroke="midnightblue" points="335.81,-59.74 345.75,-56.08 335.7,-52.74 335.81,-59.74"/>
</g>
<!-- Node17 -->
<g id="node17" class="node">
<title>Node17</title>
<g id="a_node17"><a xlink:href="../../d1/d7c/namespace_utils.html#ac9b063fc04e0a4e5501c8ed0af96ac47" target="_top" xlink:title="Clamp integer value between min and max.">
<polygon fill="white" stroke="black" points="565.5,-88.5 565.5,-107.5 645.5,-107.5 645.5,-88.5 565.5,-88.5"/>
<text text-anchor="middle" x="605.5" y="-95.5" font-family="Helvetica,sans-Serif" font-size="10.00">Utils::clampInt</text>
</a>
</g>
</g>
<!-- Node16&#45;&gt;Node17 -->
<g id="edge19" class="edge">
<title>Node16&#45;&gt;Node17</title>
<path fill="none" stroke="midnightblue" d="M482.25,-70.04C506.31,-75.54 533.09,-81.67 555.44,-86.78"/>
<polygon fill="midnightblue" stroke="midnightblue" points="554.84,-90.23 565.37,-89.05 556.4,-83.41 554.84,-90.23"/>
</g>
<!-- Node18 -->
<g id="node18" class="node">
<title>Node18</title>
<g id="a_node18"><a xlink:href="../../d9/d58/class_touchpoint.html#a465057d2b000f7fc374d594fb8b80ce6" target="_top" xlink:title="Return the bounds of the touchpoint in world coordinates.">
<polygon fill="white" stroke="black" points="528,-39 528,-69 683,-69 683,-39 528,-39"/>
<text text-anchor="start" x="536" y="-57" font-family="Helvetica,sans-Serif" font-size="10.00">Touchpoint::getWorldCoordinate</text>
<text text-anchor="middle" x="605.5" y="-46" font-family="Helvetica,sans-Serif" font-size="10.00">Bounds</text>
</a>
</g>
</g>
<!-- Node16&#45;&gt;Node18 -->
<g id="edge20" class="edge">
<title>Node16&#45;&gt;Node18</title>
<path fill="none" stroke="midnightblue" d="M485.17,-54.63C495.66,-54.58 506.61,-54.52 517.43,-54.46"/>
<polygon fill="midnightblue" stroke="midnightblue" points="517.77,-57.96 527.76,-54.41 517.74,-50.96 517.77,-57.96"/>
</g>
<!-- Node19 -->
<g id="node19" class="node">
<title>Node19</title>
<g id="a_node19"><a xlink:href="../../d1/d7c/namespace_utils.html#a606fb1eb5072ca20f56293fa71bd8578" target="_top" xlink:title="Compute 1D linearized index from 3D&#45;coodinate index.">
<polygon fill="white" stroke="black" points="577.5,-0.5 577.5,-19.5 633.5,-19.5 633.5,-0.5 577.5,-0.5"/>
<text text-anchor="middle" x="605.5" y="-7.5" font-family="Helvetica,sans-Serif" font-size="10.00">Utils::idx</text>
</a>
</g>
</g>
<!-- Node16&#45;&gt;Node19 -->
<g id="edge21" class="edge">
<title>Node16&#45;&gt;Node19</title>
<path fill="none" stroke="midnightblue" d="M479.36,-39.95C508.63,-32.95 542.45,-24.85 567.54,-18.85"/>
<polygon fill="midnightblue" stroke="midnightblue" points="568.47,-22.22 577.38,-16.49 566.84,-15.42 568.47,-22.22"/>
</g>
</g>
</svg>
