<?xml version="1.0" encoding="UTF-8" standalone="no"?>
<!DOCTYPE svg PUBLIC "-//W3C//DTD SVG 1.1//EN"
 "http://www.w3.org/Graphics/SVG/1.1/DTD/svg11.dtd">
<!-- Generated by graphviz version 2.44.1 (0)
 -->
<!-- Title: AStar::searchPath Pages: 1 -->
<svg width="1014pt" height="617pt"
 viewBox="0.00 0.00 1014.00 616.73" xmlns="http://www.w3.org/2000/svg" xmlns:xlink="http://www.w3.org/1999/xlink">
<g id="graph0" class="graph" transform="scale(1 1) rotate(0) translate(4 612.73)">
<title>AStar::searchPath</title>
<polygon fill="white" stroke="transparent" points="-4,4 -4,-612.73 1010,-612.73 1010,4 -4,4"/>
<!-- Node1 -->
<g id="node1" class="node">
<title>Node1</title>
<g id="a_node1"><a xlink:title="Search a path in the voxelgrid using the A* algorithm with the preset heuristic.">
<polygon fill="#bfbfbf" stroke="black" points="909,-183.5 909,-202.5 1006,-202.5 1006,-183.5 909,-183.5"/>
<text text-anchor="middle" x="957.5" y="-190.5" font-family="Helvetica,sans-Serif" font-size="10.00">AStar::searchPath</text>
</a>
</g>
</g>
<!-- Node2 -->
<g id="node2" class="node">
<title>Node2</title>
<g id="a_node2"><a xlink:href="../../d9/d02/class_optimizer.html#a4f2470e3a7450a12d4daa5df86d50ce8" target="_top" xlink:title="computes the total wire length of a wiring">
<polygon fill="white" stroke="black" points="730,-373 730,-403 873,-403 873,-373 730,-373"/>
<text text-anchor="start" x="738" y="-391" font-family="Helvetica,sans-Serif" font-size="10.00">Optimizer::computeTotalWire</text>
<text text-anchor="middle" x="801.5" y="-380" font-family="Helvetica,sans-Serif" font-size="10.00">Distance</text>
</a>
</g>
</g>
<!-- Node1&#45;&gt;Node2 -->
<g id="edge1" class="edge">
<title>Node1&#45;&gt;Node2</title>
<path fill="none" stroke="midnightblue" d="M945.12,-211.35C929.78,-235.63 901.14,-279.38 873,-314 855.54,-335.48 833.18,-358.26 818.37,-372.78"/>
<polygon fill="midnightblue" stroke="midnightblue" points="948.15,-213.11 950.49,-202.78 942.22,-209.39 948.15,-213.11"/>
</g>
<!-- Node4 -->
<g id="node4" class="node">
<title>Node4</title>
<g id="a_node4"><a xlink:href="../../de/d17/class_great_deluge_optimizer.html#ad0e859eaa1e24d3ba184cb0641972427" target="_top" xlink:title=" ">
<polygon fill="white" stroke="black" points="370,-576 370,-606 483,-606 483,-576 370,-576"/>
<text text-anchor="start" x="378" y="-594" font-family="Helvetica,sans-Serif" font-size="10.00">GreatDelugeOptimizer</text>
<text text-anchor="middle" x="426.5" y="-583" font-family="Helvetica,sans-Serif" font-size="10.00">::optimize</text>
</a>
</g>
</g>
<!-- Node1&#45;&gt;Node4 -->
<g id="edge19" class="edge">
<title>Node1&#45;&gt;Node4</title>
<path fill="none" stroke="midnightblue" d="M955.12,-212.87C950.84,-261.72 934.13,-389.71 873,-473 816.19,-550.42 785.82,-565.88 694,-594 623.77,-615.51 538.16,-609.19 483.25,-601.28"/>
<polygon fill="midnightblue" stroke="midnightblue" points="958.63,-212.96 955.93,-202.72 951.65,-212.41 958.63,-212.96"/>
</g>
<!-- Node6 -->
<g id="node6" class="node">
<title>Node6</title>
<g id="a_node6"><a xlink:href="../../d1/d15/class_hill_climbing_optimizer.html#a4f1754d5bfc6c5e702ee1421ed0cb204" target="_top" xlink:title=" ">
<polygon fill="white" stroke="black" points="371,-466 371,-496 482,-496 482,-466 371,-466"/>
<text text-anchor="start" x="379" y="-484" font-family="Helvetica,sans-Serif" font-size="10.00">HillClimbingOptimizer</text>
<text text-anchor="middle" x="426.5" y="-473" font-family="Helvetica,sans-Serif" font-size="10.00">::optimize</text>
</a>
</g>
</g>
<!-- Node1&#45;&gt;Node6 -->
<g id="edge21" class="edge">
<title>Node1&#45;&gt;Node6</title>
<path fill="none" stroke="midnightblue" d="M953.85,-212.54C947.29,-254.15 926.73,-352.62 873,-413 773.41,-524.92 698.04,-521.17 549,-506 526.93,-503.75 502.95,-499.27 482.17,-494.71"/>
<polygon fill="midnightblue" stroke="midnightblue" points="957.32,-213.01 955.32,-202.61 950.39,-211.99 957.32,-213.01"/>
</g>
<!-- Node11 -->
<g id="node11" class="node">
<title>Node11</title>
<g id="a_node11"><a xlink:href="../../dc/d6d/class_g_a_optimizer.html#a71b18c78d275e4d896826f07b2e01f4b" target="_top" xlink:title=" ">
<polygon fill="white" stroke="black" points="0,-252.5 0,-271.5 116,-271.5 116,-252.5 0,-252.5"/>
<text text-anchor="middle" x="58" y="-259.5" font-family="Helvetica,sans-Serif" font-size="10.00">GAOptimizer::optimize</text>
</a>
</g>
</g>
<!-- Node1&#45;&gt;Node11 -->
<g id="edge18" class="edge">
<title>Node1&#45;&gt;Node11</title>
<path fill="none" stroke="midnightblue" d="M898.71,-187.71C832.16,-182.09 719.53,-174 622.5,-174 622.5,-174 622.5,-174 425.5,-174 292.34,-174 139.29,-229.61 82.12,-252.41"/>
<polygon fill="midnightblue" stroke="midnightblue" points="898.72,-191.23 908.98,-188.59 899.32,-184.25 898.72,-191.23"/>
</g>
<!-- Node13 -->
<g id="node13" class="node">
<title>Node13</title>
<g id="a_node13"><a xlink:href="../../d0/d53/class_simulated_annealing_optimizer.html#a8e1aba518749f6534cdb3155a38af511" target="_top" xlink:title=" ">
<polygon fill="white" stroke="black" points="354,-288 354,-318 499,-318 499,-288 354,-288"/>
<text text-anchor="start" x="362" y="-306" font-family="Helvetica,sans-Serif" font-size="10.00">SimulatedAnnealingOptimizer</text>
<text text-anchor="middle" x="426.5" y="-295" font-family="Helvetica,sans-Serif" font-size="10.00">::optimize</text>
</a>
</g>
</g>
<!-- Node1&#45;&gt;Node13 -->
<g id="edge24" class="edge">
<title>Node1&#45;&gt;Node13</title>
<path fill="none" stroke="midnightblue" d="M918.41,-205.77C904.17,-210.55 887.84,-216.02 873,-221 793.45,-247.67 776.18,-264.09 694,-281 628.86,-294.4 553.18,-299.69 499.14,-301.75"/>
<polygon fill="midnightblue" stroke="midnightblue" points="919.53,-209.09 927.9,-202.59 917.31,-202.45 919.53,-209.09"/>
</g>
<!-- Node15 -->
<g id="node15" class="node">
<title>Node15</title>
<g id="a_node15"><a xlink:href="../../d0/da8/class_threshold_accepting_optimizer.html#a6dead9a1dffa1d54cb9cc59e80655fb7" target="_top" xlink:title=" ">
<polygon fill="white" stroke="black" points="354,-223 354,-253 499,-253 499,-223 354,-223"/>
<text text-anchor="start" x="362" y="-241" font-family="Helvetica,sans-Serif" font-size="10.00">ThresholdAcceptingOptimizer</text>
<text text-anchor="middle" x="426.5" y="-230" font-family="Helvetica,sans-Serif" font-size="10.00">::optimize</text>
</a>
</g>
</g>
<!-- Node1&#45;&gt;Node15 -->
<g id="edge25" class="edge">
<title>Node1&#45;&gt;Node15</title>
<path fill="none" stroke="midnightblue" d="M898.38,-197.94C801.02,-206.23 605.26,-222.88 499.4,-231.88"/>
<polygon fill="midnightblue" stroke="midnightblue" points="898.95,-201.41 908.62,-197.07 898.36,-194.43 898.95,-201.41"/>
</g>
<!-- Node16 -->
<g id="node16" class="node">
<title>Node16</title>
<g id="a_node16"><a xlink:href="../../da/d4f/class_brute_force_optimizer.html#aa2a4ae05bdd60786dee2cd865a15185e" target="_top" xlink:title=" ">
<polygon fill="white" stroke="black" points="748,-115 748,-145 855,-145 855,-115 748,-115"/>
<text text-anchor="start" x="756" y="-133" font-family="Helvetica,sans-Serif" font-size="10.00">BruteForceOptimizer</text>
<text text-anchor="middle" x="801.5" y="-122" font-family="Helvetica,sans-Serif" font-size="10.00">::optimize</text>
</a>
</g>
</g>
<!-- Node1&#45;&gt;Node16 -->
<g id="edge17" class="edge">
<title>Node1&#45;&gt;Node16</title>
<path fill="none" stroke="midnightblue" d="M923.78,-179.62C899.03,-169.49 865.03,-155.58 839.33,-145.07"/>
<polygon fill="midnightblue" stroke="midnightblue" points="922.53,-182.88 933.11,-183.43 925.18,-176.41 922.53,-182.88"/>
</g>
<!-- Node17 -->
<g id="node17" class="node">
<title>Node17</title>
<g id="a_node17"><a xlink:href="../../da/d20/class_greedy_optimizer.html#ade730f3f396b9464b50e7c5185e6f319" target="_top" xlink:title=" ">
<polygon fill="white" stroke="black" points="735,-76.5 735,-95.5 868,-95.5 868,-76.5 735,-76.5"/>
<text text-anchor="middle" x="801.5" y="-83.5" font-family="Helvetica,sans-Serif" font-size="10.00">GreedyOptimizer::optimize</text>
</a>
</g>
</g>
<!-- Node1&#45;&gt;Node17 -->
<g id="edge20" class="edge">
<title>Node1&#45;&gt;Node17</title>
<path fill="none" stroke="midnightblue" d="M944.29,-175.15C929.66,-155.11 903.28,-123.05 873,-105 866.47,-101.11 859.12,-97.99 851.71,-95.51"/>
<polygon fill="midnightblue" stroke="midnightblue" points="941.52,-177.29 950.16,-183.42 947.23,-173.24 941.52,-177.29"/>
</g>
<!-- Node18 -->
<g id="node18" class="node">
<title>Node18</title>
<g id="a_node18"><a xlink:href="../../d0/d4c/class_null_optimizer.html#a1e6bb8c39e5ed279b4adc430738daee2" target="_top" xlink:title=" ">
<polygon fill="white" stroke="black" points="742,-38.5 742,-57.5 861,-57.5 861,-38.5 742,-38.5"/>
<text text-anchor="middle" x="801.5" y="-45.5" font-family="Helvetica,sans-Serif" font-size="10.00">NullOptimizer::optimize</text>
</a>
</g>
</g>
<!-- Node1&#45;&gt;Node18 -->
<g id="edge22" class="edge">
<title>Node1&#45;&gt;Node18</title>
<path fill="none" stroke="midnightblue" d="M949.1,-173.99C937.29,-146.19 911.51,-94.75 873,-67 867.65,-63.15 861.57,-60.07 855.27,-57.63"/>
<polygon fill="midnightblue" stroke="midnightblue" points="945.92,-175.46 952.94,-183.39 952.4,-172.81 945.92,-175.46"/>
</g>
<!-- Node19 -->
<g id="node19" class="node">
<title>Node19</title>
<g id="a_node19"><a xlink:href="../../d2/d35/class_random_optimizer.html#aa5ce0ce1fb926e31ed56452870a2b9d7" target="_top" xlink:title=" ">
<polygon fill="white" stroke="black" points="732.5,-0.5 732.5,-19.5 870.5,-19.5 870.5,-0.5 732.5,-0.5"/>
<text text-anchor="middle" x="801.5" y="-7.5" font-family="Helvetica,sans-Serif" font-size="10.00">RandomOptimizer::optimize</text>
</a>
</g>
</g>
<!-- Node1&#45;&gt;Node19 -->
<g id="edge23" class="edge">
<title>Node1&#45;&gt;Node19</title>
<path fill="none" stroke="midnightblue" d="M952.04,-173.27C943.18,-138.67 920.02,-67.14 873,-29 868.18,-25.09 862.62,-21.98 856.78,-19.5"/>
<polygon fill="midnightblue" stroke="midnightblue" points="948.67,-174.22 954.43,-183.11 955.47,-172.57 948.67,-174.22"/>
</g>
<!-- Node3 -->
<g id="node3" class="node">
<title>Node3</title>
<g id="a_node3"><a xlink:href="../../de/d17/class_great_deluge_optimizer.html#ac56ec7a807a73b6d9a588faa1a433885" target="_top" xlink:title="Run the great deluge algorithm.">
<polygon fill="white" stroke="black" points="565,-554 565,-584 678,-584 678,-554 565,-554"/>
<text text-anchor="start" x="573" y="-572" font-family="Helvetica,sans-Serif" font-size="10.00">GreatDelugeOptimizer</text>
<text text-anchor="middle" x="621.5" y="-561" font-family="Helvetica,sans-Serif" font-size="10.00">::greatDeluge</text>
</a>
</g>
</g>
<!-- Node2&#45;&gt;Node3 -->
<g id="edge2" class="edge">
<title>Node2&#45;&gt;Node3</title>
<path fill="none" stroke="midnightblue" d="M781.41,-410.66C760.64,-434.94 726.1,-474.28 694,-506 676.7,-523.09 655.69,-541.33 640.94,-553.76"/>
<polygon fill="midnightblue" stroke="midnightblue" points="784.09,-412.91 787.9,-403.03 778.76,-408.38 784.09,-412.91"/>
</g>
<!-- Node5 -->
<g id="node5" class="node">
<title>Node5</title>
<g id="a_node5"><a xlink:href="../../d1/d15/class_hill_climbing_optimizer.html#a9795a338d707c56b13c72901ae29d5a6" target="_top" xlink:title="Run hill climbing algorithm.">
<polygon fill="white" stroke="black" points="566,-466 566,-496 677,-496 677,-466 566,-466"/>
<text text-anchor="start" x="574" y="-484" font-family="Helvetica,sans-Serif" font-size="10.00">HillClimbingOptimizer</text>
<text text-anchor="middle" x="621.5" y="-473" font-family="Helvetica,sans-Serif" font-size="10.00">::hillClimbing</text>
</a>
</g>
</g>
<!-- Node2&#45;&gt;Node5 -->
<g id="edge4" class="edge">
<title>Node2&#45;&gt;Node5</title>
<path fill="none" stroke="midnightblue" d="M772.22,-409.13C751.39,-423.98 721.95,-443.52 694,-457 687.28,-460.24 680,-463.23 672.76,-465.92"/>
<polygon fill="midnightblue" stroke="midnightblue" points="774.53,-411.78 780.59,-403.09 770.43,-406.11 774.53,-411.78"/>
</g>
<!-- Node7 -->
<g id="node7" class="node">
<title>Node7</title>
<g id="a_node7"><a xlink:href="../../d1/d15/class_hill_climbing_optimizer.html#ae2de69929faffda3aeb400bde2a5a097" target="_top" xlink:title="Run hill climbing algorithm with random restart.">
<polygon fill="white" stroke="black" points="550.5,-417 550.5,-447 692.5,-447 692.5,-417 550.5,-417"/>
<text text-anchor="start" x="558.5" y="-435" font-family="Helvetica,sans-Serif" font-size="10.00">HillClimbingOptimizer</text>
<text text-anchor="middle" x="621.5" y="-424" font-family="Helvetica,sans-Serif" font-size="10.00">::hillClimbingRandomRestart</text>
</a>
</g>
</g>
<!-- Node2&#45;&gt;Node7 -->
<g id="edge6" class="edge">
<title>Node2&#45;&gt;Node7</title>
<path fill="none" stroke="midnightblue" d="M729.76,-405.49C714.38,-409.29 698.24,-413.28 683.29,-416.97"/>
<polygon fill="midnightblue" stroke="midnightblue" points="730.87,-408.82 739.74,-403.02 729.19,-402.02 730.87,-408.82"/>
</g>
<!-- Node8 -->
<g id="node8" class="node">
<title>Node8</title>
<g id="a_node8"><a xlink:href="../../dc/d6d/class_g_a_optimizer.html#a77b17390fe144ff6740cb1ebe7677138" target="_top" xlink:title="Rank individuals corresponding to their fitness value.">
<polygon fill="white" stroke="black" points="549.5,-378.5 549.5,-397.5 693.5,-397.5 693.5,-378.5 549.5,-378.5"/>
<text text-anchor="middle" x="621.5" y="-385.5" font-family="Helvetica,sans-Serif" font-size="10.00">GAOptimizer::rankIndividuals</text>
</a>
</g>
</g>
<!-- Node2&#45;&gt;Node8 -->
<g id="edge8" class="edge">
<title>Node2&#45;&gt;Node8</title>
<path fill="none" stroke="midnightblue" d="M719.73,-388C711.02,-388 702.19,-388 693.6,-388"/>
<polygon fill="midnightblue" stroke="midnightblue" points="719.89,-391.5 729.89,-388 719.89,-384.5 719.89,-391.5"/>
</g>
<!-- Node12 -->
<g id="node12" class="node">
<title>Node12</title>
<g id="a_node12"><a xlink:href="../../d0/d53/class_simulated_annealing_optimizer.html#a31a330453c5ed600613d3e2f24dc68e4" target="_top" xlink:title=" ">
<polygon fill="white" stroke="black" points="549,-329 549,-359 694,-359 694,-329 549,-329"/>
<text text-anchor="start" x="557" y="-347" font-family="Helvetica,sans-Serif" font-size="10.00">SimulatedAnnealingOptimizer</text>
<text text-anchor="middle" x="621.5" y="-336" font-family="Helvetica,sans-Serif" font-size="10.00">::simulatedAnnealing</text>
</a>
</g>
</g>
<!-- Node2&#45;&gt;Node12 -->
<g id="edge13" class="edge">
<title>Node2&#45;&gt;Node12</title>
<path fill="none" stroke="midnightblue" d="M729.76,-370.51C714.38,-366.71 698.24,-362.72 683.29,-359.03"/>
<polygon fill="midnightblue" stroke="midnightblue" points="729.19,-373.98 739.74,-372.98 730.87,-367.18 729.19,-373.98"/>
</g>
<!-- Node14 -->
<g id="node14" class="node">
<title>Node14</title>
<g id="a_node14"><a xlink:href="../../d0/da8/class_threshold_accepting_optimizer.html#a06e883e1e27741109d637d3dabc79a03" target="_top" xlink:title="Run the threshold accepting algorithm.">
<polygon fill="white" stroke="black" points="549,-241 549,-271 694,-271 694,-241 549,-241"/>
<text text-anchor="start" x="557" y="-259" font-family="Helvetica,sans-Serif" font-size="10.00">ThresholdAcceptingOptimizer</text>
<text text-anchor="middle" x="621.5" y="-248" font-family="Helvetica,sans-Serif" font-size="10.00">::thresholdAccepting</text>
</a>
</g>
</g>
<!-- Node2&#45;&gt;Node14 -->
<g id="edge15" class="edge">
<title>Node2&#45;&gt;Node14</title>
<path fill="none" stroke="midnightblue" d="M771.92,-366.8C735.84,-340.05 674.68,-294.69 642.95,-271.17"/>
<polygon fill="midnightblue" stroke="midnightblue" points="769.96,-369.71 780.08,-372.86 774.13,-364.09 769.96,-369.71"/>
</g>
<!-- Node3&#45;&gt;Node4 -->
<g id="edge3" class="edge">
<title>Node3&#45;&gt;Node4</title>
<path fill="none" stroke="midnightblue" d="M554.77,-576.49C531.43,-579.15 505.41,-582.12 483.01,-584.67"/>
<polygon fill="midnightblue" stroke="midnightblue" points="555.4,-579.94 564.94,-575.33 554.6,-572.99 555.4,-579.94"/>
</g>
<!-- Node5&#45;&gt;Node6 -->
<g id="edge5" class="edge">
<title>Node5&#45;&gt;Node6</title>
<path fill="none" stroke="midnightblue" d="M555.92,-481C532.02,-481 505.18,-481 482.23,-481"/>
<polygon fill="midnightblue" stroke="midnightblue" points="555.97,-484.5 565.97,-481 555.97,-477.5 555.97,-484.5"/>
</g>
<!-- Node7&#45;&gt;Node6 -->
<g id="edge7" class="edge">
<title>Node7&#45;&gt;Node6</title>
<path fill="none" stroke="midnightblue" d="M551.33,-449.56C528.54,-455.35 503.54,-461.69 482,-467.16"/>
<polygon fill="midnightblue" stroke="midnightblue" points="552.45,-452.89 561.28,-447.03 550.73,-446.1 552.45,-452.89"/>
</g>
<!-- Node9 -->
<g id="node9" class="node">
<title>Node9</title>
<g id="a_node9"><a xlink:href="../../dc/d6d/class_g_a_optimizer.html#a37941b6f02ffe5e777f0d3e421158205" target="_top" xlink:title="Generate next population of individuals.">
<polygon fill="white" stroke="black" points="340,-340.5 340,-359.5 513,-359.5 513,-340.5 340,-340.5"/>
<text text-anchor="middle" x="426.5" y="-347.5" font-family="Helvetica,sans-Serif" font-size="10.00">GAOptimizer::createNextPopulation</text>
</a>
</g>
</g>
<!-- Node8&#45;&gt;Node9 -->
<g id="edge9" class="edge">
<title>Node8&#45;&gt;Node9</title>
<path fill="none" stroke="midnightblue" d="M561.9,-376.46C534.37,-371.04 501.95,-364.66 475.85,-359.52"/>
<polygon fill="midnightblue" stroke="midnightblue" points="561.31,-379.91 571.8,-378.41 562.66,-373.05 561.31,-379.91"/>
</g>
<!-- Node10 -->
<g id="node10" class="node">
<title>Node10</title>
<g id="a_node10"><a xlink:href="../../dc/d6d/class_g_a_optimizer.html#a8f46197186eebd33cb79cb317722eed9" target="_top" xlink:title="Run the genetic algorithm.">
<polygon fill="white" stroke="black" points="152,-340.5 152,-359.5 304,-359.5 304,-340.5 152,-340.5"/>
<text text-anchor="middle" x="228" y="-347.5" font-family="Helvetica,sans-Serif" font-size="10.00">GAOptimizer::geneticAlgorithm</text>
</a>
</g>
</g>
<!-- Node8&#45;&gt;Node10 -->
<g id="edge12" class="edge">
<title>Node8&#45;&gt;Node10</title>
<path fill="none" stroke="midnightblue" d="M539.18,-384.68C483.08,-381.86 406.84,-376.96 340,-369 319.71,-366.58 297.49,-362.97 278.3,-359.55"/>
<polygon fill="midnightblue" stroke="midnightblue" points="539.26,-388.19 549.42,-385.19 539.6,-381.2 539.26,-388.19"/>
</g>
<!-- Node9&#45;&gt;Node10 -->
<g id="edge10" class="edge">
<title>Node9&#45;&gt;Node10</title>
<path fill="none" stroke="midnightblue" d="M329.8,-350C321.2,-350 312.56,-350 304.16,-350"/>
<polygon fill="midnightblue" stroke="midnightblue" points="329.88,-353.5 339.88,-350 329.88,-346.5 329.88,-353.5"/>
</g>
<!-- Node10&#45;&gt;Node11 -->
<g id="edge11" class="edge">
<title>Node10&#45;&gt;Node11</title>
<path fill="none" stroke="midnightblue" d="M199.65,-335.67C165.16,-317.61 106.8,-287.04 77.28,-271.57"/>
<polygon fill="midnightblue" stroke="midnightblue" points="198.22,-338.88 208.7,-340.41 201.47,-332.67 198.22,-338.88"/>
</g>
<!-- Node12&#45;&gt;Node13 -->
<g id="edge14" class="edge">
<title>Node12&#45;&gt;Node13</title>
<path fill="none" stroke="midnightblue" d="M539.78,-326.85C526,-323.92 511.77,-320.9 498.26,-318.03"/>
<polygon fill="midnightblue" stroke="midnightblue" points="539.22,-330.31 549.73,-328.97 540.68,-323.46 539.22,-330.31"/>
</g>
<!-- Node14&#45;&gt;Node15 -->
<g id="edge16" class="edge">
<title>Node14&#45;&gt;Node15</title>
<path fill="none" stroke="midnightblue" d="M538.93,-248.39C525.76,-247.16 512.21,-245.9 499.3,-244.7"/>
<polygon fill="midnightblue" stroke="midnightblue" points="538.63,-251.88 548.91,-249.32 539.28,-244.91 538.63,-251.88"/>
</g>
</g>
</svg>
