<?xml version="1.0" encoding="UTF-8" standalone="no"?>
<!DOCTYPE svg PUBLIC "-//W3C//DTD SVG 1.1//EN"
 "http://www.w3.org/Graphics/SVG/1.1/DTD/svg11.dtd">
<!-- Generated by graphviz version 2.44.0 (0)
 -->
<!-- Title: AStar::cost Pages: 1 -->
<svg width="195pt" height="66pt"
 viewBox="0.00 0.00 195.00 66.00" xmlns="http://www.w3.org/2000/svg" xmlns:xlink="http://www.w3.org/1999/xlink">
<g id="graph0" class="graph" transform="scale(1 1) rotate(0) translate(4 62)">
<title>AStar::cost</title>
<polygon fill="white" stroke="transparent" points="-4,4 -4,-62 191,-62 191,4 -4,4"/>
<!-- Node1 -->
<g id="node1" class="node">
<title>Node1</title>
<g id="a_node1"><a xlink:title="Return the cost of traversing the voxel.">
<polygon fill="#bfbfbf" stroke="black" points="0,-19.5 0,-38.5 66,-38.5 66,-19.5 0,-19.5"/>
<text text-anchor="middle" x="33" y="-26.5" font-family="Helvetica,sans-Serif" font-size="10.00">AStar::cost</text>
</a>
</g>
</g>
<!-- Node2 -->
<g id="node2" class="node">
<title>Node2</title>
<g id="a_node2"><a xlink:href="../../de/d52/class_a_star.html#afca90a393cbdf6550cb2a3c5249bac66" target="_top" xlink:title="Compute 3D integer coordinate index from 1D linearized index.">
<polygon fill="white" stroke="black" points="102,-38.5 102,-57.5 187,-57.5 187,-38.5 102,-38.5"/>
<text text-anchor="middle" x="144.5" y="-45.5" font-family="Helvetica,sans-Serif" font-size="10.00">AStar::coordIdx</text>
</a>
</g>
</g>
<!-- Node1&#45;&gt;Node2 -->
<g id="edge1" class="edge">
<title>Node1&#45;&gt;Node2</title>
<path fill="none" stroke="midnightblue" d="M66.26,-34.6C74.24,-35.98 82.99,-37.5 91.65,-39"/>
<polygon fill="midnightblue" stroke="midnightblue" points="91.26,-42.49 101.71,-40.75 92.46,-35.59 91.26,-42.49"/>
</g>
<!-- Node3 -->
<g id="node3" class="node">
<title>Node3</title>
<g id="a_node3"><a xlink:href="../../de/d52/class_a_star.html#abc66e4863cf4c15f616098e60469e50b" target="_top" xlink:title="Compute 1D linearized index from 3D&#45;coodinate index.">
<polygon fill="white" stroke="black" points="114.5,-0.5 114.5,-19.5 174.5,-19.5 174.5,-0.5 114.5,-0.5"/>
<text text-anchor="middle" x="144.5" y="-7.5" font-family="Helvetica,sans-Serif" font-size="10.00">AStar::idx</text>
</a>
</g>
</g>
<!-- Node1&#45;&gt;Node3 -->
<g id="edge2" class="edge">
<title>Node1&#45;&gt;Node3</title>
<path fill="none" stroke="midnightblue" d="M66.26,-23.4C78.19,-21.33 91.84,-18.96 104.31,-16.8"/>
<polygon fill="midnightblue" stroke="midnightblue" points="105.2,-20.2 114.45,-15.04 104,-13.3 105.2,-20.2"/>
</g>
</g>
</svg>
