<?xml version="1.0" encoding="UTF-8" standalone="no"?>
<!DOCTYPE svg PUBLIC "-//W3C//DTD SVG 1.1//EN"
 "http://www.w3.org/Graphics/SVG/1.1/DTD/svg11.dtd">
<!-- Generated by graphviz version 2.44.0 (0)
 -->
<!-- Title: AStar::resetGrid Pages: 1 -->
<svg width="305pt" height="28pt"
 viewBox="0.00 0.00 305.00 28.00" xmlns="http://www.w3.org/2000/svg" xmlns:xlink="http://www.w3.org/1999/xlink">
<g id="graph0" class="graph" transform="scale(1 1) rotate(0) translate(4 24)">
<title>AStar::resetGrid</title>
<polygon fill="white" stroke="transparent" points="-4,4 -4,-24 301,-24 301,4 -4,4"/>
<!-- Node1 -->
<g id="node1" class="node">
<title>Node1</title>
<g id="a_node1"><a xlink:title="Resets the 3D voxel grid to it&#39;s default values.">
<polygon fill="#bfbfbf" stroke="black" points="0,-0.5 0,-19.5 87,-19.5 87,-0.5 0,-0.5"/>
<text text-anchor="middle" x="43.5" y="-7.5" font-family="Helvetica,sans-Serif" font-size="10.00">AStar::resetGrid</text>
</a>
</g>
</g>
<!-- Node2 -->
<g id="node2" class="node">
<title>Node2</title>
<g id="a_node2"><a xlink:href="../../de/d52/class_a_star.html#aadbff393646adec069b3264bed4edc9f" target="_top" xlink:title="Initializes the 3D voxel grid.">
<polygon fill="white" stroke="black" points="123,-0.5 123,-19.5 201,-19.5 201,-0.5 123,-0.5"/>
<text text-anchor="middle" x="162" y="-7.5" font-family="Helvetica,sans-Serif" font-size="10.00">AStar::initGrid</text>
</a>
</g>
</g>
<!-- Node1&#45;&gt;Node2 -->
<g id="edge1" class="edge">
<title>Node1&#45;&gt;Node2</title>
<path fill="none" stroke="midnightblue" d="M87.22,-10C95.53,-10 104.29,-10 112.77,-10"/>
<polygon fill="midnightblue" stroke="midnightblue" points="112.91,-13.5 122.91,-10 112.91,-6.5 112.91,-13.5"/>
</g>
<!-- Node3 -->
<g id="node3" class="node">
<title>Node3</title>
<g id="a_node3"><a xlink:href="../../de/d52/class_a_star.html#abc66e4863cf4c15f616098e60469e50b" target="_top" xlink:title="Compute 1D linearized index from 3D&#45;coodinate index.">
<polygon fill="white" stroke="black" points="237,-0.5 237,-19.5 297,-19.5 297,-0.5 237,-0.5"/>
<text text-anchor="middle" x="267" y="-7.5" font-family="Helvetica,sans-Serif" font-size="10.00">AStar::idx</text>
</a>
</g>
</g>
<!-- Node2&#45;&gt;Node3 -->
<g id="edge2" class="edge">
<title>Node2&#45;&gt;Node3</title>
<path fill="none" stroke="midnightblue" d="M201.06,-10C209.36,-10 218.16,-10 226.52,-10"/>
<polygon fill="midnightblue" stroke="midnightblue" points="226.79,-13.5 236.79,-10 226.79,-6.5 226.79,-13.5"/>
</g>
</g>
</svg>
