<?xml version="1.0" encoding="UTF-8" standalone="no"?>
<!DOCTYPE svg PUBLIC "-//W3C//DTD SVG 1.1//EN"
 "http://www.w3.org/Graphics/SVG/1.1/DTD/svg11.dtd">
<!-- Generated by graphviz version 2.44.0 (0)
 -->
<!-- Title: MeshSubtractor::update Pages: 1 -->
<svg width="820pt" height="307pt"
 viewBox="0.00 0.00 820.00 306.50" xmlns="http://www.w3.org/2000/svg" xmlns:xlink="http://www.w3.org/1999/xlink">
<g id="graph0" class="graph" transform="scale(1 1) rotate(0) translate(4 302.5)">
<title>MeshSubtractor::update</title>
<polygon fill="white" stroke="transparent" points="-4,4 -4,-302.5 816,-302.5 816,4 -4,4"/>
<!-- Node1 -->
<g id="node1" class="node">
<title>Node1</title>
<g id="a_node1"><a xlink:title=" ">
<polygon fill="#bfbfbf" stroke="black" points="0,-199.5 0,-218.5 121,-218.5 121,-199.5 0,-199.5"/>
<text text-anchor="middle" x="60.5" y="-206.5" font-family="Helvetica,sans-Serif" font-size="10.00">MeshSubtractor::update</text>
</a>
</g>
</g>
<!-- Node2 -->
<g id="node2" class="node">
<title>Node2</title>
<g id="a_node2"><a xlink:href="../../d8/dc0/class_single_pass_voxelizer.html#ac17200ce0d201d34f3a3128429a4ad6e" target="_top" xlink:title="Return voxel grid outputimage.">
<polygon fill="white" stroke="black" points="164.5,-268 164.5,-298 270.5,-298 270.5,-268 164.5,-268"/>
<text text-anchor="start" x="172.5" y="-286" font-family="Helvetica,sans-Serif" font-size="10.00">SinglePassVoxelizer</text>
<text text-anchor="middle" x="217.5" y="-275" font-family="Helvetica,sans-Serif" font-size="10.00">::getOutput</text>
</a>
</g>
</g>
<!-- Node1&#45;&gt;Node2 -->
<g id="edge1" class="edge">
<title>Node1&#45;&gt;Node2</title>
<path fill="none" stroke="midnightblue" d="M78.5,-218.55C97.4,-229.02 128.97,-246.05 157,-259 160.59,-260.66 164.34,-262.32 168.12,-263.95"/>
<polygon fill="midnightblue" stroke="midnightblue" points="166.96,-267.26 177.54,-267.93 169.68,-260.82 166.96,-267.26"/>
</g>
<!-- Node3 -->
<g id="node3" class="node">
<title>Node3</title>
<g id="a_node3"><a xlink:href="../../d8/dc0/class_single_pass_voxelizer.html#a5fb7f7c6b8ba614d34e3a1d4484289a0" target="_top" xlink:title="Set mesh geometry (vtkPolyData) as input data.">
<polygon fill="white" stroke="black" points="164.5,-219 164.5,-249 270.5,-249 270.5,-219 164.5,-219"/>
<text text-anchor="start" x="172.5" y="-237" font-family="Helvetica,sans-Serif" font-size="10.00">SinglePassVoxelizer</text>
<text text-anchor="middle" x="217.5" y="-226" font-family="Helvetica,sans-Serif" font-size="10.00">::setInputData</text>
</a>
</g>
</g>
<!-- Node1&#45;&gt;Node3 -->
<g id="edge2" class="edge">
<title>Node1&#45;&gt;Node3</title>
<path fill="none" stroke="midnightblue" d="M120.54,-218.52C131.55,-220.3 143.08,-222.16 154.18,-223.95"/>
<polygon fill="midnightblue" stroke="midnightblue" points="153.79,-227.43 164.22,-225.57 154.9,-220.52 153.79,-227.43"/>
</g>
<!-- Node4 -->
<g id="node4" class="node">
<title>Node4</title>
<g id="a_node4"><a xlink:href="../../d8/dc0/class_single_pass_voxelizer.html#a1f2ed962317ccd07a2013e3e611ec1d0" target="_top" xlink:title="Set voxel grid dimensions.">
<polygon fill="white" stroke="black" points="157,-170 157,-200 278,-200 278,-170 157,-170"/>
<text text-anchor="start" x="165" y="-188" font-family="Helvetica,sans-Serif" font-size="10.00">SinglePassVoxelizer</text>
<text text-anchor="middle" x="217.5" y="-177" font-family="Helvetica,sans-Serif" font-size="10.00">::setSampleDimensions</text>
</a>
</g>
</g>
<!-- Node1&#45;&gt;Node4 -->
<g id="edge3" class="edge">
<title>Node1&#45;&gt;Node4</title>
<path fill="none" stroke="midnightblue" d="M121.43,-199.72C129.82,-198.42 138.49,-197.08 147.04,-195.76"/>
<polygon fill="midnightblue" stroke="midnightblue" points="147.64,-199.2 156.99,-194.21 146.57,-192.29 147.64,-199.2"/>
</g>
<!-- Node5 -->
<g id="node5" class="node">
<title>Node5</title>
<g id="a_node5"><a xlink:href="../../d8/dc0/class_single_pass_voxelizer.html#a2cd430591b881ba1fed2294284283fd1" target="_top" xlink:title="Execute voxelization algorithm.">
<polygon fill="white" stroke="black" points="164.5,-121 164.5,-151 270.5,-151 270.5,-121 164.5,-121"/>
<text text-anchor="start" x="172.5" y="-139" font-family="Helvetica,sans-Serif" font-size="10.00">SinglePassVoxelizer</text>
<text text-anchor="middle" x="217.5" y="-128" font-family="Helvetica,sans-Serif" font-size="10.00">::update</text>
</a>
</g>
</g>
<!-- Node1&#45;&gt;Node5 -->
<g id="edge4" class="edge">
<title>Node1&#45;&gt;Node5</title>
<path fill="none" stroke="midnightblue" d="M79.63,-199.43C98.71,-189.46 129.7,-173.58 157,-161 161.29,-159.02 165.78,-157.02 170.29,-155.05"/>
<polygon fill="midnightblue" stroke="midnightblue" points="171.71,-158.25 179.51,-151.08 168.94,-151.82 171.71,-158.25"/>
</g>
<!-- Node6 -->
<g id="node6" class="node">
<title>Node6</title>
<g id="a_node6"><a xlink:href="../../d3/d01/class_surface_voxelizer.html#a6229ddeb8b8ffac7578bc61ea59f21c4" target="_top" xlink:title="Return voxel grid outputimage.">
<polygon fill="white" stroke="black" points="320.5,-202.5 320.5,-221.5 459.5,-221.5 459.5,-202.5 320.5,-202.5"/>
<text text-anchor="middle" x="390" y="-209.5" font-family="Helvetica,sans-Serif" font-size="10.00">SurfaceVoxelizer::getOutput</text>
</a>
</g>
</g>
<!-- Node5&#45;&gt;Node6 -->
<g id="edge5" class="edge">
<title>Node5&#45;&gt;Node6</title>
<path fill="none" stroke="midnightblue" d="M259.41,-151.08C265.81,-154.03 272.22,-157.36 278,-161 296.11,-172.41 295.09,-182.97 314,-193 318.3,-195.28 322.88,-197.29 327.58,-199.07"/>
<polygon fill="midnightblue" stroke="midnightblue" points="326.75,-202.49 337.35,-202.4 329.01,-195.86 326.75,-202.49"/>
</g>
<!-- Node7 -->
<g id="node7" class="node">
<title>Node7</title>
<g id="a_node7"><a xlink:href="../../d8/dc0/class_single_pass_voxelizer.html#a65b2a7153ad56902731dc5076fccb393" target="_top" xlink:title=" ">
<polygon fill="white" stroke="black" points="327.5,-164.5 327.5,-183.5 452.5,-183.5 452.5,-164.5 327.5,-164.5"/>
<text text-anchor="middle" x="390" y="-171.5" font-family="Helvetica,sans-Serif" font-size="10.00">SinglePassVoxelizer::idx</text>
</a>
</g>
</g>
<!-- Node5&#45;&gt;Node7 -->
<g id="edge6" class="edge">
<title>Node5&#45;&gt;Node7</title>
<path fill="none" stroke="midnightblue" d="M270.58,-147.61C291.37,-152.24 315.27,-157.57 336.14,-162.22"/>
<polygon fill="midnightblue" stroke="midnightblue" points="335.59,-165.68 346.11,-164.44 337.11,-158.85 335.59,-165.68"/>
</g>
<!-- Node8 -->
<g id="node8" class="node">
<title>Node8</title>
<g id="a_node8"><a xlink:href="../../d3/d01/class_surface_voxelizer.html#a95de539d4c1fcec15fe71e0e198146f3" target="_top" xlink:title="Set mesh geometry (vtkPolyData) as input data.">
<polygon fill="white" stroke="black" points="314,-126.5 314,-145.5 466,-145.5 466,-126.5 314,-126.5"/>
<text text-anchor="middle" x="390" y="-133.5" font-family="Helvetica,sans-Serif" font-size="10.00">SurfaceVoxelizer::setInputData</text>
</a>
</g>
</g>
<!-- Node5&#45;&gt;Node8 -->
<g id="edge7" class="edge">
<title>Node5&#45;&gt;Node8</title>
<path fill="none" stroke="midnightblue" d="M270.58,-136C281,-136 292.21,-136 303.42,-136"/>
<polygon fill="midnightblue" stroke="midnightblue" points="303.7,-139.5 313.7,-136 303.7,-132.5 303.7,-139.5"/>
</g>
<!-- Node9 -->
<g id="node9" class="node">
<title>Node9</title>
<g id="a_node9"><a xlink:href="../../d3/d01/class_surface_voxelizer.html#a233c618ca6eedc6b0a3cb05652e128e6" target="_top" xlink:title="Set voxel grid dimensions.">
<polygon fill="white" stroke="black" points="318.5,-77 318.5,-107 461.5,-107 461.5,-77 318.5,-77"/>
<text text-anchor="start" x="326.5" y="-95" font-family="Helvetica,sans-Serif" font-size="10.00">SurfaceVoxelizer::setSample</text>
<text text-anchor="middle" x="390" y="-84" font-family="Helvetica,sans-Serif" font-size="10.00">Dimensions</text>
</a>
</g>
</g>
<!-- Node5&#45;&gt;Node9 -->
<g id="edge8" class="edge">
<title>Node5&#45;&gt;Node9</title>
<path fill="none" stroke="midnightblue" d="M270.58,-122.56C286.46,-118.46 304.17,-113.89 320.94,-109.56"/>
<polygon fill="midnightblue" stroke="midnightblue" points="321.88,-112.94 330.69,-107.05 320.13,-106.16 321.88,-112.94"/>
</g>
<!-- Node10 -->
<g id="node10" class="node">
<title>Node10</title>
<g id="a_node10"><a xlink:href="../../d3/d01/class_surface_voxelizer.html#ad92c2d3d705fd77a35eca686805fd6b5" target="_top" xlink:title="Execute voxelization algorithm.">
<polygon fill="white" stroke="black" points="327.5,-38.5 327.5,-57.5 452.5,-57.5 452.5,-38.5 327.5,-38.5"/>
<text text-anchor="middle" x="390" y="-45.5" font-family="Helvetica,sans-Serif" font-size="10.00">SurfaceVoxelizer::update</text>
</a>
</g>
</g>
<!-- Node5&#45;&gt;Node10 -->
<g id="edge9" class="edge">
<title>Node5&#45;&gt;Node10</title>
<path fill="none" stroke="midnightblue" d="M235.6,-120.91C253.85,-105.54 284.16,-82.03 314,-68 320.06,-65.15 326.6,-62.65 333.2,-60.47"/>
<polygon fill="midnightblue" stroke="midnightblue" points="334.32,-63.79 342.86,-57.52 332.27,-57.1 334.32,-63.79"/>
</g>
<!-- Node11 -->
<g id="node11" class="node">
<title>Node11</title>
<g id="a_node11"><a xlink:href="../../d3/d01/class_surface_voxelizer.html#a561f458666b251ca2a008d91c3d40eda" target="_top" xlink:title="Compute 1D linearized index from 3D index.">
<polygon fill="white" stroke="black" points="517.5,-76.5 517.5,-95.5 626.5,-95.5 626.5,-76.5 517.5,-76.5"/>
<text text-anchor="middle" x="572" y="-83.5" font-family="Helvetica,sans-Serif" font-size="10.00">SurfaceVoxelizer::idx</text>
</a>
</g>
</g>
<!-- Node10&#45;&gt;Node11 -->
<g id="edge10" class="edge">
<title>Node10&#45;&gt;Node11</title>
<path fill="none" stroke="midnightblue" d="M436.42,-57.59C460.6,-62.69 490.53,-69.01 516.01,-74.39"/>
<polygon fill="midnightblue" stroke="midnightblue" points="515.4,-77.84 525.91,-76.48 516.84,-70.99 515.4,-77.84"/>
</g>
<!-- Node12 -->
<g id="node12" class="node">
<title>Node12</title>
<g id="a_node12"><a xlink:href="../../d3/d01/class_surface_voxelizer.html#a3e6ab3230ceb81ca440c9a9ec8e57a51" target="_top" xlink:title="Compute voxel grid integer index equivalent from world coordinate.">
<polygon fill="white" stroke="black" points="502,-38.5 502,-57.5 642,-57.5 642,-38.5 502,-38.5"/>
<text text-anchor="middle" x="572" y="-45.5" font-family="Helvetica,sans-Serif" font-size="10.00">SurfaceVoxelizer::posToCell</text>
</a>
</g>
</g>
<!-- Node10&#45;&gt;Node12 -->
<g id="edge11" class="edge">
<title>Node10&#45;&gt;Node12</title>
<path fill="none" stroke="midnightblue" d="M452.69,-48C465.22,-48 478.56,-48 491.6,-48"/>
<polygon fill="midnightblue" stroke="midnightblue" points="491.98,-51.5 501.98,-48 491.98,-44.5 491.98,-51.5"/>
</g>
<!-- Node14 -->
<g id="node14" class="node">
<title>Node14</title>
<g id="a_node14"><a xlink:href="../../d3/da6/surfacevoxelizer_8h.html#afa23ae24e8d335ddaaffe1c53e3a3785" target="_top" xlink:title=" ">
<polygon fill="white" stroke="black" points="534,-0.5 534,-19.5 610,-19.5 610,-0.5 534,-0.5"/>
<text text-anchor="middle" x="572" y="-7.5" font-family="Helvetica,sans-Serif" font-size="10.00">triBoxOverlap</text>
</a>
</g>
</g>
<!-- Node10&#45;&gt;Node14 -->
<g id="edge13" class="edge">
<title>Node10&#45;&gt;Node14</title>
<path fill="none" stroke="midnightblue" d="M436.42,-38.41C463.11,-32.78 496.8,-25.67 523.79,-19.97"/>
<polygon fill="midnightblue" stroke="midnightblue" points="524.72,-23.35 533.78,-17.86 523.27,-16.5 524.72,-23.35"/>
</g>
<!-- Node13 -->
<g id="node13" class="node">
<title>Node13</title>
<g id="a_node13"><a xlink:href="../../d3/d01/class_surface_voxelizer.html#abf6ba302b811d653c38f9bddd6a95856" target="_top" xlink:title="Clamp integer values between min and max.">
<polygon fill="white" stroke="black" points="678,-38.5 678,-57.5 812,-57.5 812,-38.5 678,-38.5"/>
<text text-anchor="middle" x="745" y="-45.5" font-family="Helvetica,sans-Serif" font-size="10.00">SurfaceVoxelizer::clampInt</text>
</a>
</g>
</g>
<!-- Node12&#45;&gt;Node13 -->
<g id="edge12" class="edge">
<title>Node12&#45;&gt;Node13</title>
<path fill="none" stroke="midnightblue" d="M642.06,-48C650.43,-48 659.02,-48 667.48,-48"/>
<polygon fill="midnightblue" stroke="midnightblue" points="667.73,-51.5 677.73,-48 667.73,-44.5 667.73,-51.5"/>
</g>
<!-- Node15 -->
<g id="node15" class="node">
<title>Node15</title>
<g id="a_node15"><a xlink:href="../../d3/da6/surfacevoxelizer_8h.html#af60a3ac6c4ab41e6e6c719f117f3732a" target="_top" xlink:title="plane box overlap based on the separating axis theorem Adapted from">
<polygon fill="white" stroke="black" points="699.5,-0.5 699.5,-19.5 790.5,-19.5 790.5,-0.5 699.5,-0.5"/>
<text text-anchor="middle" x="745" y="-7.5" font-family="Helvetica,sans-Serif" font-size="10.00">planeBoxOverlap</text>
</a>
</g>
</g>
<!-- Node14&#45;&gt;Node15 -->
<g id="edge14" class="edge">
<title>Node14&#45;&gt;Node15</title>
<path fill="none" stroke="midnightblue" d="M610.1,-10C633.26,-10 663.47,-10 689.34,-10"/>
<polygon fill="midnightblue" stroke="midnightblue" points="689.38,-13.5 699.38,-10 689.38,-6.5 689.38,-13.5"/>
</g>
</g>
</svg>
