<?xml version="1.0" encoding="UTF-8" standalone="no"?>
<!DOCTYPE svg PUBLIC "-//W3C//DTD SVG 1.1//EN"
 "http://www.w3.org/Graphics/SVG/1.1/DTD/svg11.dtd">
<!-- Generated by graphviz version 2.44.1 (0)
 -->
<!-- Title: GreedyOptimizer::optimize Pages: 1 -->
<svg width="703pt" height="356pt"
 viewBox="0.00 0.00 703.00 355.50" xmlns="http://www.w3.org/2000/svg" xmlns:xlink="http://www.w3.org/1999/xlink">
<g id="graph0" class="graph" transform="scale(1 1) rotate(0) translate(4 351.5)">
<title>GreedyOptimizer::optimize</title>
<polygon fill="white" stroke="transparent" points="-4,4 -4,-351.5 699,-351.5 699,4 -4,4"/>
<!-- Node1 -->
<g id="node1" class="node">
<title>Node1</title>
<g id="a_node1"><a xlink:title=" ">
<polygon fill="#bfbfbf" stroke="black" points="0,-152.5 0,-171.5 133,-171.5 133,-152.5 0,-152.5"/>
<text text-anchor="middle" x="66.5" y="-159.5" font-family="Helvetica,sans-Serif" font-size="10.00">GreedyOptimizer::optimize</text>
</a>
</g>
</g>
<!-- Node2 -->
<g id="node2" class="node">
<title>Node2</title>
<g id="a_node2"><a xlink:href="../../d9/d58/class_touchpoint.html#a30cdb1f0de39cf4ffe2d23c3c750d331" target="_top" xlink:title="Return outside wiring entry point (grid coordinates)">
<polygon fill="white" stroke="black" points="182.5,-317 182.5,-347 315.5,-347 315.5,-317 182.5,-317"/>
<text text-anchor="start" x="190.5" y="-335" font-family="Helvetica,sans-Serif" font-size="10.00">Touchpoint::getConnection</text>
<text text-anchor="middle" x="249" y="-324" font-family="Helvetica,sans-Serif" font-size="10.00">PointIndex</text>
</a>
</g>
</g>
<!-- Node1&#45;&gt;Node2 -->
<g id="edge1" class="edge">
<title>Node1&#45;&gt;Node2</title>
<path fill="none" stroke="midnightblue" d="M71.6,-171.77C83.01,-197.79 117.73,-269.36 169,-307 171.53,-308.86 174.2,-310.58 176.97,-312.17"/>
<polygon fill="midnightblue" stroke="midnightblue" points="175.6,-315.41 186.1,-316.85 178.8,-309.18 175.6,-315.41"/>
</g>
<!-- Node3 -->
<g id="node3" class="node">
<title>Node3</title>
<g id="a_node3"><a xlink:href="../../d6/db5/class_scene.html#a64cb0dcdcb57a45fe485fb3489c112c4" target="_top" xlink:title="Return if the 26&#45;neighborhood voxels of a connection path are locked too.">
<polygon fill="white" stroke="black" points="172.5,-278.5 172.5,-297.5 325.5,-297.5 325.5,-278.5 172.5,-278.5"/>
<text text-anchor="middle" x="249" y="-285.5" font-family="Helvetica,sans-Serif" font-size="10.00">Scene::getLockNeighborVoxels</text>
</a>
</g>
</g>
<!-- Node1&#45;&gt;Node3 -->
<g id="edge2" class="edge">
<title>Node1&#45;&gt;Node3</title>
<path fill="none" stroke="midnightblue" d="M73.79,-171.76C88.02,-192.99 124.88,-243.51 169,-269 172.88,-271.24 177.02,-273.22 181.29,-274.97"/>
<polygon fill="midnightblue" stroke="midnightblue" points="180.2,-278.3 190.8,-278.43 182.6,-271.72 180.2,-278.3"/>
</g>
<!-- Node4 -->
<g id="node4" class="node">
<title>Node4</title>
<g id="a_node4"><a xlink:href="../../d6/db5/class_scene.html#abe8f9d18527a1fea362460cdc53cb5eb" target="_top" xlink:title="Return the bounds of the mesh in scene coordinates.">
<polygon fill="white" stroke="black" points="169,-229 169,-259 329,-259 329,-229 169,-229"/>
<text text-anchor="start" x="177" y="-247" font-family="Helvetica,sans-Serif" font-size="10.00">Scene::getMeshWorldCoordinate</text>
<text text-anchor="middle" x="249" y="-236" font-family="Helvetica,sans-Serif" font-size="10.00">Bounds</text>
</a>
</g>
</g>
<!-- Node1&#45;&gt;Node4 -->
<g id="edge3" class="edge">
<title>Node1&#45;&gt;Node4</title>
<path fill="none" stroke="midnightblue" d="M82.47,-171.7C101.85,-183.95 136.92,-205.09 169,-219 174.33,-221.31 179.94,-223.51 185.61,-225.58"/>
<polygon fill="midnightblue" stroke="midnightblue" points="184.58,-228.93 195.18,-228.94 186.9,-222.33 184.58,-228.93"/>
</g>
<!-- Node5 -->
<g id="node5" class="node">
<title>Node5</title>
<g id="a_node5"><a xlink:href="../../d6/db5/class_scene.html#a5c26ef724365bd55c471acc673d60674" target="_top" xlink:title="Return the touchpoint registry of the scene.">
<polygon fill="white" stroke="black" points="175,-190.5 175,-209.5 323,-209.5 323,-190.5 175,-190.5"/>
<text text-anchor="middle" x="249" y="-197.5" font-family="Helvetica,sans-Serif" font-size="10.00">Scene::getTouchpointRegistry</text>
</a>
</g>
</g>
<!-- Node1&#45;&gt;Node5 -->
<g id="edge4" class="edge">
<title>Node1&#45;&gt;Node5</title>
<path fill="none" stroke="midnightblue" d="M113.05,-171.59C137.3,-176.69 167.3,-183.01 192.86,-188.39"/>
<polygon fill="midnightblue" stroke="midnightblue" points="192.27,-191.84 202.78,-190.48 193.72,-184.99 192.27,-191.84"/>
</g>
<!-- Node6 -->
<g id="node6" class="node">
<title>Node6</title>
<g id="a_node6"><a xlink:href="../../d6/db5/class_scene.html#a7e5ee53ea01ef113afaaf4b7c10accf3" target="_top" xlink:title="Return the voxel grid image data.">
<polygon fill="white" stroke="black" points="194.5,-152.5 194.5,-171.5 303.5,-171.5 303.5,-152.5 194.5,-152.5"/>
<text text-anchor="middle" x="249" y="-159.5" font-family="Helvetica,sans-Serif" font-size="10.00">Scene::getVoxelData</text>
</a>
</g>
</g>
<!-- Node1&#45;&gt;Node6 -->
<g id="edge5" class="edge">
<title>Node1&#45;&gt;Node6</title>
<path fill="none" stroke="midnightblue" d="M133.18,-162C149.79,-162 167.6,-162 184.12,-162"/>
<polygon fill="midnightblue" stroke="midnightblue" points="184.22,-165.5 194.22,-162 184.22,-158.5 184.22,-165.5"/>
</g>
<!-- Node7 -->
<g id="node7" class="node">
<title>Node7</title>
<g id="a_node7"><a xlink:href="../../d9/d58/class_touchpoint.html#afbb2470ea0d67a12a29eb3d6bd958f01" target="_top" xlink:title="Mark voxel grid cells as occupied by the touchpoint geometry.">
<polygon fill="white" stroke="black" points="178.5,-114.5 178.5,-133.5 319.5,-133.5 319.5,-114.5 178.5,-114.5"/>
<text text-anchor="middle" x="249" y="-121.5" font-family="Helvetica,sans-Serif" font-size="10.00">Touchpoint::markOccupation</text>
</a>
</g>
</g>
<!-- Node1&#45;&gt;Node7 -->
<g id="edge6" class="edge">
<title>Node1&#45;&gt;Node7</title>
<path fill="none" stroke="midnightblue" d="M113.05,-152.41C137.3,-147.31 167.3,-140.99 192.86,-135.61"/>
<polygon fill="midnightblue" stroke="midnightblue" points="193.72,-139.01 202.78,-133.52 192.27,-132.16 193.72,-139.01"/>
</g>
<!-- Node12 -->
<g id="node12" class="node">
<title>Node12</title>
<g id="a_node12"><a xlink:href="../../de/d52/class_a_star.html#aa76c29f42861c4f6fc7c328e4dbc7d83" target="_top" xlink:title="Mark a path as locked so that it can not be used by another search.">
<polygon fill="white" stroke="black" points="204.5,-76.5 204.5,-95.5 293.5,-95.5 293.5,-76.5 204.5,-76.5"/>
<text text-anchor="middle" x="249" y="-83.5" font-family="Helvetica,sans-Serif" font-size="10.00">AStar::markPath</text>
</a>
</g>
</g>
<!-- Node1&#45;&gt;Node12 -->
<g id="edge11" class="edge">
<title>Node1&#45;&gt;Node12</title>
<path fill="none" stroke="midnightblue" d="M81.67,-152.37C100.73,-139.81 136.08,-117.92 169,-105 177.11,-101.82 185.9,-99.07 194.58,-96.72"/>
<polygon fill="midnightblue" stroke="midnightblue" points="195.46,-100.11 204.29,-94.25 193.73,-93.33 195.46,-100.11"/>
</g>
<!-- Node13 -->
<g id="node13" class="node">
<title>Node13</title>
<g id="a_node13"><a xlink:href="../../de/d52/class_a_star.html#a0d1fd50821c4cd7bbd8a87bd9fcf5dd3" target="_top" xlink:title="Search a path in the voxelgrid using the A* algorithm with the preset heuristic.">
<polygon fill="white" stroke="black" points="200.5,-38.5 200.5,-57.5 297.5,-57.5 297.5,-38.5 200.5,-38.5"/>
<text text-anchor="middle" x="249" y="-45.5" font-family="Helvetica,sans-Serif" font-size="10.00">AStar::searchPath</text>
</a>
</g>
</g>
<!-- Node1&#45;&gt;Node13 -->
<g id="edge12" class="edge">
<title>Node1&#45;&gt;Node13</title>
<path fill="none" stroke="midnightblue" d="M74.75,-152.49C89.98,-133.2 127.35,-89.44 169,-67 175.65,-63.42 182.97,-60.5 190.4,-58.13"/>
<polygon fill="midnightblue" stroke="midnightblue" points="191.53,-61.45 200.17,-55.32 189.59,-54.72 191.53,-61.45"/>
</g>
<!-- Node14 -->
<g id="node14" class="node">
<title>Node14</title>
<g id="a_node14"><a xlink:href="../../d9/d58/class_touchpoint.html#a550348f9d05c347b5186b6531d583a11" target="_top" xlink:title="Mark voxel grid cells as unoccupied by the touchpoint geometry.">
<polygon fill="white" stroke="black" points="173,-0.5 173,-19.5 325,-19.5 325,-0.5 173,-0.5"/>
<text text-anchor="middle" x="249" y="-7.5" font-family="Helvetica,sans-Serif" font-size="10.00">Touchpoint::unMarkOccupation</text>
</a>
</g>
</g>
<!-- Node1&#45;&gt;Node14 -->
<g id="edge13" class="edge">
<title>Node1&#45;&gt;Node14</title>
<path fill="none" stroke="midnightblue" d="M71.87,-152.5C83.69,-127.88 118.87,-61.66 169,-29 172.14,-26.95 175.48,-25.13 178.94,-23.5"/>
<polygon fill="midnightblue" stroke="midnightblue" points="180.43,-26.67 188.34,-19.63 177.76,-20.2 180.43,-26.67"/>
</g>
<!-- Node8 -->
<g id="node8" class="node">
<title>Node8</title>
<g id="a_node8"><a xlink:href="../../d9/d58/class_touchpoint.html#a1b82f162b238396efeae6b9369430a87" target="_top" xlink:title="Mark voxel grid cells occupied / unoccupied by the touchpoint geometry.">
<polygon fill="white" stroke="black" points="365,-52 365,-82 504,-82 504,-52 365,-52"/>
<text text-anchor="start" x="373" y="-70" font-family="Helvetica,sans-Serif" font-size="10.00">Touchpoint::markTouchpoint</text>
<text text-anchor="middle" x="434.5" y="-59" font-family="Helvetica,sans-Serif" font-size="10.00">Cells</text>
</a>
</g>
</g>
<!-- Node7&#45;&gt;Node8 -->
<g id="edge7" class="edge">
<title>Node7&#45;&gt;Node8</title>
<path fill="none" stroke="midnightblue" d="M293.7,-114.42C305.25,-111.64 317.65,-108.42 329,-105 347.72,-99.37 367.97,-92.24 385.63,-85.69"/>
<polygon fill="midnightblue" stroke="midnightblue" points="387.01,-88.91 395.14,-82.13 384.55,-82.36 387.01,-88.91"/>
</g>
<!-- Node9 -->
<g id="node9" class="node">
<title>Node9</title>
<g id="a_node9"><a xlink:href="../../d1/d7c/namespace_utils.html#ac9b063fc04e0a4e5501c8ed0af96ac47" target="_top" xlink:title="Clamp integer value between min and max.">
<polygon fill="white" stroke="black" points="577.5,-101.5 577.5,-120.5 657.5,-120.5 657.5,-101.5 577.5,-101.5"/>
<text text-anchor="middle" x="617.5" y="-108.5" font-family="Helvetica,sans-Serif" font-size="10.00">Utils::clampInt</text>
</a>
</g>
</g>
<!-- Node8&#45;&gt;Node9 -->
<g id="edge8" class="edge">
<title>Node8&#45;&gt;Node9</title>
<path fill="none" stroke="midnightblue" d="M497.28,-82.02C520.18,-87.59 545.82,-93.82 567.43,-99.07"/>
<polygon fill="midnightblue" stroke="midnightblue" points="566.83,-102.53 577.37,-101.49 568.48,-95.72 566.83,-102.53"/>
</g>
<!-- Node10 -->
<g id="node10" class="node">
<title>Node10</title>
<g id="a_node10"><a xlink:href="../../d9/d58/class_touchpoint.html#a465057d2b000f7fc374d594fb8b80ce6" target="_top" xlink:title="Return the bounds of the touchpoint in world coordinates.">
<polygon fill="white" stroke="black" points="540,-52 540,-82 695,-82 695,-52 540,-52"/>
<text text-anchor="start" x="548" y="-70" font-family="Helvetica,sans-Serif" font-size="10.00">Touchpoint::getWorldCoordinate</text>
<text text-anchor="middle" x="617.5" y="-59" font-family="Helvetica,sans-Serif" font-size="10.00">Bounds</text>
</a>
</g>
</g>
<!-- Node8&#45;&gt;Node10 -->
<g id="edge9" class="edge">
<title>Node8&#45;&gt;Node10</title>
<path fill="none" stroke="midnightblue" d="M504.19,-67C512.6,-67 521.27,-67 529.9,-67"/>
<polygon fill="midnightblue" stroke="midnightblue" points="529.99,-70.5 539.99,-67 529.99,-63.5 529.99,-70.5"/>
</g>
<!-- Node11 -->
<g id="node11" class="node">
<title>Node11</title>
<g id="a_node11"><a xlink:href="../../d1/d7c/namespace_utils.html#a606fb1eb5072ca20f56293fa71bd8578" target="_top" xlink:title="Compute 1D linearized index from 3D&#45;coodinate index.">
<polygon fill="white" stroke="black" points="589.5,-13.5 589.5,-32.5 645.5,-32.5 645.5,-13.5 589.5,-13.5"/>
<text text-anchor="middle" x="617.5" y="-20.5" font-family="Helvetica,sans-Serif" font-size="10.00">Utils::idx</text>
</a>
</g>
</g>
<!-- Node8&#45;&gt;Node11 -->
<g id="edge10" class="edge">
<title>Node8&#45;&gt;Node11</title>
<path fill="none" stroke="midnightblue" d="M497.28,-51.98C524.58,-45.34 555.77,-37.76 579.4,-32.02"/>
<polygon fill="midnightblue" stroke="midnightblue" points="580.46,-35.36 589.35,-29.6 578.81,-28.56 580.46,-35.36"/>
</g>
<!-- Node14&#45;&gt;Node8 -->
<g id="edge14" class="edge">
<title>Node14&#45;&gt;Node8</title>
<path fill="none" stroke="midnightblue" d="M293.7,-19.58C305.25,-22.36 317.65,-25.58 329,-29 347.72,-34.63 367.97,-41.76 385.63,-48.31"/>
<polygon fill="midnightblue" stroke="midnightblue" points="384.55,-51.64 395.14,-51.87 387.01,-45.09 384.55,-51.64"/>
</g>
</g>
</svg>
