<?xml version="1.0" encoding="UTF-8" standalone="no"?>
<!DOCTYPE svg PUBLIC "-//W3C//DTD SVG 1.1//EN"
 "http://www.w3.org/Graphics/SVG/1.1/DTD/svg11.dtd">
<!-- Generated by graphviz version 2.44.0 (0)
 -->
<!-- Title: GreedyOptimizer::optimize Pages: 1 -->
<svg width="337pt" height="230pt"
 viewBox="0.00 0.00 337.00 230.00" xmlns="http://www.w3.org/2000/svg" xmlns:xlink="http://www.w3.org/1999/xlink">
<g id="graph0" class="graph" transform="scale(1 1) rotate(0) translate(4 226)">
<title>GreedyOptimizer::optimize</title>
<polygon fill="white" stroke="transparent" points="-4,4 -4,-226 333,-226 333,4 -4,4"/>
<!-- Node1 -->
<g id="node1" class="node">
<title>Node1</title>
<g id="a_node1"><a xlink:title=" ">
<polygon fill="#bfbfbf" stroke="black" points="0,-95.5 0,-114.5 133,-114.5 133,-95.5 0,-95.5"/>
<text text-anchor="middle" x="66.5" y="-102.5" font-family="Helvetica,sans-Serif" font-size="10.00">GreedyOptimizer::optimize</text>
</a>
</g>
</g>
<!-- Node2 -->
<g id="node2" class="node">
<title>Node2</title>
<g id="a_node2"><a xlink:href="../../d6/db5/class_scene.html#a64cb0dcdcb57a45fe485fb3489c112c4" target="_top" xlink:title="Return if the 26&#45;neighborhood voxels of a connection path are locked too.">
<polygon fill="white" stroke="black" points="172.5,-202.5 172.5,-221.5 325.5,-221.5 325.5,-202.5 172.5,-202.5"/>
<text text-anchor="middle" x="249" y="-209.5" font-family="Helvetica,sans-Serif" font-size="10.00">Scene::getLockNeighborVoxels</text>
</a>
</g>
</g>
<!-- Node1&#45;&gt;Node2 -->
<g id="edge1" class="edge">
<title>Node1&#45;&gt;Node2</title>
<path fill="none" stroke="midnightblue" d="M75.64,-114.62C91.61,-132.85 128.97,-172.41 169,-193 173.59,-195.36 178.47,-197.43 183.48,-199.25"/>
<polygon fill="midnightblue" stroke="midnightblue" points="182.63,-202.66 193.22,-202.45 184.81,-196.01 182.63,-202.66"/>
</g>
<!-- Node3 -->
<g id="node3" class="node">
<title>Node3</title>
<g id="a_node3"><a xlink:href="../../d6/db5/class_scene.html#abe8f9d18527a1fea362460cdc53cb5eb" target="_top" xlink:title="Return the bounds of the mesh in scene coordinates.">
<polygon fill="white" stroke="black" points="169,-153 169,-183 329,-183 329,-153 169,-153"/>
<text text-anchor="start" x="177" y="-171" font-family="Helvetica,sans-Serif" font-size="10.00">Scene::getMeshWorldCoordinate</text>
<text text-anchor="middle" x="249" y="-160" font-family="Helvetica,sans-Serif" font-size="10.00">Bounds</text>
</a>
</g>
</g>
<!-- Node1&#45;&gt;Node3 -->
<g id="edge2" class="edge">
<title>Node1&#45;&gt;Node3</title>
<path fill="none" stroke="midnightblue" d="M91.98,-114.57C112.46,-122.48 142.5,-133.85 169,-143 175.49,-145.24 182.3,-147.51 189.09,-149.73"/>
<polygon fill="midnightblue" stroke="midnightblue" points="188.39,-153.18 198.99,-152.92 190.55,-146.52 188.39,-153.18"/>
</g>
<!-- Node4 -->
<g id="node4" class="node">
<title>Node4</title>
<g id="a_node4"><a xlink:href="../../d6/db5/class_scene.html#a5c26ef724365bd55c471acc673d60674" target="_top" xlink:title="Return the touchpoint registry of the scene.">
<polygon fill="white" stroke="black" points="175,-114.5 175,-133.5 323,-133.5 323,-114.5 175,-114.5"/>
<text text-anchor="middle" x="249" y="-121.5" font-family="Helvetica,sans-Serif" font-size="10.00">Scene::getTouchpointRegistry</text>
</a>
</g>
</g>
<!-- Node1&#45;&gt;Node4 -->
<g id="edge3" class="edge">
<title>Node1&#45;&gt;Node4</title>
<path fill="none" stroke="midnightblue" d="M133.18,-111.91C143.41,-112.99 154.1,-114.12 164.67,-115.23"/>
<polygon fill="midnightblue" stroke="midnightblue" points="164.43,-118.72 174.74,-116.29 165.16,-111.76 164.43,-118.72"/>
</g>
<!-- Node5 -->
<g id="node5" class="node">
<title>Node5</title>
<g id="a_node5"><a xlink:href="../../d6/db5/class_scene.html#a7e5ee53ea01ef113afaaf4b7c10accf3" target="_top" xlink:title="Return the voxel grid image data.">
<polygon fill="white" stroke="black" points="194.5,-76.5 194.5,-95.5 303.5,-95.5 303.5,-76.5 194.5,-76.5"/>
<text text-anchor="middle" x="249" y="-83.5" font-family="Helvetica,sans-Serif" font-size="10.00">Scene::getVoxelData</text>
</a>
</g>
</g>
<!-- Node1&#45;&gt;Node5 -->
<g id="edge4" class="edge">
<title>Node1&#45;&gt;Node5</title>
<path fill="none" stroke="midnightblue" d="M133.18,-98.09C149.79,-96.34 167.6,-94.46 184.12,-92.72"/>
<polygon fill="midnightblue" stroke="midnightblue" points="184.64,-96.19 194.22,-91.66 183.91,-89.23 184.64,-96.19"/>
</g>
<!-- Node6 -->
<g id="node6" class="node">
<title>Node6</title>
<g id="a_node6"><a xlink:href="../../de/d52/class_a_star.html#aa76c29f42861c4f6fc7c328e4dbc7d83" target="_top" xlink:title="Mark a path as locked so that it can not be used by another search.">
<polygon fill="white" stroke="black" points="204.5,-38.5 204.5,-57.5 293.5,-57.5 293.5,-38.5 204.5,-38.5"/>
<text text-anchor="middle" x="249" y="-45.5" font-family="Helvetica,sans-Serif" font-size="10.00">AStar::markPath</text>
</a>
</g>
</g>
<!-- Node1&#45;&gt;Node6 -->
<g id="edge5" class="edge">
<title>Node1&#45;&gt;Node6</title>
<path fill="none" stroke="midnightblue" d="M90.6,-95.43C111,-87.2 141.65,-75.37 169,-67 177.14,-64.51 185.84,-62.13 194.38,-59.96"/>
<polygon fill="midnightblue" stroke="midnightblue" points="195.41,-63.31 204.28,-57.51 193.73,-56.51 195.41,-63.31"/>
</g>
<!-- Node7 -->
<g id="node7" class="node">
<title>Node7</title>
<g id="a_node7"><a xlink:href="../../de/d52/class_a_star.html#a0d1fd50821c4cd7bbd8a87bd9fcf5dd3" target="_top" xlink:title="Search a path in the voxelgrid using the A* algorithm with the preset heuristic.">
<polygon fill="white" stroke="black" points="200.5,-0.5 200.5,-19.5 297.5,-19.5 297.5,-0.5 200.5,-0.5"/>
<text text-anchor="middle" x="249" y="-7.5" font-family="Helvetica,sans-Serif" font-size="10.00">AStar::searchPath</text>
</a>
</g>
</g>
<!-- Node1&#45;&gt;Node7 -->
<g id="edge6" class="edge">
<title>Node1&#45;&gt;Node7</title>
<path fill="none" stroke="midnightblue" d="M77.25,-95.49C94.36,-79.34 131.54,-46.6 169,-29 175.67,-25.86 182.91,-23.22 190.21,-20.99"/>
<polygon fill="midnightblue" stroke="midnightblue" points="191.46,-24.27 200.14,-18.21 189.57,-17.53 191.46,-24.27"/>
</g>
</g>
</svg>
