<?xml version="1.0" encoding="UTF-8" standalone="no"?>
<!DOCTYPE svg PUBLIC "-//W3C//DTD SVG 1.1//EN"
 "http://www.w3.org/Graphics/SVG/1.1/DTD/svg11.dtd">
<!-- Generated by graphviz version 2.44.0 (0)
 -->
<!-- Title: Optimizer::computeTotalWireDistance Pages: 1 -->
<svg width="682pt" height="306pt"
 viewBox="0.00 0.00 682.00 306.00" xmlns="http://www.w3.org/2000/svg" xmlns:xlink="http://www.w3.org/1999/xlink">
<g id="graph0" class="graph" transform="scale(1 1) rotate(0) translate(4 302)">
<title>Optimizer::computeTotalWireDistance</title>
<polygon fill="white" stroke="transparent" points="-4,4 -4,-302 678,-302 678,4 -4,4"/>
<!-- Node1 -->
<g id="node1" class="node">
<title>Node1</title>
<g id="a_node1"><a xlink:title="computes the total wire length of a wiring">
<polygon fill="#bfbfbf" stroke="black" points="0,-131 0,-161 143,-161 143,-131 0,-131"/>
<text text-anchor="start" x="8" y="-149" font-family="Helvetica,sans-Serif" font-size="10.00">Optimizer::computeTotalWire</text>
<text text-anchor="middle" x="71.5" y="-138" font-family="Helvetica,sans-Serif" font-size="10.00">Distance</text>
</a>
</g>
</g>
<!-- Node2 -->
<g id="node2" class="node">
<title>Node2</title>
<g id="a_node2"><a xlink:href="../../de/d52/class_a_star.html#a29f560899446dc99d6f157e4997650d7" target="_top" xlink:title="Unmark all paths.">
<polygon fill="white" stroke="black" points="206.5,-278.5 206.5,-297.5 311.5,-297.5 311.5,-278.5 206.5,-278.5"/>
<text text-anchor="middle" x="259" y="-285.5" font-family="Helvetica,sans-Serif" font-size="10.00">AStar::clearAllPaths</text>
</a>
</g>
</g>
<!-- Node1&#45;&gt;Node2 -->
<g id="edge1" class="edge">
<title>Node1&#45;&gt;Node2</title>
<path fill="none" stroke="midnightblue" d="M82.05,-161.07C98.69,-186.12 135.44,-236.34 179,-264 185.97,-268.42 193.8,-272.07 201.75,-275.07"/>
<polygon fill="midnightblue" stroke="midnightblue" points="200.87,-278.47 211.46,-278.41 203.15,-271.85 200.87,-278.47"/>
</g>
<!-- Node3 -->
<g id="node3" class="node">
<title>Node3</title>
<g id="a_node3"><a xlink:href="../../de/d52/class_a_star.html#aa76c29f42861c4f6fc7c328e4dbc7d83" target="_top" xlink:title="Mark a path as locked so that it can not be used by another search.">
<polygon fill="white" stroke="black" points="375,-259.5 375,-278.5 464,-278.5 464,-259.5 375,-259.5"/>
<text text-anchor="middle" x="419.5" y="-266.5" font-family="Helvetica,sans-Serif" font-size="10.00">AStar::markPath</text>
</a>
</g>
</g>
<!-- Node1&#45;&gt;Node3 -->
<g id="edge7" class="edge">
<title>Node1&#45;&gt;Node3</title>
<path fill="none" stroke="midnightblue" d="M86.36,-161.13C105.26,-180.71 141.12,-214.29 179,-231 238.87,-257.41 314.34,-265.76 364.39,-268.24"/>
<polygon fill="midnightblue" stroke="midnightblue" points="364.52,-271.75 374.66,-268.69 364.83,-264.76 364.52,-271.75"/>
</g>
<!-- Node4 -->
<g id="node4" class="node">
<title>Node4</title>
<g id="a_node4"><a xlink:href="../../d6/db5/class_scene.html#a64cb0dcdcb57a45fe485fb3489c112c4" target="_top" xlink:title="Return if the 26&#45;neighborhood voxels of a connection path are locked too.">
<polygon fill="white" stroke="black" points="182.5,-202.5 182.5,-221.5 335.5,-221.5 335.5,-202.5 182.5,-202.5"/>
<text text-anchor="middle" x="259" y="-209.5" font-family="Helvetica,sans-Serif" font-size="10.00">Scene::getLockNeighborVoxels</text>
</a>
</g>
</g>
<!-- Node1&#45;&gt;Node4 -->
<g id="edge3" class="edge">
<title>Node1&#45;&gt;Node4</title>
<path fill="none" stroke="midnightblue" d="M102.68,-161.06C123.69,-171.11 152.58,-184.07 179,-193 186.42,-195.51 194.34,-197.82 202.2,-199.91"/>
<polygon fill="midnightblue" stroke="midnightblue" points="201.51,-203.35 212.07,-202.43 203.24,-196.56 201.51,-203.35"/>
</g>
<!-- Node5 -->
<g id="node5" class="node">
<title>Node5</title>
<g id="a_node5"><a xlink:href="../../d6/db5/class_scene.html#abe8f9d18527a1fea362460cdc53cb5eb" target="_top" xlink:title="Return the bounds of the mesh in scene coordinates.">
<polygon fill="white" stroke="black" points="179,-153 179,-183 339,-183 339,-153 179,-153"/>
<text text-anchor="start" x="187" y="-171" font-family="Helvetica,sans-Serif" font-size="10.00">Scene::getMeshWorldCoordinate</text>
<text text-anchor="middle" x="259" y="-160" font-family="Helvetica,sans-Serif" font-size="10.00">Bounds</text>
</a>
</g>
</g>
<!-- Node1&#45;&gt;Node5 -->
<g id="edge4" class="edge">
<title>Node1&#45;&gt;Node5</title>
<path fill="none" stroke="midnightblue" d="M143.16,-154.38C151.55,-155.37 160.19,-156.4 168.8,-157.42"/>
<polygon fill="midnightblue" stroke="midnightblue" points="168.52,-160.91 178.86,-158.61 169.34,-153.96 168.52,-160.91"/>
</g>
<!-- Node6 -->
<g id="node6" class="node">
<title>Node6</title>
<g id="a_node6"><a xlink:href="../../d6/db5/class_scene.html#a5c26ef724365bd55c471acc673d60674" target="_top" xlink:title="Return the touchpoint registry of the scene.">
<polygon fill="white" stroke="black" points="185,-114.5 185,-133.5 333,-133.5 333,-114.5 185,-114.5"/>
<text text-anchor="middle" x="259" y="-121.5" font-family="Helvetica,sans-Serif" font-size="10.00">Scene::getTouchpointRegistry</text>
</a>
</g>
</g>
<!-- Node1&#45;&gt;Node6 -->
<g id="edge5" class="edge">
<title>Node1&#45;&gt;Node6</title>
<path fill="none" stroke="midnightblue" d="M143.16,-137.62C153.48,-136.4 164.19,-135.13 174.73,-133.88"/>
<polygon fill="midnightblue" stroke="midnightblue" points="175.25,-137.34 184.77,-132.69 174.42,-130.39 175.25,-137.34"/>
</g>
<!-- Node7 -->
<g id="node7" class="node">
<title>Node7</title>
<g id="a_node7"><a xlink:href="../../d6/db5/class_scene.html#a7e5ee53ea01ef113afaaf4b7c10accf3" target="_top" xlink:title="Return the voxel grid image data.">
<polygon fill="white" stroke="black" points="204.5,-76.5 204.5,-95.5 313.5,-95.5 313.5,-76.5 204.5,-76.5"/>
<text text-anchor="middle" x="259" y="-83.5" font-family="Helvetica,sans-Serif" font-size="10.00">Scene::getVoxelData</text>
</a>
</g>
</g>
<!-- Node1&#45;&gt;Node7 -->
<g id="edge6" class="edge">
<title>Node1&#45;&gt;Node7</title>
<path fill="none" stroke="midnightblue" d="M108.07,-130.96C128.58,-122.63 154.98,-112.48 179,-105 187.04,-102.5 195.62,-100.13 204.05,-97.97"/>
<polygon fill="midnightblue" stroke="midnightblue" points="204.98,-101.35 213.84,-95.54 203.29,-94.55 204.98,-101.35"/>
</g>
<!-- Node8 -->
<g id="node8" class="node">
<title>Node8</title>
<g id="a_node8"><a xlink:href="../../de/d52/class_a_star.html#a67f440fb4e77fad8d273ef848e9703c1" target="_top" xlink:title="Reset grid.">
<polygon fill="white" stroke="black" points="224.5,-38.5 224.5,-57.5 293.5,-57.5 293.5,-38.5 224.5,-38.5"/>
<text text-anchor="middle" x="259" y="-45.5" font-family="Helvetica,sans-Serif" font-size="10.00">AStar::reset</text>
</a>
</g>
</g>
<!-- Node1&#45;&gt;Node8 -->
<g id="edge8" class="edge">
<title>Node1&#45;&gt;Node8</title>
<path fill="none" stroke="midnightblue" d="M88.48,-130.85C108.21,-112.97 143.54,-83.57 179,-67 189.97,-61.87 202.47,-58.05 214.24,-55.23"/>
<polygon fill="midnightblue" stroke="midnightblue" points="215.32,-58.57 224.33,-53 213.81,-51.74 215.32,-58.57"/>
</g>
<!-- Node12 -->
<g id="node12" class="node">
<title>Node12</title>
<g id="a_node12"><a xlink:href="../../de/d52/class_a_star.html#a0d1fd50821c4cd7bbd8a87bd9fcf5dd3" target="_top" xlink:title="Search a path in the voxelgrid using the A* algorithm with the preset heuristic.">
<polygon fill="white" stroke="black" points="210.5,-0.5 210.5,-19.5 307.5,-19.5 307.5,-0.5 210.5,-0.5"/>
<text text-anchor="middle" x="259" y="-7.5" font-family="Helvetica,sans-Serif" font-size="10.00">AStar::searchPath</text>
</a>
</g>
</g>
<!-- Node1&#45;&gt;Node12 -->
<g id="edge12" class="edge">
<title>Node1&#45;&gt;Node12</title>
<path fill="none" stroke="midnightblue" d="M81.91,-130.78C98.34,-105.53 134.79,-55.15 179,-29 185.66,-25.06 193.09,-21.94 200.66,-19.46"/>
<polygon fill="midnightblue" stroke="midnightblue" points="201.65,-22.82 210.27,-16.66 199.69,-16.1 201.65,-22.82"/>
</g>
<!-- Node2&#45;&gt;Node3 -->
<g id="edge2" class="edge">
<title>Node2&#45;&gt;Node3</title>
<path fill="none" stroke="midnightblue" d="M311.9,-281.78C328.8,-279.75 347.58,-277.5 364.62,-275.46"/>
<polygon fill="midnightblue" stroke="midnightblue" points="365.46,-278.88 374.97,-274.22 364.63,-271.93 365.46,-278.88"/>
</g>
<!-- Node9 -->
<g id="node9" class="node">
<title>Node9</title>
<g id="a_node9"><a xlink:href="../../de/d52/class_a_star.html#af8f32d428d15af1c33dc9f77929299ca" target="_top" xlink:title=" ">
<polygon fill="white" stroke="black" points="376,-38.5 376,-57.5 463,-57.5 463,-38.5 376,-38.5"/>
<text text-anchor="middle" x="419.5" y="-45.5" font-family="Helvetica,sans-Serif" font-size="10.00">AStar::resetGrid</text>
</a>
</g>
</g>
<!-- Node8&#45;&gt;Node9 -->
<g id="edge9" class="edge">
<title>Node8&#45;&gt;Node9</title>
<path fill="none" stroke="midnightblue" d="M293.61,-48C314.51,-48 341.83,-48 365.59,-48"/>
<polygon fill="midnightblue" stroke="midnightblue" points="365.87,-51.5 375.87,-48 365.87,-44.5 365.87,-51.5"/>
</g>
<!-- Node10 -->
<g id="node10" class="node">
<title>Node10</title>
<g id="a_node10"><a xlink:href="../../de/d52/class_a_star.html#aadbff393646adec069b3264bed4edc9f" target="_top" xlink:title=" ">
<polygon fill="white" stroke="black" points="500,-38.5 500,-57.5 578,-57.5 578,-38.5 500,-38.5"/>
<text text-anchor="middle" x="539" y="-45.5" font-family="Helvetica,sans-Serif" font-size="10.00">AStar::initGrid</text>
</a>
</g>
</g>
<!-- Node9&#45;&gt;Node10 -->
<g id="edge10" class="edge">
<title>Node9&#45;&gt;Node10</title>
<path fill="none" stroke="midnightblue" d="M463.25,-48C471.84,-48 480.91,-48 489.67,-48"/>
<polygon fill="midnightblue" stroke="midnightblue" points="489.76,-51.5 499.76,-48 489.76,-44.5 489.76,-51.5"/>
</g>
<!-- Node11 -->
<g id="node11" class="node">
<title>Node11</title>
<g id="a_node11"><a xlink:href="../../de/d52/class_a_star.html#abc66e4863cf4c15f616098e60469e50b" target="_top" xlink:title="Compute 1D linearized index from 3D&#45;coodinate index.">
<polygon fill="white" stroke="black" points="614,-38.5 614,-57.5 674,-57.5 674,-38.5 614,-38.5"/>
<text text-anchor="middle" x="644" y="-45.5" font-family="Helvetica,sans-Serif" font-size="10.00">AStar::idx</text>
</a>
</g>
</g>
<!-- Node10&#45;&gt;Node11 -->
<g id="edge11" class="edge">
<title>Node10&#45;&gt;Node11</title>
<path fill="none" stroke="midnightblue" d="M578.06,-48C586.36,-48 595.16,-48 603.52,-48"/>
<polygon fill="midnightblue" stroke="midnightblue" points="603.79,-51.5 613.79,-48 603.79,-44.5 603.79,-51.5"/>
</g>
</g>
</svg>
