<?xml version="1.0" encoding="UTF-8" standalone="no"?>
<!DOCTYPE svg PUBLIC "-//W3C//DTD SVG 1.1//EN"
 "http://www.w3.org/Graphics/SVG/1.1/DTD/svg11.dtd">
<!-- Generated by graphviz version 2.44.0 (0)
 -->
<!-- Title: Optimizer::addConnections Pages: 1 -->
<svg width="324pt" height="313pt"
 viewBox="0.00 0.00 324.00 312.50" xmlns="http://www.w3.org/2000/svg" xmlns:xlink="http://www.w3.org/1999/xlink">
<g id="graph0" class="graph" transform="scale(1 1) rotate(0) translate(4 308.5)">
<title>Optimizer::addConnections</title>
<polygon fill="white" stroke="transparent" points="-4,4 -4,-308.5 320,-308.5 320,4 -4,4"/>
<!-- Node1 -->
<g id="node1" class="node">
<title>Node1</title>
<g id="a_node1"><a xlink:title="Add optimized connections to the touchpoint registry.">
<polygon fill="#bfbfbf" stroke="black" points="181,-142.5 181,-161.5 316,-161.5 316,-142.5 181,-142.5"/>
<text text-anchor="middle" x="248.5" y="-149.5" font-family="Helvetica,sans-Serif" font-size="10.00">Optimizer::addConnections</text>
</a>
</g>
</g>
<!-- Node2 -->
<g id="node2" class="node">
<title>Node2</title>
<g id="a_node2"><a xlink:href="../../da/d4f/class_brute_force_optimizer.html#aa2a4ae05bdd60786dee2cd865a15185e" target="_top" xlink:title=" ">
<polygon fill="white" stroke="black" points="19,-274 19,-304 126,-304 126,-274 19,-274"/>
<text text-anchor="start" x="27" y="-292" font-family="Helvetica,sans-Serif" font-size="10.00">BruteForceOptimizer</text>
<text text-anchor="middle" x="72.5" y="-281" font-family="Helvetica,sans-Serif" font-size="10.00">::optimize</text>
</a>
</g>
</g>
<!-- Node1&#45;&gt;Node2 -->
<g id="edge1" class="edge">
<title>Node1&#45;&gt;Node2</title>
<path fill="none" stroke="midnightblue" d="M235.47,-169.93C218.17,-194.44 184.02,-238.27 145,-264 139.18,-267.84 132.71,-271.16 126.1,-274.01"/>
<polygon fill="midnightblue" stroke="midnightblue" points="238.44,-171.78 241.25,-161.57 232.69,-167.81 238.44,-171.78"/>
</g>
<!-- Node3 -->
<g id="node3" class="node">
<title>Node3</title>
<g id="a_node3"><a xlink:href="../../d2/d35/class_random_optimizer.html#aa5ce0ce1fb926e31ed56452870a2b9d7" target="_top" xlink:title=" ">
<polygon fill="white" stroke="black" points="3.5,-235.5 3.5,-254.5 141.5,-254.5 141.5,-235.5 3.5,-235.5"/>
<text text-anchor="middle" x="72.5" y="-242.5" font-family="Helvetica,sans-Serif" font-size="10.00">RandomOptimizer::optimize</text>
</a>
</g>
</g>
<!-- Node1&#45;&gt;Node3 -->
<g id="edge2" class="edge">
<title>Node1&#45;&gt;Node3</title>
<path fill="none" stroke="midnightblue" d="M229.19,-168.44C209.65,-185.18 177.14,-210.77 145,-226 136.99,-229.8 128.11,-232.92 119.4,-235.47"/>
<polygon fill="midnightblue" stroke="midnightblue" points="231.74,-170.86 236.97,-161.65 227.14,-165.59 231.74,-170.86"/>
</g>
<!-- Node4 -->
<g id="node4" class="node">
<title>Node4</title>
<g id="a_node4"><a xlink:href="../../d0/da8/class_threshold_accepting_optimizer.html#a6dead9a1dffa1d54cb9cc59e80655fb7" target="_top" xlink:title=" ">
<polygon fill="white" stroke="black" points="0,-186 0,-216 145,-216 145,-186 0,-186"/>
<text text-anchor="start" x="8" y="-204" font-family="Helvetica,sans-Serif" font-size="10.00">ThresholdAcceptingOptimizer</text>
<text text-anchor="middle" x="72.5" y="-193" font-family="Helvetica,sans-Serif" font-size="10.00">::optimize</text>
</a>
</g>
</g>
<!-- Node1&#45;&gt;Node4 -->
<g id="edge3" class="edge">
<title>Node1&#45;&gt;Node4</title>
<path fill="none" stroke="midnightblue" d="M203.9,-164.28C180.55,-170.85 151.59,-179.01 126.9,-185.96"/>
<polygon fill="midnightblue" stroke="midnightblue" points="204.86,-167.64 213.54,-161.56 202.96,-160.91 204.86,-167.64"/>
</g>
<!-- Node5 -->
<g id="node5" class="node">
<title>Node5</title>
<g id="a_node5"><a xlink:href="../../de/d17/class_great_deluge_optimizer.html#ad0e859eaa1e24d3ba184cb0641972427" target="_top" xlink:title=" ">
<polygon fill="white" stroke="black" points="16,-137 16,-167 129,-167 129,-137 16,-137"/>
<text text-anchor="start" x="24" y="-155" font-family="Helvetica,sans-Serif" font-size="10.00">GreatDelugeOptimizer</text>
<text text-anchor="middle" x="72.5" y="-144" font-family="Helvetica,sans-Serif" font-size="10.00">::optimize</text>
</a>
</g>
</g>
<!-- Node1&#45;&gt;Node5 -->
<g id="edge4" class="edge">
<title>Node1&#45;&gt;Node5</title>
<path fill="none" stroke="midnightblue" d="M170.62,-152C156.64,-152 142.3,-152 129.08,-152"/>
<polygon fill="midnightblue" stroke="midnightblue" points="170.72,-155.5 180.72,-152 170.72,-148.5 170.72,-155.5"/>
</g>
<!-- Node6 -->
<g id="node6" class="node">
<title>Node6</title>
<g id="a_node6"><a xlink:href="../../d1/d15/class_hill_climbing_optimizer.html#a4f1754d5bfc6c5e702ee1421ed0cb204" target="_top" xlink:title=" ">
<polygon fill="white" stroke="black" points="17,-88 17,-118 128,-118 128,-88 17,-88"/>
<text text-anchor="start" x="25" y="-106" font-family="Helvetica,sans-Serif" font-size="10.00">HillClimbingOptimizer</text>
<text text-anchor="middle" x="72.5" y="-95" font-family="Helvetica,sans-Serif" font-size="10.00">::optimize</text>
</a>
</g>
</g>
<!-- Node1&#45;&gt;Node6 -->
<g id="edge5" class="edge">
<title>Node1&#45;&gt;Node6</title>
<path fill="none" stroke="midnightblue" d="M203.9,-139.72C180.55,-133.15 151.59,-124.99 126.9,-118.04"/>
<polygon fill="midnightblue" stroke="midnightblue" points="202.96,-143.09 213.54,-142.44 204.86,-136.36 202.96,-143.09"/>
</g>
<!-- Node7 -->
<g id="node7" class="node">
<title>Node7</title>
<g id="a_node7"><a xlink:href="../../d0/d53/class_simulated_annealing_optimizer.html#a8e1aba518749f6534cdb3155a38af511" target="_top" xlink:title=" ">
<polygon fill="white" stroke="black" points="0,-39 0,-69 145,-69 145,-39 0,-39"/>
<text text-anchor="start" x="8" y="-57" font-family="Helvetica,sans-Serif" font-size="10.00">SimulatedAnnealingOptimizer</text>
<text text-anchor="middle" x="72.5" y="-46" font-family="Helvetica,sans-Serif" font-size="10.00">::optimize</text>
</a>
</g>
</g>
<!-- Node1&#45;&gt;Node7 -->
<g id="edge6" class="edge">
<title>Node1&#45;&gt;Node7</title>
<path fill="none" stroke="midnightblue" d="M228.27,-135.77C208.44,-119.65 176.1,-95.1 145,-79 137.99,-75.37 130.34,-72.07 122.74,-69.15"/>
<polygon fill="midnightblue" stroke="midnightblue" points="226.27,-138.65 236.21,-142.31 230.72,-133.25 226.27,-138.65"/>
</g>
<!-- Node8 -->
<g id="node8" class="node">
<title>Node8</title>
<g id="a_node8"><a xlink:href="../../dc/d6d/class_g_a_optimizer.html#a71b18c78d275e4d896826f07b2e01f4b" target="_top" xlink:title=" ">
<polygon fill="white" stroke="black" points="14.5,-0.5 14.5,-19.5 130.5,-19.5 130.5,-0.5 14.5,-0.5"/>
<text text-anchor="middle" x="72.5" y="-7.5" font-family="Helvetica,sans-Serif" font-size="10.00">GAOptimizer::optimize</text>
</a>
</g>
</g>
<!-- Node1&#45;&gt;Node8 -->
<g id="edge7" class="edge">
<title>Node1&#45;&gt;Node8</title>
<path fill="none" stroke="midnightblue" d="M237.05,-133.61C220.83,-106.77 187.04,-57.09 145,-30 138.28,-25.67 130.62,-22.27 122.88,-19.59"/>
<polygon fill="midnightblue" stroke="midnightblue" points="234.12,-135.55 242.21,-142.39 240.15,-132 234.12,-135.55"/>
</g>
</g>
</svg>
