<?xml version="1.0" encoding="UTF-8" standalone="no"?>
<!DOCTYPE svg PUBLIC "-//W3C//DTD SVG 1.1//EN"
 "http://www.w3.org/Graphics/SVG/1.1/DTD/svg11.dtd">
<!-- Generated by graphviz version 2.44.1 (0)
 -->
<!-- Title: meshbooleanoperationfilter.cpp Pages: 1 -->
<svg width="200pt" height="140pt"
 viewBox="0.00 0.00 200.00 140.00" xmlns="http://www.w3.org/2000/svg" xmlns:xlink="http://www.w3.org/1999/xlink">
<g id="graph0" class="graph" transform="scale(1 1) rotate(0) translate(4 136)">
<title>meshbooleanoperationfilter.cpp</title>
<polygon fill="white" stroke="transparent" points="-4,4 -4,-136 196,-136 196,4 -4,4"/>
<!-- Node1 -->
<g id="node1" class="node">
<title>Node1</title>
<g id="a_node1"><a xlink:title=" ">
<polygon fill="#bfbfbf" stroke="black" points="23.5,-112.5 23.5,-131.5 175.5,-131.5 175.5,-112.5 23.5,-112.5"/>
<text text-anchor="middle" x="99.5" y="-119.5" font-family="Helvetica,sans-Serif" font-size="10.00">meshbooleanoperationfilter.cpp</text>
</a>
</g>
</g>
<!-- Node2 -->
<g id="node2" class="node">
<title>Node2</title>
<g id="a_node2"><a xlink:href="../../d4/dcd/meshbooleanoperationfilter_8h.html" target="_top" xlink:title="Base class for boolean operations on polygon meshes filters.">
<polygon fill="white" stroke="black" points="29,-56.5 29,-75.5 170,-75.5 170,-56.5 29,-56.5"/>
<text text-anchor="middle" x="99.5" y="-63.5" font-family="Helvetica,sans-Serif" font-size="10.00">meshbooleanoperationfilter.h</text>
</a>
</g>
</g>
<!-- Node1&#45;&gt;Node2 -->
<g id="edge1" class="edge">
<title>Node1&#45;&gt;Node2</title>
<path fill="none" stroke="midnightblue" d="M99.5,-112.08C99.5,-105.01 99.5,-94.86 99.5,-85.99"/>
<polygon fill="midnightblue" stroke="midnightblue" points="103,-85.75 99.5,-75.75 96,-85.75 103,-85.75"/>
</g>
<!-- Node3 -->
<g id="node3" class="node">
<title>Node3</title>
<g id="a_node3"><a xlink:title=" ">
<polygon fill="white" stroke="#bfbfbf" points="0,-0.5 0,-19.5 95,-19.5 95,-0.5 0,-0.5"/>
<text text-anchor="middle" x="47.5" y="-7.5" font-family="Helvetica,sans-Serif" font-size="10.00">vtkSmartPointer.h</text>
</a>
</g>
</g>
<!-- Node2&#45;&gt;Node3 -->
<g id="edge2" class="edge">
<title>Node2&#45;&gt;Node3</title>
<path fill="none" stroke="midnightblue" d="M90.91,-56.08C83.34,-48.22 72.12,-36.57 62.99,-27.08"/>
<polygon fill="midnightblue" stroke="midnightblue" points="65.38,-24.53 55.93,-19.75 60.34,-29.38 65.38,-24.53"/>
</g>
<!-- Node4 -->
<g id="node4" class="node">
<title>Node4</title>
<g id="a_node4"><a xlink:title=" ">
<polygon fill="white" stroke="#bfbfbf" points="113,-0.5 113,-19.5 192,-19.5 192,-0.5 113,-0.5"/>
<text text-anchor="middle" x="152.5" y="-7.5" font-family="Helvetica,sans-Serif" font-size="10.00">vtkPolyData.h</text>
</a>
</g>
</g>
<!-- Node2&#45;&gt;Node4 -->
<g id="edge3" class="edge">
<title>Node2&#45;&gt;Node4</title>
<path fill="none" stroke="midnightblue" d="M108.25,-56.08C115.97,-48.22 127.4,-36.57 136.72,-27.08"/>
<polygon fill="midnightblue" stroke="midnightblue" points="139.4,-29.34 143.91,-19.75 134.41,-24.44 139.4,-29.34"/>
</g>
</g>
</svg>
