<?xml version="1.0" encoding="UTF-8" standalone="no"?>
<!DOCTYPE svg PUBLIC "-//W3C//DTD SVG 1.1//EN"
 "http://www.w3.org/Graphics/SVG/1.1/DTD/svg11.dtd">
<!-- Generated by graphviz version 2.44.1 (0)
 -->
<!-- Title: RandomOptimizer::optimize Pages: 1 -->
<svg width="722pt" height="394pt"
 viewBox="0.00 0.00 722.00 394.14" xmlns="http://www.w3.org/2000/svg" xmlns:xlink="http://www.w3.org/1999/xlink">
<g id="graph0" class="graph" transform="scale(1 1) rotate(0) translate(4 390.14)">
<title>RandomOptimizer::optimize</title>
<polygon fill="white" stroke="transparent" points="-4,4 -4,-390.14 718,-390.14 718,4 -4,4"/>
<!-- Node1 -->
<g id="node1" class="node">
<title>Node1</title>
<g id="a_node1"><a xlink:title=" ">
<polygon fill="#bfbfbf" stroke="black" points="0,-174.5 0,-193.5 138,-193.5 138,-174.5 0,-174.5"/>
<text text-anchor="middle" x="69" y="-181.5" font-family="Helvetica,sans-Serif" font-size="10.00">RandomOptimizer::optimize</text>
</a>
</g>
</g>
<!-- Node2 -->
<g id="node2" class="node">
<title>Node2</title>
<g id="a_node2"><a xlink:href="../../d9/d02/class_optimizer.html#a005ef2bdea59b2a3ac0fa22978add36a" target="_top" xlink:title="Add optimized connections to the touchpoint registry.">
<polygon fill="white" stroke="black" points="186.5,-327.5 186.5,-346.5 321.5,-346.5 321.5,-327.5 186.5,-327.5"/>
<text text-anchor="middle" x="254" y="-334.5" font-family="Helvetica,sans-Serif" font-size="10.00">Optimizer::addConnections</text>
</a>
</g>
</g>
<!-- Node1&#45;&gt;Node2 -->
<g id="edge1" class="edge">
<title>Node1&#45;&gt;Node2</title>
<path fill="none" stroke="midnightblue" d="M75.11,-193.74C88.2,-217.75 125.35,-280.17 174,-313 180.52,-317.4 187.87,-321.01 195.39,-323.98"/>
<polygon fill="midnightblue" stroke="midnightblue" points="194.38,-327.33 204.97,-327.4 196.73,-320.74 194.38,-327.33"/>
</g>
<!-- Node3 -->
<g id="node3" class="node">
<title>Node3</title>
<g id="a_node3"><a xlink:href="../../d6/db5/class_scene.html#a64cb0dcdcb57a45fe485fb3489c112c4" target="_top" xlink:title="Return if the 26&#45;neighborhood voxels of a connection path are locked too.">
<polygon fill="white" stroke="black" points="370,-355.5 370,-374.5 523,-374.5 523,-355.5 370,-355.5"/>
<text text-anchor="middle" x="446.5" y="-362.5" font-family="Helvetica,sans-Serif" font-size="10.00">Scene::getLockNeighborVoxels</text>
</a>
</g>
</g>
<!-- Node1&#45;&gt;Node3 -->
<g id="edge5" class="edge">
<title>Node1&#45;&gt;Node3</title>
<path fill="none" stroke="midnightblue" d="M72.39,-193.75C80.46,-224.3 109.87,-318.42 174,-356 242.9,-396.38 339.44,-387.28 396.91,-376.49"/>
<polygon fill="midnightblue" stroke="midnightblue" points="397.69,-379.9 406.82,-374.54 396.34,-373.03 397.69,-379.9"/>
</g>
<!-- Node4 -->
<g id="node4" class="node">
<title>Node4</title>
<g id="a_node4"><a xlink:href="../../d6/db5/class_scene.html#a5c26ef724365bd55c471acc673d60674" target="_top" xlink:title="Return the touchpoint registry of the scene.">
<polygon fill="white" stroke="black" points="372.5,-298.5 372.5,-317.5 520.5,-317.5 520.5,-298.5 372.5,-298.5"/>
<text text-anchor="middle" x="446.5" y="-305.5" font-family="Helvetica,sans-Serif" font-size="10.00">Scene::getTouchpointRegistry</text>
</a>
</g>
</g>
<!-- Node1&#45;&gt;Node4 -->
<g id="edge7" class="edge">
<title>Node1&#45;&gt;Node4</title>
<path fill="none" stroke="midnightblue" d="M77,-193.77C92.08,-213.97 129.88,-260.08 174,-280 233.05,-306.66 306.48,-312.83 362.08,-312.79"/>
<polygon fill="midnightblue" stroke="midnightblue" points="362.27,-316.29 372.25,-312.72 362.22,-309.29 362.27,-316.29"/>
</g>
<!-- Node5 -->
<g id="node5" class="node">
<title>Node5</title>
<g id="a_node5"><a xlink:href="../../d9/d58/class_touchpoint.html#a30cdb1f0de39cf4ffe2d23c3c750d331" target="_top" xlink:title="Return outside wiring entry point (grid coordinates)">
<polygon fill="white" stroke="black" points="187.5,-240 187.5,-270 320.5,-270 320.5,-240 187.5,-240"/>
<text text-anchor="start" x="195.5" y="-258" font-family="Helvetica,sans-Serif" font-size="10.00">Touchpoint::getConnection</text>
<text text-anchor="middle" x="254" y="-247" font-family="Helvetica,sans-Serif" font-size="10.00">PointIndex</text>
</a>
</g>
</g>
<!-- Node1&#45;&gt;Node5 -->
<g id="edge4" class="edge">
<title>Node1&#45;&gt;Node5</title>
<path fill="none" stroke="midnightblue" d="M89.23,-193.6C109.87,-203.69 143.77,-219.63 174,-231 179.2,-232.96 184.63,-234.87 190.11,-236.71"/>
<polygon fill="midnightblue" stroke="midnightblue" points="189.4,-240.15 199.99,-239.93 191.57,-233.5 189.4,-240.15"/>
</g>
<!-- Node6 -->
<g id="node6" class="node">
<title>Node6</title>
<g id="a_node6"><a xlink:href="../../d6/db5/class_scene.html#abe8f9d18527a1fea362460cdc53cb5eb" target="_top" xlink:title="Return the bounds of the mesh in scene coordinates.">
<polygon fill="white" stroke="black" points="174,-191 174,-221 334,-221 334,-191 174,-191"/>
<text text-anchor="start" x="182" y="-209" font-family="Helvetica,sans-Serif" font-size="10.00">Scene::getMeshWorldCoordinate</text>
<text text-anchor="middle" x="254" y="-198" font-family="Helvetica,sans-Serif" font-size="10.00">Bounds</text>
</a>
</g>
</g>
<!-- Node1&#45;&gt;Node6 -->
<g id="edge6" class="edge">
<title>Node1&#45;&gt;Node6</title>
<path fill="none" stroke="midnightblue" d="M138.14,-192.19C146.47,-193.19 155.07,-194.23 163.65,-195.26"/>
<polygon fill="midnightblue" stroke="midnightblue" points="163.34,-198.75 173.69,-196.47 164.18,-191.8 163.34,-198.75"/>
</g>
<!-- Node7 -->
<g id="node7" class="node">
<title>Node7</title>
<g id="a_node7"><a xlink:href="../../d6/db5/class_scene.html#a7e5ee53ea01ef113afaaf4b7c10accf3" target="_top" xlink:title="Return the voxel grid image data.">
<polygon fill="white" stroke="black" points="199.5,-152.5 199.5,-171.5 308.5,-171.5 308.5,-152.5 199.5,-152.5"/>
<text text-anchor="middle" x="254" y="-159.5" font-family="Helvetica,sans-Serif" font-size="10.00">Scene::getVoxelData</text>
</a>
</g>
</g>
<!-- Node1&#45;&gt;Node7 -->
<g id="edge8" class="edge">
<title>Node1&#45;&gt;Node7</title>
<path fill="none" stroke="midnightblue" d="M138.14,-175.81C154.89,-173.79 172.75,-171.65 189.28,-169.66"/>
<polygon fill="midnightblue" stroke="midnightblue" points="189.87,-173.11 199.38,-168.45 189.03,-166.16 189.87,-173.11"/>
</g>
<!-- Node8 -->
<g id="node8" class="node">
<title>Node8</title>
<g id="a_node8"><a xlink:href="../../d9/d58/class_touchpoint.html#afbb2470ea0d67a12a29eb3d6bd958f01" target="_top" xlink:title="Mark voxel grid cells as occupied by the touchpoint geometry.">
<polygon fill="white" stroke="black" points="183.5,-114.5 183.5,-133.5 324.5,-133.5 324.5,-114.5 183.5,-114.5"/>
<text text-anchor="middle" x="254" y="-121.5" font-family="Helvetica,sans-Serif" font-size="10.00">Touchpoint::markOccupation</text>
</a>
</g>
</g>
<!-- Node1&#45;&gt;Node8 -->
<g id="edge9" class="edge">
<title>Node1&#45;&gt;Node8</title>
<path fill="none" stroke="midnightblue" d="M91.59,-174.46C112.41,-165.52 144.94,-152.17 174,-143 181.84,-140.52 190.21,-138.19 198.46,-136.06"/>
<polygon fill="midnightblue" stroke="midnightblue" points="199.56,-139.4 208.41,-133.57 197.86,-132.6 199.56,-139.4"/>
</g>
<!-- Node13 -->
<g id="node13" class="node">
<title>Node13</title>
<g id="a_node13"><a xlink:href="../../de/d52/class_a_star.html#aa76c29f42861c4f6fc7c328e4dbc7d83" target="_top" xlink:title="Mark a path as locked so that it can not be used by another search.">
<polygon fill="white" stroke="black" points="209.5,-76.5 209.5,-95.5 298.5,-95.5 298.5,-76.5 209.5,-76.5"/>
<text text-anchor="middle" x="254" y="-83.5" font-family="Helvetica,sans-Serif" font-size="10.00">AStar::markPath</text>
</a>
</g>
</g>
<!-- Node1&#45;&gt;Node13 -->
<g id="edge14" class="edge">
<title>Node1&#45;&gt;Node13</title>
<path fill="none" stroke="midnightblue" d="M79.69,-174.37C97.05,-157.67 135.28,-123.36 174,-105 181.96,-101.22 190.75,-98.16 199.47,-95.68"/>
<polygon fill="midnightblue" stroke="midnightblue" points="200.46,-99.04 209.26,-93.13 198.7,-92.27 200.46,-99.04"/>
</g>
<!-- Node14 -->
<g id="node14" class="node">
<title>Node14</title>
<g id="a_node14"><a xlink:href="../../de/d52/class_a_star.html#a0d1fd50821c4cd7bbd8a87bd9fcf5dd3" target="_top" xlink:title="Search a path in the voxelgrid using the A* algorithm with the preset heuristic.">
<polygon fill="white" stroke="black" points="205.5,-38.5 205.5,-57.5 302.5,-57.5 302.5,-38.5 205.5,-38.5"/>
<text text-anchor="middle" x="254" y="-45.5" font-family="Helvetica,sans-Serif" font-size="10.00">AStar::searchPath</text>
</a>
</g>
</g>
<!-- Node1&#45;&gt;Node14 -->
<g id="edge15" class="edge">
<title>Node1&#45;&gt;Node14</title>
<path fill="none" stroke="midnightblue" d="M75.65,-174.35C89.38,-151.76 126.92,-95.23 174,-67 180.64,-63.02 188.05,-59.88 195.61,-57.39"/>
<polygon fill="midnightblue" stroke="midnightblue" points="196.61,-60.75 205.22,-54.58 194.64,-54.03 196.61,-60.75"/>
</g>
<!-- Node15 -->
<g id="node15" class="node">
<title>Node15</title>
<g id="a_node15"><a xlink:href="../../d9/d58/class_touchpoint.html#a550348f9d05c347b5186b6531d583a11" target="_top" xlink:title="Mark voxel grid cells as unoccupied by the touchpoint geometry.">
<polygon fill="white" stroke="black" points="178,-0.5 178,-19.5 330,-19.5 330,-0.5 178,-0.5"/>
<text text-anchor="middle" x="254" y="-7.5" font-family="Helvetica,sans-Serif" font-size="10.00">Touchpoint::unMarkOccupation</text>
</a>
</g>
</g>
<!-- Node1&#45;&gt;Node15 -->
<g id="edge16" class="edge">
<title>Node1&#45;&gt;Node15</title>
<path fill="none" stroke="midnightblue" d="M73.61,-174.16C84.27,-146.51 118.41,-67.68 174,-29 176.87,-27.01 179.92,-25.22 183.09,-23.62"/>
<polygon fill="midnightblue" stroke="midnightblue" points="184.54,-26.8 192.3,-19.59 181.73,-20.39 184.54,-26.8"/>
</g>
<!-- Node2&#45;&gt;Node3 -->
<g id="edge2" class="edge">
<title>Node2&#45;&gt;Node3</title>
<path fill="none" stroke="midnightblue" d="M319.76,-346.52C336.02,-348.91 353.6,-351.49 370.32,-353.95"/>
<polygon fill="midnightblue" stroke="midnightblue" points="370.19,-357.47 380.6,-355.46 371.21,-350.54 370.19,-357.47"/>
</g>
<!-- Node2&#45;&gt;Node4 -->
<g id="edge3" class="edge">
<title>Node2&#45;&gt;Node4</title>
<path fill="none" stroke="midnightblue" d="M317.64,-327.46C335.3,-324.78 354.66,-321.83 372.85,-319.06"/>
<polygon fill="midnightblue" stroke="midnightblue" points="373.46,-322.51 382.82,-317.54 372.41,-315.59 373.46,-322.51"/>
</g>
<!-- Node9 -->
<g id="node9" class="node">
<title>Node9</title>
<g id="a_node9"><a xlink:href="../../d9/d58/class_touchpoint.html#a1b82f162b238396efeae6b9369430a87" target="_top" xlink:title="Mark voxel grid cells occupied / unoccupied by the touchpoint geometry.">
<polygon fill="white" stroke="black" points="377,-52 377,-82 516,-82 516,-52 377,-52"/>
<text text-anchor="start" x="385" y="-70" font-family="Helvetica,sans-Serif" font-size="10.00">Touchpoint::markTouchpoint</text>
<text text-anchor="middle" x="446.5" y="-59" font-family="Helvetica,sans-Serif" font-size="10.00">Cells</text>
</a>
</g>
</g>
<!-- Node8&#45;&gt;Node9 -->
<g id="edge10" class="edge">
<title>Node8&#45;&gt;Node9</title>
<path fill="none" stroke="midnightblue" d="M297.83,-114.46C309.61,-111.63 322.35,-108.38 334,-105 353.99,-99.2 375.7,-92.01 394.61,-85.45"/>
<polygon fill="midnightblue" stroke="midnightblue" points="395.94,-88.69 404.22,-82.08 393.63,-82.08 395.94,-88.69"/>
</g>
<!-- Node10 -->
<g id="node10" class="node">
<title>Node10</title>
<g id="a_node10"><a xlink:href="../../d1/d7c/namespace_utils.html#ac9b063fc04e0a4e5501c8ed0af96ac47" target="_top" xlink:title="Clamp integer value between min and max.">
<polygon fill="white" stroke="black" points="596.5,-101.5 596.5,-120.5 676.5,-120.5 676.5,-101.5 596.5,-101.5"/>
<text text-anchor="middle" x="636.5" y="-108.5" font-family="Helvetica,sans-Serif" font-size="10.00">Utils::clampInt</text>
</a>
</g>
</g>
<!-- Node9&#45;&gt;Node10 -->
<g id="edge11" class="edge">
<title>Node9&#45;&gt;Node10</title>
<path fill="none" stroke="midnightblue" d="M511.67,-82.02C536.14,-87.74 563.6,-94.17 586.44,-99.52"/>
<polygon fill="midnightblue" stroke="midnightblue" points="585.72,-102.94 596.25,-101.81 587.31,-96.13 585.72,-102.94"/>
</g>
<!-- Node11 -->
<g id="node11" class="node">
<title>Node11</title>
<g id="a_node11"><a xlink:href="../../d9/d58/class_touchpoint.html#a465057d2b000f7fc374d594fb8b80ce6" target="_top" xlink:title="Return the bounds of the touchpoint in world coordinates.">
<polygon fill="white" stroke="black" points="559,-52 559,-82 714,-82 714,-52 559,-52"/>
<text text-anchor="start" x="567" y="-70" font-family="Helvetica,sans-Serif" font-size="10.00">Touchpoint::getWorldCoordinate</text>
<text text-anchor="middle" x="636.5" y="-59" font-family="Helvetica,sans-Serif" font-size="10.00">Bounds</text>
</a>
</g>
</g>
<!-- Node9&#45;&gt;Node11 -->
<g id="edge12" class="edge">
<title>Node9&#45;&gt;Node11</title>
<path fill="none" stroke="midnightblue" d="M516.17,-67C526.66,-67 537.61,-67 548.43,-67"/>
<polygon fill="midnightblue" stroke="midnightblue" points="548.76,-70.5 558.76,-67 548.76,-63.5 548.76,-70.5"/>
</g>
<!-- Node12 -->
<g id="node12" class="node">
<title>Node12</title>
<g id="a_node12"><a xlink:href="../../d1/d7c/namespace_utils.html#a606fb1eb5072ca20f56293fa71bd8578" target="_top" xlink:title="Compute 1D linearized index from 3D&#45;coodinate index.">
<polygon fill="white" stroke="black" points="608.5,-13.5 608.5,-32.5 664.5,-32.5 664.5,-13.5 608.5,-13.5"/>
<text text-anchor="middle" x="636.5" y="-20.5" font-family="Helvetica,sans-Serif" font-size="10.00">Utils::idx</text>
</a>
</g>
</g>
<!-- Node9&#45;&gt;Node12 -->
<g id="edge13" class="edge">
<title>Node9&#45;&gt;Node12</title>
<path fill="none" stroke="midnightblue" d="M511.67,-51.98C540.53,-45.23 573.56,-37.5 598.25,-31.72"/>
<polygon fill="midnightblue" stroke="midnightblue" points="599.34,-35.06 608.28,-29.37 597.75,-28.24 599.34,-35.06"/>
</g>
<!-- Node15&#45;&gt;Node9 -->
<g id="edge17" class="edge">
<title>Node15&#45;&gt;Node9</title>
<path fill="none" stroke="midnightblue" d="M297.83,-19.54C309.61,-22.37 322.35,-25.62 334,-29 353.99,-34.8 375.7,-41.99 394.61,-48.55"/>
<polygon fill="midnightblue" stroke="midnightblue" points="393.63,-51.92 404.22,-51.92 395.94,-45.31 393.63,-51.92"/>
</g>
</g>
</svg>
