<?xml version="1.0" encoding="UTF-8" standalone="no"?>
<!DOCTYPE svg PUBLIC "-//W3C//DTD SVG 1.1//EN"
 "http://www.w3.org/Graphics/SVG/1.1/DTD/svg11.dtd">
<!-- Generated by graphviz version 2.44.1 (0)
 -->
<!-- Title: point.cpp Pages: 1 -->
<svg width="465pt" height="263pt"
 viewBox="0.00 0.00 464.50 263.00" xmlns="http://www.w3.org/2000/svg" xmlns:xlink="http://www.w3.org/1999/xlink">
<g id="graph0" class="graph" transform="scale(1 1) rotate(0) translate(4 259)">
<title>point.cpp</title>
<polygon fill="white" stroke="transparent" points="-4,4 -4,-259 460.5,-259 460.5,4 -4,4"/>
<!-- Node1 -->
<g id="node1" class="node">
<title>Node1</title>
<g id="a_node1"><a xlink:title=" ">
<polygon fill="#bfbfbf" stroke="black" points="313,-235.5 313,-254.5 369,-254.5 369,-235.5 313,-235.5"/>
<text text-anchor="middle" x="341" y="-242.5" font-family="Helvetica,sans-Serif" font-size="10.00">point.cpp</text>
</a>
</g>
</g>
<!-- Node2 -->
<g id="node2" class="node">
<title>Node2</title>
<g id="a_node2"><a xlink:href="../../d2/d91/point_8h.html" target="_top" xlink:title=" ">
<polygon fill="white" stroke="black" points="145.5,-168.5 145.5,-198.5 258.5,-198.5 258.5,-168.5 145.5,-168.5"/>
<text text-anchor="start" x="153.5" y="-186.5" font-family="Helvetica,sans-Serif" font-size="10.00">helpers/include/Kernel</text>
<text text-anchor="middle" x="202" y="-175.5" font-family="Helvetica,sans-Serif" font-size="10.00">/point.h</text>
</a>
</g>
</g>
<!-- Node1&#45;&gt;Node2 -->
<g id="edge1" class="edge">
<title>Node1&#45;&gt;Node2</title>
<path fill="none" stroke="midnightblue" d="M321.08,-235.48C301.12,-226.93 269.75,-213.5 244.22,-202.57"/>
<polygon fill="midnightblue" stroke="midnightblue" points="245.33,-199.24 234.76,-198.52 242.58,-205.68 245.33,-199.24"/>
</g>
<!-- Node7 -->
<g id="node7" class="node">
<title>Node7</title>
<g id="a_node7"><a xlink:title=" ">
<polygon fill="white" stroke="#bfbfbf" points="265,-0.5 265,-19.5 313,-19.5 313,-0.5 265,-0.5"/>
<text text-anchor="middle" x="289" y="-7.5" font-family="Helvetica,sans-Serif" font-size="10.00">limits.h</text>
</a>
</g>
</g>
<!-- Node1&#45;&gt;Node7 -->
<g id="edge15" class="edge">
<title>Node1&#45;&gt;Node7</title>
<path fill="none" stroke="midnightblue" d="M339.09,-235.43C331.56,-201.68 303.83,-77.47 293.2,-29.8"/>
<polygon fill="midnightblue" stroke="midnightblue" points="296.58,-28.89 290.99,-19.9 289.75,-30.42 296.58,-28.89"/>
</g>
<!-- Node11 -->
<g id="node11" class="node">
<title>Node11</title>
<g id="a_node11"><a xlink:title=" ">
<polygon fill="white" stroke="#bfbfbf" points="343,-174 343,-193 391,-193 391,-174 343,-174"/>
<text text-anchor="middle" x="367" y="-181" font-family="Helvetica,sans-Serif" font-size="10.00">stdlib.h</text>
</a>
</g>
</g>
<!-- Node1&#45;&gt;Node11 -->
<g id="edge14" class="edge">
<title>Node1&#45;&gt;Node11</title>
<path fill="none" stroke="midnightblue" d="M344.73,-235.48C348.47,-226.9 354.36,-213.43 359.14,-202.48"/>
<polygon fill="midnightblue" stroke="midnightblue" points="362.48,-203.57 363.28,-193.01 356.07,-200.77 362.48,-203.57"/>
</g>
<!-- Node12 -->
<g id="node12" class="node">
<title>Node12</title>
<g id="a_node12"><a xlink:title=" ">
<polygon fill="white" stroke="#bfbfbf" points="409.5,-174 409.5,-193 456.5,-193 456.5,-174 409.5,-174"/>
<text text-anchor="middle" x="433" y="-181" font-family="Helvetica,sans-Serif" font-size="10.00">errno.h</text>
</a>
</g>
</g>
<!-- Node1&#45;&gt;Node12 -->
<g id="edge16" class="edge">
<title>Node1&#45;&gt;Node12</title>
<path fill="none" stroke="midnightblue" d="M354.18,-235.48C369.07,-225.84 393.54,-210.02 411.27,-198.55"/>
<polygon fill="midnightblue" stroke="midnightblue" points="413.35,-201.38 419.84,-193.01 409.55,-195.5 413.35,-201.38"/>
</g>
<!-- Node3 -->
<g id="node3" class="node">
<title>Node3</title>
<g id="a_node3"><a xlink:href="../../dc/dcc/basics_8h.html" target="_top" xlink:title=" ">
<polygon fill="white" stroke="black" points="146.5,-112.5 146.5,-131.5 199.5,-131.5 199.5,-112.5 146.5,-112.5"/>
<text text-anchor="middle" x="173" y="-119.5" font-family="Helvetica,sans-Serif" font-size="10.00">basics.h</text>
</a>
</g>
</g>
<!-- Node2&#45;&gt;Node3 -->
<g id="edge2" class="edge">
<title>Node2&#45;&gt;Node3</title>
<path fill="none" stroke="midnightblue" d="M195.13,-168.4C191.09,-160.11 185.94,-149.55 181.63,-140.71"/>
<polygon fill="midnightblue" stroke="midnightblue" points="184.75,-139.11 177.22,-131.66 178.45,-142.18 184.75,-139.11"/>
</g>
<!-- Node4 -->
<g id="node4" class="node">
<title>Node4</title>
<g id="a_node4"><a xlink:title=" ">
<polygon fill="white" stroke="#bfbfbf" points="201,-0.5 201,-19.5 247,-19.5 247,-0.5 201,-0.5"/>
<text text-anchor="middle" x="224" y="-7.5" font-family="Helvetica,sans-Serif" font-size="10.00">stdio.h</text>
</a>
</g>
</g>
<!-- Node3&#45;&gt;Node4 -->
<g id="edge3" class="edge">
<title>Node3&#45;&gt;Node4</title>
<path fill="none" stroke="midnightblue" d="M186.05,-112.37C196.95,-104.37 211.82,-91.39 219,-76 225.73,-61.58 226.57,-43.39 225.97,-29.92"/>
<polygon fill="midnightblue" stroke="midnightblue" points="229.46,-29.61 225.22,-19.9 222.48,-30.14 229.46,-29.61"/>
</g>
<!-- Node5 -->
<g id="node5" class="node">
<title>Node5</title>
<g id="a_node5"><a xlink:title=" ">
<polygon fill="white" stroke="#bfbfbf" points="68.5,-0.5 68.5,-19.5 115.5,-19.5 115.5,-0.5 68.5,-0.5"/>
<text text-anchor="middle" x="92" y="-7.5" font-family="Helvetica,sans-Serif" font-size="10.00">math.h</text>
</a>
</g>
</g>
<!-- Node3&#45;&gt;Node5 -->
<g id="edge4" class="edge">
<title>Node3&#45;&gt;Node5</title>
<path fill="none" stroke="midnightblue" d="M146.2,-118.25C120.24,-114 82.21,-103.23 64,-76 53.82,-60.78 64.98,-41.24 76.09,-27.58"/>
<polygon fill="midnightblue" stroke="midnightblue" points="78.85,-29.75 82.81,-19.92 73.58,-25.13 78.85,-29.75"/>
</g>
<!-- Node6 -->
<g id="node6" class="node">
<title>Node6</title>
<g id="a_node6"><a xlink:title=" ">
<polygon fill="white" stroke="#bfbfbf" points="73,-56.5 73,-75.5 117,-75.5 117,-56.5 73,-56.5"/>
<text text-anchor="middle" x="95" y="-63.5" font-family="Helvetica,sans-Serif" font-size="10.00">time.h</text>
</a>
</g>
</g>
<!-- Node3&#45;&gt;Node6 -->
<g id="edge5" class="edge">
<title>Node3&#45;&gt;Node6</title>
<path fill="none" stroke="midnightblue" d="M160.47,-112.32C148.41,-103.98 129.97,-91.21 115.73,-81.35"/>
<polygon fill="midnightblue" stroke="midnightblue" points="117.72,-78.47 107.5,-75.65 113.73,-84.22 117.72,-78.47"/>
</g>
<!-- Node3&#45;&gt;Node7 -->
<g id="edge6" class="edge">
<title>Node3&#45;&gt;Node7</title>
<path fill="none" stroke="midnightblue" d="M187.07,-112.49C200.4,-104.09 220.61,-90.44 236,-76 251.7,-61.27 266.95,-41.87 277.03,-28.11"/>
<polygon fill="midnightblue" stroke="midnightblue" points="280.14,-29.78 283.12,-19.61 274.45,-25.7 280.14,-29.78"/>
</g>
<!-- Node8 -->
<g id="node8" class="node">
<title>Node8</title>
<g id="a_node8"><a xlink:title=" ">
<polygon fill="white" stroke="#bfbfbf" points="0,-0.5 0,-19.5 44,-19.5 44,-0.5 0,-0.5"/>
<text text-anchor="middle" x="22" y="-7.5" font-family="Helvetica,sans-Serif" font-size="10.00">float.h</text>
</a>
</g>
</g>
<!-- Node3&#45;&gt;Node8 -->
<g id="edge7" class="edge">
<title>Node3&#45;&gt;Node8</title>
<path fill="none" stroke="midnightblue" d="M146.46,-116.43C120.71,-110.81 81.83,-99.02 56,-76 42.06,-63.58 32.94,-44.06 27.68,-29.65"/>
<polygon fill="midnightblue" stroke="midnightblue" points="30.89,-28.21 24.4,-19.83 24.25,-30.43 30.89,-28.21"/>
</g>
<!-- Node9 -->
<g id="node9" class="node">
<title>Node9</title>
<g id="a_node9"><a xlink:href="../../dd/da0/coordinates_8h.html" target="_top" xlink:title=" ">
<polygon fill="white" stroke="black" points="135.5,-56.5 135.5,-75.5 210.5,-75.5 210.5,-56.5 135.5,-56.5"/>
<text text-anchor="middle" x="173" y="-63.5" font-family="Helvetica,sans-Serif" font-size="10.00">coordinates.h</text>
</a>
</g>
</g>
<!-- Node3&#45;&gt;Node9 -->
<g id="edge8" class="edge">
<title>Node3&#45;&gt;Node9</title>
<path fill="none" stroke="midnightblue" d="M173,-112.08C173,-105.01 173,-94.86 173,-85.99"/>
<polygon fill="midnightblue" stroke="midnightblue" points="176.5,-85.75 173,-75.75 169.5,-85.75 176.5,-85.75"/>
</g>
<!-- Node9&#45;&gt;Node4 -->
<g id="edge9" class="edge">
<title>Node9&#45;&gt;Node4</title>
<path fill="none" stroke="midnightblue" d="M181.42,-56.08C188.85,-48.22 199.85,-36.57 208.81,-27.08"/>
<polygon fill="midnightblue" stroke="midnightblue" points="211.41,-29.42 215.74,-19.75 206.32,-24.62 211.41,-29.42"/>
</g>
<!-- Node9&#45;&gt;Node5 -->
<g id="edge10" class="edge">
<title>Node9&#45;&gt;Node5</title>
<path fill="none" stroke="midnightblue" d="M159.99,-56.32C147.47,-47.98 128.32,-35.21 113.53,-25.35"/>
<polygon fill="midnightblue" stroke="midnightblue" points="115.24,-22.29 104.98,-19.65 111.36,-28.11 115.24,-22.29"/>
</g>
<!-- Node9&#45;&gt;Node7 -->
<g id="edge11" class="edge">
<title>Node9&#45;&gt;Node7</title>
<path fill="none" stroke="midnightblue" d="M191.38,-56.44C210.22,-47.68 239.73,-33.94 261.38,-23.86"/>
<polygon fill="midnightblue" stroke="midnightblue" points="263.12,-26.91 270.71,-19.52 260.16,-20.56 263.12,-26.91"/>
</g>
<!-- Node9&#45;&gt;Node8 -->
<g id="edge12" class="edge">
<title>Node9&#45;&gt;Node8</title>
<path fill="none" stroke="midnightblue" d="M149.07,-56.44C123.33,-47.24 82.28,-32.56 53.83,-22.38"/>
<polygon fill="midnightblue" stroke="midnightblue" points="54.93,-19.06 44.34,-18.99 52.58,-25.65 54.93,-19.06"/>
</g>
<!-- Node10 -->
<g id="node10" class="node">
<title>Node10</title>
<g id="a_node10"><a xlink:title=" ">
<polygon fill="white" stroke="#bfbfbf" points="137,-0.5 137,-19.5 183,-19.5 183,-0.5 137,-0.5"/>
<text text-anchor="middle" x="160" y="-7.5" font-family="Helvetica,sans-Serif" font-size="10.00">cstdint</text>
</a>
</g>
</g>
<!-- Node9&#45;&gt;Node10 -->
<g id="edge13" class="edge">
<title>Node9&#45;&gt;Node10</title>
<path fill="none" stroke="midnightblue" d="M170.85,-56.08C169.13,-48.93 166.65,-38.64 164.5,-29.69"/>
<polygon fill="midnightblue" stroke="midnightblue" points="167.85,-28.65 162.11,-19.75 161.04,-30.29 167.85,-28.65"/>
</g>
</g>
</svg>
