<?xml version="1.0" encoding="UTF-8" standalone="no"?>
<!DOCTYPE svg PUBLIC "-//W3C//DTD SVG 1.1//EN"
 "http://www.w3.org/Graphics/SVG/1.1/DTD/svg11.dtd">
<!-- Generated by graphviz version 2.44.1 (0)
 -->
<!-- Title: NullOptimizer::optimize Pages: 1 -->
<svg width="689pt" height="356pt"
 viewBox="0.00 0.00 689.00 355.50" xmlns="http://www.w3.org/2000/svg" xmlns:xlink="http://www.w3.org/1999/xlink">
<g id="graph0" class="graph" transform="scale(1 1) rotate(0) translate(4 351.5)">
<title>NullOptimizer::optimize</title>
<polygon fill="white" stroke="transparent" points="-4,4 -4,-351.5 685,-351.5 685,4 -4,4"/>
<!-- Node1 -->
<g id="node1" class="node">
<title>Node1</title>
<g id="a_node1"><a xlink:title=" ">
<polygon fill="#bfbfbf" stroke="black" points="0,-152.5 0,-171.5 119,-171.5 119,-152.5 0,-152.5"/>
<text text-anchor="middle" x="59.5" y="-159.5" font-family="Helvetica,sans-Serif" font-size="10.00">NullOptimizer::optimize</text>
</a>
</g>
</g>
<!-- Node2 -->
<g id="node2" class="node">
<title>Node2</title>
<g id="a_node2"><a xlink:href="../../d9/d58/class_touchpoint.html#a30cdb1f0de39cf4ffe2d23c3c750d331" target="_top" xlink:title="Return outside wiring entry point (grid coordinates)">
<polygon fill="white" stroke="black" points="168.5,-317 168.5,-347 301.5,-347 301.5,-317 168.5,-317"/>
<text text-anchor="start" x="176.5" y="-335" font-family="Helvetica,sans-Serif" font-size="10.00">Touchpoint::getConnection</text>
<text text-anchor="middle" x="235" y="-324" font-family="Helvetica,sans-Serif" font-size="10.00">PointIndex</text>
</a>
</g>
</g>
<!-- Node1&#45;&gt;Node2 -->
<g id="edge1" class="edge">
<title>Node1&#45;&gt;Node2</title>
<path fill="none" stroke="midnightblue" d="M64.12,-171.77C74.26,-197.79 105.48,-269.37 155,-307 157.44,-308.86 160.02,-310.57 162.71,-312.17"/>
<polygon fill="midnightblue" stroke="midnightblue" points="161.09,-315.27 171.57,-316.84 164.35,-309.08 161.09,-315.27"/>
</g>
<!-- Node3 -->
<g id="node3" class="node">
<title>Node3</title>
<g id="a_node3"><a xlink:href="../../d6/db5/class_scene.html#a64cb0dcdcb57a45fe485fb3489c112c4" target="_top" xlink:title="Return if the 26&#45;neighborhood voxels of a connection path are locked too.">
<polygon fill="white" stroke="black" points="158.5,-278.5 158.5,-297.5 311.5,-297.5 311.5,-278.5 158.5,-278.5"/>
<text text-anchor="middle" x="235" y="-285.5" font-family="Helvetica,sans-Serif" font-size="10.00">Scene::getLockNeighborVoxels</text>
</a>
</g>
</g>
<!-- Node1&#45;&gt;Node3 -->
<g id="edge2" class="edge">
<title>Node1&#45;&gt;Node3</title>
<path fill="none" stroke="midnightblue" d="M66.18,-171.77C79.08,-193.02 112.74,-243.57 155,-269 158.6,-271.17 162.44,-273.09 166.4,-274.79"/>
<polygon fill="midnightblue" stroke="midnightblue" points="165.25,-278.1 175.84,-278.38 167.74,-271.55 165.25,-278.1"/>
</g>
<!-- Node4 -->
<g id="node4" class="node">
<title>Node4</title>
<g id="a_node4"><a xlink:href="../../d6/db5/class_scene.html#abe8f9d18527a1fea362460cdc53cb5eb" target="_top" xlink:title="Return the bounds of the mesh in scene coordinates.">
<polygon fill="white" stroke="black" points="155,-229 155,-259 315,-259 315,-229 155,-229"/>
<text text-anchor="start" x="163" y="-247" font-family="Helvetica,sans-Serif" font-size="10.00">Scene::getMeshWorldCoordinate</text>
<text text-anchor="middle" x="235" y="-236" font-family="Helvetica,sans-Serif" font-size="10.00">Bounds</text>
</a>
</g>
</g>
<!-- Node1&#45;&gt;Node4 -->
<g id="edge3" class="edge">
<title>Node1&#45;&gt;Node4</title>
<path fill="none" stroke="midnightblue" d="M74.03,-171.57C91.88,-183.87 124.62,-205.27 155,-219 160,-221.26 165.26,-223.4 170.59,-225.41"/>
<polygon fill="midnightblue" stroke="midnightblue" points="169.64,-228.79 180.24,-228.87 172.01,-222.2 169.64,-228.79"/>
</g>
<!-- Node5 -->
<g id="node5" class="node">
<title>Node5</title>
<g id="a_node5"><a xlink:href="../../d6/db5/class_scene.html#a5c26ef724365bd55c471acc673d60674" target="_top" xlink:title="Return the touchpoint registry of the scene.">
<polygon fill="white" stroke="black" points="161,-190.5 161,-209.5 309,-209.5 309,-190.5 161,-190.5"/>
<text text-anchor="middle" x="235" y="-197.5" font-family="Helvetica,sans-Serif" font-size="10.00">Scene::getTouchpointRegistry</text>
</a>
</g>
</g>
<!-- Node1&#45;&gt;Node5 -->
<g id="edge4" class="edge">
<title>Node1&#45;&gt;Node5</title>
<path fill="none" stroke="midnightblue" d="M104.28,-171.59C127.49,-176.67 156.18,-182.96 180.67,-188.32"/>
<polygon fill="midnightblue" stroke="midnightblue" points="180.02,-191.76 190.53,-190.48 181.51,-184.92 180.02,-191.76"/>
</g>
<!-- Node6 -->
<g id="node6" class="node">
<title>Node6</title>
<g id="a_node6"><a xlink:href="../../d6/db5/class_scene.html#a7e5ee53ea01ef113afaaf4b7c10accf3" target="_top" xlink:title="Return the voxel grid image data.">
<polygon fill="white" stroke="black" points="180.5,-152.5 180.5,-171.5 289.5,-171.5 289.5,-152.5 180.5,-152.5"/>
<text text-anchor="middle" x="235" y="-159.5" font-family="Helvetica,sans-Serif" font-size="10.00">Scene::getVoxelData</text>
</a>
</g>
</g>
<!-- Node1&#45;&gt;Node6 -->
<g id="edge5" class="edge">
<title>Node1&#45;&gt;Node6</title>
<path fill="none" stroke="midnightblue" d="M119.24,-162C135.6,-162 153.46,-162 170.1,-162"/>
<polygon fill="midnightblue" stroke="midnightblue" points="170.28,-165.5 180.28,-162 170.28,-158.5 170.28,-165.5"/>
</g>
<!-- Node7 -->
<g id="node7" class="node">
<title>Node7</title>
<g id="a_node7"><a xlink:href="../../d9/d58/class_touchpoint.html#afbb2470ea0d67a12a29eb3d6bd958f01" target="_top" xlink:title="Mark voxel grid cells as occupied by the touchpoint geometry.">
<polygon fill="white" stroke="black" points="164.5,-114.5 164.5,-133.5 305.5,-133.5 305.5,-114.5 164.5,-114.5"/>
<text text-anchor="middle" x="235" y="-121.5" font-family="Helvetica,sans-Serif" font-size="10.00">Touchpoint::markOccupation</text>
</a>
</g>
</g>
<!-- Node1&#45;&gt;Node7 -->
<g id="edge6" class="edge">
<title>Node1&#45;&gt;Node7</title>
<path fill="none" stroke="midnightblue" d="M104.28,-152.41C127.49,-147.33 156.18,-141.04 180.67,-135.68"/>
<polygon fill="midnightblue" stroke="midnightblue" points="181.51,-139.08 190.53,-133.52 180.02,-132.24 181.51,-139.08"/>
</g>
<!-- Node12 -->
<g id="node12" class="node">
<title>Node12</title>
<g id="a_node12"><a xlink:href="../../de/d52/class_a_star.html#aa76c29f42861c4f6fc7c328e4dbc7d83" target="_top" xlink:title="Mark a path as locked so that it can not be used by another search.">
<polygon fill="white" stroke="black" points="190.5,-76.5 190.5,-95.5 279.5,-95.5 279.5,-76.5 190.5,-76.5"/>
<text text-anchor="middle" x="235" y="-83.5" font-family="Helvetica,sans-Serif" font-size="10.00">AStar::markPath</text>
</a>
</g>
</g>
<!-- Node1&#45;&gt;Node12 -->
<g id="edge11" class="edge">
<title>Node1&#45;&gt;Node12</title>
<path fill="none" stroke="midnightblue" d="M73.58,-152.31C91.21,-139.69 123.98,-117.73 155,-105 163.06,-101.69 171.83,-98.88 180.49,-96.5"/>
<polygon fill="midnightblue" stroke="midnightblue" points="181.38,-99.89 190.19,-94.01 179.64,-93.11 181.38,-99.89"/>
</g>
<!-- Node13 -->
<g id="node13" class="node">
<title>Node13</title>
<g id="a_node13"><a xlink:href="../../de/d52/class_a_star.html#a0d1fd50821c4cd7bbd8a87bd9fcf5dd3" target="_top" xlink:title="Search a path in the voxelgrid using the A* algorithm with the preset heuristic.">
<polygon fill="white" stroke="black" points="186.5,-38.5 186.5,-57.5 283.5,-57.5 283.5,-38.5 186.5,-38.5"/>
<text text-anchor="middle" x="235" y="-45.5" font-family="Helvetica,sans-Serif" font-size="10.00">AStar::searchPath</text>
</a>
</g>
</g>
<!-- Node1&#45;&gt;Node13 -->
<g id="edge12" class="edge">
<title>Node1&#45;&gt;Node13</title>
<path fill="none" stroke="midnightblue" d="M67.09,-152.47C80.97,-133.16 115.25,-89.34 155,-67 161.74,-63.21 169.22,-60.17 176.82,-57.74"/>
<polygon fill="midnightblue" stroke="midnightblue" points="177.8,-61.09 186.44,-54.96 175.87,-54.37 177.8,-61.09"/>
</g>
<!-- Node14 -->
<g id="node14" class="node">
<title>Node14</title>
<g id="a_node14"><a xlink:href="../../d9/d58/class_touchpoint.html#a550348f9d05c347b5186b6531d583a11" target="_top" xlink:title="Mark voxel grid cells as unoccupied by the touchpoint geometry.">
<polygon fill="white" stroke="black" points="159,-0.5 159,-19.5 311,-19.5 311,-0.5 159,-0.5"/>
<text text-anchor="middle" x="235" y="-7.5" font-family="Helvetica,sans-Serif" font-size="10.00">Touchpoint::unMarkOccupation</text>
</a>
</g>
</g>
<!-- Node1&#45;&gt;Node14 -->
<g id="edge13" class="edge">
<title>Node1&#45;&gt;Node14</title>
<path fill="none" stroke="midnightblue" d="M64.53,-152.14C75.24,-127.25 106.9,-61.52 155,-29 157.95,-27 161.09,-25.22 164.35,-23.62"/>
<polygon fill="midnightblue" stroke="midnightblue" points="165.98,-26.73 173.81,-19.58 163.23,-20.29 165.98,-26.73"/>
</g>
<!-- Node8 -->
<g id="node8" class="node">
<title>Node8</title>
<g id="a_node8"><a xlink:href="../../d9/d58/class_touchpoint.html#a1b82f162b238396efeae6b9369430a87" target="_top" xlink:title="Mark voxel grid cells occupied / unoccupied by the touchpoint geometry.">
<polygon fill="white" stroke="black" points="351,-52 351,-82 490,-82 490,-52 351,-52"/>
<text text-anchor="start" x="359" y="-70" font-family="Helvetica,sans-Serif" font-size="10.00">Touchpoint::markTouchpoint</text>
<text text-anchor="middle" x="420.5" y="-59" font-family="Helvetica,sans-Serif" font-size="10.00">Cells</text>
</a>
</g>
</g>
<!-- Node7&#45;&gt;Node8 -->
<g id="edge7" class="edge">
<title>Node7&#45;&gt;Node8</title>
<path fill="none" stroke="midnightblue" d="M279.7,-114.42C291.25,-111.64 303.65,-108.42 315,-105 333.72,-99.37 353.97,-92.24 371.63,-85.69"/>
<polygon fill="midnightblue" stroke="midnightblue" points="373.01,-88.91 381.14,-82.13 370.55,-82.36 373.01,-88.91"/>
</g>
<!-- Node9 -->
<g id="node9" class="node">
<title>Node9</title>
<g id="a_node9"><a xlink:href="../../d1/d7c/namespace_utils.html#ac9b063fc04e0a4e5501c8ed0af96ac47" target="_top" xlink:title="Clamp integer value between min and max.">
<polygon fill="white" stroke="black" points="563.5,-101.5 563.5,-120.5 643.5,-120.5 643.5,-101.5 563.5,-101.5"/>
<text text-anchor="middle" x="603.5" y="-108.5" font-family="Helvetica,sans-Serif" font-size="10.00">Utils::clampInt</text>
</a>
</g>
</g>
<!-- Node8&#45;&gt;Node9 -->
<g id="edge8" class="edge">
<title>Node8&#45;&gt;Node9</title>
<path fill="none" stroke="midnightblue" d="M483.28,-82.02C506.18,-87.59 531.82,-93.82 553.43,-99.07"/>
<polygon fill="midnightblue" stroke="midnightblue" points="552.83,-102.53 563.37,-101.49 554.48,-95.72 552.83,-102.53"/>
</g>
<!-- Node10 -->
<g id="node10" class="node">
<title>Node10</title>
<g id="a_node10"><a xlink:href="../../d9/d58/class_touchpoint.html#a465057d2b000f7fc374d594fb8b80ce6" target="_top" xlink:title="Return the bounds of the touchpoint in world coordinates.">
<polygon fill="white" stroke="black" points="526,-52 526,-82 681,-82 681,-52 526,-52"/>
<text text-anchor="start" x="534" y="-70" font-family="Helvetica,sans-Serif" font-size="10.00">Touchpoint::getWorldCoordinate</text>
<text text-anchor="middle" x="603.5" y="-59" font-family="Helvetica,sans-Serif" font-size="10.00">Bounds</text>
</a>
</g>
</g>
<!-- Node8&#45;&gt;Node10 -->
<g id="edge9" class="edge">
<title>Node8&#45;&gt;Node10</title>
<path fill="none" stroke="midnightblue" d="M490.19,-67C498.6,-67 507.27,-67 515.9,-67"/>
<polygon fill="midnightblue" stroke="midnightblue" points="515.99,-70.5 525.99,-67 515.99,-63.5 515.99,-70.5"/>
</g>
<!-- Node11 -->
<g id="node11" class="node">
<title>Node11</title>
<g id="a_node11"><a xlink:href="../../d1/d7c/namespace_utils.html#a606fb1eb5072ca20f56293fa71bd8578" target="_top" xlink:title="Compute 1D linearized index from 3D&#45;coodinate index.">
<polygon fill="white" stroke="black" points="575.5,-13.5 575.5,-32.5 631.5,-32.5 631.5,-13.5 575.5,-13.5"/>
<text text-anchor="middle" x="603.5" y="-20.5" font-family="Helvetica,sans-Serif" font-size="10.00">Utils::idx</text>
</a>
</g>
</g>
<!-- Node8&#45;&gt;Node11 -->
<g id="edge10" class="edge">
<title>Node8&#45;&gt;Node11</title>
<path fill="none" stroke="midnightblue" d="M483.28,-51.98C510.58,-45.34 541.77,-37.76 565.4,-32.02"/>
<polygon fill="midnightblue" stroke="midnightblue" points="566.46,-35.36 575.35,-29.6 564.81,-28.56 566.46,-35.36"/>
</g>
<!-- Node14&#45;&gt;Node8 -->
<g id="edge14" class="edge">
<title>Node14&#45;&gt;Node8</title>
<path fill="none" stroke="midnightblue" d="M279.7,-19.58C291.25,-22.36 303.65,-25.58 315,-29 333.72,-34.63 353.97,-41.76 371.63,-48.31"/>
<polygon fill="midnightblue" stroke="midnightblue" points="370.55,-51.64 381.14,-51.87 373.01,-45.09 370.55,-51.64"/>
</g>
</g>
</svg>
