<?xml version="1.0" encoding="UTF-8" standalone="no"?>
<!DOCTYPE svg PUBLIC "-//W3C//DTD SVG 1.1//EN"
 "http://www.w3.org/Graphics/SVG/1.1/DTD/svg11.dtd">
<!-- Generated by graphviz version 2.44.1 (0)
 -->
<!-- Title: T_MESH::Basic_TMesh::EulerEdgeTriangle Pages: 1 -->
<svg width="1029pt" height="433pt"
 viewBox="0.00 0.00 1029.00 433.14" xmlns="http://www.w3.org/2000/svg" xmlns:xlink="http://www.w3.org/1999/xlink">
<g id="graph0" class="graph" transform="scale(1 1) rotate(0) translate(4 429.14)">
<title>T_MESH::Basic_TMesh::EulerEdgeTriangle</title>
<polygon fill="white" stroke="transparent" points="-4,4 -4,-429.14 1025,-429.14 1025,4 -4,4"/>
<!-- Node1 -->
<g id="node1" class="node">
<title>Node1</title>
<g id="a_node1"><a xlink:title="Creates a newEdge &#39;e&#39; and an oriented Triangle bounded by &#39;e&#39;, &#39;e1&#39; and &#39;e2&#39;.">
<polygon fill="#bfbfbf" stroke="black" points="0,-109 0,-139 123,-139 123,-109 0,-109"/>
<text text-anchor="start" x="8" y="-127" font-family="Helvetica,sans-Serif" font-size="10.00">T_MESH::Basic_TMesh</text>
<text text-anchor="middle" x="61.5" y="-116" font-family="Helvetica,sans-Serif" font-size="10.00">::EulerEdgeTriangle</text>
</a>
</g>
</g>
<!-- Node2 -->
<g id="node2" class="node">
<title>Node2</title>
<g id="a_node2"><a xlink:href="../../da/da2/class_t___m_e_s_h_1_1_edge.html#a560eca8895471f987bd3228b13c40052" target="_top" xlink:title="Vertex shared with edge &#39;b&#39;. NULL if this and &#39;b&#39; do not share any vertex.">
<polygon fill="white" stroke="black" points="348,-114.5 348,-133.5 505,-133.5 505,-114.5 348,-114.5"/>
<text text-anchor="middle" x="426.5" y="-121.5" font-family="Helvetica,sans-Serif" font-size="10.00">T_MESH::Edge::commonVertex</text>
</a>
</g>
</g>
<!-- Node1&#45;&gt;Node2 -->
<g id="edge1" class="edge">
<title>Node1&#45;&gt;Node2</title>
<path fill="none" stroke="midnightblue" d="M123.26,-124C181.91,-124 271.34,-124 337.72,-124"/>
<polygon fill="midnightblue" stroke="midnightblue" points="337.75,-127.5 347.75,-124 337.75,-120.5 337.75,-127.5"/>
</g>
<!-- Node3 -->
<g id="node3" class="node">
<title>Node3</title>
<g id="a_node3"><a xlink:href="../../d6/d27/class_t___m_e_s_h_1_1_basic___t_mesh.html#a0cd2bcd2e4d1ff1cb1a78ead09e121a3" target="_top" xlink:title="Creates an Edge connecting two existing mesh vertices.">
<polygon fill="white" stroke="black" points="174,-314 174,-344 297,-344 297,-314 174,-314"/>
<text text-anchor="start" x="182" y="-332" font-family="Helvetica,sans-Serif" font-size="10.00">T_MESH::Basic_TMesh</text>
<text text-anchor="middle" x="235.5" y="-321" font-family="Helvetica,sans-Serif" font-size="10.00">::CreateEdge</text>
</a>
</g>
</g>
<!-- Node1&#45;&gt;Node3 -->
<g id="edge2" class="edge">
<title>Node1&#45;&gt;Node3</title>
<path fill="none" stroke="midnightblue" d="M75.15,-139.07C104.97,-174.62 179.82,-263.83 215.29,-306.11"/>
<polygon fill="midnightblue" stroke="midnightblue" points="212.73,-308.49 221.83,-313.9 218.09,-303.99 212.73,-308.49"/>
</g>
<!-- Node6 -->
<g id="node6" class="node">
<title>Node6</title>
<g id="a_node6"><a xlink:href="../../da/da2/class_t___m_e_s_h_1_1_edge.html#aef981891343c94489f00b060bd654b6c" target="_top" xlink:title="Vertex opposite to &#39;v&#39;. NULL if &#39;v&#39; is not a vertex of the edge.">
<polygon fill="white" stroke="black" points="690.5,-138.5 690.5,-157.5 846.5,-157.5 846.5,-138.5 690.5,-138.5"/>
<text text-anchor="middle" x="768.5" y="-145.5" font-family="Helvetica,sans-Serif" font-size="10.00">T_MESH::Edge::oppositeVertex</text>
</a>
</g>
</g>
<!-- Node1&#45;&gt;Node6 -->
<g id="edge25" class="edge">
<title>Node1&#45;&gt;Node6</title>
<path fill="none" stroke="midnightblue" d="M77.55,-139.19C95.25,-155.87 126.37,-181.66 159,-192 305.59,-238.46 351.75,-204.75 505,-192 578.11,-185.91 661.5,-170.45 714.3,-159.59"/>
<polygon fill="midnightblue" stroke="midnightblue" points="715.04,-163.01 724.12,-157.55 713.62,-156.16 715.04,-163.01"/>
</g>
<!-- Node12 -->
<g id="node12" class="node">
<title>Node12</title>
<g id="a_node12"><a xlink:href="../../da/da2/class_t___m_e_s_h_1_1_edge.html#a7d7329ff24b7b6eb2eceee39711dd650" target="_top" xlink:title="TRUE iff &#39;v&#39; is an end&#45;point of the edge.">
<polygon fill="white" stroke="black" points="886,-126.5 886,-145.5 1021,-145.5 1021,-126.5 886,-126.5"/>
<text text-anchor="middle" x="953.5" y="-133.5" font-family="Helvetica,sans-Serif" font-size="10.00">T_MESH::Edge::hasVertex</text>
</a>
</g>
</g>
<!-- Node1&#45;&gt;Node12 -->
<g id="edge22" class="edge">
<title>Node1&#45;&gt;Node12</title>
<path fill="none" stroke="midnightblue" d="M123.31,-113.72C195.25,-102.46 318.73,-86 425.5,-86 425.5,-86 425.5,-86 597,-86 706.38,-86 832.85,-109.5 901.59,-124.28"/>
<polygon fill="midnightblue" stroke="midnightblue" points="901.19,-127.77 911.71,-126.48 902.68,-120.93 901.19,-127.77"/>
</g>
<!-- Node17 -->
<g id="node17" class="node">
<title>Node17</title>
<g id="a_node17"><a xlink:href="../../d6/d27/class_t___m_e_s_h_1_1_basic___t_mesh.html#ae9b140c83f01239adb8204f70a73e86c" target="_top" xlink:title="Creates a properly oriented Triangle bounded by three existing mesh edges.">
<polygon fill="white" stroke="black" points="174,-153 174,-183 297,-183 297,-153 174,-153"/>
<text text-anchor="start" x="182" y="-171" font-family="Helvetica,sans-Serif" font-size="10.00">T_MESH::Basic_TMesh</text>
<text text-anchor="middle" x="235.5" y="-160" font-family="Helvetica,sans-Serif" font-size="10.00">::CreateTriangle</text>
</a>
</g>
</g>
<!-- Node1&#45;&gt;Node17 -->
<g id="edge18" class="edge">
<title>Node1&#45;&gt;Node17</title>
<path fill="none" stroke="midnightblue" d="M121.21,-139.02C135.52,-142.68 150.96,-146.63 165.69,-150.4"/>
<polygon fill="midnightblue" stroke="midnightblue" points="165.21,-153.89 175.76,-152.97 166.94,-147.1 165.21,-153.89"/>
</g>
<!-- Node19 -->
<g id="node19" class="node">
<title>Node19</title>
<g id="a_node19"><a xlink:href="../../da/da2/class_t___m_e_s_h_1_1_edge.html#a0f2457674237bd05c42d68b023502742" target="_top" xlink:title="TRUE iff edge is on the boundary (i.e., one of the two incident triangles is NULL).">
<polygon fill="white" stroke="black" points="159,-38.5 159,-57.5 312,-57.5 312,-38.5 159,-38.5"/>
<text text-anchor="middle" x="235.5" y="-45.5" font-family="Helvetica,sans-Serif" font-size="10.00">T_MESH::Edge::isOnBoundary</text>
</a>
</g>
</g>
<!-- Node1&#45;&gt;Node19 -->
<g id="edge23" class="edge">
<title>Node1&#45;&gt;Node19</title>
<path fill="none" stroke="midnightblue" d="M87.26,-108.99C106.39,-97.81 133.77,-82.7 159,-72 168.88,-67.81 179.76,-63.94 190.1,-60.59"/>
<polygon fill="midnightblue" stroke="midnightblue" points="191.32,-63.88 199.81,-57.55 189.22,-57.2 191.32,-63.88"/>
</g>
<!-- Node20 -->
<g id="node20" class="node">
<title>Node20</title>
<g id="a_node20"><a xlink:href="../../d8/d6e/class_t___m_e_s_h_1_1_triangle.html#a7233b095134d4402e88e988a225d65e5" target="_top" xlink:title="Edge next to &#39;e&#39; in the ordering or the triangle. NULL if &#39;e&#39; is not an edge of the triangle.">
<polygon fill="white" stroke="black" points="163,-0.5 163,-19.5 308,-19.5 308,-0.5 163,-0.5"/>
<text text-anchor="middle" x="235.5" y="-7.5" font-family="Helvetica,sans-Serif" font-size="10.00">T_MESH::Triangle::nextEdge</text>
</a>
</g>
</g>
<!-- Node1&#45;&gt;Node20 -->
<g id="edge24" class="edge">
<title>Node1&#45;&gt;Node20</title>
<path fill="none" stroke="midnightblue" d="M73.48,-108.98C89.75,-87.85 122.32,-49.62 159,-29 162.95,-26.78 167.16,-24.81 171.5,-23.08"/>
<polygon fill="midnightblue" stroke="midnightblue" points="172.9,-26.29 181.13,-19.62 170.54,-19.7 172.9,-26.29"/>
</g>
<!-- Node4 -->
<g id="node4" class="node">
<title>Node4</title>
<g id="a_node4"><a xlink:href="../../d3/d04/class_t___m_e_s_h_1_1_list.html#ae601a7e17364ce83f74ffcb6c64971ca" target="_top" xlink:title="Appends a new node storing &#39;d&#39; to the head. &#160;&#160;O(1).">
<polygon fill="white" stroke="black" points="698.5,-404.5 698.5,-423.5 838.5,-423.5 838.5,-404.5 698.5,-404.5"/>
<text text-anchor="middle" x="768.5" y="-411.5" font-family="Helvetica,sans-Serif" font-size="10.00">T_MESH::List::appendHead</text>
</a>
</g>
</g>
<!-- Node3&#45;&gt;Node4 -->
<g id="edge3" class="edge">
<title>Node3&#45;&gt;Node4</title>
<path fill="none" stroke="midnightblue" d="M255.27,-344.07C276.39,-360.04 312.43,-384.39 348,-395 462.46,-429.14 602.24,-427.36 688.05,-421.66"/>
<polygon fill="midnightblue" stroke="midnightblue" points="688.51,-425.14 698.24,-420.95 688.02,-418.15 688.51,-425.14"/>
</g>
<!-- Node5 -->
<g id="node5" class="node">
<title>Node5</title>
<g id="a_node5"><a xlink:href="../../d5/d7f/class_t___m_e_s_h_1_1_vertex.html#af74a29c7daa03825b0156bfe7f64052a" target="_top" xlink:title="Returns the edge connecting this vertex to &#39;v&#39;. NULL if such an edge does not exist.">
<polygon fill="white" stroke="black" points="360,-278.5 360,-297.5 493,-297.5 493,-278.5 360,-278.5"/>
<text text-anchor="middle" x="426.5" y="-285.5" font-family="Helvetica,sans-Serif" font-size="10.00">T_MESH::Vertex::getEdge</text>
</a>
</g>
</g>
<!-- Node3&#45;&gt;Node5 -->
<g id="edge4" class="edge">
<title>Node3&#45;&gt;Node5</title>
<path fill="none" stroke="midnightblue" d="M297.08,-315.86C320.97,-310.68 348.19,-304.77 371.41,-299.73"/>
<polygon fill="midnightblue" stroke="midnightblue" points="372.4,-303.1 381.43,-297.56 370.91,-296.26 372.4,-303.1"/>
</g>
<!-- Node16 -->
<g id="node16" class="node">
<title>Node16</title>
<g id="a_node16"><a xlink:href="../../d6/d27/class_t___m_e_s_h_1_1_basic___t_mesh.html#a20469173793123e3dd41269a48602ba2" target="_top" xlink:title="AMF_ADD 1.1&gt;">
<polygon fill="white" stroke="black" points="365,-355 365,-385 488,-385 488,-355 365,-355"/>
<text text-anchor="start" x="373" y="-373" font-family="Helvetica,sans-Serif" font-size="10.00">T_MESH::Basic_TMesh</text>
<text text-anchor="middle" x="426.5" y="-362" font-family="Helvetica,sans-Serif" font-size="10.00">::newEdge</text>
</a>
</g>
</g>
<!-- Node3&#45;&gt;Node16 -->
<g id="edge17" class="edge">
<title>Node3&#45;&gt;Node16</title>
<path fill="none" stroke="midnightblue" d="M297.08,-342.14C315.56,-346.15 336.04,-350.59 355.11,-354.73"/>
<polygon fill="midnightblue" stroke="midnightblue" points="354.42,-358.16 364.94,-356.86 355.91,-351.32 354.42,-358.16"/>
</g>
<!-- Node5&#45;&gt;Node6 -->
<g id="edge5" class="edge">
<title>Node5&#45;&gt;Node6</title>
<path fill="none" stroke="midnightblue" d="M477.99,-278.49C535.14,-266.96 623.85,-246.5 651,-226 675.51,-207.49 662.13,-185.03 687,-167 689.67,-165.06 692.52,-163.32 695.48,-161.75"/>
<polygon fill="midnightblue" stroke="midnightblue" points="697.02,-164.89 704.66,-157.55 694.11,-158.53 697.02,-164.89"/>
</g>
<!-- Node7 -->
<g id="node7" class="node">
<title>Node7</title>
<g id="a_node7"><a xlink:href="../../d5/d7f/class_t___m_e_s_h_1_1_vertex.html#a66b49df1416ddcee6be0e1abe3aadda9" target="_top" xlink:title="List of incident edges.">
<polygon fill="white" stroke="black" points="541,-278.5 541,-297.5 651,-297.5 651,-278.5 541,-278.5"/>
<text text-anchor="middle" x="596" y="-285.5" font-family="Helvetica,sans-Serif" font-size="10.00">T_MESH::Vertex::VE</text>
</a>
</g>
</g>
<!-- Node5&#45;&gt;Node7 -->
<g id="edge6" class="edge">
<title>Node5&#45;&gt;Node7</title>
<path fill="none" stroke="midnightblue" d="M493.22,-288C505.54,-288 518.4,-288 530.67,-288"/>
<polygon fill="midnightblue" stroke="midnightblue" points="530.82,-291.5 540.82,-288 530.82,-284.5 530.82,-291.5"/>
</g>
<!-- Node7&#45;&gt;Node4 -->
<g id="edge7" class="edge">
<title>Node7&#45;&gt;Node4</title>
<path fill="none" stroke="midnightblue" d="M628.88,-297.53C636.85,-301.08 644.86,-305.81 651,-312 679.3,-340.56 656.16,-369.2 687,-395 689.02,-396.69 691.17,-398.24 693.42,-399.66"/>
<polygon fill="midnightblue" stroke="midnightblue" points="692.01,-402.87 702.49,-404.48 695.3,-396.69 692.01,-402.87"/>
</g>
<!-- Node7&#45;&gt;Node6 -->
<g id="edge13" class="edge">
<title>Node7&#45;&gt;Node6</title>
<path fill="none" stroke="midnightblue" d="M629.67,-278.44C637.45,-274.91 645.17,-270.21 651,-264 682.48,-230.48 652.54,-197.45 687,-167 688.75,-165.46 690.6,-164.03 692.53,-162.71"/>
<polygon fill="midnightblue" stroke="midnightblue" points="694.51,-165.62 701.48,-157.63 691.05,-159.53 694.51,-165.62"/>
</g>
<!-- Node8 -->
<g id="node8" class="node">
<title>Node8</title>
<g id="a_node8"><a xlink:href="../../d3/d04/class_t___m_e_s_h_1_1_list.html#a1b14a2838ee3745d5fb413f9e7ecc214" target="_top" xlink:title="Appends a new node storing &#39;d&#39; to the tail. &#160;&#160;O(1).">
<polygon fill="white" stroke="black" points="703,-214.5 703,-233.5 834,-233.5 834,-214.5 703,-214.5"/>
<text text-anchor="middle" x="768.5" y="-221.5" font-family="Helvetica,sans-Serif" font-size="10.00">T_MESH::List::appendTail</text>
</a>
</g>
</g>
<!-- Node7&#45;&gt;Node8 -->
<g id="edge8" class="edge">
<title>Node7&#45;&gt;Node8</title>
<path fill="none" stroke="midnightblue" d="M620.12,-278.39C629.78,-274.2 641.05,-269.1 651,-264 667.49,-255.56 669.8,-249.87 687,-243 693.36,-240.46 700.15,-238.21 706.98,-236.22"/>
<polygon fill="midnightblue" stroke="midnightblue" points="708.24,-239.5 716.98,-233.5 706.41,-232.75 708.24,-239.5"/>
</g>
<!-- Node9 -->
<g id="node9" class="node">
<title>Node9</title>
<g id="a_node9"><a xlink:href="../../da/da2/class_t___m_e_s_h_1_1_edge.html#a96830b6d677fab318268f287682ad151" target="_top" xlink:title="Triangle on the left of the edge when looking from &#39;v&#39;. NULL if &#39;v&#39; is not a vertex of the edge.">
<polygon fill="white" stroke="black" points="698.5,-366.5 698.5,-385.5 838.5,-385.5 838.5,-366.5 698.5,-366.5"/>
<text text-anchor="middle" x="768.5" y="-373.5" font-family="Helvetica,sans-Serif" font-size="10.00">T_MESH::Edge::leftTriangle</text>
</a>
</g>
</g>
<!-- Node7&#45;&gt;Node9 -->
<g id="edge9" class="edge">
<title>Node7&#45;&gt;Node9</title>
<path fill="none" stroke="midnightblue" d="M625.33,-297.59C634.06,-301.31 643.36,-306.11 651,-312 671.28,-327.65 665.35,-343.31 687,-357 690.38,-359.14 693.99,-361.04 697.72,-362.73"/>
<polygon fill="midnightblue" stroke="midnightblue" points="696.63,-366.06 707.22,-366.49 699.21,-359.55 696.63,-366.06"/>
</g>
<!-- Node10 -->
<g id="node10" class="node">
<title>Node10</title>
<g id="a_node10"><a xlink:href="../../d3/d04/class_t___m_e_s_h_1_1_list.html#af0e61026072f65c9ba882df526acfd2e" target="_top" xlink:title="Gets the number of elements. &#160;&#160;O(1).">
<polygon fill="white" stroke="black" points="710.5,-328.5 710.5,-347.5 826.5,-347.5 826.5,-328.5 710.5,-328.5"/>
<text text-anchor="middle" x="768.5" y="-335.5" font-family="Helvetica,sans-Serif" font-size="10.00">T_MESH::List::numels</text>
</a>
</g>
</g>
<!-- Node7&#45;&gt;Node10 -->
<g id="edge10" class="edge">
<title>Node7&#45;&gt;Node10</title>
<path fill="none" stroke="midnightblue" d="M622.39,-297.5C640.3,-304.02 664.93,-312.61 687,-319 695.52,-321.47 704.61,-323.85 713.51,-326.04"/>
<polygon fill="midnightblue" stroke="midnightblue" points="712.88,-329.49 723.42,-328.44 714.52,-322.69 712.88,-329.49"/>
</g>
<!-- Node11 -->
<g id="node11" class="node">
<title>Node11</title>
<g id="a_node11"><a xlink:href="../../d8/d6e/class_t___m_e_s_h_1_1_triangle.html#a77cc688b97fd6501b5dca8385fce4137" target="_top" xlink:title="Triangle&#39;s edge opposite to &#39;v&#39;. NULL if &#39;v&#39; is not a vertex of the triangle.">
<polygon fill="white" stroke="black" points="687,-176.5 687,-195.5 850,-195.5 850,-176.5 687,-176.5"/>
<text text-anchor="middle" x="768.5" y="-183.5" font-family="Helvetica,sans-Serif" font-size="10.00">T_MESH::Triangle::oppositeEdge</text>
</a>
</g>
</g>
<!-- Node7&#45;&gt;Node11 -->
<g id="edge11" class="edge">
<title>Node7&#45;&gt;Node11</title>
<path fill="none" stroke="midnightblue" d="M626.92,-278.5C635.33,-274.87 644.06,-270.09 651,-264 674.08,-243.73 662.13,-223.03 687,-205 689.67,-203.06 692.52,-201.32 695.48,-199.75"/>
<polygon fill="midnightblue" stroke="midnightblue" points="697.02,-202.89 704.66,-195.55 694.11,-196.53 697.02,-202.89"/>
</g>
<!-- Node13 -->
<g id="node13" class="node">
<title>Node13</title>
<g id="a_node13"><a xlink:href="../../d3/d04/class_t___m_e_s_h_1_1_list.html#a9701d1b3769b92b7d2a7ed6da895a863" target="_top" xlink:title="Deletes and removes the first node. Returns its data. &#160;&#160;O(1).">
<polygon fill="white" stroke="black" points="706.5,-290.5 706.5,-309.5 830.5,-309.5 830.5,-290.5 706.5,-290.5"/>
<text text-anchor="middle" x="768.5" y="-297.5" font-family="Helvetica,sans-Serif" font-size="10.00">T_MESH::List::popHead</text>
</a>
</g>
</g>
<!-- Node7&#45;&gt;Node13 -->
<g id="edge14" class="edge">
<title>Node7&#45;&gt;Node13</title>
<path fill="none" stroke="midnightblue" d="M651.42,-291.83C665.67,-292.83 681.25,-293.93 696.24,-294.98"/>
<polygon fill="midnightblue" stroke="midnightblue" points="696.28,-298.5 706.5,-295.71 696.77,-291.51 696.28,-298.5"/>
</g>
<!-- Node15 -->
<g id="node15" class="node">
<title>Node15</title>
<g id="a_node15"><a xlink:href="../../da/da2/class_t___m_e_s_h_1_1_edge.html#aa9788a51d590116555c8a062e253a197" target="_top" xlink:title="Triangle on the right of the edge when looking from &#39;v&#39;. NULL if &#39;v&#39; is not a vertex of the edge.">
<polygon fill="white" stroke="black" points="696,-252.5 696,-271.5 841,-271.5 841,-252.5 696,-252.5"/>
<text text-anchor="middle" x="768.5" y="-259.5" font-family="Helvetica,sans-Serif" font-size="10.00">T_MESH::Edge::rightTriangle</text>
</a>
</g>
</g>
<!-- Node7&#45;&gt;Node15 -->
<g id="edge16" class="edge">
<title>Node7&#45;&gt;Node15</title>
<path fill="none" stroke="midnightblue" d="M651.42,-279.7C665.27,-277.59 680.39,-275.28 694.99,-273.06"/>
<polygon fill="midnightblue" stroke="midnightblue" points="695.64,-276.5 705,-271.53 694.58,-269.58 695.64,-276.5"/>
</g>
<!-- Node11&#45;&gt;Node12 -->
<g id="edge12" class="edge">
<title>Node11&#45;&gt;Node12</title>
<path fill="none" stroke="midnightblue" d="M812.24,-176.43C824.47,-173.55 837.8,-170.28 850,-167 870.85,-161.39 893.87,-154.49 912.81,-148.63"/>
<polygon fill="midnightblue" stroke="midnightblue" points="914.09,-151.9 922.59,-145.58 912,-145.21 914.09,-151.9"/>
</g>
<!-- Node14 -->
<g id="node14" class="node">
<title>Node14</title>
<g id="a_node14"><a xlink:href="../../d3/d04/class_t___m_e_s_h_1_1_list.html#aec091d7c66b66c92fe56f06f41f448f4" target="_top" xlink:title="Deletes and removes the node &#39;n&#39; from the list. &#160;&#160;O(1).">
<polygon fill="white" stroke="black" points="886.5,-290.5 886.5,-309.5 1020.5,-309.5 1020.5,-290.5 886.5,-290.5"/>
<text text-anchor="middle" x="953.5" y="-297.5" font-family="Helvetica,sans-Serif" font-size="10.00">T_MESH::List::removeCell</text>
</a>
</g>
</g>
<!-- Node13&#45;&gt;Node14 -->
<g id="edge15" class="edge">
<title>Node13&#45;&gt;Node14</title>
<path fill="none" stroke="midnightblue" d="M830.69,-300C845.21,-300 860.88,-300 875.99,-300"/>
<polygon fill="midnightblue" stroke="midnightblue" points="876.34,-303.5 886.34,-300 876.34,-296.5 876.34,-303.5"/>
</g>
<!-- Node17&#45;&gt;Node2 -->
<g id="edge20" class="edge">
<title>Node17&#45;&gt;Node2</title>
<path fill="none" stroke="midnightblue" d="M297.08,-153.9C322.12,-148.07 350.81,-141.39 374.72,-135.82"/>
<polygon fill="midnightblue" stroke="midnightblue" points="375.71,-139.19 384.65,-133.51 374.12,-132.37 375.71,-139.19"/>
</g>
<!-- Node17&#45;&gt;Node4 -->
<g id="edge19" class="edge">
<title>Node17&#45;&gt;Node4</title>
<path fill="none" stroke="midnightblue" d="M244.3,-183.27C259.87,-212.16 297.7,-274.82 348,-307 408.57,-345.74 435.39,-327.99 505,-346 586.1,-366.99 605.78,-374.49 687,-395 696.4,-397.37 706.45,-399.82 716.14,-402.13"/>
<polygon fill="midnightblue" stroke="midnightblue" points="715.54,-405.58 726.07,-404.48 717.15,-398.77 715.54,-405.58"/>
</g>
<!-- Node18 -->
<g id="node18" class="node">
<title>Node18</title>
<g id="a_node18"><a xlink:href="../../d6/d27/class_t___m_e_s_h_1_1_basic___t_mesh.html#a1fda4e2b03b24abb8784e3a1c6fb49e7" target="_top" xlink:title="AMF_ADD 1.1&gt;">
<polygon fill="white" stroke="black" points="365,-153 365,-183 488,-183 488,-153 365,-153"/>
<text text-anchor="start" x="373" y="-171" font-family="Helvetica,sans-Serif" font-size="10.00">T_MESH::Basic_TMesh</text>
<text text-anchor="middle" x="426.5" y="-160" font-family="Helvetica,sans-Serif" font-size="10.00">::newTriangle</text>
</a>
</g>
</g>
<!-- Node17&#45;&gt;Node18 -->
<g id="edge21" class="edge">
<title>Node17&#45;&gt;Node18</title>
<path fill="none" stroke="midnightblue" d="M297.08,-168C315.48,-168 335.85,-168 354.85,-168"/>
<polygon fill="midnightblue" stroke="midnightblue" points="354.94,-171.5 364.94,-168 354.94,-164.5 354.94,-171.5"/>
</g>
</g>
</svg>
