<?xml version="1.0" encoding="UTF-8" standalone="no"?>
<!DOCTYPE svg PUBLIC "-//W3C//DTD SVG 1.1//EN"
 "http://www.w3.org/Graphics/SVG/1.1/DTD/svg11.dtd">
<!-- Generated by graphviz version 2.44.1 (0)
 -->
<!-- Title: T_MESH::Basic_TMesh::CreateTriangle Pages: 1 -->
<svg width="324pt" height="116pt"
 viewBox="0.00 0.00 324.00 115.50" xmlns="http://www.w3.org/2000/svg" xmlns:xlink="http://www.w3.org/1999/xlink">
<g id="graph0" class="graph" transform="scale(1 1) rotate(0) translate(4 111.5)">
<title>T_MESH::Basic_TMesh::CreateTriangle</title>
<polygon fill="white" stroke="transparent" points="-4,4 -4,-111.5 320,-111.5 320,4 -4,4"/>
<!-- Node1 -->
<g id="node1" class="node">
<title>Node1</title>
<g id="a_node1"><a xlink:title="Creates a properly oriented Triangle bounded by three existing mesh edges.">
<polygon fill="#bfbfbf" stroke="black" points="0,-44.5 0,-74.5 123,-74.5 123,-44.5 0,-44.5"/>
<text text-anchor="start" x="8" y="-62.5" font-family="Helvetica,sans-Serif" font-size="10.00">T_MESH::Basic_TMesh</text>
<text text-anchor="middle" x="61.5" y="-51.5" font-family="Helvetica,sans-Serif" font-size="10.00">::CreateTriangle</text>
</a>
</g>
</g>
<!-- Node2 -->
<g id="node2" class="node">
<title>Node2</title>
<g id="a_node2"><a xlink:href="../../d3/d04/class_t___m_e_s_h_1_1_list.html#ae601a7e17364ce83f74ffcb6c64971ca" target="_top" xlink:title="Appends a new node storing &#39;d&#39; to the head. &#160;&#160;O(1).">
<polygon fill="white" stroke="black" points="167.5,-88 167.5,-107 307.5,-107 307.5,-88 167.5,-88"/>
<text text-anchor="middle" x="237.5" y="-95" font-family="Helvetica,sans-Serif" font-size="10.00">T_MESH::List::appendHead</text>
</a>
</g>
</g>
<!-- Node1&#45;&gt;Node2 -->
<g id="edge1" class="edge">
<title>Node1&#45;&gt;Node2</title>
<path fill="none" stroke="midnightblue" d="M123.36,-72.79C142.8,-77.04 164.15,-81.7 183.03,-85.82"/>
<polygon fill="midnightblue" stroke="midnightblue" points="182.42,-89.27 192.94,-87.99 183.91,-82.43 182.42,-89.27"/>
</g>
<!-- Node3 -->
<g id="node3" class="node">
<title>Node3</title>
<g id="a_node3"><a xlink:href="../../da/da2/class_t___m_e_s_h_1_1_edge.html#a560eca8895471f987bd3228b13c40052" target="_top" xlink:title="Vertex shared with edge &#39;b&#39;. NULL if this and &#39;b&#39; do not share any vertex.">
<polygon fill="white" stroke="black" points="159,-50 159,-69 316,-69 316,-50 159,-50"/>
<text text-anchor="middle" x="237.5" y="-57" font-family="Helvetica,sans-Serif" font-size="10.00">T_MESH::Edge::commonVertex</text>
</a>
</g>
</g>
<!-- Node1&#45;&gt;Node3 -->
<g id="edge2" class="edge">
<title>Node1&#45;&gt;Node3</title>
<path fill="none" stroke="midnightblue" d="M123.36,-59.5C131.6,-59.5 140.18,-59.5 148.78,-59.5"/>
<polygon fill="midnightblue" stroke="midnightblue" points="148.85,-63 158.85,-59.5 148.85,-56 148.85,-63"/>
</g>
<!-- Node4 -->
<g id="node4" class="node">
<title>Node4</title>
<g id="a_node4"><a xlink:href="../../d6/d27/class_t___m_e_s_h_1_1_basic___t_mesh.html#a1fda4e2b03b24abb8784e3a1c6fb49e7" target="_top" xlink:title="AMF_ADD 1.1&gt;">
<polygon fill="white" stroke="black" points="176,-0.5 176,-30.5 299,-30.5 299,-0.5 176,-0.5"/>
<text text-anchor="start" x="184" y="-18.5" font-family="Helvetica,sans-Serif" font-size="10.00">T_MESH::Basic_TMesh</text>
<text text-anchor="middle" x="237.5" y="-7.5" font-family="Helvetica,sans-Serif" font-size="10.00">::newTriangle</text>
</a>
</g>
</g>
<!-- Node1&#45;&gt;Node4 -->
<g id="edge3" class="edge">
<title>Node1&#45;&gt;Node4</title>
<path fill="none" stroke="midnightblue" d="M121.89,-44.48C136.51,-40.78 152.29,-36.79 167.32,-32.99"/>
<polygon fill="midnightblue" stroke="midnightblue" points="168.24,-36.37 177.08,-30.53 166.53,-29.58 168.24,-36.37"/>
</g>
</g>
</svg>
