<?xml version="1.0" encoding="UTF-8" standalone="no"?>
<!DOCTYPE svg PUBLIC "-//W3C//DTD SVG 1.1//EN"
 "http://www.w3.org/Graphics/SVG/1.1/DTD/svg11.dtd">
<!-- Generated by graphviz version 2.44.1 (0)
 -->
<!-- Title: T_MESH::Basic_TMesh::coordBackApproximation Pages: 1 -->
<svg width="1159pt" height="426pt"
 viewBox="0.00 0.00 1159.00 425.76" xmlns="http://www.w3.org/2000/svg" xmlns:xlink="http://www.w3.org/1999/xlink">
<g id="graph0" class="graph" transform="scale(1 1) rotate(0) translate(4 421.76)">
<title>T_MESH::Basic_TMesh::coordBackApproximation</title>
<polygon fill="white" stroke="transparent" points="-4,4 -4,-421.76 1155,-421.76 1155,4 -4,4"/>
<!-- Node1 -->
<g id="node1" class="node">
<title>Node1</title>
<g id="a_node1"><a xlink:title="This function approximates the vertex coordinates with the values that can be represented in an ASCII...">
<polygon fill="#bfbfbf" stroke="black" points="1020,-207.5 1020,-237.5 1151,-237.5 1151,-207.5 1020,-207.5"/>
<text text-anchor="start" x="1028" y="-225.5" font-family="Helvetica,sans-Serif" font-size="10.00">T_MESH::Basic_TMesh</text>
<text text-anchor="middle" x="1085.5" y="-214.5" font-family="Helvetica,sans-Serif" font-size="10.00">::coordBackApproximation</text>
</a>
</g>
</g>
<!-- Node2 -->
<g id="node2" class="node">
<title>Node2</title>
<g id="a_node2"><a xlink:href="../../d6/d27/class_t___m_e_s_h_1_1_basic___t_mesh.html#a8f74c0f20990a21392dab76e878695ae" target="_top" xlink:title="Save the triangle mesh to file &#39;filename&#39;.">
<polygon fill="white" stroke="black" points="684,-251.5 684,-281.5 807,-281.5 807,-251.5 684,-251.5"/>
<text text-anchor="start" x="692" y="-269.5" font-family="Helvetica,sans-Serif" font-size="10.00">T_MESH::Basic_TMesh</text>
<text text-anchor="middle" x="745.5" y="-258.5" font-family="Helvetica,sans-Serif" font-size="10.00">::save</text>
</a>
</g>
</g>
<!-- Node1&#45;&gt;Node2 -->
<g id="edge1" class="edge">
<title>Node1&#45;&gt;Node2</title>
<path fill="none" stroke="midnightblue" d="M1018.31,-239.8C1006.92,-242.34 995.16,-244.71 984,-246.5 924.35,-256.08 855.49,-261.24 807.33,-263.9"/>
<polygon fill="midnightblue" stroke="midnightblue" points="1019.23,-243.17 1028.19,-237.52 1017.66,-236.35 1019.23,-243.17"/>
</g>
<!-- Node20 -->
<g id="node20" class="node">
<title>Node20</title>
<g id="a_node20"><a xlink:href="../../d6/d27/class_t___m_e_s_h_1_1_basic___t_mesh.html#af160de0b4a939ef2cb93279f67e6dd34" target="_top" xlink:title="Calls &#39;removeDegenerateTriangles()&#39; and, if some degeneracies remain, removes them and fills the resu...">
<polygon fill="white" stroke="black" points="843,-158.5 843,-188.5 984,-188.5 984,-158.5 843,-158.5"/>
<text text-anchor="start" x="851" y="-176.5" font-family="Helvetica,sans-Serif" font-size="10.00">T_MESH::Basic_TMesh</text>
<text text-anchor="middle" x="913.5" y="-165.5" font-family="Helvetica,sans-Serif" font-size="10.00">::strongDegeneracyRemoval</text>
</a>
</g>
</g>
<!-- Node1&#45;&gt;Node20 -->
<g id="edge27" class="edge">
<title>Node1&#45;&gt;Node20</title>
<path fill="none" stroke="midnightblue" d="M1022.42,-204.61C1004.13,-199.34 984.32,-193.62 966.72,-188.55"/>
<polygon fill="midnightblue" stroke="midnightblue" points="1021.53,-207.99 1032.11,-207.4 1023.47,-201.27 1021.53,-207.99"/>
</g>
<!-- Node22 -->
<g id="node22" class="node">
<title>Node22</title>
<g id="a_node22"><a xlink:href="../../d6/d27/class_t___m_e_s_h_1_1_basic___t_mesh.html#a1415feaeb04556d7729a02f73b546ab1" target="_top" xlink:title="Removes all the intersecting triangles and patches the resulting holes.">
<polygon fill="white" stroke="black" points="843.5,-207.5 843.5,-237.5 983.5,-237.5 983.5,-207.5 843.5,-207.5"/>
<text text-anchor="start" x="851.5" y="-225.5" font-family="Helvetica,sans-Serif" font-size="10.00">T_MESH::Basic_TMesh</text>
<text text-anchor="middle" x="913.5" y="-214.5" font-family="Helvetica,sans-Serif" font-size="10.00">::strongIntersectionRemoval</text>
</a>
</g>
</g>
<!-- Node1&#45;&gt;Node22 -->
<g id="edge32" class="edge">
<title>Node1&#45;&gt;Node22</title>
<path fill="none" stroke="midnightblue" d="M1009.66,-222.5C1000.99,-222.5 992.19,-222.5 983.6,-222.5"/>
<polygon fill="midnightblue" stroke="midnightblue" points="1009.75,-226 1019.75,-222.5 1009.75,-219 1009.75,-226"/>
</g>
<!-- Node3 -->
<g id="node3" class="node">
<title>Node3</title>
<g id="a_node3"><a xlink:href="../../d2/d68/class_export_open_scad_tool.html#a6e48e9b58a764bc8032b1fbc4082603d" target="_top" xlink:title=" ">
<polygon fill="white" stroke="black" points="533,-281.5 533,-311.5 642,-311.5 642,-281.5 533,-281.5"/>
<text text-anchor="start" x="541" y="-299.5" font-family="Helvetica,sans-Serif" font-size="10.00">ExportOpenScadTool</text>
<text text-anchor="middle" x="587.5" y="-288.5" font-family="Helvetica,sans-Serif" font-size="10.00">::fixMesh</text>
</a>
</g>
</g>
<!-- Node2&#45;&gt;Node3 -->
<g id="edge2" class="edge">
<title>Node2&#45;&gt;Node3</title>
<path fill="none" stroke="midnightblue" d="M673.69,-280.12C663.12,-282.15 652.38,-284.22 642.24,-286.17"/>
<polygon fill="midnightblue" stroke="midnightblue" points="674.58,-283.51 683.74,-278.18 673.26,-276.64 674.58,-283.51"/>
</g>
<!-- Node8 -->
<g id="node8" class="node">
<title>Node8</title>
<g id="a_node8"><a xlink:href="../../dd/d00/class_export_s_t_l_tool.html#a82d1e11c365c1ed2adf6d831b7f6014f" target="_top" xlink:title=" ">
<polygon fill="white" stroke="black" points="527,-243 527,-262 648,-262 648,-243 527,-243"/>
<text text-anchor="middle" x="587.5" y="-250" font-family="Helvetica,sans-Serif" font-size="10.00">ExportSTLTool::fixMesh</text>
</a>
</g>
</g>
<!-- Node2&#45;&gt;Node8 -->
<g id="edge9" class="edge">
<title>Node2&#45;&gt;Node8</title>
<path fill="none" stroke="midnightblue" d="M673.75,-260.15C665.17,-259.38 656.47,-258.6 648.07,-257.85"/>
<polygon fill="midnightblue" stroke="midnightblue" points="673.47,-263.64 683.74,-261.05 674.09,-256.67 673.47,-263.64"/>
</g>
<!-- Node10 -->
<g id="node10" class="node">
<title>Node10</title>
<g id="a_node10"><a xlink:href="../../d9/dc6/class_main_window.html#a15f9fa9fe71b50669ecf5f5a3a1ce90e" target="_top" xlink:title="Import STL / OBJ mesh into the scene.">
<polygon fill="white" stroke="black" points="527,-192 527,-211 648,-211 648,-192 527,-192"/>
<text text-anchor="middle" x="587.5" y="-199" font-family="Helvetica,sans-Serif" font-size="10.00">MainWindow::loadMesh</text>
</a>
</g>
</g>
<!-- Node2&#45;&gt;Node10 -->
<g id="edge11" class="edge">
<title>Node2&#45;&gt;Node10</title>
<path fill="none" stroke="midnightblue" d="M698.6,-247.56C693.67,-245.52 688.73,-243.47 684,-241.5 659.11,-231.14 630.6,-219.19 611.26,-211.07"/>
<polygon fill="midnightblue" stroke="midnightblue" points="697.44,-250.87 708.02,-251.46 700.12,-244.4 697.44,-250.87"/>
</g>
<!-- Node4 -->
<g id="node4" class="node">
<title>Node4</title>
<g id="a_node4"><a xlink:href="../../d2/d68/class_export_open_scad_tool.html#a2e36901501e307b74705aa84f4227d67" target="_top" xlink:title="Export the wiring in the openscad format.">
<polygon fill="white" stroke="black" points="362,-372.5 362,-402.5 471,-402.5 471,-372.5 362,-372.5"/>
<text text-anchor="start" x="370" y="-390.5" font-family="Helvetica,sans-Serif" font-size="10.00">ExportOpenScadTool</text>
<text text-anchor="middle" x="416.5" y="-379.5" font-family="Helvetica,sans-Serif" font-size="10.00">::writeWiring</text>
</a>
</g>
</g>
<!-- Node3&#45;&gt;Node4 -->
<g id="edge3" class="edge">
<title>Node3&#45;&gt;Node4</title>
<path fill="none" stroke="midnightblue" d="M560.12,-317.71C541.61,-331.83 515.82,-350.01 491,-362.5 483.78,-366.14 475.9,-369.44 468.08,-372.37"/>
<polygon fill="midnightblue" stroke="midnightblue" points="562.32,-320.43 568.09,-311.54 558.04,-314.9 562.32,-320.43"/>
</g>
<!-- Node5 -->
<g id="node5" class="node">
<title>Node5</title>
<g id="a_node5"><a xlink:href="../../d2/d68/class_export_open_scad_tool.html#a71ef67a238fb9cd74563b65d77c1ea73" target="_top" xlink:title=" ">
<polygon fill="white" stroke="black" points="13,-372.5 13,-402.5 122,-402.5 122,-372.5 13,-372.5"/>
<text text-anchor="start" x="21" y="-390.5" font-family="Helvetica,sans-Serif" font-size="10.00">ExportOpenScadTool</text>
<text text-anchor="middle" x="67.5" y="-379.5" font-family="Helvetica,sans-Serif" font-size="10.00">::execute</text>
</a>
</g>
</g>
<!-- Node4&#45;&gt;Node5 -->
<g id="edge4" class="edge">
<title>Node4&#45;&gt;Node5</title>
<path fill="none" stroke="midnightblue" d="M351.75,-404.59C336.85,-407.87 320.96,-410.81 306,-412.5 246.38,-419.22 230.57,-419.66 171,-412.5 154.09,-410.47 135.94,-406.61 119.68,-402.53"/>
<polygon fill="midnightblue" stroke="midnightblue" points="352.92,-407.91 361.89,-402.27 351.36,-401.08 352.92,-407.91"/>
</g>
<!-- Node6 -->
<g id="node6" class="node">
<title>Node6</title>
<g id="a_node6"><a xlink:href="../../d2/d68/class_export_open_scad_tool.html#a9c35cf64ece9ee328df6ebfd080c0689" target="_top" xlink:title="Export the meshdifference between mesh and wiring in the openscad format.">
<polygon fill="white" stroke="black" points="184,-372.5 184,-402.5 293,-402.5 293,-372.5 184,-372.5"/>
<text text-anchor="start" x="192" y="-390.5" font-family="Helvetica,sans-Serif" font-size="10.00">ExportOpenScadTool</text>
<text text-anchor="middle" x="238.5" y="-379.5" font-family="Helvetica,sans-Serif" font-size="10.00">::writeDifference</text>
</a>
</g>
</g>
<!-- Node4&#45;&gt;Node6 -->
<g id="edge5" class="edge">
<title>Node4&#45;&gt;Node6</title>
<path fill="none" stroke="midnightblue" d="M351.6,-387.5C332.45,-387.5 311.66,-387.5 293.24,-387.5"/>
<polygon fill="midnightblue" stroke="midnightblue" points="351.74,-391 361.74,-387.5 351.74,-384 351.74,-391"/>
</g>
<!-- Node7 -->
<g id="node7" class="node">
<title>Node7</title>
<g id="a_node7"><a xlink:href="../../d2/d68/class_export_open_scad_tool.html#adc9cf506ecd2ef6e33f37f2eb206da1a" target="_top" xlink:title="Export the meshdifference between mesh and magnets in the openscad format.">
<polygon fill="white" stroke="black" points="176,-323.5 176,-353.5 301,-353.5 301,-323.5 176,-323.5"/>
<text text-anchor="start" x="184" y="-341.5" font-family="Helvetica,sans-Serif" font-size="10.00">ExportOpenScadTool</text>
<text text-anchor="middle" x="238.5" y="-330.5" font-family="Helvetica,sans-Serif" font-size="10.00">::writeDifferenceMagnets</text>
</a>
</g>
</g>
<!-- Node4&#45;&gt;Node7 -->
<g id="edge7" class="edge">
<title>Node4&#45;&gt;Node7</title>
<path fill="none" stroke="midnightblue" d="M351.91,-369.8C332.78,-364.47 311.99,-358.68 293.54,-353.55"/>
<polygon fill="midnightblue" stroke="midnightblue" points="351.17,-373.22 361.74,-372.53 353.04,-366.48 351.17,-373.22"/>
</g>
<!-- Node6&#45;&gt;Node5 -->
<g id="edge6" class="edge">
<title>Node6&#45;&gt;Node5</title>
<path fill="none" stroke="midnightblue" d="M173.25,-387.5C156.42,-387.5 138.44,-387.5 122.21,-387.5"/>
<polygon fill="midnightblue" stroke="midnightblue" points="173.56,-391 183.56,-387.5 173.56,-384 173.56,-391"/>
</g>
<!-- Node7&#45;&gt;Node5 -->
<g id="edge8" class="edge">
<title>Node7&#45;&gt;Node5</title>
<path fill="none" stroke="midnightblue" d="M175.78,-356.39C157.61,-361.66 137.91,-367.38 120.41,-372.45"/>
<polygon fill="midnightblue" stroke="midnightblue" points="176.79,-359.75 185.42,-353.6 174.84,-353.02 176.79,-359.75"/>
</g>
<!-- Node9 -->
<g id="node9" class="node">
<title>Node9</title>
<g id="a_node9"><a xlink:href="../../dd/d00/class_export_s_t_l_tool.html#a218420198ac8fef5b9f9a8acc889307d" target="_top" xlink:title=" ">
<polygon fill="white" stroke="black" points="356,-334 356,-353 477,-353 477,-334 356,-334"/>
<text text-anchor="middle" x="416.5" y="-341" font-family="Helvetica,sans-Serif" font-size="10.00">ExportSTLTool::execute</text>
</a>
</g>
</g>
<!-- Node8&#45;&gt;Node9 -->
<g id="edge10" class="edge">
<title>Node8&#45;&gt;Node9</title>
<path fill="none" stroke="midnightblue" d="M537.17,-266.19C533.58,-268.04 530.14,-270.14 527,-272.5 504.53,-289.39 514.05,-308.42 491,-324.5 485.49,-328.35 479.25,-331.41 472.81,-333.86"/>
<polygon fill="midnightblue" stroke="midnightblue" points="538.65,-269.36 546.32,-262.05 535.77,-262.98 538.65,-269.36"/>
</g>
<!-- Node11 -->
<g id="node11" class="node">
<title>Node11</title>
<g id="a_node11"><a xlink:href="../../d9/dc6/class_main_window.html#a6e3c9bc26115fb1b1664607e58716641" target="_top" xlink:title=" ">
<polygon fill="white" stroke="black" points="343.5,-50 343.5,-69 489.5,-69 489.5,-50 343.5,-50"/>
<text text-anchor="middle" x="416.5" y="-57" font-family="Helvetica,sans-Serif" font-size="10.00">MainWindow::slotImportMesh</text>
</a>
</g>
</g>
<!-- Node10&#45;&gt;Node11 -->
<g id="edge12" class="edge">
<title>Node10&#45;&gt;Node11</title>
<path fill="none" stroke="midnightblue" d="M577.19,-182.85C562.63,-155.63 531.84,-105.36 491,-78.5 485.05,-74.59 478.35,-71.48 471.46,-69.02"/>
<polygon fill="midnightblue" stroke="midnightblue" points="574.1,-184.48 581.81,-191.74 580.31,-181.26 574.1,-184.48"/>
</g>
<!-- Node14 -->
<g id="node14" class="node">
<title>Node14</title>
<g id="a_node14"><a xlink:href="../../d9/dc6/class_main_window.html#a46bb2fea8ddeab75e15a223c291116b6" target="_top" xlink:title=" ">
<polygon fill="white" stroke="black" points="342,-0.5 342,-30.5 491,-30.5 491,-0.5 342,-0.5"/>
<text text-anchor="start" x="350" y="-18.5" font-family="Helvetica,sans-Serif" font-size="10.00">MainWindow::slotOptimization</text>
<text text-anchor="middle" x="416.5" y="-7.5" font-family="Helvetica,sans-Serif" font-size="10.00">BenchmarkBunnyLowPoly</text>
</a>
</g>
</g>
<!-- Node10&#45;&gt;Node14 -->
<g id="edge15" class="edge">
<title>Node10&#45;&gt;Node14</title>
<path fill="none" stroke="midnightblue" d="M580.2,-182.4C568.17,-148.87 538.82,-79.3 491,-40.5 486.29,-36.68 480.96,-33.43 475.39,-30.67"/>
<polygon fill="midnightblue" stroke="midnightblue" points="576.92,-183.63 583.49,-191.94 583.53,-181.34 576.92,-183.63"/>
</g>
<!-- Node15 -->
<g id="node15" class="node">
<title>Node15</title>
<g id="a_node15"><a xlink:href="../../d9/dc6/class_main_window.html#affed0fab82fd390e2762933c6dca9124" target="_top" xlink:title=" ">
<polygon fill="white" stroke="black" points="342,-284.5 342,-314.5 491,-314.5 491,-284.5 342,-284.5"/>
<text text-anchor="start" x="350" y="-302.5" font-family="Helvetica,sans-Serif" font-size="10.00">MainWindow::slotOptimization</text>
<text text-anchor="middle" x="416.5" y="-291.5" font-family="Helvetica,sans-Serif" font-size="10.00">BenchmarkCorona</text>
</a>
</g>
</g>
<!-- Node10&#45;&gt;Node15 -->
<g id="edge17" class="edge">
<title>Node10&#45;&gt;Node15</title>
<path fill="none" stroke="midnightblue" d="M554.96,-215.7C545.51,-220.66 535.43,-226.71 527,-233.5 507.85,-248.92 511.44,-261.84 491,-275.5 485.87,-278.93 480.2,-281.9 474.37,-284.47"/>
<polygon fill="midnightblue" stroke="midnightblue" points="556.74,-218.72 564.11,-211.11 553.6,-212.47 556.74,-218.72"/>
</g>
<!-- Node16 -->
<g id="node16" class="node">
<title>Node16</title>
<g id="a_node16"><a xlink:href="../../d9/dc6/class_main_window.html#adfdb8fcb8685844e8ce11bfb41b83b7d" target="_top" xlink:title=" ">
<polygon fill="white" stroke="black" points="342,-235.5 342,-265.5 491,-265.5 491,-235.5 342,-235.5"/>
<text text-anchor="start" x="350" y="-253.5" font-family="Helvetica,sans-Serif" font-size="10.00">MainWindow::slotOptimization</text>
<text text-anchor="middle" x="416.5" y="-242.5" font-family="Helvetica,sans-Serif" font-size="10.00">BenchmarkCthulhu</text>
</a>
</g>
</g>
<!-- Node10&#45;&gt;Node16 -->
<g id="edge19" class="edge">
<title>Node10&#45;&gt;Node16</title>
<path fill="none" stroke="midnightblue" d="M543.85,-213.87C521.22,-220.43 493.24,-228.54 469.36,-235.46"/>
<polygon fill="midnightblue" stroke="midnightblue" points="544.88,-217.21 553.51,-211.06 542.93,-210.49 544.88,-217.21"/>
</g>
<!-- Node17 -->
<g id="node17" class="node">
<title>Node17</title>
<g id="a_node17"><a xlink:href="../../d9/dc6/class_main_window.html#a5283a0d7aeeafd409c69b272053f3986" target="_top" xlink:title=" ">
<polygon fill="white" stroke="black" points="342,-186.5 342,-216.5 491,-216.5 491,-186.5 342,-186.5"/>
<text text-anchor="start" x="350" y="-204.5" font-family="Helvetica,sans-Serif" font-size="10.00">MainWindow::slotOptimization</text>
<text text-anchor="middle" x="416.5" y="-193.5" font-family="Helvetica,sans-Serif" font-size="10.00">BenchmarkCube</text>
</a>
</g>
</g>
<!-- Node10&#45;&gt;Node17 -->
<g id="edge21" class="edge">
<title>Node10&#45;&gt;Node17</title>
<path fill="none" stroke="midnightblue" d="M516.71,-201.5C508.25,-201.5 499.58,-201.5 491.06,-201.5"/>
<polygon fill="midnightblue" stroke="midnightblue" points="516.92,-205 526.92,-201.5 516.92,-198 516.92,-205"/>
</g>
<!-- Node18 -->
<g id="node18" class="node">
<title>Node18</title>
<g id="a_node18"><a xlink:href="../../d9/dc6/class_main_window.html#a0c92ca2d04a79a1580c2e8e136b82682" target="_top" xlink:title=" ">
<polygon fill="white" stroke="black" points="342,-137.5 342,-167.5 491,-167.5 491,-137.5 342,-137.5"/>
<text text-anchor="start" x="350" y="-155.5" font-family="Helvetica,sans-Serif" font-size="10.00">MainWindow::slotOptimization</text>
<text text-anchor="middle" x="416.5" y="-144.5" font-family="Helvetica,sans-Serif" font-size="10.00">BenchmarkSphere</text>
</a>
</g>
</g>
<!-- Node10&#45;&gt;Node18 -->
<g id="edge23" class="edge">
<title>Node10&#45;&gt;Node18</title>
<path fill="none" stroke="midnightblue" d="M543.85,-189.13C521.22,-182.57 493.24,-174.46 469.36,-167.54"/>
<polygon fill="midnightblue" stroke="midnightblue" points="542.93,-192.51 553.51,-191.94 544.88,-185.79 542.93,-192.51"/>
</g>
<!-- Node19 -->
<g id="node19" class="node">
<title>Node19</title>
<g id="a_node19"><a xlink:href="../../d9/dc6/class_main_window.html#a86cd359f80311725589d0861dd7a9851" target="_top" xlink:title=" ">
<polygon fill="white" stroke="black" points="342,-88.5 342,-118.5 491,-118.5 491,-88.5 342,-88.5"/>
<text text-anchor="start" x="350" y="-106.5" font-family="Helvetica,sans-Serif" font-size="10.00">MainWindow::slotOptimization</text>
<text text-anchor="middle" x="416.5" y="-95.5" font-family="Helvetica,sans-Serif" font-size="10.00">BenchmarkUChannel</text>
</a>
</g>
</g>
<!-- Node10&#45;&gt;Node19 -->
<g id="edge25" class="edge">
<title>Node10&#45;&gt;Node19</title>
<path fill="none" stroke="midnightblue" d="M568.94,-184.85C550.7,-168.33 520.73,-143.26 491,-127.5 484.71,-124.17 477.88,-121.19 471,-118.55"/>
<polygon fill="midnightblue" stroke="midnightblue" points="566.72,-187.57 576.45,-191.77 571.47,-182.42 566.72,-187.57"/>
</g>
<!-- Node12 -->
<g id="node12" class="node">
<title>Node12</title>
<g id="a_node12"><a xlink:href="../../d9/dc6/class_main_window.html#a33dddfc15db4053f9117728538e7ece4" target="_top" xlink:title="Set up qt specific signal and slots part for enabling user interaction.">
<polygon fill="white" stroke="black" points="171,-137.5 171,-167.5 306,-167.5 306,-137.5 171,-137.5"/>
<text text-anchor="start" x="179" y="-155.5" font-family="Helvetica,sans-Serif" font-size="10.00">MainWindow::setupSignals</text>
<text text-anchor="middle" x="238.5" y="-144.5" font-family="Helvetica,sans-Serif" font-size="10.00">AndSlots</text>
</a>
</g>
</g>
<!-- Node11&#45;&gt;Node12 -->
<g id="edge13" class="edge">
<title>Node11&#45;&gt;Node12</title>
<path fill="none" stroke="midnightblue" d="M357.98,-72.13C352.48,-74 347.07,-76.12 342,-78.5 309.02,-93.99 275.71,-120.51 256.37,-137.24"/>
<polygon fill="midnightblue" stroke="midnightblue" points="359.43,-75.35 367.93,-69.03 357.34,-68.67 359.43,-75.35"/>
</g>
<!-- Node13 -->
<g id="node13" class="node">
<title>Node13</title>
<g id="a_node13"><a xlink:href="../../d9/dc6/class_main_window.html#a996c5a2b6f77944776856f08ec30858d" target="_top" xlink:title=" ">
<polygon fill="white" stroke="black" points="0,-143 0,-162 135,-162 135,-143 0,-143"/>
<text text-anchor="middle" x="67.5" y="-150" font-family="Helvetica,sans-Serif" font-size="10.00">MainWindow::MainWindow</text>
</a>
</g>
</g>
<!-- Node12&#45;&gt;Node13 -->
<g id="edge14" class="edge">
<title>Node12&#45;&gt;Node13</title>
<path fill="none" stroke="midnightblue" d="M160.45,-152.5C151.98,-152.5 143.41,-152.5 135.08,-152.5"/>
<polygon fill="midnightblue" stroke="midnightblue" points="160.71,-156 170.71,-152.5 160.71,-149 160.71,-156"/>
</g>
<!-- Node14&#45;&gt;Node12 -->
<g id="edge16" class="edge">
<title>Node14&#45;&gt;Node12</title>
<path fill="none" stroke="midnightblue" d="M351.82,-34.83C348.42,-36.58 345.12,-38.46 342,-40.5 301.4,-67.03 266.21,-113.28 249.63,-137.2"/>
<polygon fill="midnightblue" stroke="midnightblue" points="353.46,-37.92 361.04,-30.52 350.5,-31.58 353.46,-37.92"/>
</g>
<!-- Node15&#45;&gt;Node12 -->
<g id="edge18" class="edge">
<title>Node15&#45;&gt;Node12</title>
<path fill="none" stroke="midnightblue" d="M349.08,-279.84C346.64,-278.48 344.27,-277.04 342,-275.5 298.75,-246.17 263.74,-193.59 248.2,-167.72"/>
<polygon fill="midnightblue" stroke="midnightblue" points="347.69,-283.05 358.2,-284.37 350.81,-276.79 347.69,-283.05"/>
</g>
<!-- Node16&#45;&gt;Node12 -->
<g id="edge20" class="edge">
<title>Node16&#45;&gt;Node12</title>
<path fill="none" stroke="midnightblue" d="M355.37,-231.68C350.78,-229.75 346.27,-227.69 342,-225.5 310.11,-209.17 277.01,-183.8 257.34,-167.68"/>
<polygon fill="midnightblue" stroke="midnightblue" points="354.29,-235.02 364.88,-235.46 356.88,-228.51 354.29,-235.02"/>
</g>
<!-- Node17&#45;&gt;Node12 -->
<g id="edge22" class="edge">
<title>Node17&#45;&gt;Node12</title>
<path fill="none" stroke="midnightblue" d="M351.49,-183.68C332.49,-178.39 311.87,-172.65 293.56,-167.55"/>
<polygon fill="midnightblue" stroke="midnightblue" points="350.69,-187.09 361.26,-186.4 352.56,-180.34 350.69,-187.09"/>
</g>
<!-- Node18&#45;&gt;Node12 -->
<g id="edge24" class="edge">
<title>Node18&#45;&gt;Node12</title>
<path fill="none" stroke="midnightblue" d="M331.8,-152.5C323.18,-152.5 314.5,-152.5 306.09,-152.5"/>
<polygon fill="midnightblue" stroke="midnightblue" points="331.88,-156 341.88,-152.5 331.88,-149 331.88,-156"/>
</g>
<!-- Node19&#45;&gt;Node12 -->
<g id="edge26" class="edge">
<title>Node19&#45;&gt;Node12</title>
<path fill="none" stroke="midnightblue" d="M351.49,-121.32C332.49,-126.61 311.87,-132.35 293.56,-137.45"/>
<polygon fill="midnightblue" stroke="midnightblue" points="352.56,-124.66 361.26,-118.6 350.69,-117.91 352.56,-124.66"/>
</g>
<!-- Node21 -->
<g id="node21" class="node">
<title>Node21</title>
<g id="a_node21"><a xlink:href="../../d6/d27/class_t___m_e_s_h_1_1_basic___t_mesh.html#a1270b60eec84c1f939d405d9ade1a94e" target="_top" xlink:title="Iteratively call strongDegeneracyRemoval and strongIntersectionRemoval to produce an eventually clean...">
<polygon fill="white" stroke="black" points="684,-202.5 684,-232.5 807,-232.5 807,-202.5 684,-202.5"/>
<text text-anchor="start" x="692" y="-220.5" font-family="Helvetica,sans-Serif" font-size="10.00">T_MESH::Basic_TMesh</text>
<text text-anchor="middle" x="745.5" y="-209.5" font-family="Helvetica,sans-Serif" font-size="10.00">::meshclean</text>
</a>
</g>
</g>
<!-- Node20&#45;&gt;Node21 -->
<g id="edge28" class="edge">
<title>Node20&#45;&gt;Node21</title>
<path fill="none" stroke="midnightblue" d="M846.12,-191.09C831.9,-194.86 817,-198.81 803.19,-202.47"/>
<polygon fill="midnightblue" stroke="midnightblue" points="847.07,-194.46 855.84,-188.52 845.27,-187.7 847.07,-194.46"/>
</g>
<!-- Node21&#45;&gt;Node3 -->
<g id="edge29" class="edge">
<title>Node21&#45;&gt;Node3</title>
<path fill="none" stroke="midnightblue" d="M694.08,-237.02C690.61,-238.76 687.22,-240.59 684,-242.5 666.33,-252.97 665.64,-260.97 648,-271.5 641.94,-275.12 635.26,-278.47 628.63,-281.46"/>
<polygon fill="midnightblue" stroke="midnightblue" points="695.83,-240.06 703.37,-232.62 692.83,-233.74 695.83,-240.06"/>
</g>
<!-- Node21&#45;&gt;Node8 -->
<g id="edge30" class="edge">
<title>Node21&#45;&gt;Node8</title>
<path fill="none" stroke="midnightblue" d="M673.72,-233.38C659.14,-236.65 644.21,-240 631.01,-242.96"/>
<polygon fill="midnightblue" stroke="midnightblue" points="674.75,-236.74 683.74,-231.13 673.22,-229.91 674.75,-236.74"/>
</g>
<!-- Node21&#45;&gt;Node10 -->
<g id="edge31" class="edge">
<title>Node21&#45;&gt;Node10</title>
<path fill="none" stroke="midnightblue" d="M673.75,-210.24C665.17,-209.36 656.47,-208.47 648.07,-207.61"/>
<polygon fill="midnightblue" stroke="midnightblue" points="673.43,-213.73 683.74,-211.27 674.15,-206.77 673.43,-213.73"/>
</g>
<!-- Node22&#45;&gt;Node21 -->
<g id="edge33" class="edge">
<title>Node22&#45;&gt;Node21</title>
<path fill="none" stroke="midnightblue" d="M832.95,-220.1C824.3,-219.84 815.59,-219.58 807.22,-219.33"/>
<polygon fill="midnightblue" stroke="midnightblue" points="832.96,-223.61 843.06,-220.41 833.17,-216.61 832.96,-223.61"/>
</g>
</g>
</svg>
