<?xml version="1.0" encoding="UTF-8" standalone="no"?>
<!DOCTYPE svg PUBLIC "-//W3C//DTD SVG 1.1//EN"
 "http://www.w3.org/Graphics/SVG/1.1/DTD/svg11.dtd">
<!-- Generated by graphviz version 2.44.1 (0)
 -->
<!-- Title: T_MESH::Basic_TMesh::eulerUpdate Pages: 1 -->
<svg width="1007pt" height="436pt"
 viewBox="0.00 0.00 1007.00 435.76" xmlns="http://www.w3.org/2000/svg" xmlns:xlink="http://www.w3.org/1999/xlink">
<g id="graph0" class="graph" transform="scale(1 1) rotate(0) translate(4 431.76)">
<title>T_MESH::Basic_TMesh::eulerUpdate</title>
<polygon fill="white" stroke="transparent" points="-4,4 -4,-431.76 1003,-431.76 1003,4 -4,4"/>
<!-- Node1 -->
<g id="node1" class="node">
<title>Node1</title>
<g id="a_node1"><a xlink:title="Updates the values of n_boundaries, n_handles and n_shells. O(N).">
<polygon fill="#bfbfbf" stroke="black" points="876,-169.5 876,-199.5 999,-199.5 999,-169.5 876,-169.5"/>
<text text-anchor="start" x="884" y="-187.5" font-family="Helvetica,sans-Serif" font-size="10.00">T_MESH::Basic_TMesh</text>
<text text-anchor="middle" x="937.5" y="-176.5" font-family="Helvetica,sans-Serif" font-size="10.00">::eulerUpdate</text>
</a>
</g>
</g>
<!-- Node2 -->
<g id="node2" class="node">
<title>Node2</title>
<g id="a_node2"><a xlink:href="../../d6/d27/class_t___m_e_s_h_1_1_basic___t_mesh.html#afe360f55844b79823d045599dc1ea937" target="_top" xlink:title="Append another triangle mesh to the existing one.">
<polygon fill="white" stroke="black" points="527,-330.5 527,-360.5 650,-360.5 650,-330.5 527,-330.5"/>
<text text-anchor="start" x="535" y="-348.5" font-family="Helvetica,sans-Serif" font-size="10.00">T_MESH::Basic_TMesh</text>
<text text-anchor="middle" x="588.5" y="-337.5" font-family="Helvetica,sans-Serif" font-size="10.00">::append</text>
</a>
</g>
</g>
<!-- Node1&#45;&gt;Node2 -->
<g id="edge1" class="edge">
<title>Node1&#45;&gt;Node2</title>
<path fill="none" stroke="midnightblue" d="M927.45,-208.94C913.94,-241.58 885.13,-298.33 840,-324.5 782.14,-358.05 703.79,-358.96 650.21,-354.28"/>
<polygon fill="midnightblue" stroke="midnightblue" points="930.71,-210.23 931.16,-199.64 924.2,-207.63 930.71,-210.23"/>
</g>
<!-- Node3 -->
<g id="node3" class="node">
<title>Node3</title>
<g id="a_node3"><a xlink:href="../../d6/d27/class_t___m_e_s_h_1_1_basic___t_mesh.html#a43f812f0731e963443ba5d5e59025b57" target="_top" xlink:title="Returns true only if object is a basic Basic_TMesh. All the reimplementations must return false.">
<polygon fill="white" stroke="black" points="701.5,-235.5 701.5,-265.5 824.5,-265.5 824.5,-235.5 701.5,-235.5"/>
<text text-anchor="start" x="709.5" y="-253.5" font-family="Helvetica,sans-Serif" font-size="10.00">T_MESH::Basic_TMesh</text>
<text text-anchor="middle" x="763" y="-242.5" font-family="Helvetica,sans-Serif" font-size="10.00">::boundaries</text>
</a>
</g>
</g>
<!-- Node1&#45;&gt;Node3 -->
<g id="edge2" class="edge">
<title>Node1&#45;&gt;Node3</title>
<path fill="none" stroke="midnightblue" d="M887.41,-203.28C860.79,-213.47 828.34,-225.88 803.39,-235.43"/>
<polygon fill="midnightblue" stroke="midnightblue" points="888.84,-206.48 896.93,-199.64 886.33,-199.95 888.84,-206.48"/>
</g>
<!-- Node21 -->
<g id="node21" class="node">
<title>Node21</title>
<g id="a_node21"><a xlink:href="../../d6/d27/class_t___m_e_s_h_1_1_basic___t_mesh.html#af74fa00f29df40f2da0fa2752f10867f" target="_top" xlink:title=" ">
<polygon fill="white" stroke="black" points="527,-149.5 527,-179.5 650,-179.5 650,-149.5 527,-149.5"/>
<text text-anchor="start" x="535" y="-167.5" font-family="Helvetica,sans-Serif" font-size="10.00">T_MESH::Basic_TMesh</text>
<text text-anchor="middle" x="588.5" y="-156.5" font-family="Helvetica,sans-Serif" font-size="10.00">::printReport</text>
</a>
</g>
</g>
<!-- Node1&#45;&gt;Node21 -->
<g id="edge39" class="edge">
<title>Node1&#45;&gt;Node21</title>
<path fill="none" stroke="midnightblue" d="M865.66,-190.19C815.36,-193.05 746.31,-194.59 686,-187.5 671.8,-185.83 656.67,-182.83 642.7,-179.53"/>
<polygon fill="midnightblue" stroke="midnightblue" points="866.01,-193.68 875.78,-189.58 865.59,-186.69 866.01,-193.68"/>
</g>
<!-- Node22 -->
<g id="node22" class="node">
<title>Node22</title>
<g id="a_node22"><a xlink:href="../../d6/d27/class_t___m_e_s_h_1_1_basic___t_mesh.html#afc1a8623d60cb11d867453bde34bd06e" target="_top" xlink:title="Creates a new Basic_TMesh out of an existing selection containing &#39;t0&#39;. O(output).">
<polygon fill="white" stroke="black" points="686,-49.5 686,-79.5 840,-79.5 840,-49.5 686,-49.5"/>
<text text-anchor="start" x="694" y="-67.5" font-family="Helvetica,sans-Serif" font-size="10.00">T_MESH::Basic_TMesh</text>
<text text-anchor="middle" x="763" y="-56.5" font-family="Helvetica,sans-Serif" font-size="10.00">::createSubMeshFromSelection</text>
</a>
</g>
</g>
<!-- Node1&#45;&gt;Node22 -->
<g id="edge29" class="edge">
<title>Node1&#45;&gt;Node22</title>
<path fill="none" stroke="midnightblue" d="M918.65,-161.21C900.9,-139.52 871.77,-107.73 840,-88.5 834.44,-85.13 828.35,-82.19 822.13,-79.64"/>
<polygon fill="midnightblue" stroke="midnightblue" points="916.12,-163.65 925.11,-169.26 921.58,-159.27 916.12,-163.65"/>
</g>
<!-- Node24 -->
<g id="node24" class="node">
<title>Node24</title>
<g id="a_node24"><a xlink:href="../../d6/d27/class_t___m_e_s_h_1_1_basic___t_mesh.html#a14982dd4e1e6dd0029a4007f4dd6d4fe" target="_top" xlink:title="Get the number of handles of the triangle mesh. O(1) or O(N).">
<polygon fill="white" stroke="black" points="701.5,-147.5 701.5,-177.5 824.5,-177.5 824.5,-147.5 701.5,-147.5"/>
<text text-anchor="start" x="709.5" y="-165.5" font-family="Helvetica,sans-Serif" font-size="10.00">T_MESH::Basic_TMesh</text>
<text text-anchor="middle" x="763" y="-154.5" font-family="Helvetica,sans-Serif" font-size="10.00">::handles</text>
</a>
</g>
</g>
<!-- Node1&#45;&gt;Node24 -->
<g id="edge31" class="edge">
<title>Node1&#45;&gt;Node24</title>
<path fill="none" stroke="midnightblue" d="M865.43,-175.44C851.86,-173.7 837.76,-171.91 824.56,-170.22"/>
<polygon fill="midnightblue" stroke="midnightblue" points="865.32,-178.95 875.68,-176.74 866.21,-172.01 865.32,-178.95"/>
</g>
<!-- Node25 -->
<g id="node25" class="node">
<title>Node25</title>
<g id="a_node25"><a xlink:href="../../d6/d27/class_t___m_e_s_h_1_1_basic___t_mesh.html#a08c92ad39d31b25598abea7a342fe16d" target="_top" xlink:title=" ">
<polygon fill="white" stroke="black" points="701.5,-0.5 701.5,-30.5 824.5,-30.5 824.5,-0.5 701.5,-0.5"/>
<text text-anchor="start" x="709.5" y="-18.5" font-family="Helvetica,sans-Serif" font-size="10.00">T_MESH::Basic_TMesh</text>
<text text-anchor="middle" x="763" y="-7.5" font-family="Helvetica,sans-Serif" font-size="10.00">::init</text>
</a>
</g>
</g>
<!-- Node1&#45;&gt;Node25 -->
<g id="edge33" class="edge">
<title>Node1&#45;&gt;Node25</title>
<path fill="none" stroke="midnightblue" d="M926.35,-159.72C911.88,-127.42 882.31,-71.31 840,-39.5 835.36,-36.01 830.19,-33.01 824.8,-30.45"/>
<polygon fill="midnightblue" stroke="midnightblue" points="923.32,-161.53 930.51,-169.31 929.74,-158.74 923.32,-161.53"/>
</g>
<!-- Node26 -->
<g id="node26" class="node">
<title>Node26</title>
<g id="a_node26"><a xlink:href="../../d6/d27/class_t___m_e_s_h_1_1_basic___t_mesh.html#a24ff0322eb032b4c87635c809c35c914" target="_top" xlink:title="Initialize the triangle mesh from the file &#39;filename&#39;.">
<polygon fill="white" stroke="black" points="701.5,-284.5 701.5,-314.5 824.5,-314.5 824.5,-284.5 701.5,-284.5"/>
<text text-anchor="start" x="709.5" y="-302.5" font-family="Helvetica,sans-Serif" font-size="10.00">T_MESH::Basic_TMesh</text>
<text text-anchor="middle" x="763" y="-291.5" font-family="Helvetica,sans-Serif" font-size="10.00">::load</text>
</a>
</g>
</g>
<!-- Node1&#45;&gt;Node26 -->
<g id="edge34" class="edge">
<title>Node1&#45;&gt;Node26</title>
<path fill="none" stroke="midnightblue" d="M917.79,-207.23C899.8,-227.74 870.85,-257.38 840,-275.5 834.27,-278.86 828.02,-281.81 821.64,-284.38"/>
<polygon fill="midnightblue" stroke="midnightblue" points="920.49,-209.46 924.36,-199.59 915.18,-204.89 920.49,-209.46"/>
</g>
<!-- Node27 -->
<g id="node27" class="node">
<title>Node27</title>
<g id="a_node27"><a xlink:href="../../d6/d27/class_t___m_e_s_h_1_1_basic___t_mesh.html#a7c50b7db4c00f23dcf3b657ebeab1c5b" target="_top" xlink:title="Get the number of connected components of the triangle mesh. O(1) or O(N).">
<polygon fill="white" stroke="black" points="701.5,-98.5 701.5,-128.5 824.5,-128.5 824.5,-98.5 701.5,-98.5"/>
<text text-anchor="start" x="709.5" y="-116.5" font-family="Helvetica,sans-Serif" font-size="10.00">T_MESH::Basic_TMesh</text>
<text text-anchor="middle" x="763" y="-105.5" font-family="Helvetica,sans-Serif" font-size="10.00">::shells</text>
</a>
</g>
</g>
<!-- Node1&#45;&gt;Node27 -->
<g id="edge40" class="edge">
<title>Node1&#45;&gt;Node27</title>
<path fill="none" stroke="midnightblue" d="M898.06,-164.8C880.57,-156.19 859.48,-146.31 840,-138.5 831.36,-135.04 822.04,-131.67 812.98,-128.6"/>
<polygon fill="midnightblue" stroke="midnightblue" points="896.85,-168.11 907.37,-169.42 899.97,-161.84 896.85,-168.11"/>
</g>
<!-- Node4 -->
<g id="node4" class="node">
<title>Node4</title>
<g id="a_node4"><a xlink:href="../../d2/d68/class_export_open_scad_tool.html#a6e48e9b58a764bc8032b1fbc4082603d" target="_top" xlink:title=" ">
<polygon fill="white" stroke="black" points="534,-281.5 534,-311.5 643,-311.5 643,-281.5 534,-281.5"/>
<text text-anchor="start" x="542" y="-299.5" font-family="Helvetica,sans-Serif" font-size="10.00">ExportOpenScadTool</text>
<text text-anchor="middle" x="588.5" y="-288.5" font-family="Helvetica,sans-Serif" font-size="10.00">::fixMesh</text>
</a>
</g>
</g>
<!-- Node3&#45;&gt;Node4 -->
<g id="edge3" class="edge">
<title>Node3&#45;&gt;Node4</title>
<path fill="none" stroke="midnightblue" d="M695.48,-268.24C678.17,-272.86 659.73,-277.77 643.18,-282.19"/>
<polygon fill="midnightblue" stroke="midnightblue" points="696.76,-271.52 705.52,-265.56 694.95,-264.76 696.76,-271.52"/>
</g>
<!-- Node9 -->
<g id="node9" class="node">
<title>Node9</title>
<g id="a_node9"><a xlink:href="../../dd/d00/class_export_s_t_l_tool.html#a82d1e11c365c1ed2adf6d831b7f6014f" target="_top" xlink:title=" ">
<polygon fill="white" stroke="black" points="528,-243 528,-262 649,-262 649,-243 528,-243"/>
<text text-anchor="middle" x="588.5" y="-250" font-family="Helvetica,sans-Serif" font-size="10.00">ExportSTLTool::fixMesh</text>
</a>
</g>
</g>
<!-- Node3&#45;&gt;Node9 -->
<g id="edge10" class="edge">
<title>Node3&#45;&gt;Node9</title>
<path fill="none" stroke="midnightblue" d="M691.15,-251.32C677.21,-251.48 662.72,-251.65 649.19,-251.81"/>
<polygon fill="midnightblue" stroke="midnightblue" points="691.22,-254.82 701.18,-251.21 691.14,-247.82 691.22,-254.82"/>
</g>
<!-- Node11 -->
<g id="node11" class="node">
<title>Node11</title>
<g id="a_node11"><a xlink:href="../../d9/dc6/class_main_window.html#a15f9fa9fe71b50669ecf5f5a3a1ce90e" target="_top" xlink:title="Import STL / OBJ mesh into the scene.">
<polygon fill="white" stroke="black" points="528,-202 528,-221 649,-221 649,-202 528,-202"/>
<text text-anchor="middle" x="588.5" y="-209" font-family="Helvetica,sans-Serif" font-size="10.00">MainWindow::loadMesh</text>
</a>
</g>
</g>
<!-- Node3&#45;&gt;Node11 -->
<g id="edge12" class="edge">
<title>Node3&#45;&gt;Node11</title>
<path fill="none" stroke="midnightblue" d="M691.35,-234.53C671.08,-229.94 649.62,-225.09 631.65,-221.03"/>
<polygon fill="midnightblue" stroke="midnightblue" points="690.66,-237.96 701.18,-236.75 692.2,-231.13 690.66,-237.96"/>
</g>
<!-- Node3&#45;&gt;Node21 -->
<g id="edge28" class="edge">
<title>Node3&#45;&gt;Node21</title>
<path fill="none" stroke="midnightblue" d="M708.31,-231.54C700.65,-228.2 693.01,-224.5 686,-220.5 668.39,-210.45 667.31,-203.05 650,-192.5 642.39,-187.86 633.88,-183.48 625.71,-179.62"/>
<polygon fill="midnightblue" stroke="midnightblue" points="707.03,-234.8 717.6,-235.43 709.73,-228.34 707.03,-234.8"/>
</g>
<!-- Node5 -->
<g id="node5" class="node">
<title>Node5</title>
<g id="a_node5"><a xlink:href="../../d2/d68/class_export_open_scad_tool.html#a2e36901501e307b74705aa84f4227d67" target="_top" xlink:title="Export the wiring in the openscad format.">
<polygon fill="white" stroke="black" points="362,-382.5 362,-412.5 471,-412.5 471,-382.5 362,-382.5"/>
<text text-anchor="start" x="370" y="-400.5" font-family="Helvetica,sans-Serif" font-size="10.00">ExportOpenScadTool</text>
<text text-anchor="middle" x="416.5" y="-389.5" font-family="Helvetica,sans-Serif" font-size="10.00">::writeWiring</text>
</a>
</g>
</g>
<!-- Node4&#45;&gt;Node5 -->
<g id="edge4" class="edge">
<title>Node4&#45;&gt;Node5</title>
<path fill="none" stroke="midnightblue" d="M533.51,-316.84C531.24,-318.3 529.06,-319.86 527,-321.5 505.32,-338.82 513.22,-355.89 491,-372.5 485.06,-376.94 478.28,-380.62 471.3,-383.68"/>
<polygon fill="midnightblue" stroke="midnightblue" points="535.65,-319.65 542.58,-311.64 532.17,-313.58 535.65,-319.65"/>
</g>
<!-- Node6 -->
<g id="node6" class="node">
<title>Node6</title>
<g id="a_node6"><a xlink:href="../../d2/d68/class_export_open_scad_tool.html#a71ef67a238fb9cd74563b65d77c1ea73" target="_top" xlink:title=" ">
<polygon fill="white" stroke="black" points="13,-382.5 13,-412.5 122,-412.5 122,-382.5 13,-382.5"/>
<text text-anchor="start" x="21" y="-400.5" font-family="Helvetica,sans-Serif" font-size="10.00">ExportOpenScadTool</text>
<text text-anchor="middle" x="67.5" y="-389.5" font-family="Helvetica,sans-Serif" font-size="10.00">::execute</text>
</a>
</g>
</g>
<!-- Node5&#45;&gt;Node6 -->
<g id="edge5" class="edge">
<title>Node5&#45;&gt;Node6</title>
<path fill="none" stroke="midnightblue" d="M351.75,-414.59C336.85,-417.87 320.96,-420.81 306,-422.5 246.38,-429.22 230.57,-429.66 171,-422.5 154.09,-420.47 135.94,-416.61 119.68,-412.53"/>
<polygon fill="midnightblue" stroke="midnightblue" points="352.92,-417.91 361.89,-412.27 351.36,-411.08 352.92,-417.91"/>
</g>
<!-- Node7 -->
<g id="node7" class="node">
<title>Node7</title>
<g id="a_node7"><a xlink:href="../../d2/d68/class_export_open_scad_tool.html#a9c35cf64ece9ee328df6ebfd080c0689" target="_top" xlink:title="Export the meshdifference between mesh and wiring in the openscad format.">
<polygon fill="white" stroke="black" points="184,-382.5 184,-412.5 293,-412.5 293,-382.5 184,-382.5"/>
<text text-anchor="start" x="192" y="-400.5" font-family="Helvetica,sans-Serif" font-size="10.00">ExportOpenScadTool</text>
<text text-anchor="middle" x="238.5" y="-389.5" font-family="Helvetica,sans-Serif" font-size="10.00">::writeDifference</text>
</a>
</g>
</g>
<!-- Node5&#45;&gt;Node7 -->
<g id="edge6" class="edge">
<title>Node5&#45;&gt;Node7</title>
<path fill="none" stroke="midnightblue" d="M351.6,-397.5C332.45,-397.5 311.66,-397.5 293.24,-397.5"/>
<polygon fill="midnightblue" stroke="midnightblue" points="351.74,-401 361.74,-397.5 351.74,-394 351.74,-401"/>
</g>
<!-- Node8 -->
<g id="node8" class="node">
<title>Node8</title>
<g id="a_node8"><a xlink:href="../../d2/d68/class_export_open_scad_tool.html#adc9cf506ecd2ef6e33f37f2eb206da1a" target="_top" xlink:title="Export the meshdifference between mesh and magnets in the openscad format.">
<polygon fill="white" stroke="black" points="176,-333.5 176,-363.5 301,-363.5 301,-333.5 176,-333.5"/>
<text text-anchor="start" x="184" y="-351.5" font-family="Helvetica,sans-Serif" font-size="10.00">ExportOpenScadTool</text>
<text text-anchor="middle" x="238.5" y="-340.5" font-family="Helvetica,sans-Serif" font-size="10.00">::writeDifferenceMagnets</text>
</a>
</g>
</g>
<!-- Node5&#45;&gt;Node8 -->
<g id="edge8" class="edge">
<title>Node5&#45;&gt;Node8</title>
<path fill="none" stroke="midnightblue" d="M351.91,-379.8C332.78,-374.47 311.99,-368.68 293.54,-363.55"/>
<polygon fill="midnightblue" stroke="midnightblue" points="351.17,-383.22 361.74,-382.53 353.04,-376.48 351.17,-383.22"/>
</g>
<!-- Node7&#45;&gt;Node6 -->
<g id="edge7" class="edge">
<title>Node7&#45;&gt;Node6</title>
<path fill="none" stroke="midnightblue" d="M173.25,-397.5C156.42,-397.5 138.44,-397.5 122.21,-397.5"/>
<polygon fill="midnightblue" stroke="midnightblue" points="173.56,-401 183.56,-397.5 173.56,-394 173.56,-401"/>
</g>
<!-- Node8&#45;&gt;Node6 -->
<g id="edge9" class="edge">
<title>Node8&#45;&gt;Node6</title>
<path fill="none" stroke="midnightblue" d="M175.78,-366.39C157.61,-371.66 137.91,-377.38 120.41,-382.45"/>
<polygon fill="midnightblue" stroke="midnightblue" points="176.79,-369.75 185.42,-363.6 174.84,-363.02 176.79,-369.75"/>
</g>
<!-- Node10 -->
<g id="node10" class="node">
<title>Node10</title>
<g id="a_node10"><a xlink:href="../../dd/d00/class_export_s_t_l_tool.html#a218420198ac8fef5b9f9a8acc889307d" target="_top" xlink:title=" ">
<polygon fill="white" stroke="black" points="356,-344 356,-363 477,-363 477,-344 356,-344"/>
<text text-anchor="middle" x="416.5" y="-351" font-family="Helvetica,sans-Serif" font-size="10.00">ExportSTLTool::execute</text>
</a>
</g>
</g>
<!-- Node9&#45;&gt;Node10 -->
<g id="edge11" class="edge">
<title>Node9&#45;&gt;Node10</title>
<path fill="none" stroke="midnightblue" d="M535.9,-266.52C532.75,-268.29 529.75,-270.27 527,-272.5 502.26,-292.59 516.39,-315.25 491,-334.5 485.85,-338.4 479.99,-341.51 473.86,-343.98"/>
<polygon fill="midnightblue" stroke="midnightblue" points="537.6,-269.59 545.1,-262.1 534.57,-263.28 537.6,-269.59"/>
</g>
<!-- Node12 -->
<g id="node12" class="node">
<title>Node12</title>
<g id="a_node12"><a xlink:href="../../d9/dc6/class_main_window.html#a6e3c9bc26115fb1b1664607e58716641" target="_top" xlink:title=" ">
<polygon fill="white" stroke="black" points="343.5,-60 343.5,-79 489.5,-79 489.5,-60 343.5,-60"/>
<text text-anchor="middle" x="416.5" y="-67" font-family="Helvetica,sans-Serif" font-size="10.00">MainWindow::slotImportMesh</text>
</a>
</g>
</g>
<!-- Node11&#45;&gt;Node12 -->
<g id="edge13" class="edge">
<title>Node11&#45;&gt;Node12</title>
<path fill="none" stroke="midnightblue" d="M536.72,-197.12C533.19,-194.93 529.89,-192.4 527,-189.5 493.41,-155.7 526.17,-120.66 491,-88.5 486.82,-84.68 481.97,-81.6 476.79,-79.13"/>
<polygon fill="midnightblue" stroke="midnightblue" points="535.41,-200.39 545.89,-201.92 538.65,-194.18 535.41,-200.39"/>
</g>
<!-- Node15 -->
<g id="node15" class="node">
<title>Node15</title>
<g id="a_node15"><a xlink:href="../../d9/dc6/class_main_window.html#a46bb2fea8ddeab75e15a223c291116b6" target="_top" xlink:title=" ">
<polygon fill="white" stroke="black" points="342,-10.5 342,-40.5 491,-40.5 491,-10.5 342,-10.5"/>
<text text-anchor="start" x="350" y="-28.5" font-family="Helvetica,sans-Serif" font-size="10.00">MainWindow::slotOptimization</text>
<text text-anchor="middle" x="416.5" y="-17.5" font-family="Helvetica,sans-Serif" font-size="10.00">BenchmarkBunnyLowPoly</text>
</a>
</g>
</g>
<!-- Node11&#45;&gt;Node15 -->
<g id="edge16" class="edge">
<title>Node11&#45;&gt;Node15</title>
<path fill="none" stroke="midnightblue" d="M535.68,-196.91C532.5,-194.77 529.56,-192.31 527,-189.5 484.08,-142.28 534.41,-97.27 491,-50.5 487.42,-46.65 483.23,-43.39 478.69,-40.63"/>
<polygon fill="midnightblue" stroke="midnightblue" points="534.13,-200.05 544.57,-201.87 537.55,-193.94 534.13,-200.05"/>
</g>
<!-- Node16 -->
<g id="node16" class="node">
<title>Node16</title>
<g id="a_node16"><a xlink:href="../../d9/dc6/class_main_window.html#affed0fab82fd390e2762933c6dca9124" target="_top" xlink:title=" ">
<polygon fill="white" stroke="black" points="342,-294.5 342,-324.5 491,-324.5 491,-294.5 342,-294.5"/>
<text text-anchor="start" x="350" y="-312.5" font-family="Helvetica,sans-Serif" font-size="10.00">MainWindow::slotOptimization</text>
<text text-anchor="middle" x="416.5" y="-301.5" font-family="Helvetica,sans-Serif" font-size="10.00">BenchmarkCorona</text>
</a>
</g>
</g>
<!-- Node11&#45;&gt;Node16 -->
<g id="edge18" class="edge">
<title>Node11&#45;&gt;Node16</title>
<path fill="none" stroke="midnightblue" d="M540.66,-225.14C535.82,-227.53 531.15,-230.3 527,-233.5 504.74,-250.67 513.54,-268.7 491,-285.5 486.37,-288.95 481.22,-291.92 475.86,-294.47"/>
<polygon fill="midnightblue" stroke="midnightblue" points="542.36,-228.22 550.12,-221.02 539.56,-221.81 542.36,-228.22"/>
</g>
<!-- Node17 -->
<g id="node17" class="node">
<title>Node17</title>
<g id="a_node17"><a xlink:href="../../d9/dc6/class_main_window.html#adfdb8fcb8685844e8ce11bfb41b83b7d" target="_top" xlink:title=" ">
<polygon fill="white" stroke="black" points="342,-245.5 342,-275.5 491,-275.5 491,-245.5 342,-245.5"/>
<text text-anchor="start" x="350" y="-263.5" font-family="Helvetica,sans-Serif" font-size="10.00">MainWindow::slotOptimization</text>
<text text-anchor="middle" x="416.5" y="-252.5" font-family="Helvetica,sans-Serif" font-size="10.00">BenchmarkCthulhu</text>
</a>
</g>
</g>
<!-- Node11&#45;&gt;Node17 -->
<g id="edge20" class="edge">
<title>Node11&#45;&gt;Node17</title>
<path fill="none" stroke="midnightblue" d="M544.6,-223.87C521.84,-230.43 493.69,-238.54 469.67,-245.46"/>
<polygon fill="midnightblue" stroke="midnightblue" points="545.68,-227.2 554.32,-221.06 543.74,-220.47 545.68,-227.2"/>
</g>
<!-- Node18 -->
<g id="node18" class="node">
<title>Node18</title>
<g id="a_node18"><a xlink:href="../../d9/dc6/class_main_window.html#a5283a0d7aeeafd409c69b272053f3986" target="_top" xlink:title=" ">
<polygon fill="white" stroke="black" points="342,-196.5 342,-226.5 491,-226.5 491,-196.5 342,-196.5"/>
<text text-anchor="start" x="350" y="-214.5" font-family="Helvetica,sans-Serif" font-size="10.00">MainWindow::slotOptimization</text>
<text text-anchor="middle" x="416.5" y="-203.5" font-family="Helvetica,sans-Serif" font-size="10.00">BenchmarkCube</text>
</a>
</g>
</g>
<!-- Node11&#45;&gt;Node18 -->
<g id="edge22" class="edge">
<title>Node11&#45;&gt;Node18</title>
<path fill="none" stroke="midnightblue" d="M517.5,-211.5C508.82,-211.5 499.93,-211.5 491.2,-211.5"/>
<polygon fill="midnightblue" stroke="midnightblue" points="517.56,-215 527.56,-211.5 517.56,-208 517.56,-215"/>
</g>
<!-- Node19 -->
<g id="node19" class="node">
<title>Node19</title>
<g id="a_node19"><a xlink:href="../../d9/dc6/class_main_window.html#a0c92ca2d04a79a1580c2e8e136b82682" target="_top" xlink:title=" ">
<polygon fill="white" stroke="black" points="342,-147.5 342,-177.5 491,-177.5 491,-147.5 342,-147.5"/>
<text text-anchor="start" x="350" y="-165.5" font-family="Helvetica,sans-Serif" font-size="10.00">MainWindow::slotOptimization</text>
<text text-anchor="middle" x="416.5" y="-154.5" font-family="Helvetica,sans-Serif" font-size="10.00">BenchmarkSphere</text>
</a>
</g>
</g>
<!-- Node11&#45;&gt;Node19 -->
<g id="edge24" class="edge">
<title>Node11&#45;&gt;Node19</title>
<path fill="none" stroke="midnightblue" d="M544.6,-199.13C521.84,-192.57 493.69,-184.46 469.67,-177.54"/>
<polygon fill="midnightblue" stroke="midnightblue" points="543.74,-202.53 554.32,-201.94 545.68,-195.8 543.74,-202.53"/>
</g>
<!-- Node20 -->
<g id="node20" class="node">
<title>Node20</title>
<g id="a_node20"><a xlink:href="../../d9/dc6/class_main_window.html#a86cd359f80311725589d0861dd7a9851" target="_top" xlink:title=" ">
<polygon fill="white" stroke="black" points="342,-98.5 342,-128.5 491,-128.5 491,-98.5 342,-98.5"/>
<text text-anchor="start" x="350" y="-116.5" font-family="Helvetica,sans-Serif" font-size="10.00">MainWindow::slotOptimization</text>
<text text-anchor="middle" x="416.5" y="-105.5" font-family="Helvetica,sans-Serif" font-size="10.00">BenchmarkUChannel</text>
</a>
</g>
</g>
<!-- Node11&#45;&gt;Node20 -->
<g id="edge26" class="edge">
<title>Node11&#45;&gt;Node20</title>
<path fill="none" stroke="midnightblue" d="M540.69,-197.82C535.84,-195.44 531.17,-192.68 527,-189.5 504.95,-172.66 513.22,-155.11 491,-138.5 485.82,-134.63 480,-131.33 473.96,-128.52"/>
<polygon fill="midnightblue" stroke="midnightblue" points="539.59,-201.16 550.16,-201.94 542.38,-194.74 539.59,-201.16"/>
</g>
<!-- Node13 -->
<g id="node13" class="node">
<title>Node13</title>
<g id="a_node13"><a xlink:href="../../d9/dc6/class_main_window.html#a33dddfc15db4053f9117728538e7ece4" target="_top" xlink:title="Set up qt specific signal and slots part for enabling user interaction.">
<polygon fill="white" stroke="black" points="171,-147.5 171,-177.5 306,-177.5 306,-147.5 171,-147.5"/>
<text text-anchor="start" x="179" y="-165.5" font-family="Helvetica,sans-Serif" font-size="10.00">MainWindow::setupSignals</text>
<text text-anchor="middle" x="238.5" y="-154.5" font-family="Helvetica,sans-Serif" font-size="10.00">AndSlots</text>
</a>
</g>
</g>
<!-- Node12&#45;&gt;Node13 -->
<g id="edge14" class="edge">
<title>Node12&#45;&gt;Node13</title>
<path fill="none" stroke="midnightblue" d="M357.98,-82.13C352.48,-84 347.07,-86.12 342,-88.5 309.02,-103.99 275.71,-130.51 256.37,-147.24"/>
<polygon fill="midnightblue" stroke="midnightblue" points="359.43,-85.35 367.93,-79.03 357.34,-78.67 359.43,-85.35"/>
</g>
<!-- Node14 -->
<g id="node14" class="node">
<title>Node14</title>
<g id="a_node14"><a xlink:href="../../d9/dc6/class_main_window.html#a996c5a2b6f77944776856f08ec30858d" target="_top" xlink:title=" ">
<polygon fill="white" stroke="black" points="0,-153 0,-172 135,-172 135,-153 0,-153"/>
<text text-anchor="middle" x="67.5" y="-160" font-family="Helvetica,sans-Serif" font-size="10.00">MainWindow::MainWindow</text>
</a>
</g>
</g>
<!-- Node13&#45;&gt;Node14 -->
<g id="edge15" class="edge">
<title>Node13&#45;&gt;Node14</title>
<path fill="none" stroke="midnightblue" d="M160.45,-162.5C151.98,-162.5 143.41,-162.5 135.08,-162.5"/>
<polygon fill="midnightblue" stroke="midnightblue" points="160.71,-166 170.71,-162.5 160.71,-159 160.71,-166"/>
</g>
<!-- Node15&#45;&gt;Node13 -->
<g id="edge17" class="edge">
<title>Node15&#45;&gt;Node13</title>
<path fill="none" stroke="midnightblue" d="M351.82,-44.83C348.42,-46.58 345.12,-48.46 342,-50.5 301.4,-77.03 266.21,-123.28 249.63,-147.2"/>
<polygon fill="midnightblue" stroke="midnightblue" points="353.46,-47.92 361.04,-40.52 350.5,-41.58 353.46,-47.92"/>
</g>
<!-- Node16&#45;&gt;Node13 -->
<g id="edge19" class="edge">
<title>Node16&#45;&gt;Node13</title>
<path fill="none" stroke="midnightblue" d="M349.08,-289.84C346.64,-288.48 344.27,-287.04 342,-285.5 298.75,-256.17 263.74,-203.59 248.2,-177.72"/>
<polygon fill="midnightblue" stroke="midnightblue" points="347.69,-293.05 358.2,-294.37 350.81,-286.79 347.69,-293.05"/>
</g>
<!-- Node17&#45;&gt;Node13 -->
<g id="edge21" class="edge">
<title>Node17&#45;&gt;Node13</title>
<path fill="none" stroke="midnightblue" d="M353,-241.6C349.23,-240 345.53,-238.3 342,-236.5 309.72,-220.08 276.47,-194.09 256.91,-177.68"/>
<polygon fill="midnightblue" stroke="midnightblue" points="351.91,-244.94 362.5,-245.39 354.51,-238.43 351.91,-244.94"/>
</g>
<!-- Node18&#45;&gt;Node13 -->
<g id="edge23" class="edge">
<title>Node18&#45;&gt;Node13</title>
<path fill="none" stroke="midnightblue" d="M351.49,-193.68C332.49,-188.39 311.87,-182.65 293.56,-177.55"/>
<polygon fill="midnightblue" stroke="midnightblue" points="350.69,-197.09 361.26,-196.4 352.56,-190.34 350.69,-197.09"/>
</g>
<!-- Node19&#45;&gt;Node13 -->
<g id="edge25" class="edge">
<title>Node19&#45;&gt;Node13</title>
<path fill="none" stroke="midnightblue" d="M331.8,-162.5C323.18,-162.5 314.5,-162.5 306.09,-162.5"/>
<polygon fill="midnightblue" stroke="midnightblue" points="331.88,-166 341.88,-162.5 331.88,-159 331.88,-166"/>
</g>
<!-- Node20&#45;&gt;Node13 -->
<g id="edge27" class="edge">
<title>Node20&#45;&gt;Node13</title>
<path fill="none" stroke="midnightblue" d="M351.49,-131.32C332.49,-136.61 311.87,-142.35 293.56,-147.45"/>
<polygon fill="midnightblue" stroke="midnightblue" points="352.56,-134.66 361.26,-128.6 350.69,-127.91 352.56,-134.66"/>
</g>
<!-- Node23 -->
<g id="node23" class="node">
<title>Node23</title>
<g id="a_node23"><a xlink:href="../../d6/d27/class_t___m_e_s_h_1_1_basic___t_mesh.html#a414e3ca5cfc7a3ab7a29a269f92ca7fb" target="_top" xlink:title="This method removes one connected component from the mesh and creates a separate new mesh out of it.">
<polygon fill="white" stroke="black" points="527,-49.5 527,-79.5 650,-79.5 650,-49.5 527,-49.5"/>
<text text-anchor="start" x="535" y="-67.5" font-family="Helvetica,sans-Serif" font-size="10.00">T_MESH::Basic_TMesh</text>
<text text-anchor="middle" x="588.5" y="-56.5" font-family="Helvetica,sans-Serif" font-size="10.00">::split</text>
</a>
</g>
</g>
<!-- Node22&#45;&gt;Node23 -->
<g id="edge30" class="edge">
<title>Node22&#45;&gt;Node23</title>
<path fill="none" stroke="midnightblue" d="M675.74,-64.5C667.13,-64.5 658.51,-64.5 650.24,-64.5"/>
<polygon fill="midnightblue" stroke="midnightblue" points="675.84,-68 685.84,-64.5 675.84,-61 675.84,-68"/>
</g>
<!-- Node24&#45;&gt;Node21 -->
<g id="edge32" class="edge">
<title>Node24&#45;&gt;Node21</title>
<path fill="none" stroke="midnightblue" d="M690.93,-163.32C677.36,-163.48 663.26,-163.64 650.06,-163.8"/>
<polygon fill="midnightblue" stroke="midnightblue" points="691.22,-166.82 701.18,-163.21 691.14,-159.82 691.22,-166.82"/>
</g>
<!-- Node26&#45;&gt;Node2 -->
<g id="edge35" class="edge">
<title>Node26&#45;&gt;Node2</title>
<path fill="none" stroke="midnightblue" d="M695.46,-317.24C679.07,-321.61 661.67,-326.25 645.82,-330.48"/>
<polygon fill="midnightblue" stroke="midnightblue" points="696.76,-320.52 705.52,-314.56 694.95,-313.76 696.76,-320.52"/>
</g>
<!-- Node26&#45;&gt;Node4 -->
<g id="edge36" class="edge">
<title>Node26&#45;&gt;Node4</title>
<path fill="none" stroke="midnightblue" d="M690.84,-298.26C674.9,-297.99 658.26,-297.7 643.17,-297.43"/>
<polygon fill="midnightblue" stroke="midnightblue" points="691.12,-301.77 701.18,-298.44 691.25,-294.77 691.12,-301.77"/>
</g>
<!-- Node26&#45;&gt;Node9 -->
<g id="edge37" class="edge">
<title>Node26&#45;&gt;Node9</title>
<path fill="none" stroke="midnightblue" d="M697.27,-281.86C672.6,-275.14 645.42,-267.74 624.53,-262.04"/>
<polygon fill="midnightblue" stroke="midnightblue" points="696.38,-285.25 706.95,-284.5 698.22,-278.49 696.38,-285.25"/>
</g>
<!-- Node26&#45;&gt;Node11 -->
<g id="edge38" class="edge">
<title>Node26&#45;&gt;Node11</title>
<path fill="none" stroke="midnightblue" d="M693.61,-280.03C690.98,-278.62 688.43,-277.11 686,-275.5 665.49,-261.94 670.22,-247.49 650,-233.5 642.56,-228.35 633.77,-224.25 625.23,-221.06"/>
<polygon fill="midnightblue" stroke="midnightblue" points="692.28,-283.27 702.81,-284.46 695.32,-276.96 692.28,-283.27"/>
</g>
<!-- Node27&#45;&gt;Node21 -->
<g id="edge41" class="edge">
<title>Node27&#45;&gt;Node21</title>
<path fill="none" stroke="midnightblue" d="M701.54,-131.38C681.52,-137.29 659.47,-143.81 640.26,-149.49"/>
<polygon fill="midnightblue" stroke="midnightblue" points="702.58,-134.72 711.18,-128.53 700.6,-128 702.58,-134.72"/>
</g>
</g>
</svg>
