<?xml version="1.0" encoding="UTF-8" standalone="no"?>
<!DOCTYPE svg PUBLIC "-//W3C//DTD SVG 1.1//EN"
 "http://www.w3.org/Graphics/SVG/1.1/DTD/svg11.dtd">
<!-- Generated by graphviz version 2.44.1 (0)
 -->
<!-- Title: T_MESH::Basic_TMesh::getBoundingBallRadius Pages: 1 -->
<svg width="291pt" height="39pt"
 viewBox="0.00 0.00 291.00 39.00" xmlns="http://www.w3.org/2000/svg" xmlns:xlink="http://www.w3.org/1999/xlink">
<g id="graph0" class="graph" transform="scale(1 1) rotate(0) translate(4 35)">
<title>T_MESH::Basic_TMesh::getBoundingBallRadius</title>
<polygon fill="white" stroke="transparent" points="-4,4 -4,-35 287,-35 287,4 -4,4"/>
<!-- Node1 -->
<g id="node1" class="node">
<title>Node1</title>
<g id="a_node1"><a xlink:title="Approximate bounding ball radius. O(N).">
<polygon fill="#bfbfbf" stroke="black" points="159,-0.5 159,-30.5 283,-30.5 283,-0.5 159,-0.5"/>
<text text-anchor="start" x="167" y="-18.5" font-family="Helvetica,sans-Serif" font-size="10.00">T_MESH::Basic_TMesh</text>
<text text-anchor="middle" x="221" y="-7.5" font-family="Helvetica,sans-Serif" font-size="10.00">::getBoundingBallRadius</text>
</a>
</g>
</g>
<!-- Node2 -->
<g id="node2" class="node">
<title>Node2</title>
<g id="a_node2"><a xlink:href="../../d6/d27/class_t___m_e_s_h_1_1_basic___t_mesh.html#aeee5df0f56276202cb41254b08ea07ac" target="_top" xlink:title="Randomly move vertices along their normals.">
<polygon fill="white" stroke="black" points="0,-0.5 0,-30.5 123,-30.5 123,-0.5 0,-0.5"/>
<text text-anchor="start" x="8" y="-18.5" font-family="Helvetica,sans-Serif" font-size="10.00">T_MESH::Basic_TMesh</text>
<text text-anchor="middle" x="61.5" y="-7.5" font-family="Helvetica,sans-Serif" font-size="10.00">::addNormalNoise</text>
</a>
</g>
</g>
<!-- Node1&#45;&gt;Node2 -->
<g id="edge1" class="edge">
<title>Node1&#45;&gt;Node2</title>
<path fill="none" stroke="midnightblue" d="M148.44,-15.5C139.99,-15.5 131.43,-15.5 123.16,-15.5"/>
<polygon fill="midnightblue" stroke="midnightblue" points="148.66,-19 158.66,-15.5 148.66,-12 148.66,-19"/>
</g>
</g>
</svg>
