<?xml version="1.0" encoding="UTF-8" standalone="no"?>
<!DOCTYPE svg PUBLIC "-//W3C//DTD SVG 1.1//EN"
 "http://www.w3.org/Graphics/SVG/1.1/DTD/svg11.dtd">
<!-- Generated by graphviz version 2.44.1 (0)
 -->
<!-- Title: T_MESH::Basic_TMesh::selectSphericalRegion Pages: 1 -->
<svg width="858pt" height="458pt"
 viewBox="0.00 0.00 858.00 458.00" xmlns="http://www.w3.org/2000/svg" xmlns:xlink="http://www.w3.org/1999/xlink">
<g id="graph0" class="graph" transform="scale(1 1) rotate(0) translate(4 454)">
<title>T_MESH::Basic_TMesh::selectSphericalRegion</title>
<polygon fill="white" stroke="transparent" points="-4,4 -4,-454 854,-454 854,4 -4,4"/>
<!-- Node1 -->
<g id="node1" class="node">
<title>Node1</title>
<g id="a_node1"><a xlink:title="Marks all the triangles within distance L from &#39;p&#39; as selected. O(output).">
<polygon fill="#bfbfbf" stroke="black" points="0,-213 0,-243 123,-243 123,-213 0,-213"/>
<text text-anchor="start" x="8" y="-231" font-family="Helvetica,sans-Serif" font-size="10.00">T_MESH::Basic_TMesh</text>
<text text-anchor="middle" x="61.5" y="-220" font-family="Helvetica,sans-Serif" font-size="10.00">::selectSphericalRegion</text>
</a>
</g>
</g>
<!-- Node2 -->
<g id="node2" class="node">
<title>Node2</title>
<g id="a_node2"><a xlink:href="../../d6/d27/class_t___m_e_s_h_1_1_basic___t_mesh.html#aa66b45b44c1853e51ad8335b47c3c655" target="_top" xlink:title="Make a list of triangles within distance L from &#39;p&#39;. O(output).">
<polygon fill="white" stroke="black" points="159,-213 159,-243 282,-243 282,-213 159,-213"/>
<text text-anchor="start" x="167" y="-231" font-family="Helvetica,sans-Serif" font-size="10.00">T_MESH::Basic_TMesh</text>
<text text-anchor="middle" x="220.5" y="-220" font-family="Helvetica,sans-Serif" font-size="10.00">::getRegion</text>
</a>
</g>
</g>
<!-- Node1&#45;&gt;Node2 -->
<g id="edge1" class="edge">
<title>Node1&#45;&gt;Node2</title>
<path fill="none" stroke="midnightblue" d="M123.2,-228C131.64,-228 140.36,-228 148.95,-228"/>
<polygon fill="midnightblue" stroke="midnightblue" points="148.96,-231.5 158.96,-228 148.96,-224.5 148.96,-231.5"/>
</g>
<!-- Node3 -->
<g id="node3" class="node">
<title>Node3</title>
<g id="a_node3"><a xlink:href="../../d3/d04/class_t___m_e_s_h_1_1_list.html#ae601a7e17364ce83f74ffcb6c64971ca" target="_top" xlink:title="Appends a new node storing &#39;d&#39; to the head. &#160;&#160;O(1).">
<polygon fill="white" stroke="black" points="318,-430.5 318,-449.5 458,-449.5 458,-430.5 318,-430.5"/>
<text text-anchor="middle" x="388" y="-437.5" font-family="Helvetica,sans-Serif" font-size="10.00">T_MESH::List::appendHead</text>
</a>
</g>
</g>
<!-- Node2&#45;&gt;Node3 -->
<g id="edge2" class="edge">
<title>Node2&#45;&gt;Node3</title>
<path fill="none" stroke="midnightblue" d="M224.64,-243.18C232.99,-279.65 259.25,-372.71 318,-421 320.06,-422.69 322.25,-424.23 324.55,-425.64"/>
<polygon fill="midnightblue" stroke="midnightblue" points="323.35,-428.95 333.84,-430.4 326.54,-422.72 323.35,-428.95"/>
</g>
<!-- Node4 -->
<g id="node4" class="node">
<title>Node4</title>
<g id="a_node4"><a xlink:href="../../d2/d8e/class_t___m_e_s_h_1_1_point.html#a8261009d0497d23fdb28ac451f70cc64" target="_top" xlink:title="Distance from &#39;b&#39;.">
<polygon fill="white" stroke="black" points="324,-392.5 324,-411.5 452,-411.5 452,-392.5 324,-392.5"/>
<text text-anchor="middle" x="388" y="-399.5" font-family="Helvetica,sans-Serif" font-size="10.00">T_MESH::Point::distance</text>
</a>
</g>
</g>
<!-- Node2&#45;&gt;Node4 -->
<g id="edge3" class="edge">
<title>Node2&#45;&gt;Node4</title>
<path fill="none" stroke="midnightblue" d="M226.71,-243.43C238.1,-274.72 268.22,-345.83 318,-383 320.51,-384.87 323.19,-386.56 325.99,-388.08"/>
<polygon fill="midnightblue" stroke="midnightblue" points="324.7,-391.34 335.25,-392.4 327.66,-385 324.7,-391.34"/>
</g>
<!-- Node6 -->
<g id="node6" class="node">
<title>Node6</title>
<g id="a_node6"><a xlink:href="../../d3/d04/class_t___m_e_s_h_1_1_list.html#af3baa55cf02bd943635012a489d6c33a" target="_top" xlink:title="Gets the first node, NULL if empty. &#160;&#160;O(1).">
<polygon fill="white" stroke="black" points="335,-354.5 335,-373.5 441,-373.5 441,-354.5 335,-354.5"/>
<text text-anchor="middle" x="388" y="-361.5" font-family="Helvetica,sans-Serif" font-size="10.00">T_MESH::List::head</text>
</a>
</g>
</g>
<!-- Node2&#45;&gt;Node6 -->
<g id="edge5" class="edge">
<title>Node2&#45;&gt;Node6</title>
<path fill="none" stroke="midnightblue" d="M229.75,-243.08C244.23,-268.14 276.68,-318.23 318,-345 321.16,-347.05 324.53,-348.87 328.03,-350.51"/>
<polygon fill="midnightblue" stroke="midnightblue" points="326.93,-353.84 337.51,-354.39 329.59,-347.36 326.93,-353.84"/>
</g>
<!-- Node7 -->
<g id="node7" class="node">
<title>Node7</title>
<g id="a_node7"><a xlink:href="../../d3/d04/class_t___m_e_s_h_1_1_list.html#af0e61026072f65c9ba882df526acfd2e" target="_top" xlink:title="Gets the number of elements. &#160;&#160;O(1).">
<polygon fill="white" stroke="black" points="330,-316.5 330,-335.5 446,-335.5 446,-316.5 330,-316.5"/>
<text text-anchor="middle" x="388" y="-323.5" font-family="Helvetica,sans-Serif" font-size="10.00">T_MESH::List::numels</text>
</a>
</g>
</g>
<!-- Node2&#45;&gt;Node7 -->
<g id="edge6" class="edge">
<title>Node2&#45;&gt;Node7</title>
<path fill="none" stroke="midnightblue" d="M237.79,-243.14C256.11,-259.51 287.34,-285.47 318,-302 325.87,-306.24 334.63,-309.97 343.21,-313.14"/>
<polygon fill="midnightblue" stroke="midnightblue" points="342.15,-316.48 352.74,-316.48 344.46,-309.87 342.15,-316.48"/>
</g>
<!-- Node8 -->
<g id="node8" class="node">
<title>Node8</title>
<g id="a_node8"><a xlink:href="../../d8/d6e/class_t___m_e_s_h_1_1_triangle.html#a5332cb4780fa56bdd9e95b250defc82c" target="_top" xlink:title="Triangle&#39;s vertex opposite to &#39;e&#39;. NULL if &#39;e&#39; is not an edge of the triangle.">
<polygon fill="white" stroke="black" points="318,-191 318,-221 458,-221 458,-191 318,-191"/>
<text text-anchor="start" x="326" y="-209" font-family="Helvetica,sans-Serif" font-size="10.00">T_MESH::Triangle::opposite</text>
<text text-anchor="middle" x="388" y="-198" font-family="Helvetica,sans-Serif" font-size="10.00">Vertex</text>
</a>
</g>
</g>
<!-- Node2&#45;&gt;Node8 -->
<g id="edge7" class="edge">
<title>Node2&#45;&gt;Node8</title>
<path fill="none" stroke="midnightblue" d="M282.19,-219.93C290.54,-218.82 299.22,-217.67 307.85,-216.52"/>
<polygon fill="midnightblue" stroke="midnightblue" points="308.47,-219.97 317.93,-215.18 307.55,-213.03 308.47,-219.97"/>
</g>
<!-- Node9 -->
<g id="node9" class="node">
<title>Node9</title>
<g id="a_node9"><a xlink:href="../../d8/d6e/class_t___m_e_s_h_1_1_triangle.html#aa7b9f783f2e4339083f46d25d3eecf68" target="_top" xlink:title="First vertex.">
<polygon fill="white" stroke="black" points="518.5,-253.5 518.5,-272.5 632.5,-272.5 632.5,-253.5 518.5,-253.5"/>
<text text-anchor="middle" x="575.5" y="-260.5" font-family="Helvetica,sans-Serif" font-size="10.00">T_MESH::Triangle::v1</text>
</a>
</g>
</g>
<!-- Node2&#45;&gt;Node9 -->
<g id="edge21" class="edge">
<title>Node2&#45;&gt;Node9</title>
<path fill="none" stroke="midnightblue" d="M282.1,-239.67C293.97,-241.67 306.35,-243.57 318,-245 382.38,-252.91 456.32,-257.64 508.22,-260.25"/>
<polygon fill="midnightblue" stroke="midnightblue" points="508.14,-263.75 518.3,-260.74 508.48,-256.76 508.14,-263.75"/>
</g>
<!-- Node11 -->
<g id="node11" class="node">
<title>Node11</title>
<g id="a_node11"><a xlink:href="../../d8/d6e/class_t___m_e_s_h_1_1_triangle.html#a1bf6a231440a3c73a931c1cfccfee574" target="_top" xlink:title="Second vertex.">
<polygon fill="white" stroke="black" points="518.5,-215.5 518.5,-234.5 632.5,-234.5 632.5,-215.5 518.5,-215.5"/>
<text text-anchor="middle" x="575.5" y="-222.5" font-family="Helvetica,sans-Serif" font-size="10.00">T_MESH::Triangle::v2</text>
</a>
</g>
</g>
<!-- Node2&#45;&gt;Node11 -->
<g id="edge22" class="edge">
<title>Node2&#45;&gt;Node11</title>
<path fill="none" stroke="midnightblue" d="M282.24,-230.18C294.1,-230.52 306.44,-230.82 318,-231 380.21,-231.97 395.8,-232.6 458,-231 474.26,-230.58 491.79,-229.83 508.19,-229.01"/>
<polygon fill="midnightblue" stroke="midnightblue" points="508.43,-232.5 518.23,-228.48 508.06,-225.51 508.43,-232.5"/>
</g>
<!-- Node12 -->
<g id="node12" class="node">
<title>Node12</title>
<g id="a_node12"><a xlink:href="../../d8/d6e/class_t___m_e_s_h_1_1_triangle.html#a0c4c2a2ba6b0c975aa3d260f00785e8f" target="_top" xlink:title="Third vertex.">
<polygon fill="white" stroke="black" points="518.5,-177.5 518.5,-196.5 632.5,-196.5 632.5,-177.5 518.5,-177.5"/>
<text text-anchor="middle" x="575.5" y="-184.5" font-family="Helvetica,sans-Serif" font-size="10.00">T_MESH::Triangle::v3</text>
</a>
</g>
</g>
<!-- Node2&#45;&gt;Node12 -->
<g id="edge23" class="edge">
<title>Node2&#45;&gt;Node12</title>
<path fill="none" stroke="midnightblue" d="M245.39,-212.9C264.28,-201.91 291.75,-187.94 318,-182 381.43,-167.65 455.95,-171.3 508.27,-177.08"/>
<polygon fill="midnightblue" stroke="midnightblue" points="508.09,-180.58 518.43,-178.26 508.9,-173.63 508.09,-180.58"/>
</g>
<!-- Node13 -->
<g id="node13" class="node">
<title>Node13</title>
<g id="a_node13"><a xlink:href="../../d3/d04/class_t___m_e_s_h_1_1_list.html#aec091d7c66b66c92fe56f06f41f448f4" target="_top" xlink:title="Deletes and removes the node &#39;n&#39; from the list. &#160;&#160;O(1).">
<polygon fill="white" stroke="black" points="321,-114.5 321,-133.5 455,-133.5 455,-114.5 321,-114.5"/>
<text text-anchor="middle" x="388" y="-121.5" font-family="Helvetica,sans-Serif" font-size="10.00">T_MESH::List::removeCell</text>
</a>
</g>
</g>
<!-- Node2&#45;&gt;Node13 -->
<g id="edge14" class="edge">
<title>Node2&#45;&gt;Node13</title>
<path fill="none" stroke="midnightblue" d="M236.26,-212.82C254.17,-195.14 285.96,-166.06 318,-148 325.54,-143.75 333.97,-140.05 342.28,-136.93"/>
<polygon fill="midnightblue" stroke="midnightblue" points="343.65,-140.15 351.91,-133.52 341.31,-133.56 343.65,-140.15"/>
</g>
<!-- Node14 -->
<g id="node14" class="node">
<title>Node14</title>
<g id="a_node14"><a xlink:href="../../d8/d6e/class_t___m_e_s_h_1_1_triangle.html#ad0c49113ef7f52e4a86959eaafc7baf9" target="_top" xlink:title="First adjacent triangle. NULL if boundary.">
<polygon fill="white" stroke="black" points="332,-76.5 332,-95.5 444,-95.5 444,-76.5 332,-76.5"/>
<text text-anchor="middle" x="388" y="-83.5" font-family="Helvetica,sans-Serif" font-size="10.00">T_MESH::Triangle::t1</text>
</a>
</g>
</g>
<!-- Node2&#45;&gt;Node14 -->
<g id="edge15" class="edge">
<title>Node2&#45;&gt;Node14</title>
<path fill="none" stroke="midnightblue" d="M229.09,-212.97C243.05,-186.92 275.29,-133.42 318,-105 321.08,-102.95 324.37,-101.12 327.79,-99.49"/>
<polygon fill="midnightblue" stroke="midnightblue" points="329.19,-102.7 337.07,-95.61 326.49,-96.24 329.19,-102.7"/>
</g>
<!-- Node16 -->
<g id="node16" class="node">
<title>Node16</title>
<g id="a_node16"><a xlink:href="../../d8/d6e/class_t___m_e_s_h_1_1_triangle.html#a2511453b48f8c042e7aac67da3fff129" target="_top" xlink:title="Second adjacent triangle. NULL if boundary.">
<polygon fill="white" stroke="black" points="332,-38.5 332,-57.5 444,-57.5 444,-38.5 332,-38.5"/>
<text text-anchor="middle" x="388" y="-45.5" font-family="Helvetica,sans-Serif" font-size="10.00">T_MESH::Triangle::t2</text>
</a>
</g>
</g>
<!-- Node2&#45;&gt;Node16 -->
<g id="edge17" class="edge">
<title>Node2&#45;&gt;Node16</title>
<path fill="none" stroke="midnightblue" d="M226.2,-212.96C236.99,-181 266.62,-106.04 318,-67 320.49,-65.11 323.16,-63.4 325.95,-61.87"/>
<polygon fill="midnightblue" stroke="midnightblue" points="327.63,-64.95 335.18,-57.52 324.65,-58.61 327.63,-64.95"/>
</g>
<!-- Node17 -->
<g id="node17" class="node">
<title>Node17</title>
<g id="a_node17"><a xlink:href="../../d8/d6e/class_t___m_e_s_h_1_1_triangle.html#a4383009f2e92ec1445cfdee5c3fa14e4" target="_top" xlink:title="Third adjacent triangle. NULL if boundary.">
<polygon fill="white" stroke="black" points="332,-0.5 332,-19.5 444,-19.5 444,-0.5 332,-0.5"/>
<text text-anchor="middle" x="388" y="-7.5" font-family="Helvetica,sans-Serif" font-size="10.00">T_MESH::Triangle::t3</text>
</a>
</g>
</g>
<!-- Node2&#45;&gt;Node17 -->
<g id="edge19" class="edge">
<title>Node2&#45;&gt;Node17</title>
<path fill="none" stroke="midnightblue" d="M224.37,-212.9C232.26,-175.72 257.79,-79.1 318,-29 320.05,-27.3 322.24,-25.74 324.53,-24.33"/>
<polygon fill="midnightblue" stroke="midnightblue" points="326.52,-27.24 333.8,-19.54 323.31,-21.02 326.52,-27.24"/>
</g>
<!-- Node5 -->
<g id="node5" class="node">
<title>Node5</title>
<g id="a_node5"><a xlink:href="../../d2/d8e/class_t___m_e_s_h_1_1_point.html#a61ce9f22ddfe41f036566d4a2f920ac4" target="_top" xlink:title="Distance from origin.">
<polygon fill="white" stroke="black" points="516.5,-392.5 516.5,-411.5 634.5,-411.5 634.5,-392.5 516.5,-392.5"/>
<text text-anchor="middle" x="575.5" y="-399.5" font-family="Helvetica,sans-Serif" font-size="10.00">T_MESH::Point::length</text>
</a>
</g>
</g>
<!-- Node4&#45;&gt;Node5 -->
<g id="edge4" class="edge">
<title>Node4&#45;&gt;Node5</title>
<path fill="none" stroke="midnightblue" d="M452.06,-402C469.45,-402 488.39,-402 506.06,-402"/>
<polygon fill="midnightblue" stroke="midnightblue" points="506.3,-405.5 516.3,-402 506.3,-398.5 506.3,-405.5"/>
</g>
<!-- Node8&#45;&gt;Node9 -->
<g id="edge8" class="edge">
<title>Node8&#45;&gt;Node9</title>
<path fill="none" stroke="midnightblue" d="M427.54,-221.16C447.24,-228.59 471.7,-237.36 494,-244 502.4,-246.5 511.37,-248.89 520.16,-251.08"/>
<polygon fill="midnightblue" stroke="midnightblue" points="519.43,-254.5 529.97,-253.46 521.08,-247.7 519.43,-254.5"/>
</g>
<!-- Node8&#45;&gt;Node11 -->
<g id="edge10" class="edge">
<title>Node8&#45;&gt;Node11</title>
<path fill="none" stroke="midnightblue" d="M458.07,-213.07C474.54,-214.76 492.07,-216.56 508.39,-218.23"/>
<polygon fill="midnightblue" stroke="midnightblue" points="508.08,-221.72 518.38,-219.25 508.79,-214.75 508.08,-221.72"/>
</g>
<!-- Node8&#45;&gt;Node12 -->
<g id="edge12" class="edge">
<title>Node8&#45;&gt;Node12</title>
<path fill="none" stroke="midnightblue" d="M458.07,-198.93C474.54,-197.24 492.07,-195.44 508.39,-193.77"/>
<polygon fill="midnightblue" stroke="midnightblue" points="508.79,-197.25 518.38,-192.75 508.08,-190.28 508.79,-197.25"/>
</g>
<!-- Node10 -->
<g id="node10" class="node">
<title>Node10</title>
<g id="a_node10"><a xlink:href="../../da/da2/class_t___m_e_s_h_1_1_edge.html#a560eca8895471f987bd3228b13c40052" target="_top" xlink:title="Vertex shared with edge &#39;b&#39;. NULL if this and &#39;b&#39; do not share any vertex.">
<polygon fill="white" stroke="black" points="693,-215.5 693,-234.5 850,-234.5 850,-215.5 693,-215.5"/>
<text text-anchor="middle" x="771.5" y="-222.5" font-family="Helvetica,sans-Serif" font-size="10.00">T_MESH::Edge::commonVertex</text>
</a>
</g>
</g>
<!-- Node9&#45;&gt;Node10 -->
<g id="edge9" class="edge">
<title>Node9&#45;&gt;Node10</title>
<path fill="none" stroke="midnightblue" d="M625.45,-253.41C651.75,-248.26 684.34,-241.88 711.97,-236.47"/>
<polygon fill="midnightblue" stroke="midnightblue" points="712.76,-239.88 721.9,-234.52 711.41,-233.01 712.76,-239.88"/>
</g>
<!-- Node11&#45;&gt;Node10 -->
<g id="edge11" class="edge">
<title>Node11&#45;&gt;Node10</title>
<path fill="none" stroke="midnightblue" d="M632.61,-225C648.18,-225 665.47,-225 682.4,-225"/>
<polygon fill="midnightblue" stroke="midnightblue" points="682.87,-228.5 692.87,-225 682.87,-221.5 682.87,-228.5"/>
</g>
<!-- Node12&#45;&gt;Node10 -->
<g id="edge13" class="edge">
<title>Node12&#45;&gt;Node10</title>
<path fill="none" stroke="midnightblue" d="M625.45,-196.59C651.75,-201.74 684.34,-208.12 711.97,-213.53"/>
<polygon fill="midnightblue" stroke="midnightblue" points="711.41,-216.99 721.9,-215.48 712.76,-210.12 711.41,-216.99"/>
</g>
<!-- Node15 -->
<g id="node15" class="node">
<title>Node15</title>
<g id="a_node15"><a xlink:href="../../da/da2/class_t___m_e_s_h_1_1_edge.html#a295cf6f1ac996ea5e760c2bbd590c513" target="_top" xlink:title="Incident triangle opposite to &#39;t&#39;. NULL if &#39;t&#39; is not incident to the edge.">
<polygon fill="white" stroke="black" points="494,-38.5 494,-57.5 657,-57.5 657,-38.5 494,-38.5"/>
<text text-anchor="middle" x="575.5" y="-45.5" font-family="Helvetica,sans-Serif" font-size="10.00">T_MESH::Edge::oppositeTriangle</text>
</a>
</g>
</g>
<!-- Node14&#45;&gt;Node15 -->
<g id="edge16" class="edge">
<title>Node14&#45;&gt;Node15</title>
<path fill="none" stroke="midnightblue" d="M435.81,-76.41C460.84,-71.28 491.84,-64.93 518.18,-59.54"/>
<polygon fill="midnightblue" stroke="midnightblue" points="518.93,-62.96 528.03,-57.52 517.53,-56.1 518.93,-62.96"/>
</g>
<!-- Node16&#45;&gt;Node15 -->
<g id="edge18" class="edge">
<title>Node16&#45;&gt;Node15</title>
<path fill="none" stroke="midnightblue" d="M444.15,-48C456.58,-48 470.09,-48 483.55,-48"/>
<polygon fill="midnightblue" stroke="midnightblue" points="483.81,-51.5 493.81,-48 483.81,-44.5 483.81,-51.5"/>
</g>
<!-- Node17&#45;&gt;Node15 -->
<g id="edge20" class="edge">
<title>Node17&#45;&gt;Node15</title>
<path fill="none" stroke="midnightblue" d="M435.81,-19.59C460.84,-24.72 491.84,-31.07 518.18,-36.46"/>
<polygon fill="midnightblue" stroke="midnightblue" points="517.53,-39.9 528.03,-38.48 518.93,-33.04 517.53,-39.9"/>
</g>
</g>
</svg>
