<?xml version="1.0" encoding="UTF-8" standalone="no"?>
<!DOCTYPE svg PUBLIC "-//W3C//DTD SVG 1.1//EN"
 "http://www.w3.org/Graphics/SVG/1.1/DTD/svg11.dtd">
<!-- Generated by graphviz version 2.44.1 (0)
 -->
<!-- Title: T_MESH::Basic_TMesh::nextVertexOnRegionBoundary Pages: 1 -->
<svg width="678pt" height="294pt"
 viewBox="0.00 0.00 678.00 294.00" xmlns="http://www.w3.org/2000/svg" xmlns:xlink="http://www.w3.org/1999/xlink">
<g id="graph0" class="graph" transform="scale(1 1) rotate(0) translate(4 290)">
<title>T_MESH::Basic_TMesh::nextVertexOnRegionBoundary</title>
<polygon fill="white" stroke="transparent" points="-4,4 -4,-290 674,-290 674,4 -4,4"/>
<!-- Node1 -->
<g id="node1" class="node">
<title>Node1</title>
<g id="a_node1"><a xlink:title="Get the vertex next to &#39;v&#39; on the boundary of the region. O(1).">
<polygon fill="#bfbfbf" stroke="black" points="0,-204 0,-234 154,-234 154,-204 0,-204"/>
<text text-anchor="start" x="8" y="-222" font-family="Helvetica,sans-Serif" font-size="10.00">T_MESH::Basic_TMesh</text>
<text text-anchor="middle" x="77" y="-211" font-family="Helvetica,sans-Serif" font-size="10.00">::nextVertexOnRegionBoundary</text>
</a>
</g>
</g>
<!-- Node2 -->
<g id="node2" class="node">
<title>Node2</title>
<g id="a_node2"><a xlink:href="../../da/da2/class_t___m_e_s_h_1_1_edge.html#a96830b6d677fab318268f287682ad151" target="_top" xlink:title="Triangle on the left of the edge when looking from &#39;v&#39;. NULL if &#39;v&#39; is not a vertex of the edge.">
<polygon fill="white" stroke="black" points="347.5,-266.5 347.5,-285.5 487.5,-285.5 487.5,-266.5 347.5,-266.5"/>
<text text-anchor="middle" x="417.5" y="-273.5" font-family="Helvetica,sans-Serif" font-size="10.00">T_MESH::Edge::leftTriangle</text>
</a>
</g>
</g>
<!-- Node1&#45;&gt;Node2 -->
<g id="edge1" class="edge">
<title>Node1&#45;&gt;Node2</title>
<path fill="none" stroke="midnightblue" d="M148.39,-234.05C162.16,-236.83 176.51,-239.6 190,-242 238.85,-250.68 293.89,-258.97 337.48,-265.2"/>
<polygon fill="midnightblue" stroke="midnightblue" points="337.06,-268.67 347.45,-266.61 338.04,-261.74 337.06,-268.67"/>
</g>
<!-- Node3 -->
<g id="node3" class="node">
<title>Node3</title>
<g id="a_node3"><a xlink:href="../../da/da2/class_t___m_e_s_h_1_1_edge.html#aef981891343c94489f00b060bd654b6c" target="_top" xlink:title="Vertex opposite to &#39;v&#39;. NULL if &#39;v&#39; is not a vertex of the edge.">
<polygon fill="white" stroke="black" points="339.5,-228.5 339.5,-247.5 495.5,-247.5 495.5,-228.5 339.5,-228.5"/>
<text text-anchor="middle" x="417.5" y="-235.5" font-family="Helvetica,sans-Serif" font-size="10.00">T_MESH::Edge::oppositeVertex</text>
</a>
</g>
</g>
<!-- Node1&#45;&gt;Node3 -->
<g id="edge2" class="edge">
<title>Node1&#45;&gt;Node3</title>
<path fill="none" stroke="midnightblue" d="M154.39,-223.29C206.23,-226.2 274.91,-230.05 328.96,-233.09"/>
<polygon fill="midnightblue" stroke="midnightblue" points="329.04,-236.6 339.22,-233.66 329.43,-229.61 329.04,-236.6"/>
</g>
<!-- Node4 -->
<g id="node4" class="node">
<title>Node4</title>
<g id="a_node4"><a xlink:href="../../da/da2/class_t___m_e_s_h_1_1_edge.html#aa9788a51d590116555c8a062e253a197" target="_top" xlink:title="Triangle on the right of the edge when looking from &#39;v&#39;. NULL if &#39;v&#39; is not a vertex of the edge.">
<polygon fill="white" stroke="black" points="345,-190.5 345,-209.5 490,-209.5 490,-190.5 345,-190.5"/>
<text text-anchor="middle" x="417.5" y="-197.5" font-family="Helvetica,sans-Serif" font-size="10.00">T_MESH::Edge::rightTriangle</text>
</a>
</g>
</g>
<!-- Node1&#45;&gt;Node4 -->
<g id="edge3" class="edge">
<title>Node1&#45;&gt;Node4</title>
<path fill="none" stroke="midnightblue" d="M154.39,-214.71C208.08,-211.7 279.84,-207.67 334.69,-204.59"/>
<polygon fill="midnightblue" stroke="midnightblue" points="334.94,-208.08 344.73,-204.03 334.55,-201.09 334.94,-208.08"/>
</g>
<!-- Node5 -->
<g id="node5" class="node">
<title>Node5</title>
<g id="a_node5"><a xlink:href="../../d5/d7f/class_t___m_e_s_h_1_1_vertex.html#a66b49df1416ddcee6be0e1abe3aadda9" target="_top" xlink:title="List of incident edges.">
<polygon fill="white" stroke="black" points="190,-152.5 190,-171.5 300,-171.5 300,-152.5 190,-152.5"/>
<text text-anchor="middle" x="245" y="-159.5" font-family="Helvetica,sans-Serif" font-size="10.00">T_MESH::Vertex::VE</text>
</a>
</g>
</g>
<!-- Node1&#45;&gt;Node5 -->
<g id="edge4" class="edge">
<title>Node1&#45;&gt;Node5</title>
<path fill="none" stroke="midnightblue" d="M122.05,-203.87C148.34,-194.85 181.36,-183.51 206.42,-174.91"/>
<polygon fill="midnightblue" stroke="midnightblue" points="207.61,-178.19 215.94,-171.64 205.34,-171.57 207.61,-178.19"/>
</g>
<!-- Node5&#45;&gt;Node2 -->
<g id="edge7" class="edge">
<title>Node5&#45;&gt;Node2</title>
<path fill="none" stroke="midnightblue" d="M252.15,-171.55C265.15,-190.9 297.4,-234.79 336,-257 339.89,-259.24 344.02,-261.21 348.29,-262.95"/>
<polygon fill="midnightblue" stroke="midnightblue" points="347.19,-266.28 357.79,-266.4 349.59,-259.7 347.19,-266.28"/>
</g>
<!-- Node5&#45;&gt;Node3 -->
<g id="edge11" class="edge">
<title>Node5&#45;&gt;Node3</title>
<path fill="none" stroke="midnightblue" d="M258.08,-171.52C274.71,-184.17 306,-206.38 336,-219 341.91,-221.48 348.2,-223.68 354.57,-225.61"/>
<polygon fill="midnightblue" stroke="midnightblue" points="354.01,-229.09 364.58,-228.44 355.91,-222.35 354.01,-229.09"/>
</g>
<!-- Node5&#45;&gt;Node4 -->
<g id="edge14" class="edge">
<title>Node5&#45;&gt;Node4</title>
<path fill="none" stroke="midnightblue" d="M289.02,-171.59C311.73,-176.65 339.77,-182.9 363.77,-188.25"/>
<polygon fill="midnightblue" stroke="midnightblue" points="363.26,-191.72 373.79,-190.48 364.79,-184.89 363.26,-191.72"/>
</g>
<!-- Node6 -->
<g id="node6" class="node">
<title>Node6</title>
<g id="a_node6"><a xlink:href="../../d3/d04/class_t___m_e_s_h_1_1_list.html#ae601a7e17364ce83f74ffcb6c64971ca" target="_top" xlink:title="Appends a new node storing &#39;d&#39; to the head. &#160;&#160;O(1).">
<polygon fill="white" stroke="black" points="347.5,-0.5 347.5,-19.5 487.5,-19.5 487.5,-0.5 347.5,-0.5"/>
<text text-anchor="middle" x="417.5" y="-7.5" font-family="Helvetica,sans-Serif" font-size="10.00">T_MESH::List::appendHead</text>
</a>
</g>
</g>
<!-- Node5&#45;&gt;Node6 -->
<g id="edge5" class="edge">
<title>Node5&#45;&gt;Node6</title>
<path fill="none" stroke="midnightblue" d="M249.55,-152.49C259.26,-127.86 288.72,-61.61 336,-29 338.86,-27.02 341.91,-25.25 345.07,-23.66"/>
<polygon fill="midnightblue" stroke="midnightblue" points="346.49,-26.86 354.25,-19.65 343.69,-20.45 346.49,-26.86"/>
</g>
<!-- Node7 -->
<g id="node7" class="node">
<title>Node7</title>
<g id="a_node7"><a xlink:href="../../d3/d04/class_t___m_e_s_h_1_1_list.html#a1b14a2838ee3745d5fb413f9e7ecc214" target="_top" xlink:title="Appends a new node storing &#39;d&#39; to the tail. &#160;&#160;O(1).">
<polygon fill="white" stroke="black" points="352,-152.5 352,-171.5 483,-171.5 483,-152.5 352,-152.5"/>
<text text-anchor="middle" x="417.5" y="-159.5" font-family="Helvetica,sans-Serif" font-size="10.00">T_MESH::List::appendTail</text>
</a>
</g>
</g>
<!-- Node5&#45;&gt;Node7 -->
<g id="edge6" class="edge">
<title>Node5&#45;&gt;Node7</title>
<path fill="none" stroke="midnightblue" d="M300.42,-162C313.59,-162 327.9,-162 341.83,-162"/>
<polygon fill="midnightblue" stroke="midnightblue" points="341.88,-165.5 351.88,-162 341.88,-158.5 341.88,-165.5"/>
</g>
<!-- Node8 -->
<g id="node8" class="node">
<title>Node8</title>
<g id="a_node8"><a xlink:href="../../d3/d04/class_t___m_e_s_h_1_1_list.html#af0e61026072f65c9ba882df526acfd2e" target="_top" xlink:title="Gets the number of elements. &#160;&#160;O(1).">
<polygon fill="white" stroke="black" points="359.5,-114.5 359.5,-133.5 475.5,-133.5 475.5,-114.5 359.5,-114.5"/>
<text text-anchor="middle" x="417.5" y="-121.5" font-family="Helvetica,sans-Serif" font-size="10.00">T_MESH::List::numels</text>
</a>
</g>
</g>
<!-- Node5&#45;&gt;Node8 -->
<g id="edge8" class="edge">
<title>Node5&#45;&gt;Node8</title>
<path fill="none" stroke="midnightblue" d="M289.02,-152.41C311.73,-147.35 339.77,-141.1 363.77,-135.75"/>
<polygon fill="midnightblue" stroke="midnightblue" points="364.79,-139.11 373.79,-133.52 363.26,-132.28 364.79,-139.11"/>
</g>
<!-- Node9 -->
<g id="node9" class="node">
<title>Node9</title>
<g id="a_node9"><a xlink:href="../../d8/d6e/class_t___m_e_s_h_1_1_triangle.html#a77cc688b97fd6501b5dca8385fce4137" target="_top" xlink:title="Triangle&#39;s edge opposite to &#39;v&#39;. NULL if &#39;v&#39; is not a vertex of the triangle.">
<polygon fill="white" stroke="black" points="336,-76.5 336,-95.5 499,-95.5 499,-76.5 336,-76.5"/>
<text text-anchor="middle" x="417.5" y="-83.5" font-family="Helvetica,sans-Serif" font-size="10.00">T_MESH::Triangle::oppositeEdge</text>
</a>
</g>
</g>
<!-- Node5&#45;&gt;Node9 -->
<g id="edge9" class="edge">
<title>Node5&#45;&gt;Node9</title>
<path fill="none" stroke="midnightblue" d="M258.08,-152.48C274.71,-139.83 306,-117.62 336,-105 341.91,-102.52 348.2,-100.32 354.57,-98.39"/>
<polygon fill="midnightblue" stroke="midnightblue" points="355.91,-101.65 364.58,-95.56 354.01,-94.91 355.91,-101.65"/>
</g>
<!-- Node11 -->
<g id="node11" class="node">
<title>Node11</title>
<g id="a_node11"><a xlink:href="../../d3/d04/class_t___m_e_s_h_1_1_list.html#a9701d1b3769b92b7d2a7ed6da895a863" target="_top" xlink:title="Deletes and removes the first node. Returns its data. &#160;&#160;O(1).">
<polygon fill="white" stroke="black" points="355.5,-38.5 355.5,-57.5 479.5,-57.5 479.5,-38.5 355.5,-38.5"/>
<text text-anchor="middle" x="417.5" y="-45.5" font-family="Helvetica,sans-Serif" font-size="10.00">T_MESH::List::popHead</text>
</a>
</g>
</g>
<!-- Node5&#45;&gt;Node11 -->
<g id="edge12" class="edge">
<title>Node5&#45;&gt;Node11</title>
<path fill="none" stroke="midnightblue" d="M252.15,-152.45C265.15,-133.1 297.4,-89.21 336,-67 339.89,-64.76 344.02,-62.79 348.29,-61.05"/>
<polygon fill="midnightblue" stroke="midnightblue" points="349.59,-64.3 357.79,-57.6 347.19,-57.72 349.59,-64.3"/>
</g>
<!-- Node10 -->
<g id="node10" class="node">
<title>Node10</title>
<g id="a_node10"><a xlink:href="../../da/da2/class_t___m_e_s_h_1_1_edge.html#a7d7329ff24b7b6eb2eceee39711dd650" target="_top" xlink:title="TRUE iff &#39;v&#39; is an end&#45;point of the edge.">
<polygon fill="white" stroke="black" points="535,-76.5 535,-95.5 670,-95.5 670,-76.5 535,-76.5"/>
<text text-anchor="middle" x="602.5" y="-83.5" font-family="Helvetica,sans-Serif" font-size="10.00">T_MESH::Edge::hasVertex</text>
</a>
</g>
</g>
<!-- Node9&#45;&gt;Node10 -->
<g id="edge10" class="edge">
<title>Node9&#45;&gt;Node10</title>
<path fill="none" stroke="midnightblue" d="M499.03,-86C507.55,-86 516.2,-86 524.68,-86"/>
<polygon fill="midnightblue" stroke="midnightblue" points="524.92,-89.5 534.92,-86 524.92,-82.5 524.92,-89.5"/>
</g>
<!-- Node12 -->
<g id="node12" class="node">
<title>Node12</title>
<g id="a_node12"><a xlink:href="../../d3/d04/class_t___m_e_s_h_1_1_list.html#aec091d7c66b66c92fe56f06f41f448f4" target="_top" xlink:title="Deletes and removes the node &#39;n&#39; from the list. &#160;&#160;O(1).">
<polygon fill="white" stroke="black" points="535.5,-38.5 535.5,-57.5 669.5,-57.5 669.5,-38.5 535.5,-38.5"/>
<text text-anchor="middle" x="602.5" y="-45.5" font-family="Helvetica,sans-Serif" font-size="10.00">T_MESH::List::removeCell</text>
</a>
</g>
</g>
<!-- Node11&#45;&gt;Node12 -->
<g id="edge13" class="edge">
<title>Node11&#45;&gt;Node12</title>
<path fill="none" stroke="midnightblue" d="M479.69,-48C494.21,-48 509.88,-48 524.99,-48"/>
<polygon fill="midnightblue" stroke="midnightblue" points="525.34,-51.5 535.34,-48 525.34,-44.5 525.34,-51.5"/>
</g>
</g>
</svg>
