<?xml version="1.0" encoding="UTF-8" standalone="no"?>
<!DOCTYPE svg PUBLIC "-//W3C//DTD SVG 1.1//EN"
 "http://www.w3.org/Graphics/SVG/1.1/DTD/svg11.dtd">
<!-- Generated by graphviz version 2.44.1 (0)
 -->
<!-- Title: T_MESH::Basic_TMesh::safeCoordBackApproximation Pages: 1 -->
<svg width="899pt" height="318pt"
 viewBox="0.00 0.00 899.00 317.50" xmlns="http://www.w3.org/2000/svg" xmlns:xlink="http://www.w3.org/1999/xlink">
<g id="graph0" class="graph" transform="scale(1 1) rotate(0) translate(4 313.5)">
<title>T_MESH::Basic_TMesh::safeCoordBackApproximation</title>
<polygon fill="white" stroke="transparent" points="-4,4 -4,-313.5 895,-313.5 895,4 -4,4"/>
<!-- Node1 -->
<g id="node1" class="node">
<title>Node1</title>
<g id="a_node1"><a xlink:title="This is as coordBackApproximation() but it also checks for intersections and, if any,...">
<polygon fill="#bfbfbf" stroke="black" points="0,-164.5 0,-194.5 152,-194.5 152,-164.5 0,-164.5"/>
<text text-anchor="start" x="8" y="-182.5" font-family="Helvetica,sans-Serif" font-size="10.00">T_MESH::Basic_TMesh</text>
<text text-anchor="middle" x="76" y="-171.5" font-family="Helvetica,sans-Serif" font-size="10.00">::safeCoordBackApproximation</text>
</a>
</g>
</g>
<!-- Node2 -->
<g id="node2" class="node">
<title>Node2</title>
<g id="a_node2"><a xlink:href="../../d6/d27/class_t___m_e_s_h_1_1_basic___t_mesh.html#a7545e05048d630ca83f7d5b896dd2cb9" target="_top" xlink:title="Deselects all the triangles. O(N).">
<polygon fill="white" stroke="black" points="207,-268.5 207,-298.5 330,-298.5 330,-268.5 207,-268.5"/>
<text text-anchor="start" x="215" y="-286.5" font-family="Helvetica,sans-Serif" font-size="10.00">T_MESH::Basic_TMesh</text>
<text text-anchor="middle" x="268.5" y="-275.5" font-family="Helvetica,sans-Serif" font-size="10.00">::deselectTriangles</text>
</a>
</g>
</g>
<!-- Node1&#45;&gt;Node2 -->
<g id="edge1" class="edge">
<title>Node1&#45;&gt;Node2</title>
<path fill="none" stroke="midnightblue" d="M94.35,-194.5C115.3,-211.97 152.21,-240.7 188,-258.5 192.58,-260.78 197.41,-262.9 202.33,-264.87"/>
<polygon fill="midnightblue" stroke="midnightblue" points="201.29,-268.22 211.88,-268.48 203.76,-261.67 201.29,-268.22"/>
</g>
<!-- Node3 -->
<g id="node3" class="node">
<title>Node3</title>
<g id="a_node3"><a xlink:href="../../de/df9/namespace_t___m_e_s_h.html#a678d6e5a877d0a8813abcdd1e9fb0d31" target="_top" xlink:title=" ">
<polygon fill="white" stroke="black" points="204,-230 204,-249 333,-249 333,-230 204,-230"/>
<text text-anchor="middle" x="268.5" y="-237" font-family="Helvetica,sans-Serif" font-size="10.00">T_MESH::jitterCoordinate</text>
</a>
</g>
</g>
<!-- Node1&#45;&gt;Node3 -->
<g id="edge2" class="edge">
<title>Node1&#45;&gt;Node3</title>
<path fill="none" stroke="midnightblue" d="M125.07,-194.64C156.76,-204.62 197.77,-217.54 227.64,-226.95"/>
<polygon fill="midnightblue" stroke="midnightblue" points="226.73,-230.33 237.31,-229.99 228.83,-223.65 226.73,-230.33"/>
</g>
<!-- Node6 -->
<g id="node6" class="node">
<title>Node6</title>
<g id="a_node6"><a xlink:href="../../d8/d6e/class_t___m_e_s_h_1_1_triangle.html#a5332cb4780fa56bdd9e95b250defc82c" target="_top" xlink:title="Triangle&#39;s vertex opposite to &#39;e&#39;. NULL if &#39;e&#39; is not an edge of the triangle.">
<polygon fill="white" stroke="black" points="396.5,-164.5 396.5,-194.5 536.5,-194.5 536.5,-164.5 396.5,-164.5"/>
<text text-anchor="start" x="404.5" y="-182.5" font-family="Helvetica,sans-Serif" font-size="10.00">T_MESH::Triangle::opposite</text>
<text text-anchor="middle" x="466.5" y="-171.5" font-family="Helvetica,sans-Serif" font-size="10.00">Vertex</text>
</a>
</g>
</g>
<!-- Node1&#45;&gt;Node6 -->
<g id="edge5" class="edge">
<title>Node1&#45;&gt;Node6</title>
<path fill="none" stroke="midnightblue" d="M152.37,-179.5C219.53,-179.5 317.5,-179.5 385.92,-179.5"/>
<polygon fill="midnightblue" stroke="midnightblue" points="386.21,-183 396.21,-179.5 386.21,-176 386.21,-183"/>
</g>
<!-- Node11 -->
<g id="node11" class="node">
<title>Node11</title>
<g id="a_node11"><a xlink:href="../../da/da2/class_t___m_e_s_h_1_1_edge.html#aa9668ac7f288c8d28a9c0ef450cdbc61" target="_top" xlink:title="Returns TRUE if edge is not on boundary and its two incident triangles overlap.">
<polygon fill="white" stroke="black" points="204.5,-129 204.5,-148 332.5,-148 332.5,-129 204.5,-129"/>
<text text-anchor="middle" x="268.5" y="-136" font-family="Helvetica,sans-Serif" font-size="10.00">T_MESH::Edge::overlaps</text>
</a>
</g>
</g>
<!-- Node1&#45;&gt;Node11 -->
<g id="edge12" class="edge">
<title>Node1&#45;&gt;Node11</title>
<path fill="none" stroke="midnightblue" d="M146.85,-164.47C168.75,-159.75 192.59,-154.62 213.24,-150.18"/>
<polygon fill="midnightblue" stroke="midnightblue" points="214.07,-153.58 223.11,-148.05 212.59,-146.74 214.07,-153.58"/>
</g>
<!-- Node18 -->
<g id="node18" class="node">
<title>Node18</title>
<g id="a_node18"><a xlink:href="../../d2/d8e/class_t___m_e_s_h_1_1_point.html#a141480026f0d2f3ccf9b56f411ef6eaf" target="_top" xlink:title="Squared area of the triangle p&#45;q&#45;r.">
<polygon fill="white" stroke="black" points="188,-79.5 188,-109.5 349,-109.5 349,-79.5 188,-79.5"/>
<text text-anchor="start" x="196" y="-97.5" font-family="Helvetica,sans-Serif" font-size="10.00">T_MESH::Point::squaredTriangle</text>
<text text-anchor="middle" x="268.5" y="-86.5" font-family="Helvetica,sans-Serif" font-size="10.00">Area3D</text>
</a>
</g>
</g>
<!-- Node1&#45;&gt;Node18 -->
<g id="edge23" class="edge">
<title>Node1&#45;&gt;Node18</title>
<path fill="none" stroke="midnightblue" d="M101.89,-164.26C123.95,-151.19 157.33,-132.47 188,-119.5 193.46,-117.19 199.22,-114.98 205.03,-112.89"/>
<polygon fill="midnightblue" stroke="midnightblue" points="206.51,-116.08 214.81,-109.51 204.22,-109.47 206.51,-116.08"/>
</g>
<!-- Node4 -->
<g id="node4" class="node">
<title>Node4</title>
<g id="a_node4"><a xlink:href="../../de/df9/namespace_t___m_e_s_h.html#a9f207bf533d97dc687e69f37d92d6ed1" target="_top" xlink:title=" ">
<polygon fill="white" stroke="black" points="404.5,-290 404.5,-309 528.5,-309 528.5,-290 404.5,-290"/>
<text text-anchor="middle" x="466.5" y="-297" font-family="Helvetica,sans-Serif" font-size="10.00">T_MESH::jitterDecrease</text>
</a>
</g>
</g>
<!-- Node3&#45;&gt;Node4 -->
<g id="edge3" class="edge">
<title>Node3&#45;&gt;Node4</title>
<path fill="none" stroke="midnightblue" d="M316.87,-249.09C327.62,-251.9 338.85,-255.36 349,-259.5 366.15,-266.5 367.8,-273.63 385,-280.5 391.36,-283.04 398.15,-285.29 404.98,-287.28"/>
<polygon fill="midnightblue" stroke="midnightblue" points="404.41,-290.75 414.98,-290 406.24,-284 404.41,-290.75"/>
</g>
<!-- Node5 -->
<g id="node5" class="node">
<title>Node5</title>
<g id="a_node5"><a xlink:href="../../de/df9/namespace_t___m_e_s_h.html#a9962bf30eed20cd9e713e021a3414fd7" target="_top" xlink:title=" ">
<polygon fill="white" stroke="black" points="407,-252 407,-271 526,-271 526,-252 407,-252"/>
<text text-anchor="middle" x="466.5" y="-259" font-family="Helvetica,sans-Serif" font-size="10.00">T_MESH::jitterIncrease</text>
</a>
</g>
</g>
<!-- Node3&#45;&gt;Node5 -->
<g id="edge4" class="edge">
<title>Node3&#45;&gt;Node5</title>
<path fill="none" stroke="midnightblue" d="M333.14,-246.64C353.5,-248.93 376.13,-251.47 396.84,-253.79"/>
<polygon fill="midnightblue" stroke="midnightblue" points="396.5,-257.28 406.83,-254.91 397.28,-250.32 396.5,-257.28"/>
</g>
<!-- Node7 -->
<g id="node7" class="node">
<title>Node7</title>
<g id="a_node7"><a xlink:href="../../d8/d6e/class_t___m_e_s_h_1_1_triangle.html#aa7b9f783f2e4339083f46d25d3eecf68" target="_top" xlink:title="First vertex.">
<polygon fill="white" stroke="black" points="584,-189 584,-208 698,-208 698,-189 584,-189"/>
<text text-anchor="middle" x="641" y="-196" font-family="Helvetica,sans-Serif" font-size="10.00">T_MESH::Triangle::v1</text>
</a>
</g>
</g>
<!-- Node6&#45;&gt;Node7 -->
<g id="edge6" class="edge">
<title>Node6&#45;&gt;Node7</title>
<path fill="none" stroke="midnightblue" d="M536.67,-187.12C548.9,-188.47 561.6,-189.87 573.75,-191.2"/>
<polygon fill="midnightblue" stroke="midnightblue" points="573.48,-194.69 583.8,-192.31 574.24,-187.74 573.48,-194.69"/>
</g>
<!-- Node9 -->
<g id="node9" class="node">
<title>Node9</title>
<g id="a_node9"><a xlink:href="../../d8/d6e/class_t___m_e_s_h_1_1_triangle.html#a1bf6a231440a3c73a931c1cfccfee574" target="_top" xlink:title="Second vertex.">
<polygon fill="white" stroke="black" points="584,-151 584,-170 698,-170 698,-151 584,-151"/>
<text text-anchor="middle" x="641" y="-158" font-family="Helvetica,sans-Serif" font-size="10.00">T_MESH::Triangle::v2</text>
</a>
</g>
</g>
<!-- Node6&#45;&gt;Node9 -->
<g id="edge8" class="edge">
<title>Node6&#45;&gt;Node9</title>
<path fill="none" stroke="midnightblue" d="M536.67,-171.88C548.9,-170.53 561.6,-169.13 573.75,-167.8"/>
<polygon fill="midnightblue" stroke="midnightblue" points="574.24,-171.26 583.8,-166.69 573.48,-164.31 574.24,-171.26"/>
</g>
<!-- Node10 -->
<g id="node10" class="node">
<title>Node10</title>
<g id="a_node10"><a xlink:href="../../d8/d6e/class_t___m_e_s_h_1_1_triangle.html#a0c4c2a2ba6b0c975aa3d260f00785e8f" target="_top" xlink:title="Third vertex.">
<polygon fill="white" stroke="black" points="584,-113 584,-132 698,-132 698,-113 584,-113"/>
<text text-anchor="middle" x="641" y="-120" font-family="Helvetica,sans-Serif" font-size="10.00">T_MESH::Triangle::v3</text>
</a>
</g>
</g>
<!-- Node6&#45;&gt;Node10 -->
<g id="edge10" class="edge">
<title>Node6&#45;&gt;Node10</title>
<path fill="none" stroke="midnightblue" d="M513.27,-164.37C540.8,-155.28 575.44,-143.83 601.54,-135.21"/>
<polygon fill="midnightblue" stroke="midnightblue" points="602.7,-138.51 611.09,-132.05 600.5,-131.87 602.7,-138.51"/>
</g>
<!-- Node8 -->
<g id="node8" class="node">
<title>Node8</title>
<g id="a_node8"><a xlink:href="../../da/da2/class_t___m_e_s_h_1_1_edge.html#a560eca8895471f987bd3228b13c40052" target="_top" xlink:title="Vertex shared with edge &#39;b&#39;. NULL if this and &#39;b&#39; do not share any vertex.">
<polygon fill="white" stroke="black" points="734,-151 734,-170 891,-170 891,-151 734,-151"/>
<text text-anchor="middle" x="812.5" y="-158" font-family="Helvetica,sans-Serif" font-size="10.00">T_MESH::Edge::commonVertex</text>
</a>
</g>
</g>
<!-- Node7&#45;&gt;Node8 -->
<g id="edge7" class="edge">
<title>Node7&#45;&gt;Node8</title>
<path fill="none" stroke="midnightblue" d="M684.77,-188.91C707.34,-183.85 735.22,-177.6 759.08,-172.25"/>
<polygon fill="midnightblue" stroke="midnightblue" points="760.04,-175.62 769.04,-170.02 758.51,-168.79 760.04,-175.62"/>
</g>
<!-- Node9&#45;&gt;Node8 -->
<g id="edge9" class="edge">
<title>Node9&#45;&gt;Node8</title>
<path fill="none" stroke="midnightblue" d="M698.44,-160.5C706.61,-160.5 715.17,-160.5 723.78,-160.5"/>
<polygon fill="midnightblue" stroke="midnightblue" points="723.88,-164 733.88,-160.5 723.88,-157 723.88,-164"/>
</g>
<!-- Node10&#45;&gt;Node8 -->
<g id="edge11" class="edge">
<title>Node10&#45;&gt;Node8</title>
<path fill="none" stroke="midnightblue" d="M684.77,-132.09C707.34,-137.15 735.22,-143.4 759.08,-148.75"/>
<polygon fill="midnightblue" stroke="midnightblue" points="758.51,-152.21 769.04,-150.98 760.04,-145.38 758.51,-152.21"/>
</g>
<!-- Node11&#45;&gt;Node6 -->
<g id="edge19" class="edge">
<title>Node11&#45;&gt;Node6</title>
<path fill="none" stroke="midnightblue" d="M314.96,-148.01C336.23,-152.46 362.19,-157.89 386.52,-162.98"/>
<polygon fill="midnightblue" stroke="midnightblue" points="385.96,-166.44 396.47,-165.06 387.4,-159.59 385.96,-166.44"/>
</g>
<!-- Node11&#45;&gt;Node7 -->
<g id="edge20" class="edge">
<title>Node11&#45;&gt;Node7</title>
<path fill="none" stroke="midnightblue" d="M281.37,-148.13C301.32,-163.63 343.48,-193.47 385,-204.5 449.2,-221.55 525.71,-216.56 578.07,-209.5"/>
<polygon fill="midnightblue" stroke="midnightblue" points="578.79,-212.94 588.21,-208.07 577.81,-206 578.79,-212.94"/>
</g>
<!-- Node11&#45;&gt;Node9 -->
<g id="edge21" class="edge">
<title>Node11&#45;&gt;Node9</title>
<path fill="none" stroke="midnightblue" d="M332.77,-142.26C399.9,-146.24 505.51,-152.51 573.76,-156.57"/>
<polygon fill="midnightblue" stroke="midnightblue" points="573.77,-160.07 583.96,-157.17 574.19,-153.09 573.77,-160.07"/>
</g>
<!-- Node11&#45;&gt;Node10 -->
<g id="edge22" class="edge">
<title>Node11&#45;&gt;Node10</title>
<path fill="none" stroke="midnightblue" d="M322.8,-128.99C342.3,-125.96 364.58,-122.99 385,-121.5 457.25,-116.21 475.56,-121.11 548,-121.5 556.27,-121.54 564.95,-121.61 573.54,-121.69"/>
<polygon fill="midnightblue" stroke="midnightblue" points="573.53,-125.19 583.56,-121.79 573.6,-118.19 573.53,-125.19"/>
</g>
<!-- Node12 -->
<g id="node12" class="node">
<title>Node12</title>
<g id="a_node12"><a xlink:href="../../d2/d8e/class_t___m_e_s_h_1_1_point.html#a16ed7eb5cd98505d86668c4eb0590645" target="_top" xlink:title="Exact orientation test.">
<polygon fill="white" stroke="black" points="385,-50 385,-69 548,-69 548,-50 385,-50"/>
<text text-anchor="middle" x="466.5" y="-57" font-family="Helvetica,sans-Serif" font-size="10.00">T_MESH::Point::exactOrientation</text>
</a>
</g>
</g>
<!-- Node11&#45;&gt;Node12 -->
<g id="edge13" class="edge">
<title>Node11&#45;&gt;Node12</title>
<path fill="none" stroke="midnightblue" d="M326.55,-128.93C334.36,-126.47 342.06,-123.38 349,-119.5 368.75,-108.45 365.56,-95.09 385,-83.5 392.55,-79 401.02,-75.28 409.54,-72.24"/>
<polygon fill="midnightblue" stroke="midnightblue" points="410.74,-75.53 419.14,-69.08 408.55,-68.88 410.74,-75.53"/>
</g>
<!-- Node15 -->
<g id="node15" class="node">
<title>Node15</title>
<g id="a_node15"><a xlink:href="../../d2/d8e/class_t___m_e_s_h_1_1_point.html#a882a22d815f18d8327787012a120637c" target="_top" xlink:title="Exact planar side test.">
<polygon fill="white" stroke="black" points="396,-0.5 396,-30.5 537,-30.5 537,-0.5 396,-0.5"/>
<text text-anchor="start" x="404" y="-18.5" font-family="Helvetica,sans-Serif" font-size="10.00">T_MESH::Point::exactSame</text>
<text text-anchor="middle" x="466.5" y="-7.5" font-family="Helvetica,sans-Serif" font-size="10.00">SideOnPlane</text>
</a>
</g>
</g>
<!-- Node11&#45;&gt;Node15 -->
<g id="edge16" class="edge">
<title>Node11&#45;&gt;Node15</title>
<path fill="none" stroke="midnightblue" d="M332.85,-129.16C338.67,-126.64 344.18,-123.47 349,-119.5 378.79,-94.97 356.05,-66.01 385,-40.5 386.92,-38.81 388.96,-37.23 391.08,-35.76"/>
<polygon fill="midnightblue" stroke="midnightblue" points="392.9,-38.75 399.66,-30.6 389.29,-32.75 392.9,-38.75"/>
</g>
<!-- Node13 -->
<g id="node13" class="node">
<title>Node13</title>
<g id="a_node13"><a xlink:href="../../de/df9/namespace_t___m_e_s_h.html#a31d1470b87fab8f85b54af905e25d15a" target="_top" xlink:title=" ">
<polygon fill="white" stroke="black" points="591,-50 591,-69 691,-69 691,-50 591,-50"/>
<text text-anchor="middle" x="641" y="-57" font-family="Helvetica,sans-Serif" font-size="10.00">T_MESH::orient3D</text>
</a>
</g>
</g>
<!-- Node12&#45;&gt;Node13 -->
<g id="edge14" class="edge">
<title>Node12&#45;&gt;Node13</title>
<path fill="none" stroke="midnightblue" d="M548.19,-59.5C559.11,-59.5 570.15,-59.5 580.6,-59.5"/>
<polygon fill="midnightblue" stroke="midnightblue" points="580.83,-63 590.83,-59.5 580.83,-56 580.83,-63"/>
</g>
<!-- Node14 -->
<g id="node14" class="node">
<title>Node14</title>
<g id="a_node14"><a xlink:href="../../de/df9/namespace_t___m_e_s_h.html#ab2a541476dd63dc930853bddc4bf6969" target="_top" xlink:title=" ">
<polygon fill="white" stroke="black" points="761,-50 761,-69 864,-69 864,-50 761,-50"/>
<text text-anchor="middle" x="812.5" y="-57" font-family="Helvetica,sans-Serif" font-size="10.00">T_MESH::_orient3d</text>
</a>
</g>
</g>
<!-- Node13&#45;&gt;Node14 -->
<g id="edge15" class="edge">
<title>Node13&#45;&gt;Node14</title>
<path fill="none" stroke="midnightblue" d="M691.03,-59.5C709.68,-59.5 731.15,-59.5 750.76,-59.5"/>
<polygon fill="midnightblue" stroke="midnightblue" points="750.82,-63 760.82,-59.5 750.82,-56 750.82,-63"/>
</g>
<!-- Node16 -->
<g id="node16" class="node">
<title>Node16</title>
<g id="a_node16"><a xlink:href="../../de/df9/namespace_t___m_e_s_h.html#a5dcbe262a73a0769e3f63025edf3d25d" target="_top" xlink:title="Orientation predicates on PM_Rationals.">
<polygon fill="white" stroke="black" points="591,-6 591,-25 691,-25 691,-6 591,-6"/>
<text text-anchor="middle" x="641" y="-13" font-family="Helvetica,sans-Serif" font-size="10.00">T_MESH::orient2D</text>
</a>
</g>
</g>
<!-- Node15&#45;&gt;Node16 -->
<g id="edge17" class="edge">
<title>Node15&#45;&gt;Node16</title>
<path fill="none" stroke="midnightblue" d="M537.17,-15.5C551.61,-15.5 566.7,-15.5 580.74,-15.5"/>
<polygon fill="midnightblue" stroke="midnightblue" points="580.74,-19 590.74,-15.5 580.74,-12 580.74,-19"/>
</g>
<!-- Node17 -->
<g id="node17" class="node">
<title>Node17</title>
<g id="a_node17"><a xlink:href="../../de/df9/namespace_t___m_e_s_h.html#a2bad1f974ad8c908dd703494055080c1" target="_top" xlink:title="Orientation predicates using filtering on doubles.">
<polygon fill="white" stroke="black" points="761,-6 761,-25 864,-25 864,-6 761,-6"/>
<text text-anchor="middle" x="812.5" y="-13" font-family="Helvetica,sans-Serif" font-size="10.00">T_MESH::_orient2d</text>
</a>
</g>
</g>
<!-- Node16&#45;&gt;Node17 -->
<g id="edge18" class="edge">
<title>Node16&#45;&gt;Node17</title>
<path fill="none" stroke="midnightblue" d="M691.03,-15.5C709.68,-15.5 731.15,-15.5 750.76,-15.5"/>
<polygon fill="midnightblue" stroke="midnightblue" points="750.82,-19 760.82,-15.5 750.82,-12 750.82,-19"/>
</g>
</g>
</svg>
