<?xml version="1.0" encoding="UTF-8" standalone="no"?>
<!DOCTYPE svg PUBLIC "-//W3C//DTD SVG 1.1//EN"
 "http://www.w3.org/Graphics/SVG/1.1/DTD/svg11.dtd">
<!-- Generated by graphviz version 2.44.1 (0)
 -->
<!-- Title: T_MESH::Basic_TMesh::deselectTriangles Pages: 1 -->
<svg width="1339pt" height="555pt"
 viewBox="0.00 0.00 1339.00 554.50" xmlns="http://www.w3.org/2000/svg" xmlns:xlink="http://www.w3.org/1999/xlink">
<g id="graph0" class="graph" transform="scale(1 1) rotate(0) translate(4 550.5)">
<title>T_MESH::Basic_TMesh::deselectTriangles</title>
<polygon fill="white" stroke="transparent" points="-4,4 -4,-550.5 1335,-550.5 1335,4 -4,4"/>
<!-- Node1 -->
<g id="node1" class="node">
<title>Node1</title>
<g id="a_node1"><a xlink:title="Deselects all the triangles. O(N).">
<polygon fill="#bfbfbf" stroke="black" points="1208,-181.5 1208,-211.5 1331,-211.5 1331,-181.5 1208,-181.5"/>
<text text-anchor="start" x="1216" y="-199.5" font-family="Helvetica,sans-Serif" font-size="10.00">T_MESH::Basic_TMesh</text>
<text text-anchor="middle" x="1269.5" y="-188.5" font-family="Helvetica,sans-Serif" font-size="10.00">::deselectTriangles</text>
</a>
</g>
</g>
<!-- Node2 -->
<g id="node2" class="node">
<title>Node2</title>
<g id="a_node2"><a xlink:href="../../d6/d27/class_t___m_e_s_h_1_1_basic___t_mesh.html#a6184c7436398347f5473ed388e641bb7" target="_top" xlink:title="Append to the current mesh a copy of all the elements of &#39;t&#39;.">
<polygon fill="white" stroke="black" points="1034.5,-372.5 1034.5,-402.5 1157.5,-402.5 1157.5,-372.5 1034.5,-372.5"/>
<text text-anchor="start" x="1042.5" y="-390.5" font-family="Helvetica,sans-Serif" font-size="10.00">T_MESH::Basic_TMesh</text>
<text text-anchor="middle" x="1096" y="-379.5" font-family="Helvetica,sans-Serif" font-size="10.00">::append</text>
</a>
</g>
</g>
<!-- Node1&#45;&gt;Node2 -->
<g id="edge1" class="edge">
<title>Node1&#45;&gt;Node2</title>
<path fill="none" stroke="midnightblue" d="M1260.49,-221.79C1247.64,-258.33 1218.99,-325.64 1172,-363.5 1167.64,-367.02 1162.75,-370.02 1157.61,-372.59"/>
<polygon fill="midnightblue" stroke="midnightblue" points="1263.94,-222.52 1263.83,-211.93 1257.31,-220.27 1263.94,-222.52"/>
</g>
<!-- Node3 -->
<g id="node3" class="node">
<title>Node3</title>
<g id="a_node3"><a xlink:href="../../d6/d27/class_t___m_e_s_h_1_1_basic___t_mesh.html#a5d522c7bb892873b10efb533a4e94b94" target="_top" xlink:title="Hole filling algorithm.">
<polygon fill="white" stroke="black" points="1034.5,-323.5 1034.5,-353.5 1157.5,-353.5 1157.5,-323.5 1034.5,-323.5"/>
<text text-anchor="start" x="1042.5" y="-341.5" font-family="Helvetica,sans-Serif" font-size="10.00">T_MESH::Basic_TMesh</text>
<text text-anchor="middle" x="1096" y="-330.5" font-family="Helvetica,sans-Serif" font-size="10.00">::FillHole</text>
</a>
</g>
</g>
<!-- Node1&#45;&gt;Node3 -->
<g id="edge2" class="edge">
<title>Node1&#45;&gt;Node3</title>
<path fill="none" stroke="midnightblue" d="M1254.95,-220.22C1238.57,-246.86 1208.6,-289.6 1172,-314.5 1167.03,-317.88 1161.55,-320.81 1155.88,-323.35"/>
<polygon fill="midnightblue" stroke="midnightblue" points="1258.02,-221.9 1260.16,-211.53 1252.02,-218.3 1258.02,-221.9"/>
</g>
<!-- Node4 -->
<g id="node4" class="node">
<title>Node4</title>
<g id="a_node4"><a xlink:href="../../d6/d27/class_t___m_e_s_h_1_1_basic___t_mesh.html#a24c4a4f93e50ac97dbeed1576c2aeb62" target="_top" xlink:title="Fills all the holes having at least &#39;nbe&#39; boundary edges.">
<polygon fill="white" stroke="black" points="1034.5,-274.5 1034.5,-304.5 1157.5,-304.5 1157.5,-274.5 1034.5,-274.5"/>
<text text-anchor="start" x="1042.5" y="-292.5" font-family="Helvetica,sans-Serif" font-size="10.00">T_MESH::Basic_TMesh</text>
<text text-anchor="middle" x="1096" y="-281.5" font-family="Helvetica,sans-Serif" font-size="10.00">::fillSmallBoundaries</text>
</a>
</g>
</g>
<!-- Node1&#45;&gt;Node4 -->
<g id="edge3" class="edge">
<title>Node1&#45;&gt;Node4</title>
<path fill="none" stroke="midnightblue" d="M1243.08,-218.04C1224.4,-233.01 1197.86,-252.52 1172,-265.5 1165.4,-268.81 1158.25,-271.79 1151.07,-274.44"/>
<polygon fill="midnightblue" stroke="midnightblue" points="1245.54,-220.55 1251.08,-211.52 1241.12,-215.12 1245.54,-220.55"/>
</g>
<!-- Node23 -->
<g id="node23" class="node">
<title>Node23</title>
<g id="a_node23"><a xlink:href="../../d6/d27/class_t___m_e_s_h_1_1_basic___t_mesh.html#a1270b60eec84c1f939d405d9ade1a94e" target="_top" xlink:title="Iteratively call strongDegeneracyRemoval and strongIntersectionRemoval to produce an eventually clean...">
<polygon fill="white" stroke="black" points="684,-313.5 684,-343.5 807,-343.5 807,-313.5 684,-313.5"/>
<text text-anchor="start" x="692" y="-331.5" font-family="Helvetica,sans-Serif" font-size="10.00">T_MESH::Basic_TMesh</text>
<text text-anchor="middle" x="745.5" y="-320.5" font-family="Helvetica,sans-Serif" font-size="10.00">::meshclean</text>
</a>
</g>
</g>
<!-- Node1&#45;&gt;Node23 -->
<g id="edge37" class="edge">
<title>Node1&#45;&gt;Node23</title>
<path fill="none" stroke="midnightblue" d="M1197.46,-193.16C1092.92,-189.35 903.48,-187.04 843,-216.5 799.62,-237.63 767.91,-288.13 754.13,-313.46"/>
<polygon fill="midnightblue" stroke="midnightblue" points="1197.49,-196.66 1207.61,-193.54 1197.75,-189.66 1197.49,-196.66"/>
</g>
<!-- Node25 -->
<g id="node25" class="node">
<title>Node25</title>
<g id="a_node25"><a xlink:href="../../d6/d27/class_t___m_e_s_h_1_1_basic___t_mesh.html#a010c12b5c3406aefb5a3c730dd61923f" target="_top" xlink:title="Joins the two boundary vertices gv and gw through an edge.">
<polygon fill="white" stroke="black" points="1034.5,-137.5 1034.5,-167.5 1157.5,-167.5 1157.5,-137.5 1034.5,-137.5"/>
<text text-anchor="start" x="1042.5" y="-155.5" font-family="Helvetica,sans-Serif" font-size="10.00">T_MESH::Basic_TMesh</text>
<text text-anchor="middle" x="1096" y="-144.5" font-family="Helvetica,sans-Serif" font-size="10.00">::joinBoundaryLoops</text>
</a>
</g>
</g>
<!-- Node1&#45;&gt;Node25 -->
<g id="edge36" class="edge">
<title>Node1&#45;&gt;Node25</title>
<path fill="none" stroke="midnightblue" d="M1199.92,-178.91C1185.23,-175.14 1169.84,-171.19 1155.57,-167.53"/>
<polygon fill="midnightblue" stroke="midnightblue" points="1199.4,-182.39 1209.96,-181.48 1201.14,-175.61 1199.4,-182.39"/>
</g>
<!-- Node26 -->
<g id="node26" class="node">
<title>Node26</title>
<g id="a_node26"><a xlink:href="../../d6/d27/class_t___m_e_s_h_1_1_basic___t_mesh.html#a88600f587cbaf2f57c7be3b6e202a22d" target="_top" xlink:title="This is as coordBackApproximation() but it also checks for intersections and, if any,...">
<polygon fill="white" stroke="black" points="1020,-88.5 1020,-118.5 1172,-118.5 1172,-88.5 1020,-88.5"/>
<text text-anchor="start" x="1028" y="-106.5" font-family="Helvetica,sans-Serif" font-size="10.00">T_MESH::Basic_TMesh</text>
<text text-anchor="middle" x="1096" y="-95.5" font-family="Helvetica,sans-Serif" font-size="10.00">::safeCoordBackApproximation</text>
</a>
</g>
</g>
<!-- Node1&#45;&gt;Node26 -->
<g id="edge38" class="edge">
<title>Node1&#45;&gt;Node26</title>
<path fill="none" stroke="midnightblue" d="M1242.29,-174.84C1223.6,-160.22 1197.38,-141.32 1172,-128.5 1164.77,-124.85 1156.89,-121.55 1149.04,-118.64"/>
<polygon fill="midnightblue" stroke="midnightblue" points="1240.31,-177.74 1250.31,-181.22 1244.66,-172.26 1240.31,-177.74"/>
</g>
<!-- Node28 -->
<g id="node28" class="node">
<title>Node28</title>
<g id="a_node28"><a xlink:href="../../d6/d27/class_t___m_e_s_h_1_1_basic___t_mesh.html#abd13c6fd390da4089491706037fc5664" target="_top" xlink:title="Selects all the triangles that unproperly intersect other parts of the mesh and return their number.">
<polygon fill="white" stroke="black" points="1026,-225.5 1026,-255.5 1166,-255.5 1166,-225.5 1026,-225.5"/>
<text text-anchor="start" x="1034" y="-243.5" font-family="Helvetica,sans-Serif" font-size="10.00">T_MESH::Basic_TMesh</text>
<text text-anchor="middle" x="1096" y="-232.5" font-family="Helvetica,sans-Serif" font-size="10.00">::selectIntersectingTriangles</text>
</a>
</g>
</g>
<!-- Node1&#45;&gt;Node28 -->
<g id="edge40" class="edge">
<title>Node1&#45;&gt;Node28</title>
<path fill="none" stroke="midnightblue" d="M1199.92,-214.09C1185.23,-217.86 1169.84,-221.81 1155.57,-225.47"/>
<polygon fill="midnightblue" stroke="midnightblue" points="1201.14,-217.39 1209.96,-211.52 1199.4,-210.61 1201.14,-217.39"/>
</g>
<!-- Node29 -->
<g id="node29" class="node">
<title>Node29</title>
<g id="a_node29"><a xlink:href="../../d9/d69/class_t___m_e_s_h_1_1mc__grid.html#a4a05d540177eaf325992664030d0743e" target="_top" xlink:title=" ">
<polygon fill="white" stroke="black" points="1027.5,-50 1027.5,-69 1164.5,-69 1164.5,-50 1027.5,-50"/>
<text text-anchor="middle" x="1096" y="-57" font-family="Helvetica,sans-Serif" font-size="10.00">T_MESH::mc_grid::simplify</text>
</a>
</g>
</g>
<!-- Node1&#45;&gt;Node29 -->
<g id="edge42" class="edge">
<title>Node1&#45;&gt;Node29</title>
<path fill="none" stroke="midnightblue" d="M1255.22,-172.37C1239.09,-145.36 1209.35,-102.27 1172,-78.5 1165.88,-74.61 1159.01,-71.51 1151.97,-69.05"/>
<polygon fill="midnightblue" stroke="midnightblue" points="1252.3,-174.31 1260.35,-181.19 1258.35,-170.79 1252.3,-174.31"/>
</g>
<!-- Node30 -->
<g id="node30" class="node">
<title>Node30</title>
<g id="a_node30"><a xlink:href="../../d6/d27/class_t___m_e_s_h_1_1_basic___t_mesh.html#a414e3ca5cfc7a3ab7a29a269f92ca7fb" target="_top" xlink:title="This method removes one connected component from the mesh and creates a separate new mesh out of it.">
<polygon fill="white" stroke="black" points="1034.5,-0.5 1034.5,-30.5 1157.5,-30.5 1157.5,-0.5 1034.5,-0.5"/>
<text text-anchor="start" x="1042.5" y="-18.5" font-family="Helvetica,sans-Serif" font-size="10.00">T_MESH::Basic_TMesh</text>
<text text-anchor="middle" x="1096" y="-7.5" font-family="Helvetica,sans-Serif" font-size="10.00">::split</text>
</a>
</g>
</g>
<!-- Node1&#45;&gt;Node30 -->
<g id="edge44" class="edge">
<title>Node1&#45;&gt;Node30</title>
<path fill="none" stroke="midnightblue" d="M1259.38,-171.46C1245.62,-137.09 1216.36,-75.6 1172,-40.5 1167.16,-36.67 1161.7,-33.41 1155.99,-30.64"/>
<polygon fill="midnightblue" stroke="midnightblue" points="1256.27,-173.13 1263.15,-181.19 1262.8,-170.6 1256.27,-173.13"/>
</g>
<!-- Node5 -->
<g id="node5" class="node">
<title>Node5</title>
<g id="a_node5"><a xlink:href="../../d2/d68/class_export_open_scad_tool.html#a6e48e9b58a764bc8032b1fbc4082603d" target="_top" xlink:title=" ">
<polygon fill="white" stroke="black" points="533,-269.5 533,-299.5 642,-299.5 642,-269.5 533,-269.5"/>
<text text-anchor="start" x="541" y="-287.5" font-family="Helvetica,sans-Serif" font-size="10.00">ExportOpenScadTool</text>
<text text-anchor="middle" x="587.5" y="-276.5" font-family="Helvetica,sans-Serif" font-size="10.00">::fixMesh</text>
</a>
</g>
</g>
<!-- Node4&#45;&gt;Node5 -->
<g id="edge4" class="edge">
<title>Node4&#45;&gt;Node5</title>
<path fill="none" stroke="midnightblue" d="M1024.15,-288.8C921.64,-287.79 734.18,-285.94 642.24,-285.03"/>
<polygon fill="midnightblue" stroke="midnightblue" points="1024.37,-292.3 1034.41,-288.9 1024.44,-285.3 1024.37,-292.3"/>
</g>
<!-- Node10 -->
<g id="node10" class="node">
<title>Node10</title>
<g id="a_node10"><a xlink:href="../../dd/d00/class_export_s_t_l_tool.html#a82d1e11c365c1ed2adf6d831b7f6014f" target="_top" xlink:title=" ">
<polygon fill="white" stroke="black" points="527,-401 527,-420 648,-420 648,-401 527,-401"/>
<text text-anchor="middle" x="587.5" y="-408" font-family="Helvetica,sans-Serif" font-size="10.00">ExportSTLTool::fixMesh</text>
</a>
</g>
</g>
<!-- Node4&#45;&gt;Node10 -->
<g id="edge11" class="edge">
<title>Node4&#45;&gt;Node10</title>
<path fill="none" stroke="midnightblue" d="M1026.39,-309.73C1024.16,-311.21 1022.02,-312.8 1020,-314.5 994.14,-336.27 1012.36,-363.1 984,-381.5 874.55,-452.5 710.42,-434.28 632.54,-420.02"/>
<polygon fill="midnightblue" stroke="midnightblue" points="1028.48,-312.57 1035.39,-304.54 1024.98,-306.51 1028.48,-312.57"/>
</g>
<!-- Node12 -->
<g id="node12" class="node">
<title>Node12</title>
<g id="a_node12"><a xlink:href="../../d9/dc6/class_main_window.html#a15f9fa9fe71b50669ecf5f5a3a1ce90e" target="_top" xlink:title="Import STL / OBJ mesh into the scene.">
<polygon fill="white" stroke="black" points="527,-341 527,-360 648,-360 648,-341 527,-341"/>
<text text-anchor="middle" x="587.5" y="-348" font-family="Helvetica,sans-Serif" font-size="10.00">MainWindow::loadMesh</text>
</a>
</g>
</g>
<!-- Node4&#45;&gt;Node12 -->
<g id="edge13" class="edge">
<title>Node4&#45;&gt;Node12</title>
<path fill="none" stroke="midnightblue" d="M1029.83,-308.88C1026.43,-310.61 1023.12,-312.48 1020,-314.5 1000.19,-327.3 1005.61,-344.04 984,-353.5 861.19,-407.27 695.65,-377.28 624,-360.01"/>
<polygon fill="midnightblue" stroke="midnightblue" points="1031.45,-311.99 1039.05,-304.61 1028.51,-305.64 1031.45,-311.99"/>
</g>
<!-- Node22 -->
<g id="node22" class="node">
<title>Node22</title>
<g id="a_node22"><a xlink:href="../../d6/d27/class_t___m_e_s_h_1_1_basic___t_mesh.html#af160de0b4a939ef2cb93279f67e6dd34" target="_top" xlink:title="Calls &#39;removeDegenerateTriangles()&#39; and, if some degeneracies remain, removes them and fills the resu...">
<polygon fill="white" stroke="black" points="843,-313.5 843,-343.5 984,-343.5 984,-313.5 843,-313.5"/>
<text text-anchor="start" x="851" y="-331.5" font-family="Helvetica,sans-Serif" font-size="10.00">T_MESH::Basic_TMesh</text>
<text text-anchor="middle" x="913.5" y="-320.5" font-family="Helvetica,sans-Serif" font-size="10.00">::strongDegeneracyRemoval</text>
</a>
</g>
</g>
<!-- Node4&#45;&gt;Node22 -->
<g id="edge29" class="edge">
<title>Node4&#45;&gt;Node22</title>
<path fill="none" stroke="midnightblue" d="M1024.38,-304.76C1011.1,-307.63 997.22,-310.63 983.98,-313.49"/>
<polygon fill="midnightblue" stroke="midnightblue" points="1025.36,-308.13 1034.39,-302.59 1023.88,-301.29 1025.36,-308.13"/>
</g>
<!-- Node24 -->
<g id="node24" class="node">
<title>Node24</title>
<g id="a_node24"><a xlink:href="../../d6/d27/class_t___m_e_s_h_1_1_basic___t_mesh.html#a1415feaeb04556d7729a02f73b546ab1" target="_top" xlink:title="Removes all the intersecting triangles and patches the resulting holes.">
<polygon fill="white" stroke="black" points="843.5,-225.5 843.5,-255.5 983.5,-255.5 983.5,-225.5 843.5,-225.5"/>
<text text-anchor="start" x="851.5" y="-243.5" font-family="Helvetica,sans-Serif" font-size="10.00">T_MESH::Basic_TMesh</text>
<text text-anchor="middle" x="913.5" y="-232.5" font-family="Helvetica,sans-Serif" font-size="10.00">::strongIntersectionRemoval</text>
</a>
</g>
</g>
<!-- Node4&#45;&gt;Node24 -->
<g id="edge34" class="edge">
<title>Node4&#45;&gt;Node24</title>
<path fill="none" stroke="midnightblue" d="M1029.62,-271.75C1010.06,-266.44 988.8,-260.67 969.95,-255.55"/>
<polygon fill="midnightblue" stroke="midnightblue" points="1028.8,-275.16 1039.37,-274.4 1030.64,-268.4 1028.8,-275.16"/>
</g>
<!-- Node6 -->
<g id="node6" class="node">
<title>Node6</title>
<g id="a_node6"><a xlink:href="../../d2/d68/class_export_open_scad_tool.html#a2e36901501e307b74705aa84f4227d67" target="_top" xlink:title="Export the wiring in the openscad format.">
<polygon fill="white" stroke="black" points="362,-144.5 362,-174.5 471,-174.5 471,-144.5 362,-144.5"/>
<text text-anchor="start" x="370" y="-162.5" font-family="Helvetica,sans-Serif" font-size="10.00">ExportOpenScadTool</text>
<text text-anchor="middle" x="416.5" y="-151.5" font-family="Helvetica,sans-Serif" font-size="10.00">::writeWiring</text>
</a>
</g>
</g>
<!-- Node5&#45;&gt;Node6 -->
<g id="edge5" class="edge">
<title>Node5&#45;&gt;Node6</title>
<path fill="none" stroke="midnightblue" d="M569.81,-261.41C552.44,-238.9 523.3,-205.12 491,-184.5 484.87,-180.58 478.05,-177.21 471.11,-174.32"/>
<polygon fill="midnightblue" stroke="midnightblue" points="567.06,-263.57 575.88,-269.44 572.64,-259.35 567.06,-263.57"/>
</g>
<!-- Node7 -->
<g id="node7" class="node">
<title>Node7</title>
<g id="a_node7"><a xlink:href="../../d2/d68/class_export_open_scad_tool.html#a71ef67a238fb9cd74563b65d77c1ea73" target="_top" xlink:title=" ">
<polygon fill="white" stroke="black" points="13,-144.5 13,-174.5 122,-174.5 122,-144.5 13,-144.5"/>
<text text-anchor="start" x="21" y="-162.5" font-family="Helvetica,sans-Serif" font-size="10.00">ExportOpenScadTool</text>
<text text-anchor="middle" x="67.5" y="-151.5" font-family="Helvetica,sans-Serif" font-size="10.00">::execute</text>
</a>
</g>
</g>
<!-- Node6&#45;&gt;Node7 -->
<g id="edge6" class="edge">
<title>Node6&#45;&gt;Node7</title>
<path fill="none" stroke="midnightblue" d="M351.4,-159.5C285.49,-159.5 184,-159.5 122.18,-159.5"/>
<polygon fill="midnightblue" stroke="midnightblue" points="351.66,-163 361.66,-159.5 351.66,-156 351.66,-163"/>
</g>
<!-- Node8 -->
<g id="node8" class="node">
<title>Node8</title>
<g id="a_node8"><a xlink:href="../../d2/d68/class_export_open_scad_tool.html#a9c35cf64ece9ee328df6ebfd080c0689" target="_top" xlink:title="Export the meshdifference between mesh and wiring in the openscad format.">
<polygon fill="white" stroke="black" points="184,-100.5 184,-130.5 293,-130.5 293,-100.5 184,-100.5"/>
<text text-anchor="start" x="192" y="-118.5" font-family="Helvetica,sans-Serif" font-size="10.00">ExportOpenScadTool</text>
<text text-anchor="middle" x="238.5" y="-107.5" font-family="Helvetica,sans-Serif" font-size="10.00">::writeDifference</text>
</a>
</g>
</g>
<!-- Node6&#45;&gt;Node8 -->
<g id="edge7" class="edge">
<title>Node6&#45;&gt;Node8</title>
<path fill="none" stroke="midnightblue" d="M351.86,-143.59C332.64,-138.79 311.74,-133.56 293.24,-128.93"/>
<polygon fill="midnightblue" stroke="midnightblue" points="351.19,-147.03 361.74,-146.06 352.89,-140.24 351.19,-147.03"/>
</g>
<!-- Node9 -->
<g id="node9" class="node">
<title>Node9</title>
<g id="a_node9"><a xlink:href="../../d2/d68/class_export_open_scad_tool.html#adc9cf506ecd2ef6e33f37f2eb206da1a" target="_top" xlink:title="Export the meshdifference between mesh and magnets in the openscad format.">
<polygon fill="white" stroke="black" points="176,-188.5 176,-218.5 301,-218.5 301,-188.5 176,-188.5"/>
<text text-anchor="start" x="184" y="-206.5" font-family="Helvetica,sans-Serif" font-size="10.00">ExportOpenScadTool</text>
<text text-anchor="middle" x="238.5" y="-195.5" font-family="Helvetica,sans-Serif" font-size="10.00">::writeDifferenceMagnets</text>
</a>
</g>
</g>
<!-- Node6&#45;&gt;Node9 -->
<g id="edge9" class="edge">
<title>Node6&#45;&gt;Node9</title>
<path fill="none" stroke="midnightblue" d="M351.89,-175.4C334.87,-179.66 316.52,-184.24 299.69,-188.45"/>
<polygon fill="midnightblue" stroke="midnightblue" points="352.89,-178.76 361.74,-172.94 351.19,-171.97 352.89,-178.76"/>
</g>
<!-- Node8&#45;&gt;Node7 -->
<g id="edge8" class="edge">
<title>Node8&#45;&gt;Node7</title>
<path fill="none" stroke="midnightblue" d="M173.73,-132.1C156.75,-136.52 138.59,-141.25 122.21,-145.52"/>
<polygon fill="midnightblue" stroke="midnightblue" points="174.77,-135.45 183.56,-129.54 173,-128.68 174.77,-135.45"/>
</g>
<!-- Node9&#45;&gt;Node7 -->
<g id="edge10" class="edge">
<title>Node9&#45;&gt;Node7</title>
<path fill="none" stroke="midnightblue" d="M170.05,-185.94C154.15,-181.8 137.42,-177.44 122.23,-173.49"/>
<polygon fill="midnightblue" stroke="midnightblue" points="169.25,-189.35 179.81,-188.48 171.02,-182.57 169.25,-189.35"/>
</g>
<!-- Node11 -->
<g id="node11" class="node">
<title>Node11</title>
<g id="a_node11"><a xlink:href="../../dd/d00/class_export_s_t_l_tool.html#a218420198ac8fef5b9f9a8acc889307d" target="_top" xlink:title=" ">
<polygon fill="white" stroke="black" points="356,-527 356,-546 477,-546 477,-527 356,-527"/>
<text text-anchor="middle" x="416.5" y="-534" font-family="Helvetica,sans-Serif" font-size="10.00">ExportSTLTool::execute</text>
</a>
</g>
</g>
<!-- Node10&#45;&gt;Node11 -->
<g id="edge12" class="edge">
<title>Node10&#45;&gt;Node11</title>
<path fill="none" stroke="midnightblue" d="M575.23,-428.76C559.41,-452.82 528.35,-494.73 491,-517.5 484.59,-521.41 477.38,-524.52 470.06,-527"/>
<polygon fill="midnightblue" stroke="midnightblue" points="578.25,-430.52 580.7,-420.22 572.36,-426.75 578.25,-430.52"/>
</g>
<!-- Node13 -->
<g id="node13" class="node">
<title>Node13</title>
<g id="a_node13"><a xlink:href="../../d9/dc6/class_main_window.html#a6e3c9bc26115fb1b1664607e58716641" target="_top" xlink:title=" ">
<polygon fill="white" stroke="black" points="343.5,-341 343.5,-360 489.5,-360 489.5,-341 343.5,-341"/>
<text text-anchor="middle" x="416.5" y="-348" font-family="Helvetica,sans-Serif" font-size="10.00">MainWindow::slotImportMesh</text>
</a>
</g>
</g>
<!-- Node12&#45;&gt;Node13 -->
<g id="edge14" class="edge">
<title>Node12&#45;&gt;Node13</title>
<path fill="none" stroke="midnightblue" d="M516.87,-350.5C507.87,-350.5 498.63,-350.5 489.59,-350.5"/>
<polygon fill="midnightblue" stroke="midnightblue" points="516.92,-354 526.92,-350.5 516.92,-347 516.92,-354"/>
</g>
<!-- Node16 -->
<g id="node16" class="node">
<title>Node16</title>
<g id="a_node16"><a xlink:href="../../d9/dc6/class_main_window.html#a46bb2fea8ddeab75e15a223c291116b6" target="_top" xlink:title=" ">
<polygon fill="white" stroke="black" points="342,-291.5 342,-321.5 491,-321.5 491,-291.5 342,-291.5"/>
<text text-anchor="start" x="350" y="-309.5" font-family="Helvetica,sans-Serif" font-size="10.00">MainWindow::slotOptimization</text>
<text text-anchor="middle" x="416.5" y="-298.5" font-family="Helvetica,sans-Serif" font-size="10.00">BenchmarkBunnyLowPoly</text>
</a>
</g>
</g>
<!-- Node12&#45;&gt;Node16 -->
<g id="edge17" class="edge">
<title>Node12&#45;&gt;Node16</title>
<path fill="none" stroke="midnightblue" d="M540.04,-338.4C520.05,-333.2 496.47,-327.06 475.36,-321.57"/>
<polygon fill="midnightblue" stroke="midnightblue" points="539.27,-341.82 549.83,-340.95 541.03,-335.05 539.27,-341.82"/>
</g>
<!-- Node17 -->
<g id="node17" class="node">
<title>Node17</title>
<g id="a_node17"><a xlink:href="../../d9/dc6/class_main_window.html#affed0fab82fd390e2762933c6dca9124" target="_top" xlink:title=" ">
<polygon fill="white" stroke="black" points="342,-242.5 342,-272.5 491,-272.5 491,-242.5 342,-242.5"/>
<text text-anchor="start" x="350" y="-260.5" font-family="Helvetica,sans-Serif" font-size="10.00">MainWindow::slotOptimization</text>
<text text-anchor="middle" x="416.5" y="-249.5" font-family="Helvetica,sans-Serif" font-size="10.00">BenchmarkCorona</text>
</a>
</g>
</g>
<!-- Node12&#45;&gt;Node17 -->
<g id="edge19" class="edge">
<title>Node12&#45;&gt;Node17</title>
<path fill="none" stroke="midnightblue" d="M563.85,-335.21C552.68,-327.59 539.05,-318.17 527,-309.5 510.76,-297.82 508.69,-291.84 491,-282.5 483.97,-278.79 476.27,-275.46 468.59,-272.53"/>
<polygon fill="midnightblue" stroke="midnightblue" points="561.96,-338.16 572.2,-340.88 565.9,-332.37 561.96,-338.16"/>
</g>
<!-- Node18 -->
<g id="node18" class="node">
<title>Node18</title>
<g id="a_node18"><a xlink:href="../../d9/dc6/class_main_window.html#adfdb8fcb8685844e8ce11bfb41b83b7d" target="_top" xlink:title=" ">
<polygon fill="white" stroke="black" points="342,-193.5 342,-223.5 491,-223.5 491,-193.5 342,-193.5"/>
<text text-anchor="start" x="350" y="-211.5" font-family="Helvetica,sans-Serif" font-size="10.00">MainWindow::slotOptimization</text>
<text text-anchor="middle" x="416.5" y="-200.5" font-family="Helvetica,sans-Serif" font-size="10.00">BenchmarkCthulhu</text>
</a>
</g>
</g>
<!-- Node12&#45;&gt;Node18 -->
<g id="edge21" class="edge">
<title>Node12&#45;&gt;Node18</title>
<path fill="none" stroke="midnightblue" d="M558.82,-335.69C547.87,-328.83 535.83,-319.88 527,-309.5 502.78,-281.03 518.9,-258.37 491,-233.5 486.67,-229.64 481.73,-226.38 476.49,-223.61"/>
<polygon fill="midnightblue" stroke="midnightblue" points="557.27,-338.85 567.66,-340.96 560.85,-332.83 557.27,-338.85"/>
</g>
<!-- Node19 -->
<g id="node19" class="node">
<title>Node19</title>
<g id="a_node19"><a xlink:href="../../d9/dc6/class_main_window.html#a5283a0d7aeeafd409c69b272053f3986" target="_top" xlink:title=" ">
<polygon fill="white" stroke="black" points="342,-477.5 342,-507.5 491,-507.5 491,-477.5 342,-477.5"/>
<text text-anchor="start" x="350" y="-495.5" font-family="Helvetica,sans-Serif" font-size="10.00">MainWindow::slotOptimization</text>
<text text-anchor="middle" x="416.5" y="-484.5" font-family="Helvetica,sans-Serif" font-size="10.00">BenchmarkCube</text>
</a>
</g>
</g>
<!-- Node12&#45;&gt;Node19 -->
<g id="edge23" class="edge">
<title>Node12&#45;&gt;Node19</title>
<path fill="none" stroke="midnightblue" d="M558.79,-365.28C547.84,-372.15 535.8,-381.1 527,-391.5 502.59,-420.34 519.29,-443.46 491,-468.5 487.08,-471.97 482.65,-474.94 477.95,-477.48"/>
<polygon fill="midnightblue" stroke="midnightblue" points="560.83,-368.14 567.63,-360.02 557.25,-362.13 560.83,-368.14"/>
</g>
<!-- Node20 -->
<g id="node20" class="node">
<title>Node20</title>
<g id="a_node20"><a xlink:href="../../d9/dc6/class_main_window.html#a0c92ca2d04a79a1580c2e8e136b82682" target="_top" xlink:title=" ">
<polygon fill="white" stroke="black" points="342,-428.5 342,-458.5 491,-458.5 491,-428.5 342,-428.5"/>
<text text-anchor="start" x="350" y="-446.5" font-family="Helvetica,sans-Serif" font-size="10.00">MainWindow::slotOptimization</text>
<text text-anchor="middle" x="416.5" y="-435.5" font-family="Helvetica,sans-Serif" font-size="10.00">BenchmarkSphere</text>
</a>
</g>
</g>
<!-- Node12&#45;&gt;Node20 -->
<g id="edge25" class="edge">
<title>Node12&#45;&gt;Node20</title>
<path fill="none" stroke="midnightblue" d="M563.78,-365.7C552.6,-373.3 538.98,-382.73 527,-391.5 510.65,-403.48 508.9,-409.99 491,-419.5 484.72,-422.84 477.89,-425.82 471,-428.46"/>
<polygon fill="midnightblue" stroke="midnightblue" points="565.83,-368.55 572.15,-360.05 561.91,-362.75 565.83,-368.55"/>
</g>
<!-- Node21 -->
<g id="node21" class="node">
<title>Node21</title>
<g id="a_node21"><a xlink:href="../../d9/dc6/class_main_window.html#a86cd359f80311725589d0861dd7a9851" target="_top" xlink:title=" ">
<polygon fill="white" stroke="black" points="342,-379.5 342,-409.5 491,-409.5 491,-379.5 342,-379.5"/>
<text text-anchor="start" x="350" y="-397.5" font-family="Helvetica,sans-Serif" font-size="10.00">MainWindow::slotOptimization</text>
<text text-anchor="middle" x="416.5" y="-386.5" font-family="Helvetica,sans-Serif" font-size="10.00">BenchmarkUChannel</text>
</a>
</g>
</g>
<!-- Node12&#45;&gt;Node21 -->
<g id="edge27" class="edge">
<title>Node12&#45;&gt;Node21</title>
<path fill="none" stroke="midnightblue" d="M540.04,-362.6C520.05,-367.8 496.47,-373.94 475.36,-379.43"/>
<polygon fill="midnightblue" stroke="midnightblue" points="541.03,-365.95 549.83,-360.05 539.27,-359.18 541.03,-365.95"/>
</g>
<!-- Node14 -->
<g id="node14" class="node">
<title>Node14</title>
<g id="a_node14"><a xlink:href="../../d9/dc6/class_main_window.html#a33dddfc15db4053f9117728538e7ece4" target="_top" xlink:title="Set up qt specific signal and slots part for enabling user interaction.">
<polygon fill="white" stroke="black" points="171,-335.5 171,-365.5 306,-365.5 306,-335.5 171,-335.5"/>
<text text-anchor="start" x="179" y="-353.5" font-family="Helvetica,sans-Serif" font-size="10.00">MainWindow::setupSignals</text>
<text text-anchor="middle" x="238.5" y="-342.5" font-family="Helvetica,sans-Serif" font-size="10.00">AndSlots</text>
</a>
</g>
</g>
<!-- Node13&#45;&gt;Node14 -->
<g id="edge15" class="edge">
<title>Node13&#45;&gt;Node14</title>
<path fill="none" stroke="midnightblue" d="M333.21,-350.5C324.12,-350.5 314.96,-350.5 306.1,-350.5"/>
<polygon fill="midnightblue" stroke="midnightblue" points="333.41,-354 343.41,-350.5 333.41,-347 333.41,-354"/>
</g>
<!-- Node15 -->
<g id="node15" class="node">
<title>Node15</title>
<g id="a_node15"><a xlink:href="../../d9/dc6/class_main_window.html#a996c5a2b6f77944776856f08ec30858d" target="_top" xlink:title=" ">
<polygon fill="white" stroke="black" points="0,-341 0,-360 135,-360 135,-341 0,-341"/>
<text text-anchor="middle" x="67.5" y="-348" font-family="Helvetica,sans-Serif" font-size="10.00">MainWindow::MainWindow</text>
</a>
</g>
</g>
<!-- Node14&#45;&gt;Node15 -->
<g id="edge16" class="edge">
<title>Node14&#45;&gt;Node15</title>
<path fill="none" stroke="midnightblue" d="M160.45,-350.5C151.98,-350.5 143.41,-350.5 135.08,-350.5"/>
<polygon fill="midnightblue" stroke="midnightblue" points="160.71,-354 170.71,-350.5 160.71,-347 160.71,-354"/>
</g>
<!-- Node16&#45;&gt;Node14 -->
<g id="edge18" class="edge">
<title>Node16&#45;&gt;Node14</title>
<path fill="none" stroke="midnightblue" d="M345.56,-323.99C330.35,-327.79 314.39,-331.78 299.6,-335.47"/>
<polygon fill="midnightblue" stroke="midnightblue" points="346.57,-327.34 355.42,-321.52 344.87,-320.55 346.57,-327.34"/>
</g>
<!-- Node17&#45;&gt;Node14 -->
<g id="edge20" class="edge">
<title>Node17&#45;&gt;Node14</title>
<path fill="none" stroke="midnightblue" d="M355.68,-276.38C350.99,-278.3 346.38,-280.35 342,-282.5 311.34,-297.57 278.96,-320.37 258.99,-335.34"/>
<polygon fill="midnightblue" stroke="midnightblue" points="357.33,-279.5 365.37,-272.61 354.79,-272.97 357.33,-279.5"/>
</g>
<!-- Node18&#45;&gt;Node14 -->
<g id="edge22" class="edge">
<title>Node18&#45;&gt;Node14</title>
<path fill="none" stroke="midnightblue" d="M351.28,-228C348.06,-229.7 344.95,-231.53 342,-233.5 300.25,-261.43 265.06,-310.54 248.94,-335.31"/>
<polygon fill="midnightblue" stroke="midnightblue" points="353.06,-231.03 360.58,-223.57 350.05,-224.71 353.06,-231.03"/>
</g>
<!-- Node19&#45;&gt;Node14 -->
<g id="edge24" class="edge">
<title>Node19&#45;&gt;Node14</title>
<path fill="none" stroke="midnightblue" d="M349.55,-473.01C346.94,-471.6 344.41,-470.1 342,-468.5 299.94,-440.6 264.89,-390.95 248.87,-365.89"/>
<polygon fill="midnightblue" stroke="midnightblue" points="348.13,-476.21 358.65,-477.44 351.19,-469.92 348.13,-476.21"/>
</g>
<!-- Node20&#45;&gt;Node14 -->
<g id="edge26" class="edge">
<title>Node20&#45;&gt;Node14</title>
<path fill="none" stroke="midnightblue" d="M353.83,-424.78C349.78,-423.12 345.8,-421.35 342,-419.5 310.96,-404.35 278.42,-380.97 258.55,-365.7"/>
<polygon fill="midnightblue" stroke="midnightblue" points="352.79,-428.13 363.38,-428.48 355.32,-421.6 352.79,-428.13"/>
</g>
<!-- Node21&#45;&gt;Node14 -->
<g id="edge28" class="edge">
<title>Node21&#45;&gt;Node14</title>
<path fill="none" stroke="midnightblue" d="M345.56,-377.01C330.35,-373.21 314.39,-369.22 299.6,-365.53"/>
<polygon fill="midnightblue" stroke="midnightblue" points="344.87,-380.45 355.42,-379.48 346.57,-373.66 344.87,-380.45"/>
</g>
<!-- Node22&#45;&gt;Node23 -->
<g id="edge30" class="edge">
<title>Node22&#45;&gt;Node23</title>
<path fill="none" stroke="midnightblue" d="M832.58,-328.5C824.01,-328.5 815.41,-328.5 807.13,-328.5"/>
<polygon fill="midnightblue" stroke="midnightblue" points="832.58,-332 842.58,-328.5 832.58,-325 832.58,-332"/>
</g>
<!-- Node23&#45;&gt;Node5 -->
<g id="edge31" class="edge">
<title>Node23&#45;&gt;Node5</title>
<path fill="none" stroke="midnightblue" d="M681.35,-310.69C668.22,-306.98 654.51,-303.12 641.77,-299.53"/>
<polygon fill="midnightblue" stroke="midnightblue" points="680.68,-314.13 691.25,-313.48 682.58,-307.4 680.68,-314.13"/>
</g>
<!-- Node23&#45;&gt;Node10 -->
<g id="edge32" class="edge">
<title>Node23&#45;&gt;Node10</title>
<path fill="none" stroke="midnightblue" d="M706.88,-348.27C675.16,-364.95 631.14,-388.09 606.7,-400.94"/>
<polygon fill="midnightblue" stroke="midnightblue" points="708.66,-351.29 715.89,-343.54 705.41,-345.09 708.66,-351.29"/>
</g>
<!-- Node23&#45;&gt;Node12 -->
<g id="edge33" class="edge">
<title>Node23&#45;&gt;Node12</title>
<path fill="none" stroke="midnightblue" d="M673.75,-338.48C665.17,-339.69 656.47,-340.92 648.07,-342.1"/>
<polygon fill="midnightblue" stroke="midnightblue" points="674.33,-341.93 683.74,-337.07 673.35,-335 674.33,-341.93"/>
</g>
<!-- Node24&#45;&gt;Node23 -->
<g id="edge35" class="edge">
<title>Node24&#45;&gt;Node23</title>
<path fill="none" stroke="midnightblue" d="M874.95,-260.41C844.61,-276.49 802.55,-298.79 774.94,-313.42"/>
<polygon fill="midnightblue" stroke="midnightblue" points="876.77,-263.4 883.96,-255.63 873.49,-257.22 876.77,-263.4"/>
</g>
<!-- Node27 -->
<g id="node27" class="node">
<title>Node27</title>
<g id="a_node27"><a xlink:href="../../d9/d69/class_t___m_e_s_h_1_1mc__grid.html#acab069f805e6c473afb4e340d3d8d1ae" target="_top" xlink:title="&lt; AMF_CHANGE &#45; since T_MESH 2.4&#45;2 &gt;">
<polygon fill="white" stroke="black" points="845.5,-72 845.5,-91 981.5,-91 981.5,-72 845.5,-72"/>
<text text-anchor="middle" x="913.5" y="-79" font-family="Helvetica,sans-Serif" font-size="10.00">T_MESH::mc_grid::remesh</text>
</a>
</g>
</g>
<!-- Node26&#45;&gt;Node27 -->
<g id="edge39" class="edge">
<title>Node26&#45;&gt;Node27</title>
<path fill="none" stroke="midnightblue" d="M1009.59,-93.09C1000.18,-91.94 990.7,-90.79 981.56,-89.67"/>
<polygon fill="midnightblue" stroke="midnightblue" points="1009.41,-96.59 1019.76,-94.33 1010.26,-89.65 1009.41,-96.59"/>
</g>
<!-- Node28&#45;&gt;Node24 -->
<g id="edge41" class="edge">
<title>Node28&#45;&gt;Node24</title>
<path fill="none" stroke="midnightblue" d="M1015.83,-240.5C1005.15,-240.5 994.26,-240.5 983.77,-240.5"/>
<polygon fill="midnightblue" stroke="midnightblue" points="1015.99,-244 1025.99,-240.5 1015.99,-237 1015.99,-244"/>
</g>
<!-- Node29&#45;&gt;Node27 -->
<g id="edge43" class="edge">
<title>Node29&#45;&gt;Node27</title>
<path fill="none" stroke="midnightblue" d="M1017.03,-69C1005.27,-70.44 993.22,-71.91 981.7,-73.31"/>
<polygon fill="midnightblue" stroke="midnightblue" points="1017.77,-72.44 1027.27,-67.75 1016.92,-65.49 1017.77,-72.44"/>
</g>
</g>
</svg>
