<?xml version="1.0" encoding="UTF-8" standalone="no"?>
<!DOCTYPE svg PUBLIC "-//W3C//DTD SVG 1.1//EN"
 "http://www.w3.org/Graphics/SVG/1.1/DTD/svg11.dtd">
<!-- Generated by graphviz version 2.44.1 (0)
 -->
<!-- Title: T_MESH::Basic_TMesh::unlinkTriangleNoManifold Pages: 1 -->
<svg width="334pt" height="66pt"
 viewBox="0.00 0.00 334.00 66.00" xmlns="http://www.w3.org/2000/svg" xmlns:xlink="http://www.w3.org/1999/xlink">
<g id="graph0" class="graph" transform="scale(1 1) rotate(0) translate(4 62)">
<title>T_MESH::Basic_TMesh::unlinkTriangleNoManifold</title>
<polygon fill="white" stroke="transparent" points="-4,4 -4,-62 330,-62 330,4 -4,4"/>
<!-- Node1 -->
<g id="node1" class="node">
<title>Node1</title>
<g id="a_node1"><a xlink:title="Unlinks a triangle from the mesh. O(1).">
<polygon fill="#bfbfbf" stroke="black" points="0,-14 0,-44 132,-44 132,-14 0,-14"/>
<text text-anchor="start" x="8" y="-32" font-family="Helvetica,sans-Serif" font-size="10.00">T_MESH::Basic_TMesh</text>
<text text-anchor="middle" x="66" y="-21" font-family="Helvetica,sans-Serif" font-size="10.00">::unlinkTriangleNoManifold</text>
</a>
</g>
</g>
<!-- Node2 -->
<g id="node2" class="node">
<title>Node2</title>
<g id="a_node2"><a xlink:href="../../da/da2/class_t___m_e_s_h_1_1_edge.html#a7dc1e391013579708d070b01478d3159" target="_top" xlink:title="TRUE iff edge is isolated (i.e., both the two incident triangles are NULL).">
<polygon fill="white" stroke="black" points="180,-38.5 180,-57.5 314,-57.5 314,-38.5 180,-38.5"/>
<text text-anchor="middle" x="247" y="-45.5" font-family="Helvetica,sans-Serif" font-size="10.00">T_MESH::Edge::isIsolated</text>
</a>
</g>
</g>
<!-- Node1&#45;&gt;Node2 -->
<g id="edge1" class="edge">
<title>Node1&#45;&gt;Node2</title>
<path fill="none" stroke="midnightblue" d="M132.13,-35.91C144.36,-37.21 157.24,-38.58 169.77,-39.91"/>
<polygon fill="midnightblue" stroke="midnightblue" points="169.4,-43.39 179.72,-40.96 170.14,-36.43 169.4,-43.39"/>
</g>
<!-- Node3 -->
<g id="node3" class="node">
<title>Node3</title>
<g id="a_node3"><a xlink:href="../../da/da2/class_t___m_e_s_h_1_1_edge.html#a96d7a013a37e724352108c9fac25bbf5" target="_top" xlink:title="Replace incident triangle &#39;a&#39; with &#39;b&#39; and return TRUE. If &#39;a&#39; is not incident to the edge return FAL...">
<polygon fill="white" stroke="black" points="168,-0.5 168,-19.5 326,-19.5 326,-0.5 168,-0.5"/>
<text text-anchor="middle" x="247" y="-7.5" font-family="Helvetica,sans-Serif" font-size="10.00">T_MESH::Edge::replaceTriangle</text>
</a>
</g>
</g>
<!-- Node1&#45;&gt;Node3 -->
<g id="edge2" class="edge">
<title>Node1&#45;&gt;Node3</title>
<path fill="none" stroke="midnightblue" d="M132.13,-22.09C140.46,-21.2 149.1,-20.29 157.73,-19.37"/>
<polygon fill="midnightblue" stroke="midnightblue" points="158.25,-22.83 167.83,-18.3 157.51,-15.87 158.25,-22.83"/>
</g>
</g>
</svg>
