<?xml version="1.0" encoding="UTF-8" standalone="no"?>
<!DOCTYPE svg PUBLIC "-//W3C//DTD SVG 1.1//EN"
 "http://www.w3.org/Graphics/SVG/1.1/DTD/svg11.dtd">
<!-- Generated by graphviz version 2.44.1 (0)
 -->
<!-- Title: T_MESH::Basic_TMesh::transformShell Pages: 1 -->
<svg width="506pt" height="332pt"
 viewBox="0.00 0.00 506.00 332.00" xmlns="http://www.w3.org/2000/svg" xmlns:xlink="http://www.w3.org/1999/xlink">
<g id="graph0" class="graph" transform="scale(1 1) rotate(0) translate(4 328)">
<title>T_MESH::Basic_TMesh::transformShell</title>
<polygon fill="white" stroke="transparent" points="-4,4 -4,-328 502,-328 502,4 -4,4"/>
<!-- Node1 -->
<g id="node1" class="node">
<title>Node1</title>
<g id="a_node1"><a xlink:title="Transform the vertices of the shell containing &#39;t0&#39; using the matrix m. O(S).">
<polygon fill="#bfbfbf" stroke="black" points="0,-147 0,-177 123,-177 123,-147 0,-147"/>
<text text-anchor="start" x="8" y="-165" font-family="Helvetica,sans-Serif" font-size="10.00">T_MESH::Basic_TMesh</text>
<text text-anchor="middle" x="61.5" y="-154" font-family="Helvetica,sans-Serif" font-size="10.00">::transformShell</text>
</a>
</g>
</g>
<!-- Node2 -->
<g id="node2" class="node">
<title>Node2</title>
<g id="a_node2"><a xlink:href="../../d3/d04/class_t___m_e_s_h_1_1_list.html#ae601a7e17364ce83f74ffcb6c64971ca" target="_top" xlink:title="Appends a new node storing &#39;d&#39; to the head. &#160;&#160;O(1).">
<polygon fill="white" stroke="black" points="159,-304.5 159,-323.5 299,-323.5 299,-304.5 159,-304.5"/>
<text text-anchor="middle" x="229" y="-311.5" font-family="Helvetica,sans-Serif" font-size="10.00">T_MESH::List::appendHead</text>
</a>
</g>
</g>
<!-- Node1&#45;&gt;Node2 -->
<g id="edge1" class="edge">
<title>Node1&#45;&gt;Node2</title>
<path fill="none" stroke="midnightblue" d="M69.34,-177.37C82.54,-205.21 114.21,-263.97 159,-295 161.9,-297.01 165,-298.8 168.22,-300.41"/>
<polygon fill="midnightblue" stroke="midnightblue" points="167.01,-303.7 177.57,-304.45 169.79,-297.27 167.01,-303.7"/>
</g>
<!-- Node3 -->
<g id="node3" class="node">
<title>Node3</title>
<g id="a_node3"><a xlink:href="../../d3/d04/class_t___m_e_s_h_1_1_list.html#af0e61026072f65c9ba882df526acfd2e" target="_top" xlink:title="Gets the number of elements. &#160;&#160;O(1).">
<polygon fill="white" stroke="black" points="171,-266.5 171,-285.5 287,-285.5 287,-266.5 171,-266.5"/>
<text text-anchor="middle" x="229" y="-273.5" font-family="Helvetica,sans-Serif" font-size="10.00">T_MESH::List::numels</text>
</a>
</g>
</g>
<!-- Node1&#45;&gt;Node3 -->
<g id="edge2" class="edge">
<title>Node1&#45;&gt;Node3</title>
<path fill="none" stroke="midnightblue" d="M73.82,-177.26C90.26,-198.33 122.75,-236.09 159,-257 162.86,-259.23 166.99,-261.2 171.24,-262.95"/>
<polygon fill="midnightblue" stroke="midnightblue" points="170.08,-266.25 180.68,-266.43 172.51,-259.69 170.08,-266.25"/>
</g>
<!-- Node4 -->
<g id="node4" class="node">
<title>Node4</title>
<g id="a_node4"><a xlink:href="../../d3/d04/class_t___m_e_s_h_1_1_list.html#a9701d1b3769b92b7d2a7ed6da895a863" target="_top" xlink:title="Deletes and removes the first node. Returns its data. &#160;&#160;O(1).">
<polygon fill="white" stroke="black" points="167,-228.5 167,-247.5 291,-247.5 291,-228.5 167,-228.5"/>
<text text-anchor="middle" x="229" y="-235.5" font-family="Helvetica,sans-Serif" font-size="10.00">T_MESH::List::popHead</text>
</a>
</g>
</g>
<!-- Node1&#45;&gt;Node4 -->
<g id="edge3" class="edge">
<title>Node1&#45;&gt;Node4</title>
<path fill="none" stroke="midnightblue" d="M84.23,-177.11C103.24,-189.76 131.95,-207.53 159,-219 164.71,-221.42 170.81,-223.62 176.93,-225.59"/>
<polygon fill="midnightblue" stroke="midnightblue" points="175.94,-228.95 186.53,-228.5 177.97,-222.25 175.94,-228.95"/>
</g>
<!-- Node6 -->
<g id="node6" class="node">
<title>Node6</title>
<g id="a_node6"><a xlink:href="../../d8/d6e/class_t___m_e_s_h_1_1_triangle.html#ad0c49113ef7f52e4a86959eaafc7baf9" target="_top" xlink:title="First adjacent triangle. NULL if boundary.">
<polygon fill="white" stroke="black" points="173,-190.5 173,-209.5 285,-209.5 285,-190.5 173,-190.5"/>
<text text-anchor="middle" x="229" y="-197.5" font-family="Helvetica,sans-Serif" font-size="10.00">T_MESH::Triangle::t1</text>
</a>
</g>
</g>
<!-- Node1&#45;&gt;Node6 -->
<g id="edge5" class="edge">
<title>Node1&#45;&gt;Node6</title>
<path fill="none" stroke="midnightblue" d="M123.19,-175.93C140.6,-179.93 159.43,-184.26 176.26,-188.12"/>
<polygon fill="midnightblue" stroke="midnightblue" points="175.91,-191.63 186.44,-190.46 177.48,-184.81 175.91,-191.63"/>
</g>
<!-- Node8 -->
<g id="node8" class="node">
<title>Node8</title>
<g id="a_node8"><a xlink:href="../../d8/d6e/class_t___m_e_s_h_1_1_triangle.html#a2511453b48f8c042e7aac67da3fff129" target="_top" xlink:title="Second adjacent triangle. NULL if boundary.">
<polygon fill="white" stroke="black" points="173,-152.5 173,-171.5 285,-171.5 285,-152.5 173,-152.5"/>
<text text-anchor="middle" x="229" y="-159.5" font-family="Helvetica,sans-Serif" font-size="10.00">T_MESH::Triangle::t2</text>
</a>
</g>
</g>
<!-- Node1&#45;&gt;Node8 -->
<g id="edge7" class="edge">
<title>Node1&#45;&gt;Node8</title>
<path fill="none" stroke="midnightblue" d="M123.19,-162C136,-162 149.57,-162 162.55,-162"/>
<polygon fill="midnightblue" stroke="midnightblue" points="162.8,-165.5 172.8,-162 162.8,-158.5 162.8,-165.5"/>
</g>
<!-- Node9 -->
<g id="node9" class="node">
<title>Node9</title>
<g id="a_node9"><a xlink:href="../../d8/d6e/class_t___m_e_s_h_1_1_triangle.html#a4383009f2e92ec1445cfdee5c3fa14e4" target="_top" xlink:title="Third adjacent triangle. NULL if boundary.">
<polygon fill="white" stroke="black" points="173,-114.5 173,-133.5 285,-133.5 285,-114.5 173,-114.5"/>
<text text-anchor="middle" x="229" y="-121.5" font-family="Helvetica,sans-Serif" font-size="10.00">T_MESH::Triangle::t3</text>
</a>
</g>
</g>
<!-- Node1&#45;&gt;Node9 -->
<g id="edge9" class="edge">
<title>Node1&#45;&gt;Node9</title>
<path fill="none" stroke="midnightblue" d="M123.19,-148.07C140.6,-144.07 159.43,-139.74 176.26,-135.88"/>
<polygon fill="midnightblue" stroke="midnightblue" points="177.48,-139.19 186.44,-133.54 175.91,-132.37 177.48,-139.19"/>
</g>
<!-- Node10 -->
<g id="node10" class="node">
<title>Node10</title>
<g id="a_node10"><a xlink:href="../../d8/d6e/class_t___m_e_s_h_1_1_triangle.html#aa7b9f783f2e4339083f46d25d3eecf68" target="_top" xlink:title="First vertex.">
<polygon fill="white" stroke="black" points="172,-76.5 172,-95.5 286,-95.5 286,-76.5 172,-76.5"/>
<text text-anchor="middle" x="229" y="-83.5" font-family="Helvetica,sans-Serif" font-size="10.00">T_MESH::Triangle::v1</text>
</a>
</g>
</g>
<!-- Node1&#45;&gt;Node10 -->
<g id="edge11" class="edge">
<title>Node1&#45;&gt;Node10</title>
<path fill="none" stroke="midnightblue" d="M84.23,-146.89C103.24,-134.24 131.95,-116.47 159,-105 164.71,-102.58 170.81,-100.38 176.93,-98.41"/>
<polygon fill="midnightblue" stroke="midnightblue" points="177.97,-101.75 186.53,-95.5 175.94,-95.05 177.97,-101.75"/>
</g>
<!-- Node12 -->
<g id="node12" class="node">
<title>Node12</title>
<g id="a_node12"><a xlink:href="../../d8/d6e/class_t___m_e_s_h_1_1_triangle.html#a1bf6a231440a3c73a931c1cfccfee574" target="_top" xlink:title="Second vertex.">
<polygon fill="white" stroke="black" points="172,-38.5 172,-57.5 286,-57.5 286,-38.5 172,-38.5"/>
<text text-anchor="middle" x="229" y="-45.5" font-family="Helvetica,sans-Serif" font-size="10.00">T_MESH::Triangle::v2</text>
</a>
</g>
</g>
<!-- Node1&#45;&gt;Node12 -->
<g id="edge13" class="edge">
<title>Node1&#45;&gt;Node12</title>
<path fill="none" stroke="midnightblue" d="M73.82,-146.74C90.26,-125.67 122.75,-87.91 159,-67 162.86,-64.77 166.99,-62.8 171.24,-61.05"/>
<polygon fill="midnightblue" stroke="midnightblue" points="172.51,-64.31 180.68,-57.57 170.08,-57.75 172.51,-64.31"/>
</g>
<!-- Node13 -->
<g id="node13" class="node">
<title>Node13</title>
<g id="a_node13"><a xlink:href="../../d8/d6e/class_t___m_e_s_h_1_1_triangle.html#a0c4c2a2ba6b0c975aa3d260f00785e8f" target="_top" xlink:title="Third vertex.">
<polygon fill="white" stroke="black" points="172,-0.5 172,-19.5 286,-19.5 286,-0.5 172,-0.5"/>
<text text-anchor="middle" x="229" y="-7.5" font-family="Helvetica,sans-Serif" font-size="10.00">T_MESH::Triangle::v3</text>
</a>
</g>
</g>
<!-- Node1&#45;&gt;Node13 -->
<g id="edge15" class="edge">
<title>Node1&#45;&gt;Node13</title>
<path fill="none" stroke="midnightblue" d="M69.34,-146.63C82.54,-118.79 114.21,-60.03 159,-29 161.9,-26.99 165,-25.2 168.22,-23.59"/>
<polygon fill="midnightblue" stroke="midnightblue" points="169.79,-26.73 177.57,-19.55 167.01,-20.3 169.79,-26.73"/>
</g>
<!-- Node5 -->
<g id="node5" class="node">
<title>Node5</title>
<g id="a_node5"><a xlink:href="../../d3/d04/class_t___m_e_s_h_1_1_list.html#aec091d7c66b66c92fe56f06f41f448f4" target="_top" xlink:title="Deletes and removes the node &#39;n&#39; from the list. &#160;&#160;O(1).">
<polygon fill="white" stroke="black" points="349.5,-228.5 349.5,-247.5 483.5,-247.5 483.5,-228.5 349.5,-228.5"/>
<text text-anchor="middle" x="416.5" y="-235.5" font-family="Helvetica,sans-Serif" font-size="10.00">T_MESH::List::removeCell</text>
</a>
</g>
</g>
<!-- Node4&#45;&gt;Node5 -->
<g id="edge4" class="edge">
<title>Node4&#45;&gt;Node5</title>
<path fill="none" stroke="midnightblue" d="M291.25,-238C306.49,-238 323.01,-238 338.88,-238"/>
<polygon fill="midnightblue" stroke="midnightblue" points="339.2,-241.5 349.2,-238 339.2,-234.5 339.2,-241.5"/>
</g>
<!-- Node7 -->
<g id="node7" class="node">
<title>Node7</title>
<g id="a_node7"><a xlink:href="../../da/da2/class_t___m_e_s_h_1_1_edge.html#a295cf6f1ac996ea5e760c2bbd590c513" target="_top" xlink:title="Incident triangle opposite to &#39;t&#39;. NULL if &#39;t&#39; is not incident to the edge.">
<polygon fill="white" stroke="black" points="335,-152.5 335,-171.5 498,-171.5 498,-152.5 335,-152.5"/>
<text text-anchor="middle" x="416.5" y="-159.5" font-family="Helvetica,sans-Serif" font-size="10.00">T_MESH::Edge::oppositeTriangle</text>
</a>
</g>
</g>
<!-- Node6&#45;&gt;Node7 -->
<g id="edge6" class="edge">
<title>Node6&#45;&gt;Node7</title>
<path fill="none" stroke="midnightblue" d="M276.81,-190.41C301.84,-185.28 332.84,-178.93 359.18,-173.54"/>
<polygon fill="midnightblue" stroke="midnightblue" points="359.93,-176.96 369.03,-171.52 358.53,-170.1 359.93,-176.96"/>
</g>
<!-- Node8&#45;&gt;Node7 -->
<g id="edge8" class="edge">
<title>Node8&#45;&gt;Node7</title>
<path fill="none" stroke="midnightblue" d="M285.15,-162C297.58,-162 311.09,-162 324.55,-162"/>
<polygon fill="midnightblue" stroke="midnightblue" points="324.81,-165.5 334.81,-162 324.81,-158.5 324.81,-165.5"/>
</g>
<!-- Node9&#45;&gt;Node7 -->
<g id="edge10" class="edge">
<title>Node9&#45;&gt;Node7</title>
<path fill="none" stroke="midnightblue" d="M276.81,-133.59C301.84,-138.72 332.84,-145.07 359.18,-150.46"/>
<polygon fill="midnightblue" stroke="midnightblue" points="358.53,-153.9 369.03,-152.48 359.93,-147.04 358.53,-153.9"/>
</g>
<!-- Node11 -->
<g id="node11" class="node">
<title>Node11</title>
<g id="a_node11"><a xlink:href="../../da/da2/class_t___m_e_s_h_1_1_edge.html#a560eca8895471f987bd3228b13c40052" target="_top" xlink:title="Vertex shared with edge &#39;b&#39;. NULL if this and &#39;b&#39; do not share any vertex.">
<polygon fill="white" stroke="black" points="338,-38.5 338,-57.5 495,-57.5 495,-38.5 338,-38.5"/>
<text text-anchor="middle" x="416.5" y="-45.5" font-family="Helvetica,sans-Serif" font-size="10.00">T_MESH::Edge::commonVertex</text>
</a>
</g>
</g>
<!-- Node10&#45;&gt;Node11 -->
<g id="edge12" class="edge">
<title>Node10&#45;&gt;Node11</title>
<path fill="none" stroke="midnightblue" d="M276.81,-76.41C301.84,-71.28 332.84,-64.93 359.18,-59.54"/>
<polygon fill="midnightblue" stroke="midnightblue" points="359.93,-62.96 369.03,-57.52 358.53,-56.1 359.93,-62.96"/>
</g>
<!-- Node12&#45;&gt;Node11 -->
<g id="edge14" class="edge">
<title>Node12&#45;&gt;Node11</title>
<path fill="none" stroke="midnightblue" d="M286.16,-48C299.29,-48 313.58,-48 327.72,-48"/>
<polygon fill="midnightblue" stroke="midnightblue" points="327.97,-51.5 337.97,-48 327.97,-44.5 327.97,-51.5"/>
</g>
<!-- Node13&#45;&gt;Node11 -->
<g id="edge16" class="edge">
<title>Node13&#45;&gt;Node11</title>
<path fill="none" stroke="midnightblue" d="M276.81,-19.59C301.84,-24.72 332.84,-31.07 359.18,-36.46"/>
<polygon fill="midnightblue" stroke="midnightblue" points="358.53,-39.9 369.03,-38.48 359.93,-33.04 358.53,-39.9"/>
</g>
</g>
</svg>
