<?xml version="1.0" encoding="UTF-8" standalone="no"?>
<!DOCTYPE svg PUBLIC "-//W3C//DTD SVG 1.1//EN"
 "http://www.w3.org/Graphics/SVG/1.1/DTD/svg11.dtd">
<!-- Generated by graphviz version 2.44.1 (0)
 -->
<!-- Title: T_MESH::Basic_TMesh::sharpEdgeTagging Pages: 1 -->
<svg width="1012pt" height="142pt"
 viewBox="0.00 0.00 1012.00 142.00" xmlns="http://www.w3.org/2000/svg" xmlns:xlink="http://www.w3.org/1999/xlink">
<g id="graph0" class="graph" transform="scale(1 1) rotate(0) translate(4 138)">
<title>T_MESH::Basic_TMesh::sharpEdgeTagging</title>
<polygon fill="white" stroke="transparent" points="-4,4 -4,-138 1008,-138 1008,4 -4,4"/>
<!-- Node1 -->
<g id="node1" class="node">
<title>Node1</title>
<g id="a_node1"><a xlink:title="Tag sharp edges based on threshold angle. O(N).">
<polygon fill="#bfbfbf" stroke="black" points="0,-52 0,-82 123,-82 123,-52 0,-52"/>
<text text-anchor="start" x="8" y="-70" font-family="Helvetica,sans-Serif" font-size="10.00">T_MESH::Basic_TMesh</text>
<text text-anchor="middle" x="61.5" y="-59" font-family="Helvetica,sans-Serif" font-size="10.00">::sharpEdgeTagging</text>
</a>
</g>
</g>
<!-- Node2 -->
<g id="node2" class="node">
<title>Node2</title>
<g id="a_node2"><a xlink:href="../../da/da2/class_t___m_e_s_h_1_1_edge.html#a5fa933e3c5e84b1ddfd7e9af7c085ebf" target="_top" xlink:title="Angle between the normals of the two incident triangles.">
<polygon fill="white" stroke="black" points="159,-57.5 159,-76.5 291,-76.5 291,-57.5 159,-57.5"/>
<text text-anchor="middle" x="225" y="-64.5" font-family="Helvetica,sans-Serif" font-size="10.00">T_MESH::Edge::curvature</text>
</a>
</g>
</g>
<!-- Node1&#45;&gt;Node2 -->
<g id="edge1" class="edge">
<title>Node1&#45;&gt;Node2</title>
<path fill="none" stroke="midnightblue" d="M123.1,-67C131.46,-67 140.13,-67 148.72,-67"/>
<polygon fill="midnightblue" stroke="midnightblue" points="148.74,-70.5 158.74,-67 148.74,-63.5 148.74,-70.5"/>
</g>
<!-- Node3 -->
<g id="node3" class="node">
<title>Node3</title>
<g id="a_node3"><a xlink:href="../../d8/d6e/class_t___m_e_s_h_1_1_triangle.html#a069887e9f69d8daeb4abc9f24c008666" target="_top" xlink:title="Angle between the normal vector of this and the one of &#39;t&#39;. Return &#45;1 if one or both the triangles ar...">
<polygon fill="white" stroke="black" points="327,-57.5 327,-76.5 476,-76.5 476,-57.5 327,-57.5"/>
<text text-anchor="middle" x="401.5" y="-64.5" font-family="Helvetica,sans-Serif" font-size="10.00">T_MESH::Triangle::getDAngle</text>
</a>
</g>
</g>
<!-- Node2&#45;&gt;Node3 -->
<g id="edge2" class="edge">
<title>Node2&#45;&gt;Node3</title>
<path fill="none" stroke="midnightblue" d="M291.47,-67C299.66,-67 308.11,-67 316.52,-67"/>
<polygon fill="midnightblue" stroke="midnightblue" points="316.75,-70.5 326.75,-67 316.75,-63.5 316.75,-70.5"/>
</g>
<!-- Node4 -->
<g id="node4" class="node">
<title>Node4</title>
<g id="a_node4"><a xlink:href="../../d2/d8e/class_t___m_e_s_h_1_1_point.html#a7d19f5b5b98c1999de03da56eab91478" target="_top" xlink:title=" ">
<polygon fill="white" stroke="black" points="519.5,-104.5 519.5,-123.5 649.5,-123.5 649.5,-104.5 519.5,-104.5"/>
<text text-anchor="middle" x="584.5" y="-111.5" font-family="Helvetica,sans-Serif" font-size="10.00">T_MESH::Point::getAngle</text>
</a>
</g>
</g>
<!-- Node3&#45;&gt;Node4 -->
<g id="edge3" class="edge">
<title>Node3&#45;&gt;Node4</title>
<path fill="none" stroke="midnightblue" d="M439.13,-76.51C467.25,-83.81 506.28,-93.95 536.67,-101.84"/>
<polygon fill="midnightblue" stroke="midnightblue" points="536.06,-105.3 546.62,-104.42 537.82,-98.52 536.06,-105.3"/>
</g>
<!-- Node6 -->
<g id="node6" class="node">
<title>Node6</title>
<g id="a_node6"><a xlink:href="../../d8/d6e/class_t___m_e_s_h_1_1_triangle.html#ac657821ebb19f57ea5d92daaa3aefa34" target="_top" xlink:title="Return a vector orthogonal to the plane of the triangle. If triangle is degenerate return a null vect...">
<polygon fill="white" stroke="black" points="512,-57.5 512,-76.5 657,-76.5 657,-57.5 512,-57.5"/>
<text text-anchor="middle" x="584.5" y="-64.5" font-family="Helvetica,sans-Serif" font-size="10.00">T_MESH::Triangle::getVector</text>
</a>
</g>
</g>
<!-- Node3&#45;&gt;Node6 -->
<g id="edge5" class="edge">
<title>Node3&#45;&gt;Node6</title>
<path fill="none" stroke="midnightblue" d="M476.12,-67C484.63,-67 493.35,-67 501.96,-67"/>
<polygon fill="midnightblue" stroke="midnightblue" points="502,-70.5 512,-67 502,-63.5 502,-70.5"/>
</g>
<!-- Node11 -->
<g id="node11" class="node">
<title>Node11</title>
<g id="a_node11"><a xlink:href="../../d2/d8e/class_t___m_e_s_h_1_1_point.html#a0ac3250c48d7be19c5184d15366c8b85" target="_top" xlink:title="TRUE if vector is (0,0,0)">
<polygon fill="white" stroke="black" points="526.5,-19.5 526.5,-38.5 642.5,-38.5 642.5,-19.5 526.5,-19.5"/>
<text text-anchor="middle" x="584.5" y="-26.5" font-family="Helvetica,sans-Serif" font-size="10.00">T_MESH::Point::isNull</text>
</a>
</g>
</g>
<!-- Node3&#45;&gt;Node11 -->
<g id="edge12" class="edge">
<title>Node3&#45;&gt;Node11</title>
<path fill="none" stroke="midnightblue" d="M448.17,-57.41C472.49,-52.31 502.58,-45.99 528.21,-40.61"/>
<polygon fill="midnightblue" stroke="midnightblue" points="529.09,-44 538.15,-38.52 527.65,-37.15 529.09,-44"/>
</g>
<!-- Node5 -->
<g id="node5" class="node">
<title>Node5</title>
<g id="a_node5"><a xlink:href="../../d2/d8e/class_t___m_e_s_h_1_1_point.html#a61ce9f22ddfe41f036566d4a2f920ac4" target="_top" xlink:title="Distance from origin.">
<polygon fill="white" stroke="black" points="693,-114.5 693,-133.5 811,-133.5 811,-114.5 693,-114.5"/>
<text text-anchor="middle" x="752" y="-121.5" font-family="Helvetica,sans-Serif" font-size="10.00">T_MESH::Point::length</text>
</a>
</g>
</g>
<!-- Node4&#45;&gt;Node5 -->
<g id="edge4" class="edge">
<title>Node4&#45;&gt;Node5</title>
<path fill="none" stroke="midnightblue" d="M649.96,-117.89C660.69,-118.54 671.85,-119.22 682.67,-119.87"/>
<polygon fill="midnightblue" stroke="midnightblue" points="682.73,-123.38 692.92,-120.49 683.15,-116.39 682.73,-123.38"/>
</g>
<!-- Node7 -->
<g id="node7" class="node">
<title>Node7</title>
<g id="a_node7"><a xlink:href="../../d8/d6e/class_t___m_e_s_h_1_1_triangle.html#aa7b9f783f2e4339083f46d25d3eecf68" target="_top" xlink:title="First vertex.">
<polygon fill="white" stroke="black" points="695,-76.5 695,-95.5 809,-95.5 809,-76.5 695,-76.5"/>
<text text-anchor="middle" x="752" y="-83.5" font-family="Helvetica,sans-Serif" font-size="10.00">T_MESH::Triangle::v1</text>
</a>
</g>
</g>
<!-- Node6&#45;&gt;Node7 -->
<g id="edge6" class="edge">
<title>Node6&#45;&gt;Node7</title>
<path fill="none" stroke="midnightblue" d="M657.13,-75.22C666.33,-76.28 675.72,-77.36 684.83,-78.4"/>
<polygon fill="midnightblue" stroke="midnightblue" points="684.64,-81.9 694.98,-79.57 685.44,-74.95 684.64,-81.9"/>
</g>
<!-- Node9 -->
<g id="node9" class="node">
<title>Node9</title>
<g id="a_node9"><a xlink:href="../../d8/d6e/class_t___m_e_s_h_1_1_triangle.html#a1bf6a231440a3c73a931c1cfccfee574" target="_top" xlink:title="Second vertex.">
<polygon fill="white" stroke="black" points="695,-38.5 695,-57.5 809,-57.5 809,-38.5 695,-38.5"/>
<text text-anchor="middle" x="752" y="-45.5" font-family="Helvetica,sans-Serif" font-size="10.00">T_MESH::Triangle::v2</text>
</a>
</g>
</g>
<!-- Node6&#45;&gt;Node9 -->
<g id="edge8" class="edge">
<title>Node6&#45;&gt;Node9</title>
<path fill="none" stroke="midnightblue" d="M657.13,-58.78C666.33,-57.72 675.72,-56.64 684.83,-55.6"/>
<polygon fill="midnightblue" stroke="midnightblue" points="685.44,-59.05 694.98,-54.43 684.64,-52.1 685.44,-59.05"/>
</g>
<!-- Node10 -->
<g id="node10" class="node">
<title>Node10</title>
<g id="a_node10"><a xlink:href="../../d8/d6e/class_t___m_e_s_h_1_1_triangle.html#a0c4c2a2ba6b0c975aa3d260f00785e8f" target="_top" xlink:title="Third vertex.">
<polygon fill="white" stroke="black" points="695,-0.5 695,-19.5 809,-19.5 809,-0.5 695,-0.5"/>
<text text-anchor="middle" x="752" y="-7.5" font-family="Helvetica,sans-Serif" font-size="10.00">T_MESH::Triangle::v3</text>
</a>
</g>
</g>
<!-- Node6&#45;&gt;Node10 -->
<g id="edge10" class="edge">
<title>Node6&#45;&gt;Node10</title>
<path fill="none" stroke="midnightblue" d="M627.98,-57.4C637.65,-54.75 647.79,-51.6 657,-48 673.85,-41.41 676.34,-36.06 693,-29 698.06,-26.85 703.45,-24.8 708.83,-22.88"/>
<polygon fill="midnightblue" stroke="midnightblue" points="710.1,-26.15 718.43,-19.6 707.84,-19.52 710.1,-26.15"/>
</g>
<!-- Node8 -->
<g id="node8" class="node">
<title>Node8</title>
<g id="a_node8"><a xlink:href="../../da/da2/class_t___m_e_s_h_1_1_edge.html#a560eca8895471f987bd3228b13c40052" target="_top" xlink:title="Vertex shared with edge &#39;b&#39;. NULL if this and &#39;b&#39; do not share any vertex.">
<polygon fill="white" stroke="black" points="847,-38.5 847,-57.5 1004,-57.5 1004,-38.5 847,-38.5"/>
<text text-anchor="middle" x="925.5" y="-45.5" font-family="Helvetica,sans-Serif" font-size="10.00">T_MESH::Edge::commonVertex</text>
</a>
</g>
</g>
<!-- Node7&#45;&gt;Node8 -->
<g id="edge7" class="edge">
<title>Node7&#45;&gt;Node8</title>
<path fill="none" stroke="midnightblue" d="M796.28,-76.41C819.11,-71.35 847.32,-65.1 871.46,-59.75"/>
<polygon fill="midnightblue" stroke="midnightblue" points="872.53,-63.1 881.53,-57.52 871.01,-56.27 872.53,-63.1"/>
</g>
<!-- Node9&#45;&gt;Node8 -->
<g id="edge9" class="edge">
<title>Node9&#45;&gt;Node8</title>
<path fill="none" stroke="midnightblue" d="M809.16,-48C817.98,-48 827.28,-48 836.61,-48"/>
<polygon fill="midnightblue" stroke="midnightblue" points="836.74,-51.5 846.74,-48 836.74,-44.5 836.74,-51.5"/>
</g>
<!-- Node10&#45;&gt;Node8 -->
<g id="edge11" class="edge">
<title>Node10&#45;&gt;Node8</title>
<path fill="none" stroke="midnightblue" d="M796.28,-19.59C819.11,-24.65 847.32,-30.9 871.46,-36.25"/>
<polygon fill="midnightblue" stroke="midnightblue" points="871.01,-39.73 881.53,-38.48 872.53,-32.9 871.01,-39.73"/>
</g>
</g>
</svg>
