<?xml version="1.0" encoding="UTF-8" standalone="no"?>
<!DOCTYPE svg PUBLIC "-//W3C//DTD SVG 1.1//EN"
 "http://www.w3.org/Graphics/SVG/1.1/DTD/svg11.dtd">
<!-- Generated by graphviz version 2.44.1 (0)
 -->
<!-- Title: T_MESH::Basic_TMesh::getBoundingBallRadius Pages: 1 -->
<svg width="457pt" height="97pt"
 viewBox="0.00 0.00 457.00 96.50" xmlns="http://www.w3.org/2000/svg" xmlns:xlink="http://www.w3.org/1999/xlink">
<g id="graph0" class="graph" transform="scale(1 1) rotate(0) translate(4 92.5)">
<title>T_MESH::Basic_TMesh::getBoundingBallRadius</title>
<polygon fill="white" stroke="transparent" points="-4,4 -4,-92.5 453,-92.5 453,4 -4,4"/>
<!-- Node1 -->
<g id="node1" class="node">
<title>Node1</title>
<g id="a_node1"><a xlink:title="Approximate bounding ball radius. O(N).">
<polygon fill="#bfbfbf" stroke="black" points="0,-36 0,-66 124,-66 124,-36 0,-36"/>
<text text-anchor="start" x="8" y="-54" font-family="Helvetica,sans-Serif" font-size="10.00">T_MESH::Basic_TMesh</text>
<text text-anchor="middle" x="62" y="-43" font-family="Helvetica,sans-Serif" font-size="10.00">::getBoundingBallRadius</text>
</a>
</g>
</g>
<!-- Node2 -->
<g id="node2" class="node">
<title>Node2</title>
<g id="a_node2"><a xlink:href="../../d6/d27/class_t___m_e_s_h_1_1_basic___t_mesh.html#a0fde7560f4781428338f067e79a544ef" target="_top" xlink:title="Bounding box longest edge. &#39;b&#39; and &#39;t&#39; are set as the longest diagonal end&#45;points....">
<polygon fill="white" stroke="black" points="165.5,-58 165.5,-88 288.5,-88 288.5,-58 165.5,-58"/>
<text text-anchor="start" x="173.5" y="-76" font-family="Helvetica,sans-Serif" font-size="10.00">T_MESH::Basic_TMesh</text>
<text text-anchor="middle" x="227" y="-65" font-family="Helvetica,sans-Serif" font-size="10.00">::getBoundingBox</text>
</a>
</g>
</g>
<!-- Node1&#45;&gt;Node2 -->
<g id="edge1" class="edge">
<title>Node1&#45;&gt;Node2</title>
<path fill="none" stroke="midnightblue" d="M124.16,-59.25C134.25,-60.62 144.79,-62.04 155.1,-63.43"/>
<polygon fill="midnightblue" stroke="midnightblue" points="154.93,-66.94 165.31,-64.81 155.87,-60 154.93,-66.94"/>
</g>
<!-- Node3 -->
<g id="node3" class="node">
<title>Node3</title>
<g id="a_node3"><a xlink:href="../../d2/d8e/class_t___m_e_s_h_1_1_point.html#aad687fb125896ea8a6c53fd5d4035f10" target="_top" xlink:title="Divides the vector by its length. If isNull() the application exits with an error.">
<polygon fill="white" stroke="black" points="160,-19.5 160,-38.5 294,-38.5 294,-19.5 160,-19.5"/>
<text text-anchor="middle" x="227" y="-26.5" font-family="Helvetica,sans-Serif" font-size="10.00">T_MESH::Point::normalize</text>
</a>
</g>
</g>
<!-- Node1&#45;&gt;Node3 -->
<g id="edge2" class="edge">
<title>Node1&#45;&gt;Node3</title>
<path fill="none" stroke="midnightblue" d="M124.16,-42.75C132.53,-41.61 141.22,-40.44 149.82,-39.28"/>
<polygon fill="midnightblue" stroke="midnightblue" points="150.42,-42.73 159.86,-37.93 149.48,-35.8 150.42,-42.73"/>
</g>
<!-- Node4 -->
<g id="node4" class="node">
<title>Node4</title>
<g id="a_node4"><a xlink:href="../../de/df2/class_t___m_e_s_h_1_1_t_mesh.html#a365cdce7948e9459b819b2357b05cb72" target="_top" xlink:title=" ">
<polygon fill="white" stroke="black" points="330,-38.5 330,-57.5 449,-57.5 449,-38.5 330,-38.5"/>
<text text-anchor="middle" x="389.5" y="-45.5" font-family="Helvetica,sans-Serif" font-size="10.00">T_MESH::TMesh::error</text>
</a>
</g>
</g>
<!-- Node3&#45;&gt;Node4 -->
<g id="edge3" class="edge">
<title>Node3&#45;&gt;Node4</title>
<path fill="none" stroke="midnightblue" d="M294.21,-36.84C302.62,-37.83 311.24,-38.85 319.69,-39.85"/>
<polygon fill="midnightblue" stroke="midnightblue" points="319.54,-43.36 329.89,-41.06 320.37,-36.41 319.54,-43.36"/>
</g>
<!-- Node5 -->
<g id="node5" class="node">
<title>Node5</title>
<g id="a_node5"><a xlink:href="../../d2/d8e/class_t___m_e_s_h_1_1_point.html#a61ce9f22ddfe41f036566d4a2f920ac4" target="_top" xlink:title="Distance from origin.">
<polygon fill="white" stroke="black" points="330.5,-0.5 330.5,-19.5 448.5,-19.5 448.5,-0.5 330.5,-0.5"/>
<text text-anchor="middle" x="389.5" y="-7.5" font-family="Helvetica,sans-Serif" font-size="10.00">T_MESH::Point::length</text>
</a>
</g>
</g>
<!-- Node3&#45;&gt;Node5 -->
<g id="edge4" class="edge">
<title>Node3&#45;&gt;Node5</title>
<path fill="none" stroke="midnightblue" d="M294.21,-21.16C302.84,-20.14 311.69,-19.09 320.34,-18.07"/>
<polygon fill="midnightblue" stroke="midnightblue" points="320.88,-21.53 330.39,-16.88 320.05,-14.58 320.88,-21.53"/>
</g>
</g>
</svg>
