<?xml version="1.0" encoding="UTF-8" standalone="no"?>
<!DOCTYPE svg PUBLIC "-//W3C//DTD SVG 1.1//EN"
 "http://www.w3.org/Graphics/SVG/1.1/DTD/svg11.dtd">
<!-- Generated by graphviz version 2.44.1 (0)
 -->
<!-- Title: T_MESH::Basic_TMesh::CreateIndexedTriangle Pages: 1 -->
<svg width="1173pt" height="314pt"
 viewBox="0.00 0.00 1173.00 314.39" xmlns="http://www.w3.org/2000/svg" xmlns:xlink="http://www.w3.org/1999/xlink">
<g id="graph0" class="graph" transform="scale(1 1) rotate(0) translate(4 310.39)">
<title>T_MESH::Basic_TMesh::CreateIndexedTriangle</title>
<polygon fill="white" stroke="transparent" points="-4,4 -4,-310.39 1169,-310.39 1169,4 -4,4"/>
<!-- Node1 -->
<g id="node1" class="node">
<title>Node1</title>
<g id="a_node1"><a xlink:title=" ">
<polygon fill="#bfbfbf" stroke="black" points="0,-127.39 0,-157.39 123,-157.39 123,-127.39 0,-127.39"/>
<text text-anchor="start" x="8" y="-145.39" font-family="Helvetica,sans-Serif" font-size="10.00">T_MESH::Basic_TMesh</text>
<text text-anchor="middle" x="61.5" y="-134.39" font-family="Helvetica,sans-Serif" font-size="10.00">::CreateIndexedTriangle</text>
</a>
</g>
</g>
<!-- Node2 -->
<g id="node2" class="node">
<title>Node2</title>
<g id="a_node2"><a xlink:href="../../d6/d27/class_t___m_e_s_h_1_1_basic___t_mesh.html#a8b4a8af1afbada8096079d9bc19ee0c0" target="_top" xlink:title=" ">
<polygon fill="white" stroke="black" points="159,-127.39 159,-157.39 303,-157.39 303,-127.39 159,-127.39"/>
<text text-anchor="start" x="167" y="-145.39" font-family="Helvetica,sans-Serif" font-size="10.00">T_MESH::Basic_TMesh</text>
<text text-anchor="middle" x="231" y="-134.39" font-family="Helvetica,sans-Serif" font-size="10.00">::CreateTriangleFromVertices</text>
</a>
</g>
</g>
<!-- Node1&#45;&gt;Node2 -->
<g id="edge1" class="edge">
<title>Node1&#45;&gt;Node2</title>
<path fill="none" stroke="midnightblue" d="M123.45,-142.39C131.71,-142.39 140.31,-142.39 148.86,-142.39"/>
<polygon fill="midnightblue" stroke="midnightblue" points="148.86,-145.89 158.86,-142.39 148.86,-138.89 148.86,-145.89"/>
</g>
<!-- Node3 -->
<g id="node3" class="node">
<title>Node3</title>
<g id="a_node3"><a xlink:href="../../d6/d27/class_t___m_e_s_h_1_1_basic___t_mesh.html#a0cd2bcd2e4d1ff1cb1a78ead09e121a3" target="_top" xlink:title="Creates an Edge connecting two existing mesh vertices.">
<polygon fill="white" stroke="black" points="344.5,-149.39 344.5,-179.39 467.5,-179.39 467.5,-149.39 344.5,-149.39"/>
<text text-anchor="start" x="352.5" y="-167.39" font-family="Helvetica,sans-Serif" font-size="10.00">T_MESH::Basic_TMesh</text>
<text text-anchor="middle" x="406" y="-156.39" font-family="Helvetica,sans-Serif" font-size="10.00">::CreateEdge</text>
</a>
</g>
</g>
<!-- Node2&#45;&gt;Node3 -->
<g id="edge2" class="edge">
<title>Node2&#45;&gt;Node3</title>
<path fill="none" stroke="midnightblue" d="M303.36,-151.47C313.56,-152.76 324.04,-154.09 334.22,-155.39"/>
<polygon fill="midnightblue" stroke="midnightblue" points="333.91,-158.88 344.28,-156.67 334.8,-151.93 333.91,-158.88"/>
</g>
<!-- Node17 -->
<g id="node17" class="node">
<title>Node17</title>
<g id="a_node17"><a xlink:href="../../d6/d27/class_t___m_e_s_h_1_1_basic___t_mesh.html#ad0bd7c6b374606f5deb427751e137e99" target="_top" xlink:title="Creates an arbitrarily oriented Triangle bounded by three existing mesh edges.">
<polygon fill="white" stroke="black" points="339,-237.39 339,-267.39 473,-267.39 473,-237.39 339,-237.39"/>
<text text-anchor="start" x="347" y="-255.39" font-family="Helvetica,sans-Serif" font-size="10.00">T_MESH::Basic_TMesh</text>
<text text-anchor="middle" x="406" y="-244.39" font-family="Helvetica,sans-Serif" font-size="10.00">::CreateUnorientedTriangle</text>
</a>
</g>
</g>
<!-- Node2&#45;&gt;Node17 -->
<g id="edge18" class="edge">
<title>Node2&#45;&gt;Node17</title>
<path fill="none" stroke="midnightblue" d="M255.69,-157.45C286.02,-176.74 338.69,-210.23 372.68,-231.84"/>
<polygon fill="midnightblue" stroke="midnightblue" points="371,-234.92 381.32,-237.33 374.76,-229.01 371,-234.92"/>
</g>
<!-- Node19 -->
<g id="node19" class="node">
<title>Node19</title>
<g id="a_node19"><a xlink:href="../../d3/d04/class_t___m_e_s_h_1_1_list.html#abae9bf2ee7d8e273f990a614641b77f0" target="_top" xlink:title="Deletes and removes the node storing &#39;d&#39; and frees the memory occupied by &#39;d&#39; itself....">
<polygon fill="white" stroke="black" points="343.5,-72.89 343.5,-91.89 468.5,-91.89 468.5,-72.89 343.5,-72.89"/>
<text text-anchor="middle" x="406" y="-79.89" font-family="Helvetica,sans-Serif" font-size="10.00">T_MESH::List::freeNode</text>
</a>
</g>
</g>
<!-- Node2&#45;&gt;Node19 -->
<g id="edge21" class="edge">
<title>Node2&#45;&gt;Node19</title>
<path fill="none" stroke="midnightblue" d="M275.66,-127.25C304.18,-117.36 341.03,-104.58 368.09,-95.19"/>
<polygon fill="midnightblue" stroke="midnightblue" points="369.29,-98.48 377.59,-91.9 366.99,-91.87 369.29,-98.48"/>
</g>
<!-- Node20 -->
<g id="node20" class="node">
<title>Node20</title>
<g id="a_node20"><a xlink:href="../../d3/d04/class_t___m_e_s_h_1_1_list.html#a9b21af68dacaaf9a95e2a33ee5941e54" target="_top" xlink:title="Inserts a new node storing &#39;d&#39; right after &#39;n&#39;. &#160;&#160;O(1).">
<polygon fill="white" stroke="black" points="509,-72.89 509,-91.89 649,-91.89 649,-72.89 509,-72.89"/>
<text text-anchor="middle" x="579" y="-79.89" font-family="Helvetica,sans-Serif" font-size="10.00">T_MESH::List::removeNode</text>
</a>
</g>
</g>
<!-- Node2&#45;&gt;Node20 -->
<g id="edge24" class="edge">
<title>Node2&#45;&gt;Node20</title>
<path fill="none" stroke="midnightblue" d="M303.21,-130.48C351.21,-122.4 415.94,-111.41 473,-101.39 486.87,-98.95 501.77,-96.29 515.86,-93.75"/>
<polygon fill="midnightblue" stroke="midnightblue" points="516.73,-97.15 525.95,-91.92 515.48,-90.26 516.73,-97.15"/>
</g>
<!-- Node4 -->
<g id="node4" class="node">
<title>Node4</title>
<g id="a_node4"><a xlink:href="../../d3/d04/class_t___m_e_s_h_1_1_list.html#ae601a7e17364ce83f74ffcb6c64971ca" target="_top" xlink:title="Appends a new node storing &#39;d&#39; to the head. &#160;&#160;O(1).">
<polygon fill="white" stroke="black" points="842.5,-286.89 842.5,-305.89 982.5,-305.89 982.5,-286.89 842.5,-286.89"/>
<text text-anchor="middle" x="912.5" y="-293.89" font-family="Helvetica,sans-Serif" font-size="10.00">T_MESH::List::appendHead</text>
</a>
</g>
</g>
<!-- Node3&#45;&gt;Node4 -->
<g id="edge3" class="edge">
<title>Node3&#45;&gt;Node4</title>
<path fill="none" stroke="midnightblue" d="M465.74,-179.45C514.78,-192.07 586.51,-210.67 649,-227.39 730.04,-249.07 749.72,-256.64 831,-277.39 840.29,-279.76 850.22,-282.19 859.81,-284.48"/>
<polygon fill="midnightblue" stroke="midnightblue" points="859.11,-287.91 869.65,-286.82 860.73,-281.1 859.11,-287.91"/>
</g>
<!-- Node5 -->
<g id="node5" class="node">
<title>Node5</title>
<g id="a_node5"><a xlink:href="../../d5/d7f/class_t___m_e_s_h_1_1_vertex.html#af74a29c7daa03825b0156bfe7f64052a" target="_top" xlink:title="Returns the edge connecting this vertex to &#39;v&#39;. NULL if such an edge does not exist.">
<polygon fill="white" stroke="black" points="512.5,-110.89 512.5,-129.89 645.5,-129.89 645.5,-110.89 512.5,-110.89"/>
<text text-anchor="middle" x="579" y="-117.89" font-family="Helvetica,sans-Serif" font-size="10.00">T_MESH::Vertex::getEdge</text>
</a>
</g>
</g>
<!-- Node3&#45;&gt;Node5 -->
<g id="edge4" class="edge">
<title>Node3&#45;&gt;Node5</title>
<path fill="none" stroke="midnightblue" d="M465.37,-149.37C486.81,-143.86 510.78,-137.69 531.09,-132.46"/>
<polygon fill="midnightblue" stroke="midnightblue" points="532.22,-135.78 541.03,-129.9 530.47,-129.01 532.22,-135.78"/>
</g>
<!-- Node16 -->
<g id="node16" class="node">
<title>Node16</title>
<g id="a_node16"><a xlink:href="../../d6/d27/class_t___m_e_s_h_1_1_basic___t_mesh.html#a20469173793123e3dd41269a48602ba2" target="_top" xlink:title="AMF_ADD 1.1&gt;">
<polygon fill="white" stroke="black" points="517.5,-149.39 517.5,-179.39 640.5,-179.39 640.5,-149.39 517.5,-149.39"/>
<text text-anchor="start" x="525.5" y="-167.39" font-family="Helvetica,sans-Serif" font-size="10.00">T_MESH::Basic_TMesh</text>
<text text-anchor="middle" x="579" y="-156.39" font-family="Helvetica,sans-Serif" font-size="10.00">::newEdge</text>
</a>
</g>
</g>
<!-- Node3&#45;&gt;Node16 -->
<g id="edge17" class="edge">
<title>Node3&#45;&gt;Node16</title>
<path fill="none" stroke="midnightblue" d="M467.77,-164.39C480.5,-164.39 494.02,-164.39 507.08,-164.39"/>
<polygon fill="midnightblue" stroke="midnightblue" points="507.43,-167.89 517.43,-164.39 507.43,-160.89 507.43,-167.89"/>
</g>
<!-- Node6 -->
<g id="node6" class="node">
<title>Node6</title>
<g id="a_node6"><a xlink:href="../../da/da2/class_t___m_e_s_h_1_1_edge.html#aef981891343c94489f00b060bd654b6c" target="_top" xlink:title="Vertex opposite to &#39;v&#39;. NULL if &#39;v&#39; is not a vertex of the edge.">
<polygon fill="white" stroke="black" points="834.5,-20.89 834.5,-39.89 990.5,-39.89 990.5,-20.89 834.5,-20.89"/>
<text text-anchor="middle" x="912.5" y="-27.89" font-family="Helvetica,sans-Serif" font-size="10.00">T_MESH::Edge::oppositeVertex</text>
</a>
</g>
</g>
<!-- Node5&#45;&gt;Node6 -->
<g id="edge5" class="edge">
<title>Node5&#45;&gt;Node6</title>
<path fill="none" stroke="midnightblue" d="M614.77,-110.89C625.73,-107.87 637.87,-104.51 649,-101.39 730,-78.67 749.6,-70.61 831,-49.39 840.18,-47 849.98,-44.57 859.47,-42.3"/>
<polygon fill="midnightblue" stroke="midnightblue" points="860.29,-45.7 869.21,-39.98 858.67,-38.89 860.29,-45.7"/>
</g>
<!-- Node7 -->
<g id="node7" class="node">
<title>Node7</title>
<g id="a_node7"><a xlink:href="../../d5/d7f/class_t___m_e_s_h_1_1_vertex.html#a66b49df1416ddcee6be0e1abe3aadda9" target="_top" xlink:title="List of incident edges.">
<polygon fill="white" stroke="black" points="685,-134.89 685,-153.89 795,-153.89 795,-134.89 685,-134.89"/>
<text text-anchor="middle" x="740" y="-141.89" font-family="Helvetica,sans-Serif" font-size="10.00">T_MESH::Vertex::VE</text>
</a>
</g>
</g>
<!-- Node5&#45;&gt;Node7 -->
<g id="edge6" class="edge">
<title>Node5&#45;&gt;Node7</title>
<path fill="none" stroke="midnightblue" d="M643.3,-129.94C653.63,-131.5 664.33,-133.12 674.68,-134.68"/>
<polygon fill="midnightblue" stroke="midnightblue" points="674.48,-138.19 684.89,-136.22 675.52,-131.27 674.48,-138.19"/>
</g>
<!-- Node7&#45;&gt;Node4 -->
<g id="edge7" class="edge">
<title>Node7&#45;&gt;Node4</title>
<path fill="none" stroke="midnightblue" d="M754.47,-154.23C766.39,-163.5 783.62,-178.34 795,-194.39 818.25,-227.2 800.16,-251.59 831,-277.39 833.02,-279.08 835.17,-280.63 837.42,-282.05"/>
<polygon fill="midnightblue" stroke="midnightblue" points="836.01,-285.26 846.49,-286.87 839.3,-279.08 836.01,-285.26"/>
</g>
<!-- Node7&#45;&gt;Node6 -->
<g id="edge13" class="edge">
<title>Node7&#45;&gt;Node6</title>
<path fill="none" stroke="midnightblue" d="M749.69,-134.6C770.27,-111.51 821.01,-55.14 831,-49.39 834.89,-47.15 839.02,-45.18 843.29,-43.44"/>
<polygon fill="midnightblue" stroke="midnightblue" points="844.59,-46.69 852.79,-39.99 842.19,-40.11 844.59,-46.69"/>
</g>
<!-- Node8 -->
<g id="node8" class="node">
<title>Node8</title>
<g id="a_node8"><a xlink:href="../../d3/d04/class_t___m_e_s_h_1_1_list.html#a1b14a2838ee3745d5fb413f9e7ecc214" target="_top" xlink:title="Appends a new node storing &#39;d&#39; to the tail. &#160;&#160;O(1).">
<polygon fill="white" stroke="black" points="847,-58.89 847,-77.89 978,-77.89 978,-58.89 847,-58.89"/>
<text text-anchor="middle" x="912.5" y="-65.89" font-family="Helvetica,sans-Serif" font-size="10.00">T_MESH::List::appendTail</text>
</a>
</g>
</g>
<!-- Node7&#45;&gt;Node8 -->
<g id="edge8" class="edge">
<title>Node7&#45;&gt;Node8</title>
<path fill="none" stroke="midnightblue" d="M753.08,-134.87C769.71,-122.22 801,-100.01 831,-87.39 836.91,-84.91 843.2,-82.71 849.57,-80.78"/>
<polygon fill="midnightblue" stroke="midnightblue" points="850.91,-84.04 859.58,-77.96 849.01,-77.3 850.91,-84.04"/>
</g>
<!-- Node9 -->
<g id="node9" class="node">
<title>Node9</title>
<g id="a_node9"><a xlink:href="../../da/da2/class_t___m_e_s_h_1_1_edge.html#a96830b6d677fab318268f287682ad151" target="_top" xlink:title="Triangle on the left of the edge when looking from &#39;v&#39;. NULL if &#39;v&#39; is not a vertex of the edge.">
<polygon fill="white" stroke="black" points="842.5,-248.89 842.5,-267.89 982.5,-267.89 982.5,-248.89 842.5,-248.89"/>
<text text-anchor="middle" x="912.5" y="-255.89" font-family="Helvetica,sans-Serif" font-size="10.00">T_MESH::Edge::leftTriangle</text>
</a>
</g>
</g>
<!-- Node7&#45;&gt;Node9 -->
<g id="edge9" class="edge">
<title>Node7&#45;&gt;Node9</title>
<path fill="none" stroke="midnightblue" d="M752.21,-153.9C763.46,-163.63 781.08,-179.42 795,-194.39 812.45,-213.14 809.35,-225.7 831,-239.39 834.38,-241.53 837.99,-243.43 841.72,-245.12"/>
<polygon fill="midnightblue" stroke="midnightblue" points="840.63,-248.45 851.22,-248.88 843.21,-241.94 840.63,-248.45"/>
</g>
<!-- Node10 -->
<g id="node10" class="node">
<title>Node10</title>
<g id="a_node10"><a xlink:href="../../d3/d04/class_t___m_e_s_h_1_1_list.html#af0e61026072f65c9ba882df526acfd2e" target="_top" xlink:title="Gets the number of elements. &#160;&#160;O(1).">
<polygon fill="white" stroke="black" points="854.5,-210.89 854.5,-229.89 970.5,-229.89 970.5,-210.89 854.5,-210.89"/>
<text text-anchor="middle" x="912.5" y="-217.89" font-family="Helvetica,sans-Serif" font-size="10.00">T_MESH::List::numels</text>
</a>
</g>
</g>
<!-- Node7&#45;&gt;Node10 -->
<g id="edge10" class="edge">
<title>Node7&#45;&gt;Node10</title>
<path fill="none" stroke="midnightblue" d="M753.08,-153.91C769.71,-166.56 801,-188.77 831,-201.39 836.91,-203.87 843.2,-206.07 849.57,-208"/>
<polygon fill="midnightblue" stroke="midnightblue" points="849.01,-211.48 859.58,-210.83 850.91,-204.74 849.01,-211.48"/>
</g>
<!-- Node11 -->
<g id="node11" class="node">
<title>Node11</title>
<g id="a_node11"><a xlink:href="../../d8/d6e/class_t___m_e_s_h_1_1_triangle.html#a77cc688b97fd6501b5dca8385fce4137" target="_top" xlink:title="Triangle&#39;s edge opposite to &#39;v&#39;. NULL if &#39;v&#39; is not a vertex of the triangle.">
<polygon fill="white" stroke="black" points="831,-172.89 831,-191.89 994,-191.89 994,-172.89 831,-172.89"/>
<text text-anchor="middle" x="912.5" y="-179.89" font-family="Helvetica,sans-Serif" font-size="10.00">T_MESH::Triangle::oppositeEdge</text>
</a>
</g>
</g>
<!-- Node7&#45;&gt;Node11 -->
<g id="edge11" class="edge">
<title>Node7&#45;&gt;Node11</title>
<path fill="none" stroke="midnightblue" d="M784.02,-153.98C806.73,-159.04 834.77,-165.29 858.77,-170.64"/>
<polygon fill="midnightblue" stroke="midnightblue" points="858.26,-174.11 868.79,-172.87 859.79,-167.28 858.26,-174.11"/>
</g>
<!-- Node13 -->
<g id="node13" class="node">
<title>Node13</title>
<g id="a_node13"><a xlink:href="../../d3/d04/class_t___m_e_s_h_1_1_list.html#a9701d1b3769b92b7d2a7ed6da895a863" target="_top" xlink:title="Deletes and removes the first node. Returns its data. &#160;&#160;O(1).">
<polygon fill="white" stroke="black" points="850.5,-134.89 850.5,-153.89 974.5,-153.89 974.5,-134.89 850.5,-134.89"/>
<text text-anchor="middle" x="912.5" y="-141.89" font-family="Helvetica,sans-Serif" font-size="10.00">T_MESH::List::popHead</text>
</a>
</g>
</g>
<!-- Node7&#45;&gt;Node13 -->
<g id="edge14" class="edge">
<title>Node7&#45;&gt;Node13</title>
<path fill="none" stroke="midnightblue" d="M795.42,-144.39C809.67,-144.39 825.25,-144.39 840.24,-144.39"/>
<polygon fill="midnightblue" stroke="midnightblue" points="840.5,-147.89 850.5,-144.39 840.5,-140.89 840.5,-147.89"/>
</g>
<!-- Node15 -->
<g id="node15" class="node">
<title>Node15</title>
<g id="a_node15"><a xlink:href="../../da/da2/class_t___m_e_s_h_1_1_edge.html#aa9788a51d590116555c8a062e253a197" target="_top" xlink:title="Triangle on the right of the edge when looking from &#39;v&#39;. NULL if &#39;v&#39; is not a vertex of the edge.">
<polygon fill="white" stroke="black" points="840,-96.89 840,-115.89 985,-115.89 985,-96.89 840,-96.89"/>
<text text-anchor="middle" x="912.5" y="-103.89" font-family="Helvetica,sans-Serif" font-size="10.00">T_MESH::Edge::rightTriangle</text>
</a>
</g>
</g>
<!-- Node7&#45;&gt;Node15 -->
<g id="edge16" class="edge">
<title>Node7&#45;&gt;Node15</title>
<path fill="none" stroke="midnightblue" d="M784.02,-134.8C806.73,-129.74 834.77,-123.49 858.77,-118.14"/>
<polygon fill="midnightblue" stroke="midnightblue" points="859.79,-121.5 868.79,-115.91 858.26,-114.67 859.79,-121.5"/>
</g>
<!-- Node12 -->
<g id="node12" class="node">
<title>Node12</title>
<g id="a_node12"><a xlink:href="../../da/da2/class_t___m_e_s_h_1_1_edge.html#a7d7329ff24b7b6eb2eceee39711dd650" target="_top" xlink:title="TRUE iff &#39;v&#39; is an end&#45;point of the edge.">
<polygon fill="white" stroke="black" points="1030,-172.89 1030,-191.89 1165,-191.89 1165,-172.89 1030,-172.89"/>
<text text-anchor="middle" x="1097.5" y="-179.89" font-family="Helvetica,sans-Serif" font-size="10.00">T_MESH::Edge::hasVertex</text>
</a>
</g>
</g>
<!-- Node11&#45;&gt;Node12 -->
<g id="edge12" class="edge">
<title>Node11&#45;&gt;Node12</title>
<path fill="none" stroke="midnightblue" d="M994.03,-182.39C1002.55,-182.39 1011.2,-182.39 1019.68,-182.39"/>
<polygon fill="midnightblue" stroke="midnightblue" points="1019.92,-185.89 1029.92,-182.39 1019.92,-178.89 1019.92,-185.89"/>
</g>
<!-- Node14 -->
<g id="node14" class="node">
<title>Node14</title>
<g id="a_node14"><a xlink:href="../../d3/d04/class_t___m_e_s_h_1_1_list.html#aec091d7c66b66c92fe56f06f41f448f4" target="_top" xlink:title="Deletes and removes the node &#39;n&#39; from the list. &#160;&#160;O(1).">
<polygon fill="white" stroke="black" points="1030.5,-58.89 1030.5,-77.89 1164.5,-77.89 1164.5,-58.89 1030.5,-58.89"/>
<text text-anchor="middle" x="1097.5" y="-65.89" font-family="Helvetica,sans-Serif" font-size="10.00">T_MESH::List::removeCell</text>
</a>
</g>
</g>
<!-- Node13&#45;&gt;Node14 -->
<g id="edge15" class="edge">
<title>Node13&#45;&gt;Node14</title>
<path fill="none" stroke="midnightblue" d="M963.54,-134.84C973.77,-132.26 984.36,-129.13 994,-125.39 1022.81,-114.23 1053.49,-96.27 1073.69,-83.49"/>
<polygon fill="midnightblue" stroke="midnightblue" points="1075.67,-86.38 1082.19,-78.03 1071.88,-80.49 1075.67,-86.38"/>
</g>
<!-- Node17&#45;&gt;Node4 -->
<g id="edge19" class="edge">
<title>Node17&#45;&gt;Node4</title>
<path fill="none" stroke="midnightblue" d="M459.82,-267.39C475.53,-271.29 492.85,-275.05 509,-277.39 620.38,-293.51 750.72,-296.88 832.21,-297.15"/>
<polygon fill="midnightblue" stroke="midnightblue" points="832.38,-300.65 842.39,-297.17 832.39,-293.65 832.38,-300.65"/>
</g>
<!-- Node18 -->
<g id="node18" class="node">
<title>Node18</title>
<g id="a_node18"><a xlink:href="../../d6/d27/class_t___m_e_s_h_1_1_basic___t_mesh.html#a1fda4e2b03b24abb8784e3a1c6fb49e7" target="_top" xlink:title="AMF_ADD 1.1&gt;">
<polygon fill="white" stroke="black" points="517.5,-237.39 517.5,-267.39 640.5,-267.39 640.5,-237.39 517.5,-237.39"/>
<text text-anchor="start" x="525.5" y="-255.39" font-family="Helvetica,sans-Serif" font-size="10.00">T_MESH::Basic_TMesh</text>
<text text-anchor="middle" x="579" y="-244.39" font-family="Helvetica,sans-Serif" font-size="10.00">::newTriangle</text>
</a>
</g>
</g>
<!-- Node17&#45;&gt;Node18 -->
<g id="edge20" class="edge">
<title>Node17&#45;&gt;Node18</title>
<path fill="none" stroke="midnightblue" d="M473.11,-252.39C484.27,-252.39 495.88,-252.39 507.15,-252.39"/>
<polygon fill="midnightblue" stroke="midnightblue" points="507.38,-255.89 517.38,-252.39 507.38,-248.89 507.38,-255.89"/>
</g>
<!-- Node19&#45;&gt;Node20 -->
<g id="edge22" class="edge">
<title>Node19&#45;&gt;Node20</title>
<path fill="none" stroke="midnightblue" d="M468.73,-82.39C478.49,-82.39 488.7,-82.39 498.79,-82.39"/>
<polygon fill="midnightblue" stroke="midnightblue" points="498.82,-85.89 508.82,-82.39 498.82,-78.89 498.82,-85.89"/>
</g>
<!-- Node20&#45;&gt;Node14 -->
<g id="edge23" class="edge">
<title>Node20&#45;&gt;Node14</title>
<path fill="none" stroke="midnightblue" d="M600.5,-72.81C661.27,-45.7 845.41,27.15 994,-11.39 1024.77,-19.37 1056.12,-38.81 1075.91,-52.77"/>
<polygon fill="midnightblue" stroke="midnightblue" points="1073.99,-55.7 1084.14,-58.73 1078.1,-50.03 1073.99,-55.7"/>
</g>
</g>
</svg>
