<?xml version="1.0" encoding="UTF-8" standalone="no"?>
<!DOCTYPE svg PUBLIC "-//W3C//DTD SVG 1.1//EN"
 "http://www.w3.org/Graphics/SVG/1.1/DTD/svg11.dtd">
<!-- Generated by graphviz version 2.44.1 (0)
 -->
<!-- Title: T_MESH::Basic_TMesh::checkGeometry Pages: 1 -->
<svg width="889pt" height="527pt"
 viewBox="0.00 0.00 889.00 526.95" xmlns="http://www.w3.org/2000/svg" xmlns:xlink="http://www.w3.org/1999/xlink">
<g id="graph0" class="graph" transform="scale(1 1) rotate(0) translate(4 522.95)">
<title>T_MESH::Basic_TMesh::checkGeometry</title>
<polygon fill="white" stroke="transparent" points="-4,4 -4,-522.95 885,-522.95 885,4 -4,4"/>
<!-- Node1 -->
<g id="node1" class="node">
<title>Node1</title>
<g id="a_node1"><a xlink:title="Checks the mesh for degeneracies, concident vertices and overlaps.">
<polygon fill="#bfbfbf" stroke="black" points="0,-223 0,-253 123,-253 123,-223 0,-223"/>
<text text-anchor="start" x="8" y="-241" font-family="Helvetica,sans-Serif" font-size="10.00">T_MESH::Basic_TMesh</text>
<text text-anchor="middle" x="61.5" y="-230" font-family="Helvetica,sans-Serif" font-size="10.00">::checkGeometry</text>
</a>
</g>
</g>
<!-- Node2 -->
<g id="node2" class="node">
<title>Node2</title>
<g id="a_node2"><a xlink:href="../../d8/d6e/class_t___m_e_s_h_1_1_triangle.html#a571efd48d91c2b1cb1ec13d31f1dd7bf" target="_top" xlink:title="Angle at vertex &#39;v&#39;. Return &#45;1 if &#39;v&#39; is not a vertex of the triangle.">
<polygon fill="white" stroke="black" points="345.5,-418.5 345.5,-437.5 487.5,-437.5 487.5,-418.5 345.5,-418.5"/>
<text text-anchor="middle" x="416.5" y="-425.5" font-family="Helvetica,sans-Serif" font-size="10.00">T_MESH::Triangle::getAngle</text>
</a>
</g>
</g>
<!-- Node1&#45;&gt;Node2 -->
<g id="edge1" class="edge">
<title>Node1&#45;&gt;Node2</title>
<path fill="none" stroke="midnightblue" d="M69.62,-253.35C83.05,-280.53 114.8,-336.98 159,-366 211.62,-400.55 281.64,-415.87 335.23,-422.65"/>
<polygon fill="midnightblue" stroke="midnightblue" points="335.03,-426.15 345.37,-423.86 335.86,-419.2 335.03,-426.15"/>
</g>
<!-- Node5 -->
<g id="node5" class="node">
<title>Node5</title>
<g id="a_node5"><a xlink:href="../../d8/d6e/class_t___m_e_s_h_1_1_triangle.html#aa7b9f783f2e4339083f46d25d3eecf68" target="_top" xlink:title="First vertex.">
<polygon fill="white" stroke="black" points="549.5,-380.5 549.5,-399.5 663.5,-399.5 663.5,-380.5 549.5,-380.5"/>
<text text-anchor="middle" x="606.5" y="-387.5" font-family="Helvetica,sans-Serif" font-size="10.00">T_MESH::Triangle::v1</text>
</a>
</g>
</g>
<!-- Node1&#45;&gt;Node5 -->
<g id="edge37" class="edge">
<title>Node1&#45;&gt;Node5</title>
<path fill="none" stroke="midnightblue" d="M82.39,-253.03C101.12,-266.36 130.48,-285.18 159,-295 298.85,-343.15 354.92,-275.57 489,-338 508.68,-347.16 505.82,-360.85 525,-371 529.56,-373.42 534.43,-375.53 539.43,-377.37"/>
<polygon fill="midnightblue" stroke="midnightblue" points="538.57,-380.77 549.16,-380.6 540.77,-374.13 538.57,-380.77"/>
</g>
<!-- Node7 -->
<g id="node7" class="node">
<title>Node7</title>
<g id="a_node7"><a xlink:href="../../d8/d6e/class_t___m_e_s_h_1_1_triangle.html#a1bf6a231440a3c73a931c1cfccfee574" target="_top" xlink:title="Second vertex.">
<polygon fill="white" stroke="black" points="549.5,-418.5 549.5,-437.5 663.5,-437.5 663.5,-418.5 549.5,-418.5"/>
<text text-anchor="middle" x="606.5" y="-425.5" font-family="Helvetica,sans-Serif" font-size="10.00">T_MESH::Triangle::v2</text>
</a>
</g>
</g>
<!-- Node1&#45;&gt;Node7 -->
<g id="edge38" class="edge">
<title>Node1&#45;&gt;Node7</title>
<path fill="none" stroke="midnightblue" d="M75.84,-253.19C93.07,-271.74 124.91,-302.54 159,-318 294.29,-379.35 357.64,-301.64 489,-371 509.57,-381.86 504.83,-397.4 525,-409 529.55,-411.62 534.44,-413.88 539.49,-415.82"/>
<polygon fill="midnightblue" stroke="midnightblue" points="538.73,-419.26 549.33,-419.2 541,-412.64 538.73,-419.26"/>
</g>
<!-- Node8 -->
<g id="node8" class="node">
<title>Node8</title>
<g id="a_node8"><a xlink:href="../../d8/d6e/class_t___m_e_s_h_1_1_triangle.html#a0c4c2a2ba6b0c975aa3d260f00785e8f" target="_top" xlink:title="Third vertex.">
<polygon fill="white" stroke="black" points="549.5,-456.5 549.5,-475.5 663.5,-475.5 663.5,-456.5 549.5,-456.5"/>
<text text-anchor="middle" x="606.5" y="-463.5" font-family="Helvetica,sans-Serif" font-size="10.00">T_MESH::Triangle::v3</text>
</a>
</g>
</g>
<!-- Node1&#45;&gt;Node8 -->
<g id="edge39" class="edge">
<title>Node1&#45;&gt;Node8</title>
<path fill="none" stroke="midnightblue" d="M63.39,-253.27C66.84,-296.66 83.2,-420.99 159,-475 278.5,-560.15 342.75,-496.85 489,-485 508.39,-483.43 529.42,-480.41 548.21,-477.23"/>
<polygon fill="midnightblue" stroke="midnightblue" points="548.85,-480.68 558.1,-475.51 547.65,-473.78 548.85,-480.68"/>
</g>
<!-- Node9 -->
<g id="node9" class="node">
<title>Node9</title>
<g id="a_node9"><a xlink:href="../../d8/d6e/class_t___m_e_s_h_1_1_triangle.html#a069887e9f69d8daeb4abc9f24c008666" target="_top" xlink:title="Angle between the normal vector of this and the one of &#39;t&#39;. Return &#45;1 if one or both the triangles ar...">
<polygon fill="white" stroke="black" points="159,-446.5 159,-465.5 308,-465.5 308,-446.5 159,-446.5"/>
<text text-anchor="middle" x="233.5" y="-453.5" font-family="Helvetica,sans-Serif" font-size="10.00">T_MESH::Triangle::getDAngle</text>
</a>
</g>
</g>
<!-- Node1&#45;&gt;Node9 -->
<g id="edge10" class="edge">
<title>Node1&#45;&gt;Node9</title>
<path fill="none" stroke="midnightblue" d="M66.61,-253.03C76.75,-287.49 106.02,-373.05 159,-423 167.74,-431.24 178.88,-437.66 189.83,-442.56"/>
<polygon fill="midnightblue" stroke="midnightblue" points="188.76,-445.91 199.34,-446.48 191.43,-439.44 188.76,-445.91"/>
</g>
<!-- Node12 -->
<g id="node12" class="node">
<title>Node12</title>
<g id="a_node12"><a xlink:href="../../d5/d7f/class_t___m_e_s_h_1_1_vertex.html#af74a29c7daa03825b0156bfe7f64052a" target="_top" xlink:title="Returns the edge connecting this vertex to &#39;v&#39;. NULL if such an edge does not exist.">
<polygon fill="white" stroke="black" points="167,-266.5 167,-285.5 300,-285.5 300,-266.5 167,-266.5"/>
<text text-anchor="middle" x="233.5" y="-273.5" font-family="Helvetica,sans-Serif" font-size="10.00">T_MESH::Vertex::getEdge</text>
</a>
</g>
</g>
<!-- Node1&#45;&gt;Node12 -->
<g id="edge17" class="edge">
<title>Node1&#45;&gt;Node12</title>
<path fill="none" stroke="midnightblue" d="M123.39,-251.61C141.88,-255.74 162.02,-260.25 179.91,-264.24"/>
<polygon fill="midnightblue" stroke="midnightblue" points="179.35,-267.7 189.87,-266.47 180.87,-260.87 179.35,-267.7"/>
</g>
<!-- Node18 -->
<g id="node18" class="node">
<title>Node18</title>
<g id="a_node18"><a xlink:href="../../d3/d04/class_t___m_e_s_h_1_1_list.html#af0e61026072f65c9ba882df526acfd2e" target="_top" xlink:title="Gets the number of elements. &#160;&#160;O(1).">
<polygon fill="white" stroke="black" points="548.5,-76.5 548.5,-95.5 664.5,-95.5 664.5,-76.5 548.5,-76.5"/>
<text text-anchor="middle" x="606.5" y="-83.5" font-family="Helvetica,sans-Serif" font-size="10.00">T_MESH::List::numels</text>
</a>
</g>
</g>
<!-- Node1&#45;&gt;Node18 -->
<g id="edge35" class="edge">
<title>Node1&#45;&gt;Node18</title>
<path fill="none" stroke="midnightblue" d="M123.12,-238.66C173.33,-237.94 246.19,-233.95 308,-219 392.8,-198.48 417.24,-192.62 489,-143 508.14,-129.77 504.83,-116.6 525,-105 529.4,-102.47 534.12,-100.27 538.98,-98.37"/>
<polygon fill="midnightblue" stroke="midnightblue" points="540.19,-101.66 548.48,-95.06 537.88,-95.05 540.19,-101.66"/>
</g>
<!-- Node24 -->
<g id="node24" class="node">
<title>Node24</title>
<g id="a_node24"><a xlink:href="../../de/df2/class_t___m_e_s_h_1_1_t_mesh.html#a4048dc3645716a12a1438f7223050492" target="_top" xlink:title=" ">
<polygon fill="white" stroke="black" points="176,-190.5 176,-209.5 291,-209.5 291,-190.5 176,-190.5"/>
<text text-anchor="middle" x="233.5" y="-197.5" font-family="Helvetica,sans-Serif" font-size="10.00">T_MESH::TMesh::info</text>
</a>
</g>
</g>
<!-- Node1&#45;&gt;Node24 -->
<g id="edge30" class="edge">
<title>Node1&#45;&gt;Node24</title>
<path fill="none" stroke="midnightblue" d="M123.39,-224.39C141.88,-220.26 162.02,-215.75 179.91,-211.76"/>
<polygon fill="midnightblue" stroke="midnightblue" points="180.87,-215.13 189.87,-209.53 179.35,-208.3 180.87,-215.13"/>
</g>
<!-- Node25 -->
<g id="node25" class="node">
<title>Node25</title>
<g id="a_node25"><a xlink:href="../../de/df9/namespace_t___m_e_s_h.html#a5715fed89554fb33e87bb209df729ffe" target="_top" xlink:title=" ">
<polygon fill="white" stroke="black" points="190,-152.5 190,-171.5 277,-171.5 277,-152.5 190,-152.5"/>
<text text-anchor="middle" x="233.5" y="-159.5" font-family="Helvetica,sans-Serif" font-size="10.00">T_MESH::jqsort</text>
</a>
</g>
</g>
<!-- Node1&#45;&gt;Node25 -->
<g id="edge31" class="edge">
<title>Node1&#45;&gt;Node25</title>
<path fill="none" stroke="midnightblue" d="M84.19,-222.78C103.16,-210.07 131.86,-192.26 159,-181 165.7,-178.22 172.91,-175.76 180.1,-173.61"/>
<polygon fill="midnightblue" stroke="midnightblue" points="181.18,-176.94 189.86,-170.86 179.28,-170.2 181.18,-176.94"/>
</g>
<!-- Node26 -->
<g id="node26" class="node">
<title>Node26</title>
<g id="a_node26"><a xlink:href="../../de/df9/namespace_t___m_e_s_h.html#a6dbd912d07badf7fd95058fc6a397212" target="_top" xlink:title="Lexycographic edge comparison to be used with jqsort() or abstractHeap.">
<polygon fill="white" stroke="black" points="164.5,-114.5 164.5,-133.5 302.5,-133.5 302.5,-114.5 164.5,-114.5"/>
<text text-anchor="middle" x="233.5" y="-121.5" font-family="Helvetica,sans-Serif" font-size="10.00">T_MESH::lexEdgeCompare</text>
</a>
</g>
</g>
<!-- Node1&#45;&gt;Node26 -->
<g id="edge32" class="edge">
<title>Node1&#45;&gt;Node26</title>
<path fill="none" stroke="midnightblue" d="M73.78,-222.66C90.16,-201.49 122.59,-163.62 159,-143 162.98,-140.75 167.23,-138.76 171.6,-137"/>
<polygon fill="midnightblue" stroke="midnightblue" points="173.09,-140.18 181.32,-133.51 170.73,-133.59 173.09,-140.18"/>
</g>
<!-- Node28 -->
<g id="node28" class="node">
<title>Node28</title>
<g id="a_node28"><a xlink:href="../../de/df9/namespace_t___m_e_s_h.html#a3766b20d48429b5278ed41446623204f" target="_top" xlink:title="Lexycographic comparison to be used with jqsort() or abstractHeap.">
<polygon fill="white" stroke="black" points="357,-76.5 357,-95.5 476,-95.5 476,-76.5 357,-76.5"/>
<text text-anchor="middle" x="416.5" y="-83.5" font-family="Helvetica,sans-Serif" font-size="10.00">T_MESH::xyzCompare</text>
</a>
</g>
</g>
<!-- Node1&#45;&gt;Node28 -->
<g id="edge41" class="edge">
<title>Node1&#45;&gt;Node28</title>
<path fill="none" stroke="midnightblue" d="M68.42,-222.67C80.48,-193.79 110.91,-131.81 159,-105 216.25,-73.09 292.18,-71.52 346.54,-76"/>
<polygon fill="midnightblue" stroke="midnightblue" points="346.5,-79.51 356.78,-76.93 347.14,-72.54 346.5,-79.51"/>
</g>
<!-- Node29 -->
<g id="node29" class="node">
<title>Node29</title>
<g id="a_node29"><a xlink:href="../../d3/d04/class_t___m_e_s_h_1_1_list.html#a28c649d203d3884852862eee78b1be07" target="_top" xlink:title="Creates an array out of the list. &#160;&#160;O(numels()).">
<polygon fill="white" stroke="black" points="175.5,-38.5 175.5,-57.5 291.5,-57.5 291.5,-38.5 175.5,-38.5"/>
<text text-anchor="middle" x="233.5" y="-45.5" font-family="Helvetica,sans-Serif" font-size="10.00">T_MESH::List::toArray</text>
</a>
</g>
</g>
<!-- Node1&#45;&gt;Node29 -->
<g id="edge36" class="edge">
<title>Node1&#45;&gt;Node29</title>
<path fill="none" stroke="midnightblue" d="M67.21,-222.69C78.02,-190.11 107.67,-113.5 159,-72 164.26,-67.75 170.3,-64.24 176.6,-61.35"/>
<polygon fill="midnightblue" stroke="midnightblue" points="178.03,-64.55 185.97,-57.53 175.39,-58.06 178.03,-64.55"/>
</g>
<!-- Node30 -->
<g id="node30" class="node">
<title>Node30</title>
<g id="a_node30"><a xlink:href="../../de/df2/class_t___m_e_s_h_1_1_t_mesh.html#a858df1d3c985685df741e12996cbe9c7" target="_top" xlink:title=" ">
<polygon fill="white" stroke="black" points="167,-0.5 167,-19.5 300,-19.5 300,-0.5 167,-0.5"/>
<text text-anchor="middle" x="233.5" y="-7.5" font-family="Helvetica,sans-Serif" font-size="10.00">T_MESH::TMesh::warning</text>
</a>
</g>
</g>
<!-- Node1&#45;&gt;Node30 -->
<g id="edge40" class="edge">
<title>Node1&#45;&gt;Node30</title>
<path fill="none" stroke="midnightblue" d="M64.92,-222.95C71.94,-184.44 95.95,-81.63 159,-29 161.04,-27.3 163.21,-25.75 165.48,-24.34"/>
<polygon fill="midnightblue" stroke="midnightblue" points="167.42,-27.27 174.66,-19.54 164.18,-21.07 167.42,-27.27"/>
</g>
<!-- Node3 -->
<g id="node3" class="node">
<title>Node3</title>
<g id="a_node3"><a xlink:href="../../d2/d8e/class_t___m_e_s_h_1_1_point.html#a7d19f5b5b98c1999de03da56eab91478" target="_top" xlink:title=" ">
<polygon fill="white" stroke="black" points="541.5,-494.5 541.5,-513.5 671.5,-513.5 671.5,-494.5 541.5,-494.5"/>
<text text-anchor="middle" x="606.5" y="-501.5" font-family="Helvetica,sans-Serif" font-size="10.00">T_MESH::Point::getAngle</text>
</a>
</g>
</g>
<!-- Node2&#45;&gt;Node3 -->
<g id="edge2" class="edge">
<title>Node2&#45;&gt;Node3</title>
<path fill="none" stroke="midnightblue" d="M467.78,-437.56C475.18,-440.03 482.49,-443.13 489,-447 509,-458.88 504.83,-473.4 525,-485 528.89,-487.24 533.02,-489.21 537.29,-490.95"/>
<polygon fill="midnightblue" stroke="midnightblue" points="536.19,-494.28 546.79,-494.4 538.59,-487.7 536.19,-494.28"/>
</g>
<!-- Node2&#45;&gt;Node5 -->
<g id="edge4" class="edge">
<title>Node2&#45;&gt;Node5</title>
<path fill="none" stroke="midnightblue" d="M464.94,-418.41C490.31,-413.28 521.73,-406.93 548.42,-401.54"/>
<polygon fill="midnightblue" stroke="midnightblue" points="549.29,-404.93 558.4,-399.52 547.91,-398.07 549.29,-404.93"/>
</g>
<!-- Node2&#45;&gt;Node7 -->
<g id="edge6" class="edge">
<title>Node2&#45;&gt;Node7</title>
<path fill="none" stroke="midnightblue" d="M487.5,-428C504.36,-428 522.32,-428 539.02,-428"/>
<polygon fill="midnightblue" stroke="midnightblue" points="539.23,-431.5 549.23,-428 539.23,-424.5 539.23,-431.5"/>
</g>
<!-- Node2&#45;&gt;Node8 -->
<g id="edge8" class="edge">
<title>Node2&#45;&gt;Node8</title>
<path fill="none" stroke="midnightblue" d="M464.94,-437.59C490.31,-442.72 521.73,-449.07 548.42,-454.46"/>
<polygon fill="midnightblue" stroke="midnightblue" points="547.91,-457.93 558.4,-456.48 549.29,-451.07 547.91,-457.93"/>
</g>
<!-- Node4 -->
<g id="node4" class="node">
<title>Node4</title>
<g id="a_node4"><a xlink:href="../../d2/d8e/class_t___m_e_s_h_1_1_point.html#a61ce9f22ddfe41f036566d4a2f920ac4" target="_top" xlink:title="Distance from origin.">
<polygon fill="white" stroke="black" points="743.5,-494.5 743.5,-513.5 861.5,-513.5 861.5,-494.5 743.5,-494.5"/>
<text text-anchor="middle" x="802.5" y="-501.5" font-family="Helvetica,sans-Serif" font-size="10.00">T_MESH::Point::length</text>
</a>
</g>
</g>
<!-- Node3&#45;&gt;Node4 -->
<g id="edge3" class="edge">
<title>Node3&#45;&gt;Node4</title>
<path fill="none" stroke="midnightblue" d="M671.56,-504C691.39,-504 713.3,-504 733.39,-504"/>
<polygon fill="midnightblue" stroke="midnightblue" points="733.4,-507.5 743.4,-504 733.4,-500.5 733.4,-507.5"/>
</g>
<!-- Node6 -->
<g id="node6" class="node">
<title>Node6</title>
<g id="a_node6"><a xlink:href="../../da/da2/class_t___m_e_s_h_1_1_edge.html#a560eca8895471f987bd3228b13c40052" target="_top" xlink:title="Vertex shared with edge &#39;b&#39;. NULL if this and &#39;b&#39; do not share any vertex.">
<polygon fill="white" stroke="black" points="724,-418.5 724,-437.5 881,-437.5 881,-418.5 724,-418.5"/>
<text text-anchor="middle" x="802.5" y="-425.5" font-family="Helvetica,sans-Serif" font-size="10.00">T_MESH::Edge::commonVertex</text>
</a>
</g>
</g>
<!-- Node5&#45;&gt;Node6 -->
<g id="edge5" class="edge">
<title>Node5&#45;&gt;Node6</title>
<path fill="none" stroke="midnightblue" d="M656.45,-399.59C682.75,-404.74 715.34,-411.12 742.97,-416.53"/>
<polygon fill="midnightblue" stroke="midnightblue" points="742.41,-419.99 752.9,-418.48 743.76,-413.12 742.41,-419.99"/>
</g>
<!-- Node7&#45;&gt;Node6 -->
<g id="edge7" class="edge">
<title>Node7&#45;&gt;Node6</title>
<path fill="none" stroke="midnightblue" d="M663.61,-428C679.18,-428 696.47,-428 713.4,-428"/>
<polygon fill="midnightblue" stroke="midnightblue" points="713.87,-431.5 723.87,-428 713.87,-424.5 713.87,-431.5"/>
</g>
<!-- Node8&#45;&gt;Node6 -->
<g id="edge9" class="edge">
<title>Node8&#45;&gt;Node6</title>
<path fill="none" stroke="midnightblue" d="M656.45,-456.41C682.75,-451.26 715.34,-444.88 742.97,-439.47"/>
<polygon fill="midnightblue" stroke="midnightblue" points="743.76,-442.88 752.9,-437.52 742.41,-436.01 743.76,-442.88"/>
</g>
<!-- Node9&#45;&gt;Node3 -->
<g id="edge11" class="edge">
<title>Node9&#45;&gt;Node3</title>
<path fill="none" stroke="midnightblue" d="M264.38,-465.53C286.21,-472.09 316.65,-480.43 344,-485 406.61,-495.47 478.6,-500.17 531.18,-502.28"/>
<polygon fill="midnightblue" stroke="midnightblue" points="531.3,-505.79 541.43,-502.67 531.57,-498.79 531.3,-505.79"/>
</g>
<!-- Node10 -->
<g id="node10" class="node">
<title>Node10</title>
<g id="a_node10"><a xlink:href="../../d8/d6e/class_t___m_e_s_h_1_1_triangle.html#ac657821ebb19f57ea5d92daaa3aefa34" target="_top" xlink:title="Return a vector orthogonal to the plane of the triangle. If triangle is degenerate return a null vect...">
<polygon fill="white" stroke="black" points="344,-380.5 344,-399.5 489,-399.5 489,-380.5 344,-380.5"/>
<text text-anchor="middle" x="416.5" y="-387.5" font-family="Helvetica,sans-Serif" font-size="10.00">T_MESH::Triangle::getVector</text>
</a>
</g>
</g>
<!-- Node9&#45;&gt;Node10 -->
<g id="edge12" class="edge">
<title>Node9&#45;&gt;Node10</title>
<path fill="none" stroke="midnightblue" d="M254.34,-446.44C276.01,-436.25 311.93,-420.08 344,-409 350.93,-406.61 358.32,-404.34 365.62,-402.25"/>
<polygon fill="midnightblue" stroke="midnightblue" points="366.77,-405.57 375.48,-399.53 364.91,-398.82 366.77,-405.57"/>
</g>
<!-- Node11 -->
<g id="node11" class="node">
<title>Node11</title>
<g id="a_node11"><a xlink:href="../../d2/d8e/class_t___m_e_s_h_1_1_point.html#a0ac3250c48d7be19c5184d15366c8b85" target="_top" xlink:title="TRUE if vector is (0,0,0)">
<polygon fill="white" stroke="black" points="358.5,-456.5 358.5,-475.5 474.5,-475.5 474.5,-456.5 358.5,-456.5"/>
<text text-anchor="middle" x="416.5" y="-463.5" font-family="Helvetica,sans-Serif" font-size="10.00">T_MESH::Point::isNull</text>
</a>
</g>
</g>
<!-- Node9&#45;&gt;Node11 -->
<g id="edge16" class="edge">
<title>Node9&#45;&gt;Node11</title>
<path fill="none" stroke="midnightblue" d="M308.12,-460.07C321.33,-460.8 335.03,-461.55 348.05,-462.27"/>
<polygon fill="midnightblue" stroke="midnightblue" points="348.15,-465.78 358.32,-462.84 348.53,-458.79 348.15,-465.78"/>
</g>
<!-- Node10&#45;&gt;Node5 -->
<g id="edge13" class="edge">
<title>Node10&#45;&gt;Node5</title>
<path fill="none" stroke="midnightblue" d="M489.11,-390C505.45,-390 522.76,-390 538.88,-390"/>
<polygon fill="midnightblue" stroke="midnightblue" points="539.28,-393.5 549.28,-390 539.28,-386.5 539.28,-393.5"/>
</g>
<!-- Node10&#45;&gt;Node7 -->
<g id="edge14" class="edge">
<title>Node10&#45;&gt;Node7</title>
<path fill="none" stroke="midnightblue" d="M464.94,-399.59C490.31,-404.72 521.73,-411.07 548.42,-416.46"/>
<polygon fill="midnightblue" stroke="midnightblue" points="547.91,-419.93 558.4,-418.48 549.29,-413.07 547.91,-419.93"/>
</g>
<!-- Node10&#45;&gt;Node8 -->
<g id="edge15" class="edge">
<title>Node10&#45;&gt;Node8</title>
<path fill="none" stroke="midnightblue" d="M467.78,-399.56C475.18,-402.03 482.49,-405.13 489,-409 509,-420.88 504.83,-435.4 525,-447 529.55,-449.62 534.44,-451.88 539.49,-453.82"/>
<polygon fill="midnightblue" stroke="midnightblue" points="538.73,-457.26 549.33,-457.2 541,-450.64 538.73,-457.26"/>
</g>
<!-- Node13 -->
<g id="node13" class="node">
<title>Node13</title>
<g id="a_node13"><a xlink:href="../../da/da2/class_t___m_e_s_h_1_1_edge.html#aef981891343c94489f00b060bd654b6c" target="_top" xlink:title="Vertex opposite to &#39;v&#39;. NULL if &#39;v&#39; is not a vertex of the edge.">
<polygon fill="white" stroke="black" points="528.5,-342.5 528.5,-361.5 684.5,-361.5 684.5,-342.5 528.5,-342.5"/>
<text text-anchor="middle" x="606.5" y="-349.5" font-family="Helvetica,sans-Serif" font-size="10.00">T_MESH::Edge::oppositeVertex</text>
</a>
</g>
</g>
<!-- Node12&#45;&gt;Node13 -->
<g id="edge18" class="edge">
<title>Node12&#45;&gt;Node13</title>
<path fill="none" stroke="midnightblue" d="M300.12,-270.97C353.29,-269.48 428.97,-273.34 489,-300 508.84,-308.81 505.82,-322.85 525,-333 529.49,-335.37 534.27,-337.46 539.18,-339.28"/>
<polygon fill="midnightblue" stroke="midnightblue" points="538.14,-342.62 548.73,-342.48 540.36,-335.98 538.14,-342.62"/>
</g>
<!-- Node14 -->
<g id="node14" class="node">
<title>Node14</title>
<g id="a_node14"><a xlink:href="../../d5/d7f/class_t___m_e_s_h_1_1_vertex.html#a66b49df1416ddcee6be0e1abe3aadda9" target="_top" xlink:title="List of incident edges.">
<polygon fill="white" stroke="black" points="361.5,-228.5 361.5,-247.5 471.5,-247.5 471.5,-228.5 361.5,-228.5"/>
<text text-anchor="middle" x="416.5" y="-235.5" font-family="Helvetica,sans-Serif" font-size="10.00">T_MESH::Vertex::VE</text>
</a>
</g>
</g>
<!-- Node12&#45;&gt;Node14 -->
<g id="edge19" class="edge">
<title>Node12&#45;&gt;Node14</title>
<path fill="none" stroke="midnightblue" d="M280.17,-266.41C304.49,-261.31 334.58,-254.99 360.21,-249.61"/>
<polygon fill="midnightblue" stroke="midnightblue" points="361.09,-253 370.15,-247.52 359.65,-246.15 361.09,-253"/>
</g>
<!-- Node14&#45;&gt;Node13 -->
<g id="edge26" class="edge">
<title>Node14&#45;&gt;Node13</title>
<path fill="none" stroke="midnightblue" d="M463.41,-247.54C472.6,-250.99 481.67,-255.66 489,-262 515.77,-285.13 497.19,-311.12 525,-333 527.2,-334.73 529.53,-336.31 531.96,-337.74"/>
<polygon fill="midnightblue" stroke="midnightblue" points="530.62,-340.99 541.13,-342.36 533.77,-334.74 530.62,-340.99"/>
</g>
<!-- Node15 -->
<g id="node15" class="node">
<title>Node15</title>
<g id="a_node15"><a xlink:href="../../d3/d04/class_t___m_e_s_h_1_1_list.html#ae601a7e17364ce83f74ffcb6c64971ca" target="_top" xlink:title="Appends a new node storing &#39;d&#39; to the head. &#160;&#160;O(1).">
<polygon fill="white" stroke="black" points="536.5,-304.5 536.5,-323.5 676.5,-323.5 676.5,-304.5 536.5,-304.5"/>
<text text-anchor="middle" x="606.5" y="-311.5" font-family="Helvetica,sans-Serif" font-size="10.00">T_MESH::List::appendHead</text>
</a>
</g>
</g>
<!-- Node14&#45;&gt;Node15 -->
<g id="edge20" class="edge">
<title>Node14&#45;&gt;Node15</title>
<path fill="none" stroke="midnightblue" d="M455.53,-247.51C466.74,-251.16 478.74,-255.95 489,-262 507.7,-273.03 505.82,-284.85 525,-295 529.49,-297.37 534.27,-299.46 539.18,-301.28"/>
<polygon fill="midnightblue" stroke="midnightblue" points="538.14,-304.62 548.73,-304.48 540.36,-297.98 538.14,-304.62"/>
</g>
<!-- Node16 -->
<g id="node16" class="node">
<title>Node16</title>
<g id="a_node16"><a xlink:href="../../d3/d04/class_t___m_e_s_h_1_1_list.html#a1b14a2838ee3745d5fb413f9e7ecc214" target="_top" xlink:title="Appends a new node storing &#39;d&#39; to the tail. &#160;&#160;O(1).">
<polygon fill="white" stroke="black" points="541,-266.5 541,-285.5 672,-285.5 672,-266.5 541,-266.5"/>
<text text-anchor="middle" x="606.5" y="-273.5" font-family="Helvetica,sans-Serif" font-size="10.00">T_MESH::List::appendTail</text>
</a>
</g>
</g>
<!-- Node14&#45;&gt;Node16 -->
<g id="edge21" class="edge">
<title>Node14&#45;&gt;Node16</title>
<path fill="none" stroke="midnightblue" d="M464.94,-247.59C490.31,-252.72 521.73,-259.07 548.42,-264.46"/>
<polygon fill="midnightblue" stroke="midnightblue" points="547.91,-267.93 558.4,-266.48 549.29,-261.07 547.91,-267.93"/>
</g>
<!-- Node17 -->
<g id="node17" class="node">
<title>Node17</title>
<g id="a_node17"><a xlink:href="../../da/da2/class_t___m_e_s_h_1_1_edge.html#a96830b6d677fab318268f287682ad151" target="_top" xlink:title="Triangle on the left of the edge when looking from &#39;v&#39;. NULL if &#39;v&#39; is not a vertex of the edge.">
<polygon fill="white" stroke="black" points="536.5,-228.5 536.5,-247.5 676.5,-247.5 676.5,-228.5 536.5,-228.5"/>
<text text-anchor="middle" x="606.5" y="-235.5" font-family="Helvetica,sans-Serif" font-size="10.00">T_MESH::Edge::leftTriangle</text>
</a>
</g>
</g>
<!-- Node14&#45;&gt;Node17 -->
<g id="edge22" class="edge">
<title>Node14&#45;&gt;Node17</title>
<path fill="none" stroke="midnightblue" d="M471.63,-238C488.65,-238 507.81,-238 526.21,-238"/>
<polygon fill="midnightblue" stroke="midnightblue" points="526.33,-241.5 536.33,-238 526.33,-234.5 526.33,-241.5"/>
</g>
<!-- Node14&#45;&gt;Node18 -->
<g id="edge23" class="edge">
<title>Node14&#45;&gt;Node18</title>
<path fill="none" stroke="midnightblue" d="M466.38,-228.39C474.73,-224.96 482.72,-220.31 489,-214 524.99,-177.84 487.39,-139.47 525,-105 529.1,-101.24 533.81,-98.18 538.84,-95.7"/>
<polygon fill="midnightblue" stroke="midnightblue" points="540.29,-98.89 548.19,-91.83 537.61,-92.42 540.29,-98.89"/>
</g>
<!-- Node19 -->
<g id="node19" class="node">
<title>Node19</title>
<g id="a_node19"><a xlink:href="../../d8/d6e/class_t___m_e_s_h_1_1_triangle.html#a77cc688b97fd6501b5dca8385fce4137" target="_top" xlink:title="Triangle&#39;s edge opposite to &#39;v&#39;. NULL if &#39;v&#39; is not a vertex of the triangle.">
<polygon fill="white" stroke="black" points="525,-190.5 525,-209.5 688,-209.5 688,-190.5 525,-190.5"/>
<text text-anchor="middle" x="606.5" y="-197.5" font-family="Helvetica,sans-Serif" font-size="10.00">T_MESH::Triangle::oppositeEdge</text>
</a>
</g>
</g>
<!-- Node14&#45;&gt;Node19 -->
<g id="edge24" class="edge">
<title>Node14&#45;&gt;Node19</title>
<path fill="none" stroke="midnightblue" d="M464.94,-228.41C490.31,-223.28 521.73,-216.93 548.42,-211.54"/>
<polygon fill="midnightblue" stroke="midnightblue" points="549.29,-214.93 558.4,-209.52 547.91,-208.07 549.29,-214.93"/>
</g>
<!-- Node21 -->
<g id="node21" class="node">
<title>Node21</title>
<g id="a_node21"><a xlink:href="../../d3/d04/class_t___m_e_s_h_1_1_list.html#a9701d1b3769b92b7d2a7ed6da895a863" target="_top" xlink:title="Deletes and removes the first node. Returns its data. &#160;&#160;O(1).">
<polygon fill="white" stroke="black" points="544.5,-152.5 544.5,-171.5 668.5,-171.5 668.5,-152.5 544.5,-152.5"/>
<text text-anchor="middle" x="606.5" y="-159.5" font-family="Helvetica,sans-Serif" font-size="10.00">T_MESH::List::popHead</text>
</a>
</g>
</g>
<!-- Node14&#45;&gt;Node21 -->
<g id="edge27" class="edge">
<title>Node14&#45;&gt;Node21</title>
<path fill="none" stroke="midnightblue" d="M455.53,-228.49C466.74,-224.84 478.74,-220.05 489,-214 507.7,-202.97 505.82,-191.15 525,-181 529.49,-178.63 534.27,-176.54 539.18,-174.72"/>
<polygon fill="midnightblue" stroke="midnightblue" points="540.36,-178.02 548.73,-171.52 538.14,-171.38 540.36,-178.02"/>
</g>
<!-- Node23 -->
<g id="node23" class="node">
<title>Node23</title>
<g id="a_node23"><a xlink:href="../../da/da2/class_t___m_e_s_h_1_1_edge.html#aa9788a51d590116555c8a062e253a197" target="_top" xlink:title="Triangle on the right of the edge when looking from &#39;v&#39;. NULL if &#39;v&#39; is not a vertex of the edge.">
<polygon fill="white" stroke="black" points="534,-114.5 534,-133.5 679,-133.5 679,-114.5 534,-114.5"/>
<text text-anchor="middle" x="606.5" y="-121.5" font-family="Helvetica,sans-Serif" font-size="10.00">T_MESH::Edge::rightTriangle</text>
</a>
</g>
</g>
<!-- Node14&#45;&gt;Node23 -->
<g id="edge29" class="edge">
<title>Node14&#45;&gt;Node23</title>
<path fill="none" stroke="midnightblue" d="M463.41,-228.46C472.6,-225.01 481.67,-220.34 489,-214 515.77,-190.87 497.19,-164.88 525,-143 527.2,-141.27 529.53,-139.69 531.96,-138.26"/>
<polygon fill="midnightblue" stroke="midnightblue" points="533.77,-141.26 541.13,-133.64 530.62,-135.01 533.77,-141.26"/>
</g>
<!-- Node20 -->
<g id="node20" class="node">
<title>Node20</title>
<g id="a_node20"><a xlink:href="../../da/da2/class_t___m_e_s_h_1_1_edge.html#a7d7329ff24b7b6eb2eceee39711dd650" target="_top" xlink:title="TRUE iff &#39;v&#39; is an end&#45;point of the edge.">
<polygon fill="white" stroke="black" points="735,-190.5 735,-209.5 870,-209.5 870,-190.5 735,-190.5"/>
<text text-anchor="middle" x="802.5" y="-197.5" font-family="Helvetica,sans-Serif" font-size="10.00">T_MESH::Edge::hasVertex</text>
</a>
</g>
</g>
<!-- Node19&#45;&gt;Node20 -->
<g id="edge25" class="edge">
<title>Node19&#45;&gt;Node20</title>
<path fill="none" stroke="midnightblue" d="M688.09,-200C700.09,-200 712.43,-200 724.35,-200"/>
<polygon fill="midnightblue" stroke="midnightblue" points="724.7,-203.5 734.7,-200 724.7,-196.5 724.7,-203.5"/>
</g>
<!-- Node22 -->
<g id="node22" class="node">
<title>Node22</title>
<g id="a_node22"><a xlink:href="../../d3/d04/class_t___m_e_s_h_1_1_list.html#aec091d7c66b66c92fe56f06f41f448f4" target="_top" xlink:title="Deletes and removes the node &#39;n&#39; from the list. &#160;&#160;O(1).">
<polygon fill="white" stroke="black" points="735.5,-152.5 735.5,-171.5 869.5,-171.5 869.5,-152.5 735.5,-152.5"/>
<text text-anchor="middle" x="802.5" y="-159.5" font-family="Helvetica,sans-Serif" font-size="10.00">T_MESH::List::removeCell</text>
</a>
</g>
</g>
<!-- Node21&#45;&gt;Node22 -->
<g id="edge28" class="edge">
<title>Node21&#45;&gt;Node22</title>
<path fill="none" stroke="midnightblue" d="M668.62,-162C686.6,-162 706.5,-162 725.3,-162"/>
<polygon fill="midnightblue" stroke="midnightblue" points="725.31,-165.5 735.31,-162 725.31,-158.5 725.31,-165.5"/>
</g>
<!-- Node27 -->
<g id="node27" class="node">
<title>Node27</title>
<g id="a_node27"><a xlink:href="../../de/df9/namespace_t___m_e_s_h.html#a450b61a3a6c19cbbaf693a1a84c6d616" target="_top" xlink:title=" ">
<polygon fill="white" stroke="black" points="368,-114.5 368,-133.5 465,-133.5 465,-114.5 368,-114.5"/>
<text text-anchor="middle" x="416.5" y="-121.5" font-family="Helvetica,sans-Serif" font-size="10.00">T_MESH::p_swap</text>
</a>
</g>
</g>
<!-- Node26&#45;&gt;Node27 -->
<g id="edge33" class="edge">
<title>Node26&#45;&gt;Node27</title>
<path fill="none" stroke="midnightblue" d="M302.67,-124C320.85,-124 340.31,-124 357.86,-124"/>
<polygon fill="midnightblue" stroke="midnightblue" points="357.95,-127.5 367.95,-124 357.95,-120.5 357.95,-127.5"/>
</g>
<!-- Node26&#45;&gt;Node28 -->
<g id="edge34" class="edge">
<title>Node26&#45;&gt;Node28</title>
<path fill="none" stroke="midnightblue" d="M280.17,-114.41C304.49,-109.31 334.58,-102.99 360.21,-97.61"/>
<polygon fill="midnightblue" stroke="midnightblue" points="361.09,-101 370.15,-95.52 359.65,-94.15 361.09,-101"/>
</g>
</g>
</svg>
