<?xml version="1.0" encoding="UTF-8" standalone="no"?>
<!DOCTYPE svg PUBLIC "-//W3C//DTD SVG 1.1//EN"
 "http://www.w3.org/Graphics/SVG/1.1/DTD/svg11.dtd">
<!-- Generated by graphviz version 2.44.1 (0)
 -->
<!-- Title: T_MESH::Basic_TMesh::iterativeEdgeSwaps Pages: 1 -->
<svg width="1085pt" height="810pt"
 viewBox="0.00 0.00 1085.00 810.00" xmlns="http://www.w3.org/2000/svg" xmlns:xlink="http://www.w3.org/1999/xlink">
<g id="graph0" class="graph" transform="scale(1 1) rotate(0) translate(4 806)">
<title>T_MESH::Basic_TMesh::iterativeEdgeSwaps</title>
<polygon fill="white" stroke="transparent" points="-4,4 -4,-806 1081,-806 1081,4 -4,4"/>
<!-- Node1 -->
<g id="node1" class="node">
<title>Node1</title>
<g id="a_node1"><a xlink:title="Iteratively swaps edges to minimize the Delaunay minimum angle. O(N).">
<polygon fill="#bfbfbf" stroke="black" points="0,-328 0,-358 123,-358 123,-328 0,-328"/>
<text text-anchor="start" x="8" y="-346" font-family="Helvetica,sans-Serif" font-size="10.00">T_MESH::Basic_TMesh</text>
<text text-anchor="middle" x="61.5" y="-335" font-family="Helvetica,sans-Serif" font-size="10.00">::iterativeEdgeSwaps</text>
</a>
</g>
</g>
<!-- Node2 -->
<g id="node2" class="node">
<title>Node2</title>
<g id="a_node2"><a xlink:href="../../d3/d04/class_t___m_e_s_h_1_1_list.html#ae601a7e17364ce83f74ffcb6c64971ca" target="_top" xlink:title="Appends a new node storing &#39;d&#39; to the head. &#160;&#160;O(1).">
<polygon fill="white" stroke="black" points="754.5,-567.5 754.5,-586.5 894.5,-586.5 894.5,-567.5 754.5,-567.5"/>
<text text-anchor="middle" x="824.5" y="-574.5" font-family="Helvetica,sans-Serif" font-size="10.00">T_MESH::List::appendHead</text>
</a>
</g>
</g>
<!-- Node1&#45;&gt;Node2 -->
<g id="edge1" class="edge">
<title>Node1&#45;&gt;Node2</title>
<path fill="none" stroke="midnightblue" d="M68.55,-358.11C80.83,-386.61 111.61,-447.97 159,-476 162.3,-477.95 703.27,-544.1 707,-545 723.54,-548.98 726.69,-553.15 743,-558 751.4,-560.5 760.37,-562.89 769.16,-565.07"/>
<polygon fill="midnightblue" stroke="midnightblue" points="768.43,-568.5 778.97,-567.45 770.08,-561.69 768.43,-568.5"/>
</g>
<!-- Node3 -->
<g id="node3" class="node">
<title>Node3</title>
<g id="a_node3"><a xlink:href="../../d3/d04/class_t___m_e_s_h_1_1_list.html#a1b14a2838ee3745d5fb413f9e7ecc214" target="_top" xlink:title="Appends a new node storing &#39;d&#39; to the tail. &#160;&#160;O(1).">
<polygon fill="white" stroke="black" points="759,-529.5 759,-548.5 890,-548.5 890,-529.5 759,-529.5"/>
<text text-anchor="middle" x="824.5" y="-536.5" font-family="Helvetica,sans-Serif" font-size="10.00">T_MESH::List::appendTail</text>
</a>
</g>
</g>
<!-- Node1&#45;&gt;Node3 -->
<g id="edge2" class="edge">
<title>Node1&#45;&gt;Node3</title>
<path fill="none" stroke="midnightblue" d="M71.79,-358.31C86.82,-381.53 118.91,-424.97 159,-444 379.7,-548.78 482.96,-389.59 707,-487 726.91,-495.65 723.82,-509.85 743,-520 747.49,-522.37 752.27,-524.46 757.18,-526.28"/>
<polygon fill="midnightblue" stroke="midnightblue" points="756.14,-529.62 766.73,-529.48 758.36,-522.98 756.14,-529.62"/>
</g>
<!-- Node4 -->
<g id="node4" class="node">
<title>Node4</title>
<g id="a_node4"><a xlink:href="../../de/df2/class_t___m_e_s_h_1_1_t_mesh.html#a6472e158753b8a5d49e05042c39ca8a5" target="_top" xlink:title=" ">
<polygon fill="white" stroke="black" points="174.5,-328 174.5,-358 296.5,-358 296.5,-328 174.5,-328"/>
<text text-anchor="start" x="182.5" y="-346" font-family="Helvetica,sans-Serif" font-size="10.00">T_MESH::TMesh::begin</text>
<text text-anchor="middle" x="235.5" y="-335" font-family="Helvetica,sans-Serif" font-size="10.00">_progress</text>
</a>
</g>
</g>
<!-- Node1&#45;&gt;Node4 -->
<g id="edge3" class="edge">
<title>Node1&#45;&gt;Node4</title>
<path fill="none" stroke="midnightblue" d="M123.14,-343C136.4,-343 150.54,-343 164.14,-343"/>
<polygon fill="midnightblue" stroke="midnightblue" points="164.41,-346.5 174.41,-343 164.41,-339.5 164.41,-346.5"/>
</g>
<!-- Node5 -->
<g id="node5" class="node">
<title>Node5</title>
<g id="a_node5"><a xlink:href="../../da/da2/class_t___m_e_s_h_1_1_edge.html#a69732ceedf860b233ba902e2395b059f" target="_top" xlink:title="Return the minimum among the six angles of the two incident triangles.2PI if on boundary.">
<polygon fill="white" stroke="black" points="162.5,-650 162.5,-680 308.5,-680 308.5,-650 162.5,-650"/>
<text text-anchor="start" x="170.5" y="-668" font-family="Helvetica,sans-Serif" font-size="10.00">T_MESH::Edge::delaunayMin</text>
<text text-anchor="middle" x="235.5" y="-657" font-family="Helvetica,sans-Serif" font-size="10.00">Angle</text>
</a>
</g>
</g>
<!-- Node1&#45;&gt;Node5 -->
<g id="edge4" class="edge">
<title>Node1&#45;&gt;Node5</title>
<path fill="none" stroke="midnightblue" d="M64.6,-358.31C71.28,-402.14 95.43,-530.32 159,-613 168.62,-625.51 182.11,-636.12 195.03,-644.44"/>
<polygon fill="midnightblue" stroke="midnightblue" points="193.47,-647.59 203.83,-649.83 197.12,-641.62 193.47,-647.59"/>
</g>
<!-- Node15 -->
<g id="node15" class="node">
<title>Node15</title>
<g id="a_node15"><a xlink:href="../../d8/d6e/class_t___m_e_s_h_1_1_triangle.html#a7233b095134d4402e88e988a225d65e5" target="_top" xlink:title="Edge next to &#39;e&#39; in the ordering or the triangle. NULL if &#39;e&#39; is not an edge of the triangle.">
<polygon fill="white" stroke="black" points="354.5,-529.5 354.5,-548.5 499.5,-548.5 499.5,-529.5 354.5,-529.5"/>
<text text-anchor="middle" x="427" y="-536.5" font-family="Helvetica,sans-Serif" font-size="10.00">T_MESH::Triangle::nextEdge</text>
</a>
</g>
</g>
<!-- Node1&#45;&gt;Node15 -->
<g id="edge35" class="edge">
<title>Node1&#45;&gt;Node15</title>
<path fill="none" stroke="midnightblue" d="M65.95,-358.23C74.69,-392.9 101.23,-477.6 159,-515 217.88,-553.12 299.96,-554.68 357.53,-549.51"/>
<polygon fill="midnightblue" stroke="midnightblue" points="358.01,-552.98 367.62,-548.51 357.32,-546.01 358.01,-552.98"/>
</g>
<!-- Node17 -->
<g id="node17" class="node">
<title>Node17</title>
<g id="a_node17"><a xlink:href="../../d8/d6e/class_t___m_e_s_h_1_1_triangle.html#ae0d141fae436f3a96a8012288546ad49" target="_top" xlink:title="Edge preceeding &#39;e&#39; in the ordering or the triangle. NULL if &#39;e&#39; is not an edge of the triangle.">
<polygon fill="white" stroke="black" points="354.5,-769.5 354.5,-788.5 499.5,-788.5 499.5,-769.5 354.5,-769.5"/>
<text text-anchor="middle" x="427" y="-776.5" font-family="Helvetica,sans-Serif" font-size="10.00">T_MESH::Triangle::prevEdge</text>
</a>
</g>
</g>
<!-- Node1&#45;&gt;Node17 -->
<g id="edge37" class="edge">
<title>Node1&#45;&gt;Node17</title>
<path fill="none" stroke="midnightblue" d="M62.14,-358.12C61.7,-411.07 67.35,-590.36 159,-690 206.45,-741.59 284.56,-763.31 344.07,-772.43"/>
<polygon fill="midnightblue" stroke="midnightblue" points="343.81,-775.93 354.2,-773.89 344.8,-769 343.81,-775.93"/>
</g>
<!-- Node21 -->
<g id="node21" class="node">
<title>Node21</title>
<g id="a_node21"><a xlink:href="../../de/df2/class_t___m_e_s_h_1_1_t_mesh.html#a1f5db14680c00ee8f224f5c7fdbd769e" target="_top" xlink:title=" ">
<polygon fill="white" stroke="black" points="178,-279 178,-309 293,-309 293,-279 178,-279"/>
<text text-anchor="start" x="186" y="-297" font-family="Helvetica,sans-Serif" font-size="10.00">T_MESH::TMesh::end</text>
<text text-anchor="middle" x="235.5" y="-286" font-family="Helvetica,sans-Serif" font-size="10.00">_progress</text>
</a>
</g>
</g>
<!-- Node1&#45;&gt;Node21 -->
<g id="edge26" class="edge">
<title>Node1&#45;&gt;Node21</title>
<path fill="none" stroke="midnightblue" d="M115.51,-327.9C133.33,-322.82 153.38,-317.11 171.87,-311.84"/>
<polygon fill="midnightblue" stroke="midnightblue" points="173.01,-315.16 181.67,-309.05 171.09,-308.43 173.01,-315.16"/>
</g>
<!-- Node22 -->
<g id="node22" class="node">
<title>Node22</title>
<g id="a_node22"><a xlink:href="../../d8/d6e/class_t___m_e_s_h_1_1_triangle.html#a8691b38a70ff623515691c89945ddd64" target="_top" xlink:title="Return a normal vector with direction (v1&#45;v2) cross (v2&#45;v3). If triangle is degenerate return a null ...">
<polygon fill="white" stroke="black" points="352.5,-617.5 352.5,-636.5 501.5,-636.5 501.5,-617.5 352.5,-617.5"/>
<text text-anchor="middle" x="427" y="-624.5" font-family="Helvetica,sans-Serif" font-size="10.00">T_MESH::Triangle::getNormal</text>
</a>
</g>
</g>
<!-- Node1&#45;&gt;Node22 -->
<g id="edge27" class="edge">
<title>Node1&#45;&gt;Node22</title>
<path fill="none" stroke="midnightblue" d="M65.34,-358.03C73.2,-395.55 98.79,-494.13 159,-547 209.77,-591.58 284.58,-611.33 342.1,-620.07"/>
<polygon fill="midnightblue" stroke="midnightblue" points="341.87,-623.57 352.27,-621.53 342.87,-616.64 341.87,-623.57"/>
</g>
<!-- Node23 -->
<g id="node23" class="node">
<title>Node23</title>
<g id="a_node23"><a xlink:href="../../d3/d04/class_t___m_e_s_h_1_1_list.html#af3baa55cf02bd943635012a489d6c33a" target="_top" xlink:title="Gets the first node, NULL if empty. &#160;&#160;O(1).">
<polygon fill="white" stroke="black" points="182.5,-240.5 182.5,-259.5 288.5,-259.5 288.5,-240.5 182.5,-240.5"/>
<text text-anchor="middle" x="235.5" y="-247.5" font-family="Helvetica,sans-Serif" font-size="10.00">T_MESH::List::head</text>
</a>
</g>
</g>
<!-- Node1&#45;&gt;Node23 -->
<g id="edge32" class="edge">
<title>Node1&#45;&gt;Node23</title>
<path fill="none" stroke="midnightblue" d="M77.87,-327.95C95.86,-311.16 127.26,-284.35 159,-269 163.94,-266.61 169.22,-264.5 174.6,-262.64"/>
<polygon fill="midnightblue" stroke="midnightblue" points="175.86,-265.91 184.34,-259.56 173.75,-259.24 175.86,-265.91"/>
</g>
<!-- Node24 -->
<g id="node24" class="node">
<title>Node24</title>
<g id="a_node24"><a xlink:href="../../da/da2/class_t___m_e_s_h_1_1_edge.html#a0f2457674237bd05c42d68b023502742" target="_top" xlink:title="TRUE iff edge is on the boundary (i.e., one of the two incident triangles is NULL).">
<polygon fill="white" stroke="black" points="159,-202.5 159,-221.5 312,-221.5 312,-202.5 159,-202.5"/>
<text text-anchor="middle" x="235.5" y="-209.5" font-family="Helvetica,sans-Serif" font-size="10.00">T_MESH::Edge::isOnBoundary</text>
</a>
</g>
</g>
<!-- Node1&#45;&gt;Node24 -->
<g id="edge33" class="edge">
<title>Node1&#45;&gt;Node24</title>
<path fill="none" stroke="midnightblue" d="M71.33,-327.69C86.19,-303.33 118.6,-255.94 159,-231 162.56,-228.8 166.36,-226.86 170.29,-225.14"/>
<polygon fill="midnightblue" stroke="midnightblue" points="171.59,-228.39 179.66,-221.52 169.07,-221.86 171.59,-228.39"/>
</g>
<!-- Node25 -->
<g id="node25" class="node">
<title>Node25</title>
<g id="a_node25"><a xlink:href="../../da/d53/class_t___m_e_s_h_1_1_node.html#ae661edb2148691ba90cfe14d73d2545b" target="_top" xlink:title="Returns the next node in the list, possibly NULL.">
<polygon fill="white" stroke="black" points="180,-164.5 180,-183.5 291,-183.5 291,-164.5 180,-164.5"/>
<text text-anchor="middle" x="235.5" y="-171.5" font-family="Helvetica,sans-Serif" font-size="10.00">T_MESH::Node::next</text>
</a>
</g>
</g>
<!-- Node1&#45;&gt;Node25 -->
<g id="edge34" class="edge">
<title>Node1&#45;&gt;Node25</title>
<path fill="none" stroke="midnightblue" d="M67.79,-327.98C79.33,-297.52 109.7,-228.4 159,-193 162.52,-190.47 166.34,-188.28 170.34,-186.38"/>
<polygon fill="midnightblue" stroke="midnightblue" points="171.99,-189.48 179.91,-182.45 169.33,-183.01 171.99,-189.48"/>
</g>
<!-- Node26 -->
<g id="node26" class="node">
<title>Node26</title>
<g id="a_node26"><a xlink:href="../../da/d53/class_t___m_e_s_h_1_1_node.html#aed5d13bba326f240b2058b5a2a28c3c3" target="_top" xlink:title="Returns the previous node in the list, possibly NULL.">
<polygon fill="white" stroke="black" points="180,-126.5 180,-145.5 291,-145.5 291,-126.5 180,-126.5"/>
<text text-anchor="middle" x="235.5" y="-133.5" font-family="Helvetica,sans-Serif" font-size="10.00">T_MESH::Node::prev</text>
</a>
</g>
</g>
<!-- Node1&#45;&gt;Node26 -->
<g id="edge36" class="edge">
<title>Node1&#45;&gt;Node26</title>
<path fill="none" stroke="midnightblue" d="M65.76,-327.86C74.31,-291.95 100.84,-201.22 159,-155 162.55,-152.18 166.46,-149.77 170.58,-147.72"/>
<polygon fill="midnightblue" stroke="midnightblue" points="172.05,-150.9 179.88,-143.76 169.31,-144.46 172.05,-150.9"/>
</g>
<!-- Node27 -->
<g id="node27" class="node">
<title>Node27</title>
<g id="a_node27"><a xlink:href="../../d3/d04/class_t___m_e_s_h_1_1_list.html#aec091d7c66b66c92fe56f06f41f448f4" target="_top" xlink:title="Deletes and removes the node &#39;n&#39; from the list. &#160;&#160;O(1).">
<polygon fill="white" stroke="black" points="942.5,-358.5 942.5,-377.5 1076.5,-377.5 1076.5,-358.5 942.5,-358.5"/>
<text text-anchor="middle" x="1009.5" y="-365.5" font-family="Helvetica,sans-Serif" font-size="10.00">T_MESH::List::removeCell</text>
</a>
</g>
</g>
<!-- Node1&#45;&gt;Node27 -->
<g id="edge38" class="edge">
<title>Node1&#45;&gt;Node27</title>
<path fill="none" stroke="midnightblue" d="M94.96,-358.16C145.57,-379.35 244.5,-410.72 312,-368 343.58,-348.01 316.42,-311.99 348,-292 557.56,-159.38 670.51,-214.22 906,-292 941.16,-303.61 974.09,-332.45 992.73,-351.08"/>
<polygon fill="midnightblue" stroke="midnightblue" points="990.32,-353.63 999.8,-358.36 995.34,-348.75 990.32,-353.63"/>
</g>
<!-- Node28 -->
<g id="node28" class="node">
<title>Node28</title>
<g id="a_node28"><a xlink:href="../../de/df2/class_t___m_e_s_h_1_1_t_mesh.html#a7082f6178fd62e670974e3b7f44947ee" target="_top" xlink:title=" ">
<polygon fill="white" stroke="black" points="173.5,-77 173.5,-107 297.5,-107 297.5,-77 173.5,-77"/>
<text text-anchor="start" x="181.5" y="-95" font-family="Helvetica,sans-Serif" font-size="10.00">T_MESH::TMesh::report</text>
<text text-anchor="middle" x="235.5" y="-84" font-family="Helvetica,sans-Serif" font-size="10.00">_progress</text>
</a>
</g>
</g>
<!-- Node1&#45;&gt;Node28 -->
<g id="edge39" class="edge">
<title>Node1&#45;&gt;Node28</title>
<path fill="none" stroke="midnightblue" d="M64.61,-327.9C71.02,-287.65 93.99,-176.78 159,-117 160.73,-115.41 162.57,-113.91 164.49,-112.51"/>
<polygon fill="midnightblue" stroke="midnightblue" points="166.75,-115.23 173.38,-106.97 163.04,-109.29 166.75,-115.23"/>
</g>
<!-- Node29 -->
<g id="node29" class="node">
<title>Node29</title>
<g id="a_node29"><a xlink:href="../../da/da2/class_t___m_e_s_h_1_1_edge.html#ae8324e00135a5b589f42f9b4fc4dc34e" target="_top" xlink:title="Combinatorial edge&#45;swap.">
<polygon fill="white" stroke="black" points="178,-415.5 178,-434.5 293,-434.5 293,-415.5 178,-415.5"/>
<text text-anchor="middle" x="235.5" y="-422.5" font-family="Helvetica,sans-Serif" font-size="10.00">T_MESH::Edge::swap</text>
</a>
</g>
</g>
<!-- Node1&#45;&gt;Node29 -->
<g id="edge40" class="edge">
<title>Node1&#45;&gt;Node29</title>
<path fill="none" stroke="midnightblue" d="M84.31,-358.13C103.36,-370.85 132.1,-388.84 159,-401 168.4,-405.25 178.77,-409.07 188.74,-412.34"/>
<polygon fill="midnightblue" stroke="midnightblue" points="187.93,-415.76 198.52,-415.44 190.04,-409.08 187.93,-415.76"/>
</g>
<!-- Node43 -->
<g id="node43" class="node">
<title>Node43</title>
<g id="a_node43"><a xlink:href="../../d3/d04/class_t___m_e_s_h_1_1_list.html#a700222ddbd4160a36795249926752f79" target="_top" xlink:title="Gets the last node, NULL if empty. &#160;&#160;O(1).">
<polygon fill="white" stroke="black" points="186.5,-38.5 186.5,-57.5 284.5,-57.5 284.5,-38.5 186.5,-38.5"/>
<text text-anchor="middle" x="235.5" y="-45.5" font-family="Helvetica,sans-Serif" font-size="10.00">T_MESH::List::tail</text>
</a>
</g>
</g>
<!-- Node1&#45;&gt;Node43 -->
<g id="edge60" class="edge">
<title>Node1&#45;&gt;Node43</title>
<path fill="none" stroke="midnightblue" d="M63.03,-327.78C65.52,-281.24 79.57,-139.6 159,-67 164.09,-62.34 170.16,-58.79 176.61,-56.08"/>
<polygon fill="midnightblue" stroke="midnightblue" points="177.98,-59.31 186.26,-52.69 175.66,-52.7 177.98,-59.31"/>
</g>
<!-- Node44 -->
<g id="node44" class="node">
<title>Node44</title>
<g id="a_node44"><a xlink:href="../../de/df2/class_t___m_e_s_h_1_1_t_mesh.html#a858df1d3c985685df741e12996cbe9c7" target="_top" xlink:title=" ">
<polygon fill="white" stroke="black" points="169,-0.5 169,-19.5 302,-19.5 302,-0.5 169,-0.5"/>
<text text-anchor="middle" x="235.5" y="-7.5" font-family="Helvetica,sans-Serif" font-size="10.00">T_MESH::TMesh::warning</text>
</a>
</g>
</g>
<!-- Node1&#45;&gt;Node44 -->
<g id="edge61" class="edge">
<title>Node1&#45;&gt;Node44</title>
<path fill="none" stroke="midnightblue" d="M62.29,-327.91C62.46,-277.52 70.09,-113.44 159,-29 160.51,-27.57 162.11,-26.24 163.78,-25.01"/>
<polygon fill="midnightblue" stroke="midnightblue" points="165.95,-27.79 172.69,-19.62 162.32,-21.8 165.95,-27.79"/>
</g>
<!-- Node6 -->
<g id="node6" class="node">
<title>Node6</title>
<g id="a_node6"><a xlink:href="../../d8/d6e/class_t___m_e_s_h_1_1_triangle.html#a571efd48d91c2b1cb1ec13d31f1dd7bf" target="_top" xlink:title="Angle at vertex &#39;v&#39;. Return &#45;1 if &#39;v&#39; is not a vertex of the triangle.">
<polygon fill="white" stroke="black" points="356,-655.5 356,-674.5 498,-674.5 498,-655.5 356,-655.5"/>
<text text-anchor="middle" x="427" y="-662.5" font-family="Helvetica,sans-Serif" font-size="10.00">T_MESH::Triangle::getAngle</text>
</a>
</g>
</g>
<!-- Node5&#45;&gt;Node6 -->
<g id="edge5" class="edge">
<title>Node5&#45;&gt;Node6</title>
<path fill="none" stroke="midnightblue" d="M308.68,-665C320.78,-665 333.39,-665 345.67,-665"/>
<polygon fill="midnightblue" stroke="midnightblue" points="345.9,-668.5 355.9,-665 345.9,-661.5 345.9,-668.5"/>
</g>
<!-- Node13 -->
<g id="node13" class="node">
<title>Node13</title>
<g id="a_node13"><a xlink:href="../../da/da2/class_t___m_e_s_h_1_1_edge.html#a13a726e51e116322d99f74c81fcbdd72" target="_top" xlink:title="Euclidean length of the edge.">
<polygon fill="white" stroke="black" points="368,-693.5 368,-712.5 486,-712.5 486,-693.5 368,-693.5"/>
<text text-anchor="middle" x="427" y="-700.5" font-family="Helvetica,sans-Serif" font-size="10.00">T_MESH::Edge::length</text>
</a>
</g>
</g>
<!-- Node5&#45;&gt;Node13 -->
<g id="edge14" class="edge">
<title>Node5&#45;&gt;Node13</title>
<path fill="none" stroke="midnightblue" d="M308.68,-679.47C328.45,-683.44 349.62,-687.68 368.45,-691.46"/>
<polygon fill="midnightblue" stroke="midnightblue" points="367.86,-694.91 378.36,-693.45 369.24,-688.05 367.86,-694.91"/>
</g>
<!-- Node5&#45;&gt;Node15 -->
<g id="edge17" class="edge">
<title>Node5&#45;&gt;Node15</title>
<path fill="none" stroke="midnightblue" d="M248.1,-649.83C266.63,-626.67 305.24,-582.67 348,-559 352.89,-556.29 358.16,-553.94 363.57,-551.9"/>
<polygon fill="midnightblue" stroke="midnightblue" points="365.05,-555.09 373.4,-548.56 362.8,-548.47 365.05,-555.09"/>
</g>
<!-- Node16 -->
<g id="node16" class="node">
<title>Node16</title>
<g id="a_node16"><a xlink:href="../../d8/d6e/class_t___m_e_s_h_1_1_triangle.html#a5332cb4780fa56bdd9e95b250defc82c" target="_top" xlink:title="Triangle&#39;s vertex opposite to &#39;e&#39;. NULL if &#39;e&#39; is not an edge of the triangle.">
<polygon fill="white" stroke="black" points="357,-568 357,-598 497,-598 497,-568 357,-568"/>
<text text-anchor="start" x="365" y="-586" font-family="Helvetica,sans-Serif" font-size="10.00">T_MESH::Triangle::opposite</text>
<text text-anchor="middle" x="427" y="-575" font-family="Helvetica,sans-Serif" font-size="10.00">Vertex</text>
</a>
</g>
</g>
<!-- Node5&#45;&gt;Node16 -->
<g id="edge18" class="edge">
<title>Node5&#45;&gt;Node16</title>
<path fill="none" stroke="midnightblue" d="M262.96,-649.93C285.2,-637.64 318.06,-620.36 348,-608 353.47,-605.74 359.23,-603.56 365.03,-601.48"/>
<polygon fill="midnightblue" stroke="midnightblue" points="366.5,-604.68 374.8,-598.1 364.21,-598.06 366.5,-604.68"/>
</g>
<!-- Node5&#45;&gt;Node17 -->
<g id="edge22" class="edge">
<title>Node5&#45;&gt;Node17</title>
<path fill="none" stroke="midnightblue" d="M254.38,-680.41C285.19,-706.96 345.31,-758.63 348,-760 352.61,-762.36 357.53,-764.43 362.57,-766.25"/>
<polygon fill="midnightblue" stroke="midnightblue" points="361.76,-769.67 372.35,-769.45 363.94,-763.02 361.76,-769.67"/>
</g>
<!-- Node18 -->
<g id="node18" class="node">
<title>Node18</title>
<g id="a_node18"><a xlink:href="../../da/da2/class_t___m_e_s_h_1_1_edge.html#a3daee959b7b2c13f21e69e4243438dc4" target="_top" xlink:title="Squared length of the edge.">
<polygon fill="white" stroke="black" points="349.5,-731.5 349.5,-750.5 504.5,-750.5 504.5,-731.5 349.5,-731.5"/>
<text text-anchor="middle" x="427" y="-738.5" font-family="Helvetica,sans-Serif" font-size="10.00">T_MESH::Edge::squaredLength</text>
</a>
</g>
</g>
<!-- Node5&#45;&gt;Node18 -->
<g id="edge23" class="edge">
<title>Node5&#45;&gt;Node18</title>
<path fill="none" stroke="midnightblue" d="M261.85,-680.13C283.96,-692.79 317.23,-710.57 348,-722 354.74,-724.5 361.92,-726.77 369.11,-728.79"/>
<polygon fill="midnightblue" stroke="midnightblue" points="368.29,-732.2 378.86,-731.4 370.1,-725.43 368.29,-732.2"/>
</g>
<!-- Node7 -->
<g id="node7" class="node">
<title>Node7</title>
<g id="a_node7"><a xlink:href="../../d2/d8e/class_t___m_e_s_h_1_1_point.html#a7d19f5b5b98c1999de03da56eab91478" target="_top" xlink:title=" ">
<polygon fill="white" stroke="black" points="559.5,-706.5 559.5,-725.5 689.5,-725.5 689.5,-706.5 559.5,-706.5"/>
<text text-anchor="middle" x="624.5" y="-713.5" font-family="Helvetica,sans-Serif" font-size="10.00">T_MESH::Point::getAngle</text>
</a>
</g>
</g>
<!-- Node6&#45;&gt;Node7 -->
<g id="edge6" class="edge">
<title>Node6&#45;&gt;Node7</title>
<path fill="none" stroke="midnightblue" d="M468.13,-674.56C480.31,-677.52 493.72,-680.83 506,-684 530.41,-690.3 557.57,-697.67 579.63,-703.75"/>
<polygon fill="midnightblue" stroke="midnightblue" points="578.8,-707.15 589.37,-706.44 580.67,-700.41 578.8,-707.15"/>
</g>
<!-- Node9 -->
<g id="node9" class="node">
<title>Node9</title>
<g id="a_node9"><a xlink:href="../../d8/d6e/class_t___m_e_s_h_1_1_triangle.html#aa7b9f783f2e4339083f46d25d3eecf68" target="_top" xlink:title="First vertex.">
<polygon fill="white" stroke="black" points="567.5,-592.5 567.5,-611.5 681.5,-611.5 681.5,-592.5 567.5,-592.5"/>
<text text-anchor="middle" x="624.5" y="-599.5" font-family="Helvetica,sans-Serif" font-size="10.00">T_MESH::Triangle::v1</text>
</a>
</g>
</g>
<!-- Node6&#45;&gt;Node9 -->
<g id="edge8" class="edge">
<title>Node6&#45;&gt;Node9</title>
<path fill="none" stroke="midnightblue" d="M478.84,-655.49C488.08,-652.96 497.48,-649.83 506,-646 523.76,-638 524.2,-628.91 542,-621 547.66,-618.48 553.7,-616.28 559.83,-614.35"/>
<polygon fill="midnightblue" stroke="midnightblue" points="560.88,-617.69 569.51,-611.55 558.93,-610.97 560.88,-617.69"/>
</g>
<!-- Node11 -->
<g id="node11" class="node">
<title>Node11</title>
<g id="a_node11"><a xlink:href="../../d8/d6e/class_t___m_e_s_h_1_1_triangle.html#a1bf6a231440a3c73a931c1cfccfee574" target="_top" xlink:title="Second vertex.">
<polygon fill="white" stroke="black" points="567.5,-554.5 567.5,-573.5 681.5,-573.5 681.5,-554.5 567.5,-554.5"/>
<text text-anchor="middle" x="624.5" y="-561.5" font-family="Helvetica,sans-Serif" font-size="10.00">T_MESH::Triangle::v2</text>
</a>
</g>
</g>
<!-- Node6&#45;&gt;Node11 -->
<g id="edge10" class="edge">
<title>Node6&#45;&gt;Node11</title>
<path fill="none" stroke="midnightblue" d="M489.01,-655.4C495.08,-652.94 500.88,-649.86 506,-646 531.76,-626.6 516.14,-602.27 542,-583 546.78,-579.44 552.11,-576.53 557.71,-574.16"/>
<polygon fill="midnightblue" stroke="midnightblue" points="559.12,-577.37 567.32,-570.66 556.72,-570.8 559.12,-577.37"/>
</g>
<!-- Node12 -->
<g id="node12" class="node">
<title>Node12</title>
<g id="a_node12"><a xlink:href="../../d8/d6e/class_t___m_e_s_h_1_1_triangle.html#a0c4c2a2ba6b0c975aa3d260f00785e8f" target="_top" xlink:title="Third vertex.">
<polygon fill="white" stroke="black" points="567.5,-630.5 567.5,-649.5 681.5,-649.5 681.5,-630.5 567.5,-630.5"/>
<text text-anchor="middle" x="624.5" y="-637.5" font-family="Helvetica,sans-Serif" font-size="10.00">T_MESH::Triangle::v3</text>
</a>
</g>
</g>
<!-- Node6&#45;&gt;Node12 -->
<g id="edge12" class="edge">
<title>Node6&#45;&gt;Node12</title>
<path fill="none" stroke="midnightblue" d="M498.03,-656.05C517.35,-653.57 538.24,-650.9 557.33,-648.46"/>
<polygon fill="midnightblue" stroke="midnightblue" points="557.95,-651.91 567.43,-647.17 557.07,-644.97 557.95,-651.91"/>
</g>
<!-- Node8 -->
<g id="node8" class="node">
<title>Node8</title>
<g id="a_node8"><a xlink:href="../../d2/d8e/class_t___m_e_s_h_1_1_point.html#a61ce9f22ddfe41f036566d4a2f920ac4" target="_top" xlink:title="Distance from origin.">
<polygon fill="white" stroke="black" points="765.5,-706.5 765.5,-725.5 883.5,-725.5 883.5,-706.5 765.5,-706.5"/>
<text text-anchor="middle" x="824.5" y="-713.5" font-family="Helvetica,sans-Serif" font-size="10.00">T_MESH::Point::length</text>
</a>
</g>
</g>
<!-- Node7&#45;&gt;Node8 -->
<g id="edge7" class="edge">
<title>Node7&#45;&gt;Node8</title>
<path fill="none" stroke="midnightblue" d="M689.51,-716C710.48,-716 733.86,-716 755.14,-716"/>
<polygon fill="midnightblue" stroke="midnightblue" points="755.4,-719.5 765.4,-716 755.4,-712.5 755.4,-719.5"/>
</g>
<!-- Node10 -->
<g id="node10" class="node">
<title>Node10</title>
<g id="a_node10"><a xlink:href="../../da/da2/class_t___m_e_s_h_1_1_edge.html#a560eca8895471f987bd3228b13c40052" target="_top" xlink:title="Vertex shared with edge &#39;b&#39;. NULL if this and &#39;b&#39; do not share any vertex.">
<polygon fill="white" stroke="black" points="746,-605.5 746,-624.5 903,-624.5 903,-605.5 746,-605.5"/>
<text text-anchor="middle" x="824.5" y="-612.5" font-family="Helvetica,sans-Serif" font-size="10.00">T_MESH::Edge::commonVertex</text>
</a>
</g>
</g>
<!-- Node9&#45;&gt;Node10 -->
<g id="edge9" class="edge">
<title>Node9&#45;&gt;Node10</title>
<path fill="none" stroke="midnightblue" d="M681.71,-605.69C698.49,-606.79 717.31,-608.03 735.62,-609.23"/>
<polygon fill="midnightblue" stroke="midnightblue" points="735.51,-612.73 745.72,-609.89 735.97,-605.75 735.51,-612.73"/>
</g>
<!-- Node11&#45;&gt;Node10 -->
<g id="edge11" class="edge">
<title>Node11&#45;&gt;Node10</title>
<path fill="none" stroke="midnightblue" d="M670.59,-573.51C682.5,-576.3 695.3,-579.54 707,-583 723.31,-587.83 726.69,-591.15 743,-596 751.4,-598.5 760.37,-600.89 769.16,-603.07"/>
<polygon fill="midnightblue" stroke="midnightblue" points="768.43,-606.5 778.97,-605.45 770.08,-599.69 768.43,-606.5"/>
</g>
<!-- Node12&#45;&gt;Node10 -->
<g id="edge13" class="edge">
<title>Node12&#45;&gt;Node10</title>
<path fill="none" stroke="midnightblue" d="M681.71,-632.9C699.15,-630.7 718.79,-628.22 737.77,-625.82"/>
<polygon fill="midnightblue" stroke="midnightblue" points="738.44,-629.27 747.92,-624.54 737.56,-622.32 738.44,-629.27"/>
</g>
<!-- Node14 -->
<g id="node14" class="node">
<title>Node14</title>
<g id="a_node14"><a xlink:href="../../d2/d8e/class_t___m_e_s_h_1_1_point.html#a8261009d0497d23fdb28ac451f70cc64" target="_top" xlink:title="Distance from &#39;b&#39;.">
<polygon fill="white" stroke="black" points="560.5,-744.5 560.5,-763.5 688.5,-763.5 688.5,-744.5 560.5,-744.5"/>
<text text-anchor="middle" x="624.5" y="-751.5" font-family="Helvetica,sans-Serif" font-size="10.00">T_MESH::Point::distance</text>
</a>
</g>
</g>
<!-- Node13&#45;&gt;Node14 -->
<g id="edge15" class="edge">
<title>Node13&#45;&gt;Node14</title>
<path fill="none" stroke="midnightblue" d="M470.73,-712.53C482.25,-715.34 494.66,-718.58 506,-722 522.29,-726.91 525.69,-730.17 542,-735 550.5,-737.52 559.58,-739.91 568.48,-742.1"/>
<polygon fill="midnightblue" stroke="midnightblue" points="567.87,-745.56 578.41,-744.49 569.51,-738.75 567.87,-745.56"/>
</g>
<!-- Node14&#45;&gt;Node8 -->
<g id="edge16" class="edge">
<title>Node14&#45;&gt;Node8</title>
<path fill="none" stroke="midnightblue" d="M675.21,-744.46C702.04,-739.31 735.36,-732.92 763.61,-727.49"/>
<polygon fill="midnightblue" stroke="midnightblue" points="764.61,-730.87 773.77,-725.54 763.29,-723.99 764.61,-730.87"/>
</g>
<!-- Node16&#45;&gt;Node9 -->
<g id="edge19" class="edge">
<title>Node16&#45;&gt;Node9</title>
<path fill="none" stroke="midnightblue" d="M497.2,-589.73C516.66,-591.62 537.78,-593.67 557.07,-595.54"/>
<polygon fill="midnightblue" stroke="midnightblue" points="556.98,-599.05 567.28,-596.54 557.66,-592.08 556.98,-599.05"/>
</g>
<!-- Node16&#45;&gt;Node11 -->
<g id="edge20" class="edge">
<title>Node16&#45;&gt;Node11</title>
<path fill="none" stroke="midnightblue" d="M497.2,-576.27C516.66,-574.38 537.78,-572.33 557.07,-570.46"/>
<polygon fill="midnightblue" stroke="midnightblue" points="557.66,-573.92 567.28,-569.46 556.98,-566.95 557.66,-573.92"/>
</g>
<!-- Node16&#45;&gt;Node12 -->
<g id="edge21" class="edge">
<title>Node16&#45;&gt;Node12</title>
<path fill="none" stroke="midnightblue" d="M475.94,-598.06C485.9,-601.28 496.31,-604.7 506,-608 522.1,-613.49 525.69,-616.17 542,-621 550.5,-623.52 559.58,-625.91 568.48,-628.1"/>
<polygon fill="midnightblue" stroke="midnightblue" points="567.87,-631.56 578.41,-630.49 569.51,-624.75 567.87,-631.56"/>
</g>
<!-- Node19 -->
<g id="node19" class="node">
<title>Node19</title>
<g id="a_node19"><a xlink:href="../../d2/d8e/class_t___m_e_s_h_1_1_point.html#a91e129190fdfb3a70c287f77ec9c7851" target="_top" xlink:title="Squared distance from &#39;*b&#39;.">
<polygon fill="white" stroke="black" points="542,-782.5 542,-801.5 707,-801.5 707,-782.5 542,-782.5"/>
<text text-anchor="middle" x="624.5" y="-789.5" font-family="Helvetica,sans-Serif" font-size="10.00">T_MESH::Point::squaredDistance</text>
</a>
</g>
</g>
<!-- Node18&#45;&gt;Node19 -->
<g id="edge24" class="edge">
<title>Node18&#45;&gt;Node19</title>
<path fill="none" stroke="midnightblue" d="M470.73,-750.53C482.25,-753.34 494.66,-756.58 506,-760 522.29,-764.91 525.69,-768.17 542,-773 550.5,-775.52 559.58,-777.91 568.48,-780.1"/>
<polygon fill="midnightblue" stroke="midnightblue" points="567.87,-783.56 578.41,-782.49 569.51,-776.75 567.87,-783.56"/>
</g>
<!-- Node20 -->
<g id="node20" class="node">
<title>Node20</title>
<g id="a_node20"><a xlink:href="../../d2/d8e/class_t___m_e_s_h_1_1_point.html#a9772b28d248a5198f2421bd510f263ba" target="_top" xlink:title="Squared distance from origin.">
<polygon fill="white" stroke="black" points="747,-782.5 747,-801.5 902,-801.5 902,-782.5 747,-782.5"/>
<text text-anchor="middle" x="824.5" y="-789.5" font-family="Helvetica,sans-Serif" font-size="10.00">T_MESH::Point::squaredLength</text>
</a>
</g>
</g>
<!-- Node19&#45;&gt;Node20 -->
<g id="edge25" class="edge">
<title>Node19&#45;&gt;Node20</title>
<path fill="none" stroke="midnightblue" d="M707.18,-792C716.9,-792 726.86,-792 736.65,-792"/>
<polygon fill="midnightblue" stroke="midnightblue" points="736.78,-795.5 746.78,-792 736.78,-788.5 736.78,-795.5"/>
</g>
<!-- Node22&#45;&gt;Node8 -->
<g id="edge28" class="edge">
<title>Node22&#45;&gt;Node8</title>
<path fill="none" stroke="midnightblue" d="M470.73,-636.53C482.25,-639.34 494.66,-642.58 506,-646 522.29,-650.91 525.62,-654.41 542,-659 613.91,-679.15 698.02,-695.23 755.45,-705.11"/>
<polygon fill="midnightblue" stroke="midnightblue" points="755.05,-708.59 765.49,-706.82 756.22,-701.69 755.05,-708.59"/>
</g>
<!-- Node22&#45;&gt;Node9 -->
<g id="edge29" class="edge">
<title>Node22&#45;&gt;Node9</title>
<path fill="none" stroke="midnightblue" d="M501.63,-617.58C519.9,-615.25 539.37,-612.76 557.27,-610.47"/>
<polygon fill="midnightblue" stroke="midnightblue" points="557.84,-613.93 567.31,-609.19 556.95,-606.98 557.84,-613.93"/>
</g>
<!-- Node22&#45;&gt;Node11 -->
<g id="edge30" class="edge">
<title>Node22&#45;&gt;Node11</title>
<path fill="none" stroke="midnightblue" d="M478.84,-617.49C488.08,-614.96 497.48,-611.83 506,-608 523.76,-600 524.2,-590.91 542,-583 547.66,-580.48 553.7,-578.28 559.83,-576.35"/>
<polygon fill="midnightblue" stroke="midnightblue" points="560.88,-579.69 569.51,-573.55 558.93,-572.97 560.88,-579.69"/>
</g>
<!-- Node22&#45;&gt;Node12 -->
<g id="edge31" class="edge">
<title>Node22&#45;&gt;Node12</title>
<path fill="none" stroke="midnightblue" d="M501.63,-631.9C519.9,-633.11 539.37,-634.41 557.27,-635.6"/>
<polygon fill="midnightblue" stroke="midnightblue" points="557.1,-639.09 567.31,-636.26 557.57,-632.11 557.1,-639.09"/>
</g>
<!-- Node29&#45;&gt;Node15 -->
<g id="edge56" class="edge">
<title>Node29&#45;&gt;Node15</title>
<path fill="none" stroke="midnightblue" d="M252.33,-434.52C285.35,-454.39 361.79,-500.37 401.33,-524.16"/>
<polygon fill="midnightblue" stroke="midnightblue" points="399.71,-527.27 410.08,-529.42 403.32,-521.27 399.71,-527.27"/>
</g>
<!-- Node29&#45;&gt;Node16 -->
<g id="edge57" class="edge">
<title>Node29&#45;&gt;Node16</title>
<path fill="none" stroke="midnightblue" d="M241.91,-434.63C256.07,-458.99 296.73,-523.55 348,-558 350.92,-559.96 354.01,-561.78 357.2,-563.46"/>
<polygon fill="midnightblue" stroke="midnightblue" points="355.88,-566.71 366.42,-567.85 358.89,-560.39 355.88,-566.71"/>
</g>
<!-- Node30 -->
<g id="node30" class="node">
<title>Node30</title>
<g id="a_node30"><a xlink:href="../../d5/d7f/class_t___m_e_s_h_1_1_vertex.html#af74a29c7daa03825b0156bfe7f64052a" target="_top" xlink:title="Returns the edge connecting this vertex to &#39;v&#39;. NULL if such an edge does not exist.">
<polygon fill="white" stroke="black" points="360.5,-415.5 360.5,-434.5 493.5,-434.5 493.5,-415.5 360.5,-415.5"/>
<text text-anchor="middle" x="427" y="-422.5" font-family="Helvetica,sans-Serif" font-size="10.00">T_MESH::Vertex::getEdge</text>
</a>
</g>
</g>
<!-- Node29&#45;&gt;Node30 -->
<g id="edge41" class="edge">
<title>Node29&#45;&gt;Node30</title>
<path fill="none" stroke="midnightblue" d="M293.1,-425C311.03,-425 331.16,-425 350.21,-425"/>
<polygon fill="midnightblue" stroke="midnightblue" points="350.37,-428.5 360.37,-425 350.37,-421.5 350.37,-428.5"/>
</g>
<!-- Node39 -->
<g id="node39" class="node">
<title>Node39</title>
<g id="a_node39"><a xlink:href="../../d8/d6e/class_t___m_e_s_h_1_1_triangle.html#af789c5046616376fe9458a62757b728b" target="_top" xlink:title="Inverts the orientation of the triangle.">
<polygon fill="white" stroke="black" points="363,-301.5 363,-320.5 491,-320.5 491,-301.5 363,-301.5"/>
<text text-anchor="middle" x="427" y="-308.5" font-family="Helvetica,sans-Serif" font-size="10.00">T_MESH::Triangle::invert</text>
</a>
</g>
</g>
<!-- Node29&#45;&gt;Node39 -->
<g id="edge54" class="edge">
<title>Node29&#45;&gt;Node39</title>
<path fill="none" stroke="midnightblue" d="M286.14,-415.42C295.44,-411.99 304.56,-407.33 312,-401 338.95,-378.08 320.27,-351.98 348,-330 350.3,-328.17 352.76,-326.52 355.32,-325.02"/>
<polygon fill="midnightblue" stroke="midnightblue" points="357.01,-328.09 364.4,-320.51 353.89,-321.83 357.01,-328.09"/>
</g>
<!-- Node41 -->
<g id="node41" class="node">
<title>Node41</title>
<g id="a_node41"><a xlink:href="../../d8/d6e/class_t___m_e_s_h_1_1_triangle.html#a4c2d4262f06232e3a7cd1a8bd1a0298b" target="_top" xlink:title="Replace edge &#39;a&#39; with edge &#39;b&#39; in the triangle and return TRUE. If &#39;a&#39; is not an edge of the triangle...">
<polygon fill="white" stroke="black" points="348,-339.5 348,-358.5 506,-358.5 506,-339.5 348,-339.5"/>
<text text-anchor="middle" x="427" y="-346.5" font-family="Helvetica,sans-Serif" font-size="10.00">T_MESH::Triangle::replaceEdge</text>
</a>
</g>
</g>
<!-- Node29&#45;&gt;Node41 -->
<g id="edge58" class="edge">
<title>Node29&#45;&gt;Node41</title>
<path fill="none" stroke="midnightblue" d="M277.84,-415.39C289.33,-411.8 301.53,-407.06 312,-401 330.78,-390.12 328.85,-378.22 348,-368 352.31,-365.7 356.9,-363.67 361.61,-361.89"/>
<polygon fill="midnightblue" stroke="midnightblue" points="363.07,-365.09 371.41,-358.56 360.81,-358.46 363.07,-365.09"/>
</g>
<!-- Node42 -->
<g id="node42" class="node">
<title>Node42</title>
<g id="a_node42"><a xlink:href="../../da/da2/class_t___m_e_s_h_1_1_edge.html#a96d7a013a37e724352108c9fac25bbf5" target="_top" xlink:title="Replace incident triangle &#39;a&#39; with &#39;b&#39; and return TRUE. If &#39;a&#39; is not incident to the edge return FAL...">
<polygon fill="white" stroke="black" points="348,-377.5 348,-396.5 506,-396.5 506,-377.5 348,-377.5"/>
<text text-anchor="middle" x="427" y="-384.5" font-family="Helvetica,sans-Serif" font-size="10.00">T_MESH::Edge::replaceTriangle</text>
</a>
</g>
</g>
<!-- Node29&#45;&gt;Node42 -->
<g id="edge59" class="edge">
<title>Node29&#45;&gt;Node42</title>
<path fill="none" stroke="midnightblue" d="M284.32,-415.41C309.89,-410.28 341.56,-403.93 368.47,-398.54"/>
<polygon fill="midnightblue" stroke="midnightblue" points="369.41,-401.92 378.53,-396.52 368.03,-395.05 369.41,-401.92"/>
</g>
<!-- Node31 -->
<g id="node31" class="node">
<title>Node31</title>
<g id="a_node31"><a xlink:href="../../da/da2/class_t___m_e_s_h_1_1_edge.html#aef981891343c94489f00b060bd654b6c" target="_top" xlink:title="Vertex opposite to &#39;v&#39;. NULL if &#39;v&#39; is not a vertex of the edge.">
<polygon fill="white" stroke="black" points="746.5,-301.5 746.5,-320.5 902.5,-320.5 902.5,-301.5 746.5,-301.5"/>
<text text-anchor="middle" x="824.5" y="-308.5" font-family="Helvetica,sans-Serif" font-size="10.00">T_MESH::Edge::oppositeVertex</text>
</a>
</g>
</g>
<!-- Node30&#45;&gt;Node31 -->
<g id="edge42" class="edge">
<title>Node30&#45;&gt;Node31</title>
<path fill="none" stroke="midnightblue" d="M469.43,-415.49C481.29,-412.61 494.19,-409.33 506,-406 612.47,-376 636.42,-359.62 743,-330 751.84,-327.54 761.28,-325.13 770.47,-322.89"/>
<polygon fill="midnightblue" stroke="midnightblue" points="771.4,-326.27 780.31,-320.54 769.77,-319.46 771.4,-326.27"/>
</g>
<!-- Node32 -->
<g id="node32" class="node">
<title>Node32</title>
<g id="a_node32"><a xlink:href="../../d5/d7f/class_t___m_e_s_h_1_1_vertex.html#a66b49df1416ddcee6be0e1abe3aadda9" target="_top" xlink:title="List of incident edges.">
<polygon fill="white" stroke="black" points="569.5,-415.5 569.5,-434.5 679.5,-434.5 679.5,-415.5 569.5,-415.5"/>
<text text-anchor="middle" x="624.5" y="-422.5" font-family="Helvetica,sans-Serif" font-size="10.00">T_MESH::Vertex::VE</text>
</a>
</g>
</g>
<!-- Node30&#45;&gt;Node32 -->
<g id="edge43" class="edge">
<title>Node30&#45;&gt;Node32</title>
<path fill="none" stroke="midnightblue" d="M493.64,-425C514.81,-425 538.23,-425 559.29,-425"/>
<polygon fill="midnightblue" stroke="midnightblue" points="559.41,-428.5 569.41,-425 559.41,-421.5 559.41,-428.5"/>
</g>
<!-- Node32&#45;&gt;Node2 -->
<g id="edge44" class="edge">
<title>Node32&#45;&gt;Node2</title>
<path fill="none" stroke="midnightblue" d="M642.28,-434.59C660.13,-445.46 688.33,-464.6 707,-487 729.65,-514.18 715.19,-536.12 743,-558 745.2,-559.73 747.53,-561.31 749.96,-562.74"/>
<polygon fill="midnightblue" stroke="midnightblue" points="748.62,-565.99 759.13,-567.36 751.77,-559.74 748.62,-565.99"/>
</g>
<!-- Node32&#45;&gt;Node3 -->
<g id="edge45" class="edge">
<title>Node32&#45;&gt;Node3</title>
<path fill="none" stroke="midnightblue" d="M679.91,-434.29C689.65,-437.75 699.18,-442.49 707,-449 734.2,-471.63 715.19,-498.12 743,-520 745.2,-521.73 747.53,-523.31 749.96,-524.74"/>
<polygon fill="midnightblue" stroke="midnightblue" points="748.62,-527.99 759.13,-529.36 751.77,-521.74 748.62,-527.99"/>
</g>
<!-- Node32&#45;&gt;Node31 -->
<g id="edge50" class="edge">
<title>Node32&#45;&gt;Node31</title>
<path fill="none" stroke="midnightblue" d="M650.96,-415.35C668.09,-408 690.48,-396.65 707,-382 728.03,-363.35 719.78,-345.84 743,-330 745.94,-328 749.06,-326.2 752.3,-324.6"/>
<polygon fill="midnightblue" stroke="midnightblue" points="753.9,-327.72 761.71,-320.56 751.14,-321.29 753.9,-327.72"/>
</g>
<!-- Node33 -->
<g id="node33" class="node">
<title>Node33</title>
<g id="a_node33"><a xlink:href="../../da/da2/class_t___m_e_s_h_1_1_edge.html#a96830b6d677fab318268f287682ad151" target="_top" xlink:title="Triangle on the left of the edge when looking from &#39;v&#39;. NULL if &#39;v&#39; is not a vertex of the edge.">
<polygon fill="white" stroke="black" points="754.5,-377.5 754.5,-396.5 894.5,-396.5 894.5,-377.5 754.5,-377.5"/>
<text text-anchor="middle" x="824.5" y="-384.5" font-family="Helvetica,sans-Serif" font-size="10.00">T_MESH::Edge::leftTriangle</text>
</a>
</g>
</g>
<!-- Node32&#45;&gt;Node33 -->
<g id="edge46" class="edge">
<title>Node32&#45;&gt;Node33</title>
<path fill="none" stroke="midnightblue" d="M675.21,-415.46C702.04,-410.31 735.36,-403.92 763.61,-398.49"/>
<polygon fill="midnightblue" stroke="midnightblue" points="764.61,-401.87 773.77,-396.54 763.29,-394.99 764.61,-401.87"/>
</g>
<!-- Node34 -->
<g id="node34" class="node">
<title>Node34</title>
<g id="a_node34"><a xlink:href="../../d3/d04/class_t___m_e_s_h_1_1_list.html#af0e61026072f65c9ba882df526acfd2e" target="_top" xlink:title="Gets the number of elements. &#160;&#160;O(1).">
<polygon fill="white" stroke="black" points="766.5,-339.5 766.5,-358.5 882.5,-358.5 882.5,-339.5 766.5,-339.5"/>
<text text-anchor="middle" x="824.5" y="-346.5" font-family="Helvetica,sans-Serif" font-size="10.00">T_MESH::List::numels</text>
</a>
</g>
</g>
<!-- Node32&#45;&gt;Node34 -->
<g id="edge47" class="edge">
<title>Node32&#45;&gt;Node34</title>
<path fill="none" stroke="midnightblue" d="M642.12,-415.49C664.44,-403.05 705.62,-381.3 743,-368 750.15,-365.46 757.78,-363.15 765.38,-361.1"/>
<polygon fill="midnightblue" stroke="midnightblue" points="766.51,-364.43 775.32,-358.55 764.77,-357.65 766.51,-364.43"/>
</g>
<!-- Node35 -->
<g id="node35" class="node">
<title>Node35</title>
<g id="a_node35"><a xlink:href="../../d8/d6e/class_t___m_e_s_h_1_1_triangle.html#a77cc688b97fd6501b5dca8385fce4137" target="_top" xlink:title="Triangle&#39;s edge opposite to &#39;v&#39;. NULL if &#39;v&#39; is not a vertex of the triangle.">
<polygon fill="white" stroke="black" points="743,-491.5 743,-510.5 906,-510.5 906,-491.5 743,-491.5"/>
<text text-anchor="middle" x="824.5" y="-498.5" font-family="Helvetica,sans-Serif" font-size="10.00">T_MESH::Triangle::oppositeEdge</text>
</a>
</g>
</g>
<!-- Node32&#45;&gt;Node35 -->
<g id="edge48" class="edge">
<title>Node32&#45;&gt;Node35</title>
<path fill="none" stroke="midnightblue" d="M671.4,-434.57C683.43,-438.12 696.08,-442.83 707,-449 725.9,-459.67 723.82,-471.85 743,-482 747.49,-484.37 752.27,-486.46 757.18,-488.28"/>
<polygon fill="midnightblue" stroke="midnightblue" points="756.14,-491.62 766.73,-491.48 758.36,-484.98 756.14,-491.62"/>
</g>
<!-- Node37 -->
<g id="node37" class="node">
<title>Node37</title>
<g id="a_node37"><a xlink:href="../../d3/d04/class_t___m_e_s_h_1_1_list.html#a9701d1b3769b92b7d2a7ed6da895a863" target="_top" xlink:title="Deletes and removes the first node. Returns its data. &#160;&#160;O(1).">
<polygon fill="white" stroke="black" points="762.5,-453.5 762.5,-472.5 886.5,-472.5 886.5,-453.5 762.5,-453.5"/>
<text text-anchor="middle" x="824.5" y="-460.5" font-family="Helvetica,sans-Serif" font-size="10.00">T_MESH::List::popHead</text>
</a>
</g>
</g>
<!-- Node32&#45;&gt;Node37 -->
<g id="edge51" class="edge">
<title>Node32&#45;&gt;Node37</title>
<path fill="none" stroke="midnightblue" d="M675.21,-434.54C702.04,-439.69 735.36,-446.08 763.61,-451.51"/>
<polygon fill="midnightblue" stroke="midnightblue" points="763.29,-455.01 773.77,-453.46 764.61,-448.13 763.29,-455.01"/>
</g>
<!-- Node38 -->
<g id="node38" class="node">
<title>Node38</title>
<g id="a_node38"><a xlink:href="../../da/da2/class_t___m_e_s_h_1_1_edge.html#aa9788a51d590116555c8a062e253a197" target="_top" xlink:title="Triangle on the right of the edge when looking from &#39;v&#39;. NULL if &#39;v&#39; is not a vertex of the edge.">
<polygon fill="white" stroke="black" points="752,-415.5 752,-434.5 897,-434.5 897,-415.5 752,-415.5"/>
<text text-anchor="middle" x="824.5" y="-422.5" font-family="Helvetica,sans-Serif" font-size="10.00">T_MESH::Edge::rightTriangle</text>
</a>
</g>
</g>
<!-- Node32&#45;&gt;Node38 -->
<g id="edge53" class="edge">
<title>Node32&#45;&gt;Node38</title>
<path fill="none" stroke="midnightblue" d="M679.6,-425C698.79,-425 720.83,-425 741.81,-425"/>
<polygon fill="midnightblue" stroke="midnightblue" points="742,-428.5 752,-425 742,-421.5 742,-428.5"/>
</g>
<!-- Node36 -->
<g id="node36" class="node">
<title>Node36</title>
<g id="a_node36"><a xlink:href="../../da/da2/class_t___m_e_s_h_1_1_edge.html#a7d7329ff24b7b6eb2eceee39711dd650" target="_top" xlink:title="TRUE iff &#39;v&#39; is an end&#45;point of the edge.">
<polygon fill="white" stroke="black" points="942,-491.5 942,-510.5 1077,-510.5 1077,-491.5 942,-491.5"/>
<text text-anchor="middle" x="1009.5" y="-498.5" font-family="Helvetica,sans-Serif" font-size="10.00">T_MESH::Edge::hasVertex</text>
</a>
</g>
</g>
<!-- Node35&#45;&gt;Node36 -->
<g id="edge49" class="edge">
<title>Node35&#45;&gt;Node36</title>
<path fill="none" stroke="midnightblue" d="M906.03,-501C914.55,-501 923.2,-501 931.68,-501"/>
<polygon fill="midnightblue" stroke="midnightblue" points="931.92,-504.5 941.92,-501 931.92,-497.5 931.92,-504.5"/>
</g>
<!-- Node37&#45;&gt;Node27 -->
<g id="edge52" class="edge">
<title>Node37&#45;&gt;Node27</title>
<path fill="none" stroke="midnightblue" d="M879.78,-453.38C888.75,-450.9 897.8,-447.81 906,-444 939.05,-428.65 971.95,-401.64 991.24,-384.3"/>
<polygon fill="midnightblue" stroke="midnightblue" points="993.63,-386.86 998.64,-377.52 988.9,-381.7 993.63,-386.86"/>
</g>
<!-- Node40 -->
<g id="node40" class="node">
<title>Node40</title>
<g id="a_node40"><a xlink:href="../../de/df9/namespace_t___m_e_s_h.html#a450b61a3a6c19cbbaf693a1a84c6d616" target="_top" xlink:title=" ">
<polygon fill="white" stroke="black" points="576,-301.5 576,-320.5 673,-320.5 673,-301.5 576,-301.5"/>
<text text-anchor="middle" x="624.5" y="-308.5" font-family="Helvetica,sans-Serif" font-size="10.00">T_MESH::p_swap</text>
</a>
</g>
</g>
<!-- Node39&#45;&gt;Node40 -->
<g id="edge55" class="edge">
<title>Node39&#45;&gt;Node40</title>
<path fill="none" stroke="midnightblue" d="M491.2,-311C515.11,-311 542.18,-311 565.58,-311"/>
<polygon fill="midnightblue" stroke="midnightblue" points="565.7,-314.5 575.7,-311 565.7,-307.5 565.7,-314.5"/>
</g>
</g>
</svg>
