<?xml version="1.0" encoding="UTF-8" standalone="no"?>
<!DOCTYPE svg PUBLIC "-//W3C//DTD SVG 1.1//EN"
 "http://www.w3.org/Graphics/SVG/1.1/DTD/svg11.dtd">
<!-- Generated by graphviz version 2.44.1 (0)
 -->
<!-- Title: T_MESH::Basic_TMesh::normalize Pages: 1 -->
<svg width="296pt" height="78pt"
 viewBox="0.00 0.00 296.00 77.50" xmlns="http://www.w3.org/2000/svg" xmlns:xlink="http://www.w3.org/1999/xlink">
<g id="graph0" class="graph" transform="scale(1 1) rotate(0) translate(4 73.5)">
<title>T_MESH::Basic_TMesh::normalize</title>
<polygon fill="white" stroke="transparent" points="-4,4 -4,-73.5 292,-73.5 292,4 -4,4"/>
<!-- Node1 -->
<g id="node1" class="node">
<title>Node1</title>
<g id="a_node1"><a xlink:title="Scale the mesh to make it fit within a cube [0,0,0]&#45;[s,s,s]. O(N).">
<polygon fill="#bfbfbf" stroke="black" points="0,-17 0,-47 123,-47 123,-17 0,-17"/>
<text text-anchor="start" x="8" y="-35" font-family="Helvetica,sans-Serif" font-size="10.00">T_MESH::Basic_TMesh</text>
<text text-anchor="middle" x="61.5" y="-24" font-family="Helvetica,sans-Serif" font-size="10.00">::normalize</text>
</a>
</g>
</g>
<!-- Node2 -->
<g id="node2" class="node">
<title>Node2</title>
<g id="a_node2"><a xlink:href="../../d6/d27/class_t___m_e_s_h_1_1_basic___t_mesh.html#a0fde7560f4781428338f067e79a544ef" target="_top" xlink:title="Bounding box longest edge. &#39;b&#39; and &#39;t&#39; are set as the longest diagonal end&#45;points....">
<polygon fill="white" stroke="black" points="162,-39 162,-69 285,-69 285,-39 162,-39"/>
<text text-anchor="start" x="170" y="-57" font-family="Helvetica,sans-Serif" font-size="10.00">T_MESH::Basic_TMesh</text>
<text text-anchor="middle" x="223.5" y="-46" font-family="Helvetica,sans-Serif" font-size="10.00">::getBoundingBox</text>
</a>
</g>
</g>
<!-- Node1&#45;&gt;Node2 -->
<g id="edge1" class="edge">
<title>Node1&#45;&gt;Node2</title>
<path fill="none" stroke="midnightblue" d="M123.45,-40.38C132.72,-41.66 142.36,-42.98 151.82,-44.28"/>
<polygon fill="midnightblue" stroke="midnightblue" points="151.61,-47.78 161.99,-45.68 152.56,-40.85 151.61,-47.78"/>
</g>
<!-- Node3 -->
<g id="node3" class="node">
<title>Node3</title>
<g id="a_node3"><a xlink:href="../../d2/d8e/class_t___m_e_s_h_1_1_point.html#a5297bdff57822d8539beeb21eaccebdc" target="_top" xlink:title="Set the coordinates to (a,b,c).">
<polygon fill="white" stroke="black" points="159,-0.5 159,-19.5 288,-19.5 288,-0.5 159,-0.5"/>
<text text-anchor="middle" x="223.5" y="-7.5" font-family="Helvetica,sans-Serif" font-size="10.00">T_MESH::Point::setValue</text>
</a>
</g>
</g>
<!-- Node1&#45;&gt;Node3 -->
<g id="edge2" class="edge">
<title>Node1&#45;&gt;Node3</title>
<path fill="none" stroke="midnightblue" d="M123.45,-23.62C131.76,-22.48 140.37,-21.29 148.88,-20.12"/>
<polygon fill="midnightblue" stroke="midnightblue" points="149.37,-23.59 158.8,-18.76 148.42,-16.65 149.37,-23.59"/>
</g>
</g>
</svg>
