<?xml version="1.0" encoding="UTF-8" standalone="no"?>
<!DOCTYPE svg PUBLIC "-//W3C//DTD SVG 1.1//EN"
 "http://www.w3.org/Graphics/SVG/1.1/DTD/svg11.dtd">
<!-- Generated by graphviz version 2.44.1 (0)
 -->
<!-- Title: T_MESH::Basic_TMesh::removeUnlinkedElements Pages: 1 -->
<svg width="471pt" height="180pt"
 viewBox="0.00 0.00 471.00 180.00" xmlns="http://www.w3.org/2000/svg" xmlns:xlink="http://www.w3.org/1999/xlink">
<g id="graph0" class="graph" transform="scale(1 1) rotate(0) translate(4 176)">
<title>T_MESH::Basic_TMesh::removeUnlinkedElements</title>
<polygon fill="white" stroke="transparent" points="-4,4 -4,-176 467,-176 467,4 -4,4"/>
<!-- Node1 -->
<g id="node1" class="node">
<title>Node1</title>
<g id="a_node1"><a xlink:title="Removes all the unlinked elements from the lists. Returns the number of removed elements....">
<polygon fill="#bfbfbf" stroke="black" points="0,-71 0,-101 134,-101 134,-71 0,-71"/>
<text text-anchor="start" x="8" y="-89" font-family="Helvetica,sans-Serif" font-size="10.00">T_MESH::Basic_TMesh</text>
<text text-anchor="middle" x="67" y="-78" font-family="Helvetica,sans-Serif" font-size="10.00">::removeUnlinkedElements</text>
</a>
</g>
</g>
<!-- Node2 -->
<g id="node2" class="node">
<title>Node2</title>
<g id="a_node2"><a xlink:href="../../d6/d27/class_t___m_e_s_h_1_1_basic___t_mesh.html#a31ae056d8614b35cf8b4ea59f6b6a008" target="_top" xlink:title="Removes all the unlinked edges from List E. Returns the number of removed edges. O(N).">
<polygon fill="white" stroke="black" points="170,-120 170,-150 293,-150 293,-120 170,-120"/>
<text text-anchor="start" x="178" y="-138" font-family="Helvetica,sans-Serif" font-size="10.00">T_MESH::Basic_TMesh</text>
<text text-anchor="middle" x="231.5" y="-127" font-family="Helvetica,sans-Serif" font-size="10.00">::removeEdges</text>
</a>
</g>
</g>
<!-- Node1&#45;&gt;Node2 -->
<g id="edge1" class="edge">
<title>Node1&#45;&gt;Node2</title>
<path fill="none" stroke="midnightblue" d="M118.08,-101.1C134.69,-106.11 153.34,-111.73 170.6,-116.94"/>
<polygon fill="midnightblue" stroke="midnightblue" points="170,-120.41 180.58,-119.95 172.02,-113.71 170,-120.41"/>
</g>
<!-- Node8 -->
<g id="node8" class="node">
<title>Node8</title>
<g id="a_node8"><a xlink:href="../../d6/d27/class_t___m_e_s_h_1_1_basic___t_mesh.html#a4e221f29cf4ddb2c64ab866fc7a7e996" target="_top" xlink:title="Removes all the unlinked triangles from List T. Returns the number of removed triangles....">
<polygon fill="white" stroke="black" points="170,-71 170,-101 293,-101 293,-71 170,-71"/>
<text text-anchor="start" x="178" y="-89" font-family="Helvetica,sans-Serif" font-size="10.00">T_MESH::Basic_TMesh</text>
<text text-anchor="middle" x="231.5" y="-78" font-family="Helvetica,sans-Serif" font-size="10.00">::removeTriangles</text>
</a>
</g>
</g>
<!-- Node1&#45;&gt;Node8 -->
<g id="edge7" class="edge">
<title>Node1&#45;&gt;Node8</title>
<path fill="none" stroke="midnightblue" d="M134.09,-86C142.53,-86 151.19,-86 159.69,-86"/>
<polygon fill="midnightblue" stroke="midnightblue" points="159.96,-89.5 169.96,-86 159.96,-82.5 159.96,-89.5"/>
</g>
<!-- Node9 -->
<g id="node9" class="node">
<title>Node9</title>
<g id="a_node9"><a xlink:href="../../d6/d27/class_t___m_e_s_h_1_1_basic___t_mesh.html#a46cd99ce46b77a7b154c0a651cf80afa" target="_top" xlink:title="Removes all the unlinked vertices from List V. Returns the number of removed vertices....">
<polygon fill="white" stroke="black" points="170,-22 170,-52 293,-52 293,-22 170,-22"/>
<text text-anchor="start" x="178" y="-40" font-family="Helvetica,sans-Serif" font-size="10.00">T_MESH::Basic_TMesh</text>
<text text-anchor="middle" x="231.5" y="-29" font-family="Helvetica,sans-Serif" font-size="10.00">::removeVertices</text>
</a>
</g>
</g>
<!-- Node1&#45;&gt;Node9 -->
<g id="edge13" class="edge">
<title>Node1&#45;&gt;Node9</title>
<path fill="none" stroke="midnightblue" d="M118.08,-70.9C134.69,-65.89 153.34,-60.27 170.6,-55.06"/>
<polygon fill="midnightblue" stroke="midnightblue" points="172.02,-58.29 180.58,-52.05 170,-51.59 172.02,-58.29"/>
</g>
<!-- Node3 -->
<g id="node3" class="node">
<title>Node3</title>
<g id="a_node3"><a xlink:href="../../d3/d04/class_t___m_e_s_h_1_1_list.html#af3baa55cf02bd943635012a489d6c33a" target="_top" xlink:title="Gets the first node, NULL if empty. &#160;&#160;O(1).">
<polygon fill="white" stroke="black" points="343,-114.5 343,-133.5 449,-133.5 449,-114.5 343,-114.5"/>
<text text-anchor="middle" x="396" y="-121.5" font-family="Helvetica,sans-Serif" font-size="10.00">T_MESH::List::head</text>
</a>
</g>
</g>
<!-- Node2&#45;&gt;Node3 -->
<g id="edge2" class="edge">
<title>Node2&#45;&gt;Node3</title>
<path fill="none" stroke="midnightblue" d="M293.01,-130.9C305.97,-130.03 319.68,-129.1 332.71,-128.22"/>
<polygon fill="midnightblue" stroke="midnightblue" points="333.24,-131.69 342.98,-127.52 332.76,-124.71 333.24,-131.69"/>
</g>
<!-- Node4 -->
<g id="node4" class="node">
<title>Node4</title>
<g id="a_node4"><a xlink:href="../../da/d53/class_t___m_e_s_h_1_1_node.html#ae661edb2148691ba90cfe14d73d2545b" target="_top" xlink:title="Returns the next node in the list, possibly NULL.">
<polygon fill="white" stroke="black" points="340.5,-76.5 340.5,-95.5 451.5,-95.5 451.5,-76.5 340.5,-76.5"/>
<text text-anchor="middle" x="396" y="-83.5" font-family="Helvetica,sans-Serif" font-size="10.00">T_MESH::Node::next</text>
</a>
</g>
</g>
<!-- Node2&#45;&gt;Node4 -->
<g id="edge3" class="edge">
<title>Node2&#45;&gt;Node4</title>
<path fill="none" stroke="midnightblue" d="M280.05,-120C295.63,-115.14 313.03,-109.78 329,-105 336.31,-102.81 344.08,-100.53 351.64,-98.34"/>
<polygon fill="midnightblue" stroke="midnightblue" points="352.75,-101.66 361.38,-95.53 350.81,-94.94 352.75,-101.66"/>
</g>
<!-- Node5 -->
<g id="node5" class="node">
<title>Node5</title>
<g id="a_node5"><a xlink:href="../../da/d53/class_t___m_e_s_h_1_1_node.html#aed5d13bba326f240b2058b5a2a28c3c3" target="_top" xlink:title="Returns the previous node in the list, possibly NULL.">
<polygon fill="white" stroke="black" points="340.5,-38.5 340.5,-57.5 451.5,-57.5 451.5,-38.5 340.5,-38.5"/>
<text text-anchor="middle" x="396" y="-45.5" font-family="Helvetica,sans-Serif" font-size="10.00">T_MESH::Node::prev</text>
</a>
</g>
</g>
<!-- Node2&#45;&gt;Node5 -->
<g id="edge4" class="edge">
<title>Node2&#45;&gt;Node5</title>
<path fill="none" stroke="midnightblue" d="M278.12,-119.87C283.35,-117.28 288.44,-114.33 293,-111 313.4,-96.09 307.9,-80.9 329,-67 332.12,-64.94 335.47,-63.11 338.94,-61.46"/>
<polygon fill="midnightblue" stroke="midnightblue" points="340.44,-64.63 348.34,-57.56 337.76,-58.16 340.44,-64.63"/>
</g>
<!-- Node6 -->
<g id="node6" class="node">
<title>Node6</title>
<g id="a_node6"><a xlink:href="../../d3/d04/class_t___m_e_s_h_1_1_list.html#aec091d7c66b66c92fe56f06f41f448f4" target="_top" xlink:title="Deletes and removes the node &#39;n&#39; from the list. &#160;&#160;O(1).">
<polygon fill="white" stroke="black" points="329,-0.5 329,-19.5 463,-19.5 463,-0.5 329,-0.5"/>
<text text-anchor="middle" x="396" y="-7.5" font-family="Helvetica,sans-Serif" font-size="10.00">T_MESH::List::removeCell</text>
</a>
</g>
</g>
<!-- Node2&#45;&gt;Node6 -->
<g id="edge5" class="edge">
<title>Node2&#45;&gt;Node6</title>
<path fill="none" stroke="midnightblue" d="M280.89,-119.98C285.29,-117.43 289.42,-114.45 293,-111 321.65,-83.37 299.04,-55.21 329,-29 330.79,-27.44 332.69,-26 334.69,-24.69"/>
<polygon fill="midnightblue" stroke="midnightblue" points="336.85,-27.5 343.95,-19.63 333.5,-21.35 336.85,-27.5"/>
</g>
<!-- Node7 -->
<g id="node7" class="node">
<title>Node7</title>
<g id="a_node7"><a xlink:href="../../d3/d04/class_t___m_e_s_h_1_1_list.html#a700222ddbd4160a36795249926752f79" target="_top" xlink:title="Gets the last node, NULL if empty. &#160;&#160;O(1).">
<polygon fill="white" stroke="black" points="347,-152.5 347,-171.5 445,-171.5 445,-152.5 347,-152.5"/>
<text text-anchor="middle" x="396" y="-159.5" font-family="Helvetica,sans-Serif" font-size="10.00">T_MESH::List::tail</text>
</a>
</g>
</g>
<!-- Node2&#45;&gt;Node7 -->
<g id="edge6" class="edge">
<title>Node2&#45;&gt;Node7</title>
<path fill="none" stroke="midnightblue" d="M293.01,-145.05C307.31,-147.43 322.54,-149.96 336.74,-152.32"/>
<polygon fill="midnightblue" stroke="midnightblue" points="336.43,-155.82 346.87,-154 337.58,-148.91 336.43,-155.82"/>
</g>
<!-- Node8&#45;&gt;Node3 -->
<g id="edge8" class="edge">
<title>Node8&#45;&gt;Node3</title>
<path fill="none" stroke="midnightblue" d="M293.01,-100.15C309.9,-104.1 328.07,-108.35 344.32,-112.15"/>
<polygon fill="midnightblue" stroke="midnightblue" points="343.64,-115.58 354.17,-114.45 345.23,-108.77 343.64,-115.58"/>
</g>
<!-- Node8&#45;&gt;Node4 -->
<g id="edge9" class="edge">
<title>Node8&#45;&gt;Node4</title>
<path fill="none" stroke="midnightblue" d="M293.01,-86C305.13,-86 317.92,-86 330.19,-86"/>
<polygon fill="midnightblue" stroke="midnightblue" points="330.34,-89.5 340.34,-86 330.34,-82.5 330.34,-89.5"/>
</g>
<!-- Node8&#45;&gt;Node5 -->
<g id="edge10" class="edge">
<title>Node8&#45;&gt;Node5</title>
<path fill="none" stroke="midnightblue" d="M293.01,-71.85C309.9,-67.9 328.07,-63.65 344.32,-59.85"/>
<polygon fill="midnightblue" stroke="midnightblue" points="345.23,-63.23 354.17,-57.55 343.64,-56.42 345.23,-63.23"/>
</g>
<!-- Node8&#45;&gt;Node6 -->
<g id="edge11" class="edge">
<title>Node8&#45;&gt;Node6</title>
<path fill="none" stroke="midnightblue" d="M276.08,-70.95C281.94,-68.29 287.73,-65.3 293,-62 311.39,-50.47 310.07,-39.62 329,-29 332.97,-26.77 337.22,-24.79 341.58,-23.03"/>
<polygon fill="midnightblue" stroke="midnightblue" points="343.05,-26.22 351.24,-19.5 340.65,-19.64 343.05,-26.22"/>
</g>
<!-- Node8&#45;&gt;Node7 -->
<g id="edge12" class="edge">
<title>Node8&#45;&gt;Node7</title>
<path fill="none" stroke="midnightblue" d="M274.1,-101.02C280.61,-103.98 287.12,-107.32 293,-111 311.15,-122.36 310.25,-132.67 329,-143 332.99,-145.2 337.25,-147.16 341.62,-148.91"/>
<polygon fill="midnightblue" stroke="midnightblue" points="340.7,-152.3 351.29,-152.41 343.08,-145.72 340.7,-152.3"/>
</g>
<!-- Node9&#45;&gt;Node3 -->
<g id="edge14" class="edge">
<title>Node9&#45;&gt;Node3</title>
<path fill="none" stroke="midnightblue" d="M276.18,-52.04C282.09,-54.92 287.87,-58.24 293,-62 313.1,-76.74 308.11,-91.4 329,-105 332.13,-107.04 335.49,-108.86 338.96,-110.5"/>
<polygon fill="midnightblue" stroke="midnightblue" points="337.8,-113.8 348.38,-114.38 340.47,-107.33 337.8,-113.8"/>
</g>
<!-- Node9&#45;&gt;Node4 -->
<g id="edge15" class="edge">
<title>Node9&#45;&gt;Node4</title>
<path fill="none" stroke="midnightblue" d="M280.05,-52C295.63,-56.86 313.03,-62.22 329,-67 336.31,-69.19 344.08,-71.47 351.64,-73.66"/>
<polygon fill="midnightblue" stroke="midnightblue" points="350.81,-77.06 361.38,-76.47 352.75,-70.34 350.81,-77.06"/>
</g>
<!-- Node9&#45;&gt;Node5 -->
<g id="edge16" class="edge">
<title>Node9&#45;&gt;Node5</title>
<path fill="none" stroke="midnightblue" d="M293.01,-41.1C305.13,-41.92 317.92,-42.78 330.19,-43.61"/>
<polygon fill="midnightblue" stroke="midnightblue" points="330.13,-47.12 340.34,-44.3 330.6,-40.13 330.13,-47.12"/>
</g>
<!-- Node9&#45;&gt;Node6 -->
<g id="edge17" class="edge">
<title>Node9&#45;&gt;Node6</title>
<path fill="none" stroke="midnightblue" d="M293.01,-26.95C304.32,-25.07 316.2,-23.09 327.69,-21.18"/>
<polygon fill="midnightblue" stroke="midnightblue" points="328.38,-24.62 337.67,-19.53 327.23,-17.71 328.38,-24.62"/>
</g>
<!-- Node9&#45;&gt;Node7 -->
<g id="edge18" class="edge">
<title>Node9&#45;&gt;Node7</title>
<path fill="none" stroke="midnightblue" d="M279.68,-52.15C284.52,-54.94 289.09,-58.19 293,-62 321.22,-89.49 299.29,-117.13 329,-143 331.69,-145.34 334.65,-147.4 337.78,-149.2"/>
<polygon fill="midnightblue" stroke="midnightblue" points="336.46,-152.44 346.99,-153.63 339.5,-146.14 336.46,-152.44"/>
</g>
</g>
</svg>
