<?xml version="1.0" encoding="UTF-8" standalone="no"?>
<!DOCTYPE svg PUBLIC "-//W3C//DTD SVG 1.1//EN"
 "http://www.w3.org/Graphics/SVG/1.1/DTD/svg11.dtd">
<!-- Generated by graphviz version 2.44.1 (0)
 -->
<!-- Title: T_MESH::Basic_TMesh::~Basic_TMesh Pages: 1 -->
<svg width="622pt" height="39pt"
 viewBox="0.00 0.00 622.00 39.00" xmlns="http://www.w3.org/2000/svg" xmlns:xlink="http://www.w3.org/1999/xlink">
<g id="graph0" class="graph" transform="scale(1 1) rotate(0) translate(4 35)">
<title>T_MESH::Basic_TMesh::~Basic_TMesh</title>
<polygon fill="white" stroke="transparent" points="-4,4 -4,-35 618,-35 618,4 -4,4"/>
<!-- Node1 -->
<g id="node1" class="node">
<title>Node1</title>
<g id="a_node1"><a xlink:title="Destructor.">
<polygon fill="#bfbfbf" stroke="black" points="0,-0.5 0,-30.5 123,-30.5 123,-0.5 0,-0.5"/>
<text text-anchor="start" x="8" y="-18.5" font-family="Helvetica,sans-Serif" font-size="10.00">T_MESH::Basic_TMesh</text>
<text text-anchor="middle" x="61.5" y="-7.5" font-family="Helvetica,sans-Serif" font-size="10.00">::~Basic_TMesh</text>
</a>
</g>
</g>
<!-- Node2 -->
<g id="node2" class="node">
<title>Node2</title>
<g id="a_node2"><a xlink:href="../../d3/d04/class_t___m_e_s_h_1_1_list.html#a993369e5364ce836b4421fdf6deecb84" target="_top" xlink:title="Deletes and removes all the nodes and frees data memory. &#160;&#160;O(numels()).">
<polygon fill="white" stroke="black" points="159,-6 159,-25 289,-25 289,-6 159,-6"/>
<text text-anchor="middle" x="224" y="-13" font-family="Helvetica,sans-Serif" font-size="10.00">T_MESH::List::freeNodes</text>
</a>
</g>
</g>
<!-- Node1&#45;&gt;Node2 -->
<g id="edge1" class="edge">
<title>Node1&#45;&gt;Node2</title>
<path fill="none" stroke="midnightblue" d="M123.18,-15.5C131.45,-15.5 140.01,-15.5 148.49,-15.5"/>
<polygon fill="midnightblue" stroke="midnightblue" points="148.76,-19 158.76,-15.5 148.76,-12 148.76,-19"/>
</g>
<!-- Node3 -->
<g id="node3" class="node">
<title>Node3</title>
<g id="a_node3"><a xlink:href="../../d3/d04/class_t___m_e_s_h_1_1_list.html#afcb1517d62f1366d1308d51a2569682b" target="_top" xlink:title="Deletes and removes the node &#39;n&#39; from the list and frees data memory. &#160;&#160;O(1).">
<polygon fill="white" stroke="black" points="325,-6 325,-25 444,-25 444,-6 325,-6"/>
<text text-anchor="middle" x="384.5" y="-13" font-family="Helvetica,sans-Serif" font-size="10.00">T_MESH::List::freeCell</text>
</a>
</g>
</g>
<!-- Node2&#45;&gt;Node3 -->
<g id="edge2" class="edge">
<title>Node2&#45;&gt;Node3</title>
<path fill="none" stroke="midnightblue" d="M289.01,-15.5C297.44,-15.5 306.11,-15.5 314.61,-15.5"/>
<polygon fill="midnightblue" stroke="midnightblue" points="314.88,-19 324.88,-15.5 314.88,-12 314.88,-19"/>
</g>
<!-- Node4 -->
<g id="node4" class="node">
<title>Node4</title>
<g id="a_node4"><a xlink:href="../../d3/d04/class_t___m_e_s_h_1_1_list.html#aec091d7c66b66c92fe56f06f41f448f4" target="_top" xlink:title="Deletes and removes the node &#39;n&#39; from the list. &#160;&#160;O(1).">
<polygon fill="white" stroke="black" points="480,-6 480,-25 614,-25 614,-6 480,-6"/>
<text text-anchor="middle" x="547" y="-13" font-family="Helvetica,sans-Serif" font-size="10.00">T_MESH::List::removeCell</text>
</a>
</g>
</g>
<!-- Node3&#45;&gt;Node4 -->
<g id="edge3" class="edge">
<title>Node3&#45;&gt;Node4</title>
<path fill="none" stroke="midnightblue" d="M444.35,-15.5C452.56,-15.5 461.08,-15.5 469.56,-15.5"/>
<polygon fill="midnightblue" stroke="midnightblue" points="469.83,-19 479.83,-15.5 469.83,-12 469.83,-19"/>
</g>
</g>
</svg>
