<?xml version="1.0" encoding="UTF-8" standalone="no"?>
<!DOCTYPE svg PUBLIC "-//W3C//DTD SVG 1.1//EN"
 "http://www.w3.org/Graphics/SVG/1.1/DTD/svg11.dtd">
<!-- Generated by graphviz version 2.44.1 (0)
 -->
<!-- Title: T_MESH::Basic_TMesh::watsonInsert Pages: 1 -->
<svg width="1301pt" height="978pt"
 viewBox="0.00 0.00 1301.00 977.88" xmlns="http://www.w3.org/2000/svg" xmlns:xlink="http://www.w3.org/1999/xlink">
<g id="graph0" class="graph" transform="scale(1 1) rotate(0) translate(4 973.88)">
<title>T_MESH::Basic_TMesh::watsonInsert</title>
<polygon fill="white" stroke="transparent" points="-4,4 -4,-973.88 1297,-973.88 1297,4 -4,4"/>
<!-- Node1 -->
<g id="node1" class="node">
<title>Node1</title>
<g id="a_node1"><a xlink:title=" ">
<polygon fill="#bfbfbf" stroke="black" points="0,-386 0,-416 123,-416 123,-386 0,-386"/>
<text text-anchor="start" x="8" y="-404" font-family="Helvetica,sans-Serif" font-size="10.00">T_MESH::Basic_TMesh</text>
<text text-anchor="middle" x="61.5" y="-393" font-family="Helvetica,sans-Serif" font-size="10.00">::watsonInsert</text>
</a>
</g>
</g>
<!-- Node2 -->
<g id="node2" class="node">
<title>Node2</title>
<g id="a_node2"><a xlink:href="../../d3/d04/class_t___m_e_s_h_1_1_list.html#ae601a7e17364ce83f74ffcb6c64971ca" target="_top" xlink:title="Appends a new node storing &#39;d&#39; to the head. &#160;&#160;O(1).">
<polygon fill="white" stroke="black" points="970.5,-815.5 970.5,-834.5 1110.5,-834.5 1110.5,-815.5 970.5,-815.5"/>
<text text-anchor="middle" x="1040.5" y="-822.5" font-family="Helvetica,sans-Serif" font-size="10.00">T_MESH::List::appendHead</text>
</a>
</g>
</g>
<!-- Node1&#45;&gt;Node2 -->
<g id="edge1" class="edge">
<title>Node1&#45;&gt;Node2</title>
<path fill="none" stroke="midnightblue" d="M63.73,-416.2C69.72,-486.87 98.15,-782.62 159,-848 390.79,-1097.02 884.7,-895.85 1010.08,-838.89"/>
<polygon fill="midnightblue" stroke="midnightblue" points="1011.82,-841.95 1019.44,-834.59 1008.89,-835.58 1011.82,-841.95"/>
</g>
<!-- Node3 -->
<g id="node3" class="node">
<title>Node3</title>
<g id="a_node3"><a xlink:href="../../d6/d27/class_t___m_e_s_h_1_1_basic___t_mesh.html#ae9b140c83f01239adb8204f70a73e86c" target="_top" xlink:title="Creates a properly oriented Triangle bounded by three existing mesh edges.">
<polygon fill="white" stroke="black" points="358,-860 358,-890 481,-890 481,-860 358,-860"/>
<text text-anchor="start" x="366" y="-878" font-family="Helvetica,sans-Serif" font-size="10.00">T_MESH::Basic_TMesh</text>
<text text-anchor="middle" x="419.5" y="-867" font-family="Helvetica,sans-Serif" font-size="10.00">::CreateTriangle</text>
</a>
</g>
</g>
<!-- Node1&#45;&gt;Node3 -->
<g id="edge2" class="edge">
<title>Node1&#45;&gt;Node3</title>
<path fill="none" stroke="midnightblue" d="M64.14,-416.4C71.5,-482.89 103.63,-744.48 159,-802 207.84,-852.73 288.91,-869.05 347.46,-873.88"/>
<polygon fill="midnightblue" stroke="midnightblue" points="347.52,-877.39 357.75,-874.63 348.03,-870.41 347.52,-877.39"/>
</g>
<!-- Node6 -->
<g id="node6" class="node">
<title>Node6</title>
<g id="a_node6"><a xlink:href="../../d6/d27/class_t___m_e_s_h_1_1_basic___t_mesh.html#abd4426c2ffae5a4e3505679de7ae7da7" target="_top" xlink:title="Creates a newEdge &#39;e&#39; and an oriented Triangle bounded by &#39;e&#39;, &#39;e1&#39; and &#39;e2&#39;.">
<polygon fill="white" stroke="black" points="168.5,-762 168.5,-792 291.5,-792 291.5,-762 168.5,-762"/>
<text text-anchor="start" x="176.5" y="-780" font-family="Helvetica,sans-Serif" font-size="10.00">T_MESH::Basic_TMesh</text>
<text text-anchor="middle" x="230" y="-769" font-family="Helvetica,sans-Serif" font-size="10.00">::EulerEdgeTriangle</text>
</a>
</g>
</g>
<!-- Node1&#45;&gt;Node6 -->
<g id="edge6" class="edge">
<title>Node1&#45;&gt;Node6</title>
<path fill="none" stroke="midnightblue" d="M63.28,-416.09C66.56,-465.95 82.85,-628.07 159,-731 166.5,-741.14 176.95,-749.69 187.49,-756.56"/>
<polygon fill="midnightblue" stroke="midnightblue" points="185.95,-759.71 196.31,-761.93 189.59,-753.74 185.95,-759.71"/>
</g>
<!-- Node8 -->
<g id="node8" class="node">
<title>Node8</title>
<g id="a_node8"><a xlink:href="../../d5/d7f/class_t___m_e_s_h_1_1_vertex.html#af74a29c7daa03825b0156bfe7f64052a" target="_top" xlink:title="Returns the edge connecting this vertex to &#39;v&#39;. NULL if such an edge does not exist.">
<polygon fill="white" stroke="black" points="556.5,-660.5 556.5,-679.5 689.5,-679.5 689.5,-660.5 556.5,-660.5"/>
<text text-anchor="middle" x="623" y="-667.5" font-family="Helvetica,sans-Serif" font-size="10.00">T_MESH::Vertex::getEdge</text>
</a>
</g>
</g>
<!-- Node1&#45;&gt;Node8 -->
<g id="edge31" class="edge">
<title>Node1&#45;&gt;Node8</title>
<path fill="none" stroke="midnightblue" d="M66.76,-416.2C76.85,-449.25 105.46,-527.83 159,-567 175.45,-579.03 443.37,-634.06 563.97,-658.38"/>
<polygon fill="midnightblue" stroke="midnightblue" points="563.63,-661.88 574.13,-660.43 565.01,-655.02 563.63,-661.88"/>
</g>
<!-- Node10 -->
<g id="node10" class="node">
<title>Node10</title>
<g id="a_node10"><a xlink:href="../../d5/d7f/class_t___m_e_s_h_1_1_vertex.html#a66b49df1416ddcee6be0e1abe3aadda9" target="_top" xlink:title="List of incident edges.">
<polygon fill="white" stroke="black" points="778.5,-606.5 778.5,-625.5 888.5,-625.5 888.5,-606.5 778.5,-606.5"/>
<text text-anchor="middle" x="833.5" y="-613.5" font-family="Helvetica,sans-Serif" font-size="10.00">T_MESH::Vertex::VE</text>
</a>
</g>
</g>
<!-- Node1&#45;&gt;Node10 -->
<g id="edge63" class="edge">
<title>Node1&#45;&gt;Node10</title>
<path fill="none" stroke="midnightblue" d="M69.12,-416.4C81.95,-444.18 113.05,-502.28 159,-529 211.14,-559.32 610.26,-596.75 768.33,-610.56"/>
<polygon fill="midnightblue" stroke="midnightblue" points="768.12,-614.05 778.39,-611.43 768.73,-607.08 768.12,-614.05"/>
</g>
<!-- Node13 -->
<g id="node13" class="node">
<title>Node13</title>
<g id="a_node13"><a xlink:href="../../d3/d04/class_t___m_e_s_h_1_1_list.html#af0e61026072f65c9ba882df526acfd2e" target="_top" xlink:title="Gets the number of elements. &#160;&#160;O(1).">
<polygon fill="white" stroke="black" points="982.5,-492.5 982.5,-511.5 1098.5,-511.5 1098.5,-492.5 982.5,-492.5"/>
<text text-anchor="middle" x="1040.5" y="-499.5" font-family="Helvetica,sans-Serif" font-size="10.00">T_MESH::List::numels</text>
</a>
</g>
</g>
<!-- Node1&#45;&gt;Node13 -->
<g id="edge54" class="edge">
<title>Node1&#45;&gt;Node13</title>
<path fill="none" stroke="midnightblue" d="M80.87,-416.12C99.44,-430.62 129.53,-452.02 159,-464 267.88,-508.28 300.96,-515 418.5,-515 418.5,-515 418.5,-515 624,-515 746.85,-515 890.03,-509.25 972.19,-505.4"/>
<polygon fill="midnightblue" stroke="midnightblue" points="972.57,-508.89 982.39,-504.92 972.24,-501.89 972.57,-508.89"/>
</g>
<!-- Node17 -->
<g id="node17" class="node">
<title>Node17</title>
<g id="a_node17"><a xlink:href="../../d3/d04/class_t___m_e_s_h_1_1_list.html#aec091d7c66b66c92fe56f06f41f448f4" target="_top" xlink:title="Deletes and removes the node &#39;n&#39; from the list. &#160;&#160;O(1).">
<polygon fill="white" stroke="black" points="1158.5,-189.5 1158.5,-208.5 1292.5,-208.5 1292.5,-189.5 1158.5,-189.5"/>
<text text-anchor="middle" x="1225.5" y="-196.5" font-family="Helvetica,sans-Serif" font-size="10.00">T_MESH::List::removeCell</text>
</a>
</g>
</g>
<!-- Node1&#45;&gt;Node17 -->
<g id="edge56" class="edge">
<title>Node1&#45;&gt;Node17</title>
<path fill="none" stroke="midnightblue" d="M69.9,-385.67C83.55,-359.14 115.34,-304.92 159,-278 227.7,-235.64 257.31,-254.8 337,-242 634.03,-194.31 993.55,-194.33 1147.98,-197.04"/>
<polygon fill="midnightblue" stroke="midnightblue" points="1148.23,-200.54 1158.29,-197.23 1148.36,-193.55 1148.23,-200.54"/>
</g>
<!-- Node19 -->
<g id="node19" class="node">
<title>Node19</title>
<g id="a_node19"><a xlink:href="../../d6/d27/class_t___m_e_s_h_1_1_basic___t_mesh.html#a20469173793123e3dd41269a48602ba2" target="_top" xlink:title="AMF_ADD 1.1&gt;">
<polygon fill="white" stroke="black" points="561.5,-456 561.5,-486 684.5,-486 684.5,-456 561.5,-456"/>
<text text-anchor="start" x="569.5" y="-474" font-family="Helvetica,sans-Serif" font-size="10.00">T_MESH::Basic_TMesh</text>
<text text-anchor="middle" x="623" y="-463" font-family="Helvetica,sans-Serif" font-size="10.00">::newEdge</text>
</a>
</g>
</g>
<!-- Node1&#45;&gt;Node19 -->
<g id="edge45" class="edge">
<title>Node1&#45;&gt;Node19</title>
<path fill="none" stroke="midnightblue" d="M93.46,-416C112.02,-424.28 136.34,-433.88 159,-439 295.22,-469.76 459.22,-473.54 550.94,-472.77"/>
<polygon fill="midnightblue" stroke="midnightblue" points="551.25,-476.26 561.22,-472.66 551.18,-469.26 551.25,-476.26"/>
</g>
<!-- Node22 -->
<g id="node22" class="node">
<title>Node22</title>
<g id="a_node22"><a xlink:href="../../d3/d04/class_t___m_e_s_h_1_1_list.html#afcb1517d62f1366d1308d51a2569682b" target="_top" xlink:title="Deletes and removes the node &#39;n&#39; from the list and frees data memory. &#160;&#160;O(1).">
<polygon fill="white" stroke="black" points="774,-114.5 774,-133.5 893,-133.5 893,-114.5 774,-114.5"/>
<text text-anchor="middle" x="833.5" y="-121.5" font-family="Helvetica,sans-Serif" font-size="10.00">T_MESH::List::freeCell</text>
</a>
</g>
</g>
<!-- Node1&#45;&gt;Node22 -->
<g id="edge29" class="edge">
<title>Node1&#45;&gt;Node22</title>
<path fill="none" stroke="midnightblue" d="M62.42,-385.85C63.09,-338.34 72.35,-191.71 159,-130 254.26,-62.16 611.85,-96.67 763.66,-115.01"/>
<polygon fill="midnightblue" stroke="midnightblue" points="763.44,-118.51 773.79,-116.24 764.29,-111.56 763.44,-118.51"/>
</g>
<!-- Node23 -->
<g id="node23" class="node">
<title>Node23</title>
<g id="a_node23"><a xlink:href="../../d3/d04/class_t___m_e_s_h_1_1_list.html#af3baa55cf02bd943635012a489d6c33a" target="_top" xlink:title="Gets the first node, NULL if empty. &#160;&#160;O(1).">
<polygon fill="white" stroke="black" points="177,-391.5 177,-410.5 283,-410.5 283,-391.5 177,-391.5"/>
<text text-anchor="middle" x="230" y="-398.5" font-family="Helvetica,sans-Serif" font-size="10.00">T_MESH::List::head</text>
</a>
</g>
</g>
<!-- Node1&#45;&gt;Node23 -->
<g id="edge32" class="edge">
<title>Node1&#45;&gt;Node23</title>
<path fill="none" stroke="midnightblue" d="M123.08,-401C137.3,-401 152.47,-401 166.76,-401"/>
<polygon fill="midnightblue" stroke="midnightblue" points="166.98,-404.5 176.98,-401 166.98,-397.5 166.98,-404.5"/>
</g>
<!-- Node24 -->
<g id="node24" class="node">
<title>Node24</title>
<g id="a_node24"><a xlink:href="../../d8/d6e/class_t___m_e_s_h_1_1_triangle.html#a84e2fb5b05161c766eec8b282b52678e" target="_top" xlink:title="TRUE iff &#39;p&#39; is inside the triangle&#39;s bounding sphere.">
<polygon fill="white" stroke="black" points="159,-353.5 159,-372.5 301,-372.5 301,-353.5 159,-353.5"/>
<text text-anchor="middle" x="230" y="-360.5" font-family="Helvetica,sans-Serif" font-size="10.00">T_MESH::Triangle::inSphere</text>
</a>
</g>
</g>
<!-- Node1&#45;&gt;Node24 -->
<g id="edge33" class="edge">
<title>Node1&#45;&gt;Node24</title>
<path fill="none" stroke="midnightblue" d="M123.08,-387.17C140.88,-383.11 160.18,-378.71 177.36,-374.79"/>
<polygon fill="midnightblue" stroke="midnightblue" points="178.24,-378.18 187.21,-372.54 176.68,-371.35 178.24,-378.18"/>
</g>
<!-- Node28 -->
<g id="node28" class="node">
<title>Node28</title>
<g id="a_node28"><a xlink:href="../../d8/d6e/class_t___m_e_s_h_1_1_triangle.html#aa7b9f783f2e4339083f46d25d3eecf68" target="_top" xlink:title="First vertex.">
<polygon fill="white" stroke="black" points="566,-379.5 566,-398.5 680,-398.5 680,-379.5 566,-379.5"/>
<text text-anchor="middle" x="623" y="-386.5" font-family="Helvetica,sans-Serif" font-size="10.00">T_MESH::Triangle::v1</text>
</a>
</g>
</g>
<!-- Node1&#45;&gt;Node28 -->
<g id="edge60" class="edge">
<title>Node1&#45;&gt;Node28</title>
<path fill="none" stroke="midnightblue" d="M123.24,-414.82C135.04,-416.98 147.36,-418.86 159,-420 310.75,-434.8 350.59,-431.89 502,-414 515.21,-412.44 544.14,-406.44 570.28,-400.71"/>
<polygon fill="midnightblue" stroke="midnightblue" points="571.12,-404.11 580.13,-398.54 569.61,-397.27 571.12,-404.11"/>
</g>
<!-- Node29 -->
<g id="node29" class="node">
<title>Node29</title>
<g id="a_node29"><a xlink:href="../../d8/d6e/class_t___m_e_s_h_1_1_triangle.html#a1bf6a231440a3c73a931c1cfccfee574" target="_top" xlink:title="Second vertex.">
<polygon fill="white" stroke="black" points="566,-341.5 566,-360.5 680,-360.5 680,-341.5 566,-341.5"/>
<text text-anchor="middle" x="623" y="-348.5" font-family="Helvetica,sans-Serif" font-size="10.00">T_MESH::Triangle::v2</text>
</a>
</g>
</g>
<!-- Node1&#45;&gt;Node29 -->
<g id="edge61" class="edge">
<title>Node1&#45;&gt;Node29</title>
<path fill="none" stroke="midnightblue" d="M81.06,-385.9C99.54,-371.92 129.34,-352.1 159,-344 231.59,-324.16 445.62,-337.08 555.4,-345.46"/>
<polygon fill="midnightblue" stroke="midnightblue" points="555.45,-348.97 565.69,-346.25 555.99,-341.99 555.45,-348.97"/>
</g>
<!-- Node30 -->
<g id="node30" class="node">
<title>Node30</title>
<g id="a_node30"><a xlink:href="../../d8/d6e/class_t___m_e_s_h_1_1_triangle.html#a0c4c2a2ba6b0c975aa3d260f00785e8f" target="_top" xlink:title="Third vertex.">
<polygon fill="white" stroke="black" points="566,-227.5 566,-246.5 680,-246.5 680,-227.5 566,-227.5"/>
<text text-anchor="middle" x="623" y="-234.5" font-family="Helvetica,sans-Serif" font-size="10.00">T_MESH::Triangle::v3</text>
</a>
</g>
</g>
<!-- Node1&#45;&gt;Node30 -->
<g id="edge62" class="edge">
<title>Node1&#45;&gt;Node30</title>
<path fill="none" stroke="midnightblue" d="M78.98,-385.72C97.22,-369.6 128.15,-344.56 159,-330 290.85,-267.77 462.94,-247.12 555.74,-240.31"/>
<polygon fill="midnightblue" stroke="midnightblue" points="556.11,-243.79 565.84,-239.6 555.62,-236.81 556.11,-243.79"/>
</g>
<!-- Node33 -->
<g id="node33" class="node">
<title>Node33</title>
<g id="a_node33"><a xlink:href="../../d6/d27/class_t___m_e_s_h_1_1_basic___t_mesh.html#a8cbf313f4e9cab9dab1b026b45dd1c8e" target="_top" xlink:title="AMF_ADD 1.1&gt;">
<polygon fill="white" stroke="black" points="168.5,-178 168.5,-208 291.5,-208 291.5,-178 168.5,-178"/>
<text text-anchor="start" x="176.5" y="-196" font-family="Helvetica,sans-Serif" font-size="10.00">T_MESH::Basic_TMesh</text>
<text text-anchor="middle" x="230" y="-185" font-family="Helvetica,sans-Serif" font-size="10.00">::newVertex</text>
</a>
</g>
</g>
<!-- Node1&#45;&gt;Node33 -->
<g id="edge46" class="edge">
<title>Node1&#45;&gt;Node33</title>
<path fill="none" stroke="midnightblue" d="M66.88,-385.97C77.38,-352.37 107.06,-270.38 159,-223 163.09,-219.27 167.72,-215.96 172.59,-213.02"/>
<polygon fill="midnightblue" stroke="midnightblue" points="174.46,-215.99 181.58,-208.15 171.12,-209.84 174.46,-215.99"/>
</g>
<!-- Node34 -->
<g id="node34" class="node">
<title>Node34</title>
<g id="a_node34"><a xlink:href="../../da/d53/class_t___m_e_s_h_1_1_node.html#ae661edb2148691ba90cfe14d73d2545b" target="_top" xlink:title="Returns the next node in the list, possibly NULL.">
<polygon fill="white" stroke="black" points="174.5,-139.5 174.5,-158.5 285.5,-158.5 285.5,-139.5 174.5,-139.5"/>
<text text-anchor="middle" x="230" y="-146.5" font-family="Helvetica,sans-Serif" font-size="10.00">T_MESH::Node::next</text>
</a>
</g>
</g>
<!-- Node1&#45;&gt;Node34 -->
<g id="edge47" class="edge">
<title>Node1&#45;&gt;Node34</title>
<path fill="none" stroke="midnightblue" d="M64.19,-385.84C69.66,-344.38 90.63,-228.16 159,-168 160.99,-166.25 163.12,-164.67 165.35,-163.22"/>
<polygon fill="midnightblue" stroke="midnightblue" points="167.29,-166.15 174.45,-158.34 163.98,-159.99 167.29,-166.15"/>
</g>
<!-- Node35 -->
<g id="node35" class="node">
<title>Node35</title>
<g id="a_node35"><a xlink:href="../../d5/d7f/class_t___m_e_s_h_1_1_vertex.html#ac8ca8a164a829c53efaefd29b5ea4b6f" target="_top" xlink:title="Returns the vertex following this one on the boundary.">
<polygon fill="white" stroke="black" points="538,-707.5 538,-726.5 708,-726.5 708,-707.5 538,-707.5"/>
<text text-anchor="middle" x="623" y="-714.5" font-family="Helvetica,sans-Serif" font-size="10.00">T_MESH::Vertex::nextOnBoundary</text>
</a>
</g>
</g>
<!-- Node1&#45;&gt;Node35 -->
<g id="edge48" class="edge">
<title>Node1&#45;&gt;Node35</title>
<path fill="none" stroke="midnightblue" d="M66.46,-416.24C76.45,-452.11 105.76,-543.04 159,-599 221.25,-664.43 250.38,-671.46 337,-697 398.7,-715.19 471.02,-720.08 527.37,-720.48"/>
<polygon fill="midnightblue" stroke="midnightblue" points="527.69,-723.98 537.7,-720.51 527.71,-716.98 527.69,-723.98"/>
</g>
<!-- Node37 -->
<g id="node37" class="node">
<title>Node37</title>
<g id="a_node37"><a xlink:href="../../da/d53/class_t___m_e_s_h_1_1_node.html#aed5d13bba326f240b2058b5a2a28c3c3" target="_top" xlink:title="Returns the previous node in the list, possibly NULL.">
<polygon fill="white" stroke="black" points="174.5,-63.5 174.5,-82.5 285.5,-82.5 285.5,-63.5 174.5,-63.5"/>
<text text-anchor="middle" x="230" y="-70.5" font-family="Helvetica,sans-Serif" font-size="10.00">T_MESH::Node::prev</text>
</a>
</g>
</g>
<!-- Node1&#45;&gt;Node37 -->
<g id="edge55" class="edge">
<title>Node1&#45;&gt;Node37</title>
<path fill="none" stroke="midnightblue" d="M62.75,-385.98C64.39,-337.24 76.17,-181.75 159,-97 162.87,-93.04 167.43,-89.73 172.32,-86.97"/>
<polygon fill="midnightblue" stroke="midnightblue" points="173.95,-90.07 181.43,-82.56 170.91,-83.76 173.95,-90.07"/>
</g>
<!-- Node38 -->
<g id="node38" class="node">
<title>Node38</title>
<g id="a_node38"><a xlink:href="../../d6/d27/class_t___m_e_s_h_1_1_basic___t_mesh.html#a9ba35a484e7202cd8fa378eee8b1aca6" target="_top" xlink:title="Unlinks a triangle from the mesh. O(1).">
<polygon fill="white" stroke="black" points="164,-14 164,-44 296,-44 296,-14 164,-14"/>
<text text-anchor="start" x="172" y="-32" font-family="Helvetica,sans-Serif" font-size="10.00">T_MESH::Basic_TMesh</text>
<text text-anchor="middle" x="230" y="-21" font-family="Helvetica,sans-Serif" font-size="10.00">::unlinkTriangleNoManifold</text>
</a>
</g>
</g>
<!-- Node1&#45;&gt;Node38 -->
<g id="edge57" class="edge">
<title>Node1&#45;&gt;Node38</title>
<path fill="none" stroke="midnightblue" d="M62.1,-385.84C61.52,-332.76 66.77,-153.1 159,-54 160.24,-52.67 161.55,-51.41 162.93,-50.21"/>
<polygon fill="midnightblue" stroke="midnightblue" points="165.37,-52.77 171.44,-44.09 161.28,-47.09 165.37,-52.77"/>
</g>
<!-- Node3&#45;&gt;Node2 -->
<g id="edge3" class="edge">
<title>Node3&#45;&gt;Node2</title>
<path fill="none" stroke="midnightblue" d="M481.17,-869.14C499.43,-867.42 519.53,-865.58 538,-864 686.95,-851.24 860.95,-838.1 959.89,-830.8"/>
<polygon fill="midnightblue" stroke="midnightblue" points="960.39,-834.27 970.11,-830.05 959.88,-827.29 960.39,-834.27"/>
</g>
<!-- Node4 -->
<g id="node4" class="node">
<title>Node4</title>
<g id="a_node4"><a xlink:href="../../da/da2/class_t___m_e_s_h_1_1_edge.html#a560eca8895471f987bd3228b13c40052" target="_top" xlink:title="Vertex shared with edge &#39;b&#39;. NULL if this and &#39;b&#39; do not share any vertex.">
<polygon fill="white" stroke="black" points="755,-379.5 755,-398.5 912,-398.5 912,-379.5 755,-379.5"/>
<text text-anchor="middle" x="833.5" y="-386.5" font-family="Helvetica,sans-Serif" font-size="10.00">T_MESH::Edge::commonVertex</text>
</a>
</g>
</g>
<!-- Node3&#45;&gt;Node4 -->
<g id="edge4" class="edge">
<title>Node3&#45;&gt;Node4</title>
<path fill="none" stroke="midnightblue" d="M448.83,-859.98C466.76,-849.02 488.95,-832.52 502,-812 541.34,-750.13 487.31,-703.98 538,-651 592.11,-594.44 645.98,-652.75 708,-605 776.46,-552.29 813.86,-450.45 827.01,-408.14"/>
<polygon fill="midnightblue" stroke="midnightblue" points="830.37,-409.11 829.89,-398.52 823.67,-407.09 830.37,-409.11"/>
</g>
<!-- Node5 -->
<g id="node5" class="node">
<title>Node5</title>
<g id="a_node5"><a xlink:href="../../d6/d27/class_t___m_e_s_h_1_1_basic___t_mesh.html#a1fda4e2b03b24abb8784e3a1c6fb49e7" target="_top" xlink:title="AMF_ADD 1.1&gt;">
<polygon fill="white" stroke="black" points="561.5,-873 561.5,-903 684.5,-903 684.5,-873 561.5,-873"/>
<text text-anchor="start" x="569.5" y="-891" font-family="Helvetica,sans-Serif" font-size="10.00">T_MESH::Basic_TMesh</text>
<text text-anchor="middle" x="623" y="-880" font-family="Helvetica,sans-Serif" font-size="10.00">::newTriangle</text>
</a>
</g>
</g>
<!-- Node3&#45;&gt;Node5 -->
<g id="edge5" class="edge">
<title>Node3&#45;&gt;Node5</title>
<path fill="none" stroke="midnightblue" d="M481.23,-878.92C503.34,-880.34 528.51,-881.97 551.4,-883.45"/>
<polygon fill="midnightblue" stroke="midnightblue" points="551.19,-886.94 561.39,-884.09 551.64,-879.95 551.19,-886.94"/>
</g>
<!-- Node6&#45;&gt;Node3 -->
<g id="edge24" class="edge">
<title>Node6&#45;&gt;Node3</title>
<path fill="none" stroke="midnightblue" d="M251.72,-792.22C272.52,-807.04 305.87,-829.52 337,-845 345.13,-849.04 353.94,-852.84 362.67,-856.29"/>
<polygon fill="midnightblue" stroke="midnightblue" points="361.48,-859.59 372.07,-859.89 363.98,-853.05 361.48,-859.59"/>
</g>
<!-- Node6&#45;&gt;Node4 -->
<g id="edge7" class="edge">
<title>Node6&#45;&gt;Node4</title>
<path fill="none" stroke="midnightblue" d="M239.93,-761.81C256.17,-735.37 292.96,-680.59 337,-648 480.38,-541.91 555.78,-587.96 708,-495 750.69,-468.93 793.6,-428.52 816.2,-405.87"/>
<polygon fill="midnightblue" stroke="midnightblue" points="818.79,-408.23 823.31,-398.65 813.8,-403.32 818.79,-408.23"/>
</g>
<!-- Node7 -->
<g id="node7" class="node">
<title>Node7</title>
<g id="a_node7"><a xlink:href="../../d6/d27/class_t___m_e_s_h_1_1_basic___t_mesh.html#a0cd2bcd2e4d1ff1cb1a78ead09e121a3" target="_top" xlink:title="Creates an Edge connecting two existing mesh vertices.">
<polygon fill="white" stroke="black" points="358,-658 358,-688 481,-688 481,-658 358,-658"/>
<text text-anchor="start" x="366" y="-676" font-family="Helvetica,sans-Serif" font-size="10.00">T_MESH::Basic_TMesh</text>
<text text-anchor="middle" x="419.5" y="-665" font-family="Helvetica,sans-Serif" font-size="10.00">::CreateEdge</text>
</a>
</g>
</g>
<!-- Node6&#45;&gt;Node7 -->
<g id="edge8" class="edge">
<title>Node6&#45;&gt;Node7</title>
<path fill="none" stroke="midnightblue" d="M258.26,-761.88C291.04,-743.7 346.14,-713.14 382.41,-693.02"/>
<polygon fill="midnightblue" stroke="midnightblue" points="384.16,-696.05 391.2,-688.14 380.76,-689.93 384.16,-696.05"/>
</g>
<!-- Node9 -->
<g id="node9" class="node">
<title>Node9</title>
<g id="a_node9"><a xlink:href="../../da/da2/class_t___m_e_s_h_1_1_edge.html#aef981891343c94489f00b060bd654b6c" target="_top" xlink:title="Vertex opposite to &#39;v&#39;. NULL if &#39;v&#39; is not a vertex of the edge.">
<polygon fill="white" stroke="black" points="962.5,-720.5 962.5,-739.5 1118.5,-739.5 1118.5,-720.5 962.5,-720.5"/>
<text text-anchor="middle" x="1040.5" y="-727.5" font-family="Helvetica,sans-Serif" font-size="10.00">T_MESH::Edge::oppositeVertex</text>
</a>
</g>
</g>
<!-- Node6&#45;&gt;Node9 -->
<g id="edge28" class="edge">
<title>Node6&#45;&gt;Node9</title>
<path fill="none" stroke="midnightblue" d="M282.76,-792.02C288.93,-793.96 295.12,-795.98 301,-798 317.23,-803.58 320.13,-808.83 337,-812 587.78,-859.05 894.29,-775.69 1000.83,-742.63"/>
<polygon fill="midnightblue" stroke="midnightblue" points="1002.02,-745.93 1010.51,-739.59 999.92,-739.25 1002.02,-745.93"/>
</g>
<!-- Node15 -->
<g id="node15" class="node">
<title>Node15</title>
<g id="a_node15"><a xlink:href="../../da/da2/class_t___m_e_s_h_1_1_edge.html#a7d7329ff24b7b6eb2eceee39711dd650" target="_top" xlink:title="TRUE iff &#39;v&#39; is an end&#45;point of the edge.">
<polygon fill="white" stroke="black" points="1158,-783.5 1158,-802.5 1293,-802.5 1293,-783.5 1158,-783.5"/>
<text text-anchor="middle" x="1225.5" y="-790.5" font-family="Helvetica,sans-Serif" font-size="10.00">T_MESH::Edge::hasVertex</text>
</a>
</g>
</g>
<!-- Node6&#45;&gt;Node15 -->
<g id="edge25" class="edge">
<title>Node6&#45;&gt;Node15</title>
<path fill="none" stroke="midnightblue" d="M239.06,-792.33C254.19,-819.36 289.63,-875 337,-900 449.72,-959.5 494.54,-932 622,-932 622,-932 622,-932 834.5,-932 981.19,-932 1141.85,-843.66 1200.98,-807.83"/>
<polygon fill="midnightblue" stroke="midnightblue" points="1202.89,-810.77 1209.59,-802.55 1199.23,-804.8 1202.89,-810.77"/>
</g>
<!-- Node20 -->
<g id="node20" class="node">
<title>Node20</title>
<g id="a_node20"><a xlink:href="../../da/da2/class_t___m_e_s_h_1_1_edge.html#a0f2457674237bd05c42d68b023502742" target="_top" xlink:title="TRUE iff edge is on the boundary (i.e., one of the two incident triangles is NULL).">
<polygon fill="white" stroke="black" points="343,-783.5 343,-802.5 496,-802.5 496,-783.5 343,-783.5"/>
<text text-anchor="middle" x="419.5" y="-790.5" font-family="Helvetica,sans-Serif" font-size="10.00">T_MESH::Edge::isOnBoundary</text>
</a>
</g>
</g>
<!-- Node6&#45;&gt;Node20 -->
<g id="edge26" class="edge">
<title>Node6&#45;&gt;Node20</title>
<path fill="none" stroke="midnightblue" d="M291.62,-782.17C304.79,-783.3 318.96,-784.51 332.9,-785.7"/>
<polygon fill="midnightblue" stroke="midnightblue" points="332.72,-789.19 342.98,-786.56 333.31,-782.22 332.72,-789.19"/>
</g>
<!-- Node21 -->
<g id="node21" class="node">
<title>Node21</title>
<g id="a_node21"><a xlink:href="../../d8/d6e/class_t___m_e_s_h_1_1_triangle.html#a7233b095134d4402e88e988a225d65e5" target="_top" xlink:title="Edge next to &#39;e&#39; in the ordering or the triangle. NULL if &#39;e&#39; is not an edge of the triangle.">
<polygon fill="white" stroke="black" points="347,-745.5 347,-764.5 492,-764.5 492,-745.5 347,-745.5"/>
<text text-anchor="middle" x="419.5" y="-752.5" font-family="Helvetica,sans-Serif" font-size="10.00">T_MESH::Triangle::nextEdge</text>
</a>
</g>
</g>
<!-- Node6&#45;&gt;Node21 -->
<g id="edge27" class="edge">
<title>Node6&#45;&gt;Node21</title>
<path fill="none" stroke="midnightblue" d="M291.62,-769.89C306.1,-768.19 321.79,-766.35 337.04,-764.56"/>
<polygon fill="midnightblue" stroke="midnightblue" points="337.46,-768.03 346.98,-763.39 336.64,-761.08 337.46,-768.03"/>
</g>
<!-- Node7&#45;&gt;Node2 -->
<g id="edge9" class="edge">
<title>Node7&#45;&gt;Node2</title>
<path fill="none" stroke="midnightblue" d="M443.35,-688.09C466.32,-702.56 503.23,-723.94 538,-736 682.17,-786.01 859.86,-809.04 960.37,-818.74"/>
<polygon fill="midnightblue" stroke="midnightblue" points="960.16,-822.23 970.44,-819.69 960.82,-815.27 960.16,-822.23"/>
</g>
<!-- Node7&#45;&gt;Node8 -->
<g id="edge10" class="edge">
<title>Node7&#45;&gt;Node8</title>
<path fill="none" stroke="midnightblue" d="M481.23,-672.1C501.74,-671.79 524.89,-671.45 546.4,-671.13"/>
<polygon fill="midnightblue" stroke="midnightblue" points="546.54,-674.62 556.48,-670.98 546.43,-667.62 546.54,-674.62"/>
</g>
<!-- Node7&#45;&gt;Node19 -->
<g id="edge23" class="edge">
<title>Node7&#45;&gt;Node19</title>
<path fill="none" stroke="midnightblue" d="M435.65,-657.82C470.89,-622.49 558.51,-534.64 599.81,-493.25"/>
<polygon fill="midnightblue" stroke="midnightblue" points="602.37,-495.64 606.95,-486.08 597.41,-490.69 602.37,-495.64"/>
</g>
<!-- Node8&#45;&gt;Node9 -->
<g id="edge11" class="edge">
<title>Node8&#45;&gt;Node9</title>
<path fill="none" stroke="midnightblue" d="M689.84,-679.51C764.19,-690.24 884.98,-707.69 963.34,-719"/>
<polygon fill="midnightblue" stroke="midnightblue" points="963.23,-722.52 973.63,-720.49 964.23,-715.59 963.23,-722.52"/>
</g>
<!-- Node8&#45;&gt;Node10 -->
<g id="edge12" class="edge">
<title>Node8&#45;&gt;Node10</title>
<path fill="none" stroke="midnightblue" d="M655.7,-660.47C685.3,-651.63 727.33,-639.22 744,-635 754.04,-632.46 764.79,-629.97 775.2,-627.67"/>
<polygon fill="midnightblue" stroke="midnightblue" points="776.02,-631.07 785.05,-625.53 774.53,-624.23 776.02,-631.07"/>
</g>
<!-- Node10&#45;&gt;Node2 -->
<g id="edge13" class="edge">
<title>Node10&#45;&gt;Node2</title>
<path fill="none" stroke="midnightblue" d="M888.83,-618.49C901.27,-621.39 913.58,-626.43 923,-635 962.3,-670.76 930.78,-703.98 959,-749 974.27,-773.35 999.16,-795.18 1017.23,-809.13"/>
<polygon fill="midnightblue" stroke="midnightblue" points="1015.38,-812.12 1025.48,-815.32 1019.58,-806.52 1015.38,-812.12"/>
</g>
<!-- Node10&#45;&gt;Node9 -->
<g id="edge19" class="edge">
<title>Node10&#45;&gt;Node9</title>
<path fill="none" stroke="midnightblue" d="M888.5,-619.52C900.81,-622.41 913.15,-627.19 923,-635 952.3,-658.21 929.94,-687.5 959,-711 961.1,-712.7 963.33,-714.25 965.65,-715.67"/>
<polygon fill="midnightblue" stroke="midnightblue" points="964.53,-719.03 975.02,-720.49 967.73,-712.8 964.53,-719.03"/>
</g>
<!-- Node11 -->
<g id="node11" class="node">
<title>Node11</title>
<g id="a_node11"><a xlink:href="../../d3/d04/class_t___m_e_s_h_1_1_list.html#a1b14a2838ee3745d5fb413f9e7ecc214" target="_top" xlink:title="Appends a new node storing &#39;d&#39; to the tail. &#160;&#160;O(1).">
<polygon fill="white" stroke="black" points="975,-568.5 975,-587.5 1106,-587.5 1106,-568.5 975,-568.5"/>
<text text-anchor="middle" x="1040.5" y="-575.5" font-family="Helvetica,sans-Serif" font-size="10.00">T_MESH::List::appendTail</text>
</a>
</g>
</g>
<!-- Node10&#45;&gt;Node11 -->
<g id="edge14" class="edge">
<title>Node10&#45;&gt;Node11</title>
<path fill="none" stroke="midnightblue" d="M885.97,-606.46C913.87,-601.29 948.55,-594.86 977.88,-589.42"/>
<polygon fill="midnightblue" stroke="midnightblue" points="978.82,-592.81 988.01,-587.54 977.54,-585.93 978.82,-592.81"/>
</g>
<!-- Node12 -->
<g id="node12" class="node">
<title>Node12</title>
<g id="a_node12"><a xlink:href="../../da/da2/class_t___m_e_s_h_1_1_edge.html#a96830b6d677fab318268f287682ad151" target="_top" xlink:title="Triangle on the left of the edge when looking from &#39;v&#39;. NULL if &#39;v&#39; is not a vertex of the edge.">
<polygon fill="white" stroke="black" points="970.5,-682.5 970.5,-701.5 1110.5,-701.5 1110.5,-682.5 970.5,-682.5"/>
<text text-anchor="middle" x="1040.5" y="-689.5" font-family="Helvetica,sans-Serif" font-size="10.00">T_MESH::Edge::leftTriangle</text>
</a>
</g>
</g>
<!-- Node10&#45;&gt;Node12 -->
<g id="edge15" class="edge">
<title>Node10&#45;&gt;Node12</title>
<path fill="none" stroke="midnightblue" d="M888.79,-622.29C900.56,-625.1 912.59,-629.15 923,-635 943.28,-646.4 938.83,-661.4 959,-673 962.89,-675.24 967.02,-677.21 971.29,-678.95"/>
<polygon fill="midnightblue" stroke="midnightblue" points="970.19,-682.28 980.79,-682.4 972.59,-675.7 970.19,-682.28"/>
</g>
<!-- Node10&#45;&gt;Node13 -->
<g id="edge16" class="edge">
<title>Node10&#45;&gt;Node13</title>
<path fill="none" stroke="midnightblue" d="M844.17,-606.25C863.92,-586.92 911.07,-543.67 959,-521 964.24,-518.52 969.83,-516.35 975.52,-514.46"/>
<polygon fill="midnightblue" stroke="midnightblue" points="976.62,-517.78 985.17,-511.52 974.58,-511.08 976.62,-517.78"/>
</g>
<!-- Node14 -->
<g id="node14" class="node">
<title>Node14</title>
<g id="a_node14"><a xlink:href="../../d8/d6e/class_t___m_e_s_h_1_1_triangle.html#a77cc688b97fd6501b5dca8385fce4137" target="_top" xlink:title="Triangle&#39;s edge opposite to &#39;v&#39;. NULL if &#39;v&#39; is not a vertex of the triangle.">
<polygon fill="white" stroke="black" points="959,-644.5 959,-663.5 1122,-663.5 1122,-644.5 959,-644.5"/>
<text text-anchor="middle" x="1040.5" y="-651.5" font-family="Helvetica,sans-Serif" font-size="10.00">T_MESH::Triangle::oppositeEdge</text>
</a>
</g>
</g>
<!-- Node10&#45;&gt;Node14 -->
<g id="edge17" class="edge">
<title>Node10&#45;&gt;Node14</title>
<path fill="none" stroke="midnightblue" d="M885.97,-625.54C913.87,-630.71 948.55,-637.14 977.88,-642.58"/>
<polygon fill="midnightblue" stroke="midnightblue" points="977.54,-646.07 988.01,-644.46 978.82,-639.19 977.54,-646.07"/>
</g>
<!-- Node16 -->
<g id="node16" class="node">
<title>Node16</title>
<g id="a_node16"><a xlink:href="../../d3/d04/class_t___m_e_s_h_1_1_list.html#a9701d1b3769b92b7d2a7ed6da895a863" target="_top" xlink:title="Deletes and removes the first node. Returns its data. &#160;&#160;O(1).">
<polygon fill="white" stroke="black" points="978.5,-530.5 978.5,-549.5 1102.5,-549.5 1102.5,-530.5 978.5,-530.5"/>
<text text-anchor="middle" x="1040.5" y="-537.5" font-family="Helvetica,sans-Serif" font-size="10.00">T_MESH::List::popHead</text>
</a>
</g>
</g>
<!-- Node10&#45;&gt;Node16 -->
<g id="edge20" class="edge">
<title>Node10&#45;&gt;Node16</title>
<path fill="none" stroke="midnightblue" d="M852.6,-606.33C876.42,-593.93 919.88,-572.43 959,-559 966.45,-556.44 974.4,-554.11 982.3,-552.02"/>
<polygon fill="midnightblue" stroke="midnightblue" points="983.39,-555.36 992.23,-549.51 981.68,-548.57 983.39,-555.36"/>
</g>
<!-- Node18 -->
<g id="node18" class="node">
<title>Node18</title>
<g id="a_node18"><a xlink:href="../../da/da2/class_t___m_e_s_h_1_1_edge.html#aa9788a51d590116555c8a062e253a197" target="_top" xlink:title="Triangle on the right of the edge when looking from &#39;v&#39;. NULL if &#39;v&#39; is not a vertex of the edge.">
<polygon fill="white" stroke="black" points="968,-606.5 968,-625.5 1113,-625.5 1113,-606.5 968,-606.5"/>
<text text-anchor="middle" x="1040.5" y="-613.5" font-family="Helvetica,sans-Serif" font-size="10.00">T_MESH::Edge::rightTriangle</text>
</a>
</g>
</g>
<!-- Node10&#45;&gt;Node18 -->
<g id="edge22" class="edge">
<title>Node10&#45;&gt;Node18</title>
<path fill="none" stroke="midnightblue" d="M888.63,-616C909.71,-616 934.33,-616 957.5,-616"/>
<polygon fill="midnightblue" stroke="midnightblue" points="957.67,-619.5 967.67,-616 957.67,-612.5 957.67,-619.5"/>
</g>
<!-- Node14&#45;&gt;Node15 -->
<g id="edge18" class="edge">
<title>Node14&#45;&gt;Node15</title>
<path fill="none" stroke="midnightblue" d="M1101.24,-663.56C1108.52,-666.02 1115.63,-669.11 1122,-673 1164.29,-698.8 1197.97,-748.01 1214.11,-774.7"/>
<polygon fill="midnightblue" stroke="midnightblue" points="1211.16,-776.58 1219.24,-783.42 1217.19,-773.03 1211.16,-776.58"/>
</g>
<!-- Node16&#45;&gt;Node17 -->
<g id="edge21" class="edge">
<title>Node16&#45;&gt;Node17</title>
<path fill="none" stroke="midnightblue" d="M1102.55,-532.86C1109.7,-530.02 1116.42,-526.17 1122,-521 1212.19,-437.45 1223.41,-274.91 1224.51,-218.69"/>
<polygon fill="midnightblue" stroke="midnightblue" points="1228.01,-218.69 1224.61,-208.65 1221.01,-218.61 1228.01,-218.69"/>
</g>
<!-- Node22&#45;&gt;Node17 -->
<g id="edge30" class="edge">
<title>Node22&#45;&gt;Node17</title>
<path fill="none" stroke="midnightblue" d="M884.29,-133.57C956.02,-147.37 1088.23,-172.8 1165.01,-187.56"/>
<polygon fill="midnightblue" stroke="midnightblue" points="1164.53,-191.03 1175.01,-189.48 1165.85,-184.16 1164.53,-191.03"/>
</g>
<!-- Node25 -->
<g id="node25" class="node">
<title>Node25</title>
<g id="a_node25"><a xlink:href="../../d8/d6e/class_t___m_e_s_h_1_1_triangle.html#a44ef71206a6f8ad884390c6fb2dd0cef" target="_top" xlink:title="Return the center of the triangle&#39;s bounding sphere.">
<polygon fill="white" stroke="black" points="348,-295 348,-325 491,-325 491,-295 348,-295"/>
<text text-anchor="start" x="356" y="-313" font-family="Helvetica,sans-Serif" font-size="10.00">T_MESH::Triangle::getCircle</text>
<text text-anchor="middle" x="419.5" y="-302" font-family="Helvetica,sans-Serif" font-size="10.00">Center</text>
</a>
</g>
</g>
<!-- Node24&#45;&gt;Node25 -->
<g id="edge34" class="edge">
<title>Node24&#45;&gt;Node25</title>
<path fill="none" stroke="midnightblue" d="M264.95,-353.4C290.19,-346.27 325.34,-336.33 355.65,-327.77"/>
<polygon fill="midnightblue" stroke="midnightblue" points="356.63,-331.13 365.3,-325.04 354.72,-324.39 356.63,-331.13"/>
</g>
<!-- Node31 -->
<g id="node31" class="node">
<title>Node31</title>
<g id="a_node31"><a xlink:href="../../d2/d8e/class_t___m_e_s_h_1_1_point.html#a91e129190fdfb3a70c287f77ec9c7851" target="_top" xlink:title="Squared distance from &#39;*b&#39;.">
<polygon fill="white" stroke="black" points="337,-385.5 337,-404.5 502,-404.5 502,-385.5 337,-385.5"/>
<text text-anchor="middle" x="419.5" y="-392.5" font-family="Helvetica,sans-Serif" font-size="10.00">T_MESH::Point::squaredDistance</text>
</a>
</g>
</g>
<!-- Node24&#45;&gt;Node31 -->
<g id="edge43" class="edge">
<title>Node24&#45;&gt;Node31</title>
<path fill="none" stroke="midnightblue" d="M286.75,-372.51C307.44,-376.05 331.1,-380.08 352.61,-383.75"/>
<polygon fill="midnightblue" stroke="midnightblue" points="352.2,-387.23 362.64,-385.47 353.37,-380.33 352.2,-387.23"/>
</g>
<!-- Node26 -->
<g id="node26" class="node">
<title>Node26</title>
<g id="a_node26"><a xlink:href="../../da/da2/class_t___m_e_s_h_1_1_edge.html#ae1c9ad3e2e9ab1030158dfae5bdb1a94" target="_top" xlink:title="Return the edge&#39;s mid&#45;point.">
<polygon fill="white" stroke="black" points="551.5,-265.5 551.5,-284.5 694.5,-284.5 694.5,-265.5 551.5,-265.5"/>
<text text-anchor="middle" x="623" y="-272.5" font-family="Helvetica,sans-Serif" font-size="10.00">T_MESH::Edge::getMidPoint</text>
</a>
</g>
</g>
<!-- Node25&#45;&gt;Node26 -->
<g id="edge35" class="edge">
<title>Node25&#45;&gt;Node26</title>
<path fill="none" stroke="midnightblue" d="M491.26,-297.71C512.7,-293.99 536.13,-289.92 557.16,-286.26"/>
<polygon fill="midnightblue" stroke="midnightblue" points="558.02,-289.67 567.27,-284.51 556.82,-282.77 558.02,-289.67"/>
</g>
<!-- Node27 -->
<g id="node27" class="node">
<title>Node27</title>
<g id="a_node27"><a xlink:href="../../d2/d8e/class_t___m_e_s_h_1_1_point.html#a0c342e891a2bee0206e007f840e85343" target="_top" xlink:title="Returns the solution of the linear system Ax = d, where A is a 3x3 matrix whose rows are row1,...">
<polygon fill="white" stroke="black" points="548.5,-303.5 548.5,-322.5 697.5,-322.5 697.5,-303.5 548.5,-303.5"/>
<text text-anchor="middle" x="623" y="-310.5" font-family="Helvetica,sans-Serif" font-size="10.00">T_MESH::Point::linearSystem</text>
</a>
</g>
</g>
<!-- Node25&#45;&gt;Node27 -->
<g id="edge36" class="edge">
<title>Node25&#45;&gt;Node27</title>
<path fill="none" stroke="midnightblue" d="M491.26,-311.05C506.42,-311.28 522.58,-311.52 538.18,-311.75"/>
<polygon fill="midnightblue" stroke="midnightblue" points="538.29,-315.25 548.34,-311.9 538.39,-308.25 538.29,-315.25"/>
</g>
<!-- Node25&#45;&gt;Node28 -->
<g id="edge37" class="edge">
<title>Node25&#45;&gt;Node28</title>
<path fill="none" stroke="midnightblue" d="M445.35,-325.01C468.58,-338.47 504.62,-357.92 538,-370 545.22,-372.61 552.92,-374.94 560.61,-376.99"/>
<polygon fill="midnightblue" stroke="midnightblue" points="559.78,-380.39 570.33,-379.45 561.49,-373.61 559.78,-380.39"/>
</g>
<!-- Node25&#45;&gt;Node29 -->
<g id="edge39" class="edge">
<title>Node25&#45;&gt;Node29</title>
<path fill="none" stroke="midnightblue" d="M491.26,-324.4C515.46,-329.32 542.2,-334.76 565.16,-339.43"/>
<polygon fill="midnightblue" stroke="midnightblue" points="564.59,-342.89 575.08,-341.45 565.98,-336.03 564.59,-342.89"/>
</g>
<!-- Node25&#45;&gt;Node30 -->
<g id="edge41" class="edge">
<title>Node25&#45;&gt;Node30</title>
<path fill="none" stroke="midnightblue" d="M467.42,-294.87C478.96,-290.57 491.11,-285.53 502,-280 519.14,-271.29 520.33,-263.58 538,-256 543.86,-253.49 550.1,-251.28 556.43,-249.35"/>
<polygon fill="midnightblue" stroke="midnightblue" points="557.73,-252.62 566.41,-246.55 555.84,-245.89 557.73,-252.62"/>
</g>
<!-- Node28&#45;&gt;Node4 -->
<g id="edge38" class="edge">
<title>Node28&#45;&gt;Node4</title>
<path fill="none" stroke="midnightblue" d="M680.15,-389C699.93,-389 722.68,-389 744.45,-389"/>
<polygon fill="midnightblue" stroke="midnightblue" points="744.71,-392.5 754.71,-389 744.71,-385.5 744.71,-392.5"/>
</g>
<!-- Node29&#45;&gt;Node4 -->
<g id="edge40" class="edge">
<title>Node29&#45;&gt;Node4</title>
<path fill="none" stroke="midnightblue" d="M676.34,-360.54C704.85,-365.73 740.3,-372.2 770.22,-377.65"/>
<polygon fill="midnightblue" stroke="midnightblue" points="769.67,-381.11 780.13,-379.46 770.92,-374.22 769.67,-381.11"/>
</g>
<!-- Node30&#45;&gt;Node4 -->
<g id="edge42" class="edge">
<title>Node30&#45;&gt;Node4</title>
<path fill="none" stroke="midnightblue" d="M680.42,-244.88C690,-247.56 699.57,-251.17 708,-256 759.01,-285.23 801.58,-342.14 821.08,-371.11"/>
<polygon fill="midnightblue" stroke="midnightblue" points="818.16,-373.04 826.58,-379.47 824,-369.19 818.16,-373.04"/>
</g>
<!-- Node32 -->
<g id="node32" class="node">
<title>Node32</title>
<g id="a_node32"><a xlink:href="../../d2/d8e/class_t___m_e_s_h_1_1_point.html#a9772b28d248a5198f2421bd510f263ba" target="_top" xlink:title="Squared distance from origin.">
<polygon fill="white" stroke="black" points="545.5,-417.5 545.5,-436.5 700.5,-436.5 700.5,-417.5 545.5,-417.5"/>
<text text-anchor="middle" x="623" y="-424.5" font-family="Helvetica,sans-Serif" font-size="10.00">T_MESH::Point::squaredLength</text>
</a>
</g>
</g>
<!-- Node31&#45;&gt;Node32 -->
<g id="edge44" class="edge">
<title>Node31&#45;&gt;Node32</title>
<path fill="none" stroke="midnightblue" d="M480.41,-404.51C502.85,-408.08 528.53,-412.16 551.81,-415.85"/>
<polygon fill="midnightblue" stroke="midnightblue" points="551.55,-419.36 561.97,-417.47 552.64,-412.44 551.55,-419.36"/>
</g>
<!-- Node35&#45;&gt;Node9 -->
<g id="edge53" class="edge">
<title>Node35&#45;&gt;Node9</title>
<path fill="none" stroke="midnightblue" d="M708.08,-719.63C778.94,-721.85 879.97,-725.01 951.82,-727.26"/>
<polygon fill="midnightblue" stroke="midnightblue" points="952.1,-730.77 962.2,-727.58 952.32,-723.77 952.1,-730.77"/>
</g>
<!-- Node36 -->
<g id="node36" class="node">
<title>Node36</title>
<g id="a_node36"><a xlink:href="../../d5/d7f/class_t___m_e_s_h_1_1_vertex.html#a312b5886ae431004c537b8a2a7f6672f" target="_top" xlink:title="Returns the edge following this vertex on the boundary.">
<polygon fill="white" stroke="black" points="744,-644.5 744,-663.5 923,-663.5 923,-644.5 744,-644.5"/>
<text text-anchor="middle" x="833.5" y="-651.5" font-family="Helvetica,sans-Serif" font-size="10.00">T_MESH::Vertex::nextBoundaryEdge</text>
</a>
</g>
</g>
<!-- Node35&#45;&gt;Node36 -->
<g id="edge49" class="edge">
<title>Node35&#45;&gt;Node36</title>
<path fill="none" stroke="midnightblue" d="M655.67,-707.43C691.9,-696.48 751.35,-678.52 791.2,-666.48"/>
<polygon fill="midnightblue" stroke="midnightblue" points="792.32,-669.8 800.88,-663.55 790.29,-663.1 792.32,-669.8"/>
</g>
<!-- Node36&#45;&gt;Node9 -->
<g id="edge52" class="edge">
<title>Node36&#45;&gt;Node9</title>
<path fill="none" stroke="midnightblue" d="M886.19,-663.59C898.7,-667.09 911.7,-671.78 923,-678 942.01,-688.47 939.82,-700.85 959,-711 963.49,-713.37 968.27,-715.46 973.18,-717.28"/>
<polygon fill="midnightblue" stroke="midnightblue" points="972.14,-720.62 982.73,-720.48 974.36,-713.98 972.14,-720.62"/>
</g>
<!-- Node36&#45;&gt;Node12 -->
<g id="edge50" class="edge">
<title>Node36&#45;&gt;Node12</title>
<path fill="none" stroke="midnightblue" d="M885.97,-663.54C913.87,-668.71 948.55,-675.14 977.88,-680.58"/>
<polygon fill="midnightblue" stroke="midnightblue" points="977.54,-684.07 988.01,-682.46 978.82,-677.19 977.54,-684.07"/>
</g>
<!-- Node36&#45;&gt;Node14 -->
<g id="edge51" class="edge">
<title>Node36&#45;&gt;Node14</title>
<path fill="none" stroke="midnightblue" d="M923.22,-654C931.61,-654 940.12,-654 948.53,-654"/>
<polygon fill="midnightblue" stroke="midnightblue" points="948.71,-657.5 958.71,-654 948.71,-650.5 948.71,-657.5"/>
</g>
<!-- Node39 -->
<g id="node39" class="node">
<title>Node39</title>
<g id="a_node39"><a xlink:href="../../da/da2/class_t___m_e_s_h_1_1_edge.html#a7dc1e391013579708d070b01478d3159" target="_top" xlink:title="TRUE iff edge is isolated (i.e., both the two incident triangles are NULL).">
<polygon fill="white" stroke="black" points="352.5,-38.5 352.5,-57.5 486.5,-57.5 486.5,-38.5 352.5,-38.5"/>
<text text-anchor="middle" x="419.5" y="-45.5" font-family="Helvetica,sans-Serif" font-size="10.00">T_MESH::Edge::isIsolated</text>
</a>
</g>
</g>
<!-- Node38&#45;&gt;Node39 -->
<g id="edge58" class="edge">
<title>Node38&#45;&gt;Node39</title>
<path fill="none" stroke="midnightblue" d="M296.05,-35.59C310.98,-37.1 326.97,-38.73 342.32,-40.28"/>
<polygon fill="midnightblue" stroke="midnightblue" points="341.99,-43.76 352.29,-41.29 342.7,-36.8 341.99,-43.76"/>
</g>
<!-- Node40 -->
<g id="node40" class="node">
<title>Node40</title>
<g id="a_node40"><a xlink:href="../../da/da2/class_t___m_e_s_h_1_1_edge.html#a96d7a013a37e724352108c9fac25bbf5" target="_top" xlink:title="Replace incident triangle &#39;a&#39; with &#39;b&#39; and return TRUE. If &#39;a&#39; is not incident to the edge return FAL...">
<polygon fill="white" stroke="black" points="340.5,-0.5 340.5,-19.5 498.5,-19.5 498.5,-0.5 340.5,-0.5"/>
<text text-anchor="middle" x="419.5" y="-7.5" font-family="Helvetica,sans-Serif" font-size="10.00">T_MESH::Edge::replaceTriangle</text>
</a>
</g>
</g>
<!-- Node38&#45;&gt;Node40 -->
<g id="edge59" class="edge">
<title>Node38&#45;&gt;Node40</title>
<path fill="none" stroke="midnightblue" d="M296.05,-22.41C307.1,-21.29 318.73,-20.11 330.25,-18.94"/>
<polygon fill="midnightblue" stroke="midnightblue" points="330.73,-22.41 340.33,-17.92 330.03,-15.45 330.73,-22.41"/>
</g>
</g>
</svg>
