<?xml version="1.0" encoding="UTF-8" standalone="no"?>
<!DOCTYPE svg PUBLIC "-//W3C//DTD SVG 1.1//EN"
 "http://www.w3.org/Graphics/SVG/1.1/DTD/svg11.dtd">
<!-- Generated by graphviz version 2.44.1 (0)
 -->
<!-- Title: T_MESH::Basic_TMesh::removeSelectedTriangles Pages: 1 -->
<svg width="864pt" height="659pt"
 viewBox="0.00 0.00 864.00 659.00" xmlns="http://www.w3.org/2000/svg" xmlns:xlink="http://www.w3.org/1999/xlink">
<g id="graph0" class="graph" transform="scale(1 1) rotate(0) translate(4 655)">
<title>T_MESH::Basic_TMesh::removeSelectedTriangles</title>
<polygon fill="white" stroke="transparent" points="-4,4 -4,-655 860,-655 860,4 -4,4"/>
<!-- Node1 -->
<g id="node1" class="node">
<title>Node1</title>
<g id="a_node1"><a xlink:title="Removes all the selected triangles. O(N).">
<polygon fill="#bfbfbf" stroke="black" points="0,-219 0,-249 133,-249 133,-219 0,-219"/>
<text text-anchor="start" x="8" y="-237" font-family="Helvetica,sans-Serif" font-size="10.00">T_MESH::Basic_TMesh</text>
<text text-anchor="middle" x="66.5" y="-226" font-family="Helvetica,sans-Serif" font-size="10.00">::removeSelectedTriangles</text>
</a>
</g>
</g>
<!-- Node2 -->
<g id="node2" class="node">
<title>Node2</title>
<g id="a_node2"><a xlink:href="../../d6/d27/class_t___m_e_s_h_1_1_basic___t_mesh.html#ae11cf4d5f73b416ca9335fd3d6dea58f" target="_top" xlink:title="Removes all the unlinked elements from the lists. Returns the number of removed elements....">
<polygon fill="white" stroke="black" points="340,-532 340,-562 474,-562 474,-532 340,-532"/>
<text text-anchor="start" x="348" y="-550" font-family="Helvetica,sans-Serif" font-size="10.00">T_MESH::Basic_TMesh</text>
<text text-anchor="middle" x="407" y="-539" font-family="Helvetica,sans-Serif" font-size="10.00">::removeUnlinkedElements</text>
</a>
</g>
</g>
<!-- Node1&#45;&gt;Node2 -->
<g id="edge1" class="edge">
<title>Node1&#45;&gt;Node2</title>
<path fill="none" stroke="midnightblue" d="M83.83,-249.1C138.66,-299.8 316.46,-464.21 381.71,-524.54"/>
<polygon fill="midnightblue" stroke="midnightblue" points="379.72,-527.47 389.44,-531.69 384.47,-522.33 379.72,-527.47"/>
</g>
<!-- Node11 -->
<g id="node11" class="node">
<title>Node11</title>
<g id="a_node11"><a xlink:href="../../d6/d27/class_t___m_e_s_h_1_1_basic___t_mesh.html#a8587dde3c2d3c7ff7d0f7c8ff82ecf70" target="_top" xlink:title="Unlinks a triangle from the mesh. O(1).">
<polygon fill="white" stroke="black" points="169,-197 169,-227 292,-227 292,-197 169,-197"/>
<text text-anchor="start" x="177" y="-215" font-family="Helvetica,sans-Serif" font-size="10.00">T_MESH::Basic_TMesh</text>
<text text-anchor="middle" x="230.5" y="-204" font-family="Helvetica,sans-Serif" font-size="10.00">::unlinkTriangle</text>
</a>
</g>
</g>
<!-- Node1&#45;&gt;Node11 -->
<g id="edge20" class="edge">
<title>Node1&#45;&gt;Node11</title>
<path fill="none" stroke="midnightblue" d="M133.39,-225.05C141.74,-223.92 150.3,-222.76 158.72,-221.61"/>
<polygon fill="midnightblue" stroke="midnightblue" points="159.45,-225.05 168.89,-220.23 158.51,-218.11 159.45,-225.05"/>
</g>
<!-- Node3 -->
<g id="node3" class="node">
<title>Node3</title>
<g id="a_node3"><a xlink:href="../../d6/d27/class_t___m_e_s_h_1_1_basic___t_mesh.html#a31ae056d8614b35cf8b4ea59f6b6a008" target="_top" xlink:title="Removes all the unlinked edges from List E. Returns the number of removed edges. O(N).">
<polygon fill="white" stroke="black" points="542,-605 542,-635 665,-635 665,-605 542,-605"/>
<text text-anchor="start" x="550" y="-623" font-family="Helvetica,sans-Serif" font-size="10.00">T_MESH::Basic_TMesh</text>
<text text-anchor="middle" x="603.5" y="-612" font-family="Helvetica,sans-Serif" font-size="10.00">::removeEdges</text>
</a>
</g>
</g>
<!-- Node2&#45;&gt;Node3 -->
<g id="edge2" class="edge">
<title>Node2&#45;&gt;Node3</title>
<path fill="none" stroke="midnightblue" d="M440.52,-562.18C463.11,-572.42 494.05,-585.87 522,-596 527.53,-598.01 533.32,-599.98 539.15,-601.87"/>
<polygon fill="midnightblue" stroke="midnightblue" points="538.36,-605.29 548.95,-604.99 540.48,-598.62 538.36,-605.29"/>
</g>
<!-- Node9 -->
<g id="node9" class="node">
<title>Node9</title>
<g id="a_node9"><a xlink:href="../../d6/d27/class_t___m_e_s_h_1_1_basic___t_mesh.html#a4e221f29cf4ddb2c64ab866fc7a7e996" target="_top" xlink:title="Removes all the unlinked triangles from List T. Returns the number of removed triangles....">
<polygon fill="white" stroke="black" points="542,-556 542,-586 665,-586 665,-556 542,-556"/>
<text text-anchor="start" x="550" y="-574" font-family="Helvetica,sans-Serif" font-size="10.00">T_MESH::Basic_TMesh</text>
<text text-anchor="middle" x="603.5" y="-563" font-family="Helvetica,sans-Serif" font-size="10.00">::removeTriangles</text>
</a>
</g>
</g>
<!-- Node2&#45;&gt;Node9 -->
<g id="edge8" class="edge">
<title>Node2&#45;&gt;Node9</title>
<path fill="none" stroke="midnightblue" d="M474.12,-555.16C492.7,-557.45 512.97,-559.95 531.8,-562.28"/>
<polygon fill="midnightblue" stroke="midnightblue" points="531.44,-565.76 541.8,-563.51 532.3,-558.81 531.44,-565.76"/>
</g>
<!-- Node10 -->
<g id="node10" class="node">
<title>Node10</title>
<g id="a_node10"><a xlink:href="../../d6/d27/class_t___m_e_s_h_1_1_basic___t_mesh.html#a46cd99ce46b77a7b154c0a651cf80afa" target="_top" xlink:title="Removes all the unlinked vertices from List V. Returns the number of removed vertices....">
<polygon fill="white" stroke="black" points="542,-507 542,-537 665,-537 665,-507 542,-507"/>
<text text-anchor="start" x="550" y="-525" font-family="Helvetica,sans-Serif" font-size="10.00">T_MESH::Basic_TMesh</text>
<text text-anchor="middle" x="603.5" y="-514" font-family="Helvetica,sans-Serif" font-size="10.00">::removeVertices</text>
</a>
</g>
</g>
<!-- Node2&#45;&gt;Node10 -->
<g id="edge14" class="edge">
<title>Node2&#45;&gt;Node10</title>
<path fill="none" stroke="midnightblue" d="M474.12,-538.5C492.7,-536.11 512.97,-533.51 531.8,-531.09"/>
<polygon fill="midnightblue" stroke="midnightblue" points="532.32,-534.55 541.8,-529.8 531.43,-527.61 532.32,-534.55"/>
</g>
<!-- Node4 -->
<g id="node4" class="node">
<title>Node4</title>
<g id="a_node4"><a xlink:href="../../d3/d04/class_t___m_e_s_h_1_1_list.html#af3baa55cf02bd943635012a489d6c33a" target="_top" xlink:title="Gets the first node, NULL if empty. &#160;&#160;O(1).">
<polygon fill="white" stroke="black" points="735.5,-631.5 735.5,-650.5 841.5,-650.5 841.5,-631.5 735.5,-631.5"/>
<text text-anchor="middle" x="788.5" y="-638.5" font-family="Helvetica,sans-Serif" font-size="10.00">T_MESH::List::head</text>
</a>
</g>
</g>
<!-- Node3&#45;&gt;Node4 -->
<g id="edge3" class="edge">
<title>Node3&#45;&gt;Node4</title>
<path fill="none" stroke="midnightblue" d="M665.18,-626.96C684.5,-629.18 705.89,-631.63 725.31,-633.86"/>
<polygon fill="midnightblue" stroke="midnightblue" points="724.93,-637.34 735.26,-635.01 725.72,-630.39 724.93,-637.34"/>
</g>
<!-- Node5 -->
<g id="node5" class="node">
<title>Node5</title>
<g id="a_node5"><a xlink:href="../../da/d53/class_t___m_e_s_h_1_1_node.html#ae661edb2148691ba90cfe14d73d2545b" target="_top" xlink:title="Returns the next node in the list, possibly NULL.">
<polygon fill="white" stroke="black" points="733,-593.5 733,-612.5 844,-612.5 844,-593.5 733,-593.5"/>
<text text-anchor="middle" x="788.5" y="-600.5" font-family="Helvetica,sans-Serif" font-size="10.00">T_MESH::Node::next</text>
</a>
</g>
</g>
<!-- Node3&#45;&gt;Node5 -->
<g id="edge4" class="edge">
<title>Node3&#45;&gt;Node5</title>
<path fill="none" stroke="midnightblue" d="M665.18,-614.36C683.62,-612.65 703.94,-610.76 722.64,-609.03"/>
<polygon fill="midnightblue" stroke="midnightblue" points="723.21,-612.49 732.84,-608.08 722.56,-605.52 723.21,-612.49"/>
</g>
<!-- Node6 -->
<g id="node6" class="node">
<title>Node6</title>
<g id="a_node6"><a xlink:href="../../da/d53/class_t___m_e_s_h_1_1_node.html#aed5d13bba326f240b2058b5a2a28c3c3" target="_top" xlink:title="Returns the previous node in the list, possibly NULL.">
<polygon fill="white" stroke="black" points="733,-555.5 733,-574.5 844,-574.5 844,-555.5 733,-555.5"/>
<text text-anchor="middle" x="788.5" y="-562.5" font-family="Helvetica,sans-Serif" font-size="10.00">T_MESH::Node::prev</text>
</a>
</g>
</g>
<!-- Node3&#45;&gt;Node6 -->
<g id="edge5" class="edge">
<title>Node3&#45;&gt;Node6</title>
<path fill="none" stroke="midnightblue" d="M656.11,-604.88C665.73,-601.99 675.68,-598.94 685,-596 701.08,-590.92 704.89,-588.98 721,-584 728.18,-581.78 735.82,-579.51 743.27,-577.35"/>
<polygon fill="midnightblue" stroke="midnightblue" points="744.26,-580.7 752.9,-574.58 742.32,-573.98 744.26,-580.7"/>
</g>
<!-- Node7 -->
<g id="node7" class="node">
<title>Node7</title>
<g id="a_node7"><a xlink:href="../../d3/d04/class_t___m_e_s_h_1_1_list.html#aec091d7c66b66c92fe56f06f41f448f4" target="_top" xlink:title="Deletes and removes the node &#39;n&#39; from the list. &#160;&#160;O(1).">
<polygon fill="white" stroke="black" points="721.5,-479.5 721.5,-498.5 855.5,-498.5 855.5,-479.5 721.5,-479.5"/>
<text text-anchor="middle" x="788.5" y="-486.5" font-family="Helvetica,sans-Serif" font-size="10.00">T_MESH::List::removeCell</text>
</a>
</g>
</g>
<!-- Node3&#45;&gt;Node7 -->
<g id="edge6" class="edge">
<title>Node3&#45;&gt;Node7</title>
<path fill="none" stroke="midnightblue" d="M665.27,-608.45C672.47,-605.26 679.27,-601.19 685,-596 716.32,-567.63 689.52,-536.19 721,-508 722.74,-506.44 724.61,-505 726.56,-503.69"/>
<polygon fill="midnightblue" stroke="midnightblue" points="728.61,-506.56 735.64,-498.63 725.2,-500.44 728.61,-506.56"/>
</g>
<!-- Node8 -->
<g id="node8" class="node">
<title>Node8</title>
<g id="a_node8"><a xlink:href="../../d3/d04/class_t___m_e_s_h_1_1_list.html#a700222ddbd4160a36795249926752f79" target="_top" xlink:title="Gets the last node, NULL if empty. &#160;&#160;O(1).">
<polygon fill="white" stroke="black" points="739.5,-517.5 739.5,-536.5 837.5,-536.5 837.5,-517.5 739.5,-517.5"/>
<text text-anchor="middle" x="788.5" y="-524.5" font-family="Helvetica,sans-Serif" font-size="10.00">T_MESH::List::tail</text>
</a>
</g>
</g>
<!-- Node3&#45;&gt;Node8 -->
<g id="edge7" class="edge">
<title>Node3&#45;&gt;Node8</title>
<path fill="none" stroke="midnightblue" d="M665.03,-606.77C672.1,-603.86 678.94,-600.31 685,-596 707.31,-580.13 698.6,-561.74 721,-546 723.84,-544.01 726.88,-542.22 730.05,-540.62"/>
<polygon fill="midnightblue" stroke="midnightblue" points="731.48,-543.82 739.23,-536.59 728.66,-537.41 731.48,-543.82"/>
</g>
<!-- Node9&#45;&gt;Node4 -->
<g id="edge9" class="edge">
<title>Node9&#45;&gt;Node4</title>
<path fill="none" stroke="midnightblue" d="M661.28,-586.08C669.41,-588.97 677.54,-592.27 685,-596 702.66,-604.82 703.24,-613.38 721,-622 725.67,-624.27 730.67,-626.31 735.74,-628.14"/>
<polygon fill="midnightblue" stroke="midnightblue" points="734.93,-631.56 745.52,-631.41 737.14,-624.92 734.93,-631.56"/>
</g>
<!-- Node9&#45;&gt;Node5 -->
<g id="edge10" class="edge">
<title>Node9&#45;&gt;Node5</title>
<path fill="none" stroke="midnightblue" d="M665.18,-581.61C683.79,-584.87 704.32,-588.46 723.17,-591.75"/>
<polygon fill="midnightblue" stroke="midnightblue" points="722.69,-595.22 733.14,-593.49 723.9,-588.32 722.69,-595.22"/>
</g>
<!-- Node9&#45;&gt;Node6 -->
<g id="edge11" class="edge">
<title>Node9&#45;&gt;Node6</title>
<path fill="none" stroke="midnightblue" d="M665.18,-569.01C683.62,-568.41 703.94,-567.74 722.64,-567.13"/>
<polygon fill="midnightblue" stroke="midnightblue" points="722.96,-570.62 732.84,-566.79 722.73,-563.62 722.96,-570.62"/>
</g>
<!-- Node9&#45;&gt;Node7 -->
<g id="edge12" class="edge">
<title>Node9&#45;&gt;Node7</title>
<path fill="none" stroke="midnightblue" d="M665.39,-556.72C672.24,-553.99 678.94,-550.78 685,-547 705.02,-534.52 700.91,-520.37 721,-508 724.41,-505.9 728.06,-504.02 731.83,-502.35"/>
<polygon fill="midnightblue" stroke="midnightblue" points="733.36,-505.51 741.38,-498.59 730.8,-499 733.36,-505.51"/>
</g>
<!-- Node9&#45;&gt;Node8 -->
<g id="edge13" class="edge">
<title>Node9&#45;&gt;Node8</title>
<path fill="none" stroke="midnightblue" d="M665.18,-556.41C688.82,-550.73 715.57,-544.3 738.01,-538.9"/>
<polygon fill="midnightblue" stroke="midnightblue" points="739.08,-542.24 747.99,-536.5 737.45,-535.43 739.08,-542.24"/>
</g>
<!-- Node10&#45;&gt;Node4 -->
<g id="edge15" class="edge">
<title>Node10&#45;&gt;Node4</title>
<path fill="none" stroke="midnightblue" d="M665,-534.67C672.24,-537.89 679.13,-541.93 685,-547 712.99,-571.16 692.74,-598.16 721,-622 723.01,-623.69 725.16,-625.24 727.41,-626.64"/>
<polygon fill="midnightblue" stroke="midnightblue" points="726.05,-629.88 736.53,-631.41 729.29,-623.68 726.05,-629.88"/>
</g>
<!-- Node10&#45;&gt;Node5 -->
<g id="edge16" class="edge">
<title>Node10&#45;&gt;Node5</title>
<path fill="none" stroke="midnightblue" d="M664.87,-537.08C671.89,-539.89 678.76,-543.17 685,-547 704.56,-558.99 701.31,-572.23 721,-584 724.59,-586.15 728.44,-588.06 732.41,-589.77"/>
<polygon fill="midnightblue" stroke="midnightblue" points="731.23,-593.07 741.82,-593.38 733.74,-586.53 731.23,-593.07"/>
</g>
<!-- Node10&#45;&gt;Node6 -->
<g id="edge17" class="edge">
<title>Node10&#45;&gt;Node6</title>
<path fill="none" stroke="midnightblue" d="M665.18,-536.26C688.46,-541.73 714.75,-547.91 736.98,-553.13"/>
<polygon fill="midnightblue" stroke="midnightblue" points="736.34,-556.57 746.88,-555.45 737.94,-549.76 736.34,-556.57"/>
</g>
<!-- Node10&#45;&gt;Node7 -->
<g id="edge18" class="edge">
<title>Node10&#45;&gt;Node7</title>
<path fill="none" stroke="midnightblue" d="M665.18,-511.06C684.32,-507.61 705.49,-503.79 724.77,-500.31"/>
<polygon fill="midnightblue" stroke="midnightblue" points="725.44,-503.75 734.66,-498.53 724.19,-496.86 725.44,-503.75"/>
</g>
<!-- Node10&#45;&gt;Node8 -->
<g id="edge19" class="edge">
<title>Node10&#45;&gt;Node8</title>
<path fill="none" stroke="midnightblue" d="M665.18,-523.66C685.83,-524.22 708.85,-524.85 729.3,-525.41"/>
<polygon fill="midnightblue" stroke="midnightblue" points="729.33,-528.91 739.42,-525.69 729.52,-521.91 729.33,-528.91"/>
</g>
<!-- Node12 -->
<g id="node12" class="node">
<title>Node12</title>
<g id="a_node12"><a xlink:href="../../d3/d04/class_t___m_e_s_h_1_1_list.html#ae601a7e17364ce83f74ffcb6c64971ca" target="_top" xlink:title="Appends a new node storing &#39;d&#39; to the head. &#160;&#160;O(1).">
<polygon fill="white" stroke="black" points="533.5,-468.5 533.5,-487.5 673.5,-487.5 673.5,-468.5 533.5,-468.5"/>
<text text-anchor="middle" x="603.5" y="-475.5" font-family="Helvetica,sans-Serif" font-size="10.00">T_MESH::List::appendHead</text>
</a>
</g>
</g>
<!-- Node11&#45;&gt;Node12 -->
<g id="edge21" class="edge">
<title>Node11&#45;&gt;Node12</title>
<path fill="none" stroke="midnightblue" d="M239.67,-227.11C254.51,-253.54 288.08,-308.76 328,-345 402.04,-412.23 429.18,-421.76 522,-459 528.27,-461.51 534.95,-463.75 541.68,-465.71"/>
<polygon fill="midnightblue" stroke="midnightblue" points="540.97,-469.15 551.54,-468.41 542.82,-462.4 540.97,-469.15"/>
</g>
<!-- Node13 -->
<g id="node13" class="node">
<title>Node13</title>
<g id="a_node13"><a xlink:href="../../da/da2/class_t___m_e_s_h_1_1_edge.html#a7dc1e391013579708d070b01478d3159" target="_top" xlink:title="TRUE iff edge is isolated (i.e., both the two incident triangles are NULL).">
<polygon fill="white" stroke="black" points="340,-164.5 340,-183.5 474,-183.5 474,-164.5 340,-164.5"/>
<text text-anchor="middle" x="407" y="-171.5" font-family="Helvetica,sans-Serif" font-size="10.00">T_MESH::Edge::isIsolated</text>
</a>
</g>
</g>
<!-- Node11&#45;&gt;Node13 -->
<g id="edge22" class="edge">
<title>Node11&#45;&gt;Node13</title>
<path fill="none" stroke="midnightblue" d="M292.04,-198.82C311.65,-194.55 333.25,-189.84 352.33,-185.69"/>
<polygon fill="midnightblue" stroke="midnightblue" points="353.31,-189.06 362.34,-183.51 351.82,-182.22 353.31,-189.06"/>
</g>
<!-- Node14 -->
<g id="node14" class="node">
<title>Node14</title>
<g id="a_node14"><a xlink:href="../../da/da2/class_t___m_e_s_h_1_1_edge.html#a0f2457674237bd05c42d68b023502742" target="_top" xlink:title="TRUE iff edge is on the boundary (i.e., one of the two incident triangles is NULL).">
<polygon fill="white" stroke="black" points="330.5,-126.5 330.5,-145.5 483.5,-145.5 483.5,-126.5 330.5,-126.5"/>
<text text-anchor="middle" x="407" y="-133.5" font-family="Helvetica,sans-Serif" font-size="10.00">T_MESH::Edge::isOnBoundary</text>
</a>
</g>
</g>
<!-- Node11&#45;&gt;Node14 -->
<g id="edge23" class="edge">
<title>Node11&#45;&gt;Node14</title>
<path fill="none" stroke="midnightblue" d="M252.77,-196.94C271.72,-184.15 300.6,-166.14 328,-155 334.16,-152.5 340.73,-150.26 347.35,-148.29"/>
<polygon fill="midnightblue" stroke="midnightblue" points="348.34,-151.65 357.03,-145.59 346.46,-144.91 348.34,-151.65"/>
</g>
<!-- Node15 -->
<g id="node15" class="node">
<title>Node15</title>
<g id="a_node15"><a xlink:href="../../d5/d7f/class_t___m_e_s_h_1_1_vertex.html#ac6001e2789a05af164867f6c1dd934f9" target="_top" xlink:title="TRUE iff vertex is on boundary.">
<polygon fill="white" stroke="black" points="328,-278.5 328,-297.5 486,-297.5 486,-278.5 328,-278.5"/>
<text text-anchor="middle" x="407" y="-285.5" font-family="Helvetica,sans-Serif" font-size="10.00">T_MESH::Vertex::isOnBoundary</text>
</a>
</g>
</g>
<!-- Node11&#45;&gt;Node15 -->
<g id="edge24" class="edge">
<title>Node11&#45;&gt;Node15</title>
<path fill="none" stroke="midnightblue" d="M252.77,-227.06C271.72,-239.85 300.6,-257.86 328,-269 334.16,-271.5 340.73,-273.74 347.35,-275.71"/>
<polygon fill="midnightblue" stroke="midnightblue" points="346.46,-279.09 357.03,-278.41 348.34,-272.35 346.46,-279.09"/>
</g>
<!-- Node20 -->
<g id="node20" class="node">
<title>Node20</title>
<g id="a_node20"><a xlink:href="../../d6/d27/class_t___m_e_s_h_1_1_basic___t_mesh.html#a8cbf313f4e9cab9dab1b026b45dd1c8e" target="_top" xlink:title="AMF_ADD 1.1&gt;">
<polygon fill="white" stroke="black" points="345.5,-39 345.5,-69 468.5,-69 468.5,-39 345.5,-39"/>
<text text-anchor="start" x="353.5" y="-57" font-family="Helvetica,sans-Serif" font-size="10.00">T_MESH::Basic_TMesh</text>
<text text-anchor="middle" x="407" y="-46" font-family="Helvetica,sans-Serif" font-size="10.00">::newVertex</text>
</a>
</g>
</g>
<!-- Node11&#45;&gt;Node20 -->
<g id="edge29" class="edge">
<title>Node11&#45;&gt;Node20</title>
<path fill="none" stroke="midnightblue" d="M238.47,-196.81C251.87,-169.26 283.86,-110.95 328,-79 330.65,-77.08 333.45,-75.31 336.36,-73.66"/>
<polygon fill="midnightblue" stroke="midnightblue" points="338,-76.76 345.35,-69.12 334.84,-70.51 338,-76.76"/>
</g>
<!-- Node21 -->
<g id="node21" class="node">
<title>Node21</title>
<g id="a_node21"><a xlink:href="../../da/da2/class_t___m_e_s_h_1_1_edge.html#a96d7a013a37e724352108c9fac25bbf5" target="_top" xlink:title="Replace incident triangle &#39;a&#39; with &#39;b&#39; and return TRUE. If &#39;a&#39; is not incident to the edge return FAL...">
<polygon fill="white" stroke="black" points="328,-0.5 328,-19.5 486,-19.5 486,-0.5 328,-0.5"/>
<text text-anchor="middle" x="407" y="-7.5" font-family="Helvetica,sans-Serif" font-size="10.00">T_MESH::Edge::replaceTriangle</text>
</a>
</g>
</g>
<!-- Node11&#45;&gt;Node21 -->
<g id="edge30" class="edge">
<title>Node11&#45;&gt;Node21</title>
<path fill="none" stroke="midnightblue" d="M234.93,-196.96C243.78,-161.76 270.78,-73.61 328,-29 330.32,-27.19 332.78,-25.55 335.36,-24.07"/>
<polygon fill="midnightblue" stroke="midnightblue" points="337.04,-27.14 344.46,-19.59 333.95,-20.86 337.04,-27.14"/>
</g>
<!-- Node22 -->
<g id="node22" class="node">
<title>Node22</title>
<g id="a_node22"><a xlink:href="../../d8/d6e/class_t___m_e_s_h_1_1_triangle.html#aa7b9f783f2e4339083f46d25d3eecf68" target="_top" xlink:title="First vertex.">
<polygon fill="white" stroke="black" points="350,-240.5 350,-259.5 464,-259.5 464,-240.5 350,-240.5"/>
<text text-anchor="middle" x="407" y="-247.5" font-family="Helvetica,sans-Serif" font-size="10.00">T_MESH::Triangle::v1</text>
</a>
</g>
</g>
<!-- Node11&#45;&gt;Node22 -->
<g id="edge31" class="edge">
<title>Node11&#45;&gt;Node22</title>
<path fill="none" stroke="midnightblue" d="M292.04,-225.18C311.65,-229.45 333.25,-234.16 352.33,-238.31"/>
<polygon fill="midnightblue" stroke="midnightblue" points="351.82,-241.78 362.34,-240.49 353.31,-234.94 351.82,-241.78"/>
</g>
<!-- Node24 -->
<g id="node24" class="node">
<title>Node24</title>
<g id="a_node24"><a xlink:href="../../d8/d6e/class_t___m_e_s_h_1_1_triangle.html#a1bf6a231440a3c73a931c1cfccfee574" target="_top" xlink:title="Second vertex.">
<polygon fill="white" stroke="black" points="350,-88.5 350,-107.5 464,-107.5 464,-88.5 350,-88.5"/>
<text text-anchor="middle" x="407" y="-95.5" font-family="Helvetica,sans-Serif" font-size="10.00">T_MESH::Triangle::v2</text>
</a>
</g>
</g>
<!-- Node11&#45;&gt;Node24 -->
<g id="edge33" class="edge">
<title>Node11&#45;&gt;Node24</title>
<path fill="none" stroke="midnightblue" d="M242.46,-196.94C258.71,-175.77 291.24,-137.48 328,-117 332.01,-114.76 336.28,-112.79 340.68,-111.05"/>
<polygon fill="midnightblue" stroke="midnightblue" points="342.2,-114.22 350.46,-107.59 339.87,-107.62 342.2,-114.22"/>
</g>
<!-- Node25 -->
<g id="node25" class="node">
<title>Node25</title>
<g id="a_node25"><a xlink:href="../../d8/d6e/class_t___m_e_s_h_1_1_triangle.html#a0c4c2a2ba6b0c975aa3d260f00785e8f" target="_top" xlink:title="Third vertex.">
<polygon fill="white" stroke="black" points="350,-202.5 350,-221.5 464,-221.5 464,-202.5 350,-202.5"/>
<text text-anchor="middle" x="407" y="-209.5" font-family="Helvetica,sans-Serif" font-size="10.00">T_MESH::Triangle::v3</text>
</a>
</g>
</g>
<!-- Node11&#45;&gt;Node25 -->
<g id="edge35" class="edge">
<title>Node11&#45;&gt;Node25</title>
<path fill="none" stroke="midnightblue" d="M292.04,-212C307.46,-212 324.12,-212 339.81,-212"/>
<polygon fill="midnightblue" stroke="midnightblue" points="339.96,-215.5 349.96,-212 339.96,-208.5 339.96,-215.5"/>
</g>
<!-- Node26 -->
<g id="node26" class="node">
<title>Node26</title>
<g id="a_node26"><a xlink:href="../../d5/d7f/class_t___m_e_s_h_1_1_vertex.html#a66b49df1416ddcee6be0e1abe3aadda9" target="_top" xlink:title="List of incident edges.">
<polygon fill="white" stroke="black" points="352,-316.5 352,-335.5 462,-335.5 462,-316.5 352,-316.5"/>
<text text-anchor="middle" x="407" y="-323.5" font-family="Helvetica,sans-Serif" font-size="10.00">T_MESH::Vertex::VE</text>
</a>
</g>
</g>
<!-- Node11&#45;&gt;Node26 -->
<g id="edge37" class="edge">
<title>Node11&#45;&gt;Node26</title>
<path fill="none" stroke="midnightblue" d="M242.46,-227.06C258.71,-248.23 291.24,-286.52 328,-307 332.45,-309.48 337.22,-311.64 342.13,-313.52"/>
<polygon fill="midnightblue" stroke="midnightblue" points="341.1,-316.86 351.69,-316.8 343.37,-310.24 341.1,-316.86"/>
</g>
<!-- Node16 -->
<g id="node16" class="node">
<title>Node16</title>
<g id="a_node16"><a xlink:href="../../da/da2/class_t___m_e_s_h_1_1_edge.html#a96830b6d677fab318268f287682ad151" target="_top" xlink:title="Triangle on the left of the edge when looking from &#39;v&#39;. NULL if &#39;v&#39; is not a vertex of the edge.">
<polygon fill="white" stroke="black" points="533.5,-278.5 533.5,-297.5 673.5,-297.5 673.5,-278.5 533.5,-278.5"/>
<text text-anchor="middle" x="603.5" y="-285.5" font-family="Helvetica,sans-Serif" font-size="10.00">T_MESH::Edge::leftTriangle</text>
</a>
</g>
</g>
<!-- Node15&#45;&gt;Node16 -->
<g id="edge25" class="edge">
<title>Node15&#45;&gt;Node16</title>
<path fill="none" stroke="midnightblue" d="M486.27,-288C498.48,-288 511.1,-288 523.32,-288"/>
<polygon fill="midnightblue" stroke="midnightblue" points="523.48,-291.5 533.48,-288 523.48,-284.5 523.48,-291.5"/>
</g>
<!-- Node17 -->
<g id="node17" class="node">
<title>Node17</title>
<g id="a_node17"><a xlink:href="../../d8/d6e/class_t___m_e_s_h_1_1_triangle.html#a77cc688b97fd6501b5dca8385fce4137" target="_top" xlink:title="Triangle&#39;s edge opposite to &#39;v&#39;. NULL if &#39;v&#39; is not a vertex of the triangle.">
<polygon fill="white" stroke="black" points="522,-240.5 522,-259.5 685,-259.5 685,-240.5 522,-240.5"/>
<text text-anchor="middle" x="603.5" y="-247.5" font-family="Helvetica,sans-Serif" font-size="10.00">T_MESH::Triangle::oppositeEdge</text>
</a>
</g>
</g>
<!-- Node15&#45;&gt;Node17 -->
<g id="edge26" class="edge">
<title>Node15&#45;&gt;Node17</title>
<path fill="none" stroke="midnightblue" d="M456.83,-278.46C483.19,-273.31 515.92,-266.92 543.67,-261.49"/>
<polygon fill="midnightblue" stroke="midnightblue" points="544.51,-264.9 553.65,-259.54 543.16,-258.03 544.51,-264.9"/>
</g>
<!-- Node19 -->
<g id="node19" class="node">
<title>Node19</title>
<g id="a_node19"><a xlink:href="../../da/da2/class_t___m_e_s_h_1_1_edge.html#aef981891343c94489f00b060bd654b6c" target="_top" xlink:title="Vertex opposite to &#39;v&#39;. NULL if &#39;v&#39; is not a vertex of the edge.">
<polygon fill="white" stroke="black" points="525.5,-202.5 525.5,-221.5 681.5,-221.5 681.5,-202.5 525.5,-202.5"/>
<text text-anchor="middle" x="603.5" y="-209.5" font-family="Helvetica,sans-Serif" font-size="10.00">T_MESH::Edge::oppositeVertex</text>
</a>
</g>
</g>
<!-- Node15&#45;&gt;Node19 -->
<g id="edge28" class="edge">
<title>Node15&#45;&gt;Node19</title>
<path fill="none" stroke="midnightblue" d="M464.48,-278.37C471.99,-275.92 479.37,-272.85 486,-269 506.12,-257.33 501.83,-242.6 522,-231 525.89,-228.76 530.02,-226.79 534.29,-225.05"/>
<polygon fill="midnightblue" stroke="midnightblue" points="535.59,-228.3 543.79,-221.6 533.19,-221.72 535.59,-228.3"/>
</g>
<!-- Node18 -->
<g id="node18" class="node">
<title>Node18</title>
<g id="a_node18"><a xlink:href="../../da/da2/class_t___m_e_s_h_1_1_edge.html#a7d7329ff24b7b6eb2eceee39711dd650" target="_top" xlink:title="TRUE iff &#39;v&#39; is an end&#45;point of the edge.">
<polygon fill="white" stroke="black" points="721,-240.5 721,-259.5 856,-259.5 856,-240.5 721,-240.5"/>
<text text-anchor="middle" x="788.5" y="-247.5" font-family="Helvetica,sans-Serif" font-size="10.00">T_MESH::Edge::hasVertex</text>
</a>
</g>
</g>
<!-- Node17&#45;&gt;Node18 -->
<g id="edge27" class="edge">
<title>Node17&#45;&gt;Node18</title>
<path fill="none" stroke="midnightblue" d="M685.03,-250C693.55,-250 702.2,-250 710.68,-250"/>
<polygon fill="midnightblue" stroke="midnightblue" points="710.92,-253.5 720.92,-250 710.92,-246.5 710.92,-253.5"/>
</g>
<!-- Node23 -->
<g id="node23" class="node">
<title>Node23</title>
<g id="a_node23"><a xlink:href="../../da/da2/class_t___m_e_s_h_1_1_edge.html#a560eca8895471f987bd3228b13c40052" target="_top" xlink:title="Vertex shared with edge &#39;b&#39;. NULL if this and &#39;b&#39; do not share any vertex.">
<polygon fill="white" stroke="black" points="525,-164.5 525,-183.5 682,-183.5 682,-164.5 525,-164.5"/>
<text text-anchor="middle" x="603.5" y="-171.5" font-family="Helvetica,sans-Serif" font-size="10.00">T_MESH::Edge::commonVertex</text>
</a>
</g>
</g>
<!-- Node22&#45;&gt;Node23 -->
<g id="edge32" class="edge">
<title>Node22&#45;&gt;Node23</title>
<path fill="none" stroke="midnightblue" d="M464.07,-240.5C471.72,-238.03 479.25,-234.92 486,-231 506.12,-219.33 501.83,-204.6 522,-193 525.89,-190.76 530.02,-188.79 534.29,-187.05"/>
<polygon fill="midnightblue" stroke="midnightblue" points="535.59,-190.3 543.79,-183.6 533.19,-183.72 535.59,-190.3"/>
</g>
<!-- Node24&#45;&gt;Node23 -->
<g id="edge34" class="edge">
<title>Node24&#45;&gt;Node23</title>
<path fill="none" stroke="midnightblue" d="M454.27,-107.52C464.83,-110.18 475.91,-113.35 486,-117 518.38,-128.71 553.65,-146.77 576.8,-159.42"/>
<polygon fill="midnightblue" stroke="midnightblue" points="575.19,-162.53 585.64,-164.3 578.58,-156.4 575.19,-162.53"/>
</g>
<!-- Node25&#45;&gt;Node23 -->
<g id="edge36" class="edge">
<title>Node25&#45;&gt;Node23</title>
<path fill="none" stroke="midnightblue" d="M456.83,-202.46C483.19,-197.31 515.92,-190.92 543.67,-185.49"/>
<polygon fill="midnightblue" stroke="midnightblue" points="544.51,-188.9 553.65,-183.54 543.16,-182.03 544.51,-188.9"/>
</g>
<!-- Node26&#45;&gt;Node12 -->
<g id="edge38" class="edge">
<title>Node26&#45;&gt;Node12</title>
<path fill="none" stroke="midnightblue" d="M418.4,-335.74C433.89,-350.49 463.62,-379.66 486,-407 503.81,-428.75 498.78,-443.16 522,-459 524.94,-461 528.06,-462.8 531.3,-464.4"/>
<polygon fill="midnightblue" stroke="midnightblue" points="530.14,-467.71 540.71,-468.44 532.9,-461.28 530.14,-467.71"/>
</g>
<!-- Node26&#45;&gt;Node16 -->
<g id="edge40" class="edge">
<title>Node26&#45;&gt;Node16</title>
<path fill="none" stroke="midnightblue" d="M456.83,-316.46C483.19,-311.31 515.92,-304.92 543.67,-299.49"/>
<polygon fill="midnightblue" stroke="midnightblue" points="544.51,-302.9 553.65,-297.54 543.16,-296.03 544.51,-302.9"/>
</g>
<!-- Node26&#45;&gt;Node17 -->
<g id="edge42" class="edge">
<title>Node26&#45;&gt;Node17</title>
<path fill="none" stroke="midnightblue" d="M462.02,-317.15C470.37,-314.58 478.65,-311.27 486,-307 506.12,-295.33 501.83,-280.6 522,-269 525.89,-266.76 530.02,-264.79 534.29,-263.05"/>
<polygon fill="midnightblue" stroke="midnightblue" points="535.59,-266.3 543.79,-259.6 533.19,-259.72 535.59,-266.3"/>
</g>
<!-- Node26&#45;&gt;Node19 -->
<g id="edge43" class="edge">
<title>Node26&#45;&gt;Node19</title>
<path fill="none" stroke="midnightblue" d="M462.14,-319.48C470.75,-316.64 479.08,-312.63 486,-307 514.98,-283.39 492.94,-254.5 522,-231 524.1,-229.3 526.33,-227.75 528.65,-226.33"/>
<polygon fill="midnightblue" stroke="midnightblue" points="530.73,-229.2 538.02,-221.51 527.53,-222.97 530.73,-229.2"/>
</g>
<!-- Node27 -->
<g id="node27" class="node">
<title>Node27</title>
<g id="a_node27"><a xlink:href="../../d3/d04/class_t___m_e_s_h_1_1_list.html#a1b14a2838ee3745d5fb413f9e7ecc214" target="_top" xlink:title="Appends a new node storing &#39;d&#39; to the tail. &#160;&#160;O(1).">
<polygon fill="white" stroke="black" points="538,-392.5 538,-411.5 669,-411.5 669,-392.5 538,-392.5"/>
<text text-anchor="middle" x="603.5" y="-399.5" font-family="Helvetica,sans-Serif" font-size="10.00">T_MESH::List::appendTail</text>
</a>
</g>
</g>
<!-- Node26&#45;&gt;Node27 -->
<g id="edge39" class="edge">
<title>Node26&#45;&gt;Node27</title>
<path fill="none" stroke="midnightblue" d="M424.08,-335.55C445.69,-348.01 485.59,-369.8 522,-383 529.04,-385.55 536.55,-387.85 544.05,-389.9"/>
<polygon fill="midnightblue" stroke="midnightblue" points="543.31,-393.32 553.86,-392.44 545.06,-386.54 543.31,-393.32"/>
</g>
<!-- Node28 -->
<g id="node28" class="node">
<title>Node28</title>
<g id="a_node28"><a xlink:href="../../d3/d04/class_t___m_e_s_h_1_1_list.html#af0e61026072f65c9ba882df526acfd2e" target="_top" xlink:title="Gets the number of elements. &#160;&#160;O(1).">
<polygon fill="white" stroke="black" points="545.5,-354.5 545.5,-373.5 661.5,-373.5 661.5,-354.5 545.5,-354.5"/>
<text text-anchor="middle" x="603.5" y="-361.5" font-family="Helvetica,sans-Serif" font-size="10.00">T_MESH::List::numels</text>
</a>
</g>
</g>
<!-- Node26&#45;&gt;Node28 -->
<g id="edge41" class="edge">
<title>Node26&#45;&gt;Node28</title>
<path fill="none" stroke="midnightblue" d="M456.83,-335.54C483.19,-340.69 515.92,-347.08 543.67,-352.51"/>
<polygon fill="midnightblue" stroke="midnightblue" points="543.16,-355.97 553.65,-354.46 544.51,-349.1 543.16,-355.97"/>
</g>
<!-- Node29 -->
<g id="node29" class="node">
<title>Node29</title>
<g id="a_node29"><a xlink:href="../../d3/d04/class_t___m_e_s_h_1_1_list.html#a9701d1b3769b92b7d2a7ed6da895a863" target="_top" xlink:title="Deletes and removes the first node. Returns its data. &#160;&#160;O(1).">
<polygon fill="white" stroke="black" points="541.5,-430.5 541.5,-449.5 665.5,-449.5 665.5,-430.5 541.5,-430.5"/>
<text text-anchor="middle" x="603.5" y="-437.5" font-family="Helvetica,sans-Serif" font-size="10.00">T_MESH::List::popHead</text>
</a>
</g>
</g>
<!-- Node26&#45;&gt;Node29 -->
<g id="edge44" class="edge">
<title>Node26&#45;&gt;Node29</title>
<path fill="none" stroke="midnightblue" d="M416.68,-335.79C434.44,-355.18 477.06,-398.55 522,-421 526.82,-423.41 531.95,-425.52 537.2,-427.36"/>
<polygon fill="midnightblue" stroke="midnightblue" points="536.16,-430.7 546.75,-430.41 538.29,-424.03 536.16,-430.7"/>
</g>
<!-- Node30 -->
<g id="node30" class="node">
<title>Node30</title>
<g id="a_node30"><a xlink:href="../../da/da2/class_t___m_e_s_h_1_1_edge.html#aa9788a51d590116555c8a062e253a197" target="_top" xlink:title="Triangle on the right of the edge when looking from &#39;v&#39;. NULL if &#39;v&#39; is not a vertex of the edge.">
<polygon fill="white" stroke="black" points="531,-316.5 531,-335.5 676,-335.5 676,-316.5 531,-316.5"/>
<text text-anchor="middle" x="603.5" y="-323.5" font-family="Helvetica,sans-Serif" font-size="10.00">T_MESH::Edge::rightTriangle</text>
</a>
</g>
</g>
<!-- Node26&#45;&gt;Node30 -->
<g id="edge46" class="edge">
<title>Node26&#45;&gt;Node30</title>
<path fill="none" stroke="midnightblue" d="M462.18,-326C480.27,-326 500.85,-326 520.57,-326"/>
<polygon fill="midnightblue" stroke="midnightblue" points="520.79,-329.5 530.79,-326 520.79,-322.5 520.79,-329.5"/>
</g>
<!-- Node29&#45;&gt;Node7 -->
<g id="edge45" class="edge">
<title>Node29&#45;&gt;Node7</title>
<path fill="none" stroke="midnightblue" d="M646.8,-449.54C659.15,-452.45 672.64,-455.74 685,-459 705.36,-464.38 727.83,-470.89 746.53,-476.47"/>
<polygon fill="midnightblue" stroke="midnightblue" points="745.63,-479.85 756.22,-479.38 747.65,-473.15 745.63,-479.85"/>
</g>
</g>
</svg>
