<?xml version="1.0" encoding="UTF-8" standalone="no"?>
<!DOCTYPE svg PUBLIC "-//W3C//DTD SVG 1.1//EN"
 "http://www.w3.org/Graphics/SVG/1.1/DTD/svg11.dtd">
<!-- Generated by graphviz version 2.44.1 (0)
 -->
<!-- Title: T_MESH::Basic_TMesh::selectConnectedComponent Pages: 1 -->
<svg width="529pt" height="218pt"
 viewBox="0.00 0.00 529.00 218.00" xmlns="http://www.w3.org/2000/svg" xmlns:xlink="http://www.w3.org/1999/xlink">
<g id="graph0" class="graph" transform="scale(1 1) rotate(0) translate(4 214)">
<title>T_MESH::Basic_TMesh::selectConnectedComponent</title>
<polygon fill="white" stroke="transparent" points="-4,4 -4,-214 525,-214 525,4 -4,4"/>
<!-- Node1 -->
<g id="node1" class="node">
<title>Node1</title>
<g id="a_node1"><a xlink:title="Selects all the triangles of the connected component containing t0. O(N).">
<polygon fill="#bfbfbf" stroke="black" points="0,-90 0,-120 146,-120 146,-90 0,-90"/>
<text text-anchor="start" x="8" y="-108" font-family="Helvetica,sans-Serif" font-size="10.00">T_MESH::Basic_TMesh</text>
<text text-anchor="middle" x="73" y="-97" font-family="Helvetica,sans-Serif" font-size="10.00">::selectConnectedComponent</text>
</a>
</g>
</g>
<!-- Node2 -->
<g id="node2" class="node">
<title>Node2</title>
<g id="a_node2"><a xlink:href="../../d3/d04/class_t___m_e_s_h_1_1_list.html#ae601a7e17364ce83f74ffcb6c64971ca" target="_top" xlink:title="Appends a new node storing &#39;d&#39; to the head. &#160;&#160;O(1).">
<polygon fill="white" stroke="black" points="182,-190.5 182,-209.5 322,-209.5 322,-190.5 182,-190.5"/>
<text text-anchor="middle" x="252" y="-197.5" font-family="Helvetica,sans-Serif" font-size="10.00">T_MESH::List::appendHead</text>
</a>
</g>
</g>
<!-- Node1&#45;&gt;Node2 -->
<g id="edge1" class="edge">
<title>Node1&#45;&gt;Node2</title>
<path fill="none" stroke="midnightblue" d="M91.53,-120.24C111.96,-137.3 147.37,-164.66 182,-181 186.99,-183.35 192.32,-185.46 197.72,-187.34"/>
<polygon fill="midnightblue" stroke="midnightblue" points="196.89,-190.75 207.48,-190.47 199.03,-184.08 196.89,-190.75"/>
</g>
<!-- Node3 -->
<g id="node3" class="node">
<title>Node3</title>
<g id="a_node3"><a xlink:href="../../d3/d04/class_t___m_e_s_h_1_1_list.html#af0e61026072f65c9ba882df526acfd2e" target="_top" xlink:title="Gets the number of elements. &#160;&#160;O(1).">
<polygon fill="white" stroke="black" points="194,-152.5 194,-171.5 310,-171.5 310,-152.5 194,-152.5"/>
<text text-anchor="middle" x="252" y="-159.5" font-family="Helvetica,sans-Serif" font-size="10.00">T_MESH::List::numels</text>
</a>
</g>
</g>
<!-- Node1&#45;&gt;Node3 -->
<g id="edge2" class="edge">
<title>Node1&#45;&gt;Node3</title>
<path fill="none" stroke="midnightblue" d="M114.55,-120.02C134.71,-127.3 159.52,-135.96 182,-143 189.26,-145.27 196.98,-147.54 204.55,-149.68"/>
<polygon fill="midnightblue" stroke="midnightblue" points="203.76,-153.1 214.34,-152.41 205.64,-146.36 203.76,-153.1"/>
</g>
<!-- Node4 -->
<g id="node4" class="node">
<title>Node4</title>
<g id="a_node4"><a xlink:href="../../d3/d04/class_t___m_e_s_h_1_1_list.html#a9701d1b3769b92b7d2a7ed6da895a863" target="_top" xlink:title="Deletes and removes the first node. Returns its data. &#160;&#160;O(1).">
<polygon fill="white" stroke="black" points="190,-114.5 190,-133.5 314,-133.5 314,-114.5 190,-114.5"/>
<text text-anchor="middle" x="252" y="-121.5" font-family="Helvetica,sans-Serif" font-size="10.00">T_MESH::List::popHead</text>
</a>
</g>
</g>
<!-- Node1&#45;&gt;Node4 -->
<g id="edge3" class="edge">
<title>Node1&#45;&gt;Node4</title>
<path fill="none" stroke="midnightblue" d="M146.25,-112.76C157.3,-113.94 168.7,-115.17 179.73,-116.35"/>
<polygon fill="midnightblue" stroke="midnightblue" points="179.42,-119.84 189.73,-117.42 180.17,-112.88 179.42,-119.84"/>
</g>
<!-- Node6 -->
<g id="node6" class="node">
<title>Node6</title>
<g id="a_node6"><a xlink:href="../../d8/d6e/class_t___m_e_s_h_1_1_triangle.html#ad0c49113ef7f52e4a86959eaafc7baf9" target="_top" xlink:title="First adjacent triangle. NULL if boundary.">
<polygon fill="white" stroke="black" points="196,-76.5 196,-95.5 308,-95.5 308,-76.5 196,-76.5"/>
<text text-anchor="middle" x="252" y="-83.5" font-family="Helvetica,sans-Serif" font-size="10.00">T_MESH::Triangle::t1</text>
</a>
</g>
</g>
<!-- Node1&#45;&gt;Node6 -->
<g id="edge5" class="edge">
<title>Node1&#45;&gt;Node6</title>
<path fill="none" stroke="midnightblue" d="M146.25,-97.24C159.3,-95.84 172.83,-94.39 185.67,-93.01"/>
<polygon fill="midnightblue" stroke="midnightblue" points="186.22,-96.47 195.79,-91.93 185.48,-89.51 186.22,-96.47"/>
</g>
<!-- Node8 -->
<g id="node8" class="node">
<title>Node8</title>
<g id="a_node8"><a xlink:href="../../d8/d6e/class_t___m_e_s_h_1_1_triangle.html#a2511453b48f8c042e7aac67da3fff129" target="_top" xlink:title="Second adjacent triangle. NULL if boundary.">
<polygon fill="white" stroke="black" points="196,-38.5 196,-57.5 308,-57.5 308,-38.5 196,-38.5"/>
<text text-anchor="middle" x="252" y="-45.5" font-family="Helvetica,sans-Serif" font-size="10.00">T_MESH::Triangle::t2</text>
</a>
</g>
</g>
<!-- Node1&#45;&gt;Node8 -->
<g id="edge7" class="edge">
<title>Node1&#45;&gt;Node8</title>
<path fill="none" stroke="midnightblue" d="M114.55,-89.98C134.71,-82.7 159.52,-74.04 182,-67 189.26,-64.73 196.98,-62.46 204.55,-60.32"/>
<polygon fill="midnightblue" stroke="midnightblue" points="205.64,-63.64 214.34,-57.59 203.76,-56.9 205.64,-63.64"/>
</g>
<!-- Node9 -->
<g id="node9" class="node">
<title>Node9</title>
<g id="a_node9"><a xlink:href="../../d8/d6e/class_t___m_e_s_h_1_1_triangle.html#a4383009f2e92ec1445cfdee5c3fa14e4" target="_top" xlink:title="Third adjacent triangle. NULL if boundary.">
<polygon fill="white" stroke="black" points="196,-0.5 196,-19.5 308,-19.5 308,-0.5 196,-0.5"/>
<text text-anchor="middle" x="252" y="-7.5" font-family="Helvetica,sans-Serif" font-size="10.00">T_MESH::Triangle::t3</text>
</a>
</g>
</g>
<!-- Node1&#45;&gt;Node9 -->
<g id="edge9" class="edge">
<title>Node1&#45;&gt;Node9</title>
<path fill="none" stroke="midnightblue" d="M91.53,-89.76C111.96,-72.7 147.37,-45.34 182,-29 186.99,-26.65 192.32,-24.54 197.72,-22.66"/>
<polygon fill="midnightblue" stroke="midnightblue" points="199.03,-25.92 207.48,-19.53 196.89,-19.25 199.03,-25.92"/>
</g>
<!-- Node5 -->
<g id="node5" class="node">
<title>Node5</title>
<g id="a_node5"><a xlink:href="../../d3/d04/class_t___m_e_s_h_1_1_list.html#aec091d7c66b66c92fe56f06f41f448f4" target="_top" xlink:title="Deletes and removes the node &#39;n&#39; from the list. &#160;&#160;O(1).">
<polygon fill="white" stroke="black" points="372.5,-114.5 372.5,-133.5 506.5,-133.5 506.5,-114.5 372.5,-114.5"/>
<text text-anchor="middle" x="439.5" y="-121.5" font-family="Helvetica,sans-Serif" font-size="10.00">T_MESH::List::removeCell</text>
</a>
</g>
</g>
<!-- Node4&#45;&gt;Node5 -->
<g id="edge4" class="edge">
<title>Node4&#45;&gt;Node5</title>
<path fill="none" stroke="midnightblue" d="M314.25,-124C329.49,-124 346.01,-124 361.88,-124"/>
<polygon fill="midnightblue" stroke="midnightblue" points="362.2,-127.5 372.2,-124 362.2,-120.5 362.2,-127.5"/>
</g>
<!-- Node7 -->
<g id="node7" class="node">
<title>Node7</title>
<g id="a_node7"><a xlink:href="../../da/da2/class_t___m_e_s_h_1_1_edge.html#a295cf6f1ac996ea5e760c2bbd590c513" target="_top" xlink:title="Incident triangle opposite to &#39;t&#39;. NULL if &#39;t&#39; is not incident to the edge.">
<polygon fill="white" stroke="black" points="358,-38.5 358,-57.5 521,-57.5 521,-38.5 358,-38.5"/>
<text text-anchor="middle" x="439.5" y="-45.5" font-family="Helvetica,sans-Serif" font-size="10.00">T_MESH::Edge::oppositeTriangle</text>
</a>
</g>
</g>
<!-- Node6&#45;&gt;Node7 -->
<g id="edge6" class="edge">
<title>Node6&#45;&gt;Node7</title>
<path fill="none" stroke="midnightblue" d="M299.81,-76.41C324.84,-71.28 355.84,-64.93 382.18,-59.54"/>
<polygon fill="midnightblue" stroke="midnightblue" points="382.93,-62.96 392.03,-57.52 381.53,-56.1 382.93,-62.96"/>
</g>
<!-- Node8&#45;&gt;Node7 -->
<g id="edge8" class="edge">
<title>Node8&#45;&gt;Node7</title>
<path fill="none" stroke="midnightblue" d="M308.15,-48C320.58,-48 334.09,-48 347.55,-48"/>
<polygon fill="midnightblue" stroke="midnightblue" points="347.81,-51.5 357.81,-48 347.81,-44.5 347.81,-51.5"/>
</g>
<!-- Node9&#45;&gt;Node7 -->
<g id="edge10" class="edge">
<title>Node9&#45;&gt;Node7</title>
<path fill="none" stroke="midnightblue" d="M299.81,-19.59C324.84,-24.72 355.84,-31.07 382.18,-36.46"/>
<polygon fill="midnightblue" stroke="midnightblue" points="381.53,-39.9 392.03,-38.48 382.93,-33.04 381.53,-39.9"/>
</g>
</g>
</svg>
