<?xml version="1.0" encoding="UTF-8" standalone="no"?>
<!DOCTYPE svg PUBLIC "-//W3C//DTD SVG 1.1//EN"
 "http://www.w3.org/Graphics/SVG/1.1/DTD/svg11.dtd">
<!-- Generated by graphviz version 2.44.1 (0)
 -->
<!-- Title: T_MESH::Basic_TMesh::CreateTriangleFromVertices Pages: 1 -->
<svg width="1014pt" height="314pt"
 viewBox="0.00 0.00 1014.00 314.39" xmlns="http://www.w3.org/2000/svg" xmlns:xlink="http://www.w3.org/1999/xlink">
<g id="graph0" class="graph" transform="scale(1 1) rotate(0) translate(4 310.39)">
<title>T_MESH::Basic_TMesh::CreateTriangleFromVertices</title>
<polygon fill="white" stroke="transparent" points="-4,4 -4,-310.39 1010,-310.39 1010,4 -4,4"/>
<!-- Node1 -->
<g id="node1" class="node">
<title>Node1</title>
<g id="a_node1"><a xlink:title=" ">
<polygon fill="#bfbfbf" stroke="black" points="0,-127.39 0,-157.39 144,-157.39 144,-127.39 0,-127.39"/>
<text text-anchor="start" x="8" y="-145.39" font-family="Helvetica,sans-Serif" font-size="10.00">T_MESH::Basic_TMesh</text>
<text text-anchor="middle" x="72" y="-134.39" font-family="Helvetica,sans-Serif" font-size="10.00">::CreateTriangleFromVertices</text>
</a>
</g>
</g>
<!-- Node2 -->
<g id="node2" class="node">
<title>Node2</title>
<g id="a_node2"><a xlink:href="../../d6/d27/class_t___m_e_s_h_1_1_basic___t_mesh.html#a0cd2bcd2e4d1ff1cb1a78ead09e121a3" target="_top" xlink:title="Creates an Edge connecting two existing mesh vertices.">
<polygon fill="white" stroke="black" points="185.5,-149.39 185.5,-179.39 308.5,-179.39 308.5,-149.39 185.5,-149.39"/>
<text text-anchor="start" x="193.5" y="-167.39" font-family="Helvetica,sans-Serif" font-size="10.00">T_MESH::Basic_TMesh</text>
<text text-anchor="middle" x="247" y="-156.39" font-family="Helvetica,sans-Serif" font-size="10.00">::CreateEdge</text>
</a>
</g>
</g>
<!-- Node1&#45;&gt;Node2 -->
<g id="edge1" class="edge">
<title>Node1&#45;&gt;Node2</title>
<path fill="none" stroke="midnightblue" d="M144.36,-151.47C154.56,-152.76 165.04,-154.09 175.22,-155.39"/>
<polygon fill="midnightblue" stroke="midnightblue" points="174.91,-158.88 185.28,-156.67 175.8,-151.93 174.91,-158.88"/>
</g>
<!-- Node16 -->
<g id="node16" class="node">
<title>Node16</title>
<g id="a_node16"><a xlink:href="../../d6/d27/class_t___m_e_s_h_1_1_basic___t_mesh.html#ad0bd7c6b374606f5deb427751e137e99" target="_top" xlink:title="Creates an arbitrarily oriented Triangle bounded by three existing mesh edges.">
<polygon fill="white" stroke="black" points="180,-237.39 180,-267.39 314,-267.39 314,-237.39 180,-237.39"/>
<text text-anchor="start" x="188" y="-255.39" font-family="Helvetica,sans-Serif" font-size="10.00">T_MESH::Basic_TMesh</text>
<text text-anchor="middle" x="247" y="-244.39" font-family="Helvetica,sans-Serif" font-size="10.00">::CreateUnorientedTriangle</text>
</a>
</g>
</g>
<!-- Node1&#45;&gt;Node16 -->
<g id="edge17" class="edge">
<title>Node1&#45;&gt;Node16</title>
<path fill="none" stroke="midnightblue" d="M96.69,-157.45C127.02,-176.74 179.69,-210.23 213.68,-231.84"/>
<polygon fill="midnightblue" stroke="midnightblue" points="212,-234.92 222.32,-237.33 215.76,-229.01 212,-234.92"/>
</g>
<!-- Node18 -->
<g id="node18" class="node">
<title>Node18</title>
<g id="a_node18"><a xlink:href="../../d3/d04/class_t___m_e_s_h_1_1_list.html#abae9bf2ee7d8e273f990a614641b77f0" target="_top" xlink:title="Deletes and removes the node storing &#39;d&#39; and frees the memory occupied by &#39;d&#39; itself....">
<polygon fill="white" stroke="black" points="184.5,-72.89 184.5,-91.89 309.5,-91.89 309.5,-72.89 184.5,-72.89"/>
<text text-anchor="middle" x="247" y="-79.89" font-family="Helvetica,sans-Serif" font-size="10.00">T_MESH::List::freeNode</text>
</a>
</g>
</g>
<!-- Node1&#45;&gt;Node18 -->
<g id="edge20" class="edge">
<title>Node1&#45;&gt;Node18</title>
<path fill="none" stroke="midnightblue" d="M116.66,-127.25C145.18,-117.36 182.03,-104.58 209.09,-95.19"/>
<polygon fill="midnightblue" stroke="midnightblue" points="210.29,-98.48 218.59,-91.9 207.99,-91.87 210.29,-98.48"/>
</g>
<!-- Node19 -->
<g id="node19" class="node">
<title>Node19</title>
<g id="a_node19"><a xlink:href="../../d3/d04/class_t___m_e_s_h_1_1_list.html#a9b21af68dacaaf9a95e2a33ee5941e54" target="_top" xlink:title="Inserts a new node storing &#39;d&#39; right after &#39;n&#39;. &#160;&#160;O(1).">
<polygon fill="white" stroke="black" points="350,-72.89 350,-91.89 490,-91.89 490,-72.89 350,-72.89"/>
<text text-anchor="middle" x="420" y="-79.89" font-family="Helvetica,sans-Serif" font-size="10.00">T_MESH::List::removeNode</text>
</a>
</g>
</g>
<!-- Node1&#45;&gt;Node19 -->
<g id="edge23" class="edge">
<title>Node1&#45;&gt;Node19</title>
<path fill="none" stroke="midnightblue" d="M144.21,-130.48C192.21,-122.4 256.94,-111.41 314,-101.39 327.87,-98.95 342.77,-96.29 356.86,-93.75"/>
<polygon fill="midnightblue" stroke="midnightblue" points="357.73,-97.15 366.95,-91.92 356.48,-90.26 357.73,-97.15"/>
</g>
<!-- Node3 -->
<g id="node3" class="node">
<title>Node3</title>
<g id="a_node3"><a xlink:href="../../d3/d04/class_t___m_e_s_h_1_1_list.html#ae601a7e17364ce83f74ffcb6c64971ca" target="_top" xlink:title="Appends a new node storing &#39;d&#39; to the head. &#160;&#160;O(1).">
<polygon fill="white" stroke="black" points="683.5,-286.89 683.5,-305.89 823.5,-305.89 823.5,-286.89 683.5,-286.89"/>
<text text-anchor="middle" x="753.5" y="-293.89" font-family="Helvetica,sans-Serif" font-size="10.00">T_MESH::List::appendHead</text>
</a>
</g>
</g>
<!-- Node2&#45;&gt;Node3 -->
<g id="edge2" class="edge">
<title>Node2&#45;&gt;Node3</title>
<path fill="none" stroke="midnightblue" d="M306.74,-179.45C355.78,-192.07 427.51,-210.67 490,-227.39 571.04,-249.07 590.72,-256.64 672,-277.39 681.29,-279.76 691.22,-282.19 700.81,-284.48"/>
<polygon fill="midnightblue" stroke="midnightblue" points="700.11,-287.91 710.65,-286.82 701.73,-281.1 700.11,-287.91"/>
</g>
<!-- Node4 -->
<g id="node4" class="node">
<title>Node4</title>
<g id="a_node4"><a xlink:href="../../d5/d7f/class_t___m_e_s_h_1_1_vertex.html#af74a29c7daa03825b0156bfe7f64052a" target="_top" xlink:title="Returns the edge connecting this vertex to &#39;v&#39;. NULL if such an edge does not exist.">
<polygon fill="white" stroke="black" points="353.5,-110.89 353.5,-129.89 486.5,-129.89 486.5,-110.89 353.5,-110.89"/>
<text text-anchor="middle" x="420" y="-117.89" font-family="Helvetica,sans-Serif" font-size="10.00">T_MESH::Vertex::getEdge</text>
</a>
</g>
</g>
<!-- Node2&#45;&gt;Node4 -->
<g id="edge3" class="edge">
<title>Node2&#45;&gt;Node4</title>
<path fill="none" stroke="midnightblue" d="M306.37,-149.37C327.81,-143.86 351.78,-137.69 372.09,-132.46"/>
<polygon fill="midnightblue" stroke="midnightblue" points="373.22,-135.78 382.03,-129.9 371.47,-129.01 373.22,-135.78"/>
</g>
<!-- Node15 -->
<g id="node15" class="node">
<title>Node15</title>
<g id="a_node15"><a xlink:href="../../d6/d27/class_t___m_e_s_h_1_1_basic___t_mesh.html#a20469173793123e3dd41269a48602ba2" target="_top" xlink:title="AMF_ADD 1.1&gt;">
<polygon fill="white" stroke="black" points="358.5,-149.39 358.5,-179.39 481.5,-179.39 481.5,-149.39 358.5,-149.39"/>
<text text-anchor="start" x="366.5" y="-167.39" font-family="Helvetica,sans-Serif" font-size="10.00">T_MESH::Basic_TMesh</text>
<text text-anchor="middle" x="420" y="-156.39" font-family="Helvetica,sans-Serif" font-size="10.00">::newEdge</text>
</a>
</g>
</g>
<!-- Node2&#45;&gt;Node15 -->
<g id="edge16" class="edge">
<title>Node2&#45;&gt;Node15</title>
<path fill="none" stroke="midnightblue" d="M308.77,-164.39C321.5,-164.39 335.02,-164.39 348.08,-164.39"/>
<polygon fill="midnightblue" stroke="midnightblue" points="348.43,-167.89 358.43,-164.39 348.43,-160.89 348.43,-167.89"/>
</g>
<!-- Node5 -->
<g id="node5" class="node">
<title>Node5</title>
<g id="a_node5"><a xlink:href="../../da/da2/class_t___m_e_s_h_1_1_edge.html#aef981891343c94489f00b060bd654b6c" target="_top" xlink:title="Vertex opposite to &#39;v&#39;. NULL if &#39;v&#39; is not a vertex of the edge.">
<polygon fill="white" stroke="black" points="675.5,-20.89 675.5,-39.89 831.5,-39.89 831.5,-20.89 675.5,-20.89"/>
<text text-anchor="middle" x="753.5" y="-27.89" font-family="Helvetica,sans-Serif" font-size="10.00">T_MESH::Edge::oppositeVertex</text>
</a>
</g>
</g>
<!-- Node4&#45;&gt;Node5 -->
<g id="edge4" class="edge">
<title>Node4&#45;&gt;Node5</title>
<path fill="none" stroke="midnightblue" d="M455.77,-110.89C466.73,-107.87 478.87,-104.51 490,-101.39 571,-78.67 590.6,-70.61 672,-49.39 681.18,-47 690.98,-44.57 700.47,-42.3"/>
<polygon fill="midnightblue" stroke="midnightblue" points="701.29,-45.7 710.21,-39.98 699.67,-38.89 701.29,-45.7"/>
</g>
<!-- Node6 -->
<g id="node6" class="node">
<title>Node6</title>
<g id="a_node6"><a xlink:href="../../d5/d7f/class_t___m_e_s_h_1_1_vertex.html#a66b49df1416ddcee6be0e1abe3aadda9" target="_top" xlink:title="List of incident edges.">
<polygon fill="white" stroke="black" points="526,-134.89 526,-153.89 636,-153.89 636,-134.89 526,-134.89"/>
<text text-anchor="middle" x="581" y="-141.89" font-family="Helvetica,sans-Serif" font-size="10.00">T_MESH::Vertex::VE</text>
</a>
</g>
</g>
<!-- Node4&#45;&gt;Node6 -->
<g id="edge5" class="edge">
<title>Node4&#45;&gt;Node6</title>
<path fill="none" stroke="midnightblue" d="M484.3,-129.94C494.63,-131.5 505.33,-133.12 515.68,-134.68"/>
<polygon fill="midnightblue" stroke="midnightblue" points="515.48,-138.19 525.89,-136.22 516.52,-131.27 515.48,-138.19"/>
</g>
<!-- Node6&#45;&gt;Node3 -->
<g id="edge6" class="edge">
<title>Node6&#45;&gt;Node3</title>
<path fill="none" stroke="midnightblue" d="M595.47,-154.23C607.39,-163.5 624.62,-178.34 636,-194.39 659.25,-227.2 641.16,-251.59 672,-277.39 674.02,-279.08 676.17,-280.63 678.42,-282.05"/>
<polygon fill="midnightblue" stroke="midnightblue" points="677.01,-285.26 687.49,-286.87 680.3,-279.08 677.01,-285.26"/>
</g>
<!-- Node6&#45;&gt;Node5 -->
<g id="edge12" class="edge">
<title>Node6&#45;&gt;Node5</title>
<path fill="none" stroke="midnightblue" d="M590.69,-134.6C611.27,-111.51 662.01,-55.14 672,-49.39 675.89,-47.15 680.02,-45.18 684.29,-43.44"/>
<polygon fill="midnightblue" stroke="midnightblue" points="685.59,-46.69 693.79,-39.99 683.19,-40.11 685.59,-46.69"/>
</g>
<!-- Node7 -->
<g id="node7" class="node">
<title>Node7</title>
<g id="a_node7"><a xlink:href="../../d3/d04/class_t___m_e_s_h_1_1_list.html#a1b14a2838ee3745d5fb413f9e7ecc214" target="_top" xlink:title="Appends a new node storing &#39;d&#39; to the tail. &#160;&#160;O(1).">
<polygon fill="white" stroke="black" points="688,-58.89 688,-77.89 819,-77.89 819,-58.89 688,-58.89"/>
<text text-anchor="middle" x="753.5" y="-65.89" font-family="Helvetica,sans-Serif" font-size="10.00">T_MESH::List::appendTail</text>
</a>
</g>
</g>
<!-- Node6&#45;&gt;Node7 -->
<g id="edge7" class="edge">
<title>Node6&#45;&gt;Node7</title>
<path fill="none" stroke="midnightblue" d="M594.08,-134.87C610.71,-122.22 642,-100.01 672,-87.39 677.91,-84.91 684.2,-82.71 690.57,-80.78"/>
<polygon fill="midnightblue" stroke="midnightblue" points="691.91,-84.04 700.58,-77.96 690.01,-77.3 691.91,-84.04"/>
</g>
<!-- Node8 -->
<g id="node8" class="node">
<title>Node8</title>
<g id="a_node8"><a xlink:href="../../da/da2/class_t___m_e_s_h_1_1_edge.html#a96830b6d677fab318268f287682ad151" target="_top" xlink:title="Triangle on the left of the edge when looking from &#39;v&#39;. NULL if &#39;v&#39; is not a vertex of the edge.">
<polygon fill="white" stroke="black" points="683.5,-248.89 683.5,-267.89 823.5,-267.89 823.5,-248.89 683.5,-248.89"/>
<text text-anchor="middle" x="753.5" y="-255.89" font-family="Helvetica,sans-Serif" font-size="10.00">T_MESH::Edge::leftTriangle</text>
</a>
</g>
</g>
<!-- Node6&#45;&gt;Node8 -->
<g id="edge8" class="edge">
<title>Node6&#45;&gt;Node8</title>
<path fill="none" stroke="midnightblue" d="M593.21,-153.9C604.46,-163.63 622.08,-179.42 636,-194.39 653.45,-213.14 650.35,-225.7 672,-239.39 675.38,-241.53 678.99,-243.43 682.72,-245.12"/>
<polygon fill="midnightblue" stroke="midnightblue" points="681.63,-248.45 692.22,-248.88 684.21,-241.94 681.63,-248.45"/>
</g>
<!-- Node9 -->
<g id="node9" class="node">
<title>Node9</title>
<g id="a_node9"><a xlink:href="../../d3/d04/class_t___m_e_s_h_1_1_list.html#af0e61026072f65c9ba882df526acfd2e" target="_top" xlink:title="Gets the number of elements. &#160;&#160;O(1).">
<polygon fill="white" stroke="black" points="695.5,-210.89 695.5,-229.89 811.5,-229.89 811.5,-210.89 695.5,-210.89"/>
<text text-anchor="middle" x="753.5" y="-217.89" font-family="Helvetica,sans-Serif" font-size="10.00">T_MESH::List::numels</text>
</a>
</g>
</g>
<!-- Node6&#45;&gt;Node9 -->
<g id="edge9" class="edge">
<title>Node6&#45;&gt;Node9</title>
<path fill="none" stroke="midnightblue" d="M594.08,-153.91C610.71,-166.56 642,-188.77 672,-201.39 677.91,-203.87 684.2,-206.07 690.57,-208"/>
<polygon fill="midnightblue" stroke="midnightblue" points="690.01,-211.48 700.58,-210.83 691.91,-204.74 690.01,-211.48"/>
</g>
<!-- Node10 -->
<g id="node10" class="node">
<title>Node10</title>
<g id="a_node10"><a xlink:href="../../d8/d6e/class_t___m_e_s_h_1_1_triangle.html#a77cc688b97fd6501b5dca8385fce4137" target="_top" xlink:title="Triangle&#39;s edge opposite to &#39;v&#39;. NULL if &#39;v&#39; is not a vertex of the triangle.">
<polygon fill="white" stroke="black" points="672,-172.89 672,-191.89 835,-191.89 835,-172.89 672,-172.89"/>
<text text-anchor="middle" x="753.5" y="-179.89" font-family="Helvetica,sans-Serif" font-size="10.00">T_MESH::Triangle::oppositeEdge</text>
</a>
</g>
</g>
<!-- Node6&#45;&gt;Node10 -->
<g id="edge10" class="edge">
<title>Node6&#45;&gt;Node10</title>
<path fill="none" stroke="midnightblue" d="M625.02,-153.98C647.73,-159.04 675.77,-165.29 699.77,-170.64"/>
<polygon fill="midnightblue" stroke="midnightblue" points="699.26,-174.11 709.79,-172.87 700.79,-167.28 699.26,-174.11"/>
</g>
<!-- Node12 -->
<g id="node12" class="node">
<title>Node12</title>
<g id="a_node12"><a xlink:href="../../d3/d04/class_t___m_e_s_h_1_1_list.html#a9701d1b3769b92b7d2a7ed6da895a863" target="_top" xlink:title="Deletes and removes the first node. Returns its data. &#160;&#160;O(1).">
<polygon fill="white" stroke="black" points="691.5,-134.89 691.5,-153.89 815.5,-153.89 815.5,-134.89 691.5,-134.89"/>
<text text-anchor="middle" x="753.5" y="-141.89" font-family="Helvetica,sans-Serif" font-size="10.00">T_MESH::List::popHead</text>
</a>
</g>
</g>
<!-- Node6&#45;&gt;Node12 -->
<g id="edge13" class="edge">
<title>Node6&#45;&gt;Node12</title>
<path fill="none" stroke="midnightblue" d="M636.42,-144.39C650.67,-144.39 666.25,-144.39 681.24,-144.39"/>
<polygon fill="midnightblue" stroke="midnightblue" points="681.5,-147.89 691.5,-144.39 681.5,-140.89 681.5,-147.89"/>
</g>
<!-- Node14 -->
<g id="node14" class="node">
<title>Node14</title>
<g id="a_node14"><a xlink:href="../../da/da2/class_t___m_e_s_h_1_1_edge.html#aa9788a51d590116555c8a062e253a197" target="_top" xlink:title="Triangle on the right of the edge when looking from &#39;v&#39;. NULL if &#39;v&#39; is not a vertex of the edge.">
<polygon fill="white" stroke="black" points="681,-96.89 681,-115.89 826,-115.89 826,-96.89 681,-96.89"/>
<text text-anchor="middle" x="753.5" y="-103.89" font-family="Helvetica,sans-Serif" font-size="10.00">T_MESH::Edge::rightTriangle</text>
</a>
</g>
</g>
<!-- Node6&#45;&gt;Node14 -->
<g id="edge15" class="edge">
<title>Node6&#45;&gt;Node14</title>
<path fill="none" stroke="midnightblue" d="M625.02,-134.8C647.73,-129.74 675.77,-123.49 699.77,-118.14"/>
<polygon fill="midnightblue" stroke="midnightblue" points="700.79,-121.5 709.79,-115.91 699.26,-114.67 700.79,-121.5"/>
</g>
<!-- Node11 -->
<g id="node11" class="node">
<title>Node11</title>
<g id="a_node11"><a xlink:href="../../da/da2/class_t___m_e_s_h_1_1_edge.html#a7d7329ff24b7b6eb2eceee39711dd650" target="_top" xlink:title="TRUE iff &#39;v&#39; is an end&#45;point of the edge.">
<polygon fill="white" stroke="black" points="871,-172.89 871,-191.89 1006,-191.89 1006,-172.89 871,-172.89"/>
<text text-anchor="middle" x="938.5" y="-179.89" font-family="Helvetica,sans-Serif" font-size="10.00">T_MESH::Edge::hasVertex</text>
</a>
</g>
</g>
<!-- Node10&#45;&gt;Node11 -->
<g id="edge11" class="edge">
<title>Node10&#45;&gt;Node11</title>
<path fill="none" stroke="midnightblue" d="M835.03,-182.39C843.55,-182.39 852.2,-182.39 860.68,-182.39"/>
<polygon fill="midnightblue" stroke="midnightblue" points="860.92,-185.89 870.92,-182.39 860.92,-178.89 860.92,-185.89"/>
</g>
<!-- Node13 -->
<g id="node13" class="node">
<title>Node13</title>
<g id="a_node13"><a xlink:href="../../d3/d04/class_t___m_e_s_h_1_1_list.html#aec091d7c66b66c92fe56f06f41f448f4" target="_top" xlink:title="Deletes and removes the node &#39;n&#39; from the list. &#160;&#160;O(1).">
<polygon fill="white" stroke="black" points="871.5,-58.89 871.5,-77.89 1005.5,-77.89 1005.5,-58.89 871.5,-58.89"/>
<text text-anchor="middle" x="938.5" y="-65.89" font-family="Helvetica,sans-Serif" font-size="10.00">T_MESH::List::removeCell</text>
</a>
</g>
</g>
<!-- Node12&#45;&gt;Node13 -->
<g id="edge14" class="edge">
<title>Node12&#45;&gt;Node13</title>
<path fill="none" stroke="midnightblue" d="M804.54,-134.84C814.77,-132.26 825.36,-129.13 835,-125.39 863.81,-114.23 894.49,-96.27 914.69,-83.49"/>
<polygon fill="midnightblue" stroke="midnightblue" points="916.67,-86.38 923.19,-78.03 912.88,-80.49 916.67,-86.38"/>
</g>
<!-- Node16&#45;&gt;Node3 -->
<g id="edge18" class="edge">
<title>Node16&#45;&gt;Node3</title>
<path fill="none" stroke="midnightblue" d="M300.82,-267.39C316.53,-271.29 333.85,-275.05 350,-277.39 461.38,-293.51 591.72,-296.88 673.21,-297.15"/>
<polygon fill="midnightblue" stroke="midnightblue" points="673.38,-300.65 683.39,-297.17 673.39,-293.65 673.38,-300.65"/>
</g>
<!-- Node17 -->
<g id="node17" class="node">
<title>Node17</title>
<g id="a_node17"><a xlink:href="../../d6/d27/class_t___m_e_s_h_1_1_basic___t_mesh.html#a1fda4e2b03b24abb8784e3a1c6fb49e7" target="_top" xlink:title="AMF_ADD 1.1&gt;">
<polygon fill="white" stroke="black" points="358.5,-237.39 358.5,-267.39 481.5,-267.39 481.5,-237.39 358.5,-237.39"/>
<text text-anchor="start" x="366.5" y="-255.39" font-family="Helvetica,sans-Serif" font-size="10.00">T_MESH::Basic_TMesh</text>
<text text-anchor="middle" x="420" y="-244.39" font-family="Helvetica,sans-Serif" font-size="10.00">::newTriangle</text>
</a>
</g>
</g>
<!-- Node16&#45;&gt;Node17 -->
<g id="edge19" class="edge">
<title>Node16&#45;&gt;Node17</title>
<path fill="none" stroke="midnightblue" d="M314.11,-252.39C325.27,-252.39 336.88,-252.39 348.15,-252.39"/>
<polygon fill="midnightblue" stroke="midnightblue" points="348.38,-255.89 358.38,-252.39 348.38,-248.89 348.38,-255.89"/>
</g>
<!-- Node18&#45;&gt;Node19 -->
<g id="edge21" class="edge">
<title>Node18&#45;&gt;Node19</title>
<path fill="none" stroke="midnightblue" d="M309.73,-82.39C319.49,-82.39 329.7,-82.39 339.79,-82.39"/>
<polygon fill="midnightblue" stroke="midnightblue" points="339.82,-85.89 349.82,-82.39 339.82,-78.89 339.82,-85.89"/>
</g>
<!-- Node19&#45;&gt;Node13 -->
<g id="edge22" class="edge">
<title>Node19&#45;&gt;Node13</title>
<path fill="none" stroke="midnightblue" d="M441.5,-72.81C502.27,-45.7 686.41,27.15 835,-11.39 865.77,-19.37 897.12,-38.81 916.91,-52.77"/>
<polygon fill="midnightblue" stroke="midnightblue" points="914.99,-55.7 925.14,-58.73 919.1,-50.03 914.99,-55.7"/>
</g>
</g>
</svg>
