<?xml version="1.0" encoding="UTF-8" standalone="no"?>
<!DOCTYPE svg PUBLIC "-//W3C//DTD SVG 1.1//EN"
 "http://www.w3.org/Graphics/SVG/1.1/DTD/svg11.dtd">
<!-- Generated by graphviz version 2.44.1 (0)
 -->
<!-- Title: T_MESH::Basic_TMesh::selectConnectedComponent Pages: 1 -->
<svg width="529pt" height="78pt"
 viewBox="0.00 0.00 529.00 77.50" xmlns="http://www.w3.org/2000/svg" xmlns:xlink="http://www.w3.org/1999/xlink">
<g id="graph0" class="graph" transform="scale(1 1) rotate(0) translate(4 73.5)">
<title>T_MESH::Basic_TMesh::selectConnectedComponent</title>
<polygon fill="white" stroke="transparent" points="-4,4 -4,-73.5 525,-73.5 525,4 -4,4"/>
<!-- Node1 -->
<g id="node1" class="node">
<title>Node1</title>
<g id="a_node1"><a xlink:title="Selects all the triangles of the connected component containing t0. O(N).">
<polygon fill="#bfbfbf" stroke="black" points="375,-17 375,-47 521,-47 521,-17 375,-17"/>
<text text-anchor="start" x="383" y="-35" font-family="Helvetica,sans-Serif" font-size="10.00">T_MESH::Basic_TMesh</text>
<text text-anchor="middle" x="448" y="-24" font-family="Helvetica,sans-Serif" font-size="10.00">::selectConnectedComponent</text>
</a>
</g>
</g>
<!-- Node2 -->
<g id="node2" class="node">
<title>Node2</title>
<g id="a_node2"><a xlink:href="../../d6/d27/class_t___m_e_s_h_1_1_basic___t_mesh.html#a414e3ca5cfc7a3ab7a29a269f92ca7fb" target="_top" xlink:title="This method removes one connected component from the mesh and creates a separate new mesh out of it.">
<polygon fill="white" stroke="black" points="194,-39 194,-69 317,-69 317,-39 194,-39"/>
<text text-anchor="start" x="202" y="-57" font-family="Helvetica,sans-Serif" font-size="10.00">T_MESH::Basic_TMesh</text>
<text text-anchor="middle" x="255.5" y="-46" font-family="Helvetica,sans-Serif" font-size="10.00">::split</text>
</a>
</g>
</g>
<!-- Node1&#45;&gt;Node2 -->
<g id="edge1" class="edge">
<title>Node1&#45;&gt;Node2</title>
<path fill="none" stroke="midnightblue" d="M364.59,-41.52C348.64,-43.36 332.21,-45.26 317.12,-47"/>
<polygon fill="midnightblue" stroke="midnightblue" points="365.45,-44.94 374.98,-40.32 364.64,-37.99 365.45,-44.94"/>
</g>
<!-- Node3 -->
<g id="node3" class="node">
<title>Node3</title>
<g id="a_node3"><a xlink:href="../../d9/d69/class_t___m_e_s_h_1_1mc__grid.html#ac35a3a7911650055568e58508d784d45" target="_top" xlink:title=" ">
<polygon fill="white" stroke="black" points="172,-0.5 172,-19.5 339,-19.5 339,-0.5 172,-0.5"/>
<text text-anchor="middle" x="255.5" y="-7.5" font-family="Helvetica,sans-Serif" font-size="10.00">T_MESH::mc_grid::trackOuterHull</text>
</a>
</g>
</g>
<!-- Node1&#45;&gt;Node3 -->
<g id="edge2" class="edge">
<title>Node1&#45;&gt;Node3</title>
<path fill="none" stroke="midnightblue" d="M364.92,-22.52C356.28,-21.52 347.49,-20.51 338.84,-19.51"/>
<polygon fill="midnightblue" stroke="midnightblue" points="364.64,-26.01 374.98,-23.68 365.45,-19.06 364.64,-26.01"/>
</g>
<!-- Node4 -->
<g id="node4" class="node">
<title>Node4</title>
<g id="a_node4"><a xlink:href="../../d9/d69/class_t___m_e_s_h_1_1mc__grid.html#acab069f805e6c473afb4e340d3d8d1ae" target="_top" xlink:title="&lt; AMF_CHANGE &#45; since T_MESH 2.4&#45;2 &gt;">
<polygon fill="white" stroke="black" points="0,-0.5 0,-19.5 136,-19.5 136,-0.5 0,-0.5"/>
<text text-anchor="middle" x="68" y="-7.5" font-family="Helvetica,sans-Serif" font-size="10.00">T_MESH::mc_grid::remesh</text>
</a>
</g>
</g>
<!-- Node3&#45;&gt;Node4 -->
<g id="edge3" class="edge">
<title>Node3&#45;&gt;Node4</title>
<path fill="none" stroke="midnightblue" d="M161.72,-10C153.14,-10 144.55,-10 136.26,-10"/>
<polygon fill="midnightblue" stroke="midnightblue" points="161.79,-13.5 171.79,-10 161.79,-6.5 161.79,-13.5"/>
</g>
</g>
</svg>
