<?xml version="1.0" encoding="UTF-8" standalone="no"?>
<!DOCTYPE svg PUBLIC "-//W3C//DTD SVG 1.1//EN"
 "http://www.w3.org/Graphics/SVG/1.1/DTD/svg11.dtd">
<!-- Generated by graphviz version 2.44.1 (0)
 -->
<!-- Title: T_MESH::Basic_TMesh::append Pages: 1 -->
<svg width="664pt" height="180pt"
 viewBox="0.00 0.00 664.00 180.00" xmlns="http://www.w3.org/2000/svg" xmlns:xlink="http://www.w3.org/1999/xlink">
<g id="graph0" class="graph" transform="scale(1 1) rotate(0) translate(4 176)">
<title>T_MESH::Basic_TMesh::append</title>
<polygon fill="white" stroke="transparent" points="-4,4 -4,-176 660,-176 660,4 -4,4"/>
<!-- Node1 -->
<g id="node1" class="node">
<title>Node1</title>
<g id="a_node1"><a xlink:title="Append to the current mesh a copy of all the elements of &#39;t&#39;.">
<polygon fill="#bfbfbf" stroke="black" points="0,-71 0,-101 123,-101 123,-71 0,-71"/>
<text text-anchor="start" x="8" y="-89" font-family="Helvetica,sans-Serif" font-size="10.00">T_MESH::Basic_TMesh</text>
<text text-anchor="middle" x="61.5" y="-78" font-family="Helvetica,sans-Serif" font-size="10.00">::append</text>
</a>
</g>
</g>
<!-- Node2 -->
<g id="node2" class="node">
<title>Node2</title>
<g id="a_node2"><a xlink:href="../../d6/d27/class_t___m_e_s_h_1_1_basic___t_mesh.html#a7545e05048d630ca83f7d5b896dd2cb9" target="_top" xlink:title="Deselects all the triangles. O(N).">
<polygon fill="white" stroke="black" points="163,-120 163,-150 286,-150 286,-120 163,-120"/>
<text text-anchor="start" x="171" y="-138" font-family="Helvetica,sans-Serif" font-size="10.00">T_MESH::Basic_TMesh</text>
<text text-anchor="middle" x="224.5" y="-127" font-family="Helvetica,sans-Serif" font-size="10.00">::deselectTriangles</text>
</a>
</g>
</g>
<!-- Node1&#45;&gt;Node2 -->
<g id="edge1" class="edge">
<title>Node1&#45;&gt;Node2</title>
<path fill="none" stroke="midnightblue" d="M112.12,-101.1C128.57,-106.11 147.05,-111.73 164.16,-116.94"/>
<polygon fill="midnightblue" stroke="midnightblue" points="163.46,-120.39 174.04,-119.95 165.5,-113.69 163.46,-120.39"/>
</g>
<!-- Node3 -->
<g id="node3" class="node">
<title>Node3</title>
<g id="a_node3"><a xlink:href="../../d6/d27/class_t___m_e_s_h_1_1_basic___t_mesh.html#ad32aa211f56765c622531f23e1433dc4" target="_top" xlink:title="Inverts the selection status of all the triangles. O(N).">
<polygon fill="white" stroke="black" points="163,-71 163,-101 286,-101 286,-71 163,-71"/>
<text text-anchor="start" x="171" y="-89" font-family="Helvetica,sans-Serif" font-size="10.00">T_MESH::Basic_TMesh</text>
<text text-anchor="middle" x="224.5" y="-78" font-family="Helvetica,sans-Serif" font-size="10.00">::invertSelection</text>
</a>
</g>
</g>
<!-- Node1&#45;&gt;Node3 -->
<g id="edge2" class="edge">
<title>Node1&#45;&gt;Node3</title>
<path fill="none" stroke="midnightblue" d="M123.37,-86C132.95,-86 142.93,-86 152.71,-86"/>
<polygon fill="midnightblue" stroke="midnightblue" points="152.81,-89.5 162.81,-86 152.81,-82.5 152.81,-89.5"/>
</g>
<!-- Node11 -->
<g id="node11" class="node">
<title>Node11</title>
<g id="a_node11"><a xlink:href="../../d3/d04/class_t___m_e_s_h_1_1_list.html#a126a6f344fa8b8a9ca2ac02be6227194" target="_top" xlink:title="Appends a list &#39;l&#39; to the tail by linking the first node of &#39;l&#39; to the last one of this list....">
<polygon fill="white" stroke="black" points="159,-32.5 159,-51.5 290,-51.5 290,-32.5 159,-32.5"/>
<text text-anchor="middle" x="224.5" y="-39.5" font-family="Helvetica,sans-Serif" font-size="10.00">T_MESH::List::joinTailList</text>
</a>
</g>
</g>
<!-- Node1&#45;&gt;Node11 -->
<g id="edge12" class="edge">
<title>Node1&#45;&gt;Node11</title>
<path fill="none" stroke="midnightblue" d="M117.46,-70.98C137.38,-65.54 159.63,-59.46 178.58,-54.28"/>
<polygon fill="midnightblue" stroke="midnightblue" points="179.73,-57.59 188.45,-51.58 177.88,-50.84 179.73,-57.59"/>
</g>
<!-- Node4 -->
<g id="node4" class="node">
<title>Node4</title>
<g id="a_node4"><a xlink:href="../../d3/d04/class_t___m_e_s_h_1_1_list.html#a1b14a2838ee3745d5fb413f9e7ecc214" target="_top" xlink:title="Appends a new node storing &#39;d&#39; to the tail. &#160;&#160;O(1).">
<polygon fill="white" stroke="black" points="326,-152.5 326,-171.5 457,-171.5 457,-152.5 326,-152.5"/>
<text text-anchor="middle" x="391.5" y="-159.5" font-family="Helvetica,sans-Serif" font-size="10.00">T_MESH::List::appendTail</text>
</a>
</g>
</g>
<!-- Node3&#45;&gt;Node4 -->
<g id="edge3" class="edge">
<title>Node3&#45;&gt;Node4</title>
<path fill="none" stroke="midnightblue" d="M270.56,-101.07C277.27,-103.99 283.95,-107.31 290,-111 308.27,-122.16 307.28,-132.61 326,-143 329.95,-145.19 334.19,-147.16 338.53,-148.91"/>
<polygon fill="midnightblue" stroke="midnightblue" points="337.53,-152.28 348.12,-152.43 339.94,-145.7 337.53,-152.28"/>
</g>
<!-- Node5 -->
<g id="node5" class="node">
<title>Node5</title>
<g id="a_node5"><a xlink:href="../../d3/d04/class_t___m_e_s_h_1_1_list.html#a9701d1b3769b92b7d2a7ed6da895a863" target="_top" xlink:title="Deletes and removes the first node. Returns its data. &#160;&#160;O(1).">
<polygon fill="white" stroke="black" points="329.5,-114.5 329.5,-133.5 453.5,-133.5 453.5,-114.5 329.5,-114.5"/>
<text text-anchor="middle" x="391.5" y="-121.5" font-family="Helvetica,sans-Serif" font-size="10.00">T_MESH::List::popHead</text>
</a>
</g>
</g>
<!-- Node3&#45;&gt;Node5 -->
<g id="edge4" class="edge">
<title>Node3&#45;&gt;Node5</title>
<path fill="none" stroke="midnightblue" d="M286,-99.93C303.37,-103.93 322.14,-108.26 338.91,-112.12"/>
<polygon fill="midnightblue" stroke="midnightblue" points="338.54,-115.62 349.07,-114.46 340.11,-108.8 338.54,-115.62"/>
</g>
<!-- Node7 -->
<g id="node7" class="node">
<title>Node7</title>
<g id="a_node7"><a xlink:href="../../d8/d6e/class_t___m_e_s_h_1_1_triangle.html#ad0c49113ef7f52e4a86959eaafc7baf9" target="_top" xlink:title="First adjacent triangle. NULL if boundary.">
<polygon fill="white" stroke="black" points="335.5,-76.5 335.5,-95.5 447.5,-95.5 447.5,-76.5 335.5,-76.5"/>
<text text-anchor="middle" x="391.5" y="-83.5" font-family="Helvetica,sans-Serif" font-size="10.00">T_MESH::Triangle::t1</text>
</a>
</g>
</g>
<!-- Node3&#45;&gt;Node7 -->
<g id="edge6" class="edge">
<title>Node3&#45;&gt;Node7</title>
<path fill="none" stroke="midnightblue" d="M286,-86C298.78,-86 312.31,-86 325.25,-86"/>
<polygon fill="midnightblue" stroke="midnightblue" points="325.47,-89.5 335.47,-86 325.47,-82.5 325.47,-89.5"/>
</g>
<!-- Node9 -->
<g id="node9" class="node">
<title>Node9</title>
<g id="a_node9"><a xlink:href="../../d8/d6e/class_t___m_e_s_h_1_1_triangle.html#a2511453b48f8c042e7aac67da3fff129" target="_top" xlink:title="Second adjacent triangle. NULL if boundary.">
<polygon fill="white" stroke="black" points="335.5,-38.5 335.5,-57.5 447.5,-57.5 447.5,-38.5 335.5,-38.5"/>
<text text-anchor="middle" x="391.5" y="-45.5" font-family="Helvetica,sans-Serif" font-size="10.00">T_MESH::Triangle::t2</text>
</a>
</g>
</g>
<!-- Node3&#45;&gt;Node9 -->
<g id="edge8" class="edge">
<title>Node3&#45;&gt;Node9</title>
<path fill="none" stroke="midnightblue" d="M286,-72.07C303.37,-68.07 322.14,-63.74 338.91,-59.88"/>
<polygon fill="midnightblue" stroke="midnightblue" points="340.11,-63.2 349.07,-57.54 338.54,-56.38 340.11,-63.2"/>
</g>
<!-- Node10 -->
<g id="node10" class="node">
<title>Node10</title>
<g id="a_node10"><a xlink:href="../../d8/d6e/class_t___m_e_s_h_1_1_triangle.html#a4383009f2e92ec1445cfdee5c3fa14e4" target="_top" xlink:title="Third adjacent triangle. NULL if boundary.">
<polygon fill="white" stroke="black" points="335.5,-0.5 335.5,-19.5 447.5,-19.5 447.5,-0.5 335.5,-0.5"/>
<text text-anchor="middle" x="391.5" y="-7.5" font-family="Helvetica,sans-Serif" font-size="10.00">T_MESH::Triangle::t3</text>
</a>
</g>
</g>
<!-- Node3&#45;&gt;Node10 -->
<g id="edge10" class="edge">
<title>Node3&#45;&gt;Node10</title>
<path fill="none" stroke="midnightblue" d="M270.56,-70.93C277.27,-68.01 283.95,-64.69 290,-61 308.27,-49.84 307.28,-39.39 326,-29 329.95,-26.81 334.19,-24.84 338.53,-23.09"/>
<polygon fill="midnightblue" stroke="midnightblue" points="339.94,-26.3 348.12,-19.57 337.53,-19.72 339.94,-26.3"/>
</g>
<!-- Node6 -->
<g id="node6" class="node">
<title>Node6</title>
<g id="a_node6"><a xlink:href="../../d3/d04/class_t___m_e_s_h_1_1_list.html#aec091d7c66b66c92fe56f06f41f448f4" target="_top" xlink:title="Deletes and removes the node &#39;n&#39; from the list. &#160;&#160;O(1).">
<polygon fill="white" stroke="black" points="507.5,-114.5 507.5,-133.5 641.5,-133.5 641.5,-114.5 507.5,-114.5"/>
<text text-anchor="middle" x="574.5" y="-121.5" font-family="Helvetica,sans-Serif" font-size="10.00">T_MESH::List::removeCell</text>
</a>
</g>
</g>
<!-- Node5&#45;&gt;Node6 -->
<g id="edge5" class="edge">
<title>Node5&#45;&gt;Node6</title>
<path fill="none" stroke="midnightblue" d="M453.53,-124C467.62,-124 482.78,-124 497.43,-124"/>
<polygon fill="midnightblue" stroke="midnightblue" points="497.46,-127.5 507.46,-124 497.46,-120.5 497.46,-127.5"/>
</g>
<!-- Node8 -->
<g id="node8" class="node">
<title>Node8</title>
<g id="a_node8"><a xlink:href="../../da/da2/class_t___m_e_s_h_1_1_edge.html#a295cf6f1ac996ea5e760c2bbd590c513" target="_top" xlink:title="Incident triangle opposite to &#39;t&#39;. NULL if &#39;t&#39; is not incident to the edge.">
<polygon fill="white" stroke="black" points="493,-38.5 493,-57.5 656,-57.5 656,-38.5 493,-38.5"/>
<text text-anchor="middle" x="574.5" y="-45.5" font-family="Helvetica,sans-Serif" font-size="10.00">T_MESH::Edge::oppositeTriangle</text>
</a>
</g>
</g>
<!-- Node7&#45;&gt;Node8 -->
<g id="edge7" class="edge">
<title>Node7&#45;&gt;Node8</title>
<path fill="none" stroke="midnightblue" d="M438.17,-76.41C462.49,-71.31 492.58,-64.99 518.21,-59.61"/>
<polygon fill="midnightblue" stroke="midnightblue" points="519.09,-63 528.15,-57.52 517.65,-56.15 519.09,-63"/>
</g>
<!-- Node9&#45;&gt;Node8 -->
<g id="edge9" class="edge">
<title>Node9&#45;&gt;Node8</title>
<path fill="none" stroke="midnightblue" d="M447.79,-48C458.92,-48 470.89,-48 482.86,-48"/>
<polygon fill="midnightblue" stroke="midnightblue" points="482.9,-51.5 492.9,-48 482.9,-44.5 482.9,-51.5"/>
</g>
<!-- Node10&#45;&gt;Node8 -->
<g id="edge11" class="edge">
<title>Node10&#45;&gt;Node8</title>
<path fill="none" stroke="midnightblue" d="M438.17,-19.59C462.49,-24.69 492.58,-31.01 518.21,-36.39"/>
<polygon fill="midnightblue" stroke="midnightblue" points="517.65,-39.85 528.15,-38.48 519.09,-33 517.65,-39.85"/>
</g>
</g>
</svg>
