<?xml version="1.0" encoding="UTF-8" standalone="no"?>
<!DOCTYPE svg PUBLIC "-//W3C//DTD SVG 1.1//EN"
 "http://www.w3.org/Graphics/SVG/1.1/DTD/svg11.dtd">
<!-- Generated by graphviz version 2.44.1 (0)
 -->
<!-- Title: T_MESH::Basic_TMesh::init Pages: 1 -->
<svg width="1089pt" height="594pt"
 viewBox="0.00 0.00 1089.00 594.00" xmlns="http://www.w3.org/2000/svg" xmlns:xlink="http://www.w3.org/1999/xlink">
<g id="graph0" class="graph" transform="scale(1 1) rotate(0) translate(4 590)">
<title>T_MESH::Basic_TMesh::init</title>
<polygon fill="white" stroke="transparent" points="-4,4 -4,-590 1085,-590 1085,4 -4,4"/>
<!-- Node1 -->
<g id="node1" class="node">
<title>Node1</title>
<g id="a_node1"><a xlink:title=" ">
<polygon fill="#bfbfbf" stroke="black" points="0,-235 0,-265 123,-265 123,-235 0,-235"/>
<text text-anchor="start" x="8" y="-253" font-family="Helvetica,sans-Serif" font-size="10.00">T_MESH::Basic_TMesh</text>
<text text-anchor="middle" x="61.5" y="-242" font-family="Helvetica,sans-Serif" font-size="10.00">::init</text>
</a>
</g>
</g>
<!-- Node2 -->
<g id="node2" class="node">
<title>Node2</title>
<g id="a_node2"><a xlink:href="../../d3/d04/class_t___m_e_s_h_1_1_list.html#ae601a7e17364ce83f74ffcb6c64971ca" target="_top" xlink:title="Appends a new node storing &#39;d&#39; to the head. &#160;&#160;O(1).">
<polygon fill="white" stroke="black" points="341,-566.5 341,-585.5 481,-585.5 481,-566.5 341,-566.5"/>
<text text-anchor="middle" x="411" y="-573.5" font-family="Helvetica,sans-Serif" font-size="10.00">T_MESH::List::appendHead</text>
</a>
</g>
</g>
<!-- Node1&#45;&gt;Node2 -->
<g id="edge1" class="edge">
<title>Node1&#45;&gt;Node2</title>
<path fill="none" stroke="midnightblue" d="M66.34,-265.08C76.24,-301.48 105.68,-395.56 159,-455 217.08,-519.74 245.41,-524.31 326,-557 332.33,-559.57 339.08,-561.82 345.89,-563.8"/>
<polygon fill="midnightblue" stroke="midnightblue" points="345.31,-567.27 355.87,-566.49 347.13,-560.51 345.31,-567.27"/>
</g>
<!-- Node3 -->
<g id="node3" class="node">
<title>Node3</title>
<g id="a_node3"><a xlink:href="../../d3/d04/class_t___m_e_s_h_1_1_list.html#a1b14a2838ee3745d5fb413f9e7ecc214" target="_top" xlink:title="Appends a new node storing &#39;d&#39; to the tail. &#160;&#160;O(1).">
<polygon fill="white" stroke="black" points="159,-262.5 159,-281.5 290,-281.5 290,-262.5 159,-262.5"/>
<text text-anchor="middle" x="224.5" y="-269.5" font-family="Helvetica,sans-Serif" font-size="10.00">T_MESH::List::appendTail</text>
</a>
</g>
</g>
<!-- Node1&#45;&gt;Node3 -->
<g id="edge2" class="edge">
<title>Node1&#45;&gt;Node3</title>
<path fill="none" stroke="midnightblue" d="M123.37,-258.32C131.69,-259.45 140.31,-260.63 148.84,-261.8"/>
<polygon fill="midnightblue" stroke="midnightblue" points="148.41,-265.27 158.79,-263.16 149.35,-258.34 148.41,-265.27"/>
</g>
<!-- Node4 -->
<g id="node4" class="node">
<title>Node4</title>
<g id="a_node4"><a xlink:href="../../d6/d27/class_t___m_e_s_h_1_1_basic___t_mesh.html#a92b68931001a05c499db6e6087ed7596" target="_top" xlink:title="Updates the values of n_boundaries, n_handles and n_shells. O(N).">
<polygon fill="white" stroke="black" points="163,-415 163,-445 286,-445 286,-415 163,-415"/>
<text text-anchor="start" x="171" y="-433" font-family="Helvetica,sans-Serif" font-size="10.00">T_MESH::Basic_TMesh</text>
<text text-anchor="middle" x="224.5" y="-422" font-family="Helvetica,sans-Serif" font-size="10.00">::eulerUpdate</text>
</a>
</g>
</g>
<!-- Node1&#45;&gt;Node4 -->
<g id="edge3" class="edge">
<title>Node1&#45;&gt;Node4</title>
<path fill="none" stroke="midnightblue" d="M68.77,-265.18C81.65,-294.73 113.73,-360.51 159,-400 163.19,-403.65 167.9,-406.95 172.81,-409.9"/>
<polygon fill="midnightblue" stroke="midnightblue" points="171.37,-413.1 181.82,-414.84 174.74,-406.96 171.37,-413.1"/>
</g>
<!-- Node15 -->
<g id="node15" class="node">
<title>Node15</title>
<g id="a_node15"><a xlink:href="../../d8/d6e/class_t___m_e_s_h_1_1_triangle.html#ad0c49113ef7f52e4a86959eaafc7baf9" target="_top" xlink:title="First adjacent triangle. NULL if boundary.">
<polygon fill="white" stroke="black" points="355,-376.5 355,-395.5 467,-395.5 467,-376.5 355,-376.5"/>
<text text-anchor="middle" x="411" y="-383.5" font-family="Helvetica,sans-Serif" font-size="10.00">T_MESH::Triangle::t1</text>
</a>
</g>
</g>
<!-- Node1&#45;&gt;Node15 -->
<g id="edge25" class="edge">
<title>Node1&#45;&gt;Node15</title>
<path fill="none" stroke="midnightblue" d="M73.72,-265.06C90.04,-285.77 122.39,-322.56 159,-341 217.38,-370.41 291.91,-380.87 344.55,-384.45"/>
<polygon fill="midnightblue" stroke="midnightblue" points="344.58,-387.96 354.77,-385.08 345.01,-380.97 344.58,-387.96"/>
</g>
<!-- Node17 -->
<g id="node17" class="node">
<title>Node17</title>
<g id="a_node17"><a xlink:href="../../d8/d6e/class_t___m_e_s_h_1_1_triangle.html#a2511453b48f8c042e7aac67da3fff129" target="_top" xlink:title="Second adjacent triangle. NULL if boundary.">
<polygon fill="white" stroke="black" points="355,-338.5 355,-357.5 467,-357.5 467,-338.5 355,-338.5"/>
<text text-anchor="middle" x="411" y="-345.5" font-family="Helvetica,sans-Serif" font-size="10.00">T_MESH::Triangle::t2</text>
</a>
</g>
</g>
<!-- Node1&#45;&gt;Node17 -->
<g id="edge26" class="edge">
<title>Node1&#45;&gt;Node17</title>
<path fill="none" stroke="midnightblue" d="M80.39,-265.2C98.82,-279.97 129.02,-301.77 159,-313 219.45,-335.65 293.06,-343.83 344.88,-346.69"/>
<polygon fill="midnightblue" stroke="midnightblue" points="344.78,-350.19 354.94,-347.2 345.13,-343.2 344.78,-350.19"/>
</g>
<!-- Node18 -->
<g id="node18" class="node">
<title>Node18</title>
<g id="a_node18"><a xlink:href="../../d8/d6e/class_t___m_e_s_h_1_1_triangle.html#a4383009f2e92ec1445cfdee5c3fa14e4" target="_top" xlink:title="Third adjacent triangle. NULL if boundary.">
<polygon fill="white" stroke="black" points="355,-300.5 355,-319.5 467,-319.5 467,-300.5 355,-300.5"/>
<text text-anchor="middle" x="411" y="-307.5" font-family="Helvetica,sans-Serif" font-size="10.00">T_MESH::Triangle::t3</text>
</a>
</g>
</g>
<!-- Node1&#45;&gt;Node18 -->
<g id="edge27" class="edge">
<title>Node1&#45;&gt;Node18</title>
<path fill="none" stroke="midnightblue" d="M91.21,-265.13C109.97,-274.27 135.3,-285.23 159,-291 220.77,-306.03 293.39,-310.11 344.59,-310.84"/>
<polygon fill="midnightblue" stroke="midnightblue" points="344.82,-314.34 354.85,-310.94 344.89,-307.34 344.82,-314.34"/>
</g>
<!-- Node19 -->
<g id="node19" class="node">
<title>Node19</title>
<g id="a_node19"><a xlink:href="../../d6/d27/class_t___m_e_s_h_1_1_basic___t_mesh.html#a20469173793123e3dd41269a48602ba2" target="_top" xlink:title="AMF_ADD 1.1&gt;">
<polygon fill="white" stroke="black" points="163,-213 163,-243 286,-243 286,-213 163,-213"/>
<text text-anchor="start" x="171" y="-231" font-family="Helvetica,sans-Serif" font-size="10.00">T_MESH::Basic_TMesh</text>
<text text-anchor="middle" x="224.5" y="-220" font-family="Helvetica,sans-Serif" font-size="10.00">::newEdge</text>
</a>
</g>
</g>
<!-- Node1&#45;&gt;Node19 -->
<g id="edge22" class="edge">
<title>Node1&#45;&gt;Node19</title>
<path fill="none" stroke="midnightblue" d="M123.37,-241.68C132.95,-240.37 142.93,-239.01 152.71,-237.67"/>
<polygon fill="midnightblue" stroke="midnightblue" points="153.38,-241.11 162.81,-236.29 152.43,-234.18 153.38,-241.11"/>
</g>
<!-- Node20 -->
<g id="node20" class="node">
<title>Node20</title>
<g id="a_node20"><a xlink:href="../../d6/d27/class_t___m_e_s_h_1_1_basic___t_mesh.html#a1fda4e2b03b24abb8784e3a1c6fb49e7" target="_top" xlink:title="AMF_ADD 1.1&gt;">
<polygon fill="white" stroke="black" points="163,-164 163,-194 286,-194 286,-164 163,-164"/>
<text text-anchor="start" x="171" y="-182" font-family="Helvetica,sans-Serif" font-size="10.00">T_MESH::Basic_TMesh</text>
<text text-anchor="middle" x="224.5" y="-171" font-family="Helvetica,sans-Serif" font-size="10.00">::newTriangle</text>
</a>
</g>
</g>
<!-- Node1&#45;&gt;Node20 -->
<g id="edge23" class="edge">
<title>Node1&#45;&gt;Node20</title>
<path fill="none" stroke="midnightblue" d="M92.66,-234.91C111.55,-225.63 136.51,-213.7 159,-204 163.77,-201.94 168.77,-199.87 173.79,-197.84"/>
<polygon fill="midnightblue" stroke="midnightblue" points="175.4,-200.96 183.4,-194.01 172.81,-194.46 175.4,-200.96"/>
</g>
<!-- Node21 -->
<g id="node21" class="node">
<title>Node21</title>
<g id="a_node21"><a xlink:href="../../d6/d27/class_t___m_e_s_h_1_1_basic___t_mesh.html#a8cbf313f4e9cab9dab1b026b45dd1c8e" target="_top" xlink:title="AMF_ADD 1.1&gt;">
<polygon fill="white" stroke="black" points="163,-115 163,-145 286,-145 286,-115 163,-115"/>
<text text-anchor="start" x="171" y="-133" font-family="Helvetica,sans-Serif" font-size="10.00">T_MESH::Basic_TMesh</text>
<text text-anchor="middle" x="224.5" y="-122" font-family="Helvetica,sans-Serif" font-size="10.00">::newVertex</text>
</a>
</g>
</g>
<!-- Node1&#45;&gt;Node21 -->
<g id="edge24" class="edge">
<title>Node1&#45;&gt;Node21</title>
<path fill="none" stroke="midnightblue" d="M74.41,-234.89C91.3,-214.35 124.05,-177.58 159,-155 161.96,-153.08 165.1,-151.28 168.32,-149.58"/>
<polygon fill="midnightblue" stroke="midnightblue" points="170.12,-152.61 177.59,-145.1 167.07,-146.3 170.12,-152.61"/>
</g>
<!-- Node22 -->
<g id="node22" class="node">
<title>Node22</title>
<g id="a_node22"><a xlink:href="../../d8/d6e/class_t___m_e_s_h_1_1_triangle.html#aa7b9f783f2e4339083f46d25d3eecf68" target="_top" xlink:title="First vertex.">
<polygon fill="white" stroke="black" points="167.5,-76.5 167.5,-95.5 281.5,-95.5 281.5,-76.5 167.5,-76.5"/>
<text text-anchor="middle" x="224.5" y="-83.5" font-family="Helvetica,sans-Serif" font-size="10.00">T_MESH::Triangle::v1</text>
</a>
</g>
</g>
<!-- Node1&#45;&gt;Node22 -->
<g id="edge28" class="edge">
<title>Node1&#45;&gt;Node22</title>
<path fill="none" stroke="midnightblue" d="M68.43,-234.73C80.71,-205.13 111.77,-139.8 159,-105 161.63,-103.06 164.46,-101.32 167.41,-99.75"/>
<polygon fill="midnightblue" stroke="midnightblue" points="168.91,-102.92 176.55,-95.57 166,-96.55 168.91,-102.92"/>
</g>
<!-- Node24 -->
<g id="node24" class="node">
<title>Node24</title>
<g id="a_node24"><a xlink:href="../../d8/d6e/class_t___m_e_s_h_1_1_triangle.html#a1bf6a231440a3c73a931c1cfccfee574" target="_top" xlink:title="Second vertex.">
<polygon fill="white" stroke="black" points="167.5,-38.5 167.5,-57.5 281.5,-57.5 281.5,-38.5 167.5,-38.5"/>
<text text-anchor="middle" x="224.5" y="-45.5" font-family="Helvetica,sans-Serif" font-size="10.00">T_MESH::Triangle::v2</text>
</a>
</g>
</g>
<!-- Node1&#45;&gt;Node24 -->
<g id="edge30" class="edge">
<title>Node1&#45;&gt;Node24</title>
<path fill="none" stroke="midnightblue" d="M66.14,-234.88C75.37,-199.9 103,-112.84 159,-67 161.24,-65.16 163.66,-63.5 166.19,-62"/>
<polygon fill="midnightblue" stroke="midnightblue" points="167.81,-65.11 175.18,-57.5 164.67,-58.85 167.81,-65.11"/>
</g>
<!-- Node25 -->
<g id="node25" class="node">
<title>Node25</title>
<g id="a_node25"><a xlink:href="../../d8/d6e/class_t___m_e_s_h_1_1_triangle.html#a0c4c2a2ba6b0c975aa3d260f00785e8f" target="_top" xlink:title="Third vertex.">
<polygon fill="white" stroke="black" points="167.5,-0.5 167.5,-19.5 281.5,-19.5 281.5,-0.5 167.5,-0.5"/>
<text text-anchor="middle" x="224.5" y="-7.5" font-family="Helvetica,sans-Serif" font-size="10.00">T_MESH::Triangle::v3</text>
</a>
</g>
</g>
<!-- Node1&#45;&gt;Node25 -->
<g id="edge32" class="edge">
<title>Node1&#45;&gt;Node25</title>
<path fill="none" stroke="midnightblue" d="M64.66,-234.82C71.14,-194.91 94.16,-86.19 159,-29 160.78,-27.43 162.68,-25.99 164.68,-24.67"/>
<polygon fill="midnightblue" stroke="midnightblue" points="166.83,-27.48 173.92,-19.61 163.47,-21.34 166.83,-27.48"/>
</g>
<!-- Node4&#45;&gt;Node2 -->
<g id="edge4" class="edge">
<title>Node4&#45;&gt;Node2</title>
<path fill="none" stroke="midnightblue" d="M237.66,-445.2C250.66,-461.45 271.84,-488 290,-511 306.09,-531.38 304.07,-543.11 326,-557 329.22,-559.04 332.63,-560.86 336.17,-562.49"/>
<polygon fill="midnightblue" stroke="midnightblue" points="335.18,-565.86 345.76,-566.36 337.79,-559.37 335.18,-565.86"/>
</g>
<!-- Node5 -->
<g id="node5" class="node">
<title>Node5</title>
<g id="a_node5"><a xlink:href="../../da/da2/class_t___m_e_s_h_1_1_edge.html#a0f2457674237bd05c42d68b023502742" target="_top" xlink:title="TRUE iff edge is on the boundary (i.e., one of the two incident triangles is NULL).">
<polygon fill="white" stroke="black" points="334.5,-414.5 334.5,-433.5 487.5,-433.5 487.5,-414.5 334.5,-414.5"/>
<text text-anchor="middle" x="411" y="-421.5" font-family="Helvetica,sans-Serif" font-size="10.00">T_MESH::Edge::isOnBoundary</text>
</a>
</g>
</g>
<!-- Node4&#45;&gt;Node5 -->
<g id="edge5" class="edge">
<title>Node4&#45;&gt;Node5</title>
<path fill="none" stroke="midnightblue" d="M286.17,-428.03C298.35,-427.63 311.37,-427.21 324.22,-426.79"/>
<polygon fill="midnightblue" stroke="midnightblue" points="324.59,-430.28 334.47,-426.46 324.36,-423.28 324.59,-430.28"/>
</g>
<!-- Node6 -->
<g id="node6" class="node">
<title>Node6</title>
<g id="a_node6"><a xlink:href="../../d5/d7f/class_t___m_e_s_h_1_1_vertex.html#ac8ca8a164a829c53efaefd29b5ea4b6f" target="_top" xlink:title="Returns the vertex following this one on the boundary.">
<polygon fill="white" stroke="black" points="326,-528.5 326,-547.5 496,-547.5 496,-528.5 326,-528.5"/>
<text text-anchor="middle" x="411" y="-535.5" font-family="Helvetica,sans-Serif" font-size="10.00">T_MESH::Vertex::nextOnBoundary</text>
</a>
</g>
</g>
<!-- Node4&#45;&gt;Node6 -->
<g id="edge6" class="edge">
<title>Node4&#45;&gt;Node6</title>
<path fill="none" stroke="midnightblue" d="M238.11,-445.16C255.68,-465.24 289.5,-500.29 326,-519 330.62,-521.37 335.54,-523.44 340.58,-525.26"/>
<polygon fill="midnightblue" stroke="midnightblue" points="339.8,-528.69 350.39,-528.45 341.96,-522.03 339.8,-528.69"/>
</g>
<!-- Node12 -->
<g id="node12" class="node">
<title>Node12</title>
<g id="a_node12"><a xlink:href="../../d3/d04/class_t___m_e_s_h_1_1_list.html#af0e61026072f65c9ba882df526acfd2e" target="_top" xlink:title="Gets the number of elements. &#160;&#160;O(1).">
<polygon fill="white" stroke="black" points="353,-490.5 353,-509.5 469,-509.5 469,-490.5 353,-490.5"/>
<text text-anchor="middle" x="411" y="-497.5" font-family="Helvetica,sans-Serif" font-size="10.00">T_MESH::List::numels</text>
</a>
</g>
</g>
<!-- Node4&#45;&gt;Node12 -->
<g id="edge13" class="edge">
<title>Node4&#45;&gt;Node12</title>
<path fill="none" stroke="midnightblue" d="M250.75,-445.02C270.61,-456.29 299.31,-471.38 326,-481 333.22,-483.6 340.92,-485.93 348.62,-487.98"/>
<polygon fill="midnightblue" stroke="midnightblue" points="347.78,-491.37 358.34,-490.43 349.5,-484.59 347.78,-491.37"/>
</g>
<!-- Node13 -->
<g id="node13" class="node">
<title>Node13</title>
<g id="a_node13"><a xlink:href="../../d3/d04/class_t___m_e_s_h_1_1_list.html#a9701d1b3769b92b7d2a7ed6da895a863" target="_top" xlink:title="Deletes and removes the first node. Returns its data. &#160;&#160;O(1).">
<polygon fill="white" stroke="black" points="349,-452.5 349,-471.5 473,-471.5 473,-452.5 349,-452.5"/>
<text text-anchor="middle" x="411" y="-459.5" font-family="Helvetica,sans-Serif" font-size="10.00">T_MESH::List::popHead</text>
</a>
</g>
</g>
<!-- Node4&#45;&gt;Node13 -->
<g id="edge14" class="edge">
<title>Node4&#45;&gt;Node13</title>
<path fill="none" stroke="midnightblue" d="M286.17,-440.52C305.13,-443.81 326.11,-447.45 345.34,-450.79"/>
<polygon fill="midnightblue" stroke="midnightblue" points="344.76,-454.24 355.21,-452.5 345.96,-447.34 344.76,-454.24"/>
</g>
<!-- Node4&#45;&gt;Node15 -->
<g id="edge16" class="edge">
<title>Node4&#45;&gt;Node15</title>
<path fill="none" stroke="midnightblue" d="M284.97,-414.98C298.45,-411.64 312.71,-408.16 326,-405 335.93,-402.64 346.53,-400.19 356.75,-397.86"/>
<polygon fill="midnightblue" stroke="midnightblue" points="357.82,-401.21 366.79,-395.59 356.27,-394.38 357.82,-401.21"/>
</g>
<!-- Node4&#45;&gt;Node17 -->
<g id="edge18" class="edge">
<title>Node4&#45;&gt;Node17</title>
<path fill="none" stroke="midnightblue" d="M245.18,-414.83C264.69,-400.5 295.92,-379.41 326,-367 332.22,-364.43 338.85,-362.18 345.56,-360.21"/>
<polygon fill="midnightblue" stroke="midnightblue" points="346.67,-363.54 355.39,-357.53 344.82,-356.79 346.67,-363.54"/>
</g>
<!-- Node4&#45;&gt;Node18 -->
<g id="edge20" class="edge">
<title>Node4&#45;&gt;Node18</title>
<path fill="none" stroke="midnightblue" d="M236.23,-414.65C252.8,-392.19 286.82,-350.67 326,-329 331.89,-325.74 338.31,-323.04 344.88,-320.81"/>
<polygon fill="midnightblue" stroke="midnightblue" points="346.04,-324.11 354.58,-317.85 344,-317.42 346.04,-324.11"/>
</g>
<!-- Node7 -->
<g id="node7" class="node">
<title>Node7</title>
<g id="a_node7"><a xlink:href="../../d5/d7f/class_t___m_e_s_h_1_1_vertex.html#a312b5886ae431004c537b8a2a7f6672f" target="_top" xlink:title="Returns the edge following this vertex on the boundary.">
<polygon fill="white" stroke="black" points="532,-509.5 532,-528.5 711,-528.5 711,-509.5 532,-509.5"/>
<text text-anchor="middle" x="621.5" y="-516.5" font-family="Helvetica,sans-Serif" font-size="10.00">T_MESH::Vertex::nextBoundaryEdge</text>
</a>
</g>
</g>
<!-- Node6&#45;&gt;Node7 -->
<g id="edge7" class="edge">
<title>Node6&#45;&gt;Node7</title>
<path fill="none" stroke="midnightblue" d="M496.2,-530.33C504.65,-529.56 513.28,-528.77 521.86,-527.99"/>
<polygon fill="midnightblue" stroke="midnightblue" points="522.26,-531.47 531.9,-527.07 521.62,-524.5 522.26,-531.47"/>
</g>
<!-- Node11 -->
<g id="node11" class="node">
<title>Node11</title>
<g id="a_node11"><a xlink:href="../../da/da2/class_t___m_e_s_h_1_1_edge.html#aef981891343c94489f00b060bd654b6c" target="_top" xlink:title="Vertex opposite to &#39;v&#39;. NULL if &#39;v&#39; is not a vertex of the edge.">
<polygon fill="white" stroke="black" points="750.5,-547.5 750.5,-566.5 906.5,-566.5 906.5,-547.5 750.5,-547.5"/>
<text text-anchor="middle" x="828.5" y="-554.5" font-family="Helvetica,sans-Serif" font-size="10.00">T_MESH::Edge::oppositeVertex</text>
</a>
</g>
</g>
<!-- Node6&#45;&gt;Node11 -->
<g id="edge12" class="edge">
<title>Node6&#45;&gt;Node11</title>
<path fill="none" stroke="midnightblue" d="M496.08,-541.84C566.94,-545.09 667.97,-549.7 739.82,-552.99"/>
<polygon fill="midnightblue" stroke="midnightblue" points="740.05,-556.5 750.2,-553.47 740.37,-549.51 740.05,-556.5"/>
</g>
<!-- Node8 -->
<g id="node8" class="node">
<title>Node8</title>
<g id="a_node8"><a xlink:href="../../da/da2/class_t___m_e_s_h_1_1_edge.html#a96830b6d677fab318268f287682ad151" target="_top" xlink:title="Triangle on the left of the edge when looking from &#39;v&#39;. NULL if &#39;v&#39; is not a vertex of the edge.">
<polygon fill="white" stroke="black" points="758.5,-509.5 758.5,-528.5 898.5,-528.5 898.5,-509.5 758.5,-509.5"/>
<text text-anchor="middle" x="828.5" y="-516.5" font-family="Helvetica,sans-Serif" font-size="10.00">T_MESH::Edge::leftTriangle</text>
</a>
</g>
</g>
<!-- Node7&#45;&gt;Node8 -->
<g id="edge8" class="edge">
<title>Node7&#45;&gt;Node8</title>
<path fill="none" stroke="midnightblue" d="M711.22,-519C723.57,-519 736.18,-519 748.33,-519"/>
<polygon fill="midnightblue" stroke="midnightblue" points="748.42,-522.5 758.42,-519 748.42,-515.5 748.42,-522.5"/>
</g>
<!-- Node9 -->
<g id="node9" class="node">
<title>Node9</title>
<g id="a_node9"><a xlink:href="../../d8/d6e/class_t___m_e_s_h_1_1_triangle.html#a77cc688b97fd6501b5dca8385fce4137" target="_top" xlink:title="Triangle&#39;s edge opposite to &#39;v&#39;. NULL if &#39;v&#39; is not a vertex of the triangle.">
<polygon fill="white" stroke="black" points="747,-471.5 747,-490.5 910,-490.5 910,-471.5 747,-471.5"/>
<text text-anchor="middle" x="828.5" y="-478.5" font-family="Helvetica,sans-Serif" font-size="10.00">T_MESH::Triangle::oppositeEdge</text>
</a>
</g>
</g>
<!-- Node7&#45;&gt;Node9 -->
<g id="edge9" class="edge">
<title>Node7&#45;&gt;Node9</title>
<path fill="none" stroke="midnightblue" d="M673.97,-509.46C701.87,-504.29 736.55,-497.86 765.88,-492.42"/>
<polygon fill="midnightblue" stroke="midnightblue" points="766.82,-495.81 776.01,-490.54 765.54,-488.93 766.82,-495.81"/>
</g>
<!-- Node7&#45;&gt;Node11 -->
<g id="edge11" class="edge">
<title>Node7&#45;&gt;Node11</title>
<path fill="none" stroke="midnightblue" d="M673.97,-528.54C701.87,-533.71 736.55,-540.14 765.88,-545.58"/>
<polygon fill="midnightblue" stroke="midnightblue" points="765.54,-549.07 776.01,-547.46 766.82,-542.19 765.54,-549.07"/>
</g>
<!-- Node10 -->
<g id="node10" class="node">
<title>Node10</title>
<g id="a_node10"><a xlink:href="../../da/da2/class_t___m_e_s_h_1_1_edge.html#a7d7329ff24b7b6eb2eceee39711dd650" target="_top" xlink:title="TRUE iff &#39;v&#39; is an end&#45;point of the edge.">
<polygon fill="white" stroke="black" points="946,-471.5 946,-490.5 1081,-490.5 1081,-471.5 946,-471.5"/>
<text text-anchor="middle" x="1013.5" y="-478.5" font-family="Helvetica,sans-Serif" font-size="10.00">T_MESH::Edge::hasVertex</text>
</a>
</g>
</g>
<!-- Node9&#45;&gt;Node10 -->
<g id="edge10" class="edge">
<title>Node9&#45;&gt;Node10</title>
<path fill="none" stroke="midnightblue" d="M910.03,-481C918.55,-481 927.2,-481 935.68,-481"/>
<polygon fill="midnightblue" stroke="midnightblue" points="935.92,-484.5 945.92,-481 935.92,-477.5 935.92,-484.5"/>
</g>
<!-- Node14 -->
<g id="node14" class="node">
<title>Node14</title>
<g id="a_node14"><a xlink:href="../../d3/d04/class_t___m_e_s_h_1_1_list.html#aec091d7c66b66c92fe56f06f41f448f4" target="_top" xlink:title="Deletes and removes the node &#39;n&#39; from the list. &#160;&#160;O(1).">
<polygon fill="white" stroke="black" points="554.5,-452.5 554.5,-471.5 688.5,-471.5 688.5,-452.5 554.5,-452.5"/>
<text text-anchor="middle" x="621.5" y="-459.5" font-family="Helvetica,sans-Serif" font-size="10.00">T_MESH::List::removeCell</text>
</a>
</g>
</g>
<!-- Node13&#45;&gt;Node14 -->
<g id="edge15" class="edge">
<title>Node13&#45;&gt;Node14</title>
<path fill="none" stroke="midnightblue" d="M473.15,-462C495.34,-462 520.69,-462 544.04,-462"/>
<polygon fill="midnightblue" stroke="midnightblue" points="544.25,-465.5 554.25,-462 544.25,-458.5 544.25,-465.5"/>
</g>
<!-- Node16 -->
<g id="node16" class="node">
<title>Node16</title>
<g id="a_node16"><a xlink:href="../../da/da2/class_t___m_e_s_h_1_1_edge.html#a295cf6f1ac996ea5e760c2bbd590c513" target="_top" xlink:title="Incident triangle opposite to &#39;t&#39;. NULL if &#39;t&#39; is not incident to the edge.">
<polygon fill="white" stroke="black" points="540,-338.5 540,-357.5 703,-357.5 703,-338.5 540,-338.5"/>
<text text-anchor="middle" x="621.5" y="-345.5" font-family="Helvetica,sans-Serif" font-size="10.00">T_MESH::Edge::oppositeTriangle</text>
</a>
</g>
</g>
<!-- Node15&#45;&gt;Node16 -->
<g id="edge17" class="edge">
<title>Node15&#45;&gt;Node16</title>
<path fill="none" stroke="midnightblue" d="M464.34,-376.46C492.85,-371.27 528.3,-364.8 558.22,-359.35"/>
<polygon fill="midnightblue" stroke="midnightblue" points="558.92,-362.78 568.13,-357.54 557.67,-355.89 558.92,-362.78"/>
</g>
<!-- Node17&#45;&gt;Node16 -->
<g id="edge19" class="edge">
<title>Node17&#45;&gt;Node16</title>
<path fill="none" stroke="midnightblue" d="M467.05,-348C486.32,-348 508.5,-348 529.9,-348"/>
<polygon fill="midnightblue" stroke="midnightblue" points="529.99,-351.5 539.99,-348 529.99,-344.5 529.99,-351.5"/>
</g>
<!-- Node18&#45;&gt;Node16 -->
<g id="edge21" class="edge">
<title>Node18&#45;&gt;Node16</title>
<path fill="none" stroke="midnightblue" d="M464.34,-319.54C492.85,-324.73 528.3,-331.2 558.22,-336.65"/>
<polygon fill="midnightblue" stroke="midnightblue" points="557.67,-340.11 568.13,-338.46 558.92,-333.22 557.67,-340.11"/>
</g>
<!-- Node23 -->
<g id="node23" class="node">
<title>Node23</title>
<g id="a_node23"><a xlink:href="../../da/da2/class_t___m_e_s_h_1_1_edge.html#a560eca8895471f987bd3228b13c40052" target="_top" xlink:title="Vertex shared with edge &#39;b&#39;. NULL if this and &#39;b&#39; do not share any vertex.">
<polygon fill="white" stroke="black" points="332.5,-38.5 332.5,-57.5 489.5,-57.5 489.5,-38.5 332.5,-38.5"/>
<text text-anchor="middle" x="411" y="-45.5" font-family="Helvetica,sans-Serif" font-size="10.00">T_MESH::Edge::commonVertex</text>
</a>
</g>
</g>
<!-- Node22&#45;&gt;Node23 -->
<g id="edge29" class="edge">
<title>Node22&#45;&gt;Node23</title>
<path fill="none" stroke="midnightblue" d="M272.06,-76.41C296.84,-71.31 327.52,-64.99 353.64,-59.61"/>
<polygon fill="midnightblue" stroke="midnightblue" points="354.69,-62.97 363.78,-57.52 353.28,-56.11 354.69,-62.97"/>
</g>
<!-- Node24&#45;&gt;Node23 -->
<g id="edge31" class="edge">
<title>Node24&#45;&gt;Node23</title>
<path fill="none" stroke="midnightblue" d="M281.61,-48C294.49,-48 308.49,-48 322.35,-48"/>
<polygon fill="midnightblue" stroke="midnightblue" points="322.4,-51.5 332.4,-48 322.4,-44.5 322.4,-51.5"/>
</g>
<!-- Node25&#45;&gt;Node23 -->
<g id="edge33" class="edge">
<title>Node25&#45;&gt;Node23</title>
<path fill="none" stroke="midnightblue" d="M272.06,-19.59C296.84,-24.69 327.52,-31.01 353.64,-36.39"/>
<polygon fill="midnightblue" stroke="midnightblue" points="353.28,-39.89 363.78,-38.48 354.69,-33.03 353.28,-39.89"/>
</g>
</g>
</svg>
