<?xml version="1.0" encoding="UTF-8" standalone="no"?>
<!DOCTYPE svg PUBLIC "-//W3C//DTD SVG 1.1//EN"
 "http://www.w3.org/Graphics/SVG/1.1/DTD/svg11.dtd">
<!-- Generated by graphviz version 2.44.1 (0)
 -->
<!-- Title: T_MESH::Basic_TMesh::removeRegion Pages: 1 -->
<svg width="876pt" height="910pt"
 viewBox="0.00 0.00 876.00 910.00" xmlns="http://www.w3.org/2000/svg" xmlns:xlink="http://www.w3.org/1999/xlink">
<g id="graph0" class="graph" transform="scale(1 1) rotate(0) translate(4 906)">
<title>T_MESH::Basic_TMesh::removeRegion</title>
<polygon fill="white" stroke="transparent" points="-4,4 -4,-906 872,-906 872,4 -4,4"/>
<!-- Node1 -->
<g id="node1" class="node">
<title>Node1</title>
<g id="a_node1"><a xlink:title="Removes triangles within distance L from &#39;p&#39;. O(N).">
<polygon fill="#bfbfbf" stroke="black" points="0,-278 0,-308 123,-308 123,-278 0,-278"/>
<text text-anchor="start" x="8" y="-296" font-family="Helvetica,sans-Serif" font-size="10.00">T_MESH::Basic_TMesh</text>
<text text-anchor="middle" x="61.5" y="-285" font-family="Helvetica,sans-Serif" font-size="10.00">::removeRegion</text>
</a>
</g>
</g>
<!-- Node2 -->
<g id="node2" class="node">
<title>Node2</title>
<g id="a_node2"><a xlink:href="../../d3/d04/class_t___m_e_s_h_1_1_list.html#ae601a7e17364ce83f74ffcb6c64971ca" target="_top" xlink:title="Appends a new node storing &#39;d&#39; to the head. &#160;&#160;O(1).">
<polygon fill="white" stroke="black" points="545.5,-718.5 545.5,-737.5 685.5,-737.5 685.5,-718.5 545.5,-718.5"/>
<text text-anchor="middle" x="615.5" y="-725.5" font-family="Helvetica,sans-Serif" font-size="10.00">T_MESH::List::appendHead</text>
</a>
</g>
</g>
<!-- Node1&#45;&gt;Node2 -->
<g id="edge1" class="edge">
<title>Node1&#45;&gt;Node2</title>
<path fill="none" stroke="midnightblue" d="M64.32,-308.08C72.43,-373.16 107.23,-629.46 159,-689 259.94,-805.1 345.45,-778.95 498,-759 524.94,-755.48 554.51,-747.56 577.11,-740.61"/>
<polygon fill="midnightblue" stroke="midnightblue" points="578.17,-743.94 586.66,-737.6 576.07,-737.26 578.17,-743.94"/>
</g>
<!-- Node3 -->
<g id="node3" class="node">
<title>Node3</title>
<g id="a_node3"><a xlink:href="../../d2/d8e/class_t___m_e_s_h_1_1_point.html#a8261009d0497d23fdb28ac451f70cc64" target="_top" xlink:title="Distance from &#39;b&#39;.">
<polygon fill="white" stroke="black" points="165,-114.5 165,-133.5 293,-133.5 293,-114.5 165,-114.5"/>
<text text-anchor="middle" x="229" y="-121.5" font-family="Helvetica,sans-Serif" font-size="10.00">T_MESH::Point::distance</text>
</a>
</g>
</g>
<!-- Node1&#45;&gt;Node3 -->
<g id="edge2" class="edge">
<title>Node1&#45;&gt;Node3</title>
<path fill="none" stroke="midnightblue" d="M68.58,-277.93C81.12,-248.67 112.63,-183.93 159,-148 164.39,-143.82 170.56,-140.34 176.94,-137.45"/>
<polygon fill="midnightblue" stroke="midnightblue" points="178.43,-140.63 186.38,-133.62 175.79,-134.14 178.43,-140.63"/>
</g>
<!-- Node5 -->
<g id="node5" class="node">
<title>Node5</title>
<g id="a_node5"><a xlink:href="../../d3/d04/class_t___m_e_s_h_1_1_list.html#af3baa55cf02bd943635012a489d6c33a" target="_top" xlink:title="Gets the first node, NULL if empty. &#160;&#160;O(1).">
<polygon fill="white" stroke="black" points="562.5,-338.5 562.5,-357.5 668.5,-357.5 668.5,-338.5 562.5,-338.5"/>
<text text-anchor="middle" x="615.5" y="-345.5" font-family="Helvetica,sans-Serif" font-size="10.00">T_MESH::List::head</text>
</a>
</g>
</g>
<!-- Node1&#45;&gt;Node5 -->
<g id="edge4" class="edge">
<title>Node1&#45;&gt;Node5</title>
<path fill="none" stroke="midnightblue" d="M104.27,-308.07C157.14,-326.28 251.42,-355.85 335,-367 406.81,-376.58 425.79,-372.85 498,-367 517.39,-365.43 538.42,-362.41 557.21,-359.23"/>
<polygon fill="midnightblue" stroke="midnightblue" points="557.85,-362.68 567.1,-357.51 556.65,-355.78 557.85,-362.68"/>
</g>
<!-- Node6 -->
<g id="node6" class="node">
<title>Node6</title>
<g id="a_node6"><a xlink:href="../../d3/d04/class_t___m_e_s_h_1_1_list.html#af0e61026072f65c9ba882df526acfd2e" target="_top" xlink:title="Gets the number of elements. &#160;&#160;O(1).">
<polygon fill="white" stroke="black" points="557.5,-452.5 557.5,-471.5 673.5,-471.5 673.5,-452.5 557.5,-452.5"/>
<text text-anchor="middle" x="615.5" y="-459.5" font-family="Helvetica,sans-Serif" font-size="10.00">T_MESH::List::numels</text>
</a>
</g>
</g>
<!-- Node1&#45;&gt;Node6 -->
<g id="edge5" class="edge">
<title>Node1&#45;&gt;Node6</title>
<path fill="none" stroke="midnightblue" d="M67.43,-308.32C78.3,-339.24 107.51,-408.65 159,-438 223.38,-474.7 437.08,-470.57 547.36,-465.69"/>
<polygon fill="midnightblue" stroke="midnightblue" points="547.55,-469.18 557.38,-465.23 547.23,-462.19 547.55,-469.18"/>
</g>
<!-- Node7 -->
<g id="node7" class="node">
<title>Node7</title>
<g id="a_node7"><a xlink:href="../../d8/d6e/class_t___m_e_s_h_1_1_triangle.html#a5332cb4780fa56bdd9e95b250defc82c" target="_top" xlink:title="Triangle&#39;s vertex opposite to &#39;e&#39;. NULL if &#39;e&#39; is not an edge of the triangle.">
<polygon fill="white" stroke="black" points="159,-823 159,-853 299,-853 299,-823 159,-823"/>
<text text-anchor="start" x="167" y="-841" font-family="Helvetica,sans-Serif" font-size="10.00">T_MESH::Triangle::opposite</text>
<text text-anchor="middle" x="229" y="-830" font-family="Helvetica,sans-Serif" font-size="10.00">Vertex</text>
</a>
</g>
</g>
<!-- Node1&#45;&gt;Node7 -->
<g id="edge6" class="edge">
<title>Node1&#45;&gt;Node7</title>
<path fill="none" stroke="midnightblue" d="M63.84,-308.04C70.7,-382.2 103.66,-708.79 159,-792 165.79,-802.21 175.7,-810.72 185.9,-817.52"/>
<polygon fill="midnightblue" stroke="midnightblue" points="184.13,-820.54 194.47,-822.84 187.82,-814.6 184.13,-820.54"/>
</g>
<!-- Node12 -->
<g id="node12" class="node">
<title>Node12</title>
<g id="a_node12"><a xlink:href="../../da/d53/class_t___m_e_s_h_1_1_node.html#aed5d13bba326f240b2058b5a2a28c3c3" target="_top" xlink:title="Returns the previous node in the list, possibly NULL.">
<polygon fill="white" stroke="black" points="560,-186.5 560,-205.5 671,-205.5 671,-186.5 560,-186.5"/>
<text text-anchor="middle" x="615.5" y="-193.5" font-family="Helvetica,sans-Serif" font-size="10.00">T_MESH::Node::prev</text>
</a>
</g>
</g>
<!-- Node1&#45;&gt;Node12 -->
<g id="edge13" class="edge">
<title>Node1&#45;&gt;Node12</title>
<path fill="none" stroke="midnightblue" d="M77.24,-277.86C94.88,-260.84 126.19,-234.02 159,-222 291.13,-173.59 459.23,-179.85 549.75,-188.21"/>
<polygon fill="midnightblue" stroke="midnightblue" points="549.57,-191.71 559.86,-189.19 550.25,-184.74 549.57,-191.71"/>
</g>
<!-- Node13 -->
<g id="node13" class="node">
<title>Node13</title>
<g id="a_node13"><a xlink:href="../../d3/d04/class_t___m_e_s_h_1_1_list.html#aec091d7c66b66c92fe56f06f41f448f4" target="_top" xlink:title="Deletes and removes the node &#39;n&#39; from the list. &#160;&#160;O(1).">
<polygon fill="white" stroke="black" points="733.5,-376.5 733.5,-395.5 867.5,-395.5 867.5,-376.5 733.5,-376.5"/>
<text text-anchor="middle" x="800.5" y="-383.5" font-family="Helvetica,sans-Serif" font-size="10.00">T_MESH::List::removeCell</text>
</a>
</g>
</g>
<!-- Node1&#45;&gt;Node13 -->
<g id="edge14" class="edge">
<title>Node1&#45;&gt;Node13</title>
<path fill="none" stroke="midnightblue" d="M80.02,-308.11C98.4,-323.09 128.78,-345.41 159,-357 354.16,-431.83 607.63,-412.49 728.86,-396.86"/>
<polygon fill="midnightblue" stroke="midnightblue" points="729.66,-400.29 739.12,-395.51 728.75,-393.35 729.66,-400.29"/>
</g>
<!-- Node14 -->
<g id="node14" class="node">
<title>Node14</title>
<g id="a_node14"><a xlink:href="../../d6/d27/class_t___m_e_s_h_1_1_basic___t_mesh.html#ae11cf4d5f73b416ca9335fd3d6dea58f" target="_top" xlink:title="Removes all the unlinked elements from the lists. Returns the number of removed elements....">
<polygon fill="white" stroke="black" points="162,-278 162,-308 296,-308 296,-278 162,-278"/>
<text text-anchor="start" x="170" y="-296" font-family="Helvetica,sans-Serif" font-size="10.00">T_MESH::Basic_TMesh</text>
<text text-anchor="middle" x="229" y="-285" font-family="Helvetica,sans-Serif" font-size="10.00">::removeUnlinkedElements</text>
</a>
</g>
</g>
<!-- Node1&#45;&gt;Node14 -->
<g id="edge15" class="edge">
<title>Node1&#45;&gt;Node14</title>
<path fill="none" stroke="midnightblue" d="M123.19,-293C132.4,-293 142.01,-293 151.5,-293"/>
<polygon fill="midnightblue" stroke="midnightblue" points="151.74,-296.5 161.74,-293 151.74,-289.5 151.74,-296.5"/>
</g>
<!-- Node17 -->
<g id="node17" class="node">
<title>Node17</title>
<g id="a_node17"><a xlink:href="../../d3/d04/class_t___m_e_s_h_1_1_list.html#a700222ddbd4160a36795249926752f79" target="_top" xlink:title="Gets the last node, NULL if empty. &#160;&#160;O(1).">
<polygon fill="white" stroke="black" points="566.5,-224.5 566.5,-243.5 664.5,-243.5 664.5,-224.5 566.5,-224.5"/>
<text text-anchor="middle" x="615.5" y="-231.5" font-family="Helvetica,sans-Serif" font-size="10.00">T_MESH::List::tail</text>
</a>
</g>
</g>
<!-- Node1&#45;&gt;Node17 -->
<g id="edge40" class="edge">
<title>Node1&#45;&gt;Node17</title>
<path fill="none" stroke="midnightblue" d="M104.75,-277.97C157.73,-260 251.72,-230.96 335,-220 406.82,-210.55 425.69,-215.67 498,-220 517.04,-221.14 537.75,-223.32 556.35,-225.63"/>
<polygon fill="midnightblue" stroke="midnightblue" points="556.08,-229.12 566.44,-226.91 556.96,-222.18 556.08,-229.12"/>
</g>
<!-- Node20 -->
<g id="node20" class="node">
<title>Node20</title>
<g id="a_node20"><a xlink:href="../../d8/d6e/class_t___m_e_s_h_1_1_triangle.html#ad0c49113ef7f52e4a86959eaafc7baf9" target="_top" xlink:title="First adjacent triangle. NULL if boundary.">
<polygon fill="white" stroke="black" points="173,-76.5 173,-95.5 285,-95.5 285,-76.5 173,-76.5"/>
<text text-anchor="middle" x="229" y="-83.5" font-family="Helvetica,sans-Serif" font-size="10.00">T_MESH::Triangle::t1</text>
</a>
</g>
</g>
<!-- Node1&#45;&gt;Node20 -->
<g id="edge34" class="edge">
<title>Node1&#45;&gt;Node20</title>
<path fill="none" stroke="midnightblue" d="M65.83,-277.94C74.53,-242.22 101.36,-151.87 159,-105 161.07,-103.32 163.27,-101.79 165.58,-100.39"/>
<polygon fill="midnightblue" stroke="midnightblue" points="167.56,-103.31 174.88,-95.64 164.38,-97.07 167.56,-103.31"/>
</g>
<!-- Node22 -->
<g id="node22" class="node">
<title>Node22</title>
<g id="a_node22"><a xlink:href="../../d8/d6e/class_t___m_e_s_h_1_1_triangle.html#a2511453b48f8c042e7aac67da3fff129" target="_top" xlink:title="Second adjacent triangle. NULL if boundary.">
<polygon fill="white" stroke="black" points="173,-38.5 173,-57.5 285,-57.5 285,-38.5 173,-38.5"/>
<text text-anchor="middle" x="229" y="-45.5" font-family="Helvetica,sans-Serif" font-size="10.00">T_MESH::Triangle::t2</text>
</a>
</g>
</g>
<!-- Node1&#45;&gt;Node22 -->
<g id="edge36" class="edge">
<title>Node1&#45;&gt;Node22</title>
<path fill="none" stroke="midnightblue" d="M64.44,-277.72C70.44,-237 92.49,-125.1 159,-67 160.79,-65.44 162.69,-64.01 164.68,-62.69"/>
<polygon fill="midnightblue" stroke="midnightblue" points="166.83,-65.51 173.92,-57.63 163.47,-59.37 166.83,-65.51"/>
</g>
<!-- Node23 -->
<g id="node23" class="node">
<title>Node23</title>
<g id="a_node23"><a xlink:href="../../d8/d6e/class_t___m_e_s_h_1_1_triangle.html#a4383009f2e92ec1445cfdee5c3fa14e4" target="_top" xlink:title="Third adjacent triangle. NULL if boundary.">
<polygon fill="white" stroke="black" points="173,-0.5 173,-19.5 285,-19.5 285,-0.5 173,-0.5"/>
<text text-anchor="middle" x="229" y="-7.5" font-family="Helvetica,sans-Serif" font-size="10.00">T_MESH::Triangle::t3</text>
</a>
</g>
</g>
<!-- Node1&#45;&gt;Node23 -->
<g id="edge38" class="edge">
<title>Node1&#45;&gt;Node23</title>
<path fill="none" stroke="midnightblue" d="M63.38,-277.86C66.82,-232.87 83.28,-98.77 159,-29 160.71,-27.43 162.53,-25.98 164.45,-24.65"/>
<polygon fill="midnightblue" stroke="midnightblue" points="166.42,-27.56 173.37,-19.56 162.95,-21.48 166.42,-27.56"/>
</g>
<!-- Node24 -->
<g id="node24" class="node">
<title>Node24</title>
<g id="a_node24"><a xlink:href="../../d6/d27/class_t___m_e_s_h_1_1_basic___t_mesh.html#a8587dde3c2d3c7ff7d0f7c8ff82ecf70" target="_top" xlink:title="Unlinks a triangle from the mesh. O(1).">
<polygon fill="white" stroke="black" points="167.5,-649 167.5,-679 290.5,-679 290.5,-649 167.5,-649"/>
<text text-anchor="start" x="175.5" y="-667" font-family="Helvetica,sans-Serif" font-size="10.00">T_MESH::Basic_TMesh</text>
<text text-anchor="middle" x="229" y="-656" font-family="Helvetica,sans-Serif" font-size="10.00">::unlinkTriangle</text>
</a>
</g>
</g>
<!-- Node1&#45;&gt;Node24 -->
<g id="edge41" class="edge">
<title>Node1&#45;&gt;Node24</title>
<path fill="none" stroke="midnightblue" d="M69.19,-308C94.61,-364.98 185.33,-568.34 216.99,-639.33"/>
<polygon fill="midnightblue" stroke="midnightblue" points="213.95,-641.1 221.22,-648.81 220.35,-638.25 213.95,-641.1"/>
</g>
<!-- Node4 -->
<g id="node4" class="node">
<title>Node4</title>
<g id="a_node4"><a xlink:href="../../d2/d8e/class_t___m_e_s_h_1_1_point.html#a61ce9f22ddfe41f036566d4a2f920ac4" target="_top" xlink:title="Distance from origin.">
<polygon fill="white" stroke="black" points="357.5,-114.5 357.5,-133.5 475.5,-133.5 475.5,-114.5 357.5,-114.5"/>
<text text-anchor="middle" x="416.5" y="-121.5" font-family="Helvetica,sans-Serif" font-size="10.00">T_MESH::Point::length</text>
</a>
</g>
</g>
<!-- Node3&#45;&gt;Node4 -->
<g id="edge3" class="edge">
<title>Node3&#45;&gt;Node4</title>
<path fill="none" stroke="midnightblue" d="M293.06,-124C310.45,-124 329.39,-124 347.06,-124"/>
<polygon fill="midnightblue" stroke="midnightblue" points="347.3,-127.5 357.3,-124 347.3,-120.5 347.3,-127.5"/>
</g>
<!-- Node8 -->
<g id="node8" class="node">
<title>Node8</title>
<g id="a_node8"><a xlink:href="../../d8/d6e/class_t___m_e_s_h_1_1_triangle.html#aa7b9f783f2e4339083f46d25d3eecf68" target="_top" xlink:title="First vertex.">
<polygon fill="white" stroke="black" points="359.5,-882.5 359.5,-901.5 473.5,-901.5 473.5,-882.5 359.5,-882.5"/>
<text text-anchor="middle" x="416.5" y="-889.5" font-family="Helvetica,sans-Serif" font-size="10.00">T_MESH::Triangle::v1</text>
</a>
</g>
</g>
<!-- Node7&#45;&gt;Node8 -->
<g id="edge7" class="edge">
<title>Node7&#45;&gt;Node8</title>
<path fill="none" stroke="midnightblue" d="M272.13,-853.01C291.21,-859.55 314.11,-867.07 335,-873 343.72,-875.48 353.04,-877.89 362.13,-880.12"/>
<polygon fill="midnightblue" stroke="midnightblue" points="361.33,-883.52 371.87,-882.46 362.96,-876.72 361.33,-883.52"/>
</g>
<!-- Node10 -->
<g id="node10" class="node">
<title>Node10</title>
<g id="a_node10"><a xlink:href="../../d8/d6e/class_t___m_e_s_h_1_1_triangle.html#a1bf6a231440a3c73a931c1cfccfee574" target="_top" xlink:title="Second vertex.">
<polygon fill="white" stroke="black" points="359.5,-844.5 359.5,-863.5 473.5,-863.5 473.5,-844.5 359.5,-844.5"/>
<text text-anchor="middle" x="416.5" y="-851.5" font-family="Helvetica,sans-Serif" font-size="10.00">T_MESH::Triangle::v2</text>
</a>
</g>
</g>
<!-- Node7&#45;&gt;Node10 -->
<g id="edge9" class="edge">
<title>Node7&#45;&gt;Node10</title>
<path fill="none" stroke="midnightblue" d="M299.07,-843.96C315.54,-845.38 333.07,-846.89 349.39,-848.3"/>
<polygon fill="midnightblue" stroke="midnightblue" points="349.12,-851.79 359.38,-849.16 349.72,-844.81 349.12,-851.79"/>
</g>
<!-- Node11 -->
<g id="node11" class="node">
<title>Node11</title>
<g id="a_node11"><a xlink:href="../../d8/d6e/class_t___m_e_s_h_1_1_triangle.html#a0c4c2a2ba6b0c975aa3d260f00785e8f" target="_top" xlink:title="Third vertex.">
<polygon fill="white" stroke="black" points="359.5,-806.5 359.5,-825.5 473.5,-825.5 473.5,-806.5 359.5,-806.5"/>
<text text-anchor="middle" x="416.5" y="-813.5" font-family="Helvetica,sans-Serif" font-size="10.00">T_MESH::Triangle::v3</text>
</a>
</g>
</g>
<!-- Node7&#45;&gt;Node11 -->
<g id="edge11" class="edge">
<title>Node7&#45;&gt;Node11</title>
<path fill="none" stroke="midnightblue" d="M299.07,-829.81C315.54,-827.86 333.07,-825.78 349.39,-823.84"/>
<polygon fill="midnightblue" stroke="midnightblue" points="349.87,-827.31 359.38,-822.66 349.04,-820.36 349.87,-827.31"/>
</g>
<!-- Node9 -->
<g id="node9" class="node">
<title>Node9</title>
<g id="a_node9"><a xlink:href="../../da/da2/class_t___m_e_s_h_1_1_edge.html#a560eca8895471f987bd3228b13c40052" target="_top" xlink:title="Vertex shared with edge &#39;b&#39;. NULL if this and &#39;b&#39; do not share any vertex.">
<polygon fill="white" stroke="black" points="537,-844.5 537,-863.5 694,-863.5 694,-844.5 537,-844.5"/>
<text text-anchor="middle" x="615.5" y="-851.5" font-family="Helvetica,sans-Serif" font-size="10.00">T_MESH::Edge::commonVertex</text>
</a>
</g>
</g>
<!-- Node8&#45;&gt;Node9 -->
<g id="edge8" class="edge">
<title>Node8&#45;&gt;Node9</title>
<path fill="none" stroke="midnightblue" d="M466.96,-882.46C493.65,-877.31 526.8,-870.92 554.92,-865.49"/>
<polygon fill="midnightblue" stroke="midnightblue" points="555.87,-868.87 565.02,-863.54 554.54,-862 555.87,-868.87"/>
</g>
<!-- Node10&#45;&gt;Node9 -->
<g id="edge10" class="edge">
<title>Node10&#45;&gt;Node9</title>
<path fill="none" stroke="midnightblue" d="M473.69,-854C490.21,-854 508.7,-854 526.7,-854"/>
<polygon fill="midnightblue" stroke="midnightblue" points="526.93,-857.5 536.93,-854 526.93,-850.5 526.93,-857.5"/>
</g>
<!-- Node11&#45;&gt;Node9 -->
<g id="edge12" class="edge">
<title>Node11&#45;&gt;Node9</title>
<path fill="none" stroke="midnightblue" d="M466.96,-825.54C493.65,-830.69 526.8,-837.08 554.92,-842.51"/>
<polygon fill="midnightblue" stroke="midnightblue" points="554.54,-846 565.02,-844.46 555.87,-839.13 554.54,-846"/>
</g>
<!-- Node15 -->
<g id="node15" class="node">
<title>Node15</title>
<g id="a_node15"><a xlink:href="../../d6/d27/class_t___m_e_s_h_1_1_basic___t_mesh.html#a31ae056d8614b35cf8b4ea59f6b6a008" target="_top" xlink:title="Removes all the unlinked edges from List E. Returns the number of removed edges. O(N).">
<polygon fill="white" stroke="black" points="355,-327 355,-357 478,-357 478,-327 355,-327"/>
<text text-anchor="start" x="363" y="-345" font-family="Helvetica,sans-Serif" font-size="10.00">T_MESH::Basic_TMesh</text>
<text text-anchor="middle" x="416.5" y="-334" font-family="Helvetica,sans-Serif" font-size="10.00">::removeEdges</text>
</a>
</g>
</g>
<!-- Node14&#45;&gt;Node15 -->
<g id="edge16" class="edge">
<title>Node14&#45;&gt;Node15</title>
<path fill="none" stroke="midnightblue" d="M286.92,-308.03C306.5,-313.21 328.61,-319.05 348.9,-324.41"/>
<polygon fill="midnightblue" stroke="midnightblue" points="348.13,-327.82 358.69,-326.99 349.92,-321.06 348.13,-327.82"/>
</g>
<!-- Node18 -->
<g id="node18" class="node">
<title>Node18</title>
<g id="a_node18"><a xlink:href="../../d6/d27/class_t___m_e_s_h_1_1_basic___t_mesh.html#a4e221f29cf4ddb2c64ab866fc7a7e996" target="_top" xlink:title="Removes all the unlinked triangles from List T. Returns the number of removed triangles....">
<polygon fill="white" stroke="black" points="355,-278 355,-308 478,-308 478,-278 355,-278"/>
<text text-anchor="start" x="363" y="-296" font-family="Helvetica,sans-Serif" font-size="10.00">T_MESH::Basic_TMesh</text>
<text text-anchor="middle" x="416.5" y="-285" font-family="Helvetica,sans-Serif" font-size="10.00">::removeTriangles</text>
</a>
</g>
</g>
<!-- Node14&#45;&gt;Node18 -->
<g id="edge22" class="edge">
<title>Node14&#45;&gt;Node18</title>
<path fill="none" stroke="midnightblue" d="M296.18,-293C311.89,-293 328.7,-293 344.61,-293"/>
<polygon fill="midnightblue" stroke="midnightblue" points="344.91,-296.5 354.91,-293 344.91,-289.5 344.91,-296.5"/>
</g>
<!-- Node19 -->
<g id="node19" class="node">
<title>Node19</title>
<g id="a_node19"><a xlink:href="../../d6/d27/class_t___m_e_s_h_1_1_basic___t_mesh.html#a46cd99ce46b77a7b154c0a651cf80afa" target="_top" xlink:title="Removes all the unlinked vertices from List V. Returns the number of removed vertices....">
<polygon fill="white" stroke="black" points="355,-229 355,-259 478,-259 478,-229 355,-229"/>
<text text-anchor="start" x="363" y="-247" font-family="Helvetica,sans-Serif" font-size="10.00">T_MESH::Basic_TMesh</text>
<text text-anchor="middle" x="416.5" y="-236" font-family="Helvetica,sans-Serif" font-size="10.00">::removeVertices</text>
</a>
</g>
</g>
<!-- Node14&#45;&gt;Node19 -->
<g id="edge28" class="edge">
<title>Node14&#45;&gt;Node19</title>
<path fill="none" stroke="midnightblue" d="M286.92,-277.97C306.5,-272.79 328.61,-266.95 348.9,-261.59"/>
<polygon fill="midnightblue" stroke="midnightblue" points="349.92,-264.94 358.69,-259.01 348.13,-258.18 349.92,-264.94"/>
</g>
<!-- Node15&#45;&gt;Node5 -->
<g id="edge17" class="edge">
<title>Node15&#45;&gt;Node5</title>
<path fill="none" stroke="midnightblue" d="M478.21,-343.85C501.65,-344.56 528.45,-345.38 552.05,-346.1"/>
<polygon fill="midnightblue" stroke="midnightblue" points="552.2,-349.6 562.3,-346.41 552.41,-342.61 552.2,-349.6"/>
</g>
<!-- Node15&#45;&gt;Node12 -->
<g id="edge19" class="edge">
<title>Node15&#45;&gt;Node12</title>
<path fill="none" stroke="midnightblue" d="M478.13,-330.91C485.43,-327.65 492.3,-323.44 498,-318 533.08,-284.52 497.97,-247.45 534,-215 538.76,-210.71 544.31,-207.34 550.22,-204.7"/>
<polygon fill="midnightblue" stroke="midnightblue" points="551.63,-207.91 559.76,-201.12 549.17,-201.36 551.63,-207.91"/>
</g>
<!-- Node15&#45;&gt;Node13 -->
<g id="edge20" class="edge">
<title>Node15&#45;&gt;Node13</title>
<path fill="none" stroke="midnightblue" d="M478.28,-356.72C496.14,-360.59 515.77,-364.41 534,-367 597.5,-376.04 670.2,-380.86 723.44,-383.38"/>
<polygon fill="midnightblue" stroke="midnightblue" points="723.34,-386.88 733.49,-383.84 723.66,-379.89 723.34,-386.88"/>
</g>
<!-- Node16 -->
<g id="node16" class="node">
<title>Node16</title>
<g id="a_node16"><a xlink:href="../../da/d53/class_t___m_e_s_h_1_1_node.html#ae661edb2148691ba90cfe14d73d2545b" target="_top" xlink:title="Returns the next node in the list, possibly NULL.">
<polygon fill="white" stroke="black" points="560,-300.5 560,-319.5 671,-319.5 671,-300.5 560,-300.5"/>
<text text-anchor="middle" x="615.5" y="-307.5" font-family="Helvetica,sans-Serif" font-size="10.00">T_MESH::Node::next</text>
</a>
</g>
</g>
<!-- Node15&#45;&gt;Node16 -->
<g id="edge18" class="edge">
<title>Node15&#45;&gt;Node16</title>
<path fill="none" stroke="midnightblue" d="M478.21,-332.14C500.86,-328.46 526.66,-324.27 549.66,-320.53"/>
<polygon fill="midnightblue" stroke="midnightblue" points="550.37,-323.96 559.68,-318.91 549.24,-317.05 550.37,-323.96"/>
</g>
<!-- Node15&#45;&gt;Node17 -->
<g id="edge21" class="edge">
<title>Node15&#45;&gt;Node17</title>
<path fill="none" stroke="midnightblue" d="M476.91,-326.91C484.17,-324.31 491.36,-321.35 498,-318 515.86,-309 517.84,-302.78 534,-291 553.62,-276.7 576.19,-260.76 592.43,-249.38"/>
<polygon fill="midnightblue" stroke="midnightblue" points="594.56,-252.17 600.74,-243.57 590.54,-246.43 594.56,-252.17"/>
</g>
<!-- Node18&#45;&gt;Node5 -->
<g id="edge23" class="edge">
<title>Node18&#45;&gt;Node5</title>
<path fill="none" stroke="midnightblue" d="M466.04,-308.08C496.41,-317.5 530.45,-328.03 534,-329 542.95,-331.44 552.52,-333.85 561.81,-336.11"/>
<polygon fill="midnightblue" stroke="midnightblue" points="561.21,-339.56 571.75,-338.48 562.84,-332.75 561.21,-339.56"/>
</g>
<!-- Node18&#45;&gt;Node12 -->
<g id="edge25" class="edge">
<title>Node18&#45;&gt;Node12</title>
<path fill="none" stroke="midnightblue" d="M478.18,-279.98C485.22,-277.03 492.02,-273.42 498,-269 521.2,-251.86 510.31,-231.46 534,-215 538.91,-211.59 544.35,-208.78 550.03,-206.48"/>
<polygon fill="midnightblue" stroke="midnightblue" points="551.47,-209.68 559.73,-203.05 549.14,-203.08 551.47,-209.68"/>
</g>
<!-- Node18&#45;&gt;Node13 -->
<g id="edge26" class="edge">
<title>Node18&#45;&gt;Node13</title>
<path fill="none" stroke="midnightblue" d="M478.19,-279.95C536.45,-270.29 625.85,-263.1 697,-291 736.48,-306.48 769.84,-345.11 787.02,-368.06"/>
<polygon fill="midnightblue" stroke="midnightblue" points="784.28,-370.24 792.99,-376.28 789.95,-366.13 784.28,-370.24"/>
</g>
<!-- Node18&#45;&gt;Node16 -->
<g id="edge24" class="edge">
<title>Node18&#45;&gt;Node16</title>
<path fill="none" stroke="midnightblue" d="M478.21,-298.24C500.86,-300.19 526.66,-302.42 549.66,-304.41"/>
<polygon fill="midnightblue" stroke="midnightblue" points="549.41,-307.9 559.68,-305.27 550.01,-300.92 549.41,-307.9"/>
</g>
<!-- Node18&#45;&gt;Node17 -->
<g id="edge27" class="edge">
<title>Node18&#45;&gt;Node17</title>
<path fill="none" stroke="midnightblue" d="M468.19,-277.95C478.08,-274.99 488.37,-271.91 498,-269 514.02,-264.17 517.98,-262.83 534,-258 546.56,-254.21 560.23,-250.12 572.68,-246.41"/>
<polygon fill="midnightblue" stroke="midnightblue" points="573.78,-249.73 582.36,-243.53 571.78,-243.03 573.78,-249.73"/>
</g>
<!-- Node19&#45;&gt;Node5 -->
<g id="edge29" class="edge">
<title>Node19&#45;&gt;Node5</title>
<path fill="none" stroke="midnightblue" d="M478.4,-257.55C485.4,-260.62 492.13,-264.39 498,-269 522.46,-288.21 508.89,-310.65 534,-329 539.61,-333.1 545.97,-336.33 552.6,-338.87"/>
<polygon fill="midnightblue" stroke="midnightblue" points="551.87,-342.31 562.46,-342.12 554.06,-335.66 551.87,-342.31"/>
</g>
<!-- Node19&#45;&gt;Node12 -->
<g id="edge31" class="edge">
<title>Node19&#45;&gt;Node12</title>
<path fill="none" stroke="midnightblue" d="M477.33,-228.96C495.52,-224.43 515.57,-219.47 534,-215 543.53,-212.69 553.7,-210.26 563.5,-207.94"/>
<polygon fill="midnightblue" stroke="midnightblue" points="564.6,-211.28 573.52,-205.57 562.99,-204.46 564.6,-211.28"/>
</g>
<!-- Node19&#45;&gt;Node13 -->
<g id="edge32" class="edge">
<title>Node19&#45;&gt;Node13</title>
<path fill="none" stroke="midnightblue" d="M436.3,-228.98C458.25,-212.5 496.35,-187.05 534,-177 603.99,-158.31 635.52,-138.68 697,-177 765.46,-219.68 789.48,-322.88 796.74,-366.27"/>
<polygon fill="midnightblue" stroke="midnightblue" points="793.28,-366.81 798.27,-376.16 800.2,-365.74 793.28,-366.81"/>
</g>
<!-- Node19&#45;&gt;Node16 -->
<g id="edge30" class="edge">
<title>Node19&#45;&gt;Node16</title>
<path fill="none" stroke="midnightblue" d="M466.98,-259.05C477.25,-262.26 488,-265.69 498,-269 525.13,-277.98 555.59,-288.72 578.55,-296.96"/>
<polygon fill="midnightblue" stroke="midnightblue" points="577.63,-300.35 588.22,-300.44 580,-293.76 577.63,-300.35"/>
</g>
<!-- Node19&#45;&gt;Node17 -->
<g id="edge33" class="edge">
<title>Node19&#45;&gt;Node17</title>
<path fill="none" stroke="midnightblue" d="M478.21,-240.92C503.04,-239.66 531.65,-238.21 556.22,-236.96"/>
<polygon fill="midnightblue" stroke="midnightblue" points="556.67,-240.44 566.48,-236.44 556.32,-233.45 556.67,-240.44"/>
</g>
<!-- Node21 -->
<g id="node21" class="node">
<title>Node21</title>
<g id="a_node21"><a xlink:href="../../da/da2/class_t___m_e_s_h_1_1_edge.html#a295cf6f1ac996ea5e760c2bbd590c513" target="_top" xlink:title="Incident triangle opposite to &#39;t&#39;. NULL if &#39;t&#39; is not incident to the edge.">
<polygon fill="white" stroke="black" points="335,-38.5 335,-57.5 498,-57.5 498,-38.5 335,-38.5"/>
<text text-anchor="middle" x="416.5" y="-45.5" font-family="Helvetica,sans-Serif" font-size="10.00">T_MESH::Edge::oppositeTriangle</text>
</a>
</g>
</g>
<!-- Node20&#45;&gt;Node21 -->
<g id="edge35" class="edge">
<title>Node20&#45;&gt;Node21</title>
<path fill="none" stroke="midnightblue" d="M276.81,-76.41C301.84,-71.28 332.84,-64.93 359.18,-59.54"/>
<polygon fill="midnightblue" stroke="midnightblue" points="359.93,-62.96 369.03,-57.52 358.53,-56.1 359.93,-62.96"/>
</g>
<!-- Node22&#45;&gt;Node21 -->
<g id="edge37" class="edge">
<title>Node22&#45;&gt;Node21</title>
<path fill="none" stroke="midnightblue" d="M285.15,-48C297.58,-48 311.09,-48 324.55,-48"/>
<polygon fill="midnightblue" stroke="midnightblue" points="324.81,-51.5 334.81,-48 324.81,-44.5 324.81,-51.5"/>
</g>
<!-- Node23&#45;&gt;Node21 -->
<g id="edge39" class="edge">
<title>Node23&#45;&gt;Node21</title>
<path fill="none" stroke="midnightblue" d="M276.81,-19.59C301.84,-24.72 332.84,-31.07 359.18,-36.46"/>
<polygon fill="midnightblue" stroke="midnightblue" points="358.53,-39.9 369.03,-38.48 359.93,-33.04 358.53,-39.9"/>
</g>
<!-- Node24&#45;&gt;Node2 -->
<g id="edge42" class="edge">
<title>Node24&#45;&gt;Node2</title>
<path fill="none" stroke="midnightblue" d="M290.76,-675.2C305.25,-677.82 320.67,-680.55 335,-683 405.72,-695.09 486.68,-708.03 543.19,-716.91"/>
<polygon fill="midnightblue" stroke="midnightblue" points="542.68,-720.37 553.1,-718.47 543.77,-713.46 542.68,-720.37"/>
</g>
<!-- Node24&#45;&gt;Node8 -->
<g id="edge52" class="edge">
<title>Node24&#45;&gt;Node8</title>
<path fill="none" stroke="midnightblue" d="M236.74,-679.22C257.19,-725.08 318.11,-859.66 335,-873 339.44,-876.5 344.41,-879.38 349.66,-881.74"/>
<polygon fill="midnightblue" stroke="midnightblue" points="348.74,-885.13 359.33,-885.45 351.25,-878.6 348.74,-885.13"/>
</g>
<!-- Node24&#45;&gt;Node10 -->
<g id="edge53" class="edge">
<title>Node24&#45;&gt;Node10</title>
<path fill="none" stroke="midnightblue" d="M234.77,-679.11C246.21,-712.77 278.54,-794.18 335,-835 339.51,-838.26 344.5,-840.97 349.72,-843.22"/>
<polygon fill="midnightblue" stroke="midnightblue" points="348.72,-846.58 359.31,-846.79 351.16,-840.02 348.72,-846.58"/>
</g>
<!-- Node24&#45;&gt;Node11 -->
<g id="edge54" class="edge">
<title>Node24&#45;&gt;Node11</title>
<path fill="none" stroke="midnightblue" d="M245.49,-679.09C265.53,-698.37 301.82,-732.4 335,-759 353.71,-774 376.05,-789.65 392.44,-800.75"/>
<polygon fill="midnightblue" stroke="midnightblue" points="390.62,-803.74 400.87,-806.41 394.52,-797.93 390.62,-803.74"/>
</g>
<!-- Node25 -->
<g id="node25" class="node">
<title>Node25</title>
<g id="a_node25"><a xlink:href="../../da/da2/class_t___m_e_s_h_1_1_edge.html#a7dc1e391013579708d070b01478d3159" target="_top" xlink:title="TRUE iff edge is isolated (i.e., both the two incident triangles are NULL).">
<polygon fill="white" stroke="black" points="349.5,-654.5 349.5,-673.5 483.5,-673.5 483.5,-654.5 349.5,-654.5"/>
<text text-anchor="middle" x="416.5" y="-661.5" font-family="Helvetica,sans-Serif" font-size="10.00">T_MESH::Edge::isIsolated</text>
</a>
</g>
</g>
<!-- Node24&#45;&gt;Node25 -->
<g id="edge43" class="edge">
<title>Node24&#45;&gt;Node25</title>
<path fill="none" stroke="midnightblue" d="M290.74,-664C306.08,-664 322.76,-664 338.77,-664"/>
<polygon fill="midnightblue" stroke="midnightblue" points="339.18,-667.5 349.18,-664 339.18,-660.5 339.18,-667.5"/>
</g>
<!-- Node26 -->
<g id="node26" class="node">
<title>Node26</title>
<g id="a_node26"><a xlink:href="../../da/da2/class_t___m_e_s_h_1_1_edge.html#a0f2457674237bd05c42d68b023502742" target="_top" xlink:title="TRUE iff edge is on the boundary (i.e., one of the two incident triangles is NULL).">
<polygon fill="white" stroke="black" points="340,-616.5 340,-635.5 493,-635.5 493,-616.5 340,-616.5"/>
<text text-anchor="middle" x="416.5" y="-623.5" font-family="Helvetica,sans-Serif" font-size="10.00">T_MESH::Edge::isOnBoundary</text>
</a>
</g>
</g>
<!-- Node24&#45;&gt;Node26 -->
<g id="edge44" class="edge">
<title>Node24&#45;&gt;Node26</title>
<path fill="none" stroke="midnightblue" d="M290.74,-651.56C312.72,-647.05 337.44,-641.99 359.04,-637.57"/>
<polygon fill="midnightblue" stroke="midnightblue" points="359.95,-640.95 369.05,-635.52 358.55,-634.09 359.95,-640.95"/>
</g>
<!-- Node27 -->
<g id="node27" class="node">
<title>Node27</title>
<g id="a_node27"><a xlink:href="../../d5/d7f/class_t___m_e_s_h_1_1_vertex.html#ac6001e2789a05af164867f6c1dd934f9" target="_top" xlink:title="TRUE iff vertex is on boundary.">
<polygon fill="white" stroke="black" points="337.5,-540.5 337.5,-559.5 495.5,-559.5 495.5,-540.5 337.5,-540.5"/>
<text text-anchor="middle" x="416.5" y="-547.5" font-family="Helvetica,sans-Serif" font-size="10.00">T_MESH::Vertex::isOnBoundary</text>
</a>
</g>
</g>
<!-- Node24&#45;&gt;Node27 -->
<g id="edge45" class="edge">
<title>Node24&#45;&gt;Node27</title>
<path fill="none" stroke="midnightblue" d="M242.21,-648.94C260.23,-627.75 296.04,-589.46 335,-569 339.49,-566.64 344.28,-564.57 349.19,-562.75"/>
<polygon fill="midnightblue" stroke="midnightblue" points="350.38,-566.05 358.76,-559.57 348.16,-559.41 350.38,-566.05"/>
</g>
<!-- Node32 -->
<g id="node32" class="node">
<title>Node32</title>
<g id="a_node32"><a xlink:href="../../d6/d27/class_t___m_e_s_h_1_1_basic___t_mesh.html#a8cbf313f4e9cab9dab1b026b45dd1c8e" target="_top" xlink:title="AMF_ADD 1.1&gt;">
<polygon fill="white" stroke="black" points="355,-491 355,-521 478,-521 478,-491 355,-491"/>
<text text-anchor="start" x="363" y="-509" font-family="Helvetica,sans-Serif" font-size="10.00">T_MESH::Basic_TMesh</text>
<text text-anchor="middle" x="416.5" y="-498" font-family="Helvetica,sans-Serif" font-size="10.00">::newVertex</text>
</a>
</g>
</g>
<!-- Node24&#45;&gt;Node32 -->
<g id="edge50" class="edge">
<title>Node24&#45;&gt;Node32</title>
<path fill="none" stroke="midnightblue" d="M237.91,-648.78C253.03,-621.19 288.68,-562.81 335,-531 338.3,-528.73 341.81,-526.67 345.45,-524.78"/>
<polygon fill="midnightblue" stroke="midnightblue" points="347.14,-527.86 354.73,-520.46 344.19,-521.51 347.14,-527.86"/>
</g>
<!-- Node33 -->
<g id="node33" class="node">
<title>Node33</title>
<g id="a_node33"><a xlink:href="../../da/da2/class_t___m_e_s_h_1_1_edge.html#a96d7a013a37e724352108c9fac25bbf5" target="_top" xlink:title="Replace incident triangle &#39;a&#39; with &#39;b&#39; and return TRUE. If &#39;a&#39; is not incident to the edge return FAL...">
<polygon fill="white" stroke="black" points="337.5,-730.5 337.5,-749.5 495.5,-749.5 495.5,-730.5 337.5,-730.5"/>
<text text-anchor="middle" x="416.5" y="-737.5" font-family="Helvetica,sans-Serif" font-size="10.00">T_MESH::Edge::replaceTriangle</text>
</a>
</g>
</g>
<!-- Node24&#45;&gt;Node33 -->
<g id="edge51" class="edge">
<title>Node24&#45;&gt;Node33</title>
<path fill="none" stroke="midnightblue" d="M257.49,-679.23C278.34,-690.37 307.93,-705.35 335,-716 345.81,-720.25 357.69,-724.18 368.92,-727.58"/>
<polygon fill="midnightblue" stroke="midnightblue" points="368.01,-730.96 378.59,-730.42 369.98,-724.24 368.01,-730.96"/>
</g>
<!-- Node34 -->
<g id="node34" class="node">
<title>Node34</title>
<g id="a_node34"><a xlink:href="../../d5/d7f/class_t___m_e_s_h_1_1_vertex.html#a66b49df1416ddcee6be0e1abe3aadda9" target="_top" xlink:title="List of incident edges.">
<polygon fill="white" stroke="black" points="361.5,-578.5 361.5,-597.5 471.5,-597.5 471.5,-578.5 361.5,-578.5"/>
<text text-anchor="middle" x="416.5" y="-585.5" font-family="Helvetica,sans-Serif" font-size="10.00">T_MESH::Vertex::VE</text>
</a>
</g>
</g>
<!-- Node24&#45;&gt;Node34 -->
<g id="edge55" class="edge">
<title>Node24&#45;&gt;Node34</title>
<path fill="none" stroke="midnightblue" d="M253.32,-648.99C274.05,-636.23 305.54,-618.24 335,-607 341.73,-604.43 348.92,-602.14 356.12,-600.11"/>
<polygon fill="midnightblue" stroke="midnightblue" points="357.15,-603.46 365.92,-597.52 355.35,-596.7 357.15,-603.46"/>
</g>
<!-- Node28 -->
<g id="node28" class="node">
<title>Node28</title>
<g id="a_node28"><a xlink:href="../../da/da2/class_t___m_e_s_h_1_1_edge.html#a96830b6d677fab318268f287682ad151" target="_top" xlink:title="Triangle on the left of the edge when looking from &#39;v&#39;. NULL if &#39;v&#39; is not a vertex of the edge.">
<polygon fill="white" stroke="black" points="545.5,-566.5 545.5,-585.5 685.5,-585.5 685.5,-566.5 545.5,-566.5"/>
<text text-anchor="middle" x="615.5" y="-573.5" font-family="Helvetica,sans-Serif" font-size="10.00">T_MESH::Edge::leftTriangle</text>
</a>
</g>
</g>
<!-- Node27&#45;&gt;Node28 -->
<g id="edge46" class="edge">
<title>Node27&#45;&gt;Node28</title>
<path fill="none" stroke="midnightblue" d="M489.74,-559.53C504.46,-561.48 520.02,-563.53 534.98,-565.51"/>
<polygon fill="midnightblue" stroke="midnightblue" points="534.85,-569.02 545.22,-566.86 535.77,-562.08 534.85,-569.02"/>
</g>
<!-- Node29 -->
<g id="node29" class="node">
<title>Node29</title>
<g id="a_node29"><a xlink:href="../../d8/d6e/class_t___m_e_s_h_1_1_triangle.html#a77cc688b97fd6501b5dca8385fce4137" target="_top" xlink:title="Triangle&#39;s edge opposite to &#39;v&#39;. NULL if &#39;v&#39; is not a vertex of the triangle.">
<polygon fill="white" stroke="black" points="534,-528.5 534,-547.5 697,-547.5 697,-528.5 534,-528.5"/>
<text text-anchor="middle" x="615.5" y="-535.5" font-family="Helvetica,sans-Serif" font-size="10.00">T_MESH::Triangle::oppositeEdge</text>
</a>
</g>
</g>
<!-- Node27&#45;&gt;Node29 -->
<g id="edge47" class="edge">
<title>Node27&#45;&gt;Node29</title>
<path fill="none" stroke="midnightblue" d="M495.64,-545.24C504.87,-544.68 514.35,-544.1 523.74,-543.53"/>
<polygon fill="midnightblue" stroke="midnightblue" points="524.1,-547.01 533.87,-542.91 523.67,-540.03 524.1,-547.01"/>
</g>
<!-- Node31 -->
<g id="node31" class="node">
<title>Node31</title>
<g id="a_node31"><a xlink:href="../../da/da2/class_t___m_e_s_h_1_1_edge.html#aef981891343c94489f00b060bd654b6c" target="_top" xlink:title="Vertex opposite to &#39;v&#39;. NULL if &#39;v&#39; is not a vertex of the edge.">
<polygon fill="white" stroke="black" points="537.5,-490.5 537.5,-509.5 693.5,-509.5 693.5,-490.5 537.5,-490.5"/>
<text text-anchor="middle" x="615.5" y="-497.5" font-family="Helvetica,sans-Serif" font-size="10.00">T_MESH::Edge::oppositeVertex</text>
</a>
</g>
</g>
<!-- Node27&#45;&gt;Node31 -->
<g id="edge49" class="edge">
<title>Node27&#45;&gt;Node31</title>
<path fill="none" stroke="midnightblue" d="M461.13,-540.46C473.14,-537.63 486.12,-534.37 498,-531 514.22,-526.39 517.78,-523.61 534,-519 542.72,-516.52 552.04,-514.11 561.13,-511.88"/>
<polygon fill="midnightblue" stroke="midnightblue" points="561.96,-515.28 570.87,-509.54 560.33,-508.48 561.96,-515.28"/>
</g>
<!-- Node30 -->
<g id="node30" class="node">
<title>Node30</title>
<g id="a_node30"><a xlink:href="../../da/da2/class_t___m_e_s_h_1_1_edge.html#a7d7329ff24b7b6eb2eceee39711dd650" target="_top" xlink:title="TRUE iff &#39;v&#39; is an end&#45;point of the edge.">
<polygon fill="white" stroke="black" points="733,-528.5 733,-547.5 868,-547.5 868,-528.5 733,-528.5"/>
<text text-anchor="middle" x="800.5" y="-535.5" font-family="Helvetica,sans-Serif" font-size="10.00">T_MESH::Edge::hasVertex</text>
</a>
</g>
</g>
<!-- Node29&#45;&gt;Node30 -->
<g id="edge48" class="edge">
<title>Node29&#45;&gt;Node30</title>
<path fill="none" stroke="midnightblue" d="M697.03,-538C705.55,-538 714.2,-538 722.68,-538"/>
<polygon fill="midnightblue" stroke="midnightblue" points="722.92,-541.5 732.92,-538 722.92,-534.5 722.92,-541.5"/>
</g>
<!-- Node34&#45;&gt;Node2 -->
<g id="edge56" class="edge">
<title>Node34&#45;&gt;Node2</title>
<path fill="none" stroke="midnightblue" d="M471.81,-593.01C481.38,-595.95 490.63,-600.38 498,-607 533.77,-639.12 498.23,-676.88 534,-709 535.74,-710.56 537.58,-712 539.5,-713.32"/>
<polygon fill="midnightblue" stroke="midnightblue" points="538,-716.49 548.41,-718.44 541.48,-710.42 538,-716.49"/>
</g>
<!-- Node34&#45;&gt;Node6 -->
<g id="edge59" class="edge">
<title>Node34&#45;&gt;Node6</title>
<path fill="none" stroke="midnightblue" d="M471.55,-582.7C481.15,-579.78 490.47,-575.44 498,-569 530.13,-541.55 501.87,-508.45 534,-481 538.06,-477.53 542.63,-474.67 547.49,-472.31"/>
<polygon fill="midnightblue" stroke="midnightblue" points="549.2,-475.4 557.12,-468.37 546.54,-468.92 549.2,-475.4"/>
</g>
<!-- Node34&#45;&gt;Node28 -->
<g id="edge58" class="edge">
<title>Node34&#45;&gt;Node28</title>
<path fill="none" stroke="midnightblue" d="M471.59,-584.71C491.26,-583.51 513.91,-582.13 535.3,-580.82"/>
<polygon fill="midnightblue" stroke="midnightblue" points="535.58,-584.31 545.35,-580.21 535.16,-577.33 535.58,-584.31"/>
</g>
<!-- Node34&#45;&gt;Node29 -->
<g id="edge60" class="edge">
<title>Node34&#45;&gt;Node29</title>
<path fill="none" stroke="midnightblue" d="M461.13,-578.46C473.14,-575.63 486.12,-572.37 498,-569 514.22,-564.39 517.78,-561.61 534,-557 542.72,-554.52 552.04,-552.11 561.13,-549.88"/>
<polygon fill="midnightblue" stroke="midnightblue" points="561.96,-553.28 570.87,-547.54 560.33,-546.48 561.96,-553.28"/>
</g>
<!-- Node34&#45;&gt;Node31 -->
<g id="edge61" class="edge">
<title>Node34&#45;&gt;Node31</title>
<path fill="none" stroke="midnightblue" d="M471.69,-580.84C480.95,-578.08 490.12,-574.27 498,-569 520.76,-553.78 511.24,-534.22 534,-519 537.11,-516.92 540.42,-515.07 543.85,-513.42"/>
<polygon fill="midnightblue" stroke="midnightblue" points="545.32,-516.6 553.19,-509.51 542.62,-510.14 545.32,-516.6"/>
</g>
<!-- Node35 -->
<g id="node35" class="node">
<title>Node35</title>
<g id="a_node35"><a xlink:href="../../d3/d04/class_t___m_e_s_h_1_1_list.html#a1b14a2838ee3745d5fb413f9e7ecc214" target="_top" xlink:title="Appends a new node storing &#39;d&#39; to the tail. &#160;&#160;O(1).">
<polygon fill="white" stroke="black" points="550,-642.5 550,-661.5 681,-661.5 681,-642.5 550,-642.5"/>
<text text-anchor="middle" x="615.5" y="-649.5" font-family="Helvetica,sans-Serif" font-size="10.00">T_MESH::List::appendTail</text>
</a>
</g>
</g>
<!-- Node34&#45;&gt;Node35 -->
<g id="edge57" class="edge">
<title>Node34&#45;&gt;Node35</title>
<path fill="none" stroke="midnightblue" d="M471.32,-597.59C480.43,-600.08 489.64,-603.18 498,-607 515.95,-615.2 516.05,-624.8 534,-633 539.35,-635.45 545.06,-637.6 550.86,-639.48"/>
<polygon fill="midnightblue" stroke="midnightblue" points="550.1,-642.91 560.68,-642.41 552.1,-636.2 550.1,-642.91"/>
</g>
<!-- Node36 -->
<g id="node36" class="node">
<title>Node36</title>
<g id="a_node36"><a xlink:href="../../d3/d04/class_t___m_e_s_h_1_1_list.html#a9701d1b3769b92b7d2a7ed6da895a863" target="_top" xlink:title="Deletes and removes the first node. Returns its data. &#160;&#160;O(1).">
<polygon fill="white" stroke="black" points="553.5,-604.5 553.5,-623.5 677.5,-623.5 677.5,-604.5 553.5,-604.5"/>
<text text-anchor="middle" x="615.5" y="-611.5" font-family="Helvetica,sans-Serif" font-size="10.00">T_MESH::List::popHead</text>
</a>
</g>
</g>
<!-- Node34&#45;&gt;Node36 -->
<g id="edge62" class="edge">
<title>Node34&#45;&gt;Node36</title>
<path fill="none" stroke="midnightblue" d="M471.59,-595.14C493.72,-598.06 519.63,-601.48 543.26,-604.6"/>
<polygon fill="midnightblue" stroke="midnightblue" points="542.86,-608.08 553.23,-605.91 543.78,-601.14 542.86,-608.08"/>
</g>
<!-- Node37 -->
<g id="node37" class="node">
<title>Node37</title>
<g id="a_node37"><a xlink:href="../../da/da2/class_t___m_e_s_h_1_1_edge.html#aa9788a51d590116555c8a062e253a197" target="_top" xlink:title="Triangle on the right of the edge when looking from &#39;v&#39;. NULL if &#39;v&#39; is not a vertex of the edge.">
<polygon fill="white" stroke="black" points="543,-680.5 543,-699.5 688,-699.5 688,-680.5 543,-680.5"/>
<text text-anchor="middle" x="615.5" y="-687.5" font-family="Helvetica,sans-Serif" font-size="10.00">T_MESH::Edge::rightTriangle</text>
</a>
</g>
</g>
<!-- Node34&#45;&gt;Node37 -->
<g id="edge64" class="edge">
<title>Node34&#45;&gt;Node37</title>
<path fill="none" stroke="midnightblue" d="M471.77,-594.32C481.13,-597.16 490.31,-601.22 498,-607 524.08,-626.62 507.92,-651.38 534,-671 536.5,-672.88 539.16,-674.58 541.93,-676.12"/>
<polygon fill="midnightblue" stroke="midnightblue" points="540.58,-679.35 551.11,-680.47 543.58,-673.02 540.58,-679.35"/>
</g>
<!-- Node36&#45;&gt;Node13 -->
<g id="edge63" class="edge">
<title>Node36&#45;&gt;Node13</title>
<path fill="none" stroke="midnightblue" d="M677.73,-605.82C684.69,-603.13 691.31,-599.61 697,-595 726.06,-571.5 716.64,-552.61 733,-519 752.95,-478.02 777.01,-430.3 790.03,-404.63"/>
<polygon fill="midnightblue" stroke="midnightblue" points="793.18,-406.15 794.59,-395.64 786.94,-402.98 793.18,-406.15"/>
</g>
</g>
</svg>
