<?xml version="1.0" encoding="UTF-8" standalone="no"?>
<!DOCTYPE svg PUBLIC "-//W3C//DTD SVG 1.1//EN"
 "http://www.w3.org/Graphics/SVG/1.1/DTD/svg11.dtd">
<!-- Generated by graphviz version 2.44.1 (0)
 -->
<!-- Title: T_MESH::mc_grid::purgeList Pages: 1 -->
<svg width="321pt" height="218pt"
 viewBox="0.00 0.00 321.00 218.00" xmlns="http://www.w3.org/2000/svg" xmlns:xlink="http://www.w3.org/1999/xlink">
<g id="graph0" class="graph" transform="scale(1 1) rotate(0) translate(4 214)">
<title>T_MESH::mc_grid::purgeList</title>
<polygon fill="white" stroke="transparent" points="-4,4 -4,-214 317,-214 317,4 -4,4"/>
<!-- Node1 -->
<g id="node1" class="node">
<title>Node1</title>
<g id="a_node1"><a xlink:title=" ">
<polygon fill="#bfbfbf" stroke="black" points="0,-95.5 0,-114.5 143,-114.5 143,-95.5 0,-95.5"/>
<text text-anchor="middle" x="71.5" y="-102.5" font-family="Helvetica,sans-Serif" font-size="10.00">T_MESH::mc_grid::purgeList</text>
</a>
</g>
</g>
<!-- Node2 -->
<g id="node2" class="node">
<title>Node2</title>
<g id="a_node2"><a xlink:href="../../d3/d04/class_t___m_e_s_h_1_1_list.html#af3baa55cf02bd943635012a489d6c33a" target="_top" xlink:title="Gets the first node, NULL if empty. &#160;&#160;O(1).">
<polygon fill="white" stroke="black" points="193,-190.5 193,-209.5 299,-209.5 299,-190.5 193,-190.5"/>
<text text-anchor="middle" x="246" y="-197.5" font-family="Helvetica,sans-Serif" font-size="10.00">T_MESH::List::head</text>
</a>
</g>
</g>
<!-- Node1&#45;&gt;Node2 -->
<g id="edge1" class="edge">
<title>Node1&#45;&gt;Node2</title>
<path fill="none" stroke="midnightblue" d="M83.2,-114.56C101.56,-130.49 140.75,-162.52 179,-181 183.71,-183.28 188.75,-185.33 193.85,-187.17"/>
<polygon fill="midnightblue" stroke="midnightblue" points="193.11,-190.61 203.71,-190.45 195.32,-183.97 193.11,-190.61"/>
</g>
<!-- Node3 -->
<g id="node3" class="node">
<title>Node3</title>
<g id="a_node3"><a xlink:href="../../da/d53/class_t___m_e_s_h_1_1_node.html#ae661edb2148691ba90cfe14d73d2545b" target="_top" xlink:title="Returns the next node in the list, possibly NULL.">
<polygon fill="white" stroke="black" points="190.5,-152.5 190.5,-171.5 301.5,-171.5 301.5,-152.5 190.5,-152.5"/>
<text text-anchor="middle" x="246" y="-159.5" font-family="Helvetica,sans-Serif" font-size="10.00">T_MESH::Node::next</text>
</a>
</g>
</g>
<!-- Node1&#45;&gt;Node3 -->
<g id="edge2" class="edge">
<title>Node1&#45;&gt;Node3</title>
<path fill="none" stroke="midnightblue" d="M97.74,-114.51C119.22,-122.48 150.97,-133.97 179,-143 185.94,-145.24 193.34,-147.49 200.57,-149.62"/>
<polygon fill="midnightblue" stroke="midnightblue" points="199.7,-153.01 210.28,-152.45 201.66,-146.29 199.7,-153.01"/>
</g>
<!-- Node4 -->
<g id="node4" class="node">
<title>Node4</title>
<g id="a_node4"><a xlink:href="../../d3/d04/class_t___m_e_s_h_1_1_list.html#af0e61026072f65c9ba882df526acfd2e" target="_top" xlink:title="Gets the number of elements. &#160;&#160;O(1).">
<polygon fill="white" stroke="black" points="188,-114.5 188,-133.5 304,-133.5 304,-114.5 188,-114.5"/>
<text text-anchor="middle" x="246" y="-121.5" font-family="Helvetica,sans-Serif" font-size="10.00">T_MESH::List::numels</text>
</a>
</g>
</g>
<!-- Node1&#45;&gt;Node4 -->
<g id="edge3" class="edge">
<title>Node1&#45;&gt;Node4</title>
<path fill="none" stroke="midnightblue" d="M143.16,-112.78C154.56,-114.04 166.33,-115.34 177.65,-116.58"/>
<polygon fill="midnightblue" stroke="midnightblue" points="177.57,-120.09 187.89,-117.71 178.33,-113.14 177.57,-120.09"/>
</g>
<!-- Node5 -->
<g id="node5" class="node">
<title>Node5</title>
<g id="a_node5"><a xlink:href="../../da/d53/class_t___m_e_s_h_1_1_node.html#aed5d13bba326f240b2058b5a2a28c3c3" target="_top" xlink:title="Returns the previous node in the list, possibly NULL.">
<polygon fill="white" stroke="black" points="190.5,-76.5 190.5,-95.5 301.5,-95.5 301.5,-76.5 190.5,-76.5"/>
<text text-anchor="middle" x="246" y="-83.5" font-family="Helvetica,sans-Serif" font-size="10.00">T_MESH::Node::prev</text>
</a>
</g>
</g>
<!-- Node1&#45;&gt;Node5 -->
<g id="edge4" class="edge">
<title>Node1&#45;&gt;Node5</title>
<path fill="none" stroke="midnightblue" d="M143.16,-97.22C155.44,-95.86 168.17,-94.46 180.28,-93.13"/>
<polygon fill="midnightblue" stroke="midnightblue" points="180.74,-96.6 190.29,-92.03 179.97,-89.64 180.74,-96.6"/>
</g>
<!-- Node6 -->
<g id="node6" class="node">
<title>Node6</title>
<g id="a_node6"><a xlink:href="../../d3/d04/class_t___m_e_s_h_1_1_list.html#aec091d7c66b66c92fe56f06f41f448f4" target="_top" xlink:title="Deletes and removes the node &#39;n&#39; from the list. &#160;&#160;O(1).">
<polygon fill="white" stroke="black" points="179,-38.5 179,-57.5 313,-57.5 313,-38.5 179,-38.5"/>
<text text-anchor="middle" x="246" y="-45.5" font-family="Helvetica,sans-Serif" font-size="10.00">T_MESH::List::removeCell</text>
</a>
</g>
</g>
<!-- Node1&#45;&gt;Node6 -->
<g id="edge5" class="edge">
<title>Node1&#45;&gt;Node6</title>
<path fill="none" stroke="midnightblue" d="M97.74,-95.49C119.22,-87.52 150.97,-76.03 179,-67 185.94,-64.76 193.34,-62.51 200.57,-60.38"/>
<polygon fill="midnightblue" stroke="midnightblue" points="201.66,-63.71 210.28,-57.55 199.7,-56.99 201.66,-63.71"/>
</g>
<!-- Node7 -->
<g id="node7" class="node">
<title>Node7</title>
<g id="a_node7"><a xlink:href="../../d3/d04/class_t___m_e_s_h_1_1_list.html#a700222ddbd4160a36795249926752f79" target="_top" xlink:title="Gets the last node, NULL if empty. &#160;&#160;O(1).">
<polygon fill="white" stroke="black" points="197,-0.5 197,-19.5 295,-19.5 295,-0.5 197,-0.5"/>
<text text-anchor="middle" x="246" y="-7.5" font-family="Helvetica,sans-Serif" font-size="10.00">T_MESH::List::tail</text>
</a>
</g>
</g>
<!-- Node1&#45;&gt;Node7 -->
<g id="edge6" class="edge">
<title>Node1&#45;&gt;Node7</title>
<path fill="none" stroke="midnightblue" d="M83.2,-95.44C101.56,-79.51 140.75,-47.48 179,-29 183.71,-26.72 188.75,-24.67 193.85,-22.83"/>
<polygon fill="midnightblue" stroke="midnightblue" points="195.32,-26.03 203.71,-19.55 193.11,-19.39 195.32,-26.03"/>
</g>
</g>
</svg>
