<?xml version="1.0" encoding="UTF-8" standalone="no"?>
<!DOCTYPE svg PUBLIC "-//W3C//DTD SVG 1.1//EN"
 "http://www.w3.org/Graphics/SVG/1.1/DTD/svg11.dtd">
<!-- Generated by graphviz version 2.44.1 (0)
 -->
<!-- Title: T_MESH::mc_grid::createCells Pages: 1 -->
<svg width="689pt" height="408pt"
 viewBox="0.00 0.00 689.00 408.00" xmlns="http://www.w3.org/2000/svg" xmlns:xlink="http://www.w3.org/1999/xlink">
<g id="graph0" class="graph" transform="scale(1 1) rotate(0) translate(4 404)">
<title>T_MESH::mc_grid::createCells</title>
<polygon fill="white" stroke="transparent" points="-4,4 -4,-404 685,-404 685,4 -4,4"/>
<!-- Node1 -->
<g id="node1" class="node">
<title>Node1</title>
<g id="a_node1"><a xlink:title=" ">
<polygon fill="#bfbfbf" stroke="black" points="0,-228.5 0,-247.5 153,-247.5 153,-228.5 0,-228.5"/>
<text text-anchor="middle" x="76.5" y="-235.5" font-family="Helvetica,sans-Serif" font-size="10.00">T_MESH::mc_grid::createCells</text>
</a>
</g>
</g>
<!-- Node2 -->
<g id="node2" class="node">
<title>Node2</title>
<g id="a_node2"><a xlink:href="../../d3/d04/class_t___m_e_s_h_1_1_list.html#a1b14a2838ee3745d5fb413f9e7ecc214" target="_top" xlink:title="Appends a new node storing &#39;d&#39; to the tail. &#160;&#160;O(1).">
<polygon fill="white" stroke="black" points="193.5,-380.5 193.5,-399.5 324.5,-399.5 324.5,-380.5 193.5,-380.5"/>
<text text-anchor="middle" x="259" y="-387.5" font-family="Helvetica,sans-Serif" font-size="10.00">T_MESH::List::appendTail</text>
</a>
</g>
</g>
<!-- Node1&#45;&gt;Node2 -->
<g id="edge1" class="edge">
<title>Node1&#45;&gt;Node2</title>
<path fill="none" stroke="midnightblue" d="M82.82,-247.76C96.79,-272.41 137.03,-337.62 189,-371 192.32,-373.13 195.87,-375.02 199.55,-376.71"/>
<polygon fill="midnightblue" stroke="midnightblue" points="198.32,-379.98 208.9,-380.47 200.93,-373.49 198.32,-379.98"/>
</g>
<!-- Node3 -->
<g id="node3" class="node">
<title>Node3</title>
<g id="a_node3"><a xlink:href="../../d4/d57/class_t___m_e_s_h_1_1mc__cell.html#aaaea5be1899f13d21241fed16e436c52" target="_top" xlink:title=" ">
<polygon fill="white" stroke="black" points="189,-342.5 189,-361.5 329,-361.5 329,-342.5 189,-342.5"/>
<text text-anchor="middle" x="259" y="-349.5" font-family="Helvetica,sans-Serif" font-size="10.00">T_MESH::mc_cell::compare</text>
</a>
</g>
</g>
<!-- Node1&#45;&gt;Node3 -->
<g id="edge2" class="edge">
<title>Node1&#45;&gt;Node3</title>
<path fill="none" stroke="midnightblue" d="M86.01,-247.66C103.42,-266.82 145.18,-309.78 189,-333 193.3,-335.28 197.9,-337.31 202.61,-339.1"/>
<polygon fill="midnightblue" stroke="midnightblue" points="201.77,-342.52 212.37,-342.48 204.06,-335.9 201.77,-342.52"/>
</g>
<!-- Node4 -->
<g id="node4" class="node">
<title>Node4</title>
<g id="a_node4"><a xlink:href="../../d3/d04/class_t___m_e_s_h_1_1_list.html#af3baa55cf02bd943635012a489d6c33a" target="_top" xlink:title="Gets the first node, NULL if empty. &#160;&#160;O(1).">
<polygon fill="white" stroke="black" points="206,-304.5 206,-323.5 312,-323.5 312,-304.5 206,-304.5"/>
<text text-anchor="middle" x="259" y="-311.5" font-family="Helvetica,sans-Serif" font-size="10.00">T_MESH::List::head</text>
</a>
</g>
</g>
<!-- Node1&#45;&gt;Node4 -->
<g id="edge3" class="edge">
<title>Node1&#45;&gt;Node4</title>
<path fill="none" stroke="midnightblue" d="M93.64,-247.58C114.9,-259.89 153.74,-281.3 189,-295 195,-297.33 201.41,-299.5 207.8,-301.47"/>
<polygon fill="midnightblue" stroke="midnightblue" points="207.2,-304.94 217.78,-304.41 209.17,-298.23 207.2,-304.94"/>
</g>
<!-- Node5 -->
<g id="node5" class="node">
<title>Node5</title>
<g id="a_node5"><a xlink:href="../../d4/d57/class_t___m_e_s_h_1_1mc__cell.html#a4ab43dcab7316540e025c8761538adf1" target="_top" xlink:title=" ">
<polygon fill="white" stroke="black" points="194,-266.5 194,-285.5 324,-285.5 324,-266.5 194,-266.5"/>
<text text-anchor="middle" x="259" y="-273.5" font-family="Helvetica,sans-Serif" font-size="10.00">T_MESH::mc_cell::merge</text>
</a>
</g>
</g>
<!-- Node1&#45;&gt;Node5 -->
<g id="edge4" class="edge">
<title>Node1&#45;&gt;Node5</title>
<path fill="none" stroke="midnightblue" d="M123.05,-247.59C147.3,-252.69 177.3,-259.01 202.86,-264.39"/>
<polygon fill="midnightblue" stroke="midnightblue" points="202.27,-267.84 212.78,-266.48 203.72,-260.99 202.27,-267.84"/>
</g>
<!-- Node6 -->
<g id="node6" class="node">
<title>Node6</title>
<g id="a_node6"><a xlink:href="../../da/d53/class_t___m_e_s_h_1_1_node.html#ae661edb2148691ba90cfe14d73d2545b" target="_top" xlink:title="Returns the next node in the list, possibly NULL.">
<polygon fill="white" stroke="black" points="203.5,-228.5 203.5,-247.5 314.5,-247.5 314.5,-228.5 203.5,-228.5"/>
<text text-anchor="middle" x="259" y="-235.5" font-family="Helvetica,sans-Serif" font-size="10.00">T_MESH::Node::next</text>
</a>
</g>
</g>
<!-- Node1&#45;&gt;Node6 -->
<g id="edge5" class="edge">
<title>Node1&#45;&gt;Node6</title>
<path fill="none" stroke="midnightblue" d="M153,-238C166.34,-238 180.12,-238 193.14,-238"/>
<polygon fill="midnightblue" stroke="midnightblue" points="193.39,-241.5 203.39,-238 193.39,-234.5 193.39,-241.5"/>
</g>
<!-- Node7 -->
<g id="node7" class="node">
<title>Node7</title>
<g id="a_node7"><a xlink:href="../../da/d53/class_t___m_e_s_h_1_1_node.html#aed5d13bba326f240b2058b5a2a28c3c3" target="_top" xlink:title="Returns the previous node in the list, possibly NULL.">
<polygon fill="white" stroke="black" points="203.5,-190.5 203.5,-209.5 314.5,-209.5 314.5,-190.5 203.5,-190.5"/>
<text text-anchor="middle" x="259" y="-197.5" font-family="Helvetica,sans-Serif" font-size="10.00">T_MESH::Node::prev</text>
</a>
</g>
</g>
<!-- Node1&#45;&gt;Node7 -->
<g id="edge6" class="edge">
<title>Node1&#45;&gt;Node7</title>
<path fill="none" stroke="midnightblue" d="M123.05,-228.41C147.3,-223.31 177.3,-216.99 202.86,-211.61"/>
<polygon fill="midnightblue" stroke="midnightblue" points="203.72,-215.01 212.78,-209.52 202.27,-208.16 203.72,-215.01"/>
</g>
<!-- Node8 -->
<g id="node8" class="node">
<title>Node8</title>
<g id="a_node8"><a xlink:href="../../d3/d04/class_t___m_e_s_h_1_1_list.html#aec091d7c66b66c92fe56f06f41f448f4" target="_top" xlink:title="Deletes and removes the node &#39;n&#39; from the list. &#160;&#160;O(1).">
<polygon fill="white" stroke="black" points="547,-95.5 547,-114.5 681,-114.5 681,-95.5 547,-95.5"/>
<text text-anchor="middle" x="614" y="-102.5" font-family="Helvetica,sans-Serif" font-size="10.00">T_MESH::List::removeCell</text>
</a>
</g>
</g>
<!-- Node1&#45;&gt;Node8 -->
<g id="edge7" class="edge">
<title>Node1&#45;&gt;Node8</title>
<path fill="none" stroke="midnightblue" d="M91.93,-228.48C112.53,-215.41 151.97,-192.25 189,-181 326.88,-139.1 370.93,-176.84 511,-143 535.78,-137.01 562.78,-126.78 582.76,-118.44"/>
<polygon fill="midnightblue" stroke="midnightblue" points="584.14,-121.66 591.97,-114.53 581.4,-115.22 584.14,-121.66"/>
</g>
<!-- Node9 -->
<g id="node9" class="node">
<title>Node9</title>
<g id="a_node9"><a xlink:href="../../d3/d04/class_t___m_e_s_h_1_1_list.html#a7c5746b86fdc294c58847a77c188391c" target="_top" xlink:title="Sorts the list using &#39;comp&#39; as comparison function for two elements. &#160;&#160;O(numels()^2).">
<polygon fill="white" stroke="black" points="208.5,-95.5 208.5,-114.5 309.5,-114.5 309.5,-95.5 208.5,-95.5"/>
<text text-anchor="middle" x="259" y="-102.5" font-family="Helvetica,sans-Serif" font-size="10.00">T_MESH::List::sort</text>
</a>
</g>
</g>
<!-- Node1&#45;&gt;Node9 -->
<g id="edge8" class="edge">
<title>Node1&#45;&gt;Node9</title>
<path fill="none" stroke="midnightblue" d="M88.54,-228.33C108.17,-211.32 150.68,-175.25 189,-148 203.11,-137.96 219.55,-127.67 232.83,-119.67"/>
<polygon fill="midnightblue" stroke="midnightblue" points="234.66,-122.66 241.46,-114.53 231.08,-116.64 234.66,-122.66"/>
</g>
<!-- Node14 -->
<g id="node14" class="node">
<title>Node14</title>
<g id="a_node14"><a xlink:href="../../d3/d04/class_t___m_e_s_h_1_1_list.html#a700222ddbd4160a36795249926752f79" target="_top" xlink:title="Gets the last node, NULL if empty. &#160;&#160;O(1).">
<polygon fill="white" stroke="black" points="210,-57.5 210,-76.5 308,-76.5 308,-57.5 210,-57.5"/>
<text text-anchor="middle" x="259" y="-64.5" font-family="Helvetica,sans-Serif" font-size="10.00">T_MESH::List::tail</text>
</a>
</g>
</g>
<!-- Node1&#45;&gt;Node14 -->
<g id="edge14" class="edge">
<title>Node1&#45;&gt;Node14</title>
<path fill="none" stroke="midnightblue" d="M81.7,-228.44C94,-201.56 132.67,-124.81 189,-86 192.51,-83.58 196.32,-81.47 200.28,-79.63"/>
<polygon fill="midnightblue" stroke="midnightblue" points="201.79,-82.79 209.75,-75.79 199.17,-76.3 201.79,-82.79"/>
</g>
<!-- Node10 -->
<g id="node10" class="node">
<title>Node10</title>
<g id="a_node10"><a xlink:href="../../d3/d04/class_t___m_e_s_h_1_1_list.html#ae601a7e17364ce83f74ffcb6c64971ca" target="_top" xlink:title="Appends a new node storing &#39;d&#39; to the head. &#160;&#160;O(1).">
<polygon fill="white" stroke="black" points="368,-114.5 368,-133.5 508,-133.5 508,-114.5 368,-114.5"/>
<text text-anchor="middle" x="438" y="-121.5" font-family="Helvetica,sans-Serif" font-size="10.00">T_MESH::List::appendHead</text>
</a>
</g>
</g>
<!-- Node9&#45;&gt;Node10 -->
<g id="edge9" class="edge">
<title>Node9&#45;&gt;Node10</title>
<path fill="none" stroke="midnightblue" d="M309.78,-110.34C324.68,-111.94 341.41,-113.74 357.71,-115.49"/>
<polygon fill="midnightblue" stroke="midnightblue" points="357.47,-118.98 367.79,-116.57 358.22,-112.02 357.47,-118.98"/>
</g>
<!-- Node11 -->
<g id="node11" class="node">
<title>Node11</title>
<g id="a_node11"><a xlink:href="../../de/df9/namespace_t___m_e_s_h.html#a5715fed89554fb33e87bb209df729ffe" target="_top" xlink:title=" ">
<polygon fill="white" stroke="black" points="394.5,-76.5 394.5,-95.5 481.5,-95.5 481.5,-76.5 394.5,-76.5"/>
<text text-anchor="middle" x="438" y="-83.5" font-family="Helvetica,sans-Serif" font-size="10.00">T_MESH::jqsort</text>
</a>
</g>
</g>
<!-- Node9&#45;&gt;Node11 -->
<g id="edge10" class="edge">
<title>Node9&#45;&gt;Node11</title>
<path fill="none" stroke="midnightblue" d="M309.78,-99.66C333.02,-97.16 360.71,-94.19 384.31,-91.66"/>
<polygon fill="midnightblue" stroke="midnightblue" points="384.92,-95.11 394.49,-90.56 384.18,-88.15 384.92,-95.11"/>
</g>
<!-- Node12 -->
<g id="node12" class="node">
<title>Node12</title>
<g id="a_node12"><a xlink:href="../../d3/d04/class_t___m_e_s_h_1_1_list.html#a1e032966857d82dbc5716b94bc4d3d3c" target="_top" xlink:title="Deletes and removes all the nodes. &#160;&#160;O(numels()).">
<polygon fill="white" stroke="black" points="365,-38.5 365,-57.5 511,-57.5 511,-38.5 365,-38.5"/>
<text text-anchor="middle" x="438" y="-45.5" font-family="Helvetica,sans-Serif" font-size="10.00">T_MESH::List::removeNodes</text>
</a>
</g>
</g>
<!-- Node9&#45;&gt;Node12 -->
<g id="edge11" class="edge">
<title>Node9&#45;&gt;Node12</title>
<path fill="none" stroke="midnightblue" d="M300.26,-95.5C309.81,-92.81 319.87,-89.61 329,-86 345.82,-79.34 348.14,-73.57 365,-67 371.23,-64.57 377.88,-62.35 384.53,-60.34"/>
<polygon fill="midnightblue" stroke="midnightblue" points="385.57,-63.69 394.23,-57.57 383.65,-56.96 385.57,-63.69"/>
</g>
<!-- Node13 -->
<g id="node13" class="node">
<title>Node13</title>
<g id="a_node13"><a xlink:href="../../d3/d04/class_t___m_e_s_h_1_1_list.html#a28c649d203d3884852862eee78b1be07" target="_top" xlink:title="Creates an array out of the list. &#160;&#160;O(numels()).">
<polygon fill="white" stroke="black" points="380,-0.5 380,-19.5 496,-19.5 496,-0.5 380,-0.5"/>
<text text-anchor="middle" x="438" y="-7.5" font-family="Helvetica,sans-Serif" font-size="10.00">T_MESH::List::toArray</text>
</a>
</g>
</g>
<!-- Node9&#45;&gt;Node13 -->
<g id="edge13" class="edge">
<title>Node9&#45;&gt;Node13</title>
<path fill="none" stroke="midnightblue" d="M309.59,-96.19C316.5,-93.62 323.21,-90.29 329,-86 353.07,-68.15 340.84,-46.72 365,-29 367.66,-27.05 370.5,-25.3 373.47,-23.73"/>
<polygon fill="midnightblue" stroke="midnightblue" points="375.02,-26.87 382.66,-19.54 372.11,-20.5 375.02,-26.87"/>
</g>
<!-- Node12&#45;&gt;Node8 -->
<g id="edge12" class="edge">
<title>Node12&#45;&gt;Node8</title>
<path fill="none" stroke="midnightblue" d="M478.06,-57.56C488.8,-60.39 500.4,-63.64 511,-67 534.27,-74.38 560.02,-83.99 579.83,-91.7"/>
<polygon fill="midnightblue" stroke="midnightblue" points="578.74,-95.03 589.32,-95.42 581.29,-88.51 578.74,-95.03"/>
</g>
</g>
</svg>
