<?xml version="1.0" encoding="UTF-8" standalone="no"?>
<!DOCTYPE svg PUBLIC "-//W3C//DTD SVG 1.1//EN"
 "http://www.w3.org/Graphics/SVG/1.1/DTD/svg11.dtd">
<!-- Generated by graphviz version 2.44.0 (0)
 -->
<!-- Title: pretty_print::delimiters&lt; T, wchar_t &gt; Pages: 1 -->
<svg width="121pt" height="215pt"
 viewBox="0.00 0.00 121.00 215.00" xmlns="http://www.w3.org/2000/svg" xmlns:xlink="http://www.w3.org/1999/xlink">
<g id="graph0" class="graph" transform="scale(1 1) rotate(0) translate(4 211)">
<title>pretty_print::delimiters&lt; T, wchar_t &gt;</title>
<polygon fill="white" stroke="transparent" points="-4,4 -4,-211 117,-211 117,4 -4,4"/>
<!-- Node1 -->
<g id="node1" class="node">
<title>Node1</title>
<g id="a_node1"><a xlink:title=" ">
<polygon fill="#bfbfbf" stroke="black" points="0,-0.5 0,-68.5 113,-68.5 113,-0.5 0,-0.5"/>
<text text-anchor="start" x="8" y="-56.5" font-family="Helvetica,sans-Serif" font-size="10.00">pretty_print::delimiters</text>
<text text-anchor="middle" x="56.5" y="-45.5" font-family="Helvetica,sans-Serif" font-size="10.00">&lt; T, wchar_t &gt;</text>
<polyline fill="none" stroke="black" points="0,-38.5 113,-38.5 "/>
<text text-anchor="middle" x="56.5" y="-26.5" font-family="Helvetica,sans-Serif" font-size="10.00"> </text>
<polyline fill="none" stroke="black" points="0,-19.5 113,-19.5 "/>
<text text-anchor="middle" x="56.5" y="-7.5" font-family="Helvetica,sans-Serif" font-size="10.00"> </text>
</a>
</g>
</g>
<!-- Node2 -->
<g id="node2" class="node">
<title>Node2</title>
<g id="a_node2"><a xlink:href="../../da/de1/structpretty__print_1_1delimiters__values.html" target="_top" xlink:title=" ">
<polygon fill="white" stroke="black" points="0,-116.5 0,-206.5 113,-206.5 113,-116.5 0,-116.5"/>
<text text-anchor="start" x="8" y="-194.5" font-family="Helvetica,sans-Serif" font-size="10.00">pretty_print::delimiters</text>
<text text-anchor="middle" x="56.5" y="-183.5" font-family="Helvetica,sans-Serif" font-size="10.00">_values&lt; wchar_t &gt;</text>
<polyline fill="none" stroke="black" points="0,-176.5 113,-176.5 "/>
<text text-anchor="start" x="8" y="-164.5" font-family="Helvetica,sans-Serif" font-size="10.00">+ prefix</text>
<text text-anchor="start" x="8" y="-153.5" font-family="Helvetica,sans-Serif" font-size="10.00">+ delimiter</text>
<text text-anchor="start" x="8" y="-142.5" font-family="Helvetica,sans-Serif" font-size="10.00">+ postfix</text>
<polyline fill="none" stroke="black" points="0,-135.5 113,-135.5 "/>
<text text-anchor="middle" x="56.5" y="-123.5" font-family="Helvetica,sans-Serif" font-size="10.00"> </text>
</a>
</g>
</g>
<!-- Node2&#45;&gt;Node1 -->
<g id="edge1" class="edge">
<title>Node2&#45;&gt;Node1</title>
<path fill="none" stroke="#404040" d="M56.5,-116.43C56.5,-104.87 56.5,-92.38 56.5,-80.76"/>
<polygon fill="none" stroke="#404040" points="56.5,-80.57 52.5,-74.57 56.5,-68.57 60.5,-74.57 56.5,-80.57"/>
<text text-anchor="middle" x="75.5" y="-90" font-family="Helvetica,sans-Serif" font-size="10.00"> +values</text>
</g>
</g>
</svg>
