<?xml version="1.0" encoding="UTF-8" standalone="no"?>
<!DOCTYPE svg PUBLIC "-//W3C//DTD SVG 1.1//EN"
 "http://www.w3.org/Graphics/SVG/1.1/DTD/svg11.dtd">
<!-- Generated by graphviz version 2.44.1 (0)
 -->
<!-- Title: ui_mainwindow.h Pages: 1 -->
<svg width="2221pt" height="84pt"
 viewBox="0.00 0.00 2220.50 84.00" xmlns="http://www.w3.org/2000/svg" xmlns:xlink="http://www.w3.org/1999/xlink">
<g id="graph0" class="graph" transform="scale(1 1) rotate(0) translate(4 80)">
<title>ui_mainwindow.h</title>
<polygon fill="white" stroke="transparent" points="-4,4 -4,-80 2216.5,-80 2216.5,4 -4,4"/>
<!-- Node1 -->
<g id="node1" class="node">
<title>Node1</title>
<g id="a_node1"><a xlink:title=" ">
<polygon fill="#bfbfbf" stroke="black" points="1038,-56.5 1038,-75.5 1129,-75.5 1129,-56.5 1038,-56.5"/>
<text text-anchor="middle" x="1083.5" y="-63.5" font-family="Helvetica,sans-Serif" font-size="10.00">ui_mainwindow.h</text>
</a>
</g>
</g>
<!-- Node2 -->
<g id="node2" class="node">
<title>Node2</title>
<g id="a_node2"><a xlink:title=" ">
<polygon fill="white" stroke="#bfbfbf" points="0,-0.5 0,-19.5 147,-19.5 147,-0.5 0,-0.5"/>
<text text-anchor="middle" x="73.5" y="-7.5" font-family="Helvetica,sans-Serif" font-size="10.00">QVTKOpenGLNativeWidget.h</text>
</a>
</g>
</g>
<!-- Node1&#45;&gt;Node2 -->
<g id="edge1" class="edge">
<title>Node1&#45;&gt;Node2</title>
<path fill="none" stroke="midnightblue" d="M1037.57,-63.76C903.61,-59.94 501.54,-46.98 157.4,-20.11"/>
<polygon fill="midnightblue" stroke="midnightblue" points="157.48,-16.6 147.24,-19.31 156.93,-23.58 157.48,-16.6"/>
</g>
<!-- Node3 -->
<g id="node3" class="node">
<title>Node3</title>
<g id="a_node3"><a xlink:title=" ">
<polygon fill="white" stroke="#bfbfbf" points="165,-0.5 165,-19.5 254,-19.5 254,-0.5 165,-0.5"/>
<text text-anchor="middle" x="209.5" y="-7.5" font-family="Helvetica,sans-Serif" font-size="10.00">QtCore/QVariant</text>
</a>
</g>
</g>
<!-- Node1&#45;&gt;Node3 -->
<g id="edge2" class="edge">
<title>Node1&#45;&gt;Node3</title>
<path fill="none" stroke="midnightblue" d="M1037.96,-64.31C914.82,-62.08 564.84,-53.16 264.48,-20.1"/>
<polygon fill="midnightblue" stroke="midnightblue" points="264.59,-16.6 254.27,-18.97 263.82,-23.55 264.59,-16.6"/>
</g>
<!-- Node4 -->
<g id="node4" class="node">
<title>Node4</title>
<g id="a_node4"><a xlink:title=" ">
<polygon fill="white" stroke="#bfbfbf" points="272,-0.5 272,-19.5 343,-19.5 343,-0.5 272,-0.5"/>
<text text-anchor="middle" x="307.5" y="-7.5" font-family="Helvetica,sans-Serif" font-size="10.00">QtGui/QIcon</text>
</a>
</g>
</g>
<!-- Node1&#45;&gt;Node4 -->
<g id="edge3" class="edge">
<title>Node1&#45;&gt;Node4</title>
<path fill="none" stroke="midnightblue" d="M1037.89,-64.42C923.93,-62.49 617.54,-54.37 353.61,-20.12"/>
<polygon fill="midnightblue" stroke="midnightblue" points="353.82,-16.61 343.45,-18.78 352.91,-23.55 353.82,-16.61"/>
</g>
<!-- Node5 -->
<g id="node5" class="node">
<title>Node5</title>
<g id="a_node5"><a xlink:title=" ">
<polygon fill="white" stroke="#bfbfbf" points="361,-0.5 361,-19.5 462,-19.5 462,-0.5 361,-0.5"/>
<text text-anchor="middle" x="411.5" y="-7.5" font-family="Helvetica,sans-Serif" font-size="10.00">QtWidgets/QAction</text>
</a>
</g>
</g>
<!-- Node1&#45;&gt;Node5 -->
<g id="edge4" class="edge">
<title>Node1&#45;&gt;Node5</title>
<path fill="none" stroke="midnightblue" d="M1037.71,-62.82C937.32,-57.78 690.1,-43.97 472.23,-19.99"/>
<polygon fill="midnightblue" stroke="midnightblue" points="472.53,-16.51 462.2,-18.88 471.76,-23.46 472.53,-16.51"/>
</g>
<!-- Node6 -->
<g id="node6" class="node">
<title>Node6</title>
<g id="a_node6"><a xlink:title=" ">
<polygon fill="white" stroke="#bfbfbf" points="480.5,-0.5 480.5,-19.5 602.5,-19.5 602.5,-0.5 480.5,-0.5"/>
<text text-anchor="middle" x="541.5" y="-7.5" font-family="Helvetica,sans-Serif" font-size="10.00">QtWidgets/QApplication</text>
</a>
</g>
</g>
<!-- Node1&#45;&gt;Node6 -->
<g id="edge5" class="edge">
<title>Node1&#45;&gt;Node6</title>
<path fill="none" stroke="midnightblue" d="M1037.88,-61.15C955.32,-54.08 775.33,-38.16 612.76,-20.11"/>
<polygon fill="midnightblue" stroke="midnightblue" points="612.9,-16.6 602.57,-18.97 612.12,-23.56 612.9,-16.6"/>
</g>
<!-- Node7 -->
<g id="node7" class="node">
<title>Node7</title>
<g id="a_node7"><a xlink:title=" ">
<polygon fill="white" stroke="#bfbfbf" points="621,-0.5 621,-19.5 722,-19.5 722,-0.5 621,-0.5"/>
<text text-anchor="middle" x="671.5" y="-7.5" font-family="Helvetica,sans-Serif" font-size="10.00">QtWidgets/QFrame</text>
</a>
</g>
</g>
<!-- Node1&#45;&gt;Node7 -->
<g id="edge6" class="edge">
<title>Node1&#45;&gt;Node7</title>
<path fill="none" stroke="midnightblue" d="M1037.89,-59.49C972.64,-51.54 848.62,-36.16 732.37,-20.09"/>
<polygon fill="midnightblue" stroke="midnightblue" points="732.61,-16.59 722.23,-18.69 731.65,-23.53 732.61,-16.59"/>
</g>
<!-- Node8 -->
<g id="node8" class="node">
<title>Node8</title>
<g id="a_node8"><a xlink:title=" ">
<polygon fill="white" stroke="#bfbfbf" points="740.5,-0.5 740.5,-19.5 868.5,-19.5 868.5,-0.5 740.5,-0.5"/>
<text text-anchor="middle" x="804.5" y="-7.5" font-family="Helvetica,sans-Serif" font-size="10.00">QtWidgets/QHBoxLayout</text>
</a>
</g>
</g>
<!-- Node1&#45;&gt;Node8 -->
<g id="edge7" class="edge">
<title>Node1&#45;&gt;Node8</title>
<path fill="none" stroke="midnightblue" d="M1039.29,-56.44C990.21,-46.94 910.99,-31.61 858.34,-21.42"/>
<polygon fill="midnightblue" stroke="midnightblue" points="858.98,-17.98 848.5,-19.52 857.65,-24.85 858.98,-17.98"/>
</g>
<!-- Node9 -->
<g id="node9" class="node">
<title>Node9</title>
<g id="a_node9"><a xlink:title=" ">
<polygon fill="white" stroke="#bfbfbf" points="886.5,-0.5 886.5,-19.5 1016.5,-19.5 1016.5,-0.5 886.5,-0.5"/>
<text text-anchor="middle" x="951.5" y="-7.5" font-family="Helvetica,sans-Serif" font-size="10.00">QtWidgets/QMainWindow</text>
</a>
</g>
</g>
<!-- Node1&#45;&gt;Node9 -->
<g id="edge8" class="edge">
<title>Node1&#45;&gt;Node9</title>
<path fill="none" stroke="midnightblue" d="M1062.58,-56.44C1040.76,-47.52 1006.35,-33.44 981.61,-23.32"/>
<polygon fill="midnightblue" stroke="midnightblue" points="982.9,-20.06 972.32,-19.52 980.25,-26.54 982.9,-20.06"/>
</g>
<!-- Node10 -->
<g id="node10" class="node">
<title>Node10</title>
<g id="a_node10"><a xlink:title=" ">
<polygon fill="white" stroke="#bfbfbf" points="1034.5,-0.5 1034.5,-19.5 1132.5,-19.5 1132.5,-0.5 1034.5,-0.5"/>
<text text-anchor="middle" x="1083.5" y="-7.5" font-family="Helvetica,sans-Serif" font-size="10.00">QtWidgets/QMenu</text>
</a>
</g>
</g>
<!-- Node1&#45;&gt;Node10 -->
<g id="edge9" class="edge">
<title>Node1&#45;&gt;Node10</title>
<path fill="none" stroke="midnightblue" d="M1083.5,-56.08C1083.5,-49.01 1083.5,-38.86 1083.5,-29.99"/>
<polygon fill="midnightblue" stroke="midnightblue" points="1087,-29.75 1083.5,-19.75 1080,-29.75 1087,-29.75"/>
</g>
<!-- Node11 -->
<g id="node11" class="node">
<title>Node11</title>
<g id="a_node11"><a xlink:title=" ">
<polygon fill="white" stroke="#bfbfbf" points="1151,-0.5 1151,-19.5 1264,-19.5 1264,-0.5 1151,-0.5"/>
<text text-anchor="middle" x="1207.5" y="-7.5" font-family="Helvetica,sans-Serif" font-size="10.00">QtWidgets/QMenuBar</text>
</a>
</g>
</g>
<!-- Node1&#45;&gt;Node11 -->
<g id="edge10" class="edge">
<title>Node1&#45;&gt;Node11</title>
<path fill="none" stroke="midnightblue" d="M1103.15,-56.44C1123.46,-47.6 1155.4,-33.69 1178.6,-23.59"/>
<polygon fill="midnightblue" stroke="midnightblue" points="1180.17,-26.72 1187.94,-19.52 1177.38,-20.3 1180.17,-26.72"/>
</g>
<!-- Node12 -->
<g id="node12" class="node">
<title>Node12</title>
<g id="a_node12"><a xlink:title=" ">
<polygon fill="white" stroke="#bfbfbf" points="1282.5,-0.5 1282.5,-19.5 1406.5,-19.5 1406.5,-0.5 1282.5,-0.5"/>
<text text-anchor="middle" x="1344.5" y="-7.5" font-family="Helvetica,sans-Serif" font-size="10.00">QtWidgets/QSpacerItem</text>
</a>
</g>
</g>
<!-- Node1&#45;&gt;Node12 -->
<g id="edge11" class="edge">
<title>Node1&#45;&gt;Node12</title>
<path fill="none" stroke="midnightblue" d="M1124.86,-56.44C1170.58,-46.98 1244.26,-31.74 1293.52,-21.55"/>
<polygon fill="midnightblue" stroke="midnightblue" points="1294.25,-24.97 1303.34,-19.52 1292.84,-18.12 1294.25,-24.97"/>
</g>
<!-- Node13 -->
<g id="node13" class="node">
<title>Node13</title>
<g id="a_node13"><a xlink:title=" ">
<polygon fill="white" stroke="#bfbfbf" points="1425,-0.5 1425,-19.5 1542,-19.5 1542,-0.5 1425,-0.5"/>
<text text-anchor="middle" x="1483.5" y="-7.5" font-family="Helvetica,sans-Serif" font-size="10.00">QtWidgets/QStatusBar</text>
</a>
</g>
</g>
<!-- Node1&#45;&gt;Node13 -->
<g id="edge12" class="edge">
<title>Node1&#45;&gt;Node13</title>
<path fill="none" stroke="midnightblue" d="M1129.39,-58.81C1199.34,-49.36 1333.14,-31.3 1414.74,-20.28"/>
<polygon fill="midnightblue" stroke="midnightblue" points="1415.48,-23.72 1424.92,-18.91 1414.54,-16.78 1415.48,-23.72"/>
</g>
<!-- Node14 -->
<g id="node14" class="node">
<title>Node14</title>
<g id="a_node14"><a xlink:title=" ">
<polygon fill="white" stroke="#bfbfbf" points="1560.5,-0.5 1560.5,-19.5 1680.5,-19.5 1680.5,-0.5 1560.5,-0.5"/>
<text text-anchor="middle" x="1620.5" y="-7.5" font-family="Helvetica,sans-Serif" font-size="10.00">QtWidgets/QTabWidget</text>
</a>
</g>
</g>
<!-- Node1&#45;&gt;Node14 -->
<g id="edge13" class="edge">
<title>Node1&#45;&gt;Node14</title>
<path fill="none" stroke="midnightblue" d="M1129.06,-61.14C1211.08,-54.06 1389.29,-38.19 1550.22,-20.11"/>
<polygon fill="midnightblue" stroke="midnightblue" points="1550.76,-23.57 1560.3,-18.97 1549.97,-16.62 1550.76,-23.57"/>
</g>
<!-- Node15 -->
<g id="node15" class="node">
<title>Node15</title>
<g id="a_node15"><a xlink:title=" ">
<polygon fill="white" stroke="#bfbfbf" points="1699,-0.5 1699,-19.5 1806,-19.5 1806,-0.5 1699,-0.5"/>
<text text-anchor="middle" x="1752.5" y="-7.5" font-family="Helvetica,sans-Serif" font-size="10.00">QtWidgets/QToolBar</text>
</a>
</g>
</g>
<!-- Node1&#45;&gt;Node15 -->
<g id="edge14" class="edge">
<title>Node1&#45;&gt;Node15</title>
<path fill="none" stroke="midnightblue" d="M1129.21,-62.67C1228.79,-57.35 1472.99,-43.09 1688.67,-20.01"/>
<polygon fill="midnightblue" stroke="midnightblue" points="1689.35,-23.46 1698.91,-18.91 1688.6,-16.5 1689.35,-23.46"/>
</g>
<!-- Node16 -->
<g id="node16" class="node">
<title>Node16</title>
<g id="a_node16"><a xlink:title=" ">
<polygon fill="white" stroke="#bfbfbf" points="1824.5,-0.5 1824.5,-19.5 1944.5,-19.5 1944.5,-0.5 1824.5,-0.5"/>
<text text-anchor="middle" x="1884.5" y="-7.5" font-family="Helvetica,sans-Serif" font-size="10.00">QtWidgets/QToolButton</text>
</a>
</g>
</g>
<!-- Node1&#45;&gt;Node16 -->
<g id="edge15" class="edge">
<title>Node1&#45;&gt;Node16</title>
<path fill="none" stroke="midnightblue" d="M1129.41,-63.27C1243.41,-58.73 1548.74,-45.16 1814.1,-20.07"/>
<polygon fill="midnightblue" stroke="midnightblue" points="1814.69,-23.53 1824.32,-19.1 1814.03,-16.56 1814.69,-23.53"/>
</g>
<!-- Node17 -->
<g id="node17" class="node">
<title>Node17</title>
<g id="a_node17"><a xlink:title=" ">
<polygon fill="white" stroke="#bfbfbf" points="1963,-0.5 1963,-19.5 2090,-19.5 2090,-0.5 1963,-0.5"/>
<text text-anchor="middle" x="2026.5" y="-7.5" font-family="Helvetica,sans-Serif" font-size="10.00">QtWidgets/QVBoxLayout</text>
</a>
</g>
</g>
<!-- Node1&#45;&gt;Node17 -->
<g id="edge16" class="edge">
<title>Node1&#45;&gt;Node17</title>
<path fill="none" stroke="midnightblue" d="M1129.33,-63.78C1257.58,-60.11 1631.21,-47.74 1952.85,-19.99"/>
<polygon fill="midnightblue" stroke="midnightblue" points="1953.17,-23.47 1962.83,-19.12 1952.56,-16.5 1953.17,-23.47"/>
</g>
<!-- Node18 -->
<g id="node18" class="node">
<title>Node18</title>
<g id="a_node18"><a xlink:title=" ">
<polygon fill="white" stroke="#bfbfbf" points="2108.5,-0.5 2108.5,-19.5 2212.5,-19.5 2212.5,-0.5 2108.5,-0.5"/>
<text text-anchor="middle" x="2160.5" y="-7.5" font-family="Helvetica,sans-Serif" font-size="10.00">QtWidgets/QWidget</text>
</a>
</g>
</g>
<!-- Node1&#45;&gt;Node18 -->
<g id="edge17" class="edge">
<title>Node1&#45;&gt;Node18</title>
<path fill="none" stroke="midnightblue" d="M1129.19,-64.64C1271.26,-63.16 1718.06,-55.86 2098.2,-20.02"/>
<polygon fill="midnightblue" stroke="midnightblue" points="2098.68,-23.49 2108.3,-19.06 2098.01,-16.52 2098.68,-23.49"/>
</g>
</g>
</svg>
