<?xml version="1.0" encoding="UTF-8" standalone="no"?>
<!DOCTYPE svg PUBLIC "-//W3C//DTD SVG 1.1//EN"
 "http://www.w3.org/Graphics/SVG/1.1/DTD/svg11.dtd">
<!-- Generated by graphviz version 2.44.1 (0)
 -->
<!-- Title: T_MESH::Point::linePlaneIntersection Pages: 1 -->
<svg width="659pt" height="127pt"
 viewBox="0.00 0.00 659.00 127.00" xmlns="http://www.w3.org/2000/svg" xmlns:xlink="http://www.w3.org/1999/xlink">
<g id="graph0" class="graph" transform="scale(1 1) rotate(0) translate(4 123)">
<title>T_MESH::Point::linePlaneIntersection</title>
<polygon fill="white" stroke="transparent" points="-4,4 -4,-123 655,-123 655,4 -4,4"/>
<!-- Node1 -->
<g id="node1" class="node">
<title>Node1</title>
<g id="a_node1"><a xlink:title="Itersection point between line p&#45;q and plane r&#45;s&#45;t. Return INFINITE_POINT for parallel/degenerate arg...">
<polygon fill="#bfbfbf" stroke="black" points="520,-44.5 520,-74.5 651,-74.5 651,-44.5 520,-44.5"/>
<text text-anchor="start" x="528" y="-62.5" font-family="Helvetica,sans-Serif" font-size="10.00">T_MESH::Point::linePlane</text>
<text text-anchor="middle" x="585.5" y="-51.5" font-family="Helvetica,sans-Serif" font-size="10.00">Intersection</text>
</a>
</g>
</g>
<!-- Node2 -->
<g id="node2" class="node">
<title>Node2</title>
<g id="a_node2"><a xlink:href="../../d6/d27/class_t___m_e_s_h_1_1_basic___t_mesh.html#a7820b9b31ae0c9187ea7ddd4a1ccff48" target="_top" xlink:title="True if the mesh properly contains &#39;p&#39; (exact when using rationals).">
<polygon fill="white" stroke="black" points="352,-88.5 352,-118.5 475,-118.5 475,-88.5 352,-88.5"/>
<text text-anchor="start" x="360" y="-106.5" font-family="Helvetica,sans-Serif" font-size="10.00">T_MESH::Basic_TMesh</text>
<text text-anchor="middle" x="413.5" y="-95.5" font-family="Helvetica,sans-Serif" font-size="10.00">::isInnerPoint</text>
</a>
</g>
</g>
<!-- Node1&#45;&gt;Node2 -->
<g id="edge1" class="edge">
<title>Node1&#45;&gt;Node2</title>
<path fill="none" stroke="midnightblue" d="M516.52,-77.09C501.96,-80.86 486.7,-84.81 472.56,-88.47"/>
<polygon fill="midnightblue" stroke="midnightblue" points="517.67,-80.41 526.47,-74.52 515.91,-73.64 517.67,-80.41"/>
</g>
<!-- Node3 -->
<g id="node3" class="node">
<title>Node3</title>
<g id="a_node3"><a xlink:href="../../d8/d6e/class_t___m_e_s_h_1_1_triangle.html#a0167ce385b2562d494e329e1b405e437" target="_top" xlink:title="Projection of &#39;p&#39; on the plane of the triangle. Return INFINITE_POINT if triangle is degenerate.">
<polygon fill="white" stroke="black" points="347,-50 347,-69 480,-69 480,-50 347,-50"/>
<text text-anchor="middle" x="413.5" y="-57" font-family="Helvetica,sans-Serif" font-size="10.00">T_MESH::Triangle::project</text>
</a>
</g>
</g>
<!-- Node1&#45;&gt;Node3 -->
<g id="edge2" class="edge">
<title>Node1&#45;&gt;Node3</title>
<path fill="none" stroke="midnightblue" d="M509.62,-59.5C499.82,-59.5 489.84,-59.5 480.2,-59.5"/>
<polygon fill="midnightblue" stroke="midnightblue" points="509.75,-63 519.75,-59.5 509.75,-56 509.75,-63"/>
</g>
<!-- Node4 -->
<g id="node4" class="node">
<title>Node4</title>
<g id="a_node4"><a xlink:href="../../d9/d69/class_t___m_e_s_h_1_1mc__grid.html#a90d051518ed2e58eb090ab6bf66a7418" target="_top" xlink:title=" ">
<polygon fill="white" stroke="black" points="343,-0.5 343,-30.5 484,-30.5 484,-0.5 343,-0.5"/>
<text text-anchor="start" x="351" y="-18.5" font-family="Helvetica,sans-Serif" font-size="10.00">T_MESH::mc_grid::segment</text>
<text text-anchor="middle" x="413.5" y="-7.5" font-family="Helvetica,sans-Serif" font-size="10.00">IntersectsTriangle</text>
</a>
</g>
</g>
<!-- Node1&#45;&gt;Node4 -->
<g id="edge3" class="edge">
<title>Node1&#45;&gt;Node4</title>
<path fill="none" stroke="midnightblue" d="M516.52,-41.91C501.96,-38.14 486.7,-34.19 472.56,-30.53"/>
<polygon fill="midnightblue" stroke="midnightblue" points="515.91,-45.36 526.47,-44.48 517.67,-38.59 515.91,-45.36"/>
</g>
<!-- Node5 -->
<g id="node5" class="node">
<title>Node5</title>
<g id="a_node5"><a xlink:href="../../d9/d69/class_t___m_e_s_h_1_1mc__grid.html#a6d9c5aef72b72121eb5c421939b53ddc" target="_top" xlink:title="&lt; AMF_CHANGE &#45; since T_MESH 2.4&#45;2 &gt;">
<polygon fill="white" stroke="black" points="172,-0.5 172,-30.5 307,-30.5 307,-0.5 172,-0.5"/>
<text text-anchor="start" x="180" y="-18.5" font-family="Helvetica,sans-Serif" font-size="10.00">T_MESH::mc_grid::sample</text>
<text text-anchor="middle" x="239.5" y="-7.5" font-family="Helvetica,sans-Serif" font-size="10.00">_triangle</text>
</a>
</g>
</g>
<!-- Node4&#45;&gt;Node5 -->
<g id="edge4" class="edge">
<title>Node4&#45;&gt;Node5</title>
<path fill="none" stroke="midnightblue" d="M332.3,-15.5C323.85,-15.5 315.33,-15.5 307.06,-15.5"/>
<polygon fill="midnightblue" stroke="midnightblue" points="332.54,-19 342.54,-15.5 332.54,-12 332.54,-19"/>
</g>
<!-- Node6 -->
<g id="node6" class="node">
<title>Node6</title>
<g id="a_node6"><a xlink:href="../../d9/d69/class_t___m_e_s_h_1_1mc__grid.html#acab069f805e6c473afb4e340d3d8d1ae" target="_top" xlink:title="&lt; AMF_CHANGE &#45; since T_MESH 2.4&#45;2 &gt;">
<polygon fill="white" stroke="black" points="0,-6 0,-25 136,-25 136,-6 0,-6"/>
<text text-anchor="middle" x="68" y="-13" font-family="Helvetica,sans-Serif" font-size="10.00">T_MESH::mc_grid::remesh</text>
</a>
</g>
</g>
<!-- Node5&#45;&gt;Node6 -->
<g id="edge5" class="edge">
<title>Node5&#45;&gt;Node6</title>
<path fill="none" stroke="midnightblue" d="M161.96,-15.5C153.35,-15.5 144.63,-15.5 136.15,-15.5"/>
<polygon fill="midnightblue" stroke="midnightblue" points="162,-19 172,-15.5 162,-12 162,-19"/>
</g>
</g>
</svg>
