<?xml version="1.0" encoding="UTF-8" standalone="no"?>
<!DOCTYPE svg PUBLIC "-//W3C//DTD SVG 1.1//EN"
 "http://www.w3.org/Graphics/SVG/1.1/DTD/svg11.dtd">
<!-- Generated by graphviz version 2.44.1 (0)
 -->
<!-- Title: T_MESH::Point::distanceFromLine Pages: 1 -->
<svg width="332pt" height="66pt"
 viewBox="0.00 0.00 332.00 66.00" xmlns="http://www.w3.org/2000/svg" xmlns:xlink="http://www.w3.org/1999/xlink">
<g id="graph0" class="graph" transform="scale(1 1) rotate(0) translate(4 62)">
<title>T_MESH::Point::distanceFromLine</title>
<polygon fill="white" stroke="transparent" points="-4,4 -4,-62 328,-62 328,4 -4,4"/>
<!-- Node1 -->
<g id="node1" class="node">
<title>Node1</title>
<g id="a_node1"><a xlink:title="Distance from straight line through &#39;a&#39; and &#39;b&#39;.">
<polygon fill="#bfbfbf" stroke="black" points="0,-19.5 0,-38.5 169,-38.5 169,-19.5 0,-19.5"/>
<text text-anchor="middle" x="84.5" y="-26.5" font-family="Helvetica,sans-Serif" font-size="10.00">T_MESH::Point::distanceFromLine</text>
</a>
</g>
</g>
<!-- Node2 -->
<g id="node2" class="node">
<title>Node2</title>
<g id="a_node2"><a xlink:href="../../de/df2/class_t___m_e_s_h_1_1_t_mesh.html#a365cdce7948e9459b819b2357b05cb72" target="_top" xlink:title=" ">
<polygon fill="white" stroke="black" points="205,-38.5 205,-57.5 324,-57.5 324,-38.5 205,-38.5"/>
<text text-anchor="middle" x="264.5" y="-45.5" font-family="Helvetica,sans-Serif" font-size="10.00">T_MESH::TMesh::error</text>
</a>
</g>
</g>
<!-- Node1&#45;&gt;Node2 -->
<g id="edge1" class="edge">
<title>Node1&#45;&gt;Node2</title>
<path fill="none" stroke="midnightblue" d="M169.03,-37.92C177.63,-38.83 186.31,-39.76 194.72,-40.66"/>
<polygon fill="midnightblue" stroke="midnightblue" points="194.53,-44.16 204.85,-41.74 195.27,-37.2 194.53,-44.16"/>
</g>
<!-- Node3 -->
<g id="node3" class="node">
<title>Node3</title>
<g id="a_node3"><a xlink:href="../../d2/d8e/class_t___m_e_s_h_1_1_point.html#a61ce9f22ddfe41f036566d4a2f920ac4" target="_top" xlink:title="Distance from origin.">
<polygon fill="white" stroke="black" points="205.5,-0.5 205.5,-19.5 323.5,-19.5 323.5,-0.5 205.5,-0.5"/>
<text text-anchor="middle" x="264.5" y="-7.5" font-family="Helvetica,sans-Serif" font-size="10.00">T_MESH::Point::length</text>
</a>
</g>
</g>
<!-- Node1&#45;&gt;Node3 -->
<g id="edge2" class="edge">
<title>Node1&#45;&gt;Node3</title>
<path fill="none" stroke="midnightblue" d="M169.03,-20.08C177.86,-19.14 186.76,-18.19 195.38,-17.27"/>
<polygon fill="midnightblue" stroke="midnightblue" points="195.79,-20.75 205.36,-16.21 195.04,-13.79 195.79,-20.75"/>
</g>
</g>
</svg>
