<?xml version="1.0" encoding="UTF-8" standalone="no"?>
<!DOCTYPE svg PUBLIC "-//W3C//DTD SVG 1.1//EN"
 "http://www.w3.org/Graphics/SVG/1.1/DTD/svg11.dtd">
<!-- Generated by graphviz version 2.44.1 (0)
 -->
<!-- Title: T_MESH::Point::distanceFromEdge Pages: 1 -->
<svg width="541pt" height="104pt"
 viewBox="0.00 0.00 541.00 104.00" xmlns="http://www.w3.org/2000/svg" xmlns:xlink="http://www.w3.org/1999/xlink">
<g id="graph0" class="graph" transform="scale(1 1) rotate(0) translate(4 100)">
<title>T_MESH::Point::distanceFromEdge</title>
<polygon fill="white" stroke="transparent" points="-4,4 -4,-100 537,-100 537,4 -4,4"/>
<!-- Node1 -->
<g id="node1" class="node">
<title>Node1</title>
<g id="a_node1"><a xlink:title="Distance from segment a&#45;b.">
<polygon fill="#bfbfbf" stroke="black" points="0,-38.5 0,-57.5 173,-57.5 173,-38.5 0,-38.5"/>
<text text-anchor="middle" x="86.5" y="-45.5" font-family="Helvetica,sans-Serif" font-size="10.00">T_MESH::Point::distanceFromEdge</text>
</a>
</g>
</g>
<!-- Node2 -->
<g id="node2" class="node">
<title>Node2</title>
<g id="a_node2"><a xlink:href="../../d2/d8e/class_t___m_e_s_h_1_1_point.html#afe0da45dca244a169623e5cacc30c28a" target="_top" xlink:title="Distance from straight line through &#39;a&#39; and &#39;b&#39;.">
<polygon fill="white" stroke="black" points="209,-76.5 209,-95.5 378,-95.5 378,-76.5 209,-76.5"/>
<text text-anchor="middle" x="293.5" y="-83.5" font-family="Helvetica,sans-Serif" font-size="10.00">T_MESH::Point::distanceFromLine</text>
</a>
</g>
</g>
<!-- Node1&#45;&gt;Node2 -->
<g id="edge1" class="edge">
<title>Node1&#45;&gt;Node2</title>
<path fill="none" stroke="midnightblue" d="M138.97,-57.54C166.87,-62.71 201.55,-69.14 230.88,-74.58"/>
<polygon fill="midnightblue" stroke="midnightblue" points="230.54,-78.07 241.01,-76.46 231.82,-71.19 230.54,-78.07"/>
</g>
<!-- Node4 -->
<g id="node4" class="node">
<title>Node4</title>
<g id="a_node4"><a xlink:href="../../d2/d8e/class_t___m_e_s_h_1_1_point.html#a61ce9f22ddfe41f036566d4a2f920ac4" target="_top" xlink:title="Distance from origin.">
<polygon fill="white" stroke="black" points="414.5,-38.5 414.5,-57.5 532.5,-57.5 532.5,-38.5 414.5,-38.5"/>
<text text-anchor="middle" x="473.5" y="-45.5" font-family="Helvetica,sans-Serif" font-size="10.00">T_MESH::Point::length</text>
</a>
</g>
</g>
<!-- Node1&#45;&gt;Node4 -->
<g id="edge6" class="edge">
<title>Node1&#45;&gt;Node4</title>
<path fill="none" stroke="midnightblue" d="M173.42,-48C243.05,-48 339.85,-48 404.25,-48"/>
<polygon fill="midnightblue" stroke="midnightblue" points="404.3,-51.5 414.3,-48 404.3,-44.5 404.3,-51.5"/>
</g>
<!-- Node5 -->
<g id="node5" class="node">
<title>Node5</title>
<g id="a_node5"><a xlink:href="../../d2/d8e/class_t___m_e_s_h_1_1_point.html#a7d19f5b5b98c1999de03da56eab91478" target="_top" xlink:title=" ">
<polygon fill="white" stroke="black" points="228.5,-0.5 228.5,-19.5 358.5,-19.5 358.5,-0.5 228.5,-0.5"/>
<text text-anchor="middle" x="293.5" y="-7.5" font-family="Helvetica,sans-Serif" font-size="10.00">T_MESH::Point::getAngle</text>
</a>
</g>
</g>
<!-- Node1&#45;&gt;Node5 -->
<g id="edge4" class="edge">
<title>Node1&#45;&gt;Node5</title>
<path fill="none" stroke="midnightblue" d="M138.97,-38.46C166.87,-33.29 201.55,-26.86 230.88,-21.42"/>
<polygon fill="midnightblue" stroke="midnightblue" points="231.82,-24.81 241.01,-19.54 230.54,-17.93 231.82,-24.81"/>
</g>
<!-- Node3 -->
<g id="node3" class="node">
<title>Node3</title>
<g id="a_node3"><a xlink:href="../../de/df2/class_t___m_e_s_h_1_1_t_mesh.html#a365cdce7948e9459b819b2357b05cb72" target="_top" xlink:title=" ">
<polygon fill="white" stroke="black" points="414,-76.5 414,-95.5 533,-95.5 533,-76.5 414,-76.5"/>
<text text-anchor="middle" x="473.5" y="-83.5" font-family="Helvetica,sans-Serif" font-size="10.00">T_MESH::TMesh::error</text>
</a>
</g>
</g>
<!-- Node2&#45;&gt;Node3 -->
<g id="edge2" class="edge">
<title>Node2&#45;&gt;Node3</title>
<path fill="none" stroke="midnightblue" d="M378.03,-86C386.63,-86 395.31,-86 403.72,-86"/>
<polygon fill="midnightblue" stroke="midnightblue" points="403.85,-89.5 413.85,-86 403.85,-82.5 403.85,-89.5"/>
</g>
<!-- Node2&#45;&gt;Node4 -->
<g id="edge3" class="edge">
<title>Node2&#45;&gt;Node4</title>
<path fill="none" stroke="midnightblue" d="M339.42,-76.41C363.33,-71.31 392.92,-64.99 418.12,-59.61"/>
<polygon fill="midnightblue" stroke="midnightblue" points="418.86,-63.03 427.91,-57.52 417.4,-56.19 418.86,-63.03"/>
</g>
<!-- Node5&#45;&gt;Node4 -->
<g id="edge5" class="edge">
<title>Node5&#45;&gt;Node4</title>
<path fill="none" stroke="midnightblue" d="M339.42,-19.59C363.33,-24.69 392.92,-31.01 418.12,-36.39"/>
<polygon fill="midnightblue" stroke="midnightblue" points="417.4,-39.81 427.91,-38.48 418.86,-32.97 417.4,-39.81"/>
</g>
</g>
</svg>
