<?xml version="1.0" encoding="UTF-8" standalone="no"?>
<!DOCTYPE svg PUBLIC "-//W3C//DTD SVG 1.1//EN"
 "http://www.w3.org/Graphics/SVG/1.1/DTD/svg11.dtd">
<!-- Generated by graphviz version 2.44.1 (0)
 -->
<!-- Title: T_MESH::Point::exactMisalignment Pages: 1 -->
<svg width="456pt" height="28pt"
 viewBox="0.00 0.00 456.00 28.00" xmlns="http://www.w3.org/2000/svg" xmlns:xlink="http://www.w3.org/1999/xlink">
<g id="graph0" class="graph" transform="scale(1 1) rotate(0) translate(4 24)">
<title>T_MESH::Point::exactMisalignment</title>
<polygon fill="white" stroke="transparent" points="-4,4 -4,-24 452,-24 452,4 -4,4"/>
<!-- Node1 -->
<g id="node1" class="node">
<title>Node1</title>
<g id="a_node1"><a xlink:title="Exact misalignment test. Returns TRUE iff points are not aligned.">
<polygon fill="#bfbfbf" stroke="black" points="0,-0.5 0,-19.5 173,-19.5 173,-0.5 0,-0.5"/>
<text text-anchor="middle" x="86.5" y="-7.5" font-family="Helvetica,sans-Serif" font-size="10.00">T_MESH::Point::exactMisalignment</text>
</a>
</g>
</g>
<!-- Node2 -->
<g id="node2" class="node">
<title>Node2</title>
<g id="a_node2"><a xlink:href="../../de/df9/namespace_t___m_e_s_h.html#a5dcbe262a73a0769e3f63025edf3d25d" target="_top" xlink:title="Orientation predicates on PM_Rationals.">
<polygon fill="white" stroke="black" points="209,-0.5 209,-19.5 309,-19.5 309,-0.5 209,-0.5"/>
<text text-anchor="middle" x="259" y="-7.5" font-family="Helvetica,sans-Serif" font-size="10.00">T_MESH::orient2D</text>
</a>
</g>
</g>
<!-- Node1&#45;&gt;Node2 -->
<g id="edge1" class="edge">
<title>Node1&#45;&gt;Node2</title>
<path fill="none" stroke="midnightblue" d="M173.25,-10C181.76,-10 190.27,-10 198.43,-10"/>
<polygon fill="midnightblue" stroke="midnightblue" points="198.55,-13.5 208.55,-10 198.55,-6.5 198.55,-13.5"/>
</g>
<!-- Node3 -->
<g id="node3" class="node">
<title>Node3</title>
<g id="a_node3"><a xlink:href="../../de/df9/namespace_t___m_e_s_h.html#a2bad1f974ad8c908dd703494055080c1" target="_top" xlink:title="Orientation predicates using filtering on doubles.">
<polygon fill="white" stroke="black" points="345,-0.5 345,-19.5 448,-19.5 448,-0.5 345,-0.5"/>
<text text-anchor="middle" x="396.5" y="-7.5" font-family="Helvetica,sans-Serif" font-size="10.00">T_MESH::_orient2d</text>
</a>
</g>
</g>
<!-- Node2&#45;&gt;Node3 -->
<g id="edge2" class="edge">
<title>Node2&#45;&gt;Node3</title>
<path fill="none" stroke="midnightblue" d="M309.3,-10C317.48,-10 326.04,-10 334.47,-10"/>
<polygon fill="midnightblue" stroke="midnightblue" points="334.64,-13.5 344.64,-10 334.64,-6.5 334.64,-13.5"/>
</g>
</g>
</svg>
