<?xml version="1.0" encoding="UTF-8" standalone="no"?>
<!DOCTYPE svg PUBLIC "-//W3C//DTD SVG 1.1//EN"
 "http://www.w3.org/Graphics/SVG/1.1/DTD/svg11.dtd">
<!-- Generated by graphviz version 2.44.1 (0)
 -->
<!-- Title: T_MESH::Point::Point Pages: 1 -->
<svg width="459pt" height="262pt"
 viewBox="0.00 0.00 459.00 261.50" xmlns="http://www.w3.org/2000/svg" xmlns:xlink="http://www.w3.org/1999/xlink">
<g id="graph0" class="graph" transform="scale(1 1) rotate(0) translate(4 257.5)">
<title>T_MESH::Point::Point</title>
<polygon fill="white" stroke="transparent" points="-4,4 -4,-257.5 455,-257.5 455,4 -4,4"/>
<!-- Node1 -->
<g id="node1" class="node">
<title>Node1</title>
<g id="a_node1"><a xlink:title="Creates a new point with coordinates (0,0,0).">
<polygon fill="#bfbfbf" stroke="black" points="337,-114.5 337,-133.5 451,-133.5 451,-114.5 337,-114.5"/>
<text text-anchor="middle" x="394" y="-121.5" font-family="Helvetica,sans-Serif" font-size="10.00">T_MESH::Point::Point</text>
</a>
</g>
</g>
<!-- Node2 -->
<g id="node2" class="node">
<title>Node2</title>
<g id="a_node2"><a xlink:href="../../d5/d7f/class_t___m_e_s_h_1_1_vertex.html#ab1b8b908e7dd7b5ef141c4374e81ce9f" target="_top" xlink:title="Normal at the vertex computed as the sum of incident triangle normals weighted on their incidence ang...">
<polygon fill="white" stroke="black" points="159,-228.5 159,-247.5 301,-247.5 301,-228.5 159,-228.5"/>
<text text-anchor="middle" x="230" y="-235.5" font-family="Helvetica,sans-Serif" font-size="10.00">T_MESH::Vertex::getNormal</text>
</a>
</g>
</g>
<!-- Node1&#45;&gt;Node2 -->
<g id="edge1" class="edge">
<title>Node1&#45;&gt;Node2</title>
<path fill="none" stroke="midnightblue" d="M380.38,-142.01C364.37,-163.52 334.74,-199.09 301,-219 294.49,-222.84 287.19,-225.92 279.82,-228.4"/>
<polygon fill="midnightblue" stroke="midnightblue" points="383.35,-143.88 386.39,-133.73 377.68,-139.77 383.35,-143.88"/>
</g>
<!-- Node4 -->
<g id="node4" class="node">
<title>Node4</title>
<g id="a_node4"><a xlink:href="../../d2/d8e/class_t___m_e_s_h_1_1_point.html#ad10695b058a816357b69696f8b88fcba" target="_top" xlink:title="Returns the inverse vector.">
<polygon fill="white" stroke="black" points="168.5,-190.5 168.5,-209.5 291.5,-209.5 291.5,-190.5 168.5,-190.5"/>
<text text-anchor="middle" x="230" y="-197.5" font-family="Helvetica,sans-Serif" font-size="10.00">T_MESH::Point::inverse</text>
</a>
</g>
</g>
<!-- Node1&#45;&gt;Node4 -->
<g id="edge3" class="edge">
<title>Node1&#45;&gt;Node4</title>
<path fill="none" stroke="midnightblue" d="M371.68,-139.7C353.64,-152.36 326.68,-169.84 301,-181 292.45,-184.71 283,-187.87 273.88,-190.48"/>
<polygon fill="midnightblue" stroke="midnightblue" points="374.15,-142.23 380.25,-133.57 370.08,-136.54 374.15,-142.23"/>
</g>
<!-- Node5 -->
<g id="node5" class="node">
<title>Node5</title>
<g id="a_node5"><a xlink:href="../../d2/d8e/class_t___m_e_s_h_1_1_point.html#ab77dba43227433539c2633abd95c3ea7" target="_top" xlink:title="Returns the Cross Product.">
<polygon fill="white" stroke="black" points="163,-152.5 163,-171.5 297,-171.5 297,-152.5 163,-152.5"/>
<text text-anchor="middle" x="230" y="-159.5" font-family="Helvetica,sans-Serif" font-size="10.00">T_MESH::Point::operator&amp;</text>
</a>
</g>
</g>
<!-- Node1&#45;&gt;Node5 -->
<g id="edge4" class="edge">
<title>Node1&#45;&gt;Node5</title>
<path fill="none" stroke="midnightblue" d="M342.29,-135.9C319.51,-141.24 293.01,-147.45 271.59,-152.48"/>
<polygon fill="midnightblue" stroke="midnightblue" points="343.18,-139.28 352.12,-133.59 341.59,-132.47 343.18,-139.28"/>
</g>
<!-- Node6 -->
<g id="node6" class="node">
<title>Node6</title>
<g id="a_node6"><a xlink:href="../../d2/d8e/class_t___m_e_s_h_1_1_point.html#a1298ce777d8c253de4ac8f606171f82b" target="_top" xlink:title="Returns the product with a scalar.">
<polygon fill="white" stroke="black" points="164.5,-114.5 164.5,-133.5 295.5,-133.5 295.5,-114.5 164.5,-114.5"/>
<text text-anchor="middle" x="230" y="-121.5" font-family="Helvetica,sans-Serif" font-size="10.00">T_MESH::Point::operator*</text>
</a>
</g>
</g>
<!-- Node1&#45;&gt;Node6 -->
<g id="edge5" class="edge">
<title>Node1&#45;&gt;Node6</title>
<path fill="none" stroke="midnightblue" d="M326.7,-124C316.47,-124 305.92,-124 295.72,-124"/>
<polygon fill="midnightblue" stroke="midnightblue" points="326.79,-127.5 336.79,-124 326.79,-120.5 326.79,-127.5"/>
</g>
<!-- Node7 -->
<g id="node7" class="node">
<title>Node7</title>
<g id="a_node7"><a xlink:href="../../d2/d8e/class_t___m_e_s_h_1_1_point.html#ae512ea51956e4c106c5c3caad1415844" target="_top" xlink:title="Returns the vector sum.">
<polygon fill="white" stroke="black" points="163.5,-76.5 163.5,-95.5 296.5,-95.5 296.5,-76.5 163.5,-76.5"/>
<text text-anchor="middle" x="230" y="-83.5" font-family="Helvetica,sans-Serif" font-size="10.00">T_MESH::Point::operator+</text>
</a>
</g>
</g>
<!-- Node1&#45;&gt;Node7 -->
<g id="edge6" class="edge">
<title>Node1&#45;&gt;Node7</title>
<path fill="none" stroke="midnightblue" d="M342.29,-112.1C319.51,-106.76 293.01,-100.55 271.59,-95.52"/>
<polygon fill="midnightblue" stroke="midnightblue" points="341.59,-115.53 352.12,-114.41 343.18,-108.72 341.59,-115.53"/>
</g>
<!-- Node8 -->
<g id="node8" class="node">
<title>Node8</title>
<g id="a_node8"><a xlink:href="../../d2/d8e/class_t___m_e_s_h_1_1_point.html#a1ea184c56fe7442983703de8f597be9f" target="_top" xlink:title="Returns the vector difference.">
<polygon fill="white" stroke="black" points="165,-38.5 165,-57.5 295,-57.5 295,-38.5 165,-38.5"/>
<text text-anchor="middle" x="230" y="-45.5" font-family="Helvetica,sans-Serif" font-size="10.00">T_MESH::Point::operator&#45;</text>
</a>
</g>
</g>
<!-- Node1&#45;&gt;Node8 -->
<g id="edge7" class="edge">
<title>Node1&#45;&gt;Node8</title>
<path fill="none" stroke="midnightblue" d="M371.68,-108.3C353.64,-95.64 326.68,-78.16 301,-67 292.45,-63.29 283,-60.13 273.88,-57.52"/>
<polygon fill="midnightblue" stroke="midnightblue" points="370.08,-111.46 380.25,-114.43 374.15,-105.77 370.08,-111.46"/>
</g>
<!-- Node9 -->
<g id="node9" class="node">
<title>Node9</title>
<g id="a_node9"><a xlink:href="../../d2/d8e/class_t___m_e_s_h_1_1_point.html#a067691b638df618103b336c13fff4e2c" target="_top" xlink:title="Returns the vector divided by the scalar.">
<polygon fill="white" stroke="black" points="165,-0.5 165,-19.5 295,-19.5 295,-0.5 165,-0.5"/>
<text text-anchor="middle" x="230" y="-7.5" font-family="Helvetica,sans-Serif" font-size="10.00">T_MESH::Point::operator/</text>
</a>
</g>
</g>
<!-- Node1&#45;&gt;Node9 -->
<g id="edge8" class="edge">
<title>Node1&#45;&gt;Node9</title>
<path fill="none" stroke="midnightblue" d="M380.38,-105.99C364.37,-84.48 334.74,-48.91 301,-29 294.49,-25.16 287.19,-22.08 279.82,-19.6"/>
<polygon fill="midnightblue" stroke="midnightblue" points="377.68,-108.23 386.39,-114.27 383.35,-104.12 377.68,-108.23"/>
</g>
<!-- Node3 -->
<g id="node3" class="node">
<title>Node3</title>
<g id="a_node3"><a xlink:href="../../d6/d27/class_t___m_e_s_h_1_1_basic___t_mesh.html#aeee5df0f56276202cb41254b08ea07ac" target="_top" xlink:title="Randomly move vertices along their normals.">
<polygon fill="white" stroke="black" points="0,-223 0,-253 123,-253 123,-223 0,-223"/>
<text text-anchor="start" x="8" y="-241" font-family="Helvetica,sans-Serif" font-size="10.00">T_MESH::Basic_TMesh</text>
<text text-anchor="middle" x="61.5" y="-230" font-family="Helvetica,sans-Serif" font-size="10.00">::addNormalNoise</text>
</a>
</g>
</g>
<!-- Node2&#45;&gt;Node3 -->
<g id="edge2" class="edge">
<title>Node2&#45;&gt;Node3</title>
<path fill="none" stroke="midnightblue" d="M148.76,-238C140.11,-238 131.41,-238 123.05,-238"/>
<polygon fill="midnightblue" stroke="midnightblue" points="148.87,-241.5 158.87,-238 148.87,-234.5 148.87,-241.5"/>
</g>
</g>
</svg>
