<?xml version="1.0" encoding="UTF-8" standalone="no"?>
<!DOCTYPE svg PUBLIC "-//W3C//DTD SVG 1.1//EN"
 "http://www.w3.org/Graphics/SVG/1.1/DTD/svg11.dtd">
<!-- Generated by graphviz version 2.44.1 (0)
 -->
<!-- Title: T_MESH::Point::squaredDistance Pages: 1 -->
<svg width="1956pt" height="586pt"
 viewBox="0.00 0.00 1956.00 586.00" xmlns="http://www.w3.org/2000/svg" xmlns:xlink="http://www.w3.org/1999/xlink">
<g id="graph0" class="graph" transform="scale(1 1) rotate(0) translate(4 582)">
<title>T_MESH::Point::squaredDistance</title>
<polygon fill="white" stroke="transparent" points="-4,4 -4,-582 1952,-582 1952,4 -4,4"/>
<!-- Node1 -->
<g id="node1" class="node">
<title>Node1</title>
<g id="a_node1"><a xlink:title="Squared distance from &#39;*b&#39;.">
<polygon fill="#bfbfbf" stroke="black" points="1783,-471 1783,-490 1948,-490 1948,-471 1783,-471"/>
<text text-anchor="middle" x="1865.5" y="-478" font-family="Helvetica,sans-Serif" font-size="10.00">T_MESH::Point::squaredDistance</text>
</a>
</g>
</g>
<!-- Node2 -->
<g id="node2" class="node">
<title>Node2</title>
<g id="a_node2"><a xlink:href="../../d8/d6e/class_t___m_e_s_h_1_1_triangle.html#a84e2fb5b05161c766eec8b282b52678e" target="_top" xlink:title="TRUE iff &#39;p&#39; is inside the triangle&#39;s bounding sphere.">
<polygon fill="white" stroke="black" points="1596.5,-553 1596.5,-572 1738.5,-572 1738.5,-553 1596.5,-553"/>
<text text-anchor="middle" x="1667.5" y="-560" font-family="Helvetica,sans-Serif" font-size="10.00">T_MESH::Triangle::inSphere</text>
</a>
</g>
</g>
<!-- Node1&#45;&gt;Node2 -->
<g id="edge1" class="edge">
<title>Node1&#45;&gt;Node2</title>
<path fill="none" stroke="midnightblue" d="M1840.75,-495.57C1817.6,-509.69 1781.02,-530.51 1747,-543.5 1737.31,-547.2 1726.66,-550.35 1716.42,-552.96"/>
<polygon fill="midnightblue" stroke="midnightblue" points="1842.84,-498.39 1849.51,-490.16 1839.16,-492.44 1842.84,-498.39"/>
</g>
<!-- Node5 -->
<g id="node5" class="node">
<title>Node5</title>
<g id="a_node5"><a xlink:href="../../de/df9/namespace_t___m_e_s_h.html#a952563c60c59150105ac04bf03f20f5f" target="_top" xlink:title=" ">
<polygon fill="white" stroke="black" points="1604.5,-515 1604.5,-534 1730.5,-534 1730.5,-515 1604.5,-515"/>
<text text-anchor="middle" x="1667.5" y="-522" font-family="Helvetica,sans-Serif" font-size="10.00">T_MESH::multiSplitEdge</text>
</a>
</g>
</g>
<!-- Node1&#45;&gt;Node5 -->
<g id="edge4" class="edge">
<title>Node1&#45;&gt;Node5</title>
<path fill="none" stroke="midnightblue" d="M1812.01,-492.28C1780.37,-499.39 1740.59,-508.32 1710.95,-514.97"/>
<polygon fill="midnightblue" stroke="midnightblue" points="1812.98,-495.65 1821.97,-490.05 1811.45,-488.82 1812.98,-495.65"/>
</g>
<!-- Node6 -->
<g id="node6" class="node">
<title>Node6</title>
<g id="a_node6"><a xlink:href="../../d8/d6e/class_t___m_e_s_h_1_1_triangle.html#a249e712c77966f0eb0d3558a265c1d0e" target="_top" xlink:title="Squared distance of &#39;p&#39; from the closest point of the triangle.">
<polygon fill="white" stroke="black" points="1588,-465.5 1588,-495.5 1747,-495.5 1747,-465.5 1588,-465.5"/>
<text text-anchor="start" x="1596" y="-483.5" font-family="Helvetica,sans-Serif" font-size="10.00">T_MESH::Triangle::pointTriangle</text>
<text text-anchor="middle" x="1667.5" y="-472.5" font-family="Helvetica,sans-Serif" font-size="10.00">SquaredDistance</text>
</a>
</g>
</g>
<!-- Node1&#45;&gt;Node6 -->
<g id="edge5" class="edge">
<title>Node1&#45;&gt;Node6</title>
<path fill="none" stroke="midnightblue" d="M1772.53,-480.5C1764.08,-480.5 1755.56,-480.5 1747.24,-480.5"/>
<polygon fill="midnightblue" stroke="midnightblue" points="1772.8,-484 1782.8,-480.5 1772.8,-477 1772.8,-484"/>
</g>
<!-- Node8 -->
<g id="node8" class="node">
<title>Node8</title>
<g id="a_node8"><a xlink:href="../../d6/d27/class_t___m_e_s_h_1_1_basic___t_mesh.html#a0d3d258b609de824682434525a2eeb13" target="_top" xlink:title="Looks for zero&#45;area triangles and resolve them by splits and collapses.">
<polygon fill="white" stroke="black" points="1392.5,-421.5 1392.5,-451.5 1537.5,-451.5 1537.5,-421.5 1392.5,-421.5"/>
<text text-anchor="start" x="1400.5" y="-439.5" font-family="Helvetica,sans-Serif" font-size="10.00">T_MESH::Basic_TMesh</text>
<text text-anchor="middle" x="1465" y="-428.5" font-family="Helvetica,sans-Serif" font-size="10.00">::removeDegenerateTriangles</text>
</a>
</g>
</g>
<!-- Node1&#45;&gt;Node8 -->
<g id="edge7" class="edge">
<title>Node1&#45;&gt;Node8</title>
<path fill="none" stroke="midnightblue" d="M1814.59,-468.81C1793.8,-464.33 1769.34,-459.56 1747,-456.5 1676.13,-446.78 1594.53,-441.64 1537.58,-439.02"/>
<polygon fill="midnightblue" stroke="midnightblue" points="1813.96,-472.25 1824.48,-470.98 1815.46,-465.42 1813.96,-472.25"/>
</g>
<!-- Node28 -->
<g id="node28" class="node">
<title>Node28</title>
<g id="a_node28"><a xlink:href="../../da/da2/class_t___m_e_s_h_1_1_edge.html#a3daee959b7b2c13f21e69e4243438dc4" target="_top" xlink:title="Squared length of the edge.">
<polygon fill="white" stroke="black" points="1590,-351 1590,-370 1745,-370 1745,-351 1590,-351"/>
<text text-anchor="middle" x="1667.5" y="-358" font-family="Helvetica,sans-Serif" font-size="10.00">T_MESH::Edge::squaredLength</text>
</a>
</g>
</g>
<!-- Node1&#45;&gt;Node28 -->
<g id="edge35" class="edge">
<title>Node1&#45;&gt;Node28</title>
<path fill="none" stroke="midnightblue" d="M1840.03,-465.52C1799.22,-440.53 1718.4,-391.05 1684.28,-370.16"/>
<polygon fill="midnightblue" stroke="midnightblue" points="1838.44,-468.65 1848.79,-470.88 1842.09,-462.68 1838.44,-468.65"/>
</g>
<!-- Node3 -->
<g id="node3" class="node">
<title>Node3</title>
<g id="a_node3"><a xlink:href="../../d6/d27/class_t___m_e_s_h_1_1_basic___t_mesh.html#a29762ed91857184c1d155cdaa9350562" target="_top" xlink:title=" ">
<polygon fill="white" stroke="black" points="1403.5,-547.5 1403.5,-577.5 1526.5,-577.5 1526.5,-547.5 1403.5,-547.5"/>
<text text-anchor="start" x="1411.5" y="-565.5" font-family="Helvetica,sans-Serif" font-size="10.00">T_MESH::Basic_TMesh</text>
<text text-anchor="middle" x="1465" y="-554.5" font-family="Helvetica,sans-Serif" font-size="10.00">::watsonInsert</text>
</a>
</g>
</g>
<!-- Node2&#45;&gt;Node3 -->
<g id="edge2" class="edge">
<title>Node2&#45;&gt;Node3</title>
<path fill="none" stroke="midnightblue" d="M1586.13,-562.5C1566.33,-562.5 1545.45,-562.5 1526.75,-562.5"/>
<polygon fill="midnightblue" stroke="midnightblue" points="1586.37,-566 1596.37,-562.5 1586.37,-559 1586.37,-566"/>
</g>
<!-- Node4 -->
<g id="node4" class="node">
<title>Node4</title>
<g id="a_node4"><a xlink:href="../../d6/d27/class_t___m_e_s_h_1_1_basic___t_mesh.html#affae34779bd3e7f044e4cd2f038950e9" target="_top" xlink:title="Creates a triangulation of the hole based on the assumption that it is flat.">
<polygon fill="white" stroke="black" points="1210,-547.5 1210,-577.5 1333,-577.5 1333,-547.5 1210,-547.5"/>
<text text-anchor="start" x="1218" y="-565.5" font-family="Helvetica,sans-Serif" font-size="10.00">T_MESH::Basic_TMesh</text>
<text text-anchor="middle" x="1271.5" y="-554.5" font-family="Helvetica,sans-Serif" font-size="10.00">::TriangulateHole</text>
</a>
</g>
</g>
<!-- Node3&#45;&gt;Node4 -->
<g id="edge3" class="edge">
<title>Node3&#45;&gt;Node4</title>
<path fill="none" stroke="midnightblue" d="M1393.23,-562.5C1373.45,-562.5 1352.15,-562.5 1333.03,-562.5"/>
<polygon fill="midnightblue" stroke="midnightblue" points="1393.41,-566 1403.41,-562.5 1393.41,-559 1393.41,-566"/>
</g>
<!-- Node7 -->
<g id="node7" class="node">
<title>Node7</title>
<g id="a_node7"><a xlink:href="../../d8/d6e/class_t___m_e_s_h_1_1_triangle.html#a4f62c0c6927d0af7bd696a95393cdd89" target="_top" xlink:title="Distance of &#39;p&#39; from the closest point of the triangle.">
<polygon fill="white" stroke="black" points="1385.5,-470.5 1385.5,-500.5 1544.5,-500.5 1544.5,-470.5 1385.5,-470.5"/>
<text text-anchor="start" x="1393.5" y="-488.5" font-family="Helvetica,sans-Serif" font-size="10.00">T_MESH::Triangle::pointTriangle</text>
<text text-anchor="middle" x="1465" y="-477.5" font-family="Helvetica,sans-Serif" font-size="10.00">Distance</text>
</a>
</g>
</g>
<!-- Node6&#45;&gt;Node7 -->
<g id="edge6" class="edge">
<title>Node6&#45;&gt;Node7</title>
<path fill="none" stroke="midnightblue" d="M1577.8,-482.71C1566.8,-482.99 1555.61,-483.27 1544.77,-483.54"/>
<polygon fill="midnightblue" stroke="midnightblue" points="1577.92,-486.21 1587.83,-482.46 1577.75,-479.21 1577.92,-486.21"/>
</g>
<!-- Node9 -->
<g id="node9" class="node">
<title>Node9</title>
<g id="a_node9"><a xlink:href="../../d6/d27/class_t___m_e_s_h_1_1_basic___t_mesh.html#af160de0b4a939ef2cb93279f67e6dd34" target="_top" xlink:title="Calls &#39;removeDegenerateTriangles()&#39; and, if some degeneracies remain, removes them and fills the resu...">
<polygon fill="white" stroke="black" points="843,-401.5 843,-431.5 984,-431.5 984,-401.5 843,-401.5"/>
<text text-anchor="start" x="851" y="-419.5" font-family="Helvetica,sans-Serif" font-size="10.00">T_MESH::Basic_TMesh</text>
<text text-anchor="middle" x="913.5" y="-408.5" font-family="Helvetica,sans-Serif" font-size="10.00">::strongDegeneracyRemoval</text>
</a>
</g>
</g>
<!-- Node8&#45;&gt;Node9 -->
<g id="edge8" class="edge">
<title>Node8&#45;&gt;Node9</title>
<path fill="none" stroke="midnightblue" d="M1382.09,-451.18C1273.01,-469.53 1086.11,-496.49 1020,-478.5 986.59,-469.41 952.95,-446.76 932.92,-431.5"/>
<polygon fill="midnightblue" stroke="midnightblue" points="1382.8,-454.61 1392.08,-449.49 1381.63,-447.71 1382.8,-454.61"/>
</g>
<!-- Node10 -->
<g id="node10" class="node">
<title>Node10</title>
<g id="a_node10"><a xlink:href="../../d6/d27/class_t___m_e_s_h_1_1_basic___t_mesh.html#a1270b60eec84c1f939d405d9ade1a94e" target="_top" xlink:title="Iteratively call strongDegeneracyRemoval and strongIntersectionRemoval to produce an eventually clean...">
<polygon fill="white" stroke="black" points="684,-313.5 684,-343.5 807,-343.5 807,-313.5 684,-313.5"/>
<text text-anchor="start" x="692" y="-331.5" font-family="Helvetica,sans-Serif" font-size="10.00">T_MESH::Basic_TMesh</text>
<text text-anchor="middle" x="745.5" y="-320.5" font-family="Helvetica,sans-Serif" font-size="10.00">::meshclean</text>
</a>
</g>
</g>
<!-- Node9&#45;&gt;Node10 -->
<g id="edge9" class="edge">
<title>Node9&#45;&gt;Node10</title>
<path fill="none" stroke="midnightblue" d="M874.95,-396.59C844.61,-380.51 802.55,-358.21 774.94,-343.58"/>
<polygon fill="midnightblue" stroke="midnightblue" points="873.49,-399.78 883.96,-401.37 876.77,-393.6 873.49,-399.78"/>
</g>
<!-- Node11 -->
<g id="node11" class="node">
<title>Node11</title>
<g id="a_node11"><a xlink:href="../../d2/d68/class_export_open_scad_tool.html#a6e48e9b58a764bc8032b1fbc4082603d" target="_top" xlink:title=" ">
<polygon fill="white" stroke="black" points="533,-357.5 533,-387.5 642,-387.5 642,-357.5 533,-357.5"/>
<text text-anchor="start" x="541" y="-375.5" font-family="Helvetica,sans-Serif" font-size="10.00">ExportOpenScadTool</text>
<text text-anchor="middle" x="587.5" y="-364.5" font-family="Helvetica,sans-Serif" font-size="10.00">::fixMesh</text>
</a>
</g>
</g>
<!-- Node10&#45;&gt;Node11 -->
<g id="edge10" class="edge">
<title>Node10&#45;&gt;Node11</title>
<path fill="none" stroke="midnightblue" d="M681.35,-346.31C668.22,-350.02 654.51,-353.88 641.77,-357.47"/>
<polygon fill="midnightblue" stroke="midnightblue" points="682.58,-349.6 691.25,-343.52 680.68,-342.87 682.58,-349.6"/>
</g>
<!-- Node16 -->
<g id="node16" class="node">
<title>Node16</title>
<g id="a_node16"><a xlink:href="../../dd/d00/class_export_s_t_l_tool.html#a82d1e11c365c1ed2adf6d831b7f6014f" target="_top" xlink:title=" ">
<polygon fill="white" stroke="black" points="527,-319 527,-338 648,-338 648,-319 527,-319"/>
<text text-anchor="middle" x="587.5" y="-326" font-family="Helvetica,sans-Serif" font-size="10.00">ExportSTLTool::fixMesh</text>
</a>
</g>
</g>
<!-- Node10&#45;&gt;Node16 -->
<g id="edge17" class="edge">
<title>Node10&#45;&gt;Node16</title>
<path fill="none" stroke="midnightblue" d="M673.47,-328.5C664.98,-328.5 656.38,-328.5 648.07,-328.5"/>
<polygon fill="midnightblue" stroke="midnightblue" points="673.74,-332 683.74,-328.5 673.74,-325 673.74,-332"/>
</g>
<!-- Node18 -->
<g id="node18" class="node">
<title>Node18</title>
<g id="a_node18"><a xlink:href="../../d9/dc6/class_main_window.html#a15f9fa9fe71b50669ecf5f5a3a1ce90e" target="_top" xlink:title="Import STL / OBJ mesh into the scene.">
<polygon fill="white" stroke="black" points="527,-192 527,-211 648,-211 648,-192 527,-192"/>
<text text-anchor="middle" x="587.5" y="-199" font-family="Helvetica,sans-Serif" font-size="10.00">MainWindow::loadMesh</text>
</a>
</g>
</g>
<!-- Node10&#45;&gt;Node18 -->
<g id="edge19" class="edge">
<title>Node10&#45;&gt;Node18</title>
<path fill="none" stroke="midnightblue" d="M717.8,-306.77C683.43,-278.79 625.18,-231.36 600.32,-211.12"/>
<polygon fill="midnightblue" stroke="midnightblue" points="716.03,-309.83 725.99,-313.43 720.45,-304.4 716.03,-309.83"/>
</g>
<!-- Node12 -->
<g id="node12" class="node">
<title>Node12</title>
<g id="a_node12"><a xlink:href="../../d2/d68/class_export_open_scad_tool.html#a2e36901501e307b74705aa84f4227d67" target="_top" xlink:title="Export the wiring in the openscad format.">
<polygon fill="white" stroke="black" points="362,-372.5 362,-402.5 471,-402.5 471,-372.5 362,-372.5"/>
<text text-anchor="start" x="370" y="-390.5" font-family="Helvetica,sans-Serif" font-size="10.00">ExportOpenScadTool</text>
<text text-anchor="middle" x="416.5" y="-379.5" font-family="Helvetica,sans-Serif" font-size="10.00">::writeWiring</text>
</a>
</g>
</g>
<!-- Node11&#45;&gt;Node12 -->
<g id="edge11" class="edge">
<title>Node11&#45;&gt;Node12</title>
<path fill="none" stroke="midnightblue" d="M522.25,-378.2C505.42,-379.7 487.44,-381.29 471.21,-382.73"/>
<polygon fill="midnightblue" stroke="midnightblue" points="522.91,-381.66 532.56,-377.29 522.29,-374.69 522.91,-381.66"/>
</g>
<!-- Node13 -->
<g id="node13" class="node">
<title>Node13</title>
<g id="a_node13"><a xlink:href="../../d2/d68/class_export_open_scad_tool.html#a71ef67a238fb9cd74563b65d77c1ea73" target="_top" xlink:title=" ">
<polygon fill="white" stroke="black" points="13,-372.5 13,-402.5 122,-402.5 122,-372.5 13,-372.5"/>
<text text-anchor="start" x="21" y="-390.5" font-family="Helvetica,sans-Serif" font-size="10.00">ExportOpenScadTool</text>
<text text-anchor="middle" x="67.5" y="-379.5" font-family="Helvetica,sans-Serif" font-size="10.00">::execute</text>
</a>
</g>
</g>
<!-- Node12&#45;&gt;Node13 -->
<g id="edge12" class="edge">
<title>Node12&#45;&gt;Node13</title>
<path fill="none" stroke="midnightblue" d="M351.72,-371.1C336.82,-367.94 320.93,-365.12 306,-363.5 246.35,-357.04 230.6,-356.62 171,-363.5 154.93,-365.36 137.72,-368.8 122.08,-372.51"/>
<polygon fill="midnightblue" stroke="midnightblue" points="351.34,-374.6 361.86,-373.32 352.84,-367.76 351.34,-374.6"/>
</g>
<!-- Node14 -->
<g id="node14" class="node">
<title>Node14</title>
<g id="a_node14"><a xlink:href="../../d2/d68/class_export_open_scad_tool.html#a9c35cf64ece9ee328df6ebfd080c0689" target="_top" xlink:title="Export the meshdifference between mesh and wiring in the openscad format.">
<polygon fill="white" stroke="black" points="184,-421.5 184,-451.5 293,-451.5 293,-421.5 184,-421.5"/>
<text text-anchor="start" x="192" y="-439.5" font-family="Helvetica,sans-Serif" font-size="10.00">ExportOpenScadTool</text>
<text text-anchor="middle" x="238.5" y="-428.5" font-family="Helvetica,sans-Serif" font-size="10.00">::writeDifference</text>
</a>
</g>
</g>
<!-- Node12&#45;&gt;Node14 -->
<g id="edge13" class="edge">
<title>Node12&#45;&gt;Node14</title>
<path fill="none" stroke="midnightblue" d="M351.86,-405.22C332.64,-410.57 311.74,-416.39 293.24,-421.54"/>
<polygon fill="midnightblue" stroke="midnightblue" points="353.04,-408.52 361.74,-402.47 351.17,-401.78 353.04,-408.52"/>
</g>
<!-- Node15 -->
<g id="node15" class="node">
<title>Node15</title>
<g id="a_node15"><a xlink:href="../../d2/d68/class_export_open_scad_tool.html#adc9cf506ecd2ef6e33f37f2eb206da1a" target="_top" xlink:title="Export the meshdifference between mesh and magnets in the openscad format.">
<polygon fill="white" stroke="black" points="176,-372.5 176,-402.5 301,-402.5 301,-372.5 176,-372.5"/>
<text text-anchor="start" x="184" y="-390.5" font-family="Helvetica,sans-Serif" font-size="10.00">ExportOpenScadTool</text>
<text text-anchor="middle" x="238.5" y="-379.5" font-family="Helvetica,sans-Serif" font-size="10.00">::writeDifferenceMagnets</text>
</a>
</g>
</g>
<!-- Node12&#45;&gt;Node15 -->
<g id="edge15" class="edge">
<title>Node12&#45;&gt;Node15</title>
<path fill="none" stroke="midnightblue" d="M351.68,-387.5C335.24,-387.5 317.59,-387.5 301.25,-387.5"/>
<polygon fill="midnightblue" stroke="midnightblue" points="351.74,-391 361.74,-387.5 351.74,-384 351.74,-391"/>
</g>
<!-- Node14&#45;&gt;Node13 -->
<g id="edge14" class="edge">
<title>Node14&#45;&gt;Node13</title>
<path fill="none" stroke="midnightblue" d="M175.78,-418.61C157.61,-413.34 137.91,-407.62 120.41,-402.55"/>
<polygon fill="midnightblue" stroke="midnightblue" points="174.84,-421.98 185.42,-421.4 176.79,-415.25 174.84,-421.98"/>
</g>
<!-- Node15&#45;&gt;Node13 -->
<g id="edge16" class="edge">
<title>Node15&#45;&gt;Node13</title>
<path fill="none" stroke="midnightblue" d="M165.13,-387.5C150.69,-387.5 135.77,-387.5 122.11,-387.5"/>
<polygon fill="midnightblue" stroke="midnightblue" points="165.53,-391 175.53,-387.5 165.53,-384 165.53,-391"/>
</g>
<!-- Node17 -->
<g id="node17" class="node">
<title>Node17</title>
<g id="a_node17"><a xlink:href="../../dd/d00/class_export_s_t_l_tool.html#a218420198ac8fef5b9f9a8acc889307d" target="_top" xlink:title=" ">
<polygon fill="white" stroke="black" points="356,-334 356,-353 477,-353 477,-334 356,-334"/>
<text text-anchor="middle" x="416.5" y="-341" font-family="Helvetica,sans-Serif" font-size="10.00">ExportSTLTool::execute</text>
</a>
</g>
</g>
<!-- Node16&#45;&gt;Node17 -->
<g id="edge18" class="edge">
<title>Node16&#45;&gt;Node17</title>
<path fill="none" stroke="midnightblue" d="M516.93,-334.67C503.71,-335.85 489.99,-337.07 477.11,-338.21"/>
<polygon fill="midnightblue" stroke="midnightblue" points="517.27,-338.16 526.92,-333.79 516.65,-331.19 517.27,-338.16"/>
</g>
<!-- Node19 -->
<g id="node19" class="node">
<title>Node19</title>
<g id="a_node19"><a xlink:href="../../d9/dc6/class_main_window.html#a6e3c9bc26115fb1b1664607e58716641" target="_top" xlink:title=" ">
<polygon fill="white" stroke="black" points="343.5,-148 343.5,-167 489.5,-167 489.5,-148 343.5,-148"/>
<text text-anchor="middle" x="416.5" y="-155" font-family="Helvetica,sans-Serif" font-size="10.00">MainWindow::slotImportMesh</text>
</a>
</g>
</g>
<!-- Node18&#45;&gt;Node19 -->
<g id="edge20" class="edge">
<title>Node18&#45;&gt;Node19</title>
<path fill="none" stroke="midnightblue" d="M540.26,-189.37C524.62,-185.27 507.06,-180.68 491,-176.5 479.14,-173.41 466.19,-170.06 454.52,-167.05"/>
<polygon fill="midnightblue" stroke="midnightblue" points="539.67,-192.83 550.23,-191.98 541.44,-186.06 539.67,-192.83"/>
</g>
<!-- Node22 -->
<g id="node22" class="node">
<title>Node22</title>
<g id="a_node22"><a xlink:href="../../d9/dc6/class_main_window.html#a46bb2fea8ddeab75e15a223c291116b6" target="_top" xlink:title=" ">
<polygon fill="white" stroke="black" points="342,-98.5 342,-128.5 491,-128.5 491,-98.5 342,-98.5"/>
<text text-anchor="start" x="350" y="-116.5" font-family="Helvetica,sans-Serif" font-size="10.00">MainWindow::slotOptimization</text>
<text text-anchor="middle" x="416.5" y="-105.5" font-family="Helvetica,sans-Serif" font-size="10.00">BenchmarkBunnyLowPoly</text>
</a>
</g>
</g>
<!-- Node18&#45;&gt;Node22 -->
<g id="edge23" class="edge">
<title>Node18&#45;&gt;Node22</title>
<path fill="none" stroke="midnightblue" d="M566.06,-185.78C547.32,-171.93 518.41,-151.93 491,-138.5 483.62,-134.88 475.58,-131.57 467.62,-128.62"/>
<polygon fill="midnightblue" stroke="midnightblue" points="564.05,-188.65 574.15,-191.85 568.25,-183.05 564.05,-188.65"/>
</g>
<!-- Node23 -->
<g id="node23" class="node">
<title>Node23</title>
<g id="a_node23"><a xlink:href="../../d9/dc6/class_main_window.html#affed0fab82fd390e2762933c6dca9124" target="_top" xlink:title=" ">
<polygon fill="white" stroke="black" points="342,-49.5 342,-79.5 491,-79.5 491,-49.5 342,-49.5"/>
<text text-anchor="start" x="350" y="-67.5" font-family="Helvetica,sans-Serif" font-size="10.00">MainWindow::slotOptimization</text>
<text text-anchor="middle" x="416.5" y="-56.5" font-family="Helvetica,sans-Serif" font-size="10.00">BenchmarkCorona</text>
</a>
</g>
</g>
<!-- Node18&#45;&gt;Node23 -->
<g id="edge25" class="edge">
<title>Node18&#45;&gt;Node23</title>
<path fill="none" stroke="midnightblue" d="M575.49,-182.93C559.78,-157.97 528.62,-113.82 491,-88.5 485.99,-85.13 480.47,-82.2 474.77,-79.66"/>
<polygon fill="midnightblue" stroke="midnightblue" points="572.7,-185.07 580.91,-191.76 578.66,-181.41 572.7,-185.07"/>
</g>
<!-- Node24 -->
<g id="node24" class="node">
<title>Node24</title>
<g id="a_node24"><a xlink:href="../../d9/dc6/class_main_window.html#adfdb8fcb8685844e8ce11bfb41b83b7d" target="_top" xlink:title=" ">
<polygon fill="white" stroke="black" points="342,-0.5 342,-30.5 491,-30.5 491,-0.5 342,-0.5"/>
<text text-anchor="start" x="350" y="-18.5" font-family="Helvetica,sans-Serif" font-size="10.00">MainWindow::slotOptimization</text>
<text text-anchor="middle" x="416.5" y="-7.5" font-family="Helvetica,sans-Serif" font-size="10.00">BenchmarkCthulhu</text>
</a>
</g>
</g>
<!-- Node18&#45;&gt;Node24 -->
<g id="edge27" class="edge">
<title>Node18&#45;&gt;Node24</title>
<path fill="none" stroke="midnightblue" d="M580.28,-182.23C568.38,-148.39 539.23,-78.25 491,-39.5 486.71,-36.05 481.91,-33.09 476.87,-30.56"/>
<polygon fill="midnightblue" stroke="midnightblue" points="577.01,-183.5 583.53,-191.85 583.64,-181.25 577.01,-183.5"/>
</g>
<!-- Node25 -->
<g id="node25" class="node">
<title>Node25</title>
<g id="a_node25"><a xlink:href="../../d9/dc6/class_main_window.html#a5283a0d7aeeafd409c69b272053f3986" target="_top" xlink:title=" ">
<polygon fill="white" stroke="black" points="342,-284.5 342,-314.5 491,-314.5 491,-284.5 342,-284.5"/>
<text text-anchor="start" x="350" y="-302.5" font-family="Helvetica,sans-Serif" font-size="10.00">MainWindow::slotOptimization</text>
<text text-anchor="middle" x="416.5" y="-291.5" font-family="Helvetica,sans-Serif" font-size="10.00">BenchmarkCube</text>
</a>
</g>
</g>
<!-- Node18&#45;&gt;Node25 -->
<g id="edge29" class="edge">
<title>Node18&#45;&gt;Node25</title>
<path fill="none" stroke="midnightblue" d="M568.86,-217.83C550.56,-234.06 520.54,-258.74 491,-274.5 484.1,-278.18 476.56,-281.48 469.01,-284.37"/>
<polygon fill="midnightblue" stroke="midnightblue" points="571.31,-220.33 576.4,-211.04 566.63,-215.13 571.31,-220.33"/>
</g>
<!-- Node26 -->
<g id="node26" class="node">
<title>Node26</title>
<g id="a_node26"><a xlink:href="../../d9/dc6/class_main_window.html#a0c92ca2d04a79a1580c2e8e136b82682" target="_top" xlink:title=" ">
<polygon fill="white" stroke="black" points="342,-235.5 342,-265.5 491,-265.5 491,-235.5 342,-235.5"/>
<text text-anchor="start" x="350" y="-253.5" font-family="Helvetica,sans-Serif" font-size="10.00">MainWindow::slotOptimization</text>
<text text-anchor="middle" x="416.5" y="-242.5" font-family="Helvetica,sans-Serif" font-size="10.00">BenchmarkSphere</text>
</a>
</g>
</g>
<!-- Node18&#45;&gt;Node26 -->
<g id="edge31" class="edge">
<title>Node18&#45;&gt;Node26</title>
<path fill="none" stroke="midnightblue" d="M543.85,-213.87C521.22,-220.43 493.24,-228.54 469.36,-235.46"/>
<polygon fill="midnightblue" stroke="midnightblue" points="544.88,-217.21 553.51,-211.06 542.93,-210.49 544.88,-217.21"/>
</g>
<!-- Node27 -->
<g id="node27" class="node">
<title>Node27</title>
<g id="a_node27"><a xlink:href="../../d9/dc6/class_main_window.html#a86cd359f80311725589d0861dd7a9851" target="_top" xlink:title=" ">
<polygon fill="white" stroke="black" points="342,-186.5 342,-216.5 491,-216.5 491,-186.5 342,-186.5"/>
<text text-anchor="start" x="350" y="-204.5" font-family="Helvetica,sans-Serif" font-size="10.00">MainWindow::slotOptimization</text>
<text text-anchor="middle" x="416.5" y="-193.5" font-family="Helvetica,sans-Serif" font-size="10.00">BenchmarkUChannel</text>
</a>
</g>
</g>
<!-- Node18&#45;&gt;Node27 -->
<g id="edge33" class="edge">
<title>Node18&#45;&gt;Node27</title>
<path fill="none" stroke="midnightblue" d="M516.71,-201.5C508.25,-201.5 499.58,-201.5 491.06,-201.5"/>
<polygon fill="midnightblue" stroke="midnightblue" points="516.92,-205 526.92,-201.5 516.92,-198 516.92,-205"/>
</g>
<!-- Node20 -->
<g id="node20" class="node">
<title>Node20</title>
<g id="a_node20"><a xlink:href="../../d9/dc6/class_main_window.html#a33dddfc15db4053f9117728538e7ece4" target="_top" xlink:title="Set up qt specific signal and slots part for enabling user interaction.">
<polygon fill="white" stroke="black" points="171,-142.5 171,-172.5 306,-172.5 306,-142.5 171,-142.5"/>
<text text-anchor="start" x="179" y="-160.5" font-family="Helvetica,sans-Serif" font-size="10.00">MainWindow::setupSignals</text>
<text text-anchor="middle" x="238.5" y="-149.5" font-family="Helvetica,sans-Serif" font-size="10.00">AndSlots</text>
</a>
</g>
</g>
<!-- Node19&#45;&gt;Node20 -->
<g id="edge21" class="edge">
<title>Node19&#45;&gt;Node20</title>
<path fill="none" stroke="midnightblue" d="M333.21,-157.5C324.12,-157.5 314.96,-157.5 306.1,-157.5"/>
<polygon fill="midnightblue" stroke="midnightblue" points="333.41,-161 343.41,-157.5 333.41,-154 333.41,-161"/>
</g>
<!-- Node21 -->
<g id="node21" class="node">
<title>Node21</title>
<g id="a_node21"><a xlink:href="../../d9/dc6/class_main_window.html#a996c5a2b6f77944776856f08ec30858d" target="_top" xlink:title=" ">
<polygon fill="white" stroke="black" points="0,-148 0,-167 135,-167 135,-148 0,-148"/>
<text text-anchor="middle" x="67.5" y="-155" font-family="Helvetica,sans-Serif" font-size="10.00">MainWindow::MainWindow</text>
</a>
</g>
</g>
<!-- Node20&#45;&gt;Node21 -->
<g id="edge22" class="edge">
<title>Node20&#45;&gt;Node21</title>
<path fill="none" stroke="midnightblue" d="M160.45,-157.5C151.98,-157.5 143.41,-157.5 135.08,-157.5"/>
<polygon fill="midnightblue" stroke="midnightblue" points="160.71,-161 170.71,-157.5 160.71,-154 160.71,-161"/>
</g>
<!-- Node22&#45;&gt;Node20 -->
<g id="edge24" class="edge">
<title>Node22&#45;&gt;Node20</title>
<path fill="none" stroke="midnightblue" d="M345.56,-130.99C330.35,-134.79 314.39,-138.78 299.6,-142.47"/>
<polygon fill="midnightblue" stroke="midnightblue" points="346.57,-134.34 355.42,-128.52 344.87,-127.55 346.57,-134.34"/>
</g>
<!-- Node23&#45;&gt;Node20 -->
<g id="edge26" class="edge">
<title>Node23&#45;&gt;Node20</title>
<path fill="none" stroke="midnightblue" d="M353.83,-83.22C349.78,-84.88 345.8,-86.65 342,-88.5 310.96,-103.65 278.42,-127.03 258.55,-142.3"/>
<polygon fill="midnightblue" stroke="midnightblue" points="355.32,-86.4 363.38,-79.52 352.79,-79.87 355.32,-86.4"/>
</g>
<!-- Node24&#45;&gt;Node20 -->
<g id="edge28" class="edge">
<title>Node24&#45;&gt;Node20</title>
<path fill="none" stroke="midnightblue" d="M349.55,-34.99C346.94,-36.4 344.41,-37.9 342,-39.5 299.94,-67.4 264.89,-117.05 248.87,-142.11"/>
<polygon fill="midnightblue" stroke="midnightblue" points="351.19,-38.08 358.65,-30.56 348.13,-31.79 351.19,-38.08"/>
</g>
<!-- Node25&#45;&gt;Node20 -->
<g id="edge30" class="edge">
<title>Node25&#45;&gt;Node20</title>
<path fill="none" stroke="midnightblue" d="M351.28,-280C348.06,-278.3 344.95,-276.47 342,-274.5 300.25,-246.57 265.06,-197.46 248.94,-172.69"/>
<polygon fill="midnightblue" stroke="midnightblue" points="350.05,-283.29 360.58,-284.43 353.06,-276.97 350.05,-283.29"/>
</g>
<!-- Node26&#45;&gt;Node20 -->
<g id="edge32" class="edge">
<title>Node26&#45;&gt;Node20</title>
<path fill="none" stroke="midnightblue" d="M355.68,-231.62C350.99,-229.7 346.38,-227.65 342,-225.5 311.34,-210.43 278.96,-187.63 258.99,-172.66"/>
<polygon fill="midnightblue" stroke="midnightblue" points="354.79,-235.03 365.37,-235.39 357.33,-228.5 354.79,-235.03"/>
</g>
<!-- Node27&#45;&gt;Node20 -->
<g id="edge34" class="edge">
<title>Node27&#45;&gt;Node20</title>
<path fill="none" stroke="midnightblue" d="M345.56,-184.01C330.35,-180.21 314.39,-176.22 299.6,-172.53"/>
<polygon fill="midnightblue" stroke="midnightblue" points="344.87,-187.45 355.42,-186.48 346.57,-180.66 344.87,-187.45"/>
</g>
<!-- Node29 -->
<g id="node29" class="node">
<title>Node29</title>
<g id="a_node29"><a xlink:href="../../da/da2/class_t___m_e_s_h_1_1_edge.html#a69732ceedf860b233ba902e2395b059f" target="_top" xlink:title="Return the minimum among the six angles of the two incident triangles.2PI if on boundary.">
<polygon fill="white" stroke="black" points="1392,-367.5 1392,-397.5 1538,-397.5 1538,-367.5 1392,-367.5"/>
<text text-anchor="start" x="1400" y="-385.5" font-family="Helvetica,sans-Serif" font-size="10.00">T_MESH::Edge::delaunayMin</text>
<text text-anchor="middle" x="1465" y="-374.5" font-family="Helvetica,sans-Serif" font-size="10.00">Angle</text>
</a>
</g>
</g>
<!-- Node28&#45;&gt;Node29 -->
<g id="edge36" class="edge">
<title>Node28&#45;&gt;Node29</title>
<path fill="none" stroke="midnightblue" d="M1579.84,-370.01C1565.99,-371.53 1551.79,-373.09 1538.33,-374.56"/>
<polygon fill="midnightblue" stroke="midnightblue" points="1580.28,-373.48 1589.84,-368.91 1579.52,-366.52 1580.28,-373.48"/>
</g>
<!-- Node37 -->
<g id="node37" class="node">
<title>Node37</title>
<g id="a_node37"><a xlink:href="../../d8/d6e/class_t___m_e_s_h_1_1_triangle.html#a6722eddadfc9440f4ea9a45866dbfeba" target="_top" xlink:title="Returns the longest edge of the triangle.">
<polygon fill="white" stroke="black" points="1378,-291 1378,-310 1552,-310 1552,-291 1378,-291"/>
<text text-anchor="middle" x="1465" y="-298" font-family="Helvetica,sans-Serif" font-size="10.00">T_MESH::Triangle::getLongestEdge</text>
</a>
</g>
</g>
<!-- Node28&#45;&gt;Node37 -->
<g id="edge49" class="edge">
<title>Node28&#45;&gt;Node37</title>
<path fill="none" stroke="midnightblue" d="M1627.25,-347.81C1605.19,-340.77 1577.12,-331.95 1552,-324.5 1535.36,-319.56 1516.81,-314.35 1501.22,-310.05"/>
<polygon fill="midnightblue" stroke="midnightblue" points="1626.33,-351.19 1636.93,-350.91 1628.47,-344.53 1626.33,-351.19"/>
</g>
<!-- Node38 -->
<g id="node38" class="node">
<title>Node38</title>
<g id="a_node38"><a xlink:href="../../d6/d27/class_t___m_e_s_h_1_1_basic___t_mesh.html#ab634754175f6dba92fa233df6a2e45ff" target="_top" xlink:title="Takes a selected region and inserts inner vertices to reproduce the sampling density of the surroundi...">
<polygon fill="white" stroke="black" points="1201,-291.5 1201,-321.5 1342,-321.5 1342,-291.5 1201,-291.5"/>
<text text-anchor="start" x="1209" y="-309.5" font-family="Helvetica,sans-Serif" font-size="10.00">T_MESH::Basic_TMesh</text>
<text text-anchor="middle" x="1271.5" y="-298.5" font-family="Helvetica,sans-Serif" font-size="10.00">::refineSelectedHolePatches</text>
</a>
</g>
</g>
<!-- Node28&#45;&gt;Node38 -->
<g id="edge50" class="edge">
<title>Node28&#45;&gt;Node38</title>
<path fill="none" stroke="midnightblue" d="M1586.63,-349.55C1514.95,-339.73 1410.76,-325.45 1342.33,-316.07"/>
<polygon fill="midnightblue" stroke="midnightblue" points="1586.58,-353.08 1596.97,-350.97 1587.54,-346.14 1586.58,-353.08"/>
</g>
<!-- Node30 -->
<g id="node30" class="node">
<title>Node30</title>
<g id="a_node30"><a xlink:href="../../d6/d27/class_t___m_e_s_h_1_1_basic___t_mesh.html#a4e21f75df1c237f565bf232e0cd73b74" target="_top" xlink:title="Iteratively swaps edges to minimize the Delaunay minimum angle. O(N).">
<polygon fill="white" stroke="black" points="1210,-340.5 1210,-370.5 1333,-370.5 1333,-340.5 1210,-340.5"/>
<text text-anchor="start" x="1218" y="-358.5" font-family="Helvetica,sans-Serif" font-size="10.00">T_MESH::Basic_TMesh</text>
<text text-anchor="middle" x="1271.5" y="-347.5" font-family="Helvetica,sans-Serif" font-size="10.00">::iterativeEdgeSwaps</text>
</a>
</g>
</g>
<!-- Node29&#45;&gt;Node30 -->
<g id="edge37" class="edge">
<title>Node29&#45;&gt;Node30</title>
<path fill="none" stroke="midnightblue" d="M1381.82,-370.91C1365.54,-368.62 1348.72,-366.25 1333.3,-364.07"/>
<polygon fill="midnightblue" stroke="midnightblue" points="1381.48,-374.4 1391.87,-372.33 1382.46,-367.47 1381.48,-374.4"/>
</g>
<!-- Node31 -->
<g id="node31" class="node">
<title>Node31</title>
<g id="a_node31"><a xlink:href="../../d6/d27/class_t___m_e_s_h_1_1_basic___t_mesh.html#ada33175ee7e873107f23ece56353ffd1" target="_top" xlink:title="Creates a triangulation whose projection on the plane with normal &#39;nor&#39; is Delaunay.">
<polygon fill="white" stroke="black" points="1210,-389.5 1210,-419.5 1333,-419.5 1333,-389.5 1210,-389.5"/>
<text text-anchor="start" x="1218" y="-407.5" font-family="Helvetica,sans-Serif" font-size="10.00">T_MESH::Basic_TMesh</text>
<text text-anchor="middle" x="1271.5" y="-396.5" font-family="Helvetica,sans-Serif" font-size="10.00">::TriangulateHole</text>
</a>
</g>
</g>
<!-- Node29&#45;&gt;Node31 -->
<g id="edge38" class="edge">
<title>Node29&#45;&gt;Node31</title>
<path fill="none" stroke="midnightblue" d="M1381.82,-391.94C1365.54,-393.81 1348.72,-395.74 1333.3,-397.52"/>
<polygon fill="midnightblue" stroke="midnightblue" points="1382.34,-395.4 1391.87,-390.79 1381.54,-388.45 1382.34,-395.4"/>
</g>
<!-- Node32 -->
<g id="node32" class="node">
<title>Node32</title>
<g id="a_node32"><a xlink:href="../../d6/d27/class_t___m_e_s_h_1_1_basic___t_mesh.html#a5d522c7bb892873b10efb533a4e94b94" target="_top" xlink:title="Hole filling algorithm.">
<polygon fill="white" stroke="black" points="1031,-340.5 1031,-370.5 1154,-370.5 1154,-340.5 1031,-340.5"/>
<text text-anchor="start" x="1039" y="-358.5" font-family="Helvetica,sans-Serif" font-size="10.00">T_MESH::Basic_TMesh</text>
<text text-anchor="middle" x="1092.5" y="-347.5" font-family="Helvetica,sans-Serif" font-size="10.00">::FillHole</text>
</a>
</g>
</g>
<!-- Node31&#45;&gt;Node32 -->
<g id="edge39" class="edge">
<title>Node31&#45;&gt;Node32</title>
<path fill="none" stroke="midnightblue" d="M1206.13,-386.68C1187.01,-381.39 1166.28,-375.65 1147.87,-370.55"/>
<polygon fill="midnightblue" stroke="midnightblue" points="1205.38,-390.1 1215.95,-389.4 1207.25,-383.36 1205.38,-390.1"/>
</g>
<!-- Node33 -->
<g id="node33" class="node">
<title>Node33</title>
<g id="a_node33"><a xlink:href="../../d6/d27/class_t___m_e_s_h_1_1_basic___t_mesh.html#a24c4a4f93e50ac97dbeed1576c2aeb62" target="_top" xlink:title="Fills all the holes having at least &#39;nbe&#39; boundary edges.">
<polygon fill="white" stroke="black" points="1031,-291.5 1031,-321.5 1154,-321.5 1154,-291.5 1031,-291.5"/>
<text text-anchor="start" x="1039" y="-309.5" font-family="Helvetica,sans-Serif" font-size="10.00">T_MESH::Basic_TMesh</text>
<text text-anchor="middle" x="1092.5" y="-298.5" font-family="Helvetica,sans-Serif" font-size="10.00">::fillSmallBoundaries</text>
</a>
</g>
</g>
<!-- Node31&#45;&gt;Node33 -->
<g id="edge40" class="edge">
<title>Node31&#45;&gt;Node33</title>
<path fill="none" stroke="midnightblue" d="M1206.87,-384.43C1204.84,-383.19 1202.88,-381.88 1201,-380.5 1179.24,-364.47 1186.73,-347.57 1165,-331.5 1159.82,-327.67 1154,-324.39 1147.98,-321.59"/>
<polygon fill="midnightblue" stroke="midnightblue" points="1205.65,-387.75 1216.11,-389.41 1208.97,-381.58 1205.65,-387.75"/>
</g>
<!-- Node35 -->
<g id="node35" class="node">
<title>Node35</title>
<g id="a_node35"><a xlink:href="../../d6/d27/class_t___m_e_s_h_1_1_basic___t_mesh.html#a11e0d5c044e95b01e3cc8beb77c60f8f" target="_top" xlink:title="Re&#45;triangulates the currently selected region using a Delaunay&#45;like approach. O(SlogS).">
<polygon fill="white" stroke="black" points="1020,-438.5 1020,-468.5 1165,-468.5 1165,-438.5 1020,-438.5"/>
<text text-anchor="start" x="1028" y="-456.5" font-family="Helvetica,sans-Serif" font-size="10.00">T_MESH::Basic_TMesh</text>
<text text-anchor="middle" x="1092.5" y="-445.5" font-family="Helvetica,sans-Serif" font-size="10.00">::retriangulateSelectedRegion</text>
</a>
</g>
</g>
<!-- Node31&#45;&gt;Node35 -->
<g id="edge47" class="edge">
<title>Node31&#45;&gt;Node35</title>
<path fill="none" stroke="midnightblue" d="M1206.13,-422.32C1187.01,-427.61 1166.28,-433.35 1147.87,-438.45"/>
<polygon fill="midnightblue" stroke="midnightblue" points="1207.25,-425.64 1215.95,-419.6 1205.38,-418.9 1207.25,-425.64"/>
</g>
<!-- Node36 -->
<g id="node36" class="node">
<title>Node36</title>
<g id="a_node36"><a xlink:href="../../d6/d27/class_t___m_e_s_h_1_1_basic___t_mesh.html#a6c419b3b7ebd44fca9fdc7a048ff7b52" target="_top" xlink:title="Retriangulates the vertex neghborhood based on heuristics.">
<polygon fill="white" stroke="black" points="1031,-389.5 1031,-419.5 1154,-419.5 1154,-389.5 1031,-389.5"/>
<text text-anchor="start" x="1039" y="-407.5" font-family="Helvetica,sans-Serif" font-size="10.00">T_MESH::Basic_TMesh</text>
<text text-anchor="middle" x="1092.5" y="-396.5" font-family="Helvetica,sans-Serif" font-size="10.00">::retriangulateVT</text>
</a>
</g>
</g>
<!-- Node31&#45;&gt;Node36 -->
<g id="edge48" class="edge">
<title>Node31&#45;&gt;Node36</title>
<path fill="none" stroke="midnightblue" d="M1199.36,-404.5C1184.41,-404.5 1168.76,-404.5 1154.23,-404.5"/>
<polygon fill="midnightblue" stroke="midnightblue" points="1199.59,-408 1209.59,-404.5 1199.59,-401 1199.59,-408"/>
</g>
<!-- Node33&#45;&gt;Node9 -->
<g id="edge44" class="edge">
<title>Node33&#45;&gt;Node9</title>
<path fill="none" stroke="midnightblue" d="M1027.22,-326.5C1024.7,-328.05 1022.28,-329.72 1020,-331.5 996.99,-349.5 1006.36,-367.69 984,-386.5 976.96,-392.42 968.57,-397.35 960.1,-401.38"/>
<polygon fill="midnightblue" stroke="midnightblue" points="1028.98,-329.53 1036.08,-321.67 1025.62,-323.38 1028.98,-329.53"/>
</g>
<!-- Node33&#45;&gt;Node11 -->
<g id="edge41" class="edge">
<title>Node33&#45;&gt;Node11</title>
<path fill="none" stroke="midnightblue" d="M1034.74,-325.21C1029.71,-327.21 1024.73,-329.32 1020,-331.5 1003.18,-339.26 1001.75,-347.22 984,-352.5 866.05,-387.61 719.68,-383.4 642.31,-377.69"/>
<polygon fill="midnightblue" stroke="midnightblue" points="1036.36,-328.34 1044.45,-321.5 1033.86,-321.8 1036.36,-328.34"/>
</g>
<!-- Node33&#45;&gt;Node16 -->
<g id="edge42" class="edge">
<title>Node33&#45;&gt;Node16</title>
<path fill="none" stroke="midnightblue" d="M1020.63,-300.21C939.06,-294.3 801.26,-288.41 684,-303.5 661.22,-306.43 636.12,-313.14 617.38,-318.88"/>
<polygon fill="midnightblue" stroke="midnightblue" points="1020.55,-303.71 1030.78,-300.96 1021.07,-296.73 1020.55,-303.71"/>
</g>
<!-- Node33&#45;&gt;Node18 -->
<g id="edge43" class="edge">
<title>Node33&#45;&gt;Node18</title>
<path fill="none" stroke="midnightblue" d="M1020.97,-291.78C916.17,-269.9 722.25,-229.42 634.17,-211.03"/>
<polygon fill="midnightblue" stroke="midnightblue" points="1020.32,-295.22 1030.83,-293.83 1021.75,-288.36 1020.32,-295.22"/>
</g>
<!-- Node34 -->
<g id="node34" class="node">
<title>Node34</title>
<g id="a_node34"><a xlink:href="../../d6/d27/class_t___m_e_s_h_1_1_basic___t_mesh.html#a1415feaeb04556d7729a02f73b546ab1" target="_top" xlink:title="Removes all the intersecting triangles and patches the resulting holes.">
<polygon fill="white" stroke="black" points="843.5,-313.5 843.5,-343.5 983.5,-343.5 983.5,-313.5 843.5,-313.5"/>
<text text-anchor="start" x="851.5" y="-331.5" font-family="Helvetica,sans-Serif" font-size="10.00">T_MESH::Basic_TMesh</text>
<text text-anchor="middle" x="913.5" y="-320.5" font-family="Helvetica,sans-Serif" font-size="10.00">::strongIntersectionRemoval</text>
</a>
</g>
</g>
<!-- Node33&#45;&gt;Node34 -->
<g id="edge45" class="edge">
<title>Node33&#45;&gt;Node34</title>
<path fill="none" stroke="midnightblue" d="M1020.53,-315.32C1008.4,-316.83 995.81,-318.39 983.73,-319.9"/>
<polygon fill="midnightblue" stroke="midnightblue" points="1021.09,-318.78 1030.59,-314.07 1020.23,-311.83 1021.09,-318.78"/>
</g>
<!-- Node34&#45;&gt;Node10 -->
<g id="edge46" class="edge">
<title>Node34&#45;&gt;Node10</title>
<path fill="none" stroke="midnightblue" d="M832.95,-328.5C824.3,-328.5 815.59,-328.5 807.22,-328.5"/>
<polygon fill="midnightblue" stroke="midnightblue" points="833.06,-332 843.06,-328.5 833.06,-325 833.06,-332"/>
</g>
<!-- Node38&#45;&gt;Node32 -->
<g id="edge51" class="edge">
<title>Node38&#45;&gt;Node32</title>
<path fill="none" stroke="midnightblue" d="M1206.13,-324.32C1187.01,-329.61 1166.28,-335.35 1147.87,-340.45"/>
<polygon fill="midnightblue" stroke="midnightblue" points="1207.25,-327.64 1215.95,-321.6 1205.38,-320.9 1207.25,-327.64"/>
</g>
<!-- Node38&#45;&gt;Node33 -->
<g id="edge52" class="edge">
<title>Node38&#45;&gt;Node33</title>
<path fill="none" stroke="midnightblue" d="M1190.61,-306.5C1178.4,-306.5 1165.96,-306.5 1154.25,-306.5"/>
<polygon fill="midnightblue" stroke="midnightblue" points="1190.8,-310 1200.8,-306.5 1190.8,-303 1190.8,-310"/>
</g>
<!-- Node39 -->
<g id="node39" class="node">
<title>Node39</title>
<g id="a_node39"><a xlink:href="../../d6/d27/class_t___m_e_s_h_1_1_basic___t_mesh.html#a010c12b5c3406aefb5a3c730dd61923f" target="_top" xlink:title="Joins the two boundary vertices gv and gw through an edge.">
<polygon fill="white" stroke="black" points="1031,-242.5 1031,-272.5 1154,-272.5 1154,-242.5 1031,-242.5"/>
<text text-anchor="start" x="1039" y="-260.5" font-family="Helvetica,sans-Serif" font-size="10.00">T_MESH::Basic_TMesh</text>
<text text-anchor="middle" x="1092.5" y="-249.5" font-family="Helvetica,sans-Serif" font-size="10.00">::joinBoundaryLoops</text>
</a>
</g>
</g>
<!-- Node38&#45;&gt;Node39 -->
<g id="edge53" class="edge">
<title>Node38&#45;&gt;Node39</title>
<path fill="none" stroke="midnightblue" d="M1206.13,-288.68C1187.01,-283.39 1166.28,-277.65 1147.87,-272.55"/>
<polygon fill="midnightblue" stroke="midnightblue" points="1205.38,-292.1 1215.95,-291.4 1207.25,-285.36 1205.38,-292.1"/>
</g>
</g>
</svg>
