<?xml version="1.0" encoding="UTF-8" standalone="no"?>
<!DOCTYPE svg PUBLIC "-//W3C//DTD SVG 1.1//EN"
 "http://www.w3.org/Graphics/SVG/1.1/DTD/svg11.dtd">
<!-- Generated by graphviz version 2.44.1 (0)
 -->
<!-- Title: T_MESH::Point::innerSegmentsCross Pages: 1 -->
<svg width="639pt" height="78pt"
 viewBox="0.00 0.00 639.00 77.50" xmlns="http://www.w3.org/2000/svg" xmlns:xlink="http://www.w3.org/1999/xlink">
<g id="graph0" class="graph" transform="scale(1 1) rotate(0) translate(4 73.5)">
<title>T_MESH::Point::innerSegmentsCross</title>
<polygon fill="white" stroke="transparent" points="-4,4 -4,-73.5 635,-73.5 635,4 -4,4"/>
<!-- Node1 -->
<g id="node1" class="node">
<title>Node1</title>
<g id="a_node1"><a xlink:title="true if the interior of (p1&#45;p2) properly intersects the interior of (sp1&#45;sp2).">
<polygon fill="#bfbfbf" stroke="black" points="0,-22.5 0,-52.5 157,-52.5 157,-22.5 0,-22.5"/>
<text text-anchor="start" x="8" y="-40.5" font-family="Helvetica,sans-Serif" font-size="10.00">T_MESH::Point::innerSegments</text>
<text text-anchor="middle" x="78.5" y="-29.5" font-family="Helvetica,sans-Serif" font-size="10.00">Cross</text>
</a>
</g>
</g>
<!-- Node2 -->
<g id="node2" class="node">
<title>Node2</title>
<g id="a_node2"><a xlink:href="../../d2/d8e/class_t___m_e_s_h_1_1_point.html#a16ed7eb5cd98505d86668c4eb0590645" target="_top" xlink:title="Exact orientation test.">
<polygon fill="white" stroke="black" points="193,-50 193,-69 356,-69 356,-50 193,-50"/>
<text text-anchor="middle" x="274.5" y="-57" font-family="Helvetica,sans-Serif" font-size="10.00">T_MESH::Point::exactOrientation</text>
</a>
</g>
</g>
<!-- Node1&#45;&gt;Node2 -->
<g id="edge1" class="edge">
<title>Node1&#45;&gt;Node2</title>
<path fill="none" stroke="midnightblue" d="M157.01,-46.29C165.51,-47.25 174.21,-48.24 182.85,-49.22"/>
<polygon fill="midnightblue" stroke="midnightblue" points="182.61,-52.71 192.94,-50.36 183.4,-45.76 182.61,-52.71"/>
</g>
<!-- Node5 -->
<g id="node5" class="node">
<title>Node5</title>
<g id="a_node5"><a xlink:href="../../d2/d8e/class_t___m_e_s_h_1_1_point.html#a882a22d815f18d8327787012a120637c" target="_top" xlink:title="Exact planar side test.">
<polygon fill="white" stroke="black" points="204,-0.5 204,-30.5 345,-30.5 345,-0.5 204,-0.5"/>
<text text-anchor="start" x="212" y="-18.5" font-family="Helvetica,sans-Serif" font-size="10.00">T_MESH::Point::exactSame</text>
<text text-anchor="middle" x="274.5" y="-7.5" font-family="Helvetica,sans-Serif" font-size="10.00">SideOnPlane</text>
</a>
</g>
</g>
<!-- Node1&#45;&gt;Node5 -->
<g id="edge4" class="edge">
<title>Node1&#45;&gt;Node5</title>
<path fill="none" stroke="midnightblue" d="M157.01,-28.71C169.13,-27.34 181.68,-25.91 193.84,-24.53"/>
<polygon fill="midnightblue" stroke="midnightblue" points="194.42,-27.99 203.96,-23.39 193.63,-21.04 194.42,-27.99"/>
</g>
<!-- Node3 -->
<g id="node3" class="node">
<title>Node3</title>
<g id="a_node3"><a xlink:href="../../de/df9/namespace_t___m_e_s_h.html#a31d1470b87fab8f85b54af905e25d15a" target="_top" xlink:title=" ">
<polygon fill="white" stroke="black" points="392,-50 392,-69 492,-69 492,-50 392,-50"/>
<text text-anchor="middle" x="442" y="-57" font-family="Helvetica,sans-Serif" font-size="10.00">T_MESH::orient3D</text>
</a>
</g>
</g>
<!-- Node2&#45;&gt;Node3 -->
<g id="edge2" class="edge">
<title>Node2&#45;&gt;Node3</title>
<path fill="none" stroke="midnightblue" d="M356.31,-59.5C364.85,-59.5 373.42,-59.5 381.65,-59.5"/>
<polygon fill="midnightblue" stroke="midnightblue" points="381.86,-63 391.86,-59.5 381.86,-56 381.86,-63"/>
</g>
<!-- Node4 -->
<g id="node4" class="node">
<title>Node4</title>
<g id="a_node4"><a xlink:href="../../de/df9/namespace_t___m_e_s_h.html#ab2a541476dd63dc930853bddc4bf6969" target="_top" xlink:title=" ">
<polygon fill="white" stroke="black" points="528,-50 528,-69 631,-69 631,-50 528,-50"/>
<text text-anchor="middle" x="579.5" y="-57" font-family="Helvetica,sans-Serif" font-size="10.00">T_MESH::_orient3d</text>
</a>
</g>
</g>
<!-- Node3&#45;&gt;Node4 -->
<g id="edge3" class="edge">
<title>Node3&#45;&gt;Node4</title>
<path fill="none" stroke="midnightblue" d="M492.3,-59.5C500.48,-59.5 509.04,-59.5 517.47,-59.5"/>
<polygon fill="midnightblue" stroke="midnightblue" points="517.64,-63 527.64,-59.5 517.64,-56 517.64,-63"/>
</g>
<!-- Node6 -->
<g id="node6" class="node">
<title>Node6</title>
<g id="a_node6"><a xlink:href="../../de/df9/namespace_t___m_e_s_h.html#a5dcbe262a73a0769e3f63025edf3d25d" target="_top" xlink:title="Orientation predicates on PM_Rationals.">
<polygon fill="white" stroke="black" points="392,-6 392,-25 492,-25 492,-6 392,-6"/>
<text text-anchor="middle" x="442" y="-13" font-family="Helvetica,sans-Serif" font-size="10.00">T_MESH::orient2D</text>
</a>
</g>
</g>
<!-- Node5&#45;&gt;Node6 -->
<g id="edge5" class="edge">
<title>Node5&#45;&gt;Node6</title>
<path fill="none" stroke="midnightblue" d="M345.21,-15.5C357.37,-15.5 369.92,-15.5 381.76,-15.5"/>
<polygon fill="midnightblue" stroke="midnightblue" points="381.97,-19 391.97,-15.5 381.97,-12 381.97,-19"/>
</g>
<!-- Node7 -->
<g id="node7" class="node">
<title>Node7</title>
<g id="a_node7"><a xlink:href="../../de/df9/namespace_t___m_e_s_h.html#a2bad1f974ad8c908dd703494055080c1" target="_top" xlink:title="Orientation predicates using filtering on doubles.">
<polygon fill="white" stroke="black" points="528,-6 528,-25 631,-25 631,-6 528,-6"/>
<text text-anchor="middle" x="579.5" y="-13" font-family="Helvetica,sans-Serif" font-size="10.00">T_MESH::_orient2d</text>
</a>
</g>
</g>
<!-- Node6&#45;&gt;Node7 -->
<g id="edge6" class="edge">
<title>Node6&#45;&gt;Node7</title>
<path fill="none" stroke="midnightblue" d="M492.3,-15.5C500.48,-15.5 509.04,-15.5 517.47,-15.5"/>
<polygon fill="midnightblue" stroke="midnightblue" points="517.64,-19 527.64,-15.5 517.64,-12 517.64,-19"/>
</g>
</g>
</svg>
