<?xml version="1.0" encoding="UTF-8" standalone="no"?>
<!DOCTYPE svg PUBLIC "-//W3C//DTD SVG 1.1//EN"
 "http://www.w3.org/Graphics/SVG/1.1/DTD/svg11.dtd">
<!-- Generated by graphviz version 2.44.1 (0)
 -->
<!-- Title: T_MESH::Point::pointInInnerSegment Pages: 1 -->
<svg width="635pt" height="39pt"
 viewBox="0.00 0.00 635.00 39.00" xmlns="http://www.w3.org/2000/svg" xmlns:xlink="http://www.w3.org/1999/xlink">
<g id="graph0" class="graph" transform="scale(1 1) rotate(0) translate(4 35)">
<title>T_MESH::Point::pointInInnerSegment</title>
<polygon fill="white" stroke="transparent" points="-4,4 -4,-35 631,-35 631,4 -4,4"/>
<!-- Node1 -->
<g id="node1" class="node">
<title>Node1</title>
<g id="a_node1"><a xlink:title="true if &#39;p&#39; is a point of the segment v1&#45;v2 (endpoints excluded)">
<polygon fill="#bfbfbf" stroke="black" points="0,-0.5 0,-30.5 143,-30.5 143,-0.5 0,-0.5"/>
<text text-anchor="start" x="8" y="-18.5" font-family="Helvetica,sans-Serif" font-size="10.00">T_MESH::Point::pointInInner</text>
<text text-anchor="middle" x="71.5" y="-7.5" font-family="Helvetica,sans-Serif" font-size="10.00">Segment</text>
</a>
</g>
</g>
<!-- Node2 -->
<g id="node2" class="node">
<title>Node2</title>
<g id="a_node2"><a xlink:href="../../d2/d8e/class_t___m_e_s_h_1_1_point.html#ac128e5865f9413fa4c2baaa9fdd03597" target="_top" xlink:title="Exact misalignment test. Returns TRUE iff points are not aligned.">
<polygon fill="white" stroke="black" points="179,-6 179,-25 352,-25 352,-6 179,-6"/>
<text text-anchor="middle" x="265.5" y="-13" font-family="Helvetica,sans-Serif" font-size="10.00">T_MESH::Point::exactMisalignment</text>
</a>
</g>
</g>
<!-- Node1&#45;&gt;Node2 -->
<g id="edge1" class="edge">
<title>Node1&#45;&gt;Node2</title>
<path fill="none" stroke="midnightblue" d="M143.18,-15.5C151.55,-15.5 160.21,-15.5 168.86,-15.5"/>
<polygon fill="midnightblue" stroke="midnightblue" points="168.99,-19 178.99,-15.5 168.99,-12 168.99,-19"/>
</g>
<!-- Node3 -->
<g id="node3" class="node">
<title>Node3</title>
<g id="a_node3"><a xlink:href="../../de/df9/namespace_t___m_e_s_h.html#a5dcbe262a73a0769e3f63025edf3d25d" target="_top" xlink:title="Orientation predicates on PM_Rationals.">
<polygon fill="white" stroke="black" points="388,-6 388,-25 488,-25 488,-6 388,-6"/>
<text text-anchor="middle" x="438" y="-13" font-family="Helvetica,sans-Serif" font-size="10.00">T_MESH::orient2D</text>
</a>
</g>
</g>
<!-- Node2&#45;&gt;Node3 -->
<g id="edge2" class="edge">
<title>Node2&#45;&gt;Node3</title>
<path fill="none" stroke="midnightblue" d="M352.25,-15.5C360.76,-15.5 369.27,-15.5 377.43,-15.5"/>
<polygon fill="midnightblue" stroke="midnightblue" points="377.55,-19 387.55,-15.5 377.55,-12 377.55,-19"/>
</g>
<!-- Node4 -->
<g id="node4" class="node">
<title>Node4</title>
<g id="a_node4"><a xlink:href="../../de/df9/namespace_t___m_e_s_h.html#a2bad1f974ad8c908dd703494055080c1" target="_top" xlink:title="Orientation predicates using filtering on doubles.">
<polygon fill="white" stroke="black" points="524,-6 524,-25 627,-25 627,-6 524,-6"/>
<text text-anchor="middle" x="575.5" y="-13" font-family="Helvetica,sans-Serif" font-size="10.00">T_MESH::_orient2d</text>
</a>
</g>
</g>
<!-- Node3&#45;&gt;Node4 -->
<g id="edge3" class="edge">
<title>Node3&#45;&gt;Node4</title>
<path fill="none" stroke="midnightblue" d="M488.3,-15.5C496.48,-15.5 505.04,-15.5 513.47,-15.5"/>
<polygon fill="midnightblue" stroke="midnightblue" points="513.64,-19 523.64,-15.5 513.64,-12 513.64,-19"/>
</g>
</g>
</svg>
