<?xml version="1.0" encoding="UTF-8" standalone="no"?>
<!DOCTYPE svg PUBLIC "-//W3C//DTD SVG 1.1//EN"
 "http://www.w3.org/Graphics/SVG/1.1/DTD/svg11.dtd">
<!-- Generated by graphviz version 2.44.1 (0)
 -->
<!-- Title: T_MESH::Point::pointInInnerTriangle Pages: 1 -->
<svg width="757pt" height="78pt"
 viewBox="0.00 0.00 757.00 77.50" xmlns="http://www.w3.org/2000/svg" xmlns:xlink="http://www.w3.org/1999/xlink">
<g id="graph0" class="graph" transform="scale(1 1) rotate(0) translate(4 73.5)">
<title>T_MESH::Point::pointInInnerTriangle</title>
<polygon fill="white" stroke="transparent" points="-4,4 -4,-73.5 753,-73.5 753,4 -4,4"/>
<!-- Node1 -->
<g id="node1" class="node">
<title>Node1</title>
<g id="a_node1"><a xlink:title="true if the coplanar point &#39;p&#39; is in the inner area of v1&#45;v2&#45;v3.">
<polygon fill="#bfbfbf" stroke="black" points="606,-22.5 606,-52.5 749,-52.5 749,-22.5 606,-22.5"/>
<text text-anchor="start" x="614" y="-40.5" font-family="Helvetica,sans-Serif" font-size="10.00">T_MESH::Point::pointInInner</text>
<text text-anchor="middle" x="677.5" y="-29.5" font-family="Helvetica,sans-Serif" font-size="10.00">Triangle</text>
</a>
</g>
</g>
<!-- Node2 -->
<g id="node2" class="node">
<title>Node2</title>
<g id="a_node2"><a xlink:href="../../d2/d8e/class_t___m_e_s_h_1_1_point.html#abde09ee10e5163f8e7a6143e0c66b96c" target="_top" xlink:title="true if the coplanar point &#39;p&#39; is either in the inner area of v1&#45;v2&#45;v3 or on its border.">
<polygon fill="white" stroke="black" points="406,-50 406,-69 561,-69 561,-50 406,-50"/>
<text text-anchor="middle" x="483.5" y="-57" font-family="Helvetica,sans-Serif" font-size="10.00">T_MESH::Point::pointInTriangle</text>
</a>
</g>
</g>
<!-- Node1&#45;&gt;Node2 -->
<g id="edge1" class="edge">
<title>Node1&#45;&gt;Node2</title>
<path fill="none" stroke="midnightblue" d="M595.83,-46.74C584.35,-48.06 572.57,-49.41 561.16,-50.72"/>
<polygon fill="midnightblue" stroke="midnightblue" points="596.29,-50.21 605.82,-45.6 595.49,-43.26 596.29,-50.21"/>
</g>
<!-- Node6 -->
<g id="node6" class="node">
<title>Node6</title>
<g id="a_node6"><a xlink:href="../../d2/d8e/class_t___m_e_s_h_1_1_point.html#aa7c967dd92c65e98ad3169b2e5715c5e" target="_top" xlink:title="true if segment (s1&#45;s2) intersects the triangle v1&#45;v2&#45;v3 (border included).">
<polygon fill="white" stroke="black" points="397,-0.5 397,-30.5 570,-30.5 570,-0.5 397,-0.5"/>
<text text-anchor="start" x="405" y="-18.5" font-family="Helvetica,sans-Serif" font-size="10.00">T_MESH::Point::segmentIntersects</text>
<text text-anchor="middle" x="483.5" y="-7.5" font-family="Helvetica,sans-Serif" font-size="10.00">Triangle</text>
</a>
</g>
</g>
<!-- Node1&#45;&gt;Node6 -->
<g id="edge5" class="edge">
<title>Node1&#45;&gt;Node6</title>
<path fill="none" stroke="midnightblue" d="M595.88,-28.26C587.33,-27.28 578.61,-26.28 570.01,-25.3"/>
<polygon fill="midnightblue" stroke="midnightblue" points="595.49,-31.74 605.82,-29.4 596.29,-24.79 595.49,-31.74"/>
</g>
<!-- Node3 -->
<g id="node3" class="node">
<title>Node3</title>
<g id="a_node3"><a xlink:href="../../da/da2/class_t___m_e_s_h_1_1_edge.html#a52d4b92af3766a8a3967ce729ddb3661" target="_top" xlink:title="true if this edge itersects &#39;t&#39; other than on common subsimplexes">
<polygon fill="white" stroke="black" points="221,-48 221,-67 355,-67 355,-48 221,-48"/>
<text text-anchor="middle" x="288" y="-55" font-family="Helvetica,sans-Serif" font-size="10.00">T_MESH::Edge::intersects</text>
</a>
</g>
</g>
<!-- Node2&#45;&gt;Node3 -->
<g id="edge2" class="edge">
<title>Node2&#45;&gt;Node3</title>
<path fill="none" stroke="midnightblue" d="M395.44,-58.6C381.87,-58.46 368.04,-58.32 355.04,-58.18"/>
<polygon fill="midnightblue" stroke="midnightblue" points="395.71,-62.1 405.75,-58.71 395.78,-55.1 395.71,-62.1"/>
</g>
<!-- Node4 -->
<g id="node4" class="node">
<title>Node4</title>
<g id="a_node4"><a xlink:href="../../d8/d6e/class_t___m_e_s_h_1_1_triangle.html#a38d6dedff09dd67bc25defcb61304546" target="_top" xlink:title="true if this triangle itersects &#39;t&#39; other than on common subsimplexes if &#39;justproper&#39; is true,...">
<polygon fill="white" stroke="black" points="215,-9 215,-28 361,-28 361,-9 215,-9"/>
<text text-anchor="middle" x="288" y="-16" font-family="Helvetica,sans-Serif" font-size="10.00">T_MESH::Triangle::intersects</text>
</a>
</g>
</g>
<!-- Node2&#45;&gt;Node4 -->
<g id="edge3" class="edge">
<title>Node2&#45;&gt;Node4</title>
<path fill="none" stroke="midnightblue" d="M427.84,-47.92C398.18,-41.63 361.97,-33.96 333.97,-28.03"/>
<polygon fill="midnightblue" stroke="midnightblue" points="427.11,-51.34 437.62,-49.99 428.56,-44.49 427.11,-51.34"/>
</g>
<!-- Node5 -->
<g id="node5" class="node">
<title>Node5</title>
<g id="a_node5"><a xlink:href="../../d3/d21/class_t___m_e_s_h_1_1di__cell.html#a225e296cc8fdea7f5dbc9d4b9a5bc79c" target="_top" xlink:title=" ">
<polygon fill="white" stroke="black" points="0,-9 0,-28 179,-28 179,-9 0,-9"/>
<text text-anchor="middle" x="89.5" y="-16" font-family="Helvetica,sans-Serif" font-size="10.00">T_MESH::di_cell::selectIntersections</text>
</a>
</g>
</g>
<!-- Node4&#45;&gt;Node5 -->
<g id="edge4" class="edge">
<title>Node4&#45;&gt;Node5</title>
<path fill="none" stroke="midnightblue" d="M204.76,-18.5C196.33,-18.5 187.75,-18.5 179.25,-18.5"/>
<polygon fill="midnightblue" stroke="midnightblue" points="204.95,-22 214.95,-18.5 204.95,-15 204.95,-22"/>
</g>
<!-- Node6&#45;&gt;Node3 -->
<g id="edge6" class="edge">
<title>Node6&#45;&gt;Node3</title>
<path fill="none" stroke="midnightblue" d="M403.34,-32.68C379.27,-37.91 353.69,-43.46 332.84,-47.98"/>
<polygon fill="midnightblue" stroke="midnightblue" points="404.16,-36.09 413.19,-30.54 402.67,-29.25 404.16,-36.09"/>
</g>
<!-- Node6&#45;&gt;Node4 -->
<g id="edge7" class="edge">
<title>Node6&#45;&gt;Node4</title>
<path fill="none" stroke="midnightblue" d="M386.68,-16.99C378.06,-17.12 369.42,-17.25 361.06,-17.38"/>
<polygon fill="midnightblue" stroke="midnightblue" points="386.84,-20.48 396.78,-16.83 386.73,-13.48 386.84,-20.48"/>
</g>
</g>
</svg>
