<?xml version="1.0" encoding="UTF-8" standalone="no"?>
<!DOCTYPE svg PUBLIC "-//W3C//DTD SVG 1.1//EN"
 "http://www.w3.org/Graphics/SVG/1.1/DTD/svg11.dtd">
<!-- Generated by graphviz version 2.44.1 (0)
 -->
<!-- Title: meshsampler.h Pages: 1 -->
<svg width="542pt" height="252pt"
 viewBox="0.00 0.00 541.50 252.00" xmlns="http://www.w3.org/2000/svg" xmlns:xlink="http://www.w3.org/1999/xlink">
<g id="graph0" class="graph" transform="scale(1 1) rotate(0) translate(4 248)">
<title>meshsampler.h</title>
<polygon fill="white" stroke="transparent" points="-4,4 -4,-248 537.5,-248 537.5,4 -4,4"/>
<!-- Node1 -->
<g id="node1" class="node">
<title>Node1</title>
<g id="a_node1"><a xlink:title="Class for generating sample points on meshes.">
<polygon fill="#bfbfbf" stroke="black" points="370,-224.5 370,-243.5 453,-243.5 453,-224.5 370,-224.5"/>
<text text-anchor="middle" x="411.5" y="-231.5" font-family="Helvetica,sans-Serif" font-size="10.00">meshsampler.h</text>
</a>
</g>
</g>
<!-- Node2 -->
<g id="node2" class="node">
<title>Node2</title>
<g id="a_node2"><a xlink:href="../../dd/d22/polylineaddfinalpointcallback_8h.html" target="_top" xlink:title="Callback for Polyline Tool.">
<polygon fill="white" stroke="black" points="191,-168.5 191,-187.5 340,-187.5 340,-168.5 191,-168.5"/>
<text text-anchor="middle" x="265.5" y="-175.5" font-family="Helvetica,sans-Serif" font-size="10.00">polylineaddfinalpointcallback.h</text>
</a>
</g>
</g>
<!-- Node1&#45;&gt;Node2 -->
<g id="edge1" class="edge">
<title>Node1&#45;&gt;Node2</title>
<path fill="none" stroke="midnightblue" d="M378.8,-220.91C351.35,-210.75 312.83,-196.51 288.53,-187.52"/>
<polygon fill="midnightblue" stroke="midnightblue" points="377.77,-224.26 388.37,-224.44 380.2,-217.69 377.77,-224.26"/>
</g>
<!-- Node5 -->
<g id="node5" class="node">
<title>Node5</title>
<g id="a_node5"><a xlink:href="../../d9/d53/mainwindow_8h.html" target="_top" xlink:title="Qt MainWindow of the application.">
<polygon fill="white" stroke="black" points="342.5,-56.5 342.5,-75.5 420.5,-75.5 420.5,-56.5 342.5,-56.5"/>
<text text-anchor="middle" x="381.5" y="-63.5" font-family="Helvetica,sans-Serif" font-size="10.00">mainwindow.h</text>
</a>
</g>
</g>
<!-- Node1&#45;&gt;Node5 -->
<g id="edge11" class="edge">
<title>Node1&#45;&gt;Node5</title>
<path fill="none" stroke="midnightblue" d="M409.07,-214.35C405.84,-190.52 399.72,-148.02 392.5,-112 389.94,-99.23 386.22,-84.6 383.82,-75.58"/>
<polygon fill="midnightblue" stroke="midnightblue" points="405.62,-215 410.41,-224.45 412.56,-214.07 405.62,-215"/>
</g>
<!-- Node11 -->
<g id="node11" class="node">
<title>Node11</title>
<g id="a_node11"><a xlink:href="../../d2/d69/meshsampler_8cpp.html" target="_top" xlink:title=" ">
<polygon fill="white" stroke="black" points="439.5,-168.5 439.5,-187.5 533.5,-187.5 533.5,-168.5 439.5,-168.5"/>
<text text-anchor="middle" x="486.5" y="-175.5" font-family="Helvetica,sans-Serif" font-size="10.00">meshsampler.cpp</text>
</a>
</g>
</g>
<!-- Node1&#45;&gt;Node11 -->
<g id="edge12" class="edge">
<title>Node1&#45;&gt;Node11</title>
<path fill="none" stroke="midnightblue" d="M431.81,-218.38C445.36,-208.62 462.74,-196.11 474.23,-187.83"/>
<polygon fill="midnightblue" stroke="midnightblue" points="429.62,-215.64 423.55,-224.32 433.71,-221.32 429.62,-215.64"/>
</g>
<!-- Node3 -->
<g id="node3" class="node">
<title>Node3</title>
<g id="a_node3"><a xlink:href="../../da/d75/polylineaddfinalpointcallback_8cpp.html" target="_top" xlink:title=" ">
<polygon fill="white" stroke="black" points="142,-112.5 142,-131.5 301,-131.5 301,-112.5 142,-112.5"/>
<text text-anchor="middle" x="221.5" y="-119.5" font-family="Helvetica,sans-Serif" font-size="10.00">polylineaddfinalpointcallback.cpp</text>
</a>
</g>
</g>
<!-- Node2&#45;&gt;Node3 -->
<g id="edge2" class="edge">
<title>Node2&#45;&gt;Node3</title>
<path fill="none" stroke="midnightblue" d="M251.77,-160.14C244.1,-150.74 234.87,-139.4 228.63,-131.75"/>
<polygon fill="midnightblue" stroke="midnightblue" points="249.2,-162.54 258.23,-168.08 254.63,-158.12 249.2,-162.54"/>
</g>
<!-- Node4 -->
<g id="node4" class="node">
<title>Node4</title>
<g id="a_node4"><a xlink:href="../../d6/d98/lassotool_8h.html" target="_top" xlink:title="Tool for selecting triangles on a mesh to form a touchpoint out of them.">
<polygon fill="white" stroke="black" points="319.5,-112.5 319.5,-131.5 383.5,-131.5 383.5,-112.5 319.5,-112.5"/>
<text text-anchor="middle" x="351.5" y="-119.5" font-family="Helvetica,sans-Serif" font-size="10.00">lassotool.h</text>
</a>
</g>
</g>
<!-- Node2&#45;&gt;Node4 -->
<g id="edge3" class="edge">
<title>Node2&#45;&gt;Node4</title>
<path fill="none" stroke="midnightblue" d="M287.95,-162.9C303.72,-153 324.31,-140.07 337.72,-131.65"/>
<polygon fill="midnightblue" stroke="midnightblue" points="285.93,-160.04 279.32,-168.32 289.65,-165.97 285.93,-160.04"/>
</g>
<!-- Node9 -->
<g id="node9" class="node">
<title>Node9</title>
<g id="a_node9"><a xlink:href="../../d7/dbd/polylinetouchpointtool_8h.html" target="_top" xlink:title="Tool for drawing polygon shaped touchpoints on a mesh.">
<polygon fill="white" stroke="black" points="5,-112.5 5,-131.5 124,-131.5 124,-112.5 5,-112.5"/>
<text text-anchor="middle" x="64.5" y="-119.5" font-family="Helvetica,sans-Serif" font-size="10.00">polylinetouchpointtool.h</text>
</a>
</g>
</g>
<!-- Node2&#45;&gt;Node9 -->
<g id="edge8" class="edge">
<title>Node2&#45;&gt;Node9</title>
<path fill="none" stroke="midnightblue" d="M223.92,-165.83C185.97,-155.63 130.69,-140.78 96.2,-131.52"/>
<polygon fill="midnightblue" stroke="midnightblue" points="223.09,-169.23 233.65,-168.44 224.9,-162.47 223.09,-169.23"/>
</g>
<!-- Node4&#45;&gt;Node5 -->
<g id="edge4" class="edge">
<title>Node4&#45;&gt;Node5</title>
<path fill="none" stroke="midnightblue" d="M361.35,-103.27C366.47,-94.05 372.52,-83.17 376.64,-75.75"/>
<polygon fill="midnightblue" stroke="midnightblue" points="358.25,-101.64 356.45,-112.08 364.37,-105.04 358.25,-101.64"/>
</g>
<!-- Node8 -->
<g id="node8" class="node">
<title>Node8</title>
<g id="a_node8"><a xlink:href="../../d4/d9d/lassotool_8cpp.html" target="_top" xlink:title=" ">
<polygon fill="white" stroke="black" points="250.5,-56.5 250.5,-75.5 324.5,-75.5 324.5,-56.5 250.5,-56.5"/>
<text text-anchor="middle" x="287.5" y="-63.5" font-family="Helvetica,sans-Serif" font-size="10.00">lassotool.cpp</text>
</a>
</g>
</g>
<!-- Node4&#45;&gt;Node8 -->
<g id="edge7" class="edge">
<title>Node4&#45;&gt;Node8</title>
<path fill="none" stroke="midnightblue" d="M333.51,-105.82C322.04,-96.15 307.59,-83.95 297.97,-75.83"/>
<polygon fill="midnightblue" stroke="midnightblue" points="331.32,-108.55 341.22,-112.32 335.83,-103.2 331.32,-108.55"/>
</g>
<!-- Node6 -->
<g id="node6" class="node">
<title>Node6</title>
<g id="a_node6"><a xlink:href="../../d8/dd9/mainwindow_8cpp.html" target="_top" xlink:title=" ">
<polygon fill="white" stroke="black" points="292,-0.5 292,-19.5 381,-19.5 381,-0.5 292,-0.5"/>
<text text-anchor="middle" x="336.5" y="-7.5" font-family="Helvetica,sans-Serif" font-size="10.00">mainwindow.cpp</text>
</a>
</g>
</g>
<!-- Node5&#45;&gt;Node6 -->
<g id="edge5" class="edge">
<title>Node5&#45;&gt;Node6</title>
<path fill="none" stroke="midnightblue" d="M367.45,-48.14C359.61,-38.74 350.17,-27.4 343.79,-19.75"/>
<polygon fill="midnightblue" stroke="midnightblue" points="364.98,-50.64 374.07,-56.08 370.36,-46.16 364.98,-50.64"/>
</g>
<!-- Node7 -->
<g id="node7" class="node">
<title>Node7</title>
<g id="a_node7"><a xlink:href="../../df/d0a/main_8cpp.html" target="_top" xlink:title=" ">
<polygon fill="white" stroke="black" points="398.5,-0.5 398.5,-19.5 454.5,-19.5 454.5,-0.5 398.5,-0.5"/>
<text text-anchor="middle" x="426.5" y="-7.5" font-family="Helvetica,sans-Serif" font-size="10.00">main.cpp</text>
</a>
</g>
</g>
<!-- Node5&#45;&gt;Node7 -->
<g id="edge6" class="edge">
<title>Node5&#45;&gt;Node7</title>
<path fill="none" stroke="midnightblue" d="M395.55,-48.14C403.39,-38.74 412.83,-27.4 419.21,-19.75"/>
<polygon fill="midnightblue" stroke="midnightblue" points="392.64,-46.16 388.93,-56.08 398.02,-50.64 392.64,-46.16"/>
</g>
<!-- Node9&#45;&gt;Node5 -->
<g id="edge9" class="edge">
<title>Node9&#45;&gt;Node5</title>
<path fill="none" stroke="midnightblue" d="M127.59,-110.8C182.14,-101.9 263.09,-88.49 333.5,-76 336.42,-75.48 339.44,-74.94 342.48,-74.38"/>
<polygon fill="midnightblue" stroke="midnightblue" points="126.69,-107.41 117.38,-112.47 127.81,-114.31 126.69,-107.41"/>
</g>
<!-- Node10 -->
<g id="node10" class="node">
<title>Node10</title>
<g id="a_node10"><a xlink:href="../../d6/d40/polylinetouchpointtool_8cpp.html" target="_top" xlink:title=" ">
<polygon fill="white" stroke="black" points="0,-56.5 0,-75.5 129,-75.5 129,-56.5 0,-56.5"/>
<text text-anchor="middle" x="64.5" y="-63.5" font-family="Helvetica,sans-Serif" font-size="10.00">polylinetouchpointtool.cpp</text>
</a>
</g>
</g>
<!-- Node9&#45;&gt;Node10 -->
<g id="edge10" class="edge">
<title>Node9&#45;&gt;Node10</title>
<path fill="none" stroke="midnightblue" d="M64.5,-101.8C64.5,-92.91 64.5,-82.78 64.5,-75.75"/>
<polygon fill="midnightblue" stroke="midnightblue" points="61,-102.08 64.5,-112.08 68,-102.08 61,-102.08"/>
</g>
</g>
</svg>
