<?xml version="1.0" encoding="UTF-8" standalone="no"?>
<!DOCTYPE svg PUBLIC "-//W3C//DTD SVG 1.1//EN"
 "http://www.w3.org/Graphics/SVG/1.1/DTD/svg11.dtd">
<!-- Generated by graphviz version 2.44.0 (0)
 -->
<!-- Title: PlaceGroundPlane8ConnectorsTool::execute Pages: 1 -->
<svg width="733pt" height="731pt"
 viewBox="0.00 0.00 733.00 731.00" xmlns="http://www.w3.org/2000/svg" xmlns:xlink="http://www.w3.org/1999/xlink">
<g id="graph0" class="graph" transform="scale(1 1) rotate(0) translate(4 727)">
<title>PlaceGroundPlane8ConnectorsTool::execute</title>
<polygon fill="white" stroke="transparent" points="-4,4 -4,-727 729,-727 729,4 -4,4"/>
<!-- Node1 -->
<g id="node1" class="node">
<title>Node1</title>
<g id="a_node1"><a xlink:title=" ">
<polygon fill="#bfbfbf" stroke="black" points="0,-451 0,-481 153,-481 153,-451 0,-451"/>
<text text-anchor="start" x="8" y="-469" font-family="Helvetica,sans-Serif" font-size="10.00">PlaceGroundPlane8Connectors</text>
<text text-anchor="middle" x="76.5" y="-458" font-family="Helvetica,sans-Serif" font-size="10.00">Tool::execute</text>
</a>
</g>
</g>
<!-- Node2 -->
<g id="node2" class="node">
<title>Node2</title>
<g id="a_node2"><a xlink:href="../../d1/da7/class_place_ground_plane8_connectors_tool.html#aaf1c46eccc1ea15dec8c7669c8a97a47" target="_top" xlink:title="Add connector to touchpoint registry.">
<polygon fill="white" stroke="black" points="189,-530 189,-560 342,-560 342,-530 189,-530"/>
<text text-anchor="start" x="197" y="-548" font-family="Helvetica,sans-Serif" font-size="10.00">PlaceGroundPlane8Connectors</text>
<text text-anchor="middle" x="265.5" y="-537" font-family="Helvetica,sans-Serif" font-size="10.00">Tool::addConnector</text>
</a>
</g>
</g>
<!-- Node1&#45;&gt;Node2 -->
<g id="edge1" class="edge">
<title>Node1&#45;&gt;Node2</title>
<path fill="none" stroke="midnightblue" d="M113.11,-481.05C143.3,-493.8 186.76,-512.16 219.38,-525.94"/>
<polygon fill="midnightblue" stroke="midnightblue" points="218.13,-529.21 228.7,-529.88 220.85,-522.76 218.13,-529.21"/>
</g>
<!-- Node3 -->
<g id="node3" class="node">
<title>Node3</title>
<g id="a_node3"><a xlink:href="../../d6/db5/class_scene.html#accf5c16477aba3397a083ded76f2c5f5" target="_top" xlink:title="Return the geometric data (vtkPolyData) of the mesh.">
<polygon fill="white" stroke="black" points="392,-665.5 392,-684.5 520,-684.5 520,-665.5 392,-665.5"/>
<text text-anchor="middle" x="456" y="-672.5" font-family="Helvetica,sans-Serif" font-size="10.00">Scene::getMeshPolyData</text>
</a>
</g>
</g>
<!-- Node1&#45;&gt;Node3 -->
<g id="edge15" class="edge">
<title>Node1&#45;&gt;Node3</title>
<path fill="none" stroke="midnightblue" d="M90.67,-481.06C110.35,-502.87 149.38,-543.54 189,-570 265.75,-621.25 290.83,-625.7 378,-656 385.14,-658.48 392.77,-660.77 400.34,-662.84"/>
<polygon fill="midnightblue" stroke="midnightblue" points="399.65,-666.28 410.21,-665.43 401.42,-659.51 399.65,-666.28"/>
</g>
<!-- Node5 -->
<g id="node5" class="node">
<title>Node5</title>
<g id="a_node5"><a xlink:href="../../d6/db5/class_scene.html#a8bf8e4b441886787dc82c2caa9b25884" target="_top" xlink:title="Return the vtkRenderer of the scene.">
<polygon fill="white" stroke="black" points="404,-475.5 404,-494.5 508,-494.5 508,-475.5 404,-475.5"/>
<text text-anchor="middle" x="456" y="-482.5" font-family="Helvetica,sans-Serif" font-size="10.00">Scene::getRenderer</text>
</a>
</g>
</g>
<!-- Node1&#45;&gt;Node5 -->
<g id="edge16" class="edge">
<title>Node1&#45;&gt;Node5</title>
<path fill="none" stroke="midnightblue" d="M153.44,-469.82C224.15,-473.38 328.23,-478.62 393.77,-481.92"/>
<polygon fill="midnightblue" stroke="midnightblue" points="393.79,-485.42 403.95,-482.43 394.14,-478.43 393.79,-485.42"/>
</g>
<!-- Node7 -->
<g id="node7" class="node">
<title>Node7</title>
<g id="a_node7"><a xlink:href="../../d6/db5/class_scene.html#a7e5ee53ea01ef113afaaf4b7c10accf3" target="_top" xlink:title="Return the voxel grid image data.">
<polygon fill="white" stroke="black" points="401.5,-437.5 401.5,-456.5 510.5,-456.5 510.5,-437.5 401.5,-437.5"/>
<text text-anchor="middle" x="456" y="-444.5" font-family="Helvetica,sans-Serif" font-size="10.00">Scene::getVoxelData</text>
</a>
</g>
</g>
<!-- Node1&#45;&gt;Node7 -->
<g id="edge17" class="edge">
<title>Node1&#45;&gt;Node7</title>
<path fill="none" stroke="midnightblue" d="M153.44,-462.18C223.23,-458.67 325.53,-453.52 391.2,-450.21"/>
<polygon fill="midnightblue" stroke="midnightblue" points="391.6,-453.7 401.41,-449.7 391.25,-446.7 391.6,-453.7"/>
</g>
<!-- Node12 -->
<g id="node12" class="node">
<title>Node12</title>
<g id="a_node12"><a xlink:href="../../d9/d4f/namespace_layout_algorithms.html#a0dd279f7ae7f35e3850f4a90b198faae" target="_top" xlink:title="Computes the pole of inaccessibility (point which is farthest away from all mesh ground edges).">
<polygon fill="white" stroke="black" points="197.5,-660 197.5,-690 333.5,-690 333.5,-660 197.5,-660"/>
<text text-anchor="start" x="205.5" y="-678" font-family="Helvetica,sans-Serif" font-size="10.00">LayoutAlgorithms::compute</text>
<text text-anchor="middle" x="265.5" y="-667" font-family="Helvetica,sans-Serif" font-size="10.00">PoleOfInaccessibility</text>
</a>
</g>
</g>
<!-- Node1&#45;&gt;Node12 -->
<g id="edge11" class="edge">
<title>Node1&#45;&gt;Node12</title>
<path fill="none" stroke="midnightblue" d="M85.77,-481.29C102.43,-511.19 142.48,-578.42 189,-624 200.66,-635.42 215.19,-645.92 228.37,-654.39"/>
<polygon fill="midnightblue" stroke="midnightblue" points="226.9,-657.59 237.24,-659.91 230.6,-651.65 226.9,-657.59"/>
</g>
<!-- Node15 -->
<g id="node15" class="node">
<title>Node15</title>
<g id="a_node15"><a xlink:href="../../d6/db5/class_scene.html#a23f165e14554a10c3975122ae9831fe6" target="_top" xlink:title="Set the ground plate actor.">
<polygon fill="white" stroke="black" points="195,-241 195,-271 336,-271 336,-241 195,-241"/>
<text text-anchor="start" x="203" y="-259" font-family="Helvetica,sans-Serif" font-size="10.00">Scene::setGroundPlateQuad</text>
<text text-anchor="middle" x="265.5" y="-248" font-family="Helvetica,sans-Serif" font-size="10.00">Actor</text>
</a>
</g>
</g>
<!-- Node1&#45;&gt;Node15 -->
<g id="edge18" class="edge">
<title>Node1&#45;&gt;Node15</title>
<path fill="none" stroke="midnightblue" d="M82.48,-450.83C94.78,-415.7 129.96,-328.16 189,-281 191.28,-279.18 193.69,-277.49 196.2,-275.93"/>
<polygon fill="midnightblue" stroke="midnightblue" points="197.99,-278.93 205.07,-271.05 194.62,-272.8 197.99,-278.93"/>
</g>
<!-- Node16 -->
<g id="node16" class="node">
<title>Node16</title>
<g id="a_node16"><a xlink:href="../../d6/db5/class_scene.html#aaff4c55f5c640ec8a12b62c5b6c11865" target="_top" xlink:title="Update the touchpoint / connector number text labels.">
<polygon fill="white" stroke="black" points="211.5,-57.5 211.5,-76.5 319.5,-76.5 319.5,-57.5 211.5,-57.5"/>
<text text-anchor="middle" x="265.5" y="-64.5" font-family="Helvetica,sans-Serif" font-size="10.00">Scene::updateLabels</text>
</a>
</g>
</g>
<!-- Node1&#45;&gt;Node16 -->
<g id="edge19" class="edge">
<title>Node1&#45;&gt;Node16</title>
<path fill="none" stroke="midnightblue" d="M84.6,-450.85C113.67,-388.83 223.51,-154.46 255.63,-85.93"/>
<polygon fill="midnightblue" stroke="midnightblue" points="258.86,-87.27 259.94,-76.73 252.53,-84.3 258.86,-87.27"/>
</g>
<!-- Node21 -->
<g id="node21" class="node">
<title>Node21</title>
<g id="a_node21"><a xlink:href="../../d6/db5/class_scene.html#a415555bc0037489b1a9421747c318746" target="_top" xlink:title="Update the occupation map visualization after changes to the underlying voxel data.">
<polygon fill="white" stroke="black" points="191.5,-290 191.5,-320 339.5,-320 339.5,-290 191.5,-290"/>
<text text-anchor="start" x="199.5" y="-308" font-family="Helvetica,sans-Serif" font-size="10.00">Scene::updateOccupationMap</text>
<text text-anchor="middle" x="265.5" y="-297" font-family="Helvetica,sans-Serif" font-size="10.00">Actor</text>
</a>
</g>
</g>
<!-- Node1&#45;&gt;Node21 -->
<g id="edge25" class="edge">
<title>Node1&#45;&gt;Node21</title>
<path fill="none" stroke="midnightblue" d="M95.09,-450.85C128.37,-422.21 200.63,-359.99 239.14,-326.84"/>
<polygon fill="midnightblue" stroke="midnightblue" points="241.52,-329.4 246.82,-320.22 236.96,-324.1 241.52,-329.4"/>
</g>
<!-- Node2&#45;&gt;Node3 -->
<g id="edge2" class="edge">
<title>Node2&#45;&gt;Node3</title>
<path fill="none" stroke="midnightblue" d="M294.89,-560.12C310.08,-569.15 328.4,-581.65 342,-596 363.39,-618.57 352.98,-637.52 378,-656 380.52,-657.86 383.2,-659.54 386,-661.06"/>
<polygon fill="midnightblue" stroke="midnightblue" points="384.7,-664.32 395.24,-665.37 387.66,-657.97 384.7,-664.32"/>
</g>
<!-- Node4 -->
<g id="node4" class="node">
<title>Node4</title>
<g id="a_node4"><a xlink:href="../../d6/db5/class_scene.html#a9c15511eba6900e36681315c7e5911c5" target="_top" xlink:title="Return the scaled size of the mesh (in mm)">
<polygon fill="white" stroke="black" points="390.5,-551.5 390.5,-570.5 521.5,-570.5 521.5,-551.5 390.5,-551.5"/>
<text text-anchor="middle" x="456" y="-558.5" font-family="Helvetica,sans-Serif" font-size="10.00">Scene::getMeshScalesize</text>
</a>
</g>
</g>
<!-- Node2&#45;&gt;Node4 -->
<g id="edge3" class="edge">
<title>Node2&#45;&gt;Node4</title>
<path fill="none" stroke="midnightblue" d="M342.08,-551.42C354.69,-552.49 367.76,-553.6 380.35,-554.66"/>
<polygon fill="midnightblue" stroke="midnightblue" points="380.06,-558.15 390.32,-555.51 380.65,-551.18 380.06,-558.15"/>
</g>
<!-- Node2&#45;&gt;Node5 -->
<g id="edge4" class="edge">
<title>Node2&#45;&gt;Node5</title>
<path fill="none" stroke="midnightblue" d="M304.33,-529.91C325.75,-521.66 353.15,-511.61 378,-504 386.04,-501.54 394.63,-499.17 403.05,-496.99"/>
<polygon fill="midnightblue" stroke="midnightblue" points="403.97,-500.36 412.81,-494.52 402.26,-493.58 403.97,-500.36"/>
</g>
<!-- Node6 -->
<g id="node6" class="node">
<title>Node6</title>
<g id="a_node6"><a xlink:href="../../d6/db5/class_scene.html#a5c26ef724365bd55c471acc673d60674" target="_top" xlink:title="Return the touchpoint registry of the scene.">
<polygon fill="white" stroke="black" points="382,-513.5 382,-532.5 530,-532.5 530,-513.5 382,-513.5"/>
<text text-anchor="middle" x="456" y="-520.5" font-family="Helvetica,sans-Serif" font-size="10.00">Scene::getTouchpointRegistry</text>
</a>
</g>
</g>
<!-- Node2&#45;&gt;Node6 -->
<g id="edge5" class="edge">
<title>Node2&#45;&gt;Node6</title>
<path fill="none" stroke="midnightblue" d="M342.08,-536.18C351.81,-535.04 361.82,-533.87 371.67,-532.73"/>
<polygon fill="midnightblue" stroke="midnightblue" points="372.32,-536.17 381.85,-531.54 371.51,-529.22 372.32,-536.17"/>
</g>
<!-- Node2&#45;&gt;Node7 -->
<g id="edge6" class="edge">
<title>Node2&#45;&gt;Node7</title>
<path fill="none" stroke="midnightblue" d="M283.38,-529.93C304.19,-512.11 341.33,-482.78 378,-466 383.29,-463.58 388.94,-461.44 394.68,-459.55"/>
<polygon fill="midnightblue" stroke="midnightblue" points="395.82,-462.86 404.37,-456.61 393.79,-456.16 395.82,-462.86"/>
</g>
<!-- Node8 -->
<g id="node8" class="node">
<title>Node8</title>
<g id="a_node8"><a xlink:href="../../d6/db5/class_scene.html#a7caf30a70e69430d5e4ac93d6828a649" target="_top" xlink:title="Return the bounds of the voxel grid.">
<polygon fill="white" stroke="black" points="387.5,-589.5 387.5,-608.5 524.5,-608.5 524.5,-589.5 387.5,-589.5"/>
<text text-anchor="middle" x="456" y="-596.5" font-family="Helvetica,sans-Serif" font-size="10.00">Scene::getVoxelgridBounds</text>
</a>
</g>
</g>
<!-- Node2&#45;&gt;Node8 -->
<g id="edge7" class="edge">
<title>Node2&#45;&gt;Node8</title>
<path fill="none" stroke="midnightblue" d="M312.15,-560.03C332.26,-566.47 356.22,-573.9 378,-580 386.48,-582.37 395.52,-584.75 404.33,-586.97"/>
<polygon fill="midnightblue" stroke="midnightblue" points="403.57,-590.39 414.12,-589.41 405.26,-583.6 403.57,-590.39"/>
</g>
<!-- Node10 -->
<g id="node10" class="node">
<title>Node10</title>
<g id="a_node10"><a xlink:href="../../d1/d7c/namespace_utils.html#a4b6c4a605143b128db1c74f39d0277ef" target="_top" xlink:title="Compute voxel grid integer index equivalent from world coordinate.">
<polygon fill="white" stroke="black" points="413,-627.5 413,-646.5 499,-646.5 499,-627.5 413,-627.5"/>
<text text-anchor="middle" x="456" y="-634.5" font-family="Helvetica,sans-Serif" font-size="10.00">Utils::posToCell</text>
</a>
</g>
</g>
<!-- Node2&#45;&gt;Node10 -->
<g id="edge9" class="edge">
<title>Node2&#45;&gt;Node10</title>
<path fill="none" stroke="midnightblue" d="M288.62,-560.06C318.34,-580.2 368.56,-613.89 378,-618 385.89,-621.44 394.53,-624.33 403.06,-626.74"/>
<polygon fill="midnightblue" stroke="midnightblue" points="402.43,-630.19 412.99,-629.35 404.21,-623.42 402.43,-630.19"/>
</g>
<!-- Node9 -->
<g id="node9" class="node">
<title>Node9</title>
<g id="a_node9"><a xlink:href="../../d6/db5/class_scene.html#a0799bb0687ffe3a97e0523a4e700ef2d" target="_top" xlink:title="Return the occupation map visualization.">
<polygon fill="white" stroke="black" points="570,-395.5 570,-414.5 725,-414.5 725,-395.5 570,-395.5"/>
<text text-anchor="middle" x="647.5" y="-402.5" font-family="Helvetica,sans-Serif" font-size="10.00">Scene::getOccupationMapActor</text>
</a>
</g>
</g>
<!-- Node8&#45;&gt;Node9 -->
<g id="edge8" class="edge">
<title>Node8&#45;&gt;Node9</title>
<path fill="none" stroke="midnightblue" d="M516.25,-589.37C522.56,-586.91 528.62,-583.84 534,-580 590.69,-539.47 625.84,-460.62 639.71,-424.24"/>
<polygon fill="midnightblue" stroke="midnightblue" points="643.02,-425.38 643.19,-414.79 636.45,-422.96 643.02,-425.38"/>
</g>
<!-- Node11 -->
<g id="node11" class="node">
<title>Node11</title>
<g id="a_node11"><a xlink:href="../../d1/d7c/namespace_utils.html#ac9b063fc04e0a4e5501c8ed0af96ac47" target="_top" xlink:title="Clamp integer value between min and max.">
<polygon fill="white" stroke="black" points="607.5,-627.5 607.5,-646.5 687.5,-646.5 687.5,-627.5 607.5,-627.5"/>
<text text-anchor="middle" x="647.5" y="-634.5" font-family="Helvetica,sans-Serif" font-size="10.00">Utils::clampInt</text>
</a>
</g>
</g>
<!-- Node10&#45;&gt;Node11 -->
<g id="edge10" class="edge">
<title>Node10&#45;&gt;Node11</title>
<path fill="none" stroke="midnightblue" d="M499.06,-637C528.03,-637 566.63,-637 597.07,-637"/>
<polygon fill="midnightblue" stroke="midnightblue" points="597.47,-640.5 607.47,-637 597.47,-633.5 597.47,-640.5"/>
</g>
<!-- Node12&#45;&gt;Node3 -->
<g id="edge12" class="edge">
<title>Node12&#45;&gt;Node3</title>
<path fill="none" stroke="midnightblue" d="M333.75,-675C349.28,-675 365.87,-675 381.64,-675"/>
<polygon fill="midnightblue" stroke="midnightblue" points="381.87,-678.5 391.87,-675 381.87,-671.5 381.87,-678.5"/>
</g>
<!-- Node13 -->
<g id="node13" class="node">
<title>Node13</title>
<g id="a_node13"><a xlink:href="../../d9/d6b/namespace_sampling.html#a6485f7ee5709973834120058ed6dc745" target="_top" xlink:title="computes a hammersley two&#45;dimensional point">
<polygon fill="white" stroke="black" points="391.5,-703.5 391.5,-722.5 520.5,-722.5 520.5,-703.5 391.5,-703.5"/>
<text text-anchor="middle" x="456" y="-710.5" font-family="Helvetica,sans-Serif" font-size="10.00">Sampling::hammersley2D</text>
</a>
</g>
</g>
<!-- Node12&#45;&gt;Node13 -->
<g id="edge13" class="edge">
<title>Node12&#45;&gt;Node13</title>
<path fill="none" stroke="midnightblue" d="M333.75,-688.56C354.65,-692.77 377.48,-697.37 397.63,-701.43"/>
<polygon fill="midnightblue" stroke="midnightblue" points="397.1,-704.9 407.6,-703.44 398.48,-698.04 397.1,-704.9"/>
</g>
<!-- Node14 -->
<g id="node14" class="node">
<title>Node14</title>
<g id="a_node14"><a xlink:href="../../d9/d6b/namespace_sampling.html#acf525e677ad04c36632c86a31132564a" target="_top" xlink:title="computes the radical inverse (base for hammersley sampling)">
<polygon fill="white" stroke="black" points="573.5,-703.5 573.5,-722.5 721.5,-722.5 721.5,-703.5 573.5,-703.5"/>
<text text-anchor="middle" x="647.5" y="-710.5" font-family="Helvetica,sans-Serif" font-size="10.00">Sampling::RadicalInverseVdC</text>
</a>
</g>
</g>
<!-- Node13&#45;&gt;Node14 -->
<g id="edge14" class="edge">
<title>Node13&#45;&gt;Node14</title>
<path fill="none" stroke="midnightblue" d="M520.63,-713C534.21,-713 548.76,-713 562.96,-713"/>
<polygon fill="midnightblue" stroke="midnightblue" points="563.22,-716.5 573.22,-713 563.22,-709.5 563.22,-716.5"/>
</g>
<!-- Node17 -->
<g id="node17" class="node">
<title>Node17</title>
<g id="a_node17"><a xlink:href="../../d9/d58/class_touchpoint.html#ab61727c9bb477bccca373f92a2b8bea4" target="_top" xlink:title="Return the touchpoint number label text actor.">
<polygon fill="white" stroke="black" points="393.5,-76.5 393.5,-95.5 518.5,-95.5 518.5,-76.5 393.5,-76.5"/>
<text text-anchor="middle" x="456" y="-83.5" font-family="Helvetica,sans-Serif" font-size="10.00">Touchpoint::getTextActor</text>
</a>
</g>
</g>
<!-- Node16&#45;&gt;Node17 -->
<g id="edge20" class="edge">
<title>Node16&#45;&gt;Node17</title>
<path fill="none" stroke="midnightblue" d="M319.51,-72.34C339.25,-74.33 362.01,-76.63 383.16,-78.76"/>
<polygon fill="midnightblue" stroke="midnightblue" points="383.1,-82.27 393.4,-79.79 383.8,-75.31 383.1,-82.27"/>
</g>
<!-- Node18 -->
<g id="node18" class="node">
<title>Node18</title>
<g id="a_node18"><a xlink:href="../../d6/db5/class_scene.html#ae4bdf05105a36057e86693a0f60afbd3" target="_top" xlink:title="Hide the touchpoint / connector text labels.">
<polygon fill="white" stroke="black" points="398,-38.5 398,-57.5 514,-57.5 514,-38.5 398,-38.5"/>
<text text-anchor="middle" x="456" y="-45.5" font-family="Helvetica,sans-Serif" font-size="10.00">Scene::hideTextActors</text>
</a>
</g>
</g>
<!-- Node16&#45;&gt;Node18 -->
<g id="edge21" class="edge">
<title>Node16&#45;&gt;Node18</title>
<path fill="none" stroke="midnightblue" d="M319.51,-61.66C340.66,-59.52 365.27,-57.04 387.66,-54.79"/>
<polygon fill="midnightblue" stroke="midnightblue" points="388.17,-58.25 397.77,-53.77 387.47,-51.29 388.17,-58.25"/>
</g>
<!-- Node20 -->
<g id="node20" class="node">
<title>Node20</title>
<g id="a_node20"><a xlink:href="../../d6/db5/class_scene.html#aa9d387019f7a7456bdd8af2b21723387" target="_top" xlink:title="Show the touchpoint / connector number text labels.">
<polygon fill="white" stroke="black" points="395.5,-0.5 395.5,-19.5 516.5,-19.5 516.5,-0.5 395.5,-0.5"/>
<text text-anchor="middle" x="456" y="-7.5" font-family="Helvetica,sans-Serif" font-size="10.00">Scene::showTextActors</text>
</a>
</g>
</g>
<!-- Node16&#45;&gt;Node20 -->
<g id="edge23" class="edge">
<title>Node16&#45;&gt;Node20</title>
<path fill="none" stroke="midnightblue" d="M292.43,-57.45C314.9,-49.35 348.37,-37.69 378,-29 386.26,-26.58 395.08,-24.21 403.69,-22"/>
<polygon fill="midnightblue" stroke="midnightblue" points="404.82,-25.33 413.66,-19.5 403.11,-18.54 404.82,-25.33"/>
</g>
<!-- Node19 -->
<g id="node19" class="node">
<title>Node19</title>
<g id="a_node19"><a xlink:href="../../d6/db5/class_scene.html#a8a1b015f159dd9ba883ae601464f6c28" target="_top" xlink:title="Set if the touchpoint / connector number labels are visible.">
<polygon fill="white" stroke="black" points="573.5,-19.5 573.5,-38.5 721.5,-38.5 721.5,-19.5 573.5,-19.5"/>
<text text-anchor="middle" x="647.5" y="-26.5" font-family="Helvetica,sans-Serif" font-size="10.00">Scene::setTextActorsVisibility</text>
</a>
</g>
</g>
<!-- Node18&#45;&gt;Node19 -->
<g id="edge22" class="edge">
<title>Node18&#45;&gt;Node19</title>
<path fill="none" stroke="midnightblue" d="M514.11,-42.27C529.55,-40.73 546.57,-39.02 563.12,-37.36"/>
<polygon fill="midnightblue" stroke="midnightblue" points="563.75,-40.81 573.35,-36.33 563.05,-33.85 563.75,-40.81"/>
</g>
<!-- Node20&#45;&gt;Node19 -->
<g id="edge24" class="edge">
<title>Node20&#45;&gt;Node19</title>
<path fill="none" stroke="midnightblue" d="M516.7,-15.99C531.47,-17.47 547.57,-19.08 563.24,-20.65"/>
<polygon fill="midnightblue" stroke="midnightblue" points="563.16,-24.16 573.46,-21.68 563.86,-17.2 563.16,-24.16"/>
</g>
<!-- Node21&#45;&gt;Node9 -->
<g id="edge29" class="edge">
<title>Node21&#45;&gt;Node9</title>
<path fill="none" stroke="midnightblue" d="M326.35,-289.97C331.87,-287.42 337.2,-284.45 342,-281 363.96,-265.24 353.89,-244.2 378,-232 439.86,-200.69 473.06,-198.94 534,-232 595.05,-265.12 628.15,-347.29 640.62,-385.23"/>
<polygon fill="midnightblue" stroke="midnightblue" points="637.38,-386.59 643.72,-395.08 644.06,-384.49 637.38,-386.59"/>
</g>
<!-- Node22 -->
<g id="node22" class="node">
<title>Node22</title>
<g id="a_node22"><a xlink:href="../../d6/db5/class_scene.html#aa52192763d5339a0e7803abe296220c9" target="_top" xlink:title="Return the cuberille visualization of the voxel grid data.">
<polygon fill="white" stroke="black" points="393.5,-114.5 393.5,-133.5 518.5,-133.5 518.5,-114.5 393.5,-114.5"/>
<text text-anchor="middle" x="456" y="-121.5" font-family="Helvetica,sans-Serif" font-size="10.00">Scene::getCuberilleActor</text>
</a>
</g>
</g>
<!-- Node21&#45;&gt;Node22 -->
<g id="edge26" class="edge">
<title>Node21&#45;&gt;Node22</title>
<path fill="none" stroke="midnightblue" d="M331.1,-289.81C335.09,-287.31 338.78,-284.39 342,-281 385.63,-235.02 332.88,-187.52 378,-143 379.93,-141.1 382.02,-139.37 384.23,-137.81"/>
<polygon fill="midnightblue" stroke="midnightblue" points="386.38,-140.61 393.29,-132.58 382.88,-134.55 386.38,-140.61"/>
</g>
<!-- Node23 -->
<g id="node23" class="node">
<title>Node23</title>
<g id="a_node23"><a xlink:href="../../d6/db5/class_scene.html#a7009d25646e9f3a07482091ed2d62e52" target="_top" xlink:title="Return the inner and outer voxels visualization of the voxel grid data.">
<polygon fill="white" stroke="black" points="378,-388 378,-418 534,-418 534,-388 378,-388"/>
<text text-anchor="start" x="386" y="-406" font-family="Helvetica,sans-Serif" font-size="10.00">Scene::getInnerAndOuterVoxels</text>
<text text-anchor="middle" x="456" y="-395" font-family="Helvetica,sans-Serif" font-size="10.00">Actor</text>
</a>
</g>
</g>
<!-- Node21&#45;&gt;Node23 -->
<g id="edge27" class="edge">
<title>Node21&#45;&gt;Node23</title>
<path fill="none" stroke="midnightblue" d="M285.63,-320.16C307.07,-336.55 343.38,-362.53 378,-379 382.02,-380.91 386.23,-382.72 390.52,-384.42"/>
<polygon fill="midnightblue" stroke="midnightblue" points="389.4,-387.74 400,-387.97 391.86,-381.18 389.4,-387.74"/>
</g>
<!-- Node24 -->
<g id="node24" class="node">
<title>Node24</title>
<g id="a_node24"><a xlink:href="../../d6/db5/class_scene.html#a04c9e871c5edc15ca00d736a9cb6c0d0" target="_top" xlink:title="Return the interior voxels only visualization of the voxel grid data.">
<polygon fill="white" stroke="black" points="394.5,-339 394.5,-369 517.5,-369 517.5,-339 394.5,-339"/>
<text text-anchor="start" x="402.5" y="-357" font-family="Helvetica,sans-Serif" font-size="10.00">Scene::getInteriorVoxels</text>
<text text-anchor="middle" x="456" y="-346" font-family="Helvetica,sans-Serif" font-size="10.00">Actor</text>
</a>
</g>
</g>
<!-- Node21&#45;&gt;Node24 -->
<g id="edge28" class="edge">
<title>Node21&#45;&gt;Node24</title>
<path fill="none" stroke="midnightblue" d="M324.34,-320.03C344.24,-325.21 366.7,-331.05 387.32,-336.41"/>
<polygon fill="midnightblue" stroke="midnightblue" points="386.71,-339.87 397.27,-338.99 388.47,-333.09 386.71,-339.87"/>
</g>
<!-- Node25 -->
<g id="node25" class="node">
<title>Node25</title>
<g id="a_node25"><a xlink:href="../../db/dae/class_voxel_image_visualizer.html#a00b60f629dcc3335bff26934e88b9bcb" target="_top" xlink:title="Return the occupation map visualization (unoccupied = yellow, occupied = blue)">
<polygon fill="white" stroke="black" points="398.5,-153 398.5,-183 513.5,-183 513.5,-153 398.5,-153"/>
<text text-anchor="start" x="406.5" y="-171" font-family="Helvetica,sans-Serif" font-size="10.00">VoxelImageVisualizer</text>
<text text-anchor="middle" x="456" y="-160" font-family="Helvetica,sans-Serif" font-size="10.00">::getOccupationOutput</text>
</a>
</g>
</g>
<!-- Node21&#45;&gt;Node25 -->
<g id="edge30" class="edge">
<title>Node21&#45;&gt;Node25</title>
<path fill="none" stroke="midnightblue" d="M329.43,-289.85C333.96,-287.34 338.22,-284.41 342,-281 371.84,-254.05 349.04,-225.89 378,-198 381.94,-194.21 386.41,-190.88 391.18,-187.96"/>
<polygon fill="midnightblue" stroke="midnightblue" points="392.91,-191 400.01,-183.14 389.55,-184.86 392.91,-191"/>
</g>
<!-- Node28 -->
<g id="node28" class="node">
<title>Node28</title>
<g id="a_node28"><a xlink:href="../../db/dae/class_voxel_image_visualizer.html#a15634f5a62fd0d71806741d1db033243" target="_top" xlink:title="Set input data of the visualizer.">
<polygon fill="white" stroke="black" points="401,-241 401,-271 511,-271 511,-241 401,-241"/>
<text text-anchor="start" x="409" y="-259" font-family="Helvetica,sans-Serif" font-size="10.00">VoxelImageVisualizer</text>
<text text-anchor="middle" x="456" y="-248" font-family="Helvetica,sans-Serif" font-size="10.00">::setInputData</text>
</a>
</g>
</g>
<!-- Node21&#45;&gt;Node28 -->
<g id="edge33" class="edge">
<title>Node21&#45;&gt;Node28</title>
<path fill="none" stroke="midnightblue" d="M324.34,-289.97C345.45,-284.48 369.45,-278.24 391.07,-272.62"/>
<polygon fill="midnightblue" stroke="midnightblue" points="392.02,-275.99 400.81,-270.09 390.25,-269.21 392.02,-275.99"/>
</g>
<!-- Node29 -->
<g id="node29" class="node">
<title>Node29</title>
<g id="a_node29"><a xlink:href="../../db/dae/class_voxel_image_visualizer.html#a65eec474a368555a6ba16c1f54e956db" target="_top" xlink:title="Set output size of the visualization.">
<polygon fill="white" stroke="black" points="401,-290 401,-320 511,-320 511,-290 401,-290"/>
<text text-anchor="start" x="409" y="-308" font-family="Helvetica,sans-Serif" font-size="10.00">VoxelImageVisualizer</text>
<text text-anchor="middle" x="456" y="-297" font-family="Helvetica,sans-Serif" font-size="10.00">::setOutputSize</text>
</a>
</g>
</g>
<!-- Node21&#45;&gt;Node29 -->
<g id="edge34" class="edge">
<title>Node21&#45;&gt;Node29</title>
<path fill="none" stroke="midnightblue" d="M339.65,-305C356.53,-305 374.37,-305 390.83,-305"/>
<polygon fill="midnightblue" stroke="midnightblue" points="390.89,-308.5 400.89,-305 390.89,-301.5 390.89,-308.5"/>
</g>
<!-- Node26 -->
<g id="node26" class="node">
<title>Node26</title>
<g id="a_node26"><a xlink:href="../../db/dae/class_voxel_image_visualizer.html#a381e70e9dba0cad1fddf946aa7f4a408" target="_top" xlink:title="Compute scaling factor for visualization actor.">
<polygon fill="white" stroke="black" points="592.5,-131 592.5,-161 702.5,-161 702.5,-131 592.5,-131"/>
<text text-anchor="start" x="600.5" y="-149" font-family="Helvetica,sans-Serif" font-size="10.00">VoxelImageVisualizer</text>
<text text-anchor="middle" x="647.5" y="-138" font-family="Helvetica,sans-Serif" font-size="10.00">::getScaleValue</text>
</a>
</g>
</g>
<!-- Node25&#45;&gt;Node26 -->
<g id="edge31" class="edge">
<title>Node25&#45;&gt;Node26</title>
<path fill="none" stroke="midnightblue" d="M513.6,-161.43C535.26,-158.91 560.11,-156.03 582.42,-153.44"/>
<polygon fill="midnightblue" stroke="midnightblue" points="582.94,-156.9 592.47,-152.27 582.13,-149.95 582.94,-156.9"/>
</g>
<!-- Node27 -->
<g id="node27" class="node">
<title>Node27</title>
<g id="a_node27"><a xlink:href="../../db/dae/class_voxel_image_visualizer.html#a2cf2e268d83ea28ea097a557b4e66fcd" target="_top" xlink:title="Compute 1D linearized index from 3D&#45;coodinate index.">
<polygon fill="white" stroke="black" points="583,-180.5 583,-199.5 712,-199.5 712,-180.5 583,-180.5"/>
<text text-anchor="middle" x="647.5" y="-187.5" font-family="Helvetica,sans-Serif" font-size="10.00">VoxelImageVisualizer::idx</text>
</a>
</g>
</g>
<!-- Node25&#45;&gt;Node27 -->
<g id="edge32" class="edge">
<title>Node25&#45;&gt;Node27</title>
<path fill="none" stroke="midnightblue" d="M513.6,-174.57C532.17,-176.73 553.1,-179.16 572.75,-181.44"/>
<polygon fill="midnightblue" stroke="midnightblue" points="572.56,-184.94 582.89,-182.62 573.36,-177.99 572.56,-184.94"/>
</g>
</g>
</svg>
