<?xml version="1.0" encoding="UTF-8" standalone="no"?>
<!DOCTYPE svg PUBLIC "-//W3C//DTD SVG 1.1//EN"
 "http://www.w3.org/Graphics/SVG/1.1/DTD/svg11.dtd">
<!-- Generated by graphviz version 2.44.1 (0)
 -->
<!-- Title: Optimizer Pages: 1 -->
<svg width="1345pt" height="545pt"
 viewBox="0.00 0.00 1344.50 545.00" xmlns="http://www.w3.org/2000/svg" xmlns:xlink="http://www.w3.org/1999/xlink">
<g id="graph0" class="graph" transform="scale(1 1) rotate(0) translate(4 541)">
<title>Optimizer</title>
<polygon fill="white" stroke="transparent" points="-4,4 -4,-541 1340.5,-541 1340.5,4 -4,4"/>
<!-- Node1 -->
<g id="node1" class="node">
<title>Node1</title>
<g id="a_node1"><a xlink:title="Base class for wirelength optimizers.">
<polygon fill="#bfbfbf" stroke="black" points="573.5,-413.5 573.5,-536.5 722.5,-536.5 722.5,-413.5 573.5,-413.5"/>
<text text-anchor="middle" x="648" y="-524.5" font-family="Helvetica,sans-Serif" font-size="10.00">Optimizer</text>
<polyline fill="none" stroke="black" points="573.5,-517.5 722.5,-517.5 "/>
<text text-anchor="start" x="581.5" y="-505.5" font-family="Helvetica,sans-Serif" font-size="10.00"># scene</text>
<text text-anchor="start" x="581.5" y="-494.5" font-family="Helvetica,sans-Serif" font-size="10.00"># connectionInfos</text>
<polyline fill="none" stroke="black" points="573.5,-487.5 722.5,-487.5 "/>
<text text-anchor="start" x="581.5" y="-475.5" font-family="Helvetica,sans-Serif" font-size="10.00">+ Optimizer()</text>
<text text-anchor="start" x="581.5" y="-464.5" font-family="Helvetica,sans-Serif" font-size="10.00">+ ~Optimizer()</text>
<text text-anchor="start" x="581.5" y="-453.5" font-family="Helvetica,sans-Serif" font-size="10.00">+ optimize()</text>
<text text-anchor="start" x="581.5" y="-442.5" font-family="Helvetica,sans-Serif" font-size="10.00">+ getConnectionInfos()</text>
<text text-anchor="start" x="581.5" y="-431.5" font-family="Helvetica,sans-Serif" font-size="10.00">+ addConnections()</text>
<text text-anchor="start" x="581.5" y="-420.5" font-family="Helvetica,sans-Serif" font-size="10.00"># computeTotalWireDistance()</text>
</a>
</g>
</g>
<!-- Node2 -->
<g id="node2" class="node">
<title>Node2</title>
<g id="a_node2"><a xlink:href="../../da/d4f/class_brute_force_optimizer.html" target="_top" xlink:title="Optimizes the total wirelength of all connections by exhaustive search.">
<polygon fill="white" stroke="black" points="0,-154.5 0,-222.5 122,-222.5 122,-154.5 0,-154.5"/>
<text text-anchor="middle" x="61" y="-210.5" font-family="Helvetica,sans-Serif" font-size="10.00">BruteForceOptimizer</text>
<polyline fill="none" stroke="black" points="0,-203.5 122,-203.5 "/>
<text text-anchor="middle" x="61" y="-191.5" font-family="Helvetica,sans-Serif" font-size="10.00"> </text>
<polyline fill="none" stroke="black" points="0,-184.5 122,-184.5 "/>
<text text-anchor="start" x="8" y="-172.5" font-family="Helvetica,sans-Serif" font-size="10.00">+ BruteForceOptimizer()</text>
<text text-anchor="start" x="8" y="-161.5" font-family="Helvetica,sans-Serif" font-size="10.00">+ optimize()</text>
</a>
</g>
</g>
<!-- Node1&#45;&gt;Node2 -->
<g id="edge1" class="edge">
<title>Node1&#45;&gt;Node2</title>
<path fill="none" stroke="midnightblue" d="M563.09,-468.09C433.66,-457.47 195.21,-431.03 131,-377 84.6,-337.96 68.94,-265.03 63.66,-222.54"/>
<polygon fill="none" stroke="midnightblue" points="563.12,-471.61 573.36,-468.92 563.68,-464.63 563.12,-471.61"/>
</g>
<!-- Node3 -->
<g id="node3" class="node">
<title>Node3</title>
<g id="a_node3"><a xlink:href="../../dc/d6d/class_g_a_optimizer.html" target="_top" xlink:title="Optimizes the total wirelength of all connections by using a genetic algorithm.">
<polygon fill="white" stroke="black" points="140,-0.5 140,-376.5 286,-376.5 286,-0.5 140,-0.5"/>
<text text-anchor="middle" x="213" y="-364.5" font-family="Helvetica,sans-Serif" font-size="10.00">GAOptimizer</text>
<polyline fill="none" stroke="black" points="140,-357.5 286,-357.5 "/>
<text text-anchor="start" x="148" y="-345.5" font-family="Helvetica,sans-Serif" font-size="10.00">&#45; dev</text>
<text text-anchor="start" x="148" y="-334.5" font-family="Helvetica,sans-Serif" font-size="10.00">&#45; rng</text>
<text text-anchor="start" x="148" y="-323.5" font-family="Helvetica,sans-Serif" font-size="10.00">&#45; populationSize</text>
<text text-anchor="start" x="148" y="-312.5" font-family="Helvetica,sans-Serif" font-size="10.00">&#45; eliteSize</text>
<text text-anchor="start" x="148" y="-301.5" font-family="Helvetica,sans-Serif" font-size="10.00">&#45; mutationRate</text>
<text text-anchor="start" x="148" y="-290.5" font-family="Helvetica,sans-Serif" font-size="10.00">&#45; numGenerations</text>
<text text-anchor="start" x="148" y="-279.5" font-family="Helvetica,sans-Serif" font-size="10.00">&#45; astar</text>
<polyline fill="none" stroke="black" points="140,-272.5 286,-272.5 "/>
<text text-anchor="start" x="148" y="-260.5" font-family="Helvetica,sans-Serif" font-size="10.00">+ GAOptimizer()</text>
<text text-anchor="start" x="148" y="-249.5" font-family="Helvetica,sans-Serif" font-size="10.00">+ optimize()</text>
<text text-anchor="start" x="148" y="-238.5" font-family="Helvetica,sans-Serif" font-size="10.00">+ getPopulationSize()</text>
<text text-anchor="start" x="148" y="-227.5" font-family="Helvetica,sans-Serif" font-size="10.00">+ setPopulationSize()</text>
<text text-anchor="start" x="148" y="-216.5" font-family="Helvetica,sans-Serif" font-size="10.00">+ getEliteSize()</text>
<text text-anchor="start" x="148" y="-205.5" font-family="Helvetica,sans-Serif" font-size="10.00">+ setEliteSize()</text>
<text text-anchor="start" x="148" y="-194.5" font-family="Helvetica,sans-Serif" font-size="10.00">+ getMutationRate()</text>
<text text-anchor="start" x="148" y="-183.5" font-family="Helvetica,sans-Serif" font-size="10.00">+ setMutationRate()</text>
<text text-anchor="start" x="148" y="-172.5" font-family="Helvetica,sans-Serif" font-size="10.00">+ getNumGenerations()</text>
<text text-anchor="start" x="148" y="-161.5" font-family="Helvetica,sans-Serif" font-size="10.00">+ setNumGenerations()</text>
<text text-anchor="start" x="148" y="-150.5" font-family="Helvetica,sans-Serif" font-size="10.00">&#45; computeTotalWireDistance()</text>
<text text-anchor="start" x="148" y="-139.5" font-family="Helvetica,sans-Serif" font-size="10.00">&#45; computeFitness()</text>
<text text-anchor="start" x="148" y="-128.5" font-family="Helvetica,sans-Serif" font-size="10.00">&#45; permuteList()</text>
<text text-anchor="start" x="148" y="-117.5" font-family="Helvetica,sans-Serif" font-size="10.00">&#45; createIndividual()</text>
<text text-anchor="start" x="148" y="-106.5" font-family="Helvetica,sans-Serif" font-size="10.00">&#45; initialPopulation()</text>
<text text-anchor="start" x="148" y="-95.5" font-family="Helvetica,sans-Serif" font-size="10.00">&#45; rankIndividuals()</text>
<text text-anchor="start" x="148" y="-84.5" font-family="Helvetica,sans-Serif" font-size="10.00">&#45; selection()</text>
<text text-anchor="start" x="148" y="-73.5" font-family="Helvetica,sans-Serif" font-size="10.00">&#45; createMatingPool()</text>
<text text-anchor="start" x="148" y="-62.5" font-family="Helvetica,sans-Serif" font-size="10.00">&#45; breed()</text>
<text text-anchor="start" x="148" y="-51.5" font-family="Helvetica,sans-Serif" font-size="10.00">&#45; breedPopulation()</text>
<text text-anchor="start" x="148" y="-40.5" font-family="Helvetica,sans-Serif" font-size="10.00">&#45; mutate()</text>
<text text-anchor="start" x="148" y="-29.5" font-family="Helvetica,sans-Serif" font-size="10.00">&#45; mutatePopulation()</text>
<text text-anchor="start" x="148" y="-18.5" font-family="Helvetica,sans-Serif" font-size="10.00">&#45; createNextPopulation()</text>
<text text-anchor="start" x="148" y="-7.5" font-family="Helvetica,sans-Serif" font-size="10.00">&#45; geneticAlgorithm()</text>
</a>
</g>
</g>
<!-- Node1&#45;&gt;Node3 -->
<g id="edge2" class="edge">
<title>Node1&#45;&gt;Node3</title>
<path fill="none" stroke="midnightblue" d="M563.16,-470.89C485,-463.77 370.09,-441.98 295,-377 291.91,-374.33 288.93,-371.51 286.06,-368.58"/>
<polygon fill="none" stroke="midnightblue" points="563.2,-474.41 573.46,-471.76 563.79,-467.43 563.2,-474.41"/>
</g>
<!-- Node4 -->
<g id="node4" class="node">
<title>Node4</title>
<g id="a_node4"><a xlink:href="../../de/d17/class_great_deluge_optimizer.html" target="_top" xlink:title="Optimizes the total wirelength of all connections by using the great deluge algorithm.">
<polygon fill="white" stroke="black" points="304,-88.5 304,-288.5 432,-288.5 432,-88.5 304,-88.5"/>
<text text-anchor="middle" x="368" y="-276.5" font-family="Helvetica,sans-Serif" font-size="10.00">GreatDelugeOptimizer</text>
<polyline fill="none" stroke="black" points="304,-269.5 432,-269.5 "/>
<text text-anchor="start" x="312" y="-257.5" font-family="Helvetica,sans-Serif" font-size="10.00">&#45; astar</text>
<text text-anchor="start" x="312" y="-246.5" font-family="Helvetica,sans-Serif" font-size="10.00">&#45; dev</text>
<text text-anchor="start" x="312" y="-235.5" font-family="Helvetica,sans-Serif" font-size="10.00">&#45; rng</text>
<text text-anchor="start" x="312" y="-224.5" font-family="Helvetica,sans-Serif" font-size="10.00">&#45; flood</text>
<text text-anchor="start" x="312" y="-213.5" font-family="Helvetica,sans-Serif" font-size="10.00">&#45; rain</text>
<text text-anchor="start" x="312" y="-202.5" font-family="Helvetica,sans-Serif" font-size="10.00">&#45; numIterations</text>
<polyline fill="none" stroke="black" points="304,-195.5 432,-195.5 "/>
<text text-anchor="start" x="312" y="-183.5" font-family="Helvetica,sans-Serif" font-size="10.00">+ GreatDelugeOptimizer()</text>
<text text-anchor="start" x="312" y="-172.5" font-family="Helvetica,sans-Serif" font-size="10.00">+ optimize()</text>
<text text-anchor="start" x="312" y="-161.5" font-family="Helvetica,sans-Serif" font-size="10.00">+ getFlood()</text>
<text text-anchor="start" x="312" y="-150.5" font-family="Helvetica,sans-Serif" font-size="10.00">+ setFlood()</text>
<text text-anchor="start" x="312" y="-139.5" font-family="Helvetica,sans-Serif" font-size="10.00">+ getRain()</text>
<text text-anchor="start" x="312" y="-128.5" font-family="Helvetica,sans-Serif" font-size="10.00">+ setRain()</text>
<text text-anchor="start" x="312" y="-117.5" font-family="Helvetica,sans-Serif" font-size="10.00">+ getNumIterations()</text>
<text text-anchor="start" x="312" y="-106.5" font-family="Helvetica,sans-Serif" font-size="10.00">+ setNumIterations()</text>
<text text-anchor="start" x="312" y="-95.5" font-family="Helvetica,sans-Serif" font-size="10.00">&#45; greatDeluge()</text>
</a>
</g>
</g>
<!-- Node1&#45;&gt;Node4 -->
<g id="edge3" class="edge">
<title>Node1&#45;&gt;Node4</title>
<path fill="none" stroke="midnightblue" d="M563.69,-450.9C522.08,-435.78 473.88,-412.16 441,-377 418.09,-352.51 402.1,-320.02 391.06,-288.97"/>
<polygon fill="none" stroke="midnightblue" points="562.69,-454.26 573.29,-454.28 565.02,-447.66 562.69,-454.26"/>
</g>
<!-- Node5 -->
<g id="node5" class="node">
<title>Node5</title>
<g id="a_node5"><a xlink:href="../../da/d20/class_greedy_optimizer.html" target="_top" xlink:title=")">
<polygon fill="white" stroke="black" points="450.5,-154.5 450.5,-222.5 555.5,-222.5 555.5,-154.5 450.5,-154.5"/>
<text text-anchor="middle" x="503" y="-210.5" font-family="Helvetica,sans-Serif" font-size="10.00">GreedyOptimizer</text>
<polyline fill="none" stroke="black" points="450.5,-203.5 555.5,-203.5 "/>
<text text-anchor="middle" x="503" y="-191.5" font-family="Helvetica,sans-Serif" font-size="10.00"> </text>
<polyline fill="none" stroke="black" points="450.5,-184.5 555.5,-184.5 "/>
<text text-anchor="start" x="458.5" y="-172.5" font-family="Helvetica,sans-Serif" font-size="10.00">+ GreedyOptimizer()</text>
<text text-anchor="start" x="458.5" y="-161.5" font-family="Helvetica,sans-Serif" font-size="10.00">+ optimize()</text>
</a>
</g>
</g>
<!-- Node1&#45;&gt;Node5 -->
<g id="edge4" class="edge">
<title>Node1&#45;&gt;Node5</title>
<path fill="none" stroke="midnightblue" d="M583.79,-405.34C576.9,-396.19 570.43,-386.63 565,-377 536.62,-326.68 518.74,-261.37 509.83,-222.6"/>
<polygon fill="none" stroke="midnightblue" points="581.05,-407.52 589.94,-413.27 586.58,-403.23 581.05,-407.52"/>
</g>
<!-- Node6 -->
<g id="node6" class="node">
<title>Node6</title>
<g id="a_node6"><a xlink:href="../../d1/d15/class_hill_climbing_optimizer.html" target="_top" xlink:title="Optimizes the total wirelength of all connections by using the hill climbing algorithm.">
<polygon fill="white" stroke="black" points="574,-94 574,-283 722,-283 722,-94 574,-94"/>
<text text-anchor="middle" x="648" y="-271" font-family="Helvetica,sans-Serif" font-size="10.00">HillClimbingOptimizer</text>
<polyline fill="none" stroke="black" points="574,-264 722,-264 "/>
<text text-anchor="start" x="582" y="-252" font-family="Helvetica,sans-Serif" font-size="10.00">&#45; astar</text>
<text text-anchor="start" x="582" y="-241" font-family="Helvetica,sans-Serif" font-size="10.00">&#45; dev</text>
<text text-anchor="start" x="582" y="-230" font-family="Helvetica,sans-Serif" font-size="10.00">&#45; rng</text>
<text text-anchor="start" x="582" y="-219" font-family="Helvetica,sans-Serif" font-size="10.00">&#45; numberOfIterations</text>
<text text-anchor="start" x="582" y="-208" font-family="Helvetica,sans-Serif" font-size="10.00">&#45; numberOfRestarts</text>
<text text-anchor="start" x="582" y="-197" font-family="Helvetica,sans-Serif" font-size="10.00">&#45; useRandomRestart</text>
<polyline fill="none" stroke="black" points="574,-190 722,-190 "/>
<text text-anchor="start" x="582" y="-178" font-family="Helvetica,sans-Serif" font-size="10.00">+ HillClimbingOptimizer()</text>
<text text-anchor="start" x="582" y="-167" font-family="Helvetica,sans-Serif" font-size="10.00">+ optimize()</text>
<text text-anchor="start" x="582" y="-156" font-family="Helvetica,sans-Serif" font-size="10.00">+ setNumberOfIterations()</text>
<text text-anchor="start" x="582" y="-145" font-family="Helvetica,sans-Serif" font-size="10.00">+ setNumberOfRestarts()</text>
<text text-anchor="start" x="582" y="-134" font-family="Helvetica,sans-Serif" font-size="10.00">+ setUseRandomRestart()</text>
<text text-anchor="start" x="582" y="-123" font-family="Helvetica,sans-Serif" font-size="10.00">+ setUseRandomRestart()</text>
<text text-anchor="start" x="582" y="-112" font-family="Helvetica,sans-Serif" font-size="10.00">&#45; hillClimbing()</text>
<text text-anchor="start" x="582" y="-101" font-family="Helvetica,sans-Serif" font-size="10.00">&#45; hillClimbingRandomRestart()</text>
</a>
</g>
</g>
<!-- Node1&#45;&gt;Node6 -->
<g id="edge5" class="edge">
<title>Node1&#45;&gt;Node6</title>
<path fill="none" stroke="midnightblue" d="M648,-403.31C648,-367 648,-322.27 648,-283.13"/>
<polygon fill="none" stroke="midnightblue" points="644.5,-403.32 648,-413.32 651.5,-403.32 644.5,-403.32"/>
</g>
<!-- Node7 -->
<g id="node7" class="node">
<title>Node7</title>
<g id="a_node7"><a xlink:href="../../d0/d4c/class_null_optimizer.html" target="_top" xlink:title="Does not optimize at all (null) but instead connects the first touchpoint with the first connector an...">
<polygon fill="white" stroke="black" points="740.5,-154.5 740.5,-222.5 831.5,-222.5 831.5,-154.5 740.5,-154.5"/>
<text text-anchor="middle" x="786" y="-210.5" font-family="Helvetica,sans-Serif" font-size="10.00">NullOptimizer</text>
<polyline fill="none" stroke="black" points="740.5,-203.5 831.5,-203.5 "/>
<text text-anchor="middle" x="786" y="-191.5" font-family="Helvetica,sans-Serif" font-size="10.00"> </text>
<polyline fill="none" stroke="black" points="740.5,-184.5 831.5,-184.5 "/>
<text text-anchor="start" x="748.5" y="-172.5" font-family="Helvetica,sans-Serif" font-size="10.00">+ NullOptimizer()</text>
<text text-anchor="start" x="748.5" y="-161.5" font-family="Helvetica,sans-Serif" font-size="10.00">+ optimize()</text>
</a>
</g>
</g>
<!-- Node1&#45;&gt;Node7 -->
<g id="edge6" class="edge">
<title>Node1&#45;&gt;Node7</title>
<path fill="none" stroke="midnightblue" d="M712.53,-405.52C719.37,-396.34 725.73,-386.72 731,-377 758.23,-326.74 773.44,-261.41 780.66,-222.63"/>
<polygon fill="none" stroke="midnightblue" points="709.74,-403.41 706.42,-413.47 715.29,-407.68 709.74,-403.41"/>
</g>
<!-- Node8 -->
<g id="node8" class="node">
<title>Node8</title>
<g id="a_node8"><a xlink:href="../../d2/d35/class_random_optimizer.html" target="_top" xlink:title="The RandomOptimizer generates random connections in the hope to find a good one by pure luck.">
<polygon fill="white" stroke="black" points="849.5,-138 849.5,-239 980.5,-239 980.5,-138 849.5,-138"/>
<text text-anchor="middle" x="915" y="-227" font-family="Helvetica,sans-Serif" font-size="10.00">RandomOptimizer</text>
<polyline fill="none" stroke="black" points="849.5,-220 980.5,-220 "/>
<text text-anchor="start" x="857.5" y="-208" font-family="Helvetica,sans-Serif" font-size="10.00">&#45; rd</text>
<text text-anchor="start" x="857.5" y="-197" font-family="Helvetica,sans-Serif" font-size="10.00">&#45; mt</text>
<text text-anchor="start" x="857.5" y="-186" font-family="Helvetica,sans-Serif" font-size="10.00">&#45; numIterations</text>
<polyline fill="none" stroke="black" points="849.5,-179 980.5,-179 "/>
<text text-anchor="start" x="857.5" y="-167" font-family="Helvetica,sans-Serif" font-size="10.00">+ RandomOptimizer()</text>
<text text-anchor="start" x="857.5" y="-156" font-family="Helvetica,sans-Serif" font-size="10.00">+ optimize()</text>
<text text-anchor="start" x="857.5" y="-145" font-family="Helvetica,sans-Serif" font-size="10.00">+ setNumberOfIterations()</text>
</a>
</g>
</g>
<!-- Node1&#45;&gt;Node8 -->
<g id="edge7" class="edge">
<title>Node1&#45;&gt;Node8</title>
<path fill="none" stroke="midnightblue" d="M732,-447.39C769.5,-431.92 811.73,-409.03 841,-377 876.41,-338.25 895.73,-280.54 905.66,-239.39"/>
<polygon fill="none" stroke="midnightblue" points="730.56,-444.19 722.57,-451.16 733.16,-450.69 730.56,-444.19"/>
</g>
<!-- Node9 -->
<g id="node9" class="node">
<title>Node9</title>
<g id="a_node9"><a xlink:href="../../d0/d53/class_simulated_annealing_optimizer.html" target="_top" xlink:title="Optimizes the total wirelength of all connections by using the simulated annealing optimizer.">
<polygon fill="white" stroke="black" points="999,-105 999,-272 1159,-272 1159,-105 999,-105"/>
<text text-anchor="middle" x="1079" y="-260" font-family="Helvetica,sans-Serif" font-size="10.00">SimulatedAnnealingOptimizer</text>
<polyline fill="none" stroke="black" points="999,-253 1159,-253 "/>
<text text-anchor="start" x="1007" y="-241" font-family="Helvetica,sans-Serif" font-size="10.00">&#45; astar</text>
<text text-anchor="start" x="1007" y="-230" font-family="Helvetica,sans-Serif" font-size="10.00">&#45; dev</text>
<text text-anchor="start" x="1007" y="-219" font-family="Helvetica,sans-Serif" font-size="10.00">&#45; rng</text>
<text text-anchor="start" x="1007" y="-208" font-family="Helvetica,sans-Serif" font-size="10.00">&#45; temperature</text>
<text text-anchor="start" x="1007" y="-197" font-family="Helvetica,sans-Serif" font-size="10.00">&#45; coolingRate</text>
<polyline fill="none" stroke="black" points="999,-190 1159,-190 "/>
<text text-anchor="start" x="1007" y="-178" font-family="Helvetica,sans-Serif" font-size="10.00">+ SimulatedAnnealingOptimizer()</text>
<text text-anchor="start" x="1007" y="-167" font-family="Helvetica,sans-Serif" font-size="10.00">+ optimize()</text>
<text text-anchor="start" x="1007" y="-156" font-family="Helvetica,sans-Serif" font-size="10.00">+ getTemperature()</text>
<text text-anchor="start" x="1007" y="-145" font-family="Helvetica,sans-Serif" font-size="10.00">+ setTemperature()</text>
<text text-anchor="start" x="1007" y="-134" font-family="Helvetica,sans-Serif" font-size="10.00">+ getCoolingRate()</text>
<text text-anchor="start" x="1007" y="-123" font-family="Helvetica,sans-Serif" font-size="10.00">+ setCoolingRate()</text>
<text text-anchor="start" x="1007" y="-112" font-family="Helvetica,sans-Serif" font-size="10.00">&#45; simulatedAnnealing()</text>
</a>
</g>
</g>
<!-- Node1&#45;&gt;Node9 -->
<g id="edge8" class="edge">
<title>Node1&#45;&gt;Node9</title>
<path fill="none" stroke="midnightblue" d="M733.04,-469.3C808.4,-461.01 917.43,-438.38 990,-377 1021.92,-350.01 1043.18,-308.98 1056.9,-272.18"/>
<polygon fill="none" stroke="midnightblue" points="732.23,-465.87 722.64,-470.38 732.95,-472.83 732.23,-465.87"/>
</g>
<!-- Node10 -->
<g id="node10" class="node">
<title>Node10</title>
<g id="a_node10"><a xlink:href="../../d0/da8/class_threshold_accepting_optimizer.html" target="_top" xlink:title="Optimizes total wirelength of all connections by using the threshold acceptance algorithm.">
<polygon fill="white" stroke="black" points="1177.5,-88.5 1177.5,-288.5 1336.5,-288.5 1336.5,-88.5 1177.5,-88.5"/>
<text text-anchor="middle" x="1257" y="-276.5" font-family="Helvetica,sans-Serif" font-size="10.00">ThresholdAcceptingOptimizer</text>
<polyline fill="none" stroke="black" points="1177.5,-269.5 1336.5,-269.5 "/>
<text text-anchor="start" x="1185.5" y="-257.5" font-family="Helvetica,sans-Serif" font-size="10.00">&#45; astar</text>
<text text-anchor="start" x="1185.5" y="-246.5" font-family="Helvetica,sans-Serif" font-size="10.00">&#45; dev</text>
<text text-anchor="start" x="1185.5" y="-235.5" font-family="Helvetica,sans-Serif" font-size="10.00">&#45; rng</text>
<text text-anchor="start" x="1185.5" y="-224.5" font-family="Helvetica,sans-Serif" font-size="10.00">&#45; threshold</text>
<text text-anchor="start" x="1185.5" y="-213.5" font-family="Helvetica,sans-Serif" font-size="10.00">&#45; decrement</text>
<text text-anchor="start" x="1185.5" y="-202.5" font-family="Helvetica,sans-Serif" font-size="10.00">&#45; numIterations</text>
<polyline fill="none" stroke="black" points="1177.5,-195.5 1336.5,-195.5 "/>
<text text-anchor="start" x="1185.5" y="-183.5" font-family="Helvetica,sans-Serif" font-size="10.00">+ ThresholdAcceptingOptimizer()</text>
<text text-anchor="start" x="1185.5" y="-172.5" font-family="Helvetica,sans-Serif" font-size="10.00">+ optimize()</text>
<text text-anchor="start" x="1185.5" y="-161.5" font-family="Helvetica,sans-Serif" font-size="10.00">+ getThreshold()</text>
<text text-anchor="start" x="1185.5" y="-150.5" font-family="Helvetica,sans-Serif" font-size="10.00">+ setThreshold()</text>
<text text-anchor="start" x="1185.5" y="-139.5" font-family="Helvetica,sans-Serif" font-size="10.00">+ getDecrement()</text>
<text text-anchor="start" x="1185.5" y="-128.5" font-family="Helvetica,sans-Serif" font-size="10.00">+ setDecrement()</text>
<text text-anchor="start" x="1185.5" y="-117.5" font-family="Helvetica,sans-Serif" font-size="10.00">+ getNumIterations()</text>
<text text-anchor="start" x="1185.5" y="-106.5" font-family="Helvetica,sans-Serif" font-size="10.00">+ setNumIterations()</text>
<text text-anchor="start" x="1185.5" y="-95.5" font-family="Helvetica,sans-Serif" font-size="10.00">&#45; thresholdAccepting()</text>
</a>
</g>
</g>
<!-- Node1&#45;&gt;Node10 -->
<g id="edge9" class="edge">
<title>Node1&#45;&gt;Node10</title>
<path fill="none" stroke="midnightblue" d="M732.85,-467.48C862.3,-456.03 1101.13,-428.47 1168,-377 1196.7,-354.91 1216.58,-321.27 1230.14,-288.55"/>
<polygon fill="none" stroke="midnightblue" points="732.24,-464.02 722.58,-468.38 732.85,-471 732.24,-464.02"/>
</g>
</g>
</svg>
