<?xml version="1.0" encoding="UTF-8" standalone="no"?>
<!DOCTYPE svg PUBLIC "-//W3C//DTD SVG 1.1//EN"
 "http://www.w3.org/Graphics/SVG/1.1/DTD/svg11.dtd">
<!-- Generated by graphviz version 2.44.1 (0)
 -->
<!-- Title: NullOptimizer Pages: 1 -->
<svg width="157pt" height="237pt"
 viewBox="0.00 0.00 157.00 237.00" xmlns="http://www.w3.org/2000/svg" xmlns:xlink="http://www.w3.org/1999/xlink">
<g id="graph0" class="graph" transform="scale(1 1) rotate(0) translate(4 233)">
<title>NullOptimizer</title>
<polygon fill="white" stroke="transparent" points="-4,4 -4,-233 153,-233 153,4 -4,4"/>
<!-- Node1 -->
<g id="node1" class="node">
<title>Node1</title>
<g id="a_node1"><a xlink:title="Does not optimize at all (null) but instead connects the first touchpoint with the first connector an...">
<polygon fill="#bfbfbf" stroke="black" points="29,-0.5 29,-68.5 120,-68.5 120,-0.5 29,-0.5"/>
<text text-anchor="middle" x="74.5" y="-56.5" font-family="Helvetica,sans-Serif" font-size="10.00">NullOptimizer</text>
<polyline fill="none" stroke="black" points="29,-49.5 120,-49.5 "/>
<text text-anchor="middle" x="74.5" y="-37.5" font-family="Helvetica,sans-Serif" font-size="10.00"> </text>
<polyline fill="none" stroke="black" points="29,-30.5 120,-30.5 "/>
<text text-anchor="start" x="37" y="-18.5" font-family="Helvetica,sans-Serif" font-size="10.00">+ NullOptimizer()</text>
<text text-anchor="start" x="37" y="-7.5" font-family="Helvetica,sans-Serif" font-size="10.00">+ optimize()</text>
</a>
</g>
</g>
<!-- Node2 -->
<g id="node2" class="node">
<title>Node2</title>
<g id="a_node2"><a xlink:href="../../d9/d02/class_optimizer.html" target="_top" xlink:title="Base class for wirelength optimizers.">
<polygon fill="white" stroke="black" points="0,-105.5 0,-228.5 149,-228.5 149,-105.5 0,-105.5"/>
<text text-anchor="middle" x="74.5" y="-216.5" font-family="Helvetica,sans-Serif" font-size="10.00">Optimizer</text>
<polyline fill="none" stroke="black" points="0,-209.5 149,-209.5 "/>
<text text-anchor="start" x="8" y="-197.5" font-family="Helvetica,sans-Serif" font-size="10.00"># scene</text>
<text text-anchor="start" x="8" y="-186.5" font-family="Helvetica,sans-Serif" font-size="10.00"># connectionInfos</text>
<polyline fill="none" stroke="black" points="0,-179.5 149,-179.5 "/>
<text text-anchor="start" x="8" y="-167.5" font-family="Helvetica,sans-Serif" font-size="10.00">+ Optimizer()</text>
<text text-anchor="start" x="8" y="-156.5" font-family="Helvetica,sans-Serif" font-size="10.00">+ ~Optimizer()</text>
<text text-anchor="start" x="8" y="-145.5" font-family="Helvetica,sans-Serif" font-size="10.00">+ optimize()</text>
<text text-anchor="start" x="8" y="-134.5" font-family="Helvetica,sans-Serif" font-size="10.00">+ getConnectionInfos()</text>
<text text-anchor="start" x="8" y="-123.5" font-family="Helvetica,sans-Serif" font-size="10.00">+ addConnections()</text>
<text text-anchor="start" x="8" y="-112.5" font-family="Helvetica,sans-Serif" font-size="10.00"># computeTotalWireDistance()</text>
</a>
</g>
</g>
<!-- Node2&#45;&gt;Node1 -->
<g id="edge1" class="edge">
<title>Node2&#45;&gt;Node1</title>
<path fill="none" stroke="midnightblue" d="M74.5,-95.24C74.5,-85.97 74.5,-76.84 74.5,-68.62"/>
<polygon fill="none" stroke="midnightblue" points="71,-95.33 74.5,-105.33 78,-95.33 71,-95.33"/>
</g>
</g>
</svg>
