<?xml version="1.0" encoding="UTF-8" standalone="no"?>
<!DOCTYPE svg PUBLIC "-//W3C//DTD SVG 1.1//EN"
 "http://www.w3.org/Graphics/SVG/1.1/DTD/svg11.dtd">
<!-- Generated by graphviz version 2.44.0 (0)
 -->
<!-- Title: PickingInteractorStyle::OnRightButtonDown Pages: 1 -->
<svg width="689pt" height="610pt"
 viewBox="0.00 0.00 689.00 609.50" xmlns="http://www.w3.org/2000/svg" xmlns:xlink="http://www.w3.org/1999/xlink">
<g id="graph0" class="graph" transform="scale(1 1) rotate(0) translate(4 605.5)">
<title>PickingInteractorStyle::OnRightButtonDown</title>
<polygon fill="white" stroke="transparent" points="-4,4 -4,-605.5 685,-605.5 685,4 -4,4"/>
<!-- Node1 -->
<g id="node1" class="node">
<title>Node1</title>
<g id="a_node1"><a xlink:title="Overloaded method, invoked when right mouse button is pressed.">
<polygon fill="#bfbfbf" stroke="black" points="0,-308 0,-338 113,-338 113,-308 0,-308"/>
<text text-anchor="start" x="8" y="-326" font-family="Helvetica,sans-Serif" font-size="10.00">PickingInteractorStyle</text>
<text text-anchor="middle" x="56.5" y="-315" font-family="Helvetica,sans-Serif" font-size="10.00">::OnRightButtonDown</text>
</a>
</g>
</g>
<!-- Node2 -->
<g id="node2" class="node">
<title>Node2</title>
<g id="a_node2"><a xlink:href="../../d9/d58/class_touchpoint.html#ad2583d5312abcd383e7b12c841668a19" target="_top" xlink:title="Return outside wiring entry point (world coordinates)">
<polygon fill="white" stroke="black" points="157,-571 157,-601 290,-601 290,-571 157,-571"/>
<text text-anchor="start" x="165" y="-589" font-family="Helvetica,sans-Serif" font-size="10.00">Touchpoint::getConnection</text>
<text text-anchor="middle" x="223.5" y="-578" font-family="Helvetica,sans-Serif" font-size="10.00">Point</text>
</a>
</g>
</g>
<!-- Node1&#45;&gt;Node2 -->
<g id="edge1" class="edge">
<title>Node1&#45;&gt;Node2</title>
<path fill="none" stroke="midnightblue" d="M58.85,-338.04C63.4,-379.77 81.88,-498.15 149,-562 150.12,-563.07 151.3,-564.09 152.51,-565.07"/>
<polygon fill="midnightblue" stroke="midnightblue" points="150.82,-568.15 161.06,-570.87 154.76,-562.36 150.82,-568.15"/>
</g>
<!-- Node3 -->
<g id="node3" class="node">
<title>Node3</title>
<g id="a_node3"><a xlink:href="../../d9/d58/class_touchpoint.html#a30cdb1f0de39cf4ffe2d23c3c750d331" target="_top" xlink:title="Return outside wiring entry point (grid coordinates)">
<polygon fill="white" stroke="black" points="157,-522 157,-552 290,-552 290,-522 157,-522"/>
<text text-anchor="start" x="165" y="-540" font-family="Helvetica,sans-Serif" font-size="10.00">Touchpoint::getConnection</text>
<text text-anchor="middle" x="223.5" y="-529" font-family="Helvetica,sans-Serif" font-size="10.00">PointIndex</text>
</a>
</g>
</g>
<!-- Node1&#45;&gt;Node3 -->
<g id="edge2" class="edge">
<title>Node1&#45;&gt;Node3</title>
<path fill="none" stroke="midnightblue" d="M60.63,-338.17C68.75,-373.75 93.83,-463.23 149,-512 150.76,-513.56 152.63,-515.02 154.57,-516.39"/>
<polygon fill="midnightblue" stroke="midnightblue" points="153.18,-519.64 163.54,-521.85 156.82,-513.66 153.18,-519.64"/>
</g>
<!-- Node4 -->
<g id="node4" class="node">
<title>Node4</title>
<g id="a_node4"><a xlink:href="../../d9/d58/class_touchpoint.html#a4218ce91b053777b2fbc84b7fc8e67e5" target="_top" xlink:title="Return the unique touchpoint id.">
<polygon fill="white" stroke="black" points="176.5,-483.5 176.5,-502.5 270.5,-502.5 270.5,-483.5 176.5,-483.5"/>
<text text-anchor="middle" x="223.5" y="-490.5" font-family="Helvetica,sans-Serif" font-size="10.00">Touchpoint::getID</text>
</a>
</g>
</g>
<!-- Node1&#45;&gt;Node4 -->
<g id="edge3" class="edge">
<title>Node1&#45;&gt;Node4</title>
<path fill="none" stroke="midnightblue" d="M62.28,-338.09C72.77,-368.68 100.79,-438.15 149,-474 154.21,-477.87 160.13,-480.96 166.29,-483.41"/>
<polygon fill="midnightblue" stroke="midnightblue" points="165.53,-486.85 176.12,-486.78 167.8,-480.23 165.53,-486.85"/>
</g>
<!-- Node5 -->
<g id="node5" class="node">
<title>Node5</title>
<g id="a_node5"><a xlink:href="../../d9/d58/class_touchpoint.html#a91d71ea023b3d877f7827747a547cf02" target="_top" xlink:title="Return the interior wiring connection position (grid coordinates)">
<polygon fill="white" stroke="black" points="149,-434 149,-464 298,-464 298,-434 149,-434"/>
<text text-anchor="start" x="157" y="-452" font-family="Helvetica,sans-Serif" font-size="10.00">Touchpoint::getInteriorPosition</text>
<text text-anchor="middle" x="223.5" y="-441" font-family="Helvetica,sans-Serif" font-size="10.00">Index</text>
</a>
</g>
</g>
<!-- Node1&#45;&gt;Node5 -->
<g id="edge4" class="edge">
<title>Node1&#45;&gt;Node5</title>
<path fill="none" stroke="midnightblue" d="M67.49,-338.24C82.63,-360.18 113.41,-400.61 149,-424 151.96,-425.95 155.09,-427.76 158.32,-429.44"/>
<polygon fill="midnightblue" stroke="midnightblue" points="157.1,-432.73 167.64,-433.84 160.1,-426.4 157.1,-432.73"/>
</g>
<!-- Node6 -->
<g id="node6" class="node">
<title>Node6</title>
<g id="a_node6"><a xlink:href="../../d6/db5/class_scene.html#a7e5ee53ea01ef113afaaf4b7c10accf3" target="_top" xlink:title="Return the voxel grid image data.">
<polygon fill="white" stroke="black" points="169,-395.5 169,-414.5 278,-414.5 278,-395.5 169,-395.5"/>
<text text-anchor="middle" x="223.5" y="-402.5" font-family="Helvetica,sans-Serif" font-size="10.00">Scene::getVoxelData</text>
</a>
</g>
</g>
<!-- Node1&#45;&gt;Node6 -->
<g id="edge5" class="edge">
<title>Node1&#45;&gt;Node6</title>
<path fill="none" stroke="midnightblue" d="M75.27,-338.07C92.92,-352.32 121.28,-373.35 149,-386 154.3,-388.42 159.96,-390.57 165.7,-392.47"/>
<polygon fill="midnightblue" stroke="midnightblue" points="164.8,-395.85 175.38,-395.44 166.85,-389.16 164.8,-395.85"/>
</g>
<!-- Node7 -->
<g id="node7" class="node">
<title>Node7</title>
<g id="a_node7"><a xlink:href="../../d6/db5/class_scene.html#a7caf30a70e69430d5e4ac93d6828a649" target="_top" xlink:title="Return the bounds of the voxel grid.">
<polygon fill="white" stroke="black" points="155,-357.5 155,-376.5 292,-376.5 292,-357.5 155,-357.5"/>
<text text-anchor="middle" x="223.5" y="-364.5" font-family="Helvetica,sans-Serif" font-size="10.00">Scene::getVoxelgridBounds</text>
</a>
</g>
</g>
<!-- Node1&#45;&gt;Node7 -->
<g id="edge6" class="edge">
<title>Node1&#45;&gt;Node7</title>
<path fill="none" stroke="midnightblue" d="M112.14,-338.06C124.27,-341.37 137.06,-344.83 149,-348 157.51,-350.26 166.59,-352.64 175.36,-354.92"/>
<polygon fill="midnightblue" stroke="midnightblue" points="174.52,-358.32 185.08,-357.43 176.28,-351.54 174.52,-358.32"/>
</g>
<!-- Node9 -->
<g id="node9" class="node">
<title>Node9</title>
<g id="a_node9"><a xlink:href="../../d9/d58/class_touchpoint.html#afbb2470ea0d67a12a29eb3d6bd958f01" target="_top" xlink:title="Mark voxel grid cells as occupied by the touchpoint geometry.">
<polygon fill="white" stroke="black" points="153,-269.5 153,-288.5 294,-288.5 294,-269.5 153,-269.5"/>
<text text-anchor="middle" x="223.5" y="-276.5" font-family="Helvetica,sans-Serif" font-size="10.00">Touchpoint::markOccupation</text>
</a>
</g>
</g>
<!-- Node1&#45;&gt;Node9 -->
<g id="edge8" class="edge">
<title>Node1&#45;&gt;Node9</title>
<path fill="none" stroke="midnightblue" d="M113.36,-308.1C133.9,-302.63 156.91,-296.49 176.49,-291.27"/>
<polygon fill="midnightblue" stroke="midnightblue" points="177.62,-294.59 186.38,-288.63 175.82,-287.83 177.62,-294.59"/>
</g>
<!-- Node14 -->
<g id="node14" class="node">
<title>Node14</title>
<g id="a_node14"><a xlink:href="../../d9/d58/class_touchpoint.html#a7249595ec0bd71c7348062e06fc32065" target="_top" xlink:title="Mark a single voxel grid cell as unoccupied.">
<polygon fill="white" stroke="black" points="152,-231.5 152,-250.5 295,-250.5 295,-231.5 152,-231.5"/>
<text text-anchor="middle" x="223.5" y="-238.5" font-family="Helvetica,sans-Serif" font-size="10.00">Touchpoint::markUnoccupied</text>
</a>
</g>
</g>
<!-- Node1&#45;&gt;Node14 -->
<g id="edge13" class="edge">
<title>Node1&#45;&gt;Node14</title>
<path fill="none" stroke="midnightblue" d="M75.27,-307.93C92.92,-293.68 121.28,-272.65 149,-260 154.3,-257.58 159.96,-255.43 165.7,-253.53"/>
<polygon fill="midnightblue" stroke="midnightblue" points="166.85,-256.84 175.38,-250.56 164.8,-250.15 166.85,-256.84"/>
</g>
<!-- Node15 -->
<g id="node15" class="node">
<title>Node15</title>
<g id="a_node15"><a xlink:href="../../d9/d58/class_touchpoint.html#af3e0979fc1385955c5aae51968555dd3" target="_top" xlink:title="Set the actor of the connection point.">
<polygon fill="white" stroke="black" points="157,-182 157,-212 290,-212 290,-182 157,-182"/>
<text text-anchor="start" x="165" y="-200" font-family="Helvetica,sans-Serif" font-size="10.00">Touchpoint::setConnection</text>
<text text-anchor="middle" x="223.5" y="-189" font-family="Helvetica,sans-Serif" font-size="10.00">PointActor</text>
</a>
</g>
</g>
<!-- Node1&#45;&gt;Node15 -->
<g id="edge14" class="edge">
<title>Node1&#45;&gt;Node15</title>
<path fill="none" stroke="midnightblue" d="M67.49,-307.76C82.63,-285.82 113.41,-245.39 149,-222 151.96,-220.05 155.09,-218.24 158.32,-216.56"/>
<polygon fill="midnightblue" stroke="midnightblue" points="160.1,-219.6 167.64,-212.16 157.1,-213.27 160.1,-219.6"/>
</g>
<!-- Node16 -->
<g id="node16" class="node">
<title>Node16</title>
<g id="a_node16"><a xlink:href="../../d9/d58/class_touchpoint.html#a5a4ea272e98b33d3cacc0c7ffce3a96f" target="_top" xlink:title="Set the geometry (vtkPolyData) of the connection point polydata.">
<polygon fill="white" stroke="black" points="157,-133 157,-163 290,-163 290,-133 157,-133"/>
<text text-anchor="start" x="165" y="-151" font-family="Helvetica,sans-Serif" font-size="10.00">Touchpoint::setConnection</text>
<text text-anchor="middle" x="223.5" y="-140" font-family="Helvetica,sans-Serif" font-size="10.00">PointPolyData</text>
</a>
</g>
</g>
<!-- Node1&#45;&gt;Node16 -->
<g id="edge15" class="edge">
<title>Node1&#45;&gt;Node16</title>
<path fill="none" stroke="midnightblue" d="M62.7,-307.84C73.79,-277.76 102.58,-210.19 149,-173 151.27,-171.18 153.68,-169.49 156.18,-167.93"/>
<polygon fill="midnightblue" stroke="midnightblue" points="157.97,-170.94 165.03,-163.04 154.59,-164.81 157.97,-170.94"/>
</g>
<!-- Node17 -->
<g id="node17" class="node">
<title>Node17</title>
<g id="a_node17"><a xlink:href="../../db/dbb/class_picking_interactor_style.html#afdf64f66ae105b3123ca523b6f3d468d" target="_top" xlink:title="Set interactor mode to TRACKBALL_MODE.">
<polygon fill="white" stroke="black" points="167,-84 167,-114 280,-114 280,-84 167,-84"/>
<text text-anchor="start" x="175" y="-102" font-family="Helvetica,sans-Serif" font-size="10.00">PickingInteractorStyle</text>
<text text-anchor="middle" x="223.5" y="-91" font-family="Helvetica,sans-Serif" font-size="10.00">::trackballMode</text>
</a>
</g>
</g>
<!-- Node1&#45;&gt;Node17 -->
<g id="edge16" class="edge">
<title>Node1&#45;&gt;Node17</title>
<path fill="none" stroke="midnightblue" d="M60.22,-307.86C67.61,-271 91.54,-175.83 149,-124 151.77,-121.51 154.79,-119.26 157.98,-117.24"/>
<polygon fill="midnightblue" stroke="midnightblue" points="159.72,-120.28 166.78,-112.38 156.33,-114.15 159.72,-120.28"/>
</g>
<!-- Node18 -->
<g id="node18" class="node">
<title>Node18</title>
<g id="a_node18"><a xlink:href="../../d6/db5/class_scene.html#aaff4c55f5c640ec8a12b62c5b6c11865" target="_top" xlink:title="Update the touchpoint / connector number text labels.">
<polygon fill="white" stroke="black" points="169.5,-43.5 169.5,-62.5 277.5,-62.5 277.5,-43.5 169.5,-43.5"/>
<text text-anchor="middle" x="223.5" y="-50.5" font-family="Helvetica,sans-Serif" font-size="10.00">Scene::updateLabels</text>
</a>
</g>
</g>
<!-- Node1&#45;&gt;Node18 -->
<g id="edge17" class="edge">
<title>Node1&#45;&gt;Node18</title>
<path fill="none" stroke="midnightblue" d="M58.52,-307.94C62.26,-265 78.92,-140.82 149,-75 152.37,-71.84 156.17,-69.13 160.23,-66.81"/>
<polygon fill="midnightblue" stroke="midnightblue" points="162,-69.84 169.46,-62.32 158.94,-63.54 162,-69.84"/>
</g>
<!-- Node23 -->
<g id="node23" class="node">
<title>Node23</title>
<g id="a_node23"><a xlink:href="../../d6/db5/class_scene.html#a415555bc0037489b1a9421747c318746" target="_top" xlink:title="Update the occupation map visualization after changes to the underlying voxel data.">
<polygon fill="white" stroke="black" points="149.5,-308 149.5,-338 297.5,-338 297.5,-308 149.5,-308"/>
<text text-anchor="start" x="157.5" y="-326" font-family="Helvetica,sans-Serif" font-size="10.00">Scene::updateOccupationMap</text>
<text text-anchor="middle" x="223.5" y="-315" font-family="Helvetica,sans-Serif" font-size="10.00">Actor</text>
</a>
</g>
</g>
<!-- Node1&#45;&gt;Node23 -->
<g id="edge23" class="edge">
<title>Node1&#45;&gt;Node23</title>
<path fill="none" stroke="midnightblue" d="M113.36,-323C121.69,-323 130.43,-323 139.18,-323"/>
<polygon fill="midnightblue" stroke="midnightblue" points="139.44,-326.5 149.44,-323 139.44,-319.5 139.44,-326.5"/>
</g>
<!-- Node8 -->
<g id="node8" class="node">
<title>Node8</title>
<g id="a_node8"><a xlink:href="../../d6/db5/class_scene.html#a0799bb0687ffe3a97e0523a4e700ef2d" target="_top" xlink:title="Return the occupation map visualization.">
<polygon fill="white" stroke="black" points="334.5,-447.5 334.5,-466.5 489.5,-466.5 489.5,-447.5 334.5,-447.5"/>
<text text-anchor="middle" x="412" y="-454.5" font-family="Helvetica,sans-Serif" font-size="10.00">Scene::getOccupationMapActor</text>
</a>
</g>
</g>
<!-- Node7&#45;&gt;Node8 -->
<g id="edge7" class="edge">
<title>Node7&#45;&gt;Node8</title>
<path fill="none" stroke="midnightblue" d="M279.81,-376.64C286.25,-379.09 292.49,-382.15 298,-386 321.05,-402.08 310.86,-422.05 334,-438 336.92,-440.01 340.04,-441.82 343.28,-443.43"/>
<polygon fill="midnightblue" stroke="midnightblue" points="342.11,-446.73 352.68,-447.48 344.88,-440.31 342.11,-446.73"/>
</g>
<!-- Node10 -->
<g id="node10" class="node">
<title>Node10</title>
<g id="a_node10"><a xlink:href="../../d9/d58/class_touchpoint.html#a1b82f162b238396efeae6b9369430a87" target="_top" xlink:title="Mark voxel grid cells occupied / unoccupied by the touchpoint geometry.">
<polygon fill="white" stroke="black" points="342.5,-115 342.5,-145 481.5,-145 481.5,-115 342.5,-115"/>
<text text-anchor="start" x="350.5" y="-133" font-family="Helvetica,sans-Serif" font-size="10.00">Touchpoint::markTouchpoint</text>
<text text-anchor="middle" x="412" y="-122" font-family="Helvetica,sans-Serif" font-size="10.00">Cells</text>
</a>
</g>
</g>
<!-- Node9&#45;&gt;Node10 -->
<g id="edge9" class="edge">
<title>Node9&#45;&gt;Node10</title>
<path fill="none" stroke="midnightblue" d="M283.84,-269.42C289,-266.94 293.84,-263.85 298,-260 334.21,-226.49 298.83,-189.6 334,-155 335.47,-153.56 337.01,-152.2 338.63,-150.92"/>
<polygon fill="midnightblue" stroke="midnightblue" points="340.88,-153.63 347.24,-145.15 336.98,-147.81 340.88,-153.63"/>
</g>
<!-- Node11 -->
<g id="node11" class="node">
<title>Node11</title>
<g id="a_node11"><a xlink:href="../../d1/d7c/namespace_utils.html#ac9b063fc04e0a4e5501c8ed0af96ac47" target="_top" xlink:title="Clamp integer value between min and max.">
<polygon fill="white" stroke="black" points="563.5,-164.5 563.5,-183.5 643.5,-183.5 643.5,-164.5 563.5,-164.5"/>
<text text-anchor="middle" x="603.5" y="-171.5" font-family="Helvetica,sans-Serif" font-size="10.00">Utils::clampInt</text>
</a>
</g>
</g>
<!-- Node10&#45;&gt;Node11 -->
<g id="edge10" class="edge">
<title>Node10&#45;&gt;Node11</title>
<path fill="none" stroke="midnightblue" d="M477.69,-145.02C502.53,-150.79 530.45,-157.27 553.57,-162.64"/>
<polygon fill="midnightblue" stroke="midnightblue" points="552.97,-166.09 563.5,-164.94 554.55,-159.27 552.97,-166.09"/>
</g>
<!-- Node12 -->
<g id="node12" class="node">
<title>Node12</title>
<g id="a_node12"><a xlink:href="../../d9/d58/class_touchpoint.html#a465057d2b000f7fc374d594fb8b80ce6" target="_top" xlink:title="Return the bounds of the touchpoint in world coordinates.">
<polygon fill="white" stroke="black" points="526,-115 526,-145 681,-145 681,-115 526,-115"/>
<text text-anchor="start" x="534" y="-133" font-family="Helvetica,sans-Serif" font-size="10.00">Touchpoint::getWorldCoordinate</text>
<text text-anchor="middle" x="603.5" y="-122" font-family="Helvetica,sans-Serif" font-size="10.00">Bounds</text>
</a>
</g>
</g>
<!-- Node10&#45;&gt;Node12 -->
<g id="edge11" class="edge">
<title>Node10&#45;&gt;Node12</title>
<path fill="none" stroke="midnightblue" d="M481.68,-130C492.63,-130 504.08,-130 515.39,-130"/>
<polygon fill="midnightblue" stroke="midnightblue" points="515.71,-133.5 525.71,-130 515.71,-126.5 515.71,-133.5"/>
</g>
<!-- Node13 -->
<g id="node13" class="node">
<title>Node13</title>
<g id="a_node13"><a xlink:href="../../d1/d7c/namespace_utils.html#a606fb1eb5072ca20f56293fa71bd8578" target="_top" xlink:title="Compute 1D linearized index from 3D&#45;coodinate index.">
<polygon fill="white" stroke="black" points="575.5,-76.5 575.5,-95.5 631.5,-95.5 631.5,-76.5 575.5,-76.5"/>
<text text-anchor="middle" x="603.5" y="-83.5" font-family="Helvetica,sans-Serif" font-size="10.00">Utils::idx</text>
</a>
</g>
</g>
<!-- Node10&#45;&gt;Node13 -->
<g id="edge12" class="edge">
<title>Node10&#45;&gt;Node13</title>
<path fill="none" stroke="midnightblue" d="M477.69,-114.98C506.9,-108.2 540.37,-100.43 565.29,-94.64"/>
<polygon fill="midnightblue" stroke="midnightblue" points="566.12,-98.04 575.07,-92.37 564.53,-91.22 566.12,-98.04"/>
</g>
<!-- Node19 -->
<g id="node19" class="node">
<title>Node19</title>
<g id="a_node19"><a xlink:href="../../d9/d58/class_touchpoint.html#ab61727c9bb477bccca373f92a2b8bea4" target="_top" xlink:title="Return the touchpoint number label text actor.">
<polygon fill="white" stroke="black" points="349.5,-76.5 349.5,-95.5 474.5,-95.5 474.5,-76.5 349.5,-76.5"/>
<text text-anchor="middle" x="412" y="-83.5" font-family="Helvetica,sans-Serif" font-size="10.00">Touchpoint::getTextActor</text>
</a>
</g>
</g>
<!-- Node18&#45;&gt;Node19 -->
<g id="edge18" class="edge">
<title>Node18&#45;&gt;Node19</title>
<path fill="none" stroke="midnightblue" d="M277.69,-62.41C299.36,-66.25 324.58,-70.71 347.23,-74.72"/>
<polygon fill="midnightblue" stroke="midnightblue" points="346.63,-78.16 357.09,-76.46 347.85,-71.27 346.63,-78.16"/>
</g>
<!-- Node20 -->
<g id="node20" class="node">
<title>Node20</title>
<g id="a_node20"><a xlink:href="../../d6/db5/class_scene.html#ae4bdf05105a36057e86693a0f60afbd3" target="_top" xlink:title="Hide the touchpoint / connector text labels.">
<polygon fill="white" stroke="black" points="354,-38.5 354,-57.5 470,-57.5 470,-38.5 354,-38.5"/>
<text text-anchor="middle" x="412" y="-45.5" font-family="Helvetica,sans-Serif" font-size="10.00">Scene::hideTextActors</text>
</a>
</g>
</g>
<!-- Node18&#45;&gt;Node20 -->
<g id="edge19" class="edge">
<title>Node18&#45;&gt;Node20</title>
<path fill="none" stroke="midnightblue" d="M277.69,-51.57C298.23,-51.02 321.98,-50.39 343.68,-49.8"/>
<polygon fill="midnightblue" stroke="midnightblue" points="343.92,-53.3 353.82,-49.53 343.73,-46.3 343.92,-53.3"/>
</g>
<!-- Node22 -->
<g id="node22" class="node">
<title>Node22</title>
<g id="a_node22"><a xlink:href="../../d6/db5/class_scene.html#aa9d387019f7a7456bdd8af2b21723387" target="_top" xlink:title="Show the touchpoint / connector number text labels.">
<polygon fill="white" stroke="black" points="351.5,-0.5 351.5,-19.5 472.5,-19.5 472.5,-0.5 351.5,-0.5"/>
<text text-anchor="middle" x="412" y="-7.5" font-family="Helvetica,sans-Serif" font-size="10.00">Scene::showTextActors</text>
</a>
</g>
</g>
<!-- Node18&#45;&gt;Node22 -->
<g id="edge21" class="edge">
<title>Node18&#45;&gt;Node22</title>
<path fill="none" stroke="midnightblue" d="M265.89,-43.46C293.54,-37.08 330.1,-28.65 359.61,-21.85"/>
<polygon fill="midnightblue" stroke="midnightblue" points="360.77,-25.17 369.73,-19.52 359.19,-18.35 360.77,-25.17"/>
</g>
<!-- Node21 -->
<g id="node21" class="node">
<title>Node21</title>
<g id="a_node21"><a xlink:href="../../d6/db5/class_scene.html#a8a1b015f159dd9ba883ae601464f6c28" target="_top" xlink:title="Set if the touchpoint / connector number labels are visible.">
<polygon fill="white" stroke="black" points="529.5,-19.5 529.5,-38.5 677.5,-38.5 677.5,-19.5 529.5,-19.5"/>
<text text-anchor="middle" x="603.5" y="-26.5" font-family="Helvetica,sans-Serif" font-size="10.00">Scene::setTextActorsVisibility</text>
</a>
</g>
</g>
<!-- Node20&#45;&gt;Node21 -->
<g id="edge20" class="edge">
<title>Node20&#45;&gt;Node21</title>
<path fill="none" stroke="midnightblue" d="M470.11,-42.27C485.55,-40.73 502.57,-39.02 519.12,-37.36"/>
<polygon fill="midnightblue" stroke="midnightblue" points="519.75,-40.81 529.35,-36.33 519.05,-33.85 519.75,-40.81"/>
</g>
<!-- Node22&#45;&gt;Node21 -->
<g id="edge22" class="edge">
<title>Node22&#45;&gt;Node21</title>
<path fill="none" stroke="midnightblue" d="M472.7,-15.99C487.47,-17.47 503.57,-19.08 519.24,-20.65"/>
<polygon fill="midnightblue" stroke="midnightblue" points="519.16,-24.16 529.46,-21.68 519.86,-17.2 519.16,-24.16"/>
</g>
<!-- Node23&#45;&gt;Node8 -->
<g id="edge27" class="edge">
<title>Node23&#45;&gt;Node8</title>
<path fill="none" stroke="midnightblue" d="M284.1,-338.03C289.16,-340.81 293.89,-344.1 298,-348 329.25,-377.65 301.5,-409.72 334,-438 335.95,-439.7 338.04,-441.25 340.22,-442.67"/>
<polygon fill="midnightblue" stroke="midnightblue" points="338.61,-445.78 349.06,-447.5 341.96,-439.64 338.61,-445.78"/>
</g>
<!-- Node24 -->
<g id="node24" class="node">
<title>Node24</title>
<g id="a_node24"><a xlink:href="../../d6/db5/class_scene.html#aa52192763d5339a0e7803abe296220c9" target="_top" xlink:title="Return the cuberille visualization of the voxel grid data.">
<polygon fill="white" stroke="black" points="349.5,-409.5 349.5,-428.5 474.5,-428.5 474.5,-409.5 349.5,-409.5"/>
<text text-anchor="middle" x="412" y="-416.5" font-family="Helvetica,sans-Serif" font-size="10.00">Scene::getCuberilleActor</text>
</a>
</g>
</g>
<!-- Node23&#45;&gt;Node24 -->
<g id="edge24" class="edge">
<title>Node23&#45;&gt;Node24</title>
<path fill="none" stroke="midnightblue" d="M281.37,-338.15C287.27,-340.93 292.94,-344.18 298,-348 320.44,-364.93 310.86,-384.05 334,-400 336.92,-402.01 340.04,-403.82 343.28,-405.43"/>
<polygon fill="midnightblue" stroke="midnightblue" points="342.11,-408.73 352.68,-409.48 344.88,-402.31 342.11,-408.73"/>
</g>
<!-- Node25 -->
<g id="node25" class="node">
<title>Node25</title>
<g id="a_node25"><a xlink:href="../../d6/db5/class_scene.html#a7009d25646e9f3a07482091ed2d62e52" target="_top" xlink:title="Return the inner and outer voxels visualization of the voxel grid data.">
<polygon fill="white" stroke="black" points="334,-360 334,-390 490,-390 490,-360 334,-360"/>
<text text-anchor="start" x="342" y="-378" font-family="Helvetica,sans-Serif" font-size="10.00">Scene::getInnerAndOuterVoxels</text>
<text text-anchor="middle" x="412" y="-367" font-family="Helvetica,sans-Serif" font-size="10.00">Actor</text>
</a>
</g>
</g>
<!-- Node23&#45;&gt;Node25 -->
<g id="edge25" class="edge">
<title>Node23&#45;&gt;Node25</title>
<path fill="none" stroke="midnightblue" d="M278.44,-338.04C300,-344.05 324.98,-351.02 347.41,-357.27"/>
<polygon fill="midnightblue" stroke="midnightblue" points="346.61,-360.68 357.18,-359.99 348.49,-353.94 346.61,-360.68"/>
</g>
<!-- Node26 -->
<g id="node26" class="node">
<title>Node26</title>
<g id="a_node26"><a xlink:href="../../d6/db5/class_scene.html#a04c9e871c5edc15ca00d736a9cb6c0d0" target="_top" xlink:title="Return the interior voxels only visualization of the voxel grid data.">
<polygon fill="white" stroke="black" points="350.5,-311 350.5,-341 473.5,-341 473.5,-311 350.5,-311"/>
<text text-anchor="start" x="358.5" y="-329" font-family="Helvetica,sans-Serif" font-size="10.00">Scene::getInteriorVoxels</text>
<text text-anchor="middle" x="412" y="-318" font-family="Helvetica,sans-Serif" font-size="10.00">Actor</text>
</a>
</g>
</g>
<!-- Node23&#45;&gt;Node26 -->
<g id="edge26" class="edge">
<title>Node23&#45;&gt;Node26</title>
<path fill="none" stroke="midnightblue" d="M297.67,-324.18C311.72,-324.4 326.4,-324.64 340.36,-324.86"/>
<polygon fill="midnightblue" stroke="midnightblue" points="340.32,-328.36 350.38,-325.02 340.43,-321.36 340.32,-328.36"/>
</g>
<!-- Node27 -->
<g id="node27" class="node">
<title>Node27</title>
<g id="a_node27"><a xlink:href="../../db/dae/class_voxel_image_visualizer.html#a00b60f629dcc3335bff26934e88b9bcb" target="_top" xlink:title="Return the occupation map visualization (unoccupied = yellow, occupied = blue)">
<polygon fill="white" stroke="black" points="354.5,-262 354.5,-292 469.5,-292 469.5,-262 354.5,-262"/>
<text text-anchor="start" x="362.5" y="-280" font-family="Helvetica,sans-Serif" font-size="10.00">VoxelImageVisualizer</text>
<text text-anchor="middle" x="412" y="-269" font-family="Helvetica,sans-Serif" font-size="10.00">::getOccupationOutput</text>
</a>
</g>
</g>
<!-- Node23&#45;&gt;Node27 -->
<g id="edge28" class="edge">
<title>Node23&#45;&gt;Node27</title>
<path fill="none" stroke="midnightblue" d="M285.57,-307.94C304.38,-303.3 325.19,-298.16 344.36,-293.44"/>
<polygon fill="midnightblue" stroke="midnightblue" points="345.35,-296.8 354.22,-291 343.67,-290 345.35,-296.8"/>
</g>
<!-- Node30 -->
<g id="node30" class="node">
<title>Node30</title>
<g id="a_node30"><a xlink:href="../../db/dae/class_voxel_image_visualizer.html#a15634f5a62fd0d71806741d1db033243" target="_top" xlink:title="Set input data of the visualizer.">
<polygon fill="white" stroke="black" points="357,-213 357,-243 467,-243 467,-213 357,-213"/>
<text text-anchor="start" x="365" y="-231" font-family="Helvetica,sans-Serif" font-size="10.00">VoxelImageVisualizer</text>
<text text-anchor="middle" x="412" y="-220" font-family="Helvetica,sans-Serif" font-size="10.00">::setInputData</text>
</a>
</g>
</g>
<!-- Node23&#45;&gt;Node30 -->
<g id="edge31" class="edge">
<title>Node23&#45;&gt;Node30</title>
<path fill="none" stroke="midnightblue" d="M280.35,-307.84C286.56,-305.05 292.59,-301.79 298,-298 318.96,-283.29 312.93,-267.57 334,-253 338.23,-250.08 342.82,-247.48 347.58,-245.17"/>
<polygon fill="midnightblue" stroke="midnightblue" points="349.15,-248.31 356.9,-241.09 346.34,-241.9 349.15,-248.31"/>
</g>
<!-- Node31 -->
<g id="node31" class="node">
<title>Node31</title>
<g id="a_node31"><a xlink:href="../../db/dae/class_voxel_image_visualizer.html#a65eec474a368555a6ba16c1f54e956db" target="_top" xlink:title="Set output size of the visualization.">
<polygon fill="white" stroke="black" points="357,-164 357,-194 467,-194 467,-164 357,-164"/>
<text text-anchor="start" x="365" y="-182" font-family="Helvetica,sans-Serif" font-size="10.00">VoxelImageVisualizer</text>
<text text-anchor="middle" x="412" y="-171" font-family="Helvetica,sans-Serif" font-size="10.00">::setOutputSize</text>
</a>
</g>
</g>
<!-- Node23&#45;&gt;Node31 -->
<g id="edge32" class="edge">
<title>Node23&#45;&gt;Node31</title>
<path fill="none" stroke="midnightblue" d="M284.52,-307.83C289.43,-305.08 294.02,-301.83 298,-298 330.23,-266.97 301.56,-234.8 334,-204 338.01,-200.19 342.61,-196.96 347.53,-194.22"/>
<polygon fill="midnightblue" stroke="midnightblue" points="349.17,-197.32 356.64,-189.81 346.12,-191.01 349.17,-197.32"/>
</g>
<!-- Node28 -->
<g id="node28" class="node">
<title>Node28</title>
<g id="a_node28"><a xlink:href="../../db/dae/class_voxel_image_visualizer.html#a381e70e9dba0cad1fddf946aa7f4a408" target="_top" xlink:title="Compute scaling factor for visualization actor.">
<polygon fill="white" stroke="black" points="548.5,-284 548.5,-314 658.5,-314 658.5,-284 548.5,-284"/>
<text text-anchor="start" x="556.5" y="-302" font-family="Helvetica,sans-Serif" font-size="10.00">VoxelImageVisualizer</text>
<text text-anchor="middle" x="603.5" y="-291" font-family="Helvetica,sans-Serif" font-size="10.00">::getScaleValue</text>
</a>
</g>
</g>
<!-- Node27&#45;&gt;Node28 -->
<g id="edge29" class="edge">
<title>Node27&#45;&gt;Node28</title>
<path fill="none" stroke="midnightblue" d="M469.6,-283.57C491.26,-286.09 516.11,-288.97 538.42,-291.56"/>
<polygon fill="midnightblue" stroke="midnightblue" points="538.13,-295.05 548.47,-292.73 538.94,-288.1 538.13,-295.05"/>
</g>
<!-- Node29 -->
<g id="node29" class="node">
<title>Node29</title>
<g id="a_node29"><a xlink:href="../../db/dae/class_voxel_image_visualizer.html#a2cf2e268d83ea28ea097a557b4e66fcd" target="_top" xlink:title="Compute 1D linearized index from 3D&#45;coodinate index.">
<polygon fill="white" stroke="black" points="539,-245.5 539,-264.5 668,-264.5 668,-245.5 539,-245.5"/>
<text text-anchor="middle" x="603.5" y="-252.5" font-family="Helvetica,sans-Serif" font-size="10.00">VoxelImageVisualizer::idx</text>
</a>
</g>
</g>
<!-- Node27&#45;&gt;Node29 -->
<g id="edge30" class="edge">
<title>Node27&#45;&gt;Node29</title>
<path fill="none" stroke="midnightblue" d="M469.6,-270.43C488.17,-268.27 509.1,-265.84 528.75,-263.56"/>
<polygon fill="midnightblue" stroke="midnightblue" points="529.36,-267.01 538.89,-262.38 528.56,-260.06 529.36,-267.01"/>
</g>
</g>
</svg>
