<?xml version="1.0" encoding="UTF-8" standalone="no"?>
<!DOCTYPE svg PUBLIC "-//W3C//DTD SVG 1.1//EN"
 "http://www.w3.org/Graphics/SVG/1.1/DTD/svg11.dtd">
<!-- Generated by graphviz version 2.44.1 (0)
 -->
<!-- Title: PickingInteractorStyle::OnRightButtonDown Pages: 1 -->
<svg width="689pt" height="632pt"
 viewBox="0.00 0.00 689.00 631.50" xmlns="http://www.w3.org/2000/svg" xmlns:xlink="http://www.w3.org/1999/xlink">
<g id="graph0" class="graph" transform="scale(1 1) rotate(0) translate(4 627.5)">
<title>PickingInteractorStyle::OnRightButtonDown</title>
<polygon fill="white" stroke="transparent" points="-4,4 -4,-627.5 685,-627.5 685,4 -4,4"/>
<!-- Node1 -->
<g id="node1" class="node">
<title>Node1</title>
<g id="a_node1"><a xlink:title="Overloaded method, invoked when right mouse button is pressed.">
<polygon fill="#bfbfbf" stroke="black" points="0,-330 0,-360 113,-360 113,-330 0,-330"/>
<text text-anchor="start" x="8" y="-348" font-family="Helvetica,sans-Serif" font-size="10.00">PickingInteractorStyle</text>
<text text-anchor="middle" x="56.5" y="-337" font-family="Helvetica,sans-Serif" font-size="10.00">::OnRightButtonDown</text>
</a>
</g>
</g>
<!-- Node2 -->
<g id="node2" class="node">
<title>Node2</title>
<g id="a_node2"><a xlink:href="../../d9/d58/class_touchpoint.html#ad2583d5312abcd383e7b12c841668a19" target="_top" xlink:title="Return outside wiring entry point (world coordinates)">
<polygon fill="white" stroke="black" points="157,-593 157,-623 290,-623 290,-593 157,-593"/>
<text text-anchor="start" x="165" y="-611" font-family="Helvetica,sans-Serif" font-size="10.00">Touchpoint::getConnection</text>
<text text-anchor="middle" x="223.5" y="-600" font-family="Helvetica,sans-Serif" font-size="10.00">Point</text>
</a>
</g>
</g>
<!-- Node1&#45;&gt;Node2 -->
<g id="edge1" class="edge">
<title>Node1&#45;&gt;Node2</title>
<path fill="none" stroke="midnightblue" d="M58.85,-360.04C63.4,-401.77 81.88,-520.15 149,-584 150.12,-585.07 151.3,-586.09 152.51,-587.07"/>
<polygon fill="midnightblue" stroke="midnightblue" points="150.82,-590.15 161.06,-592.87 154.76,-584.36 150.82,-590.15"/>
</g>
<!-- Node3 -->
<g id="node3" class="node">
<title>Node3</title>
<g id="a_node3"><a xlink:href="../../d9/d58/class_touchpoint.html#a30cdb1f0de39cf4ffe2d23c3c750d331" target="_top" xlink:title="Return outside wiring entry point (grid coordinates)">
<polygon fill="white" stroke="black" points="157,-544 157,-574 290,-574 290,-544 157,-544"/>
<text text-anchor="start" x="165" y="-562" font-family="Helvetica,sans-Serif" font-size="10.00">Touchpoint::getConnection</text>
<text text-anchor="middle" x="223.5" y="-551" font-family="Helvetica,sans-Serif" font-size="10.00">PointIndex</text>
</a>
</g>
</g>
<!-- Node1&#45;&gt;Node3 -->
<g id="edge2" class="edge">
<title>Node1&#45;&gt;Node3</title>
<path fill="none" stroke="midnightblue" d="M60.63,-360.17C68.75,-395.75 93.83,-485.23 149,-534 150.76,-535.56 152.63,-537.02 154.57,-538.39"/>
<polygon fill="midnightblue" stroke="midnightblue" points="153.18,-541.64 163.54,-543.85 156.82,-535.66 153.18,-541.64"/>
</g>
<!-- Node4 -->
<g id="node4" class="node">
<title>Node4</title>
<g id="a_node4"><a xlink:href="../../d9/d58/class_touchpoint.html#a4218ce91b053777b2fbc84b7fc8e67e5" target="_top" xlink:title="Return the unique touchpoint id.">
<polygon fill="white" stroke="black" points="176.5,-505.5 176.5,-524.5 270.5,-524.5 270.5,-505.5 176.5,-505.5"/>
<text text-anchor="middle" x="223.5" y="-512.5" font-family="Helvetica,sans-Serif" font-size="10.00">Touchpoint::getID</text>
</a>
</g>
</g>
<!-- Node1&#45;&gt;Node4 -->
<g id="edge3" class="edge">
<title>Node1&#45;&gt;Node4</title>
<path fill="none" stroke="midnightblue" d="M62.28,-360.09C72.77,-390.68 100.79,-460.15 149,-496 154.21,-499.87 160.13,-502.96 166.29,-505.41"/>
<polygon fill="midnightblue" stroke="midnightblue" points="165.53,-508.85 176.12,-508.78 167.8,-502.23 165.53,-508.85"/>
</g>
<!-- Node5 -->
<g id="node5" class="node">
<title>Node5</title>
<g id="a_node5"><a xlink:href="../../d9/d58/class_touchpoint.html#a91d71ea023b3d877f7827747a547cf02" target="_top" xlink:title="Return the interior wiring connection position (grid coordinates)">
<polygon fill="white" stroke="black" points="149,-456 149,-486 298,-486 298,-456 149,-456"/>
<text text-anchor="start" x="157" y="-474" font-family="Helvetica,sans-Serif" font-size="10.00">Touchpoint::getInteriorPosition</text>
<text text-anchor="middle" x="223.5" y="-463" font-family="Helvetica,sans-Serif" font-size="10.00">Index</text>
</a>
</g>
</g>
<!-- Node1&#45;&gt;Node5 -->
<g id="edge4" class="edge">
<title>Node1&#45;&gt;Node5</title>
<path fill="none" stroke="midnightblue" d="M67.49,-360.24C82.63,-382.18 113.41,-422.61 149,-446 151.96,-447.95 155.09,-449.76 158.32,-451.44"/>
<polygon fill="midnightblue" stroke="midnightblue" points="157.1,-454.73 167.64,-455.84 160.1,-448.4 157.1,-454.73"/>
</g>
<!-- Node6 -->
<g id="node6" class="node">
<title>Node6</title>
<g id="a_node6"><a xlink:href="../../d6/db5/class_scene.html#a7e5ee53ea01ef113afaaf4b7c10accf3" target="_top" xlink:title="Return the voxel grid image data.">
<polygon fill="white" stroke="black" points="169,-417.5 169,-436.5 278,-436.5 278,-417.5 169,-417.5"/>
<text text-anchor="middle" x="223.5" y="-424.5" font-family="Helvetica,sans-Serif" font-size="10.00">Scene::getVoxelData</text>
</a>
</g>
</g>
<!-- Node1&#45;&gt;Node6 -->
<g id="edge5" class="edge">
<title>Node1&#45;&gt;Node6</title>
<path fill="none" stroke="midnightblue" d="M75.27,-360.07C92.92,-374.32 121.28,-395.35 149,-408 154.3,-410.42 159.96,-412.57 165.7,-414.47"/>
<polygon fill="midnightblue" stroke="midnightblue" points="164.8,-417.85 175.38,-417.44 166.85,-411.16 164.8,-417.85"/>
</g>
<!-- Node7 -->
<g id="node7" class="node">
<title>Node7</title>
<g id="a_node7"><a xlink:href="../../d6/db5/class_scene.html#a7caf30a70e69430d5e4ac93d6828a649" target="_top" xlink:title="Return the bounds of the voxel grid.">
<polygon fill="white" stroke="black" points="155,-379.5 155,-398.5 292,-398.5 292,-379.5 155,-379.5"/>
<text text-anchor="middle" x="223.5" y="-386.5" font-family="Helvetica,sans-Serif" font-size="10.00">Scene::getVoxelgridBounds</text>
</a>
</g>
</g>
<!-- Node1&#45;&gt;Node7 -->
<g id="edge6" class="edge">
<title>Node1&#45;&gt;Node7</title>
<path fill="none" stroke="midnightblue" d="M112.14,-360.06C124.27,-363.37 137.06,-366.83 149,-370 157.51,-372.26 166.59,-374.64 175.36,-376.92"/>
<polygon fill="midnightblue" stroke="midnightblue" points="174.52,-380.32 185.08,-379.43 176.28,-373.54 174.52,-380.32"/>
</g>
<!-- Node9 -->
<g id="node9" class="node">
<title>Node9</title>
<g id="a_node9"><a xlink:href="../../d9/d58/class_touchpoint.html#afbb2470ea0d67a12a29eb3d6bd958f01" target="_top" xlink:title="Mark voxel grid cells as occupied by the touchpoint geometry.">
<polygon fill="white" stroke="black" points="153,-291.5 153,-310.5 294,-310.5 294,-291.5 153,-291.5"/>
<text text-anchor="middle" x="223.5" y="-298.5" font-family="Helvetica,sans-Serif" font-size="10.00">Touchpoint::markOccupation</text>
</a>
</g>
</g>
<!-- Node1&#45;&gt;Node9 -->
<g id="edge8" class="edge">
<title>Node1&#45;&gt;Node9</title>
<path fill="none" stroke="midnightblue" d="M113.36,-330.1C133.9,-324.63 156.91,-318.49 176.49,-313.27"/>
<polygon fill="midnightblue" stroke="midnightblue" points="177.62,-316.59 186.38,-310.63 175.82,-309.83 177.62,-316.59"/>
</g>
<!-- Node14 -->
<g id="node14" class="node">
<title>Node14</title>
<g id="a_node14"><a xlink:href="../../d9/d58/class_touchpoint.html#a7249595ec0bd71c7348062e06fc32065" target="_top" xlink:title="Mark a single voxel grid cell as unoccupied.">
<polygon fill="white" stroke="black" points="152,-253.5 152,-272.5 295,-272.5 295,-253.5 152,-253.5"/>
<text text-anchor="middle" x="223.5" y="-260.5" font-family="Helvetica,sans-Serif" font-size="10.00">Touchpoint::markUnoccupied</text>
</a>
</g>
</g>
<!-- Node1&#45;&gt;Node14 -->
<g id="edge13" class="edge">
<title>Node1&#45;&gt;Node14</title>
<path fill="none" stroke="midnightblue" d="M75.27,-329.93C92.92,-315.68 121.28,-294.65 149,-282 154.3,-279.58 159.96,-277.43 165.7,-275.53"/>
<polygon fill="midnightblue" stroke="midnightblue" points="166.85,-278.84 175.38,-272.56 164.8,-272.15 166.85,-278.84"/>
</g>
<!-- Node15 -->
<g id="node15" class="node">
<title>Node15</title>
<g id="a_node15"><a xlink:href="../../d9/d58/class_touchpoint.html#af3e0979fc1385955c5aae51968555dd3" target="_top" xlink:title="Set the actor of the connection point.">
<polygon fill="white" stroke="black" points="157,-204 157,-234 290,-234 290,-204 157,-204"/>
<text text-anchor="start" x="165" y="-222" font-family="Helvetica,sans-Serif" font-size="10.00">Touchpoint::setConnection</text>
<text text-anchor="middle" x="223.5" y="-211" font-family="Helvetica,sans-Serif" font-size="10.00">PointActor</text>
</a>
</g>
</g>
<!-- Node1&#45;&gt;Node15 -->
<g id="edge14" class="edge">
<title>Node1&#45;&gt;Node15</title>
<path fill="none" stroke="midnightblue" d="M67.49,-329.76C82.63,-307.82 113.41,-267.39 149,-244 151.96,-242.05 155.09,-240.24 158.32,-238.56"/>
<polygon fill="midnightblue" stroke="midnightblue" points="160.1,-241.6 167.64,-234.16 157.1,-235.27 160.1,-241.6"/>
</g>
<!-- Node16 -->
<g id="node16" class="node">
<title>Node16</title>
<g id="a_node16"><a xlink:href="../../d9/d58/class_touchpoint.html#a5a4ea272e98b33d3cacc0c7ffce3a96f" target="_top" xlink:title="Set the geometry (vtkPolyData) of the connection point polydata.">
<polygon fill="white" stroke="black" points="157,-155 157,-185 290,-185 290,-155 157,-155"/>
<text text-anchor="start" x="165" y="-173" font-family="Helvetica,sans-Serif" font-size="10.00">Touchpoint::setConnection</text>
<text text-anchor="middle" x="223.5" y="-162" font-family="Helvetica,sans-Serif" font-size="10.00">PointPolyData</text>
</a>
</g>
</g>
<!-- Node1&#45;&gt;Node16 -->
<g id="edge15" class="edge">
<title>Node1&#45;&gt;Node16</title>
<path fill="none" stroke="midnightblue" d="M62.7,-329.84C73.79,-299.76 102.58,-232.19 149,-195 151.27,-193.18 153.68,-191.49 156.18,-189.93"/>
<polygon fill="midnightblue" stroke="midnightblue" points="157.97,-192.94 165.03,-185.04 154.59,-186.81 157.97,-192.94"/>
</g>
<!-- Node17 -->
<g id="node17" class="node">
<title>Node17</title>
<g id="a_node17"><a xlink:href="../../db/dbb/class_picking_interactor_style.html#afdf64f66ae105b3123ca523b6f3d468d" target="_top" xlink:title="Set interactor mode to TRACKBALL_MODE.">
<polygon fill="white" stroke="black" points="167,-106 167,-136 280,-136 280,-106 167,-106"/>
<text text-anchor="start" x="175" y="-124" font-family="Helvetica,sans-Serif" font-size="10.00">PickingInteractorStyle</text>
<text text-anchor="middle" x="223.5" y="-113" font-family="Helvetica,sans-Serif" font-size="10.00">::trackballMode</text>
</a>
</g>
</g>
<!-- Node1&#45;&gt;Node17 -->
<g id="edge16" class="edge">
<title>Node1&#45;&gt;Node17</title>
<path fill="none" stroke="midnightblue" d="M60.22,-329.86C67.61,-293 91.54,-197.83 149,-146 151.77,-143.51 154.79,-141.26 157.98,-139.24"/>
<polygon fill="midnightblue" stroke="midnightblue" points="159.72,-142.28 166.78,-134.38 156.33,-136.15 159.72,-142.28"/>
</g>
<!-- Node18 -->
<g id="node18" class="node">
<title>Node18</title>
<g id="a_node18"><a xlink:href="../../d6/db5/class_scene.html#aaff4c55f5c640ec8a12b62c5b6c11865" target="_top" xlink:title="Update the touchpoint / connector number text labels.">
<polygon fill="white" stroke="black" points="169.5,-57.5 169.5,-76.5 277.5,-76.5 277.5,-57.5 169.5,-57.5"/>
<text text-anchor="middle" x="223.5" y="-64.5" font-family="Helvetica,sans-Serif" font-size="10.00">Scene::updateLabels</text>
</a>
</g>
</g>
<!-- Node1&#45;&gt;Node18 -->
<g id="edge17" class="edge">
<title>Node1&#45;&gt;Node18</title>
<path fill="none" stroke="midnightblue" d="M58.88,-329.97C63.54,-287.62 82.34,-165.97 149,-97 155.75,-90.01 164.36,-84.6 173.29,-80.42"/>
<polygon fill="midnightblue" stroke="midnightblue" points="174.78,-83.59 182.65,-76.5 172.07,-77.14 174.78,-83.59"/>
</g>
<!-- Node23 -->
<g id="node23" class="node">
<title>Node23</title>
<g id="a_node23"><a xlink:href="../../d6/db5/class_scene.html#a415555bc0037489b1a9421747c318746" target="_top" xlink:title="Update the occupation map visualization after changes to the underlying voxel data.">
<polygon fill="white" stroke="black" points="149.5,-330 149.5,-360 297.5,-360 297.5,-330 149.5,-330"/>
<text text-anchor="start" x="157.5" y="-348" font-family="Helvetica,sans-Serif" font-size="10.00">Scene::updateOccupationMap</text>
<text text-anchor="middle" x="223.5" y="-337" font-family="Helvetica,sans-Serif" font-size="10.00">Actor</text>
</a>
</g>
</g>
<!-- Node1&#45;&gt;Node23 -->
<g id="edge23" class="edge">
<title>Node1&#45;&gt;Node23</title>
<path fill="none" stroke="midnightblue" d="M113.36,-345C121.69,-345 130.43,-345 139.18,-345"/>
<polygon fill="midnightblue" stroke="midnightblue" points="139.44,-348.5 149.44,-345 139.44,-341.5 139.44,-348.5"/>
</g>
<!-- Node8 -->
<g id="node8" class="node">
<title>Node8</title>
<g id="a_node8"><a xlink:href="../../d6/db5/class_scene.html#a0799bb0687ffe3a97e0523a4e700ef2d" target="_top" xlink:title="Return the occupation map visualization.">
<polygon fill="white" stroke="black" points="334.5,-525.5 334.5,-544.5 489.5,-544.5 489.5,-525.5 334.5,-525.5"/>
<text text-anchor="middle" x="412" y="-532.5" font-family="Helvetica,sans-Serif" font-size="10.00">Scene::getOccupationMapActor</text>
</a>
</g>
</g>
<!-- Node7&#45;&gt;Node8 -->
<g id="edge7" class="edge">
<title>Node7&#45;&gt;Node8</title>
<path fill="none" stroke="midnightblue" d="M283.87,-398.54C289.03,-401.03 293.86,-404.13 298,-408 334.99,-442.53 296.82,-481.68 334,-516 335.69,-517.56 337.48,-518.99 339.35,-520.31"/>
<polygon fill="midnightblue" stroke="midnightblue" points="337.67,-523.38 348.07,-525.41 341.21,-517.34 337.67,-523.38"/>
</g>
<!-- Node10 -->
<g id="node10" class="node">
<title>Node10</title>
<g id="a_node10"><a xlink:href="../../d9/d58/class_touchpoint.html#a1b82f162b238396efeae6b9369430a87" target="_top" xlink:title="Mark voxel grid cells occupied / unoccupied by the touchpoint geometry.">
<polygon fill="white" stroke="black" points="342.5,-115 342.5,-145 481.5,-145 481.5,-115 342.5,-115"/>
<text text-anchor="start" x="350.5" y="-133" font-family="Helvetica,sans-Serif" font-size="10.00">Touchpoint::markTouchpoint</text>
<text text-anchor="middle" x="412" y="-122" font-family="Helvetica,sans-Serif" font-size="10.00">Cells</text>
</a>
</g>
</g>
<!-- Node9&#45;&gt;Node10 -->
<g id="edge9" class="edge">
<title>Node9&#45;&gt;Node10</title>
<path fill="none" stroke="midnightblue" d="M284.41,-291.48C289.4,-288.98 294.04,-285.87 298,-282 339.96,-241 293.3,-197.26 334,-155 335.39,-153.56 336.86,-152.2 338.41,-150.92"/>
<polygon fill="midnightblue" stroke="midnightblue" points="340.47,-153.75 346.65,-145.14 336.45,-148.01 340.47,-153.75"/>
</g>
<!-- Node11 -->
<g id="node11" class="node">
<title>Node11</title>
<g id="a_node11"><a xlink:href="../../d1/d7c/namespace_utils.html#ac9b063fc04e0a4e5501c8ed0af96ac47" target="_top" xlink:title="Clamp integer value between min and max.">
<polygon fill="white" stroke="black" points="563.5,-164.5 563.5,-183.5 643.5,-183.5 643.5,-164.5 563.5,-164.5"/>
<text text-anchor="middle" x="603.5" y="-171.5" font-family="Helvetica,sans-Serif" font-size="10.00">Utils::clampInt</text>
</a>
</g>
</g>
<!-- Node10&#45;&gt;Node11 -->
<g id="edge10" class="edge">
<title>Node10&#45;&gt;Node11</title>
<path fill="none" stroke="midnightblue" d="M477.69,-145.02C502.53,-150.79 530.45,-157.27 553.57,-162.64"/>
<polygon fill="midnightblue" stroke="midnightblue" points="552.97,-166.09 563.5,-164.94 554.55,-159.27 552.97,-166.09"/>
</g>
<!-- Node12 -->
<g id="node12" class="node">
<title>Node12</title>
<g id="a_node12"><a xlink:href="../../d9/d58/class_touchpoint.html#a465057d2b000f7fc374d594fb8b80ce6" target="_top" xlink:title="Return the bounds of the touchpoint in world coordinates.">
<polygon fill="white" stroke="black" points="526,-115 526,-145 681,-145 681,-115 526,-115"/>
<text text-anchor="start" x="534" y="-133" font-family="Helvetica,sans-Serif" font-size="10.00">Touchpoint::getWorldCoordinate</text>
<text text-anchor="middle" x="603.5" y="-122" font-family="Helvetica,sans-Serif" font-size="10.00">Bounds</text>
</a>
</g>
</g>
<!-- Node10&#45;&gt;Node12 -->
<g id="edge11" class="edge">
<title>Node10&#45;&gt;Node12</title>
<path fill="none" stroke="midnightblue" d="M481.68,-130C492.63,-130 504.08,-130 515.39,-130"/>
<polygon fill="midnightblue" stroke="midnightblue" points="515.71,-133.5 525.71,-130 515.71,-126.5 515.71,-133.5"/>
</g>
<!-- Node13 -->
<g id="node13" class="node">
<title>Node13</title>
<g id="a_node13"><a xlink:href="../../d1/d7c/namespace_utils.html#a606fb1eb5072ca20f56293fa71bd8578" target="_top" xlink:title="Compute 1D linearized index from 3D&#45;coodinate index.">
<polygon fill="white" stroke="black" points="575.5,-76.5 575.5,-95.5 631.5,-95.5 631.5,-76.5 575.5,-76.5"/>
<text text-anchor="middle" x="603.5" y="-83.5" font-family="Helvetica,sans-Serif" font-size="10.00">Utils::idx</text>
</a>
</g>
</g>
<!-- Node10&#45;&gt;Node13 -->
<g id="edge12" class="edge">
<title>Node10&#45;&gt;Node13</title>
<path fill="none" stroke="midnightblue" d="M477.69,-114.98C506.9,-108.2 540.37,-100.43 565.29,-94.64"/>
<polygon fill="midnightblue" stroke="midnightblue" points="566.12,-98.04 575.07,-92.37 564.53,-91.22 566.12,-98.04"/>
</g>
<!-- Node19 -->
<g id="node19" class="node">
<title>Node19</title>
<g id="a_node19"><a xlink:href="../../d9/d58/class_touchpoint.html#ab61727c9bb477bccca373f92a2b8bea4" target="_top" xlink:title="Return the touchpoint number label text actor.">
<polygon fill="white" stroke="black" points="349.5,-76.5 349.5,-95.5 474.5,-95.5 474.5,-76.5 349.5,-76.5"/>
<text text-anchor="middle" x="412" y="-83.5" font-family="Helvetica,sans-Serif" font-size="10.00">Touchpoint::getTextActor</text>
</a>
</g>
</g>
<!-- Node18&#45;&gt;Node19 -->
<g id="edge18" class="edge">
<title>Node18&#45;&gt;Node19</title>
<path fill="none" stroke="midnightblue" d="M277.69,-72.42C296.76,-74.36 318.58,-76.58 338.98,-78.66"/>
<polygon fill="midnightblue" stroke="midnightblue" points="338.87,-82.17 349.17,-79.7 339.58,-75.21 338.87,-82.17"/>
</g>
<!-- Node20 -->
<g id="node20" class="node">
<title>Node20</title>
<g id="a_node20"><a xlink:href="../../d6/db5/class_scene.html#ae4bdf05105a36057e86693a0f60afbd3" target="_top" xlink:title="Hide the touchpoint / connector text labels.">
<polygon fill="white" stroke="black" points="354,-38.5 354,-57.5 470,-57.5 470,-38.5 354,-38.5"/>
<text text-anchor="middle" x="412" y="-45.5" font-family="Helvetica,sans-Serif" font-size="10.00">Scene::hideTextActors</text>
</a>
</g>
</g>
<!-- Node18&#45;&gt;Node20 -->
<g id="edge19" class="edge">
<title>Node18&#45;&gt;Node20</title>
<path fill="none" stroke="midnightblue" d="M277.69,-61.58C298.23,-59.49 321.98,-57.07 343.68,-54.86"/>
<polygon fill="midnightblue" stroke="midnightblue" points="344.23,-58.32 353.82,-53.83 343.52,-51.36 344.23,-58.32"/>
</g>
<!-- Node22 -->
<g id="node22" class="node">
<title>Node22</title>
<g id="a_node22"><a xlink:href="../../d6/db5/class_scene.html#aa9d387019f7a7456bdd8af2b21723387" target="_top" xlink:title="Show the touchpoint / connector number text labels.">
<polygon fill="white" stroke="black" points="351.5,-0.5 351.5,-19.5 472.5,-19.5 472.5,-0.5 351.5,-0.5"/>
<text text-anchor="middle" x="412" y="-7.5" font-family="Helvetica,sans-Serif" font-size="10.00">Scene::showTextActors</text>
</a>
</g>
</g>
<!-- Node18&#45;&gt;Node22 -->
<g id="edge21" class="edge">
<title>Node18&#45;&gt;Node22</title>
<path fill="none" stroke="midnightblue" d="M249.95,-57.42C272,-49.3 304.87,-37.63 334,-29 342.16,-26.58 350.87,-24.23 359.39,-22.04"/>
<polygon fill="midnightblue" stroke="midnightblue" points="360.41,-25.39 369.25,-19.56 358.7,-18.6 360.41,-25.39"/>
</g>
<!-- Node21 -->
<g id="node21" class="node">
<title>Node21</title>
<g id="a_node21"><a xlink:href="../../d6/db5/class_scene.html#a8a1b015f159dd9ba883ae601464f6c28" target="_top" xlink:title="Set if the touchpoint / connector number labels are visible.">
<polygon fill="white" stroke="black" points="529.5,-19.5 529.5,-38.5 677.5,-38.5 677.5,-19.5 529.5,-19.5"/>
<text text-anchor="middle" x="603.5" y="-26.5" font-family="Helvetica,sans-Serif" font-size="10.00">Scene::setTextActorsVisibility</text>
</a>
</g>
</g>
<!-- Node20&#45;&gt;Node21 -->
<g id="edge20" class="edge">
<title>Node20&#45;&gt;Node21</title>
<path fill="none" stroke="midnightblue" d="M470.11,-42.27C485.55,-40.73 502.57,-39.02 519.12,-37.36"/>
<polygon fill="midnightblue" stroke="midnightblue" points="519.75,-40.81 529.35,-36.33 519.05,-33.85 519.75,-40.81"/>
</g>
<!-- Node22&#45;&gt;Node21 -->
<g id="edge22" class="edge">
<title>Node22&#45;&gt;Node21</title>
<path fill="none" stroke="midnightblue" d="M472.7,-15.99C487.47,-17.47 503.57,-19.08 519.24,-20.65"/>
<polygon fill="midnightblue" stroke="midnightblue" points="519.16,-24.16 529.46,-21.68 519.86,-17.2 519.16,-24.16"/>
</g>
<!-- Node23&#45;&gt;Node8 -->
<g id="edge27" class="edge">
<title>Node23&#45;&gt;Node8</title>
<path fill="none" stroke="midnightblue" d="M285.74,-360.09C290.27,-362.85 294.45,-366.13 298,-370 343.18,-419.25 286.75,-468.74 334,-516 335.42,-517.42 336.94,-518.75 338.52,-519.98"/>
<polygon fill="midnightblue" stroke="midnightblue" points="336.69,-522.96 347,-525.37 340.44,-517.05 336.69,-522.96"/>
</g>
<!-- Node24 -->
<g id="node24" class="node">
<title>Node24</title>
<g id="a_node24"><a xlink:href="../../d6/db5/class_scene.html#aa52192763d5339a0e7803abe296220c9" target="_top" xlink:title="Return the cuberille visualization of the voxel grid data.">
<polygon fill="white" stroke="black" points="349.5,-487.5 349.5,-506.5 474.5,-506.5 474.5,-487.5 349.5,-487.5"/>
<text text-anchor="middle" x="412" y="-494.5" font-family="Helvetica,sans-Serif" font-size="10.00">Scene::getCuberilleActor</text>
</a>
</g>
</g>
<!-- Node23&#45;&gt;Node24 -->
<g id="edge24" class="edge">
<title>Node23&#45;&gt;Node24</title>
<path fill="none" stroke="midnightblue" d="M285.06,-360.19C289.79,-362.94 294.2,-366.18 298,-370 333.67,-405.89 296.82,-443.68 334,-478 335.95,-479.8 338.04,-481.43 340.24,-482.92"/>
<polygon fill="midnightblue" stroke="midnightblue" points="338.77,-486.11 349.2,-487.95 342.19,-480 338.77,-486.11"/>
</g>
<!-- Node25 -->
<g id="node25" class="node">
<title>Node25</title>
<g id="a_node25"><a xlink:href="../../d6/db5/class_scene.html#a7009d25646e9f3a07482091ed2d62e52" target="_top" xlink:title="Return the inner and outer voxels visualization of the voxel grid data.">
<polygon fill="white" stroke="black" points="334,-438 334,-468 490,-468 490,-438 334,-438"/>
<text text-anchor="start" x="342" y="-456" font-family="Helvetica,sans-Serif" font-size="10.00">Scene::getInnerAndOuterVoxels</text>
<text text-anchor="middle" x="412" y="-445" font-family="Helvetica,sans-Serif" font-size="10.00">Actor</text>
</a>
</g>
</g>
<!-- Node23&#45;&gt;Node25 -->
<g id="edge25" class="edge">
<title>Node23&#45;&gt;Node25</title>
<path fill="none" stroke="midnightblue" d="M281.96,-360.04C287.69,-362.83 293.16,-366.12 298,-370 321.97,-389.21 309.78,-410.1 334,-429 335.79,-430.4 337.67,-431.72 339.61,-432.96"/>
<polygon fill="midnightblue" stroke="midnightblue" points="338.05,-436.1 348.48,-437.93 341.47,-429.99 338.05,-436.1"/>
</g>
<!-- Node26 -->
<g id="node26" class="node">
<title>Node26</title>
<g id="a_node26"><a xlink:href="../../d6/db5/class_scene.html#a04c9e871c5edc15ca00d736a9cb6c0d0" target="_top" xlink:title="Return the interior voxels only visualization of the voxel grid data.">
<polygon fill="white" stroke="black" points="350.5,-389 350.5,-419 473.5,-419 473.5,-389 350.5,-389"/>
<text text-anchor="start" x="358.5" y="-407" font-family="Helvetica,sans-Serif" font-size="10.00">Scene::getInteriorVoxels</text>
<text text-anchor="middle" x="412" y="-396" font-family="Helvetica,sans-Serif" font-size="10.00">Actor</text>
</a>
</g>
</g>
<!-- Node23&#45;&gt;Node26 -->
<g id="edge26" class="edge">
<title>Node23&#45;&gt;Node26</title>
<path fill="none" stroke="midnightblue" d="M271.37,-360.06C290.74,-366.27 313.45,-373.51 334,-380 340.05,-381.91 346.36,-383.89 352.66,-385.87"/>
<polygon fill="midnightblue" stroke="midnightblue" points="351.93,-389.3 362.51,-388.95 354.01,-382.62 351.93,-389.3"/>
</g>
<!-- Node27 -->
<g id="node27" class="node">
<title>Node27</title>
<g id="a_node27"><a xlink:href="../../db/dae/class_voxel_image_visualizer.html#a00b60f629dcc3335bff26934e88b9bcb" target="_top" xlink:title="Return the occupation map visualization (unoccupied = yellow, occupied = blue)">
<polygon fill="white" stroke="black" points="354.5,-340 354.5,-370 469.5,-370 469.5,-340 354.5,-340"/>
<text text-anchor="start" x="362.5" y="-358" font-family="Helvetica,sans-Serif" font-size="10.00">VoxelImageVisualizer</text>
<text text-anchor="middle" x="412" y="-347" font-family="Helvetica,sans-Serif" font-size="10.00">::getOccupationOutput</text>
</a>
</g>
</g>
<!-- Node23&#45;&gt;Node27 -->
<g id="edge28" class="edge">
<title>Node23&#45;&gt;Node27</title>
<path fill="none" stroke="midnightblue" d="M297.67,-348.92C313.01,-349.75 329.11,-350.61 344.21,-351.42"/>
<polygon fill="midnightblue" stroke="midnightblue" points="344.3,-354.93 354.47,-351.97 344.67,-347.94 344.3,-354.93"/>
</g>
<!-- Node30 -->
<g id="node30" class="node">
<title>Node30</title>
<g id="a_node30"><a xlink:href="../../d6/db5/class_scene.html#acc5e8dbc84b359afaa7d4ab9b9ef265a" target="_top" xlink:title="Return the working plane actor of the scene.">
<polygon fill="white" stroke="black" points="345,-301.5 345,-320.5 479,-320.5 479,-301.5 345,-301.5"/>
<text text-anchor="middle" x="412" y="-308.5" font-family="Helvetica,sans-Serif" font-size="10.00">Scene::getWorkPlaneActor</text>
</a>
</g>
</g>
<!-- Node23&#45;&gt;Node30 -->
<g id="edge31" class="edge">
<title>Node23&#45;&gt;Node30</title>
<path fill="none" stroke="midnightblue" d="M297.67,-331.66C314.58,-328.58 332.4,-325.33 348.78,-322.34"/>
<polygon fill="midnightblue" stroke="midnightblue" points="349.57,-325.76 358.78,-320.52 348.31,-318.87 349.57,-325.76"/>
</g>
<!-- Node31 -->
<g id="node31" class="node">
<title>Node31</title>
<g id="a_node31"><a xlink:href="../../db/dae/class_voxel_image_visualizer.html#a15634f5a62fd0d71806741d1db033243" target="_top" xlink:title="Set input data of the visualizer.">
<polygon fill="white" stroke="black" points="357,-252 357,-282 467,-282 467,-252 357,-252"/>
<text text-anchor="start" x="365" y="-270" font-family="Helvetica,sans-Serif" font-size="10.00">VoxelImageVisualizer</text>
<text text-anchor="middle" x="412" y="-259" font-family="Helvetica,sans-Serif" font-size="10.00">::setInputData</text>
</a>
</g>
</g>
<!-- Node23&#45;&gt;Node31 -->
<g id="edge32" class="edge">
<title>Node23&#45;&gt;Node31</title>
<path fill="none" stroke="midnightblue" d="M276.04,-329.93C283.58,-327.02 291.12,-323.71 298,-320 315.84,-310.38 316.09,-301.49 334,-292 338.28,-289.73 342.8,-287.62 347.41,-285.67"/>
<polygon fill="midnightblue" stroke="midnightblue" points="348.98,-288.81 356.99,-281.88 346.41,-282.31 348.98,-288.81"/>
</g>
<!-- Node32 -->
<g id="node32" class="node">
<title>Node32</title>
<g id="a_node32"><a xlink:href="../../d6/db5/class_scene.html#a36de0362da7ee73ded780390f80caaaa" target="_top" xlink:title="Set the look at vector of the camera.">
<polygon fill="white" stroke="black" points="364.5,-213.5 364.5,-232.5 459.5,-232.5 459.5,-213.5 364.5,-213.5"/>
<text text-anchor="middle" x="412" y="-220.5" font-family="Helvetica,sans-Serif" font-size="10.00">Scene::setLookAt</text>
</a>
</g>
</g>
<!-- Node23&#45;&gt;Node32 -->
<g id="edge33" class="edge">
<title>Node23&#45;&gt;Node32</title>
<path fill="none" stroke="midnightblue" d="M283.51,-329.91C288.74,-327.14 293.68,-323.87 298,-320 326.13,-294.79 304.96,-267.16 334,-243 340.05,-237.97 347.22,-234.19 354.71,-231.35"/>
<polygon fill="midnightblue" stroke="midnightblue" points="355.88,-234.65 364.31,-228.23 353.71,-227.99 355.88,-234.65"/>
</g>
<!-- Node33 -->
<g id="node33" class="node">
<title>Node33</title>
<g id="a_node33"><a xlink:href="../../db/dae/class_voxel_image_visualizer.html#a65eec474a368555a6ba16c1f54e956db" target="_top" xlink:title="Set output size of the visualization.">
<polygon fill="white" stroke="black" points="357,-164 357,-194 467,-194 467,-164 357,-164"/>
<text text-anchor="start" x="365" y="-182" font-family="Helvetica,sans-Serif" font-size="10.00">VoxelImageVisualizer</text>
<text text-anchor="middle" x="412" y="-171" font-family="Helvetica,sans-Serif" font-size="10.00">::setOutputSize</text>
</a>
</g>
</g>
<!-- Node23&#45;&gt;Node33 -->
<g id="edge34" class="edge">
<title>Node23&#45;&gt;Node33</title>
<path fill="none" stroke="midnightblue" d="M285.15,-329.89C289.86,-327.13 294.24,-323.86 298,-320 335.65,-281.32 296.08,-242.42 334,-204 337.95,-200 342.54,-196.64 347.49,-193.81"/>
<polygon fill="midnightblue" stroke="midnightblue" points="349.26,-196.84 356.69,-189.29 346.18,-190.56 349.26,-196.84"/>
</g>
<!-- Node28 -->
<g id="node28" class="node">
<title>Node28</title>
<g id="a_node28"><a xlink:href="../../db/dae/class_voxel_image_visualizer.html#a381e70e9dba0cad1fddf946aa7f4a408" target="_top" xlink:title="Compute scaling factor for visualization actor.">
<polygon fill="white" stroke="black" points="548.5,-362 548.5,-392 658.5,-392 658.5,-362 548.5,-362"/>
<text text-anchor="start" x="556.5" y="-380" font-family="Helvetica,sans-Serif" font-size="10.00">VoxelImageVisualizer</text>
<text text-anchor="middle" x="603.5" y="-369" font-family="Helvetica,sans-Serif" font-size="10.00">::getScaleValue</text>
</a>
</g>
</g>
<!-- Node27&#45;&gt;Node28 -->
<g id="edge29" class="edge">
<title>Node27&#45;&gt;Node28</title>
<path fill="none" stroke="midnightblue" d="M469.6,-361.57C491.26,-364.09 516.11,-366.97 538.42,-369.56"/>
<polygon fill="midnightblue" stroke="midnightblue" points="538.13,-373.05 548.47,-370.73 538.94,-366.1 538.13,-373.05"/>
</g>
<!-- Node29 -->
<g id="node29" class="node">
<title>Node29</title>
<g id="a_node29"><a xlink:href="../../db/dae/class_voxel_image_visualizer.html#a2cf2e268d83ea28ea097a557b4e66fcd" target="_top" xlink:title="Compute 1D linearized index from 3D&#45;coodinate index.">
<polygon fill="white" stroke="black" points="539,-323.5 539,-342.5 668,-342.5 668,-323.5 539,-323.5"/>
<text text-anchor="middle" x="603.5" y="-330.5" font-family="Helvetica,sans-Serif" font-size="10.00">VoxelImageVisualizer::idx</text>
</a>
</g>
</g>
<!-- Node27&#45;&gt;Node29 -->
<g id="edge30" class="edge">
<title>Node27&#45;&gt;Node29</title>
<path fill="none" stroke="midnightblue" d="M469.6,-348.43C488.17,-346.27 509.1,-343.84 528.75,-341.56"/>
<polygon fill="midnightblue" stroke="midnightblue" points="529.36,-345.01 538.89,-340.38 528.56,-338.06 529.36,-345.01"/>
</g>
</g>
</svg>
