<?xml version="1.0" encoding="UTF-8" standalone="no"?>
<!DOCTYPE svg PUBLIC "-//W3C//DTD SVG 1.1//EN"
 "http://www.w3.org/Graphics/SVG/1.1/DTD/svg11.dtd">
<!-- Generated by graphviz version 2.44.0 (0)
 -->
<!-- Title: vtkoffreader.h Pages: 1 -->
<svg width="194pt" height="84pt"
 viewBox="0.00 0.00 193.50 84.00" xmlns="http://www.w3.org/2000/svg" xmlns:xlink="http://www.w3.org/1999/xlink">
<g id="graph0" class="graph" transform="scale(1 1) rotate(0) translate(4 80)">
<title>vtkoffreader.h</title>
<polygon fill="white" stroke="transparent" points="-4,4 -4,-80 189.5,-80 189.5,4 -4,4"/>
<!-- Node1 -->
<g id="node1" class="node">
<title>Node1</title>
<g id="a_node1"><a xlink:title=" ">
<polygon fill="#bfbfbf" stroke="black" points="56,-56.5 56,-75.5 132,-75.5 132,-56.5 56,-56.5"/>
<text text-anchor="middle" x="94" y="-63.5" font-family="Helvetica,sans-Serif" font-size="10.00">vtkoffreader.h</text>
</a>
</g>
</g>
<!-- Node2 -->
<g id="node2" class="node">
<title>Node2</title>
<g id="a_node2"><a xlink:href="../../db/d8b/vtkoffreader_8cxx.html" target="_top" xlink:title=" ">
<polygon fill="white" stroke="black" points="0,-0.5 0,-19.5 86,-19.5 86,-0.5 0,-0.5"/>
<text text-anchor="middle" x="43" y="-7.5" font-family="Helvetica,sans-Serif" font-size="10.00">vtkoffreader.cxx</text>
</a>
</g>
</g>
<!-- Node1&#45;&gt;Node2 -->
<g id="edge1" class="edge">
<title>Node1&#45;&gt;Node2</title>
<path fill="none" stroke="midnightblue" d="M78.62,-48.72C69.63,-39.2 58.64,-27.56 51.26,-19.75"/>
<polygon fill="midnightblue" stroke="midnightblue" points="76.17,-51.22 85.58,-56.08 81.26,-46.41 76.17,-51.22"/>
</g>
<!-- Node3 -->
<g id="node3" class="node">
<title>Node3</title>
<g id="a_node3"><a xlink:href="../../da/d7b/vtksurface_8cxx.html" target="_top" xlink:title=" ">
<polygon fill="white" stroke="black" points="104.5,-0.5 104.5,-19.5 185.5,-19.5 185.5,-0.5 104.5,-0.5"/>
<text text-anchor="middle" x="145" y="-7.5" font-family="Helvetica,sans-Serif" font-size="10.00">vtksurface.cxx</text>
</a>
</g>
</g>
<!-- Node1&#45;&gt;Node3 -->
<g id="edge2" class="edge">
<title>Node1&#45;&gt;Node3</title>
<path fill="none" stroke="midnightblue" d="M109.38,-48.72C118.37,-39.2 129.36,-27.56 136.74,-19.75"/>
<polygon fill="midnightblue" stroke="midnightblue" points="106.74,-46.41 102.42,-56.08 111.83,-51.22 106.74,-46.41"/>
</g>
</g>
</svg>
