<?xml version="1.0" encoding="UTF-8" standalone="no"?>
<!DOCTYPE svg PUBLIC "-//W3C//DTD SVG 1.1//EN"
 "http://www.w3.org/Graphics/SVG/1.1/DTD/svg11.dtd">
<!-- Generated by graphviz version 2.44.1 (0)
 -->
<!-- Title: mutable_priority_queue::_find Pages: 1 -->
<svg width="584pt" height="88pt"
 viewBox="0.00 0.00 584.00 88.00" xmlns="http://www.w3.org/2000/svg" xmlns:xlink="http://www.w3.org/1999/xlink">
<g id="graph0" class="graph" transform="scale(1 1) rotate(0) translate(4 84)">
<title>mutable_priority_queue::_find</title>
<polygon fill="white" stroke="transparent" points="-4,4 -4,-84 580,-84 580,4 -4,4"/>
<!-- Node1 -->
<g id="node1" class="node">
<title>Node1</title>
<g id="a_node1"><a xlink:title=" ">
<polygon fill="#bfbfbf" stroke="black" points="459,-24.5 459,-54.5 576,-54.5 576,-24.5 459,-24.5"/>
<text text-anchor="start" x="467" y="-42.5" font-family="Helvetica,sans-Serif" font-size="10.00">mutable_priority_queue</text>
<text text-anchor="middle" x="517.5" y="-31.5" font-family="Helvetica,sans-Serif" font-size="10.00">::_find</text>
</a>
</g>
</g>
<!-- Node2 -->
<g id="node2" class="node">
<title>Node2</title>
<g id="a_node2"><a xlink:href="../../d5/d50/classmutable__priority__queue.html#aef076d75c295002de49e8aad781dbe19" target="_top" xlink:title=" ">
<polygon fill="white" stroke="black" points="306,-24.5 306,-54.5 423,-54.5 423,-24.5 306,-24.5"/>
<text text-anchor="start" x="314" y="-42.5" font-family="Helvetica,sans-Serif" font-size="10.00">mutable_priority_queue</text>
<text text-anchor="middle" x="364.5" y="-31.5" font-family="Helvetica,sans-Serif" font-size="10.00">::erase</text>
</a>
</g>
</g>
<!-- Node1&#45;&gt;Node2 -->
<g id="edge1" class="edge">
<title>Node1&#45;&gt;Node2</title>
<path fill="none" stroke="midnightblue" d="M448.95,-39.5C440.32,-39.5 431.56,-39.5 423.11,-39.5"/>
<polygon fill="midnightblue" stroke="midnightblue" points="448.98,-43 458.98,-39.5 448.98,-36 448.98,-43"/>
</g>
<!-- Node3 -->
<g id="node3" class="node">
<title>Node3</title>
<g id="a_node3"><a xlink:href="../../d5/d50/classmutable__priority__queue.html#af45757ab268c93f9377b186edf3cc866" target="_top" xlink:title=" ">
<polygon fill="white" stroke="black" points="153,-24.5 153,-54.5 270,-54.5 270,-24.5 153,-24.5"/>
<text text-anchor="start" x="161" y="-42.5" font-family="Helvetica,sans-Serif" font-size="10.00">mutable_priority_queue</text>
<text text-anchor="middle" x="211.5" y="-31.5" font-family="Helvetica,sans-Serif" font-size="10.00">::insert</text>
</a>
</g>
</g>
<!-- Node2&#45;&gt;Node3 -->
<g id="edge2" class="edge">
<title>Node2&#45;&gt;Node3</title>
<path fill="none" stroke="midnightblue" d="M295.95,-39.5C287.32,-39.5 278.56,-39.5 270.11,-39.5"/>
<polygon fill="midnightblue" stroke="midnightblue" points="295.98,-43 305.98,-39.5 295.98,-36 295.98,-43"/>
</g>
<!-- Node4 -->
<g id="node4" class="node">
<title>Node4</title>
<g id="a_node4"><a xlink:href="../../d5/d50/classmutable__priority__queue.html#a75bfe9625ee20c55f71369a29c866680" target="_top" xlink:title=" ">
<polygon fill="white" stroke="black" points="0,-49.5 0,-79.5 117,-79.5 117,-49.5 0,-49.5"/>
<text text-anchor="start" x="8" y="-67.5" font-family="Helvetica,sans-Serif" font-size="10.00">mutable_priority_queue</text>
<text text-anchor="middle" x="58.5" y="-56.5" font-family="Helvetica,sans-Serif" font-size="10.00">::push</text>
</a>
</g>
</g>
<!-- Node3&#45;&gt;Node4 -->
<g id="edge3" class="edge">
<title>Node3&#45;&gt;Node4</title>
<path fill="none" stroke="midnightblue" d="M142.95,-50.68C134.32,-52.11 125.56,-53.56 117.11,-54.96"/>
<polygon fill="midnightblue" stroke="midnightblue" points="143.69,-54.11 152.98,-49.02 142.55,-47.2 143.69,-54.11"/>
</g>
<!-- Node5 -->
<g id="node5" class="node">
<title>Node5</title>
<g id="a_node5"><a xlink:href="../../d5/d50/classmutable__priority__queue.html#aa9c9333a500473ad731da33b55178bc0" target="_top" xlink:title=" ">
<polygon fill="white" stroke="black" points="0,-0.5 0,-30.5 117,-30.5 117,-0.5 0,-0.5"/>
<text text-anchor="start" x="8" y="-18.5" font-family="Helvetica,sans-Serif" font-size="10.00">mutable_priority_queue</text>
<text text-anchor="middle" x="58.5" y="-7.5" font-family="Helvetica,sans-Serif" font-size="10.00">::update</text>
</a>
</g>
</g>
<!-- Node3&#45;&gt;Node5 -->
<g id="edge4" class="edge">
<title>Node3&#45;&gt;Node5</title>
<path fill="none" stroke="midnightblue" d="M142.95,-28.76C134.32,-27.39 125.56,-26 117.11,-24.66"/>
<polygon fill="midnightblue" stroke="midnightblue" points="142.56,-32.24 152.98,-30.36 143.66,-25.33 142.56,-32.24"/>
</g>
</g>
</svg>
