<?xml version="1.0" encoding="UTF-8" standalone="no"?>
<!DOCTYPE svg PUBLIC "-//W3C//DTD SVG 1.1//EN"
 "http://www.w3.org/Graphics/SVG/1.1/DTD/svg11.dtd">
<!-- Generated by graphviz version 2.44.1 (0)
 -->
<!-- Title: T_MESH::mc_ints::compare Pages: 1 -->
<svg width="477pt" height="28pt"
 viewBox="0.00 0.00 477.00 28.00" xmlns="http://www.w3.org/2000/svg" xmlns:xlink="http://www.w3.org/1999/xlink">
<g id="graph0" class="graph" transform="scale(1 1) rotate(0) translate(4 24)">
<title>T_MESH::mc_ints::compare</title>
<polygon fill="white" stroke="transparent" points="-4,4 -4,-24 473,-24 473,4 -4,4"/>
<!-- Node1 -->
<g id="node1" class="node">
<title>Node1</title>
<g id="a_node1"><a xlink:title=" ">
<polygon fill="#bfbfbf" stroke="black" points="328,-0.5 328,-19.5 469,-19.5 469,-0.5 328,-0.5"/>
<text text-anchor="middle" x="398.5" y="-7.5" font-family="Helvetica,sans-Serif" font-size="10.00">T_MESH::mc_ints::compare</text>
</a>
</g>
</g>
<!-- Node2 -->
<g id="node2" class="node">
<title>Node2</title>
<g id="a_node2"><a xlink:href="../../d9/d69/class_t___m_e_s_h_1_1mc__grid.html#ad53cfdf02ec4e669bc047fa1778341a7" target="_top" xlink:title="&lt; AMF_CHANGE &#45; since T_MESH 2.4&#45;2 &gt;">
<polygon fill="white" stroke="black" points="172,-0.5 172,-19.5 292,-19.5 292,-0.5 172,-0.5"/>
<text text-anchor="middle" x="232" y="-7.5" font-family="Helvetica,sans-Serif" font-size="10.00">T_MESH::mc_grid::sort</text>
</a>
</g>
</g>
<!-- Node1&#45;&gt;Node2 -->
<g id="edge1" class="edge">
<title>Node1&#45;&gt;Node2</title>
<path fill="none" stroke="midnightblue" d="M317.7,-10C309.12,-10 300.5,-10 292.22,-10"/>
<polygon fill="midnightblue" stroke="midnightblue" points="317.74,-13.5 327.74,-10 317.74,-6.5 317.74,-13.5"/>
</g>
<!-- Node3 -->
<g id="node3" class="node">
<title>Node3</title>
<g id="a_node3"><a xlink:href="../../d9/d69/class_t___m_e_s_h_1_1mc__grid.html#acab069f805e6c473afb4e340d3d8d1ae" target="_top" xlink:title="&lt; AMF_CHANGE &#45; since T_MESH 2.4&#45;2 &gt;">
<polygon fill="white" stroke="black" points="0,-0.5 0,-19.5 136,-19.5 136,-0.5 0,-0.5"/>
<text text-anchor="middle" x="68" y="-7.5" font-family="Helvetica,sans-Serif" font-size="10.00">T_MESH::mc_grid::remesh</text>
</a>
</g>
</g>
<!-- Node2&#45;&gt;Node3 -->
<g id="edge2" class="edge">
<title>Node2&#45;&gt;Node3</title>
<path fill="none" stroke="midnightblue" d="M161.44,-10C153.02,-10 144.44,-10 136.06,-10"/>
<polygon fill="midnightblue" stroke="midnightblue" points="161.6,-13.5 171.6,-10 161.6,-6.5 161.6,-13.5"/>
</g>
</g>
</svg>
