<?xml version="1.0" encoding="UTF-8" standalone="no"?>
<!DOCTYPE svg PUBLIC "-//W3C//DTD SVG 1.1//EN"
 "http://www.w3.org/Graphics/SVG/1.1/DTD/svg11.dtd">
<!-- Generated by graphviz version 2.44.1 (0)
 -->
<!-- Title: SimulatedAnnealingOptimizer::simulatedAnnealing Pages: 1 -->
<svg width="990pt" height="460pt"
 viewBox="0.00 0.00 990.00 460.00" xmlns="http://www.w3.org/2000/svg" xmlns:xlink="http://www.w3.org/1999/xlink">
<g id="graph0" class="graph" transform="scale(1 1) rotate(0) translate(4 456)">
<title>SimulatedAnnealingOptimizer::simulatedAnnealing</title>
<polygon fill="white" stroke="transparent" points="-4,4 -4,-456 986,-456 986,4 -4,4"/>
<!-- Node1 -->
<g id="node1" class="node">
<title>Node1</title>
<g id="a_node1"><a xlink:title=" ">
<polygon fill="#bfbfbf" stroke="black" points="0,-213 0,-243 145,-243 145,-213 0,-213"/>
<text text-anchor="start" x="8" y="-231" font-family="Helvetica,sans-Serif" font-size="10.00">SimulatedAnnealingOptimizer</text>
<text text-anchor="middle" x="72.5" y="-220" font-family="Helvetica,sans-Serif" font-size="10.00">::simulatedAnnealing</text>
</a>
</g>
</g>
<!-- Node2 -->
<g id="node2" class="node">
<title>Node2</title>
<g id="a_node2"><a xlink:href="../../d9/d02/class_optimizer.html#a4f2470e3a7450a12d4daa5df86d50ce8" target="_top" xlink:title="computes the total wire length of a wiring">
<polygon fill="white" stroke="black" points="181,-213 181,-243 324,-243 324,-213 181,-213"/>
<text text-anchor="start" x="189" y="-231" font-family="Helvetica,sans-Serif" font-size="10.00">Optimizer::computeTotalWire</text>
<text text-anchor="middle" x="252.5" y="-220" font-family="Helvetica,sans-Serif" font-size="10.00">Distance</text>
</a>
</g>
</g>
<!-- Node1&#45;&gt;Node2 -->
<g id="edge1" class="edge">
<title>Node1&#45;&gt;Node2</title>
<path fill="none" stroke="midnightblue" d="M145.13,-228C153.6,-228 162.29,-228 170.88,-228"/>
<polygon fill="midnightblue" stroke="midnightblue" points="170.89,-231.5 180.89,-228 170.89,-224.5 170.89,-231.5"/>
</g>
<!-- Node3 -->
<g id="node3" class="node">
<title>Node3</title>
<g id="a_node3"><a xlink:href="../../de/d52/class_a_star.html#a29f560899446dc99d6f157e4997650d7" target="_top" xlink:title="Unmark all paths.">
<polygon fill="white" stroke="black" points="387.5,-432.5 387.5,-451.5 492.5,-451.5 492.5,-432.5 387.5,-432.5"/>
<text text-anchor="middle" x="440" y="-439.5" font-family="Helvetica,sans-Serif" font-size="10.00">AStar::clearAllPaths</text>
</a>
</g>
</g>
<!-- Node2&#45;&gt;Node3 -->
<g id="edge2" class="edge">
<title>Node2&#45;&gt;Node3</title>
<path fill="none" stroke="midnightblue" d="M257.69,-243.14C268.42,-279.06 300.33,-370 360,-418 365.33,-422.29 371.41,-425.81 377.79,-428.7"/>
<polygon fill="midnightblue" stroke="midnightblue" points="376.7,-432.04 387.28,-432.51 379.3,-425.54 376.7,-432.04"/>
</g>
<!-- Node4 -->
<g id="node4" class="node">
<title>Node4</title>
<g id="a_node4"><a xlink:href="../../de/d52/class_a_star.html#aa76c29f42861c4f6fc7c328e4dbc7d83" target="_top" xlink:title="Mark a path as locked so that it can not be used by another search.">
<polygon fill="white" stroke="black" points="581,-413.5 581,-432.5 670,-432.5 670,-413.5 581,-413.5"/>
<text text-anchor="middle" x="625.5" y="-420.5" font-family="Helvetica,sans-Serif" font-size="10.00">AStar::markPath</text>
</a>
</g>
</g>
<!-- Node2&#45;&gt;Node4 -->
<g id="edge14" class="edge">
<title>Node2&#45;&gt;Node4</title>
<path fill="none" stroke="midnightblue" d="M258.91,-243.2C271.23,-275.42 304.7,-350.43 360,-385 394.12,-406.33 503.45,-416.2 570.39,-420.35"/>
<polygon fill="midnightblue" stroke="midnightblue" points="570.57,-423.87 580.76,-420.97 570.98,-416.88 570.57,-423.87"/>
</g>
<!-- Node5 -->
<g id="node5" class="node">
<title>Node5</title>
<g id="a_node5"><a xlink:href="../../d9/d58/class_touchpoint.html#a30cdb1f0de39cf4ffe2d23c3c750d331" target="_top" xlink:title="Return outside wiring entry point (grid coordinates)">
<polygon fill="white" stroke="black" points="373.5,-345 373.5,-375 506.5,-375 506.5,-345 373.5,-345"/>
<text text-anchor="start" x="381.5" y="-363" font-family="Helvetica,sans-Serif" font-size="10.00">Touchpoint::getConnection</text>
<text text-anchor="middle" x="440" y="-352" font-family="Helvetica,sans-Serif" font-size="10.00">PointIndex</text>
</a>
</g>
</g>
<!-- Node2&#45;&gt;Node5 -->
<g id="edge4" class="edge">
<title>Node2&#45;&gt;Node5</title>
<path fill="none" stroke="midnightblue" d="M264.55,-243.05C282.22,-266.09 319.04,-310.05 360,-335 363.43,-337.09 367.04,-339.02 370.77,-340.8"/>
<polygon fill="midnightblue" stroke="midnightblue" points="369.65,-344.13 380.21,-344.92 372.45,-337.71 369.65,-344.13"/>
</g>
<!-- Node6 -->
<g id="node6" class="node">
<title>Node6</title>
<g id="a_node6"><a xlink:href="../../d6/db5/class_scene.html#a64cb0dcdcb57a45fe485fb3489c112c4" target="_top" xlink:title="Return if the 26&#45;neighborhood voxels of a connection path are locked too.">
<polygon fill="white" stroke="black" points="363.5,-306.5 363.5,-325.5 516.5,-325.5 516.5,-306.5 363.5,-306.5"/>
<text text-anchor="middle" x="440" y="-313.5" font-family="Helvetica,sans-Serif" font-size="10.00">Scene::getLockNeighborVoxels</text>
</a>
</g>
</g>
<!-- Node2&#45;&gt;Node6 -->
<g id="edge5" class="edge">
<title>Node2&#45;&gt;Node6</title>
<path fill="none" stroke="midnightblue" d="M272.39,-243.09C292.85,-258.74 327,-282.84 360,-297 365.78,-299.48 371.95,-301.68 378.2,-303.61"/>
<polygon fill="midnightblue" stroke="midnightblue" points="377.44,-307.03 388.02,-306.43 379.38,-300.31 377.44,-307.03"/>
</g>
<!-- Node7 -->
<g id="node7" class="node">
<title>Node7</title>
<g id="a_node7"><a xlink:href="../../d6/db5/class_scene.html#abe8f9d18527a1fea362460cdc53cb5eb" target="_top" xlink:title="Return the bounds of the mesh in scene coordinates.">
<polygon fill="white" stroke="black" points="360,-257 360,-287 520,-287 520,-257 360,-257"/>
<text text-anchor="start" x="368" y="-275" font-family="Helvetica,sans-Serif" font-size="10.00">Scene::getMeshWorldCoordinate</text>
<text text-anchor="middle" x="440" y="-264" font-family="Helvetica,sans-Serif" font-size="10.00">Bounds</text>
</a>
</g>
</g>
<!-- Node2&#45;&gt;Node7 -->
<g id="edge6" class="edge">
<title>Node2&#45;&gt;Node7</title>
<path fill="none" stroke="midnightblue" d="M316.82,-243.02C332.55,-246.75 349.54,-250.78 365.71,-254.62"/>
<polygon fill="midnightblue" stroke="midnightblue" points="365.11,-258.07 375.65,-256.97 366.73,-251.26 365.11,-258.07"/>
</g>
<!-- Node8 -->
<g id="node8" class="node">
<title>Node8</title>
<g id="a_node8"><a xlink:href="../../d6/db5/class_scene.html#a5c26ef724365bd55c471acc673d60674" target="_top" xlink:title="Return the touchpoint registry of the scene.">
<polygon fill="white" stroke="black" points="366,-218.5 366,-237.5 514,-237.5 514,-218.5 366,-218.5"/>
<text text-anchor="middle" x="440" y="-225.5" font-family="Helvetica,sans-Serif" font-size="10.00">Scene::getTouchpointRegistry</text>
</a>
</g>
</g>
<!-- Node2&#45;&gt;Node8 -->
<g id="edge7" class="edge">
<title>Node2&#45;&gt;Node8</title>
<path fill="none" stroke="midnightblue" d="M324.16,-228C334.48,-228 345.19,-228 355.73,-228"/>
<polygon fill="midnightblue" stroke="midnightblue" points="355.77,-231.5 365.77,-228 355.77,-224.5 355.77,-231.5"/>
</g>
<!-- Node9 -->
<g id="node9" class="node">
<title>Node9</title>
<g id="a_node9"><a xlink:href="../../d6/db5/class_scene.html#a7e5ee53ea01ef113afaaf4b7c10accf3" target="_top" xlink:title="Return the voxel grid image data.">
<polygon fill="white" stroke="black" points="385.5,-180.5 385.5,-199.5 494.5,-199.5 494.5,-180.5 385.5,-180.5"/>
<text text-anchor="middle" x="440" y="-187.5" font-family="Helvetica,sans-Serif" font-size="10.00">Scene::getVoxelData</text>
</a>
</g>
</g>
<!-- Node2&#45;&gt;Node9 -->
<g id="edge8" class="edge">
<title>Node2&#45;&gt;Node9</title>
<path fill="none" stroke="midnightblue" d="M324.16,-213.53C343.42,-209.58 364.04,-205.36 382.41,-201.59"/>
<polygon fill="midnightblue" stroke="midnightblue" points="383.27,-204.99 392.36,-199.55 381.86,-198.13 383.27,-204.99"/>
</g>
<!-- Node10 -->
<g id="node10" class="node">
<title>Node10</title>
<g id="a_node10"><a xlink:href="../../d9/d58/class_touchpoint.html#afbb2470ea0d67a12a29eb3d6bd958f01" target="_top" xlink:title="Mark voxel grid cells as occupied by the touchpoint geometry.">
<polygon fill="white" stroke="black" points="369.5,-104.5 369.5,-123.5 510.5,-123.5 510.5,-104.5 369.5,-104.5"/>
<text text-anchor="middle" x="440" y="-111.5" font-family="Helvetica,sans-Serif" font-size="10.00">Touchpoint::markOccupation</text>
</a>
</g>
</g>
<!-- Node2&#45;&gt;Node10 -->
<g id="edge9" class="edge">
<title>Node2&#45;&gt;Node10</title>
<path fill="none" stroke="midnightblue" d="M265.94,-212.97C284.29,-191.82 320.71,-153.57 360,-133 364.49,-130.65 369.28,-128.58 374.2,-126.77"/>
<polygon fill="midnightblue" stroke="midnightblue" points="375.37,-130.06 383.75,-123.58 373.16,-123.42 375.37,-130.06"/>
</g>
<!-- Node15 -->
<g id="node15" class="node">
<title>Node15</title>
<g id="a_node15"><a xlink:href="../../de/d52/class_a_star.html#a67f440fb4e77fad8d273ef848e9703c1" target="_top" xlink:title="Reset grid.">
<polygon fill="white" stroke="black" points="405.5,-142.5 405.5,-161.5 474.5,-161.5 474.5,-142.5 405.5,-142.5"/>
<text text-anchor="middle" x="440" y="-149.5" font-family="Helvetica,sans-Serif" font-size="10.00">AStar::reset</text>
</a>
</g>
</g>
<!-- Node2&#45;&gt;Node15 -->
<g id="edge15" class="edge">
<title>Node2&#45;&gt;Node15</title>
<path fill="none" stroke="midnightblue" d="M277.62,-212.78C298.67,-200.07 330.41,-182.27 360,-171 371.22,-166.73 383.7,-163.2 395.38,-160.39"/>
<polygon fill="midnightblue" stroke="midnightblue" points="396.4,-163.74 405.37,-158.1 394.84,-156.92 396.4,-163.74"/>
</g>
<!-- Node19 -->
<g id="node19" class="node">
<title>Node19</title>
<g id="a_node19"><a xlink:href="../../de/d52/class_a_star.html#a0d1fd50821c4cd7bbd8a87bd9fcf5dd3" target="_top" xlink:title="Search a path in the voxelgrid using the A* algorithm with the preset heuristic.">
<polygon fill="white" stroke="black" points="391.5,-66.5 391.5,-85.5 488.5,-85.5 488.5,-66.5 391.5,-66.5"/>
<text text-anchor="middle" x="440" y="-73.5" font-family="Helvetica,sans-Serif" font-size="10.00">AStar::searchPath</text>
</a>
</g>
</g>
<!-- Node2&#45;&gt;Node19 -->
<g id="edge19" class="edge">
<title>Node2&#45;&gt;Node19</title>
<path fill="none" stroke="midnightblue" d="M261.15,-212.93C276.12,-185.04 312.06,-125.45 360,-95 366.61,-90.8 374.08,-87.53 381.71,-84.98"/>
<polygon fill="midnightblue" stroke="midnightblue" points="382.81,-88.3 391.42,-82.12 380.84,-81.59 382.81,-88.3"/>
</g>
<!-- Node20 -->
<g id="node20" class="node">
<title>Node20</title>
<g id="a_node20"><a xlink:href="../../d9/d58/class_touchpoint.html#a550348f9d05c347b5186b6531d583a11" target="_top" xlink:title="Mark voxel grid cells as unoccupied by the touchpoint geometry.">
<polygon fill="white" stroke="black" points="364,-28.5 364,-47.5 516,-47.5 516,-28.5 364,-28.5"/>
<text text-anchor="middle" x="440" y="-35.5" font-family="Helvetica,sans-Serif" font-size="10.00">Touchpoint::unMarkOccupation</text>
</a>
</g>
</g>
<!-- Node2&#45;&gt;Node20 -->
<g id="edge20" class="edge">
<title>Node2&#45;&gt;Node20</title>
<path fill="none" stroke="midnightblue" d="M258.42,-212.91C270.18,-179.27 303.27,-97.92 360,-57 362.69,-55.06 365.55,-53.32 368.53,-51.75"/>
<polygon fill="midnightblue" stroke="midnightblue" points="370.1,-54.88 377.76,-47.56 367.21,-48.5 370.1,-54.88"/>
</g>
<!-- Node3&#45;&gt;Node4 -->
<g id="edge3" class="edge">
<title>Node3&#45;&gt;Node4</title>
<path fill="none" stroke="midnightblue" d="M492.6,-436.66C516.91,-434.14 545.89,-431.14 570.49,-428.59"/>
<polygon fill="midnightblue" stroke="midnightblue" points="571.15,-432.04 580.73,-427.53 570.43,-425.08 571.15,-432.04"/>
</g>
<!-- Node11 -->
<g id="node11" class="node">
<title>Node11</title>
<g id="a_node11"><a xlink:href="../../d9/d58/class_touchpoint.html#a1b82f162b238396efeae6b9369430a87" target="_top" xlink:title="Mark voxel grid cells occupied / unoccupied by the touchpoint geometry.">
<polygon fill="white" stroke="black" points="556,-39 556,-69 695,-69 695,-39 556,-39"/>
<text text-anchor="start" x="564" y="-57" font-family="Helvetica,sans-Serif" font-size="10.00">Touchpoint::markTouchpoint</text>
<text text-anchor="middle" x="625.5" y="-46" font-family="Helvetica,sans-Serif" font-size="10.00">Cells</text>
</a>
</g>
</g>
<!-- Node10&#45;&gt;Node11 -->
<g id="edge10" class="edge">
<title>Node10&#45;&gt;Node11</title>
<path fill="none" stroke="midnightblue" d="M485.58,-104.41C496.9,-101.67 508.97,-98.47 520,-95 540.1,-88.67 561.87,-80.37 580.31,-72.9"/>
<polygon fill="midnightblue" stroke="midnightblue" points="581.7,-76.11 589.62,-69.08 579.04,-69.64 581.7,-76.11"/>
</g>
<!-- Node12 -->
<g id="node12" class="node">
<title>Node12</title>
<g id="a_node12"><a xlink:href="../../d1/d7c/namespace_utils.html#ac9b063fc04e0a4e5501c8ed0af96ac47" target="_top" xlink:title="Clamp integer value between min and max.">
<polygon fill="white" stroke="black" points="768.5,-88.5 768.5,-107.5 848.5,-107.5 848.5,-88.5 768.5,-88.5"/>
<text text-anchor="middle" x="808.5" y="-95.5" font-family="Helvetica,sans-Serif" font-size="10.00">Utils::clampInt</text>
</a>
</g>
</g>
<!-- Node11&#45;&gt;Node12 -->
<g id="edge11" class="edge">
<title>Node11&#45;&gt;Node12</title>
<path fill="none" stroke="midnightblue" d="M688.28,-69.02C711.18,-74.59 736.82,-80.82 758.43,-86.07"/>
<polygon fill="midnightblue" stroke="midnightblue" points="757.83,-89.53 768.37,-88.49 759.48,-82.72 757.83,-89.53"/>
</g>
<!-- Node13 -->
<g id="node13" class="node">
<title>Node13</title>
<g id="a_node13"><a xlink:href="../../d9/d58/class_touchpoint.html#a465057d2b000f7fc374d594fb8b80ce6" target="_top" xlink:title="Return the bounds of the touchpoint in world coordinates.">
<polygon fill="white" stroke="black" points="731,-39 731,-69 886,-69 886,-39 731,-39"/>
<text text-anchor="start" x="739" y="-57" font-family="Helvetica,sans-Serif" font-size="10.00">Touchpoint::getWorldCoordinate</text>
<text text-anchor="middle" x="808.5" y="-46" font-family="Helvetica,sans-Serif" font-size="10.00">Bounds</text>
</a>
</g>
</g>
<!-- Node11&#45;&gt;Node13 -->
<g id="edge12" class="edge">
<title>Node11&#45;&gt;Node13</title>
<path fill="none" stroke="midnightblue" d="M695.19,-54C703.6,-54 712.27,-54 720.9,-54"/>
<polygon fill="midnightblue" stroke="midnightblue" points="720.99,-57.5 730.99,-54 720.99,-50.5 720.99,-57.5"/>
</g>
<!-- Node14 -->
<g id="node14" class="node">
<title>Node14</title>
<g id="a_node14"><a xlink:href="../../d1/d7c/namespace_utils.html#a606fb1eb5072ca20f56293fa71bd8578" target="_top" xlink:title="Compute 1D linearized index from 3D&#45;coodinate index.">
<polygon fill="white" stroke="black" points="780.5,-0.5 780.5,-19.5 836.5,-19.5 836.5,-0.5 780.5,-0.5"/>
<text text-anchor="middle" x="808.5" y="-7.5" font-family="Helvetica,sans-Serif" font-size="10.00">Utils::idx</text>
</a>
</g>
</g>
<!-- Node11&#45;&gt;Node14 -->
<g id="edge13" class="edge">
<title>Node11&#45;&gt;Node14</title>
<path fill="none" stroke="midnightblue" d="M688.28,-38.98C715.58,-32.34 746.77,-24.76 770.4,-19.02"/>
<polygon fill="midnightblue" stroke="midnightblue" points="771.46,-22.36 780.35,-16.6 769.81,-15.56 771.46,-22.36"/>
</g>
<!-- Node16 -->
<g id="node16" class="node">
<title>Node16</title>
<g id="a_node16"><a xlink:href="../../de/d52/class_a_star.html#af8f32d428d15af1c33dc9f77929299ca" target="_top" xlink:title="Resets the 3D voxel grid to it&#39;s default values.">
<polygon fill="white" stroke="black" points="582,-142.5 582,-161.5 669,-161.5 669,-142.5 582,-142.5"/>
<text text-anchor="middle" x="625.5" y="-149.5" font-family="Helvetica,sans-Serif" font-size="10.00">AStar::resetGrid</text>
</a>
</g>
</g>
<!-- Node15&#45;&gt;Node16 -->
<g id="edge16" class="edge">
<title>Node15&#45;&gt;Node16</title>
<path fill="none" stroke="midnightblue" d="M474.66,-152C501.71,-152 540.2,-152 571.4,-152"/>
<polygon fill="midnightblue" stroke="midnightblue" points="571.68,-155.5 581.68,-152 571.68,-148.5 571.68,-155.5"/>
</g>
<!-- Node17 -->
<g id="node17" class="node">
<title>Node17</title>
<g id="a_node17"><a xlink:href="../../de/d52/class_a_star.html#aadbff393646adec069b3264bed4edc9f" target="_top" xlink:title="Initializes the 3D voxel grid.">
<polygon fill="white" stroke="black" points="769.5,-142.5 769.5,-161.5 847.5,-161.5 847.5,-142.5 769.5,-142.5"/>
<text text-anchor="middle" x="808.5" y="-149.5" font-family="Helvetica,sans-Serif" font-size="10.00">AStar::initGrid</text>
</a>
</g>
</g>
<!-- Node16&#45;&gt;Node17 -->
<g id="edge17" class="edge">
<title>Node16&#45;&gt;Node17</title>
<path fill="none" stroke="midnightblue" d="M669.39,-152C696.28,-152 730.99,-152 758.89,-152"/>
<polygon fill="midnightblue" stroke="midnightblue" points="759.22,-155.5 769.22,-152 759.22,-148.5 759.22,-155.5"/>
</g>
<!-- Node18 -->
<g id="node18" class="node">
<title>Node18</title>
<g id="a_node18"><a xlink:href="../../de/d52/class_a_star.html#abc66e4863cf4c15f616098e60469e50b" target="_top" xlink:title="Compute 1D linearized index from 3D&#45;coodinate index.">
<polygon fill="white" stroke="black" points="922,-142.5 922,-161.5 982,-161.5 982,-142.5 922,-142.5"/>
<text text-anchor="middle" x="952" y="-149.5" font-family="Helvetica,sans-Serif" font-size="10.00">AStar::idx</text>
</a>
</g>
</g>
<!-- Node17&#45;&gt;Node18 -->
<g id="edge18" class="edge">
<title>Node17&#45;&gt;Node18</title>
<path fill="none" stroke="midnightblue" d="M847.79,-152C867.59,-152 891.71,-152 911.65,-152"/>
<polygon fill="midnightblue" stroke="midnightblue" points="911.66,-155.5 921.66,-152 911.66,-148.5 911.66,-155.5"/>
</g>
<!-- Node20&#45;&gt;Node11 -->
<g id="edge21" class="edge">
<title>Node20&#45;&gt;Node11</title>
<path fill="none" stroke="midnightblue" d="M516.17,-44.55C525.94,-45.41 535.97,-46.28 545.79,-47.14"/>
<polygon fill="midnightblue" stroke="midnightblue" points="545.67,-50.64 555.94,-48.02 546.28,-43.67 545.67,-50.64"/>
</g>
</g>
</svg>
