<?xml version="1.0" encoding="UTF-8" standalone="no"?>
<!DOCTYPE svg PUBLIC "-//W3C//DTD SVG 1.1//EN"
 "http://www.w3.org/Graphics/SVG/1.1/DTD/svg11.dtd">
<!-- Generated by graphviz version 2.44.0 (0)
 -->
<!-- Title: SimulatedAnnealingOptimizer::simulatedAnnealing Pages: 1 -->
<svg width="863pt" height="306pt"
 viewBox="0.00 0.00 863.00 306.00" xmlns="http://www.w3.org/2000/svg" xmlns:xlink="http://www.w3.org/1999/xlink">
<g id="graph0" class="graph" transform="scale(1 1) rotate(0) translate(4 302)">
<title>SimulatedAnnealingOptimizer::simulatedAnnealing</title>
<polygon fill="white" stroke="transparent" points="-4,4 -4,-302 859,-302 859,4 -4,4"/>
<!-- Node1 -->
<g id="node1" class="node">
<title>Node1</title>
<g id="a_node1"><a xlink:title=" ">
<polygon fill="#bfbfbf" stroke="black" points="0,-131 0,-161 145,-161 145,-131 0,-131"/>
<text text-anchor="start" x="8" y="-149" font-family="Helvetica,sans-Serif" font-size="10.00">SimulatedAnnealingOptimizer</text>
<text text-anchor="middle" x="72.5" y="-138" font-family="Helvetica,sans-Serif" font-size="10.00">::simulatedAnnealing</text>
</a>
</g>
</g>
<!-- Node2 -->
<g id="node2" class="node">
<title>Node2</title>
<g id="a_node2"><a xlink:href="../../d9/d02/class_optimizer.html#a4f2470e3a7450a12d4daa5df86d50ce8" target="_top" xlink:title="computes the total wire length of a wiring">
<polygon fill="white" stroke="black" points="181,-131 181,-161 324,-161 324,-131 181,-131"/>
<text text-anchor="start" x="189" y="-149" font-family="Helvetica,sans-Serif" font-size="10.00">Optimizer::computeTotalWire</text>
<text text-anchor="middle" x="252.5" y="-138" font-family="Helvetica,sans-Serif" font-size="10.00">Distance</text>
</a>
</g>
</g>
<!-- Node1&#45;&gt;Node2 -->
<g id="edge1" class="edge">
<title>Node1&#45;&gt;Node2</title>
<path fill="none" stroke="midnightblue" d="M145.13,-146C153.6,-146 162.29,-146 170.88,-146"/>
<polygon fill="midnightblue" stroke="midnightblue" points="170.89,-149.5 180.89,-146 170.89,-142.5 170.89,-149.5"/>
</g>
<!-- Node3 -->
<g id="node3" class="node">
<title>Node3</title>
<g id="a_node3"><a xlink:href="../../de/d52/class_a_star.html#a29f560899446dc99d6f157e4997650d7" target="_top" xlink:title="Unmark all paths.">
<polygon fill="white" stroke="black" points="387.5,-278.5 387.5,-297.5 492.5,-297.5 492.5,-278.5 387.5,-278.5"/>
<text text-anchor="middle" x="440" y="-285.5" font-family="Helvetica,sans-Serif" font-size="10.00">AStar::clearAllPaths</text>
</a>
</g>
</g>
<!-- Node2&#45;&gt;Node3 -->
<g id="edge2" class="edge">
<title>Node2&#45;&gt;Node3</title>
<path fill="none" stroke="midnightblue" d="M263.05,-161.07C279.69,-186.12 316.44,-236.34 360,-264 366.97,-268.42 374.8,-272.07 382.75,-275.07"/>
<polygon fill="midnightblue" stroke="midnightblue" points="381.87,-278.47 392.46,-278.41 384.15,-271.85 381.87,-278.47"/>
</g>
<!-- Node4 -->
<g id="node4" class="node">
<title>Node4</title>
<g id="a_node4"><a xlink:href="../../de/d52/class_a_star.html#aa76c29f42861c4f6fc7c328e4dbc7d83" target="_top" xlink:title="Mark a path as locked so that it can not be used by another search.">
<polygon fill="white" stroke="black" points="556,-259.5 556,-278.5 645,-278.5 645,-259.5 556,-259.5"/>
<text text-anchor="middle" x="600.5" y="-266.5" font-family="Helvetica,sans-Serif" font-size="10.00">AStar::markPath</text>
</a>
</g>
</g>
<!-- Node2&#45;&gt;Node4 -->
<g id="edge8" class="edge">
<title>Node2&#45;&gt;Node4</title>
<path fill="none" stroke="midnightblue" d="M267.36,-161.13C286.26,-180.71 322.12,-214.29 360,-231 419.87,-257.41 495.34,-265.76 545.39,-268.24"/>
<polygon fill="midnightblue" stroke="midnightblue" points="545.52,-271.75 555.66,-268.69 545.83,-264.76 545.52,-271.75"/>
</g>
<!-- Node5 -->
<g id="node5" class="node">
<title>Node5</title>
<g id="a_node5"><a xlink:href="../../d6/db5/class_scene.html#a64cb0dcdcb57a45fe485fb3489c112c4" target="_top" xlink:title="Return if the 26&#45;neighborhood voxels of a connection path are locked too.">
<polygon fill="white" stroke="black" points="363.5,-202.5 363.5,-221.5 516.5,-221.5 516.5,-202.5 363.5,-202.5"/>
<text text-anchor="middle" x="440" y="-209.5" font-family="Helvetica,sans-Serif" font-size="10.00">Scene::getLockNeighborVoxels</text>
</a>
</g>
</g>
<!-- Node2&#45;&gt;Node5 -->
<g id="edge4" class="edge">
<title>Node2&#45;&gt;Node5</title>
<path fill="none" stroke="midnightblue" d="M283.68,-161.06C304.69,-171.11 333.58,-184.07 360,-193 367.42,-195.51 375.34,-197.82 383.2,-199.91"/>
<polygon fill="midnightblue" stroke="midnightblue" points="382.51,-203.35 393.07,-202.43 384.24,-196.56 382.51,-203.35"/>
</g>
<!-- Node6 -->
<g id="node6" class="node">
<title>Node6</title>
<g id="a_node6"><a xlink:href="../../d6/db5/class_scene.html#abe8f9d18527a1fea362460cdc53cb5eb" target="_top" xlink:title="Return the bounds of the mesh in scene coordinates.">
<polygon fill="white" stroke="black" points="360,-153 360,-183 520,-183 520,-153 360,-153"/>
<text text-anchor="start" x="368" y="-171" font-family="Helvetica,sans-Serif" font-size="10.00">Scene::getMeshWorldCoordinate</text>
<text text-anchor="middle" x="440" y="-160" font-family="Helvetica,sans-Serif" font-size="10.00">Bounds</text>
</a>
</g>
</g>
<!-- Node2&#45;&gt;Node6 -->
<g id="edge5" class="edge">
<title>Node2&#45;&gt;Node6</title>
<path fill="none" stroke="midnightblue" d="M324.16,-154.38C332.55,-155.37 341.19,-156.4 349.8,-157.42"/>
<polygon fill="midnightblue" stroke="midnightblue" points="349.52,-160.91 359.86,-158.61 350.34,-153.96 349.52,-160.91"/>
</g>
<!-- Node7 -->
<g id="node7" class="node">
<title>Node7</title>
<g id="a_node7"><a xlink:href="../../d6/db5/class_scene.html#a5c26ef724365bd55c471acc673d60674" target="_top" xlink:title="Return the touchpoint registry of the scene.">
<polygon fill="white" stroke="black" points="366,-114.5 366,-133.5 514,-133.5 514,-114.5 366,-114.5"/>
<text text-anchor="middle" x="440" y="-121.5" font-family="Helvetica,sans-Serif" font-size="10.00">Scene::getTouchpointRegistry</text>
</a>
</g>
</g>
<!-- Node2&#45;&gt;Node7 -->
<g id="edge6" class="edge">
<title>Node2&#45;&gt;Node7</title>
<path fill="none" stroke="midnightblue" d="M324.16,-137.62C334.48,-136.4 345.19,-135.13 355.73,-133.88"/>
<polygon fill="midnightblue" stroke="midnightblue" points="356.25,-137.34 365.77,-132.69 355.42,-130.39 356.25,-137.34"/>
</g>
<!-- Node8 -->
<g id="node8" class="node">
<title>Node8</title>
<g id="a_node8"><a xlink:href="../../d6/db5/class_scene.html#a7e5ee53ea01ef113afaaf4b7c10accf3" target="_top" xlink:title="Return the voxel grid image data.">
<polygon fill="white" stroke="black" points="385.5,-76.5 385.5,-95.5 494.5,-95.5 494.5,-76.5 385.5,-76.5"/>
<text text-anchor="middle" x="440" y="-83.5" font-family="Helvetica,sans-Serif" font-size="10.00">Scene::getVoxelData</text>
</a>
</g>
</g>
<!-- Node2&#45;&gt;Node8 -->
<g id="edge7" class="edge">
<title>Node2&#45;&gt;Node8</title>
<path fill="none" stroke="midnightblue" d="M289.07,-130.96C309.58,-122.63 335.98,-112.48 360,-105 368.04,-102.5 376.62,-100.13 385.05,-97.97"/>
<polygon fill="midnightblue" stroke="midnightblue" points="385.98,-101.35 394.84,-95.54 384.29,-94.55 385.98,-101.35"/>
</g>
<!-- Node9 -->
<g id="node9" class="node">
<title>Node9</title>
<g id="a_node9"><a xlink:href="../../de/d52/class_a_star.html#a67f440fb4e77fad8d273ef848e9703c1" target="_top" xlink:title="Reset grid.">
<polygon fill="white" stroke="black" points="405.5,-38.5 405.5,-57.5 474.5,-57.5 474.5,-38.5 405.5,-38.5"/>
<text text-anchor="middle" x="440" y="-45.5" font-family="Helvetica,sans-Serif" font-size="10.00">AStar::reset</text>
</a>
</g>
</g>
<!-- Node2&#45;&gt;Node9 -->
<g id="edge9" class="edge">
<title>Node2&#45;&gt;Node9</title>
<path fill="none" stroke="midnightblue" d="M269.48,-130.85C289.21,-112.97 324.54,-83.57 360,-67 370.97,-61.87 383.47,-58.05 395.24,-55.23"/>
<polygon fill="midnightblue" stroke="midnightblue" points="396.32,-58.57 405.33,-53 394.81,-51.74 396.32,-58.57"/>
</g>
<!-- Node13 -->
<g id="node13" class="node">
<title>Node13</title>
<g id="a_node13"><a xlink:href="../../de/d52/class_a_star.html#a0d1fd50821c4cd7bbd8a87bd9fcf5dd3" target="_top" xlink:title="Search a path in the voxelgrid using the A* algorithm with the preset heuristic.">
<polygon fill="white" stroke="black" points="391.5,-0.5 391.5,-19.5 488.5,-19.5 488.5,-0.5 391.5,-0.5"/>
<text text-anchor="middle" x="440" y="-7.5" font-family="Helvetica,sans-Serif" font-size="10.00">AStar::searchPath</text>
</a>
</g>
</g>
<!-- Node2&#45;&gt;Node13 -->
<g id="edge13" class="edge">
<title>Node2&#45;&gt;Node13</title>
<path fill="none" stroke="midnightblue" d="M262.91,-130.78C279.34,-105.53 315.79,-55.15 360,-29 366.66,-25.06 374.09,-21.94 381.66,-19.46"/>
<polygon fill="midnightblue" stroke="midnightblue" points="382.65,-22.82 391.27,-16.66 380.69,-16.1 382.65,-22.82"/>
</g>
<!-- Node3&#45;&gt;Node4 -->
<g id="edge3" class="edge">
<title>Node3&#45;&gt;Node4</title>
<path fill="none" stroke="midnightblue" d="M492.9,-281.78C509.8,-279.75 528.58,-277.5 545.62,-275.46"/>
<polygon fill="midnightblue" stroke="midnightblue" points="546.46,-278.88 555.97,-274.22 545.63,-271.93 546.46,-278.88"/>
</g>
<!-- Node10 -->
<g id="node10" class="node">
<title>Node10</title>
<g id="a_node10"><a xlink:href="../../de/d52/class_a_star.html#af8f32d428d15af1c33dc9f77929299ca" target="_top" xlink:title=" ">
<polygon fill="white" stroke="black" points="557,-38.5 557,-57.5 644,-57.5 644,-38.5 557,-38.5"/>
<text text-anchor="middle" x="600.5" y="-45.5" font-family="Helvetica,sans-Serif" font-size="10.00">AStar::resetGrid</text>
</a>
</g>
</g>
<!-- Node9&#45;&gt;Node10 -->
<g id="edge10" class="edge">
<title>Node9&#45;&gt;Node10</title>
<path fill="none" stroke="midnightblue" d="M474.61,-48C495.51,-48 522.83,-48 546.59,-48"/>
<polygon fill="midnightblue" stroke="midnightblue" points="546.87,-51.5 556.87,-48 546.87,-44.5 546.87,-51.5"/>
</g>
<!-- Node11 -->
<g id="node11" class="node">
<title>Node11</title>
<g id="a_node11"><a xlink:href="../../de/d52/class_a_star.html#aadbff393646adec069b3264bed4edc9f" target="_top" xlink:title=" ">
<polygon fill="white" stroke="black" points="681,-38.5 681,-57.5 759,-57.5 759,-38.5 681,-38.5"/>
<text text-anchor="middle" x="720" y="-45.5" font-family="Helvetica,sans-Serif" font-size="10.00">AStar::initGrid</text>
</a>
</g>
</g>
<!-- Node10&#45;&gt;Node11 -->
<g id="edge11" class="edge">
<title>Node10&#45;&gt;Node11</title>
<path fill="none" stroke="midnightblue" d="M644.25,-48C652.84,-48 661.91,-48 670.67,-48"/>
<polygon fill="midnightblue" stroke="midnightblue" points="670.76,-51.5 680.76,-48 670.76,-44.5 670.76,-51.5"/>
</g>
<!-- Node12 -->
<g id="node12" class="node">
<title>Node12</title>
<g id="a_node12"><a xlink:href="../../de/d52/class_a_star.html#abc66e4863cf4c15f616098e60469e50b" target="_top" xlink:title="Compute 1D linearized index from 3D&#45;coodinate index.">
<polygon fill="white" stroke="black" points="795,-38.5 795,-57.5 855,-57.5 855,-38.5 795,-38.5"/>
<text text-anchor="middle" x="825" y="-45.5" font-family="Helvetica,sans-Serif" font-size="10.00">AStar::idx</text>
</a>
</g>
</g>
<!-- Node11&#45;&gt;Node12 -->
<g id="edge12" class="edge">
<title>Node11&#45;&gt;Node12</title>
<path fill="none" stroke="midnightblue" d="M759.06,-48C767.36,-48 776.16,-48 784.52,-48"/>
<polygon fill="midnightblue" stroke="midnightblue" points="784.79,-51.5 794.79,-48 784.79,-44.5 784.79,-51.5"/>
</g>
</g>
</svg>
