<?xml version="1.0" encoding="UTF-8" standalone="no"?>
<!DOCTYPE svg PUBLIC "-//W3C//DTD SVG 1.1//EN"
 "http://www.w3.org/Graphics/SVG/1.1/DTD/svg11.dtd">
<!-- Generated by graphviz version 2.44.1 (0)
 -->
<!-- Title: PreferencesDialog::setPolylineTouchpointDepth_textEdit Pages: 1 -->
<svg width="691pt" height="88pt"
 viewBox="0.00 0.00 691.00 88.00" xmlns="http://www.w3.org/2000/svg" xmlns:xlink="http://www.w3.org/1999/xlink">
<g id="graph0" class="graph" transform="scale(1 1) rotate(0) translate(4 84)">
<title>PreferencesDialog::setPolylineTouchpointDepth_textEdit</title>
<polygon fill="white" stroke="transparent" points="-4,4 -4,-84 687,-84 687,4 -4,4"/>
<!-- Node1 -->
<g id="node1" class="node">
<title>Node1</title>
<g id="a_node1"><a xlink:title=" ">
<polygon fill="#bfbfbf" stroke="black" points="545,-19 545,-60 683,-60 683,-19 545,-19"/>
<text text-anchor="start" x="553" y="-48" font-family="Helvetica,sans-Serif" font-size="10.00">PreferencesDialog::</text>
<text text-anchor="start" x="553" y="-37" font-family="Helvetica,sans-Serif" font-size="10.00">setPolylineTouchpointDepth</text>
<text text-anchor="middle" x="614" y="-26" font-family="Helvetica,sans-Serif" font-size="10.00">_textEdit</text>
</a>
</g>
</g>
<!-- Node2 -->
<g id="node2" class="node">
<title>Node2</title>
<g id="a_node2"><a xlink:href="../../d9/dc6/class_main_window.html#a31a84d76013d226265d5c4f86d90de14" target="_top" xlink:title="Read the configuration settings from a file.">
<polygon fill="white" stroke="black" points="171,-49.5 171,-79.5 326,-79.5 326,-49.5 171,-49.5"/>
<text text-anchor="start" x="179" y="-67.5" font-family="Helvetica,sans-Serif" font-size="10.00">MainWindow::readConfiguration</text>
<text text-anchor="middle" x="248.5" y="-56.5" font-family="Helvetica,sans-Serif" font-size="10.00">Settings</text>
</a>
</g>
</g>
<!-- Node1&#45;&gt;Node2 -->
<g id="edge1" class="edge">
<title>Node1&#45;&gt;Node2</title>
<path fill="none" stroke="midnightblue" d="M534.55,-44.9C472.82,-49.14 387.29,-55.02 326.05,-59.24"/>
<polygon fill="midnightblue" stroke="midnightblue" points="534.89,-48.38 544.63,-44.2 534.41,-41.4 534.89,-48.38"/>
</g>
<!-- Node4 -->
<g id="node4" class="node">
<title>Node4</title>
<g id="a_node4"><a xlink:href="../../d9/dc6/class_main_window.html#af60f6c7d3b7594e7792d9d27b53de99a" target="_top" xlink:title=" ">
<polygon fill="white" stroke="black" points="362,-2.5 362,-32.5 509,-32.5 509,-2.5 362,-2.5"/>
<text text-anchor="start" x="370" y="-20.5" font-family="Helvetica,sans-Serif" font-size="10.00">MainWindow::slotPreferences</text>
<text text-anchor="middle" x="435.5" y="-9.5" font-family="Helvetica,sans-Serif" font-size="10.00">Rejected</text>
</a>
</g>
</g>
<!-- Node1&#45;&gt;Node4 -->
<g id="edge3" class="edge">
<title>Node1&#45;&gt;Node4</title>
<path fill="none" stroke="midnightblue" d="M534.56,-29.72C526.14,-28.67 517.59,-27.61 509.24,-26.57"/>
<polygon fill="midnightblue" stroke="midnightblue" points="534.4,-33.23 544.76,-30.99 535.27,-26.28 534.4,-33.23"/>
</g>
<!-- Node3 -->
<g id="node3" class="node">
<title>Node3</title>
<g id="a_node3"><a xlink:href="../../d9/dc6/class_main_window.html#a996c5a2b6f77944776856f08ec30858d" target="_top" xlink:title=" ">
<polygon fill="white" stroke="black" points="0,-30 0,-49 135,-49 135,-30 0,-30"/>
<text text-anchor="middle" x="67.5" y="-37" font-family="Helvetica,sans-Serif" font-size="10.00">MainWindow::MainWindow</text>
</a>
</g>
</g>
<!-- Node2&#45;&gt;Node3 -->
<g id="edge2" class="edge">
<title>Node2&#45;&gt;Node3</title>
<path fill="none" stroke="midnightblue" d="M160.75,-52.38C152.15,-51.18 143.51,-49.98 135.16,-48.81"/>
<polygon fill="midnightblue" stroke="midnightblue" points="160.42,-55.87 170.81,-53.79 161.39,-48.94 160.42,-55.87"/>
</g>
<!-- Node5 -->
<g id="node5" class="node">
<title>Node5</title>
<g id="a_node5"><a xlink:href="../../d9/dc6/class_main_window.html#a33dddfc15db4053f9117728538e7ece4" target="_top" xlink:title="Set up qt specific signal and slots part for enabling user interaction.">
<polygon fill="white" stroke="black" points="181,-0.5 181,-30.5 316,-30.5 316,-0.5 181,-0.5"/>
<text text-anchor="start" x="189" y="-18.5" font-family="Helvetica,sans-Serif" font-size="10.00">MainWindow::setupSignals</text>
<text text-anchor="middle" x="248.5" y="-7.5" font-family="Helvetica,sans-Serif" font-size="10.00">AndSlots</text>
</a>
</g>
</g>
<!-- Node4&#45;&gt;Node5 -->
<g id="edge4" class="edge">
<title>Node4&#45;&gt;Node5</title>
<path fill="none" stroke="midnightblue" d="M351.57,-16.6C339.71,-16.48 327.64,-16.34 316.15,-16.22"/>
<polygon fill="midnightblue" stroke="midnightblue" points="351.88,-20.11 361.91,-16.72 351.95,-13.11 351.88,-20.11"/>
</g>
<!-- Node5&#45;&gt;Node3 -->
<g id="edge5" class="edge">
<title>Node5&#45;&gt;Node3</title>
<path fill="none" stroke="midnightblue" d="M170.59,-25.81C158.82,-27.39 146.74,-29.01 135.21,-30.56"/>
<polygon fill="midnightblue" stroke="midnightblue" points="171.4,-29.23 180.85,-24.44 170.47,-22.3 171.4,-29.23"/>
</g>
</g>
</svg>
