<?xml version="1.0" encoding="UTF-8" standalone="no"?>
<!DOCTYPE svg PUBLIC "-//W3C//DTD SVG 1.1//EN"
 "http://www.w3.org/Graphics/SVG/1.1/DTD/svg11.dtd">
<!-- Generated by graphviz version 2.44.1 (0)
 -->
<!-- Title: PreferencesDialog::getStereoRenderingGlassesType_comboBox Pages: 1 -->
<svg width="713pt" height="78pt"
 viewBox="0.00 0.00 713.00 77.50" xmlns="http://www.w3.org/2000/svg" xmlns:xlink="http://www.w3.org/1999/xlink">
<g id="graph0" class="graph" transform="scale(1 1) rotate(0) translate(4 73.5)">
<title>PreferencesDialog::getStereoRenderingGlassesType_comboBox</title>
<polygon fill="white" stroke="transparent" points="-4,4 -4,-73.5 709,-73.5 709,4 -4,4"/>
<!-- Node1 -->
<g id="node1" class="node">
<title>Node1</title>
<g id="a_node1"><a xlink:title=" ">
<polygon fill="#bfbfbf" stroke="black" points="545,-11.5 545,-52.5 705,-52.5 705,-11.5 545,-11.5"/>
<text text-anchor="start" x="553" y="-40.5" font-family="Helvetica,sans-Serif" font-size="10.00">PreferencesDialog::</text>
<text text-anchor="start" x="553" y="-29.5" font-family="Helvetica,sans-Serif" font-size="10.00">getStereoRenderingGlassesType</text>
<text text-anchor="middle" x="625" y="-18.5" font-family="Helvetica,sans-Serif" font-size="10.00">_comboBox</text>
</a>
</g>
</g>
<!-- Node2 -->
<g id="node2" class="node">
<title>Node2</title>
<g id="a_node2"><a xlink:href="../../d9/dc6/class_main_window.html#a3ab7dd05c01e3ce4048531127cd597c2" target="_top" xlink:title=" ">
<polygon fill="white" stroke="black" points="352,-39 352,-69 499,-69 499,-39 352,-39"/>
<text text-anchor="start" x="360" y="-57" font-family="Helvetica,sans-Serif" font-size="10.00">MainWindow::slotPreferences</text>
<text text-anchor="middle" x="425.5" y="-46" font-family="Helvetica,sans-Serif" font-size="10.00">Accepted</text>
</a>
</g>
</g>
<!-- Node1&#45;&gt;Node2 -->
<g id="edge1" class="edge">
<title>Node1&#45;&gt;Node2</title>
<path fill="none" stroke="midnightblue" d="M534.52,-41.97C522.73,-43.28 510.77,-44.61 499.31,-45.89"/>
<polygon fill="midnightblue" stroke="midnightblue" points="535.26,-45.41 544.81,-40.82 534.48,-38.45 535.26,-45.41"/>
</g>
<!-- Node5 -->
<g id="node5" class="node">
<title>Node5</title>
<g id="a_node5"><a xlink:href="../../d9/dc6/class_main_window.html#a41f4779f62097aec15c0fd2a951d0c42" target="_top" xlink:title=" ">
<polygon fill="white" stroke="black" points="342,-0.5 342,-19.5 509,-19.5 509,-0.5 342,-0.5"/>
<text text-anchor="middle" x="425.5" y="-7.5" font-family="Helvetica,sans-Serif" font-size="10.00">MainWindow::slotStereoRendering</text>
</a>
</g>
</g>
<!-- Node1&#45;&gt;Node5 -->
<g id="edge4" class="edge">
<title>Node1&#45;&gt;Node5</title>
<path fill="none" stroke="midnightblue" d="M534.86,-22.07C526.34,-21.12 517.72,-20.16 509.26,-19.22"/>
<polygon fill="midnightblue" stroke="midnightblue" points="534.48,-25.55 544.81,-23.18 535.26,-18.59 534.48,-25.55"/>
</g>
<!-- Node3 -->
<g id="node3" class="node">
<title>Node3</title>
<g id="a_node3"><a xlink:href="../../d9/dc6/class_main_window.html#a33dddfc15db4053f9117728538e7ece4" target="_top" xlink:title="Set up qt specific signal and slots part for enabling user interaction.">
<polygon fill="white" stroke="black" points="171,-17 171,-47 306,-47 306,-17 171,-17"/>
<text text-anchor="start" x="179" y="-35" font-family="Helvetica,sans-Serif" font-size="10.00">MainWindow::setupSignals</text>
<text text-anchor="middle" x="238.5" y="-24" font-family="Helvetica,sans-Serif" font-size="10.00">AndSlots</text>
</a>
</g>
</g>
<!-- Node2&#45;&gt;Node3 -->
<g id="edge2" class="edge">
<title>Node2&#45;&gt;Node3</title>
<path fill="none" stroke="midnightblue" d="M341.93,-44.18C329.95,-42.76 317.76,-41.31 306.15,-39.93"/>
<polygon fill="midnightblue" stroke="midnightblue" points="341.57,-47.66 351.91,-45.37 342.4,-40.71 341.57,-47.66"/>
</g>
<!-- Node4 -->
<g id="node4" class="node">
<title>Node4</title>
<g id="a_node4"><a xlink:href="../../d9/dc6/class_main_window.html#a996c5a2b6f77944776856f08ec30858d" target="_top" xlink:title=" ">
<polygon fill="white" stroke="black" points="0,-22.5 0,-41.5 135,-41.5 135,-22.5 0,-22.5"/>
<text text-anchor="middle" x="67.5" y="-29.5" font-family="Helvetica,sans-Serif" font-size="10.00">MainWindow::MainWindow</text>
</a>
</g>
</g>
<!-- Node3&#45;&gt;Node4 -->
<g id="edge3" class="edge">
<title>Node3&#45;&gt;Node4</title>
<path fill="none" stroke="midnightblue" d="M160.45,-32C151.98,-32 143.41,-32 135.08,-32"/>
<polygon fill="midnightblue" stroke="midnightblue" points="160.71,-35.5 170.71,-32 160.71,-28.5 160.71,-35.5"/>
</g>
<!-- Node5&#45;&gt;Node3 -->
<g id="edge5" class="edge">
<title>Node5&#45;&gt;Node3</title>
<path fill="none" stroke="midnightblue" d="M334.49,-20.7C324.92,-21.84 315.32,-22.98 306.09,-24.08"/>
<polygon fill="midnightblue" stroke="midnightblue" points="334.92,-24.18 344.43,-19.52 334.09,-17.23 334.92,-24.18"/>
</g>
</g>
</svg>
