<?xml version="1.0" encoding="UTF-8" standalone="no"?>
<!DOCTYPE svg PUBLIC "-//W3C//DTD SVG 1.1//EN"
 "http://www.w3.org/Graphics/SVG/1.1/DTD/svg11.dtd">
<!-- Generated by graphviz version 2.44.0 (0)
 -->
<!-- Title: pretty_print::detail::sfinae_base Pages: 1 -->
<svg width="264pt" height="226pt"
 viewBox="0.00 0.00 263.50 226.00" xmlns="http://www.w3.org/2000/svg" xmlns:xlink="http://www.w3.org/1999/xlink">
<g id="graph0" class="graph" transform="scale(1 1) rotate(0) translate(4 222)">
<title>pretty_print::detail::sfinae_base</title>
<polygon fill="white" stroke="transparent" points="-4,4 -4,-222 259.5,-222 259.5,4 -4,4"/>
<!-- Node1 -->
<g id="node1" class="node">
<title>Node1</title>
<g id="a_node1"><a xlink:title=" ">
<polygon fill="#bfbfbf" stroke="black" points="76,-149.5 76,-217.5 171,-217.5 171,-149.5 76,-149.5"/>
<text text-anchor="start" x="84" y="-205.5" font-family="Helvetica,sans-Serif" font-size="10.00">pretty_print::detail</text>
<text text-anchor="middle" x="123.5" y="-194.5" font-family="Helvetica,sans-Serif" font-size="10.00">::sfinae_base</text>
<polyline fill="none" stroke="black" points="76,-187.5 171,-187.5 "/>
<text text-anchor="middle" x="123.5" y="-175.5" font-family="Helvetica,sans-Serif" font-size="10.00"> </text>
<polyline fill="none" stroke="black" points="76,-168.5 171,-168.5 "/>
<text text-anchor="middle" x="123.5" y="-156.5" font-family="Helvetica,sans-Serif" font-size="10.00"> </text>
</a>
</g>
</g>
<!-- Node2 -->
<g id="node2" class="node">
<title>Node2</title>
<g id="a_node2"><a xlink:href="../../d3/d01/structpretty__print_1_1detail_1_1has__begin__end.html" target="_top" xlink:title=" ">
<polygon fill="white" stroke="black" points="0,-0.5 0,-112.5 111,-112.5 111,-0.5 0,-0.5"/>
<text text-anchor="start" x="8" y="-100.5" font-family="Helvetica,sans-Serif" font-size="10.00">pretty_print::detail</text>
<text text-anchor="middle" x="55.5" y="-89.5" font-family="Helvetica,sans-Serif" font-size="10.00">::has_begin_end&lt; T &gt;</text>
<polyline fill="none" stroke="black" points="0,-82.5 111,-82.5 "/>
<text text-anchor="start" x="8" y="-70.5" font-family="Helvetica,sans-Serif" font-size="10.00">+ beg_value</text>
<text text-anchor="start" x="8" y="-59.5" font-family="Helvetica,sans-Serif" font-size="10.00">+ end_value</text>
<polyline fill="none" stroke="black" points="0,-52.5 111,-52.5 "/>
<text text-anchor="start" x="8" y="-40.5" font-family="Helvetica,sans-Serif" font-size="10.00">&#45; f()</text>
<text text-anchor="start" x="8" y="-29.5" font-family="Helvetica,sans-Serif" font-size="10.00">&#45; f()</text>
<text text-anchor="start" x="8" y="-18.5" font-family="Helvetica,sans-Serif" font-size="10.00">&#45; g()</text>
<text text-anchor="start" x="8" y="-7.5" font-family="Helvetica,sans-Serif" font-size="10.00">&#45; g()</text>
</a>
</g>
</g>
<!-- Node1&#45;&gt;Node2 -->
<g id="edge1" class="edge">
<title>Node1&#45;&gt;Node2</title>
<path fill="none" stroke="#8b1a1a" d="M100.55,-140.31C95.7,-131.41 90.53,-121.88 85.47,-112.59"/>
<polygon fill="none" stroke="#8b1a1a" points="97.6,-142.22 105.46,-149.33 103.75,-138.87 97.6,-142.22"/>
</g>
<!-- Node3 -->
<g id="node3" class="node">
<title>Node3</title>
<g id="a_node3"><a xlink:href="../../d0/d6b/structpretty__print_1_1detail_1_1has__const__iterator.html" target="_top" xlink:title=" ">
<polygon fill="white" stroke="black" points="129.5,-17 129.5,-96 255.5,-96 255.5,-17 129.5,-17"/>
<text text-anchor="start" x="137.5" y="-84" font-family="Helvetica,sans-Serif" font-size="10.00">pretty_print::detail</text>
<text text-anchor="middle" x="192.5" y="-73" font-family="Helvetica,sans-Serif" font-size="10.00">::has_const_iterator&lt; T &gt;</text>
<polyline fill="none" stroke="black" points="129.5,-66 255.5,-66 "/>
<text text-anchor="start" x="137.5" y="-54" font-family="Helvetica,sans-Serif" font-size="10.00">+ value</text>
<polyline fill="none" stroke="black" points="129.5,-47 255.5,-47 "/>
<text text-anchor="start" x="137.5" y="-35" font-family="Helvetica,sans-Serif" font-size="10.00">&#45; test()</text>
<text text-anchor="start" x="137.5" y="-24" font-family="Helvetica,sans-Serif" font-size="10.00">&#45; test()</text>
</a>
</g>
</g>
<!-- Node1&#45;&gt;Node3 -->
<g id="edge2" class="edge">
<title>Node1&#45;&gt;Node3</title>
<path fill="none" stroke="#8b1a1a" d="M146.84,-140.22C154.71,-125.96 163.46,-110.12 171.17,-96.15"/>
<polygon fill="none" stroke="#8b1a1a" points="143.58,-138.88 141.81,-149.33 149.71,-142.27 143.58,-138.88"/>
</g>
</g>
</svg>
