<?xml version="1.0" encoding="UTF-8" standalone="no"?>
<!DOCTYPE svg PUBLIC "-//W3C//DTD SVG 1.1//EN"
 "http://www.w3.org/Graphics/SVG/1.1/DTD/svg11.dtd">
<!-- Generated by graphviz version 2.44.1 (0)
 -->
<!-- Title: loopRelaxOriginal Pages: 1 -->
<svg width="665pt" height="294pt"
 viewBox="0.00 0.00 665.00 294.00" xmlns="http://www.w3.org/2000/svg" xmlns:xlink="http://www.w3.org/1999/xlink">
<g id="graph0" class="graph" transform="scale(1 1) rotate(0) translate(4 290)">
<title>loopRelaxOriginal</title>
<polygon fill="white" stroke="transparent" points="-4,4 -4,-290 661,-290 661,4 -4,4"/>
<!-- Node1 -->
<g id="node1" class="node">
<title>Node1</title>
<g id="a_node1"><a xlink:title=" ">
<polygon fill="#bfbfbf" stroke="black" points="0,-152.5 0,-171.5 93,-171.5 93,-152.5 0,-152.5"/>
<text text-anchor="middle" x="46.5" y="-159.5" font-family="Helvetica,sans-Serif" font-size="10.00">loopRelaxOriginal</text>
</a>
</g>
</g>
<!-- Node2 -->
<g id="node2" class="node">
<title>Node2</title>
<g id="a_node2"><a xlink:href="../../d3/d04/class_t___m_e_s_h_1_1_list.html#af3baa55cf02bd943635012a489d6c33a" target="_top" xlink:title="Gets the first node, NULL if empty. &#160;&#160;O(1).">
<polygon fill="white" stroke="black" points="155,-266.5 155,-285.5 261,-285.5 261,-266.5 155,-266.5"/>
<text text-anchor="middle" x="208" y="-273.5" font-family="Helvetica,sans-Serif" font-size="10.00">T_MESH::List::head</text>
</a>
</g>
</g>
<!-- Node1&#45;&gt;Node2 -->
<g id="edge1" class="edge">
<title>Node1&#45;&gt;Node2</title>
<path fill="none" stroke="midnightblue" d="M53.64,-171.7C65.78,-190.1 94.68,-230.16 129,-252 135.97,-256.43 143.81,-260.09 151.76,-263.1"/>
<polygon fill="midnightblue" stroke="midnightblue" points="150.87,-266.5 161.47,-266.45 153.16,-259.88 150.87,-266.5"/>
</g>
<!-- Node3 -->
<g id="node3" class="node">
<title>Node3</title>
<g id="a_node3"><a xlink:href="../../d5/d7f/class_t___m_e_s_h_1_1_vertex.html#ac6001e2789a05af164867f6c1dd934f9" target="_top" xlink:title="TRUE iff vertex is on boundary.">
<polygon fill="white" stroke="black" points="129,-190.5 129,-209.5 287,-209.5 287,-190.5 129,-190.5"/>
<text text-anchor="middle" x="208" y="-197.5" font-family="Helvetica,sans-Serif" font-size="10.00">T_MESH::Vertex::isOnBoundary</text>
</a>
</g>
</g>
<!-- Node1&#45;&gt;Node3 -->
<g id="edge2" class="edge">
<title>Node1&#45;&gt;Node3</title>
<path fill="none" stroke="midnightblue" d="M87.75,-171.59C108.8,-176.6 134.76,-182.79 157.07,-188.11"/>
<polygon fill="midnightblue" stroke="midnightblue" points="156.5,-191.57 167.04,-190.48 158.12,-184.76 156.5,-191.57"/>
</g>
<!-- Node7 -->
<g id="node7" class="node">
<title>Node7</title>
<g id="a_node7"><a xlink:href="../../da/da2/class_t___m_e_s_h_1_1_edge.html#aef981891343c94489f00b060bd654b6c" target="_top" xlink:title="Vertex opposite to &#39;v&#39;. NULL if &#39;v&#39; is not a vertex of the edge.">
<polygon fill="white" stroke="black" points="326.5,-266.5 326.5,-285.5 482.5,-285.5 482.5,-266.5 326.5,-266.5"/>
<text text-anchor="middle" x="404.5" y="-273.5" font-family="Helvetica,sans-Serif" font-size="10.00">T_MESH::Edge::oppositeVertex</text>
</a>
</g>
</g>
<!-- Node1&#45;&gt;Node7 -->
<g id="edge8" class="edge">
<title>Node1&#45;&gt;Node7</title>
<path fill="none" stroke="midnightblue" d="M58.23,-171.69C73.04,-184.53 101.1,-206.96 129,-219 165.1,-234.58 264.95,-253.2 333.72,-264.81"/>
<polygon fill="midnightblue" stroke="midnightblue" points="333.19,-268.27 343.63,-266.47 334.35,-261.37 333.19,-268.27"/>
</g>
<!-- Node8 -->
<g id="node8" class="node">
<title>Node8</title>
<g id="a_node8"><a xlink:href="../../d3/d04/class_t___m_e_s_h_1_1_list.html#af0e61026072f65c9ba882df526acfd2e" target="_top" xlink:title="Gets the number of elements. &#160;&#160;O(1).">
<polygon fill="white" stroke="black" points="346.5,-0.5 346.5,-19.5 462.5,-19.5 462.5,-0.5 346.5,-0.5"/>
<text text-anchor="middle" x="404.5" y="-7.5" font-family="Helvetica,sans-Serif" font-size="10.00">T_MESH::List::numels</text>
</a>
</g>
</g>
<!-- Node1&#45;&gt;Node8 -->
<g id="edge7" class="edge">
<title>Node1&#45;&gt;Node8</title>
<path fill="none" stroke="midnightblue" d="M87.93,-152.49C155.95,-136.48 286.02,-105.79 287,-105 316.04,-81.47 293.94,-52.5 323,-29 327.26,-25.56 332.03,-22.72 337.07,-20.38"/>
<polygon fill="midnightblue" stroke="midnightblue" points="338.38,-23.63 346.39,-16.69 335.8,-17.12 338.38,-23.63"/>
</g>
<!-- Node9 -->
<g id="node9" class="node">
<title>Node9</title>
<g id="a_node9"><a xlink:href="../../d1/d69/subdivision_8cpp.html#a183387e5de9faa45164e386132359159" target="_top" xlink:title=" ">
<polygon fill="white" stroke="black" points="162.5,-76.5 162.5,-95.5 253.5,-95.5 253.5,-76.5 162.5,-76.5"/>
<text text-anchor="middle" x="208" y="-83.5" font-family="Helvetica,sans-Serif" font-size="10.00">subsurfbeta_loop</text>
</a>
</g>
</g>
<!-- Node1&#45;&gt;Node9 -->
<g id="edge9" class="edge">
<title>Node1&#45;&gt;Node9</title>
<path fill="none" stroke="midnightblue" d="M60.15,-152.39C75.66,-140.98 103.1,-121.98 129,-110 138.36,-105.67 148.69,-101.87 158.7,-98.64"/>
<polygon fill="midnightblue" stroke="midnightblue" points="160.02,-101.89 168.54,-95.6 157.96,-95.2 160.02,-101.89"/>
</g>
<!-- Node10 -->
<g id="node10" class="node">
<title>Node10</title>
<g id="a_node10"><a xlink:href="../../d3/d04/class_t___m_e_s_h_1_1_list.html#a700222ddbd4160a36795249926752f79" target="_top" xlink:title="Gets the last node, NULL if empty. &#160;&#160;O(1).">
<polygon fill="white" stroke="black" points="159,-38.5 159,-57.5 257,-57.5 257,-38.5 159,-38.5"/>
<text text-anchor="middle" x="208" y="-45.5" font-family="Helvetica,sans-Serif" font-size="10.00">T_MESH::List::tail</text>
</a>
</g>
</g>
<!-- Node1&#45;&gt;Node10 -->
<g id="edge10" class="edge">
<title>Node1&#45;&gt;Node10</title>
<path fill="none" stroke="midnightblue" d="M52.85,-152.46C64.21,-133.13 92.7,-89.27 129,-67 135.21,-63.19 142.13,-60.15 149.22,-57.71"/>
<polygon fill="midnightblue" stroke="midnightblue" points="150.38,-61.01 158.93,-54.75 148.35,-54.32 150.38,-61.01"/>
</g>
<!-- Node11 -->
<g id="node11" class="node">
<title>Node11</title>
<g id="a_node11"><a xlink:href="../../d5/d7f/class_t___m_e_s_h_1_1_vertex.html#a66b49df1416ddcee6be0e1abe3aadda9" target="_top" xlink:title="List of incident edges.">
<polygon fill="white" stroke="black" points="153,-152.5 153,-171.5 263,-171.5 263,-152.5 153,-152.5"/>
<text text-anchor="middle" x="208" y="-159.5" font-family="Helvetica,sans-Serif" font-size="10.00">T_MESH::Vertex::VE</text>
</a>
</g>
</g>
<!-- Node1&#45;&gt;Node11 -->
<g id="edge11" class="edge">
<title>Node1&#45;&gt;Node11</title>
<path fill="none" stroke="midnightblue" d="M93.21,-162C108.61,-162 126.09,-162 142.65,-162"/>
<polygon fill="midnightblue" stroke="midnightblue" points="142.82,-165.5 152.82,-162 142.82,-158.5 142.82,-165.5"/>
</g>
<!-- Node4 -->
<g id="node4" class="node">
<title>Node4</title>
<g id="a_node4"><a xlink:href="../../da/da2/class_t___m_e_s_h_1_1_edge.html#a96830b6d677fab318268f287682ad151" target="_top" xlink:title="Triangle on the left of the edge when looking from &#39;v&#39;. NULL if &#39;v&#39; is not a vertex of the edge.">
<polygon fill="white" stroke="black" points="334.5,-190.5 334.5,-209.5 474.5,-209.5 474.5,-190.5 334.5,-190.5"/>
<text text-anchor="middle" x="404.5" y="-197.5" font-family="Helvetica,sans-Serif" font-size="10.00">T_MESH::Edge::leftTriangle</text>
</a>
</g>
</g>
<!-- Node3&#45;&gt;Node4 -->
<g id="edge3" class="edge">
<title>Node3&#45;&gt;Node4</title>
<path fill="none" stroke="midnightblue" d="M287.27,-200C299.48,-200 312.1,-200 324.32,-200"/>
<polygon fill="midnightblue" stroke="midnightblue" points="324.48,-203.5 334.48,-200 324.48,-196.5 324.48,-203.5"/>
</g>
<!-- Node5 -->
<g id="node5" class="node">
<title>Node5</title>
<g id="a_node5"><a xlink:href="../../d8/d6e/class_t___m_e_s_h_1_1_triangle.html#a77cc688b97fd6501b5dca8385fce4137" target="_top" xlink:title="Triangle&#39;s edge opposite to &#39;v&#39;. NULL if &#39;v&#39; is not a vertex of the triangle.">
<polygon fill="white" stroke="black" points="323,-228.5 323,-247.5 486,-247.5 486,-228.5 323,-228.5"/>
<text text-anchor="middle" x="404.5" y="-235.5" font-family="Helvetica,sans-Serif" font-size="10.00">T_MESH::Triangle::oppositeEdge</text>
</a>
</g>
</g>
<!-- Node3&#45;&gt;Node5 -->
<g id="edge4" class="edge">
<title>Node3&#45;&gt;Node5</title>
<path fill="none" stroke="midnightblue" d="M257.83,-209.54C284.19,-214.69 316.92,-221.08 344.67,-226.51"/>
<polygon fill="midnightblue" stroke="midnightblue" points="344.16,-229.97 354.65,-228.46 345.51,-223.1 344.16,-229.97"/>
</g>
<!-- Node3&#45;&gt;Node7 -->
<g id="edge6" class="edge">
<title>Node3&#45;&gt;Node7</title>
<path fill="none" stroke="midnightblue" d="M252.11,-209.56C263.87,-213.14 276.3,-217.87 287,-224 305.83,-234.79 303.82,-246.85 323,-257 327.49,-259.37 332.27,-261.46 337.18,-263.28"/>
<polygon fill="midnightblue" stroke="midnightblue" points="336.14,-266.62 346.73,-266.48 338.36,-259.98 336.14,-266.62"/>
</g>
<!-- Node6 -->
<g id="node6" class="node">
<title>Node6</title>
<g id="a_node6"><a xlink:href="../../da/da2/class_t___m_e_s_h_1_1_edge.html#a7d7329ff24b7b6eb2eceee39711dd650" target="_top" xlink:title="TRUE iff &#39;v&#39; is an end&#45;point of the edge.">
<polygon fill="white" stroke="black" points="522,-228.5 522,-247.5 657,-247.5 657,-228.5 522,-228.5"/>
<text text-anchor="middle" x="589.5" y="-235.5" font-family="Helvetica,sans-Serif" font-size="10.00">T_MESH::Edge::hasVertex</text>
</a>
</g>
</g>
<!-- Node5&#45;&gt;Node6 -->
<g id="edge5" class="edge">
<title>Node5&#45;&gt;Node6</title>
<path fill="none" stroke="midnightblue" d="M486.03,-238C494.55,-238 503.2,-238 511.68,-238"/>
<polygon fill="midnightblue" stroke="midnightblue" points="511.92,-241.5 521.92,-238 511.92,-234.5 511.92,-241.5"/>
</g>
<!-- Node11&#45;&gt;Node4 -->
<g id="edge14" class="edge">
<title>Node11&#45;&gt;Node4</title>
<path fill="none" stroke="midnightblue" d="M257.83,-171.54C284.19,-176.69 316.92,-183.08 344.67,-188.51"/>
<polygon fill="midnightblue" stroke="midnightblue" points="344.16,-191.97 354.65,-190.46 345.51,-185.1 344.16,-191.97"/>
</g>
<!-- Node11&#45;&gt;Node5 -->
<g id="edge16" class="edge">
<title>Node11&#45;&gt;Node5</title>
<path fill="none" stroke="midnightblue" d="M263.02,-170.85C271.37,-173.42 279.65,-176.73 287,-181 307.12,-192.67 302.83,-207.4 323,-219 326.89,-221.24 331.02,-223.21 335.29,-224.95"/>
<polygon fill="midnightblue" stroke="midnightblue" points="334.19,-228.28 344.79,-228.4 336.59,-221.7 334.19,-228.28"/>
</g>
<!-- Node11&#45;&gt;Node7 -->
<g id="edge17" class="edge">
<title>Node11&#45;&gt;Node7</title>
<path fill="none" stroke="midnightblue" d="M263.14,-168.52C271.75,-171.36 280.08,-175.37 287,-181 315.98,-204.61 293.94,-233.5 323,-257 325.1,-258.7 327.33,-260.25 329.65,-261.67"/>
<polygon fill="midnightblue" stroke="midnightblue" points="328.53,-265.03 339.02,-266.49 331.73,-258.8 328.53,-265.03"/>
</g>
<!-- Node11&#45;&gt;Node8 -->
<g id="edge15" class="edge">
<title>Node11&#45;&gt;Node8</title>
<path fill="none" stroke="midnightblue" d="M263.08,-152.78C271.9,-149.31 280.32,-144.54 287,-138 323.44,-102.3 285.39,-63.47 323,-29 327.1,-25.24 331.81,-22.18 336.84,-19.7"/>
<polygon fill="midnightblue" stroke="midnightblue" points="338.29,-22.89 346.19,-15.83 335.61,-16.42 338.29,-22.89"/>
</g>
<!-- Node12 -->
<g id="node12" class="node">
<title>Node12</title>
<g id="a_node12"><a xlink:href="../../d3/d04/class_t___m_e_s_h_1_1_list.html#ae601a7e17364ce83f74ffcb6c64971ca" target="_top" xlink:title="Appends a new node storing &#39;d&#39; to the head. &#160;&#160;O(1).">
<polygon fill="white" stroke="black" points="334.5,-152.5 334.5,-171.5 474.5,-171.5 474.5,-152.5 334.5,-152.5"/>
<text text-anchor="middle" x="404.5" y="-159.5" font-family="Helvetica,sans-Serif" font-size="10.00">T_MESH::List::appendHead</text>
</a>
</g>
</g>
<!-- Node11&#45;&gt;Node12 -->
<g id="edge12" class="edge">
<title>Node11&#45;&gt;Node12</title>
<path fill="none" stroke="midnightblue" d="M263.18,-162C282.03,-162 303.58,-162 324.04,-162"/>
<polygon fill="midnightblue" stroke="midnightblue" points="324.3,-165.5 334.3,-162 324.3,-158.5 324.3,-165.5"/>
</g>
<!-- Node13 -->
<g id="node13" class="node">
<title>Node13</title>
<g id="a_node13"><a xlink:href="../../d3/d04/class_t___m_e_s_h_1_1_list.html#a1b14a2838ee3745d5fb413f9e7ecc214" target="_top" xlink:title="Appends a new node storing &#39;d&#39; to the tail. &#160;&#160;O(1).">
<polygon fill="white" stroke="black" points="339,-114.5 339,-133.5 470,-133.5 470,-114.5 339,-114.5"/>
<text text-anchor="middle" x="404.5" y="-121.5" font-family="Helvetica,sans-Serif" font-size="10.00">T_MESH::List::appendTail</text>
</a>
</g>
</g>
<!-- Node11&#45;&gt;Node13 -->
<g id="edge13" class="edge">
<title>Node11&#45;&gt;Node13</title>
<path fill="none" stroke="midnightblue" d="M257.83,-152.46C284.19,-147.31 316.92,-140.92 344.67,-135.49"/>
<polygon fill="midnightblue" stroke="midnightblue" points="345.51,-138.9 354.65,-133.54 344.16,-132.03 345.51,-138.9"/>
</g>
<!-- Node14 -->
<g id="node14" class="node">
<title>Node14</title>
<g id="a_node14"><a xlink:href="../../d3/d04/class_t___m_e_s_h_1_1_list.html#a9701d1b3769b92b7d2a7ed6da895a863" target="_top" xlink:title="Deletes and removes the first node. Returns its data. &#160;&#160;O(1).">
<polygon fill="white" stroke="black" points="342.5,-76.5 342.5,-95.5 466.5,-95.5 466.5,-76.5 342.5,-76.5"/>
<text text-anchor="middle" x="404.5" y="-83.5" font-family="Helvetica,sans-Serif" font-size="10.00">T_MESH::List::popHead</text>
</a>
</g>
</g>
<!-- Node11&#45;&gt;Node14 -->
<g id="edge18" class="edge">
<title>Node11&#45;&gt;Node14</title>
<path fill="none" stroke="midnightblue" d="M252.11,-152.44C263.87,-148.86 276.3,-144.13 287,-138 305.83,-127.21 303.82,-115.15 323,-105 327.49,-102.63 332.27,-100.54 337.18,-98.72"/>
<polygon fill="midnightblue" stroke="midnightblue" points="338.36,-102.02 346.73,-95.52 336.14,-95.38 338.36,-102.02"/>
</g>
<!-- Node16 -->
<g id="node16" class="node">
<title>Node16</title>
<g id="a_node16"><a xlink:href="../../da/da2/class_t___m_e_s_h_1_1_edge.html#aa9788a51d590116555c8a062e253a197" target="_top" xlink:title="Triangle on the right of the edge when looking from &#39;v&#39;. NULL if &#39;v&#39; is not a vertex of the edge.">
<polygon fill="white" stroke="black" points="332,-38.5 332,-57.5 477,-57.5 477,-38.5 332,-38.5"/>
<text text-anchor="middle" x="404.5" y="-45.5" font-family="Helvetica,sans-Serif" font-size="10.00">T_MESH::Edge::rightTriangle</text>
</a>
</g>
</g>
<!-- Node11&#45;&gt;Node16 -->
<g id="edge20" class="edge">
<title>Node11&#45;&gt;Node16</title>
<path fill="none" stroke="midnightblue" d="M261.09,-152.37C270.41,-148.94 279.52,-144.3 287,-138 314.06,-115.21 295.19,-88.88 323,-67 325.2,-65.27 327.53,-63.69 329.96,-62.26"/>
<polygon fill="midnightblue" stroke="midnightblue" points="331.77,-65.26 339.13,-57.64 328.62,-59.01 331.77,-65.26"/>
</g>
<!-- Node15 -->
<g id="node15" class="node">
<title>Node15</title>
<g id="a_node15"><a xlink:href="../../d3/d04/class_t___m_e_s_h_1_1_list.html#aec091d7c66b66c92fe56f06f41f448f4" target="_top" xlink:title="Deletes and removes the node &#39;n&#39; from the list. &#160;&#160;O(1).">
<polygon fill="white" stroke="black" points="522.5,-76.5 522.5,-95.5 656.5,-95.5 656.5,-76.5 522.5,-76.5"/>
<text text-anchor="middle" x="589.5" y="-83.5" font-family="Helvetica,sans-Serif" font-size="10.00">T_MESH::List::removeCell</text>
</a>
</g>
</g>
<!-- Node14&#45;&gt;Node15 -->
<g id="edge19" class="edge">
<title>Node14&#45;&gt;Node15</title>
<path fill="none" stroke="midnightblue" d="M466.69,-86C481.21,-86 496.88,-86 511.99,-86"/>
<polygon fill="midnightblue" stroke="midnightblue" points="512.34,-89.5 522.34,-86 512.34,-82.5 512.34,-89.5"/>
</g>
</g>
</svg>
