<?xml version="1.0" encoding="UTF-8" standalone="no"?>
<!DOCTYPE svg PUBLIC "-//W3C//DTD SVG 1.1//EN"
 "http://www.w3.org/Graphics/SVG/1.1/DTD/svg11.dtd">
<!-- Generated by graphviz version 2.44.1 (0)
 -->
<!-- Title: marchIntersections.cpp Pages: 1 -->
<svg width="563pt" height="509pt"
 viewBox="0.00 0.00 563.00 509.00" xmlns="http://www.w3.org/2000/svg" xmlns:xlink="http://www.w3.org/1999/xlink">
<g id="graph0" class="graph" transform="scale(1 1) rotate(0) translate(4 505)">
<title>marchIntersections.cpp</title>
<polygon fill="white" stroke="transparent" points="-4,4 -4,-505 559,-505 559,4 -4,4"/>
<!-- Node1 -->
<g id="node1" class="node">
<title>Node1</title>
<g id="a_node1"><a xlink:title=" ">
<polygon fill="#bfbfbf" stroke="black" points="305,-481.5 305,-500.5 424,-500.5 424,-481.5 305,-481.5"/>
<text text-anchor="middle" x="364.5" y="-488.5" font-family="Helvetica,sans-Serif" font-size="10.00">marchIntersections.cpp</text>
</a>
</g>
</g>
<!-- Node2 -->
<g id="node2" class="node">
<title>Node2</title>
<g id="a_node2"><a xlink:href="../../d3/d1d/march_intersections_8h.html" target="_top" xlink:title=" ">
<polygon fill="white" stroke="black" points="307,-414.5 307,-444.5 422,-444.5 422,-414.5 307,-414.5"/>
<text text-anchor="start" x="315" y="-432.5" font-family="Helvetica,sans-Serif" font-size="10.00">helpers/include/TMesh</text>
<text text-anchor="middle" x="364.5" y="-421.5" font-family="Helvetica,sans-Serif" font-size="10.00">/marchIntersections.h</text>
</a>
</g>
</g>
<!-- Node1&#45;&gt;Node2 -->
<g id="edge1" class="edge">
<title>Node1&#45;&gt;Node2</title>
<path fill="none" stroke="midnightblue" d="M364.5,-481.48C364.5,-474.47 364.5,-464.19 364.5,-454.7"/>
<polygon fill="midnightblue" stroke="midnightblue" points="368,-454.52 364.5,-444.52 361,-454.52 368,-454.52"/>
</g>
<!-- Node3 -->
<g id="node3" class="node">
<title>Node3</title>
<g id="a_node3"><a xlink:href="../../d3/d0f/tmesh_8h.html" target="_top" xlink:title=" ">
<polygon fill="white" stroke="black" points="338.5,-358.5 338.5,-377.5 390.5,-377.5 390.5,-358.5 338.5,-358.5"/>
<text text-anchor="middle" x="364.5" y="-365.5" font-family="Helvetica,sans-Serif" font-size="10.00">tmesh.h</text>
</a>
</g>
</g>
<!-- Node2&#45;&gt;Node3 -->
<g id="edge2" class="edge">
<title>Node2&#45;&gt;Node3</title>
<path fill="none" stroke="midnightblue" d="M364.5,-414.4C364.5,-406.47 364.5,-396.46 364.5,-387.86"/>
<polygon fill="midnightblue" stroke="midnightblue" points="368,-387.66 364.5,-377.66 361,-387.66 368,-387.66"/>
</g>
<!-- Node4 -->
<g id="node4" class="node">
<title>Node4</title>
<g id="a_node4"><a xlink:href="../../d9/dad/tmesh__kernel_8h.html" target="_top" xlink:title=" ">
<polygon fill="white" stroke="black" points="0,-224.5 0,-254.5 113,-254.5 113,-224.5 0,-224.5"/>
<text text-anchor="start" x="8" y="-242.5" font-family="Helvetica,sans-Serif" font-size="10.00">helpers/include/Kernel</text>
<text text-anchor="middle" x="56.5" y="-231.5" font-family="Helvetica,sans-Serif" font-size="10.00">/tmesh_kernel.h</text>
</a>
</g>
</g>
<!-- Node3&#45;&gt;Node4 -->
<g id="edge3" class="edge">
<title>Node3&#45;&gt;Node4</title>
<path fill="none" stroke="midnightblue" d="M338.46,-365.35C297.61,-361.91 216.82,-351.65 155.5,-322 124.81,-307.16 95.41,-280.91 76.74,-262.22"/>
<polygon fill="midnightblue" stroke="midnightblue" points="78.92,-259.43 69.43,-254.72 73.91,-264.32 78.92,-259.43"/>
</g>
<!-- Node16 -->
<g id="node16" class="node">
<title>Node16</title>
<g id="a_node16"><a xlink:href="../../df/d37/vertex_8h.html" target="_top" xlink:title=" ">
<polygon fill="white" stroke="black" points="131,-224.5 131,-254.5 246,-254.5 246,-224.5 131,-224.5"/>
<text text-anchor="start" x="139" y="-242.5" font-family="Helvetica,sans-Serif" font-size="10.00">helpers/include/TMesh</text>
<text text-anchor="middle" x="188.5" y="-231.5" font-family="Helvetica,sans-Serif" font-size="10.00">/vertex.h</text>
</a>
</g>
</g>
<!-- Node3&#45;&gt;Node16 -->
<g id="edge25" class="edge">
<title>Node3&#45;&gt;Node16</title>
<path fill="none" stroke="midnightblue" d="M338.15,-365.02C289.11,-360.72 186.84,-348.7 165.5,-322 152.06,-305.18 161.53,-280.93 172.09,-263.25"/>
<polygon fill="midnightblue" stroke="midnightblue" points="175.13,-264.99 177.6,-254.69 169.25,-261.2 175.13,-264.99"/>
</g>
<!-- Node17 -->
<g id="node17" class="node">
<title>Node17</title>
<g id="a_node17"><a xlink:href="../../db/dc3/edge_8h.html" target="_top" xlink:title=" ">
<polygon fill="white" stroke="black" points="174,-291.5 174,-321.5 289,-321.5 289,-291.5 174,-291.5"/>
<text text-anchor="start" x="182" y="-309.5" font-family="Helvetica,sans-Serif" font-size="10.00">helpers/include/TMesh</text>
<text text-anchor="middle" x="231.5" y="-298.5" font-family="Helvetica,sans-Serif" font-size="10.00">/edge.h</text>
</a>
</g>
</g>
<!-- Node3&#45;&gt;Node17 -->
<g id="edge29" class="edge">
<title>Node3&#45;&gt;Node17</title>
<path fill="none" stroke="midnightblue" d="M345.44,-358.48C326.42,-349.96 296.59,-336.62 272.22,-325.72"/>
<polygon fill="midnightblue" stroke="midnightblue" points="273.4,-322.41 262.85,-321.52 270.54,-328.8 273.4,-322.41"/>
</g>
<!-- Node18 -->
<g id="node18" class="node">
<title>Node18</title>
<g id="a_node18"><a xlink:href="../../dd/d6a/triangle_8h.html" target="_top" xlink:title=" ">
<polygon fill="white" stroke="black" points="307,-291.5 307,-321.5 422,-321.5 422,-291.5 307,-291.5"/>
<text text-anchor="start" x="315" y="-309.5" font-family="Helvetica,sans-Serif" font-size="10.00">helpers/include/TMesh</text>
<text text-anchor="middle" x="364.5" y="-298.5" font-family="Helvetica,sans-Serif" font-size="10.00">/triangle.h</text>
</a>
</g>
</g>
<!-- Node3&#45;&gt;Node18 -->
<g id="edge32" class="edge">
<title>Node3&#45;&gt;Node18</title>
<path fill="none" stroke="midnightblue" d="M359.6,-358.48C358.07,-351.47 357.49,-341.19 357.86,-331.7"/>
<polygon fill="midnightblue" stroke="midnightblue" points="361.36,-331.77 358.67,-321.52 354.38,-331.21 361.36,-331.77"/>
</g>
<!-- Node19 -->
<g id="node19" class="node">
<title>Node19</title>
<g id="a_node19"><a xlink:href="../../d5/dc3/tin_8h.html" target="_top" xlink:title=" ">
<polygon fill="white" stroke="black" points="440,-291.5 440,-321.5 555,-321.5 555,-291.5 440,-291.5"/>
<text text-anchor="start" x="448" y="-309.5" font-family="Helvetica,sans-Serif" font-size="10.00">helpers/include/TMesh</text>
<text text-anchor="middle" x="497.5" y="-298.5" font-family="Helvetica,sans-Serif" font-size="10.00">/tin.h</text>
</a>
</g>
</g>
<!-- Node3&#45;&gt;Node19 -->
<g id="edge34" class="edge">
<title>Node3&#45;&gt;Node19</title>
<path fill="none" stroke="midnightblue" d="M378.66,-358.48C395.9,-349.93 425.45,-336.5 450.84,-325.57"/>
<polygon fill="midnightblue" stroke="midnightblue" points="452.5,-328.67 460.32,-321.52 449.75,-322.23 452.5,-328.67"/>
</g>
<!-- Node5 -->
<g id="node5" class="node">
<title>Node5</title>
<g id="a_node5"><a xlink:href="../../dc/dcc/basics_8h.html" target="_top" xlink:title=" ">
<polygon fill="white" stroke="black" points="226,-112.5 226,-131.5 279,-131.5 279,-112.5 226,-112.5"/>
<text text-anchor="middle" x="252.5" y="-119.5" font-family="Helvetica,sans-Serif" font-size="10.00">basics.h</text>
</a>
</g>
</g>
<!-- Node4&#45;&gt;Node5 -->
<g id="edge4" class="edge">
<title>Node4&#45;&gt;Node5</title>
<path fill="none" stroke="midnightblue" d="M73.65,-224.39C92.49,-209.29 124,-185.19 153.5,-168 175.13,-155.4 200.91,-143.78 220.74,-135.5"/>
<polygon fill="midnightblue" stroke="midnightblue" points="222.31,-138.64 230.24,-131.61 219.66,-132.17 222.31,-138.64"/>
</g>
<!-- Node13 -->
<g id="node13" class="node">
<title>Node13</title>
<g id="a_node13"><a xlink:href="../../da/d23/list_8h.html" target="_top" xlink:title=" ">
<polygon fill="white" stroke="black" points="21.5,-56.5 21.5,-75.5 59.5,-75.5 59.5,-56.5 21.5,-56.5"/>
<text text-anchor="middle" x="40.5" y="-63.5" font-family="Helvetica,sans-Serif" font-size="10.00">list.h</text>
</a>
</g>
</g>
<!-- Node4&#45;&gt;Node13 -->
<g id="edge16" class="edge">
<title>Node4&#45;&gt;Node13</title>
<path fill="none" stroke="midnightblue" d="M55.19,-224.47C52.32,-193.7 45.48,-120.33 42.24,-85.7"/>
<polygon fill="midnightblue" stroke="midnightblue" points="45.71,-85.19 41.3,-75.56 38.74,-85.84 45.71,-85.19"/>
</g>
<!-- Node14 -->
<g id="node14" class="node">
<title>Node14</title>
<g id="a_node14"><a xlink:href="../../d2/d91/point_8h.html" target="_top" xlink:title=" ">
<polygon fill="white" stroke="black" points="162.5,-168.5 162.5,-187.5 208.5,-187.5 208.5,-168.5 162.5,-168.5"/>
<text text-anchor="middle" x="185.5" y="-175.5" font-family="Helvetica,sans-Serif" font-size="10.00">point.h</text>
</a>
</g>
</g>
<!-- Node4&#45;&gt;Node14 -->
<g id="edge18" class="edge">
<title>Node4&#45;&gt;Node14</title>
<path fill="none" stroke="midnightblue" d="M87.07,-224.4C108.43,-214.55 136.72,-201.5 157.48,-191.92"/>
<polygon fill="midnightblue" stroke="midnightblue" points="159.11,-195.02 166.73,-187.66 156.18,-188.67 159.11,-195.02"/>
</g>
<!-- Node15 -->
<g id="node15" class="node">
<title>Node15</title>
<g id="a_node15"><a xlink:href="../../dd/df4/matrix_8h.html" target="_top" xlink:title=" ">
<polygon fill="white" stroke="black" points="143.5,-112.5 143.5,-131.5 195.5,-131.5 195.5,-112.5 143.5,-112.5"/>
<text text-anchor="middle" x="169.5" y="-119.5" font-family="Helvetica,sans-Serif" font-size="10.00">matrix.h</text>
</a>
</g>
</g>
<!-- Node4&#45;&gt;Node15 -->
<g id="edge20" class="edge">
<title>Node4&#45;&gt;Node15</title>
<path fill="none" stroke="midnightblue" d="M58.09,-224.49C60.51,-209.03 66.42,-184.2 80.5,-168 94.39,-152.01 115.34,-141.03 133.41,-133.91"/>
<polygon fill="midnightblue" stroke="midnightblue" points="134.92,-137.09 143.1,-130.36 132.51,-130.52 134.92,-137.09"/>
</g>
<!-- Node6 -->
<g id="node6" class="node">
<title>Node6</title>
<g id="a_node6"><a xlink:title=" ">
<polygon fill="white" stroke="#bfbfbf" points="90.5,-0.5 90.5,-19.5 136.5,-19.5 136.5,-0.5 90.5,-0.5"/>
<text text-anchor="middle" x="113.5" y="-7.5" font-family="Helvetica,sans-Serif" font-size="10.00">stdio.h</text>
</a>
</g>
</g>
<!-- Node5&#45;&gt;Node6 -->
<g id="edge5" class="edge">
<title>Node5&#45;&gt;Node6</title>
<path fill="none" stroke="midnightblue" d="M241.59,-112.37C217.94,-93.65 161.71,-49.15 132.24,-25.83"/>
<polygon fill="midnightblue" stroke="midnightblue" points="134.37,-23.05 124.36,-19.59 130.03,-28.54 134.37,-23.05"/>
</g>
<!-- Node7 -->
<g id="node7" class="node">
<title>Node7</title>
<g id="a_node7"><a xlink:title=" ">
<polygon fill="white" stroke="#bfbfbf" points="294,-0.5 294,-19.5 341,-19.5 341,-0.5 294,-0.5"/>
<text text-anchor="middle" x="317.5" y="-7.5" font-family="Helvetica,sans-Serif" font-size="10.00">math.h</text>
</a>
</g>
</g>
<!-- Node5&#45;&gt;Node7 -->
<g id="edge6" class="edge">
<title>Node5&#45;&gt;Node7</title>
<path fill="none" stroke="midnightblue" d="M272.5,-112.38C286.93,-104.99 305.41,-92.86 314.5,-76 322.12,-61.86 322.2,-43.38 320.77,-29.74"/>
<polygon fill="midnightblue" stroke="midnightblue" points="324.2,-29.03 319.34,-19.62 317.27,-30.01 324.2,-29.03"/>
</g>
<!-- Node8 -->
<g id="node8" class="node">
<title>Node8</title>
<g id="a_node8"><a xlink:title=" ">
<polygon fill="white" stroke="#bfbfbf" points="399.5,-56.5 399.5,-75.5 443.5,-75.5 443.5,-56.5 399.5,-56.5"/>
<text text-anchor="middle" x="421.5" y="-63.5" font-family="Helvetica,sans-Serif" font-size="10.00">time.h</text>
</a>
</g>
</g>
<!-- Node5&#45;&gt;Node8 -->
<g id="edge7" class="edge">
<title>Node5&#45;&gt;Node8</title>
<path fill="none" stroke="midnightblue" d="M279.28,-112.44C309.26,-102.86 357.81,-87.35 389.7,-77.16"/>
<polygon fill="midnightblue" stroke="midnightblue" points="390.96,-80.43 399.42,-74.05 388.83,-73.76 390.96,-80.43"/>
</g>
<!-- Node9 -->
<g id="node9" class="node">
<title>Node9</title>
<g id="a_node9"><a xlink:title=" ">
<polygon fill="white" stroke="#bfbfbf" points="359.5,-0.5 359.5,-19.5 407.5,-19.5 407.5,-0.5 359.5,-0.5"/>
<text text-anchor="middle" x="383.5" y="-7.5" font-family="Helvetica,sans-Serif" font-size="10.00">limits.h</text>
</a>
</g>
</g>
<!-- Node5&#45;&gt;Node9 -->
<g id="edge8" class="edge">
<title>Node5&#45;&gt;Node9</title>
<path fill="none" stroke="midnightblue" d="M271.7,-112.38C288.3,-104.38 312.4,-91.4 330.5,-76 347.06,-61.91 362.33,-42.15 372.18,-28.12"/>
<polygon fill="midnightblue" stroke="midnightblue" points="375.08,-30.08 377.83,-19.85 369.3,-26.13 375.08,-30.08"/>
</g>
<!-- Node10 -->
<g id="node10" class="node">
<title>Node10</title>
<g id="a_node10"><a xlink:title=" ">
<polygon fill="white" stroke="#bfbfbf" points="167.5,-0.5 167.5,-19.5 211.5,-19.5 211.5,-0.5 167.5,-0.5"/>
<text text-anchor="middle" x="189.5" y="-7.5" font-family="Helvetica,sans-Serif" font-size="10.00">float.h</text>
</a>
</g>
</g>
<!-- Node5&#45;&gt;Node10 -->
<g id="edge9" class="edge">
<title>Node5&#45;&gt;Node10</title>
<path fill="none" stroke="midnightblue" d="M245.93,-112.29C239.37,-103.4 229.18,-89.09 221.5,-76 212.46,-60.59 203.6,-42.27 197.51,-29.01"/>
<polygon fill="midnightblue" stroke="midnightblue" points="200.57,-27.29 193.26,-19.62 194.19,-30.17 200.57,-27.29"/>
</g>
<!-- Node11 -->
<g id="node11" class="node">
<title>Node11</title>
<g id="a_node11"><a xlink:href="../../dd/da0/coordinates_8h.html" target="_top" xlink:title=" ">
<polygon fill="white" stroke="black" points="230,-56.5 230,-75.5 305,-75.5 305,-56.5 230,-56.5"/>
<text text-anchor="middle" x="267.5" y="-63.5" font-family="Helvetica,sans-Serif" font-size="10.00">coordinates.h</text>
</a>
</g>
</g>
<!-- Node5&#45;&gt;Node11 -->
<g id="edge10" class="edge">
<title>Node5&#45;&gt;Node11</title>
<path fill="none" stroke="midnightblue" d="M254.98,-112.08C256.99,-104.85 259.89,-94.41 262.39,-85.4"/>
<polygon fill="midnightblue" stroke="midnightblue" points="265.76,-86.32 265.07,-75.75 259.02,-84.45 265.76,-86.32"/>
</g>
<!-- Node11&#45;&gt;Node6 -->
<g id="edge11" class="edge">
<title>Node11&#45;&gt;Node6</title>
<path fill="none" stroke="midnightblue" d="M243.1,-56.44C217,-47.29 175.46,-32.73 146.47,-22.56"/>
<polygon fill="midnightblue" stroke="midnightblue" points="147.37,-19.17 136.78,-19.16 145.06,-25.77 147.37,-19.17"/>
</g>
<!-- Node11&#45;&gt;Node7 -->
<g id="edge12" class="edge">
<title>Node11&#45;&gt;Node7</title>
<path fill="none" stroke="midnightblue" d="M275.76,-56.08C282.96,-48.3 293.61,-36.8 302.35,-27.37"/>
<polygon fill="midnightblue" stroke="midnightblue" points="305.17,-29.47 309.4,-19.75 300.03,-24.71 305.17,-29.47"/>
</g>
<!-- Node11&#45;&gt;Node9 -->
<g id="edge13" class="edge">
<title>Node11&#45;&gt;Node9</title>
<path fill="none" stroke="midnightblue" d="M285.88,-56.44C304.72,-47.68 334.23,-33.94 355.88,-23.86"/>
<polygon fill="midnightblue" stroke="midnightblue" points="357.62,-26.91 365.21,-19.52 354.66,-20.56 357.62,-26.91"/>
</g>
<!-- Node11&#45;&gt;Node10 -->
<g id="edge14" class="edge">
<title>Node11&#45;&gt;Node10</title>
<path fill="none" stroke="midnightblue" d="M254.97,-56.32C242.91,-47.98 224.47,-35.21 210.23,-25.35"/>
<polygon fill="midnightblue" stroke="midnightblue" points="212.22,-22.47 202,-19.65 208.23,-28.22 212.22,-22.47"/>
</g>
<!-- Node12 -->
<g id="node12" class="node">
<title>Node12</title>
<g id="a_node12"><a xlink:title=" ">
<polygon fill="white" stroke="#bfbfbf" points="229.5,-0.5 229.5,-19.5 275.5,-19.5 275.5,-0.5 229.5,-0.5"/>
<text text-anchor="middle" x="252.5" y="-7.5" font-family="Helvetica,sans-Serif" font-size="10.00">cstdint</text>
</a>
</g>
</g>
<!-- Node11&#45;&gt;Node12 -->
<g id="edge15" class="edge">
<title>Node11&#45;&gt;Node12</title>
<path fill="none" stroke="midnightblue" d="M265.02,-56.08C263.01,-48.85 260.11,-38.41 257.61,-29.4"/>
<polygon fill="midnightblue" stroke="midnightblue" points="260.98,-28.45 254.93,-19.75 254.24,-30.32 260.98,-28.45"/>
</g>
<!-- Node13&#45;&gt;Node6 -->
<g id="edge17" class="edge">
<title>Node13&#45;&gt;Node6</title>
<path fill="none" stroke="midnightblue" d="M52.23,-56.32C63.34,-48.11 80.24,-35.6 93.48,-25.81"/>
<polygon fill="midnightblue" stroke="midnightblue" points="95.6,-28.59 101.56,-19.83 91.44,-22.97 95.6,-28.59"/>
</g>
<!-- Node14&#45;&gt;Node5 -->
<g id="edge19" class="edge">
<title>Node14&#45;&gt;Node5</title>
<path fill="none" stroke="midnightblue" d="M196.26,-168.32C206.27,-160.26 221.39,-148.08 233.43,-138.37"/>
<polygon fill="midnightblue" stroke="midnightblue" points="235.95,-140.83 241.54,-131.83 231.56,-135.38 235.95,-140.83"/>
</g>
<!-- Node15&#45;&gt;Node6 -->
<g id="edge21" class="edge">
<title>Node15&#45;&gt;Node6</title>
<path fill="none" stroke="midnightblue" d="M151.11,-112.47C137.4,-105 119.69,-92.71 111.5,-76 104.44,-61.58 105.84,-43.13 108.48,-29.57"/>
<polygon fill="midnightblue" stroke="midnightblue" points="111.96,-30.06 110.83,-19.53 105.14,-28.47 111.96,-30.06"/>
</g>
<!-- Node15&#45;&gt;Node10 -->
<g id="edge22" class="edge">
<title>Node15&#45;&gt;Node10</title>
<path fill="none" stroke="midnightblue" d="M171.07,-112.37C174.3,-94.62 181.74,-53.67 186.12,-29.6"/>
<polygon fill="midnightblue" stroke="midnightblue" points="189.59,-30.06 187.94,-19.59 182.71,-28.8 189.59,-30.06"/>
</g>
<!-- Node15&#45;&gt;Node11 -->
<g id="edge23" class="edge">
<title>Node15&#45;&gt;Node11</title>
<path fill="none" stroke="midnightblue" d="M185.25,-112.32C200.82,-103.74 224.88,-90.49 242.96,-80.52"/>
<polygon fill="midnightblue" stroke="midnightblue" points="244.72,-83.55 251.79,-75.65 241.35,-77.42 244.72,-83.55"/>
</g>
<!-- Node15&#45;&gt;Node13 -->
<g id="edge24" class="edge">
<title>Node15&#45;&gt;Node13</title>
<path fill="none" stroke="midnightblue" d="M149.06,-112.44C127.45,-103.4 93.22,-89.07 68.97,-78.92"/>
<polygon fill="midnightblue" stroke="midnightblue" points="70.16,-75.62 59.58,-74.99 67.46,-82.08 70.16,-75.62"/>
</g>
<!-- Node16&#45;&gt;Node5 -->
<g id="edge26" class="edge">
<title>Node16&#45;&gt;Node5</title>
<path fill="none" stroke="midnightblue" d="M196.73,-224.41C202.59,-214.31 210.62,-200.37 217.5,-188 226.34,-172.11 236.13,-153.88 243.1,-140.77"/>
<polygon fill="midnightblue" stroke="midnightblue" points="246.23,-142.35 247.82,-131.87 240.04,-139.07 246.23,-142.35"/>
</g>
<!-- Node16&#45;&gt;Node13 -->
<g id="edge27" class="edge">
<title>Node16&#45;&gt;Node13</title>
<path fill="none" stroke="midnightblue" d="M176.39,-224.47C149.26,-193.03 83.75,-117.12 54.74,-83.5"/>
<polygon fill="midnightblue" stroke="midnightblue" points="57.07,-80.84 47.89,-75.56 51.77,-85.42 57.07,-80.84"/>
</g>
<!-- Node16&#45;&gt;Node14 -->
<g id="edge28" class="edge">
<title>Node16&#45;&gt;Node14</title>
<path fill="none" stroke="midnightblue" d="M187.79,-224.4C187.39,-216.47 186.88,-206.46 186.45,-197.86"/>
<polygon fill="midnightblue" stroke="midnightblue" points="189.94,-197.47 185.94,-187.66 182.94,-197.82 189.94,-197.47"/>
</g>
<!-- Node17&#45;&gt;Node5 -->
<g id="edge30" class="edge">
<title>Node17&#45;&gt;Node5</title>
<path fill="none" stroke="midnightblue" d="M240.46,-291.1C246,-281.33 252.6,-267.88 255.5,-255 264.42,-215.46 259.58,-167.56 255.74,-141.72"/>
<polygon fill="midnightblue" stroke="midnightblue" points="259.19,-141.11 254.15,-131.79 252.28,-142.22 259.19,-141.11"/>
</g>
<!-- Node17&#45;&gt;Node16 -->
<g id="edge31" class="edge">
<title>Node17&#45;&gt;Node16</title>
<path fill="none" stroke="midnightblue" d="M222.17,-291.4C216.7,-283.13 209.67,-272.51 203.45,-263.1"/>
<polygon fill="midnightblue" stroke="midnightblue" points="206.25,-260.99 197.81,-254.58 200.41,-264.85 206.25,-260.99"/>
</g>
<!-- Node18&#45;&gt;Node3 -->
<g id="edge33" class="edge">
<title>Node18&#45;&gt;Node3</title>
<path fill="none" stroke="midnightblue" d="M370.33,-321.52C371.37,-329.59 371.53,-339.81 370.8,-348.53"/>
<polygon fill="midnightblue" stroke="midnightblue" points="367.33,-348.09 369.4,-358.48 374.26,-349.06 367.33,-348.09"/>
</g>
<!-- Node19&#45;&gt;Node3 -->
<g id="edge35" class="edge">
<title>Node19&#45;&gt;Node3</title>
<path fill="none" stroke="midnightblue" d="M471.98,-321.52C450.85,-331.56 420.86,-344.94 397.85,-354.59"/>
<polygon fill="midnightblue" stroke="midnightblue" points="396.36,-351.42 388.46,-358.48 399.03,-357.89 396.36,-351.42"/>
</g>
</g>
</svg>
