<?xml version="1.0" encoding="UTF-8" standalone="no"?>
<!DOCTYPE svg PUBLIC "-//W3C//DTD SVG 1.1//EN"
 "http://www.w3.org/Graphics/SVG/1.1/DTD/svg11.dtd">
<!-- Generated by graphviz version 2.44.1 (0)
 -->
<!-- Title: T_MESH::di_cell::fork Pages: 1 -->
<svg width="643pt" height="306pt"
 viewBox="0.00 0.00 643.00 306.00" xmlns="http://www.w3.org/2000/svg" xmlns:xlink="http://www.w3.org/1999/xlink">
<g id="graph0" class="graph" transform="scale(1 1) rotate(0) translate(4 302)">
<title>T_MESH::di_cell::fork</title>
<polygon fill="white" stroke="transparent" points="-4,4 -4,-302 639,-302 639,4 -4,4"/>
<!-- Node1 -->
<g id="node1" class="node">
<title>Node1</title>
<g id="a_node1"><a xlink:title=" ">
<polygon fill="#bfbfbf" stroke="black" points="0,-136.5 0,-155.5 113,-155.5 113,-136.5 0,-136.5"/>
<text text-anchor="middle" x="56.5" y="-143.5" font-family="Helvetica,sans-Serif" font-size="10.00">T_MESH::di_cell::fork</text>
</a>
</g>
</g>
<!-- Node2 -->
<g id="node2" class="node">
<title>Node2</title>
<g id="a_node2"><a xlink:href="../../d3/d04/class_t___m_e_s_h_1_1_list.html#ae601a7e17364ce83f74ffcb6c64971ca" target="_top" xlink:title="Appends a new node storing &#39;d&#39; to the head. &#160;&#160;O(1).">
<polygon fill="white" stroke="black" points="150.5,-278.5 150.5,-297.5 290.5,-297.5 290.5,-278.5 150.5,-278.5"/>
<text text-anchor="middle" x="220.5" y="-285.5" font-family="Helvetica,sans-Serif" font-size="10.00">T_MESH::List::appendHead</text>
</a>
</g>
</g>
<!-- Node1&#45;&gt;Node2 -->
<g id="edge1" class="edge">
<title>Node1&#45;&gt;Node2</title>
<path fill="none" stroke="midnightblue" d="M61.9,-155.73C72.97,-179.08 104.32,-238.62 149,-269 151.92,-270.98 155.04,-272.76 158.28,-274.36"/>
<polygon fill="midnightblue" stroke="midnightblue" points="157.09,-277.65 167.66,-278.37 159.84,-271.22 157.09,-277.65"/>
</g>
<!-- Node3 -->
<g id="node3" class="node">
<title>Node3</title>
<g id="a_node3"><a xlink:href="../../d3/d21/class_t___m_e_s_h_1_1di__cell.html#abea88a614e064f25c42c9060f6381bcc" target="_top" xlink:title=" ">
<polygon fill="white" stroke="black" points="158,-240.5 158,-259.5 283,-259.5 283,-240.5 158,-240.5"/>
<text text-anchor="middle" x="220.5" y="-247.5" font-family="Helvetica,sans-Serif" font-size="10.00">T_MESH::di_cell::di_cell</text>
</a>
</g>
</g>
<!-- Node1&#45;&gt;Node3 -->
<g id="edge2" class="edge">
<title>Node1&#45;&gt;Node3</title>
<path fill="none" stroke="midnightblue" d="M65.19,-155.78C79.67,-173.49 112.77,-210.93 149,-231 153.15,-233.3 157.59,-235.33 162.15,-237.12"/>
<polygon fill="midnightblue" stroke="midnightblue" points="161.02,-240.44 171.62,-240.48 163.36,-233.84 161.02,-240.44"/>
</g>
<!-- Node4 -->
<g id="node4" class="node">
<title>Node4</title>
<g id="a_node4"><a xlink:href="../../d3/d04/class_t___m_e_s_h_1_1_list.html#af3baa55cf02bd943635012a489d6c33a" target="_top" xlink:title="Gets the first node, NULL if empty. &#160;&#160;O(1).">
<polygon fill="white" stroke="black" points="167.5,-202.5 167.5,-221.5 273.5,-221.5 273.5,-202.5 167.5,-202.5"/>
<text text-anchor="middle" x="220.5" y="-209.5" font-family="Helvetica,sans-Serif" font-size="10.00">T_MESH::List::head</text>
</a>
</g>
</g>
<!-- Node1&#45;&gt;Node4 -->
<g id="edge3" class="edge">
<title>Node1&#45;&gt;Node4</title>
<path fill="none" stroke="midnightblue" d="M73.55,-155.57C91.45,-165.92 121.52,-182.38 149,-193 155.28,-195.43 161.98,-197.66 168.66,-199.68"/>
<polygon fill="midnightblue" stroke="midnightblue" points="167.81,-203.08 178.39,-202.49 169.75,-196.36 167.81,-203.08"/>
</g>
<!-- Node5 -->
<g id="node5" class="node">
<title>Node5</title>
<g id="a_node5"><a xlink:href="../../d3/d21/class_t___m_e_s_h_1_1di__cell.html#a42cd605dc3adb01c35fbd81ad7a68b3c" target="_top" xlink:title=" ">
<polygon fill="white" stroke="black" points="168.5,-153 168.5,-183 272.5,-183 272.5,-153 168.5,-153"/>
<text text-anchor="start" x="176.5" y="-171" font-family="Helvetica,sans-Serif" font-size="10.00">T_MESH::di_cell::is</text>
<text text-anchor="middle" x="220.5" y="-160" font-family="Helvetica,sans-Serif" font-size="10.00">_triangleBB_in_cell</text>
</a>
</g>
</g>
<!-- Node1&#45;&gt;Node5 -->
<g id="edge4" class="edge">
<title>Node1&#45;&gt;Node5</title>
<path fill="none" stroke="midnightblue" d="M113.25,-153.57C127.75,-155.54 143.45,-157.67 158.22,-159.68"/>
<polygon fill="midnightblue" stroke="midnightblue" points="157.89,-163.17 168.27,-161.04 158.83,-156.23 157.89,-163.17"/>
</g>
<!-- Node10 -->
<g id="node10" class="node">
<title>Node10</title>
<g id="a_node10"><a xlink:href="../../d3/d04/class_t___m_e_s_h_1_1_list.html#a2b525a3a7ad29cf417fdcb6280a7434b" target="_top" xlink:title="Moves node &#39;n&#39; from this list to the end of &#39;l&#39;. &#160;&#160;O(1).">
<polygon fill="white" stroke="black" points="149,-114.5 149,-133.5 292,-133.5 292,-114.5 149,-114.5"/>
<text text-anchor="middle" x="220.5" y="-121.5" font-family="Helvetica,sans-Serif" font-size="10.00">T_MESH::List::moveNodeTo</text>
</a>
</g>
</g>
<!-- Node1&#45;&gt;Node10 -->
<g id="edge11" class="edge">
<title>Node1&#45;&gt;Node10</title>
<path fill="none" stroke="midnightblue" d="M113.25,-138.43C121.7,-137.28 130.55,-136.08 139.39,-134.88"/>
<polygon fill="midnightblue" stroke="midnightblue" points="139.9,-138.34 149.34,-133.53 138.96,-131.41 139.9,-138.34"/>
</g>
<!-- Node11 -->
<g id="node11" class="node">
<title>Node11</title>
<g id="a_node11"><a xlink:href="../../da/d53/class_t___m_e_s_h_1_1_node.html#ae661edb2148691ba90cfe14d73d2545b" target="_top" xlink:title="Returns the next node in the list, possibly NULL.">
<polygon fill="white" stroke="black" points="165,-76.5 165,-95.5 276,-95.5 276,-76.5 165,-76.5"/>
<text text-anchor="middle" x="220.5" y="-83.5" font-family="Helvetica,sans-Serif" font-size="10.00">T_MESH::Node::next</text>
</a>
</g>
</g>
<!-- Node1&#45;&gt;Node11 -->
<g id="edge12" class="edge">
<title>Node1&#45;&gt;Node11</title>
<path fill="none" stroke="midnightblue" d="M76.42,-136.46C94.67,-127.51 123.26,-114.17 149,-105 155.58,-102.66 162.59,-100.44 169.55,-98.41"/>
<polygon fill="midnightblue" stroke="midnightblue" points="170.96,-101.65 179.64,-95.57 169.06,-94.91 170.96,-101.65"/>
</g>
<!-- Node12 -->
<g id="node12" class="node">
<title>Node12</title>
<g id="a_node12"><a xlink:href="../../da/d53/class_t___m_e_s_h_1_1_node.html#aed5d13bba326f240b2058b5a2a28c3c3" target="_top" xlink:title="Returns the previous node in the list, possibly NULL.">
<polygon fill="white" stroke="black" points="165,-38.5 165,-57.5 276,-57.5 276,-38.5 165,-38.5"/>
<text text-anchor="middle" x="220.5" y="-45.5" font-family="Helvetica,sans-Serif" font-size="10.00">T_MESH::Node::prev</text>
</a>
</g>
</g>
<!-- Node1&#45;&gt;Node12 -->
<g id="edge13" class="edge">
<title>Node1&#45;&gt;Node12</title>
<path fill="none" stroke="midnightblue" d="M65.82,-136.42C80.79,-119.79 113.96,-85.59 149,-67 153.26,-64.74 157.8,-62.74 162.46,-60.96"/>
<polygon fill="midnightblue" stroke="midnightblue" points="163.8,-64.19 172.11,-57.62 161.51,-57.58 163.8,-64.19"/>
</g>
<!-- Node13 -->
<g id="node13" class="node">
<title>Node13</title>
<g id="a_node13"><a xlink:href="../../d3/d04/class_t___m_e_s_h_1_1_list.html#a700222ddbd4160a36795249926752f79" target="_top" xlink:title="Gets the last node, NULL if empty. &#160;&#160;O(1).">
<polygon fill="white" stroke="black" points="171.5,-0.5 171.5,-19.5 269.5,-19.5 269.5,-0.5 171.5,-0.5"/>
<text text-anchor="middle" x="220.5" y="-7.5" font-family="Helvetica,sans-Serif" font-size="10.00">T_MESH::List::tail</text>
</a>
</g>
</g>
<!-- Node1&#45;&gt;Node13 -->
<g id="edge14" class="edge">
<title>Node1&#45;&gt;Node13</title>
<path fill="none" stroke="midnightblue" d="M62.2,-136.42C73.71,-113.98 105.58,-57.77 149,-29 153.02,-26.34 157.39,-24.05 161.93,-22.08"/>
<polygon fill="midnightblue" stroke="midnightblue" points="163.33,-25.3 171.43,-18.47 160.84,-18.75 163.33,-25.3"/>
</g>
<!-- Node6 -->
<g id="node6" class="node">
<title>Node6</title>
<g id="a_node6"><a xlink:href="../../d8/d6e/class_t___m_e_s_h_1_1_triangle.html#aa7b9f783f2e4339083f46d25d3eecf68" target="_top" xlink:title="First vertex.">
<polygon fill="white" stroke="black" points="328,-196.5 328,-215.5 442,-215.5 442,-196.5 328,-196.5"/>
<text text-anchor="middle" x="385" y="-203.5" font-family="Helvetica,sans-Serif" font-size="10.00">T_MESH::Triangle::v1</text>
</a>
</g>
</g>
<!-- Node5&#45;&gt;Node6 -->
<g id="edge5" class="edge">
<title>Node5&#45;&gt;Node6</title>
<path fill="none" stroke="midnightblue" d="M272.92,-180.02C292.24,-184.54 314.17,-189.67 333.41,-194.17"/>
<polygon fill="midnightblue" stroke="midnightblue" points="332.67,-197.59 343.2,-196.46 334.26,-190.77 332.67,-197.59"/>
</g>
<!-- Node8 -->
<g id="node8" class="node">
<title>Node8</title>
<g id="a_node8"><a xlink:href="../../d8/d6e/class_t___m_e_s_h_1_1_triangle.html#a1bf6a231440a3c73a931c1cfccfee574" target="_top" xlink:title="Second vertex.">
<polygon fill="white" stroke="black" points="328,-158.5 328,-177.5 442,-177.5 442,-158.5 328,-158.5"/>
<text text-anchor="middle" x="385" y="-165.5" font-family="Helvetica,sans-Serif" font-size="10.00">T_MESH::Triangle::v2</text>
</a>
</g>
</g>
<!-- Node5&#45;&gt;Node8 -->
<g id="edge7" class="edge">
<title>Node5&#45;&gt;Node8</title>
<path fill="none" stroke="midnightblue" d="M272.92,-168C287.12,-168 302.73,-168 317.66,-168"/>
<polygon fill="midnightblue" stroke="midnightblue" points="317.85,-171.5 327.85,-168 317.85,-164.5 317.85,-171.5"/>
</g>
<!-- Node9 -->
<g id="node9" class="node">
<title>Node9</title>
<g id="a_node9"><a xlink:href="../../d8/d6e/class_t___m_e_s_h_1_1_triangle.html#a0c4c2a2ba6b0c975aa3d260f00785e8f" target="_top" xlink:title="Third vertex.">
<polygon fill="white" stroke="black" points="328,-120.5 328,-139.5 442,-139.5 442,-120.5 328,-120.5"/>
<text text-anchor="middle" x="385" y="-127.5" font-family="Helvetica,sans-Serif" font-size="10.00">T_MESH::Triangle::v3</text>
</a>
</g>
</g>
<!-- Node5&#45;&gt;Node9 -->
<g id="edge9" class="edge">
<title>Node5&#45;&gt;Node9</title>
<path fill="none" stroke="midnightblue" d="M272.92,-155.98C292.24,-151.46 314.17,-146.33 333.41,-141.83"/>
<polygon fill="midnightblue" stroke="midnightblue" points="334.26,-145.23 343.2,-139.54 332.67,-138.41 334.26,-145.23"/>
</g>
<!-- Node7 -->
<g id="node7" class="node">
<title>Node7</title>
<g id="a_node7"><a xlink:href="../../da/da2/class_t___m_e_s_h_1_1_edge.html#a560eca8895471f987bd3228b13c40052" target="_top" xlink:title="Vertex shared with edge &#39;b&#39;. NULL if this and &#39;b&#39; do not share any vertex.">
<polygon fill="white" stroke="black" points="478,-158.5 478,-177.5 635,-177.5 635,-158.5 478,-158.5"/>
<text text-anchor="middle" x="556.5" y="-165.5" font-family="Helvetica,sans-Serif" font-size="10.00">T_MESH::Edge::commonVertex</text>
</a>
</g>
</g>
<!-- Node6&#45;&gt;Node7 -->
<g id="edge6" class="edge">
<title>Node6&#45;&gt;Node7</title>
<path fill="none" stroke="midnightblue" d="M428.77,-196.41C451.34,-191.35 479.22,-185.1 503.08,-179.75"/>
<polygon fill="midnightblue" stroke="midnightblue" points="504.04,-183.12 513.04,-177.52 502.51,-176.29 504.04,-183.12"/>
</g>
<!-- Node8&#45;&gt;Node7 -->
<g id="edge8" class="edge">
<title>Node8&#45;&gt;Node7</title>
<path fill="none" stroke="midnightblue" d="M442.44,-168C450.61,-168 459.17,-168 467.78,-168"/>
<polygon fill="midnightblue" stroke="midnightblue" points="467.88,-171.5 477.88,-168 467.88,-164.5 467.88,-171.5"/>
</g>
<!-- Node9&#45;&gt;Node7 -->
<g id="edge10" class="edge">
<title>Node9&#45;&gt;Node7</title>
<path fill="none" stroke="midnightblue" d="M428.77,-139.59C451.34,-144.65 479.22,-150.9 503.08,-156.25"/>
<polygon fill="midnightblue" stroke="midnightblue" points="502.51,-159.71 513.04,-158.48 504.04,-152.88 502.51,-159.71"/>
</g>
</g>
</svg>
