<?xml version="1.0" encoding="UTF-8" standalone="no"?>
<!DOCTYPE svg PUBLIC "-//W3C//DTD SVG 1.1//EN"
 "http://www.w3.org/Graphics/SVG/1.1/DTD/svg11.dtd">
<!-- Generated by graphviz version 2.44.0 (0)
 -->
<!-- Title: multipassvoxelizer.h Pages: 1 -->
<svg width="271pt" height="140pt"
 viewBox="0.00 0.00 270.50 140.00" xmlns="http://www.w3.org/2000/svg" xmlns:xlink="http://www.w3.org/1999/xlink">
<g id="graph0" class="graph" transform="scale(1 1) rotate(0) translate(4 136)">
<title>multipassvoxelizer.h</title>
<polygon fill="white" stroke="transparent" points="-4,4 -4,-136 266.5,-136 266.5,4 -4,4"/>
<!-- Node1 -->
<g id="node1" class="node">
<title>Node1</title>
<g id="a_node1"><a xlink:title="Multipass rasterization based robust voxelizer.">
<polygon fill="#bfbfbf" stroke="black" points="93.5,-112.5 93.5,-131.5 199.5,-131.5 199.5,-112.5 93.5,-112.5"/>
<text text-anchor="middle" x="146.5" y="-119.5" font-family="Helvetica,sans-Serif" font-size="10.00">multipassvoxelizer.h</text>
</a>
</g>
</g>
<!-- Node2 -->
<g id="node2" class="node">
<title>Node2</title>
<g id="a_node2"><a xlink:href="../../d9/d53/mainwindow_8h.html" target="_top" xlink:title="Qt MainWindow of the application.">
<polygon fill="white" stroke="black" points="50.5,-56.5 50.5,-75.5 128.5,-75.5 128.5,-56.5 50.5,-56.5"/>
<text text-anchor="middle" x="89.5" y="-63.5" font-family="Helvetica,sans-Serif" font-size="10.00">mainwindow.h</text>
</a>
</g>
</g>
<!-- Node1&#45;&gt;Node2 -->
<g id="edge1" class="edge">
<title>Node1&#45;&gt;Node2</title>
<path fill="none" stroke="midnightblue" d="M129.88,-105.25C119.77,-95.67 107.22,-83.79 98.82,-75.83"/>
<polygon fill="midnightblue" stroke="midnightblue" points="127.68,-107.99 137.34,-112.32 132.49,-102.91 127.68,-107.99"/>
</g>
<!-- Node5 -->
<g id="node5" class="node">
<title>Node5</title>
<g id="a_node5"><a xlink:href="../../dc/d4e/multipassvoxelizer_8cpp.html" target="_top" xlink:title=" ">
<polygon fill="white" stroke="black" points="146.5,-56.5 146.5,-75.5 262.5,-75.5 262.5,-56.5 146.5,-56.5"/>
<text text-anchor="middle" x="204.5" y="-63.5" font-family="Helvetica,sans-Serif" font-size="10.00">multipassvoxelizer.cpp</text>
</a>
</g>
</g>
<!-- Node1&#45;&gt;Node5 -->
<g id="edge4" class="edge">
<title>Node1&#45;&gt;Node5</title>
<path fill="none" stroke="midnightblue" d="M163.41,-105.25C173.7,-95.67 186.47,-83.79 195.01,-75.83"/>
<polygon fill="midnightblue" stroke="midnightblue" points="160.75,-102.95 155.82,-112.32 165.52,-108.07 160.75,-102.95"/>
</g>
<!-- Node3 -->
<g id="node3" class="node">
<title>Node3</title>
<g id="a_node3"><a xlink:href="../../d8/dd9/mainwindow_8cpp.html" target="_top" xlink:title=" ">
<polygon fill="white" stroke="black" points="0,-0.5 0,-19.5 89,-19.5 89,-0.5 0,-0.5"/>
<text text-anchor="middle" x="44.5" y="-7.5" font-family="Helvetica,sans-Serif" font-size="10.00">mainwindow.cpp</text>
</a>
</g>
</g>
<!-- Node2&#45;&gt;Node3 -->
<g id="edge2" class="edge">
<title>Node2&#45;&gt;Node3</title>
<path fill="none" stroke="midnightblue" d="M75.45,-48.14C67.61,-38.74 58.17,-27.4 51.79,-19.75"/>
<polygon fill="midnightblue" stroke="midnightblue" points="72.98,-50.64 82.07,-56.08 78.36,-46.16 72.98,-50.64"/>
</g>
<!-- Node4 -->
<g id="node4" class="node">
<title>Node4</title>
<g id="a_node4"><a xlink:href="../../df/d0a/main_8cpp.html" target="_top" xlink:title=" ">
<polygon fill="white" stroke="black" points="106.5,-0.5 106.5,-19.5 162.5,-19.5 162.5,-0.5 106.5,-0.5"/>
<text text-anchor="middle" x="134.5" y="-7.5" font-family="Helvetica,sans-Serif" font-size="10.00">main.cpp</text>
</a>
</g>
</g>
<!-- Node2&#45;&gt;Node4 -->
<g id="edge3" class="edge">
<title>Node2&#45;&gt;Node4</title>
<path fill="none" stroke="midnightblue" d="M103.55,-48.14C111.39,-38.74 120.83,-27.4 127.21,-19.75"/>
<polygon fill="midnightblue" stroke="midnightblue" points="100.64,-46.16 96.93,-56.08 106.02,-50.64 100.64,-46.16"/>
</g>
</g>
</svg>
