<?xml version="1.0" encoding="UTF-8" standalone="no"?>
<!DOCTYPE svg PUBLIC "-//W3C//DTD SVG 1.1//EN"
 "http://www.w3.org/Graphics/SVG/1.1/DTD/svg11.dtd">
<!-- Generated by graphviz version 2.44.1 (0)
 -->
<!-- Title: T_MESH::SymMatrix3x3::SymMatrix3x3 Pages: 1 -->
<svg width="296pt" height="137pt"
 viewBox="0.00 0.00 296.00 137.00" xmlns="http://www.w3.org/2000/svg" xmlns:xlink="http://www.w3.org/1999/xlink">
<g id="graph0" class="graph" transform="scale(1 1) rotate(0) translate(4 133)">
<title>T_MESH::SymMatrix3x3::SymMatrix3x3</title>
<polygon fill="white" stroke="transparent" points="-4,4 -4,-133 292,-133 292,4 -4,4"/>
<!-- Node1 -->
<g id="node1" class="node">
<title>Node1</title>
<g id="a_node1"><a xlink:title="Constructs a null matrix.">
<polygon fill="#bfbfbf" stroke="black" points="162,-49.5 162,-79.5 288,-79.5 288,-49.5 162,-49.5"/>
<text text-anchor="start" x="170" y="-67.5" font-family="Helvetica,sans-Serif" font-size="10.00">T_MESH::SymMatrix3x3</text>
<text text-anchor="middle" x="225" y="-56.5" font-family="Helvetica,sans-Serif" font-size="10.00">::SymMatrix3x3</text>
</a>
</g>
</g>
<!-- Node2 -->
<g id="node2" class="node">
<title>Node2</title>
<g id="a_node2"><a xlink:href="../../d2/db5/class_t___m_e_s_h_1_1_sym_matrix3x3.html#a985f85916b9f43f64f7e9e694c6b035e" target="_top" xlink:title="This method is much faster and precise than &#39;diagonalize&#39;, as it uses an analytical direct method ins...">
<polygon fill="white" stroke="black" points="0,-98.5 0,-128.5 126,-128.5 126,-98.5 0,-98.5"/>
<text text-anchor="start" x="8" y="-116.5" font-family="Helvetica,sans-Serif" font-size="10.00">T_MESH::SymMatrix3x3</text>
<text text-anchor="middle" x="63" y="-105.5" font-family="Helvetica,sans-Serif" font-size="10.00">::getMaxEigenvector</text>
</a>
</g>
</g>
<!-- Node1&#45;&gt;Node2 -->
<g id="edge1" class="edge">
<title>Node1&#45;&gt;Node2</title>
<path fill="none" stroke="midnightblue" d="M164.86,-82.61C147.85,-87.82 129.48,-93.45 113.15,-98.45"/>
<polygon fill="midnightblue" stroke="midnightblue" points="166.15,-85.88 174.69,-79.6 164.1,-79.18 166.15,-85.88"/>
</g>
<!-- Node3 -->
<g id="node3" class="node">
<title>Node3</title>
<g id="a_node3"><a xlink:href="../../d2/db5/class_t___m_e_s_h_1_1_sym_matrix3x3.html#ae90724db57724754c3a0ffa66f23140e" target="_top" xlink:title="Returns the product of this matrix with a scalar.">
<polygon fill="white" stroke="black" points="0,-49.5 0,-79.5 126,-79.5 126,-49.5 0,-49.5"/>
<text text-anchor="start" x="8" y="-67.5" font-family="Helvetica,sans-Serif" font-size="10.00">T_MESH::SymMatrix3x3</text>
<text text-anchor="middle" x="63" y="-56.5" font-family="Helvetica,sans-Serif" font-size="10.00">::operator*</text>
</a>
</g>
</g>
<!-- Node1&#45;&gt;Node3 -->
<g id="edge2" class="edge">
<title>Node1&#45;&gt;Node3</title>
<path fill="none" stroke="midnightblue" d="M151.45,-64.5C143,-64.5 134.44,-64.5 126.15,-64.5"/>
<polygon fill="midnightblue" stroke="midnightblue" points="151.68,-68 161.68,-64.5 151.68,-61 151.68,-68"/>
</g>
<!-- Node4 -->
<g id="node4" class="node">
<title>Node4</title>
<g id="a_node4"><a xlink:href="../../d2/db5/class_t___m_e_s_h_1_1_sym_matrix3x3.html#a45c84d9ae3dcf5e5ef3072b0c4f205cc" target="_top" xlink:title="Returns the sum of this and another matrix.">
<polygon fill="white" stroke="black" points="0,-0.5 0,-30.5 126,-30.5 126,-0.5 0,-0.5"/>
<text text-anchor="start" x="8" y="-18.5" font-family="Helvetica,sans-Serif" font-size="10.00">T_MESH::SymMatrix3x3</text>
<text text-anchor="middle" x="63" y="-7.5" font-family="Helvetica,sans-Serif" font-size="10.00">::operator+</text>
</a>
</g>
</g>
<!-- Node1&#45;&gt;Node4 -->
<g id="edge3" class="edge">
<title>Node1&#45;&gt;Node4</title>
<path fill="none" stroke="midnightblue" d="M164.86,-46.39C147.85,-41.18 129.48,-35.55 113.15,-30.55"/>
<polygon fill="midnightblue" stroke="midnightblue" points="164.1,-49.82 174.69,-49.4 166.15,-43.12 164.1,-49.82"/>
</g>
</g>
</svg>
