<?xml version="1.0" encoding="UTF-8" standalone="no"?>
<!DOCTYPE svg PUBLIC "-//W3C//DTD SVG 1.1//EN"
 "http://www.w3.org/Graphics/SVG/1.1/DTD/svg11.dtd">
<!-- Generated by graphviz version 2.44.1 (0)
 -->
<!-- Title: PolylineTouchpointTool::setRectangularTouchpointBounds Pages: 1 -->
<svg width="684pt" height="284pt"
 viewBox="0.00 0.00 684.00 284.00" xmlns="http://www.w3.org/2000/svg" xmlns:xlink="http://www.w3.org/1999/xlink">
<g id="graph0" class="graph" transform="scale(1 1) rotate(0) translate(4 280)">
<title>PolylineTouchpointTool::setRectangularTouchpointBounds</title>
<polygon fill="white" stroke="transparent" points="-4,4 -4,-280 680,-280 680,4 -4,4"/>
<!-- Node1 -->
<g id="node1" class="node">
<title>Node1</title>
<g id="a_node1"><a xlink:title="Set if touchpoint inner surfaces are trimmed to get rectangular bounds.">
<polygon fill="#bfbfbf" stroke="black" points="507,-122.5 507,-152.5 676,-152.5 676,-122.5 507,-122.5"/>
<text text-anchor="start" x="515" y="-140.5" font-family="Helvetica,sans-Serif" font-size="10.00">PolylineTouchpointTool</text>
<text text-anchor="middle" x="591.5" y="-129.5" font-family="Helvetica,sans-Serif" font-size="10.00">::setRectangularTouchpointBounds</text>
</a>
</g>
</g>
<!-- Node2 -->
<g id="node2" class="node">
<title>Node2</title>
<g id="a_node2"><a xlink:href="../../d9/dc6/class_main_window.html#a46a1a75ffe60c12200ebd0567a768159" target="_top" xlink:title=" ">
<polygon fill="white" stroke="black" points="342,-245.5 342,-275.5 471,-275.5 471,-245.5 342,-245.5"/>
<text text-anchor="start" x="350" y="-263.5" font-family="Helvetica,sans-Serif" font-size="10.00">MainWindow::slotPolyline</text>
<text text-anchor="middle" x="406.5" y="-252.5" font-family="Helvetica,sans-Serif" font-size="10.00">ConnectorTool</text>
</a>
</g>
</g>
<!-- Node1&#45;&gt;Node2 -->
<g id="edge1" class="edge">
<title>Node1&#45;&gt;Node2</title>
<path fill="none" stroke="midnightblue" d="M568.08,-160C545.27,-181.9 508.09,-214.94 471,-236.5 465.4,-239.76 459.27,-242.72 453.1,-245.37"/>
<polygon fill="midnightblue" stroke="midnightblue" points="570.8,-162.24 575.53,-152.76 565.92,-157.22 570.8,-162.24"/>
</g>
<!-- Node5 -->
<g id="node5" class="node">
<title>Node5</title>
<g id="a_node5"><a xlink:href="../../d9/dc6/class_main_window.html#a296ec689da73b2de6698e7e383622371" target="_top" xlink:title=" ">
<polygon fill="white" stroke="black" points="342,-196.5 342,-226.5 471,-226.5 471,-196.5 342,-196.5"/>
<text text-anchor="start" x="350" y="-214.5" font-family="Helvetica,sans-Serif" font-size="10.00">MainWindow::slotPolyline</text>
<text text-anchor="middle" x="406.5" y="-203.5" font-family="Helvetica,sans-Serif" font-size="10.00">MagnetTool</text>
</a>
</g>
</g>
<!-- Node1&#45;&gt;Node5 -->
<g id="edge4" class="edge">
<title>Node1&#45;&gt;Node5</title>
<path fill="none" stroke="midnightblue" d="M546.07,-156.52C523.64,-166.02 495.96,-177.57 471,-187.5 463.55,-190.46 455.58,-193.55 447.89,-196.48"/>
<polygon fill="midnightblue" stroke="midnightblue" points="547.5,-159.72 555.34,-152.59 544.76,-153.28 547.5,-159.72"/>
</g>
<!-- Node6 -->
<g id="node6" class="node">
<title>Node6</title>
<g id="a_node6"><a xlink:href="../../d9/dc6/class_main_window.html#a4eab8fa78334db2aa0c712056789b19f" target="_top" xlink:title=" ">
<polygon fill="white" stroke="black" points="342,-147.5 342,-177.5 471,-177.5 471,-147.5 342,-147.5"/>
<text text-anchor="start" x="350" y="-165.5" font-family="Helvetica,sans-Serif" font-size="10.00">MainWindow::slotPolyline</text>
<text text-anchor="middle" x="406.5" y="-154.5" font-family="Helvetica,sans-Serif" font-size="10.00">TouchpointTool</text>
</a>
</g>
</g>
<!-- Node1&#45;&gt;Node6 -->
<g id="edge6" class="edge">
<title>Node1&#45;&gt;Node6</title>
<path fill="none" stroke="midnightblue" d="M496.66,-150.32C488.04,-151.5 479.45,-152.67 471.2,-153.8"/>
<polygon fill="midnightblue" stroke="midnightblue" points="497.33,-153.76 506.77,-148.94 496.38,-146.82 497.33,-153.76"/>
</g>
<!-- Node7 -->
<g id="node7" class="node">
<title>Node7</title>
<g id="a_node7"><a xlink:href="../../d9/dc6/class_main_window.html#a95108f2db71d273570141e858e06fedf" target="_top" xlink:title=" ">
<polygon fill="white" stroke="black" points="342,-98.5 342,-128.5 471,-128.5 471,-98.5 342,-98.5"/>
<text text-anchor="start" x="350" y="-116.5" font-family="Helvetica,sans-Serif" font-size="10.00">MainWindow::slotPolyline</text>
<text text-anchor="middle" x="406.5" y="-105.5" font-family="Helvetica,sans-Serif" font-size="10.00">TrimmedConnectorTool</text>
</a>
</g>
</g>
<!-- Node1&#45;&gt;Node7 -->
<g id="edge8" class="edge">
<title>Node1&#45;&gt;Node7</title>
<path fill="none" stroke="midnightblue" d="M496.66,-125.19C488.04,-124.06 479.45,-122.94 471.2,-121.85"/>
<polygon fill="midnightblue" stroke="midnightblue" points="496.4,-128.69 506.77,-126.52 497.31,-121.75 496.4,-128.69"/>
</g>
<!-- Node8 -->
<g id="node8" class="node">
<title>Node8</title>
<g id="a_node8"><a xlink:href="../../d9/dc6/class_main_window.html#a9e953ac64d60717f52c897ac515f2256" target="_top" xlink:title=" ">
<polygon fill="white" stroke="black" points="342,-49.5 342,-79.5 471,-79.5 471,-49.5 342,-49.5"/>
<text text-anchor="start" x="350" y="-67.5" font-family="Helvetica,sans-Serif" font-size="10.00">MainWindow::slotPolyline</text>
<text text-anchor="middle" x="406.5" y="-56.5" font-family="Helvetica,sans-Serif" font-size="10.00">TrimmedMagnetTool</text>
</a>
</g>
</g>
<!-- Node1&#45;&gt;Node8 -->
<g id="edge10" class="edge">
<title>Node1&#45;&gt;Node8</title>
<path fill="none" stroke="midnightblue" d="M543.66,-118.6C521.63,-109.73 494.98,-99.04 471,-89.5 462.85,-86.26 454.11,-82.8 445.8,-79.53"/>
<polygon fill="midnightblue" stroke="midnightblue" points="542.54,-121.92 553.12,-122.41 545.15,-115.43 542.54,-121.92"/>
</g>
<!-- Node9 -->
<g id="node9" class="node">
<title>Node9</title>
<g id="a_node9"><a xlink:href="../../d9/dc6/class_main_window.html#ab143394637a8a4e70114f9cb087d4330" target="_top" xlink:title=" ">
<polygon fill="white" stroke="black" points="342,-0.5 342,-30.5 471,-30.5 471,-0.5 342,-0.5"/>
<text text-anchor="start" x="350" y="-18.5" font-family="Helvetica,sans-Serif" font-size="10.00">MainWindow::slotPolyline</text>
<text text-anchor="middle" x="406.5" y="-7.5" font-family="Helvetica,sans-Serif" font-size="10.00">TrimmedTouchpointTool</text>
</a>
</g>
</g>
<!-- Node1&#45;&gt;Node9 -->
<g id="edge12" class="edge">
<title>Node1&#45;&gt;Node9</title>
<path fill="none" stroke="midnightblue" d="M567.54,-115.23C544.59,-93.88 507.54,-61.83 471,-40.5 464.76,-36.86 457.89,-33.53 451.04,-30.58"/>
<polygon fill="midnightblue" stroke="midnightblue" points="565.37,-117.99 575.05,-122.3 570.17,-112.9 565.37,-117.99"/>
</g>
<!-- Node3 -->
<g id="node3" class="node">
<title>Node3</title>
<g id="a_node3"><a xlink:href="../../d9/dc6/class_main_window.html#a33dddfc15db4053f9117728538e7ece4" target="_top" xlink:title="Set up qt specific signal and slots part for enabling user interaction.">
<polygon fill="white" stroke="black" points="171,-122.5 171,-152.5 306,-152.5 306,-122.5 171,-122.5"/>
<text text-anchor="start" x="179" y="-140.5" font-family="Helvetica,sans-Serif" font-size="10.00">MainWindow::setupSignals</text>
<text text-anchor="middle" x="238.5" y="-129.5" font-family="Helvetica,sans-Serif" font-size="10.00">AndSlots</text>
</a>
</g>
</g>
<!-- Node2&#45;&gt;Node3 -->
<g id="edge2" class="edge">
<title>Node2&#45;&gt;Node3</title>
<path fill="none" stroke="midnightblue" d="M349.73,-240.97C347.06,-239.56 344.47,-238.07 342,-236.5 304.59,-212.8 269.38,-173.84 251.59,-152.55"/>
<polygon fill="midnightblue" stroke="midnightblue" points="348.47,-244.25 358.99,-245.47 351.53,-237.95 348.47,-244.25"/>
</g>
<!-- Node4 -->
<g id="node4" class="node">
<title>Node4</title>
<g id="a_node4"><a xlink:href="../../d9/dc6/class_main_window.html#a996c5a2b6f77944776856f08ec30858d" target="_top" xlink:title=" ">
<polygon fill="white" stroke="black" points="0,-128 0,-147 135,-147 135,-128 0,-128"/>
<text text-anchor="middle" x="67.5" y="-135" font-family="Helvetica,sans-Serif" font-size="10.00">MainWindow::MainWindow</text>
</a>
</g>
</g>
<!-- Node3&#45;&gt;Node4 -->
<g id="edge3" class="edge">
<title>Node3&#45;&gt;Node4</title>
<path fill="none" stroke="midnightblue" d="M160.45,-137.5C151.98,-137.5 143.41,-137.5 135.08,-137.5"/>
<polygon fill="midnightblue" stroke="midnightblue" points="160.71,-141 170.71,-137.5 160.71,-134 160.71,-141"/>
</g>
<!-- Node5&#45;&gt;Node3 -->
<g id="edge5" class="edge">
<title>Node5&#45;&gt;Node3</title>
<path fill="none" stroke="midnightblue" d="M354.58,-192.73C350.31,-191.01 346.07,-189.26 342,-187.5 316.92,-176.67 289.09,-162.99 268.77,-152.67"/>
<polygon fill="midnightblue" stroke="midnightblue" points="353.36,-196.01 363.95,-196.43 355.93,-189.5 353.36,-196.01"/>
</g>
<!-- Node6&#45;&gt;Node3 -->
<g id="edge7" class="edge">
<title>Node6&#45;&gt;Node3</title>
<path fill="none" stroke="midnightblue" d="M331.81,-151.4C323.24,-150.11 314.53,-148.8 306.06,-147.52"/>
<polygon fill="midnightblue" stroke="midnightblue" points="331.39,-154.88 341.79,-152.91 332.43,-147.96 331.39,-154.88"/>
</g>
<!-- Node7&#45;&gt;Node3 -->
<g id="edge9" class="edge">
<title>Node7&#45;&gt;Node3</title>
<path fill="none" stroke="midnightblue" d="M331.81,-124.15C323.24,-125.39 314.53,-126.65 306.06,-127.88"/>
<polygon fill="midnightblue" stroke="midnightblue" points="332.4,-127.61 341.79,-122.71 331.4,-120.68 332.4,-127.61"/>
</g>
<!-- Node8&#45;&gt;Node3 -->
<g id="edge11" class="edge">
<title>Node8&#45;&gt;Node3</title>
<path fill="none" stroke="midnightblue" d="M356.58,-83.4C351.64,-85.42 346.71,-87.47 342,-89.5 317.63,-99.99 290.46,-112.76 270.22,-122.5"/>
<polygon fill="midnightblue" stroke="midnightblue" points="358.08,-86.57 366.05,-79.59 355.47,-80.08 358.08,-86.57"/>
</g>
<!-- Node9&#45;&gt;Node3 -->
<g id="edge13" class="edge">
<title>Node9&#45;&gt;Node3</title>
<path fill="none" stroke="midnightblue" d="M351.69,-34.95C348.34,-36.69 345.08,-38.54 342,-40.5 305.2,-63.9 270.02,-101.66 252,-122.49"/>
<polygon fill="midnightblue" stroke="midnightblue" points="353.21,-38.1 360.71,-30.61 350.18,-31.8 353.21,-38.1"/>
</g>
</g>
</svg>
