<?xml version="1.0" encoding="UTF-8" standalone="no"?>
<!DOCTYPE svg PUBLIC "-//W3C//DTD SVG 1.1//EN"
 "http://www.w3.org/Graphics/SVG/1.1/DTD/svg11.dtd">
<!-- Generated by graphviz version 2.44.1 (0)
 -->
<!-- Title: PolylineTouchpointTool::execute Pages: 1 -->
<svg width="291pt" height="230pt"
 viewBox="0.00 0.00 291.00 230.00" xmlns="http://www.w3.org/2000/svg" xmlns:xlink="http://www.w3.org/1999/xlink">
<g id="graph0" class="graph" transform="scale(1 1) rotate(0) translate(4 226)">
<title>PolylineTouchpointTool::execute</title>
<polygon fill="white" stroke="transparent" points="-4,4 -4,-226 287,-226 287,4 -4,4"/>
<!-- Node1 -->
<g id="node1" class="node">
<title>Node1</title>
<g id="a_node1"><a xlink:title=" ">
<polygon fill="#bfbfbf" stroke="black" points="0,-102 0,-132 116,-132 116,-102 0,-102"/>
<text text-anchor="start" x="8" y="-120" font-family="Helvetica,sans-Serif" font-size="10.00">PolylineTouchpointTool</text>
<text text-anchor="middle" x="58" y="-109" font-family="Helvetica,sans-Serif" font-size="10.00">::execute</text>
</a>
</g>
</g>
<!-- Node2 -->
<g id="node2" class="node">
<title>Node2</title>
<g id="a_node2"><a xlink:href="../../d6/db5/class_scene.html#a90991eb2b230d4839cde43ee588af34f" target="_top" xlink:title="Return the graphical representation (vtkActor) of the mesh.">
<polygon fill="white" stroke="black" points="162,-202.5 162,-221.5 273,-221.5 273,-202.5 162,-202.5"/>
<text text-anchor="middle" x="217.5" y="-209.5" font-family="Helvetica,sans-Serif" font-size="10.00">Scene::getMeshActor</text>
</a>
</g>
</g>
<!-- Node1&#45;&gt;Node2 -->
<g id="edge1" class="edge">
<title>Node1&#45;&gt;Node2</title>
<path fill="none" stroke="midnightblue" d="M73.74,-132.27C91.01,-149.35 121.21,-176.74 152,-193 156.23,-195.23 160.76,-197.24 165.38,-199.03"/>
<polygon fill="midnightblue" stroke="midnightblue" points="164.34,-202.38 174.93,-202.42 166.68,-195.78 164.34,-202.38"/>
</g>
<!-- Node3 -->
<g id="node3" class="node">
<title>Node3</title>
<g id="a_node3"><a xlink:href="../../d6/db5/class_scene.html#accf5c16477aba3397a083ded76f2c5f5" target="_top" xlink:title="Return the geometric data (vtkPolyData) of the mesh.">
<polygon fill="white" stroke="black" points="153.5,-164.5 153.5,-183.5 281.5,-183.5 281.5,-164.5 153.5,-164.5"/>
<text text-anchor="middle" x="217.5" y="-171.5" font-family="Helvetica,sans-Serif" font-size="10.00">Scene::getMeshPolyData</text>
</a>
</g>
</g>
<!-- Node1&#45;&gt;Node3 -->
<g id="edge2" class="edge">
<title>Node1&#45;&gt;Node3</title>
<path fill="none" stroke="midnightblue" d="M93.57,-132.1C110.94,-139.44 132.41,-148.13 152,-155 158.44,-157.26 165.3,-159.47 172.06,-161.55"/>
<polygon fill="midnightblue" stroke="midnightblue" points="171.23,-164.96 181.82,-164.48 173.25,-158.25 171.23,-164.96"/>
</g>
<!-- Node4 -->
<g id="node4" class="node">
<title>Node4</title>
<g id="a_node4"><a xlink:href="../../d6/db5/class_scene.html#a8bf8e4b441886787dc82c2caa9b25884" target="_top" xlink:title="Return the vtkRenderer of the scene.">
<polygon fill="white" stroke="black" points="165.5,-126.5 165.5,-145.5 269.5,-145.5 269.5,-126.5 165.5,-126.5"/>
<text text-anchor="middle" x="217.5" y="-133.5" font-family="Helvetica,sans-Serif" font-size="10.00">Scene::getRenderer</text>
</a>
</g>
</g>
<!-- Node1&#45;&gt;Node4 -->
<g id="edge3" class="edge">
<title>Node1&#45;&gt;Node4</title>
<path fill="none" stroke="midnightblue" d="M116.31,-123.91C129.01,-125.45 142.51,-127.07 155.36,-128.62"/>
<polygon fill="midnightblue" stroke="midnightblue" points="155.15,-132.12 165.49,-129.85 155.99,-125.17 155.15,-132.12"/>
</g>
<!-- Node5 -->
<g id="node5" class="node">
<title>Node5</title>
<g id="a_node5"><a xlink:href="../../d6/db5/class_scene.html#a180c8577946667c192ae08462fab006a" target="_top" xlink:title="Return the vtk render window of the application.">
<polygon fill="white" stroke="black" points="152,-88.5 152,-107.5 283,-107.5 283,-88.5 152,-88.5"/>
<text text-anchor="middle" x="217.5" y="-95.5" font-family="Helvetica,sans-Serif" font-size="10.00">Scene::getRenderWindow</text>
</a>
</g>
</g>
<!-- Node1&#45;&gt;Node5 -->
<g id="edge4" class="edge">
<title>Node1&#45;&gt;Node5</title>
<path fill="none" stroke="midnightblue" d="M116.31,-110.09C124.59,-109.09 133.21,-108.05 141.77,-107.01"/>
<polygon fill="midnightblue" stroke="midnightblue" points="142.26,-110.48 151.77,-105.81 141.42,-103.53 142.26,-110.48"/>
</g>
<!-- Node6 -->
<g id="node6" class="node">
<title>Node6</title>
<g id="a_node6"><a xlink:href="../../d9/d58/class_touchpoint.html#aabec59cfa02cddb2dab4420b3c056df0" target="_top" xlink:title="Return color value for a given touchpoint type.">
<polygon fill="white" stroke="black" points="152,-39 152,-69 283,-69 283,-39 152,-39"/>
<text text-anchor="start" x="160" y="-57" font-family="Helvetica,sans-Serif" font-size="10.00">Touchpoint::getTouchpoint</text>
<text text-anchor="middle" x="217.5" y="-46" font-family="Helvetica,sans-Serif" font-size="10.00">ColorFromType</text>
</a>
</g>
</g>
<!-- Node1&#45;&gt;Node6 -->
<g id="edge5" class="edge">
<title>Node1&#45;&gt;Node6</title>
<path fill="none" stroke="midnightblue" d="M95.6,-101.87C112.7,-94.84 133.36,-86.42 152,-79 157.09,-76.97 162.42,-74.88 167.73,-72.8"/>
<polygon fill="midnightblue" stroke="midnightblue" points="169.19,-75.98 177.23,-69.09 166.64,-69.46 169.19,-75.98"/>
</g>
<!-- Node7 -->
<g id="node7" class="node">
<title>Node7</title>
<g id="a_node7"><a xlink:href="../../d6/db5/class_scene.html#a519eb93d7083d43d001a9f4285d98763" target="_top" xlink:title="Set the actual contour widget.">
<polygon fill="white" stroke="black" points="153,-0.5 153,-19.5 282,-19.5 282,-0.5 153,-0.5"/>
<text text-anchor="middle" x="217.5" y="-7.5" font-family="Helvetica,sans-Serif" font-size="10.00">Scene::setContourWidget</text>
</a>
</g>
</g>
<!-- Node1&#45;&gt;Node7 -->
<g id="edge6" class="edge">
<title>Node1&#45;&gt;Node7</title>
<path fill="none" stroke="midnightblue" d="M71.27,-101.89C87.73,-82.57 118.74,-49.33 152,-30 156.45,-27.42 161.27,-25.13 166.2,-23.12"/>
<polygon fill="midnightblue" stroke="midnightblue" points="167.59,-26.33 175.75,-19.57 165.15,-19.77 167.59,-26.33"/>
</g>
</g>
</svg>
