<?xml version="1.0" encoding="UTF-8" standalone="no"?>
<!DOCTYPE svg PUBLIC "-//W3C//DTD SVG 1.1//EN"
 "http://www.w3.org/Graphics/SVG/1.1/DTD/svg11.dtd">
<!-- Generated by graphviz version 2.44.0 (0)
 -->
<!-- Title: PolylineTouchpointTool::undo Pages: 1 -->
<svg width="861pt" height="559pt"
 viewBox="0.00 0.00 861.00 559.00" xmlns="http://www.w3.org/2000/svg" xmlns:xlink="http://www.w3.org/1999/xlink">
<g id="graph0" class="graph" transform="scale(1 1) rotate(0) translate(4 555)">
<title>PolylineTouchpointTool::undo</title>
<polygon fill="white" stroke="transparent" points="-4,4 -4,-555 857,-555 857,4 -4,4"/>
<!-- Node1 -->
<g id="node1" class="node">
<title>Node1</title>
<g id="a_node1"><a xlink:title=" ">
<polygon fill="#bfbfbf" stroke="black" points="0,-296 0,-326 116,-326 116,-296 0,-296"/>
<text text-anchor="start" x="8" y="-314" font-family="Helvetica,sans-Serif" font-size="10.00">PolylineTouchpointTool</text>
<text text-anchor="middle" x="58" y="-303" font-family="Helvetica,sans-Serif" font-size="10.00">::undo</text>
</a>
</g>
</g>
<!-- Node2 -->
<g id="node2" class="node">
<title>Node2</title>
<g id="a_node2"><a xlink:href="../../d6/db5/class_scene.html#af1128c48ccb6999066aa1d935075cb23" target="_top" xlink:title="Remove a touchpoint from the scene given its unique touchpoint id.">
<polygon fill="white" stroke="black" points="152,-301.5 152,-320.5 282,-320.5 282,-301.5 152,-301.5"/>
<text text-anchor="middle" x="217" y="-308.5" font-family="Helvetica,sans-Serif" font-size="10.00">Scene::removeTouchpoint</text>
</a>
</g>
</g>
<!-- Node1&#45;&gt;Node2 -->
<g id="edge1" class="edge">
<title>Node1&#45;&gt;Node2</title>
<path fill="none" stroke="midnightblue" d="M116.12,-311C124.44,-311 133.11,-311 141.71,-311"/>
<polygon fill="midnightblue" stroke="midnightblue" points="141.74,-314.5 151.74,-311 141.74,-307.5 141.74,-314.5"/>
</g>
<!-- Node3 -->
<g id="node3" class="node">
<title>Node3</title>
<g id="a_node3"><a xlink:href="../../d9/d58/class_touchpoint.html#a85820150b53ece4c635f7ca5ed189afa" target="_top" xlink:title="Return the graphical representation (vtkActor) of the touchpoint.">
<polygon fill="white" stroke="black" points="340.5,-531.5 340.5,-550.5 447.5,-550.5 447.5,-531.5 340.5,-531.5"/>
<text text-anchor="middle" x="394" y="-538.5" font-family="Helvetica,sans-Serif" font-size="10.00">Touchpoint::getActor</text>
</a>
</g>
</g>
<!-- Node2&#45;&gt;Node3 -->
<g id="edge2" class="edge">
<title>Node2&#45;&gt;Node3</title>
<path fill="none" stroke="midnightblue" d="M219.61,-320.77C225.67,-354.41 250.37,-466.39 318,-522 321.82,-525.14 326.09,-527.77 330.61,-529.97"/>
<polygon fill="midnightblue" stroke="midnightblue" points="329.57,-533.33 340.15,-533.92 332.24,-526.86 329.57,-533.33"/>
</g>
<!-- Node4 -->
<g id="node4" class="node">
<title>Node4</title>
<g id="a_node4"><a xlink:href="../../d9/d58/class_touchpoint.html#a1b683bc69ad347a1fe886aa3161e76b3" target="_top" xlink:title="Return the graphical representation (vtkActor) of the outside wiring entry point.">
<polygon fill="white" stroke="black" points="327.5,-482 327.5,-512 460.5,-512 460.5,-482 327.5,-482"/>
<text text-anchor="start" x="335.5" y="-500" font-family="Helvetica,sans-Serif" font-size="10.00">Touchpoint::getConnection</text>
<text text-anchor="middle" x="394" y="-489" font-family="Helvetica,sans-Serif" font-size="10.00">PointActor</text>
</a>
</g>
</g>
<!-- Node2&#45;&gt;Node4 -->
<g id="edge3" class="edge">
<title>Node2&#45;&gt;Node4</title>
<path fill="none" stroke="midnightblue" d="M221.27,-320.58C231.22,-348.27 263.77,-429.18 318,-472 320.27,-473.79 322.68,-475.46 325.18,-477.01"/>
<polygon fill="midnightblue" stroke="midnightblue" points="323.56,-480.12 334.02,-481.85 326.92,-473.98 323.56,-480.12"/>
</g>
<!-- Node5 -->
<g id="node5" class="node">
<title>Node5</title>
<g id="a_node5"><a xlink:href="../../d9/d58/class_touchpoint.html#ab61727c9bb477bccca373f92a2b8bea4" target="_top" xlink:title="Return the touchpoint number label text actor.">
<polygon fill="white" stroke="black" points="331.5,-443.5 331.5,-462.5 456.5,-462.5 456.5,-443.5 331.5,-443.5"/>
<text text-anchor="middle" x="394" y="-450.5" font-family="Helvetica,sans-Serif" font-size="10.00">Touchpoint::getTextActor</text>
</a>
</g>
</g>
<!-- Node2&#45;&gt;Node5 -->
<g id="edge4" class="edge">
<title>Node2&#45;&gt;Node5</title>
<path fill="none" stroke="midnightblue" d="M223.03,-320.77C235.62,-344.21 270.91,-403.94 318,-434 321.34,-436.13 324.91,-438.03 328.61,-439.71"/>
<polygon fill="midnightblue" stroke="midnightblue" points="327.44,-443.01 338.02,-443.47 330.03,-436.51 327.44,-443.01"/>
</g>
<!-- Node6 -->
<g id="node6" class="node">
<title>Node6</title>
<g id="a_node6"><a xlink:href="../../d6/db5/class_scene.html#a7e5ee53ea01ef113afaaf4b7c10accf3" target="_top" xlink:title="Return the voxel grid image data.">
<polygon fill="white" stroke="black" points="339.5,-405.5 339.5,-424.5 448.5,-424.5 448.5,-405.5 339.5,-405.5"/>
<text text-anchor="middle" x="394" y="-412.5" font-family="Helvetica,sans-Serif" font-size="10.00">Scene::getVoxelData</text>
</a>
</g>
</g>
<!-- Node2&#45;&gt;Node6 -->
<g id="edge5" class="edge">
<title>Node2&#45;&gt;Node6</title>
<path fill="none" stroke="midnightblue" d="M226.34,-320.52C242.31,-338.16 279.12,-375.94 318,-396 322.51,-398.33 327.32,-400.38 332.25,-402.19"/>
<polygon fill="midnightblue" stroke="midnightblue" points="331.22,-405.54 341.82,-405.38 333.44,-398.9 331.22,-405.54"/>
</g>
<!-- Node7 -->
<g id="node7" class="node">
<title>Node7</title>
<g id="a_node7"><a xlink:href="../../d6/db5/class_scene.html#a7caf30a70e69430d5e4ac93d6828a649" target="_top" xlink:title="Return the bounds of the voxel grid.">
<polygon fill="white" stroke="black" points="325.5,-367.5 325.5,-386.5 462.5,-386.5 462.5,-367.5 325.5,-367.5"/>
<text text-anchor="middle" x="394" y="-374.5" font-family="Helvetica,sans-Serif" font-size="10.00">Scene::getVoxelgridBounds</text>
</a>
</g>
</g>
<!-- Node2&#45;&gt;Node7 -->
<g id="edge6" class="edge">
<title>Node2&#45;&gt;Node7</title>
<path fill="none" stroke="midnightblue" d="M235.63,-320.55C255.27,-330.89 288.2,-347.33 318,-358 324.87,-360.46 332.2,-362.73 339.48,-364.78"/>
<polygon fill="midnightblue" stroke="midnightblue" points="338.78,-368.22 349.35,-367.44 340.6,-361.46 338.78,-368.22"/>
</g>
<!-- Node9 -->
<g id="node9" class="node">
<title>Node9</title>
<g id="a_node9"><a xlink:href="../../d9/d58/class_touchpoint.html#ae06d7b971e13790fab04d7f40b5b89ef" target="_top" xlink:title="Set touchpoint actor.">
<polygon fill="white" stroke="black" points="340.5,-279.5 340.5,-298.5 447.5,-298.5 447.5,-279.5 340.5,-279.5"/>
<text text-anchor="middle" x="394" y="-286.5" font-family="Helvetica,sans-Serif" font-size="10.00">Touchpoint::setActor</text>
</a>
</g>
</g>
<!-- Node2&#45;&gt;Node9 -->
<g id="edge8" class="edge">
<title>Node2&#45;&gt;Node9</title>
<path fill="none" stroke="midnightblue" d="M282.17,-302.93C297.85,-300.96 314.62,-298.85 330.23,-296.89"/>
<polygon fill="midnightblue" stroke="midnightblue" points="330.82,-300.34 340.31,-295.62 329.95,-293.4 330.82,-300.34"/>
</g>
<!-- Node10 -->
<g id="node10" class="node">
<title>Node10</title>
<g id="a_node10"><a xlink:href="../../d9/d58/class_touchpoint.html#af3e0979fc1385955c5aae51968555dd3" target="_top" xlink:title="Set the actor of the connection point.">
<polygon fill="white" stroke="black" points="327.5,-230 327.5,-260 460.5,-260 460.5,-230 327.5,-230"/>
<text text-anchor="start" x="335.5" y="-248" font-family="Helvetica,sans-Serif" font-size="10.00">Touchpoint::setConnection</text>
<text text-anchor="middle" x="394" y="-237" font-family="Helvetica,sans-Serif" font-size="10.00">PointActor</text>
</a>
</g>
</g>
<!-- Node2&#45;&gt;Node10 -->
<g id="edge9" class="edge">
<title>Node2&#45;&gt;Node10</title>
<path fill="none" stroke="midnightblue" d="M240.07,-301.45C260.22,-292.85 290.91,-280.06 318,-270 323.91,-267.81 330.12,-265.59 336.32,-263.44"/>
<polygon fill="midnightblue" stroke="midnightblue" points="337.69,-266.67 346.02,-260.12 335.43,-260.05 337.69,-266.67"/>
</g>
<!-- Node11 -->
<g id="node11" class="node">
<title>Node11</title>
<g id="a_node11"><a xlink:href="../../d9/d58/class_touchpoint.html#a20ea5d908fdf70e2698c5f86789e4742" target="_top" xlink:title="Set touchpoint id to given id.">
<polygon fill="white" stroke="black" points="347,-191.5 347,-210.5 441,-210.5 441,-191.5 347,-191.5"/>
<text text-anchor="middle" x="394" y="-198.5" font-family="Helvetica,sans-Serif" font-size="10.00">Touchpoint::setID</text>
</a>
</g>
</g>
<!-- Node2&#45;&gt;Node11 -->
<g id="edge10" class="edge">
<title>Node2&#45;&gt;Node11</title>
<path fill="none" stroke="midnightblue" d="M225.99,-301.23C241.66,-282.73 278.37,-242.48 318,-221 323.97,-217.76 330.5,-215.03 337.13,-212.72"/>
<polygon fill="midnightblue" stroke="midnightblue" points="338.39,-215.99 346.87,-209.63 336.28,-209.32 338.39,-215.99"/>
</g>
<!-- Node12 -->
<g id="node12" class="node">
<title>Node12</title>
<g id="a_node12"><a xlink:href="../../d9/d58/class_touchpoint.html#aa9274369fab341dc277036e07dbfc234" target="_top" xlink:title="Set the polydata of the touchpoint.">
<polygon fill="white" stroke="black" points="332,-153.5 332,-172.5 456,-172.5 456,-153.5 332,-153.5"/>
<text text-anchor="middle" x="394" y="-160.5" font-family="Helvetica,sans-Serif" font-size="10.00">Touchpoint::setPolyData</text>
</a>
</g>
</g>
<!-- Node2&#45;&gt;Node12 -->
<g id="edge11" class="edge">
<title>Node2&#45;&gt;Node12</title>
<path fill="none" stroke="midnightblue" d="M222.54,-301.47C234.51,-277.4 269.4,-213.82 318,-182 321.16,-179.93 324.54,-178.08 328.04,-176.44"/>
<polygon fill="midnightblue" stroke="midnightblue" points="329.62,-179.57 337.55,-172.54 326.97,-173.09 329.62,-179.57"/>
</g>
<!-- Node15 -->
<g id="node15" class="node">
<title>Node15</title>
<g id="a_node15"><a xlink:href="../../d9/d58/class_touchpoint.html#a27645f8861d2ce10dc9bff4e72549539" target="_top" xlink:title="Set text label touchpoint number actor.">
<polygon fill="white" stroke="black" points="331.5,-115.5 331.5,-134.5 456.5,-134.5 456.5,-115.5 331.5,-115.5"/>
<text text-anchor="middle" x="394" y="-122.5" font-family="Helvetica,sans-Serif" font-size="10.00">Touchpoint::setTextActor</text>
</a>
</g>
</g>
<!-- Node2&#45;&gt;Node15 -->
<g id="edge14" class="edge">
<title>Node2&#45;&gt;Node15</title>
<path fill="none" stroke="midnightblue" d="M220.88,-301.28C229.95,-272.41 260.79,-186.56 318,-144 320.51,-142.14 323.17,-140.45 325.96,-138.94"/>
<polygon fill="midnightblue" stroke="midnightblue" points="327.59,-142.03 335.17,-134.62 324.63,-135.69 327.59,-142.03"/>
</g>
<!-- Node16 -->
<g id="node16" class="node">
<title>Node16</title>
<g id="a_node16"><a xlink:href="../../d9/d58/class_touchpoint.html#a550348f9d05c347b5186b6531d583a11" target="_top" xlink:title="Mark voxel grid cells as unoccupied by the touchpoint geometry.">
<polygon fill="white" stroke="black" points="318,-68.5 318,-87.5 470,-87.5 470,-68.5 318,-68.5"/>
<text text-anchor="middle" x="394" y="-75.5" font-family="Helvetica,sans-Serif" font-size="10.00">Touchpoint::unMarkOccupation</text>
</a>
</g>
</g>
<!-- Node2&#45;&gt;Node16 -->
<g id="edge15" class="edge">
<title>Node2&#45;&gt;Node16</title>
<path fill="none" stroke="midnightblue" d="M220.02,-301.31C227.28,-268.92 254.96,-163.23 318,-106 324.65,-99.96 332.73,-95.18 341.09,-91.42"/>
<polygon fill="midnightblue" stroke="midnightblue" points="342.62,-94.58 350.58,-87.59 340,-88.08 342.62,-94.58"/>
</g>
<!-- Node21 -->
<g id="node21" class="node">
<title>Node21</title>
<g id="a_node21"><a xlink:href="../../d6/db5/class_scene.html#a415555bc0037489b1a9421747c318746" target="_top" xlink:title="Update the occupation map visualization after changes to the underlying voxel data.">
<polygon fill="white" stroke="black" points="320,-318 320,-348 468,-348 468,-318 320,-318"/>
<text text-anchor="start" x="328" y="-336" font-family="Helvetica,sans-Serif" font-size="10.00">Scene::updateOccupationMap</text>
<text text-anchor="middle" x="394" y="-325" font-family="Helvetica,sans-Serif" font-size="10.00">Actor</text>
</a>
</g>
</g>
<!-- Node2&#45;&gt;Node21 -->
<g id="edge20" class="edge">
<title>Node2&#45;&gt;Node21</title>
<path fill="none" stroke="midnightblue" d="M282.17,-319.07C291.2,-320.2 300.58,-321.38 309.9,-322.55"/>
<polygon fill="midnightblue" stroke="midnightblue" points="309.6,-326.04 319.96,-323.82 310.48,-319.1 309.6,-326.04"/>
</g>
<!-- Node8 -->
<g id="node8" class="node">
<title>Node8</title>
<g id="a_node8"><a xlink:href="../../d6/db5/class_scene.html#a0799bb0687ffe3a97e0523a4e700ef2d" target="_top" xlink:title="Return the occupation map visualization.">
<polygon fill="white" stroke="black" points="506.5,-456.5 506.5,-475.5 661.5,-475.5 661.5,-456.5 506.5,-456.5"/>
<text text-anchor="middle" x="584" y="-463.5" font-family="Helvetica,sans-Serif" font-size="10.00">Scene::getOccupationMapActor</text>
</a>
</g>
</g>
<!-- Node7&#45;&gt;Node8 -->
<g id="edge7" class="edge">
<title>Node7&#45;&gt;Node8</title>
<path fill="none" stroke="midnightblue" d="M451.4,-386.57C457.98,-389.03 464.35,-392.12 470,-396 492.87,-411.71 483.09,-431.36 506,-447 508.93,-449 512.05,-450.79 515.3,-452.4"/>
<polygon fill="midnightblue" stroke="midnightblue" points="514.14,-455.71 524.71,-456.43 516.9,-449.27 514.14,-455.71"/>
</g>
<!-- Node13 -->
<g id="node13" class="node">
<title>Node13</title>
<g id="a_node13"><a xlink:href="../../d9/d58/class_touchpoint.html#abc86c4002a67fd423b649d597b2055d5" target="_top" xlink:title="Creates the graphical representation (vtkActor) for a touchpoint geometry.">
<polygon fill="white" stroke="black" points="512,-124 512,-154 656,-154 656,-124 512,-124"/>
<text text-anchor="start" x="520" y="-142" font-family="Helvetica,sans-Serif" font-size="10.00">Touchpoint::createTouchpoint</text>
<text text-anchor="middle" x="584" y="-131" font-family="Helvetica,sans-Serif" font-size="10.00">Actor</text>
</a>
</g>
</g>
<!-- Node12&#45;&gt;Node13 -->
<g id="edge12" class="edge">
<title>Node12&#45;&gt;Node13</title>
<path fill="none" stroke="midnightblue" d="M456.04,-155.21C470.64,-153.34 486.45,-151.33 501.8,-149.37"/>
<polygon fill="midnightblue" stroke="midnightblue" points="502.33,-152.83 511.81,-148.09 501.44,-145.88 502.33,-152.83"/>
</g>
<!-- Node14 -->
<g id="node14" class="node">
<title>Node14</title>
<g id="a_node14"><a xlink:href="../../d9/d58/class_touchpoint.html#aabec59cfa02cddb2dab4420b3c056df0" target="_top" xlink:title="Return color value for a given touchpoint type.">
<polygon fill="white" stroke="black" points="710,-127 710,-157 841,-157 841,-127 710,-127"/>
<text text-anchor="start" x="718" y="-145" font-family="Helvetica,sans-Serif" font-size="10.00">Touchpoint::getTouchpoint</text>
<text text-anchor="middle" x="775.5" y="-134" font-family="Helvetica,sans-Serif" font-size="10.00">ColorFromType</text>
</a>
</g>
</g>
<!-- Node13&#45;&gt;Node14 -->
<g id="edge13" class="edge">
<title>Node13&#45;&gt;Node14</title>
<path fill="none" stroke="midnightblue" d="M656.1,-140.13C670.3,-140.35 685.25,-140.59 699.58,-140.81"/>
<polygon fill="midnightblue" stroke="midnightblue" points="699.82,-144.32 709.87,-140.98 699.93,-137.32 699.82,-144.32"/>
</g>
<!-- Node17 -->
<g id="node17" class="node">
<title>Node17</title>
<g id="a_node17"><a xlink:href="../../d9/d58/class_touchpoint.html#a1b82f162b238396efeae6b9369430a87" target="_top" xlink:title="Mark voxel grid cells occupied / unoccupied by the touchpoint geometry.">
<polygon fill="white" stroke="black" points="514.5,-44 514.5,-74 653.5,-74 653.5,-44 514.5,-44"/>
<text text-anchor="start" x="522.5" y="-62" font-family="Helvetica,sans-Serif" font-size="10.00">Touchpoint::markTouchpoint</text>
<text text-anchor="middle" x="584" y="-51" font-family="Helvetica,sans-Serif" font-size="10.00">Cells</text>
</a>
</g>
</g>
<!-- Node16&#45;&gt;Node17 -->
<g id="edge16" class="edge">
<title>Node16&#45;&gt;Node17</title>
<path fill="none" stroke="midnightblue" d="M470.11,-70.41C481.31,-69.28 492.88,-68.11 504.15,-66.97"/>
<polygon fill="midnightblue" stroke="midnightblue" points="504.8,-70.42 514.4,-65.93 504.1,-63.46 504.8,-70.42"/>
</g>
<!-- Node18 -->
<g id="node18" class="node">
<title>Node18</title>
<g id="a_node18"><a xlink:href="../../d1/d7c/namespace_utils.html#ac9b063fc04e0a4e5501c8ed0af96ac47" target="_top" xlink:title="Clamp integer value between min and max.">
<polygon fill="white" stroke="black" points="735.5,-88.5 735.5,-107.5 815.5,-107.5 815.5,-88.5 735.5,-88.5"/>
<text text-anchor="middle" x="775.5" y="-95.5" font-family="Helvetica,sans-Serif" font-size="10.00">Utils::clampInt</text>
</a>
</g>
</g>
<!-- Node17&#45;&gt;Node18 -->
<g id="edge17" class="edge">
<title>Node17&#45;&gt;Node18</title>
<path fill="none" stroke="midnightblue" d="M653.68,-73.14C677.36,-78.01 703.4,-83.37 725.22,-87.86"/>
<polygon fill="midnightblue" stroke="midnightblue" points="724.75,-91.33 735.25,-89.92 726.16,-84.48 724.75,-91.33"/>
</g>
<!-- Node19 -->
<g id="node19" class="node">
<title>Node19</title>
<g id="a_node19"><a xlink:href="../../d9/d58/class_touchpoint.html#a465057d2b000f7fc374d594fb8b80ce6" target="_top" xlink:title="Return the bounds of the touchpoint in world coordinates.">
<polygon fill="white" stroke="black" points="698,-39 698,-69 853,-69 853,-39 698,-39"/>
<text text-anchor="start" x="706" y="-57" font-family="Helvetica,sans-Serif" font-size="10.00">Touchpoint::getWorldCoordinate</text>
<text text-anchor="middle" x="775.5" y="-46" font-family="Helvetica,sans-Serif" font-size="10.00">Bounds</text>
</a>
</g>
</g>
<!-- Node17&#45;&gt;Node19 -->
<g id="edge18" class="edge">
<title>Node17&#45;&gt;Node19</title>
<path fill="none" stroke="midnightblue" d="M653.68,-57.19C664.63,-56.9 676.08,-56.6 687.39,-56.3"/>
<polygon fill="midnightblue" stroke="midnightblue" points="687.81,-59.79 697.71,-56.03 687.62,-52.79 687.81,-59.79"/>
</g>
<!-- Node20 -->
<g id="node20" class="node">
<title>Node20</title>
<g id="a_node20"><a xlink:href="../../d1/d7c/namespace_utils.html#a606fb1eb5072ca20f56293fa71bd8578" target="_top" xlink:title="Compute 1D linearized index from 3D&#45;coodinate index.">
<polygon fill="white" stroke="black" points="747.5,-0.5 747.5,-19.5 803.5,-19.5 803.5,-0.5 747.5,-0.5"/>
<text text-anchor="middle" x="775.5" y="-7.5" font-family="Helvetica,sans-Serif" font-size="10.00">Utils::idx</text>
</a>
</g>
</g>
<!-- Node17&#45;&gt;Node20 -->
<g id="edge19" class="edge">
<title>Node17&#45;&gt;Node20</title>
<path fill="none" stroke="midnightblue" d="M640.99,-43.94C659.16,-39.11 679.42,-33.77 698,-29 710.74,-25.73 724.69,-22.24 737.15,-19.15"/>
<polygon fill="midnightblue" stroke="midnightblue" points="738.34,-22.46 747.21,-16.66 736.66,-15.66 738.34,-22.46"/>
</g>
<!-- Node21&#45;&gt;Node8 -->
<g id="edge24" class="edge">
<title>Node21&#45;&gt;Node8</title>
<path fill="none" stroke="midnightblue" d="M456.17,-348.13C461.19,-350.89 465.9,-354.15 470,-358 501.1,-387.21 473.76,-419.05 506,-447 507.96,-448.7 510.04,-450.25 512.23,-451.66"/>
<polygon fill="midnightblue" stroke="midnightblue" points="510.62,-454.77 521.08,-456.48 513.97,-448.63 510.62,-454.77"/>
</g>
<!-- Node22 -->
<g id="node22" class="node">
<title>Node22</title>
<g id="a_node22"><a xlink:href="../../d6/db5/class_scene.html#aa52192763d5339a0e7803abe296220c9" target="_top" xlink:title="Return the cuberille visualization of the voxel grid data.">
<polygon fill="white" stroke="black" points="521.5,-418.5 521.5,-437.5 646.5,-437.5 646.5,-418.5 521.5,-418.5"/>
<text text-anchor="middle" x="584" y="-425.5" font-family="Helvetica,sans-Serif" font-size="10.00">Scene::getCuberilleActor</text>
</a>
</g>
</g>
<!-- Node21&#45;&gt;Node22 -->
<g id="edge21" class="edge">
<title>Node21&#45;&gt;Node22</title>
<path fill="none" stroke="midnightblue" d="M452.99,-348.09C459.02,-350.88 464.82,-354.15 470,-358 492.27,-374.55 483.09,-393.36 506,-409 508.93,-411 512.05,-412.79 515.3,-414.4"/>
<polygon fill="midnightblue" stroke="midnightblue" points="514.14,-417.71 524.71,-418.43 516.9,-411.27 514.14,-417.71"/>
</g>
<!-- Node23 -->
<g id="node23" class="node">
<title>Node23</title>
<g id="a_node23"><a xlink:href="../../d6/db5/class_scene.html#a7009d25646e9f3a07482091ed2d62e52" target="_top" xlink:title="Return the inner and outer voxels visualization of the voxel grid data.">
<polygon fill="white" stroke="black" points="506,-369 506,-399 662,-399 662,-369 506,-369"/>
<text text-anchor="start" x="514" y="-387" font-family="Helvetica,sans-Serif" font-size="10.00">Scene::getInnerAndOuterVoxels</text>
<text text-anchor="middle" x="584" y="-376" font-family="Helvetica,sans-Serif" font-size="10.00">Actor</text>
</a>
</g>
</g>
<!-- Node21&#45;&gt;Node23 -->
<g id="edge22" class="edge">
<title>Node21&#45;&gt;Node23</title>
<path fill="none" stroke="midnightblue" d="M450.39,-348.03C471.52,-353.76 495.81,-360.35 517.77,-366.31"/>
<polygon fill="midnightblue" stroke="midnightblue" points="517.11,-369.75 527.68,-368.99 518.95,-363 517.11,-369.75"/>
</g>
<!-- Node24 -->
<g id="node24" class="node">
<title>Node24</title>
<g id="a_node24"><a xlink:href="../../d6/db5/class_scene.html#a04c9e871c5edc15ca00d736a9cb6c0d0" target="_top" xlink:title="Return the interior voxels only visualization of the voxel grid data.">
<polygon fill="white" stroke="black" points="522.5,-320 522.5,-350 645.5,-350 645.5,-320 522.5,-320"/>
<text text-anchor="start" x="530.5" y="-338" font-family="Helvetica,sans-Serif" font-size="10.00">Scene::getInteriorVoxels</text>
<text text-anchor="middle" x="584" y="-327" font-family="Helvetica,sans-Serif" font-size="10.00">Actor</text>
</a>
</g>
</g>
<!-- Node21&#45;&gt;Node24 -->
<g id="edge23" class="edge">
<title>Node21&#45;&gt;Node24</title>
<path fill="none" stroke="midnightblue" d="M468.22,-333.78C482.66,-333.93 497.78,-334.09 512.14,-334.25"/>
<polygon fill="midnightblue" stroke="midnightblue" points="512.4,-337.75 522.44,-334.36 512.47,-330.75 512.4,-337.75"/>
</g>
<!-- Node25 -->
<g id="node25" class="node">
<title>Node25</title>
<g id="a_node25"><a xlink:href="../../db/dae/class_voxel_image_visualizer.html#a00b60f629dcc3335bff26934e88b9bcb" target="_top" xlink:title="Return the occupation map visualization (unoccupied = yellow, occupied = blue)">
<polygon fill="white" stroke="black" points="526.5,-271 526.5,-301 641.5,-301 641.5,-271 526.5,-271"/>
<text text-anchor="start" x="534.5" y="-289" font-family="Helvetica,sans-Serif" font-size="10.00">VoxelImageVisualizer</text>
<text text-anchor="middle" x="584" y="-278" font-family="Helvetica,sans-Serif" font-size="10.00">::getOccupationOutput</text>
</a>
</g>
</g>
<!-- Node21&#45;&gt;Node25 -->
<g id="edge25" class="edge">
<title>Node21&#45;&gt;Node25</title>
<path fill="none" stroke="midnightblue" d="M455,-318C474.67,-313.08 496.64,-307.59 516.74,-302.56"/>
<polygon fill="midnightblue" stroke="midnightblue" points="517.59,-305.96 526.45,-300.14 515.9,-299.17 517.59,-305.96"/>
</g>
<!-- Node28 -->
<g id="node28" class="node">
<title>Node28</title>
<g id="a_node28"><a xlink:href="../../db/dae/class_voxel_image_visualizer.html#a15634f5a62fd0d71806741d1db033243" target="_top" xlink:title="Set input data of the visualizer.">
<polygon fill="white" stroke="black" points="529,-222 529,-252 639,-252 639,-222 529,-222"/>
<text text-anchor="start" x="537" y="-240" font-family="Helvetica,sans-Serif" font-size="10.00">VoxelImageVisualizer</text>
<text text-anchor="middle" x="584" y="-229" font-family="Helvetica,sans-Serif" font-size="10.00">::setInputData</text>
</a>
</g>
</g>
<!-- Node21&#45;&gt;Node28 -->
<g id="edge28" class="edge">
<title>Node21&#45;&gt;Node28</title>
<path fill="none" stroke="midnightblue" d="M452.03,-318C458.36,-315.18 464.5,-311.88 470,-308 491.22,-293.04 484.73,-276.88 506,-262 510.21,-259.05 514.79,-256.44 519.55,-254.12"/>
<polygon fill="midnightblue" stroke="midnightblue" points="521.12,-257.26 528.86,-250.02 518.3,-250.85 521.12,-257.26"/>
</g>
<!-- Node29 -->
<g id="node29" class="node">
<title>Node29</title>
<g id="a_node29"><a xlink:href="../../db/dae/class_voxel_image_visualizer.html#a65eec474a368555a6ba16c1f54e956db" target="_top" xlink:title="Set output size of the visualization.">
<polygon fill="white" stroke="black" points="529,-173 529,-203 639,-203 639,-173 529,-173"/>
<text text-anchor="start" x="537" y="-191" font-family="Helvetica,sans-Serif" font-size="10.00">VoxelImageVisualizer</text>
<text text-anchor="middle" x="584" y="-180" font-family="Helvetica,sans-Serif" font-size="10.00">::setOutputSize</text>
</a>
</g>
</g>
<!-- Node21&#45;&gt;Node29 -->
<g id="edge29" class="edge">
<title>Node21&#45;&gt;Node29</title>
<path fill="none" stroke="midnightblue" d="M456.26,-317.97C461.26,-315.19 465.94,-311.9 470,-308 502.57,-276.73 473.31,-244.15 506,-213 510.01,-209.18 514.6,-205.95 519.51,-203.21"/>
<polygon fill="midnightblue" stroke="midnightblue" points="521.15,-206.3 528.63,-198.79 518.1,-200 521.15,-206.3"/>
</g>
<!-- Node26 -->
<g id="node26" class="node">
<title>Node26</title>
<g id="a_node26"><a xlink:href="../../db/dae/class_voxel_image_visualizer.html#a381e70e9dba0cad1fddf946aa7f4a408" target="_top" xlink:title="Compute scaling factor for visualization actor.">
<polygon fill="white" stroke="black" points="720.5,-293 720.5,-323 830.5,-323 830.5,-293 720.5,-293"/>
<text text-anchor="start" x="728.5" y="-311" font-family="Helvetica,sans-Serif" font-size="10.00">VoxelImageVisualizer</text>
<text text-anchor="middle" x="775.5" y="-300" font-family="Helvetica,sans-Serif" font-size="10.00">::getScaleValue</text>
</a>
</g>
</g>
<!-- Node25&#45;&gt;Node26 -->
<g id="edge26" class="edge">
<title>Node25&#45;&gt;Node26</title>
<path fill="none" stroke="midnightblue" d="M641.6,-292.57C663.26,-295.09 688.11,-297.97 710.42,-300.56"/>
<polygon fill="midnightblue" stroke="midnightblue" points="710.13,-304.05 720.47,-301.73 710.94,-297.1 710.13,-304.05"/>
</g>
<!-- Node27 -->
<g id="node27" class="node">
<title>Node27</title>
<g id="a_node27"><a xlink:href="../../db/dae/class_voxel_image_visualizer.html#a2cf2e268d83ea28ea097a557b4e66fcd" target="_top" xlink:title="Compute 1D linearized index from 3D&#45;coodinate index.">
<polygon fill="white" stroke="black" points="711,-254.5 711,-273.5 840,-273.5 840,-254.5 711,-254.5"/>
<text text-anchor="middle" x="775.5" y="-261.5" font-family="Helvetica,sans-Serif" font-size="10.00">VoxelImageVisualizer::idx</text>
</a>
</g>
</g>
<!-- Node25&#45;&gt;Node27 -->
<g id="edge27" class="edge">
<title>Node25&#45;&gt;Node27</title>
<path fill="none" stroke="midnightblue" d="M641.6,-279.43C660.17,-277.27 681.1,-274.84 700.75,-272.56"/>
<polygon fill="midnightblue" stroke="midnightblue" points="701.36,-276.01 710.89,-271.38 700.56,-269.06 701.36,-276.01"/>
</g>
</g>
</svg>
