<?xml version="1.0" encoding="UTF-8" standalone="no"?>
<!DOCTYPE svg PUBLIC "-//W3C//DTD SVG 1.1//EN"
 "http://www.w3.org/Graphics/SVG/1.1/DTD/svg11.dtd">
<!-- Generated by graphviz version 2.44.1 (0)
 -->
<!-- Title: CGALMeshBooleanOperationFilter::update Pages: 1 -->
<svg width="347pt" height="78pt"
 viewBox="0.00 0.00 347.00 77.50" xmlns="http://www.w3.org/2000/svg" xmlns:xlink="http://www.w3.org/1999/xlink">
<g id="graph0" class="graph" transform="scale(1 1) rotate(0) translate(4 73.5)">
<title>CGALMeshBooleanOperationFilter::update</title>
<polygon fill="white" stroke="transparent" points="-4,4 -4,-73.5 343,-73.5 343,4 -4,4"/>
<!-- Node1 -->
<g id="node1" class="node">
<title>Node1</title>
<g id="a_node1"><a xlink:title="Execute operation on meshes.">
<polygon fill="#bfbfbf" stroke="black" points="0,-22.5 0,-52.5 145,-52.5 145,-22.5 0,-22.5"/>
<text text-anchor="start" x="8" y="-40.5" font-family="Helvetica,sans-Serif" font-size="10.00">CGALMeshBooleanOperation</text>
<text text-anchor="middle" x="72.5" y="-29.5" font-family="Helvetica,sans-Serif" font-size="10.00">Filter::update</text>
</a>
</g>
</g>
<!-- Node2 -->
<g id="node2" class="node">
<title>Node2</title>
<g id="a_node2"><a xlink:href="../../d1/d7c/namespace_utils.html#aa5d158311887a6c34d059c9d136a3574" target="_top" xlink:title="Converts an OFF file string to a vtkPolyData object.">
<polygon fill="white" stroke="black" points="181,-50 181,-69 339,-69 339,-50 181,-50"/>
<text text-anchor="middle" x="260" y="-57" font-family="Helvetica,sans-Serif" font-size="10.00">Utils::convertOFFStrToPolyData</text>
</a>
</g>
</g>
<!-- Node1&#45;&gt;Node2 -->
<g id="edge1" class="edge">
<title>Node1&#45;&gt;Node2</title>
<path fill="none" stroke="midnightblue" d="M145.22,-46.01C153.57,-47 162.17,-48.02 170.71,-49.03"/>
<polygon fill="midnightblue" stroke="midnightblue" points="170.36,-52.51 180.7,-50.21 171.18,-45.56 170.36,-52.51"/>
</g>
<!-- Node3 -->
<g id="node3" class="node">
<title>Node3</title>
<g id="a_node3"><a xlink:href="../../d1/d7c/namespace_utils.html#afd090f87572898d5aff43d140fa6c0c9" target="_top" xlink:title="Converts a vtkPolyData object to an OFF file string which can be written to disk or passed to a funct...">
<polygon fill="white" stroke="black" points="197,-0.5 197,-30.5 323,-30.5 323,-0.5 197,-0.5"/>
<text text-anchor="start" x="205" y="-18.5" font-family="Helvetica,sans-Serif" font-size="10.00">Utils::convertPolyDataTo</text>
<text text-anchor="middle" x="260" y="-7.5" font-family="Helvetica,sans-Serif" font-size="10.00">OFFStr</text>
</a>
</g>
</g>
<!-- Node1&#45;&gt;Node3 -->
<g id="edge2" class="edge">
<title>Node1&#45;&gt;Node3</title>
<path fill="none" stroke="midnightblue" d="M145.22,-28.99C158.79,-27.39 172.99,-25.7 186.58,-24.09"/>
<polygon fill="midnightblue" stroke="midnightblue" points="187.31,-27.53 196.83,-22.87 186.49,-20.58 187.31,-27.53"/>
</g>
</g>
</svg>
