<?xml version="1.0" encoding="UTF-8" standalone="no"?>
<!DOCTYPE svg PUBLIC "-//W3C//DTD SVG 1.1//EN"
 "http://www.w3.org/Graphics/SVG/1.1/DTD/svg11.dtd">
<!-- Generated by graphviz version 2.44.1 (0)
 -->
<!-- Title: Sampling::halton2D Pages: 1 -->
<svg width="241pt" height="66pt"
 viewBox="0.00 0.00 241.00 66.00" xmlns="http://www.w3.org/2000/svg" xmlns:xlink="http://www.w3.org/1999/xlink">
<g id="graph0" class="graph" transform="scale(1 1) rotate(0) translate(4 62)">
<title>Sampling::halton2D</title>
<polygon fill="white" stroke="transparent" points="-4,4 -4,-62 237,-62 237,4 -4,4"/>
<!-- Node1 -->
<g id="node1" class="node">
<title>Node1</title>
<g id="a_node1"><a xlink:title="computes halton sequence for two&#45;dimensional points">
<polygon fill="#bfbfbf" stroke="black" points="0,-19.5 0,-38.5 102,-38.5 102,-19.5 0,-19.5"/>
<text text-anchor="middle" x="51" y="-26.5" font-family="Helvetica,sans-Serif" font-size="10.00">Sampling::halton2D</text>
</a>
</g>
</g>
<!-- Node2 -->
<g id="node2" class="node">
<title>Node2</title>
<g id="a_node2"><a xlink:href="../../d9/d6b/namespace_sampling.html#aa7ea03a0919d8d9464796c547901b28a" target="_top" xlink:title="computes halton sequence for prime 2">
<polygon fill="white" stroke="black" points="138,-38.5 138,-57.5 233,-57.5 233,-38.5 138,-38.5"/>
<text text-anchor="middle" x="185.5" y="-45.5" font-family="Helvetica,sans-Serif" font-size="10.00">Sampling::halton2</text>
</a>
</g>
</g>
<!-- Node1&#45;&gt;Node2 -->
<g id="edge1" class="edge">
<title>Node1&#45;&gt;Node2</title>
<path fill="none" stroke="midnightblue" d="M102.09,-36.18C110.52,-37.39 119.32,-38.65 127.9,-39.88"/>
<polygon fill="midnightblue" stroke="midnightblue" points="127.44,-43.35 137.83,-41.31 128.43,-36.42 127.44,-43.35"/>
</g>
<!-- Node3 -->
<g id="node3" class="node">
<title>Node3</title>
<g id="a_node3"><a xlink:href="../../d9/d6b/namespace_sampling.html#a636cfa67ed8470d9c214992ab76de04f" target="_top" xlink:title="computes halton sequence for prime 2">
<polygon fill="white" stroke="black" points="138,-0.5 138,-19.5 233,-19.5 233,-0.5 138,-0.5"/>
<text text-anchor="middle" x="185.5" y="-7.5" font-family="Helvetica,sans-Serif" font-size="10.00">Sampling::halton3</text>
</a>
</g>
</g>
<!-- Node1&#45;&gt;Node3 -->
<g id="edge2" class="edge">
<title>Node1&#45;&gt;Node3</title>
<path fill="none" stroke="midnightblue" d="M102.09,-21.82C110.52,-20.61 119.32,-19.35 127.9,-18.12"/>
<polygon fill="midnightblue" stroke="midnightblue" points="128.43,-21.58 137.83,-16.69 127.44,-14.65 128.43,-21.58"/>
</g>
</g>
</svg>
