<?xml version="1.0" encoding="UTF-8" standalone="no"?>
<!DOCTYPE svg PUBLIC "-//W3C//DTD SVG 1.1//EN"
 "http://www.w3.org/Graphics/SVG/1.1/DTD/svg11.dtd">
<!-- Generated by graphviz version 2.44.1 (0)
 -->
<!-- Title: Sampling::hammersley2D Pages: 1 -->
<svg width="520pt" height="176pt"
 viewBox="0.00 0.00 520.00 175.50" xmlns="http://www.w3.org/2000/svg" xmlns:xlink="http://www.w3.org/1999/xlink">
<g id="graph0" class="graph" transform="scale(1 1) rotate(0) translate(4 171.5)">
<title>Sampling::hammersley2D</title>
<polygon fill="white" stroke="transparent" points="-4,4 -4,-171.5 516,-171.5 516,4 -4,4"/>
<!-- Node1 -->
<g id="node1" class="node">
<title>Node1</title>
<g id="a_node1"><a xlink:title="computes a hammersley two&#45;dimensional point">
<polygon fill="#bfbfbf" stroke="black" points="383,-44.5 383,-63.5 512,-63.5 512,-44.5 383,-44.5"/>
<text text-anchor="middle" x="447.5" y="-51.5" font-family="Helvetica,sans-Serif" font-size="10.00">Sampling::hammersley2D</text>
</a>
</g>
</g>
<!-- Node2 -->
<g id="node2" class="node">
<title>Node2</title>
<g id="a_node2"><a xlink:href="../../d9/d4f/namespace_layout_algorithms.html#a0dd279f7ae7f35e3850f4a90b198faae" target="_top" xlink:title="Computes the pole of inaccessibility (point which is farthest away from all mesh ground edges).">
<polygon fill="white" stroke="black" points="200,-88 200,-118 336,-118 336,-88 200,-88"/>
<text text-anchor="start" x="208" y="-106" font-family="Helvetica,sans-Serif" font-size="10.00">LayoutAlgorithms::compute</text>
<text text-anchor="middle" x="268" y="-95" font-family="Helvetica,sans-Serif" font-size="10.00">PoleOfInaccessibility</text>
</a>
</g>
</g>
<!-- Node1&#45;&gt;Node2 -->
<g id="edge1" class="edge">
<title>Node1&#45;&gt;Node2</title>
<path fill="none" stroke="midnightblue" d="M402.03,-66.28C378.2,-72.85 348.66,-81.01 323.47,-87.96"/>
<polygon fill="midnightblue" stroke="midnightblue" points="403.15,-69.6 411.85,-63.56 401.28,-62.85 403.15,-69.6"/>
</g>
<!-- Node6 -->
<g id="node6" class="node">
<title>Node6</title>
<g id="a_node6"><a xlink:href="../../d0/d9c/class_mesh_sampler.html#a13959e3407c6565147a814657c86311d" target="_top" xlink:title=" ">
<polygon fill="white" stroke="black" points="189,-39 189,-69 347,-69 347,-39 189,-39"/>
<text text-anchor="start" x="197" y="-57" font-family="Helvetica,sans-Serif" font-size="10.00">MeshSampler::generateSamples</text>
<text text-anchor="middle" x="268" y="-46" font-family="Helvetica,sans-Serif" font-size="10.00">OnMesh</text>
</a>
</g>
</g>
<!-- Node1&#45;&gt;Node6 -->
<g id="edge5" class="edge">
<title>Node1&#45;&gt;Node6</title>
<path fill="none" stroke="midnightblue" d="M372.69,-54C364.21,-54 355.54,-54 347.01,-54"/>
<polygon fill="midnightblue" stroke="midnightblue" points="372.92,-57.5 382.92,-54 372.92,-50.5 372.92,-57.5"/>
</g>
<!-- Node7 -->
<g id="node7" class="node">
<title>Node7</title>
<g id="a_node7"><a xlink:href="../../d8/dcf/class_voxel_octree.html#a99930e4b102b967a2ef160a3e48b75b4" target="_top" xlink:title=" ">
<polygon fill="white" stroke="black" points="203.5,-0.5 203.5,-19.5 332.5,-19.5 332.5,-0.5 203.5,-0.5"/>
<text text-anchor="middle" x="268" y="-7.5" font-family="Helvetica,sans-Serif" font-size="10.00">VoxelOctree::VoxelOctree</text>
</a>
</g>
</g>
<!-- Node1&#45;&gt;Node7 -->
<g id="edge6" class="edge">
<title>Node1&#45;&gt;Node7</title>
<path fill="none" stroke="midnightblue" d="M398.8,-41.94C382.39,-37.81 363.9,-33.18 347,-29 334.42,-25.89 320.68,-22.53 308.29,-19.51"/>
<polygon fill="midnightblue" stroke="midnightblue" points="398.17,-45.39 408.72,-44.44 399.88,-38.6 398.17,-45.39"/>
</g>
<!-- Node3 -->
<g id="node3" class="node">
<title>Node3</title>
<g id="a_node3"><a xlink:href="../../d1/da7/class_place_ground_plane8_connectors_tool.html#ac6f514739682b173fadccf10f5bc9aab" target="_top" xlink:title=" ">
<polygon fill="white" stroke="black" points="0,-137 0,-167 153,-167 153,-137 0,-137"/>
<text text-anchor="start" x="8" y="-155" font-family="Helvetica,sans-Serif" font-size="10.00">PlaceGroundPlane8Connectors</text>
<text text-anchor="middle" x="76.5" y="-144" font-family="Helvetica,sans-Serif" font-size="10.00">Tool::execute</text>
</a>
</g>
</g>
<!-- Node2&#45;&gt;Node3 -->
<g id="edge2" class="edge">
<title>Node2&#45;&gt;Node3</title>
<path fill="none" stroke="midnightblue" d="M199.13,-120.55C178.32,-125.93 155.62,-131.8 135.53,-136.99"/>
<polygon fill="midnightblue" stroke="midnightblue" points="200.05,-123.93 208.86,-118.03 198.3,-117.15 200.05,-123.93"/>
</g>
<!-- Node4 -->
<g id="node4" class="node">
<title>Node4</title>
<g id="a_node4"><a xlink:href="../../dc/db2/class_place_ground_plane4_connectors_tool.html#a7ae289774f2b51d2daba1215effc4311" target="_top" xlink:title=" ">
<polygon fill="white" stroke="black" points="0,-88 0,-118 153,-118 153,-88 0,-88"/>
<text text-anchor="start" x="8" y="-106" font-family="Helvetica,sans-Serif" font-size="10.00">PlaceGroundPlane4Connectors</text>
<text text-anchor="middle" x="76.5" y="-95" font-family="Helvetica,sans-Serif" font-size="10.00">Tool::execute</text>
</a>
</g>
</g>
<!-- Node2&#45;&gt;Node4 -->
<g id="edge3" class="edge">
<title>Node2&#45;&gt;Node4</title>
<path fill="none" stroke="midnightblue" d="M189.87,-103C177.77,-103 165.28,-103 153.21,-103"/>
<polygon fill="midnightblue" stroke="midnightblue" points="189.92,-106.5 199.92,-103 189.92,-99.5 189.92,-106.5"/>
</g>
<!-- Node5 -->
<g id="node5" class="node">
<title>Node5</title>
<g id="a_node5"><a xlink:href="../../d9/d00/class_p_s_interface_tool.html#aa26bf20d4e597f64df960e4c1a5c3a69" target="_top" xlink:title=" ">
<polygon fill="white" stroke="black" points="13,-49.5 13,-68.5 140,-68.5 140,-49.5 13,-49.5"/>
<text text-anchor="middle" x="76.5" y="-56.5" font-family="Helvetica,sans-Serif" font-size="10.00">PSInterfaceTool::execute</text>
</a>
</g>
</g>
<!-- Node2&#45;&gt;Node5 -->
<g id="edge4" class="edge">
<title>Node2&#45;&gt;Node5</title>
<path fill="none" stroke="midnightblue" d="M192.41,-85.68C167.23,-79.84 140.06,-73.53 118.47,-68.51"/>
<polygon fill="midnightblue" stroke="midnightblue" points="191.78,-89.13 202.31,-87.98 193.37,-82.31 191.78,-89.13"/>
</g>
</g>
</svg>
