<?xml version="1.0" encoding="UTF-8" standalone="no"?>
<!DOCTYPE svg PUBLIC "-//W3C//DTD SVG 1.1//EN"
 "http://www.w3.org/Graphics/SVG/1.1/DTD/svg11.dtd">
<!-- Generated by graphviz version 2.44.1 (0)
 -->
<!-- Title: AutowireTool::markWireOccupation Pages: 1 -->
<svg width="507pt" height="28pt"
 viewBox="0.00 0.00 507.00 28.00" xmlns="http://www.w3.org/2000/svg" xmlns:xlink="http://www.w3.org/1999/xlink">
<g id="graph0" class="graph" transform="scale(1 1) rotate(0) translate(4 24)">
<title>AutowireTool::markWireOccupation</title>
<polygon fill="white" stroke="transparent" points="-4,4 -4,-24 503,-24 503,4 -4,4"/>
<!-- Node1 -->
<g id="node1" class="node">
<title>Node1</title>
<g id="a_node1"><a xlink:title="Mark voxel grid cells which are occupied by the wiring.">
<polygon fill="#bfbfbf" stroke="black" points="329,-0.5 329,-19.5 499,-19.5 499,-0.5 329,-0.5"/>
<text text-anchor="middle" x="414" y="-7.5" font-family="Helvetica,sans-Serif" font-size="10.00">AutowireTool::markWireOccupation</text>
</a>
</g>
</g>
<!-- Node2 -->
<g id="node2" class="node">
<title>Node2</title>
<g id="a_node2"><a xlink:href="../../df/dfa/class_autowire_tool.html#a45e5cdff2b089a3594c38021ef5d27a7" target="_top" xlink:title="Add wiring geometry of a connection to the scene (tubes)">
<polygon fill="white" stroke="black" points="149,-0.5 149,-19.5 293,-19.5 293,-0.5 149,-0.5"/>
<text text-anchor="middle" x="221" y="-7.5" font-family="Helvetica,sans-Serif" font-size="10.00">AutowireTool::addConnection</text>
</a>
</g>
</g>
<!-- Node1&#45;&gt;Node2 -->
<g id="edge1" class="edge">
<title>Node1&#45;&gt;Node2</title>
<path fill="none" stroke="midnightblue" d="M318.86,-10C310.24,-10 301.61,-10 293.25,-10"/>
<polygon fill="midnightblue" stroke="midnightblue" points="318.95,-13.5 328.95,-10 318.95,-6.5 318.95,-13.5"/>
</g>
<!-- Node3 -->
<g id="node3" class="node">
<title>Node3</title>
<g id="a_node3"><a xlink:href="../../df/dfa/class_autowire_tool.html#a78b35a48395b5502f8c00b373592678b" target="_top" xlink:title="Execute autowiring tool.">
<polygon fill="white" stroke="black" points="0,-0.5 0,-19.5 113,-19.5 113,-0.5 0,-0.5"/>
<text text-anchor="middle" x="56.5" y="-7.5" font-family="Helvetica,sans-Serif" font-size="10.00">AutowireTool::execute</text>
</a>
</g>
</g>
<!-- Node2&#45;&gt;Node3 -->
<g id="edge2" class="edge">
<title>Node2&#45;&gt;Node3</title>
<path fill="none" stroke="midnightblue" d="M138.61,-10C129.97,-10 121.33,-10 113.09,-10"/>
<polygon fill="midnightblue" stroke="midnightblue" points="138.73,-13.5 148.73,-10 138.73,-6.5 138.73,-13.5"/>
</g>
</g>
</svg>
