<?xml version="1.0" encoding="UTF-8" standalone="no"?>
<!DOCTYPE svg PUBLIC "-//W3C//DTD SVG 1.1//EN"
 "http://www.w3.org/Graphics/SVG/1.1/DTD/svg11.dtd">
<!-- Generated by graphviz version 2.44.1 (0)
 -->
<!-- Title: AutowireTool::addConnection Pages: 1 -->
<svg width="547pt" height="671pt"
 viewBox="0.00 0.00 547.00 671.00" xmlns="http://www.w3.org/2000/svg" xmlns:xlink="http://www.w3.org/1999/xlink">
<g id="graph0" class="graph" transform="scale(1 1) rotate(0) translate(4 667)">
<title>AutowireTool::addConnection</title>
<polygon fill="white" stroke="transparent" points="-4,4 -4,-667 543,-667 543,4 -4,4"/>
<!-- Node1 -->
<g id="node1" class="node">
<title>Node1</title>
<g id="a_node1"><a xlink:title="Add wiring geometry of a connection to the scene (tubes)">
<polygon fill="#bfbfbf" stroke="black" points="0,-327.5 0,-346.5 144,-346.5 144,-327.5 0,-327.5"/>
<text text-anchor="middle" x="72" y="-334.5" font-family="Helvetica,sans-Serif" font-size="10.00">AutowireTool::addConnection</text>
</a>
</g>
</g>
<!-- Node2 -->
<g id="node2" class="node">
<title>Node2</title>
<g id="a_node2"><a xlink:href="../../d1/d7c/namespace_utils.html#adfd018a6efe0bd54e0e8344ecc1fe208" target="_top" xlink:title="Compute world coordinate equivalent of voxel grid integer index.">
<polygon fill="white" stroke="black" points="222,-643.5 222,-662.5 308,-662.5 308,-643.5 222,-643.5"/>
<text text-anchor="middle" x="265" y="-650.5" font-family="Helvetica,sans-Serif" font-size="10.00">Utils::cellToPos</text>
</a>
</g>
</g>
<!-- Node1&#45;&gt;Node2 -->
<g id="edge1" class="edge">
<title>Node1&#45;&gt;Node2</title>
<path fill="none" stroke="midnightblue" d="M73.32,-346.78C75.26,-388.51 88.62,-553.25 180,-634 188.84,-641.81 200.21,-646.61 211.71,-649.52"/>
<polygon fill="midnightblue" stroke="midnightblue" points="211.28,-653 221.79,-651.61 212.71,-646.15 211.28,-653"/>
</g>
<!-- Node3 -->
<g id="node3" class="node">
<title>Node3</title>
<g id="a_node3"><a xlink:href="../../d9/d58/class_touchpoint.html#a30cdb1f0de39cf4ffe2d23c3c750d331" target="_top" xlink:title="Return outside wiring entry point (grid coordinates)">
<polygon fill="white" stroke="black" points="198.5,-594 198.5,-624 331.5,-624 331.5,-594 198.5,-594"/>
<text text-anchor="start" x="206.5" y="-612" font-family="Helvetica,sans-Serif" font-size="10.00">Touchpoint::getConnection</text>
<text text-anchor="middle" x="265" y="-601" font-family="Helvetica,sans-Serif" font-size="10.00">PointIndex</text>
</a>
</g>
</g>
<!-- Node1&#45;&gt;Node3 -->
<g id="edge2" class="edge">
<title>Node1&#45;&gt;Node3</title>
<path fill="none" stroke="midnightblue" d="M74.26,-346.73C79.56,-383.61 103.44,-516.08 180,-584 182.84,-586.52 185.93,-588.79 189.19,-590.83"/>
<polygon fill="midnightblue" stroke="midnightblue" points="187.7,-594 198.15,-595.71 191.04,-587.85 187.7,-594"/>
</g>
<!-- Node4 -->
<g id="node4" class="node">
<title>Node4</title>
<g id="a_node4"><a xlink:href="../../dd/d10/class_connection.html#ab0ec3e9eeabc5e25b8dfcdd47cda182b" target="_top" xlink:title="Return the pointer to the destination connector.">
<polygon fill="white" stroke="black" points="197.5,-555.5 197.5,-574.5 332.5,-574.5 332.5,-555.5 197.5,-555.5"/>
<text text-anchor="middle" x="265" y="-562.5" font-family="Helvetica,sans-Serif" font-size="10.00">Connection::getDestination</text>
</a>
</g>
</g>
<!-- Node1&#45;&gt;Node4 -->
<g id="edge3" class="edge">
<title>Node1&#45;&gt;Node4</title>
<path fill="none" stroke="midnightblue" d="M74.93,-346.76C82.09,-380.34 110.44,-492.01 180,-546 182.6,-548.02 185.37,-549.83 188.27,-551.45"/>
<polygon fill="midnightblue" stroke="midnightblue" points="186.75,-554.61 197.28,-555.79 189.79,-548.3 186.75,-554.61"/>
</g>
<!-- Node5 -->
<g id="node5" class="node">
<title>Node5</title>
<g id="a_node5"><a xlink:href="../../d9/d58/class_touchpoint.html#a25425137e60d6d5f21d597e8f6632eed" target="_top" xlink:title="Return the interior wiring connection position (world coordinates)">
<polygon fill="white" stroke="black" points="190.5,-517.5 190.5,-536.5 339.5,-536.5 339.5,-517.5 190.5,-517.5"/>
<text text-anchor="middle" x="265" y="-524.5" font-family="Helvetica,sans-Serif" font-size="10.00">Touchpoint::getInteriorPosition</text>
</a>
</g>
</g>
<!-- Node1&#45;&gt;Node5 -->
<g id="edge4" class="edge">
<title>Node1&#45;&gt;Node5</title>
<path fill="none" stroke="midnightblue" d="M76.03,-346.61C85.81,-375.96 119.45,-465.04 180,-508 182.74,-509.95 185.65,-511.7 188.68,-513.27"/>
<polygon fill="midnightblue" stroke="midnightblue" points="187.5,-516.58 198.06,-517.49 190.37,-510.2 187.5,-516.58"/>
</g>
<!-- Node6 -->
<g id="node6" class="node">
<title>Node6</title>
<g id="a_node6"><a xlink:href="../../d6/db5/class_scene.html#accf5c16477aba3397a083ded76f2c5f5" target="_top" xlink:title="Return the geometric data (vtkPolyData) of the mesh.">
<polygon fill="white" stroke="black" points="201,-479.5 201,-498.5 329,-498.5 329,-479.5 201,-479.5"/>
<text text-anchor="middle" x="265" y="-486.5" font-family="Helvetica,sans-Serif" font-size="10.00">Scene::getMeshPolyData</text>
</a>
</g>
</g>
<!-- Node1&#45;&gt;Node6 -->
<g id="edge5" class="edge">
<title>Node1&#45;&gt;Node6</title>
<path fill="none" stroke="midnightblue" d="M77.72,-346.54C90.48,-371.26 128.21,-437.68 180,-470 183.57,-472.23 187.37,-474.19 191.3,-475.93"/>
<polygon fill="midnightblue" stroke="midnightblue" points="190.09,-479.22 200.68,-479.58 192.63,-472.69 190.09,-479.22"/>
</g>
<!-- Node7 -->
<g id="node7" class="node">
<title>Node7</title>
<g id="a_node7"><a xlink:href="../../d6/db5/class_scene.html#a9c15511eba6900e36681315c7e5911c5" target="_top" xlink:title="Return the scaled size of the mesh (in mm)">
<polygon fill="white" stroke="black" points="199.5,-441.5 199.5,-460.5 330.5,-460.5 330.5,-441.5 199.5,-441.5"/>
<text text-anchor="middle" x="265" y="-448.5" font-family="Helvetica,sans-Serif" font-size="10.00">Scene::getMeshScalesize</text>
</a>
</g>
</g>
<!-- Node1&#45;&gt;Node7 -->
<g id="edge6" class="edge">
<title>Node1&#45;&gt;Node7</title>
<path fill="none" stroke="midnightblue" d="M80.74,-346.55C96.97,-365.89 136.68,-409.76 180,-432 184.62,-434.37 189.53,-436.45 194.57,-438.27"/>
<polygon fill="midnightblue" stroke="midnightblue" points="193.79,-441.7 204.38,-441.46 195.96,-435.04 193.79,-441.7"/>
</g>
<!-- Node8 -->
<g id="node8" class="node">
<title>Node8</title>
<g id="a_node8"><a xlink:href="../../dd/d10/class_connection.html#a621375a3053bac56b06b25cf79e5a5b4" target="_top" xlink:title="Return the connection path as a vector of 3d voxel grid indices.">
<polygon fill="white" stroke="black" points="212,-403.5 212,-422.5 318,-422.5 318,-403.5 212,-403.5"/>
<text text-anchor="middle" x="265" y="-410.5" font-family="Helvetica,sans-Serif" font-size="10.00">Connection::getPath</text>
</a>
</g>
</g>
<!-- Node1&#45;&gt;Node8 -->
<g id="edge7" class="edge">
<title>Node1&#45;&gt;Node8</title>
<path fill="none" stroke="midnightblue" d="M87.99,-346.65C108.15,-359.24 145.48,-381.16 180,-394 187.02,-396.61 194.5,-398.92 202,-400.96"/>
<polygon fill="midnightblue" stroke="midnightblue" points="201.28,-404.39 211.83,-403.48 203.01,-397.61 201.28,-404.39"/>
</g>
<!-- Node9 -->
<g id="node9" class="node">
<title>Node9</title>
<g id="a_node9"><a xlink:href="../../d6/db5/class_scene.html#a8bf8e4b441886787dc82c2caa9b25884" target="_top" xlink:title="Return the vtkRenderer of the scene.">
<polygon fill="white" stroke="black" points="213,-365.5 213,-384.5 317,-384.5 317,-365.5 213,-365.5"/>
<text text-anchor="middle" x="265" y="-372.5" font-family="Helvetica,sans-Serif" font-size="10.00">Scene::getRenderer</text>
</a>
</g>
</g>
<!-- Node1&#45;&gt;Node9 -->
<g id="edge8" class="edge">
<title>Node1&#45;&gt;Node9</title>
<path fill="none" stroke="midnightblue" d="M121.2,-346.59C146.97,-351.72 178.89,-358.07 206.01,-363.46"/>
<polygon fill="midnightblue" stroke="midnightblue" points="205.66,-366.96 216.15,-365.48 207.02,-360.1 205.66,-366.96"/>
</g>
<!-- Node10 -->
<g id="node10" class="node">
<title>Node10</title>
<g id="a_node10"><a xlink:href="../../dd/d10/class_connection.html#a2994130b16d96ca737bf5f988996449e" target="_top" xlink:title="Return the pointer to the source touchpoint.">
<polygon fill="white" stroke="black" points="207,-327.5 207,-346.5 323,-346.5 323,-327.5 207,-327.5"/>
<text text-anchor="middle" x="265" y="-334.5" font-family="Helvetica,sans-Serif" font-size="10.00">Connection::getSource</text>
</a>
</g>
</g>
<!-- Node1&#45;&gt;Node10 -->
<g id="edge9" class="edge">
<title>Node1&#45;&gt;Node10</title>
<path fill="none" stroke="midnightblue" d="M144.12,-337C161.25,-337 179.5,-337 196.46,-337"/>
<polygon fill="midnightblue" stroke="midnightblue" points="196.83,-340.5 206.83,-337 196.83,-333.5 196.83,-340.5"/>
</g>
<!-- Node11 -->
<g id="node11" class="node">
<title>Node11</title>
<g id="a_node11"><a xlink:href="../../d6/db5/class_scene.html#a5c26ef724365bd55c471acc673d60674" target="_top" xlink:title="Return the touchpoint registry of the scene.">
<polygon fill="white" stroke="black" points="191,-289.5 191,-308.5 339,-308.5 339,-289.5 191,-289.5"/>
<text text-anchor="middle" x="265" y="-296.5" font-family="Helvetica,sans-Serif" font-size="10.00">Scene::getTouchpointRegistry</text>
</a>
</g>
</g>
<!-- Node1&#45;&gt;Node11 -->
<g id="edge10" class="edge">
<title>Node1&#45;&gt;Node11</title>
<path fill="none" stroke="midnightblue" d="M121.2,-327.41C146.97,-322.28 178.89,-315.93 206.01,-310.54"/>
<polygon fill="midnightblue" stroke="midnightblue" points="207.02,-313.9 216.15,-308.52 205.66,-307.04 207.02,-313.9"/>
</g>
<!-- Node12 -->
<g id="node12" class="node">
<title>Node12</title>
<g id="a_node12"><a xlink:href="../../d6/db5/class_scene.html#a7e5ee53ea01ef113afaaf4b7c10accf3" target="_top" xlink:title="Return the voxel grid image data.">
<polygon fill="white" stroke="black" points="408,-213.5 408,-232.5 517,-232.5 517,-213.5 408,-213.5"/>
<text text-anchor="middle" x="462.5" y="-220.5" font-family="Helvetica,sans-Serif" font-size="10.00">Scene::getVoxelData</text>
</a>
</g>
</g>
<!-- Node1&#45;&gt;Node12 -->
<g id="edge11" class="edge">
<title>Node1&#45;&gt;Node12</title>
<path fill="none" stroke="midnightblue" d="M80.24,-327.2C95.83,-306.97 134.86,-260.91 180,-242 250.11,-212.63 338.66,-211.88 397.53,-215.85"/>
<polygon fill="midnightblue" stroke="midnightblue" points="397.57,-219.37 407.8,-216.61 398.09,-212.39 397.57,-219.37"/>
</g>
<!-- Node13 -->
<g id="node13" class="node">
<title>Node13</title>
<g id="a_node13"><a xlink:href="../../d6/db5/class_scene.html#af78767d0af348d25ddf80ef8cfe1f67a" target="_top" xlink:title="Return dimensions of the voxel data.">
<polygon fill="white" stroke="black" points="184.5,-251.5 184.5,-270.5 345.5,-270.5 345.5,-251.5 184.5,-251.5"/>
<text text-anchor="middle" x="265" y="-258.5" font-family="Helvetica,sans-Serif" font-size="10.00">Scene::getVoxelDataDimensions</text>
</a>
</g>
</g>
<!-- Node1&#45;&gt;Node13 -->
<g id="edge12" class="edge">
<title>Node1&#45;&gt;Node13</title>
<path fill="none" stroke="midnightblue" d="M87.99,-327.35C108.15,-314.76 145.48,-292.84 180,-280 187.02,-277.39 194.5,-275.08 202,-273.04"/>
<polygon fill="midnightblue" stroke="midnightblue" points="203.01,-276.39 211.83,-270.52 201.28,-269.61 203.01,-276.39"/>
</g>
<!-- Node14 -->
<g id="node14" class="node">
<title>Node14</title>
<g id="a_node14"><a xlink:href="../../d1/d7c/namespace_utils.html#a606fb1eb5072ca20f56293fa71bd8578" target="_top" xlink:title="Compute 1D linearized index from 3D&#45;coodinate index.">
<polygon fill="white" stroke="black" points="434.5,-137.5 434.5,-156.5 490.5,-156.5 490.5,-137.5 434.5,-137.5"/>
<text text-anchor="middle" x="462.5" y="-144.5" font-family="Helvetica,sans-Serif" font-size="10.00">Utils::idx</text>
</a>
</g>
</g>
<!-- Node1&#45;&gt;Node14 -->
<g id="edge14" class="edge">
<title>Node1&#45;&gt;Node14</title>
<path fill="none" stroke="midnightblue" d="M75.63,-327.39C84.43,-297.25 116,-204.32 180,-166 256.75,-120.04 367.26,-129.99 424.3,-139.46"/>
<polygon fill="midnightblue" stroke="midnightblue" points="423.86,-142.94 434.31,-141.21 425.06,-136.04 423.86,-142.94"/>
</g>
<!-- Node15 -->
<g id="node15" class="node">
<title>Node15</title>
<g id="a_node15"><a xlink:href="../../df/dfa/class_autowire_tool.html#a6d3cd96cedca7268da96cb4e478fe2c7" target="_top" xlink:title="Mark voxel grid cells which are occupied by the wiring.">
<polygon fill="white" stroke="black" points="180,-175.5 180,-194.5 350,-194.5 350,-175.5 180,-175.5"/>
<text text-anchor="middle" x="265" y="-182.5" font-family="Helvetica,sans-Serif" font-size="10.00">AutowireTool::markWireOccupation</text>
</a>
</g>
</g>
<!-- Node1&#45;&gt;Node15 -->
<g id="edge15" class="edge">
<title>Node1&#45;&gt;Node15</title>
<path fill="none" stroke="midnightblue" d="M78.32,-327.29C91.93,-303.36 130.46,-241.2 180,-209 186.87,-204.53 194.58,-200.88 202.48,-197.9"/>
<polygon fill="midnightblue" stroke="midnightblue" points="203.82,-201.14 212.15,-194.59 201.55,-194.52 203.82,-201.14"/>
</g>
<!-- Node17 -->
<g id="node17" class="node">
<title>Node17</title>
<g id="a_node17"><a xlink:href="../../dd/d10/class_connection.html#a24be5fb6fd21b1b0bbc9853b8075f9f4" target="_top" xlink:title="Set the graphical representation (vtkActor) of the connection geometry.">
<polygon fill="white" stroke="black" points="197.5,-88 197.5,-118 332.5,-118 332.5,-88 197.5,-88"/>
<text text-anchor="start" x="205.5" y="-106" font-family="Helvetica,sans-Serif" font-size="10.00">Connection::setConnection</text>
<text text-anchor="middle" x="265" y="-95" font-family="Helvetica,sans-Serif" font-size="10.00">Actor</text>
</a>
</g>
</g>
<!-- Node1&#45;&gt;Node17 -->
<g id="edge19" class="edge">
<title>Node1&#45;&gt;Node17</title>
<path fill="none" stroke="midnightblue" d="M75.36,-327.32C83.74,-294.95 115.1,-189.4 180,-133 184.49,-129.1 189.53,-125.69 194.85,-122.71"/>
<polygon fill="midnightblue" stroke="midnightblue" points="196.65,-125.73 204.01,-118.11 193.51,-119.47 196.65,-125.73"/>
</g>
<!-- Node18 -->
<g id="node18" class="node">
<title>Node18</title>
<g id="a_node18"><a xlink:href="../../dd/d10/class_connection.html#aa53698bb689af2a64f852309c6dbf6c8" target="_top" xlink:title="Set the geometry (vtkPolyData) of the connection.">
<polygon fill="white" stroke="black" points="197.5,-39 197.5,-69 332.5,-69 332.5,-39 197.5,-39"/>
<text text-anchor="start" x="205.5" y="-57" font-family="Helvetica,sans-Serif" font-size="10.00">Connection::setConnection</text>
<text text-anchor="middle" x="265" y="-46" font-family="Helvetica,sans-Serif" font-size="10.00">PolyData</text>
</a>
</g>
</g>
<!-- Node1&#45;&gt;Node18 -->
<g id="edge20" class="edge">
<title>Node1&#45;&gt;Node18</title>
<path fill="none" stroke="midnightblue" d="M74.02,-327.3C78.52,-289.32 100.15,-149.27 180,-78 182.63,-75.66 185.47,-73.54 188.46,-71.63"/>
<polygon fill="midnightblue" stroke="midnightblue" points="190.19,-74.67 197.25,-66.77 186.81,-68.55 190.19,-74.67"/>
</g>
<!-- Node19 -->
<g id="node19" class="node">
<title>Node19</title>
<g id="a_node19"><a xlink:href="../../dd/d10/class_connection.html#ae15a2ee585ad551838dbedc5bf71e22a" target="_top" xlink:title="Set the graphical line representation object (vtkActor)">
<polygon fill="white" stroke="black" points="201.5,-0.5 201.5,-19.5 328.5,-19.5 328.5,-0.5 201.5,-0.5"/>
<text text-anchor="middle" x="265" y="-7.5" font-family="Helvetica,sans-Serif" font-size="10.00">Connection::setLineActor</text>
</a>
</g>
</g>
<!-- Node1&#45;&gt;Node19 -->
<g id="edge21" class="edge">
<title>Node1&#45;&gt;Node19</title>
<path fill="none" stroke="midnightblue" d="M73.18,-327.45C74.49,-285.17 85.68,-113.32 180,-29 183.64,-25.75 187.72,-23.01 192.06,-20.72"/>
<polygon fill="midnightblue" stroke="midnightblue" points="193.59,-23.87 201.3,-16.61 190.75,-17.48 193.59,-23.87"/>
</g>
<!-- Node13&#45;&gt;Node12 -->
<g id="edge13" class="edge">
<title>Node13&#45;&gt;Node12</title>
<path fill="none" stroke="midnightblue" d="M315.08,-251.46C341.57,-246.31 374.47,-239.92 402.37,-234.49"/>
<polygon fill="midnightblue" stroke="midnightblue" points="403.25,-237.89 412.4,-232.54 401.92,-231.02 403.25,-237.89"/>
</g>
<!-- Node15&#45;&gt;Node12 -->
<g id="edge17" class="edge">
<title>Node15&#45;&gt;Node12</title>
<path fill="none" stroke="midnightblue" d="M315.08,-194.54C341.57,-199.69 374.47,-206.08 402.37,-211.51"/>
<polygon fill="midnightblue" stroke="midnightblue" points="401.92,-214.98 412.4,-213.46 403.25,-208.11 401.92,-214.98"/>
</g>
<!-- Node15&#45;&gt;Node14 -->
<g id="edge18" class="edge">
<title>Node15&#45;&gt;Node14</title>
<path fill="none" stroke="midnightblue" d="M315.08,-175.46C349.02,-168.86 393.47,-160.22 424.46,-154.2"/>
<polygon fill="midnightblue" stroke="midnightblue" points="425.26,-157.61 434.41,-152.27 423.93,-150.74 425.26,-157.61"/>
</g>
<!-- Node16 -->
<g id="node16" class="node">
<title>Node16</title>
<g id="a_node16"><a xlink:href="../../d6/db5/class_scene.html#a64cb0dcdcb57a45fe485fb3489c112c4" target="_top" xlink:title="Return if the 26&#45;neighborhood voxels of a connection path are locked too.">
<polygon fill="white" stroke="black" points="386,-175.5 386,-194.5 539,-194.5 539,-175.5 386,-175.5"/>
<text text-anchor="middle" x="462.5" y="-182.5" font-family="Helvetica,sans-Serif" font-size="10.00">Scene::getLockNeighborVoxels</text>
</a>
</g>
</g>
<!-- Node15&#45;&gt;Node16 -->
<g id="edge16" class="edge">
<title>Node15&#45;&gt;Node16</title>
<path fill="none" stroke="midnightblue" d="M350.04,-185C358.51,-185 367.11,-185 375.59,-185"/>
<polygon fill="midnightblue" stroke="midnightblue" points="375.85,-188.5 385.85,-185 375.85,-181.5 375.85,-188.5"/>
</g>
</g>
</svg>
