<?xml version="1.0" encoding="UTF-8" standalone="no"?>
<!DOCTYPE svg PUBLIC "-//W3C//DTD SVG 1.1//EN"
 "http://www.w3.org/Graphics/SVG/1.1/DTD/svg11.dtd">
<!-- Generated by graphviz version 2.44.1 (0)
 -->
<!-- Title: AutowireTool::execute Pages: 1 -->
<svg width="707pt" height="1011pt"
 viewBox="0.00 0.00 707.00 1010.50" xmlns="http://www.w3.org/2000/svg" xmlns:xlink="http://www.w3.org/1999/xlink">
<g id="graph0" class="graph" transform="scale(1 1) rotate(0) translate(4 1006.5)">
<title>AutowireTool::execute</title>
<polygon fill="white" stroke="transparent" points="-4,4 -4,-1006.5 703,-1006.5 703,4 -4,4"/>
<!-- Node1 -->
<g id="node1" class="node">
<title>Node1</title>
<g id="a_node1"><a xlink:title="Execute autowiring tool.">
<polygon fill="#bfbfbf" stroke="black" points="0,-404 0,-423 113,-423 113,-404 0,-404"/>
<text text-anchor="middle" x="56.5" y="-411" font-family="Helvetica,sans-Serif" font-size="10.00">AutowireTool::execute</text>
</a>
</g>
</g>
<!-- Node2 -->
<g id="node2" class="node">
<title>Node2</title>
<g id="a_node2"><a xlink:href="../../df/dfa/class_autowire_tool.html#a45e5cdff2b089a3594c38021ef5d27a7" target="_top" xlink:title="Add wiring geometry of a connection to the scene (tubes)">
<polygon fill="white" stroke="black" points="154.5,-599 154.5,-618 298.5,-618 298.5,-599 154.5,-599"/>
<text text-anchor="middle" x="226.5" y="-606" font-family="Helvetica,sans-Serif" font-size="10.00">AutowireTool::addConnection</text>
</a>
</g>
</g>
<!-- Node1&#45;&gt;Node2 -->
<g id="edge1" class="edge">
<title>Node1&#45;&gt;Node2</title>
<path fill="none" stroke="midnightblue" d="M65.83,-423.17C92.53,-454.16 176.24,-551.33 210.58,-591.18"/>
<polygon fill="midnightblue" stroke="midnightblue" points="207.94,-593.48 217.12,-598.77 213.24,-588.91 207.94,-593.48"/>
</g>
<!-- Node8 -->
<g id="node8" class="node">
<title>Node8</title>
<g id="a_node8"><a xlink:href="../../d6/db5/class_scene.html#accf5c16477aba3397a083ded76f2c5f5" target="_top" xlink:title="Return the geometric data (vtkPolyData) of the mesh.">
<polygon fill="white" stroke="black" points="361,-983 361,-1002 489,-1002 489,-983 361,-983"/>
<text text-anchor="middle" x="425" y="-990" font-family="Helvetica,sans-Serif" font-size="10.00">Scene::getMeshPolyData</text>
</a>
</g>
</g>
<!-- Node1&#45;&gt;Node8 -->
<g id="edge39" class="edge">
<title>Node1&#45;&gt;Node8</title>
<path fill="none" stroke="midnightblue" d="M59.57,-423.2C72.78,-482.73 150.87,-801.41 340,-961.5 348.99,-969.11 360.02,-974.93 371.1,-979.36"/>
<polygon fill="midnightblue" stroke="midnightblue" points="370.2,-982.76 380.79,-982.9 372.6,-976.18 370.2,-982.76"/>
</g>
<!-- Node11 -->
<g id="node11" class="node">
<title>Node11</title>
<g id="a_node11"><a xlink:href="../../d6/db5/class_scene.html#a8bf8e4b441886787dc82c2caa9b25884" target="_top" xlink:title="Return the vtkRenderer of the scene.">
<polygon fill="white" stroke="black" points="373,-404 373,-423 477,-423 477,-404 373,-404"/>
<text text-anchor="middle" x="425" y="-411" font-family="Helvetica,sans-Serif" font-size="10.00">Scene::getRenderer</text>
</a>
</g>
</g>
<!-- Node1&#45;&gt;Node11 -->
<g id="edge40" class="edge">
<title>Node1&#45;&gt;Node11</title>
<path fill="none" stroke="midnightblue" d="M113.16,-413.5C180.3,-413.5 292.81,-413.5 362.47,-413.5"/>
<polygon fill="midnightblue" stroke="midnightblue" points="362.85,-417 372.85,-413.5 362.85,-410 362.85,-417"/>
</g>
<!-- Node13 -->
<g id="node13" class="node">
<title>Node13</title>
<g id="a_node13"><a xlink:href="../../d6/db5/class_scene.html#a5c26ef724365bd55c471acc673d60674" target="_top" xlink:title="Return the touchpoint registry of the scene.">
<polygon fill="white" stroke="black" points="351,-366 351,-385 499,-385 499,-366 351,-366"/>
<text text-anchor="middle" x="425" y="-373" font-family="Helvetica,sans-Serif" font-size="10.00">Scene::getTouchpointRegistry</text>
</a>
</g>
</g>
<!-- Node1&#45;&gt;Node13 -->
<g id="edge41" class="edge">
<title>Node1&#45;&gt;Node13</title>
<path fill="none" stroke="midnightblue" d="M113.16,-407.73C173.67,-401.46 271.01,-391.36 340.64,-384.14"/>
<polygon fill="midnightblue" stroke="midnightblue" points="341.12,-387.61 350.7,-383.1 340.4,-380.65 341.12,-387.61"/>
</g>
<!-- Node23 -->
<g id="node23" class="node">
<title>Node23</title>
<g id="a_node23"><a xlink:href="../../df/dfa/class_autowire_tool.html#ac4f7efcdb1dc1b668afa7273d832b7eb" target="_top" xlink:title="Remove all wiring connections.">
<polygon fill="white" stroke="black" points="149,-246 149,-265 304,-265 304,-246 149,-246"/>
<text text-anchor="middle" x="226.5" y="-253" font-family="Helvetica,sans-Serif" font-size="10.00">AutowireTool::clearConnections</text>
</a>
</g>
</g>
<!-- Node1&#45;&gt;Node23 -->
<g id="edge25" class="edge">
<title>Node1&#45;&gt;Node23</title>
<path fill="none" stroke="midnightblue" d="M67.76,-403.85C95.59,-377.68 172.79,-305.07 207.81,-272.13"/>
<polygon fill="midnightblue" stroke="midnightblue" points="210.49,-274.42 215.38,-265.02 205.7,-269.32 210.49,-274.42"/>
</g>
<!-- Node3 -->
<g id="node3" class="node">
<title>Node3</title>
<g id="a_node3"><a xlink:href="../../d1/d7c/namespace_utils.html#adfd018a6efe0bd54e0e8344ecc1fe208" target="_top" xlink:title="Compute world coordinate equivalent of voxel grid integer index.">
<polygon fill="white" stroke="black" points="382,-831 382,-850 468,-850 468,-831 382,-831"/>
<text text-anchor="middle" x="425" y="-838" font-family="Helvetica,sans-Serif" font-size="10.00">Utils::cellToPos</text>
</a>
</g>
</g>
<!-- Node2&#45;&gt;Node3 -->
<g id="edge2" class="edge">
<title>Node2&#45;&gt;Node3</title>
<path fill="none" stroke="midnightblue" d="M229.67,-618.38C237.66,-652.37 268.81,-765.44 340,-820.5 349.17,-827.59 360.47,-832.23 371.77,-835.24"/>
<polygon fill="midnightblue" stroke="midnightblue" points="371.12,-838.68 381.65,-837.49 372.68,-831.85 371.12,-838.68"/>
</g>
<!-- Node4 -->
<g id="node4" class="node">
<title>Node4</title>
<g id="a_node4"><a xlink:href="../../d9/d58/class_touchpoint.html#ad2583d5312abcd383e7b12c841668a19" target="_top" xlink:title="Return outside wiring entry point (world coordinates)">
<polygon fill="white" stroke="black" points="358.5,-781.5 358.5,-811.5 491.5,-811.5 491.5,-781.5 358.5,-781.5"/>
<text text-anchor="start" x="366.5" y="-799.5" font-family="Helvetica,sans-Serif" font-size="10.00">Touchpoint::getConnection</text>
<text text-anchor="middle" x="425" y="-788.5" font-family="Helvetica,sans-Serif" font-size="10.00">Point</text>
</a>
</g>
</g>
<!-- Node2&#45;&gt;Node4 -->
<g id="edge3" class="edge">
<title>Node2&#45;&gt;Node4</title>
<path fill="none" stroke="midnightblue" d="M231.43,-618.29C243.3,-646.57 281.57,-729.08 340,-771.5 342.86,-773.57 345.89,-775.48 349.03,-777.22"/>
<polygon fill="midnightblue" stroke="midnightblue" points="347.65,-780.45 358.17,-781.74 350.76,-774.17 347.65,-780.45"/>
</g>
<!-- Node5 -->
<g id="node5" class="node">
<title>Node5</title>
<g id="a_node5"><a xlink:href="../../d9/d58/class_touchpoint.html#a30cdb1f0de39cf4ffe2d23c3c750d331" target="_top" xlink:title="Return outside wiring entry point (grid coordinates)">
<polygon fill="white" stroke="black" points="358.5,-732.5 358.5,-762.5 491.5,-762.5 491.5,-732.5 358.5,-732.5"/>
<text text-anchor="start" x="366.5" y="-750.5" font-family="Helvetica,sans-Serif" font-size="10.00">Touchpoint::getConnection</text>
<text text-anchor="middle" x="425" y="-739.5" font-family="Helvetica,sans-Serif" font-size="10.00">PointIndex</text>
</a>
</g>
</g>
<!-- Node2&#45;&gt;Node5 -->
<g id="edge4" class="edge">
<title>Node2&#45;&gt;Node5</title>
<path fill="none" stroke="midnightblue" d="M234.21,-618.04C250.06,-639.86 292.08,-693.73 340,-722.5 343.6,-724.66 347.39,-726.64 351.3,-728.46"/>
<polygon fill="midnightblue" stroke="midnightblue" points="350.02,-731.72 360.59,-732.42 352.77,-725.28 350.02,-731.72"/>
</g>
<!-- Node6 -->
<g id="node6" class="node">
<title>Node6</title>
<g id="a_node6"><a xlink:href="../../dd/d10/class_connection.html#ab0ec3e9eeabc5e25b8dfcdd47cda182b" target="_top" xlink:title="Return the pointer to the destination connector.">
<polygon fill="white" stroke="black" points="357.5,-694 357.5,-713 492.5,-713 492.5,-694 357.5,-694"/>
<text text-anchor="middle" x="425" y="-701" font-family="Helvetica,sans-Serif" font-size="10.00">Connection::getDestination</text>
</a>
</g>
</g>
<!-- Node2&#45;&gt;Node6 -->
<g id="edge5" class="edge">
<title>Node2&#45;&gt;Node6</title>
<path fill="none" stroke="midnightblue" d="M238.49,-618.01C257.72,-634.17 299.33,-666.91 340,-684.5 345.85,-687.03 352.09,-689.25 358.42,-691.18"/>
<polygon fill="midnightblue" stroke="midnightblue" points="357.82,-694.65 368.39,-694 359.72,-687.91 357.82,-694.65"/>
</g>
<!-- Node7 -->
<g id="node7" class="node">
<title>Node7</title>
<g id="a_node7"><a xlink:href="../../d9/d58/class_touchpoint.html#a25425137e60d6d5f21d597e8f6632eed" target="_top" xlink:title="Return the interior wiring connection position (world coordinates)">
<polygon fill="white" stroke="black" points="350.5,-656 350.5,-675 499.5,-675 499.5,-656 350.5,-656"/>
<text text-anchor="middle" x="425" y="-663" font-family="Helvetica,sans-Serif" font-size="10.00">Touchpoint::getInteriorPosition</text>
</a>
</g>
</g>
<!-- Node2&#45;&gt;Node7 -->
<g id="edge6" class="edge">
<title>Node2&#45;&gt;Node7</title>
<path fill="none" stroke="midnightblue" d="M253.18,-618.02C275.83,-626.21 309.83,-638.02 340,-646.5 349.08,-649.05 358.79,-651.5 368.26,-653.74"/>
<polygon fill="midnightblue" stroke="midnightblue" points="367.48,-657.15 378.01,-656 369.05,-650.33 367.48,-657.15"/>
</g>
<!-- Node2&#45;&gt;Node8 -->
<g id="edge7" class="edge">
<title>Node2&#45;&gt;Node8</title>
<path fill="none" stroke="midnightblue" d="M231.61,-618.21C243.87,-647.46 280.78,-737.42 304,-814.5 324.28,-881.8 291.52,-917.6 340,-968.5 343.63,-972.31 347.83,-975.54 352.36,-978.25"/>
<polygon fill="midnightblue" stroke="midnightblue" points="350.95,-981.46 361.45,-982.89 354.13,-975.23 350.95,-981.46"/>
</g>
<!-- Node9 -->
<g id="node9" class="node">
<title>Node9</title>
<g id="a_node9"><a xlink:href="../../d6/db5/class_scene.html#a9c15511eba6900e36681315c7e5911c5" target="_top" xlink:title="Return the scaled size of the mesh (in mm)">
<polygon fill="white" stroke="black" points="359.5,-618 359.5,-637 490.5,-637 490.5,-618 359.5,-618"/>
<text text-anchor="middle" x="425" y="-625" font-family="Helvetica,sans-Serif" font-size="10.00">Scene::getMeshScalesize</text>
</a>
</g>
</g>
<!-- Node2&#45;&gt;Node9 -->
<g id="edge8" class="edge">
<title>Node2&#45;&gt;Node9</title>
<path fill="none" stroke="midnightblue" d="M298.72,-615.39C315.09,-616.97 332.55,-618.66 349.07,-620.26"/>
<polygon fill="midnightblue" stroke="midnightblue" points="348.93,-623.76 359.22,-621.24 349.61,-616.79 348.93,-623.76"/>
</g>
<!-- Node10 -->
<g id="node10" class="node">
<title>Node10</title>
<g id="a_node10"><a xlink:href="../../dd/d10/class_connection.html#a621375a3053bac56b06b25cf79e5a5b4" target="_top" xlink:title="Return the connection path as a vector of 3d voxel grid indices.">
<polygon fill="white" stroke="black" points="372,-290 372,-309 478,-309 478,-290 372,-290"/>
<text text-anchor="middle" x="425" y="-297" font-family="Helvetica,sans-Serif" font-size="10.00">Connection::getPath</text>
</a>
</g>
</g>
<!-- Node2&#45;&gt;Node10 -->
<g id="edge9" class="edge">
<title>Node2&#45;&gt;Node10</title>
<path fill="none" stroke="midnightblue" d="M228.1,-598.93C231.2,-558.1 249,-396.97 340,-318.5 346.43,-312.96 354.14,-308.94 362.25,-306.04"/>
<polygon fill="midnightblue" stroke="midnightblue" points="363.33,-309.37 371.89,-303.13 361.3,-302.67 363.33,-309.37"/>
</g>
<!-- Node2&#45;&gt;Node11 -->
<g id="edge10" class="edge">
<title>Node2&#45;&gt;Node11</title>
<path fill="none" stroke="midnightblue" d="M230.75,-598.61C241.22,-568.39 277.08,-476.68 340,-432.5 346.95,-427.62 354.95,-423.97 363.19,-421.25"/>
<polygon fill="midnightblue" stroke="midnightblue" points="364.28,-424.57 372.92,-418.45 362.35,-417.85 364.28,-424.57"/>
</g>
<!-- Node12 -->
<g id="node12" class="node">
<title>Node12</title>
<g id="a_node12"><a xlink:href="../../dd/d10/class_connection.html#a2994130b16d96ca737bf5f988996449e" target="_top" xlink:title="Return the pointer to the source touchpoint.">
<polygon fill="white" stroke="black" points="367,-580 367,-599 483,-599 483,-580 367,-580"/>
<text text-anchor="middle" x="425" y="-587" font-family="Helvetica,sans-Serif" font-size="10.00">Connection::getSource</text>
</a>
</g>
</g>
<!-- Node2&#45;&gt;Node12 -->
<g id="edge11" class="edge">
<title>Node2&#45;&gt;Node12</title>
<path fill="none" stroke="midnightblue" d="M298.72,-601.61C317.62,-599.79 337.98,-597.82 356.67,-596.01"/>
<polygon fill="midnightblue" stroke="midnightblue" points="357.24,-599.47 366.86,-595.02 356.57,-592.5 357.24,-599.47"/>
</g>
<!-- Node2&#45;&gt;Node13 -->
<g id="edge12" class="edge">
<title>Node2&#45;&gt;Node13</title>
<path fill="none" stroke="midnightblue" d="M229.51,-598.97C237.15,-565.16 267.75,-449.96 340,-394.5 342.34,-392.71 344.81,-391.08 347.38,-389.6"/>
<polygon fill="midnightblue" stroke="midnightblue" points="349.06,-392.68 356.48,-385.12 345.97,-386.39 349.06,-392.68"/>
</g>
<!-- Node14 -->
<g id="node14" class="node">
<title>Node14</title>
<g id="a_node14"><a xlink:href="../../d9/d58/class_touchpoint.html#a2ffa73d162c4ede0fd78bf6da2107cd8" target="_top" xlink:title="Return if touchpoint uses a separate connection point.">
<polygon fill="white" stroke="black" points="349.5,-530.5 349.5,-560.5 500.5,-560.5 500.5,-530.5 349.5,-530.5"/>
<text text-anchor="start" x="357.5" y="-548.5" font-family="Helvetica,sans-Serif" font-size="10.00">Touchpoint::getUseConnection</text>
<text text-anchor="middle" x="425" y="-537.5" font-family="Helvetica,sans-Serif" font-size="10.00">Point</text>
</a>
</g>
</g>
<!-- Node2&#45;&gt;Node14 -->
<g id="edge13" class="edge">
<title>Node2&#45;&gt;Node14</title>
<path fill="none" stroke="midnightblue" d="M255.15,-598.85C277.86,-590.99 310.92,-579.74 340,-570.5 347.34,-568.17 355.06,-565.78 362.73,-563.45"/>
<polygon fill="midnightblue" stroke="midnightblue" points="363.82,-566.78 372.38,-560.54 361.79,-560.08 363.82,-566.78"/>
</g>
<!-- Node15 -->
<g id="node15" class="node">
<title>Node15</title>
<g id="a_node15"><a xlink:href="../../d6/db5/class_scene.html#a7e5ee53ea01ef113afaaf4b7c10accf3" target="_top" xlink:title="Return the voxel grid image data.">
<polygon fill="white" stroke="black" points="568,-869 568,-888 677,-888 677,-869 568,-869"/>
<text text-anchor="middle" x="622.5" y="-876" font-family="Helvetica,sans-Serif" font-size="10.00">Scene::getVoxelData</text>
</a>
</g>
</g>
<!-- Node2&#45;&gt;Node15 -->
<g id="edge14" class="edge">
<title>Node2&#45;&gt;Node15</title>
<path fill="none" stroke="midnightblue" d="M235.57,-598.87C252.52,-579.51 294.05,-536.34 340,-520.5 411.43,-495.88 449.15,-475.72 510,-520.5 566.87,-562.35 607.42,-790.33 618.47,-858.95"/>
<polygon fill="midnightblue" stroke="midnightblue" points="615.02,-859.54 620.04,-868.87 621.94,-858.44 615.02,-859.54"/>
</g>
<!-- Node16 -->
<g id="node16" class="node">
<title>Node16</title>
<g id="a_node16"><a xlink:href="../../d6/db5/class_scene.html#af78767d0af348d25ddf80ef8cfe1f67a" target="_top" xlink:title="Return dimensions of the voxel data.">
<polygon fill="white" stroke="black" points="344.5,-869 344.5,-888 505.5,-888 505.5,-869 344.5,-869"/>
<text text-anchor="middle" x="425" y="-876" font-family="Helvetica,sans-Serif" font-size="10.00">Scene::getVoxelDataDimensions</text>
</a>
</g>
</g>
<!-- Node2&#45;&gt;Node16 -->
<g id="edge15" class="edge">
<title>Node2&#45;&gt;Node16</title>
<path fill="none" stroke="midnightblue" d="M230.57,-618.26C244.01,-660.35 298.8,-825.77 340,-859.5 342.02,-861.16 344.17,-862.68 346.4,-864.07"/>
<polygon fill="midnightblue" stroke="midnightblue" points="344.92,-867.25 355.4,-868.84 348.2,-861.06 344.92,-867.25"/>
</g>
<!-- Node17 -->
<g id="node17" class="node">
<title>Node17</title>
<g id="a_node17"><a xlink:href="../../d1/d7c/namespace_utils.html#a606fb1eb5072ca20f56293fa71bd8578" target="_top" xlink:title="Compute 1D linearized index from 3D&#45;coodinate index.">
<polygon fill="white" stroke="black" points="594.5,-945 594.5,-964 650.5,-964 650.5,-945 594.5,-945"/>
<text text-anchor="middle" x="622.5" y="-952" font-family="Helvetica,sans-Serif" font-size="10.00">Utils::idx</text>
</a>
</g>
</g>
<!-- Node2&#45;&gt;Node17 -->
<g id="edge17" class="edge">
<title>Node2&#45;&gt;Node17</title>
<path fill="none" stroke="midnightblue" d="M231.4,-618.28C243.06,-647.71 278.5,-738.15 304,-814.5 321.78,-867.72 296.18,-900.46 340,-935.5 376.68,-964.83 516.33,-960.88 584.13,-957.05"/>
<polygon fill="midnightblue" stroke="midnightblue" points="584.59,-960.53 594.37,-956.44 584.18,-953.54 584.59,-960.53"/>
</g>
<!-- Node18 -->
<g id="node18" class="node">
<title>Node18</title>
<g id="a_node18"><a xlink:href="../../df/dfa/class_autowire_tool.html#a6d3cd96cedca7268da96cb4e478fe2c7" target="_top" xlink:title="Mark voxel grid cells which are occupied by the wiring.">
<polygon fill="white" stroke="black" points="340,-907 340,-926 510,-926 510,-907 340,-907"/>
<text text-anchor="middle" x="425" y="-914" font-family="Helvetica,sans-Serif" font-size="10.00">AutowireTool::markWireOccupation</text>
</a>
</g>
</g>
<!-- Node2&#45;&gt;Node18 -->
<g id="edge18" class="edge">
<title>Node2&#45;&gt;Node18</title>
<path fill="none" stroke="midnightblue" d="M231.16,-618.26C249.86,-668.15 334.2,-892.5 340,-897.5 341.79,-899.05 343.69,-900.47 345.66,-901.79"/>
<polygon fill="midnightblue" stroke="midnightblue" points="344.34,-905.06 354.78,-906.89 347.76,-898.95 344.34,-905.06"/>
</g>
<!-- Node20 -->
<g id="node20" class="node">
<title>Node20</title>
<g id="a_node20"><a xlink:href="../../dd/d10/class_connection.html#a24be5fb6fd21b1b0bbc9853b8075f9f4" target="_top" xlink:title="Set the graphical representation (vtkActor) of the connection geometry.">
<polygon fill="white" stroke="black" points="357.5,-442.5 357.5,-472.5 492.5,-472.5 492.5,-442.5 357.5,-442.5"/>
<text text-anchor="start" x="365.5" y="-460.5" font-family="Helvetica,sans-Serif" font-size="10.00">Connection::setConnection</text>
<text text-anchor="middle" x="425" y="-449.5" font-family="Helvetica,sans-Serif" font-size="10.00">Actor</text>
</a>
</g>
</g>
<!-- Node2&#45;&gt;Node20 -->
<g id="edge22" class="edge">
<title>Node2&#45;&gt;Node20</title>
<path fill="none" stroke="midnightblue" d="M233.95,-598.87C249.54,-576.28 291.61,-519.37 340,-487.5 346.22,-483.4 353.08,-479.78 360.1,-476.61"/>
<polygon fill="midnightblue" stroke="midnightblue" points="361.88,-479.66 369.74,-472.56 359.17,-473.2 361.88,-479.66"/>
</g>
<!-- Node21 -->
<g id="node21" class="node">
<title>Node21</title>
<g id="a_node21"><a xlink:href="../../dd/d10/class_connection.html#aa53698bb689af2a64f852309c6dbf6c8" target="_top" xlink:title="Set the geometry (vtkPolyData) of the connection.">
<polygon fill="white" stroke="black" points="357.5,-240.5 357.5,-270.5 492.5,-270.5 492.5,-240.5 357.5,-240.5"/>
<text text-anchor="start" x="365.5" y="-258.5" font-family="Helvetica,sans-Serif" font-size="10.00">Connection::setConnection</text>
<text text-anchor="middle" x="425" y="-247.5" font-family="Helvetica,sans-Serif" font-size="10.00">PolyData</text>
</a>
</g>
</g>
<!-- Node2&#45;&gt;Node21 -->
<g id="edge23" class="edge">
<title>Node2&#45;&gt;Node21</title>
<path fill="none" stroke="midnightblue" d="M227.77,-598.78C229.54,-554.97 242.71,-373.87 340,-280.5 342.6,-278 345.45,-275.75 348.46,-273.72"/>
<polygon fill="midnightblue" stroke="midnightblue" points="350.45,-276.62 357.36,-268.59 346.95,-270.56 350.45,-276.62"/>
</g>
<!-- Node22 -->
<g id="node22" class="node">
<title>Node22</title>
<g id="a_node22"><a xlink:href="../../dd/d10/class_connection.html#ae15a2ee585ad551838dbedc5bf71e22a" target="_top" xlink:title="Set the graphical line representation object (vtkActor)">
<polygon fill="white" stroke="black" points="361.5,-328 361.5,-347 488.5,-347 488.5,-328 361.5,-328"/>
<text text-anchor="middle" x="425" y="-335" font-family="Helvetica,sans-Serif" font-size="10.00">Connection::setLineActor</text>
</a>
</g>
</g>
<!-- Node2&#45;&gt;Node22 -->
<g id="edge24" class="edge">
<title>Node2&#45;&gt;Node22</title>
<path fill="none" stroke="midnightblue" d="M228.71,-598.92C233.99,-561.4 258.48,-423.32 340,-356.5 343.61,-353.54 347.59,-351.02 351.79,-348.88"/>
<polygon fill="midnightblue" stroke="midnightblue" points="353.51,-351.95 361.3,-344.76 350.73,-345.52 353.51,-351.95"/>
</g>
<!-- Node16&#45;&gt;Node15 -->
<g id="edge16" class="edge">
<title>Node16&#45;&gt;Node15</title>
<path fill="none" stroke="midnightblue" d="M505.52,-878.5C522.85,-878.5 540.98,-878.5 557.61,-878.5"/>
<polygon fill="midnightblue" stroke="midnightblue" points="557.76,-882 567.76,-878.5 557.76,-875 557.76,-882"/>
</g>
<!-- Node18&#45;&gt;Node15 -->
<g id="edge20" class="edge">
<title>Node18&#45;&gt;Node15</title>
<path fill="none" stroke="midnightblue" d="M475.08,-906.96C501.57,-901.81 534.47,-895.42 562.37,-889.99"/>
<polygon fill="midnightblue" stroke="midnightblue" points="563.25,-893.39 572.4,-888.04 561.92,-886.52 563.25,-893.39"/>
</g>
<!-- Node18&#45;&gt;Node17 -->
<g id="edge21" class="edge">
<title>Node18&#45;&gt;Node17</title>
<path fill="none" stroke="midnightblue" d="M475.08,-926.04C509.02,-932.64 553.47,-941.28 584.46,-947.3"/>
<polygon fill="midnightblue" stroke="midnightblue" points="583.93,-950.76 594.41,-949.23 585.26,-943.89 583.93,-950.76"/>
</g>
<!-- Node19 -->
<g id="node19" class="node">
<title>Node19</title>
<g id="a_node19"><a xlink:href="../../d6/db5/class_scene.html#a64cb0dcdcb57a45fe485fb3489c112c4" target="_top" xlink:title="Return if the 26&#45;neighborhood voxels of a connection path are locked too.">
<polygon fill="white" stroke="black" points="546,-907 546,-926 699,-926 699,-907 546,-907"/>
<text text-anchor="middle" x="622.5" y="-914" font-family="Helvetica,sans-Serif" font-size="10.00">Scene::getLockNeighborVoxels</text>
</a>
</g>
</g>
<!-- Node18&#45;&gt;Node19 -->
<g id="edge19" class="edge">
<title>Node18&#45;&gt;Node19</title>
<path fill="none" stroke="midnightblue" d="M510.04,-916.5C518.51,-916.5 527.11,-916.5 535.59,-916.5"/>
<polygon fill="midnightblue" stroke="midnightblue" points="535.85,-920 545.85,-916.5 535.85,-913 535.85,-920"/>
</g>
<!-- Node23&#45;&gt;Node10 -->
<g id="edge29" class="edge">
<title>Node23&#45;&gt;Node10</title>
<path fill="none" stroke="midnightblue" d="M270.14,-265.05C299.88,-271.71 339.76,-280.64 371.46,-287.74"/>
<polygon fill="midnightblue" stroke="midnightblue" points="370.92,-291.2 381.45,-289.97 372.45,-284.37 370.92,-291.2"/>
</g>
<!-- Node23&#45;&gt;Node11 -->
<g id="edge30" class="edge">
<title>Node23&#45;&gt;Node11</title>
<path fill="none" stroke="midnightblue" d="M232.29,-265.1C245.55,-290.63 285.43,-360.56 340,-394.5 346.95,-398.82 354.77,-402.17 362.77,-404.75"/>
<polygon fill="midnightblue" stroke="midnightblue" points="361.99,-408.17 372.57,-407.54 363.91,-401.44 361.99,-408.17"/>
</g>
<!-- Node23&#45;&gt;Node13 -->
<g id="edge31" class="edge">
<title>Node23&#45;&gt;Node13</title>
<path fill="none" stroke="midnightblue" d="M235.1,-265.03C251.78,-285.27 293.83,-332.64 340,-356.5 344.61,-358.88 349.52,-360.97 354.56,-362.8"/>
<polygon fill="midnightblue" stroke="midnightblue" points="353.77,-366.22 364.36,-366 355.94,-359.57 353.77,-366.22"/>
</g>
<!-- Node23&#45;&gt;Node20 -->
<g id="edge32" class="edge">
<title>Node23&#45;&gt;Node20</title>
<path fill="none" stroke="midnightblue" d="M230.87,-265.27C241.68,-295.12 278.41,-385.97 340,-432.5 342.61,-434.47 345.37,-436.29 348.25,-437.96"/>
<polygon fill="midnightblue" stroke="midnightblue" points="346.67,-441.08 357.16,-442.57 349.88,-434.87 346.67,-441.08"/>
</g>
<!-- Node23&#45;&gt;Node21 -->
<g id="edge33" class="edge">
<title>Node23&#45;&gt;Node21</title>
<path fill="none" stroke="midnightblue" d="M304.03,-255.5C318.17,-255.5 332.93,-255.5 347.08,-255.5"/>
<polygon fill="midnightblue" stroke="midnightblue" points="347.25,-259 357.25,-255.5 347.25,-252 347.25,-259"/>
</g>
<!-- Node23&#45;&gt;Node22 -->
<g id="edge35" class="edge">
<title>Node23&#45;&gt;Node22</title>
<path fill="none" stroke="midnightblue" d="M241.41,-265.04C262.05,-278.78 302.38,-304.06 340,-318.5 346.72,-321.08 353.88,-323.36 361.08,-325.36"/>
<polygon fill="midnightblue" stroke="midnightblue" points="360.32,-328.78 370.88,-327.92 362.09,-322.01 360.32,-328.78"/>
</g>
<!-- Node24 -->
<g id="node24" class="node">
<title>Node24</title>
<g id="a_node24"><a xlink:href="../../dd/d10/class_connection.html#a96ce1fa7643d6de71dd728e0d9c2ead0" target="_top" xlink:title="Return the graphical representation (vtkActor) of the connection geometry.">
<polygon fill="white" stroke="black" points="357.5,-0.5 357.5,-30.5 492.5,-30.5 492.5,-0.5 357.5,-0.5"/>
<text text-anchor="start" x="365.5" y="-18.5" font-family="Helvetica,sans-Serif" font-size="10.00">Connection::getConnection</text>
<text text-anchor="middle" x="425" y="-7.5" font-family="Helvetica,sans-Serif" font-size="10.00">Actor</text>
</a>
</g>
</g>
<!-- Node23&#45;&gt;Node24 -->
<g id="edge26" class="edge">
<title>Node23&#45;&gt;Node24</title>
<path fill="none" stroke="midnightblue" d="M229.74,-245.63C237.96,-211.64 269.76,-98.35 340,-40.5 342.58,-38.37 345.34,-36.42 348.23,-34.64"/>
<polygon fill="midnightblue" stroke="midnightblue" points="350.09,-37.62 357.22,-29.78 346.76,-31.46 350.09,-37.62"/>
</g>
<!-- Node25 -->
<g id="node25" class="node">
<title>Node25</title>
<g id="a_node25"><a xlink:href="../../dd/d10/class_connection.html#a6dfa62a677e8a374e02559892853b4d9" target="_top" xlink:title="Return the graphical line representation object (vtkActor) of the connection.">
<polygon fill="white" stroke="black" points="361.5,-202 361.5,-221 488.5,-221 488.5,-202 361.5,-202"/>
<text text-anchor="middle" x="425" y="-209" font-family="Helvetica,sans-Serif" font-size="10.00">Connection::getLineActor</text>
</a>
</g>
</g>
<!-- Node23&#45;&gt;Node25 -->
<g id="edge27" class="edge">
<title>Node23&#45;&gt;Node25</title>
<path fill="none" stroke="midnightblue" d="M270.14,-245.95C299.88,-239.29 339.76,-230.36 371.46,-223.26"/>
<polygon fill="midnightblue" stroke="midnightblue" points="372.45,-226.63 381.45,-221.03 370.92,-219.8 372.45,-226.63"/>
</g>
<!-- Node26 -->
<g id="node26" class="node">
<title>Node26</title>
<g id="a_node26"><a xlink:href="../../dd/d10/class_connection.html#a5269756a5f3eabbc5ee96df7d53ac992" target="_top" xlink:title="Return the value of the markNeighborhood flag.">
<polygon fill="white" stroke="black" points="340,-164 340,-183 510,-183 510,-164 340,-164"/>
<text text-anchor="middle" x="425" y="-171" font-family="Helvetica,sans-Serif" font-size="10.00">Connection::getMarkNeighborHood</text>
</a>
</g>
</g>
<!-- Node23&#45;&gt;Node26 -->
<g id="edge28" class="edge">
<title>Node23&#45;&gt;Node26</title>
<path fill="none" stroke="midnightblue" d="M241.41,-245.96C262.05,-232.22 302.38,-206.94 340,-192.5 346.72,-189.92 353.88,-187.64 361.08,-185.64"/>
<polygon fill="midnightblue" stroke="midnightblue" points="362.09,-188.99 370.88,-183.08 360.32,-182.22 362.09,-188.99"/>
</g>
<!-- Node27 -->
<g id="node27" class="node">
<title>Node27</title>
<g id="a_node27"><a xlink:href="../../dd/d10/class_connection.html#ab326c063ff3ad8a7261e2893dbe01bb1" target="_top" xlink:title="Set the pointer to the destination connector.">
<polygon fill="white" stroke="black" points="357.5,-126 357.5,-145 492.5,-145 492.5,-126 357.5,-126"/>
<text text-anchor="middle" x="425" y="-133" font-family="Helvetica,sans-Serif" font-size="10.00">Connection::setDestination</text>
</a>
</g>
</g>
<!-- Node23&#45;&gt;Node27 -->
<g id="edge34" class="edge">
<title>Node23&#45;&gt;Node27</title>
<path fill="none" stroke="midnightblue" d="M235.1,-245.97C251.78,-225.73 293.83,-178.36 340,-154.5 344.61,-152.12 349.52,-150.03 354.56,-148.2"/>
<polygon fill="midnightblue" stroke="midnightblue" points="355.94,-151.43 364.36,-145 353.77,-144.78 355.94,-151.43"/>
</g>
<!-- Node28 -->
<g id="node28" class="node">
<title>Node28</title>
<g id="a_node28"><a xlink:href="../../dd/d10/class_connection.html#a6ffa49b4f1ad929605b3562b6c8951b2" target="_top" xlink:title="Set the pointer to the source touchpoint.">
<polygon fill="white" stroke="black" points="367,-88 367,-107 483,-107 483,-88 367,-88"/>
<text text-anchor="middle" x="425" y="-95" font-family="Helvetica,sans-Serif" font-size="10.00">Connection::setSource</text>
</a>
</g>
</g>
<!-- Node23&#45;&gt;Node28 -->
<g id="edge36" class="edge">
<title>Node23&#45;&gt;Node28</title>
<path fill="none" stroke="midnightblue" d="M232.29,-245.9C245.55,-220.37 285.43,-150.44 340,-116.5 345.33,-113.18 351.18,-110.44 357.22,-108.18"/>
<polygon fill="midnightblue" stroke="midnightblue" points="358.44,-111.46 366.84,-105 356.24,-104.82 358.44,-111.46"/>
</g>
<!-- Node29 -->
<g id="node29" class="node">
<title>Node29</title>
<g id="a_node29"><a xlink:href="../../de/d52/class_a_star.html#a38fa07c212033976433ac07e04d2f626" target="_top" xlink:title="Unmark a path (unlock)">
<polygon fill="white" stroke="black" points="375,-50 375,-69 475,-69 475,-50 375,-50"/>
<text text-anchor="middle" x="425" y="-57" font-family="Helvetica,sans-Serif" font-size="10.00">AStar::unmarkPath</text>
</a>
</g>
</g>
<!-- Node23&#45;&gt;Node29 -->
<g id="edge37" class="edge">
<title>Node23&#45;&gt;Node29</title>
<path fill="none" stroke="midnightblue" d="M230.59,-245.98C240.82,-216.03 276.59,-123.15 340,-78.5 347.45,-73.25 356.12,-69.43 364.99,-66.64"/>
<polygon fill="midnightblue" stroke="midnightblue" points="365.93,-70.02 374.67,-64.01 364.1,-63.26 365.93,-70.02"/>
</g>
<!-- Node30 -->
<g id="node30" class="node">
<title>Node30</title>
<g id="a_node30"><a xlink:href="../../de/d52/class_a_star.html#aa76c29f42861c4f6fc7c328e4dbc7d83" target="_top" xlink:title="Mark a path as locked so that it can not be used by another search.">
<polygon fill="white" stroke="black" points="578,-50 578,-69 667,-69 667,-50 578,-50"/>
<text text-anchor="middle" x="622.5" y="-57" font-family="Helvetica,sans-Serif" font-size="10.00">AStar::markPath</text>
</a>
</g>
</g>
<!-- Node29&#45;&gt;Node30 -->
<g id="edge38" class="edge">
<title>Node29&#45;&gt;Node30</title>
<path fill="none" stroke="midnightblue" d="M475.08,-59.5C503.19,-59.5 538.5,-59.5 567.4,-59.5"/>
<polygon fill="midnightblue" stroke="midnightblue" points="567.74,-63 577.74,-59.5 567.74,-56 567.74,-63"/>
</g>
</g>
</svg>
