<?xml version="1.0" encoding="UTF-8" standalone="no"?>
<!DOCTYPE svg PUBLIC "-//W3C//DTD SVG 1.1//EN"
 "http://www.w3.org/Graphics/SVG/1.1/DTD/svg11.dtd">
<!-- Generated by graphviz version 2.44.1 (0)
 -->
<!-- Title: AutowireTool::execute Pages: 1 -->
<svg width="707pt" height="1010pt"
 viewBox="0.00 0.00 707.00 1009.50" xmlns="http://www.w3.org/2000/svg" xmlns:xlink="http://www.w3.org/1999/xlink">
<g id="graph0" class="graph" transform="scale(1 1) rotate(0) translate(4 1005.5)">
<title>AutowireTool::execute</title>
<polygon fill="white" stroke="transparent" points="-4,4 -4,-1005.5 703,-1005.5 703,4 -4,4"/>
<!-- Node1 -->
<g id="node1" class="node">
<title>Node1</title>
<g id="a_node1"><a xlink:title="Execute autowiring tool.">
<polygon fill="#bfbfbf" stroke="black" points="0,-516 0,-535 113,-535 113,-516 0,-516"/>
<text text-anchor="middle" x="56.5" y="-523" font-family="Helvetica,sans-Serif" font-size="10.00">AutowireTool::execute</text>
</a>
</g>
</g>
<!-- Node2 -->
<g id="node2" class="node">
<title>Node2</title>
<g id="a_node2"><a xlink:href="../../df/dfa/class_autowire_tool.html#a45e5cdff2b089a3594c38021ef5d27a7" target="_top" xlink:title="Add wiring geometry of a connection to the scene (tubes)">
<polygon fill="white" stroke="black" points="154.5,-598 154.5,-617 298.5,-617 298.5,-598 154.5,-598"/>
<text text-anchor="middle" x="226.5" y="-605" font-family="Helvetica,sans-Serif" font-size="10.00">AutowireTool::addConnection</text>
</a>
</g>
</g>
<!-- Node1&#45;&gt;Node2 -->
<g id="edge1" class="edge">
<title>Node1&#45;&gt;Node2</title>
<path fill="none" stroke="midnightblue" d="M77.1,-535.07C106.69,-549.51 162.93,-576.96 197.03,-593.6"/>
<polygon fill="midnightblue" stroke="midnightblue" points="195.5,-596.75 206.02,-597.99 198.57,-590.46 195.5,-596.75"/>
</g>
<!-- Node11 -->
<g id="node11" class="node">
<title>Node11</title>
<g id="a_node11"><a xlink:href="../../d6/db5/class_scene.html#a8bf8e4b441886787dc82c2caa9b25884" target="_top" xlink:title="Return the vtkRenderer of the scene.">
<polygon fill="white" stroke="black" points="373,-830 373,-849 477,-849 477,-830 373,-830"/>
<text text-anchor="middle" x="425" y="-837" font-family="Helvetica,sans-Serif" font-size="10.00">Scene::getRenderer</text>
</a>
</g>
</g>
<!-- Node1&#45;&gt;Node11 -->
<g id="edge39" class="edge">
<title>Node1&#45;&gt;Node11</title>
<path fill="none" stroke="midnightblue" d="M63.48,-535.11C90.01,-576.83 201.82,-743.6 340,-820.5 347.15,-824.48 355.09,-827.63 363.14,-830.11"/>
<polygon fill="midnightblue" stroke="midnightblue" points="362.41,-833.54 372.98,-832.83 364.28,-826.8 362.41,-833.54"/>
</g>
<!-- Node13 -->
<g id="node13" class="node">
<title>Node13</title>
<g id="a_node13"><a xlink:href="../../d6/db5/class_scene.html#a5c26ef724365bd55c471acc673d60674" target="_top" xlink:title="Return the touchpoint registry of the scene.">
<polygon fill="white" stroke="black" points="351,-290 351,-309 499,-309 499,-290 351,-290"/>
<text text-anchor="middle" x="425" y="-297" font-family="Helvetica,sans-Serif" font-size="10.00">Scene::getTouchpointRegistry</text>
</a>
</g>
</g>
<!-- Node1&#45;&gt;Node13 -->
<g id="edge40" class="edge">
<title>Node1&#45;&gt;Node13</title>
<path fill="none" stroke="midnightblue" d="M67.28,-515.91C101.53,-482.88 220.48,-372.94 340,-318.5 345.4,-316.04 351.15,-313.88 357.01,-312"/>
<polygon fill="midnightblue" stroke="midnightblue" points="358.33,-315.26 366.93,-309.08 356.35,-308.55 358.33,-315.26"/>
</g>
<!-- Node23 -->
<g id="node23" class="node">
<title>Node23</title>
<g id="a_node23"><a xlink:href="../../df/dfa/class_autowire_tool.html#ac4f7efcdb1dc1b668afa7273d832b7eb" target="_top" xlink:title="Remove all wiring connections.">
<polygon fill="white" stroke="black" points="149,-246 149,-265 304,-265 304,-246 149,-246"/>
<text text-anchor="middle" x="226.5" y="-253" font-family="Helvetica,sans-Serif" font-size="10.00">AutowireTool::clearConnections</text>
</a>
</g>
</g>
<!-- Node1&#45;&gt;Node23 -->
<g id="edge25" class="edge">
<title>Node1&#45;&gt;Node23</title>
<path fill="none" stroke="midnightblue" d="M62.82,-515.73C76.53,-490.73 114.37,-422.48 149,-367.5 170.3,-333.68 196.99,-295.47 212.55,-273.56"/>
<polygon fill="midnightblue" stroke="midnightblue" points="215.54,-275.4 218.5,-265.22 209.84,-271.33 215.54,-275.4"/>
</g>
<!-- Node3 -->
<g id="node3" class="node">
<title>Node3</title>
<g id="a_node3"><a xlink:href="../../d1/d7c/namespace_utils.html#adfd018a6efe0bd54e0e8344ecc1fe208" target="_top" xlink:title="Compute world coordinate equivalent of voxel grid integer index.">
<polygon fill="white" stroke="black" points="382,-792 382,-811 468,-811 468,-792 382,-792"/>
<text text-anchor="middle" x="425" y="-799" font-family="Helvetica,sans-Serif" font-size="10.00">Utils::cellToPos</text>
</a>
</g>
</g>
<!-- Node2&#45;&gt;Node3 -->
<g id="edge2" class="edge">
<title>Node2&#45;&gt;Node3</title>
<path fill="none" stroke="midnightblue" d="M233.14,-617.12C253.67,-651.96 323.99,-770.18 340,-781.5 349.37,-788.13 360.65,-792.58 371.86,-795.56"/>
<polygon fill="midnightblue" stroke="midnightblue" points="371.11,-798.98 381.65,-797.83 372.69,-792.16 371.11,-798.98"/>
</g>
<!-- Node4 -->
<g id="node4" class="node">
<title>Node4</title>
<g id="a_node4"><a xlink:href="../../d9/d58/class_touchpoint.html#ad2583d5312abcd383e7b12c841668a19" target="_top" xlink:title="Return outside wiring entry point (world coordinates)">
<polygon fill="white" stroke="black" points="358.5,-742.5 358.5,-772.5 491.5,-772.5 491.5,-742.5 358.5,-742.5"/>
<text text-anchor="start" x="366.5" y="-760.5" font-family="Helvetica,sans-Serif" font-size="10.00">Touchpoint::getConnection</text>
<text text-anchor="middle" x="425" y="-749.5" font-family="Helvetica,sans-Serif" font-size="10.00">Point</text>
</a>
</g>
</g>
<!-- Node2&#45;&gt;Node4 -->
<g id="edge3" class="edge">
<title>Node2&#45;&gt;Node4</title>
<path fill="none" stroke="midnightblue" d="M233.53,-617.28C248.52,-640.79 289.9,-700.84 340,-732.5 343.31,-734.59 346.79,-736.51 350.4,-738.28"/>
<polygon fill="midnightblue" stroke="midnightblue" points="348.98,-741.48 359.54,-742.36 351.84,-735.09 348.98,-741.48"/>
</g>
<!-- Node5 -->
<g id="node5" class="node">
<title>Node5</title>
<g id="a_node5"><a xlink:href="../../d9/d58/class_touchpoint.html#a30cdb1f0de39cf4ffe2d23c3c750d331" target="_top" xlink:title="Return outside wiring entry point (grid coordinates)">
<polygon fill="white" stroke="black" points="358.5,-693.5 358.5,-723.5 491.5,-723.5 491.5,-693.5 358.5,-693.5"/>
<text text-anchor="start" x="366.5" y="-711.5" font-family="Helvetica,sans-Serif" font-size="10.00">Touchpoint::getConnection</text>
<text text-anchor="middle" x="425" y="-700.5" font-family="Helvetica,sans-Serif" font-size="10.00">PointIndex</text>
</a>
</g>
</g>
<!-- Node2&#45;&gt;Node5 -->
<g id="edge4" class="edge">
<title>Node2&#45;&gt;Node5</title>
<path fill="none" stroke="midnightblue" d="M239.24,-617.24C258.94,-633.13 300.37,-664.76 340,-683.5 344.9,-685.82 350.06,-687.97 355.32,-689.97"/>
<polygon fill="midnightblue" stroke="midnightblue" points="354.26,-693.31 364.85,-693.39 356.62,-686.72 354.26,-693.31"/>
</g>
<!-- Node6 -->
<g id="node6" class="node">
<title>Node6</title>
<g id="a_node6"><a xlink:href="../../dd/d10/class_connection.html#ab0ec3e9eeabc5e25b8dfcdd47cda182b" target="_top" xlink:title="Return the pointer to the destination connector.">
<polygon fill="white" stroke="black" points="357.5,-655 357.5,-674 492.5,-674 492.5,-655 357.5,-655"/>
<text text-anchor="middle" x="425" y="-662" font-family="Helvetica,sans-Serif" font-size="10.00">Connection::getDestination</text>
</a>
</g>
</g>
<!-- Node2&#45;&gt;Node6 -->
<g id="edge5" class="edge">
<title>Node2&#45;&gt;Node6</title>
<path fill="none" stroke="midnightblue" d="M253.18,-617.02C275.83,-625.21 309.83,-637.02 340,-645.5 349.08,-648.05 358.79,-650.5 368.26,-652.74"/>
<polygon fill="midnightblue" stroke="midnightblue" points="367.48,-656.15 378.01,-655 369.05,-649.33 367.48,-656.15"/>
</g>
<!-- Node7 -->
<g id="node7" class="node">
<title>Node7</title>
<g id="a_node7"><a xlink:href="../../d9/d58/class_touchpoint.html#a25425137e60d6d5f21d597e8f6632eed" target="_top" xlink:title="Return the interior wiring connection position (world coordinates)">
<polygon fill="white" stroke="black" points="350.5,-617 350.5,-636 499.5,-636 499.5,-617 350.5,-617"/>
<text text-anchor="middle" x="425" y="-624" font-family="Helvetica,sans-Serif" font-size="10.00">Touchpoint::getInteriorPosition</text>
</a>
</g>
</g>
<!-- Node2&#45;&gt;Node7 -->
<g id="edge6" class="edge">
<title>Node2&#45;&gt;Node7</title>
<path fill="none" stroke="midnightblue" d="M298.72,-614.39C312.24,-615.69 326.5,-617.07 340.37,-618.41"/>
<polygon fill="midnightblue" stroke="midnightblue" points="340.09,-621.9 350.38,-619.38 340.76,-614.94 340.09,-621.9"/>
</g>
<!-- Node8 -->
<g id="node8" class="node">
<title>Node8</title>
<g id="a_node8"><a xlink:href="../../d6/db5/class_scene.html#accf5c16477aba3397a083ded76f2c5f5" target="_top" xlink:title="Return the geometric data (vtkPolyData) of the mesh.">
<polygon fill="white" stroke="black" points="361,-579 361,-598 489,-598 489,-579 361,-579"/>
<text text-anchor="middle" x="425" y="-586" font-family="Helvetica,sans-Serif" font-size="10.00">Scene::getMeshPolyData</text>
</a>
</g>
</g>
<!-- Node2&#45;&gt;Node8 -->
<g id="edge7" class="edge">
<title>Node2&#45;&gt;Node8</title>
<path fill="none" stroke="midnightblue" d="M298.72,-600.61C315.55,-598.99 333.52,-597.25 350.45,-595.61"/>
<polygon fill="midnightblue" stroke="midnightblue" points="351.22,-599.05 360.83,-594.61 350.54,-592.09 351.22,-599.05"/>
</g>
<!-- Node9 -->
<g id="node9" class="node">
<title>Node9</title>
<g id="a_node9"><a xlink:href="../../d6/db5/class_scene.html#a9c15511eba6900e36681315c7e5911c5" target="_top" xlink:title="Return the scaled size of the mesh (in mm)">
<polygon fill="white" stroke="black" points="359.5,-541 359.5,-560 490.5,-560 490.5,-541 359.5,-541"/>
<text text-anchor="middle" x="425" y="-548" font-family="Helvetica,sans-Serif" font-size="10.00">Scene::getMeshScalesize</text>
</a>
</g>
</g>
<!-- Node2&#45;&gt;Node9 -->
<g id="edge8" class="edge">
<title>Node2&#45;&gt;Node9</title>
<path fill="none" stroke="midnightblue" d="M253.18,-597.98C275.83,-589.79 309.83,-577.98 340,-569.5 349.08,-566.95 358.79,-564.5 368.26,-562.26"/>
<polygon fill="midnightblue" stroke="midnightblue" points="369.05,-565.67 378.01,-560 367.48,-558.85 369.05,-565.67"/>
</g>
<!-- Node10 -->
<g id="node10" class="node">
<title>Node10</title>
<g id="a_node10"><a xlink:href="../../dd/d10/class_connection.html#a621375a3053bac56b06b25cf79e5a5b4" target="_top" xlink:title="Return the connection path as a vector of 3d voxel grid indices.">
<polygon fill="white" stroke="black" points="372,-328 372,-347 478,-347 478,-328 372,-328"/>
<text text-anchor="middle" x="425" y="-335" font-family="Helvetica,sans-Serif" font-size="10.00">Connection::getPath</text>
</a>
</g>
</g>
<!-- Node2&#45;&gt;Node10 -->
<g id="edge9" class="edge">
<title>Node2&#45;&gt;Node10</title>
<path fill="none" stroke="midnightblue" d="M230.57,-597.74C244.01,-555.65 298.8,-390.23 340,-356.5 346.42,-351.25 353.99,-347.38 361.93,-344.54"/>
<polygon fill="midnightblue" stroke="midnightblue" points="363.18,-347.82 371.73,-341.57 361.15,-341.12 363.18,-347.82"/>
</g>
<!-- Node2&#45;&gt;Node11 -->
<g id="edge10" class="edge">
<title>Node2&#45;&gt;Node11</title>
<path fill="none" stroke="midnightblue" d="M233.67,-617.06C247.25,-638.26 280.37,-691.05 304,-737.5 322.23,-773.34 309.04,-794.84 340,-820.5 346.78,-826.11 354.87,-830.15 363.33,-833.04"/>
<polygon fill="midnightblue" stroke="midnightblue" points="362.4,-836.41 372.98,-835.84 364.35,-829.69 362.4,-836.41"/>
</g>
<!-- Node12 -->
<g id="node12" class="node">
<title>Node12</title>
<g id="a_node12"><a xlink:href="../../dd/d10/class_connection.html#a2994130b16d96ca737bf5f988996449e" target="_top" xlink:title="Return the pointer to the source touchpoint.">
<polygon fill="white" stroke="black" points="367,-503 367,-522 483,-522 483,-503 367,-503"/>
<text text-anchor="middle" x="425" y="-510" font-family="Helvetica,sans-Serif" font-size="10.00">Connection::getSource</text>
</a>
</g>
</g>
<!-- Node2&#45;&gt;Node12 -->
<g id="edge11" class="edge">
<title>Node2&#45;&gt;Node12</title>
<path fill="none" stroke="midnightblue" d="M238.49,-597.99C257.72,-581.83 299.33,-549.09 340,-531.5 345.85,-528.97 352.09,-526.75 358.42,-524.82"/>
<polygon fill="midnightblue" stroke="midnightblue" points="359.72,-528.09 368.39,-522 357.82,-521.35 359.72,-528.09"/>
</g>
<!-- Node2&#45;&gt;Node13 -->
<g id="edge12" class="edge">
<title>Node2&#45;&gt;Node13</title>
<path fill="none" stroke="midnightblue" d="M230.94,-597.92C248.57,-548.96 328.4,-328.49 340,-318.5 341.79,-316.95 343.69,-315.53 345.66,-314.21"/>
<polygon fill="midnightblue" stroke="midnightblue" points="347.76,-317.05 354.78,-309.11 344.34,-310.94 347.76,-317.05"/>
</g>
<!-- Node14 -->
<g id="node14" class="node">
<title>Node14</title>
<g id="a_node14"><a xlink:href="../../d9/d58/class_touchpoint.html#a2ffa73d162c4ede0fd78bf6da2107cd8" target="_top" xlink:title="Return if touchpoint uses a separate connection point.">
<polygon fill="white" stroke="black" points="349.5,-453.5 349.5,-483.5 500.5,-483.5 500.5,-453.5 349.5,-453.5"/>
<text text-anchor="start" x="357.5" y="-471.5" font-family="Helvetica,sans-Serif" font-size="10.00">Touchpoint::getUseConnection</text>
<text text-anchor="middle" x="425" y="-460.5" font-family="Helvetica,sans-Serif" font-size="10.00">Point</text>
</a>
</g>
</g>
<!-- Node2&#45;&gt;Node14 -->
<g id="edge13" class="edge">
<title>Node2&#45;&gt;Node14</title>
<path fill="none" stroke="midnightblue" d="M234.21,-597.96C250.06,-576.14 292.08,-522.27 340,-493.5 343.6,-491.34 347.39,-489.36 351.3,-487.54"/>
<polygon fill="midnightblue" stroke="midnightblue" points="352.77,-490.72 360.59,-483.58 350.02,-484.28 352.77,-490.72"/>
</g>
<!-- Node15 -->
<g id="node15" class="node">
<title>Node15</title>
<g id="a_node15"><a xlink:href="../../d6/db5/class_scene.html#a7e5ee53ea01ef113afaaf4b7c10accf3" target="_top" xlink:title="Return the voxel grid image data.">
<polygon fill="white" stroke="black" points="568,-944 568,-963 677,-963 677,-944 568,-944"/>
<text text-anchor="middle" x="622.5" y="-951" font-family="Helvetica,sans-Serif" font-size="10.00">Scene::getVoxelData</text>
</a>
</g>
</g>
<!-- Node2&#45;&gt;Node15 -->
<g id="edge14" class="edge">
<title>Node2&#45;&gt;Node15</title>
<path fill="none" stroke="midnightblue" d="M227.33,-617.11C227.12,-662.01 232.74,-852.38 340,-934.5 372.85,-959.65 484.94,-959.88 557.37,-957.13"/>
<polygon fill="midnightblue" stroke="midnightblue" points="557.91,-960.61 567.76,-956.7 557.63,-953.62 557.91,-960.61"/>
</g>
<!-- Node16 -->
<g id="node16" class="node">
<title>Node16</title>
<g id="a_node16"><a xlink:href="../../d6/db5/class_scene.html#af78767d0af348d25ddf80ef8cfe1f67a" target="_top" xlink:title="Return dimensions of the voxel data.">
<polygon fill="white" stroke="black" points="344.5,-982 344.5,-1001 505.5,-1001 505.5,-982 344.5,-982"/>
<text text-anchor="middle" x="425" y="-989" font-family="Helvetica,sans-Serif" font-size="10.00">Scene::getVoxelDataDimensions</text>
</a>
</g>
</g>
<!-- Node2&#45;&gt;Node16 -->
<g id="edge15" class="edge">
<title>Node2&#45;&gt;Node16</title>
<path fill="none" stroke="midnightblue" d="M227.41,-617.22C227.53,-663.6 234.31,-864.38 340,-967.5 344,-971.41 348.6,-974.68 353.53,-977.44"/>
<polygon fill="midnightblue" stroke="midnightblue" points="352.18,-980.67 362.71,-981.84 355.2,-974.36 352.18,-980.67"/>
</g>
<!-- Node17 -->
<g id="node17" class="node">
<title>Node17</title>
<g id="a_node17"><a xlink:href="../../d1/d7c/namespace_utils.html#a606fb1eb5072ca20f56293fa71bd8578" target="_top" xlink:title="Compute 1D linearized index from 3D&#45;coodinate index.">
<polygon fill="white" stroke="black" points="594.5,-868 594.5,-887 650.5,-887 650.5,-868 594.5,-868"/>
<text text-anchor="middle" x="622.5" y="-875" font-family="Helvetica,sans-Serif" font-size="10.00">Utils::idx</text>
</a>
</g>
</g>
<!-- Node2&#45;&gt;Node17 -->
<g id="edge17" class="edge">
<title>Node2&#45;&gt;Node17</title>
<path fill="none" stroke="midnightblue" d="M228.41,-617.17C232.57,-655.6 253.6,-798.32 340,-858.5 413.75,-909.87 526.39,-897.36 584.29,-886.16"/>
<polygon fill="midnightblue" stroke="midnightblue" points="585,-889.58 594.1,-884.17 583.61,-882.72 585,-889.58"/>
</g>
<!-- Node18 -->
<g id="node18" class="node">
<title>Node18</title>
<g id="a_node18"><a xlink:href="../../df/dfa/class_autowire_tool.html#a6d3cd96cedca7268da96cb4e478fe2c7" target="_top" xlink:title="Mark voxel grid cells which are occupied by the wiring.">
<polygon fill="white" stroke="black" points="340,-906 340,-925 510,-925 510,-906 340,-906"/>
<text text-anchor="middle" x="425" y="-913" font-family="Helvetica,sans-Serif" font-size="10.00">AutowireTool::markWireOccupation</text>
</a>
</g>
</g>
<!-- Node2&#45;&gt;Node18 -->
<g id="edge18" class="edge">
<title>Node2&#45;&gt;Node18</title>
<path fill="none" stroke="midnightblue" d="M228.31,-617.02C232.22,-656.93 252.74,-812.47 340,-891.5 344.46,-895.54 349.57,-898.91 355,-901.71"/>
<polygon fill="midnightblue" stroke="midnightblue" points="353.84,-905.03 364.4,-905.92 356.7,-898.64 353.84,-905.03"/>
</g>
<!-- Node20 -->
<g id="node20" class="node">
<title>Node20</title>
<g id="a_node20"><a xlink:href="../../dd/d10/class_connection.html#a24be5fb6fd21b1b0bbc9853b8075f9f4" target="_top" xlink:title="Set the graphical representation (vtkActor) of the connection geometry.">
<polygon fill="white" stroke="black" points="357.5,-240.5 357.5,-270.5 492.5,-270.5 492.5,-240.5 357.5,-240.5"/>
<text text-anchor="start" x="365.5" y="-258.5" font-family="Helvetica,sans-Serif" font-size="10.00">Connection::setConnection</text>
<text text-anchor="middle" x="425" y="-247.5" font-family="Helvetica,sans-Serif" font-size="10.00">Actor</text>
</a>
</g>
</g>
<!-- Node2&#45;&gt;Node20 -->
<g id="edge22" class="edge">
<title>Node2&#45;&gt;Node20</title>
<path fill="none" stroke="midnightblue" d="M227.78,-597.81C229.6,-554.13 242.93,-373.57 340,-280.5 342.61,-278 345.45,-275.75 348.46,-273.73"/>
<polygon fill="midnightblue" stroke="midnightblue" points="350.45,-276.62 357.36,-268.59 346.95,-270.56 350.45,-276.62"/>
</g>
<!-- Node21 -->
<g id="node21" class="node">
<title>Node21</title>
<g id="a_node21"><a xlink:href="../../dd/d10/class_connection.html#aa53698bb689af2a64f852309c6dbf6c8" target="_top" xlink:title="Set the geometry (vtkPolyData) of the connection.">
<polygon fill="white" stroke="black" points="357.5,-404.5 357.5,-434.5 492.5,-434.5 492.5,-404.5 357.5,-404.5"/>
<text text-anchor="start" x="365.5" y="-422.5" font-family="Helvetica,sans-Serif" font-size="10.00">Connection::setConnection</text>
<text text-anchor="middle" x="425" y="-411.5" font-family="Helvetica,sans-Serif" font-size="10.00">PolyData</text>
</a>
</g>
</g>
<!-- Node2&#45;&gt;Node21 -->
<g id="edge23" class="edge">
<title>Node2&#45;&gt;Node21</title>
<path fill="none" stroke="midnightblue" d="M231.39,-597.62C243.15,-569.08 281.15,-485.86 340,-443.5 342.65,-441.59 345.44,-439.84 348.34,-438.23"/>
<polygon fill="midnightblue" stroke="midnightblue" points="349.9,-441.36 357.31,-433.78 346.79,-435.09 349.9,-441.36"/>
</g>
<!-- Node22 -->
<g id="node22" class="node">
<title>Node22</title>
<g id="a_node22"><a xlink:href="../../dd/d10/class_connection.html#ae15a2ee585ad551838dbedc5bf71e22a" target="_top" xlink:title="Set the graphical line representation object (vtkActor)">
<polygon fill="white" stroke="black" points="361.5,-366 361.5,-385 488.5,-385 488.5,-366 361.5,-366"/>
<text text-anchor="middle" x="425" y="-373" font-family="Helvetica,sans-Serif" font-size="10.00">Connection::setLineActor</text>
</a>
</g>
</g>
<!-- Node2&#45;&gt;Node22 -->
<g id="edge24" class="edge">
<title>Node2&#45;&gt;Node22</title>
<path fill="none" stroke="midnightblue" d="M229.63,-597.55C237.5,-563.3 268.29,-449.43 340,-394.5 343.64,-391.71 347.61,-389.32 351.78,-387.27"/>
<polygon fill="midnightblue" stroke="midnightblue" points="353.33,-390.42 361.18,-383.3 350.6,-383.97 353.33,-390.42"/>
</g>
<!-- Node16&#45;&gt;Node15 -->
<g id="edge16" class="edge">
<title>Node16&#45;&gt;Node15</title>
<path fill="none" stroke="midnightblue" d="M475.08,-981.96C501.57,-976.81 534.47,-970.42 562.37,-964.99"/>
<polygon fill="midnightblue" stroke="midnightblue" points="563.25,-968.39 572.4,-963.04 561.92,-961.52 563.25,-968.39"/>
</g>
<!-- Node18&#45;&gt;Node15 -->
<g id="edge20" class="edge">
<title>Node18&#45;&gt;Node15</title>
<path fill="none" stroke="midnightblue" d="M475.08,-925.04C501.57,-930.19 534.47,-936.58 562.37,-942.01"/>
<polygon fill="midnightblue" stroke="midnightblue" points="561.92,-945.48 572.4,-943.96 563.25,-938.61 561.92,-945.48"/>
</g>
<!-- Node18&#45;&gt;Node17 -->
<g id="edge21" class="edge">
<title>Node18&#45;&gt;Node17</title>
<path fill="none" stroke="midnightblue" d="M475.08,-905.96C509.02,-899.36 553.47,-890.72 584.46,-884.7"/>
<polygon fill="midnightblue" stroke="midnightblue" points="585.26,-888.11 594.41,-882.77 583.93,-881.24 585.26,-888.11"/>
</g>
<!-- Node19 -->
<g id="node19" class="node">
<title>Node19</title>
<g id="a_node19"><a xlink:href="../../d6/db5/class_scene.html#a64cb0dcdcb57a45fe485fb3489c112c4" target="_top" xlink:title="Return if the 26&#45;neighborhood voxels of a connection path are locked too.">
<polygon fill="white" stroke="black" points="546,-906 546,-925 699,-925 699,-906 546,-906"/>
<text text-anchor="middle" x="622.5" y="-913" font-family="Helvetica,sans-Serif" font-size="10.00">Scene::getLockNeighborVoxels</text>
</a>
</g>
</g>
<!-- Node18&#45;&gt;Node19 -->
<g id="edge19" class="edge">
<title>Node18&#45;&gt;Node19</title>
<path fill="none" stroke="midnightblue" d="M510.04,-915.5C518.51,-915.5 527.11,-915.5 535.59,-915.5"/>
<polygon fill="midnightblue" stroke="midnightblue" points="535.85,-919 545.85,-915.5 535.85,-912 535.85,-919"/>
</g>
<!-- Node23&#45;&gt;Node10 -->
<g id="edge29" class="edge">
<title>Node23&#45;&gt;Node10</title>
<path fill="none" stroke="midnightblue" d="M241.41,-265.04C262.05,-278.78 302.38,-304.06 340,-318.5 346.99,-321.18 354.46,-323.54 361.95,-325.6"/>
<polygon fill="midnightblue" stroke="midnightblue" points="361.21,-329.03 371.77,-328.14 362.97,-322.25 361.21,-329.03"/>
</g>
<!-- Node23&#45;&gt;Node11 -->
<g id="edge30" class="edge">
<title>Node23&#45;&gt;Node11</title>
<path fill="none" stroke="midnightblue" d="M230.01,-265.25C240.22,-305.13 279.26,-459.76 304,-588.5 313.85,-639.73 304.39,-782.37 340,-820.5 346.29,-827.24 354.43,-831.84 363.16,-834.93"/>
<polygon fill="midnightblue" stroke="midnightblue" points="362.23,-838.3 372.8,-837.73 364.18,-831.58 362.23,-838.3"/>
</g>
<!-- Node23&#45;&gt;Node13 -->
<g id="edge31" class="edge">
<title>Node23&#45;&gt;Node13</title>
<path fill="none" stroke="midnightblue" d="M270.14,-265.05C299.88,-271.71 339.76,-280.64 371.46,-287.74"/>
<polygon fill="midnightblue" stroke="midnightblue" points="370.92,-291.2 381.45,-289.97 372.45,-284.37 370.92,-291.2"/>
</g>
<!-- Node23&#45;&gt;Node20 -->
<g id="edge32" class="edge">
<title>Node23&#45;&gt;Node20</title>
<path fill="none" stroke="midnightblue" d="M304.03,-255.5C318.17,-255.5 332.93,-255.5 347.08,-255.5"/>
<polygon fill="midnightblue" stroke="midnightblue" points="347.25,-259 357.25,-255.5 347.25,-252 347.25,-259"/>
</g>
<!-- Node23&#45;&gt;Node21 -->
<g id="edge33" class="edge">
<title>Node23&#45;&gt;Node21</title>
<path fill="none" stroke="midnightblue" d="M232.62,-265.27C246.39,-290.6 286.85,-358.93 340,-394.5 343.09,-396.57 346.36,-398.47 349.73,-400.22"/>
<polygon fill="midnightblue" stroke="midnightblue" points="348.36,-403.44 358.9,-404.49 351.32,-397.09 348.36,-403.44"/>
</g>
<!-- Node23&#45;&gt;Node22 -->
<g id="edge35" class="edge">
<title>Node23&#45;&gt;Node22</title>
<path fill="none" stroke="midnightblue" d="M235.1,-265.03C251.78,-285.27 293.83,-332.64 340,-356.5 344.61,-358.88 349.52,-360.97 354.56,-362.8"/>
<polygon fill="midnightblue" stroke="midnightblue" points="353.77,-366.22 364.36,-366 355.94,-359.57 353.77,-366.22"/>
</g>
<!-- Node24 -->
<g id="node24" class="node">
<title>Node24</title>
<g id="a_node24"><a xlink:href="../../dd/d10/class_connection.html#a96ce1fa7643d6de71dd728e0d9c2ead0" target="_top" xlink:title="Return the graphical representation (vtkActor) of the connection geometry.">
<polygon fill="white" stroke="black" points="357.5,-0.5 357.5,-30.5 492.5,-30.5 492.5,-0.5 357.5,-0.5"/>
<text text-anchor="start" x="365.5" y="-18.5" font-family="Helvetica,sans-Serif" font-size="10.00">Connection::getConnection</text>
<text text-anchor="middle" x="425" y="-7.5" font-family="Helvetica,sans-Serif" font-size="10.00">Actor</text>
</a>
</g>
</g>
<!-- Node23&#45;&gt;Node24 -->
<g id="edge26" class="edge">
<title>Node23&#45;&gt;Node24</title>
<path fill="none" stroke="midnightblue" d="M229.74,-245.63C237.96,-211.64 269.76,-98.35 340,-40.5 342.58,-38.37 345.34,-36.42 348.23,-34.64"/>
<polygon fill="midnightblue" stroke="midnightblue" points="350.09,-37.62 357.22,-29.78 346.76,-31.46 350.09,-37.62"/>
</g>
<!-- Node25 -->
<g id="node25" class="node">
<title>Node25</title>
<g id="a_node25"><a xlink:href="../../dd/d10/class_connection.html#a6dfa62a677e8a374e02559892853b4d9" target="_top" xlink:title="Return the graphical line representation object (vtkActor) of the connection.">
<polygon fill="white" stroke="black" points="361.5,-202 361.5,-221 488.5,-221 488.5,-202 361.5,-202"/>
<text text-anchor="middle" x="425" y="-209" font-family="Helvetica,sans-Serif" font-size="10.00">Connection::getLineActor</text>
</a>
</g>
</g>
<!-- Node23&#45;&gt;Node25 -->
<g id="edge27" class="edge">
<title>Node23&#45;&gt;Node25</title>
<path fill="none" stroke="midnightblue" d="M270.14,-245.95C299.88,-239.29 339.76,-230.36 371.46,-223.26"/>
<polygon fill="midnightblue" stroke="midnightblue" points="372.45,-226.63 381.45,-221.03 370.92,-219.8 372.45,-226.63"/>
</g>
<!-- Node26 -->
<g id="node26" class="node">
<title>Node26</title>
<g id="a_node26"><a xlink:href="../../dd/d10/class_connection.html#a5269756a5f3eabbc5ee96df7d53ac992" target="_top" xlink:title="Return the value of the markNeighborhood flag.">
<polygon fill="white" stroke="black" points="340,-164 340,-183 510,-183 510,-164 340,-164"/>
<text text-anchor="middle" x="425" y="-171" font-family="Helvetica,sans-Serif" font-size="10.00">Connection::getMarkNeighborHood</text>
</a>
</g>
</g>
<!-- Node23&#45;&gt;Node26 -->
<g id="edge28" class="edge">
<title>Node23&#45;&gt;Node26</title>
<path fill="none" stroke="midnightblue" d="M241.41,-245.96C262.05,-232.22 302.38,-206.94 340,-192.5 346.72,-189.92 353.88,-187.64 361.08,-185.64"/>
<polygon fill="midnightblue" stroke="midnightblue" points="362.09,-188.99 370.88,-183.08 360.32,-182.22 362.09,-188.99"/>
</g>
<!-- Node27 -->
<g id="node27" class="node">
<title>Node27</title>
<g id="a_node27"><a xlink:href="../../dd/d10/class_connection.html#ab326c063ff3ad8a7261e2893dbe01bb1" target="_top" xlink:title="Set the pointer to the destination connector.">
<polygon fill="white" stroke="black" points="357.5,-126 357.5,-145 492.5,-145 492.5,-126 357.5,-126"/>
<text text-anchor="middle" x="425" y="-133" font-family="Helvetica,sans-Serif" font-size="10.00">Connection::setDestination</text>
</a>
</g>
</g>
<!-- Node23&#45;&gt;Node27 -->
<g id="edge34" class="edge">
<title>Node23&#45;&gt;Node27</title>
<path fill="none" stroke="midnightblue" d="M235.1,-245.97C251.78,-225.73 293.83,-178.36 340,-154.5 344.61,-152.12 349.52,-150.03 354.56,-148.2"/>
<polygon fill="midnightblue" stroke="midnightblue" points="355.94,-151.43 364.36,-145 353.77,-144.78 355.94,-151.43"/>
</g>
<!-- Node28 -->
<g id="node28" class="node">
<title>Node28</title>
<g id="a_node28"><a xlink:href="../../dd/d10/class_connection.html#a6ffa49b4f1ad929605b3562b6c8951b2" target="_top" xlink:title="Set the pointer to the source touchpoint.">
<polygon fill="white" stroke="black" points="367,-88 367,-107 483,-107 483,-88 367,-88"/>
<text text-anchor="middle" x="425" y="-95" font-family="Helvetica,sans-Serif" font-size="10.00">Connection::setSource</text>
</a>
</g>
</g>
<!-- Node23&#45;&gt;Node28 -->
<g id="edge36" class="edge">
<title>Node23&#45;&gt;Node28</title>
<path fill="none" stroke="midnightblue" d="M232.29,-245.9C245.55,-220.37 285.43,-150.44 340,-116.5 345.33,-113.18 351.18,-110.44 357.22,-108.18"/>
<polygon fill="midnightblue" stroke="midnightblue" points="358.44,-111.46 366.84,-105 356.24,-104.82 358.44,-111.46"/>
</g>
<!-- Node29 -->
<g id="node29" class="node">
<title>Node29</title>
<g id="a_node29"><a xlink:href="../../de/d52/class_a_star.html#a38fa07c212033976433ac07e04d2f626" target="_top" xlink:title="Unmark a path (unlock)">
<polygon fill="white" stroke="black" points="375,-50 375,-69 475,-69 475,-50 375,-50"/>
<text text-anchor="middle" x="425" y="-57" font-family="Helvetica,sans-Serif" font-size="10.00">AStar::unmarkPath</text>
</a>
</g>
</g>
<!-- Node23&#45;&gt;Node29 -->
<g id="edge37" class="edge">
<title>Node23&#45;&gt;Node29</title>
<path fill="none" stroke="midnightblue" d="M230.59,-245.98C240.82,-216.03 276.59,-123.15 340,-78.5 347.45,-73.25 356.12,-69.43 364.99,-66.64"/>
<polygon fill="midnightblue" stroke="midnightblue" points="365.93,-70.02 374.67,-64.01 364.1,-63.26 365.93,-70.02"/>
</g>
<!-- Node30 -->
<g id="node30" class="node">
<title>Node30</title>
<g id="a_node30"><a xlink:href="../../de/d52/class_a_star.html#aa76c29f42861c4f6fc7c328e4dbc7d83" target="_top" xlink:title="Mark a path as locked so that it can not be used by another search.">
<polygon fill="white" stroke="black" points="578,-50 578,-69 667,-69 667,-50 578,-50"/>
<text text-anchor="middle" x="622.5" y="-57" font-family="Helvetica,sans-Serif" font-size="10.00">AStar::markPath</text>
</a>
</g>
</g>
<!-- Node29&#45;&gt;Node30 -->
<g id="edge38" class="edge">
<title>Node29&#45;&gt;Node30</title>
<path fill="none" stroke="midnightblue" d="M475.08,-59.5C503.19,-59.5 538.5,-59.5 567.4,-59.5"/>
<polygon fill="midnightblue" stroke="midnightblue" points="567.74,-63 577.74,-59.5 567.74,-56 567.74,-63"/>
</g>
</g>
</svg>
