<?xml version="1.0" encoding="UTF-8" standalone="no"?>
<!DOCTYPE svg PUBLIC "-//W3C//DTD SVG 1.1//EN"
 "http://www.w3.org/Graphics/SVG/1.1/DTD/svg11.dtd">
<!-- Generated by graphviz version 2.44.1 (0)
 -->
<!-- Title: iglmeshbooleanoperationfilter.h Pages: 1 -->
<svg width="434pt" height="196pt"
 viewBox="0.00 0.00 434.00 196.00" xmlns="http://www.w3.org/2000/svg" xmlns:xlink="http://www.w3.org/1999/xlink">
<g id="graph0" class="graph" transform="scale(1 1) rotate(0) translate(4 192)">
<title>iglmeshbooleanoperationfilter.h</title>
<polygon fill="white" stroke="transparent" points="-4,4 -4,-192 430,-192 430,4 -4,4"/>
<!-- Node1 -->
<g id="node1" class="node">
<title>Node1</title>
<g id="a_node1"><a xlink:title="Filter for boolean operations on polygon meshes using the igl library.">
<polygon fill="#bfbfbf" stroke="black" points="143,-168.5 143,-187.5 294,-187.5 294,-168.5 143,-168.5"/>
<text text-anchor="middle" x="218.5" y="-175.5" font-family="Helvetica,sans-Serif" font-size="10.00">iglmeshbooleanoperationfilter.h</text>
</a>
</g>
</g>
<!-- Node2 -->
<g id="node2" class="node">
<title>Node2</title>
<g id="a_node2"><a xlink:href="../../d9/df8/iglmeshbooleanoperationfilter_8cpp.html" target="_top" xlink:title=" ">
<polygon fill="white" stroke="black" points="0,-112.5 0,-131.5 161,-131.5 161,-112.5 0,-112.5"/>
<text text-anchor="middle" x="80.5" y="-119.5" font-family="Helvetica,sans-Serif" font-size="10.00">iglmeshbooleanoperationfilter.cpp</text>
</a>
</g>
</g>
<!-- Node1&#45;&gt;Node2 -->
<g id="edge1" class="edge">
<title>Node1&#45;&gt;Node2</title>
<path fill="none" stroke="midnightblue" d="M187.25,-164.77C161.33,-154.63 125.14,-140.47 102.26,-131.52"/>
<polygon fill="midnightblue" stroke="midnightblue" points="186.05,-168.06 196.63,-168.44 188.6,-161.54 186.05,-168.06"/>
</g>
<!-- Node3 -->
<g id="node3" class="node">
<title>Node3</title>
<g id="a_node3"><a xlink:href="../../db/dcb/exportstltool_8h.html" target="_top" xlink:title="Tool for exporting a wired mesh to the stl file format.">
<polygon fill="white" stroke="black" points="179.5,-112.5 179.5,-131.5 257.5,-131.5 257.5,-112.5 179.5,-112.5"/>
<text text-anchor="middle" x="218.5" y="-119.5" font-family="Helvetica,sans-Serif" font-size="10.00">exportstltool.h</text>
</a>
</g>
</g>
<!-- Node1&#45;&gt;Node3 -->
<g id="edge2" class="edge">
<title>Node1&#45;&gt;Node3</title>
<path fill="none" stroke="midnightblue" d="M218.5,-157.8C218.5,-148.91 218.5,-138.78 218.5,-131.75"/>
<polygon fill="midnightblue" stroke="midnightblue" points="215,-158.08 218.5,-168.08 222,-158.08 215,-158.08"/>
</g>
<!-- Node8 -->
<g id="node8" class="node">
<title>Node8</title>
<g id="a_node8"><a xlink:href="../../d8/d15/psinterfacetool_8h.html" target="_top" xlink:title="Tool for automatically place a groundplate with electrical connections and magnets.">
<polygon fill="white" stroke="black" points="276,-112.5 276,-131.5 365,-131.5 365,-112.5 276,-112.5"/>
<text text-anchor="middle" x="320.5" y="-119.5" font-family="Helvetica,sans-Serif" font-size="10.00">psinterfacetool.h</text>
</a>
</g>
</g>
<!-- Node1&#45;&gt;Node8 -->
<g id="edge7" class="edge">
<title>Node1&#45;&gt;Node8</title>
<path fill="none" stroke="midnightblue" d="M243.83,-163.59C262.69,-153.61 287.88,-140.27 304.15,-131.65"/>
<polygon fill="midnightblue" stroke="midnightblue" points="242.09,-160.55 234.89,-168.32 245.36,-166.74 242.09,-160.55"/>
</g>
<!-- Node4 -->
<g id="node4" class="node">
<title>Node4</title>
<g id="a_node4"><a xlink:href="../../d9/d53/mainwindow_8h.html" target="_top" xlink:title="Qt MainWindow of the application.">
<polygon fill="white" stroke="black" points="230.5,-56.5 230.5,-75.5 308.5,-75.5 308.5,-56.5 230.5,-56.5"/>
<text text-anchor="middle" x="269.5" y="-63.5" font-family="Helvetica,sans-Serif" font-size="10.00">mainwindow.h</text>
</a>
</g>
</g>
<!-- Node3&#45;&gt;Node4 -->
<g id="edge3" class="edge">
<title>Node3&#45;&gt;Node4</title>
<path fill="none" stroke="midnightblue" d="M233.88,-104.72C242.87,-95.2 253.86,-83.56 261.24,-75.75"/>
<polygon fill="midnightblue" stroke="midnightblue" points="231.24,-102.41 226.92,-112.08 236.33,-107.22 231.24,-102.41"/>
</g>
<!-- Node7 -->
<g id="node7" class="node">
<title>Node7</title>
<g id="a_node7"><a xlink:href="../../de/d8b/exportstltool_8cpp.html" target="_top" xlink:title=" ">
<polygon fill="white" stroke="black" points="123,-56.5 123,-75.5 212,-75.5 212,-56.5 123,-56.5"/>
<text text-anchor="middle" x="167.5" y="-63.5" font-family="Helvetica,sans-Serif" font-size="10.00">exportstltool.cpp</text>
</a>
</g>
</g>
<!-- Node3&#45;&gt;Node7 -->
<g id="edge6" class="edge">
<title>Node3&#45;&gt;Node7</title>
<path fill="none" stroke="midnightblue" d="M203.12,-104.72C194.13,-95.2 183.14,-83.56 175.76,-75.75"/>
<polygon fill="midnightblue" stroke="midnightblue" points="200.67,-107.22 210.08,-112.08 205.76,-102.41 200.67,-107.22"/>
</g>
<!-- Node5 -->
<g id="node5" class="node">
<title>Node5</title>
<g id="a_node5"><a xlink:href="../../d8/dd9/mainwindow_8cpp.html" target="_top" xlink:title=" ">
<polygon fill="white" stroke="black" points="180,-0.5 180,-19.5 269,-19.5 269,-0.5 180,-0.5"/>
<text text-anchor="middle" x="224.5" y="-7.5" font-family="Helvetica,sans-Serif" font-size="10.00">mainwindow.cpp</text>
</a>
</g>
</g>
<!-- Node4&#45;&gt;Node5 -->
<g id="edge4" class="edge">
<title>Node4&#45;&gt;Node5</title>
<path fill="none" stroke="midnightblue" d="M255.45,-48.14C247.61,-38.74 238.17,-27.4 231.79,-19.75"/>
<polygon fill="midnightblue" stroke="midnightblue" points="252.98,-50.64 262.07,-56.08 258.36,-46.16 252.98,-50.64"/>
</g>
<!-- Node6 -->
<g id="node6" class="node">
<title>Node6</title>
<g id="a_node6"><a xlink:href="../../df/d0a/main_8cpp.html" target="_top" xlink:title=" ">
<polygon fill="white" stroke="black" points="286.5,-0.5 286.5,-19.5 342.5,-19.5 342.5,-0.5 286.5,-0.5"/>
<text text-anchor="middle" x="314.5" y="-7.5" font-family="Helvetica,sans-Serif" font-size="10.00">main.cpp</text>
</a>
</g>
</g>
<!-- Node4&#45;&gt;Node6 -->
<g id="edge5" class="edge">
<title>Node4&#45;&gt;Node6</title>
<path fill="none" stroke="midnightblue" d="M283.55,-48.14C291.39,-38.74 300.83,-27.4 307.21,-19.75"/>
<polygon fill="midnightblue" stroke="midnightblue" points="280.64,-46.16 276.93,-56.08 286.02,-50.64 280.64,-46.16"/>
</g>
<!-- Node8&#45;&gt;Node4 -->
<g id="edge8" class="edge">
<title>Node8&#45;&gt;Node4</title>
<path fill="none" stroke="midnightblue" d="M305.12,-104.72C296.13,-95.2 285.14,-83.56 277.76,-75.75"/>
<polygon fill="midnightblue" stroke="midnightblue" points="302.67,-107.22 312.08,-112.08 307.76,-102.41 302.67,-107.22"/>
</g>
<!-- Node9 -->
<g id="node9" class="node">
<title>Node9</title>
<g id="a_node9"><a xlink:href="../../d5/da0/psinterfacetool_8cpp.html" target="_top" xlink:title=" ">
<polygon fill="white" stroke="black" points="327,-56.5 327,-75.5 426,-75.5 426,-56.5 327,-56.5"/>
<text text-anchor="middle" x="376.5" y="-63.5" font-family="Helvetica,sans-Serif" font-size="10.00">psinterfacetool.cpp</text>
</a>
</g>
</g>
<!-- Node8&#45;&gt;Node9 -->
<g id="edge9" class="edge">
<title>Node8&#45;&gt;Node9</title>
<path fill="none" stroke="midnightblue" d="M336.83,-105.25C346.76,-95.67 359.09,-83.79 367.34,-75.83"/>
<polygon fill="midnightblue" stroke="midnightblue" points="334.27,-102.86 329.5,-112.32 339.13,-107.9 334.27,-102.86"/>
</g>
</g>
</svg>
