<?xml version="1.0" encoding="UTF-8" standalone="no"?>
<!DOCTYPE svg PUBLIC "-//W3C//DTD SVG 1.1//EN"
 "http://www.w3.org/Graphics/SVG/1.1/DTD/svg11.dtd">
<!-- Generated by graphviz version 2.44.1 (0)
 -->
<!-- Title: VoxelOctree::AABB::getCenter Pages: 1 -->
<svg width="636pt" height="133pt"
 viewBox="0.00 0.00 636.00 132.56" xmlns="http://www.w3.org/2000/svg" xmlns:xlink="http://www.w3.org/1999/xlink">
<g id="graph0" class="graph" transform="scale(1 1) rotate(0) translate(4 128.56)">
<title>VoxelOctree::AABB::getCenter</title>
<polygon fill="white" stroke="transparent" points="-4,4 -4,-128.56 632,-128.56 632,4 -4,4"/>
<!-- Node1 -->
<g id="node1" class="node">
<title>Node1</title>
<g id="a_node1"><a xlink:title="Return the center of the AABB.">
<polygon fill="#bfbfbf" stroke="black" points="519,-55.5 519,-85.5 628,-85.5 628,-55.5 519,-55.5"/>
<text text-anchor="start" x="527" y="-73.5" font-family="Helvetica,sans-Serif" font-size="10.00">VoxelOctree::AABB::</text>
<text text-anchor="middle" x="573.5" y="-62.5" font-family="Helvetica,sans-Serif" font-size="10.00">getCenter</text>
</a>
</g>
</g>
<!-- Node2 -->
<g id="node2" class="node">
<title>Node2</title>
<g id="a_node2"><a xlink:href="../../d8/dcf/class_voxel_octree.html#a916e75ddc4d7d02767e9c9a14a4e8ce6" target="_top" xlink:title="Build the octree.">
<polygon fill="white" stroke="black" points="0,-72 0,-91 96,-91 96,-72 0,-72"/>
<text text-anchor="middle" x="48" y="-79" font-family="Helvetica,sans-Serif" font-size="10.00">VoxelOctree::build</text>
</a>
</g>
</g>
<!-- Node1&#45;&gt;Node2 -->
<g id="edge1" class="edge">
<title>Node1&#45;&gt;Node2</title>
<path fill="none" stroke="midnightblue" d="M538.23,-90.4C522.05,-98.68 502.12,-107.33 483,-111.5 338.74,-142.97 161.71,-108.88 86.09,-91.01"/>
<polygon fill="midnightblue" stroke="midnightblue" points="540.09,-93.38 547.29,-85.61 536.82,-87.19 540.09,-93.38"/>
</g>
<!-- Node3 -->
<g id="node3" class="node">
<title>Node3</title>
<g id="a_node3"><a xlink:href="../../d8/dcf/class_voxel_octree.html#af2cc14fcc3bd3679c8803e964cf08549" target="_top" xlink:title=" ">
<polygon fill="white" stroke="black" points="305,-83 305,-102 483,-102 483,-83 305,-83"/>
<text text-anchor="middle" x="394" y="-90" font-family="Helvetica,sans-Serif" font-size="10.00">VoxelOctree::triangleAABBIntersects</text>
</a>
</g>
</g>
<!-- Node1&#45;&gt;Node3 -->
<g id="edge2" class="edge">
<title>Node1&#45;&gt;Node3</title>
<path fill="none" stroke="midnightblue" d="M508.49,-78.43C496.59,-79.91 484.04,-81.46 471.8,-82.98"/>
<polygon fill="midnightblue" stroke="midnightblue" points="509.27,-81.86 518.76,-77.16 508.41,-74.92 509.27,-81.86"/>
</g>
<!-- Node5 -->
<g id="node5" class="node">
<title>Node5</title>
<g id="a_node5"><a xlink:href="../../d8/dcf/class_voxel_octree.html#a6a6f83af743fde0840a023406c5d86d3" target="_top" xlink:title="Computes the sign of the distance in the leaf node (if the voxel is inside or outside of the mesh sur...">
<polygon fill="white" stroke="black" points="132,-0.5 132,-30.5 269,-30.5 269,-0.5 132,-0.5"/>
<text text-anchor="start" x="140" y="-18.5" font-family="Helvetica,sans-Serif" font-size="10.00">VoxelOctree::updateInternal</text>
<text text-anchor="middle" x="200.5" y="-7.5" font-family="Helvetica,sans-Serif" font-size="10.00">EmptyLeafsSign</text>
</a>
</g>
</g>
<!-- Node1&#45;&gt;Node5 -->
<g id="edge5" class="edge">
<title>Node1&#45;&gt;Node5</title>
<path fill="none" stroke="midnightblue" d="M541.77,-49.89C525.13,-39.91 503.77,-28.94 483,-23.5 411.82,-4.87 327.04,-5.38 269.25,-8.96"/>
<polygon fill="midnightblue" stroke="midnightblue" points="540.15,-53 550.5,-55.29 543.84,-47.05 540.15,-53"/>
</g>
<!-- Node6 -->
<g id="node6" class="node">
<title>Node6</title>
<g id="a_node6"><a xlink:href="../../d8/dcf/class_voxel_octree.html#a7d8d6764945dbc748598c9ce41350e77" target="_top" xlink:title="Computes the distance from the leaf node to the mesh surface.">
<polygon fill="white" stroke="black" points="320.5,-33.5 320.5,-63.5 467.5,-63.5 467.5,-33.5 320.5,-33.5"/>
<text text-anchor="start" x="328.5" y="-51.5" font-family="Helvetica,sans-Serif" font-size="10.00">VoxelOctree::updateLeafNode</text>
<text text-anchor="middle" x="394" y="-40.5" font-family="Helvetica,sans-Serif" font-size="10.00">DistanceValue</text>
</a>
</g>
</g>
<!-- Node1&#45;&gt;Node6 -->
<g id="edge7" class="edge">
<title>Node1&#45;&gt;Node6</title>
<path fill="none" stroke="midnightblue" d="M508.73,-62.6C495.38,-60.94 481.2,-59.18 467.56,-57.49"/>
<polygon fill="midnightblue" stroke="midnightblue" points="508.41,-66.08 518.76,-63.84 509.27,-59.14 508.41,-66.08"/>
</g>
<!-- Node4 -->
<g id="node4" class="node">
<title>Node4</title>
<g id="a_node4"><a xlink:href="../../d8/dcf/class_voxel_octree.html#a0715dbbe502cc236c17715301bb10ad7" target="_top" xlink:title="Subdivides the octree nodes further.">
<polygon fill="white" stroke="black" points="142,-72 142,-91 259,-91 259,-72 142,-72"/>
<text text-anchor="middle" x="200.5" y="-79" font-family="Helvetica,sans-Serif" font-size="10.00">VoxelOctree::subdivide</text>
</a>
</g>
</g>
<!-- Node3&#45;&gt;Node4 -->
<g id="edge3" class="edge">
<title>Node3&#45;&gt;Node4</title>
<path fill="none" stroke="midnightblue" d="M294.62,-86.85C282.47,-86.15 270.38,-85.46 259.13,-84.81"/>
<polygon fill="midnightblue" stroke="midnightblue" points="294.63,-90.36 304.82,-87.43 295.03,-83.37 294.63,-90.36"/>
</g>
<!-- Node4&#45;&gt;Node2 -->
<g id="edge4" class="edge">
<title>Node4&#45;&gt;Node2</title>
<path fill="none" stroke="midnightblue" d="M131.73,-81.5C119.7,-81.5 107.41,-81.5 96.12,-81.5"/>
<polygon fill="midnightblue" stroke="midnightblue" points="131.74,-85 141.74,-81.5 131.74,-78 131.74,-85"/>
</g>
<!-- Node5&#45;&gt;Node2 -->
<g id="edge6" class="edge">
<title>Node5&#45;&gt;Node2</title>
<path fill="none" stroke="midnightblue" d="M155.81,-34.66C127.92,-46.89 92.96,-62.22 70.79,-71.94"/>
<polygon fill="midnightblue" stroke="midnightblue" points="157.22,-37.86 164.97,-30.64 154.41,-31.45 157.22,-37.86"/>
</g>
<!-- Node6&#45;&gt;Node4 -->
<g id="edge8" class="edge">
<title>Node6&#45;&gt;Node4</title>
<path fill="none" stroke="midnightblue" d="M310.36,-62.74C292.27,-65.86 273.54,-69.09 256.82,-71.97"/>
<polygon fill="midnightblue" stroke="midnightblue" points="311.07,-66.17 320.33,-61.02 309.88,-59.27 311.07,-66.17"/>
</g>
</g>
</svg>
