<?xml version="1.0" encoding="UTF-8" standalone="no"?>
<!DOCTYPE svg PUBLIC "-//W3C//DTD SVG 1.1//EN"
 "http://www.w3.org/Graphics/SVG/1.1/DTD/svg11.dtd">
<!-- Generated by graphviz version 2.44.1 (0)
 -->
<!-- Title: VoxelOctree::AABB::getWidth Pages: 1 -->
<svg width="616pt" height="85pt"
 viewBox="0.00 0.00 616.00 85.00" xmlns="http://www.w3.org/2000/svg" xmlns:xlink="http://www.w3.org/1999/xlink">
<g id="graph0" class="graph" transform="scale(1 1) rotate(0) translate(4 81)">
<title>VoxelOctree::AABB::getWidth</title>
<polygon fill="white" stroke="transparent" points="-4,4 -4,-81 612,-81 612,4 -4,4"/>
<!-- Node1 -->
<g id="node1" class="node">
<title>Node1</title>
<g id="a_node1"><a xlink:title="Return the width of the AABB.">
<polygon fill="#bfbfbf" stroke="black" points="499,-33 499,-63 608,-63 608,-33 499,-33"/>
<text text-anchor="start" x="507" y="-51" font-family="Helvetica,sans-Serif" font-size="10.00">VoxelOctree::AABB::</text>
<text text-anchor="middle" x="553.5" y="-40" font-family="Helvetica,sans-Serif" font-size="10.00">getWidth</text>
</a>
</g>
</g>
<!-- Node2 -->
<g id="node2" class="node">
<title>Node2</title>
<g id="a_node2"><a xlink:href="../../d8/dcf/class_voxel_octree.html#a0715dbbe502cc236c17715301bb10ad7" target="_top" xlink:title="Subdivides the octree nodes further.">
<polygon fill="white" stroke="black" points="132,-57.5 132,-76.5 249,-76.5 249,-57.5 132,-57.5"/>
<text text-anchor="middle" x="190.5" y="-64.5" font-family="Helvetica,sans-Serif" font-size="10.00">VoxelOctree::subdivide</text>
</a>
</g>
</g>
<!-- Node1&#45;&gt;Node2 -->
<g id="edge1" class="edge">
<title>Node1&#45;&gt;Node2</title>
<path fill="none" stroke="midnightblue" d="M488.81,-63.22C480.18,-64.78 471.4,-66.12 463,-67 389.52,-74.71 304.23,-72.98 249.15,-70.48"/>
<polygon fill="midnightblue" stroke="midnightblue" points="489.68,-66.62 498.84,-61.29 488.36,-59.74 489.68,-66.62"/>
</g>
<!-- Node4 -->
<g id="node4" class="node">
<title>Node4</title>
<g id="a_node4"><a xlink:href="../../d8/dcf/class_voxel_octree.html#a97f818ad002b649909f2b7e116d87182" target="_top" xlink:title="Traverses the octree to build the voxel image.">
<polygon fill="white" stroke="black" points="304,-0.5 304,-19.5 444,-19.5 444,-0.5 304,-0.5"/>
<text text-anchor="middle" x="374" y="-7.5" font-family="Helvetica,sans-Serif" font-size="10.00">VoxelOctree::traverseOctree</text>
</a>
</g>
</g>
<!-- Node1&#45;&gt;Node4 -->
<g id="edge3" class="edge">
<title>Node1&#45;&gt;Node4</title>
<path fill="none" stroke="midnightblue" d="M488.77,-34.36C465.86,-29.45 440.53,-24.03 419.6,-19.55"/>
<polygon fill="midnightblue" stroke="midnightblue" points="488.25,-37.82 498.76,-36.5 489.72,-30.98 488.25,-37.82"/>
</g>
<!-- Node6 -->
<g id="node6" class="node">
<title>Node6</title>
<g id="a_node6"><a xlink:href="../../d8/dcf/class_voxel_octree.html#af2cc14fcc3bd3679c8803e964cf08549" target="_top" xlink:title=" ">
<polygon fill="white" stroke="black" points="285,-38.5 285,-57.5 463,-57.5 463,-38.5 285,-38.5"/>
<text text-anchor="middle" x="374" y="-45.5" font-family="Helvetica,sans-Serif" font-size="10.00">VoxelOctree::triangleAABBIntersects</text>
</a>
</g>
</g>
<!-- Node1&#45;&gt;Node6 -->
<g id="edge5" class="edge">
<title>Node1&#45;&gt;Node6</title>
<path fill="none" stroke="midnightblue" d="M488.55,-48C480.35,-48 471.83,-48 463.32,-48"/>
<polygon fill="midnightblue" stroke="midnightblue" points="488.76,-51.5 498.76,-48 488.76,-44.5 488.76,-51.5"/>
</g>
<!-- Node3 -->
<g id="node3" class="node">
<title>Node3</title>
<g id="a_node3"><a xlink:href="../../d8/dcf/class_voxel_octree.html#a916e75ddc4d7d02767e9c9a14a4e8ce6" target="_top" xlink:title="Build the octree.">
<polygon fill="white" stroke="black" points="0,-57.5 0,-76.5 96,-76.5 96,-57.5 0,-57.5"/>
<text text-anchor="middle" x="48" y="-64.5" font-family="Helvetica,sans-Serif" font-size="10.00">VoxelOctree::build</text>
</a>
</g>
</g>
<!-- Node2&#45;&gt;Node3 -->
<g id="edge2" class="edge">
<title>Node2&#45;&gt;Node3</title>
<path fill="none" stroke="midnightblue" d="M121.89,-67C113.27,-67 104.6,-67 96.39,-67"/>
<polygon fill="midnightblue" stroke="midnightblue" points="121.95,-70.5 131.95,-67 121.95,-63.5 121.95,-70.5"/>
</g>
<!-- Node5 -->
<g id="node5" class="node">
<title>Node5</title>
<g id="a_node5"><a xlink:href="../../d8/dcf/class_voxel_octree.html#aa239c5f2184006af13c72c13fc823919" target="_top" xlink:title="Traverse the octree.">
<polygon fill="white" stroke="black" points="135,-0.5 135,-19.5 246,-19.5 246,-0.5 135,-0.5"/>
<text text-anchor="middle" x="190.5" y="-7.5" font-family="Helvetica,sans-Serif" font-size="10.00">VoxelOctree::traverse</text>
</a>
</g>
</g>
<!-- Node4&#45;&gt;Node5 -->
<g id="edge4" class="edge">
<title>Node4&#45;&gt;Node5</title>
<path fill="none" stroke="midnightblue" d="M293.44,-10C277.44,-10 260.97,-10 246.06,-10"/>
<polygon fill="midnightblue" stroke="midnightblue" points="293.86,-13.5 303.86,-10 293.86,-6.5 293.86,-13.5"/>
</g>
<!-- Node6&#45;&gt;Node2 -->
<g id="edge6" class="edge">
<title>Node6&#45;&gt;Node2</title>
<path fill="none" stroke="midnightblue" d="M274.91,-58.27C266.07,-59.19 257.33,-60.11 249.02,-60.98"/>
<polygon fill="midnightblue" stroke="midnightblue" points="275.33,-61.74 284.91,-57.22 274.6,-54.78 275.33,-61.74"/>
</g>
</g>
</svg>
