<?xml version="1.0" encoding="UTF-8" standalone="no"?>
<!DOCTYPE svg PUBLIC "-//W3C//DTD SVG 1.1//EN"
 "http://www.w3.org/Graphics/SVG/1.1/DTD/svg11.dtd">
<!-- Generated by graphviz version 2.44.0 (0)
 -->
<!-- Title: VoxelOctree::AABB::getHeight Pages: 1 -->
<svg width="616pt" height="39pt"
 viewBox="0.00 0.00 616.00 39.00" xmlns="http://www.w3.org/2000/svg" xmlns:xlink="http://www.w3.org/1999/xlink">
<g id="graph0" class="graph" transform="scale(1 1) rotate(0) translate(4 35)">
<title>VoxelOctree::AABB::getHeight</title>
<polygon fill="white" stroke="transparent" points="-4,4 -4,-35 612,-35 612,4 -4,4"/>
<!-- Node1 -->
<g id="node1" class="node">
<title>Node1</title>
<g id="a_node1"><a xlink:title="Return the height of the AABB.">
<polygon fill="#bfbfbf" stroke="black" points="499,-0.5 499,-30.5 608,-30.5 608,-0.5 499,-0.5"/>
<text text-anchor="start" x="507" y="-18.5" font-family="Helvetica,sans-Serif" font-size="10.00">VoxelOctree::AABB::</text>
<text text-anchor="middle" x="553.5" y="-7.5" font-family="Helvetica,sans-Serif" font-size="10.00">getHeight</text>
</a>
</g>
</g>
<!-- Node2 -->
<g id="node2" class="node">
<title>Node2</title>
<g id="a_node2"><a xlink:href="../../d8/dcf/class_voxel_octree.html#af2cc14fcc3bd3679c8803e964cf08549" target="_top" xlink:title=" ">
<polygon fill="white" stroke="black" points="285,-6 285,-25 463,-25 463,-6 285,-6"/>
<text text-anchor="middle" x="374" y="-13" font-family="Helvetica,sans-Serif" font-size="10.00">VoxelOctree::triangleAABBIntersects</text>
</a>
</g>
</g>
<!-- Node1&#45;&gt;Node2 -->
<g id="edge1" class="edge">
<title>Node1&#45;&gt;Node2</title>
<path fill="none" stroke="midnightblue" d="M488.55,-15.5C480.35,-15.5 471.83,-15.5 463.32,-15.5"/>
<polygon fill="midnightblue" stroke="midnightblue" points="488.76,-19 498.76,-15.5 488.76,-12 488.76,-19"/>
</g>
<!-- Node3 -->
<g id="node3" class="node">
<title>Node3</title>
<g id="a_node3"><a xlink:href="../../d8/dcf/class_voxel_octree.html#a0715dbbe502cc236c17715301bb10ad7" target="_top" xlink:title="Subdivides the octree nodes further.">
<polygon fill="white" stroke="black" points="132,-6 132,-25 249,-25 249,-6 132,-6"/>
<text text-anchor="middle" x="190.5" y="-13" font-family="Helvetica,sans-Serif" font-size="10.00">VoxelOctree::subdivide</text>
</a>
</g>
</g>
<!-- Node2&#45;&gt;Node3 -->
<g id="edge2" class="edge">
<title>Node2&#45;&gt;Node3</title>
<path fill="none" stroke="midnightblue" d="M274.62,-15.5C265.89,-15.5 257.24,-15.5 249.02,-15.5"/>
<polygon fill="midnightblue" stroke="midnightblue" points="274.91,-19 284.91,-15.5 274.91,-12 274.91,-19"/>
</g>
<!-- Node4 -->
<g id="node4" class="node">
<title>Node4</title>
<g id="a_node4"><a xlink:href="../../d8/dcf/class_voxel_octree.html#a916e75ddc4d7d02767e9c9a14a4e8ce6" target="_top" xlink:title="Build the octree.">
<polygon fill="white" stroke="black" points="0,-6 0,-25 96,-25 96,-6 0,-6"/>
<text text-anchor="middle" x="48" y="-13" font-family="Helvetica,sans-Serif" font-size="10.00">VoxelOctree::build</text>
</a>
</g>
</g>
<!-- Node3&#45;&gt;Node4 -->
<g id="edge3" class="edge">
<title>Node3&#45;&gt;Node4</title>
<path fill="none" stroke="midnightblue" d="M121.89,-15.5C113.27,-15.5 104.6,-15.5 96.39,-15.5"/>
<polygon fill="midnightblue" stroke="midnightblue" points="121.95,-19 131.95,-15.5 121.95,-12 121.95,-19"/>
</g>
</g>
</svg>
