<?xml version="1.0" encoding="UTF-8" standalone="no"?>
<!DOCTYPE svg PUBLIC "-//W3C//DTD SVG 1.1//EN"
 "http://www.w3.org/Graphics/SVG/1.1/DTD/svg11.dtd">
<!-- Generated by graphviz version 2.44.0 (0)
 -->
<!-- Title: Tool::execute Pages: 1 -->
<svg width="647pt" height="704pt"
 viewBox="0.00 0.00 647.00 704.00" xmlns="http://www.w3.org/2000/svg" xmlns:xlink="http://www.w3.org/1999/xlink">
<g id="graph0" class="graph" transform="scale(1 1) rotate(0) translate(4 700)">
<title>Tool::execute</title>
<polygon fill="white" stroke="transparent" points="-4,4 -4,-700 643,-700 643,4 -4,4"/>
<!-- Node1 -->
<g id="node1" class="node">
<title>Node1</title>
<g id="a_node1"><a xlink:title=" ">
<polygon fill="#bfbfbf" stroke="black" points="564,-338.5 564,-357.5 639,-357.5 639,-338.5 564,-338.5"/>
<text text-anchor="middle" x="601.5" y="-345.5" font-family="Helvetica,sans-Serif" font-size="10.00">Tool::execute</text>
</a>
</g>
</g>
<!-- Node2 -->
<g id="node2" class="node">
<title>Node2</title>
<g id="a_node2"><a xlink:href="../../d5/d26/class_tool_execution_wait_thread.html#ab4973a53e7f47fff0f139e2a942a56ca" target="_top" xlink:title=" ">
<polygon fill="white" stroke="black" points="361.5,-676.5 361.5,-695.5 508.5,-695.5 508.5,-676.5 361.5,-676.5"/>
<text text-anchor="middle" x="435" y="-683.5" font-family="Helvetica,sans-Serif" font-size="10.00">ToolExecutionWaitThread::run</text>
</a>
</g>
</g>
<!-- Node1&#45;&gt;Node2 -->
<g id="edge1" class="edge">
<title>Node1&#45;&gt;Node2</title>
<path fill="none" stroke="midnightblue" d="M598.77,-367.77C592.84,-430.67 571.33,-624.52 528,-667 522.53,-672.37 515.96,-676.4 508.89,-679.42"/>
<polygon fill="midnightblue" stroke="midnightblue" points="602.27,-367.89 599.69,-357.62 595.3,-367.26 602.27,-367.89"/>
</g>
<!-- Node3 -->
<g id="node3" class="node">
<title>Node3</title>
<g id="a_node3"><a xlink:href="../../d9/dc6/class_main_window.html#ad8baa7cde41db728bd73adc6216df43d" target="_top" xlink:title=" ">
<polygon fill="white" stroke="black" points="368.5,-638.5 368.5,-657.5 501.5,-657.5 501.5,-638.5 368.5,-638.5"/>
<text text-anchor="middle" x="435" y="-645.5" font-family="Helvetica,sans-Serif" font-size="10.00">MainWindow::slotAutowire</text>
</a>
</g>
</g>
<!-- Node1&#45;&gt;Node3 -->
<g id="edge2" class="edge">
<title>Node1&#45;&gt;Node3</title>
<path fill="none" stroke="midnightblue" d="M598.13,-367.65C590.77,-425.32 566.48,-592.35 528,-629 520.68,-635.97 511.51,-640.68 501.81,-643.82"/>
<polygon fill="midnightblue" stroke="midnightblue" points="601.61,-368 599.37,-357.64 594.67,-367.14 601.61,-368"/>
</g>
<!-- Node6 -->
<g id="node6" class="node">
<title>Node6</title>
<g id="a_node6"><a xlink:href="../../d9/dc6/class_main_window.html#afbaa1bf4c13d3e4de8d3eba9757ba6a9" target="_top" xlink:title=" ">
<polygon fill="white" stroke="black" points="361.5,-600.5 361.5,-619.5 508.5,-619.5 508.5,-600.5 361.5,-600.5"/>
<text text-anchor="middle" x="435" y="-607.5" font-family="Helvetica,sans-Serif" font-size="10.00">MainWindow::slotExportMesh</text>
</a>
</g>
</g>
<!-- Node1&#45;&gt;Node6 -->
<g id="edge5" class="edge">
<title>Node1&#45;&gt;Node6</title>
<path fill="none" stroke="midnightblue" d="M600.93,-367.93C600.78,-414.47 593.5,-530.92 528,-591 522.35,-596.18 515.68,-600.1 508.54,-603.05"/>
<polygon fill="midnightblue" stroke="midnightblue" points="604.43,-367.65 600.85,-357.68 597.43,-367.71 604.43,-367.65"/>
</g>
<!-- Node7 -->
<g id="node7" class="node">
<title>Node7</title>
<g id="a_node7"><a xlink:href="../../d9/dc6/class_main_window.html#aa9c04ef63aa1c705b8e5a26aec1cdf9b" target="_top" xlink:title=" ">
<polygon fill="white" stroke="black" points="350.5,-562.5 350.5,-581.5 519.5,-581.5 519.5,-562.5 350.5,-562.5"/>
<text text-anchor="middle" x="435" y="-569.5" font-family="Helvetica,sans-Serif" font-size="10.00">MainWindow::slotExportOpenScad</text>
</a>
</g>
</g>
<!-- Node1&#45;&gt;Node7 -->
<g id="edge7" class="edge">
<title>Node1&#45;&gt;Node7</title>
<path fill="none" stroke="midnightblue" d="M599.67,-367.58C596.82,-408.65 584.17,-504.01 528,-553 523.7,-556.75 518.85,-559.83 513.69,-562.36"/>
<polygon fill="midnightblue" stroke="midnightblue" points="603.17,-367.71 600.24,-357.52 596.18,-367.31 603.17,-367.71"/>
</g>
<!-- Node8 -->
<g id="node8" class="node">
<title>Node8</title>
<g id="a_node8"><a xlink:href="../../d9/dc6/class_main_window.html#a7a4870ffc9b56db8b4b5b8991493f557" target="_top" xlink:title=" ">
<polygon fill="white" stroke="black" points="367.5,-513 367.5,-543 502.5,-543 502.5,-513 367.5,-513"/>
<text text-anchor="start" x="375.5" y="-531" font-family="Helvetica,sans-Serif" font-size="10.00">MainWindow::slotFreehand</text>
<text text-anchor="middle" x="435" y="-520" font-family="Helvetica,sans-Serif" font-size="10.00">ConnectorTool</text>
</a>
</g>
</g>
<!-- Node1&#45;&gt;Node8 -->
<g id="edge9" class="edge">
<title>Node1&#45;&gt;Node8</title>
<path fill="none" stroke="midnightblue" d="M596.97,-367.68C589.95,-400.92 571.05,-468.07 528,-504 520.65,-510.13 511.91,-514.72 502.78,-518.15"/>
<polygon fill="midnightblue" stroke="midnightblue" points="600.42,-368.29 598.91,-357.8 593.55,-366.94 600.42,-368.29"/>
</g>
<!-- Node9 -->
<g id="node9" class="node">
<title>Node9</title>
<g id="a_node9"><a xlink:href="../../d9/dc6/class_main_window.html#a07971de2bcf8349b2fbf02fc5e76e318" target="_top" xlink:title=" ">
<polygon fill="white" stroke="black" points="367.5,-464 367.5,-494 502.5,-494 502.5,-464 367.5,-464"/>
<text text-anchor="start" x="375.5" y="-482" font-family="Helvetica,sans-Serif" font-size="10.00">MainWindow::slotFreehand</text>
<text text-anchor="middle" x="435" y="-471" font-family="Helvetica,sans-Serif" font-size="10.00">MagnetTool</text>
</a>
</g>
</g>
<!-- Node1&#45;&gt;Node9 -->
<g id="edge11" class="edge">
<title>Node1&#45;&gt;Node9</title>
<path fill="none" stroke="midnightblue" d="M592.79,-366.91C581.95,-391.07 559.91,-432.45 528,-455 520.45,-460.34 511.8,-464.48 502.9,-467.71"/>
<polygon fill="midnightblue" stroke="midnightblue" points="596.01,-368.29 596.74,-357.72 589.58,-365.52 596.01,-368.29"/>
</g>
<!-- Node10 -->
<g id="node10" class="node">
<title>Node10</title>
<g id="a_node10"><a xlink:href="../../d9/dc6/class_main_window.html#ae2f34d6070e32449a77fad805bd413ef" target="_top" xlink:title=" ">
<polygon fill="white" stroke="black" points="367.5,-415 367.5,-445 502.5,-445 502.5,-415 367.5,-415"/>
<text text-anchor="start" x="375.5" y="-433" font-family="Helvetica,sans-Serif" font-size="10.00">MainWindow::slotFreehand</text>
<text text-anchor="middle" x="435" y="-422" font-family="Helvetica,sans-Serif" font-size="10.00">TouchpointTool</text>
</a>
</g>
</g>
<!-- Node1&#45;&gt;Node10 -->
<g id="edge13" class="edge">
<title>Node1&#45;&gt;Node10</title>
<path fill="none" stroke="midnightblue" d="M583.73,-364.42C569.85,-377.17 549.05,-394.42 528,-405 520.01,-409.01 511.3,-412.45 502.53,-415.37"/>
<polygon fill="midnightblue" stroke="midnightblue" points="586.19,-366.92 591.06,-357.51 581.38,-361.83 586.19,-366.92"/>
</g>
<!-- Node11 -->
<g id="node11" class="node">
<title>Node11</title>
<g id="a_node11"><a xlink:href="../../d9/dc6/class_main_window.html#a2faae5bc0aeb2b1678fc404e6824bb22" target="_top" xlink:title=" ">
<polygon fill="white" stroke="black" points="343,-376.5 343,-395.5 527,-395.5 527,-376.5 343,-376.5"/>
<text text-anchor="middle" x="435" y="-383.5" font-family="Helvetica,sans-Serif" font-size="10.00">MainWindow::slotLassoConnectorTool</text>
</a>
</g>
</g>
<!-- Node1&#45;&gt;Node11 -->
<g id="edge15" class="edge">
<title>Node1&#45;&gt;Node11</title>
<path fill="none" stroke="midnightblue" d="M555.82,-360.1C546.64,-362.48 537.02,-364.89 528,-367 514.03,-370.27 498.79,-373.54 484.81,-376.42"/>
<polygon fill="midnightblue" stroke="midnightblue" points="556.77,-363.47 565.56,-357.55 555,-356.7 556.77,-363.47"/>
</g>
<!-- Node12 -->
<g id="node12" class="node">
<title>Node12</title>
<g id="a_node12"><a xlink:href="../../d9/dc6/class_main_window.html#afc1f42fae7a3264cad5527106dd694cc" target="_top" xlink:title=" ">
<polygon fill="white" stroke="black" points="349.5,-338.5 349.5,-357.5 520.5,-357.5 520.5,-338.5 349.5,-338.5"/>
<text text-anchor="middle" x="435" y="-345.5" font-family="Helvetica,sans-Serif" font-size="10.00">MainWindow::slotLassoMagnetTool</text>
</a>
</g>
</g>
<!-- Node1&#45;&gt;Node12 -->
<g id="edge17" class="edge">
<title>Node1&#45;&gt;Node12</title>
<path fill="none" stroke="midnightblue" d="M553.88,-348C543.42,-348 532.01,-348 520.54,-348"/>
<polygon fill="midnightblue" stroke="midnightblue" points="553.99,-351.5 563.99,-348 553.99,-344.5 553.99,-351.5"/>
</g>
<!-- Node13 -->
<g id="node13" class="node">
<title>Node13</title>
<g id="a_node13"><a xlink:href="../../d9/dc6/class_main_window.html#aa8469086fa2aa2924362cd671ded0b55" target="_top" xlink:title=" ">
<polygon fill="white" stroke="black" points="342,-300.5 342,-319.5 528,-319.5 528,-300.5 342,-300.5"/>
<text text-anchor="middle" x="435" y="-307.5" font-family="Helvetica,sans-Serif" font-size="10.00">MainWindow::slotLassoTouchpointTool</text>
</a>
</g>
</g>
<!-- Node1&#45;&gt;Node13 -->
<g id="edge19" class="edge">
<title>Node1&#45;&gt;Node13</title>
<path fill="none" stroke="midnightblue" d="M555.82,-335.9C546.64,-333.52 537.02,-331.11 528,-329 514.03,-325.73 498.79,-322.46 484.81,-319.58"/>
<polygon fill="midnightblue" stroke="midnightblue" points="555,-339.3 565.56,-338.45 556.77,-332.53 555,-339.3"/>
</g>
<!-- Node14 -->
<g id="node14" class="node">
<title>Node14</title>
<g id="a_node14"><a xlink:href="../../d9/dc6/class_main_window.html#af4ab1da78fca68d021608f548aa3010c" target="_top" xlink:title=" ">
<polygon fill="white" stroke="black" points="353,-262.5 353,-281.5 517,-281.5 517,-262.5 353,-262.5"/>
<text text-anchor="middle" x="435" y="-269.5" font-family="Helvetica,sans-Serif" font-size="10.00">MainWindow::slotPlaceConnector</text>
</a>
</g>
</g>
<!-- Node1&#45;&gt;Node14 -->
<g id="edge21" class="edge">
<title>Node1&#45;&gt;Node14</title>
<path fill="none" stroke="midnightblue" d="M583.91,-331.23C570.12,-318.27 549.36,-300.93 528,-291 519.72,-287.15 510.66,-284.08 501.55,-281.62"/>
<polygon fill="midnightblue" stroke="midnightblue" points="581.55,-333.82 591.17,-338.26 586.42,-328.79 581.55,-333.82"/>
</g>
<!-- Node15 -->
<g id="node15" class="node">
<title>Node15</title>
<g id="a_node15"><a xlink:href="../../d9/dc6/class_main_window.html#a123c802574270d5e2aacf276bafa5216" target="_top" xlink:title=" ">
<polygon fill="white" stroke="black" points="359,-224.5 359,-243.5 511,-243.5 511,-224.5 359,-224.5"/>
<text text-anchor="middle" x="435" y="-231.5" font-family="Helvetica,sans-Serif" font-size="10.00">MainWindow::slotPlaceMagnet</text>
</a>
</g>
</g>
<!-- Node1&#45;&gt;Node15 -->
<g id="edge23" class="edge">
<title>Node1&#45;&gt;Node15</title>
<path fill="none" stroke="midnightblue" d="M591.55,-329.38C580.02,-307.49 557.85,-271.77 528,-253 521.92,-249.18 515.22,-246.11 508.28,-243.65"/>
<polygon fill="midnightblue" stroke="midnightblue" points="588.46,-331.01 596.09,-338.36 594.7,-327.85 588.46,-331.01"/>
</g>
<!-- Node16 -->
<g id="node16" class="node">
<title>Node16</title>
<g id="a_node16"><a xlink:href="../../d9/dc6/class_main_window.html#a5b224e6f36ad99ab661c67a114ca298e" target="_top" xlink:title=" ">
<polygon fill="white" stroke="black" points="351.5,-186.5 351.5,-205.5 518.5,-205.5 518.5,-186.5 351.5,-186.5"/>
<text text-anchor="middle" x="435" y="-193.5" font-family="Helvetica,sans-Serif" font-size="10.00">MainWindow::slotPlaceTouchpoint</text>
</a>
</g>
</g>
<!-- Node1&#45;&gt;Node16 -->
<g id="edge25" class="edge">
<title>Node1&#45;&gt;Node16</title>
<path fill="none" stroke="midnightblue" d="M595.56,-328.55C587.03,-299.1 566.6,-243.6 528,-215 522.89,-211.21 517.2,-208.14 511.23,-205.65"/>
<polygon fill="midnightblue" stroke="midnightblue" points="592.25,-329.73 598.26,-338.45 599.01,-327.88 592.25,-329.73"/>
</g>
<!-- Node17 -->
<g id="node17" class="node">
<title>Node17</title>
<g id="a_node17"><a xlink:href="../../d9/dc6/class_main_window.html#a46a1a75ffe60c12200ebd0567a768159" target="_top" xlink:title=" ">
<polygon fill="white" stroke="black" points="370.5,-137 370.5,-167 499.5,-167 499.5,-137 370.5,-137"/>
<text text-anchor="start" x="378.5" y="-155" font-family="Helvetica,sans-Serif" font-size="10.00">MainWindow::slotPolyline</text>
<text text-anchor="middle" x="435" y="-144" font-family="Helvetica,sans-Serif" font-size="10.00">ConnectorTool</text>
</a>
</g>
</g>
<!-- Node1&#45;&gt;Node17 -->
<g id="edge27" class="edge">
<title>Node1&#45;&gt;Node17</title>
<path fill="none" stroke="midnightblue" d="M597.77,-328.02C591.81,-292.28 574.25,-217.37 528,-177 519.89,-169.93 509.97,-164.83 499.68,-161.17"/>
<polygon fill="midnightblue" stroke="midnightblue" points="594.35,-328.8 599.32,-338.15 601.27,-327.74 594.35,-328.8"/>
</g>
<!-- Node18 -->
<g id="node18" class="node">
<title>Node18</title>
<g id="a_node18"><a xlink:href="../../d9/dc6/class_main_window.html#a296ec689da73b2de6698e7e383622371" target="_top" xlink:title=" ">
<polygon fill="white" stroke="black" points="370.5,-88 370.5,-118 499.5,-118 499.5,-88 370.5,-88"/>
<text text-anchor="start" x="378.5" y="-106" font-family="Helvetica,sans-Serif" font-size="10.00">MainWindow::slotPolyline</text>
<text text-anchor="middle" x="435" y="-95" font-family="Helvetica,sans-Serif" font-size="10.00">MagnetTool</text>
</a>
</g>
</g>
<!-- Node1&#45;&gt;Node18 -->
<g id="edge29" class="edge">
<title>Node1&#45;&gt;Node18</title>
<path fill="none" stroke="midnightblue" d="M599.95,-328.18C597.64,-285.23 586,-183.01 528,-128 520.07,-120.48 510.12,-115.18 499.71,-111.45"/>
<polygon fill="midnightblue" stroke="midnightblue" points="596.46,-328.57 600.37,-338.42 603.45,-328.28 596.46,-328.57"/>
</g>
<!-- Node19 -->
<g id="node19" class="node">
<title>Node19</title>
<g id="a_node19"><a xlink:href="../../d9/dc6/class_main_window.html#a4eab8fa78334db2aa0c712056789b19f" target="_top" xlink:title=" ">
<polygon fill="white" stroke="black" points="370.5,-39 370.5,-69 499.5,-69 499.5,-39 370.5,-39"/>
<text text-anchor="start" x="378.5" y="-57" font-family="Helvetica,sans-Serif" font-size="10.00">MainWindow::slotPolyline</text>
<text text-anchor="middle" x="435" y="-46" font-family="Helvetica,sans-Serif" font-size="10.00">TouchpointTool</text>
</a>
</g>
</g>
<!-- Node1&#45;&gt;Node19 -->
<g id="edge31" class="edge">
<title>Node1&#45;&gt;Node19</title>
<path fill="none" stroke="midnightblue" d="M601.36,-328.27C602.38,-278.91 597.89,-149.04 528,-79 520.17,-71.15 510.13,-65.7 499.58,-61.92"/>
<polygon fill="midnightblue" stroke="midnightblue" points="597.86,-328.17 601.05,-338.27 604.86,-328.38 597.86,-328.17"/>
</g>
<!-- Node20 -->
<g id="node20" class="node">
<title>Node20</title>
<g id="a_node20"><a xlink:href="../../d9/dc6/class_main_window.html#aa0de90b823eb0761571f740ecbec0fd2" target="_top" xlink:title=" ">
<polygon fill="white" stroke="black" points="353,-0.5 353,-19.5 517,-19.5 517,-0.5 353,-0.5"/>
<text text-anchor="middle" x="435" y="-7.5" font-family="Helvetica,sans-Serif" font-size="10.00">MainWindow::slotPSInterfaceTool</text>
</a>
</g>
</g>
<!-- Node1&#45;&gt;Node20 -->
<g id="edge33" class="edge">
<title>Node1&#45;&gt;Node20</title>
<path fill="none" stroke="midnightblue" d="M598.74,-328.31C592.73,-265.66 571,-72.57 528,-30 523.7,-25.75 518.72,-22.3 513.35,-19.53"/>
<polygon fill="midnightblue" stroke="midnightblue" points="595.27,-328.79 599.68,-338.42 602.24,-328.14 595.27,-328.79"/>
</g>
<!-- Node4 -->
<g id="node4" class="node">
<title>Node4</title>
<g id="a_node4"><a xlink:href="../../d9/dc6/class_main_window.html#a33dddfc15db4053f9117728538e7ece4" target="_top" xlink:title="Set up qt specific signal and slots part for enabling user interaction.">
<polygon fill="white" stroke="black" points="171,-314 171,-344 306,-344 306,-314 171,-314"/>
<text text-anchor="start" x="179" y="-332" font-family="Helvetica,sans-Serif" font-size="10.00">MainWindow::setupSignals</text>
<text text-anchor="middle" x="238.5" y="-321" font-family="Helvetica,sans-Serif" font-size="10.00">AndSlots</text>
</a>
</g>
</g>
<!-- Node3&#45;&gt;Node4 -->
<g id="edge3" class="edge">
<title>Node3&#45;&gt;Node4</title>
<path fill="none" stroke="midnightblue" d="M358.5,-639.47C352.51,-636.75 346.9,-633.32 342,-629 253.65,-551.1 241.38,-393.8 239.74,-344.29"/>
<polygon fill="midnightblue" stroke="midnightblue" points="357.58,-642.86 368.17,-643.17 360.09,-636.33 357.58,-642.86"/>
</g>
<!-- Node5 -->
<g id="node5" class="node">
<title>Node5</title>
<g id="a_node5"><a xlink:href="../../d9/dc6/class_main_window.html#a996c5a2b6f77944776856f08ec30858d" target="_top" xlink:title=" ">
<polygon fill="white" stroke="black" points="0,-319.5 0,-338.5 135,-338.5 135,-319.5 0,-319.5"/>
<text text-anchor="middle" x="67.5" y="-326.5" font-family="Helvetica,sans-Serif" font-size="10.00">MainWindow::MainWindow</text>
</a>
</g>
</g>
<!-- Node4&#45;&gt;Node5 -->
<g id="edge4" class="edge">
<title>Node4&#45;&gt;Node5</title>
<path fill="none" stroke="midnightblue" d="M160.45,-329C151.98,-329 143.41,-329 135.08,-329"/>
<polygon fill="midnightblue" stroke="midnightblue" points="160.71,-332.5 170.71,-329 160.71,-325.5 160.71,-332.5"/>
</g>
<!-- Node6&#45;&gt;Node4 -->
<g id="edge6" class="edge">
<title>Node6&#45;&gt;Node4</title>
<path fill="none" stroke="midnightblue" d="M352.14,-597.97C348.54,-595.95 345.14,-593.65 342,-591 263.23,-524.55 244.67,-389.65 240.59,-344.28"/>
<polygon fill="midnightblue" stroke="midnightblue" points="350.89,-601.25 361.42,-602.39 353.9,-594.93 350.89,-601.25"/>
</g>
<!-- Node7&#45;&gt;Node4 -->
<g id="edge8" class="edge">
<title>Node7&#45;&gt;Node4</title>
<path fill="none" stroke="midnightblue" d="M348.49,-557.55C346.24,-556.16 344.06,-554.64 342,-553 272.59,-497.71 248.36,-384.88 241.67,-344.12"/>
<polygon fill="midnightblue" stroke="midnightblue" points="347.09,-560.77 357.57,-562.33 350.36,-554.57 347.09,-560.77"/>
</g>
<!-- Node8&#45;&gt;Node4 -->
<g id="edge10" class="edge">
<title>Node8&#45;&gt;Node4</title>
<path fill="none" stroke="midnightblue" d="M357.68,-513.35C352.11,-510.73 346.81,-507.64 342,-504 285.72,-461.39 254.72,-378.18 243.93,-344.1"/>
<polygon fill="midnightblue" stroke="midnightblue" points="356.67,-516.72 367.25,-517.34 359.36,-510.26 356.67,-516.72"/>
</g>
<!-- Node9&#45;&gt;Node4 -->
<g id="edge12" class="edge">
<title>Node9&#45;&gt;Node4</title>
<path fill="none" stroke="midnightblue" d="M357.66,-463.26C352.18,-460.88 346.89,-458.15 342,-455 296.94,-426.02 262.3,-370.65 247.44,-344.03"/>
<polygon fill="midnightblue" stroke="midnightblue" points="356.45,-466.54 367.04,-466.93 359,-460.02 356.45,-466.54"/>
</g>
<!-- Node10&#45;&gt;Node4 -->
<g id="edge14" class="edge">
<title>Node10&#45;&gt;Node4</title>
<path fill="none" stroke="midnightblue" d="M357.44,-411.59C352.13,-409.59 346.93,-407.39 342,-405 308.51,-388.76 274.84,-361.1 255.64,-344.01"/>
<polygon fill="midnightblue" stroke="midnightblue" points="356.49,-414.97 367.09,-414.99 358.82,-408.36 356.49,-414.97"/>
</g>
<!-- Node11&#45;&gt;Node4 -->
<g id="edge16" class="edge">
<title>Node11&#45;&gt;Node4</title>
<path fill="none" stroke="midnightblue" d="M370.66,-374.24C361,-372.06 351.19,-369.64 342,-367 319.74,-360.62 295.42,-351.69 276.06,-344.09"/>
<polygon fill="midnightblue" stroke="midnightblue" points="370.12,-377.7 380.64,-376.41 371.61,-370.86 370.12,-377.7"/>
</g>
<!-- Node12&#45;&gt;Node4 -->
<g id="edge18" class="edge">
<title>Node12&#45;&gt;Node4</title>
<path fill="none" stroke="midnightblue" d="M339.06,-338.73C327.93,-337.64 316.76,-336.55 306.13,-335.51"/>
<polygon fill="midnightblue" stroke="midnightblue" points="338.96,-342.23 349.26,-339.72 339.64,-335.27 338.96,-342.23"/>
</g>
<!-- Node13&#45;&gt;Node4 -->
<g id="edge20" class="edge">
<title>Node13&#45;&gt;Node4</title>
<path fill="none" stroke="midnightblue" d="M331.68,-320C323,-320.84 314.37,-321.69 306.08,-322.5"/>
<polygon fill="midnightblue" stroke="midnightblue" points="332.26,-323.45 341.88,-319 331.58,-316.49 332.26,-323.45"/>
</g>
<!-- Node14&#45;&gt;Node4 -->
<g id="edge22" class="edge">
<title>Node14&#45;&gt;Node4</title>
<path fill="none" stroke="midnightblue" d="M370.66,-283.76C361,-285.94 351.19,-288.36 342,-291 319.74,-297.38 295.42,-306.31 276.06,-313.91"/>
<polygon fill="midnightblue" stroke="midnightblue" points="371.61,-287.14 380.64,-281.59 370.12,-280.3 371.61,-287.14"/>
</g>
<!-- Node15&#45;&gt;Node4 -->
<g id="edge24" class="edge">
<title>Node15&#45;&gt;Node4</title>
<path fill="none" stroke="midnightblue" d="M359.82,-246.35C353.68,-248.26 347.67,-250.46 342,-253 307.83,-268.29 274.1,-296.52 255.13,-313.93"/>
<polygon fill="midnightblue" stroke="midnightblue" points="360.87,-249.69 369.52,-243.58 358.95,-242.96 360.87,-249.69"/>
</g>
<!-- Node16&#45;&gt;Node4 -->
<g id="edge26" class="edge">
<title>Node16&#45;&gt;Node4</title>
<path fill="none" stroke="midnightblue" d="M354.37,-209.01C350.08,-210.76 345.93,-212.75 342,-215 299.07,-239.64 264.41,-288.66 248.67,-313.62"/>
<polygon fill="midnightblue" stroke="midnightblue" points="355.73,-212.23 363.94,-205.53 353.34,-205.66 355.73,-212.23"/>
</g>
<!-- Node17&#45;&gt;Node4 -->
<g id="edge28" class="edge">
<title>Node17&#45;&gt;Node4</title>
<path fill="none" stroke="midnightblue" d="M361.08,-166.45C354.32,-169.35 347.83,-172.83 342,-177 291.28,-213.32 258.14,-283.12 245.39,-313.85"/>
<polygon fill="midnightblue" stroke="midnightblue" points="362.36,-169.71 370.43,-162.85 359.84,-163.18 362.36,-169.71"/>
</g>
<!-- Node18&#45;&gt;Node4 -->
<g id="edge30" class="edge">
<title>Node18&#45;&gt;Node4</title>
<path fill="none" stroke="midnightblue" d="M360.85,-116.59C354.08,-119.66 347.65,-123.41 342,-128 279.98,-178.39 251.72,-276.11 242.79,-313.73"/>
<polygon fill="midnightblue" stroke="midnightblue" points="362.27,-119.79 370.25,-112.82 359.66,-113.29 362.27,-119.79"/>
</g>
<!-- Node19&#45;&gt;Node4 -->
<g id="edge32" class="edge">
<title>Node19&#45;&gt;Node4</title>
<path fill="none" stroke="midnightblue" d="M360.76,-66.97C353.96,-70.15 347.54,-74.1 342,-79 268.34,-144.06 246.6,-270.06 241.13,-313.69"/>
<polygon fill="midnightblue" stroke="midnightblue" points="362.32,-70.12 370.25,-63.09 359.67,-63.64 362.32,-70.12"/>
</g>
<!-- Node20&#45;&gt;Node4 -->
<g id="edge34" class="edge">
<title>Node20&#45;&gt;Node4</title>
<path fill="none" stroke="midnightblue" d="M349.11,-24.57C346.61,-26.21 344.23,-28.01 342,-30 254.28,-108.08 241.59,-264.56 239.79,-313.8"/>
<polygon fill="midnightblue" stroke="midnightblue" points="350.98,-27.53 358.02,-19.61 347.58,-21.42 350.98,-27.53"/>
</g>
</g>
</svg>
