<?xml version="1.0" encoding="UTF-8" standalone="no"?>
<!DOCTYPE svg PUBLIC "-//W3C//DTD SVG 1.1//EN"
 "http://www.w3.org/Graphics/SVG/1.1/DTD/svg11.dtd">
<!-- Generated by graphviz version 2.44.1 (0)
 -->
<!-- Title: Touchpoint::setPolyData Pages: 1 -->
<svg width="479pt" height="39pt"
 viewBox="0.00 0.00 479.00 39.00" xmlns="http://www.w3.org/2000/svg" xmlns:xlink="http://www.w3.org/1999/xlink">
<g id="graph0" class="graph" transform="scale(1 1) rotate(0) translate(4 35)">
<title>Touchpoint::setPolyData</title>
<polygon fill="white" stroke="transparent" points="-4,4 -4,-35 475,-35 475,4 -4,4"/>
<!-- Node1 -->
<g id="node1" class="node">
<title>Node1</title>
<g id="a_node1"><a xlink:title="Set the polydata of the touchpoint.">
<polygon fill="#bfbfbf" stroke="black" points="0,-6 0,-25 124,-25 124,-6 0,-6"/>
<text text-anchor="middle" x="62" y="-13" font-family="Helvetica,sans-Serif" font-size="10.00">Touchpoint::setPolyData</text>
</a>
</g>
</g>
<!-- Node2 -->
<g id="node2" class="node">
<title>Node2</title>
<g id="a_node2"><a xlink:href="../../d9/d58/class_touchpoint.html#abc86c4002a67fd423b649d597b2055d5" target="_top" xlink:title="Creates the graphical representation (vtkActor) for a touchpoint geometry.">
<polygon fill="white" stroke="black" points="160,-0.5 160,-30.5 304,-30.5 304,-0.5 160,-0.5"/>
<text text-anchor="start" x="168" y="-18.5" font-family="Helvetica,sans-Serif" font-size="10.00">Touchpoint::createTouchpoint</text>
<text text-anchor="middle" x="232" y="-7.5" font-family="Helvetica,sans-Serif" font-size="10.00">Actor</text>
</a>
</g>
</g>
<!-- Node1&#45;&gt;Node2 -->
<g id="edge1" class="edge">
<title>Node1&#45;&gt;Node2</title>
<path fill="none" stroke="midnightblue" d="M124.13,-15.5C132.49,-15.5 141.18,-15.5 149.83,-15.5"/>
<polygon fill="midnightblue" stroke="midnightblue" points="149.94,-19 159.94,-15.5 149.94,-12 149.94,-19"/>
</g>
<!-- Node3 -->
<g id="node3" class="node">
<title>Node3</title>
<g id="a_node3"><a xlink:href="../../d9/d58/class_touchpoint.html#aabec59cfa02cddb2dab4420b3c056df0" target="_top" xlink:title="Return color value for a given touchpoint type.">
<polygon fill="white" stroke="black" points="340,-0.5 340,-30.5 471,-30.5 471,-0.5 340,-0.5"/>
<text text-anchor="start" x="348" y="-18.5" font-family="Helvetica,sans-Serif" font-size="10.00">Touchpoint::getTouchpoint</text>
<text text-anchor="middle" x="405.5" y="-7.5" font-family="Helvetica,sans-Serif" font-size="10.00">ColorFromType</text>
</a>
</g>
</g>
<!-- Node2&#45;&gt;Node3 -->
<g id="edge2" class="edge">
<title>Node2&#45;&gt;Node3</title>
<path fill="none" stroke="midnightblue" d="M304.24,-15.5C312.62,-15.5 321.18,-15.5 329.6,-15.5"/>
<polygon fill="midnightblue" stroke="midnightblue" points="329.79,-19 339.79,-15.5 329.79,-12 329.79,-19"/>
</g>
</g>
</svg>
