<?xml version="1.0" encoding="UTF-8" standalone="no"?>
<!DOCTYPE svg PUBLIC "-//W3C//DTD SVG 1.1//EN"
 "http://www.w3.org/Graphics/SVG/1.1/DTD/svg11.dtd">
<!-- Generated by graphviz version 2.44.1 (0)
 -->
<!-- Title: Touchpoint::getTouchpointColorFromType Pages: 1 -->
<svg width="842pt" height="364pt"
 viewBox="0.00 0.00 842.00 363.50" xmlns="http://www.w3.org/2000/svg" xmlns:xlink="http://www.w3.org/1999/xlink">
<g id="graph0" class="graph" transform="scale(1 1) rotate(0) translate(4 359.5)">
<title>Touchpoint::getTouchpointColorFromType</title>
<polygon fill="white" stroke="transparent" points="-4,4 -4,-359.5 838,-359.5 838,4 -4,4"/>
<!-- Node1 -->
<g id="node1" class="node">
<title>Node1</title>
<g id="a_node1"><a xlink:title="Return color value for a given touchpoint type.">
<polygon fill="#bfbfbf" stroke="black" points="703,-63 703,-93 834,-93 834,-63 703,-63"/>
<text text-anchor="start" x="711" y="-81" font-family="Helvetica,sans-Serif" font-size="10.00">Touchpoint::getTouchpoint</text>
<text text-anchor="middle" x="768.5" y="-70" font-family="Helvetica,sans-Serif" font-size="10.00">ColorFromType</text>
</a>
</g>
</g>
<!-- Node2 -->
<g id="node2" class="node">
<title>Node2</title>
<g id="a_node2"><a xlink:href="../../d9/d58/class_touchpoint.html#abc86c4002a67fd423b649d597b2055d5" target="_top" xlink:title="Creates the graphical representation (vtkActor) for a touchpoint geometry.">
<polygon fill="white" stroke="black" points="519,-137 519,-167 663,-167 663,-137 519,-137"/>
<text text-anchor="start" x="527" y="-155" font-family="Helvetica,sans-Serif" font-size="10.00">Touchpoint::createTouchpoint</text>
<text text-anchor="middle" x="591" y="-144" font-family="Helvetica,sans-Serif" font-size="10.00">Actor</text>
</a>
</g>
</g>
<!-- Node1&#45;&gt;Node2 -->
<g id="edge1" class="edge">
<title>Node1&#45;&gt;Node2</title>
<path fill="none" stroke="midnightblue" d="M729.89,-97.8C711.24,-107.24 688.22,-118.34 667,-127 658.49,-130.48 649.29,-133.85 640.36,-136.93"/>
<polygon fill="midnightblue" stroke="midnightblue" points="731.62,-100.85 738.93,-93.18 728.44,-94.61 731.62,-100.85"/>
</g>
<!-- Node15 -->
<g id="node15" class="node">
<title>Node15</title>
<g id="a_node15"><a xlink:href="../../de/dd7/class_polyline_touchpoint_tool.html#a68d7b8c4d090063977b3404e4084290a" target="_top" xlink:title=" ">
<polygon fill="white" stroke="black" points="533,-88 533,-118 649,-118 649,-88 533,-88"/>
<text text-anchor="start" x="541" y="-106" font-family="Helvetica,sans-Serif" font-size="10.00">PolylineTouchpointTool</text>
<text text-anchor="middle" x="591" y="-95" font-family="Helvetica,sans-Serif" font-size="10.00">::execute</text>
</a>
</g>
</g>
<!-- Node1&#45;&gt;Node15 -->
<g id="edge14" class="edge">
<title>Node1&#45;&gt;Node15</title>
<path fill="none" stroke="midnightblue" d="M692.64,-88.66C678.05,-90.74 662.97,-92.89 649.07,-94.87"/>
<polygon fill="midnightblue" stroke="midnightblue" points="693.24,-92.11 702.65,-87.24 692.26,-85.18 693.24,-92.11"/>
</g>
<!-- Node16 -->
<g id="node16" class="node">
<title>Node16</title>
<g id="a_node16"><a xlink:href="../../de/de0/class_freehand_touchpoint_tool.html#a553b2df8ed2128433bac512947a1ce2c" target="_top" xlink:title=" ">
<polygon fill="white" stroke="black" points="530,-39 530,-69 652,-69 652,-39 530,-39"/>
<text text-anchor="start" x="538" y="-57" font-family="Helvetica,sans-Serif" font-size="10.00">FreehandTouchpointTool</text>
<text text-anchor="middle" x="591" y="-46" font-family="Helvetica,sans-Serif" font-size="10.00">::execute</text>
</a>
</g>
</g>
<!-- Node1&#45;&gt;Node16 -->
<g id="edge15" class="edge">
<title>Node1&#45;&gt;Node16</title>
<path fill="none" stroke="midnightblue" d="M692.47,-67.74C679.03,-65.9 665.18,-64.01 652.22,-62.24"/>
<polygon fill="midnightblue" stroke="midnightblue" points="692.27,-71.24 702.65,-69.13 693.22,-64.31 692.27,-71.24"/>
</g>
<!-- Node17 -->
<g id="node17" class="node">
<title>Node17</title>
<g id="a_node17"><a xlink:href="../../d9/d58/class_touchpoint.html#a1ba7f090371ae01fa7f332410ff17c5a" target="_top" xlink:title="Set touchpoint type.">
<polygon fill="white" stroke="black" points="515,-0.5 515,-19.5 667,-19.5 667,-0.5 515,-0.5"/>
<text text-anchor="middle" x="591" y="-7.5" font-family="Helvetica,sans-Serif" font-size="10.00">Touchpoint::setTouchpointType</text>
</a>
</g>
</g>
<!-- Node1&#45;&gt;Node17 -->
<g id="edge16" class="edge">
<title>Node1&#45;&gt;Node17</title>
<path fill="none" stroke="midnightblue" d="M731.36,-58.14C712.57,-48.39 688.99,-37.05 667,-29 657.16,-25.4 646.36,-22.23 636.09,-19.56"/>
<polygon fill="midnightblue" stroke="midnightblue" points="729.96,-61.36 740.44,-62.91 733.22,-55.16 729.96,-61.36"/>
</g>
<!-- Node3 -->
<g id="node3" class="node">
<title>Node3</title>
<g id="a_node3"><a xlink:href="../../d9/d58/class_touchpoint.html#aa9274369fab341dc277036e07dbfc234" target="_top" xlink:title="Set the polydata of the touchpoint.">
<polygon fill="white" stroke="black" points="355,-161.5 355,-180.5 479,-180.5 479,-161.5 355,-161.5"/>
<text text-anchor="middle" x="417" y="-168.5" font-family="Helvetica,sans-Serif" font-size="10.00">Touchpoint::setPolyData</text>
</a>
</g>
</g>
<!-- Node2&#45;&gt;Node3 -->
<g id="edge2" class="edge">
<title>Node2&#45;&gt;Node3</title>
<path fill="none" stroke="midnightblue" d="M508.34,-161.02C498.5,-162.11 488.58,-163.2 479.1,-164.25"/>
<polygon fill="midnightblue" stroke="midnightblue" points="509,-164.47 518.55,-159.89 508.23,-157.51 509,-164.47"/>
</g>
<!-- Node14 -->
<g id="node14" class="node">
<title>Node14</title>
<g id="a_node14"><a xlink:href="../../d9/d58/class_touchpoint.html#ac808301e44120374657f08c0df2815d7" target="_top" xlink:title="Constructs a touchpoint from given polydata.">
<polygon fill="white" stroke="black" points="358.5,-123.5 358.5,-142.5 475.5,-142.5 475.5,-123.5 358.5,-123.5"/>
<text text-anchor="middle" x="417" y="-130.5" font-family="Helvetica,sans-Serif" font-size="10.00">Touchpoint::Touchpoint</text>
</a>
</g>
</g>
<!-- Node2&#45;&gt;Node14 -->
<g id="edge13" class="edge">
<title>Node2&#45;&gt;Node14</title>
<path fill="none" stroke="midnightblue" d="M508.42,-142.99C497.34,-141.76 486.16,-140.53 475.62,-139.36"/>
<polygon fill="midnightblue" stroke="midnightblue" points="508.23,-146.49 518.55,-144.11 509,-139.53 508.23,-146.49"/>
</g>
<!-- Node4 -->
<g id="node4" class="node">
<title>Node4</title>
<g id="a_node4"><a xlink:href="../../d6/db5/class_scene.html#ac01cc081cd4585c277b21c7f9fa95b8b" target="_top" xlink:title="Remvoe a connector from the scene given its unique connector id.">
<polygon fill="white" stroke="black" points="190,-281.5 190,-300.5 318,-300.5 318,-281.5 190,-281.5"/>
<text text-anchor="middle" x="254" y="-288.5" font-family="Helvetica,sans-Serif" font-size="10.00">Scene::removeConnector</text>
</a>
</g>
</g>
<!-- Node3&#45;&gt;Node4 -->
<g id="edge3" class="edge">
<title>Node3&#45;&gt;Node4</title>
<path fill="none" stroke="midnightblue" d="M394.83,-186.78C360.98,-212.01 295.69,-260.67 267.96,-281.34"/>
<polygon fill="midnightblue" stroke="midnightblue" points="397.17,-189.4 403.1,-180.62 392.99,-183.79 397.17,-189.4"/>
</g>
<!-- Node7 -->
<g id="node7" class="node">
<title>Node7</title>
<g id="a_node7"><a xlink:href="../../d6/db5/class_scene.html#af1128c48ccb6999066aa1d935075cb23" target="_top" xlink:title="Remove a touchpoint from the scene given its unique touchpoint id.">
<polygon fill="white" stroke="black" points="189,-183.5 189,-202.5 319,-202.5 319,-183.5 189,-183.5"/>
<text text-anchor="middle" x="254" y="-190.5" font-family="Helvetica,sans-Serif" font-size="10.00">Scene::removeTouchpoint</text>
</a>
</g>
</g>
<!-- Node3&#45;&gt;Node7 -->
<g id="edge6" class="edge">
<title>Node3&#45;&gt;Node7</title>
<path fill="none" stroke="midnightblue" d="M344.74,-180.74C336.2,-181.9 327.53,-183.09 319.1,-184.24"/>
<polygon fill="midnightblue" stroke="midnightblue" points="345.24,-184.2 354.67,-179.38 344.29,-177.27 345.24,-184.2"/>
</g>
<!-- Node12 -->
<g id="node12" class="node">
<title>Node12</title>
<g id="a_node12"><a xlink:href="../../db/d46/class_touchpoint_registry.html#a18c09937c7361167f40db48812ea1afc" target="_top" xlink:title="Clear everything.">
<polygon fill="white" stroke="black" points="203.5,-134 203.5,-164 304.5,-164 304.5,-134 203.5,-134"/>
<text text-anchor="start" x="211.5" y="-152" font-family="Helvetica,sans-Serif" font-size="10.00">TouchpointRegistry</text>
<text text-anchor="middle" x="254" y="-141" font-family="Helvetica,sans-Serif" font-size="10.00">::reset</text>
</a>
</g>
</g>
<!-- Node3&#45;&gt;Node12 -->
<g id="edge11" class="edge">
<title>Node3&#45;&gt;Node12</title>
<path fill="none" stroke="midnightblue" d="M344.48,-161.23C331.04,-159.39 317.26,-157.51 304.67,-155.79"/>
<polygon fill="midnightblue" stroke="midnightblue" points="344.29,-164.73 354.67,-162.62 345.24,-157.8 344.29,-164.73"/>
</g>
<!-- Node13 -->
<g id="node13" class="node">
<title>Node13</title>
<g id="a_node13"><a xlink:href="../../d6/db5/class_scene.html#a30201c068436f1339f9709b778b19ee1" target="_top" xlink:title="Reset the whole scene and all actors.">
<polygon fill="white" stroke="black" points="204,-95.5 204,-114.5 304,-114.5 304,-95.5 204,-95.5"/>
<text text-anchor="middle" x="254" y="-102.5" font-family="Helvetica,sans-Serif" font-size="10.00">Scene::resetScene</text>
</a>
</g>
</g>
<!-- Node3&#45;&gt;Node13 -->
<g id="edge12" class="edge">
<title>Node3&#45;&gt;Node13</title>
<path fill="none" stroke="midnightblue" d="M368.28,-157.98C363.7,-156.19 359.2,-154.2 355,-152 337.03,-142.61 337.03,-133.27 319,-124 311.68,-120.24 303.5,-117.1 295.5,-114.53"/>
<polygon fill="midnightblue" stroke="midnightblue" points="367.14,-161.29 377.73,-161.4 369.51,-154.71 367.14,-161.29"/>
</g>
<!-- Node5 -->
<g id="node5" class="node">
<title>Node5</title>
<g id="a_node5"><a xlink:href="../../d1/da7/class_place_ground_plane8_connectors_tool.html#a9388811a14ed25cfa2513a210e786523" target="_top" xlink:title=" ">
<polygon fill="white" stroke="black" points="0,-325 0,-355 153,-355 153,-325 0,-325"/>
<text text-anchor="start" x="8" y="-343" font-family="Helvetica,sans-Serif" font-size="10.00">PlaceGroundPlane8Connectors</text>
<text text-anchor="middle" x="76.5" y="-332" font-family="Helvetica,sans-Serif" font-size="10.00">Tool::undo</text>
</a>
</g>
</g>
<!-- Node4&#45;&gt;Node5 -->
<g id="edge4" class="edge">
<title>Node4&#45;&gt;Node5</title>
<path fill="none" stroke="midnightblue" d="M209.03,-303.28C185.47,-309.85 156.26,-318.01 131.36,-324.96"/>
<polygon fill="midnightblue" stroke="midnightblue" points="210.05,-306.62 218.75,-300.56 208.17,-299.88 210.05,-306.62"/>
</g>
<!-- Node6 -->
<g id="node6" class="node">
<title>Node6</title>
<g id="a_node6"><a xlink:href="../../dc/db2/class_place_ground_plane4_connectors_tool.html#a1977c6cac0bb721d0db3fc0aec683a21" target="_top" xlink:title=" ">
<polygon fill="white" stroke="black" points="0,-276 0,-306 153,-306 153,-276 0,-276"/>
<text text-anchor="start" x="8" y="-294" font-family="Helvetica,sans-Serif" font-size="10.00">PlaceGroundPlane4Connectors</text>
<text text-anchor="middle" x="76.5" y="-283" font-family="Helvetica,sans-Serif" font-size="10.00">Tool::undo</text>
</a>
</g>
</g>
<!-- Node4&#45;&gt;Node6 -->
<g id="edge5" class="edge">
<title>Node4&#45;&gt;Node6</title>
<path fill="none" stroke="midnightblue" d="M179.48,-291C170.74,-291 161.8,-291 153.03,-291"/>
<polygon fill="midnightblue" stroke="midnightblue" points="179.64,-294.5 189.64,-291 179.64,-287.5 179.64,-294.5"/>
</g>
<!-- Node8 -->
<g id="node8" class="node">
<title>Node8</title>
<g id="a_node8"><a xlink:href="../../d1/d4e/class_place_touchpoint_tool.html#aa565ccff15d4591dc9c6dee73adfe6e8" target="_top" xlink:title=" ">
<polygon fill="white" stroke="black" points="23,-227 23,-257 130,-257 130,-227 23,-227"/>
<text text-anchor="start" x="31" y="-245" font-family="Helvetica,sans-Serif" font-size="10.00">PlaceTouchpointTool</text>
<text text-anchor="middle" x="76.5" y="-234" font-family="Helvetica,sans-Serif" font-size="10.00">::undo</text>
</a>
</g>
</g>
<!-- Node7&#45;&gt;Node8 -->
<g id="edge7" class="edge">
<title>Node7&#45;&gt;Node8</title>
<path fill="none" stroke="midnightblue" d="M208.9,-205.31C185.05,-211.97 155.41,-220.25 130.33,-227.25"/>
<polygon fill="midnightblue" stroke="midnightblue" points="210.05,-208.62 218.75,-202.56 208.17,-201.88 210.05,-208.62"/>
</g>
<!-- Node9 -->
<g id="node9" class="node">
<title>Node9</title>
<g id="a_node9"><a xlink:href="../../de/dd7/class_polyline_touchpoint_tool.html#a9ee474813d977ff7b9877372035a319c" target="_top" xlink:title=" ">
<polygon fill="white" stroke="black" points="18.5,-178 18.5,-208 134.5,-208 134.5,-178 18.5,-178"/>
<text text-anchor="start" x="26.5" y="-196" font-family="Helvetica,sans-Serif" font-size="10.00">PolylineTouchpointTool</text>
<text text-anchor="middle" x="76.5" y="-185" font-family="Helvetica,sans-Serif" font-size="10.00">::undo</text>
</a>
</g>
</g>
<!-- Node7&#45;&gt;Node9 -->
<g id="edge8" class="edge">
<title>Node7&#45;&gt;Node9</title>
<path fill="none" stroke="midnightblue" d="M178.56,-193C163.85,-193 148.62,-193 134.6,-193"/>
<polygon fill="midnightblue" stroke="midnightblue" points="178.65,-196.5 188.65,-193 178.65,-189.5 178.65,-196.5"/>
</g>
<!-- Node10 -->
<g id="node10" class="node">
<title>Node10</title>
<g id="a_node10"><a xlink:href="../../de/de0/class_freehand_touchpoint_tool.html#a8c241ab6ea3d7ced711c84036836e885" target="_top" xlink:title=" ">
<polygon fill="white" stroke="black" points="15.5,-129 15.5,-159 137.5,-159 137.5,-129 15.5,-129"/>
<text text-anchor="start" x="23.5" y="-147" font-family="Helvetica,sans-Serif" font-size="10.00">FreehandTouchpointTool</text>
<text text-anchor="middle" x="76.5" y="-136" font-family="Helvetica,sans-Serif" font-size="10.00">::undo</text>
</a>
</g>
</g>
<!-- Node7&#45;&gt;Node10 -->
<g id="edge9" class="edge">
<title>Node7&#45;&gt;Node10</title>
<path fill="none" stroke="midnightblue" d="M209.03,-180.72C185.47,-174.15 156.26,-165.99 131.36,-159.04"/>
<polygon fill="midnightblue" stroke="midnightblue" points="208.17,-184.12 218.75,-183.44 210.05,-177.38 208.17,-184.12"/>
</g>
<!-- Node11 -->
<g id="node11" class="node">
<title>Node11</title>
<g id="a_node11"><a xlink:href="../../dd/d4a/class_lasso_tool.html#ad4e65963efd59e0802ecb4fbd8d8b288" target="_top" xlink:title=" ">
<polygon fill="white" stroke="black" points="32.5,-90.5 32.5,-109.5 120.5,-109.5 120.5,-90.5 32.5,-90.5"/>
<text text-anchor="middle" x="76.5" y="-97.5" font-family="Helvetica,sans-Serif" font-size="10.00">LassoTool::undo</text>
</a>
</g>
</g>
<!-- Node7&#45;&gt;Node11 -->
<g id="edge10" class="edge">
<title>Node7&#45;&gt;Node11</title>
<path fill="none" stroke="midnightblue" d="M197.05,-179.1C194.23,-177.57 191.52,-175.88 189,-174 165.56,-156.55 176.8,-135.95 153,-119 143.53,-112.26 131.9,-107.9 120.64,-105.09"/>
<polygon fill="midnightblue" stroke="midnightblue" points="195.84,-182.39 206.38,-183.43 198.78,-176.04 195.84,-182.39"/>
</g>
</g>
</svg>
