<?xml version="1.0" encoding="UTF-8" standalone="no"?>
<!DOCTYPE svg PUBLIC "-//W3C//DTD SVG 1.1//EN"
 "http://www.w3.org/Graphics/SVG/1.1/DTD/svg11.dtd">
<!-- Generated by graphviz version 2.44.1 (0)
 -->
<!-- Title: Touchpoint::markTouchpointCells Pages: 1 -->
<svg width="659pt" height="176pt"
 viewBox="0.00 0.00 659.00 175.50" xmlns="http://www.w3.org/2000/svg" xmlns:xlink="http://www.w3.org/1999/xlink">
<g id="graph0" class="graph" transform="scale(1 1) rotate(0) translate(4 171.5)">
<title>Touchpoint::markTouchpointCells</title>
<polygon fill="white" stroke="transparent" points="-4,4 -4,-171.5 655,-171.5 655,4 -4,4"/>
<!-- Node1 -->
<g id="node1" class="node">
<title>Node1</title>
<g id="a_node1"><a xlink:title="Mark voxel grid cells occupied / unoccupied by the touchpoint geometry.">
<polygon fill="#bfbfbf" stroke="black" points="512,-85 512,-115 651,-115 651,-85 512,-85"/>
<text text-anchor="start" x="520" y="-103" font-family="Helvetica,sans-Serif" font-size="10.00">Touchpoint::markTouchpoint</text>
<text text-anchor="middle" x="581.5" y="-92" font-family="Helvetica,sans-Serif" font-size="10.00">Cells</text>
</a>
</g>
</g>
<!-- Node2 -->
<g id="node2" class="node">
<title>Node2</title>
<g id="a_node2"><a xlink:href="../../d9/d58/class_touchpoint.html#afbb2470ea0d67a12a29eb3d6bd958f01" target="_top" xlink:title="Mark voxel grid cells as occupied by the touchpoint geometry.">
<polygon fill="white" stroke="black" points="329.5,-110.5 329.5,-129.5 470.5,-129.5 470.5,-110.5 329.5,-110.5"/>
<text text-anchor="middle" x="400" y="-117.5" font-family="Helvetica,sans-Serif" font-size="10.00">Touchpoint::markOccupation</text>
</a>
</g>
</g>
<!-- Node1&#45;&gt;Node2 -->
<g id="edge1" class="edge">
<title>Node1&#45;&gt;Node2</title>
<path fill="none" stroke="midnightblue" d="M501.67,-108.78C491.38,-109.93 480.9,-111.1 470.78,-112.22"/>
<polygon fill="midnightblue" stroke="midnightblue" points="502.32,-112.23 511.87,-107.65 501.54,-105.28 502.32,-112.23"/>
</g>
<!-- Node4 -->
<g id="node4" class="node">
<title>Node4</title>
<g id="a_node4"><a xlink:href="../../d9/d58/class_touchpoint.html#a550348f9d05c347b5186b6531d583a11" target="_top" xlink:title="Mark voxel grid cells as unoccupied by the touchpoint geometry.">
<polygon fill="white" stroke="black" points="324,-71.5 324,-90.5 476,-90.5 476,-71.5 324,-71.5"/>
<text text-anchor="middle" x="400" y="-78.5" font-family="Helvetica,sans-Serif" font-size="10.00">Touchpoint::unMarkOccupation</text>
</a>
</g>
</g>
<!-- Node1&#45;&gt;Node4 -->
<g id="edge3" class="edge">
<title>Node1&#45;&gt;Node4</title>
<path fill="none" stroke="midnightblue" d="M501.92,-91.68C493.37,-90.78 484.68,-89.86 476.17,-88.96"/>
<polygon fill="midnightblue" stroke="midnightblue" points="501.56,-95.16 511.87,-92.74 502.29,-88.2 501.56,-95.16"/>
</g>
<!-- Node3 -->
<g id="node3" class="node">
<title>Node3</title>
<g id="a_node3"><a xlink:href="../../db/dbb/class_picking_interactor_style.html#a1620702107e2c2d0c0aefbd896098b0d" target="_top" xlink:title="Overloaded method, invoked when right mouse button is pressed.">
<polygon fill="white" stroke="black" points="166.5,-107 166.5,-137 279.5,-137 279.5,-107 166.5,-107"/>
<text text-anchor="start" x="174.5" y="-125" font-family="Helvetica,sans-Serif" font-size="10.00">PickingInteractorStyle</text>
<text text-anchor="middle" x="223" y="-114" font-family="Helvetica,sans-Serif" font-size="10.00">::OnRightButtonDown</text>
</a>
</g>
</g>
<!-- Node2&#45;&gt;Node3 -->
<g id="edge2" class="edge">
<title>Node2&#45;&gt;Node3</title>
<path fill="none" stroke="midnightblue" d="M319.2,-120.91C305.85,-121.06 292.27,-121.22 279.7,-121.36"/>
<polygon fill="midnightblue" stroke="midnightblue" points="319.37,-124.41 329.33,-120.8 319.29,-117.41 319.37,-124.41"/>
</g>
<!-- Node5 -->
<g id="node5" class="node">
<title>Node5</title>
<g id="a_node5"><a xlink:href="../../d6/db5/class_scene.html#af1128c48ccb6999066aa1d935075cb23" target="_top" xlink:title="Remove a touchpoint from the scene given its unique touchpoint id.">
<polygon fill="white" stroke="black" points="158,-68.5 158,-87.5 288,-87.5 288,-68.5 158,-68.5"/>
<text text-anchor="middle" x="223" y="-75.5" font-family="Helvetica,sans-Serif" font-size="10.00">Scene::removeTouchpoint</text>
</a>
</g>
</g>
<!-- Node4&#45;&gt;Node5 -->
<g id="edge4" class="edge">
<title>Node4&#45;&gt;Node5</title>
<path fill="none" stroke="midnightblue" d="M313.71,-79.54C305.11,-79.39 296.49,-79.24 288.17,-79.1"/>
<polygon fill="midnightblue" stroke="midnightblue" points="313.71,-83.04 323.77,-79.71 313.83,-76.04 313.71,-83.04"/>
</g>
<!-- Node6 -->
<g id="node6" class="node">
<title>Node6</title>
<g id="a_node6"><a xlink:href="../../d1/d4e/class_place_touchpoint_tool.html#aa565ccff15d4591dc9c6dee73adfe6e8" target="_top" xlink:title=" ">
<polygon fill="white" stroke="black" points="7.5,-137 7.5,-167 114.5,-167 114.5,-137 7.5,-137"/>
<text text-anchor="start" x="15.5" y="-155" font-family="Helvetica,sans-Serif" font-size="10.00">PlaceTouchpointTool</text>
<text text-anchor="middle" x="61" y="-144" font-family="Helvetica,sans-Serif" font-size="10.00">::undo</text>
</a>
</g>
</g>
<!-- Node5&#45;&gt;Node6 -->
<g id="edge5" class="edge">
<title>Node5&#45;&gt;Node6</title>
<path fill="none" stroke="midnightblue" d="M173.24,-91.01C167.97,-93.06 162.79,-95.39 158,-98 139.71,-107.96 139.89,-117.33 122,-128 116.51,-131.27 110.49,-134.28 104.44,-136.98"/>
<polygon fill="midnightblue" stroke="midnightblue" points="174.53,-94.27 182.76,-87.59 172.16,-87.68 174.53,-94.27"/>
</g>
<!-- Node7 -->
<g id="node7" class="node">
<title>Node7</title>
<g id="a_node7"><a xlink:href="../../de/dd7/class_polyline_touchpoint_tool.html#a9ee474813d977ff7b9877372035a319c" target="_top" xlink:title=" ">
<polygon fill="white" stroke="black" points="3,-88 3,-118 119,-118 119,-88 3,-88"/>
<text text-anchor="start" x="11" y="-106" font-family="Helvetica,sans-Serif" font-size="10.00">PolylineTouchpointTool</text>
<text text-anchor="middle" x="61" y="-95" font-family="Helvetica,sans-Serif" font-size="10.00">::undo</text>
</a>
</g>
</g>
<!-- Node5&#45;&gt;Node7 -->
<g id="edge6" class="edge">
<title>Node5&#45;&gt;Node7</title>
<path fill="none" stroke="midnightblue" d="M150.93,-89.1C140.27,-90.77 129.4,-92.47 119.09,-94.08"/>
<polygon fill="midnightblue" stroke="midnightblue" points="151.71,-92.52 161.05,-87.52 150.63,-85.61 151.71,-92.52"/>
</g>
<!-- Node8 -->
<g id="node8" class="node">
<title>Node8</title>
<g id="a_node8"><a xlink:href="../../de/de0/class_freehand_touchpoint_tool.html#a8c241ab6ea3d7ced711c84036836e885" target="_top" xlink:title=" ">
<polygon fill="white" stroke="black" points="0,-39 0,-69 122,-69 122,-39 0,-39"/>
<text text-anchor="start" x="8" y="-57" font-family="Helvetica,sans-Serif" font-size="10.00">FreehandTouchpointTool</text>
<text text-anchor="middle" x="61" y="-46" font-family="Helvetica,sans-Serif" font-size="10.00">::undo</text>
</a>
</g>
</g>
<!-- Node5&#45;&gt;Node8 -->
<g id="edge7" class="edge">
<title>Node5&#45;&gt;Node8</title>
<path fill="none" stroke="midnightblue" d="M148.14,-66.92C139.41,-65.61 130.59,-64.29 122.09,-63.01"/>
<polygon fill="midnightblue" stroke="midnightblue" points="147.9,-70.42 158.3,-68.45 148.93,-63.5 147.9,-70.42"/>
</g>
<!-- Node9 -->
<g id="node9" class="node">
<title>Node9</title>
<g id="a_node9"><a xlink:href="../../dd/d4a/class_lasso_tool.html#ad4e65963efd59e0802ecb4fbd8d8b288" target="_top" xlink:title=" ">
<polygon fill="white" stroke="black" points="17,-0.5 17,-19.5 105,-19.5 105,-0.5 17,-0.5"/>
<text text-anchor="middle" x="61" y="-7.5" font-family="Helvetica,sans-Serif" font-size="10.00">LassoTool::undo</text>
</a>
</g>
</g>
<!-- Node5&#45;&gt;Node9 -->
<g id="edge8" class="edge">
<title>Node5&#45;&gt;Node9</title>
<path fill="none" stroke="midnightblue" d="M195.25,-63.53C175.38,-53.13 147.45,-39.2 122,-29 113.48,-25.59 104.09,-22.37 95.32,-19.58"/>
<polygon fill="midnightblue" stroke="midnightblue" points="193.82,-66.74 204.3,-68.33 197.1,-60.55 193.82,-66.74"/>
</g>
</g>
</svg>
