<?xml version="1.0" encoding="UTF-8" standalone="no"?>
<!DOCTYPE svg PUBLIC "-//W3C//DTD SVG 1.1//EN"
 "http://www.w3.org/Graphics/SVG/1.1/DTD/svg11.dtd">
<!-- Generated by graphviz version 2.44.1 (0)
 -->
<!-- Title: Touchpoint::markOccupation Pages: 1 -->
<svg width="1058pt" height="323pt"
 viewBox="0.00 0.00 1058.00 322.50" xmlns="http://www.w3.org/2000/svg" xmlns:xlink="http://www.w3.org/1999/xlink">
<g id="graph0" class="graph" transform="scale(1 1) rotate(0) translate(4 318.5)">
<title>Touchpoint::markOccupation</title>
<polygon fill="white" stroke="transparent" points="-4,4 -4,-318.5 1054,-318.5 1054,4 -4,4"/>
<!-- Node1 -->
<g id="node1" class="node">
<title>Node1</title>
<g id="a_node1"><a xlink:title="Mark voxel grid cells as occupied by the touchpoint geometry.">
<polygon fill="#bfbfbf" stroke="black" points="909,-76.5 909,-95.5 1050,-95.5 1050,-76.5 909,-76.5"/>
<text text-anchor="middle" x="979.5" y="-83.5" font-family="Helvetica,sans-Serif" font-size="10.00">Touchpoint::markOccupation</text>
</a>
</g>
</g>
<!-- Node2 -->
<g id="node2" class="node">
<title>Node2</title>
<g id="a_node2"><a xlink:href="../../d9/d02/class_optimizer.html#a4f2470e3a7450a12d4daa5df86d50ce8" target="_top" xlink:title="computes the total wire length of a wiring">
<polygon fill="white" stroke="black" points="730,-164 730,-194 873,-194 873,-164 730,-164"/>
<text text-anchor="start" x="738" y="-182" font-family="Helvetica,sans-Serif" font-size="10.00">Optimizer::computeTotalWire</text>
<text text-anchor="middle" x="801.5" y="-171" font-family="Helvetica,sans-Serif" font-size="10.00">Distance</text>
</a>
</g>
</g>
<!-- Node1&#45;&gt;Node2 -->
<g id="edge1" class="edge">
<title>Node1&#45;&gt;Node2</title>
<path fill="none" stroke="midnightblue" d="M958.11,-101.57C937.5,-116.75 904.33,-139.73 873,-155 866.38,-158.23 859.21,-161.21 852.06,-163.89"/>
<polygon fill="midnightblue" stroke="midnightblue" points="960.2,-104.37 966.13,-95.59 956.02,-98.76 960.2,-104.37"/>
</g>
<!-- Node16 -->
<g id="node16" class="node">
<title>Node16</title>
<g id="a_node16"><a xlink:href="../../db/dbb/class_picking_interactor_style.html#a1620702107e2c2d0c0aefbd896098b0d" target="_top" xlink:title="Overloaded method, invoked when right mouse button is pressed.">
<polygon fill="white" stroke="black" points="745,-115 745,-145 858,-145 858,-115 745,-115"/>
<text text-anchor="start" x="753" y="-133" font-family="Helvetica,sans-Serif" font-size="10.00">PickingInteractorStyle</text>
<text text-anchor="middle" x="801.5" y="-122" font-family="Helvetica,sans-Serif" font-size="10.00">::OnRightButtonDown</text>
</a>
</g>
</g>
<!-- Node1&#45;&gt;Node16 -->
<g id="edge17" class="edge">
<title>Node1&#45;&gt;Node16</title>
<path fill="none" stroke="midnightblue" d="M930.4,-98.02C908.12,-103.6 881.49,-110.25 858.33,-116.04"/>
<polygon fill="midnightblue" stroke="midnightblue" points="931.46,-101.37 940.31,-95.55 929.76,-94.58 931.46,-101.37"/>
</g>
<!-- Node17 -->
<g id="node17" class="node">
<title>Node17</title>
<g id="a_node17"><a xlink:href="../../da/d20/class_greedy_optimizer.html#ade730f3f396b9464b50e7c5185e6f319" target="_top" xlink:title=" ">
<polygon fill="white" stroke="black" points="735,-76.5 735,-95.5 868,-95.5 868,-76.5 735,-76.5"/>
<text text-anchor="middle" x="801.5" y="-83.5" font-family="Helvetica,sans-Serif" font-size="10.00">GreedyOptimizer::optimize</text>
</a>
</g>
</g>
<!-- Node1&#45;&gt;Node17 -->
<g id="edge18" class="edge">
<title>Node1&#45;&gt;Node17</title>
<path fill="none" stroke="midnightblue" d="M898.76,-86C888.51,-86 878.1,-86 868.11,-86"/>
<polygon fill="midnightblue" stroke="midnightblue" points="898.94,-89.5 908.94,-86 898.94,-82.5 898.94,-89.5"/>
</g>
<!-- Node18 -->
<g id="node18" class="node">
<title>Node18</title>
<g id="a_node18"><a xlink:href="../../d0/d4c/class_null_optimizer.html#a1e6bb8c39e5ed279b4adc430738daee2" target="_top" xlink:title=" ">
<polygon fill="white" stroke="black" points="742,-38.5 742,-57.5 861,-57.5 861,-38.5 742,-38.5"/>
<text text-anchor="middle" x="801.5" y="-45.5" font-family="Helvetica,sans-Serif" font-size="10.00">NullOptimizer::optimize</text>
</a>
</g>
</g>
<!-- Node1&#45;&gt;Node18 -->
<g id="edge19" class="edge">
<title>Node1&#45;&gt;Node18</title>
<path fill="none" stroke="midnightblue" d="M924.07,-74.25C899.18,-68.87 870.08,-62.59 846.59,-57.52"/>
<polygon fill="midnightblue" stroke="midnightblue" points="923.57,-77.72 934.09,-76.41 925.05,-70.88 923.57,-77.72"/>
</g>
<!-- Node19 -->
<g id="node19" class="node">
<title>Node19</title>
<g id="a_node19"><a xlink:href="../../d2/d35/class_random_optimizer.html#aa5ce0ce1fb926e31ed56452870a2b9d7" target="_top" xlink:title=" ">
<polygon fill="white" stroke="black" points="732.5,-0.5 732.5,-19.5 870.5,-19.5 870.5,-0.5 732.5,-0.5"/>
<text text-anchor="middle" x="801.5" y="-7.5" font-family="Helvetica,sans-Serif" font-size="10.00">RandomOptimizer::optimize</text>
</a>
</g>
</g>
<!-- Node1&#45;&gt;Node19 -->
<g id="edge20" class="edge">
<title>Node1&#45;&gt;Node19</title>
<path fill="none" stroke="midnightblue" d="M954.51,-70.95C933.61,-58.35 902.18,-40.63 873,-29 863.93,-25.39 853.94,-22.23 844.4,-19.58"/>
<polygon fill="midnightblue" stroke="midnightblue" points="952.96,-74.1 963.32,-76.33 956.61,-68.13 952.96,-74.1"/>
</g>
<!-- Node3 -->
<g id="node3" class="node">
<title>Node3</title>
<g id="a_node3"><a xlink:href="../../de/d17/class_great_deluge_optimizer.html#ac56ec7a807a73b6d9a588faa1a433885" target="_top" xlink:title="Run the great deluge algorithm.">
<polygon fill="white" stroke="black" points="565,-284 565,-314 678,-314 678,-284 565,-284"/>
<text text-anchor="start" x="573" y="-302" font-family="Helvetica,sans-Serif" font-size="10.00">GreatDelugeOptimizer</text>
<text text-anchor="middle" x="621.5" y="-291" font-family="Helvetica,sans-Serif" font-size="10.00">::greatDeluge</text>
</a>
</g>
</g>
<!-- Node2&#45;&gt;Node3 -->
<g id="edge2" class="edge">
<title>Node2&#45;&gt;Node3</title>
<path fill="none" stroke="midnightblue" d="M780.76,-201.5C760.79,-223.03 728.07,-255.09 694,-275 688.23,-278.37 681.93,-281.35 675.53,-283.96"/>
<polygon fill="midnightblue" stroke="midnightblue" points="783.37,-203.83 787.52,-194.08 778.2,-199.11 783.37,-203.83"/>
</g>
<!-- Node5 -->
<g id="node5" class="node">
<title>Node5</title>
<g id="a_node5"><a xlink:href="../../d1/d15/class_hill_climbing_optimizer.html#a9795a338d707c56b13c72901ae29d5a6" target="_top" xlink:title="Run hill climbing algorithm.">
<polygon fill="white" stroke="black" points="566,-235 566,-265 677,-265 677,-235 566,-235"/>
<text text-anchor="start" x="574" y="-253" font-family="Helvetica,sans-Serif" font-size="10.00">HillClimbingOptimizer</text>
<text text-anchor="middle" x="621.5" y="-242" font-family="Helvetica,sans-Serif" font-size="10.00">::hillClimbing</text>
</a>
</g>
</g>
<!-- Node2&#45;&gt;Node5 -->
<g id="edge4" class="edge">
<title>Node2&#45;&gt;Node5</title>
<path fill="none" stroke="midnightblue" d="M758.97,-198.39C739.43,-207.24 715.7,-217.59 694,-226 686.06,-229.08 677.55,-232.14 669.26,-234.99"/>
<polygon fill="midnightblue" stroke="midnightblue" points="760.55,-201.51 768.2,-194.18 757.65,-195.14 760.55,-201.51"/>
</g>
<!-- Node7 -->
<g id="node7" class="node">
<title>Node7</title>
<g id="a_node7"><a xlink:href="../../d1/d15/class_hill_climbing_optimizer.html#ae2de69929faffda3aeb400bde2a5a097" target="_top" xlink:title="Run hill climbing algorithm with random restart.">
<polygon fill="white" stroke="black" points="550.5,-186 550.5,-216 692.5,-216 692.5,-186 550.5,-186"/>
<text text-anchor="start" x="558.5" y="-204" font-family="Helvetica,sans-Serif" font-size="10.00">HillClimbingOptimizer</text>
<text text-anchor="middle" x="621.5" y="-193" font-family="Helvetica,sans-Serif" font-size="10.00">::hillClimbingRandomRestart</text>
</a>
</g>
</g>
<!-- Node2&#45;&gt;Node7 -->
<g id="edge6" class="edge">
<title>Node2&#45;&gt;Node7</title>
<path fill="none" stroke="midnightblue" d="M719.77,-188.98C710.75,-190.09 701.61,-191.22 692.73,-192.32"/>
<polygon fill="midnightblue" stroke="midnightblue" points="720.4,-192.43 729.89,-187.73 719.54,-185.48 720.4,-192.43"/>
</g>
<!-- Node8 -->
<g id="node8" class="node">
<title>Node8</title>
<g id="a_node8"><a xlink:href="../../dc/d6d/class_g_a_optimizer.html#a77b17390fe144ff6740cb1ebe7677138" target="_top" xlink:title="Rank individuals corresponding to their fitness value.">
<polygon fill="white" stroke="black" points="549.5,-147.5 549.5,-166.5 693.5,-166.5 693.5,-147.5 549.5,-147.5"/>
<text text-anchor="middle" x="621.5" y="-154.5" font-family="Helvetica,sans-Serif" font-size="10.00">GAOptimizer::rankIndividuals</text>
</a>
</g>
</g>
<!-- Node2&#45;&gt;Node8 -->
<g id="edge8" class="edge">
<title>Node2&#45;&gt;Node8</title>
<path fill="none" stroke="midnightblue" d="M719.73,-169.02C711.02,-167.94 702.19,-166.85 693.6,-165.79"/>
<polygon fill="midnightblue" stroke="midnightblue" points="719.54,-172.52 729.89,-170.27 720.4,-165.57 719.54,-172.52"/>
</g>
<!-- Node12 -->
<g id="node12" class="node">
<title>Node12</title>
<g id="a_node12"><a xlink:href="../../d0/d53/class_simulated_annealing_optimizer.html#a31a330453c5ed600613d3e2f24dc68e4" target="_top" xlink:title=" ">
<polygon fill="white" stroke="black" points="549,-98 549,-128 694,-128 694,-98 549,-98"/>
<text text-anchor="start" x="557" y="-116" font-family="Helvetica,sans-Serif" font-size="10.00">SimulatedAnnealingOptimizer</text>
<text text-anchor="middle" x="621.5" y="-105" font-family="Helvetica,sans-Serif" font-size="10.00">::simulatedAnnealing</text>
</a>
</g>
</g>
<!-- Node2&#45;&gt;Node12 -->
<g id="edge13" class="edge">
<title>Node2&#45;&gt;Node12</title>
<path fill="none" stroke="midnightblue" d="M744.49,-160.58C739.56,-158.76 734.67,-156.89 730,-155 713.6,-148.36 710.37,-144.71 694,-138 685.6,-134.56 676.54,-131.16 667.78,-128.02"/>
<polygon fill="midnightblue" stroke="midnightblue" points="743.36,-163.9 753.96,-163.99 745.74,-157.31 743.36,-163.9"/>
</g>
<!-- Node14 -->
<g id="node14" class="node">
<title>Node14</title>
<g id="a_node14"><a xlink:href="../../d0/da8/class_threshold_accepting_optimizer.html#a06e883e1e27741109d637d3dabc79a03" target="_top" xlink:title="Run the threshold accepting algorithm.">
<polygon fill="white" stroke="black" points="549,-49 549,-79 694,-79 694,-49 549,-49"/>
<text text-anchor="start" x="557" y="-67" font-family="Helvetica,sans-Serif" font-size="10.00">ThresholdAcceptingOptimizer</text>
<text text-anchor="middle" x="621.5" y="-56" font-family="Helvetica,sans-Serif" font-size="10.00">::thresholdAccepting</text>
</a>
</g>
</g>
<!-- Node2&#45;&gt;Node14 -->
<g id="edge15" class="edge">
<title>Node2&#45;&gt;Node14</title>
<path fill="none" stroke="midnightblue" d="M734.75,-158.66C733.11,-157.5 731.52,-156.29 730,-155 704.21,-133.15 719.84,-109.8 694,-88 689.9,-84.54 685.27,-81.57 680.4,-79.03"/>
<polygon fill="midnightblue" stroke="midnightblue" points="733.04,-161.71 743.4,-163.9 736.67,-155.72 733.04,-161.71"/>
</g>
<!-- Node4 -->
<g id="node4" class="node">
<title>Node4</title>
<g id="a_node4"><a xlink:href="../../de/d17/class_great_deluge_optimizer.html#ad0e859eaa1e24d3ba184cb0641972427" target="_top" xlink:title=" ">
<polygon fill="white" stroke="black" points="370,-284 370,-314 483,-314 483,-284 370,-284"/>
<text text-anchor="start" x="378" y="-302" font-family="Helvetica,sans-Serif" font-size="10.00">GreatDelugeOptimizer</text>
<text text-anchor="middle" x="426.5" y="-291" font-family="Helvetica,sans-Serif" font-size="10.00">::optimize</text>
</a>
</g>
</g>
<!-- Node3&#45;&gt;Node4 -->
<g id="edge3" class="edge">
<title>Node3&#45;&gt;Node4</title>
<path fill="none" stroke="midnightblue" d="M554.77,-299C531.43,-299 505.41,-299 483.01,-299"/>
<polygon fill="midnightblue" stroke="midnightblue" points="554.94,-302.5 564.94,-299 554.94,-295.5 554.94,-302.5"/>
</g>
<!-- Node6 -->
<g id="node6" class="node">
<title>Node6</title>
<g id="a_node6"><a xlink:href="../../d1/d15/class_hill_climbing_optimizer.html#a4f1754d5bfc6c5e702ee1421ed0cb204" target="_top" xlink:title=" ">
<polygon fill="white" stroke="black" points="371,-230 371,-260 482,-260 482,-230 371,-230"/>
<text text-anchor="start" x="379" y="-248" font-family="Helvetica,sans-Serif" font-size="10.00">HillClimbingOptimizer</text>
<text text-anchor="middle" x="426.5" y="-237" font-family="Helvetica,sans-Serif" font-size="10.00">::optimize</text>
</a>
</g>
</g>
<!-- Node5&#45;&gt;Node6 -->
<g id="edge5" class="edge">
<title>Node5&#45;&gt;Node6</title>
<path fill="none" stroke="midnightblue" d="M555.92,-248.33C532.02,-247.71 505.18,-247.01 482.23,-246.42"/>
<polygon fill="midnightblue" stroke="midnightblue" points="555.88,-251.83 565.97,-248.59 556.06,-244.83 555.88,-251.83"/>
</g>
<!-- Node7&#45;&gt;Node6 -->
<g id="edge7" class="edge">
<title>Node7&#45;&gt;Node6</title>
<path fill="none" stroke="midnightblue" d="M544.81,-218.26C523.91,-223.02 501.64,-228.1 482.19,-232.53"/>
<polygon fill="midnightblue" stroke="midnightblue" points="545.65,-221.65 554.62,-216.02 544.09,-214.83 545.65,-221.65"/>
</g>
<!-- Node9 -->
<g id="node9" class="node">
<title>Node9</title>
<g id="a_node9"><a xlink:href="../../dc/d6d/class_g_a_optimizer.html#a37941b6f02ffe5e777f0d3e421158205" target="_top" xlink:title="Generate next population of individuals.">
<polygon fill="white" stroke="black" points="340,-185.5 340,-204.5 513,-204.5 513,-185.5 340,-185.5"/>
<text text-anchor="middle" x="426.5" y="-192.5" font-family="Helvetica,sans-Serif" font-size="10.00">GAOptimizer::createNextPopulation</text>
</a>
</g>
</g>
<!-- Node8&#45;&gt;Node9 -->
<g id="edge9" class="edge">
<title>Node8&#45;&gt;Node9</title>
<path fill="none" stroke="midnightblue" d="M561.9,-168.54C534.37,-173.96 501.95,-180.34 475.85,-185.48"/>
<polygon fill="midnightblue" stroke="midnightblue" points="562.66,-171.95 571.8,-166.59 561.31,-165.09 562.66,-171.95"/>
</g>
<!-- Node10 -->
<g id="node10" class="node">
<title>Node10</title>
<g id="a_node10"><a xlink:href="../../dc/d6d/class_g_a_optimizer.html#a8f46197186eebd33cb79cb317722eed9" target="_top" xlink:title="Run the genetic algorithm.">
<polygon fill="white" stroke="black" points="152,-166.5 152,-185.5 304,-185.5 304,-166.5 152,-166.5"/>
<text text-anchor="middle" x="228" y="-173.5" font-family="Helvetica,sans-Serif" font-size="10.00">GAOptimizer::geneticAlgorithm</text>
</a>
</g>
</g>
<!-- Node8&#45;&gt;Node10 -->
<g id="edge12" class="edge">
<title>Node8&#45;&gt;Node10</title>
<path fill="none" stroke="midnightblue" d="M538.74,-160.97C469.62,-164.32 371.39,-169.09 304.2,-172.35"/>
<polygon fill="midnightblue" stroke="midnightblue" points="539.33,-164.44 549.15,-160.46 538.99,-157.45 539.33,-164.44"/>
</g>
<!-- Node9&#45;&gt;Node10 -->
<g id="edge10" class="edge">
<title>Node9&#45;&gt;Node10</title>
<path fill="none" stroke="midnightblue" d="M329.8,-185.75C321.2,-184.91 312.56,-184.08 304.16,-183.27"/>
<polygon fill="midnightblue" stroke="midnightblue" points="329.59,-189.24 339.88,-186.72 330.27,-182.28 329.59,-189.24"/>
</g>
<!-- Node11 -->
<g id="node11" class="node">
<title>Node11</title>
<g id="a_node11"><a xlink:href="../../dc/d6d/class_g_a_optimizer.html#a71b18c78d275e4d896826f07b2e01f4b" target="_top" xlink:title=" ">
<polygon fill="white" stroke="black" points="0,-166.5 0,-185.5 116,-185.5 116,-166.5 0,-166.5"/>
<text text-anchor="middle" x="58" y="-173.5" font-family="Helvetica,sans-Serif" font-size="10.00">GAOptimizer::optimize</text>
</a>
</g>
</g>
<!-- Node10&#45;&gt;Node11 -->
<g id="edge11" class="edge">
<title>Node10&#45;&gt;Node11</title>
<path fill="none" stroke="midnightblue" d="M141.71,-176C133.07,-176 124.44,-176 116.2,-176"/>
<polygon fill="midnightblue" stroke="midnightblue" points="141.84,-179.5 151.84,-176 141.84,-172.5 141.84,-179.5"/>
</g>
<!-- Node13 -->
<g id="node13" class="node">
<title>Node13</title>
<g id="a_node13"><a xlink:href="../../d0/d53/class_simulated_annealing_optimizer.html#a8e1aba518749f6534cdb3155a38af511" target="_top" xlink:title=" ">
<polygon fill="white" stroke="black" points="354,-98 354,-128 499,-128 499,-98 354,-98"/>
<text text-anchor="start" x="362" y="-116" font-family="Helvetica,sans-Serif" font-size="10.00">SimulatedAnnealingOptimizer</text>
<text text-anchor="middle" x="426.5" y="-105" font-family="Helvetica,sans-Serif" font-size="10.00">::optimize</text>
</a>
</g>
</g>
<!-- Node12&#45;&gt;Node13 -->
<g id="edge14" class="edge">
<title>Node12&#45;&gt;Node13</title>
<path fill="none" stroke="midnightblue" d="M538.54,-113C525.5,-113 512.09,-113 499.3,-113"/>
<polygon fill="midnightblue" stroke="midnightblue" points="538.91,-116.5 548.91,-113 538.91,-109.5 538.91,-116.5"/>
</g>
<!-- Node15 -->
<g id="node15" class="node">
<title>Node15</title>
<g id="a_node15"><a xlink:href="../../d0/da8/class_threshold_accepting_optimizer.html#a6dead9a1dffa1d54cb9cc59e80655fb7" target="_top" xlink:title=" ">
<polygon fill="white" stroke="black" points="354,-49 354,-79 499,-79 499,-49 354,-49"/>
<text text-anchor="start" x="362" y="-67" font-family="Helvetica,sans-Serif" font-size="10.00">ThresholdAcceptingOptimizer</text>
<text text-anchor="middle" x="426.5" y="-56" font-family="Helvetica,sans-Serif" font-size="10.00">::optimize</text>
</a>
</g>
</g>
<!-- Node14&#45;&gt;Node15 -->
<g id="edge16" class="edge">
<title>Node14&#45;&gt;Node15</title>
<path fill="none" stroke="midnightblue" d="M538.54,-64C525.5,-64 512.09,-64 499.3,-64"/>
<polygon fill="midnightblue" stroke="midnightblue" points="538.91,-67.5 548.91,-64 538.91,-60.5 538.91,-67.5"/>
</g>
</g>
</svg>
