<?xml version="1.0" encoding="UTF-8" standalone="no"?>
<!DOCTYPE svg PUBLIC "-//W3C//DTD SVG 1.1//EN"
 "http://www.w3.org/Graphics/SVG/1.1/DTD/svg11.dtd">
<!-- Generated by graphviz version 2.44.1 (0)
 -->
<!-- Title: meshloader.h Pages: 1 -->
<svg width="2068pt" height="84pt"
 viewBox="0.00 0.00 2068.00 84.00" xmlns="http://www.w3.org/2000/svg" xmlns:xlink="http://www.w3.org/1999/xlink">
<g id="graph0" class="graph" transform="scale(1 1) rotate(0) translate(4 80)">
<title>meshloader.h</title>
<polygon fill="white" stroke="transparent" points="-4,4 -4,-80 2064,-80 2064,4 -4,4"/>
<!-- Node1 -->
<g id="node1" class="node">
<title>Node1</title>
<g id="a_node1"><a xlink:title="Class for loading meshes in various formats via VTK (stl, obj).">
<polygon fill="#bfbfbf" stroke="black" points="857,-56.5 857,-75.5 932,-75.5 932,-56.5 857,-56.5"/>
<text text-anchor="middle" x="894.5" y="-63.5" font-family="Helvetica,sans-Serif" font-size="10.00">meshloader.h</text>
</a>
</g>
</g>
<!-- Node2 -->
<g id="node2" class="node">
<title>Node2</title>
<g id="a_node2"><a xlink:title=" ">
<polygon fill="white" stroke="#bfbfbf" points="0,-0.5 0,-19.5 41,-19.5 41,-0.5 0,-0.5"/>
<text text-anchor="middle" x="20.5" y="-7.5" font-family="Helvetica,sans-Serif" font-size="10.00">string</text>
</a>
</g>
</g>
<!-- Node1&#45;&gt;Node2 -->
<g id="edge1" class="edge">
<title>Node1&#45;&gt;Node2</title>
<path fill="none" stroke="midnightblue" d="M856.57,-64.23C716.39,-61.18 226.98,-48.82 51.14,-19.82"/>
<polygon fill="midnightblue" stroke="midnightblue" points="51.71,-16.37 41.26,-18.12 50.51,-23.27 51.71,-16.37"/>
</g>
<!-- Node3 -->
<g id="node3" class="node">
<title>Node3</title>
<g id="a_node3"><a xlink:title=" ">
<polygon fill="white" stroke="#bfbfbf" points="59,-0.5 59,-19.5 188,-19.5 188,-0.5 59,-0.5"/>
<text text-anchor="middle" x="123.5" y="-7.5" font-family="Helvetica,sans-Serif" font-size="10.00">boost/algorithm/string.hpp</text>
</a>
</g>
</g>
<!-- Node1&#45;&gt;Node3 -->
<g id="edge2" class="edge">
<title>Node1&#45;&gt;Node3</title>
<path fill="none" stroke="midnightblue" d="M856.66,-63.31C753.19,-58.53 456.59,-43.76 198.38,-20.02"/>
<polygon fill="midnightblue" stroke="midnightblue" points="198.33,-16.51 188.05,-19.07 197.69,-23.48 198.33,-16.51"/>
</g>
<!-- Node4 -->
<g id="node4" class="node">
<title>Node4</title>
<g id="a_node4"><a xlink:title=" ">
<polygon fill="white" stroke="#bfbfbf" points="206.5,-0.5 206.5,-19.5 246.5,-19.5 246.5,-0.5 206.5,-0.5"/>
<text text-anchor="middle" x="226.5" y="-7.5" font-family="Helvetica,sans-Serif" font-size="10.00">QFile</text>
</a>
</g>
</g>
<!-- Node1&#45;&gt;Node4 -->
<g id="edge3" class="edge">
<title>Node1&#45;&gt;Node4</title>
<path fill="none" stroke="midnightblue" d="M856.66,-65.36C758.63,-65.65 488.46,-62.37 256.6,-19.76"/>
<polygon fill="midnightblue" stroke="midnightblue" points="257.1,-16.29 246.63,-17.9 255.82,-23.17 257.1,-16.29"/>
</g>
<!-- Node5 -->
<g id="node5" class="node">
<title>Node5</title>
<g id="a_node5"><a xlink:title=" ">
<polygon fill="white" stroke="#bfbfbf" points="264.5,-0.5 264.5,-19.5 314.5,-19.5 314.5,-0.5 264.5,-0.5"/>
<text text-anchor="middle" x="289.5" y="-7.5" font-family="Helvetica,sans-Serif" font-size="10.00">QString</text>
</a>
</g>
</g>
<!-- Node1&#45;&gt;Node5 -->
<g id="edge4" class="edge">
<title>Node1&#45;&gt;Node5</title>
<path fill="none" stroke="midnightblue" d="M856.8,-64.37C766.42,-62.36 530.27,-54.16 324.71,-19.9"/>
<polygon fill="midnightblue" stroke="midnightblue" points="325.08,-16.41 314.64,-18.19 323.92,-23.31 325.08,-16.41"/>
</g>
<!-- Node6 -->
<g id="node6" class="node">
<title>Node6</title>
<g id="a_node6"><a xlink:title=" ">
<polygon fill="white" stroke="#bfbfbf" points="332.5,-0.5 332.5,-19.5 418.5,-19.5 418.5,-0.5 332.5,-0.5"/>
<text text-anchor="middle" x="375.5" y="-7.5" font-family="Helvetica,sans-Serif" font-size="10.00">QTemporaryFile</text>
</a>
</g>
</g>
<!-- Node1&#45;&gt;Node6 -->
<g id="edge5" class="edge">
<title>Node1&#45;&gt;Node6</title>
<path fill="none" stroke="midnightblue" d="M856.86,-62.34C778.98,-56.63 594.31,-42.01 428.95,-20.1"/>
<polygon fill="midnightblue" stroke="midnightblue" points="428.97,-16.57 418.59,-18.72 428.04,-23.51 428.97,-16.57"/>
</g>
<!-- Node7 -->
<g id="node7" class="node">
<title>Node7</title>
<g id="a_node7"><a xlink:title=" ">
<polygon fill="white" stroke="#bfbfbf" points="437,-0.5 437,-19.5 502,-19.5 502,-0.5 437,-0.5"/>
<text text-anchor="middle" x="469.5" y="-7.5" font-family="Helvetica,sans-Serif" font-size="10.00">QStringList</text>
</a>
</g>
</g>
<!-- Node1&#45;&gt;Node7 -->
<g id="edge6" class="edge">
<title>Node1&#45;&gt;Node7</title>
<path fill="none" stroke="midnightblue" d="M856.82,-61.76C789.65,-55.73 644.64,-41.54 511.94,-19.92"/>
<polygon fill="midnightblue" stroke="midnightblue" points="512.44,-16.45 502,-18.28 511.3,-23.36 512.44,-16.45"/>
</g>
<!-- Node8 -->
<g id="node8" class="node">
<title>Node8</title>
<g id="a_node8"><a xlink:title=" ">
<polygon fill="white" stroke="#bfbfbf" points="520.5,-0.5 520.5,-19.5 588.5,-19.5 588.5,-0.5 520.5,-0.5"/>
<text text-anchor="middle" x="554.5" y="-7.5" font-family="Helvetica,sans-Serif" font-size="10.00">QByteArray</text>
</a>
</g>
</g>
<!-- Node1&#45;&gt;Node8 -->
<g id="edge7" class="edge">
<title>Node1&#45;&gt;Node8</title>
<path fill="none" stroke="midnightblue" d="M856.88,-59.99C802.22,-52.55 697.43,-37.74 598.59,-20.12"/>
<polygon fill="midnightblue" stroke="midnightblue" points="599.2,-16.67 588.73,-18.35 597.96,-23.56 599.2,-16.67"/>
</g>
<!-- Node9 -->
<g id="node9" class="node">
<title>Node9</title>
<g id="a_node9"><a xlink:title=" ">
<polygon fill="white" stroke="#bfbfbf" points="607,-0.5 607,-19.5 732,-19.5 732,-0.5 607,-0.5"/>
<text text-anchor="middle" x="669.5" y="-7.5" font-family="Helvetica,sans-Serif" font-size="10.00">vtksys/SystemTools.hxx</text>
</a>
</g>
</g>
<!-- Node1&#45;&gt;Node9 -->
<g id="edge8" class="edge">
<title>Node1&#45;&gt;Node9</title>
<path fill="none" stroke="midnightblue" d="M858.85,-56.44C819.84,-47.08 757.23,-32.06 714.78,-21.87"/>
<polygon fill="midnightblue" stroke="midnightblue" points="715.53,-18.45 704.99,-19.52 713.89,-25.25 715.53,-18.45"/>
</g>
<!-- Node10 -->
<g id="node10" class="node">
<title>Node10</title>
<g id="a_node10"><a xlink:title=" ">
<polygon fill="white" stroke="#bfbfbf" points="750,-0.5 750,-19.5 829,-19.5 829,-0.5 750,-0.5"/>
<text text-anchor="middle" x="789.5" y="-7.5" font-family="Helvetica,sans-Serif" font-size="10.00">vtkPolyData.h</text>
</a>
</g>
</g>
<!-- Node1&#45;&gt;Node10 -->
<g id="edge9" class="edge">
<title>Node1&#45;&gt;Node10</title>
<path fill="none" stroke="midnightblue" d="M877.63,-56.32C860.79,-47.66 834.69,-34.24 815.26,-24.25"/>
<polygon fill="midnightblue" stroke="midnightblue" points="816.82,-21.12 806.33,-19.65 813.62,-27.34 816.82,-21.12"/>
</g>
<!-- Node11 -->
<g id="node11" class="node">
<title>Node11</title>
<g id="a_node11"><a xlink:title=" ">
<polygon fill="white" stroke="#bfbfbf" points="847,-0.5 847,-19.5 942,-19.5 942,-0.5 847,-0.5"/>
<text text-anchor="middle" x="894.5" y="-7.5" font-family="Helvetica,sans-Serif" font-size="10.00">vtkSmartPointer.h</text>
</a>
</g>
</g>
<!-- Node1&#45;&gt;Node11 -->
<g id="edge10" class="edge">
<title>Node1&#45;&gt;Node11</title>
<path fill="none" stroke="midnightblue" d="M894.5,-56.08C894.5,-49.01 894.5,-38.86 894.5,-29.99"/>
<polygon fill="midnightblue" stroke="midnightblue" points="898,-29.75 894.5,-19.75 891,-29.75 898,-29.75"/>
</g>
<!-- Node12 -->
<g id="node12" class="node">
<title>Node12</title>
<g id="a_node12"><a xlink:title=" ">
<polygon fill="white" stroke="#bfbfbf" points="960,-0.5 960,-19.5 1107,-19.5 1107,-0.5 960,-0.5"/>
<text text-anchor="middle" x="1033.5" y="-7.5" font-family="Helvetica,sans-Serif" font-size="10.00">vtkAbstractPolyDataReader.h</text>
</a>
</g>
</g>
<!-- Node1&#45;&gt;Node12 -->
<g id="edge11" class="edge">
<title>Node1&#45;&gt;Node12</title>
<path fill="none" stroke="midnightblue" d="M916.52,-56.44C939.6,-47.48 976.06,-33.31 1002.14,-23.18"/>
<polygon fill="midnightblue" stroke="midnightblue" points="1003.52,-26.4 1011.58,-19.52 1000.99,-19.88 1003.52,-26.4"/>
</g>
<!-- Node13 -->
<g id="node13" class="node">
<title>Node13</title>
<g id="a_node13"><a xlink:title=" ">
<polygon fill="white" stroke="#bfbfbf" points="1125.5,-0.5 1125.5,-19.5 1213.5,-19.5 1213.5,-0.5 1125.5,-0.5"/>
<text text-anchor="middle" x="1169.5" y="-7.5" font-family="Helvetica,sans-Serif" font-size="10.00">vtkPLYReader.h</text>
</a>
</g>
</g>
<!-- Node1&#45;&gt;Node13 -->
<g id="edge12" class="edge">
<title>Node1&#45;&gt;Node13</title>
<path fill="none" stroke="midnightblue" d="M932.16,-57.6C979.7,-48.27 1061.78,-32.15 1115.86,-21.53"/>
<polygon fill="midnightblue" stroke="midnightblue" points="1116.82,-24.91 1125.95,-19.55 1115.47,-18.04 1116.82,-24.91"/>
</g>
<!-- Node14 -->
<g id="node14" class="node">
<title>Node14</title>
<g id="a_node14"><a xlink:title=" ">
<polygon fill="white" stroke="#bfbfbf" points="1231,-0.5 1231,-19.5 1320,-19.5 1320,-0.5 1231,-0.5"/>
<text text-anchor="middle" x="1275.5" y="-7.5" font-family="Helvetica,sans-Serif" font-size="10.00">vtkOBJReader.h</text>
</a>
</g>
</g>
<!-- Node1&#45;&gt;Node14 -->
<g id="edge13" class="edge">
<title>Node1&#45;&gt;Node14</title>
<path fill="none" stroke="midnightblue" d="M932.44,-60.19C991.79,-52.59 1110.46,-37.03 1221,-20.19"/>
<polygon fill="midnightblue" stroke="midnightblue" points="1221.63,-23.64 1230.98,-18.67 1220.57,-16.72 1221.63,-23.64"/>
</g>
<!-- Node15 -->
<g id="node15" class="node">
<title>Node15</title>
<g id="a_node15"><a xlink:title=" ">
<polygon fill="white" stroke="#bfbfbf" points="1337.5,-0.5 1337.5,-19.5 1425.5,-19.5 1425.5,-0.5 1337.5,-0.5"/>
<text text-anchor="middle" x="1381.5" y="-7.5" font-family="Helvetica,sans-Serif" font-size="10.00">vtkSTLReader.h</text>
</a>
</g>
</g>
<!-- Node1&#45;&gt;Node15 -->
<g id="edge14" class="edge">
<title>Node1&#45;&gt;Node15</title>
<path fill="none" stroke="midnightblue" d="M932.13,-61.98C1006.04,-55.86 1175.54,-40.89 1327.31,-20.23"/>
<polygon fill="midnightblue" stroke="midnightblue" points="1327.85,-23.69 1337.28,-18.87 1326.89,-16.76 1327.85,-23.69"/>
</g>
<!-- Node16 -->
<g id="node16" class="node">
<title>Node16</title>
<g id="a_node16"><a xlink:title=" ">
<polygon fill="white" stroke="#bfbfbf" points="1443.5,-0.5 1443.5,-19.5 1547.5,-19.5 1547.5,-0.5 1443.5,-0.5"/>
<text text-anchor="middle" x="1495.5" y="-7.5" font-family="Helvetica,sans-Serif" font-size="10.00">vtkCleanPolyData.h</text>
</a>
</g>
</g>
<!-- Node1&#45;&gt;Node16 -->
<g id="edge15" class="edge">
<title>Node1&#45;&gt;Node16</title>
<path fill="none" stroke="midnightblue" d="M932.22,-62.68C1018.82,-57.18 1238.73,-42.21 1433.17,-20.09"/>
<polygon fill="midnightblue" stroke="midnightblue" points="1433.75,-23.54 1443.29,-18.93 1432.95,-16.59 1433.75,-23.54"/>
</g>
<!-- Node17 -->
<g id="node17" class="node">
<title>Node17</title>
<g id="a_node17"><a xlink:title=" ">
<polygon fill="white" stroke="#bfbfbf" points="1566,-0.5 1566,-19.5 1661,-19.5 1661,-0.5 1566,-0.5"/>
<text text-anchor="middle" x="1613.5" y="-7.5" font-family="Helvetica,sans-Serif" font-size="10.00">vtkTriangleFilter.h</text>
</a>
</g>
</g>
<!-- Node1&#45;&gt;Node17 -->
<g id="edge16" class="edge">
<title>Node1&#45;&gt;Node17</title>
<path fill="none" stroke="midnightblue" d="M932.3,-63.61C1032.27,-59.67 1312.04,-47.03 1555.84,-19.96"/>
<polygon fill="midnightblue" stroke="midnightblue" points="1556.41,-23.42 1565.96,-18.83 1555.63,-16.47 1556.41,-23.42"/>
</g>
<!-- Node18 -->
<g id="node18" class="node">
<title>Node18</title>
<g id="a_node18"><a xlink:title=" ">
<polygon fill="white" stroke="#bfbfbf" points="1679.5,-0.5 1679.5,-19.5 1795.5,-19.5 1795.5,-0.5 1679.5,-0.5"/>
<text text-anchor="middle" x="1737.5" y="-7.5" font-family="Helvetica,sans-Serif" font-size="10.00">vtkPolyDataNormals.h</text>
</a>
</g>
</g>
<!-- Node1&#45;&gt;Node18 -->
<g id="edge17" class="edge">
<title>Node1&#45;&gt;Node18</title>
<path fill="none" stroke="midnightblue" d="M932.13,-63.83C1043.19,-60.15 1379.39,-47.49 1669.14,-20.06"/>
<polygon fill="midnightblue" stroke="midnightblue" points="1669.8,-23.51 1679.43,-19.07 1669.14,-16.54 1669.8,-23.51"/>
</g>
<!-- Node19 -->
<g id="node19" class="node">
<title>Node19</title>
<g id="a_node19"><a xlink:title=" ">
<polygon fill="white" stroke="#bfbfbf" points="1814,-0.5 1814,-19.5 1897,-19.5 1897,-0.5 1814,-0.5"/>
<text text-anchor="middle" x="1855.5" y="-7.5" font-family="Helvetica,sans-Serif" font-size="10.00">vtkTransform.h</text>
</a>
</g>
</g>
<!-- Node1&#45;&gt;Node19 -->
<g id="edge18" class="edge">
<title>Node1&#45;&gt;Node19</title>
<path fill="none" stroke="midnightblue" d="M932.34,-64.82C1056.05,-63.89 1459.74,-58.01 1803.66,-19.93"/>
<polygon fill="midnightblue" stroke="midnightblue" points="1804.26,-23.38 1813.81,-18.79 1803.49,-16.43 1804.26,-23.38"/>
</g>
<!-- Node20 -->
<g id="node20" class="node">
<title>Node20</title>
<g id="a_node20"><a xlink:title=" ">
<polygon fill="white" stroke="#bfbfbf" points="1915,-0.5 1915,-19.5 2060,-19.5 2060,-0.5 1915,-0.5"/>
<text text-anchor="middle" x="1987.5" y="-7.5" font-family="Helvetica,sans-Serif" font-size="10.00">vtkTransformPolyDataFilter.h</text>
</a>
</g>
</g>
<!-- Node1&#45;&gt;Node20 -->
<g id="edge19" class="edge">
<title>Node1&#45;&gt;Node20</title>
<path fill="none" stroke="midnightblue" d="M932.23,-64.22C1064.39,-61.31 1518.81,-49.7 1904.42,-20.11"/>
<polygon fill="midnightblue" stroke="midnightblue" points="1904.96,-23.58 1914.66,-19.32 1904.42,-16.6 1904.96,-23.58"/>
</g>
</g>
</svg>
