<?xml version="1.0" encoding="UTF-8" standalone="no"?>
<!DOCTYPE svg PUBLIC "-//W3C//DTD SVG 1.1//EN"
 "http://www.w3.org/Graphics/SVG/1.1/DTD/svg11.dtd">
<!-- Generated by graphviz version 2.44.1 (0)
 -->
<!-- Title: vtkmeshboolfilter.cpp Pages: 1 -->
<svg width="3341pt" height="229pt"
 viewBox="0.00 0.00 3340.50 229.00" xmlns="http://www.w3.org/2000/svg" xmlns:xlink="http://www.w3.org/1999/xlink">
<g id="graph0" class="graph" transform="scale(1 1) rotate(0) translate(4 225)">
<title>vtkmeshboolfilter.cpp</title>
<polygon fill="white" stroke="transparent" points="-4,4 -4,-225 3336.5,-225 3336.5,4 -4,4"/>
<!-- Node1 -->
<g id="node1" class="node">
<title>Node1</title>
<g id="a_node1"><a xlink:title=" ">
<polygon fill="#bfbfbf" stroke="black" points="2238,-201.5 2238,-220.5 2348,-220.5 2348,-201.5 2238,-201.5"/>
<text text-anchor="middle" x="2293" y="-208.5" font-family="Helvetica,sans-Serif" font-size="10.00">vtkmeshboolfilter.cpp</text>
</a>
</g>
</g>
<!-- Node2 -->
<g id="node2" class="node">
<title>Node2</title>
<g id="a_node2"><a xlink:href="../../db/d24/vtkmeshboolfilter_8h.html" target="_top" xlink:title="Filter for boolean operations on polygon meshes using the vtkBool library.">
<polygon fill="white" stroke="black" points="1282.5,-134.5 1282.5,-153.5 1381.5,-153.5 1381.5,-134.5 1282.5,-134.5"/>
<text text-anchor="middle" x="1332" y="-141.5" font-family="Helvetica,sans-Serif" font-size="10.00">vtkmeshboolfilter.h</text>
</a>
</g>
</g>
<!-- Node1&#45;&gt;Node2 -->
<g id="edge1" class="edge">
<title>Node1&#45;&gt;Node2</title>
<path fill="none" stroke="midnightblue" d="M2237.88,-206.27C2069.93,-194.91 1565.44,-160.79 1391.63,-149.03"/>
<polygon fill="midnightblue" stroke="midnightblue" points="1391.85,-145.54 1381.64,-148.36 1391.38,-152.52 1391.85,-145.54"/>
</g>
<!-- Node3 -->
<g id="node3" class="node">
<title>Node3</title>
<g id="a_node3"><a xlink:title=" ">
<polygon fill="white" stroke="#bfbfbf" points="781,-62 781,-81 833,-81 833,-62 781,-62"/>
<text text-anchor="middle" x="807" y="-69" font-family="Helvetica,sans-Serif" font-size="10.00">sstream</text>
</a>
</g>
</g>
<!-- Node1&#45;&gt;Node3 -->
<g id="edge55" class="edge">
<title>Node1&#45;&gt;Node3</title>
<path fill="none" stroke="midnightblue" d="M2237.79,-210.18C2084.29,-210.1 1639.62,-206.07 1273,-165 1079.54,-143.33 1028.77,-141.9 842,-87 839.71,-86.33 837.37,-85.55 835.03,-84.72"/>
<polygon fill="midnightblue" stroke="midnightblue" points="836.21,-81.43 825.62,-81.08 833.69,-87.95 836.21,-81.43"/>
</g>
<!-- Node6 -->
<g id="node6" class="node">
<title>Node6</title>
<g id="a_node6"><a xlink:title=" ">
<polygon fill="white" stroke="#bfbfbf" points="1840.5,-0.5 1840.5,-19.5 1919.5,-19.5 1919.5,-0.5 1840.5,-0.5"/>
<text text-anchor="middle" x="1880" y="-7.5" font-family="Helvetica,sans-Serif" font-size="10.00">vtkPolyData.h</text>
</a>
</g>
</g>
<!-- Node1&#45;&gt;Node6 -->
<g id="edge48" class="edge">
<title>Node1&#45;&gt;Node6</title>
<path fill="none" stroke="midnightblue" d="M2237.92,-208.39C2156.07,-205.02 2007.31,-194.86 1964,-165 1939.36,-148.01 1903.02,-66.29 1887.49,-29.28"/>
<polygon fill="midnightblue" stroke="midnightblue" points="1890.59,-27.63 1883.53,-19.74 1884.13,-30.31 1890.59,-27.63"/>
</g>
<!-- Node16 -->
<g id="node16" class="node">
<title>Node16</title>
<g id="a_node16"><a xlink:title=" ">
<polygon fill="white" stroke="#bfbfbf" points="0,-0.5 0,-19.5 38,-19.5 38,-0.5 0,-0.5"/>
<text text-anchor="middle" x="19" y="-7.5" font-family="Helvetica,sans-Serif" font-size="10.00">tuple</text>
</a>
</g>
</g>
<!-- Node1&#45;&gt;Node16 -->
<g id="edge56" class="edge">
<title>Node1&#45;&gt;Node16</title>
<path fill="none" stroke="midnightblue" d="M2237.6,-209.94C1986.71,-209.45 955.38,-204.97 635,-165 404.01,-136.18 134.96,-50.12 47.81,-20.86"/>
<polygon fill="midnightblue" stroke="midnightblue" points="48.69,-17.47 38.1,-17.59 46.45,-24.1 48.69,-17.47"/>
</g>
<!-- Node19 -->
<g id="node19" class="node">
<title>Node19</title>
<g id="a_node19"><a xlink:title=" ">
<polygon fill="white" stroke="#bfbfbf" points="56,-0.5 56,-19.5 110,-19.5 110,-0.5 56,-0.5"/>
<text text-anchor="middle" x="83" y="-7.5" font-family="Helvetica,sans-Serif" font-size="10.00">iostream</text>
</a>
</g>
</g>
<!-- Node1&#45;&gt;Node19 -->
<g id="edge44" class="edge">
<title>Node1&#45;&gt;Node19</title>
<path fill="none" stroke="midnightblue" d="M2237.83,-209.09C2021.07,-205.38 1227.47,-190.33 977,-165 595.51,-126.42 499.19,-99.64 119.94,-20.08"/>
<polygon fill="midnightblue" stroke="midnightblue" points="120.58,-16.63 110.07,-18.01 119.14,-23.49 120.58,-16.63"/>
</g>
<!-- Node28 -->
<g id="node28" class="node">
<title>Node28</title>
<g id="a_node28"><a xlink:title=" ">
<polygon fill="white" stroke="#bfbfbf" points="1938,-0.5 1938,-19.5 2004,-19.5 2004,-0.5 1938,-0.5"/>
<text text-anchor="middle" x="1971" y="-7.5" font-family="Helvetica,sans-Serif" font-size="10.00">vtkPoints.h</text>
</a>
</g>
</g>
<!-- Node1&#45;&gt;Node28 -->
<g id="edge49" class="edge">
<title>Node1&#45;&gt;Node28</title>
<path fill="none" stroke="midnightblue" d="M2237.9,-209.52C2160.02,-207.61 2023.47,-199.31 1990,-165 1954.49,-128.61 1961.02,-62.16 1966.89,-29.77"/>
<polygon fill="midnightblue" stroke="midnightblue" points="1970.35,-30.32 1968.88,-19.83 1963.49,-28.95 1970.35,-30.32"/>
</g>
<!-- Node90 -->
<g id="node35" class="node">
<title>Node90</title>
<g id="a_node35"><a xlink:title=" ">
<polygon fill="white" stroke="#bfbfbf" points="1999,-134.5 1999,-153.5 2043,-153.5 2043,-134.5 1999,-134.5"/>
<text text-anchor="middle" x="2021" y="-141.5" font-family="Helvetica,sans-Serif" font-size="10.00">vector</text>
</a>
</g>
</g>
<!-- Node1&#45;&gt;Node90 -->
<g id="edge39" class="edge">
<title>Node1&#45;&gt;Node90</title>
<path fill="none" stroke="midnightblue" d="M2237.71,-205.81C2187.74,-200.6 2112.9,-189.24 2052,-165 2048.09,-163.45 2044.15,-161.37 2040.45,-159.15"/>
<polygon fill="midnightblue" stroke="midnightblue" points="2042.18,-156.1 2031.91,-153.53 2038.34,-161.95 2042.18,-156.1"/>
</g>
<!-- Node109 -->
<g id="node36" class="node">
<title>Node109</title>
<g id="a_node36"><a xlink:title=" ">
<polygon fill="white" stroke="#bfbfbf" points="2061.5,-134.5 2061.5,-153.5 2104.5,-153.5 2104.5,-134.5 2061.5,-134.5"/>
<text text-anchor="middle" x="2083" y="-141.5" font-family="Helvetica,sans-Serif" font-size="10.00">deque</text>
</a>
</g>
</g>
<!-- Node1&#45;&gt;Node109 -->
<g id="edge40" class="edge">
<title>Node1&#45;&gt;Node109</title>
<path fill="none" stroke="midnightblue" d="M2238.64,-201.44C2202.07,-194.49 2153.36,-182.85 2113,-165 2109.41,-163.41 2105.78,-161.4 2102.35,-159.27"/>
<polygon fill="midnightblue" stroke="midnightblue" points="2104.12,-156.25 2093.87,-153.56 2100.21,-162.05 2104.12,-156.25"/>
</g>
<!-- Node110 -->
<g id="node37" class="node">
<title>Node110</title>
<g id="a_node37"><a xlink:title=" ">
<polygon fill="white" stroke="#bfbfbf" points="2122.5,-134.5 2122.5,-153.5 2157.5,-153.5 2157.5,-134.5 2122.5,-134.5"/>
<text text-anchor="middle" x="2140" y="-141.5" font-family="Helvetica,sans-Serif" font-size="10.00">map</text>
</a>
</g>
</g>
<!-- Node1&#45;&gt;Node110 -->
<g id="edge41" class="edge">
<title>Node1&#45;&gt;Node110</title>
<path fill="none" stroke="midnightblue" d="M2261.1,-201.45C2234.95,-193.78 2197.43,-181.24 2167,-165 2164.02,-163.41 2161,-161.51 2158.11,-159.53"/>
<polygon fill="midnightblue" stroke="midnightblue" points="2160.16,-156.68 2150.04,-153.54 2155.99,-162.31 2160.16,-156.68"/>
</g>
<!-- Node111 -->
<g id="node38" class="node">
<title>Node111</title>
<g id="a_node38"><a xlink:title=" ">
<polygon fill="white" stroke="#bfbfbf" points="2176,-134.5 2176,-153.5 2206,-153.5 2206,-134.5 2176,-134.5"/>
<text text-anchor="middle" x="2191" y="-141.5" font-family="Helvetica,sans-Serif" font-size="10.00">set</text>
</a>
</g>
</g>
<!-- Node1&#45;&gt;Node111 -->
<g id="edge42" class="edge">
<title>Node1&#45;&gt;Node111</title>
<path fill="none" stroke="midnightblue" d="M2276.37,-201.48C2260.22,-192.96 2235.26,-179.13 2215,-165 2212.82,-163.48 2210.6,-161.81 2208.42,-160.1"/>
<polygon fill="midnightblue" stroke="midnightblue" points="2210.45,-157.23 2200.51,-153.57 2205.99,-162.63 2210.45,-157.23"/>
</g>
<!-- Node112 -->
<g id="node39" class="node">
<title>Node112</title>
<g id="a_node39"><a xlink:title=" ">
<polygon fill="white" stroke="#bfbfbf" points="2224,-134.5 2224,-153.5 2264,-153.5 2264,-134.5 2224,-134.5"/>
<text text-anchor="middle" x="2244" y="-141.5" font-family="Helvetica,sans-Serif" font-size="10.00">utility</text>
</a>
</g>
</g>
<!-- Node1&#45;&gt;Node112 -->
<g id="edge43" class="edge">
<title>Node1&#45;&gt;Node112</title>
<path fill="none" stroke="midnightblue" d="M2286.39,-201.23C2278.82,-191.2 2266.25,-174.51 2256.76,-161.92"/>
<polygon fill="midnightblue" stroke="midnightblue" points="2259.32,-159.51 2250.5,-153.63 2253.73,-163.72 2259.32,-159.51"/>
</g>
<!-- Node113 -->
<g id="node40" class="node">
<title>Node113</title>
<g id="a_node40"><a xlink:title=" ">
<polygon fill="white" stroke="#bfbfbf" points="2282,-134.5 2282,-153.5 2402,-153.5 2402,-134.5 2282,-134.5"/>
<text text-anchor="middle" x="2342" y="-141.5" font-family="Helvetica,sans-Serif" font-size="10.00">vtkPolyDataAlgorithm.h</text>
</a>
</g>
</g>
<!-- Node1&#45;&gt;Node113 -->
<g id="edge45" class="edge">
<title>Node1&#45;&gt;Node113</title>
<path fill="none" stroke="midnightblue" d="M2299.61,-201.23C2307.18,-191.2 2319.75,-174.51 2329.24,-161.92"/>
<polygon fill="midnightblue" stroke="midnightblue" points="2332.27,-163.72 2335.5,-153.63 2326.68,-159.51 2332.27,-163.72"/>
</g>
<!-- Node114 -->
<g id="node41" class="node">
<title>Node114</title>
<g id="a_node41"><a xlink:title=" ">
<polygon fill="white" stroke="#bfbfbf" points="2420.5,-134.5 2420.5,-153.5 2545.5,-153.5 2545.5,-134.5 2420.5,-134.5"/>
<text text-anchor="middle" x="2483" y="-141.5" font-family="Helvetica,sans-Serif" font-size="10.00">vtkKdTreePointLocator.h</text>
</a>
</g>
</g>
<!-- Node1&#45;&gt;Node114 -->
<g id="edge46" class="edge">
<title>Node1&#45;&gt;Node114</title>
<path fill="none" stroke="midnightblue" d="M2318.23,-201.37C2351.68,-189.92 2410.86,-169.68 2448.44,-156.82"/>
<polygon fill="midnightblue" stroke="midnightblue" points="2449.64,-160.11 2457.97,-153.56 2447.37,-153.49 2449.64,-160.11"/>
</g>
<!-- Node115 -->
<g id="node42" class="node">
<title>Node115</title>
<g id="a_node42"><a xlink:title=" ">
<polygon fill="white" stroke="#bfbfbf" points="2564,-123.5 2564,-164.5 2698,-164.5 2698,-123.5 2564,-123.5"/>
<text text-anchor="start" x="2572" y="-152.5" font-family="Helvetica,sans-Serif" font-size="10.00">/home/nexus/Development</text>
<text text-anchor="start" x="2572" y="-141.5" font-family="Helvetica,sans-Serif" font-size="10.00">/bitbucket/capricate/filters</text>
<text text-anchor="middle" x="2631" y="-130.5" font-family="Helvetica,sans-Serif" font-size="10.00">/vtkbool/Utilities.h</text>
</a>
</g>
</g>
<!-- Node1&#45;&gt;Node115 -->
<g id="edge47" class="edge">
<title>Node1&#45;&gt;Node115</title>
<path fill="none" stroke="midnightblue" d="M2348.25,-201.84C2401.25,-193.7 2483.43,-180.22 2554,-165 2554.1,-164.98 2554.2,-164.96 2554.3,-164.93"/>
<polygon fill="midnightblue" stroke="midnightblue" points="2554.9,-168.39 2563.89,-162.78 2553.36,-161.56 2554.9,-168.39"/>
</g>
<!-- Node116 -->
<g id="node43" class="node">
<title>Node116</title>
<g id="a_node43"><a xlink:title=" ">
<polygon fill="white" stroke="#bfbfbf" points="2716,-134.5 2716,-153.5 2778,-153.5 2778,-134.5 2716,-134.5"/>
<text text-anchor="middle" x="2747" y="-141.5" font-family="Helvetica,sans-Serif" font-size="10.00">vtkIdList.h</text>
</a>
</g>
</g>
<!-- Node1&#45;&gt;Node116 -->
<g id="edge50" class="edge">
<title>Node1&#45;&gt;Node116</title>
<path fill="none" stroke="midnightblue" d="M2348.12,-210.16C2428.62,-209.02 2582.32,-201.66 2707,-165 2712.68,-163.33 2718.52,-160.88 2723.93,-158.26"/>
<polygon fill="midnightblue" stroke="midnightblue" points="2725.81,-161.23 2733.06,-153.51 2722.58,-155.02 2725.81,-161.23"/>
</g>
<!-- Node117 -->
<g id="node44" class="node">
<title>Node117</title>
<g id="a_node44"><a xlink:title=" ">
<polygon fill="white" stroke="#bfbfbf" points="2796,-123.5 2796,-164.5 2930,-164.5 2930,-123.5 2796,-123.5"/>
<text text-anchor="start" x="2804" y="-152.5" font-family="Helvetica,sans-Serif" font-size="10.00">/home/nexus/Development</text>
<text text-anchor="start" x="2804" y="-141.5" font-family="Helvetica,sans-Serif" font-size="10.00">/bitbucket/capricate/filters</text>
<text text-anchor="middle" x="2863" y="-130.5" font-family="Helvetica,sans-Serif" font-size="10.00">/vtkbool/Tools.h</text>
</a>
</g>
</g>
<!-- Node1&#45;&gt;Node117 -->
<g id="edge51" class="edge">
<title>Node1&#45;&gt;Node117</title>
<path fill="none" stroke="midnightblue" d="M2348.22,-207.97C2438.06,-204.01 2621.52,-193.2 2785.71,-165.07"/>
<polygon fill="midnightblue" stroke="midnightblue" points="2786.75,-168.44 2796,-163.28 2785.55,-161.55 2786.75,-168.44"/>
</g>
<!-- Node68 -->
<g id="node45" class="node">
<title>Node68</title>
<g id="a_node45"><a xlink:title=" ">
<polygon fill="white" stroke="#bfbfbf" points="2948,-134.5 2948,-153.5 2992,-153.5 2992,-134.5 2948,-134.5"/>
<text text-anchor="middle" x="2970" y="-141.5" font-family="Helvetica,sans-Serif" font-size="10.00">cmath</text>
</a>
</g>
</g>
<!-- Node1&#45;&gt;Node68 -->
<g id="edge52" class="edge">
<title>Node1&#45;&gt;Node68</title>
<path fill="none" stroke="midnightblue" d="M2348.17,-209.67C2483.73,-208.3 2830.06,-201.25 2939,-165 2943.05,-163.65 2947.1,-161.65 2950.87,-159.42"/>
<polygon fill="midnightblue" stroke="midnightblue" points="2953.12,-162.13 2959.51,-153.67 2949.24,-156.3 2953.12,-162.13"/>
</g>
<!-- Node74 -->
<g id="node46" class="node">
<title>Node74</title>
<g id="a_node46"><a xlink:title=" ">
<polygon fill="white" stroke="#bfbfbf" points="3010,-134.5 3010,-153.5 3062,-153.5 3062,-134.5 3010,-134.5"/>
<text text-anchor="middle" x="3036" y="-141.5" font-family="Helvetica,sans-Serif" font-size="10.00">memory</text>
</a>
</g>
</g>
<!-- Node1&#45;&gt;Node74 -->
<g id="edge53" class="edge">
<title>Node1&#45;&gt;Node74</title>
<path fill="none" stroke="midnightblue" d="M2348.25,-209.7C2492.75,-208.41 2879.12,-201.55 3001,-165 3005.86,-163.54 3010.77,-161.31 3015.31,-158.86"/>
<polygon fill="midnightblue" stroke="midnightblue" points="3017.19,-161.81 3023.99,-153.69 3013.61,-155.8 3017.19,-161.81"/>
</g>
<!-- Node71 -->
<g id="node47" class="node">
<title>Node71</title>
<g id="a_node47"><a xlink:title=" ">
<polygon fill="white" stroke="#bfbfbf" points="3080.5,-134.5 3080.5,-153.5 3121.5,-153.5 3121.5,-134.5 3080.5,-134.5"/>
<text text-anchor="middle" x="3101" y="-141.5" font-family="Helvetica,sans-Serif" font-size="10.00">string</text>
</a>
</g>
</g>
<!-- Node1&#45;&gt;Node71 -->
<g id="edge54" class="edge">
<title>Node1&#45;&gt;Node71</title>
<path fill="none" stroke="midnightblue" d="M2348.21,-210.54C2502.7,-211.47 2936.84,-209.89 3071,-165 3075.03,-163.65 3079.02,-161.62 3082.73,-159.35"/>
<polygon fill="midnightblue" stroke="midnightblue" points="3084.94,-162.07 3091.17,-153.5 3080.95,-156.32 3084.94,-162.07"/>
</g>
<!-- Node118 -->
<g id="node48" class="node">
<title>Node118</title>
<g id="a_node48"><a xlink:title=" ">
<polygon fill="white" stroke="#bfbfbf" points="3140,-134.5 3140,-153.5 3196,-153.5 3196,-134.5 3140,-134.5"/>
<text text-anchor="middle" x="3168" y="-141.5" font-family="Helvetica,sans-Serif" font-size="10.00">algorithm</text>
</a>
</g>
</g>
<!-- Node1&#45;&gt;Node118 -->
<g id="edge57" class="edge">
<title>Node1&#45;&gt;Node118</title>
<path fill="none" stroke="midnightblue" d="M2348.15,-210.18C2510.26,-210.22 2983.14,-206.66 3131,-165 3136.31,-163.5 3141.71,-161.15 3146.68,-158.57"/>
<polygon fill="midnightblue" stroke="midnightblue" points="3148.62,-161.5 3155.58,-153.51 3145.16,-155.41 3148.62,-161.5"/>
</g>
<!-- Node119 -->
<g id="node49" class="node">
<title>Node119</title>
<g id="a_node49"><a xlink:title=" ">
<polygon fill="white" stroke="#bfbfbf" points="3214.5,-134.5 3214.5,-153.5 3255.5,-153.5 3255.5,-134.5 3214.5,-134.5"/>
<text text-anchor="middle" x="3235" y="-141.5" font-family="Helvetica,sans-Serif" font-size="10.00">cfloat</text>
</a>
</g>
</g>
<!-- Node1&#45;&gt;Node119 -->
<g id="edge58" class="edge">
<title>Node1&#45;&gt;Node119</title>
<path fill="none" stroke="midnightblue" d="M2348.17,-208.99C2533.07,-205.35 3123.89,-191.76 3205,-165 3209.03,-163.67 3213.03,-161.64 3216.73,-159.38"/>
<polygon fill="midnightblue" stroke="midnightblue" points="3218.95,-162.1 3225.18,-153.53 3214.96,-156.35 3218.95,-162.1"/>
</g>
<!-- Node120 -->
<g id="node50" class="node">
<title>Node120</title>
<g id="a_node50"><a xlink:title=" ">
<polygon fill="white" stroke="#bfbfbf" points="3273.5,-134.5 3273.5,-153.5 3332.5,-153.5 3332.5,-134.5 3273.5,-134.5"/>
<text text-anchor="middle" x="3303" y="-141.5" font-family="Helvetica,sans-Serif" font-size="10.00">exception</text>
</a>
</g>
</g>
<!-- Node1&#45;&gt;Node120 -->
<g id="edge59" class="edge">
<title>Node1&#45;&gt;Node120</title>
<path fill="none" stroke="midnightblue" d="M2348.31,-208.84C2541.12,-204.62 3176.66,-189.01 3265,-165 3270.58,-163.48 3276.26,-161.05 3281.47,-158.4"/>
<polygon fill="midnightblue" stroke="midnightblue" points="3283.19,-161.45 3290.22,-153.53 3279.78,-155.33 3283.19,-161.45"/>
</g>
<!-- Node2&#45;&gt;Node3 -->
<g id="edge2" class="edge">
<title>Node2&#45;&gt;Node3</title>
<path fill="none" stroke="midnightblue" d="M1282.21,-139.08C1174.82,-130.35 924.48,-108.35 842,-87 839.49,-86.35 836.93,-85.56 834.39,-84.68"/>
<polygon fill="midnightblue" stroke="midnightblue" points="835.43,-81.33 824.84,-81.01 832.91,-87.87 835.43,-81.33"/>
</g>
<!-- Node4 -->
<g id="node4" class="node">
<title>Node4</title>
<g id="a_node4"><a xlink:title=" ">
<polygon fill="white" stroke="#bfbfbf" points="1619,-62 1619,-81 1669,-81 1669,-62 1619,-62"/>
<text text-anchor="middle" x="1644" y="-69" font-family="Helvetica,sans-Serif" font-size="10.00">locale.h</text>
</a>
</g>
</g>
<!-- Node2&#45;&gt;Node4 -->
<g id="edge3" class="edge">
<title>Node2&#45;&gt;Node4</title>
<path fill="none" stroke="midnightblue" d="M1381.72,-136.12C1437.94,-127.63 1531.83,-111.26 1610,-87 1612.14,-86.34 1614.33,-85.58 1616.52,-84.78"/>
<polygon fill="midnightblue" stroke="midnightblue" points="1617.92,-87.99 1625.91,-81.03 1615.32,-81.49 1617.92,-87.99"/>
</g>
<!-- Node5 -->
<g id="node5" class="node">
<title>Node5</title>
<g id="a_node5"><a xlink:title=" ">
<polygon fill="white" stroke="#bfbfbf" points="1727.5,-0.5 1727.5,-19.5 1822.5,-19.5 1822.5,-0.5 1727.5,-0.5"/>
<text text-anchor="middle" x="1775" y="-7.5" font-family="Helvetica,sans-Serif" font-size="10.00">vtkSmartPointer.h</text>
</a>
</g>
</g>
<!-- Node2&#45;&gt;Node5 -->
<g id="edge4" class="edge">
<title>Node2&#45;&gt;Node5</title>
<path fill="none" stroke="midnightblue" d="M1381.57,-142.93C1450.88,-141.1 1579.34,-131.34 1678,-87 1697.88,-78.07 1698.89,-69.5 1716,-56 1729.06,-45.7 1743.95,-34.34 1755.5,-25.62"/>
<polygon fill="midnightblue" stroke="midnightblue" points="1757.72,-28.33 1763.6,-19.52 1753.51,-22.74 1757.72,-28.33"/>
</g>
<!-- Node2&#45;&gt;Node6 -->
<g id="edge5" class="edge">
<title>Node2&#45;&gt;Node6</title>
<path fill="none" stroke="midnightblue" d="M1381.71,-141.46C1509.36,-137.03 1841.09,-122.19 1875,-87 1889.38,-72.08 1888.03,-46.96 1884.82,-29.71"/>
<polygon fill="midnightblue" stroke="midnightblue" points="1888.18,-28.69 1882.59,-19.69 1881.35,-30.22 1888.18,-28.69"/>
</g>
<!-- Node7 -->
<g id="node7" class="node">
<title>Node7</title>
<g id="a_node7"><a xlink:title=" ">
<polygon fill="white" stroke="#bfbfbf" points="971,-62 971,-81 1057,-81 1057,-62 971,-62"/>
<text text-anchor="middle" x="1014" y="-69" font-family="Helvetica,sans-Serif" font-size="10.00">QTemporaryFile</text>
</a>
</g>
</g>
<!-- Node2&#45;&gt;Node7 -->
<g id="edge6" class="edge">
<title>Node2&#45;&gt;Node7</title>
<path fill="none" stroke="midnightblue" d="M1287.09,-134.46C1234.04,-124.17 1143.25,-105.88 1066,-87 1061.85,-85.99 1057.53,-84.87 1053.24,-83.73"/>
<polygon fill="midnightblue" stroke="midnightblue" points="1053.91,-80.29 1043.34,-81.04 1052.07,-87.04 1053.91,-80.29"/>
</g>
<!-- Node8 -->
<g id="node8" class="node">
<title>Node8</title>
<g id="a_node8"><a xlink:title=" ">
<polygon fill="white" stroke="#bfbfbf" points="1075,-62 1075,-81 1115,-81 1115,-62 1075,-62"/>
<text text-anchor="middle" x="1095" y="-69" font-family="Helvetica,sans-Serif" font-size="10.00">QFile</text>
</a>
</g>
</g>
<!-- Node2&#45;&gt;Node8 -->
<g id="edge7" class="edge">
<title>Node2&#45;&gt;Node8</title>
<path fill="none" stroke="midnightblue" d="M1290.58,-134.43C1248.04,-125.03 1180.28,-108.4 1124,-87 1122.62,-86.47 1121.22,-85.91 1119.81,-85.31"/>
<polygon fill="midnightblue" stroke="midnightblue" points="1121.24,-82.11 1110.7,-81.07 1118.29,-88.46 1121.24,-82.11"/>
</g>
<!-- Node9 -->
<g id="node9" class="node">
<title>Node9</title>
<g id="a_node9"><a xlink:title=" ">
<polygon fill="white" stroke="#bfbfbf" points="1133,-62 1133,-81 1207,-81 1207,-62 1133,-62"/>
<text text-anchor="middle" x="1170" y="-69" font-family="Helvetica,sans-Serif" font-size="10.00">QTextStream</text>
</a>
</g>
</g>
<!-- Node2&#45;&gt;Node9 -->
<g id="edge8" class="edge">
<title>Node2&#45;&gt;Node9</title>
<path fill="none" stroke="midnightblue" d="M1312.46,-134.5C1284.24,-122.22 1231.88,-99.43 1199.11,-85.17"/>
<polygon fill="midnightblue" stroke="midnightblue" points="1200.18,-81.82 1189.61,-81.03 1197.38,-88.23 1200.18,-81.82"/>
</g>
<!-- Node10 -->
<g id="node10" class="node">
<title>Node10</title>
<g id="a_node10"><a xlink:title=" ">
<polygon fill="white" stroke="#bfbfbf" points="1651,-0.5 1651,-19.5 1709,-19.5 1709,-0.5 1651,-0.5"/>
<text text-anchor="middle" x="1680" y="-7.5" font-family="Helvetica,sans-Serif" font-size="10.00">vtkNew.h</text>
</a>
</g>
</g>
<!-- Node2&#45;&gt;Node10 -->
<g id="edge9" class="edge">
<title>Node2&#45;&gt;Node10</title>
<path fill="none" stroke="midnightblue" d="M1282.17,-143.12C1190.95,-142.16 1002.72,-134.35 962,-87 953.02,-76.55 952.52,-66 962,-56 1012.21,-3.06 1529.02,-28.63 1640.45,-19.44"/>
<polygon fill="midnightblue" stroke="midnightblue" points="1641.15,-22.89 1650.71,-18.33 1640.4,-15.93 1641.15,-22.89"/>
</g>
<!-- Node11 -->
<g id="node11" class="node">
<title>Node11</title>
<g id="a_node11"><a xlink:title=" ">
<polygon fill="white" stroke="#bfbfbf" points="1225.5,-62 1225.5,-81 1320.5,-81 1320.5,-62 1225.5,-62"/>
<text text-anchor="middle" x="1273" y="-69" font-family="Helvetica,sans-Serif" font-size="10.00">vtkTriangleFilter.h</text>
</a>
</g>
</g>
<!-- Node2&#45;&gt;Node11 -->
<g id="edge10" class="edge">
<title>Node2&#45;&gt;Node11</title>
<path fill="none" stroke="midnightblue" d="M1324.77,-134.36C1315.39,-123.15 1298.83,-103.37 1286.97,-89.19"/>
<polygon fill="midnightblue" stroke="midnightblue" points="1289.4,-86.64 1280.29,-81.22 1284.03,-91.13 1289.4,-86.64"/>
</g>
<!-- Node12 -->
<g id="node12" class="node">
<title>Node12</title>
<g id="a_node12"><a xlink:title=" ">
<polygon fill="white" stroke="#bfbfbf" points="1339,-62 1339,-81 1443,-81 1443,-62 1339,-62"/>
<text text-anchor="middle" x="1391" y="-69" font-family="Helvetica,sans-Serif" font-size="10.00">vtkCleanPolyData.h</text>
</a>
</g>
</g>
<!-- Node2&#45;&gt;Node12 -->
<g id="edge11" class="edge">
<title>Node2&#45;&gt;Node12</title>
<path fill="none" stroke="midnightblue" d="M1339.23,-134.36C1348.61,-123.15 1365.17,-103.37 1377.03,-89.19"/>
<polygon fill="midnightblue" stroke="midnightblue" points="1379.97,-91.13 1383.71,-81.22 1374.6,-86.64 1379.97,-91.13"/>
</g>
<!-- Node13 -->
<g id="node13" class="node">
<title>Node13</title>
<g id="a_node13"><a xlink:title=" ">
<polygon fill="white" stroke="#bfbfbf" points="1461,-56.5 1461,-86.5 1601,-86.5 1601,-56.5 1461,-56.5"/>
<text text-anchor="start" x="1469" y="-74.5" font-family="Helvetica,sans-Serif" font-size="10.00">vtkbool/vtkPolyDataBoolean</text>
<text text-anchor="middle" x="1531" y="-63.5" font-family="Helvetica,sans-Serif" font-size="10.00">Filter.h</text>
</a>
</g>
</g>
<!-- Node2&#45;&gt;Node13 -->
<g id="edge12" class="edge">
<title>Node2&#45;&gt;Node13</title>
<path fill="none" stroke="midnightblue" d="M1356,-134.5C1387.04,-123.5 1441.86,-104.08 1481.89,-89.9"/>
<polygon fill="midnightblue" stroke="midnightblue" points="1483.21,-93.14 1491.47,-86.51 1480.87,-86.55 1483.21,-93.14"/>
</g>
<!-- Node14 -->
<g id="node14" class="node">
<title>Node14</title>
<g id="a_node14"><a xlink:href="../../d4/dcd/meshbooleanoperationfilter_8h.html" target="_top" xlink:title="Base class for boolean operations on polygon meshes filters.">
<polygon fill="white" stroke="black" points="1725.5,-62 1725.5,-81 1866.5,-81 1866.5,-62 1725.5,-62"/>
<text text-anchor="middle" x="1796" y="-69" font-family="Helvetica,sans-Serif" font-size="10.00">meshbooleanoperationfilter.h</text>
</a>
</g>
</g>
<!-- Node2&#45;&gt;Node14 -->
<g id="edge13" class="edge">
<title>Node2&#45;&gt;Node14</title>
<path fill="none" stroke="midnightblue" d="M1381.72,-136.01C1454.2,-125.75 1593.09,-105.77 1711,-87 1719.39,-85.66 1728.25,-84.21 1736.94,-82.75"/>
<polygon fill="midnightblue" stroke="midnightblue" points="1737.76,-86.16 1747.04,-81.04 1736.59,-79.26 1737.76,-86.16"/>
</g>
<!-- Node15 -->
<g id="node15" class="node">
<title>Node15</title>
<g id="a_node15"><a xlink:href="../../d5/d60/utils_8h.html" target="_top" xlink:title="Various utility algorithms needed by various parts of the application.">
<polygon fill="white" stroke="red" points="851,-62 851,-81 915,-81 915,-62 851,-62"/>
<text text-anchor="middle" x="883" y="-69" font-family="Helvetica,sans-Serif" font-size="10.00">utils/utils.h</text>
</a>
</g>
</g>
<!-- Node2&#45;&gt;Node15 -->
<g id="edge16" class="edge">
<title>Node2&#45;&gt;Node15</title>
<path fill="none" stroke="midnightblue" d="M1282.2,-138.78C1205.61,-131.69 1054.59,-115.31 929,-87 925.16,-86.13 921.18,-85.1 917.23,-83.98"/>
<polygon fill="midnightblue" stroke="midnightblue" points="918.2,-80.62 907.62,-81.1 916.19,-87.32 918.2,-80.62"/>
</g>
<!-- Node14&#45;&gt;Node5 -->
<g id="edge14" class="edge">
<title>Node14&#45;&gt;Node5</title>
<path fill="none" stroke="midnightblue" d="M1792.99,-61.98C1789.97,-53.4 1785.21,-39.93 1781.35,-28.98"/>
<polygon fill="midnightblue" stroke="midnightblue" points="1784.63,-27.77 1778,-19.51 1778.03,-30.1 1784.63,-27.77"/>
</g>
<!-- Node14&#45;&gt;Node6 -->
<g id="edge15" class="edge">
<title>Node14&#45;&gt;Node6</title>
<path fill="none" stroke="midnightblue" d="M1808.04,-61.98C1821.51,-52.43 1843.57,-36.81 1859.72,-25.37"/>
<polygon fill="midnightblue" stroke="midnightblue" points="1861.85,-28.15 1867.99,-19.51 1857.8,-22.43 1861.85,-28.15"/>
</g>
<!-- Node15&#45;&gt;Node5 -->
<g id="edge24" class="edge">
<title>Node15&#45;&gt;Node5</title>
<path fill="none" stroke="midnightblue" d="M915.14,-63.59C929.42,-60.78 946.48,-57.79 962,-56 1292.91,-17.93 1381.64,-53.57 1717.46,-19.92"/>
<polygon fill="midnightblue" stroke="midnightblue" points="1717.87,-23.39 1727.46,-18.9 1717.16,-16.43 1717.87,-23.39"/>
</g>
<!-- Node15&#45;&gt;Node6 -->
<g id="edge38" class="edge">
<title>Node15&#45;&gt;Node6</title>
<path fill="none" stroke="midnightblue" d="M915.14,-63.55C929.42,-60.73 946.48,-57.74 962,-56 1342.87,-13.37 1445.11,-62.17 1830.46,-19.86"/>
<polygon fill="midnightblue" stroke="midnightblue" points="1830.94,-23.33 1840.49,-18.75 1830.16,-16.37 1830.94,-23.33"/>
</g>
<!-- Node15&#45;&gt;Node10 -->
<g id="edge25" class="edge">
<title>Node15&#45;&gt;Node10</title>
<path fill="none" stroke="midnightblue" d="M906.11,-61.95C913.34,-59.62 921.42,-57.36 929,-56 1237.5,-0.52 1325.31,-62.43 1640.37,-19.77"/>
<polygon fill="midnightblue" stroke="midnightblue" points="1641.29,-23.17 1650.72,-18.34 1640.33,-16.24 1641.29,-23.17"/>
</g>
<!-- Node15&#45;&gt;Node16 -->
<g id="edge17" class="edge">
<title>Node15&#45;&gt;Node16</title>
<path fill="none" stroke="midnightblue" d="M862.47,-61.91C856.03,-59.58 848.82,-57.33 842,-56 498.06,11.07 396.97,-80.93 47.98,-19.64"/>
<polygon fill="midnightblue" stroke="midnightblue" points="48.57,-16.19 38.11,-17.88 47.34,-23.09 48.57,-16.19"/>
</g>
<!-- Node17 -->
<g id="node17" class="node">
<title>Node17</title>
<g id="a_node17"><a xlink:title=" ">
<polygon fill="white" stroke="#bfbfbf" points="1472,-0.5 1472,-19.5 1518,-19.5 1518,-0.5 1472,-0.5"/>
<text text-anchor="middle" x="1495" y="-7.5" font-family="Helvetica,sans-Serif" font-size="10.00">chrono</text>
</a>
</g>
</g>
<!-- Node15&#45;&gt;Node17 -->
<g id="edge18" class="edge">
<title>Node15&#45;&gt;Node17</title>
<path fill="none" stroke="midnightblue" d="M906.6,-61.88C913.71,-59.6 921.59,-57.4 929,-56 1159.56,-12.53 1226.76,-59.11 1461.84,-19.83"/>
<polygon fill="midnightblue" stroke="midnightblue" points="1462.44,-23.28 1471.71,-18.15 1461.26,-16.38 1462.44,-23.28"/>
</g>
<!-- Node18 -->
<g id="node18" class="node">
<title>Node18</title>
<g id="a_node18"><a xlink:title=" ">
<polygon fill="white" stroke="#bfbfbf" points="1536.5,-0.5 1536.5,-19.5 1565.5,-19.5 1565.5,-0.5 1536.5,-0.5"/>
<text text-anchor="middle" x="1551" y="-7.5" font-family="Helvetica,sans-Serif" font-size="10.00">list</text>
</a>
</g>
</g>
<!-- Node15&#45;&gt;Node18 -->
<g id="edge19" class="edge">
<title>Node15&#45;&gt;Node18</title>
<path fill="none" stroke="midnightblue" d="M906.12,-62C913.35,-59.67 921.42,-57.4 929,-56 1187.63,-8.2 1264.68,-73.72 1526.69,-19.31"/>
<polygon fill="midnightblue" stroke="midnightblue" points="1527.43,-22.73 1536.48,-17.23 1525.98,-15.88 1527.43,-22.73"/>
</g>
<!-- Node15&#45;&gt;Node19 -->
<g id="edge20" class="edge">
<title>Node15&#45;&gt;Node19</title>
<path fill="none" stroke="midnightblue" d="M862.47,-61.93C856.03,-59.6 848.81,-57.34 842,-56 529.59,5.65 439.1,-65.75 120,-19.82"/>
<polygon fill="midnightblue" stroke="midnightblue" points="120.42,-16.34 110.01,-18.35 119.4,-23.27 120.42,-16.34"/>
</g>
<!-- Node20 -->
<g id="node20" class="node">
<title>Node20</title>
<g id="a_node20"><a xlink:title=" ">
<polygon fill="white" stroke="#bfbfbf" points="1583.5,-0.5 1583.5,-19.5 1632.5,-19.5 1632.5,-0.5 1583.5,-0.5"/>
<text text-anchor="middle" x="1608" y="-7.5" font-family="Helvetica,sans-Serif" font-size="10.00">random</text>
</a>
</g>
</g>
<!-- Node15&#45;&gt;Node20 -->
<g id="edge21" class="edge">
<title>Node15&#45;&gt;Node20</title>
<path fill="none" stroke="midnightblue" d="M906.12,-61.98C913.35,-59.65 921.42,-57.38 929,-56 1208.14,-5.05 1288.55,-63.56 1573.04,-19.78"/>
<polygon fill="midnightblue" stroke="midnightblue" points="1573.91,-23.18 1583.24,-18.18 1572.82,-16.27 1573.91,-23.18"/>
</g>
<!-- Node21 -->
<g id="node21" class="node">
<title>Node21</title>
<g id="a_node21"><a xlink:title=" ">
<polygon fill="white" stroke="#bfbfbf" points="128.5,-0.5 128.5,-19.5 169.5,-19.5 169.5,-0.5 128.5,-0.5"/>
<text text-anchor="middle" x="149" y="-7.5" font-family="Helvetica,sans-Serif" font-size="10.00">ctime</text>
</a>
</g>
</g>
<!-- Node15&#45;&gt;Node21 -->
<g id="edge22" class="edge">
<title>Node15&#45;&gt;Node21</title>
<path fill="none" stroke="midnightblue" d="M862.47,-61.95C856.02,-59.62 848.81,-57.36 842,-56 555.86,1.14 471.59,-69.14 179.53,-19.59"/>
<polygon fill="midnightblue" stroke="midnightblue" points="179.95,-16.11 169.5,-17.85 178.76,-23 179.95,-16.11"/>
</g>
<!-- Node22 -->
<g id="node22" class="node">
<title>Node22</title>
<g id="a_node22"><a xlink:title=" ">
<polygon fill="white" stroke="#bfbfbf" points="188,-0.5 188,-19.5 228,-19.5 228,-0.5 188,-0.5"/>
<text text-anchor="middle" x="208" y="-7.5" font-family="Helvetica,sans-Serif" font-size="10.00">limits</text>
</a>
</g>
</g>
<!-- Node15&#45;&gt;Node22 -->
<g id="edge23" class="edge">
<title>Node15&#45;&gt;Node22</title>
<path fill="none" stroke="midnightblue" d="M862.46,-61.97C856.02,-59.64 848.81,-57.38 842,-56 581.21,-3.22 503.89,-66.68 238.07,-19.72"/>
<polygon fill="midnightblue" stroke="midnightblue" points="238.59,-16.26 228.13,-17.93 237.35,-23.15 238.59,-16.26"/>
</g>
<!-- Node23 -->
<g id="node23" class="node">
<title>Node23</title>
<g id="a_node23"><a xlink:title=" ">
<polygon fill="white" stroke="#bfbfbf" points="246.5,-0.5 246.5,-19.5 329.5,-19.5 329.5,-0.5 246.5,-0.5"/>
<text text-anchor="middle" x="288" y="-7.5" font-family="Helvetica,sans-Serif" font-size="10.00">vtkTransform.h</text>
</a>
</g>
</g>
<!-- Node15&#45;&gt;Node23 -->
<g id="edge26" class="edge">
<title>Node15&#45;&gt;Node23</title>
<path fill="none" stroke="midnightblue" d="M862.03,-61.87C855.69,-59.59 848.65,-57.39 842,-56 625.81,-10.89 563.26,-46.44 339.77,-19.94"/>
<polygon fill="midnightblue" stroke="midnightblue" points="340.04,-16.45 329.7,-18.72 339.2,-23.4 340.04,-16.45"/>
</g>
<!-- Node24 -->
<g id="node24" class="node">
<title>Node24</title>
<g id="a_node24"><a xlink:title=" ">
<polygon fill="white" stroke="#bfbfbf" points="348,-0.5 348,-19.5 410,-19.5 410,-0.5 348,-0.5"/>
<text text-anchor="middle" x="379" y="-7.5" font-family="Helvetica,sans-Serif" font-size="10.00">vtkQuad.h</text>
</a>
</g>
</g>
<!-- Node15&#45;&gt;Node24 -->
<g id="edge27" class="edge">
<title>Node15&#45;&gt;Node24</title>
<path fill="none" stroke="midnightblue" d="M862.02,-61.92C855.68,-59.65 848.64,-57.43 842,-56 660.8,-16.92 607.34,-47.65 420.52,-20.02"/>
<polygon fill="midnightblue" stroke="midnightblue" points="420.78,-16.52 410.37,-18.48 419.73,-23.44 420.78,-16.52"/>
</g>
<!-- Node25 -->
<g id="node25" class="node">
<title>Node25</title>
<g id="a_node25"><a xlink:title=" ">
<polygon fill="white" stroke="#bfbfbf" points="428.5,-0.5 428.5,-19.5 539.5,-19.5 539.5,-0.5 428.5,-0.5"/>
<text text-anchor="middle" x="484" y="-7.5" font-family="Helvetica,sans-Serif" font-size="10.00">vtkPolyDataMapper.h</text>
</a>
</g>
</g>
<!-- Node15&#45;&gt;Node25 -->
<g id="edge28" class="edge">
<title>Node15&#45;&gt;Node25</title>
<path fill="none" stroke="midnightblue" d="M861.56,-61.93C855.33,-59.71 848.47,-57.52 842,-56 717.4,-26.68 680.87,-36.48 549.69,-20.05"/>
<polygon fill="midnightblue" stroke="midnightblue" points="550.03,-16.56 539.66,-18.76 549.14,-23.51 550.03,-16.56"/>
</g>
<!-- Node26 -->
<g id="node26" class="node">
<title>Node26</title>
<g id="a_node26"><a xlink:title=" ">
<polygon fill="white" stroke="#bfbfbf" points="558,-0.5 558,-19.5 654,-19.5 654,-0.5 558,-0.5"/>
<text text-anchor="middle" x="606" y="-7.5" font-family="Helvetica,sans-Serif" font-size="10.00">vtkBoundingBox.h</text>
</a>
</g>
</g>
<!-- Node15&#45;&gt;Node26 -->
<g id="edge29" class="edge">
<title>Node15&#45;&gt;Node26</title>
<path fill="none" stroke="midnightblue" d="M860.64,-61.9C854.64,-59.79 848.12,-57.66 842,-56 809.22,-47.13 722.66,-31.34 664,-21.02"/>
<polygon fill="midnightblue" stroke="midnightblue" points="664.57,-17.57 654.11,-19.29 663.36,-24.46 664.57,-17.57"/>
</g>
<!-- Node27 -->
<g id="node27" class="node">
<title>Node27</title>
<g id="a_node27"><a xlink:title=" ">
<polygon fill="white" stroke="#bfbfbf" points="672.5,-0.5 672.5,-19.5 785.5,-19.5 785.5,-0.5 672.5,-0.5"/>
<text text-anchor="middle" x="729" y="-7.5" font-family="Helvetica,sans-Serif" font-size="10.00">vtkMersenneTwister.h</text>
</a>
</g>
</g>
<!-- Node15&#45;&gt;Node27 -->
<g id="edge30" class="edge">
<title>Node15&#45;&gt;Node27</title>
<path fill="none" stroke="midnightblue" d="M860.94,-61.98C834.63,-51.81 790.49,-34.76 760.58,-23.2"/>
<polygon fill="midnightblue" stroke="midnightblue" points="761.61,-19.85 751.02,-19.51 759.09,-26.38 761.61,-19.85"/>
</g>
<!-- Node15&#45;&gt;Node28 -->
<g id="edge31" class="edge">
<title>Node15&#45;&gt;Node28</title>
<path fill="none" stroke="midnightblue" d="M915.13,-63.52C929.41,-60.69 946.48,-57.7 962,-56 1385.73,-9.46 1499.77,-71.22 1927.59,-19.77"/>
<polygon fill="midnightblue" stroke="midnightblue" points="1928.25,-23.22 1937.76,-18.54 1927.41,-16.27 1928.25,-23.22"/>
</g>
<!-- Node29 -->
<g id="node29" class="node">
<title>Node29</title>
<g id="a_node29"><a xlink:title=" ">
<polygon fill="white" stroke="#bfbfbf" points="804,-0.5 804,-19.5 870,-19.5 870,-0.5 804,-0.5"/>
<text text-anchor="middle" x="837" y="-7.5" font-family="Helvetica,sans-Serif" font-size="10.00">vtkVector.h</text>
</a>
</g>
</g>
<!-- Node15&#45;&gt;Node29 -->
<g id="edge32" class="edge">
<title>Node15&#45;&gt;Node29</title>
<path fill="none" stroke="midnightblue" d="M876.41,-61.98C869.51,-53.05 858.5,-38.81 849.87,-27.64"/>
<polygon fill="midnightblue" stroke="midnightblue" points="852.46,-25.28 843.58,-19.51 846.93,-29.56 852.46,-25.28"/>
</g>
<!-- Node30 -->
<g id="node30" class="node">
<title>Node30</title>
<g id="a_node30"><a xlink:title=" ">
<polygon fill="white" stroke="#bfbfbf" points="888.5,-0.5 888.5,-19.5 997.5,-19.5 997.5,-0.5 888.5,-0.5"/>
<text text-anchor="middle" x="943" y="-7.5" font-family="Helvetica,sans-Serif" font-size="10.00">vtkVectorOperators.h</text>
</a>
</g>
</g>
<!-- Node15&#45;&gt;Node30 -->
<g id="edge33" class="edge">
<title>Node15&#45;&gt;Node30</title>
<path fill="none" stroke="midnightblue" d="M891.6,-61.98C900.86,-52.78 915.82,-37.96 927.21,-26.66"/>
<polygon fill="midnightblue" stroke="midnightblue" points="929.78,-29.04 934.42,-19.51 924.85,-24.07 929.78,-29.04"/>
</g>
<!-- Node31 -->
<g id="node31" class="node">
<title>Node31</title>
<g id="a_node31"><a xlink:title=" ">
<polygon fill="white" stroke="#bfbfbf" points="1016,-0.5 1016,-19.5 1098,-19.5 1098,-0.5 1016,-0.5"/>
<text text-anchor="middle" x="1057" y="-7.5" font-family="Helvetica,sans-Serif" font-size="10.00">vtkVectorDot.h</text>
</a>
</g>
</g>
<!-- Node15&#45;&gt;Node31 -->
<g id="edge34" class="edge">
<title>Node15&#45;&gt;Node31</title>
<path fill="none" stroke="midnightblue" d="M907.93,-61.98C938.04,-51.68 988.83,-34.31 1022.64,-22.75"/>
<polygon fill="midnightblue" stroke="midnightblue" points="1023.79,-26.06 1032.12,-19.51 1021.52,-19.43 1023.79,-26.06"/>
</g>
<!-- Node32 -->
<g id="node32" class="node">
<title>Node32</title>
<g id="a_node32"><a xlink:title=" ">
<polygon fill="white" stroke="#bfbfbf" points="1116,-0.5 1116,-19.5 1206,-19.5 1206,-0.5 1116,-0.5"/>
<text text-anchor="middle" x="1161" y="-7.5" font-family="Helvetica,sans-Serif" font-size="10.00">vtkVectorNorm.h</text>
</a>
</g>
</g>
<!-- Node15&#45;&gt;Node32 -->
<g id="edge35" class="edge">
<title>Node15&#45;&gt;Node32</title>
<path fill="none" stroke="midnightblue" d="M908.64,-61.85C915.23,-59.78 922.34,-57.69 929,-56 961.73,-47.7 1048.3,-31.46 1105.93,-20.93"/>
<polygon fill="midnightblue" stroke="midnightblue" points="1106.77,-24.34 1115.98,-19.1 1105.51,-17.45 1106.77,-24.34"/>
</g>
<!-- Node33 -->
<g id="node33" class="node">
<title>Node33</title>
<g id="a_node33"><a xlink:title=" ">
<polygon fill="white" stroke="#bfbfbf" points="1224,-0.5 1224,-19.5 1358,-19.5 1358,-0.5 1224,-0.5"/>
<text text-anchor="middle" x="1291" y="-7.5" font-family="Helvetica,sans-Serif" font-size="10.00">vtkSelectEnclosedPoints.h</text>
</a>
</g>
</g>
<!-- Node15&#45;&gt;Node33 -->
<g id="edge36" class="edge">
<title>Node15&#45;&gt;Node33</title>
<path fill="none" stroke="midnightblue" d="M907.13,-61.99C914.11,-59.77 921.8,-57.57 929,-56 942.74,-53.01 1111.61,-32.51 1213.78,-20.24"/>
<polygon fill="midnightblue" stroke="midnightblue" points="1214.25,-23.71 1223.76,-19.04 1213.41,-16.76 1214.25,-23.71"/>
</g>
<!-- Node34 -->
<g id="node34" class="node">
<title>Node34</title>
<g id="a_node34"><a xlink:title=" ">
<polygon fill="white" stroke="#bfbfbf" points="1376,-0.5 1376,-19.5 1454,-19.5 1454,-0.5 1376,-0.5"/>
<text text-anchor="middle" x="1415" y="-7.5" font-family="Helvetica,sans-Serif" font-size="10.00">vtkCellArray.h</text>
</a>
</g>
</g>
<!-- Node15&#45;&gt;Node34 -->
<g id="edge37" class="edge">
<title>Node15&#45;&gt;Node34</title>
<path fill="none" stroke="midnightblue" d="M906.61,-61.95C913.72,-59.67 921.6,-57.45 929,-56 1117.49,-19.03 1171.63,-45.13 1365.81,-20.02"/>
<polygon fill="midnightblue" stroke="midnightblue" points="1366.31,-23.48 1375.76,-18.7 1365.39,-16.54 1366.31,-23.48"/>
</g>
</g>
</svg>
