<?xml version="1.0" encoding="UTF-8" standalone="no"?>
<!DOCTYPE svg PUBLIC "-//W3C//DTD SVG 1.1//EN"
 "http://www.w3.org/Graphics/SVG/1.1/DTD/svg11.dtd">
<!-- Generated by graphviz version 2.44.1 (0)
 -->
<!-- Title: T_MESH::Triangle::prevVertex Pages: 1 -->
<svg width="678pt" height="28pt"
 viewBox="0.00 0.00 678.00 28.00" xmlns="http://www.w3.org/2000/svg" xmlns:xlink="http://www.w3.org/1999/xlink">
<g id="graph0" class="graph" transform="scale(1 1) rotate(0) translate(4 24)">
<title>T_MESH::Triangle::prevVertex</title>
<polygon fill="white" stroke="transparent" points="-4,4 -4,-24 674,-24 674,4 -4,4"/>
<!-- Node1 -->
<g id="node1" class="node">
<title>Node1</title>
<g id="a_node1"><a xlink:title="Vertex preceeding &#39;v&#39; in the ordering or the triangle. NULL if &#39;v&#39; is not a vertex of the triangle.">
<polygon fill="#bfbfbf" stroke="black" points="520,-0.5 520,-19.5 670,-19.5 670,-0.5 520,-0.5"/>
<text text-anchor="middle" x="595" y="-7.5" font-family="Helvetica,sans-Serif" font-size="10.00">T_MESH::Triangle::prevVertex</text>
</a>
</g>
</g>
<!-- Node2 -->
<g id="node2" class="node">
<title>Node2</title>
<g id="a_node2"><a xlink:href="../../de/df9/namespace_t___m_e_s_h.html#acb1342ee7a7281f17abe972751299e4b" target="_top" xlink:title=" ">
<polygon fill="white" stroke="black" points="345,-0.5 345,-19.5 484,-19.5 484,-0.5 345,-0.5"/>
<text text-anchor="middle" x="414.5" y="-7.5" font-family="Helvetica,sans-Serif" font-size="10.00">T_MESH::mc_safeCollapse</text>
</a>
</g>
</g>
<!-- Node1&#45;&gt;Node2 -->
<g id="edge1" class="edge">
<title>Node1&#45;&gt;Node2</title>
<path fill="none" stroke="midnightblue" d="M509.84,-10C501.28,-10 492.65,-10 484.27,-10"/>
<polygon fill="midnightblue" stroke="midnightblue" points="509.85,-13.5 519.85,-10 509.85,-6.5 509.85,-13.5"/>
</g>
<!-- Node3 -->
<g id="node3" class="node">
<title>Node3</title>
<g id="a_node3"><a xlink:href="../../d9/d69/class_t___m_e_s_h_1_1mc__grid.html#a4a05d540177eaf325992664030d0743e" target="_top" xlink:title=" ">
<polygon fill="white" stroke="black" points="172,-0.5 172,-19.5 309,-19.5 309,-0.5 172,-0.5"/>
<text text-anchor="middle" x="240.5" y="-7.5" font-family="Helvetica,sans-Serif" font-size="10.00">T_MESH::mc_grid::simplify</text>
</a>
</g>
</g>
<!-- Node2&#45;&gt;Node3 -->
<g id="edge2" class="edge">
<title>Node2&#45;&gt;Node3</title>
<path fill="none" stroke="midnightblue" d="M334.31,-10C325.88,-10 317.36,-10 309.08,-10"/>
<polygon fill="midnightblue" stroke="midnightblue" points="334.53,-13.5 344.53,-10 334.53,-6.5 334.53,-13.5"/>
</g>
<!-- Node4 -->
<g id="node4" class="node">
<title>Node4</title>
<g id="a_node4"><a xlink:href="../../d9/d69/class_t___m_e_s_h_1_1mc__grid.html#acab069f805e6c473afb4e340d3d8d1ae" target="_top" xlink:title="&lt; AMF_CHANGE &#45; since T_MESH 2.4&#45;2 &gt;">
<polygon fill="white" stroke="black" points="0,-0.5 0,-19.5 136,-19.5 136,-0.5 0,-0.5"/>
<text text-anchor="middle" x="68" y="-7.5" font-family="Helvetica,sans-Serif" font-size="10.00">T_MESH::mc_grid::remesh</text>
</a>
</g>
</g>
<!-- Node3&#45;&gt;Node4 -->
<g id="edge3" class="edge">
<title>Node3&#45;&gt;Node4</title>
<path fill="none" stroke="midnightblue" d="M161.39,-10C152.93,-10 144.39,-10 136.09,-10"/>
<polygon fill="midnightblue" stroke="midnightblue" points="161.62,-13.5 171.62,-10 161.62,-6.5 161.62,-13.5"/>
</g>
</g>
</svg>
