<?xml version="1.0" encoding="UTF-8" standalone="no"?>
<!DOCTYPE svg PUBLIC "-//W3C//DTD SVG 1.1//EN"
 "http://www.w3.org/Graphics/SVG/1.1/DTD/svg11.dtd">
<!-- Generated by graphviz version 2.44.1 (0)
 -->
<!-- Title: T_MESH::Triangle::getDAngle Pages: 1 -->
<svg width="487pt" height="130pt"
 viewBox="0.00 0.00 487.00 130.00" xmlns="http://www.w3.org/2000/svg" xmlns:xlink="http://www.w3.org/1999/xlink">
<g id="graph0" class="graph" transform="scale(1 1) rotate(0) translate(4 126)">
<title>T_MESH::Triangle::getDAngle</title>
<polygon fill="white" stroke="transparent" points="-4,4 -4,-126 483,-126 483,4 -4,4"/>
<!-- Node1 -->
<g id="node1" class="node">
<title>Node1</title>
<g id="a_node1"><a xlink:title="Angle between the normal vector of this and the one of &#39;t&#39;. Return &#45;1 if one or both the triangles ar...">
<polygon fill="#bfbfbf" stroke="black" points="330,-53 330,-72 479,-72 479,-53 330,-53"/>
<text text-anchor="middle" x="404.5" y="-60" font-family="Helvetica,sans-Serif" font-size="10.00">T_MESH::Triangle::getDAngle</text>
</a>
</g>
</g>
<!-- Node2 -->
<g id="node2" class="node">
<title>Node2</title>
<g id="a_node2"><a xlink:href="../../d6/d27/class_t___m_e_s_h_1_1_basic___t_mesh.html#abd5594a9e9360e62ef707cec470d0f63" target="_top" xlink:title="Checks the mesh for degeneracies, concident vertices and overlaps.">
<polygon fill="white" stroke="black" points="165,-91.5 165,-121.5 288,-121.5 288,-91.5 165,-91.5"/>
<text text-anchor="start" x="173" y="-109.5" font-family="Helvetica,sans-Serif" font-size="10.00">T_MESH::Basic_TMesh</text>
<text text-anchor="middle" x="226.5" y="-98.5" font-family="Helvetica,sans-Serif" font-size="10.00">::checkGeometry</text>
</a>
</g>
</g>
<!-- Node1&#45;&gt;Node2 -->
<g id="edge1" class="edge">
<title>Node1&#45;&gt;Node2</title>
<path fill="none" stroke="midnightblue" d="M355.4,-74.53C334.52,-79.75 309.84,-85.91 287.76,-91.43"/>
<polygon fill="midnightblue" stroke="midnightblue" points="356.46,-77.87 365.31,-72.05 354.76,-71.08 356.46,-77.87"/>
</g>
<!-- Node3 -->
<g id="node3" class="node">
<title>Node3</title>
<g id="a_node3"><a xlink:href="../../da/da2/class_t___m_e_s_h_1_1_edge.html#a5fa933e3c5e84b1ddfd7e9af7c085ebf" target="_top" xlink:title="Angle between the normals of the two incident triangles.">
<polygon fill="white" stroke="black" points="160.5,-53 160.5,-72 292.5,-72 292.5,-53 160.5,-53"/>
<text text-anchor="middle" x="226.5" y="-60" font-family="Helvetica,sans-Serif" font-size="10.00">T_MESH::Edge::curvature</text>
</a>
</g>
</g>
<!-- Node1&#45;&gt;Node3 -->
<g id="edge2" class="edge">
<title>Node1&#45;&gt;Node3</title>
<path fill="none" stroke="midnightblue" d="M319.69,-62.5C310.63,-62.5 301.5,-62.5 292.7,-62.5"/>
<polygon fill="midnightblue" stroke="midnightblue" points="319.88,-66 329.88,-62.5 319.88,-59 319.88,-66"/>
</g>
<!-- Node5 -->
<g id="node5" class="node">
<title>Node5</title>
<g id="a_node5"><a xlink:href="../../d5/d7f/class_t___m_e_s_h_1_1_vertex.html#a685adc663cc94a713225f8d029322e54" target="_top" xlink:title="Discriminant Angle for triangulating 3D polygons.">
<polygon fill="white" stroke="black" points="159,-2.5 159,-32.5 294,-32.5 294,-2.5 159,-2.5"/>
<text text-anchor="start" x="167" y="-20.5" font-family="Helvetica,sans-Serif" font-size="10.00">T_MESH::Vertex::getAngle</text>
<text text-anchor="middle" x="226.5" y="-9.5" font-family="Helvetica,sans-Serif" font-size="10.00">ForTriangulation</text>
</a>
</g>
</g>
<!-- Node1&#45;&gt;Node5 -->
<g id="edge4" class="edge">
<title>Node1&#45;&gt;Node5</title>
<path fill="none" stroke="midnightblue" d="M356.28,-50.43C334.74,-44.92 309.02,-38.34 286.24,-32.52"/>
<polygon fill="midnightblue" stroke="midnightblue" points="355.62,-53.87 366.17,-52.96 357.35,-47.09 355.62,-53.87"/>
</g>
<!-- Node4 -->
<g id="node4" class="node">
<title>Node4</title>
<g id="a_node4"><a xlink:href="../../d6/d27/class_t___m_e_s_h_1_1_basic___t_mesh.html#a68fa4723b8e20632bbe5a66e714cfc1a" target="_top" xlink:title="Tag sharp edges based on threshold angle. O(N).">
<polygon fill="white" stroke="black" points="0,-49.5 0,-79.5 123,-79.5 123,-49.5 0,-49.5"/>
<text text-anchor="start" x="8" y="-67.5" font-family="Helvetica,sans-Serif" font-size="10.00">T_MESH::Basic_TMesh</text>
<text text-anchor="middle" x="61.5" y="-56.5" font-family="Helvetica,sans-Serif" font-size="10.00">::sharpEdgeTagging</text>
</a>
</g>
</g>
<!-- Node3&#45;&gt;Node4 -->
<g id="edge3" class="edge">
<title>Node3&#45;&gt;Node4</title>
<path fill="none" stroke="midnightblue" d="M150.03,-63.43C141.01,-63.54 131.89,-63.65 123.12,-63.76"/>
<polygon fill="midnightblue" stroke="midnightblue" points="150.18,-66.92 160.14,-63.3 150.1,-59.93 150.18,-66.92"/>
</g>
<!-- Node6 -->
<g id="node6" class="node">
<title>Node6</title>
<g id="a_node6"><a xlink:href="../../d6/d27/class_t___m_e_s_h_1_1_basic___t_mesh.html#affae34779bd3e7f044e4cd2f038950e9" target="_top" xlink:title="Creates a triangulation of the hole based on the assumption that it is flat.">
<polygon fill="white" stroke="black" points="0,-0.5 0,-30.5 123,-30.5 123,-0.5 0,-0.5"/>
<text text-anchor="start" x="8" y="-18.5" font-family="Helvetica,sans-Serif" font-size="10.00">T_MESH::Basic_TMesh</text>
<text text-anchor="middle" x="61.5" y="-7.5" font-family="Helvetica,sans-Serif" font-size="10.00">::TriangulateHole</text>
</a>
</g>
</g>
<!-- Node5&#45;&gt;Node6 -->
<g id="edge5" class="edge">
<title>Node5&#45;&gt;Node6</title>
<path fill="none" stroke="midnightblue" d="M148.71,-16.56C140.13,-16.45 131.48,-16.35 123.14,-16.24"/>
<polygon fill="midnightblue" stroke="midnightblue" points="148.69,-20.06 158.73,-16.68 148.78,-13.06 148.69,-20.06"/>
</g>
</g>
</svg>
