<?xml version="1.0" encoding="UTF-8" standalone="no"?>
<!DOCTYPE svg PUBLIC "-//W3C//DTD SVG 1.1//EN"
 "http://www.w3.org/Graphics/SVG/1.1/DTD/svg11.dtd">
<!-- Generated by graphviz version 2.44.1 (0)
 -->
<!-- Title: T_MESH::Triangle::leftTriangle Pages: 1 -->
<svg width="507pt" height="104pt"
 viewBox="0.00 0.00 507.00 104.00" xmlns="http://www.w3.org/2000/svg" xmlns:xlink="http://www.w3.org/1999/xlink">
<g id="graph0" class="graph" transform="scale(1 1) rotate(0) translate(4 100)">
<title>T_MESH::Triangle::leftTriangle</title>
<polygon fill="white" stroke="transparent" points="-4,4 -4,-100 503,-100 503,4 -4,4"/>
<!-- Node1 -->
<g id="node1" class="node">
<title>Node1</title>
<g id="a_node1"><a xlink:title="Triangle adjacent to the previous edge of &#39;e&#39;. NULL if &#39;e&#39; is not an edge of the triangle.">
<polygon fill="#bfbfbf" stroke="black" points="0,-38.5 0,-57.5 152,-57.5 152,-38.5 0,-38.5"/>
<text text-anchor="middle" x="76" y="-45.5" font-family="Helvetica,sans-Serif" font-size="10.00">T_MESH::Triangle::leftTriangle</text>
</a>
</g>
</g>
<!-- Node2 -->
<g id="node2" class="node">
<title>Node2</title>
<g id="a_node2"><a xlink:href="../../d8/d6e/class_t___m_e_s_h_1_1_triangle.html#ad0c49113ef7f52e4a86959eaafc7baf9" target="_top" xlink:title="First adjacent triangle. NULL if boundary.">
<polygon fill="white" stroke="black" points="188,-76.5 188,-95.5 300,-95.5 300,-76.5 188,-76.5"/>
<text text-anchor="middle" x="244" y="-83.5" font-family="Helvetica,sans-Serif" font-size="10.00">T_MESH::Triangle::t1</text>
</a>
</g>
</g>
<!-- Node1&#45;&gt;Node2 -->
<g id="edge1" class="edge">
<title>Node1&#45;&gt;Node2</title>
<path fill="none" stroke="midnightblue" d="M118.89,-57.59C140.89,-62.63 168.05,-68.84 191.35,-74.18"/>
<polygon fill="midnightblue" stroke="midnightblue" points="190.88,-77.66 201.41,-76.48 192.45,-70.84 190.88,-77.66"/>
</g>
<!-- Node4 -->
<g id="node4" class="node">
<title>Node4</title>
<g id="a_node4"><a xlink:href="../../d8/d6e/class_t___m_e_s_h_1_1_triangle.html#a2511453b48f8c042e7aac67da3fff129" target="_top" xlink:title="Second adjacent triangle. NULL if boundary.">
<polygon fill="white" stroke="black" points="188,-38.5 188,-57.5 300,-57.5 300,-38.5 188,-38.5"/>
<text text-anchor="middle" x="244" y="-45.5" font-family="Helvetica,sans-Serif" font-size="10.00">T_MESH::Triangle::t2</text>
</a>
</g>
</g>
<!-- Node1&#45;&gt;Node4 -->
<g id="edge3" class="edge">
<title>Node1&#45;&gt;Node4</title>
<path fill="none" stroke="midnightblue" d="M152.23,-48C160.77,-48 169.42,-48 177.81,-48"/>
<polygon fill="midnightblue" stroke="midnightblue" points="177.9,-51.5 187.9,-48 177.9,-44.5 177.9,-51.5"/>
</g>
<!-- Node5 -->
<g id="node5" class="node">
<title>Node5</title>
<g id="a_node5"><a xlink:href="../../d8/d6e/class_t___m_e_s_h_1_1_triangle.html#a4383009f2e92ec1445cfdee5c3fa14e4" target="_top" xlink:title="Third adjacent triangle. NULL if boundary.">
<polygon fill="white" stroke="black" points="188,-0.5 188,-19.5 300,-19.5 300,-0.5 188,-0.5"/>
<text text-anchor="middle" x="244" y="-7.5" font-family="Helvetica,sans-Serif" font-size="10.00">T_MESH::Triangle::t3</text>
</a>
</g>
</g>
<!-- Node1&#45;&gt;Node5 -->
<g id="edge5" class="edge">
<title>Node1&#45;&gt;Node5</title>
<path fill="none" stroke="midnightblue" d="M118.89,-38.41C140.89,-33.37 168.05,-27.16 191.35,-21.82"/>
<polygon fill="midnightblue" stroke="midnightblue" points="192.45,-25.16 201.41,-19.52 190.88,-18.34 192.45,-25.16"/>
</g>
<!-- Node3 -->
<g id="node3" class="node">
<title>Node3</title>
<g id="a_node3"><a xlink:href="../../da/da2/class_t___m_e_s_h_1_1_edge.html#a295cf6f1ac996ea5e760c2bbd590c513" target="_top" xlink:title="Incident triangle opposite to &#39;t&#39;. NULL if &#39;t&#39; is not incident to the edge.">
<polygon fill="white" stroke="black" points="336,-38.5 336,-57.5 499,-57.5 499,-38.5 336,-38.5"/>
<text text-anchor="middle" x="417.5" y="-45.5" font-family="Helvetica,sans-Serif" font-size="10.00">T_MESH::Edge::oppositeTriangle</text>
</a>
</g>
</g>
<!-- Node2&#45;&gt;Node3 -->
<g id="edge2" class="edge">
<title>Node2&#45;&gt;Node3</title>
<path fill="none" stroke="midnightblue" d="M288.28,-76.41C311.11,-71.35 339.32,-65.1 363.46,-59.75"/>
<polygon fill="midnightblue" stroke="midnightblue" points="364.53,-63.1 373.53,-57.52 363.01,-56.27 364.53,-63.1"/>
</g>
<!-- Node4&#45;&gt;Node3 -->
<g id="edge4" class="edge">
<title>Node4&#45;&gt;Node3</title>
<path fill="none" stroke="midnightblue" d="M300.21,-48C308.37,-48 316.96,-48 325.62,-48"/>
<polygon fill="midnightblue" stroke="midnightblue" points="325.8,-51.5 335.8,-48 325.8,-44.5 325.8,-51.5"/>
</g>
<!-- Node5&#45;&gt;Node3 -->
<g id="edge6" class="edge">
<title>Node5&#45;&gt;Node3</title>
<path fill="none" stroke="midnightblue" d="M288.28,-19.59C311.11,-24.65 339.32,-30.9 363.46,-36.25"/>
<polygon fill="midnightblue" stroke="midnightblue" points="363.01,-39.73 373.53,-38.48 364.53,-32.9 363.01,-39.73"/>
</g>
</g>
</svg>
