<?xml version="1.0" encoding="UTF-8" standalone="no"?>
<!DOCTYPE svg PUBLIC "-//W3C//DTD SVG 1.1//EN"
 "http://www.w3.org/Graphics/SVG/1.1/DTD/svg11.dtd">
<!-- Generated by graphviz version 2.44.1 (0)
 -->
<!-- Title: T_MESH::Triangle::getNormal Pages: 1 -->
<svg width="1215pt" height="633pt"
 viewBox="0.00 0.00 1215.00 633.00" xmlns="http://www.w3.org/2000/svg" xmlns:xlink="http://www.w3.org/1999/xlink">
<g id="graph0" class="graph" transform="scale(1 1) rotate(0) translate(4 629)">
<title>T_MESH::Triangle::getNormal</title>
<polygon fill="white" stroke="transparent" points="-4,4 -4,-629 1211,-629 1211,4 -4,4"/>
<!-- Node1 -->
<g id="node1" class="node">
<title>Node1</title>
<g id="a_node1"><a xlink:title="Return a normal vector with direction (v1&#45;v2) cross (v2&#45;v3). If triangle is degenerate return a null ...">
<polygon fill="#bfbfbf" stroke="black" points="1058,-431 1058,-450 1207,-450 1207,-431 1058,-431"/>
<text text-anchor="middle" x="1132.5" y="-438" font-family="Helvetica,sans-Serif" font-size="10.00">T_MESH::Triangle::getNormal</text>
</a>
</g>
</g>
<!-- Node2 -->
<g id="node2" class="node">
<title>Node2</title>
<g id="a_node2"><a xlink:href="../../da/da2/class_t___m_e_s_h_1_1_edge.html#a03d6770b7e450fbaf9070cf4689ffb2f" target="_top" xlink:title="Dihedral angle at the edge.">
<polygon fill="white" stroke="black" points="872,-600 872,-619 1022,-619 1022,-600 872,-600"/>
<text text-anchor="middle" x="947" y="-607" font-family="Helvetica,sans-Serif" font-size="10.00">T_MESH::Edge::dihedralAngle</text>
</a>
</g>
</g>
<!-- Node1&#45;&gt;Node2 -->
<g id="edge1" class="edge">
<title>Node1&#45;&gt;Node2</title>
<path fill="none" stroke="midnightblue" d="M1122.97,-459.59C1107.59,-491.75 1072.09,-556.54 1022,-590.5 1016.29,-594.37 1009.85,-597.45 1003.2,-599.91"/>
<polygon fill="midnightblue" stroke="midnightblue" points="1126.21,-460.92 1127.25,-450.37 1119.86,-457.97 1126.21,-460.92"/>
</g>
<!-- Node4 -->
<g id="node4" class="node">
<title>Node4</title>
<g id="a_node4"><a xlink:href="../../da/da2/class_t___m_e_s_h_1_1_edge.html#aa346a946670643c160483695ffd53608" target="_top" xlink:title="Return the normal at the edge as the average of the normals of the two incident triangles.">
<polygon fill="white" stroke="black" points="878.5,-562 878.5,-581 1015.5,-581 1015.5,-562 878.5,-562"/>
<text text-anchor="middle" x="947" y="-569" font-family="Helvetica,sans-Serif" font-size="10.00">T_MESH::Edge::getNormal</text>
</a>
</g>
</g>
<!-- Node1&#45;&gt;Node4 -->
<g id="edge3" class="edge">
<title>Node1&#45;&gt;Node4</title>
<path fill="none" stroke="midnightblue" d="M1119.18,-458.19C1100.89,-483.08 1064.15,-528.14 1022,-552.5 1015.34,-556.35 1007.9,-559.43 1000.37,-561.89"/>
<polygon fill="midnightblue" stroke="midnightblue" points="1122.07,-460.16 1125.06,-450 1116.39,-456.08 1122.07,-460.16"/>
</g>
<!-- Node5 -->
<g id="node5" class="node">
<title>Node5</title>
<g id="a_node5"><a xlink:href="../../d5/d7f/class_t___m_e_s_h_1_1_vertex.html#ab1b8b908e7dd7b5ef141c4374e81ce9f" target="_top" xlink:title="Normal at the vertex computed as the sum of incident triangle normals weighted on their incidence ang...">
<polygon fill="white" stroke="black" points="876,-524 876,-543 1018,-543 1018,-524 876,-524"/>
<text text-anchor="middle" x="947" y="-531" font-family="Helvetica,sans-Serif" font-size="10.00">T_MESH::Vertex::getNormal</text>
</a>
</g>
</g>
<!-- Node1&#45;&gt;Node5 -->
<g id="edge4" class="edge">
<title>Node1&#45;&gt;Node5</title>
<path fill="none" stroke="midnightblue" d="M1112.33,-456.48C1091.38,-473.2 1056.21,-499.11 1022,-514.5 1013.65,-518.26 1004.43,-521.37 995.41,-523.91"/>
<polygon fill="midnightblue" stroke="midnightblue" points="1114.58,-459.16 1120.15,-450.14 1110.17,-453.73 1114.58,-459.16"/>
</g>
<!-- Node7 -->
<g id="node7" class="node">
<title>Node7</title>
<g id="a_node7"><a xlink:href="../../d6/d27/class_t___m_e_s_h_1_1_basic___t_mesh.html#a4e21f75df1c237f565bf232e0cd73b74" target="_top" xlink:title="Iteratively swaps edges to minimize the Delaunay minimum angle. O(N).">
<polygon fill="white" stroke="black" points="885.5,-474.5 885.5,-504.5 1008.5,-504.5 1008.5,-474.5 885.5,-474.5"/>
<text text-anchor="start" x="893.5" y="-492.5" font-family="Helvetica,sans-Serif" font-size="10.00">T_MESH::Basic_TMesh</text>
<text text-anchor="middle" x="947" y="-481.5" font-family="Helvetica,sans-Serif" font-size="10.00">::iterativeEdgeSwaps</text>
</a>
</g>
</g>
<!-- Node1&#45;&gt;Node7 -->
<g id="edge6" class="edge">
<title>Node1&#45;&gt;Node7</title>
<path fill="none" stroke="midnightblue" d="M1085.85,-452.69C1061.17,-459.28 1030.47,-467.48 1004.31,-474.46"/>
<polygon fill="midnightblue" stroke="midnightblue" points="1086.93,-456.03 1095.68,-450.06 1085.12,-449.26 1086.93,-456.03"/>
</g>
<!-- Node8 -->
<g id="node8" class="node">
<title>Node8</title>
<g id="a_node8"><a xlink:href="../../d6/d27/class_t___m_e_s_h_1_1_basic___t_mesh.html#a11e0d5c044e95b01e3cc8beb77c60f8f" target="_top" xlink:title="Re&#45;triangulates the currently selected region using a Delaunay&#45;like approach. O(SlogS).">
<polygon fill="white" stroke="black" points="874.5,-425.5 874.5,-455.5 1019.5,-455.5 1019.5,-425.5 874.5,-425.5"/>
<text text-anchor="start" x="882.5" y="-443.5" font-family="Helvetica,sans-Serif" font-size="10.00">T_MESH::Basic_TMesh</text>
<text text-anchor="middle" x="947" y="-432.5" font-family="Helvetica,sans-Serif" font-size="10.00">::retriangulateSelectedRegion</text>
</a>
</g>
</g>
<!-- Node1&#45;&gt;Node8 -->
<g id="edge7" class="edge">
<title>Node1&#45;&gt;Node8</title>
<path fill="none" stroke="midnightblue" d="M1047.75,-440.5C1038.31,-440.5 1028.76,-440.5 1019.51,-440.5"/>
<polygon fill="midnightblue" stroke="midnightblue" points="1047.92,-444 1057.92,-440.5 1047.92,-437 1047.92,-444"/>
</g>
<!-- Node9 -->
<g id="node9" class="node">
<title>Node9</title>
<g id="a_node9"><a xlink:href="../../d6/d27/class_t___m_e_s_h_1_1_basic___t_mesh.html#a6c419b3b7ebd44fca9fdc7a048ff7b52" target="_top" xlink:title="Retriangulates the vertex neghborhood based on heuristics.">
<polygon fill="white" stroke="black" points="885.5,-376.5 885.5,-406.5 1008.5,-406.5 1008.5,-376.5 885.5,-376.5"/>
<text text-anchor="start" x="893.5" y="-394.5" font-family="Helvetica,sans-Serif" font-size="10.00">T_MESH::Basic_TMesh</text>
<text text-anchor="middle" x="947" y="-383.5" font-family="Helvetica,sans-Serif" font-size="10.00">::retriangulateVT</text>
</a>
</g>
</g>
<!-- Node1&#45;&gt;Node9 -->
<g id="edge8" class="edge">
<title>Node1&#45;&gt;Node9</title>
<path fill="none" stroke="midnightblue" d="M1085.85,-428.31C1061.17,-421.72 1030.47,-413.52 1004.31,-406.54"/>
<polygon fill="midnightblue" stroke="midnightblue" points="1085.12,-431.74 1095.68,-430.94 1086.93,-424.97 1085.12,-431.74"/>
</g>
<!-- Node10 -->
<g id="node10" class="node">
<title>Node10</title>
<g id="a_node10"><a xlink:href="../../d6/d27/class_t___m_e_s_h_1_1_basic___t_mesh.html#a3fbae0dc3166e1e73b08ee03c59983a8" target="_top" xlink:title="Saves STL.">
<polygon fill="white" stroke="black" points="885.5,-327.5 885.5,-357.5 1008.5,-357.5 1008.5,-327.5 885.5,-327.5"/>
<text text-anchor="start" x="893.5" y="-345.5" font-family="Helvetica,sans-Serif" font-size="10.00">T_MESH::Basic_TMesh</text>
<text text-anchor="middle" x="947" y="-334.5" font-family="Helvetica,sans-Serif" font-size="10.00">::saveSTL</text>
</a>
</g>
</g>
<!-- Node1&#45;&gt;Node10 -->
<g id="edge9" class="edge">
<title>Node1&#45;&gt;Node10</title>
<path fill="none" stroke="midnightblue" d="M1111.38,-424.72C1090.12,-408.64 1055.16,-383.8 1022,-367.5 1014.58,-363.85 1006.49,-360.52 998.48,-357.57"/>
<polygon fill="midnightblue" stroke="midnightblue" points="1109.27,-427.52 1119.34,-430.83 1113.53,-421.96 1109.27,-427.52"/>
</g>
<!-- Node29 -->
<g id="node29" class="node">
<title>Node29</title>
<g id="a_node29"><a xlink:href="../../d6/d27/class_t___m_e_s_h_1_1_basic___t_mesh.html#a9f904aaedce6c3de9689f8d8106507bc" target="_top" xlink:title="Return the triangle with the maximum &#39;z&#39; coordinate in the shell containing &#39;t0&#39;. O(N).">
<polygon fill="white" stroke="black" points="885.5,-278.5 885.5,-308.5 1008.5,-308.5 1008.5,-278.5 885.5,-278.5"/>
<text text-anchor="start" x="893.5" y="-296.5" font-family="Helvetica,sans-Serif" font-size="10.00">T_MESH::Basic_TMesh</text>
<text text-anchor="middle" x="947" y="-285.5" font-family="Helvetica,sans-Serif" font-size="10.00">::topTriangle</text>
</a>
</g>
</g>
<!-- Node1&#45;&gt;Node29 -->
<g id="edge36" class="edge">
<title>Node1&#45;&gt;Node29</title>
<path fill="none" stroke="midnightblue" d="M1119.8,-422.39C1101.82,-395.93 1064.94,-346.79 1022,-318.5 1016.22,-314.7 1009.81,-311.41 1003.25,-308.6"/>
<polygon fill="midnightblue" stroke="midnightblue" points="1116.89,-424.34 1125.35,-430.73 1122.72,-420.46 1116.89,-424.34"/>
</g>
<!-- Node30 -->
<g id="node30" class="node">
<title>Node30</title>
<g id="a_node30"><a xlink:href="../../d6/d27/class_t___m_e_s_h_1_1_basic___t_mesh.html#a806804866bb7e55b952446133fd9567b" target="_top" xlink:title="Total volume of the mesh assuming that boundaries() = 0. O(N).">
<polygon fill="white" stroke="black" points="885.5,-229.5 885.5,-259.5 1008.5,-259.5 1008.5,-229.5 885.5,-229.5"/>
<text text-anchor="start" x="893.5" y="-247.5" font-family="Helvetica,sans-Serif" font-size="10.00">T_MESH::Basic_TMesh</text>
<text text-anchor="middle" x="947" y="-236.5" font-family="Helvetica,sans-Serif" font-size="10.00">::volume</text>
</a>
</g>
</g>
<!-- Node1&#45;&gt;Node30 -->
<g id="edge37" class="edge">
<title>Node1&#45;&gt;Node30</title>
<path fill="none" stroke="midnightblue" d="M1124.22,-421.17C1109.97,-385.92 1075.11,-311.02 1022,-269.5 1017.09,-265.66 1011.55,-262.39 1005.77,-259.61"/>
<polygon fill="midnightblue" stroke="midnightblue" points="1121.06,-422.72 1127.97,-430.75 1127.58,-420.17 1121.06,-422.72"/>
</g>
<!-- Node3 -->
<g id="node3" class="node">
<title>Node3</title>
<g id="a_node3"><a xlink:href="../../d5/d7f/class_t___m_e_s_h_1_1_vertex.html#a8bd2f4abef22ff4b6544bff46c17167f" target="_top" xlink:title="Sum of signed dihedral angles. Returns DBL_MAX if on boundary.">
<polygon fill="white" stroke="black" points="684,-594.5 684,-624.5 836,-624.5 836,-594.5 684,-594.5"/>
<text text-anchor="start" x="692" y="-612.5" font-family="Helvetica,sans-Serif" font-size="10.00">T_MESH::Vertex::totalDihedral</text>
<text text-anchor="middle" x="760" y="-601.5" font-family="Helvetica,sans-Serif" font-size="10.00">Angle</text>
</a>
</g>
</g>
<!-- Node2&#45;&gt;Node3 -->
<g id="edge2" class="edge">
<title>Node2&#45;&gt;Node3</title>
<path fill="none" stroke="midnightblue" d="M861.82,-609.5C853.24,-609.5 844.57,-609.5 836.1,-609.5"/>
<polygon fill="midnightblue" stroke="midnightblue" points="861.82,-613 871.82,-609.5 861.82,-606 861.82,-613"/>
</g>
<!-- Node6 -->
<g id="node6" class="node">
<title>Node6</title>
<g id="a_node6"><a xlink:href="../../d6/d27/class_t___m_e_s_h_1_1_basic___t_mesh.html#aeee5df0f56276202cb41254b08ea07ac" target="_top" xlink:title="Randomly move vertices along their normals.">
<polygon fill="white" stroke="black" points="698.5,-518.5 698.5,-548.5 821.5,-548.5 821.5,-518.5 698.5,-518.5"/>
<text text-anchor="start" x="706.5" y="-536.5" font-family="Helvetica,sans-Serif" font-size="10.00">T_MESH::Basic_TMesh</text>
<text text-anchor="middle" x="760" y="-525.5" font-family="Helvetica,sans-Serif" font-size="10.00">::addNormalNoise</text>
</a>
</g>
</g>
<!-- Node5&#45;&gt;Node6 -->
<g id="edge5" class="edge">
<title>Node5&#45;&gt;Node6</title>
<path fill="none" stroke="midnightblue" d="M865.69,-533.5C850.96,-533.5 835.82,-533.5 821.78,-533.5"/>
<polygon fill="midnightblue" stroke="midnightblue" points="865.8,-537 875.8,-533.5 865.8,-530 865.8,-537"/>
</g>
<!-- Node11 -->
<g id="node11" class="node">
<title>Node11</title>
<g id="a_node11"><a xlink:href="../../d6/d27/class_t___m_e_s_h_1_1_basic___t_mesh.html#a8f74c0f20990a21392dab76e878695ae" target="_top" xlink:title="Save the triangle mesh to file &#39;filename&#39;.">
<polygon fill="white" stroke="black" points="698.5,-327.5 698.5,-357.5 821.5,-357.5 821.5,-327.5 698.5,-327.5"/>
<text text-anchor="start" x="706.5" y="-345.5" font-family="Helvetica,sans-Serif" font-size="10.00">T_MESH::Basic_TMesh</text>
<text text-anchor="middle" x="760" y="-334.5" font-family="Helvetica,sans-Serif" font-size="10.00">::save</text>
</a>
</g>
</g>
<!-- Node10&#45;&gt;Node11 -->
<g id="edge10" class="edge">
<title>Node10&#45;&gt;Node11</title>
<path fill="none" stroke="midnightblue" d="M875.19,-342.5C857.56,-342.5 838.81,-342.5 821.71,-342.5"/>
<polygon fill="midnightblue" stroke="midnightblue" points="875.42,-346 885.42,-342.5 875.42,-339 875.42,-346"/>
</g>
<!-- Node12 -->
<g id="node12" class="node">
<title>Node12</title>
<g id="a_node12"><a xlink:href="../../d2/d68/class_export_open_scad_tool.html#a6e48e9b58a764bc8032b1fbc4082603d" target="_top" xlink:title=" ">
<polygon fill="white" stroke="black" points="533,-371.5 533,-401.5 642,-401.5 642,-371.5 533,-371.5"/>
<text text-anchor="start" x="541" y="-389.5" font-family="Helvetica,sans-Serif" font-size="10.00">ExportOpenScadTool</text>
<text text-anchor="middle" x="587.5" y="-378.5" font-family="Helvetica,sans-Serif" font-size="10.00">::fixMesh</text>
</a>
</g>
</g>
<!-- Node11&#45;&gt;Node12 -->
<g id="edge11" class="edge">
<title>Node11&#45;&gt;Node12</title>
<path fill="none" stroke="midnightblue" d="M690.85,-360.09C674.64,-364.27 657.58,-368.67 642.14,-372.66"/>
<polygon fill="midnightblue" stroke="midnightblue" points="691.99,-363.41 700.8,-357.52 690.24,-356.63 691.99,-363.41"/>
</g>
<!-- Node17 -->
<g id="node17" class="node">
<title>Node17</title>
<g id="a_node17"><a xlink:href="../../dd/d00/class_export_s_t_l_tool.html#a82d1e11c365c1ed2adf6d831b7f6014f" target="_top" xlink:title=" ">
<polygon fill="white" stroke="black" points="527,-333 527,-352 648,-352 648,-333 527,-333"/>
<text text-anchor="middle" x="587.5" y="-340" font-family="Helvetica,sans-Serif" font-size="10.00">ExportSTLTool::fixMesh</text>
</a>
</g>
</g>
<!-- Node11&#45;&gt;Node17 -->
<g id="edge18" class="edge">
<title>Node11&#45;&gt;Node17</title>
<path fill="none" stroke="midnightblue" d="M688.29,-342.5C674.91,-342.5 661.03,-342.5 648.04,-342.5"/>
<polygon fill="midnightblue" stroke="midnightblue" points="688.41,-346 698.41,-342.5 688.41,-339 688.41,-346"/>
</g>
<!-- Node19 -->
<g id="node19" class="node">
<title>Node19</title>
<g id="a_node19"><a xlink:href="../../d9/dc6/class_main_window.html#a15f9fa9fe71b50669ecf5f5a3a1ce90e" target="_top" xlink:title="Import STL / OBJ mesh into the scene.">
<polygon fill="white" stroke="black" points="527,-178 527,-197 648,-197 648,-178 527,-178"/>
<text text-anchor="middle" x="587.5" y="-185" font-family="Helvetica,sans-Serif" font-size="10.00">MainWindow::loadMesh</text>
</a>
</g>
</g>
<!-- Node11&#45;&gt;Node19 -->
<g id="edge20" class="edge">
<title>Node11&#45;&gt;Node19</title>
<path fill="none" stroke="midnightblue" d="M734.83,-320.53C697.11,-286.24 625.81,-221.41 599.02,-197.06"/>
<polygon fill="midnightblue" stroke="midnightblue" points="732.59,-323.22 742.34,-327.36 737.3,-318.04 732.59,-323.22"/>
</g>
<!-- Node13 -->
<g id="node13" class="node">
<title>Node13</title>
<g id="a_node13"><a xlink:href="../../d2/d68/class_export_open_scad_tool.html#a2e36901501e307b74705aa84f4227d67" target="_top" xlink:title="Export the wiring in the openscad format.">
<polygon fill="white" stroke="black" points="362,-371.5 362,-401.5 471,-401.5 471,-371.5 362,-371.5"/>
<text text-anchor="start" x="370" y="-389.5" font-family="Helvetica,sans-Serif" font-size="10.00">ExportOpenScadTool</text>
<text text-anchor="middle" x="416.5" y="-378.5" font-family="Helvetica,sans-Serif" font-size="10.00">::writeWiring</text>
</a>
</g>
</g>
<!-- Node12&#45;&gt;Node13 -->
<g id="edge12" class="edge">
<title>Node12&#45;&gt;Node13</title>
<path fill="none" stroke="midnightblue" d="M522.25,-386.5C505.42,-386.5 487.44,-386.5 471.21,-386.5"/>
<polygon fill="midnightblue" stroke="midnightblue" points="522.56,-390 532.56,-386.5 522.56,-383 522.56,-390"/>
</g>
<!-- Node14 -->
<g id="node14" class="node">
<title>Node14</title>
<g id="a_node14"><a xlink:href="../../d2/d68/class_export_open_scad_tool.html#a71ef67a238fb9cd74563b65d77c1ea73" target="_top" xlink:title=" ">
<polygon fill="white" stroke="black" points="13,-371.5 13,-401.5 122,-401.5 122,-371.5 13,-371.5"/>
<text text-anchor="start" x="21" y="-389.5" font-family="Helvetica,sans-Serif" font-size="10.00">ExportOpenScadTool</text>
<text text-anchor="middle" x="67.5" y="-378.5" font-family="Helvetica,sans-Serif" font-size="10.00">::execute</text>
</a>
</g>
</g>
<!-- Node13&#45;&gt;Node14 -->
<g id="edge13" class="edge">
<title>Node13&#45;&gt;Node14</title>
<path fill="none" stroke="midnightblue" d="M351.75,-403.59C336.85,-406.87 320.96,-409.81 306,-411.5 246.38,-418.22 230.57,-418.66 171,-411.5 154.09,-409.47 135.94,-405.61 119.68,-401.53"/>
<polygon fill="midnightblue" stroke="midnightblue" points="352.92,-406.91 361.89,-401.27 351.36,-400.08 352.92,-406.91"/>
</g>
<!-- Node15 -->
<g id="node15" class="node">
<title>Node15</title>
<g id="a_node15"><a xlink:href="../../d2/d68/class_export_open_scad_tool.html#a9c35cf64ece9ee328df6ebfd080c0689" target="_top" xlink:title="Export the meshdifference between mesh and wiring in the openscad format.">
<polygon fill="white" stroke="black" points="184,-371.5 184,-401.5 293,-401.5 293,-371.5 184,-371.5"/>
<text text-anchor="start" x="192" y="-389.5" font-family="Helvetica,sans-Serif" font-size="10.00">ExportOpenScadTool</text>
<text text-anchor="middle" x="238.5" y="-378.5" font-family="Helvetica,sans-Serif" font-size="10.00">::writeDifference</text>
</a>
</g>
</g>
<!-- Node13&#45;&gt;Node15 -->
<g id="edge14" class="edge">
<title>Node13&#45;&gt;Node15</title>
<path fill="none" stroke="midnightblue" d="M351.6,-386.5C332.45,-386.5 311.66,-386.5 293.24,-386.5"/>
<polygon fill="midnightblue" stroke="midnightblue" points="351.74,-390 361.74,-386.5 351.74,-383 351.74,-390"/>
</g>
<!-- Node16 -->
<g id="node16" class="node">
<title>Node16</title>
<g id="a_node16"><a xlink:href="../../d2/d68/class_export_open_scad_tool.html#adc9cf506ecd2ef6e33f37f2eb206da1a" target="_top" xlink:title="Export the meshdifference between mesh and magnets in the openscad format.">
<polygon fill="white" stroke="black" points="176,-322.5 176,-352.5 301,-352.5 301,-322.5 176,-322.5"/>
<text text-anchor="start" x="184" y="-340.5" font-family="Helvetica,sans-Serif" font-size="10.00">ExportOpenScadTool</text>
<text text-anchor="middle" x="238.5" y="-329.5" font-family="Helvetica,sans-Serif" font-size="10.00">::writeDifferenceMagnets</text>
</a>
</g>
</g>
<!-- Node13&#45;&gt;Node16 -->
<g id="edge16" class="edge">
<title>Node13&#45;&gt;Node16</title>
<path fill="none" stroke="midnightblue" d="M351.91,-368.8C332.78,-363.47 311.99,-357.68 293.54,-352.55"/>
<polygon fill="midnightblue" stroke="midnightblue" points="351.17,-372.22 361.74,-371.53 353.04,-365.48 351.17,-372.22"/>
</g>
<!-- Node15&#45;&gt;Node14 -->
<g id="edge15" class="edge">
<title>Node15&#45;&gt;Node14</title>
<path fill="none" stroke="midnightblue" d="M173.25,-386.5C156.42,-386.5 138.44,-386.5 122.21,-386.5"/>
<polygon fill="midnightblue" stroke="midnightblue" points="173.56,-390 183.56,-386.5 173.56,-383 173.56,-390"/>
</g>
<!-- Node16&#45;&gt;Node14 -->
<g id="edge17" class="edge">
<title>Node16&#45;&gt;Node14</title>
<path fill="none" stroke="midnightblue" d="M175.78,-355.39C157.61,-360.66 137.91,-366.38 120.41,-371.45"/>
<polygon fill="midnightblue" stroke="midnightblue" points="176.79,-358.75 185.42,-352.6 174.84,-352.02 176.79,-358.75"/>
</g>
<!-- Node18 -->
<g id="node18" class="node">
<title>Node18</title>
<g id="a_node18"><a xlink:href="../../dd/d00/class_export_s_t_l_tool.html#a218420198ac8fef5b9f9a8acc889307d" target="_top" xlink:title=" ">
<polygon fill="white" stroke="black" points="356,-333 356,-352 477,-352 477,-333 356,-333"/>
<text text-anchor="middle" x="416.5" y="-340" font-family="Helvetica,sans-Serif" font-size="10.00">ExportSTLTool::execute</text>
</a>
</g>
</g>
<!-- Node17&#45;&gt;Node18 -->
<g id="edge19" class="edge">
<title>Node17&#45;&gt;Node18</title>
<path fill="none" stroke="midnightblue" d="M516.54,-342.5C503.44,-342.5 489.86,-342.5 477.11,-342.5"/>
<polygon fill="midnightblue" stroke="midnightblue" points="516.92,-346 526.92,-342.5 516.92,-339 516.92,-346"/>
</g>
<!-- Node20 -->
<g id="node20" class="node">
<title>Node20</title>
<g id="a_node20"><a xlink:href="../../d9/dc6/class_main_window.html#a6e3c9bc26115fb1b1664607e58716641" target="_top" xlink:title=" ">
<polygon fill="white" stroke="black" points="343.5,-295 343.5,-314 489.5,-314 489.5,-295 343.5,-295"/>
<text text-anchor="middle" x="416.5" y="-302" font-family="Helvetica,sans-Serif" font-size="10.00">MainWindow::slotImportMesh</text>
</a>
</g>
</g>
<!-- Node19&#45;&gt;Node20 -->
<g id="edge21" class="edge">
<title>Node19&#45;&gt;Node20</title>
<path fill="none" stroke="midnightblue" d="M573.89,-205.5C557.4,-227.69 526.4,-264.97 491,-285.5 484.27,-289.4 476.74,-292.51 469.14,-294.99"/>
<polygon fill="midnightblue" stroke="midnightblue" points="576.82,-207.43 579.86,-197.28 571.16,-203.32 576.82,-207.43"/>
</g>
<!-- Node23 -->
<g id="node23" class="node">
<title>Node23</title>
<g id="a_node23"><a xlink:href="../../d9/dc6/class_main_window.html#a46bb2fea8ddeab75e15a223c291116b6" target="_top" xlink:title=" ">
<polygon fill="white" stroke="black" points="342,-245.5 342,-275.5 491,-275.5 491,-245.5 342,-245.5"/>
<text text-anchor="start" x="350" y="-263.5" font-family="Helvetica,sans-Serif" font-size="10.00">MainWindow::slotOptimization</text>
<text text-anchor="middle" x="416.5" y="-252.5" font-family="Helvetica,sans-Serif" font-size="10.00">BenchmarkBunnyLowPoly</text>
</a>
</g>
</g>
<!-- Node19&#45;&gt;Node23 -->
<g id="edge24" class="edge">
<title>Node19&#45;&gt;Node23</title>
<path fill="none" stroke="midnightblue" d="M560.74,-202.13C541.82,-212.52 515.28,-226.38 491,-236.5 483.44,-239.65 475.31,-242.66 467.31,-245.42"/>
<polygon fill="midnightblue" stroke="midnightblue" points="562.59,-205.1 569.64,-197.19 559.19,-198.98 562.59,-205.1"/>
</g>
<!-- Node24 -->
<g id="node24" class="node">
<title>Node24</title>
<g id="a_node24"><a xlink:href="../../d9/dc6/class_main_window.html#affed0fab82fd390e2762933c6dca9124" target="_top" xlink:title=" ">
<polygon fill="white" stroke="black" points="342,-196.5 342,-226.5 491,-226.5 491,-196.5 342,-196.5"/>
<text text-anchor="start" x="350" y="-214.5" font-family="Helvetica,sans-Serif" font-size="10.00">MainWindow::slotOptimization</text>
<text text-anchor="middle" x="416.5" y="-203.5" font-family="Helvetica,sans-Serif" font-size="10.00">BenchmarkCorona</text>
</a>
</g>
</g>
<!-- Node19&#45;&gt;Node24 -->
<g id="edge26" class="edge">
<title>Node19&#45;&gt;Node24</title>
<path fill="none" stroke="midnightblue" d="M516.99,-197.37C508.44,-198.59 499.67,-199.83 491.06,-201.05"/>
<polygon fill="midnightblue" stroke="midnightblue" points="517.51,-200.83 526.92,-195.96 516.52,-193.9 517.51,-200.83"/>
</g>
<!-- Node25 -->
<g id="node25" class="node">
<title>Node25</title>
<g id="a_node25"><a xlink:href="../../d9/dc6/class_main_window.html#adfdb8fcb8685844e8ce11bfb41b83b7d" target="_top" xlink:title=" ">
<polygon fill="white" stroke="black" points="342,-147.5 342,-177.5 491,-177.5 491,-147.5 342,-147.5"/>
<text text-anchor="start" x="350" y="-165.5" font-family="Helvetica,sans-Serif" font-size="10.00">MainWindow::slotOptimization</text>
<text text-anchor="middle" x="416.5" y="-154.5" font-family="Helvetica,sans-Serif" font-size="10.00">BenchmarkCthulhu</text>
</a>
</g>
</g>
<!-- Node19&#45;&gt;Node25 -->
<g id="edge28" class="edge">
<title>Node19&#45;&gt;Node25</title>
<path fill="none" stroke="midnightblue" d="M516.99,-177.22C508.44,-175.95 499.67,-174.66 491.06,-173.38"/>
<polygon fill="midnightblue" stroke="midnightblue" points="516.51,-180.68 526.92,-178.69 517.54,-173.76 516.51,-180.68"/>
</g>
<!-- Node26 -->
<g id="node26" class="node">
<title>Node26</title>
<g id="a_node26"><a xlink:href="../../d9/dc6/class_main_window.html#a5283a0d7aeeafd409c69b272053f3986" target="_top" xlink:title=" ">
<polygon fill="white" stroke="black" points="342,-98.5 342,-128.5 491,-128.5 491,-98.5 342,-98.5"/>
<text text-anchor="start" x="350" y="-116.5" font-family="Helvetica,sans-Serif" font-size="10.00">MainWindow::slotOptimization</text>
<text text-anchor="middle" x="416.5" y="-105.5" font-family="Helvetica,sans-Serif" font-size="10.00">BenchmarkCube</text>
</a>
</g>
</g>
<!-- Node19&#45;&gt;Node26 -->
<g id="edge30" class="edge">
<title>Node19&#45;&gt;Node26</title>
<path fill="none" stroke="midnightblue" d="M560.71,-172.96C541.76,-162.61 515.22,-148.77 491,-138.5 482.81,-135.03 473.96,-131.68 465.33,-128.63"/>
<polygon fill="midnightblue" stroke="midnightblue" points="559.16,-176.11 569.61,-177.88 562.55,-169.98 559.16,-176.11"/>
</g>
<!-- Node27 -->
<g id="node27" class="node">
<title>Node27</title>
<g id="a_node27"><a xlink:href="../../d9/dc6/class_main_window.html#a0c92ca2d04a79a1580c2e8e136b82682" target="_top" xlink:title=" ">
<polygon fill="white" stroke="black" points="342,-49.5 342,-79.5 491,-79.5 491,-49.5 342,-49.5"/>
<text text-anchor="start" x="350" y="-67.5" font-family="Helvetica,sans-Serif" font-size="10.00">MainWindow::slotOptimization</text>
<text text-anchor="middle" x="416.5" y="-56.5" font-family="Helvetica,sans-Serif" font-size="10.00">BenchmarkSphere</text>
</a>
</g>
</g>
<!-- Node19&#45;&gt;Node27 -->
<g id="edge32" class="edge">
<title>Node19&#45;&gt;Node27</title>
<path fill="none" stroke="midnightblue" d="M573.64,-169.92C556.88,-148.17 525.61,-111.35 491,-89.5 484.96,-85.69 478.27,-82.38 471.46,-79.54"/>
<polygon fill="midnightblue" stroke="midnightblue" points="570.9,-172.09 579.71,-177.97 576.49,-167.88 570.9,-172.09"/>
</g>
<!-- Node28 -->
<g id="node28" class="node">
<title>Node28</title>
<g id="a_node28"><a xlink:href="../../d9/dc6/class_main_window.html#a86cd359f80311725589d0861dd7a9851" target="_top" xlink:title=" ">
<polygon fill="white" stroke="black" points="342,-0.5 342,-30.5 491,-30.5 491,-0.5 342,-0.5"/>
<text text-anchor="start" x="350" y="-18.5" font-family="Helvetica,sans-Serif" font-size="10.00">MainWindow::slotOptimization</text>
<text text-anchor="middle" x="416.5" y="-7.5" font-family="Helvetica,sans-Serif" font-size="10.00">BenchmarkUChannel</text>
</a>
</g>
</g>
<!-- Node19&#45;&gt;Node28 -->
<g id="edge34" class="edge">
<title>Node19&#45;&gt;Node28</title>
<path fill="none" stroke="midnightblue" d="M579,-168.32C565.84,-137.1 535.67,-75.26 491,-40.5 486,-36.61 480.36,-33.31 474.48,-30.5"/>
<polygon fill="midnightblue" stroke="midnightblue" points="575.79,-169.72 582.81,-177.66 582.27,-167.08 575.79,-169.72"/>
</g>
<!-- Node21 -->
<g id="node21" class="node">
<title>Node21</title>
<g id="a_node21"><a xlink:href="../../d9/dc6/class_main_window.html#a33dddfc15db4053f9117728538e7ece4" target="_top" xlink:title="Set up qt specific signal and slots part for enabling user interaction.">
<polygon fill="white" stroke="black" points="171,-147.5 171,-177.5 306,-177.5 306,-147.5 171,-147.5"/>
<text text-anchor="start" x="179" y="-165.5" font-family="Helvetica,sans-Serif" font-size="10.00">MainWindow::setupSignals</text>
<text text-anchor="middle" x="238.5" y="-154.5" font-family="Helvetica,sans-Serif" font-size="10.00">AndSlots</text>
</a>
</g>
</g>
<!-- Node20&#45;&gt;Node21 -->
<g id="edge22" class="edge">
<title>Node20&#45;&gt;Node21</title>
<path fill="none" stroke="midnightblue" d="M352.63,-291.18C348.93,-289.51 345.35,-287.62 342,-285.5 297.61,-257.39 262.9,-203.75 247.77,-177.59"/>
<polygon fill="midnightblue" stroke="midnightblue" points="351.46,-294.48 362.05,-294.93 354.05,-287.98 351.46,-294.48"/>
</g>
<!-- Node22 -->
<g id="node22" class="node">
<title>Node22</title>
<g id="a_node22"><a xlink:href="../../d9/dc6/class_main_window.html#a996c5a2b6f77944776856f08ec30858d" target="_top" xlink:title=" ">
<polygon fill="white" stroke="black" points="0,-153 0,-172 135,-172 135,-153 0,-153"/>
<text text-anchor="middle" x="67.5" y="-160" font-family="Helvetica,sans-Serif" font-size="10.00">MainWindow::MainWindow</text>
</a>
</g>
</g>
<!-- Node21&#45;&gt;Node22 -->
<g id="edge23" class="edge">
<title>Node21&#45;&gt;Node22</title>
<path fill="none" stroke="midnightblue" d="M160.45,-162.5C151.98,-162.5 143.41,-162.5 135.08,-162.5"/>
<polygon fill="midnightblue" stroke="midnightblue" points="160.71,-166 170.71,-162.5 160.71,-159 160.71,-166"/>
</g>
<!-- Node23&#45;&gt;Node21 -->
<g id="edge25" class="edge">
<title>Node23&#45;&gt;Node21</title>
<path fill="none" stroke="midnightblue" d="M353,-241.6C349.23,-240 345.53,-238.3 342,-236.5 309.72,-220.08 276.47,-194.09 256.91,-177.68"/>
<polygon fill="midnightblue" stroke="midnightblue" points="351.91,-244.94 362.5,-245.39 354.51,-238.43 351.91,-244.94"/>
</g>
<!-- Node24&#45;&gt;Node21 -->
<g id="edge27" class="edge">
<title>Node24&#45;&gt;Node21</title>
<path fill="none" stroke="midnightblue" d="M351.49,-193.68C332.49,-188.39 311.87,-182.65 293.56,-177.55"/>
<polygon fill="midnightblue" stroke="midnightblue" points="350.69,-197.09 361.26,-196.4 352.56,-190.34 350.69,-197.09"/>
</g>
<!-- Node25&#45;&gt;Node21 -->
<g id="edge29" class="edge">
<title>Node25&#45;&gt;Node21</title>
<path fill="none" stroke="midnightblue" d="M331.8,-162.5C323.18,-162.5 314.5,-162.5 306.09,-162.5"/>
<polygon fill="midnightblue" stroke="midnightblue" points="331.88,-166 341.88,-162.5 331.88,-159 331.88,-166"/>
</g>
<!-- Node26&#45;&gt;Node21 -->
<g id="edge31" class="edge">
<title>Node26&#45;&gt;Node21</title>
<path fill="none" stroke="midnightblue" d="M351.49,-131.32C332.49,-136.61 311.87,-142.35 293.56,-147.45"/>
<polygon fill="midnightblue" stroke="midnightblue" points="352.56,-134.66 361.26,-128.6 350.69,-127.91 352.56,-134.66"/>
</g>
<!-- Node27&#45;&gt;Node21 -->
<g id="edge33" class="edge">
<title>Node27&#45;&gt;Node21</title>
<path fill="none" stroke="midnightblue" d="M355.37,-83.32C350.78,-85.25 346.27,-87.31 342,-89.5 310.11,-105.83 277.01,-131.2 257.34,-147.32"/>
<polygon fill="midnightblue" stroke="midnightblue" points="356.88,-86.49 364.88,-79.54 354.29,-79.98 356.88,-86.49"/>
</g>
<!-- Node28&#45;&gt;Node21 -->
<g id="edge35" class="edge">
<title>Node28&#45;&gt;Node21</title>
<path fill="none" stroke="midnightblue" d="M351.04,-35.03C347.9,-36.72 344.87,-38.54 342,-40.5 299.07,-69.86 263.92,-121.89 248.27,-147.46"/>
<polygon fill="midnightblue" stroke="midnightblue" points="352.66,-38.14 360.12,-30.62 349.6,-31.84 352.66,-38.14"/>
</g>
</g>
</svg>
