<?xml version="1.0" encoding="UTF-8" standalone="no"?>
<!DOCTYPE svg PUBLIC "-//W3C//DTD SVG 1.1//EN"
 "http://www.w3.org/Graphics/SVG/1.1/DTD/svg11.dtd">
<!-- Generated by graphviz version 2.44.1 (0)
 -->
<!-- Title: T_MESH::Triangle::commonEdge Pages: 1 -->
<svg width="583pt" height="78pt"
 viewBox="0.00 0.00 583.00 77.50" xmlns="http://www.w3.org/2000/svg" xmlns:xlink="http://www.w3.org/1999/xlink">
<g id="graph0" class="graph" transform="scale(1 1) rotate(0) translate(4 73.5)">
<title>T_MESH::Triangle::commonEdge</title>
<polygon fill="white" stroke="transparent" points="-4,4 -4,-73.5 579,-73.5 579,4 -4,4"/>
<!-- Node1 -->
<g id="node1" class="node">
<title>Node1</title>
<g id="a_node1"><a xlink:title="If this triangle shares an edge with &#39;b&#39;, then such an edge is returned. NULL otherwise.">
<polygon fill="#bfbfbf" stroke="black" points="411,-22.5 411,-41.5 575,-41.5 575,-22.5 411,-22.5"/>
<text text-anchor="middle" x="493" y="-29.5" font-family="Helvetica,sans-Serif" font-size="10.00">T_MESH::Triangle::commonEdge</text>
</a>
</g>
</g>
<!-- Node2 -->
<g id="node2" class="node">
<title>Node2</title>
<g id="a_node2"><a xlink:href="../../d8/d6e/class_t___m_e_s_h_1_1_triangle.html#ae0f21d42971e76425031d362a682fae0" target="_top" xlink:title="TRUE if the oriantation is consistent with the one of &#39;t&#39; OR if this and &#39;t&#39; do not share any edge.">
<polygon fill="white" stroke="black" points="215,-42.5 215,-61.5 375,-61.5 375,-42.5 215,-42.5"/>
<text text-anchor="middle" x="295" y="-49.5" font-family="Helvetica,sans-Serif" font-size="10.00">T_MESH::Triangle::checkAdjNor</text>
</a>
</g>
</g>
<!-- Node1&#45;&gt;Node2 -->
<g id="edge1" class="edge">
<title>Node1&#45;&gt;Node2</title>
<path fill="none" stroke="midnightblue" d="M400.85,-41.3C392.28,-42.18 383.63,-43.06 375.18,-43.92"/>
<polygon fill="midnightblue" stroke="midnightblue" points="401.27,-44.78 410.86,-40.28 400.56,-37.81 401.27,-44.78"/>
</g>
<!-- Node4 -->
<g id="node4" class="node">
<title>Node4</title>
<g id="a_node4"><a xlink:href="../../d8/d6e/class_t___m_e_s_h_1_1_triangle.html#a38d6dedff09dd67bc25defcb61304546" target="_top" xlink:title="true if this triangle itersects &#39;t&#39; other than on common subsimplexes if &#39;justproper&#39; is true,...">
<polygon fill="white" stroke="black" points="222,-3.5 222,-22.5 368,-22.5 368,-3.5 222,-3.5"/>
<text text-anchor="middle" x="295" y="-10.5" font-family="Helvetica,sans-Serif" font-size="10.00">T_MESH::Triangle::intersects</text>
</a>
</g>
</g>
<!-- Node1&#45;&gt;Node4 -->
<g id="edge3" class="edge">
<title>Node1&#45;&gt;Node4</title>
<path fill="none" stroke="midnightblue" d="M400.88,-23.17C389.95,-22.11 378.91,-21.04 368.3,-20.01"/>
<polygon fill="midnightblue" stroke="midnightblue" points="400.57,-26.65 410.86,-24.13 401.25,-19.69 400.57,-26.65"/>
</g>
<!-- Node3 -->
<g id="node3" class="node">
<title>Node3</title>
<g id="a_node3"><a xlink:href="../../d6/d27/class_t___m_e_s_h_1_1_basic___t_mesh.html#a02a1d3413dd04010e5a8c259d00eb23d" target="_top" xlink:title="Same as above, but acts on a single connected component and uses one specific triangle from which the...">
<polygon fill="white" stroke="black" points="24,-39 24,-69 155,-69 155,-39 24,-39"/>
<text text-anchor="start" x="32" y="-57" font-family="Helvetica,sans-Serif" font-size="10.00">T_MESH::Basic_TMesh</text>
<text text-anchor="middle" x="89.5" y="-46" font-family="Helvetica,sans-Serif" font-size="10.00">::forceNormalConsistence</text>
</a>
</g>
</g>
<!-- Node2&#45;&gt;Node3 -->
<g id="edge2" class="edge">
<title>Node2&#45;&gt;Node3</title>
<path fill="none" stroke="midnightblue" d="M204.46,-52.88C187.85,-53.04 170.78,-53.21 155.09,-53.37"/>
<polygon fill="midnightblue" stroke="midnightblue" points="204.77,-56.38 214.74,-52.78 204.7,-49.38 204.77,-56.38"/>
</g>
<!-- Node5 -->
<g id="node5" class="node">
<title>Node5</title>
<g id="a_node5"><a xlink:href="../../d3/d21/class_t___m_e_s_h_1_1di__cell.html#a225e296cc8fdea7f5dbc9d4b9a5bc79c" target="_top" xlink:title=" ">
<polygon fill="white" stroke="black" points="0,-0.5 0,-19.5 179,-19.5 179,-0.5 0,-0.5"/>
<text text-anchor="middle" x="89.5" y="-7.5" font-family="Helvetica,sans-Serif" font-size="10.00">T_MESH::di_cell::selectIntersections</text>
</a>
</g>
</g>
<!-- Node4&#45;&gt;Node5 -->
<g id="edge4" class="edge">
<title>Node4&#45;&gt;Node5</title>
<path fill="none" stroke="midnightblue" d="M211.79,-11.79C201.06,-11.63 190.03,-11.47 179.2,-11.31"/>
<polygon fill="midnightblue" stroke="midnightblue" points="211.92,-15.29 221.97,-11.94 212.02,-8.29 211.92,-15.29"/>
</g>
</g>
</svg>
