<?xml version="1.0" encoding="UTF-8" standalone="no"?>
<!DOCTYPE svg PUBLIC "-//W3C//DTD SVG 1.1//EN"
 "http://www.w3.org/Graphics/SVG/1.1/DTD/svg11.dtd">
<!-- Generated by graphviz version 2.44.1 (0)
 -->
<!-- Title: T_MESH::Triangle::getDAngle Pages: 1 -->
<svg width="685pt" height="142pt"
 viewBox="0.00 0.00 685.00 142.00" xmlns="http://www.w3.org/2000/svg" xmlns:xlink="http://www.w3.org/1999/xlink">
<g id="graph0" class="graph" transform="scale(1 1) rotate(0) translate(4 138)">
<title>T_MESH::Triangle::getDAngle</title>
<polygon fill="white" stroke="transparent" points="-4,4 -4,-138 681,-138 681,4 -4,4"/>
<!-- Node1 -->
<g id="node1" class="node">
<title>Node1</title>
<g id="a_node1"><a xlink:title="Angle between the normal vector of this and the one of &#39;t&#39;. Return &#45;1 if one or both the triangles ar...">
<polygon fill="#bfbfbf" stroke="black" points="0,-57.5 0,-76.5 149,-76.5 149,-57.5 0,-57.5"/>
<text text-anchor="middle" x="74.5" y="-64.5" font-family="Helvetica,sans-Serif" font-size="10.00">T_MESH::Triangle::getDAngle</text>
</a>
</g>
</g>
<!-- Node2 -->
<g id="node2" class="node">
<title>Node2</title>
<g id="a_node2"><a xlink:href="../../d2/d8e/class_t___m_e_s_h_1_1_point.html#a7d19f5b5b98c1999de03da56eab91478" target="_top" xlink:title=" ">
<polygon fill="white" stroke="black" points="192.5,-104.5 192.5,-123.5 322.5,-123.5 322.5,-104.5 192.5,-104.5"/>
<text text-anchor="middle" x="257.5" y="-111.5" font-family="Helvetica,sans-Serif" font-size="10.00">T_MESH::Point::getAngle</text>
</a>
</g>
</g>
<!-- Node1&#45;&gt;Node2 -->
<g id="edge1" class="edge">
<title>Node1&#45;&gt;Node2</title>
<path fill="none" stroke="midnightblue" d="M112.13,-76.51C140.25,-83.81 179.28,-93.95 209.67,-101.84"/>
<polygon fill="midnightblue" stroke="midnightblue" points="209.06,-105.3 219.62,-104.42 210.82,-98.52 209.06,-105.3"/>
</g>
<!-- Node4 -->
<g id="node4" class="node">
<title>Node4</title>
<g id="a_node4"><a xlink:href="../../d8/d6e/class_t___m_e_s_h_1_1_triangle.html#ac657821ebb19f57ea5d92daaa3aefa34" target="_top" xlink:title="Return a vector orthogonal to the plane of the triangle. If triangle is degenerate return a null vect...">
<polygon fill="white" stroke="black" points="185,-57.5 185,-76.5 330,-76.5 330,-57.5 185,-57.5"/>
<text text-anchor="middle" x="257.5" y="-64.5" font-family="Helvetica,sans-Serif" font-size="10.00">T_MESH::Triangle::getVector</text>
</a>
</g>
</g>
<!-- Node1&#45;&gt;Node4 -->
<g id="edge3" class="edge">
<title>Node1&#45;&gt;Node4</title>
<path fill="none" stroke="midnightblue" d="M149.12,-67C157.63,-67 166.35,-67 174.96,-67"/>
<polygon fill="midnightblue" stroke="midnightblue" points="175,-70.5 185,-67 175,-63.5 175,-70.5"/>
</g>
<!-- Node9 -->
<g id="node9" class="node">
<title>Node9</title>
<g id="a_node9"><a xlink:href="../../d2/d8e/class_t___m_e_s_h_1_1_point.html#a0ac3250c48d7be19c5184d15366c8b85" target="_top" xlink:title="TRUE if vector is (0,0,0)">
<polygon fill="white" stroke="black" points="199.5,-19.5 199.5,-38.5 315.5,-38.5 315.5,-19.5 199.5,-19.5"/>
<text text-anchor="middle" x="257.5" y="-26.5" font-family="Helvetica,sans-Serif" font-size="10.00">T_MESH::Point::isNull</text>
</a>
</g>
</g>
<!-- Node1&#45;&gt;Node9 -->
<g id="edge10" class="edge">
<title>Node1&#45;&gt;Node9</title>
<path fill="none" stroke="midnightblue" d="M121.17,-57.41C145.49,-52.31 175.58,-45.99 201.21,-40.61"/>
<polygon fill="midnightblue" stroke="midnightblue" points="202.09,-44 211.15,-38.52 200.65,-37.15 202.09,-44"/>
</g>
<!-- Node3 -->
<g id="node3" class="node">
<title>Node3</title>
<g id="a_node3"><a xlink:href="../../d2/d8e/class_t___m_e_s_h_1_1_point.html#a61ce9f22ddfe41f036566d4a2f920ac4" target="_top" xlink:title="Distance from origin.">
<polygon fill="white" stroke="black" points="366,-114.5 366,-133.5 484,-133.5 484,-114.5 366,-114.5"/>
<text text-anchor="middle" x="425" y="-121.5" font-family="Helvetica,sans-Serif" font-size="10.00">T_MESH::Point::length</text>
</a>
</g>
</g>
<!-- Node2&#45;&gt;Node3 -->
<g id="edge2" class="edge">
<title>Node2&#45;&gt;Node3</title>
<path fill="none" stroke="midnightblue" d="M322.96,-117.89C333.69,-118.54 344.85,-119.22 355.67,-119.87"/>
<polygon fill="midnightblue" stroke="midnightblue" points="355.73,-123.38 365.92,-120.49 356.15,-116.39 355.73,-123.38"/>
</g>
<!-- Node5 -->
<g id="node5" class="node">
<title>Node5</title>
<g id="a_node5"><a xlink:href="../../d8/d6e/class_t___m_e_s_h_1_1_triangle.html#aa7b9f783f2e4339083f46d25d3eecf68" target="_top" xlink:title="First vertex.">
<polygon fill="white" stroke="black" points="368,-76.5 368,-95.5 482,-95.5 482,-76.5 368,-76.5"/>
<text text-anchor="middle" x="425" y="-83.5" font-family="Helvetica,sans-Serif" font-size="10.00">T_MESH::Triangle::v1</text>
</a>
</g>
</g>
<!-- Node4&#45;&gt;Node5 -->
<g id="edge4" class="edge">
<title>Node4&#45;&gt;Node5</title>
<path fill="none" stroke="midnightblue" d="M330.13,-75.22C339.33,-76.28 348.72,-77.36 357.83,-78.4"/>
<polygon fill="midnightblue" stroke="midnightblue" points="357.64,-81.9 367.98,-79.57 358.44,-74.95 357.64,-81.9"/>
</g>
<!-- Node7 -->
<g id="node7" class="node">
<title>Node7</title>
<g id="a_node7"><a xlink:href="../../d8/d6e/class_t___m_e_s_h_1_1_triangle.html#a1bf6a231440a3c73a931c1cfccfee574" target="_top" xlink:title="Second vertex.">
<polygon fill="white" stroke="black" points="368,-38.5 368,-57.5 482,-57.5 482,-38.5 368,-38.5"/>
<text text-anchor="middle" x="425" y="-45.5" font-family="Helvetica,sans-Serif" font-size="10.00">T_MESH::Triangle::v2</text>
</a>
</g>
</g>
<!-- Node4&#45;&gt;Node7 -->
<g id="edge6" class="edge">
<title>Node4&#45;&gt;Node7</title>
<path fill="none" stroke="midnightblue" d="M330.13,-58.78C339.33,-57.72 348.72,-56.64 357.83,-55.6"/>
<polygon fill="midnightblue" stroke="midnightblue" points="358.44,-59.05 367.98,-54.43 357.64,-52.1 358.44,-59.05"/>
</g>
<!-- Node8 -->
<g id="node8" class="node">
<title>Node8</title>
<g id="a_node8"><a xlink:href="../../d8/d6e/class_t___m_e_s_h_1_1_triangle.html#a0c4c2a2ba6b0c975aa3d260f00785e8f" target="_top" xlink:title="Third vertex.">
<polygon fill="white" stroke="black" points="368,-0.5 368,-19.5 482,-19.5 482,-0.5 368,-0.5"/>
<text text-anchor="middle" x="425" y="-7.5" font-family="Helvetica,sans-Serif" font-size="10.00">T_MESH::Triangle::v3</text>
</a>
</g>
</g>
<!-- Node4&#45;&gt;Node8 -->
<g id="edge8" class="edge">
<title>Node4&#45;&gt;Node8</title>
<path fill="none" stroke="midnightblue" d="M300.98,-57.4C310.65,-54.75 320.79,-51.6 330,-48 346.85,-41.41 349.34,-36.06 366,-29 371.06,-26.85 376.45,-24.8 381.83,-22.88"/>
<polygon fill="midnightblue" stroke="midnightblue" points="383.1,-26.15 391.43,-19.6 380.84,-19.52 383.1,-26.15"/>
</g>
<!-- Node6 -->
<g id="node6" class="node">
<title>Node6</title>
<g id="a_node6"><a xlink:href="../../da/da2/class_t___m_e_s_h_1_1_edge.html#a560eca8895471f987bd3228b13c40052" target="_top" xlink:title="Vertex shared with edge &#39;b&#39;. NULL if this and &#39;b&#39; do not share any vertex.">
<polygon fill="white" stroke="black" points="520,-38.5 520,-57.5 677,-57.5 677,-38.5 520,-38.5"/>
<text text-anchor="middle" x="598.5" y="-45.5" font-family="Helvetica,sans-Serif" font-size="10.00">T_MESH::Edge::commonVertex</text>
</a>
</g>
</g>
<!-- Node5&#45;&gt;Node6 -->
<g id="edge5" class="edge">
<title>Node5&#45;&gt;Node6</title>
<path fill="none" stroke="midnightblue" d="M469.28,-76.41C492.11,-71.35 520.32,-65.1 544.46,-59.75"/>
<polygon fill="midnightblue" stroke="midnightblue" points="545.53,-63.1 554.53,-57.52 544.01,-56.27 545.53,-63.1"/>
</g>
<!-- Node7&#45;&gt;Node6 -->
<g id="edge7" class="edge">
<title>Node7&#45;&gt;Node6</title>
<path fill="none" stroke="midnightblue" d="M482.16,-48C490.98,-48 500.28,-48 509.61,-48"/>
<polygon fill="midnightblue" stroke="midnightblue" points="509.74,-51.5 519.74,-48 509.74,-44.5 509.74,-51.5"/>
</g>
<!-- Node8&#45;&gt;Node6 -->
<g id="edge9" class="edge">
<title>Node8&#45;&gt;Node6</title>
<path fill="none" stroke="midnightblue" d="M469.28,-19.59C492.11,-24.65 520.32,-30.9 544.46,-36.25"/>
<polygon fill="midnightblue" stroke="midnightblue" points="544.01,-39.73 554.53,-38.48 545.53,-32.9 544.01,-39.73"/>
</g>
</g>
</svg>
