<?xml version="1.0" encoding="UTF-8" standalone="no"?>
<!DOCTYPE svg PUBLIC "-//W3C//DTD SVG 1.1//EN"
 "http://www.w3.org/Graphics/SVG/1.1/DTD/svg11.dtd">
<!-- Generated by graphviz version 2.44.1 (0)
 -->
<!-- Title: T_MESH::Triangle::getCircleCenter Pages: 1 -->
<svg width="529pt" height="180pt"
 viewBox="0.00 0.00 529.00 180.00" xmlns="http://www.w3.org/2000/svg" xmlns:xlink="http://www.w3.org/1999/xlink">
<g id="graph0" class="graph" transform="scale(1 1) rotate(0) translate(4 176)">
<title>T_MESH::Triangle::getCircleCenter</title>
<polygon fill="white" stroke="transparent" points="-4,4 -4,-176 525,-176 525,4 -4,4"/>
<!-- Node1 -->
<g id="node1" class="node">
<title>Node1</title>
<g id="a_node1"><a xlink:title="Return the center of the triangle&#39;s bounding sphere.">
<polygon fill="#bfbfbf" stroke="black" points="0,-71 0,-101 143,-101 143,-71 0,-71"/>
<text text-anchor="start" x="8" y="-89" font-family="Helvetica,sans-Serif" font-size="10.00">T_MESH::Triangle::getCircle</text>
<text text-anchor="middle" x="71.5" y="-78" font-family="Helvetica,sans-Serif" font-size="10.00">Center</text>
</a>
</g>
</g>
<!-- Node2 -->
<g id="node2" class="node">
<title>Node2</title>
<g id="a_node2"><a xlink:href="../../da/da2/class_t___m_e_s_h_1_1_edge.html#ae1c9ad3e2e9ab1030158dfae5bdb1a94" target="_top" xlink:title="Return the edge&#39;s mid&#45;point.">
<polygon fill="white" stroke="black" points="182,-152.5 182,-171.5 325,-171.5 325,-152.5 182,-152.5"/>
<text text-anchor="middle" x="253.5" y="-159.5" font-family="Helvetica,sans-Serif" font-size="10.00">T_MESH::Edge::getMidPoint</text>
</a>
</g>
</g>
<!-- Node1&#45;&gt;Node2 -->
<g id="edge1" class="edge">
<title>Node1&#45;&gt;Node2</title>
<path fill="none" stroke="midnightblue" d="M96.66,-101.09C117.75,-113.72 149.5,-131.48 179,-143 185.27,-145.45 191.96,-147.67 198.66,-149.67"/>
<polygon fill="midnightblue" stroke="midnightblue" points="197.85,-153.08 208.43,-152.43 199.76,-146.34 197.85,-153.08"/>
</g>
<!-- Node3 -->
<g id="node3" class="node">
<title>Node3</title>
<g id="a_node3"><a xlink:href="../../d2/d8e/class_t___m_e_s_h_1_1_point.html#a0c342e891a2bee0206e007f840e85343" target="_top" xlink:title="Returns the solution of the linear system Ax = d, where A is a 3x3 matrix whose rows are row1,...">
<polygon fill="white" stroke="black" points="179,-114.5 179,-133.5 328,-133.5 328,-114.5 179,-114.5"/>
<text text-anchor="middle" x="253.5" y="-121.5" font-family="Helvetica,sans-Serif" font-size="10.00">T_MESH::Point::linearSystem</text>
</a>
</g>
</g>
<!-- Node1&#45;&gt;Node3 -->
<g id="edge2" class="edge">
<title>Node1&#45;&gt;Node3</title>
<path fill="none" stroke="midnightblue" d="M143.12,-100.91C161.24,-104.73 180.45,-108.79 197.64,-112.42"/>
<polygon fill="midnightblue" stroke="midnightblue" points="196.99,-115.86 207.5,-114.5 198.43,-109.01 196.99,-115.86"/>
</g>
<!-- Node4 -->
<g id="node4" class="node">
<title>Node4</title>
<g id="a_node4"><a xlink:href="../../d8/d6e/class_t___m_e_s_h_1_1_triangle.html#aa7b9f783f2e4339083f46d25d3eecf68" target="_top" xlink:title="First vertex.">
<polygon fill="white" stroke="black" points="196.5,-76.5 196.5,-95.5 310.5,-95.5 310.5,-76.5 196.5,-76.5"/>
<text text-anchor="middle" x="253.5" y="-83.5" font-family="Helvetica,sans-Serif" font-size="10.00">T_MESH::Triangle::v1</text>
</a>
</g>
</g>
<!-- Node1&#45;&gt;Node4 -->
<g id="edge3" class="edge">
<title>Node1&#45;&gt;Node4</title>
<path fill="none" stroke="midnightblue" d="M143.12,-86C157.31,-86 172.17,-86 186.21,-86"/>
<polygon fill="midnightblue" stroke="midnightblue" points="186.26,-89.5 196.26,-86 186.26,-82.5 186.26,-89.5"/>
</g>
<!-- Node6 -->
<g id="node6" class="node">
<title>Node6</title>
<g id="a_node6"><a xlink:href="../../d8/d6e/class_t___m_e_s_h_1_1_triangle.html#a1bf6a231440a3c73a931c1cfccfee574" target="_top" xlink:title="Second vertex.">
<polygon fill="white" stroke="black" points="196.5,-38.5 196.5,-57.5 310.5,-57.5 310.5,-38.5 196.5,-38.5"/>
<text text-anchor="middle" x="253.5" y="-45.5" font-family="Helvetica,sans-Serif" font-size="10.00">T_MESH::Triangle::v2</text>
</a>
</g>
</g>
<!-- Node1&#45;&gt;Node6 -->
<g id="edge5" class="edge">
<title>Node1&#45;&gt;Node6</title>
<path fill="none" stroke="midnightblue" d="M143.12,-71.09C161.24,-67.27 180.45,-63.21 197.64,-59.58"/>
<polygon fill="midnightblue" stroke="midnightblue" points="198.43,-62.99 207.5,-57.5 196.99,-56.14 198.43,-62.99"/>
</g>
<!-- Node7 -->
<g id="node7" class="node">
<title>Node7</title>
<g id="a_node7"><a xlink:href="../../d8/d6e/class_t___m_e_s_h_1_1_triangle.html#a0c4c2a2ba6b0c975aa3d260f00785e8f" target="_top" xlink:title="Third vertex.">
<polygon fill="white" stroke="black" points="196.5,-0.5 196.5,-19.5 310.5,-19.5 310.5,-0.5 196.5,-0.5"/>
<text text-anchor="middle" x="253.5" y="-7.5" font-family="Helvetica,sans-Serif" font-size="10.00">T_MESH::Triangle::v3</text>
</a>
</g>
</g>
<!-- Node1&#45;&gt;Node7 -->
<g id="edge7" class="edge">
<title>Node1&#45;&gt;Node7</title>
<path fill="none" stroke="midnightblue" d="M96.66,-70.91C117.75,-58.28 149.5,-40.52 179,-29 185.27,-26.55 191.96,-24.33 198.66,-22.33"/>
<polygon fill="midnightblue" stroke="midnightblue" points="199.76,-25.66 208.43,-19.57 197.85,-18.92 199.76,-25.66"/>
</g>
<!-- Node5 -->
<g id="node5" class="node">
<title>Node5</title>
<g id="a_node5"><a xlink:href="../../da/da2/class_t___m_e_s_h_1_1_edge.html#a560eca8895471f987bd3228b13c40052" target="_top" xlink:title="Vertex shared with edge &#39;b&#39;. NULL if this and &#39;b&#39; do not share any vertex.">
<polygon fill="white" stroke="black" points="364,-38.5 364,-57.5 521,-57.5 521,-38.5 364,-38.5"/>
<text text-anchor="middle" x="442.5" y="-45.5" font-family="Helvetica,sans-Serif" font-size="10.00">T_MESH::Edge::commonVertex</text>
</a>
</g>
</g>
<!-- Node4&#45;&gt;Node5 -->
<g id="edge4" class="edge">
<title>Node4&#45;&gt;Node5</title>
<path fill="none" stroke="midnightblue" d="M301.69,-76.41C326.92,-71.28 358.17,-64.93 384.73,-59.54"/>
<polygon fill="midnightblue" stroke="midnightblue" points="385.55,-62.94 394.65,-57.52 384.15,-56.08 385.55,-62.94"/>
</g>
<!-- Node6&#45;&gt;Node5 -->
<g id="edge6" class="edge">
<title>Node6&#45;&gt;Node5</title>
<path fill="none" stroke="midnightblue" d="M310.61,-48C324.24,-48 339.15,-48 353.86,-48"/>
<polygon fill="midnightblue" stroke="midnightblue" points="354,-51.5 364,-48 354,-44.5 354,-51.5"/>
</g>
<!-- Node7&#45;&gt;Node5 -->
<g id="edge8" class="edge">
<title>Node7&#45;&gt;Node5</title>
<path fill="none" stroke="midnightblue" d="M301.69,-19.59C326.92,-24.72 358.17,-31.07 384.73,-36.46"/>
<polygon fill="midnightblue" stroke="midnightblue" points="384.15,-39.92 394.65,-38.48 385.55,-33.06 384.15,-39.92"/>
</g>
</g>
</svg>
