<?xml version="1.0" encoding="UTF-8" standalone="no"?>
<!DOCTYPE svg PUBLIC "-//W3C//DTD SVG 1.1//EN"
 "http://www.w3.org/Graphics/SVG/1.1/DTD/svg11.dtd">
<!-- Generated by graphviz version 2.44.1 (0)
 -->
<!-- Title: T_MESH::Triangle::inSphere Pages: 1 -->
<svg width="735pt" height="218pt"
 viewBox="0.00 0.00 735.00 218.00" xmlns="http://www.w3.org/2000/svg" xmlns:xlink="http://www.w3.org/1999/xlink">
<g id="graph0" class="graph" transform="scale(1 1) rotate(0) translate(4 214)">
<title>T_MESH::Triangle::inSphere</title>
<polygon fill="white" stroke="transparent" points="-4,4 -4,-214 731,-214 731,4 -4,4"/>
<!-- Node1 -->
<g id="node1" class="node">
<title>Node1</title>
<g id="a_node1"><a xlink:title="TRUE iff &#39;p&#39; is inside the triangle&#39;s bounding sphere.">
<polygon fill="#bfbfbf" stroke="black" points="0,-57.5 0,-76.5 142,-76.5 142,-57.5 0,-57.5"/>
<text text-anchor="middle" x="71" y="-64.5" font-family="Helvetica,sans-Serif" font-size="10.00">T_MESH::Triangle::inSphere</text>
</a>
</g>
</g>
<!-- Node2 -->
<g id="node2" class="node">
<title>Node2</title>
<g id="a_node2"><a xlink:href="../../d8/d6e/class_t___m_e_s_h_1_1_triangle.html#a44ef71206a6f8ad884390c6fb2dd0cef" target="_top" xlink:title="Return the center of the triangle&#39;s bounding sphere.">
<polygon fill="white" stroke="black" points="189,-90 189,-120 332,-120 332,-90 189,-90"/>
<text text-anchor="start" x="197" y="-108" font-family="Helvetica,sans-Serif" font-size="10.00">T_MESH::Triangle::getCircle</text>
<text text-anchor="middle" x="260.5" y="-97" font-family="Helvetica,sans-Serif" font-size="10.00">Center</text>
</a>
</g>
</g>
<!-- Node1&#45;&gt;Node2 -->
<g id="edge1" class="edge">
<title>Node1&#45;&gt;Node2</title>
<path fill="none" stroke="midnightblue" d="M119.31,-76.59C137.4,-80.25 158.57,-84.55 178.9,-88.67"/>
<polygon fill="midnightblue" stroke="midnightblue" points="178.3,-92.11 188.8,-90.67 179.69,-85.25 178.3,-92.11"/>
</g>
<!-- Node9 -->
<g id="node9" class="node">
<title>Node9</title>
<g id="a_node9"><a xlink:href="../../d2/d8e/class_t___m_e_s_h_1_1_point.html#a91e129190fdfb3a70c287f77ec9c7851" target="_top" xlink:title="Squared distance from &#39;*b&#39;.">
<polygon fill="white" stroke="black" points="178,-35.5 178,-54.5 343,-54.5 343,-35.5 178,-35.5"/>
<text text-anchor="middle" x="260.5" y="-42.5" font-family="Helvetica,sans-Serif" font-size="10.00">T_MESH::Point::squaredDistance</text>
</a>
</g>
</g>
<!-- Node1&#45;&gt;Node9 -->
<g id="edge10" class="edge">
<title>Node1&#45;&gt;Node9</title>
<path fill="none" stroke="midnightblue" d="M142.08,-58.78C150.7,-57.77 159.6,-56.72 168.47,-55.68"/>
<polygon fill="midnightblue" stroke="midnightblue" points="168.93,-59.15 178.45,-54.51 168.11,-52.2 168.93,-59.15"/>
</g>
<!-- Node3 -->
<g id="node3" class="node">
<title>Node3</title>
<g id="a_node3"><a xlink:href="../../da/da2/class_t___m_e_s_h_1_1_edge.html#ae1c9ad3e2e9ab1030158dfae5bdb1a94" target="_top" xlink:title="Return the edge&#39;s mid&#45;point.">
<polygon fill="white" stroke="black" points="385,-190.5 385,-209.5 528,-209.5 528,-190.5 385,-190.5"/>
<text text-anchor="middle" x="456.5" y="-197.5" font-family="Helvetica,sans-Serif" font-size="10.00">T_MESH::Edge::getMidPoint</text>
</a>
</g>
</g>
<!-- Node2&#45;&gt;Node3 -->
<g id="edge2" class="edge">
<title>Node2&#45;&gt;Node3</title>
<path fill="none" stroke="midnightblue" d="M280.33,-120.02C302.65,-137.12 341.55,-164.78 379,-181 384.69,-183.46 390.75,-185.65 396.89,-187.58"/>
<polygon fill="midnightblue" stroke="midnightblue" points="395.97,-190.96 406.55,-190.4 397.93,-184.24 395.97,-190.96"/>
</g>
<!-- Node4 -->
<g id="node4" class="node">
<title>Node4</title>
<g id="a_node4"><a xlink:href="../../d2/d8e/class_t___m_e_s_h_1_1_point.html#a0c342e891a2bee0206e007f840e85343" target="_top" xlink:title="Returns the solution of the linear system Ax = d, where A is a 3x3 matrix whose rows are row1,...">
<polygon fill="white" stroke="black" points="382,-152.5 382,-171.5 531,-171.5 531,-152.5 382,-152.5"/>
<text text-anchor="middle" x="456.5" y="-159.5" font-family="Helvetica,sans-Serif" font-size="10.00">T_MESH::Point::linearSystem</text>
</a>
</g>
</g>
<!-- Node2&#45;&gt;Node4 -->
<g id="edge3" class="edge">
<title>Node2&#45;&gt;Node4</title>
<path fill="none" stroke="midnightblue" d="M305.64,-120.07C327.58,-127.37 354.57,-136.03 379,-143 387.41,-145.4 396.4,-147.79 405.14,-150.02"/>
<polygon fill="midnightblue" stroke="midnightblue" points="404.31,-153.42 414.87,-152.46 406.02,-146.63 404.31,-153.42"/>
</g>
<!-- Node5 -->
<g id="node5" class="node">
<title>Node5</title>
<g id="a_node5"><a xlink:href="../../d8/d6e/class_t___m_e_s_h_1_1_triangle.html#aa7b9f783f2e4339083f46d25d3eecf68" target="_top" xlink:title="First vertex.">
<polygon fill="white" stroke="black" points="399.5,-114.5 399.5,-133.5 513.5,-133.5 513.5,-114.5 399.5,-114.5"/>
<text text-anchor="middle" x="456.5" y="-121.5" font-family="Helvetica,sans-Serif" font-size="10.00">T_MESH::Triangle::v1</text>
</a>
</g>
</g>
<!-- Node2&#45;&gt;Node5 -->
<g id="edge4" class="edge">
<title>Node2&#45;&gt;Node5</title>
<path fill="none" stroke="midnightblue" d="M332.09,-111.91C350.74,-113.74 370.79,-115.7 389.2,-117.51"/>
<polygon fill="midnightblue" stroke="midnightblue" points="388.95,-121 399.24,-118.49 389.63,-114.03 388.95,-121"/>
</g>
<!-- Node7 -->
<g id="node7" class="node">
<title>Node7</title>
<g id="a_node7"><a xlink:href="../../d8/d6e/class_t___m_e_s_h_1_1_triangle.html#a1bf6a231440a3c73a931c1cfccfee574" target="_top" xlink:title="Second vertex.">
<polygon fill="white" stroke="black" points="399.5,-76.5 399.5,-95.5 513.5,-95.5 513.5,-76.5 399.5,-76.5"/>
<text text-anchor="middle" x="456.5" y="-83.5" font-family="Helvetica,sans-Serif" font-size="10.00">T_MESH::Triangle::v2</text>
</a>
</g>
</g>
<!-- Node2&#45;&gt;Node7 -->
<g id="edge6" class="edge">
<title>Node2&#45;&gt;Node7</title>
<path fill="none" stroke="midnightblue" d="M332.09,-98.09C350.74,-96.26 370.79,-94.3 389.2,-92.49"/>
<polygon fill="midnightblue" stroke="midnightblue" points="389.63,-95.97 399.24,-91.51 388.95,-89 389.63,-95.97"/>
</g>
<!-- Node8 -->
<g id="node8" class="node">
<title>Node8</title>
<g id="a_node8"><a xlink:href="../../d8/d6e/class_t___m_e_s_h_1_1_triangle.html#a0c4c2a2ba6b0c975aa3d260f00785e8f" target="_top" xlink:title="Third vertex.">
<polygon fill="white" stroke="black" points="399.5,-38.5 399.5,-57.5 513.5,-57.5 513.5,-38.5 399.5,-38.5"/>
<text text-anchor="middle" x="456.5" y="-45.5" font-family="Helvetica,sans-Serif" font-size="10.00">T_MESH::Triangle::v3</text>
</a>
</g>
</g>
<!-- Node2&#45;&gt;Node8 -->
<g id="edge8" class="edge">
<title>Node2&#45;&gt;Node8</title>
<path fill="none" stroke="midnightblue" d="M305.64,-89.93C327.58,-82.63 354.57,-73.97 379,-67 387.41,-64.6 396.4,-62.21 405.14,-59.98"/>
<polygon fill="midnightblue" stroke="midnightblue" points="406.02,-63.37 414.87,-57.54 404.31,-56.58 406.02,-63.37"/>
</g>
<!-- Node6 -->
<g id="node6" class="node">
<title>Node6</title>
<g id="a_node6"><a xlink:href="../../da/da2/class_t___m_e_s_h_1_1_edge.html#a560eca8895471f987bd3228b13c40052" target="_top" xlink:title="Vertex shared with edge &#39;b&#39;. NULL if this and &#39;b&#39; do not share any vertex.">
<polygon fill="white" stroke="black" points="570,-76.5 570,-95.5 727,-95.5 727,-76.5 570,-76.5"/>
<text text-anchor="middle" x="648.5" y="-83.5" font-family="Helvetica,sans-Serif" font-size="10.00">T_MESH::Edge::commonVertex</text>
</a>
</g>
</g>
<!-- Node5&#45;&gt;Node6 -->
<g id="edge5" class="edge">
<title>Node5&#45;&gt;Node6</title>
<path fill="none" stroke="midnightblue" d="M505.45,-114.41C531.08,-109.28 562.84,-102.93 589.82,-97.54"/>
<polygon fill="midnightblue" stroke="midnightblue" points="590.78,-100.91 599.9,-95.52 589.41,-94.05 590.78,-100.91"/>
</g>
<!-- Node7&#45;&gt;Node6 -->
<g id="edge7" class="edge">
<title>Node7&#45;&gt;Node6</title>
<path fill="none" stroke="midnightblue" d="M513.74,-86C528.19,-86 544.08,-86 559.72,-86"/>
<polygon fill="midnightblue" stroke="midnightblue" points="559.94,-89.5 569.94,-86 559.94,-82.5 559.94,-89.5"/>
</g>
<!-- Node8&#45;&gt;Node6 -->
<g id="edge9" class="edge">
<title>Node8&#45;&gt;Node6</title>
<path fill="none" stroke="midnightblue" d="M505.45,-57.59C531.08,-62.72 562.84,-69.07 589.82,-74.46"/>
<polygon fill="midnightblue" stroke="midnightblue" points="589.41,-77.95 599.9,-76.48 590.78,-71.09 589.41,-77.95"/>
</g>
<!-- Node10 -->
<g id="node10" class="node">
<title>Node10</title>
<g id="a_node10"><a xlink:href="../../d2/d8e/class_t___m_e_s_h_1_1_point.html#a9772b28d248a5198f2421bd510f263ba" target="_top" xlink:title="Squared distance from origin.">
<polygon fill="white" stroke="black" points="379,-0.5 379,-19.5 534,-19.5 534,-0.5 379,-0.5"/>
<text text-anchor="middle" x="456.5" y="-7.5" font-family="Helvetica,sans-Serif" font-size="10.00">T_MESH::Point::squaredLength</text>
</a>
</g>
</g>
<!-- Node9&#45;&gt;Node10 -->
<g id="edge11" class="edge">
<title>Node9&#45;&gt;Node10</title>
<path fill="none" stroke="midnightblue" d="M314.26,-35.48C338.52,-31.1 367.49,-25.88 392.86,-21.3"/>
<polygon fill="midnightblue" stroke="midnightblue" points="393.54,-24.74 402.76,-19.52 392.29,-17.85 393.54,-24.74"/>
</g>
</g>
</svg>
