<?xml version="1.0" encoding="UTF-8" standalone="no"?>
<!DOCTYPE svg PUBLIC "-//W3C//DTD SVG 1.1//EN"
 "http://www.w3.org/Graphics/SVG/1.1/DTD/svg11.dtd">
<!-- Generated by graphviz version 2.44.1 (0)
 -->
<!-- Title: T_MESH::Triangle::isExactlyDegenerate Pages: 1 -->
<svg width="1354pt" height="425pt"
 viewBox="0.00 0.00 1354.00 424.76" xmlns="http://www.w3.org/2000/svg" xmlns:xlink="http://www.w3.org/1999/xlink">
<g id="graph0" class="graph" transform="scale(1 1) rotate(0) translate(4 420.76)">
<title>T_MESH::Triangle::isExactlyDegenerate</title>
<polygon fill="white" stroke="transparent" points="-4,4 -4,-420.76 1350,-420.76 1350,4 -4,4"/>
<!-- Node1 -->
<g id="node1" class="node">
<title>Node1</title>
<g id="a_node1"><a xlink:title="Degeneracy check using exact predicates. Return TRUE iff triangle has zero area.">
<polygon fill="#bfbfbf" stroke="black" points="1202,-256.5 1202,-286.5 1346,-286.5 1346,-256.5 1202,-256.5"/>
<text text-anchor="start" x="1210" y="-274.5" font-family="Helvetica,sans-Serif" font-size="10.00">T_MESH::Triangle::isExactly</text>
<text text-anchor="middle" x="1274" y="-263.5" font-family="Helvetica,sans-Serif" font-size="10.00">Degenerate</text>
</a>
</g>
</g>
<!-- Node2 -->
<g id="node2" class="node">
<title>Node2</title>
<g id="a_node2"><a xlink:href="../../d6/d27/class_t___m_e_s_h_1_1_basic___t_mesh.html#a1270b60eec84c1f939d405d9ade1a94e" target="_top" xlink:title="Iteratively call strongDegeneracyRemoval and strongIntersectionRemoval to produce an eventually clean...">
<polygon fill="white" stroke="black" points="684,-327.5 684,-357.5 807,-357.5 807,-327.5 684,-327.5"/>
<text text-anchor="start" x="692" y="-345.5" font-family="Helvetica,sans-Serif" font-size="10.00">T_MESH::Basic_TMesh</text>
<text text-anchor="middle" x="745.5" y="-334.5" font-family="Helvetica,sans-Serif" font-size="10.00">::meshclean</text>
</a>
</g>
</g>
<!-- Node1&#45;&gt;Node2 -->
<g id="edge1" class="edge">
<title>Node1&#45;&gt;Node2</title>
<path fill="none" stroke="midnightblue" d="M1250.18,-293.52C1229.92,-311.43 1198.55,-335.34 1166,-345.5 1043.29,-383.8 890.38,-367.86 807.24,-354.27"/>
<polygon fill="midnightblue" stroke="midnightblue" points="1252.59,-296.06 1257.64,-286.75 1247.88,-290.88 1252.59,-296.06"/>
</g>
<!-- Node20 -->
<g id="node20" class="node">
<title>Node20</title>
<g id="a_node20"><a xlink:href="../../d6/d27/class_t___m_e_s_h_1_1_basic___t_mesh.html#a0d3d258b609de824682434525a2eeb13" target="_top" xlink:title="Looks for zero&#45;area triangles and resolve them by splits and collapses.">
<polygon fill="white" stroke="black" points="1020.5,-305.5 1020.5,-335.5 1165.5,-335.5 1165.5,-305.5 1020.5,-305.5"/>
<text text-anchor="start" x="1028.5" y="-323.5" font-family="Helvetica,sans-Serif" font-size="10.00">T_MESH::Basic_TMesh</text>
<text text-anchor="middle" x="1093" y="-312.5" font-family="Helvetica,sans-Serif" font-size="10.00">::removeDegenerateTriangles</text>
</a>
</g>
</g>
<!-- Node1&#45;&gt;Node20 -->
<g id="edge27" class="edge">
<title>Node1&#45;&gt;Node20</title>
<path fill="none" stroke="midnightblue" d="M1208.16,-289.25C1188.76,-294.56 1167.69,-300.33 1148.98,-305.45"/>
<polygon fill="midnightblue" stroke="midnightblue" points="1209.11,-292.62 1217.83,-286.6 1207.26,-285.87 1209.11,-292.62"/>
</g>
<!-- Node22 -->
<g id="node22" class="node">
<title>Node22</title>
<g id="a_node22"><a xlink:href="../../d5/d7f/class_t___m_e_s_h_1_1_vertex.html#ae68a594aa67b93af92c5a6f57296f32d" target="_top" xlink:title="Unlinks the vertex if it is either Flat() or DoubleFlat().">
<polygon fill="white" stroke="black" points="1025.5,-256.5 1025.5,-286.5 1160.5,-286.5 1160.5,-256.5 1025.5,-256.5"/>
<text text-anchor="start" x="1033.5" y="-274.5" font-family="Helvetica,sans-Serif" font-size="10.00">T_MESH::Vertex::removeIf</text>
<text text-anchor="middle" x="1093" y="-263.5" font-family="Helvetica,sans-Serif" font-size="10.00">Redundant</text>
</a>
</g>
</g>
<!-- Node1&#45;&gt;Node22 -->
<g id="edge30" class="edge">
<title>Node1&#45;&gt;Node22</title>
<path fill="none" stroke="midnightblue" d="M1191.98,-271.5C1181.47,-271.5 1170.79,-271.5 1160.55,-271.5"/>
<polygon fill="midnightblue" stroke="midnightblue" points="1192,-275 1202,-271.5 1192,-268 1192,-275"/>
</g>
<!-- Node24 -->
<g id="node24" class="node">
<title>Node24</title>
<g id="a_node24"><a xlink:href="../../d6/d27/class_t___m_e_s_h_1_1_basic___t_mesh.html#a0d6037f1cb9166537f576f93bb38fea3" target="_top" xlink:title="Removes overlapping triangles and return their number.">
<polygon fill="white" stroke="black" points="1020,-207.5 1020,-237.5 1166,-237.5 1166,-207.5 1020,-207.5"/>
<text text-anchor="start" x="1028" y="-225.5" font-family="Helvetica,sans-Serif" font-size="10.00">T_MESH::Basic_TMesh</text>
<text text-anchor="middle" x="1093" y="-214.5" font-family="Helvetica,sans-Serif" font-size="10.00">::removeOverlappingTriangles</text>
</a>
</g>
</g>
<!-- Node1&#45;&gt;Node24 -->
<g id="edge32" class="edge">
<title>Node1&#45;&gt;Node24</title>
<path fill="none" stroke="midnightblue" d="M1208.16,-253.75C1188.76,-248.44 1167.69,-242.67 1148.98,-237.55"/>
<polygon fill="midnightblue" stroke="midnightblue" points="1207.26,-257.13 1217.83,-256.4 1209.11,-250.38 1207.26,-257.13"/>
</g>
<!-- Node25 -->
<g id="node25" class="node">
<title>Node25</title>
<g id="a_node25"><a xlink:href="../../d6/d27/class_t___m_e_s_h_1_1_basic___t_mesh.html#a6c419b3b7ebd44fca9fdc7a048ff7b52" target="_top" xlink:title="Retriangulates the vertex neghborhood based on heuristics.">
<polygon fill="white" stroke="black" points="1031.5,-158.5 1031.5,-188.5 1154.5,-188.5 1154.5,-158.5 1031.5,-158.5"/>
<text text-anchor="start" x="1039.5" y="-176.5" font-family="Helvetica,sans-Serif" font-size="10.00">T_MESH::Basic_TMesh</text>
<text text-anchor="middle" x="1093" y="-165.5" font-family="Helvetica,sans-Serif" font-size="10.00">::retriangulateVT</text>
</a>
</g>
</g>
<!-- Node1&#45;&gt;Node25 -->
<g id="edge33" class="edge">
<title>Node1&#45;&gt;Node25</title>
<path fill="none" stroke="midnightblue" d="M1246.63,-250.09C1225.74,-233.94 1195.3,-212.14 1166,-197.5 1159.4,-194.2 1152.24,-191.2 1145.09,-188.52"/>
<polygon fill="midnightblue" stroke="midnightblue" points="1244.66,-253 1254.69,-256.41 1248.98,-247.49 1244.66,-253"/>
</g>
<!-- Node3 -->
<g id="node3" class="node">
<title>Node3</title>
<g id="a_node3"><a xlink:href="../../d2/d68/class_export_open_scad_tool.html#a6e48e9b58a764bc8032b1fbc4082603d" target="_top" xlink:title=" ">
<polygon fill="white" stroke="black" points="533,-371.5 533,-401.5 642,-401.5 642,-371.5 533,-371.5"/>
<text text-anchor="start" x="541" y="-389.5" font-family="Helvetica,sans-Serif" font-size="10.00">ExportOpenScadTool</text>
<text text-anchor="middle" x="587.5" y="-378.5" font-family="Helvetica,sans-Serif" font-size="10.00">::fixMesh</text>
</a>
</g>
</g>
<!-- Node2&#45;&gt;Node3 -->
<g id="edge2" class="edge">
<title>Node2&#45;&gt;Node3</title>
<path fill="none" stroke="midnightblue" d="M681.35,-360.31C668.22,-364.02 654.51,-367.88 641.77,-371.47"/>
<polygon fill="midnightblue" stroke="midnightblue" points="682.58,-363.6 691.25,-357.52 680.68,-356.87 682.58,-363.6"/>
</g>
<!-- Node8 -->
<g id="node8" class="node">
<title>Node8</title>
<g id="a_node8"><a xlink:href="../../dd/d00/class_export_s_t_l_tool.html#a82d1e11c365c1ed2adf6d831b7f6014f" target="_top" xlink:title=" ">
<polygon fill="white" stroke="black" points="527,-333 527,-352 648,-352 648,-333 527,-333"/>
<text text-anchor="middle" x="587.5" y="-340" font-family="Helvetica,sans-Serif" font-size="10.00">ExportSTLTool::fixMesh</text>
</a>
</g>
</g>
<!-- Node2&#45;&gt;Node8 -->
<g id="edge9" class="edge">
<title>Node2&#45;&gt;Node8</title>
<path fill="none" stroke="midnightblue" d="M673.47,-342.5C664.98,-342.5 656.38,-342.5 648.07,-342.5"/>
<polygon fill="midnightblue" stroke="midnightblue" points="673.74,-346 683.74,-342.5 673.74,-339 673.74,-346"/>
</g>
<!-- Node10 -->
<g id="node10" class="node">
<title>Node10</title>
<g id="a_node10"><a xlink:href="../../d9/dc6/class_main_window.html#a15f9fa9fe71b50669ecf5f5a3a1ce90e" target="_top" xlink:title="Import STL / OBJ mesh into the scene.">
<polygon fill="white" stroke="black" points="527,-178 527,-197 648,-197 648,-178 527,-178"/>
<text text-anchor="middle" x="587.5" y="-185" font-family="Helvetica,sans-Serif" font-size="10.00">MainWindow::loadMesh</text>
</a>
</g>
</g>
<!-- Node2&#45;&gt;Node10 -->
<g id="edge11" class="edge">
<title>Node2&#45;&gt;Node10</title>
<path fill="none" stroke="midnightblue" d="M721.95,-320.1C687.33,-285.7 622.53,-221.31 598.13,-197.06"/>
<polygon fill="midnightblue" stroke="midnightblue" points="719.7,-322.79 729.26,-327.36 724.63,-317.82 719.7,-322.79"/>
</g>
<!-- Node4 -->
<g id="node4" class="node">
<title>Node4</title>
<g id="a_node4"><a xlink:href="../../d2/d68/class_export_open_scad_tool.html#a2e36901501e307b74705aa84f4227d67" target="_top" xlink:title="Export the wiring in the openscad format.">
<polygon fill="white" stroke="black" points="362,-371.5 362,-401.5 471,-401.5 471,-371.5 362,-371.5"/>
<text text-anchor="start" x="370" y="-389.5" font-family="Helvetica,sans-Serif" font-size="10.00">ExportOpenScadTool</text>
<text text-anchor="middle" x="416.5" y="-378.5" font-family="Helvetica,sans-Serif" font-size="10.00">::writeWiring</text>
</a>
</g>
</g>
<!-- Node3&#45;&gt;Node4 -->
<g id="edge3" class="edge">
<title>Node3&#45;&gt;Node4</title>
<path fill="none" stroke="midnightblue" d="M522.25,-386.5C505.42,-386.5 487.44,-386.5 471.21,-386.5"/>
<polygon fill="midnightblue" stroke="midnightblue" points="522.56,-390 532.56,-386.5 522.56,-383 522.56,-390"/>
</g>
<!-- Node5 -->
<g id="node5" class="node">
<title>Node5</title>
<g id="a_node5"><a xlink:href="../../d2/d68/class_export_open_scad_tool.html#a71ef67a238fb9cd74563b65d77c1ea73" target="_top" xlink:title=" ">
<polygon fill="white" stroke="black" points="13,-371.5 13,-401.5 122,-401.5 122,-371.5 13,-371.5"/>
<text text-anchor="start" x="21" y="-389.5" font-family="Helvetica,sans-Serif" font-size="10.00">ExportOpenScadTool</text>
<text text-anchor="middle" x="67.5" y="-378.5" font-family="Helvetica,sans-Serif" font-size="10.00">::execute</text>
</a>
</g>
</g>
<!-- Node4&#45;&gt;Node5 -->
<g id="edge4" class="edge">
<title>Node4&#45;&gt;Node5</title>
<path fill="none" stroke="midnightblue" d="M351.75,-403.59C336.85,-406.87 320.96,-409.81 306,-411.5 246.38,-418.22 230.57,-418.66 171,-411.5 154.09,-409.47 135.94,-405.61 119.68,-401.53"/>
<polygon fill="midnightblue" stroke="midnightblue" points="352.92,-406.91 361.89,-401.27 351.36,-400.08 352.92,-406.91"/>
</g>
<!-- Node6 -->
<g id="node6" class="node">
<title>Node6</title>
<g id="a_node6"><a xlink:href="../../d2/d68/class_export_open_scad_tool.html#a9c35cf64ece9ee328df6ebfd080c0689" target="_top" xlink:title="Export the meshdifference between mesh and wiring in the openscad format.">
<polygon fill="white" stroke="black" points="184,-371.5 184,-401.5 293,-401.5 293,-371.5 184,-371.5"/>
<text text-anchor="start" x="192" y="-389.5" font-family="Helvetica,sans-Serif" font-size="10.00">ExportOpenScadTool</text>
<text text-anchor="middle" x="238.5" y="-378.5" font-family="Helvetica,sans-Serif" font-size="10.00">::writeDifference</text>
</a>
</g>
</g>
<!-- Node4&#45;&gt;Node6 -->
<g id="edge5" class="edge">
<title>Node4&#45;&gt;Node6</title>
<path fill="none" stroke="midnightblue" d="M351.6,-386.5C332.45,-386.5 311.66,-386.5 293.24,-386.5"/>
<polygon fill="midnightblue" stroke="midnightblue" points="351.74,-390 361.74,-386.5 351.74,-383 351.74,-390"/>
</g>
<!-- Node7 -->
<g id="node7" class="node">
<title>Node7</title>
<g id="a_node7"><a xlink:href="../../d2/d68/class_export_open_scad_tool.html#adc9cf506ecd2ef6e33f37f2eb206da1a" target="_top" xlink:title="Export the meshdifference between mesh and magnets in the openscad format.">
<polygon fill="white" stroke="black" points="176,-322.5 176,-352.5 301,-352.5 301,-322.5 176,-322.5"/>
<text text-anchor="start" x="184" y="-340.5" font-family="Helvetica,sans-Serif" font-size="10.00">ExportOpenScadTool</text>
<text text-anchor="middle" x="238.5" y="-329.5" font-family="Helvetica,sans-Serif" font-size="10.00">::writeDifferenceMagnets</text>
</a>
</g>
</g>
<!-- Node4&#45;&gt;Node7 -->
<g id="edge7" class="edge">
<title>Node4&#45;&gt;Node7</title>
<path fill="none" stroke="midnightblue" d="M351.91,-368.8C332.78,-363.47 311.99,-357.68 293.54,-352.55"/>
<polygon fill="midnightblue" stroke="midnightblue" points="351.17,-372.22 361.74,-371.53 353.04,-365.48 351.17,-372.22"/>
</g>
<!-- Node6&#45;&gt;Node5 -->
<g id="edge6" class="edge">
<title>Node6&#45;&gt;Node5</title>
<path fill="none" stroke="midnightblue" d="M173.25,-386.5C156.42,-386.5 138.44,-386.5 122.21,-386.5"/>
<polygon fill="midnightblue" stroke="midnightblue" points="173.56,-390 183.56,-386.5 173.56,-383 173.56,-390"/>
</g>
<!-- Node7&#45;&gt;Node5 -->
<g id="edge8" class="edge">
<title>Node7&#45;&gt;Node5</title>
<path fill="none" stroke="midnightblue" d="M175.78,-355.39C157.61,-360.66 137.91,-366.38 120.41,-371.45"/>
<polygon fill="midnightblue" stroke="midnightblue" points="176.79,-358.75 185.42,-352.6 174.84,-352.02 176.79,-358.75"/>
</g>
<!-- Node9 -->
<g id="node9" class="node">
<title>Node9</title>
<g id="a_node9"><a xlink:href="../../dd/d00/class_export_s_t_l_tool.html#a218420198ac8fef5b9f9a8acc889307d" target="_top" xlink:title=" ">
<polygon fill="white" stroke="black" points="356,-333 356,-352 477,-352 477,-333 356,-333"/>
<text text-anchor="middle" x="416.5" y="-340" font-family="Helvetica,sans-Serif" font-size="10.00">ExportSTLTool::execute</text>
</a>
</g>
</g>
<!-- Node8&#45;&gt;Node9 -->
<g id="edge10" class="edge">
<title>Node8&#45;&gt;Node9</title>
<path fill="none" stroke="midnightblue" d="M516.54,-342.5C503.44,-342.5 489.86,-342.5 477.11,-342.5"/>
<polygon fill="midnightblue" stroke="midnightblue" points="516.92,-346 526.92,-342.5 516.92,-339 516.92,-346"/>
</g>
<!-- Node11 -->
<g id="node11" class="node">
<title>Node11</title>
<g id="a_node11"><a xlink:href="../../d9/dc6/class_main_window.html#a6e3c9bc26115fb1b1664607e58716641" target="_top" xlink:title=" ">
<polygon fill="white" stroke="black" points="343.5,-295 343.5,-314 489.5,-314 489.5,-295 343.5,-295"/>
<text text-anchor="middle" x="416.5" y="-302" font-family="Helvetica,sans-Serif" font-size="10.00">MainWindow::slotImportMesh</text>
</a>
</g>
</g>
<!-- Node10&#45;&gt;Node11 -->
<g id="edge12" class="edge">
<title>Node10&#45;&gt;Node11</title>
<path fill="none" stroke="midnightblue" d="M573.81,-205.25C557.23,-227.13 526.14,-263.94 491,-284.5 483.58,-288.84 475.19,-292.27 466.8,-294.96"/>
<polygon fill="midnightblue" stroke="midnightblue" points="576.68,-207.25 579.81,-197.13 571.05,-203.09 576.68,-207.25"/>
</g>
<!-- Node14 -->
<g id="node14" class="node">
<title>Node14</title>
<g id="a_node14"><a xlink:href="../../d9/dc6/class_main_window.html#a46bb2fea8ddeab75e15a223c291116b6" target="_top" xlink:title=" ">
<polygon fill="white" stroke="black" points="342,-245.5 342,-275.5 491,-275.5 491,-245.5 342,-245.5"/>
<text text-anchor="start" x="350" y="-263.5" font-family="Helvetica,sans-Serif" font-size="10.00">MainWindow::slotOptimization</text>
<text text-anchor="middle" x="416.5" y="-252.5" font-family="Helvetica,sans-Serif" font-size="10.00">BenchmarkBunnyLowPoly</text>
</a>
</g>
</g>
<!-- Node10&#45;&gt;Node14 -->
<g id="edge15" class="edge">
<title>Node10&#45;&gt;Node14</title>
<path fill="none" stroke="midnightblue" d="M560.32,-201.89C541.39,-211.99 515.01,-225.44 491,-235.5 482.67,-238.99 473.67,-242.37 464.91,-245.45"/>
<polygon fill="midnightblue" stroke="midnightblue" points="562.09,-204.91 569.24,-197.09 558.77,-198.75 562.09,-204.91"/>
</g>
<!-- Node15 -->
<g id="node15" class="node">
<title>Node15</title>
<g id="a_node15"><a xlink:href="../../d9/dc6/class_main_window.html#affed0fab82fd390e2762933c6dca9124" target="_top" xlink:title=" ">
<polygon fill="white" stroke="black" points="342,-196.5 342,-226.5 491,-226.5 491,-196.5 342,-196.5"/>
<text text-anchor="start" x="350" y="-214.5" font-family="Helvetica,sans-Serif" font-size="10.00">MainWindow::slotOptimization</text>
<text text-anchor="middle" x="416.5" y="-203.5" font-family="Helvetica,sans-Serif" font-size="10.00">BenchmarkCorona</text>
</a>
</g>
</g>
<!-- Node10&#45;&gt;Node15 -->
<g id="edge17" class="edge">
<title>Node10&#45;&gt;Node15</title>
<path fill="none" stroke="midnightblue" d="M516.99,-197.37C508.44,-198.59 499.67,-199.83 491.06,-201.05"/>
<polygon fill="midnightblue" stroke="midnightblue" points="517.51,-200.83 526.92,-195.96 516.52,-193.9 517.51,-200.83"/>
</g>
<!-- Node16 -->
<g id="node16" class="node">
<title>Node16</title>
<g id="a_node16"><a xlink:href="../../d9/dc6/class_main_window.html#adfdb8fcb8685844e8ce11bfb41b83b7d" target="_top" xlink:title=" ">
<polygon fill="white" stroke="black" points="342,-147.5 342,-177.5 491,-177.5 491,-147.5 342,-147.5"/>
<text text-anchor="start" x="350" y="-165.5" font-family="Helvetica,sans-Serif" font-size="10.00">MainWindow::slotOptimization</text>
<text text-anchor="middle" x="416.5" y="-154.5" font-family="Helvetica,sans-Serif" font-size="10.00">BenchmarkCthulhu</text>
</a>
</g>
</g>
<!-- Node10&#45;&gt;Node16 -->
<g id="edge19" class="edge">
<title>Node10&#45;&gt;Node16</title>
<path fill="none" stroke="midnightblue" d="M516.99,-177.22C508.44,-175.95 499.67,-174.66 491.06,-173.38"/>
<polygon fill="midnightblue" stroke="midnightblue" points="516.51,-180.68 526.92,-178.69 517.54,-173.76 516.51,-180.68"/>
</g>
<!-- Node17 -->
<g id="node17" class="node">
<title>Node17</title>
<g id="a_node17"><a xlink:href="../../d9/dc6/class_main_window.html#a5283a0d7aeeafd409c69b272053f3986" target="_top" xlink:title=" ">
<polygon fill="white" stroke="black" points="342,-98.5 342,-128.5 491,-128.5 491,-98.5 342,-98.5"/>
<text text-anchor="start" x="350" y="-116.5" font-family="Helvetica,sans-Serif" font-size="10.00">MainWindow::slotOptimization</text>
<text text-anchor="middle" x="416.5" y="-105.5" font-family="Helvetica,sans-Serif" font-size="10.00">BenchmarkCube</text>
</a>
</g>
</g>
<!-- Node10&#45;&gt;Node17 -->
<g id="edge21" class="edge">
<title>Node10&#45;&gt;Node17</title>
<path fill="none" stroke="midnightblue" d="M561.47,-172.92C542.52,-162.25 515.64,-147.89 491,-137.5 483.45,-134.32 475.33,-131.29 467.34,-128.52"/>
<polygon fill="midnightblue" stroke="midnightblue" points="559.92,-176.07 570.34,-177.97 563.38,-169.98 559.92,-176.07"/>
</g>
<!-- Node18 -->
<g id="node18" class="node">
<title>Node18</title>
<g id="a_node18"><a xlink:href="../../d9/dc6/class_main_window.html#a0c92ca2d04a79a1580c2e8e136b82682" target="_top" xlink:title=" ">
<polygon fill="white" stroke="black" points="342,-49.5 342,-79.5 491,-79.5 491,-49.5 342,-49.5"/>
<text text-anchor="start" x="350" y="-67.5" font-family="Helvetica,sans-Serif" font-size="10.00">MainWindow::slotOptimization</text>
<text text-anchor="middle" x="416.5" y="-56.5" font-family="Helvetica,sans-Serif" font-size="10.00">BenchmarkSphere</text>
</a>
</g>
</g>
<!-- Node10&#45;&gt;Node18 -->
<g id="edge23" class="edge">
<title>Node10&#45;&gt;Node18</title>
<path fill="none" stroke="midnightblue" d="M573.72,-169.66C557.05,-147.61 525.87,-110.34 491,-88.5 485.54,-85.08 479.54,-82.1 473.4,-79.51"/>
<polygon fill="midnightblue" stroke="midnightblue" points="571,-171.87 579.76,-177.83 576.63,-167.71 571,-171.87"/>
</g>
<!-- Node19 -->
<g id="node19" class="node">
<title>Node19</title>
<g id="a_node19"><a xlink:href="../../d9/dc6/class_main_window.html#a86cd359f80311725589d0861dd7a9851" target="_top" xlink:title=" ">
<polygon fill="white" stroke="black" points="342,-0.5 342,-30.5 491,-30.5 491,-0.5 342,-0.5"/>
<text text-anchor="start" x="350" y="-18.5" font-family="Helvetica,sans-Serif" font-size="10.00">MainWindow::slotOptimization</text>
<text text-anchor="middle" x="416.5" y="-7.5" font-family="Helvetica,sans-Serif" font-size="10.00">BenchmarkUChannel</text>
</a>
</g>
</g>
<!-- Node10&#45;&gt;Node19 -->
<g id="edge25" class="edge">
<title>Node10&#45;&gt;Node19</title>
<path fill="none" stroke="midnightblue" d="M579.27,-168.59C566.33,-137.21 536.26,-74.39 491,-39.5 486.53,-36.06 481.56,-33.1 476.35,-30.56"/>
<polygon fill="midnightblue" stroke="midnightblue" points="576.04,-169.94 583,-177.94 582.55,-167.35 576.04,-169.94"/>
</g>
<!-- Node12 -->
<g id="node12" class="node">
<title>Node12</title>
<g id="a_node12"><a xlink:href="../../d9/dc6/class_main_window.html#a33dddfc15db4053f9117728538e7ece4" target="_top" xlink:title="Set up qt specific signal and slots part for enabling user interaction.">
<polygon fill="white" stroke="black" points="171,-147.5 171,-177.5 306,-177.5 306,-147.5 171,-147.5"/>
<text text-anchor="start" x="179" y="-165.5" font-family="Helvetica,sans-Serif" font-size="10.00">MainWindow::setupSignals</text>
<text text-anchor="middle" x="238.5" y="-154.5" font-family="Helvetica,sans-Serif" font-size="10.00">AndSlots</text>
</a>
</g>
</g>
<!-- Node11&#45;&gt;Node12 -->
<g id="edge13" class="edge">
<title>Node11&#45;&gt;Node12</title>
<path fill="none" stroke="midnightblue" d="M354.92,-291.29C350.4,-289.33 346.04,-287.08 342,-284.5 298.18,-256.48 263.44,-203.82 248.08,-177.82"/>
<polygon fill="midnightblue" stroke="midnightblue" points="353.77,-294.6 364.36,-294.93 356.29,-288.07 353.77,-294.6"/>
</g>
<!-- Node13 -->
<g id="node13" class="node">
<title>Node13</title>
<g id="a_node13"><a xlink:href="../../d9/dc6/class_main_window.html#a996c5a2b6f77944776856f08ec30858d" target="_top" xlink:title=" ">
<polygon fill="white" stroke="black" points="0,-153 0,-172 135,-172 135,-153 0,-153"/>
<text text-anchor="middle" x="67.5" y="-160" font-family="Helvetica,sans-Serif" font-size="10.00">MainWindow::MainWindow</text>
</a>
</g>
</g>
<!-- Node12&#45;&gt;Node13 -->
<g id="edge14" class="edge">
<title>Node12&#45;&gt;Node13</title>
<path fill="none" stroke="midnightblue" d="M160.45,-162.5C151.98,-162.5 143.41,-162.5 135.08,-162.5"/>
<polygon fill="midnightblue" stroke="midnightblue" points="160.71,-166 170.71,-162.5 160.71,-159 160.71,-166"/>
</g>
<!-- Node14&#45;&gt;Node12 -->
<g id="edge16" class="edge">
<title>Node14&#45;&gt;Node12</title>
<path fill="none" stroke="midnightblue" d="M355.37,-241.68C350.78,-239.75 346.27,-237.69 342,-235.5 310.11,-219.17 277.01,-193.8 257.34,-177.68"/>
<polygon fill="midnightblue" stroke="midnightblue" points="354.29,-245.02 364.88,-245.46 356.88,-238.51 354.29,-245.02"/>
</g>
<!-- Node15&#45;&gt;Node12 -->
<g id="edge18" class="edge">
<title>Node15&#45;&gt;Node12</title>
<path fill="none" stroke="midnightblue" d="M351.49,-193.68C332.49,-188.39 311.87,-182.65 293.56,-177.55"/>
<polygon fill="midnightblue" stroke="midnightblue" points="350.69,-197.09 361.26,-196.4 352.56,-190.34 350.69,-197.09"/>
</g>
<!-- Node16&#45;&gt;Node12 -->
<g id="edge20" class="edge">
<title>Node16&#45;&gt;Node12</title>
<path fill="none" stroke="midnightblue" d="M331.8,-162.5C323.18,-162.5 314.5,-162.5 306.09,-162.5"/>
<polygon fill="midnightblue" stroke="midnightblue" points="331.88,-166 341.88,-162.5 331.88,-159 331.88,-166"/>
</g>
<!-- Node17&#45;&gt;Node12 -->
<g id="edge22" class="edge">
<title>Node17&#45;&gt;Node12</title>
<path fill="none" stroke="midnightblue" d="M351.49,-131.32C332.49,-136.61 311.87,-142.35 293.56,-147.45"/>
<polygon fill="midnightblue" stroke="midnightblue" points="352.56,-134.66 361.26,-128.6 350.69,-127.91 352.56,-134.66"/>
</g>
<!-- Node18&#45;&gt;Node12 -->
<g id="edge24" class="edge">
<title>Node18&#45;&gt;Node12</title>
<path fill="none" stroke="midnightblue" d="M353,-83.4C349.23,-85 345.53,-86.7 342,-88.5 309.72,-104.92 276.47,-130.91 256.91,-147.32"/>
<polygon fill="midnightblue" stroke="midnightblue" points="354.51,-86.57 362.5,-79.61 351.91,-80.06 354.51,-86.57"/>
</g>
<!-- Node19&#45;&gt;Node12 -->
<g id="edge26" class="edge">
<title>Node19&#45;&gt;Node12</title>
<path fill="none" stroke="midnightblue" d="M349.08,-35.16C346.64,-36.52 344.27,-37.96 342,-39.5 298.75,-68.83 263.74,-121.41 248.2,-147.28"/>
<polygon fill="midnightblue" stroke="midnightblue" points="350.81,-38.21 358.2,-30.63 347.69,-31.95 350.81,-38.21"/>
</g>
<!-- Node21 -->
<g id="node21" class="node">
<title>Node21</title>
<g id="a_node21"><a xlink:href="../../d6/d27/class_t___m_e_s_h_1_1_basic___t_mesh.html#af160de0b4a939ef2cb93279f67e6dd34" target="_top" xlink:title="Calls &#39;removeDegenerateTriangles()&#39; and, if some degeneracies remain, removes them and fills the resu...">
<polygon fill="white" stroke="black" points="843,-305.5 843,-335.5 984,-335.5 984,-305.5 843,-305.5"/>
<text text-anchor="start" x="851" y="-323.5" font-family="Helvetica,sans-Serif" font-size="10.00">T_MESH::Basic_TMesh</text>
<text text-anchor="middle" x="913.5" y="-312.5" font-family="Helvetica,sans-Serif" font-size="10.00">::strongDegeneracyRemoval</text>
</a>
</g>
</g>
<!-- Node20&#45;&gt;Node21 -->
<g id="edge28" class="edge">
<title>Node20&#45;&gt;Node21</title>
<path fill="none" stroke="midnightblue" d="M1010.17,-320.5C1001.47,-320.5 992.69,-320.5 984.15,-320.5"/>
<polygon fill="midnightblue" stroke="midnightblue" points="1010.32,-324 1020.32,-320.5 1010.32,-317 1010.32,-324"/>
</g>
<!-- Node21&#45;&gt;Node2 -->
<g id="edge29" class="edge">
<title>Node21&#45;&gt;Node2</title>
<path fill="none" stroke="midnightblue" d="M832.58,-331.09C824.01,-332.23 815.41,-333.37 807.13,-334.46"/>
<polygon fill="midnightblue" stroke="midnightblue" points="833.13,-334.55 842.58,-329.77 832.21,-327.61 833.13,-334.55"/>
</g>
<!-- Node23 -->
<g id="node23" class="node">
<title>Node23</title>
<g id="a_node23"><a xlink:href="../../d6/d27/class_t___m_e_s_h_1_1_basic___t_mesh.html#aa754eda7f26bb3d770882fcf625c83c3" target="_top" xlink:title="Removes all the vertices that can be deleted without changing the geometric realization....">
<polygon fill="white" stroke="black" points="845,-256.5 845,-286.5 982,-286.5 982,-256.5 845,-256.5"/>
<text text-anchor="start" x="853" y="-274.5" font-family="Helvetica,sans-Serif" font-size="10.00">T_MESH::Basic_TMesh</text>
<text text-anchor="middle" x="913.5" y="-263.5" font-family="Helvetica,sans-Serif" font-size="10.00">::removeRedundantVertices</text>
</a>
</g>
</g>
<!-- Node22&#45;&gt;Node23 -->
<g id="edge31" class="edge">
<title>Node22&#45;&gt;Node23</title>
<path fill="none" stroke="midnightblue" d="M1015.33,-271.5C1004.26,-271.5 992.94,-271.5 982.06,-271.5"/>
<polygon fill="midnightblue" stroke="midnightblue" points="1015.4,-275 1025.4,-271.5 1015.4,-268 1015.4,-275"/>
</g>
</g>
</svg>
