<?xml version="1.0" encoding="UTF-8" standalone="no"?>
<!DOCTYPE svg PUBLIC "-//W3C//DTD SVG 1.1//EN"
 "http://www.w3.org/Graphics/SVG/1.1/DTD/svg11.dtd">
<!-- Generated by graphviz version 2.44.1 (0)
 -->
<!-- Title: T_MESH::Triangle::intersects Pages: 1 -->
<svg width="1245pt" height="569pt"
 viewBox="0.00 0.00 1245.00 569.00" xmlns="http://www.w3.org/2000/svg" xmlns:xlink="http://www.w3.org/1999/xlink">
<g id="graph0" class="graph" transform="scale(1 1) rotate(0) translate(4 565)">
<title>T_MESH::Triangle::intersects</title>
<polygon fill="white" stroke="transparent" points="-4,4 -4,-565 1241,-565 1241,4 -4,4"/>
<!-- Node1 -->
<g id="node1" class="node">
<title>Node1</title>
<g id="a_node1"><a xlink:title="true if this triangle itersects &#39;t&#39; other than on common subsimplexes if &#39;justproper&#39; is true,...">
<polygon fill="#bfbfbf" stroke="black" points="0,-271.5 0,-290.5 146,-290.5 146,-271.5 0,-271.5"/>
<text text-anchor="middle" x="73" y="-278.5" font-family="Helvetica,sans-Serif" font-size="10.00">T_MESH::Triangle::intersects</text>
</a>
</g>
</g>
<!-- Node2 -->
<g id="node2" class="node">
<title>Node2</title>
<g id="a_node2"><a xlink:href="../../d8/d6e/class_t___m_e_s_h_1_1_triangle.html#ae2ae6f00e3b381ed333317bf8fb5953d" target="_top" xlink:title="If this triangle shares an edge with &#39;b&#39;, then such an edge is returned. NULL otherwise.">
<polygon fill="white" stroke="black" points="186.5,-541.5 186.5,-560.5 350.5,-560.5 350.5,-541.5 186.5,-541.5"/>
<text text-anchor="middle" x="268.5" y="-548.5" font-family="Helvetica,sans-Serif" font-size="10.00">T_MESH::Triangle::commonEdge</text>
</a>
</g>
</g>
<!-- Node1&#45;&gt;Node2 -->
<g id="edge1" class="edge">
<title>Node1&#45;&gt;Node2</title>
<path fill="none" stroke="midnightblue" d="M75.28,-290.73C80.67,-327.6 104.89,-460 182,-527 186.74,-531.11 192.12,-534.53 197.84,-537.36"/>
<polygon fill="midnightblue" stroke="midnightblue" points="196.48,-540.58 207.05,-541.34 199.26,-534.16 196.48,-540.58"/>
</g>
<!-- Node3 -->
<g id="node3" class="node">
<title>Node3</title>
<g id="a_node3"><a xlink:href="../../d8/d6e/class_t___m_e_s_h_1_1_triangle.html#ac8f0f2d0f1a3ab47110f30ca73970fb7" target="_top" xlink:title="If this triangle shares a vertex with &#39;b&#39;, then such a vertex is returned. NULL otherwise.">
<polygon fill="white" stroke="black" points="198,-378 198,-408 339,-408 339,-378 198,-378"/>
<text text-anchor="start" x="206" y="-396" font-family="Helvetica,sans-Serif" font-size="10.00">T_MESH::Triangle::common</text>
<text text-anchor="middle" x="268.5" y="-385" font-family="Helvetica,sans-Serif" font-size="10.00">Vertex</text>
</a>
</g>
</g>
<!-- Node1&#45;&gt;Node3 -->
<g id="edge2" class="edge">
<title>Node1&#45;&gt;Node3</title>
<path fill="none" stroke="midnightblue" d="M83.15,-290.74C100.64,-308.81 140.78,-347.61 182,-369 185.69,-370.92 189.56,-372.7 193.52,-374.35"/>
<polygon fill="midnightblue" stroke="midnightblue" points="192.31,-377.63 202.9,-377.97 194.83,-371.1 192.31,-377.63"/>
</g>
<!-- Node6 -->
<g id="node6" class="node">
<title>Node6</title>
<g id="a_node6"><a xlink:href="../../d8/d6e/class_t___m_e_s_h_1_1_triangle.html#a2511453b48f8c042e7aac67da3fff129" target="_top" xlink:title="Second adjacent triangle. NULL if boundary.">
<polygon fill="white" stroke="black" points="416.5,-502.5 416.5,-521.5 528.5,-521.5 528.5,-502.5 416.5,-502.5"/>
<text text-anchor="middle" x="472.5" y="-509.5" font-family="Helvetica,sans-Serif" font-size="10.00">T_MESH::Triangle::t2</text>
</a>
</g>
</g>
<!-- Node1&#45;&gt;Node6 -->
<g id="edge40" class="edge">
<title>Node1&#45;&gt;Node6</title>
<path fill="none" stroke="midnightblue" d="M75.52,-290.88C81.5,-325.89 106.83,-444.56 182,-494 253.34,-540.92 357.18,-533.58 419.17,-523.28"/>
<polygon fill="midnightblue" stroke="midnightblue" points="419.87,-526.71 429.12,-521.54 418.67,-519.81 419.87,-526.71"/>
</g>
<!-- Node8 -->
<g id="node8" class="node">
<title>Node8</title>
<g id="a_node8"><a xlink:href="../../d8/d6e/class_t___m_e_s_h_1_1_triangle.html#aa7b9f783f2e4339083f46d25d3eecf68" target="_top" xlink:title="First vertex.">
<polygon fill="white" stroke="black" points="415.5,-383.5 415.5,-402.5 529.5,-402.5 529.5,-383.5 415.5,-383.5"/>
<text text-anchor="middle" x="472.5" y="-390.5" font-family="Helvetica,sans-Serif" font-size="10.00">T_MESH::Triangle::v1</text>
</a>
</g>
</g>
<!-- Node1&#45;&gt;Node8 -->
<g id="edge41" class="edge">
<title>Node1&#45;&gt;Node8</title>
<path fill="none" stroke="midnightblue" d="M77.99,-290.74C89.45,-317.25 125.32,-390.51 182,-418 251.18,-451.56 278.54,-426.11 355,-418 378.97,-415.46 405.26,-410.05 426.79,-404.91"/>
<polygon fill="midnightblue" stroke="midnightblue" points="427.75,-408.28 436.64,-402.5 426.09,-401.48 427.75,-408.28"/>
</g>
<!-- Node10 -->
<g id="node10" class="node">
<title>Node10</title>
<g id="a_node10"><a xlink:href="../../d8/d6e/class_t___m_e_s_h_1_1_triangle.html#a1bf6a231440a3c73a931c1cfccfee574" target="_top" xlink:title="Second vertex.">
<polygon fill="white" stroke="black" points="415.5,-345.5 415.5,-364.5 529.5,-364.5 529.5,-345.5 415.5,-345.5"/>
<text text-anchor="middle" x="472.5" y="-352.5" font-family="Helvetica,sans-Serif" font-size="10.00">T_MESH::Triangle::v2</text>
</a>
</g>
</g>
<!-- Node1&#45;&gt;Node10 -->
<g id="edge42" class="edge">
<title>Node1&#45;&gt;Node10</title>
<path fill="none" stroke="midnightblue" d="M146.17,-285.43C203.62,-290.28 285.62,-300.19 355,-320 371.84,-324.81 374.41,-330.41 391,-336 398.46,-338.51 406.42,-340.82 414.32,-342.9"/>
<polygon fill="midnightblue" stroke="midnightblue" points="413.71,-346.35 424.26,-345.4 415.42,-339.57 413.71,-346.35"/>
</g>
<!-- Node11 -->
<g id="node11" class="node">
<title>Node11</title>
<g id="a_node11"><a xlink:href="../../d8/d6e/class_t___m_e_s_h_1_1_triangle.html#a0c4c2a2ba6b0c975aa3d260f00785e8f" target="_top" xlink:title="Third vertex.">
<polygon fill="white" stroke="black" points="415.5,-307.5 415.5,-326.5 529.5,-326.5 529.5,-307.5 415.5,-307.5"/>
<text text-anchor="middle" x="472.5" y="-314.5" font-family="Helvetica,sans-Serif" font-size="10.00">T_MESH::Triangle::v3</text>
</a>
</g>
</g>
<!-- Node1&#45;&gt;Node11 -->
<g id="edge43" class="edge">
<title>Node1&#45;&gt;Node11</title>
<path fill="none" stroke="midnightblue" d="M146.27,-277.5C203.25,-275.9 284.57,-276.15 355,-286 381.6,-289.72 410.81,-297.5 433.33,-304.34"/>
<polygon fill="midnightblue" stroke="midnightblue" points="432.58,-307.77 443.17,-307.39 434.66,-301.09 432.58,-307.77"/>
</g>
<!-- Node12 -->
<g id="node12" class="node">
<title>Node12</title>
<g id="a_node12"><a xlink:href="../../d2/d8e/class_t___m_e_s_h_1_1_point.html#a16ed7eb5cd98505d86668c4eb0590645" target="_top" xlink:title="Exact orientation test.">
<polygon fill="white" stroke="black" points="391,-170.5 391,-189.5 554,-189.5 554,-170.5 391,-170.5"/>
<text text-anchor="middle" x="472.5" y="-177.5" font-family="Helvetica,sans-Serif" font-size="10.00">T_MESH::Point::exactOrientation</text>
</a>
</g>
</g>
<!-- Node1&#45;&gt;Node12 -->
<g id="edge13" class="edge">
<title>Node1&#45;&gt;Node12</title>
<path fill="none" stroke="midnightblue" d="M111.4,-271.5C184.05,-253.04 344.14,-212.36 424.11,-192.04"/>
<polygon fill="midnightblue" stroke="midnightblue" points="425.08,-195.41 433.91,-189.55 423.36,-188.62 425.08,-195.41"/>
</g>
<!-- Node15 -->
<g id="node15" class="node">
<title>Node15</title>
<g id="a_node15"><a xlink:href="../../d2/d8e/class_t___m_e_s_h_1_1_point.html#a882a22d815f18d8327787012a120637c" target="_top" xlink:title="Exact planar side test.">
<polygon fill="white" stroke="black" points="402,-121 402,-151 543,-151 543,-121 402,-121"/>
<text text-anchor="start" x="410" y="-139" font-family="Helvetica,sans-Serif" font-size="10.00">T_MESH::Point::exactSame</text>
<text text-anchor="middle" x="472.5" y="-128" font-family="Helvetica,sans-Serif" font-size="10.00">SideOnPlane</text>
</a>
</g>
</g>
<!-- Node1&#45;&gt;Node15 -->
<g id="edge16" class="edge">
<title>Node1&#45;&gt;Node15</title>
<path fill="none" stroke="midnightblue" d="M78.89,-271.22C91.79,-246.63 129.41,-182.29 182,-156 247.07,-123.47 330.84,-121.27 391.51,-125.54"/>
<polygon fill="midnightblue" stroke="midnightblue" points="391.56,-129.06 401.8,-126.34 392.1,-122.08 391.56,-129.06"/>
</g>
<!-- Node18 -->
<g id="node18" class="node">
<title>Node18</title>
<g id="a_node18"><a xlink:href="../../da/da2/class_t___m_e_s_h_1_1_edge.html#ac4092a9c114249ca5a02435fe704cdb4" target="_top" xlink:title="TRUE if both &#39;va&#39; and &#39;vb&#39; are vertices of the edge.">
<polygon fill="white" stroke="black" points="197,-0.5 197,-19.5 340,-19.5 340,-0.5 197,-0.5"/>
<text text-anchor="middle" x="268.5" y="-7.5" font-family="Helvetica,sans-Serif" font-size="10.00">T_MESH::Edge::hasVertices</text>
</a>
</g>
</g>
<!-- Node1&#45;&gt;Node18 -->
<g id="edge19" class="edge">
<title>Node1&#45;&gt;Node18</title>
<path fill="none" stroke="midnightblue" d="M75.02,-271.42C79.57,-233.91 101.39,-95.84 182,-29 184,-27.34 186.11,-25.82 188.31,-24.43"/>
<polygon fill="midnightblue" stroke="midnightblue" points="190.04,-27.47 197.19,-19.65 186.72,-21.31 190.04,-27.47"/>
</g>
<!-- Node19 -->
<g id="node19" class="node">
<title>Node19</title>
<g id="a_node19"><a xlink:href="../../d2/d8e/class_t___m_e_s_h_1_1_point.html#a892d5d924741499540373924c3ef337e" target="_top" xlink:title="true if the interior of (p1&#45;p2) properly intersects the interior of (sp1&#45;sp2).">
<polygon fill="white" stroke="black" points="190,-165 190,-195 347,-195 347,-165 190,-165"/>
<text text-anchor="start" x="198" y="-183" font-family="Helvetica,sans-Serif" font-size="10.00">T_MESH::Point::innerSegments</text>
<text text-anchor="middle" x="268.5" y="-172" font-family="Helvetica,sans-Serif" font-size="10.00">Cross</text>
</a>
</g>
</g>
<!-- Node1&#45;&gt;Node19 -->
<g id="edge20" class="edge">
<title>Node1&#45;&gt;Node19</title>
<path fill="none" stroke="midnightblue" d="M86.36,-271.42C105.82,-256.67 145.2,-228.21 182,-210 190.28,-205.9 199.27,-202.1 208.2,-198.68"/>
<polygon fill="midnightblue" stroke="midnightblue" points="209.66,-201.88 217.82,-195.13 207.23,-195.31 209.66,-201.88"/>
</g>
<!-- Node20 -->
<g id="node20" class="node">
<title>Node20</title>
<g id="a_node20"><a xlink:href="../../d8/d6e/class_t___m_e_s_h_1_1_triangle.html#a77cc688b97fd6501b5dca8385fce4137" target="_top" xlink:title="Triangle&#39;s edge opposite to &#39;v&#39;. NULL if &#39;v&#39; is not a vertex of the triangle.">
<polygon fill="white" stroke="black" points="187,-465.5 187,-484.5 350,-484.5 350,-465.5 187,-465.5"/>
<text text-anchor="middle" x="268.5" y="-472.5" font-family="Helvetica,sans-Serif" font-size="10.00">T_MESH::Triangle::oppositeEdge</text>
</a>
</g>
</g>
<!-- Node1&#45;&gt;Node20 -->
<g id="edge23" class="edge">
<title>Node1&#45;&gt;Node20</title>
<path fill="none" stroke="midnightblue" d="M77.35,-290.83C87.82,-320.04 122.79,-406.98 182,-451 187.87,-455.36 194.5,-458.93 201.41,-461.85"/>
<polygon fill="midnightblue" stroke="midnightblue" points="200.36,-465.2 210.95,-465.45 202.83,-458.65 200.36,-465.2"/>
</g>
<!-- Node21 -->
<g id="node21" class="node">
<title>Node21</title>
<g id="a_node21"><a xlink:href="../../d8/d6e/class_t___m_e_s_h_1_1_triangle.html#a5332cb4780fa56bdd9e95b250defc82c" target="_top" xlink:title="Triangle&#39;s vertex opposite to &#39;e&#39;. NULL if &#39;e&#39; is not an edge of the triangle.">
<polygon fill="white" stroke="black" points="198.5,-329 198.5,-359 338.5,-359 338.5,-329 198.5,-329"/>
<text text-anchor="start" x="206.5" y="-347" font-family="Helvetica,sans-Serif" font-size="10.00">T_MESH::Triangle::opposite</text>
<text text-anchor="middle" x="268.5" y="-336" font-family="Helvetica,sans-Serif" font-size="10.00">Vertex</text>
</a>
</g>
</g>
<!-- Node1&#45;&gt;Node21 -->
<g id="edge25" class="edge">
<title>Node1&#45;&gt;Node21</title>
<path fill="none" stroke="midnightblue" d="M103.39,-290.57C131.99,-299.88 176.19,-314.27 211.52,-325.77"/>
<polygon fill="midnightblue" stroke="midnightblue" points="210.64,-329.17 221.23,-328.93 212.8,-322.51 210.64,-329.17"/>
</g>
<!-- Node22 -->
<g id="node22" class="node">
<title>Node22</title>
<g id="a_node22"><a xlink:href="../../d2/d8e/class_t___m_e_s_h_1_1_point.html#abde09ee10e5163f8e7a6143e0c66b96c" target="_top" xlink:title="true if the coplanar point &#39;p&#39; is either in the inner area of v1&#45;v2&#45;v3 or on its border.">
<polygon fill="white" stroke="black" points="191,-38.5 191,-57.5 346,-57.5 346,-38.5 191,-38.5"/>
<text text-anchor="middle" x="268.5" y="-45.5" font-family="Helvetica,sans-Serif" font-size="10.00">T_MESH::Point::pointInTriangle</text>
</a>
</g>
</g>
<!-- Node1&#45;&gt;Node22 -->
<g id="edge29" class="edge">
<title>Node1&#45;&gt;Node22</title>
<path fill="none" stroke="midnightblue" d="M75.79,-271.47C82.68,-237.66 110.72,-122.44 182,-67 184.31,-65.21 186.75,-63.57 189.29,-62.09"/>
<polygon fill="midnightblue" stroke="midnightblue" points="190.91,-65.2 198.29,-57.59 187.78,-58.93 190.91,-65.2"/>
</g>
<!-- Node27 -->
<g id="node27" class="node">
<title>Node27</title>
<g id="a_node27"><a xlink:href="../../d2/d8e/class_t___m_e_s_h_1_1_point.html#aa7c967dd92c65e98ad3169b2e5715c5e" target="_top" xlink:title="true if segment (s1&#45;s2) intersects the triangle v1&#45;v2&#45;v3 (border included).">
<polygon fill="white" stroke="black" points="182,-77 182,-107 355,-107 355,-77 182,-77"/>
<text text-anchor="start" x="190" y="-95" font-family="Helvetica,sans-Serif" font-size="10.00">T_MESH::Point::segmentIntersects</text>
<text text-anchor="middle" x="268.5" y="-84" font-family="Helvetica,sans-Serif" font-size="10.00">Triangle</text>
</a>
</g>
</g>
<!-- Node1&#45;&gt;Node27 -->
<g id="edge36" class="edge">
<title>Node1&#45;&gt;Node27</title>
<path fill="none" stroke="midnightblue" d="M77.99,-271.19C89.72,-243.59 126.72,-164.53 182,-122 187.28,-117.94 193.15,-114.4 199.27,-111.32"/>
<polygon fill="midnightblue" stroke="midnightblue" points="200.75,-114.49 208.38,-107.14 197.83,-108.13 200.75,-114.49"/>
</g>
<!-- Node4 -->
<g id="node4" class="node">
<title>Node4</title>
<g id="a_node4"><a xlink:href="../../d8/d6e/class_t___m_e_s_h_1_1_triangle.html#aac5d645bef27d033cc520631d1fcc515" target="_top" xlink:title="TRUE iff &#39;v&#39; is a vertex of the triangle.">
<polygon fill="white" stroke="black" points="399,-424.5 399,-443.5 546,-443.5 546,-424.5 399,-424.5"/>
<text text-anchor="middle" x="472.5" y="-431.5" font-family="Helvetica,sans-Serif" font-size="10.00">T_MESH::Triangle::hasVertex</text>
</a>
</g>
</g>
<!-- Node3&#45;&gt;Node4 -->
<g id="edge3" class="edge">
<title>Node3&#45;&gt;Node4</title>
<path fill="none" stroke="midnightblue" d="M339.02,-407.11C363.68,-412.12 391.13,-417.69 414.62,-422.45"/>
<polygon fill="midnightblue" stroke="midnightblue" points="413.92,-425.89 424.42,-424.44 415.32,-419.03 413.92,-425.89"/>
</g>
<!-- Node3&#45;&gt;Node6 -->
<g id="edge5" class="edge">
<title>Node3&#45;&gt;Node6</title>
<path fill="none" stroke="midnightblue" d="M295.08,-408.07C333.94,-430.96 407.39,-474.23 446.12,-497.05"/>
<polygon fill="midnightblue" stroke="midnightblue" points="444.78,-500.32 455.18,-502.38 448.34,-494.29 444.78,-500.32"/>
</g>
<!-- Node3&#45;&gt;Node8 -->
<g id="edge7" class="edge">
<title>Node3&#45;&gt;Node8</title>
<path fill="none" stroke="midnightblue" d="M339.02,-393C360.4,-393 383.87,-393 405.04,-393"/>
<polygon fill="midnightblue" stroke="midnightblue" points="405.23,-396.5 415.23,-393 405.23,-389.5 405.23,-396.5"/>
</g>
<!-- Node3&#45;&gt;Node10 -->
<g id="edge9" class="edge">
<title>Node3&#45;&gt;Node10</title>
<path fill="none" stroke="midnightblue" d="M339.02,-379.92C362.48,-375.51 388.46,-370.62 411.15,-366.35"/>
<polygon fill="midnightblue" stroke="midnightblue" points="411.81,-369.79 420.99,-364.5 410.52,-362.91 411.81,-369.79"/>
</g>
<!-- Node3&#45;&gt;Node11 -->
<g id="edge11" class="edge">
<title>Node3&#45;&gt;Node11</title>
<path fill="none" stroke="midnightblue" d="M335.65,-377.84C342.36,-375.3 348.94,-372.37 355,-369 373.97,-358.45 371.82,-346.15 391,-336 395.56,-333.58 400.43,-331.47 405.43,-329.63"/>
<polygon fill="midnightblue" stroke="midnightblue" points="406.77,-332.87 415.16,-326.4 404.57,-326.23 406.77,-332.87"/>
</g>
<!-- Node5 -->
<g id="node5" class="node">
<title>Node5</title>
<g id="a_node5"><a xlink:href="../../da/da2/class_t___m_e_s_h_1_1_edge.html#a7d7329ff24b7b6eb2eceee39711dd650" target="_top" xlink:title="TRUE iff &#39;v&#39; is an end&#45;point of the edge.">
<polygon fill="white" stroke="black" points="604,-443.5 604,-462.5 739,-462.5 739,-443.5 604,-443.5"/>
<text text-anchor="middle" x="671.5" y="-450.5" font-family="Helvetica,sans-Serif" font-size="10.00">T_MESH::Edge::hasVertex</text>
</a>
</g>
</g>
<!-- Node4&#45;&gt;Node5 -->
<g id="edge4" class="edge">
<title>Node4&#45;&gt;Node5</title>
<path fill="none" stroke="midnightblue" d="M546.02,-440.99C561.5,-442.49 577.9,-444.07 593.54,-445.58"/>
<polygon fill="midnightblue" stroke="midnightblue" points="593.4,-449.08 603.69,-446.56 594.07,-442.11 593.4,-449.08"/>
</g>
<!-- Node7 -->
<g id="node7" class="node">
<title>Node7</title>
<g id="a_node7"><a xlink:href="../../da/da2/class_t___m_e_s_h_1_1_edge.html#a295cf6f1ac996ea5e760c2bbd590c513" target="_top" xlink:title="Incident triangle opposite to &#39;t&#39;. NULL if &#39;t&#39; is not incident to the edge.">
<polygon fill="white" stroke="black" points="590,-502.5 590,-521.5 753,-521.5 753,-502.5 590,-502.5"/>
<text text-anchor="middle" x="671.5" y="-509.5" font-family="Helvetica,sans-Serif" font-size="10.00">T_MESH::Edge::oppositeTriangle</text>
</a>
</g>
</g>
<!-- Node6&#45;&gt;Node7 -->
<g id="edge6" class="edge">
<title>Node6&#45;&gt;Node7</title>
<path fill="none" stroke="midnightblue" d="M528.64,-512C544.53,-512 562.3,-512 579.75,-512"/>
<polygon fill="midnightblue" stroke="midnightblue" points="579.96,-515.5 589.96,-512 579.96,-508.5 579.96,-515.5"/>
</g>
<!-- Node9 -->
<g id="node9" class="node">
<title>Node9</title>
<g id="a_node9"><a xlink:href="../../da/da2/class_t___m_e_s_h_1_1_edge.html#a560eca8895471f987bd3228b13c40052" target="_top" xlink:title="Vertex shared with edge &#39;b&#39;. NULL if this and &#39;b&#39; do not share any vertex.">
<polygon fill="white" stroke="black" points="593,-345.5 593,-364.5 750,-364.5 750,-345.5 593,-345.5"/>
<text text-anchor="middle" x="671.5" y="-352.5" font-family="Helvetica,sans-Serif" font-size="10.00">T_MESH::Edge::commonVertex</text>
</a>
</g>
</g>
<!-- Node8&#45;&gt;Node9 -->
<g id="edge8" class="edge">
<title>Node8&#45;&gt;Node9</title>
<path fill="none" stroke="midnightblue" d="M522.96,-383.46C549.65,-378.31 582.8,-371.92 610.92,-366.49"/>
<polygon fill="midnightblue" stroke="midnightblue" points="611.87,-369.87 621.02,-364.54 610.54,-363 611.87,-369.87"/>
</g>
<!-- Node10&#45;&gt;Node9 -->
<g id="edge10" class="edge">
<title>Node10&#45;&gt;Node9</title>
<path fill="none" stroke="midnightblue" d="M529.69,-355C546.21,-355 564.7,-355 582.7,-355"/>
<polygon fill="midnightblue" stroke="midnightblue" points="582.93,-358.5 592.93,-355 582.93,-351.5 582.93,-358.5"/>
</g>
<!-- Node11&#45;&gt;Node9 -->
<g id="edge12" class="edge">
<title>Node11&#45;&gt;Node9</title>
<path fill="none" stroke="midnightblue" d="M522.96,-326.54C549.65,-331.69 582.8,-338.08 610.92,-343.51"/>
<polygon fill="midnightblue" stroke="midnightblue" points="610.54,-347 621.02,-345.46 611.87,-340.13 610.54,-347"/>
</g>
<!-- Node13 -->
<g id="node13" class="node">
<title>Node13</title>
<g id="a_node13"><a xlink:href="../../de/df9/namespace_t___m_e_s_h.html#a31d1470b87fab8f85b54af905e25d15a" target="_top" xlink:title=" ">
<polygon fill="white" stroke="black" points="621.5,-170.5 621.5,-189.5 721.5,-189.5 721.5,-170.5 621.5,-170.5"/>
<text text-anchor="middle" x="671.5" y="-177.5" font-family="Helvetica,sans-Serif" font-size="10.00">T_MESH::orient3D</text>
</a>
</g>
</g>
<!-- Node12&#45;&gt;Node13 -->
<g id="edge14" class="edge">
<title>Node12&#45;&gt;Node13</title>
<path fill="none" stroke="midnightblue" d="M554.2,-180C573.29,-180 593.31,-180 611.26,-180"/>
<polygon fill="midnightblue" stroke="midnightblue" points="611.27,-183.5 621.27,-180 611.27,-176.5 611.27,-183.5"/>
</g>
<!-- Node14 -->
<g id="node14" class="node">
<title>Node14</title>
<g id="a_node14"><a xlink:href="../../de/df9/namespace_t___m_e_s_h.html#ab2a541476dd63dc930853bddc4bf6969" target="_top" xlink:title=" ">
<polygon fill="white" stroke="black" points="824,-170.5 824,-189.5 927,-189.5 927,-170.5 824,-170.5"/>
<text text-anchor="middle" x="875.5" y="-177.5" font-family="Helvetica,sans-Serif" font-size="10.00">T_MESH::_orient3d</text>
</a>
</g>
</g>
<!-- Node13&#45;&gt;Node14 -->
<g id="edge15" class="edge">
<title>Node13&#45;&gt;Node14</title>
<path fill="none" stroke="midnightblue" d="M721.66,-180C749.34,-180 784.15,-180 813.56,-180"/>
<polygon fill="midnightblue" stroke="midnightblue" points="813.71,-183.5 823.71,-180 813.71,-176.5 813.71,-183.5"/>
</g>
<!-- Node16 -->
<g id="node16" class="node">
<title>Node16</title>
<g id="a_node16"><a xlink:href="../../de/df9/namespace_t___m_e_s_h.html#a5dcbe262a73a0769e3f63025edf3d25d" target="_top" xlink:title="Orientation predicates on PM_Rationals.">
<polygon fill="white" stroke="black" points="998,-77.5 998,-96.5 1098,-96.5 1098,-77.5 998,-77.5"/>
<text text-anchor="middle" x="1048" y="-84.5" font-family="Helvetica,sans-Serif" font-size="10.00">T_MESH::orient2D</text>
</a>
</g>
</g>
<!-- Node15&#45;&gt;Node16 -->
<g id="edge17" class="edge">
<title>Node15&#45;&gt;Node16</title>
<path fill="none" stroke="midnightblue" d="M543.26,-133.02C638.22,-128.5 813.38,-118.53 962,-101 970.33,-100.02 979.08,-98.79 987.68,-97.48"/>
<polygon fill="midnightblue" stroke="midnightblue" points="988.33,-100.92 997.67,-95.91 987.24,-94.01 988.33,-100.92"/>
</g>
<!-- Node17 -->
<g id="node17" class="node">
<title>Node17</title>
<g id="a_node17"><a xlink:href="../../de/df9/namespace_t___m_e_s_h.html#a2bad1f974ad8c908dd703494055080c1" target="_top" xlink:title="Orientation predicates using filtering on doubles.">
<polygon fill="white" stroke="black" points="1134,-77.5 1134,-96.5 1237,-96.5 1237,-77.5 1134,-77.5"/>
<text text-anchor="middle" x="1185.5" y="-84.5" font-family="Helvetica,sans-Serif" font-size="10.00">T_MESH::_orient2d</text>
</a>
</g>
</g>
<!-- Node16&#45;&gt;Node17 -->
<g id="edge18" class="edge">
<title>Node16&#45;&gt;Node17</title>
<path fill="none" stroke="midnightblue" d="M1098.3,-87C1106.48,-87 1115.04,-87 1123.47,-87"/>
<polygon fill="midnightblue" stroke="midnightblue" points="1123.64,-90.5 1133.64,-87 1123.64,-83.5 1123.64,-90.5"/>
</g>
<!-- Node19&#45;&gt;Node12 -->
<g id="edge21" class="edge">
<title>Node19&#45;&gt;Node12</title>
<path fill="none" stroke="midnightblue" d="M347.02,-180C358.01,-180 369.39,-180 380.6,-180"/>
<polygon fill="midnightblue" stroke="midnightblue" points="380.84,-183.5 390.84,-180 380.84,-176.5 380.84,-183.5"/>
</g>
<!-- Node19&#45;&gt;Node15 -->
<g id="edge22" class="edge">
<title>Node19&#45;&gt;Node15</title>
<path fill="none" stroke="midnightblue" d="M338.45,-164.98C355.91,-161.18 374.79,-157.07 392.69,-153.17"/>
<polygon fill="midnightblue" stroke="midnightblue" points="393.49,-156.57 402.52,-151.03 392,-149.73 393.49,-156.57"/>
</g>
<!-- Node20&#45;&gt;Node5 -->
<g id="edge24" class="edge">
<title>Node20&#45;&gt;Node5</title>
<path fill="none" stroke="midnightblue" d="M350.17,-470.57C421.23,-466.68 524.02,-461.04 593.85,-457.21"/>
<polygon fill="midnightblue" stroke="midnightblue" points="594.12,-460.7 603.91,-456.65 593.73,-453.71 594.12,-460.7"/>
</g>
<!-- Node21&#45;&gt;Node8 -->
<g id="edge26" class="edge">
<title>Node21&#45;&gt;Node8</title>
<path fill="none" stroke="midnightblue" d="M329.72,-359C349.26,-363.83 371.04,-369.18 391,-374 400.53,-376.3 410.7,-378.73 420.5,-381.05"/>
<polygon fill="midnightblue" stroke="midnightblue" points="419.99,-384.52 430.53,-383.42 421.6,-377.71 419.99,-384.52"/>
</g>
<!-- Node21&#45;&gt;Node10 -->
<g id="edge27" class="edge">
<title>Node21&#45;&gt;Node10</title>
<path fill="none" stroke="midnightblue" d="M338.73,-347.77C360.23,-348.94 383.86,-350.23 405.15,-351.39"/>
<polygon fill="midnightblue" stroke="midnightblue" points="405.22,-354.9 415.4,-351.94 405.6,-347.91 405.22,-354.9"/>
</g>
<!-- Node21&#45;&gt;Node11 -->
<g id="edge28" class="edge">
<title>Node21&#45;&gt;Node11</title>
<path fill="none" stroke="midnightblue" d="M338.73,-334.75C360.33,-331.86 384.08,-328.69 405.44,-325.83"/>
<polygon fill="midnightblue" stroke="midnightblue" points="405.95,-329.29 415.4,-324.5 405.02,-322.35 405.95,-329.29"/>
</g>
<!-- Node23 -->
<g id="node23" class="node">
<title>Node23</title>
<g id="a_node23"><a xlink:href="../../d2/d8e/class_t___m_e_s_h_1_1_point.html#a25775d277a300be604aaf6399a0119cc" target="_top" xlink:title="true if the coplanar point &#39;p&#39; is in the inner area of v1&#45;v2&#45;v3.">
<polygon fill="white" stroke="black" points="401,-72 401,-102 544,-102 544,-72 401,-72"/>
<text text-anchor="start" x="409" y="-90" font-family="Helvetica,sans-Serif" font-size="10.00">T_MESH::Point::pointInInner</text>
<text text-anchor="middle" x="472.5" y="-79" font-family="Helvetica,sans-Serif" font-size="10.00">Triangle</text>
</a>
</g>
</g>
<!-- Node22&#45;&gt;Node23 -->
<g id="edge30" class="edge">
<title>Node22&#45;&gt;Node23</title>
<path fill="none" stroke="midnightblue" d="M318.91,-57.54C340.58,-61.72 366.56,-66.74 390.9,-71.44"/>
<polygon fill="midnightblue" stroke="midnightblue" points="390.37,-74.9 400.85,-73.36 391.7,-68.03 390.37,-74.9"/>
</g>
<!-- Node24 -->
<g id="node24" class="node">
<title>Node24</title>
<g id="a_node24"><a xlink:href="../../d2/d8e/class_t___m_e_s_h_1_1_point.html#a423d9949d53c0dd86767ef854c1c3f35" target="_top" xlink:title="true if &#39;p&#39; is a point of the segment v1&#45;v2 (endpoints included)">
<polygon fill="white" stroke="black" points="392.5,-33.5 392.5,-52.5 552.5,-52.5 552.5,-33.5 392.5,-33.5"/>
<text text-anchor="middle" x="472.5" y="-40.5" font-family="Helvetica,sans-Serif" font-size="10.00">T_MESH::Point::pointInSegment</text>
</a>
</g>
</g>
<!-- Node22&#45;&gt;Node24 -->
<g id="edge32" class="edge">
<title>Node22&#45;&gt;Node24</title>
<path fill="none" stroke="midnightblue" d="M346.16,-46.1C357.93,-45.81 370.17,-45.51 382.18,-45.21"/>
<polygon fill="midnightblue" stroke="midnightblue" points="382.3,-48.71 392.21,-44.96 382.13,-41.71 382.3,-48.71"/>
</g>
<!-- Node23&#45;&gt;Node16 -->
<g id="edge31" class="edge">
<title>Node23&#45;&gt;Node16</title>
<path fill="none" stroke="midnightblue" d="M544.11,-87C658.27,-87 881.31,-87 987.74,-87"/>
<polygon fill="midnightblue" stroke="midnightblue" points="987.98,-90.5 997.97,-87 987.97,-83.5 987.98,-90.5"/>
</g>
<!-- Node25 -->
<g id="node25" class="node">
<title>Node25</title>
<g id="a_node25"><a xlink:href="../../d2/d8e/class_t___m_e_s_h_1_1_point.html#a965d3cad7ee14186e3fe1f25aeba48bc" target="_top" xlink:title="true if &#39;p&#39; is a point of the segment v1&#45;v2 (endpoints excluded)">
<polygon fill="white" stroke="black" points="600,-28 600,-58 743,-58 743,-28 600,-28"/>
<text text-anchor="start" x="608" y="-46" font-family="Helvetica,sans-Serif" font-size="10.00">T_MESH::Point::pointInInner</text>
<text text-anchor="middle" x="671.5" y="-35" font-family="Helvetica,sans-Serif" font-size="10.00">Segment</text>
</a>
</g>
</g>
<!-- Node24&#45;&gt;Node25 -->
<g id="edge33" class="edge">
<title>Node24&#45;&gt;Node25</title>
<path fill="none" stroke="midnightblue" d="M552.78,-43C564.97,-43 577.58,-43 589.8,-43"/>
<polygon fill="midnightblue" stroke="midnightblue" points="589.96,-46.5 599.96,-43 589.96,-39.5 589.96,-46.5"/>
</g>
<!-- Node26 -->
<g id="node26" class="node">
<title>Node26</title>
<g id="a_node26"><a xlink:href="../../d2/d8e/class_t___m_e_s_h_1_1_point.html#ac128e5865f9413fa4c2baaa9fdd03597" target="_top" xlink:title="Exact misalignment test. Returns TRUE iff points are not aligned.">
<polygon fill="white" stroke="black" points="789,-36.5 789,-55.5 962,-55.5 962,-36.5 789,-36.5"/>
<text text-anchor="middle" x="875.5" y="-43.5" font-family="Helvetica,sans-Serif" font-size="10.00">T_MESH::Point::exactMisalignment</text>
</a>
</g>
</g>
<!-- Node25&#45;&gt;Node26 -->
<g id="edge34" class="edge">
<title>Node25&#45;&gt;Node26</title>
<path fill="none" stroke="midnightblue" d="M743.15,-44.05C754.7,-44.22 766.84,-44.4 778.88,-44.58"/>
<polygon fill="midnightblue" stroke="midnightblue" points="778.9,-48.08 788.95,-44.73 779.01,-41.08 778.9,-48.08"/>
</g>
<!-- Node26&#45;&gt;Node16 -->
<g id="edge35" class="edge">
<title>Node26&#45;&gt;Node16</title>
<path fill="none" stroke="midnightblue" d="M916.04,-55.51C940.27,-61.34 971.5,-68.84 997.38,-75.07"/>
<polygon fill="midnightblue" stroke="midnightblue" points="996.83,-78.54 1007.37,-77.47 998.47,-71.73 996.83,-78.54"/>
</g>
<!-- Node27&#45;&gt;Node12 -->
<g id="edge37" class="edge">
<title>Node27&#45;&gt;Node12</title>
<path fill="none" stroke="midnightblue" d="M291.82,-107.27C315.48,-122.82 354.42,-146.64 391,-161 397.38,-163.5 404.17,-165.73 411.01,-167.71"/>
<polygon fill="midnightblue" stroke="midnightblue" points="410.44,-171.18 421.01,-170.41 412.27,-164.42 410.44,-171.18"/>
</g>
<!-- Node27&#45;&gt;Node15 -->
<g id="edge38" class="edge">
<title>Node27&#45;&gt;Node15</title>
<path fill="none" stroke="midnightblue" d="M338.45,-107.02C355.91,-110.82 374.79,-114.93 392.69,-118.83"/>
<polygon fill="midnightblue" stroke="midnightblue" points="392,-122.27 402.52,-120.97 393.49,-115.43 392,-122.27"/>
</g>
<!-- Node27&#45;&gt;Node23 -->
<g id="edge39" class="edge">
<title>Node27&#45;&gt;Node23</title>
<path fill="none" stroke="midnightblue" d="M355.17,-89.88C366.98,-89.59 379.07,-89.29 390.79,-89"/>
<polygon fill="midnightblue" stroke="midnightblue" points="391.06,-92.49 400.97,-88.75 390.89,-85.49 391.06,-92.49"/>
</g>
</g>
</svg>
