<?xml version="1.0" encoding="UTF-8" standalone="no"?>
<!DOCTYPE svg PUBLIC "-//W3C//DTD SVG 1.1//EN"
 "http://www.w3.org/Graphics/SVG/1.1/DTD/svg11.dtd">
<!-- Generated by graphviz version 2.44.1 (0)
 -->
<!-- Title: T_MESH::Triangle::rightTriangle Pages: 1 -->
<svg width="512pt" height="104pt"
 viewBox="0.00 0.00 512.00 104.00" xmlns="http://www.w3.org/2000/svg" xmlns:xlink="http://www.w3.org/1999/xlink">
<g id="graph0" class="graph" transform="scale(1 1) rotate(0) translate(4 100)">
<title>T_MESH::Triangle::rightTriangle</title>
<polygon fill="white" stroke="transparent" points="-4,4 -4,-100 508,-100 508,4 -4,4"/>
<!-- Node1 -->
<g id="node1" class="node">
<title>Node1</title>
<g id="a_node1"><a xlink:title="Triangle adjacent to the next edge of &#39;e&#39;. NULL if &#39;e&#39; is not an edge of the triangle.">
<polygon fill="#bfbfbf" stroke="black" points="0,-38.5 0,-57.5 157,-57.5 157,-38.5 0,-38.5"/>
<text text-anchor="middle" x="78.5" y="-45.5" font-family="Helvetica,sans-Serif" font-size="10.00">T_MESH::Triangle::rightTriangle</text>
</a>
</g>
</g>
<!-- Node2 -->
<g id="node2" class="node">
<title>Node2</title>
<g id="a_node2"><a xlink:href="../../d8/d6e/class_t___m_e_s_h_1_1_triangle.html#ad0c49113ef7f52e4a86959eaafc7baf9" target="_top" xlink:title="First adjacent triangle. NULL if boundary.">
<polygon fill="white" stroke="black" points="193,-76.5 193,-95.5 305,-95.5 305,-76.5 193,-76.5"/>
<text text-anchor="middle" x="249" y="-83.5" font-family="Helvetica,sans-Serif" font-size="10.00">T_MESH::Triangle::t1</text>
</a>
</g>
</g>
<!-- Node1&#45;&gt;Node2 -->
<g id="edge1" class="edge">
<title>Node1&#45;&gt;Node2</title>
<path fill="none" stroke="midnightblue" d="M122.02,-57.59C144.46,-62.65 172.17,-68.9 195.89,-74.25"/>
<polygon fill="midnightblue" stroke="midnightblue" points="195.26,-77.69 205.79,-76.48 196.8,-70.87 195.26,-77.69"/>
</g>
<!-- Node4 -->
<g id="node4" class="node">
<title>Node4</title>
<g id="a_node4"><a xlink:href="../../d8/d6e/class_t___m_e_s_h_1_1_triangle.html#a2511453b48f8c042e7aac67da3fff129" target="_top" xlink:title="Second adjacent triangle. NULL if boundary.">
<polygon fill="white" stroke="black" points="193,-38.5 193,-57.5 305,-57.5 305,-38.5 193,-38.5"/>
<text text-anchor="middle" x="249" y="-45.5" font-family="Helvetica,sans-Serif" font-size="10.00">T_MESH::Triangle::t2</text>
</a>
</g>
</g>
<!-- Node1&#45;&gt;Node4 -->
<g id="edge3" class="edge">
<title>Node1&#45;&gt;Node4</title>
<path fill="none" stroke="midnightblue" d="M157.34,-48C165.71,-48 174.16,-48 182.36,-48"/>
<polygon fill="midnightblue" stroke="midnightblue" points="182.6,-51.5 192.6,-48 182.6,-44.5 182.6,-51.5"/>
</g>
<!-- Node5 -->
<g id="node5" class="node">
<title>Node5</title>
<g id="a_node5"><a xlink:href="../../d8/d6e/class_t___m_e_s_h_1_1_triangle.html#a4383009f2e92ec1445cfdee5c3fa14e4" target="_top" xlink:title="Third adjacent triangle. NULL if boundary.">
<polygon fill="white" stroke="black" points="193,-0.5 193,-19.5 305,-19.5 305,-0.5 193,-0.5"/>
<text text-anchor="middle" x="249" y="-7.5" font-family="Helvetica,sans-Serif" font-size="10.00">T_MESH::Triangle::t3</text>
</a>
</g>
</g>
<!-- Node1&#45;&gt;Node5 -->
<g id="edge5" class="edge">
<title>Node1&#45;&gt;Node5</title>
<path fill="none" stroke="midnightblue" d="M122.02,-38.41C144.46,-33.35 172.17,-27.1 195.89,-21.75"/>
<polygon fill="midnightblue" stroke="midnightblue" points="196.8,-25.13 205.79,-19.52 195.26,-18.31 196.8,-25.13"/>
</g>
<!-- Node3 -->
<g id="node3" class="node">
<title>Node3</title>
<g id="a_node3"><a xlink:href="../../da/da2/class_t___m_e_s_h_1_1_edge.html#a295cf6f1ac996ea5e760c2bbd590c513" target="_top" xlink:title="Incident triangle opposite to &#39;t&#39;. NULL if &#39;t&#39; is not incident to the edge.">
<polygon fill="white" stroke="black" points="341,-38.5 341,-57.5 504,-57.5 504,-38.5 341,-38.5"/>
<text text-anchor="middle" x="422.5" y="-45.5" font-family="Helvetica,sans-Serif" font-size="10.00">T_MESH::Edge::oppositeTriangle</text>
</a>
</g>
</g>
<!-- Node2&#45;&gt;Node3 -->
<g id="edge2" class="edge">
<title>Node2&#45;&gt;Node3</title>
<path fill="none" stroke="midnightblue" d="M293.28,-76.41C316.11,-71.35 344.32,-65.1 368.46,-59.75"/>
<polygon fill="midnightblue" stroke="midnightblue" points="369.53,-63.1 378.53,-57.52 368.01,-56.27 369.53,-63.1"/>
</g>
<!-- Node4&#45;&gt;Node3 -->
<g id="edge4" class="edge">
<title>Node4&#45;&gt;Node3</title>
<path fill="none" stroke="midnightblue" d="M305.21,-48C313.37,-48 321.96,-48 330.62,-48"/>
<polygon fill="midnightblue" stroke="midnightblue" points="330.8,-51.5 340.8,-48 330.8,-44.5 330.8,-51.5"/>
</g>
<!-- Node5&#45;&gt;Node3 -->
<g id="edge6" class="edge">
<title>Node5&#45;&gt;Node3</title>
<path fill="none" stroke="midnightblue" d="M293.28,-19.59C316.11,-24.65 344.32,-30.9 368.46,-36.25"/>
<polygon fill="midnightblue" stroke="midnightblue" points="368.01,-39.73 378.53,-38.48 369.53,-32.9 368.01,-39.73"/>
</g>
</g>
</svg>
