<?xml version="1.0" encoding="UTF-8" standalone="no"?>
<!DOCTYPE svg PUBLIC "-//W3C//DTD SVG 1.1//EN"
 "http://www.w3.org/Graphics/SVG/1.1/DTD/svg11.dtd">
<!-- Generated by graphviz version 2.44.1 (0)
 -->
<!-- Title: T_MESH::Triangle::commonVertex Pages: 1 -->
<svg width="546pt" height="39pt"
 viewBox="0.00 0.00 546.00 39.00" xmlns="http://www.w3.org/2000/svg" xmlns:xlink="http://www.w3.org/1999/xlink">
<g id="graph0" class="graph" transform="scale(1 1) rotate(0) translate(4 35)">
<title>T_MESH::Triangle::commonVertex</title>
<polygon fill="white" stroke="transparent" points="-4,4 -4,-35 542,-35 542,4 -4,4"/>
<!-- Node1 -->
<g id="node1" class="node">
<title>Node1</title>
<g id="a_node1"><a xlink:title="If this triangle shares a vertex with &#39;b&#39;, then such a vertex is returned. NULL otherwise.">
<polygon fill="#bfbfbf" stroke="black" points="397,-0.5 397,-30.5 538,-30.5 538,-0.5 397,-0.5"/>
<text text-anchor="start" x="405" y="-18.5" font-family="Helvetica,sans-Serif" font-size="10.00">T_MESH::Triangle::common</text>
<text text-anchor="middle" x="467.5" y="-7.5" font-family="Helvetica,sans-Serif" font-size="10.00">Vertex</text>
</a>
</g>
</g>
<!-- Node2 -->
<g id="node2" class="node">
<title>Node2</title>
<g id="a_node2"><a xlink:href="../../d8/d6e/class_t___m_e_s_h_1_1_triangle.html#a38d6dedff09dd67bc25defcb61304546" target="_top" xlink:title="true if this triangle itersects &#39;t&#39; other than on common subsimplexes if &#39;justproper&#39; is true,...">
<polygon fill="white" stroke="black" points="215,-6 215,-25 361,-25 361,-6 215,-6"/>
<text text-anchor="middle" x="288" y="-13" font-family="Helvetica,sans-Serif" font-size="10.00">T_MESH::Triangle::intersects</text>
</a>
</g>
</g>
<!-- Node1&#45;&gt;Node2 -->
<g id="edge1" class="edge">
<title>Node1&#45;&gt;Node2</title>
<path fill="none" stroke="midnightblue" d="M386.85,-15.5C378.26,-15.5 369.56,-15.5 361.07,-15.5"/>
<polygon fill="midnightblue" stroke="midnightblue" points="386.86,-19 396.86,-15.5 386.86,-12 386.86,-19"/>
</g>
<!-- Node3 -->
<g id="node3" class="node">
<title>Node3</title>
<g id="a_node3"><a xlink:href="../../d3/d21/class_t___m_e_s_h_1_1di__cell.html#a225e296cc8fdea7f5dbc9d4b9a5bc79c" target="_top" xlink:title=" ">
<polygon fill="white" stroke="black" points="0,-6 0,-25 179,-25 179,-6 0,-6"/>
<text text-anchor="middle" x="89.5" y="-13" font-family="Helvetica,sans-Serif" font-size="10.00">T_MESH::di_cell::selectIntersections</text>
</a>
</g>
</g>
<!-- Node2&#45;&gt;Node3 -->
<g id="edge2" class="edge">
<title>Node2&#45;&gt;Node3</title>
<path fill="none" stroke="midnightblue" d="M204.76,-15.5C196.33,-15.5 187.75,-15.5 179.25,-15.5"/>
<polygon fill="midnightblue" stroke="midnightblue" points="204.95,-19 214.95,-15.5 204.95,-12 204.95,-19"/>
</g>
</g>
</svg>
