<?xml version="1.0" encoding="UTF-8" standalone="no"?>
<!DOCTYPE svg PUBLIC "-//W3C//DTD SVG 1.1//EN"
 "http://www.w3.org/Graphics/SVG/1.1/DTD/svg11.dtd">
<!-- Generated by graphviz version 2.44.1 (0)
 -->
<!-- Title: pretty_print::is_container&lt; T &gt; Pages: 1 -->
<svg width="169pt" height="215pt"
 viewBox="0.00 0.00 169.00 215.00" xmlns="http://www.w3.org/2000/svg" xmlns:xlink="http://www.w3.org/1999/xlink">
<g id="graph0" class="graph" transform="scale(1 1) rotate(0) translate(4 211)">
<title>pretty_print::is_container&lt; T &gt;</title>
<polygon fill="white" stroke="transparent" points="-4,4 -4,-211 165,-211 165,4 -4,4"/>
<!-- Node1 -->
<g id="node1" class="node">
<title>Node1</title>
<g id="a_node1"><a xlink:title=" ">
<polygon fill="#bfbfbf" stroke="black" points="7,-0.5 7,-57.5 154,-57.5 154,-0.5 7,-0.5"/>
<text text-anchor="middle" x="80.5" y="-45.5" font-family="Helvetica,sans-Serif" font-size="10.00">pretty_print::is_container&lt; T &gt;</text>
<polyline fill="none" stroke="black" points="7,-38.5 154,-38.5 "/>
<text text-anchor="middle" x="80.5" y="-26.5" font-family="Helvetica,sans-Serif" font-size="10.00"> </text>
<polyline fill="none" stroke="black" points="7,-19.5 154,-19.5 "/>
<text text-anchor="middle" x="80.5" y="-7.5" font-family="Helvetica,sans-Serif" font-size="10.00"> </text>
</a>
</g>
</g>
<!-- Node2 -->
<g id="node2" class="node">
<title>Node2</title>
<g id="a_node2"><a xlink:title=" ">
<polygon fill="white" stroke="#bfbfbf" points="0,-94.5 0,-206.5 161,-206.5 161,-94.5 0,-94.5"/>
<text text-anchor="start" x="8" y="-194.5" font-family="Helvetica,sans-Serif" font-size="10.00">std::integral_constant</text>
<text text-anchor="start" x="8" y="-183.5" font-family="Helvetica,sans-Serif" font-size="10.00">&lt; bool, detail::has_const</text>
<text text-anchor="start" x="8" y="-172.5" font-family="Helvetica,sans-Serif" font-size="10.00">_iterator&lt; T &gt;::value &amp;&amp;detail</text>
<text text-anchor="start" x="8" y="-161.5" font-family="Helvetica,sans-Serif" font-size="10.00">::has_begin_end&lt; T &gt;::beg_value</text>
<text text-anchor="start" x="8" y="-150.5" font-family="Helvetica,sans-Serif" font-size="10.00"> &amp;&amp;detail::has_begin_end&lt; T &gt;::</text>
<text text-anchor="middle" x="80.5" y="-139.5" font-family="Helvetica,sans-Serif" font-size="10.00">end_value &gt;</text>
<polyline fill="none" stroke="#bfbfbf" points="0,-132.5 161,-132.5 "/>
<text text-anchor="middle" x="80.5" y="-120.5" font-family="Helvetica,sans-Serif" font-size="10.00"> </text>
<polyline fill="none" stroke="#bfbfbf" points="0,-113.5 161,-113.5 "/>
<text text-anchor="middle" x="80.5" y="-101.5" font-family="Helvetica,sans-Serif" font-size="10.00"> </text>
</a>
</g>
</g>
<!-- Node2&#45;&gt;Node1 -->
<g id="edge1" class="edge">
<title>Node2&#45;&gt;Node1</title>
<path fill="none" stroke="midnightblue" d="M80.5,-84.15C80.5,-74.82 80.5,-65.67 80.5,-57.63"/>
<polygon fill="none" stroke="midnightblue" points="77,-84.3 80.5,-94.3 84,-84.3 77,-84.3"/>
</g>
</g>
</svg>
