<?xml version="1.0" encoding="UTF-8" standalone="no"?>
<!DOCTYPE svg PUBLIC "-//W3C//DTD SVG 1.1//EN"
 "http://www.w3.org/Graphics/SVG/1.1/DTD/svg11.dtd">
<!-- Generated by graphviz version 2.44.1 (0)
 -->
<!-- Title: PolylineAddFinalPointCallback::Execute Pages: 1 -->
<svg width="899pt" height="1131pt"
 viewBox="0.00 0.00 899.00 1130.69" xmlns="http://www.w3.org/2000/svg" xmlns:xlink="http://www.w3.org/1999/xlink">
<g id="graph0" class="graph" transform="scale(1 1) rotate(0) translate(4 1126.69)">
<title>PolylineAddFinalPointCallback::Execute</title>
<polygon fill="white" stroke="transparent" points="-4,4 -4,-1126.69 895,-1126.69 895,4 -4,4"/>
<!-- Node1 -->
<g id="node1" class="node">
<title>Node1</title>
<g id="a_node1"><a xlink:title="Overwritten callback method, which is executed when the left mouse button is pressed for the first ti...">
<polygon fill="#bfbfbf" stroke="black" points="0,-747.69 0,-777.69 150,-777.69 150,-747.69 0,-747.69"/>
<text text-anchor="start" x="8" y="-765.69" font-family="Helvetica,sans-Serif" font-size="10.00">PolylineAddFinalPointCallback</text>
<text text-anchor="middle" x="75" y="-754.69" font-family="Helvetica,sans-Serif" font-size="10.00">::Execute</text>
</a>
</g>
</g>
<!-- Node2 -->
<g id="node2" class="node">
<title>Node2</title>
<g id="a_node2"><a xlink:href="../../d6/db5/class_scene.html#a68d5e73ae04e190548aa66ab701814b7" target="_top" xlink:title="Add a touchpoint to the scene (which is subsequently added to the touchpoint registry)">
<polygon fill="white" stroke="black" points="211.5,-1103.19 211.5,-1122.19 324.5,-1122.19 324.5,-1103.19 211.5,-1103.19"/>
<text text-anchor="middle" x="268" y="-1110.19" font-family="Helvetica,sans-Serif" font-size="10.00">Scene::addTouchpoint</text>
</a>
</g>
</g>
<!-- Node1&#45;&gt;Node2 -->
<g id="edge1" class="edge">
<title>Node1&#45;&gt;Node2</title>
<path fill="none" stroke="midnightblue" d="M76.14,-777.95C77.51,-830.48 89.42,-1005.48 186,-1093.69 190.69,-1097.97 196.16,-1101.34 202,-1103.99"/>
<polygon fill="midnightblue" stroke="midnightblue" points="200.83,-1107.29 211.42,-1107.58 203.33,-1100.75 200.83,-1107.29"/>
</g>
<!-- Node4 -->
<g id="node4" class="node">
<title>Node4</title>
<g id="a_node4"><a xlink:href="../../d9/d4f/namespace_layout_algorithms.html#a53c2fbff4e31119750be8ef36e324d03" target="_top" xlink:title="Computes the closest point on a mesh in relation to another point.">
<polygon fill="white" stroke="black" points="200,-1053.69 200,-1083.69 336,-1083.69 336,-1053.69 200,-1053.69"/>
<text text-anchor="start" x="208" y="-1071.69" font-family="Helvetica,sans-Serif" font-size="10.00">LayoutAlgorithms::compute</text>
<text text-anchor="middle" x="268" y="-1060.69" font-family="Helvetica,sans-Serif" font-size="10.00">ClosestPointOnMesh</text>
</a>
</g>
</g>
<!-- Node1&#45;&gt;Node4 -->
<g id="edge3" class="edge">
<title>Node1&#45;&gt;Node4</title>
<path fill="none" stroke="midnightblue" d="M77.33,-777.8C82.27,-824.7 103.8,-969.11 186,-1044.69 187.67,-1046.22 189.43,-1047.66 191.26,-1049"/>
<polygon fill="midnightblue" stroke="midnightblue" points="189.42,-1051.97 199.75,-1054.33 193.14,-1046.05 189.42,-1051.97"/>
</g>
<!-- Node6 -->
<g id="node6" class="node">
<title>Node6</title>
<g id="a_node6"><a xlink:href="../../d9/d4f/namespace_layout_algorithms.html#ad165a81c391eaa466ebce1da720ee6b5" target="_top" xlink:title="Computes a wiring entry point in world coordinates for a sphere shaped touchpoint geometry.">
<polygon fill="white" stroke="black" points="200,-1004.69 200,-1034.69 336,-1034.69 336,-1004.69 200,-1004.69"/>
<text text-anchor="start" x="208" y="-1022.69" font-family="Helvetica,sans-Serif" font-size="10.00">LayoutAlgorithms::compute</text>
<text text-anchor="middle" x="268" y="-1011.69" font-family="Helvetica,sans-Serif" font-size="10.00">ConnectionPointSphere</text>
</a>
</g>
</g>
<!-- Node1&#45;&gt;Node6 -->
<g id="edge5" class="edge">
<title>Node1&#45;&gt;Node6</title>
<path fill="none" stroke="midnightblue" d="M79.17,-777.76C88.39,-817.95 118.88,-928.76 186,-989.69 190.16,-993.47 194.85,-996.79 199.8,-999.69"/>
<polygon fill="midnightblue" stroke="midnightblue" points="198.5,-1002.96 208.98,-1004.5 201.74,-996.76 198.5,-1002.96"/>
</g>
<!-- Node8 -->
<g id="node8" class="node">
<title>Node8</title>
<g id="a_node8"><a xlink:href="../../d6/db5/class_scene.html#accf5c16477aba3397a083ded76f2c5f5" target="_top" xlink:title="Return the geometric data (vtkPolyData) of the mesh.">
<polygon fill="white" stroke="black" points="400,-969.19 400,-988.19 528,-988.19 528,-969.19 400,-969.19"/>
<text text-anchor="middle" x="464" y="-976.19" font-family="Helvetica,sans-Serif" font-size="10.00">Scene::getMeshPolyData</text>
</a>
</g>
</g>
<!-- Node1&#45;&gt;Node8 -->
<g id="edge13" class="edge">
<title>Node1&#45;&gt;Node8</title>
<path fill="none" stroke="midnightblue" d="M79.46,-777.92C88.94,-815.78 119.22,-914.15 186,-956.69 250.33,-997.66 340.86,-996.42 400.68,-989.47"/>
<polygon fill="midnightblue" stroke="midnightblue" points="401.26,-992.93 410.75,-988.22 400.39,-985.98 401.26,-992.93"/>
</g>
<!-- Node9 -->
<g id="node9" class="node">
<title>Node9</title>
<g id="a_node9"><a xlink:href="../../d9/d4f/namespace_layout_algorithms.html#a548f7aef3389c05aa79965eabf21a022" target="_top" xlink:title="Computes the nearest voxel index to a given index point which is inside of the mesh boundaries.">
<polygon fill="white" stroke="black" points="186,-840.69 186,-870.69 350,-870.69 350,-840.69 186,-840.69"/>
<text text-anchor="start" x="194" y="-858.69" font-family="Helvetica,sans-Serif" font-size="10.00">LayoutAlgorithms::compute</text>
<text text-anchor="middle" x="268" y="-847.69" font-family="Helvetica,sans-Serif" font-size="10.00">NearestPointInsideInnerVoxelGrid</text>
</a>
</g>
</g>
<!-- Node1&#45;&gt;Node9 -->
<g id="edge8" class="edge">
<title>Node1&#45;&gt;Node9</title>
<path fill="none" stroke="midnightblue" d="M96.54,-777.97C117.94,-793.31 152.92,-816.75 186,-831.69 190.37,-833.66 194.93,-835.52 199.59,-837.26"/>
<polygon fill="midnightblue" stroke="midnightblue" points="198.61,-840.63 209.21,-840.68 200.95,-834.03 198.61,-840.63"/>
</g>
<!-- Node10 -->
<g id="node10" class="node">
<title>Node10</title>
<g id="a_node10"><a xlink:href="../../d6/db5/class_scene.html#a7e5ee53ea01ef113afaaf4b7c10accf3" target="_top" xlink:title="Return the voxel grid image data.">
<polygon fill="white" stroke="black" points="409.5,-888.19 409.5,-907.19 518.5,-907.19 518.5,-888.19 409.5,-888.19"/>
<text text-anchor="middle" x="464" y="-895.19" font-family="Helvetica,sans-Serif" font-size="10.00">Scene::getVoxelData</text>
</a>
</g>
</g>
<!-- Node1&#45;&gt;Node10 -->
<g id="edge17" class="edge">
<title>Node1&#45;&gt;Node10</title>
<path fill="none" stroke="midnightblue" d="M84.82,-778.06C100.99,-804.55 138.13,-858.1 186,-880.69 253.52,-912.55 340.78,-912.07 399.15,-906.73"/>
<polygon fill="midnightblue" stroke="midnightblue" points="399.74,-910.19 409.34,-905.72 399.05,-903.22 399.74,-910.19"/>
</g>
<!-- Node13 -->
<g id="node13" class="node">
<title>Node13</title>
<g id="a_node13"><a xlink:href="../../d6/db5/class_scene.html#af79815a5c6a4ce9bf26106c5e103b950" target="_top" xlink:title="Return the actual contour widget.">
<polygon fill="white" stroke="black" points="203.5,-753.19 203.5,-772.19 332.5,-772.19 332.5,-753.19 203.5,-753.19"/>
<text text-anchor="middle" x="268" y="-760.19" font-family="Helvetica,sans-Serif" font-size="10.00">Scene::getContourWidget</text>
</a>
</g>
</g>
<!-- Node1&#45;&gt;Node13 -->
<g id="edge12" class="edge">
<title>Node1&#45;&gt;Node13</title>
<path fill="none" stroke="midnightblue" d="M150.12,-762.69C164.29,-762.69 179.13,-762.69 193.3,-762.69"/>
<polygon fill="midnightblue" stroke="midnightblue" points="193.47,-766.19 203.47,-762.69 193.47,-759.19 193.47,-766.19"/>
</g>
<!-- Node14 -->
<g id="node14" class="node">
<title>Node14</title>
<g id="a_node14"><a xlink:href="../../d6/db5/class_scene.html#a9c15511eba6900e36681315c7e5911c5" target="_top" xlink:title="Return the scaled size of the mesh (in mm)">
<polygon fill="white" stroke="black" points="202.5,-715.19 202.5,-734.19 333.5,-734.19 333.5,-715.19 202.5,-715.19"/>
<text text-anchor="middle" x="268" y="-722.19" font-family="Helvetica,sans-Serif" font-size="10.00">Scene::getMeshScalesize</text>
</a>
</g>
</g>
<!-- Node1&#45;&gt;Node14 -->
<g id="edge14" class="edge">
<title>Node1&#45;&gt;Node14</title>
<path fill="none" stroke="midnightblue" d="M150.12,-747.94C169.67,-744.05 190.49,-739.91 209.05,-736.22"/>
<polygon fill="midnightblue" stroke="midnightblue" points="209.98,-739.6 219.11,-734.22 208.62,-732.74 209.98,-739.6"/>
</g>
<!-- Node15 -->
<g id="node15" class="node">
<title>Node15</title>
<g id="a_node15"><a xlink:href="../../d6/db5/class_scene.html#a8bf8e4b441886787dc82c2caa9b25884" target="_top" xlink:title="Return the vtkRenderer of the scene.">
<polygon fill="white" stroke="black" points="216,-677.19 216,-696.19 320,-696.19 320,-677.19 216,-677.19"/>
<text text-anchor="middle" x="268" y="-684.19" font-family="Helvetica,sans-Serif" font-size="10.00">Scene::getRenderer</text>
</a>
</g>
</g>
<!-- Node1&#45;&gt;Node15 -->
<g id="edge15" class="edge">
<title>Node1&#45;&gt;Node15</title>
<path fill="none" stroke="midnightblue" d="M100.96,-747.47C122.74,-734.76 155.54,-716.96 186,-705.69 192.97,-703.11 200.41,-700.8 207.85,-698.76"/>
<polygon fill="midnightblue" stroke="midnightblue" points="208.8,-702.13 217.59,-696.22 207.03,-695.35 208.8,-702.13"/>
</g>
<!-- Node16 -->
<g id="node16" class="node">
<title>Node16</title>
<g id="a_node16"><a xlink:href="../../d6/db5/class_scene.html#a180c8577946667c192ae08462fab006a" target="_top" xlink:title="Return the vtk render window of the application.">
<polygon fill="white" stroke="black" points="202.5,-639.19 202.5,-658.19 333.5,-658.19 333.5,-639.19 202.5,-639.19"/>
<text text-anchor="middle" x="268" y="-646.19" font-family="Helvetica,sans-Serif" font-size="10.00">Scene::getRenderWindow</text>
</a>
</g>
</g>
<!-- Node1&#45;&gt;Node16 -->
<g id="edge16" class="edge">
<title>Node1&#45;&gt;Node16</title>
<path fill="none" stroke="midnightblue" d="M88.95,-747.64C108.01,-726.47 145.76,-688.2 186,-667.69 190.63,-665.33 195.55,-663.26 200.6,-661.44"/>
<polygon fill="midnightblue" stroke="midnightblue" points="201.99,-664.67 210.41,-658.25 199.82,-658.02 201.99,-664.67"/>
</g>
<!-- Node17 -->
<g id="node17" class="node">
<title>Node17</title>
<g id="a_node17"><a xlink:href="../../d6/db5/class_scene.html#af78767d0af348d25ddf80ef8cfe1f67a" target="_top" xlink:title="Return dimensions of the voxel data.">
<polygon fill="white" stroke="black" points="187.5,-928.19 187.5,-947.19 348.5,-947.19 348.5,-928.19 187.5,-928.19"/>
<text text-anchor="middle" x="268" y="-935.19" font-family="Helvetica,sans-Serif" font-size="10.00">Scene::getVoxelDataDimensions</text>
</a>
</g>
</g>
<!-- Node1&#45;&gt;Node17 -->
<g id="edge18" class="edge">
<title>Node1&#45;&gt;Node17</title>
<path fill="none" stroke="midnightblue" d="M82.96,-778.11C97.55,-808.7 134.33,-877.22 186,-913.69 192.32,-918.15 199.47,-921.79 206.85,-924.76"/>
<polygon fill="midnightblue" stroke="midnightblue" points="205.67,-928.06 216.26,-928.17 208.05,-921.47 205.67,-928.06"/>
</g>
<!-- Node18 -->
<g id="node18" class="node">
<title>Node18</title>
<g id="a_node18"><a xlink:href="../../d6/db5/class_scene.html#a7caf30a70e69430d5e4ac93d6828a649" target="_top" xlink:title="Return the bounds of the voxel grid.">
<polygon fill="white" stroke="black" points="199.5,-520.19 199.5,-539.19 336.5,-539.19 336.5,-520.19 199.5,-520.19"/>
<text text-anchor="middle" x="268" y="-527.19" font-family="Helvetica,sans-Serif" font-size="10.00">Scene::getVoxelgridBounds</text>
</a>
</g>
</g>
<!-- Node1&#45;&gt;Node18 -->
<g id="edge20" class="edge">
<title>Node1&#45;&gt;Node18</title>
<path fill="none" stroke="midnightblue" d="M83.57,-747.3C99.54,-715.78 139.12,-642.57 186,-591.69 202.96,-573.28 225.89,-556.3 243.02,-544.78"/>
<polygon fill="midnightblue" stroke="midnightblue" points="244.96,-547.69 251.39,-539.27 241.11,-541.85 244.96,-547.69"/>
</g>
<!-- Node20 -->
<g id="node20" class="node">
<title>Node20</title>
<g id="a_node20"><a xlink:href="../../d9/d4f/namespace_layout_algorithms.html#ae4a370e6ad78fdf1fa1d775a135339ee" target="_top" xlink:title="Checks if a given index point is part of the voxels which lie inside the meshs boundaries.">
<polygon fill="white" stroke="black" points="198,-791.69 198,-821.69 338,-821.69 338,-791.69 198,-791.69"/>
<text text-anchor="start" x="206" y="-809.69" font-family="Helvetica,sans-Serif" font-size="10.00">LayoutAlgorithms::isVoxel</text>
<text text-anchor="middle" x="268" y="-798.69" font-family="Helvetica,sans-Serif" font-size="10.00">IndexInsideMeshBoundaries</text>
</a>
</g>
</g>
<!-- Node1&#45;&gt;Node20 -->
<g id="edge22" class="edge">
<title>Node1&#45;&gt;Node20</title>
<path fill="none" stroke="midnightblue" d="M141.2,-777.71C157.55,-781.48 175.22,-785.55 192.01,-789.41"/>
<polygon fill="midnightblue" stroke="midnightblue" points="191.24,-792.83 201.77,-791.66 192.81,-786.01 191.24,-792.83"/>
</g>
<!-- Node21 -->
<g id="node21" class="node">
<title>Node21</title>
<g id="a_node21"><a xlink:href="../../d1/d7c/namespace_utils.html#a4b6c4a605143b128db1c74f39d0277ef" target="_top" xlink:title="Compute voxel grid integer index equivalent from world coordinate.">
<polygon fill="white" stroke="black" points="225,-313.19 225,-332.19 311,-332.19 311,-313.19 225,-313.19"/>
<text text-anchor="middle" x="268" y="-320.19" font-family="Helvetica,sans-Serif" font-size="10.00">Utils::posToCell</text>
</a>
</g>
</g>
<!-- Node1&#45;&gt;Node21 -->
<g id="edge26" class="edge">
<title>Node1&#45;&gt;Node21</title>
<path fill="none" stroke="midnightblue" d="M79.71,-747.46C91.46,-700.46 130.44,-554.15 186,-442.69 205.3,-403.96 235.27,-363.06 252.84,-340.41"/>
<polygon fill="midnightblue" stroke="midnightblue" points="255.7,-342.44 259.12,-332.41 250.19,-338.11 255.7,-342.44"/>
</g>
<!-- Node23 -->
<g id="node23" class="node">
<title>Node23</title>
<g id="a_node23"><a xlink:href="../../d6/db5/class_scene.html#a0955ff290776412f925da730a9f8058c" target="_top" xlink:title="Update the cuberille visualization after changes to the underlying voxel data.">
<polygon fill="white" stroke="black" points="195,-601.19 195,-620.19 341,-620.19 341,-601.19 195,-601.19"/>
<text text-anchor="middle" x="268" y="-608.19" font-family="Helvetica,sans-Serif" font-size="10.00">Scene::updateCuberilleActors</text>
</a>
</g>
</g>
<!-- Node1&#45;&gt;Node23 -->
<g id="edge28" class="edge">
<title>Node1&#45;&gt;Node23</title>
<path fill="none" stroke="midnightblue" d="M84.02,-747.59C99.68,-719.66 137.11,-660.01 186,-629.69 189.42,-627.57 193.06,-625.68 196.83,-624"/>
<polygon fill="midnightblue" stroke="midnightblue" points="198.37,-627.16 206.41,-620.26 195.82,-620.64 198.37,-627.16"/>
</g>
<!-- Node33 -->
<g id="node33" class="node">
<title>Node33</title>
<g id="a_node33"><a xlink:href="../../d6/db5/class_scene.html#aaff4c55f5c640ec8a12b62c5b6c11865" target="_top" xlink:title="Update the touchpoint / connector number text labels.">
<polygon fill="white" stroke="black" points="214,-105.19 214,-124.19 322,-124.19 322,-105.19 214,-105.19"/>
<text text-anchor="middle" x="268" y="-112.19" font-family="Helvetica,sans-Serif" font-size="10.00">Scene::updateLabels</text>
</a>
</g>
</g>
<!-- Node1&#45;&gt;Node33 -->
<g id="edge44" class="edge">
<title>Node1&#45;&gt;Node33</title>
<path fill="none" stroke="midnightblue" d="M78.69,-747.37C89.18,-688.84 129.54,-474.03 186,-303.69 207.27,-239.51 241.41,-166.84 257.73,-133.37"/>
<polygon fill="midnightblue" stroke="midnightblue" points="260.92,-134.82 262.19,-124.3 254.63,-131.73 260.92,-134.82"/>
</g>
<!-- Node41 -->
<g id="node41" class="node">
<title>Node41</title>
<g id="a_node41"><a xlink:href="../../d6/db5/class_scene.html#a415555bc0037489b1a9421747c318746" target="_top" xlink:title="Update the occupation map visualization after changes to the underlying voxel data.">
<polygon fill="white" stroke="black" points="194,-451.69 194,-481.69 342,-481.69 342,-451.69 194,-451.69"/>
<text text-anchor="start" x="202" y="-469.69" font-family="Helvetica,sans-Serif" font-size="10.00">Scene::updateOccupationMap</text>
<text text-anchor="middle" x="268" y="-458.69" font-family="Helvetica,sans-Serif" font-size="10.00">Actor</text>
</a>
</g>
</g>
<!-- Node1&#45;&gt;Node41 -->
<g id="edge54" class="edge">
<title>Node1&#45;&gt;Node41</title>
<path fill="none" stroke="midnightblue" d="M79.01,-747.46C88.06,-705.07 118.71,-584.03 186,-510.69 194.88,-501.01 206.39,-493.02 217.93,-486.62"/>
<polygon fill="midnightblue" stroke="midnightblue" points="219.88,-489.55 227.14,-481.83 216.66,-483.34 219.88,-489.55"/>
</g>
<!-- Node3 -->
<g id="node3" class="node">
<title>Node3</title>
<g id="a_node3"><a xlink:href="../../d9/d58/class_touchpoint.html#a88b5a8861cea4cd5d748494c0624d5b6" target="_top" xlink:title="Return touchpoint type.">
<polygon fill="white" stroke="black" points="388,-1103.19 388,-1122.19 540,-1122.19 540,-1103.19 388,-1103.19"/>
<text text-anchor="middle" x="464" y="-1110.19" font-family="Helvetica,sans-Serif" font-size="10.00">Touchpoint::getTouchpointType</text>
</a>
</g>
</g>
<!-- Node2&#45;&gt;Node3 -->
<g id="edge2" class="edge">
<title>Node2&#45;&gt;Node3</title>
<path fill="none" stroke="midnightblue" d="M324.59,-1112.69C341.14,-1112.69 359.67,-1112.69 377.66,-1112.69"/>
<polygon fill="midnightblue" stroke="midnightblue" points="377.87,-1116.19 387.87,-1112.69 377.87,-1109.19 377.87,-1116.19"/>
</g>
<!-- Node5 -->
<g id="node5" class="node">
<title>Node5</title>
<g id="a_node5"><a xlink:href="../../d1/d7c/namespace_utils.html#a752598d95d8825b2e95a57a2f35ba55f" target="_top" xlink:title="Compute voxel grid integer index equivalent from world coordinate.">
<polygon fill="white" stroke="black" points="388,-1053.69 388,-1083.69 540,-1083.69 540,-1053.69 388,-1053.69"/>
<text text-anchor="start" x="396" y="-1071.69" font-family="Helvetica,sans-Serif" font-size="10.00">Utils::getMeshWorldCoordinate</text>
<text text-anchor="middle" x="464" y="-1060.69" font-family="Helvetica,sans-Serif" font-size="10.00">Bounds</text>
</a>
</g>
</g>
<!-- Node4&#45;&gt;Node5 -->
<g id="edge4" class="edge">
<title>Node4&#45;&gt;Node5</title>
<path fill="none" stroke="midnightblue" d="M336.04,-1068.69C349.52,-1068.69 363.86,-1068.69 377.87,-1068.69"/>
<polygon fill="midnightblue" stroke="midnightblue" points="377.99,-1072.19 387.99,-1068.69 377.99,-1065.19 377.99,-1072.19"/>
</g>
<!-- Node7 -->
<g id="node7" class="node">
<title>Node7</title>
<g id="a_node7"><a xlink:href="../../d9/d58/class_touchpoint.html#ae51e750ddb4737270a4d88494dcc21d9" target="_top" xlink:title="Return the bounds of the touchpoint as array object (in object coordinates)">
<polygon fill="white" stroke="black" points="406,-1010.19 406,-1029.19 522,-1029.19 522,-1010.19 406,-1010.19"/>
<text text-anchor="middle" x="464" y="-1017.19" font-family="Helvetica,sans-Serif" font-size="10.00">Touchpoint::getBounds</text>
</a>
</g>
</g>
<!-- Node6&#45;&gt;Node7 -->
<g id="edge6" class="edge">
<title>Node6&#45;&gt;Node7</title>
<path fill="none" stroke="midnightblue" d="M336.04,-1019.69C355.35,-1019.69 376.41,-1019.69 395.74,-1019.69"/>
<polygon fill="midnightblue" stroke="midnightblue" points="395.97,-1023.19 405.97,-1019.69 395.97,-1016.19 395.97,-1023.19"/>
</g>
<!-- Node6&#45;&gt;Node8 -->
<g id="edge7" class="edge">
<title>Node6&#45;&gt;Node8</title>
<path fill="none" stroke="midnightblue" d="M336.04,-1005.52C359.49,-1000.56 385.55,-995.06 407.92,-990.33"/>
<polygon fill="midnightblue" stroke="midnightblue" points="408.85,-993.71 417.91,-988.22 407.4,-986.86 408.85,-993.71"/>
</g>
<!-- Node9&#45;&gt;Node10 -->
<g id="edge9" class="edge">
<title>Node9&#45;&gt;Node10</title>
<path fill="none" stroke="midnightblue" d="M338.49,-870.73C361.78,-875.78 387.37,-881.32 409.27,-886.06"/>
<polygon fill="midnightblue" stroke="midnightblue" points="408.53,-889.48 419.05,-888.17 410.01,-882.64 408.53,-889.48"/>
</g>
<!-- Node11 -->
<g id="node11" class="node">
<title>Node11</title>
<g id="a_node11"><a xlink:href="../../d6/db5/class_scene.html#a5a6d3fda8f75cf2aa8b19d7fd7f3c355" target="_top" xlink:title="Return the voxelization resolution.">
<polygon fill="white" stroke="black" points="390.5,-847.19 390.5,-866.19 537.5,-866.19 537.5,-847.19 390.5,-847.19"/>
<text text-anchor="middle" x="464" y="-854.19" font-family="Helvetica,sans-Serif" font-size="10.00">Scene::getVoxelizeResolution</text>
</a>
</g>
</g>
<!-- Node9&#45;&gt;Node11 -->
<g id="edge10" class="edge">
<title>Node9&#45;&gt;Node11</title>
<path fill="none" stroke="midnightblue" d="M350.15,-856.11C360.01,-856.16 370.1,-856.21 379.99,-856.26"/>
<polygon fill="midnightblue" stroke="midnightblue" points="380.19,-859.76 390.21,-856.31 380.23,-852.76 380.19,-859.76"/>
</g>
<!-- Node12 -->
<g id="node12" class="node">
<title>Node12</title>
<g id="a_node12"><a xlink:href="../../d1/d7c/namespace_utils.html#a606fb1eb5072ca20f56293fa71bd8578" target="_top" xlink:title="Compute 1D linearized index from 3D&#45;coodinate index.">
<polygon fill="white" stroke="black" points="436,-809.19 436,-828.19 492,-828.19 492,-809.19 436,-809.19"/>
<text text-anchor="middle" x="464" y="-816.19" font-family="Helvetica,sans-Serif" font-size="10.00">Utils::idx</text>
</a>
</g>
</g>
<!-- Node9&#45;&gt;Node12 -->
<g id="edge11" class="edge">
<title>Node9&#45;&gt;Node12</title>
<path fill="none" stroke="midnightblue" d="M347.91,-840.64C374.89,-835.49 403.82,-829.98 425.92,-825.76"/>
<polygon fill="midnightblue" stroke="midnightblue" points="426.7,-829.17 435.87,-823.86 425.39,-822.3 426.7,-829.17"/>
</g>
<!-- Node17&#45;&gt;Node10 -->
<g id="edge19" class="edge">
<title>Node17&#45;&gt;Node10</title>
<path fill="none" stroke="midnightblue" d="M315.47,-928.11C342.94,-922.44 377.92,-915.23 406.92,-909.25"/>
<polygon fill="midnightblue" stroke="midnightblue" points="407.82,-912.64 416.91,-907.19 406.41,-905.78 407.82,-912.64"/>
</g>
<!-- Node19 -->
<g id="node19" class="node">
<title>Node19</title>
<g id="a_node19"><a xlink:href="../../d6/db5/class_scene.html#a0799bb0687ffe3a97e0523a4e700ef2d" target="_top" xlink:title="Return the occupation map visualization.">
<polygon fill="white" stroke="black" points="386.5,-508.19 386.5,-527.19 541.5,-527.19 541.5,-508.19 386.5,-508.19"/>
<text text-anchor="middle" x="464" y="-515.19" font-family="Helvetica,sans-Serif" font-size="10.00">Scene::getOccupationMapActor</text>
</a>
</g>
</g>
<!-- Node18&#45;&gt;Node19 -->
<g id="edge21" class="edge">
<title>Node18&#45;&gt;Node19</title>
<path fill="none" stroke="midnightblue" d="M336.58,-525.51C349.39,-524.72 362.95,-523.88 376.26,-523.05"/>
<polygon fill="midnightblue" stroke="midnightblue" points="376.6,-526.54 386.37,-522.43 376.17,-519.55 376.6,-526.54"/>
</g>
<!-- Node20&#45;&gt;Node10 -->
<g id="edge23" class="edge">
<title>Node20&#45;&gt;Node10</title>
<path fill="none" stroke="midnightblue" d="M331.34,-821.75C337.9,-824.54 344.26,-827.83 350,-831.69 370.96,-845.79 364.89,-861.81 386,-875.69 391.26,-879.15 397.07,-882.07 403.07,-884.54"/>
<polygon fill="midnightblue" stroke="midnightblue" points="402,-887.88 412.6,-888.06 404.43,-881.31 402,-887.88"/>
</g>
<!-- Node20&#45;&gt;Node11 -->
<g id="edge24" class="edge">
<title>Node20&#45;&gt;Node11</title>
<path fill="none" stroke="midnightblue" d="M324.89,-821.71C344.23,-826.85 366.05,-832.59 386,-837.69 395.01,-839.99 404.63,-842.41 413.91,-844.71"/>
<polygon fill="midnightblue" stroke="midnightblue" points="413.25,-848.15 423.8,-847.15 414.93,-841.36 413.25,-848.15"/>
</g>
<!-- Node20&#45;&gt;Node12 -->
<g id="edge25" class="edge">
<title>Node20&#45;&gt;Node12</title>
<path fill="none" stroke="midnightblue" d="M338.22,-810.97C367.73,-812.8 401,-814.85 425.76,-816.39"/>
<polygon fill="midnightblue" stroke="midnightblue" points="425.61,-819.88 435.81,-817.01 426.04,-812.9 425.61,-819.88"/>
</g>
<!-- Node22 -->
<g id="node22" class="node">
<title>Node22</title>
<g id="a_node22"><a xlink:href="../../d1/d7c/namespace_utils.html#ac9b063fc04e0a4e5501c8ed0af96ac47" target="_top" xlink:title="Clamp integer value between min and max.">
<polygon fill="white" stroke="black" points="424,-219.19 424,-238.19 504,-238.19 504,-219.19 424,-219.19"/>
<text text-anchor="middle" x="464" y="-226.19" font-family="Helvetica,sans-Serif" font-size="10.00">Utils::clampInt</text>
</a>
</g>
</g>
<!-- Node21&#45;&gt;Node22 -->
<g id="edge27" class="edge">
<title>Node21&#45;&gt;Node22</title>
<path fill="none" stroke="midnightblue" d="M280.88,-313.16C301.23,-297.31 344.55,-265.51 386,-247.69 394.83,-243.9 404.56,-240.76 414.05,-238.2"/>
<polygon fill="midnightblue" stroke="midnightblue" points="414.96,-241.58 423.81,-235.74 413.25,-234.79 414.96,-241.58"/>
</g>
<!-- Node24 -->
<g id="node24" class="node">
<title>Node24</title>
<g id="a_node24"><a xlink:href="../../db/dae/class_voxel_image_visualizer.html#a9d6ddcce68efaea01bfacaa932f27d9a" target="_top" xlink:title="Return RGB color cube output visualization.">
<polygon fill="white" stroke="black" points="597,-666.69 597,-696.69 707,-696.69 707,-666.69 597,-666.69"/>
<text text-anchor="start" x="605" y="-684.69" font-family="Helvetica,sans-Serif" font-size="10.00">VoxelImageVisualizer</text>
<text text-anchor="middle" x="652" y="-673.69" font-family="Helvetica,sans-Serif" font-size="10.00">::getColorOutput</text>
</a>
</g>
</g>
<!-- Node23&#45;&gt;Node24 -->
<g id="edge29" class="edge">
<title>Node23&#45;&gt;Node24</title>
<path fill="none" stroke="midnightblue" d="M320.76,-620.23C330.65,-622.78 340.78,-625.9 350,-629.69 367.35,-636.81 368.26,-645.6 386,-651.69 451.93,-674.32 531.96,-680.71 586.71,-682.13"/>
<polygon fill="midnightblue" stroke="midnightblue" points="586.9,-685.64 596.97,-682.35 587.04,-678.64 586.9,-685.64"/>
</g>
<!-- Node27 -->
<g id="node27" class="node">
<title>Node27</title>
<g id="a_node27"><a xlink:href="../../db/dae/class_voxel_image_visualizer.html#a279e821afcfbef7cb624c391eec3b7a4" target="_top" xlink:title="Return visualization of the mesh interior only.">
<polygon fill="white" stroke="black" points="409,-759.69 409,-789.69 519,-789.69 519,-759.69 409,-759.69"/>
<text text-anchor="start" x="417" y="-777.69" font-family="Helvetica,sans-Serif" font-size="10.00">VoxelImageVisualizer</text>
<text text-anchor="middle" x="464" y="-766.69" font-family="Helvetica,sans-Serif" font-size="10.00">::getInteriorOutput</text>
</a>
</g>
</g>
<!-- Node23&#45;&gt;Node27 -->
<g id="edge32" class="edge">
<title>Node23&#45;&gt;Node27</title>
<path fill="none" stroke="midnightblue" d="M336.04,-620.23C341.13,-622.75 345.87,-625.85 350,-629.69 389.23,-666.15 349.44,-705.55 386,-744.69 390.02,-748.99 394.72,-752.68 399.79,-755.85"/>
<polygon fill="midnightblue" stroke="midnightblue" points="398.16,-758.95 408.61,-760.7 401.53,-752.81 398.16,-758.95"/>
</g>
<!-- Node29 -->
<g id="node29" class="node">
<title>Node29</title>
<g id="a_node29"><a xlink:href="../../db/dae/class_voxel_image_visualizer.html#a00b60f629dcc3335bff26934e88b9bcb" target="_top" xlink:title="Return the occupation map visualization (unoccupied = yellow, occupied = blue)">
<polygon fill="white" stroke="black" points="594.5,-617.69 594.5,-647.69 709.5,-647.69 709.5,-617.69 594.5,-617.69"/>
<text text-anchor="start" x="602.5" y="-635.69" font-family="Helvetica,sans-Serif" font-size="10.00">VoxelImageVisualizer</text>
<text text-anchor="middle" x="652" y="-624.69" font-family="Helvetica,sans-Serif" font-size="10.00">::getOccupationOutput</text>
</a>
</g>
</g>
<!-- Node23&#45;&gt;Node29 -->
<g id="edge36" class="edge">
<title>Node23&#45;&gt;Node29</title>
<path fill="none" stroke="midnightblue" d="M309.22,-620.22C336.94,-626.62 371.33,-634.14 386,-635.69 453.27,-642.8 530.68,-640.75 584.39,-637.72"/>
<polygon fill="midnightblue" stroke="midnightblue" points="584.7,-641.21 594.47,-637.12 584.28,-634.22 584.7,-641.21"/>
</g>
<!-- Node30 -->
<g id="node30" class="node">
<title>Node30</title>
<g id="a_node30"><a xlink:href="../../db/dae/class_voxel_image_visualizer.html#a5f41640feebb9f49204b777abb09fec2" target="_top" xlink:title="Return visualization with VOXEL_OUTSIDE = &quot;White&quot;, VOXEL_OCCUPIED = &quot;Red&quot;, VOXEL_SHELL = &quot;Yellow&quot;,...">
<polygon fill="white" stroke="black" points="586.5,-715.69 586.5,-745.69 717.5,-745.69 717.5,-715.69 586.5,-715.69"/>
<text text-anchor="start" x="594.5" y="-733.69" font-family="Helvetica,sans-Serif" font-size="10.00">VoxelImageVisualizer</text>
<text text-anchor="middle" x="652" y="-722.69" font-family="Helvetica,sans-Serif" font-size="10.00">::getShellAndInsideOutput</text>
</a>
</g>
</g>
<!-- Node23&#45;&gt;Node30 -->
<g id="edge39" class="edge">
<title>Node23&#45;&gt;Node30</title>
<path fill="none" stroke="midnightblue" d="M331.1,-620.31C337.78,-622.77 344.23,-625.84 350,-629.69 372.78,-644.89 362.92,-664.95 386,-679.69 442.96,-716.08 519.88,-727.65 576.18,-730.82"/>
<polygon fill="midnightblue" stroke="midnightblue" points="576.28,-734.33 586.44,-731.32 576.62,-727.34 576.28,-734.33"/>
</g>
<!-- Node31 -->
<g id="node31" class="node">
<title>Node31</title>
<g id="a_node31"><a xlink:href="../../db/dae/class_voxel_image_visualizer.html#a15634f5a62fd0d71806741d1db033243" target="_top" xlink:title="Set input data of the visualizer.">
<polygon fill="white" stroke="black" points="409,-595.69 409,-625.69 519,-625.69 519,-595.69 409,-595.69"/>
<text text-anchor="start" x="417" y="-613.69" font-family="Helvetica,sans-Serif" font-size="10.00">VoxelImageVisualizer</text>
<text text-anchor="middle" x="464" y="-602.69" font-family="Helvetica,sans-Serif" font-size="10.00">::setInputData</text>
</a>
</g>
</g>
<!-- Node23&#45;&gt;Node31 -->
<g id="edge42" class="edge">
<title>Node23&#45;&gt;Node31</title>
<path fill="none" stroke="midnightblue" d="M341.24,-610.69C360.14,-610.69 380.4,-610.69 398.85,-610.69"/>
<polygon fill="midnightblue" stroke="midnightblue" points="398.9,-614.19 408.9,-610.69 398.9,-607.19 398.9,-614.19"/>
</g>
<!-- Node32 -->
<g id="node32" class="node">
<title>Node32</title>
<g id="a_node32"><a xlink:href="../../db/dae/class_voxel_image_visualizer.html#a65eec474a368555a6ba16c1f54e956db" target="_top" xlink:title="Set output size of the visualization.">
<polygon fill="white" stroke="black" points="409,-546.69 409,-576.69 519,-576.69 519,-546.69 409,-546.69"/>
<text text-anchor="start" x="417" y="-564.69" font-family="Helvetica,sans-Serif" font-size="10.00">VoxelImageVisualizer</text>
<text text-anchor="middle" x="464" y="-553.69" font-family="Helvetica,sans-Serif" font-size="10.00">::setOutputSize</text>
</a>
</g>
</g>
<!-- Node23&#45;&gt;Node32 -->
<g id="edge43" class="edge">
<title>Node23&#45;&gt;Node32</title>
<path fill="none" stroke="midnightblue" d="M306.87,-601.13C333.03,-594.52 368.49,-585.56 399,-577.85"/>
<polygon fill="midnightblue" stroke="midnightblue" points="399.87,-581.24 408.71,-575.4 398.16,-574.46 399.87,-581.24"/>
</g>
<!-- Node25 -->
<g id="node25" class="node">
<title>Node25</title>
<g id="a_node25"><a xlink:href="../../db/dae/class_voxel_image_visualizer.html#a381e70e9dba0cad1fddf946aa7f4a408" target="_top" xlink:title="Compute scaling factor for visualization actor.">
<polygon fill="white" stroke="black" points="771.5,-713.69 771.5,-743.69 881.5,-743.69 881.5,-713.69 771.5,-713.69"/>
<text text-anchor="start" x="779.5" y="-731.69" font-family="Helvetica,sans-Serif" font-size="10.00">VoxelImageVisualizer</text>
<text text-anchor="middle" x="826.5" y="-720.69" font-family="Helvetica,sans-Serif" font-size="10.00">::getScaleValue</text>
</a>
</g>
</g>
<!-- Node24&#45;&gt;Node25 -->
<g id="edge30" class="edge">
<title>Node24&#45;&gt;Node25</title>
<path fill="none" stroke="midnightblue" d="M707.11,-696.43C724.36,-701.13 743.62,-706.38 761.51,-711.26"/>
<polygon fill="midnightblue" stroke="midnightblue" points="760.72,-714.67 771.29,-713.92 762.56,-707.91 760.72,-714.67"/>
</g>
<!-- Node26 -->
<g id="node26" class="node">
<title>Node26</title>
<g id="a_node26"><a xlink:href="../../db/dae/class_voxel_image_visualizer.html#a2cf2e268d83ea28ea097a557b4e66fcd" target="_top" xlink:title="Compute 1D linearized index from 3D&#45;coodinate index.">
<polygon fill="white" stroke="black" points="762,-673.19 762,-692.19 891,-692.19 891,-673.19 762,-673.19"/>
<text text-anchor="middle" x="826.5" y="-680.19" font-family="Helvetica,sans-Serif" font-size="10.00">VoxelImageVisualizer::idx</text>
</a>
</g>
</g>
<!-- Node24&#45;&gt;Node26 -->
<g id="edge31" class="edge">
<title>Node24&#45;&gt;Node26</title>
<path fill="none" stroke="midnightblue" d="M707.11,-682C721.24,-682.08 736.71,-682.17 751.67,-682.26"/>
<polygon fill="midnightblue" stroke="midnightblue" points="751.91,-685.76 761.93,-682.32 751.95,-678.76 751.91,-685.76"/>
</g>
<!-- Node28 -->
<g id="node28" class="node">
<title>Node28</title>
<g id="a_node28"><a xlink:href="../../db/dae/class_voxel_image_visualizer.html#a266b4be6343bb49d53b4af2c9e7df310" target="_top" xlink:title=" ">
<polygon fill="white" stroke="black" points="597,-764.69 597,-794.69 707,-794.69 707,-764.69 597,-764.69"/>
<text text-anchor="start" x="605" y="-782.69" font-family="Helvetica,sans-Serif" font-size="10.00">VoxelImageVisualizer</text>
<text text-anchor="middle" x="652" y="-771.69" font-family="Helvetica,sans-Serif" font-size="10.00">::getShellOutput</text>
</a>
</g>
</g>
<!-- Node27&#45;&gt;Node28 -->
<g id="edge33" class="edge">
<title>Node27&#45;&gt;Node28</title>
<path fill="none" stroke="midnightblue" d="M519.05,-776.14C540.16,-776.71 564.54,-777.36 586.56,-777.96"/>
<polygon fill="midnightblue" stroke="midnightblue" points="586.73,-781.46 596.82,-778.23 586.91,-774.47 586.73,-781.46"/>
</g>
<!-- Node28&#45;&gt;Node25 -->
<g id="edge34" class="edge">
<title>Node28&#45;&gt;Node25</title>
<path fill="none" stroke="midnightblue" d="M703.82,-764.66C723.04,-758.98 745.1,-752.46 765.11,-746.54"/>
<polygon fill="midnightblue" stroke="midnightblue" points="766.15,-749.89 774.74,-743.7 764.16,-743.17 766.15,-749.89"/>
</g>
<!-- Node28&#45;&gt;Node26 -->
<g id="edge35" class="edge">
<title>Node28&#45;&gt;Node26</title>
<path fill="none" stroke="midnightblue" d="M707.19,-766.28C713.86,-763.39 720.32,-759.89 726,-755.69 748.31,-739.19 739.83,-721.37 762,-704.69 766.37,-701.4 771.27,-698.58 776.36,-696.17"/>
<polygon fill="midnightblue" stroke="midnightblue" points="777.79,-699.36 785.65,-692.24 775.07,-692.91 777.79,-699.36"/>
</g>
<!-- Node29&#45;&gt;Node25 -->
<g id="edge37" class="edge">
<title>Node29&#45;&gt;Node25</title>
<path fill="none" stroke="midnightblue" d="M708.05,-647.77C714.36,-650.58 720.5,-653.87 726,-657.69 746.75,-672.11 741.79,-686.53 762,-701.69 765.55,-704.35 769.39,-706.8 773.38,-709.06"/>
<polygon fill="midnightblue" stroke="midnightblue" points="771.78,-712.17 782.27,-713.67 775.01,-705.96 771.78,-712.17"/>
</g>
<!-- Node29&#45;&gt;Node26 -->
<g id="edge38" class="edge">
<title>Node29&#45;&gt;Node26</title>
<path fill="none" stroke="midnightblue" d="M704.76,-647.69C729.68,-654.91 759.2,-663.47 782.81,-670.32"/>
<polygon fill="midnightblue" stroke="midnightblue" points="781.96,-673.71 792.54,-673.14 783.91,-666.99 781.96,-673.71"/>
</g>
<!-- Node30&#45;&gt;Node25 -->
<g id="edge40" class="edge">
<title>Node30&#45;&gt;Node25</title>
<path fill="none" stroke="midnightblue" d="M717.72,-729.94C731.96,-729.77 747.02,-729.6 761.24,-729.43"/>
<polygon fill="midnightblue" stroke="midnightblue" points="761.45,-732.93 771.41,-729.32 761.37,-725.93 761.45,-732.93"/>
</g>
<!-- Node30&#45;&gt;Node26 -->
<g id="edge41" class="edge">
<title>Node30&#45;&gt;Node26</title>
<path fill="none" stroke="midnightblue" d="M707.11,-715.63C731.03,-708.98 758.81,-701.25 781.45,-694.95"/>
<polygon fill="midnightblue" stroke="midnightblue" points="782.43,-698.31 791.13,-692.25 780.56,-691.56 782.43,-698.31"/>
</g>
<!-- Node34 -->
<g id="node34" class="node">
<title>Node34</title>
<g id="a_node34"><a xlink:href="../../d9/d58/class_touchpoint.html#a25425137e60d6d5f21d597e8f6632eed" target="_top" xlink:title="Return the interior wiring connection position (world coordinates)">
<polygon fill="white" stroke="black" points="389.5,-67.19 389.5,-86.19 538.5,-86.19 538.5,-67.19 389.5,-67.19"/>
<text text-anchor="middle" x="464" y="-74.19" font-family="Helvetica,sans-Serif" font-size="10.00">Touchpoint::getInteriorPosition</text>
</a>
</g>
</g>
<!-- Node33&#45;&gt;Node34 -->
<g id="edge45" class="edge">
<title>Node33&#45;&gt;Node34</title>
<path fill="none" stroke="midnightblue" d="M317.95,-105.1C344.25,-99.95 376.84,-93.57 404.47,-88.15"/>
<polygon fill="midnightblue" stroke="midnightblue" points="405.26,-91.57 414.4,-86.21 403.91,-84.7 405.26,-91.57"/>
</g>
<!-- Node35 -->
<g id="node35" class="node">
<title>Node35</title>
<g id="a_node35"><a xlink:href="../../d9/d58/class_touchpoint.html#a3c7555f7762d81e5b93e48fa31a7490c" target="_top" xlink:title="Return the geometry of the touchpoint (vtkPolyData)">
<polygon fill="white" stroke="black" points="402,-29.19 402,-48.19 526,-48.19 526,-29.19 402,-29.19"/>
<text text-anchor="middle" x="464" y="-36.19" font-family="Helvetica,sans-Serif" font-size="10.00">Touchpoint::getPolyData</text>
</a>
</g>
</g>
<!-- Node33&#45;&gt;Node35 -->
<g id="edge46" class="edge">
<title>Node33&#45;&gt;Node35</title>
<path fill="none" stroke="midnightblue" d="M285.95,-105.01C308.27,-92.6 349.04,-71.08 386,-57.69 392.85,-55.21 400.16,-52.94 407.45,-50.9"/>
<polygon fill="midnightblue" stroke="midnightblue" points="408.57,-54.23 417.33,-48.27 406.76,-47.46 408.57,-54.23"/>
</g>
<!-- Node36 -->
<g id="node36" class="node">
<title>Node36</title>
<g id="a_node36"><a xlink:href="../../d9/d58/class_touchpoint.html#ab61727c9bb477bccca373f92a2b8bea4" target="_top" xlink:title="Return the touchpoint number label text actor.">
<polygon fill="white" stroke="black" points="764,-67.19 764,-86.19 889,-86.19 889,-67.19 764,-67.19"/>
<text text-anchor="middle" x="826.5" y="-74.19" font-family="Helvetica,sans-Serif" font-size="10.00">Touchpoint::getTextActor</text>
</a>
</g>
</g>
<!-- Node33&#45;&gt;Node36 -->
<g id="edge47" class="edge">
<title>Node33&#45;&gt;Node36</title>
<path fill="none" stroke="midnightblue" d="M276.78,-104.94C293.89,-84.37 337.18,-37.01 386,-19.69 532.47,32.29 721.43,-33.25 794.63,-63.21"/>
<polygon fill="midnightblue" stroke="midnightblue" points="793.6,-66.57 804.18,-67.19 796.29,-60.11 793.6,-66.57"/>
</g>
<!-- Node37 -->
<g id="node37" class="node">
<title>Node37</title>
<g id="a_node37"><a xlink:href="../../d6/db5/class_scene.html#ae4bdf05105a36057e86693a0f60afbd3" target="_top" xlink:title="Hide the touchpoint / connector text labels.">
<polygon fill="white" stroke="black" points="406,-143.19 406,-162.19 522,-162.19 522,-143.19 406,-143.19"/>
<text text-anchor="middle" x="464" y="-150.19" font-family="Helvetica,sans-Serif" font-size="10.00">Scene::hideTextActors</text>
</a>
</g>
</g>
<!-- Node33&#45;&gt;Node37 -->
<g id="edge48" class="edge">
<title>Node33&#45;&gt;Node37</title>
<path fill="none" stroke="midnightblue" d="M317.95,-124.28C344.25,-129.43 376.84,-135.81 404.47,-141.22"/>
<polygon fill="midnightblue" stroke="midnightblue" points="403.91,-144.68 414.4,-143.17 405.26,-137.81 403.91,-144.68"/>
</g>
<!-- Node39 -->
<g id="node39" class="node">
<title>Node39</title>
<g id="a_node39"><a xlink:href="../../d9/d58/class_touchpoint.html#a27645f8861d2ce10dc9bff4e72549539" target="_top" xlink:title="Set text label touchpoint number actor.">
<polygon fill="white" stroke="black" points="401.5,-105.19 401.5,-124.19 526.5,-124.19 526.5,-105.19 401.5,-105.19"/>
<text text-anchor="middle" x="464" y="-112.19" font-family="Helvetica,sans-Serif" font-size="10.00">Touchpoint::setTextActor</text>
</a>
</g>
</g>
<!-- Node33&#45;&gt;Node39 -->
<g id="edge51" class="edge">
<title>Node33&#45;&gt;Node39</title>
<path fill="none" stroke="midnightblue" d="M322.01,-114.69C343.41,-114.69 368.44,-114.69 391.42,-114.69"/>
<polygon fill="midnightblue" stroke="midnightblue" points="391.47,-118.19 401.47,-114.69 391.47,-111.19 391.47,-118.19"/>
</g>
<!-- Node40 -->
<g id="node40" class="node">
<title>Node40</title>
<g id="a_node40"><a xlink:href="../../d6/db5/class_scene.html#aa9d387019f7a7456bdd8af2b21723387" target="_top" xlink:title="Show the touchpoint / connector number text labels.">
<polygon fill="white" stroke="black" points="403.5,-181.19 403.5,-200.19 524.5,-200.19 524.5,-181.19 403.5,-181.19"/>
<text text-anchor="middle" x="464" y="-188.19" font-family="Helvetica,sans-Serif" font-size="10.00">Scene::showTextActors</text>
</a>
</g>
</g>
<!-- Node33&#45;&gt;Node40 -->
<g id="edge52" class="edge">
<title>Node33&#45;&gt;Node40</title>
<path fill="none" stroke="midnightblue" d="M285.95,-124.36C308.27,-136.78 349.04,-158.3 386,-171.69 392.85,-174.17 400.16,-176.44 407.45,-178.48"/>
<polygon fill="midnightblue" stroke="midnightblue" points="406.76,-181.92 417.33,-181.11 408.57,-175.15 406.76,-181.92"/>
</g>
<!-- Node38 -->
<g id="node38" class="node">
<title>Node38</title>
<g id="a_node38"><a xlink:href="../../d6/db5/class_scene.html#a8a1b015f159dd9ba883ae601464f6c28" target="_top" xlink:title="Set if the touchpoint / connector number labels are visible.">
<polygon fill="white" stroke="black" points="578,-143.19 578,-162.19 726,-162.19 726,-143.19 578,-143.19"/>
<text text-anchor="middle" x="652" y="-150.19" font-family="Helvetica,sans-Serif" font-size="10.00">Scene::setTextActorsVisibility</text>
</a>
</g>
</g>
<!-- Node37&#45;&gt;Node38 -->
<g id="edge49" class="edge">
<title>Node37&#45;&gt;Node38</title>
<path fill="none" stroke="midnightblue" d="M522.07,-152.69C536.52,-152.69 552.35,-152.69 567.8,-152.69"/>
<polygon fill="midnightblue" stroke="midnightblue" points="567.89,-156.19 577.89,-152.69 567.89,-149.19 567.89,-156.19"/>
</g>
<!-- Node38&#45;&gt;Node36 -->
<g id="edge50" class="edge">
<title>Node38&#45;&gt;Node36</title>
<path fill="none" stroke="midnightblue" d="M674.85,-143.06C705.05,-129.76 759.72,-105.67 794.24,-90.46"/>
<polygon fill="midnightblue" stroke="midnightblue" points="796.09,-93.47 803.83,-86.24 793.27,-87.07 796.09,-93.47"/>
</g>
<!-- Node40&#45;&gt;Node38 -->
<g id="edge53" class="edge">
<title>Node40&#45;&gt;Node38</title>
<path fill="none" stroke="midnightblue" d="M511.94,-181.1C537.03,-175.97 568.12,-169.62 594.53,-164.23"/>
<polygon fill="midnightblue" stroke="midnightblue" points="595.3,-167.64 604.4,-162.21 593.9,-160.78 595.3,-167.64"/>
</g>
<!-- Node41&#45;&gt;Node19 -->
<g id="edge58" class="edge">
<title>Node41&#45;&gt;Node19</title>
<path fill="none" stroke="midnightblue" d="M326.16,-481.71C355,-489.3 389.52,-498.37 416.68,-505.51"/>
<polygon fill="midnightblue" stroke="midnightblue" points="416.14,-508.99 426.7,-508.15 417.92,-502.22 416.14,-508.99"/>
</g>
<!-- Node41&#45;&gt;Node29 -->
<g id="edge59" class="edge">
<title>Node41&#45;&gt;Node29</title>
<path fill="none" stroke="midnightblue" d="M342.19,-460.78C399.9,-459.4 480.62,-464.97 542,-498.69 587.97,-523.94 622.01,-577.24 638.96,-608.47"/>
<polygon fill="midnightblue" stroke="midnightblue" points="635.9,-610.19 643.66,-617.4 642.1,-606.92 635.9,-610.19"/>
</g>
<!-- Node41&#45;&gt;Node31 -->
<g id="edge61" class="edge">
<title>Node41&#45;&gt;Node31</title>
<path fill="none" stroke="midnightblue" d="M308.24,-481.82C322.75,-488.89 338.45,-498.48 350,-510.69 375.69,-537.84 357.78,-562.18 386,-586.69 389.99,-590.16 394.49,-593.13 399.24,-595.67"/>
<polygon fill="midnightblue" stroke="midnightblue" points="398.11,-599 408.65,-600.04 401.06,-592.65 398.11,-599"/>
</g>
<!-- Node41&#45;&gt;Node32 -->
<g id="edge63" class="edge">
<title>Node41&#45;&gt;Node32</title>
<path fill="none" stroke="midnightblue" d="M298.76,-481.69C314.3,-489.81 333.47,-500.29 350,-510.69 366.71,-521.2 368.4,-527.76 386,-536.69 390.32,-538.88 394.86,-540.93 399.5,-542.85"/>
<polygon fill="midnightblue" stroke="midnightblue" points="398.52,-546.22 409.11,-546.58 401.06,-539.7 398.52,-546.22"/>
</g>
<!-- Node42 -->
<g id="node42" class="node">
<title>Node42</title>
<g id="a_node42"><a xlink:href="../../d6/db5/class_scene.html#aa52192763d5339a0e7803abe296220c9" target="_top" xlink:title="Return the cuberille visualization of the voxel grid data.">
<polygon fill="white" stroke="black" points="401.5,-257.19 401.5,-276.19 526.5,-276.19 526.5,-257.19 401.5,-257.19"/>
<text text-anchor="middle" x="464" y="-264.19" font-family="Helvetica,sans-Serif" font-size="10.00">Scene::getCuberilleActor</text>
</a>
</g>
</g>
<!-- Node41&#45;&gt;Node42 -->
<g id="edge55" class="edge">
<title>Node41&#45;&gt;Node42</title>
<path fill="none" stroke="midnightblue" d="M278.99,-451.31C294.31,-427.73 324.48,-381.23 350,-341.69 366.05,-316.83 361.93,-302.9 386,-285.69 388.69,-283.77 391.55,-282.04 394.53,-280.48"/>
<polygon fill="midnightblue" stroke="midnightblue" points="396.08,-283.62 403.75,-276.32 393.2,-277.24 396.08,-283.62"/>
</g>
<!-- Node43 -->
<g id="node43" class="node">
<title>Node43</title>
<g id="a_node43"><a xlink:href="../../d6/db5/class_scene.html#a7009d25646e9f3a07482091ed2d62e52" target="_top" xlink:title="Return the inner and outer voxels visualization of the voxel grid data.">
<polygon fill="white" stroke="black" points="386,-420.69 386,-450.69 542,-450.69 542,-420.69 386,-420.69"/>
<text text-anchor="start" x="394" y="-438.69" font-family="Helvetica,sans-Serif" font-size="10.00">Scene::getInnerAndOuterVoxels</text>
<text text-anchor="middle" x="464" y="-427.69" font-family="Helvetica,sans-Serif" font-size="10.00">Actor</text>
</a>
</g>
</g>
<!-- Node41&#45;&gt;Node43 -->
<g id="edge56" class="edge">
<title>Node41&#45;&gt;Node43</title>
<path fill="none" stroke="midnightblue" d="M342.07,-455.01C353.12,-453.25 364.61,-451.41 375.92,-449.6"/>
<polygon fill="midnightblue" stroke="midnightblue" points="376.47,-453.06 385.79,-448.03 375.36,-446.15 376.47,-453.06"/>
</g>
<!-- Node44 -->
<g id="node44" class="node">
<title>Node44</title>
<g id="a_node44"><a xlink:href="../../d6/db5/class_scene.html#a04c9e871c5edc15ca00d736a9cb6c0d0" target="_top" xlink:title="Return the interior voxels only visualization of the voxel grid data.">
<polygon fill="white" stroke="black" points="402.5,-371.69 402.5,-401.69 525.5,-401.69 525.5,-371.69 402.5,-371.69"/>
<text text-anchor="start" x="410.5" y="-389.69" font-family="Helvetica,sans-Serif" font-size="10.00">Scene::getInteriorVoxels</text>
<text text-anchor="middle" x="464" y="-378.69" font-family="Helvetica,sans-Serif" font-size="10.00">Actor</text>
</a>
</g>
</g>
<!-- Node41&#45;&gt;Node44 -->
<g id="edge57" class="edge">
<title>Node41&#45;&gt;Node44</title>
<path fill="none" stroke="midnightblue" d="M298.36,-451.63C321.76,-439.94 355.53,-423.74 386,-411.69 391.75,-409.42 397.79,-407.19 403.86,-405.05"/>
<polygon fill="midnightblue" stroke="midnightblue" points="405.06,-408.34 413.38,-401.78 402.79,-401.72 405.06,-408.34"/>
</g>
<!-- Node45 -->
<g id="node45" class="node">
<title>Node45</title>
<g id="a_node45"><a xlink:href="../../d6/db5/class_scene.html#acc5e8dbc84b359afaa7d4ab9b9ef265a" target="_top" xlink:title="Return the working plane actor of the scene.">
<polygon fill="white" stroke="black" points="397,-333.19 397,-352.19 531,-352.19 531,-333.19 397,-333.19"/>
<text text-anchor="middle" x="464" y="-340.19" font-family="Helvetica,sans-Serif" font-size="10.00">Scene::getWorkPlaneActor</text>
</a>
</g>
</g>
<!-- Node41&#45;&gt;Node45 -->
<g id="edge60" class="edge">
<title>Node41&#45;&gt;Node45</title>
<path fill="none" stroke="midnightblue" d="M281.74,-451.48C301.64,-428.72 342.37,-385.98 386,-362.69 391.15,-359.94 396.7,-357.55 402.38,-355.48"/>
<polygon fill="midnightblue" stroke="midnightblue" points="403.61,-358.76 412,-352.29 401.41,-352.12 403.61,-358.76"/>
</g>
<!-- Node46 -->
<g id="node46" class="node">
<title>Node46</title>
<g id="a_node46"><a xlink:href="../../d6/db5/class_scene.html#a36de0362da7ee73ded780390f80caaaa" target="_top" xlink:title="Set the look at vector of the camera.">
<polygon fill="white" stroke="black" points="416.5,-295.19 416.5,-314.19 511.5,-314.19 511.5,-295.19 416.5,-295.19"/>
<text text-anchor="middle" x="464" y="-302.19" font-family="Helvetica,sans-Serif" font-size="10.00">Scene::setLookAt</text>
</a>
</g>
</g>
<!-- Node41&#45;&gt;Node46 -->
<g id="edge62" class="edge">
<title>Node41&#45;&gt;Node46</title>
<path fill="none" stroke="midnightblue" d="M277.01,-451.44C293.33,-421.91 333.39,-356.93 386,-323.69 392.24,-319.75 399.25,-316.62 406.42,-314.14"/>
<polygon fill="midnightblue" stroke="midnightblue" points="407.71,-317.41 416.26,-311.15 405.67,-310.71 407.71,-317.41"/>
</g>
</g>
</svg>
