<?xml version="1.0" encoding="UTF-8" standalone="no"?>
<!DOCTYPE svg PUBLIC "-//W3C//DTD SVG 1.1//EN"
 "http://www.w3.org/Graphics/SVG/1.1/DTD/svg11.dtd">
<!-- Generated by graphviz version 2.44.1 (0)
 -->
<!-- Title: PolylineAddFinalPointCallback::Execute Pages: 1 -->
<svg width="899pt" height="1026pt"
 viewBox="0.00 0.00 899.00 1026.00" xmlns="http://www.w3.org/2000/svg" xmlns:xlink="http://www.w3.org/1999/xlink">
<g id="graph0" class="graph" transform="scale(1 1) rotate(0) translate(4 1022)">
<title>PolylineAddFinalPointCallback::Execute</title>
<polygon fill="white" stroke="transparent" points="-4,4 -4,-1022 895,-1022 895,4 -4,4"/>
<!-- Node1 -->
<g id="node1" class="node">
<title>Node1</title>
<g id="a_node1"><a xlink:title="Overwritten callback method, which is executed when the left mouse button is pressed for the first ti...">
<polygon fill="#bfbfbf" stroke="black" points="0,-643 0,-673 150,-673 150,-643 0,-643"/>
<text text-anchor="start" x="8" y="-661" font-family="Helvetica,sans-Serif" font-size="10.00">PolylineAddFinalPointCallback</text>
<text text-anchor="middle" x="75" y="-650" font-family="Helvetica,sans-Serif" font-size="10.00">::Execute</text>
</a>
</g>
</g>
<!-- Node2 -->
<g id="node2" class="node">
<title>Node2</title>
<g id="a_node2"><a xlink:href="../../d6/db5/class_scene.html#a68d5e73ae04e190548aa66ab701814b7" target="_top" xlink:title="Add a touchpoint to the scene (which is subsequently added to the touchpoint registry)">
<polygon fill="white" stroke="black" points="211.5,-998.5 211.5,-1017.5 324.5,-1017.5 324.5,-998.5 211.5,-998.5"/>
<text text-anchor="middle" x="268" y="-1005.5" font-family="Helvetica,sans-Serif" font-size="10.00">Scene::addTouchpoint</text>
</a>
</g>
</g>
<!-- Node1&#45;&gt;Node2 -->
<g id="edge1" class="edge">
<title>Node1&#45;&gt;Node2</title>
<path fill="none" stroke="midnightblue" d="M76.14,-673.26C77.51,-725.79 89.42,-900.79 186,-989 190.69,-993.28 196.16,-996.66 202,-999.3"/>
<polygon fill="midnightblue" stroke="midnightblue" points="200.83,-1002.61 211.42,-1002.9 203.33,-996.06 200.83,-1002.61"/>
</g>
<!-- Node3 -->
<g id="node3" class="node">
<title>Node3</title>
<g id="a_node3"><a xlink:href="../../d9/d4f/namespace_layout_algorithms.html#a53c2fbff4e31119750be8ef36e324d03" target="_top" xlink:title="Computes the closest point on a mesh in relation to another point.">
<polygon fill="white" stroke="black" points="200,-949 200,-979 336,-979 336,-949 200,-949"/>
<text text-anchor="start" x="208" y="-967" font-family="Helvetica,sans-Serif" font-size="10.00">LayoutAlgorithms::compute</text>
<text text-anchor="middle" x="268" y="-956" font-family="Helvetica,sans-Serif" font-size="10.00">ClosestPointOnMesh</text>
</a>
</g>
</g>
<!-- Node1&#45;&gt;Node3 -->
<g id="edge2" class="edge">
<title>Node1&#45;&gt;Node3</title>
<path fill="none" stroke="midnightblue" d="M77.33,-673.11C82.27,-720.01 103.8,-864.42 186,-940 187.67,-941.53 189.43,-942.97 191.26,-944.31"/>
<polygon fill="midnightblue" stroke="midnightblue" points="189.42,-947.29 199.75,-949.64 193.14,-941.36 189.42,-947.29"/>
</g>
<!-- Node5 -->
<g id="node5" class="node">
<title>Node5</title>
<g id="a_node5"><a xlink:href="../../d9/d4f/namespace_layout_algorithms.html#ad165a81c391eaa466ebce1da720ee6b5" target="_top" xlink:title="Computes a wiring entry point in world coordinates for a sphere shaped touchpoint geometry.">
<polygon fill="white" stroke="black" points="200,-900 200,-930 336,-930 336,-900 200,-900"/>
<text text-anchor="start" x="208" y="-918" font-family="Helvetica,sans-Serif" font-size="10.00">LayoutAlgorithms::compute</text>
<text text-anchor="middle" x="268" y="-907" font-family="Helvetica,sans-Serif" font-size="10.00">ConnectionPointSphere</text>
</a>
</g>
</g>
<!-- Node1&#45;&gt;Node5 -->
<g id="edge4" class="edge">
<title>Node1&#45;&gt;Node5</title>
<path fill="none" stroke="midnightblue" d="M79.17,-673.07C88.39,-713.26 118.88,-824.07 186,-885 190.16,-888.78 194.85,-892.1 199.8,-895"/>
<polygon fill="midnightblue" stroke="midnightblue" points="198.5,-898.27 208.98,-899.81 201.74,-892.07 198.5,-898.27"/>
</g>
<!-- Node6 -->
<g id="node6" class="node">
<title>Node6</title>
<g id="a_node6"><a xlink:href="../../d6/db5/class_scene.html#accf5c16477aba3397a083ded76f2c5f5" target="_top" xlink:title="Return the geometric data (vtkPolyData) of the mesh.">
<polygon fill="white" stroke="black" points="400,-883.5 400,-902.5 528,-902.5 528,-883.5 400,-883.5"/>
<text text-anchor="middle" x="464" y="-890.5" font-family="Helvetica,sans-Serif" font-size="10.00">Scene::getMeshPolyData</text>
</a>
</g>
</g>
<!-- Node1&#45;&gt;Node6 -->
<g id="edge11" class="edge">
<title>Node1&#45;&gt;Node6</title>
<path fill="none" stroke="midnightblue" d="M79.71,-673.23C89.68,-710.66 120.85,-807.34 186,-852 218.2,-874.07 319.02,-884.59 389.68,-889.36"/>
<polygon fill="midnightblue" stroke="midnightblue" points="389.67,-892.87 399.88,-890.02 390.13,-885.88 389.67,-892.87"/>
</g>
<!-- Node7 -->
<g id="node7" class="node">
<title>Node7</title>
<g id="a_node7"><a xlink:href="../../d9/d4f/namespace_layout_algorithms.html#a548f7aef3389c05aa79965eabf21a022" target="_top" xlink:title="Computes the nearest voxel index to a given index point which is inside of the mesh boundaries.">
<polygon fill="white" stroke="black" points="186,-736 186,-766 350,-766 350,-736 186,-736"/>
<text text-anchor="start" x="194" y="-754" font-family="Helvetica,sans-Serif" font-size="10.00">LayoutAlgorithms::compute</text>
<text text-anchor="middle" x="268" y="-743" font-family="Helvetica,sans-Serif" font-size="10.00">NearestPointInsideInnerVoxelGrid</text>
</a>
</g>
</g>
<!-- Node1&#45;&gt;Node7 -->
<g id="edge6" class="edge">
<title>Node1&#45;&gt;Node7</title>
<path fill="none" stroke="midnightblue" d="M96.54,-673.28C117.94,-688.62 152.92,-712.06 186,-727 190.37,-728.97 194.93,-730.83 199.59,-732.57"/>
<polygon fill="midnightblue" stroke="midnightblue" points="198.61,-735.94 209.21,-735.99 200.95,-729.34 198.61,-735.94"/>
</g>
<!-- Node8 -->
<g id="node8" class="node">
<title>Node8</title>
<g id="a_node8"><a xlink:href="../../d6/db5/class_scene.html#a7e5ee53ea01ef113afaaf4b7c10accf3" target="_top" xlink:title="Return the voxel grid image data.">
<polygon fill="white" stroke="black" points="409.5,-783.5 409.5,-802.5 518.5,-802.5 518.5,-783.5 409.5,-783.5"/>
<text text-anchor="middle" x="464" y="-790.5" font-family="Helvetica,sans-Serif" font-size="10.00">Scene::getVoxelData</text>
</a>
</g>
</g>
<!-- Node1&#45;&gt;Node8 -->
<g id="edge15" class="edge">
<title>Node1&#45;&gt;Node8</title>
<path fill="none" stroke="midnightblue" d="M84.82,-673.38C100.99,-699.86 138.13,-753.41 186,-776 253.52,-807.86 340.78,-807.38 399.15,-802.04"/>
<polygon fill="midnightblue" stroke="midnightblue" points="399.74,-805.5 409.34,-801.03 399.05,-798.53 399.74,-805.5"/>
</g>
<!-- Node11 -->
<g id="node11" class="node">
<title>Node11</title>
<g id="a_node11"><a xlink:href="../../d6/db5/class_scene.html#af79815a5c6a4ce9bf26106c5e103b950" target="_top" xlink:title="Return the actual contour widget.">
<polygon fill="white" stroke="black" points="203.5,-648.5 203.5,-667.5 332.5,-667.5 332.5,-648.5 203.5,-648.5"/>
<text text-anchor="middle" x="268" y="-655.5" font-family="Helvetica,sans-Serif" font-size="10.00">Scene::getContourWidget</text>
</a>
</g>
</g>
<!-- Node1&#45;&gt;Node11 -->
<g id="edge10" class="edge">
<title>Node1&#45;&gt;Node11</title>
<path fill="none" stroke="midnightblue" d="M150.12,-658C164.29,-658 179.13,-658 193.3,-658"/>
<polygon fill="midnightblue" stroke="midnightblue" points="193.47,-661.5 203.47,-658 193.47,-654.5 193.47,-661.5"/>
</g>
<!-- Node12 -->
<g id="node12" class="node">
<title>Node12</title>
<g id="a_node12"><a xlink:href="../../d6/db5/class_scene.html#a9c15511eba6900e36681315c7e5911c5" target="_top" xlink:title="Return the scaled size of the mesh (in mm)">
<polygon fill="white" stroke="black" points="202.5,-610.5 202.5,-629.5 333.5,-629.5 333.5,-610.5 202.5,-610.5"/>
<text text-anchor="middle" x="268" y="-617.5" font-family="Helvetica,sans-Serif" font-size="10.00">Scene::getMeshScalesize</text>
</a>
</g>
</g>
<!-- Node1&#45;&gt;Node12 -->
<g id="edge12" class="edge">
<title>Node1&#45;&gt;Node12</title>
<path fill="none" stroke="midnightblue" d="M150.12,-643.25C169.67,-639.36 190.49,-635.22 209.05,-631.53"/>
<polygon fill="midnightblue" stroke="midnightblue" points="209.98,-634.91 219.11,-629.53 208.62,-628.05 209.98,-634.91"/>
</g>
<!-- Node13 -->
<g id="node13" class="node">
<title>Node13</title>
<g id="a_node13"><a xlink:href="../../d6/db5/class_scene.html#a8bf8e4b441886787dc82c2caa9b25884" target="_top" xlink:title="Return the vtkRenderer of the scene.">
<polygon fill="white" stroke="black" points="216,-572.5 216,-591.5 320,-591.5 320,-572.5 216,-572.5"/>
<text text-anchor="middle" x="268" y="-579.5" font-family="Helvetica,sans-Serif" font-size="10.00">Scene::getRenderer</text>
</a>
</g>
</g>
<!-- Node1&#45;&gt;Node13 -->
<g id="edge13" class="edge">
<title>Node1&#45;&gt;Node13</title>
<path fill="none" stroke="midnightblue" d="M100.96,-642.78C122.74,-630.07 155.54,-612.27 186,-601 192.97,-598.42 200.41,-596.11 207.85,-594.07"/>
<polygon fill="midnightblue" stroke="midnightblue" points="208.8,-597.44 217.59,-591.53 207.03,-590.66 208.8,-597.44"/>
</g>
<!-- Node14 -->
<g id="node14" class="node">
<title>Node14</title>
<g id="a_node14"><a xlink:href="../../d6/db5/class_scene.html#a180c8577946667c192ae08462fab006a" target="_top" xlink:title="Return the vtk render window of the application.">
<polygon fill="white" stroke="black" points="202.5,-534.5 202.5,-553.5 333.5,-553.5 333.5,-534.5 202.5,-534.5"/>
<text text-anchor="middle" x="268" y="-541.5" font-family="Helvetica,sans-Serif" font-size="10.00">Scene::getRenderWindow</text>
</a>
</g>
</g>
<!-- Node1&#45;&gt;Node14 -->
<g id="edge14" class="edge">
<title>Node1&#45;&gt;Node14</title>
<path fill="none" stroke="midnightblue" d="M88.95,-642.95C108.01,-621.79 145.76,-583.51 186,-563 190.63,-560.64 195.55,-558.57 200.6,-556.75"/>
<polygon fill="midnightblue" stroke="midnightblue" points="201.99,-559.98 210.41,-553.56 199.82,-553.33 201.99,-559.98"/>
</g>
<!-- Node15 -->
<g id="node15" class="node">
<title>Node15</title>
<g id="a_node15"><a xlink:href="../../d6/db5/class_scene.html#af78767d0af348d25ddf80ef8cfe1f67a" target="_top" xlink:title="Return dimensions of the voxel data.">
<polygon fill="white" stroke="black" points="187.5,-823.5 187.5,-842.5 348.5,-842.5 348.5,-823.5 187.5,-823.5"/>
<text text-anchor="middle" x="268" y="-830.5" font-family="Helvetica,sans-Serif" font-size="10.00">Scene::getVoxelDataDimensions</text>
</a>
</g>
</g>
<!-- Node1&#45;&gt;Node15 -->
<g id="edge16" class="edge">
<title>Node1&#45;&gt;Node15</title>
<path fill="none" stroke="midnightblue" d="M82.96,-673.42C97.55,-704.01 134.33,-772.53 186,-809 192.32,-813.46 199.47,-817.1 206.85,-820.07"/>
<polygon fill="midnightblue" stroke="midnightblue" points="205.67,-823.37 216.26,-823.49 208.05,-816.79 205.67,-823.37"/>
</g>
<!-- Node16 -->
<g id="node16" class="node">
<title>Node16</title>
<g id="a_node16"><a xlink:href="../../d6/db5/class_scene.html#a7caf30a70e69430d5e4ac93d6828a649" target="_top" xlink:title="Return the bounds of the voxel grid.">
<polygon fill="white" stroke="black" points="199.5,-414.5 199.5,-433.5 336.5,-433.5 336.5,-414.5 199.5,-414.5"/>
<text text-anchor="middle" x="268" y="-421.5" font-family="Helvetica,sans-Serif" font-size="10.00">Scene::getVoxelgridBounds</text>
</a>
</g>
</g>
<!-- Node1&#45;&gt;Node16 -->
<g id="edge18" class="edge">
<title>Node1&#45;&gt;Node16</title>
<path fill="none" stroke="midnightblue" d="M83.6,-642.64C99.64,-611.17 139.31,-538.06 186,-487 203.1,-468.3 226.19,-450.94 243.35,-439.19"/>
<polygon fill="midnightblue" stroke="midnightblue" points="245.36,-442.06 251.72,-433.59 241.46,-436.25 245.36,-442.06"/>
</g>
<!-- Node18 -->
<g id="node18" class="node">
<title>Node18</title>
<g id="a_node18"><a xlink:href="../../d9/d4f/namespace_layout_algorithms.html#ae4a370e6ad78fdf1fa1d775a135339ee" target="_top" xlink:title="Checks if a given index point is part of the voxels which lie inside the meshs boundaries.">
<polygon fill="white" stroke="black" points="198,-687 198,-717 338,-717 338,-687 198,-687"/>
<text text-anchor="start" x="206" y="-705" font-family="Helvetica,sans-Serif" font-size="10.00">LayoutAlgorithms::isVoxel</text>
<text text-anchor="middle" x="268" y="-694" font-family="Helvetica,sans-Serif" font-size="10.00">IndexInsideMeshBoundaries</text>
</a>
</g>
</g>
<!-- Node1&#45;&gt;Node18 -->
<g id="edge20" class="edge">
<title>Node1&#45;&gt;Node18</title>
<path fill="none" stroke="midnightblue" d="M141.2,-673.02C157.55,-676.79 175.22,-680.86 192.01,-684.72"/>
<polygon fill="midnightblue" stroke="midnightblue" points="191.24,-688.14 201.77,-686.97 192.81,-681.32 191.24,-688.14"/>
</g>
<!-- Node19 -->
<g id="node19" class="node">
<title>Node19</title>
<g id="a_node19"><a xlink:href="../../d1/d7c/namespace_utils.html#a4b6c4a605143b128db1c74f39d0277ef" target="_top" xlink:title="Compute voxel grid integer index equivalent from world coordinate.">
<polygon fill="white" stroke="black" points="225,-210.5 225,-229.5 311,-229.5 311,-210.5 225,-210.5"/>
<text text-anchor="middle" x="268" y="-217.5" font-family="Helvetica,sans-Serif" font-size="10.00">Utils::posToCell</text>
</a>
</g>
</g>
<!-- Node1&#45;&gt;Node19 -->
<g id="edge24" class="edge">
<title>Node1&#45;&gt;Node19</title>
<path fill="none" stroke="midnightblue" d="M79.73,-642.87C91.53,-596.16 130.64,-450.79 186,-340 205.34,-301.29 235.3,-260.38 252.85,-237.73"/>
<polygon fill="midnightblue" stroke="midnightblue" points="255.71,-239.75 259.13,-229.72 250.2,-235.43 255.71,-239.75"/>
</g>
<!-- Node21 -->
<g id="node21" class="node">
<title>Node21</title>
<g id="a_node21"><a xlink:href="../../d6/db5/class_scene.html#a0955ff290776412f925da730a9f8058c" target="_top" xlink:title="Update the cuberille visualization after changes to the underlying voxel data.">
<polygon fill="white" stroke="black" points="195,-496.5 195,-515.5 341,-515.5 341,-496.5 195,-496.5"/>
<text text-anchor="middle" x="268" y="-503.5" font-family="Helvetica,sans-Serif" font-size="10.00">Scene::updateCuberilleActors</text>
</a>
</g>
</g>
<!-- Node1&#45;&gt;Node21 -->
<g id="edge26" class="edge">
<title>Node1&#45;&gt;Node21</title>
<path fill="none" stroke="midnightblue" d="M84.02,-642.9C99.68,-614.97 137.11,-555.32 186,-525 189.42,-522.88 193.06,-520.99 196.83,-519.32"/>
<polygon fill="midnightblue" stroke="midnightblue" points="198.37,-522.47 206.41,-515.57 195.82,-515.95 198.37,-522.47"/>
</g>
<!-- Node31 -->
<g id="node31" class="node">
<title>Node31</title>
<g id="a_node31"><a xlink:href="../../d6/db5/class_scene.html#aaff4c55f5c640ec8a12b62c5b6c11865" target="_top" xlink:title="Update the touchpoint / connector number text labels.">
<polygon fill="white" stroke="black" points="214,-57.5 214,-76.5 322,-76.5 322,-57.5 214,-57.5"/>
<text text-anchor="middle" x="268" y="-64.5" font-family="Helvetica,sans-Serif" font-size="10.00">Scene::updateLabels</text>
</a>
</g>
</g>
<!-- Node1&#45;&gt;Node31 -->
<g id="edge42" class="edge">
<title>Node1&#45;&gt;Node31</title>
<path fill="none" stroke="midnightblue" d="M77.92,-642.88C85.71,-584.22 117.91,-366.68 186,-201 204.23,-156.63 235.82,-109.76 253.68,-84.92"/>
<polygon fill="midnightblue" stroke="midnightblue" points="256.74,-86.67 259.8,-76.53 251.08,-82.55 256.74,-86.67"/>
</g>
<!-- Node36 -->
<g id="node36" class="node">
<title>Node36</title>
<g id="a_node36"><a xlink:href="../../d6/db5/class_scene.html#a415555bc0037489b1a9421747c318746" target="_top" xlink:title="Update the occupation map visualization after changes to the underlying voxel data.">
<polygon fill="white" stroke="black" points="194,-349 194,-379 342,-379 342,-349 194,-349"/>
<text text-anchor="start" x="202" y="-367" font-family="Helvetica,sans-Serif" font-size="10.00">Scene::updateOccupationMap</text>
<text text-anchor="middle" x="268" y="-356" font-family="Helvetica,sans-Serif" font-size="10.00">Actor</text>
</a>
</g>
</g>
<!-- Node1&#45;&gt;Node36 -->
<g id="edge48" class="edge">
<title>Node1&#45;&gt;Node36</title>
<path fill="none" stroke="midnightblue" d="M78.82,-642.91C87.46,-600.37 117.32,-477.82 186,-405 194.03,-396.49 204.22,-389.46 214.63,-383.78"/>
<polygon fill="midnightblue" stroke="midnightblue" points="216.46,-386.78 223.8,-379.13 213.29,-380.53 216.46,-386.78"/>
</g>
<!-- Node4 -->
<g id="node4" class="node">
<title>Node4</title>
<g id="a_node4"><a xlink:href="../../d1/d7c/namespace_utils.html#a752598d95d8825b2e95a57a2f35ba55f" target="_top" xlink:title="Compute voxel grid integer index equivalent from world coordinate.">
<polygon fill="white" stroke="black" points="388,-949 388,-979 540,-979 540,-949 388,-949"/>
<text text-anchor="start" x="396" y="-967" font-family="Helvetica,sans-Serif" font-size="10.00">Utils::getMeshWorldCoordinate</text>
<text text-anchor="middle" x="464" y="-956" font-family="Helvetica,sans-Serif" font-size="10.00">Bounds</text>
</a>
</g>
</g>
<!-- Node3&#45;&gt;Node4 -->
<g id="edge3" class="edge">
<title>Node3&#45;&gt;Node4</title>
<path fill="none" stroke="midnightblue" d="M336.04,-964C349.52,-964 363.86,-964 377.87,-964"/>
<polygon fill="midnightblue" stroke="midnightblue" points="377.99,-967.5 387.99,-964 377.99,-960.5 377.99,-967.5"/>
</g>
<!-- Node5&#45;&gt;Node6 -->
<g id="edge5" class="edge">
<title>Node5&#45;&gt;Node6</title>
<path fill="none" stroke="midnightblue" d="M336.04,-907.4C353.34,-905.44 372.05,-903.31 389.66,-901.32"/>
<polygon fill="midnightblue" stroke="midnightblue" points="390.34,-904.76 399.88,-900.16 389.55,-897.81 390.34,-904.76"/>
</g>
<!-- Node7&#45;&gt;Node8 -->
<g id="edge7" class="edge">
<title>Node7&#45;&gt;Node8</title>
<path fill="none" stroke="midnightblue" d="M338.49,-766.04C361.78,-771.09 387.37,-776.63 409.27,-781.37"/>
<polygon fill="midnightblue" stroke="midnightblue" points="408.53,-784.79 419.05,-783.48 410.01,-777.95 408.53,-784.79"/>
</g>
<!-- Node9 -->
<g id="node9" class="node">
<title>Node9</title>
<g id="a_node9"><a xlink:href="../../d6/db5/class_scene.html#a5a6d3fda8f75cf2aa8b19d7fd7f3c355" target="_top" xlink:title="Return the voxelization resolution.">
<polygon fill="white" stroke="black" points="390.5,-704.5 390.5,-723.5 537.5,-723.5 537.5,-704.5 390.5,-704.5"/>
<text text-anchor="middle" x="464" y="-711.5" font-family="Helvetica,sans-Serif" font-size="10.00">Scene::getVoxelizeResolution</text>
</a>
</g>
</g>
<!-- Node7&#45;&gt;Node9 -->
<g id="edge8" class="edge">
<title>Node7&#45;&gt;Node9</title>
<path fill="none" stroke="midnightblue" d="M347.91,-735.95C366.32,-732.44 385.64,-728.75 403.08,-725.43"/>
<polygon fill="midnightblue" stroke="midnightblue" points="403.94,-728.83 413.1,-723.52 402.62,-721.95 403.94,-728.83"/>
</g>
<!-- Node10 -->
<g id="node10" class="node">
<title>Node10</title>
<g id="a_node10"><a xlink:href="../../d1/d7c/namespace_utils.html#a606fb1eb5072ca20f56293fa71bd8578" target="_top" xlink:title="Compute 1D linearized index from 3D&#45;coodinate index.">
<polygon fill="white" stroke="black" points="436,-742.5 436,-761.5 492,-761.5 492,-742.5 436,-742.5"/>
<text text-anchor="middle" x="464" y="-749.5" font-family="Helvetica,sans-Serif" font-size="10.00">Utils::idx</text>
</a>
</g>
</g>
<!-- Node7&#45;&gt;Node10 -->
<g id="edge9" class="edge">
<title>Node7&#45;&gt;Node10</title>
<path fill="none" stroke="midnightblue" d="M350.15,-751.42C376.26,-751.55 403.95,-751.7 425.37,-751.81"/>
<polygon fill="midnightblue" stroke="midnightblue" points="425.63,-755.31 435.65,-751.86 425.67,-748.31 425.63,-755.31"/>
</g>
<!-- Node15&#45;&gt;Node8 -->
<g id="edge17" class="edge">
<title>Node15&#45;&gt;Node8</title>
<path fill="none" stroke="midnightblue" d="M315.47,-823.42C342.94,-817.75 377.92,-810.54 406.92,-804.56"/>
<polygon fill="midnightblue" stroke="midnightblue" points="407.82,-807.95 416.91,-802.5 406.41,-801.09 407.82,-807.95"/>
</g>
<!-- Node17 -->
<g id="node17" class="node">
<title>Node17</title>
<g id="a_node17"><a xlink:href="../../d6/db5/class_scene.html#a0799bb0687ffe3a97e0523a4e700ef2d" target="_top" xlink:title="Return the occupation map visualization.">
<polygon fill="white" stroke="black" points="386.5,-403.5 386.5,-422.5 541.5,-422.5 541.5,-403.5 386.5,-403.5"/>
<text text-anchor="middle" x="464" y="-410.5" font-family="Helvetica,sans-Serif" font-size="10.00">Scene::getOccupationMapActor</text>
</a>
</g>
</g>
<!-- Node16&#45;&gt;Node17 -->
<g id="edge19" class="edge">
<title>Node16&#45;&gt;Node17</title>
<path fill="none" stroke="midnightblue" d="M336.58,-420.17C349.39,-419.44 362.95,-418.67 376.26,-417.92"/>
<polygon fill="midnightblue" stroke="midnightblue" points="376.58,-421.41 386.37,-417.35 376.18,-414.42 376.58,-421.41"/>
</g>
<!-- Node18&#45;&gt;Node8 -->
<g id="edge21" class="edge">
<title>Node18&#45;&gt;Node8</title>
<path fill="none" stroke="midnightblue" d="M331.34,-717.06C337.9,-719.85 344.26,-723.14 350,-727 370.96,-741.1 364.89,-757.12 386,-771 391.26,-774.46 397.07,-777.38 403.07,-779.85"/>
<polygon fill="midnightblue" stroke="midnightblue" points="402,-783.19 412.6,-783.37 404.43,-776.62 402,-783.19"/>
</g>
<!-- Node18&#45;&gt;Node9 -->
<g id="edge22" class="edge">
<title>Node18&#45;&gt;Node9</title>
<path fill="none" stroke="midnightblue" d="M338.22,-706.28C351.79,-707.12 366.15,-708.01 380.12,-708.87"/>
<polygon fill="midnightblue" stroke="midnightblue" points="380,-712.37 390.2,-709.5 380.44,-705.39 380,-712.37"/>
</g>
<!-- Node18&#45;&gt;Node10 -->
<g id="edge23" class="edge">
<title>Node18&#45;&gt;Node10</title>
<path fill="none" stroke="midnightblue" d="M324.89,-717.02C344.23,-722.16 366.05,-727.9 386,-733 399.05,-736.34 413.37,-739.9 426.09,-743.03"/>
<polygon fill="midnightblue" stroke="midnightblue" points="425.34,-746.45 435.89,-745.43 427.01,-739.65 425.34,-746.45"/>
</g>
<!-- Node20 -->
<g id="node20" class="node">
<title>Node20</title>
<g id="a_node20"><a xlink:href="../../d1/d7c/namespace_utils.html#ac9b063fc04e0a4e5501c8ed0af96ac47" target="_top" xlink:title="Clamp integer value between min and max.">
<polygon fill="white" stroke="black" points="424,-114.5 424,-133.5 504,-133.5 504,-114.5 424,-114.5"/>
<text text-anchor="middle" x="464" y="-121.5" font-family="Helvetica,sans-Serif" font-size="10.00">Utils::clampInt</text>
</a>
</g>
</g>
<!-- Node19&#45;&gt;Node20 -->
<g id="edge25" class="edge">
<title>Node19&#45;&gt;Node20</title>
<path fill="none" stroke="midnightblue" d="M280.88,-210.39C301.23,-194.4 344.55,-162.27 386,-144 394.82,-140.11 404.55,-136.86 414.04,-134.18"/>
<polygon fill="midnightblue" stroke="midnightblue" points="415.02,-137.54 423.79,-131.6 413.23,-130.78 415.02,-137.54"/>
</g>
<!-- Node22 -->
<g id="node22" class="node">
<title>Node22</title>
<g id="a_node22"><a xlink:href="../../db/dae/class_voxel_image_visualizer.html#a9d6ddcce68efaea01bfacaa932f27d9a" target="_top" xlink:title="Return RGB color cube output visualization.">
<polygon fill="white" stroke="black" points="597,-666 597,-696 707,-696 707,-666 597,-666"/>
<text text-anchor="start" x="605" y="-684" font-family="Helvetica,sans-Serif" font-size="10.00">VoxelImageVisualizer</text>
<text text-anchor="middle" x="652" y="-673" font-family="Helvetica,sans-Serif" font-size="10.00">::getColorOutput</text>
</a>
</g>
</g>
<!-- Node21&#45;&gt;Node22 -->
<g id="edge27" class="edge">
<title>Node21&#45;&gt;Node22</title>
<path fill="none" stroke="midnightblue" d="M336.58,-515.58C341.49,-518.09 346.05,-521.19 350,-525 393.76,-567.22 339.39,-617.95 386,-657 415.39,-681.62 518.06,-684.41 586.64,-683.32"/>
<polygon fill="midnightblue" stroke="midnightblue" points="586.99,-686.81 596.92,-683.12 586.85,-679.81 586.99,-686.81"/>
</g>
<!-- Node25 -->
<g id="node25" class="node">
<title>Node25</title>
<g id="a_node25"><a xlink:href="../../db/dae/class_voxel_image_visualizer.html#a279e821afcfbef7cb624c391eec3b7a4" target="_top" xlink:title="Return visualization of the mesh interior only.">
<polygon fill="white" stroke="black" points="409,-617 409,-647 519,-647 519,-617 409,-617"/>
<text text-anchor="start" x="417" y="-635" font-family="Helvetica,sans-Serif" font-size="10.00">VoxelImageVisualizer</text>
<text text-anchor="middle" x="464" y="-624" font-family="Helvetica,sans-Serif" font-size="10.00">::getInteriorOutput</text>
</a>
</g>
</g>
<!-- Node21&#45;&gt;Node25 -->
<g id="edge30" class="edge">
<title>Node21&#45;&gt;Node25</title>
<path fill="none" stroke="midnightblue" d="M334.3,-515.62C339.95,-518.1 345.29,-521.18 350,-525 379.33,-548.81 358.42,-576.18 386,-602 390.12,-605.86 394.8,-609.24 399.76,-612.2"/>
<polygon fill="midnightblue" stroke="midnightblue" points="398.47,-615.48 408.95,-617.09 401.76,-609.3 398.47,-615.48"/>
</g>
<!-- Node27 -->
<g id="node27" class="node">
<title>Node27</title>
<g id="a_node27"><a xlink:href="../../db/dae/class_voxel_image_visualizer.html#a00b60f629dcc3335bff26934e88b9bcb" target="_top" xlink:title="Return the occupation map visualization (unoccupied = yellow, occupied = blue)">
<polygon fill="white" stroke="black" points="594.5,-519 594.5,-549 709.5,-549 709.5,-519 594.5,-519"/>
<text text-anchor="start" x="602.5" y="-537" font-family="Helvetica,sans-Serif" font-size="10.00">VoxelImageVisualizer</text>
<text text-anchor="middle" x="652" y="-526" font-family="Helvetica,sans-Serif" font-size="10.00">::getOccupationOutput</text>
</a>
</g>
</g>
<!-- Node21&#45;&gt;Node27 -->
<g id="edge34" class="edge">
<title>Node21&#45;&gt;Node27</title>
<path fill="none" stroke="midnightblue" d="M309.51,-515.55C337.19,-521.91 371.39,-529.37 386,-531 453.23,-538.49 530.64,-538.36 584.37,-536.9"/>
<polygon fill="midnightblue" stroke="midnightblue" points="584.56,-540.4 594.45,-536.6 584.35,-533.4 584.56,-540.4"/>
</g>
<!-- Node28 -->
<g id="node28" class="node">
<title>Node28</title>
<g id="a_node28"><a xlink:href="../../db/dae/class_voxel_image_visualizer.html#a5f41640feebb9f49204b777abb09fec2" target="_top" xlink:title="Return visualization with VOXEL_OUTSIDE = &quot;White&quot;, VOXEL_OCCUPIED = &quot;Red&quot;, VOXEL_SHELL = &quot;Yellow&quot;,...">
<polygon fill="white" stroke="black" points="586.5,-568 586.5,-598 717.5,-598 717.5,-568 586.5,-568"/>
<text text-anchor="start" x="594.5" y="-586" font-family="Helvetica,sans-Serif" font-size="10.00">VoxelImageVisualizer</text>
<text text-anchor="middle" x="652" y="-575" font-family="Helvetica,sans-Serif" font-size="10.00">::getShellAndInsideOutput</text>
</a>
</g>
</g>
<!-- Node21&#45;&gt;Node28 -->
<g id="edge37" class="edge">
<title>Node21&#45;&gt;Node28</title>
<path fill="none" stroke="midnightblue" d="M321.25,-515.51C330.99,-518.05 340.95,-521.18 350,-525 367.49,-532.38 368.16,-541.49 386,-548 447.53,-570.46 521.78,-578.79 576,-581.75"/>
<polygon fill="midnightblue" stroke="midnightblue" points="576.07,-585.25 586.23,-582.25 576.42,-578.26 576.07,-585.25"/>
</g>
<!-- Node29 -->
<g id="node29" class="node">
<title>Node29</title>
<g id="a_node29"><a xlink:href="../../db/dae/class_voxel_image_visualizer.html#a15634f5a62fd0d71806741d1db033243" target="_top" xlink:title="Set input data of the visualizer.">
<polygon fill="white" stroke="black" points="409,-442 409,-472 519,-472 519,-442 409,-442"/>
<text text-anchor="start" x="417" y="-460" font-family="Helvetica,sans-Serif" font-size="10.00">VoxelImageVisualizer</text>
<text text-anchor="middle" x="464" y="-449" font-family="Helvetica,sans-Serif" font-size="10.00">::setInputData</text>
</a>
</g>
</g>
<!-- Node21&#45;&gt;Node29 -->
<g id="edge40" class="edge">
<title>Node21&#45;&gt;Node29</title>
<path fill="none" stroke="midnightblue" d="M306.87,-496.44C333.03,-489.83 368.49,-480.87 399,-473.17"/>
<polygon fill="midnightblue" stroke="midnightblue" points="399.87,-476.55 408.71,-470.71 398.16,-469.77 399.87,-476.55"/>
</g>
<!-- Node30 -->
<g id="node30" class="node">
<title>Node30</title>
<g id="a_node30"><a xlink:href="../../db/dae/class_voxel_image_visualizer.html#a65eec474a368555a6ba16c1f54e956db" target="_top" xlink:title="Set output size of the visualization.">
<polygon fill="white" stroke="black" points="409,-491 409,-521 519,-521 519,-491 409,-491"/>
<text text-anchor="start" x="417" y="-509" font-family="Helvetica,sans-Serif" font-size="10.00">VoxelImageVisualizer</text>
<text text-anchor="middle" x="464" y="-498" font-family="Helvetica,sans-Serif" font-size="10.00">::setOutputSize</text>
</a>
</g>
</g>
<!-- Node21&#45;&gt;Node30 -->
<g id="edge41" class="edge">
<title>Node21&#45;&gt;Node30</title>
<path fill="none" stroke="midnightblue" d="M341.24,-506C360.14,-506 380.4,-506 398.85,-506"/>
<polygon fill="midnightblue" stroke="midnightblue" points="398.9,-509.5 408.9,-506 398.9,-502.5 398.9,-509.5"/>
</g>
<!-- Node23 -->
<g id="node23" class="node">
<title>Node23</title>
<g id="a_node23"><a xlink:href="../../db/dae/class_voxel_image_visualizer.html#a381e70e9dba0cad1fddf946aa7f4a408" target="_top" xlink:title="Compute scaling factor for visualization actor.">
<polygon fill="white" stroke="black" points="771.5,-570 771.5,-600 881.5,-600 881.5,-570 771.5,-570"/>
<text text-anchor="start" x="779.5" y="-588" font-family="Helvetica,sans-Serif" font-size="10.00">VoxelImageVisualizer</text>
<text text-anchor="middle" x="826.5" y="-577" font-family="Helvetica,sans-Serif" font-size="10.00">::getScaleValue</text>
</a>
</g>
</g>
<!-- Node22&#45;&gt;Node23 -->
<g id="edge28" class="edge">
<title>Node22&#45;&gt;Node23</title>
<path fill="none" stroke="midnightblue" d="M707.37,-667.16C713.94,-664.34 720.32,-660.99 726,-657 747.25,-642.08 741.3,-626.66 762,-611 764.93,-608.79 768.07,-606.73 771.33,-604.82"/>
<polygon fill="midnightblue" stroke="midnightblue" points="773,-607.9 780.19,-600.12 769.72,-601.72 773,-607.9"/>
</g>
<!-- Node24 -->
<g id="node24" class="node">
<title>Node24</title>
<g id="a_node24"><a xlink:href="../../db/dae/class_voxel_image_visualizer.html#a2cf2e268d83ea28ea097a557b4e66fcd" target="_top" xlink:title="Compute 1D linearized index from 3D&#45;coodinate index.">
<polygon fill="white" stroke="black" points="762,-620.5 762,-639.5 891,-639.5 891,-620.5 762,-620.5"/>
<text text-anchor="middle" x="826.5" y="-627.5" font-family="Helvetica,sans-Serif" font-size="10.00">VoxelImageVisualizer::idx</text>
</a>
</g>
</g>
<!-- Node22&#45;&gt;Node24 -->
<g id="edge29" class="edge">
<title>Node22&#45;&gt;Node24</title>
<path fill="none" stroke="midnightblue" d="M703.82,-665.97C729.13,-658.49 759.36,-649.56 783.35,-642.46"/>
<polygon fill="midnightblue" stroke="midnightblue" points="784.63,-645.73 793.22,-639.54 782.64,-639.02 784.63,-645.73"/>
</g>
<!-- Node26 -->
<g id="node26" class="node">
<title>Node26</title>
<g id="a_node26"><a xlink:href="../../db/dae/class_voxel_image_visualizer.html#a266b4be6343bb49d53b4af2c9e7df310" target="_top" xlink:title=" ">
<polygon fill="white" stroke="black" points="597,-617 597,-647 707,-647 707,-617 597,-617"/>
<text text-anchor="start" x="605" y="-635" font-family="Helvetica,sans-Serif" font-size="10.00">VoxelImageVisualizer</text>
<text text-anchor="middle" x="652" y="-624" font-family="Helvetica,sans-Serif" font-size="10.00">::getShellOutput</text>
</a>
</g>
</g>
<!-- Node25&#45;&gt;Node26 -->
<g id="edge31" class="edge">
<title>Node25&#45;&gt;Node26</title>
<path fill="none" stroke="midnightblue" d="M519.05,-632C540.16,-632 564.54,-632 586.56,-632"/>
<polygon fill="midnightblue" stroke="midnightblue" points="586.82,-635.5 596.82,-632 586.82,-628.5 586.82,-635.5"/>
</g>
<!-- Node26&#45;&gt;Node23 -->
<g id="edge32" class="edge">
<title>Node26&#45;&gt;Node23</title>
<path fill="none" stroke="midnightblue" d="M707.11,-617.26C724.36,-612.56 743.62,-607.31 761.51,-602.43"/>
<polygon fill="midnightblue" stroke="midnightblue" points="762.56,-605.78 771.29,-599.77 760.72,-599.02 762.56,-605.78"/>
</g>
<!-- Node26&#45;&gt;Node24 -->
<g id="edge33" class="edge">
<title>Node26&#45;&gt;Node24</title>
<path fill="none" stroke="midnightblue" d="M707.11,-631.37C721.24,-631.21 736.71,-631.03 751.67,-630.86"/>
<polygon fill="midnightblue" stroke="midnightblue" points="751.97,-634.35 761.93,-630.74 751.89,-627.35 751.97,-634.35"/>
</g>
<!-- Node27&#45;&gt;Node23 -->
<g id="edge35" class="edge">
<title>Node27&#45;&gt;Node23</title>
<path fill="none" stroke="midnightblue" d="M703.82,-549.03C723.04,-554.71 745.1,-561.23 765.11,-567.14"/>
<polygon fill="midnightblue" stroke="midnightblue" points="764.16,-570.51 774.74,-569.99 766.15,-563.8 764.16,-570.51"/>
</g>
<!-- Node27&#45;&gt;Node24 -->
<g id="edge36" class="edge">
<title>Node27&#45;&gt;Node24</title>
<path fill="none" stroke="midnightblue" d="M709.07,-549.06C715.07,-551.86 720.85,-555.14 726,-559 748.2,-575.64 739.59,-593.64 762,-610 765.27,-612.39 768.83,-614.49 772.54,-616.35"/>
<polygon fill="midnightblue" stroke="midnightblue" points="771.44,-619.69 782,-620.49 774.24,-613.28 771.44,-619.69"/>
</g>
<!-- Node28&#45;&gt;Node23 -->
<g id="edge38" class="edge">
<title>Node28&#45;&gt;Node23</title>
<path fill="none" stroke="midnightblue" d="M717.72,-583.75C731.96,-583.92 747.02,-584.09 761.24,-584.25"/>
<polygon fill="midnightblue" stroke="midnightblue" points="761.37,-587.76 771.41,-584.37 761.45,-580.76 761.37,-587.76"/>
</g>
<!-- Node28&#45;&gt;Node24 -->
<g id="edge39" class="edge">
<title>Node28&#45;&gt;Node24</title>
<path fill="none" stroke="midnightblue" d="M708.05,-598C731.48,-604.38 758.46,-611.73 780.65,-617.78"/>
<polygon fill="midnightblue" stroke="midnightblue" points="779.91,-621.2 790.47,-620.46 781.75,-614.45 779.91,-621.2"/>
</g>
<!-- Node32 -->
<g id="node32" class="node">
<title>Node32</title>
<g id="a_node32"><a xlink:href="../../d9/d58/class_touchpoint.html#ab61727c9bb477bccca373f92a2b8bea4" target="_top" xlink:title="Return the touchpoint number label text actor.">
<polygon fill="white" stroke="black" points="401.5,-76.5 401.5,-95.5 526.5,-95.5 526.5,-76.5 401.5,-76.5"/>
<text text-anchor="middle" x="464" y="-83.5" font-family="Helvetica,sans-Serif" font-size="10.00">Touchpoint::getTextActor</text>
</a>
</g>
</g>
<!-- Node31&#45;&gt;Node32 -->
<g id="edge43" class="edge">
<title>Node31&#45;&gt;Node32</title>
<path fill="none" stroke="midnightblue" d="M322.01,-72.19C343.41,-74.29 368.44,-76.74 391.42,-78.99"/>
<polygon fill="midnightblue" stroke="midnightblue" points="391.17,-82.48 401.47,-79.97 391.86,-75.52 391.17,-82.48"/>
</g>
<!-- Node33 -->
<g id="node33" class="node">
<title>Node33</title>
<g id="a_node33"><a xlink:href="../../d6/db5/class_scene.html#ae4bdf05105a36057e86693a0f60afbd3" target="_top" xlink:title="Hide the touchpoint / connector text labels.">
<polygon fill="white" stroke="black" points="406,-38.5 406,-57.5 522,-57.5 522,-38.5 406,-38.5"/>
<text text-anchor="middle" x="464" y="-45.5" font-family="Helvetica,sans-Serif" font-size="10.00">Scene::hideTextActors</text>
</a>
</g>
</g>
<!-- Node31&#45;&gt;Node33 -->
<g id="edge44" class="edge">
<title>Node31&#45;&gt;Node33</title>
<path fill="none" stroke="midnightblue" d="M322.01,-61.81C344.79,-59.58 371.66,-56.95 395.81,-54.58"/>
<polygon fill="midnightblue" stroke="midnightblue" points="396.36,-58.04 405.97,-53.59 395.68,-51.08 396.36,-58.04"/>
</g>
<!-- Node35 -->
<g id="node35" class="node">
<title>Node35</title>
<g id="a_node35"><a xlink:href="../../d6/db5/class_scene.html#aa9d387019f7a7456bdd8af2b21723387" target="_top" xlink:title="Show the touchpoint / connector number text labels.">
<polygon fill="white" stroke="black" points="403.5,-0.5 403.5,-19.5 524.5,-19.5 524.5,-0.5 403.5,-0.5"/>
<text text-anchor="middle" x="464" y="-7.5" font-family="Helvetica,sans-Serif" font-size="10.00">Scene::showTextActors</text>
</a>
</g>
</g>
<!-- Node31&#45;&gt;Node35 -->
<g id="edge46" class="edge">
<title>Node31&#45;&gt;Node35</title>
<path fill="none" stroke="midnightblue" d="M296.72,-57.37C320.32,-49.33 355.19,-37.79 386,-29 394.47,-26.58 403.51,-24.19 412.31,-21.96"/>
<polygon fill="midnightblue" stroke="midnightblue" points="413.24,-25.33 422.09,-19.51 411.54,-18.54 413.24,-25.33"/>
</g>
<!-- Node34 -->
<g id="node34" class="node">
<title>Node34</title>
<g id="a_node34"><a xlink:href="../../d6/db5/class_scene.html#a8a1b015f159dd9ba883ae601464f6c28" target="_top" xlink:title="Set if the touchpoint / connector number labels are visible.">
<polygon fill="white" stroke="black" points="578,-19.5 578,-38.5 726,-38.5 726,-19.5 578,-19.5"/>
<text text-anchor="middle" x="652" y="-26.5" font-family="Helvetica,sans-Serif" font-size="10.00">Scene::setTextActorsVisibility</text>
</a>
</g>
</g>
<!-- Node33&#45;&gt;Node34 -->
<g id="edge45" class="edge">
<title>Node33&#45;&gt;Node34</title>
<path fill="none" stroke="midnightblue" d="M522.07,-42.17C536.52,-40.69 552.35,-39.08 567.8,-37.5"/>
<polygon fill="midnightblue" stroke="midnightblue" points="568.3,-40.97 577.89,-36.47 567.59,-34 568.3,-40.97"/>
</g>
<!-- Node35&#45;&gt;Node34 -->
<g id="edge47" class="edge">
<title>Node35&#45;&gt;Node34</title>
<path fill="none" stroke="midnightblue" d="M524.62,-16.09C538.35,-17.49 553.19,-19.01 567.72,-20.49"/>
<polygon fill="midnightblue" stroke="midnightblue" points="567.4,-23.98 577.71,-21.51 568.11,-17.01 567.4,-23.98"/>
</g>
<!-- Node36&#45;&gt;Node17 -->
<g id="edge52" class="edge">
<title>Node36&#45;&gt;Node17</title>
<path fill="none" stroke="midnightblue" d="M328.52,-379.03C356.47,-386.09 389.33,-394.39 415.57,-401.02"/>
<polygon fill="midnightblue" stroke="midnightblue" points="414.72,-404.42 425.28,-403.47 416.44,-397.63 414.72,-404.42"/>
</g>
<!-- Node36&#45;&gt;Node27 -->
<g id="edge53" class="edge">
<title>Node36&#45;&gt;Node27</title>
<path fill="none" stroke="midnightblue" d="M342.05,-357.1C399.87,-355 480.81,-359.82 542,-394 589.53,-420.54 623.38,-477.15 639.79,-509.67"/>
<polygon fill="midnightblue" stroke="midnightblue" points="636.78,-511.49 644.32,-518.93 643.07,-508.41 636.78,-511.49"/>
</g>
<!-- Node36&#45;&gt;Node29 -->
<g id="edge55" class="edge">
<title>Node36&#45;&gt;Node29</title>
<path fill="none" stroke="midnightblue" d="M302.03,-379.1C317.01,-386.35 334.74,-395.52 350,-405 366.99,-415.56 368.25,-422.79 386,-432 390.22,-434.19 394.67,-436.24 399.22,-438.15"/>
<polygon fill="midnightblue" stroke="midnightblue" points="398.06,-441.45 408.64,-441.86 400.62,-434.94 398.06,-441.45"/>
</g>
<!-- Node36&#45;&gt;Node30 -->
<g id="edge57" class="edge">
<title>Node36&#45;&gt;Node30</title>
<path fill="none" stroke="midnightblue" d="M311.61,-379.1C325.15,-385.48 339.36,-394.02 350,-405 376.29,-432.13 357.54,-457.15 386,-482 389.98,-485.48 394.47,-488.45 399.22,-491"/>
<polygon fill="midnightblue" stroke="midnightblue" points="398.09,-494.33 408.63,-495.38 401.04,-487.98 398.09,-494.33"/>
</g>
<!-- Node37 -->
<g id="node37" class="node">
<title>Node37</title>
<g id="a_node37"><a xlink:href="../../d6/db5/class_scene.html#aa52192763d5339a0e7803abe296220c9" target="_top" xlink:title="Return the cuberille visualization of the voxel grid data.">
<polygon fill="white" stroke="black" points="401.5,-251.5 401.5,-270.5 526.5,-270.5 526.5,-251.5 401.5,-251.5"/>
<text text-anchor="middle" x="464" y="-258.5" font-family="Helvetica,sans-Serif" font-size="10.00">Scene::getCuberilleActor</text>
</a>
</g>
</g>
<!-- Node36&#45;&gt;Node37 -->
<g id="edge49" class="edge">
<title>Node36&#45;&gt;Node37</title>
<path fill="none" stroke="midnightblue" d="M285.53,-348.95C307.1,-330.11 346.72,-298.12 386,-280 391.29,-277.56 396.93,-275.41 402.66,-273.52"/>
<polygon fill="midnightblue" stroke="midnightblue" points="403.8,-276.83 412.35,-270.57 401.77,-270.13 403.8,-276.83"/>
</g>
<!-- Node38 -->
<g id="node38" class="node">
<title>Node38</title>
<g id="a_node38"><a xlink:href="../../d6/db5/class_scene.html#a7009d25646e9f3a07482091ed2d62e52" target="_top" xlink:title="Return the inner and outer voxels visualization of the voxel grid data.">
<polygon fill="white" stroke="black" points="386,-202 386,-232 542,-232 542,-202 386,-202"/>
<text text-anchor="start" x="394" y="-220" font-family="Helvetica,sans-Serif" font-size="10.00">Scene::getInnerAndOuterVoxels</text>
<text text-anchor="middle" x="464" y="-209" font-family="Helvetica,sans-Serif" font-size="10.00">Actor</text>
</a>
</g>
</g>
<!-- Node36&#45;&gt;Node38 -->
<g id="edge50" class="edge">
<title>Node36&#45;&gt;Node38</title>
<path fill="none" stroke="midnightblue" d="M279.49,-348.95C298.07,-323.37 339.26,-271.31 386,-242 389.32,-239.92 392.83,-237.99 396.45,-236.21"/>
<polygon fill="midnightblue" stroke="midnightblue" points="397.94,-239.38 405.63,-232.09 395.08,-233 397.94,-239.38"/>
</g>
<!-- Node39 -->
<g id="node39" class="node">
<title>Node39</title>
<g id="a_node39"><a xlink:href="../../d6/db5/class_scene.html#a04c9e871c5edc15ca00d736a9cb6c0d0" target="_top" xlink:title="Return the interior voxels only visualization of the voxel grid data.">
<polygon fill="white" stroke="black" points="402.5,-153 402.5,-183 525.5,-183 525.5,-153 402.5,-153"/>
<text text-anchor="start" x="410.5" y="-171" font-family="Helvetica,sans-Serif" font-size="10.00">Scene::getInteriorVoxels</text>
<text text-anchor="middle" x="464" y="-160" font-family="Helvetica,sans-Serif" font-size="10.00">Actor</text>
</a>
</g>
</g>
<!-- Node36&#45;&gt;Node39 -->
<g id="edge51" class="edge">
<title>Node36&#45;&gt;Node39</title>
<path fill="none" stroke="midnightblue" d="M278.58,-348.83C303.8,-309.07 371.09,-204.15 386,-193 388.51,-191.12 391.16,-189.39 393.92,-187.77"/>
<polygon fill="midnightblue" stroke="midnightblue" points="395.75,-190.76 403.02,-183.05 392.53,-184.55 395.75,-190.76"/>
</g>
<!-- Node40 -->
<g id="node40" class="node">
<title>Node40</title>
<g id="a_node40"><a xlink:href="../../d6/db5/class_scene.html#acc5e8dbc84b359afaa7d4ab9b9ef265a" target="_top" xlink:title="Return the working plane actor of the scene.">
<polygon fill="white" stroke="black" points="397,-327.5 397,-346.5 531,-346.5 531,-327.5 397,-327.5"/>
<text text-anchor="middle" x="464" y="-334.5" font-family="Helvetica,sans-Serif" font-size="10.00">Scene::getWorkPlaneActor</text>
</a>
</g>
</g>
<!-- Node36&#45;&gt;Node40 -->
<g id="edge54" class="edge">
<title>Node36&#45;&gt;Node40</title>
<path fill="none" stroke="midnightblue" d="M342.07,-353.83C356.64,-351.8 371.98,-349.67 386.66,-347.62"/>
<polygon fill="midnightblue" stroke="midnightblue" points="387.28,-351.07 396.7,-346.23 386.32,-344.14 387.28,-351.07"/>
</g>
<!-- Node41 -->
<g id="node41" class="node">
<title>Node41</title>
<g id="a_node41"><a xlink:href="../../d6/db5/class_scene.html#a36de0362da7ee73ded780390f80caaaa" target="_top" xlink:title="Set the look at vector of the camera.">
<polygon fill="white" stroke="black" points="416.5,-289.5 416.5,-308.5 511.5,-308.5 511.5,-289.5 416.5,-289.5"/>
<text text-anchor="middle" x="464" y="-296.5" font-family="Helvetica,sans-Serif" font-size="10.00">Scene::setLookAt</text>
</a>
</g>
</g>
<!-- Node36&#45;&gt;Node41 -->
<g id="edge56" class="edge">
<title>Node36&#45;&gt;Node41</title>
<path fill="none" stroke="midnightblue" d="M303.63,-348.98C326.69,-339.33 357.82,-326.97 386,-318 393.74,-315.53 402.01,-313.2 410.14,-311.06"/>
<polygon fill="midnightblue" stroke="midnightblue" points="411.13,-314.42 419.95,-308.55 409.4,-307.64 411.13,-314.42"/>
</g>
</g>
</svg>
