<?xml version="1.0" encoding="UTF-8" standalone="no"?>
<!DOCTYPE svg PUBLIC "-//W3C//DTD SVG 1.1//EN"
 "http://www.w3.org/Graphics/SVG/1.1/DTD/svg11.dtd">
<!-- Generated by graphviz version 2.44.0 (0)
 -->
<!-- Title: LassoInteractorStyle Pages: 1 -->
<svg width="160pt" height="347pt"
 viewBox="0.00 0.00 160.00 347.00" xmlns="http://www.w3.org/2000/svg" xmlns:xlink="http://www.w3.org/1999/xlink">
<g id="graph0" class="graph" transform="scale(1 1) rotate(0) translate(4 343)">
<title>LassoInteractorStyle</title>
<polygon fill="white" stroke="transparent" points="-4,4 -4,-343 156,-343 156,4 -4,4"/>
<!-- Node1 -->
<g id="node1" class="node">
<title>Node1</title>
<g id="a_node1"><a xlink:title="Interactor style for lasso tool.">
<polygon fill="#bfbfbf" stroke="black" points="12,-0.5 12,-244.5 140,-244.5 140,-0.5 12,-0.5"/>
<text text-anchor="middle" x="76" y="-232.5" font-family="Helvetica,sans-Serif" font-size="10.00">LassoInteractorStyle</text>
<polyline fill="none" stroke="black" points="12,-225.5 140,-225.5 "/>
<text text-anchor="start" x="20" y="-213.5" font-family="Helvetica,sans-Serif" font-size="10.00">&#45; scene</text>
<text text-anchor="start" x="20" y="-202.5" font-family="Helvetica,sans-Serif" font-size="10.00">&#45; touchpointID</text>
<text text-anchor="start" x="20" y="-191.5" font-family="Helvetica,sans-Serif" font-size="10.00">&#45; touchpointType</text>
<text text-anchor="start" x="20" y="-180.5" font-family="Helvetica,sans-Serif" font-size="10.00">&#45; surfaceOverlap</text>
<text text-anchor="start" x="20" y="-169.5" font-family="Helvetica,sans-Serif" font-size="10.00">&#45; touchpointDepth</text>
<polyline fill="none" stroke="black" points="12,-162.5 140,-162.5 "/>
<text text-anchor="start" x="20" y="-150.5" font-family="Helvetica,sans-Serif" font-size="10.00">+ IsA()</text>
<text text-anchor="start" x="20" y="-139.5" font-family="Helvetica,sans-Serif" font-size="10.00">+ NewInstance()</text>
<text text-anchor="start" x="20" y="-128.5" font-family="Helvetica,sans-Serif" font-size="10.00">+ LassoInteractorStyle()</text>
<text text-anchor="start" x="20" y="-117.5" font-family="Helvetica,sans-Serif" font-size="10.00">+ OnLeftButtonUp()</text>
<text text-anchor="start" x="20" y="-106.5" font-family="Helvetica,sans-Serif" font-size="10.00">+ SetScene()</text>
<text text-anchor="start" x="20" y="-95.5" font-family="Helvetica,sans-Serif" font-size="10.00">+ SetTouchpointType()</text>
<text text-anchor="start" x="20" y="-84.5" font-family="Helvetica,sans-Serif" font-size="10.00">+ SetSurfaceOverlap()</text>
<text text-anchor="start" x="20" y="-73.5" font-family="Helvetica,sans-Serif" font-size="10.00">+ SetTouchpointDepth()</text>
<text text-anchor="start" x="20" y="-62.5" font-family="Helvetica,sans-Serif" font-size="10.00">+ getTouchpointID()</text>
<text text-anchor="start" x="20" y="-51.5" font-family="Helvetica,sans-Serif" font-size="10.00">+ New()</text>
<text text-anchor="start" x="20" y="-40.5" font-family="Helvetica,sans-Serif" font-size="10.00">+ IsTypeOf()</text>
<text text-anchor="start" x="20" y="-29.5" font-family="Helvetica,sans-Serif" font-size="10.00">+ SafeDownCast()</text>
<text text-anchor="start" x="20" y="-18.5" font-family="Helvetica,sans-Serif" font-size="10.00"># NewInstanceInternal()</text>
<text text-anchor="start" x="20" y="-7.5" font-family="Helvetica,sans-Serif" font-size="10.00">&#45; GetClassNameInternal()</text>
</a>
</g>
</g>
<!-- Node2 -->
<g id="node2" class="node">
<title>Node2</title>
<g id="a_node2"><a xlink:title=" ">
<polygon fill="white" stroke="#bfbfbf" points="0,-281.5 0,-338.5 152,-338.5 152,-281.5 0,-281.5"/>
<text text-anchor="middle" x="76" y="-326.5" font-family="Helvetica,sans-Serif" font-size="10.00">vtkInteractorStyleDrawPolygon</text>
<polyline fill="none" stroke="#bfbfbf" points="0,-319.5 152,-319.5 "/>
<text text-anchor="middle" x="76" y="-307.5" font-family="Helvetica,sans-Serif" font-size="10.00"> </text>
<polyline fill="none" stroke="#bfbfbf" points="0,-300.5 152,-300.5 "/>
<text text-anchor="middle" x="76" y="-288.5" font-family="Helvetica,sans-Serif" font-size="10.00"> </text>
</a>
</g>
</g>
<!-- Node2&#45;&gt;Node1 -->
<g id="edge1" class="edge">
<title>Node2&#45;&gt;Node1</title>
<path fill="none" stroke="midnightblue" d="M76,-271.14C76,-263.05 76,-254.1 76,-244.72"/>
<polygon fill="none" stroke="midnightblue" points="72.5,-271.23 76,-281.23 79.5,-271.23 72.5,-271.23"/>
</g>
</g>
</svg>
