<?xml version="1.0" encoding="UTF-8" standalone="no"?>
<!DOCTYPE svg PUBLIC "-//W3C//DTD SVG 1.1//EN"
 "http://www.w3.org/Graphics/SVG/1.1/DTD/svg11.dtd">
<!-- Generated by graphviz version 2.44.1 (0)
 -->
<!-- Title: HillClimbingOptimizer::hillClimbingRandomRestart Pages: 1 -->
<svg width="987pt" height="460pt"
 viewBox="0.00 0.00 987.00 460.00" xmlns="http://www.w3.org/2000/svg" xmlns:xlink="http://www.w3.org/1999/xlink">
<g id="graph0" class="graph" transform="scale(1 1) rotate(0) translate(4 456)">
<title>HillClimbingOptimizer::hillClimbingRandomRestart</title>
<polygon fill="white" stroke="transparent" points="-4,4 -4,-456 983,-456 983,4 -4,4"/>
<!-- Node1 -->
<g id="node1" class="node">
<title>Node1</title>
<g id="a_node1"><a xlink:title="Run hill climbing algorithm with random restart.">
<polygon fill="#bfbfbf" stroke="black" points="0,-213 0,-243 142,-243 142,-213 0,-213"/>
<text text-anchor="start" x="8" y="-231" font-family="Helvetica,sans-Serif" font-size="10.00">HillClimbingOptimizer</text>
<text text-anchor="middle" x="71" y="-220" font-family="Helvetica,sans-Serif" font-size="10.00">::hillClimbingRandomRestart</text>
</a>
</g>
</g>
<!-- Node2 -->
<g id="node2" class="node">
<title>Node2</title>
<g id="a_node2"><a xlink:href="../../d9/d02/class_optimizer.html#a4f2470e3a7450a12d4daa5df86d50ce8" target="_top" xlink:title="computes the total wire length of a wiring">
<polygon fill="white" stroke="black" points="178,-213 178,-243 321,-243 321,-213 178,-213"/>
<text text-anchor="start" x="186" y="-231" font-family="Helvetica,sans-Serif" font-size="10.00">Optimizer::computeTotalWire</text>
<text text-anchor="middle" x="249.5" y="-220" font-family="Helvetica,sans-Serif" font-size="10.00">Distance</text>
</a>
</g>
</g>
<!-- Node1&#45;&gt;Node2 -->
<g id="edge1" class="edge">
<title>Node1&#45;&gt;Node2</title>
<path fill="none" stroke="midnightblue" d="M142.01,-228C150.52,-228 159.26,-228 167.91,-228"/>
<polygon fill="midnightblue" stroke="midnightblue" points="168,-231.5 178,-228 168,-224.5 168,-231.5"/>
</g>
<!-- Node3 -->
<g id="node3" class="node">
<title>Node3</title>
<g id="a_node3"><a xlink:href="../../de/d52/class_a_star.html#a29f560899446dc99d6f157e4997650d7" target="_top" xlink:title="Unmark all paths.">
<polygon fill="white" stroke="black" points="384.5,-432.5 384.5,-451.5 489.5,-451.5 489.5,-432.5 384.5,-432.5"/>
<text text-anchor="middle" x="437" y="-439.5" font-family="Helvetica,sans-Serif" font-size="10.00">AStar::clearAllPaths</text>
</a>
</g>
</g>
<!-- Node2&#45;&gt;Node3 -->
<g id="edge2" class="edge">
<title>Node2&#45;&gt;Node3</title>
<path fill="none" stroke="midnightblue" d="M254.69,-243.14C265.42,-279.06 297.33,-370 357,-418 362.33,-422.29 368.41,-425.81 374.79,-428.7"/>
<polygon fill="midnightblue" stroke="midnightblue" points="373.7,-432.04 384.28,-432.51 376.3,-425.54 373.7,-432.04"/>
</g>
<!-- Node4 -->
<g id="node4" class="node">
<title>Node4</title>
<g id="a_node4"><a xlink:href="../../de/d52/class_a_star.html#aa76c29f42861c4f6fc7c328e4dbc7d83" target="_top" xlink:title="Mark a path as locked so that it can not be used by another search.">
<polygon fill="white" stroke="black" points="578,-413.5 578,-432.5 667,-432.5 667,-413.5 578,-413.5"/>
<text text-anchor="middle" x="622.5" y="-420.5" font-family="Helvetica,sans-Serif" font-size="10.00">AStar::markPath</text>
</a>
</g>
</g>
<!-- Node2&#45;&gt;Node4 -->
<g id="edge14" class="edge">
<title>Node2&#45;&gt;Node4</title>
<path fill="none" stroke="midnightblue" d="M255.91,-243.2C268.23,-275.42 301.7,-350.43 357,-385 391.12,-406.33 500.45,-416.2 567.39,-420.35"/>
<polygon fill="midnightblue" stroke="midnightblue" points="567.57,-423.87 577.76,-420.97 567.98,-416.88 567.57,-423.87"/>
</g>
<!-- Node5 -->
<g id="node5" class="node">
<title>Node5</title>
<g id="a_node5"><a xlink:href="../../d9/d58/class_touchpoint.html#a30cdb1f0de39cf4ffe2d23c3c750d331" target="_top" xlink:title="Return outside wiring entry point (grid coordinates)">
<polygon fill="white" stroke="black" points="370.5,-345 370.5,-375 503.5,-375 503.5,-345 370.5,-345"/>
<text text-anchor="start" x="378.5" y="-363" font-family="Helvetica,sans-Serif" font-size="10.00">Touchpoint::getConnection</text>
<text text-anchor="middle" x="437" y="-352" font-family="Helvetica,sans-Serif" font-size="10.00">PointIndex</text>
</a>
</g>
</g>
<!-- Node2&#45;&gt;Node5 -->
<g id="edge4" class="edge">
<title>Node2&#45;&gt;Node5</title>
<path fill="none" stroke="midnightblue" d="M261.55,-243.05C279.22,-266.09 316.04,-310.05 357,-335 360.43,-337.09 364.04,-339.02 367.77,-340.8"/>
<polygon fill="midnightblue" stroke="midnightblue" points="366.65,-344.13 377.21,-344.92 369.45,-337.71 366.65,-344.13"/>
</g>
<!-- Node6 -->
<g id="node6" class="node">
<title>Node6</title>
<g id="a_node6"><a xlink:href="../../d6/db5/class_scene.html#a64cb0dcdcb57a45fe485fb3489c112c4" target="_top" xlink:title="Return if the 26&#45;neighborhood voxels of a connection path are locked too.">
<polygon fill="white" stroke="black" points="360.5,-306.5 360.5,-325.5 513.5,-325.5 513.5,-306.5 360.5,-306.5"/>
<text text-anchor="middle" x="437" y="-313.5" font-family="Helvetica,sans-Serif" font-size="10.00">Scene::getLockNeighborVoxels</text>
</a>
</g>
</g>
<!-- Node2&#45;&gt;Node6 -->
<g id="edge5" class="edge">
<title>Node2&#45;&gt;Node6</title>
<path fill="none" stroke="midnightblue" d="M269.39,-243.09C289.85,-258.74 324,-282.84 357,-297 362.78,-299.48 368.95,-301.68 375.2,-303.61"/>
<polygon fill="midnightblue" stroke="midnightblue" points="374.44,-307.03 385.02,-306.43 376.38,-300.31 374.44,-307.03"/>
</g>
<!-- Node7 -->
<g id="node7" class="node">
<title>Node7</title>
<g id="a_node7"><a xlink:href="../../d6/db5/class_scene.html#abe8f9d18527a1fea362460cdc53cb5eb" target="_top" xlink:title="Return the bounds of the mesh in scene coordinates.">
<polygon fill="white" stroke="black" points="357,-257 357,-287 517,-287 517,-257 357,-257"/>
<text text-anchor="start" x="365" y="-275" font-family="Helvetica,sans-Serif" font-size="10.00">Scene::getMeshWorldCoordinate</text>
<text text-anchor="middle" x="437" y="-264" font-family="Helvetica,sans-Serif" font-size="10.00">Bounds</text>
</a>
</g>
</g>
<!-- Node2&#45;&gt;Node7 -->
<g id="edge6" class="edge">
<title>Node2&#45;&gt;Node7</title>
<path fill="none" stroke="midnightblue" d="M313.82,-243.02C329.55,-246.75 346.54,-250.78 362.71,-254.62"/>
<polygon fill="midnightblue" stroke="midnightblue" points="362.11,-258.07 372.65,-256.97 363.73,-251.26 362.11,-258.07"/>
</g>
<!-- Node8 -->
<g id="node8" class="node">
<title>Node8</title>
<g id="a_node8"><a xlink:href="../../d6/db5/class_scene.html#a5c26ef724365bd55c471acc673d60674" target="_top" xlink:title="Return the touchpoint registry of the scene.">
<polygon fill="white" stroke="black" points="363,-218.5 363,-237.5 511,-237.5 511,-218.5 363,-218.5"/>
<text text-anchor="middle" x="437" y="-225.5" font-family="Helvetica,sans-Serif" font-size="10.00">Scene::getTouchpointRegistry</text>
</a>
</g>
</g>
<!-- Node2&#45;&gt;Node8 -->
<g id="edge7" class="edge">
<title>Node2&#45;&gt;Node8</title>
<path fill="none" stroke="midnightblue" d="M321.16,-228C331.48,-228 342.19,-228 352.73,-228"/>
<polygon fill="midnightblue" stroke="midnightblue" points="352.77,-231.5 362.77,-228 352.77,-224.5 352.77,-231.5"/>
</g>
<!-- Node9 -->
<g id="node9" class="node">
<title>Node9</title>
<g id="a_node9"><a xlink:href="../../d6/db5/class_scene.html#a7e5ee53ea01ef113afaaf4b7c10accf3" target="_top" xlink:title="Return the voxel grid image data.">
<polygon fill="white" stroke="black" points="382.5,-180.5 382.5,-199.5 491.5,-199.5 491.5,-180.5 382.5,-180.5"/>
<text text-anchor="middle" x="437" y="-187.5" font-family="Helvetica,sans-Serif" font-size="10.00">Scene::getVoxelData</text>
</a>
</g>
</g>
<!-- Node2&#45;&gt;Node9 -->
<g id="edge8" class="edge">
<title>Node2&#45;&gt;Node9</title>
<path fill="none" stroke="midnightblue" d="M321.16,-213.53C340.42,-209.58 361.04,-205.36 379.41,-201.59"/>
<polygon fill="midnightblue" stroke="midnightblue" points="380.27,-204.99 389.36,-199.55 378.86,-198.13 380.27,-204.99"/>
</g>
<!-- Node10 -->
<g id="node10" class="node">
<title>Node10</title>
<g id="a_node10"><a xlink:href="../../d9/d58/class_touchpoint.html#afbb2470ea0d67a12a29eb3d6bd958f01" target="_top" xlink:title="Mark voxel grid cells as occupied by the touchpoint geometry.">
<polygon fill="white" stroke="black" points="366.5,-104.5 366.5,-123.5 507.5,-123.5 507.5,-104.5 366.5,-104.5"/>
<text text-anchor="middle" x="437" y="-111.5" font-family="Helvetica,sans-Serif" font-size="10.00">Touchpoint::markOccupation</text>
</a>
</g>
</g>
<!-- Node2&#45;&gt;Node10 -->
<g id="edge9" class="edge">
<title>Node2&#45;&gt;Node10</title>
<path fill="none" stroke="midnightblue" d="M262.94,-212.97C281.29,-191.82 317.71,-153.57 357,-133 361.49,-130.65 366.28,-128.58 371.2,-126.77"/>
<polygon fill="midnightblue" stroke="midnightblue" points="372.37,-130.06 380.75,-123.58 370.16,-123.42 372.37,-130.06"/>
</g>
<!-- Node15 -->
<g id="node15" class="node">
<title>Node15</title>
<g id="a_node15"><a xlink:href="../../de/d52/class_a_star.html#a67f440fb4e77fad8d273ef848e9703c1" target="_top" xlink:title="Reset grid.">
<polygon fill="white" stroke="black" points="402.5,-142.5 402.5,-161.5 471.5,-161.5 471.5,-142.5 402.5,-142.5"/>
<text text-anchor="middle" x="437" y="-149.5" font-family="Helvetica,sans-Serif" font-size="10.00">AStar::reset</text>
</a>
</g>
</g>
<!-- Node2&#45;&gt;Node15 -->
<g id="edge15" class="edge">
<title>Node2&#45;&gt;Node15</title>
<path fill="none" stroke="midnightblue" d="M274.62,-212.78C295.67,-200.07 327.41,-182.27 357,-171 368.22,-166.73 380.7,-163.2 392.38,-160.39"/>
<polygon fill="midnightblue" stroke="midnightblue" points="393.4,-163.74 402.37,-158.1 391.84,-156.92 393.4,-163.74"/>
</g>
<!-- Node19 -->
<g id="node19" class="node">
<title>Node19</title>
<g id="a_node19"><a xlink:href="../../de/d52/class_a_star.html#a0d1fd50821c4cd7bbd8a87bd9fcf5dd3" target="_top" xlink:title="Search a path in the voxelgrid using the A* algorithm with the preset heuristic.">
<polygon fill="white" stroke="black" points="388.5,-66.5 388.5,-85.5 485.5,-85.5 485.5,-66.5 388.5,-66.5"/>
<text text-anchor="middle" x="437" y="-73.5" font-family="Helvetica,sans-Serif" font-size="10.00">AStar::searchPath</text>
</a>
</g>
</g>
<!-- Node2&#45;&gt;Node19 -->
<g id="edge19" class="edge">
<title>Node2&#45;&gt;Node19</title>
<path fill="none" stroke="midnightblue" d="M258.15,-212.93C273.12,-185.04 309.06,-125.45 357,-95 363.61,-90.8 371.08,-87.53 378.71,-84.98"/>
<polygon fill="midnightblue" stroke="midnightblue" points="379.81,-88.3 388.42,-82.12 377.84,-81.59 379.81,-88.3"/>
</g>
<!-- Node20 -->
<g id="node20" class="node">
<title>Node20</title>
<g id="a_node20"><a xlink:href="../../d9/d58/class_touchpoint.html#a550348f9d05c347b5186b6531d583a11" target="_top" xlink:title="Mark voxel grid cells as unoccupied by the touchpoint geometry.">
<polygon fill="white" stroke="black" points="361,-28.5 361,-47.5 513,-47.5 513,-28.5 361,-28.5"/>
<text text-anchor="middle" x="437" y="-35.5" font-family="Helvetica,sans-Serif" font-size="10.00">Touchpoint::unMarkOccupation</text>
</a>
</g>
</g>
<!-- Node2&#45;&gt;Node20 -->
<g id="edge20" class="edge">
<title>Node2&#45;&gt;Node20</title>
<path fill="none" stroke="midnightblue" d="M255.42,-212.91C267.18,-179.27 300.27,-97.92 357,-57 359.69,-55.06 362.55,-53.32 365.53,-51.75"/>
<polygon fill="midnightblue" stroke="midnightblue" points="367.1,-54.88 374.76,-47.56 364.21,-48.5 367.1,-54.88"/>
</g>
<!-- Node3&#45;&gt;Node4 -->
<g id="edge3" class="edge">
<title>Node3&#45;&gt;Node4</title>
<path fill="none" stroke="midnightblue" d="M489.6,-436.66C513.91,-434.14 542.89,-431.14 567.49,-428.59"/>
<polygon fill="midnightblue" stroke="midnightblue" points="568.15,-432.04 577.73,-427.53 567.43,-425.08 568.15,-432.04"/>
</g>
<!-- Node11 -->
<g id="node11" class="node">
<title>Node11</title>
<g id="a_node11"><a xlink:href="../../d9/d58/class_touchpoint.html#a1b82f162b238396efeae6b9369430a87" target="_top" xlink:title="Mark voxel grid cells occupied / unoccupied by the touchpoint geometry.">
<polygon fill="white" stroke="black" points="553,-39 553,-69 692,-69 692,-39 553,-39"/>
<text text-anchor="start" x="561" y="-57" font-family="Helvetica,sans-Serif" font-size="10.00">Touchpoint::markTouchpoint</text>
<text text-anchor="middle" x="622.5" y="-46" font-family="Helvetica,sans-Serif" font-size="10.00">Cells</text>
</a>
</g>
</g>
<!-- Node10&#45;&gt;Node11 -->
<g id="edge10" class="edge">
<title>Node10&#45;&gt;Node11</title>
<path fill="none" stroke="midnightblue" d="M482.58,-104.41C493.9,-101.67 505.97,-98.47 517,-95 537.1,-88.67 558.87,-80.37 577.31,-72.9"/>
<polygon fill="midnightblue" stroke="midnightblue" points="578.7,-76.11 586.62,-69.08 576.04,-69.64 578.7,-76.11"/>
</g>
<!-- Node12 -->
<g id="node12" class="node">
<title>Node12</title>
<g id="a_node12"><a xlink:href="../../d1/d7c/namespace_utils.html#ac9b063fc04e0a4e5501c8ed0af96ac47" target="_top" xlink:title="Clamp integer value between min and max.">
<polygon fill="white" stroke="black" points="765.5,-88.5 765.5,-107.5 845.5,-107.5 845.5,-88.5 765.5,-88.5"/>
<text text-anchor="middle" x="805.5" y="-95.5" font-family="Helvetica,sans-Serif" font-size="10.00">Utils::clampInt</text>
</a>
</g>
</g>
<!-- Node11&#45;&gt;Node12 -->
<g id="edge11" class="edge">
<title>Node11&#45;&gt;Node12</title>
<path fill="none" stroke="midnightblue" d="M685.28,-69.02C708.18,-74.59 733.82,-80.82 755.43,-86.07"/>
<polygon fill="midnightblue" stroke="midnightblue" points="754.83,-89.53 765.37,-88.49 756.48,-82.72 754.83,-89.53"/>
</g>
<!-- Node13 -->
<g id="node13" class="node">
<title>Node13</title>
<g id="a_node13"><a xlink:href="../../d9/d58/class_touchpoint.html#a465057d2b000f7fc374d594fb8b80ce6" target="_top" xlink:title="Return the bounds of the touchpoint in world coordinates.">
<polygon fill="white" stroke="black" points="728,-39 728,-69 883,-69 883,-39 728,-39"/>
<text text-anchor="start" x="736" y="-57" font-family="Helvetica,sans-Serif" font-size="10.00">Touchpoint::getWorldCoordinate</text>
<text text-anchor="middle" x="805.5" y="-46" font-family="Helvetica,sans-Serif" font-size="10.00">Bounds</text>
</a>
</g>
</g>
<!-- Node11&#45;&gt;Node13 -->
<g id="edge12" class="edge">
<title>Node11&#45;&gt;Node13</title>
<path fill="none" stroke="midnightblue" d="M692.19,-54C700.6,-54 709.27,-54 717.9,-54"/>
<polygon fill="midnightblue" stroke="midnightblue" points="717.99,-57.5 727.99,-54 717.99,-50.5 717.99,-57.5"/>
</g>
<!-- Node14 -->
<g id="node14" class="node">
<title>Node14</title>
<g id="a_node14"><a xlink:href="../../d1/d7c/namespace_utils.html#a606fb1eb5072ca20f56293fa71bd8578" target="_top" xlink:title="Compute 1D linearized index from 3D&#45;coodinate index.">
<polygon fill="white" stroke="black" points="777.5,-0.5 777.5,-19.5 833.5,-19.5 833.5,-0.5 777.5,-0.5"/>
<text text-anchor="middle" x="805.5" y="-7.5" font-family="Helvetica,sans-Serif" font-size="10.00">Utils::idx</text>
</a>
</g>
</g>
<!-- Node11&#45;&gt;Node14 -->
<g id="edge13" class="edge">
<title>Node11&#45;&gt;Node14</title>
<path fill="none" stroke="midnightblue" d="M685.28,-38.98C712.58,-32.34 743.77,-24.76 767.4,-19.02"/>
<polygon fill="midnightblue" stroke="midnightblue" points="768.46,-22.36 777.35,-16.6 766.81,-15.56 768.46,-22.36"/>
</g>
<!-- Node16 -->
<g id="node16" class="node">
<title>Node16</title>
<g id="a_node16"><a xlink:href="../../de/d52/class_a_star.html#af8f32d428d15af1c33dc9f77929299ca" target="_top" xlink:title="Resets the 3D voxel grid to it&#39;s default values.">
<polygon fill="white" stroke="black" points="579,-142.5 579,-161.5 666,-161.5 666,-142.5 579,-142.5"/>
<text text-anchor="middle" x="622.5" y="-149.5" font-family="Helvetica,sans-Serif" font-size="10.00">AStar::resetGrid</text>
</a>
</g>
</g>
<!-- Node15&#45;&gt;Node16 -->
<g id="edge16" class="edge">
<title>Node15&#45;&gt;Node16</title>
<path fill="none" stroke="midnightblue" d="M471.66,-152C498.71,-152 537.2,-152 568.4,-152"/>
<polygon fill="midnightblue" stroke="midnightblue" points="568.68,-155.5 578.68,-152 568.68,-148.5 568.68,-155.5"/>
</g>
<!-- Node17 -->
<g id="node17" class="node">
<title>Node17</title>
<g id="a_node17"><a xlink:href="../../de/d52/class_a_star.html#aadbff393646adec069b3264bed4edc9f" target="_top" xlink:title="Initializes the 3D voxel grid.">
<polygon fill="white" stroke="black" points="766.5,-142.5 766.5,-161.5 844.5,-161.5 844.5,-142.5 766.5,-142.5"/>
<text text-anchor="middle" x="805.5" y="-149.5" font-family="Helvetica,sans-Serif" font-size="10.00">AStar::initGrid</text>
</a>
</g>
</g>
<!-- Node16&#45;&gt;Node17 -->
<g id="edge17" class="edge">
<title>Node16&#45;&gt;Node17</title>
<path fill="none" stroke="midnightblue" d="M666.39,-152C693.28,-152 727.99,-152 755.89,-152"/>
<polygon fill="midnightblue" stroke="midnightblue" points="756.22,-155.5 766.22,-152 756.22,-148.5 756.22,-155.5"/>
</g>
<!-- Node18 -->
<g id="node18" class="node">
<title>Node18</title>
<g id="a_node18"><a xlink:href="../../de/d52/class_a_star.html#abc66e4863cf4c15f616098e60469e50b" target="_top" xlink:title="Compute 1D linearized index from 3D&#45;coodinate index.">
<polygon fill="white" stroke="black" points="919,-142.5 919,-161.5 979,-161.5 979,-142.5 919,-142.5"/>
<text text-anchor="middle" x="949" y="-149.5" font-family="Helvetica,sans-Serif" font-size="10.00">AStar::idx</text>
</a>
</g>
</g>
<!-- Node17&#45;&gt;Node18 -->
<g id="edge18" class="edge">
<title>Node17&#45;&gt;Node18</title>
<path fill="none" stroke="midnightblue" d="M844.79,-152C864.59,-152 888.71,-152 908.65,-152"/>
<polygon fill="midnightblue" stroke="midnightblue" points="908.66,-155.5 918.66,-152 908.66,-148.5 908.66,-155.5"/>
</g>
<!-- Node20&#45;&gt;Node11 -->
<g id="edge21" class="edge">
<title>Node20&#45;&gt;Node11</title>
<path fill="none" stroke="midnightblue" d="M513.17,-44.55C522.94,-45.41 532.97,-46.28 542.79,-47.14"/>
<polygon fill="midnightblue" stroke="midnightblue" points="542.67,-50.64 552.94,-48.02 543.28,-43.67 542.67,-50.64"/>
</g>
</g>
</svg>
