<?xml version="1.0" encoding="UTF-8" standalone="no"?>
<!DOCTYPE svg PUBLIC "-//W3C//DTD SVG 1.1//EN"
 "http://www.w3.org/Graphics/SVG/1.1/DTD/svg11.dtd">
<!-- Generated by graphviz version 2.44.1 (0)
 -->
<!-- Title: HillClimbingOptimizer::hillClimbing Pages: 1 -->
<svg width="956pt" height="460pt"
 viewBox="0.00 0.00 956.00 460.00" xmlns="http://www.w3.org/2000/svg" xmlns:xlink="http://www.w3.org/1999/xlink">
<g id="graph0" class="graph" transform="scale(1 1) rotate(0) translate(4 456)">
<title>HillClimbingOptimizer::hillClimbing</title>
<polygon fill="white" stroke="transparent" points="-4,4 -4,-456 952,-456 952,4 -4,4"/>
<!-- Node1 -->
<g id="node1" class="node">
<title>Node1</title>
<g id="a_node1"><a xlink:title="Run hill climbing algorithm.">
<polygon fill="#bfbfbf" stroke="black" points="0,-213 0,-243 111,-243 111,-213 0,-213"/>
<text text-anchor="start" x="8" y="-231" font-family="Helvetica,sans-Serif" font-size="10.00">HillClimbingOptimizer</text>
<text text-anchor="middle" x="55.5" y="-220" font-family="Helvetica,sans-Serif" font-size="10.00">::hillClimbing</text>
</a>
</g>
</g>
<!-- Node2 -->
<g id="node2" class="node">
<title>Node2</title>
<g id="a_node2"><a xlink:href="../../d9/d02/class_optimizer.html#a4f2470e3a7450a12d4daa5df86d50ce8" target="_top" xlink:title="computes the total wire length of a wiring">
<polygon fill="white" stroke="black" points="147,-213 147,-243 290,-243 290,-213 147,-213"/>
<text text-anchor="start" x="155" y="-231" font-family="Helvetica,sans-Serif" font-size="10.00">Optimizer::computeTotalWire</text>
<text text-anchor="middle" x="218.5" y="-220" font-family="Helvetica,sans-Serif" font-size="10.00">Distance</text>
</a>
</g>
</g>
<!-- Node1&#45;&gt;Node2 -->
<g id="edge1" class="edge">
<title>Node1&#45;&gt;Node2</title>
<path fill="none" stroke="midnightblue" d="M111.01,-228C119.27,-228 127.94,-228 136.62,-228"/>
<polygon fill="midnightblue" stroke="midnightblue" points="136.78,-231.5 146.78,-228 136.78,-224.5 136.78,-231.5"/>
</g>
<!-- Node3 -->
<g id="node3" class="node">
<title>Node3</title>
<g id="a_node3"><a xlink:href="../../de/d52/class_a_star.html#a29f560899446dc99d6f157e4997650d7" target="_top" xlink:title="Unmark all paths.">
<polygon fill="white" stroke="black" points="353.5,-432.5 353.5,-451.5 458.5,-451.5 458.5,-432.5 353.5,-432.5"/>
<text text-anchor="middle" x="406" y="-439.5" font-family="Helvetica,sans-Serif" font-size="10.00">AStar::clearAllPaths</text>
</a>
</g>
</g>
<!-- Node2&#45;&gt;Node3 -->
<g id="edge2" class="edge">
<title>Node2&#45;&gt;Node3</title>
<path fill="none" stroke="midnightblue" d="M223.69,-243.14C234.42,-279.06 266.33,-370 326,-418 331.33,-422.29 337.41,-425.81 343.79,-428.7"/>
<polygon fill="midnightblue" stroke="midnightblue" points="342.7,-432.04 353.28,-432.51 345.3,-425.54 342.7,-432.04"/>
</g>
<!-- Node4 -->
<g id="node4" class="node">
<title>Node4</title>
<g id="a_node4"><a xlink:href="../../de/d52/class_a_star.html#aa76c29f42861c4f6fc7c328e4dbc7d83" target="_top" xlink:title="Mark a path as locked so that it can not be used by another search.">
<polygon fill="white" stroke="black" points="547,-413.5 547,-432.5 636,-432.5 636,-413.5 547,-413.5"/>
<text text-anchor="middle" x="591.5" y="-420.5" font-family="Helvetica,sans-Serif" font-size="10.00">AStar::markPath</text>
</a>
</g>
</g>
<!-- Node2&#45;&gt;Node4 -->
<g id="edge14" class="edge">
<title>Node2&#45;&gt;Node4</title>
<path fill="none" stroke="midnightblue" d="M224.91,-243.2C237.23,-275.42 270.7,-350.43 326,-385 360.12,-406.33 469.45,-416.2 536.39,-420.35"/>
<polygon fill="midnightblue" stroke="midnightblue" points="536.57,-423.87 546.76,-420.97 536.98,-416.88 536.57,-423.87"/>
</g>
<!-- Node5 -->
<g id="node5" class="node">
<title>Node5</title>
<g id="a_node5"><a xlink:href="../../d9/d58/class_touchpoint.html#a30cdb1f0de39cf4ffe2d23c3c750d331" target="_top" xlink:title="Return outside wiring entry point (grid coordinates)">
<polygon fill="white" stroke="black" points="339.5,-345 339.5,-375 472.5,-375 472.5,-345 339.5,-345"/>
<text text-anchor="start" x="347.5" y="-363" font-family="Helvetica,sans-Serif" font-size="10.00">Touchpoint::getConnection</text>
<text text-anchor="middle" x="406" y="-352" font-family="Helvetica,sans-Serif" font-size="10.00">PointIndex</text>
</a>
</g>
</g>
<!-- Node2&#45;&gt;Node5 -->
<g id="edge4" class="edge">
<title>Node2&#45;&gt;Node5</title>
<path fill="none" stroke="midnightblue" d="M230.55,-243.05C248.22,-266.09 285.04,-310.05 326,-335 329.43,-337.09 333.04,-339.02 336.77,-340.8"/>
<polygon fill="midnightblue" stroke="midnightblue" points="335.65,-344.13 346.21,-344.92 338.45,-337.71 335.65,-344.13"/>
</g>
<!-- Node6 -->
<g id="node6" class="node">
<title>Node6</title>
<g id="a_node6"><a xlink:href="../../d6/db5/class_scene.html#a64cb0dcdcb57a45fe485fb3489c112c4" target="_top" xlink:title="Return if the 26&#45;neighborhood voxels of a connection path are locked too.">
<polygon fill="white" stroke="black" points="329.5,-306.5 329.5,-325.5 482.5,-325.5 482.5,-306.5 329.5,-306.5"/>
<text text-anchor="middle" x="406" y="-313.5" font-family="Helvetica,sans-Serif" font-size="10.00">Scene::getLockNeighborVoxels</text>
</a>
</g>
</g>
<!-- Node2&#45;&gt;Node6 -->
<g id="edge5" class="edge">
<title>Node2&#45;&gt;Node6</title>
<path fill="none" stroke="midnightblue" d="M238.39,-243.09C258.85,-258.74 293,-282.84 326,-297 331.78,-299.48 337.95,-301.68 344.2,-303.61"/>
<polygon fill="midnightblue" stroke="midnightblue" points="343.44,-307.03 354.02,-306.43 345.38,-300.31 343.44,-307.03"/>
</g>
<!-- Node7 -->
<g id="node7" class="node">
<title>Node7</title>
<g id="a_node7"><a xlink:href="../../d6/db5/class_scene.html#abe8f9d18527a1fea362460cdc53cb5eb" target="_top" xlink:title="Return the bounds of the mesh in scene coordinates.">
<polygon fill="white" stroke="black" points="326,-257 326,-287 486,-287 486,-257 326,-257"/>
<text text-anchor="start" x="334" y="-275" font-family="Helvetica,sans-Serif" font-size="10.00">Scene::getMeshWorldCoordinate</text>
<text text-anchor="middle" x="406" y="-264" font-family="Helvetica,sans-Serif" font-size="10.00">Bounds</text>
</a>
</g>
</g>
<!-- Node2&#45;&gt;Node7 -->
<g id="edge6" class="edge">
<title>Node2&#45;&gt;Node7</title>
<path fill="none" stroke="midnightblue" d="M282.82,-243.02C298.55,-246.75 315.54,-250.78 331.71,-254.62"/>
<polygon fill="midnightblue" stroke="midnightblue" points="331.11,-258.07 341.65,-256.97 332.73,-251.26 331.11,-258.07"/>
</g>
<!-- Node8 -->
<g id="node8" class="node">
<title>Node8</title>
<g id="a_node8"><a xlink:href="../../d6/db5/class_scene.html#a5c26ef724365bd55c471acc673d60674" target="_top" xlink:title="Return the touchpoint registry of the scene.">
<polygon fill="white" stroke="black" points="332,-218.5 332,-237.5 480,-237.5 480,-218.5 332,-218.5"/>
<text text-anchor="middle" x="406" y="-225.5" font-family="Helvetica,sans-Serif" font-size="10.00">Scene::getTouchpointRegistry</text>
</a>
</g>
</g>
<!-- Node2&#45;&gt;Node8 -->
<g id="edge7" class="edge">
<title>Node2&#45;&gt;Node8</title>
<path fill="none" stroke="midnightblue" d="M290.16,-228C300.48,-228 311.19,-228 321.73,-228"/>
<polygon fill="midnightblue" stroke="midnightblue" points="321.77,-231.5 331.77,-228 321.77,-224.5 321.77,-231.5"/>
</g>
<!-- Node9 -->
<g id="node9" class="node">
<title>Node9</title>
<g id="a_node9"><a xlink:href="../../d6/db5/class_scene.html#a7e5ee53ea01ef113afaaf4b7c10accf3" target="_top" xlink:title="Return the voxel grid image data.">
<polygon fill="white" stroke="black" points="351.5,-180.5 351.5,-199.5 460.5,-199.5 460.5,-180.5 351.5,-180.5"/>
<text text-anchor="middle" x="406" y="-187.5" font-family="Helvetica,sans-Serif" font-size="10.00">Scene::getVoxelData</text>
</a>
</g>
</g>
<!-- Node2&#45;&gt;Node9 -->
<g id="edge8" class="edge">
<title>Node2&#45;&gt;Node9</title>
<path fill="none" stroke="midnightblue" d="M290.16,-213.53C309.42,-209.58 330.04,-205.36 348.41,-201.59"/>
<polygon fill="midnightblue" stroke="midnightblue" points="349.27,-204.99 358.36,-199.55 347.86,-198.13 349.27,-204.99"/>
</g>
<!-- Node10 -->
<g id="node10" class="node">
<title>Node10</title>
<g id="a_node10"><a xlink:href="../../d9/d58/class_touchpoint.html#afbb2470ea0d67a12a29eb3d6bd958f01" target="_top" xlink:title="Mark voxel grid cells as occupied by the touchpoint geometry.">
<polygon fill="white" stroke="black" points="335.5,-104.5 335.5,-123.5 476.5,-123.5 476.5,-104.5 335.5,-104.5"/>
<text text-anchor="middle" x="406" y="-111.5" font-family="Helvetica,sans-Serif" font-size="10.00">Touchpoint::markOccupation</text>
</a>
</g>
</g>
<!-- Node2&#45;&gt;Node10 -->
<g id="edge9" class="edge">
<title>Node2&#45;&gt;Node10</title>
<path fill="none" stroke="midnightblue" d="M231.94,-212.97C250.29,-191.82 286.71,-153.57 326,-133 330.49,-130.65 335.28,-128.58 340.2,-126.77"/>
<polygon fill="midnightblue" stroke="midnightblue" points="341.37,-130.06 349.75,-123.58 339.16,-123.42 341.37,-130.06"/>
</g>
<!-- Node15 -->
<g id="node15" class="node">
<title>Node15</title>
<g id="a_node15"><a xlink:href="../../de/d52/class_a_star.html#a67f440fb4e77fad8d273ef848e9703c1" target="_top" xlink:title="Reset grid.">
<polygon fill="white" stroke="black" points="371.5,-142.5 371.5,-161.5 440.5,-161.5 440.5,-142.5 371.5,-142.5"/>
<text text-anchor="middle" x="406" y="-149.5" font-family="Helvetica,sans-Serif" font-size="10.00">AStar::reset</text>
</a>
</g>
</g>
<!-- Node2&#45;&gt;Node15 -->
<g id="edge15" class="edge">
<title>Node2&#45;&gt;Node15</title>
<path fill="none" stroke="midnightblue" d="M243.62,-212.78C264.67,-200.07 296.41,-182.27 326,-171 337.22,-166.73 349.7,-163.2 361.38,-160.39"/>
<polygon fill="midnightblue" stroke="midnightblue" points="362.4,-163.74 371.37,-158.1 360.84,-156.92 362.4,-163.74"/>
</g>
<!-- Node19 -->
<g id="node19" class="node">
<title>Node19</title>
<g id="a_node19"><a xlink:href="../../de/d52/class_a_star.html#a0d1fd50821c4cd7bbd8a87bd9fcf5dd3" target="_top" xlink:title="Search a path in the voxelgrid using the A* algorithm with the preset heuristic.">
<polygon fill="white" stroke="black" points="357.5,-66.5 357.5,-85.5 454.5,-85.5 454.5,-66.5 357.5,-66.5"/>
<text text-anchor="middle" x="406" y="-73.5" font-family="Helvetica,sans-Serif" font-size="10.00">AStar::searchPath</text>
</a>
</g>
</g>
<!-- Node2&#45;&gt;Node19 -->
<g id="edge19" class="edge">
<title>Node2&#45;&gt;Node19</title>
<path fill="none" stroke="midnightblue" d="M227.15,-212.93C242.12,-185.04 278.06,-125.45 326,-95 332.61,-90.8 340.08,-87.53 347.71,-84.98"/>
<polygon fill="midnightblue" stroke="midnightblue" points="348.81,-88.3 357.42,-82.12 346.84,-81.59 348.81,-88.3"/>
</g>
<!-- Node20 -->
<g id="node20" class="node">
<title>Node20</title>
<g id="a_node20"><a xlink:href="../../d9/d58/class_touchpoint.html#a550348f9d05c347b5186b6531d583a11" target="_top" xlink:title="Mark voxel grid cells as unoccupied by the touchpoint geometry.">
<polygon fill="white" stroke="black" points="330,-28.5 330,-47.5 482,-47.5 482,-28.5 330,-28.5"/>
<text text-anchor="middle" x="406" y="-35.5" font-family="Helvetica,sans-Serif" font-size="10.00">Touchpoint::unMarkOccupation</text>
</a>
</g>
</g>
<!-- Node2&#45;&gt;Node20 -->
<g id="edge20" class="edge">
<title>Node2&#45;&gt;Node20</title>
<path fill="none" stroke="midnightblue" d="M224.42,-212.91C236.18,-179.27 269.27,-97.92 326,-57 328.69,-55.06 331.55,-53.32 334.53,-51.75"/>
<polygon fill="midnightblue" stroke="midnightblue" points="336.1,-54.88 343.76,-47.56 333.21,-48.5 336.1,-54.88"/>
</g>
<!-- Node3&#45;&gt;Node4 -->
<g id="edge3" class="edge">
<title>Node3&#45;&gt;Node4</title>
<path fill="none" stroke="midnightblue" d="M458.6,-436.66C482.91,-434.14 511.89,-431.14 536.49,-428.59"/>
<polygon fill="midnightblue" stroke="midnightblue" points="537.15,-432.04 546.73,-427.53 536.43,-425.08 537.15,-432.04"/>
</g>
<!-- Node11 -->
<g id="node11" class="node">
<title>Node11</title>
<g id="a_node11"><a xlink:href="../../d9/d58/class_touchpoint.html#a1b82f162b238396efeae6b9369430a87" target="_top" xlink:title="Mark voxel grid cells occupied / unoccupied by the touchpoint geometry.">
<polygon fill="white" stroke="black" points="522,-39 522,-69 661,-69 661,-39 522,-39"/>
<text text-anchor="start" x="530" y="-57" font-family="Helvetica,sans-Serif" font-size="10.00">Touchpoint::markTouchpoint</text>
<text text-anchor="middle" x="591.5" y="-46" font-family="Helvetica,sans-Serif" font-size="10.00">Cells</text>
</a>
</g>
</g>
<!-- Node10&#45;&gt;Node11 -->
<g id="edge10" class="edge">
<title>Node10&#45;&gt;Node11</title>
<path fill="none" stroke="midnightblue" d="M451.58,-104.41C462.9,-101.67 474.97,-98.47 486,-95 506.1,-88.67 527.87,-80.37 546.31,-72.9"/>
<polygon fill="midnightblue" stroke="midnightblue" points="547.7,-76.11 555.62,-69.08 545.04,-69.64 547.7,-76.11"/>
</g>
<!-- Node12 -->
<g id="node12" class="node">
<title>Node12</title>
<g id="a_node12"><a xlink:href="../../d1/d7c/namespace_utils.html#ac9b063fc04e0a4e5501c8ed0af96ac47" target="_top" xlink:title="Clamp integer value between min and max.">
<polygon fill="white" stroke="black" points="734.5,-88.5 734.5,-107.5 814.5,-107.5 814.5,-88.5 734.5,-88.5"/>
<text text-anchor="middle" x="774.5" y="-95.5" font-family="Helvetica,sans-Serif" font-size="10.00">Utils::clampInt</text>
</a>
</g>
</g>
<!-- Node11&#45;&gt;Node12 -->
<g id="edge11" class="edge">
<title>Node11&#45;&gt;Node12</title>
<path fill="none" stroke="midnightblue" d="M654.28,-69.02C677.18,-74.59 702.82,-80.82 724.43,-86.07"/>
<polygon fill="midnightblue" stroke="midnightblue" points="723.83,-89.53 734.37,-88.49 725.48,-82.72 723.83,-89.53"/>
</g>
<!-- Node13 -->
<g id="node13" class="node">
<title>Node13</title>
<g id="a_node13"><a xlink:href="../../d9/d58/class_touchpoint.html#a465057d2b000f7fc374d594fb8b80ce6" target="_top" xlink:title="Return the bounds of the touchpoint in world coordinates.">
<polygon fill="white" stroke="black" points="697,-39 697,-69 852,-69 852,-39 697,-39"/>
<text text-anchor="start" x="705" y="-57" font-family="Helvetica,sans-Serif" font-size="10.00">Touchpoint::getWorldCoordinate</text>
<text text-anchor="middle" x="774.5" y="-46" font-family="Helvetica,sans-Serif" font-size="10.00">Bounds</text>
</a>
</g>
</g>
<!-- Node11&#45;&gt;Node13 -->
<g id="edge12" class="edge">
<title>Node11&#45;&gt;Node13</title>
<path fill="none" stroke="midnightblue" d="M661.19,-54C669.6,-54 678.27,-54 686.9,-54"/>
<polygon fill="midnightblue" stroke="midnightblue" points="686.99,-57.5 696.99,-54 686.99,-50.5 686.99,-57.5"/>
</g>
<!-- Node14 -->
<g id="node14" class="node">
<title>Node14</title>
<g id="a_node14"><a xlink:href="../../d1/d7c/namespace_utils.html#a606fb1eb5072ca20f56293fa71bd8578" target="_top" xlink:title="Compute 1D linearized index from 3D&#45;coodinate index.">
<polygon fill="white" stroke="black" points="746.5,-0.5 746.5,-19.5 802.5,-19.5 802.5,-0.5 746.5,-0.5"/>
<text text-anchor="middle" x="774.5" y="-7.5" font-family="Helvetica,sans-Serif" font-size="10.00">Utils::idx</text>
</a>
</g>
</g>
<!-- Node11&#45;&gt;Node14 -->
<g id="edge13" class="edge">
<title>Node11&#45;&gt;Node14</title>
<path fill="none" stroke="midnightblue" d="M654.28,-38.98C681.58,-32.34 712.77,-24.76 736.4,-19.02"/>
<polygon fill="midnightblue" stroke="midnightblue" points="737.46,-22.36 746.35,-16.6 735.81,-15.56 737.46,-22.36"/>
</g>
<!-- Node16 -->
<g id="node16" class="node">
<title>Node16</title>
<g id="a_node16"><a xlink:href="../../de/d52/class_a_star.html#af8f32d428d15af1c33dc9f77929299ca" target="_top" xlink:title="Resets the 3D voxel grid to it&#39;s default values.">
<polygon fill="white" stroke="black" points="548,-142.5 548,-161.5 635,-161.5 635,-142.5 548,-142.5"/>
<text text-anchor="middle" x="591.5" y="-149.5" font-family="Helvetica,sans-Serif" font-size="10.00">AStar::resetGrid</text>
</a>
</g>
</g>
<!-- Node15&#45;&gt;Node16 -->
<g id="edge16" class="edge">
<title>Node15&#45;&gt;Node16</title>
<path fill="none" stroke="midnightblue" d="M440.66,-152C467.71,-152 506.2,-152 537.4,-152"/>
<polygon fill="midnightblue" stroke="midnightblue" points="537.68,-155.5 547.68,-152 537.68,-148.5 537.68,-155.5"/>
</g>
<!-- Node17 -->
<g id="node17" class="node">
<title>Node17</title>
<g id="a_node17"><a xlink:href="../../de/d52/class_a_star.html#aadbff393646adec069b3264bed4edc9f" target="_top" xlink:title="Initializes the 3D voxel grid.">
<polygon fill="white" stroke="black" points="735.5,-142.5 735.5,-161.5 813.5,-161.5 813.5,-142.5 735.5,-142.5"/>
<text text-anchor="middle" x="774.5" y="-149.5" font-family="Helvetica,sans-Serif" font-size="10.00">AStar::initGrid</text>
</a>
</g>
</g>
<!-- Node16&#45;&gt;Node17 -->
<g id="edge17" class="edge">
<title>Node16&#45;&gt;Node17</title>
<path fill="none" stroke="midnightblue" d="M635.39,-152C662.28,-152 696.99,-152 724.89,-152"/>
<polygon fill="midnightblue" stroke="midnightblue" points="725.22,-155.5 735.22,-152 725.22,-148.5 725.22,-155.5"/>
</g>
<!-- Node18 -->
<g id="node18" class="node">
<title>Node18</title>
<g id="a_node18"><a xlink:href="../../de/d52/class_a_star.html#abc66e4863cf4c15f616098e60469e50b" target="_top" xlink:title="Compute 1D linearized index from 3D&#45;coodinate index.">
<polygon fill="white" stroke="black" points="888,-142.5 888,-161.5 948,-161.5 948,-142.5 888,-142.5"/>
<text text-anchor="middle" x="918" y="-149.5" font-family="Helvetica,sans-Serif" font-size="10.00">AStar::idx</text>
</a>
</g>
</g>
<!-- Node17&#45;&gt;Node18 -->
<g id="edge18" class="edge">
<title>Node17&#45;&gt;Node18</title>
<path fill="none" stroke="midnightblue" d="M813.79,-152C833.59,-152 857.71,-152 877.65,-152"/>
<polygon fill="midnightblue" stroke="midnightblue" points="877.66,-155.5 887.66,-152 877.66,-148.5 877.66,-155.5"/>
</g>
<!-- Node20&#45;&gt;Node11 -->
<g id="edge21" class="edge">
<title>Node20&#45;&gt;Node11</title>
<path fill="none" stroke="midnightblue" d="M482.17,-44.55C491.94,-45.41 501.97,-46.28 511.79,-47.14"/>
<polygon fill="midnightblue" stroke="midnightblue" points="511.67,-50.64 521.94,-48.02 512.28,-43.67 511.67,-50.64"/>
</g>
</g>
</svg>
