<?xml version="1.0" encoding="UTF-8" standalone="no"?>
<!DOCTYPE svg PUBLIC "-//W3C//DTD SVG 1.1//EN"
 "http://www.w3.org/Graphics/SVG/1.1/DTD/svg11.dtd">
<!-- Generated by graphviz version 2.44.0 (0)
 -->
<!-- Title: HillClimbingOptimizer::optimize Pages: 1 -->
<svg width="1007pt" height="413pt"
 viewBox="0.00 0.00 1007.00 413.11" xmlns="http://www.w3.org/2000/svg" xmlns:xlink="http://www.w3.org/1999/xlink">
<g id="graph0" class="graph" transform="scale(1 1) rotate(0) translate(4 409.11)">
<title>HillClimbingOptimizer::optimize</title>
<polygon fill="white" stroke="transparent" points="-4,4 -4,-409.11 1003,-409.11 1003,4 -4,4"/>
<!-- Node1 -->
<g id="node1" class="node">
<title>Node1</title>
<g id="a_node1"><a xlink:title=" ">
<polygon fill="#bfbfbf" stroke="black" points="0,-251 0,-281 111,-281 111,-251 0,-251"/>
<text text-anchor="start" x="8" y="-269" font-family="Helvetica,sans-Serif" font-size="10.00">HillClimbingOptimizer</text>
<text text-anchor="middle" x="55.5" y="-258" font-family="Helvetica,sans-Serif" font-size="10.00">::optimize</text>
</a>
</g>
</g>
<!-- Node2 -->
<g id="node2" class="node">
<title>Node2</title>
<g id="a_node2"><a xlink:href="../../d9/d02/class_optimizer.html#a005ef2bdea59b2a3ac0fa22978add36a" target="_top" xlink:title="Add optimized connections to the touchpoint registry.">
<polygon fill="white" stroke="black" points="329,-354.5 329,-373.5 464,-373.5 464,-354.5 329,-354.5"/>
<text text-anchor="middle" x="396.5" y="-361.5" font-family="Helvetica,sans-Serif" font-size="10.00">Optimizer::addConnections</text>
</a>
</g>
</g>
<!-- Node1&#45;&gt;Node2 -->
<g id="edge1" class="edge">
<title>Node1&#45;&gt;Node2</title>
<path fill="none" stroke="midnightblue" d="M69.76,-281.3C86,-298.87 115.29,-326.93 147,-340 201.46,-362.44 268.12,-367.82 318.68,-367.93"/>
<polygon fill="midnightblue" stroke="midnightblue" points="318.91,-371.43 328.9,-367.88 318.88,-364.43 318.91,-371.43"/>
</g>
<!-- Node3 -->
<g id="node3" class="node">
<title>Node3</title>
<g id="a_node3"><a xlink:href="../../d6/db5/class_scene.html#a64cb0dcdcb57a45fe485fb3489c112c4" target="_top" xlink:title="Return if the 26&#45;neighborhood voxels of a connection path are locked too.">
<polygon fill="white" stroke="black" points="507.5,-354.5 507.5,-373.5 660.5,-373.5 660.5,-354.5 507.5,-354.5"/>
<text text-anchor="middle" x="584" y="-361.5" font-family="Helvetica,sans-Serif" font-size="10.00">Scene::getLockNeighborVoxels</text>
</a>
</g>
</g>
<!-- Node1&#45;&gt;Node3 -->
<g id="edge4" class="edge">
<title>Node1&#45;&gt;Node3</title>
<path fill="none" stroke="midnightblue" d="M64.98,-281.24C78.79,-304.37 108.49,-347.68 147,-367 277.91,-432.66 459.98,-397.36 541.11,-376.2"/>
<polygon fill="midnightblue" stroke="midnightblue" points="542.19,-379.53 550.95,-373.57 540.39,-372.77 542.19,-379.53"/>
</g>
<!-- Node4 -->
<g id="node4" class="node">
<title>Node4</title>
<g id="a_node4"><a xlink:href="../../d6/db5/class_scene.html#a5c26ef724365bd55c471acc673d60674" target="_top" xlink:title="Return the touchpoint registry of the scene.">
<polygon fill="white" stroke="black" points="510,-316.5 510,-335.5 658,-335.5 658,-316.5 510,-316.5"/>
<text text-anchor="middle" x="584" y="-323.5" font-family="Helvetica,sans-Serif" font-size="10.00">Scene::getTouchpointRegistry</text>
</a>
</g>
</g>
<!-- Node1&#45;&gt;Node4 -->
<g id="edge5" class="edge">
<title>Node1&#45;&gt;Node4</title>
<path fill="none" stroke="midnightblue" d="M87.12,-281.06C104.3,-288.76 126.36,-297.45 147,-302 267.53,-328.55 411.09,-331.04 499.64,-329.33"/>
<polygon fill="midnightblue" stroke="midnightblue" points="499.98,-332.82 509.9,-329.11 499.83,-325.82 499.98,-332.82"/>
</g>
<!-- Node5 -->
<g id="node5" class="node">
<title>Node5</title>
<g id="a_node5"><a xlink:href="../../d1/d15/class_hill_climbing_optimizer.html#a9795a338d707c56b13c72901ae29d5a6" target="_top" xlink:title="Run hill climbing algorithm.">
<polygon fill="white" stroke="black" points="162.5,-180 162.5,-210 273.5,-210 273.5,-180 162.5,-180"/>
<text text-anchor="start" x="170.5" y="-198" font-family="Helvetica,sans-Serif" font-size="10.00">HillClimbingOptimizer</text>
<text text-anchor="middle" x="218" y="-187" font-family="Helvetica,sans-Serif" font-size="10.00">::hillClimbing</text>
</a>
</g>
</g>
<!-- Node1&#45;&gt;Node5 -->
<g id="edge6" class="edge">
<title>Node1&#45;&gt;Node5</title>
<path fill="none" stroke="midnightblue" d="M83.79,-250.98C101.53,-241.51 125.31,-229.34 147,-220 152.04,-217.83 157.33,-215.69 162.66,-213.64"/>
<polygon fill="midnightblue" stroke="midnightblue" points="164.11,-216.83 172.23,-210.03 161.64,-210.28 164.11,-216.83"/>
</g>
<!-- Node8 -->
<g id="node8" class="node">
<title>Node8</title>
<g id="a_node8"><a xlink:href="../../de/d52/class_a_star.html#aa76c29f42861c4f6fc7c328e4dbc7d83" target="_top" xlink:title="Mark a path as locked so that it can not be used by another search.">
<polygon fill="white" stroke="black" points="700,-240.5 700,-259.5 789,-259.5 789,-240.5 700,-240.5"/>
<text text-anchor="middle" x="744.5" y="-247.5" font-family="Helvetica,sans-Serif" font-size="10.00">AStar::markPath</text>
</a>
</g>
</g>
<!-- Node1&#45;&gt;Node8 -->
<g id="edge25" class="edge">
<title>Node1&#45;&gt;Node8</title>
<path fill="none" stroke="midnightblue" d="M111.05,-268.1C122.9,-268.48 135.37,-268.81 147,-269 347.27,-272.32 585.21,-259.79 689.74,-253.46"/>
<polygon fill="midnightblue" stroke="midnightblue" points="689.96,-256.95 699.73,-252.85 689.54,-249.96 689.96,-256.95"/>
</g>
<!-- Node15 -->
<g id="node15" class="node">
<title>Node15</title>
<g id="a_node15"><a xlink:href="../../de/d52/class_a_star.html#a0d1fd50821c4cd7bbd8a87bd9fcf5dd3" target="_top" xlink:title="Search a path in the voxelgrid using the A* algorithm with the preset heuristic.">
<polygon fill="white" stroke="black" points="535.5,-0.5 535.5,-19.5 632.5,-19.5 632.5,-0.5 535.5,-0.5"/>
<text text-anchor="middle" x="584" y="-7.5" font-family="Helvetica,sans-Serif" font-size="10.00">AStar::searchPath</text>
</a>
</g>
</g>
<!-- Node1&#45;&gt;Node15 -->
<g id="edge26" class="edge">
<title>Node1&#45;&gt;Node15</title>
<path fill="none" stroke="midnightblue" d="M60.74,-250.61C70.36,-218.67 96.99,-145.12 147,-108 261.16,-23.27 435.28,-9.63 525.03,-8.72"/>
<polygon fill="midnightblue" stroke="midnightblue" points="525.3,-12.21 535.29,-8.66 525.27,-5.21 525.3,-12.21"/>
</g>
<!-- Node16 -->
<g id="node16" class="node">
<title>Node16</title>
<g id="a_node16"><a xlink:href="../../d1/d15/class_hill_climbing_optimizer.html#ae2de69929faffda3aeb400bde2a5a097" target="_top" xlink:title="Run hill climbing algorithm with random restart.">
<polygon fill="white" stroke="black" points="147,-229 147,-259 289,-259 289,-229 147,-229"/>
<text text-anchor="start" x="155" y="-247" font-family="Helvetica,sans-Serif" font-size="10.00">HillClimbingOptimizer</text>
<text text-anchor="middle" x="218" y="-236" font-family="Helvetica,sans-Serif" font-size="10.00">::hillClimbingRandomRestart</text>
</a>
</g>
</g>
<!-- Node1&#45;&gt;Node16 -->
<g id="edge20" class="edge">
<title>Node1&#45;&gt;Node16</title>
<path fill="none" stroke="midnightblue" d="M111.29,-258.49C119.51,-257.36 128.13,-256.18 136.75,-255"/>
<polygon fill="midnightblue" stroke="midnightblue" points="137.42,-258.44 146.85,-253.62 136.47,-251.51 137.42,-258.44"/>
</g>
<!-- Node17 -->
<g id="node17" class="node">
<title>Node17</title>
<g id="a_node17"><a xlink:href="../../de/d52/class_a_star.html#a38a48ab40e77b2f0b53ea27245425ca5" target="_top" xlink:title="Initializes A* grid nodes.">
<polygon fill="white" stroke="black" points="366.5,-76.5 366.5,-95.5 426.5,-95.5 426.5,-76.5 366.5,-76.5"/>
<text text-anchor="middle" x="396.5" y="-83.5" font-family="Helvetica,sans-Serif" font-size="10.00">AStar::init</text>
</a>
</g>
</g>
<!-- Node1&#45;&gt;Node17 -->
<g id="edge22" class="edge">
<title>Node1&#45;&gt;Node17</title>
<path fill="none" stroke="midnightblue" d="M67.03,-250.83C82.34,-229.83 112.68,-192.02 147,-170 213.88,-127.09 305.03,-103.65 356.3,-93.08"/>
<polygon fill="midnightblue" stroke="midnightblue" points="357.19,-96.47 366.3,-91.07 355.81,-89.6 357.19,-96.47"/>
</g>
<!-- Node2&#45;&gt;Node3 -->
<g id="edge2" class="edge">
<title>Node2&#45;&gt;Node3</title>
<path fill="none" stroke="midnightblue" d="M464.21,-364C474.94,-364 486.19,-364 497.29,-364"/>
<polygon fill="midnightblue" stroke="midnightblue" points="497.44,-367.5 507.44,-364 497.44,-360.5 497.44,-367.5"/>
</g>
<!-- Node2&#45;&gt;Node4 -->
<g id="edge3" class="edge">
<title>Node2&#45;&gt;Node4</title>
<path fill="none" stroke="midnightblue" d="M444.31,-354.41C469.34,-349.28 500.34,-342.93 526.68,-337.54"/>
<polygon fill="midnightblue" stroke="midnightblue" points="527.43,-340.96 536.53,-335.52 526.03,-334.1 527.43,-340.96"/>
</g>
<!-- Node6 -->
<g id="node6" class="node">
<title>Node6</title>
<g id="a_node6"><a xlink:href="../../d9/d02/class_optimizer.html#a4f2470e3a7450a12d4daa5df86d50ce8" target="_top" xlink:title="computes the total wire length of a wiring">
<polygon fill="white" stroke="black" points="325,-189 325,-219 468,-219 468,-189 325,-189"/>
<text text-anchor="start" x="333" y="-207" font-family="Helvetica,sans-Serif" font-size="10.00">Optimizer::computeTotalWire</text>
<text text-anchor="middle" x="396.5" y="-196" font-family="Helvetica,sans-Serif" font-size="10.00">Distance</text>
</a>
</g>
</g>
<!-- Node5&#45;&gt;Node6 -->
<g id="edge7" class="edge">
<title>Node5&#45;&gt;Node6</title>
<path fill="none" stroke="midnightblue" d="M273.88,-197.8C286.83,-198.46 300.9,-199.18 314.72,-199.88"/>
<polygon fill="midnightblue" stroke="midnightblue" points="314.56,-203.38 324.73,-200.39 314.92,-196.39 314.56,-203.38"/>
</g>
<!-- Node6&#45;&gt;Node3 -->
<g id="edge10" class="edge">
<title>Node6&#45;&gt;Node3</title>
<path fill="none" stroke="midnightblue" d="M404.45,-219.07C418.73,-248.23 454.22,-312.39 504,-345 507.13,-347.05 510.47,-348.89 513.93,-350.52"/>
<polygon fill="midnightblue" stroke="midnightblue" points="512.75,-353.82 523.32,-354.4 515.42,-347.35 512.75,-353.82"/>
</g>
<!-- Node6&#45;&gt;Node4 -->
<g id="edge12" class="edge">
<title>Node6&#45;&gt;Node4</title>
<path fill="none" stroke="midnightblue" d="M420.62,-219.2C456.1,-242.54 523.63,-286.95 559.4,-310.48"/>
<polygon fill="midnightblue" stroke="midnightblue" points="557.91,-313.68 568.18,-316.26 561.75,-307.84 557.91,-313.68"/>
</g>
<!-- Node7 -->
<g id="node7" class="node">
<title>Node7</title>
<g id="a_node7"><a xlink:href="../../de/d52/class_a_star.html#a29f560899446dc99d6f157e4997650d7" target="_top" xlink:title="Unmark all paths.">
<polygon fill="white" stroke="black" points="531.5,-202.5 531.5,-221.5 636.5,-221.5 636.5,-202.5 531.5,-202.5"/>
<text text-anchor="middle" x="584" y="-209.5" font-family="Helvetica,sans-Serif" font-size="10.00">AStar::clearAllPaths</text>
</a>
</g>
</g>
<!-- Node6&#45;&gt;Node7 -->
<g id="edge8" class="edge">
<title>Node6&#45;&gt;Node7</title>
<path fill="none" stroke="midnightblue" d="M468.16,-207.05C485.54,-207.8 504.02,-208.59 520.96,-209.32"/>
<polygon fill="midnightblue" stroke="midnightblue" points="521.14,-212.84 531.29,-209.77 521.45,-205.84 521.14,-212.84"/>
</g>
<!-- Node6&#45;&gt;Node8 -->
<g id="edge14" class="edge">
<title>Node6&#45;&gt;Node8</title>
<path fill="none" stroke="midnightblue" d="M449.4,-219.03C466.64,-223.52 486.03,-228.03 504,-231 567.39,-241.47 641.21,-246.22 689.96,-248.34"/>
<polygon fill="midnightblue" stroke="midnightblue" points="689.83,-251.84 699.97,-248.76 690.12,-244.85 689.83,-251.84"/>
</g>
<!-- Node9 -->
<g id="node9" class="node">
<title>Node9</title>
<g id="a_node9"><a xlink:href="../../d6/db5/class_scene.html#abe8f9d18527a1fea362460cdc53cb5eb" target="_top" xlink:title="Return the bounds of the mesh in scene coordinates.">
<polygon fill="white" stroke="black" points="504,-153 504,-183 664,-183 664,-153 504,-153"/>
<text text-anchor="start" x="512" y="-171" font-family="Helvetica,sans-Serif" font-size="10.00">Scene::getMeshWorldCoordinate</text>
<text text-anchor="middle" x="584" y="-160" font-family="Helvetica,sans-Serif" font-size="10.00">Bounds</text>
</a>
</g>
</g>
<!-- Node6&#45;&gt;Node9 -->
<g id="edge11" class="edge">
<title>Node6&#45;&gt;Node9</title>
<path fill="none" stroke="midnightblue" d="M468.16,-190.29C477.11,-188.55 486.35,-186.76 495.52,-184.98"/>
<polygon fill="midnightblue" stroke="midnightblue" points="496.27,-188.4 505.42,-183.06 494.94,-181.52 496.27,-188.4"/>
</g>
<!-- Node10 -->
<g id="node10" class="node">
<title>Node10</title>
<g id="a_node10"><a xlink:href="../../d6/db5/class_scene.html#a7e5ee53ea01ef113afaaf4b7c10accf3" target="_top" xlink:title="Return the voxel grid image data.">
<polygon fill="white" stroke="black" points="529.5,-76.5 529.5,-95.5 638.5,-95.5 638.5,-76.5 529.5,-76.5"/>
<text text-anchor="middle" x="584" y="-83.5" font-family="Helvetica,sans-Serif" font-size="10.00">Scene::getVoxelData</text>
</a>
</g>
</g>
<!-- Node6&#45;&gt;Node10 -->
<g id="edge13" class="edge">
<title>Node6&#45;&gt;Node10</title>
<path fill="none" stroke="midnightblue" d="M409.5,-188.69C427.57,-166.7 463.96,-126.48 504,-105 508.89,-102.37 514.15,-100.11 519.55,-98.15"/>
<polygon fill="midnightblue" stroke="midnightblue" points="520.93,-101.38 529.35,-94.95 518.76,-94.72 520.93,-101.38"/>
</g>
<!-- Node11 -->
<g id="node11" class="node">
<title>Node11</title>
<g id="a_node11"><a xlink:href="../../de/d52/class_a_star.html#a67f440fb4e77fad8d273ef848e9703c1" target="_top" xlink:title="Reset grid.">
<polygon fill="white" stroke="black" points="549.5,-114.5 549.5,-133.5 618.5,-133.5 618.5,-114.5 549.5,-114.5"/>
<text text-anchor="middle" x="584" y="-121.5" font-family="Helvetica,sans-Serif" font-size="10.00">AStar::reset</text>
</a>
</g>
</g>
<!-- Node6&#45;&gt;Node11 -->
<g id="edge15" class="edge">
<title>Node6&#45;&gt;Node11</title>
<path fill="none" stroke="midnightblue" d="M419.41,-188.97C440.32,-175.24 473.11,-155.27 504,-143 515.15,-138.57 527.62,-134.99 539.29,-132.17"/>
<polygon fill="midnightblue" stroke="midnightblue" points="540.32,-135.53 549.29,-129.9 538.77,-128.7 540.32,-135.53"/>
</g>
<!-- Node6&#45;&gt;Node15 -->
<g id="edge19" class="edge">
<title>Node6&#45;&gt;Node15</title>
<path fill="none" stroke="midnightblue" d="M407.15,-188.88C424.5,-162.37 463.03,-106.53 504,-67 520.74,-50.85 542.29,-35.6 558.66,-24.95"/>
<polygon fill="midnightblue" stroke="midnightblue" points="560.61,-27.85 567.15,-19.52 556.84,-21.95 560.61,-27.85"/>
</g>
<!-- Node7&#45;&gt;Node8 -->
<g id="edge9" class="edge">
<title>Node7&#45;&gt;Node8</title>
<path fill="none" stroke="midnightblue" d="M625,-221.59C645.91,-226.6 671.71,-232.79 693.89,-238.11"/>
<polygon fill="midnightblue" stroke="midnightblue" points="693.25,-241.55 703.79,-240.48 694.88,-234.74 693.25,-241.55"/>
</g>
<!-- Node12 -->
<g id="node12" class="node">
<title>Node12</title>
<g id="a_node12"><a xlink:href="../../de/d52/class_a_star.html#af8f32d428d15af1c33dc9f77929299ca" target="_top" xlink:title="Resets the 3D voxel grid to it&#39;s default values.">
<polygon fill="white" stroke="black" points="701,-95.5 701,-114.5 788,-114.5 788,-95.5 701,-95.5"/>
<text text-anchor="middle" x="744.5" y="-102.5" font-family="Helvetica,sans-Serif" font-size="10.00">AStar::resetGrid</text>
</a>
</g>
</g>
<!-- Node11&#45;&gt;Node12 -->
<g id="edge16" class="edge">
<title>Node11&#45;&gt;Node12</title>
<path fill="none" stroke="midnightblue" d="M618.61,-119.97C639.61,-117.45 667.08,-114.16 690.91,-111.3"/>
<polygon fill="midnightblue" stroke="midnightblue" points="691.36,-114.78 700.87,-110.11 690.52,-107.83 691.36,-114.78"/>
</g>
<!-- Node13 -->
<g id="node13" class="node">
<title>Node13</title>
<g id="a_node13"><a xlink:href="../../de/d52/class_a_star.html#aadbff393646adec069b3264bed4edc9f" target="_top" xlink:title="Initializes the 3D voxel grid.">
<polygon fill="white" stroke="black" points="825,-76.5 825,-95.5 903,-95.5 903,-76.5 825,-76.5"/>
<text text-anchor="middle" x="864" y="-83.5" font-family="Helvetica,sans-Serif" font-size="10.00">AStar::initGrid</text>
</a>
</g>
</g>
<!-- Node12&#45;&gt;Node13 -->
<g id="edge17" class="edge">
<title>Node12&#45;&gt;Node13</title>
<path fill="none" stroke="midnightblue" d="M788.25,-98.09C796.84,-96.7 805.91,-95.23 814.67,-93.81"/>
<polygon fill="midnightblue" stroke="midnightblue" points="815.44,-97.24 824.76,-92.18 814.33,-90.33 815.44,-97.24"/>
</g>
<!-- Node14 -->
<g id="node14" class="node">
<title>Node14</title>
<g id="a_node14"><a xlink:href="../../de/d52/class_a_star.html#abc66e4863cf4c15f616098e60469e50b" target="_top" xlink:title="Compute 1D linearized index from 3D&#45;coodinate index.">
<polygon fill="white" stroke="black" points="939,-76.5 939,-95.5 999,-95.5 999,-76.5 939,-76.5"/>
<text text-anchor="middle" x="969" y="-83.5" font-family="Helvetica,sans-Serif" font-size="10.00">AStar::idx</text>
</a>
</g>
</g>
<!-- Node13&#45;&gt;Node14 -->
<g id="edge18" class="edge">
<title>Node13&#45;&gt;Node14</title>
<path fill="none" stroke="midnightblue" d="M903.06,-86C911.36,-86 920.16,-86 928.52,-86"/>
<polygon fill="midnightblue" stroke="midnightblue" points="928.79,-89.5 938.79,-86 928.79,-82.5 928.79,-89.5"/>
</g>
<!-- Node16&#45;&gt;Node6 -->
<g id="edge21" class="edge">
<title>Node16&#45;&gt;Node6</title>
<path fill="none" stroke="midnightblue" d="M285.22,-228.99C296.35,-226.47 307.97,-223.84 319.31,-221.27"/>
<polygon fill="midnightblue" stroke="midnightblue" points="320.22,-224.65 329.2,-219.03 318.67,-217.82 320.22,-224.65"/>
</g>
<!-- Node17&#45;&gt;Node10 -->
<g id="edge23" class="edge">
<title>Node17&#45;&gt;Node10</title>
<path fill="none" stroke="midnightblue" d="M426.89,-86C451.58,-86 487.75,-86 519.05,-86"/>
<polygon fill="midnightblue" stroke="midnightblue" points="519.46,-89.5 529.46,-86 519.46,-82.5 519.46,-89.5"/>
</g>
<!-- Node17&#45;&gt;Node13 -->
<g id="edge24" class="edge">
<title>Node17&#45;&gt;Node13</title>
<path fill="none" stroke="midnightblue" d="M426.7,-79.36C447.99,-74.86 477.62,-69.33 504,-67 615.03,-57.17 745.85,-70.3 814.82,-79.14"/>
<polygon fill="midnightblue" stroke="midnightblue" points="814.58,-82.64 824.95,-80.47 815.48,-75.7 814.58,-82.64"/>
</g>
</g>
</svg>
