<?xml version="1.0" encoding="UTF-8" standalone="no"?>
<!DOCTYPE svg PUBLIC "-//W3C//DTD SVG 1.1//EN"
 "http://www.w3.org/Graphics/SVG/1.1/DTD/svg11.dtd">
<!-- Generated by graphviz version 2.44.0 (0)
 -->
<!-- Title: ExportOpenScadTool::writeComponents Pages: 1 -->
<svg width="447pt" height="104pt"
 viewBox="0.00 0.00 447.00 104.00" xmlns="http://www.w3.org/2000/svg" xmlns:xlink="http://www.w3.org/1999/xlink">
<g id="graph0" class="graph" transform="scale(1 1) rotate(0) translate(4 100)">
<title>ExportOpenScadTool::writeComponents</title>
<polygon fill="white" stroke="transparent" points="-4,4 -4,-100 443,-100 443,4 -4,4"/>
<!-- Node1 -->
<g id="node1" class="node">
<title>Node1</title>
<g id="a_node1"><a xlink:title="Export additional 3d&#45;printing build components in the openscad format.">
<polygon fill="#bfbfbf" stroke="black" points="0,-33 0,-63 109,-63 109,-33 0,-33"/>
<text text-anchor="start" x="8" y="-51" font-family="Helvetica,sans-Serif" font-size="10.00">ExportOpenScadTool</text>
<text text-anchor="middle" x="54.5" y="-40" font-family="Helvetica,sans-Serif" font-size="10.00">::writeComponents</text>
</a>
</g>
</g>
<!-- Node2 -->
<g id="node2" class="node">
<title>Node2</title>
<g id="a_node2"><a xlink:href="../../d6/db5/class_scene.html#a9d34f7a775d90ec0edfec76112024eb2" target="_top" xlink:title="Return the component with a given id.">
<polygon fill="white" stroke="black" points="189,-76.5 189,-95.5 303,-95.5 303,-76.5 189,-76.5"/>
<text text-anchor="middle" x="246" y="-83.5" font-family="Helvetica,sans-Serif" font-size="10.00">Scene::getComponent</text>
</a>
</g>
</g>
<!-- Node1&#45;&gt;Node2 -->
<g id="edge1" class="edge">
<title>Node1&#45;&gt;Node2</title>
<path fill="none" stroke="midnightblue" d="M109.41,-59.64C121.14,-62.12 133.48,-64.68 145,-67 157.51,-69.52 170.92,-72.12 183.72,-74.57"/>
<polygon fill="midnightblue" stroke="midnightblue" points="183.35,-78.06 193.83,-76.5 184.66,-71.19 183.35,-78.06"/>
</g>
<!-- Node4 -->
<g id="node4" class="node">
<title>Node4</title>
<g id="a_node4"><a xlink:href="../../d6/db5/class_scene.html#ad44d3d543360e0b06e75a7b116b9eff2" target="_top" xlink:title="Return the number of 3d&#45;printing build / compound components.">
<polygon fill="white" stroke="black" points="164,-38.5 164,-57.5 328,-57.5 328,-38.5 164,-38.5"/>
<text text-anchor="middle" x="246" y="-45.5" font-family="Helvetica,sans-Serif" font-size="10.00">Scene::getNumberOfComponents</text>
</a>
</g>
</g>
<!-- Node1&#45;&gt;Node4 -->
<g id="edge3" class="edge">
<title>Node1&#45;&gt;Node4</title>
<path fill="none" stroke="midnightblue" d="M109.04,-48C123.05,-48 138.55,-48 153.92,-48"/>
<polygon fill="midnightblue" stroke="midnightblue" points="153.98,-51.5 163.98,-48 153.98,-44.5 153.98,-51.5"/>
</g>
<!-- Node5 -->
<g id="node5" class="node">
<title>Node5</title>
<g id="a_node5"><a xlink:href="../../d2/d00/class_component.html#ac9629632c22344ae2d72f2c21bf91756" target="_top" xlink:title="Return the number of subcomponents.">
<polygon fill="white" stroke="black" points="145,-0.5 145,-19.5 347,-19.5 347,-0.5 145,-0.5"/>
<text text-anchor="middle" x="246" y="-7.5" font-family="Helvetica,sans-Serif" font-size="10.00">Component::getNumberOfSubcomponents</text>
</a>
</g>
</g>
<!-- Node1&#45;&gt;Node5 -->
<g id="edge4" class="edge">
<title>Node1&#45;&gt;Node5</title>
<path fill="none" stroke="midnightblue" d="M109.41,-36.36C121.14,-33.88 133.48,-31.32 145,-29 157.51,-26.48 170.92,-23.88 183.72,-21.43"/>
<polygon fill="midnightblue" stroke="midnightblue" points="184.66,-24.81 193.83,-19.5 183.35,-17.94 184.66,-24.81"/>
</g>
<!-- Node3 -->
<g id="node3" class="node">
<title>Node3</title>
<g id="a_node3"><a xlink:href="../../d1/d7c/namespace_utils.html#a606fb1eb5072ca20f56293fa71bd8578" target="_top" xlink:title="Compute 1D linearized index from 3D&#45;coodinate index.">
<polygon fill="white" stroke="black" points="383,-76.5 383,-95.5 439,-95.5 439,-76.5 383,-76.5"/>
<text text-anchor="middle" x="411" y="-83.5" font-family="Helvetica,sans-Serif" font-size="10.00">Utils::idx</text>
</a>
</g>
</g>
<!-- Node2&#45;&gt;Node3 -->
<g id="edge2" class="edge">
<title>Node2&#45;&gt;Node3</title>
<path fill="none" stroke="midnightblue" d="M303.1,-86C325.99,-86 351.87,-86 372.42,-86"/>
<polygon fill="midnightblue" stroke="midnightblue" points="372.64,-89.5 382.64,-86 372.64,-82.5 372.64,-89.5"/>
</g>
</g>
</svg>
