<?xml version="1.0" encoding="UTF-8" standalone="no"?>
<!DOCTYPE svg PUBLIC "-//W3C//DTD SVG 1.1//EN"
 "http://www.w3.org/Graphics/SVG/1.1/DTD/svg11.dtd">
<!-- Generated by graphviz version 2.44.1 (0)
 -->
<!-- Title: ExportOpenScadTool::writeDifference Pages: 1 -->
<svg width="604pt" height="370pt"
 viewBox="0.00 0.00 604.00 370.00" xmlns="http://www.w3.org/2000/svg" xmlns:xlink="http://www.w3.org/1999/xlink">
<g id="graph0" class="graph" transform="scale(1 1) rotate(0) translate(4 366)">
<title>ExportOpenScadTool::writeDifference</title>
<polygon fill="white" stroke="transparent" points="-4,4 -4,-366 600,-366 600,4 -4,4"/>
<!-- Node1 -->
<g id="node1" class="node">
<title>Node1</title>
<g id="a_node1"><a xlink:title="Export the meshdifference between mesh and wiring in the openscad format.">
<polygon fill="#bfbfbf" stroke="black" points="0,-209 0,-239 109,-239 109,-209 0,-209"/>
<text text-anchor="start" x="8" y="-227" font-family="Helvetica,sans-Serif" font-size="10.00">ExportOpenScadTool</text>
<text text-anchor="middle" x="54.5" y="-216" font-family="Helvetica,sans-Serif" font-size="10.00">::writeDifference</text>
</a>
</g>
</g>
<!-- Node2 -->
<g id="node2" class="node">
<title>Node2</title>
<g id="a_node2"><a xlink:href="../../d2/d68/class_export_open_scad_tool.html#a7f29f99b52300deb6af6bdab5153030d" target="_top" xlink:title="Export the mesh in the openscad format.">
<polygon fill="white" stroke="black" points="145,-285 145,-315 254,-315 254,-285 145,-285"/>
<text text-anchor="start" x="153" y="-303" font-family="Helvetica,sans-Serif" font-size="10.00">ExportOpenScadTool</text>
<text text-anchor="middle" x="199.5" y="-292" font-family="Helvetica,sans-Serif" font-size="10.00">::writeMesh</text>
</a>
</g>
</g>
<!-- Node1&#45;&gt;Node2 -->
<g id="edge1" class="edge">
<title>Node1&#45;&gt;Node2</title>
<path fill="none" stroke="midnightblue" d="M83.75,-239.02C105.84,-250.75 136.74,-267.18 160.91,-280.02"/>
<polygon fill="midnightblue" stroke="midnightblue" points="159.34,-283.15 169.82,-284.76 162.63,-276.97 159.34,-283.15"/>
</g>
<!-- Node4 -->
<g id="node4" class="node">
<title>Node4</title>
<g id="a_node4"><a xlink:href="../../d2/d68/class_export_open_scad_tool.html#a2e36901501e307b74705aa84f4227d67" target="_top" xlink:title="Export the wiring in the openscad format.">
<polygon fill="white" stroke="black" points="145,-185 145,-215 254,-215 254,-185 145,-185"/>
<text text-anchor="start" x="153" y="-203" font-family="Helvetica,sans-Serif" font-size="10.00">ExportOpenScadTool</text>
<text text-anchor="middle" x="199.5" y="-192" font-family="Helvetica,sans-Serif" font-size="10.00">::writeWiring</text>
</a>
</g>
</g>
<!-- Node1&#45;&gt;Node4 -->
<g id="edge3" class="edge">
<title>Node1&#45;&gt;Node4</title>
<path fill="none" stroke="midnightblue" d="M109.15,-215C117.47,-213.6 126.13,-212.15 134.65,-210.72"/>
<polygon fill="midnightblue" stroke="midnightblue" points="135.26,-214.16 144.54,-209.06 134.1,-207.26 135.26,-214.16"/>
</g>
<!-- Node3 -->
<g id="node3" class="node">
<title>Node3</title>
<g id="a_node3"><a xlink:href="../../d6/db5/class_scene.html#accf5c16477aba3397a083ded76f2c5f5" target="_top" xlink:title="Return the geometric data (vtkPolyData) of the mesh.">
<polygon fill="white" stroke="black" points="306.5,-342.5 306.5,-361.5 434.5,-361.5 434.5,-342.5 306.5,-342.5"/>
<text text-anchor="middle" x="370.5" y="-349.5" font-family="Helvetica,sans-Serif" font-size="10.00">Scene::getMeshPolyData</text>
</a>
</g>
</g>
<!-- Node2&#45;&gt;Node3 -->
<g id="edge2" class="edge">
<title>Node2&#45;&gt;Node3</title>
<path fill="none" stroke="midnightblue" d="M238.49,-315.14C254.28,-321.14 272.88,-327.82 290,-333 298.2,-335.48 306.95,-337.85 315.55,-340.02"/>
<polygon fill="midnightblue" stroke="midnightblue" points="314.97,-343.48 325.51,-342.47 316.64,-336.68 314.97,-343.48"/>
</g>
<!-- Node4&#45;&gt;Node3 -->
<g id="edge7" class="edge">
<title>Node4&#45;&gt;Node3</title>
<path fill="none" stroke="midnightblue" d="M211.59,-215.27C222.57,-230.51 239.76,-254.66 254,-276 270.63,-300.93 265.63,-315.57 290,-333 292.71,-334.94 295.6,-336.68 298.6,-338.25"/>
<polygon fill="midnightblue" stroke="midnightblue" points="297.35,-341.53 307.9,-342.45 300.22,-335.15 297.35,-341.53"/>
</g>
<!-- Node5 -->
<g id="node5" class="node">
<title>Node5</title>
<g id="a_node5"><a xlink:href="../../d1/d7c/namespace_utils.html#adfd018a6efe0bd54e0e8344ecc1fe208" target="_top" xlink:title="Compute world coordinate equivalent of voxel grid integer index.">
<polygon fill="white" stroke="black" points="327.5,-304.5 327.5,-323.5 413.5,-323.5 413.5,-304.5 327.5,-304.5"/>
<text text-anchor="middle" x="370.5" y="-311.5" font-family="Helvetica,sans-Serif" font-size="10.00">Utils::cellToPos</text>
</a>
</g>
</g>
<!-- Node4&#45;&gt;Node5 -->
<g id="edge4" class="edge">
<title>Node4&#45;&gt;Node5</title>
<path fill="none" stroke="midnightblue" d="M210.39,-215.1C225.13,-236.33 254.9,-274.67 290,-295 298.39,-299.86 307.95,-303.47 317.48,-306.17"/>
<polygon fill="midnightblue" stroke="midnightblue" points="316.78,-309.6 327.33,-308.65 318.49,-302.81 316.78,-309.6"/>
</g>
<!-- Node6 -->
<g id="node6" class="node">
<title>Node6</title>
<g id="a_node6"><a xlink:href="../../d9/d58/class_touchpoint.html#a25425137e60d6d5f21d597e8f6632eed" target="_top" xlink:title="Return the interior wiring connection position (world coordinates)">
<polygon fill="white" stroke="black" points="296,-266.5 296,-285.5 445,-285.5 445,-266.5 296,-266.5"/>
<text text-anchor="middle" x="370.5" y="-273.5" font-family="Helvetica,sans-Serif" font-size="10.00">Touchpoint::getInteriorPosition</text>
</a>
</g>
</g>
<!-- Node4&#45;&gt;Node6 -->
<g id="edge5" class="edge">
<title>Node4&#45;&gt;Node6</title>
<path fill="none" stroke="midnightblue" d="M220.05,-215.17C237.5,-228.03 264.22,-246.07 290,-257 295.83,-259.47 302.04,-261.66 308.33,-263.58"/>
<polygon fill="midnightblue" stroke="midnightblue" points="307.65,-267.03 318.22,-266.4 309.56,-260.3 307.65,-267.03"/>
</g>
<!-- Node7 -->
<g id="node7" class="node">
<title>Node7</title>
<g id="a_node7"><a xlink:href="../../d9/d58/class_touchpoint.html#a61c467b19b4d5940fdeff3070709d2b2" target="_top" xlink:title="Return if touchpoint is sphere shaped.">
<polygon fill="white" stroke="black" points="309.5,-228.5 309.5,-247.5 431.5,-247.5 431.5,-228.5 309.5,-228.5"/>
<text text-anchor="middle" x="370.5" y="-235.5" font-family="Helvetica,sans-Serif" font-size="10.00">Touchpoint::getIsSphere</text>
</a>
</g>
</g>
<!-- Node4&#45;&gt;Node7 -->
<g id="edge6" class="edge">
<title>Node4&#45;&gt;Node7</title>
<path fill="none" stroke="midnightblue" d="M254.44,-212.13C274.52,-216.64 297.26,-221.76 317.19,-226.24"/>
<polygon fill="midnightblue" stroke="midnightblue" points="316.5,-229.67 327.03,-228.45 318.04,-222.84 316.5,-229.67"/>
</g>
<!-- Node8 -->
<g id="node8" class="node">
<title>Node8</title>
<g id="a_node8"><a xlink:href="../../d6/db5/class_scene.html#a9c15511eba6900e36681315c7e5911c5" target="_top" xlink:title="Return the scaled size of the mesh (in mm)">
<polygon fill="white" stroke="black" points="305,-190.5 305,-209.5 436,-209.5 436,-190.5 305,-190.5"/>
<text text-anchor="middle" x="370.5" y="-197.5" font-family="Helvetica,sans-Serif" font-size="10.00">Scene::getMeshScalesize</text>
</a>
</g>
</g>
<!-- Node4&#45;&gt;Node8 -->
<g id="edge8" class="edge">
<title>Node4&#45;&gt;Node8</title>
<path fill="none" stroke="midnightblue" d="M254.44,-200C267.22,-200 281.07,-200 294.6,-200"/>
<polygon fill="midnightblue" stroke="midnightblue" points="294.85,-203.5 304.85,-200 294.85,-196.5 294.85,-203.5"/>
</g>
<!-- Node9 -->
<g id="node9" class="node">
<title>Node9</title>
<g id="a_node9"><a xlink:href="../../d9/d58/class_touchpoint.html#a3c7555f7762d81e5b93e48fa31a7490c" target="_top" xlink:title="Return the geometry of the touchpoint (vtkPolyData)">
<polygon fill="white" stroke="black" points="308.5,-152.5 308.5,-171.5 432.5,-171.5 432.5,-152.5 308.5,-152.5"/>
<text text-anchor="middle" x="370.5" y="-159.5" font-family="Helvetica,sans-Serif" font-size="10.00">Touchpoint::getPolyData</text>
</a>
</g>
</g>
<!-- Node4&#45;&gt;Node9 -->
<g id="edge9" class="edge">
<title>Node4&#45;&gt;Node9</title>
<path fill="none" stroke="midnightblue" d="M254.44,-187.87C274.52,-183.36 297.26,-178.24 317.19,-173.76"/>
<polygon fill="midnightblue" stroke="midnightblue" points="318.04,-177.16 327.03,-171.55 316.5,-170.33 318.04,-177.16"/>
</g>
<!-- Node10 -->
<g id="node10" class="node">
<title>Node10</title>
<g id="a_node10"><a xlink:href="../../d9/d58/class_touchpoint.html#af65e6d637a44d8a800b51186d18364a2" target="_top" xlink:title="Return radius of sphere shaped touchpoint.">
<polygon fill="white" stroke="black" points="298,-114.5 298,-133.5 443,-133.5 443,-114.5 298,-114.5"/>
<text text-anchor="middle" x="370.5" y="-121.5" font-family="Helvetica,sans-Serif" font-size="10.00">Touchpoint::getSphereRadius</text>
</a>
</g>
</g>
<!-- Node4&#45;&gt;Node10 -->
<g id="edge10" class="edge">
<title>Node4&#45;&gt;Node10</title>
<path fill="none" stroke="midnightblue" d="M220.05,-184.83C237.5,-171.97 264.22,-153.93 290,-143 295.83,-140.53 302.04,-138.34 308.33,-136.42"/>
<polygon fill="midnightblue" stroke="midnightblue" points="309.56,-139.7 318.22,-133.6 307.65,-132.97 309.56,-139.7"/>
</g>
<!-- Node11 -->
<g id="node11" class="node">
<title>Node11</title>
<g id="a_node11"><a xlink:href="../../d6/db5/class_scene.html#a5c26ef724365bd55c471acc673d60674" target="_top" xlink:title="Return the touchpoint registry of the scene.">
<polygon fill="white" stroke="black" points="296.5,-76.5 296.5,-95.5 444.5,-95.5 444.5,-76.5 296.5,-76.5"/>
<text text-anchor="middle" x="370.5" y="-83.5" font-family="Helvetica,sans-Serif" font-size="10.00">Scene::getTouchpointRegistry</text>
</a>
</g>
</g>
<!-- Node4&#45;&gt;Node11 -->
<g id="edge11" class="edge">
<title>Node4&#45;&gt;Node11</title>
<path fill="none" stroke="midnightblue" d="M210.39,-184.9C225.13,-163.67 254.9,-125.33 290,-105 293.9,-102.74 298.07,-100.75 302.36,-98.99"/>
<polygon fill="midnightblue" stroke="midnightblue" points="303.72,-102.22 311.92,-95.51 301.33,-95.64 303.72,-102.22"/>
</g>
<!-- Node12 -->
<g id="node12" class="node">
<title>Node12</title>
<g id="a_node12"><a xlink:href="../../d6/db5/class_scene.html#a7e5ee53ea01ef113afaaf4b7c10accf3" target="_top" xlink:title="Return the voxel grid image data.">
<polygon fill="white" stroke="black" points="487,-19.5 487,-38.5 596,-38.5 596,-19.5 487,-19.5"/>
<text text-anchor="middle" x="541.5" y="-26.5" font-family="Helvetica,sans-Serif" font-size="10.00">Scene::getVoxelData</text>
</a>
</g>
</g>
<!-- Node4&#45;&gt;Node12 -->
<g id="edge12" class="edge">
<title>Node4&#45;&gt;Node12</title>
<path fill="none" stroke="midnightblue" d="M206.02,-184.58C217.08,-156.11 244.85,-95.59 290,-67 320.14,-47.91 412.67,-37.76 476.41,-32.88"/>
<polygon fill="midnightblue" stroke="midnightblue" points="477.06,-36.34 486.78,-32.11 476.55,-29.36 477.06,-36.34"/>
</g>
<!-- Node13 -->
<g id="node13" class="node">
<title>Node13</title>
<g id="a_node13"><a xlink:href="../../d6/db5/class_scene.html#af78767d0af348d25ddf80ef8cfe1f67a" target="_top" xlink:title="Return dimensions of the voxel data.">
<polygon fill="white" stroke="black" points="290,-0.5 290,-19.5 451,-19.5 451,-0.5 290,-0.5"/>
<text text-anchor="middle" x="370.5" y="-7.5" font-family="Helvetica,sans-Serif" font-size="10.00">Scene::getVoxelDataDimensions</text>
</a>
</g>
</g>
<!-- Node4&#45;&gt;Node13 -->
<g id="edge13" class="edge">
<title>Node4&#45;&gt;Node13</title>
<path fill="none" stroke="midnightblue" d="M204.47,-184.61C213.71,-151.88 239.79,-75 290,-34 295.06,-29.87 300.81,-26.45 306.86,-23.62"/>
<polygon fill="midnightblue" stroke="midnightblue" points="308.63,-26.68 316.55,-19.64 305.97,-20.2 308.63,-26.68"/>
</g>
<!-- Node13&#45;&gt;Node12 -->
<g id="edge14" class="edge">
<title>Node13&#45;&gt;Node12</title>
<path fill="none" stroke="midnightblue" d="M451.05,-18.94C459.69,-19.92 468.41,-20.89 476.82,-21.84"/>
<polygon fill="midnightblue" stroke="midnightblue" points="476.59,-25.34 486.92,-22.98 477.38,-18.38 476.59,-25.34"/>
</g>
</g>
</svg>
