<?xml version="1.0" encoding="UTF-8" standalone="no"?>
<!DOCTYPE svg PUBLIC "-//W3C//DTD SVG 1.1//EN"
 "http://www.w3.org/Graphics/SVG/1.1/DTD/svg11.dtd">
<!-- Generated by graphviz version 2.44.1 (0)
 -->
<!-- Title: T_MESH::graphEdge::makeUnlinked Pages: 1 -->
<svg width="489pt" height="97pt"
 viewBox="0.00 0.00 489.00 96.50" xmlns="http://www.w3.org/2000/svg" xmlns:xlink="http://www.w3.org/1999/xlink">
<g id="graph0" class="graph" transform="scale(1 1) rotate(0) translate(4 92.5)">
<title>T_MESH::graphEdge::makeUnlinked</title>
<polygon fill="white" stroke="transparent" points="-4,4 -4,-92.5 485,-92.5 485,4 -4,4"/>
<!-- Node1 -->
<g id="node1" class="node">
<title>Node1</title>
<g id="a_node1"><a xlink:title="Makes this edge as &#39;unlinked&#39; from the graph. O(1).">
<polygon fill="#bfbfbf" stroke="black" points="365,-36 365,-66 481,-66 481,-36 365,-36"/>
<text text-anchor="start" x="373" y="-54" font-family="Helvetica,sans-Serif" font-size="10.00">T_MESH::graphEdge::</text>
<text text-anchor="middle" x="423" y="-43" font-family="Helvetica,sans-Serif" font-size="10.00">makeUnlinked</text>
</a>
</g>
</g>
<!-- Node2 -->
<g id="node2" class="node">
<title>Node2</title>
<g id="a_node2"><a xlink:href="../../d7/dd6/class_t___m_e_s_h_1_1graph_edge.html#aa8b05153be3116a1dff9a3daad7741be" target="_top" xlink:title="Edge collapse. O(degree of neighbors).">
<polygon fill="white" stroke="black" points="199.5,-58 199.5,-88 315.5,-88 315.5,-58 199.5,-58"/>
<text text-anchor="start" x="207.5" y="-76" font-family="Helvetica,sans-Serif" font-size="10.00">T_MESH::graphEdge::</text>
<text text-anchor="middle" x="257.5" y="-65" font-family="Helvetica,sans-Serif" font-size="10.00">collapse</text>
</a>
</g>
</g>
<!-- Node1&#45;&gt;Node2 -->
<g id="edge1" class="edge">
<title>Node1&#45;&gt;Node2</title>
<path fill="none" stroke="midnightblue" d="M354.58,-60.07C341.65,-61.81 328.22,-63.62 315.65,-65.31"/>
<polygon fill="midnightblue" stroke="midnightblue" points="355.37,-63.5 364.82,-58.69 354.44,-56.56 355.37,-63.5"/>
</g>
<!-- Node3 -->
<g id="node3" class="node">
<title>Node3</title>
<g id="a_node3"><a xlink:href="../../dd/d17/class_t___m_e_s_h_1_1_graph.html#a9e18d0427961140b357931a19fd3c482" target="_top" xlink:title="Unlinks the edge and updates the graph connectivity accordingly.">
<polygon fill="white" stroke="black" points="186,-19.5 186,-38.5 329,-38.5 329,-19.5 186,-19.5"/>
<text text-anchor="middle" x="257.5" y="-26.5" font-family="Helvetica,sans-Serif" font-size="10.00">T_MESH::Graph::unlinkEdge</text>
</a>
</g>
</g>
<!-- Node1&#45;&gt;Node3 -->
<g id="edge2" class="edge">
<title>Node1&#45;&gt;Node3</title>
<path fill="none" stroke="midnightblue" d="M354.68,-41.94C346.26,-40.81 337.64,-39.65 329.17,-38.51"/>
<polygon fill="midnightblue" stroke="midnightblue" points="354.44,-45.44 364.82,-43.31 355.37,-38.5 354.44,-45.44"/>
</g>
<!-- Node4 -->
<g id="node4" class="node">
<title>Node4</title>
<g id="a_node4"><a xlink:href="../../dd/d17/class_t___m_e_s_h_1_1_graph.html#ad4bbbea6cea06e9f6593e4787d708416" target="_top" xlink:title="Removes and deletes the edge. Updates the graph connectivity accordingly.">
<polygon fill="white" stroke="black" points="0,-38.5 0,-57.5 150,-57.5 150,-38.5 0,-38.5"/>
<text text-anchor="middle" x="75" y="-45.5" font-family="Helvetica,sans-Serif" font-size="10.00">T_MESH::Graph::destroyEdge</text>
</a>
</g>
</g>
<!-- Node3&#45;&gt;Node4 -->
<g id="edge3" class="edge">
<title>Node3&#45;&gt;Node4</title>
<path fill="none" stroke="midnightblue" d="M175.92,-37.48C167.32,-38.39 158.6,-39.3 150.09,-40.2"/>
<polygon fill="midnightblue" stroke="midnightblue" points="176.36,-40.96 185.94,-36.43 175.63,-33.99 176.36,-40.96"/>
</g>
<!-- Node5 -->
<g id="node5" class="node">
<title>Node5</title>
<g id="a_node5"><a xlink:href="../../dd/d17/class_t___m_e_s_h_1_1_graph.html#a75a3493676e0dd72975056013d595efe" target="_top" xlink:title="Removes a node and updates the graph connectivity accordingly.">
<polygon fill="white" stroke="black" points="3,-0.5 3,-19.5 147,-19.5 147,-0.5 3,-0.5"/>
<text text-anchor="middle" x="75" y="-7.5" font-family="Helvetica,sans-Serif" font-size="10.00">T_MESH::Graph::unlinkNode</text>
</a>
</g>
</g>
<!-- Node3&#45;&gt;Node5 -->
<g id="edge4" class="edge">
<title>Node3&#45;&gt;Node5</title>
<path fill="none" stroke="midnightblue" d="M175.98,-20.52C166.36,-19.51 156.58,-18.48 147.11,-17.48"/>
<polygon fill="midnightblue" stroke="midnightblue" points="175.63,-24.01 185.94,-21.57 176.36,-17.04 175.63,-24.01"/>
</g>
</g>
</svg>
