<?xml version="1.0" encoding="UTF-8" standalone="no"?>
<!DOCTYPE svg PUBLIC "-//W3C//DTD SVG 1.1//EN"
 "http://www.w3.org/Graphics/SVG/1.1/DTD/svg11.dtd">
<!-- Generated by graphviz version 2.44.1 (0)
 -->
<!-- Title: tmesh.h Pages: 1 -->
<svg width="1065pt" height="196pt"
 viewBox="0.00 0.00 1065.00 196.00" xmlns="http://www.w3.org/2000/svg" xmlns:xlink="http://www.w3.org/1999/xlink">
<g id="graph0" class="graph" transform="scale(1 1) rotate(0) translate(4 192)">
<title>tmesh.h</title>
<polygon fill="white" stroke="transparent" points="-4,4 -4,-192 1061,-192 1061,4 -4,4"/>
<!-- Node1 -->
<g id="node1" class="node">
<title>Node1</title>
<g id="a_node1"><a xlink:title=" ">
<polygon fill="#bfbfbf" stroke="black" points="528.5,-168.5 528.5,-187.5 580.5,-187.5 580.5,-168.5 528.5,-168.5"/>
<text text-anchor="middle" x="554.5" y="-175.5" font-family="Helvetica,sans-Serif" font-size="10.00">tmesh.h</text>
</a>
</g>
</g>
<!-- Node2 -->
<g id="node2" class="node">
<title>Node2</title>
<g id="a_node2"><a xlink:href="../../d9/d53/mainwindow_8h.html" target="_top" xlink:title="Qt MainWindow of the application.">
<polygon fill="white" stroke="black" points="871.5,-56.5 871.5,-75.5 949.5,-75.5 949.5,-56.5 871.5,-56.5"/>
<text text-anchor="middle" x="910.5" y="-63.5" font-family="Helvetica,sans-Serif" font-size="10.00">mainwindow.h</text>
</a>
</g>
</g>
<!-- Node1&#45;&gt;Node2 -->
<g id="edge1" class="edge">
<title>Node1&#45;&gt;Node2</title>
<path fill="none" stroke="midnightblue" d="M590.67,-175.02C676.59,-169.97 887.33,-155.3 908.5,-132 922.47,-116.63 917.39,-89.77 913.43,-75.88"/>
<polygon fill="midnightblue" stroke="midnightblue" points="590.38,-171.54 580.6,-175.61 590.78,-178.52 590.38,-171.54"/>
</g>
<!-- Node5 -->
<g id="node5" class="node">
<title>Node5</title>
<g id="a_node5"><a xlink:href="../../d3/d1d/march_intersections_8h.html" target="_top" xlink:title=" ">
<polygon fill="white" stroke="black" points="123.5,-112.5 123.5,-131.5 231.5,-131.5 231.5,-112.5 123.5,-112.5"/>
<text text-anchor="middle" x="177.5" y="-119.5" font-family="Helvetica,sans-Serif" font-size="10.00">marchIntersections.h</text>
</a>
</g>
</g>
<!-- Node1&#45;&gt;Node5 -->
<g id="edge4" class="edge">
<title>Node1&#45;&gt;Node5</title>
<path fill="none" stroke="midnightblue" d="M518.27,-171.81C451.7,-162.28 309.59,-141.92 231.56,-130.74"/>
<polygon fill="midnightblue" stroke="midnightblue" points="517.89,-175.29 528.29,-173.25 518.89,-168.36 517.89,-175.29"/>
</g>
<!-- Node7 -->
<g id="node7" class="node">
<title>Node7</title>
<g id="a_node7"><a xlink:href="../../d5/dc3/tin_8h.html" target="_top" xlink:title=" ">
<polygon fill="white" stroke="black" points="367,-112.5 367,-131.5 402,-131.5 402,-112.5 367,-112.5"/>
<text text-anchor="middle" x="384.5" y="-119.5" font-family="Helvetica,sans-Serif" font-size="10.00">tin.h</text>
</a>
</g>
</g>
<!-- Node1&#45;&gt;Node7 -->
<g id="edge6" class="edge">
<title>Node1&#45;&gt;Node7</title>
<path fill="none" stroke="midnightblue" d="M518.26,-167.19C482.52,-156.49 429.65,-139.63 402.19,-130.13"/>
<polygon fill="midnightblue" stroke="midnightblue" points="517.71,-170.68 528.3,-170.16 519.7,-163.96 517.71,-170.68"/>
</g>
<!-- Node12 -->
<g id="node12" class="node">
<title>Node12</title>
<g id="a_node12"><a xlink:href="../../dd/d6a/triangle_8h.html" target="_top" xlink:title=" ">
<polygon fill="white" stroke="black" points="425.5,-112.5 425.5,-131.5 481.5,-131.5 481.5,-112.5 425.5,-112.5"/>
<text text-anchor="middle" x="453.5" y="-119.5" font-family="Helvetica,sans-Serif" font-size="10.00">triangle.h</text>
</a>
</g>
</g>
<!-- Node1&#45;&gt;Node12 -->
<g id="edge12" class="edge">
<title>Node1&#45;&gt;Node12</title>
<path fill="none" stroke="midnightblue" d="M524.24,-163.96C504,-153.88 478.73,-140.23 464.35,-131.52"/>
<polygon fill="midnightblue" stroke="midnightblue" points="522.89,-167.2 533.41,-168.44 525.96,-160.91 522.89,-167.2"/>
</g>
<!-- Node16 -->
<g id="node16" class="node">
<title>Node16</title>
<g id="a_node16"><a xlink:href="../../df/d36/check_and_repair_8cpp.html" target="_top" xlink:title=" ">
<polygon fill="white" stroke="black" points="628,-112.5 628,-131.5 735,-131.5 735,-112.5 628,-112.5"/>
<text text-anchor="middle" x="681.5" y="-119.5" font-family="Helvetica,sans-Serif" font-size="10.00">checkAndRepair.cpp</text>
</a>
</g>
</g>
<!-- Node1&#45;&gt;Node16 -->
<g id="edge17" class="edge">
<title>Node1&#45;&gt;Node16</title>
<path fill="none" stroke="midnightblue" d="M583.89,-164.5C607.7,-154.38 640.61,-140.39 661.47,-131.52"/>
<polygon fill="midnightblue" stroke="midnightblue" points="582.46,-161.31 574.62,-168.44 585.2,-167.75 582.46,-161.31"/>
</g>
<!-- Node17 -->
<g id="node17" class="node">
<title>Node17</title>
<g id="a_node17"><a xlink:href="../../d1/d69/subdivision_8cpp.html" target="_top" xlink:title=" ">
<polygon fill="white" stroke="black" points="753.5,-112.5 753.5,-131.5 837.5,-131.5 837.5,-112.5 753.5,-112.5"/>
<text text-anchor="middle" x="795.5" y="-119.5" font-family="Helvetica,sans-Serif" font-size="10.00">subdivision.cpp</text>
</a>
</g>
</g>
<!-- Node1&#45;&gt;Node17 -->
<g id="edge18" class="edge">
<title>Node1&#45;&gt;Node17</title>
<path fill="none" stroke="midnightblue" d="M590.64,-168.9C635.5,-158.85 711.69,-141.78 757.43,-131.53"/>
<polygon fill="midnightblue" stroke="midnightblue" points="589.74,-165.52 580.75,-171.12 591.27,-172.35 589.74,-165.52"/>
</g>
<!-- Node18 -->
<g id="node18" class="node">
<title>Node18</title>
<g id="a_node18"><a xlink:href="../../d5/d5a/io_8cpp.html" target="_top" xlink:title=" ">
<polygon fill="white" stroke="black" points="856,-112.5 856,-131.5 899,-131.5 899,-112.5 856,-112.5"/>
<text text-anchor="middle" x="877.5" y="-119.5" font-family="Helvetica,sans-Serif" font-size="10.00">io.cpp</text>
</a>
</g>
</g>
<!-- Node1&#45;&gt;Node18 -->
<g id="edge19" class="edge">
<title>Node1&#45;&gt;Node18</title>
<path fill="none" stroke="midnightblue" d="M590.94,-172.93C646.48,-166.37 755.46,-152.14 846.5,-132 849.56,-131.32 852.77,-130.51 855.91,-129.66"/>
<polygon fill="midnightblue" stroke="midnightblue" points="590.41,-169.46 580.89,-174.1 591.22,-176.42 590.41,-169.46"/>
</g>
<!-- Node19 -->
<g id="node19" class="node">
<title>Node19</title>
<g id="a_node19"><a xlink:href="../../db/d45/exportopenscadtool_8h.html" target="_top" xlink:title="Tool for exporting a wired mesh to the openscad format.">
<polygon fill="white" stroke="black" points="499.5,-112.5 499.5,-131.5 609.5,-131.5 609.5,-112.5 499.5,-112.5"/>
<text text-anchor="middle" x="554.5" y="-119.5" font-family="Helvetica,sans-Serif" font-size="10.00">exportopenscadtool.h</text>
</a>
</g>
</g>
<!-- Node1&#45;&gt;Node19 -->
<g id="edge20" class="edge">
<title>Node1&#45;&gt;Node19</title>
<path fill="none" stroke="midnightblue" d="M554.5,-157.8C554.5,-148.91 554.5,-138.78 554.5,-131.75"/>
<polygon fill="midnightblue" stroke="midnightblue" points="551,-158.08 554.5,-168.08 558,-158.08 551,-158.08"/>
</g>
<!-- Node21 -->
<g id="node21" class="node">
<title>Node21</title>
<g id="a_node21"><a xlink:href="../../db/dcb/exportstltool_8h.html" target="_top" xlink:title="Tool for exporting a wired mesh to the stl file format.">
<polygon fill="white" stroke="black" points="955.5,-112.5 955.5,-131.5 1033.5,-131.5 1033.5,-112.5 955.5,-112.5"/>
<text text-anchor="middle" x="994.5" y="-119.5" font-family="Helvetica,sans-Serif" font-size="10.00">exportstltool.h</text>
</a>
</g>
</g>
<!-- Node1&#45;&gt;Node21 -->
<g id="edge23" class="edge">
<title>Node1&#45;&gt;Node21</title>
<path fill="none" stroke="midnightblue" d="M591.14,-173.39C659.94,-166.46 813.11,-150.35 941.5,-132 946.03,-131.35 950.76,-130.62 955.46,-129.87"/>
<polygon fill="midnightblue" stroke="midnightblue" points="590.44,-169.94 580.84,-174.42 591.14,-176.9 590.44,-169.94"/>
</g>
<!-- Node3 -->
<g id="node3" class="node">
<title>Node3</title>
<g id="a_node3"><a xlink:href="../../d8/dd9/mainwindow_8cpp.html" target="_top" xlink:title=" ">
<polygon fill="white" stroke="black" points="911,-0.5 911,-19.5 1000,-19.5 1000,-0.5 911,-0.5"/>
<text text-anchor="middle" x="955.5" y="-7.5" font-family="Helvetica,sans-Serif" font-size="10.00">mainwindow.cpp</text>
</a>
</g>
</g>
<!-- Node2&#45;&gt;Node3 -->
<g id="edge2" class="edge">
<title>Node2&#45;&gt;Node3</title>
<path fill="none" stroke="midnightblue" d="M924.55,-48.14C932.39,-38.74 941.83,-27.4 948.21,-19.75"/>
<polygon fill="midnightblue" stroke="midnightblue" points="921.64,-46.16 917.93,-56.08 927.02,-50.64 921.64,-46.16"/>
</g>
<!-- Node4 -->
<g id="node4" class="node">
<title>Node4</title>
<g id="a_node4"><a xlink:href="../../df/d0a/main_8cpp.html" target="_top" xlink:title=" ">
<polygon fill="white" stroke="black" points="836.5,-0.5 836.5,-19.5 892.5,-19.5 892.5,-0.5 836.5,-0.5"/>
<text text-anchor="middle" x="864.5" y="-7.5" font-family="Helvetica,sans-Serif" font-size="10.00">main.cpp</text>
</a>
</g>
</g>
<!-- Node2&#45;&gt;Node4 -->
<g id="edge3" class="edge">
<title>Node2&#45;&gt;Node4</title>
<path fill="none" stroke="midnightblue" d="M896.39,-48.43C888.32,-38.97 878.54,-27.48 871.95,-19.75"/>
<polygon fill="midnightblue" stroke="midnightblue" points="893.75,-50.74 902.9,-56.08 899.08,-46.2 893.75,-50.74"/>
</g>
<!-- Node6 -->
<g id="node6" class="node">
<title>Node6</title>
<g id="a_node6"><a xlink:href="../../d0/d89/march_intersections_8cpp.html" target="_top" xlink:title=" ">
<polygon fill="white" stroke="black" points="0,-56.5 0,-75.5 119,-75.5 119,-56.5 0,-56.5"/>
<text text-anchor="middle" x="59.5" y="-63.5" font-family="Helvetica,sans-Serif" font-size="10.00">marchIntersections.cpp</text>
</a>
</g>
</g>
<!-- Node5&#45;&gt;Node6 -->
<g id="edge5" class="edge">
<title>Node5&#45;&gt;Node6</title>
<path fill="none" stroke="midnightblue" d="M149.6,-108.23C127.53,-98.13 97.32,-84.31 78.11,-75.52"/>
<polygon fill="midnightblue" stroke="midnightblue" points="148.25,-111.46 158.8,-112.44 151.17,-105.1 148.25,-111.46"/>
</g>
<!-- Node7&#45;&gt;Node1 -->
<g id="edge9" class="edge">
<title>Node7&#45;&gt;Node1</title>
<path fill="none" stroke="midnightblue" d="M411.93,-130.2C445.62,-140.1 501.71,-157.88 532.65,-168.44"/>
<polygon fill="midnightblue" stroke="midnightblue" points="412.83,-126.81 402.25,-127.4 410.88,-133.54 412.83,-126.81"/>
</g>
<!-- Node8 -->
<g id="node8" class="node">
<title>Node8</title>
<g id="a_node8"><a xlink:href="../../df/dc9/detect_intersections_8h.html" target="_top" xlink:title=" ">
<polygon fill="white" stroke="black" points="137.5,-56.5 137.5,-75.5 245.5,-75.5 245.5,-56.5 137.5,-56.5"/>
<text text-anchor="middle" x="191.5" y="-63.5" font-family="Helvetica,sans-Serif" font-size="10.00">detectIntersections.h</text>
</a>
</g>
</g>
<!-- Node7&#45;&gt;Node8 -->
<g id="edge7" class="edge">
<title>Node7&#45;&gt;Node8</title>
<path fill="none" stroke="midnightblue" d="M356.94,-113.29C321.27,-103.31 259.29,-85.97 222.16,-75.58"/>
<polygon fill="midnightblue" stroke="midnightblue" points="356.12,-116.69 366.69,-116.02 358,-109.95 356.12,-116.69"/>
</g>
<!-- Node10 -->
<g id="node10" class="node">
<title>Node10</title>
<g id="a_node10"><a xlink:href="../../d0/db9/hole_filling_8cpp.html" target="_top" xlink:title=" ">
<polygon fill="white" stroke="black" points="264,-56.5 264,-75.5 343,-75.5 343,-56.5 264,-56.5"/>
<text text-anchor="middle" x="303.5" y="-63.5" font-family="Helvetica,sans-Serif" font-size="10.00">holeFilling.cpp</text>
</a>
</g>
</g>
<!-- Node7&#45;&gt;Node10 -->
<g id="edge10" class="edge">
<title>Node7&#45;&gt;Node10</title>
<path fill="none" stroke="midnightblue" d="M362.93,-106.62C348.14,-96.76 328.99,-83.99 316.48,-75.65"/>
<polygon fill="midnightblue" stroke="midnightblue" points="361.22,-109.69 371.49,-112.32 365.11,-103.86 361.22,-109.69"/>
</g>
<!-- Node11 -->
<g id="node11" class="node">
<title>Node11</title>
<g id="a_node11"><a xlink:href="../../dd/da9/tin_8cpp.html" target="_top" xlink:title=" ">
<polygon fill="white" stroke="black" points="361.5,-56.5 361.5,-75.5 407.5,-75.5 407.5,-56.5 361.5,-56.5"/>
<text text-anchor="middle" x="384.5" y="-63.5" font-family="Helvetica,sans-Serif" font-size="10.00">tin.cpp</text>
</a>
</g>
</g>
<!-- Node7&#45;&gt;Node11 -->
<g id="edge11" class="edge">
<title>Node7&#45;&gt;Node11</title>
<path fill="none" stroke="midnightblue" d="M384.5,-101.8C384.5,-92.91 384.5,-82.78 384.5,-75.75"/>
<polygon fill="midnightblue" stroke="midnightblue" points="381,-102.08 384.5,-112.08 388,-102.08 381,-102.08"/>
</g>
<!-- Node9 -->
<g id="node9" class="node">
<title>Node9</title>
<g id="a_node9"><a xlink:href="../../d8/dd7/detect_intersections_8cpp.html" target="_top" xlink:title=" ">
<polygon fill="white" stroke="black" points="132,-0.5 132,-19.5 251,-19.5 251,-0.5 132,-0.5"/>
<text text-anchor="middle" x="191.5" y="-7.5" font-family="Helvetica,sans-Serif" font-size="10.00">detectIntersections.cpp</text>
</a>
</g>
</g>
<!-- Node8&#45;&gt;Node9 -->
<g id="edge8" class="edge">
<title>Node8&#45;&gt;Node9</title>
<path fill="none" stroke="midnightblue" d="M191.5,-45.8C191.5,-36.91 191.5,-26.78 191.5,-19.75"/>
<polygon fill="midnightblue" stroke="midnightblue" points="188,-46.08 191.5,-56.08 195,-46.08 188,-46.08"/>
</g>
<!-- Node12&#45;&gt;Node1 -->
<g id="edge13" class="edge">
<title>Node12&#45;&gt;Node1</title>
<path fill="none" stroke="midnightblue" d="M483.91,-136.11C504,-146.12 529,-159.62 543.39,-168.32"/>
<polygon fill="midnightblue" stroke="midnightblue" points="485.32,-132.91 474.8,-131.65 482.24,-139.19 485.32,-132.91"/>
</g>
<!-- Node13 -->
<g id="node13" class="node">
<title>Node13</title>
<g id="a_node13"><a xlink:href="../../d3/df4/edge_8cpp.html" target="_top" xlink:title=" ">
<polygon fill="white" stroke="black" points="425.5,-56.5 425.5,-75.5 481.5,-75.5 481.5,-56.5 425.5,-56.5"/>
<text text-anchor="middle" x="453.5" y="-63.5" font-family="Helvetica,sans-Serif" font-size="10.00">edge.cpp</text>
</a>
</g>
</g>
<!-- Node12&#45;&gt;Node13 -->
<g id="edge14" class="edge">
<title>Node12&#45;&gt;Node13</title>
<path fill="none" stroke="midnightblue" d="M453.5,-101.8C453.5,-92.91 453.5,-82.78 453.5,-75.75"/>
<polygon fill="midnightblue" stroke="midnightblue" points="450,-102.08 453.5,-112.08 457,-102.08 450,-102.08"/>
</g>
<!-- Node14 -->
<g id="node14" class="node">
<title>Node14</title>
<g id="a_node14"><a xlink:href="../../d6/d4c/triangle_8cpp.html" target="_top" xlink:title=" ">
<polygon fill="white" stroke="black" points="500,-56.5 500,-75.5 567,-75.5 567,-56.5 500,-56.5"/>
<text text-anchor="middle" x="533.5" y="-63.5" font-family="Helvetica,sans-Serif" font-size="10.00">triangle.cpp</text>
</a>
</g>
</g>
<!-- Node12&#45;&gt;Node14 -->
<g id="edge15" class="edge">
<title>Node12&#45;&gt;Node14</title>
<path fill="none" stroke="midnightblue" d="M474.8,-106.62C489.42,-96.76 508.33,-83.99 520.68,-75.65"/>
<polygon fill="midnightblue" stroke="midnightblue" points="472.68,-103.83 466.35,-112.32 476.6,-109.63 472.68,-103.83"/>
</g>
<!-- Node15 -->
<g id="node15" class="node">
<title>Node15</title>
<g id="a_node15"><a xlink:href="../../d0/d3f/vertex_8cpp.html" target="_top" xlink:title=" ">
<polygon fill="white" stroke="black" points="585.5,-56.5 585.5,-75.5 647.5,-75.5 647.5,-56.5 585.5,-56.5"/>
<text text-anchor="middle" x="616.5" y="-63.5" font-family="Helvetica,sans-Serif" font-size="10.00">vertex.cpp</text>
</a>
</g>
</g>
<!-- Node12&#45;&gt;Node15 -->
<g id="edge16" class="edge">
<title>Node12&#45;&gt;Node15</title>
<path fill="none" stroke="midnightblue" d="M489.2,-109.17C519.9,-99 563.42,-84.59 590.79,-75.52"/>
<polygon fill="midnightblue" stroke="midnightblue" points="487.72,-105.98 479.33,-112.44 489.92,-112.62 487.72,-105.98"/>
</g>
<!-- Node19&#45;&gt;Node2 -->
<g id="edge21" class="edge">
<title>Node19&#45;&gt;Node2</title>
<path fill="none" stroke="midnightblue" d="M619.82,-111.09C693.45,-99.92 810.75,-82.13 871.38,-72.93"/>
<polygon fill="midnightblue" stroke="midnightblue" points="619.1,-107.66 609.73,-112.62 620.15,-114.58 619.1,-107.66"/>
</g>
<!-- Node20 -->
<g id="node20" class="node">
<title>Node20</title>
<g id="a_node20"><a xlink:href="../../d8/d4e/exportopenscadtool_8cpp.html" target="_top" xlink:title=" ">
<polygon fill="white" stroke="black" points="665.5,-56.5 665.5,-75.5 785.5,-75.5 785.5,-56.5 665.5,-56.5"/>
<text text-anchor="middle" x="725.5" y="-63.5" font-family="Helvetica,sans-Serif" font-size="10.00">exportopenscadtool.cpp</text>
</a>
</g>
</g>
<!-- Node19&#45;&gt;Node20 -->
<g id="edge22" class="edge">
<title>Node19&#45;&gt;Node20</title>
<path fill="none" stroke="midnightblue" d="M591.54,-109.3C623.76,-99.13 669.69,-84.62 698.53,-75.52"/>
<polygon fill="midnightblue" stroke="midnightblue" points="590.08,-106.09 581.6,-112.44 592.19,-112.77 590.08,-106.09"/>
</g>
<!-- Node21&#45;&gt;Node2 -->
<g id="edge24" class="edge">
<title>Node21&#45;&gt;Node2</title>
<path fill="none" stroke="midnightblue" d="M972.57,-106.9C957.16,-97 937.05,-84.07 923.96,-75.65"/>
<polygon fill="midnightblue" stroke="midnightblue" points="970.7,-109.86 981,-112.32 974.48,-103.97 970.7,-109.86"/>
</g>
<!-- Node22 -->
<g id="node22" class="node">
<title>Node22</title>
<g id="a_node22"><a xlink:href="../../de/d8b/exportstltool_8cpp.html" target="_top" xlink:title=" ">
<polygon fill="white" stroke="black" points="968,-56.5 968,-75.5 1057,-75.5 1057,-56.5 968,-56.5"/>
<text text-anchor="middle" x="1012.5" y="-63.5" font-family="Helvetica,sans-Serif" font-size="10.00">exportstltool.cpp</text>
</a>
</g>
</g>
<!-- Node21&#45;&gt;Node22 -->
<g id="edge25" class="edge">
<title>Node21&#45;&gt;Node22</title>
<path fill="none" stroke="midnightblue" d="M1000.7,-102.4C1003.71,-93.36 1007.19,-82.94 1009.58,-75.75"/>
<polygon fill="midnightblue" stroke="midnightblue" points="997.31,-101.49 997.47,-112.08 1003.96,-103.7 997.31,-101.49"/>
</g>
</g>
</svg>
