<?xml version="1.0" encoding="UTF-8" standalone="no"?>
<!DOCTYPE svg PUBLIC "-//W3C//DTD SVG 1.1//EN"
 "http://www.w3.org/Graphics/SVG/1.1/DTD/svg11.dtd">
<!-- Generated by graphviz version 2.44.1 (0)
 -->
<!-- Title: list.h Pages: 1 -->
<svg width="1029pt" height="364pt"
 viewBox="0.00 0.00 1029.00 364.00" xmlns="http://www.w3.org/2000/svg" xmlns:xlink="http://www.w3.org/1999/xlink">
<g id="graph0" class="graph" transform="scale(1 1) rotate(0) translate(4 360)">
<title>list.h</title>
<polygon fill="white" stroke="transparent" points="-4,4 -4,-360 1025,-360 1025,4 -4,4"/>
<!-- Node1 -->
<g id="node1" class="node">
<title>Node1</title>
<g id="a_node1"><a xlink:title=" ">
<polygon fill="#bfbfbf" stroke="black" points="669,-336.5 669,-355.5 707,-355.5 707,-336.5 669,-336.5"/>
<text text-anchor="middle" x="688" y="-343.5" font-family="Helvetica,sans-Serif" font-size="10.00">list.h</text>
</a>
</g>
</g>
<!-- Node2 -->
<g id="node2" class="node">
<title>Node2</title>
<g id="a_node2"><a xlink:href="../../d6/df3/graph_8h.html" target="_top" xlink:title=" ">
<polygon fill="white" stroke="black" points="531.5,-280.5 531.5,-299.5 580.5,-299.5 580.5,-280.5 531.5,-280.5"/>
<text text-anchor="middle" x="556" y="-287.5" font-family="Helvetica,sans-Serif" font-size="10.00">graph.h</text>
</a>
</g>
</g>
<!-- Node1&#45;&gt;Node2 -->
<g id="edge1" class="edge">
<title>Node1&#45;&gt;Node2</title>
<path fill="none" stroke="midnightblue" d="M659.54,-333.36C634.71,-323.2 599.27,-308.7 576.96,-299.58"/>
<polygon fill="midnightblue" stroke="midnightblue" points="658.23,-336.6 668.81,-337.15 660.88,-330.12 658.23,-336.6"/>
</g>
<!-- Node4 -->
<g id="node4" class="node">
<title>Node4</title>
<g id="a_node4"><a xlink:href="../../dd/df4/matrix_8h.html" target="_top" xlink:title=" ">
<polygon fill="white" stroke="black" points="662,-280.5 662,-299.5 714,-299.5 714,-280.5 662,-280.5"/>
<text text-anchor="middle" x="688" y="-287.5" font-family="Helvetica,sans-Serif" font-size="10.00">matrix.h</text>
</a>
</g>
</g>
<!-- Node1&#45;&gt;Node4 -->
<g id="edge3" class="edge">
<title>Node1&#45;&gt;Node4</title>
<path fill="none" stroke="midnightblue" d="M688,-325.8C688,-316.91 688,-306.78 688,-299.75"/>
<polygon fill="midnightblue" stroke="midnightblue" points="684.5,-326.08 688,-336.08 691.5,-326.08 684.5,-326.08"/>
</g>
<!-- Node5 -->
<g id="node5" class="node">
<title>Node5</title>
<g id="a_node5"><a xlink:href="../../d9/dad/tmesh__kernel_8h.html" target="_top" xlink:title=" ">
<polygon fill="white" stroke="black" points="579.5,-224.5 579.5,-243.5 662.5,-243.5 662.5,-224.5 579.5,-224.5"/>
<text text-anchor="middle" x="621" y="-231.5" font-family="Helvetica,sans-Serif" font-size="10.00">tmesh_kernel.h</text>
</a>
</g>
</g>
<!-- Node1&#45;&gt;Node5 -->
<g id="edge33" class="edge">
<title>Node1&#45;&gt;Node5</title>
<path fill="none" stroke="midnightblue" d="M673.98,-328.66C667.22,-320.37 659.24,-309.96 653,-300 640.99,-280.81 630.05,-256.47 624.61,-243.71"/>
<polygon fill="midnightblue" stroke="midnightblue" points="671.37,-330.99 680.47,-336.42 676.75,-326.51 671.37,-330.99"/>
</g>
<!-- Node30 -->
<g id="node30" class="node">
<title>Node30</title>
<g id="a_node30"><a xlink:href="../../df/d37/vertex_8h.html" target="_top" xlink:title=" ">
<polygon fill="white" stroke="black" points="745,-280.5 745,-299.5 797,-299.5 797,-280.5 745,-280.5"/>
<text text-anchor="middle" x="771" y="-287.5" font-family="Helvetica,sans-Serif" font-size="10.00">vertex.h</text>
</a>
</g>
</g>
<!-- Node1&#45;&gt;Node30 -->
<g id="edge34" class="edge">
<title>Node1&#45;&gt;Node30</title>
<path fill="none" stroke="midnightblue" d="M710.1,-330.62C725.26,-320.76 744.88,-307.99 757.7,-299.65"/>
<polygon fill="midnightblue" stroke="midnightblue" points="707.81,-327.94 701.34,-336.32 711.63,-333.8 707.81,-327.94"/>
</g>
<!-- Node32 -->
<g id="node32" class="node">
<title>Node32</title>
<g id="a_node32"><a xlink:href="../../d1/dd9/list_8cpp.html" target="_top" xlink:title=" ">
<polygon fill="white" stroke="black" points="815,-280.5 815,-299.5 863,-299.5 863,-280.5 815,-280.5"/>
<text text-anchor="middle" x="839" y="-287.5" font-family="Helvetica,sans-Serif" font-size="10.00">list.cpp</text>
</a>
</g>
</g>
<!-- Node1&#45;&gt;Node32 -->
<g id="edge41" class="edge">
<title>Node1&#45;&gt;Node32</title>
<path fill="none" stroke="midnightblue" d="M716.91,-334.66C745.4,-324.47 788.43,-309.09 815.06,-299.56"/>
<polygon fill="midnightblue" stroke="midnightblue" points="715.36,-331.5 707.12,-338.16 717.72,-338.09 715.36,-331.5"/>
</g>
<!-- Node3 -->
<g id="node3" class="node">
<title>Node3</title>
<g id="a_node3"><a xlink:href="../../d7/d75/graph_8cpp.html" target="_top" xlink:title=" ">
<polygon fill="white" stroke="black" points="502.5,-224.5 502.5,-243.5 561.5,-243.5 561.5,-224.5 502.5,-224.5"/>
<text text-anchor="middle" x="532" y="-231.5" font-family="Helvetica,sans-Serif" font-size="10.00">graph.cpp</text>
</a>
</g>
</g>
<!-- Node2&#45;&gt;Node3 -->
<g id="edge2" class="edge">
<title>Node2&#45;&gt;Node3</title>
<path fill="none" stroke="midnightblue" d="M547.86,-270.69C543.82,-261.59 539.12,-251.01 535.89,-243.75"/>
<polygon fill="midnightblue" stroke="midnightblue" points="544.78,-272.37 552.04,-280.08 551.17,-269.52 544.78,-272.37"/>
</g>
<!-- Node4&#45;&gt;Node5 -->
<g id="edge4" class="edge">
<title>Node4&#45;&gt;Node5</title>
<path fill="none" stroke="midnightblue" d="M669.17,-273.82C657.16,-264.15 642.03,-251.95 631.96,-243.83"/>
<polygon fill="midnightblue" stroke="midnightblue" points="667.25,-276.77 677.24,-280.32 671.65,-271.32 667.25,-276.77"/>
</g>
<!-- Node29 -->
<g id="node29" class="node">
<title>Node29</title>
<g id="a_node29"><a xlink:href="../../d5/d84/matrix_8cpp.html" target="_top" xlink:title=" ">
<polygon fill="white" stroke="black" points="681,-224.5 681,-243.5 743,-243.5 743,-224.5 681,-224.5"/>
<text text-anchor="middle" x="712" y="-231.5" font-family="Helvetica,sans-Serif" font-size="10.00">matrix.cpp</text>
</a>
</g>
</g>
<!-- Node4&#45;&gt;Node29 -->
<g id="edge32" class="edge">
<title>Node4&#45;&gt;Node29</title>
<path fill="none" stroke="midnightblue" d="M696.14,-270.69C700.18,-261.59 704.88,-251.01 708.11,-243.75"/>
<polygon fill="midnightblue" stroke="midnightblue" points="692.83,-269.52 691.96,-280.08 699.22,-272.37 692.83,-269.52"/>
</g>
<!-- Node6 -->
<g id="node6" class="node">
<title>Node6</title>
<g id="a_node6"><a xlink:href="../../d3/d0f/tmesh_8h.html" target="_top" xlink:title=" ">
<polygon fill="white" stroke="black" points="595,-168.5 595,-187.5 647,-187.5 647,-168.5 595,-168.5"/>
<text text-anchor="middle" x="621" y="-175.5" font-family="Helvetica,sans-Serif" font-size="10.00">tmesh.h</text>
</a>
</g>
</g>
<!-- Node5&#45;&gt;Node6 -->
<g id="edge5" class="edge">
<title>Node5&#45;&gt;Node6</title>
<path fill="none" stroke="midnightblue" d="M621,-213.8C621,-204.91 621,-194.78 621,-187.75"/>
<polygon fill="midnightblue" stroke="midnightblue" points="617.5,-214.08 621,-224.08 624.5,-214.08 617.5,-214.08"/>
</g>
<!-- Node28 -->
<g id="node28" class="node">
<title>Node28</title>
<g id="a_node28"><a xlink:href="../../da/dee/tmesh_8cpp.html" target="_top" xlink:title=" ">
<polygon fill="white" stroke="black" points="515,-168.5 515,-187.5 577,-187.5 577,-168.5 515,-168.5"/>
<text text-anchor="middle" x="546" y="-175.5" font-family="Helvetica,sans-Serif" font-size="10.00">tmesh.cpp</text>
</a>
</g>
</g>
<!-- Node5&#45;&gt;Node28 -->
<g id="edge31" class="edge">
<title>Node5&#45;&gt;Node28</title>
<path fill="none" stroke="midnightblue" d="M600.69,-218.38C587.14,-208.62 569.76,-196.11 558.27,-187.83"/>
<polygon fill="midnightblue" stroke="midnightblue" points="598.79,-221.32 608.95,-224.32 602.88,-215.64 598.79,-221.32"/>
</g>
<!-- Node7 -->
<g id="node7" class="node">
<title>Node7</title>
<g id="a_node7"><a xlink:href="../../d9/d53/mainwindow_8h.html" target="_top" xlink:title="Qt MainWindow of the application.">
<polygon fill="white" stroke="black" points="171,-56.5 171,-75.5 249,-75.5 249,-56.5 171,-56.5"/>
<text text-anchor="middle" x="210" y="-63.5" font-family="Helvetica,sans-Serif" font-size="10.00">mainwindow.h</text>
</a>
</g>
</g>
<!-- Node6&#45;&gt;Node7 -->
<g id="edge6" class="edge">
<title>Node6&#45;&gt;Node7</title>
<path fill="none" stroke="midnightblue" d="M584.62,-167.97C467.33,-146.51 430.28,-169.72 321,-132 310.71,-128.45 251.69,-92.59 224.15,-75.71"/>
<polygon fill="midnightblue" stroke="midnightblue" points="584.22,-171.46 594.7,-169.89 585.53,-164.58 584.22,-171.46"/>
</g>
<!-- Node10 -->
<g id="node10" class="node">
<title>Node10</title>
<g id="a_node10"><a xlink:href="../../d3/d1d/march_intersections_8h.html" target="_top" xlink:title=" ">
<polygon fill="white" stroke="black" points="460,-112.5 460,-131.5 568,-131.5 568,-112.5 460,-112.5"/>
<text text-anchor="middle" x="514" y="-119.5" font-family="Helvetica,sans-Serif" font-size="10.00">marchIntersections.h</text>
</a>
</g>
</g>
<!-- Node6&#45;&gt;Node10 -->
<g id="edge9" class="edge">
<title>Node6&#45;&gt;Node10</title>
<path fill="none" stroke="midnightblue" d="M594.7,-163.73C574.89,-153.73 548.29,-140.31 531.15,-131.65"/>
<polygon fill="midnightblue" stroke="midnightblue" points="593.3,-166.94 603.81,-168.32 596.46,-160.69 593.3,-166.94"/>
</g>
<!-- Node12 -->
<g id="node12" class="node">
<title>Node12</title>
<g id="a_node12"><a xlink:href="../../d5/dc3/tin_8h.html" target="_top" xlink:title=" ">
<polygon fill="white" stroke="black" points="603.5,-112.5 603.5,-131.5 638.5,-131.5 638.5,-112.5 603.5,-112.5"/>
<text text-anchor="middle" x="621" y="-119.5" font-family="Helvetica,sans-Serif" font-size="10.00">tin.h</text>
</a>
</g>
</g>
<!-- Node6&#45;&gt;Node12 -->
<g id="edge11" class="edge">
<title>Node6&#45;&gt;Node12</title>
<path fill="none" stroke="midnightblue" d="M614.53,-158.1C613.9,-149.14 614.34,-138.86 615.87,-131.75"/>
<polygon fill="midnightblue" stroke="midnightblue" points="611.07,-158.62 615.83,-168.08 618.01,-157.71 611.07,-158.62"/>
</g>
<!-- Node17 -->
<g id="node17" class="node">
<title>Node17</title>
<g id="a_node17"><a xlink:href="../../dd/d6a/triangle_8h.html" target="_top" xlink:title=" ">
<polygon fill="white" stroke="black" points="805,-112.5 805,-131.5 861,-131.5 861,-112.5 805,-112.5"/>
<text text-anchor="middle" x="833" y="-119.5" font-family="Helvetica,sans-Serif" font-size="10.00">triangle.h</text>
</a>
</g>
</g>
<!-- Node6&#45;&gt;Node17 -->
<g id="edge17" class="edge">
<title>Node6&#45;&gt;Node17</title>
<path fill="none" stroke="midnightblue" d="M657.1,-166.41C698.87,-155.27 766.51,-138.12 804.7,-129.07"/>
<polygon fill="midnightblue" stroke="midnightblue" points="656.08,-163.06 647.33,-169.03 657.89,-169.82 656.08,-163.06"/>
</g>
<!-- Node21 -->
<g id="node21" class="node">
<title>Node21</title>
<g id="a_node21"><a xlink:href="../../df/d36/check_and_repair_8cpp.html" target="_top" xlink:title=" ">
<polygon fill="white" stroke="black" points="656.5,-112.5 656.5,-131.5 763.5,-131.5 763.5,-112.5 656.5,-112.5"/>
<text text-anchor="middle" x="710" y="-119.5" font-family="Helvetica,sans-Serif" font-size="10.00">checkAndRepair.cpp</text>
</a>
</g>
</g>
<!-- Node6&#45;&gt;Node21 -->
<g id="edge22" class="edge">
<title>Node6&#45;&gt;Node21</title>
<path fill="none" stroke="midnightblue" d="M644.24,-162.9C660.56,-153 681.87,-140.07 695.74,-131.65"/>
<polygon fill="midnightblue" stroke="midnightblue" points="642.03,-160.14 635.3,-168.32 645.66,-166.13 642.03,-160.14"/>
</g>
<!-- Node22 -->
<g id="node22" class="node">
<title>Node22</title>
<g id="a_node22"><a xlink:href="../../d1/d69/subdivision_8cpp.html" target="_top" xlink:title=" ">
<polygon fill="white" stroke="black" points="0,-112.5 0,-131.5 84,-131.5 84,-112.5 0,-112.5"/>
<text text-anchor="middle" x="42" y="-119.5" font-family="Helvetica,sans-Serif" font-size="10.00">subdivision.cpp</text>
</a>
</g>
</g>
<!-- Node6&#45;&gt;Node22 -->
<g id="edge23" class="edge">
<title>Node6&#45;&gt;Node22</title>
<path fill="none" stroke="midnightblue" d="M584.61,-168.06C367.39,-133.3 307.71,-158.71 93,-132 90.14,-131.64 87.21,-131.24 84.25,-130.8"/>
<polygon fill="midnightblue" stroke="midnightblue" points="584.3,-171.56 594.73,-169.71 585.42,-164.65 584.3,-171.56"/>
</g>
<!-- Node23 -->
<g id="node23" class="node">
<title>Node23</title>
<g id="a_node23"><a xlink:href="../../d5/d5a/io_8cpp.html" target="_top" xlink:title=" ">
<polygon fill="white" stroke="black" points="102.5,-112.5 102.5,-131.5 145.5,-131.5 145.5,-112.5 102.5,-112.5"/>
<text text-anchor="middle" x="124" y="-119.5" font-family="Helvetica,sans-Serif" font-size="10.00">io.cpp</text>
</a>
</g>
</g>
<!-- Node6&#45;&gt;Node23 -->
<g id="edge24" class="edge">
<title>Node6&#45;&gt;Node23</title>
<path fill="none" stroke="midnightblue" d="M584.69,-168.06C394.64,-136.99 340.78,-166.37 155,-132 151.91,-131.43 148.69,-130.68 145.55,-129.85"/>
<polygon fill="midnightblue" stroke="midnightblue" points="584.29,-171.54 594.73,-169.74 585.44,-164.64 584.29,-171.54"/>
</g>
<!-- Node24 -->
<g id="node24" class="node">
<title>Node24</title>
<g id="a_node24"><a xlink:href="../../db/d45/exportopenscadtool_8h.html" target="_top" xlink:title="Tool for exporting a wired mesh to the openscad format.">
<polygon fill="white" stroke="black" points="164,-112.5 164,-131.5 274,-131.5 274,-112.5 164,-112.5"/>
<text text-anchor="middle" x="219" y="-119.5" font-family="Helvetica,sans-Serif" font-size="10.00">exportopenscadtool.h</text>
</a>
</g>
</g>
<!-- Node6&#45;&gt;Node24 -->
<g id="edge25" class="edge">
<title>Node6&#45;&gt;Node24</title>
<path fill="none" stroke="midnightblue" d="M584.65,-167.96C453.15,-143.58 417.14,-148.22 288,-132 283.57,-131.44 278.97,-130.86 274.36,-130.27"/>
<polygon fill="midnightblue" stroke="midnightblue" points="584.24,-171.44 594.71,-169.84 585.53,-164.56 584.24,-171.44"/>
</g>
<!-- Node26 -->
<g id="node26" class="node">
<title>Node26</title>
<g id="a_node26"><a xlink:href="../../db/dcb/exportstltool_8h.html" target="_top" xlink:title="Tool for exporting a wired mesh to the stl file format.">
<polygon fill="white" stroke="black" points="330,-112.5 330,-131.5 408,-131.5 408,-112.5 330,-112.5"/>
<text text-anchor="middle" x="369" y="-119.5" font-family="Helvetica,sans-Serif" font-size="10.00">exportstltool.h</text>
</a>
</g>
</g>
<!-- Node6&#45;&gt;Node26 -->
<g id="edge28" class="edge">
<title>Node6&#45;&gt;Node26</title>
<path fill="none" stroke="midnightblue" d="M584.74,-167.79C517.45,-152.3 449.85,-138.7 408.32,-130.57"/>
<polygon fill="midnightblue" stroke="midnightblue" points="584.13,-171.24 594.66,-170.08 585.71,-164.42 584.13,-171.24"/>
</g>
<!-- Node8 -->
<g id="node8" class="node">
<title>Node8</title>
<g id="a_node8"><a xlink:href="../../d8/dd9/mainwindow_8cpp.html" target="_top" xlink:title=" ">
<polygon fill="white" stroke="black" points="210.5,-0.5 210.5,-19.5 299.5,-19.5 299.5,-0.5 210.5,-0.5"/>
<text text-anchor="middle" x="255" y="-7.5" font-family="Helvetica,sans-Serif" font-size="10.00">mainwindow.cpp</text>
</a>
</g>
</g>
<!-- Node7&#45;&gt;Node8 -->
<g id="edge7" class="edge">
<title>Node7&#45;&gt;Node8</title>
<path fill="none" stroke="midnightblue" d="M224.05,-48.14C231.89,-38.74 241.33,-27.4 247.71,-19.75"/>
<polygon fill="midnightblue" stroke="midnightblue" points="221.14,-46.16 217.43,-56.08 226.52,-50.64 221.14,-46.16"/>
</g>
<!-- Node9 -->
<g id="node9" class="node">
<title>Node9</title>
<g id="a_node9"><a xlink:href="../../df/d0a/main_8cpp.html" target="_top" xlink:title=" ">
<polygon fill="white" stroke="black" points="136,-0.5 136,-19.5 192,-19.5 192,-0.5 136,-0.5"/>
<text text-anchor="middle" x="164" y="-7.5" font-family="Helvetica,sans-Serif" font-size="10.00">main.cpp</text>
</a>
</g>
</g>
<!-- Node7&#45;&gt;Node9 -->
<g id="edge8" class="edge">
<title>Node7&#45;&gt;Node9</title>
<path fill="none" stroke="midnightblue" d="M195.89,-48.43C187.82,-38.97 178.04,-27.48 171.45,-19.75"/>
<polygon fill="midnightblue" stroke="midnightblue" points="193.25,-50.74 202.4,-56.08 198.58,-46.2 193.25,-50.74"/>
</g>
<!-- Node11 -->
<g id="node11" class="node">
<title>Node11</title>
<g id="a_node11"><a xlink:href="../../d0/d89/march_intersections_8cpp.html" target="_top" xlink:title=" ">
<polygon fill="white" stroke="black" points="374.5,-56.5 374.5,-75.5 493.5,-75.5 493.5,-56.5 374.5,-56.5"/>
<text text-anchor="middle" x="434" y="-63.5" font-family="Helvetica,sans-Serif" font-size="10.00">marchIntersections.cpp</text>
</a>
</g>
</g>
<!-- Node10&#45;&gt;Node11 -->
<g id="edge10" class="edge">
<title>Node10&#45;&gt;Node11</title>
<path fill="none" stroke="midnightblue" d="M492.7,-106.62C478.08,-96.76 459.17,-83.99 446.82,-75.65"/>
<polygon fill="midnightblue" stroke="midnightblue" points="490.9,-109.63 501.15,-112.32 494.82,-103.83 490.9,-109.63"/>
</g>
<!-- Node12&#45;&gt;Node6 -->
<g id="edge14" class="edge">
<title>Node12&#45;&gt;Node6</title>
<path fill="none" stroke="midnightblue" d="M627.46,-141.69C628.11,-150.64 627.68,-160.93 626.17,-168.08"/>
<polygon fill="midnightblue" stroke="midnightblue" points="630.92,-141.2 626.13,-131.75 623.98,-142.13 630.92,-141.2"/>
</g>
<!-- Node13 -->
<g id="node13" class="node">
<title>Node13</title>
<g id="a_node13"><a xlink:href="../../df/dc9/detect_intersections_8h.html" target="_top" xlink:title=" ">
<polygon fill="white" stroke="black" points="576,-56.5 576,-75.5 684,-75.5 684,-56.5 576,-56.5"/>
<text text-anchor="middle" x="630" y="-63.5" font-family="Helvetica,sans-Serif" font-size="10.00">detectIntersections.h</text>
</a>
</g>
</g>
<!-- Node12&#45;&gt;Node13 -->
<g id="edge12" class="edge">
<title>Node12&#45;&gt;Node13</title>
<path fill="none" stroke="midnightblue" d="M624.15,-102.1C625.64,-93.14 627.36,-82.86 628.54,-75.75"/>
<polygon fill="midnightblue" stroke="midnightblue" points="620.68,-101.64 622.49,-112.08 627.58,-102.79 620.68,-101.64"/>
</g>
<!-- Node15 -->
<g id="node15" class="node">
<title>Node15</title>
<g id="a_node15"><a xlink:href="../../d0/db9/hole_filling_8cpp.html" target="_top" xlink:title=" ">
<polygon fill="white" stroke="black" points="702.5,-56.5 702.5,-75.5 781.5,-75.5 781.5,-56.5 702.5,-56.5"/>
<text text-anchor="middle" x="742" y="-63.5" font-family="Helvetica,sans-Serif" font-size="10.00">holeFilling.cpp</text>
</a>
</g>
</g>
<!-- Node12&#45;&gt;Node15 -->
<g id="edge15" class="edge">
<title>Node12&#45;&gt;Node15</title>
<path fill="none" stroke="midnightblue" d="M648,-108.95C670.71,-98.82 702.6,-84.58 722.78,-75.58"/>
<polygon fill="midnightblue" stroke="midnightblue" points="646.3,-105.88 638.59,-113.15 649.15,-112.27 646.3,-105.88"/>
</g>
<!-- Node16 -->
<g id="node16" class="node">
<title>Node16</title>
<g id="a_node16"><a xlink:href="../../dd/da9/tin_8cpp.html" target="_top" xlink:title=" ">
<polygon fill="white" stroke="black" points="512,-56.5 512,-75.5 558,-75.5 558,-56.5 512,-56.5"/>
<text text-anchor="middle" x="535" y="-63.5" font-family="Helvetica,sans-Serif" font-size="10.00">tin.cpp</text>
</a>
</g>
</g>
<!-- Node12&#45;&gt;Node16 -->
<g id="edge16" class="edge">
<title>Node12&#45;&gt;Node16</title>
<path fill="none" stroke="midnightblue" d="M598.55,-106.9C582.78,-97 562.19,-84.07 548.78,-75.65"/>
<polygon fill="midnightblue" stroke="midnightblue" points="596.85,-109.97 607.18,-112.32 600.57,-104.04 596.85,-109.97"/>
</g>
<!-- Node14 -->
<g id="node14" class="node">
<title>Node14</title>
<g id="a_node14"><a xlink:href="../../d8/dd7/detect_intersections_8cpp.html" target="_top" xlink:title=" ">
<polygon fill="white" stroke="black" points="570.5,-0.5 570.5,-19.5 689.5,-19.5 689.5,-0.5 570.5,-0.5"/>
<text text-anchor="middle" x="630" y="-7.5" font-family="Helvetica,sans-Serif" font-size="10.00">detectIntersections.cpp</text>
</a>
</g>
</g>
<!-- Node13&#45;&gt;Node14 -->
<g id="edge13" class="edge">
<title>Node13&#45;&gt;Node14</title>
<path fill="none" stroke="midnightblue" d="M630,-45.8C630,-36.91 630,-26.78 630,-19.75"/>
<polygon fill="midnightblue" stroke="midnightblue" points="626.5,-46.08 630,-56.08 633.5,-46.08 626.5,-46.08"/>
</g>
<!-- Node17&#45;&gt;Node6 -->
<g id="edge18" class="edge">
<title>Node17&#45;&gt;Node6</title>
<path fill="none" stroke="midnightblue" d="M795.14,-134.06C752.46,-145.42 684.43,-162.64 647.2,-171.42"/>
<polygon fill="midnightblue" stroke="midnightblue" points="796.13,-137.42 804.88,-131.45 794.32,-130.66 796.13,-137.42"/>
</g>
<!-- Node18 -->
<g id="node18" class="node">
<title>Node18</title>
<g id="a_node18"><a xlink:href="../../d3/df4/edge_8cpp.html" target="_top" xlink:title=" ">
<polygon fill="white" stroke="black" points="885,-56.5 885,-75.5 941,-75.5 941,-56.5 885,-56.5"/>
<text text-anchor="middle" x="913" y="-63.5" font-family="Helvetica,sans-Serif" font-size="10.00">edge.cpp</text>
</a>
</g>
</g>
<!-- Node17&#45;&gt;Node18 -->
<g id="edge19" class="edge">
<title>Node17&#45;&gt;Node18</title>
<path fill="none" stroke="midnightblue" d="M854.3,-106.62C868.92,-96.76 887.83,-83.99 900.18,-75.65"/>
<polygon fill="midnightblue" stroke="midnightblue" points="852.18,-103.83 845.85,-112.32 856.1,-109.63 852.18,-103.83"/>
</g>
<!-- Node19 -->
<g id="node19" class="node">
<title>Node19</title>
<g id="a_node19"><a xlink:href="../../d6/d4c/triangle_8cpp.html" target="_top" xlink:title=" ">
<polygon fill="white" stroke="black" points="799.5,-56.5 799.5,-75.5 866.5,-75.5 866.5,-56.5 799.5,-56.5"/>
<text text-anchor="middle" x="833" y="-63.5" font-family="Helvetica,sans-Serif" font-size="10.00">triangle.cpp</text>
</a>
</g>
</g>
<!-- Node17&#45;&gt;Node19 -->
<g id="edge20" class="edge">
<title>Node17&#45;&gt;Node19</title>
<path fill="none" stroke="midnightblue" d="M833,-101.8C833,-92.91 833,-82.78 833,-75.75"/>
<polygon fill="midnightblue" stroke="midnightblue" points="829.5,-102.08 833,-112.08 836.5,-102.08 829.5,-102.08"/>
</g>
<!-- Node20 -->
<g id="node20" class="node">
<title>Node20</title>
<g id="a_node20"><a xlink:href="../../d0/d3f/vertex_8cpp.html" target="_top" xlink:title=" ">
<polygon fill="white" stroke="black" points="959,-56.5 959,-75.5 1021,-75.5 1021,-56.5 959,-56.5"/>
<text text-anchor="middle" x="990" y="-63.5" font-family="Helvetica,sans-Serif" font-size="10.00">vertex.cpp</text>
</a>
</g>
</g>
<!-- Node17&#45;&gt;Node20 -->
<g id="edge21" class="edge">
<title>Node17&#45;&gt;Node20</title>
<path fill="none" stroke="midnightblue" d="M867.39,-109.17C896.95,-99 938.87,-84.59 965.24,-75.52"/>
<polygon fill="midnightblue" stroke="midnightblue" points="866.2,-105.88 857.88,-112.44 868.47,-112.5 866.2,-105.88"/>
</g>
<!-- Node24&#45;&gt;Node7 -->
<g id="edge26" class="edge">
<title>Node24&#45;&gt;Node7</title>
<path fill="none" stroke="midnightblue" d="M215.85,-102.1C214.36,-93.14 212.64,-82.86 211.46,-75.75"/>
<polygon fill="midnightblue" stroke="midnightblue" points="212.42,-102.79 217.51,-112.08 219.32,-101.64 212.42,-102.79"/>
</g>
<!-- Node25 -->
<g id="node25" class="node">
<title>Node25</title>
<g id="a_node25"><a xlink:href="../../d8/d4e/exportopenscadtool_8cpp.html" target="_top" xlink:title=" ">
<polygon fill="white" stroke="black" points="33,-56.5 33,-75.5 153,-75.5 153,-56.5 33,-56.5"/>
<text text-anchor="middle" x="93" y="-63.5" font-family="Helvetica,sans-Serif" font-size="10.00">exportopenscadtool.cpp</text>
</a>
</g>
</g>
<!-- Node24&#45;&gt;Node25 -->
<g id="edge27" class="edge">
<title>Node24&#45;&gt;Node25</title>
<path fill="none" stroke="midnightblue" d="M189.84,-108.5C166.22,-98.38 133.57,-84.39 112.87,-75.52"/>
<polygon fill="midnightblue" stroke="midnightblue" points="188.46,-111.72 199.03,-112.44 191.22,-105.29 188.46,-111.72"/>
</g>
<!-- Node26&#45;&gt;Node7 -->
<g id="edge29" class="edge">
<title>Node26&#45;&gt;Node7</title>
<path fill="none" stroke="midnightblue" d="M334.17,-109.17C304.23,-99 261.78,-84.59 235.08,-75.52"/>
<polygon fill="midnightblue" stroke="midnightblue" points="333.21,-112.54 343.81,-112.44 335.46,-105.91 333.21,-112.54"/>
</g>
<!-- Node27 -->
<g id="node27" class="node">
<title>Node27</title>
<g id="a_node27"><a xlink:href="../../de/d8b/exportstltool_8cpp.html" target="_top" xlink:title=" ">
<polygon fill="white" stroke="black" points="267.5,-56.5 267.5,-75.5 356.5,-75.5 356.5,-56.5 267.5,-56.5"/>
<text text-anchor="middle" x="312" y="-63.5" font-family="Helvetica,sans-Serif" font-size="10.00">exportstltool.cpp</text>
</a>
</g>
</g>
<!-- Node26&#45;&gt;Node27 -->
<g id="edge30" class="edge">
<title>Node26&#45;&gt;Node27</title>
<path fill="none" stroke="midnightblue" d="M352.38,-105.25C342.27,-95.67 329.72,-83.79 321.32,-75.83"/>
<polygon fill="midnightblue" stroke="midnightblue" points="350.18,-107.99 359.84,-112.32 354.99,-102.91 350.18,-107.99"/>
</g>
<!-- Node30&#45;&gt;Node6 -->
<g id="edge39" class="edge">
<title>Node30&#45;&gt;Node6</title>
<path fill="none" stroke="midnightblue" d="M770.03,-269.95C768.31,-255.6 763.79,-236.35 752,-224 724.19,-194.86 676.69,-184.59 647.17,-180.97"/>
<polygon fill="midnightblue" stroke="midnightblue" points="766.56,-270.51 770.88,-280.18 773.54,-269.92 766.56,-270.51"/>
</g>
<!-- Node30&#45;&gt;Node20 -->
<g id="edge40" class="edge">
<title>Node30&#45;&gt;Node20</title>
<path fill="none" stroke="midnightblue" d="M806.85,-278.78C838.06,-269.36 880.37,-255.2 894,-244 951.8,-196.5 980.05,-104.73 987.76,-75.89"/>
<polygon fill="midnightblue" stroke="midnightblue" points="805.75,-275.45 797.16,-281.66 807.74,-282.16 805.75,-275.45"/>
</g>
<!-- Node31 -->
<g id="node31" class="node">
<title>Node31</title>
<g id="a_node31"><a xlink:href="../../db/dc3/edge_8h.html" target="_top" xlink:title=" ">
<polygon fill="white" stroke="black" points="839,-224.5 839,-243.5 885,-243.5 885,-224.5 839,-224.5"/>
<text text-anchor="middle" x="862" y="-231.5" font-family="Helvetica,sans-Serif" font-size="10.00">edge.h</text>
</a>
</g>
</g>
<!-- Node30&#45;&gt;Node31 -->
<g id="edge35" class="edge">
<title>Node30&#45;&gt;Node31</title>
<path fill="none" stroke="midnightblue" d="M794.29,-275.18C811.04,-265.24 833.1,-252.15 847.42,-243.65"/>
<polygon fill="midnightblue" stroke="midnightblue" points="792.43,-272.21 785.62,-280.32 796.01,-278.23 792.43,-272.21"/>
</g>
<!-- Node31&#45;&gt;Node6 -->
<g id="edge36" class="edge">
<title>Node31&#45;&gt;Node6</title>
<path fill="none" stroke="midnightblue" d="M828.94,-225.59C780.57,-214.76 691.5,-194.8 647.3,-184.89"/>
<polygon fill="midnightblue" stroke="midnightblue" points="828.37,-229.05 838.89,-227.82 829.9,-222.22 828.37,-229.05"/>
</g>
<!-- Node31&#45;&gt;Node18 -->
<g id="edge37" class="edge">
<title>Node31&#45;&gt;Node18</title>
<path fill="none" stroke="midnightblue" d="M867.72,-214.39C878.72,-178.59 902.45,-101.34 910.37,-75.57"/>
<polygon fill="midnightblue" stroke="midnightblue" points="864.33,-213.49 864.74,-224.08 871.02,-215.54 864.33,-213.49"/>
</g>
<!-- Node31&#45;&gt;Node20 -->
<g id="edge38" class="edge">
<title>Node31&#45;&gt;Node20</title>
<path fill="none" stroke="midnightblue" d="M875.29,-215.76C902.41,-180.59 963.26,-101.68 983.39,-75.57"/>
<polygon fill="midnightblue" stroke="midnightblue" points="872.22,-214.02 868.88,-224.08 877.76,-218.29 872.22,-214.02"/>
</g>
</g>
</svg>
