<?xml version="1.0" encoding="UTF-8" standalone="no"?>
<!DOCTYPE svg PUBLIC "-//W3C//DTD SVG 1.1//EN"
 "http://www.w3.org/Graphics/SVG/1.1/DTD/svg11.dtd">
<!-- Generated by graphviz version 2.44.1 (0)
 -->
<!-- Title: edge.h Pages: 1 -->
<svg width="1130pt" height="252pt"
 viewBox="0.00 0.00 1129.50 252.00" xmlns="http://www.w3.org/2000/svg" xmlns:xlink="http://www.w3.org/1999/xlink">
<g id="graph0" class="graph" transform="scale(1 1) rotate(0) translate(4 248)">
<title>edge.h</title>
<polygon fill="white" stroke="transparent" points="-4,4 -4,-248 1125.5,-248 1125.5,4 -4,4"/>
<!-- Node1 -->
<g id="node1" class="node">
<title>Node1</title>
<g id="a_node1"><a xlink:title=" ">
<polygon fill="#bfbfbf" stroke="black" points="1029.5,-224.5 1029.5,-243.5 1075.5,-243.5 1075.5,-224.5 1029.5,-224.5"/>
<text text-anchor="middle" x="1052.5" y="-231.5" font-family="Helvetica,sans-Serif" font-size="10.00">edge.h</text>
</a>
</g>
</g>
<!-- Node2 -->
<g id="node2" class="node">
<title>Node2</title>
<g id="a_node2"><a xlink:href="../../d3/d0f/tmesh_8h.html" target="_top" xlink:title=" ">
<polygon fill="white" stroke="black" points="643.5,-168.5 643.5,-187.5 695.5,-187.5 695.5,-168.5 643.5,-168.5"/>
<text text-anchor="middle" x="669.5" y="-175.5" font-family="Helvetica,sans-Serif" font-size="10.00">tmesh.h</text>
</a>
</g>
</g>
<!-- Node1&#45;&gt;Node2 -->
<g id="edge1" class="edge">
<title>Node1&#45;&gt;Node2</title>
<path fill="none" stroke="midnightblue" d="M1019.12,-228.29C944.07,-217.71 763.26,-192.22 695.62,-182.68"/>
<polygon fill="midnightblue" stroke="midnightblue" points="1019.01,-231.81 1029.4,-229.74 1019.99,-224.88 1019.01,-231.81"/>
</g>
<!-- Node14 -->
<g id="node14" class="node">
<title>Node14</title>
<g id="a_node14"><a xlink:href="../../d3/df4/edge_8cpp.html" target="_top" xlink:title=" ">
<polygon fill="white" stroke="black" points="985.5,-56.5 985.5,-75.5 1041.5,-75.5 1041.5,-56.5 985.5,-56.5"/>
<text text-anchor="middle" x="1013.5" y="-63.5" font-family="Helvetica,sans-Serif" font-size="10.00">edge.cpp</text>
</a>
</g>
</g>
<!-- Node1&#45;&gt;Node14 -->
<g id="edge27" class="edge">
<title>Node1&#45;&gt;Node14</title>
<path fill="none" stroke="midnightblue" d="M1051.08,-214.11C1048.91,-190.01 1043.9,-147.23 1033.5,-112 1029.63,-98.88 1022.78,-84.58 1018.19,-75.7"/>
<polygon fill="midnightblue" stroke="midnightblue" points="1047.61,-214.64 1051.92,-224.32 1054.59,-214.07 1047.61,-214.64"/>
</g>
<!-- Node16 -->
<g id="node16" class="node">
<title>Node16</title>
<g id="a_node16"><a xlink:href="../../d0/d3f/vertex_8cpp.html" target="_top" xlink:title=" ">
<polygon fill="white" stroke="black" points="1059.5,-56.5 1059.5,-75.5 1121.5,-75.5 1121.5,-56.5 1059.5,-56.5"/>
<text text-anchor="middle" x="1090.5" y="-63.5" font-family="Helvetica,sans-Serif" font-size="10.00">vertex.cpp</text>
</a>
</g>
</g>
<!-- Node1&#45;&gt;Node16 -->
<g id="edge28" class="edge">
<title>Node1&#45;&gt;Node16</title>
<path fill="none" stroke="midnightblue" d="M1058.62,-214.87C1061.25,-206.72 1064.23,-196.93 1066.5,-188 1077.1,-146.28 1085.85,-95.48 1089.12,-75.58"/>
<polygon fill="midnightblue" stroke="midnightblue" points="1055.27,-213.86 1055.46,-224.45 1061.92,-216.05 1055.27,-213.86"/>
</g>
<!-- Node3 -->
<g id="node3" class="node">
<title>Node3</title>
<g id="a_node3"><a xlink:href="../../d9/d53/mainwindow_8h.html" target="_top" xlink:title="Qt MainWindow of the application.">
<polygon fill="white" stroke="black" points="532.5,-56.5 532.5,-75.5 610.5,-75.5 610.5,-56.5 532.5,-56.5"/>
<text text-anchor="middle" x="571.5" y="-63.5" font-family="Helvetica,sans-Serif" font-size="10.00">mainwindow.h</text>
</a>
</g>
</g>
<!-- Node2&#45;&gt;Node3 -->
<g id="edge2" class="edge">
<title>Node2&#45;&gt;Node3</title>
<path fill="none" stroke="midnightblue" d="M633.31,-175.19C603.24,-171.55 562.15,-161.14 541.5,-132 528.42,-113.54 549.1,-88.48 562.15,-75.53"/>
<polygon fill="midnightblue" stroke="midnightblue" points="633.14,-178.69 643.44,-176.22 633.84,-171.73 633.14,-178.69"/>
</g>
<!-- Node6 -->
<g id="node6" class="node">
<title>Node6</title>
<g id="a_node6"><a xlink:href="../../d3/d1d/march_intersections_8h.html" target="_top" xlink:title=" ">
<polygon fill="white" stroke="black" points="114.5,-112.5 114.5,-131.5 222.5,-131.5 222.5,-112.5 114.5,-112.5"/>
<text text-anchor="middle" x="168.5" y="-119.5" font-family="Helvetica,sans-Serif" font-size="10.00">marchIntersections.h</text>
</a>
</g>
</g>
<!-- Node2&#45;&gt;Node6 -->
<g id="edge5" class="edge">
<title>Node2&#45;&gt;Node6</title>
<path fill="none" stroke="midnightblue" d="M633.09,-173.08C546.04,-163.69 325.49,-139.92 222.74,-128.85"/>
<polygon fill="midnightblue" stroke="midnightblue" points="632.95,-176.58 643.27,-174.17 633.7,-169.62 632.95,-176.58"/>
</g>
<!-- Node8 -->
<g id="node8" class="node">
<title>Node8</title>
<g id="a_node8"><a xlink:href="../../d5/dc3/tin_8h.html" target="_top" xlink:title=" ">
<polygon fill="white" stroke="black" points="350,-112.5 350,-131.5 385,-131.5 385,-112.5 350,-112.5"/>
<text text-anchor="middle" x="367.5" y="-119.5" font-family="Helvetica,sans-Serif" font-size="10.00">tin.h</text>
</a>
</g>
</g>
<!-- Node2&#45;&gt;Node8 -->
<g id="edge7" class="edge">
<title>Node2&#45;&gt;Node8</title>
<path fill="none" stroke="midnightblue" d="M633.35,-172.28C581.03,-164.59 481.94,-148.54 398.5,-132 394.17,-131.14 389.59,-130.17 385.27,-129.19"/>
<polygon fill="midnightblue" stroke="midnightblue" points="633.08,-175.78 643.48,-173.75 634.08,-168.85 633.08,-175.78"/>
</g>
<!-- Node13 -->
<g id="node13" class="node">
<title>Node13</title>
<g id="a_node13"><a xlink:href="../../dd/d6a/triangle_8h.html" target="_top" xlink:title=" ">
<polygon fill="white" stroke="black" points="968.5,-112.5 968.5,-131.5 1024.5,-131.5 1024.5,-112.5 968.5,-112.5"/>
<text text-anchor="middle" x="996.5" y="-119.5" font-family="Helvetica,sans-Serif" font-size="10.00">triangle.h</text>
</a>
</g>
</g>
<!-- Node2&#45;&gt;Node13 -->
<g id="edge13" class="edge">
<title>Node2&#45;&gt;Node13</title>
<path fill="none" stroke="midnightblue" d="M705.82,-171.45C759.45,-163.82 862.37,-149.07 949.5,-132 955.49,-130.83 961.96,-129.37 968.23,-127.96"/>
<polygon fill="midnightblue" stroke="midnightblue" points="705.17,-168 695.77,-172.88 706.16,-174.93 705.17,-168"/>
</g>
<!-- Node17 -->
<g id="node17" class="node">
<title>Node17</title>
<g id="a_node17"><a xlink:href="../../df/d36/check_and_repair_8cpp.html" target="_top" xlink:title=" ">
<polygon fill="white" stroke="black" points="679,-112.5 679,-131.5 786,-131.5 786,-112.5 679,-112.5"/>
<text text-anchor="middle" x="732.5" y="-119.5" font-family="Helvetica,sans-Serif" font-size="10.00">checkAndRepair.cpp</text>
</a>
</g>
</g>
<!-- Node2&#45;&gt;Node17 -->
<g id="edge18" class="edge">
<title>Node2&#45;&gt;Node17</title>
<path fill="none" stroke="midnightblue" d="M687.54,-161.54C698.77,-151.91 712.82,-139.87 722.19,-131.83"/>
<polygon fill="midnightblue" stroke="midnightblue" points="684.94,-159.16 679.62,-168.32 689.49,-164.47 684.94,-159.16"/>
</g>
<!-- Node18 -->
<g id="node18" class="node">
<title>Node18</title>
<g id="a_node18"><a xlink:href="../../d1/d69/subdivision_8cpp.html" target="_top" xlink:title=" ">
<polygon fill="white" stroke="black" points="804.5,-112.5 804.5,-131.5 888.5,-131.5 888.5,-112.5 804.5,-112.5"/>
<text text-anchor="middle" x="846.5" y="-119.5" font-family="Helvetica,sans-Serif" font-size="10.00">subdivision.cpp</text>
</a>
</g>
</g>
<!-- Node2&#45;&gt;Node18 -->
<g id="edge19" class="edge">
<title>Node2&#45;&gt;Node18</title>
<path fill="none" stroke="midnightblue" d="M705.45,-166.03C738.86,-155.84 787.94,-140.87 818.52,-131.54"/>
<polygon fill="midnightblue" stroke="midnightblue" points="704.16,-162.77 695.62,-169.03 706.2,-169.46 704.16,-162.77"/>
</g>
<!-- Node19 -->
<g id="node19" class="node">
<title>Node19</title>
<g id="a_node19"><a xlink:href="../../d5/d5a/io_8cpp.html" target="_top" xlink:title=" ">
<polygon fill="white" stroke="black" points="907,-112.5 907,-131.5 950,-131.5 950,-112.5 907,-112.5"/>
<text text-anchor="middle" x="928.5" y="-119.5" font-family="Helvetica,sans-Serif" font-size="10.00">io.cpp</text>
</a>
</g>
</g>
<!-- Node2&#45;&gt;Node19 -->
<g id="edge20" class="edge">
<title>Node2&#45;&gt;Node19</title>
<path fill="none" stroke="midnightblue" d="M705.55,-170.89C750.67,-163.02 830.22,-148.37 897.5,-132 900.55,-131.26 903.75,-130.41 906.88,-129.54"/>
<polygon fill="midnightblue" stroke="midnightblue" points="704.9,-167.45 695.65,-172.61 706.1,-174.35 704.9,-167.45"/>
</g>
<!-- Node20 -->
<g id="node20" class="node">
<title>Node20</title>
<g id="a_node20"><a xlink:href="../../db/d45/exportopenscadtool_8h.html" target="_top" xlink:title="Tool for exporting a wired mesh to the openscad format.">
<polygon fill="white" stroke="black" points="550.5,-112.5 550.5,-131.5 660.5,-131.5 660.5,-112.5 550.5,-112.5"/>
<text text-anchor="middle" x="605.5" y="-119.5" font-family="Helvetica,sans-Serif" font-size="10.00">exportopenscadtool.h</text>
</a>
</g>
</g>
<!-- Node2&#45;&gt;Node20 -->
<g id="edge21" class="edge">
<title>Node2&#45;&gt;Node20</title>
<path fill="none" stroke="midnightblue" d="M651.51,-161.82C640.04,-152.15 625.59,-139.95 615.97,-131.83"/>
<polygon fill="midnightblue" stroke="midnightblue" points="649.32,-164.55 659.22,-168.32 653.83,-159.2 649.32,-164.55"/>
</g>
<!-- Node22 -->
<g id="node22" class="node">
<title>Node22</title>
<g id="a_node22"><a xlink:href="../../db/dcb/exportstltool_8h.html" target="_top" xlink:title="Tool for exporting a wired mesh to the stl file format.">
<polygon fill="white" stroke="black" points="416.5,-112.5 416.5,-131.5 494.5,-131.5 494.5,-112.5 416.5,-112.5"/>
<text text-anchor="middle" x="455.5" y="-119.5" font-family="Helvetica,sans-Serif" font-size="10.00">exportstltool.h</text>
</a>
</g>
</g>
<!-- Node2&#45;&gt;Node22 -->
<g id="edge24" class="edge">
<title>Node2&#45;&gt;Node22</title>
<path fill="none" stroke="midnightblue" d="M633.34,-167.88C593.11,-157.73 528.64,-141.46 489.36,-131.55"/>
<polygon fill="midnightblue" stroke="midnightblue" points="632.71,-171.33 643.26,-170.38 634.42,-164.54 632.71,-171.33"/>
</g>
<!-- Node4 -->
<g id="node4" class="node">
<title>Node4</title>
<g id="a_node4"><a xlink:href="../../d8/dd9/mainwindow_8cpp.html" target="_top" xlink:title=" ">
<polygon fill="white" stroke="black" points="572,-0.5 572,-19.5 661,-19.5 661,-0.5 572,-0.5"/>
<text text-anchor="middle" x="616.5" y="-7.5" font-family="Helvetica,sans-Serif" font-size="10.00">mainwindow.cpp</text>
</a>
</g>
</g>
<!-- Node3&#45;&gt;Node4 -->
<g id="edge3" class="edge">
<title>Node3&#45;&gt;Node4</title>
<path fill="none" stroke="midnightblue" d="M585.55,-48.14C593.39,-38.74 602.83,-27.4 609.21,-19.75"/>
<polygon fill="midnightblue" stroke="midnightblue" points="582.64,-46.16 578.93,-56.08 588.02,-50.64 582.64,-46.16"/>
</g>
<!-- Node5 -->
<g id="node5" class="node">
<title>Node5</title>
<g id="a_node5"><a xlink:href="../../df/d0a/main_8cpp.html" target="_top" xlink:title=" ">
<polygon fill="white" stroke="black" points="497.5,-0.5 497.5,-19.5 553.5,-19.5 553.5,-0.5 497.5,-0.5"/>
<text text-anchor="middle" x="525.5" y="-7.5" font-family="Helvetica,sans-Serif" font-size="10.00">main.cpp</text>
</a>
</g>
</g>
<!-- Node3&#45;&gt;Node5 -->
<g id="edge4" class="edge">
<title>Node3&#45;&gt;Node5</title>
<path fill="none" stroke="midnightblue" d="M557.39,-48.43C549.32,-38.97 539.54,-27.48 532.95,-19.75"/>
<polygon fill="midnightblue" stroke="midnightblue" points="554.75,-50.74 563.9,-56.08 560.08,-46.2 554.75,-50.74"/>
</g>
<!-- Node7 -->
<g id="node7" class="node">
<title>Node7</title>
<g id="a_node7"><a xlink:href="../../d0/d89/march_intersections_8cpp.html" target="_top" xlink:title=" ">
<polygon fill="white" stroke="black" points="0,-56.5 0,-75.5 119,-75.5 119,-56.5 0,-56.5"/>
<text text-anchor="middle" x="59.5" y="-63.5" font-family="Helvetica,sans-Serif" font-size="10.00">marchIntersections.cpp</text>
</a>
</g>
</g>
<!-- Node6&#45;&gt;Node7 -->
<g id="edge6" class="edge">
<title>Node6&#45;&gt;Node7</title>
<path fill="none" stroke="midnightblue" d="M141.98,-107.86C121.77,-97.85 94.51,-84.35 76.97,-75.65"/>
<polygon fill="midnightblue" stroke="midnightblue" points="140.47,-111.02 150.99,-112.32 143.58,-104.75 140.47,-111.02"/>
</g>
<!-- Node8&#45;&gt;Node2 -->
<g id="edge10" class="edge">
<title>Node8&#45;&gt;Node2</title>
<path fill="none" stroke="midnightblue" d="M395.35,-127.56C402.38,-129.05 409.74,-130.66 416.5,-132 499.12,-148.38 597.09,-164.27 643.28,-172.05"/>
<polygon fill="midnightblue" stroke="midnightblue" points="395.89,-124.1 385.39,-125.52 394.49,-130.96 395.89,-124.1"/>
</g>
<!-- Node9 -->
<g id="node9" class="node">
<title>Node9</title>
<g id="a_node9"><a xlink:href="../../df/dc9/detect_intersections_8h.html" target="_top" xlink:title=" ">
<polygon fill="white" stroke="black" points="201.5,-56.5 201.5,-75.5 309.5,-75.5 309.5,-56.5 201.5,-56.5"/>
<text text-anchor="middle" x="255.5" y="-63.5" font-family="Helvetica,sans-Serif" font-size="10.00">detectIntersections.h</text>
</a>
</g>
</g>
<!-- Node8&#45;&gt;Node9 -->
<g id="edge8" class="edge">
<title>Node8&#45;&gt;Node9</title>
<path fill="none" stroke="midnightblue" d="M340.25,-107.86C319.48,-97.85 291.48,-84.35 273.45,-75.65"/>
<polygon fill="midnightblue" stroke="midnightblue" points="338.98,-111.13 349.51,-112.32 342.02,-104.83 338.98,-111.13"/>
</g>
<!-- Node11 -->
<g id="node11" class="node">
<title>Node11</title>
<g id="a_node11"><a xlink:href="../../d0/db9/hole_filling_8cpp.html" target="_top" xlink:title=" ">
<polygon fill="white" stroke="black" points="328,-56.5 328,-75.5 407,-75.5 407,-56.5 328,-56.5"/>
<text text-anchor="middle" x="367.5" y="-63.5" font-family="Helvetica,sans-Serif" font-size="10.00">holeFilling.cpp</text>
</a>
</g>
</g>
<!-- Node8&#45;&gt;Node11 -->
<g id="edge11" class="edge">
<title>Node8&#45;&gt;Node11</title>
<path fill="none" stroke="midnightblue" d="M367.5,-101.8C367.5,-92.91 367.5,-82.78 367.5,-75.75"/>
<polygon fill="midnightblue" stroke="midnightblue" points="364,-102.08 367.5,-112.08 371,-102.08 364,-102.08"/>
</g>
<!-- Node12 -->
<g id="node12" class="node">
<title>Node12</title>
<g id="a_node12"><a xlink:href="../../dd/da9/tin_8cpp.html" target="_top" xlink:title=" ">
<polygon fill="white" stroke="black" points="137.5,-56.5 137.5,-75.5 183.5,-75.5 183.5,-56.5 137.5,-56.5"/>
<text text-anchor="middle" x="160.5" y="-63.5" font-family="Helvetica,sans-Serif" font-size="10.00">tin.cpp</text>
</a>
</g>
</g>
<!-- Node8&#45;&gt;Node12 -->
<g id="edge12" class="edge">
<title>Node8&#45;&gt;Node12</title>
<path fill="none" stroke="midnightblue" d="M340.01,-114.13C305.5,-105.47 244.52,-90 192.5,-76 189.6,-75.22 186.56,-74.39 183.55,-73.55"/>
<polygon fill="midnightblue" stroke="midnightblue" points="339.28,-117.56 349.83,-116.6 340.98,-110.77 339.28,-117.56"/>
</g>
<!-- Node10 -->
<g id="node10" class="node">
<title>Node10</title>
<g id="a_node10"><a xlink:href="../../d8/dd7/detect_intersections_8cpp.html" target="_top" xlink:title=" ">
<polygon fill="white" stroke="black" points="196,-0.5 196,-19.5 315,-19.5 315,-0.5 196,-0.5"/>
<text text-anchor="middle" x="255.5" y="-7.5" font-family="Helvetica,sans-Serif" font-size="10.00">detectIntersections.cpp</text>
</a>
</g>
</g>
<!-- Node9&#45;&gt;Node10 -->
<g id="edge9" class="edge">
<title>Node9&#45;&gt;Node10</title>
<path fill="none" stroke="midnightblue" d="M255.5,-45.8C255.5,-36.91 255.5,-26.78 255.5,-19.75"/>
<polygon fill="midnightblue" stroke="midnightblue" points="252,-46.08 255.5,-56.08 259,-46.08 252,-46.08"/>
</g>
<!-- Node13&#45;&gt;Node2 -->
<g id="edge14" class="edge">
<title>Node13&#45;&gt;Node2</title>
<path fill="none" stroke="midnightblue" d="M960.02,-133.44C860.43,-152.53 746.42,-168.13 695.73,-174.24"/>
<polygon fill="midnightblue" stroke="midnightblue" points="960.77,-136.86 969.92,-131.52 959.43,-129.98 960.77,-136.86"/>
</g>
<!-- Node13&#45;&gt;Node14 -->
<g id="edge15" class="edge">
<title>Node13&#45;&gt;Node14</title>
<path fill="none" stroke="midnightblue" d="M1002.36,-102.4C1005.2,-93.36 1008.48,-82.94 1010.75,-75.75"/>
<polygon fill="midnightblue" stroke="midnightblue" points="998.97,-101.49 999.31,-112.08 1005.65,-103.6 998.97,-101.49"/>
</g>
<!-- Node15 -->
<g id="node15" class="node">
<title>Node15</title>
<g id="a_node15"><a xlink:href="../../d6/d4c/triangle_8cpp.html" target="_top" xlink:title=" ">
<polygon fill="white" stroke="black" points="900,-56.5 900,-75.5 967,-75.5 967,-56.5 900,-56.5"/>
<text text-anchor="middle" x="933.5" y="-63.5" font-family="Helvetica,sans-Serif" font-size="10.00">triangle.cpp</text>
</a>
</g>
</g>
<!-- Node13&#45;&gt;Node15 -->
<g id="edge16" class="edge">
<title>Node13&#45;&gt;Node15</title>
<path fill="none" stroke="midnightblue" d="M978.46,-105.54C967.23,-95.91 953.18,-83.87 943.81,-75.83"/>
<polygon fill="midnightblue" stroke="midnightblue" points="976.51,-108.47 986.38,-112.32 981.06,-103.16 976.51,-108.47"/>
</g>
<!-- Node13&#45;&gt;Node16 -->
<g id="edge17" class="edge">
<title>Node13&#45;&gt;Node16</title>
<path fill="none" stroke="midnightblue" d="M1020.56,-107.18C1037.86,-97.24 1060.65,-84.15 1075.43,-75.65"/>
<polygon fill="midnightblue" stroke="midnightblue" points="1018.53,-104.31 1011.6,-112.32 1022.02,-110.38 1018.53,-104.31"/>
</g>
<!-- Node20&#45;&gt;Node3 -->
<g id="edge22" class="edge">
<title>Node20&#45;&gt;Node3</title>
<path fill="none" stroke="midnightblue" d="M594.52,-103.57C588.67,-94.27 581.73,-83.25 577.01,-75.75"/>
<polygon fill="midnightblue" stroke="midnightblue" points="591.6,-105.49 599.89,-112.08 597.52,-101.76 591.6,-105.49"/>
</g>
<!-- Node21 -->
<g id="node21" class="node">
<title>Node21</title>
<g id="a_node21"><a xlink:href="../../d8/d4e/exportopenscadtool_8cpp.html" target="_top" xlink:title=" ">
<polygon fill="white" stroke="black" points="628.5,-56.5 628.5,-75.5 748.5,-75.5 748.5,-56.5 628.5,-56.5"/>
<text text-anchor="middle" x="688.5" y="-63.5" font-family="Helvetica,sans-Serif" font-size="10.00">exportopenscadtool.cpp</text>
</a>
</g>
</g>
<!-- Node20&#45;&gt;Node21 -->
<g id="edge23" class="edge">
<title>Node20&#45;&gt;Node21</title>
<path fill="none" stroke="midnightblue" d="M627.6,-106.62C642.76,-96.76 662.38,-83.99 675.2,-75.65"/>
<polygon fill="midnightblue" stroke="midnightblue" points="625.31,-103.94 618.84,-112.32 629.13,-109.8 625.31,-103.94"/>
</g>
<!-- Node22&#45;&gt;Node3 -->
<g id="edge25" class="edge">
<title>Node22&#45;&gt;Node3</title>
<path fill="none" stroke="midnightblue" d="M483.22,-108.1C504.89,-98.01 534.4,-84.27 553.21,-75.52"/>
<polygon fill="midnightblue" stroke="midnightblue" points="481.47,-105.05 473.88,-112.44 484.42,-111.4 481.47,-105.05"/>
</g>
<!-- Node23 -->
<g id="node23" class="node">
<title>Node23</title>
<g id="a_node23"><a xlink:href="../../de/d8b/exportstltool_8cpp.html" target="_top" xlink:title=" ">
<polygon fill="white" stroke="black" points="425,-56.5 425,-75.5 514,-75.5 514,-56.5 425,-56.5"/>
<text text-anchor="middle" x="469.5" y="-63.5" font-family="Helvetica,sans-Serif" font-size="10.00">exportstltool.cpp</text>
</a>
</g>
</g>
<!-- Node22&#45;&gt;Node23 -->
<g id="edge26" class="edge">
<title>Node22&#45;&gt;Node23</title>
<path fill="none" stroke="midnightblue" d="M460.32,-102.4C462.67,-93.36 465.37,-82.94 467.23,-75.75"/>
<polygon fill="midnightblue" stroke="midnightblue" points="456.93,-101.52 457.81,-112.08 463.71,-103.28 456.93,-101.52"/>
</g>
</g>
</svg>
