<?xml version="1.0" encoding="UTF-8" standalone="no"?>
<!DOCTYPE svg PUBLIC "-//W3C//DTD SVG 1.1//EN"
 "http://www.w3.org/Graphics/SVG/1.1/DTD/svg11.dtd">
<!-- Generated by graphviz version 2.44.1 (0)
 -->
<!-- Title: mainwindow.cpp Pages: 1 -->
<svg width="4705pt" height="151pt"
 viewBox="0.00 0.00 4704.50 151.00" xmlns="http://www.w3.org/2000/svg" xmlns:xlink="http://www.w3.org/1999/xlink">
<g id="graph0" class="graph" transform="scale(1 1) rotate(0) translate(4 147)">
<title>mainwindow.cpp</title>
<polygon fill="white" stroke="transparent" points="-4,4 -4,-147 4700.5,-147 4700.5,4 -4,4"/>
<!-- Node1 -->
<g id="node1" class="node">
<title>Node1</title>
<g id="a_node1"><a xlink:title=" ">
<polygon fill="#bfbfbf" stroke="black" points="2107.5,-123.5 2107.5,-142.5 2196.5,-142.5 2196.5,-123.5 2107.5,-123.5"/>
<text text-anchor="middle" x="2152" y="-130.5" font-family="Helvetica,sans-Serif" font-size="10.00">mainwindow.cpp</text>
</a>
</g>
</g>
<!-- Node2 -->
<g id="node2" class="node">
<title>Node2</title>
<g id="a_node2"><a xlink:href="../../d9/d53/mainwindow_8h.html" target="_top" xlink:title="Qt MainWindow of the application.">
<polygon fill="white" stroke="red" points="2062,-67.5 2062,-86.5 2140,-86.5 2140,-67.5 2062,-67.5"/>
<text text-anchor="middle" x="2101" y="-74.5" font-family="Helvetica,sans-Serif" font-size="10.00">mainwindow.h</text>
</a>
</g>
</g>
<!-- Node1&#45;&gt;Node2 -->
<g id="edge1" class="edge">
<title>Node1&#45;&gt;Node2</title>
<path fill="none" stroke="midnightblue" d="M2143.58,-123.08C2136.15,-115.22 2125.15,-103.57 2116.19,-94.08"/>
<polygon fill="midnightblue" stroke="midnightblue" points="2118.68,-91.62 2109.26,-86.75 2113.59,-96.42 2118.68,-91.62"/>
</g>
<!-- Node377 -->
<g id="node50" class="node">
<title>Node377</title>
<g id="a_node50"><a xlink:title=" ">
<polygon fill="white" stroke="#bfbfbf" points="2158.5,-67.5 2158.5,-86.5 2249.5,-86.5 2249.5,-67.5 2158.5,-67.5"/>
<text text-anchor="middle" x="2204" y="-74.5" font-family="Helvetica,sans-Serif" font-size="10.00">ui_mainwindow.h</text>
</a>
</g>
</g>
<!-- Node1&#45;&gt;Node377 -->
<g id="edge49" class="edge">
<title>Node1&#45;&gt;Node377</title>
<path fill="none" stroke="midnightblue" d="M2160.59,-123.08C2168.16,-115.22 2179.38,-103.57 2188.51,-94.08"/>
<polygon fill="midnightblue" stroke="midnightblue" points="2191.16,-96.38 2195.57,-86.75 2186.12,-91.53 2191.16,-96.38"/>
</g>
<!-- Node3 -->
<g id="node3" class="node">
<title>Node3</title>
<g id="a_node3"><a xlink:title=" ">
<polygon fill="white" stroke="#bfbfbf" points="0,-6 0,-25 56,-25 56,-6 0,-6"/>
<text text-anchor="middle" x="28" y="-13" font-family="Helvetica,sans-Serif" font-size="10.00">algorithm</text>
</a>
</g>
</g>
<!-- Node2&#45;&gt;Node3 -->
<g id="edge2" class="edge">
<title>Node2&#45;&gt;Node3</title>
<path fill="none" stroke="midnightblue" d="M2061.7,-75.96C1796.04,-75.57 267.47,-71.58 65,-31 61.92,-30.38 58.77,-29.53 55.66,-28.54"/>
<polygon fill="midnightblue" stroke="midnightblue" points="56.65,-25.17 46.06,-25.04 54.26,-31.75 56.65,-25.17"/>
</g>
<!-- Node4 -->
<g id="node4" class="node">
<title>Node4</title>
<g id="a_node4"><a xlink:title=" ">
<polygon fill="white" stroke="#bfbfbf" points="74.5,-6 74.5,-25 115.5,-25 115.5,-6 74.5,-6"/>
<text text-anchor="middle" x="95" y="-13" font-family="Helvetica,sans-Serif" font-size="10.00">string</text>
</a>
</g>
</g>
<!-- Node2&#45;&gt;Node4 -->
<g id="edge3" class="edge">
<title>Node2&#45;&gt;Node4</title>
<path fill="none" stroke="midnightblue" d="M2061.99,-76.11C1801.56,-76.69 319.63,-77.91 125,-31 123.02,-30.52 121.01,-29.9 119.03,-29.19"/>
<polygon fill="midnightblue" stroke="midnightblue" points="120.05,-25.81 109.49,-25.04 117.26,-32.23 120.05,-25.81"/>
</g>
<!-- Node5 -->
<g id="node5" class="node">
<title>Node5</title>
<g id="a_node5"><a xlink:title=" ">
<polygon fill="white" stroke="#bfbfbf" points="134,-6 134,-25 186,-25 186,-6 134,-6"/>
<text text-anchor="middle" x="160" y="-13" font-family="Helvetica,sans-Serif" font-size="10.00">memory</text>
</a>
</g>
</g>
<!-- Node2&#45;&gt;Node5 -->
<g id="edge4" class="edge">
<title>Node2&#45;&gt;Node5</title>
<path fill="none" stroke="midnightblue" d="M2061.77,-75.94C1806.27,-75.43 383.54,-70.83 195,-31 192.16,-30.4 189.27,-29.58 186.42,-28.63"/>
<polygon fill="midnightblue" stroke="midnightblue" points="187.63,-25.35 177.04,-25.04 185.13,-31.88 187.63,-25.35"/>
</g>
<!-- Node6 -->
<g id="node6" class="node">
<title>Node6</title>
<g id="a_node6"><a xlink:title=" ">
<polygon fill="white" stroke="#bfbfbf" points="204,-6 204,-25 244,-25 244,-6 204,-6"/>
<text text-anchor="middle" x="224" y="-13" font-family="Helvetica,sans-Serif" font-size="10.00">limits</text>
</a>
</g>
</g>
<!-- Node2&#45;&gt;Node6 -->
<g id="edge5" class="edge">
<title>Node2&#45;&gt;Node6</title>
<path fill="none" stroke="midnightblue" d="M2061.72,-76.07C1810.52,-76.39 434.01,-76.06 253,-31 251.07,-30.52 249.13,-29.9 247.21,-29.18"/>
<polygon fill="midnightblue" stroke="midnightblue" points="248.53,-25.94 237.97,-25.04 245.66,-32.32 248.53,-25.94"/>
</g>
<!-- Node7 -->
<g id="node7" class="node">
<title>Node7</title>
<g id="a_node7"><a xlink:title=" ">
<polygon fill="white" stroke="#bfbfbf" points="262.5,-6 262.5,-25 309.5,-25 309.5,-6 262.5,-6"/>
<text text-anchor="middle" x="286" y="-13" font-family="Helvetica,sans-Serif" font-size="10.00">iterator</text>
</a>
</g>
</g>
<!-- Node2&#45;&gt;Node7 -->
<g id="edge6" class="edge">
<title>Node2&#45;&gt;Node7</title>
<path fill="none" stroke="midnightblue" d="M2061.94,-75.95C1816.61,-75.49 493.15,-71.15 318,-31 315.64,-30.46 313.25,-29.74 310.88,-28.91"/>
<polygon fill="midnightblue" stroke="midnightblue" points="312.09,-25.62 301.51,-25.03 309.42,-32.09 312.09,-25.62"/>
</g>
<!-- Node8 -->
<g id="node8" class="node">
<title>Node8</title>
<g id="a_node8"><a xlink:title=" ">
<polygon fill="white" stroke="#bfbfbf" points="327.5,-6 327.5,-25 356.5,-25 356.5,-6 327.5,-6"/>
<text text-anchor="middle" x="342" y="-13" font-family="Helvetica,sans-Serif" font-size="10.00">list</text>
</a>
</g>
</g>
<!-- Node2&#45;&gt;Node8 -->
<g id="edge7" class="edge">
<title>Node2&#45;&gt;Node8</title>
<path fill="none" stroke="midnightblue" d="M2061.72,-76.23C1819.36,-77.47 532.17,-81.65 365,-31 364.09,-30.72 363.18,-30.4 362.28,-30.04"/>
<polygon fill="midnightblue" stroke="midnightblue" points="363.58,-26.77 353.11,-25.18 360.3,-32.96 363.58,-26.77"/>
</g>
<!-- Node9 -->
<g id="node9" class="node">
<title>Node9</title>
<g id="a_node9"><a xlink:title=" ">
<polygon fill="white" stroke="#bfbfbf" points="374.5,-6 374.5,-25 423.5,-25 423.5,-6 374.5,-6"/>
<text text-anchor="middle" x="399" y="-13" font-family="Helvetica,sans-Serif" font-size="10.00">random</text>
</a>
</g>
</g>
<!-- Node2&#45;&gt;Node9 -->
<g id="edge8" class="edge">
<title>Node2&#45;&gt;Node9</title>
<path fill="none" stroke="midnightblue" d="M2061.83,-75.82C1825.7,-74.63 596.62,-66.74 433,-31 430.33,-30.42 427.61,-29.63 424.92,-28.71"/>
<polygon fill="midnightblue" stroke="midnightblue" points="426.12,-25.42 415.53,-25.02 423.56,-31.94 426.12,-25.42"/>
</g>
<!-- Node10 -->
<g id="node10" class="node">
<title>Node10</title>
<g id="a_node10"><a xlink:title=" ">
<polygon fill="white" stroke="#bfbfbf" points="442,-6 442,-25 488,-25 488,-6 442,-6"/>
<text text-anchor="middle" x="465" y="-13" font-family="Helvetica,sans-Serif" font-size="10.00">chrono</text>
</a>
</g>
</g>
<!-- Node2&#45;&gt;Node10 -->
<g id="edge9" class="edge">
<title>Node2&#45;&gt;Node10</title>
<path fill="none" stroke="midnightblue" d="M2061.84,-75.83C1831.08,-74.69 653.59,-67.13 497,-31 494.64,-30.46 492.25,-29.73 489.88,-28.9"/>
<polygon fill="midnightblue" stroke="midnightblue" points="491.09,-25.61 480.51,-25.02 488.42,-32.08 491.09,-25.61"/>
</g>
<!-- Node11 -->
<g id="node11" class="node">
<title>Node11</title>
<g id="a_node11"><a xlink:title=" ">
<polygon fill="white" stroke="#bfbfbf" points="506.5,-6 506.5,-25 635.5,-25 635.5,-6 506.5,-6"/>
<text text-anchor="middle" x="571" y="-13" font-family="Helvetica,sans-Serif" font-size="10.00">boost/algorithm/string.hpp</text>
</a>
</g>
</g>
<!-- Node2&#45;&gt;Node11 -->
<g id="edge10" class="edge">
<title>Node2&#45;&gt;Node11</title>
<path fill="none" stroke="midnightblue" d="M2061.84,-75.65C1859.53,-73.72 931.02,-63.23 645,-31 636.4,-30.03 627.3,-28.59 618.54,-27"/>
<polygon fill="midnightblue" stroke="midnightblue" points="618.94,-23.51 608.46,-25.07 617.63,-30.39 618.94,-23.51"/>
</g>
<!-- Node12 -->
<g id="node12" class="node">
<title>Node12</title>
<g id="a_node12"><a xlink:title=" ">
<polygon fill="white" stroke="#bfbfbf" points="654,-0.5 654,-30.5 754,-30.5 754,-0.5 654,-0.5"/>
<text text-anchor="start" x="662" y="-18.5" font-family="Helvetica,sans-Serif" font-size="10.00">boost/ptr_container</text>
<text text-anchor="middle" x="704" y="-7.5" font-family="Helvetica,sans-Serif" font-size="10.00">/ptr_vector.hpp</text>
</a>
</g>
</g>
<!-- Node2&#45;&gt;Node12 -->
<g id="edge11" class="edge">
<title>Node2&#45;&gt;Node12</title>
<path fill="none" stroke="midnightblue" d="M2061.86,-75.78C1871.91,-74.54 1044.15,-67.19 764.2,-30.91"/>
<polygon fill="midnightblue" stroke="midnightblue" points="764.45,-27.42 754.08,-29.56 763.52,-34.35 764.45,-27.42"/>
</g>
<!-- Node13 -->
<g id="node13" class="node">
<title>Node13</title>
<g id="a_node13"><a xlink:title=" ">
<polygon fill="white" stroke="#bfbfbf" points="772,-6 772,-25 852,-25 852,-6 772,-6"/>
<text text-anchor="middle" x="812" y="-13" font-family="Helvetica,sans-Serif" font-size="10.00">QMainWindow</text>
</a>
</g>
</g>
<!-- Node2&#45;&gt;Node13 -->
<g id="edge12" class="edge">
<title>Node2&#45;&gt;Node13</title>
<path fill="none" stroke="midnightblue" d="M2061.99,-75.9C1878.52,-75.24 1100.44,-70.13 861,-31 856.17,-30.21 851.14,-29.09 846.22,-27.81"/>
<polygon fill="midnightblue" stroke="midnightblue" points="846.97,-24.38 836.4,-25.03 845.07,-31.12 846.97,-24.38"/>
</g>
<!-- Node14 -->
<g id="node14" class="node">
<title>Node14</title>
<g id="a_node14"><a xlink:title=" ">
<polygon fill="white" stroke="#bfbfbf" points="870.5,-6 870.5,-25 951.5,-25 951.5,-6 870.5,-6"/>
<text text-anchor="middle" x="911" y="-13" font-family="Helvetica,sans-Serif" font-size="10.00">QMessageBox</text>
</a>
</g>
</g>
<!-- Node2&#45;&gt;Node14 -->
<g id="edge13" class="edge">
<title>Node2&#45;&gt;Node14</title>
<path fill="none" stroke="midnightblue" d="M2061.95,-75.76C1887.55,-74.48 1178.95,-67.13 960,-31 955.17,-30.2 950.14,-29.07 945.22,-27.8"/>
<polygon fill="midnightblue" stroke="midnightblue" points="945.97,-24.37 935.4,-25.02 944.07,-31.11 945.97,-24.37"/>
</g>
<!-- Node15 -->
<g id="node15" class="node">
<title>Node15</title>
<g id="a_node15"><a xlink:title=" ">
<polygon fill="white" stroke="#bfbfbf" points="969.5,-6 969.5,-25 1064.5,-25 1064.5,-6 969.5,-6"/>
<text text-anchor="middle" x="1017" y="-13" font-family="Helvetica,sans-Serif" font-size="10.00">QOpenGLContext</text>
</a>
</g>
</g>
<!-- Node2&#45;&gt;Node15 -->
<g id="edge14" class="edge">
<title>Node2&#45;&gt;Node15</title>
<path fill="none" stroke="midnightblue" d="M2061.84,-75.36C1898.38,-72.52 1269.98,-59.91 1074,-31 1068.05,-30.12 1061.81,-28.88 1055.74,-27.49"/>
<polygon fill="midnightblue" stroke="midnightblue" points="1056.31,-24.02 1045.76,-25.04 1054.64,-30.82 1056.31,-24.02"/>
</g>
<!-- Node16 -->
<g id="node16" class="node">
<title>Node16</title>
<g id="a_node16"><a xlink:title=" ">
<polygon fill="white" stroke="#bfbfbf" points="1083,-6 1083,-25 1151,-25 1151,-6 1083,-6"/>
<text text-anchor="middle" x="1117" y="-13" font-family="Helvetica,sans-Serif" font-size="10.00">QFileDialog</text>
</a>
</g>
</g>
<!-- Node2&#45;&gt;Node16 -->
<g id="edge15" class="edge">
<title>Node2&#45;&gt;Node16</title>
<path fill="none" stroke="midnightblue" d="M2061.95,-75.57C1907.26,-73.66 1337.19,-64.44 1160,-31 1156.1,-30.26 1152.08,-29.26 1148.13,-28.12"/>
<polygon fill="midnightblue" stroke="midnightblue" points="1149.15,-24.77 1138.56,-25.07 1147.03,-31.44 1149.15,-24.77"/>
</g>
<!-- Node17 -->
<g id="node17" class="node">
<title>Node17</title>
<g id="a_node17"><a xlink:title=" ">
<polygon fill="white" stroke="#bfbfbf" points="1169,-6 1169,-25 1261,-25 1261,-6 1169,-6"/>
<text text-anchor="middle" x="1215" y="-13" font-family="Helvetica,sans-Serif" font-size="10.00">QDesktopWidget</text>
</a>
</g>
</g>
<!-- Node2&#45;&gt;Node17 -->
<g id="edge16" class="edge">
<title>Node2&#45;&gt;Node17</title>
<path fill="none" stroke="midnightblue" d="M2061.79,-74.94C1918.79,-70.89 1425.57,-55.46 1270,-31 1264.45,-30.13 1258.65,-28.93 1252.99,-27.59"/>
<polygon fill="midnightblue" stroke="midnightblue" points="1253.58,-24.13 1243.03,-25.07 1251.86,-30.91 1253.58,-24.13"/>
</g>
<!-- Node18 -->
<g id="node18" class="node">
<title>Node18</title>
<g id="a_node18"><a xlink:title=" ">
<polygon fill="white" stroke="#bfbfbf" points="1279.5,-6 1279.5,-25 1324.5,-25 1324.5,-6 1279.5,-6"/>
<text text-anchor="middle" x="1302" y="-13" font-family="Helvetica,sans-Serif" font-size="10.00">QRect</text>
</a>
</g>
</g>
<!-- Node2&#45;&gt;Node18 -->
<g id="edge17" class="edge">
<title>Node2&#45;&gt;Node18</title>
<path fill="none" stroke="midnightblue" d="M2061.87,-75.59C1925.83,-73.86 1474.18,-65.61 1334,-31 1331.79,-30.45 1329.54,-29.76 1327.31,-28.97"/>
<polygon fill="midnightblue" stroke="midnightblue" points="1328.44,-25.65 1317.86,-25.07 1325.77,-32.12 1328.44,-25.65"/>
</g>
<!-- Node19 -->
<g id="node19" class="node">
<title>Node19</title>
<g id="a_node19"><a xlink:title=" ">
<polygon fill="white" stroke="#bfbfbf" points="1343,-6 1343,-25 1431,-25 1431,-6 1343,-6"/>
<text text-anchor="middle" x="1387" y="-13" font-family="Helvetica,sans-Serif" font-size="10.00">QScopedPointer</text>
</a>
</g>
</g>
<!-- Node2&#45;&gt;Node19 -->
<g id="edge18" class="edge">
<title>Node2&#45;&gt;Node19</title>
<path fill="none" stroke="midnightblue" d="M2061.94,-76.04C1959.27,-75.57 1673.63,-70.51 1440,-31 1434.78,-30.12 1429.34,-28.94 1424.01,-27.63"/>
<polygon fill="midnightblue" stroke="midnightblue" points="1424.56,-24.16 1414,-25 1422.79,-30.93 1424.56,-24.16"/>
</g>
<!-- Node20 -->
<g id="node20" class="node">
<title>Node20</title>
<g id="a_node20"><a xlink:title=" ">
<polygon fill="white" stroke="#bfbfbf" points="1449,-6 1449,-25 1501,-25 1501,-6 1449,-6"/>
<text text-anchor="middle" x="1475" y="-13" font-family="Helvetica,sans-Serif" font-size="10.00">QVector</text>
</a>
</g>
</g>
<!-- Node2&#45;&gt;Node20 -->
<g id="edge19" class="edge">
<title>Node2&#45;&gt;Node20</title>
<path fill="none" stroke="midnightblue" d="M2061.61,-74.62C1947.03,-70.37 1615.34,-56.15 1510,-31 1507.48,-30.4 1504.91,-29.64 1502.36,-28.78"/>
<polygon fill="midnightblue" stroke="midnightblue" points="1503.39,-25.43 1492.8,-25.15 1500.9,-31.98 1503.39,-25.43"/>
</g>
<!-- Node21 -->
<g id="node21" class="node">
<title>Node21</title>
<g id="a_node21"><a xlink:title=" ">
<polygon fill="white" stroke="#bfbfbf" points="1519,-6 1519,-25 1603,-25 1603,-6 1519,-6"/>
<text text-anchor="middle" x="1561" y="-13" font-family="Helvetica,sans-Serif" font-size="10.00">QElapsedTimer</text>
</a>
</g>
</g>
<!-- Node2&#45;&gt;Node21 -->
<g id="edge20" class="edge">
<title>Node2&#45;&gt;Node21</title>
<path fill="none" stroke="midnightblue" d="M2062,-74.86C1978.7,-71.89 1777.52,-61.87 1612,-31 1607.22,-30.11 1602.24,-28.97 1597.34,-27.72"/>
<polygon fill="midnightblue" stroke="midnightblue" points="1598.08,-24.29 1587.51,-25.04 1596.24,-31.04 1598.08,-24.29"/>
</g>
<!-- Node22 -->
<g id="node22" class="node">
<title>Node22</title>
<g id="a_node22"><a xlink:title=" ">
<polygon fill="white" stroke="#bfbfbf" points="1621.5,-6 1621.5,-25 1758.5,-25 1758.5,-6 1621.5,-6"/>
<text text-anchor="middle" x="1690" y="-13" font-family="Helvetica,sans-Serif" font-size="10.00">QtConcurrent/QtConcurrent</text>
</a>
</g>
</g>
<!-- Node2&#45;&gt;Node22 -->
<g id="edge21" class="edge">
<title>Node2&#45;&gt;Node22</title>
<path fill="none" stroke="midnightblue" d="M2061.95,-71.36C1999.65,-63.81 1873.99,-48 1768,-31 1760.07,-29.73 1751.71,-28.28 1743.52,-26.81"/>
<polygon fill="midnightblue" stroke="midnightblue" points="1744.13,-23.36 1733.66,-25.01 1742.87,-30.25 1744.13,-23.36"/>
</g>
<!-- Node23 -->
<g id="node23" class="node">
<title>Node23</title>
<g id="a_node23"><a xlink:title=" ">
<polygon fill="white" stroke="#bfbfbf" points="1777,-6 1777,-25 1831,-25 1831,-6 1777,-6"/>
<text text-anchor="middle" x="1804" y="-13" font-family="Helvetica,sans-Serif" font-size="10.00">QThread</text>
</a>
</g>
</g>
<!-- Node2&#45;&gt;Node23 -->
<g id="edge22" class="edge">
<title>Node2&#45;&gt;Node23</title>
<path fill="none" stroke="midnightblue" d="M2061.95,-71.89C2010.41,-65.87 1917.18,-52.93 1840,-31 1837.56,-30.31 1835.06,-29.5 1832.57,-28.64"/>
<polygon fill="midnightblue" stroke="midnightblue" points="1833.76,-25.35 1823.17,-25.1 1831.29,-31.9 1833.76,-25.35"/>
</g>
<!-- Node24 -->
<g id="node24" class="node">
<title>Node24</title>
<g id="a_node24"><a xlink:title=" ">
<polygon fill="white" stroke="#bfbfbf" points="1849.5,-6 1849.5,-25 1940.5,-25 1940.5,-6 1849.5,-6"/>
<text text-anchor="middle" x="1895" y="-13" font-family="Helvetica,sans-Serif" font-size="10.00">QProgressDialog</text>
</a>
</g>
</g>
<!-- Node2&#45;&gt;Node24 -->
<g id="edge23" class="edge">
<title>Node2&#45;&gt;Node24</title>
<path fill="none" stroke="midnightblue" d="M2071.49,-67.48C2035.38,-57.05 1974.15,-39.36 1934.15,-27.81"/>
<polygon fill="midnightblue" stroke="midnightblue" points="1935.04,-24.42 1924.46,-25.01 1933.1,-31.15 1935.04,-24.42"/>
</g>
<!-- Node25 -->
<g id="node25" class="node">
<title>Node25</title>
<g id="a_node25"><a xlink:title=" ">
<polygon fill="white" stroke="#bfbfbf" points="1959,-6 1959,-25 2033,-25 2033,-6 1959,-6"/>
<text text-anchor="middle" x="1996" y="-13" font-family="Helvetica,sans-Serif" font-size="10.00">QTextStream</text>
</a>
</g>
</g>
<!-- Node2&#45;&gt;Node25 -->
<g id="edge24" class="edge">
<title>Node2&#45;&gt;Node25</title>
<path fill="none" stroke="midnightblue" d="M2085.96,-67.48C2068.72,-57.71 2040.26,-41.58 2019.97,-30.08"/>
<polygon fill="midnightblue" stroke="midnightblue" points="2021.44,-26.89 2011.02,-25.01 2017.99,-32.98 2021.44,-26.89"/>
</g>
<!-- Node26 -->
<g id="node26" class="node">
<title>Node26</title>
<g id="a_node26"><a xlink:title=" ">
<polygon fill="white" stroke="#bfbfbf" points="2051.5,-6 2051.5,-25 2150.5,-25 2150.5,-6 2051.5,-6"/>
<text text-anchor="middle" x="2101" y="-13" font-family="Helvetica,sans-Serif" font-size="10.00">QDesktopServices</text>
</a>
</g>
</g>
<!-- Node2&#45;&gt;Node26 -->
<g id="edge25" class="edge">
<title>Node2&#45;&gt;Node26</title>
<path fill="none" stroke="midnightblue" d="M2101,-67.48C2101,-59.08 2101,-45.98 2101,-35.16"/>
<polygon fill="midnightblue" stroke="midnightblue" points="2104.5,-35.01 2101,-25.01 2097.5,-35.01 2104.5,-35.01"/>
</g>
<!-- Node27 -->
<g id="node27" class="node">
<title>Node27</title>
<g id="a_node27"><a xlink:title=" ">
<polygon fill="white" stroke="#bfbfbf" points="2169,-6 2169,-25 2229,-25 2229,-6 2169,-6"/>
<text text-anchor="middle" x="2199" y="-13" font-family="Helvetica,sans-Serif" font-size="10.00">QSettings</text>
</a>
</g>
</g>
<!-- Node2&#45;&gt;Node27 -->
<g id="edge26" class="edge">
<title>Node2&#45;&gt;Node27</title>
<path fill="none" stroke="midnightblue" d="M2115.04,-67.48C2131.05,-57.75 2157.45,-41.73 2176.37,-30.24"/>
<polygon fill="midnightblue" stroke="midnightblue" points="2178.25,-33.19 2184.99,-25.01 2174.62,-27.21 2178.25,-33.19"/>
</g>
<!-- Node28 -->
<g id="node28" class="node">
<title>Node28</title>
<g id="a_node28"><a xlink:title=" ">
<polygon fill="white" stroke="#bfbfbf" points="2247.5,-6 2247.5,-25 2302.5,-25 2302.5,-6 2247.5,-6"/>
<text text-anchor="middle" x="2275" y="-13" font-family="Helvetica,sans-Serif" font-size="10.00">QtGlobal</text>
</a>
</g>
</g>
<!-- Node2&#45;&gt;Node28 -->
<g id="edge27" class="edge">
<title>Node2&#45;&gt;Node28</title>
<path fill="none" stroke="midnightblue" d="M2128.45,-67.48C2156.22,-58.75 2200.31,-44.56 2238,-31 2239.9,-30.32 2241.85,-29.6 2243.81,-28.87"/>
<polygon fill="midnightblue" stroke="midnightblue" points="2245.47,-31.98 2253.56,-25.14 2242.97,-25.44 2245.47,-31.98"/>
</g>
<!-- Node29 -->
<g id="node29" class="node">
<title>Node29</title>
<g id="a_node29"><a xlink:title=" ">
<polygon fill="white" stroke="#bfbfbf" points="2320.5,-6 2320.5,-25 2445.5,-25 2445.5,-6 2320.5,-6"/>
<text text-anchor="middle" x="2383" y="-13" font-family="Helvetica,sans-Serif" font-size="10.00">vtksys/SystemTools.hxx</text>
</a>
</g>
</g>
<!-- Node2&#45;&gt;Node29 -->
<g id="edge28" class="edge">
<title>Node2&#45;&gt;Node29</title>
<path fill="none" stroke="midnightblue" d="M2140.21,-67.73C2190.36,-57.15 2277.3,-38.8 2332.39,-27.18"/>
<polygon fill="midnightblue" stroke="midnightblue" points="2333.23,-30.58 2342.3,-25.09 2331.79,-23.73 2333.23,-30.58"/>
</g>
<!-- Node30 -->
<g id="node30" class="node">
<title>Node30</title>
<g id="a_node30"><a xlink:title=" ">
<polygon fill="white" stroke="#bfbfbf" points="2464,-6 2464,-25 2522,-25 2522,-6 2464,-6"/>
<text text-anchor="middle" x="2493" y="-13" font-family="Helvetica,sans-Serif" font-size="10.00">vtkNew.h</text>
</a>
</g>
</g>
<!-- Node2&#45;&gt;Node30 -->
<g id="edge29" class="edge">
<title>Node2&#45;&gt;Node30</title>
<path fill="none" stroke="midnightblue" d="M2140.01,-68.6C2143.39,-68.03 2146.75,-67.49 2150,-67 2284.97,-46.66 2322.45,-63.58 2455,-31 2457.83,-30.3 2460.73,-29.46 2463.61,-28.52"/>
<polygon fill="midnightblue" stroke="midnightblue" points="2464.93,-31.77 2473.18,-25.12 2462.59,-25.18 2464.93,-31.77"/>
</g>
<!-- Node31 -->
<g id="node31" class="node">
<title>Node31</title>
<g id="a_node31"><a xlink:title=" ">
<polygon fill="white" stroke="#bfbfbf" points="2540.5,-6 2540.5,-25 2635.5,-25 2635.5,-6 2540.5,-6"/>
<text text-anchor="middle" x="2588" y="-13" font-family="Helvetica,sans-Serif" font-size="10.00">vtkSmartPointer.h</text>
</a>
</g>
</g>
<!-- Node2&#45;&gt;Node31 -->
<g id="edge30" class="edge">
<title>Node2&#45;&gt;Node31</title>
<path fill="none" stroke="midnightblue" d="M2140.27,-68.48C2143.55,-67.94 2146.83,-67.44 2150,-67 2318.47,-43.61 2363.41,-60.05 2531,-31 2536.53,-30.04 2542.32,-28.82 2548,-27.51"/>
<polygon fill="midnightblue" stroke="midnightblue" points="2549.13,-30.83 2558.01,-25.05 2547.47,-24.03 2549.13,-30.83"/>
</g>
<!-- Node32 -->
<g id="node32" class="node">
<title>Node32</title>
<g id="a_node32"><a xlink:title=" ">
<polygon fill="white" stroke="#bfbfbf" points="2653.5,-6 2653.5,-25 2764.5,-25 2764.5,-6 2653.5,-6"/>
<text text-anchor="middle" x="2709" y="-13" font-family="Helvetica,sans-Serif" font-size="10.00">vtkPolyDataMapper.h</text>
</a>
</g>
</g>
<!-- Node2&#45;&gt;Node32 -->
<g id="edge31" class="edge">
<title>Node2&#45;&gt;Node32</title>
<path fill="none" stroke="midnightblue" d="M2140.26,-68.4C2143.55,-67.88 2146.83,-67.41 2150,-67 2368.8,-39.03 2426.82,-63.46 2645,-31 2651.74,-30 2658.82,-28.67 2665.72,-27.23"/>
<polygon fill="midnightblue" stroke="midnightblue" points="2666.61,-30.62 2675.63,-25.06 2665.11,-23.78 2666.61,-30.62"/>
</g>
<!-- Node33 -->
<g id="node33" class="node">
<title>Node33</title>
<g id="a_node33"><a xlink:title=" ">
<polygon fill="white" stroke="#bfbfbf" points="2783,-6 2783,-25 2857,-25 2857,-6 2783,-6"/>
<text text-anchor="middle" x="2820" y="-13" font-family="Helvetica,sans-Serif" font-size="10.00">vtkProperty.h</text>
</a>
</g>
</g>
<!-- Node2&#45;&gt;Node33 -->
<g id="edge32" class="edge">
<title>Node2&#45;&gt;Node33</title>
<path fill="none" stroke="midnightblue" d="M2140.25,-68.35C2143.54,-67.84 2146.82,-67.38 2150,-67 2425.81,-33.84 2500.77,-81.14 2774,-31 2778.26,-30.22 2782.68,-29.16 2787.02,-27.97"/>
<polygon fill="midnightblue" stroke="midnightblue" points="2788.31,-31.24 2796.88,-25.02 2786.3,-24.53 2788.31,-31.24"/>
</g>
<!-- Node34 -->
<g id="node34" class="node">
<title>Node34</title>
<g id="a_node34"><a xlink:title=" ">
<polygon fill="white" stroke="#bfbfbf" points="2875,-6 2875,-25 2937,-25 2937,-6 2875,-6"/>
<text text-anchor="middle" x="2906" y="-13" font-family="Helvetica,sans-Serif" font-size="10.00">vtkActor.h</text>
</a>
</g>
</g>
<!-- Node2&#45;&gt;Node34 -->
<g id="edge33" class="edge">
<title>Node2&#45;&gt;Node34</title>
<path fill="none" stroke="midnightblue" d="M2140.25,-68.32C2143.54,-67.82 2146.82,-67.37 2150,-67 2466.49,-30.14 2553.66,-93.99 2866,-31 2869.43,-30.31 2872.97,-29.37 2876.45,-28.31"/>
<polygon fill="midnightblue" stroke="midnightblue" points="2877.64,-31.6 2885.99,-25.07 2875.39,-24.97 2877.64,-31.6"/>
</g>
<!-- Node35 -->
<g id="node35" class="node">
<title>Node35</title>
<g id="a_node35"><a xlink:title=" ">
<polygon fill="white" stroke="#bfbfbf" points="2955,-6 2955,-25 3033,-25 3033,-6 2955,-6"/>
<text text-anchor="middle" x="2994" y="-13" font-family="Helvetica,sans-Serif" font-size="10.00">vtkRenderer.h</text>
</a>
</g>
</g>
<!-- Node2&#45;&gt;Node35 -->
<g id="edge34" class="edge">
<title>Node2&#45;&gt;Node35</title>
<path fill="none" stroke="midnightblue" d="M2140.24,-68.3C2143.54,-67.81 2146.82,-67.36 2150,-67 2501.86,-26.92 2596.92,-90.66 2946,-31 2950.56,-30.22 2955.3,-29.14 2959.95,-27.91"/>
<polygon fill="midnightblue" stroke="midnightblue" points="2961.22,-31.19 2969.86,-25.07 2959.28,-24.46 2961.22,-31.19"/>
</g>
<!-- Node36 -->
<g id="node36" class="node">
<title>Node36</title>
<g id="a_node36"><a xlink:title=" ">
<polygon fill="white" stroke="#bfbfbf" points="3051,-6 3051,-25 3155,-25 3155,-6 3051,-6"/>
<text text-anchor="middle" x="3103" y="-13" font-family="Helvetica,sans-Serif" font-size="10.00">vtkRenderWindow.h</text>
</a>
</g>
</g>
<!-- Node2&#45;&gt;Node36 -->
<g id="edge35" class="edge">
<title>Node2&#45;&gt;Node36</title>
<path fill="none" stroke="midnightblue" d="M2140.24,-68.29C2143.53,-67.79 2146.82,-67.35 2150,-67 2544.33,-23.05 2648.94,-85.13 3042,-31 3048.51,-30.1 3055.34,-28.82 3061.98,-27.39"/>
<polygon fill="midnightblue" stroke="midnightblue" points="3063.22,-30.7 3072.19,-25.05 3061.66,-23.87 3063.22,-30.7"/>
</g>
<!-- Node37 -->
<g id="node37" class="node">
<title>Node37</title>
<g id="a_node37"><a xlink:title=" ">
<polygon fill="white" stroke="#bfbfbf" points="3173.5,-6 3173.5,-25 3246.5,-25 3246.5,-6 3173.5,-6"/>
<text text-anchor="middle" x="3210" y="-13" font-family="Helvetica,sans-Serif" font-size="10.00">vtkCamera.h</text>
</a>
</g>
</g>
<!-- Node2&#45;&gt;Node37 -->
<g id="edge36" class="edge">
<title>Node2&#45;&gt;Node37</title>
<path fill="none" stroke="midnightblue" d="M2140.24,-68.27C2143.53,-67.78 2146.82,-67.35 2150,-67 2598.3,-18.14 2719.58,-107.48 3164,-31 3168.27,-30.27 3172.69,-29.23 3177.03,-28.06"/>
<polygon fill="midnightblue" stroke="midnightblue" points="3178.32,-31.33 3186.9,-25.12 3176.32,-24.62 3178.32,-31.33"/>
</g>
<!-- Node38 -->
<g id="node38" class="node">
<title>Node38</title>
<g id="a_node38"><a xlink:title=" ">
<polygon fill="white" stroke="#bfbfbf" points="3264.5,-6 3264.5,-25 3343.5,-25 3343.5,-6 3264.5,-6"/>
<text text-anchor="middle" x="3304" y="-13" font-family="Helvetica,sans-Serif" font-size="10.00">vtkPolyData.h</text>
</a>
</g>
</g>
<!-- Node2&#45;&gt;Node38 -->
<g id="edge37" class="edge">
<title>Node2&#45;&gt;Node38</title>
<path fill="none" stroke="midnightblue" d="M2140.24,-68.26C2143.53,-67.77 2146.82,-67.34 2150,-67 2639,-14.43 2770.7,-110.79 3256,-31 3260.57,-30.25 3265.31,-29.18 3269.96,-27.97"/>
<polygon fill="midnightblue" stroke="midnightblue" points="3271.22,-31.25 3279.87,-25.13 3269.29,-24.52 3271.22,-31.25"/>
</g>
<!-- Node39 -->
<g id="node39" class="node">
<title>Node39</title>
<g id="a_node39"><a xlink:title=" ">
<polygon fill="white" stroke="#bfbfbf" points="3361.5,-6 3361.5,-25 3508.5,-25 3508.5,-6 3361.5,-6"/>
<text text-anchor="middle" x="3435" y="-13" font-family="Helvetica,sans-Serif" font-size="10.00">vtkAbstractPolyDataReader.h</text>
</a>
</g>
</g>
<!-- Node2&#45;&gt;Node39 -->
<g id="edge38" class="edge">
<title>Node2&#45;&gt;Node39</title>
<path fill="none" stroke="midnightblue" d="M2140.24,-68.25C2143.53,-67.77 2146.82,-67.34 2150,-67 2681.92,-10.52 2820.9,-85.71 3353,-31 3362.92,-29.98 3373.45,-28.46 3383.54,-26.77"/>
<polygon fill="midnightblue" stroke="midnightblue" points="3384.2,-30.21 3393.45,-25.05 3383,-23.32 3384.2,-30.21"/>
</g>
<!-- Node40 -->
<g id="node40" class="node">
<title>Node40</title>
<g id="a_node40"><a xlink:title=" ">
<polygon fill="white" stroke="#bfbfbf" points="3527,-6 3527,-25 3615,-25 3615,-6 3527,-6"/>
<text text-anchor="middle" x="3571" y="-13" font-family="Helvetica,sans-Serif" font-size="10.00">vtkSTLReader.h</text>
</a>
</g>
</g>
<!-- Node2&#45;&gt;Node40 -->
<g id="edge39" class="edge">
<title>Node2&#45;&gt;Node40</title>
<path fill="none" stroke="midnightblue" d="M2140.24,-68.24C2143.53,-67.76 2146.82,-67.33 2150,-67 2754.93,-3.87 2916.32,-119.89 3518,-31 3523.49,-30.19 3529.21,-29 3534.79,-27.64"/>
<polygon fill="midnightblue" stroke="midnightblue" points="3535.79,-31 3544.58,-25.07 3534.01,-24.23 3535.79,-31"/>
</g>
<!-- Node41 -->
<g id="node41" class="node">
<title>Node41</title>
<g id="a_node41"><a xlink:title=" ">
<polygon fill="white" stroke="#bfbfbf" points="3632.5,-6 3632.5,-25 3721.5,-25 3721.5,-6 3632.5,-6"/>
<text text-anchor="middle" x="3677" y="-13" font-family="Helvetica,sans-Serif" font-size="10.00">vtkOBJReader.h</text>
</a>
</g>
</g>
<!-- Node2&#45;&gt;Node41 -->
<g id="edge40" class="edge">
<title>Node2&#45;&gt;Node41</title>
<path fill="none" stroke="midnightblue" d="M2140.24,-68.23C2143.53,-67.75 2146.82,-67.33 2150,-67 2475.92,-33.3 3299.82,-78.58 3624,-31 3629.55,-30.19 3635.34,-28.98 3640.97,-27.61"/>
<polygon fill="midnightblue" stroke="midnightblue" points="3642.07,-30.94 3650.85,-25.01 3640.29,-24.17 3642.07,-30.94"/>
</g>
<!-- Node42 -->
<g id="node42" class="node">
<title>Node42</title>
<g id="a_node42"><a xlink:title=" ">
<polygon fill="white" stroke="#bfbfbf" points="3739,-6 3739,-25 3827,-25 3827,-6 3739,-6"/>
<text text-anchor="middle" x="3783" y="-13" font-family="Helvetica,sans-Serif" font-size="10.00">vtkPLYReader.h</text>
</a>
</g>
</g>
<!-- Node2&#45;&gt;Node42 -->
<g id="edge41" class="edge">
<title>Node2&#45;&gt;Node42</title>
<path fill="none" stroke="midnightblue" d="M2140.24,-68.23C2143.53,-67.75 2146.82,-67.33 2150,-67 2499.59,-31.14 3383.38,-82.6 3731,-31 3736.45,-30.19 3742.13,-28.99 3747.66,-27.62"/>
<polygon fill="midnightblue" stroke="midnightblue" points="3748.6,-30.99 3757.35,-25.02 3746.79,-24.23 3748.6,-30.99"/>
</g>
<!-- Node43 -->
<g id="node43" class="node">
<title>Node43</title>
<g id="a_node43"><a xlink:title=" ">
<polygon fill="white" stroke="#bfbfbf" points="3845,-6 3845,-25 3939,-25 3939,-6 3845,-6"/>
<text text-anchor="middle" x="3892" y="-13" font-family="Helvetica,sans-Serif" font-size="10.00">vtkPlaneSource.h</text>
</a>
</g>
</g>
<!-- Node2&#45;&gt;Node43 -->
<g id="edge42" class="edge">
<title>Node2&#45;&gt;Node43</title>
<path fill="none" stroke="midnightblue" d="M2140.24,-68.22C2143.53,-67.74 2146.82,-67.32 2150,-67 2522.82,-29.03 3464.78,-82.31 3836,-31 3841.99,-30.17 3848.26,-28.93 3854.35,-27.52"/>
<polygon fill="midnightblue" stroke="midnightblue" points="3855.49,-30.84 3864.34,-25.02 3853.79,-24.05 3855.49,-30.84"/>
</g>
<!-- Node44 -->
<g id="node44" class="node">
<title>Node44</title>
<g id="a_node44"><a xlink:title=" ">
<polygon fill="white" stroke="#bfbfbf" points="3957.5,-6 3957.5,-25 4082.5,-25 4082.5,-6 3957.5,-6"/>
<text text-anchor="middle" x="4020" y="-13" font-family="Helvetica,sans-Serif" font-size="10.00">vtkTextureMapToPlane.h</text>
</a>
</g>
</g>
<!-- Node2&#45;&gt;Node44 -->
<g id="edge43" class="edge">
<title>Node2&#45;&gt;Node44</title>
<path fill="none" stroke="midnightblue" d="M2140.23,-68.22C2143.53,-67.74 2146.82,-67.32 2150,-67 2945.21,13.46 3153.5,-118.25 3948,-31 3956.47,-30.07 3965.43,-28.64 3974.04,-27.03"/>
<polygon fill="midnightblue" stroke="midnightblue" points="3974.8,-30.44 3983.94,-25.08 3973.45,-23.58 3974.8,-30.44"/>
</g>
<!-- Node45 -->
<g id="node45" class="node">
<title>Node45</title>
<g id="a_node45"><a xlink:title=" ">
<polygon fill="white" stroke="#bfbfbf" points="4100.5,-6 4100.5,-25 4205.5,-25 4205.5,-6 4100.5,-6"/>
<text text-anchor="middle" x="4153" y="-13" font-family="Helvetica,sans-Serif" font-size="10.00">vtkCylinderSource.h</text>
</a>
</g>
</g>
<!-- Node2&#45;&gt;Node45 -->
<g id="edge44" class="edge">
<title>Node2&#45;&gt;Node45</title>
<path fill="none" stroke="midnightblue" d="M2140.23,-68.21C2143.53,-67.74 2146.82,-67.32 2150,-67 2579.47,-23.87 3663.79,-85.22 4092,-31 4098.82,-30.14 4105.99,-28.82 4112.92,-27.32"/>
<polygon fill="midnightblue" stroke="midnightblue" points="4113.87,-30.69 4122.83,-25.03 4112.3,-23.87 4113.87,-30.69"/>
</g>
<!-- Node46 -->
<g id="node46" class="node">
<title>Node46</title>
<g id="a_node46"><a xlink:title=" ">
<polygon fill="white" stroke="#bfbfbf" points="4224,-6 4224,-25 4346,-25 4346,-6 4224,-6"/>
<text text-anchor="middle" x="4285" y="-13" font-family="Helvetica,sans-Serif" font-size="10.00">vtkOpenGLFXAAFilter.h</text>
</a>
</g>
</g>
<!-- Node2&#45;&gt;Node46 -->
<g id="edge45" class="edge">
<title>Node2&#45;&gt;Node46</title>
<path fill="none" stroke="midnightblue" d="M2140.23,-68.21C2143.53,-67.73 2146.82,-67.32 2150,-67 3063.37,24.22 3302.72,-132.54 4215,-31 4223.24,-30.08 4231.95,-28.66 4240.32,-27.05"/>
<polygon fill="midnightblue" stroke="midnightblue" points="4241.21,-30.44 4250.31,-25.02 4239.82,-23.58 4241.21,-30.44"/>
</g>
<!-- Node47 -->
<g id="node47" class="node">
<title>Node47</title>
<g id="a_node47"><a xlink:title=" ">
<polygon fill="white" stroke="#bfbfbf" points="4364,-6 4364,-25 4448,-25 4448,-6 4364,-6"/>
<text text-anchor="middle" x="4406" y="-13" font-family="Helvetica,sans-Serif" font-size="10.00">vtkAxesActor.h</text>
</a>
</g>
</g>
<!-- Node2&#45;&gt;Node47 -->
<g id="edge46" class="edge">
<title>Node2&#45;&gt;Node47</title>
<path fill="none" stroke="midnightblue" d="M2140.23,-68.2C2143.53,-67.73 2146.82,-67.32 2150,-67 2637.67,-18.57 3870.2,-102.62 4355,-31 4360.22,-30.23 4365.65,-29.08 4370.95,-27.75"/>
<polygon fill="midnightblue" stroke="midnightblue" points="4372.13,-31.06 4380.86,-25.05 4370.29,-24.3 4372.13,-31.06"/>
</g>
<!-- Node48 -->
<g id="node48" class="node">
<title>Node48</title>
<g id="a_node48"><a xlink:title=" ">
<polygon fill="white" stroke="#bfbfbf" points="4466.5,-6 4466.5,-25 4595.5,-25 4595.5,-6 4466.5,-6"/>
<text text-anchor="middle" x="4531" y="-13" font-family="Helvetica,sans-Serif" font-size="10.00">vtkAnnotatedCubeActor.h</text>
</a>
</g>
</g>
<!-- Node2&#45;&gt;Node48 -->
<g id="edge47" class="edge">
<title>Node2&#45;&gt;Node48</title>
<path fill="none" stroke="midnightblue" d="M2140.23,-68.2C2143.53,-67.73 2146.82,-67.32 2150,-67 2660.24,-16.51 3947.07,-84.51 4457,-31 4465.89,-30.07 4475.31,-28.6 4484.33,-26.95"/>
<polygon fill="midnightblue" stroke="midnightblue" points="4485.15,-30.36 4494.31,-25.03 4483.83,-23.48 4485.15,-30.36"/>
</g>
<!-- Node49 -->
<g id="node49" class="node">
<title>Node49</title>
<g id="a_node49"><a xlink:title=" ">
<polygon fill="white" stroke="#bfbfbf" points="4613.5,-6 4613.5,-25 4696.5,-25 4696.5,-6 4613.5,-6"/>
<text text-anchor="middle" x="4655" y="-13" font-family="Helvetica,sans-Serif" font-size="10.00">vtkTransform.h</text>
</a>
</g>
</g>
<!-- Node2&#45;&gt;Node49 -->
<g id="edge48" class="edge">
<title>Node2&#45;&gt;Node49</title>
<path fill="none" stroke="midnightblue" d="M2140.23,-68.2C2143.53,-67.72 2146.82,-67.31 2150,-67 2692.99,-13.53 4065.39,-111.7 4605,-31 4610.12,-30.23 4615.45,-29.09 4620.65,-27.76"/>
<polygon fill="midnightblue" stroke="midnightblue" points="4621.67,-31.11 4630.37,-25.06 4619.8,-24.37 4621.67,-31.11"/>
</g>
</g>
</svg>
