<?xml version="1.0" encoding="UTF-8" standalone="no"?>
<!DOCTYPE svg PUBLIC "-//W3C//DTD SVG 1.1//EN"
 "http://www.w3.org/Graphics/SVG/1.1/DTD/svg11.dtd">
<!-- Generated by graphviz version 2.44.0 (0)
 -->
<!-- Title: Utils::idx Pages: 1 -->
<svg width="782pt" height="751pt"
 viewBox="0.00 0.00 782.00 750.50" xmlns="http://www.w3.org/2000/svg" xmlns:xlink="http://www.w3.org/1999/xlink">
<g id="graph0" class="graph" transform="scale(1 1) rotate(0) translate(4 746.5)">
<title>Utils::idx</title>
<polygon fill="white" stroke="transparent" points="-4,4 -4,-746.5 778,-746.5 778,4 -4,4"/>
<!-- Node1 -->
<g id="node1" class="node">
<title>Node1</title>
<g id="a_node1"><a xlink:title="Compute 1D linearized index from 3D&#45;coodinate index.">
<polygon fill="#bfbfbf" stroke="black" points="718,-362 718,-381 774,-381 774,-362 718,-362"/>
<text text-anchor="middle" x="746" y="-369" font-family="Helvetica,sans-Serif" font-size="10.00">Utils::idx</text>
</a>
</g>
</g>
<!-- Node2 -->
<g id="node2" class="node">
<title>Node2</title>
<g id="a_node2"><a xlink:href="../../df/dfa/class_autowire_tool.html#a45e5cdff2b089a3594c38021ef5d27a7" target="_top" xlink:title="Add wiring geometry of a connection to the scene (tubes)">
<polygon fill="white" stroke="black" points="328,-468 328,-487 472,-487 472,-468 328,-468"/>
<text text-anchor="middle" x="400" y="-475" font-family="Helvetica,sans-Serif" font-size="10.00">AutowireTool::addConnection</text>
</a>
</g>
</g>
<!-- Node1&#45;&gt;Node2 -->
<g id="edge1" class="edge">
<title>Node1&#45;&gt;Node2</title>
<path fill="none" stroke="midnightblue" d="M743.75,-391.31C740.37,-425.89 727.9,-496.53 682,-527.5 595.33,-585.97 460.64,-514.09 415.96,-487.01"/>
<polygon fill="midnightblue" stroke="midnightblue" points="747.26,-391.32 744.58,-381.07 740.28,-390.75 747.26,-391.32"/>
</g>
<!-- Node4 -->
<g id="node4" class="node">
<title>Node4</title>
<g id="a_node4"><a xlink:href="../../df/dfa/class_autowire_tool.html#a68dc0be6807c61b742a319c4f1509a0f" target="_top" xlink:title="Add wiring geometry of a connection to the scene (cubes)">
<polygon fill="white" stroke="black" points="525,-673.5 525,-703.5 669,-703.5 669,-673.5 525,-673.5"/>
<text text-anchor="start" x="533" y="-691.5" font-family="Helvetica,sans-Serif" font-size="10.00">AutowireTool::addConnection</text>
<text text-anchor="middle" x="597" y="-680.5" font-family="Helvetica,sans-Serif" font-size="10.00">Cubes</text>
</a>
</g>
</g>
<!-- Node1&#45;&gt;Node4 -->
<g id="edge3" class="edge">
<title>Node1&#45;&gt;Node4</title>
<path fill="none" stroke="midnightblue" d="M743.35,-391.42C738.05,-450.7 719.57,-624.34 682,-664.5 678.27,-668.49 673.93,-671.83 669.22,-674.62"/>
<polygon fill="midnightblue" stroke="midnightblue" points="746.86,-391.43 744.24,-381.16 739.89,-390.82 746.86,-391.43"/>
</g>
<!-- Node5 -->
<g id="node5" class="node">
<title>Node5</title>
<g id="a_node5"><a xlink:href="../../d0/d9c/class_mesh_sampler.html#a13959e3407c6565147a814657c86311d" target="_top" xlink:title=" ">
<polygon fill="white" stroke="black" points="518,-624.5 518,-654.5 676,-654.5 676,-624.5 518,-624.5"/>
<text text-anchor="start" x="526" y="-642.5" font-family="Helvetica,sans-Serif" font-size="10.00">MeshSampler::generateSamples</text>
<text text-anchor="middle" x="597" y="-631.5" font-family="Helvetica,sans-Serif" font-size="10.00">OnMesh</text>
</a>
</g>
</g>
<!-- Node1&#45;&gt;Node5 -->
<g id="edge4" class="edge">
<title>Node1&#45;&gt;Node5</title>
<path fill="none" stroke="midnightblue" d="M742.46,-391.11C735.35,-443.16 713.65,-583.03 682,-615.5 678.72,-618.87 675,-621.77 671,-624.27"/>
<polygon fill="midnightblue" stroke="midnightblue" points="745.94,-391.53 743.79,-381.15 739,-390.6 745.94,-391.53"/>
</g>
<!-- Node6 -->
<g id="node6" class="node">
<title>Node6</title>
<g id="a_node6"><a xlink:href="../../d0/d9c/class_mesh_sampler.html#a763898864ad49b1d1dc84deafaf01b6b" target="_top" xlink:title=" ">
<polygon fill="white" stroke="black" points="518,-575.5 518,-605.5 676,-605.5 676,-575.5 518,-575.5"/>
<text text-anchor="start" x="526" y="-593.5" font-family="Helvetica,sans-Serif" font-size="10.00">MeshSampler::generateSamples</text>
<text text-anchor="middle" x="597" y="-582.5" font-family="Helvetica,sans-Serif" font-size="10.00">OnMeshSq</text>
</a>
</g>
</g>
<!-- Node1&#45;&gt;Node6 -->
<g id="edge5" class="edge">
<title>Node1&#45;&gt;Node6</title>
<path fill="none" stroke="midnightblue" d="M743.92,-391.52C740.8,-429.57 728.7,-512.79 682,-560.5 676.04,-566.59 668.77,-571.44 661.02,-575.32"/>
<polygon fill="midnightblue" stroke="midnightblue" points="747.43,-391.47 744.63,-381.25 740.45,-390.98 747.43,-391.47"/>
</g>
<!-- Node7 -->
<g id="node7" class="node">
<title>Node7</title>
<g id="a_node7"><a xlink:href="../../d6/db5/class_scene.html#a9d34f7a775d90ec0edfec76112024eb2" target="_top" xlink:title="Return the component with a given id.">
<polygon fill="white" stroke="black" points="540,-723 540,-742 654,-742 654,-723 540,-723"/>
<text text-anchor="middle" x="597" y="-730" font-family="Helvetica,sans-Serif" font-size="10.00">Scene::getComponent</text>
</a>
</g>
</g>
<!-- Node1&#45;&gt;Node7 -->
<g id="edge6" class="edge">
<title>Node1&#45;&gt;Node7</title>
<path fill="none" stroke="midnightblue" d="M744.13,-391.33C740.85,-457.11 726.98,-666.67 682,-713.5 674.54,-721.26 664.64,-726.16 654.25,-729.2"/>
<polygon fill="midnightblue" stroke="midnightblue" points="747.64,-391.25 744.61,-381.1 740.65,-390.92 747.64,-391.25"/>
</g>
<!-- Node10 -->
<g id="node10" class="node">
<title>Node10</title>
<g id="a_node10"><a xlink:href="../../db/d46/class_touchpoint_registry.html#adef26ec306c768fb8d8e5b385353105b" target="_top" xlink:title="Return a connection given its index position.">
<polygon fill="white" stroke="black" points="546.5,-487.5 546.5,-517.5 647.5,-517.5 647.5,-487.5 546.5,-487.5"/>
<text text-anchor="start" x="554.5" y="-505.5" font-family="Helvetica,sans-Serif" font-size="10.00">TouchpointRegistry</text>
<text text-anchor="middle" x="597" y="-494.5" font-family="Helvetica,sans-Serif" font-size="10.00">::getConnection</text>
</a>
</g>
</g>
<!-- Node1&#45;&gt;Node10 -->
<g id="edge9" class="edge">
<title>Node1&#45;&gt;Node10</title>
<path fill="none" stroke="midnightblue" d="M738.78,-390.61C729.97,-414.67 711.56,-455.63 682,-478.5 672.04,-486.2 659.71,-491.43 647.6,-494.99"/>
<polygon fill="midnightblue" stroke="midnightblue" points="742.09,-391.74 742.07,-381.15 735.48,-389.45 742.09,-391.74"/>
</g>
<!-- Node11 -->
<g id="node11" class="node">
<title>Node11</title>
<g id="a_node11"><a xlink:href="../../db/d46/class_touchpoint_registry.html#af0a8e034c51ebd0a05d72583b65e802d" target="_top" xlink:title="Return a connector given its index position.">
<polygon fill="white" stroke="black" points="546.5,-438.5 546.5,-468.5 647.5,-468.5 647.5,-438.5 546.5,-438.5"/>
<text text-anchor="start" x="554.5" y="-456.5" font-family="Helvetica,sans-Serif" font-size="10.00">TouchpointRegistry</text>
<text text-anchor="middle" x="597" y="-445.5" font-family="Helvetica,sans-Serif" font-size="10.00">::getConnector</text>
</a>
</g>
</g>
<!-- Node1&#45;&gt;Node11 -->
<g id="edge10" class="edge">
<title>Node1&#45;&gt;Node11</title>
<path fill="none" stroke="midnightblue" d="M729.69,-389.04C717.82,-401.65 700.35,-418.18 682,-428.5 671.52,-434.39 659.51,-439.03 647.91,-442.62"/>
<polygon fill="midnightblue" stroke="midnightblue" points="732.48,-391.17 736.63,-381.43 727.31,-386.46 732.48,-391.17"/>
</g>
<!-- Node12 -->
<g id="node12" class="node">
<title>Node12</title>
<g id="a_node12"><a xlink:href="../../d6/db5/class_scene.html#aba225215a175a15a2a70e36623260717" target="_top" xlink:title="Return a magnet from the scene, given its unique id.">
<polygon fill="white" stroke="black" points="549,-236 549,-255 645,-255 645,-236 549,-236"/>
<text text-anchor="middle" x="597" y="-243" font-family="Helvetica,sans-Serif" font-size="10.00">Scene::getMagnet</text>
</a>
</g>
</g>
<!-- Node1&#45;&gt;Node12 -->
<g id="edge11" class="edge">
<title>Node1&#45;&gt;Node12</title>
<path fill="none" stroke="midnightblue" d="M738.98,-352.13C730.38,-327.79 712.18,-286.53 682,-264.5 671.37,-256.74 658.13,-252.07 645.32,-249.29"/>
<polygon fill="midnightblue" stroke="midnightblue" points="735.69,-353.33 742.17,-361.71 742.33,-351.12 735.69,-353.33"/>
</g>
<!-- Node16 -->
<g id="node16" class="node">
<title>Node16</title>
<g id="a_node16"><a xlink:href="../../d2/d00/class_component.html#a21e09e2fc60a1cc671098e99213315aa" target="_top" xlink:title="Return a (openscad) subcomponent.">
<polygon fill="white" stroke="black" points="521,-362 521,-381 673,-381 673,-362 521,-362"/>
<text text-anchor="middle" x="597" y="-369" font-family="Helvetica,sans-Serif" font-size="10.00">Component::getSubcomponent</text>
</a>
</g>
</g>
<!-- Node1&#45;&gt;Node16 -->
<g id="edge17" class="edge">
<title>Node1&#45;&gt;Node16</title>
<path fill="none" stroke="midnightblue" d="M707.63,-371.5C697.08,-371.5 685.21,-371.5 673.28,-371.5"/>
<polygon fill="midnightblue" stroke="midnightblue" points="707.69,-375 717.69,-371.5 707.69,-368 707.69,-375"/>
</g>
<!-- Node17 -->
<g id="node17" class="node">
<title>Node17</title>
<g id="a_node17"><a xlink:href="../../db/d46/class_touchpoint_registry.html#ad166efb05c8c40a8e3ca0dabf4a70cfe" target="_top" xlink:title="Return a touchpoint given its index position.">
<polygon fill="white" stroke="black" points="546.5,-312.5 546.5,-342.5 647.5,-342.5 647.5,-312.5 546.5,-312.5"/>
<text text-anchor="start" x="554.5" y="-330.5" font-family="Helvetica,sans-Serif" font-size="10.00">TouchpointRegistry</text>
<text text-anchor="middle" x="597" y="-319.5" font-family="Helvetica,sans-Serif" font-size="10.00">::getTouchpoint</text>
</a>
</g>
</g>
<!-- Node1&#45;&gt;Node17 -->
<g id="edge18" class="edge">
<title>Node1&#45;&gt;Node17</title>
<path fill="none" stroke="midnightblue" d="M708,-360.32C699.46,-357.74 690.42,-355.02 682,-352.5 670.92,-349.18 659.02,-345.63 647.76,-342.28"/>
<polygon fill="midnightblue" stroke="midnightblue" points="707.13,-363.71 717.72,-363.25 709.15,-357.01 707.13,-363.71"/>
</g>
<!-- Node18 -->
<g id="node18" class="node">
<title>Node18</title>
<g id="a_node18"><a xlink:href="../../de/d52/class_a_star.html#a4ee3f1b1a85636d572f95e2ede87a3bf" target="_top" xlink:title=" ">
<polygon fill="white" stroke="black" points="552.5,-274 552.5,-293 641.5,-293 641.5,-274 552.5,-274"/>
<text text-anchor="middle" x="597" y="-281" font-family="Helvetica,sans-Serif" font-size="10.00">AStar::markPath</text>
</a>
</g>
</g>
<!-- Node1&#45;&gt;Node18 -->
<g id="edge19" class="edge">
<title>Node1&#45;&gt;Node18</title>
<path fill="none" stroke="midnightblue" d="M733.12,-353.61C721.81,-338.01 703.37,-315.98 682,-303.5 669.83,-296.39 655.27,-291.81 641.72,-288.85"/>
<polygon fill="midnightblue" stroke="midnightblue" points="730.33,-355.73 738.92,-361.93 736.07,-351.73 730.33,-355.73"/>
</g>
<!-- Node19 -->
<g id="node19" class="node">
<title>Node19</title>
<g id="a_node19"><a xlink:href="../../d9/d58/class_touchpoint.html#a1b82f162b238396efeae6b9369430a87" target="_top" xlink:title="Mark voxel grid cells occupied / unoccupied by the touchpoint geometry.">
<polygon fill="white" stroke="black" points="527.5,-186.5 527.5,-216.5 666.5,-216.5 666.5,-186.5 527.5,-186.5"/>
<text text-anchor="start" x="535.5" y="-204.5" font-family="Helvetica,sans-Serif" font-size="10.00">Touchpoint::markTouchpoint</text>
<text text-anchor="middle" x="597" y="-193.5" font-family="Helvetica,sans-Serif" font-size="10.00">Cells</text>
</a>
</g>
</g>
<!-- Node1&#45;&gt;Node19 -->
<g id="edge20" class="edge">
<title>Node1&#45;&gt;Node19</title>
<path fill="none" stroke="midnightblue" d="M741.86,-351.67C735.87,-320.48 719.87,-260.06 682,-226.5 677.44,-222.46 672.26,-219.08 666.76,-216.24"/>
<polygon fill="midnightblue" stroke="midnightblue" points="738.45,-352.5 743.63,-361.74 745.34,-351.28 738.45,-352.5"/>
</g>
<!-- Node28 -->
<g id="node28" class="node">
<title>Node28</title>
<g id="a_node28"><a xlink:href="../../df/dfa/class_autowire_tool.html#a6d3cd96cedca7268da96cb4e478fe2c7" target="_top" xlink:title="Mark voxel grid cells which are occupied by the wiring.">
<polygon fill="white" stroke="black" points="512,-400 512,-419 682,-419 682,-400 512,-400"/>
<text text-anchor="middle" x="597" y="-407" font-family="Helvetica,sans-Serif" font-size="10.00">AutowireTool::markWireOccupation</text>
</a>
</g>
</g>
<!-- Node1&#45;&gt;Node28 -->
<g id="edge29" class="edge">
<title>Node1&#45;&gt;Node28</title>
<path fill="none" stroke="midnightblue" d="M708.11,-383.1C699.57,-385.65 690.5,-388.26 682,-390.5 669.42,-393.81 655.69,-397.07 643.04,-399.93"/>
<polygon fill="midnightblue" stroke="midnightblue" points="709.28,-386.4 717.83,-380.15 707.24,-379.71 709.28,-386.4"/>
</g>
<!-- Node29 -->
<g id="node29" class="node">
<title>Node29</title>
<g id="a_node29"><a xlink:href="../../d5/d6e/class_octree_voxelizer.html#ac4d2a8be8056f86ed42f32e73866b808" target="_top" xlink:title=" ">
<polygon fill="white" stroke="black" points="532.5,-98.5 532.5,-128.5 661.5,-128.5 661.5,-98.5 532.5,-98.5"/>
<text text-anchor="start" x="540.5" y="-116.5" font-family="Helvetica,sans-Serif" font-size="10.00">OctreeVoxelizer::translate</text>
<text text-anchor="middle" x="597" y="-105.5" font-family="Helvetica,sans-Serif" font-size="10.00">ToOrigin</text>
</a>
</g>
</g>
<!-- Node1&#45;&gt;Node29 -->
<g id="edge31" class="edge">
<title>Node1&#45;&gt;Node29</title>
<path fill="none" stroke="midnightblue" d="M745.3,-351.66C744.85,-308.14 737.68,-203.43 682,-143.5 676.31,-137.37 669.28,-132.5 661.73,-128.62"/>
<polygon fill="midnightblue" stroke="midnightblue" points="741.8,-351.78 745.28,-361.78 748.8,-351.79 741.8,-351.78"/>
</g>
<!-- Node30 -->
<g id="node30" class="node">
<title>Node30</title>
<g id="a_node30"><a xlink:href="../../d5/d6e/class_octree_voxelizer.html#a6587bb79f04277bd15705d408f2a013d" target="_top" xlink:title="Execute voxelization algorithm.">
<polygon fill="white" stroke="black" points="339.5,-107 339.5,-126 460.5,-126 460.5,-107 339.5,-107"/>
<text text-anchor="middle" x="400" y="-114" font-family="Helvetica,sans-Serif" font-size="10.00">OctreeVoxelizer::update</text>
</a>
</g>
</g>
<!-- Node1&#45;&gt;Node30 -->
<g id="edge35" class="edge">
<title>Node1&#45;&gt;Node30</title>
<path fill="none" stroke="midnightblue" d="M744.75,-351.6C743.11,-311.97 733.55,-223.03 682,-176.5 673.44,-168.77 530.5,-140.88 451.88,-126"/>
<polygon fill="midnightblue" stroke="midnightblue" points="741.25,-351.7 745.03,-361.6 748.25,-351.5 741.25,-351.7"/>
</g>
<!-- Node31 -->
<g id="node31" class="node">
<title>Node31</title>
<g id="a_node31"><a xlink:href="../../d0/dd7/class_voxelimage_compactor.html#a854df2b3456d18f9e0f223de22c0e1b9" target="_top" xlink:title=" ">
<polygon fill="white" stroke="black" points="539.5,-49.5 539.5,-79.5 654.5,-79.5 654.5,-49.5 539.5,-49.5"/>
<text text-anchor="start" x="547.5" y="-67.5" font-family="Helvetica,sans-Serif" font-size="10.00">VoxelimageCompactor</text>
<text text-anchor="middle" x="597" y="-56.5" font-family="Helvetica,sans-Serif" font-size="10.00">::update</text>
</a>
</g>
</g>
<!-- Node1&#45;&gt;Node31 -->
<g id="edge33" class="edge">
<title>Node1&#45;&gt;Node31</title>
<path fill="none" stroke="midnightblue" d="M743.22,-351.87C737.59,-294.24 718.41,-127.13 682,-88.5 674.61,-80.66 664.86,-75.33 654.63,-71.71"/>
<polygon fill="midnightblue" stroke="midnightblue" points="739.73,-352.24 744.16,-361.87 746.7,-351.58 739.73,-352.24"/>
</g>
<!-- Node32 -->
<g id="node32" class="node">
<title>Node32</title>
<g id="a_node32"><a xlink:href="../../d8/d7b/class_voxelimage_combiner.html#a42d0d7c0af4c98bb15406efe2a961b0e" target="_top" xlink:title=" ">
<polygon fill="white" stroke="black" points="542.5,-0.5 542.5,-30.5 651.5,-30.5 651.5,-0.5 542.5,-0.5"/>
<text text-anchor="start" x="550.5" y="-18.5" font-family="Helvetica,sans-Serif" font-size="10.00">VoxelimageCombiner</text>
<text text-anchor="middle" x="597" y="-7.5" font-family="Helvetica,sans-Serif" font-size="10.00">::update</text>
</a>
</g>
</g>
<!-- Node1&#45;&gt;Node32 -->
<g id="edge34" class="edge">
<title>Node1&#45;&gt;Node32</title>
<path fill="none" stroke="midnightblue" d="M743.92,-351.92C740,-287.86 724.45,-85.99 682,-39.5 674.02,-30.76 663.11,-25.12 651.79,-21.5"/>
<polygon fill="midnightblue" stroke="midnightblue" points="740.43,-352.13 744.5,-361.9 747.42,-351.72 740.43,-352.13"/>
</g>
<!-- Node3 -->
<g id="node3" class="node">
<title>Node3</title>
<g id="a_node3"><a xlink:href="../../df/dfa/class_autowire_tool.html#a78b35a48395b5502f8c00b373592678b" target="_top" xlink:title="Execute autowiring tool.">
<polygon fill="white" stroke="black" points="166.5,-468 166.5,-487 279.5,-487 279.5,-468 166.5,-468"/>
<text text-anchor="middle" x="223" y="-475" font-family="Helvetica,sans-Serif" font-size="10.00">AutowireTool::execute</text>
</a>
</g>
</g>
<!-- Node2&#45;&gt;Node3 -->
<g id="edge2" class="edge">
<title>Node2&#45;&gt;Node3</title>
<path fill="none" stroke="midnightblue" d="M317.56,-477.5C304.69,-477.5 291.65,-477.5 279.55,-477.5"/>
<polygon fill="midnightblue" stroke="midnightblue" points="317.82,-481 327.82,-477.5 317.82,-474 317.82,-481"/>
</g>
<!-- Node8 -->
<g id="node8" class="node">
<title>Node8</title>
<g id="a_node8"><a xlink:href="../../d2/d68/class_export_open_scad_tool.html#a4c767d720bf495a05ee200deae713329" target="_top" xlink:title="Export additional 3d&#45;printing build components in the openscad format.">
<polygon fill="white" stroke="black" points="168.5,-645.5 168.5,-675.5 277.5,-675.5 277.5,-645.5 168.5,-645.5"/>
<text text-anchor="start" x="176.5" y="-663.5" font-family="Helvetica,sans-Serif" font-size="10.00">ExportOpenScadTool</text>
<text text-anchor="middle" x="223" y="-652.5" font-family="Helvetica,sans-Serif" font-size="10.00">::writeComponents</text>
</a>
</g>
</g>
<!-- Node7&#45;&gt;Node8 -->
<g id="edge7" class="edge">
<title>Node7&#45;&gt;Node8</title>
<path fill="none" stroke="midnightblue" d="M536.41,-720.97C464.93,-707.13 346.19,-684.15 277.52,-670.86"/>
<polygon fill="midnightblue" stroke="midnightblue" points="536.12,-724.47 546.6,-722.94 537.45,-717.6 536.12,-724.47"/>
</g>
<!-- Node9 -->
<g id="node9" class="node">
<title>Node9</title>
<g id="a_node9"><a xlink:href="../../d2/d68/class_export_open_scad_tool.html#a71ef67a238fb9cd74563b65d77c1ea73" target="_top" xlink:title=" ">
<polygon fill="white" stroke="black" points="6.5,-412.5 6.5,-442.5 115.5,-442.5 115.5,-412.5 6.5,-412.5"/>
<text text-anchor="start" x="14.5" y="-430.5" font-family="Helvetica,sans-Serif" font-size="10.00">ExportOpenScadTool</text>
<text text-anchor="middle" x="61" y="-419.5" font-family="Helvetica,sans-Serif" font-size="10.00">::execute</text>
</a>
</g>
</g>
<!-- Node8&#45;&gt;Node9 -->
<g id="edge8" class="edge">
<title>Node8&#45;&gt;Node9</title>
<path fill="none" stroke="midnightblue" d="M205.67,-636.72C172.79,-588.84 99.44,-482.02 72.33,-442.54"/>
<polygon fill="midnightblue" stroke="midnightblue" points="202.96,-638.95 211.5,-645.21 208.73,-634.99 202.96,-638.95"/>
</g>
<!-- Node13 -->
<g id="node13" class="node">
<title>Node13</title>
<g id="a_node13"><a xlink:href="../../dd/d00/class_export_s_t_l_tool.html#a218420198ac8fef5b9f9a8acc889307d" target="_top" xlink:title=" ">
<polygon fill="white" stroke="black" points="339.5,-236 339.5,-255 460.5,-255 460.5,-236 339.5,-236"/>
<text text-anchor="middle" x="400" y="-243" font-family="Helvetica,sans-Serif" font-size="10.00">ExportSTLTool::execute</text>
</a>
</g>
</g>
<!-- Node12&#45;&gt;Node13 -->
<g id="edge12" class="edge">
<title>Node12&#45;&gt;Node13</title>
<path fill="none" stroke="midnightblue" d="M538.57,-245.5C514.06,-245.5 485.46,-245.5 460.71,-245.5"/>
<polygon fill="midnightblue" stroke="midnightblue" points="538.8,-249 548.8,-245.5 538.8,-242 538.8,-249"/>
</g>
<!-- Node14 -->
<g id="node14" class="node">
<title>Node14</title>
<g id="a_node14"><a xlink:href="../../d2/d68/class_export_open_scad_tool.html#adfa47b51eeeefb3f8c8bb890266acc8c" target="_top" xlink:title="Export magnetic mesh objects in the openscad format.">
<polygon fill="white" stroke="black" points="345.5,-368.5 345.5,-398.5 454.5,-398.5 454.5,-368.5 345.5,-368.5"/>
<text text-anchor="start" x="353.5" y="-386.5" font-family="Helvetica,sans-Serif" font-size="10.00">ExportOpenScadTool</text>
<text text-anchor="middle" x="400" y="-375.5" font-family="Helvetica,sans-Serif" font-size="10.00">::writeMagnets</text>
</a>
</g>
</g>
<!-- Node12&#45;&gt;Node14 -->
<g id="edge13" class="edge">
<title>Node12&#45;&gt;Node14</title>
<path fill="none" stroke="midnightblue" d="M539.05,-253.51C529.65,-256.18 520.28,-259.75 512,-264.5 465.94,-290.95 427.67,-342.73 410.59,-368.37"/>
<polygon fill="midnightblue" stroke="midnightblue" points="539.99,-256.88 548.82,-251.04 538.27,-250.1 539.99,-256.88"/>
</g>
<!-- Node14&#45;&gt;Node9 -->
<g id="edge14" class="edge">
<title>Node14&#45;&gt;Node9</title>
<path fill="none" stroke="midnightblue" d="M335.4,-399.4C319.97,-402.82 303.45,-406.12 288,-408.5 229.43,-417.51 161.62,-422.5 115.67,-425.07"/>
<polygon fill="midnightblue" stroke="midnightblue" points="336.39,-402.77 345.37,-397.14 334.84,-395.94 336.39,-402.77"/>
</g>
<!-- Node15 -->
<g id="node15" class="node">
<title>Node15</title>
<g id="a_node15"><a xlink:href="../../d2/d68/class_export_open_scad_tool.html#adc9cf506ecd2ef6e33f37f2eb206da1a" target="_top" xlink:title="Export the meshdifference between mesh and magnets in the openscad format.">
<polygon fill="white" stroke="black" points="160.5,-368.5 160.5,-398.5 285.5,-398.5 285.5,-368.5 160.5,-368.5"/>
<text text-anchor="start" x="168.5" y="-386.5" font-family="Helvetica,sans-Serif" font-size="10.00">ExportOpenScadTool</text>
<text text-anchor="middle" x="223" y="-375.5" font-family="Helvetica,sans-Serif" font-size="10.00">::writeDifferenceMagnets</text>
</a>
</g>
</g>
<!-- Node14&#45;&gt;Node15 -->
<g id="edge15" class="edge">
<title>Node14&#45;&gt;Node15</title>
<path fill="none" stroke="midnightblue" d="M334.73,-383.5C318.72,-383.5 301.6,-383.5 285.71,-383.5"/>
<polygon fill="midnightblue" stroke="midnightblue" points="335.07,-387 345.07,-383.5 335.07,-380 335.07,-387"/>
</g>
<!-- Node15&#45;&gt;Node9 -->
<g id="edge16" class="edge">
<title>Node15&#45;&gt;Node9</title>
<path fill="none" stroke="midnightblue" d="M157.41,-401.26C143.51,-405.08 128.98,-409.08 115.56,-412.77"/>
<polygon fill="midnightblue" stroke="midnightblue" points="158.67,-404.55 167.38,-398.52 156.81,-397.8 158.67,-404.55"/>
</g>
<!-- Node20 -->
<g id="node20" class="node">
<title>Node20</title>
<g id="a_node20"><a xlink:href="../../d9/d58/class_touchpoint.html#afbb2470ea0d67a12a29eb3d6bd958f01" target="_top" xlink:title="Mark voxel grid cells as occupied by the touchpoint geometry.">
<polygon fill="white" stroke="black" points="329.5,-154 329.5,-173 470.5,-173 470.5,-154 329.5,-154"/>
<text text-anchor="middle" x="400" y="-161" font-family="Helvetica,sans-Serif" font-size="10.00">Touchpoint::markOccupation</text>
</a>
</g>
</g>
<!-- Node19&#45;&gt;Node20 -->
<g id="edge21" class="edge">
<title>Node19&#45;&gt;Node20</title>
<path fill="none" stroke="midnightblue" d="M517.24,-186.15C494.45,-181.71 470.24,-176.99 449.85,-173.02"/>
<polygon fill="midnightblue" stroke="midnightblue" points="516.77,-189.63 527.25,-188.1 518.1,-182.75 516.77,-189.63"/>
</g>
<!-- Node22 -->
<g id="node22" class="node">
<title>Node22</title>
<g id="a_node22"><a xlink:href="../../d9/d58/class_touchpoint.html#a550348f9d05c347b5186b6531d583a11" target="_top" xlink:title="Mark voxel grid cells as unoccupied by the touchpoint geometry.">
<polygon fill="white" stroke="black" points="324,-195 324,-214 476,-214 476,-195 324,-195"/>
<text text-anchor="middle" x="400" y="-202" font-family="Helvetica,sans-Serif" font-size="10.00">Touchpoint::unMarkOccupation</text>
</a>
</g>
</g>
<!-- Node19&#45;&gt;Node22 -->
<g id="edge23" class="edge">
<title>Node19&#45;&gt;Node22</title>
<path fill="none" stroke="midnightblue" d="M517.03,-202.71C503.51,-202.92 489.5,-203.14 476.09,-203.34"/>
<polygon fill="midnightblue" stroke="midnightblue" points="517.31,-206.21 527.25,-202.56 517.2,-199.21 517.31,-206.21"/>
</g>
<!-- Node21 -->
<g id="node21" class="node">
<title>Node21</title>
<g id="a_node21"><a xlink:href="../../db/dbb/class_picking_interactor_style.html#a1620702107e2c2d0c0aefbd896098b0d" target="_top" xlink:title="Overloaded method, invoked when right mouse button is pressed.">
<polygon fill="white" stroke="black" points="166.5,-147.5 166.5,-177.5 279.5,-177.5 279.5,-147.5 166.5,-147.5"/>
<text text-anchor="start" x="174.5" y="-165.5" font-family="Helvetica,sans-Serif" font-size="10.00">PickingInteractorStyle</text>
<text text-anchor="middle" x="223" y="-154.5" font-family="Helvetica,sans-Serif" font-size="10.00">::OnRightButtonDown</text>
</a>
</g>
</g>
<!-- Node20&#45;&gt;Node21 -->
<g id="edge22" class="edge">
<title>Node20&#45;&gt;Node21</title>
<path fill="none" stroke="midnightblue" d="M319.2,-163.04C305.85,-162.97 292.27,-162.89 279.7,-162.82"/>
<polygon fill="midnightblue" stroke="midnightblue" points="319.31,-166.54 329.33,-163.1 319.35,-159.54 319.31,-166.54"/>
</g>
<!-- Node23 -->
<g id="node23" class="node">
<title>Node23</title>
<g id="a_node23"><a xlink:href="../../d6/db5/class_scene.html#af1128c48ccb6999066aa1d935075cb23" target="_top" xlink:title="Remove a touchpoint from the scene given its unique touchpoint id.">
<polygon fill="white" stroke="black" points="158,-197 158,-216 288,-216 288,-197 158,-197"/>
<text text-anchor="middle" x="223" y="-204" font-family="Helvetica,sans-Serif" font-size="10.00">Scene::removeTouchpoint</text>
</a>
</g>
</g>
<!-- Node22&#45;&gt;Node23 -->
<g id="edge24" class="edge">
<title>Node22&#45;&gt;Node23</title>
<path fill="none" stroke="midnightblue" d="M313.71,-205.47C305.11,-205.57 296.49,-205.67 288.17,-205.77"/>
<polygon fill="midnightblue" stroke="midnightblue" points="313.81,-208.97 323.77,-205.36 313.73,-201.97 313.81,-208.97"/>
</g>
<!-- Node24 -->
<g id="node24" class="node">
<title>Node24</title>
<g id="a_node24"><a xlink:href="../../d1/d4e/class_place_touchpoint_tool.html#aa565ccff15d4591dc9c6dee73adfe6e8" target="_top" xlink:title=" ">
<polygon fill="white" stroke="black" points="7.5,-216.5 7.5,-246.5 114.5,-246.5 114.5,-216.5 7.5,-216.5"/>
<text text-anchor="start" x="15.5" y="-234.5" font-family="Helvetica,sans-Serif" font-size="10.00">PlaceTouchpointTool</text>
<text text-anchor="middle" x="61" y="-223.5" font-family="Helvetica,sans-Serif" font-size="10.00">::undo</text>
</a>
</g>
</g>
<!-- Node23&#45;&gt;Node24 -->
<g id="edge25" class="edge">
<title>Node23&#45;&gt;Node24</title>
<path fill="none" stroke="midnightblue" d="M150.91,-217.61C138.73,-219.51 126.27,-221.46 114.68,-223.27"/>
<polygon fill="midnightblue" stroke="midnightblue" points="151.71,-221.02 161.05,-216.02 150.63,-214.11 151.71,-221.02"/>
</g>
<!-- Node25 -->
<g id="node25" class="node">
<title>Node25</title>
<g id="a_node25"><a xlink:href="../../de/dd7/class_polyline_touchpoint_tool.html#a9ee474813d977ff7b9877372035a319c" target="_top" xlink:title=" ">
<polygon fill="white" stroke="black" points="3,-167.5 3,-197.5 119,-197.5 119,-167.5 3,-167.5"/>
<text text-anchor="start" x="11" y="-185.5" font-family="Helvetica,sans-Serif" font-size="10.00">PolylineTouchpointTool</text>
<text text-anchor="middle" x="61" y="-174.5" font-family="Helvetica,sans-Serif" font-size="10.00">::undo</text>
</a>
</g>
</g>
<!-- Node23&#45;&gt;Node25 -->
<g id="edge26" class="edge">
<title>Node23&#45;&gt;Node25</title>
<path fill="none" stroke="midnightblue" d="M148.17,-195.42C138.37,-193.96 128.45,-192.47 119,-191.05"/>
<polygon fill="midnightblue" stroke="midnightblue" points="147.9,-198.92 158.3,-196.95 148.93,-192 147.9,-198.92"/>
</g>
<!-- Node26 -->
<g id="node26" class="node">
<title>Node26</title>
<g id="a_node26"><a xlink:href="../../de/de0/class_freehand_touchpoint_tool.html#a8c241ab6ea3d7ced711c84036836e885" target="_top" xlink:title=" ">
<polygon fill="white" stroke="black" points="0,-118.5 0,-148.5 122,-148.5 122,-118.5 0,-118.5"/>
<text text-anchor="start" x="8" y="-136.5" font-family="Helvetica,sans-Serif" font-size="10.00">FreehandTouchpointTool</text>
<text text-anchor="middle" x="61" y="-125.5" font-family="Helvetica,sans-Serif" font-size="10.00">::undo</text>
</a>
</g>
</g>
<!-- Node23&#45;&gt;Node26 -->
<g id="edge27" class="edge">
<title>Node23&#45;&gt;Node26</title>
<path fill="none" stroke="midnightblue" d="M173.5,-193.49C168.15,-191.43 162.88,-189.1 158,-186.5 139.88,-176.82 139.73,-167.87 122,-157.5 116.48,-154.27 110.44,-151.29 104.39,-148.61"/>
<polygon fill="midnightblue" stroke="midnightblue" points="172.55,-196.87 183.15,-196.92 174.9,-190.28 172.55,-196.87"/>
</g>
<!-- Node27 -->
<g id="node27" class="node">
<title>Node27</title>
<g id="a_node27"><a xlink:href="../../dd/d4a/class_lasso_tool.html#ad4e65963efd59e0802ecb4fbd8d8b288" target="_top" xlink:title=" ">
<polygon fill="white" stroke="black" points="17,-266 17,-285 105,-285 105,-266 17,-266"/>
<text text-anchor="middle" x="61" y="-273" font-family="Helvetica,sans-Serif" font-size="10.00">LassoTool::undo</text>
</a>
</g>
</g>
<!-- Node23&#45;&gt;Node27 -->
<g id="edge28" class="edge">
<title>Node23&#45;&gt;Node27</title>
<path fill="none" stroke="midnightblue" d="M196,-220.91C176.11,-231.59 147.82,-246.03 122,-256.5 113.49,-259.95 104.11,-263.18 95.34,-265.96"/>
<polygon fill="midnightblue" stroke="midnightblue" points="197.92,-223.86 205.04,-216.01 194.58,-217.7 197.92,-223.86"/>
</g>
<!-- Node28&#45;&gt;Node2 -->
<g id="edge30" class="edge">
<title>Node28&#45;&gt;Node2</title>
<path fill="none" stroke="midnightblue" d="M539.45,-421.53C530.2,-423.91 520.78,-426.58 512,-429.5 478.93,-440.49 442.07,-457.41 420.25,-467.95"/>
<polygon fill="midnightblue" stroke="midnightblue" points="540.51,-424.88 549.38,-419.07 538.83,-418.08 540.51,-424.88"/>
</g>
<!-- Node29&#45;&gt;Node30 -->
<g id="edge32" class="edge">
<title>Node29&#45;&gt;Node30</title>
<path fill="none" stroke="midnightblue" d="M522.23,-114.63C501.85,-114.95 479.99,-115.28 460.52,-115.58"/>
<polygon fill="midnightblue" stroke="midnightblue" points="522.47,-118.13 532.42,-114.48 522.37,-111.13 522.47,-118.13"/>
</g>
</g>
</svg>
