<?xml version="1.0" encoding="UTF-8" standalone="no"?>
<!DOCTYPE svg PUBLIC "-//W3C//DTD SVG 1.1//EN"
 "http://www.w3.org/Graphics/SVG/1.1/DTD/svg11.dtd">
<!-- Generated by graphviz version 2.44.1 (0)
 -->
<!-- Title: Utils::convertPolyDataToOFFStr Pages: 1 -->
<svg width="488pt" height="146pt"
 viewBox="0.00 0.00 488.00 146.46" xmlns="http://www.w3.org/2000/svg" xmlns:xlink="http://www.w3.org/1999/xlink">
<g id="graph0" class="graph" transform="scale(1 1) rotate(0) translate(4 142.46)">
<title>Utils::convertPolyDataToOFFStr</title>
<polygon fill="white" stroke="transparent" points="-4,4 -4,-142.46 484,-142.46 484,4 -4,4"/>
<!-- Node1 -->
<g id="node1" class="node">
<title>Node1</title>
<g id="a_node1"><a xlink:title="Converts a vtkPolyData object to an OFF file string which can be written to disk or passed to a funct...">
<polygon fill="#bfbfbf" stroke="black" points="354,-66.5 354,-96.5 480,-96.5 480,-66.5 354,-66.5"/>
<text text-anchor="start" x="362" y="-84.5" font-family="Helvetica,sans-Serif" font-size="10.00">Utils::convertPolyDataTo</text>
<text text-anchor="middle" x="417" y="-73.5" font-family="Helvetica,sans-Serif" font-size="10.00">OFFStr</text>
</a>
</g>
</g>
<!-- Node2 -->
<g id="node2" class="node">
<title>Node2</title>
<g id="a_node2"><a xlink:href="../../dd/d00/class_export_s_t_l_tool.html#a218420198ac8fef5b9f9a8acc889307d" target="_top" xlink:title=" ">
<polygon fill="white" stroke="black" points="3,-114 3,-133 124,-133 124,-114 3,-114"/>
<text text-anchor="middle" x="63.5" y="-121" font-family="Helvetica,sans-Serif" font-size="10.00">ExportSTLTool::execute</text>
</a>
</g>
</g>
<!-- Node1&#45;&gt;Node2 -->
<g id="edge1" class="edge">
<title>Node1&#45;&gt;Node2</title>
<path fill="none" stroke="midnightblue" d="M383.3,-101.74C364.86,-111.96 340.98,-123.27 318,-128.5 252.97,-143.29 176.13,-138.82 124.23,-132.71"/>
<polygon fill="midnightblue" stroke="midnightblue" points="385.2,-104.69 392.15,-96.69 381.73,-98.61 385.2,-104.69"/>
</g>
<!-- Node3 -->
<g id="node3" class="node">
<title>Node3</title>
<g id="a_node3"><a xlink:href="../../d9/d00/class_p_s_interface_tool.html#aa26bf20d4e597f64df960e4c1a5c3a69" target="_top" xlink:title=" ">
<polygon fill="white" stroke="black" points="0,-73 0,-92 127,-92 127,-73 0,-73"/>
<text text-anchor="middle" x="63.5" y="-80" font-family="Helvetica,sans-Serif" font-size="10.00">PSInterfaceTool::execute</text>
</a>
</g>
</g>
<!-- Node1&#45;&gt;Node3 -->
<g id="edge2" class="edge">
<title>Node1&#45;&gt;Node3</title>
<path fill="none" stroke="midnightblue" d="M343.69,-79.04C335.03,-78.82 326.32,-78.63 318,-78.5 249.12,-77.45 231.87,-77.1 163,-78.5 151.36,-78.74 138.96,-79.13 127.02,-79.58"/>
<polygon fill="midnightblue" stroke="midnightblue" points="343.7,-82.54 353.8,-79.31 343.89,-75.54 343.7,-82.54"/>
</g>
<!-- Node4 -->
<g id="node4" class="node">
<title>Node4</title>
<g id="a_node4"><a xlink:href="../../d4/d76/class_i_g_l_mesh_boolean_operation_filter.html#a2a84e6e879e95cac0ad31f1531c621ea" target="_top" xlink:title="Execute operation on meshes.">
<polygon fill="white" stroke="black" points="163,-88.5 163,-118.5 318,-118.5 318,-88.5 163,-88.5"/>
<text text-anchor="start" x="171" y="-106.5" font-family="Helvetica,sans-Serif" font-size="10.00">IGLMeshBooleanOperationFilter</text>
<text text-anchor="middle" x="240.5" y="-95.5" font-family="Helvetica,sans-Serif" font-size="10.00">::update</text>
</a>
</g>
</g>
<!-- Node1&#45;&gt;Node4 -->
<g id="edge3" class="edge">
<title>Node1&#45;&gt;Node4</title>
<path fill="none" stroke="midnightblue" d="M343.82,-90.6C335.39,-91.66 326.77,-92.75 318.28,-93.82"/>
<polygon fill="midnightblue" stroke="midnightblue" points="344.5,-94.04 353.99,-89.32 343.63,-87.1 344.5,-94.04"/>
</g>
<!-- Node5 -->
<g id="node5" class="node">
<title>Node5</title>
<g id="a_node5"><a xlink:href="../../d9/d68/class_cork_mesh_boolean_operation_filter.html#a0248d172d1c6b4037b2ce5bab38f14c3" target="_top" xlink:title="Execute operation on meshes.">
<polygon fill="white" stroke="black" points="171,-0.5 171,-30.5 310,-30.5 310,-0.5 171,-0.5"/>
<text text-anchor="start" x="179" y="-18.5" font-family="Helvetica,sans-Serif" font-size="10.00">CorkMeshBooleanOperation</text>
<text text-anchor="middle" x="240.5" y="-7.5" font-family="Helvetica,sans-Serif" font-size="10.00">Filter::update</text>
</a>
</g>
</g>
<!-- Node1&#45;&gt;Node5 -->
<g id="edge6" class="edge">
<title>Node1&#45;&gt;Node5</title>
<path fill="none" stroke="midnightblue" d="M366.34,-62.72C339.41,-52.53 306.58,-40.12 281.35,-30.57"/>
<polygon fill="midnightblue" stroke="midnightblue" points="365.37,-66.09 375.97,-66.36 367.85,-59.55 365.37,-66.09"/>
</g>
<!-- Node4&#45;&gt;Node2 -->
<g id="edge4" class="edge">
<title>Node4&#45;&gt;Node2</title>
<path fill="none" stroke="midnightblue" d="M152.85,-113.4C143.09,-114.52 133.31,-115.64 124.01,-116.7"/>
<polygon fill="midnightblue" stroke="midnightblue" points="153.46,-116.86 163,-112.24 152.66,-109.9 153.46,-116.86"/>
</g>
<!-- Node4&#45;&gt;Node3 -->
<g id="edge5" class="edge">
<title>Node4&#45;&gt;Node3</title>
<path fill="none" stroke="midnightblue" d="M152.86,-93.1C144.21,-92.07 135.54,-91.03 127.2,-90.02"/>
<polygon fill="midnightblue" stroke="midnightblue" points="152.65,-96.6 163,-94.32 153.49,-89.65 152.65,-96.6"/>
</g>
</g>
</svg>
