<?xml version="1.0" encoding="UTF-8" standalone="no"?>
<!DOCTYPE svg PUBLIC "-//W3C//DTD SVG 1.1//EN"
 "http://www.w3.org/Graphics/SVG/1.1/DTD/svg11.dtd">
<!-- Generated by graphviz version 2.44.0 (0)
 -->
<!-- Title: Utils::getMeshWorldCoordinateBounds Pages: 1 -->
<svg width="518pt" height="88pt"
 viewBox="0.00 0.00 518.00 88.00" xmlns="http://www.w3.org/2000/svg" xmlns:xlink="http://www.w3.org/1999/xlink">
<g id="graph0" class="graph" transform="scale(1 1) rotate(0) translate(4 84)">
<title>Utils::getMeshWorldCoordinateBounds</title>
<polygon fill="white" stroke="transparent" points="-4,4 -4,-84 514,-84 514,4 -4,4"/>
<!-- Node1 -->
<g id="node1" class="node">
<title>Node1</title>
<g id="a_node1"><a xlink:title="Compute voxel grid integer index equivalent from world coordinate.">
<polygon fill="#bfbfbf" stroke="black" points="358,-24.5 358,-54.5 510,-54.5 510,-24.5 358,-24.5"/>
<text text-anchor="start" x="366" y="-42.5" font-family="Helvetica,sans-Serif" font-size="10.00">Utils::getMeshWorldCoordinate</text>
<text text-anchor="middle" x="434" y="-31.5" font-family="Helvetica,sans-Serif" font-size="10.00">Bounds</text>
</a>
</g>
</g>
<!-- Node2 -->
<g id="node2" class="node">
<title>Node2</title>
<g id="a_node2"><a xlink:href="../../d9/d4f/namespace_layout_algorithms.html#a53c2fbff4e31119750be8ef36e324d03" target="_top" xlink:title="Computes the closest point on a mesh in relation to another point.">
<polygon fill="white" stroke="black" points="186,-24.5 186,-54.5 322,-54.5 322,-24.5 186,-24.5"/>
<text text-anchor="start" x="194" y="-42.5" font-family="Helvetica,sans-Serif" font-size="10.00">LayoutAlgorithms::compute</text>
<text text-anchor="middle" x="254" y="-31.5" font-family="Helvetica,sans-Serif" font-size="10.00">ClosestPointOnMesh</text>
</a>
</g>
</g>
<!-- Node1&#45;&gt;Node2 -->
<g id="edge1" class="edge">
<title>Node1&#45;&gt;Node2</title>
<path fill="none" stroke="midnightblue" d="M347.7,-39.5C339.09,-39.5 330.44,-39.5 322.06,-39.5"/>
<polygon fill="midnightblue" stroke="midnightblue" points="347.77,-43 357.77,-39.5 347.77,-36 347.77,-43"/>
</g>
<!-- Node3 -->
<g id="node3" class="node">
<title>Node3</title>
<g id="a_node3"><a xlink:href="../../d4/d58/class_polyline_add_final_point_callback.html#aebf2f4ff9236a12c598205822c2949a2" target="_top" xlink:title="Overwritten callback method, which is executed when the left mouse button is pressed for the first ti...">
<polygon fill="white" stroke="black" points="0,-49.5 0,-79.5 150,-79.5 150,-49.5 0,-49.5"/>
<text text-anchor="start" x="8" y="-67.5" font-family="Helvetica,sans-Serif" font-size="10.00">PolylineAddFinalPointCallback</text>
<text text-anchor="middle" x="75" y="-56.5" font-family="Helvetica,sans-Serif" font-size="10.00">::Execute</text>
</a>
</g>
</g>
<!-- Node2&#45;&gt;Node3 -->
<g id="edge2" class="edge">
<title>Node2&#45;&gt;Node3</title>
<path fill="none" stroke="midnightblue" d="M175.91,-50.39C167.38,-51.59 158.71,-52.82 150.22,-54.02"/>
<polygon fill="midnightblue" stroke="midnightblue" points="176.42,-53.85 185.83,-48.99 175.44,-46.92 176.42,-53.85"/>
</g>
<!-- Node4 -->
<g id="node4" class="node">
<title>Node4</title>
<g id="a_node4"><a xlink:href="../../d1/db5/class_lasso_interactor_style.html#a711994cec6c74643d2bc161ba73daacd" target="_top" xlink:title="Overwritten method, which is executed when the left mouse button is released.">
<polygon fill="white" stroke="black" points="21.5,-0.5 21.5,-30.5 128.5,-30.5 128.5,-0.5 21.5,-0.5"/>
<text text-anchor="start" x="29.5" y="-18.5" font-family="Helvetica,sans-Serif" font-size="10.00">LassoInteractorStyle</text>
<text text-anchor="middle" x="75" y="-7.5" font-family="Helvetica,sans-Serif" font-size="10.00">::OnLeftButtonUp</text>
</a>
</g>
</g>
<!-- Node2&#45;&gt;Node4 -->
<g id="edge3" class="edge">
<title>Node2&#45;&gt;Node4</title>
<path fill="none" stroke="midnightblue" d="M175.49,-28.99C159.62,-26.84 143.27,-24.62 128.52,-22.62"/>
<polygon fill="midnightblue" stroke="midnightblue" points="175.45,-32.52 185.83,-30.39 176.39,-25.58 175.45,-32.52"/>
</g>
</g>
</svg>
