<?xml version="1.0" encoding="UTF-8" standalone="no"?>
<!DOCTYPE svg PUBLIC "-//W3C//DTD SVG 1.1//EN"
 "http://www.w3.org/Graphics/SVG/1.1/DTD/svg11.dtd">
<!-- Generated by graphviz version 2.44.1 (0)
 -->
<!-- Title: Utils::convertPolyDataToOFFStr Pages: 1 -->
<svg width="488pt" height="186pt"
 viewBox="0.00 0.00 488.00 186.26" xmlns="http://www.w3.org/2000/svg" xmlns:xlink="http://www.w3.org/1999/xlink">
<g id="graph0" class="graph" transform="scale(1 1) rotate(0) translate(4 182.26)">
<title>Utils::convertPolyDataToOFFStr</title>
<polygon fill="white" stroke="transparent" points="-4,4 -4,-182.26 484,-182.26 484,4 -4,4"/>
<!-- Node1 -->
<g id="node1" class="node">
<title>Node1</title>
<g id="a_node1"><a xlink:title="Converts a vtkPolyData object to an OFF file string which can be written to disk or passed to a funct...">
<polygon fill="#bfbfbf" stroke="black" points="354,-74 354,-104 480,-104 480,-74 354,-74"/>
<text text-anchor="start" x="362" y="-92" font-family="Helvetica,sans-Serif" font-size="10.00">Utils::convertPolyDataTo</text>
<text text-anchor="middle" x="417" y="-81" font-family="Helvetica,sans-Serif" font-size="10.00">OFFStr</text>
</a>
</g>
</g>
<!-- Node2 -->
<g id="node2" class="node">
<title>Node2</title>
<g id="a_node2"><a xlink:href="../../dd/d00/class_export_s_t_l_tool.html#a218420198ac8fef5b9f9a8acc889307d" target="_top" xlink:title=" ">
<polygon fill="white" stroke="black" points="3,-150.5 3,-169.5 124,-169.5 124,-150.5 3,-150.5"/>
<text text-anchor="middle" x="63.5" y="-157.5" font-family="Helvetica,sans-Serif" font-size="10.00">ExportSTLTool::execute</text>
</a>
</g>
</g>
<!-- Node1&#45;&gt;Node2 -->
<g id="edge1" class="edge">
<title>Node1&#45;&gt;Node2</title>
<path fill="none" stroke="midnightblue" d="M394.97,-111.46C376.61,-129.3 348.25,-152.86 318,-163 248.93,-186.15 163.22,-178.11 111.25,-169.54"/>
<polygon fill="midnightblue" stroke="midnightblue" points="397.6,-113.77 402.19,-104.23 392.65,-108.83 397.6,-113.77"/>
</g>
<!-- Node3 -->
<g id="node3" class="node">
<title>Node3</title>
<g id="a_node3"><a xlink:href="../../d9/d00/class_p_s_interface_tool.html#aa26bf20d4e597f64df960e4c1a5c3a69" target="_top" xlink:title=" ">
<polygon fill="white" stroke="black" points="0,-60.5 0,-79.5 127,-79.5 127,-60.5 0,-60.5"/>
<text text-anchor="middle" x="63.5" y="-67.5" font-family="Helvetica,sans-Serif" font-size="10.00">PSInterfaceTool::execute</text>
</a>
</g>
</g>
<!-- Node1&#45;&gt;Node3 -->
<g id="edge2" class="edge">
<title>Node1&#45;&gt;Node3</title>
<path fill="none" stroke="midnightblue" d="M394.97,-66.54C376.61,-48.7 348.25,-25.14 318,-15 252.68,6.89 229.67,2.35 163,-15 129.07,-23.83 94.43,-47.2 76.66,-60.46"/>
<polygon fill="midnightblue" stroke="midnightblue" points="392.65,-69.17 402.19,-73.77 397.6,-64.23 392.65,-69.17"/>
</g>
<!-- Node4 -->
<g id="node4" class="node">
<title>Node4</title>
<g id="a_node4"><a xlink:href="../../d8/d0b/class_c_g_a_l_mesh_boolean_operation_filter.html#ab87a833f1550c7d8dae9a01119df93df" target="_top" xlink:title="Execute operation on meshes.">
<polygon fill="white" stroke="black" points="168,-74 168,-104 313,-104 313,-74 168,-74"/>
<text text-anchor="start" x="176" y="-92" font-family="Helvetica,sans-Serif" font-size="10.00">CGALMeshBooleanOperation</text>
<text text-anchor="middle" x="240.5" y="-81" font-family="Helvetica,sans-Serif" font-size="10.00">Filter::update</text>
</a>
</g>
</g>
<!-- Node1&#45;&gt;Node4 -->
<g id="edge3" class="edge">
<title>Node1&#45;&gt;Node4</title>
<path fill="none" stroke="midnightblue" d="M343.93,-89C333.76,-89 323.3,-89 313.14,-89"/>
<polygon fill="midnightblue" stroke="midnightblue" points="343.99,-92.5 353.99,-89 343.99,-85.5 343.99,-92.5"/>
</g>
<!-- Node5 -->
<g id="node5" class="node">
<title>Node5</title>
<g id="a_node5"><a xlink:href="../../d9/d68/class_cork_mesh_boolean_operation_filter.html#a0248d172d1c6b4037b2ce5bab38f14c3" target="_top" xlink:title="Execute operation on meshes.">
<polygon fill="white" stroke="black" points="171,-25 171,-55 310,-55 310,-25 171,-25"/>
<text text-anchor="start" x="179" y="-43" font-family="Helvetica,sans-Serif" font-size="10.00">CorkMeshBooleanOperation</text>
<text text-anchor="middle" x="240.5" y="-32" font-family="Helvetica,sans-Serif" font-size="10.00">Filter::update</text>
</a>
</g>
</g>
<!-- Node1&#45;&gt;Node5 -->
<g id="edge4" class="edge">
<title>Node1&#45;&gt;Node5</title>
<path fill="none" stroke="midnightblue" d="M352.53,-71.18C333.69,-65.89 313.25,-60.15 295.1,-55.05"/>
<polygon fill="midnightblue" stroke="midnightblue" points="351.65,-74.56 362.22,-73.9 353.54,-67.83 351.65,-74.56"/>
</g>
<!-- Node6 -->
<g id="node6" class="node">
<title>Node6</title>
<g id="a_node6"><a xlink:href="../../d4/d76/class_i_g_l_mesh_boolean_operation_filter.html#a2a84e6e879e95cac0ad31f1531c621ea" target="_top" xlink:title="Execute operation on meshes.">
<polygon fill="white" stroke="black" points="163,-123 163,-153 318,-153 318,-123 163,-123"/>
<text text-anchor="start" x="171" y="-141" font-family="Helvetica,sans-Serif" font-size="10.00">IGLMeshBooleanOperationFilter</text>
<text text-anchor="middle" x="240.5" y="-130" font-family="Helvetica,sans-Serif" font-size="10.00">::update</text>
</a>
</g>
</g>
<!-- Node1&#45;&gt;Node6 -->
<g id="edge5" class="edge">
<title>Node1&#45;&gt;Node6</title>
<path fill="none" stroke="midnightblue" d="M352.53,-106.82C333.69,-112.11 313.25,-117.85 295.1,-122.95"/>
<polygon fill="midnightblue" stroke="midnightblue" points="353.54,-110.17 362.22,-104.1 351.65,-103.44 353.54,-110.17"/>
</g>
<!-- Node6&#45;&gt;Node2 -->
<g id="edge6" class="edge">
<title>Node6&#45;&gt;Node2</title>
<path fill="none" stroke="midnightblue" d="M152.85,-148.89C143.09,-150.12 133.31,-151.35 124.01,-152.52"/>
<polygon fill="midnightblue" stroke="midnightblue" points="153.51,-152.34 163,-147.62 152.64,-145.39 153.51,-152.34"/>
</g>
<!-- Node6&#45;&gt;Node3 -->
<g id="edge7" class="edge">
<title>Node6&#45;&gt;Node3</title>
<path fill="none" stroke="midnightblue" d="M178.88,-119.7C173.48,-117.85 168.13,-115.94 163,-114 135.15,-103.45 103.9,-89.03 84.21,-79.62"/>
<polygon fill="midnightblue" stroke="midnightblue" points="178.01,-123.1 188.6,-122.94 180.22,-116.46 178.01,-123.1"/>
</g>
</g>
</svg>
