<?xml version="1.0" encoding="UTF-8" standalone="no"?>
<!DOCTYPE svg PUBLIC "-//W3C//DTD SVG 1.1//EN"
 "http://www.w3.org/Graphics/SVG/1.1/DTD/svg11.dtd">
<!-- Generated by graphviz version 2.44.1 (0)
 -->
<!-- Title: MultiPassVoxelizer::idx2 Pages: 1 -->
<svg width="380pt" height="61pt"
 viewBox="0.00 0.00 380.00 61.00" xmlns="http://www.w3.org/2000/svg" xmlns:xlink="http://www.w3.org/1999/xlink">
<g id="graph0" class="graph" transform="scale(1 1) rotate(0) translate(4 57)">
<title>MultiPassVoxelizer::idx2</title>
<polygon fill="white" stroke="transparent" points="-4,4 -4,-57 376,-57 376,4 -4,4"/>
<!-- Node1 -->
<g id="node1" class="node">
<title>Node1</title>
<g id="a_node1"><a xlink:title=" ">
<polygon fill="#bfbfbf" stroke="black" points="272,-0.5 272,-30.5 372,-30.5 372,-0.5 272,-0.5"/>
<text text-anchor="start" x="280" y="-18.5" font-family="Helvetica,sans-Serif" font-size="10.00">MultiPassVoxelizer</text>
<text text-anchor="middle" x="322" y="-7.5" font-family="Helvetica,sans-Serif" font-size="10.00">::idx2</text>
</a>
</g>
</g>
<!-- Node2 -->
<g id="node2" class="node">
<title>Node2</title>
<g id="a_node2"><a xlink:href="../../da/dce/class_multi_pass_voxelizer.html#a2b54c4f4c8ea36eaf38f79caa5a5f97f" target="_top" xlink:title=" ">
<polygon fill="white" stroke="black" points="136,-22.5 136,-52.5 236,-52.5 236,-22.5 136,-22.5"/>
<text text-anchor="start" x="144" y="-40.5" font-family="Helvetica,sans-Serif" font-size="10.00">MultiPassVoxelizer</text>
<text text-anchor="middle" x="186" y="-29.5" font-family="Helvetica,sans-Serif" font-size="10.00">::translateToOrigin</text>
</a>
</g>
</g>
<!-- Node1&#45;&gt;Node2 -->
<g id="edge1" class="edge">
<title>Node1&#45;&gt;Node2</title>
<path fill="none" stroke="midnightblue" d="M261.88,-25.21C253.28,-26.62 244.5,-28.06 236.13,-29.43"/>
<polygon fill="midnightblue" stroke="midnightblue" points="262.56,-28.64 271.86,-23.57 261.43,-21.73 262.56,-28.64"/>
</g>
<!-- Node3 -->
<g id="node3" class="node">
<title>Node3</title>
<g id="a_node3"><a xlink:href="../../da/dce/class_multi_pass_voxelizer.html#abb1e58d42145fecc9e937c614a297861" target="_top" xlink:title="Execute voxelization algorithm.">
<polygon fill="white" stroke="black" points="0,-0.5 0,-30.5 100,-30.5 100,-0.5 0,-0.5"/>
<text text-anchor="start" x="8" y="-18.5" font-family="Helvetica,sans-Serif" font-size="10.00">MultiPassVoxelizer</text>
<text text-anchor="middle" x="50" y="-7.5" font-family="Helvetica,sans-Serif" font-size="10.00">::update</text>
</a>
</g>
</g>
<!-- Node1&#45;&gt;Node3 -->
<g id="edge3" class="edge">
<title>Node1&#45;&gt;Node3</title>
<path fill="none" stroke="midnightblue" d="M261.31,-13.92C252.81,-13.74 244.18,-13.6 236,-13.5 191.56,-12.98 180.44,-12.98 136,-13.5 124.49,-13.64 112.1,-13.87 100.44,-14.14"/>
<polygon fill="midnightblue" stroke="midnightblue" points="261.49,-17.42 271.56,-14.14 261.64,-10.42 261.49,-17.42"/>
</g>
<!-- Node2&#45;&gt;Node3 -->
<g id="edge2" class="edge">
<title>Node2&#45;&gt;Node3</title>
<path fill="none" stroke="midnightblue" d="M125.88,-27.79C117.28,-26.38 108.5,-24.94 100.13,-23.57"/>
<polygon fill="midnightblue" stroke="midnightblue" points="125.43,-31.27 135.86,-29.43 126.56,-24.36 125.43,-31.27"/>
</g>
</g>
</svg>
