<?xml version="1.0" encoding="UTF-8" standalone="no"?>
<!DOCTYPE svg PUBLIC "-//W3C//DTD SVG 1.1//EN"
 "http://www.w3.org/Graphics/SVG/1.1/DTD/svg11.dtd">
<!-- Generated by graphviz version 2.44.1 (0)
 -->
<!-- Title: LayoutAlgorithms::computeNearestPointInsideInnerVoxelGrid Pages: 1 -->
<svg width="364pt" height="186pt"
 viewBox="0.00 0.00 364.00 186.00" xmlns="http://www.w3.org/2000/svg" xmlns:xlink="http://www.w3.org/1999/xlink">
<g id="graph0" class="graph" transform="scale(1 1) rotate(0) translate(4 182)">
<title>LayoutAlgorithms::computeNearestPointInsideInnerVoxelGrid</title>
<polygon fill="white" stroke="transparent" points="-4,4 -4,-182 360,-182 360,4 -4,4"/>
<!-- Node1 -->
<g id="node1" class="node">
<title>Node1</title>
<g id="a_node1"><a xlink:title="Computes the nearest voxel index to a given index point which is inside of the mesh boundaries.">
<polygon fill="#bfbfbf" stroke="black" points="192,-73.5 192,-103.5 356,-103.5 356,-73.5 192,-73.5"/>
<text text-anchor="start" x="200" y="-91.5" font-family="Helvetica,sans-Serif" font-size="10.00">LayoutAlgorithms::compute</text>
<text text-anchor="middle" x="274" y="-80.5" font-family="Helvetica,sans-Serif" font-size="10.00">NearestPointInsideInnerVoxelGrid</text>
</a>
</g>
</g>
<!-- Node2 -->
<g id="node2" class="node">
<title>Node2</title>
<g id="a_node2"><a xlink:href="../../da/dcb/class_freehand_add_final_point_callback.html#a4a889b08c802e7e81598b8dd8b5e3dad" target="_top" xlink:title="Overwritten callback method, which is executed when the left mouse button is pressed.">
<polygon fill="white" stroke="black" points="0,-147.5 0,-177.5 156,-177.5 156,-147.5 0,-147.5"/>
<text text-anchor="start" x="8" y="-165.5" font-family="Helvetica,sans-Serif" font-size="10.00">FreehandAddFinalPointCallback</text>
<text text-anchor="middle" x="78" y="-154.5" font-family="Helvetica,sans-Serif" font-size="10.00">::Execute</text>
</a>
</g>
</g>
<!-- Node1&#45;&gt;Node2 -->
<g id="edge1" class="edge">
<title>Node1&#45;&gt;Node2</title>
<path fill="none" stroke="midnightblue" d="M230.91,-107.71C208.83,-117.48 181.19,-129.22 156,-138.5 147.59,-141.6 138.57,-144.65 129.78,-147.48"/>
<polygon fill="midnightblue" stroke="midnightblue" points="232.62,-110.79 240.33,-103.52 229.77,-104.39 232.62,-110.79"/>
</g>
<!-- Node3 -->
<g id="node3" class="node">
<title>Node3</title>
<g id="a_node3"><a xlink:href="../../d4/d58/class_polyline_add_final_point_callback.html#aebf2f4ff9236a12c598205822c2949a2" target="_top" xlink:title="Overwritten callback method, which is executed when the left mouse button is pressed for the first ti...">
<polygon fill="white" stroke="black" points="3,-98.5 3,-128.5 153,-128.5 153,-98.5 3,-98.5"/>
<text text-anchor="start" x="11" y="-116.5" font-family="Helvetica,sans-Serif" font-size="10.00">PolylineAddFinalPointCallback</text>
<text text-anchor="middle" x="78" y="-105.5" font-family="Helvetica,sans-Serif" font-size="10.00">::Execute</text>
</a>
</g>
</g>
<!-- Node1&#45;&gt;Node3 -->
<g id="edge2" class="edge">
<title>Node1&#45;&gt;Node3</title>
<path fill="none" stroke="midnightblue" d="M181.83,-100.25C172.18,-101.49 162.44,-102.75 153.02,-103.96"/>
<polygon fill="midnightblue" stroke="midnightblue" points="182.38,-103.71 191.85,-98.96 181.49,-96.76 182.38,-103.71"/>
</g>
<!-- Node4 -->
<g id="node4" class="node">
<title>Node4</title>
<g id="a_node4"><a xlink:href="../../db/dbb/class_picking_interactor_style.html#a22c8515240e36efd282409c27faf0e52" target="_top" xlink:title="Overloaded method, invoked when left mouse button is pressed.">
<polygon fill="white" stroke="black" points="21.5,-49.5 21.5,-79.5 134.5,-79.5 134.5,-49.5 21.5,-49.5"/>
<text text-anchor="start" x="29.5" y="-67.5" font-family="Helvetica,sans-Serif" font-size="10.00">PickingInteractorStyle</text>
<text text-anchor="middle" x="78" y="-56.5" font-family="Helvetica,sans-Serif" font-size="10.00">::OnLeftButtonDown</text>
</a>
</g>
</g>
<!-- Node1&#45;&gt;Node4 -->
<g id="edge3" class="edge">
<title>Node1&#45;&gt;Node4</title>
<path fill="none" stroke="midnightblue" d="M181.83,-77.22C165.67,-75.22 149.29,-73.2 134.5,-71.37"/>
<polygon fill="midnightblue" stroke="midnightblue" points="181.5,-80.71 191.85,-78.46 182.36,-73.76 181.5,-80.71"/>
</g>
<!-- Node5 -->
<g id="node5" class="node">
<title>Node5</title>
<g id="a_node5"><a xlink:href="../../d1/db5/class_lasso_interactor_style.html#a711994cec6c74643d2bc161ba73daacd" target="_top" xlink:title="Overwritten method, which is executed when the left mouse button is released.">
<polygon fill="white" stroke="black" points="24.5,-0.5 24.5,-30.5 131.5,-30.5 131.5,-0.5 24.5,-0.5"/>
<text text-anchor="start" x="32.5" y="-18.5" font-family="Helvetica,sans-Serif" font-size="10.00">LassoInteractorStyle</text>
<text text-anchor="middle" x="78" y="-7.5" font-family="Helvetica,sans-Serif" font-size="10.00">::OnLeftButtonUp</text>
</a>
</g>
</g>
<!-- Node1&#45;&gt;Node5 -->
<g id="edge4" class="edge">
<title>Node1&#45;&gt;Node5</title>
<path fill="none" stroke="midnightblue" d="M228.88,-69.48C207.1,-60.32 180.33,-49.43 156,-40.5 146.76,-37.11 136.82,-33.71 127.25,-30.55"/>
<polygon fill="midnightblue" stroke="midnightblue" points="227.63,-72.75 238.2,-73.42 230.35,-66.3 227.63,-72.75"/>
</g>
</g>
</svg>
