<?xml version="1.0" encoding="UTF-8" standalone="no"?>
<!DOCTYPE svg PUBLIC "-//W3C//DTD SVG 1.1//EN"
 "http://www.w3.org/Graphics/SVG/1.1/DTD/svg11.dtd">
<!-- Generated by graphviz version 2.44.1 (0)
 -->
<!-- Title: LayoutAlgorithms::isVoxelIndexInsideMeshBoundaries Pages: 1 -->
<svg width="331pt" height="104pt"
 viewBox="0.00 0.00 331.00 104.00" xmlns="http://www.w3.org/2000/svg" xmlns:xlink="http://www.w3.org/1999/xlink">
<g id="graph0" class="graph" transform="scale(1 1) rotate(0) translate(4 100)">
<title>LayoutAlgorithms::isVoxelIndexInsideMeshBoundaries</title>
<polygon fill="white" stroke="transparent" points="-4,4 -4,-100 327,-100 327,4 -4,4"/>
<!-- Node1 -->
<g id="node1" class="node">
<title>Node1</title>
<g id="a_node1"><a xlink:title="Checks if a given index point is part of the voxels which lie inside the meshs boundaries.">
<polygon fill="#bfbfbf" stroke="black" points="0,-33 0,-63 140,-63 140,-33 0,-33"/>
<text text-anchor="start" x="8" y="-51" font-family="Helvetica,sans-Serif" font-size="10.00">LayoutAlgorithms::isVoxel</text>
<text text-anchor="middle" x="70" y="-40" font-family="Helvetica,sans-Serif" font-size="10.00">IndexInsideMeshBoundaries</text>
</a>
</g>
</g>
<!-- Node2 -->
<g id="node2" class="node">
<title>Node2</title>
<g id="a_node2"><a xlink:href="../../d6/db5/class_scene.html#a7e5ee53ea01ef113afaaf4b7c10accf3" target="_top" xlink:title="Return the voxel grid image data.">
<polygon fill="white" stroke="black" points="195,-76.5 195,-95.5 304,-95.5 304,-76.5 195,-76.5"/>
<text text-anchor="middle" x="249.5" y="-83.5" font-family="Helvetica,sans-Serif" font-size="10.00">Scene::getVoxelData</text>
</a>
</g>
</g>
<!-- Node1&#45;&gt;Node2 -->
<g id="edge1" class="edge">
<title>Node1&#45;&gt;Node2</title>
<path fill="none" stroke="midnightblue" d="M140.13,-62.8C158.12,-66.65 177.23,-70.74 194.32,-74.4"/>
<polygon fill="midnightblue" stroke="midnightblue" points="193.61,-77.83 204.12,-76.5 195.08,-70.98 193.61,-77.83"/>
</g>
<!-- Node3 -->
<g id="node3" class="node">
<title>Node3</title>
<g id="a_node3"><a xlink:href="../../d6/db5/class_scene.html#a5a6d3fda8f75cf2aa8b19d7fd7f3c355" target="_top" xlink:title="Return the voxelization resolution.">
<polygon fill="white" stroke="black" points="176,-38.5 176,-57.5 323,-57.5 323,-38.5 176,-38.5"/>
<text text-anchor="middle" x="249.5" y="-45.5" font-family="Helvetica,sans-Serif" font-size="10.00">Scene::getVoxelizeResolution</text>
</a>
</g>
</g>
<!-- Node1&#45;&gt;Node3 -->
<g id="edge2" class="edge">
<title>Node1&#45;&gt;Node3</title>
<path fill="none" stroke="midnightblue" d="M140.13,-48C148.53,-48 157.17,-48 165.74,-48"/>
<polygon fill="midnightblue" stroke="midnightblue" points="165.74,-51.5 175.74,-48 165.74,-44.5 165.74,-51.5"/>
</g>
<!-- Node4 -->
<g id="node4" class="node">
<title>Node4</title>
<g id="a_node4"><a xlink:href="../../d1/d7c/namespace_utils.html#a606fb1eb5072ca20f56293fa71bd8578" target="_top" xlink:title="Compute 1D linearized index from 3D&#45;coodinate index.">
<polygon fill="white" stroke="black" points="221.5,-0.5 221.5,-19.5 277.5,-19.5 277.5,-0.5 221.5,-0.5"/>
<text text-anchor="middle" x="249.5" y="-7.5" font-family="Helvetica,sans-Serif" font-size="10.00">Utils::idx</text>
</a>
</g>
</g>
<!-- Node1&#45;&gt;Node4 -->
<g id="edge3" class="edge">
<title>Node1&#45;&gt;Node4</title>
<path fill="none" stroke="midnightblue" d="M140.13,-33.2C164.45,-27.99 190.83,-22.35 211.48,-17.93"/>
<polygon fill="midnightblue" stroke="midnightblue" points="212.37,-21.31 221.41,-15.8 210.9,-14.47 212.37,-21.31"/>
</g>
</g>
</svg>
