<?xml version="1.0" encoding="UTF-8" standalone="no"?>
<!DOCTYPE svg PUBLIC "-//W3C//DTD SVG 1.1//EN"
 "http://www.w3.org/Graphics/SVG/1.1/DTD/svg11.dtd">
<!-- Generated by graphviz version 2.44.1 (0)
 -->
<!-- Title: LayoutAlgorithms::isVoxelIndexInsideMeshBoundaries Pages: 1 -->
<svg width="340pt" height="186pt"
 viewBox="0.00 0.00 340.00 186.00" xmlns="http://www.w3.org/2000/svg" xmlns:xlink="http://www.w3.org/1999/xlink">
<g id="graph0" class="graph" transform="scale(1 1) rotate(0) translate(4 182)">
<title>LayoutAlgorithms::isVoxelIndexInsideMeshBoundaries</title>
<polygon fill="white" stroke="transparent" points="-4,4 -4,-182 336,-182 336,4 -4,4"/>
<!-- Node1 -->
<g id="node1" class="node">
<title>Node1</title>
<g id="a_node1"><a xlink:title="Checks if a given index point is part of the voxels which lie inside the meshs boundaries.">
<polygon fill="#bfbfbf" stroke="black" points="192,-73.5 192,-103.5 332,-103.5 332,-73.5 192,-73.5"/>
<text text-anchor="start" x="200" y="-91.5" font-family="Helvetica,sans-Serif" font-size="10.00">LayoutAlgorithms::isVoxel</text>
<text text-anchor="middle" x="262" y="-80.5" font-family="Helvetica,sans-Serif" font-size="10.00">IndexInsideMeshBoundaries</text>
</a>
</g>
</g>
<!-- Node2 -->
<g id="node2" class="node">
<title>Node2</title>
<g id="a_node2"><a xlink:href="../../da/dcb/class_freehand_add_final_point_callback.html#a4a889b08c802e7e81598b8dd8b5e3dad" target="_top" xlink:title="Overwritten callback method, which is executed when the left mouse button is pressed.">
<polygon fill="white" stroke="black" points="0,-147.5 0,-177.5 156,-177.5 156,-147.5 0,-147.5"/>
<text text-anchor="start" x="8" y="-165.5" font-family="Helvetica,sans-Serif" font-size="10.00">FreehandAddFinalPointCallback</text>
<text text-anchor="middle" x="78" y="-154.5" font-family="Helvetica,sans-Serif" font-size="10.00">::Execute</text>
</a>
</g>
</g>
<!-- Node1&#45;&gt;Node2 -->
<g id="edge1" class="edge">
<title>Node1&#45;&gt;Node2</title>
<path fill="none" stroke="midnightblue" d="M223.11,-108.15C203.39,-117.96 178.72,-129.6 156,-138.5 147.92,-141.67 139.23,-144.71 130.71,-147.5"/>
<polygon fill="midnightblue" stroke="midnightblue" points="224.71,-111.26 232.07,-103.65 221.57,-105.01 224.71,-111.26"/>
</g>
<!-- Node3 -->
<g id="node3" class="node">
<title>Node3</title>
<g id="a_node3"><a xlink:href="../../d4/d58/class_polyline_add_final_point_callback.html#aebf2f4ff9236a12c598205822c2949a2" target="_top" xlink:title="Overwritten callback method, which is executed when the left mouse button is pressed for the first ti...">
<polygon fill="white" stroke="black" points="3,-98.5 3,-128.5 153,-128.5 153,-98.5 3,-98.5"/>
<text text-anchor="start" x="11" y="-116.5" font-family="Helvetica,sans-Serif" font-size="10.00">PolylineAddFinalPointCallback</text>
<text text-anchor="middle" x="78" y="-105.5" font-family="Helvetica,sans-Serif" font-size="10.00">::Execute</text>
</a>
</g>
</g>
<!-- Node1&#45;&gt;Node3 -->
<g id="edge2" class="edge">
<title>Node1&#45;&gt;Node3</title>
<path fill="none" stroke="midnightblue" d="M181.73,-99.39C172.24,-100.69 162.59,-102.02 153.18,-103.31"/>
<polygon fill="midnightblue" stroke="midnightblue" points="182.5,-102.82 191.93,-97.99 181.55,-95.88 182.5,-102.82"/>
</g>
<!-- Node4 -->
<g id="node4" class="node">
<title>Node4</title>
<g id="a_node4"><a xlink:href="../../db/dbb/class_picking_interactor_style.html#a22c8515240e36efd282409c27faf0e52" target="_top" xlink:title="Overloaded method, invoked when left mouse button is pressed.">
<polygon fill="white" stroke="black" points="21.5,-49.5 21.5,-79.5 134.5,-79.5 134.5,-49.5 21.5,-49.5"/>
<text text-anchor="start" x="29.5" y="-67.5" font-family="Helvetica,sans-Serif" font-size="10.00">PickingInteractorStyle</text>
<text text-anchor="middle" x="78" y="-56.5" font-family="Helvetica,sans-Serif" font-size="10.00">::OnLeftButtonDown</text>
</a>
</g>
</g>
<!-- Node1&#45;&gt;Node4 -->
<g id="edge3" class="edge">
<title>Node1&#45;&gt;Node4</title>
<path fill="none" stroke="midnightblue" d="M181.63,-78.03C165.82,-75.95 149.54,-73.8 134.72,-71.85"/>
<polygon fill="midnightblue" stroke="midnightblue" points="181.56,-81.55 191.93,-79.39 182.48,-74.62 181.56,-81.55"/>
</g>
<!-- Node5 -->
<g id="node5" class="node">
<title>Node5</title>
<g id="a_node5"><a xlink:href="../../d1/db5/class_lasso_interactor_style.html#a711994cec6c74643d2bc161ba73daacd" target="_top" xlink:title="Overwritten method, which is executed when the left mouse button is released.">
<polygon fill="white" stroke="black" points="24.5,-0.5 24.5,-30.5 131.5,-30.5 131.5,-0.5 24.5,-0.5"/>
<text text-anchor="start" x="32.5" y="-18.5" font-family="Helvetica,sans-Serif" font-size="10.00">LassoInteractorStyle</text>
<text text-anchor="middle" x="78" y="-7.5" font-family="Helvetica,sans-Serif" font-size="10.00">::OnLeftButtonUp</text>
</a>
</g>
</g>
<!-- Node1&#45;&gt;Node5 -->
<g id="edge4" class="edge">
<title>Node1&#45;&gt;Node5</title>
<path fill="none" stroke="midnightblue" d="M221.44,-69.11C201.96,-59.9 177.99,-49.06 156,-40.5 147.09,-37.03 137.49,-33.64 128.18,-30.53"/>
<polygon fill="midnightblue" stroke="midnightblue" points="220.08,-72.34 230.62,-73.49 223.09,-66.02 220.08,-72.34"/>
</g>
</g>
</svg>
